<?xml version="1.0" encoding="UTF-8" standalone="no"?>
<!DOCTYPE svg PUBLIC "-//W3C//DTD SVG 1.1//EN"
 "http://www.w3.org/Graphics/SVG/1.1/DTD/svg11.dtd">
<!-- Generated by graphviz version 2.44.0 ()
 -->
<!-- Title: include/SSystem/SComponent/c_API_controller_pad.h Pages: 1 -->
<svg width="568pt" height="441pt"
 viewBox="0.00 0.00 568.00 441.00" xmlns="http://www.w3.org/2000/svg" xmlns:xlink="http://www.w3.org/1999/xlink">
<g id="graph0" class="graph" transform="scale(1 1) rotate(0) translate(4 437)">
<title>include/SSystem/SComponent/c_API_controller_pad.h</title>
<polygon fill="white" stroke="transparent" points="-4,4 -4,-437 564,-437 564,4 -4,4"/>
<!-- Node1 -->
<g id="node1" class="node">
<title>Node1</title>
<g id="a_node1"><a xlink:title=" ">
<polygon fill="#bfbfbf" stroke="black" points="72.5,-402.5 72.5,-432.5 221.5,-432.5 221.5,-402.5 72.5,-402.5"/>
<text text-anchor="start" x="80.5" y="-420.5" font-family="Helvetica,sans-Serif" font-size="10.00">include/SSystem/SComponent</text>
<text text-anchor="middle" x="147" y="-409.5" font-family="Helvetica,sans-Serif" font-size="10.00">/c_API_controller_pad.h</text>
</a>
</g>
</g>
<!-- Node2 -->
<g id="node2" class="node">
<title>Node2</title>
<g id="a_node2"><a xlink:href="c__API__controller__pad_8cpp.html" target="_top" xlink:title=" ">
<polygon fill="white" stroke="black" points="0,-335.5 0,-365.5 134,-365.5 134,-335.5 0,-335.5"/>
<text text-anchor="start" x="8" y="-353.5" font-family="Helvetica,sans-Serif" font-size="10.00">libs/SSystem/SComponent</text>
<text text-anchor="middle" x="67" y="-342.5" font-family="Helvetica,sans-Serif" font-size="10.00">/c_API_controller_pad.cpp</text>
</a>
</g>
</g>
<!-- Node1&#45;&gt;Node2 -->
<g id="edge1" class="edge">
<title>Node1&#45;&gt;Node2</title>
<path fill="none" stroke="midnightblue" d="M121.63,-395.88C109.47,-386.01 95.22,-374.43 84.32,-365.58"/>
<polygon fill="midnightblue" stroke="midnightblue" points="119.67,-398.81 129.64,-402.4 124.09,-393.37 119.67,-398.81"/>
</g>
<!-- Node3 -->
<g id="node3" class="node">
<title>Node3</title>
<g id="a_node3"><a xlink:href="m__Do__controller__pad_8h.html" target="_top" xlink:title=" ">
<polygon fill="white" stroke="black" points="152.5,-335.5 152.5,-365.5 301.5,-365.5 301.5,-335.5 152.5,-335.5"/>
<text text-anchor="start" x="160.5" y="-353.5" font-family="Helvetica,sans-Serif" font-size="10.00">include/m_Do/m_Do_controller</text>
<text text-anchor="middle" x="227" y="-342.5" font-family="Helvetica,sans-Serif" font-size="10.00">_pad.h</text>
</a>
</g>
</g>
<!-- Node1&#45;&gt;Node3 -->
<g id="edge2" class="edge">
<title>Node1&#45;&gt;Node3</title>
<path fill="none" stroke="midnightblue" d="M172.37,-395.88C184.53,-386.01 198.78,-374.43 209.68,-365.58"/>
<polygon fill="midnightblue" stroke="midnightblue" points="169.91,-393.37 164.36,-402.4 174.33,-398.81 169.91,-393.37"/>
</g>
<!-- Node4 -->
<g id="node4" class="node">
<title>Node4</title>
<g id="a_node4"><a xlink:href="m__Do__controller__pad_8cpp.html" target="_top" xlink:title=" ">
<polygon fill="white" stroke="black" points="11,-268.5 11,-298.5 143,-298.5 143,-268.5 11,-268.5"/>
<text text-anchor="start" x="19" y="-286.5" font-family="Helvetica,sans-Serif" font-size="10.00">src/m_Do/m_Do_controller</text>
<text text-anchor="middle" x="77" y="-275.5" font-family="Helvetica,sans-Serif" font-size="10.00">_pad.cpp</text>
</a>
</g>
</g>
<!-- Node3&#45;&gt;Node4 -->
<g id="edge3" class="edge">
<title>Node3&#45;&gt;Node4</title>
<path fill="none" stroke="midnightblue" d="M185.25,-331.41C161.3,-321.03 131.68,-308.2 109.48,-298.58"/>
<polygon fill="midnightblue" stroke="midnightblue" points="183.89,-334.63 194.45,-335.4 186.67,-328.21 183.89,-334.63"/>
</g>
<!-- Node5 -->
<g id="node5" class="node">
<title>Node5</title>
<g id="a_node5"><a xlink:href="m__Do__main_8cpp.html" target="_top" xlink:title=" ">
<polygon fill="white" stroke="black" points="161.5,-274 161.5,-293 292.5,-293 292.5,-274 161.5,-274"/>
<text text-anchor="middle" x="227" y="-281" font-family="Helvetica,sans-Serif" font-size="10.00">src/m_Do/m_Do_main.cpp</text>
</a>
</g>
</g>
<!-- Node3&#45;&gt;Node5 -->
<g id="edge4" class="edge">
<title>Node3&#45;&gt;Node5</title>
<path fill="none" stroke="midnightblue" d="M227,-325.25C227,-314.02 227,-301.38 227,-293.19"/>
<polygon fill="midnightblue" stroke="midnightblue" points="223.5,-325.4 227,-335.4 230.5,-325.4 223.5,-325.4"/>
</g>
<!-- Node6 -->
<g id="node6" class="node">
<title>Node6</title>
<g id="a_node6"><a xlink:href="d__menu__window_8h.html" target="_top" xlink:title=" ">
<polygon fill="white" stroke="black" points="311,-268.5 311,-298.5 431,-298.5 431,-268.5 311,-268.5"/>
<text text-anchor="start" x="319" y="-286.5" font-family="Helvetica,sans-Serif" font-size="10.00">include/d/menu/d_menu</text>
<text text-anchor="middle" x="371" y="-275.5" font-family="Helvetica,sans-Serif" font-size="10.00">_window.h</text>
</a>
</g>
</g>
<!-- Node3&#45;&gt;Node6 -->
<g id="edge5" class="edge">
<title>Node3&#45;&gt;Node6</title>
<path fill="none" stroke="midnightblue" d="M267.39,-331.27C290.32,-320.92 318.6,-308.15 339.82,-298.58"/>
<polygon fill="midnightblue" stroke="midnightblue" points="265.92,-328.09 258.25,-335.4 268.8,-334.47 265.92,-328.09"/>
</g>
<!-- Node7 -->
<g id="node7" class="node">
<title>Node7</title>
<g id="a_node7"><a xlink:href="d__menu__window_8cpp.html" target="_top" xlink:title=" ">
<polygon fill="white" stroke="black" points="130.5,-207 130.5,-226 289.5,-226 289.5,-207 130.5,-207"/>
<text text-anchor="middle" x="210" y="-214" font-family="Helvetica,sans-Serif" font-size="10.00">src/d/menu/d_menu_window.cpp</text>
</a>
</g>
</g>
<!-- Node6&#45;&gt;Node7 -->
<g id="edge6" class="edge">
<title>Node6&#45;&gt;Node7</title>
<path fill="none" stroke="midnightblue" d="M326.72,-264.62C295.55,-252.04 255.24,-235.77 231.07,-226.01"/>
<polygon fill="midnightblue" stroke="midnightblue" points="325.48,-267.9 336.07,-268.4 328.1,-261.41 325.48,-267.9"/>
</g>
<!-- Node8 -->
<g id="node8" class="node">
<title>Node8</title>
<g id="a_node8"><a xlink:href="d__meter2__info_8h.html" target="_top" xlink:title=" ">
<polygon fill="white" stroke="black" points="307.5,-201.5 307.5,-231.5 434.5,-231.5 434.5,-201.5 307.5,-201.5"/>
<text text-anchor="start" x="315.5" y="-219.5" font-family="Helvetica,sans-Serif" font-size="10.00">include/d/meter/d_meter2</text>
<text text-anchor="middle" x="371" y="-208.5" font-family="Helvetica,sans-Serif" font-size="10.00">_info.h</text>
</a>
</g>
</g>
<!-- Node6&#45;&gt;Node8 -->
<g id="edge7" class="edge">
<title>Node6&#45;&gt;Node8</title>
<path fill="none" stroke="midnightblue" d="M364.45,-258.4C364.01,-249.37 364.3,-239.41 365.33,-231.58"/>
<polygon fill="midnightblue" stroke="midnightblue" points="360.97,-258.74 365.32,-268.4 367.94,-258.13 360.97,-258.74"/>
</g>
<!-- Node8&#45;&gt;Node6 -->
<g id="edge14" class="edge">
<title>Node8&#45;&gt;Node6</title>
<path fill="none" stroke="midnightblue" d="M377.54,-241.57C377.99,-250.6 377.71,-260.56 376.68,-268.4"/>
<polygon fill="midnightblue" stroke="midnightblue" points="381.03,-241.24 376.67,-231.58 374.05,-241.84 381.03,-241.24"/>
</g>
<!-- Node9 -->
<g id="node9" class="node">
<title>Node9</title>
<g id="a_node9"><a xlink:href="d__com__inf__game_8cpp.html" target="_top" xlink:title=" ">
<polygon fill="white" stroke="black" points="341,-0.5 341,-30.5 449,-30.5 449,-0.5 341,-0.5"/>
<text text-anchor="start" x="349" y="-18.5" font-family="Helvetica,sans-Serif" font-size="10.00">src/d/com/d_com_inf</text>
<text text-anchor="middle" x="395" y="-7.5" font-family="Helvetica,sans-Serif" font-size="10.00">_game.cpp</text>
</a>
</g>
</g>
<!-- Node8&#45;&gt;Node9 -->
<g id="edge8" class="edge">
<title>Node8&#45;&gt;Node9</title>
<path fill="none" stroke="midnightblue" d="M334.88,-195.8C323.85,-187.81 313.05,-177.48 307,-165 299.75,-150.05 298.94,-85.47 310,-67 319.97,-50.36 337.7,-38.57 354.39,-30.59"/>
<polygon fill="midnightblue" stroke="midnightblue" points="333.02,-198.78 343.28,-201.46 336.93,-192.97 333.02,-198.78"/>
</g>
<!-- Node10 -->
<g id="node10" class="node">
<title>Node10</title>
<g id="a_node10"><a xlink:href="d__meter2__info_8cpp.html" target="_top" xlink:title=" ">
<polygon fill="white" stroke="black" points="316,-134.5 316,-164.5 426,-164.5 426,-134.5 316,-134.5"/>
<text text-anchor="start" x="324" y="-152.5" font-family="Helvetica,sans-Serif" font-size="10.00">src/d/meter/d_meter2</text>
<text text-anchor="middle" x="371" y="-141.5" font-family="Helvetica,sans-Serif" font-size="10.00">_info.cpp</text>
</a>
</g>
</g>
<!-- Node8&#45;&gt;Node10 -->
<g id="edge9" class="edge">
<title>Node8&#45;&gt;Node10</title>
<path fill="none" stroke="midnightblue" d="M371,-191.11C371,-182.15 371,-172.32 371,-164.58"/>
<polygon fill="midnightblue" stroke="midnightblue" points="367.5,-191.4 371,-201.4 374.5,-191.4 367.5,-191.4"/>
</g>
<!-- Node11 -->
<g id="node11" class="node">
<title>Node11</title>
<g id="a_node11"><a xlink:href="d__a__alink_8h.html" target="_top" xlink:title=" ">
<polygon fill="white" stroke="black" points="444,-140 444,-159 560,-159 560,-140 444,-140"/>
<text text-anchor="middle" x="502" y="-147" font-family="Helvetica,sans-Serif" font-size="10.00">include/d/a/d_a_alink.h</text>
</a>
</g>
</g>
<!-- Node8&#45;&gt;Node11 -->
<g id="edge10" class="edge">
<title>Node8&#45;&gt;Node11</title>
<path fill="none" stroke="midnightblue" d="M408.68,-196.8C433.8,-184.34 465.61,-168.56 484.86,-159.01"/>
<polygon fill="midnightblue" stroke="midnightblue" points="406.83,-193.82 399.43,-201.4 409.94,-200.09 406.83,-193.82"/>
</g>
<!-- Node12 -->
<g id="node12" class="node">
<title>Node12</title>
<g id="a_node12"><a xlink:href="d__a__alink_8cpp.html" target="_top" xlink:title=" ">
<polygon fill="white" stroke="black" points="319.5,-73 319.5,-92 428.5,-92 428.5,-73 319.5,-73"/>
<text text-anchor="middle" x="374" y="-80" font-family="Helvetica,sans-Serif" font-size="10.00">src/d/a/d_a_alink.cpp</text>
</a>
</g>
</g>
<!-- Node11&#45;&gt;Node12 -->
<g id="edge11" class="edge">
<title>Node11&#45;&gt;Node12</title>
<path fill="none" stroke="midnightblue" d="M475.95,-135.27C450.6,-122.4 412.81,-103.21 391.07,-92.17"/>
<polygon fill="midnightblue" stroke="midnightblue" points="474.5,-138.46 485,-139.87 477.67,-132.22 474.5,-138.46"/>
</g>
<!-- Node13 -->
<g id="node13" class="node">
<title>Node13</title>
<g id="a_node13"><a xlink:href="d__com__inf__game_8h.html" target="_top" xlink:title=" ">
<polygon fill="white" stroke="black" points="447,-67.5 447,-97.5 557,-97.5 557,-67.5 447,-67.5"/>
<text text-anchor="start" x="455" y="-85.5" font-family="Helvetica,sans-Serif" font-size="10.00">include/d/com/d_com</text>
<text text-anchor="middle" x="502" y="-74.5" font-family="Helvetica,sans-Serif" font-size="10.00">_inf_game.h</text>
</a>
</g>
</g>
<!-- Node11&#45;&gt;Node13 -->
<g id="edge12" class="edge">
<title>Node11&#45;&gt;Node13</title>
<path fill="none" stroke="midnightblue" d="M502,-129.41C502,-119.22 502,-106.9 502,-97.59"/>
<polygon fill="midnightblue" stroke="midnightblue" points="498.5,-129.73 502,-139.73 505.5,-129.73 498.5,-129.73"/>
</g>
<!-- Node13&#45;&gt;Node9 -->
<g id="edge13" class="edge">
<title>Node13&#45;&gt;Node9</title>
<path fill="none" stroke="midnightblue" d="M469.92,-62.02C453.27,-51.9 433.31,-39.77 418.17,-30.58"/>
<polygon fill="midnightblue" stroke="midnightblue" points="468.42,-65.2 478.78,-67.4 472.05,-59.21 468.42,-65.2"/>
</g>
</g>
</svg>
