<?xml version="1.0" encoding="UTF-8" standalone="no"?>
<!DOCTYPE svg PUBLIC "-//W3C//DTD SVG 1.1//EN"
 "http://www.w3.org/Graphics/SVG/1.1/DTD/svg11.dtd">
<!-- Generated by graphviz version 2.44.0 ()
 -->
<!-- Title: include/SSystem/SComponent/c_API_controller_pad.h Pages: 1 -->
<!--zoomable 497 -->
<svg id="main" version="1.1" xmlns="http://www.w3.org/2000/svg" xmlns:xlink="http://www.w3.org/1999/xlink" xml:space="preserve" onload="init(evt)">
<style type="text/css"><![CDATA[
.edge:hover path { stroke: red; }
.edge:hover polygon { stroke: red; fill: red; }
]]></style>
<script type="text/javascript"><![CDATA[
var edges = document.getElementsByTagName('g');
if (edges && edges.length) {
  for (var i=0;i<edges.length;i++) {
    if (edges[i].id.substr(0,4)=='edge') {
      edges[i].setAttribute('class','edge');
    }
  }
}
]]></script>
        <defs>
                <circle id="rim" cx="0" cy="0" r="7"/>
                <circle id="rim2" cx="0" cy="0" r="3.5"/>
                <g id="zoomPlus">
                        <use xlink:href="#rim" fill="#404040">
                                <set attributeName="fill" to="#808080" begin="zoomplus.mouseover" end="zoomplus.mouseout"/>
                        </use>
                        <path d="M-4,0h8M0,-4v8" fill="none" stroke="white" stroke-width="1.5" pointer-events="none"/>
                </g>
                <g id="zoomMin">
                        <use xlink:href="#rim" fill="#404040">
                                <set attributeName="fill" to="#808080" begin="zoomminus.mouseover" end="zoomminus.mouseout"/>
                        </use>
                        <path d="M-4,0h8" fill="none" stroke="white" stroke-width="1.5" pointer-events="none"/>
                </g>
                <g id="dirArrow">
                        <path fill="none" stroke="white" stroke-width="1.5" d="M0,-3.0v7 M-2.5,-0.5L0,-3.0L2.5,-0.5"/>
                </g>
               <g id="resetDef">
                       <use xlink:href="#rim2" fill="#404040">
                               <set attributeName="fill" to="#808080" begin="reset.mouseover" end="reset.mouseout"/>
                       </use>
               </g>
        </defs>

<script type="text/javascript">
var viewWidth = 982;
var viewHeight = 497;
var sectionId = 'dynsection-1';
</script>
<script xlink:href="svgpan.js"/>
<svg id="graph" class="graph">
<g id="viewport">
<title>include/SSystem/SComponent/c_API_controller_pad.h</title>
<polygon fill="white" stroke="transparent" points="-4,4 -4,-493 978.49,-493 978.49,4 -4,4"/>
<!-- Node1 -->
<g id="node1" class="node">
<title>Node1</title>
<g id="a_node1"><a xlink:title=" ">
<polygon fill="#bfbfbf" stroke="black" points="84.5,-458.5 84.5,-488.5 233.5,-488.5 233.5,-458.5 84.5,-458.5"/>
<text text-anchor="start" x="92.5" y="-476.5" font-family="Helvetica,sans-Serif" font-size="10.00">include/SSystem/SComponent</text>
<text text-anchor="middle" x="159" y="-465.5" font-family="Helvetica,sans-Serif" font-size="10.00">/c_API_controller_pad.h</text>
</a>
</g>
</g>
<!-- Node2 -->
<g id="node2" class="node">
<title>Node2</title>
<g id="a_node2"><a xlink:href="c__API__controller__pad_8cpp.html" target="_top" xlink:title=" ">
<polygon fill="white" stroke="black" points="12,-391.5 12,-421.5 146,-421.5 146,-391.5 12,-391.5"/>
<text text-anchor="start" x="20" y="-409.5" font-family="Helvetica,sans-Serif" font-size="10.00">libs/SSystem/SComponent</text>
<text text-anchor="middle" x="79" y="-398.5" font-family="Helvetica,sans-Serif" font-size="10.00">/c_API_controller_pad.cpp</text>
</a>
</g>
</g>
<!-- Node1&#45;&gt;Node2 -->
<g id="edge1" class="edge">
<title>Node1&#45;&gt;Node2</title>
<path fill="none" stroke="midnightblue" d="M133.63,-451.88C121.47,-442.01 107.22,-430.43 96.32,-421.58"/>
<polygon fill="midnightblue" stroke="midnightblue" points="131.67,-454.81 141.64,-458.4 136.09,-449.37 131.67,-454.81"/>
</g>
<!-- Node3 -->
<g id="node3" class="node">
<title>Node3</title>
<g id="a_node3"><a xlink:href="m__Do__controller__pad_8h.html" target="_top" xlink:title=" ">
<polygon fill="white" stroke="black" points="164.5,-391.5 164.5,-421.5 313.5,-421.5 313.5,-391.5 164.5,-391.5"/>
<text text-anchor="start" x="172.5" y="-409.5" font-family="Helvetica,sans-Serif" font-size="10.00">include/m_Do/m_Do_controller</text>
<text text-anchor="middle" x="239" y="-398.5" font-family="Helvetica,sans-Serif" font-size="10.00">_pad.h</text>
</a>
</g>
</g>
<!-- Node1&#45;&gt;Node3 -->
<g id="edge2" class="edge">
<title>Node1&#45;&gt;Node3</title>
<path fill="none" stroke="midnightblue" d="M184.37,-451.88C196.53,-442.01 210.78,-430.43 221.68,-421.58"/>
<polygon fill="midnightblue" stroke="midnightblue" points="181.91,-449.37 176.36,-458.4 186.33,-454.81 181.91,-449.37"/>
</g>
<!-- Node4 -->
<g id="node4" class="node">
<title>Node4</title>
<g id="a_node4"><a xlink:href="d__lib_8cpp.html" target="_top" xlink:title=" ">
<polygon fill="white" stroke="black" points="0,-330 0,-349 80,-349 80,-330 0,-330"/>
<text text-anchor="middle" x="40" y="-337" font-family="Helvetica,sans-Serif" font-size="10.00">src/d/d_lib.cpp</text>
</a>
</g>
</g>
<!-- Node3&#45;&gt;Node4 -->
<g id="edge3" class="edge">
<title>Node3&#45;&gt;Node4</title>
<path fill="none" stroke="midnightblue" d="M186.25,-388.27C147.47,-375.6 96.44,-358.93 66.04,-349.01"/>
<polygon fill="midnightblue" stroke="midnightblue" points="185.23,-391.62 195.82,-391.4 187.4,-384.96 185.23,-391.62"/>
</g>
<!-- Node5 -->
<g id="node5" class="node">
<title>Node5</title>
<g id="a_node5"><a xlink:href="m__Do__controller__pad_8cpp.html" target="_top" xlink:title=" ">
<polygon fill="white" stroke="black" points="98,-324.5 98,-354.5 230,-354.5 230,-324.5 98,-324.5"/>
<text text-anchor="start" x="106" y="-342.5" font-family="Helvetica,sans-Serif" font-size="10.00">src/m_Do/m_Do_controller</text>
<text text-anchor="middle" x="164" y="-331.5" font-family="Helvetica,sans-Serif" font-size="10.00">_pad.cpp</text>
</a>
</g>
</g>
<!-- Node3&#45;&gt;Node5 -->
<g id="edge4" class="edge">
<title>Node3&#45;&gt;Node5</title>
<path fill="none" stroke="midnightblue" d="M214.88,-384.6C203.56,-374.78 190.36,-363.34 180.24,-354.58"/>
<polygon fill="midnightblue" stroke="midnightblue" points="212.88,-387.49 222.73,-391.4 217.46,-382.2 212.88,-387.49"/>
</g>
<!-- Node6 -->
<g id="node6" class="node">
<title>Node6</title>
<g id="a_node6"><a xlink:href="m__Do__main_8cpp.html" target="_top" xlink:title=" ">
<polygon fill="white" stroke="black" points="248.5,-330 248.5,-349 379.5,-349 379.5,-330 248.5,-330"/>
<text text-anchor="middle" x="314" y="-337" font-family="Helvetica,sans-Serif" font-size="10.00">src/m_Do/m_Do_main.cpp</text>
</a>
</g>
</g>
<!-- Node3&#45;&gt;Node6 -->
<g id="edge5" class="edge">
<title>Node3&#45;&gt;Node6</title>
<path fill="none" stroke="midnightblue" d="M263.03,-384.67C276.88,-372.67 293.55,-358.22 303.97,-349.19"/>
<polygon fill="midnightblue" stroke="midnightblue" points="260.54,-382.2 255.27,-391.4 265.12,-387.49 260.54,-382.2"/>
</g>
<!-- Node7 -->
<g id="node7" class="node">
<title>Node7</title>
<g id="a_node7"><a xlink:href="d__menu__window_8h.html" target="_top" xlink:title=" ">
<polygon fill="white" stroke="black" points="398,-324.5 398,-354.5 518,-354.5 518,-324.5 398,-324.5"/>
<text text-anchor="start" x="406" y="-342.5" font-family="Helvetica,sans-Serif" font-size="10.00">include/d/menu/d_menu</text>
<text text-anchor="middle" x="458" y="-331.5" font-family="Helvetica,sans-Serif" font-size="10.00">_window.h</text>
</a>
</g>
</g>
<!-- Node3&#45;&gt;Node7 -->
<g id="edge6" class="edge">
<title>Node3&#45;&gt;Node7</title>
<path fill="none" stroke="midnightblue" d="M296.01,-388.58C331.58,-378.02 376.83,-364.59 410.46,-354.61"/>
<polygon fill="midnightblue" stroke="midnightblue" points="294.84,-385.28 286.25,-391.48 296.83,-391.99 294.84,-385.28"/>
</g>
<!-- Node8 -->
<g id="node8" class="node">
<title>Node8</title>
<g id="a_node8"><a xlink:href="d__menu__window_8cpp.html" target="_top" xlink:title=" ">
<polygon fill="white" stroke="black" points="217.5,-263 217.5,-282 376.5,-282 376.5,-263 217.5,-263"/>
<text text-anchor="middle" x="297" y="-270" font-family="Helvetica,sans-Serif" font-size="10.00">src/d/menu/d_menu_window.cpp</text>
</a>
</g>
</g>
<!-- Node7&#45;&gt;Node8 -->
<g id="edge7" class="edge">
<title>Node7&#45;&gt;Node8</title>
<path fill="none" stroke="midnightblue" d="M413.72,-320.62C382.55,-308.04 342.24,-291.77 318.07,-282.01"/>
<polygon fill="midnightblue" stroke="midnightblue" points="412.48,-323.9 423.07,-324.4 415.1,-317.41 412.48,-323.9"/>
</g>
<!-- Node9 -->
<g id="node9" class="node">
<title>Node9</title>
<g id="a_node9"><a xlink:href="d__meter2__info_8h.html" target="_top" xlink:title=" ">
<polygon fill="white" stroke="black" points="394.5,-257.5 394.5,-287.5 521.5,-287.5 521.5,-257.5 394.5,-257.5"/>
<text text-anchor="start" x="402.5" y="-275.5" font-family="Helvetica,sans-Serif" font-size="10.00">include/d/meter/d_meter2</text>
<text text-anchor="middle" x="458" y="-264.5" font-family="Helvetica,sans-Serif" font-size="10.00">_info.h</text>
</a>
</g>
</g>
<!-- Node7&#45;&gt;Node9 -->
<g id="edge8" class="edge">
<title>Node7&#45;&gt;Node9</title>
<path fill="none" stroke="midnightblue" d="M451.45,-314.4C451.01,-305.37 451.3,-295.41 452.33,-287.58"/>
<polygon fill="midnightblue" stroke="midnightblue" points="447.97,-314.74 452.32,-324.4 454.94,-314.13 447.97,-314.74"/>
</g>
<!-- Node9&#45;&gt;Node7 -->
<g id="edge25" class="edge">
<title>Node9&#45;&gt;Node7</title>
<path fill="none" stroke="midnightblue" d="M464.54,-297.57C464.99,-306.6 464.71,-316.56 463.68,-324.4"/>
<polygon fill="midnightblue" stroke="midnightblue" points="468.03,-297.24 463.67,-287.58 461.05,-297.84 468.03,-297.24"/>
</g>
<!-- Node10 -->
<g id="node10" class="node">
<title>Node10</title>
<g id="a_node10"><a xlink:href="d__com__inf__game_8cpp.html" target="_top" xlink:title=" ">
<polygon fill="white" stroke="black" points="650,-0.5 650,-30.5 758,-30.5 758,-0.5 650,-0.5"/>
<text text-anchor="start" x="658" y="-18.5" font-family="Helvetica,sans-Serif" font-size="10.00">src/d/com/d_com_inf</text>
<text text-anchor="middle" x="704" y="-7.5" font-family="Helvetica,sans-Serif" font-size="10.00">_game.cpp</text>
</a>
</g>
</g>
<!-- Node9&#45;&gt;Node10 -->
<g id="edge9" class="edge">
<title>Node9&#45;&gt;Node10</title>
<path fill="none" stroke="midnightblue" d="M384.7,-255.18C266.62,-225.75 55.55,-158.25 139,-67 173.06,-29.76 514.88,-19.78 649.72,-17.28"/>
<polygon fill="midnightblue" stroke="midnightblue" points="383.89,-258.58 394.43,-257.57 385.56,-251.79 383.89,-258.58"/>
</g>
<!-- Node11 -->
<g id="node11" class="node">
<title>Node11</title>
<g id="a_node11"><a xlink:href="d__item_8cpp.html" target="_top" xlink:title=" ">
<polygon fill="white" stroke="black" points="860.5,-6 860.5,-25 949.5,-25 949.5,-6 860.5,-6"/>
<text text-anchor="middle" x="905" y="-13" font-family="Helvetica,sans-Serif" font-size="10.00">src/d/d_item.cpp</text>
</a>
</g>
</g>
<!-- Node9&#45;&gt;Node11 -->
<g id="edge10" class="edge">
<title>Node9&#45;&gt;Node11</title>
<path fill="none" stroke="midnightblue" d="M532.01,-271.43C647.81,-266.81 868.92,-238.86 969,-98 976.98,-86.77 975.01,-79.4 969,-67 959.62,-47.64 938.81,-33.47 923.46,-25.15"/>
<polygon fill="midnightblue" stroke="midnightblue" points="531.69,-267.94 521.82,-271.79 531.94,-274.93 531.69,-267.94"/>
</g>
<!-- Node12 -->
<g id="node12" class="node">
<title>Node12</title>
<g id="a_node12"><a xlink:href="d__meter2__info_8cpp.html" target="_top" xlink:title=" ">
<polygon fill="white" stroke="black" points="148,-67.5 148,-97.5 258,-97.5 258,-67.5 148,-67.5"/>
<text text-anchor="start" x="156" y="-85.5" font-family="Helvetica,sans-Serif" font-size="10.00">src/d/meter/d_meter2</text>
<text text-anchor="middle" x="203" y="-74.5" font-family="Helvetica,sans-Serif" font-size="10.00">_info.cpp</text>
</a>
</g>
</g>
<!-- Node9&#45;&gt;Node12 -->
<g id="edge11" class="edge">
<title>Node9&#45;&gt;Node12</title>
<path fill="none" stroke="midnightblue" d="M430.74,-251.4C378.78,-213.1 266.79,-130.53 222.04,-97.54"/>
<polygon fill="midnightblue" stroke="midnightblue" points="428.71,-254.25 438.83,-257.37 432.86,-248.62 428.71,-254.25"/>
</g>
<!-- Node13 -->
<g id="node13" class="node">
<title>Node13</title>
<g id="a_node13"><a xlink:href="d__save_8cpp.html" target="_top" xlink:title=" ">
<polygon fill="white" stroke="black" points="845.5,-73 845.5,-92 960.5,-92 960.5,-73 845.5,-73"/>
<text text-anchor="middle" x="903" y="-80" font-family="Helvetica,sans-Serif" font-size="10.00">src/d/save/d_save.cpp</text>
</a>
</g>
</g>
<!-- Node9&#45;&gt;Node13 -->
<g id="edge12" class="edge">
<title>Node9&#45;&gt;Node13</title>
<path fill="none" stroke="midnightblue" d="M500.9,-253.38C594.5,-213.83 814.14,-121.04 882.39,-92.21"/>
<polygon fill="midnightblue" stroke="midnightblue" points="499.3,-250.25 491.45,-257.37 502.02,-256.7 499.3,-250.25"/>
</g>
<!-- Node14 -->
<g id="node14" class="node">
<title>Node14</title>
<g id="a_node14"><a xlink:href="d__a__alink_8h.html" target="_top" xlink:title=" ">
<polygon fill="white" stroke="black" points="400,-201.5 400,-220.5 516,-220.5 516,-201.5 400,-201.5"/>
<text text-anchor="middle" x="458" y="-208.5" font-family="Helvetica,sans-Serif" font-size="10.00">include/d/a/d_a_alink.h</text>
</a>
</g>
</g>
<!-- Node9&#45;&gt;Node14 -->
<g id="edge13" class="edge">
<title>Node9&#45;&gt;Node14</title>
<path fill="none" stroke="midnightblue" d="M458,-247.29C458,-237.86 458,-227.65 458,-220.66"/>
<polygon fill="midnightblue" stroke="midnightblue" points="454.5,-247.4 458,-257.4 461.5,-247.4 454.5,-247.4"/>
</g>
<!-- Node15 -->
<g id="node15" class="node">
<title>Node15</title>
<g id="a_node15"><a xlink:href="d__a__alink_8cpp.html" target="_top" xlink:title=" ">
<polygon fill="white" stroke="black" points="276.5,-73 276.5,-92 385.5,-92 385.5,-73 276.5,-73"/>
<text text-anchor="middle" x="331" y="-80" font-family="Helvetica,sans-Serif" font-size="10.00">src/d/a/d_a_alink.cpp</text>
</a>
</g>
</g>
<!-- Node14&#45;&gt;Node15 -->
<g id="edge14" class="edge">
<title>Node14&#45;&gt;Node15</title>
<path fill="none" stroke="midnightblue" d="M442.11,-194.17C415.07,-167.24 360.97,-113.35 339.79,-92.26"/>
<polygon fill="midnightblue" stroke="midnightblue" points="439.72,-196.73 449.27,-201.31 444.66,-191.77 439.72,-196.73"/>
</g>
<!-- Node16 -->
<g id="node16" class="node">
<title>Node16</title>
<g id="a_node16"><a xlink:href="d__com__inf__game_8h.html" target="_top" xlink:title=" ">
<polygon fill="white" stroke="black" points="481,-134.5 481,-164.5 591,-164.5 591,-134.5 481,-134.5"/>
<text text-anchor="start" x="489" y="-152.5" font-family="Helvetica,sans-Serif" font-size="10.00">include/d/com/d_com</text>
<text text-anchor="middle" x="536" y="-141.5" font-family="Helvetica,sans-Serif" font-size="10.00">_inf_game.h</text>
</a>
</g>
</g>
<!-- Node14&#45;&gt;Node16 -->
<g id="edge15" class="edge">
<title>Node14&#45;&gt;Node16</title>
<path fill="none" stroke="midnightblue" d="M477.41,-195.2C489.71,-185.81 505.52,-173.75 517.62,-164.52"/>
<polygon fill="midnightblue" stroke="midnightblue" points="475,-192.63 469.18,-201.48 479.25,-198.19 475,-192.63"/>
</g>
<!-- Node16&#45;&gt;Node10 -->
<g id="edge16" class="edge">
<title>Node16&#45;&gt;Node10</title>
<path fill="none" stroke="midnightblue" d="M601.41,-140.52C630.44,-133.74 662.76,-121.2 684,-98 701.02,-79.41 704.17,-48.73 704.42,-30.78"/>
<polygon fill="midnightblue" stroke="midnightblue" points="600.35,-137.17 591.31,-142.69 601.82,-144.02 600.35,-137.17"/>
</g>
<!-- Node16&#45;&gt;Node12 -->
<g id="edge19" class="edge">
<title>Node16&#45;&gt;Node12</title>
<path fill="none" stroke="midnightblue" d="M470.87,-136.97C416.31,-127.15 336.43,-112.38 267,-98 264.1,-97.4 261.13,-96.77 258.13,-96.13"/>
<polygon fill="midnightblue" stroke="midnightblue" points="470.3,-140.43 480.76,-138.75 471.53,-133.54 470.3,-140.43"/>
</g>
<!-- Node16&#45;&gt;Node13 -->
<g id="edge21" class="edge">
<title>Node16&#45;&gt;Node13</title>
<path fill="none" stroke="midnightblue" d="M601.39,-138.39C662.27,-128.76 755.47,-113.48 836,-98 845.47,-96.18 855.65,-94.06 865.15,-92.01"/>
<polygon fill="midnightblue" stroke="midnightblue" points="600.49,-134.99 591.15,-140 601.58,-141.9 600.49,-134.99"/>
</g>
<!-- Node16&#45;&gt;Node15 -->
<g id="edge17" class="edge">
<title>Node16&#45;&gt;Node15</title>
<path fill="none" stroke="midnightblue" d="M482.16,-131.43C442.19,-118.75 389.35,-102 357.9,-92.03"/>
<polygon fill="midnightblue" stroke="midnightblue" points="481.18,-134.79 491.77,-134.48 483.3,-128.12 481.18,-134.79"/>
</g>
<!-- Node17 -->
<g id="node17" class="node">
<title>Node17</title>
<g id="a_node17"><a xlink:href="d__event_8cpp.html" target="_top" xlink:title=" ">
<polygon fill="white" stroke="black" points="403.5,-73 403.5,-92 524.5,-92 524.5,-73 403.5,-73"/>
<text text-anchor="middle" x="464" y="-80" font-family="Helvetica,sans-Serif" font-size="10.00">src/d/event/d_event.cpp</text>
</a>
</g>
</g>
<!-- Node16&#45;&gt;Node17 -->
<g id="edge18" class="edge">
<title>Node16&#45;&gt;Node17</title>
<path fill="none" stroke="midnightblue" d="M512.93,-127.67C499.64,-115.67 483.63,-101.22 473.63,-92.19"/>
<polygon fill="midnightblue" stroke="midnightblue" points="510.61,-130.29 520.38,-134.4 515.3,-125.1 510.61,-130.29"/>
</g>
<!-- Node18 -->
<g id="node18" class="node">
<title>Node18</title>
<g id="a_node18"><a xlink:href="d__msg__flow_8cpp.html" target="_top" xlink:title=" ">
<polygon fill="white" stroke="black" points="542.5,-73 542.5,-92 675.5,-92 675.5,-73 542.5,-73"/>
<text text-anchor="middle" x="609" y="-80" font-family="Helvetica,sans-Serif" font-size="10.00">src/d/msg/d_msg_flow.cpp</text>
</a>
</g>
</g>
<!-- Node16&#45;&gt;Node18 -->
<g id="edge20" class="edge">
<title>Node16&#45;&gt;Node18</title>
<path fill="none" stroke="midnightblue" d="M559.39,-127.67C572.87,-115.67 589.1,-101.22 599.24,-92.19"/>
<polygon fill="midnightblue" stroke="midnightblue" points="556.98,-125.13 551.84,-134.4 561.64,-130.36 556.98,-125.13"/>
</g>
<!-- Node19 -->
<g id="node19" class="node">
<title>Node19</title>
<g id="a_node19"><a xlink:href="d__item_8h.html" target="_top" xlink:title=" ">
<polygon fill="white" stroke="black" points="732.5,-73 732.5,-92 827.5,-92 827.5,-73 732.5,-73"/>
<text text-anchor="middle" x="780" y="-80" font-family="Helvetica,sans-Serif" font-size="10.00">include/d/d_item.h</text>
</a>
</g>
</g>
<!-- Node16&#45;&gt;Node19 -->
<g id="edge22" class="edge">
<title>Node16&#45;&gt;Node19</title>
<path fill="none" stroke="midnightblue" d="M598.57,-131.83C646.33,-119.11 710.16,-102.11 747.98,-92.03"/>
<polygon fill="midnightblue" stroke="midnightblue" points="597.41,-128.52 588.64,-134.48 599.21,-135.28 597.41,-128.52"/>
</g>
<!-- Node19&#45;&gt;Node10 -->
<g id="edge23" class="edge">
<title>Node19&#45;&gt;Node10</title>
<path fill="none" stroke="midnightblue" d="M761.79,-65.93C749.22,-55.18 732.65,-41 720.47,-30.59"/>
<polygon fill="midnightblue" stroke="midnightblue" points="759.88,-68.89 769.75,-72.73 764.43,-63.57 759.88,-68.89"/>
</g>
<!-- Node19&#45;&gt;Node11 -->
<g id="edge24" class="edge">
<title>Node19&#45;&gt;Node11</title>
<path fill="none" stroke="midnightblue" d="M805.76,-68.1C830.52,-55.23 867.19,-36.16 888.33,-25.17"/>
<polygon fill="midnightblue" stroke="midnightblue" points="803.86,-65.15 796.6,-72.87 807.09,-71.36 803.86,-65.15"/>
</g>
</g>
</svg>
        <g id="navigator" transform="translate(0 0)" fill="#404254">
                <rect fill="#f2f5e9" fill-opacity="0.5" stroke="#606060" stroke-width=".5" x="0" y="0" width="60" height="60"/>
                <use id="zoomplus" xlink:href="#zoomPlus" x="17" y="9" onmousedown="handleZoom(evt,'in')"/>
                <use id="zoomminus" xlink:href="#zoomMin" x="42" y="9" onmousedown="handleZoom(evt,'out')"/>
                <use id="reset" xlink:href="#resetDef" x="30" y="36" onmousedown="handleReset()"/>
                <g id="arrowUp" xlink:href="#dirArrow" transform="translate(30 24)" onmousedown="handlePan(0,-1)">
                  <use xlink:href="#rim" fill="#404040">
                        <set attributeName="fill" to="#808080" begin="arrowUp.mouseover" end="arrowUp.mouseout"/>
                  </use>
                  <path fill="none" stroke="white" stroke-width="1.5" d="M0,-3.0v7 M-2.5,-0.5L0,-3.0L2.5,-0.5"/>
                </g>
                <g id="arrowRight" xlink:href="#dirArrow" transform="rotate(90) translate(36 -43)" onmousedown="handlePan(1,0)">
                  <use xlink:href="#rim" fill="#404040">
                        <set attributeName="fill" to="#808080" begin="arrowRight.mouseover" end="arrowRight.mouseout"/>
                  </use>
                  <path fill="none" stroke="white" stroke-width="1.5" d="M0,-3.0v7 M-2.5,-0.5L0,-3.0L2.5,-0.5"/>
                </g>
                <g id="arrowDown" xlink:href="#dirArrow" transform="rotate(180) translate(-30 -48)" onmousedown="handlePan(0,1)">
                  <use xlink:href="#rim" fill="#404040">
                        <set attributeName="fill" to="#808080" begin="arrowDown.mouseover" end="arrowDown.mouseout"/>
                  </use>
                  <path fill="none" stroke="white" stroke-width="1.5" d="M0,-3.0v7 M-2.5,-0.5L0,-3.0L2.5,-0.5"/>
                </g>
                <g id="arrowLeft" xlink:href="#dirArrow" transform="rotate(270) translate(-36 17)" onmousedown="handlePan(-1,0)">
                  <use xlink:href="#rim" fill="#404040">
                        <set attributeName="fill" to="#808080" begin="arrowLeft.mouseover" end="arrowLeft.mouseout"/>
                  </use>
                  <path fill="none" stroke="white" stroke-width="1.5" d="M0,-3.0v7 M-2.5,-0.5L0,-3.0L2.5,-0.5"/>
                </g>
        </g>
        <svg viewBox="0 0 15 15" width="100%" height="30px" preserveAspectRatio="xMaxYMin meet">
         <g id="arrow_out" transform="scale(0.3 0.3)">
          <a xlink:href="c__API__controller__pad_8h__dep__incl_org.svg" target="_base">
           <rect id="button" ry="5" rx="5" y="6" x="6" height="38" width="38"
                fill="#f2f5e9" fill-opacity="0.5" stroke="#606060" stroke-width="1.0"/>
           <path id="arrow"
             d="M 11.500037,31.436501 C 11.940474,20.09759 22.043105,11.32322 32.158766,21.979434 L 37.068811,17.246167 C 37.068811,17.246167 37.088388,32 37.088388,32 L 22.160133,31.978069 C 22.160133,31.978069 26.997745,27.140456 26.997745,27.140456 C 18.528582,18.264221 13.291696,25.230495 11.500037,31.436501 z"
             style="fill:#404040;"/>
          </a>
         </g>
        </svg>
</svg>
