<?xml version="1.0" encoding="UTF-8" standalone="no"?>
<!DOCTYPE svg PUBLIC "-//W3C//DTD SVG 1.1//EN"
 "http://www.w3.org/Graphics/SVG/1.1/DTD/svg11.dtd">
<!-- Generated by graphviz version 2.44.0 ()
 -->
<!-- Title: include/SSystem/SComponent/c_bg_s_chk.h Pages: 1 -->
<!--zoomable 620 -->
<svg id="main" version="1.1" xmlns="http://www.w3.org/2000/svg" xmlns:xlink="http://www.w3.org/1999/xlink" xml:space="preserve" onload="init(evt)">
<style type="text/css"><![CDATA[
.edge:hover path { stroke: red; }
.edge:hover polygon { stroke: red; fill: red; }
]]></style>
<script type="text/javascript"><![CDATA[
var edges = document.getElementsByTagName('g');
if (edges && edges.length) {
  for (var i=0;i<edges.length;i++) {
    if (edges[i].id.substr(0,4)=='edge') {
      edges[i].setAttribute('class','edge');
    }
  }
}
]]></script>
        <defs>
                <circle id="rim" cx="0" cy="0" r="7"/>
                <circle id="rim2" cx="0" cy="0" r="3.5"/>
                <g id="zoomPlus">
                        <use xlink:href="#rim" fill="#404040">
                                <set attributeName="fill" to="#808080" begin="zoomplus.mouseover" end="zoomplus.mouseout"/>
                        </use>
                        <path d="M-4,0h8M0,-4v8" fill="none" stroke="white" stroke-width="1.5" pointer-events="none"/>
                </g>
                <g id="zoomMin">
                        <use xlink:href="#rim" fill="#404040">
                                <set attributeName="fill" to="#808080" begin="zoomminus.mouseover" end="zoomminus.mouseout"/>
                        </use>
                        <path d="M-4,0h8" fill="none" stroke="white" stroke-width="1.5" pointer-events="none"/>
                </g>
                <g id="dirArrow">
                        <path fill="none" stroke="white" stroke-width="1.5" d="M0,-3.0v7 M-2.5,-0.5L0,-3.0L2.5,-0.5"/>
                </g>
               <g id="resetDef">
                       <use xlink:href="#rim2" fill="#404040">
                               <set attributeName="fill" to="#808080" begin="reset.mouseover" end="reset.mouseout"/>
                       </use>
               </g>
        </defs>

<script type="text/javascript">
var viewWidth = 1254;
var viewHeight = 620;
var sectionId = 'dynsection-1';
</script>
<script xlink:href="svgpan.js"/>
<svg id="graph" class="graph">
<g id="viewport">
<title>include/SSystem/SComponent/c_bg_s_chk.h</title>
<polygon fill="white" stroke="transparent" points="-4,4 -4,-616 1249.5,-616 1249.5,4 -4,4"/>
<!-- Node1 -->
<g id="node1" class="node">
<title>Node1</title>
<g id="a_node1"><a xlink:title=" ">
<polygon fill="#bfbfbf" stroke="black" points="401,-581.5 401,-611.5 550,-611.5 550,-581.5 401,-581.5"/>
<text text-anchor="start" x="409" y="-599.5" font-family="Helvetica,sans-Serif" font-size="10.00">include/SSystem/SComponent</text>
<text text-anchor="middle" x="475.5" y="-588.5" font-family="Helvetica,sans-Serif" font-size="10.00">/c_bg_s_chk.h</text>
</a>
</g>
</g>
<!-- Node2 -->
<g id="node2" class="node">
<title>Node2</title>
<g id="a_node2"><a xlink:href="c__bg__s__chk_8cpp.html" target="_top" xlink:title=" ">
<polygon fill="white" stroke="black" points="12.5,-514.5 12.5,-544.5 146.5,-544.5 146.5,-514.5 12.5,-514.5"/>
<text text-anchor="start" x="20.5" y="-532.5" font-family="Helvetica,sans-Serif" font-size="10.00">libs/SSystem/SComponent</text>
<text text-anchor="middle" x="79.5" y="-521.5" font-family="Helvetica,sans-Serif" font-size="10.00">/c_bg_s_chk.cpp</text>
</a>
</g>
</g>
<!-- Node1&#45;&gt;Node2 -->
<g id="edge1" class="edge">
<title>Node1&#45;&gt;Node2</title>
<path fill="none" stroke="midnightblue" d="M390.58,-582.86C326.02,-573.06 235.05,-558.86 155.5,-545 152.59,-544.49 149.62,-543.97 146.62,-543.43"/>
<polygon fill="midnightblue" stroke="midnightblue" points="390.3,-586.35 400.71,-584.39 391.34,-579.43 390.3,-586.35"/>
</g>
<!-- Node3 -->
<g id="node3" class="node">
<title>Node3</title>
<g id="a_node3"><a xlink:href="c__bg__s__lin__chk_8cpp.html" target="_top" xlink:title=" ">
<polygon fill="white" stroke="black" points="408.5,-447.5 408.5,-477.5 542.5,-477.5 542.5,-447.5 408.5,-447.5"/>
<text text-anchor="start" x="416.5" y="-465.5" font-family="Helvetica,sans-Serif" font-size="10.00">libs/SSystem/SComponent</text>
<text text-anchor="middle" x="475.5" y="-454.5" font-family="Helvetica,sans-Serif" font-size="10.00">/c_bg_s_lin_chk.cpp</text>
</a>
</g>
</g>
<!-- Node1&#45;&gt;Node3 -->
<g id="edge2" class="edge">
<title>Node1&#45;&gt;Node3</title>
<path fill="none" stroke="midnightblue" d="M475.5,-571.02C475.5,-543.51 475.5,-499.79 475.5,-477.52"/>
<polygon fill="midnightblue" stroke="midnightblue" points="472,-571.37 475.5,-581.37 479,-571.37 472,-571.37"/>
</g>
<!-- Node4 -->
<g id="node4" class="node">
<title>Node4</title>
<g id="a_node4"><a xlink:href="d__bg__s__roof__chk_8h.html" target="_top" xlink:title=" ">
<polygon fill="white" stroke="black" points="328.5,-514.5 328.5,-544.5 432.5,-544.5 432.5,-514.5 328.5,-514.5"/>
<text text-anchor="start" x="336.5" y="-532.5" font-family="Helvetica,sans-Serif" font-size="10.00">include/d/bg/d_bg_s</text>
<text text-anchor="middle" x="380.5" y="-521.5" font-family="Helvetica,sans-Serif" font-size="10.00">_roof_chk.h</text>
</a>
</g>
</g>
<!-- Node1&#45;&gt;Node4 -->
<g id="edge3" class="edge">
<title>Node1&#45;&gt;Node4</title>
<path fill="none" stroke="midnightblue" d="M446.61,-575.73C431.91,-565.68 414.39,-553.68 401.07,-544.58"/>
<polygon fill="midnightblue" stroke="midnightblue" points="444.66,-578.64 454.89,-581.4 448.61,-572.86 444.66,-578.64"/>
</g>
<!-- Node24 -->
<g id="node24" class="node">
<title>Node24</title>
<g id="a_node24"><a xlink:href="d__bg__s__spl__grp__chk_8h.html" target="_top" xlink:title=" ">
<polygon fill="white" stroke="black" points="164.5,-514.5 164.5,-544.5 268.5,-544.5 268.5,-514.5 164.5,-514.5"/>
<text text-anchor="start" x="172.5" y="-532.5" font-family="Helvetica,sans-Serif" font-size="10.00">include/d/bg/d_bg_s</text>
<text text-anchor="middle" x="216.5" y="-521.5" font-family="Helvetica,sans-Serif" font-size="10.00">_spl_grp_chk.h</text>
</a>
</g>
</g>
<!-- Node1&#45;&gt;Node24 -->
<g id="edge27" class="edge">
<title>Node1&#45;&gt;Node24</title>
<path fill="none" stroke="midnightblue" d="M409.65,-578.97C365.95,-568.01 309.36,-553.81 268.75,-543.61"/>
<polygon fill="midnightblue" stroke="midnightblue" points="409.07,-582.44 419.62,-581.48 410.77,-575.65 409.07,-582.44"/>
</g>
<!-- Node28 -->
<g id="node28" class="node">
<title>Node28</title>
<g id="a_node28"><a xlink:href="c__bg__s__gnd__chk_8h.html" target="_top" xlink:title=" ">
<polygon fill="white" stroke="black" points="819,-514.5 819,-544.5 968,-544.5 968,-514.5 819,-514.5"/>
<text text-anchor="start" x="827" y="-532.5" font-family="Helvetica,sans-Serif" font-size="10.00">include/SSystem/SComponent</text>
<text text-anchor="middle" x="893.5" y="-521.5" font-family="Helvetica,sans-Serif" font-size="10.00">/c_bg_s_gnd_chk.h</text>
</a>
</g>
</g>
<!-- Node1&#45;&gt;Node28 -->
<g id="edge32" class="edge">
<title>Node1&#45;&gt;Node28</title>
<path fill="none" stroke="midnightblue" d="M560.23,-582.32C636.04,-570.54 746.1,-553.42 818.71,-542.13"/>
<polygon fill="midnightblue" stroke="midnightblue" points="559.57,-578.88 550.23,-583.88 560.65,-585.8 559.57,-578.88"/>
</g>
<!-- Node32 -->
<g id="node32" class="node">
<title>Node32</title>
<g id="a_node32"><a xlink:href="c__bg__s__lin__chk_8h.html" target="_top" xlink:title=" ">
<polygon fill="white" stroke="black" points="538,-514.5 538,-544.5 687,-544.5 687,-514.5 538,-514.5"/>
<text text-anchor="start" x="546" y="-532.5" font-family="Helvetica,sans-Serif" font-size="10.00">include/SSystem/SComponent</text>
<text text-anchor="middle" x="612.5" y="-521.5" font-family="Helvetica,sans-Serif" font-size="10.00">/c_bg_s_lin_chk.h</text>
</a>
</g>
</g>
<!-- Node1&#45;&gt;Node32 -->
<g id="edge39" class="edge">
<title>Node1&#45;&gt;Node32</title>
<path fill="none" stroke="midnightblue" d="M514.51,-576.99C536.22,-566.69 562.83,-554.07 582.83,-544.58"/>
<polygon fill="midnightblue" stroke="midnightblue" points="512.76,-573.95 505.23,-581.4 515.76,-580.27 512.76,-573.95"/>
</g>
<!-- Node35 -->
<g id="node35" class="node">
<title>Node35</title>
<g id="a_node35"><a xlink:href="c__bg__s__shdw__draw_8h.html" target="_top" xlink:title=" ">
<polygon fill="white" stroke="black" points="1045,-514.5 1045,-544.5 1194,-544.5 1194,-514.5 1045,-514.5"/>
<text text-anchor="start" x="1053" y="-532.5" font-family="Helvetica,sans-Serif" font-size="10.00">include/SSystem/SComponent</text>
<text text-anchor="middle" x="1119.5" y="-521.5" font-family="Helvetica,sans-Serif" font-size="10.00">/c_bg_s_shdw_draw.h</text>
</a>
</g>
</g>
<!-- Node1&#45;&gt;Node35 -->
<g id="edge46" class="edge">
<title>Node1&#45;&gt;Node35</title>
<path fill="none" stroke="midnightblue" d="M560.38,-587C660.2,-577 830.9,-559.86 977.5,-545 999.32,-542.79 1023.02,-540.37 1044.7,-538.16"/>
<polygon fill="midnightblue" stroke="midnightblue" points="559.95,-583.53 550.35,-588.01 560.65,-590.49 559.95,-583.53"/>
</g>
<!-- Node5 -->
<g id="node5" class="node">
<title>Node5</title>
<g id="a_node5"><a xlink:href="d__bg__s__roof__chk_8cpp.html" target="_top" xlink:title=" ">
<polygon fill="white" stroke="black" points="244.5,-447.5 244.5,-477.5 352.5,-477.5 352.5,-447.5 244.5,-447.5"/>
<text text-anchor="start" x="252.5" y="-465.5" font-family="Helvetica,sans-Serif" font-size="10.00">src/d/bg/d_bg_s_roof</text>
<text text-anchor="middle" x="298.5" y="-454.5" font-family="Helvetica,sans-Serif" font-size="10.00">_chk.cpp</text>
</a>
</g>
</g>
<!-- Node4&#45;&gt;Node5 -->
<g id="edge4" class="edge">
<title>Node4&#45;&gt;Node5</title>
<path fill="none" stroke="midnightblue" d="M354.85,-508.17C342.31,-498.23 327.53,-486.51 316.26,-477.58"/>
<polygon fill="midnightblue" stroke="midnightblue" points="352.7,-510.93 362.71,-514.4 357.04,-505.44 352.7,-510.93"/>
</g>
<!-- Node6 -->
<g id="node6" class="node">
<title>Node6</title>
<g id="a_node6"><a xlink:href="d__bg__s__acch_8h.html" target="_top" xlink:title=" ">
<polygon fill="white" stroke="black" points="343.5,-380.5 343.5,-410.5 447.5,-410.5 447.5,-380.5 343.5,-380.5"/>
<text text-anchor="start" x="351.5" y="-398.5" font-family="Helvetica,sans-Serif" font-size="10.00">include/d/bg/d_bg_s</text>
<text text-anchor="middle" x="395.5" y="-387.5" font-family="Helvetica,sans-Serif" font-size="10.00">_acch.h</text>
</a>
</g>
</g>
<!-- Node4&#45;&gt;Node6 -->
<g id="edge5" class="edge">
<title>Node4&#45;&gt;Node6</title>
<path fill="none" stroke="midnightblue" d="M383.24,-504.39C386.36,-476.9 391.36,-432.89 393.91,-410.52"/>
<polygon fill="midnightblue" stroke="midnightblue" points="379.76,-504.04 382.11,-514.37 386.71,-504.83 379.76,-504.04"/>
</g>
<!-- Node7 -->
<g id="node7" class="node">
<title>Node7</title>
<g id="a_node7"><a xlink:href="d__bg__s__acch_8cpp.html" target="_top" xlink:title=" ">
<polygon fill="white" stroke="black" points="184,-319 184,-338 315,-338 315,-319 184,-319"/>
<text text-anchor="middle" x="249.5" y="-326" font-family="Helvetica,sans-Serif" font-size="10.00">src/d/bg/d_bg_s_acch.cpp</text>
</a>
</g>
</g>
<!-- Node6&#45;&gt;Node7 -->
<g id="edge6" class="edge">
<title>Node6&#45;&gt;Node7</title>
<path fill="none" stroke="midnightblue" d="M354.61,-376.3C326.45,-363.76 290.34,-347.68 268.61,-338.01"/>
<polygon fill="midnightblue" stroke="midnightblue" points="353.26,-379.53 363.82,-380.4 356.11,-373.13 353.26,-379.53"/>
</g>
<!-- Node8 -->
<g id="node8" class="node">
<title>Node8</title>
<g id="a_node8"><a xlink:href="d__bg__w_8h.html" target="_top" xlink:title=" ">
<polygon fill="white" stroke="black" points="589,-319 589,-338 702,-338 702,-319 589,-319"/>
<text text-anchor="middle" x="645.5" y="-326" font-family="Helvetica,sans-Serif" font-size="10.00">include/d/bg/d_bg_w.h</text>
</a>
</g>
</g>
<!-- Node6&#45;&gt;Node8 -->
<g id="edge7" class="edge">
<title>Node6&#45;&gt;Node8</title>
<path fill="none" stroke="midnightblue" d="M457.48,-378.38C506.57,-365.62 573.22,-348.29 612.56,-338.06"/>
<polygon fill="midnightblue" stroke="midnightblue" points="456.4,-375.05 447.6,-380.95 458.16,-381.82 456.4,-375.05"/>
</g>
<!-- Node20 -->
<g id="node20" class="node">
<title>Node20</title>
<g id="a_node20"><a xlink:href="d__bomb_8h.html" target="_top" xlink:title=" ">
<polygon fill="white" stroke="black" points="333,-319 333,-338 434,-338 434,-319 333,-319"/>
<text text-anchor="middle" x="383.5" y="-326" font-family="Helvetica,sans-Serif" font-size="10.00">include/d/d_bomb.h</text>
</a>
</g>
</g>
<!-- Node6&#45;&gt;Node20 -->
<g id="edge22" class="edge">
<title>Node6&#45;&gt;Node20</title>
<path fill="none" stroke="midnightblue" d="M391.02,-370.25C388.95,-359.02 386.62,-346.38 385.11,-338.19"/>
<polygon fill="midnightblue" stroke="midnightblue" points="387.64,-371.2 392.9,-380.4 394.52,-369.93 387.64,-371.2"/>
</g>
<!-- Node22 -->
<g id="node22" class="node">
<title>Node22</title>
<g id="a_node22"><a xlink:href="d__particle__copoly_8h.html" target="_top" xlink:title=" ">
<polygon fill="white" stroke="black" points="452.5,-313.5 452.5,-343.5 554.5,-343.5 554.5,-313.5 452.5,-313.5"/>
<text text-anchor="start" x="460.5" y="-331.5" font-family="Helvetica,sans-Serif" font-size="10.00">include/d/particle</text>
<text text-anchor="middle" x="503.5" y="-320.5" font-family="Helvetica,sans-Serif" font-size="10.00">/d_particle_copoly.h</text>
</a>
</g>
</g>
<!-- Node6&#45;&gt;Node22 -->
<g id="edge24" class="edge">
<title>Node6&#45;&gt;Node22</title>
<path fill="none" stroke="midnightblue" d="M427.87,-375.02C444.68,-364.9 464.84,-352.77 480.11,-343.58"/>
<polygon fill="midnightblue" stroke="midnightblue" points="425.7,-372.24 418.93,-380.4 429.31,-378.24 425.7,-372.24"/>
</g>
<!-- Node9 -->
<g id="node9" class="node">
<title>Node9</title>
<g id="a_node9"><a xlink:href="d__bg__w_8cpp.html" target="_top" xlink:title=" ">
<polygon fill="white" stroke="black" points="592,-252 592,-271 699,-271 699,-252 592,-252"/>
<text text-anchor="middle" x="645.5" y="-259" font-family="Helvetica,sans-Serif" font-size="10.00">src/d/bg/d_bg_w.cpp</text>
</a>
</g>
</g>
<!-- Node8&#45;&gt;Node9 -->
<g id="edge8" class="edge">
<title>Node8&#45;&gt;Node9</title>
<path fill="none" stroke="midnightblue" d="M645.5,-308.54C645.5,-296.17 645.5,-280.62 645.5,-271.13"/>
<polygon fill="midnightblue" stroke="midnightblue" points="642,-308.73 645.5,-318.73 649,-308.73 642,-308.73"/>
</g>
<!-- Node10 -->
<g id="node10" class="node">
<title>Node10</title>
<g id="a_node10"><a xlink:href="d__bg__s_8h.html" target="_top" xlink:title=" ">
<polygon fill="white" stroke="black" points="717,-252 717,-271 828,-271 828,-252 717,-252"/>
<text text-anchor="middle" x="772.5" y="-259" font-family="Helvetica,sans-Serif" font-size="10.00">include/d/bg/d_bg_s.h</text>
</a>
</g>
</g>
<!-- Node8&#45;&gt;Node10 -->
<g id="edge9" class="edge">
<title>Node8&#45;&gt;Node10</title>
<path fill="none" stroke="midnightblue" d="M671.34,-314.27C696.5,-301.4 733.99,-282.21 755.57,-271.17"/>
<polygon fill="midnightblue" stroke="midnightblue" points="669.67,-311.2 662.36,-318.87 672.86,-317.43 669.67,-311.2"/>
</g>
<!-- Node11 -->
<g id="node11" class="node">
<title>Node11</title>
<g id="a_node11"><a xlink:href="d__bg__s_8cpp.html" target="_top" xlink:title=" ">
<polygon fill="white" stroke="black" points="760.5,-190.5 760.5,-209.5 864.5,-209.5 864.5,-190.5 760.5,-190.5"/>
<text text-anchor="middle" x="812.5" y="-197.5" font-family="Helvetica,sans-Serif" font-size="10.00">src/d/bg/d_bg_s.cpp</text>
</a>
</g>
</g>
<!-- Node10&#45;&gt;Node11 -->
<g id="edge10" class="edge">
<title>Node10&#45;&gt;Node11</title>
<path fill="none" stroke="midnightblue" d="M783.93,-243.51C791.4,-232.39 800.84,-218.34 806.78,-209.51"/>
<polygon fill="midnightblue" stroke="midnightblue" points="780.91,-241.72 778.23,-251.98 786.71,-245.63 780.91,-241.72"/>
</g>
<!-- Node12 -->
<g id="node12" class="node">
<title>Node12</title>
<g id="a_node12"><a xlink:href="d__a__alink_8h.html" target="_top" xlink:title=" ">
<polygon fill="white" stroke="black" points="542.5,-190.5 542.5,-209.5 658.5,-209.5 658.5,-190.5 542.5,-190.5"/>
<text text-anchor="middle" x="600.5" y="-197.5" font-family="Helvetica,sans-Serif" font-size="10.00">include/d/a/d_a_alink.h</text>
</a>
</g>
</g>
<!-- Node10&#45;&gt;Node12 -->
<g id="edge11" class="edge">
<title>Node10&#45;&gt;Node12</title>
<path fill="none" stroke="midnightblue" d="M738.05,-248.58C704.62,-237.02 654.71,-219.75 625.1,-209.51"/>
<polygon fill="midnightblue" stroke="midnightblue" points="737.26,-252.01 747.86,-251.98 739.55,-245.4 737.26,-252.01"/>
</g>
<!-- Node14 -->
<g id="node14" class="node">
<title>Node14</title>
<g id="a_node14"><a xlink:href="d__com__inf__game_8h.html" target="_top" xlink:title=" ">
<polygon fill="white" stroke="black" points="677.5,-123.5 677.5,-153.5 787.5,-153.5 787.5,-123.5 677.5,-123.5"/>
<text text-anchor="start" x="685.5" y="-141.5" font-family="Helvetica,sans-Serif" font-size="10.00">include/d/com/d_com</text>
<text text-anchor="middle" x="732.5" y="-130.5" font-family="Helvetica,sans-Serif" font-size="10.00">_inf_game.h</text>
</a>
</g>
</g>
<!-- Node10&#45;&gt;Node14 -->
<g id="edge21" class="edge">
<title>Node10&#45;&gt;Node14</title>
<path fill="none" stroke="midnightblue" d="M764.33,-242.47C760.18,-232.93 755.24,-220.96 751.5,-210 744.95,-190.8 739.17,-168.06 735.75,-153.71"/>
<polygon fill="midnightblue" stroke="midnightblue" points="761.17,-243.98 768.42,-251.7 767.56,-241.14 761.17,-243.98"/>
</g>
<!-- Node13 -->
<g id="node13" class="node">
<title>Node13</title>
<g id="a_node13"><a xlink:href="d__a__alink_8cpp.html" target="_top" xlink:title=" ">
<polygon fill="white" stroke="black" points="521,-67.5 521,-86.5 630,-86.5 630,-67.5 521,-67.5"/>
<text text-anchor="middle" x="575.5" y="-74.5" font-family="Helvetica,sans-Serif" font-size="10.00">src/d/a/d_a_alink.cpp</text>
</a>
</g>
</g>
<!-- Node12&#45;&gt;Node13 -->
<g id="edge12" class="edge">
<title>Node12&#45;&gt;Node13</title>
<path fill="none" stroke="midnightblue" d="M596.65,-180.35C591.16,-153.77 581.3,-106.08 577.28,-86.62"/>
<polygon fill="midnightblue" stroke="midnightblue" points="593.25,-181.21 598.7,-190.3 600.11,-179.8 593.25,-181.21"/>
</g>
<!-- Node12&#45;&gt;Node14 -->
<g id="edge13" class="edge">
<title>Node12&#45;&gt;Node14</title>
<path fill="none" stroke="midnightblue" d="M628.61,-186.33C649.96,-176.7 679.33,-163.47 701.39,-153.52"/>
<polygon fill="midnightblue" stroke="midnightblue" points="627.09,-183.17 619.41,-190.48 629.97,-189.56 627.09,-183.17"/>
</g>
<!-- Node14&#45;&gt;Node13 -->
<g id="edge15" class="edge">
<title>Node14&#45;&gt;Node13</title>
<path fill="none" stroke="midnightblue" d="M685.8,-119.8C656.94,-108.86 621.18,-95.31 598.34,-86.66"/>
<polygon fill="midnightblue" stroke="midnightblue" points="684.7,-123.13 695.29,-123.4 687.18,-116.58 684.7,-123.13"/>
</g>
<!-- Node15 -->
<g id="node15" class="node">
<title>Node15</title>
<g id="a_node15"><a xlink:href="d__com__inf__game_8cpp.html" target="_top" xlink:title=" ">
<polygon fill="white" stroke="black" points="717.5,-0.5 717.5,-30.5 825.5,-30.5 825.5,-0.5 717.5,-0.5"/>
<text text-anchor="start" x="725.5" y="-18.5" font-family="Helvetica,sans-Serif" font-size="10.00">src/d/com/d_com_inf</text>
<text text-anchor="middle" x="771.5" y="-7.5" font-family="Helvetica,sans-Serif" font-size="10.00">_game.cpp</text>
</a>
</g>
</g>
<!-- Node14&#45;&gt;Node15 -->
<g id="edge14" class="edge">
<title>Node14&#45;&gt;Node15</title>
<path fill="none" stroke="midnightblue" d="M741.85,-113.89C745.06,-105.46 748.58,-95.86 751.5,-87 757.87,-67.67 764.09,-44.96 767.86,-30.65"/>
<polygon fill="midnightblue" stroke="midnightblue" points="738.49,-112.87 738.14,-123.46 745.02,-115.4 738.49,-112.87"/>
</g>
<!-- Node16 -->
<g id="node16" class="node">
<title>Node16</title>
<g id="a_node16"><a xlink:href="d__event_8cpp.html" target="_top" xlink:title=" ">
<polygon fill="white" stroke="black" points="800,-67.5 800,-86.5 921,-86.5 921,-67.5 800,-67.5"/>
<text text-anchor="middle" x="860.5" y="-74.5" font-family="Helvetica,sans-Serif" font-size="10.00">src/d/event/d_event.cpp</text>
</a>
</g>
</g>
<!-- Node14&#45;&gt;Node16 -->
<g id="edge16" class="edge">
<title>Node14&#45;&gt;Node16</title>
<path fill="none" stroke="midnightblue" d="M772.12,-119.08C795.37,-108.28 823.67,-95.12 841.87,-86.66"/>
<polygon fill="midnightblue" stroke="midnightblue" points="770.43,-116.01 762.83,-123.4 773.38,-122.36 770.43,-116.01"/>
</g>
<!-- Node17 -->
<g id="node17" class="node">
<title>Node17</title>
<g id="a_node17"><a xlink:href="d__save_8cpp.html" target="_top" xlink:title=" ">
<polygon fill="white" stroke="black" points="939,-67.5 939,-86.5 1054,-86.5 1054,-67.5 939,-67.5"/>
<text text-anchor="middle" x="996.5" y="-74.5" font-family="Helvetica,sans-Serif" font-size="10.00">src/d/save/d_save.cpp</text>
</a>
</g>
</g>
<!-- Node14&#45;&gt;Node17 -->
<g id="edge17" class="edge">
<title>Node14&#45;&gt;Node17</title>
<path fill="none" stroke="midnightblue" d="M797.39,-122.87C848.01,-111.47 916.56,-96.02 958.59,-86.54"/>
<polygon fill="midnightblue" stroke="midnightblue" points="796.51,-119.49 787.52,-125.1 798.05,-126.31 796.51,-119.49"/>
</g>
<!-- Node18 -->
<g id="node18" class="node">
<title>Node18</title>
<g id="a_node18"><a xlink:href="d__item_8h.html" target="_top" xlink:title=" ">
<polygon fill="white" stroke="black" points="648,-67.5 648,-86.5 743,-86.5 743,-67.5 648,-67.5"/>
<text text-anchor="middle" x="695.5" y="-74.5" font-family="Helvetica,sans-Serif" font-size="10.00">include/d/d_item.h</text>
</a>
</g>
</g>
<!-- Node14&#45;&gt;Node18 -->
<g id="edge18" class="edge">
<title>Node14&#45;&gt;Node18</title>
<path fill="none" stroke="midnightblue" d="M718.39,-114.8C712.27,-104.96 705.47,-94.03 700.88,-86.66"/>
<polygon fill="midnightblue" stroke="midnightblue" points="715.48,-116.76 723.73,-123.4 721.42,-113.06 715.48,-116.76"/>
</g>
<!-- Node18&#45;&gt;Node15 -->
<g id="edge19" class="edge">
<title>Node18&#45;&gt;Node15</title>
<path fill="none" stroke="midnightblue" d="M714.41,-61.2C726.39,-51.81 741.8,-39.75 753.59,-30.52"/>
<polygon fill="midnightblue" stroke="midnightblue" points="712.11,-58.55 706.39,-67.48 716.42,-64.07 712.11,-58.55"/>
</g>
<!-- Node19 -->
<g id="node19" class="node">
<title>Node19</title>
<g id="a_node19"><a xlink:href="d__item_8cpp.html" target="_top" xlink:title=" ">
<polygon fill="white" stroke="black" points="610,-6 610,-25 699,-25 699,-6 610,-6"/>
<text text-anchor="middle" x="654.5" y="-13" font-family="Helvetica,sans-Serif" font-size="10.00">src/d/d_item.cpp</text>
</a>
</g>
</g>
<!-- Node18&#45;&gt;Node19 -->
<g id="edge20" class="edge">
<title>Node18&#45;&gt;Node19</title>
<path fill="none" stroke="midnightblue" d="M683.79,-59.01C676.13,-47.89 666.45,-33.84 660.36,-25.01"/>
<polygon fill="midnightblue" stroke="midnightblue" points="681.07,-61.23 689.63,-67.48 686.83,-57.25 681.07,-61.23"/>
</g>
<!-- Node21 -->
<g id="node21" class="node">
<title>Node21</title>
<g id="a_node21"><a xlink:href="d__bomb_8cpp.html" target="_top" xlink:title=" ">
<polygon fill="white" stroke="black" points="305.5,-252 305.5,-271 399.5,-271 399.5,-252 305.5,-252"/>
<text text-anchor="middle" x="352.5" y="-259" font-family="Helvetica,sans-Serif" font-size="10.00">src/d/d_bomb.cpp</text>
</a>
</g>
</g>
<!-- Node20&#45;&gt;Node21 -->
<g id="edge23" class="edge">
<title>Node20&#45;&gt;Node21</title>
<path fill="none" stroke="midnightblue" d="M374.99,-309.66C369.01,-297.13 361.28,-280.91 356.61,-271.13"/>
<polygon fill="midnightblue" stroke="midnightblue" points="371.86,-311.21 379.32,-318.73 378.17,-308.2 371.86,-311.21"/>
</g>
<!-- Node22&#45;&gt;Node12 -->
<g id="edge26" class="edge">
<title>Node22&#45;&gt;Node12</title>
<path fill="none" stroke="midnightblue" d="M521.67,-305.58C528.87,-296.77 537.17,-286.48 544.5,-277 563.15,-252.89 584.26,-223.69 594.41,-209.53"/>
<polygon fill="midnightblue" stroke="midnightblue" points="518.81,-303.54 515.17,-313.49 524.22,-307.99 518.81,-303.54"/>
</g>
<!-- Node23 -->
<g id="node23" class="node">
<title>Node23</title>
<g id="a_node23"><a xlink:href="d__particle__copoly_8cpp.html" target="_top" xlink:title=" ">
<polygon fill="white" stroke="black" points="417.5,-246.5 417.5,-276.5 535.5,-276.5 535.5,-246.5 417.5,-246.5"/>
<text text-anchor="start" x="425.5" y="-264.5" font-family="Helvetica,sans-Serif" font-size="10.00">src/d/particle/d_particle</text>
<text text-anchor="middle" x="476.5" y="-253.5" font-family="Helvetica,sans-Serif" font-size="10.00">_copoly.cpp</text>
</a>
</g>
</g>
<!-- Node22&#45;&gt;Node23 -->
<g id="edge25" class="edge">
<title>Node22&#45;&gt;Node23</title>
<path fill="none" stroke="midnightblue" d="M493.73,-303.99C489.92,-294.8 485.67,-284.58 482.35,-276.58"/>
<polygon fill="midnightblue" stroke="midnightblue" points="490.57,-305.5 497.64,-313.4 497.04,-302.82 490.57,-305.5"/>
</g>
<!-- Node25 -->
<g id="node25" class="node">
<title>Node25</title>
<g id="a_node25"><a xlink:href="d__bg__s__spl__grp__chk_8cpp.html" target="_top" xlink:title=" ">
<polygon fill="white" stroke="black" points="122.5,-447.5 122.5,-477.5 226.5,-477.5 226.5,-447.5 122.5,-447.5"/>
<text text-anchor="start" x="130.5" y="-465.5" font-family="Helvetica,sans-Serif" font-size="10.00">src/d/bg/d_bg_s_spl</text>
<text text-anchor="middle" x="174.5" y="-454.5" font-family="Helvetica,sans-Serif" font-size="10.00">_grp_chk.cpp</text>
</a>
</g>
</g>
<!-- Node24&#45;&gt;Node25 -->
<g id="edge28" class="edge">
<title>Node24&#45;&gt;Node25</title>
<path fill="none" stroke="midnightblue" d="M201.88,-505.87C195.8,-496.46 188.93,-485.83 183.6,-477.58"/>
<polygon fill="midnightblue" stroke="midnightblue" points="199.02,-507.9 207.39,-514.4 204.9,-504.1 199.02,-507.9"/>
</g>
<!-- Node26 -->
<g id="node26" class="node">
<title>Node26</title>
<g id="a_node26"><a xlink:href="d__bg__s__wtr__chk_8h.html" target="_top" xlink:title=" ">
<polygon fill="white" stroke="black" points="0.5,-447.5 0.5,-477.5 104.5,-477.5 104.5,-447.5 0.5,-447.5"/>
<text text-anchor="start" x="8.5" y="-465.5" font-family="Helvetica,sans-Serif" font-size="10.00">include/d/bg/d_bg_s</text>
<text text-anchor="middle" x="52.5" y="-454.5" font-family="Helvetica,sans-Serif" font-size="10.00">_wtr_chk.h</text>
</a>
</g>
</g>
<!-- Node24&#45;&gt;Node26 -->
<g id="edge29" class="edge">
<title>Node24&#45;&gt;Node26</title>
<path fill="none" stroke="midnightblue" d="M171.54,-510.68C145.24,-500.26 112.5,-487.28 88.02,-477.58"/>
<polygon fill="midnightblue" stroke="midnightblue" points="170.33,-513.97 180.91,-514.4 172.91,-507.46 170.33,-513.97"/>
</g>
<!-- Node26&#45;&gt;Node6 -->
<g id="edge31" class="edge">
<title>Node26&#45;&gt;Node6</title>
<path fill="none" stroke="midnightblue" d="M114.59,-446.84C200.23,-429.19 288.73,-413.98 343.36,-404.94"/>
<polygon fill="midnightblue" stroke="midnightblue" points="113.78,-443.43 104.7,-448.89 115.2,-450.28 113.78,-443.43"/>
</g>
<!-- Node27 -->
<g id="node27" class="node">
<title>Node27</title>
<g id="a_node27"><a xlink:href="d__bg__s__wtr__chk_8cpp.html" target="_top" xlink:title=" ">
<polygon fill="white" stroke="black" points="0,-380.5 0,-410.5 105,-410.5 105,-380.5 0,-380.5"/>
<text text-anchor="start" x="8" y="-398.5" font-family="Helvetica,sans-Serif" font-size="10.00">src/d/bg/d_bg_s_wtr</text>
<text text-anchor="middle" x="52.5" y="-387.5" font-family="Helvetica,sans-Serif" font-size="10.00">_chk.cpp</text>
</a>
</g>
</g>
<!-- Node26&#45;&gt;Node27 -->
<g id="edge30" class="edge">
<title>Node26&#45;&gt;Node27</title>
<path fill="none" stroke="midnightblue" d="M52.5,-437.11C52.5,-428.15 52.5,-418.32 52.5,-410.58"/>
<polygon fill="midnightblue" stroke="midnightblue" points="49,-437.4 52.5,-447.4 56,-437.4 49,-437.4"/>
</g>
<!-- Node28&#45;&gt;Node8 -->
<g id="edge38" class="edge">
<title>Node28&#45;&gt;Node8</title>
<path fill="none" stroke="midnightblue" d="M898.06,-504.5C902.74,-471.94 905.54,-413.96 874.5,-380 851.7,-355.06 762.18,-341.23 702.06,-334.59"/>
<polygon fill="midnightblue" stroke="midnightblue" points="894.58,-504.06 896.44,-514.5 901.49,-505.18 894.58,-504.06"/>
</g>
<!-- Node28&#45;&gt;Node10 -->
<g id="edge34" class="edge">
<title>Node28&#45;&gt;Node10</title>
<path fill="none" stroke="midnightblue" d="M978,-518.82C1031.66,-508.62 1087.1,-488.01 1064.5,-447 1007.63,-343.8 866.03,-290.32 803.27,-271.04"/>
<polygon fill="midnightblue" stroke="midnightblue" points="977.24,-515.4 968.02,-520.61 978.48,-522.29 977.24,-515.4"/>
</g>
<!-- Node29 -->
<g id="node29" class="node">
<title>Node29</title>
<g id="a_node29"><a xlink:href="c__bg__s__gnd__chk_8cpp.html" target="_top" xlink:title=" ">
<polygon fill="white" stroke="black" points="921.5,-447.5 921.5,-477.5 1055.5,-477.5 1055.5,-447.5 921.5,-447.5"/>
<text text-anchor="start" x="929.5" y="-465.5" font-family="Helvetica,sans-Serif" font-size="10.00">libs/SSystem/SComponent</text>
<text text-anchor="middle" x="988.5" y="-454.5" font-family="Helvetica,sans-Serif" font-size="10.00">/c_bg_s_gnd_chk.cpp</text>
</a>
</g>
</g>
<!-- Node28&#45;&gt;Node29 -->
<g id="edge33" class="edge">
<title>Node28&#45;&gt;Node29</title>
<path fill="none" stroke="midnightblue" d="M922.39,-508.73C937.09,-498.68 954.61,-486.68 967.93,-477.58"/>
<polygon fill="midnightblue" stroke="midnightblue" points="920.39,-505.86 914.11,-514.4 924.34,-511.64 920.39,-505.86"/>
</g>
<!-- Node30 -->
<g id="node30" class="node">
<title>Node30</title>
<g id="a_node30"><a xlink:href="d__bg__s__gnd__chk_8h.html" target="_top" xlink:title=" ">
<polygon fill="white" stroke="black" points="760.5,-447.5 760.5,-477.5 864.5,-477.5 864.5,-447.5 760.5,-447.5"/>
<text text-anchor="start" x="768.5" y="-465.5" font-family="Helvetica,sans-Serif" font-size="10.00">include/d/bg/d_bg_s</text>
<text text-anchor="middle" x="812.5" y="-454.5" font-family="Helvetica,sans-Serif" font-size="10.00">_gnd_chk.h</text>
</a>
</g>
</g>
<!-- Node28&#45;&gt;Node30 -->
<g id="edge35" class="edge">
<title>Node28&#45;&gt;Node30</title>
<path fill="none" stroke="midnightblue" d="M867.81,-507.88C855.5,-498.01 841.07,-486.43 830.04,-477.58"/>
<polygon fill="midnightblue" stroke="midnightblue" points="865.93,-510.87 875.92,-514.4 870.32,-505.41 865.93,-510.87"/>
</g>
<!-- Node30&#45;&gt;Node6 -->
<g id="edge37" class="edge">
<title>Node30&#45;&gt;Node6</title>
<path fill="none" stroke="midnightblue" d="M750.14,-451.78C667.86,-438.95 524.51,-416.61 447.68,-404.63"/>
<polygon fill="midnightblue" stroke="midnightblue" points="749.69,-455.25 760.11,-453.33 750.77,-448.34 749.69,-455.25"/>
</g>
<!-- Node31 -->
<g id="node31" class="node">
<title>Node31</title>
<g id="a_node31"><a xlink:href="d__bg__s__gnd__chk_8cpp.html" target="_top" xlink:title=" ">
<polygon fill="white" stroke="black" points="759,-380.5 759,-410.5 866,-410.5 866,-380.5 759,-380.5"/>
<text text-anchor="start" x="767" y="-398.5" font-family="Helvetica,sans-Serif" font-size="10.00">src/d/bg/d_bg_s_gnd</text>
<text text-anchor="middle" x="812.5" y="-387.5" font-family="Helvetica,sans-Serif" font-size="10.00">_chk.cpp</text>
</a>
</g>
</g>
<!-- Node30&#45;&gt;Node31 -->
<g id="edge36" class="edge">
<title>Node30&#45;&gt;Node31</title>
<path fill="none" stroke="midnightblue" d="M812.5,-437.11C812.5,-428.15 812.5,-418.32 812.5,-410.58"/>
<polygon fill="midnightblue" stroke="midnightblue" points="809,-437.4 812.5,-447.4 816,-437.4 809,-437.4"/>
</g>
<!-- Node32&#45;&gt;Node3 -->
<g id="edge40" class="edge">
<title>Node32&#45;&gt;Node3</title>
<path fill="none" stroke="midnightblue" d="M573.49,-509.99C551.78,-499.69 525.17,-487.07 505.17,-477.58"/>
<polygon fill="midnightblue" stroke="midnightblue" points="572.24,-513.27 582.77,-514.4 575.24,-506.95 572.24,-513.27"/>
</g>
<!-- Node32&#45;&gt;Node8 -->
<g id="edge45" class="edge">
<title>Node32&#45;&gt;Node8</title>
<path fill="none" stroke="midnightblue" d="M647.02,-508.43C657.51,-500.42 667.77,-490.17 673.5,-478 678.33,-467.74 678.86,-408.5 671.5,-380 667.46,-364.34 657.92,-348.02 651.59,-338.31"/>
<polygon fill="midnightblue" stroke="midnightblue" points="644.78,-505.73 638.64,-514.37 648.82,-511.44 644.78,-505.73"/>
</g>
<!-- Node32&#45;&gt;Node10 -->
<g id="edge41" class="edge">
<title>Node32&#45;&gt;Node10</title>
<path fill="none" stroke="midnightblue" d="M651.56,-509.37C665.03,-501.23 679.29,-490.65 689.5,-478 744.14,-410.3 765.78,-302.53 771.11,-271.27"/>
<polygon fill="midnightblue" stroke="midnightblue" points="649.8,-506.35 642.87,-514.37 653.29,-512.42 649.8,-506.35"/>
</g>
<!-- Node33 -->
<g id="node33" class="node">
<title>Node33</title>
<g id="a_node33"><a xlink:href="d__bg__s__lin__chk_8h.html" target="_top" xlink:title=" ">
<polygon fill="white" stroke="black" points="560.5,-447.5 560.5,-477.5 664.5,-477.5 664.5,-447.5 560.5,-447.5"/>
<text text-anchor="start" x="568.5" y="-465.5" font-family="Helvetica,sans-Serif" font-size="10.00">include/d/bg/d_bg_s</text>
<text text-anchor="middle" x="612.5" y="-454.5" font-family="Helvetica,sans-Serif" font-size="10.00">_lin_chk.h</text>
</a>
</g>
</g>
<!-- Node32&#45;&gt;Node33 -->
<g id="edge42" class="edge">
<title>Node32&#45;&gt;Node33</title>
<path fill="none" stroke="midnightblue" d="M612.5,-504.11C612.5,-495.15 612.5,-485.32 612.5,-477.58"/>
<polygon fill="midnightblue" stroke="midnightblue" points="609,-504.4 612.5,-514.4 616,-504.4 609,-504.4"/>
</g>
<!-- Node33&#45;&gt;Node6 -->
<g id="edge44" class="edge">
<title>Node33&#45;&gt;Node6</title>
<path fill="none" stroke="midnightblue" d="M556.01,-444.58C520.77,-434.02 475.93,-420.59 442.61,-410.61"/>
<polygon fill="midnightblue" stroke="midnightblue" points="555.1,-447.96 565.68,-447.48 557.11,-441.25 555.1,-447.96"/>
</g>
<!-- Node34 -->
<g id="node34" class="node">
<title>Node34</title>
<g id="a_node34"><a xlink:href="d__bg__s__lin__chk_8cpp.html" target="_top" xlink:title=" ">
<polygon fill="white" stroke="black" points="562,-380.5 562,-410.5 663,-410.5 663,-380.5 562,-380.5"/>
<text text-anchor="start" x="570" y="-398.5" font-family="Helvetica,sans-Serif" font-size="10.00">src/d/bg/d_bg_s_lin</text>
<text text-anchor="middle" x="612.5" y="-387.5" font-family="Helvetica,sans-Serif" font-size="10.00">_chk.cpp</text>
</a>
</g>
</g>
<!-- Node33&#45;&gt;Node34 -->
<g id="edge43" class="edge">
<title>Node33&#45;&gt;Node34</title>
<path fill="none" stroke="midnightblue" d="M612.5,-437.11C612.5,-428.15 612.5,-418.32 612.5,-410.58"/>
<polygon fill="midnightblue" stroke="midnightblue" points="609,-437.4 612.5,-447.4 616,-437.4 609,-437.4"/>
</g>
<!-- Node36 -->
<g id="node36" class="node">
<title>Node36</title>
<g id="a_node36"><a xlink:href="c__bg__s__shdw__draw_8cpp.html" target="_top" xlink:title=" ">
<polygon fill="white" stroke="black" points="1111.5,-447.5 1111.5,-477.5 1245.5,-477.5 1245.5,-447.5 1111.5,-447.5"/>
<text text-anchor="start" x="1119.5" y="-465.5" font-family="Helvetica,sans-Serif" font-size="10.00">libs/SSystem/SComponent</text>
<text text-anchor="middle" x="1178.5" y="-454.5" font-family="Helvetica,sans-Serif" font-size="10.00">/c_bg_s_shdw_draw.cpp</text>
</a>
</g>
</g>
<!-- Node35&#45;&gt;Node36 -->
<g id="edge47" class="edge">
<title>Node35&#45;&gt;Node36</title>
<path fill="none" stroke="midnightblue" d="M1139.25,-506.74C1147.98,-497.12 1158,-486.09 1165.72,-477.58"/>
<polygon fill="midnightblue" stroke="midnightblue" points="1136.43,-504.64 1132.3,-514.4 1141.61,-509.34 1136.43,-504.64"/>
</g>
</g>
</svg>
        <g id="navigator" transform="translate(0 0)" fill="#404254">
                <rect fill="#f2f5e9" fill-opacity="0.5" stroke="#606060" stroke-width=".5" x="0" y="0" width="60" height="60"/>
                <use id="zoomplus" xlink:href="#zoomPlus" x="17" y="9" onmousedown="handleZoom(evt,'in')"/>
                <use id="zoomminus" xlink:href="#zoomMin" x="42" y="9" onmousedown="handleZoom(evt,'out')"/>
                <use id="reset" xlink:href="#resetDef" x="30" y="36" onmousedown="handleReset()"/>
                <g id="arrowUp" xlink:href="#dirArrow" transform="translate(30 24)" onmousedown="handlePan(0,-1)">
                  <use xlink:href="#rim" fill="#404040">
                        <set attributeName="fill" to="#808080" begin="arrowUp.mouseover" end="arrowUp.mouseout"/>
                  </use>
                  <path fill="none" stroke="white" stroke-width="1.5" d="M0,-3.0v7 M-2.5,-0.5L0,-3.0L2.5,-0.5"/>
                </g>
                <g id="arrowRight" xlink:href="#dirArrow" transform="rotate(90) translate(36 -43)" onmousedown="handlePan(1,0)">
                  <use xlink:href="#rim" fill="#404040">
                        <set attributeName="fill" to="#808080" begin="arrowRight.mouseover" end="arrowRight.mouseout"/>
                  </use>
                  <path fill="none" stroke="white" stroke-width="1.5" d="M0,-3.0v7 M-2.5,-0.5L0,-3.0L2.5,-0.5"/>
                </g>
                <g id="arrowDown" xlink:href="#dirArrow" transform="rotate(180) translate(-30 -48)" onmousedown="handlePan(0,1)">
                  <use xlink:href="#rim" fill="#404040">
                        <set attributeName="fill" to="#808080" begin="arrowDown.mouseover" end="arrowDown.mouseout"/>
                  </use>
                  <path fill="none" stroke="white" stroke-width="1.5" d="M0,-3.0v7 M-2.5,-0.5L0,-3.0L2.5,-0.5"/>
                </g>
                <g id="arrowLeft" xlink:href="#dirArrow" transform="rotate(270) translate(-36 17)" onmousedown="handlePan(-1,0)">
                  <use xlink:href="#rim" fill="#404040">
                        <set attributeName="fill" to="#808080" begin="arrowLeft.mouseover" end="arrowLeft.mouseout"/>
                  </use>
                  <path fill="none" stroke="white" stroke-width="1.5" d="M0,-3.0v7 M-2.5,-0.5L0,-3.0L2.5,-0.5"/>
                </g>
        </g>
        <svg viewBox="0 0 15 15" width="100%" height="30px" preserveAspectRatio="xMaxYMin meet">
         <g id="arrow_out" transform="scale(0.3 0.3)">
          <a xlink:href="c__bg__s__chk_8h__dep__incl_org.svg" target="_base">
           <rect id="button" ry="5" rx="5" y="6" x="6" height="38" width="38"
                fill="#f2f5e9" fill-opacity="0.5" stroke="#606060" stroke-width="1.0"/>
           <path id="arrow"
             d="M 11.500037,31.436501 C 11.940474,20.09759 22.043105,11.32322 32.158766,21.979434 L 37.068811,17.246167 C 37.068811,17.246167 37.088388,32 37.088388,32 L 22.160133,31.978069 C 22.160133,31.978069 26.997745,27.140456 26.997745,27.140456 C 18.528582,18.264221 13.291696,25.230495 11.500037,31.436501 z"
             style="fill:#404040;"/>
          </a>
         </g>
        </svg>
</svg>
