<?xml version="1.0" encoding="UTF-8" standalone="no"?>
<!DOCTYPE svg PUBLIC "-//W3C//DTD SVG 1.1//EN"
 "http://www.w3.org/Graphics/SVG/1.1/DTD/svg11.dtd">
<!-- Generated by graphviz version 2.44.0 ()
 -->
<!-- Title: include/SSystem/SComponent/c_bg_s_poly_info.h Pages: 1 -->
<svg width="1500pt" height="631pt"
 viewBox="0.00 0.00 1499.50 631.00" xmlns="http://www.w3.org/2000/svg" xmlns:xlink="http://www.w3.org/1999/xlink">
<g id="graph0" class="graph" transform="scale(1 1) rotate(0) translate(4 627)">
<title>include/SSystem/SComponent/c_bg_s_poly_info.h</title>
<polygon fill="white" stroke="transparent" points="-4,4 -4,-627 1495.5,-627 1495.5,4 -4,4"/>
<!-- Node1 -->
<g id="node1" class="node">
<title>Node1</title>
<g id="a_node1"><a xlink:title=" ">
<polygon fill="#bfbfbf" stroke="black" points="650,-592.5 650,-622.5 799,-622.5 799,-592.5 650,-592.5"/>
<text text-anchor="start" x="658" y="-610.5" font-family="Helvetica,sans-Serif" font-size="10.00">include/SSystem/SComponent</text>
<text text-anchor="middle" x="724.5" y="-599.5" font-family="Helvetica,sans-Serif" font-size="10.00">/c_bg_s_poly_info.h</text>
</a>
</g>
</g>
<!-- Node2 -->
<g id="node2" class="node">
<title>Node2</title>
<g id="a_node2"><a xlink:href="c__bg__s__lin__chk_8cpp.html" target="_top" xlink:title=" ">
<polygon fill="white" stroke="black" points="1357.5,-458.5 1357.5,-488.5 1491.5,-488.5 1491.5,-458.5 1357.5,-458.5"/>
<text text-anchor="start" x="1365.5" y="-476.5" font-family="Helvetica,sans-Serif" font-size="10.00">libs/SSystem/SComponent</text>
<text text-anchor="middle" x="1424.5" y="-465.5" font-family="Helvetica,sans-Serif" font-size="10.00">/c_bg_s_lin_chk.cpp</text>
</a>
</g>
</g>
<!-- Node1&#45;&gt;Node2 -->
<g id="edge1" class="edge">
<title>Node1&#45;&gt;Node2</title>
<path fill="none" stroke="midnightblue" d="M809.35,-604.23C974.78,-599.17 1328.45,-585.07 1375.5,-556 1400.36,-540.64 1414.27,-507.56 1420.48,-488.61"/>
<polygon fill="midnightblue" stroke="midnightblue" points="809.1,-600.73 799.21,-604.53 809.31,-607.73 809.1,-600.73"/>
</g>
<!-- Node3 -->
<g id="node3" class="node">
<title>Node3</title>
<g id="a_node3"><a xlink:href="c__bg__s__poly__info_8cpp.html" target="_top" xlink:title=" ">
<polygon fill="white" stroke="black" points="282.5,-525.5 282.5,-555.5 416.5,-555.5 416.5,-525.5 282.5,-525.5"/>
<text text-anchor="start" x="290.5" y="-543.5" font-family="Helvetica,sans-Serif" font-size="10.00">libs/SSystem/SComponent</text>
<text text-anchor="middle" x="349.5" y="-532.5" font-family="Helvetica,sans-Serif" font-size="10.00">/c_bg_s_poly_info.cpp</text>
</a>
</g>
</g>
<!-- Node1&#45;&gt;Node3 -->
<g id="edge2" class="edge">
<title>Node1&#45;&gt;Node3</title>
<path fill="none" stroke="midnightblue" d="M639.61,-592.65C579.71,-582.77 497.62,-568.97 425.5,-556 422.59,-555.48 419.62,-554.94 416.62,-554.39"/>
<polygon fill="midnightblue" stroke="midnightblue" points="639.34,-596.16 649.78,-594.33 640.48,-589.25 639.34,-596.16"/>
</g>
<!-- Node4 -->
<g id="node4" class="node">
<title>Node4</title>
<g id="a_node4"><a xlink:href="d__a__player_8h.html" target="_top" xlink:title=" ">
<polygon fill="white" stroke="black" points="148,-464 148,-483 269,-483 269,-464 148,-464"/>
<text text-anchor="middle" x="208.5" y="-471" font-family="Helvetica,sans-Serif" font-size="10.00">include/d/a/d_a_player.h</text>
</a>
</g>
</g>
<!-- Node1&#45;&gt;Node4 -->
<g id="edge3" class="edge">
<title>Node1&#45;&gt;Node4</title>
<path fill="none" stroke="midnightblue" d="M639.55,-604.67C526.72,-600.94 334.53,-589.7 273.5,-556 242.45,-538.85 220.84,-500.19 212.42,-483.01"/>
<polygon fill="midnightblue" stroke="midnightblue" points="639.78,-608.18 649.88,-605 640,-601.18 639.78,-608.18"/>
</g>
<!-- Node16 -->
<g id="node16" class="node">
<title>Node16</title>
<g id="a_node16"><a xlink:href="d__bg__s__acch_8h.html" target="_top" xlink:title=" ">
<polygon fill="white" stroke="black" points="572.5,-391.5 572.5,-421.5 676.5,-421.5 676.5,-391.5 572.5,-391.5"/>
<text text-anchor="start" x="580.5" y="-409.5" font-family="Helvetica,sans-Serif" font-size="10.00">include/d/bg/d_bg_s</text>
<text text-anchor="middle" x="624.5" y="-398.5" font-family="Helvetica,sans-Serif" font-size="10.00">_acch.h</text>
</a>
</g>
</g>
<!-- Node1&#45;&gt;Node16 -->
<g id="edge38" class="edge">
<title>Node1&#45;&gt;Node16</title>
<path fill="none" stroke="midnightblue" d="M722.92,-581.91C719.91,-550.83 711.27,-496.74 686.5,-458 676.93,-443.03 661.43,-430.4 648.32,-421.52"/>
<polygon fill="midnightblue" stroke="midnightblue" points="719.46,-582.57 723.79,-592.24 726.44,-581.98 719.46,-582.57"/>
</g>
<!-- Node18 -->
<g id="node18" class="node">
<title>Node18</title>
<g id="a_node18"><a xlink:href="d__bg__w_8h.html" target="_top" xlink:title=" ">
<polygon fill="white" stroke="black" points="1037,-330 1037,-349 1150,-349 1150,-330 1037,-330"/>
<text text-anchor="middle" x="1093.5" y="-337" font-family="Helvetica,sans-Serif" font-size="10.00">include/d/bg/d_bg_w.h</text>
</a>
</g>
</g>
<!-- Node1&#45;&gt;Node18 -->
<g id="edge47" class="edge">
<title>Node1&#45;&gt;Node18</title>
<path fill="none" stroke="midnightblue" d="M809.19,-597.86C861.55,-590.67 929.42,-577.92 986.5,-556 1040.29,-535.34 1063.17,-535.28 1097.5,-489 1123.83,-453.49 1123.15,-434.35 1114.5,-391 1111.41,-375.54 1103.5,-358.9 1098.32,-349.1"/>
<polygon fill="midnightblue" stroke="midnightblue" points="808.72,-594.4 799.27,-599.19 809.64,-601.34 808.72,-594.4"/>
</g>
<!-- Node20 -->
<g id="node20" class="node">
<title>Node20</title>
<g id="a_node20"><a xlink:href="d__bg__s_8h.html" target="_top" xlink:title=" ">
<polygon fill="white" stroke="black" points="788,-263 788,-282 899,-282 899,-263 788,-263"/>
<text text-anchor="middle" x="843.5" y="-270" font-family="Helvetica,sans-Serif" font-size="10.00">include/d/bg/d_bg_s.h</text>
</a>
</g>
</g>
<!-- Node1&#45;&gt;Node20 -->
<g id="edge37" class="edge">
<title>Node1&#45;&gt;Node20</title>
<path fill="none" stroke="midnightblue" d="M727.44,-582.33C733.58,-533.65 748.37,-425.48 762.5,-391 781.01,-345.84 819,-300.6 835.53,-282.15"/>
<polygon fill="midnightblue" stroke="midnightblue" points="723.96,-581.95 726.2,-592.3 730.91,-582.81 723.96,-581.95"/>
</g>
<!-- Node29 -->
<g id="node29" class="node">
<title>Node29</title>
<g id="a_node29"><a xlink:href="d__bg__s__roof__chk_8h.html" target="_top" xlink:title=" ">
<polygon fill="white" stroke="black" points="571.5,-525.5 571.5,-555.5 675.5,-555.5 675.5,-525.5 571.5,-525.5"/>
<text text-anchor="start" x="579.5" y="-543.5" font-family="Helvetica,sans-Serif" font-size="10.00">include/d/bg/d_bg_s</text>
<text text-anchor="middle" x="623.5" y="-532.5" font-family="Helvetica,sans-Serif" font-size="10.00">_roof_chk.h</text>
</a>
</g>
</g>
<!-- Node1&#45;&gt;Node29 -->
<g id="edge39" class="edge">
<title>Node1&#45;&gt;Node29</title>
<path fill="none" stroke="midnightblue" d="M693.79,-586.73C678.16,-576.68 659.53,-564.68 645.37,-555.58"/>
<polygon fill="midnightblue" stroke="midnightblue" points="692.28,-589.93 702.58,-592.4 696.07,-584.04 692.28,-589.93"/>
</g>
<!-- Node31 -->
<g id="node31" class="node">
<title>Node31</title>
<g id="a_node31"><a xlink:href="d__bg__s__spl__grp__chk_8h.html" target="_top" xlink:title=" ">
<polygon fill="white" stroke="black" points="434.5,-525.5 434.5,-555.5 538.5,-555.5 538.5,-525.5 434.5,-525.5"/>
<text text-anchor="start" x="442.5" y="-543.5" font-family="Helvetica,sans-Serif" font-size="10.00">include/d/bg/d_bg_s</text>
<text text-anchor="middle" x="486.5" y="-532.5" font-family="Helvetica,sans-Serif" font-size="10.00">_spl_grp_chk.h</text>
</a>
</g>
</g>
<!-- Node1&#45;&gt;Node31 -->
<g id="edge42" class="edge">
<title>Node1&#45;&gt;Node31</title>
<path fill="none" stroke="midnightblue" d="M663.04,-589.71C624.31,-579.14 574.87,-565.63 538.17,-555.61"/>
<polygon fill="midnightblue" stroke="midnightblue" points="662.58,-593.22 673.15,-592.48 664.43,-586.46 662.58,-593.22"/>
</g>
<!-- Node35 -->
<g id="node35" class="node">
<title>Node35</title>
<g id="a_node35"><a xlink:href="c__bg__s__gnd__chk_8h.html" target="_top" xlink:title=" ">
<polygon fill="white" stroke="black" points="829,-525.5 829,-555.5 978,-555.5 978,-525.5 829,-525.5"/>
<text text-anchor="start" x="837" y="-543.5" font-family="Helvetica,sans-Serif" font-size="10.00">include/SSystem/SComponent</text>
<text text-anchor="middle" x="903.5" y="-532.5" font-family="Helvetica,sans-Serif" font-size="10.00">/c_bg_s_gnd_chk.h</text>
</a>
</g>
</g>
<!-- Node1&#45;&gt;Node35 -->
<g id="edge48" class="edge">
<title>Node1&#45;&gt;Node35</title>
<path fill="none" stroke="midnightblue" d="M772.82,-588.96C801.65,-578.48 837.78,-565.37 864.74,-555.58"/>
<polygon fill="midnightblue" stroke="midnightblue" points="771.55,-585.69 763.34,-592.4 773.93,-592.27 771.55,-585.69"/>
</g>
<!-- Node39 -->
<g id="node39" class="node">
<title>Node39</title>
<g id="a_node39"><a xlink:href="c__bg__s__lin__chk_8h.html" target="_top" xlink:title=" ">
<polygon fill="white" stroke="black" points="1217,-525.5 1217,-555.5 1366,-555.5 1366,-525.5 1217,-525.5"/>
<text text-anchor="start" x="1225" y="-543.5" font-family="Helvetica,sans-Serif" font-size="10.00">include/SSystem/SComponent</text>
<text text-anchor="middle" x="1291.5" y="-532.5" font-family="Helvetica,sans-Serif" font-size="10.00">/c_bg_s_lin_chk.h</text>
</a>
</g>
</g>
<!-- Node1&#45;&gt;Node39 -->
<g id="edge55" class="edge">
<title>Node1&#45;&gt;Node39</title>
<path fill="none" stroke="midnightblue" d="M809.31,-596.78C919.8,-584.11 1111.26,-562.16 1216.63,-550.08"/>
<polygon fill="midnightblue" stroke="midnightblue" points="808.74,-593.32 799.21,-597.94 809.54,-600.27 808.74,-593.32"/>
</g>
<!-- Node5 -->
<g id="node5" class="node">
<title>Node5</title>
<g id="a_node5"><a xlink:href="d__a__player_8cpp.html" target="_top" xlink:title=" ">
<polygon fill="white" stroke="black" points="205.5,-397 205.5,-416 319.5,-416 319.5,-397 205.5,-397"/>
<text text-anchor="middle" x="262.5" y="-404" font-family="Helvetica,sans-Serif" font-size="10.00">src/d/a/d_a_player.cpp</text>
</a>
</g>
</g>
<!-- Node4&#45;&gt;Node5 -->
<g id="edge4" class="edge">
<title>Node4&#45;&gt;Node5</title>
<path fill="none" stroke="midnightblue" d="M222.4,-455.77C232.93,-443.1 246.96,-426.2 255.33,-416.13"/>
<polygon fill="midnightblue" stroke="midnightblue" points="219.48,-453.81 215.78,-463.73 224.87,-458.28 219.48,-453.81"/>
</g>
<!-- Node6 -->
<g id="node6" class="node">
<title>Node6</title>
<g id="a_node6"><a xlink:href="d__a__alink_8h.html" target="_top" xlink:title=" ">
<polygon fill="white" stroke="black" points="503.5,-201.5 503.5,-220.5 619.5,-220.5 619.5,-201.5 503.5,-201.5"/>
<text text-anchor="middle" x="561.5" y="-208.5" font-family="Helvetica,sans-Serif" font-size="10.00">include/d/a/d_a_alink.h</text>
</a>
</g>
</g>
<!-- Node4&#45;&gt;Node6 -->
<g id="edge5" class="edge">
<title>Node4&#45;&gt;Node6</title>
<path fill="none" stroke="midnightblue" d="M263.21,-461.01C286.36,-453.53 311.79,-441.41 328.5,-422 377.87,-364.66 316.52,-310.03 370.5,-257 389.15,-238.68 454.11,-226.15 503.13,-219.05"/>
<polygon fill="midnightblue" stroke="midnightblue" points="262.02,-457.71 253.46,-463.94 264.04,-464.42 262.02,-457.71"/>
</g>
<!-- Node4&#45;&gt;Node16 -->
<g id="edge17" class="edge">
<title>Node4&#45;&gt;Node16</title>
<path fill="none" stroke="midnightblue" d="M257.73,-461.92C264.69,-460.54 271.77,-459.19 278.5,-458 306.82,-453 482.8,-427.73 572.32,-414.94"/>
<polygon fill="midnightblue" stroke="midnightblue" points="256.77,-458.54 247.67,-463.96 258.16,-465.4 256.77,-458.54"/>
</g>
<!-- Node26 -->
<g id="node26" class="node">
<title>Node26</title>
<g id="a_node26"><a xlink:href="d__attention_8h.html" target="_top" xlink:title=" ">
<polygon fill="white" stroke="black" points="205.5,-263 205.5,-282 319.5,-282 319.5,-263 205.5,-263"/>
<text text-anchor="middle" x="262.5" y="-270" font-family="Helvetica,sans-Serif" font-size="10.00">include/d/d_attention.h</text>
</a>
</g>
</g>
<!-- Node4&#45;&gt;Node26 -->
<g id="edge30" class="edge">
<title>Node4&#45;&gt;Node26</title>
<path fill="none" stroke="midnightblue" d="M201.67,-454.21C196.42,-437.54 190.92,-412.34 196.5,-391 208.17,-346.41 240.96,-300.87 255.46,-282.24"/>
<polygon fill="midnightblue" stroke="midnightblue" points="198.41,-455.49 204.97,-463.81 205.03,-453.22 198.41,-455.49"/>
</g>
<!-- Node28 -->
<g id="node28" class="node">
<title>Node28</title>
<g id="a_node28"><a xlink:href="d__event_8h.html" target="_top" xlink:title=" ">
<polygon fill="white" stroke="black" points="66.5,-201.5 66.5,-220.5 194.5,-220.5 194.5,-201.5 66.5,-201.5"/>
<text text-anchor="middle" x="130.5" y="-208.5" font-family="Helvetica,sans-Serif" font-size="10.00">include/d/event/d_event.h</text>
</a>
</g>
</g>
<!-- Node4&#45;&gt;Node28 -->
<g id="edge34" class="edge">
<title>Node4&#45;&gt;Node28</title>
<path fill="none" stroke="midnightblue" d="M201.72,-454.38C198.22,-444.8 193.97,-432.82 190.5,-422 165.72,-344.73 140.44,-249.9 132.81,-220.86"/>
<polygon fill="midnightblue" stroke="midnightblue" points="198.52,-455.81 205.27,-463.98 205.09,-453.39 198.52,-455.81"/>
</g>
<!-- Node7 -->
<g id="node7" class="node">
<title>Node7</title>
<g id="a_node7"><a xlink:href="d__a__alink_8cpp.html" target="_top" xlink:title=" ">
<polygon fill="white" stroke="black" points="703,-73 703,-92 812,-92 812,-73 703,-73"/>
<text text-anchor="middle" x="757.5" y="-80" font-family="Helvetica,sans-Serif" font-size="10.00">src/d/a/d_a_alink.cpp</text>
</a>
</g>
</g>
<!-- Node6&#45;&gt;Node7 -->
<g id="edge6" class="edge">
<title>Node6&#45;&gt;Node7</title>
<path fill="none" stroke="midnightblue" d="M583.42,-195.86C624.29,-169.48 711,-113.51 744.19,-92.09"/>
<polygon fill="midnightblue" stroke="midnightblue" points="581.48,-192.94 574.97,-201.31 585.27,-198.82 581.48,-192.94"/>
</g>
<!-- Node8 -->
<g id="node8" class="node">
<title>Node8</title>
<g id="a_node8"><a xlink:href="d__com__inf__game_8h.html" target="_top" xlink:title=" ">
<polygon fill="white" stroke="black" points="317.5,-134.5 317.5,-164.5 427.5,-164.5 427.5,-134.5 317.5,-134.5"/>
<text text-anchor="start" x="325.5" y="-152.5" font-family="Helvetica,sans-Serif" font-size="10.00">include/d/com/d_com</text>
<text text-anchor="middle" x="372.5" y="-141.5" font-family="Helvetica,sans-Serif" font-size="10.00">_inf_game.h</text>
</a>
</g>
</g>
<!-- Node6&#45;&gt;Node8 -->
<g id="edge7" class="edge">
<title>Node6&#45;&gt;Node8</title>
<path fill="none" stroke="midnightblue" d="M524.52,-198.36C493.72,-188.66 449.77,-174.83 417.04,-164.52"/>
<polygon fill="midnightblue" stroke="midnightblue" points="523.83,-201.81 534.42,-201.48 525.93,-195.13 523.83,-201.81"/>
</g>
<!-- Node8&#45;&gt;Node7 -->
<g id="edge9" class="edge">
<title>Node8&#45;&gt;Node7</title>
<path fill="none" stroke="midnightblue" d="M437.61,-139.56C502.61,-130.32 605.28,-114.91 693.5,-98 702.67,-96.24 712.54,-94.12 721.71,-92.05"/>
<polygon fill="midnightblue" stroke="midnightblue" points="436.92,-136.12 427.5,-140.99 437.9,-143.05 436.92,-136.12"/>
</g>
<!-- Node9 -->
<g id="node9" class="node">
<title>Node9</title>
<g id="a_node9"><a xlink:href="d__com__inf__game_8cpp.html" target="_top" xlink:title=" ">
<polygon fill="white" stroke="black" points="281.5,-0.5 281.5,-30.5 389.5,-30.5 389.5,-0.5 281.5,-0.5"/>
<text text-anchor="start" x="289.5" y="-18.5" font-family="Helvetica,sans-Serif" font-size="10.00">src/d/com/d_com_inf</text>
<text text-anchor="middle" x="335.5" y="-7.5" font-family="Helvetica,sans-Serif" font-size="10.00">_game.cpp</text>
</a>
</g>
</g>
<!-- Node8&#45;&gt;Node9 -->
<g id="edge8" class="edge">
<title>Node8&#45;&gt;Node9</title>
<path fill="none" stroke="midnightblue" d="M307.27,-141.07C254.26,-133.54 185.59,-119.83 168.5,-98 134.5,-54.56 220.43,-32.79 281.25,-23.12"/>
<polygon fill="midnightblue" stroke="midnightblue" points="306.92,-144.56 317.3,-142.45 307.87,-137.62 306.92,-144.56"/>
</g>
<!-- Node10 -->
<g id="node10" class="node">
<title>Node10</title>
<g id="a_node10"><a xlink:href="d__event_8cpp.html" target="_top" xlink:title=" ">
<polygon fill="white" stroke="black" points="0,-73 0,-92 121,-92 121,-73 0,-73"/>
<text text-anchor="middle" x="60.5" y="-80" font-family="Helvetica,sans-Serif" font-size="10.00">src/d/event/d_event.cpp</text>
</a>
</g>
</g>
<!-- Node8&#45;&gt;Node10 -->
<g id="edge10" class="edge">
<title>Node8&#45;&gt;Node10</title>
<path fill="none" stroke="midnightblue" d="M307.37,-134.93C245.39,-122.02 154.03,-102.99 101.58,-92.06"/>
<polygon fill="midnightblue" stroke="midnightblue" points="306.94,-138.42 317.44,-137.03 308.36,-131.56 306.94,-138.42"/>
</g>
<!-- Node11 -->
<g id="node11" class="node">
<title>Node11</title>
<g id="a_node11"><a xlink:href="d__meter2__info_8cpp.html" target="_top" xlink:title=" ">
<polygon fill="white" stroke="black" points="177.5,-67.5 177.5,-97.5 287.5,-97.5 287.5,-67.5 177.5,-67.5"/>
<text text-anchor="start" x="185.5" y="-85.5" font-family="Helvetica,sans-Serif" font-size="10.00">src/d/meter/d_meter2</text>
<text text-anchor="middle" x="232.5" y="-74.5" font-family="Helvetica,sans-Serif" font-size="10.00">_info.cpp</text>
</a>
</g>
</g>
<!-- Node8&#45;&gt;Node11 -->
<g id="edge11" class="edge">
<title>Node8&#45;&gt;Node11</title>
<path fill="none" stroke="midnightblue" d="M332.93,-130.13C310.69,-119.8 283.35,-107.11 262.82,-97.58"/>
<polygon fill="midnightblue" stroke="midnightblue" points="331.58,-133.36 342.12,-134.4 334.53,-127.01 331.58,-133.36"/>
</g>
<!-- Node12 -->
<g id="node12" class="node">
<title>Node12</title>
<g id="a_node12"><a xlink:href="d__msg__flow_8cpp.html" target="_top" xlink:title=" ">
<polygon fill="white" stroke="black" points="306,-73 306,-92 439,-92 439,-73 306,-73"/>
<text text-anchor="middle" x="372.5" y="-80" font-family="Helvetica,sans-Serif" font-size="10.00">src/d/msg/d_msg_flow.cpp</text>
</a>
</g>
</g>
<!-- Node8&#45;&gt;Node12 -->
<g id="edge12" class="edge">
<title>Node8&#45;&gt;Node12</title>
<path fill="none" stroke="midnightblue" d="M372.5,-124.25C372.5,-113.02 372.5,-100.38 372.5,-92.19"/>
<polygon fill="midnightblue" stroke="midnightblue" points="369,-124.4 372.5,-134.4 376,-124.4 369,-124.4"/>
</g>
<!-- Node13 -->
<g id="node13" class="node">
<title>Node13</title>
<g id="a_node13"><a xlink:href="d__save_8cpp.html" target="_top" xlink:title=" ">
<polygon fill="white" stroke="black" points="457,-73 457,-92 572,-92 572,-73 457,-73"/>
<text text-anchor="middle" x="514.5" y="-80" font-family="Helvetica,sans-Serif" font-size="10.00">src/d/save/d_save.cpp</text>
</a>
</g>
</g>
<!-- Node8&#45;&gt;Node13 -->
<g id="edge13" class="edge">
<title>Node8&#45;&gt;Node13</title>
<path fill="none" stroke="midnightblue" d="M412.63,-130.13C439.96,-117.62 474.87,-101.64 495.92,-92.01"/>
<polygon fill="midnightblue" stroke="midnightblue" points="410.95,-127.05 403.31,-134.4 413.86,-133.42 410.95,-127.05"/>
</g>
<!-- Node14 -->
<g id="node14" class="node">
<title>Node14</title>
<g id="a_node14"><a xlink:href="d__item_8h.html" target="_top" xlink:title=" ">
<polygon fill="white" stroke="black" points="590,-73 590,-92 685,-92 685,-73 590,-73"/>
<text text-anchor="middle" x="637.5" y="-80" font-family="Helvetica,sans-Serif" font-size="10.00">include/d/d_item.h</text>
</a>
</g>
</g>
<!-- Node8&#45;&gt;Node14 -->
<g id="edge14" class="edge">
<title>Node8&#45;&gt;Node14</title>
<path fill="none" stroke="midnightblue" d="M437.59,-132.89C478.62,-123 532.69,-109.88 580.5,-98 588.13,-96.1 596.33,-94.04 604.06,-92.07"/>
<polygon fill="midnightblue" stroke="midnightblue" points="436.62,-129.52 427.72,-135.27 438.26,-136.33 436.62,-129.52"/>
</g>
<!-- Node14&#45;&gt;Node9 -->
<g id="edge15" class="edge">
<title>Node14&#45;&gt;Node9</title>
<path fill="none" stroke="midnightblue" d="M595.07,-70.48C590.16,-69.27 585.23,-68.09 580.5,-67 515.11,-51.95 439.41,-36.67 389.66,-26.92"/>
<polygon fill="midnightblue" stroke="midnightblue" points="594.46,-73.93 605.01,-72.96 596.15,-67.14 594.46,-73.93"/>
</g>
<!-- Node15 -->
<g id="node15" class="node">
<title>Node15</title>
<g id="a_node15"><a xlink:href="d__item_8cpp.html" target="_top" xlink:title=" ">
<polygon fill="white" stroke="black" points="593,-6 593,-25 682,-25 682,-6 593,-6"/>
<text text-anchor="middle" x="637.5" y="-13" font-family="Helvetica,sans-Serif" font-size="10.00">src/d/d_item.cpp</text>
</a>
</g>
</g>
<!-- Node14&#45;&gt;Node15 -->
<g id="edge16" class="edge">
<title>Node14&#45;&gt;Node15</title>
<path fill="none" stroke="midnightblue" d="M637.5,-62.54C637.5,-50.17 637.5,-34.62 637.5,-25.13"/>
<polygon fill="midnightblue" stroke="midnightblue" points="634,-62.73 637.5,-72.73 641,-62.73 634,-62.73"/>
</g>
<!-- Node17 -->
<g id="node17" class="node">
<title>Node17</title>
<g id="a_node17"><a xlink:href="d__bg__s__acch_8cpp.html" target="_top" xlink:title=" ">
<polygon fill="white" stroke="black" points="495,-330 495,-349 626,-349 626,-330 495,-330"/>
<text text-anchor="middle" x="560.5" y="-337" font-family="Helvetica,sans-Serif" font-size="10.00">src/d/bg/d_bg_s_acch.cpp</text>
</a>
</g>
</g>
<!-- Node16&#45;&gt;Node17 -->
<g id="edge18" class="edge">
<title>Node16&#45;&gt;Node17</title>
<path fill="none" stroke="midnightblue" d="M603.33,-384C591.65,-372.13 577.78,-358.05 569.06,-349.19"/>
<polygon fill="midnightblue" stroke="midnightblue" points="601.1,-386.73 610.61,-391.4 606.09,-381.81 601.1,-386.73"/>
</g>
<!-- Node16&#45;&gt;Node18 -->
<g id="edge19" class="edge">
<title>Node16&#45;&gt;Node18</title>
<path fill="none" stroke="midnightblue" d="M686.91,-396.85C778.57,-384.15 948.3,-360.62 1036.67,-348.38"/>
<polygon fill="midnightblue" stroke="midnightblue" points="686.36,-393.39 676.94,-398.23 687.32,-400.33 686.36,-393.39"/>
</g>
<!-- Node22 -->
<g id="node22" class="node">
<title>Node22</title>
<g id="a_node22"><a xlink:href="d__bomb_8h.html" target="_top" xlink:title=" ">
<polygon fill="white" stroke="black" points="376,-330 376,-349 477,-349 477,-330 376,-330"/>
<text text-anchor="middle" x="426.5" y="-337" font-family="Helvetica,sans-Serif" font-size="10.00">include/d/d_bomb.h</text>
</a>
</g>
</g>
<!-- Node16&#45;&gt;Node22 -->
<g id="edge25" class="edge">
<title>Node16&#45;&gt;Node22</title>
<path fill="none" stroke="midnightblue" d="M572.01,-388.27C533.43,-375.6 482.65,-358.93 452.41,-349.01"/>
<polygon fill="midnightblue" stroke="midnightblue" points="570.94,-391.6 581.54,-391.4 573.13,-384.95 570.94,-391.6"/>
</g>
<!-- Node24 -->
<g id="node24" class="node">
<title>Node24</title>
<g id="a_node24"><a xlink:href="d__particle__copoly_8h.html" target="_top" xlink:title=" ">
<polygon fill="white" stroke="black" points="644.5,-324.5 644.5,-354.5 746.5,-354.5 746.5,-324.5 644.5,-324.5"/>
<text text-anchor="start" x="652.5" y="-342.5" font-family="Helvetica,sans-Serif" font-size="10.00">include/d/particle</text>
<text text-anchor="middle" x="695.5" y="-331.5" font-family="Helvetica,sans-Serif" font-size="10.00">/d_particle_copoly.h</text>
</a>
</g>
</g>
<!-- Node16&#45;&gt;Node24 -->
<g id="edge27" class="edge">
<title>Node16&#45;&gt;Node24</title>
<path fill="none" stroke="midnightblue" d="M647.33,-384.6C658.05,-374.78 670.55,-363.34 680.12,-354.58"/>
<polygon fill="midnightblue" stroke="midnightblue" points="644.92,-382.06 639.91,-391.4 649.65,-387.22 644.92,-382.06"/>
</g>
<!-- Node19 -->
<g id="node19" class="node">
<title>Node19</title>
<g id="a_node19"><a xlink:href="d__bg__w_8cpp.html" target="_top" xlink:title=" ">
<polygon fill="white" stroke="black" points="1040,-263 1040,-282 1147,-282 1147,-263 1040,-263"/>
<text text-anchor="middle" x="1093.5" y="-270" font-family="Helvetica,sans-Serif" font-size="10.00">src/d/bg/d_bg_w.cpp</text>
</a>
</g>
</g>
<!-- Node18&#45;&gt;Node19 -->
<g id="edge20" class="edge">
<title>Node18&#45;&gt;Node19</title>
<path fill="none" stroke="midnightblue" d="M1093.5,-319.54C1093.5,-307.17 1093.5,-291.62 1093.5,-282.13"/>
<polygon fill="midnightblue" stroke="midnightblue" points="1090,-319.73 1093.5,-329.73 1097,-319.73 1090,-319.73"/>
</g>
<!-- Node18&#45;&gt;Node20 -->
<g id="edge21" class="edge">
<title>Node18&#45;&gt;Node20</title>
<path fill="none" stroke="midnightblue" d="M1050.82,-327.4C1001.48,-314.58 921.33,-293.74 876.51,-282.08"/>
<polygon fill="midnightblue" stroke="midnightblue" points="1050,-330.81 1060.56,-329.94 1051.76,-324.03 1050,-330.81"/>
</g>
<!-- Node20&#45;&gt;Node6 -->
<g id="edge23" class="edge">
<title>Node20&#45;&gt;Node6</title>
<path fill="none" stroke="midnightblue" d="M793.27,-260.9C738.6,-249.37 652.26,-231.15 601.83,-220.51"/>
<polygon fill="midnightblue" stroke="midnightblue" points="792.59,-264.34 803.1,-262.98 794.03,-257.49 792.59,-264.34"/>
</g>
<!-- Node20&#45;&gt;Node8 -->
<g id="edge24" class="edge">
<title>Node20&#45;&gt;Node8</title>
<path fill="none" stroke="midnightblue" d="M810.91,-259.43C769.11,-244.27 694.15,-218.17 628.5,-201 560.13,-183.12 480.02,-168.28 427.87,-159.41"/>
<polygon fill="midnightblue" stroke="midnightblue" points="809.96,-262.81 820.55,-262.95 812.35,-256.23 809.96,-262.81"/>
</g>
<!-- Node21 -->
<g id="node21" class="node">
<title>Node21</title>
<g id="a_node21"><a xlink:href="d__bg__s_8cpp.html" target="_top" xlink:title=" ">
<polygon fill="white" stroke="black" points="791.5,-201.5 791.5,-220.5 895.5,-220.5 895.5,-201.5 791.5,-201.5"/>
<text text-anchor="middle" x="843.5" y="-208.5" font-family="Helvetica,sans-Serif" font-size="10.00">src/d/bg/d_bg_s.cpp</text>
</a>
</g>
</g>
<!-- Node20&#45;&gt;Node21 -->
<g id="edge22" class="edge">
<title>Node20&#45;&gt;Node21</title>
<path fill="none" stroke="midnightblue" d="M843.5,-252.82C843.5,-242 843.5,-228.9 843.5,-220.51"/>
<polygon fill="midnightblue" stroke="midnightblue" points="840,-252.98 843.5,-262.98 847,-252.98 840,-252.98"/>
</g>
<!-- Node23 -->
<g id="node23" class="node">
<title>Node23</title>
<g id="a_node23"><a xlink:href="d__bomb_8cpp.html" target="_top" xlink:title=" ">
<polygon fill="white" stroke="black" points="379.5,-263 379.5,-282 473.5,-282 473.5,-263 379.5,-263"/>
<text text-anchor="middle" x="426.5" y="-270" font-family="Helvetica,sans-Serif" font-size="10.00">src/d/d_bomb.cpp</text>
</a>
</g>
</g>
<!-- Node22&#45;&gt;Node23 -->
<g id="edge26" class="edge">
<title>Node22&#45;&gt;Node23</title>
<path fill="none" stroke="midnightblue" d="M426.5,-319.54C426.5,-307.17 426.5,-291.62 426.5,-282.13"/>
<polygon fill="midnightblue" stroke="midnightblue" points="423,-319.73 426.5,-329.73 430,-319.73 423,-319.73"/>
</g>
<!-- Node24&#45;&gt;Node6 -->
<g id="edge29" class="edge">
<title>Node24&#45;&gt;Node6</title>
<path fill="none" stroke="midnightblue" d="M695.62,-314.16C694.45,-296.39 690.12,-272.74 676.5,-257 660.01,-237.95 634.44,-226.91 611.58,-220.54"/>
<polygon fill="midnightblue" stroke="midnightblue" points="692.13,-314.48 695.99,-324.35 699.12,-314.23 692.13,-314.48"/>
</g>
<!-- Node25 -->
<g id="node25" class="node">
<title>Node25</title>
<g id="a_node25"><a xlink:href="d__particle__copoly_8cpp.html" target="_top" xlink:title=" ">
<polygon fill="white" stroke="black" points="549.5,-257.5 549.5,-287.5 667.5,-287.5 667.5,-257.5 549.5,-257.5"/>
<text text-anchor="start" x="557.5" y="-275.5" font-family="Helvetica,sans-Serif" font-size="10.00">src/d/particle/d_particle</text>
<text text-anchor="middle" x="608.5" y="-264.5" font-family="Helvetica,sans-Serif" font-size="10.00">_copoly.cpp</text>
</a>
</g>
</g>
<!-- Node24&#45;&gt;Node25 -->
<g id="edge28" class="edge">
<title>Node24&#45;&gt;Node25</title>
<path fill="none" stroke="midnightblue" d="M668.29,-318.17C654.98,-308.23 639.3,-296.51 627.34,-287.58"/>
<polygon fill="midnightblue" stroke="midnightblue" points="666.52,-321.21 676.62,-324.4 670.71,-315.61 666.52,-321.21"/>
</g>
<!-- Node26&#45;&gt;Node6 -->
<g id="edge32" class="edge">
<title>Node26&#45;&gt;Node6</title>
<path fill="none" stroke="midnightblue" d="M314.25,-260.89C320.73,-259.57 327.27,-258.25 333.5,-257 397.58,-244.13 471.86,-229.53 517.77,-220.54"/>
<polygon fill="midnightblue" stroke="midnightblue" points="313.26,-257.52 304.16,-262.94 314.66,-264.38 313.26,-257.52"/>
</g>
<!-- Node26&#45;&gt;Node8 -->
<g id="edge33" class="edge">
<title>Node26&#45;&gt;Node8</title>
<path fill="none" stroke="midnightblue" d="M284.91,-257.37C298.52,-248.09 315.68,-235.1 328.5,-221 344.32,-203.6 357.83,-179.78 365.56,-164.76"/>
<polygon fill="midnightblue" stroke="midnightblue" points="282.97,-254.46 276.57,-262.9 286.84,-260.29 282.97,-254.46"/>
</g>
<!-- Node27 -->
<g id="node27" class="node">
<title>Node27</title>
<g id="a_node27"><a xlink:href="d__attention_8cpp.html" target="_top" xlink:title=" ">
<polygon fill="white" stroke="black" points="213,-201.5 213,-220.5 320,-220.5 320,-201.5 213,-201.5"/>
<text text-anchor="middle" x="266.5" y="-208.5" font-family="Helvetica,sans-Serif" font-size="10.00">src/d/d_attention.cpp</text>
</a>
</g>
</g>
<!-- Node26&#45;&gt;Node27 -->
<g id="edge31" class="edge">
<title>Node26&#45;&gt;Node27</title>
<path fill="none" stroke="midnightblue" d="M263.76,-252.82C264.48,-242 265.36,-228.9 265.93,-220.51"/>
<polygon fill="midnightblue" stroke="midnightblue" points="260.25,-252.76 263.07,-262.98 267.24,-253.23 260.25,-252.76"/>
</g>
<!-- Node28&#45;&gt;Node8 -->
<g id="edge36" class="edge">
<title>Node28&#45;&gt;Node8</title>
<path fill="none" stroke="midnightblue" d="M174.94,-199.07C215.04,-189.21 274.2,-174.67 317.32,-164.07"/>
<polygon fill="midnightblue" stroke="midnightblue" points="174.05,-195.69 165.17,-201.48 175.72,-202.49 174.05,-195.69"/>
</g>
<!-- Node28&#45;&gt;Node10 -->
<g id="edge35" class="edge">
<title>Node28&#45;&gt;Node10</title>
<path fill="none" stroke="midnightblue" d="M120.76,-192.4C105.57,-164.94 76.77,-112.9 65.35,-92.26"/>
<polygon fill="midnightblue" stroke="midnightblue" points="117.78,-194.25 125.69,-201.31 123.91,-190.86 117.78,-194.25"/>
</g>
<!-- Node29&#45;&gt;Node16 -->
<g id="edge41" class="edge">
<title>Node29&#45;&gt;Node16</title>
<path fill="none" stroke="midnightblue" d="M587.93,-519.69C577.07,-511.69 566.45,-501.39 560.5,-489 554.54,-476.58 554.49,-470.4 560.5,-458 568.09,-442.33 583.16,-430.06 596.78,-421.54"/>
<polygon fill="midnightblue" stroke="midnightblue" points="585.97,-522.59 596.2,-525.36 589.93,-516.82 585.97,-522.59"/>
</g>
<!-- Node30 -->
<g id="node30" class="node">
<title>Node30</title>
<g id="a_node30"><a xlink:href="d__bg__s__roof__chk_8cpp.html" target="_top" xlink:title=" ">
<polygon fill="white" stroke="black" points="569.5,-458.5 569.5,-488.5 677.5,-488.5 677.5,-458.5 569.5,-458.5"/>
<text text-anchor="start" x="577.5" y="-476.5" font-family="Helvetica,sans-Serif" font-size="10.00">src/d/bg/d_bg_s_roof</text>
<text text-anchor="middle" x="623.5" y="-465.5" font-family="Helvetica,sans-Serif" font-size="10.00">_chk.cpp</text>
</a>
</g>
</g>
<!-- Node29&#45;&gt;Node30 -->
<g id="edge40" class="edge">
<title>Node29&#45;&gt;Node30</title>
<path fill="none" stroke="midnightblue" d="M623.5,-515.11C623.5,-506.15 623.5,-496.32 623.5,-488.58"/>
<polygon fill="midnightblue" stroke="midnightblue" points="620,-515.4 623.5,-525.4 627,-515.4 620,-515.4"/>
</g>
<!-- Node32 -->
<g id="node32" class="node">
<title>Node32</title>
<g id="a_node32"><a xlink:href="d__bg__s__spl__grp__chk_8cpp.html" target="_top" xlink:title=" ">
<polygon fill="white" stroke="black" points="287.5,-458.5 287.5,-488.5 391.5,-488.5 391.5,-458.5 287.5,-458.5"/>
<text text-anchor="start" x="295.5" y="-476.5" font-family="Helvetica,sans-Serif" font-size="10.00">src/d/bg/d_bg_s_spl</text>
<text text-anchor="middle" x="339.5" y="-465.5" font-family="Helvetica,sans-Serif" font-size="10.00">_grp_chk.cpp</text>
</a>
</g>
</g>
<!-- Node31&#45;&gt;Node32 -->
<g id="edge43" class="edge">
<title>Node31&#45;&gt;Node32</title>
<path fill="none" stroke="midnightblue" d="M445.27,-521.27C421.86,-510.92 392.99,-498.15 371.33,-488.58"/>
<polygon fill="midnightblue" stroke="midnightblue" points="444.04,-524.55 454.6,-525.4 446.87,-518.15 444.04,-524.55"/>
</g>
<!-- Node33 -->
<g id="node33" class="node">
<title>Node33</title>
<g id="a_node33"><a xlink:href="d__bg__s__wtr__chk_8h.html" target="_top" xlink:title=" ">
<polygon fill="white" stroke="black" points="409.5,-458.5 409.5,-488.5 513.5,-488.5 513.5,-458.5 409.5,-458.5"/>
<text text-anchor="start" x="417.5" y="-476.5" font-family="Helvetica,sans-Serif" font-size="10.00">include/d/bg/d_bg_s</text>
<text text-anchor="middle" x="461.5" y="-465.5" font-family="Helvetica,sans-Serif" font-size="10.00">_wtr_chk.h</text>
</a>
</g>
</g>
<!-- Node31&#45;&gt;Node33 -->
<g id="edge44" class="edge">
<title>Node31&#45;&gt;Node33</title>
<path fill="none" stroke="midnightblue" d="M477.46,-515.99C473.92,-506.8 469.99,-496.58 466.91,-488.58"/>
<polygon fill="midnightblue" stroke="midnightblue" points="474.22,-517.32 481.08,-525.4 480.75,-514.81 474.22,-517.32"/>
</g>
<!-- Node33&#45;&gt;Node16 -->
<g id="edge46" class="edge">
<title>Node33&#45;&gt;Node16</title>
<path fill="none" stroke="midnightblue" d="M506.18,-454.68C532.33,-444.26 564.87,-431.28 589.2,-421.58"/>
<polygon fill="midnightblue" stroke="midnightblue" points="504.86,-451.44 496.87,-458.4 507.45,-457.94 504.86,-451.44"/>
</g>
<!-- Node34 -->
<g id="node34" class="node">
<title>Node34</title>
<g id="a_node34"><a xlink:href="d__bg__s__wtr__chk_8cpp.html" target="_top" xlink:title=" ">
<polygon fill="white" stroke="black" points="409,-391.5 409,-421.5 514,-421.5 514,-391.5 409,-391.5"/>
<text text-anchor="start" x="417" y="-409.5" font-family="Helvetica,sans-Serif" font-size="10.00">src/d/bg/d_bg_s_wtr</text>
<text text-anchor="middle" x="461.5" y="-398.5" font-family="Helvetica,sans-Serif" font-size="10.00">_chk.cpp</text>
</a>
</g>
</g>
<!-- Node33&#45;&gt;Node34 -->
<g id="edge45" class="edge">
<title>Node33&#45;&gt;Node34</title>
<path fill="none" stroke="midnightblue" d="M461.5,-448.11C461.5,-439.15 461.5,-429.32 461.5,-421.58"/>
<polygon fill="midnightblue" stroke="midnightblue" points="458,-448.4 461.5,-458.4 465,-448.4 458,-448.4"/>
</g>
<!-- Node35&#45;&gt;Node18 -->
<g id="edge54" class="edge">
<title>Node35&#45;&gt;Node18</title>
<path fill="none" stroke="midnightblue" d="M988.49,-533.62C1019.95,-527.05 1053.13,-514.09 1074.5,-489 1109.89,-447.45 1100,-374.14 1095.31,-349.14"/>
<polygon fill="midnightblue" stroke="midnightblue" points="987.53,-530.24 978.35,-535.54 988.83,-537.12 987.53,-530.24"/>
</g>
<!-- Node35&#45;&gt;Node20 -->
<g id="edge50" class="edge">
<title>Node35&#45;&gt;Node20</title>
<path fill="none" stroke="midnightblue" d="M902.75,-515.14C901.4,-485.45 897.69,-433.96 887.5,-391 877.5,-348.82 856.46,-301.22 847.59,-282.11"/>
<polygon fill="midnightblue" stroke="midnightblue" points="899.26,-515.53 903.15,-525.38 906.25,-515.25 899.26,-515.53"/>
</g>
<!-- Node36 -->
<g id="node36" class="node">
<title>Node36</title>
<g id="a_node36"><a xlink:href="c__bg__s__gnd__chk_8cpp.html" target="_top" xlink:title=" ">
<polygon fill="white" stroke="black" points="931.5,-458.5 931.5,-488.5 1065.5,-488.5 1065.5,-458.5 931.5,-458.5"/>
<text text-anchor="start" x="939.5" y="-476.5" font-family="Helvetica,sans-Serif" font-size="10.00">libs/SSystem/SComponent</text>
<text text-anchor="middle" x="998.5" y="-465.5" font-family="Helvetica,sans-Serif" font-size="10.00">/c_bg_s_gnd_chk.cpp</text>
</a>
</g>
</g>
<!-- Node35&#45;&gt;Node36 -->
<g id="edge49" class="edge">
<title>Node35&#45;&gt;Node36</title>
<path fill="none" stroke="midnightblue" d="M932.39,-519.73C947.09,-509.68 964.61,-497.68 977.93,-488.58"/>
<polygon fill="midnightblue" stroke="midnightblue" points="930.39,-516.86 924.11,-525.4 934.34,-522.64 930.39,-516.86"/>
</g>
<!-- Node37 -->
<g id="node37" class="node">
<title>Node37</title>
<g id="a_node37"><a xlink:href="d__bg__s__gnd__chk_8h.html" target="_top" xlink:title=" ">
<polygon fill="white" stroke="black" points="771.5,-458.5 771.5,-488.5 875.5,-488.5 875.5,-458.5 771.5,-458.5"/>
<text text-anchor="start" x="779.5" y="-476.5" font-family="Helvetica,sans-Serif" font-size="10.00">include/d/bg/d_bg_s</text>
<text text-anchor="middle" x="823.5" y="-465.5" font-family="Helvetica,sans-Serif" font-size="10.00">_gnd_chk.h</text>
</a>
</g>
</g>
<!-- Node35&#45;&gt;Node37 -->
<g id="edge51" class="edge">
<title>Node35&#45;&gt;Node37</title>
<path fill="none" stroke="midnightblue" d="M878.13,-518.88C865.97,-509.01 851.72,-497.43 840.82,-488.58"/>
<polygon fill="midnightblue" stroke="midnightblue" points="876.17,-521.81 886.14,-525.4 880.59,-516.37 876.17,-521.81"/>
</g>
<!-- Node37&#45;&gt;Node16 -->
<g id="edge53" class="edge">
<title>Node37&#45;&gt;Node16</title>
<path fill="none" stroke="midnightblue" d="M770.62,-455.23C738.43,-444.71 697.83,-431.45 667.6,-421.58"/>
<polygon fill="midnightblue" stroke="midnightblue" points="769.73,-458.62 780.32,-458.4 771.9,-451.96 769.73,-458.62"/>
</g>
<!-- Node38 -->
<g id="node38" class="node">
<title>Node38</title>
<g id="a_node38"><a xlink:href="d__bg__s__gnd__chk_8cpp.html" target="_top" xlink:title=" ">
<polygon fill="white" stroke="black" points="772,-391.5 772,-421.5 879,-421.5 879,-391.5 772,-391.5"/>
<text text-anchor="start" x="780" y="-409.5" font-family="Helvetica,sans-Serif" font-size="10.00">src/d/bg/d_bg_s_gnd</text>
<text text-anchor="middle" x="825.5" y="-398.5" font-family="Helvetica,sans-Serif" font-size="10.00">_chk.cpp</text>
</a>
</g>
</g>
<!-- Node37&#45;&gt;Node38 -->
<g id="edge52" class="edge">
<title>Node37&#45;&gt;Node38</title>
<path fill="none" stroke="midnightblue" d="M824.25,-448.11C824.53,-439.15 824.83,-429.32 825.07,-421.58"/>
<polygon fill="midnightblue" stroke="midnightblue" points="820.74,-448.29 823.93,-458.4 827.74,-448.51 820.74,-448.29"/>
</g>
<!-- Node39&#45;&gt;Node2 -->
<g id="edge56" class="edge">
<title>Node39&#45;&gt;Node2</title>
<path fill="none" stroke="midnightblue" d="M1329.37,-520.99C1350.45,-510.69 1376.28,-498.07 1395.7,-488.58"/>
<polygon fill="midnightblue" stroke="midnightblue" points="1327.81,-517.86 1320.36,-525.4 1330.88,-524.15 1327.81,-517.86"/>
</g>
<!-- Node39&#45;&gt;Node18 -->
<g id="edge61" class="edge">
<title>Node39&#45;&gt;Node18</title>
<path fill="none" stroke="midnightblue" d="M1295.64,-515.25C1299.69,-482.87 1301.5,-425.62 1271.5,-391 1241.63,-356.53 1190.13,-344.76 1150.18,-341.12"/>
<polygon fill="midnightblue" stroke="midnightblue" points="1292.17,-514.81 1294.22,-525.2 1299.1,-515.79 1292.17,-514.81"/>
</g>
<!-- Node39&#45;&gt;Node20 -->
<g id="edge57" class="edge">
<title>Node39&#45;&gt;Node20</title>
<path fill="none" stroke="midnightblue" d="M1302.39,-515.88C1305.68,-507.57 1308.86,-498.04 1310.5,-489 1318.41,-445.51 1321.27,-425.39 1293.5,-391 1251.42,-338.89 1222.29,-344.42 1158.5,-324 1070.28,-295.76 962.88,-282.86 899.02,-277.32"/>
<polygon fill="midnightblue" stroke="midnightblue" points="1299.08,-514.74 1298.41,-525.31 1305.53,-517.46 1299.08,-514.74"/>
</g>
<!-- Node40 -->
<g id="node40" class="node">
<title>Node40</title>
<g id="a_node40"><a xlink:href="d__bg__s__lin__chk_8h.html" target="_top" xlink:title=" ">
<polygon fill="white" stroke="black" points="1159.5,-458.5 1159.5,-488.5 1263.5,-488.5 1263.5,-458.5 1159.5,-458.5"/>
<text text-anchor="start" x="1167.5" y="-476.5" font-family="Helvetica,sans-Serif" font-size="10.00">include/d/bg/d_bg_s</text>
<text text-anchor="middle" x="1211.5" y="-465.5" font-family="Helvetica,sans-Serif" font-size="10.00">_lin_chk.h</text>
</a>
</g>
</g>
<!-- Node39&#45;&gt;Node40 -->
<g id="edge58" class="edge">
<title>Node39&#45;&gt;Node40</title>
<path fill="none" stroke="midnightblue" d="M1266.13,-518.88C1253.97,-509.01 1239.72,-497.43 1228.82,-488.58"/>
<polygon fill="midnightblue" stroke="midnightblue" points="1264.17,-521.81 1274.14,-525.4 1268.59,-516.37 1264.17,-521.81"/>
</g>
<!-- Node40&#45;&gt;Node16 -->
<g id="edge60" class="edge">
<title>Node40&#45;&gt;Node16</title>
<path fill="none" stroke="midnightblue" d="M1149.25,-465.61C1033.06,-452.74 785.15,-425.29 676.9,-413.3"/>
<polygon fill="midnightblue" stroke="midnightblue" points="1149.08,-469.11 1159.41,-466.73 1149.85,-462.15 1149.08,-469.11"/>
</g>
<!-- Node41 -->
<g id="node41" class="node">
<title>Node41</title>
<g id="a_node41"><a xlink:href="d__bg__s__lin__chk_8cpp.html" target="_top" xlink:title=" ">
<polygon fill="white" stroke="black" points="1161,-391.5 1161,-421.5 1262,-421.5 1262,-391.5 1161,-391.5"/>
<text text-anchor="start" x="1169" y="-409.5" font-family="Helvetica,sans-Serif" font-size="10.00">src/d/bg/d_bg_s_lin</text>
<text text-anchor="middle" x="1211.5" y="-398.5" font-family="Helvetica,sans-Serif" font-size="10.00">_chk.cpp</text>
</a>
</g>
</g>
<!-- Node40&#45;&gt;Node41 -->
<g id="edge59" class="edge">
<title>Node40&#45;&gt;Node41</title>
<path fill="none" stroke="midnightblue" d="M1211.5,-448.11C1211.5,-439.15 1211.5,-429.32 1211.5,-421.58"/>
<polygon fill="midnightblue" stroke="midnightblue" points="1208,-448.4 1211.5,-458.4 1215,-448.4 1208,-448.4"/>
</g>
</g>
</svg>
