<?xml version="1.0" encoding="UTF-8" standalone="no"?>
<!DOCTYPE svg PUBLIC "-//W3C//DTD SVG 1.1//EN"
 "http://www.w3.org/Graphics/SVG/1.1/DTD/svg11.dtd">
<!-- Generated by graphviz version 2.44.0 ()
 -->
<!-- Title: include/SSystem/SComponent/c_bg_s_chk.h Pages: 1 -->
<svg width="1254pt" height="631pt"
 viewBox="0.00 0.00 1253.50 631.00" xmlns="http://www.w3.org/2000/svg" xmlns:xlink="http://www.w3.org/1999/xlink">
<g id="graph0" class="graph" transform="scale(1 1) rotate(0) translate(4 627)">
<title>include/SSystem/SComponent/c_bg_s_chk.h</title>
<polygon fill="white" stroke="transparent" points="-4,4 -4,-627 1249.5,-627 1249.5,4 -4,4"/>
<!-- Node1 -->
<g id="node1" class="node">
<title>Node1</title>
<g id="a_node1"><a xlink:title=" ">
<polygon fill="#bfbfbf" stroke="black" points="401,-592.5 401,-622.5 550,-622.5 550,-592.5 401,-592.5"/>
<text text-anchor="start" x="409" y="-610.5" font-family="Helvetica,sans-Serif" font-size="10.00">include/SSystem/SComponent</text>
<text text-anchor="middle" x="475.5" y="-599.5" font-family="Helvetica,sans-Serif" font-size="10.00">/c_bg_s_chk.h</text>
</a>
</g>
</g>
<!-- Node2 -->
<g id="node2" class="node">
<title>Node2</title>
<g id="a_node2"><a xlink:href="c__bg__s__chk_8cpp.html" target="_top" xlink:title=" ">
<polygon fill="white" stroke="black" points="12.5,-525.5 12.5,-555.5 146.5,-555.5 146.5,-525.5 12.5,-525.5"/>
<text text-anchor="start" x="20.5" y="-543.5" font-family="Helvetica,sans-Serif" font-size="10.00">libs/SSystem/SComponent</text>
<text text-anchor="middle" x="79.5" y="-532.5" font-family="Helvetica,sans-Serif" font-size="10.00">/c_bg_s_chk.cpp</text>
</a>
</g>
</g>
<!-- Node1&#45;&gt;Node2 -->
<g id="edge1" class="edge">
<title>Node1&#45;&gt;Node2</title>
<path fill="none" stroke="midnightblue" d="M390.58,-593.86C326.02,-584.06 235.05,-569.86 155.5,-556 152.59,-555.49 149.62,-554.97 146.62,-554.43"/>
<polygon fill="midnightblue" stroke="midnightblue" points="390.3,-597.35 400.71,-595.39 391.34,-590.43 390.3,-597.35"/>
</g>
<!-- Node3 -->
<g id="node3" class="node">
<title>Node3</title>
<g id="a_node3"><a xlink:href="c__bg__s__lin__chk_8cpp.html" target="_top" xlink:title=" ">
<polygon fill="white" stroke="black" points="408.5,-458.5 408.5,-488.5 542.5,-488.5 542.5,-458.5 408.5,-458.5"/>
<text text-anchor="start" x="416.5" y="-476.5" font-family="Helvetica,sans-Serif" font-size="10.00">libs/SSystem/SComponent</text>
<text text-anchor="middle" x="475.5" y="-465.5" font-family="Helvetica,sans-Serif" font-size="10.00">/c_bg_s_lin_chk.cpp</text>
</a>
</g>
</g>
<!-- Node1&#45;&gt;Node3 -->
<g id="edge2" class="edge">
<title>Node1&#45;&gt;Node3</title>
<path fill="none" stroke="midnightblue" d="M475.5,-582.02C475.5,-554.51 475.5,-510.79 475.5,-488.52"/>
<polygon fill="midnightblue" stroke="midnightblue" points="472,-582.37 475.5,-592.37 479,-582.37 472,-582.37"/>
</g>
<!-- Node4 -->
<g id="node4" class="node">
<title>Node4</title>
<g id="a_node4"><a xlink:href="d__bg__s__roof__chk_8h.html" target="_top" xlink:title=" ">
<polygon fill="white" stroke="black" points="328.5,-525.5 328.5,-555.5 432.5,-555.5 432.5,-525.5 328.5,-525.5"/>
<text text-anchor="start" x="336.5" y="-543.5" font-family="Helvetica,sans-Serif" font-size="10.00">include/d/bg/d_bg_s</text>
<text text-anchor="middle" x="380.5" y="-532.5" font-family="Helvetica,sans-Serif" font-size="10.00">_roof_chk.h</text>
</a>
</g>
</g>
<!-- Node1&#45;&gt;Node4 -->
<g id="edge3" class="edge">
<title>Node1&#45;&gt;Node4</title>
<path fill="none" stroke="midnightblue" d="M446.61,-586.73C431.91,-576.68 414.39,-564.68 401.07,-555.58"/>
<polygon fill="midnightblue" stroke="midnightblue" points="444.66,-589.64 454.89,-592.4 448.61,-583.86 444.66,-589.64"/>
</g>
<!-- Node26 -->
<g id="node26" class="node">
<title>Node26</title>
<g id="a_node26"><a xlink:href="d__bg__s__spl__grp__chk_8h.html" target="_top" xlink:title=" ">
<polygon fill="white" stroke="black" points="164.5,-525.5 164.5,-555.5 268.5,-555.5 268.5,-525.5 164.5,-525.5"/>
<text text-anchor="start" x="172.5" y="-543.5" font-family="Helvetica,sans-Serif" font-size="10.00">include/d/bg/d_bg_s</text>
<text text-anchor="middle" x="216.5" y="-532.5" font-family="Helvetica,sans-Serif" font-size="10.00">_spl_grp_chk.h</text>
</a>
</g>
</g>
<!-- Node1&#45;&gt;Node26 -->
<g id="edge29" class="edge">
<title>Node1&#45;&gt;Node26</title>
<path fill="none" stroke="midnightblue" d="M409.65,-589.97C365.95,-579.01 309.36,-564.81 268.75,-554.61"/>
<polygon fill="midnightblue" stroke="midnightblue" points="409.07,-593.44 419.62,-592.48 410.77,-586.65 409.07,-593.44"/>
</g>
<!-- Node30 -->
<g id="node30" class="node">
<title>Node30</title>
<g id="a_node30"><a xlink:href="c__bg__s__gnd__chk_8h.html" target="_top" xlink:title=" ">
<polygon fill="white" stroke="black" points="819,-525.5 819,-555.5 968,-555.5 968,-525.5 819,-525.5"/>
<text text-anchor="start" x="827" y="-543.5" font-family="Helvetica,sans-Serif" font-size="10.00">include/SSystem/SComponent</text>
<text text-anchor="middle" x="893.5" y="-532.5" font-family="Helvetica,sans-Serif" font-size="10.00">/c_bg_s_gnd_chk.h</text>
</a>
</g>
</g>
<!-- Node1&#45;&gt;Node30 -->
<g id="edge34" class="edge">
<title>Node1&#45;&gt;Node30</title>
<path fill="none" stroke="midnightblue" d="M560.23,-593.32C636.04,-581.54 746.1,-564.42 818.71,-553.13"/>
<polygon fill="midnightblue" stroke="midnightblue" points="559.57,-589.88 550.23,-594.88 560.65,-596.8 559.57,-589.88"/>
</g>
<!-- Node34 -->
<g id="node34" class="node">
<title>Node34</title>
<g id="a_node34"><a xlink:href="c__bg__s__lin__chk_8h.html" target="_top" xlink:title=" ">
<polygon fill="white" stroke="black" points="538,-525.5 538,-555.5 687,-555.5 687,-525.5 538,-525.5"/>
<text text-anchor="start" x="546" y="-543.5" font-family="Helvetica,sans-Serif" font-size="10.00">include/SSystem/SComponent</text>
<text text-anchor="middle" x="612.5" y="-532.5" font-family="Helvetica,sans-Serif" font-size="10.00">/c_bg_s_lin_chk.h</text>
</a>
</g>
</g>
<!-- Node1&#45;&gt;Node34 -->
<g id="edge41" class="edge">
<title>Node1&#45;&gt;Node34</title>
<path fill="none" stroke="midnightblue" d="M514.51,-587.99C536.22,-577.69 562.83,-565.07 582.83,-555.58"/>
<polygon fill="midnightblue" stroke="midnightblue" points="512.76,-584.95 505.23,-592.4 515.76,-591.27 512.76,-584.95"/>
</g>
<!-- Node37 -->
<g id="node37" class="node">
<title>Node37</title>
<g id="a_node37"><a xlink:href="c__bg__s__shdw__draw_8h.html" target="_top" xlink:title=" ">
<polygon fill="white" stroke="black" points="1045,-525.5 1045,-555.5 1194,-555.5 1194,-525.5 1045,-525.5"/>
<text text-anchor="start" x="1053" y="-543.5" font-family="Helvetica,sans-Serif" font-size="10.00">include/SSystem/SComponent</text>
<text text-anchor="middle" x="1119.5" y="-532.5" font-family="Helvetica,sans-Serif" font-size="10.00">/c_bg_s_shdw_draw.h</text>
</a>
</g>
</g>
<!-- Node1&#45;&gt;Node37 -->
<g id="edge48" class="edge">
<title>Node1&#45;&gt;Node37</title>
<path fill="none" stroke="midnightblue" d="M560.38,-598C660.2,-588 830.9,-570.86 977.5,-556 999.32,-553.79 1023.02,-551.37 1044.7,-549.16"/>
<polygon fill="midnightblue" stroke="midnightblue" points="559.95,-594.53 550.35,-599.01 560.65,-601.49 559.95,-594.53"/>
</g>
<!-- Node5 -->
<g id="node5" class="node">
<title>Node5</title>
<g id="a_node5"><a xlink:href="d__bg__s__roof__chk_8cpp.html" target="_top" xlink:title=" ">
<polygon fill="white" stroke="black" points="244.5,-458.5 244.5,-488.5 352.5,-488.5 352.5,-458.5 244.5,-458.5"/>
<text text-anchor="start" x="252.5" y="-476.5" font-family="Helvetica,sans-Serif" font-size="10.00">src/d/bg/d_bg_s_roof</text>
<text text-anchor="middle" x="298.5" y="-465.5" font-family="Helvetica,sans-Serif" font-size="10.00">_chk.cpp</text>
</a>
</g>
</g>
<!-- Node4&#45;&gt;Node5 -->
<g id="edge4" class="edge">
<title>Node4&#45;&gt;Node5</title>
<path fill="none" stroke="midnightblue" d="M354.85,-519.17C342.31,-509.23 327.53,-497.51 316.26,-488.58"/>
<polygon fill="midnightblue" stroke="midnightblue" points="352.7,-521.93 362.71,-525.4 357.04,-516.44 352.7,-521.93"/>
</g>
<!-- Node6 -->
<g id="node6" class="node">
<title>Node6</title>
<g id="a_node6"><a xlink:href="d__bg__s__acch_8h.html" target="_top" xlink:title=" ">
<polygon fill="white" stroke="black" points="343.5,-391.5 343.5,-421.5 447.5,-421.5 447.5,-391.5 343.5,-391.5"/>
<text text-anchor="start" x="351.5" y="-409.5" font-family="Helvetica,sans-Serif" font-size="10.00">include/d/bg/d_bg_s</text>
<text text-anchor="middle" x="395.5" y="-398.5" font-family="Helvetica,sans-Serif" font-size="10.00">_acch.h</text>
</a>
</g>
</g>
<!-- Node4&#45;&gt;Node6 -->
<g id="edge5" class="edge">
<title>Node4&#45;&gt;Node6</title>
<path fill="none" stroke="midnightblue" d="M383.24,-515.39C386.36,-487.9 391.36,-443.89 393.91,-421.52"/>
<polygon fill="midnightblue" stroke="midnightblue" points="379.76,-515.04 382.11,-525.37 386.71,-515.83 379.76,-515.04"/>
</g>
<!-- Node7 -->
<g id="node7" class="node">
<title>Node7</title>
<g id="a_node7"><a xlink:href="d__bg__s__acch_8cpp.html" target="_top" xlink:title=" ">
<polygon fill="white" stroke="black" points="184,-330 184,-349 315,-349 315,-330 184,-330"/>
<text text-anchor="middle" x="249.5" y="-337" font-family="Helvetica,sans-Serif" font-size="10.00">src/d/bg/d_bg_s_acch.cpp</text>
</a>
</g>
</g>
<!-- Node6&#45;&gt;Node7 -->
<g id="edge6" class="edge">
<title>Node6&#45;&gt;Node7</title>
<path fill="none" stroke="midnightblue" d="M354.61,-387.3C326.45,-374.76 290.34,-358.68 268.61,-349.01"/>
<polygon fill="midnightblue" stroke="midnightblue" points="353.26,-390.53 363.82,-391.4 356.11,-384.13 353.26,-390.53"/>
</g>
<!-- Node8 -->
<g id="node8" class="node">
<title>Node8</title>
<g id="a_node8"><a xlink:href="d__bg__w_8h.html" target="_top" xlink:title=" ">
<polygon fill="white" stroke="black" points="589,-330 589,-349 702,-349 702,-330 589,-330"/>
<text text-anchor="middle" x="645.5" y="-337" font-family="Helvetica,sans-Serif" font-size="10.00">include/d/bg/d_bg_w.h</text>
</a>
</g>
</g>
<!-- Node6&#45;&gt;Node8 -->
<g id="edge7" class="edge">
<title>Node6&#45;&gt;Node8</title>
<path fill="none" stroke="midnightblue" d="M457.48,-389.38C506.57,-376.62 573.22,-359.29 612.56,-349.06"/>
<polygon fill="midnightblue" stroke="midnightblue" points="456.4,-386.05 447.6,-391.95 458.16,-392.82 456.4,-386.05"/>
</g>
<!-- Node22 -->
<g id="node22" class="node">
<title>Node22</title>
<g id="a_node22"><a xlink:href="d__bomb_8h.html" target="_top" xlink:title=" ">
<polygon fill="white" stroke="black" points="333,-330 333,-349 434,-349 434,-330 333,-330"/>
<text text-anchor="middle" x="383.5" y="-337" font-family="Helvetica,sans-Serif" font-size="10.00">include/d/d_bomb.h</text>
</a>
</g>
</g>
<!-- Node6&#45;&gt;Node22 -->
<g id="edge24" class="edge">
<title>Node6&#45;&gt;Node22</title>
<path fill="none" stroke="midnightblue" d="M391.02,-381.25C388.95,-370.02 386.62,-357.38 385.11,-349.19"/>
<polygon fill="midnightblue" stroke="midnightblue" points="387.64,-382.2 392.9,-391.4 394.52,-380.93 387.64,-382.2"/>
</g>
<!-- Node24 -->
<g id="node24" class="node">
<title>Node24</title>
<g id="a_node24"><a xlink:href="d__particle__copoly_8h.html" target="_top" xlink:title=" ">
<polygon fill="white" stroke="black" points="452.5,-324.5 452.5,-354.5 554.5,-354.5 554.5,-324.5 452.5,-324.5"/>
<text text-anchor="start" x="460.5" y="-342.5" font-family="Helvetica,sans-Serif" font-size="10.00">include/d/particle</text>
<text text-anchor="middle" x="503.5" y="-331.5" font-family="Helvetica,sans-Serif" font-size="10.00">/d_particle_copoly.h</text>
</a>
</g>
</g>
<!-- Node6&#45;&gt;Node24 -->
<g id="edge26" class="edge">
<title>Node6&#45;&gt;Node24</title>
<path fill="none" stroke="midnightblue" d="M427.87,-386.02C444.68,-375.9 464.84,-363.77 480.11,-354.58"/>
<polygon fill="midnightblue" stroke="midnightblue" points="425.7,-383.24 418.93,-391.4 429.31,-389.24 425.7,-383.24"/>
</g>
<!-- Node9 -->
<g id="node9" class="node">
<title>Node9</title>
<g id="a_node9"><a xlink:href="d__bg__w_8cpp.html" target="_top" xlink:title=" ">
<polygon fill="white" stroke="black" points="592,-263 592,-282 699,-282 699,-263 592,-263"/>
<text text-anchor="middle" x="645.5" y="-270" font-family="Helvetica,sans-Serif" font-size="10.00">src/d/bg/d_bg_w.cpp</text>
</a>
</g>
</g>
<!-- Node8&#45;&gt;Node9 -->
<g id="edge8" class="edge">
<title>Node8&#45;&gt;Node9</title>
<path fill="none" stroke="midnightblue" d="M645.5,-319.54C645.5,-307.17 645.5,-291.62 645.5,-282.13"/>
<polygon fill="midnightblue" stroke="midnightblue" points="642,-319.73 645.5,-329.73 649,-319.73 642,-319.73"/>
</g>
<!-- Node10 -->
<g id="node10" class="node">
<title>Node10</title>
<g id="a_node10"><a xlink:href="d__bg__s_8h.html" target="_top" xlink:title=" ">
<polygon fill="white" stroke="black" points="717,-263 717,-282 828,-282 828,-263 717,-263"/>
<text text-anchor="middle" x="772.5" y="-270" font-family="Helvetica,sans-Serif" font-size="10.00">include/d/bg/d_bg_s.h</text>
</a>
</g>
</g>
<!-- Node8&#45;&gt;Node10 -->
<g id="edge9" class="edge">
<title>Node8&#45;&gt;Node10</title>
<path fill="none" stroke="midnightblue" d="M671.34,-325.27C696.5,-312.4 733.99,-293.21 755.57,-282.17"/>
<polygon fill="midnightblue" stroke="midnightblue" points="669.67,-322.2 662.36,-329.87 672.86,-328.43 669.67,-322.2"/>
</g>
<!-- Node11 -->
<g id="node11" class="node">
<title>Node11</title>
<g id="a_node11"><a xlink:href="d__bg__s_8cpp.html" target="_top" xlink:title=" ">
<polygon fill="white" stroke="black" points="760.5,-201.5 760.5,-220.5 864.5,-220.5 864.5,-201.5 760.5,-201.5"/>
<text text-anchor="middle" x="812.5" y="-208.5" font-family="Helvetica,sans-Serif" font-size="10.00">src/d/bg/d_bg_s.cpp</text>
</a>
</g>
</g>
<!-- Node10&#45;&gt;Node11 -->
<g id="edge10" class="edge">
<title>Node10&#45;&gt;Node11</title>
<path fill="none" stroke="midnightblue" d="M783.93,-254.51C791.4,-243.39 800.84,-229.34 806.78,-220.51"/>
<polygon fill="midnightblue" stroke="midnightblue" points="780.91,-252.72 778.23,-262.98 786.71,-256.63 780.91,-252.72"/>
</g>
<!-- Node12 -->
<g id="node12" class="node">
<title>Node12</title>
<g id="a_node12"><a xlink:href="d__a__alink_8h.html" target="_top" xlink:title=" ">
<polygon fill="white" stroke="black" points="526.5,-201.5 526.5,-220.5 642.5,-220.5 642.5,-201.5 526.5,-201.5"/>
<text text-anchor="middle" x="584.5" y="-208.5" font-family="Helvetica,sans-Serif" font-size="10.00">include/d/a/d_a_alink.h</text>
</a>
</g>
</g>
<!-- Node10&#45;&gt;Node12 -->
<g id="edge11" class="edge">
<title>Node10&#45;&gt;Node12</title>
<path fill="none" stroke="midnightblue" d="M735.79,-259.88C699.24,-248.32 644.03,-230.84 611.39,-220.51"/>
<polygon fill="midnightblue" stroke="midnightblue" points="734.97,-263.29 745.56,-262.98 737.09,-256.62 734.97,-263.29"/>
</g>
<!-- Node14 -->
<g id="node14" class="node">
<title>Node14</title>
<g id="a_node14"><a xlink:href="d__com__inf__game_8h.html" target="_top" xlink:title=" ">
<polygon fill="white" stroke="black" points="677.5,-134.5 677.5,-164.5 787.5,-164.5 787.5,-134.5 677.5,-134.5"/>
<text text-anchor="start" x="685.5" y="-152.5" font-family="Helvetica,sans-Serif" font-size="10.00">include/d/com/d_com</text>
<text text-anchor="middle" x="732.5" y="-141.5" font-family="Helvetica,sans-Serif" font-size="10.00">_inf_game.h</text>
</a>
</g>
</g>
<!-- Node10&#45;&gt;Node14 -->
<g id="edge23" class="edge">
<title>Node10&#45;&gt;Node14</title>
<path fill="none" stroke="midnightblue" d="M764.33,-253.47C760.18,-243.93 755.24,-231.96 751.5,-221 744.95,-201.8 739.17,-179.06 735.75,-164.71"/>
<polygon fill="midnightblue" stroke="midnightblue" points="761.17,-254.98 768.42,-262.7 767.56,-252.14 761.17,-254.98"/>
</g>
<!-- Node13 -->
<g id="node13" class="node">
<title>Node13</title>
<g id="a_node13"><a xlink:href="d__a__alink_8cpp.html" target="_top" xlink:title=" ">
<polygon fill="white" stroke="black" points="336,-73 336,-92 445,-92 445,-73 336,-73"/>
<text text-anchor="middle" x="390.5" y="-80" font-family="Helvetica,sans-Serif" font-size="10.00">src/d/a/d_a_alink.cpp</text>
</a>
</g>
</g>
<!-- Node12&#45;&gt;Node13 -->
<g id="edge12" class="edge">
<title>Node12&#45;&gt;Node13</title>
<path fill="none" stroke="midnightblue" d="M562.55,-195.69C521.99,-169.24 436.46,-113.47 403.67,-92.09"/>
<polygon fill="midnightblue" stroke="midnightblue" points="560.88,-198.77 571.17,-201.31 564.7,-192.91 560.88,-198.77"/>
</g>
<!-- Node12&#45;&gt;Node14 -->
<g id="edge13" class="edge">
<title>Node12&#45;&gt;Node14</title>
<path fill="none" stroke="midnightblue" d="M615.05,-197.72C639.07,-188.06 672.55,-174.6 697.62,-164.52"/>
<polygon fill="midnightblue" stroke="midnightblue" points="613.68,-194.5 605.7,-201.48 616.29,-200.99 613.68,-194.5"/>
</g>
<!-- Node14&#45;&gt;Node13 -->
<g id="edge15" class="edge">
<title>Node14&#45;&gt;Node13</title>
<path fill="none" stroke="midnightblue" d="M667.4,-137.61C610.75,-127.92 526.51,-113 453.5,-98 444.7,-96.19 435.25,-94.1 426.42,-92.07"/>
<polygon fill="midnightblue" stroke="midnightblue" points="666.85,-141.07 677.3,-139.3 668.03,-134.17 666.85,-141.07"/>
</g>
<!-- Node15 -->
<g id="node15" class="node">
<title>Node15</title>
<g id="a_node15"><a xlink:href="d__com__inf__game_8cpp.html" target="_top" xlink:title=" ">
<polygon fill="white" stroke="black" points="816.5,-0.5 816.5,-30.5 924.5,-30.5 924.5,-0.5 816.5,-0.5"/>
<text text-anchor="start" x="824.5" y="-18.5" font-family="Helvetica,sans-Serif" font-size="10.00">src/d/com/d_com_inf</text>
<text text-anchor="middle" x="870.5" y="-7.5" font-family="Helvetica,sans-Serif" font-size="10.00">_game.cpp</text>
</a>
</g>
</g>
<!-- Node14&#45;&gt;Node15 -->
<g id="edge14" class="edge">
<title>Node14&#45;&gt;Node15</title>
<path fill="none" stroke="midnightblue" d="M797.17,-133.46C817.14,-125.87 837.53,-114.61 851.5,-98 867.68,-78.76 870.67,-48.31 870.91,-30.58"/>
<polygon fill="midnightblue" stroke="midnightblue" points="796,-130.17 787.74,-136.8 798.34,-136.76 796,-130.17"/>
</g>
<!-- Node16 -->
<g id="node16" class="node">
<title>Node16</title>
<g id="a_node16"><a xlink:href="d__event_8cpp.html" target="_top" xlink:title=" ">
<polygon fill="white" stroke="black" points="899,-73 899,-92 1020,-92 1020,-73 899,-73"/>
<text text-anchor="middle" x="959.5" y="-80" font-family="Helvetica,sans-Serif" font-size="10.00">src/d/event/d_event.cpp</text>
</a>
</g>
</g>
<!-- Node14&#45;&gt;Node16 -->
<g id="edge16" class="edge">
<title>Node14&#45;&gt;Node16</title>
<path fill="none" stroke="midnightblue" d="M791.27,-131.67C835.64,-118.97 894.67,-102.06 929.72,-92.03"/>
<polygon fill="midnightblue" stroke="midnightblue" points="790.13,-128.36 781.48,-134.48 792.05,-135.09 790.13,-128.36"/>
</g>
<!-- Node17 -->
<g id="node17" class="node">
<title>Node17</title>
<g id="a_node17"><a xlink:href="d__meter2__info_8cpp.html" target="_top" xlink:title=" ">
<polygon fill="white" stroke="black" points="1038.5,-67.5 1038.5,-97.5 1148.5,-97.5 1148.5,-67.5 1038.5,-67.5"/>
<text text-anchor="start" x="1046.5" y="-85.5" font-family="Helvetica,sans-Serif" font-size="10.00">src/d/meter/d_meter2</text>
<text text-anchor="middle" x="1093.5" y="-74.5" font-family="Helvetica,sans-Serif" font-size="10.00">_info.cpp</text>
</a>
</g>
</g>
<!-- Node14&#45;&gt;Node17 -->
<g id="edge17" class="edge">
<title>Node14&#45;&gt;Node17</title>
<path fill="none" stroke="midnightblue" d="M797.82,-138.44C858.12,-128.91 950.08,-113.74 1029.5,-98 1032.41,-97.42 1035.38,-96.82 1038.38,-96.19"/>
<polygon fill="midnightblue" stroke="midnightblue" points="797.01,-135.02 787.68,-140.04 798.1,-141.94 797.01,-135.02"/>
</g>
<!-- Node18 -->
<g id="node18" class="node">
<title>Node18</title>
<g id="a_node18"><a xlink:href="d__msg__flow_8cpp.html" target="_top" xlink:title=" ">
<polygon fill="white" stroke="black" points="463,-73 463,-92 596,-92 596,-73 463,-73"/>
<text text-anchor="middle" x="529.5" y="-80" font-family="Helvetica,sans-Serif" font-size="10.00">src/d/msg/d_msg_flow.cpp</text>
</a>
</g>
</g>
<!-- Node14&#45;&gt;Node18 -->
<g id="edge18" class="edge">
<title>Node14&#45;&gt;Node18</title>
<path fill="none" stroke="midnightblue" d="M678.69,-131.27C639.13,-118.6 587.07,-101.93 556.07,-92.01"/>
<polygon fill="midnightblue" stroke="midnightblue" points="677.86,-134.68 688.45,-134.4 680,-128.01 677.86,-134.68"/>
</g>
<!-- Node19 -->
<g id="node19" class="node">
<title>Node19</title>
<g id="a_node19"><a xlink:href="d__save_8cpp.html" target="_top" xlink:title=" ">
<polygon fill="white" stroke="black" points="614,-73 614,-92 729,-92 729,-73 614,-73"/>
<text text-anchor="middle" x="671.5" y="-80" font-family="Helvetica,sans-Serif" font-size="10.00">src/d/save/d_save.cpp</text>
</a>
</g>
</g>
<!-- Node14&#45;&gt;Node19 -->
<g id="edge19" class="edge">
<title>Node14&#45;&gt;Node19</title>
<path fill="none" stroke="midnightblue" d="M712.32,-127C701.19,-115.13 687.97,-101.05 679.66,-92.19"/>
<polygon fill="midnightblue" stroke="midnightblue" points="709.87,-129.5 719.26,-134.4 714.97,-124.71 709.87,-129.5"/>
</g>
<!-- Node20 -->
<g id="node20" class="node">
<title>Node20</title>
<g id="a_node20"><a xlink:href="d__item_8h.html" target="_top" xlink:title=" ">
<polygon fill="white" stroke="black" points="747,-73 747,-92 842,-92 842,-73 747,-73"/>
<text text-anchor="middle" x="794.5" y="-80" font-family="Helvetica,sans-Serif" font-size="10.00">include/d/d_item.h</text>
</a>
</g>
</g>
<!-- Node14&#45;&gt;Node20 -->
<g id="edge20" class="edge">
<title>Node14&#45;&gt;Node20</title>
<path fill="none" stroke="midnightblue" d="M753.01,-127C764.33,-115.13 777.76,-101.05 786.21,-92.19"/>
<polygon fill="midnightblue" stroke="midnightblue" points="750.32,-124.74 745.95,-134.4 755.39,-129.58 750.32,-124.74"/>
</g>
<!-- Node20&#45;&gt;Node15 -->
<g id="edge21" class="edge">
<title>Node20&#45;&gt;Node15</title>
<path fill="none" stroke="midnightblue" d="M812.71,-65.93C825.28,-55.18 841.85,-41 854.03,-30.59"/>
<polygon fill="midnightblue" stroke="midnightblue" points="810.07,-63.57 804.75,-72.73 814.62,-68.89 810.07,-63.57"/>
</g>
<!-- Node21 -->
<g id="node21" class="node">
<title>Node21</title>
<g id="a_node21"><a xlink:href="d__item_8cpp.html" target="_top" xlink:title=" ">
<polygon fill="white" stroke="black" points="709,-6 709,-25 798,-25 798,-6 709,-6"/>
<text text-anchor="middle" x="753.5" y="-13" font-family="Helvetica,sans-Serif" font-size="10.00">src/d/d_item.cpp</text>
</a>
</g>
</g>
<!-- Node20&#45;&gt;Node21 -->
<g id="edge22" class="edge">
<title>Node20&#45;&gt;Node21</title>
<path fill="none" stroke="midnightblue" d="M783.48,-64.03C775.55,-51.45 765.17,-35.01 758.94,-25.13"/>
<polygon fill="midnightblue" stroke="midnightblue" points="780.68,-66.14 788.97,-72.73 786.6,-62.41 780.68,-66.14"/>
</g>
<!-- Node23 -->
<g id="node23" class="node">
<title>Node23</title>
<g id="a_node23"><a xlink:href="d__bomb_8cpp.html" target="_top" xlink:title=" ">
<polygon fill="white" stroke="black" points="305.5,-263 305.5,-282 399.5,-282 399.5,-263 305.5,-263"/>
<text text-anchor="middle" x="352.5" y="-270" font-family="Helvetica,sans-Serif" font-size="10.00">src/d/d_bomb.cpp</text>
</a>
</g>
</g>
<!-- Node22&#45;&gt;Node23 -->
<g id="edge25" class="edge">
<title>Node22&#45;&gt;Node23</title>
<path fill="none" stroke="midnightblue" d="M374.99,-320.66C369.01,-308.13 361.28,-291.91 356.61,-282.13"/>
<polygon fill="midnightblue" stroke="midnightblue" points="371.86,-322.21 379.32,-329.73 378.17,-319.2 371.86,-322.21"/>
</g>
<!-- Node24&#45;&gt;Node12 -->
<g id="edge28" class="edge">
<title>Node24&#45;&gt;Node12</title>
<path fill="none" stroke="midnightblue" d="M522.74,-316.74C529.96,-308.09 538,-297.86 544.5,-288 559.77,-264.85 573.97,-235.22 580.59,-220.75"/>
<polygon fill="midnightblue" stroke="midnightblue" points="519.95,-314.61 516.13,-324.49 525.28,-319.15 519.95,-314.61"/>
</g>
<!-- Node25 -->
<g id="node25" class="node">
<title>Node25</title>
<g id="a_node25"><a xlink:href="d__particle__copoly_8cpp.html" target="_top" xlink:title=" ">
<polygon fill="white" stroke="black" points="417.5,-257.5 417.5,-287.5 535.5,-287.5 535.5,-257.5 417.5,-257.5"/>
<text text-anchor="start" x="425.5" y="-275.5" font-family="Helvetica,sans-Serif" font-size="10.00">src/d/particle/d_particle</text>
<text text-anchor="middle" x="476.5" y="-264.5" font-family="Helvetica,sans-Serif" font-size="10.00">_copoly.cpp</text>
</a>
</g>
</g>
<!-- Node24&#45;&gt;Node25 -->
<g id="edge27" class="edge">
<title>Node24&#45;&gt;Node25</title>
<path fill="none" stroke="midnightblue" d="M493.73,-314.99C489.92,-305.8 485.67,-295.58 482.35,-287.58"/>
<polygon fill="midnightblue" stroke="midnightblue" points="490.57,-316.5 497.64,-324.4 497.04,-313.82 490.57,-316.5"/>
</g>
<!-- Node27 -->
<g id="node27" class="node">
<title>Node27</title>
<g id="a_node27"><a xlink:href="d__bg__s__spl__grp__chk_8cpp.html" target="_top" xlink:title=" ">
<polygon fill="white" stroke="black" points="122.5,-458.5 122.5,-488.5 226.5,-488.5 226.5,-458.5 122.5,-458.5"/>
<text text-anchor="start" x="130.5" y="-476.5" font-family="Helvetica,sans-Serif" font-size="10.00">src/d/bg/d_bg_s_spl</text>
<text text-anchor="middle" x="174.5" y="-465.5" font-family="Helvetica,sans-Serif" font-size="10.00">_grp_chk.cpp</text>
</a>
</g>
</g>
<!-- Node26&#45;&gt;Node27 -->
<g id="edge30" class="edge">
<title>Node26&#45;&gt;Node27</title>
<path fill="none" stroke="midnightblue" d="M201.88,-516.87C195.8,-507.46 188.93,-496.83 183.6,-488.58"/>
<polygon fill="midnightblue" stroke="midnightblue" points="199.02,-518.9 207.39,-525.4 204.9,-515.1 199.02,-518.9"/>
</g>
<!-- Node28 -->
<g id="node28" class="node">
<title>Node28</title>
<g id="a_node28"><a xlink:href="d__bg__s__wtr__chk_8h.html" target="_top" xlink:title=" ">
<polygon fill="white" stroke="black" points="0.5,-458.5 0.5,-488.5 104.5,-488.5 104.5,-458.5 0.5,-458.5"/>
<text text-anchor="start" x="8.5" y="-476.5" font-family="Helvetica,sans-Serif" font-size="10.00">include/d/bg/d_bg_s</text>
<text text-anchor="middle" x="52.5" y="-465.5" font-family="Helvetica,sans-Serif" font-size="10.00">_wtr_chk.h</text>
</a>
</g>
</g>
<!-- Node26&#45;&gt;Node28 -->
<g id="edge31" class="edge">
<title>Node26&#45;&gt;Node28</title>
<path fill="none" stroke="midnightblue" d="M171.54,-521.68C145.24,-511.26 112.5,-498.28 88.02,-488.58"/>
<polygon fill="midnightblue" stroke="midnightblue" points="170.33,-524.97 180.91,-525.4 172.91,-518.46 170.33,-524.97"/>
</g>
<!-- Node28&#45;&gt;Node6 -->
<g id="edge33" class="edge">
<title>Node28&#45;&gt;Node6</title>
<path fill="none" stroke="midnightblue" d="M114.59,-457.84C200.23,-440.19 288.73,-424.98 343.36,-415.94"/>
<polygon fill="midnightblue" stroke="midnightblue" points="113.78,-454.43 104.7,-459.89 115.2,-461.28 113.78,-454.43"/>
</g>
<!-- Node29 -->
<g id="node29" class="node">
<title>Node29</title>
<g id="a_node29"><a xlink:href="d__bg__s__wtr__chk_8cpp.html" target="_top" xlink:title=" ">
<polygon fill="white" stroke="black" points="0,-391.5 0,-421.5 105,-421.5 105,-391.5 0,-391.5"/>
<text text-anchor="start" x="8" y="-409.5" font-family="Helvetica,sans-Serif" font-size="10.00">src/d/bg/d_bg_s_wtr</text>
<text text-anchor="middle" x="52.5" y="-398.5" font-family="Helvetica,sans-Serif" font-size="10.00">_chk.cpp</text>
</a>
</g>
</g>
<!-- Node28&#45;&gt;Node29 -->
<g id="edge32" class="edge">
<title>Node28&#45;&gt;Node29</title>
<path fill="none" stroke="midnightblue" d="M52.5,-448.11C52.5,-439.15 52.5,-429.32 52.5,-421.58"/>
<polygon fill="midnightblue" stroke="midnightblue" points="49,-448.4 52.5,-458.4 56,-448.4 49,-448.4"/>
</g>
<!-- Node30&#45;&gt;Node8 -->
<g id="edge40" class="edge">
<title>Node30&#45;&gt;Node8</title>
<path fill="none" stroke="midnightblue" d="M898.06,-515.5C902.74,-482.94 905.54,-424.96 874.5,-391 851.7,-366.06 762.18,-352.23 702.06,-345.59"/>
<polygon fill="midnightblue" stroke="midnightblue" points="894.58,-515.06 896.44,-525.5 901.49,-516.18 894.58,-515.06"/>
</g>
<!-- Node30&#45;&gt;Node10 -->
<g id="edge36" class="edge">
<title>Node30&#45;&gt;Node10</title>
<path fill="none" stroke="midnightblue" d="M978,-529.82C1031.66,-519.62 1087.1,-499.01 1064.5,-458 1007.63,-354.8 866.03,-301.32 803.27,-282.04"/>
<polygon fill="midnightblue" stroke="midnightblue" points="977.24,-526.4 968.02,-531.61 978.48,-533.29 977.24,-526.4"/>
</g>
<!-- Node31 -->
<g id="node31" class="node">
<title>Node31</title>
<g id="a_node31"><a xlink:href="c__bg__s__gnd__chk_8cpp.html" target="_top" xlink:title=" ">
<polygon fill="white" stroke="black" points="921.5,-458.5 921.5,-488.5 1055.5,-488.5 1055.5,-458.5 921.5,-458.5"/>
<text text-anchor="start" x="929.5" y="-476.5" font-family="Helvetica,sans-Serif" font-size="10.00">libs/SSystem/SComponent</text>
<text text-anchor="middle" x="988.5" y="-465.5" font-family="Helvetica,sans-Serif" font-size="10.00">/c_bg_s_gnd_chk.cpp</text>
</a>
</g>
</g>
<!-- Node30&#45;&gt;Node31 -->
<g id="edge35" class="edge">
<title>Node30&#45;&gt;Node31</title>
<path fill="none" stroke="midnightblue" d="M922.39,-519.73C937.09,-509.68 954.61,-497.68 967.93,-488.58"/>
<polygon fill="midnightblue" stroke="midnightblue" points="920.39,-516.86 914.11,-525.4 924.34,-522.64 920.39,-516.86"/>
</g>
<!-- Node32 -->
<g id="node32" class="node">
<title>Node32</title>
<g id="a_node32"><a xlink:href="d__bg__s__gnd__chk_8h.html" target="_top" xlink:title=" ">
<polygon fill="white" stroke="black" points="760.5,-458.5 760.5,-488.5 864.5,-488.5 864.5,-458.5 760.5,-458.5"/>
<text text-anchor="start" x="768.5" y="-476.5" font-family="Helvetica,sans-Serif" font-size="10.00">include/d/bg/d_bg_s</text>
<text text-anchor="middle" x="812.5" y="-465.5" font-family="Helvetica,sans-Serif" font-size="10.00">_gnd_chk.h</text>
</a>
</g>
</g>
<!-- Node30&#45;&gt;Node32 -->
<g id="edge37" class="edge">
<title>Node30&#45;&gt;Node32</title>
<path fill="none" stroke="midnightblue" d="M867.81,-518.88C855.5,-509.01 841.07,-497.43 830.04,-488.58"/>
<polygon fill="midnightblue" stroke="midnightblue" points="865.93,-521.87 875.92,-525.4 870.32,-516.41 865.93,-521.87"/>
</g>
<!-- Node32&#45;&gt;Node6 -->
<g id="edge39" class="edge">
<title>Node32&#45;&gt;Node6</title>
<path fill="none" stroke="midnightblue" d="M750.14,-462.78C667.86,-449.95 524.51,-427.61 447.68,-415.63"/>
<polygon fill="midnightblue" stroke="midnightblue" points="749.69,-466.25 760.11,-464.33 750.77,-459.34 749.69,-466.25"/>
</g>
<!-- Node33 -->
<g id="node33" class="node">
<title>Node33</title>
<g id="a_node33"><a xlink:href="d__bg__s__gnd__chk_8cpp.html" target="_top" xlink:title=" ">
<polygon fill="white" stroke="black" points="759,-391.5 759,-421.5 866,-421.5 866,-391.5 759,-391.5"/>
<text text-anchor="start" x="767" y="-409.5" font-family="Helvetica,sans-Serif" font-size="10.00">src/d/bg/d_bg_s_gnd</text>
<text text-anchor="middle" x="812.5" y="-398.5" font-family="Helvetica,sans-Serif" font-size="10.00">_chk.cpp</text>
</a>
</g>
</g>
<!-- Node32&#45;&gt;Node33 -->
<g id="edge38" class="edge">
<title>Node32&#45;&gt;Node33</title>
<path fill="none" stroke="midnightblue" d="M812.5,-448.11C812.5,-439.15 812.5,-429.32 812.5,-421.58"/>
<polygon fill="midnightblue" stroke="midnightblue" points="809,-448.4 812.5,-458.4 816,-448.4 809,-448.4"/>
</g>
<!-- Node34&#45;&gt;Node3 -->
<g id="edge42" class="edge">
<title>Node34&#45;&gt;Node3</title>
<path fill="none" stroke="midnightblue" d="M573.49,-520.99C551.78,-510.69 525.17,-498.07 505.17,-488.58"/>
<polygon fill="midnightblue" stroke="midnightblue" points="572.24,-524.27 582.77,-525.4 575.24,-517.95 572.24,-524.27"/>
</g>
<!-- Node34&#45;&gt;Node8 -->
<g id="edge47" class="edge">
<title>Node34&#45;&gt;Node8</title>
<path fill="none" stroke="midnightblue" d="M647.02,-519.43C657.51,-511.42 667.77,-501.17 673.5,-489 678.33,-478.74 678.86,-419.5 671.5,-391 667.46,-375.34 657.92,-359.02 651.59,-349.31"/>
<polygon fill="midnightblue" stroke="midnightblue" points="644.78,-516.73 638.64,-525.37 648.82,-522.44 644.78,-516.73"/>
</g>
<!-- Node34&#45;&gt;Node10 -->
<g id="edge43" class="edge">
<title>Node34&#45;&gt;Node10</title>
<path fill="none" stroke="midnightblue" d="M651.56,-520.37C665.03,-512.23 679.29,-501.65 689.5,-489 744.14,-421.3 765.78,-313.53 771.11,-282.27"/>
<polygon fill="midnightblue" stroke="midnightblue" points="649.8,-517.35 642.87,-525.37 653.29,-523.42 649.8,-517.35"/>
</g>
<!-- Node35 -->
<g id="node35" class="node">
<title>Node35</title>
<g id="a_node35"><a xlink:href="d__bg__s__lin__chk_8h.html" target="_top" xlink:title=" ">
<polygon fill="white" stroke="black" points="560.5,-458.5 560.5,-488.5 664.5,-488.5 664.5,-458.5 560.5,-458.5"/>
<text text-anchor="start" x="568.5" y="-476.5" font-family="Helvetica,sans-Serif" font-size="10.00">include/d/bg/d_bg_s</text>
<text text-anchor="middle" x="612.5" y="-465.5" font-family="Helvetica,sans-Serif" font-size="10.00">_lin_chk.h</text>
</a>
</g>
</g>
<!-- Node34&#45;&gt;Node35 -->
<g id="edge44" class="edge">
<title>Node34&#45;&gt;Node35</title>
<path fill="none" stroke="midnightblue" d="M612.5,-515.11C612.5,-506.15 612.5,-496.32 612.5,-488.58"/>
<polygon fill="midnightblue" stroke="midnightblue" points="609,-515.4 612.5,-525.4 616,-515.4 609,-515.4"/>
</g>
<!-- Node35&#45;&gt;Node6 -->
<g id="edge46" class="edge">
<title>Node35&#45;&gt;Node6</title>
<path fill="none" stroke="midnightblue" d="M556.01,-455.58C520.77,-445.02 475.93,-431.59 442.61,-421.61"/>
<polygon fill="midnightblue" stroke="midnightblue" points="555.1,-458.96 565.68,-458.48 557.11,-452.25 555.1,-458.96"/>
</g>
<!-- Node36 -->
<g id="node36" class="node">
<title>Node36</title>
<g id="a_node36"><a xlink:href="d__bg__s__lin__chk_8cpp.html" target="_top" xlink:title=" ">
<polygon fill="white" stroke="black" points="562,-391.5 562,-421.5 663,-421.5 663,-391.5 562,-391.5"/>
<text text-anchor="start" x="570" y="-409.5" font-family="Helvetica,sans-Serif" font-size="10.00">src/d/bg/d_bg_s_lin</text>
<text text-anchor="middle" x="612.5" y="-398.5" font-family="Helvetica,sans-Serif" font-size="10.00">_chk.cpp</text>
</a>
</g>
</g>
<!-- Node35&#45;&gt;Node36 -->
<g id="edge45" class="edge">
<title>Node35&#45;&gt;Node36</title>
<path fill="none" stroke="midnightblue" d="M612.5,-448.11C612.5,-439.15 612.5,-429.32 612.5,-421.58"/>
<polygon fill="midnightblue" stroke="midnightblue" points="609,-448.4 612.5,-458.4 616,-448.4 609,-448.4"/>
</g>
<!-- Node38 -->
<g id="node38" class="node">
<title>Node38</title>
<g id="a_node38"><a xlink:href="c__bg__s__shdw__draw_8cpp.html" target="_top" xlink:title=" ">
<polygon fill="white" stroke="black" points="1111.5,-458.5 1111.5,-488.5 1245.5,-488.5 1245.5,-458.5 1111.5,-458.5"/>
<text text-anchor="start" x="1119.5" y="-476.5" font-family="Helvetica,sans-Serif" font-size="10.00">libs/SSystem/SComponent</text>
<text text-anchor="middle" x="1178.5" y="-465.5" font-family="Helvetica,sans-Serif" font-size="10.00">/c_bg_s_shdw_draw.cpp</text>
</a>
</g>
</g>
<!-- Node37&#45;&gt;Node38 -->
<g id="edge49" class="edge">
<title>Node37&#45;&gt;Node38</title>
<path fill="none" stroke="midnightblue" d="M1139.25,-517.74C1147.98,-508.12 1158,-497.09 1165.72,-488.58"/>
<polygon fill="midnightblue" stroke="midnightblue" points="1136.43,-515.64 1132.3,-525.4 1141.61,-520.34 1136.43,-515.64"/>
</g>
</g>
</svg>
