<?xml version="1.0" encoding="UTF-8" standalone="no"?>
<!DOCTYPE svg PUBLIC "-//W3C//DTD SVG 1.1//EN"
 "http://www.w3.org/Graphics/SVG/1.1/DTD/svg11.dtd">
<!-- Generated by graphviz version 2.44.0 ()
 -->
<!-- Title: include/SSystem/SComponent/c_cc_s.h Pages: 1 -->
<svg width="798pt" height="307pt"
 viewBox="0.00 0.00 798.21 307.00" xmlns="http://www.w3.org/2000/svg" xmlns:xlink="http://www.w3.org/1999/xlink">
<g id="graph0" class="graph" transform="scale(1 1) rotate(0) translate(4 303)">
<title>include/SSystem/SComponent/c_cc_s.h</title>
<polygon fill="white" stroke="transparent" points="-4,4 -4,-303 794.21,-303 794.21,4 -4,4"/>
<!-- Node1 -->
<g id="node1" class="node">
<title>Node1</title>
<g id="a_node1"><a xlink:title=" ">
<polygon fill="#bfbfbf" stroke="black" points="192.21,-268.5 192.21,-298.5 341.21,-298.5 341.21,-268.5 192.21,-268.5"/>
<text text-anchor="start" x="200.21" y="-286.5" font-family="Helvetica,sans-Serif" font-size="10.00">include/SSystem/SComponent</text>
<text text-anchor="middle" x="266.71" y="-275.5" font-family="Helvetica,sans-Serif" font-size="10.00">/c_cc_s.h</text>
</a>
</g>
</g>
<!-- Node2 -->
<g id="node2" class="node">
<title>Node2</title>
<g id="a_node2"><a xlink:href="c__cc__s_8cpp.html" target="_top" xlink:title=" ">
<polygon fill="white" stroke="black" points="129.71,-201.5 129.71,-231.5 263.71,-231.5 263.71,-201.5 129.71,-201.5"/>
<text text-anchor="start" x="137.71" y="-219.5" font-family="Helvetica,sans-Serif" font-size="10.00">libs/SSystem/SComponent</text>
<text text-anchor="middle" x="196.71" y="-208.5" font-family="Helvetica,sans-Serif" font-size="10.00">/c_cc_s.cpp</text>
</a>
</g>
</g>
<!-- Node1&#45;&gt;Node2 -->
<g id="edge1" class="edge">
<title>Node1&#45;&gt;Node2</title>
<path fill="none" stroke="midnightblue" d="M243.89,-261.31C233.39,-251.56 221.22,-240.26 211.87,-231.58"/>
<polygon fill="midnightblue" stroke="midnightblue" points="241.81,-264.16 251.52,-268.4 246.57,-259.03 241.81,-264.16"/>
</g>
<!-- Node3 -->
<g id="node3" class="node">
<title>Node3</title>
<g id="a_node3"><a xlink:href="d__cc__s_8h.html" target="_top" xlink:title=" ">
<polygon fill="white" stroke="black" points="282.21,-207 282.21,-226 393.21,-226 393.21,-207 282.21,-207"/>
<text text-anchor="middle" x="337.71" y="-214" font-family="Helvetica,sans-Serif" font-size="10.00">include/d/cc/d_cc_s.h</text>
</a>
</g>
</g>
<!-- Node1&#45;&gt;Node3 -->
<g id="edge2" class="edge">
<title>Node1&#45;&gt;Node3</title>
<path fill="none" stroke="midnightblue" d="M289.83,-261.34C302.86,-249.4 318.44,-235.14 328.21,-226.19"/>
<polygon fill="midnightblue" stroke="midnightblue" points="287.13,-259.06 282.11,-268.4 291.85,-264.22 287.13,-259.06"/>
</g>
<!-- Node4 -->
<g id="node4" class="node">
<title>Node4</title>
<g id="a_node4"><a xlink:href="d__com__inf__game_8h.html" target="_top" xlink:title=" ">
<polygon fill="white" stroke="black" points="282.71,-134.5 282.71,-164.5 392.71,-164.5 392.71,-134.5 282.71,-134.5"/>
<text text-anchor="start" x="290.71" y="-152.5" font-family="Helvetica,sans-Serif" font-size="10.00">include/d/com/d_com</text>
<text text-anchor="middle" x="337.71" y="-141.5" font-family="Helvetica,sans-Serif" font-size="10.00">_inf_game.h</text>
</a>
</g>
</g>
<!-- Node3&#45;&gt;Node4 -->
<g id="edge3" class="edge">
<title>Node3&#45;&gt;Node4</title>
<path fill="none" stroke="midnightblue" d="M337.71,-196.41C337.71,-186.22 337.71,-173.9 337.71,-164.59"/>
<polygon fill="midnightblue" stroke="midnightblue" points="334.21,-196.73 337.71,-206.73 341.21,-196.73 334.21,-196.73"/>
</g>
<!-- Node5 -->
<g id="node5" class="node">
<title>Node5</title>
<g id="a_node5"><a xlink:href="d__com__inf__game_8cpp.html" target="_top" xlink:title=" ">
<polygon fill="white" stroke="black" points="252.71,-0.5 252.71,-30.5 360.71,-30.5 360.71,-0.5 252.71,-0.5"/>
<text text-anchor="start" x="260.71" y="-18.5" font-family="Helvetica,sans-Serif" font-size="10.00">src/d/com/d_com_inf</text>
<text text-anchor="middle" x="306.71" y="-7.5" font-family="Helvetica,sans-Serif" font-size="10.00">_game.cpp</text>
</a>
</g>
</g>
<!-- Node4&#45;&gt;Node5 -->
<g id="edge4" class="edge">
<title>Node4&#45;&gt;Node5</title>
<path fill="none" stroke="midnightblue" d="M272.25,-148.19C185.72,-146.23 40.24,-137.04 6.71,-98 -2.27,-87.55 -2.19,-77.52 6.71,-67 37.57,-30.5 174.76,-20.37 252.5,-17.57"/>
<polygon fill="midnightblue" stroke="midnightblue" points="272.44,-151.7 282.5,-148.4 272.57,-144.7 272.44,-151.7"/>
</g>
<!-- Node6 -->
<g id="node6" class="node">
<title>Node6</title>
<g id="a_node6"><a xlink:href="d__a__alink_8cpp.html" target="_top" xlink:title=" ">
<polygon fill="white" stroke="black" points="16.21,-73 16.21,-92 125.21,-92 125.21,-73 16.21,-73"/>
<text text-anchor="middle" x="70.71" y="-80" font-family="Helvetica,sans-Serif" font-size="10.00">src/d/a/d_a_alink.cpp</text>
</a>
</g>
</g>
<!-- Node4&#45;&gt;Node6 -->
<g id="edge5" class="edge">
<title>Node4&#45;&gt;Node6</title>
<path fill="none" stroke="midnightblue" d="M272.49,-132.62C220.01,-119.85 148.27,-102.38 105.98,-92.09"/>
<polygon fill="midnightblue" stroke="midnightblue" points="271.84,-136.07 282.39,-135.03 273.5,-129.27 271.84,-136.07"/>
</g>
<!-- Node7 -->
<g id="node7" class="node">
<title>Node7</title>
<g id="a_node7"><a xlink:href="d__event_8cpp.html" target="_top" xlink:title=" ">
<polygon fill="white" stroke="black" points="143.21,-73 143.21,-92 264.21,-92 264.21,-73 143.21,-73"/>
<text text-anchor="middle" x="203.71" y="-80" font-family="Helvetica,sans-Serif" font-size="10.00">src/d/event/d_event.cpp</text>
</a>
</g>
</g>
<!-- Node4&#45;&gt;Node7 -->
<g id="edge6" class="edge">
<title>Node4&#45;&gt;Node7</title>
<path fill="none" stroke="midnightblue" d="M299.5,-129.97C273.76,-117.48 241.02,-101.6 221.25,-92.01"/>
<polygon fill="midnightblue" stroke="midnightblue" points="298.11,-133.18 308.63,-134.4 301.16,-126.88 298.11,-133.18"/>
</g>
<!-- Node8 -->
<g id="node8" class="node">
<title>Node8</title>
<g id="a_node8"><a xlink:href="d__meter2__info_8cpp.html" target="_top" xlink:title=" ">
<polygon fill="white" stroke="black" points="282.71,-67.5 282.71,-97.5 392.71,-97.5 392.71,-67.5 282.71,-67.5"/>
<text text-anchor="start" x="290.71" y="-85.5" font-family="Helvetica,sans-Serif" font-size="10.00">src/d/meter/d_meter2</text>
<text text-anchor="middle" x="337.71" y="-74.5" font-family="Helvetica,sans-Serif" font-size="10.00">_info.cpp</text>
</a>
</g>
</g>
<!-- Node4&#45;&gt;Node8 -->
<g id="edge7" class="edge">
<title>Node4&#45;&gt;Node8</title>
<path fill="none" stroke="midnightblue" d="M337.71,-124.11C337.71,-115.15 337.71,-105.32 337.71,-97.58"/>
<polygon fill="midnightblue" stroke="midnightblue" points="334.21,-124.4 337.71,-134.4 341.21,-124.4 334.21,-124.4"/>
</g>
<!-- Node9 -->
<g id="node9" class="node">
<title>Node9</title>
<g id="a_node9"><a xlink:href="d__msg__flow_8cpp.html" target="_top" xlink:title=" ">
<polygon fill="white" stroke="black" points="411.21,-73 411.21,-92 544.21,-92 544.21,-73 411.21,-73"/>
<text text-anchor="middle" x="477.71" y="-80" font-family="Helvetica,sans-Serif" font-size="10.00">src/d/msg/d_msg_flow.cpp</text>
</a>
</g>
</g>
<!-- Node4&#45;&gt;Node9 -->
<g id="edge8" class="edge">
<title>Node4&#45;&gt;Node9</title>
<path fill="none" stroke="midnightblue" d="M377.27,-130.13C404.22,-117.62 438.64,-101.64 459.39,-92.01"/>
<polygon fill="midnightblue" stroke="midnightblue" points="375.68,-127.01 368.09,-134.4 378.63,-133.36 375.68,-127.01"/>
</g>
<!-- Node10 -->
<g id="node10" class="node">
<title>Node10</title>
<g id="a_node10"><a xlink:href="d__save_8cpp.html" target="_top" xlink:title=" ">
<polygon fill="white" stroke="black" points="562.21,-73 562.21,-92 677.21,-92 677.21,-73 562.21,-73"/>
<text text-anchor="middle" x="619.71" y="-80" font-family="Helvetica,sans-Serif" font-size="10.00">src/d/save/d_save.cpp</text>
</a>
</g>
</g>
<!-- Node4&#45;&gt;Node10 -->
<g id="edge9" class="edge">
<title>Node4&#45;&gt;Node10</title>
<path fill="none" stroke="midnightblue" d="M402.55,-133.55C458.41,-120.68 537.05,-102.55 582.77,-92.01"/>
<polygon fill="midnightblue" stroke="midnightblue" points="401.71,-130.16 392.75,-135.81 403.28,-136.98 401.71,-130.16"/>
</g>
<!-- Node11 -->
<g id="node11" class="node">
<title>Node11</title>
<g id="a_node11"><a xlink:href="d__item_8h.html" target="_top" xlink:title=" ">
<polygon fill="white" stroke="black" points="695.21,-73 695.21,-92 790.21,-92 790.21,-73 695.21,-73"/>
<text text-anchor="middle" x="742.71" y="-80" font-family="Helvetica,sans-Serif" font-size="10.00">include/d/d_item.h</text>
</a>
</g>
</g>
<!-- Node4&#45;&gt;Node11 -->
<g id="edge10" class="edge">
<title>Node4&#45;&gt;Node11</title>
<path fill="none" stroke="midnightblue" d="M402.89,-141.12C473.07,-132.68 587.84,-117.49 685.71,-98 694.12,-96.32 703.15,-94.19 711.48,-92.07"/>
<polygon fill="midnightblue" stroke="midnightblue" points="402.38,-137.65 392.86,-142.31 403.21,-144.6 402.38,-137.65"/>
</g>
<!-- Node11&#45;&gt;Node5 -->
<g id="edge11" class="edge">
<title>Node11&#45;&gt;Node5</title>
<path fill="none" stroke="midnightblue" d="M701.68,-70.46C696.33,-69.19 690.9,-68 685.71,-67 571,-44.85 434.88,-29.28 361,-21.72"/>
<polygon fill="midnightblue" stroke="midnightblue" points="701.25,-73.95 711.79,-72.94 702.92,-67.16 701.25,-73.95"/>
</g>
<!-- Node12 -->
<g id="node12" class="node">
<title>Node12</title>
<g id="a_node12"><a xlink:href="d__item_8cpp.html" target="_top" xlink:title=" ">
<polygon fill="white" stroke="black" points="698.21,-6 698.21,-25 787.21,-25 787.21,-6 698.21,-6"/>
<text text-anchor="middle" x="742.71" y="-13" font-family="Helvetica,sans-Serif" font-size="10.00">src/d/d_item.cpp</text>
</a>
</g>
</g>
<!-- Node11&#45;&gt;Node12 -->
<g id="edge12" class="edge">
<title>Node11&#45;&gt;Node12</title>
<path fill="none" stroke="midnightblue" d="M742.71,-62.54C742.71,-50.17 742.71,-34.62 742.71,-25.13"/>
<polygon fill="midnightblue" stroke="midnightblue" points="739.21,-62.73 742.71,-72.73 746.21,-62.73 739.21,-62.73"/>
</g>
</g>
</svg>
