<?xml version="1.0" encoding="UTF-8" standalone="no"?>
<!DOCTYPE svg PUBLIC "-//W3C//DTD SVG 1.1//EN"
 "http://www.w3.org/Graphics/SVG/1.1/DTD/svg11.dtd">
<!-- Generated by graphviz version 2.44.0 ()
 -->
<!-- Title: include/SSystem/SComponent/c_list_iter.h Pages: 1 -->
<svg width="1461pt" height="821pt"
 viewBox="0.00 0.00 1461.00 821.00" xmlns="http://www.w3.org/2000/svg" xmlns:xlink="http://www.w3.org/1999/xlink">
<g id="graph0" class="graph" transform="scale(1 1) rotate(0) translate(4 817)">
<title>include/SSystem/SComponent/c_list_iter.h</title>
<polygon fill="white" stroke="transparent" points="-4,4 -4,-817 1457,-817 1457,4 -4,4"/>
<!-- Node1 -->
<g id="node1" class="node">
<title>Node1</title>
<g id="a_node1"><a xlink:title=" ">
<polygon fill="#bfbfbf" stroke="black" points="379,-782.5 379,-812.5 528,-812.5 528,-782.5 379,-782.5"/>
<text text-anchor="start" x="387" y="-800.5" font-family="Helvetica,sans-Serif" font-size="10.00">include/SSystem/SComponent</text>
<text text-anchor="middle" x="453.5" y="-789.5" font-family="Helvetica,sans-Serif" font-size="10.00">/c_list_iter.h</text>
</a>
</g>
</g>
<!-- Node2 -->
<g id="node2" class="node">
<title>Node2</title>
<g id="a_node2"><a xlink:href="f__op__actor__iter_8cpp.html" target="_top" xlink:title=" ">
<polygon fill="white" stroke="black" points="0,-715.5 0,-745.5 101,-745.5 101,-715.5 0,-715.5"/>
<text text-anchor="start" x="8" y="-733.5" font-family="Helvetica,sans-Serif" font-size="10.00">src/f_op/f_op_actor</text>
<text text-anchor="middle" x="50.5" y="-722.5" font-family="Helvetica,sans-Serif" font-size="10.00">_iter.cpp</text>
</a>
</g>
</g>
<!-- Node1&#45;&gt;Node2 -->
<g id="edge1" class="edge">
<title>Node1&#45;&gt;Node2</title>
<path fill="none" stroke="midnightblue" d="M368.59,-786.32C298.74,-777.4 197.3,-763.19 109.5,-746 106.81,-745.47 104.06,-744.9 101.28,-744.31"/>
<polygon fill="midnightblue" stroke="midnightblue" points="368.31,-789.82 378.67,-787.6 369.19,-782.87 368.31,-789.82"/>
</g>
<!-- Node3 -->
<g id="node3" class="node">
<title>Node3</title>
<g id="a_node3"><a xlink:href="f__op__scene__iter_8cpp.html" target="_top" xlink:title=" ">
<polygon fill="white" stroke="black" points="119,-715.5 119,-745.5 224,-745.5 224,-715.5 119,-715.5"/>
<text text-anchor="start" x="127" y="-733.5" font-family="Helvetica,sans-Serif" font-size="10.00">src/f_op/f_op_scene</text>
<text text-anchor="middle" x="171.5" y="-722.5" font-family="Helvetica,sans-Serif" font-size="10.00">_iter.cpp</text>
</a>
</g>
</g>
<!-- Node1&#45;&gt;Node3 -->
<g id="edge2" class="edge">
<title>Node1&#45;&gt;Node3</title>
<path fill="none" stroke="midnightblue" d="M382.03,-780.17C338.99,-770.32 283.08,-757.49 233.5,-746 230.48,-745.3 227.39,-744.58 224.26,-743.85"/>
<polygon fill="midnightblue" stroke="midnightblue" points="381.32,-783.6 391.84,-782.42 382.88,-776.78 381.32,-783.6"/>
</g>
<!-- Node4 -->
<g id="node4" class="node">
<title>Node4</title>
<g id="a_node4"><a xlink:href="f__pc__deletor_8cpp.html" target="_top" xlink:title=" ">
<polygon fill="white" stroke="black" points="242.5,-721 242.5,-740 368.5,-740 368.5,-721 242.5,-721"/>
<text text-anchor="middle" x="305.5" y="-728" font-family="Helvetica,sans-Serif" font-size="10.00">src/f_pc/f_pc_deletor.cpp</text>
</a>
</g>
</g>
<!-- Node1&#45;&gt;Node4 -->
<g id="edge3" class="edge">
<title>Node1&#45;&gt;Node4</title>
<path fill="none" stroke="midnightblue" d="M412.05,-778.3C383.51,-765.76 346.9,-749.68 324.87,-740.01"/>
<polygon fill="midnightblue" stroke="midnightblue" points="410.82,-781.58 421.39,-782.4 413.64,-775.17 410.82,-781.58"/>
</g>
<!-- Node5 -->
<g id="node5" class="node">
<title>Node5</title>
<g id="a_node5"><a xlink:href="c__list__iter_8cpp.html" target="_top" xlink:title=" ">
<polygon fill="white" stroke="black" points="386.5,-715.5 386.5,-745.5 520.5,-745.5 520.5,-715.5 386.5,-715.5"/>
<text text-anchor="start" x="394.5" y="-733.5" font-family="Helvetica,sans-Serif" font-size="10.00">libs/SSystem/SComponent</text>
<text text-anchor="middle" x="453.5" y="-722.5" font-family="Helvetica,sans-Serif" font-size="10.00">/c_list_iter.cpp</text>
</a>
</g>
</g>
<!-- Node1&#45;&gt;Node5 -->
<g id="edge4" class="edge">
<title>Node1&#45;&gt;Node5</title>
<path fill="none" stroke="midnightblue" d="M453.5,-772.11C453.5,-763.15 453.5,-753.32 453.5,-745.58"/>
<polygon fill="midnightblue" stroke="midnightblue" points="450,-772.4 453.5,-782.4 457,-772.4 450,-772.4"/>
</g>
<!-- Node6 -->
<g id="node6" class="node">
<title>Node6</title>
<g id="a_node6"><a xlink:href="c__tree__iter_8cpp.html" target="_top" xlink:title=" ">
<polygon fill="white" stroke="black" points="538.5,-715.5 538.5,-745.5 672.5,-745.5 672.5,-715.5 538.5,-715.5"/>
<text text-anchor="start" x="546.5" y="-733.5" font-family="Helvetica,sans-Serif" font-size="10.00">libs/SSystem/SComponent</text>
<text text-anchor="middle" x="605.5" y="-722.5" font-family="Helvetica,sans-Serif" font-size="10.00">/c_tree_iter.cpp</text>
</a>
</g>
</g>
<!-- Node1&#45;&gt;Node6 -->
<g id="edge5" class="edge">
<title>Node1&#45;&gt;Node6</title>
<path fill="none" stroke="midnightblue" d="M495.81,-778.41C520.08,-768.03 550.09,-755.2 572.58,-745.58"/>
<polygon fill="midnightblue" stroke="midnightblue" points="494.3,-775.25 486.48,-782.4 497.05,-781.68 494.3,-775.25"/>
</g>
<!-- Node7 -->
<g id="node7" class="node">
<title>Node7</title>
<g id="a_node7"><a xlink:href="f__pc__create__iter_8h.html" target="_top" xlink:title=" ">
<polygon fill="white" stroke="black" points="691,-715.5 691,-745.5 814,-745.5 814,-715.5 691,-715.5"/>
<text text-anchor="start" x="699" y="-733.5" font-family="Helvetica,sans-Serif" font-size="10.00">include/f_pc/f_pc_create</text>
<text text-anchor="middle" x="752.5" y="-722.5" font-family="Helvetica,sans-Serif" font-size="10.00">_iter.h</text>
</a>
</g>
</g>
<!-- Node1&#45;&gt;Node7 -->
<g id="edge6" class="edge">
<title>Node1&#45;&gt;Node7</title>
<path fill="none" stroke="midnightblue" d="M527.84,-780.34C578.07,-769.42 643.6,-755.17 690.92,-744.89"/>
<polygon fill="midnightblue" stroke="midnightblue" points="527.04,-776.93 518.01,-782.48 528.53,-783.77 527.04,-776.93"/>
</g>
<!-- Node49 -->
<g id="node48" class="node">
<title>Node49</title>
<g id="a_node48"><a xlink:href="f__pc__method__iter_8h.html" target="_top" xlink:title=" ">
<polygon fill="white" stroke="black" points="934.5,-715.5 934.5,-745.5 1062.5,-745.5 1062.5,-715.5 934.5,-715.5"/>
<text text-anchor="start" x="942.5" y="-733.5" font-family="Helvetica,sans-Serif" font-size="10.00">include/f_pc/f_pc_method</text>
<text text-anchor="middle" x="998.5" y="-722.5" font-family="Helvetica,sans-Serif" font-size="10.00">_iter.h</text>
</a>
</g>
</g>
<!-- Node1&#45;&gt;Node49 -->
<g id="edge66" class="edge">
<title>Node1&#45;&gt;Node49</title>
<path fill="none" stroke="midnightblue" d="M538.15,-786.4C647.54,-773.36 835.61,-750.93 934.1,-739.18"/>
<polygon fill="midnightblue" stroke="midnightblue" points="537.65,-782.94 528.14,-787.6 538.48,-789.89 537.65,-782.94"/>
</g>
<!-- Node8 -->
<g id="node8" class="node">
<title>Node8</title>
<g id="a_node8"><a xlink:href="f__pc__create__iter_8cpp.html" target="_top" xlink:title=" ">
<polygon fill="white" stroke="black" points="494.5,-648.5 494.5,-678.5 600.5,-678.5 600.5,-648.5 494.5,-648.5"/>
<text text-anchor="start" x="502.5" y="-666.5" font-family="Helvetica,sans-Serif" font-size="10.00">src/f_pc/f_pc_create</text>
<text text-anchor="middle" x="547.5" y="-655.5" font-family="Helvetica,sans-Serif" font-size="10.00">_iter.cpp</text>
</a>
</g>
</g>
<!-- Node7&#45;&gt;Node8 -->
<g id="edge7" class="edge">
<title>Node7&#45;&gt;Node8</title>
<path fill="none" stroke="midnightblue" d="M698.71,-712.44C665.48,-701.91 623.35,-688.55 592,-678.61"/>
<polygon fill="midnightblue" stroke="midnightblue" points="697.68,-715.79 708.27,-715.48 699.8,-709.12 697.68,-715.79"/>
</g>
<!-- Node9 -->
<g id="node9" class="node">
<title>Node9</title>
<g id="a_node9"><a xlink:href="f__pc__create__req_8cpp.html" target="_top" xlink:title=" ">
<polygon fill="white" stroke="black" points="618.5,-648.5 618.5,-678.5 724.5,-678.5 724.5,-648.5 618.5,-648.5"/>
<text text-anchor="start" x="626.5" y="-666.5" font-family="Helvetica,sans-Serif" font-size="10.00">src/f_pc/f_pc_create</text>
<text text-anchor="middle" x="671.5" y="-655.5" font-family="Helvetica,sans-Serif" font-size="10.00">_req.cpp</text>
</a>
</g>
</g>
<!-- Node7&#45;&gt;Node9 -->
<g id="edge8" class="edge">
<title>Node7&#45;&gt;Node9</title>
<path fill="none" stroke="midnightblue" d="M726.81,-708.88C714.5,-699.01 700.07,-687.43 689.04,-678.58"/>
<polygon fill="midnightblue" stroke="midnightblue" points="724.93,-711.87 734.92,-715.4 729.32,-706.41 724.93,-711.87"/>
</g>
<!-- Node10 -->
<g id="node10" class="node">
<title>Node10</title>
<g id="a_node10"><a xlink:href="f__pc__manager_8cpp.html" target="_top" xlink:title=" ">
<polygon fill="white" stroke="black" points="640.5,-587 640.5,-606 774.5,-606 774.5,-587 640.5,-587"/>
<text text-anchor="middle" x="707.5" y="-594" font-family="Helvetica,sans-Serif" font-size="10.00">src/f_pc/f_pc_manager.cpp</text>
</a>
</g>
</g>
<!-- Node7&#45;&gt;Node10 -->
<g id="edge9" class="edge">
<title>Node7&#45;&gt;Node10</title>
<path fill="none" stroke="midnightblue" d="M748.51,-705.44C745.38,-688.97 740.41,-666.79 733.5,-648 727.85,-632.64 718.6,-615.96 712.79,-606.14"/>
<polygon fill="midnightblue" stroke="midnightblue" points="745.07,-706.13 750.29,-715.35 751.96,-704.89 745.07,-706.13"/>
</g>
<!-- Node11 -->
<g id="node11" class="node">
<title>Node11</title>
<g id="a_node11"><a xlink:href="f__pc__manager_8h.html" target="_top" xlink:title=" ">
<polygon fill="white" stroke="black" points="781,-654 781,-673 922,-673 922,-654 781,-654"/>
<text text-anchor="middle" x="851.5" y="-661" font-family="Helvetica,sans-Serif" font-size="10.00">include/f_pc/f_pc_manager.h</text>
</a>
</g>
</g>
<!-- Node7&#45;&gt;Node11 -->
<g id="edge10" class="edge">
<title>Node7&#45;&gt;Node11</title>
<path fill="none" stroke="midnightblue" d="M782.49,-709.81C801.22,-697.51 824.38,-682.3 838.54,-673.01"/>
<polygon fill="midnightblue" stroke="midnightblue" points="780.42,-706.98 773.98,-715.4 784.26,-712.83 780.42,-706.98"/>
</g>
<!-- Node11&#45;&gt;Node10 -->
<g id="edge13" class="edge">
<title>Node11&#45;&gt;Node10</title>
<path fill="none" stroke="midnightblue" d="M822.95,-649.61C794.43,-636.74 751.38,-617.31 726.7,-606.17"/>
<polygon fill="midnightblue" stroke="midnightblue" points="821.82,-652.94 832.38,-653.87 824.7,-646.56 821.82,-652.94"/>
</g>
<!-- Node12 -->
<g id="node12" class="node">
<title>Node12</title>
<g id="a_node12"><a xlink:href="f__op__overlap__req_8cpp.html" target="_top" xlink:title=" ">
<polygon fill="white" stroke="black" points="928.5,-581.5 928.5,-611.5 1038.5,-611.5 1038.5,-581.5 928.5,-581.5"/>
<text text-anchor="start" x="936.5" y="-599.5" font-family="Helvetica,sans-Serif" font-size="10.00">src/f_op/f_op_overlap</text>
<text text-anchor="middle" x="983.5" y="-588.5" font-family="Helvetica,sans-Serif" font-size="10.00">_req.cpp</text>
</a>
</g>
</g>
<!-- Node11&#45;&gt;Node12 -->
<g id="edge11" class="edge">
<title>Node11&#45;&gt;Node12</title>
<path fill="none" stroke="midnightblue" d="M878.22,-649.34C900.44,-638.4 932,-622.86 954.76,-611.65"/>
<polygon fill="midnightblue" stroke="midnightblue" points="876.45,-646.31 869.03,-653.87 879.55,-652.59 876.45,-646.31"/>
</g>
<!-- Node13 -->
<g id="node13" class="node">
<title>Node13</title>
<g id="a_node13"><a xlink:href="f__op__scene__pause_8cpp.html" target="_top" xlink:title=" ">
<polygon fill="white" stroke="black" points="1057,-581.5 1057,-611.5 1162,-611.5 1162,-581.5 1057,-581.5"/>
<text text-anchor="start" x="1065" y="-599.5" font-family="Helvetica,sans-Serif" font-size="10.00">src/f_op/f_op_scene</text>
<text text-anchor="middle" x="1109.5" y="-588.5" font-family="Helvetica,sans-Serif" font-size="10.00">_pause.cpp</text>
</a>
</g>
</g>
<!-- Node11&#45;&gt;Node13 -->
<g id="edge12" class="edge">
<title>Node11&#45;&gt;Node13</title>
<path fill="none" stroke="midnightblue" d="M895.45,-651.43C940.03,-640.2 1009.06,-622.8 1056.61,-610.82"/>
<polygon fill="midnightblue" stroke="midnightblue" points="894.34,-648.1 885.49,-653.94 896.05,-654.89 894.34,-648.1"/>
</g>
<!-- Node14 -->
<g id="node14" class="node">
<title>Node14</title>
<g id="a_node14"><a xlink:href="f__op__actor__mng_8h.html" target="_top" xlink:title=" ">
<polygon fill="white" stroke="black" points="792.5,-581.5 792.5,-611.5 910.5,-611.5 910.5,-581.5 792.5,-581.5"/>
<text text-anchor="start" x="800.5" y="-599.5" font-family="Helvetica,sans-Serif" font-size="10.00">include/f_op/f_op_actor</text>
<text text-anchor="middle" x="851.5" y="-588.5" font-family="Helvetica,sans-Serif" font-size="10.00">_mng.h</text>
</a>
</g>
</g>
<!-- Node11&#45;&gt;Node14 -->
<g id="edge14" class="edge">
<title>Node11&#45;&gt;Node14</title>
<path fill="none" stroke="midnightblue" d="M851.5,-643.41C851.5,-633.22 851.5,-620.9 851.5,-611.59"/>
<polygon fill="midnightblue" stroke="midnightblue" points="848,-643.73 851.5,-653.73 855,-643.73 848,-643.73"/>
</g>
<!-- Node15 -->
<g id="node15" class="node">
<title>Node15</title>
<g id="a_node15"><a xlink:href="d__a__player_8cpp.html" target="_top" xlink:title=" ">
<polygon fill="white" stroke="black" points="403.5,-397 403.5,-416 517.5,-416 517.5,-397 403.5,-397"/>
<text text-anchor="middle" x="460.5" y="-404" font-family="Helvetica,sans-Serif" font-size="10.00">src/d/a/d_a_player.cpp</text>
</a>
</g>
</g>
<!-- Node14&#45;&gt;Node15 -->
<g id="edge15" class="edge">
<title>Node14&#45;&gt;Node15</title>
<path fill="none" stroke="midnightblue" d="M782.52,-579.07C697.75,-557.94 559.93,-520.24 517.5,-489 490.52,-469.14 471.7,-432.58 464.16,-416.03"/>
<polygon fill="midnightblue" stroke="midnightblue" points="781.78,-582.49 792.33,-581.5 783.47,-575.7 781.78,-582.49"/>
</g>
<!-- Node16 -->
<g id="node16" class="node">
<title>Node16</title>
<g id="a_node16"><a xlink:href="d__cc__d__nonmatching_8cpp.html" target="_top" xlink:title=" ">
<polygon fill="white" stroke="black" points="1288,-525.5 1288,-544.5 1453,-544.5 1453,-525.5 1288,-525.5"/>
<text text-anchor="middle" x="1370.5" y="-532.5" font-family="Helvetica,sans-Serif" font-size="10.00">src/d/cc/d_cc_d_nonmatching.cpp</text>
</a>
</g>
</g>
<!-- Node14&#45;&gt;Node16 -->
<g id="edge16" class="edge">
<title>Node14&#45;&gt;Node16</title>
<path fill="none" stroke="midnightblue" d="M920.94,-581C981.03,-572.98 1174.83,-554.41 1287.61,-543.77"/>
<polygon fill="midnightblue" stroke="midnightblue" points="920.17,-577.57 910.77,-582.46 921.16,-584.5 920.17,-577.57"/>
</g>
<!-- Node17 -->
<g id="node17" class="node">
<title>Node17</title>
<g id="a_node17"><a xlink:href="d__bomb_8cpp.html" target="_top" xlink:title=" ">
<polygon fill="white" stroke="black" points="119.5,-263 119.5,-282 213.5,-282 213.5,-263 119.5,-263"/>
<text text-anchor="middle" x="166.5" y="-270" font-family="Helvetica,sans-Serif" font-size="10.00">src/d/d_bomb.cpp</text>
</a>
</g>
</g>
<!-- Node14&#45;&gt;Node17 -->
<g id="edge17" class="edge">
<title>Node14&#45;&gt;Node17</title>
<path fill="none" stroke="midnightblue" d="M782.19,-581C615.86,-556.38 120.5,-620.66 120.5,-474.5 120.5,-474.5 120.5,-474.5 120.5,-405.5 120.5,-368.31 126.4,-358.81 139.5,-324 145.31,-308.55 154.94,-291.91 160.99,-282.11"/>
<polygon fill="midnightblue" stroke="midnightblue" points="781.76,-584.48 792.2,-582.67 782.91,-577.57 781.76,-584.48"/>
</g>
<!-- Node18 -->
<g id="node18" class="node">
<title>Node18</title>
<g id="a_node18"><a xlink:href="d__a__alink_8cpp.html" target="_top" xlink:title=" ">
<polygon fill="white" stroke="black" points="346,-73 346,-92 455,-92 455,-73 346,-73"/>
<text text-anchor="middle" x="400.5" y="-80" font-family="Helvetica,sans-Serif" font-size="10.00">src/d/a/d_a_alink.cpp</text>
</a>
</g>
</g>
<!-- Node14&#45;&gt;Node18 -->
<g id="edge18" class="edge">
<title>Node14&#45;&gt;Node18</title>
<path fill="none" stroke="midnightblue" d="M782.3,-581.09C626.74,-564 269.64,-605.89 144.5,-545 106.98,-526.74 82.5,-516.23 82.5,-474.5 82.5,-474.5 82.5,-474.5 82.5,-210 82.5,-152.37 265.12,-109.44 353.58,-92.02"/>
<polygon fill="midnightblue" stroke="midnightblue" points="781.91,-584.57 792.26,-582.31 782.75,-577.62 781.91,-584.57"/>
</g>
<!-- Node19 -->
<g id="node19" class="node">
<title>Node19</title>
<g id="a_node19"><a xlink:href="d__event_8cpp.html" target="_top" xlink:title=" ">
<polygon fill="white" stroke="black" points="1038,-73 1038,-92 1159,-92 1159,-73 1038,-73"/>
<text text-anchor="middle" x="1098.5" y="-80" font-family="Helvetica,sans-Serif" font-size="10.00">src/d/event/d_event.cpp</text>
</a>
</g>
</g>
<!-- Node14&#45;&gt;Node19 -->
<g id="edge19" class="edge">
<title>Node14&#45;&gt;Node19</title>
<path fill="none" stroke="midnightblue" d="M920.41,-579.99C1016.23,-557.86 1184.28,-516.82 1240.5,-489 1250.02,-484.29 1259.5,-485.12 1259.5,-474.5 1259.5,-474.5 1259.5,-474.5 1259.5,-210 1259.5,-144.24 1175.42,-107.46 1128.78,-92.12"/>
<polygon fill="midnightblue" stroke="midnightblue" points="919.47,-576.62 910.51,-582.27 921.04,-583.44 919.47,-576.62"/>
</g>
<!-- Node20 -->
<g id="node20" class="node">
<title>Node20</title>
<g id="a_node20"><a xlink:href="f__op__actor__mng_8cpp.html" target="_top" xlink:title=" ">
<polygon fill="white" stroke="black" points="1130,-458.5 1130,-488.5 1231,-488.5 1231,-458.5 1130,-458.5"/>
<text text-anchor="start" x="1138" y="-476.5" font-family="Helvetica,sans-Serif" font-size="10.00">src/f_op/f_op_actor</text>
<text text-anchor="middle" x="1180.5" y="-465.5" font-family="Helvetica,sans-Serif" font-size="10.00">_mng.cpp</text>
</a>
</g>
</g>
<!-- Node14&#45;&gt;Node20 -->
<g id="edge20" class="edge">
<title>Node14&#45;&gt;Node20</title>
<path fill="none" stroke="midnightblue" d="M899.6,-577.81C965.42,-553.6 1082.21,-510.65 1142.36,-488.53"/>
<polygon fill="midnightblue" stroke="midnightblue" points="898.06,-574.65 889.88,-581.38 900.48,-581.22 898.06,-574.65"/>
</g>
<!-- Node21 -->
<g id="node21" class="node">
<title>Node21</title>
<g id="a_node21"><a xlink:href="d__stage_8h.html" target="_top" xlink:title=" ">
<polygon fill="white" stroke="black" points="801,-525.5 801,-544.5 902,-544.5 902,-525.5 801,-525.5"/>
<text text-anchor="middle" x="851.5" y="-532.5" font-family="Helvetica,sans-Serif" font-size="10.00">include/d/d_stage.h</text>
</a>
</g>
</g>
<!-- Node14&#45;&gt;Node21 -->
<g id="edge21" class="edge">
<title>Node14&#45;&gt;Node21</title>
<path fill="none" stroke="midnightblue" d="M851.5,-571.29C851.5,-561.86 851.5,-551.65 851.5,-544.66"/>
<polygon fill="midnightblue" stroke="midnightblue" points="848,-571.4 851.5,-581.4 855,-571.4 848,-571.4"/>
</g>
<!-- Node21&#45;&gt;Node20 -->
<g id="edge24" class="edge">
<title>Node21&#45;&gt;Node20</title>
<path fill="none" stroke="midnightblue" d="M912.49,-525.07C967.16,-516.76 1049.46,-503.51 1120.5,-489 1123.54,-488.38 1126.67,-487.71 1129.82,-487.02"/>
<polygon fill="midnightblue" stroke="midnightblue" points="911.63,-521.66 902.27,-526.61 912.68,-528.58 911.63,-521.66"/>
</g>
<!-- Node22 -->
<g id="node22" class="node">
<title>Node22</title>
<g id="a_node22"><a xlink:href="d__stage_8cpp.html" target="_top" xlink:title=" ">
<polygon fill="white" stroke="black" points="1017.5,-464 1017.5,-483 1111.5,-483 1111.5,-464 1017.5,-464"/>
<text text-anchor="middle" x="1064.5" y="-471" font-family="Helvetica,sans-Serif" font-size="10.00">src/d/d_stage.cpp</text>
</a>
</g>
</g>
<!-- Node21&#45;&gt;Node22 -->
<g id="edge22" class="edge">
<title>Node21&#45;&gt;Node22</title>
<path fill="none" stroke="midnightblue" d="M891.78,-522.75C933.16,-511.19 996.66,-493.45 1034.04,-483.01"/>
<polygon fill="midnightblue" stroke="midnightblue" points="890.71,-519.41 882.02,-525.48 892.59,-526.16 890.71,-519.41"/>
</g>
<!-- Node23 -->
<g id="node23" class="node">
<title>Node23</title>
<g id="a_node23"><a xlink:href="f__op__actor_8cpp.html" target="_top" xlink:title=" ">
<polygon fill="white" stroke="black" points="666,-464 666,-483 785,-483 785,-464 666,-464"/>
<text text-anchor="middle" x="725.5" y="-471" font-family="Helvetica,sans-Serif" font-size="10.00">src/f_op/f_op_actor.cpp</text>
</a>
</g>
</g>
<!-- Node21&#45;&gt;Node23 -->
<g id="edge23" class="edge">
<title>Node21&#45;&gt;Node23</title>
<path fill="none" stroke="midnightblue" d="M824.34,-521.17C799.89,-509.63 764.65,-492.99 743.52,-483.01"/>
<polygon fill="midnightblue" stroke="midnightblue" points="822.91,-524.37 833.45,-525.48 825.9,-518.04 822.91,-524.37"/>
</g>
<!-- Node24 -->
<g id="node24" class="node">
<title>Node24</title>
<g id="a_node24"><a xlink:href="d__a__player_8h.html" target="_top" xlink:title=" ">
<polygon fill="white" stroke="black" points="527,-464 527,-483 648,-483 648,-464 527,-464"/>
<text text-anchor="middle" x="587.5" y="-471" font-family="Helvetica,sans-Serif" font-size="10.00">include/d/a/d_a_player.h</text>
</a>
</g>
</g>
<!-- Node21&#45;&gt;Node24 -->
<g id="edge25" class="edge">
<title>Node21&#45;&gt;Node24</title>
<path fill="none" stroke="midnightblue" d="M803.84,-523.26C752.63,-511.72 672.27,-493.61 625.25,-483.01"/>
<polygon fill="midnightblue" stroke="midnightblue" points="803.15,-526.69 813.68,-525.48 804.69,-519.86 803.15,-526.69"/>
</g>
<!-- Node26 -->
<g id="node26" class="node">
<title>Node26</title>
<g id="a_node26"><a xlink:href="d__com__inf__game_8h.html" target="_top" xlink:title=" ">
<polygon fill="white" stroke="black" points="712.5,-134.5 712.5,-164.5 822.5,-164.5 822.5,-134.5 712.5,-134.5"/>
<text text-anchor="start" x="720.5" y="-152.5" font-family="Helvetica,sans-Serif" font-size="10.00">include/d/com/d_com</text>
<text text-anchor="middle" x="767.5" y="-141.5" font-family="Helvetica,sans-Serif" font-size="10.00">_inf_game.h</text>
</a>
</g>
</g>
<!-- Node21&#45;&gt;Node26 -->
<g id="edge58" class="edge">
<title>Node21&#45;&gt;Node26</title>
<path fill="none" stroke="midnightblue" d="M848.96,-515.19C844.69,-482.63 836.17,-413.61 832.5,-355 831.96,-346.46 833.25,-208.69 829.5,-201 821.96,-185.52 807.18,-173.19 793.94,-164.59"/>
<polygon fill="midnightblue" stroke="midnightblue" points="845.54,-516 850.33,-525.45 852.48,-515.08 845.54,-516"/>
</g>
<!-- Node44 -->
<g id="node43" class="node">
<title>Node44</title>
<g id="a_node43"><a xlink:href="d__event_8h.html" target="_top" xlink:title=" ">
<polygon fill="white" stroke="black" points="841.5,-330 841.5,-349 969.5,-349 969.5,-330 841.5,-330"/>
<text text-anchor="middle" x="905.5" y="-337" font-family="Helvetica,sans-Serif" font-size="10.00">include/d/event/d_event.h</text>
</a>
</g>
</g>
<!-- Node21&#45;&gt;Node44 -->
<g id="edge59" class="edge">
<title>Node21&#45;&gt;Node44</title>
<path fill="none" stroke="midnightblue" d="M851.23,-514.91C851.44,-486.81 854.21,-433.1 870.5,-391 876.81,-374.68 889.4,-358.55 897.63,-349.06"/>
<polygon fill="midnightblue" stroke="midnightblue" points="847.73,-515.28 851.26,-525.27 854.73,-515.26 847.73,-515.28"/>
</g>
<!-- Node45 -->
<g id="node44" class="node">
<title>Node45</title>
<g id="a_node44"><a xlink:href="d__event__data_8h.html" target="_top" xlink:title=" ">
<polygon fill="white" stroke="black" points="879.5,-458.5 879.5,-488.5 999.5,-488.5 999.5,-458.5 879.5,-458.5"/>
<text text-anchor="start" x="887.5" y="-476.5" font-family="Helvetica,sans-Serif" font-size="10.00">include/d/event/d_event</text>
<text text-anchor="middle" x="939.5" y="-465.5" font-family="Helvetica,sans-Serif" font-size="10.00">_data.h</text>
</a>
</g>
</g>
<!-- Node21&#45;&gt;Node45 -->
<g id="edge60" class="edge">
<title>Node21&#45;&gt;Node45</title>
<path fill="none" stroke="midnightblue" d="M872.59,-519.74C886.58,-510.28 904.85,-497.93 918.76,-488.52"/>
<polygon fill="midnightblue" stroke="midnightblue" points="870.43,-516.97 864.11,-525.48 874.35,-522.77 870.43,-516.97"/>
</g>
<!-- Node24&#45;&gt;Node15 -->
<g id="edge26" class="edge">
<title>Node24&#45;&gt;Node15</title>
<path fill="none" stroke="midnightblue" d="M561.66,-459.27C536.5,-446.4 499.01,-427.21 477.43,-416.17"/>
<polygon fill="midnightblue" stroke="midnightblue" points="560.14,-462.43 570.64,-463.87 563.33,-456.2 560.14,-462.43"/>
</g>
<!-- Node25 -->
<g id="node25" class="node">
<title>Node25</title>
<g id="a_node25"><a xlink:href="d__a__alink_8h.html" target="_top" xlink:title=" ">
<polygon fill="white" stroke="black" points="541.5,-201.5 541.5,-220.5 657.5,-220.5 657.5,-201.5 541.5,-201.5"/>
<text text-anchor="middle" x="599.5" y="-208.5" font-family="Helvetica,sans-Serif" font-size="10.00">include/d/a/d_a_alink.h</text>
</a>
</g>
</g>
<!-- Node24&#45;&gt;Node25 -->
<g id="edge27" class="edge">
<title>Node24&#45;&gt;Node25</title>
<path fill="none" stroke="midnightblue" d="M611.81,-458.44C624.79,-449.64 639.83,-437.11 648.5,-422 663.52,-395.83 657.05,-385.08 659.5,-355 663.04,-311.59 678.98,-295.96 659.5,-257 651.06,-240.11 632.93,-227.92 618.8,-220.52"/>
<polygon fill="midnightblue" stroke="midnightblue" points="609.79,-455.57 603.26,-463.92 613.57,-461.47 609.79,-455.57"/>
</g>
<!-- Node33 -->
<g id="node33" class="node">
<title>Node33</title>
<g id="a_node33"><a xlink:href="d__bg__s__acch_8h.html" target="_top" xlink:title=" ">
<polygon fill="white" stroke="black" points="535.5,-391.5 535.5,-421.5 639.5,-421.5 639.5,-391.5 535.5,-391.5"/>
<text text-anchor="start" x="543.5" y="-409.5" font-family="Helvetica,sans-Serif" font-size="10.00">include/d/bg/d_bg_s</text>
<text text-anchor="middle" x="587.5" y="-398.5" font-family="Helvetica,sans-Serif" font-size="10.00">_acch.h</text>
</a>
</g>
</g>
<!-- Node24&#45;&gt;Node33 -->
<g id="edge39" class="edge">
<title>Node24&#45;&gt;Node33</title>
<path fill="none" stroke="midnightblue" d="M587.5,-453.41C587.5,-443.22 587.5,-430.9 587.5,-421.59"/>
<polygon fill="midnightblue" stroke="midnightblue" points="584,-453.73 587.5,-463.73 591,-453.73 584,-453.73"/>
</g>
<!-- Node42 -->
<g id="node41" class="node">
<title>Node42</title>
<g id="a_node41"><a xlink:href="d__attention_8h.html" target="_top" xlink:title=" ">
<polygon fill="white" stroke="black" points="707.5,-263 707.5,-282 821.5,-282 821.5,-263 707.5,-263"/>
<text text-anchor="middle" x="764.5" y="-270" font-family="Helvetica,sans-Serif" font-size="10.00">include/d/d_attention.h</text>
</a>
</g>
</g>
<!-- Node24&#45;&gt;Node42 -->
<g id="edge51" class="edge">
<title>Node24&#45;&gt;Node42</title>
<path fill="none" stroke="midnightblue" d="M628.26,-460.48C649.83,-452.44 675.49,-439.99 693.5,-422 735.96,-379.6 756.54,-306.83 762.56,-282.05"/>
<polygon fill="midnightblue" stroke="midnightblue" points="626.95,-457.24 618.69,-463.87 629.28,-463.83 626.95,-457.24"/>
</g>
<!-- Node24&#45;&gt;Node44 -->
<g id="edge55" class="edge">
<title>Node24&#45;&gt;Node44</title>
<path fill="none" stroke="midnightblue" d="M625.12,-460.88C655.08,-451.32 697.92,-436.95 734.5,-422 792.65,-398.24 859.22,-364.57 889.27,-349"/>
<polygon fill="midnightblue" stroke="midnightblue" points="623.96,-457.58 615.48,-463.93 626.07,-464.25 623.96,-457.58"/>
</g>
<!-- Node25&#45;&gt;Node18 -->
<g id="edge28" class="edge">
<title>Node25&#45;&gt;Node18</title>
<path fill="none" stroke="midnightblue" d="M577.25,-195.86C535.75,-169.48 447.71,-113.51 414.01,-92.09"/>
<polygon fill="midnightblue" stroke="midnightblue" points="575.51,-198.89 585.82,-201.31 579.26,-192.99 575.51,-198.89"/>
</g>
<!-- Node25&#45;&gt;Node26 -->
<g id="edge29" class="edge">
<title>Node25&#45;&gt;Node26</title>
<path fill="none" stroke="midnightblue" d="M633.09,-198.1C660.43,-188.42 699.07,-174.74 727.91,-164.52"/>
<polygon fill="midnightblue" stroke="midnightblue" points="631.83,-194.84 623.57,-201.48 634.17,-201.44 631.83,-194.84"/>
</g>
<!-- Node26&#45;&gt;Node18 -->
<g id="edge31" class="edge">
<title>Node26&#45;&gt;Node18</title>
<path fill="none" stroke="midnightblue" d="M702.41,-138.88C640.71,-129.47 545.53,-114.24 463.5,-98 454.47,-96.21 444.76,-94.08 435.74,-92.01"/>
<polygon fill="midnightblue" stroke="midnightblue" points="701.99,-142.35 712.4,-140.39 703.04,-135.43 701.99,-142.35"/>
</g>
<!-- Node26&#45;&gt;Node19 -->
<g id="edge32" class="edge">
<title>Node26&#45;&gt;Node19</title>
<path fill="none" stroke="midnightblue" d="M832.44,-136.18C885.28,-126.1 961.75,-111.37 1028.5,-98 1037.99,-96.1 1048.2,-94.01 1057.8,-92.02"/>
<polygon fill="midnightblue" stroke="midnightblue" points="831.7,-132.76 822.53,-138.07 833.01,-139.63 831.7,-132.76"/>
</g>
<!-- Node27 -->
<g id="node27" class="node">
<title>Node27</title>
<g id="a_node27"><a xlink:href="d__com__inf__game_8cpp.html" target="_top" xlink:title=" ">
<polygon fill="white" stroke="black" points="713.5,-0.5 713.5,-30.5 821.5,-30.5 821.5,-0.5 713.5,-0.5"/>
<text text-anchor="start" x="721.5" y="-18.5" font-family="Helvetica,sans-Serif" font-size="10.00">src/d/com/d_com_inf</text>
<text text-anchor="middle" x="767.5" y="-7.5" font-family="Helvetica,sans-Serif" font-size="10.00">_game.cpp</text>
</a>
</g>
</g>
<!-- Node26&#45;&gt;Node27 -->
<g id="edge30" class="edge">
<title>Node26&#45;&gt;Node27</title>
<path fill="none" stroke="midnightblue" d="M767.5,-124.02C767.5,-96.51 767.5,-52.79 767.5,-30.52"/>
<polygon fill="midnightblue" stroke="midnightblue" points="764,-124.37 767.5,-134.37 771,-124.37 764,-124.37"/>
</g>
<!-- Node28 -->
<g id="node28" class="node">
<title>Node28</title>
<g id="a_node28"><a xlink:href="d__meter2__info_8cpp.html" target="_top" xlink:title=" ">
<polygon fill="white" stroke="black" points="909.5,-67.5 909.5,-97.5 1019.5,-97.5 1019.5,-67.5 909.5,-67.5"/>
<text text-anchor="start" x="917.5" y="-85.5" font-family="Helvetica,sans-Serif" font-size="10.00">src/d/meter/d_meter2</text>
<text text-anchor="middle" x="964.5" y="-74.5" font-family="Helvetica,sans-Serif" font-size="10.00">_info.cpp</text>
</a>
</g>
</g>
<!-- Node26&#45;&gt;Node28 -->
<g id="edge33" class="edge">
<title>Node26&#45;&gt;Node28</title>
<path fill="none" stroke="midnightblue" d="M819.85,-131.23C851.72,-120.71 891.91,-107.45 921.84,-97.58"/>
<polygon fill="midnightblue" stroke="midnightblue" points="818.65,-127.94 810.25,-134.4 820.84,-134.59 818.65,-127.94"/>
</g>
<!-- Node29 -->
<g id="node29" class="node">
<title>Node29</title>
<g id="a_node29"><a xlink:href="d__msg__flow_8cpp.html" target="_top" xlink:title=" ">
<polygon fill="white" stroke="black" points="473,-73 473,-92 606,-92 606,-73 473,-73"/>
<text text-anchor="middle" x="539.5" y="-80" font-family="Helvetica,sans-Serif" font-size="10.00">src/d/msg/d_msg_flow.cpp</text>
</a>
</g>
</g>
<!-- Node26&#45;&gt;Node29 -->
<g id="edge34" class="edge">
<title>Node26&#45;&gt;Node29</title>
<path fill="none" stroke="midnightblue" d="M708.47,-131.67C663.91,-118.97 604.62,-102.06 569.42,-92.03"/>
<polygon fill="midnightblue" stroke="midnightblue" points="707.73,-135.1 718.31,-134.48 709.65,-128.37 707.73,-135.1"/>
</g>
<!-- Node30 -->
<g id="node30" class="node">
<title>Node30</title>
<g id="a_node30"><a xlink:href="d__save_8cpp.html" target="_top" xlink:title=" ">
<polygon fill="white" stroke="black" points="624,-73 624,-92 739,-92 739,-73 624,-73"/>
<text text-anchor="middle" x="681.5" y="-80" font-family="Helvetica,sans-Serif" font-size="10.00">src/d/save/d_save.cpp</text>
</a>
</g>
</g>
<!-- Node26&#45;&gt;Node30 -->
<g id="edge35" class="edge">
<title>Node26&#45;&gt;Node30</title>
<path fill="none" stroke="midnightblue" d="M740.83,-128.34C724.78,-116.21 705.17,-101.39 693,-92.19"/>
<polygon fill="midnightblue" stroke="midnightblue" points="738.75,-131.16 748.84,-134.4 742.97,-125.57 738.75,-131.16"/>
</g>
<!-- Node31 -->
<g id="node31" class="node">
<title>Node31</title>
<g id="a_node31"><a xlink:href="d__item_8h.html" target="_top" xlink:title=" ">
<polygon fill="white" stroke="black" points="796,-73 796,-92 891,-92 891,-73 796,-73"/>
<text text-anchor="middle" x="843.5" y="-80" font-family="Helvetica,sans-Serif" font-size="10.00">include/d/d_item.h</text>
</a>
</g>
</g>
<!-- Node26&#45;&gt;Node31 -->
<g id="edge36" class="edge">
<title>Node26&#45;&gt;Node31</title>
<path fill="none" stroke="midnightblue" d="M791.85,-127.67C805.89,-115.67 822.78,-101.22 833.33,-92.19"/>
<polygon fill="midnightblue" stroke="midnightblue" points="789.32,-125.24 783.99,-134.4 793.87,-130.56 789.32,-125.24"/>
</g>
<!-- Node31&#45;&gt;Node27 -->
<g id="edge37" class="edge">
<title>Node31&#45;&gt;Node27</title>
<path fill="none" stroke="midnightblue" d="M825.29,-65.93C812.72,-55.18 796.15,-41 783.97,-30.59"/>
<polygon fill="midnightblue" stroke="midnightblue" points="823.38,-68.89 833.25,-72.73 827.93,-63.57 823.38,-68.89"/>
</g>
<!-- Node32 -->
<g id="node32" class="node">
<title>Node32</title>
<g id="a_node32"><a xlink:href="d__item_8cpp.html" target="_top" xlink:title=" ">
<polygon fill="white" stroke="black" points="840,-6 840,-25 929,-25 929,-6 840,-6"/>
<text text-anchor="middle" x="884.5" y="-13" font-family="Helvetica,sans-Serif" font-size="10.00">src/d/d_item.cpp</text>
</a>
</g>
</g>
<!-- Node31&#45;&gt;Node32 -->
<g id="edge38" class="edge">
<title>Node31&#45;&gt;Node32</title>
<path fill="none" stroke="midnightblue" d="M854.52,-64.03C862.45,-51.45 872.83,-35.01 879.06,-25.13"/>
<polygon fill="midnightblue" stroke="midnightblue" points="851.4,-62.41 849.03,-72.73 857.32,-66.14 851.4,-62.41"/>
</g>
<!-- Node34 -->
<g id="node34" class="node">
<title>Node34</title>
<g id="a_node34"><a xlink:href="d__bg__s__acch_8cpp.html" target="_top" xlink:title=" ">
<polygon fill="white" stroke="black" points="268,-330 268,-349 399,-349 399,-330 268,-330"/>
<text text-anchor="middle" x="333.5" y="-337" font-family="Helvetica,sans-Serif" font-size="10.00">src/d/bg/d_bg_s_acch.cpp</text>
</a>
</g>
</g>
<!-- Node33&#45;&gt;Node34 -->
<g id="edge40" class="edge">
<title>Node33&#45;&gt;Node34</title>
<path fill="none" stroke="midnightblue" d="M525.74,-389.7C475.71,-376.89 407.13,-359.34 366.85,-349.03"/>
<polygon fill="midnightblue" stroke="midnightblue" points="524.93,-393.1 535.49,-392.19 526.67,-386.32 524.93,-393.1"/>
</g>
<!-- Node35 -->
<g id="node35" class="node">
<title>Node35</title>
<g id="a_node35"><a xlink:href="d__bg__w_8h.html" target="_top" xlink:title=" ">
<polygon fill="white" stroke="black" points="538,-330 538,-349 651,-349 651,-330 538,-330"/>
<text text-anchor="middle" x="594.5" y="-337" font-family="Helvetica,sans-Serif" font-size="10.00">include/d/bg/d_bg_w.h</text>
</a>
</g>
</g>
<!-- Node33&#45;&gt;Node35 -->
<g id="edge41" class="edge">
<title>Node33&#45;&gt;Node35</title>
<path fill="none" stroke="midnightblue" d="M590.11,-381.25C591.32,-370.02 592.68,-357.38 593.56,-349.19"/>
<polygon fill="midnightblue" stroke="midnightblue" points="586.61,-381.08 589.02,-391.4 593.57,-381.83 586.61,-381.08"/>
</g>
<!-- Node39 -->
<g id="node38" class="node">
<title>Node39</title>
<g id="a_node38"><a xlink:href="d__bomb_8h.html" target="_top" xlink:title=" ">
<polygon fill="white" stroke="black" points="149,-330 149,-349 250,-349 250,-330 149,-330"/>
<text text-anchor="middle" x="199.5" y="-337" font-family="Helvetica,sans-Serif" font-size="10.00">include/d/d_bomb.h</text>
</a>
</g>
</g>
<!-- Node33&#45;&gt;Node39 -->
<g id="edge46" class="edge">
<title>Node33&#45;&gt;Node39</title>
<path fill="none" stroke="midnightblue" d="M525.48,-390.93C406.6,-369.49 373.47,-376.78 258.5,-355 249.69,-353.33 240.23,-351.17 231.51,-349.03"/>
<polygon fill="midnightblue" stroke="midnightblue" points="524.86,-394.38 535.33,-392.74 526.12,-387.49 524.86,-394.38"/>
</g>
<!-- Node40 -->
<g id="node39" class="node">
<title>Node40</title>
<g id="a_node39"><a xlink:href="d__particle__copoly_8h.html" target="_top" xlink:title=" ">
<polygon fill="white" stroke="black" points="417.5,-324.5 417.5,-354.5 519.5,-354.5 519.5,-324.5 417.5,-324.5"/>
<text text-anchor="start" x="425.5" y="-342.5" font-family="Helvetica,sans-Serif" font-size="10.00">include/d/particle</text>
<text text-anchor="middle" x="468.5" y="-331.5" font-family="Helvetica,sans-Serif" font-size="10.00">/d_particle_copoly.h</text>
</a>
</g>
</g>
<!-- Node33&#45;&gt;Node40 -->
<g id="edge48" class="edge">
<title>Node33&#45;&gt;Node40</title>
<path fill="none" stroke="midnightblue" d="M552.85,-386.57C534.13,-376.35 511.41,-363.94 494.27,-354.58"/>
<polygon fill="midnightblue" stroke="midnightblue" points="551.22,-389.67 561.68,-391.4 554.58,-383.53 551.22,-389.67"/>
</g>
<!-- Node36 -->
<g id="node36" class="node">
<title>Node36</title>
<g id="a_node36"><a xlink:href="d__bg__w_8cpp.html" target="_top" xlink:title=" ">
<polygon fill="white" stroke="black" points="415,-263 415,-282 522,-282 522,-263 415,-263"/>
<text text-anchor="middle" x="468.5" y="-270" font-family="Helvetica,sans-Serif" font-size="10.00">src/d/bg/d_bg_w.cpp</text>
</a>
</g>
</g>
<!-- Node35&#45;&gt;Node36 -->
<g id="edge42" class="edge">
<title>Node35&#45;&gt;Node36</title>
<path fill="none" stroke="midnightblue" d="M568.86,-325.27C543.91,-312.4 506.7,-293.21 485.3,-282.17"/>
<polygon fill="midnightblue" stroke="midnightblue" points="567.28,-328.39 577.77,-329.87 570.49,-322.17 567.28,-328.39"/>
</g>
<!-- Node37 -->
<g id="node37" class="node">
<title>Node37</title>
<g id="a_node37"><a xlink:href="d__bg__s_8h.html" target="_top" xlink:title=" ">
<polygon fill="white" stroke="red" points="540,-263 540,-282 651,-282 651,-263 540,-263"/>
<text text-anchor="middle" x="595.5" y="-270" font-family="Helvetica,sans-Serif" font-size="10.00">include/d/bg/d_bg_s.h</text>
</a>
</g>
</g>
<!-- Node35&#45;&gt;Node37 -->
<g id="edge43" class="edge">
<title>Node35&#45;&gt;Node37</title>
<path fill="none" stroke="midnightblue" d="M594.79,-319.54C594.98,-307.17 595.22,-291.62 595.37,-282.13"/>
<polygon fill="midnightblue" stroke="midnightblue" points="591.29,-319.68 594.63,-329.73 598.29,-319.79 591.29,-319.68"/>
</g>
<!-- Node37&#45;&gt;Node25 -->
<g id="edge44" class="edge">
<title>Node37&#45;&gt;Node25</title>
<path fill="none" stroke="midnightblue" d="M596.76,-252.82C597.48,-242 598.36,-228.9 598.93,-220.51"/>
<polygon fill="midnightblue" stroke="midnightblue" points="593.25,-252.76 596.07,-262.98 600.24,-253.23 593.25,-252.76"/>
</g>
<!-- Node37&#45;&gt;Node26 -->
<g id="edge45" class="edge">
<title>Node37&#45;&gt;Node26</title>
<path fill="none" stroke="midnightblue" d="M568.83,-257.94C544.91,-244 515.94,-221.49 532.5,-201 554.69,-173.53 650.26,-160.31 712.48,-154.5"/>
<polygon fill="midnightblue" stroke="midnightblue" points="567.2,-261.04 577.64,-262.84 570.6,-254.92 567.2,-261.04"/>
</g>
<!-- Node39&#45;&gt;Node17 -->
<g id="edge47" class="edge">
<title>Node39&#45;&gt;Node17</title>
<path fill="none" stroke="midnightblue" d="M190.44,-320.66C184.08,-308.13 175.85,-291.91 170.88,-282.13"/>
<polygon fill="midnightblue" stroke="midnightblue" points="187.4,-322.4 195.05,-329.73 193.64,-319.23 187.4,-322.4"/>
</g>
<!-- Node40&#45;&gt;Node25 -->
<g id="edge50" class="edge">
<title>Node40&#45;&gt;Node25</title>
<path fill="none" stroke="midnightblue" d="M407.47,-323.95C349.78,-310.06 271.7,-290.83 269.5,-288 261.04,-277.13 260.44,-267.38 269.5,-257 304.1,-217.36 456.3,-211.34 541.39,-211.17"/>
<polygon fill="midnightblue" stroke="midnightblue" points="406.72,-327.37 417.26,-326.31 408.35,-320.56 406.72,-327.37"/>
</g>
<!-- Node41 -->
<g id="node40" class="node">
<title>Node41</title>
<g id="a_node40"><a xlink:href="d__particle__copoly_8cpp.html" target="_top" xlink:title=" ">
<polygon fill="white" stroke="black" points="278.5,-257.5 278.5,-287.5 396.5,-287.5 396.5,-257.5 278.5,-257.5"/>
<text text-anchor="start" x="286.5" y="-275.5" font-family="Helvetica,sans-Serif" font-size="10.00">src/d/particle/d_particle</text>
<text text-anchor="middle" x="337.5" y="-264.5" font-family="Helvetica,sans-Serif" font-size="10.00">_copoly.cpp</text>
</a>
</g>
</g>
<!-- Node40&#45;&gt;Node41 -->
<g id="edge49" class="edge">
<title>Node40&#45;&gt;Node41</title>
<path fill="none" stroke="midnightblue" d="M430.92,-319.85C410.21,-309.58 384.91,-297.03 365.87,-287.58"/>
<polygon fill="midnightblue" stroke="midnightblue" points="429.56,-323.09 440.07,-324.4 432.67,-316.82 429.56,-323.09"/>
</g>
<!-- Node42&#45;&gt;Node25 -->
<g id="edge53" class="edge">
<title>Node42&#45;&gt;Node25</title>
<path fill="none" stroke="midnightblue" d="M731.45,-259.58C699.38,-248.02 651.5,-230.75 623.1,-220.51"/>
<polygon fill="midnightblue" stroke="midnightblue" points="730.27,-262.88 740.86,-262.98 732.64,-256.29 730.27,-262.88"/>
</g>
<!-- Node42&#45;&gt;Node26 -->
<g id="edge54" class="edge">
<title>Node42&#45;&gt;Node26</title>
<path fill="none" stroke="midnightblue" d="M738.77,-257.69C717.95,-244.53 693.73,-223.44 704.5,-201 711.96,-185.46 726.8,-173.19 740.2,-164.64"/>
<polygon fill="midnightblue" stroke="midnightblue" points="736.99,-260.71 747.37,-262.83 740.58,-254.7 736.99,-260.71"/>
</g>
<!-- Node43 -->
<g id="node42" class="node">
<title>Node43</title>
<g id="a_node42"><a xlink:href="d__attention_8cpp.html" target="_top" xlink:title=" ">
<polygon fill="white" stroke="black" points="714,-201.5 714,-220.5 821,-220.5 821,-201.5 714,-201.5"/>
<text text-anchor="middle" x="767.5" y="-208.5" font-family="Helvetica,sans-Serif" font-size="10.00">src/d/d_attention.cpp</text>
</a>
</g>
</g>
<!-- Node42&#45;&gt;Node43 -->
<g id="edge52" class="edge">
<title>Node42&#45;&gt;Node43</title>
<path fill="none" stroke="midnightblue" d="M765.44,-252.82C765.99,-242 766.65,-228.9 767.07,-220.51"/>
<polygon fill="midnightblue" stroke="midnightblue" points="761.94,-252.81 764.93,-262.98 768.93,-253.16 761.94,-252.81"/>
</g>
<!-- Node44&#45;&gt;Node19 -->
<g id="edge56" class="edge">
<title>Node44&#45;&gt;Node19</title>
<path fill="none" stroke="midnightblue" d="M918.26,-321.64C955.64,-272.26 1063.98,-129.11 1091.88,-92.24"/>
<polygon fill="midnightblue" stroke="midnightblue" points="915.39,-319.64 912.14,-329.72 920.97,-323.86 915.39,-319.64"/>
</g>
<!-- Node44&#45;&gt;Node26 -->
<g id="edge57" class="edge">
<title>Node44&#45;&gt;Node26</title>
<path fill="none" stroke="midnightblue" d="M904.26,-319.42C901.47,-290.69 892.46,-235.98 863.5,-201 849.81,-184.46 829.28,-172.64 810.71,-164.61"/>
<polygon fill="midnightblue" stroke="midnightblue" points="900.8,-320.01 905.09,-329.69 907.77,-319.44 900.8,-320.01"/>
</g>
<!-- Node46 -->
<g id="node45" class="node">
<title>Node46</title>
<g id="a_node45"><a xlink:href="d__event__data_8cpp.html" target="_top" xlink:title=" ">
<polygon fill="white" stroke="black" points="1018,-391.5 1018,-421.5 1121,-421.5 1121,-391.5 1018,-391.5"/>
<text text-anchor="start" x="1026" y="-409.5" font-family="Helvetica,sans-Serif" font-size="10.00">src/d/event/d_event</text>
<text text-anchor="middle" x="1069.5" y="-398.5" font-family="Helvetica,sans-Serif" font-size="10.00">_data.cpp</text>
</a>
</g>
</g>
<!-- Node45&#45;&gt;Node46 -->
<g id="edge61" class="edge">
<title>Node45&#45;&gt;Node46</title>
<path fill="none" stroke="midnightblue" d="M976.79,-453.85C997.35,-443.58 1022.45,-431.03 1041.35,-421.58"/>
<polygon fill="midnightblue" stroke="midnightblue" points="975.09,-450.79 967.71,-458.4 978.22,-457.05 975.09,-450.79"/>
</g>
<!-- Node47 -->
<g id="node46" class="node">
<title>Node47</title>
<g id="a_node46"><a xlink:href="d__event__manager_8h.html" target="_top" xlink:title=" ">
<polygon fill="white" stroke="black" points="879.5,-391.5 879.5,-421.5 999.5,-421.5 999.5,-391.5 879.5,-391.5"/>
<text text-anchor="start" x="887.5" y="-409.5" font-family="Helvetica,sans-Serif" font-size="10.00">include/d/event/d_event</text>
<text text-anchor="middle" x="939.5" y="-398.5" font-family="Helvetica,sans-Serif" font-size="10.00">_manager.h</text>
</a>
</g>
</g>
<!-- Node45&#45;&gt;Node47 -->
<g id="edge62" class="edge">
<title>Node45&#45;&gt;Node47</title>
<path fill="none" stroke="midnightblue" d="M939.5,-448.11C939.5,-439.15 939.5,-429.32 939.5,-421.58"/>
<polygon fill="midnightblue" stroke="midnightblue" points="936,-448.4 939.5,-458.4 943,-448.4 936,-448.4"/>
</g>
<!-- Node47&#45;&gt;Node26 -->
<g id="edge64" class="edge">
<title>Node47&#45;&gt;Node26</title>
<path fill="none" stroke="midnightblue" d="M961.52,-383.53C968.32,-375.28 974.96,-365.38 978.5,-355 982.95,-341.96 982.95,-337.04 978.5,-324 956.19,-258.63 937.99,-243.45 883.5,-201 862.79,-184.87 836.14,-172.79 813.61,-164.5"/>
<polygon fill="midnightblue" stroke="midnightblue" points="958.76,-381.36 954.76,-391.17 964.01,-386 958.76,-381.36"/>
</g>
<!-- Node47&#45;&gt;Node44 -->
<g id="edge65" class="edge">
<title>Node47&#45;&gt;Node44</title>
<path fill="none" stroke="midnightblue" d="M927.36,-382.29C921.35,-370.8 914.46,-357.63 910.05,-349.19"/>
<polygon fill="midnightblue" stroke="midnightblue" points="924.39,-384.16 932.12,-391.4 930.59,-380.91 924.39,-384.16"/>
</g>
<!-- Node48 -->
<g id="node47" class="node">
<title>Node48</title>
<g id="a_node47"><a xlink:href="d__event__manager_8cpp.html" target="_top" xlink:title=" ">
<polygon fill="white" stroke="black" points="1026,-324.5 1026,-354.5 1129,-354.5 1129,-324.5 1026,-324.5"/>
<text text-anchor="start" x="1034" y="-342.5" font-family="Helvetica,sans-Serif" font-size="10.00">src/d/event/d_event</text>
<text text-anchor="middle" x="1077.5" y="-331.5" font-family="Helvetica,sans-Serif" font-size="10.00">_manager.cpp</text>
</a>
</g>
</g>
<!-- Node47&#45;&gt;Node48 -->
<g id="edge63" class="edge">
<title>Node47&#45;&gt;Node48</title>
<path fill="none" stroke="midnightblue" d="M978.5,-387.13C1000.43,-376.8 1027.37,-364.11 1047.61,-354.58"/>
<polygon fill="midnightblue" stroke="midnightblue" points="977,-383.97 969.44,-391.4 979.98,-390.3 977,-383.97"/>
</g>
<!-- Node50 -->
<g id="node49" class="node">
<title>Node50</title>
<g id="a_node49"><a xlink:href="f__pc__layer_8cpp.html" target="_top" xlink:title=" ">
<polygon fill="white" stroke="black" points="940,-654 940,-673 1057,-673 1057,-654 940,-654"/>
<text text-anchor="middle" x="998.5" y="-661" font-family="Helvetica,sans-Serif" font-size="10.00">src/f_pc/f_pc_layer.cpp</text>
</a>
</g>
</g>
<!-- Node49&#45;&gt;Node50 -->
<g id="edge67" class="edge">
<title>Node49&#45;&gt;Node50</title>
<path fill="none" stroke="midnightblue" d="M998.5,-705.25C998.5,-694.02 998.5,-681.38 998.5,-673.19"/>
<polygon fill="midnightblue" stroke="midnightblue" points="995,-705.4 998.5,-715.4 1002,-705.4 995,-705.4"/>
</g>
<!-- Node51 -->
<g id="node50" class="node">
<title>Node51</title>
<g id="a_node50"><a xlink:href="f__pc__method__iter_8cpp.html" target="_top" xlink:title=" ">
<polygon fill="white" stroke="black" points="1075,-648.5 1075,-678.5 1186,-678.5 1186,-648.5 1075,-648.5"/>
<text text-anchor="start" x="1083" y="-666.5" font-family="Helvetica,sans-Serif" font-size="10.00">src/f_pc/f_pc_method</text>
<text text-anchor="middle" x="1130.5" y="-655.5" font-family="Helvetica,sans-Serif" font-size="10.00">_iter.cpp</text>
</a>
</g>
</g>
<!-- Node49&#45;&gt;Node51 -->
<g id="edge68" class="edge">
<title>Node49&#45;&gt;Node51</title>
<path fill="none" stroke="midnightblue" d="M1036.37,-710.85C1057.24,-700.58 1082.73,-688.03 1101.91,-678.58"/>
<polygon fill="midnightblue" stroke="midnightblue" points="1034.57,-707.84 1027.14,-715.4 1037.66,-714.12 1034.57,-707.84"/>
</g>
</g>
</svg>
