<?xml version="1.0" encoding="UTF-8" standalone="no"?>
<!DOCTYPE svg PUBLIC "-//W3C//DTD SVG 1.1//EN"
 "http://www.w3.org/Graphics/SVG/1.1/DTD/svg11.dtd">
<!-- Generated by graphviz version 2.44.0 ()
 -->
<!-- Title: include/SSystem/SComponent/c_m3d_g_tri.h Pages: 1 -->
<svg width="1194pt" height="441pt"
 viewBox="0.00 0.00 1194.00 441.00" xmlns="http://www.w3.org/2000/svg" xmlns:xlink="http://www.w3.org/1999/xlink">
<g id="graph0" class="graph" transform="scale(1 1) rotate(0) translate(4 437)">
<title>include/SSystem/SComponent/c_m3d_g_tri.h</title>
<polygon fill="white" stroke="transparent" points="-4,4 -4,-437 1190,-437 1190,4 -4,4"/>
<!-- Node1 -->
<g id="node1" class="node">
<title>Node1</title>
<g id="a_node1"><a xlink:title=" ">
<polygon fill="#bfbfbf" stroke="black" points="215.5,-402.5 215.5,-432.5 364.5,-432.5 364.5,-402.5 215.5,-402.5"/>
<text text-anchor="start" x="223.5" y="-420.5" font-family="Helvetica,sans-Serif" font-size="10.00">include/SSystem/SComponent</text>
<text text-anchor="middle" x="290" y="-409.5" font-family="Helvetica,sans-Serif" font-size="10.00">/c_m3d_g_tri.h</text>
</a>
</g>
</g>
<!-- Node2 -->
<g id="node2" class="node">
<title>Node2</title>
<g id="a_node2"><a xlink:href="c__m3d__g__tri_8cpp.html" target="_top" xlink:title=" ">
<polygon fill="white" stroke="black" points="0,-335.5 0,-365.5 134,-365.5 134,-335.5 0,-335.5"/>
<text text-anchor="start" x="8" y="-353.5" font-family="Helvetica,sans-Serif" font-size="10.00">libs/SSystem/SComponent</text>
<text text-anchor="middle" x="67" y="-342.5" font-family="Helvetica,sans-Serif" font-size="10.00">/c_m3d_g_tri.cpp</text>
</a>
</g>
</g>
<!-- Node1&#45;&gt;Node2 -->
<g id="edge1" class="edge">
<title>Node1&#45;&gt;Node2</title>
<path fill="none" stroke="midnightblue" d="M231.95,-399.58C195.73,-389.02 149.65,-375.59 115.41,-365.61"/>
<polygon fill="midnightblue" stroke="midnightblue" points="231.31,-403.04 241.89,-402.48 233.27,-396.32 231.31,-403.04"/>
</g>
<!-- Node3 -->
<g id="node3" class="node">
<title>Node3</title>
<g id="a_node3"><a xlink:href="c__m3d_8cpp.html" target="_top" xlink:title=" ">
<polygon fill="white" stroke="black" points="152,-335.5 152,-365.5 286,-365.5 286,-335.5 152,-335.5"/>
<text text-anchor="start" x="160" y="-353.5" font-family="Helvetica,sans-Serif" font-size="10.00">libs/SSystem/SComponent</text>
<text text-anchor="middle" x="219" y="-342.5" font-family="Helvetica,sans-Serif" font-size="10.00">/c_m3d.cpp</text>
</a>
</g>
</g>
<!-- Node1&#45;&gt;Node3 -->
<g id="edge2" class="edge">
<title>Node1&#45;&gt;Node3</title>
<path fill="none" stroke="midnightblue" d="M267.17,-395.6C256.45,-385.78 243.95,-374.34 234.38,-365.58"/>
<polygon fill="midnightblue" stroke="midnightblue" points="264.85,-398.22 274.59,-402.4 269.58,-393.06 264.85,-398.22"/>
</g>
<!-- Node4 -->
<g id="node4" class="node">
<title>Node4</title>
<g id="a_node4"><a xlink:href="d__bg__w_8h.html" target="_top" xlink:title=" ">
<polygon fill="white" stroke="black" points="304.5,-341 304.5,-360 417.5,-360 417.5,-341 304.5,-341"/>
<text text-anchor="middle" x="361" y="-348" font-family="Helvetica,sans-Serif" font-size="10.00">include/d/bg/d_bg_w.h</text>
</a>
</g>
</g>
<!-- Node1&#45;&gt;Node4 -->
<g id="edge3" class="edge">
<title>Node1&#45;&gt;Node4</title>
<path fill="none" stroke="midnightblue" d="M313.12,-395.34C326.15,-383.4 341.74,-369.14 351.5,-360.19"/>
<polygon fill="midnightblue" stroke="midnightblue" points="310.42,-393.06 305.41,-402.4 315.15,-398.22 310.42,-393.06"/>
</g>
<!-- Node18 -->
<g id="node18" class="node">
<title>Node18</title>
<g id="a_node18"><a xlink:href="c__cc__d_8h.html" target="_top" xlink:title=" ">
<polygon fill="white" stroke="black" points="601.5,-335.5 601.5,-365.5 750.5,-365.5 750.5,-335.5 601.5,-335.5"/>
<text text-anchor="start" x="609.5" y="-353.5" font-family="Helvetica,sans-Serif" font-size="10.00">include/SSystem/SComponent</text>
<text text-anchor="middle" x="676" y="-342.5" font-family="Helvetica,sans-Serif" font-size="10.00">/c_cc_d.h</text>
</a>
</g>
</g>
<!-- Node1&#45;&gt;Node18 -->
<g id="edge20" class="edge">
<title>Node1&#45;&gt;Node18</title>
<path fill="none" stroke="midnightblue" d="M375.09,-402.17C442.77,-390.77 536.53,-374.99 601.33,-364.07"/>
<polygon fill="midnightblue" stroke="midnightblue" points="374.16,-398.78 364.88,-403.89 375.32,-405.68 374.16,-398.78"/>
</g>
<!-- Node5 -->
<g id="node5" class="node">
<title>Node5</title>
<g id="a_node5"><a xlink:href="d__bg__w_8cpp.html" target="_top" xlink:title=" ">
<polygon fill="white" stroke="black" points="180.5,-274 180.5,-293 287.5,-293 287.5,-274 180.5,-274"/>
<text text-anchor="middle" x="234" y="-281" font-family="Helvetica,sans-Serif" font-size="10.00">src/d/bg/d_bg_w.cpp</text>
</a>
</g>
</g>
<!-- Node4&#45;&gt;Node5 -->
<g id="edge4" class="edge">
<title>Node4&#45;&gt;Node5</title>
<path fill="none" stroke="midnightblue" d="M335.16,-336.27C310,-323.4 272.51,-304.21 250.93,-293.17"/>
<polygon fill="midnightblue" stroke="midnightblue" points="333.64,-339.43 344.14,-340.87 336.83,-333.2 333.64,-339.43"/>
</g>
<!-- Node6 -->
<g id="node6" class="node">
<title>Node6</title>
<g id="a_node6"><a xlink:href="d__bg__s_8h.html" target="_top" xlink:title=" ">
<polygon fill="white" stroke="black" points="305.5,-274 305.5,-293 416.5,-293 416.5,-274 305.5,-274"/>
<text text-anchor="middle" x="361" y="-281" font-family="Helvetica,sans-Serif" font-size="10.00">include/d/bg/d_bg_s.h</text>
</a>
</g>
</g>
<!-- Node4&#45;&gt;Node6 -->
<g id="edge5" class="edge">
<title>Node4&#45;&gt;Node6</title>
<path fill="none" stroke="midnightblue" d="M361,-330.54C361,-318.17 361,-302.62 361,-293.13"/>
<polygon fill="midnightblue" stroke="midnightblue" points="357.5,-330.73 361,-340.73 364.5,-330.73 357.5,-330.73"/>
</g>
<!-- Node7 -->
<g id="node7" class="node">
<title>Node7</title>
<g id="a_node7"><a xlink:href="d__bg__s_8cpp.html" target="_top" xlink:title=" ">
<polygon fill="white" stroke="black" points="203,-207 203,-226 307,-226 307,-207 203,-207"/>
<text text-anchor="middle" x="255" y="-214" font-family="Helvetica,sans-Serif" font-size="10.00">src/d/bg/d_bg_s.cpp</text>
</a>
</g>
</g>
<!-- Node6&#45;&gt;Node7 -->
<g id="edge6" class="edge">
<title>Node6&#45;&gt;Node7</title>
<path fill="none" stroke="midnightblue" d="M338.08,-268.44C317.08,-255.57 286.68,-236.93 269.07,-226.13"/>
<polygon fill="midnightblue" stroke="midnightblue" points="336.35,-271.49 346.7,-273.73 340.01,-265.52 336.35,-271.49"/>
</g>
<!-- Node8 -->
<g id="node8" class="node">
<title>Node8</title>
<g id="a_node8"><a xlink:href="d__a__alink_8h.html" target="_top" xlink:title=" ">
<polygon fill="white" stroke="black" points="363,-207 363,-226 479,-226 479,-207 363,-207"/>
<text text-anchor="middle" x="421" y="-214" font-family="Helvetica,sans-Serif" font-size="10.00">include/d/a/d_a_alink.h</text>
</a>
</g>
</g>
<!-- Node6&#45;&gt;Node8 -->
<g id="edge7" class="edge">
<title>Node6&#45;&gt;Node8</title>
<path fill="none" stroke="midnightblue" d="M376.11,-266.13C387.84,-253.42 403.65,-236.3 413.04,-226.13"/>
<polygon fill="midnightblue" stroke="midnightblue" points="373.3,-264.01 369.09,-273.73 378.45,-268.76 373.3,-264.01"/>
</g>
<!-- Node10 -->
<g id="node10" class="node">
<title>Node10</title>
<g id="a_node10"><a xlink:href="d__com__inf__game_8h.html" target="_top" xlink:title=" ">
<polygon fill="white" stroke="black" points="448,-134.5 448,-164.5 558,-164.5 558,-134.5 448,-134.5"/>
<text text-anchor="start" x="456" y="-152.5" font-family="Helvetica,sans-Serif" font-size="10.00">include/d/com/d_com</text>
<text text-anchor="middle" x="503" y="-141.5" font-family="Helvetica,sans-Serif" font-size="10.00">_inf_game.h</text>
</a>
</g>
</g>
<!-- Node6&#45;&gt;Node10 -->
<g id="edge19" class="edge">
<title>Node6&#45;&gt;Node10</title>
<path fill="none" stroke="midnightblue" d="M353.17,-264.42C346.79,-246.6 340.78,-219.44 354,-201 375.25,-171.37 414.85,-158.91 447.89,-153.77"/>
<polygon fill="midnightblue" stroke="midnightblue" points="349.99,-265.91 356.93,-273.92 356.5,-263.33 349.99,-265.91"/>
</g>
<!-- Node9 -->
<g id="node9" class="node">
<title>Node9</title>
<g id="a_node9"><a xlink:href="d__a__alink_8cpp.html" target="_top" xlink:title=" ">
<polygon fill="white" stroke="black" points="135.5,-73 135.5,-92 244.5,-92 244.5,-73 135.5,-73"/>
<text text-anchor="middle" x="190" y="-80" font-family="Helvetica,sans-Serif" font-size="10.00">src/d/a/d_a_alink.cpp</text>
</a>
</g>
</g>
<!-- Node8&#45;&gt;Node9 -->
<g id="edge8" class="edge">
<title>Node8&#45;&gt;Node9</title>
<path fill="none" stroke="midnightblue" d="M397.13,-201.86C349.52,-174.65 243.97,-114.34 204.91,-92.02"/>
<polygon fill="midnightblue" stroke="midnightblue" points="395.42,-204.92 405.84,-206.84 398.9,-198.84 395.42,-204.92"/>
</g>
<!-- Node8&#45;&gt;Node10 -->
<g id="edge9" class="edge">
<title>Node8&#45;&gt;Node10</title>
<path fill="none" stroke="midnightblue" d="M440.25,-200.24C453.86,-189.45 471.96,-175.1 485.23,-164.59"/>
<polygon fill="midnightblue" stroke="midnightblue" points="437.72,-197.78 432.06,-206.73 442.07,-203.26 437.72,-197.78"/>
</g>
<!-- Node10&#45;&gt;Node9 -->
<g id="edge11" class="edge">
<title>Node10&#45;&gt;Node9</title>
<path fill="none" stroke="midnightblue" d="M437.67,-135.8C387.17,-125.87 315.56,-111.52 253,-98 244.33,-96.13 235.02,-94.03 226.28,-92.02"/>
<polygon fill="midnightblue" stroke="midnightblue" points="437.31,-139.3 447.8,-137.79 438.66,-132.43 437.31,-139.3"/>
</g>
<!-- Node11 -->
<g id="node11" class="node">
<title>Node11</title>
<g id="a_node11"><a xlink:href="d__com__inf__game_8cpp.html" target="_top" xlink:title=" ">
<polygon fill="white" stroke="black" points="628,-0.5 628,-30.5 736,-30.5 736,-0.5 628,-0.5"/>
<text text-anchor="start" x="636" y="-18.5" font-family="Helvetica,sans-Serif" font-size="10.00">src/d/com/d_com_inf</text>
<text text-anchor="middle" x="682" y="-7.5" font-family="Helvetica,sans-Serif" font-size="10.00">_game.cpp</text>
</a>
</g>
</g>
<!-- Node10&#45;&gt;Node11 -->
<g id="edge10" class="edge">
<title>Node10&#45;&gt;Node11</title>
<path fill="none" stroke="midnightblue" d="M568.13,-145.24C679.13,-139.02 895.22,-123.72 918,-98 971.67,-37.4 821.45,-21.84 736.25,-17.86"/>
<polygon fill="midnightblue" stroke="midnightblue" points="567.84,-141.75 558.05,-145.8 568.23,-148.74 567.84,-141.75"/>
</g>
<!-- Node12 -->
<g id="node12" class="node">
<title>Node12</title>
<g id="a_node12"><a xlink:href="d__event_8cpp.html" target="_top" xlink:title=" ">
<polygon fill="white" stroke="black" points="375.5,-73 375.5,-92 496.5,-92 496.5,-73 375.5,-73"/>
<text text-anchor="middle" x="436" y="-80" font-family="Helvetica,sans-Serif" font-size="10.00">src/d/event/d_event.cpp</text>
</a>
</g>
</g>
<!-- Node10&#45;&gt;Node12 -->
<g id="edge12" class="edge">
<title>Node10&#45;&gt;Node12</title>
<path fill="none" stroke="midnightblue" d="M481.18,-127.34C468.88,-115.4 454.18,-101.14 444.96,-92.19"/>
<polygon fill="midnightblue" stroke="midnightblue" points="478.85,-129.94 488.46,-134.4 483.72,-124.92 478.85,-129.94"/>
</g>
<!-- Node13 -->
<g id="node13" class="node">
<title>Node13</title>
<g id="a_node13"><a xlink:href="d__meter2__info_8cpp.html" target="_top" xlink:title=" ">
<polygon fill="white" stroke="black" points="515,-67.5 515,-97.5 625,-97.5 625,-67.5 515,-67.5"/>
<text text-anchor="start" x="523" y="-85.5" font-family="Helvetica,sans-Serif" font-size="10.00">src/d/meter/d_meter2</text>
<text text-anchor="middle" x="570" y="-74.5" font-family="Helvetica,sans-Serif" font-size="10.00">_info.cpp</text>
</a>
</g>
</g>
<!-- Node10&#45;&gt;Node13 -->
<g id="edge13" class="edge">
<title>Node10&#45;&gt;Node13</title>
<path fill="none" stroke="midnightblue" d="M524.84,-127.31C534.89,-117.56 546.54,-106.26 555.49,-97.58"/>
<polygon fill="midnightblue" stroke="midnightblue" points="522.28,-124.92 517.54,-134.4 527.15,-129.94 522.28,-124.92"/>
</g>
<!-- Node14 -->
<g id="node14" class="node">
<title>Node14</title>
<g id="a_node14"><a xlink:href="d__msg__flow_8cpp.html" target="_top" xlink:title=" ">
<polygon fill="white" stroke="black" points="643.5,-73 643.5,-92 776.5,-92 776.5,-73 643.5,-73"/>
<text text-anchor="middle" x="710" y="-80" font-family="Helvetica,sans-Serif" font-size="10.00">src/d/msg/d_msg_flow.cpp</text>
</a>
</g>
</g>
<!-- Node10&#45;&gt;Node14 -->
<g id="edge14" class="edge">
<title>Node10&#45;&gt;Node14</title>
<path fill="none" stroke="midnightblue" d="M557.36,-131.43C597.73,-118.75 651.08,-102 682.84,-92.03"/>
<polygon fill="midnightblue" stroke="midnightblue" points="556.15,-128.14 547.66,-134.48 558.25,-134.82 556.15,-128.14"/>
</g>
<!-- Node15 -->
<g id="node15" class="node">
<title>Node15</title>
<g id="a_node15"><a xlink:href="d__save_8cpp.html" target="_top" xlink:title=" ">
<polygon fill="white" stroke="black" points="794.5,-73 794.5,-92 909.5,-92 909.5,-73 794.5,-73"/>
<text text-anchor="middle" x="852" y="-80" font-family="Helvetica,sans-Serif" font-size="10.00">src/d/save/d_save.cpp</text>
</a>
</g>
</g>
<!-- Node10&#45;&gt;Node15 -->
<g id="edge15" class="edge">
<title>Node10&#45;&gt;Node15</title>
<path fill="none" stroke="midnightblue" d="M568.22,-137.5C625.46,-127.69 710.89,-112.65 785,-98 794.34,-96.15 804.39,-94.05 813.78,-92.02"/>
<polygon fill="midnightblue" stroke="midnightblue" points="567.49,-134.08 558.23,-139.21 568.67,-140.98 567.49,-134.08"/>
</g>
<!-- Node16 -->
<g id="node16" class="node">
<title>Node16</title>
<g id="a_node16"><a xlink:href="d__item_8h.html" target="_top" xlink:title=" ">
<polygon fill="white" stroke="black" points="262.5,-73 262.5,-92 357.5,-92 357.5,-73 262.5,-73"/>
<text text-anchor="middle" x="310" y="-80" font-family="Helvetica,sans-Serif" font-size="10.00">include/d/d_item.h</text>
</a>
</g>
</g>
<!-- Node10&#45;&gt;Node16 -->
<g id="edge16" class="edge">
<title>Node10&#45;&gt;Node16</title>
<path fill="none" stroke="midnightblue" d="M451.36,-131.11C413.81,-118.46 364.61,-101.89 335.26,-92.01"/>
<polygon fill="midnightblue" stroke="midnightblue" points="450.53,-134.52 461.12,-134.4 452.76,-127.89 450.53,-134.52"/>
</g>
<!-- Node16&#45;&gt;Node11 -->
<g id="edge17" class="edge">
<title>Node16&#45;&gt;Node11</title>
<path fill="none" stroke="midnightblue" d="M350.52,-70.53C355.71,-69.26 360.97,-68.05 366,-67 457.23,-47.94 564.58,-32.18 627.76,-23.57"/>
<polygon fill="midnightblue" stroke="midnightblue" points="349.53,-67.16 340.69,-72.99 351.24,-73.95 349.53,-67.16"/>
</g>
<!-- Node17 -->
<g id="node17" class="node">
<title>Node17</title>
<g id="a_node17"><a xlink:href="d__item_8cpp.html" target="_top" xlink:title=" ">
<polygon fill="white" stroke="black" points="265.5,-6 265.5,-25 354.5,-25 354.5,-6 265.5,-6"/>
<text text-anchor="middle" x="310" y="-13" font-family="Helvetica,sans-Serif" font-size="10.00">src/d/d_item.cpp</text>
</a>
</g>
</g>
<!-- Node16&#45;&gt;Node17 -->
<g id="edge18" class="edge">
<title>Node16&#45;&gt;Node17</title>
<path fill="none" stroke="midnightblue" d="M310,-62.54C310,-50.17 310,-34.62 310,-25.13"/>
<polygon fill="midnightblue" stroke="midnightblue" points="306.5,-62.73 310,-72.73 313.5,-62.73 306.5,-62.73"/>
</g>
<!-- Node19 -->
<g id="node19" class="node">
<title>Node19</title>
<g id="a_node19"><a xlink:href="c__cc__d_8cpp.html" target="_top" xlink:title=" ">
<polygon fill="white" stroke="black" points="917,-268.5 917,-298.5 1051,-298.5 1051,-268.5 917,-268.5"/>
<text text-anchor="start" x="925" y="-286.5" font-family="Helvetica,sans-Serif" font-size="10.00">libs/SSystem/SComponent</text>
<text text-anchor="middle" x="984" y="-275.5" font-family="Helvetica,sans-Serif" font-size="10.00">/c_cc_d.cpp</text>
</a>
</g>
</g>
<!-- Node18&#45;&gt;Node19 -->
<g id="edge21" class="edge">
<title>Node18&#45;&gt;Node19</title>
<path fill="none" stroke="midnightblue" d="M752.37,-333.38C803.03,-322.69 868.87,-308.8 917.4,-298.55"/>
<polygon fill="midnightblue" stroke="midnightblue" points="751.51,-329.99 742.45,-335.48 752.96,-336.84 751.51,-329.99"/>
</g>
<!-- Node20 -->
<g id="node20" class="node">
<title>Node20</title>
<g id="a_node20"><a xlink:href="d__cc__d_8h.html" target="_top" xlink:title=" ">
<polygon fill="white" stroke="black" points="620.5,-274 620.5,-293 731.5,-293 731.5,-274 620.5,-274"/>
<text text-anchor="middle" x="676" y="-281" font-family="Helvetica,sans-Serif" font-size="10.00">include/d/cc/d_cc_d.h</text>
</a>
</g>
</g>
<!-- Node18&#45;&gt;Node20 -->
<g id="edge22" class="edge">
<title>Node18&#45;&gt;Node20</title>
<path fill="none" stroke="midnightblue" d="M676,-325.25C676,-314.02 676,-301.38 676,-293.19"/>
<polygon fill="midnightblue" stroke="midnightblue" points="672.5,-325.4 676,-335.4 679.5,-325.4 672.5,-325.4"/>
</g>
<!-- Node26 -->
<g id="node26" class="node">
<title>Node26</title>
<g id="a_node26"><a xlink:href="d__cc__mass__s_8h.html" target="_top" xlink:title=" ">
<polygon fill="white" stroke="black" points="462,-274 462,-293 602,-293 602,-274 462,-274"/>
<text text-anchor="middle" x="532" y="-281" font-family="Helvetica,sans-Serif" font-size="10.00">include/d/cc/d_cc_mass_s.h</text>
</a>
</g>
</g>
<!-- Node18&#45;&gt;Node26 -->
<g id="edge30" class="edge">
<title>Node18&#45;&gt;Node26</title>
<path fill="none" stroke="midnightblue" d="M635.31,-331.13C607.59,-318.62 572.19,-302.64 550.85,-293.01"/>
<polygon fill="midnightblue" stroke="midnightblue" points="634.2,-334.47 644.75,-335.4 637.08,-328.09 634.2,-334.47"/>
</g>
<!-- Node27 -->
<g id="node27" class="node">
<title>Node27</title>
<g id="a_node27"><a xlink:href="c__cc__s_8h.html" target="_top" xlink:title=" ">
<polygon fill="white" stroke="black" points="749.5,-268.5 749.5,-298.5 898.5,-298.5 898.5,-268.5 749.5,-268.5"/>
<text text-anchor="start" x="757.5" y="-286.5" font-family="Helvetica,sans-Serif" font-size="10.00">include/SSystem/SComponent</text>
<text text-anchor="middle" x="824" y="-275.5" font-family="Helvetica,sans-Serif" font-size="10.00">/c_cc_s.h</text>
</a>
</g>
</g>
<!-- Node18&#45;&gt;Node27 -->
<g id="edge34" class="edge">
<title>Node18&#45;&gt;Node27</title>
<path fill="none" stroke="midnightblue" d="M717.51,-331.27C741.08,-320.92 770.14,-308.15 791.95,-298.58"/>
<polygon fill="midnightblue" stroke="midnightblue" points="715.86,-328.17 708.11,-335.4 718.68,-334.58 715.86,-328.17"/>
</g>
<!-- Node20&#45;&gt;Node8 -->
<g id="edge25" class="edge">
<title>Node20&#45;&gt;Node8</title>
<path fill="none" stroke="midnightblue" d="M632.47,-271.4C582.14,-258.58 500.39,-237.74 454.67,-226.08"/>
<polygon fill="midnightblue" stroke="midnightblue" points="631.85,-274.86 642.4,-273.94 633.58,-268.07 631.85,-274.86"/>
</g>
<!-- Node21 -->
<g id="node21" class="node">
<title>Node21</title>
<g id="a_node21"><a xlink:href="d__cc__d__nonmatching_8cpp.html" target="_top" xlink:title=" ">
<polygon fill="white" stroke="black" points="749.5,-207 749.5,-226 914.5,-226 914.5,-207 749.5,-207"/>
<text text-anchor="middle" x="832" y="-214" font-family="Helvetica,sans-Serif" font-size="10.00">src/d/cc/d_cc_d_nonmatching.cpp</text>
</a>
</g>
</g>
<!-- Node20&#45;&gt;Node21 -->
<g id="edge23" class="edge">
<title>Node20&#45;&gt;Node21</title>
<path fill="none" stroke="midnightblue" d="M706.12,-269.95C737.01,-257.08 784.23,-237.4 811.2,-226.17"/>
<polygon fill="midnightblue" stroke="midnightblue" points="704.6,-266.79 696.72,-273.87 707.29,-273.25 704.6,-266.79"/>
</g>
<!-- Node22 -->
<g id="node22" class="node">
<title>Node22</title>
<g id="a_node22"><a xlink:href="d__cc__mass__s_8cpp.html" target="_top" xlink:title=" ">
<polygon fill="white" stroke="black" points="497.5,-201.5 497.5,-231.5 602.5,-231.5 602.5,-201.5 497.5,-201.5"/>
<text text-anchor="start" x="505.5" y="-219.5" font-family="Helvetica,sans-Serif" font-size="10.00">src/d/cc/d_cc_mass</text>
<text text-anchor="middle" x="550" y="-208.5" font-family="Helvetica,sans-Serif" font-size="10.00">_s.cpp</text>
</a>
</g>
</g>
<!-- Node20&#45;&gt;Node22 -->
<g id="edge24" class="edge">
<title>Node20&#45;&gt;Node22</title>
<path fill="none" stroke="midnightblue" d="M650.21,-269.19C629.01,-258.26 599.06,-242.81 577.43,-231.65"/>
<polygon fill="midnightblue" stroke="midnightblue" points="648.78,-272.39 659.27,-273.87 651.99,-266.17 648.78,-272.39"/>
</g>
<!-- Node23 -->
<g id="node23" class="node">
<title>Node23</title>
<g id="a_node23"><a xlink:href="d__cc__s_8h.html" target="_top" xlink:title=" ">
<polygon fill="white" stroke="black" points="620.5,-207 620.5,-226 731.5,-226 731.5,-207 620.5,-207"/>
<text text-anchor="middle" x="676" y="-214" font-family="Helvetica,sans-Serif" font-size="10.00">include/d/cc/d_cc_s.h</text>
</a>
</g>
</g>
<!-- Node20&#45;&gt;Node23 -->
<g id="edge26" class="edge">
<title>Node20&#45;&gt;Node23</title>
<path fill="none" stroke="midnightblue" d="M676,-263.54C676,-251.17 676,-235.62 676,-226.13"/>
<polygon fill="midnightblue" stroke="midnightblue" points="672.5,-263.73 676,-273.73 679.5,-263.73 672.5,-263.73"/>
</g>
<!-- Node24 -->
<g id="node24" class="node">
<title>Node24</title>
<g id="a_node24"><a xlink:href="d__bomb_8h.html" target="_top" xlink:title=" ">
<polygon fill="white" stroke="black" points="932.5,-207 932.5,-226 1033.5,-226 1033.5,-207 932.5,-207"/>
<text text-anchor="middle" x="983" y="-214" font-family="Helvetica,sans-Serif" font-size="10.00">include/d/d_bomb.h</text>
</a>
</g>
</g>
<!-- Node20&#45;&gt;Node24 -->
<g id="edge28" class="edge">
<title>Node20&#45;&gt;Node24</title>
<path fill="none" stroke="midnightblue" d="M723.02,-271.69C728.74,-270.42 734.5,-269.16 740,-268 821.1,-250.84 842.03,-249.74 923,-232 931.37,-230.17 940.37,-228.06 948.79,-226.04"/>
<polygon fill="midnightblue" stroke="midnightblue" points="721.84,-268.36 712.85,-273.96 723.37,-275.19 721.84,-268.36"/>
</g>
<!-- Node23&#45;&gt;Node10 -->
<g id="edge27" class="edge">
<title>Node23&#45;&gt;Node10</title>
<path fill="none" stroke="midnightblue" d="M643.65,-203.35C614.33,-192.33 571.12,-176.09 540.34,-164.53"/>
<polygon fill="midnightblue" stroke="midnightblue" points="642.43,-206.63 653.03,-206.87 644.9,-200.07 642.43,-206.63"/>
</g>
<!-- Node25 -->
<g id="node25" class="node">
<title>Node25</title>
<g id="a_node25"><a xlink:href="d__bomb_8cpp.html" target="_top" xlink:title=" ">
<polygon fill="white" stroke="black" points="936,-140 936,-159 1030,-159 1030,-140 936,-140"/>
<text text-anchor="middle" x="983" y="-147" font-family="Helvetica,sans-Serif" font-size="10.00">src/d/d_bomb.cpp</text>
</a>
</g>
</g>
<!-- Node24&#45;&gt;Node25 -->
<g id="edge29" class="edge">
<title>Node24&#45;&gt;Node25</title>
<path fill="none" stroke="midnightblue" d="M983,-196.54C983,-184.17 983,-168.62 983,-159.13"/>
<polygon fill="midnightblue" stroke="midnightblue" points="979.5,-196.73 983,-206.73 986.5,-196.73 979.5,-196.73"/>
</g>
<!-- Node26&#45;&gt;Node8 -->
<g id="edge32" class="edge">
<title>Node26&#45;&gt;Node8</title>
<path fill="none" stroke="midnightblue" d="M508.29,-268.62C486.3,-255.74 454.26,-236.98 435.73,-226.13"/>
<polygon fill="midnightblue" stroke="midnightblue" points="506.63,-271.7 517.03,-273.73 510.17,-265.66 506.63,-271.7"/>
</g>
<!-- Node26&#45;&gt;Node22 -->
<g id="edge31" class="edge">
<title>Node26&#45;&gt;Node22</title>
<path fill="none" stroke="midnightblue" d="M537.11,-264.06C539.96,-253.75 543.46,-241.1 546.1,-231.59"/>
<polygon fill="midnightblue" stroke="midnightblue" points="533.72,-263.16 534.43,-273.73 540.47,-265.03 533.72,-263.16"/>
</g>
<!-- Node26&#45;&gt;Node23 -->
<g id="edge33" class="edge">
<title>Node26&#45;&gt;Node23</title>
<path fill="none" stroke="midnightblue" d="M560.55,-269.61C589.07,-256.74 632.12,-237.31 656.8,-226.17"/>
<polygon fill="midnightblue" stroke="midnightblue" points="558.8,-266.56 551.12,-273.87 561.68,-272.94 558.8,-266.56"/>
</g>
<!-- Node27&#45;&gt;Node23 -->
<g id="edge36" class="edge">
<title>Node27&#45;&gt;Node23</title>
<path fill="none" stroke="midnightblue" d="M782.55,-264.3C754.01,-251.76 717.4,-235.68 695.37,-226.01"/>
<polygon fill="midnightblue" stroke="midnightblue" points="781.32,-267.58 791.89,-268.4 784.14,-261.17 781.32,-267.58"/>
</g>
<!-- Node28 -->
<g id="node28" class="node">
<title>Node28</title>
<g id="a_node28"><a xlink:href="c__cc__s_8cpp.html" target="_top" xlink:title=" ">
<polygon fill="white" stroke="black" points="1052,-201.5 1052,-231.5 1186,-231.5 1186,-201.5 1052,-201.5"/>
<text text-anchor="start" x="1060" y="-219.5" font-family="Helvetica,sans-Serif" font-size="10.00">libs/SSystem/SComponent</text>
<text text-anchor="middle" x="1119" y="-208.5" font-family="Helvetica,sans-Serif" font-size="10.00">/c_cc_s.cpp</text>
</a>
</g>
</g>
<!-- Node27&#45;&gt;Node28 -->
<g id="edge35" class="edge">
<title>Node27&#45;&gt;Node28</title>
<path fill="none" stroke="midnightblue" d="M897.45,-266.32C945.94,-255.63 1008.83,-241.77 1055.21,-231.55"/>
<polygon fill="midnightblue" stroke="midnightblue" points="896.66,-262.91 887.65,-268.48 898.17,-269.74 896.66,-262.91"/>
</g>
</g>
</svg>
