<?xml version="1.0" encoding="UTF-8" standalone="no"?>
<!DOCTYPE svg PUBLIC "-//W3C//DTD SVG 1.1//EN"
 "http://www.w3.org/Graphics/SVG/1.1/DTD/svg11.dtd">
<!-- Generated by graphviz version 2.44.0 ()
 -->
<!-- Title: include/SSystem/SComponent/c_m3d_g_tri.h Pages: 1 -->
<!--zoomable 430 -->
<svg id="main" version="1.1" xmlns="http://www.w3.org/2000/svg" xmlns:xlink="http://www.w3.org/1999/xlink" xml:space="preserve" onload="init(evt)">
<style type="text/css"><![CDATA[
.edge:hover path { stroke: red; }
.edge:hover polygon { stroke: red; fill: red; }
]]></style>
<script type="text/javascript"><![CDATA[
var edges = document.getElementsByTagName('g');
if (edges && edges.length) {
  for (var i=0;i<edges.length;i++) {
    if (edges[i].id.substr(0,4)=='edge') {
      edges[i].setAttribute('class','edge');
    }
  }
}
]]></script>
        <defs>
                <circle id="rim" cx="0" cy="0" r="7"/>
                <circle id="rim2" cx="0" cy="0" r="3.5"/>
                <g id="zoomPlus">
                        <use xlink:href="#rim" fill="#404040">
                                <set attributeName="fill" to="#808080" begin="zoomplus.mouseover" end="zoomplus.mouseout"/>
                        </use>
                        <path d="M-4,0h8M0,-4v8" fill="none" stroke="white" stroke-width="1.5" pointer-events="none"/>
                </g>
                <g id="zoomMin">
                        <use xlink:href="#rim" fill="#404040">
                                <set attributeName="fill" to="#808080" begin="zoomminus.mouseover" end="zoomminus.mouseout"/>
                        </use>
                        <path d="M-4,0h8" fill="none" stroke="white" stroke-width="1.5" pointer-events="none"/>
                </g>
                <g id="dirArrow">
                        <path fill="none" stroke="white" stroke-width="1.5" d="M0,-3.0v7 M-2.5,-0.5L0,-3.0L2.5,-0.5"/>
                </g>
               <g id="resetDef">
                       <use xlink:href="#rim2" fill="#404040">
                               <set attributeName="fill" to="#808080" begin="reset.mouseover" end="reset.mouseout"/>
                       </use>
               </g>
        </defs>

<script type="text/javascript">
var viewWidth = 1194;
var viewHeight = 430;
var sectionId = 'dynsection-1';
</script>
<script xlink:href="svgpan.js"/>
<svg id="graph" class="graph">
<g id="viewport">
<title>include/SSystem/SComponent/c_m3d_g_tri.h</title>
<polygon fill="white" stroke="transparent" points="-4,4 -4,-426 1190,-426 1190,4 -4,4"/>
<!-- Node1 -->
<g id="node1" class="node">
<title>Node1</title>
<g id="a_node1"><a xlink:title=" ">
<polygon fill="#bfbfbf" stroke="black" points="215.5,-391.5 215.5,-421.5 364.5,-421.5 364.5,-391.5 215.5,-391.5"/>
<text text-anchor="start" x="223.5" y="-409.5" font-family="Helvetica,sans-Serif" font-size="10.00">include/SSystem/SComponent</text>
<text text-anchor="middle" x="290" y="-398.5" font-family="Helvetica,sans-Serif" font-size="10.00">/c_m3d_g_tri.h</text>
</a>
</g>
</g>
<!-- Node2 -->
<g id="node2" class="node">
<title>Node2</title>
<g id="a_node2"><a xlink:href="c__m3d__g__tri_8cpp.html" target="_top" xlink:title=" ">
<polygon fill="white" stroke="black" points="0,-324.5 0,-354.5 134,-354.5 134,-324.5 0,-324.5"/>
<text text-anchor="start" x="8" y="-342.5" font-family="Helvetica,sans-Serif" font-size="10.00">libs/SSystem/SComponent</text>
<text text-anchor="middle" x="67" y="-331.5" font-family="Helvetica,sans-Serif" font-size="10.00">/c_m3d_g_tri.cpp</text>
</a>
</g>
</g>
<!-- Node1&#45;&gt;Node2 -->
<g id="edge1" class="edge">
<title>Node1&#45;&gt;Node2</title>
<path fill="none" stroke="midnightblue" d="M231.95,-388.58C195.73,-378.02 149.65,-364.59 115.41,-354.61"/>
<polygon fill="midnightblue" stroke="midnightblue" points="231.31,-392.04 241.89,-391.48 233.27,-385.32 231.31,-392.04"/>
</g>
<!-- Node3 -->
<g id="node3" class="node">
<title>Node3</title>
<g id="a_node3"><a xlink:href="c__m3d_8cpp.html" target="_top" xlink:title=" ">
<polygon fill="white" stroke="black" points="152,-324.5 152,-354.5 286,-354.5 286,-324.5 152,-324.5"/>
<text text-anchor="start" x="160" y="-342.5" font-family="Helvetica,sans-Serif" font-size="10.00">libs/SSystem/SComponent</text>
<text text-anchor="middle" x="219" y="-331.5" font-family="Helvetica,sans-Serif" font-size="10.00">/c_m3d.cpp</text>
</a>
</g>
</g>
<!-- Node1&#45;&gt;Node3 -->
<g id="edge2" class="edge">
<title>Node1&#45;&gt;Node3</title>
<path fill="none" stroke="midnightblue" d="M267.17,-384.6C256.45,-374.78 243.95,-363.34 234.38,-354.58"/>
<polygon fill="midnightblue" stroke="midnightblue" points="264.85,-387.22 274.59,-391.4 269.58,-382.06 264.85,-387.22"/>
</g>
<!-- Node4 -->
<g id="node4" class="node">
<title>Node4</title>
<g id="a_node4"><a xlink:href="d__bg__w_8h.html" target="_top" xlink:title=" ">
<polygon fill="white" stroke="black" points="304.5,-330 304.5,-349 417.5,-349 417.5,-330 304.5,-330"/>
<text text-anchor="middle" x="361" y="-337" font-family="Helvetica,sans-Serif" font-size="10.00">include/d/bg/d_bg_w.h</text>
</a>
</g>
</g>
<!-- Node1&#45;&gt;Node4 -->
<g id="edge3" class="edge">
<title>Node1&#45;&gt;Node4</title>
<path fill="none" stroke="midnightblue" d="M313.12,-384.34C326.15,-372.4 341.74,-358.14 351.5,-349.19"/>
<polygon fill="midnightblue" stroke="midnightblue" points="310.42,-382.06 305.41,-391.4 315.15,-387.22 310.42,-382.06"/>
</g>
<!-- Node16 -->
<g id="node16" class="node">
<title>Node16</title>
<g id="a_node16"><a xlink:href="c__cc__d_8h.html" target="_top" xlink:title=" ">
<polygon fill="white" stroke="black" points="601.5,-324.5 601.5,-354.5 750.5,-354.5 750.5,-324.5 601.5,-324.5"/>
<text text-anchor="start" x="609.5" y="-342.5" font-family="Helvetica,sans-Serif" font-size="10.00">include/SSystem/SComponent</text>
<text text-anchor="middle" x="676" y="-331.5" font-family="Helvetica,sans-Serif" font-size="10.00">/c_cc_d.h</text>
</a>
</g>
</g>
<!-- Node1&#45;&gt;Node16 -->
<g id="edge18" class="edge">
<title>Node1&#45;&gt;Node16</title>
<path fill="none" stroke="midnightblue" d="M375.09,-391.17C442.77,-379.77 536.53,-363.99 601.33,-353.07"/>
<polygon fill="midnightblue" stroke="midnightblue" points="374.16,-387.78 364.88,-392.89 375.32,-394.68 374.16,-387.78"/>
</g>
<!-- Node5 -->
<g id="node5" class="node">
<title>Node5</title>
<g id="a_node5"><a xlink:href="d__bg__w_8cpp.html" target="_top" xlink:title=" ">
<polygon fill="white" stroke="black" points="180.5,-263 180.5,-282 287.5,-282 287.5,-263 180.5,-263"/>
<text text-anchor="middle" x="234" y="-270" font-family="Helvetica,sans-Serif" font-size="10.00">src/d/bg/d_bg_w.cpp</text>
</a>
</g>
</g>
<!-- Node4&#45;&gt;Node5 -->
<g id="edge4" class="edge">
<title>Node4&#45;&gt;Node5</title>
<path fill="none" stroke="midnightblue" d="M335.16,-325.27C310,-312.4 272.51,-293.21 250.93,-282.17"/>
<polygon fill="midnightblue" stroke="midnightblue" points="333.64,-328.43 344.14,-329.87 336.83,-322.2 333.64,-328.43"/>
</g>
<!-- Node6 -->
<g id="node6" class="node">
<title>Node6</title>
<g id="a_node6"><a xlink:href="d__bg__s_8h.html" target="_top" xlink:title=" ">
<polygon fill="white" stroke="black" points="305.5,-263 305.5,-282 416.5,-282 416.5,-263 305.5,-263"/>
<text text-anchor="middle" x="361" y="-270" font-family="Helvetica,sans-Serif" font-size="10.00">include/d/bg/d_bg_s.h</text>
</a>
</g>
</g>
<!-- Node4&#45;&gt;Node6 -->
<g id="edge5" class="edge">
<title>Node4&#45;&gt;Node6</title>
<path fill="none" stroke="midnightblue" d="M361,-319.54C361,-307.17 361,-291.62 361,-282.13"/>
<polygon fill="midnightblue" stroke="midnightblue" points="357.5,-319.73 361,-329.73 364.5,-319.73 357.5,-319.73"/>
</g>
<!-- Node7 -->
<g id="node7" class="node">
<title>Node7</title>
<g id="a_node7"><a xlink:href="d__bg__s_8cpp.html" target="_top" xlink:title=" ">
<polygon fill="white" stroke="black" points="203,-196 203,-215 307,-215 307,-196 203,-196"/>
<text text-anchor="middle" x="255" y="-203" font-family="Helvetica,sans-Serif" font-size="10.00">src/d/bg/d_bg_s.cpp</text>
</a>
</g>
</g>
<!-- Node6&#45;&gt;Node7 -->
<g id="edge6" class="edge">
<title>Node6&#45;&gt;Node7</title>
<path fill="none" stroke="midnightblue" d="M338.08,-257.44C317.08,-244.57 286.68,-225.93 269.07,-215.13"/>
<polygon fill="midnightblue" stroke="midnightblue" points="336.35,-260.49 346.7,-262.73 340.01,-254.52 336.35,-260.49"/>
</g>
<!-- Node8 -->
<g id="node8" class="node">
<title>Node8</title>
<g id="a_node8"><a xlink:href="d__a__alink_8h.html" target="_top" xlink:title=" ">
<polygon fill="white" stroke="black" points="363,-196 363,-215 479,-215 479,-196 363,-196"/>
<text text-anchor="middle" x="421" y="-203" font-family="Helvetica,sans-Serif" font-size="10.00">include/d/a/d_a_alink.h</text>
</a>
</g>
</g>
<!-- Node6&#45;&gt;Node8 -->
<g id="edge7" class="edge">
<title>Node6&#45;&gt;Node8</title>
<path fill="none" stroke="midnightblue" d="M376.11,-255.13C387.84,-242.42 403.65,-225.3 413.04,-215.13"/>
<polygon fill="midnightblue" stroke="midnightblue" points="373.3,-253.01 369.09,-262.73 378.45,-257.76 373.3,-253.01"/>
</g>
<!-- Node10 -->
<g id="node10" class="node">
<title>Node10</title>
<g id="a_node10"><a xlink:href="d__com__inf__game_8h.html" target="_top" xlink:title=" ">
<polygon fill="white" stroke="black" points="416,-123.5 416,-153.5 526,-153.5 526,-123.5 416,-123.5"/>
<text text-anchor="start" x="424" y="-141.5" font-family="Helvetica,sans-Serif" font-size="10.00">include/d/com/d_com</text>
<text text-anchor="middle" x="471" y="-130.5" font-family="Helvetica,sans-Serif" font-size="10.00">_inf_game.h</text>
</a>
</g>
</g>
<!-- Node6&#45;&gt;Node10 -->
<g id="edge17" class="edge">
<title>Node6&#45;&gt;Node10</title>
<path fill="none" stroke="midnightblue" d="M353.31,-253.11C347.24,-235.46 341.66,-208.77 354,-190 367.86,-168.93 392.57,-156.61 415.73,-149.42"/>
<polygon fill="midnightblue" stroke="midnightblue" points="350.16,-254.69 356.99,-262.79 356.7,-252.2 350.16,-254.69"/>
</g>
<!-- Node9 -->
<g id="node9" class="node">
<title>Node9</title>
<g id="a_node9"><a xlink:href="d__a__alink_8cpp.html" target="_top" xlink:title=" ">
<polygon fill="white" stroke="black" points="233.5,-67.5 233.5,-86.5 342.5,-86.5 342.5,-67.5 233.5,-67.5"/>
<text text-anchor="middle" x="288" y="-74.5" font-family="Helvetica,sans-Serif" font-size="10.00">src/d/a/d_a_alink.cpp</text>
</a>
</g>
</g>
<!-- Node8&#45;&gt;Node9 -->
<g id="edge8" class="edge">
<title>Node8&#45;&gt;Node9</title>
<path fill="none" stroke="midnightblue" d="M404.36,-188.67C376.04,-161.74 319.39,-107.85 297.21,-86.76"/>
<polygon fill="midnightblue" stroke="midnightblue" points="402.2,-191.45 411.86,-195.81 407.02,-186.38 402.2,-191.45"/>
</g>
<!-- Node8&#45;&gt;Node10 -->
<g id="edge9" class="edge">
<title>Node8&#45;&gt;Node10</title>
<path fill="none" stroke="midnightblue" d="M433.94,-187.67C442.08,-177.09 452.46,-163.6 460.16,-153.59"/>
<polygon fill="midnightblue" stroke="midnightblue" points="431.07,-185.67 427.74,-195.73 436.61,-189.94 431.07,-185.67"/>
</g>
<!-- Node10&#45;&gt;Node9 -->
<g id="edge11" class="edge">
<title>Node10&#45;&gt;Node9</title>
<path fill="none" stroke="midnightblue" d="M417.85,-120.22C383.88,-109.17 341.3,-95.33 314.36,-86.57"/>
<polygon fill="midnightblue" stroke="midnightblue" points="417.04,-123.64 427.63,-123.4 419.2,-116.98 417.04,-123.64"/>
</g>
<!-- Node11 -->
<g id="node11" class="node">
<title>Node11</title>
<g id="a_node11"><a xlink:href="d__com__inf__game_8cpp.html" target="_top" xlink:title=" ">
<polygon fill="white" stroke="black" points="586,-0.5 586,-30.5 694,-30.5 694,-0.5 586,-0.5"/>
<text text-anchor="start" x="594" y="-18.5" font-family="Helvetica,sans-Serif" font-size="10.00">src/d/com/d_com_inf</text>
<text text-anchor="middle" x="640" y="-7.5" font-family="Helvetica,sans-Serif" font-size="10.00">_game.cpp</text>
</a>
</g>
</g>
<!-- Node10&#45;&gt;Node11 -->
<g id="edge10" class="edge">
<title>Node10&#45;&gt;Node11</title>
<path fill="none" stroke="midnightblue" d="M536.33,-134.32C606.45,-129.38 711.14,-117.05 736,-87 755.71,-63.18 719.66,-43.14 686.25,-30.59"/>
<polygon fill="midnightblue" stroke="midnightblue" points="536,-130.83 526.25,-135 536.47,-137.82 536,-130.83"/>
</g>
<!-- Node12 -->
<g id="node12" class="node">
<title>Node12</title>
<g id="a_node12"><a xlink:href="d__event_8cpp.html" target="_top" xlink:title=" ">
<polygon fill="white" stroke="black" points="473.5,-67.5 473.5,-86.5 594.5,-86.5 594.5,-67.5 473.5,-67.5"/>
<text text-anchor="middle" x="534" y="-74.5" font-family="Helvetica,sans-Serif" font-size="10.00">src/d/event/d_event.cpp</text>
</a>
</g>
</g>
<!-- Node10&#45;&gt;Node12 -->
<g id="edge12" class="edge">
<title>Node10&#45;&gt;Node12</title>
<path fill="none" stroke="midnightblue" d="M493.45,-116.3C504.26,-106.09 516.63,-94.41 524.83,-86.66"/>
<polygon fill="midnightblue" stroke="midnightblue" points="490.8,-113.99 485.93,-123.4 495.6,-119.08 490.8,-113.99"/>
</g>
<!-- Node13 -->
<g id="node13" class="node">
<title>Node13</title>
<g id="a_node13"><a xlink:href="d__save_8cpp.html" target="_top" xlink:title=" ">
<polygon fill="white" stroke="black" points="612.5,-67.5 612.5,-86.5 727.5,-86.5 727.5,-67.5 612.5,-67.5"/>
<text text-anchor="middle" x="670" y="-74.5" font-family="Helvetica,sans-Serif" font-size="10.00">src/d/save/d_save.cpp</text>
</a>
</g>
</g>
<!-- Node10&#45;&gt;Node13 -->
<g id="edge13" class="edge">
<title>Node10&#45;&gt;Node13</title>
<path fill="none" stroke="midnightblue" d="M527.63,-120.57C564.85,-109.44 611.96,-95.35 641.55,-86.51"/>
<polygon fill="midnightblue" stroke="midnightblue" points="526.49,-117.26 517.91,-123.47 528.49,-123.96 526.49,-117.26"/>
</g>
<!-- Node14 -->
<g id="node14" class="node">
<title>Node14</title>
<g id="a_node14"><a xlink:href="d__item_8h.html" target="_top" xlink:title=" ">
<polygon fill="white" stroke="black" points="360.5,-67.5 360.5,-86.5 455.5,-86.5 455.5,-67.5 360.5,-67.5"/>
<text text-anchor="middle" x="408" y="-74.5" font-family="Helvetica,sans-Serif" font-size="10.00">include/d/d_item.h</text>
</a>
</g>
</g>
<!-- Node10&#45;&gt;Node14 -->
<g id="edge14" class="edge">
<title>Node10&#45;&gt;Node14</title>
<path fill="none" stroke="midnightblue" d="M448.55,-116.3C437.74,-106.09 425.37,-94.41 417.17,-86.66"/>
<polygon fill="midnightblue" stroke="midnightblue" points="446.4,-119.08 456.07,-123.4 451.2,-113.99 446.4,-119.08"/>
</g>
<!-- Node14&#45;&gt;Node11 -->
<g id="edge15" class="edge">
<title>Node14&#45;&gt;Node11</title>
<path fill="none" stroke="midnightblue" d="M450.99,-64.97C489.02,-55.22 544.69,-40.94 585.77,-30.41"/>
<polygon fill="midnightblue" stroke="midnightblue" points="450.06,-61.6 441.24,-67.48 451.8,-68.38 450.06,-61.6"/>
</g>
<!-- Node15 -->
<g id="node15" class="node">
<title>Node15</title>
<g id="a_node15"><a xlink:href="d__item_8cpp.html" target="_top" xlink:title=" ">
<polygon fill="white" stroke="black" points="363.5,-6 363.5,-25 452.5,-25 452.5,-6 363.5,-6"/>
<text text-anchor="middle" x="408" y="-13" font-family="Helvetica,sans-Serif" font-size="10.00">src/d/d_item.cpp</text>
</a>
</g>
</g>
<!-- Node14&#45;&gt;Node15 -->
<g id="edge16" class="edge">
<title>Node14&#45;&gt;Node15</title>
<path fill="none" stroke="midnightblue" d="M408,-57.32C408,-46.5 408,-33.4 408,-25.01"/>
<polygon fill="midnightblue" stroke="midnightblue" points="404.5,-57.48 408,-67.48 411.5,-57.48 404.5,-57.48"/>
</g>
<!-- Node17 -->
<g id="node17" class="node">
<title>Node17</title>
<g id="a_node17"><a xlink:href="c__cc__d_8cpp.html" target="_top" xlink:title=" ">
<polygon fill="white" stroke="black" points="917,-257.5 917,-287.5 1051,-287.5 1051,-257.5 917,-257.5"/>
<text text-anchor="start" x="925" y="-275.5" font-family="Helvetica,sans-Serif" font-size="10.00">libs/SSystem/SComponent</text>
<text text-anchor="middle" x="984" y="-264.5" font-family="Helvetica,sans-Serif" font-size="10.00">/c_cc_d.cpp</text>
</a>
</g>
</g>
<!-- Node16&#45;&gt;Node17 -->
<g id="edge19" class="edge">
<title>Node16&#45;&gt;Node17</title>
<path fill="none" stroke="midnightblue" d="M752.37,-322.38C803.03,-311.69 868.87,-297.8 917.4,-287.55"/>
<polygon fill="midnightblue" stroke="midnightblue" points="751.51,-318.99 742.45,-324.48 752.96,-325.84 751.51,-318.99"/>
</g>
<!-- Node18 -->
<g id="node18" class="node">
<title>Node18</title>
<g id="a_node18"><a xlink:href="d__cc__d_8h.html" target="_top" xlink:title=" ">
<polygon fill="white" stroke="black" points="620.5,-263 620.5,-282 731.5,-282 731.5,-263 620.5,-263"/>
<text text-anchor="middle" x="676" y="-270" font-family="Helvetica,sans-Serif" font-size="10.00">include/d/cc/d_cc_d.h</text>
</a>
</g>
</g>
<!-- Node16&#45;&gt;Node18 -->
<g id="edge20" class="edge">
<title>Node16&#45;&gt;Node18</title>
<path fill="none" stroke="midnightblue" d="M676,-314.25C676,-303.02 676,-290.38 676,-282.19"/>
<polygon fill="midnightblue" stroke="midnightblue" points="672.5,-314.4 676,-324.4 679.5,-314.4 672.5,-314.4"/>
</g>
<!-- Node24 -->
<g id="node24" class="node">
<title>Node24</title>
<g id="a_node24"><a xlink:href="d__cc__mass__s_8h.html" target="_top" xlink:title=" ">
<polygon fill="white" stroke="black" points="462,-263 462,-282 602,-282 602,-263 462,-263"/>
<text text-anchor="middle" x="532" y="-270" font-family="Helvetica,sans-Serif" font-size="10.00">include/d/cc/d_cc_mass_s.h</text>
</a>
</g>
</g>
<!-- Node16&#45;&gt;Node24 -->
<g id="edge28" class="edge">
<title>Node16&#45;&gt;Node24</title>
<path fill="none" stroke="midnightblue" d="M635.31,-320.13C607.59,-307.62 572.19,-291.64 550.85,-282.01"/>
<polygon fill="midnightblue" stroke="midnightblue" points="634.2,-323.47 644.75,-324.4 637.08,-317.09 634.2,-323.47"/>
</g>
<!-- Node25 -->
<g id="node25" class="node">
<title>Node25</title>
<g id="a_node25"><a xlink:href="c__cc__s_8h.html" target="_top" xlink:title=" ">
<polygon fill="white" stroke="black" points="749.5,-257.5 749.5,-287.5 898.5,-287.5 898.5,-257.5 749.5,-257.5"/>
<text text-anchor="start" x="757.5" y="-275.5" font-family="Helvetica,sans-Serif" font-size="10.00">include/SSystem/SComponent</text>
<text text-anchor="middle" x="824" y="-264.5" font-family="Helvetica,sans-Serif" font-size="10.00">/c_cc_s.h</text>
</a>
</g>
</g>
<!-- Node16&#45;&gt;Node25 -->
<g id="edge32" class="edge">
<title>Node16&#45;&gt;Node25</title>
<path fill="none" stroke="midnightblue" d="M717.51,-320.27C741.08,-309.92 770.14,-297.15 791.95,-287.58"/>
<polygon fill="midnightblue" stroke="midnightblue" points="715.86,-317.17 708.11,-324.4 718.68,-323.58 715.86,-317.17"/>
</g>
<!-- Node18&#45;&gt;Node8 -->
<g id="edge23" class="edge">
<title>Node18&#45;&gt;Node8</title>
<path fill="none" stroke="midnightblue" d="M632.47,-260.4C582.14,-247.58 500.39,-226.74 454.67,-215.08"/>
<polygon fill="midnightblue" stroke="midnightblue" points="631.85,-263.86 642.4,-262.94 633.58,-257.07 631.85,-263.86"/>
</g>
<!-- Node19 -->
<g id="node19" class="node">
<title>Node19</title>
<g id="a_node19"><a xlink:href="d__cc__d__nonmatching_8cpp.html" target="_top" xlink:title=" ">
<polygon fill="white" stroke="black" points="749.5,-196 749.5,-215 914.5,-215 914.5,-196 749.5,-196"/>
<text text-anchor="middle" x="832" y="-203" font-family="Helvetica,sans-Serif" font-size="10.00">src/d/cc/d_cc_d_nonmatching.cpp</text>
</a>
</g>
</g>
<!-- Node18&#45;&gt;Node19 -->
<g id="edge21" class="edge">
<title>Node18&#45;&gt;Node19</title>
<path fill="none" stroke="midnightblue" d="M706.12,-258.95C737.01,-246.08 784.23,-226.4 811.2,-215.17"/>
<polygon fill="midnightblue" stroke="midnightblue" points="704.6,-255.79 696.72,-262.87 707.29,-262.25 704.6,-255.79"/>
</g>
<!-- Node20 -->
<g id="node20" class="node">
<title>Node20</title>
<g id="a_node20"><a xlink:href="d__cc__mass__s_8cpp.html" target="_top" xlink:title=" ">
<polygon fill="white" stroke="black" points="497.5,-190.5 497.5,-220.5 602.5,-220.5 602.5,-190.5 497.5,-190.5"/>
<text text-anchor="start" x="505.5" y="-208.5" font-family="Helvetica,sans-Serif" font-size="10.00">src/d/cc/d_cc_mass</text>
<text text-anchor="middle" x="550" y="-197.5" font-family="Helvetica,sans-Serif" font-size="10.00">_s.cpp</text>
</a>
</g>
</g>
<!-- Node18&#45;&gt;Node20 -->
<g id="edge22" class="edge">
<title>Node18&#45;&gt;Node20</title>
<path fill="none" stroke="midnightblue" d="M650.21,-258.19C629.01,-247.26 599.06,-231.81 577.43,-220.65"/>
<polygon fill="midnightblue" stroke="midnightblue" points="648.78,-261.39 659.27,-262.87 651.99,-255.17 648.78,-261.39"/>
</g>
<!-- Node21 -->
<g id="node21" class="node">
<title>Node21</title>
<g id="a_node21"><a xlink:href="d__cc__s_8h.html" target="_top" xlink:title=" ">
<polygon fill="white" stroke="black" points="620.5,-196 620.5,-215 731.5,-215 731.5,-196 620.5,-196"/>
<text text-anchor="middle" x="676" y="-203" font-family="Helvetica,sans-Serif" font-size="10.00">include/d/cc/d_cc_s.h</text>
</a>
</g>
</g>
<!-- Node18&#45;&gt;Node21 -->
<g id="edge24" class="edge">
<title>Node18&#45;&gt;Node21</title>
<path fill="none" stroke="midnightblue" d="M676,-252.54C676,-240.17 676,-224.62 676,-215.13"/>
<polygon fill="midnightblue" stroke="midnightblue" points="672.5,-252.73 676,-262.73 679.5,-252.73 672.5,-252.73"/>
</g>
<!-- Node22 -->
<g id="node22" class="node">
<title>Node22</title>
<g id="a_node22"><a xlink:href="d__bomb_8h.html" target="_top" xlink:title=" ">
<polygon fill="white" stroke="black" points="932.5,-196 932.5,-215 1033.5,-215 1033.5,-196 932.5,-196"/>
<text text-anchor="middle" x="983" y="-203" font-family="Helvetica,sans-Serif" font-size="10.00">include/d/d_bomb.h</text>
</a>
</g>
</g>
<!-- Node18&#45;&gt;Node22 -->
<g id="edge26" class="edge">
<title>Node18&#45;&gt;Node22</title>
<path fill="none" stroke="midnightblue" d="M723.02,-260.69C728.74,-259.42 734.5,-258.16 740,-257 821.1,-239.84 842.03,-238.74 923,-221 931.37,-219.17 940.37,-217.06 948.79,-215.04"/>
<polygon fill="midnightblue" stroke="midnightblue" points="721.84,-257.36 712.85,-262.96 723.37,-264.19 721.84,-257.36"/>
</g>
<!-- Node21&#45;&gt;Node10 -->
<g id="edge25" class="edge">
<title>Node21&#45;&gt;Node10</title>
<path fill="none" stroke="midnightblue" d="M639.02,-192.77C604.26,-181.75 552.19,-165.24 515.24,-153.53"/>
<polygon fill="midnightblue" stroke="midnightblue" points="638.19,-196.18 648.78,-195.87 640.3,-189.51 638.19,-196.18"/>
</g>
<!-- Node23 -->
<g id="node23" class="node">
<title>Node23</title>
<g id="a_node23"><a xlink:href="d__bomb_8cpp.html" target="_top" xlink:title=" ">
<polygon fill="white" stroke="black" points="936,-129 936,-148 1030,-148 1030,-129 936,-129"/>
<text text-anchor="middle" x="983" y="-136" font-family="Helvetica,sans-Serif" font-size="10.00">src/d/d_bomb.cpp</text>
</a>
</g>
</g>
<!-- Node22&#45;&gt;Node23 -->
<g id="edge27" class="edge">
<title>Node22&#45;&gt;Node23</title>
<path fill="none" stroke="midnightblue" d="M983,-185.54C983,-173.17 983,-157.62 983,-148.13"/>
<polygon fill="midnightblue" stroke="midnightblue" points="979.5,-185.73 983,-195.73 986.5,-185.73 979.5,-185.73"/>
</g>
<!-- Node24&#45;&gt;Node8 -->
<g id="edge30" class="edge">
<title>Node24&#45;&gt;Node8</title>
<path fill="none" stroke="midnightblue" d="M508.29,-257.62C486.3,-244.74 454.26,-225.98 435.73,-215.13"/>
<polygon fill="midnightblue" stroke="midnightblue" points="506.63,-260.7 517.03,-262.73 510.17,-254.66 506.63,-260.7"/>
</g>
<!-- Node24&#45;&gt;Node20 -->
<g id="edge29" class="edge">
<title>Node24&#45;&gt;Node20</title>
<path fill="none" stroke="midnightblue" d="M537.11,-253.06C539.96,-242.75 543.46,-230.1 546.1,-220.59"/>
<polygon fill="midnightblue" stroke="midnightblue" points="533.72,-252.16 534.43,-262.73 540.47,-254.03 533.72,-252.16"/>
</g>
<!-- Node24&#45;&gt;Node21 -->
<g id="edge31" class="edge">
<title>Node24&#45;&gt;Node21</title>
<path fill="none" stroke="midnightblue" d="M560.55,-258.61C589.07,-245.74 632.12,-226.31 656.8,-215.17"/>
<polygon fill="midnightblue" stroke="midnightblue" points="558.8,-255.56 551.12,-262.87 561.68,-261.94 558.8,-255.56"/>
</g>
<!-- Node25&#45;&gt;Node21 -->
<g id="edge34" class="edge">
<title>Node25&#45;&gt;Node21</title>
<path fill="none" stroke="midnightblue" d="M782.55,-253.3C754.01,-240.76 717.4,-224.68 695.37,-215.01"/>
<polygon fill="midnightblue" stroke="midnightblue" points="781.32,-256.58 791.89,-257.4 784.14,-250.17 781.32,-256.58"/>
</g>
<!-- Node26 -->
<g id="node26" class="node">
<title>Node26</title>
<g id="a_node26"><a xlink:href="c__cc__s_8cpp.html" target="_top" xlink:title=" ">
<polygon fill="white" stroke="black" points="1052,-190.5 1052,-220.5 1186,-220.5 1186,-190.5 1052,-190.5"/>
<text text-anchor="start" x="1060" y="-208.5" font-family="Helvetica,sans-Serif" font-size="10.00">libs/SSystem/SComponent</text>
<text text-anchor="middle" x="1119" y="-197.5" font-family="Helvetica,sans-Serif" font-size="10.00">/c_cc_s.cpp</text>
</a>
</g>
</g>
<!-- Node25&#45;&gt;Node26 -->
<g id="edge33" class="edge">
<title>Node25&#45;&gt;Node26</title>
<path fill="none" stroke="midnightblue" d="M897.45,-255.32C945.94,-244.63 1008.83,-230.77 1055.21,-220.55"/>
<polygon fill="midnightblue" stroke="midnightblue" points="896.66,-251.91 887.65,-257.48 898.17,-258.74 896.66,-251.91"/>
</g>
</g>
</svg>
        <g id="navigator" transform="translate(0 0)" fill="#404254">
                <rect fill="#f2f5e9" fill-opacity="0.5" stroke="#606060" stroke-width=".5" x="0" y="0" width="60" height="60"/>
                <use id="zoomplus" xlink:href="#zoomPlus" x="17" y="9" onmousedown="handleZoom(evt,'in')"/>
                <use id="zoomminus" xlink:href="#zoomMin" x="42" y="9" onmousedown="handleZoom(evt,'out')"/>
                <use id="reset" xlink:href="#resetDef" x="30" y="36" onmousedown="handleReset()"/>
                <g id="arrowUp" xlink:href="#dirArrow" transform="translate(30 24)" onmousedown="handlePan(0,-1)">
                  <use xlink:href="#rim" fill="#404040">
                        <set attributeName="fill" to="#808080" begin="arrowUp.mouseover" end="arrowUp.mouseout"/>
                  </use>
                  <path fill="none" stroke="white" stroke-width="1.5" d="M0,-3.0v7 M-2.5,-0.5L0,-3.0L2.5,-0.5"/>
                </g>
                <g id="arrowRight" xlink:href="#dirArrow" transform="rotate(90) translate(36 -43)" onmousedown="handlePan(1,0)">
                  <use xlink:href="#rim" fill="#404040">
                        <set attributeName="fill" to="#808080" begin="arrowRight.mouseover" end="arrowRight.mouseout"/>
                  </use>
                  <path fill="none" stroke="white" stroke-width="1.5" d="M0,-3.0v7 M-2.5,-0.5L0,-3.0L2.5,-0.5"/>
                </g>
                <g id="arrowDown" xlink:href="#dirArrow" transform="rotate(180) translate(-30 -48)" onmousedown="handlePan(0,1)">
                  <use xlink:href="#rim" fill="#404040">
                        <set attributeName="fill" to="#808080" begin="arrowDown.mouseover" end="arrowDown.mouseout"/>
                  </use>
                  <path fill="none" stroke="white" stroke-width="1.5" d="M0,-3.0v7 M-2.5,-0.5L0,-3.0L2.5,-0.5"/>
                </g>
                <g id="arrowLeft" xlink:href="#dirArrow" transform="rotate(270) translate(-36 17)" onmousedown="handlePan(-1,0)">
                  <use xlink:href="#rim" fill="#404040">
                        <set attributeName="fill" to="#808080" begin="arrowLeft.mouseover" end="arrowLeft.mouseout"/>
                  </use>
                  <path fill="none" stroke="white" stroke-width="1.5" d="M0,-3.0v7 M-2.5,-0.5L0,-3.0L2.5,-0.5"/>
                </g>
        </g>
        <svg viewBox="0 0 15 15" width="100%" height="30px" preserveAspectRatio="xMaxYMin meet">
         <g id="arrow_out" transform="scale(0.3 0.3)">
          <a xlink:href="c__m3d__g__tri_8h__dep__incl_org.svg" target="_base">
           <rect id="button" ry="5" rx="5" y="6" x="6" height="38" width="38"
                fill="#f2f5e9" fill-opacity="0.5" stroke="#606060" stroke-width="1.0"/>
           <path id="arrow"
             d="M 11.500037,31.436501 C 11.940474,20.09759 22.043105,11.32322 32.158766,21.979434 L 37.068811,17.246167 C 37.068811,17.246167 37.088388,32 37.088388,32 L 22.160133,31.978069 C 22.160133,31.978069 26.997745,27.140456 26.997745,27.140456 C 18.528582,18.264221 13.291696,25.230495 11.500037,31.436501 z"
             style="fill:#404040;"/>
          </a>
         </g>
        </svg>
</svg>
