<?xml version="1.0" encoding="UTF-8" standalone="no"?>
<!DOCTYPE svg PUBLIC "-//W3C//DTD SVG 1.1//EN"
 "http://www.w3.org/Graphics/SVG/1.1/DTD/svg11.dtd">
<!-- Generated by graphviz version 2.44.0 ()
 -->
<!-- Title: include/SSystem/SComponent/c_phase.h Pages: 1 -->
<!--zoomable 307 -->
<svg id="main" version="1.1" xmlns="http://www.w3.org/2000/svg" xmlns:xlink="http://www.w3.org/1999/xlink" xml:space="preserve" onload="init(evt)">
<style type="text/css"><![CDATA[
.edge:hover path { stroke: red; }
.edge:hover polygon { stroke: red; fill: red; }
]]></style>
<script type="text/javascript"><![CDATA[
var edges = document.getElementsByTagName('g');
if (edges && edges.length) {
  for (var i=0;i<edges.length;i++) {
    if (edges[i].id.substr(0,4)=='edge') {
      edges[i].setAttribute('class','edge');
    }
  }
}
]]></script>
        <defs>
                <circle id="rim" cx="0" cy="0" r="7"/>
                <circle id="rim2" cx="0" cy="0" r="3.5"/>
                <g id="zoomPlus">
                        <use xlink:href="#rim" fill="#404040">
                                <set attributeName="fill" to="#808080" begin="zoomplus.mouseover" end="zoomplus.mouseout"/>
                        </use>
                        <path d="M-4,0h8M0,-4v8" fill="none" stroke="white" stroke-width="1.5" pointer-events="none"/>
                </g>
                <g id="zoomMin">
                        <use xlink:href="#rim" fill="#404040">
                                <set attributeName="fill" to="#808080" begin="zoomminus.mouseover" end="zoomminus.mouseout"/>
                        </use>
                        <path d="M-4,0h8" fill="none" stroke="white" stroke-width="1.5" pointer-events="none"/>
                </g>
                <g id="dirArrow">
                        <path fill="none" stroke="white" stroke-width="1.5" d="M0,-3.0v7 M-2.5,-0.5L0,-3.0L2.5,-0.5"/>
                </g>
               <g id="resetDef">
                       <use xlink:href="#rim2" fill="#404040">
                               <set attributeName="fill" to="#808080" begin="reset.mouseover" end="reset.mouseout"/>
                       </use>
               </g>
        </defs>

<script type="text/javascript">
var viewWidth = 1511;
var viewHeight = 307;
var sectionId = 'dynsection-1';
</script>
<script xlink:href="svgpan.js"/>
<svg id="graph" class="graph">
<g id="viewport">
<title>include/SSystem/SComponent/c_phase.h</title>
<polygon fill="white" stroke="transparent" points="-4,4 -4,-303 1506.5,-303 1506.5,4 -4,4"/>
<!-- Node1 -->
<g id="node1" class="node">
<title>Node1</title>
<g id="a_node1"><a xlink:title=" ">
<polygon fill="#bfbfbf" stroke="black" points="411.5,-268.5 411.5,-298.5 560.5,-298.5 560.5,-268.5 411.5,-268.5"/>
<text text-anchor="start" x="419.5" y="-286.5" font-family="Helvetica,sans-Serif" font-size="10.00">include/SSystem/SComponent</text>
<text text-anchor="middle" x="486" y="-275.5" font-family="Helvetica,sans-Serif" font-size="10.00">/c_phase.h</text>
</a>
</g>
</g>
<!-- Node2 -->
<g id="node2" class="node">
<title>Node2</title>
<g id="a_node2"><a xlink:href="f__pc__base_8cpp.html" target="_top" xlink:title=" ">
<polygon fill="white" stroke="black" points="0,-207 0,-226 118,-226 118,-207 0,-207"/>
<text text-anchor="middle" x="59" y="-214" font-family="Helvetica,sans-Serif" font-size="10.00">src/f_pc/f_pc_base.cpp</text>
</a>
</g>
</g>
<!-- Node1&#45;&gt;Node2 -->
<g id="edge1" class="edge">
<title>Node1&#45;&gt;Node2</title>
<path fill="none" stroke="midnightblue" d="M401.11,-272.27C328.19,-263.07 220.38,-248.5 127,-232 117.13,-230.26 106.52,-228.12 96.67,-226.03"/>
<polygon fill="midnightblue" stroke="midnightblue" points="400.8,-275.76 411.16,-273.53 401.67,-268.81 400.8,-275.76"/>
</g>
<!-- Node3 -->
<g id="node3" class="node">
<title>Node3</title>
<g id="a_node3"><a xlink:href="f__pc__load_8cpp.html" target="_top" xlink:title=" ">
<polygon fill="white" stroke="black" points="136.5,-207 136.5,-226 251.5,-226 251.5,-207 136.5,-207"/>
<text text-anchor="middle" x="194" y="-214" font-family="Helvetica,sans-Serif" font-size="10.00">src/f_pc/f_pc_load.cpp</text>
</a>
</g>
</g>
<!-- Node1&#45;&gt;Node3 -->
<g id="edge2" class="edge">
<title>Node1&#45;&gt;Node3</title>
<path fill="none" stroke="midnightblue" d="M412.9,-266.23C355.57,-253.47 278.06,-236.21 232.31,-226.03"/>
<polygon fill="midnightblue" stroke="midnightblue" points="412.48,-269.72 423,-268.48 414,-262.89 412.48,-269.72"/>
</g>
<!-- Node4 -->
<g id="node4" class="node">
<title>Node4</title>
<g id="a_node4"><a xlink:href="c__phase_8cpp.html" target="_top" xlink:title=" ">
<polygon fill="white" stroke="black" points="270,-201.5 270,-231.5 404,-231.5 404,-201.5 270,-201.5"/>
<text text-anchor="start" x="278" y="-219.5" font-family="Helvetica,sans-Serif" font-size="10.00">libs/SSystem/SComponent</text>
<text text-anchor="middle" x="337" y="-208.5" font-family="Helvetica,sans-Serif" font-size="10.00">/c_phase.cpp</text>
</a>
</g>
</g>
<!-- Node1&#45;&gt;Node4 -->
<g id="edge3" class="edge">
<title>Node1&#45;&gt;Node4</title>
<path fill="none" stroke="midnightblue" d="M444.21,-264.27C420.48,-253.92 391.22,-241.15 369.27,-231.58"/>
<polygon fill="midnightblue" stroke="midnightblue" points="443.1,-267.61 453.67,-268.4 445.9,-261.19 443.1,-267.61"/>
</g>
<!-- Node5 -->
<g id="node5" class="node">
<title>Node5</title>
<g id="a_node5"><a xlink:href="f__op__overlap__req_8h.html" target="_top" xlink:title=" ">
<polygon fill="white" stroke="black" points="422,-201.5 422,-231.5 550,-231.5 550,-201.5 422,-201.5"/>
<text text-anchor="start" x="430" y="-219.5" font-family="Helvetica,sans-Serif" font-size="10.00">include/f_op/f_op_overlap</text>
<text text-anchor="middle" x="486" y="-208.5" font-family="Helvetica,sans-Serif" font-size="10.00">_req.h</text>
</a>
</g>
</g>
<!-- Node1&#45;&gt;Node5 -->
<g id="edge4" class="edge">
<title>Node1&#45;&gt;Node5</title>
<path fill="none" stroke="midnightblue" d="M486,-258.11C486,-249.15 486,-239.32 486,-231.58"/>
<polygon fill="midnightblue" stroke="midnightblue" points="482.5,-258.4 486,-268.4 489.5,-258.4 482.5,-258.4"/>
</g>
<!-- Node8 -->
<g id="node8" class="node">
<title>Node8</title>
<g id="a_node8"><a xlink:href="f__op__scene__req_8h.html" target="_top" xlink:title=" ">
<polygon fill="white" stroke="black" points="1231,-134.5 1231,-164.5 1353,-164.5 1353,-134.5 1231,-134.5"/>
<text text-anchor="start" x="1239" y="-152.5" font-family="Helvetica,sans-Serif" font-size="10.00">include/f_op/f_op_scene</text>
<text text-anchor="middle" x="1292" y="-141.5" font-family="Helvetica,sans-Serif" font-size="10.00">_req.h</text>
</a>
</g>
</g>
<!-- Node1&#45;&gt;Node8 -->
<g id="edge7" class="edge">
<title>Node1&#45;&gt;Node8</title>
<path fill="none" stroke="midnightblue" d="M570.77,-277.98C670.33,-271.74 840.17,-258.15 984,-232 1079.37,-214.66 1188.51,-182.87 1247.87,-164.53"/>
<polygon fill="midnightblue" stroke="midnightblue" points="570.53,-274.49 560.76,-278.6 570.96,-281.48 570.53,-274.49"/>
</g>
<!-- Node11 -->
<g id="node11" class="node">
<title>Node11</title>
<g id="a_node11"><a xlink:href="f__pc__create__req_8h.html" target="_top" xlink:title=" ">
<polygon fill="white" stroke="black" points="568.5,-201.5 568.5,-231.5 691.5,-231.5 691.5,-201.5 568.5,-201.5"/>
<text text-anchor="start" x="576.5" y="-219.5" font-family="Helvetica,sans-Serif" font-size="10.00">include/f_pc/f_pc_create</text>
<text text-anchor="middle" x="630" y="-208.5" font-family="Helvetica,sans-Serif" font-size="10.00">_req.h</text>
</a>
</g>
</g>
<!-- Node1&#45;&gt;Node11 -->
<g id="edge10" class="edge">
<title>Node1&#45;&gt;Node11</title>
<path fill="none" stroke="midnightblue" d="M526.39,-264.27C549.32,-253.92 577.6,-241.15 598.82,-231.58"/>
<polygon fill="midnightblue" stroke="midnightblue" points="524.92,-261.09 517.25,-268.4 527.8,-267.47 524.92,-261.09"/>
</g>
<!-- Node28 -->
<g id="node28" class="node">
<title>Node28</title>
<g id="a_node28"><a xlink:href="f__pc__node__req_8h.html" target="_top" xlink:title=" ">
<polygon fill="white" stroke="black" points="857.5,-201.5 857.5,-231.5 974.5,-231.5 974.5,-201.5 857.5,-201.5"/>
<text text-anchor="start" x="865.5" y="-219.5" font-family="Helvetica,sans-Serif" font-size="10.00">include/f_pc/f_pc_node</text>
<text text-anchor="middle" x="916" y="-208.5" font-family="Helvetica,sans-Serif" font-size="10.00">_req.h</text>
</a>
</g>
</g>
<!-- Node1&#45;&gt;Node28 -->
<g id="edge30" class="edge">
<title>Node1&#45;&gt;Node28</title>
<path fill="none" stroke="midnightblue" d="M571.01,-269.65C655.72,-256.85 783.52,-237.53 857.47,-226.35"/>
<polygon fill="midnightblue" stroke="midnightblue" points="570.26,-266.22 560.9,-271.18 571.31,-273.14 570.26,-266.22"/>
</g>
<!-- Node6 -->
<g id="node6" class="node">
<title>Node6</title>
<g id="a_node6"><a xlink:href="f__op__overlap__mng_8cpp.html" target="_top" xlink:title=" ">
<polygon fill="white" stroke="black" points="53,-134.5 53,-164.5 163,-164.5 163,-134.5 53,-134.5"/>
<text text-anchor="start" x="61" y="-152.5" font-family="Helvetica,sans-Serif" font-size="10.00">src/f_op/f_op_overlap</text>
<text text-anchor="middle" x="108" y="-141.5" font-family="Helvetica,sans-Serif" font-size="10.00">_mng.cpp</text>
</a>
</g>
</g>
<!-- Node5&#45;&gt;Node6 -->
<g id="edge5" class="edge">
<title>Node5&#45;&gt;Node6</title>
<path fill="none" stroke="midnightblue" d="M411.87,-200.85C306.78,-182.72 278.24,-183.34 177,-165 172.54,-164.19 167.93,-163.32 163.31,-162.41"/>
<polygon fill="midnightblue" stroke="midnightblue" points="411.48,-204.34 421.94,-202.61 412.69,-197.44 411.48,-204.34"/>
</g>
<!-- Node7 -->
<g id="node7" class="node">
<title>Node7</title>
<g id="a_node7"><a xlink:href="f__op__overlap__req_8cpp.html" target="_top" xlink:title=" ">
<polygon fill="white" stroke="black" points="136,-67.5 136,-97.5 246,-97.5 246,-67.5 136,-67.5"/>
<text text-anchor="start" x="144" y="-85.5" font-family="Helvetica,sans-Serif" font-size="10.00">src/f_op/f_op_overlap</text>
<text text-anchor="middle" x="191" y="-74.5" font-family="Helvetica,sans-Serif" font-size="10.00">_req.cpp</text>
</a>
</g>
</g>
<!-- Node5&#45;&gt;Node7 -->
<g id="edge6" class="edge">
<title>Node5&#45;&gt;Node7</title>
<path fill="none" stroke="midnightblue" d="M411.95,-201C319.75,-186.95 274.23,-225.88 210,-165 191.55,-147.51 189.44,-115.85 189.96,-97.56"/>
<polygon fill="midnightblue" stroke="midnightblue" points="411.47,-204.47 421.92,-202.69 412.65,-197.57 411.47,-204.47"/>
</g>
<!-- Node9 -->
<g id="node9" class="node">
<title>Node9</title>
<g id="a_node9"><a xlink:href="f__op__scene__mng_8cpp.html" target="_top" xlink:title=" ">
<polygon fill="white" stroke="black" points="1274.5,-67.5 1274.5,-97.5 1379.5,-97.5 1379.5,-67.5 1274.5,-67.5"/>
<text text-anchor="start" x="1282.5" y="-85.5" font-family="Helvetica,sans-Serif" font-size="10.00">src/f_op/f_op_scene</text>
<text text-anchor="middle" x="1327" y="-74.5" font-family="Helvetica,sans-Serif" font-size="10.00">_mng.cpp</text>
</a>
</g>
</g>
<!-- Node8&#45;&gt;Node9 -->
<g id="edge8" class="edge">
<title>Node8&#45;&gt;Node9</title>
<path fill="none" stroke="midnightblue" d="M1304.34,-125.58C1309.37,-116.24 1315.02,-105.75 1319.42,-97.58"/>
<polygon fill="midnightblue" stroke="midnightblue" points="1301.25,-123.93 1299.59,-134.4 1307.42,-127.25 1301.25,-123.93"/>
</g>
<!-- Node10 -->
<g id="node10" class="node">
<title>Node10</title>
<g id="a_node10"><a xlink:href="f__op__scene__req_8cpp.html" target="_top" xlink:title=" ">
<polygon fill="white" stroke="black" points="1397.5,-67.5 1397.5,-97.5 1502.5,-97.5 1502.5,-67.5 1397.5,-67.5"/>
<text text-anchor="start" x="1405.5" y="-85.5" font-family="Helvetica,sans-Serif" font-size="10.00">src/f_op/f_op_scene</text>
<text text-anchor="middle" x="1450" y="-74.5" font-family="Helvetica,sans-Serif" font-size="10.00">_req.cpp</text>
</a>
</g>
</g>
<!-- Node8&#45;&gt;Node10 -->
<g id="edge9" class="edge">
<title>Node8&#45;&gt;Node10</title>
<path fill="none" stroke="midnightblue" d="M1335.65,-130.54C1360.93,-120.14 1392.3,-107.24 1415.78,-97.58"/>
<polygon fill="midnightblue" stroke="midnightblue" points="1334.2,-127.35 1326.28,-134.4 1336.86,-133.83 1334.2,-127.35"/>
</g>
<!-- Node12 -->
<g id="node12" class="node">
<title>Node12</title>
<g id="a_node12"><a xlink:href="f__pc__create__iter_8cpp.html" target="_top" xlink:title=" ">
<polygon fill="white" stroke="black" points="375,-134.5 375,-164.5 481,-164.5 481,-134.5 375,-134.5"/>
<text text-anchor="start" x="383" y="-152.5" font-family="Helvetica,sans-Serif" font-size="10.00">src/f_pc/f_pc_create</text>
<text text-anchor="middle" x="428" y="-141.5" font-family="Helvetica,sans-Serif" font-size="10.00">_iter.cpp</text>
</a>
</g>
</g>
<!-- Node11&#45;&gt;Node12 -->
<g id="edge11" class="edge">
<title>Node11&#45;&gt;Node12</title>
<path fill="none" stroke="midnightblue" d="M576.32,-198.23C543.65,-187.71 502.43,-174.45 471.75,-164.58"/>
<polygon fill="midnightblue" stroke="midnightblue" points="575.58,-201.66 586.17,-201.4 577.72,-195 575.58,-201.66"/>
</g>
<!-- Node13 -->
<g id="node13" class="node">
<title>Node13</title>
<g id="a_node13"><a xlink:href="f__pc__creator_8cpp.html" target="_top" xlink:title=" ">
<polygon fill="white" stroke="black" points="499.5,-140 499.5,-159 626.5,-159 626.5,-140 499.5,-140"/>
<text text-anchor="middle" x="563" y="-147" font-family="Helvetica,sans-Serif" font-size="10.00">src/f_pc/f_pc_creator.cpp</text>
</a>
</g>
</g>
<!-- Node11&#45;&gt;Node13 -->
<g id="edge12" class="edge">
<title>Node11&#45;&gt;Node13</title>
<path fill="none" stroke="midnightblue" d="M608.18,-194.34C595.88,-182.4 581.18,-168.14 571.96,-159.19"/>
<polygon fill="midnightblue" stroke="midnightblue" points="605.85,-196.94 615.46,-201.4 610.72,-191.92 605.85,-196.94"/>
</g>
<!-- Node14 -->
<g id="node14" class="node">
<title>Node14</title>
<g id="a_node14"><a xlink:href="f__pc__create__req_8cpp.html" target="_top" xlink:title=" ">
<polygon fill="white" stroke="black" points="645,-134.5 645,-164.5 751,-164.5 751,-134.5 645,-134.5"/>
<text text-anchor="start" x="653" y="-152.5" font-family="Helvetica,sans-Serif" font-size="10.00">src/f_pc/f_pc_create</text>
<text text-anchor="middle" x="698" y="-141.5" font-family="Helvetica,sans-Serif" font-size="10.00">_req.cpp</text>
</a>
</g>
</g>
<!-- Node11&#45;&gt;Node14 -->
<g id="edge13" class="edge">
<title>Node11&#45;&gt;Node14</title>
<path fill="none" stroke="midnightblue" d="M652.17,-194.31C662.37,-184.56 674.19,-173.26 683.27,-164.58"/>
<polygon fill="midnightblue" stroke="midnightblue" points="649.57,-191.96 644.75,-201.4 654.4,-197.02 649.57,-191.96"/>
</g>
<!-- Node15 -->
<g id="node15" class="node">
<title>Node15</title>
<g id="a_node15"><a xlink:href="f__pc__node__req_8cpp.html" target="_top" xlink:title=" ">
<polygon fill="white" stroke="black" points="609,-67.5 609,-97.5 709,-97.5 709,-67.5 609,-67.5"/>
<text text-anchor="start" x="617" y="-85.5" font-family="Helvetica,sans-Serif" font-size="10.00">src/f_pc/f_pc_node</text>
<text text-anchor="middle" x="659" y="-74.5" font-family="Helvetica,sans-Serif" font-size="10.00">_req.cpp</text>
</a>
</g>
</g>
<!-- Node11&#45;&gt;Node15 -->
<g id="edge14" class="edge">
<title>Node11&#45;&gt;Node15</title>
<path fill="none" stroke="midnightblue" d="M701.22,-204.21C723.81,-196.89 746.42,-184.84 760,-165 767.78,-153.63 767.24,-145.72 760,-134 748.66,-115.66 728.42,-103.75 709.02,-96.14"/>
<polygon fill="midnightblue" stroke="midnightblue" points="700.17,-200.87 691.57,-207.06 702.15,-207.58 700.17,-200.87"/>
</g>
<!-- Node16 -->
<g id="node16" class="node">
<title>Node16</title>
<g id="a_node16"><a xlink:href="f__pc__fstcreate__req_8h.html" target="_top" xlink:title=" ">
<polygon fill="white" stroke="black" points="1005,-134.5 1005,-164.5 1139,-164.5 1139,-134.5 1005,-134.5"/>
<text text-anchor="start" x="1013" y="-152.5" font-family="Helvetica,sans-Serif" font-size="10.00">include/f_pc/f_pc_fstcreate</text>
<text text-anchor="middle" x="1072" y="-141.5" font-family="Helvetica,sans-Serif" font-size="10.00">_req.h</text>
</a>
</g>
</g>
<!-- Node11&#45;&gt;Node16 -->
<g id="edge15" class="edge">
<title>Node11&#45;&gt;Node16</title>
<path fill="none" stroke="midnightblue" d="M701.79,-206.7C775.71,-197.38 894.14,-181.73 996,-165 998.92,-164.52 1001.89,-164.02 1004.9,-163.5"/>
<polygon fill="midnightblue" stroke="midnightblue" points="701.15,-203.26 691.67,-207.97 702.02,-210.2 701.15,-203.26"/>
</g>
<!-- Node25 -->
<g id="node25" class="node">
<title>Node25</title>
<g id="a_node25"><a xlink:href="f__pc__stdcreate__req_8h.html" target="_top" xlink:title=" ">
<polygon fill="white" stroke="black" points="219.5,-134.5 219.5,-164.5 356.5,-164.5 356.5,-134.5 219.5,-134.5"/>
<text text-anchor="start" x="227.5" y="-152.5" font-family="Helvetica,sans-Serif" font-size="10.00">include/f_pc/f_pc_stdcreate</text>
<text text-anchor="middle" x="288" y="-141.5" font-family="Helvetica,sans-Serif" font-size="10.00">_req.h</text>
</a>
</g>
</g>
<!-- Node11&#45;&gt;Node25 -->
<g id="edge24" class="edge">
<title>Node11&#45;&gt;Node25</title>
<path fill="none" stroke="midnightblue" d="M558.34,-200.92C523.36,-194.28 424.75,-175.93 356.5,-163.23"/>
<polygon fill="midnightblue" stroke="midnightblue" points="557.96,-204.41 568.44,-202.86 559.28,-197.54 557.96,-204.41"/>
</g>
<!-- Node17 -->
<g id="node17" class="node">
<title>Node17</title>
<g id="a_node17"><a xlink:href="f__pc__fstcreate__req_8cpp.html" target="_top" xlink:title=" ">
<polygon fill="white" stroke="black" points="1139.5,-67.5 1139.5,-97.5 1256.5,-97.5 1256.5,-67.5 1139.5,-67.5"/>
<text text-anchor="start" x="1147.5" y="-85.5" font-family="Helvetica,sans-Serif" font-size="10.00">src/f_pc/f_pc_fstcreate</text>
<text text-anchor="middle" x="1198" y="-74.5" font-family="Helvetica,sans-Serif" font-size="10.00">_req.cpp</text>
</a>
</g>
</g>
<!-- Node16&#45;&gt;Node17 -->
<g id="edge16" class="edge">
<title>Node16&#45;&gt;Node17</title>
<path fill="none" stroke="midnightblue" d="M1108.42,-129.71C1128.29,-119.46 1152.48,-106.98 1170.71,-97.58"/>
<polygon fill="midnightblue" stroke="midnightblue" points="1106.62,-126.7 1099.34,-134.4 1109.83,-132.92 1106.62,-126.7"/>
</g>
<!-- Node18 -->
<g id="node18" class="node">
<title>Node18</title>
<g id="a_node18"><a xlink:href="f__pc__manager_8cpp.html" target="_top" xlink:title=" ">
<polygon fill="white" stroke="black" points="987,-73 987,-92 1121,-92 1121,-73 987,-73"/>
<text text-anchor="middle" x="1054" y="-80" font-family="Helvetica,sans-Serif" font-size="10.00">src/f_pc/f_pc_manager.cpp</text>
</a>
</g>
</g>
<!-- Node16&#45;&gt;Node18 -->
<g id="edge17" class="edge">
<title>Node16&#45;&gt;Node18</title>
<path fill="none" stroke="midnightblue" d="M1065.38,-124.6C1062.25,-113.28 1058.7,-100.46 1056.41,-92.19"/>
<polygon fill="midnightblue" stroke="midnightblue" points="1062.05,-125.69 1068.09,-134.4 1068.8,-123.82 1062.05,-125.69"/>
</g>
<!-- Node19 -->
<g id="node19" class="node">
<title>Node19</title>
<g id="a_node19"><a xlink:href="f__op__actor__mng_8h.html" target="_top" xlink:title=" ">
<polygon fill="white" stroke="black" points="727,-67.5 727,-97.5 845,-97.5 845,-67.5 727,-67.5"/>
<text text-anchor="start" x="735" y="-85.5" font-family="Helvetica,sans-Serif" font-size="10.00">include/f_op/f_op_actor</text>
<text text-anchor="middle" x="786" y="-74.5" font-family="Helvetica,sans-Serif" font-size="10.00">_mng.h</text>
</a>
</g>
</g>
<!-- Node16&#45;&gt;Node19 -->
<g id="edge18" class="edge">
<title>Node16&#45;&gt;Node19</title>
<path fill="none" stroke="midnightblue" d="M1000.31,-132.21C952.42,-121.32 890.2,-107.18 845.15,-96.94"/>
<polygon fill="midnightblue" stroke="midnightblue" points="999.77,-135.67 1010.29,-134.48 1001.32,-128.85 999.77,-135.67"/>
</g>
<!-- Node20 -->
<g id="node20" class="node">
<title>Node20</title>
<g id="a_node20"><a xlink:href="d__a__player_8cpp.html" target="_top" xlink:title=" ">
<polygon fill="white" stroke="black" points="487,-6 487,-25 601,-25 601,-6 487,-6"/>
<text text-anchor="middle" x="544" y="-13" font-family="Helvetica,sans-Serif" font-size="10.00">src/d/a/d_a_player.cpp</text>
</a>
</g>
</g>
<!-- Node19&#45;&gt;Node20 -->
<g id="edge19" class="edge">
<title>Node19&#45;&gt;Node20</title>
<path fill="none" stroke="midnightblue" d="M723.94,-64.83C676.58,-52.11 613.27,-35.11 575.75,-25.03"/>
<polygon fill="midnightblue" stroke="midnightblue" points="723.22,-68.26 733.79,-67.48 725.04,-61.5 723.22,-68.26"/>
</g>
<!-- Node21 -->
<g id="node21" class="node">
<title>Node21</title>
<g id="a_node21"><a xlink:href="d__bomb_8cpp.html" target="_top" xlink:title=" ">
<polygon fill="white" stroke="black" points="619,-6 619,-25 713,-25 713,-6 619,-6"/>
<text text-anchor="middle" x="666" y="-13" font-family="Helvetica,sans-Serif" font-size="10.00">src/d/d_bomb.cpp</text>
</a>
</g>
</g>
<!-- Node19&#45;&gt;Node21 -->
<g id="edge20" class="edge">
<title>Node19&#45;&gt;Node21</title>
<path fill="none" stroke="midnightblue" d="M750.87,-62.47C727.96,-50.06 699.18,-34.47 681.71,-25.01"/>
<polygon fill="midnightblue" stroke="midnightblue" points="749.5,-65.71 759.96,-67.4 752.84,-59.56 749.5,-65.71"/>
</g>
<!-- Node22 -->
<g id="node22" class="node">
<title>Node22</title>
<g id="a_node22"><a xlink:href="d__a__alink_8cpp.html" target="_top" xlink:title=" ">
<polygon fill="white" stroke="black" points="731.5,-6 731.5,-25 840.5,-25 840.5,-6 731.5,-6"/>
<text text-anchor="middle" x="786" y="-13" font-family="Helvetica,sans-Serif" font-size="10.00">src/d/a/d_a_alink.cpp</text>
</a>
</g>
</g>
<!-- Node19&#45;&gt;Node22 -->
<g id="edge21" class="edge">
<title>Node19&#45;&gt;Node22</title>
<path fill="none" stroke="midnightblue" d="M786,-57.25C786,-46.02 786,-33.38 786,-25.19"/>
<polygon fill="midnightblue" stroke="midnightblue" points="782.5,-57.4 786,-67.4 789.5,-57.4 782.5,-57.4"/>
</g>
<!-- Node23 -->
<g id="node23" class="node">
<title>Node23</title>
<g id="a_node23"><a xlink:href="d__event_8cpp.html" target="_top" xlink:title=" ">
<polygon fill="white" stroke="black" points="858.5,-6 858.5,-25 979.5,-25 979.5,-6 858.5,-6"/>
<text text-anchor="middle" x="919" y="-13" font-family="Helvetica,sans-Serif" font-size="10.00">src/d/event/d_event.cpp</text>
</a>
</g>
</g>
<!-- Node19&#45;&gt;Node23 -->
<g id="edge22" class="edge">
<title>Node19&#45;&gt;Node23</title>
<path fill="none" stroke="midnightblue" d="M823.92,-62.97C849.47,-50.48 881.97,-34.6 901.59,-25.01"/>
<polygon fill="midnightblue" stroke="midnightblue" points="822.31,-59.86 814.86,-67.4 825.38,-66.15 822.31,-59.86"/>
</g>
<!-- Node24 -->
<g id="node24" class="node">
<title>Node24</title>
<g id="a_node24"><a xlink:href="f__op__actor__mng_8cpp.html" target="_top" xlink:title=" ">
<polygon fill="white" stroke="black" points="997.5,-0.5 997.5,-30.5 1098.5,-30.5 1098.5,-0.5 997.5,-0.5"/>
<text text-anchor="start" x="1005.5" y="-18.5" font-family="Helvetica,sans-Serif" font-size="10.00">src/f_op/f_op_actor</text>
<text text-anchor="middle" x="1048" y="-7.5" font-family="Helvetica,sans-Serif" font-size="10.00">_mng.cpp</text>
</a>
</g>
</g>
<!-- Node19&#45;&gt;Node24 -->
<g id="edge23" class="edge">
<title>Node19&#45;&gt;Node24</title>
<path fill="none" stroke="midnightblue" d="M852.5,-65C897.52,-53.83 956.08,-39.3 997.33,-29.07"/>
<polygon fill="midnightblue" stroke="midnightblue" points="851.39,-61.67 842.53,-67.48 853.08,-68.47 851.39,-61.67"/>
</g>
<!-- Node25&#45;&gt;Node7 -->
<g id="edge26" class="edge">
<title>Node25&#45;&gt;Node7</title>
<path fill="none" stroke="midnightblue" d="M258.5,-128.73C243.49,-118.68 225.6,-106.68 212.01,-97.58"/>
<polygon fill="midnightblue" stroke="midnightblue" points="256.7,-131.74 266.95,-134.4 260.59,-125.92 256.7,-131.74"/>
</g>
<!-- Node25&#45;&gt;Node15 -->
<g id="edge27" class="edge">
<title>Node25&#45;&gt;Node15</title>
<path fill="none" stroke="midnightblue" d="M366.86,-133.86C458.17,-117.55 552.63,-101.44 608.94,-91.92"/>
<polygon fill="midnightblue" stroke="midnightblue" points="366.12,-130.44 356.89,-135.64 367.35,-137.33 366.12,-130.44"/>
</g>
<!-- Node25&#45;&gt;Node19 -->
<g id="edge29" class="edge">
<title>Node25&#45;&gt;Node19</title>
<path fill="none" stroke="midnightblue" d="M366.84,-133.96C523.39,-112.04 565.84,-121.93 718,-98 720.86,-97.55 723.78,-97.06 726.73,-96.53"/>
<polygon fill="midnightblue" stroke="midnightblue" points="366.26,-130.51 356.85,-135.38 367.25,-137.44 366.26,-130.51"/>
</g>
<!-- Node26 -->
<g id="node26" class="node">
<title>Node26</title>
<g id="a_node26"><a xlink:href="f__op__camera__mng_8cpp.html" target="_top" xlink:title=" ">
<polygon fill="white" stroke="black" points="264.5,-67.5 264.5,-97.5 375.5,-97.5 375.5,-67.5 264.5,-67.5"/>
<text text-anchor="start" x="272.5" y="-85.5" font-family="Helvetica,sans-Serif" font-size="10.00">src/f_op/f_op_camera</text>
<text text-anchor="middle" x="320" y="-74.5" font-family="Helvetica,sans-Serif" font-size="10.00">_mng.cpp</text>
</a>
</g>
</g>
<!-- Node25&#45;&gt;Node26 -->
<g id="edge25" class="edge">
<title>Node25&#45;&gt;Node26</title>
<path fill="none" stroke="midnightblue" d="M299.43,-125.28C303.99,-116.02 309.09,-105.66 313.07,-97.58"/>
<polygon fill="midnightblue" stroke="midnightblue" points="296.22,-123.88 294.94,-134.4 302.5,-126.97 296.22,-123.88"/>
</g>
<!-- Node27 -->
<g id="node27" class="node">
<title>Node27</title>
<g id="a_node27"><a xlink:href="f__pc__stdcreate__req_8cpp.html" target="_top" xlink:title=" ">
<polygon fill="white" stroke="black" points="393.5,-67.5 393.5,-97.5 512.5,-97.5 512.5,-67.5 393.5,-67.5"/>
<text text-anchor="start" x="401.5" y="-85.5" font-family="Helvetica,sans-Serif" font-size="10.00">src/f_pc/f_pc_stdcreate</text>
<text text-anchor="middle" x="453" y="-74.5" font-family="Helvetica,sans-Serif" font-size="10.00">_req.cpp</text>
</a>
</g>
</g>
<!-- Node25&#45;&gt;Node27 -->
<g id="edge28" class="edge">
<title>Node25&#45;&gt;Node27</title>
<path fill="none" stroke="midnightblue" d="M333.23,-130.68C359.69,-120.26 392.63,-107.28 417.27,-97.58"/>
<polygon fill="midnightblue" stroke="midnightblue" points="331.82,-127.47 323.8,-134.4 334.39,-133.99 331.82,-127.47"/>
</g>
<!-- Node28&#45;&gt;Node8 -->
<g id="edge33" class="edge">
<title>Node28&#45;&gt;Node8</title>
<path fill="none" stroke="midnightblue" d="M984.85,-203.6C1055.2,-191.44 1163.43,-172.73 1230.86,-161.07"/>
<polygon fill="midnightblue" stroke="midnightblue" points="984.01,-200.19 974.75,-205.34 985.2,-207.09 984.01,-200.19"/>
</g>
<!-- Node28&#45;&gt;Node15 -->
<g id="edge32" class="edge">
<title>Node28&#45;&gt;Node15</title>
<path fill="none" stroke="midnightblue" d="M885.12,-196.09C857.14,-178.84 814.52,-153.44 776,-134 749.24,-120.49 718.03,-107.14 694.58,-97.56"/>
<polygon fill="midnightblue" stroke="midnightblue" points="883.32,-199.09 893.67,-201.38 887.01,-193.14 883.32,-199.09"/>
</g>
<!-- Node28&#45;&gt;Node18 -->
<g id="edge31" class="edge">
<title>Node28&#45;&gt;Node18</title>
<path fill="none" stroke="midnightblue" d="M984.68,-209.93C1045.53,-203.4 1127.76,-190.12 1148,-165 1156.64,-154.27 1155.07,-145.83 1148,-134 1135.07,-112.38 1109.35,-99.48 1088.08,-92.13"/>
<polygon fill="midnightblue" stroke="midnightblue" points="984.32,-206.45 974.74,-210.96 985.04,-213.41 984.32,-206.45"/>
</g>
<!-- Node29 -->
<g id="node29" class="node">
<title>Node29</title>
<g id="a_node29"><a xlink:href="f__pc__manager_8h.html" target="_top" xlink:title=" ">
<polygon fill="white" stroke="black" points="845.5,-140 845.5,-159 986.5,-159 986.5,-140 845.5,-140"/>
<text text-anchor="middle" x="916" y="-147" font-family="Helvetica,sans-Serif" font-size="10.00">include/f_pc/f_pc_manager.h</text>
</a>
</g>
</g>
<!-- Node28&#45;&gt;Node29 -->
<g id="edge34" class="edge">
<title>Node28&#45;&gt;Node29</title>
<path fill="none" stroke="midnightblue" d="M916,-191.25C916,-180.02 916,-167.38 916,-159.19"/>
<polygon fill="midnightblue" stroke="midnightblue" points="912.5,-191.4 916,-201.4 919.5,-191.4 912.5,-191.4"/>
</g>
<!-- Node29&#45;&gt;Node7 -->
<g id="edge35" class="edge">
<title>Node29&#45;&gt;Node7</title>
<path fill="none" stroke="midnightblue" d="M835.16,-140.65C811,-138.4 784.43,-136.01 760,-134 535.74,-115.59 477.59,-130.95 255,-98 252.07,-97.57 249.07,-97.07 246.06,-96.53"/>
<polygon fill="midnightblue" stroke="midnightblue" points="835.08,-144.16 845.36,-141.61 835.73,-137.19 835.08,-144.16"/>
</g>
<!-- Node29&#45;&gt;Node18 -->
<g id="edge37" class="edge">
<title>Node29&#45;&gt;Node18</title>
<path fill="none" stroke="midnightblue" d="M943.72,-135.44C971.05,-122.57 1012.05,-103.26 1035.6,-92.17"/>
<polygon fill="midnightblue" stroke="midnightblue" points="941.88,-132.44 934.33,-139.87 944.86,-138.77 941.88,-132.44"/>
</g>
<!-- Node29&#45;&gt;Node19 -->
<g id="edge38" class="edge">
<title>Node29&#45;&gt;Node19</title>
<path fill="none" stroke="midnightblue" d="M889.68,-135.34C867.8,-124.4 836.72,-108.86 814.3,-97.65"/>
<polygon fill="midnightblue" stroke="midnightblue" points="888.23,-138.53 898.74,-139.87 891.36,-132.27 888.23,-138.53"/>
</g>
<!-- Node30 -->
<g id="node30" class="node">
<title>Node30</title>
<g id="a_node30"><a xlink:href="f__op__scene__pause_8cpp.html" target="_top" xlink:title=" ">
<polygon fill="white" stroke="black" points="863.5,-67.5 863.5,-97.5 968.5,-97.5 968.5,-67.5 863.5,-67.5"/>
<text text-anchor="start" x="871.5" y="-85.5" font-family="Helvetica,sans-Serif" font-size="10.00">src/f_op/f_op_scene</text>
<text text-anchor="middle" x="916" y="-74.5" font-family="Helvetica,sans-Serif" font-size="10.00">_pause.cpp</text>
</a>
</g>
</g>
<!-- Node29&#45;&gt;Node30 -->
<g id="edge36" class="edge">
<title>Node29&#45;&gt;Node30</title>
<path fill="none" stroke="midnightblue" d="M916,-129.41C916,-119.22 916,-106.9 916,-97.59"/>
<polygon fill="midnightblue" stroke="midnightblue" points="912.5,-129.73 916,-139.73 919.5,-129.73 912.5,-129.73"/>
</g>
</g>
</svg>
        <g id="navigator" transform="translate(0 0)" fill="#404254">
                <rect fill="#f2f5e9" fill-opacity="0.5" stroke="#606060" stroke-width=".5" x="0" y="0" width="60" height="60"/>
                <use id="zoomplus" xlink:href="#zoomPlus" x="17" y="9" onmousedown="handleZoom(evt,'in')"/>
                <use id="zoomminus" xlink:href="#zoomMin" x="42" y="9" onmousedown="handleZoom(evt,'out')"/>
                <use id="reset" xlink:href="#resetDef" x="30" y="36" onmousedown="handleReset()"/>
                <g id="arrowUp" xlink:href="#dirArrow" transform="translate(30 24)" onmousedown="handlePan(0,-1)">
                  <use xlink:href="#rim" fill="#404040">
                        <set attributeName="fill" to="#808080" begin="arrowUp.mouseover" end="arrowUp.mouseout"/>
                  </use>
                  <path fill="none" stroke="white" stroke-width="1.5" d="M0,-3.0v7 M-2.5,-0.5L0,-3.0L2.5,-0.5"/>
                </g>
                <g id="arrowRight" xlink:href="#dirArrow" transform="rotate(90) translate(36 -43)" onmousedown="handlePan(1,0)">
                  <use xlink:href="#rim" fill="#404040">
                        <set attributeName="fill" to="#808080" begin="arrowRight.mouseover" end="arrowRight.mouseout"/>
                  </use>
                  <path fill="none" stroke="white" stroke-width="1.5" d="M0,-3.0v7 M-2.5,-0.5L0,-3.0L2.5,-0.5"/>
                </g>
                <g id="arrowDown" xlink:href="#dirArrow" transform="rotate(180) translate(-30 -48)" onmousedown="handlePan(0,1)">
                  <use xlink:href="#rim" fill="#404040">
                        <set attributeName="fill" to="#808080" begin="arrowDown.mouseover" end="arrowDown.mouseout"/>
                  </use>
                  <path fill="none" stroke="white" stroke-width="1.5" d="M0,-3.0v7 M-2.5,-0.5L0,-3.0L2.5,-0.5"/>
                </g>
                <g id="arrowLeft" xlink:href="#dirArrow" transform="rotate(270) translate(-36 17)" onmousedown="handlePan(-1,0)">
                  <use xlink:href="#rim" fill="#404040">
                        <set attributeName="fill" to="#808080" begin="arrowLeft.mouseover" end="arrowLeft.mouseout"/>
                  </use>
                  <path fill="none" stroke="white" stroke-width="1.5" d="M0,-3.0v7 M-2.5,-0.5L0,-3.0L2.5,-0.5"/>
                </g>
        </g>
        <svg viewBox="0 0 15 15" width="100%" height="30px" preserveAspectRatio="xMaxYMin meet">
         <g id="arrow_out" transform="scale(0.3 0.3)">
          <a xlink:href="c__phase_8h__dep__incl_org.svg" target="_base">
           <rect id="button" ry="5" rx="5" y="6" x="6" height="38" width="38"
                fill="#f2f5e9" fill-opacity="0.5" stroke="#606060" stroke-width="1.0"/>
           <path id="arrow"
             d="M 11.500037,31.436501 C 11.940474,20.09759 22.043105,11.32322 32.158766,21.979434 L 37.068811,17.246167 C 37.068811,17.246167 37.088388,32 37.088388,32 L 22.160133,31.978069 C 22.160133,31.978069 26.997745,27.140456 26.997745,27.140456 C 18.528582,18.264221 13.291696,25.230495 11.500037,31.436501 z"
             style="fill:#404040;"/>
          </a>
         </g>
        </svg>
</svg>
