<?xml version="1.0" encoding="UTF-8" standalone="no"?>
<!DOCTYPE svg PUBLIC "-//W3C//DTD SVG 1.1//EN"
 "http://www.w3.org/Graphics/SVG/1.1/DTD/svg11.dtd">
<!-- Generated by graphviz version 2.44.0 ()
 -->
<!-- Title: daAlink_sight_c Pages: 1 -->
<svg width="837pt" height="508pt"
 viewBox="0.00 0.00 836.50 508.00" xmlns="http://www.w3.org/2000/svg" xmlns:xlink="http://www.w3.org/1999/xlink">
<g id="graph0" class="graph" transform="scale(1 1) rotate(0) translate(4 504)">
<title>daAlink_sight_c</title>
<polygon fill="white" stroke="transparent" points="-4,4 -4,-504 832.5,-504 832.5,4 -4,4"/>
<!-- Node1 -->
<g id="node1" class="node">
<title>Node1</title>
<g id="a_node1"><a xlink:title=" ">
<polygon fill="#bfbfbf" stroke="black" points="194,-0.5 194,-19.5 280,-19.5 280,-0.5 194,-0.5"/>
<text text-anchor="middle" x="237" y="-7.5" font-family="Helvetica,sans-Serif" font-size="10.00">daAlink_sight_c</text>
</a>
</g>
</g>
<!-- Node2 -->
<g id="node2" class="node">
<title>Node2</title>
<g id="a_node2"><a xlink:href="classdaPy__sightPacket__c.html" target="_top" xlink:title=" ">
<polygon fill="white" stroke="black" points="94,-67.5 94,-86.5 200,-86.5 200,-67.5 94,-67.5"/>
<text text-anchor="middle" x="147" y="-74.5" font-family="Helvetica,sans-Serif" font-size="10.00">daPy_sightPacket_c</text>
</a>
</g>
</g>
<!-- Node2&#45;&gt;Node1 -->
<g id="edge1" class="edge">
<title>Node2&#45;&gt;Node1</title>
<path fill="none" stroke="midnightblue" d="M167.68,-61.07C185.44,-48.24 210.44,-30.19 225.05,-19.63"/>
<polygon fill="midnightblue" stroke="midnightblue" points="165.2,-58.54 159.14,-67.23 169.29,-64.22 165.2,-58.54"/>
</g>
<!-- Node3 -->
<g id="node3" class="node">
<title>Node3</title>
<g id="a_node3"><a xlink:href="structcXyz.html" target="_top" xlink:title=" ">
<polygon fill="white" stroke="black" points="0,-201.5 0,-220.5 38,-220.5 38,-201.5 0,-201.5"/>
<text text-anchor="middle" x="19" y="-208.5" font-family="Helvetica,sans-Serif" font-size="10.00">cXyz</text>
</a>
</g>
</g>
<!-- Node3&#45;&gt;Node2 -->
<g id="edge2" class="edge">
<title>Node3&#45;&gt;Node2</title>
<path fill="none" stroke="#9a32cd" stroke-dasharray="5,2" d="M32.69,-193.76C50.79,-172.59 84.01,-134.78 115,-105 121.71,-98.55 129.71,-91.8 136.03,-86.66"/>
<polygon fill="#9a32cd" stroke="#9a32cd" points="29.93,-191.6 26.12,-201.49 35.26,-196.14 29.93,-191.6"/>
<text text-anchor="middle" x="129" y="-124.5" font-family="Helvetica,sans-Serif" font-size="10.00"> mPos</text>
</g>
<!-- Node3&#45;&gt;Node3 -->
<g id="edge4" class="edge">
<title>Node3&#45;&gt;Node3</title>
<path fill="none" stroke="#9a32cd" stroke-dasharray="5,2" d="M38.61,-224.2C47.87,-225.74 56,-221.34 56,-211 56,-197.22 41.54,-193.99 29.23,-201.31"/>
<polygon fill="#9a32cd" stroke="#9a32cd" points="39.82,-220.92 29.23,-220.69 37.36,-227.48 39.82,-220.92"/>
<text text-anchor="middle" x="77.5" y="-247" font-family="Helvetica,sans-Serif" font-size="10.00"> BaseX</text>
<text text-anchor="middle" x="77.5" y="-236" font-family="Helvetica,sans-Serif" font-size="10.00">BaseXY</text>
<text text-anchor="middle" x="77.5" y="-225" font-family="Helvetica,sans-Serif" font-size="10.00">BaseXYZ</text>
<text text-anchor="middle" x="77.5" y="-214" font-family="Helvetica,sans-Serif" font-size="10.00">BaseXZ</text>
<text text-anchor="middle" x="77.5" y="-203" font-family="Helvetica,sans-Serif" font-size="10.00">BaseY</text>
<text text-anchor="middle" x="77.5" y="-192" font-family="Helvetica,sans-Serif" font-size="10.00">BaseYZ</text>
<text text-anchor="middle" x="77.5" y="-181" font-family="Helvetica,sans-Serif" font-size="10.00">BaseZ</text>
<text text-anchor="middle" x="77.5" y="-170" font-family="Helvetica,sans-Serif" font-size="10.00">Zero</text>
</g>
<!-- Node4 -->
<g id="node4" class="node">
<title>Node4</title>
<g id="a_node4"><a xlink:href="structVec.html" target="_top" xlink:title=" ">
<polygon fill="white" stroke="black" points="2,-313.5 2,-332.5 36,-332.5 36,-313.5 2,-313.5"/>
<text text-anchor="middle" x="19" y="-320.5" font-family="Helvetica,sans-Serif" font-size="10.00">Vec</text>
</a>
</g>
</g>
<!-- Node4&#45;&gt;Node3 -->
<g id="edge3" class="edge">
<title>Node4&#45;&gt;Node3</title>
<path fill="none" stroke="midnightblue" d="M19,-303.35C19,-279.25 19,-238.31 19,-220.59"/>
<polygon fill="midnightblue" stroke="midnightblue" points="15.5,-303.37 19,-313.37 22.5,-303.37 15.5,-303.37"/>
</g>
<!-- Node5 -->
<g id="node5" class="node">
<title>Node5</title>
<g id="a_node5"><a xlink:href="structResTIMG.html" target="_top" xlink:title=" ">
<polygon fill="white" stroke="black" points="117.5,-201.5 117.5,-220.5 176.5,-220.5 176.5,-201.5 117.5,-201.5"/>
<text text-anchor="middle" x="147" y="-208.5" font-family="Helvetica,sans-Serif" font-size="10.00">ResTIMG</text>
</a>
</g>
</g>
<!-- Node5&#45;&gt;Node2 -->
<g id="edge5" class="edge">
<title>Node5&#45;&gt;Node2</title>
<path fill="none" stroke="#9a32cd" stroke-dasharray="5,2" d="M147,-191.28C147,-162.25 147,-107.54 147,-86.52"/>
<polygon fill="#9a32cd" stroke="#9a32cd" points="143.5,-191.34 147,-201.34 150.5,-191.34 143.5,-191.34"/>
<text text-anchor="middle" x="170" y="-130" font-family="Helvetica,sans-Serif" font-size="10.00"> field_0x44</text>
<text text-anchor="middle" x="170" y="-119" font-family="Helvetica,sans-Serif" font-size="10.00">field_0x48</text>
</g>
<!-- Node6 -->
<g id="node6" class="node">
<title>Node6</title>
<g id="a_node6"><a xlink:href="classdaAlink__lockCursor__c.html" target="_top" xlink:title=" ">
<polygon fill="white" stroke="black" points="272.5,-67.5 272.5,-86.5 383.5,-86.5 383.5,-67.5 272.5,-67.5"/>
<text text-anchor="middle" x="328" y="-74.5" font-family="Helvetica,sans-Serif" font-size="10.00">daAlink_lockCursor_c</text>
</a>
</g>
</g>
<!-- Node6&#45;&gt;Node1 -->
<g id="edge6" class="edge">
<title>Node6&#45;&gt;Node1</title>
<path fill="none" stroke="#9a32cd" stroke-dasharray="5,2" d="M307.59,-61.42C289.6,-48.57 263.99,-30.28 249.08,-19.63"/>
<polygon fill="#9a32cd" stroke="#9a32cd" points="305.56,-64.27 315.73,-67.23 309.62,-58.57 305.56,-64.27"/>
<text text-anchor="middle" x="311" y="-41" font-family="Helvetica,sans-Serif" font-size="10.00"> field_0x50</text>
</g>
<!-- Node7 -->
<g id="node7" class="node">
<title>Node7</title>
<g id="a_node7"><a xlink:href="structdDlst__base__c.html" target="_top" xlink:title=" ">
<polygon fill="white" stroke="black" points="195,-201.5 195,-220.5 271,-220.5 271,-201.5 195,-201.5"/>
<text text-anchor="middle" x="233" y="-208.5" font-family="Helvetica,sans-Serif" font-size="10.00">dDlst_base_c</text>
</a>
</g>
</g>
<!-- Node7&#45;&gt;Node6 -->
<g id="edge7" class="edge">
<title>Node7&#45;&gt;Node6</title>
<path fill="none" stroke="midnightblue" d="M245.12,-193.16C265.61,-164.68 306.41,-108 321.87,-86.52"/>
<polygon fill="midnightblue" stroke="midnightblue" points="242.23,-191.18 239.23,-201.34 247.92,-195.27 242.23,-191.18"/>
</g>
<!-- Node8 -->
<g id="node8" class="node">
<title>Node8</title>
<g id="a_node8"><a xlink:href="structJ2DAnmBase.html" target="_top" xlink:title=" ">
<polygon fill="white" stroke="black" points="289.5,-201.5 289.5,-220.5 366.5,-220.5 366.5,-201.5 289.5,-201.5"/>
<text text-anchor="middle" x="328" y="-208.5" font-family="Helvetica,sans-Serif" font-size="10.00">J2DAnmBase</text>
</a>
</g>
</g>
<!-- Node8&#45;&gt;Node6 -->
<g id="edge8" class="edge">
<title>Node8&#45;&gt;Node6</title>
<path fill="none" stroke="#9a32cd" stroke-dasharray="5,2" d="M328,-191.28C328,-162.25 328,-107.54 328,-86.52"/>
<polygon fill="#9a32cd" stroke="#9a32cd" points="324.5,-191.34 328,-201.34 331.5,-191.34 324.5,-191.34"/>
<text text-anchor="middle" x="351" y="-141" font-family="Helvetica,sans-Serif" font-size="10.00"> field_0x1c</text>
<text text-anchor="middle" x="351" y="-130" font-family="Helvetica,sans-Serif" font-size="10.00">field_0x20</text>
<text text-anchor="middle" x="351" y="-119" font-family="Helvetica,sans-Serif" font-size="10.00">field_0x24</text>
<text text-anchor="middle" x="351" y="-108" font-family="Helvetica,sans-Serif" font-size="10.00">field_0x28</text>
</g>
<!-- Node9 -->
<g id="node9" class="node">
<title>Node9</title>
<g id="a_node9"><a xlink:href="structJ2DScreen.html" target="_top" xlink:title=" ">
<polygon fill="white" stroke="black" points="514.5,-201.5 514.5,-220.5 579.5,-220.5 579.5,-201.5 514.5,-201.5"/>
<text text-anchor="middle" x="547" y="-208.5" font-family="Helvetica,sans-Serif" font-size="10.00">J2DScreen</text>
</a>
</g>
</g>
<!-- Node9&#45;&gt;Node6 -->
<g id="edge9" class="edge">
<title>Node9&#45;&gt;Node6</title>
<path fill="none" stroke="#9a32cd" stroke-dasharray="5,2" d="M531.56,-194.12C508.57,-171.33 463.1,-129.41 417,-105 401.73,-96.92 383.68,-90.87 367.84,-86.58"/>
<polygon fill="#9a32cd" stroke="#9a32cd" points="529.18,-196.69 538.71,-201.32 534.15,-191.76 529.18,-196.69"/>
<text text-anchor="middle" x="502" y="-124.5" font-family="Helvetica,sans-Serif" font-size="10.00"> field_0x8</text>
</g>
<!-- Node10 -->
<g id="node10" class="node">
<title>Node10</title>
<g id="a_node10"><a xlink:href="structJ2DPane.html" target="_top" xlink:title=" ">
<polygon fill="white" stroke="black" points="369,-313.5 369,-332.5 425,-332.5 425,-313.5 369,-313.5"/>
<text text-anchor="middle" x="397" y="-320.5" font-family="Helvetica,sans-Serif" font-size="10.00">J2DPane</text>
</a>
</g>
</g>
<!-- Node10&#45;&gt;Node6 -->
<g id="edge21" class="edge">
<title>Node10&#45;&gt;Node6</title>
<path fill="none" stroke="#9a32cd" stroke-dasharray="5,2" d="M400.86,-303.22C408.01,-263.09 419.11,-167.55 378,-105 372.53,-96.67 363.59,-90.71 354.77,-86.55"/>
<polygon fill="#9a32cd" stroke="#9a32cd" points="397.39,-302.72 398.95,-313.2 404.27,-304.04 397.39,-302.72"/>
<text text-anchor="middle" x="431" y="-225" font-family="Helvetica,sans-Serif" font-size="10.00"> field_0x10</text>
<text text-anchor="middle" x="431" y="-214" font-family="Helvetica,sans-Serif" font-size="10.00">field_0x14</text>
<text text-anchor="middle" x="431" y="-203" font-family="Helvetica,sans-Serif" font-size="10.00">field_0x18</text>
<text text-anchor="middle" x="431" y="-192" font-family="Helvetica,sans-Serif" font-size="10.00">field_0xc</text>
</g>
<!-- Node10&#45;&gt;Node9 -->
<g id="edge10" class="edge">
<title>Node10&#45;&gt;Node9</title>
<path fill="none" stroke="midnightblue" d="M416.89,-307.42C448.61,-284.15 509.7,-239.35 535.28,-220.59"/>
<polygon fill="midnightblue" stroke="midnightblue" points="414.76,-304.63 408.77,-313.37 418.9,-310.28 414.76,-304.63"/>
</g>
<!-- Node11 -->
<g id="node11" class="node">
<title>Node11</title>
<g id="a_node11"><a xlink:href="structJGeometry_1_1TBox2.html" target="_top" xlink:title=" ">
<polygon fill="white" stroke="black" points="143,-402.5 143,-421.5 269,-421.5 269,-402.5 143,-402.5"/>
<text text-anchor="middle" x="206" y="-409.5" font-family="Helvetica,sans-Serif" font-size="10.00">JGeometry::TBox2&lt; f32 &gt;</text>
</a>
</g>
</g>
<!-- Node11&#45;&gt;Node10 -->
<g id="edge11" class="edge">
<title>Node11&#45;&gt;Node10</title>
<path fill="none" stroke="#9a32cd" stroke-dasharray="5,2" d="M222,-394.87C236.47,-381.21 258.96,-362.11 282,-351 309.89,-337.55 344.89,-330.57 368.91,-327.11"/>
<polygon fill="#9a32cd" stroke="#9a32cd" points="219.21,-392.71 214.47,-402.19 224.08,-397.73 219.21,-392.71"/>
<text text-anchor="middle" x="317" y="-376" font-family="Helvetica,sans-Serif" font-size="10.00"> mBounds</text>
<text text-anchor="middle" x="317" y="-365" font-family="Helvetica,sans-Serif" font-size="10.00">mClipRect</text>
<text text-anchor="middle" x="317" y="-354" font-family="Helvetica,sans-Serif" font-size="10.00">mGlobalBounds</text>
</g>
<!-- Node12 -->
<g id="node12" class="node">
<title>Node12</title>
<g id="a_node12"><a xlink:href="structJGeometry_1_1TBox.html" target="_top" xlink:title=" ">
<polygon fill="white" stroke="black" points="142,-469.5 142,-499.5 270,-499.5 270,-469.5 142,-469.5"/>
<text text-anchor="start" x="150" y="-487.5" font-family="Helvetica,sans-Serif" font-size="10.00">JGeometry::TBox&lt; TVec2</text>
<text text-anchor="middle" x="206" y="-476.5" font-family="Helvetica,sans-Serif" font-size="10.00">&lt; T &gt; &gt;</text>
</a>
</g>
</g>
<!-- Node12&#45;&gt;Node11 -->
<g id="edge12" class="edge">
<title>Node12&#45;&gt;Node11</title>
<path fill="none" stroke="midnightblue" d="M206,-459.09C206,-446.21 206,-431.2 206,-421.89"/>
<polygon fill="midnightblue" stroke="midnightblue" points="202.5,-459.23 206,-469.23 209.5,-459.23 202.5,-459.23"/>
</g>
<!-- Node13 -->
<g id="node13" class="node">
<title>Node13</title>
<g id="a_node13"><a xlink:href="structJ2DAnmTransform.html" target="_top" xlink:title=" ">
<polygon fill="white" stroke="black" points="287,-402.5 287,-421.5 385,-421.5 385,-402.5 287,-402.5"/>
<text text-anchor="middle" x="336" y="-409.5" font-family="Helvetica,sans-Serif" font-size="10.00">J2DAnmTransform</text>
</a>
</g>
</g>
<!-- Node13&#45;&gt;Node10 -->
<g id="edge13" class="edge">
<title>Node13&#45;&gt;Node10</title>
<path fill="none" stroke="#9a32cd" stroke-dasharray="5,2" d="M347.92,-393.99C360.85,-375.56 380.97,-346.87 390.95,-332.62"/>
<polygon fill="#9a32cd" stroke="#9a32cd" points="344.95,-392.14 342.07,-402.34 350.68,-396.16 344.95,-392.14"/>
<text text-anchor="middle" x="405.5" y="-365" font-family="Helvetica,sans-Serif" font-size="10.00"> mTransform</text>
</g>
<!-- Node14 -->
<g id="node14" class="node">
<title>Node14</title>
<g id="a_node14"><a xlink:href="classJSUTree.html" target="_top" xlink:title=" ">
<polygon fill="white" stroke="black" points="403,-402.5 403,-421.5 515,-421.5 515,-402.5 403,-402.5"/>
<text text-anchor="middle" x="459" y="-409.5" font-family="Helvetica,sans-Serif" font-size="10.00">JSUTree&lt; J2DPane &gt;</text>
</a>
</g>
</g>
<!-- Node14&#45;&gt;Node10 -->
<g id="edge14" class="edge">
<title>Node14&#45;&gt;Node10</title>
<path fill="none" stroke="#9a32cd" stroke-dasharray="5,2" d="M455.39,-392.53C452.19,-379.84 446.52,-363.16 437,-351 431.01,-343.35 422.23,-337.09 414.43,-332.53"/>
<polygon fill="#9a32cd" stroke="#9a32cd" points="452,-393.43 457.59,-402.43 458.84,-391.91 452,-393.43"/>
<text text-anchor="middle" x="479.5" y="-365" font-family="Helvetica,sans-Serif" font-size="10.00"> mPaneTree</text>
</g>
<!-- Node15 -->
<g id="node15" class="node">
<title>Node15</title>
<g id="a_node15"><a xlink:href="structJUTNameTab.html" target="_top" xlink:title=" ">
<polygon fill="white" stroke="black" points="443,-313.5 443,-332.5 521,-332.5 521,-313.5 443,-313.5"/>
<text text-anchor="middle" x="482" y="-320.5" font-family="Helvetica,sans-Serif" font-size="10.00">JUTNameTab</text>
</a>
</g>
</g>
<!-- Node15&#45;&gt;Node9 -->
<g id="edge15" class="edge">
<title>Node15&#45;&gt;Node9</title>
<path fill="none" stroke="#9a32cd" stroke-dasharray="5,2" d="M488.66,-303.87C492.4,-294.43 497.44,-282.83 503,-273 514.19,-253.23 530.49,-232.15 539.79,-220.68"/>
<polygon fill="#9a32cd" stroke="#9a32cd" points="485.32,-302.82 485.02,-313.41 491.86,-305.31 485.32,-302.82"/>
<text text-anchor="middle" x="533.5" y="-281.5" font-family="Helvetica,sans-Serif" font-size="10.00"> mNameTable</text>
</g>
<!-- Node16 -->
<g id="node16" class="node">
<title>Node16</title>
<g id="a_node16"><a xlink:href="structResNTAB.html" target="_top" xlink:title=" ">
<polygon fill="white" stroke="black" points="533.5,-402.5 533.5,-421.5 594.5,-421.5 594.5,-402.5 533.5,-402.5"/>
<text text-anchor="middle" x="564" y="-409.5" font-family="Helvetica,sans-Serif" font-size="10.00">ResNTAB</text>
</a>
</g>
</g>
<!-- Node16&#45;&gt;Node15 -->
<g id="edge16" class="edge">
<title>Node16&#45;&gt;Node15</title>
<path fill="none" stroke="#9a32cd" stroke-dasharray="5,2" d="M549.86,-394.67C539.14,-382.44 523.92,-365.41 510,-351 503.9,-344.69 496.77,-337.82 491.24,-332.6"/>
<polygon fill="#9a32cd" stroke="#9a32cd" points="547.29,-397.04 556.5,-402.28 552.56,-392.44 547.29,-397.04"/>
<text text-anchor="middle" x="573.5" y="-365" font-family="Helvetica,sans-Serif" font-size="10.00"> mpNameTable</text>
</g>
<!-- Node17 -->
<g id="node17" class="node">
<title>Node17</title>
<g id="a_node17"><a xlink:href="structResNTAB_1_1Entry.html" target="_top" xlink:title=" ">
<polygon fill="white" stroke="black" points="520.5,-475 520.5,-494 607.5,-494 607.5,-475 520.5,-475"/>
<text text-anchor="middle" x="564" y="-482" font-family="Helvetica,sans-Serif" font-size="10.00">ResNTAB::Entry</text>
</a>
</g>
</g>
<!-- Node17&#45;&gt;Node16 -->
<g id="edge17" class="edge">
<title>Node17&#45;&gt;Node16</title>
<path fill="none" stroke="#9a32cd" stroke-dasharray="5,2" d="M564,-464.44C564,-450.53 564,-432.32 564,-421.72"/>
<polygon fill="#9a32cd" stroke="#9a32cd" points="560.5,-464.86 564,-474.86 567.5,-464.86 560.5,-464.86"/>
<text text-anchor="middle" x="584.5" y="-443" font-family="Helvetica,sans-Serif" font-size="10.00"> mEntries</text>
</g>
<!-- Node18 -->
<g id="node18" class="node">
<title>Node18</title>
<g id="a_node18"><a xlink:href="structJ2DDataManage.html" target="_top" xlink:title=" ">
<polygon fill="white" stroke="black" points="539.5,-313.5 539.5,-332.5 628.5,-332.5 628.5,-313.5 539.5,-313.5"/>
<text text-anchor="middle" x="584" y="-320.5" font-family="Helvetica,sans-Serif" font-size="10.00">J2DDataManage</text>
</a>
</g>
</g>
<!-- Node18&#45;&gt;Node9 -->
<g id="edge18" class="edge">
<title>Node18&#45;&gt;Node9</title>
<path fill="none" stroke="#9a32cd" stroke-dasharray="5,2" d="M577.84,-303.67C569.75,-279.62 555.88,-238.39 549.89,-220.59"/>
<polygon fill="#9a32cd" stroke="#9a32cd" points="574.59,-305.01 581.1,-313.37 581.23,-302.77 574.59,-305.01"/>
<text text-anchor="middle" x="608" y="-281.5" font-family="Helvetica,sans-Serif" font-size="10.00"> mDataManage</text>
</g>
<!-- Node19 -->
<g id="node19" class="node">
<title>Node19</title>
<g id="a_node19"><a xlink:href="structJ2DMaterial.html" target="_top" xlink:title=" ">
<polygon fill="white" stroke="black" points="647,-313.5 647,-332.5 715,-332.5 715,-313.5 647,-313.5"/>
<text text-anchor="middle" x="681" y="-320.5" font-family="Helvetica,sans-Serif" font-size="10.00">J2DMaterial</text>
</a>
</g>
</g>
<!-- Node19&#45;&gt;Node9 -->
<g id="edge19" class="edge">
<title>Node19&#45;&gt;Node9</title>
<path fill="none" stroke="#9a32cd" stroke-dasharray="5,2" d="M670.56,-304.58C664.03,-294.59 654.98,-282.24 645,-273 620.3,-250.13 585.81,-231 565.02,-220.56"/>
<polygon fill="#9a32cd" stroke="#9a32cd" points="667.72,-306.64 676,-313.25 673.65,-302.92 667.72,-306.64"/>
<text text-anchor="middle" x="689.5" y="-281.5" font-family="Helvetica,sans-Serif" font-size="10.00"> mMaterials</text>
</g>
<!-- Node20 -->
<g id="node20" class="node">
<title>Node20</title>
<g id="a_node20"><a xlink:href="structJ2DResReference.html" target="_top" xlink:title=" ">
<polygon fill="white" stroke="black" points="733.5,-313.5 733.5,-332.5 828.5,-332.5 828.5,-313.5 733.5,-313.5"/>
<text text-anchor="middle" x="781" y="-320.5" font-family="Helvetica,sans-Serif" font-size="10.00">J2DResReference</text>
</a>
</g>
</g>
<!-- Node20&#45;&gt;Node9 -->
<g id="edge20" class="edge">
<title>Node20&#45;&gt;Node9</title>
<path fill="none" stroke="#9a32cd" stroke-dasharray="5,2" d="M764.29,-306.29C752.39,-295.76 735.62,-282.18 719,-273 673.38,-247.79 615.37,-229.79 579.73,-220.15"/>
<polygon fill="#9a32cd" stroke="#9a32cd" points="762.27,-309.19 772.03,-313.32 766.98,-304.01 762.27,-309.19"/>
<text text-anchor="middle" x="776.5" y="-287" font-family="Helvetica,sans-Serif" font-size="10.00"> field_0x108</text>
<text text-anchor="middle" x="776.5" y="-276" font-family="Helvetica,sans-Serif" font-size="10.00">field_0x10c</text>
</g>
</g>
</svg>
