<?xml version="1.0" encoding="UTF-8" standalone="no"?>
<!DOCTYPE svg PUBLIC "-//W3C//DTD SVG 1.1//EN"
 "http://www.w3.org/Graphics/SVG/1.1/DTD/svg11.dtd">
<!-- Generated by graphviz version 2.44.0 ()
 -->
<!-- Title: dMeter_drawCollectHIO_c Pages: 1 -->
<svg width="315pt" height="231pt"
 viewBox="0.00 0.00 315.00 231.00" xmlns="http://www.w3.org/2000/svg" xmlns:xlink="http://www.w3.org/1999/xlink">
<g id="graph0" class="graph" transform="scale(1 1) rotate(0) translate(4 227)">
<title>dMeter_drawCollectHIO_c</title>
<polygon fill="white" stroke="transparent" points="-4,4 -4,-227 311,-227 311,4 -4,4"/>
<!-- Node1 -->
<g id="node1" class="node">
<title>Node1</title>
<g id="a_node1"><a xlink:title=" ">
<polygon fill="#bfbfbf" stroke="black" points="53.5,-0.5 53.5,-19.5 184.5,-19.5 184.5,-0.5 53.5,-0.5"/>
<text text-anchor="middle" x="119" y="-7.5" font-family="Helvetica,sans-Serif" font-size="10.00">dMeter_drawCollectHIO_c</text>
</a>
</g>
</g>
<!-- Node2 -->
<g id="node2" class="node">
<title>Node2</title>
<g id="a_node2"><a xlink:href="structJUtility_1_1TColor.html" target="_top" xlink:title=" ">
<polygon fill="white" stroke="black" points="0,-112.5 0,-131.5 80,-131.5 80,-112.5 0,-112.5"/>
<text text-anchor="middle" x="40" y="-119.5" font-family="Helvetica,sans-Serif" font-size="10.00">JUtility::TColor</text>
</a>
</g>
</g>
<!-- Node2&#45;&gt;Node1 -->
<g id="edge1" class="edge">
<title>Node2&#45;&gt;Node1</title>
<path fill="none" stroke="#9a32cd" stroke-dasharray="5,2" d="M40.84,-102.14C42.58,-83.85 47.76,-56.25 63,-38 69.99,-29.63 80.18,-23.67 89.96,-19.51"/>
<polygon fill="#9a32cd" stroke="#9a32cd" points="37.34,-101.94 40.14,-112.16 44.33,-102.43 37.34,-101.94"/>
<text text-anchor="middle" x="89.5" y="-52" font-family="Helvetica,sans-Serif" font-size="10.00"> mBasBlack</text>
<text text-anchor="middle" x="89.5" y="-41" font-family="Helvetica,sans-Serif" font-size="10.00">mBasWhite</text>
</g>
<!-- Node3 -->
<g id="node3" class="node">
<title>Node3</title>
<g id="a_node3"><a xlink:href="struct__GXColor.html" target="_top" xlink:title=" ">
<polygon fill="white" stroke="black" points="10.5,-203.5 10.5,-222.5 69.5,-222.5 69.5,-203.5 10.5,-203.5"/>
<text text-anchor="middle" x="40" y="-210.5" font-family="Helvetica,sans-Serif" font-size="10.00">_GXColor</text>
</a>
</g>
</g>
<!-- Node3&#45;&gt;Node2 -->
<g id="edge2" class="edge">
<title>Node3&#45;&gt;Node2</title>
<path fill="none" stroke="midnightblue" d="M40,-193.35C40,-174.38 40,-145.83 40,-131.64"/>
<polygon fill="midnightblue" stroke="midnightblue" points="36.5,-193.47 40,-203.47 43.5,-193.47 36.5,-193.47"/>
</g>
<!-- Node4 -->
<g id="node4" class="node">
<title>Node4</title>
<g id="a_node4"><a xlink:href="structcsXyz.html" target="_top" xlink:title=" ">
<polygon fill="white" stroke="black" points="98.5,-112.5 98.5,-131.5 141.5,-131.5 141.5,-112.5 98.5,-112.5"/>
<text text-anchor="middle" x="120" y="-119.5" font-family="Helvetica,sans-Serif" font-size="10.00">csXyz</text>
</a>
</g>
</g>
<!-- Node4&#45;&gt;Node1 -->
<g id="edge3" class="edge">
<title>Node4&#45;&gt;Node1</title>
<path fill="none" stroke="#9a32cd" stroke-dasharray="5,2" d="M119.83,-102.35C119.61,-78.25 119.24,-37.31 119.08,-19.59"/>
<polygon fill="#9a32cd" stroke="#9a32cd" points="116.33,-102.4 119.92,-112.37 123.33,-102.34 116.33,-102.4"/>
<text text-anchor="middle" x="162.5" y="-46.5" font-family="Helvetica,sans-Serif" font-size="10.00"> mMaskMirrorAngle</text>
</g>
<!-- Node4&#45;&gt;Node4 -->
<g id="edge5" class="edge">
<title>Node4&#45;&gt;Node4</title>
<path fill="none" stroke="#9a32cd" stroke-dasharray="5,2" d="M143.59,-133.6C152.32,-133.96 159.5,-130.09 159.5,-122 159.5,-110.98 146.19,-107.8 133.76,-112.44"/>
<polygon fill="#9a32cd" stroke="#9a32cd" points="144.27,-130.17 133.76,-131.56 142.84,-137.02 144.27,-130.17"/>
<text text-anchor="middle" x="170.5" y="-119.5" font-family="Helvetica,sans-Serif" font-size="10.00"> Zero</text>
</g>
<!-- Node5 -->
<g id="node5" class="node">
<title>Node5</title>
<g id="a_node5"><a xlink:href="structSVec.html" target="_top" xlink:title=" ">
<polygon fill="white" stroke="black" points="99.5,-203.5 99.5,-222.5 140.5,-222.5 140.5,-203.5 99.5,-203.5"/>
<text text-anchor="middle" x="120" y="-210.5" font-family="Helvetica,sans-Serif" font-size="10.00">SVec</text>
</a>
</g>
</g>
<!-- Node5&#45;&gt;Node4 -->
<g id="edge4" class="edge">
<title>Node5&#45;&gt;Node4</title>
<path fill="none" stroke="midnightblue" d="M120,-193.35C120,-174.38 120,-145.83 120,-131.64"/>
<polygon fill="midnightblue" stroke="midnightblue" points="116.5,-193.47 120,-203.47 123.5,-193.47 116.5,-193.47"/>
</g>
<!-- Node6 -->
<g id="node6" class="node">
<title>Node6</title>
<g id="a_node6"><a xlink:href="structcXyz.html" target="_top" xlink:title=" ">
<polygon fill="white" stroke="black" points="208,-112.5 208,-131.5 246,-131.5 246,-112.5 208,-112.5"/>
<text text-anchor="middle" x="227" y="-119.5" font-family="Helvetica,sans-Serif" font-size="10.00">cXyz</text>
</a>
</g>
</g>
<!-- Node6&#45;&gt;Node1 -->
<g id="edge6" class="edge">
<title>Node6&#45;&gt;Node1</title>
<path fill="none" stroke="#9a32cd" stroke-dasharray="5,2" d="M227,-102.24C225.99,-83.58 221.55,-55.31 205,-38 196.78,-29.4 185.86,-23.53 174.57,-19.52"/>
<polygon fill="#9a32cd" stroke="#9a32cd" points="223.51,-102.53 227.27,-112.43 230.51,-102.34 223.51,-102.53"/>
<text text-anchor="middle" x="257.5" y="-46.5" font-family="Helvetica,sans-Serif" font-size="10.00"> mMaskMirrorPos</text>
</g>
<!-- Node6&#45;&gt;Node6 -->
<g id="edge8" class="edge">
<title>Node6&#45;&gt;Node6</title>
<path fill="none" stroke="#9a32cd" stroke-dasharray="5,2" d="M249.87,-133.62C257.7,-133.71 264,-129.83 264,-122 264,-110.98 251.53,-107.8 239.89,-112.44"/>
<polygon fill="#9a32cd" stroke="#9a32cd" points="250.4,-130.16 239.89,-131.56 248.98,-137.01 250.4,-130.16"/>
<text text-anchor="middle" x="285.5" y="-158" font-family="Helvetica,sans-Serif" font-size="10.00"> BaseX</text>
<text text-anchor="middle" x="285.5" y="-147" font-family="Helvetica,sans-Serif" font-size="10.00">BaseXY</text>
<text text-anchor="middle" x="285.5" y="-136" font-family="Helvetica,sans-Serif" font-size="10.00">BaseXYZ</text>
<text text-anchor="middle" x="285.5" y="-125" font-family="Helvetica,sans-Serif" font-size="10.00">BaseXZ</text>
<text text-anchor="middle" x="285.5" y="-114" font-family="Helvetica,sans-Serif" font-size="10.00">BaseY</text>
<text text-anchor="middle" x="285.5" y="-103" font-family="Helvetica,sans-Serif" font-size="10.00">BaseYZ</text>
<text text-anchor="middle" x="285.5" y="-92" font-family="Helvetica,sans-Serif" font-size="10.00">BaseZ</text>
<text text-anchor="middle" x="285.5" y="-81" font-family="Helvetica,sans-Serif" font-size="10.00">Zero</text>
</g>
<!-- Node7 -->
<g id="node7" class="node">
<title>Node7</title>
<g id="a_node7"><a xlink:href="structVec.html" target="_top" xlink:title=" ">
<polygon fill="white" stroke="black" points="210,-203.5 210,-222.5 244,-222.5 244,-203.5 210,-203.5"/>
<text text-anchor="middle" x="227" y="-210.5" font-family="Helvetica,sans-Serif" font-size="10.00">Vec</text>
</a>
</g>
</g>
<!-- Node7&#45;&gt;Node6 -->
<g id="edge7" class="edge">
<title>Node7&#45;&gt;Node6</title>
<path fill="none" stroke="midnightblue" d="M227,-193.35C227,-174.38 227,-145.83 227,-131.64"/>
<polygon fill="midnightblue" stroke="midnightblue" points="223.5,-193.47 227,-203.47 230.5,-193.47 223.5,-193.47"/>
</g>
</g>
</svg>
