<?xml version="1.0" encoding="UTF-8" standalone="no"?>
<!DOCTYPE svg PUBLIC "-//W3C//DTD SVG 1.1//EN"
 "http://www.w3.org/Graphics/SVG/1.1/DTD/svg11.dtd">
<!-- Generated by graphviz version 2.44.0 ()
 -->
<!-- Title: daAlink_sight_c Pages: 1 -->
<!--zoomable 508 -->
<svg id="main" version="1.1" xmlns="http://www.w3.org/2000/svg" xmlns:xlink="http://www.w3.org/1999/xlink" xml:space="preserve" onload="init(evt)">
<style type="text/css"><![CDATA[
.edge:hover path { stroke: red; }
.edge:hover polygon { stroke: red; fill: red; }
]]></style>
<script type="text/javascript"><![CDATA[
var edges = document.getElementsByTagName('g');
if (edges && edges.length) {
  for (var i=0;i<edges.length;i++) {
    if (edges[i].id.substr(0,4)=='edge') {
      edges[i].setAttribute('class','edge');
    }
  }
}
]]></script>
        <defs>
                <circle id="rim" cx="0" cy="0" r="7"/>
                <circle id="rim2" cx="0" cy="0" r="3.5"/>
                <g id="zoomPlus">
                        <use xlink:href="#rim" fill="#404040">
                                <set attributeName="fill" to="#808080" begin="zoomplus.mouseover" end="zoomplus.mouseout"/>
                        </use>
                        <path d="M-4,0h8M0,-4v8" fill="none" stroke="white" stroke-width="1.5" pointer-events="none"/>
                </g>
                <g id="zoomMin">
                        <use xlink:href="#rim" fill="#404040">
                                <set attributeName="fill" to="#808080" begin="zoomminus.mouseover" end="zoomminus.mouseout"/>
                        </use>
                        <path d="M-4,0h8" fill="none" stroke="white" stroke-width="1.5" pointer-events="none"/>
                </g>
                <g id="dirArrow">
                        <path fill="none" stroke="white" stroke-width="1.5" d="M0,-3.0v7 M-2.5,-0.5L0,-3.0L2.5,-0.5"/>
                </g>
               <g id="resetDef">
                       <use xlink:href="#rim2" fill="#404040">
                               <set attributeName="fill" to="#808080" begin="reset.mouseover" end="reset.mouseout"/>
                       </use>
               </g>
        </defs>

<script type="text/javascript">
var viewWidth = 710;
var viewHeight = 508;
var sectionId = 'dynsection-1';
</script>
<script xlink:href="svgpan.js"/>
<svg id="graph" class="graph">
<g id="viewport">
<title>daAlink_sight_c</title>
<polygon fill="white" stroke="transparent" points="-4,4 -4,-504 706,-504 706,4 -4,4"/>
<!-- Node1 -->
<g id="node1" class="node">
<title>Node1</title>
<g id="a_node1"><a xlink:title=" ">
<polygon fill="#bfbfbf" stroke="black" points="191,-0.5 191,-19.5 277,-19.5 277,-0.5 191,-0.5"/>
<text text-anchor="middle" x="234" y="-7.5" font-family="Helvetica,sans-Serif" font-size="10.00">daAlink_sight_c</text>
</a>
</g>
</g>
<!-- Node2 -->
<g id="node2" class="node">
<title>Node2</title>
<g id="a_node2"><a xlink:href="classdaPy__sightPacket__c.html" target="_top" xlink:title=" ">
<polygon fill="white" stroke="black" points="119,-67.5 119,-86.5 225,-86.5 225,-67.5 119,-67.5"/>
<text text-anchor="middle" x="172" y="-74.5" font-family="Helvetica,sans-Serif" font-size="10.00">daPy_sightPacket_c</text>
</a>
</g>
</g>
<!-- Node2&#45;&gt;Node1 -->
<g id="edge1" class="edge">
<title>Node2&#45;&gt;Node1</title>
<path fill="none" stroke="midnightblue" d="M187.26,-60C199.42,-47.25 215.98,-29.89 225.77,-19.63"/>
<polygon fill="midnightblue" stroke="midnightblue" points="184.73,-57.58 180.36,-67.23 189.8,-62.41 184.73,-57.58"/>
</g>
<!-- Node3 -->
<g id="node3" class="node">
<title>Node3</title>
<g id="a_node3"><a xlink:href="structdDlst__base__c.html" target="_top" xlink:title=" ">
<polygon fill="white" stroke="black" points="195,-201.5 195,-220.5 271,-220.5 271,-201.5 195,-201.5"/>
<text text-anchor="middle" x="233" y="-208.5" font-family="Helvetica,sans-Serif" font-size="10.00">dDlst_base_c</text>
</a>
</g>
</g>
<!-- Node3&#45;&gt;Node2 -->
<g id="edge2" class="edge">
<title>Node3&#45;&gt;Node2</title>
<path fill="none" stroke="midnightblue" d="M232.06,-191.25C230.15,-169.03 224.39,-131.65 207,-105 202.13,-97.55 194.49,-91.3 187.59,-86.7"/>
<polygon fill="midnightblue" stroke="midnightblue" points="228.57,-191.62 232.74,-201.36 235.56,-191.14 228.57,-191.62"/>
</g>
<!-- Node7 -->
<g id="node7" class="node">
<title>Node7</title>
<g id="a_node7"><a xlink:href="classdaAlink__lockCursor__c.html" target="_top" xlink:title=" ">
<polygon fill="white" stroke="black" points="266.5,-67.5 266.5,-86.5 377.5,-86.5 377.5,-67.5 266.5,-67.5"/>
<text text-anchor="middle" x="322" y="-74.5" font-family="Helvetica,sans-Serif" font-size="10.00">daAlink_lockCursor_c</text>
</a>
</g>
</g>
<!-- Node3&#45;&gt;Node7 -->
<g id="edge8" class="edge">
<title>Node3&#45;&gt;Node7</title>
<path fill="none" stroke="midnightblue" d="M244.6,-192.79C263.88,-164.19 301.83,-107.91 316.25,-86.52"/>
<polygon fill="midnightblue" stroke="midnightblue" points="241.53,-191.09 238.84,-201.34 247.33,-195 241.53,-191.09"/>
</g>
<!-- Node4 -->
<g id="node4" class="node">
<title>Node4</title>
<g id="a_node4"><a xlink:href="structcXyz.html" target="_top" xlink:title=" ">
<polygon fill="white" stroke="black" points="0,-201.5 0,-220.5 38,-220.5 38,-201.5 0,-201.5"/>
<text text-anchor="middle" x="19" y="-208.5" font-family="Helvetica,sans-Serif" font-size="10.00">cXyz</text>
</a>
</g>
</g>
<!-- Node4&#45;&gt;Node2 -->
<g id="edge3" class="edge">
<title>Node4&#45;&gt;Node2</title>
<path fill="none" stroke="#9a32cd" stroke-dasharray="5,2" d="M32.05,-193.37C50.06,-171.19 84.39,-131.62 120,-105 129.78,-97.69 141.81,-91.3 151.84,-86.58"/>
<polygon fill="#9a32cd" stroke="#9a32cd" points="29.08,-191.48 25.57,-201.47 34.55,-195.85 29.08,-191.48"/>
<text text-anchor="middle" x="134" y="-124.5" font-family="Helvetica,sans-Serif" font-size="10.00"> mPos</text>
</g>
<!-- Node4&#45;&gt;Node4 -->
<g id="edge5" class="edge">
<title>Node4&#45;&gt;Node4</title>
<path fill="none" stroke="#9a32cd" stroke-dasharray="5,2" d="M38.61,-224.2C47.87,-225.74 56,-221.34 56,-211 56,-197.22 41.54,-193.99 29.23,-201.31"/>
<polygon fill="#9a32cd" stroke="#9a32cd" points="39.82,-220.92 29.23,-220.69 37.36,-227.48 39.82,-220.92"/>
<text text-anchor="middle" x="77.5" y="-247" font-family="Helvetica,sans-Serif" font-size="10.00"> BaseX</text>
<text text-anchor="middle" x="77.5" y="-236" font-family="Helvetica,sans-Serif" font-size="10.00">BaseXY</text>
<text text-anchor="middle" x="77.5" y="-225" font-family="Helvetica,sans-Serif" font-size="10.00">BaseXYZ</text>
<text text-anchor="middle" x="77.5" y="-214" font-family="Helvetica,sans-Serif" font-size="10.00">BaseXZ</text>
<text text-anchor="middle" x="77.5" y="-203" font-family="Helvetica,sans-Serif" font-size="10.00">BaseY</text>
<text text-anchor="middle" x="77.5" y="-192" font-family="Helvetica,sans-Serif" font-size="10.00">BaseYZ</text>
<text text-anchor="middle" x="77.5" y="-181" font-family="Helvetica,sans-Serif" font-size="10.00">BaseZ</text>
<text text-anchor="middle" x="77.5" y="-170" font-family="Helvetica,sans-Serif" font-size="10.00">Zero</text>
</g>
<!-- Node5 -->
<g id="node5" class="node">
<title>Node5</title>
<g id="a_node5"><a xlink:href="structVec.html" target="_top" xlink:title=" ">
<polygon fill="white" stroke="black" points="2,-313.5 2,-332.5 36,-332.5 36,-313.5 2,-313.5"/>
<text text-anchor="middle" x="19" y="-320.5" font-family="Helvetica,sans-Serif" font-size="10.00">Vec</text>
</a>
</g>
</g>
<!-- Node5&#45;&gt;Node4 -->
<g id="edge4" class="edge">
<title>Node5&#45;&gt;Node4</title>
<path fill="none" stroke="midnightblue" d="M19,-303.35C19,-279.25 19,-238.31 19,-220.59"/>
<polygon fill="midnightblue" stroke="midnightblue" points="15.5,-303.37 19,-313.37 22.5,-303.37 15.5,-303.37"/>
</g>
<!-- Node6 -->
<g id="node6" class="node">
<title>Node6</title>
<g id="a_node6"><a xlink:href="structResTIMG.html" target="_top" xlink:title=" ">
<polygon fill="white" stroke="black" points="117.5,-201.5 117.5,-220.5 176.5,-220.5 176.5,-201.5 117.5,-201.5"/>
<text text-anchor="middle" x="147" y="-208.5" font-family="Helvetica,sans-Serif" font-size="10.00">ResTIMG</text>
</a>
</g>
</g>
<!-- Node6&#45;&gt;Node2 -->
<g id="edge6" class="edge">
<title>Node6&#45;&gt;Node2</title>
<path fill="none" stroke="#9a32cd" stroke-dasharray="5,2" d="M148.06,-191.22C149.59,-169.99 153.15,-134.54 161,-105 162.66,-98.74 165.41,-91.99 167.75,-86.8"/>
<polygon fill="#9a32cd" stroke="#9a32cd" points="144.55,-191.21 147.41,-201.42 151.54,-191.66 144.55,-191.21"/>
<text text-anchor="middle" x="184" y="-130" font-family="Helvetica,sans-Serif" font-size="10.00"> field_0x44</text>
<text text-anchor="middle" x="184" y="-119" font-family="Helvetica,sans-Serif" font-size="10.00">field_0x48</text>
</g>
<!-- Node7&#45;&gt;Node1 -->
<g id="edge7" class="edge">
<title>Node7&#45;&gt;Node1</title>
<path fill="none" stroke="#9a32cd" stroke-dasharray="5,2" d="M301.78,-61.07C284.41,-48.24 259.97,-30.19 245.68,-19.63"/>
<polygon fill="#9a32cd" stroke="#9a32cd" points="300.01,-64.11 310.13,-67.23 304.17,-58.48 300.01,-64.11"/>
<text text-anchor="middle" x="306" y="-41" font-family="Helvetica,sans-Serif" font-size="10.00"> field_0x50</text>
</g>
<!-- Node8 -->
<g id="node8" class="node">
<title>Node8</title>
<g id="a_node8"><a xlink:href="structJ2DAnmBase.html" target="_top" xlink:title=" ">
<polygon fill="white" stroke="black" points="372.5,-201.5 372.5,-220.5 449.5,-220.5 449.5,-201.5 372.5,-201.5"/>
<text text-anchor="middle" x="411" y="-208.5" font-family="Helvetica,sans-Serif" font-size="10.00">J2DAnmBase</text>
</a>
</g>
</g>
<!-- Node8&#45;&gt;Node7 -->
<g id="edge9" class="edge">
<title>Node8&#45;&gt;Node7</title>
<path fill="none" stroke="#9a32cd" stroke-dasharray="5,2" d="M406.75,-191.48C400.82,-168.93 388.19,-130.67 366,-105 359.32,-97.27 349.86,-91.07 341.43,-86.57"/>
<polygon fill="#9a32cd" stroke="#9a32cd" points="403.42,-192.56 409.21,-201.43 410.21,-190.89 403.42,-192.56"/>
<text text-anchor="middle" x="414" y="-141" font-family="Helvetica,sans-Serif" font-size="10.00"> field_0x1c</text>
<text text-anchor="middle" x="414" y="-130" font-family="Helvetica,sans-Serif" font-size="10.00">field_0x20</text>
<text text-anchor="middle" x="414" y="-119" font-family="Helvetica,sans-Serif" font-size="10.00">field_0x24</text>
<text text-anchor="middle" x="414" y="-108" font-family="Helvetica,sans-Serif" font-size="10.00">field_0x28</text>
</g>
<!-- Node9 -->
<g id="node9" class="node">
<title>Node9</title>
<g id="a_node9"><a xlink:href="structJ2DScreen.html" target="_top" xlink:title=" ">
<polygon fill="white" stroke="black" points="289.5,-201.5 289.5,-220.5 354.5,-220.5 354.5,-201.5 289.5,-201.5"/>
<text text-anchor="middle" x="322" y="-208.5" font-family="Helvetica,sans-Serif" font-size="10.00">J2DScreen</text>
</a>
</g>
</g>
<!-- Node9&#45;&gt;Node7 -->
<g id="edge10" class="edge">
<title>Node9&#45;&gt;Node7</title>
<path fill="none" stroke="#9a32cd" stroke-dasharray="5,2" d="M322,-191.28C322,-162.25 322,-107.54 322,-86.52"/>
<polygon fill="#9a32cd" stroke="#9a32cd" points="318.5,-191.34 322,-201.34 325.5,-191.34 318.5,-191.34"/>
<text text-anchor="middle" x="342" y="-124.5" font-family="Helvetica,sans-Serif" font-size="10.00"> field_0x8</text>
</g>
<!-- Node10 -->
<g id="node10" class="node">
<title>Node10</title>
<g id="a_node10"><a xlink:href="structJ2DPane.html" target="_top" xlink:title=" ">
<polygon fill="white" stroke="black" points="473,-313.5 473,-332.5 529,-332.5 529,-313.5 473,-313.5"/>
<text text-anchor="middle" x="501" y="-320.5" font-family="Helvetica,sans-Serif" font-size="10.00">J2DPane</text>
</a>
</g>
</g>
<!-- Node10&#45;&gt;Node7 -->
<g id="edge22" class="edge">
<title>Node10&#45;&gt;Node7</title>
<path fill="none" stroke="#9a32cd" stroke-dasharray="5,2" d="M501.81,-303.2C502.52,-261.08 497.95,-158.66 441,-105 431.56,-96.1 403.9,-89.54 377.63,-85.11"/>
<polygon fill="#9a32cd" stroke="#9a32cd" points="498.3,-303.29 501.51,-313.39 505.3,-303.5 498.3,-303.29"/>
<text text-anchor="middle" x="522" y="-225" font-family="Helvetica,sans-Serif" font-size="10.00"> field_0x10</text>
<text text-anchor="middle" x="522" y="-214" font-family="Helvetica,sans-Serif" font-size="10.00">field_0x14</text>
<text text-anchor="middle" x="522" y="-203" font-family="Helvetica,sans-Serif" font-size="10.00">field_0x18</text>
<text text-anchor="middle" x="522" y="-192" font-family="Helvetica,sans-Serif" font-size="10.00">field_0xc</text>
</g>
<!-- Node10&#45;&gt;Node9 -->
<g id="edge11" class="edge">
<title>Node10&#45;&gt;Node9</title>
<path fill="none" stroke="midnightblue" d="M485.33,-306.42C473.53,-295.53 456.45,-281.47 439,-273 408.17,-258.02 393.81,-271.92 364,-255 348.75,-246.34 335.43,-230.53 328.07,-220.68"/>
<polygon fill="midnightblue" stroke="midnightblue" points="482.95,-308.98 492.6,-313.35 487.78,-303.92 482.95,-308.98"/>
</g>
<!-- Node11 -->
<g id="node11" class="node">
<title>Node11</title>
<g id="a_node11"><a xlink:href="structJGeometry_1_1TBox2.html" target="_top" xlink:title=" ">
<polygon fill="white" stroke="black" points="575,-402.5 575,-421.5 701,-421.5 701,-402.5 575,-402.5"/>
<text text-anchor="middle" x="638" y="-409.5" font-family="Helvetica,sans-Serif" font-size="10.00">JGeometry::TBox2&lt; f32 &gt;</text>
</a>
</g>
</g>
<!-- Node11&#45;&gt;Node10 -->
<g id="edge12" class="edge">
<title>Node11&#45;&gt;Node10</title>
<path fill="none" stroke="#9a32cd" stroke-dasharray="5,2" d="M619.74,-395.63C603.99,-382.79 580.32,-364.47 558,-351 546.37,-343.98 532.64,-337.43 521.56,-332.54"/>
<polygon fill="#9a32cd" stroke="#9a32cd" points="617.67,-398.46 627.61,-402.13 622.13,-393.06 617.67,-398.46"/>
<text text-anchor="middle" x="639" y="-376" font-family="Helvetica,sans-Serif" font-size="10.00"> mBounds</text>
<text text-anchor="middle" x="639" y="-365" font-family="Helvetica,sans-Serif" font-size="10.00">mClipRect</text>
<text text-anchor="middle" x="639" y="-354" font-family="Helvetica,sans-Serif" font-size="10.00">mGlobalBounds</text>
</g>
<!-- Node12 -->
<g id="node12" class="node">
<title>Node12</title>
<g id="a_node12"><a xlink:href="structJGeometry_1_1TBox.html" target="_top" xlink:title=" ">
<polygon fill="white" stroke="black" points="574,-469.5 574,-499.5 702,-499.5 702,-469.5 574,-469.5"/>
<text text-anchor="start" x="582" y="-487.5" font-family="Helvetica,sans-Serif" font-size="10.00">JGeometry::TBox&lt; TVec2</text>
<text text-anchor="middle" x="638" y="-476.5" font-family="Helvetica,sans-Serif" font-size="10.00">&lt; T &gt; &gt;</text>
</a>
</g>
</g>
<!-- Node12&#45;&gt;Node11 -->
<g id="edge13" class="edge">
<title>Node12&#45;&gt;Node11</title>
<path fill="none" stroke="midnightblue" d="M638,-459.09C638,-446.21 638,-431.2 638,-421.89"/>
<polygon fill="midnightblue" stroke="midnightblue" points="634.5,-459.23 638,-469.23 641.5,-459.23 634.5,-459.23"/>
</g>
<!-- Node13 -->
<g id="node13" class="node">
<title>Node13</title>
<g id="a_node13"><a xlink:href="structJ2DAnmTransform.html" target="_top" xlink:title=" ">
<polygon fill="white" stroke="black" points="329,-402.5 329,-421.5 427,-421.5 427,-402.5 329,-402.5"/>
<text text-anchor="middle" x="378" y="-409.5" font-family="Helvetica,sans-Serif" font-size="10.00">J2DAnmTransform</text>
</a>
</g>
</g>
<!-- Node13&#45;&gt;Node10 -->
<g id="edge14" class="edge">
<title>Node13&#45;&gt;Node10</title>
<path fill="none" stroke="#9a32cd" stroke-dasharray="5,2" d="M392.65,-394.59C404.9,-381.57 423.33,-363.53 442,-351 453.13,-343.53 466.66,-337.17 477.96,-332.5"/>
<polygon fill="#9a32cd" stroke="#9a32cd" points="389.74,-392.58 385.55,-402.32 394.9,-397.32 389.74,-392.58"/>
<text text-anchor="middle" x="469.5" y="-365" font-family="Helvetica,sans-Serif" font-size="10.00"> mTransform</text>
</g>
<!-- Node14 -->
<g id="node14" class="node">
<title>Node14</title>
<g id="a_node14"><a xlink:href="classJSUTree.html" target="_top" xlink:title=" ">
<polygon fill="white" stroke="black" points="445,-402.5 445,-421.5 557,-421.5 557,-402.5 445,-402.5"/>
<text text-anchor="middle" x="501" y="-409.5" font-family="Helvetica,sans-Serif" font-size="10.00">JSUTree&lt; J2DPane &gt;</text>
</a>
</g>
</g>
<!-- Node14&#45;&gt;Node10 -->
<g id="edge15" class="edge">
<title>Node14&#45;&gt;Node10</title>
<path fill="none" stroke="#9a32cd" stroke-dasharray="5,2" d="M501,-392.19C501,-373.74 501,-346.41 501,-332.62"/>
<polygon fill="#9a32cd" stroke="#9a32cd" points="497.5,-392.34 501,-402.34 504.5,-392.34 497.5,-392.34"/>
<text text-anchor="middle" x="527.5" y="-365" font-family="Helvetica,sans-Serif" font-size="10.00"> mPaneTree</text>
</g>
<!-- Node15 -->
<g id="node15" class="node">
<title>Node15</title>
<g id="a_node15"><a xlink:href="structJUTNameTab.html" target="_top" xlink:title=" ">
<polygon fill="white" stroke="black" points="69,-313.5 69,-332.5 147,-332.5 147,-313.5 69,-313.5"/>
<text text-anchor="middle" x="108" y="-320.5" font-family="Helvetica,sans-Serif" font-size="10.00">JUTNameTab</text>
</a>
</g>
</g>
<!-- Node15&#45;&gt;Node9 -->
<g id="edge16" class="edge">
<title>Node15&#45;&gt;Node9</title>
<path fill="none" stroke="#9a32cd" stroke-dasharray="5,2" d="M120.33,-305.33C129.45,-294.29 142.88,-280.51 158,-273 207.09,-248.62 231.18,-279.91 280,-255 295.8,-246.94 309.14,-230.62 316.31,-220.57"/>
<polygon fill="#9a32cd" stroke="#9a32cd" points="117.4,-303.39 113.98,-313.42 122.91,-307.71 117.4,-303.39"/>
<text text-anchor="middle" x="188.5" y="-281.5" font-family="Helvetica,sans-Serif" font-size="10.00"> mNameTable</text>
</g>
<!-- Node16 -->
<g id="node16" class="node">
<title>Node16</title>
<g id="a_node16"><a xlink:href="structResNTAB.html" target="_top" xlink:title=" ">
<polygon fill="white" stroke="black" points="77.5,-402.5 77.5,-421.5 138.5,-421.5 138.5,-402.5 77.5,-402.5"/>
<text text-anchor="middle" x="108" y="-409.5" font-family="Helvetica,sans-Serif" font-size="10.00">ResNTAB</text>
</a>
</g>
</g>
<!-- Node16&#45;&gt;Node15 -->
<g id="edge17" class="edge">
<title>Node16&#45;&gt;Node15</title>
<path fill="none" stroke="#9a32cd" stroke-dasharray="5,2" d="M108,-392.19C108,-373.74 108,-346.41 108,-332.62"/>
<polygon fill="#9a32cd" stroke="#9a32cd" points="104.5,-392.34 108,-402.34 111.5,-392.34 104.5,-392.34"/>
<text text-anchor="middle" x="141.5" y="-365" font-family="Helvetica,sans-Serif" font-size="10.00"> mpNameTable</text>
</g>
<!-- Node17 -->
<g id="node17" class="node">
<title>Node17</title>
<g id="a_node17"><a xlink:href="structResNTAB_1_1Entry.html" target="_top" xlink:title=" ">
<polygon fill="white" stroke="black" points="64.5,-475 64.5,-494 151.5,-494 151.5,-475 64.5,-475"/>
<text text-anchor="middle" x="108" y="-482" font-family="Helvetica,sans-Serif" font-size="10.00">ResNTAB::Entry</text>
</a>
</g>
</g>
<!-- Node17&#45;&gt;Node16 -->
<g id="edge18" class="edge">
<title>Node17&#45;&gt;Node16</title>
<path fill="none" stroke="#9a32cd" stroke-dasharray="5,2" d="M108,-464.44C108,-450.53 108,-432.32 108,-421.72"/>
<polygon fill="#9a32cd" stroke="#9a32cd" points="104.5,-464.86 108,-474.86 111.5,-464.86 104.5,-464.86"/>
<text text-anchor="middle" x="128.5" y="-443" font-family="Helvetica,sans-Serif" font-size="10.00"> mEntries</text>
</g>
<!-- Node18 -->
<g id="node18" class="node">
<title>Node18</title>
<g id="a_node18"><a xlink:href="structJ2DDataManage.html" target="_top" xlink:title=" ">
<polygon fill="white" stroke="black" points="165.5,-313.5 165.5,-332.5 254.5,-332.5 254.5,-313.5 165.5,-313.5"/>
<text text-anchor="middle" x="210" y="-320.5" font-family="Helvetica,sans-Serif" font-size="10.00">J2DDataManage</text>
</a>
</g>
</g>
<!-- Node18&#45;&gt;Node9 -->
<g id="edge19" class="edge">
<title>Node18&#45;&gt;Node9</title>
<path fill="none" stroke="#9a32cd" stroke-dasharray="5,2" d="M218.11,-304.11C223.44,-293.93 231.23,-281.56 241,-273 255.36,-260.42 264.41,-266.01 280,-255 294.15,-245.01 307.61,-229.89 315.32,-220.5"/>
<polygon fill="#9a32cd" stroke="#9a32cd" points="214.85,-302.8 213.62,-313.32 221.14,-305.87 214.85,-302.8"/>
<text text-anchor="middle" x="274" y="-281.5" font-family="Helvetica,sans-Serif" font-size="10.00"> mDataManage</text>
</g>
<!-- Node19 -->
<g id="node19" class="node">
<title>Node19</title>
<g id="a_node19"><a xlink:href="structJ2DMaterial.html" target="_top" xlink:title=" ">
<polygon fill="white" stroke="black" points="273,-313.5 273,-332.5 341,-332.5 341,-313.5 273,-313.5"/>
<text text-anchor="middle" x="307" y="-320.5" font-family="Helvetica,sans-Serif" font-size="10.00">J2DMaterial</text>
</a>
</g>
</g>
<!-- Node19&#45;&gt;Node9 -->
<g id="edge20" class="edge">
<title>Node19&#45;&gt;Node9</title>
<path fill="none" stroke="#9a32cd" stroke-dasharray="5,2" d="M309.54,-303.35C312.83,-279.25 318.41,-238.31 320.83,-220.59"/>
<polygon fill="#9a32cd" stroke="#9a32cd" points="306.06,-302.99 308.18,-313.37 313,-303.93 306.06,-302.99"/>
<text text-anchor="middle" x="338.5" y="-281.5" font-family="Helvetica,sans-Serif" font-size="10.00"> mMaterials</text>
</g>
<!-- Node20 -->
<g id="node20" class="node">
<title>Node20</title>
<g id="a_node20"><a xlink:href="structJ2DResReference.html" target="_top" xlink:title=" ">
<polygon fill="white" stroke="black" points="359.5,-313.5 359.5,-332.5 454.5,-332.5 454.5,-313.5 359.5,-313.5"/>
<text text-anchor="middle" x="407" y="-320.5" font-family="Helvetica,sans-Serif" font-size="10.00">J2DResReference</text>
</a>
</g>
</g>
<!-- Node20&#45;&gt;Node9 -->
<g id="edge21" class="edge">
<title>Node20&#45;&gt;Node9</title>
<path fill="none" stroke="#9a32cd" stroke-dasharray="5,2" d="M394.07,-305.27C375.7,-281.49 342.7,-238.79 328.64,-220.59"/>
<polygon fill="#9a32cd" stroke="#9a32cd" points="391.45,-307.6 400.33,-313.37 396.99,-303.32 391.45,-307.6"/>
<text text-anchor="middle" x="409.5" y="-287" font-family="Helvetica,sans-Serif" font-size="10.00"> field_0x108</text>
<text text-anchor="middle" x="409.5" y="-276" font-family="Helvetica,sans-Serif" font-size="10.00">field_0x10c</text>
</g>
</g>
</svg>
        <g id="navigator" transform="translate(0 0)" fill="#404254">
                <rect fill="#f2f5e9" fill-opacity="0.5" stroke="#606060" stroke-width=".5" x="0" y="0" width="60" height="60"/>
                <use id="zoomplus" xlink:href="#zoomPlus" x="17" y="9" onmousedown="handleZoom(evt,'in')"/>
                <use id="zoomminus" xlink:href="#zoomMin" x="42" y="9" onmousedown="handleZoom(evt,'out')"/>
                <use id="reset" xlink:href="#resetDef" x="30" y="36" onmousedown="handleReset()"/>
                <g id="arrowUp" xlink:href="#dirArrow" transform="translate(30 24)" onmousedown="handlePan(0,-1)">
                  <use xlink:href="#rim" fill="#404040">
                        <set attributeName="fill" to="#808080" begin="arrowUp.mouseover" end="arrowUp.mouseout"/>
                  </use>
                  <path fill="none" stroke="white" stroke-width="1.5" d="M0,-3.0v7 M-2.5,-0.5L0,-3.0L2.5,-0.5"/>
                </g>
                <g id="arrowRight" xlink:href="#dirArrow" transform="rotate(90) translate(36 -43)" onmousedown="handlePan(1,0)">
                  <use xlink:href="#rim" fill="#404040">
                        <set attributeName="fill" to="#808080" begin="arrowRight.mouseover" end="arrowRight.mouseout"/>
                  </use>
                  <path fill="none" stroke="white" stroke-width="1.5" d="M0,-3.0v7 M-2.5,-0.5L0,-3.0L2.5,-0.5"/>
                </g>
                <g id="arrowDown" xlink:href="#dirArrow" transform="rotate(180) translate(-30 -48)" onmousedown="handlePan(0,1)">
                  <use xlink:href="#rim" fill="#404040">
                        <set attributeName="fill" to="#808080" begin="arrowDown.mouseover" end="arrowDown.mouseout"/>
                  </use>
                  <path fill="none" stroke="white" stroke-width="1.5" d="M0,-3.0v7 M-2.5,-0.5L0,-3.0L2.5,-0.5"/>
                </g>
                <g id="arrowLeft" xlink:href="#dirArrow" transform="rotate(270) translate(-36 17)" onmousedown="handlePan(-1,0)">
                  <use xlink:href="#rim" fill="#404040">
                        <set attributeName="fill" to="#808080" begin="arrowLeft.mouseover" end="arrowLeft.mouseout"/>
                  </use>
                  <path fill="none" stroke="white" stroke-width="1.5" d="M0,-3.0v7 M-2.5,-0.5L0,-3.0L2.5,-0.5"/>
                </g>
        </g>
        <svg viewBox="0 0 15 15" width="100%" height="30px" preserveAspectRatio="xMaxYMin meet">
         <g id="arrow_out" transform="scale(0.3 0.3)">
          <a xlink:href="classdaAlink__sight__c__coll__graph_org.svg" target="_base">
           <rect id="button" ry="5" rx="5" y="6" x="6" height="38" width="38"
                fill="#f2f5e9" fill-opacity="0.5" stroke="#606060" stroke-width="1.0"/>
           <path id="arrow"
             d="M 11.500037,31.436501 C 11.940474,20.09759 22.043105,11.32322 32.158766,21.979434 L 37.068811,17.246167 C 37.068811,17.246167 37.088388,32 37.088388,32 L 22.160133,31.978069 C 22.160133,31.978069 26.997745,27.140456 26.997745,27.140456 C 18.528582,18.264221 13.291696,25.230495 11.500037,31.436501 z"
             style="fill:#404040;"/>
          </a>
         </g>
        </svg>
</svg>
