<?xml version="1.0" encoding="UTF-8" standalone="no"?>
<!DOCTYPE svg PUBLIC "-//W3C//DTD SVG 1.1//EN"
 "http://www.w3.org/Graphics/SVG/1.1/DTD/svg11.dtd">
<!-- Generated by graphviz version 2.44.0 ()
 -->
<!-- Title: daAlink_sight_c Pages: 1 -->
<!--zoomable 508 -->
<svg id="main" version="1.1" xmlns="http://www.w3.org/2000/svg" xmlns:xlink="http://www.w3.org/1999/xlink" xml:space="preserve" onload="init(evt)">
<style type="text/css"><![CDATA[
.edge:hover path { stroke: red; }
.edge:hover polygon { stroke: red; fill: red; }
]]></style>
<script type="text/javascript"><![CDATA[
var edges = document.getElementsByTagName('g');
if (edges && edges.length) {
  for (var i=0;i<edges.length;i++) {
    if (edges[i].id.substr(0,4)=='edge') {
      edges[i].setAttribute('class','edge');
    }
  }
}
]]></script>
        <defs>
                <circle id="rim" cx="0" cy="0" r="7"/>
                <circle id="rim2" cx="0" cy="0" r="3.5"/>
                <g id="zoomPlus">
                        <use xlink:href="#rim" fill="#404040">
                                <set attributeName="fill" to="#808080" begin="zoomplus.mouseover" end="zoomplus.mouseout"/>
                        </use>
                        <path d="M-4,0h8M0,-4v8" fill="none" stroke="white" stroke-width="1.5" pointer-events="none"/>
                </g>
                <g id="zoomMin">
                        <use xlink:href="#rim" fill="#404040">
                                <set attributeName="fill" to="#808080" begin="zoomminus.mouseover" end="zoomminus.mouseout"/>
                        </use>
                        <path d="M-4,0h8" fill="none" stroke="white" stroke-width="1.5" pointer-events="none"/>
                </g>
                <g id="dirArrow">
                        <path fill="none" stroke="white" stroke-width="1.5" d="M0,-3.0v7 M-2.5,-0.5L0,-3.0L2.5,-0.5"/>
                </g>
               <g id="resetDef">
                       <use xlink:href="#rim2" fill="#404040">
                               <set attributeName="fill" to="#808080" begin="reset.mouseover" end="reset.mouseout"/>
                       </use>
               </g>
        </defs>

<script type="text/javascript">
var viewWidth = 742;
var viewHeight = 508;
var sectionId = 'dynsection-1';
</script>
<script xlink:href="svgpan.js"/>
<svg id="graph" class="graph">
<g id="viewport">
<title>daAlink_sight_c</title>
<polygon fill="white" stroke="transparent" points="-4,4 -4,-504 737.5,-504 737.5,4 -4,4"/>
<!-- Node1 -->
<g id="node1" class="node">
<title>Node1</title>
<g id="a_node1"><a xlink:title=" ">
<polygon fill="#bfbfbf" stroke="black" points="166,-0.5 166,-19.5 252,-19.5 252,-0.5 166,-0.5"/>
<text text-anchor="middle" x="209" y="-7.5" font-family="Helvetica,sans-Serif" font-size="10.00">daAlink_sight_c</text>
</a>
</g>
</g>
<!-- Node2 -->
<g id="node2" class="node">
<title>Node2</title>
<g id="a_node2"><a xlink:href="classdaPy__sightPacket__c.html" target="_top" xlink:title=" ">
<polygon fill="white" stroke="black" points="94,-67.5 94,-86.5 200,-86.5 200,-67.5 94,-67.5"/>
<text text-anchor="middle" x="147" y="-74.5" font-family="Helvetica,sans-Serif" font-size="10.00">daPy_sightPacket_c</text>
</a>
</g>
</g>
<!-- Node2&#45;&gt;Node1 -->
<g id="edge1" class="edge">
<title>Node2&#45;&gt;Node1</title>
<path fill="none" stroke="midnightblue" d="M162.26,-60C174.42,-47.25 190.98,-29.89 200.77,-19.63"/>
<polygon fill="midnightblue" stroke="midnightblue" points="159.73,-57.58 155.36,-67.23 164.8,-62.41 159.73,-57.58"/>
</g>
<!-- Node3 -->
<g id="node3" class="node">
<title>Node3</title>
<g id="a_node3"><a xlink:href="structcXyz.html" target="_top" xlink:title=" ">
<polygon fill="white" stroke="black" points="0,-201.5 0,-220.5 38,-220.5 38,-201.5 0,-201.5"/>
<text text-anchor="middle" x="19" y="-208.5" font-family="Helvetica,sans-Serif" font-size="10.00">cXyz</text>
</a>
</g>
</g>
<!-- Node3&#45;&gt;Node2 -->
<g id="edge2" class="edge">
<title>Node3&#45;&gt;Node2</title>
<path fill="none" stroke="#9a32cd" stroke-dasharray="5,2" d="M32.69,-193.76C50.79,-172.59 84.01,-134.78 115,-105 121.71,-98.55 129.71,-91.8 136.03,-86.66"/>
<polygon fill="#9a32cd" stroke="#9a32cd" points="29.93,-191.6 26.12,-201.49 35.26,-196.14 29.93,-191.6"/>
<text text-anchor="middle" x="129" y="-124.5" font-family="Helvetica,sans-Serif" font-size="10.00"> mPos</text>
</g>
<!-- Node3&#45;&gt;Node3 -->
<g id="edge4" class="edge">
<title>Node3&#45;&gt;Node3</title>
<path fill="none" stroke="#9a32cd" stroke-dasharray="5,2" d="M38.61,-224.2C47.87,-225.74 56,-221.34 56,-211 56,-197.22 41.54,-193.99 29.23,-201.31"/>
<polygon fill="#9a32cd" stroke="#9a32cd" points="39.82,-220.92 29.23,-220.69 37.36,-227.48 39.82,-220.92"/>
<text text-anchor="middle" x="77.5" y="-247" font-family="Helvetica,sans-Serif" font-size="10.00"> BaseX</text>
<text text-anchor="middle" x="77.5" y="-236" font-family="Helvetica,sans-Serif" font-size="10.00">BaseXY</text>
<text text-anchor="middle" x="77.5" y="-225" font-family="Helvetica,sans-Serif" font-size="10.00">BaseXYZ</text>
<text text-anchor="middle" x="77.5" y="-214" font-family="Helvetica,sans-Serif" font-size="10.00">BaseXZ</text>
<text text-anchor="middle" x="77.5" y="-203" font-family="Helvetica,sans-Serif" font-size="10.00">BaseY</text>
<text text-anchor="middle" x="77.5" y="-192" font-family="Helvetica,sans-Serif" font-size="10.00">BaseYZ</text>
<text text-anchor="middle" x="77.5" y="-181" font-family="Helvetica,sans-Serif" font-size="10.00">BaseZ</text>
<text text-anchor="middle" x="77.5" y="-170" font-family="Helvetica,sans-Serif" font-size="10.00">Zero</text>
</g>
<!-- Node4 -->
<g id="node4" class="node">
<title>Node4</title>
<g id="a_node4"><a xlink:href="structVec.html" target="_top" xlink:title=" ">
<polygon fill="white" stroke="black" points="2,-313.5 2,-332.5 36,-332.5 36,-313.5 2,-313.5"/>
<text text-anchor="middle" x="19" y="-320.5" font-family="Helvetica,sans-Serif" font-size="10.00">Vec</text>
</a>
</g>
</g>
<!-- Node4&#45;&gt;Node3 -->
<g id="edge3" class="edge">
<title>Node4&#45;&gt;Node3</title>
<path fill="none" stroke="midnightblue" d="M19,-303.35C19,-279.25 19,-238.31 19,-220.59"/>
<polygon fill="midnightblue" stroke="midnightblue" points="15.5,-303.37 19,-313.37 22.5,-303.37 15.5,-303.37"/>
</g>
<!-- Node5 -->
<g id="node5" class="node">
<title>Node5</title>
<g id="a_node5"><a xlink:href="structResTIMG.html" target="_top" xlink:title=" ">
<polygon fill="white" stroke="black" points="117.5,-201.5 117.5,-220.5 176.5,-220.5 176.5,-201.5 117.5,-201.5"/>
<text text-anchor="middle" x="147" y="-208.5" font-family="Helvetica,sans-Serif" font-size="10.00">ResTIMG</text>
</a>
</g>
</g>
<!-- Node5&#45;&gt;Node2 -->
<g id="edge5" class="edge">
<title>Node5&#45;&gt;Node2</title>
<path fill="none" stroke="#9a32cd" stroke-dasharray="5,2" d="M147,-191.28C147,-162.25 147,-107.54 147,-86.52"/>
<polygon fill="#9a32cd" stroke="#9a32cd" points="143.5,-191.34 147,-201.34 150.5,-191.34 143.5,-191.34"/>
<text text-anchor="middle" x="170" y="-130" font-family="Helvetica,sans-Serif" font-size="10.00"> field_0x44</text>
<text text-anchor="middle" x="170" y="-119" font-family="Helvetica,sans-Serif" font-size="10.00">field_0x48</text>
</g>
<!-- Node6 -->
<g id="node6" class="node">
<title>Node6</title>
<g id="a_node6"><a xlink:href="classdaAlink__lockCursor__c.html" target="_top" xlink:title=" ">
<polygon fill="white" stroke="black" points="234.5,-67.5 234.5,-86.5 345.5,-86.5 345.5,-67.5 234.5,-67.5"/>
<text text-anchor="middle" x="290" y="-74.5" font-family="Helvetica,sans-Serif" font-size="10.00">daAlink_lockCursor_c</text>
</a>
</g>
</g>
<!-- Node6&#45;&gt;Node1 -->
<g id="edge6" class="edge">
<title>Node6&#45;&gt;Node1</title>
<path fill="none" stroke="#9a32cd" stroke-dasharray="5,2" d="M270.95,-60.71C254.99,-47.91 232.79,-30.09 219.75,-19.63"/>
<polygon fill="#9a32cd" stroke="#9a32cd" points="269.09,-63.7 279.08,-67.23 273.47,-58.25 269.09,-63.7"/>
<text text-anchor="middle" x="278" y="-41" font-family="Helvetica,sans-Serif" font-size="10.00"> field_0x50</text>
</g>
<!-- Node7 -->
<g id="node7" class="node">
<title>Node7</title>
<g id="a_node7"><a xlink:href="structJ2DAnmBase.html" target="_top" xlink:title=" ">
<polygon fill="white" stroke="black" points="194.5,-201.5 194.5,-220.5 271.5,-220.5 271.5,-201.5 194.5,-201.5"/>
<text text-anchor="middle" x="233" y="-208.5" font-family="Helvetica,sans-Serif" font-size="10.00">J2DAnmBase</text>
</a>
</g>
</g>
<!-- Node7&#45;&gt;Node6 -->
<g id="edge7" class="edge">
<title>Node7&#45;&gt;Node6</title>
<path fill="none" stroke="#9a32cd" stroke-dasharray="5,2" d="M231.2,-191.12C230.03,-168.76 231.14,-131.26 248,-105 253.06,-97.12 261.32,-91.09 269.19,-86.74"/>
<polygon fill="#9a32cd" stroke="#9a32cd" points="227.73,-191.57 231.96,-201.29 234.71,-191.06 227.73,-191.57"/>
<text text-anchor="middle" x="271" y="-141" font-family="Helvetica,sans-Serif" font-size="10.00"> field_0x1c</text>
<text text-anchor="middle" x="271" y="-130" font-family="Helvetica,sans-Serif" font-size="10.00">field_0x20</text>
<text text-anchor="middle" x="271" y="-119" font-family="Helvetica,sans-Serif" font-size="10.00">field_0x24</text>
<text text-anchor="middle" x="271" y="-108" font-family="Helvetica,sans-Serif" font-size="10.00">field_0x28</text>
</g>
<!-- Node8 -->
<g id="node8" class="node">
<title>Node8</title>
<g id="a_node8"><a xlink:href="structJ2DScreen.html" target="_top" xlink:title=" ">
<polygon fill="white" stroke="black" points="419.5,-201.5 419.5,-220.5 484.5,-220.5 484.5,-201.5 419.5,-201.5"/>
<text text-anchor="middle" x="452" y="-208.5" font-family="Helvetica,sans-Serif" font-size="10.00">J2DScreen</text>
</a>
</g>
</g>
<!-- Node8&#45;&gt;Node6 -->
<g id="edge8" class="edge">
<title>Node8&#45;&gt;Node6</title>
<path fill="none" stroke="#9a32cd" stroke-dasharray="5,2" d="M433.56,-194.97C399.42,-167.15 327.39,-108.47 300.46,-86.52"/>
<polygon fill="#9a32cd" stroke="#9a32cd" points="431.41,-197.74 441.37,-201.34 435.83,-192.31 431.41,-197.74"/>
<text text-anchor="middle" x="396" y="-124.5" font-family="Helvetica,sans-Serif" font-size="10.00"> field_0x8</text>
</g>
<!-- Node9 -->
<g id="node9" class="node">
<title>Node9</title>
<g id="a_node9"><a xlink:href="structJ2DPane.html" target="_top" xlink:title=" ">
<polygon fill="white" stroke="black" points="274,-313.5 274,-332.5 330,-332.5 330,-313.5 274,-313.5"/>
<text text-anchor="middle" x="302" y="-320.5" font-family="Helvetica,sans-Serif" font-size="10.00">J2DPane</text>
</a>
</g>
</g>
<!-- Node9&#45;&gt;Node6 -->
<g id="edge20" class="edge">
<title>Node9&#45;&gt;Node6</title>
<path fill="none" stroke="#9a32cd" stroke-dasharray="5,2" d="M302,-303.29C301.86,-265.65 300.75,-178.14 294,-105 293.44,-98.96 292.44,-92.21 291.58,-86.97"/>
<polygon fill="#9a32cd" stroke="#9a32cd" points="298.5,-303.3 302.02,-313.3 305.5,-303.29 298.5,-303.3"/>
<text text-anchor="middle" x="325" y="-225" font-family="Helvetica,sans-Serif" font-size="10.00"> field_0x10</text>
<text text-anchor="middle" x="325" y="-214" font-family="Helvetica,sans-Serif" font-size="10.00">field_0x14</text>
<text text-anchor="middle" x="325" y="-203" font-family="Helvetica,sans-Serif" font-size="10.00">field_0x18</text>
<text text-anchor="middle" x="325" y="-192" font-family="Helvetica,sans-Serif" font-size="10.00">field_0xc</text>
</g>
<!-- Node9&#45;&gt;Node8 -->
<g id="edge9" class="edge">
<title>Node9&#45;&gt;Node8</title>
<path fill="none" stroke="midnightblue" d="M321.89,-307.42C353.61,-284.15 414.7,-239.35 440.28,-220.59"/>
<polygon fill="midnightblue" stroke="midnightblue" points="319.76,-304.63 313.77,-313.37 323.9,-310.28 319.76,-304.63"/>
</g>
<!-- Node10 -->
<g id="node10" class="node">
<title>Node10</title>
<g id="a_node10"><a xlink:href="structJGeometry_1_1TBox2.html" target="_top" xlink:title=" ">
<polygon fill="white" stroke="black" points="48,-402.5 48,-421.5 174,-421.5 174,-402.5 48,-402.5"/>
<text text-anchor="middle" x="111" y="-409.5" font-family="Helvetica,sans-Serif" font-size="10.00">JGeometry::TBox2&lt; f32 &gt;</text>
</a>
</g>
</g>
<!-- Node10&#45;&gt;Node9 -->
<g id="edge10" class="edge">
<title>Node10&#45;&gt;Node9</title>
<path fill="none" stroke="#9a32cd" stroke-dasharray="5,2" d="M127,-394.87C141.47,-381.21 163.96,-362.11 187,-351 214.89,-337.55 249.89,-330.57 273.91,-327.11"/>
<polygon fill="#9a32cd" stroke="#9a32cd" points="124.21,-392.71 119.47,-402.19 129.08,-397.73 124.21,-392.71"/>
<text text-anchor="middle" x="222" y="-376" font-family="Helvetica,sans-Serif" font-size="10.00"> mBounds</text>
<text text-anchor="middle" x="222" y="-365" font-family="Helvetica,sans-Serif" font-size="10.00">mClipRect</text>
<text text-anchor="middle" x="222" y="-354" font-family="Helvetica,sans-Serif" font-size="10.00">mGlobalBounds</text>
</g>
<!-- Node11 -->
<g id="node11" class="node">
<title>Node11</title>
<g id="a_node11"><a xlink:href="structJGeometry_1_1TBox.html" target="_top" xlink:title=" ">
<polygon fill="white" stroke="black" points="47,-469.5 47,-499.5 175,-499.5 175,-469.5 47,-469.5"/>
<text text-anchor="start" x="55" y="-487.5" font-family="Helvetica,sans-Serif" font-size="10.00">JGeometry::TBox&lt; TVec2</text>
<text text-anchor="middle" x="111" y="-476.5" font-family="Helvetica,sans-Serif" font-size="10.00">&lt; T &gt; &gt;</text>
</a>
</g>
</g>
<!-- Node11&#45;&gt;Node10 -->
<g id="edge11" class="edge">
<title>Node11&#45;&gt;Node10</title>
<path fill="none" stroke="midnightblue" d="M111,-459.09C111,-446.21 111,-431.2 111,-421.89"/>
<polygon fill="midnightblue" stroke="midnightblue" points="107.5,-459.23 111,-469.23 114.5,-459.23 107.5,-459.23"/>
</g>
<!-- Node12 -->
<g id="node12" class="node">
<title>Node12</title>
<g id="a_node12"><a xlink:href="structJ2DAnmTransform.html" target="_top" xlink:title=" ">
<polygon fill="white" stroke="black" points="192,-402.5 192,-421.5 290,-421.5 290,-402.5 192,-402.5"/>
<text text-anchor="middle" x="241" y="-409.5" font-family="Helvetica,sans-Serif" font-size="10.00">J2DAnmTransform</text>
</a>
</g>
</g>
<!-- Node12&#45;&gt;Node9 -->
<g id="edge12" class="edge">
<title>Node12&#45;&gt;Node9</title>
<path fill="none" stroke="#9a32cd" stroke-dasharray="5,2" d="M252.92,-393.99C265.85,-375.56 285.97,-346.87 295.95,-332.62"/>
<polygon fill="#9a32cd" stroke="#9a32cd" points="249.95,-392.14 247.07,-402.34 255.68,-396.16 249.95,-392.14"/>
<text text-anchor="middle" x="310.5" y="-365" font-family="Helvetica,sans-Serif" font-size="10.00"> mTransform</text>
</g>
<!-- Node13 -->
<g id="node13" class="node">
<title>Node13</title>
<g id="a_node13"><a xlink:href="classJSUTree.html" target="_top" xlink:title=" ">
<polygon fill="white" stroke="black" points="308,-402.5 308,-421.5 420,-421.5 420,-402.5 308,-402.5"/>
<text text-anchor="middle" x="364" y="-409.5" font-family="Helvetica,sans-Serif" font-size="10.00">JSUTree&lt; J2DPane &gt;</text>
</a>
</g>
</g>
<!-- Node13&#45;&gt;Node9 -->
<g id="edge13" class="edge">
<title>Node13&#45;&gt;Node9</title>
<path fill="none" stroke="#9a32cd" stroke-dasharray="5,2" d="M360.39,-392.53C357.19,-379.84 351.52,-363.16 342,-351 336.01,-343.35 327.23,-337.09 319.43,-332.53"/>
<polygon fill="#9a32cd" stroke="#9a32cd" points="357,-393.43 362.59,-402.43 363.84,-391.91 357,-393.43"/>
<text text-anchor="middle" x="384.5" y="-365" font-family="Helvetica,sans-Serif" font-size="10.00"> mPaneTree</text>
</g>
<!-- Node14 -->
<g id="node14" class="node">
<title>Node14</title>
<g id="a_node14"><a xlink:href="structJUTNameTab.html" target="_top" xlink:title=" ">
<polygon fill="white" stroke="black" points="348,-313.5 348,-332.5 426,-332.5 426,-313.5 348,-313.5"/>
<text text-anchor="middle" x="387" y="-320.5" font-family="Helvetica,sans-Serif" font-size="10.00">JUTNameTab</text>
</a>
</g>
</g>
<!-- Node14&#45;&gt;Node8 -->
<g id="edge14" class="edge">
<title>Node14&#45;&gt;Node8</title>
<path fill="none" stroke="#9a32cd" stroke-dasharray="5,2" d="M393.66,-303.87C397.4,-294.43 402.44,-282.83 408,-273 419.19,-253.23 435.49,-232.15 444.79,-220.68"/>
<polygon fill="#9a32cd" stroke="#9a32cd" points="390.32,-302.82 390.02,-313.41 396.86,-305.31 390.32,-302.82"/>
<text text-anchor="middle" x="438.5" y="-281.5" font-family="Helvetica,sans-Serif" font-size="10.00"> mNameTable</text>
</g>
<!-- Node15 -->
<g id="node15" class="node">
<title>Node15</title>
<g id="a_node15"><a xlink:href="structResNTAB.html" target="_top" xlink:title=" ">
<polygon fill="white" stroke="black" points="438.5,-402.5 438.5,-421.5 499.5,-421.5 499.5,-402.5 438.5,-402.5"/>
<text text-anchor="middle" x="469" y="-409.5" font-family="Helvetica,sans-Serif" font-size="10.00">ResNTAB</text>
</a>
</g>
</g>
<!-- Node15&#45;&gt;Node14 -->
<g id="edge15" class="edge">
<title>Node15&#45;&gt;Node14</title>
<path fill="none" stroke="#9a32cd" stroke-dasharray="5,2" d="M454.86,-394.67C444.14,-382.44 428.92,-365.41 415,-351 408.9,-344.69 401.77,-337.82 396.24,-332.6"/>
<polygon fill="#9a32cd" stroke="#9a32cd" points="452.29,-397.04 461.5,-402.28 457.56,-392.44 452.29,-397.04"/>
<text text-anchor="middle" x="478.5" y="-365" font-family="Helvetica,sans-Serif" font-size="10.00"> mpNameTable</text>
</g>
<!-- Node16 -->
<g id="node16" class="node">
<title>Node16</title>
<g id="a_node16"><a xlink:href="structResNTAB_1_1Entry.html" target="_top" xlink:title=" ">
<polygon fill="white" stroke="black" points="425.5,-475 425.5,-494 512.5,-494 512.5,-475 425.5,-475"/>
<text text-anchor="middle" x="469" y="-482" font-family="Helvetica,sans-Serif" font-size="10.00">ResNTAB::Entry</text>
</a>
</g>
</g>
<!-- Node16&#45;&gt;Node15 -->
<g id="edge16" class="edge">
<title>Node16&#45;&gt;Node15</title>
<path fill="none" stroke="#9a32cd" stroke-dasharray="5,2" d="M469,-464.44C469,-450.53 469,-432.32 469,-421.72"/>
<polygon fill="#9a32cd" stroke="#9a32cd" points="465.5,-464.86 469,-474.86 472.5,-464.86 465.5,-464.86"/>
<text text-anchor="middle" x="489.5" y="-443" font-family="Helvetica,sans-Serif" font-size="10.00"> mEntries</text>
</g>
<!-- Node17 -->
<g id="node17" class="node">
<title>Node17</title>
<g id="a_node17"><a xlink:href="structJ2DDataManage.html" target="_top" xlink:title=" ">
<polygon fill="white" stroke="black" points="444.5,-313.5 444.5,-332.5 533.5,-332.5 533.5,-313.5 444.5,-313.5"/>
<text text-anchor="middle" x="489" y="-320.5" font-family="Helvetica,sans-Serif" font-size="10.00">J2DDataManage</text>
</a>
</g>
</g>
<!-- Node17&#45;&gt;Node8 -->
<g id="edge17" class="edge">
<title>Node17&#45;&gt;Node8</title>
<path fill="none" stroke="#9a32cd" stroke-dasharray="5,2" d="M482.84,-303.67C474.75,-279.62 460.88,-238.39 454.89,-220.59"/>
<polygon fill="#9a32cd" stroke="#9a32cd" points="479.59,-305.01 486.1,-313.37 486.23,-302.77 479.59,-305.01"/>
<text text-anchor="middle" x="513" y="-281.5" font-family="Helvetica,sans-Serif" font-size="10.00"> mDataManage</text>
</g>
<!-- Node18 -->
<g id="node18" class="node">
<title>Node18</title>
<g id="a_node18"><a xlink:href="structJ2DMaterial.html" target="_top" xlink:title=" ">
<polygon fill="white" stroke="black" points="552,-313.5 552,-332.5 620,-332.5 620,-313.5 552,-313.5"/>
<text text-anchor="middle" x="586" y="-320.5" font-family="Helvetica,sans-Serif" font-size="10.00">J2DMaterial</text>
</a>
</g>
</g>
<!-- Node18&#45;&gt;Node8 -->
<g id="edge18" class="edge">
<title>Node18&#45;&gt;Node8</title>
<path fill="none" stroke="#9a32cd" stroke-dasharray="5,2" d="M575.56,-304.58C569.03,-294.59 559.98,-282.24 550,-273 525.3,-250.13 490.81,-231 470.02,-220.56"/>
<polygon fill="#9a32cd" stroke="#9a32cd" points="572.72,-306.64 581,-313.25 578.65,-302.92 572.72,-306.64"/>
<text text-anchor="middle" x="594.5" y="-281.5" font-family="Helvetica,sans-Serif" font-size="10.00"> mMaterials</text>
</g>
<!-- Node19 -->
<g id="node19" class="node">
<title>Node19</title>
<g id="a_node19"><a xlink:href="structJ2DResReference.html" target="_top" xlink:title=" ">
<polygon fill="white" stroke="black" points="638.5,-313.5 638.5,-332.5 733.5,-332.5 733.5,-313.5 638.5,-313.5"/>
<text text-anchor="middle" x="686" y="-320.5" font-family="Helvetica,sans-Serif" font-size="10.00">J2DResReference</text>
</a>
</g>
</g>
<!-- Node19&#45;&gt;Node8 -->
<g id="edge19" class="edge">
<title>Node19&#45;&gt;Node8</title>
<path fill="none" stroke="#9a32cd" stroke-dasharray="5,2" d="M669.29,-306.29C657.39,-295.76 640.62,-282.18 624,-273 578.38,-247.79 520.37,-229.79 484.73,-220.15"/>
<polygon fill="#9a32cd" stroke="#9a32cd" points="667.27,-309.19 677.03,-313.32 671.98,-304.01 667.27,-309.19"/>
<text text-anchor="middle" x="681.5" y="-287" font-family="Helvetica,sans-Serif" font-size="10.00"> field_0x108</text>
<text text-anchor="middle" x="681.5" y="-276" font-family="Helvetica,sans-Serif" font-size="10.00">field_0x10c</text>
</g>
</g>
</svg>
        <g id="navigator" transform="translate(0 0)" fill="#404254">
                <rect fill="#f2f5e9" fill-opacity="0.5" stroke="#606060" stroke-width=".5" x="0" y="0" width="60" height="60"/>
                <use id="zoomplus" xlink:href="#zoomPlus" x="17" y="9" onmousedown="handleZoom(evt,'in')"/>
                <use id="zoomminus" xlink:href="#zoomMin" x="42" y="9" onmousedown="handleZoom(evt,'out')"/>
                <use id="reset" xlink:href="#resetDef" x="30" y="36" onmousedown="handleReset()"/>
                <g id="arrowUp" xlink:href="#dirArrow" transform="translate(30 24)" onmousedown="handlePan(0,-1)">
                  <use xlink:href="#rim" fill="#404040">
                        <set attributeName="fill" to="#808080" begin="arrowUp.mouseover" end="arrowUp.mouseout"/>
                  </use>
                  <path fill="none" stroke="white" stroke-width="1.5" d="M0,-3.0v7 M-2.5,-0.5L0,-3.0L2.5,-0.5"/>
                </g>
                <g id="arrowRight" xlink:href="#dirArrow" transform="rotate(90) translate(36 -43)" onmousedown="handlePan(1,0)">
                  <use xlink:href="#rim" fill="#404040">
                        <set attributeName="fill" to="#808080" begin="arrowRight.mouseover" end="arrowRight.mouseout"/>
                  </use>
                  <path fill="none" stroke="white" stroke-width="1.5" d="M0,-3.0v7 M-2.5,-0.5L0,-3.0L2.5,-0.5"/>
                </g>
                <g id="arrowDown" xlink:href="#dirArrow" transform="rotate(180) translate(-30 -48)" onmousedown="handlePan(0,1)">
                  <use xlink:href="#rim" fill="#404040">
                        <set attributeName="fill" to="#808080" begin="arrowDown.mouseover" end="arrowDown.mouseout"/>
                  </use>
                  <path fill="none" stroke="white" stroke-width="1.5" d="M0,-3.0v7 M-2.5,-0.5L0,-3.0L2.5,-0.5"/>
                </g>
                <g id="arrowLeft" xlink:href="#dirArrow" transform="rotate(270) translate(-36 17)" onmousedown="handlePan(-1,0)">
                  <use xlink:href="#rim" fill="#404040">
                        <set attributeName="fill" to="#808080" begin="arrowLeft.mouseover" end="arrowLeft.mouseout"/>
                  </use>
                  <path fill="none" stroke="white" stroke-width="1.5" d="M0,-3.0v7 M-2.5,-0.5L0,-3.0L2.5,-0.5"/>
                </g>
        </g>
        <svg viewBox="0 0 15 15" width="100%" height="30px" preserveAspectRatio="xMaxYMin meet">
         <g id="arrow_out" transform="scale(0.3 0.3)">
          <a xlink:href="classdaAlink__sight__c__coll__graph_org.svg" target="_base">
           <rect id="button" ry="5" rx="5" y="6" x="6" height="38" width="38"
                fill="#f2f5e9" fill-opacity="0.5" stroke="#606060" stroke-width="1.0"/>
           <path id="arrow"
             d="M 11.500037,31.436501 C 11.940474,20.09759 22.043105,11.32322 32.158766,21.979434 L 37.068811,17.246167 C 37.068811,17.246167 37.088388,32 37.088388,32 L 22.160133,31.978069 C 22.160133,31.978069 26.997745,27.140456 26.997745,27.140456 C 18.528582,18.264221 13.291696,25.230495 11.500037,31.436501 z"
             style="fill:#404040;"/>
          </a>
         </g>
        </svg>
</svg>
