<?xml version="1.0" encoding="UTF-8" standalone="no"?>
<!DOCTYPE svg PUBLIC "-//W3C//DTD SVG 1.1//EN"
 "http://www.w3.org/Graphics/SVG/1.1/DTD/svg11.dtd">
<!-- Generated by graphviz version 2.44.0 ()
 -->
<!-- Title: include/d/a/d_a_alink.h Pages: 1 -->
<svg width="541pt" height="218pt"
 viewBox="0.00 0.00 541.00 218.00" xmlns="http://www.w3.org/2000/svg" xmlns:xlink="http://www.w3.org/1999/xlink">
<g id="graph0" class="graph" transform="scale(1 1) rotate(0) translate(4 214)">
<title>include/d/a/d_a_alink.h</title>
<polygon fill="white" stroke="transparent" points="-4,4 -4,-214 537,-214 537,4 -4,4"/>
<!-- Node1 -->
<g id="node1" class="node">
<title>Node1</title>
<g id="a_node1"><a xlink:title=" ">
<polygon fill="#bfbfbf" stroke="black" points="81.5,-190.5 81.5,-209.5 197.5,-209.5 197.5,-190.5 81.5,-190.5"/>
<text text-anchor="middle" x="139.5" y="-197.5" font-family="Helvetica,sans-Serif" font-size="10.00">include/d/a/d_a_alink.h</text>
</a>
</g>
</g>
<!-- Node2 -->
<g id="node2" class="node">
<title>Node2</title>
<g id="a_node2"><a xlink:href="d__a__alink_8cpp.html" target="_top" xlink:title=" ">
<polygon fill="white" stroke="black" points="0,-67.5 0,-86.5 109,-86.5 109,-67.5 0,-67.5"/>
<text text-anchor="middle" x="54.5" y="-74.5" font-family="Helvetica,sans-Serif" font-size="10.00">src/d/a/d_a_alink.cpp</text>
</a>
</g>
</g>
<!-- Node1&#45;&gt;Node2 -->
<g id="edge1" class="edge">
<title>Node1&#45;&gt;Node2</title>
<path fill="none" stroke="midnightblue" d="M127.62,-182.09C109.23,-155.91 74.53,-106.52 60.56,-86.62"/>
<polygon fill="midnightblue" stroke="midnightblue" points="124.77,-184.13 133.39,-190.3 130.5,-180.1 124.77,-184.13"/>
</g>
<!-- Node3 -->
<g id="node3" class="node">
<title>Node3</title>
<g id="a_node3"><a xlink:href="d__com__inf__game_8h.html" target="_top" xlink:title=" ">
<polygon fill="white" stroke="black" points="126.5,-123.5 126.5,-153.5 236.5,-153.5 236.5,-123.5 126.5,-123.5"/>
<text text-anchor="start" x="134.5" y="-141.5" font-family="Helvetica,sans-Serif" font-size="10.00">include/d/com/d_com</text>
<text text-anchor="middle" x="181.5" y="-130.5" font-family="Helvetica,sans-Serif" font-size="10.00">_inf_game.h</text>
</a>
</g>
</g>
<!-- Node1&#45;&gt;Node3 -->
<g id="edge2" class="edge">
<title>Node1&#45;&gt;Node3</title>
<path fill="none" stroke="midnightblue" d="M151.33,-182.25C157.72,-173.19 165.53,-162.12 171.6,-153.52"/>
<polygon fill="midnightblue" stroke="midnightblue" points="148.43,-180.29 145.52,-190.48 154.14,-184.32 148.43,-180.29"/>
</g>
<!-- Node3&#45;&gt;Node2 -->
<g id="edge4" class="edge">
<title>Node3&#45;&gt;Node2</title>
<path fill="none" stroke="midnightblue" d="M142.19,-119.08C119.12,-108.28 91.05,-95.12 72.98,-86.66"/>
<polygon fill="midnightblue" stroke="midnightblue" points="140.86,-122.33 151.4,-123.4 143.83,-115.99 140.86,-122.33"/>
</g>
<!-- Node4 -->
<g id="node4" class="node">
<title>Node4</title>
<g id="a_node4"><a xlink:href="d__com__inf__game_8cpp.html" target="_top" xlink:title=" ">
<polygon fill="white" stroke="black" points="199.5,-0.5 199.5,-30.5 307.5,-30.5 307.5,-0.5 199.5,-0.5"/>
<text text-anchor="start" x="207.5" y="-18.5" font-family="Helvetica,sans-Serif" font-size="10.00">src/d/com/d_com_inf</text>
<text text-anchor="middle" x="253.5" y="-7.5" font-family="Helvetica,sans-Serif" font-size="10.00">_game.cpp</text>
</a>
</g>
</g>
<!-- Node3&#45;&gt;Node4 -->
<g id="edge3" class="edge">
<title>Node3&#45;&gt;Node4</title>
<path fill="none" stroke="midnightblue" d="M163.76,-114.91C154.76,-100.54 147.46,-81.89 156.5,-67 166.89,-49.88 185.19,-38.29 203.12,-30.58"/>
<polygon fill="midnightblue" stroke="midnightblue" points="160.92,-116.96 169.45,-123.24 166.7,-113.01 160.92,-116.96"/>
</g>
<!-- Node5 -->
<g id="node5" class="node">
<title>Node5</title>
<g id="a_node5"><a xlink:href="d__event_8cpp.html" target="_top" xlink:title=" ">
<polygon fill="white" stroke="black" points="166,-67.5 166,-86.5 287,-86.5 287,-67.5 166,-67.5"/>
<text text-anchor="middle" x="226.5" y="-74.5" font-family="Helvetica,sans-Serif" font-size="10.00">src/d/event/d_event.cpp</text>
</a>
</g>
</g>
<!-- Node3&#45;&gt;Node5 -->
<g id="edge5" class="edge">
<title>Node3&#45;&gt;Node5</title>
<path fill="none" stroke="midnightblue" d="M198.21,-115.4C205.77,-105.41 214.26,-94.18 219.95,-86.66"/>
<polygon fill="midnightblue" stroke="midnightblue" points="195.4,-113.31 192.16,-123.4 200.99,-117.53 195.4,-113.31"/>
</g>
<!-- Node6 -->
<g id="node6" class="node">
<title>Node6</title>
<g id="a_node6"><a xlink:href="d__save_8cpp.html" target="_top" xlink:title=" ">
<polygon fill="white" stroke="black" points="305,-67.5 305,-86.5 420,-86.5 420,-67.5 305,-67.5"/>
<text text-anchor="middle" x="362.5" y="-74.5" font-family="Helvetica,sans-Serif" font-size="10.00">src/d/save/d_save.cpp</text>
</a>
</g>
</g>
<!-- Node3&#45;&gt;Node6 -->
<g id="edge6" class="edge">
<title>Node3&#45;&gt;Node6</title>
<path fill="none" stroke="midnightblue" d="M234.07,-120.22C267.67,-109.17 309.79,-95.33 336.43,-86.57"/>
<polygon fill="midnightblue" stroke="midnightblue" points="232.8,-116.95 224.39,-123.4 234.99,-123.6 232.8,-116.95"/>
</g>
<!-- Node7 -->
<g id="node7" class="node">
<title>Node7</title>
<g id="a_node7"><a xlink:href="d__item_8h.html" target="_top" xlink:title=" ">
<polygon fill="white" stroke="black" points="438,-67.5 438,-86.5 533,-86.5 533,-67.5 438,-67.5"/>
<text text-anchor="middle" x="485.5" y="-74.5" font-family="Helvetica,sans-Serif" font-size="10.00">include/d/d_item.h</text>
</a>
</g>
</g>
<!-- Node3&#45;&gt;Node7 -->
<g id="edge7" class="edge">
<title>Node3&#45;&gt;Node7</title>
<path fill="none" stroke="midnightblue" d="M246.5,-124.78C305.38,-113.25 390.52,-96.59 441.69,-86.57"/>
<polygon fill="midnightblue" stroke="midnightblue" points="245.69,-121.37 236.55,-126.72 247.04,-128.24 245.69,-121.37"/>
</g>
<!-- Node7&#45;&gt;Node4 -->
<g id="edge8" class="edge">
<title>Node7&#45;&gt;Node4</title>
<path fill="none" stroke="midnightblue" d="M442.51,-64.97C404.48,-55.22 348.81,-40.94 307.73,-30.41"/>
<polygon fill="midnightblue" stroke="midnightblue" points="441.7,-68.38 452.26,-67.48 443.44,-61.6 441.7,-68.38"/>
</g>
<!-- Node8 -->
<g id="node8" class="node">
<title>Node8</title>
<g id="a_node8"><a xlink:href="d__item_8cpp.html" target="_top" xlink:title=" ">
<polygon fill="white" stroke="black" points="441,-6 441,-25 530,-25 530,-6 441,-6"/>
<text text-anchor="middle" x="485.5" y="-13" font-family="Helvetica,sans-Serif" font-size="10.00">src/d/d_item.cpp</text>
</a>
</g>
</g>
<!-- Node7&#45;&gt;Node8 -->
<g id="edge9" class="edge">
<title>Node7&#45;&gt;Node8</title>
<path fill="none" stroke="midnightblue" d="M485.5,-57.32C485.5,-46.5 485.5,-33.4 485.5,-25.01"/>
<polygon fill="midnightblue" stroke="midnightblue" points="482,-57.48 485.5,-67.48 489,-57.48 482,-57.48"/>
</g>
</g>
</svg>
