<?xml version="1.0" encoding="UTF-8" standalone="no"?>
<!DOCTYPE svg PUBLIC "-//W3C//DTD SVG 1.1//EN"
 "http://www.w3.org/Graphics/SVG/1.1/DTD/svg11.dtd">
<!-- Generated by graphviz version 2.44.0 ()
 -->
<!-- Title: include/d/d_attention.h Pages: 1 -->
<svg width="606pt" height="274pt"
 viewBox="0.00 0.00 606.00 274.00" xmlns="http://www.w3.org/2000/svg" xmlns:xlink="http://www.w3.org/1999/xlink">
<g id="graph0" class="graph" transform="scale(1 1) rotate(0) translate(4 270)">
<title>include/d/d_attention.h</title>
<polygon fill="white" stroke="transparent" points="-4,4 -4,-270 602,-270 602,4 -4,4"/>
<!-- Node1 -->
<g id="node1" class="node">
<title>Node1</title>
<g id="a_node1"><a xlink:title=" ">
<polygon fill="#bfbfbf" stroke="black" points="126.5,-246.5 126.5,-265.5 240.5,-265.5 240.5,-246.5 126.5,-246.5"/>
<text text-anchor="middle" x="183.5" y="-253.5" font-family="Helvetica,sans-Serif" font-size="10.00">include/d/d_attention.h</text>
</a>
</g>
</g>
<!-- Node2 -->
<g id="node2" class="node">
<title>Node2</title>
<g id="a_node2"><a xlink:href="d__attention_8cpp.html" target="_top" xlink:title=" ">
<polygon fill="white" stroke="black" points="0,-190.5 0,-209.5 107,-209.5 107,-190.5 0,-190.5"/>
<text text-anchor="middle" x="53.5" y="-197.5" font-family="Helvetica,sans-Serif" font-size="10.00">src/d/d_attention.cpp</text>
</a>
</g>
</g>
<!-- Node1&#45;&gt;Node2 -->
<g id="edge1" class="edge">
<title>Node1&#45;&gt;Node2</title>
<path fill="none" stroke="midnightblue" d="M153.41,-242.5C129.04,-232.38 95.36,-218.39 74,-209.52"/>
<polygon fill="midnightblue" stroke="midnightblue" points="152.32,-245.84 162.9,-246.44 155.01,-239.38 152.32,-245.84"/>
</g>
<!-- Node3 -->
<g id="node3" class="node">
<title>Node3</title>
<g id="a_node3"><a xlink:href="d__a__alink_8h.html" target="_top" xlink:title=" ">
<polygon fill="white" stroke="black" points="125.5,-190.5 125.5,-209.5 241.5,-209.5 241.5,-190.5 125.5,-190.5"/>
<text text-anchor="middle" x="183.5" y="-197.5" font-family="Helvetica,sans-Serif" font-size="10.00">include/d/a/d_a_alink.h</text>
</a>
</g>
</g>
<!-- Node1&#45;&gt;Node3 -->
<g id="edge2" class="edge">
<title>Node1&#45;&gt;Node3</title>
<path fill="none" stroke="midnightblue" d="M183.5,-235.8C183.5,-226.91 183.5,-216.78 183.5,-209.75"/>
<polygon fill="midnightblue" stroke="midnightblue" points="180,-236.08 183.5,-246.08 187,-236.08 180,-236.08"/>
</g>
<!-- Node5 -->
<g id="node5" class="node">
<title>Node5</title>
<g id="a_node5"><a xlink:href="d__com__inf__game_8h.html" target="_top" xlink:title=" ">
<polygon fill="white" stroke="black" points="214.5,-123.5 214.5,-153.5 324.5,-153.5 324.5,-123.5 214.5,-123.5"/>
<text text-anchor="start" x="222.5" y="-141.5" font-family="Helvetica,sans-Serif" font-size="10.00">include/d/com/d_com</text>
<text text-anchor="middle" x="269.5" y="-130.5" font-family="Helvetica,sans-Serif" font-size="10.00">_inf_game.h</text>
</a>
</g>
</g>
<!-- Node1&#45;&gt;Node5 -->
<g id="edge12" class="edge">
<title>Node1&#45;&gt;Node5</title>
<path fill="none" stroke="midnightblue" d="M212.32,-241.71C225.73,-234.17 240.82,-223.52 250.5,-210 262.6,-193.1 267,-168.92 268.59,-153.72"/>
<polygon fill="midnightblue" stroke="midnightblue" points="210.59,-238.66 203.38,-246.43 213.86,-244.85 210.59,-238.66"/>
</g>
<!-- Node4 -->
<g id="node4" class="node">
<title>Node4</title>
<g id="a_node4"><a xlink:href="d__a__alink_8cpp.html" target="_top" xlink:title=" ">
<polygon fill="white" stroke="black" points="65,-67.5 65,-86.5 174,-86.5 174,-67.5 65,-67.5"/>
<text text-anchor="middle" x="119.5" y="-74.5" font-family="Helvetica,sans-Serif" font-size="10.00">src/d/a/d_a_alink.cpp</text>
</a>
</g>
</g>
<!-- Node3&#45;&gt;Node4 -->
<g id="edge3" class="edge">
<title>Node3&#45;&gt;Node4</title>
<path fill="none" stroke="midnightblue" d="M174.19,-181.4C160.26,-155.05 134.49,-106.34 124.06,-86.62"/>
<polygon fill="midnightblue" stroke="midnightblue" points="171.13,-183.09 178.9,-190.3 177.32,-179.82 171.13,-183.09"/>
</g>
<!-- Node3&#45;&gt;Node5 -->
<g id="edge4" class="edge">
<title>Node3&#45;&gt;Node5</title>
<path fill="none" stroke="midnightblue" d="M204.11,-184.74C217.78,-175.28 235.63,-162.93 249.23,-153.52"/>
<polygon fill="midnightblue" stroke="midnightblue" points="202.05,-181.91 195.82,-190.48 206.04,-187.66 202.05,-181.91"/>
</g>
<!-- Node5&#45;&gt;Node4 -->
<g id="edge6" class="edge">
<title>Node5&#45;&gt;Node4</title>
<path fill="none" stroke="midnightblue" d="M224.52,-119.66C197.01,-108.75 163.04,-95.27 141.33,-86.66"/>
<polygon fill="midnightblue" stroke="midnightblue" points="223.37,-122.97 233.95,-123.4 225.95,-116.46 223.37,-122.97"/>
</g>
<!-- Node6 -->
<g id="node6" class="node">
<title>Node6</title>
<g id="a_node6"><a xlink:href="d__com__inf__game_8cpp.html" target="_top" xlink:title=" ">
<polygon fill="white" stroke="black" points="264.5,-0.5 264.5,-30.5 372.5,-30.5 372.5,-0.5 264.5,-0.5"/>
<text text-anchor="start" x="272.5" y="-18.5" font-family="Helvetica,sans-Serif" font-size="10.00">src/d/com/d_com_inf</text>
<text text-anchor="middle" x="318.5" y="-7.5" font-family="Helvetica,sans-Serif" font-size="10.00">_game.cpp</text>
</a>
</g>
</g>
<!-- Node5&#45;&gt;Node6 -->
<g id="edge5" class="edge">
<title>Node5&#45;&gt;Node6</title>
<path fill="none" stroke="midnightblue" d="M241.08,-117.09C225.39,-103.21 211,-84.3 221.5,-67 231.89,-49.88 250.19,-38.29 268.12,-30.58"/>
<polygon fill="midnightblue" stroke="midnightblue" points="238.85,-119.79 248.79,-123.47 243.32,-114.4 238.85,-119.79"/>
</g>
<!-- Node7 -->
<g id="node7" class="node">
<title>Node7</title>
<g id="a_node7"><a xlink:href="d__event_8cpp.html" target="_top" xlink:title=" ">
<polygon fill="white" stroke="black" points="231,-67.5 231,-86.5 352,-86.5 352,-67.5 231,-67.5"/>
<text text-anchor="middle" x="291.5" y="-74.5" font-family="Helvetica,sans-Serif" font-size="10.00">src/d/event/d_event.cpp</text>
</a>
</g>
</g>
<!-- Node5&#45;&gt;Node7 -->
<g id="edge7" class="edge">
<title>Node5&#45;&gt;Node7</title>
<path fill="none" stroke="midnightblue" d="M278.23,-113.9C281.78,-104.3 285.66,-93.81 288.3,-86.66"/>
<polygon fill="midnightblue" stroke="midnightblue" points="274.9,-112.81 274.71,-123.4 281.46,-115.23 274.9,-112.81"/>
</g>
<!-- Node8 -->
<g id="node8" class="node">
<title>Node8</title>
<g id="a_node8"><a xlink:href="d__save_8cpp.html" target="_top" xlink:title=" ">
<polygon fill="white" stroke="black" points="370,-67.5 370,-86.5 485,-86.5 485,-67.5 370,-67.5"/>
<text text-anchor="middle" x="427.5" y="-74.5" font-family="Helvetica,sans-Serif" font-size="10.00">src/d/save/d_save.cpp</text>
</a>
</g>
</g>
<!-- Node5&#45;&gt;Node8 -->
<g id="edge8" class="edge">
<title>Node5&#45;&gt;Node8</title>
<path fill="none" stroke="midnightblue" d="M316.5,-119.8C345.54,-108.86 381.53,-95.31 404.51,-86.66"/>
<polygon fill="midnightblue" stroke="midnightblue" points="315.07,-116.6 306.94,-123.4 317.54,-123.15 315.07,-116.6"/>
</g>
<!-- Node9 -->
<g id="node9" class="node">
<title>Node9</title>
<g id="a_node9"><a xlink:href="d__item_8h.html" target="_top" xlink:title=" ">
<polygon fill="white" stroke="black" points="503,-67.5 503,-86.5 598,-86.5 598,-67.5 503,-67.5"/>
<text text-anchor="middle" x="550.5" y="-74.5" font-family="Helvetica,sans-Serif" font-size="10.00">include/d/d_item.h</text>
</a>
</g>
</g>
<!-- Node5&#45;&gt;Node9 -->
<g id="edge9" class="edge">
<title>Node5&#45;&gt;Node9</title>
<path fill="none" stroke="midnightblue" d="M334.53,-123.73C388.69,-112.26 464.11,-96.29 510,-86.58"/>
<polygon fill="midnightblue" stroke="midnightblue" points="333.74,-120.32 324.68,-125.82 335.19,-127.17 333.74,-120.32"/>
</g>
<!-- Node9&#45;&gt;Node6 -->
<g id="edge10" class="edge">
<title>Node9&#45;&gt;Node6</title>
<path fill="none" stroke="midnightblue" d="M507.51,-64.97C469.48,-55.22 413.81,-40.94 372.73,-30.41"/>
<polygon fill="midnightblue" stroke="midnightblue" points="506.7,-68.38 517.26,-67.48 508.44,-61.6 506.7,-68.38"/>
</g>
<!-- Node10 -->
<g id="node10" class="node">
<title>Node10</title>
<g id="a_node10"><a xlink:href="d__item_8cpp.html" target="_top" xlink:title=" ">
<polygon fill="white" stroke="black" points="506,-6 506,-25 595,-25 595,-6 506,-6"/>
<text text-anchor="middle" x="550.5" y="-13" font-family="Helvetica,sans-Serif" font-size="10.00">src/d/d_item.cpp</text>
</a>
</g>
</g>
<!-- Node9&#45;&gt;Node10 -->
<g id="edge11" class="edge">
<title>Node9&#45;&gt;Node10</title>
<path fill="none" stroke="midnightblue" d="M550.5,-57.32C550.5,-46.5 550.5,-33.4 550.5,-25.01"/>
<polygon fill="midnightblue" stroke="midnightblue" points="547,-57.48 550.5,-67.48 554,-57.48 547,-57.48"/>
</g>
</g>
</svg>
