<?xml version="1.0" encoding="UTF-8" standalone="no"?>
<!DOCTYPE svg PUBLIC "-//W3C//DTD SVG 1.1//EN"
 "http://www.w3.org/Graphics/SVG/1.1/DTD/svg11.dtd">
<!-- Generated by graphviz version 2.44.0 ()
 -->
<!-- Title: include/d/a/d_a_itembase.h Pages: 1 -->
<svg width="761pt" height="285pt"
 viewBox="0.00 0.00 760.50 285.00" xmlns="http://www.w3.org/2000/svg" xmlns:xlink="http://www.w3.org/1999/xlink">
<g id="graph0" class="graph" transform="scale(1 1) rotate(0) translate(4 281)">
<title>include/d/a/d_a_itembase.h</title>
<polygon fill="white" stroke="transparent" points="-4,4 -4,-281 756.5,-281 756.5,4 -4,4"/>
<!-- Node1 -->
<g id="node1" class="node">
<title>Node1</title>
<g id="a_node1"><a xlink:title=" ">
<polygon fill="#bfbfbf" stroke="black" points="142.5,-257.5 142.5,-276.5 277.5,-276.5 277.5,-257.5 142.5,-257.5"/>
<text text-anchor="middle" x="210" y="-264.5" font-family="Helvetica,sans-Serif" font-size="10.00">include/d/a/d_a_itembase.h</text>
</a>
</g>
</g>
<!-- Node2 -->
<g id="node2" class="node">
<title>Node2</title>
<g id="a_node2"><a xlink:href="d__a__itembase_8cpp.html" target="_top" xlink:title=" ">
<polygon fill="white" stroke="black" points="0,-196 0,-215 128,-215 128,-196 0,-196"/>
<text text-anchor="middle" x="64" y="-203" font-family="Helvetica,sans-Serif" font-size="10.00">src/d/a/d_a_itembase.cpp</text>
</a>
</g>
</g>
<!-- Node1&#45;&gt;Node2 -->
<g id="edge1" class="edge">
<title>Node1&#45;&gt;Node2</title>
<path fill="none" stroke="midnightblue" d="M179.65,-253.63C151.29,-242.07 109.69,-225.12 84.88,-215.01"/>
<polygon fill="midnightblue" stroke="midnightblue" points="178.5,-256.94 189.08,-257.48 181.14,-250.46 178.5,-256.94"/>
</g>
<!-- Node3 -->
<g id="node3" class="node">
<title>Node3</title>
<g id="a_node3"><a xlink:href="d__a__itembase__static_8h.html" target="_top" xlink:title=" ">
<polygon fill="white" stroke="black" points="146,-190.5 146,-220.5 274,-220.5 274,-190.5 146,-190.5"/>
<text text-anchor="start" x="154" y="-208.5" font-family="Helvetica,sans-Serif" font-size="10.00">include/d/a/d_a_itembase</text>
<text text-anchor="middle" x="210" y="-197.5" font-family="Helvetica,sans-Serif" font-size="10.00">_static.h</text>
</a>
</g>
</g>
<!-- Node1&#45;&gt;Node3 -->
<g id="edge2" class="edge">
<title>Node1&#45;&gt;Node3</title>
<path fill="none" stroke="midnightblue" d="M210,-247.23C210,-238.59 210,-228.5 210,-220.52"/>
<polygon fill="midnightblue" stroke="midnightblue" points="206.5,-247.48 210,-257.48 213.5,-247.48 206.5,-247.48"/>
</g>
<!-- Node5 -->
<g id="node5" class="node">
<title>Node5</title>
<g id="a_node5"><a xlink:href="d__event_8h.html" target="_top" xlink:title=" ">
<polygon fill="white" stroke="black" points="292,-196 292,-215 420,-215 420,-196 292,-196"/>
<text text-anchor="middle" x="356" y="-203" font-family="Helvetica,sans-Serif" font-size="10.00">include/d/event/d_event.h</text>
</a>
</g>
</g>
<!-- Node1&#45;&gt;Node5 -->
<g id="edge4" class="edge">
<title>Node1&#45;&gt;Node5</title>
<path fill="none" stroke="midnightblue" d="M240.35,-253.63C268.71,-242.07 310.31,-225.12 335.12,-215.01"/>
<polygon fill="midnightblue" stroke="midnightblue" points="238.86,-250.46 230.92,-257.48 241.5,-256.94 238.86,-250.46"/>
</g>
<!-- Node4 -->
<g id="node4" class="node">
<title>Node4</title>
<g id="a_node4"><a xlink:href="d__a__itembase__static_8cpp.html" target="_top" xlink:title=" ">
<polygon fill="white" stroke="black" points="155,-123.5 155,-153.5 265,-153.5 265,-123.5 155,-123.5"/>
<text text-anchor="start" x="163" y="-141.5" font-family="Helvetica,sans-Serif" font-size="10.00">src/d/a/d_a_itembase</text>
<text text-anchor="middle" x="210" y="-130.5" font-family="Helvetica,sans-Serif" font-size="10.00">_static.cpp</text>
</a>
</g>
</g>
<!-- Node3&#45;&gt;Node4 -->
<g id="edge3" class="edge">
<title>Node3&#45;&gt;Node4</title>
<path fill="none" stroke="midnightblue" d="M210,-180.11C210,-171.15 210,-161.32 210,-153.58"/>
<polygon fill="midnightblue" stroke="midnightblue" points="206.5,-180.4 210,-190.4 213.5,-180.4 206.5,-180.4"/>
</g>
<!-- Node6 -->
<g id="node6" class="node">
<title>Node6</title>
<g id="a_node6"><a xlink:href="d__event_8cpp.html" target="_top" xlink:title=" ">
<polygon fill="white" stroke="black" points="219.5,-67.5 219.5,-86.5 340.5,-86.5 340.5,-67.5 219.5,-67.5"/>
<text text-anchor="middle" x="280" y="-74.5" font-family="Helvetica,sans-Serif" font-size="10.00">src/d/event/d_event.cpp</text>
</a>
</g>
</g>
<!-- Node5&#45;&gt;Node6 -->
<g id="edge5" class="edge">
<title>Node5&#45;&gt;Node6</title>
<path fill="none" stroke="midnightblue" d="M345.43,-186.9C328.93,-159.44 297.66,-107.4 285.26,-86.76"/>
<polygon fill="midnightblue" stroke="midnightblue" points="342.63,-189.04 350.78,-195.81 348.63,-185.43 342.63,-189.04"/>
</g>
<!-- Node7 -->
<g id="node7" class="node">
<title>Node7</title>
<g id="a_node7"><a xlink:href="d__com__inf__game_8h.html" target="_top" xlink:title=" ">
<polygon fill="white" stroke="black" points="355,-123.5 355,-153.5 465,-153.5 465,-123.5 355,-123.5"/>
<text text-anchor="start" x="363" y="-141.5" font-family="Helvetica,sans-Serif" font-size="10.00">include/d/com/d_com</text>
<text text-anchor="middle" x="410" y="-130.5" font-family="Helvetica,sans-Serif" font-size="10.00">_inf_game.h</text>
</a>
</g>
</g>
<!-- Node5&#45;&gt;Node7 -->
<g id="edge6" class="edge">
<title>Node5&#45;&gt;Node7</title>
<path fill="none" stroke="midnightblue" d="M369.72,-187.99C378.54,-177.36 389.89,-163.7 398.3,-153.59"/>
<polygon fill="midnightblue" stroke="midnightblue" points="366.98,-185.81 363.28,-195.73 372.37,-190.28 366.98,-185.81"/>
</g>
<!-- Node7&#45;&gt;Node6 -->
<g id="edge9" class="edge">
<title>Node7&#45;&gt;Node6</title>
<path fill="none" stroke="midnightblue" d="M370.08,-119.23C346.41,-108.39 317.49,-95.16 298.92,-86.66"/>
<polygon fill="midnightblue" stroke="midnightblue" points="368.64,-122.42 379.19,-123.4 371.56,-116.06 368.64,-122.42"/>
</g>
<!-- Node8 -->
<g id="node8" class="node">
<title>Node8</title>
<g id="a_node8"><a xlink:href="d__com__inf__game_8cpp.html" target="_top" xlink:title=" ">
<polygon fill="white" stroke="black" points="425,-0.5 425,-30.5 533,-30.5 533,-0.5 425,-0.5"/>
<text text-anchor="start" x="433" y="-18.5" font-family="Helvetica,sans-Serif" font-size="10.00">src/d/com/d_com_inf</text>
<text text-anchor="middle" x="479" y="-7.5" font-family="Helvetica,sans-Serif" font-size="10.00">_game.cpp</text>
</a>
</g>
</g>
<!-- Node7&#45;&gt;Node8 -->
<g id="edge7" class="edge">
<title>Node7&#45;&gt;Node8</title>
<path fill="none" stroke="midnightblue" d="M393.78,-114.72C385.69,-100.35 379.3,-81.77 388,-67 397.99,-50.03 415.97,-38.35 433.33,-30.54"/>
<polygon fill="midnightblue" stroke="midnightblue" points="390.96,-116.82 399.2,-123.48 396.91,-113.13 390.96,-116.82"/>
</g>
<!-- Node9 -->
<g id="node9" class="node">
<title>Node9</title>
<g id="a_node9"><a xlink:href="d__a__alink_8cpp.html" target="_top" xlink:title=" ">
<polygon fill="white" stroke="black" points="397.5,-67.5 397.5,-86.5 506.5,-86.5 506.5,-67.5 397.5,-67.5"/>
<text text-anchor="middle" x="452" y="-74.5" font-family="Helvetica,sans-Serif" font-size="10.00">src/d/a/d_a_alink.cpp</text>
</a>
</g>
</g>
<!-- Node7&#45;&gt;Node9 -->
<g id="edge8" class="edge">
<title>Node7&#45;&gt;Node9</title>
<path fill="none" stroke="midnightblue" d="M425.81,-115.1C432.81,-105.19 440.63,-94.11 445.89,-86.66"/>
<polygon fill="midnightblue" stroke="midnightblue" points="422.86,-113.21 419.95,-123.4 428.58,-117.25 422.86,-113.21"/>
</g>
<!-- Node10 -->
<g id="node10" class="node">
<title>Node10</title>
<g id="a_node10"><a xlink:href="d__save_8cpp.html" target="_top" xlink:title=" ">
<polygon fill="white" stroke="black" points="524.5,-67.5 524.5,-86.5 639.5,-86.5 639.5,-67.5 524.5,-67.5"/>
<text text-anchor="middle" x="582" y="-74.5" font-family="Helvetica,sans-Serif" font-size="10.00">src/d/save/d_save.cpp</text>
</a>
</g>
</g>
<!-- Node7&#45;&gt;Node10 -->
<g id="edge10" class="edge">
<title>Node7&#45;&gt;Node10</title>
<path fill="none" stroke="midnightblue" d="M460.37,-120.08C492.23,-109.05 532.01,-95.29 557.22,-86.57"/>
<polygon fill="midnightblue" stroke="midnightblue" points="459.07,-116.82 450.76,-123.4 461.36,-123.44 459.07,-116.82"/>
</g>
<!-- Node11 -->
<g id="node11" class="node">
<title>Node11</title>
<g id="a_node11"><a xlink:href="d__item_8h.html" target="_top" xlink:title=" ">
<polygon fill="white" stroke="black" points="657.5,-67.5 657.5,-86.5 752.5,-86.5 752.5,-67.5 657.5,-67.5"/>
<text text-anchor="middle" x="705" y="-74.5" font-family="Helvetica,sans-Serif" font-size="10.00">include/d/d_item.h</text>
</a>
</g>
</g>
<!-- Node7&#45;&gt;Node11 -->
<g id="edge11" class="edge">
<title>Node7&#45;&gt;Node11</title>
<path fill="none" stroke="midnightblue" d="M475.15,-124.36C532.22,-112.85 613.5,-96.46 662.55,-86.56"/>
<polygon fill="midnightblue" stroke="midnightblue" points="474.25,-120.97 465.14,-126.38 475.64,-127.83 474.25,-120.97"/>
</g>
<!-- Node11&#45;&gt;Node8 -->
<g id="edge12" class="edge">
<title>Node11&#45;&gt;Node8</title>
<path fill="none" stroke="midnightblue" d="M662.68,-64.86C625.78,-55.14 572.08,-41.01 532.26,-30.52"/>
<polygon fill="midnightblue" stroke="midnightblue" points="662.06,-68.31 672.62,-67.48 663.84,-61.54 662.06,-68.31"/>
</g>
<!-- Node12 -->
<g id="node12" class="node">
<title>Node12</title>
<g id="a_node12"><a xlink:href="d__item_8cpp.html" target="_top" xlink:title=" ">
<polygon fill="white" stroke="black" points="660.5,-6 660.5,-25 749.5,-25 749.5,-6 660.5,-6"/>
<text text-anchor="middle" x="705" y="-13" font-family="Helvetica,sans-Serif" font-size="10.00">src/d/d_item.cpp</text>
</a>
</g>
</g>
<!-- Node11&#45;&gt;Node12 -->
<g id="edge13" class="edge">
<title>Node11&#45;&gt;Node12</title>
<path fill="none" stroke="midnightblue" d="M705,-57.32C705,-46.5 705,-33.4 705,-25.01"/>
<polygon fill="midnightblue" stroke="midnightblue" points="701.5,-57.48 705,-67.48 708.5,-57.48 701.5,-57.48"/>
</g>
</g>
</svg>
