<?xml version="1.0" encoding="UTF-8" standalone="no"?>
<!DOCTYPE svg PUBLIC "-//W3C//DTD SVG 1.1//EN"
 "http://www.w3.org/Graphics/SVG/1.1/DTD/svg11.dtd">
<!-- Generated by graphviz version 2.44.0 ()
 -->
<!-- Title: include/d/a/d_a_itembase.h Pages: 1 -->
<svg width="976pt" height="296pt"
 viewBox="0.00 0.00 975.50 296.00" xmlns="http://www.w3.org/2000/svg" xmlns:xlink="http://www.w3.org/1999/xlink">
<g id="graph0" class="graph" transform="scale(1 1) rotate(0) translate(4 292)">
<title>include/d/a/d_a_itembase.h</title>
<polygon fill="white" stroke="transparent" points="-4,4 -4,-292 971.5,-292 971.5,4 -4,4"/>
<!-- Node1 -->
<g id="node1" class="node">
<title>Node1</title>
<g id="a_node1"><a xlink:title=" ">
<polygon fill="#bfbfbf" stroke="black" points="142.5,-268.5 142.5,-287.5 277.5,-287.5 277.5,-268.5 142.5,-268.5"/>
<text text-anchor="middle" x="210" y="-275.5" font-family="Helvetica,sans-Serif" font-size="10.00">include/d/a/d_a_itembase.h</text>
</a>
</g>
</g>
<!-- Node2 -->
<g id="node2" class="node">
<title>Node2</title>
<g id="a_node2"><a xlink:href="d__a__itembase_8cpp.html" target="_top" xlink:title=" ">
<polygon fill="white" stroke="black" points="0,-207 0,-226 128,-226 128,-207 0,-207"/>
<text text-anchor="middle" x="64" y="-214" font-family="Helvetica,sans-Serif" font-size="10.00">src/d/a/d_a_itembase.cpp</text>
</a>
</g>
</g>
<!-- Node1&#45;&gt;Node2 -->
<g id="edge1" class="edge">
<title>Node1&#45;&gt;Node2</title>
<path fill="none" stroke="midnightblue" d="M179.65,-264.63C151.29,-253.07 109.69,-236.12 84.88,-226.01"/>
<polygon fill="midnightblue" stroke="midnightblue" points="178.5,-267.94 189.08,-268.48 181.14,-261.46 178.5,-267.94"/>
</g>
<!-- Node3 -->
<g id="node3" class="node">
<title>Node3</title>
<g id="a_node3"><a xlink:href="d__a__itembase__static_8h.html" target="_top" xlink:title=" ">
<polygon fill="white" stroke="black" points="146,-201.5 146,-231.5 274,-231.5 274,-201.5 146,-201.5"/>
<text text-anchor="start" x="154" y="-219.5" font-family="Helvetica,sans-Serif" font-size="10.00">include/d/a/d_a_itembase</text>
<text text-anchor="middle" x="210" y="-208.5" font-family="Helvetica,sans-Serif" font-size="10.00">_static.h</text>
</a>
</g>
</g>
<!-- Node1&#45;&gt;Node3 -->
<g id="edge2" class="edge">
<title>Node1&#45;&gt;Node3</title>
<path fill="none" stroke="midnightblue" d="M210,-258.23C210,-249.59 210,-239.5 210,-231.52"/>
<polygon fill="midnightblue" stroke="midnightblue" points="206.5,-258.48 210,-268.48 213.5,-258.48 206.5,-258.48"/>
</g>
<!-- Node5 -->
<g id="node5" class="node">
<title>Node5</title>
<g id="a_node5"><a xlink:href="d__event_8h.html" target="_top" xlink:title=" ">
<polygon fill="white" stroke="black" points="292,-207 292,-226 420,-226 420,-207 292,-207"/>
<text text-anchor="middle" x="356" y="-214" font-family="Helvetica,sans-Serif" font-size="10.00">include/d/event/d_event.h</text>
</a>
</g>
</g>
<!-- Node1&#45;&gt;Node5 -->
<g id="edge4" class="edge">
<title>Node1&#45;&gt;Node5</title>
<path fill="none" stroke="midnightblue" d="M240.35,-264.63C268.71,-253.07 310.31,-236.12 335.12,-226.01"/>
<polygon fill="midnightblue" stroke="midnightblue" points="238.86,-261.46 230.92,-268.48 241.5,-267.94 238.86,-261.46"/>
</g>
<!-- Node4 -->
<g id="node4" class="node">
<title>Node4</title>
<g id="a_node4"><a xlink:href="d__a__itembase__static_8cpp.html" target="_top" xlink:title=" ">
<polygon fill="white" stroke="black" points="155,-134.5 155,-164.5 265,-164.5 265,-134.5 155,-134.5"/>
<text text-anchor="start" x="163" y="-152.5" font-family="Helvetica,sans-Serif" font-size="10.00">src/d/a/d_a_itembase</text>
<text text-anchor="middle" x="210" y="-141.5" font-family="Helvetica,sans-Serif" font-size="10.00">_static.cpp</text>
</a>
</g>
</g>
<!-- Node3&#45;&gt;Node4 -->
<g id="edge3" class="edge">
<title>Node3&#45;&gt;Node4</title>
<path fill="none" stroke="midnightblue" d="M210,-191.11C210,-182.15 210,-172.32 210,-164.58"/>
<polygon fill="midnightblue" stroke="midnightblue" points="206.5,-191.4 210,-201.4 213.5,-191.4 206.5,-191.4"/>
</g>
<!-- Node6 -->
<g id="node6" class="node">
<title>Node6</title>
<g id="a_node6"><a xlink:href="d__event_8cpp.html" target="_top" xlink:title=" ">
<polygon fill="white" stroke="black" points="154.5,-73 154.5,-92 275.5,-92 275.5,-73 154.5,-73"/>
<text text-anchor="middle" x="215" y="-80" font-family="Helvetica,sans-Serif" font-size="10.00">src/d/event/d_event.cpp</text>
</a>
</g>
</g>
<!-- Node5&#45;&gt;Node6 -->
<g id="edge5" class="edge">
<title>Node5&#45;&gt;Node6</title>
<path fill="none" stroke="midnightblue" d="M340.49,-199.39C324.24,-182.68 297.83,-155.99 274,-134 257.55,-118.82 237.63,-102.1 225.65,-92.21"/>
<polygon fill="midnightblue" stroke="midnightblue" points="338.12,-201.97 347.59,-206.72 343.15,-197.1 338.12,-201.97"/>
</g>
<!-- Node7 -->
<g id="node7" class="node">
<title>Node7</title>
<g id="a_node7"><a xlink:href="d__com__inf__game_8h.html" target="_top" xlink:title=" ">
<polygon fill="white" stroke="black" points="396,-134.5 396,-164.5 506,-164.5 506,-134.5 396,-134.5"/>
<text text-anchor="start" x="404" y="-152.5" font-family="Helvetica,sans-Serif" font-size="10.00">include/d/com/d_com</text>
<text text-anchor="middle" x="451" y="-141.5" font-family="Helvetica,sans-Serif" font-size="10.00">_inf_game.h</text>
</a>
</g>
</g>
<!-- Node5&#45;&gt;Node7 -->
<g id="edge6" class="edge">
<title>Node5&#45;&gt;Node7</title>
<path fill="none" stroke="midnightblue" d="M377.41,-200.85C393.27,-190 414.75,-175.3 430.41,-164.59"/>
<polygon fill="midnightblue" stroke="midnightblue" points="375.09,-198.2 368.81,-206.73 379.04,-203.98 375.09,-198.2"/>
</g>
<!-- Node7&#45;&gt;Node6 -->
<g id="edge9" class="edge">
<title>Node7&#45;&gt;Node6</title>
<path fill="none" stroke="midnightblue" d="M390.19,-131.75C344.03,-119.04 282.48,-102.09 245.97,-92.03"/>
<polygon fill="midnightblue" stroke="midnightblue" points="389.51,-135.19 400.08,-134.48 391.37,-128.45 389.51,-135.19"/>
</g>
<!-- Node8 -->
<g id="node8" class="node">
<title>Node8</title>
<g id="a_node8"><a xlink:href="d__com__inf__game_8cpp.html" target="_top" xlink:title=" ">
<polygon fill="white" stroke="black" points="500,-0.5 500,-30.5 608,-30.5 608,-0.5 500,-0.5"/>
<text text-anchor="start" x="508" y="-18.5" font-family="Helvetica,sans-Serif" font-size="10.00">src/d/com/d_com_inf</text>
<text text-anchor="middle" x="554" y="-7.5" font-family="Helvetica,sans-Serif" font-size="10.00">_game.cpp</text>
</a>
</g>
</g>
<!-- Node7&#45;&gt;Node8 -->
<g id="edge7" class="edge">
<title>Node7&#45;&gt;Node8</title>
<path fill="none" stroke="midnightblue" d="M386.19,-132.61C343.31,-118.96 299.04,-96.76 323,-67 344.78,-39.94 438.73,-26.59 499.9,-20.64"/>
<polygon fill="midnightblue" stroke="midnightblue" points="385.28,-135.99 395.87,-135.56 387.32,-129.3 385.28,-135.99"/>
</g>
<!-- Node9 -->
<g id="node9" class="node">
<title>Node9</title>
<g id="a_node9"><a xlink:href="d__a__alink_8cpp.html" target="_top" xlink:title=" ">
<polygon fill="white" stroke="black" points="332.5,-73 332.5,-92 441.5,-92 441.5,-73 332.5,-73"/>
<text text-anchor="middle" x="387" y="-80" font-family="Helvetica,sans-Serif" font-size="10.00">src/d/a/d_a_alink.cpp</text>
</a>
</g>
</g>
<!-- Node7&#45;&gt;Node9 -->
<g id="edge8" class="edge">
<title>Node7&#45;&gt;Node9</title>
<path fill="none" stroke="midnightblue" d="M429.83,-127C418.15,-115.13 404.28,-101.05 395.56,-92.19"/>
<polygon fill="midnightblue" stroke="midnightblue" points="427.6,-129.73 437.11,-134.4 432.59,-124.81 427.6,-129.73"/>
</g>
<!-- Node10 -->
<g id="node10" class="node">
<title>Node10</title>
<g id="a_node10"><a xlink:href="d__meter2__info_8cpp.html" target="_top" xlink:title=" ">
<polygon fill="white" stroke="black" points="460,-67.5 460,-97.5 570,-97.5 570,-67.5 460,-67.5"/>
<text text-anchor="start" x="468" y="-85.5" font-family="Helvetica,sans-Serif" font-size="10.00">src/d/meter/d_meter2</text>
<text text-anchor="middle" x="515" y="-74.5" font-family="Helvetica,sans-Serif" font-size="10.00">_info.cpp</text>
</a>
</g>
</g>
<!-- Node7&#45;&gt;Node10 -->
<g id="edge10" class="edge">
<title>Node7&#45;&gt;Node10</title>
<path fill="none" stroke="midnightblue" d="M472.15,-127.02C481.68,-117.34 492.67,-106.17 501.14,-97.58"/>
<polygon fill="midnightblue" stroke="midnightblue" points="469.41,-124.81 464.89,-134.4 474.4,-129.73 469.41,-124.81"/>
</g>
<!-- Node11 -->
<g id="node11" class="node">
<title>Node11</title>
<g id="a_node11"><a xlink:href="d__msg__flow_8cpp.html" target="_top" xlink:title=" ">
<polygon fill="white" stroke="black" points="588.5,-73 588.5,-92 721.5,-92 721.5,-73 588.5,-73"/>
<text text-anchor="middle" x="655" y="-80" font-family="Helvetica,sans-Serif" font-size="10.00">src/d/msg/d_msg_flow.cpp</text>
</a>
</g>
</g>
<!-- Node7&#45;&gt;Node11 -->
<g id="edge11" class="edge">
<title>Node7&#45;&gt;Node11</title>
<path fill="none" stroke="midnightblue" d="M504.57,-131.43C544.36,-118.75 596.94,-102 628.23,-92.03"/>
<polygon fill="midnightblue" stroke="midnightblue" points="503.48,-128.11 495.01,-134.48 505.6,-134.77 503.48,-128.11"/>
</g>
<!-- Node12 -->
<g id="node12" class="node">
<title>Node12</title>
<g id="a_node12"><a xlink:href="d__save_8cpp.html" target="_top" xlink:title=" ">
<polygon fill="white" stroke="black" points="739.5,-73 739.5,-92 854.5,-92 854.5,-73 739.5,-73"/>
<text text-anchor="middle" x="797" y="-80" font-family="Helvetica,sans-Serif" font-size="10.00">src/d/save/d_save.cpp</text>
</a>
</g>
</g>
<!-- Node7&#45;&gt;Node12 -->
<g id="edge12" class="edge">
<title>Node7&#45;&gt;Node12</title>
<path fill="none" stroke="midnightblue" d="M516.05,-137.37C572.67,-127.53 656.9,-112.52 730,-98 739.34,-96.14 749.38,-94.03 758.78,-92.01"/>
<polygon fill="midnightblue" stroke="midnightblue" points="515.41,-133.93 506.16,-139.09 516.61,-140.83 515.41,-133.93"/>
</g>
<!-- Node13 -->
<g id="node13" class="node">
<title>Node13</title>
<g id="a_node13"><a xlink:href="d__item_8h.html" target="_top" xlink:title=" ">
<polygon fill="white" stroke="black" points="872.5,-73 872.5,-92 967.5,-92 967.5,-73 872.5,-73"/>
<text text-anchor="middle" x="920" y="-80" font-family="Helvetica,sans-Serif" font-size="10.00">include/d/d_item.h</text>
</a>
</g>
</g>
<!-- Node7&#45;&gt;Node13 -->
<g id="edge13" class="edge">
<title>Node7&#45;&gt;Node13</title>
<path fill="none" stroke="midnightblue" d="M516.45,-143.07C598.05,-135.7 741.59,-120.79 863,-98 871.63,-96.38 880.9,-94.21 889.39,-92.05"/>
<polygon fill="midnightblue" stroke="midnightblue" points="515.97,-139.6 506.32,-143.97 516.59,-146.57 515.97,-139.6"/>
</g>
<!-- Node13&#45;&gt;Node8 -->
<g id="edge14" class="edge">
<title>Node13&#45;&gt;Node8</title>
<path fill="none" stroke="midnightblue" d="M878.56,-70.51C873.34,-69.26 868.06,-68.05 863,-67 774.27,-48.5 670.03,-32.67 608.13,-23.89"/>
<polygon fill="midnightblue" stroke="midnightblue" points="877.91,-73.95 888.46,-72.95 879.59,-67.16 877.91,-73.95"/>
</g>
<!-- Node14 -->
<g id="node14" class="node">
<title>Node14</title>
<g id="a_node14"><a xlink:href="d__item_8cpp.html" target="_top" xlink:title=" ">
<polygon fill="white" stroke="black" points="875.5,-6 875.5,-25 964.5,-25 964.5,-6 875.5,-6"/>
<text text-anchor="middle" x="920" y="-13" font-family="Helvetica,sans-Serif" font-size="10.00">src/d/d_item.cpp</text>
</a>
</g>
</g>
<!-- Node13&#45;&gt;Node14 -->
<g id="edge15" class="edge">
<title>Node13&#45;&gt;Node14</title>
<path fill="none" stroke="midnightblue" d="M920,-62.54C920,-50.17 920,-34.62 920,-25.13"/>
<polygon fill="midnightblue" stroke="midnightblue" points="916.5,-62.73 920,-72.73 923.5,-62.73 916.5,-62.73"/>
</g>
</g>
</svg>
