<?xml version="1.0" encoding="UTF-8" standalone="no"?>
<!DOCTYPE svg PUBLIC "-//W3C//DTD SVG 1.1//EN"
 "http://www.w3.org/Graphics/SVG/1.1/DTD/svg11.dtd">
<!-- Generated by graphviz version 2.44.0 ()
 -->
<!-- Title: include/d/bg/d_bg_w.h Pages: 1 -->
<!--zoomable 330 -->
<svg id="main" version="1.1" xmlns="http://www.w3.org/2000/svg" xmlns:xlink="http://www.w3.org/1999/xlink" xml:space="preserve" onload="init(evt)">
<style type="text/css"><![CDATA[
.edge:hover path { stroke: red; }
.edge:hover polygon { stroke: red; fill: red; }
]]></style>
<script type="text/javascript"><![CDATA[
var edges = document.getElementsByTagName('g');
if (edges && edges.length) {
  for (var i=0;i<edges.length;i++) {
    if (edges[i].id.substr(0,4)=='edge') {
      edges[i].setAttribute('class','edge');
    }
  }
}
]]></script>
        <defs>
                <circle id="rim" cx="0" cy="0" r="7"/>
                <circle id="rim2" cx="0" cy="0" r="3.5"/>
                <g id="zoomPlus">
                        <use xlink:href="#rim" fill="#404040">
                                <set attributeName="fill" to="#808080" begin="zoomplus.mouseover" end="zoomplus.mouseout"/>
                        </use>
                        <path d="M-4,0h8M0,-4v8" fill="none" stroke="white" stroke-width="1.5" pointer-events="none"/>
                </g>
                <g id="zoomMin">
                        <use xlink:href="#rim" fill="#404040">
                                <set attributeName="fill" to="#808080" begin="zoomminus.mouseover" end="zoomminus.mouseout"/>
                        </use>
                        <path d="M-4,0h8" fill="none" stroke="white" stroke-width="1.5" pointer-events="none"/>
                </g>
                <g id="dirArrow">
                        <path fill="none" stroke="white" stroke-width="1.5" d="M0,-3.0v7 M-2.5,-0.5L0,-3.0L2.5,-0.5"/>
                </g>
               <g id="resetDef">
                       <use xlink:href="#rim2" fill="#404040">
                               <set attributeName="fill" to="#808080" begin="reset.mouseover" end="reset.mouseout"/>
                       </use>
               </g>
        </defs>

<script type="text/javascript">
var viewWidth = 603;
var viewHeight = 330;
var sectionId = 'dynsection-1';
</script>
<script xlink:href="svgpan.js"/>
<svg id="graph" class="graph">
<g id="viewport">
<title>include/d/bg/d_bg_w.h</title>
<polygon fill="white" stroke="transparent" points="-4,4 -4,-326 599,-326 599,4 -4,4"/>
<!-- Node1 -->
<g id="node1" class="node">
<title>Node1</title>
<g id="a_node1"><a xlink:title=" ">
<polygon fill="#bfbfbf" stroke="black" points="60,-302.5 60,-321.5 173,-321.5 173,-302.5 60,-302.5"/>
<text text-anchor="middle" x="116.5" y="-309.5" font-family="Helvetica,sans-Serif" font-size="10.00">include/d/bg/d_bg_w.h</text>
</a>
</g>
</g>
<!-- Node2 -->
<g id="node2" class="node">
<title>Node2</title>
<g id="a_node2"><a xlink:href="d__bg__w_8cpp.html" target="_top" xlink:title=" ">
<polygon fill="white" stroke="black" points="0,-246.5 0,-265.5 107,-265.5 107,-246.5 0,-246.5"/>
<text text-anchor="middle" x="53.5" y="-253.5" font-family="Helvetica,sans-Serif" font-size="10.00">src/d/bg/d_bg_w.cpp</text>
</a>
</g>
</g>
<!-- Node1&#45;&gt;Node2 -->
<g id="edge1" class="edge">
<title>Node1&#45;&gt;Node2</title>
<path fill="none" stroke="midnightblue" d="M98.46,-295.54C87.23,-285.91 73.18,-273.87 63.81,-265.83"/>
<polygon fill="midnightblue" stroke="midnightblue" points="96.51,-298.47 106.38,-302.32 101.06,-293.16 96.51,-298.47"/>
</g>
<!-- Node3 -->
<g id="node3" class="node">
<title>Node3</title>
<g id="a_node3"><a xlink:href="d__bg__s_8h.html" target="_top" xlink:title=" ">
<polygon fill="white" stroke="black" points="125,-246.5 125,-265.5 236,-265.5 236,-246.5 125,-246.5"/>
<text text-anchor="middle" x="180.5" y="-253.5" font-family="Helvetica,sans-Serif" font-size="10.00">include/d/bg/d_bg_s.h</text>
</a>
</g>
</g>
<!-- Node1&#45;&gt;Node3 -->
<g id="edge2" class="edge">
<title>Node1&#45;&gt;Node3</title>
<path fill="none" stroke="midnightblue" d="M134.49,-295.82C145.96,-286.15 160.41,-273.95 170.03,-265.83"/>
<polygon fill="midnightblue" stroke="midnightblue" points="132.17,-293.2 126.78,-302.32 136.68,-298.55 132.17,-293.2"/>
</g>
<!-- Node4 -->
<g id="node4" class="node">
<title>Node4</title>
<g id="a_node4"><a xlink:href="d__bg__s_8cpp.html" target="_top" xlink:title=" ">
<polygon fill="white" stroke="black" points="0.5,-190.5 0.5,-209.5 104.5,-209.5 104.5,-190.5 0.5,-190.5"/>
<text text-anchor="middle" x="52.5" y="-197.5" font-family="Helvetica,sans-Serif" font-size="10.00">src/d/bg/d_bg_s.cpp</text>
</a>
</g>
</g>
<!-- Node3&#45;&gt;Node4 -->
<g id="edge3" class="edge">
<title>Node3&#45;&gt;Node4</title>
<path fill="none" stroke="midnightblue" d="M150.88,-242.5C126.88,-232.38 93.72,-218.39 72.69,-209.52"/>
<polygon fill="midnightblue" stroke="midnightblue" points="149.64,-245.78 160.22,-246.44 152.36,-239.33 149.64,-245.78"/>
</g>
<!-- Node5 -->
<g id="node5" class="node">
<title>Node5</title>
<g id="a_node5"><a xlink:href="d__a__alink_8h.html" target="_top" xlink:title=" ">
<polygon fill="white" stroke="black" points="122.5,-190.5 122.5,-209.5 238.5,-209.5 238.5,-190.5 122.5,-190.5"/>
<text text-anchor="middle" x="180.5" y="-197.5" font-family="Helvetica,sans-Serif" font-size="10.00">include/d/a/d_a_alink.h</text>
</a>
</g>
</g>
<!-- Node3&#45;&gt;Node5 -->
<g id="edge4" class="edge">
<title>Node3&#45;&gt;Node5</title>
<path fill="none" stroke="midnightblue" d="M180.5,-235.8C180.5,-226.91 180.5,-216.78 180.5,-209.75"/>
<polygon fill="midnightblue" stroke="midnightblue" points="177,-236.08 180.5,-246.08 184,-236.08 177,-236.08"/>
</g>
<!-- Node7 -->
<g id="node7" class="node">
<title>Node7</title>
<g id="a_node7"><a xlink:href="d__com__inf__game_8h.html" target="_top" xlink:title=" ">
<polygon fill="white" stroke="black" points="211.5,-123.5 211.5,-153.5 321.5,-153.5 321.5,-123.5 211.5,-123.5"/>
<text text-anchor="start" x="219.5" y="-141.5" font-family="Helvetica,sans-Serif" font-size="10.00">include/d/com/d_com</text>
<text text-anchor="middle" x="266.5" y="-130.5" font-family="Helvetica,sans-Serif" font-size="10.00">_inf_game.h</text>
</a>
</g>
</g>
<!-- Node3&#45;&gt;Node7 -->
<g id="edge14" class="edge">
<title>Node3&#45;&gt;Node7</title>
<path fill="none" stroke="midnightblue" d="M209.32,-241.71C222.73,-234.17 237.82,-223.52 247.5,-210 259.6,-193.1 264,-168.92 265.59,-153.72"/>
<polygon fill="midnightblue" stroke="midnightblue" points="207.59,-238.66 200.38,-246.43 210.86,-244.85 207.59,-238.66"/>
</g>
<!-- Node6 -->
<g id="node6" class="node">
<title>Node6</title>
<g id="a_node6"><a xlink:href="d__a__alink_8cpp.html" target="_top" xlink:title=" ">
<polygon fill="white" stroke="black" points="62,-67.5 62,-86.5 171,-86.5 171,-67.5 62,-67.5"/>
<text text-anchor="middle" x="116.5" y="-74.5" font-family="Helvetica,sans-Serif" font-size="10.00">src/d/a/d_a_alink.cpp</text>
</a>
</g>
</g>
<!-- Node5&#45;&gt;Node6 -->
<g id="edge5" class="edge">
<title>Node5&#45;&gt;Node6</title>
<path fill="none" stroke="midnightblue" d="M171.19,-181.4C157.26,-155.05 131.49,-106.34 121.06,-86.62"/>
<polygon fill="midnightblue" stroke="midnightblue" points="168.13,-183.09 175.9,-190.3 174.32,-179.82 168.13,-183.09"/>
</g>
<!-- Node5&#45;&gt;Node7 -->
<g id="edge6" class="edge">
<title>Node5&#45;&gt;Node7</title>
<path fill="none" stroke="midnightblue" d="M201.11,-184.74C214.78,-175.28 232.63,-162.93 246.23,-153.52"/>
<polygon fill="midnightblue" stroke="midnightblue" points="199.05,-181.91 192.82,-190.48 203.04,-187.66 199.05,-181.91"/>
</g>
<!-- Node7&#45;&gt;Node6 -->
<g id="edge8" class="edge">
<title>Node7&#45;&gt;Node6</title>
<path fill="none" stroke="midnightblue" d="M221.52,-119.66C194.01,-108.75 160.04,-95.27 138.33,-86.66"/>
<polygon fill="midnightblue" stroke="midnightblue" points="220.37,-122.97 230.95,-123.4 222.95,-116.46 220.37,-122.97"/>
</g>
<!-- Node8 -->
<g id="node8" class="node">
<title>Node8</title>
<g id="a_node8"><a xlink:href="d__com__inf__game_8cpp.html" target="_top" xlink:title=" ">
<polygon fill="white" stroke="black" points="261.5,-0.5 261.5,-30.5 369.5,-30.5 369.5,-0.5 261.5,-0.5"/>
<text text-anchor="start" x="269.5" y="-18.5" font-family="Helvetica,sans-Serif" font-size="10.00">src/d/com/d_com_inf</text>
<text text-anchor="middle" x="315.5" y="-7.5" font-family="Helvetica,sans-Serif" font-size="10.00">_game.cpp</text>
</a>
</g>
</g>
<!-- Node7&#45;&gt;Node8 -->
<g id="edge7" class="edge">
<title>Node7&#45;&gt;Node8</title>
<path fill="none" stroke="midnightblue" d="M238.08,-117.09C222.39,-103.21 208,-84.3 218.5,-67 228.89,-49.88 247.19,-38.29 265.12,-30.58"/>
<polygon fill="midnightblue" stroke="midnightblue" points="235.85,-119.79 245.79,-123.47 240.32,-114.4 235.85,-119.79"/>
</g>
<!-- Node9 -->
<g id="node9" class="node">
<title>Node9</title>
<g id="a_node9"><a xlink:href="d__event_8cpp.html" target="_top" xlink:title=" ">
<polygon fill="white" stroke="black" points="228,-67.5 228,-86.5 349,-86.5 349,-67.5 228,-67.5"/>
<text text-anchor="middle" x="288.5" y="-74.5" font-family="Helvetica,sans-Serif" font-size="10.00">src/d/event/d_event.cpp</text>
</a>
</g>
</g>
<!-- Node7&#45;&gt;Node9 -->
<g id="edge9" class="edge">
<title>Node7&#45;&gt;Node9</title>
<path fill="none" stroke="midnightblue" d="M275.23,-113.9C278.78,-104.3 282.66,-93.81 285.3,-86.66"/>
<polygon fill="midnightblue" stroke="midnightblue" points="271.9,-112.81 271.71,-123.4 278.46,-115.23 271.9,-112.81"/>
</g>
<!-- Node10 -->
<g id="node10" class="node">
<title>Node10</title>
<g id="a_node10"><a xlink:href="d__save_8cpp.html" target="_top" xlink:title=" ">
<polygon fill="white" stroke="black" points="367,-67.5 367,-86.5 482,-86.5 482,-67.5 367,-67.5"/>
<text text-anchor="middle" x="424.5" y="-74.5" font-family="Helvetica,sans-Serif" font-size="10.00">src/d/save/d_save.cpp</text>
</a>
</g>
</g>
<!-- Node7&#45;&gt;Node10 -->
<g id="edge10" class="edge">
<title>Node7&#45;&gt;Node10</title>
<path fill="none" stroke="midnightblue" d="M313.5,-119.8C342.54,-108.86 378.53,-95.31 401.51,-86.66"/>
<polygon fill="midnightblue" stroke="midnightblue" points="312.07,-116.6 303.94,-123.4 314.54,-123.15 312.07,-116.6"/>
</g>
<!-- Node11 -->
<g id="node11" class="node">
<title>Node11</title>
<g id="a_node11"><a xlink:href="d__item_8h.html" target="_top" xlink:title=" ">
<polygon fill="white" stroke="black" points="500,-67.5 500,-86.5 595,-86.5 595,-67.5 500,-67.5"/>
<text text-anchor="middle" x="547.5" y="-74.5" font-family="Helvetica,sans-Serif" font-size="10.00">include/d/d_item.h</text>
</a>
</g>
</g>
<!-- Node7&#45;&gt;Node11 -->
<g id="edge11" class="edge">
<title>Node7&#45;&gt;Node11</title>
<path fill="none" stroke="midnightblue" d="M331.53,-123.73C385.69,-112.26 461.11,-96.29 507,-86.58"/>
<polygon fill="midnightblue" stroke="midnightblue" points="330.74,-120.32 321.68,-125.82 332.19,-127.17 330.74,-120.32"/>
</g>
<!-- Node11&#45;&gt;Node8 -->
<g id="edge12" class="edge">
<title>Node11&#45;&gt;Node8</title>
<path fill="none" stroke="midnightblue" d="M504.51,-64.97C466.48,-55.22 410.81,-40.94 369.73,-30.41"/>
<polygon fill="midnightblue" stroke="midnightblue" points="503.7,-68.38 514.26,-67.48 505.44,-61.6 503.7,-68.38"/>
</g>
<!-- Node12 -->
<g id="node12" class="node">
<title>Node12</title>
<g id="a_node12"><a xlink:href="d__item_8cpp.html" target="_top" xlink:title=" ">
<polygon fill="white" stroke="black" points="503,-6 503,-25 592,-25 592,-6 503,-6"/>
<text text-anchor="middle" x="547.5" y="-13" font-family="Helvetica,sans-Serif" font-size="10.00">src/d/d_item.cpp</text>
</a>
</g>
</g>
<!-- Node11&#45;&gt;Node12 -->
<g id="edge13" class="edge">
<title>Node11&#45;&gt;Node12</title>
<path fill="none" stroke="midnightblue" d="M547.5,-57.32C547.5,-46.5 547.5,-33.4 547.5,-25.01"/>
<polygon fill="midnightblue" stroke="midnightblue" points="544,-57.48 547.5,-67.48 551,-57.48 544,-57.48"/>
</g>
</g>
</svg>
        <g id="navigator" transform="translate(0 0)" fill="#404254">
                <rect fill="#f2f5e9" fill-opacity="0.5" stroke="#606060" stroke-width=".5" x="0" y="0" width="60" height="60"/>
                <use id="zoomplus" xlink:href="#zoomPlus" x="17" y="9" onmousedown="handleZoom(evt,'in')"/>
                <use id="zoomminus" xlink:href="#zoomMin" x="42" y="9" onmousedown="handleZoom(evt,'out')"/>
                <use id="reset" xlink:href="#resetDef" x="30" y="36" onmousedown="handleReset()"/>
                <g id="arrowUp" xlink:href="#dirArrow" transform="translate(30 24)" onmousedown="handlePan(0,-1)">
                  <use xlink:href="#rim" fill="#404040">
                        <set attributeName="fill" to="#808080" begin="arrowUp.mouseover" end="arrowUp.mouseout"/>
                  </use>
                  <path fill="none" stroke="white" stroke-width="1.5" d="M0,-3.0v7 M-2.5,-0.5L0,-3.0L2.5,-0.5"/>
                </g>
                <g id="arrowRight" xlink:href="#dirArrow" transform="rotate(90) translate(36 -43)" onmousedown="handlePan(1,0)">
                  <use xlink:href="#rim" fill="#404040">
                        <set attributeName="fill" to="#808080" begin="arrowRight.mouseover" end="arrowRight.mouseout"/>
                  </use>
                  <path fill="none" stroke="white" stroke-width="1.5" d="M0,-3.0v7 M-2.5,-0.5L0,-3.0L2.5,-0.5"/>
                </g>
                <g id="arrowDown" xlink:href="#dirArrow" transform="rotate(180) translate(-30 -48)" onmousedown="handlePan(0,1)">
                  <use xlink:href="#rim" fill="#404040">
                        <set attributeName="fill" to="#808080" begin="arrowDown.mouseover" end="arrowDown.mouseout"/>
                  </use>
                  <path fill="none" stroke="white" stroke-width="1.5" d="M0,-3.0v7 M-2.5,-0.5L0,-3.0L2.5,-0.5"/>
                </g>
                <g id="arrowLeft" xlink:href="#dirArrow" transform="rotate(270) translate(-36 17)" onmousedown="handlePan(-1,0)">
                  <use xlink:href="#rim" fill="#404040">
                        <set attributeName="fill" to="#808080" begin="arrowLeft.mouseover" end="arrowLeft.mouseout"/>
                  </use>
                  <path fill="none" stroke="white" stroke-width="1.5" d="M0,-3.0v7 M-2.5,-0.5L0,-3.0L2.5,-0.5"/>
                </g>
        </g>
        <svg viewBox="0 0 15 15" width="100%" height="30px" preserveAspectRatio="xMaxYMin meet">
         <g id="arrow_out" transform="scale(0.3 0.3)">
          <a xlink:href="d__bg__w_8h__dep__incl_org.svg" target="_base">
           <rect id="button" ry="5" rx="5" y="6" x="6" height="38" width="38"
                fill="#f2f5e9" fill-opacity="0.5" stroke="#606060" stroke-width="1.0"/>
           <path id="arrow"
             d="M 11.500037,31.436501 C 11.940474,20.09759 22.043105,11.32322 32.158766,21.979434 L 37.068811,17.246167 C 37.068811,17.246167 37.088388,32 37.088388,32 L 22.160133,31.978069 C 22.160133,31.978069 26.997745,27.140456 26.997745,27.140456 C 18.528582,18.264221 13.291696,25.230495 11.500037,31.436501 z"
             style="fill:#404040;"/>
          </a>
         </g>
        </svg>
</svg>
