<?xml version="1.0" encoding="UTF-8" standalone="no"?>
<!DOCTYPE svg PUBLIC "-//W3C//DTD SVG 1.1//EN"
 "http://www.w3.org/Graphics/SVG/1.1/DTD/svg11.dtd">
<!-- Generated by graphviz version 2.44.0 ()
 -->
<!-- Title: include/d/bg/d_bg_s.h Pages: 1 -->
<svg width="603pt" height="274pt"
 viewBox="0.00 0.00 602.50 274.00" xmlns="http://www.w3.org/2000/svg" xmlns:xlink="http://www.w3.org/1999/xlink">
<g id="graph0" class="graph" transform="scale(1 1) rotate(0) translate(4 270)">
<title>include/d/bg/d_bg_s.h</title>
<polygon fill="white" stroke="transparent" points="-4,4 -4,-270 598.5,-270 598.5,4 -4,4"/>
<!-- Node1 -->
<g id="node1" class="node">
<title>Node1</title>
<g id="a_node1"><a xlink:title=" ">
<polygon fill="#bfbfbf" stroke="black" points="124.5,-246.5 124.5,-265.5 235.5,-265.5 235.5,-246.5 124.5,-246.5"/>
<text text-anchor="middle" x="180" y="-253.5" font-family="Helvetica,sans-Serif" font-size="10.00">include/d/bg/d_bg_s.h</text>
</a>
</g>
</g>
<!-- Node2 -->
<g id="node2" class="node">
<title>Node2</title>
<g id="a_node2"><a xlink:href="d__bg__s_8cpp.html" target="_top" xlink:title=" ">
<polygon fill="white" stroke="black" points="0,-190.5 0,-209.5 104,-209.5 104,-190.5 0,-190.5"/>
<text text-anchor="middle" x="52" y="-197.5" font-family="Helvetica,sans-Serif" font-size="10.00">src/d/bg/d_bg_s.cpp</text>
</a>
</g>
</g>
<!-- Node1&#45;&gt;Node2 -->
<g id="edge1" class="edge">
<title>Node1&#45;&gt;Node2</title>
<path fill="none" stroke="midnightblue" d="M150.38,-242.5C126.38,-232.38 93.22,-218.39 72.19,-209.52"/>
<polygon fill="midnightblue" stroke="midnightblue" points="149.14,-245.78 159.72,-246.44 151.86,-239.33 149.14,-245.78"/>
</g>
<!-- Node3 -->
<g id="node3" class="node">
<title>Node3</title>
<g id="a_node3"><a xlink:href="d__a__alink_8h.html" target="_top" xlink:title=" ">
<polygon fill="white" stroke="black" points="122,-190.5 122,-209.5 238,-209.5 238,-190.5 122,-190.5"/>
<text text-anchor="middle" x="180" y="-197.5" font-family="Helvetica,sans-Serif" font-size="10.00">include/d/a/d_a_alink.h</text>
</a>
</g>
</g>
<!-- Node1&#45;&gt;Node3 -->
<g id="edge2" class="edge">
<title>Node1&#45;&gt;Node3</title>
<path fill="none" stroke="midnightblue" d="M180,-235.8C180,-226.91 180,-216.78 180,-209.75"/>
<polygon fill="midnightblue" stroke="midnightblue" points="176.5,-236.08 180,-246.08 183.5,-236.08 176.5,-236.08"/>
</g>
<!-- Node5 -->
<g id="node5" class="node">
<title>Node5</title>
<g id="a_node5"><a xlink:href="d__com__inf__game_8h.html" target="_top" xlink:title=" ">
<polygon fill="white" stroke="black" points="211,-123.5 211,-153.5 321,-153.5 321,-123.5 211,-123.5"/>
<text text-anchor="start" x="219" y="-141.5" font-family="Helvetica,sans-Serif" font-size="10.00">include/d/com/d_com</text>
<text text-anchor="middle" x="266" y="-130.5" font-family="Helvetica,sans-Serif" font-size="10.00">_inf_game.h</text>
</a>
</g>
</g>
<!-- Node1&#45;&gt;Node5 -->
<g id="edge12" class="edge">
<title>Node1&#45;&gt;Node5</title>
<path fill="none" stroke="midnightblue" d="M208.82,-241.71C222.23,-234.17 237.32,-223.52 247,-210 259.1,-193.1 263.5,-168.92 265.09,-153.72"/>
<polygon fill="midnightblue" stroke="midnightblue" points="207.09,-238.66 199.88,-246.43 210.36,-244.85 207.09,-238.66"/>
</g>
<!-- Node4 -->
<g id="node4" class="node">
<title>Node4</title>
<g id="a_node4"><a xlink:href="d__a__alink_8cpp.html" target="_top" xlink:title=" ">
<polygon fill="white" stroke="black" points="61.5,-67.5 61.5,-86.5 170.5,-86.5 170.5,-67.5 61.5,-67.5"/>
<text text-anchor="middle" x="116" y="-74.5" font-family="Helvetica,sans-Serif" font-size="10.00">src/d/a/d_a_alink.cpp</text>
</a>
</g>
</g>
<!-- Node3&#45;&gt;Node4 -->
<g id="edge3" class="edge">
<title>Node3&#45;&gt;Node4</title>
<path fill="none" stroke="midnightblue" d="M170.69,-181.4C156.76,-155.05 130.99,-106.34 120.56,-86.62"/>
<polygon fill="midnightblue" stroke="midnightblue" points="167.63,-183.09 175.4,-190.3 173.82,-179.82 167.63,-183.09"/>
</g>
<!-- Node3&#45;&gt;Node5 -->
<g id="edge4" class="edge">
<title>Node3&#45;&gt;Node5</title>
<path fill="none" stroke="midnightblue" d="M200.61,-184.74C214.28,-175.28 232.13,-162.93 245.73,-153.52"/>
<polygon fill="midnightblue" stroke="midnightblue" points="198.55,-181.91 192.32,-190.48 202.54,-187.66 198.55,-181.91"/>
</g>
<!-- Node5&#45;&gt;Node4 -->
<g id="edge6" class="edge">
<title>Node5&#45;&gt;Node4</title>
<path fill="none" stroke="midnightblue" d="M221.02,-119.66C193.51,-108.75 159.54,-95.27 137.83,-86.66"/>
<polygon fill="midnightblue" stroke="midnightblue" points="219.87,-122.97 230.45,-123.4 222.45,-116.46 219.87,-122.97"/>
</g>
<!-- Node6 -->
<g id="node6" class="node">
<title>Node6</title>
<g id="a_node6"><a xlink:href="d__com__inf__game_8cpp.html" target="_top" xlink:title=" ">
<polygon fill="white" stroke="black" points="261,-0.5 261,-30.5 369,-30.5 369,-0.5 261,-0.5"/>
<text text-anchor="start" x="269" y="-18.5" font-family="Helvetica,sans-Serif" font-size="10.00">src/d/com/d_com_inf</text>
<text text-anchor="middle" x="315" y="-7.5" font-family="Helvetica,sans-Serif" font-size="10.00">_game.cpp</text>
</a>
</g>
</g>
<!-- Node5&#45;&gt;Node6 -->
<g id="edge5" class="edge">
<title>Node5&#45;&gt;Node6</title>
<path fill="none" stroke="midnightblue" d="M237.58,-117.09C221.89,-103.21 207.5,-84.3 218,-67 228.39,-49.88 246.69,-38.29 264.62,-30.58"/>
<polygon fill="midnightblue" stroke="midnightblue" points="235.35,-119.79 245.29,-123.47 239.82,-114.4 235.35,-119.79"/>
</g>
<!-- Node7 -->
<g id="node7" class="node">
<title>Node7</title>
<g id="a_node7"><a xlink:href="d__event_8cpp.html" target="_top" xlink:title=" ">
<polygon fill="white" stroke="black" points="227.5,-67.5 227.5,-86.5 348.5,-86.5 348.5,-67.5 227.5,-67.5"/>
<text text-anchor="middle" x="288" y="-74.5" font-family="Helvetica,sans-Serif" font-size="10.00">src/d/event/d_event.cpp</text>
</a>
</g>
</g>
<!-- Node5&#45;&gt;Node7 -->
<g id="edge7" class="edge">
<title>Node5&#45;&gt;Node7</title>
<path fill="none" stroke="midnightblue" d="M274.73,-113.9C278.28,-104.3 282.16,-93.81 284.8,-86.66"/>
<polygon fill="midnightblue" stroke="midnightblue" points="271.4,-112.81 271.21,-123.4 277.96,-115.23 271.4,-112.81"/>
</g>
<!-- Node8 -->
<g id="node8" class="node">
<title>Node8</title>
<g id="a_node8"><a xlink:href="d__save_8cpp.html" target="_top" xlink:title=" ">
<polygon fill="white" stroke="black" points="366.5,-67.5 366.5,-86.5 481.5,-86.5 481.5,-67.5 366.5,-67.5"/>
<text text-anchor="middle" x="424" y="-74.5" font-family="Helvetica,sans-Serif" font-size="10.00">src/d/save/d_save.cpp</text>
</a>
</g>
</g>
<!-- Node5&#45;&gt;Node8 -->
<g id="edge8" class="edge">
<title>Node5&#45;&gt;Node8</title>
<path fill="none" stroke="midnightblue" d="M313,-119.8C342.04,-108.86 378.03,-95.31 401.01,-86.66"/>
<polygon fill="midnightblue" stroke="midnightblue" points="311.57,-116.6 303.44,-123.4 314.04,-123.15 311.57,-116.6"/>
</g>
<!-- Node9 -->
<g id="node9" class="node">
<title>Node9</title>
<g id="a_node9"><a xlink:href="d__item_8h.html" target="_top" xlink:title=" ">
<polygon fill="white" stroke="black" points="499.5,-67.5 499.5,-86.5 594.5,-86.5 594.5,-67.5 499.5,-67.5"/>
<text text-anchor="middle" x="547" y="-74.5" font-family="Helvetica,sans-Serif" font-size="10.00">include/d/d_item.h</text>
</a>
</g>
</g>
<!-- Node5&#45;&gt;Node9 -->
<g id="edge9" class="edge">
<title>Node5&#45;&gt;Node9</title>
<path fill="none" stroke="midnightblue" d="M331.03,-123.73C385.19,-112.26 460.61,-96.29 506.5,-86.58"/>
<polygon fill="midnightblue" stroke="midnightblue" points="330.24,-120.32 321.18,-125.82 331.69,-127.17 330.24,-120.32"/>
</g>
<!-- Node9&#45;&gt;Node6 -->
<g id="edge10" class="edge">
<title>Node9&#45;&gt;Node6</title>
<path fill="none" stroke="midnightblue" d="M504.01,-64.97C465.98,-55.22 410.31,-40.94 369.23,-30.41"/>
<polygon fill="midnightblue" stroke="midnightblue" points="503.2,-68.38 513.76,-67.48 504.94,-61.6 503.2,-68.38"/>
</g>
<!-- Node10 -->
<g id="node10" class="node">
<title>Node10</title>
<g id="a_node10"><a xlink:href="d__item_8cpp.html" target="_top" xlink:title=" ">
<polygon fill="white" stroke="black" points="502.5,-6 502.5,-25 591.5,-25 591.5,-6 502.5,-6"/>
<text text-anchor="middle" x="547" y="-13" font-family="Helvetica,sans-Serif" font-size="10.00">src/d/d_item.cpp</text>
</a>
</g>
</g>
<!-- Node9&#45;&gt;Node10 -->
<g id="edge11" class="edge">
<title>Node9&#45;&gt;Node10</title>
<path fill="none" stroke="midnightblue" d="M547,-57.32C547,-46.5 547,-33.4 547,-25.01"/>
<polygon fill="midnightblue" stroke="midnightblue" points="543.5,-57.48 547,-67.48 550.5,-57.48 543.5,-57.48"/>
</g>
</g>
</svg>
