<?xml version="1.0" encoding="UTF-8" standalone="no"?>
<!DOCTYPE svg PUBLIC "-//W3C//DTD SVG 1.1//EN"
 "http://www.w3.org/Graphics/SVG/1.1/DTD/svg11.dtd">
<!-- Generated by graphviz version 2.44.0 ()
 -->
<!-- Title: include/d/d_drawlist.h Pages: 1 -->
<svg width="1070pt" height="542pt"
 viewBox="0.00 0.00 1070.00 542.00" xmlns="http://www.w3.org/2000/svg" xmlns:xlink="http://www.w3.org/1999/xlink">
<g id="graph0" class="graph" transform="scale(1 1) rotate(0) translate(4 538)">
<title>include/d/d_drawlist.h</title>
<polygon fill="white" stroke="transparent" points="-4,4 -4,-538 1066,-538 1066,4 -4,4"/>
<!-- Node1 -->
<g id="node1" class="node">
<title>Node1</title>
<g id="a_node1"><a xlink:title=" ">
<polygon fill="#bfbfbf" stroke="black" points="107,-514.5 107,-533.5 217,-533.5 217,-514.5 107,-514.5"/>
<text text-anchor="middle" x="162" y="-521.5" font-family="Helvetica,sans-Serif" font-size="10.00">include/d/d_drawlist.h</text>
</a>
</g>
</g>
<!-- Node2 -->
<g id="node2" class="node">
<title>Node2</title>
<g id="a_node2"><a xlink:href="d__drawlist_8cpp.html" target="_top" xlink:title=" ">
<polygon fill="white" stroke="black" points="0,-458.5 0,-477.5 104,-477.5 104,-458.5 0,-458.5"/>
<text text-anchor="middle" x="52" y="-465.5" font-family="Helvetica,sans-Serif" font-size="10.00">src/d/d_drawlist.cpp</text>
</a>
</g>
</g>
<!-- Node1&#45;&gt;Node2 -->
<g id="edge1" class="edge">
<title>Node1&#45;&gt;Node2</title>
<path fill="none" stroke="midnightblue" d="M135.24,-509.86C114.84,-499.85 87.33,-486.35 69.63,-477.65"/>
<polygon fill="midnightblue" stroke="midnightblue" points="133.81,-513.06 144.33,-514.32 136.89,-506.78 133.81,-513.06"/>
</g>
<!-- Node3 -->
<g id="node3" class="node">
<title>Node3</title>
<g id="a_node3"><a xlink:href="d__a__alink_8h.html" target="_top" xlink:title=" ">
<polygon fill="white" stroke="black" points="583,-201.5 583,-220.5 699,-220.5 699,-201.5 583,-201.5"/>
<text text-anchor="middle" x="641" y="-208.5" font-family="Helvetica,sans-Serif" font-size="10.00">include/d/a/d_a_alink.h</text>
</a>
</g>
</g>
<!-- Node1&#45;&gt;Node3 -->
<g id="edge2" class="edge">
<title>Node1&#45;&gt;Node3</title>
<path fill="none" stroke="midnightblue" d="M163.41,-504.46C167.12,-466.81 180.05,-380.21 223,-324 241.19,-300.19 255.57,-305.35 280,-288 298.05,-275.18 298.65,-265.73 319,-257 365.23,-237.17 503.19,-223.14 582.73,-216.44"/>
<polygon fill="midnightblue" stroke="midnightblue" points="159.92,-504.22 162.53,-514.49 166.89,-504.83 159.92,-504.22"/>
</g>
<!-- Node5 -->
<g id="node5" class="node">
<title>Node5</title>
<g id="a_node5"><a xlink:href="d__com__inf__game_8h.html" target="_top" xlink:title=" ">
<polygon fill="white" stroke="black" points="586,-134.5 586,-164.5 696,-164.5 696,-134.5 586,-134.5"/>
<text text-anchor="start" x="594" y="-152.5" font-family="Helvetica,sans-Serif" font-size="10.00">include/d/com/d_com</text>
<text text-anchor="middle" x="641" y="-141.5" font-family="Helvetica,sans-Serif" font-size="10.00">_inf_game.h</text>
</a>
</g>
</g>
<!-- Node1&#45;&gt;Node5 -->
<g id="edge37" class="edge">
<title>Node1&#45;&gt;Node5</title>
<path fill="none" stroke="midnightblue" d="M154.26,-504.95C145.37,-482.53 132,-442.91 132,-407.5 132,-407.5 132,-407.5 132,-271.5 132,-179.08 453.64,-157.13 585.56,-152.02"/>
<polygon fill="midnightblue" stroke="midnightblue" points="151.04,-506.3 158.08,-514.22 157.51,-503.64 151.04,-506.3"/>
</g>
<!-- Node13 -->
<g id="node13" class="node">
<title>Node13</title>
<g id="a_node13"><a xlink:href="d__a__player_8h.html" target="_top" xlink:title=" ">
<polygon fill="white" stroke="black" points="732.5,-458.5 732.5,-477.5 853.5,-477.5 853.5,-458.5 732.5,-458.5"/>
<text text-anchor="middle" x="793" y="-465.5" font-family="Helvetica,sans-Serif" font-size="10.00">include/d/a/d_a_player.h</text>
</a>
</g>
</g>
<!-- Node1&#45;&gt;Node13 -->
<g id="edge14" class="edge">
<title>Node1&#45;&gt;Node13</title>
<path fill="none" stroke="midnightblue" d="M227.17,-517.42C349.81,-506.93 613.24,-484.38 732.33,-474.19"/>
<polygon fill="midnightblue" stroke="midnightblue" points="226.83,-513.94 217.17,-518.28 227.43,-520.91 226.83,-513.94"/>
</g>
<!-- Node4 -->
<g id="node4" class="node">
<title>Node4</title>
<g id="a_node4"><a xlink:href="d__a__alink_8cpp.html" target="_top" xlink:title=" ">
<polygon fill="white" stroke="black" points="745.5,-73 745.5,-92 854.5,-92 854.5,-73 745.5,-73"/>
<text text-anchor="middle" x="800" y="-80" font-family="Helvetica,sans-Serif" font-size="10.00">src/d/a/d_a_alink.cpp</text>
</a>
</g>
</g>
<!-- Node3&#45;&gt;Node4 -->
<g id="edge3" class="edge">
<title>Node3&#45;&gt;Node4</title>
<path fill="none" stroke="midnightblue" d="M662.49,-195.65C675.09,-187.05 691.19,-175.74 705,-165 737.42,-139.79 773.75,-107.38 790.55,-92.14"/>
<polygon fill="midnightblue" stroke="midnightblue" points="660.33,-192.89 654.01,-201.39 664.26,-198.68 660.33,-192.89"/>
</g>
<!-- Node3&#45;&gt;Node5 -->
<g id="edge4" class="edge">
<title>Node3&#45;&gt;Node5</title>
<path fill="none" stroke="midnightblue" d="M641,-191.23C641,-182.59 641,-172.5 641,-164.52"/>
<polygon fill="midnightblue" stroke="midnightblue" points="637.5,-191.48 641,-201.48 644.5,-191.48 637.5,-191.48"/>
</g>
<!-- Node5&#45;&gt;Node4 -->
<g id="edge6" class="edge">
<title>Node5&#45;&gt;Node4</title>
<path fill="none" stroke="midnightblue" d="M685.13,-130.46C715.85,-117.9 755.42,-101.72 779.19,-92.01"/>
<polygon fill="midnightblue" stroke="midnightblue" points="683.43,-127.37 675.5,-134.4 686.08,-133.85 683.43,-127.37"/>
</g>
<!-- Node6 -->
<g id="node6" class="node">
<title>Node6</title>
<g id="a_node6"><a xlink:href="d__com__inf__game_8cpp.html" target="_top" xlink:title=" ">
<polygon fill="white" stroke="black" points="663,-0.5 663,-30.5 771,-30.5 771,-0.5 663,-0.5"/>
<text text-anchor="start" x="671" y="-18.5" font-family="Helvetica,sans-Serif" font-size="10.00">src/d/com/d_com_inf</text>
<text text-anchor="middle" x="717" y="-7.5" font-family="Helvetica,sans-Serif" font-size="10.00">_game.cpp</text>
</a>
</g>
</g>
<!-- Node5&#45;&gt;Node6 -->
<g id="edge5" class="edge">
<title>Node5&#45;&gt;Node6</title>
<path fill="none" stroke="midnightblue" d="M670.63,-128.19C680.69,-119.91 691.11,-109.56 698,-98 710.64,-76.78 714.87,-47.8 716.29,-30.73"/>
<polygon fill="midnightblue" stroke="midnightblue" points="668.45,-125.45 662.72,-134.36 672.76,-130.97 668.45,-125.45"/>
</g>
<!-- Node7 -->
<g id="node7" class="node">
<title>Node7</title>
<g id="a_node7"><a xlink:href="d__event_8cpp.html" target="_top" xlink:title=" ">
<polygon fill="white" stroke="black" points="878.5,-73 878.5,-92 999.5,-92 999.5,-73 878.5,-73"/>
<text text-anchor="middle" x="939" y="-80" font-family="Helvetica,sans-Serif" font-size="10.00">src/d/event/d_event.cpp</text>
</a>
</g>
</g>
<!-- Node5&#45;&gt;Node7 -->
<g id="edge7" class="edge">
<title>Node5&#45;&gt;Node7</title>
<path fill="none" stroke="midnightblue" d="M706.01,-134.32C765.22,-121.41 850.71,-102.76 899.98,-92.01"/>
<polygon fill="midnightblue" stroke="midnightblue" points="705.03,-130.95 696.01,-136.5 706.52,-137.79 705.03,-130.95"/>
</g>
<!-- Node8 -->
<g id="node8" class="node">
<title>Node8</title>
<g id="a_node8"><a xlink:href="d__meter2__info_8cpp.html" target="_top" xlink:title=" ">
<polygon fill="white" stroke="black" points="181,-67.5 181,-97.5 291,-97.5 291,-67.5 181,-67.5"/>
<text text-anchor="start" x="189" y="-85.5" font-family="Helvetica,sans-Serif" font-size="10.00">src/d/meter/d_meter2</text>
<text text-anchor="middle" x="236" y="-74.5" font-family="Helvetica,sans-Serif" font-size="10.00">_info.cpp</text>
</a>
</g>
</g>
<!-- Node5&#45;&gt;Node8 -->
<g id="edge8" class="edge">
<title>Node5&#45;&gt;Node8</title>
<path fill="none" stroke="midnightblue" d="M575.61,-140.31C506.78,-131.35 395.4,-115.84 300,-98 297.09,-97.46 294.11,-96.87 291.1,-96.26"/>
<polygon fill="midnightblue" stroke="midnightblue" points="575.49,-143.83 585.86,-141.64 576.39,-136.89 575.49,-143.83"/>
</g>
<!-- Node9 -->
<g id="node9" class="node">
<title>Node9</title>
<g id="a_node9"><a xlink:href="d__msg__flow_8cpp.html" target="_top" xlink:title=" ">
<polygon fill="white" stroke="black" points="309.5,-73 309.5,-92 442.5,-92 442.5,-73 309.5,-73"/>
<text text-anchor="middle" x="376" y="-80" font-family="Helvetica,sans-Serif" font-size="10.00">src/d/msg/d_msg_flow.cpp</text>
</a>
</g>
</g>
<!-- Node5&#45;&gt;Node9 -->
<g id="edge9" class="edge">
<title>Node5&#45;&gt;Node9</title>
<path fill="none" stroke="midnightblue" d="M575.95,-132.54C523.85,-119.77 452.79,-102.34 410.92,-92.06"/>
<polygon fill="midnightblue" stroke="midnightblue" points="575.22,-135.97 585.77,-134.95 576.89,-129.17 575.22,-135.97"/>
</g>
<!-- Node10 -->
<g id="node10" class="node">
<title>Node10</title>
<g id="a_node10"><a xlink:href="d__save_8cpp.html" target="_top" xlink:title=" ">
<polygon fill="white" stroke="black" points="460.5,-73 460.5,-92 575.5,-92 575.5,-73 460.5,-73"/>
<text text-anchor="middle" x="518" y="-80" font-family="Helvetica,sans-Serif" font-size="10.00">src/d/save/d_save.cpp</text>
</a>
</g>
</g>
<!-- Node5&#45;&gt;Node10 -->
<g id="edge10" class="edge">
<title>Node5&#45;&gt;Node10</title>
<path fill="none" stroke="midnightblue" d="M605.31,-129.64C581.78,-117.2 552.09,-101.51 534.1,-92.01"/>
<polygon fill="midnightblue" stroke="midnightblue" points="603.83,-132.82 614.31,-134.4 607.1,-126.63 603.83,-132.82"/>
</g>
<!-- Node11 -->
<g id="node11" class="node">
<title>Node11</title>
<g id="a_node11"><a xlink:href="d__item_8h.html" target="_top" xlink:title=" ">
<polygon fill="white" stroke="black" points="593.5,-73 593.5,-92 688.5,-92 688.5,-73 593.5,-73"/>
<text text-anchor="middle" x="641" y="-80" font-family="Helvetica,sans-Serif" font-size="10.00">include/d/d_item.h</text>
</a>
</g>
</g>
<!-- Node5&#45;&gt;Node11 -->
<g id="edge11" class="edge">
<title>Node5&#45;&gt;Node11</title>
<path fill="none" stroke="midnightblue" d="M641,-124.25C641,-113.02 641,-100.38 641,-92.19"/>
<polygon fill="midnightblue" stroke="midnightblue" points="637.5,-124.4 641,-134.4 644.5,-124.4 637.5,-124.4"/>
</g>
<!-- Node11&#45;&gt;Node6 -->
<g id="edge12" class="edge">
<title>Node11&#45;&gt;Node6</title>
<path fill="none" stroke="midnightblue" d="M659.21,-65.93C671.78,-55.18 688.35,-41 700.53,-30.59"/>
<polygon fill="midnightblue" stroke="midnightblue" points="656.57,-63.57 651.25,-72.73 661.12,-68.89 656.57,-63.57"/>
</g>
<!-- Node12 -->
<g id="node12" class="node">
<title>Node12</title>
<g id="a_node12"><a xlink:href="d__item_8cpp.html" target="_top" xlink:title=" ">
<polygon fill="white" stroke="black" points="555.5,-6 555.5,-25 644.5,-25 644.5,-6 555.5,-6"/>
<text text-anchor="middle" x="600" y="-13" font-family="Helvetica,sans-Serif" font-size="10.00">src/d/d_item.cpp</text>
</a>
</g>
</g>
<!-- Node11&#45;&gt;Node12 -->
<g id="edge13" class="edge">
<title>Node11&#45;&gt;Node12</title>
<path fill="none" stroke="midnightblue" d="M629.98,-64.03C622.05,-51.45 611.67,-35.01 605.44,-25.13"/>
<polygon fill="midnightblue" stroke="midnightblue" points="627.18,-66.14 635.47,-72.73 633.1,-62.41 627.18,-66.14"/>
</g>
<!-- Node13&#45;&gt;Node3 -->
<g id="edge16" class="edge">
<title>Node13&#45;&gt;Node3</title>
<path fill="none" stroke="midnightblue" d="M789.93,-448.19C782.58,-408.45 760.6,-314.9 709,-257 694.87,-241.15 673.95,-228.42 659.05,-220.6"/>
<polygon fill="midnightblue" stroke="midnightblue" points="786.53,-449.04 791.69,-458.29 793.42,-447.84 786.53,-449.04"/>
</g>
<!-- Node14 -->
<g id="node14" class="node">
<title>Node14</title>
<g id="a_node14"><a xlink:href="d__a__player_8cpp.html" target="_top" xlink:title=" ">
<polygon fill="white" stroke="black" points="948,-397 948,-416 1062,-416 1062,-397 948,-397"/>
<text text-anchor="middle" x="1005" y="-404" font-family="Helvetica,sans-Serif" font-size="10.00">src/d/a/d_a_player.cpp</text>
</a>
</g>
</g>
<!-- Node13&#45;&gt;Node14 -->
<g id="edge15" class="edge">
<title>Node13&#45;&gt;Node14</title>
<path fill="none" stroke="midnightblue" d="M833.09,-455.75C874.27,-444.19 937.48,-426.45 974.68,-416.01"/>
<polygon fill="midnightblue" stroke="midnightblue" points="832.06,-452.4 823.37,-458.48 833.95,-459.14 832.06,-452.4"/>
</g>
<!-- Node15 -->
<g id="node15" class="node">
<title>Node15</title>
<g id="a_node15"><a xlink:href="d__bg__s__acch_8h.html" target="_top" xlink:title=" ">
<polygon fill="white" stroke="black" points="511,-391.5 511,-421.5 615,-421.5 615,-391.5 511,-391.5"/>
<text text-anchor="start" x="519" y="-409.5" font-family="Helvetica,sans-Serif" font-size="10.00">include/d/bg/d_bg_s</text>
<text text-anchor="middle" x="563" y="-398.5" font-family="Helvetica,sans-Serif" font-size="10.00">_acch.h</text>
</a>
</g>
</g>
<!-- Node13&#45;&gt;Node15 -->
<g id="edge17" class="edge">
<title>Node13&#45;&gt;Node15</title>
<path fill="none" stroke="midnightblue" d="M750.25,-455.94C712,-446.05 655.84,-431.52 615,-420.95"/>
<polygon fill="midnightblue" stroke="midnightblue" points="749.49,-459.36 760.05,-458.48 751.24,-452.58 749.49,-459.36"/>
</g>
<!-- Node25 -->
<g id="node25" class="node">
<title>Node25</title>
<g id="a_node25"><a xlink:href="d__attention_8h.html" target="_top" xlink:title=" ">
<polygon fill="white" stroke="black" points="778,-263 778,-282 892,-282 892,-263 778,-263"/>
<text text-anchor="middle" x="835" y="-270" font-family="Helvetica,sans-Serif" font-size="10.00">include/d/d_attention.h</text>
</a>
</g>
</g>
<!-- Node13&#45;&gt;Node25 -->
<g id="edge30" class="edge">
<title>Node13&#45;&gt;Node25</title>
<path fill="none" stroke="midnightblue" d="M797.01,-448.55C805.82,-407.94 826.63,-312.07 833.07,-282.41"/>
<polygon fill="midnightblue" stroke="midnightblue" points="793.56,-447.92 794.86,-458.44 800.4,-449.41 793.56,-447.92"/>
</g>
<!-- Node27 -->
<g id="node27" class="node">
<title>Node27</title>
<g id="a_node27"><a xlink:href="d__event_8h.html" target="_top" xlink:title=" ">
<polygon fill="white" stroke="black" points="881,-201.5 881,-220.5 1009,-220.5 1009,-201.5 881,-201.5"/>
<text text-anchor="middle" x="945" y="-208.5" font-family="Helvetica,sans-Serif" font-size="10.00">include/d/event/d_event.h</text>
</a>
</g>
</g>
<!-- Node13&#45;&gt;Node27 -->
<g id="edge34" class="edge">
<title>Node13&#45;&gt;Node27</title>
<path fill="none" stroke="midnightblue" d="M803.46,-449.89C822.87,-418.11 865.69,-347.75 901,-288 915.27,-263.85 931.76,-235.15 939.9,-220.92"/>
<polygon fill="midnightblue" stroke="midnightblue" points="800.45,-448.1 798.23,-458.46 806.43,-451.75 800.45,-448.1"/>
</g>
<!-- Node16 -->
<g id="node16" class="node">
<title>Node16</title>
<g id="a_node16"><a xlink:href="d__bg__s__acch_8cpp.html" target="_top" xlink:title=" ">
<polygon fill="white" stroke="black" points="363.5,-330 363.5,-349 494.5,-349 494.5,-330 363.5,-330"/>
<text text-anchor="middle" x="429" y="-337" font-family="Helvetica,sans-Serif" font-size="10.00">src/d/bg/d_bg_s_acch.cpp</text>
</a>
</g>
</g>
<!-- Node15&#45;&gt;Node16 -->
<g id="edge18" class="edge">
<title>Node15&#45;&gt;Node16</title>
<path fill="none" stroke="midnightblue" d="M524.79,-386.97C499.05,-374.48 466.31,-358.6 446.54,-349.01"/>
<polygon fill="midnightblue" stroke="midnightblue" points="523.4,-390.18 533.92,-391.4 526.45,-383.88 523.4,-390.18"/>
</g>
<!-- Node17 -->
<g id="node17" class="node">
<title>Node17</title>
<g id="a_node17"><a xlink:href="d__bg__w_8h.html" target="_top" xlink:title=" ">
<polygon fill="white" stroke="black" points="232.5,-330 232.5,-349 345.5,-349 345.5,-330 232.5,-330"/>
<text text-anchor="middle" x="289" y="-337" font-family="Helvetica,sans-Serif" font-size="10.00">include/d/bg/d_bg_w.h</text>
</a>
</g>
</g>
<!-- Node15&#45;&gt;Node17 -->
<g id="edge19" class="edge">
<title>Node15&#45;&gt;Node17</title>
<path fill="none" stroke="midnightblue" d="M500.95,-390.78C446.6,-377.89 369.51,-359.6 324.84,-349"/>
<polygon fill="midnightblue" stroke="midnightblue" points="500.28,-394.22 510.82,-393.12 501.9,-387.41 500.28,-394.22"/>
</g>
<!-- Node21 -->
<g id="node21" class="node">
<title>Node21</title>
<g id="a_node21"><a xlink:href="d__bomb_8h.html" target="_top" xlink:title=" ">
<polygon fill="white" stroke="black" points="512.5,-330 512.5,-349 613.5,-349 613.5,-330 512.5,-330"/>
<text text-anchor="middle" x="563" y="-337" font-family="Helvetica,sans-Serif" font-size="10.00">include/d/d_bomb.h</text>
</a>
</g>
</g>
<!-- Node15&#45;&gt;Node21 -->
<g id="edge25" class="edge">
<title>Node15&#45;&gt;Node21</title>
<path fill="none" stroke="midnightblue" d="M563,-381.25C563,-370.02 563,-357.38 563,-349.19"/>
<polygon fill="midnightblue" stroke="midnightblue" points="559.5,-381.4 563,-391.4 566.5,-381.4 559.5,-381.4"/>
</g>
<!-- Node23 -->
<g id="node23" class="node">
<title>Node23</title>
<g id="a_node23"><a xlink:href="d__particle__copoly_8h.html" target="_top" xlink:title=" ">
<polygon fill="white" stroke="black" points="632,-324.5 632,-354.5 734,-354.5 734,-324.5 632,-324.5"/>
<text text-anchor="start" x="640" y="-342.5" font-family="Helvetica,sans-Serif" font-size="10.00">include/d/particle</text>
<text text-anchor="middle" x="683" y="-331.5" font-family="Helvetica,sans-Serif" font-size="10.00">/d_particle_copoly.h</text>
</a>
</g>
</g>
<!-- Node15&#45;&gt;Node23 -->
<g id="edge27" class="edge">
<title>Node15&#45;&gt;Node23</title>
<path fill="none" stroke="midnightblue" d="M597.94,-386.57C616.82,-376.35 639.73,-363.94 657.01,-354.58"/>
<polygon fill="midnightblue" stroke="midnightblue" points="596.16,-383.56 589.04,-391.4 599.5,-389.71 596.16,-383.56"/>
</g>
<!-- Node18 -->
<g id="node18" class="node">
<title>Node18</title>
<g id="a_node18"><a xlink:href="d__bg__w_8cpp.html" target="_top" xlink:title=" ">
<polygon fill="white" stroke="black" points="328.5,-263 328.5,-282 435.5,-282 435.5,-263 328.5,-263"/>
<text text-anchor="middle" x="382" y="-270" font-family="Helvetica,sans-Serif" font-size="10.00">src/d/bg/d_bg_w.cpp</text>
</a>
</g>
</g>
<!-- Node17&#45;&gt;Node18 -->
<g id="edge20" class="edge">
<title>Node17&#45;&gt;Node18</title>
<path fill="none" stroke="midnightblue" d="M309.86,-323.92C328.25,-311.07 354.41,-292.78 369.66,-282.13"/>
<polygon fill="midnightblue" stroke="midnightblue" points="307.73,-321.14 301.54,-329.73 311.74,-326.87 307.73,-321.14"/>
</g>
<!-- Node19 -->
<g id="node19" class="node">
<title>Node19</title>
<g id="a_node19"><a xlink:href="d__bg__s_8h.html" target="_top" xlink:title=" ">
<polygon fill="white" stroke="black" points="160.5,-263 160.5,-282 271.5,-282 271.5,-263 160.5,-263"/>
<text text-anchor="middle" x="216" y="-270" font-family="Helvetica,sans-Serif" font-size="10.00">include/d/bg/d_bg_s.h</text>
</a>
</g>
</g>
<!-- Node17&#45;&gt;Node19 -->
<g id="edge21" class="edge">
<title>Node17&#45;&gt;Node19</title>
<path fill="none" stroke="midnightblue" d="M271.43,-322.86C257.08,-310.08 237.33,-292.49 225.69,-282.13"/>
<polygon fill="midnightblue" stroke="midnightblue" points="269.36,-325.7 279.15,-329.73 274.01,-320.47 269.36,-325.7"/>
</g>
<!-- Node19&#45;&gt;Node3 -->
<g id="edge23" class="edge">
<title>Node19&#45;&gt;Node3</title>
<path fill="none" stroke="midnightblue" d="M264.7,-260.9C271.83,-259.5 279.09,-258.15 286,-257 390.18,-239.64 512.54,-225.49 583,-217.94"/>
<polygon fill="midnightblue" stroke="midnightblue" points="263.52,-257.57 254.41,-262.98 264.91,-264.43 263.52,-257.57"/>
</g>
<!-- Node19&#45;&gt;Node5 -->
<g id="edge24" class="edge">
<title>Node19&#45;&gt;Node5</title>
<path fill="none" stroke="midnightblue" d="M215.67,-252.08C216.53,-235.91 220.53,-213.58 235,-201 286.19,-156.49 487,-150.29 585.67,-150.01"/>
<polygon fill="midnightblue" stroke="midnightblue" points="212.17,-252.47 215.5,-262.53 219.16,-252.59 212.17,-252.47"/>
</g>
<!-- Node20 -->
<g id="node20" class="node">
<title>Node20</title>
<g id="a_node20"><a xlink:href="d__bg__s_8cpp.html" target="_top" xlink:title=" ">
<polygon fill="white" stroke="black" points="244,-201.5 244,-220.5 348,-220.5 348,-201.5 244,-201.5"/>
<text text-anchor="middle" x="296" y="-208.5" font-family="Helvetica,sans-Serif" font-size="10.00">src/d/bg/d_bg_s.cpp</text>
</a>
</g>
</g>
<!-- Node19&#45;&gt;Node20 -->
<g id="edge22" class="edge">
<title>Node19&#45;&gt;Node20</title>
<path fill="none" stroke="midnightblue" d="M235.77,-256.79C251.12,-245.38 271.86,-229.96 284.56,-220.51"/>
<polygon fill="midnightblue" stroke="midnightblue" points="233.4,-254.2 227.46,-262.98 237.57,-259.82 233.4,-254.2"/>
</g>
<!-- Node22 -->
<g id="node22" class="node">
<title>Node22</title>
<g id="a_node22"><a xlink:href="d__bomb_8cpp.html" target="_top" xlink:title=" ">
<polygon fill="white" stroke="black" points="454,-263 454,-282 548,-282 548,-263 454,-263"/>
<text text-anchor="middle" x="501" y="-270" font-family="Helvetica,sans-Serif" font-size="10.00">src/d/d_bomb.cpp</text>
</a>
</g>
</g>
<!-- Node21&#45;&gt;Node22 -->
<g id="edge26" class="edge">
<title>Node21&#45;&gt;Node22</title>
<path fill="none" stroke="midnightblue" d="M547.74,-322.5C535.58,-309.75 519.02,-292.39 509.23,-282.13"/>
<polygon fill="midnightblue" stroke="midnightblue" points="545.2,-324.91 554.64,-329.73 550.27,-320.08 545.2,-324.91"/>
</g>
<!-- Node23&#45;&gt;Node3 -->
<g id="edge29" class="edge">
<title>Node23&#45;&gt;Node3</title>
<path fill="none" stroke="midnightblue" d="M692.41,-314.63C697.53,-297.81 701.29,-275.15 693,-257 685.61,-240.82 669.2,-228.23 656.78,-220.53"/>
<polygon fill="midnightblue" stroke="midnightblue" points="689.05,-313.66 689.15,-324.25 695.68,-315.91 689.05,-313.66"/>
</g>
<!-- Node24 -->
<g id="node24" class="node">
<title>Node24</title>
<g id="a_node24"><a xlink:href="d__particle__copoly_8cpp.html" target="_top" xlink:title=" ">
<polygon fill="white" stroke="black" points="566,-257.5 566,-287.5 684,-287.5 684,-257.5 566,-257.5"/>
<text text-anchor="start" x="574" y="-275.5" font-family="Helvetica,sans-Serif" font-size="10.00">src/d/particle/d_particle</text>
<text text-anchor="middle" x="625" y="-264.5" font-family="Helvetica,sans-Serif" font-size="10.00">_copoly.cpp</text>
</a>
</g>
</g>
<!-- Node23&#45;&gt;Node24 -->
<g id="edge28" class="edge">
<title>Node23&#45;&gt;Node24</title>
<path fill="none" stroke="midnightblue" d="M663.58,-316.74C655,-307.12 645.16,-296.09 637.56,-287.58"/>
<polygon fill="midnightblue" stroke="midnightblue" points="661.15,-319.26 670.41,-324.4 666.37,-314.6 661.15,-319.26"/>
</g>
<!-- Node25&#45;&gt;Node3 -->
<g id="edge32" class="edge">
<title>Node25&#45;&gt;Node3</title>
<path fill="none" stroke="midnightblue" d="M797.6,-260.03C759.89,-248.46 702.57,-230.88 668.74,-220.51"/>
<polygon fill="midnightblue" stroke="midnightblue" points="796.62,-263.39 807.2,-262.98 798.67,-256.7 796.62,-263.39"/>
</g>
<!-- Node25&#45;&gt;Node5 -->
<g id="edge33" class="edge">
<title>Node25&#45;&gt;Node5</title>
<path fill="none" stroke="midnightblue" d="M810.11,-257.79C792.35,-247.87 767.98,-233.98 747,-221 716.74,-202.28 682.61,-179.22 661.46,-164.69"/>
<polygon fill="midnightblue" stroke="midnightblue" points="808.8,-261.07 819.24,-262.87 812.2,-254.95 808.8,-261.07"/>
</g>
<!-- Node26 -->
<g id="node26" class="node">
<title>Node26</title>
<g id="a_node26"><a xlink:href="d__attention_8cpp.html" target="_top" xlink:title=" ">
<polygon fill="white" stroke="black" points="755.5,-201.5 755.5,-220.5 862.5,-220.5 862.5,-201.5 755.5,-201.5"/>
<text text-anchor="middle" x="809" y="-208.5" font-family="Helvetica,sans-Serif" font-size="10.00">src/d/d_attention.cpp</text>
</a>
</g>
</g>
<!-- Node25&#45;&gt;Node26 -->
<g id="edge31" class="edge">
<title>Node25&#45;&gt;Node26</title>
<path fill="none" stroke="midnightblue" d="M827.13,-253.5C822.35,-242.55 816.46,-229.07 812.72,-220.51"/>
<polygon fill="midnightblue" stroke="midnightblue" points="824.06,-255.21 831.27,-262.98 830.48,-252.41 824.06,-255.21"/>
</g>
<!-- Node27&#45;&gt;Node5 -->
<g id="edge36" class="edge">
<title>Node27&#45;&gt;Node5</title>
<path fill="none" stroke="midnightblue" d="M891.56,-199.54C836.64,-188.79 751.56,-172.14 696.06,-161.28"/>
<polygon fill="midnightblue" stroke="midnightblue" points="890.96,-202.99 901.44,-201.48 892.3,-196.12 890.96,-202.99"/>
</g>
<!-- Node27&#45;&gt;Node7 -->
<g id="edge35" class="edge">
<title>Node27&#45;&gt;Node7</title>
<path fill="none" stroke="midnightblue" d="M944.11,-191.31C942.8,-163.58 940.38,-112.63 939.42,-92.26"/>
<polygon fill="midnightblue" stroke="midnightblue" points="940.62,-191.48 944.59,-201.31 947.61,-191.15 940.62,-191.48"/>
</g>
</g>
</svg>
