<?xml version="1.0" encoding="UTF-8" standalone="no"?>
<!DOCTYPE svg PUBLIC "-//W3C//DTD SVG 1.1//EN"
 "http://www.w3.org/Graphics/SVG/1.1/DTD/svg11.dtd">
<!-- Generated by graphviz version 2.44.0 ()
 -->
<!-- Title: include/d/event/d_event_manager.h Pages: 1 -->
<!--zoomable 766 -->
<svg id="main" version="1.1" xmlns="http://www.w3.org/2000/svg" xmlns:xlink="http://www.w3.org/1999/xlink" xml:space="preserve" onload="init(evt)">
<style type="text/css"><![CDATA[
.edge:hover path { stroke: red; }
.edge:hover polygon { stroke: red; fill: red; }
]]></style>
<script type="text/javascript"><![CDATA[
var edges = document.getElementsByTagName('g');
if (edges && edges.length) {
  for (var i=0;i<edges.length;i++) {
    if (edges[i].id.substr(0,4)=='edge') {
      edges[i].setAttribute('class','edge');
    }
  }
}
]]></script>
        <defs>
                <circle id="rim" cx="0" cy="0" r="7"/>
                <circle id="rim2" cx="0" cy="0" r="3.5"/>
                <g id="zoomPlus">
                        <use xlink:href="#rim" fill="#404040">
                                <set attributeName="fill" to="#808080" begin="zoomplus.mouseover" end="zoomplus.mouseout"/>
                        </use>
                        <path d="M-4,0h8M0,-4v8" fill="none" stroke="white" stroke-width="1.5" pointer-events="none"/>
                </g>
                <g id="zoomMin">
                        <use xlink:href="#rim" fill="#404040">
                                <set attributeName="fill" to="#808080" begin="zoomminus.mouseover" end="zoomminus.mouseout"/>
                        </use>
                        <path d="M-4,0h8" fill="none" stroke="white" stroke-width="1.5" pointer-events="none"/>
                </g>
                <g id="dirArrow">
                        <path fill="none" stroke="white" stroke-width="1.5" d="M0,-3.0v7 M-2.5,-0.5L0,-3.0L2.5,-0.5"/>
                </g>
               <g id="resetDef">
                       <use xlink:href="#rim2" fill="#404040">
                               <set attributeName="fill" to="#808080" begin="reset.mouseover" end="reset.mouseout"/>
                       </use>
               </g>
        </defs>

<script type="text/javascript">
var viewWidth = 1616;
var viewHeight = 766;
var sectionId = 'dynsection-0';
</script>
<script xlink:href="svgpan.js"/>
<svg id="graph" class="graph">
<g id="viewport">
<title>include/d/event/d_event_manager.h</title>
<polygon fill="white" stroke="transparent" points="-4,4 -4,-762 1612,-762 1612,4 -4,4"/>
<!-- Node1 -->
<g id="node1" class="node">
<title>Node1</title>
<g id="a_node1"><a xlink:title=" ">
<polygon fill="#bfbfbf" stroke="black" points="818,-727.5 818,-757.5 938,-757.5 938,-727.5 818,-727.5"/>
<text text-anchor="start" x="826" y="-745.5" font-family="Helvetica,sans-Serif" font-size="10.00">include/d/event/d_event</text>
<text text-anchor="middle" x="878" y="-734.5" font-family="Helvetica,sans-Serif" font-size="10.00">_manager.h</text>
</a>
</g>
</g>
<!-- Node2 -->
<g id="node2" class="node">
<title>Node2</title>
<g id="a_node2"><a xlink:href="d__event__data_8h.html" target="_top" xlink:title=" ">
<polygon fill="white" stroke="black" points="120,-671.5 120,-690.5 238,-690.5 238,-671.5 120,-671.5"/>
<text text-anchor="middle" x="179" y="-678.5" font-family="Helvetica,sans-Serif" font-size="10.00">d/event/d_event_data.h</text>
</a>
</g>
</g>
<!-- Node1&#45;&gt;Node2 -->
<g id="edge1" class="edge">
<title>Node1&#45;&gt;Node2</title>
<path fill="none" stroke="midnightblue" d="M817.8,-736.38C688.57,-725.38 385.25,-699.56 248.28,-687.9"/>
<polygon fill="midnightblue" stroke="midnightblue" points="248.57,-684.41 238.31,-687.05 247.98,-691.38 248.57,-684.41"/>
</g>
<!-- Node7 -->
<g id="node7" class="node">
<title>Node7</title>
<g id="a_node7"><a xlink:href="types_8h.html" target="_top" xlink:title=" ">
<polygon fill="white" stroke="black" points="723.5,-0.5 723.5,-19.5 804.5,-19.5 804.5,-0.5 723.5,-0.5"/>
<text text-anchor="middle" x="764" y="-7.5" font-family="Helvetica,sans-Serif" font-size="10.00">dolphin/types.h</text>
</a>
</g>
</g>
<!-- Node1&#45;&gt;Node7 -->
<g id="edge76" class="edge">
<title>Node1&#45;&gt;Node7</title>
<path fill="none" stroke="midnightblue" d="M938.05,-738.3C1112.67,-728.22 1608,-693.64 1608,-626 1608,-626 1608,-626 1608,-137.5 1608,-78.07 1557.65,-76.83 1502,-56 1438.1,-32.08 971.29,-16.85 814.9,-12.38"/>
<polygon fill="midnightblue" stroke="midnightblue" points="814.71,-8.87 804.62,-12.09 814.52,-15.87 814.71,-8.87"/>
</g>
<!-- Node3 -->
<g id="node3" class="node">
<title>Node3</title>
<g id="a_node3"><a xlink:href="d__stage_8h.html" target="_top" xlink:title=" ">
<polygon fill="white" stroke="black" points="114.5,-615.5 114.5,-634.5 181.5,-634.5 181.5,-615.5 114.5,-615.5"/>
<text text-anchor="middle" x="148" y="-622.5" font-family="Helvetica,sans-Serif" font-size="10.00">d/d_stage.h</text>
</a>
</g>
</g>
<!-- Node2&#45;&gt;Node3 -->
<g id="edge2" class="edge">
<title>Node2&#45;&gt;Node3</title>
<path fill="none" stroke="midnightblue" d="M173.88,-671.08C169.59,-663.61 163.34,-652.72 158.06,-643.52"/>
<polygon fill="midnightblue" stroke="midnightblue" points="161.04,-641.68 153.02,-634.75 154.97,-645.17 161.04,-641.68"/>
</g>
<!-- Node4 -->
<g id="node4" class="node">
<title>Node4</title>
<g id="a_node4"><a xlink:href="d__save_8h.html" target="_top" xlink:title=" ">
<polygon fill="white" stroke="black" points="147,-503.5 147,-522.5 235,-522.5 235,-503.5 147,-503.5"/>
<text text-anchor="middle" x="191" y="-510.5" font-family="Helvetica,sans-Serif" font-size="10.00">d/save/d_save.h</text>
</a>
</g>
</g>
<!-- Node2&#45;&gt;Node4 -->
<g id="edge74" class="edge">
<title>Node2&#45;&gt;Node4</title>
<path fill="none" stroke="midnightblue" d="M181.71,-671.48C184.41,-662.51 188.39,-647.93 190,-635 194.49,-598.99 193.37,-556.49 192.18,-532.65"/>
<polygon fill="midnightblue" stroke="midnightblue" points="195.66,-532.34 191.6,-522.55 188.68,-532.74 195.66,-532.34"/>
</g>
<!-- Node2&#45;&gt;Node7 -->
<g id="edge75" class="edge">
<title>Node2&#45;&gt;Node7</title>
<path fill="none" stroke="midnightblue" d="M129.14,-671.45C76.17,-659.16 0,-630.91 0,-570 0,-570 0,-570 0,-137.5 0,-95.46 12.18,-78 48,-56 104.29,-21.44 558.9,-13.26 713.08,-11.47"/>
<polygon fill="midnightblue" stroke="midnightblue" points="713.26,-14.97 723.22,-11.35 713.18,-7.97 713.26,-14.97"/>
</g>
<!-- Node3&#45;&gt;Node4 -->
<g id="edge3" class="edge">
<title>Node3&#45;&gt;Node4</title>
<path fill="none" stroke="midnightblue" d="M151.37,-615.37C158.38,-597.46 174.61,-555.92 183.98,-531.95"/>
<polygon fill="midnightblue" stroke="midnightblue" points="187.26,-533.18 187.64,-522.59 180.74,-530.63 187.26,-533.18"/>
</g>
<!-- Node3&#45;&gt;Node7 -->
<g id="edge10" class="edge">
<title>Node3&#45;&gt;Node7</title>
<path fill="none" stroke="midnightblue" d="M116.04,-615.41C96.4,-608.58 72.18,-597.09 57,-579 37.66,-555.94 38,-544.1 38,-514 38,-514 38,-514 38,-137.5 38,-94.77 52.33,-77.94 89,-56 142.09,-24.24 565.01,-14.28 713.05,-11.75"/>
<polygon fill="midnightblue" stroke="midnightblue" points="713.28,-15.24 723.22,-11.58 713.16,-8.24 713.28,-15.24"/>
</g>
<!-- Node9 -->
<g id="node9" class="node">
<title>Node9</title>
<g id="a_node9"><a xlink:href="f__op__actor_8h.html" target="_top" xlink:title=" ">
<polygon fill="white" stroke="black" points="453,-559.5 453,-578.5 545,-578.5 545,-559.5 453,-559.5"/>
<text text-anchor="middle" x="499" y="-566.5" font-family="Helvetica,sans-Serif" font-size="10.00">f_op/f_op_actor.h</text>
</a>
</g>
</g>
<!-- Node3&#45;&gt;Node9 -->
<g id="edge11" class="edge">
<title>Node3&#45;&gt;Node9</title>
<path fill="none" stroke="midnightblue" d="M181.66,-618.82C241.96,-609.54 369.02,-590 442.76,-578.65"/>
<polygon fill="midnightblue" stroke="midnightblue" points="443.45,-582.09 452.8,-577.11 442.38,-575.17 443.45,-582.09"/>
</g>
<!-- Node31 -->
<g id="node31" class="node">
<title>Node31</title>
<g id="a_node31"><a xlink:href="msl__c_2string_8h.html" target="_top" xlink:title=" ">
<polygon fill="white" stroke="black" points="66.5,-559.5 66.5,-578.5 143.5,-578.5 143.5,-559.5 66.5,-559.5"/>
<text text-anchor="middle" x="105" y="-566.5" font-family="Helvetica,sans-Serif" font-size="10.00">msl_c/string.h</text>
</a>
</g>
</g>
<!-- Node3&#45;&gt;Node31 -->
<g id="edge72" class="edge">
<title>Node3&#45;&gt;Node31</title>
<path fill="none" stroke="midnightblue" d="M140.9,-615.08C134.76,-607.38 125.73,-596.03 118.26,-586.65"/>
<polygon fill="midnightblue" stroke="midnightblue" points="120.94,-584.39 111.97,-578.75 115.46,-588.75 120.94,-584.39"/>
</g>
<!-- Node5 -->
<g id="node5" class="node">
<title>Node5</title>
<g id="a_node5"><a xlink:href="c__xyz_8h.html" target="_top" xlink:title=" ">
<polygon fill="white" stroke="black" points="354,-123.5 354,-153.5 470,-153.5 470,-123.5 354,-123.5"/>
<text text-anchor="start" x="362" y="-141.5" font-family="Helvetica,sans-Serif" font-size="10.00">SSystem/SComponent</text>
<text text-anchor="middle" x="412" y="-130.5" font-family="Helvetica,sans-Serif" font-size="10.00">/c_xyz.h</text>
</a>
</g>
</g>
<!-- Node4&#45;&gt;Node5 -->
<g id="edge4" class="edge">
<title>Node4&#45;&gt;Node5</title>
<path fill="none" stroke="midnightblue" d="M199.45,-503.43C231.37,-470.43 345.11,-347.16 391,-221 397.88,-202.08 403.44,-179.91 407.11,-163.47"/>
<polygon fill="midnightblue" stroke="midnightblue" points="410.55,-164.11 409.24,-153.59 403.71,-162.63 410.55,-164.11"/>
</g>
<!-- Node4&#45;&gt;Node7 -->
<g id="edge9" class="edge">
<title>Node4&#45;&gt;Node7</title>
<path fill="none" stroke="midnightblue" d="M180.62,-503.5C159.6,-485.26 114,-440.05 114,-391 114,-391 114,-391 114,-137.5 114,-86.12 149.31,-77.45 196,-56 287.27,-14.06 591.18,-10.34 712.92,-10.6"/>
<polygon fill="midnightblue" stroke="midnightblue" points="713.08,-14.1 723.09,-10.63 713.1,-7.1 713.08,-14.1"/>
</g>
<!-- Node6 -->
<g id="node6" class="node">
<title>Node6</title>
<g id="a_node6"><a xlink:href="vec_8h.html" target="_top" xlink:title=" ">
<polygon fill="white" stroke="black" points="528,-62 528,-81 620,-81 620,-62 528,-62"/>
<text text-anchor="middle" x="574" y="-69" font-family="Helvetica,sans-Serif" font-size="10.00">dolphin/mtx/vec.h</text>
</a>
</g>
</g>
<!-- Node5&#45;&gt;Node6 -->
<g id="edge5" class="edge">
<title>Node5&#45;&gt;Node6</title>
<path fill="none" stroke="midnightblue" d="M447.15,-123.4C475.83,-111.89 515.94,-95.8 543.33,-84.81"/>
<polygon fill="midnightblue" stroke="midnightblue" points="544.82,-87.98 552.8,-81.01 542.21,-81.48 544.82,-87.98"/>
</g>
<!-- Node8 -->
<g id="node8" class="node">
<title>Node8</title>
<g id="a_node8"><a xlink:href="global_8h.html" target="_top" xlink:title=" ">
<polygon fill="white" stroke="black" points="404,-62 404,-81 454,-81 454,-62 404,-62"/>
<text text-anchor="middle" x="429" y="-69" font-family="Helvetica,sans-Serif" font-size="10.00">global.h</text>
</a>
</g>
</g>
<!-- Node5&#45;&gt;Node8 -->
<g id="edge7" class="edge">
<title>Node5&#45;&gt;Node8</title>
<path fill="none" stroke="midnightblue" d="M415.69,-123.4C418.16,-113.96 421.43,-101.45 424.11,-91.19"/>
<polygon fill="midnightblue" stroke="midnightblue" points="427.58,-91.75 426.73,-81.19 420.81,-89.98 427.58,-91.75"/>
</g>
<!-- Node6&#45;&gt;Node7 -->
<g id="edge6" class="edge">
<title>Node6&#45;&gt;Node7</title>
<path fill="none" stroke="midnightblue" d="M601.22,-61.98C634.24,-51.64 690.04,-34.16 726.95,-22.6"/>
<polygon fill="midnightblue" stroke="midnightblue" points="728.33,-25.84 736.83,-19.51 726.24,-19.16 728.33,-25.84"/>
</g>
<!-- Node8&#45;&gt;Node7 -->
<g id="edge8" class="edge">
<title>Node8&#45;&gt;Node7</title>
<path fill="none" stroke="midnightblue" d="M454.07,-63.34C463.41,-60.81 474.15,-58.09 484,-56 563.58,-39.16 657.07,-25.31 713.36,-17.61"/>
<polygon fill="midnightblue" stroke="midnightblue" points="713.99,-21.06 723.43,-16.24 713.05,-14.12 713.99,-21.06"/>
</g>
<!-- Node9&#45;&gt;Node5 -->
<g id="edge14" class="edge">
<title>Node9&#45;&gt;Node5</title>
<path fill="none" stroke="midnightblue" d="M494.16,-559.32C484.13,-540.48 462,-494.19 462,-452.5 462,-452.5 462,-452.5 462,-271.5 462,-231.12 441.29,-188.04 426.53,-162.46"/>
<polygon fill="midnightblue" stroke="midnightblue" points="429.53,-160.67 421.4,-153.87 423.52,-164.25 429.53,-160.67"/>
</g>
<!-- Node10 -->
<g id="node10" class="node">
<title>Node10</title>
<g id="a_node10"><a xlink:href="c__sxyz_8h.html" target="_top" xlink:title=" ">
<polygon fill="white" stroke="black" points="1464,-436.5 1464,-466.5 1580,-466.5 1580,-436.5 1464,-436.5"/>
<text text-anchor="start" x="1472" y="-454.5" font-family="Helvetica,sans-Serif" font-size="10.00">SSystem/SComponent</text>
<text text-anchor="middle" x="1522" y="-443.5" font-family="Helvetica,sans-Serif" font-size="10.00">/c_sxyz.h</text>
</a>
</g>
</g>
<!-- Node9&#45;&gt;Node10 -->
<g id="edge12" class="edge">
<title>Node9&#45;&gt;Node10</title>
<path fill="none" stroke="midnightblue" d="M545.22,-567.89C701.6,-567.16 1209.82,-561.8 1368,-523 1412.39,-512.11 1459.64,-488.46 1489.92,-471.55"/>
<polygon fill="midnightblue" stroke="midnightblue" points="1491.78,-474.52 1498.75,-466.55 1488.32,-468.44 1491.78,-474.52"/>
</g>
<!-- Node11 -->
<g id="node11" class="node">
<title>Node11</title>
<g id="a_node11"><a xlink:href="d__kankyo_8h.html" target="_top" xlink:title=" ">
<polygon fill="white" stroke="black" points="242.5,-263 242.5,-282 349.5,-282 349.5,-263 242.5,-263"/>
<text text-anchor="middle" x="296" y="-270" font-family="Helvetica,sans-Serif" font-size="10.00">d/kankyo/d_kankyo.h</text>
</a>
</g>
</g>
<!-- Node9&#45;&gt;Node11 -->
<g id="edge15" class="edge">
<title>Node9&#45;&gt;Node11</title>
<path fill="none" stroke="midnightblue" d="M487.15,-559.23C476.18,-550.74 459.83,-537.12 448,-523 382.09,-444.35 325.42,-334.18 304.55,-291.44"/>
<polygon fill="midnightblue" stroke="midnightblue" points="307.64,-289.78 300.14,-282.29 301.34,-292.82 307.64,-289.78"/>
</g>
<!-- Node14 -->
<g id="node14" class="node">
<title>Node14</title>
<g id="a_node14"><a xlink:href="mtx_8h.html" target="_top" xlink:title=" ">
<polygon fill="white" stroke="black" points="490,-196 490,-215 582,-215 582,-196 490,-196"/>
<text text-anchor="middle" x="536" y="-203" font-family="Helvetica,sans-Serif" font-size="10.00">dolphin/mtx/mtx.h</text>
</a>
</g>
</g>
<!-- Node9&#45;&gt;Node14 -->
<g id="edge24" class="edge">
<title>Node9&#45;&gt;Node14</title>
<path fill="none" stroke="midnightblue" d="M501.41,-559.39C506.52,-540.3 518,-492.94 518,-452.5 518,-452.5 518,-452.5 518,-333 518,-294.32 526.35,-249.64 531.68,-225.08"/>
<polygon fill="midnightblue" stroke="midnightblue" points="535.16,-225.55 533.94,-215.03 528.33,-224.02 535.16,-225.55"/>
</g>
<!-- Node16 -->
<g id="node16" class="node">
<title>Node16</title>
<g id="a_node16"><a xlink:href="f__pc__leaf_8h.html" target="_top" xlink:title=" ">
<polygon fill="white" stroke="black" points="1273,-503.5 1273,-522.5 1359,-522.5 1359,-503.5 1273,-503.5"/>
<text text-anchor="middle" x="1316" y="-510.5" font-family="Helvetica,sans-Serif" font-size="10.00">f_pc/f_pc_leaf.h</text>
</a>
</g>
</g>
<!-- Node9&#45;&gt;Node16 -->
<g id="edge30" class="edge">
<title>Node9&#45;&gt;Node16</title>
<path fill="none" stroke="midnightblue" d="M545.27,-564.94C686.52,-555.61 1111.71,-527.5 1262.37,-517.55"/>
<polygon fill="midnightblue" stroke="midnightblue" points="1262.98,-521.01 1272.73,-516.86 1262.52,-514.03 1262.98,-521.01"/>
</g>
<!-- Node10&#45;&gt;Node7 -->
<g id="edge13" class="edge">
<title>Node10&#45;&gt;Node7</title>
<path fill="none" stroke="midnightblue" d="M1519.57,-436.32C1516.07,-414.59 1510,-371.69 1510,-335 1510,-335 1510,-335 1510,-137.5 1510,-97.9 1506.48,-78.65 1474,-56 1420.28,-18.53 968.1,-12.26 814.68,-11.21"/>
<polygon fill="midnightblue" stroke="midnightblue" points="814.61,-7.71 804.59,-11.15 814.56,-14.71 814.61,-7.71"/>
</g>
<!-- Node11&#45;&gt;Node5 -->
<g id="edge21" class="edge">
<title>Node11&#45;&gt;Node5</title>
<path fill="none" stroke="midnightblue" d="M311.96,-262.97C327.48,-254.08 350.99,-238.95 367,-221 382.38,-203.76 394.62,-180.36 402.42,-163.06"/>
<polygon fill="midnightblue" stroke="midnightblue" points="405.73,-164.23 406.5,-153.67 399.31,-161.45 405.73,-164.23"/>
</g>
<!-- Node11&#45;&gt;Node7 -->
<g id="edge23" class="edge">
<title>Node11&#45;&gt;Node7</title>
<path fill="none" stroke="midnightblue" d="M278.31,-262.96C236.74,-241.65 138.71,-183.5 171,-123 196.19,-75.8 220.58,-73.87 271,-56 351.54,-27.45 604.38,-16.1 713.28,-12.46"/>
<polygon fill="midnightblue" stroke="midnightblue" points="713.48,-15.95 723.36,-12.13 713.25,-8.96 713.48,-15.95"/>
</g>
<!-- Node12 -->
<g id="node12" class="node">
<title>Node12</title>
<g id="a_node12"><a xlink:href="J3DStruct_8h.html" target="_top" xlink:title=" ">
<polygon fill="white" stroke="black" points="234,-190.5 234,-220.5 358,-220.5 358,-190.5 234,-190.5"/>
<text text-anchor="start" x="242" y="-208.5" font-family="Helvetica,sans-Serif" font-size="10.00">JSystem/J3DGraphBase</text>
<text text-anchor="middle" x="296" y="-197.5" font-family="Helvetica,sans-Serif" font-size="10.00">/J3DStruct.h</text>
</a>
</g>
</g>
<!-- Node11&#45;&gt;Node12 -->
<g id="edge16" class="edge">
<title>Node11&#45;&gt;Node12</title>
<path fill="none" stroke="midnightblue" d="M296,-262.73C296,-254.54 296,-241.92 296,-230.71"/>
<polygon fill="midnightblue" stroke="midnightblue" points="299.5,-230.59 296,-220.59 292.5,-230.59 299.5,-230.59"/>
</g>
<!-- Node13 -->
<g id="node13" class="node">
<title>Node13</title>
<g id="a_node13"><a xlink:href="GXTexture_8h.html" target="_top" xlink:title=" ">
<polygon fill="white" stroke="black" points="180.5,-129 180.5,-148 297.5,-148 297.5,-129 180.5,-129"/>
<text text-anchor="middle" x="239" y="-136" font-family="Helvetica,sans-Serif" font-size="10.00">dolphin/gx/GXTexture.h</text>
</a>
</g>
</g>
<!-- Node11&#45;&gt;Node13 -->
<g id="edge22" class="edge">
<title>Node11&#45;&gt;Node13</title>
<path fill="none" stroke="midnightblue" d="M274.57,-262.91C257.69,-254.85 235.33,-241.03 225,-221 214.64,-200.92 222.31,-174.74 229.75,-157.54"/>
<polygon fill="midnightblue" stroke="midnightblue" points="233.09,-158.66 234.19,-148.12 226.76,-155.67 233.09,-158.66"/>
</g>
<!-- Node12&#45;&gt;Node5 -->
<g id="edge17" class="edge">
<title>Node12&#45;&gt;Node5</title>
<path fill="none" stroke="midnightblue" d="M321.17,-190.4C337.74,-181.11 359.64,-168.84 377.78,-158.67"/>
<polygon fill="midnightblue" stroke="midnightblue" points="379.87,-161.52 386.88,-153.58 376.44,-155.41 379.87,-161.52"/>
</g>
<!-- Node12&#45;&gt;Node7 -->
<g id="edge20" class="edge">
<title>Node12&#45;&gt;Node7</title>
<path fill="none" stroke="midnightblue" d="M300.61,-190.29C311.42,-159.51 341.66,-86.93 395,-56 447.96,-25.29 625.12,-15.38 713.28,-12.31"/>
<polygon fill="midnightblue" stroke="midnightblue" points="713.44,-15.81 723.32,-11.98 713.21,-8.81 713.44,-15.81"/>
</g>
<!-- Node12&#45;&gt;Node13 -->
<g id="edge18" class="edge">
<title>Node12&#45;&gt;Node13</title>
<path fill="none" stroke="midnightblue" d="M283.63,-190.4C274.74,-180.26 262.74,-166.57 253.41,-155.94"/>
<polygon fill="midnightblue" stroke="midnightblue" points="255.85,-153.41 246.62,-148.19 250.59,-158.02 255.85,-153.41"/>
</g>
<!-- Node13&#45;&gt;Node7 -->
<g id="edge19" class="edge">
<title>Node13&#45;&gt;Node7</title>
<path fill="none" stroke="midnightblue" d="M243.68,-128.95C253.65,-111.67 278.8,-72.85 312,-56 381.09,-20.92 610.43,-13.18 713.3,-11.48"/>
<polygon fill="midnightblue" stroke="midnightblue" points="713.49,-14.98 723.44,-11.32 713.38,-7.98 713.49,-14.98"/>
</g>
<!-- Node14&#45;&gt;Node6 -->
<g id="edge28" class="edge">
<title>Node14&#45;&gt;Node6</title>
<path fill="none" stroke="midnightblue" d="M537.82,-195.86C541.03,-180.89 548.13,-149.23 556,-123 559.23,-112.25 563.41,-100.42 566.93,-90.91"/>
<polygon fill="midnightblue" stroke="midnightblue" points="570.28,-91.94 570.54,-81.35 563.73,-89.47 570.28,-91.94"/>
</g>
<!-- Node14&#45;&gt;Node7 -->
<g id="edge29" class="edge">
<title>Node14&#45;&gt;Node7</title>
<path fill="none" stroke="midnightblue" d="M531.17,-195.89C517.9,-170.97 484.12,-97.87 519,-56 543.19,-26.96 648.54,-16.6 712.96,-12.95"/>
<polygon fill="midnightblue" stroke="midnightblue" points="713.52,-16.42 723.32,-12.4 713.14,-9.43 713.52,-16.42"/>
</g>
<!-- Node15 -->
<g id="node15" class="node">
<title>Node15</title>
<g id="a_node15"><a xlink:href="quat_8h.html" target="_top" xlink:title=" ">
<polygon fill="white" stroke="black" points="564.5,-129 564.5,-148 659.5,-148 659.5,-129 564.5,-129"/>
<text text-anchor="middle" x="612" y="-136" font-family="Helvetica,sans-Serif" font-size="10.00">dolphin/mtx/quat.h</text>
</a>
</g>
</g>
<!-- Node14&#45;&gt;Node15 -->
<g id="edge25" class="edge">
<title>Node14&#45;&gt;Node15</title>
<path fill="none" stroke="midnightblue" d="M546.25,-195.73C558.44,-185.31 579.02,-167.71 593.91,-154.97"/>
<polygon fill="midnightblue" stroke="midnightblue" points="596.59,-157.29 601.91,-148.13 592.04,-151.97 596.59,-157.29"/>
</g>
<!-- Node15&#45;&gt;Node6 -->
<g id="edge26" class="edge">
<title>Node15&#45;&gt;Node6</title>
<path fill="none" stroke="midnightblue" d="M606.88,-128.73C601.06,-118.79 591.44,-102.34 584.11,-89.79"/>
<polygon fill="midnightblue" stroke="midnightblue" points="587.11,-87.99 579.04,-81.13 581.07,-91.53 587.11,-87.99"/>
</g>
<!-- Node15&#45;&gt;Node7 -->
<g id="edge27" class="edge">
<title>Node15&#45;&gt;Node7</title>
<path fill="none" stroke="midnightblue" d="M616.76,-128.85C625.98,-112.73 647.72,-77.78 674,-56 690.68,-42.17 712.33,-31.18 730.21,-23.52"/>
<polygon fill="midnightblue" stroke="midnightblue" points="731.79,-26.66 739.7,-19.61 729.12,-20.19 731.79,-26.66"/>
</g>
<!-- Node16&#45;&gt;Node7 -->
<g id="edge31" class="edge">
<title>Node16&#45;&gt;Node7</title>
<path fill="none" stroke="midnightblue" d="M1328.81,-503.31C1340.13,-495.08 1356.44,-481.8 1367,-467 1438.42,-366.94 1460,-329.43 1460,-206.5 1460,-206.5 1460,-206.5 1460,-137.5 1460,-65.12 1388.1,-77.56 1319,-56 1225.73,-26.89 933.7,-15.69 814.96,-12.27"/>
<polygon fill="midnightblue" stroke="midnightblue" points="814.79,-8.77 804.69,-11.98 814.59,-15.76 814.79,-8.77"/>
</g>
<!-- Node17 -->
<g id="node17" class="node">
<title>Node17</title>
<g id="a_node17"><a xlink:href="f__pc__base_8h.html" target="_top" xlink:title=" ">
<polygon fill="white" stroke="black" points="1006.5,-442 1006.5,-461 1097.5,-461 1097.5,-442 1006.5,-442"/>
<text text-anchor="middle" x="1052" y="-449" font-family="Helvetica,sans-Serif" font-size="10.00">f_pc/f_pc_base.h</text>
</a>
</g>
</g>
<!-- Node16&#45;&gt;Node17 -->
<g id="edge32" class="edge">
<title>Node16&#45;&gt;Node17</title>
<path fill="none" stroke="midnightblue" d="M1278.18,-503.48C1231.13,-492.87 1150.77,-474.76 1099.58,-463.22"/>
<polygon fill="midnightblue" stroke="midnightblue" points="1100.28,-459.79 1089.75,-461.01 1098.74,-466.62 1100.28,-459.79"/>
</g>
<!-- Node29 -->
<g id="node29" class="node">
<title>Node29</title>
<g id="a_node29"><a xlink:href="f__pc__method_8h.html" target="_top" xlink:title=" ">
<polygon fill="white" stroke="black" points="1230,-324.5 1230,-343.5 1332,-343.5 1332,-324.5 1230,-324.5"/>
<text text-anchor="middle" x="1281" y="-331.5" font-family="Helvetica,sans-Serif" font-size="10.00">f_pc/f_pc_method.h</text>
</a>
</g>
</g>
<!-- Node16&#45;&gt;Node29 -->
<g id="edge71" class="edge">
<title>Node16&#45;&gt;Node29</title>
<path fill="none" stroke="midnightblue" d="M1315.34,-503.24C1313.62,-481.89 1308.28,-425.63 1297,-380 1294.79,-371.04 1291.48,-361.37 1288.44,-353.3"/>
<polygon fill="midnightblue" stroke="midnightblue" points="1291.63,-351.84 1284.72,-343.8 1285.11,-354.39 1291.63,-351.84"/>
</g>
<!-- Node30 -->
<g id="node30" class="node">
<title>Node30</title>
<g id="a_node30"><a xlink:href="f__pc__draw__priority_8h.html" target="_top" xlink:title=" ">
<polygon fill="white" stroke="black" points="1306.5,-263 1306.5,-282 1431.5,-282 1431.5,-263 1306.5,-263"/>
<text text-anchor="middle" x="1369" y="-270" font-family="Helvetica,sans-Serif" font-size="10.00">f_pc/f_pc_draw_priority.h</text>
</a>
</g>
</g>
<!-- Node16&#45;&gt;Node30 -->
<g id="edge69" class="edge">
<title>Node16&#45;&gt;Node30</title>
<path fill="none" stroke="midnightblue" d="M1322.39,-503.3C1335.24,-485.2 1363.84,-441.7 1374,-400 1383.11,-362.59 1377.41,-317.15 1372.91,-292.18"/>
<polygon fill="midnightblue" stroke="midnightblue" points="1376.32,-291.4 1370.98,-282.25 1369.45,-292.74 1376.32,-291.4"/>
</g>
<!-- Node17&#45;&gt;Node7 -->
<g id="edge44" class="edge">
<title>Node17&#45;&gt;Node7</title>
<path fill="none" stroke="midnightblue" d="M1097.88,-450.27C1149.86,-448.02 1235.32,-438.16 1297,-400 1330.19,-379.46 1357.51,-359.36 1341,-324 1330.45,-301.42 1311.18,-309.15 1298,-288 1278.28,-256.34 1278,-243.8 1278,-206.5 1278,-206.5 1278,-206.5 1278,-137.5 1278,-97.53 1272.66,-79.04 1240,-56 1205.8,-31.88 930.1,-17.83 814.61,-12.96"/>
<polygon fill="midnightblue" stroke="midnightblue" points="814.74,-9.46 804.6,-12.54 814.45,-16.46 814.74,-9.46"/>
</g>
<!-- Node18 -->
<g id="node18" class="node">
<title>Node18</title>
<g id="a_node18"><a xlink:href="c__tag_8h.html" target="_top" xlink:title=" ">
<polygon fill="white" stroke="black" points="820,-257.5 820,-287.5 936,-287.5 936,-257.5 820,-257.5"/>
<text text-anchor="start" x="828" y="-275.5" font-family="Helvetica,sans-Serif" font-size="10.00">SSystem/SComponent</text>
<text text-anchor="middle" x="878" y="-264.5" font-family="Helvetica,sans-Serif" font-size="10.00">/c_tag.h</text>
</a>
</g>
</g>
<!-- Node17&#45;&gt;Node18 -->
<g id="edge33" class="edge">
<title>Node17&#45;&gt;Node18</title>
<path fill="none" stroke="midnightblue" d="M1006.48,-442.34C979.34,-435.32 945.99,-422.6 924,-400 896.52,-371.76 885.28,-325.84 880.81,-297.78"/>
<polygon fill="midnightblue" stroke="midnightblue" points="884.24,-297.05 879.37,-287.64 877.31,-298.03 884.24,-297.05"/>
</g>
<!-- Node22 -->
<g id="node22" class="node">
<title>Node22</title>
<g id="a_node22"><a xlink:href="f__pc__delete__tag_8h.html" target="_top" xlink:title=" ">
<polygon fill="white" stroke="black" points="1059.5,-380.5 1059.5,-399.5 1174.5,-399.5 1174.5,-380.5 1059.5,-380.5"/>
<text text-anchor="middle" x="1117" y="-387.5" font-family="Helvetica,sans-Serif" font-size="10.00">f_pc/f_pc_delete_tag.h</text>
</a>
</g>
</g>
<!-- Node17&#45;&gt;Node22 -->
<g id="edge45" class="edge">
<title>Node17&#45;&gt;Node22</title>
<path fill="none" stroke="midnightblue" d="M1061.31,-441.98C1071.45,-432.7 1087.86,-417.67 1100.25,-406.33"/>
<polygon fill="midnightblue" stroke="midnightblue" points="1102.69,-408.84 1107.7,-399.51 1097.96,-403.68 1102.69,-408.84"/>
</g>
<!-- Node24 -->
<g id="node24" class="node">
<title>Node24</title>
<g id="a_node24"><a xlink:href="f__pc__layer__tag_8h.html" target="_top" xlink:title=" ">
<polygon fill="white" stroke="black" points="932.5,-380.5 932.5,-399.5 1041.5,-399.5 1041.5,-380.5 932.5,-380.5"/>
<text text-anchor="middle" x="987" y="-387.5" font-family="Helvetica,sans-Serif" font-size="10.00">f_pc/f_pc_layer_tag.h</text>
</a>
</g>
</g>
<!-- Node17&#45;&gt;Node24 -->
<g id="edge53" class="edge">
<title>Node17&#45;&gt;Node24</title>
<path fill="none" stroke="midnightblue" d="M1042.69,-441.98C1032.55,-432.7 1016.14,-417.67 1003.75,-406.33"/>
<polygon fill="midnightblue" stroke="midnightblue" points="1006.04,-403.68 996.3,-399.51 1001.31,-408.84 1006.04,-403.68"/>
</g>
<!-- Node25 -->
<g id="node25" class="node">
<title>Node25</title>
<g id="a_node25"><a xlink:href="f__pc__line__tag_8h.html" target="_top" xlink:title=" ">
<polygon fill="white" stroke="black" points="594,-324.5 594,-343.5 698,-343.5 698,-324.5 594,-324.5"/>
<text text-anchor="middle" x="646" y="-331.5" font-family="Helvetica,sans-Serif" font-size="10.00">f_pc/f_pc_line_tag.h</text>
</a>
</g>
</g>
<!-- Node17&#45;&gt;Node25 -->
<g id="edge57" class="edge">
<title>Node17&#45;&gt;Node25</title>
<path fill="none" stroke="midnightblue" d="M1006.31,-446.73C949.44,-441.05 849.94,-427.85 769,-400 731.5,-387.1 691.5,-364 667.64,-349.1"/>
<polygon fill="midnightblue" stroke="midnightblue" points="669.35,-346.04 659.03,-343.64 665.6,-351.96 669.35,-346.04"/>
</g>
<!-- Node26 -->
<g id="node26" class="node">
<title>Node26</title>
<g id="a_node26"><a xlink:href="f__pc__priority_8h.html" target="_top" xlink:title=" ">
<polygon fill="white" stroke="black" points="778,-380.5 778,-399.5 876,-399.5 876,-380.5 778,-380.5"/>
<text text-anchor="middle" x="827" y="-387.5" font-family="Helvetica,sans-Serif" font-size="10.00">f_pc/f_pc_priority.h</text>
</a>
</g>
</g>
<!-- Node17&#45;&gt;Node26 -->
<g id="edge60" class="edge">
<title>Node17&#45;&gt;Node26</title>
<path fill="none" stroke="midnightblue" d="M1019.76,-441.98C980.08,-431.48 912.6,-413.64 868.93,-402.09"/>
<polygon fill="midnightblue" stroke="midnightblue" points="869.74,-398.68 859.18,-399.51 867.95,-405.45 869.74,-398.68"/>
</g>
<!-- Node28 -->
<g id="node28" class="node">
<title>Node28</title>
<g id="a_node28"><a xlink:href="f__pc__profile_8h.html" target="_top" xlink:title=" ">
<polygon fill="white" stroke="black" points="1192.5,-380.5 1192.5,-399.5 1287.5,-399.5 1287.5,-380.5 1192.5,-380.5"/>
<text text-anchor="middle" x="1240" y="-387.5" font-family="Helvetica,sans-Serif" font-size="10.00">f_pc/f_pc_profile.h</text>
</a>
</g>
</g>
<!-- Node17&#45;&gt;Node28 -->
<g id="edge65" class="edge">
<title>Node17&#45;&gt;Node28</title>
<path fill="none" stroke="midnightblue" d="M1078.94,-441.98C1111.6,-431.64 1166.82,-414.16 1203.34,-402.6"/>
<polygon fill="midnightblue" stroke="midnightblue" points="1204.64,-405.86 1213.11,-399.51 1202.52,-399.19 1204.64,-405.86"/>
</g>
<!-- Node18&#45;&gt;Node7 -->
<g id="edge43" class="edge">
<title>Node18&#45;&gt;Node7</title>
<path fill="none" stroke="midnightblue" d="M862.05,-257.37C840.17,-236.95 801.44,-196.9 783,-154 765.09,-112.34 763.01,-58.08 763.33,-29.88"/>
<polygon fill="midnightblue" stroke="midnightblue" points="766.83,-29.89 763.56,-19.81 759.83,-29.73 766.83,-29.89"/>
</g>
<!-- Node19 -->
<g id="node19" class="node">
<title>Node19</title>
<g id="a_node19"><a xlink:href="c__list_8h.html" target="_top" xlink:title=" ">
<polygon fill="white" stroke="black" points="792,-123.5 792,-153.5 908,-153.5 908,-123.5 792,-123.5"/>
<text text-anchor="start" x="800" y="-141.5" font-family="Helvetica,sans-Serif" font-size="10.00">SSystem/SComponent</text>
<text text-anchor="middle" x="850" y="-130.5" font-family="Helvetica,sans-Serif" font-size="10.00">/c_list.h</text>
</a>
</g>
</g>
<!-- Node18&#45;&gt;Node19 -->
<g id="edge34" class="edge">
<title>Node18&#45;&gt;Node19</title>
<path fill="none" stroke="midnightblue" d="M873.7,-257.45C870.71,-247.37 866.78,-233.43 864,-221 859.74,-201.99 856.07,-180.24 853.55,-163.99"/>
<polygon fill="midnightblue" stroke="midnightblue" points="856.95,-163.08 852,-153.72 850.03,-164.13 856.95,-163.08"/>
</g>
<!-- Node20 -->
<g id="node20" class="node">
<title>Node20</title>
<g id="a_node20"><a xlink:href="c__node_8h.html" target="_top" xlink:title=" ">
<polygon fill="white" stroke="black" points="878,-56.5 878,-86.5 994,-86.5 994,-56.5 878,-56.5"/>
<text text-anchor="start" x="886" y="-74.5" font-family="Helvetica,sans-Serif" font-size="10.00">SSystem/SComponent</text>
<text text-anchor="middle" x="936" y="-63.5" font-family="Helvetica,sans-Serif" font-size="10.00">/c_node.h</text>
</a>
</g>
</g>
<!-- Node18&#45;&gt;Node20 -->
<g id="edge38" class="edge">
<title>Node18&#45;&gt;Node20</title>
<path fill="none" stroke="midnightblue" d="M880.08,-257.3C882.78,-240.76 888.22,-212.77 897,-190 903.59,-172.92 910.41,-171.08 917,-154 924.2,-135.32 929.16,-113.13 932.2,-96.63"/>
<polygon fill="midnightblue" stroke="midnightblue" points="935.66,-97.15 933.92,-86.7 928.76,-95.95 935.66,-97.15"/>
</g>
<!-- Node21 -->
<g id="node21" class="node">
<title>Node21</title>
<g id="a_node21"><a xlink:href="c__tree_8h.html" target="_top" xlink:title=" ">
<polygon fill="white" stroke="black" points="906,-190.5 906,-220.5 1022,-220.5 1022,-190.5 906,-190.5"/>
<text text-anchor="start" x="914" y="-208.5" font-family="Helvetica,sans-Serif" font-size="10.00">SSystem/SComponent</text>
<text text-anchor="middle" x="964" y="-197.5" font-family="Helvetica,sans-Serif" font-size="10.00">/c_tree.h</text>
</a>
</g>
</g>
<!-- Node18&#45;&gt;Node21 -->
<g id="edge39" class="edge">
<title>Node18&#45;&gt;Node21</title>
<path fill="none" stroke="midnightblue" d="M896.66,-257.4C908.49,-248.45 923.99,-236.74 937.14,-226.8"/>
<polygon fill="midnightblue" stroke="midnightblue" points="939.51,-229.4 945.38,-220.58 935.29,-223.81 939.51,-229.4"/>
</g>
<!-- Node19&#45;&gt;Node7 -->
<g id="edge37" class="edge">
<title>Node19&#45;&gt;Node7</title>
<path fill="none" stroke="midnightblue" d="M840.47,-123.48C824.65,-100.21 793,-53.66 775.8,-28.36"/>
<polygon fill="midnightblue" stroke="midnightblue" points="778.49,-26.09 769.97,-19.79 772.7,-30.03 778.49,-26.09"/>
</g>
<!-- Node19&#45;&gt;Node20 -->
<g id="edge35" class="edge">
<title>Node19&#45;&gt;Node20</title>
<path fill="none" stroke="midnightblue" d="M868.66,-123.4C880.49,-114.45 895.99,-102.74 909.14,-92.8"/>
<polygon fill="midnightblue" stroke="midnightblue" points="911.51,-95.4 917.38,-86.58 907.29,-89.81 911.51,-95.4"/>
</g>
<!-- Node20&#45;&gt;Node7 -->
<g id="edge36" class="edge">
<title>Node20&#45;&gt;Node7</title>
<path fill="none" stroke="midnightblue" d="M895.24,-56.4C865.78,-46.21 826.41,-32.59 798.5,-22.93"/>
<polygon fill="midnightblue" stroke="midnightblue" points="799.37,-19.53 788.78,-19.57 797.08,-26.15 799.37,-19.53"/>
</g>
<!-- Node21&#45;&gt;Node7 -->
<g id="edge42" class="edge">
<title>Node21&#45;&gt;Node7</title>
<path fill="none" stroke="midnightblue" d="M974.92,-190.48C995.77,-161.9 1036.35,-96.22 1003,-56 979.58,-27.75 877.77,-17.12 814.83,-13.2"/>
<polygon fill="midnightblue" stroke="midnightblue" points="814.89,-9.7 804.7,-12.61 814.48,-16.69 814.89,-9.7"/>
</g>
<!-- Node21&#45;&gt;Node19 -->
<g id="edge40" class="edge">
<title>Node21&#45;&gt;Node19</title>
<path fill="none" stroke="midnightblue" d="M939.26,-190.4C922.98,-181.11 901.46,-168.84 883.63,-158.67"/>
<polygon fill="midnightblue" stroke="midnightblue" points="885.11,-155.49 874.69,-153.58 881.64,-161.57 885.11,-155.49"/>
</g>
<!-- Node21&#45;&gt;Node20 -->
<g id="edge41" class="edge">
<title>Node21&#45;&gt;Node20</title>
<path fill="none" stroke="midnightblue" d="M962,-190.28C959.6,-173.95 955.24,-146.4 950,-123 948.04,-114.26 945.52,-104.78 943.16,-96.41"/>
<polygon fill="midnightblue" stroke="midnightblue" points="946.45,-95.19 940.3,-86.55 939.72,-97.13 946.45,-95.19"/>
</g>
<!-- Node22&#45;&gt;Node7 -->
<g id="edge47" class="edge">
<title>Node22&#45;&gt;Node7</title>
<path fill="none" stroke="midnightblue" d="M1123.34,-380.22C1136.17,-361.55 1164,-316.15 1164,-273.5 1164,-273.5 1164,-273.5 1164,-137.5 1164,-90.61 1137.96,-78.83 1097,-56 1049.76,-29.67 896.25,-17.87 815.2,-13.37"/>
<polygon fill="midnightblue" stroke="midnightblue" points="814.91,-9.85 804.74,-12.81 814.53,-16.84 814.91,-9.85"/>
</g>
<!-- Node22&#45;&gt;Node18 -->
<g id="edge46" class="edge">
<title>Node22&#45;&gt;Node18</title>
<path fill="none" stroke="midnightblue" d="M1090.71,-380.36C1066.45,-372.06 1029.66,-358.66 999,-344 967.1,-328.75 932.4,-308.08 908.37,-293.06"/>
<polygon fill="midnightblue" stroke="midnightblue" points="910.04,-289.98 899.71,-287.61 906.31,-295.9 910.04,-289.98"/>
</g>
<!-- Node23 -->
<g id="node23" class="node">
<title>Node23</title>
<g id="a_node23"><a xlink:href="f__pc__layer_8h.html" target="_top" xlink:title=" ">
<polygon fill="white" stroke="black" points="1008,-324.5 1008,-343.5 1098,-343.5 1098,-324.5 1008,-324.5"/>
<text text-anchor="middle" x="1053" y="-331.5" font-family="Helvetica,sans-Serif" font-size="10.00">f_pc/f_pc_layer.h</text>
</a>
</g>
</g>
<!-- Node22&#45;&gt;Node23 -->
<g id="edge48" class="edge">
<title>Node22&#45;&gt;Node23</title>
<path fill="none" stroke="midnightblue" d="M1106.72,-380.32C1097.16,-372.26 1082.72,-360.08 1071.22,-350.37"/>
<polygon fill="midnightblue" stroke="midnightblue" points="1073.37,-347.61 1063.47,-343.83 1068.86,-352.96 1073.37,-347.61"/>
</g>
<!-- Node23&#45;&gt;Node7 -->
<g id="edge52" class="edge">
<title>Node23&#45;&gt;Node7</title>
<path fill="none" stroke="midnightblue" d="M1057.15,-324.33C1066.42,-304.16 1088,-252.3 1088,-206.5 1088,-206.5 1088,-206.5 1088,-137.5 1088,-91.17 1062.86,-79.61 1023,-56 988.57,-35.6 879.77,-22.03 814.65,-15.51"/>
<polygon fill="midnightblue" stroke="midnightblue" points="814.89,-12.02 804.59,-14.52 814.2,-18.98 814.89,-12.02"/>
</g>
<!-- Node23&#45;&gt;Node18 -->
<g id="edge50" class="edge">
<title>Node23&#45;&gt;Node18</title>
<path fill="none" stroke="midnightblue" d="M1027.93,-324.48C1002.23,-315.74 961.55,-301.91 929.04,-290.86"/>
<polygon fill="midnightblue" stroke="midnightblue" points="929.84,-287.43 919.24,-287.52 927.59,-294.06 929.84,-287.43"/>
</g>
<!-- Node23&#45;&gt;Node20 -->
<g id="edge49" class="edge">
<title>Node23&#45;&gt;Node20</title>
<path fill="none" stroke="midnightblue" d="M1053.2,-324.18C1053.42,-301.08 1051.92,-237.33 1031,-190 1014.11,-151.8 981.48,-115.66 959.22,-93.8"/>
<polygon fill="midnightblue" stroke="midnightblue" points="961.46,-91.09 951.83,-86.68 956.6,-96.14 961.46,-91.09"/>
</g>
<!-- Node23&#45;&gt;Node21 -->
<g id="edge51" class="edge">
<title>Node23&#45;&gt;Node21</title>
<path fill="none" stroke="midnightblue" d="M1046.88,-324.31C1033.27,-304.96 1000.12,-257.85 980.12,-229.41"/>
<polygon fill="midnightblue" stroke="midnightblue" points="982.74,-227.05 974.12,-220.89 977.01,-231.08 982.74,-227.05"/>
</g>
<!-- Node24&#45;&gt;Node7 -->
<g id="edge55" class="edge">
<title>Node24&#45;&gt;Node7</title>
<path fill="none" stroke="midnightblue" d="M1039.84,-380.48C1063.38,-374.13 1089.64,-363.1 1107,-344 1128.82,-319.98 1126,-305.95 1126,-273.5 1126,-273.5 1126,-273.5 1126,-137.5 1126,-90.89 1100.44,-79.18 1060,-56 1019.22,-32.62 888.33,-19.82 815,-14.31"/>
<polygon fill="midnightblue" stroke="midnightblue" points="814.84,-10.79 804.61,-13.55 814.33,-17.77 814.84,-10.79"/>
</g>
<!-- Node24&#45;&gt;Node18 -->
<g id="edge54" class="edge">
<title>Node24&#45;&gt;Node18</title>
<path fill="none" stroke="midnightblue" d="M978.81,-380.32C961.85,-362.35 922.46,-320.61 898.24,-294.95"/>
<polygon fill="midnightblue" stroke="midnightblue" points="900.66,-292.42 891.25,-287.55 895.57,-297.22 900.66,-292.42"/>
</g>
<!-- Node24&#45;&gt;Node23 -->
<g id="edge56" class="edge">
<title>Node24&#45;&gt;Node23</title>
<path fill="none" stroke="midnightblue" d="M997.6,-380.32C1007.46,-372.26 1022.35,-360.08 1034.22,-350.37"/>
<polygon fill="midnightblue" stroke="midnightblue" points="1036.68,-352.88 1042.2,-343.83 1032.25,-347.46 1036.68,-352.88"/>
</g>
<!-- Node25&#45;&gt;Node7 -->
<g id="edge59" class="edge">
<title>Node25&#45;&gt;Node7</title>
<path fill="none" stroke="midnightblue" d="M650.98,-324.43C662.11,-304.47 688,-253.01 688,-206.5 688,-206.5 688,-206.5 688,-137.5 688,-92.12 724.38,-48.98 746.8,-26.7"/>
<polygon fill="midnightblue" stroke="midnightblue" points="749.28,-29.18 754.06,-19.73 744.43,-24.13 749.28,-29.18"/>
</g>
<!-- Node25&#45;&gt;Node18 -->
<g id="edge58" class="edge">
<title>Node25&#45;&gt;Node18</title>
<path fill="none" stroke="midnightblue" d="M679.24,-324.48C714.11,-315.53 769.8,-301.25 813.38,-290.07"/>
<polygon fill="midnightblue" stroke="midnightblue" points="814.51,-293.4 823.32,-287.52 812.77,-286.62 814.51,-293.4"/>
</g>
<!-- Node26&#45;&gt;Node18 -->
<g id="edge61" class="edge">
<title>Node26&#45;&gt;Node18</title>
<path fill="none" stroke="midnightblue" d="M830.84,-380.38C834.88,-371.32 841.4,-356.67 847,-344 853.96,-328.26 861.76,-310.52 867.8,-296.77"/>
<polygon fill="midnightblue" stroke="midnightblue" points="871.03,-298.12 871.84,-287.55 864.62,-295.3 871.03,-298.12"/>
</g>
<!-- Node27 -->
<g id="node27" class="node">
<title>Node27</title>
<g id="a_node27"><a xlink:href="f__pc__method__tag_8h.html" target="_top" xlink:title=" ">
<polygon fill="white" stroke="black" points="716.5,-324.5 716.5,-343.5 837.5,-343.5 837.5,-324.5 716.5,-324.5"/>
<text text-anchor="middle" x="777" y="-331.5" font-family="Helvetica,sans-Serif" font-size="10.00">f_pc/f_pc_method_tag.h</text>
</a>
</g>
</g>
<!-- Node26&#45;&gt;Node27 -->
<g id="edge62" class="edge">
<title>Node26&#45;&gt;Node27</title>
<path fill="none" stroke="midnightblue" d="M818.74,-380.08C811.54,-372.3 800.89,-360.8 792.15,-351.37"/>
<polygon fill="midnightblue" stroke="midnightblue" points="794.47,-348.71 785.1,-343.75 789.33,-353.47 794.47,-348.71"/>
</g>
<!-- Node27&#45;&gt;Node7 -->
<g id="edge64" class="edge">
<title>Node27&#45;&gt;Node7</title>
<path fill="none" stroke="midnightblue" d="M770.75,-324.29C757.13,-304.43 726,-253.86 726,-206.5 726,-206.5 726,-206.5 726,-137.5 726,-97.35 743.78,-52.95 755.01,-28.89"/>
<polygon fill="midnightblue" stroke="midnightblue" points="758.29,-30.15 759.49,-19.63 751.99,-27.1 758.29,-30.15"/>
</g>
<!-- Node27&#45;&gt;Node18 -->
<g id="edge63" class="edge">
<title>Node27&#45;&gt;Node18</title>
<path fill="none" stroke="midnightblue" d="M791.47,-324.48C805.41,-316.27 826.98,-303.56 845.1,-292.88"/>
<polygon fill="midnightblue" stroke="midnightblue" points="847.36,-295.61 854.2,-287.52 843.8,-289.58 847.36,-295.61"/>
</g>
<!-- Node28&#45;&gt;Node7 -->
<g id="edge66" class="edge">
<title>Node28&#45;&gt;Node7</title>
<path fill="none" stroke="midnightblue" d="M1235.03,-380.34C1224.73,-361.53 1202,-315.3 1202,-273.5 1202,-273.5 1202,-273.5 1202,-137.5 1202,-90.33 1175.44,-78.54 1134,-56 1080.07,-26.66 902.84,-16.09 814.7,-12.59"/>
<polygon fill="midnightblue" stroke="midnightblue" points="814.78,-9.09 804.66,-12.2 814.52,-16.08 814.78,-9.09"/>
</g>
<!-- Node28&#45;&gt;Node29 -->
<g id="edge67" class="edge">
<title>Node28&#45;&gt;Node29</title>
<path fill="none" stroke="midnightblue" d="M1246.77,-380.08C1252.56,-372.46 1261.06,-361.26 1268.14,-351.94"/>
<polygon fill="midnightblue" stroke="midnightblue" points="1271.1,-353.83 1274.36,-343.75 1265.52,-349.6 1271.1,-353.83"/>
</g>
<!-- Node29&#45;&gt;Node7 -->
<g id="edge68" class="edge">
<title>Node29&#45;&gt;Node7</title>
<path fill="none" stroke="midnightblue" d="M1276.14,-324.42C1265.28,-304.42 1240,-252.9 1240,-206.5 1240,-206.5 1240,-206.5 1240,-137.5 1240,-99.74 1245.08,-80.09 1216,-56 1185.6,-30.81 926.19,-17.5 814.65,-12.89"/>
<polygon fill="midnightblue" stroke="midnightblue" points="814.78,-9.39 804.65,-12.48 814.5,-16.39 814.78,-9.39"/>
</g>
<!-- Node30&#45;&gt;Node7 -->
<g id="edge70" class="edge">
<title>Node30&#45;&gt;Node7</title>
<path fill="none" stroke="midnightblue" d="M1368.96,-262.62C1368.28,-229.06 1360.93,-109.09 1292,-56 1254.74,-27.3 940.07,-15.74 814.98,-12.25"/>
<polygon fill="midnightblue" stroke="midnightblue" points="814.98,-8.74 804.89,-11.97 814.79,-15.74 814.98,-8.74"/>
</g>
<!-- Node31&#45;&gt;Node7 -->
<g id="edge73" class="edge">
<title>Node31&#45;&gt;Node7</title>
<path fill="none" stroke="midnightblue" d="M101.33,-559.49C93.52,-540.61 76,-493.64 76,-452.5 76,-452.5 76,-452.5 76,-137.5 76,-93.55 93.86,-77.83 132,-56 181.88,-27.44 571.63,-15.52 713,-12.11"/>
<polygon fill="midnightblue" stroke="midnightblue" points="713.22,-15.6 723.13,-11.86 713.05,-8.6 713.22,-15.6"/>
</g>
</g>
</svg>
        <g id="navigator" transform="translate(0 0)" fill="#404254">
                <rect fill="#f2f5e9" fill-opacity="0.5" stroke="#606060" stroke-width=".5" x="0" y="0" width="60" height="60"/>
                <use id="zoomplus" xlink:href="#zoomPlus" x="17" y="9" onmousedown="handleZoom(evt,'in')"/>
                <use id="zoomminus" xlink:href="#zoomMin" x="42" y="9" onmousedown="handleZoom(evt,'out')"/>
                <use id="reset" xlink:href="#resetDef" x="30" y="36" onmousedown="handleReset()"/>
                <g id="arrowUp" xlink:href="#dirArrow" transform="translate(30 24)" onmousedown="handlePan(0,-1)">
                  <use xlink:href="#rim" fill="#404040">
                        <set attributeName="fill" to="#808080" begin="arrowUp.mouseover" end="arrowUp.mouseout"/>
                  </use>
                  <path fill="none" stroke="white" stroke-width="1.5" d="M0,-3.0v7 M-2.5,-0.5L0,-3.0L2.5,-0.5"/>
                </g>
                <g id="arrowRight" xlink:href="#dirArrow" transform="rotate(90) translate(36 -43)" onmousedown="handlePan(1,0)">
                  <use xlink:href="#rim" fill="#404040">
                        <set attributeName="fill" to="#808080" begin="arrowRight.mouseover" end="arrowRight.mouseout"/>
                  </use>
                  <path fill="none" stroke="white" stroke-width="1.5" d="M0,-3.0v7 M-2.5,-0.5L0,-3.0L2.5,-0.5"/>
                </g>
                <g id="arrowDown" xlink:href="#dirArrow" transform="rotate(180) translate(-30 -48)" onmousedown="handlePan(0,1)">
                  <use xlink:href="#rim" fill="#404040">
                        <set attributeName="fill" to="#808080" begin="arrowDown.mouseover" end="arrowDown.mouseout"/>
                  </use>
                  <path fill="none" stroke="white" stroke-width="1.5" d="M0,-3.0v7 M-2.5,-0.5L0,-3.0L2.5,-0.5"/>
                </g>
                <g id="arrowLeft" xlink:href="#dirArrow" transform="rotate(270) translate(-36 17)" onmousedown="handlePan(-1,0)">
                  <use xlink:href="#rim" fill="#404040">
                        <set attributeName="fill" to="#808080" begin="arrowLeft.mouseover" end="arrowLeft.mouseout"/>
                  </use>
                  <path fill="none" stroke="white" stroke-width="1.5" d="M0,-3.0v7 M-2.5,-0.5L0,-3.0L2.5,-0.5"/>
                </g>
        </g>
        <svg viewBox="0 0 15 15" width="100%" height="30px" preserveAspectRatio="xMaxYMin meet">
         <g id="arrow_out" transform="scale(0.3 0.3)">
          <a xlink:href="d__event__manager_8h__incl_org.svg" target="_base">
           <rect id="button" ry="5" rx="5" y="6" x="6" height="38" width="38"
                fill="#f2f5e9" fill-opacity="0.5" stroke="#606060" stroke-width="1.0"/>
           <path id="arrow"
             d="M 11.500037,31.436501 C 11.940474,20.09759 22.043105,11.32322 32.158766,21.979434 L 37.068811,17.246167 C 37.068811,17.246167 37.088388,32 37.088388,32 L 22.160133,31.978069 C 22.160133,31.978069 26.997745,27.140456 26.997745,27.140456 C 18.528582,18.264221 13.291696,25.230495 11.500037,31.436501 z"
             style="fill:#404040;"/>
          </a>
         </g>
        </svg>
</svg>
