<?xml version="1.0" encoding="UTF-8" standalone="no"?>
<!DOCTYPE svg PUBLIC "-//W3C//DTD SVG 1.1//EN"
 "http://www.w3.org/Graphics/SVG/1.1/DTD/svg11.dtd">
<!-- Generated by graphviz version 2.44.0 ()
 -->
<!-- Title: include/d/event/d_event_data.h Pages: 1 -->
<!--zoomable 710 -->
<svg id="main" version="1.1" xmlns="http://www.w3.org/2000/svg" xmlns:xlink="http://www.w3.org/1999/xlink" xml:space="preserve" onload="init(evt)">
<style type="text/css"><![CDATA[
.edge:hover path { stroke: red; }
.edge:hover polygon { stroke: red; fill: red; }
]]></style>
<script type="text/javascript"><![CDATA[
var edges = document.getElementsByTagName('g');
if (edges && edges.length) {
  for (var i=0;i<edges.length;i++) {
    if (edges[i].id.substr(0,4)=='edge') {
      edges[i].setAttribute('class','edge');
    }
  }
}
]]></script>
        <defs>
                <circle id="rim" cx="0" cy="0" r="7"/>
                <circle id="rim2" cx="0" cy="0" r="3.5"/>
                <g id="zoomPlus">
                        <use xlink:href="#rim" fill="#404040">
                                <set attributeName="fill" to="#808080" begin="zoomplus.mouseover" end="zoomplus.mouseout"/>
                        </use>
                        <path d="M-4,0h8M0,-4v8" fill="none" stroke="white" stroke-width="1.5" pointer-events="none"/>
                </g>
                <g id="zoomMin">
                        <use xlink:href="#rim" fill="#404040">
                                <set attributeName="fill" to="#808080" begin="zoomminus.mouseover" end="zoomminus.mouseout"/>
                        </use>
                        <path d="M-4,0h8" fill="none" stroke="white" stroke-width="1.5" pointer-events="none"/>
                </g>
                <g id="dirArrow">
                        <path fill="none" stroke="white" stroke-width="1.5" d="M0,-3.0v7 M-2.5,-0.5L0,-3.0L2.5,-0.5"/>
                </g>
               <g id="resetDef">
                       <use xlink:href="#rim2" fill="#404040">
                               <set attributeName="fill" to="#808080" begin="reset.mouseover" end="reset.mouseout"/>
                       </use>
               </g>
        </defs>

<script type="text/javascript">
var viewWidth = 1541;
var viewHeight = 710;
var sectionId = 'dynsection-0';
</script>
<script xlink:href="svgpan.js"/>
<svg id="graph" class="graph">
<g id="viewport">
<title>include/d/event/d_event_data.h</title>
<polygon fill="white" stroke="transparent" points="-4,4 -4,-706 1536.5,-706 1536.5,4 -4,4"/>
<!-- Node1 -->
<g id="node1" class="node">
<title>Node1</title>
<g id="a_node1"><a xlink:title=" ">
<polygon fill="#bfbfbf" stroke="black" points="1345.5,-671.5 1345.5,-701.5 1465.5,-701.5 1465.5,-671.5 1345.5,-671.5"/>
<text text-anchor="start" x="1353.5" y="-689.5" font-family="Helvetica,sans-Serif" font-size="10.00">include/d/event/d_event</text>
<text text-anchor="middle" x="1405.5" y="-678.5" font-family="Helvetica,sans-Serif" font-size="10.00">_data.h</text>
</a>
</g>
</g>
<!-- Node2 -->
<g id="node2" class="node">
<title>Node2</title>
<g id="a_node2"><a xlink:href="d__stage_8h.html" target="_top" xlink:title=" ">
<polygon fill="white" stroke="black" points="1372,-615.5 1372,-634.5 1439,-634.5 1439,-615.5 1372,-615.5"/>
<text text-anchor="middle" x="1405.5" y="-622.5" font-family="Helvetica,sans-Serif" font-size="10.00">d/d_stage.h</text>
</a>
</g>
</g>
<!-- Node1&#45;&gt;Node2 -->
<g id="edge1" class="edge">
<title>Node1&#45;&gt;Node2</title>
<path fill="none" stroke="midnightblue" d="M1405.5,-671.4C1405.5,-663.47 1405.5,-653.46 1405.5,-644.86"/>
<polygon fill="midnightblue" stroke="midnightblue" points="1409,-644.66 1405.5,-634.66 1402,-644.66 1409,-644.66"/>
</g>
<!-- Node3 -->
<g id="node3" class="node">
<title>Node3</title>
<g id="a_node3"><a xlink:href="d__save_8h.html" target="_top" xlink:title=" ">
<polygon fill="white" stroke="black" points="1304.5,-503.5 1304.5,-522.5 1392.5,-522.5 1392.5,-503.5 1304.5,-503.5"/>
<text text-anchor="middle" x="1348.5" y="-510.5" font-family="Helvetica,sans-Serif" font-size="10.00">d/save/d_save.h</text>
</a>
</g>
</g>
<!-- Node1&#45;&gt;Node3 -->
<g id="edge73" class="edge">
<title>Node1&#45;&gt;Node3</title>
<path fill="none" stroke="midnightblue" d="M1389.27,-671.24C1379.81,-661.93 1368.56,-648.94 1362.5,-635 1347.79,-601.18 1346.63,-557.29 1347.38,-532.74"/>
<polygon fill="midnightblue" stroke="midnightblue" points="1350.88,-532.8 1347.83,-522.65 1343.88,-532.48 1350.88,-532.8"/>
</g>
<!-- Node6 -->
<g id="node6" class="node">
<title>Node6</title>
<g id="a_node6"><a xlink:href="types_8h.html" target="_top" xlink:title=" ">
<polygon fill="white" stroke="black" points="747,-0.5 747,-19.5 828,-19.5 828,-0.5 747,-0.5"/>
<text text-anchor="middle" x="787.5" y="-7.5" font-family="Helvetica,sans-Serif" font-size="10.00">dolphin/types.h</text>
</a>
</g>
</g>
<!-- Node1&#45;&gt;Node6 -->
<g id="edge74" class="edge">
<title>Node1&#45;&gt;Node6</title>
<path fill="none" stroke="midnightblue" d="M1440.88,-671.37C1478.45,-653.76 1532.5,-619.77 1532.5,-570 1532.5,-570 1532.5,-570 1532.5,-137.5 1532.5,-89.75 1505.2,-77.36 1462.5,-56 1407.17,-28.32 985.7,-15.72 838.24,-12.13"/>
<polygon fill="midnightblue" stroke="midnightblue" points="838.19,-8.63 828.11,-11.89 838.02,-15.62 838.19,-8.63"/>
</g>
<!-- Node2&#45;&gt;Node3 -->
<g id="edge2" class="edge">
<title>Node2&#45;&gt;Node3</title>
<path fill="none" stroke="midnightblue" d="M1400.31,-615.49C1394.91,-606.52 1386.31,-591.93 1379.5,-579 1371.23,-563.29 1362.59,-545 1356.54,-531.83"/>
<polygon fill="midnightblue" stroke="midnightblue" points="1359.63,-530.17 1352.3,-522.52 1353.26,-533.07 1359.63,-530.17"/>
</g>
<!-- Node2&#45;&gt;Node6 -->
<g id="edge9" class="edge">
<title>Node2&#45;&gt;Node6</title>
<path fill="none" stroke="midnightblue" d="M1426.49,-615.42C1442.17,-607.99 1462.96,-595.78 1475.5,-579 1493.52,-554.89 1494.5,-544.1 1494.5,-514 1494.5,-514 1494.5,-514 1494.5,-137.5 1494.5,-88.87 1465.17,-77.4 1421.5,-56 1369.72,-30.63 979.84,-16.69 838.49,-12.43"/>
<polygon fill="midnightblue" stroke="midnightblue" points="838.45,-8.92 828.35,-12.13 838.24,-15.92 838.45,-8.92"/>
</g>
<!-- Node8 -->
<g id="node8" class="node">
<title>Node8</title>
<g id="a_node8"><a xlink:href="f__op__actor_8h.html" target="_top" xlink:title=" ">
<polygon fill="white" stroke="black" points="1107.5,-559.5 1107.5,-578.5 1199.5,-578.5 1199.5,-559.5 1107.5,-559.5"/>
<text text-anchor="middle" x="1153.5" y="-566.5" font-family="Helvetica,sans-Serif" font-size="10.00">f_op/f_op_actor.h</text>
</a>
</g>
</g>
<!-- Node2&#45;&gt;Node8 -->
<g id="edge10" class="edge">
<title>Node2&#45;&gt;Node8</title>
<path fill="none" stroke="midnightblue" d="M1371.78,-616.77C1328.49,-607.5 1253.03,-591.33 1203.17,-580.64"/>
<polygon fill="midnightblue" stroke="midnightblue" points="1203.76,-577.19 1193.25,-578.52 1202.29,-584.04 1203.76,-577.19"/>
</g>
<!-- Node30 -->
<g id="node30" class="node">
<title>Node30</title>
<g id="a_node30"><a xlink:href="msl__c_2string_8h.html" target="_top" xlink:title=" ">
<polygon fill="white" stroke="black" points="1389,-559.5 1389,-578.5 1466,-578.5 1466,-559.5 1389,-559.5"/>
<text text-anchor="middle" x="1427.5" y="-566.5" font-family="Helvetica,sans-Serif" font-size="10.00">msl_c/string.h</text>
</a>
</g>
</g>
<!-- Node2&#45;&gt;Node30 -->
<g id="edge71" class="edge">
<title>Node2&#45;&gt;Node30</title>
<path fill="none" stroke="midnightblue" d="M1409.13,-615.08C1412.11,-607.77 1416.43,-597.18 1420.12,-588.1"/>
<polygon fill="midnightblue" stroke="midnightblue" points="1423.4,-589.33 1423.93,-578.75 1416.92,-586.69 1423.4,-589.33"/>
</g>
<!-- Node4 -->
<g id="node4" class="node">
<title>Node4</title>
<g id="a_node4"><a xlink:href="c__xyz_8h.html" target="_top" xlink:title=" ">
<polygon fill="white" stroke="black" points="1084.5,-123.5 1084.5,-153.5 1200.5,-153.5 1200.5,-123.5 1084.5,-123.5"/>
<text text-anchor="start" x="1092.5" y="-141.5" font-family="Helvetica,sans-Serif" font-size="10.00">SSystem/SComponent</text>
<text text-anchor="middle" x="1142.5" y="-130.5" font-family="Helvetica,sans-Serif" font-size="10.00">/c_xyz.h</text>
</a>
</g>
</g>
<!-- Node3&#45;&gt;Node4 -->
<g id="edge3" class="edge">
<title>Node3&#45;&gt;Node4</title>
<path fill="none" stroke="midnightblue" d="M1345.68,-503.45C1332.66,-464.71 1275.5,-302.72 1194.5,-190 1186.81,-179.3 1176.72,-168.91 1167.47,-160.36"/>
<polygon fill="midnightblue" stroke="midnightblue" points="1169.75,-157.71 1159.97,-153.65 1165.08,-162.92 1169.75,-157.71"/>
</g>
<!-- Node3&#45;&gt;Node6 -->
<g id="edge8" class="edge">
<title>Node3&#45;&gt;Node6</title>
<path fill="none" stroke="midnightblue" d="M1357.94,-503.3C1377.05,-484.69 1418.5,-438.81 1418.5,-391 1418.5,-391 1418.5,-391 1418.5,-137.5 1418.5,-85.48 1381.86,-77.5 1334.5,-56 1246.81,-16.19 956.53,-11.19 838.29,-10.85"/>
<polygon fill="midnightblue" stroke="midnightblue" points="838.07,-7.35 828.06,-10.83 838.06,-14.35 838.07,-7.35"/>
</g>
<!-- Node5 -->
<g id="node5" class="node">
<title>Node5</title>
<g id="a_node5"><a xlink:href="vec_8h.html" target="_top" xlink:title=" ">
<polygon fill="white" stroke="black" points="1167.5,-62 1167.5,-81 1259.5,-81 1259.5,-62 1167.5,-62"/>
<text text-anchor="middle" x="1213.5" y="-69" font-family="Helvetica,sans-Serif" font-size="10.00">dolphin/mtx/vec.h</text>
</a>
</g>
</g>
<!-- Node4&#45;&gt;Node5 -->
<g id="edge4" class="edge">
<title>Node4&#45;&gt;Node5</title>
<path fill="none" stroke="midnightblue" d="M1157.91,-123.4C1169.31,-112.96 1184.83,-98.75 1196.57,-88"/>
<polygon fill="midnightblue" stroke="midnightblue" points="1198.99,-90.53 1204,-81.19 1194.26,-85.37 1198.99,-90.53"/>
</g>
<!-- Node7 -->
<g id="node7" class="node">
<title>Node7</title>
<g id="a_node7"><a xlink:href="global_8h.html" target="_top" xlink:title=" ">
<polygon fill="white" stroke="black" points="1092.5,-62 1092.5,-81 1142.5,-81 1142.5,-62 1092.5,-62"/>
<text text-anchor="middle" x="1117.5" y="-69" font-family="Helvetica,sans-Serif" font-size="10.00">global.h</text>
</a>
</g>
</g>
<!-- Node4&#45;&gt;Node7 -->
<g id="edge6" class="edge">
<title>Node4&#45;&gt;Node7</title>
<path fill="none" stroke="midnightblue" d="M1137.08,-123.4C1133.37,-113.76 1128.43,-100.91 1124.44,-90.54"/>
<polygon fill="midnightblue" stroke="midnightblue" points="1127.7,-89.27 1120.84,-81.19 1121.17,-91.78 1127.7,-89.27"/>
</g>
<!-- Node5&#45;&gt;Node6 -->
<g id="edge5" class="edge">
<title>Node5&#45;&gt;Node6</title>
<path fill="none" stroke="midnightblue" d="M1179.85,-61.94C1170.69,-59.8 1160.75,-57.65 1151.5,-56 1040.59,-36.23 909.13,-22.3 838.5,-15.57"/>
<polygon fill="midnightblue" stroke="midnightblue" points="838.39,-12.05 828.11,-14.59 837.74,-19.02 838.39,-12.05"/>
</g>
<!-- Node7&#45;&gt;Node6 -->
<g id="edge7" class="edge">
<title>Node7&#45;&gt;Node6</title>
<path fill="none" stroke="midnightblue" d="M1092.31,-62.01C1085.3,-59.85 1077.65,-57.66 1070.5,-56 990.21,-37.33 895.31,-23.98 838.34,-16.88"/>
<polygon fill="midnightblue" stroke="midnightblue" points="838.5,-13.37 828.15,-15.63 837.65,-20.32 838.5,-13.37"/>
</g>
<!-- Node8&#45;&gt;Node4 -->
<g id="edge13" class="edge">
<title>Node8&#45;&gt;Node4</title>
<path fill="none" stroke="midnightblue" d="M1156.92,-559.47C1164.18,-540.54 1180.5,-493.48 1180.5,-452.5 1180.5,-452.5 1180.5,-452.5 1180.5,-271.5 1180.5,-232.34 1164.87,-189.11 1153.65,-163.14"/>
<polygon fill="midnightblue" stroke="midnightblue" points="1156.74,-161.47 1149.47,-153.76 1150.35,-164.32 1156.74,-161.47"/>
</g>
<!-- Node9 -->
<g id="node9" class="node">
<title>Node9</title>
<g id="a_node9"><a xlink:href="c__sxyz_8h.html" target="_top" xlink:title=" ">
<polygon fill="white" stroke="black" points="942.5,-436.5 942.5,-466.5 1058.5,-466.5 1058.5,-436.5 942.5,-436.5"/>
<text text-anchor="start" x="950.5" y="-454.5" font-family="Helvetica,sans-Serif" font-size="10.00">SSystem/SComponent</text>
<text text-anchor="middle" x="1000.5" y="-443.5" font-family="Helvetica,sans-Serif" font-size="10.00">/c_sxyz.h</text>
</a>
</g>
</g>
<!-- Node8&#45;&gt;Node9 -->
<g id="edge11" class="edge">
<title>Node8&#45;&gt;Node9</title>
<path fill="none" stroke="midnightblue" d="M1142,-559.32C1117.78,-541.04 1060.98,-498.16 1027.17,-472.64"/>
<polygon fill="midnightblue" stroke="midnightblue" points="1029.2,-469.78 1019.11,-466.55 1024.98,-475.36 1029.2,-469.78"/>
</g>
<!-- Node10 -->
<g id="node10" class="node">
<title>Node10</title>
<g id="a_node10"><a xlink:href="d__kankyo_8h.html" target="_top" xlink:title=" ">
<polygon fill="white" stroke="black" points="999,-263 999,-282 1106,-282 1106,-263 999,-263"/>
<text text-anchor="middle" x="1052.5" y="-270" font-family="Helvetica,sans-Serif" font-size="10.00">d/kankyo/d_kankyo.h</text>
</a>
</g>
</g>
<!-- Node8&#45;&gt;Node10 -->
<g id="edge14" class="edge">
<title>Node8&#45;&gt;Node10</title>
<path fill="none" stroke="midnightblue" d="M1149.95,-559.48C1142.42,-540.58 1125.5,-493.56 1125.5,-452.5 1125.5,-452.5 1125.5,-452.5 1125.5,-389 1125.5,-347.98 1092.2,-309.68 1070.58,-289.14"/>
<polygon fill="midnightblue" stroke="midnightblue" points="1072.7,-286.34 1062.96,-282.17 1067.97,-291.5 1072.7,-286.34"/>
</g>
<!-- Node13 -->
<g id="node13" class="node">
<title>Node13</title>
<g id="a_node13"><a xlink:href="mtx_8h.html" target="_top" xlink:title=" ">
<polygon fill="white" stroke="black" points="1255.5,-196 1255.5,-215 1347.5,-215 1347.5,-196 1255.5,-196"/>
<text text-anchor="middle" x="1301.5" y="-203" font-family="Helvetica,sans-Serif" font-size="10.00">dolphin/mtx/mtx.h</text>
</a>
</g>
</g>
<!-- Node8&#45;&gt;Node13 -->
<g id="edge23" class="edge">
<title>Node8&#45;&gt;Node13</title>
<path fill="none" stroke="midnightblue" d="M1170.53,-559.5C1200.49,-543.19 1259.5,-504.48 1259.5,-452.5 1259.5,-452.5 1259.5,-452.5 1259.5,-389 1259.5,-327.37 1282.53,-256.94 1294.48,-224.54"/>
<polygon fill="midnightblue" stroke="midnightblue" points="1297.8,-225.67 1298.06,-215.08 1291.25,-223.19 1297.8,-225.67"/>
</g>
<!-- Node15 -->
<g id="node15" class="node">
<title>Node15</title>
<g id="a_node15"><a xlink:href="f__pc__leaf_8h.html" target="_top" xlink:title=" ">
<polygon fill="white" stroke="black" points="414.5,-503.5 414.5,-522.5 500.5,-522.5 500.5,-503.5 414.5,-503.5"/>
<text text-anchor="middle" x="457.5" y="-510.5" font-family="Helvetica,sans-Serif" font-size="10.00">f_pc/f_pc_leaf.h</text>
</a>
</g>
</g>
<!-- Node8&#45;&gt;Node15 -->
<g id="edge29" class="edge">
<title>Node8&#45;&gt;Node15</title>
<path fill="none" stroke="midnightblue" d="M1107.29,-564.42C983.14,-554.78 642.81,-528.38 510.81,-518.14"/>
<polygon fill="midnightblue" stroke="midnightblue" points="510.79,-514.62 500.55,-517.34 510.25,-521.6 510.79,-514.62"/>
</g>
<!-- Node9&#45;&gt;Node6 -->
<g id="edge12" class="edge">
<title>Node9&#45;&gt;Node6</title>
<path fill="none" stroke="midnightblue" d="M995.27,-436.36C975.68,-384.1 903.52,-197.57 820.5,-56 814.74,-46.18 807.32,-35.9 800.97,-27.64"/>
<polygon fill="midnightblue" stroke="midnightblue" points="803.57,-25.29 794.63,-19.6 798.07,-29.62 803.57,-25.29"/>
</g>
<!-- Node10&#45;&gt;Node4 -->
<g id="edge20" class="edge">
<title>Node10&#45;&gt;Node4</title>
<path fill="none" stroke="midnightblue" d="M1071.47,-262.89C1087.77,-254.5 1110.61,-240.22 1123.5,-221 1134.85,-204.07 1139.47,-181.23 1141.32,-164.03"/>
<polygon fill="midnightblue" stroke="midnightblue" points="1144.84,-163.92 1142.18,-153.66 1137.87,-163.34 1144.84,-163.92"/>
</g>
<!-- Node10&#45;&gt;Node6 -->
<g id="edge22" class="edge">
<title>Node10&#45;&gt;Node6</title>
<path fill="none" stroke="midnightblue" d="M1035.06,-262.84C1017.27,-253.62 989.26,-238.04 967.5,-221 934.59,-195.22 924.95,-188.6 901.5,-154 874.81,-114.63 889.49,-92.08 858.5,-56 846.96,-42.56 830.39,-31.75 816.17,-24.09"/>
<polygon fill="midnightblue" stroke="midnightblue" points="817.73,-20.96 807.23,-19.52 814.54,-27.19 817.73,-20.96"/>
</g>
<!-- Node11 -->
<g id="node11" class="node">
<title>Node11</title>
<g id="a_node11"><a xlink:href="J3DStruct_8h.html" target="_top" xlink:title=" ">
<polygon fill="white" stroke="black" points="990.5,-190.5 990.5,-220.5 1114.5,-220.5 1114.5,-190.5 990.5,-190.5"/>
<text text-anchor="start" x="998.5" y="-208.5" font-family="Helvetica,sans-Serif" font-size="10.00">JSystem/J3DGraphBase</text>
<text text-anchor="middle" x="1052.5" y="-197.5" font-family="Helvetica,sans-Serif" font-size="10.00">/J3DStruct.h</text>
</a>
</g>
</g>
<!-- Node10&#45;&gt;Node11 -->
<g id="edge15" class="edge">
<title>Node10&#45;&gt;Node11</title>
<path fill="none" stroke="midnightblue" d="M1052.5,-262.73C1052.5,-254.54 1052.5,-241.92 1052.5,-230.71"/>
<polygon fill="midnightblue" stroke="midnightblue" points="1056,-230.59 1052.5,-220.59 1049,-230.59 1056,-230.59"/>
</g>
<!-- Node12 -->
<g id="node12" class="node">
<title>Node12</title>
<g id="a_node12"><a xlink:href="GXTexture_8h.html" target="_top" xlink:title=" ">
<polygon fill="white" stroke="black" points="911,-129 911,-148 1028,-148 1028,-129 911,-129"/>
<text text-anchor="middle" x="969.5" y="-136" font-family="Helvetica,sans-Serif" font-size="10.00">dolphin/gx/GXTexture.h</text>
</a>
</g>
</g>
<!-- Node10&#45;&gt;Node12 -->
<g id="edge21" class="edge">
<title>Node10&#45;&gt;Node12</title>
<path fill="none" stroke="midnightblue" d="M1032.81,-262.98C1016.28,-254.74 993.51,-240.61 981.5,-221 969.8,-201.89 967.93,-175.64 968.23,-158.15"/>
<polygon fill="midnightblue" stroke="midnightblue" points="971.73,-158.23 968.67,-148.09 964.74,-157.93 971.73,-158.23"/>
</g>
<!-- Node11&#45;&gt;Node4 -->
<g id="edge16" class="edge">
<title>Node11&#45;&gt;Node4</title>
<path fill="none" stroke="midnightblue" d="M1072.03,-190.4C1084.53,-181.37 1100.94,-169.51 1114.78,-159.52"/>
<polygon fill="midnightblue" stroke="midnightblue" points="1116.95,-162.27 1123.01,-153.58 1112.85,-156.59 1116.95,-162.27"/>
</g>
<!-- Node11&#45;&gt;Node6 -->
<g id="edge19" class="edge">
<title>Node11&#45;&gt;Node6</title>
<path fill="none" stroke="midnightblue" d="M1053.03,-190.21C1052.98,-172.82 1050.56,-143.26 1036.5,-123 990.86,-57.25 897.09,-29.51 838.55,-18.24"/>
<polygon fill="midnightblue" stroke="midnightblue" points="838.86,-14.74 828.4,-16.38 837.61,-21.63 838.86,-14.74"/>
</g>
<!-- Node11&#45;&gt;Node12 -->
<g id="edge17" class="edge">
<title>Node11&#45;&gt;Node12</title>
<path fill="none" stroke="midnightblue" d="M1034.49,-190.4C1020.91,-179.76 1002.32,-165.2 988.5,-154.38"/>
<polygon fill="midnightblue" stroke="midnightblue" points="990.63,-151.6 980.6,-148.19 986.32,-157.12 990.63,-151.6"/>
</g>
<!-- Node12&#45;&gt;Node6 -->
<g id="edge18" class="edge">
<title>Node12&#45;&gt;Node6</title>
<path fill="none" stroke="midnightblue" d="M963.68,-128.72C952.45,-112.38 926.27,-77.07 896.5,-56 875.63,-41.23 849.19,-30.16 827.57,-22.7"/>
<polygon fill="midnightblue" stroke="midnightblue" points="828.61,-19.36 818.02,-19.52 826.4,-26 828.61,-19.36"/>
</g>
<!-- Node13&#45;&gt;Node5 -->
<g id="edge27" class="edge">
<title>Node13&#45;&gt;Node5</title>
<path fill="none" stroke="midnightblue" d="M1289.8,-195.98C1277.84,-186.77 1259.36,-171.08 1247.5,-154 1233.87,-134.37 1224.23,-108.44 1218.78,-91.15"/>
<polygon fill="midnightblue" stroke="midnightblue" points="1222.02,-89.76 1215.8,-81.19 1215.31,-91.77 1222.02,-89.76"/>
</g>
<!-- Node13&#45;&gt;Node6 -->
<g id="edge28" class="edge">
<title>Node13&#45;&gt;Node6</title>
<path fill="none" stroke="midnightblue" d="M1317.72,-195.99C1331.98,-187.49 1351.76,-172.98 1360.5,-154 1382.46,-106.3 1341.99,-78.4 1294.5,-56 1214.57,-18.3 950.07,-12.04 838.18,-11.11"/>
<polygon fill="midnightblue" stroke="midnightblue" points="838.19,-7.61 828.16,-11.03 838.14,-14.61 838.19,-7.61"/>
</g>
<!-- Node14 -->
<g id="node14" class="node">
<title>Node14</title>
<g id="a_node14"><a xlink:href="quat_8h.html" target="_top" xlink:title=" ">
<polygon fill="white" stroke="black" points="1257,-129 1257,-148 1352,-148 1352,-129 1257,-129"/>
<text text-anchor="middle" x="1304.5" y="-136" font-family="Helvetica,sans-Serif" font-size="10.00">dolphin/mtx/quat.h</text>
</a>
</g>
</g>
<!-- Node13&#45;&gt;Node14 -->
<g id="edge24" class="edge">
<title>Node13&#45;&gt;Node14</title>
<path fill="none" stroke="midnightblue" d="M1301.9,-195.73C1302.35,-186.18 1303.06,-170.62 1303.63,-158.28"/>
<polygon fill="midnightblue" stroke="midnightblue" points="1307.14,-158.28 1304.1,-148.13 1300.14,-157.96 1307.14,-158.28"/>
</g>
<!-- Node14&#45;&gt;Node5 -->
<g id="edge25" class="edge">
<title>Node14&#45;&gt;Node5</title>
<path fill="none" stroke="midnightblue" d="M1292.23,-128.73C1277.35,-118.11 1252.07,-100.05 1234.17,-87.26"/>
<polygon fill="midnightblue" stroke="midnightblue" points="1235.75,-84.09 1225.58,-81.13 1231.68,-89.79 1235.75,-84.09"/>
</g>
<!-- Node14&#45;&gt;Node6 -->
<g id="edge26" class="edge">
<title>Node14&#45;&gt;Node6</title>
<path fill="none" stroke="midnightblue" d="M1303.51,-128.83C1301.05,-111.69 1292.98,-73.63 1268.5,-56 1234.14,-31.26 954.78,-17.55 838.25,-12.86"/>
<polygon fill="midnightblue" stroke="midnightblue" points="838.29,-9.36 828.16,-12.46 838.01,-16.36 838.29,-9.36"/>
</g>
<!-- Node15&#45;&gt;Node6 -->
<g id="edge30" class="edge">
<title>Node15&#45;&gt;Node6</title>
<path fill="none" stroke="midnightblue" d="M500.72,-508.98C586.93,-500.37 779.08,-467.53 861.5,-344 896.92,-290.9 820.23,-91.13 795.11,-29.33"/>
<polygon fill="midnightblue" stroke="midnightblue" points="798.21,-27.68 791.18,-19.75 791.74,-30.33 798.21,-27.68"/>
</g>
<!-- Node16 -->
<g id="node16" class="node">
<title>Node16</title>
<g id="a_node16"><a xlink:href="f__pc__base_8h.html" target="_top" xlink:title=" ">
<polygon fill="white" stroke="black" points="412,-442 412,-461 503,-461 503,-442 412,-442"/>
<text text-anchor="middle" x="457.5" y="-449" font-family="Helvetica,sans-Serif" font-size="10.00">f_pc/f_pc_base.h</text>
</a>
</g>
</g>
<!-- Node15&#45;&gt;Node16 -->
<g id="edge31" class="edge">
<title>Node15&#45;&gt;Node16</title>
<path fill="none" stroke="midnightblue" d="M457.5,-503.48C457.5,-495.08 457.5,-481.98 457.5,-471.16"/>
<polygon fill="midnightblue" stroke="midnightblue" points="461,-471.01 457.5,-461.01 454,-471.01 461,-471.01"/>
</g>
<!-- Node28 -->
<g id="node28" class="node">
<title>Node28</title>
<g id="a_node28"><a xlink:href="f__pc__method_8h.html" target="_top" xlink:title=" ">
<polygon fill="white" stroke="black" points="76.5,-324.5 76.5,-343.5 178.5,-343.5 178.5,-324.5 76.5,-324.5"/>
<text text-anchor="middle" x="127.5" y="-331.5" font-family="Helvetica,sans-Serif" font-size="10.00">f_pc/f_pc_method.h</text>
</a>
</g>
</g>
<!-- Node15&#45;&gt;Node28 -->
<g id="edge70" class="edge">
<title>Node15&#45;&gt;Node28</title>
<path fill="none" stroke="midnightblue" d="M414.44,-512.85C338.48,-511.72 182.07,-497.01 111.5,-400 101.39,-386.1 108.3,-366.57 115.94,-352.55"/>
<polygon fill="midnightblue" stroke="midnightblue" points="119.01,-354.24 121.14,-343.87 113,-350.65 119.01,-354.24"/>
</g>
<!-- Node29 -->
<g id="node29" class="node">
<title>Node29</title>
<g id="a_node29"><a xlink:href="f__pc__draw__priority_8h.html" target="_top" xlink:title=" ">
<polygon fill="white" stroke="black" points="0,-263 0,-282 125,-282 125,-263 0,-263"/>
<text text-anchor="middle" x="62.5" y="-270" font-family="Helvetica,sans-Serif" font-size="10.00">f_pc/f_pc_draw_priority.h</text>
</a>
</g>
</g>
<!-- Node15&#45;&gt;Node29 -->
<g id="edge68" class="edge">
<title>Node15&#45;&gt;Node29</title>
<path fill="none" stroke="midnightblue" d="M414.27,-510.09C339.57,-506.07 190.11,-494.75 146.5,-467 91.69,-432.12 87.61,-405.78 67.5,-344 62.05,-327.24 61.14,-307.1 61.39,-292.65"/>
<polygon fill="midnightblue" stroke="midnightblue" points="64.9,-292.57 61.78,-282.44 57.9,-292.3 64.9,-292.57"/>
</g>
<!-- Node16&#45;&gt;Node6 -->
<g id="edge43" class="edge">
<title>Node16&#45;&gt;Node6</title>
<path fill="none" stroke="midnightblue" d="M411.74,-450.82C368.02,-448.63 303.08,-438.42 263.5,-400 241.9,-379.04 244.5,-365.1 244.5,-335 244.5,-335 244.5,-335 244.5,-137.5 244.5,-95.46 256.99,-78.49 292.5,-56 329.39,-32.64 617.34,-18.09 736.32,-13.02"/>
<polygon fill="midnightblue" stroke="midnightblue" points="736.78,-16.5 746.62,-12.59 736.49,-9.51 736.78,-16.5"/>
</g>
<!-- Node17 -->
<g id="node17" class="node">
<title>Node17</title>
<g id="a_node17"><a xlink:href="c__tag_8h.html" target="_top" xlink:title=" ">
<polygon fill="white" stroke="black" points="510.5,-257.5 510.5,-287.5 626.5,-287.5 626.5,-257.5 510.5,-257.5"/>
<text text-anchor="start" x="518.5" y="-275.5" font-family="Helvetica,sans-Serif" font-size="10.00">SSystem/SComponent</text>
<text text-anchor="middle" x="568.5" y="-264.5" font-family="Helvetica,sans-Serif" font-size="10.00">/c_tag.h</text>
</a>
</g>
</g>
<!-- Node16&#45;&gt;Node17 -->
<g id="edge32" class="edge">
<title>Node16&#45;&gt;Node17</title>
<path fill="none" stroke="midnightblue" d="M473.49,-441.9C488.36,-433.15 510.16,-418.31 523.5,-400 546.3,-368.71 558.46,-324.76 564.19,-297.76"/>
<polygon fill="midnightblue" stroke="midnightblue" points="567.68,-298.13 566.2,-287.64 560.82,-296.77 567.68,-298.13"/>
</g>
<!-- Node21 -->
<g id="node21" class="node">
<title>Node21</title>
<g id="a_node21"><a xlink:href="f__pc__delete__tag_8h.html" target="_top" xlink:title=" ">
<polygon fill="white" stroke="black" points="400,-380.5 400,-399.5 515,-399.5 515,-380.5 400,-380.5"/>
<text text-anchor="middle" x="457.5" y="-387.5" font-family="Helvetica,sans-Serif" font-size="10.00">f_pc/f_pc_delete_tag.h</text>
</a>
</g>
</g>
<!-- Node16&#45;&gt;Node21 -->
<g id="edge44" class="edge">
<title>Node16&#45;&gt;Node21</title>
<path fill="none" stroke="midnightblue" d="M457.5,-441.98C457.5,-433.58 457.5,-420.48 457.5,-409.66"/>
<polygon fill="midnightblue" stroke="midnightblue" points="461,-409.51 457.5,-399.51 454,-409.51 461,-409.51"/>
</g>
<!-- Node23 -->
<g id="node23" class="node">
<title>Node23</title>
<g id="a_node23"><a xlink:href="f__pc__layer__tag_8h.html" target="_top" xlink:title=" ">
<polygon fill="white" stroke="black" points="273,-380.5 273,-399.5 382,-399.5 382,-380.5 273,-380.5"/>
<text text-anchor="middle" x="327.5" y="-387.5" font-family="Helvetica,sans-Serif" font-size="10.00">f_pc/f_pc_layer_tag.h</text>
</a>
</g>
</g>
<!-- Node16&#45;&gt;Node23 -->
<g id="edge52" class="edge">
<title>Node16&#45;&gt;Node23</title>
<path fill="none" stroke="midnightblue" d="M438.87,-441.98C417.06,-431.99 380.7,-415.35 355.48,-403.81"/>
<polygon fill="midnightblue" stroke="midnightblue" points="356.64,-400.49 346.09,-399.51 353.73,-406.85 356.64,-400.49"/>
</g>
<!-- Node24 -->
<g id="node24" class="node">
<title>Node24</title>
<g id="a_node24"><a xlink:href="f__pc__line__tag_8h.html" target="_top" xlink:title=" ">
<polygon fill="white" stroke="black" points="748.5,-324.5 748.5,-343.5 852.5,-343.5 852.5,-324.5 748.5,-324.5"/>
<text text-anchor="middle" x="800.5" y="-331.5" font-family="Helvetica,sans-Serif" font-size="10.00">f_pc/f_pc_line_tag.h</text>
</a>
</g>
</g>
<!-- Node16&#45;&gt;Node24 -->
<g id="edge56" class="edge">
<title>Node16&#45;&gt;Node24</title>
<path fill="none" stroke="midnightblue" d="M503.39,-443.66C548.82,-436.06 619.87,-421.87 678.5,-400 715.22,-386.3 754.74,-363.62 778.55,-349"/>
<polygon fill="midnightblue" stroke="midnightblue" points="780.51,-351.9 787.15,-343.64 776.81,-345.96 780.51,-351.9"/>
</g>
<!-- Node25 -->
<g id="node25" class="node">
<title>Node25</title>
<g id="a_node25"><a xlink:href="f__pc__priority_8h.html" target="_top" xlink:title=" ">
<polygon fill="white" stroke="black" points="571.5,-380.5 571.5,-399.5 669.5,-399.5 669.5,-380.5 571.5,-380.5"/>
<text text-anchor="middle" x="620.5" y="-387.5" font-family="Helvetica,sans-Serif" font-size="10.00">f_pc/f_pc_priority.h</text>
</a>
</g>
</g>
<!-- Node16&#45;&gt;Node25 -->
<g id="edge59" class="edge">
<title>Node16&#45;&gt;Node25</title>
<path fill="none" stroke="midnightblue" d="M480.85,-441.98C508.81,-431.77 555.83,-414.61 587.49,-403.05"/>
<polygon fill="midnightblue" stroke="midnightblue" points="589,-406.23 597.19,-399.51 586.6,-399.65 589,-406.23"/>
</g>
<!-- Node27 -->
<g id="node27" class="node">
<title>Node27</title>
<g id="a_node27"><a xlink:href="f__pc__profile_8h.html" target="_top" xlink:title=" ">
<polygon fill="white" stroke="black" points="121,-380.5 121,-399.5 216,-399.5 216,-380.5 121,-380.5"/>
<text text-anchor="middle" x="168.5" y="-387.5" font-family="Helvetica,sans-Serif" font-size="10.00">f_pc/f_pc_profile.h</text>
</a>
</g>
</g>
<!-- Node16&#45;&gt;Node27 -->
<g id="edge64" class="edge">
<title>Node16&#45;&gt;Node27</title>
<path fill="none" stroke="midnightblue" d="M416.09,-441.98C364.37,-431.33 275.89,-413.11 219.89,-401.58"/>
<polygon fill="midnightblue" stroke="midnightblue" points="220.33,-398.1 209.83,-399.51 218.92,-404.95 220.33,-398.1"/>
</g>
<!-- Node17&#45;&gt;Node6 -->
<g id="edge42" class="edge">
<title>Node17&#45;&gt;Node6</title>
<path fill="none" stroke="midnightblue" d="M584.1,-257.18C606.23,-236.23 647.02,-195.19 673.5,-154 699.22,-113.99 685.51,-92.08 716.5,-56 728.04,-42.56 744.61,-31.75 758.83,-24.09"/>
<polygon fill="midnightblue" stroke="midnightblue" points="760.46,-27.19 767.77,-19.52 757.27,-20.96 760.46,-27.19"/>
</g>
<!-- Node18 -->
<g id="node18" class="node">
<title>Node18</title>
<g id="a_node18"><a xlink:href="c__list_8h.html" target="_top" xlink:title=" ">
<polygon fill="white" stroke="black" points="548.5,-123.5 548.5,-153.5 664.5,-153.5 664.5,-123.5 548.5,-123.5"/>
<text text-anchor="start" x="556.5" y="-141.5" font-family="Helvetica,sans-Serif" font-size="10.00">SSystem/SComponent</text>
<text text-anchor="middle" x="606.5" y="-130.5" font-family="Helvetica,sans-Serif" font-size="10.00">/c_list.h</text>
</a>
</g>
</g>
<!-- Node17&#45;&gt;Node18 -->
<g id="edge33" class="edge">
<title>Node17&#45;&gt;Node18</title>
<path fill="none" stroke="midnightblue" d="M572.57,-257.37C579.02,-234.94 591.7,-190.92 599.6,-163.49"/>
<polygon fill="midnightblue" stroke="midnightblue" points="603.06,-164.1 602.46,-153.52 596.33,-162.17 603.06,-164.1"/>
</g>
<!-- Node19 -->
<g id="node19" class="node">
<title>Node19</title>
<g id="a_node19"><a xlink:href="c__node_8h.html" target="_top" xlink:title=" ">
<polygon fill="white" stroke="black" points="462.5,-56.5 462.5,-86.5 578.5,-86.5 578.5,-56.5 462.5,-56.5"/>
<text text-anchor="start" x="470.5" y="-74.5" font-family="Helvetica,sans-Serif" font-size="10.00">SSystem/SComponent</text>
<text text-anchor="middle" x="520.5" y="-63.5" font-family="Helvetica,sans-Serif" font-size="10.00">/c_node.h</text>
</a>
</g>
</g>
<!-- Node17&#45;&gt;Node19 -->
<g id="edge37" class="edge">
<title>Node17&#45;&gt;Node19</title>
<path fill="none" stroke="midnightblue" d="M565.38,-257.32C561.76,-241.03 555.5,-213.51 549.5,-190 545.39,-173.91 543.61,-170.09 539.5,-154 534.58,-134.72 529.48,-112.73 525.81,-96.46"/>
<polygon fill="midnightblue" stroke="midnightblue" points="529.22,-95.67 523.62,-86.68 522.39,-97.2 529.22,-95.67"/>
</g>
<!-- Node20 -->
<g id="node20" class="node">
<title>Node20</title>
<g id="a_node20"><a xlink:href="c__tree_8h.html" target="_top" xlink:title=" ">
<polygon fill="white" stroke="black" points="424.5,-190.5 424.5,-220.5 540.5,-220.5 540.5,-190.5 424.5,-190.5"/>
<text text-anchor="start" x="432.5" y="-208.5" font-family="Helvetica,sans-Serif" font-size="10.00">SSystem/SComponent</text>
<text text-anchor="middle" x="482.5" y="-197.5" font-family="Helvetica,sans-Serif" font-size="10.00">/c_tree.h</text>
</a>
</g>
</g>
<!-- Node17&#45;&gt;Node20 -->
<g id="edge38" class="edge">
<title>Node17&#45;&gt;Node20</title>
<path fill="none" stroke="midnightblue" d="M549.84,-257.4C538.01,-248.45 522.51,-236.74 509.36,-226.8"/>
<polygon fill="midnightblue" stroke="midnightblue" points="511.21,-223.81 501.12,-220.58 506.99,-229.4 511.21,-223.81"/>
</g>
<!-- Node18&#45;&gt;Node6 -->
<g id="edge36" class="edge">
<title>Node18&#45;&gt;Node6</title>
<path fill="none" stroke="midnightblue" d="M615.91,-123.33C628.37,-105.51 651.9,-74.96 678.5,-56 699.17,-41.26 725.39,-30.24 746.94,-22.8"/>
<polygon fill="midnightblue" stroke="midnightblue" points="748.09,-26.11 756.47,-19.63 745.88,-19.46 748.09,-26.11"/>
</g>
<!-- Node18&#45;&gt;Node19 -->
<g id="edge34" class="edge">
<title>Node18&#45;&gt;Node19</title>
<path fill="none" stroke="midnightblue" d="M587.84,-123.4C576.01,-114.45 560.51,-102.74 547.36,-92.8"/>
<polygon fill="midnightblue" stroke="midnightblue" points="549.21,-89.81 539.12,-86.58 544.99,-95.4 549.21,-89.81"/>
</g>
<!-- Node19&#45;&gt;Node6 -->
<g id="edge35" class="edge">
<title>Node19&#45;&gt;Node6</title>
<path fill="none" stroke="midnightblue" d="M578.76,-57.52C626.84,-46.8 694.24,-31.78 739.31,-21.74"/>
<polygon fill="midnightblue" stroke="midnightblue" points="740.14,-25.14 749.14,-19.55 738.61,-18.31 740.14,-25.14"/>
</g>
<!-- Node20&#45;&gt;Node6 -->
<g id="edge41" class="edge">
<title>Node20&#45;&gt;Node6</title>
<path fill="none" stroke="midnightblue" d="M472.88,-190.24C454.61,-161.22 419.61,-94.76 453.5,-56 489.68,-14.61 652.71,-9.74 736.87,-10.07"/>
<polygon fill="midnightblue" stroke="midnightblue" points="736.95,-13.57 746.97,-10.14 736.99,-6.57 736.95,-13.57"/>
</g>
<!-- Node20&#45;&gt;Node18 -->
<g id="edge39" class="edge">
<title>Node20&#45;&gt;Node18</title>
<path fill="none" stroke="midnightblue" d="M509.41,-190.4C527.36,-180.98 551.17,-168.5 570.72,-158.26"/>
<polygon fill="midnightblue" stroke="midnightblue" points="572.41,-161.32 579.65,-153.58 569.16,-155.12 572.41,-161.32"/>
</g>
<!-- Node20&#45;&gt;Node19 -->
<g id="edge40" class="edge">
<title>Node20&#45;&gt;Node19</title>
<path fill="none" stroke="midnightblue" d="M486.57,-190.37C493.02,-167.94 505.7,-123.92 513.6,-96.49"/>
<polygon fill="midnightblue" stroke="midnightblue" points="517.06,-97.1 516.46,-86.52 510.33,-95.17 517.06,-97.1"/>
</g>
<!-- Node21&#45;&gt;Node6 -->
<g id="edge46" class="edge">
<title>Node21&#45;&gt;Node6</title>
<path fill="none" stroke="midnightblue" d="M406.13,-380.44C382.83,-374.07 356.7,-363.03 339.5,-344 317.74,-319.92 320.5,-305.95 320.5,-273.5 320.5,-273.5 320.5,-273.5 320.5,-137.5 320.5,-93.3 339.47,-78.53 377.5,-56 437.09,-20.69 640.74,-13.05 736.7,-11.42"/>
<polygon fill="midnightblue" stroke="midnightblue" points="736.81,-14.92 746.75,-11.27 736.7,-7.92 736.81,-14.92"/>
</g>
<!-- Node21&#45;&gt;Node17 -->
<g id="edge45" class="edge">
<title>Node21&#45;&gt;Node17</title>
<path fill="none" stroke="midnightblue" d="M465.84,-380.32C483.11,-362.35 523.23,-320.61 547.89,-294.95"/>
<polygon fill="midnightblue" stroke="midnightblue" points="550.6,-297.18 555,-287.55 545.55,-292.33 550.6,-297.18"/>
</g>
<!-- Node22 -->
<g id="node22" class="node">
<title>Node22</title>
<g id="a_node22"><a xlink:href="f__pc__layer_8h.html" target="_top" xlink:title=" ">
<polygon fill="white" stroke="black" points="348.5,-324.5 348.5,-343.5 438.5,-343.5 438.5,-324.5 348.5,-324.5"/>
<text text-anchor="middle" x="393.5" y="-331.5" font-family="Helvetica,sans-Serif" font-size="10.00">f_pc/f_pc_layer.h</text>
</a>
</g>
</g>
<!-- Node21&#45;&gt;Node22 -->
<g id="edge47" class="edge">
<title>Node21&#45;&gt;Node22</title>
<path fill="none" stroke="midnightblue" d="M447.22,-380.32C437.66,-372.26 423.22,-360.08 411.72,-350.37"/>
<polygon fill="midnightblue" stroke="midnightblue" points="413.87,-347.61 403.97,-343.83 409.36,-352.96 413.87,-347.61"/>
</g>
<!-- Node22&#45;&gt;Node6 -->
<g id="edge51" class="edge">
<title>Node22&#45;&gt;Node6</title>
<path fill="none" stroke="midnightblue" d="M389.35,-324.33C380.08,-304.16 358.5,-252.3 358.5,-206.5 358.5,-206.5 358.5,-206.5 358.5,-137.5 358.5,-87.36 391.74,-78.59 436.5,-56 487.97,-30.02 652.61,-17.95 736.83,-13.35"/>
<polygon fill="midnightblue" stroke="midnightblue" points="737.14,-16.84 746.94,-12.82 736.77,-9.85 737.14,-16.84"/>
</g>
<!-- Node22&#45;&gt;Node17 -->
<g id="edge49" class="edge">
<title>Node22&#45;&gt;Node17</title>
<path fill="none" stroke="midnightblue" d="M418.57,-324.48C444.27,-315.74 484.95,-301.91 517.46,-290.86"/>
<polygon fill="midnightblue" stroke="midnightblue" points="518.91,-294.06 527.26,-287.52 516.66,-287.43 518.91,-294.06"/>
</g>
<!-- Node22&#45;&gt;Node19 -->
<g id="edge48" class="edge">
<title>Node22&#45;&gt;Node19</title>
<path fill="none" stroke="midnightblue" d="M393.17,-324.46C392.62,-301.5 393.31,-237.02 415.5,-190 434.07,-150.66 470.08,-114.85 494.71,-93.37"/>
<polygon fill="midnightblue" stroke="midnightblue" points="497.25,-95.81 502.58,-86.65 492.7,-90.48 497.25,-95.81"/>
</g>
<!-- Node22&#45;&gt;Node20 -->
<g id="edge50" class="edge">
<title>Node22&#45;&gt;Node20</title>
<path fill="none" stroke="midnightblue" d="M399.62,-324.31C413.23,-304.96 446.38,-257.85 466.38,-229.41"/>
<polygon fill="midnightblue" stroke="midnightblue" points="469.49,-231.08 472.38,-220.89 463.76,-227.05 469.49,-231.08"/>
</g>
<!-- Node23&#45;&gt;Node6 -->
<g id="edge54" class="edge">
<title>Node23&#45;&gt;Node6</title>
<path fill="none" stroke="midnightblue" d="M321.62,-380.46C309.42,-361.9 282.5,-316.11 282.5,-273.5 282.5,-273.5 282.5,-273.5 282.5,-137.5 282.5,-94.77 297.19,-78.52 333.5,-56 399.71,-14.93 632.3,-10.41 736.43,-10.52"/>
<polygon fill="midnightblue" stroke="midnightblue" points="736.68,-14.02 746.69,-10.54 736.7,-7.02 736.68,-14.02"/>
</g>
<!-- Node23&#45;&gt;Node17 -->
<g id="edge53" class="edge">
<title>Node23&#45;&gt;Node17</title>
<path fill="none" stroke="midnightblue" d="M354.25,-380.42C378.92,-372.17 416.34,-358.79 447.5,-344 479.44,-328.84 514.14,-308.15 538.15,-293.11"/>
<polygon fill="midnightblue" stroke="midnightblue" points="540.22,-295.95 546.81,-287.65 536.48,-290.03 540.22,-295.95"/>
</g>
<!-- Node23&#45;&gt;Node22 -->
<g id="edge55" class="edge">
<title>Node23&#45;&gt;Node22</title>
<path fill="none" stroke="midnightblue" d="M338.1,-380.32C347.96,-372.26 362.85,-360.08 374.72,-350.37"/>
<polygon fill="midnightblue" stroke="midnightblue" points="377.18,-352.88 382.7,-343.83 372.75,-347.46 377.18,-352.88"/>
</g>
<!-- Node24&#45;&gt;Node6 -->
<g id="edge58" class="edge">
<title>Node24&#45;&gt;Node6</title>
<path fill="none" stroke="midnightblue" d="M796.7,-324.3C788.23,-304.05 768.5,-252.03 768.5,-206.5 768.5,-206.5 768.5,-206.5 768.5,-137.5 768.5,-98.77 777.32,-54.11 782.94,-29.57"/>
<polygon fill="midnightblue" stroke="midnightblue" points="786.42,-30.06 785.32,-19.52 779.61,-28.44 786.42,-30.06"/>
</g>
<!-- Node24&#45;&gt;Node17 -->
<g id="edge57" class="edge">
<title>Node24&#45;&gt;Node17</title>
<path fill="none" stroke="midnightblue" d="M767.26,-324.48C732.39,-315.53 676.7,-301.25 633.12,-290.07"/>
<polygon fill="midnightblue" stroke="midnightblue" points="633.73,-286.62 623.18,-287.52 631.99,-293.4 633.73,-286.62"/>
</g>
<!-- Node25&#45;&gt;Node17 -->
<g id="edge60" class="edge">
<title>Node25&#45;&gt;Node17</title>
<path fill="none" stroke="midnightblue" d="M616.42,-380.4C612.14,-371.36 605.26,-356.72 599.5,-344 592.4,-328.32 584.6,-310.58 578.6,-296.82"/>
<polygon fill="midnightblue" stroke="midnightblue" points="581.78,-295.36 574.58,-287.59 575.36,-298.15 581.78,-295.36"/>
</g>
<!-- Node26 -->
<g id="node26" class="node">
<title>Node26</title>
<g id="a_node26"><a xlink:href="f__pc__method__tag_8h.html" target="_top" xlink:title=" ">
<polygon fill="white" stroke="black" points="609,-324.5 609,-343.5 730,-343.5 730,-324.5 609,-324.5"/>
<text text-anchor="middle" x="669.5" y="-331.5" font-family="Helvetica,sans-Serif" font-size="10.00">f_pc/f_pc_method_tag.h</text>
</a>
</g>
</g>
<!-- Node25&#45;&gt;Node26 -->
<g id="edge61" class="edge">
<title>Node25&#45;&gt;Node26</title>
<path fill="none" stroke="midnightblue" d="M628.59,-380.08C635.66,-372.3 646.09,-360.8 654.65,-351.37"/>
<polygon fill="midnightblue" stroke="midnightblue" points="657.43,-353.51 661.56,-343.75 652.25,-348.8 657.43,-353.51"/>
</g>
<!-- Node26&#45;&gt;Node6 -->
<g id="edge63" class="edge">
<title>Node26&#45;&gt;Node6</title>
<path fill="none" stroke="midnightblue" d="M676.98,-324.49C693.27,-305.04 730.5,-255.26 730.5,-206.5 730.5,-206.5 730.5,-206.5 730.5,-137.5 730.5,-94.97 757.61,-50.93 774.44,-27.7"/>
<polygon fill="midnightblue" stroke="midnightblue" points="777.32,-29.7 780.51,-19.6 771.71,-25.5 777.32,-29.7"/>
</g>
<!-- Node26&#45;&gt;Node17 -->
<g id="edge62" class="edge">
<title>Node26&#45;&gt;Node17</title>
<path fill="none" stroke="midnightblue" d="M655.03,-324.48C641.09,-316.27 619.52,-303.56 601.4,-292.88"/>
<polygon fill="midnightblue" stroke="midnightblue" points="602.7,-289.58 592.3,-287.52 599.14,-295.61 602.7,-289.58"/>
</g>
<!-- Node27&#45;&gt;Node6 -->
<g id="edge65" class="edge">
<title>Node27&#45;&gt;Node6</title>
<path fill="none" stroke="midnightblue" d="M173.47,-380.34C183.77,-361.53 206.5,-315.3 206.5,-273.5 206.5,-273.5 206.5,-273.5 206.5,-137.5 206.5,-99.74 201.2,-79.82 230.5,-56 269.3,-24.46 606.86,-14.54 736.81,-11.87"/>
<polygon fill="midnightblue" stroke="midnightblue" points="736.97,-15.36 746.9,-11.67 736.83,-8.37 736.97,-15.36"/>
</g>
<!-- Node27&#45;&gt;Node28 -->
<g id="edge66" class="edge">
<title>Node27&#45;&gt;Node28</title>
<path fill="none" stroke="midnightblue" d="M161.73,-380.08C155.94,-372.46 147.44,-361.26 140.36,-351.94"/>
<polygon fill="midnightblue" stroke="midnightblue" points="142.98,-349.6 134.14,-343.75 137.4,-353.83 142.98,-349.6"/>
</g>
<!-- Node28&#45;&gt;Node6 -->
<g id="edge67" class="edge">
<title>Node28&#45;&gt;Node6</title>
<path fill="none" stroke="midnightblue" d="M131.42,-324.31C140.16,-304.09 160.5,-252.12 160.5,-206.5 160.5,-206.5 160.5,-206.5 160.5,-137.5 160.5,-98.59 161.2,-79.12 192.5,-56 235.8,-24.03 600.96,-14.31 736.84,-11.78"/>
<polygon fill="midnightblue" stroke="midnightblue" points="737.05,-15.28 746.98,-11.6 736.92,-8.28 737.05,-15.28"/>
</g>
<!-- Node29&#45;&gt;Node6 -->
<g id="edge69" class="edge">
<title>Node29&#45;&gt;Node6</title>
<path fill="none" stroke="midnightblue" d="M62.82,-262.56C64.56,-228.78 75.68,-108.14 146.5,-56 193.55,-21.36 592.91,-13.28 736.41,-11.49"/>
<polygon fill="midnightblue" stroke="midnightblue" points="736.73,-14.98 746.69,-11.36 736.65,-7.98 736.73,-14.98"/>
</g>
<!-- Node30&#45;&gt;Node6 -->
<g id="edge72" class="edge">
<title>Node30&#45;&gt;Node6</title>
<path fill="none" stroke="midnightblue" d="M1431.17,-559.49C1438.98,-540.61 1456.5,-493.64 1456.5,-452.5 1456.5,-452.5 1456.5,-452.5 1456.5,-137.5 1456.5,-87.67 1424.48,-77.44 1379.5,-56 1331.27,-33.01 972.8,-17.74 838.29,-12.77"/>
<polygon fill="midnightblue" stroke="midnightblue" points="838.37,-9.27 828.24,-12.4 838.11,-16.26 838.37,-9.27"/>
</g>
</g>
</svg>
        <g id="navigator" transform="translate(0 0)" fill="#404254">
                <rect fill="#f2f5e9" fill-opacity="0.5" stroke="#606060" stroke-width=".5" x="0" y="0" width="60" height="60"/>
                <use id="zoomplus" xlink:href="#zoomPlus" x="17" y="9" onmousedown="handleZoom(evt,'in')"/>
                <use id="zoomminus" xlink:href="#zoomMin" x="42" y="9" onmousedown="handleZoom(evt,'out')"/>
                <use id="reset" xlink:href="#resetDef" x="30" y="36" onmousedown="handleReset()"/>
                <g id="arrowUp" xlink:href="#dirArrow" transform="translate(30 24)" onmousedown="handlePan(0,-1)">
                  <use xlink:href="#rim" fill="#404040">
                        <set attributeName="fill" to="#808080" begin="arrowUp.mouseover" end="arrowUp.mouseout"/>
                  </use>
                  <path fill="none" stroke="white" stroke-width="1.5" d="M0,-3.0v7 M-2.5,-0.5L0,-3.0L2.5,-0.5"/>
                </g>
                <g id="arrowRight" xlink:href="#dirArrow" transform="rotate(90) translate(36 -43)" onmousedown="handlePan(1,0)">
                  <use xlink:href="#rim" fill="#404040">
                        <set attributeName="fill" to="#808080" begin="arrowRight.mouseover" end="arrowRight.mouseout"/>
                  </use>
                  <path fill="none" stroke="white" stroke-width="1.5" d="M0,-3.0v7 M-2.5,-0.5L0,-3.0L2.5,-0.5"/>
                </g>
                <g id="arrowDown" xlink:href="#dirArrow" transform="rotate(180) translate(-30 -48)" onmousedown="handlePan(0,1)">
                  <use xlink:href="#rim" fill="#404040">
                        <set attributeName="fill" to="#808080" begin="arrowDown.mouseover" end="arrowDown.mouseout"/>
                  </use>
                  <path fill="none" stroke="white" stroke-width="1.5" d="M0,-3.0v7 M-2.5,-0.5L0,-3.0L2.5,-0.5"/>
                </g>
                <g id="arrowLeft" xlink:href="#dirArrow" transform="rotate(270) translate(-36 17)" onmousedown="handlePan(-1,0)">
                  <use xlink:href="#rim" fill="#404040">
                        <set attributeName="fill" to="#808080" begin="arrowLeft.mouseover" end="arrowLeft.mouseout"/>
                  </use>
                  <path fill="none" stroke="white" stroke-width="1.5" d="M0,-3.0v7 M-2.5,-0.5L0,-3.0L2.5,-0.5"/>
                </g>
        </g>
        <svg viewBox="0 0 15 15" width="100%" height="30px" preserveAspectRatio="xMaxYMin meet">
         <g id="arrow_out" transform="scale(0.3 0.3)">
          <a xlink:href="d__event__data_8h__incl_org.svg" target="_base">
           <rect id="button" ry="5" rx="5" y="6" x="6" height="38" width="38"
                fill="#f2f5e9" fill-opacity="0.5" stroke="#606060" stroke-width="1.0"/>
           <path id="arrow"
             d="M 11.500037,31.436501 C 11.940474,20.09759 22.043105,11.32322 32.158766,21.979434 L 37.068811,17.246167 C 37.068811,17.246167 37.088388,32 37.088388,32 L 22.160133,31.978069 C 22.160133,31.978069 26.997745,27.140456 26.997745,27.140456 C 18.528582,18.264221 13.291696,25.230495 11.500037,31.436501 z"
             style="fill:#404040;"/>
          </a>
         </g>
        </svg>
</svg>
