<?xml version="1.0" encoding="UTF-8" standalone="no"?>
<!DOCTYPE svg PUBLIC "-//W3C//DTD SVG 1.1//EN"
 "http://www.w3.org/Graphics/SVG/1.1/DTD/svg11.dtd">
<!-- Generated by graphviz version 2.44.0 ()
 -->
<!-- Title: include/d/kankyo/d_kankyo.h Pages: 1 -->
<!--zoomable 497 -->
<svg id="main" version="1.1" xmlns="http://www.w3.org/2000/svg" xmlns:xlink="http://www.w3.org/1999/xlink" xml:space="preserve" onload="init(evt)">
<style type="text/css"><![CDATA[
.edge:hover path { stroke: red; }
.edge:hover polygon { stroke: red; fill: red; }
]]></style>
<script type="text/javascript"><![CDATA[
var edges = document.getElementsByTagName('g');
if (edges && edges.length) {
  for (var i=0;i<edges.length;i++) {
    if (edges[i].id.substr(0,4)=='edge') {
      edges[i].setAttribute('class','edge');
    }
  }
}
]]></script>
        <defs>
                <circle id="rim" cx="0" cy="0" r="7"/>
                <circle id="rim2" cx="0" cy="0" r="3.5"/>
                <g id="zoomPlus">
                        <use xlink:href="#rim" fill="#404040">
                                <set attributeName="fill" to="#808080" begin="zoomplus.mouseover" end="zoomplus.mouseout"/>
                        </use>
                        <path d="M-4,0h8M0,-4v8" fill="none" stroke="white" stroke-width="1.5" pointer-events="none"/>
                </g>
                <g id="zoomMin">
                        <use xlink:href="#rim" fill="#404040">
                                <set attributeName="fill" to="#808080" begin="zoomminus.mouseover" end="zoomminus.mouseout"/>
                        </use>
                        <path d="M-4,0h8" fill="none" stroke="white" stroke-width="1.5" pointer-events="none"/>
                </g>
                <g id="dirArrow">
                        <path fill="none" stroke="white" stroke-width="1.5" d="M0,-3.0v7 M-2.5,-0.5L0,-3.0L2.5,-0.5"/>
                </g>
               <g id="resetDef">
                       <use xlink:href="#rim2" fill="#404040">
                               <set attributeName="fill" to="#808080" begin="reset.mouseover" end="reset.mouseout"/>
                       </use>
               </g>
        </defs>

<script type="text/javascript">
var viewWidth = 1598;
var viewHeight = 497;
var sectionId = 'dynsection-0';
</script>
<script xlink:href="svgpan.js"/>
<svg id="graph" class="graph">
<g id="viewport">
<title>include/d/kankyo/d_kankyo.h</title>
<polygon fill="white" stroke="transparent" points="-4,4 -4,-493 1594.13,-493 1594.13,4 -4,4"/>
<!-- Node1 -->
<g id="node1" class="node">
<title>Node1</title>
<g id="a_node1"><a xlink:title=" ">
<polygon fill="#bfbfbf" stroke="black" points="541,-458.5 541,-488.5 639,-488.5 639,-458.5 541,-458.5"/>
<text text-anchor="start" x="549" y="-476.5" font-family="Helvetica,sans-Serif" font-size="10.00">include/d/kankyo/d</text>
<text text-anchor="middle" x="590" y="-465.5" font-family="Helvetica,sans-Serif" font-size="10.00">_kankyo.h</text>
</a>
</g>
</g>
<!-- Node2 -->
<g id="node2" class="node">
<title>Node2</title>
<g id="a_node2"><a xlink:href="J3DModelData_8h.html" target="_top" xlink:title=" ">
<polygon fill="white" stroke="black" points="720,-257.5 720,-287.5 860,-287.5 860,-257.5 720,-257.5"/>
<text text-anchor="start" x="728" y="-275.5" font-family="Helvetica,sans-Serif" font-size="10.00">JSystem/J3DGraphAnimator</text>
<text text-anchor="middle" x="790" y="-264.5" font-family="Helvetica,sans-Serif" font-size="10.00">/J3DModelData.h</text>
</a>
</g>
</g>
<!-- Node1&#45;&gt;Node2 -->
<g id="edge1" class="edge">
<title>Node1&#45;&gt;Node2</title>
<path fill="none" stroke="midnightblue" d="M610.06,-458.32C623.29,-448.63 640.74,-435.2 655,-422 698.17,-382.02 704.41,-367.53 744,-324 752.64,-314.5 762.2,-304 770.36,-295.05"/>
<polygon fill="midnightblue" stroke="midnightblue" points="772.96,-297.39 777.11,-287.64 767.78,-292.68 772.96,-297.39"/>
</g>
<!-- Node3 -->
<g id="node3" class="node">
<title>Node3</title>
<g id="a_node3"><a xlink:href="types_8h.html" target="_top" xlink:title=" ">
<polygon fill="white" stroke="black" points="790.5,-0.5 790.5,-19.5 871.5,-19.5 871.5,-0.5 790.5,-0.5"/>
<text text-anchor="middle" x="831" y="-7.5" font-family="Helvetica,sans-Serif" font-size="10.00">dolphin/types.h</text>
</a>
</g>
</g>
<!-- Node1&#45;&gt;Node3 -->
<g id="edge34" class="edge">
<title>Node1&#45;&gt;Node3</title>
<path fill="none" stroke="midnightblue" d="M540.96,-471.95C399.39,-469.04 0,-451.04 0,-340.5 0,-340.5 0,-340.5 0,-137.5 0,-93.55 17.72,-77.58 56,-56 118.79,-20.6 617.84,-12.94 780.17,-11.38"/>
<polygon fill="midnightblue" stroke="midnightblue" points="780.4,-14.88 790.37,-11.28 780.34,-7.88 780.4,-14.88"/>
</g>
<!-- Node4 -->
<g id="node4" class="node">
<title>Node4</title>
<g id="a_node4"><a xlink:href="J3DPacket_8h.html" target="_top" xlink:title=" ">
<polygon fill="white" stroke="black" points="111,-324.5 111,-354.5 235,-354.5 235,-324.5 111,-324.5"/>
<text text-anchor="start" x="119" y="-342.5" font-family="Helvetica,sans-Serif" font-size="10.00">JSystem/J3DGraphBase</text>
<text text-anchor="middle" x="173" y="-331.5" font-family="Helvetica,sans-Serif" font-size="10.00">/J3DPacket.h</text>
</a>
</g>
</g>
<!-- Node1&#45;&gt;Node4 -->
<g id="edge3" class="edge">
<title>Node1&#45;&gt;Node4</title>
<path fill="none" stroke="midnightblue" d="M540.76,-466.68C488.83,-459.64 405.12,-445.67 336,-422 288.46,-405.72 237.17,-378.27 205.08,-359.78"/>
<polygon fill="midnightblue" stroke="midnightblue" points="206.56,-356.59 196.16,-354.58 203.04,-362.64 206.56,-356.59"/>
</g>
<!-- Node9 -->
<g id="node9" class="node">
<title>Node9</title>
<g id="a_node9"><a xlink:href="J3DStruct_8h.html" target="_top" xlink:title=" ">
<polygon fill="white" stroke="black" points="347,-190.5 347,-220.5 471,-220.5 471,-190.5 347,-190.5"/>
<text text-anchor="start" x="355" y="-208.5" font-family="Helvetica,sans-Serif" font-size="10.00">JSystem/J3DGraphBase</text>
<text text-anchor="middle" x="409" y="-197.5" font-family="Helvetica,sans-Serif" font-size="10.00">/J3DStruct.h</text>
</a>
</g>
</g>
<!-- Node1&#45;&gt;Node9 -->
<g id="edge15" class="edge">
<title>Node1&#45;&gt;Node9</title>
<path fill="none" stroke="midnightblue" d="M558.18,-458.38C505.94,-433.1 404.28,-374.55 369,-288 363.8,-275.24 364.47,-270.01 369,-257 372.64,-246.54 379.45,-236.62 386.43,-228.38"/>
<polygon fill="midnightblue" stroke="midnightblue" points="389.22,-230.51 393.35,-220.75 384.04,-225.81 389.22,-230.51"/>
</g>
<!-- Node10 -->
<g id="node10" class="node">
<title>Node10</title>
<g id="a_node10"><a xlink:href="c__xyz_8h.html" target="_top" xlink:title=" ">
<polygon fill="white" stroke="black" points="370,-123.5 370,-153.5 486,-153.5 486,-123.5 370,-123.5"/>
<text text-anchor="start" x="378" y="-141.5" font-family="Helvetica,sans-Serif" font-size="10.00">SSystem/SComponent</text>
<text text-anchor="middle" x="428" y="-130.5" font-family="Helvetica,sans-Serif" font-size="10.00">/c_xyz.h</text>
</a>
</g>
</g>
<!-- Node1&#45;&gt;Node10 -->
<g id="edge32" class="edge">
<title>Node1&#45;&gt;Node10</title>
<path fill="none" stroke="midnightblue" d="M574.98,-458.23C552.84,-435.55 514,-388.89 514,-340.5 514,-340.5 514,-340.5 514,-271.5 514,-226.39 478.3,-184.61 452.9,-160.6"/>
<polygon fill="midnightblue" stroke="midnightblue" points="455.14,-157.9 445.4,-153.73 450.42,-163.07 455.14,-157.9"/>
</g>
<!-- Node12 -->
<g id="node12" class="node">
<title>Node12</title>
<g id="a_node12"><a xlink:href="GXTexture_8h.html" target="_top" xlink:title=" ">
<polygon fill="white" stroke="black" points="438.5,-62 438.5,-81 555.5,-81 555.5,-62 438.5,-62"/>
<text text-anchor="middle" x="497" y="-69" font-family="Helvetica,sans-Serif" font-size="10.00">dolphin/gx/GXTexture.h</text>
</a>
</g>
</g>
<!-- Node1&#45;&gt;Node12 -->
<g id="edge33" class="edge">
<title>Node1&#45;&gt;Node12</title>
<path fill="none" stroke="midnightblue" d="M590,-458.24C590,-434.03 590,-383.35 590,-340.5 590,-340.5 590,-340.5 590,-204.5 590,-154.41 544.7,-109.95 517.33,-87.65"/>
<polygon fill="midnightblue" stroke="midnightblue" points="519.18,-84.65 509.16,-81.21 514.85,-90.15 519.18,-84.65"/>
</g>
<!-- Node13 -->
<g id="node13" class="node">
<title>Node13</title>
<g id="a_node13"><a xlink:href="JPAParticle_8h.html" target="_top" xlink:title=" ">
<polygon fill="white" stroke="black" points="618,-196 618,-215 776,-215 776,-196 618,-196"/>
<text text-anchor="middle" x="697" y="-203" font-family="Helvetica,sans-Serif" font-size="10.00">JSystem/JParticle/JPAParticle.h</text>
</a>
</g>
</g>
<!-- Node1&#45;&gt;Node13 -->
<g id="edge23" class="edge">
<title>Node1&#45;&gt;Node13</title>
<path fill="none" stroke="midnightblue" d="M595.75,-458.2C613.87,-413.16 669.73,-274.29 689.76,-224.5"/>
<polygon fill="midnightblue" stroke="midnightblue" points="693.08,-225.63 693.56,-215.05 686.58,-223.02 693.08,-225.63"/>
</g>
<!-- Node16 -->
<g id="node16" class="node">
<title>Node16</title>
<g id="a_node16"><a xlink:href="c__sxyz_8h.html" target="_top" xlink:title=" ">
<polygon fill="white" stroke="black" points="798,-391.5 798,-421.5 914,-421.5 914,-391.5 798,-391.5"/>
<text text-anchor="start" x="806" y="-409.5" font-family="Helvetica,sans-Serif" font-size="10.00">SSystem/SComponent</text>
<text text-anchor="middle" x="856" y="-398.5" font-family="Helvetica,sans-Serif" font-size="10.00">/c_sxyz.h</text>
</a>
</g>
</g>
<!-- Node1&#45;&gt;Node16 -->
<g id="edge30" class="edge">
<title>Node1&#45;&gt;Node16</title>
<path fill="none" stroke="midnightblue" d="M639.1,-460.5C681.05,-450.25 741.84,-435.4 788.39,-424.02"/>
<polygon fill="midnightblue" stroke="midnightblue" points="789.51,-427.35 798.4,-421.58 787.85,-420.55 789.51,-427.35"/>
</g>
<!-- Node17 -->
<g id="node17" class="node">
<title>Node17</title>
<g id="a_node17"><a xlink:href="m__Do__ext_8h.html" target="_top" xlink:title=" ">
<polygon fill="white" stroke="black" points="974,-397 974,-416 1070,-416 1070,-397 974,-397"/>
<text text-anchor="middle" x="1022" y="-404" font-family="Helvetica,sans-Serif" font-size="10.00">m_Do/m_Do_ext.h</text>
</a>
</g>
</g>
<!-- Node1&#45;&gt;Node17 -->
<g id="edge35" class="edge">
<title>Node1&#45;&gt;Node17</title>
<path fill="none" stroke="midnightblue" d="M639.14,-465.11C719.36,-453.04 878.09,-429.15 963.82,-416.25"/>
<polygon fill="midnightblue" stroke="midnightblue" points="964.53,-419.69 973.9,-414.74 963.49,-412.76 964.53,-419.69"/>
</g>
<!-- Node2&#45;&gt;Node3 -->
<g id="edge2" class="edge">
<title>Node2&#45;&gt;Node3</title>
<path fill="none" stroke="midnightblue" d="M803.63,-257.35C811.79,-247.88 821.44,-234.69 826,-221 848.46,-153.59 839.63,-67.14 834.13,-29.69"/>
<polygon fill="midnightblue" stroke="midnightblue" points="837.57,-29.05 832.56,-19.71 830.65,-30.13 837.57,-29.05"/>
</g>
<!-- Node4&#45;&gt;Node3 -->
<g id="edge14" class="edge">
<title>Node4&#45;&gt;Node3</title>
<path fill="none" stroke="midnightblue" d="M113.44,-324.46C92.88,-316.84 71.41,-305.3 57,-288 33.19,-259.42 38,-243.69 38,-206.5 38,-206.5 38,-206.5 38,-137.5 38,-87.67 69.88,-77.15 115,-56 174.81,-27.97 627.11,-15.49 780.39,-12.04"/>
<polygon fill="midnightblue" stroke="midnightblue" points="780.55,-15.54 790.47,-11.82 780.4,-8.54 780.55,-15.54"/>
</g>
<!-- Node5 -->
<g id="node5" class="node">
<title>Node5</title>
<g id="a_node5"><a xlink:href="J3DSys_8h.html" target="_top" xlink:title=" ">
<polygon fill="white" stroke="black" points="66,-257.5 66,-287.5 190,-287.5 190,-257.5 66,-257.5"/>
<text text-anchor="start" x="74" y="-275.5" font-family="Helvetica,sans-Serif" font-size="10.00">JSystem/J3DGraphBase</text>
<text text-anchor="middle" x="128" y="-264.5" font-family="Helvetica,sans-Serif" font-size="10.00">/J3DSys.h</text>
</a>
</g>
</g>
<!-- Node4&#45;&gt;Node5 -->
<g id="edge4" class="edge">
<title>Node4&#45;&gt;Node5</title>
<path fill="none" stroke="midnightblue" d="M163.24,-324.4C157.46,-316.05 150.01,-305.29 143.45,-295.81"/>
<polygon fill="midnightblue" stroke="midnightblue" points="146.32,-293.81 137.75,-287.58 140.56,-297.79 146.32,-293.81"/>
</g>
<!-- Node6 -->
<g id="node6" class="node">
<title>Node6</title>
<g id="a_node6"><a xlink:href="mtx_8h.html" target="_top" xlink:title=" ">
<polygon fill="white" stroke="black" points="158,-196 158,-215 250,-215 250,-196 158,-196"/>
<text text-anchor="middle" x="204" y="-203" font-family="Helvetica,sans-Serif" font-size="10.00">dolphin/mtx/mtx.h</text>
</a>
</g>
</g>
<!-- Node4&#45;&gt;Node6 -->
<g id="edge13" class="edge">
<title>Node4&#45;&gt;Node6</title>
<path fill="none" stroke="midnightblue" d="M182.44,-324.14C188.33,-314.38 195.44,-300.93 199,-288 204.74,-267.12 205.41,-242.14 205.02,-225.39"/>
<polygon fill="midnightblue" stroke="midnightblue" points="208.51,-225.11 204.62,-215.26 201.52,-225.39 208.51,-225.11"/>
</g>
<!-- Node5&#45;&gt;Node3 -->
<g id="edge12" class="edge">
<title>Node5&#45;&gt;Node3</title>
<path fill="none" stroke="midnightblue" d="M123.05,-257.31C110.17,-217.57 80.73,-104.84 142,-56 191.55,-16.51 629.21,-11.55 780.12,-11.03"/>
<polygon fill="midnightblue" stroke="midnightblue" points="780.49,-14.52 790.48,-11 780.47,-7.52 780.49,-14.52"/>
</g>
<!-- Node5&#45;&gt;Node6 -->
<g id="edge5" class="edge">
<title>Node5&#45;&gt;Node6</title>
<path fill="none" stroke="midnightblue" d="M144.49,-257.4C156.69,-246.96 173.31,-232.75 185.88,-222"/>
<polygon fill="midnightblue" stroke="midnightblue" points="188.51,-224.35 193.83,-215.19 183.96,-219.03 188.51,-224.35"/>
</g>
<!-- Node6&#45;&gt;Node3 -->
<g id="edge11" class="edge">
<title>Node6&#45;&gt;Node3</title>
<path fill="none" stroke="midnightblue" d="M182.57,-195.91C165.69,-187.85 143.33,-174.03 133,-154 109.8,-109.02 145.73,-78.64 191,-56 243.12,-29.94 637.68,-16.41 780.01,-12.35"/>
<polygon fill="midnightblue" stroke="midnightblue" points="780.31,-15.84 790.21,-12.06 780.11,-8.84 780.31,-15.84"/>
</g>
<!-- Node7 -->
<g id="node7" class="node">
<title>Node7</title>
<g id="a_node7"><a xlink:href="quat_8h.html" target="_top" xlink:title=" ">
<polygon fill="white" stroke="black" points="142.5,-129 142.5,-148 237.5,-148 237.5,-129 142.5,-129"/>
<text text-anchor="middle" x="190" y="-136" font-family="Helvetica,sans-Serif" font-size="10.00">dolphin/mtx/quat.h</text>
</a>
</g>
</g>
<!-- Node6&#45;&gt;Node7 -->
<g id="edge6" class="edge">
<title>Node6&#45;&gt;Node7</title>
<path fill="none" stroke="midnightblue" d="M202.11,-195.73C200.03,-186.09 196.63,-170.3 193.96,-157.91"/>
<polygon fill="midnightblue" stroke="midnightblue" points="197.39,-157.17 191.86,-148.13 190.54,-158.64 197.39,-157.17"/>
</g>
<!-- Node8 -->
<g id="node8" class="node">
<title>Node8</title>
<g id="a_node8"><a xlink:href="vec_8h.html" target="_top" xlink:title=" ">
<polygon fill="white" stroke="black" points="222,-62 222,-81 314,-81 314,-62 222,-62"/>
<text text-anchor="middle" x="268" y="-69" font-family="Helvetica,sans-Serif" font-size="10.00">dolphin/mtx/vec.h</text>
</a>
</g>
</g>
<!-- Node6&#45;&gt;Node8 -->
<g id="edge10" class="edge">
<title>Node6&#45;&gt;Node8</title>
<path fill="none" stroke="midnightblue" d="M213.39,-195.71C222.93,-186.26 237.49,-170.4 246,-154 256.42,-133.92 262.27,-108.42 265.28,-91.34"/>
<polygon fill="midnightblue" stroke="midnightblue" points="268.8,-91.46 266.92,-81.03 261.89,-90.35 268.8,-91.46"/>
</g>
<!-- Node7&#45;&gt;Node3 -->
<g id="edge9" class="edge">
<title>Node7&#45;&gt;Node3</title>
<path fill="none" stroke="midnightblue" d="M189.51,-128.91C189.07,-111.92 190.78,-74.12 213,-56 256.51,-20.51 640.08,-12.98 780.11,-11.41"/>
<polygon fill="midnightblue" stroke="midnightblue" points="780.19,-14.91 790.16,-11.3 780.12,-7.91 780.19,-14.91"/>
</g>
<!-- Node7&#45;&gt;Node8 -->
<g id="edge7" class="edge">
<title>Node7&#45;&gt;Node8</title>
<path fill="none" stroke="midnightblue" d="M200.52,-128.73C213.15,-118.21 234.54,-100.38 249.86,-87.62"/>
<polygon fill="midnightblue" stroke="midnightblue" points="252.21,-90.22 257.65,-81.13 247.72,-84.84 252.21,-90.22"/>
</g>
<!-- Node8&#45;&gt;Node3 -->
<g id="edge8" class="edge">
<title>Node8&#45;&gt;Node3</title>
<path fill="none" stroke="midnightblue" d="M299.58,-61.94C308.7,-59.72 318.69,-57.53 328,-56 492.1,-28.98 689.18,-17.3 780.27,-13.06"/>
<polygon fill="midnightblue" stroke="midnightblue" points="780.49,-16.55 790.32,-12.6 780.17,-9.56 780.49,-16.55"/>
</g>
<!-- Node9&#45;&gt;Node3 -->
<g id="edge22" class="edge">
<title>Node9&#45;&gt;Node3</title>
<path fill="none" stroke="midnightblue" d="M389.8,-190.45C379.12,-181.4 366.83,-168.6 361,-154 344.84,-113.55 331.71,-88.23 361,-56 388.79,-25.42 664.46,-15.09 780.22,-12.09"/>
<polygon fill="midnightblue" stroke="midnightblue" points="780.35,-15.59 790.26,-11.84 780.17,-8.59 780.35,-15.59"/>
</g>
<!-- Node9&#45;&gt;Node10 -->
<g id="edge16" class="edge">
<title>Node9&#45;&gt;Node10</title>
<path fill="none" stroke="midnightblue" d="M413.12,-190.4C415.44,-182.47 418.39,-172.38 421.05,-163.27"/>
<polygon fill="midnightblue" stroke="midnightblue" points="424.44,-164.16 423.89,-153.58 417.72,-162.19 424.44,-164.16"/>
</g>
<!-- Node9&#45;&gt;Node12 -->
<g id="edge20" class="edge">
<title>Node9&#45;&gt;Node12</title>
<path fill="none" stroke="midnightblue" d="M450.68,-190.4C467.47,-182.46 485.16,-170.71 495,-154 506.25,-134.89 504.48,-108.64 501.41,-91.15"/>
<polygon fill="midnightblue" stroke="midnightblue" points="504.78,-90.17 499.33,-81.09 497.93,-91.59 504.78,-90.17"/>
</g>
<!-- Node10&#45;&gt;Node8 -->
<g id="edge17" class="edge">
<title>Node10&#45;&gt;Node8</title>
<path fill="none" stroke="midnightblue" d="M393.28,-123.4C364.96,-111.89 325.35,-95.8 298.29,-84.81"/>
<polygon fill="midnightblue" stroke="midnightblue" points="299.52,-81.53 288.94,-81.01 296.89,-88.01 299.52,-81.53"/>
</g>
<!-- Node11 -->
<g id="node11" class="node">
<title>Node11</title>
<g id="a_node11"><a xlink:href="global_8h.html" target="_top" xlink:title=" ">
<polygon fill="white" stroke="black" points="370,-62 370,-81 420,-81 420,-62 370,-62"/>
<text text-anchor="middle" x="395" y="-69" font-family="Helvetica,sans-Serif" font-size="10.00">global.h</text>
</a>
</g>
</g>
<!-- Node10&#45;&gt;Node11 -->
<g id="edge18" class="edge">
<title>Node10&#45;&gt;Node11</title>
<path fill="none" stroke="midnightblue" d="M420.84,-123.4C415.9,-113.66 409.29,-100.65 403.99,-90.21"/>
<polygon fill="midnightblue" stroke="midnightblue" points="407.06,-88.53 399.41,-81.19 400.82,-91.7 407.06,-88.53"/>
</g>
<!-- Node11&#45;&gt;Node3 -->
<g id="edge19" class="edge">
<title>Node11&#45;&gt;Node3</title>
<path fill="none" stroke="midnightblue" d="M412.3,-61.97C417.55,-59.7 423.41,-57.47 429,-56 552.24,-23.57 702.76,-14.51 779.95,-11.98"/>
<polygon fill="midnightblue" stroke="midnightblue" points="780.46,-15.46 790.35,-11.66 780.25,-8.47 780.46,-15.46"/>
</g>
<!-- Node12&#45;&gt;Node3 -->
<g id="edge21" class="edge">
<title>Node12&#45;&gt;Node3</title>
<path fill="none" stroke="midnightblue" d="M539.04,-61.96C549.17,-59.96 559.96,-57.86 570,-56 642.9,-42.48 727.52,-28.14 780.16,-19.37"/>
<polygon fill="midnightblue" stroke="midnightblue" points="780.96,-22.79 790.26,-17.7 779.82,-15.88 780.96,-22.79"/>
</g>
<!-- Node13&#45;&gt;Node3 -->
<g id="edge29" class="edge">
<title>Node13&#45;&gt;Node3</title>
<path fill="none" stroke="midnightblue" d="M685.17,-195.83C673.63,-186.72 656.47,-171.32 647,-154 625.86,-115.34 604.49,-90.42 632,-56 650.19,-33.24 727.2,-21.15 779.91,-15.41"/>
<polygon fill="midnightblue" stroke="midnightblue" points="780.52,-18.87 790.1,-14.35 779.79,-11.9 780.52,-18.87"/>
</g>
<!-- Node14 -->
<g id="node14" class="node">
<title>Node14</title>
<g id="a_node14"><a xlink:href="GX_8h.html" target="_top" xlink:title=" ">
<polygon fill="white" stroke="black" points="656.5,-129 656.5,-148 741.5,-148 741.5,-129 656.5,-129"/>
<text text-anchor="middle" x="699" y="-136" font-family="Helvetica,sans-Serif" font-size="10.00">dolphin/gx/GX.h</text>
</a>
</g>
</g>
<!-- Node13&#45;&gt;Node14 -->
<g id="edge24" class="edge">
<title>Node13&#45;&gt;Node14</title>
<path fill="none" stroke="midnightblue" d="M697.27,-195.73C697.56,-186.18 698.04,-170.62 698.42,-158.28"/>
<polygon fill="midnightblue" stroke="midnightblue" points="701.93,-158.23 698.73,-148.13 694.93,-158.01 701.93,-158.23"/>
</g>
<!-- Node14&#45;&gt;Node3 -->
<g id="edge28" class="edge">
<title>Node14&#45;&gt;Node3</title>
<path fill="none" stroke="midnightblue" d="M684.98,-128.97C661.96,-113.9 620.64,-81.75 641,-56 658.07,-34.42 729.87,-22.12 780.15,-16"/>
<polygon fill="midnightblue" stroke="midnightblue" points="780.68,-19.46 790.2,-14.82 779.87,-12.51 780.68,-19.46"/>
</g>
<!-- Node14&#45;&gt;Node12 -->
<g id="edge27" class="edge">
<title>Node14&#45;&gt;Node12</title>
<path fill="none" stroke="midnightblue" d="M672.18,-128.87C636.46,-117.38 573.16,-97.01 533.23,-84.16"/>
<polygon fill="midnightblue" stroke="midnightblue" points="534.2,-80.8 523.61,-81.06 532.06,-87.46 534.2,-80.8"/>
</g>
<!-- Node15 -->
<g id="node15" class="node">
<title>Node15</title>
<g id="a_node15"><a xlink:href="GXDisplayList_8h.html" target="_top" xlink:title=" ">
<polygon fill="white" stroke="black" points="650.5,-62 650.5,-81 783.5,-81 783.5,-62 650.5,-62"/>
<text text-anchor="middle" x="717" y="-69" font-family="Helvetica,sans-Serif" font-size="10.00">dolphin/gx/GXDisplayList.h</text>
</a>
</g>
</g>
<!-- Node14&#45;&gt;Node15 -->
<g id="edge25" class="edge">
<title>Node14&#45;&gt;Node15</title>
<path fill="none" stroke="midnightblue" d="M701.43,-128.73C704.1,-119.09 708.47,-103.3 711.9,-90.91"/>
<polygon fill="midnightblue" stroke="midnightblue" points="715.32,-91.7 714.61,-81.13 708.57,-89.83 715.32,-91.7"/>
</g>
<!-- Node15&#45;&gt;Node3 -->
<g id="edge26" class="edge">
<title>Node15&#45;&gt;Node3</title>
<path fill="none" stroke="midnightblue" d="M733.33,-61.98C752.21,-52.12 783.51,-35.79 805.58,-24.27"/>
<polygon fill="midnightblue" stroke="midnightblue" points="807.45,-27.24 814.7,-19.51 804.21,-21.03 807.45,-27.24"/>
</g>
<!-- Node16&#45;&gt;Node3 -->
<g id="edge31" class="edge">
<title>Node16&#45;&gt;Node3</title>
<path fill="none" stroke="midnightblue" d="M873.13,-391.36C883.18,-382.09 895.2,-369.1 902,-355 931.05,-294.79 926,-273.36 926,-206.5 926,-206.5 926,-206.5 926,-137.5 926,-88.93 880.66,-47.09 852.62,-25.87"/>
<polygon fill="midnightblue" stroke="midnightblue" points="854.35,-22.79 844.21,-19.72 850.22,-28.44 854.35,-22.79"/>
</g>
<!-- Node17&#45;&gt;Node11 -->
<g id="edge65" class="edge">
<title>Node17&#45;&gt;Node11</title>
<path fill="none" stroke="midnightblue" d="M973.79,-398.26C899.69,-386.9 764.22,-365.14 744,-355 608.79,-287.19 619.08,-209.51 495,-123 482.48,-114.27 447.72,-97.26 422.7,-85.41"/>
<polygon fill="midnightblue" stroke="midnightblue" points="424.2,-82.24 413.66,-81.15 421.21,-88.58 424.2,-82.24"/>
</g>
<!-- Node18 -->
<g id="node18" class="node">
<title>Node18</title>
<g id="a_node18"><a xlink:href="J3DAnimation_8h.html" target="_top" xlink:title=" ">
<polygon fill="white" stroke="black" points="952,-324.5 952,-354.5 1092,-354.5 1092,-324.5 952,-324.5"/>
<text text-anchor="start" x="960" y="-342.5" font-family="Helvetica,sans-Serif" font-size="10.00">JSystem/J3DGraphAnimator</text>
<text text-anchor="middle" x="1022" y="-331.5" font-family="Helvetica,sans-Serif" font-size="10.00">/J3DAnimation.h</text>
</a>
</g>
</g>
<!-- Node17&#45;&gt;Node18 -->
<g id="edge36" class="edge">
<title>Node17&#45;&gt;Node18</title>
<path fill="none" stroke="midnightblue" d="M1022,-396.73C1022,-388.54 1022,-375.92 1022,-364.71"/>
<polygon fill="midnightblue" stroke="midnightblue" points="1025.5,-364.59 1022,-354.59 1018.5,-364.59 1025.5,-364.59"/>
</g>
<!-- Node19 -->
<g id="node19" class="node">
<title>Node19</title>
<g id="a_node19"><a xlink:href="J3DModel_8h.html" target="_top" xlink:title=" ">
<polygon fill="white" stroke="black" points="753,-324.5 753,-354.5 893,-354.5 893,-324.5 753,-324.5"/>
<text text-anchor="start" x="761" y="-342.5" font-family="Helvetica,sans-Serif" font-size="10.00">JSystem/J3DGraphAnimator</text>
<text text-anchor="middle" x="823" y="-331.5" font-family="Helvetica,sans-Serif" font-size="10.00">/J3DModel.h</text>
</a>
</g>
</g>
<!-- Node17&#45;&gt;Node19 -->
<g id="edge38" class="edge">
<title>Node17&#45;&gt;Node19</title>
<path fill="none" stroke="midnightblue" d="M995.57,-396.87C965.07,-386.9 914.13,-370.27 875.49,-357.64"/>
<polygon fill="midnightblue" stroke="midnightblue" points="876.54,-354.31 865.95,-354.53 874.37,-360.96 876.54,-354.31"/>
</g>
<!-- Node21 -->
<g id="node21" class="node">
<title>Node21</title>
<g id="a_node21"><a xlink:href="JKRAssertHeap_8h.html" target="_top" xlink:title=" ">
<polygon fill="white" stroke="black" points="992.5,-257.5 992.5,-287.5 1133.5,-287.5 1133.5,-257.5 992.5,-257.5"/>
<text text-anchor="start" x="1000.5" y="-275.5" font-family="Helvetica,sans-Serif" font-size="10.00">JSystem/JKernel/JKRAssert</text>
<text text-anchor="middle" x="1063" y="-264.5" font-family="Helvetica,sans-Serif" font-size="10.00">Heap.h</text>
</a>
</g>
</g>
<!-- Node17&#45;&gt;Node21 -->
<g id="edge45" class="edge">
<title>Node17&#45;&gt;Node21</title>
<path fill="none" stroke="midnightblue" d="M1047.28,-396.93C1065.82,-389.15 1089.66,-375.7 1101,-355 1111.83,-335.23 1098.35,-311.84 1084.55,-295.2"/>
<polygon fill="midnightblue" stroke="midnightblue" points="1087.09,-292.79 1077.85,-287.62 1081.85,-297.43 1087.09,-292.79"/>
</g>
<!-- Node28 -->
<g id="node28" class="node">
<title>Node28</title>
<g id="a_node28"><a xlink:href="JKRExpHeap_8h.html" target="_top" xlink:title=" ">
<polygon fill="white" stroke="black" points="1151.5,-263 1151.5,-282 1310.5,-282 1310.5,-263 1151.5,-263"/>
<text text-anchor="middle" x="1231" y="-270" font-family="Helvetica,sans-Serif" font-size="10.00">JSystem/JKernel/JKRExpHeap.h</text>
</a>
</g>
</g>
<!-- Node17&#45;&gt;Node28 -->
<g id="edge59" class="edge">
<title>Node17&#45;&gt;Node28</title>
<path fill="none" stroke="midnightblue" d="M1039.9,-396.87C1059.3,-387.32 1090.96,-371.13 1117,-355 1151.69,-333.51 1189.86,-305.19 1212.06,-288.22"/>
<polygon fill="midnightblue" stroke="midnightblue" points="1214.22,-290.98 1220.01,-282.1 1209.95,-285.43 1214.22,-290.98"/>
</g>
<!-- Node29 -->
<g id="node29" class="node">
<title>Node29</title>
<g id="a_node29"><a xlink:href="JKRSolidHeap_8h.html" target="_top" xlink:title=" ">
<polygon fill="white" stroke="black" points="1329,-257.5 1329,-287.5 1463,-287.5 1463,-257.5 1329,-257.5"/>
<text text-anchor="start" x="1337" y="-275.5" font-family="Helvetica,sans-Serif" font-size="10.00">JSystem/JKernel/JKRSolid</text>
<text text-anchor="middle" x="1396" y="-264.5" font-family="Helvetica,sans-Serif" font-size="10.00">Heap.h</text>
</a>
</g>
</g>
<!-- Node17&#45;&gt;Node29 -->
<g id="edge62" class="edge">
<title>Node17&#45;&gt;Node29</title>
<path fill="none" stroke="midnightblue" d="M1046.25,-396.94C1106.76,-375.59 1265.34,-319.62 1346.54,-290.96"/>
<polygon fill="midnightblue" stroke="midnightblue" points="1347.78,-294.23 1356.05,-287.6 1345.45,-287.63 1347.78,-294.23"/>
</g>
<!-- Node18&#45;&gt;Node3 -->
<g id="edge37" class="edge">
<title>Node18&#45;&gt;Node3</title>
<path fill="none" stroke="midnightblue" d="M1008.21,-324.16C999.75,-314.62 989.37,-301.41 983,-288 967.05,-254.4 964,-243.69 964,-206.5 964,-206.5 964,-206.5 964,-137.5 964,-99.74 965.26,-84.07 940,-56 924.69,-38.99 901.96,-28.25 881.22,-21.56"/>
<polygon fill="midnightblue" stroke="midnightblue" points="882.13,-18.18 871.55,-18.67 880.13,-24.88 882.13,-18.18"/>
</g>
<!-- Node19&#45;&gt;Node2 -->
<g id="edge39" class="edge">
<title>Node19&#45;&gt;Node2</title>
<path fill="none" stroke="midnightblue" d="M815.84,-324.4C811.73,-316.3 806.47,-305.94 801.77,-296.69"/>
<polygon fill="midnightblue" stroke="midnightblue" points="804.79,-294.91 797.15,-287.58 798.55,-298.08 804.79,-294.91"/>
</g>
<!-- Node19&#45;&gt;Node3 -->
<g id="edge44" class="edge">
<title>Node19&#45;&gt;Node3</title>
<path fill="none" stroke="midnightblue" d="M839.8,-324.19C849.71,-314.85 861.72,-301.86 869,-288 886.3,-255.08 888,-243.69 888,-206.5 888,-206.5 888,-206.5 888,-137.5 888,-94.97 860.89,-50.93 844.06,-27.7"/>
<polygon fill="midnightblue" stroke="midnightblue" points="846.79,-25.5 837.99,-19.6 841.18,-29.7 846.79,-25.5"/>
</g>
<!-- Node20 -->
<g id="node20" class="node">
<title>Node20</title>
<g id="a_node20"><a xlink:href="mtxvec_8h.html" target="_top" xlink:title=" ">
<polygon fill="white" stroke="black" points="378,-263 378,-282 486,-282 486,-263 378,-263"/>
<text text-anchor="middle" x="432" y="-270" font-family="Helvetica,sans-Serif" font-size="10.00">dolphin/mtx/mtxvec.h</text>
</a>
</g>
</g>
<!-- Node19&#45;&gt;Node20 -->
<g id="edge40" class="edge">
<title>Node19&#45;&gt;Node20</title>
<path fill="none" stroke="midnightblue" d="M752.65,-326.8C678.78,-314.52 563.78,-295.41 493.44,-283.71"/>
<polygon fill="midnightblue" stroke="midnightblue" points="493.84,-280.23 483.4,-282.04 492.69,-287.14 493.84,-280.23"/>
</g>
<!-- Node20&#45;&gt;Node3 -->
<g id="edge43" class="edge">
<title>Node20&#45;&gt;Node3</title>
<path fill="none" stroke="midnightblue" d="M486.22,-271.05C574.24,-269.16 742.65,-260.35 785,-221 812.98,-195.01 825.62,-76.36 829.57,-29.82"/>
<polygon fill="midnightblue" stroke="midnightblue" points="833.07,-29.89 830.39,-19.64 826.1,-29.32 833.07,-29.89"/>
</g>
<!-- Node20&#45;&gt;Node6 -->
<g id="edge41" class="edge">
<title>Node20&#45;&gt;Node6</title>
<path fill="none" stroke="midnightblue" d="M401.72,-262.87C361.07,-251.28 288.75,-230.66 243.75,-217.83"/>
<polygon fill="midnightblue" stroke="midnightblue" points="244.62,-214.44 234.04,-215.06 242.7,-221.17 244.62,-214.44"/>
</g>
<!-- Node20&#45;&gt;Node8 -->
<g id="edge42" class="edge">
<title>Node20&#45;&gt;Node8</title>
<path fill="none" stroke="midnightblue" d="M406.42,-262.9C385.73,-254.85 357,-241.02 338,-221 301.48,-182.51 281.06,-121.48 272.64,-91.04"/>
<polygon fill="midnightblue" stroke="midnightblue" points="276,-90.08 270.07,-81.31 269.23,-91.87 276,-90.08"/>
</g>
<!-- Node21&#45;&gt;Node3 -->
<g id="edge58" class="edge">
<title>Node21&#45;&gt;Node3</title>
<path fill="none" stroke="midnightblue" d="M1050.54,-257.35C1042.57,-247.68 1032.53,-234.26 1026,-221 992.25,-152.49 1031.63,-110.38 978,-56 952.72,-30.36 913.26,-19.25 881.59,-14.47"/>
<polygon fill="midnightblue" stroke="midnightblue" points="881.99,-10.99 871.61,-13.13 881.05,-17.93 881.99,-10.99"/>
</g>
<!-- Node22 -->
<g id="node22" class="node">
<title>Node22</title>
<g id="a_node22"><a xlink:href="JKRHeap_8h.html" target="_top" xlink:title=" ">
<polygon fill="white" stroke="black" points="1152.5,-196 1152.5,-215 1295.5,-215 1295.5,-196 1152.5,-196"/>
<text text-anchor="middle" x="1224" y="-203" font-family="Helvetica,sans-Serif" font-size="10.00">JSystem/JKernel/JKRHeap.h</text>
</a>
</g>
</g>
<!-- Node21&#45;&gt;Node22 -->
<g id="edge46" class="edge">
<title>Node21&#45;&gt;Node22</title>
<path fill="none" stroke="midnightblue" d="M1097.93,-257.4C1126.43,-245.89 1166.29,-229.8 1193.52,-218.81"/>
<polygon fill="midnightblue" stroke="midnightblue" points="1194.97,-222 1202.93,-215.01 1192.35,-215.51 1194.97,-222"/>
</g>
<!-- Node22&#45;&gt;Node3 -->
<g id="edge57" class="edge">
<title>Node22&#45;&gt;Node3</title>
<path fill="none" stroke="midnightblue" d="M1201.35,-195.94C1180.75,-187.42 1150.25,-172.9 1128,-154 1086.4,-118.67 1100.2,-85.06 1054,-56 1001.52,-22.98 929.55,-13.54 881.73,-11.17"/>
<polygon fill="midnightblue" stroke="midnightblue" points="881.74,-7.67 871.61,-10.76 881.45,-14.66 881.74,-7.67"/>
</g>
<!-- Node23 -->
<g id="node23" class="node">
<title>Node23</title>
<g id="a_node23"><a xlink:href="JKRDisposer_8h.html" target="_top" xlink:title=" ">
<polygon fill="white" stroke="black" points="1137,-129 1137,-148 1295,-148 1295,-129 1137,-129"/>
<text text-anchor="middle" x="1216" y="-136" font-family="Helvetica,sans-Serif" font-size="10.00">JSystem/JKernel/JKRDisposer.h</text>
</a>
</g>
</g>
<!-- Node22&#45;&gt;Node23 -->
<g id="edge47" class="edge">
<title>Node22&#45;&gt;Node23</title>
<path fill="none" stroke="midnightblue" d="M1222.92,-195.73C1221.75,-186.18 1219.83,-170.62 1218.31,-158.28"/>
<polygon fill="midnightblue" stroke="midnightblue" points="1221.76,-157.62 1217.06,-148.13 1214.81,-158.48 1221.76,-157.62"/>
</g>
<!-- Node25 -->
<g id="node25" class="node">
<title>Node25</title>
<g id="a_node25"><a xlink:href="OS_8h.html" target="_top" xlink:title=" ">
<polygon fill="white" stroke="black" points="1335,-129 1335,-148 1421,-148 1421,-129 1335,-129"/>
<text text-anchor="middle" x="1378" y="-136" font-family="Helvetica,sans-Serif" font-size="10.00">dolphin/os/OS.h</text>
</a>
</g>
</g>
<!-- Node22&#45;&gt;Node25 -->
<g id="edge51" class="edge">
<title>Node22&#45;&gt;Node25</title>
<path fill="none" stroke="midnightblue" d="M1244.45,-195.87C1271.03,-184.65 1317.64,-164.98 1348.17,-152.09"/>
<polygon fill="midnightblue" stroke="midnightblue" points="1349.61,-155.28 1357.47,-148.17 1346.89,-148.83 1349.61,-155.28"/>
</g>
<!-- Node23&#45;&gt;Node3 -->
<g id="edge50" class="edge">
<title>Node23&#45;&gt;Node3</title>
<path fill="none" stroke="midnightblue" d="M1201.99,-128.95C1185.91,-119.08 1158.82,-102.22 1136,-87 1116.1,-73.72 1114.1,-65.14 1092,-56 1022.75,-27.35 935.87,-16.94 881.89,-13.16"/>
<polygon fill="midnightblue" stroke="midnightblue" points="882.09,-9.66 871.88,-12.51 881.63,-16.65 882.09,-9.66"/>
</g>
<!-- Node24 -->
<g id="node24" class="node">
<title>Node24</title>
<g id="a_node24"><a xlink:href="JSUList_8h.html" target="_top" xlink:title=" ">
<polygon fill="white" stroke="black" points="1144.5,-62 1144.5,-81 1287.5,-81 1287.5,-62 1144.5,-62"/>
<text text-anchor="middle" x="1216" y="-69" font-family="Helvetica,sans-Serif" font-size="10.00">JSystem/JSupport/JSUList.h</text>
</a>
</g>
</g>
<!-- Node23&#45;&gt;Node24 -->
<g id="edge48" class="edge">
<title>Node23&#45;&gt;Node24</title>
<path fill="none" stroke="midnightblue" d="M1216,-128.73C1216,-119.18 1216,-103.62 1216,-91.28"/>
<polygon fill="midnightblue" stroke="midnightblue" points="1219.5,-91.13 1216,-81.13 1212.5,-91.13 1219.5,-91.13"/>
</g>
<!-- Node24&#45;&gt;Node3 -->
<g id="edge49" class="edge">
<title>Node24&#45;&gt;Node3</title>
<path fill="none" stroke="midnightblue" d="M1166.45,-61.99C1154.52,-59.99 1141.81,-57.88 1130,-56 1042.95,-42.11 941.46,-27.08 881.92,-18.38"/>
<polygon fill="midnightblue" stroke="midnightblue" points="882.06,-14.87 871.66,-16.89 881.05,-21.79 882.06,-14.87"/>
</g>
<!-- Node25&#45;&gt;Node3 -->
<g id="edge54" class="edge">
<title>Node25&#45;&gt;Node3</title>
<path fill="none" stroke="midnightblue" d="M1370.66,-128.73C1354.33,-109.48 1315.03,-64.54 1297,-56 1224.49,-21.65 986.67,-13.52 881.64,-11.6"/>
<polygon fill="midnightblue" stroke="midnightblue" points="881.65,-8.1 871.6,-11.42 881.53,-15.09 881.65,-8.1"/>
</g>
<!-- Node26 -->
<g id="node26" class="node">
<title>Node26</title>
<g id="a_node26"><a xlink:href="____va__arg_8h.html" target="_top" xlink:title=" ">
<polygon fill="white" stroke="black" points="1344,-56.5 1344,-86.5 1454,-86.5 1454,-56.5 1344,-56.5"/>
<text text-anchor="start" x="1352" y="-74.5" font-family="Helvetica,sans-Serif" font-size="10.00">Runtime.PPCEABI.H/</text>
<text text-anchor="middle" x="1399" y="-63.5" font-family="Helvetica,sans-Serif" font-size="10.00">__va_arg.h</text>
</a>
</g>
</g>
<!-- Node25&#45;&gt;Node26 -->
<g id="edge52" class="edge">
<title>Node25&#45;&gt;Node26</title>
<path fill="none" stroke="midnightblue" d="M1380.83,-128.73C1383.51,-120.46 1387.64,-107.66 1391.29,-96.37"/>
<polygon fill="midnightblue" stroke="midnightblue" points="1394.7,-97.18 1394.45,-86.59 1388.04,-95.03 1394.7,-97.18"/>
</g>
<!-- Node27 -->
<g id="node27" class="node">
<title>Node27</title>
<g id="a_node27"><a xlink:href="dvd_8h.html" target="_top" xlink:title=" ">
<polygon fill="white" stroke="black" points="1472,-62 1472,-81 1564,-81 1564,-62 1472,-62"/>
<text text-anchor="middle" x="1518" y="-69" font-family="Helvetica,sans-Serif" font-size="10.00">dolphin/dvd/dvd.h</text>
</a>
</g>
</g>
<!-- Node25&#45;&gt;Node27 -->
<g id="edge55" class="edge">
<title>Node25&#45;&gt;Node27</title>
<path fill="none" stroke="midnightblue" d="M1396.59,-128.87C1420.54,-117.75 1462.39,-98.32 1490.15,-85.43"/>
<polygon fill="midnightblue" stroke="midnightblue" points="1491.74,-88.55 1499.33,-81.17 1488.79,-82.2 1491.74,-88.55"/>
</g>
<!-- Node26&#45;&gt;Node3 -->
<g id="edge53" class="edge">
<title>Node26&#45;&gt;Node3</title>
<path fill="none" stroke="midnightblue" d="M1343.74,-58.29C1339.11,-57.45 1334.48,-56.67 1330,-56 1167.19,-31.64 972.38,-18.7 881.87,-13.61"/>
<polygon fill="midnightblue" stroke="midnightblue" points="881.8,-10.1 871.62,-13.05 881.41,-17.09 881.8,-10.1"/>
</g>
<!-- Node27&#45;&gt;Node3 -->
<g id="edge56" class="edge">
<title>Node27&#45;&gt;Node3</title>
<path fill="none" stroke="midnightblue" d="M1489.67,-61.95C1481.17,-59.68 1471.77,-57.45 1463,-56 1249.02,-20.5 989.72,-12.99 881.87,-11.41"/>
<polygon fill="midnightblue" stroke="midnightblue" points="881.65,-7.91 871.6,-11.27 881.56,-14.91 881.65,-7.91"/>
</g>
<!-- Node28&#45;&gt;Node3 -->
<g id="edge61" class="edge">
<title>Node28&#45;&gt;Node3</title>
<path fill="none" stroke="midnightblue" d="M1212.18,-262.9C1193.73,-253.95 1165.33,-238.78 1144,-221 1069.9,-159.24 1084.74,-107.22 1003,-56 966.22,-32.95 917.95,-21.65 881.91,-16.14"/>
<polygon fill="midnightblue" stroke="midnightblue" points="882.01,-12.62 871.62,-14.67 881.02,-19.55 882.01,-12.62"/>
</g>
<!-- Node28&#45;&gt;Node22 -->
<g id="edge60" class="edge">
<title>Node28&#45;&gt;Node22</title>
<path fill="none" stroke="midnightblue" d="M1230.06,-262.73C1229.03,-253.18 1227.35,-237.62 1226.02,-225.28"/>
<polygon fill="midnightblue" stroke="midnightblue" points="1229.48,-224.7 1224.93,-215.13 1222.52,-225.44 1229.48,-224.7"/>
</g>
<!-- Node29&#45;&gt;Node3 -->
<g id="edge64" class="edge">
<title>Node29&#45;&gt;Node3</title>
<path fill="none" stroke="midnightblue" d="M1423.32,-257.34C1488.1,-222.06 1640.69,-127.92 1573,-56 1549.31,-30.83 1045.35,-16.27 881.77,-12.19"/>
<polygon fill="midnightblue" stroke="midnightblue" points="881.58,-8.68 871.5,-11.94 881.41,-15.68 881.58,-8.68"/>
</g>
<!-- Node29&#45;&gt;Node22 -->
<g id="edge63" class="edge">
<title>Node29&#45;&gt;Node22</title>
<path fill="none" stroke="midnightblue" d="M1358.68,-257.4C1328.1,-245.84 1285.27,-229.66 1256.18,-218.66"/>
<polygon fill="midnightblue" stroke="midnightblue" points="1257.1,-215.27 1246.51,-215.01 1254.63,-221.82 1257.1,-215.27"/>
</g>
</g>
</svg>
        <g id="navigator" transform="translate(0 0)" fill="#404254">
                <rect fill="#f2f5e9" fill-opacity="0.5" stroke="#606060" stroke-width=".5" x="0" y="0" width="60" height="60"/>
                <use id="zoomplus" xlink:href="#zoomPlus" x="17" y="9" onmousedown="handleZoom(evt,'in')"/>
                <use id="zoomminus" xlink:href="#zoomMin" x="42" y="9" onmousedown="handleZoom(evt,'out')"/>
                <use id="reset" xlink:href="#resetDef" x="30" y="36" onmousedown="handleReset()"/>
                <g id="arrowUp" xlink:href="#dirArrow" transform="translate(30 24)" onmousedown="handlePan(0,-1)">
                  <use xlink:href="#rim" fill="#404040">
                        <set attributeName="fill" to="#808080" begin="arrowUp.mouseover" end="arrowUp.mouseout"/>
                  </use>
                  <path fill="none" stroke="white" stroke-width="1.5" d="M0,-3.0v7 M-2.5,-0.5L0,-3.0L2.5,-0.5"/>
                </g>
                <g id="arrowRight" xlink:href="#dirArrow" transform="rotate(90) translate(36 -43)" onmousedown="handlePan(1,0)">
                  <use xlink:href="#rim" fill="#404040">
                        <set attributeName="fill" to="#808080" begin="arrowRight.mouseover" end="arrowRight.mouseout"/>
                  </use>
                  <path fill="none" stroke="white" stroke-width="1.5" d="M0,-3.0v7 M-2.5,-0.5L0,-3.0L2.5,-0.5"/>
                </g>
                <g id="arrowDown" xlink:href="#dirArrow" transform="rotate(180) translate(-30 -48)" onmousedown="handlePan(0,1)">
                  <use xlink:href="#rim" fill="#404040">
                        <set attributeName="fill" to="#808080" begin="arrowDown.mouseover" end="arrowDown.mouseout"/>
                  </use>
                  <path fill="none" stroke="white" stroke-width="1.5" d="M0,-3.0v7 M-2.5,-0.5L0,-3.0L2.5,-0.5"/>
                </g>
                <g id="arrowLeft" xlink:href="#dirArrow" transform="rotate(270) translate(-36 17)" onmousedown="handlePan(-1,0)">
                  <use xlink:href="#rim" fill="#404040">
                        <set attributeName="fill" to="#808080" begin="arrowLeft.mouseover" end="arrowLeft.mouseout"/>
                  </use>
                  <path fill="none" stroke="white" stroke-width="1.5" d="M0,-3.0v7 M-2.5,-0.5L0,-3.0L2.5,-0.5"/>
                </g>
        </g>
        <svg viewBox="0 0 15 15" width="100%" height="30px" preserveAspectRatio="xMaxYMin meet">
         <g id="arrow_out" transform="scale(0.3 0.3)">
          <a xlink:href="d__kankyo_8h__incl_org.svg" target="_base">
           <rect id="button" ry="5" rx="5" y="6" x="6" height="38" width="38"
                fill="#f2f5e9" fill-opacity="0.5" stroke="#606060" stroke-width="1.0"/>
           <path id="arrow"
             d="M 11.500037,31.436501 C 11.940474,20.09759 22.043105,11.32322 32.158766,21.979434 L 37.068811,17.246167 C 37.068811,17.246167 37.088388,32 37.088388,32 L 22.160133,31.978069 C 22.160133,31.978069 26.997745,27.140456 26.997745,27.140456 C 18.528582,18.264221 13.291696,25.230495 11.500037,31.436501 z"
             style="fill:#404040;"/>
          </a>
         </g>
        </svg>
</svg>
