<?xml version="1.0" encoding="UTF-8" standalone="no"?>
<!DOCTYPE svg PUBLIC "-//W3C//DTD SVG 1.1//EN"
 "http://www.w3.org/Graphics/SVG/1.1/DTD/svg11.dtd">
<!-- Generated by graphviz version 2.44.0 ()
 -->
<!-- Title: src/d/meter/d_meter_HIO.cpp Pages: 1 -->
<!--zoomable 296 -->
<svg id="main" version="1.1" xmlns="http://www.w3.org/2000/svg" xmlns:xlink="http://www.w3.org/1999/xlink" xml:space="preserve" onload="init(evt)">
<style type="text/css"><![CDATA[
.edge:hover path { stroke: red; }
.edge:hover polygon { stroke: red; fill: red; }
]]></style>
<script type="text/javascript"><![CDATA[
var edges = document.getElementsByTagName('g');
if (edges && edges.length) {
  for (var i=0;i<edges.length;i++) {
    if (edges[i].id.substr(0,4)=='edge') {
      edges[i].setAttribute('class','edge');
    }
  }
}
]]></script>
        <defs>
                <circle id="rim" cx="0" cy="0" r="7"/>
                <circle id="rim2" cx="0" cy="0" r="3.5"/>
                <g id="zoomPlus">
                        <use xlink:href="#rim" fill="#404040">
                                <set attributeName="fill" to="#808080" begin="zoomplus.mouseover" end="zoomplus.mouseout"/>
                        </use>
                        <path d="M-4,0h8M0,-4v8" fill="none" stroke="white" stroke-width="1.5" pointer-events="none"/>
                </g>
                <g id="zoomMin">
                        <use xlink:href="#rim" fill="#404040">
                                <set attributeName="fill" to="#808080" begin="zoomminus.mouseover" end="zoomminus.mouseout"/>
                        </use>
                        <path d="M-4,0h8" fill="none" stroke="white" stroke-width="1.5" pointer-events="none"/>
                </g>
                <g id="dirArrow">
                        <path fill="none" stroke="white" stroke-width="1.5" d="M0,-3.0v7 M-2.5,-0.5L0,-3.0L2.5,-0.5"/>
                </g>
               <g id="resetDef">
                       <use xlink:href="#rim2" fill="#404040">
                               <set attributeName="fill" to="#808080" begin="reset.mouseover" end="reset.mouseout"/>
                       </use>
               </g>
        </defs>

<script type="text/javascript">
var viewWidth = 5341;
var viewHeight = 296;
var sectionId = 'dynsection-0';
</script>
<script xlink:href="svgpan.js"/>
<svg id="graph" class="graph">
<g id="viewport">
<title>src/d/meter/d_meter_HIO.cpp</title>
<polygon fill="white" stroke="transparent" points="-4,4 -4,-292 5336.5,-292 5336.5,4 -4,4"/>
<!-- Node1 -->
<g id="node1" class="node">
<title>Node1</title>
<g id="a_node1"><a xlink:title=" ">
<polygon fill="#bfbfbf" stroke="black" points="2687.5,-257.5 2687.5,-287.5 2791.5,-287.5 2791.5,-257.5 2687.5,-257.5"/>
<text text-anchor="start" x="2695.5" y="-275.5" font-family="Helvetica,sans-Serif" font-size="10.00">src/d/meter/d_meter</text>
<text text-anchor="middle" x="2739.5" y="-264.5" font-family="Helvetica,sans-Serif" font-size="10.00">_HIO.cpp</text>
</a>
</g>
</g>
<!-- Node2 -->
<g id="node2" class="node">
<title>Node2</title>
<g id="a_node2"><a xlink:href="d__meter__HIO_8h.html" target="_top" xlink:title=" ">
<polygon fill="white" stroke="black" points="210,-190.5 210,-209.5 329,-209.5 329,-190.5 210,-190.5"/>
<text text-anchor="middle" x="269.5" y="-197.5" font-family="Helvetica,sans-Serif" font-size="10.00">d/meter/d_meter_HIO.h</text>
</a>
</g>
</g>
<!-- Node1&#45;&gt;Node2 -->
<g id="edge1" class="edge">
<title>Node1&#45;&gt;Node2</title>
<path fill="none" stroke="midnightblue" d="M2687.2,-271.77C2439.44,-272.76 1359.02,-273.67 475.5,-221 430.13,-218.3 379.3,-213.38 339.49,-209.1"/>
<polygon fill="midnightblue" stroke="midnightblue" points="339.67,-205.6 329.35,-208 338.92,-212.56 339.67,-205.6"/>
</g>
<!-- Node5 -->
<g id="node5" class="node">
<title>Node5</title>
<g id="a_node5"><a xlink:href="types_8h.html" target="_top" xlink:title=" ">
<polygon fill="white" stroke="black" points="124,-0.5 124,-19.5 205,-19.5 205,-0.5 124,-0.5"/>
<text text-anchor="middle" x="164.5" y="-7.5" font-family="Helvetica,sans-Serif" font-size="10.00">dolphin/types.h</text>
</a>
</g>
</g>
<!-- Node1&#45;&gt;Node5 -->
<g id="edge10" class="edge">
<title>Node1&#45;&gt;Node5</title>
<path fill="none" stroke="midnightblue" d="M2687.46,-271.13C2356.29,-268.69 555.13,-253.91 509.5,-221 467.77,-190.9 507.33,-147.93 470.5,-112 400.27,-43.49 282.66,-21.45 215.55,-14.36"/>
<polygon fill="midnightblue" stroke="midnightblue" points="215.52,-10.84 205.22,-13.34 214.83,-17.81 215.52,-10.84"/>
</g>
<!-- Node8 -->
<g id="node8" class="node">
<title>Node8</title>
<g id="a_node8"><a xlink:href="dol2asm_8h.html" target="_top" xlink:title=" ">
<polygon fill="white" stroke="black" points="518,-190.5 518,-209.5 579,-209.5 579,-190.5 518,-190.5"/>
<text text-anchor="middle" x="548.5" y="-197.5" font-family="Helvetica,sans-Serif" font-size="10.00">dol2asm.h</text>
</a>
</g>
</g>
<!-- Node1&#45;&gt;Node8 -->
<g id="edge9" class="edge">
<title>Node1&#45;&gt;Node8</title>
<path fill="none" stroke="midnightblue" d="M2687.46,-271.64C2379.07,-272.28 797.74,-272.99 588.5,-221 582.66,-219.55 576.69,-217.14 571.2,-214.49"/>
<polygon fill="midnightblue" stroke="midnightblue" points="572.46,-211.2 561.98,-209.62 569.19,-217.39 572.46,-211.2"/>
</g>
<!-- Node9 -->
<g id="node9" class="node">
<title>Node9</title>
<g id="a_node9"><a xlink:title=" ">
<polygon fill="white" stroke="#bfbfbf" points="597,-179.5 597,-220.5 710,-220.5 710,-179.5 597,-179.5"/>
<text text-anchor="start" x="605" y="-208.5" font-family="Helvetica,sans-Serif" font-size="10.00">asm/d/meter/d_meter</text>
<text text-anchor="start" x="605" y="-197.5" font-family="Helvetica,sans-Serif" font-size="10.00">_HIO/__ct__16dMeter</text>
<text text-anchor="middle" x="653.5" y="-186.5" font-family="Helvetica,sans-Serif" font-size="10.00">_menuHIO_cFv.s</text>
</a>
</g>
</g>
<!-- Node1&#45;&gt;Node9 -->
<g id="edge11" class="edge">
<title>Node1&#45;&gt;Node9</title>
<path fill="none" stroke="midnightblue" d="M2687.39,-271.04C2394.82,-268.32 961.52,-253.5 720.12,-220.7"/>
<polygon fill="midnightblue" stroke="midnightblue" points="720.56,-217.23 710.15,-219.22 719.53,-224.15 720.56,-217.23"/>
</g>
<!-- Node10 -->
<g id="node10" class="node">
<title>Node10</title>
<g id="a_node10"><a xlink:title=" ">
<polygon fill="white" stroke="#bfbfbf" points="728.5,-179.5 728.5,-220.5 848.5,-220.5 848.5,-179.5 728.5,-179.5"/>
<text text-anchor="start" x="736.5" y="-208.5" font-family="Helvetica,sans-Serif" font-size="10.00">asm/d/meter/d_meter</text>
<text text-anchor="start" x="736.5" y="-197.5" font-family="Helvetica,sans-Serif" font-size="10.00">_HIO/__ct__23dMeter</text>
<text text-anchor="middle" x="788.5" y="-186.5" font-family="Helvetica,sans-Serif" font-size="10.00">_drawCollectHIO_cFv.s</text>
</a>
</g>
</g>
<!-- Node1&#45;&gt;Node10 -->
<g id="edge12" class="edge">
<title>Node1&#45;&gt;Node10</title>
<path fill="none" stroke="midnightblue" d="M2687.31,-270.88C2402.64,-267.41 1043.35,-249.42 858.5,-221 858.4,-220.98 858.3,-220.97 858.2,-220.95"/>
<polygon fill="midnightblue" stroke="midnightblue" points="859.08,-217.56 848.62,-219.21 857.83,-224.44 859.08,-217.56"/>
</g>
<!-- Node11 -->
<g id="node11" class="node">
<title>Node11</title>
<g id="a_node11"><a xlink:title=" ">
<polygon fill="white" stroke="#bfbfbf" points="867,-179.5 867,-220.5 986,-220.5 986,-179.5 867,-179.5"/>
<text text-anchor="start" x="875" y="-208.5" font-family="Helvetica,sans-Serif" font-size="10.00">asm/d/meter/d_meter</text>
<text text-anchor="start" x="875" y="-197.5" font-family="Helvetica,sans-Serif" font-size="10.00">_HIO/__ct__22dMeter</text>
<text text-anchor="middle" x="926.5" y="-186.5" font-family="Helvetica,sans-Serif" font-size="10.00">_drawOptionHIO_cFv.s</text>
</a>
</g>
</g>
<!-- Node1&#45;&gt;Node11 -->
<g id="edge13" class="edge">
<title>Node1&#45;&gt;Node11</title>
<path fill="none" stroke="midnightblue" d="M2687.19,-271.77C2436.37,-272.78 1354.53,-274 996.26,-220.83"/>
<polygon fill="midnightblue" stroke="midnightblue" points="996.54,-217.34 986.13,-219.29 995.49,-224.26 996.54,-217.34"/>
</g>
<!-- Node12 -->
<g id="node12" class="node">
<title>Node12</title>
<g id="a_node12"><a xlink:title=" ">
<polygon fill="white" stroke="#bfbfbf" points="1004.5,-179.5 1004.5,-220.5 1120.5,-220.5 1120.5,-179.5 1004.5,-179.5"/>
<text text-anchor="start" x="1012.5" y="-208.5" font-family="Helvetica,sans-Serif" font-size="10.00">asm/d/meter/d_meter</text>
<text text-anchor="start" x="1012.5" y="-197.5" font-family="Helvetica,sans-Serif" font-size="10.00">_HIO/__ct__22dMeter</text>
<text text-anchor="middle" x="1062.5" y="-186.5" font-family="Helvetica,sans-Serif" font-size="10.00">_drawLetterHIO_cFv.s</text>
</a>
</g>
</g>
<!-- Node1&#45;&gt;Node12 -->
<g id="edge14" class="edge">
<title>Node1&#45;&gt;Node12</title>
<path fill="none" stroke="midnightblue" d="M2687.25,-271.67C2448.63,-272.2 1460.27,-271.31 1130.78,-220.94"/>
<polygon fill="midnightblue" stroke="midnightblue" points="1131.18,-217.46 1120.76,-219.36 1130.09,-224.37 1131.18,-217.46"/>
</g>
<!-- Node13 -->
<g id="node13" class="node">
<title>Node13</title>
<g id="a_node13"><a xlink:title=" ">
<polygon fill="white" stroke="#bfbfbf" points="1138.5,-179.5 1138.5,-220.5 1260.5,-220.5 1260.5,-179.5 1138.5,-179.5"/>
<text text-anchor="start" x="1146.5" y="-208.5" font-family="Helvetica,sans-Serif" font-size="10.00">asm/d/meter/d_meter</text>
<text text-anchor="start" x="1146.5" y="-197.5" font-family="Helvetica,sans-Serif" font-size="10.00">_HIO/__ct__23dMeter</text>
<text text-anchor="middle" x="1199.5" y="-186.5" font-family="Helvetica,sans-Serif" font-size="10.00">_drawFishingHIO_cFv.s</text>
</a>
</g>
</g>
<!-- Node1&#45;&gt;Node13 -->
<g id="edge15" class="edge">
<title>Node1&#45;&gt;Node13</title>
<path fill="none" stroke="midnightblue" d="M2687.35,-271.38C2462.25,-270.63 1572.26,-264.96 1270.91,-220.78"/>
<polygon fill="midnightblue" stroke="midnightblue" points="1271.29,-217.3 1260.87,-219.26 1270.24,-224.22 1271.29,-217.3"/>
</g>
<!-- Node14 -->
<g id="node14" class="node">
<title>Node14</title>
<g id="a_node14"><a xlink:title=" ">
<polygon fill="white" stroke="#bfbfbf" points="1279,-179.5 1279,-220.5 1396,-220.5 1396,-179.5 1279,-179.5"/>
<text text-anchor="start" x="1287" y="-208.5" font-family="Helvetica,sans-Serif" font-size="10.00">asm/d/meter/d_meter</text>
<text text-anchor="start" x="1287" y="-197.5" font-family="Helvetica,sans-Serif" font-size="10.00">_HIO/__ct__22dMeter</text>
<text text-anchor="middle" x="1337.5" y="-186.5" font-family="Helvetica,sans-Serif" font-size="10.00">_drawInsectHIO_cFv.s</text>
</a>
</g>
</g>
<!-- Node1&#45;&gt;Node14 -->
<g id="edge16" class="edge">
<title>Node1&#45;&gt;Node14</title>
<path fill="none" stroke="midnightblue" d="M2687.15,-271.25C2475.18,-269.98 1679.38,-262.58 1406.53,-220.88"/>
<polygon fill="midnightblue" stroke="midnightblue" points="1406.69,-217.36 1396.26,-219.25 1405.59,-224.27 1406.69,-217.36"/>
</g>
<!-- Node15 -->
<g id="node15" class="node">
<title>Node15</title>
<g id="a_node15"><a xlink:title=" ">
<polygon fill="white" stroke="#bfbfbf" points="1414.5,-179.5 1414.5,-220.5 1550.5,-220.5 1550.5,-179.5 1414.5,-179.5"/>
<text text-anchor="start" x="1422.5" y="-208.5" font-family="Helvetica,sans-Serif" font-size="10.00">asm/d/meter/d_meter</text>
<text text-anchor="start" x="1422.5" y="-197.5" font-family="Helvetica,sans-Serif" font-size="10.00">_HIO/__ct__27dMeter</text>
<text text-anchor="middle" x="1482.5" y="-186.5" font-family="Helvetica,sans-Serif" font-size="10.00">_drawCalibrationHIO_cFv.s</text>
</a>
</g>
</g>
<!-- Node1&#45;&gt;Node15 -->
<g id="edge17" class="edge">
<title>Node1&#45;&gt;Node15</title>
<path fill="none" stroke="midnightblue" d="M2687.32,-270.71C2491.89,-267.53 1802.58,-254.26 1560.95,-220.83"/>
<polygon fill="midnightblue" stroke="midnightblue" points="1561.22,-217.33 1550.82,-219.38 1560.22,-224.26 1561.22,-217.33"/>
</g>
<!-- Node16 -->
<g id="node16" class="node">
<title>Node16</title>
<g id="a_node16"><a xlink:title=" ">
<polygon fill="white" stroke="#bfbfbf" points="1569,-179.5 1569,-220.5 1682,-220.5 1682,-179.5 1569,-179.5"/>
<text text-anchor="start" x="1577" y="-208.5" font-family="Helvetica,sans-Serif" font-size="10.00">asm/d/meter/d_meter</text>
<text text-anchor="start" x="1577" y="-197.5" font-family="Helvetica,sans-Serif" font-size="10.00">_HIO/__ct__21dMeter</text>
<text text-anchor="middle" x="1625.5" y="-186.5" font-family="Helvetica,sans-Serif" font-size="10.00">_drawSkillHIO_cFv.s</text>
</a>
</g>
</g>
<!-- Node1&#45;&gt;Node16 -->
<g id="edge18" class="edge">
<title>Node1&#45;&gt;Node16</title>
<path fill="none" stroke="midnightblue" d="M2687.18,-270.68C2506.1,-267.58 1905.91,-255.06 1692.35,-220.84"/>
<polygon fill="midnightblue" stroke="midnightblue" points="1692.61,-217.33 1682.17,-219.14 1691.46,-224.24 1692.61,-217.33"/>
</g>
<!-- Node17 -->
<g id="node17" class="node">
<title>Node17</title>
<g id="a_node17"><a xlink:title=" ">
<polygon fill="white" stroke="#bfbfbf" points="1700.5,-179.5 1700.5,-220.5 1838.5,-220.5 1838.5,-179.5 1700.5,-179.5"/>
<text text-anchor="start" x="1708.5" y="-208.5" font-family="Helvetica,sans-Serif" font-size="10.00">asm/d/meter/d_meter</text>
<text text-anchor="start" x="1708.5" y="-197.5" font-family="Helvetica,sans-Serif" font-size="10.00">_HIO/__ct__25dMeter</text>
<text text-anchor="middle" x="1769.5" y="-186.5" font-family="Helvetica,sans-Serif" font-size="10.00">_drawEmpButtonHIO_cFv.s</text>
</a>
</g>
</g>
<!-- Node1&#45;&gt;Node17 -->
<g id="edge19" class="edge">
<title>Node1&#45;&gt;Node17</title>
<path fill="none" stroke="midnightblue" d="M2687.35,-272.07C2550.78,-272.82 2171.52,-270.06 1848.69,-221.02"/>
<polygon fill="midnightblue" stroke="midnightblue" points="1849.09,-217.54 1838.68,-219.48 1848.03,-224.46 1849.09,-217.54"/>
</g>
<!-- Node18 -->
<g id="node18" class="node">
<title>Node18</title>
<g id="a_node18"><a xlink:title=" ">
<polygon fill="white" stroke="#bfbfbf" points="1856.5,-179.5 1856.5,-220.5 1990.5,-220.5 1990.5,-179.5 1856.5,-179.5"/>
<text text-anchor="start" x="1864.5" y="-208.5" font-family="Helvetica,sans-Serif" font-size="10.00">asm/d/meter/d_meter</text>
<text text-anchor="start" x="1864.5" y="-197.5" font-family="Helvetica,sans-Serif" font-size="10.00">_HIO/__ct__24dMeter</text>
<text text-anchor="middle" x="1923.5" y="-186.5" font-family="Helvetica,sans-Serif" font-size="10.00">_drawMiniGameHIO_cFv.s</text>
</a>
</g>
</g>
<!-- Node1&#45;&gt;Node18 -->
<g id="edge20" class="edge">
<title>Node1&#45;&gt;Node18</title>
<path fill="none" stroke="midnightblue" d="M2687.07,-271.32C2566.98,-270.17 2262.76,-263.12 2000.98,-221.08"/>
<polygon fill="midnightblue" stroke="midnightblue" points="2001.33,-217.6 1990.9,-219.44 2000.21,-224.5 2001.33,-217.6"/>
</g>
<!-- Node19 -->
<g id="node19" class="node">
<title>Node19</title>
<g id="a_node19"><a xlink:title=" ">
<polygon fill="white" stroke="#bfbfbf" points="2008.5,-179.5 2008.5,-220.5 2140.5,-220.5 2140.5,-179.5 2008.5,-179.5"/>
<text text-anchor="start" x="2016.5" y="-208.5" font-family="Helvetica,sans-Serif" font-size="10.00">asm/d/meter/d_meter</text>
<text text-anchor="start" x="2016.5" y="-197.5" font-family="Helvetica,sans-Serif" font-size="10.00">_HIO/__ct__25dMeter</text>
<text text-anchor="middle" x="2074.5" y="-186.5" font-family="Helvetica,sans-Serif" font-size="10.00">_drawLightDropHIO_cFv.s</text>
</a>
</g>
</g>
<!-- Node1&#45;&gt;Node19 -->
<g id="edge21" class="edge">
<title>Node1&#45;&gt;Node19</title>
<path fill="none" stroke="midnightblue" d="M2687.11,-270.03C2583.78,-266.45 2346.69,-254.97 2150.5,-221 2150.4,-220.98 2150.3,-220.97 2150.2,-220.95"/>
<polygon fill="midnightblue" stroke="midnightblue" points="2151.15,-217.57 2140.67,-219.13 2149.84,-224.44 2151.15,-217.57"/>
</g>
<!-- Node20 -->
<g id="node20" class="node">
<title>Node20</title>
<g id="a_node20"><a xlink:title=" ">
<polygon fill="white" stroke="#bfbfbf" points="2159,-179.5 2159,-220.5 2272,-220.5 2272,-179.5 2159,-179.5"/>
<text text-anchor="start" x="2167" y="-208.5" font-family="Helvetica,sans-Serif" font-size="10.00">asm/d/meter/d_meter</text>
<text text-anchor="start" x="2167" y="-197.5" font-family="Helvetica,sans-Serif" font-size="10.00">_HIO/__ct__16dMeter</text>
<text text-anchor="middle" x="2215.5" y="-186.5" font-family="Helvetica,sans-Serif" font-size="10.00">_drawHIO_cFv.s</text>
</a>
</g>
</g>
<!-- Node1&#45;&gt;Node20 -->
<g id="edge22" class="edge">
<title>Node1&#45;&gt;Node20</title>
<path fill="none" stroke="midnightblue" d="M2687.16,-268.87C2603.41,-263.99 2434.15,-251.3 2282.19,-220.94"/>
<polygon fill="midnightblue" stroke="midnightblue" points="2282.71,-217.47 2272.21,-218.91 2281.32,-224.33 2282.71,-217.47"/>
</g>
<!-- Node21 -->
<g id="node21" class="node">
<title>Node21</title>
<g id="a_node21"><a xlink:title=" ">
<polygon fill="white" stroke="#bfbfbf" points="2290,-179.5 2290,-220.5 2403,-220.5 2403,-179.5 2290,-179.5"/>
<text text-anchor="start" x="2298" y="-208.5" font-family="Helvetica,sans-Serif" font-size="10.00">asm/d/meter/d_meter</text>
<text text-anchor="start" x="2298" y="-197.5" font-family="Helvetica,sans-Serif" font-size="10.00">_HIO/__ct__16dMeter</text>
<text text-anchor="middle" x="2346.5" y="-186.5" font-family="Helvetica,sans-Serif" font-size="10.00">_ringHIO_cFv.s</text>
</a>
</g>
</g>
<!-- Node1&#45;&gt;Node21 -->
<g id="edge23" class="edge">
<title>Node1&#45;&gt;Node21</title>
<path fill="none" stroke="midnightblue" d="M2687.25,-265.74C2624.37,-258.29 2515.49,-243.77 2413.13,-220.98"/>
<polygon fill="midnightblue" stroke="midnightblue" points="2413.77,-217.54 2403.25,-218.75 2412.23,-224.37 2413.77,-217.54"/>
</g>
<!-- Node22 -->
<g id="node22" class="node">
<title>Node22</title>
<g id="a_node22"><a xlink:title=" ">
<polygon fill="white" stroke="#bfbfbf" points="2421,-179.5 2421,-220.5 2534,-220.5 2534,-179.5 2421,-179.5"/>
<text text-anchor="start" x="2429" y="-208.5" font-family="Helvetica,sans-Serif" font-size="10.00">asm/d/meter/d_meter</text>
<text text-anchor="start" x="2429" y="-197.5" font-family="Helvetica,sans-Serif" font-size="10.00">_HIO/__ct__19dMeter</text>
<text text-anchor="middle" x="2477.5" y="-186.5" font-family="Helvetica,sans-Serif" font-size="10.00">_mapIconHIO_cFv.s</text>
</a>
</g>
</g>
<!-- Node1&#45;&gt;Node22 -->
<g id="edge24" class="edge">
<title>Node1&#45;&gt;Node22</title>
<path fill="none" stroke="midnightblue" d="M2687.34,-258.7C2650,-249.38 2598.31,-236.2 2544.12,-221.12"/>
<polygon fill="midnightblue" stroke="midnightblue" points="2544.91,-217.71 2534.34,-218.39 2543.03,-224.45 2544.91,-217.71"/>
</g>
<!-- Node23 -->
<g id="node23" class="node">
<title>Node23</title>
<g id="a_node23"><a xlink:title=" ">
<polygon fill="white" stroke="#bfbfbf" points="2552,-179.5 2552,-220.5 2665,-220.5 2665,-179.5 2552,-179.5"/>
<text text-anchor="start" x="2560" y="-208.5" font-family="Helvetica,sans-Serif" font-size="10.00">asm/d/meter/d_meter</text>
<text text-anchor="start" x="2560" y="-197.5" font-family="Helvetica,sans-Serif" font-size="10.00">_HIO/__ct__16dMeter</text>
<text text-anchor="middle" x="2608.5" y="-186.5" font-family="Helvetica,sans-Serif" font-size="10.00">_fmapHIO_cFv.s</text>
</a>
</g>
</g>
<!-- Node1&#45;&gt;Node23 -->
<g id="edge25" class="edge">
<title>Node1&#45;&gt;Node23</title>
<path fill="none" stroke="midnightblue" d="M2713.31,-257.4C2696.34,-248.27 2673.79,-236.14 2653.96,-225.47"/>
<polygon fill="midnightblue" stroke="midnightblue" points="2655.53,-222.34 2645.07,-220.68 2652.22,-228.5 2655.53,-222.34"/>
</g>
<!-- Node24 -->
<g id="node24" class="node">
<title>Node24</title>
<g id="a_node24"><a xlink:title=" ">
<polygon fill="white" stroke="#bfbfbf" points="2683,-179.5 2683,-220.5 2796,-220.5 2796,-179.5 2683,-179.5"/>
<text text-anchor="start" x="2691" y="-208.5" font-family="Helvetica,sans-Serif" font-size="10.00">asm/d/meter/d_meter</text>
<text text-anchor="start" x="2691" y="-197.5" font-family="Helvetica,sans-Serif" font-size="10.00">_HIO/__dt__16dMeter</text>
<text text-anchor="middle" x="2739.5" y="-186.5" font-family="Helvetica,sans-Serif" font-size="10.00">_fmapHIO_cFv.s</text>
</a>
</g>
</g>
<!-- Node1&#45;&gt;Node24 -->
<g id="edge26" class="edge">
<title>Node1&#45;&gt;Node24</title>
<path fill="none" stroke="midnightblue" d="M2739.5,-257.23C2739.5,-249.57 2739.5,-239.84 2739.5,-230.63"/>
<polygon fill="midnightblue" stroke="midnightblue" points="2743,-230.59 2739.5,-220.59 2736,-230.59 2743,-230.59"/>
</g>
<!-- Node25 -->
<g id="node25" class="node">
<title>Node25</title>
<g id="a_node25"><a xlink:title=" ">
<polygon fill="white" stroke="#bfbfbf" points="2814,-179.5 2814,-220.5 2927,-220.5 2927,-179.5 2814,-179.5"/>
<text text-anchor="start" x="2822" y="-208.5" font-family="Helvetica,sans-Serif" font-size="10.00">asm/d/meter/d_meter</text>
<text text-anchor="start" x="2822" y="-197.5" font-family="Helvetica,sans-Serif" font-size="10.00">_HIO/__ct__18dMeter</text>
<text text-anchor="middle" x="2870.5" y="-186.5" font-family="Helvetica,sans-Serif" font-size="10.00">_cursorHIO_cFv.s</text>
</a>
</g>
</g>
<!-- Node1&#45;&gt;Node25 -->
<g id="edge27" class="edge">
<title>Node1&#45;&gt;Node25</title>
<path fill="none" stroke="midnightblue" d="M2765.69,-257.4C2782.66,-248.27 2805.21,-236.14 2825.04,-225.47"/>
<polygon fill="midnightblue" stroke="midnightblue" points="2826.78,-228.5 2833.93,-220.68 2823.47,-222.34 2826.78,-228.5"/>
</g>
<!-- Node26 -->
<g id="node26" class="node">
<title>Node26</title>
<g id="a_node26"><a xlink:title=" ">
<polygon fill="white" stroke="#bfbfbf" points="2945.5,-179.5 2945.5,-220.5 3077.5,-220.5 3077.5,-179.5 2945.5,-179.5"/>
<text text-anchor="start" x="2953.5" y="-208.5" font-family="Helvetica,sans-Serif" font-size="10.00">asm/d/meter/d_meter</text>
<text text-anchor="start" x="2953.5" y="-197.5" font-family="Helvetica,sans-Serif" font-size="10.00">_HIO/__dt__25dMeter</text>
<text text-anchor="middle" x="3011.5" y="-186.5" font-family="Helvetica,sans-Serif" font-size="10.00">_drawLightDropHIO_cFv.s</text>
</a>
</g>
</g>
<!-- Node1&#45;&gt;Node26 -->
<g id="edge28" class="edge">
<title>Node1&#45;&gt;Node26</title>
<path fill="none" stroke="midnightblue" d="M2791.8,-258.24C2829.27,-248.71 2881.19,-235.43 2935.46,-221.26"/>
<polygon fill="midnightblue" stroke="midnightblue" points="2936.47,-224.62 2945.26,-218.7 2934.7,-217.84 2936.47,-224.62"/>
</g>
<!-- Node27 -->
<g id="node27" class="node">
<title>Node27</title>
<g id="a_node27"><a xlink:title=" ">
<polygon fill="white" stroke="#bfbfbf" points="3095.5,-179.5 3095.5,-220.5 3233.5,-220.5 3233.5,-179.5 3095.5,-179.5"/>
<text text-anchor="start" x="3103.5" y="-208.5" font-family="Helvetica,sans-Serif" font-size="10.00">asm/d/meter/d_meter</text>
<text text-anchor="start" x="3103.5" y="-197.5" font-family="Helvetica,sans-Serif" font-size="10.00">_HIO/__dt__25dMeter</text>
<text text-anchor="middle" x="3164.5" y="-186.5" font-family="Helvetica,sans-Serif" font-size="10.00">_drawEmpButtonHIO_cFv.s</text>
</a>
</g>
</g>
<!-- Node1&#45;&gt;Node27 -->
<g id="edge29" class="edge">
<title>Node1&#45;&gt;Node27</title>
<path fill="none" stroke="midnightblue" d="M2791.53,-265.68C2857.66,-257.9 2975.48,-242.73 3085.34,-221.13"/>
<polygon fill="midnightblue" stroke="midnightblue" points="3086.14,-224.54 3095.27,-219.16 3084.77,-217.68 3086.14,-224.54"/>
</g>
<!-- Node28 -->
<g id="node28" class="node">
<title>Node28</title>
<g id="a_node28"><a xlink:title=" ">
<polygon fill="white" stroke="#bfbfbf" points="3251.5,-179.5 3251.5,-220.5 3385.5,-220.5 3385.5,-179.5 3251.5,-179.5"/>
<text text-anchor="start" x="3259.5" y="-208.5" font-family="Helvetica,sans-Serif" font-size="10.00">asm/d/meter/d_meter</text>
<text text-anchor="start" x="3259.5" y="-197.5" font-family="Helvetica,sans-Serif" font-size="10.00">_HIO/__dt__24dMeter</text>
<text text-anchor="middle" x="3318.5" y="-186.5" font-family="Helvetica,sans-Serif" font-size="10.00">_drawMiniGameHIO_cFv.s</text>
</a>
</g>
</g>
<!-- Node1&#45;&gt;Node28 -->
<g id="edge30" class="edge">
<title>Node1&#45;&gt;Node28</title>
<path fill="none" stroke="midnightblue" d="M2791.65,-268.97C2881.66,-264.02 3072.05,-250.95 3241.64,-221.01"/>
<polygon fill="midnightblue" stroke="midnightblue" points="3242.26,-224.45 3251.49,-219.24 3241.03,-217.56 3242.26,-224.45"/>
</g>
<!-- Node29 -->
<g id="node29" class="node">
<title>Node29</title>
<g id="a_node29"><a xlink:title=" ">
<polygon fill="white" stroke="#bfbfbf" points="3404,-179.5 3404,-220.5 3517,-220.5 3517,-179.5 3404,-179.5"/>
<text text-anchor="start" x="3412" y="-208.5" font-family="Helvetica,sans-Serif" font-size="10.00">asm/d/meter/d_meter</text>
<text text-anchor="start" x="3412" y="-197.5" font-family="Helvetica,sans-Serif" font-size="10.00">_HIO/__dt__21dMeter</text>
<text text-anchor="middle" x="3460.5" y="-186.5" font-family="Helvetica,sans-Serif" font-size="10.00">_drawSkillHIO_cFv.s</text>
</a>
</g>
</g>
<!-- Node1&#45;&gt;Node29 -->
<g id="edge31" class="edge">
<title>Node1&#45;&gt;Node29</title>
<path fill="none" stroke="midnightblue" d="M2791.8,-271.31C2901.84,-270.07 3165.25,-262.78 3393.65,-220.92"/>
<polygon fill="midnightblue" stroke="midnightblue" points="3394.62,-224.3 3403.81,-219.03 3393.34,-217.42 3394.62,-224.3"/>
</g>
<!-- Node30 -->
<g id="node30" class="node">
<title>Node30</title>
<g id="a_node30"><a xlink:title=" ">
<polygon fill="white" stroke="#bfbfbf" points="3535.5,-179.5 3535.5,-220.5 3671.5,-220.5 3671.5,-179.5 3535.5,-179.5"/>
<text text-anchor="start" x="3543.5" y="-208.5" font-family="Helvetica,sans-Serif" font-size="10.00">asm/d/meter/d_meter</text>
<text text-anchor="start" x="3543.5" y="-197.5" font-family="Helvetica,sans-Serif" font-size="10.00">_HIO/__dt__27dMeter</text>
<text text-anchor="middle" x="3603.5" y="-186.5" font-family="Helvetica,sans-Serif" font-size="10.00">_drawCalibrationHIO_cFv.s</text>
</a>
</g>
</g>
<!-- Node1&#45;&gt;Node30 -->
<g id="edge32" class="edge">
<title>Node1&#45;&gt;Node30</title>
<path fill="none" stroke="midnightblue" d="M2791.91,-271.56C2917.34,-270.98 3244.62,-265.12 3525.25,-221.04"/>
<polygon fill="midnightblue" stroke="midnightblue" points="3525.88,-224.48 3535.21,-219.46 3524.78,-217.57 3525.88,-224.48"/>
</g>
<!-- Node31 -->
<g id="node31" class="node">
<title>Node31</title>
<g id="a_node31"><a xlink:title=" ">
<polygon fill="white" stroke="#bfbfbf" points="3690,-179.5 3690,-220.5 3807,-220.5 3807,-179.5 3690,-179.5"/>
<text text-anchor="start" x="3698" y="-208.5" font-family="Helvetica,sans-Serif" font-size="10.00">asm/d/meter/d_meter</text>
<text text-anchor="start" x="3698" y="-197.5" font-family="Helvetica,sans-Serif" font-size="10.00">_HIO/__dt__22dMeter</text>
<text text-anchor="middle" x="3748.5" y="-186.5" font-family="Helvetica,sans-Serif" font-size="10.00">_drawInsectHIO_cFv.s</text>
</a>
</g>
</g>
<!-- Node1&#45;&gt;Node31 -->
<g id="edge33" class="edge">
<title>Node1&#45;&gt;Node31</title>
<path fill="none" stroke="midnightblue" d="M2791.74,-270.29C2960.14,-266.16 3488.44,-251.21 3679.78,-220.84"/>
<polygon fill="midnightblue" stroke="midnightblue" points="3680.43,-224.28 3689.73,-219.19 3679.29,-217.37 3680.43,-224.28"/>
</g>
<!-- Node32 -->
<g id="node32" class="node">
<title>Node32</title>
<g id="a_node32"><a xlink:title=" ">
<polygon fill="white" stroke="#bfbfbf" points="3825.5,-179.5 3825.5,-220.5 3947.5,-220.5 3947.5,-179.5 3825.5,-179.5"/>
<text text-anchor="start" x="3833.5" y="-208.5" font-family="Helvetica,sans-Serif" font-size="10.00">asm/d/meter/d_meter</text>
<text text-anchor="start" x="3833.5" y="-197.5" font-family="Helvetica,sans-Serif" font-size="10.00">_HIO/__dt__23dMeter</text>
<text text-anchor="middle" x="3886.5" y="-186.5" font-family="Helvetica,sans-Serif" font-size="10.00">_drawFishingHIO_cFv.s</text>
</a>
</g>
</g>
<!-- Node1&#45;&gt;Node32 -->
<g id="edge34" class="edge">
<title>Node1&#45;&gt;Node32</title>
<path fill="none" stroke="midnightblue" d="M2791.62,-270.65C2975.74,-267.41 3595.83,-254.37 3815.09,-220.98"/>
<polygon fill="midnightblue" stroke="midnightblue" points="3815.89,-224.4 3825.22,-219.38 3814.8,-217.48 3815.89,-224.4"/>
</g>
<!-- Node33 -->
<g id="node33" class="node">
<title>Node33</title>
<g id="a_node33"><a xlink:title=" ">
<polygon fill="white" stroke="#bfbfbf" points="3965.5,-179.5 3965.5,-220.5 4081.5,-220.5 4081.5,-179.5 3965.5,-179.5"/>
<text text-anchor="start" x="3973.5" y="-208.5" font-family="Helvetica,sans-Serif" font-size="10.00">asm/d/meter/d_meter</text>
<text text-anchor="start" x="3973.5" y="-197.5" font-family="Helvetica,sans-Serif" font-size="10.00">_HIO/__dt__22dMeter</text>
<text text-anchor="middle" x="4023.5" y="-186.5" font-family="Helvetica,sans-Serif" font-size="10.00">_drawLetterHIO_cFv.s</text>
</a>
</g>
</g>
<!-- Node1&#45;&gt;Node33 -->
<g id="edge35" class="edge">
<title>Node1&#45;&gt;Node33</title>
<path fill="none" stroke="midnightblue" d="M2791.66,-271.06C2991.26,-269.11 3707.26,-259.63 3955.2,-220.95"/>
<polygon fill="midnightblue" stroke="midnightblue" points="3955.92,-224.37 3965.24,-219.32 3954.81,-217.46 3955.92,-224.37"/>
</g>
<!-- Node34 -->
<g id="node34" class="node">
<title>Node34</title>
<g id="a_node34"><a xlink:title=" ">
<polygon fill="white" stroke="#bfbfbf" points="4100,-179.5 4100,-220.5 4219,-220.5 4219,-179.5 4100,-179.5"/>
<text text-anchor="start" x="4108" y="-208.5" font-family="Helvetica,sans-Serif" font-size="10.00">asm/d/meter/d_meter</text>
<text text-anchor="start" x="4108" y="-197.5" font-family="Helvetica,sans-Serif" font-size="10.00">_HIO/__dt__22dMeter</text>
<text text-anchor="middle" x="4159.5" y="-186.5" font-family="Helvetica,sans-Serif" font-size="10.00">_drawOptionHIO_cFv.s</text>
</a>
</g>
</g>
<!-- Node1&#45;&gt;Node34 -->
<g id="edge36" class="edge">
<title>Node1&#45;&gt;Node34</title>
<path fill="none" stroke="midnightblue" d="M2791.78,-271.25C3005.43,-269.98 3813.51,-262.58 4089.87,-220.82"/>
<polygon fill="midnightblue" stroke="midnightblue" points="4090.53,-224.26 4099.87,-219.25 4089.44,-217.34 4090.53,-224.26"/>
</g>
<!-- Node35 -->
<g id="node35" class="node">
<title>Node35</title>
<g id="a_node35"><a xlink:title=" ">
<polygon fill="white" stroke="#bfbfbf" points="4237.5,-179.5 4237.5,-220.5 4357.5,-220.5 4357.5,-179.5 4237.5,-179.5"/>
<text text-anchor="start" x="4245.5" y="-208.5" font-family="Helvetica,sans-Serif" font-size="10.00">asm/d/meter/d_meter</text>
<text text-anchor="start" x="4245.5" y="-197.5" font-family="Helvetica,sans-Serif" font-size="10.00">_HIO/__dt__23dMeter</text>
<text text-anchor="middle" x="4297.5" y="-186.5" font-family="Helvetica,sans-Serif" font-size="10.00">_drawCollectHIO_cFv.s</text>
</a>
</g>
</g>
<!-- Node1&#45;&gt;Node35 -->
<g id="edge37" class="edge">
<title>Node1&#45;&gt;Node35</title>
<path fill="none" stroke="midnightblue" d="M2791.6,-271.46C3018.51,-271.04 3922.43,-266.59 4227.33,-220.92"/>
<polygon fill="midnightblue" stroke="midnightblue" points="4228.14,-224.33 4237.49,-219.35 4227.07,-217.42 4228.14,-224.33"/>
</g>
<!-- Node36 -->
<g id="node36" class="node">
<title>Node36</title>
<g id="a_node36"><a xlink:title=" ">
<polygon fill="white" stroke="#bfbfbf" points="4376,-179.5 4376,-220.5 4489,-220.5 4489,-179.5 4376,-179.5"/>
<text text-anchor="start" x="4384" y="-208.5" font-family="Helvetica,sans-Serif" font-size="10.00">asm/d/meter/d_meter</text>
<text text-anchor="start" x="4384" y="-197.5" font-family="Helvetica,sans-Serif" font-size="10.00">_HIO/__dt__19dMeter</text>
<text text-anchor="middle" x="4432.5" y="-186.5" font-family="Helvetica,sans-Serif" font-size="10.00">_mapIconHIO_cFv.s</text>
</a>
</g>
</g>
<!-- Node1&#45;&gt;Node36 -->
<g id="edge38" class="edge">
<title>Node1&#45;&gt;Node36</title>
<path fill="none" stroke="midnightblue" d="M2791.9,-271.72C3032.34,-272.47 4032.15,-272.45 4365.69,-220.82"/>
<polygon fill="midnightblue" stroke="midnightblue" points="4366.52,-224.24 4375.84,-219.2 4365.42,-217.32 4366.52,-224.24"/>
</g>
<!-- Node37 -->
<g id="node37" class="node">
<title>Node37</title>
<g id="a_node37"><a xlink:title=" ">
<polygon fill="white" stroke="#bfbfbf" points="4507.5,-179.5 4507.5,-220.5 4677.5,-220.5 4677.5,-179.5 4507.5,-179.5"/>
<text text-anchor="start" x="4515.5" y="-208.5" font-family="Helvetica,sans-Serif" font-size="10.00">asm/d/meter/d_meter</text>
<text text-anchor="start" x="4515.5" y="-197.5" font-family="Helvetica,sans-Serif" font-size="10.00">_HIO/__ct__Q216dMeter</text>
<text text-anchor="middle" x="4592.5" y="-186.5" font-family="Helvetica,sans-Serif" font-size="10.00">_fmapHIO_c13MapBlinkAnimeFv.s</text>
</a>
</g>
</g>
<!-- Node1&#45;&gt;Node37 -->
<g id="edge39" class="edge">
<title>Node1&#45;&gt;Node37</title>
<path fill="none" stroke="midnightblue" d="M2791.76,-271.28C3043.69,-270 4135.02,-262.21 4497.32,-221"/>
<polygon fill="midnightblue" stroke="midnightblue" points="4497.78,-224.47 4507.31,-219.83 4496.97,-217.51 4497.78,-224.47"/>
</g>
<!-- Node38 -->
<g id="node38" class="node">
<title>Node38</title>
<g id="a_node38"><a xlink:title=" ">
<polygon fill="white" stroke="#bfbfbf" points="4696,-179.5 4696,-220.5 4809,-220.5 4809,-179.5 4696,-179.5"/>
<text text-anchor="start" x="4704" y="-208.5" font-family="Helvetica,sans-Serif" font-size="10.00">asm/d/meter/d_meter</text>
<text text-anchor="start" x="4704" y="-197.5" font-family="Helvetica,sans-Serif" font-size="10.00">_HIO/__dt__18dMeter</text>
<text text-anchor="middle" x="4752.5" y="-186.5" font-family="Helvetica,sans-Serif" font-size="10.00">_cursorHIO_cFv.s</text>
</a>
</g>
</g>
<!-- Node1&#45;&gt;Node38 -->
<g id="edge40" class="edge">
<title>Node1&#45;&gt;Node38</title>
<path fill="none" stroke="midnightblue" d="M2791.61,-270.98C3077.68,-268.03 4452.46,-252.41 4685.9,-220.7"/>
<polygon fill="midnightblue" stroke="midnightblue" points="4686.47,-224.15 4695.85,-219.22 4685.44,-217.22 4686.47,-224.15"/>
</g>
<!-- Node39 -->
<g id="node39" class="node">
<title>Node39</title>
<g id="a_node39"><a xlink:title=" ">
<polygon fill="white" stroke="#bfbfbf" points="4827,-179.5 4827,-220.5 4940,-220.5 4940,-179.5 4827,-179.5"/>
<text text-anchor="start" x="4835" y="-208.5" font-family="Helvetica,sans-Serif" font-size="10.00">asm/d/meter/d_meter</text>
<text text-anchor="start" x="4835" y="-197.5" font-family="Helvetica,sans-Serif" font-size="10.00">_HIO/__dt__16dMeter</text>
<text text-anchor="middle" x="4883.5" y="-186.5" font-family="Helvetica,sans-Serif" font-size="10.00">_ringHIO_cFv.s</text>
</a>
</g>
</g>
<!-- Node1&#45;&gt;Node39 -->
<g id="edge41" class="edge">
<title>Node1&#45;&gt;Node39</title>
<path fill="none" stroke="midnightblue" d="M2791.65,-271.09C3089.36,-268.62 4569.01,-254.83 4816.77,-220.91"/>
<polygon fill="midnightblue" stroke="midnightblue" points="4817.62,-224.32 4827,-219.38 4816.59,-217.4 4817.62,-224.32"/>
</g>
<!-- Node40 -->
<g id="node40" class="node">
<title>Node40</title>
<g id="a_node40"><a xlink:title=" ">
<polygon fill="white" stroke="#bfbfbf" points="4958,-179.5 4958,-220.5 5071,-220.5 5071,-179.5 4958,-179.5"/>
<text text-anchor="start" x="4966" y="-208.5" font-family="Helvetica,sans-Serif" font-size="10.00">asm/d/meter/d_meter</text>
<text text-anchor="start" x="4966" y="-197.5" font-family="Helvetica,sans-Serif" font-size="10.00">_HIO/__dt__16dMeter</text>
<text text-anchor="middle" x="5014.5" y="-186.5" font-family="Helvetica,sans-Serif" font-size="10.00">_drawHIO_cFv.s</text>
</a>
</g>
</g>
<!-- Node1&#45;&gt;Node40 -->
<g id="edge42" class="edge">
<title>Node1&#45;&gt;Node40</title>
<path fill="none" stroke="midnightblue" d="M2791.59,-271.17C3100.42,-269.09 4686.33,-256.83 4947.89,-220.9"/>
<polygon fill="midnightblue" stroke="midnightblue" points="4948.62,-224.33 4958,-219.39 4947.59,-217.4 4948.62,-224.33"/>
</g>
<!-- Node41 -->
<g id="node41" class="node">
<title>Node41</title>
<g id="a_node41"><a xlink:title=" ">
<polygon fill="white" stroke="#bfbfbf" points="5089,-179.5 5089,-220.5 5202,-220.5 5202,-179.5 5089,-179.5"/>
<text text-anchor="start" x="5097" y="-208.5" font-family="Helvetica,sans-Serif" font-size="10.00">asm/d/meter/d_meter</text>
<text text-anchor="start" x="5097" y="-197.5" font-family="Helvetica,sans-Serif" font-size="10.00">_HIO/__dt__16dMeter</text>
<text text-anchor="middle" x="5145.5" y="-186.5" font-family="Helvetica,sans-Serif" font-size="10.00">_menuHIO_cFv.s</text>
</a>
</g>
</g>
<!-- Node1&#45;&gt;Node41 -->
<g id="edge43" class="edge">
<title>Node1&#45;&gt;Node41</title>
<path fill="none" stroke="midnightblue" d="M2791.75,-271.24C3111.97,-269.53 4804.11,-258.83 5079.1,-220.87"/>
<polygon fill="midnightblue" stroke="midnightblue" points="5079.63,-224.33 5089,-219.39 5078.59,-217.41 5079.63,-224.33"/>
</g>
<!-- Node42 -->
<g id="node42" class="node">
<title>Node42</title>
<g id="a_node42"><a xlink:title=" ">
<polygon fill="white" stroke="#bfbfbf" points="5220.5,-179.5 5220.5,-220.5 5332.5,-220.5 5332.5,-179.5 5220.5,-179.5"/>
<text text-anchor="start" x="5228.5" y="-208.5" font-family="Helvetica,sans-Serif" font-size="10.00">asm/d/meter/d_meter</text>
<text text-anchor="start" x="5228.5" y="-197.5" font-family="Helvetica,sans-Serif" font-size="10.00">_HIO/__sinit_d_meter</text>
<text text-anchor="middle" x="5276.5" y="-186.5" font-family="Helvetica,sans-Serif" font-size="10.00">_HIO_cpp.s</text>
</a>
</g>
</g>
<!-- Node1&#45;&gt;Node42 -->
<g id="edge44" class="edge">
<title>Node1&#45;&gt;Node42</title>
<path fill="none" stroke="midnightblue" d="M2791.67,-271.3C3122.21,-269.95 4920.43,-260.85 5210.31,-220.82"/>
<polygon fill="midnightblue" stroke="midnightblue" points="5210.98,-224.26 5220.36,-219.32 5209.95,-217.33 5210.98,-224.26"/>
</g>
<!-- Node3 -->
<g id="node3" class="node">
<title>Node3</title>
<g id="a_node3"><a xlink:href="JUtility_8h.html" target="_top" xlink:title=" ">
<polygon fill="white" stroke="black" points="60,-118 60,-137 155,-137 155,-118 60,-118"/>
<text text-anchor="middle" x="107.5" y="-125" font-family="Helvetica,sans-Serif" font-size="10.00">JSystem/JUtility.h</text>
</a>
</g>
</g>
<!-- Node2&#45;&gt;Node3 -->
<g id="edge2" class="edge">
<title>Node2&#45;&gt;Node3</title>
<path fill="none" stroke="midnightblue" d="M249.96,-190.5C221.74,-178.22 169.38,-155.43 136.61,-141.17"/>
<polygon fill="midnightblue" stroke="midnightblue" points="137.68,-137.82 127.11,-137.03 134.88,-144.23 137.68,-137.82"/>
</g>
<!-- Node2&#45;&gt;Node5 -->
<g id="edge8" class="edge">
<title>Node2&#45;&gt;Node5</title>
<path fill="none" stroke="midnightblue" d="M254.74,-190.4C239.46,-180.75 215.99,-163.7 202.5,-143 179.15,-107.16 169.86,-56.74 166.4,-29.77"/>
<polygon fill="midnightblue" stroke="midnightblue" points="169.87,-29.29 165.25,-19.75 162.91,-30.09 169.87,-29.29"/>
</g>
<!-- Node6 -->
<g id="node6" class="node">
<title>Node6</title>
<g id="a_node6"><a xlink:title=" ">
<polygon fill="white" stroke="#bfbfbf" points="211.5,-112.5 211.5,-142.5 327.5,-142.5 327.5,-112.5 211.5,-112.5"/>
<text text-anchor="start" x="219.5" y="-130.5" font-family="Helvetica,sans-Serif" font-size="10.00">SSystem/SComponent</text>
<text text-anchor="middle" x="269.5" y="-119.5" font-family="Helvetica,sans-Serif" font-size="10.00">/c_Xyz.h</text>
</a>
</g>
</g>
<!-- Node2&#45;&gt;Node6 -->
<g id="edge6" class="edge">
<title>Node2&#45;&gt;Node6</title>
<path fill="none" stroke="midnightblue" d="M269.5,-190.36C269.5,-181.05 269.5,-165.83 269.5,-152.81"/>
<polygon fill="midnightblue" stroke="midnightblue" points="273,-152.58 269.5,-142.58 266,-152.58 273,-152.58"/>
</g>
<!-- Node7 -->
<g id="node7" class="node">
<title>Node7</title>
<g id="a_node7"><a xlink:title=" ">
<polygon fill="white" stroke="#bfbfbf" points="345.5,-112.5 345.5,-142.5 461.5,-142.5 461.5,-112.5 345.5,-112.5"/>
<text text-anchor="start" x="353.5" y="-130.5" font-family="Helvetica,sans-Serif" font-size="10.00">SSystem/SComponent</text>
<text text-anchor="middle" x="403.5" y="-119.5" font-family="Helvetica,sans-Serif" font-size="10.00">/c_sXyz.h</text>
</a>
</g>
</g>
<!-- Node2&#45;&gt;Node7 -->
<g id="edge7" class="edge">
<title>Node2&#45;&gt;Node7</title>
<path fill="none" stroke="midnightblue" d="M285.66,-190.5C305.9,-179.85 341.15,-161.3 367.84,-147.26"/>
<polygon fill="midnightblue" stroke="midnightblue" points="369.66,-150.26 376.88,-142.51 366.4,-144.06 369.66,-150.26"/>
</g>
<!-- Node4 -->
<g id="node4" class="node">
<title>Node4</title>
<g id="a_node4"><a xlink:href="GXTexture_8h.html" target="_top" xlink:title=" ">
<polygon fill="white" stroke="black" points="0,-56.5 0,-75.5 117,-75.5 117,-56.5 0,-56.5"/>
<text text-anchor="middle" x="58.5" y="-63.5" font-family="Helvetica,sans-Serif" font-size="10.00">dolphin/gx/GXTexture.h</text>
</a>
</g>
</g>
<!-- Node3&#45;&gt;Node4 -->
<g id="edge3" class="edge">
<title>Node3&#45;&gt;Node4</title>
<path fill="none" stroke="midnightblue" d="M100.48,-117.98C93.06,-108.96 81.17,-94.52 71.93,-83.31"/>
<polygon fill="midnightblue" stroke="midnightblue" points="74.57,-81 65.51,-75.51 69.16,-85.45 74.57,-81"/>
</g>
<!-- Node3&#45;&gt;Node5 -->
<g id="edge5" class="edge">
<title>Node3&#45;&gt;Node5</title>
<path fill="none" stroke="midnightblue" d="M111.78,-117.82C121.07,-99.01 143.21,-54.15 155.64,-28.96"/>
<polygon fill="midnightblue" stroke="midnightblue" points="158.88,-30.3 160.17,-19.78 152.6,-27.2 158.88,-30.3"/>
</g>
<!-- Node4&#45;&gt;Node5 -->
<g id="edge4" class="edge">
<title>Node4&#45;&gt;Node5</title>
<path fill="none" stroke="midnightblue" d="M75.53,-56.32C92.53,-47.66 118.88,-34.24 138.49,-24.25"/>
<polygon fill="midnightblue" stroke="midnightblue" points="140.19,-27.31 147.51,-19.65 137.01,-21.08 140.19,-27.31"/>
</g>
</g>
</svg>
        <g id="navigator" transform="translate(0 0)" fill="#404254">
                <rect fill="#f2f5e9" fill-opacity="0.5" stroke="#606060" stroke-width=".5" x="0" y="0" width="60" height="60"/>
                <use id="zoomplus" xlink:href="#zoomPlus" x="17" y="9" onmousedown="handleZoom(evt,'in')"/>
                <use id="zoomminus" xlink:href="#zoomMin" x="42" y="9" onmousedown="handleZoom(evt,'out')"/>
                <use id="reset" xlink:href="#resetDef" x="30" y="36" onmousedown="handleReset()"/>
                <g id="arrowUp" xlink:href="#dirArrow" transform="translate(30 24)" onmousedown="handlePan(0,-1)">
                  <use xlink:href="#rim" fill="#404040">
                        <set attributeName="fill" to="#808080" begin="arrowUp.mouseover" end="arrowUp.mouseout"/>
                  </use>
                  <path fill="none" stroke="white" stroke-width="1.5" d="M0,-3.0v7 M-2.5,-0.5L0,-3.0L2.5,-0.5"/>
                </g>
                <g id="arrowRight" xlink:href="#dirArrow" transform="rotate(90) translate(36 -43)" onmousedown="handlePan(1,0)">
                  <use xlink:href="#rim" fill="#404040">
                        <set attributeName="fill" to="#808080" begin="arrowRight.mouseover" end="arrowRight.mouseout"/>
                  </use>
                  <path fill="none" stroke="white" stroke-width="1.5" d="M0,-3.0v7 M-2.5,-0.5L0,-3.0L2.5,-0.5"/>
                </g>
                <g id="arrowDown" xlink:href="#dirArrow" transform="rotate(180) translate(-30 -48)" onmousedown="handlePan(0,1)">
                  <use xlink:href="#rim" fill="#404040">
                        <set attributeName="fill" to="#808080" begin="arrowDown.mouseover" end="arrowDown.mouseout"/>
                  </use>
                  <path fill="none" stroke="white" stroke-width="1.5" d="M0,-3.0v7 M-2.5,-0.5L0,-3.0L2.5,-0.5"/>
                </g>
                <g id="arrowLeft" xlink:href="#dirArrow" transform="rotate(270) translate(-36 17)" onmousedown="handlePan(-1,0)">
                  <use xlink:href="#rim" fill="#404040">
                        <set attributeName="fill" to="#808080" begin="arrowLeft.mouseover" end="arrowLeft.mouseout"/>
                  </use>
                  <path fill="none" stroke="white" stroke-width="1.5" d="M0,-3.0v7 M-2.5,-0.5L0,-3.0L2.5,-0.5"/>
                </g>
        </g>
        <svg viewBox="0 0 15 15" width="100%" height="30px" preserveAspectRatio="xMaxYMin meet">
         <g id="arrow_out" transform="scale(0.3 0.3)">
          <a xlink:href="d__meter__HIO_8cpp__incl_org.svg" target="_base">
           <rect id="button" ry="5" rx="5" y="6" x="6" height="38" width="38"
                fill="#f2f5e9" fill-opacity="0.5" stroke="#606060" stroke-width="1.0"/>
           <path id="arrow"
             d="M 11.500037,31.436501 C 11.940474,20.09759 22.043105,11.32322 32.158766,21.979434 L 37.068811,17.246167 C 37.068811,17.246167 37.088388,32 37.088388,32 L 22.160133,31.978069 C 22.160133,31.978069 26.997745,27.140456 26.997745,27.140456 C 18.528582,18.264221 13.291696,25.230495 11.500037,31.436501 z"
             style="fill:#404040;"/>
          </a>
         </g>
        </svg>
</svg>
