<?xml version="1.0" encoding="UTF-8" standalone="no"?>
<!DOCTYPE svg PUBLIC "-//W3C//DTD SVG 1.1//EN"
 "http://www.w3.org/Graphics/SVG/1.1/DTD/svg11.dtd">
<!-- Generated by graphviz version 2.44.0 ()
 -->
<!-- Title: include/d/meter/d_meter_HIO.h Pages: 1 -->
<!--zoomable 475 -->
<svg id="main" version="1.1" xmlns="http://www.w3.org/2000/svg" xmlns:xlink="http://www.w3.org/1999/xlink" xml:space="preserve" onload="init(evt)">
<style type="text/css"><![CDATA[
.edge:hover path { stroke: red; }
.edge:hover polygon { stroke: red; fill: red; }
]]></style>
<script type="text/javascript"><![CDATA[
var edges = document.getElementsByTagName('g');
if (edges && edges.length) {
  for (var i=0;i<edges.length;i++) {
    if (edges[i].id.substr(0,4)=='edge') {
      edges[i].setAttribute('class','edge');
    }
  }
}
]]></script>
        <defs>
                <circle id="rim" cx="0" cy="0" r="7"/>
                <circle id="rim2" cx="0" cy="0" r="3.5"/>
                <g id="zoomPlus">
                        <use xlink:href="#rim" fill="#404040">
                                <set attributeName="fill" to="#808080" begin="zoomplus.mouseover" end="zoomplus.mouseout"/>
                        </use>
                        <path d="M-4,0h8M0,-4v8" fill="none" stroke="white" stroke-width="1.5" pointer-events="none"/>
                </g>
                <g id="zoomMin">
                        <use xlink:href="#rim" fill="#404040">
                                <set attributeName="fill" to="#808080" begin="zoomminus.mouseover" end="zoomminus.mouseout"/>
                        </use>
                        <path d="M-4,0h8" fill="none" stroke="white" stroke-width="1.5" pointer-events="none"/>
                </g>
                <g id="dirArrow">
                        <path fill="none" stroke="white" stroke-width="1.5" d="M0,-3.0v7 M-2.5,-0.5L0,-3.0L2.5,-0.5"/>
                </g>
               <g id="resetDef">
                       <use xlink:href="#rim2" fill="#404040">
                               <set attributeName="fill" to="#808080" begin="reset.mouseover" end="reset.mouseout"/>
                       </use>
               </g>
        </defs>

<script type="text/javascript">
var viewWidth = 1990;
var viewHeight = 475;
var sectionId = 'dynsection-0';
</script>
<script xlink:href="svgpan.js"/>
<svg id="graph" class="graph">
<g id="viewport">
<title>include/d/meter/d_meter_HIO.h</title>
<polygon fill="white" stroke="transparent" points="-4,4 -4,-471 1986,-471 1986,4 -4,4"/>
<!-- Node1 -->
<g id="node1" class="node">
<title>Node1</title>
<g id="a_node1"><a xlink:title=" ">
<polygon fill="#bfbfbf" stroke="black" points="1412,-436.5 1412,-466.5 1534,-466.5 1534,-436.5 1412,-436.5"/>
<text text-anchor="start" x="1420" y="-454.5" font-family="Helvetica,sans-Serif" font-size="10.00">include/d/meter/d_meter</text>
<text text-anchor="middle" x="1473" y="-443.5" font-family="Helvetica,sans-Serif" font-size="10.00">_HIO.h</text>
</a>
</g>
</g>
<!-- Node2 -->
<g id="node2" class="node">
<title>Node2</title>
<g id="a_node2"><a xlink:href="JKRArchive_8h.html" target="_top" xlink:title=" ">
<polygon fill="white" stroke="black" points="535.5,-308 535.5,-327 688.5,-327 688.5,-308 535.5,-308"/>
<text text-anchor="middle" x="612" y="-315" font-family="Helvetica,sans-Serif" font-size="10.00">JSystem/JKernel/JKRArchive.h</text>
</a>
</g>
</g>
<!-- Node1&#45;&gt;Node2 -->
<g id="edge1" class="edge">
<title>Node1&#45;&gt;Node2</title>
<path fill="none" stroke="midnightblue" d="M1411.77,-441.11C1254.91,-417.06 839.65,-353.4 677.85,-328.6"/>
<polygon fill="midnightblue" stroke="midnightblue" points="677.98,-325.07 667.56,-327.02 676.92,-331.99 677.98,-325.07"/>
</g>
<!-- Node8 -->
<g id="node8" class="node">
<title>Node8</title>
<g id="a_node8"><a xlink:href="types_8h.html" target="_top" xlink:title=" ">
<polygon fill="white" stroke="black" points="1030.5,-0.5 1030.5,-19.5 1111.5,-19.5 1111.5,-0.5 1030.5,-0.5"/>
<text text-anchor="middle" x="1071" y="-7.5" font-family="Helvetica,sans-Serif" font-size="10.00">dolphin/types.h</text>
</a>
</g>
</g>
<!-- Node1&#45;&gt;Node8 -->
<g id="edge40" class="edge">
<title>Node1&#45;&gt;Node8</title>
<path fill="none" stroke="midnightblue" d="M1411.58,-448.27C1132.81,-437.75 0,-390.55 0,-318.5 0,-318.5 0,-318.5 0,-126.5 0,-22.59 807.21,-12.05 1020.06,-11.08"/>
<polygon fill="midnightblue" stroke="midnightblue" points="1020.34,-14.57 1030.32,-11.03 1020.31,-7.57 1020.34,-14.57"/>
</g>
<!-- Node16 -->
<g id="node16" class="node">
<title>Node16</title>
<g id="a_node16"><a xlink:href="JUtility_8h.html" target="_top" xlink:title=" ">
<polygon fill="white" stroke="black" points="1694.5,-118 1694.5,-137 1789.5,-137 1789.5,-118 1694.5,-118"/>
<text text-anchor="middle" x="1742" y="-125" font-family="Helvetica,sans-Serif" font-size="10.00">JSystem/JUtility.h</text>
</a>
</g>
</g>
<!-- Node1&#45;&gt;Node16 -->
<g id="edge34" class="edge">
<title>Node1&#45;&gt;Node16</title>
<path fill="none" stroke="midnightblue" d="M1534.3,-442.29C1602.73,-429.28 1704,-396.79 1704,-318.5 1704,-318.5 1704,-318.5 1704,-249.5 1704,-211.31 1721.44,-169.33 1732.69,-146.22"/>
<polygon fill="midnightblue" stroke="midnightblue" points="1735.96,-147.52 1737.34,-137.02 1729.71,-144.36 1735.96,-147.52"/>
</g>
<!-- Node18 -->
<g id="node18" class="node">
<title>Node18</title>
<g id="a_node18"><a xlink:title=" ">
<polygon fill="white" stroke="#bfbfbf" points="1732,-369.5 1732,-399.5 1848,-399.5 1848,-369.5 1732,-369.5"/>
<text text-anchor="start" x="1740" y="-387.5" font-family="Helvetica,sans-Serif" font-size="10.00">SSystem/SComponent</text>
<text text-anchor="middle" x="1790" y="-376.5" font-family="Helvetica,sans-Serif" font-size="10.00">/c_Xyz.h</text>
</a>
</g>
</g>
<!-- Node1&#45;&gt;Node18 -->
<g id="edge38" class="edge">
<title>Node1&#45;&gt;Node18</title>
<path fill="none" stroke="midnightblue" d="M1534.12,-437.97C1587.81,-426.96 1665.84,-410.96 1721.6,-399.53"/>
<polygon fill="midnightblue" stroke="midnightblue" points="1722.65,-402.88 1731.74,-397.45 1721.24,-396.03 1722.65,-402.88"/>
</g>
<!-- Node19 -->
<g id="node19" class="node">
<title>Node19</title>
<g id="a_node19"><a xlink:title=" ">
<polygon fill="white" stroke="#bfbfbf" points="1866,-369.5 1866,-399.5 1982,-399.5 1982,-369.5 1866,-369.5"/>
<text text-anchor="start" x="1874" y="-387.5" font-family="Helvetica,sans-Serif" font-size="10.00">SSystem/SComponent</text>
<text text-anchor="middle" x="1924" y="-376.5" font-family="Helvetica,sans-Serif" font-size="10.00">/c_sXyz.h</text>
</a>
</g>
</g>
<!-- Node1&#45;&gt;Node19 -->
<g id="edge39" class="edge">
<title>Node1&#45;&gt;Node19</title>
<path fill="none" stroke="midnightblue" d="M1534.09,-444.04C1607.97,-435.87 1736.29,-420.57 1855.89,-400.11"/>
<polygon fill="midnightblue" stroke="midnightblue" points="1856.69,-403.52 1865.95,-398.37 1855.5,-396.62 1856.69,-403.52"/>
</g>
<!-- Node20 -->
<g id="node20" class="node">
<title>Node20</title>
<g id="a_node20"><a xlink:href="m__Do__ext_8h.html" target="_top" xlink:title=" ">
<polygon fill="white" stroke="black" points="1186,-375 1186,-394 1282,-394 1282,-375 1186,-375"/>
<text text-anchor="middle" x="1234" y="-382" font-family="Helvetica,sans-Serif" font-size="10.00">m_Do/m_Do_ext.h</text>
</a>
</g>
</g>
<!-- Node1&#45;&gt;Node20 -->
<g id="edge41" class="edge">
<title>Node1&#45;&gt;Node20</title>
<path fill="none" stroke="midnightblue" d="M1421.43,-436.48C1377.66,-424.57 1315.68,-407.72 1275.17,-396.7"/>
<polygon fill="midnightblue" stroke="midnightblue" points="1275.93,-393.28 1265.36,-394.03 1274.09,-400.03 1275.93,-393.28"/>
</g>
<!-- Node3 -->
<g id="node3" class="node">
<title>Node3</title>
<g id="a_node3"><a xlink:href="JKRCompression_8h.html" target="_top" xlink:title=" ">
<polygon fill="white" stroke="black" points="27.5,-179.5 27.5,-198.5 204.5,-198.5 204.5,-179.5 27.5,-179.5"/>
<text text-anchor="middle" x="116" y="-186.5" font-family="Helvetica,sans-Serif" font-size="10.00">JSystem/JKernel/JKRCompression.h</text>
</a>
</g>
</g>
<!-- Node2&#45;&gt;Node3 -->
<g id="edge2" class="edge">
<title>Node2&#45;&gt;Node3</title>
<path fill="none" stroke="midnightblue" d="M535.21,-314.13C460.58,-309.91 344.94,-298.23 250,-266 206.47,-251.22 160.98,-222.03 135.79,-204.44"/>
<polygon fill="midnightblue" stroke="midnightblue" points="137.65,-201.46 127.47,-198.53 133.6,-207.17 137.65,-201.46"/>
</g>
<!-- Node4 -->
<g id="node4" class="node">
<title>Node4</title>
<g id="a_node4"><a xlink:href="JKRDecomp_8h.html" target="_top" xlink:title=" ">
<polygon fill="white" stroke="black" points="259,-241 259,-260 415,-260 415,-241 259,-241"/>
<text text-anchor="middle" x="337" y="-248" font-family="Helvetica,sans-Serif" font-size="10.00">JSystem/JKernel/JKRDecomp.h</text>
</a>
</g>
</g>
<!-- Node2&#45;&gt;Node4 -->
<g id="edge3" class="edge">
<title>Node2&#45;&gt;Node4</title>
<path fill="none" stroke="midnightblue" d="M575.77,-307.94C526.3,-296.24 437.61,-275.28 383.35,-262.46"/>
<polygon fill="midnightblue" stroke="midnightblue" points="383.85,-258.98 373.31,-260.08 382.24,-265.79 383.85,-258.98"/>
</g>
<!-- Node11 -->
<g id="node11" class="node">
<title>Node11</title>
<g id="a_node11"><a xlink:href="JKRDvdFile_8h.html" target="_top" xlink:title=" ">
<polygon fill="white" stroke="black" points="535.5,-241 535.5,-260 688.5,-260 688.5,-241 535.5,-241"/>
<text text-anchor="middle" x="612" y="-248" font-family="Helvetica,sans-Serif" font-size="10.00">JSystem/JKernel/JKRDvdFile.h</text>
</a>
</g>
</g>
<!-- Node2&#45;&gt;Node11 -->
<g id="edge17" class="edge">
<title>Node2&#45;&gt;Node11</title>
<path fill="none" stroke="midnightblue" d="M612,-307.73C612,-298.18 612,-282.62 612,-270.28"/>
<polygon fill="midnightblue" stroke="midnightblue" points="615.5,-270.13 612,-260.13 608.5,-270.13 615.5,-270.13"/>
</g>
<!-- Node13 -->
<g id="node13" class="node">
<title>Node13</title>
<g id="a_node13"><a xlink:href="JKRFileLoader_8h.html" target="_top" xlink:title=" ">
<polygon fill="white" stroke="black" points="260,-179.5 260,-198.5 426,-198.5 426,-179.5 260,-179.5"/>
<text text-anchor="middle" x="343" y="-186.5" font-family="Helvetica,sans-Serif" font-size="10.00">JSystem/JKernel/JKRFileLoader.h</text>
</a>
</g>
</g>
<!-- Node2&#45;&gt;Node13 -->
<g id="edge24" class="edge">
<title>Node2&#45;&gt;Node13</title>
<path fill="none" stroke="midnightblue" d="M593.51,-307.81C547.04,-285.95 425.17,-228.64 370.38,-202.87"/>
<polygon fill="midnightblue" stroke="midnightblue" points="371.8,-199.68 361.26,-198.59 368.82,-206.01 371.8,-199.68"/>
</g>
<!-- Node14 -->
<g id="node14" class="node">
<title>Node14</title>
<g id="a_node14"><a xlink:href="JKRHeap_8h.html" target="_top" xlink:title=" ">
<polygon fill="white" stroke="black" points="880.5,-179.5 880.5,-198.5 1023.5,-198.5 1023.5,-179.5 880.5,-179.5"/>
<text text-anchor="middle" x="952" y="-186.5" font-family="Helvetica,sans-Serif" font-size="10.00">JSystem/JKernel/JKRHeap.h</text>
</a>
</g>
</g>
<!-- Node2&#45;&gt;Node14 -->
<g id="edge28" class="edge">
<title>Node2&#45;&gt;Node14</title>
<path fill="none" stroke="midnightblue" d="M628.31,-307.9C645.95,-298.38 674.69,-282.21 698,-266 715.89,-253.56 716.33,-244.38 736,-235 762.15,-222.53 832.8,-209.09 886.24,-200.18"/>
<polygon fill="midnightblue" stroke="midnightblue" points="887.04,-203.59 896.34,-198.51 885.9,-196.68 887.04,-203.59"/>
</g>
<!-- Node15 -->
<g id="node15" class="node">
<title>Node15</title>
<g id="a_node15"><a xlink:href="global_8h.html" target="_top" xlink:title=" ">
<polygon fill="white" stroke="black" points="1271,-241 1271,-260 1321,-260 1321,-241 1271,-241"/>
<text text-anchor="middle" x="1296" y="-248" font-family="Helvetica,sans-Serif" font-size="10.00">global.h</text>
</a>
</g>
</g>
<!-- Node2&#45;&gt;Node15 -->
<g id="edge32" class="edge">
<title>Node2&#45;&gt;Node15</title>
<path fill="none" stroke="midnightblue" d="M688.78,-313.12C805.2,-307.33 1033.13,-293.4 1225,-266 1236.73,-264.33 1249.44,-261.92 1260.81,-259.55"/>
<polygon fill="midnightblue" stroke="midnightblue" points="1261.78,-262.92 1270.83,-257.4 1260.31,-256.08 1261.78,-262.92"/>
</g>
<!-- Node4&#45;&gt;Node3 -->
<g id="edge4" class="edge">
<title>Node4&#45;&gt;Node3</title>
<path fill="none" stroke="midnightblue" d="M305.34,-240.98C266.44,-230.5 200.36,-212.71 157.45,-201.16"/>
<polygon fill="midnightblue" stroke="midnightblue" points="158.17,-197.73 147.61,-198.51 156.35,-204.49 158.17,-197.73"/>
</g>
<!-- Node5 -->
<g id="node5" class="node">
<title>Node5</title>
<g id="a_node5"><a xlink:href="JKRThread_8h.html" target="_top" xlink:title=" ">
<polygon fill="white" stroke="black" points="444,-179.5 444,-198.5 594,-198.5 594,-179.5 444,-179.5"/>
<text text-anchor="middle" x="519" y="-186.5" font-family="Helvetica,sans-Serif" font-size="10.00">JSystem/JKernel/JKRThread.h</text>
</a>
</g>
</g>
<!-- Node4&#45;&gt;Node5 -->
<g id="edge5" class="edge">
<title>Node4&#45;&gt;Node5</title>
<path fill="none" stroke="midnightblue" d="M363.08,-240.98C394.57,-230.68 447.7,-213.31 483.06,-201.75"/>
<polygon fill="midnightblue" stroke="midnightblue" points="484.55,-204.94 492.97,-198.51 482.38,-198.29 484.55,-204.94"/>
</g>
<!-- Node4&#45;&gt;Node8 -->
<g id="edge16" class="edge">
<title>Node4&#45;&gt;Node8</title>
<path fill="none" stroke="midnightblue" d="M309.56,-240.94C279.04,-229.8 235.87,-208.23 251,-179 294.54,-94.9 335.79,-87.8 425,-56 534.29,-17.04 887.31,-11.65 1019.97,-11.03"/>
<polygon fill="midnightblue" stroke="midnightblue" points="1020.27,-14.52 1030.26,-10.98 1020.24,-7.52 1020.27,-14.52"/>
</g>
<!-- Node6 -->
<g id="node6" class="node">
<title>Node6</title>
<g id="a_node6"><a xlink:href="JKRDisposer_8h.html" target="_top" xlink:title=" ">
<polygon fill="white" stroke="black" points="511,-118 511,-137 669,-137 669,-118 511,-118"/>
<text text-anchor="middle" x="590" y="-125" font-family="Helvetica,sans-Serif" font-size="10.00">JSystem/JKernel/JKRDisposer.h</text>
</a>
</g>
</g>
<!-- Node5&#45;&gt;Node6 -->
<g id="edge6" class="edge">
<title>Node5&#45;&gt;Node6</title>
<path fill="none" stroke="midnightblue" d="M529.17,-179.48C540.35,-170.11 558.52,-154.88 572.09,-143.51"/>
<polygon fill="midnightblue" stroke="midnightblue" points="574.43,-146.11 579.85,-137.01 569.93,-140.75 574.43,-146.11"/>
</g>
<!-- Node7 -->
<g id="node7" class="node">
<title>Node7</title>
<g id="a_node7"><a xlink:href="JSUList_8h.html" target="_top" xlink:title=" ">
<polygon fill="white" stroke="black" points="480.5,-56.5 480.5,-75.5 623.5,-75.5 623.5,-56.5 480.5,-56.5"/>
<text text-anchor="middle" x="552" y="-63.5" font-family="Helvetica,sans-Serif" font-size="10.00">JSystem/JSupport/JSUList.h</text>
</a>
</g>
</g>
<!-- Node5&#45;&gt;Node7 -->
<g id="edge10" class="edge">
<title>Node5&#45;&gt;Node7</title>
<path fill="none" stroke="midnightblue" d="M513.59,-179.21C505.38,-164.68 491.77,-134.97 502,-112 507.57,-99.5 518.52,-89.01 528.75,-81.32"/>
<polygon fill="midnightblue" stroke="midnightblue" points="530.85,-84.12 537.05,-75.53 526.84,-78.38 530.85,-84.12"/>
</g>
<!-- Node5&#45;&gt;Node8 -->
<g id="edge15" class="edge">
<title>Node5&#45;&gt;Node8</title>
<path fill="none" stroke="midnightblue" d="M510.62,-179.41C489.24,-156.47 436.67,-93 471,-56 508,-16.12 882.11,-11.35 1020.17,-10.95"/>
<polygon fill="midnightblue" stroke="midnightblue" points="1020.48,-14.45 1030.47,-10.93 1020.46,-7.45 1020.48,-14.45"/>
</g>
<!-- Node9 -->
<g id="node9" class="node">
<title>Node9</title>
<g id="a_node9"><a xlink:href="OS_8h.html" target="_top" xlink:title=" ">
<polygon fill="white" stroke="black" points="725,-118 725,-137 811,-137 811,-118 725,-118"/>
<text text-anchor="middle" x="768" y="-125" font-family="Helvetica,sans-Serif" font-size="10.00">dolphin/os/OS.h</text>
</a>
</g>
</g>
<!-- Node5&#45;&gt;Node9 -->
<g id="edge11" class="edge">
<title>Node5&#45;&gt;Node9</title>
<path fill="none" stroke="midnightblue" d="M554.68,-179.48C598.87,-168.92 674.21,-150.91 722.51,-139.37"/>
<polygon fill="midnightblue" stroke="midnightblue" points="723.48,-142.74 732.39,-137.01 721.85,-135.93 723.48,-142.74"/>
</g>
<!-- Node6&#45;&gt;Node7 -->
<g id="edge7" class="edge">
<title>Node6&#45;&gt;Node7</title>
<path fill="none" stroke="midnightblue" d="M584.56,-117.98C578.91,-109.14 569.94,-95.09 562.84,-83.98"/>
<polygon fill="midnightblue" stroke="midnightblue" points="565.77,-82.05 557.43,-75.51 559.87,-85.82 565.77,-82.05"/>
</g>
<!-- Node6&#45;&gt;Node8 -->
<g id="edge9" class="edge">
<title>Node6&#45;&gt;Node8</title>
<path fill="none" stroke="midnightblue" d="M598.23,-117.72C613.35,-102.23 647.28,-70.35 683,-56 743.06,-31.87 929.29,-18.7 1020.13,-13.57"/>
<polygon fill="midnightblue" stroke="midnightblue" points="1020.4,-17.06 1030.2,-13.01 1020.02,-10.07 1020.4,-17.06"/>
</g>
<!-- Node7&#45;&gt;Node8 -->
<g id="edge8" class="edge">
<title>Node7&#45;&gt;Node8</title>
<path fill="none" stroke="midnightblue" d="M623.62,-57.55C730.16,-46.46 927.77,-25.9 1020.49,-16.26"/>
<polygon fill="midnightblue" stroke="midnightblue" points="1020.88,-19.73 1030.47,-15.22 1020.16,-12.77 1020.88,-19.73"/>
</g>
<!-- Node9&#45;&gt;Node8 -->
<g id="edge12" class="edge">
<title>Node9&#45;&gt;Node8</title>
<path fill="none" stroke="midnightblue" d="M764.97,-117.89C760.41,-103.22 753.85,-73.32 769,-56 801.1,-19.29 943.06,-12.1 1020.38,-10.96"/>
<polygon fill="midnightblue" stroke="midnightblue" points="1020.43,-14.46 1030.38,-10.85 1020.34,-7.47 1020.43,-14.46"/>
</g>
<!-- Node10 -->
<g id="node10" class="node">
<title>Node10</title>
<g id="a_node10"><a xlink:href="dvd_8h.html" target="_top" xlink:title=" ">
<polygon fill="white" stroke="black" points="778,-56.5 778,-75.5 870,-75.5 870,-56.5 778,-56.5"/>
<text text-anchor="middle" x="824" y="-63.5" font-family="Helvetica,sans-Serif" font-size="10.00">dolphin/dvd/dvd.h</text>
</a>
</g>
</g>
<!-- Node9&#45;&gt;Node10 -->
<g id="edge13" class="edge">
<title>Node9&#45;&gt;Node10</title>
<path fill="none" stroke="midnightblue" d="M776.02,-117.98C784.59,-108.87 798.36,-94.24 808.96,-82.98"/>
<polygon fill="midnightblue" stroke="midnightblue" points="811.69,-85.19 815.99,-75.51 806.59,-80.39 811.69,-85.19"/>
</g>
<!-- Node10&#45;&gt;Node8 -->
<g id="edge14" class="edge">
<title>Node10&#45;&gt;Node8</title>
<path fill="none" stroke="midnightblue" d="M863.14,-56.44C906.23,-47.02 975.56,-31.87 1022.17,-21.68"/>
<polygon fill="midnightblue" stroke="midnightblue" points="1023.02,-25.07 1032.05,-19.52 1021.53,-18.23 1023.02,-25.07"/>
</g>
<!-- Node11&#45;&gt;Node8 -->
<g id="edge23" class="edge">
<title>Node11&#45;&gt;Node8</title>
<path fill="none" stroke="midnightblue" d="M662.59,-240.95C701.63,-233.19 756.33,-219.74 801,-199 905.47,-150.5 1012.89,-61.75 1053.79,-26.26"/>
<polygon fill="midnightblue" stroke="midnightblue" points="1056.26,-28.75 1061.48,-19.53 1051.65,-23.48 1056.26,-28.75"/>
</g>
<!-- Node11&#45;&gt;Node9 -->
<g id="edge22" class="edge">
<title>Node11&#45;&gt;Node9</title>
<path fill="none" stroke="midnightblue" d="M681.36,-240.93C708.8,-234.01 738.22,-221.52 757,-199 768.88,-184.76 770.63,-163.07 770.03,-147.51"/>
<polygon fill="midnightblue" stroke="midnightblue" points="773.51,-147.18 769.29,-137.46 766.53,-147.69 773.51,-147.18"/>
</g>
<!-- Node11&#45;&gt;Node10 -->
<g id="edge21" class="edge">
<title>Node11&#45;&gt;Node10</title>
<path fill="none" stroke="midnightblue" d="M666.54,-240.99C700.02,-233.82 742.54,-221.07 775,-199 801.4,-181.05 808.61,-172.83 820,-143 827.05,-124.53 827.23,-101.67 826.15,-85.88"/>
<polygon fill="midnightblue" stroke="midnightblue" points="829.63,-85.43 825.23,-75.79 822.66,-86.07 829.63,-85.43"/>
</g>
<!-- Node12 -->
<g id="node12" class="node">
<title>Node12</title>
<g id="a_node12"><a xlink:href="JKRFile_8h.html" target="_top" xlink:title=" ">
<polygon fill="white" stroke="black" points="612,-179.5 612,-198.5 748,-198.5 748,-179.5 612,-179.5"/>
<text text-anchor="middle" x="680" y="-186.5" font-family="Helvetica,sans-Serif" font-size="10.00">JSystem/JKernel/JKRFile.h</text>
</a>
</g>
</g>
<!-- Node11&#45;&gt;Node12 -->
<g id="edge18" class="edge">
<title>Node11&#45;&gt;Node12</title>
<path fill="none" stroke="midnightblue" d="M621.74,-240.98C632.35,-231.7 649.52,-216.67 662.48,-205.33"/>
<polygon fill="midnightblue" stroke="midnightblue" points="665.05,-207.73 670.28,-198.51 660.44,-202.46 665.05,-207.73"/>
</g>
<!-- Node12&#45;&gt;Node6 -->
<g id="edge19" class="edge">
<title>Node12&#45;&gt;Node6</title>
<path fill="none" stroke="midnightblue" d="M667.11,-179.48C652.54,-169.84 628.6,-154.02 611.25,-142.55"/>
<polygon fill="midnightblue" stroke="midnightblue" points="613.14,-139.6 602.87,-137.01 609.28,-145.44 613.14,-139.6"/>
</g>
<!-- Node12&#45;&gt;Node8 -->
<g id="edge20" class="edge">
<title>Node12&#45;&gt;Node8</title>
<path fill="none" stroke="midnightblue" d="M681.97,-179.19C688,-154.52 708.77,-84.71 756,-56 799.37,-29.64 942.77,-17.93 1020.25,-13.43"/>
<polygon fill="midnightblue" stroke="midnightblue" points="1020.49,-16.92 1030.28,-12.87 1020.1,-9.93 1020.49,-16.92"/>
</g>
<!-- Node13&#45;&gt;Node6 -->
<g id="edge25" class="edge">
<title>Node13&#45;&gt;Node6</title>
<path fill="none" stroke="midnightblue" d="M378.39,-179.48C422.23,-168.92 496.97,-150.91 544.88,-139.37"/>
<polygon fill="midnightblue" stroke="midnightblue" points="545.77,-142.75 554.68,-137.01 544.13,-135.95 545.77,-142.75"/>
</g>
<!-- Node13&#45;&gt;Node7 -->
<g id="edge26" class="edge">
<title>Node13&#45;&gt;Node7</title>
<path fill="none" stroke="midnightblue" d="M357.7,-179.49C393.36,-158.84 484.75,-105.93 528.27,-80.74"/>
<polygon fill="midnightblue" stroke="midnightblue" points="530.14,-83.7 537.04,-75.66 526.63,-77.64 530.14,-83.7"/>
</g>
<!-- Node13&#45;&gt;Node8 -->
<g id="edge27" class="edge">
<title>Node13&#45;&gt;Node8</title>
<path fill="none" stroke="midnightblue" d="M347.4,-179.16C360.25,-154.42 400.46,-84.42 457,-56 506.68,-31.03 881.24,-16.92 1019.73,-12.52"/>
<polygon fill="midnightblue" stroke="midnightblue" points="1020.18,-16 1030.07,-12.19 1019.96,-9.01 1020.18,-16"/>
</g>
<!-- Node14&#45;&gt;Node6 -->
<g id="edge29" class="edge">
<title>Node14&#45;&gt;Node6</title>
<path fill="none" stroke="midnightblue" d="M900.13,-179.48C834.54,-168.69 721.75,-150.15 651.77,-138.65"/>
<polygon fill="midnightblue" stroke="midnightblue" points="652.2,-135.18 641.77,-137.01 651.07,-142.08 652.2,-135.18"/>
</g>
<!-- Node14&#45;&gt;Node8 -->
<g id="edge31" class="edge">
<title>Node14&#45;&gt;Node8</title>
<path fill="none" stroke="midnightblue" d="M957.47,-179.24C970.85,-157.91 1006.42,-101.66 1038,-56 1044.56,-46.52 1052.15,-36.13 1058.39,-27.73"/>
<polygon fill="midnightblue" stroke="midnightblue" points="1061.34,-29.63 1064.53,-19.52 1055.74,-25.44 1061.34,-29.63"/>
</g>
<!-- Node14&#45;&gt;Node9 -->
<g id="edge30" class="edge">
<title>Node14&#45;&gt;Node9</title>
<path fill="none" stroke="midnightblue" d="M925.64,-179.48C893.66,-169.14 839.62,-151.66 803.88,-140.1"/>
<polygon fill="midnightblue" stroke="midnightblue" points="804.91,-136.76 794.31,-137.01 802.75,-143.42 804.91,-136.76"/>
</g>
<!-- Node15&#45;&gt;Node8 -->
<g id="edge33" class="edge">
<title>Node15&#45;&gt;Node8</title>
<path fill="none" stroke="midnightblue" d="M1289.51,-240.94C1276.2,-223.2 1245.21,-180.91 1223,-143 1201.2,-105.78 1211.51,-85.45 1180,-56 1163.02,-40.13 1139.67,-29.49 1118.93,-22.55"/>
<polygon fill="midnightblue" stroke="midnightblue" points="1119.9,-19.19 1109.31,-19.53 1117.8,-25.87 1119.9,-19.19"/>
</g>
<!-- Node16&#45;&gt;Node8 -->
<g id="edge37" class="edge">
<title>Node16&#45;&gt;Node8</title>
<path fill="none" stroke="midnightblue" d="M1737.43,-117.85C1728.67,-102.29 1707.87,-69.87 1680,-56 1630.62,-31.44 1259.17,-17.07 1121.84,-12.56"/>
<polygon fill="midnightblue" stroke="midnightblue" points="1121.7,-9.05 1111.59,-12.23 1121.47,-16.05 1121.7,-9.05"/>
</g>
<!-- Node17 -->
<g id="node17" class="node">
<title>Node17</title>
<g id="a_node17"><a xlink:href="GXTexture_8h.html" target="_top" xlink:title=" ">
<polygon fill="white" stroke="black" points="1732.5,-56.5 1732.5,-75.5 1849.5,-75.5 1849.5,-56.5 1732.5,-56.5"/>
<text text-anchor="middle" x="1791" y="-63.5" font-family="Helvetica,sans-Serif" font-size="10.00">dolphin/gx/GXTexture.h</text>
</a>
</g>
</g>
<!-- Node16&#45;&gt;Node17 -->
<g id="edge35" class="edge">
<title>Node16&#45;&gt;Node17</title>
<path fill="none" stroke="midnightblue" d="M1749.02,-117.98C1756.44,-108.96 1768.33,-94.52 1777.57,-83.31"/>
<polygon fill="midnightblue" stroke="midnightblue" points="1780.34,-85.45 1783.99,-75.51 1774.93,-81 1780.34,-85.45"/>
</g>
<!-- Node17&#45;&gt;Node8 -->
<g id="edge36" class="edge">
<title>Node17&#45;&gt;Node8</title>
<path fill="none" stroke="midnightblue" d="M1732.46,-57.5C1727.57,-56.96 1722.7,-56.45 1718,-56 1496.23,-34.63 1230.76,-19.41 1121.63,-13.6"/>
<polygon fill="midnightblue" stroke="midnightblue" points="1121.74,-10.1 1111.56,-13.07 1121.36,-17.09 1121.74,-10.1"/>
</g>
<!-- Node20&#45;&gt;Node15 -->
<g id="edge67" class="edge">
<title>Node20&#45;&gt;Node15</title>
<path fill="none" stroke="midnightblue" d="M1259.28,-374.93C1277.82,-367.15 1301.66,-353.7 1313,-333 1324.03,-312.86 1314.83,-286.34 1306.25,-269.11"/>
<polygon fill="midnightblue" stroke="midnightblue" points="1309.26,-267.3 1301.44,-260.16 1303.09,-270.62 1309.26,-267.3"/>
</g>
<!-- Node21 -->
<g id="node21" class="node">
<title>Node21</title>
<g id="a_node21"><a xlink:href="J3DAnimation_8h.html" target="_top" xlink:title=" ">
<polygon fill="white" stroke="black" points="1164,-302.5 1164,-332.5 1304,-332.5 1304,-302.5 1164,-302.5"/>
<text text-anchor="start" x="1172" y="-320.5" font-family="Helvetica,sans-Serif" font-size="10.00">JSystem/J3DGraphAnimator</text>
<text text-anchor="middle" x="1234" y="-309.5" font-family="Helvetica,sans-Serif" font-size="10.00">/J3DAnimation.h</text>
</a>
</g>
</g>
<!-- Node20&#45;&gt;Node21 -->
<g id="edge42" class="edge">
<title>Node20&#45;&gt;Node21</title>
<path fill="none" stroke="midnightblue" d="M1234,-374.73C1234,-366.54 1234,-353.92 1234,-342.71"/>
<polygon fill="midnightblue" stroke="midnightblue" points="1237.5,-342.59 1234,-332.59 1230.5,-342.59 1237.5,-342.59"/>
</g>
<!-- Node22 -->
<g id="node22" class="node">
<title>Node22</title>
<g id="a_node22"><a xlink:href="J3DModel_8h.html" target="_top" xlink:title=" ">
<polygon fill="white" stroke="black" points="1414,-302.5 1414,-332.5 1554,-332.5 1554,-302.5 1414,-302.5"/>
<text text-anchor="start" x="1422" y="-320.5" font-family="Helvetica,sans-Serif" font-size="10.00">JSystem/J3DGraphAnimator</text>
<text text-anchor="middle" x="1484" y="-309.5" font-family="Helvetica,sans-Serif" font-size="10.00">/J3DModel.h</text>
</a>
</g>
</g>
<!-- Node20&#45;&gt;Node22 -->
<g id="edge44" class="edge">
<title>Node20&#45;&gt;Node22</title>
<path fill="none" stroke="midnightblue" d="M1266.94,-374.94C1305.77,-364.84 1371.18,-347.83 1420.07,-335.12"/>
<polygon fill="midnightblue" stroke="midnightblue" points="1421.13,-338.46 1429.93,-332.56 1419.37,-331.69 1421.13,-338.46"/>
</g>
<!-- Node28 -->
<g id="node28" class="node">
<title>Node28</title>
<g id="a_node28"><a xlink:href="JKRAssertHeap_8h.html" target="_top" xlink:title=" ">
<polygon fill="white" stroke="black" points="897.5,-235.5 897.5,-265.5 1038.5,-265.5 1038.5,-235.5 897.5,-235.5"/>
<text text-anchor="start" x="905.5" y="-253.5" font-family="Helvetica,sans-Serif" font-size="10.00">JSystem/JKernel/JKRAssert</text>
<text text-anchor="middle" x="968" y="-242.5" font-family="Helvetica,sans-Serif" font-size="10.00">Heap.h</text>
</a>
</g>
</g>
<!-- Node20&#45;&gt;Node28 -->
<g id="edge58" class="edge">
<title>Node20&#45;&gt;Node28</title>
<path fill="none" stroke="midnightblue" d="M1216.55,-374.84C1173.96,-353.7 1063.93,-299.11 1005.6,-270.16"/>
<polygon fill="midnightblue" stroke="midnightblue" points="1006.87,-266.88 996.36,-265.57 1003.76,-273.15 1006.87,-266.88"/>
</g>
<!-- Node29 -->
<g id="node29" class="node">
<title>Node29</title>
<g id="a_node29"><a xlink:href="JKRExpHeap_8h.html" target="_top" xlink:title=" ">
<polygon fill="white" stroke="black" points="1056.5,-241 1056.5,-260 1215.5,-260 1215.5,-241 1056.5,-241"/>
<text text-anchor="middle" x="1136" y="-248" font-family="Helvetica,sans-Serif" font-size="10.00">JSystem/JKernel/JKRExpHeap.h</text>
</a>
</g>
</g>
<!-- Node20&#45;&gt;Node29 -->
<g id="edge61" class="edge">
<title>Node20&#45;&gt;Node29</title>
<path fill="none" stroke="midnightblue" d="M1211.83,-374.95C1193.8,-366.85 1169.1,-352.94 1155,-333 1141.86,-314.41 1137.68,-288.05 1136.43,-270.39"/>
<polygon fill="midnightblue" stroke="midnightblue" points="1139.91,-270.04 1135.95,-260.21 1132.92,-270.36 1139.91,-270.04"/>
</g>
<!-- Node30 -->
<g id="node30" class="node">
<title>Node30</title>
<g id="a_node30"><a xlink:href="JKRSolidHeap_8h.html" target="_top" xlink:title=" ">
<polygon fill="white" stroke="black" points="745,-235.5 745,-265.5 879,-265.5 879,-235.5 745,-235.5"/>
<text text-anchor="start" x="753" y="-253.5" font-family="Helvetica,sans-Serif" font-size="10.00">JSystem/JKernel/JKRSolid</text>
<text text-anchor="middle" x="812" y="-242.5" font-family="Helvetica,sans-Serif" font-size="10.00">Heap.h</text>
</a>
</g>
</g>
<!-- Node20&#45;&gt;Node30 -->
<g id="edge64" class="edge">
<title>Node20&#45;&gt;Node30</title>
<path fill="none" stroke="midnightblue" d="M1206.64,-374.94C1138.09,-353.5 957.97,-297.16 866.7,-268.61"/>
<polygon fill="midnightblue" stroke="midnightblue" points="867.67,-265.25 857.08,-265.6 865.58,-271.93 867.67,-265.25"/>
</g>
<!-- Node21&#45;&gt;Node8 -->
<g id="edge43" class="edge">
<title>Node21&#45;&gt;Node8</title>
<path fill="none" stroke="midnightblue" d="M1234.19,-302.28C1234.02,-285.72 1232.48,-257.72 1225,-235 1196.22,-147.61 1179.01,-127.42 1121,-56 1112.12,-45.06 1100.5,-34.44 1090.7,-26.26"/>
<polygon fill="midnightblue" stroke="midnightblue" points="1092.64,-23.33 1082.67,-19.76 1088.24,-28.77 1092.64,-23.33"/>
</g>
<!-- Node22&#45;&gt;Node8 -->
<g id="edge57" class="edge">
<title>Node22&#45;&gt;Node8</title>
<path fill="none" stroke="midnightblue" d="M1541.59,-302.45C1594.91,-285.59 1666,-251.57 1666,-190 1666,-190 1666,-190 1666,-126.5 1666,-80.1 1631.48,-74.67 1589,-56 1506.15,-19.6 1235.36,-12.61 1121.82,-11.3"/>
<polygon fill="midnightblue" stroke="midnightblue" points="1121.69,-7.79 1111.65,-11.19 1121.62,-14.79 1121.69,-7.79"/>
</g>
<!-- Node23 -->
<g id="node23" class="node">
<title>Node23</title>
<g id="a_node23"><a xlink:href="J3DModelData_8h.html" target="_top" xlink:title=" ">
<polygon fill="white" stroke="black" points="1232,-112.5 1232,-142.5 1372,-142.5 1372,-112.5 1232,-112.5"/>
<text text-anchor="start" x="1240" y="-130.5" font-family="Helvetica,sans-Serif" font-size="10.00">JSystem/J3DGraphAnimator</text>
<text text-anchor="middle" x="1302" y="-119.5" font-family="Helvetica,sans-Serif" font-size="10.00">/J3DModelData.h</text>
</a>
</g>
</g>
<!-- Node22&#45;&gt;Node23 -->
<g id="edge45" class="edge">
<title>Node22&#45;&gt;Node23</title>
<path fill="none" stroke="midnightblue" d="M1468.82,-302.08C1458.36,-292.07 1444.2,-278.36 1432,-266 1392.31,-225.77 1347.26,-177.52 1321.98,-150.2"/>
<polygon fill="midnightblue" stroke="midnightblue" points="1324.45,-147.71 1315.09,-142.74 1319.31,-152.46 1324.45,-147.71"/>
</g>
<!-- Node24 -->
<g id="node24" class="node">
<title>Node24</title>
<g id="a_node24"><a xlink:href="mtxvec_8h.html" target="_top" xlink:title=" ">
<polygon fill="white" stroke="black" points="1441,-241 1441,-260 1549,-260 1549,-241 1441,-241"/>
<text text-anchor="middle" x="1495" y="-248" font-family="Helvetica,sans-Serif" font-size="10.00">dolphin/mtx/mtxvec.h</text>
</a>
</g>
</g>
<!-- Node22&#45;&gt;Node24 -->
<g id="edge47" class="edge">
<title>Node22&#45;&gt;Node24</title>
<path fill="none" stroke="midnightblue" d="M1486.39,-302.4C1487.98,-292.96 1490.1,-280.45 1491.84,-270.19"/>
<polygon fill="midnightblue" stroke="midnightblue" points="1495.31,-270.64 1493.53,-260.19 1488.41,-269.47 1495.31,-270.64"/>
</g>
<!-- Node23&#45;&gt;Node8 -->
<g id="edge46" class="edge">
<title>Node23&#45;&gt;Node8</title>
<path fill="none" stroke="midnightblue" d="M1288.73,-112.37C1273.17,-96.55 1245.94,-71.18 1218,-56 1187.9,-39.65 1151.02,-28.38 1121.74,-21.21"/>
<polygon fill="midnightblue" stroke="midnightblue" points="1122.25,-17.73 1111.72,-18.84 1120.64,-24.55 1122.25,-17.73"/>
</g>
<!-- Node24&#45;&gt;Node8 -->
<g id="edge56" class="edge">
<title>Node24&#45;&gt;Node8</title>
<path fill="none" stroke="midnightblue" d="M1489.95,-240.86C1475.7,-217.16 1432.84,-150.37 1381,-112 1301.86,-53.42 1187.15,-27.82 1121.74,-17.42"/>
<polygon fill="midnightblue" stroke="midnightblue" points="1122.09,-13.94 1111.68,-15.88 1121.03,-20.86 1122.09,-13.94"/>
</g>
<!-- Node25 -->
<g id="node25" class="node">
<title>Node25</title>
<g id="a_node25"><a xlink:href="mtx_8h.html" target="_top" xlink:title=" ">
<polygon fill="white" stroke="black" points="1478,-179.5 1478,-198.5 1570,-198.5 1570,-179.5 1478,-179.5"/>
<text text-anchor="middle" x="1524" y="-186.5" font-family="Helvetica,sans-Serif" font-size="10.00">dolphin/mtx/mtx.h</text>
</a>
</g>
</g>
<!-- Node24&#45;&gt;Node25 -->
<g id="edge48" class="edge">
<title>Node24&#45;&gt;Node25</title>
<path fill="none" stroke="midnightblue" d="M1499.15,-240.98C1503.38,-232.32 1510.04,-218.65 1515.4,-207.65"/>
<polygon fill="midnightblue" stroke="midnightblue" points="1518.62,-209.03 1519.85,-198.51 1512.33,-205.96 1518.62,-209.03"/>
</g>
<!-- Node27 -->
<g id="node27" class="node">
<title>Node27</title>
<g id="a_node27"><a xlink:href="vec_8h.html" target="_top" xlink:title=" ">
<polygon fill="white" stroke="black" points="1469,-56.5 1469,-75.5 1561,-75.5 1561,-56.5 1469,-56.5"/>
<text text-anchor="middle" x="1515" y="-63.5" font-family="Helvetica,sans-Serif" font-size="10.00">dolphin/mtx/vec.h</text>
</a>
</g>
</g>
<!-- Node24&#45;&gt;Node27 -->
<g id="edge55" class="edge">
<title>Node24&#45;&gt;Node27</title>
<path fill="none" stroke="midnightblue" d="M1523.06,-240.89C1542.56,-233.27 1567.1,-220.03 1579,-199 1602.18,-158.02 1558.5,-107.39 1532.44,-82.42"/>
<polygon fill="midnightblue" stroke="midnightblue" points="1534.73,-79.76 1525.02,-75.53 1529.97,-84.89 1534.73,-79.76"/>
</g>
<!-- Node25&#45;&gt;Node8 -->
<g id="edge54" class="edge">
<title>Node25&#45;&gt;Node8</title>
<path fill="none" stroke="midnightblue" d="M1532.14,-179.42C1552.9,-156.5 1603.89,-93.08 1570,-56 1540.17,-23.36 1242.95,-14.18 1121.9,-11.79"/>
<polygon fill="midnightblue" stroke="midnightblue" points="1121.84,-8.28 1111.77,-11.59 1121.71,-15.28 1121.84,-8.28"/>
</g>
<!-- Node26 -->
<g id="node26" class="node">
<title>Node26</title>
<g id="a_node26"><a xlink:href="quat_8h.html" target="_top" xlink:title=" ">
<polygon fill="white" stroke="black" points="1428.5,-118 1428.5,-137 1523.5,-137 1523.5,-118 1428.5,-118"/>
<text text-anchor="middle" x="1476" y="-125" font-family="Helvetica,sans-Serif" font-size="10.00">dolphin/mtx/quat.h</text>
</a>
</g>
</g>
<!-- Node25&#45;&gt;Node26 -->
<g id="edge49" class="edge">
<title>Node25&#45;&gt;Node26</title>
<path fill="none" stroke="midnightblue" d="M1517.12,-179.48C1509.85,-170.46 1498.2,-156.02 1489.16,-144.81"/>
<polygon fill="midnightblue" stroke="midnightblue" points="1491.87,-142.59 1482.86,-137.01 1486.42,-146.99 1491.87,-142.59"/>
</g>
<!-- Node25&#45;&gt;Node27 -->
<g id="edge53" class="edge">
<title>Node25&#45;&gt;Node27</title>
<path fill="none" stroke="midnightblue" d="M1526.83,-179.04C1530.95,-164.77 1537.62,-136.01 1533,-112 1531.21,-102.7 1527.52,-92.89 1523.94,-84.8"/>
<polygon fill="midnightblue" stroke="midnightblue" points="1527.06,-83.21 1519.62,-75.66 1520.73,-86.2 1527.06,-83.21"/>
</g>
<!-- Node26&#45;&gt;Node8 -->
<g id="edge52" class="edge">
<title>Node26&#45;&gt;Node8</title>
<path fill="none" stroke="midnightblue" d="M1471.21,-117.76C1462.24,-102.35 1441.33,-70.57 1414,-56 1364.51,-29.61 1204.68,-17.77 1121.84,-13.3"/>
<polygon fill="midnightblue" stroke="midnightblue" points="1121.82,-9.8 1111.65,-12.77 1121.45,-16.79 1121.82,-9.8"/>
</g>
<!-- Node26&#45;&gt;Node27 -->
<g id="edge50" class="edge">
<title>Node26&#45;&gt;Node27</title>
<path fill="none" stroke="midnightblue" d="M1481.59,-117.98C1487.38,-109.14 1496.59,-95.09 1503.87,-83.98"/>
<polygon fill="midnightblue" stroke="midnightblue" points="1506.87,-85.79 1509.42,-75.51 1501.01,-81.95 1506.87,-85.79"/>
</g>
<!-- Node27&#45;&gt;Node8 -->
<g id="edge51" class="edge">
<title>Node27&#45;&gt;Node8</title>
<path fill="none" stroke="midnightblue" d="M1468.97,-58.18C1463.59,-57.42 1458.18,-56.68 1453,-56 1334.68,-40.45 1195.4,-24.68 1122.08,-16.58"/>
<polygon fill="midnightblue" stroke="midnightblue" points="1122.07,-13.05 1111.75,-15.44 1121.31,-20.01 1122.07,-13.05"/>
</g>
<!-- Node28&#45;&gt;Node8 -->
<g id="edge60" class="edge">
<title>Node28&#45;&gt;Node8</title>
<path fill="none" stroke="midnightblue" d="M1018.65,-235.39C1036.73,-227.68 1055.26,-216.1 1066,-199 1099.53,-145.61 1085.32,-65.8 1076.32,-29.8"/>
<polygon fill="midnightblue" stroke="midnightblue" points="1079.59,-28.51 1073.64,-19.74 1072.83,-30.31 1079.59,-28.51"/>
</g>
<!-- Node28&#45;&gt;Node14 -->
<g id="edge59" class="edge">
<title>Node28&#45;&gt;Node14</title>
<path fill="none" stroke="midnightblue" d="M964.21,-235.4C962.05,-227.38 959.32,-217.23 956.99,-208.57"/>
<polygon fill="midnightblue" stroke="midnightblue" points="960.3,-207.41 954.33,-198.66 953.55,-209.22 960.3,-207.41"/>
</g>
<!-- Node29&#45;&gt;Node8 -->
<g id="edge63" class="edge">
<title>Node29&#45;&gt;Node8</title>
<path fill="none" stroke="midnightblue" d="M1135.98,-240.61C1135.6,-212.41 1132.13,-122.85 1104,-56 1099.64,-45.64 1092.45,-35.43 1085.9,-27.35"/>
<polygon fill="midnightblue" stroke="midnightblue" points="1088.36,-24.85 1079.2,-19.53 1083.04,-29.4 1088.36,-24.85"/>
</g>
<!-- Node29&#45;&gt;Node14 -->
<g id="edge62" class="edge">
<title>Node29&#45;&gt;Node14</title>
<path fill="none" stroke="midnightblue" d="M1109.64,-240.98C1077.66,-230.64 1023.62,-213.16 987.88,-201.6"/>
<polygon fill="midnightblue" stroke="midnightblue" points="988.91,-198.26 978.31,-198.51 986.75,-204.92 988.91,-198.26"/>
</g>
<!-- Node30&#45;&gt;Node8 -->
<g id="edge66" class="edge">
<title>Node30&#45;&gt;Node8</title>
<path fill="none" stroke="midnightblue" d="M879.02,-236.02C942.02,-223.07 1027.49,-204.65 1033,-199 1078.51,-152.33 1076.64,-67.11 1073.24,-29.58"/>
<polygon fill="midnightblue" stroke="midnightblue" points="1076.71,-29.14 1072.18,-19.56 1069.75,-29.87 1076.71,-29.14"/>
</g>
<!-- Node30&#45;&gt;Node14 -->
<g id="edge65" class="edge">
<title>Node30&#45;&gt;Node14</title>
<path fill="none" stroke="midnightblue" d="M845.18,-235.4C868.56,-225.46 899.61,-212.26 922.21,-202.66"/>
<polygon fill="midnightblue" stroke="midnightblue" points="923.79,-205.79 931.63,-198.66 921.06,-199.35 923.79,-205.79"/>
</g>
</g>
</svg>
        <g id="navigator" transform="translate(0 0)" fill="#404254">
                <rect fill="#f2f5e9" fill-opacity="0.5" stroke="#606060" stroke-width=".5" x="0" y="0" width="60" height="60"/>
                <use id="zoomplus" xlink:href="#zoomPlus" x="17" y="9" onmousedown="handleZoom(evt,'in')"/>
                <use id="zoomminus" xlink:href="#zoomMin" x="42" y="9" onmousedown="handleZoom(evt,'out')"/>
                <use id="reset" xlink:href="#resetDef" x="30" y="36" onmousedown="handleReset()"/>
                <g id="arrowUp" xlink:href="#dirArrow" transform="translate(30 24)" onmousedown="handlePan(0,-1)">
                  <use xlink:href="#rim" fill="#404040">
                        <set attributeName="fill" to="#808080" begin="arrowUp.mouseover" end="arrowUp.mouseout"/>
                  </use>
                  <path fill="none" stroke="white" stroke-width="1.5" d="M0,-3.0v7 M-2.5,-0.5L0,-3.0L2.5,-0.5"/>
                </g>
                <g id="arrowRight" xlink:href="#dirArrow" transform="rotate(90) translate(36 -43)" onmousedown="handlePan(1,0)">
                  <use xlink:href="#rim" fill="#404040">
                        <set attributeName="fill" to="#808080" begin="arrowRight.mouseover" end="arrowRight.mouseout"/>
                  </use>
                  <path fill="none" stroke="white" stroke-width="1.5" d="M0,-3.0v7 M-2.5,-0.5L0,-3.0L2.5,-0.5"/>
                </g>
                <g id="arrowDown" xlink:href="#dirArrow" transform="rotate(180) translate(-30 -48)" onmousedown="handlePan(0,1)">
                  <use xlink:href="#rim" fill="#404040">
                        <set attributeName="fill" to="#808080" begin="arrowDown.mouseover" end="arrowDown.mouseout"/>
                  </use>
                  <path fill="none" stroke="white" stroke-width="1.5" d="M0,-3.0v7 M-2.5,-0.5L0,-3.0L2.5,-0.5"/>
                </g>
                <g id="arrowLeft" xlink:href="#dirArrow" transform="rotate(270) translate(-36 17)" onmousedown="handlePan(-1,0)">
                  <use xlink:href="#rim" fill="#404040">
                        <set attributeName="fill" to="#808080" begin="arrowLeft.mouseover" end="arrowLeft.mouseout"/>
                  </use>
                  <path fill="none" stroke="white" stroke-width="1.5" d="M0,-3.0v7 M-2.5,-0.5L0,-3.0L2.5,-0.5"/>
                </g>
        </g>
        <svg viewBox="0 0 15 15" width="100%" height="30px" preserveAspectRatio="xMaxYMin meet">
         <g id="arrow_out" transform="scale(0.3 0.3)">
          <a xlink:href="d__meter__HIO_8h__incl_org.svg" target="_base">
           <rect id="button" ry="5" rx="5" y="6" x="6" height="38" width="38"
                fill="#f2f5e9" fill-opacity="0.5" stroke="#606060" stroke-width="1.0"/>
           <path id="arrow"
             d="M 11.500037,31.436501 C 11.940474,20.09759 22.043105,11.32322 32.158766,21.979434 L 37.068811,17.246167 C 37.068811,17.246167 37.088388,32 37.088388,32 L 22.160133,31.978069 C 22.160133,31.978069 26.997745,27.140456 26.997745,27.140456 C 18.528582,18.264221 13.291696,25.230495 11.500037,31.436501 z"
             style="fill:#404040;"/>
          </a>
         </g>
        </svg>
</svg>
