<?xml version="1.0" encoding="UTF-8" standalone="no"?>
<!DOCTYPE svg PUBLIC "-//W3C//DTD SVG 1.1//EN"
 "http://www.w3.org/Graphics/SVG/1.1/DTD/svg11.dtd">
<!-- Generated by graphviz version 2.44.0 ()
 -->
<!-- Title: include/d/msg/d_msg_flow.h Pages: 1 -->
<!--zoomable 374 -->
<svg id="main" version="1.1" xmlns="http://www.w3.org/2000/svg" xmlns:xlink="http://www.w3.org/1999/xlink" xml:space="preserve" onload="init(evt)">
<style type="text/css"><![CDATA[
.edge:hover path { stroke: red; }
.edge:hover polygon { stroke: red; fill: red; }
]]></style>
<script type="text/javascript"><![CDATA[
var edges = document.getElementsByTagName('g');
if (edges && edges.length) {
  for (var i=0;i<edges.length;i++) {
    if (edges[i].id.substr(0,4)=='edge') {
      edges[i].setAttribute('class','edge');
    }
  }
}
]]></script>
        <defs>
                <circle id="rim" cx="0" cy="0" r="7"/>
                <circle id="rim2" cx="0" cy="0" r="3.5"/>
                <g id="zoomPlus">
                        <use xlink:href="#rim" fill="#404040">
                                <set attributeName="fill" to="#808080" begin="zoomplus.mouseover" end="zoomplus.mouseout"/>
                        </use>
                        <path d="M-4,0h8M0,-4v8" fill="none" stroke="white" stroke-width="1.5" pointer-events="none"/>
                </g>
                <g id="zoomMin">
                        <use xlink:href="#rim" fill="#404040">
                                <set attributeName="fill" to="#808080" begin="zoomminus.mouseover" end="zoomminus.mouseout"/>
                        </use>
                        <path d="M-4,0h8" fill="none" stroke="white" stroke-width="1.5" pointer-events="none"/>
                </g>
                <g id="dirArrow">
                        <path fill="none" stroke="white" stroke-width="1.5" d="M0,-3.0v7 M-2.5,-0.5L0,-3.0L2.5,-0.5"/>
                </g>
               <g id="resetDef">
                       <use xlink:href="#rim2" fill="#404040">
                               <set attributeName="fill" to="#808080" begin="reset.mouseover" end="reset.mouseout"/>
                       </use>
               </g>
        </defs>

<script type="text/javascript">
var viewWidth = 897;
var viewHeight = 374;
var sectionId = 'dynsection-1';
</script>
<script xlink:href="svgpan.js"/>
<svg id="graph" class="graph">
<g id="viewport">
<title>include/d/msg/d_msg_flow.h</title>
<polygon fill="white" stroke="transparent" points="-4,4 -4,-370 892.72,-370 892.72,4 -4,4"/>
<!-- Node1 -->
<g id="node1" class="node">
<title>Node1</title>
<g id="a_node1"><a xlink:title=" ">
<polygon fill="#bfbfbf" stroke="black" points="309.5,-335.5 309.5,-365.5 419.5,-365.5 419.5,-335.5 309.5,-335.5"/>
<text text-anchor="start" x="317.5" y="-353.5" font-family="Helvetica,sans-Serif" font-size="10.00">include/d/msg/d_msg</text>
<text text-anchor="middle" x="364.5" y="-342.5" font-family="Helvetica,sans-Serif" font-size="10.00">_flow.h</text>
</a>
</g>
</g>
<!-- Node2 -->
<g id="node2" class="node">
<title>Node2</title>
<g id="a_node2"><a xlink:href="d__msg__flow_8cpp.html" target="_top" xlink:title=" ">
<polygon fill="white" stroke="black" points="0,-73 0,-92 133,-92 133,-73 0,-73"/>
<text text-anchor="middle" x="66.5" y="-80" font-family="Helvetica,sans-Serif" font-size="10.00">src/d/msg/d_msg_flow.cpp</text>
</a>
</g>
</g>
<!-- Node1&#45;&gt;Node2 -->
<g id="edge1" class="edge">
<title>Node1&#45;&gt;Node2</title>
<path fill="none" stroke="midnightblue" d="M340.85,-328.39C279.5,-273.63 117.2,-128.76 76.08,-92.05"/>
<polygon fill="midnightblue" stroke="midnightblue" points="338.69,-331.15 348.48,-335.2 343.35,-325.93 338.69,-331.15"/>
</g>
<!-- Node3 -->
<g id="node3" class="node">
<title>Node3</title>
<g id="a_node3"><a xlink:href="d__a__alink_8h.html" target="_top" xlink:title=" ">
<polygon fill="white" stroke="black" points="306.5,-207 306.5,-226 422.5,-226 422.5,-207 306.5,-207"/>
<text text-anchor="middle" x="364.5" y="-214" font-family="Helvetica,sans-Serif" font-size="10.00">include/d/a/d_a_alink.h</text>
</a>
</g>
</g>
<!-- Node1&#45;&gt;Node3 -->
<g id="edge2" class="edge">
<title>Node1&#45;&gt;Node3</title>
<path fill="none" stroke="midnightblue" d="M364.5,-325.32C364.5,-295.38 364.5,-245.91 364.5,-226.1"/>
<polygon fill="midnightblue" stroke="midnightblue" points="361,-325.37 364.5,-335.37 368,-325.37 361,-325.37"/>
</g>
<!-- Node12 -->
<g id="node12" class="node">
<title>Node12</title>
<g id="a_node12"><a xlink:href="d__meter2__info_8h.html" target="_top" xlink:title=" ">
<polygon fill="white" stroke="black" points="608,-268.5 608,-298.5 735,-298.5 735,-268.5 608,-268.5"/>
<text text-anchor="start" x="616" y="-286.5" font-family="Helvetica,sans-Serif" font-size="10.00">include/d/meter/d_meter2</text>
<text text-anchor="middle" x="671.5" y="-275.5" font-family="Helvetica,sans-Serif" font-size="10.00">_info.h</text>
</a>
</g>
</g>
<!-- Node1&#45;&gt;Node12 -->
<g id="edge14" class="edge">
<title>Node1&#45;&gt;Node12</title>
<path fill="none" stroke="midnightblue" d="M429.64,-335.71C482.22,-324.57 555.8,-309 607.96,-297.95"/>
<polygon fill="midnightblue" stroke="midnightblue" points="428.8,-332.31 419.74,-337.8 430.25,-339.16 428.8,-332.31"/>
</g>
<!-- Node4 -->
<g id="node4" class="node">
<title>Node4</title>
<g id="a_node4"><a xlink:href="d__a__alink_8cpp.html" target="_top" xlink:title=" ">
<polygon fill="white" stroke="black" points="151,-73 151,-92 260,-92 260,-73 151,-73"/>
<text text-anchor="middle" x="205.5" y="-80" font-family="Helvetica,sans-Serif" font-size="10.00">src/d/a/d_a_alink.cpp</text>
</a>
</g>
</g>
<!-- Node3&#45;&gt;Node4 -->
<g id="edge3" class="edge">
<title>Node3&#45;&gt;Node4</title>
<path fill="none" stroke="midnightblue" d="M344.98,-200.43C332.21,-190.5 315.24,-177.13 300.5,-165 268.95,-139.04 232.51,-107.26 215.37,-92.2"/>
<polygon fill="midnightblue" stroke="midnightblue" points="343.01,-203.34 353.06,-206.7 347.3,-197.8 343.01,-203.34"/>
</g>
<!-- Node5 -->
<g id="node5" class="node">
<title>Node5</title>
<g id="a_node5"><a xlink:href="d__com__inf__game_8h.html" target="_top" xlink:title=" ">
<polygon fill="white" stroke="black" points="309.5,-134.5 309.5,-164.5 419.5,-164.5 419.5,-134.5 309.5,-134.5"/>
<text text-anchor="start" x="317.5" y="-152.5" font-family="Helvetica,sans-Serif" font-size="10.00">include/d/com/d_com</text>
<text text-anchor="middle" x="364.5" y="-141.5" font-family="Helvetica,sans-Serif" font-size="10.00">_inf_game.h</text>
</a>
</g>
</g>
<!-- Node3&#45;&gt;Node5 -->
<g id="edge4" class="edge">
<title>Node3&#45;&gt;Node5</title>
<path fill="none" stroke="midnightblue" d="M364.5,-196.41C364.5,-186.22 364.5,-173.9 364.5,-164.59"/>
<polygon fill="midnightblue" stroke="midnightblue" points="361,-196.73 364.5,-206.73 368,-196.73 361,-196.73"/>
</g>
<!-- Node5&#45;&gt;Node2 -->
<g id="edge9" class="edge">
<title>Node5&#45;&gt;Node2</title>
<path fill="none" stroke="midnightblue" d="M299.49,-134.32C240.28,-121.41 154.79,-102.76 105.52,-92.01"/>
<polygon fill="midnightblue" stroke="midnightblue" points="298.98,-137.79 309.49,-136.5 300.47,-130.95 298.98,-137.79"/>
</g>
<!-- Node5&#45;&gt;Node4 -->
<g id="edge6" class="edge">
<title>Node5&#45;&gt;Node4</title>
<path fill="none" stroke="midnightblue" d="M320.37,-130.46C289.65,-117.9 250.08,-101.72 226.31,-92.01"/>
<polygon fill="midnightblue" stroke="midnightblue" points="319.42,-133.85 330,-134.4 322.07,-127.37 319.42,-133.85"/>
</g>
<!-- Node6 -->
<g id="node6" class="node">
<title>Node6</title>
<g id="a_node6"><a xlink:href="d__com__inf__game_8cpp.html" target="_top" xlink:title=" ">
<polygon fill="white" stroke="black" points="310.5,-0.5 310.5,-30.5 418.5,-30.5 418.5,-0.5 310.5,-0.5"/>
<text text-anchor="start" x="318.5" y="-18.5" font-family="Helvetica,sans-Serif" font-size="10.00">src/d/com/d_com_inf</text>
<text text-anchor="middle" x="364.5" y="-7.5" font-family="Helvetica,sans-Serif" font-size="10.00">_game.cpp</text>
</a>
</g>
</g>
<!-- Node5&#45;&gt;Node6 -->
<g id="edge5" class="edge">
<title>Node5&#45;&gt;Node6</title>
<path fill="none" stroke="midnightblue" d="M332.37,-128.15C322.5,-120.08 312.84,-109.87 307.5,-98 301.85,-85.44 301.85,-79.56 307.5,-67 314.34,-51.81 328.25,-39.34 340.62,-30.59"/>
<polygon fill="midnightblue" stroke="midnightblue" points="330.54,-131.15 340.62,-134.41 334.77,-125.57 330.54,-131.15"/>
</g>
<!-- Node7 -->
<g id="node7" class="node">
<title>Node7</title>
<g id="a_node7"><a xlink:href="d__event_8cpp.html" target="_top" xlink:title=" ">
<polygon fill="white" stroke="black" points="430,-73 430,-92 551,-92 551,-73 430,-73"/>
<text text-anchor="middle" x="490.5" y="-80" font-family="Helvetica,sans-Serif" font-size="10.00">src/d/event/d_event.cpp</text>
</a>
</g>
</g>
<!-- Node5&#45;&gt;Node7 -->
<g id="edge7" class="edge">
<title>Node5&#45;&gt;Node7</title>
<path fill="none" stroke="midnightblue" d="M400.74,-129.8C424.9,-117.34 455.5,-101.56 474.01,-92.01"/>
<polygon fill="midnightblue" stroke="midnightblue" points="399.12,-126.7 391.84,-134.4 402.33,-132.92 399.12,-126.7"/>
</g>
<!-- Node8 -->
<g id="node8" class="node">
<title>Node8</title>
<g id="a_node8"><a xlink:href="d__meter2__info_8cpp.html" target="_top" xlink:title=" ">
<polygon fill="white" stroke="black" points="569.5,-67.5 569.5,-97.5 679.5,-97.5 679.5,-67.5 569.5,-67.5"/>
<text text-anchor="start" x="577.5" y="-85.5" font-family="Helvetica,sans-Serif" font-size="10.00">src/d/meter/d_meter2</text>
<text text-anchor="middle" x="624.5" y="-74.5" font-family="Helvetica,sans-Serif" font-size="10.00">_info.cpp</text>
</a>
</g>
</g>
<!-- Node5&#45;&gt;Node8 -->
<g id="edge8" class="edge">
<title>Node5&#45;&gt;Node8</title>
<path fill="none" stroke="midnightblue" d="M429.47,-132.26C472.57,-121.48 528.53,-107.49 569.44,-97.26"/>
<polygon fill="midnightblue" stroke="midnightblue" points="428.49,-128.89 419.64,-134.72 430.19,-135.69 428.49,-128.89"/>
</g>
<!-- Node9 -->
<g id="node9" class="node">
<title>Node9</title>
<g id="a_node9"><a xlink:href="d__save_8cpp.html" target="_top" xlink:title=" ">
<polygon fill="white" stroke="black" points="698,-73 698,-92 813,-92 813,-73 698,-73"/>
<text text-anchor="middle" x="755.5" y="-80" font-family="Helvetica,sans-Serif" font-size="10.00">src/d/save/d_save.cpp</text>
</a>
</g>
</g>
<!-- Node5&#45;&gt;Node9 -->
<g id="edge10" class="edge">
<title>Node5&#45;&gt;Node9</title>
<path fill="none" stroke="midnightblue" d="M429.89,-139.45C495.47,-130.11 599.25,-114.6 688.5,-98 698.09,-96.22 708.42,-94.09 718.02,-92.02"/>
<polygon fill="midnightblue" stroke="midnightblue" points="429.11,-136.03 419.7,-140.9 430.09,-142.96 429.11,-136.03"/>
</g>
<!-- Node10 -->
<g id="node10" class="node">
<title>Node10</title>
<g id="a_node10"><a xlink:href="d__item_8h.html" target="_top" xlink:title=" ">
<polygon fill="white" stroke="black" points="317,-73 317,-92 412,-92 412,-73 317,-73"/>
<text text-anchor="middle" x="364.5" y="-80" font-family="Helvetica,sans-Serif" font-size="10.00">include/d/d_item.h</text>
</a>
</g>
</g>
<!-- Node5&#45;&gt;Node10 -->
<g id="edge11" class="edge">
<title>Node5&#45;&gt;Node10</title>
<path fill="none" stroke="midnightblue" d="M364.5,-124.25C364.5,-113.02 364.5,-100.38 364.5,-92.19"/>
<polygon fill="midnightblue" stroke="midnightblue" points="361,-124.4 364.5,-134.4 368,-124.4 361,-124.4"/>
</g>
<!-- Node10&#45;&gt;Node6 -->
<g id="edge12" class="edge">
<title>Node10&#45;&gt;Node6</title>
<path fill="none" stroke="midnightblue" d="M364.5,-62.41C364.5,-52.22 364.5,-39.9 364.5,-30.59"/>
<polygon fill="midnightblue" stroke="midnightblue" points="361,-62.73 364.5,-72.73 368,-62.73 361,-62.73"/>
</g>
<!-- Node11 -->
<g id="node11" class="node">
<title>Node11</title>
<g id="a_node11"><a xlink:href="d__item_8cpp.html" target="_top" xlink:title=" ">
<polygon fill="white" stroke="black" points="636,-6 636,-25 725,-25 725,-6 636,-6"/>
<text text-anchor="middle" x="680.5" y="-13" font-family="Helvetica,sans-Serif" font-size="10.00">src/d/d_item.cpp</text>
</a>
</g>
</g>
<!-- Node10&#45;&gt;Node11 -->
<g id="edge13" class="edge">
<title>Node10&#45;&gt;Node11</title>
<path fill="none" stroke="midnightblue" d="M405.99,-70.45C410.87,-69.24 415.79,-68.07 420.5,-67 495.62,-50 583.75,-33.62 635.7,-24.34"/>
<polygon fill="midnightblue" stroke="midnightblue" points="404.94,-67.11 396.11,-72.95 406.66,-73.89 404.94,-67.11"/>
</g>
<!-- Node12&#45;&gt;Node3 -->
<g id="edge19" class="edge">
<title>Node12&#45;&gt;Node3</title>
<path fill="none" stroke="midnightblue" d="M598.01,-266.94C537.55,-254.14 454.09,-236.47 405.05,-226.09"/>
<polygon fill="midnightblue" stroke="midnightblue" points="597.38,-270.38 607.89,-269.03 598.83,-263.54 597.38,-270.38"/>
</g>
<!-- Node12&#45;&gt;Node6 -->
<g id="edge15" class="edge">
<title>Node12&#45;&gt;Node6</title>
<path fill="none" stroke="midnightblue" d="M729.38,-264.71C748.45,-256.86 768.77,-246.13 784.5,-232 840.48,-181.71 873.13,-122.68 822.5,-67 795.73,-37.56 533.82,-23.37 418.52,-18.52"/>
<polygon fill="midnightblue" stroke="midnightblue" points="727.88,-261.54 719.85,-268.45 730.44,-268.05 727.88,-261.54"/>
</g>
<!-- Node12&#45;&gt;Node8 -->
<g id="edge17" class="edge">
<title>Node12&#45;&gt;Node8</title>
<path fill="none" stroke="midnightblue" d="M638.88,-262.3C628.82,-254.23 618.96,-243.99 613.5,-232 592.83,-186.59 609.58,-125.25 619.07,-97.8"/>
<polygon fill="midnightblue" stroke="midnightblue" points="636.81,-265.12 646.91,-268.29 640.99,-259.51 636.81,-265.12"/>
</g>
<!-- Node12&#45;&gt;Node9 -->
<g id="edge18" class="edge">
<title>Node12&#45;&gt;Node9</title>
<path fill="none" stroke="midnightblue" d="M658.19,-258.92C642.61,-227.83 621.86,-172.57 646.5,-134 660.76,-111.68 687.7,-99.08 711.22,-92.04"/>
<polygon fill="midnightblue" stroke="midnightblue" points="655.27,-260.87 663.01,-268.11 661.47,-257.63 655.27,-260.87"/>
</g>
<!-- Node12&#45;&gt;Node11 -->
<g id="edge16" class="edge">
<title>Node12&#45;&gt;Node11</title>
<path fill="none" stroke="midnightblue" d="M745.23,-271.54C790.27,-263.17 841.77,-250 855.5,-232 899.97,-173.69 899.58,-125.6 855.5,-67 839.82,-46.15 771.65,-31.2 725.17,-23.2"/>
<polygon fill="midnightblue" stroke="midnightblue" points="744.36,-268.14 735.14,-273.36 745.6,-275.03 744.36,-268.14"/>
</g>
<!-- Node13 -->
<g id="node13" class="node">
<title>Node13</title>
<g id="a_node13"><a xlink:href="d__menu__window_8h.html" target="_top" xlink:title=" ">
<polygon fill="white" stroke="black" points="655.5,-201.5 655.5,-231.5 775.5,-231.5 775.5,-201.5 655.5,-201.5"/>
<text text-anchor="start" x="663.5" y="-219.5" font-family="Helvetica,sans-Serif" font-size="10.00">include/d/menu/d_menu</text>
<text text-anchor="middle" x="715.5" y="-208.5" font-family="Helvetica,sans-Serif" font-size="10.00">_window.h</text>
</a>
</g>
</g>
<!-- Node12&#45;&gt;Node13 -->
<g id="edge20" class="edge">
<title>Node12&#45;&gt;Node13</title>
<path fill="none" stroke="midnightblue" d="M680.54,-259.58C686.32,-250.24 693.69,-239.75 700.3,-231.58"/>
<polygon fill="midnightblue" stroke="midnightblue" points="677.4,-258 675.37,-268.4 683.44,-261.54 677.4,-258"/>
</g>
<!-- Node13&#45;&gt;Node12 -->
<g id="edge22" class="edge">
<title>Node13&#45;&gt;Node12</title>
<path fill="none" stroke="midnightblue" d="M706.48,-240.39C700.7,-249.73 693.33,-260.22 686.73,-268.4"/>
<polygon fill="midnightblue" stroke="midnightblue" points="709.61,-241.97 711.65,-231.58 703.57,-238.44 709.61,-241.97"/>
</g>
<!-- Node14 -->
<g id="node14" class="node">
<title>Node14</title>
<g id="a_node14"><a xlink:href="d__menu__window_8cpp.html" target="_top" xlink:title=" ">
<polygon fill="white" stroke="black" points="655,-140 655,-159 814,-159 814,-140 655,-140"/>
<text text-anchor="middle" x="734.5" y="-147" font-family="Helvetica,sans-Serif" font-size="10.00">src/d/menu/d_menu_window.cpp</text>
</a>
</g>
</g>
<!-- Node13&#45;&gt;Node14 -->
<g id="edge21" class="edge">
<title>Node13&#45;&gt;Node14</title>
<path fill="none" stroke="midnightblue" d="M722.49,-191.6C725.8,-180.28 729.54,-167.46 731.96,-159.19"/>
<polygon fill="midnightblue" stroke="midnightblue" points="719.07,-190.82 719.62,-201.4 725.79,-192.78 719.07,-190.82"/>
</g>
</g>
</svg>
        <g id="navigator" transform="translate(0 0)" fill="#404254">
                <rect fill="#f2f5e9" fill-opacity="0.5" stroke="#606060" stroke-width=".5" x="0" y="0" width="60" height="60"/>
                <use id="zoomplus" xlink:href="#zoomPlus" x="17" y="9" onmousedown="handleZoom(evt,'in')"/>
                <use id="zoomminus" xlink:href="#zoomMin" x="42" y="9" onmousedown="handleZoom(evt,'out')"/>
                <use id="reset" xlink:href="#resetDef" x="30" y="36" onmousedown="handleReset()"/>
                <g id="arrowUp" xlink:href="#dirArrow" transform="translate(30 24)" onmousedown="handlePan(0,-1)">
                  <use xlink:href="#rim" fill="#404040">
                        <set attributeName="fill" to="#808080" begin="arrowUp.mouseover" end="arrowUp.mouseout"/>
                  </use>
                  <path fill="none" stroke="white" stroke-width="1.5" d="M0,-3.0v7 M-2.5,-0.5L0,-3.0L2.5,-0.5"/>
                </g>
                <g id="arrowRight" xlink:href="#dirArrow" transform="rotate(90) translate(36 -43)" onmousedown="handlePan(1,0)">
                  <use xlink:href="#rim" fill="#404040">
                        <set attributeName="fill" to="#808080" begin="arrowRight.mouseover" end="arrowRight.mouseout"/>
                  </use>
                  <path fill="none" stroke="white" stroke-width="1.5" d="M0,-3.0v7 M-2.5,-0.5L0,-3.0L2.5,-0.5"/>
                </g>
                <g id="arrowDown" xlink:href="#dirArrow" transform="rotate(180) translate(-30 -48)" onmousedown="handlePan(0,1)">
                  <use xlink:href="#rim" fill="#404040">
                        <set attributeName="fill" to="#808080" begin="arrowDown.mouseover" end="arrowDown.mouseout"/>
                  </use>
                  <path fill="none" stroke="white" stroke-width="1.5" d="M0,-3.0v7 M-2.5,-0.5L0,-3.0L2.5,-0.5"/>
                </g>
                <g id="arrowLeft" xlink:href="#dirArrow" transform="rotate(270) translate(-36 17)" onmousedown="handlePan(-1,0)">
                  <use xlink:href="#rim" fill="#404040">
                        <set attributeName="fill" to="#808080" begin="arrowLeft.mouseover" end="arrowLeft.mouseout"/>
                  </use>
                  <path fill="none" stroke="white" stroke-width="1.5" d="M0,-3.0v7 M-2.5,-0.5L0,-3.0L2.5,-0.5"/>
                </g>
        </g>
        <svg viewBox="0 0 15 15" width="100%" height="30px" preserveAspectRatio="xMaxYMin meet">
         <g id="arrow_out" transform="scale(0.3 0.3)">
          <a xlink:href="d__msg__flow_8h__dep__incl_org.svg" target="_base">
           <rect id="button" ry="5" rx="5" y="6" x="6" height="38" width="38"
                fill="#f2f5e9" fill-opacity="0.5" stroke="#606060" stroke-width="1.0"/>
           <path id="arrow"
             d="M 11.500037,31.436501 C 11.940474,20.09759 22.043105,11.32322 32.158766,21.979434 L 37.068811,17.246167 C 37.068811,17.246167 37.088388,32 37.088388,32 L 22.160133,31.978069 C 22.160133,31.978069 26.997745,27.140456 26.997745,27.140456 C 18.528582,18.264221 13.291696,25.230495 11.500037,31.436501 z"
             style="fill:#404040;"/>
          </a>
         </g>
        </svg>
</svg>
