<?xml version="1.0" encoding="UTF-8" standalone="no"?>
<!DOCTYPE svg PUBLIC "-//W3C//DTD SVG 1.1//EN"
 "http://www.w3.org/Graphics/SVG/1.1/DTD/svg11.dtd">
<!-- Generated by graphviz version 2.44.0 ()
 -->
<!-- Title: include/d/meter/d_meter_HIO.h Pages: 1 -->
<svg width="470pt" height="218pt"
 viewBox="0.00 0.00 469.50 218.00" xmlns="http://www.w3.org/2000/svg" xmlns:xlink="http://www.w3.org/1999/xlink">
<g id="graph0" class="graph" transform="scale(1 1) rotate(0) translate(4 214)">
<title>include/d/meter/d_meter_HIO.h</title>
<polygon fill="white" stroke="transparent" points="-4,4 -4,-214 465.5,-214 465.5,4 -4,4"/>
<!-- Node1 -->
<g id="node1" class="node">
<title>Node1</title>
<g id="a_node1"><a xlink:title=" ">
<polygon fill="#bfbfbf" stroke="black" points="165.5,-179.5 165.5,-209.5 287.5,-209.5 287.5,-179.5 165.5,-179.5"/>
<text text-anchor="start" x="173.5" y="-197.5" font-family="Helvetica,sans-Serif" font-size="10.00">include/d/meter/d_meter</text>
<text text-anchor="middle" x="226.5" y="-186.5" font-family="Helvetica,sans-Serif" font-size="10.00">_HIO.h</text>
</a>
</g>
</g>
<!-- Node2 -->
<g id="node2" class="node">
<title>Node2</title>
<g id="a_node2"><a xlink:href="JUtility_8h.html" target="_top" xlink:title=" ">
<polygon fill="white" stroke="black" points="60,-118 60,-137 155,-137 155,-118 60,-118"/>
<text text-anchor="middle" x="107.5" y="-125" font-family="Helvetica,sans-Serif" font-size="10.00">JSystem/JUtility.h</text>
</a>
</g>
</g>
<!-- Node1&#45;&gt;Node2 -->
<g id="edge1" class="edge">
<title>Node1&#45;&gt;Node2</title>
<path fill="none" stroke="midnightblue" d="M200.68,-179.4C180.26,-168.24 151.95,-152.78 131.91,-141.83"/>
<polygon fill="midnightblue" stroke="midnightblue" points="133.53,-138.73 123.07,-137.01 130.17,-144.87 133.53,-138.73"/>
</g>
<!-- Node4 -->
<g id="node4" class="node">
<title>Node4</title>
<g id="a_node4"><a xlink:href="types_8h.html" target="_top" xlink:title=" ">
<polygon fill="white" stroke="black" points="105,-0.5 105,-19.5 186,-19.5 186,-0.5 105,-0.5"/>
<text text-anchor="middle" x="145.5" y="-7.5" font-family="Helvetica,sans-Serif" font-size="10.00">dolphin/types.h</text>
</a>
</g>
</g>
<!-- Node1&#45;&gt;Node4 -->
<g id="edge7" class="edge">
<title>Node1&#45;&gt;Node4</title>
<path fill="none" stroke="midnightblue" d="M219.64,-179.41C214.76,-169.32 208.11,-155.38 202.5,-143 184.19,-102.62 163.85,-54.73 153.11,-29.19"/>
<polygon fill="midnightblue" stroke="midnightblue" points="156.22,-27.56 149.13,-19.7 149.77,-30.27 156.22,-27.56"/>
</g>
<!-- Node5 -->
<g id="node5" class="node">
<title>Node5</title>
<g id="a_node5"><a xlink:title=" ">
<polygon fill="white" stroke="#bfbfbf" points="211.5,-112.5 211.5,-142.5 327.5,-142.5 327.5,-112.5 211.5,-112.5"/>
<text text-anchor="start" x="219.5" y="-130.5" font-family="Helvetica,sans-Serif" font-size="10.00">SSystem/SComponent</text>
<text text-anchor="middle" x="269.5" y="-119.5" font-family="Helvetica,sans-Serif" font-size="10.00">/c_Xyz.h</text>
</a>
</g>
</g>
<!-- Node1&#45;&gt;Node5 -->
<g id="edge5" class="edge">
<title>Node1&#45;&gt;Node5</title>
<path fill="none" stroke="midnightblue" d="M235.83,-179.4C241.3,-171.13 248.33,-160.51 254.55,-151.1"/>
<polygon fill="midnightblue" stroke="midnightblue" points="257.59,-152.85 260.19,-142.58 251.75,-148.99 257.59,-152.85"/>
</g>
<!-- Node6 -->
<g id="node6" class="node">
<title>Node6</title>
<g id="a_node6"><a xlink:title=" ">
<polygon fill="white" stroke="#bfbfbf" points="345.5,-112.5 345.5,-142.5 461.5,-142.5 461.5,-112.5 345.5,-112.5"/>
<text text-anchor="start" x="353.5" y="-130.5" font-family="Helvetica,sans-Serif" font-size="10.00">SSystem/SComponent</text>
<text text-anchor="middle" x="403.5" y="-119.5" font-family="Helvetica,sans-Serif" font-size="10.00">/c_sXyz.h</text>
</a>
</g>
</g>
<!-- Node1&#45;&gt;Node6 -->
<g id="edge6" class="edge">
<title>Node1&#45;&gt;Node6</title>
<path fill="none" stroke="midnightblue" d="M264.91,-179.4C291.46,-169.64 327,-156.59 355.43,-146.15"/>
<polygon fill="midnightblue" stroke="midnightblue" points="356.99,-149.31 365.17,-142.58 354.57,-142.74 356.99,-149.31"/>
</g>
<!-- Node3 -->
<g id="node3" class="node">
<title>Node3</title>
<g id="a_node3"><a xlink:href="GXTexture_8h.html" target="_top" xlink:title=" ">
<polygon fill="white" stroke="black" points="0,-56.5 0,-75.5 117,-75.5 117,-56.5 0,-56.5"/>
<text text-anchor="middle" x="58.5" y="-63.5" font-family="Helvetica,sans-Serif" font-size="10.00">dolphin/gx/GXTexture.h</text>
</a>
</g>
</g>
<!-- Node2&#45;&gt;Node3 -->
<g id="edge2" class="edge">
<title>Node2&#45;&gt;Node3</title>
<path fill="none" stroke="midnightblue" d="M100.48,-117.98C93.06,-108.96 81.17,-94.52 71.93,-83.31"/>
<polygon fill="midnightblue" stroke="midnightblue" points="74.57,-81 65.51,-75.51 69.16,-85.45 74.57,-81"/>
</g>
<!-- Node2&#45;&gt;Node4 -->
<g id="edge4" class="edge">
<title>Node2&#45;&gt;Node4</title>
<path fill="none" stroke="midnightblue" d="M110.67,-117.96C114.36,-107.95 120.57,-90.84 125.5,-76 130.67,-60.42 136.13,-42.58 140.03,-29.54"/>
<polygon fill="midnightblue" stroke="midnightblue" points="143.41,-30.45 142.91,-19.87 136.7,-28.46 143.41,-30.45"/>
</g>
<!-- Node3&#45;&gt;Node4 -->
<g id="edge3" class="edge">
<title>Node3&#45;&gt;Node4</title>
<path fill="none" stroke="midnightblue" d="M72.48,-56.32C86.05,-47.9 106.88,-34.97 122.82,-25.07"/>
<polygon fill="midnightblue" stroke="midnightblue" points="124.91,-27.9 131.56,-19.65 121.21,-21.95 124.91,-27.9"/>
</g>
</g>
</svg>
