<?xml version="1.0" encoding="UTF-8" standalone="no"?>
<!DOCTYPE svg PUBLIC "-//W3C//DTD SVG 1.1//EN"
 "http://www.w3.org/Graphics/SVG/1.1/DTD/svg11.dtd">
<!-- Generated by graphviz version 2.44.0 ()
 -->
<!-- Title: include/d/pane/d_pane_class.h Pages: 1 -->
<svg width="2334pt" height="587pt"
 viewBox="0.00 0.00 2334.00 587.00" xmlns="http://www.w3.org/2000/svg" xmlns:xlink="http://www.w3.org/1999/xlink">
<g id="graph0" class="graph" transform="scale(1 1) rotate(0) translate(4 583)">
<title>include/d/pane/d_pane_class.h</title>
<polygon fill="white" stroke="transparent" points="-4,4 -4,-583 2330,-583 2330,4 -4,4"/>
<!-- Node1 -->
<g id="node1" class="node">
<title>Node1</title>
<g id="a_node1"><a xlink:title=" ">
<polygon fill="#bfbfbf" stroke="black" points="58,-548.5 58,-578.5 172,-578.5 172,-548.5 58,-548.5"/>
<text text-anchor="start" x="66" y="-566.5" font-family="Helvetica,sans-Serif" font-size="10.00">include/d/pane/d_pane</text>
<text text-anchor="middle" x="115" y="-555.5" font-family="Helvetica,sans-Serif" font-size="10.00">_class.h</text>
</a>
</g>
</g>
<!-- Node2 -->
<g id="node2" class="node">
<title>Node2</title>
<g id="a_node2"><a xlink:href="d__pane__class__alpha_8h.html" target="_top" xlink:title=" ">
<polygon fill="white" stroke="black" points="1215.5,-481.5 1215.5,-511.5 1324.5,-511.5 1324.5,-481.5 1215.5,-481.5"/>
<text text-anchor="start" x="1223.5" y="-499.5" font-family="Helvetica,sans-Serif" font-size="10.00">d/pane/d_pane_class</text>
<text text-anchor="middle" x="1270" y="-488.5" font-family="Helvetica,sans-Serif" font-size="10.00">_alpha.h</text>
</a>
</g>
</g>
<!-- Node1&#45;&gt;Node2 -->
<g id="edge1" class="edge">
<title>Node1&#45;&gt;Node2</title>
<path fill="none" stroke="midnightblue" d="M172.28,-559.28C366.66,-548.34 1000.43,-512.67 1205.41,-501.13"/>
<polygon fill="midnightblue" stroke="midnightblue" points="1205.63,-504.63 1215.42,-500.57 1205.24,-497.64 1205.63,-504.63"/>
</g>
<!-- Node7 -->
<g id="node7" class="node">
<title>Node7</title>
<g id="a_node7"><a xlink:href="types_8h.html" target="_top" xlink:title=" ">
<polygon fill="white" stroke="black" points="1031.5,-0.5 1031.5,-19.5 1112.5,-19.5 1112.5,-0.5 1031.5,-0.5"/>
<text text-anchor="middle" x="1072" y="-7.5" font-family="Helvetica,sans-Serif" font-size="10.00">dolphin/types.h</text>
</a>
</g>
</g>
<!-- Node1&#45;&gt;Node7 -->
<g id="edge86" class="edge">
<title>Node1&#45;&gt;Node7</title>
<path fill="none" stroke="midnightblue" d="M88.33,-548.46C54.36,-528.44 0,-488.24 0,-436 0,-436 0,-436 0,-126.5 0,-85.07 23.71,-74.06 61,-56 147.71,-14.01 828.01,-10.94 1021.07,-10.92"/>
<polygon fill="midnightblue" stroke="midnightblue" points="1021.23,-14.42 1031.23,-10.92 1021.23,-7.42 1021.23,-14.42"/>
</g>
<!-- Node3 -->
<g id="node3" class="node">
<title>Node3</title>
<g id="a_node3"><a xlink:href="J2DScreen_8h.html" target="_top" xlink:title=" ">
<polygon fill="white" stroke="black" points="250,-425.5 250,-444.5 410,-444.5 410,-425.5 250,-425.5"/>
<text text-anchor="middle" x="330" y="-432.5" font-family="Helvetica,sans-Serif" font-size="10.00">JSystem/J2DGraph/J2DScreen.h</text>
</a>
</g>
</g>
<!-- Node2&#45;&gt;Node3 -->
<g id="edge2" class="edge">
<title>Node2&#45;&gt;Node3</title>
<path fill="none" stroke="midnightblue" d="M1215.4,-492.04C1059.78,-482.19 612.87,-453.9 420.18,-441.71"/>
<polygon fill="midnightblue" stroke="midnightblue" points="420.29,-438.21 410.09,-441.07 419.85,-445.19 420.29,-438.21"/>
</g>
<!-- Node2&#45;&gt;Node7 -->
<g id="edge85" class="edge">
<title>Node2&#45;&gt;Node7</title>
<path fill="none" stroke="midnightblue" d="M1324.55,-495.32C1540.79,-493.91 2326,-481.78 2326,-380 2326,-380 2326,-380 2326,-126.5 2326,-33.09 2219.69,-73.85 2128,-56 1931.99,-17.83 1305.96,-12.04 1122.8,-11.16"/>
<polygon fill="midnightblue" stroke="midnightblue" points="1122.65,-7.66 1112.64,-11.11 1122.62,-14.66 1122.65,-7.66"/>
</g>
<!-- Node37 -->
<g id="node37" class="node">
<title>Node37</title>
<g id="a_node37"><a xlink:href="JKRExpHeap_8h.html" target="_top" xlink:title=" ">
<polygon fill="white" stroke="black" points="2139.5,-246.5 2139.5,-265.5 2298.5,-265.5 2298.5,-246.5 2139.5,-246.5"/>
<text text-anchor="middle" x="2219" y="-253.5" font-family="Helvetica,sans-Serif" font-size="10.00">JSystem/JKernel/JKRExpHeap.h</text>
</a>
</g>
</g>
<!-- Node2&#45;&gt;Node37 -->
<g id="edge82" class="edge">
<title>Node2&#45;&gt;Node37</title>
<path fill="none" stroke="midnightblue" d="M1324.67,-494.34C1464.65,-489.45 1844.79,-464.14 2126,-333 2157.46,-318.33 2187.34,-290.59 2204.38,-272.99"/>
<polygon fill="midnightblue" stroke="midnightblue" points="2206.95,-275.37 2211.27,-265.7 2201.86,-270.57 2206.95,-275.37"/>
</g>
<!-- Node4 -->
<g id="node4" class="node">
<title>Node4</title>
<g id="a_node4"><a xlink:href="J2DManage_8h.html" target="_top" xlink:title=" ">
<polygon fill="white" stroke="black" points="104,-185 104,-204 268,-204 268,-185 104,-185"/>
<text text-anchor="middle" x="186" y="-192" font-family="Helvetica,sans-Serif" font-size="10.00">JSystem/J2DGraph/J2DManage.h</text>
</a>
</g>
</g>
<!-- Node3&#45;&gt;Node4 -->
<g id="edge3" class="edge">
<title>Node3&#45;&gt;Node4</title>
<path fill="none" stroke="midnightblue" d="M326.02,-425.45C315.97,-404.12 288.47,-347.04 261,-302 240.9,-269.04 214.25,-232.67 198.73,-212.1"/>
<polygon fill="midnightblue" stroke="midnightblue" points="201.46,-209.92 192.63,-204.07 195.89,-214.15 201.46,-209.92"/>
</g>
<!-- Node3&#45;&gt;Node7 -->
<g id="edge81" class="edge">
<title>Node3&#45;&gt;Node7</title>
<path fill="none" stroke="midnightblue" d="M282.76,-425.45C200.12,-409.13 38,-370.49 38,-318.5 38,-318.5 38,-318.5 38,-126.5 38,-84.18 63.71,-74.03 102,-56 185.36,-16.75 833.74,-11.72 1021.32,-11.09"/>
<polygon fill="midnightblue" stroke="midnightblue" points="1021.47,-14.59 1031.46,-11.06 1021.45,-7.59 1021.47,-14.59"/>
</g>
<!-- Node8 -->
<g id="node8" class="node">
<title>Node8</title>
<g id="a_node8"><a xlink:href="J2DMaterial_8h.html" target="_top" xlink:title=" ">
<polygon fill="white" stroke="black" points="286,-185 286,-204 450,-204 450,-185 286,-185"/>
<text text-anchor="middle" x="368" y="-192" font-family="Helvetica,sans-Serif" font-size="10.00">JSystem/J2DGraph/J2DMaterial.h</text>
</a>
</g>
</g>
<!-- Node3&#45;&gt;Node8 -->
<g id="edge9" class="edge">
<title>Node3&#45;&gt;Node8</title>
<path fill="none" stroke="midnightblue" d="M331.4,-425.23C336.93,-390.53 357.34,-262.39 365.04,-214.09"/>
<polygon fill="midnightblue" stroke="midnightblue" points="368.51,-214.53 366.63,-204.1 361.6,-213.42 368.51,-214.53"/>
</g>
<!-- Node11 -->
<g id="node11" class="node">
<title>Node11</title>
<g id="a_node11"><a xlink:href="J2DPane_8h.html" target="_top" xlink:title=" ">
<polygon fill="white" stroke="black" points="872,-369.5 872,-388.5 1024,-388.5 1024,-369.5 872,-369.5"/>
<text text-anchor="middle" x="948" y="-376.5" font-family="Helvetica,sans-Serif" font-size="10.00">JSystem/J2DGraph/J2DPane.h</text>
</a>
</g>
</g>
<!-- Node3&#45;&gt;Node11 -->
<g id="edge15" class="edge">
<title>Node3&#45;&gt;Node11</title>
<path fill="none" stroke="midnightblue" d="M410.16,-427C526.62,-416.82 741.77,-398.02 861.63,-387.55"/>
<polygon fill="midnightblue" stroke="midnightblue" points="862.2,-391.01 871.86,-386.65 861.6,-384.04 862.2,-391.01"/>
</g>
<!-- Node36 -->
<g id="node36" class="node">
<title>Node36</title>
<g id="a_node36"><a xlink:href="JUTNameTab_8h.html" target="_top" xlink:title=" ">
<polygon fill="white" stroke="black" points="116,-302.5 116,-332.5 252,-332.5 252,-302.5 116,-302.5"/>
<text text-anchor="start" x="124" y="-320.5" font-family="Helvetica,sans-Serif" font-size="10.00">JSystem/JUtility/JUTName</text>
<text text-anchor="middle" x="184" y="-309.5" font-family="Helvetica,sans-Serif" font-size="10.00">Tab.h</text>
</a>
</g>
</g>
<!-- Node3&#45;&gt;Node36 -->
<g id="edge79" class="edge">
<title>Node3&#45;&gt;Node36</title>
<path fill="none" stroke="midnightblue" d="M319.03,-425.32C296.02,-407.11 242.18,-364.52 209.86,-338.96"/>
<polygon fill="midnightblue" stroke="midnightblue" points="211.77,-336 201.75,-332.55 207.43,-341.49 211.77,-336"/>
</g>
<!-- Node5 -->
<g id="node5" class="node">
<title>Node5</title>
<g id="a_node5"><a xlink:href="JSUInputStream_8h.html" target="_top" xlink:title=" ">
<polygon fill="white" stroke="black" points="180.5,-112.5 180.5,-142.5 321.5,-142.5 321.5,-112.5 180.5,-112.5"/>
<text text-anchor="start" x="188.5" y="-130.5" font-family="Helvetica,sans-Serif" font-size="10.00">JSystem/JSupport/JSUInput</text>
<text text-anchor="middle" x="251" y="-119.5" font-family="Helvetica,sans-Serif" font-size="10.00">Stream.h</text>
</a>
</g>
</g>
<!-- Node4&#45;&gt;Node5 -->
<g id="edge4" class="edge">
<title>Node4&#45;&gt;Node5</title>
<path fill="none" stroke="midnightblue" d="M194.77,-184.73C203.64,-175.86 217.69,-161.81 229.53,-149.97"/>
<polygon fill="midnightblue" stroke="midnightblue" points="232.31,-152.13 236.91,-142.59 227.37,-147.19 232.31,-152.13"/>
</g>
<!-- Node4&#45;&gt;Node7 -->
<g id="edge8" class="edge">
<title>Node4&#45;&gt;Node7</title>
<path fill="none" stroke="midnightblue" d="M180.58,-184.86C166.1,-160.59 129.97,-91.26 166,-56 196.74,-25.92 834.98,-14.41 1021.34,-11.68"/>
<polygon fill="midnightblue" stroke="midnightblue" points="1021.47,-15.18 1031.42,-11.53 1021.37,-8.18 1021.47,-15.18"/>
</g>
<!-- Node6 -->
<g id="node6" class="node">
<title>Node6</title>
<g id="a_node6"><a xlink:href="JSUIosBase_8h.html" target="_top" xlink:title=" ">
<polygon fill="white" stroke="black" points="185.5,-56.5 185.5,-75.5 348.5,-75.5 348.5,-56.5 185.5,-56.5"/>
<text text-anchor="middle" x="267" y="-63.5" font-family="Helvetica,sans-Serif" font-size="10.00">JSystem/JSupport/JSUIosBase.h</text>
</a>
</g>
</g>
<!-- Node5&#45;&gt;Node6 -->
<g id="edge5" class="edge">
<title>Node5&#45;&gt;Node6</title>
<path fill="none" stroke="midnightblue" d="M254.79,-112.4C256.95,-104.38 259.68,-94.23 262.01,-85.57"/>
<polygon fill="midnightblue" stroke="midnightblue" points="265.45,-86.22 264.67,-75.66 258.7,-84.41 265.45,-86.22"/>
</g>
<!-- Node5&#45;&gt;Node7 -->
<g id="edge7" class="edge">
<title>Node5&#45;&gt;Node7</title>
<path fill="none" stroke="midnightblue" d="M279.48,-112.38C314.61,-95.69 376.62,-68.6 433,-56 544.75,-31.02 890.18,-17.11 1021.04,-12.62"/>
<polygon fill="midnightblue" stroke="midnightblue" points="1021.32,-16.12 1031.19,-12.28 1021.08,-9.12 1021.32,-16.12"/>
</g>
<!-- Node6&#45;&gt;Node7 -->
<g id="edge6" class="edge">
<title>Node6&#45;&gt;Node7</title>
<path fill="none" stroke="midnightblue" d="M348.74,-57.75C356.26,-57.14 363.77,-56.54 371,-56 614.22,-37.67 905.28,-20.51 1020.97,-13.89"/>
<polygon fill="midnightblue" stroke="midnightblue" points="1021.5,-17.36 1031.28,-13.3 1021.1,-10.37 1021.5,-17.36"/>
</g>
<!-- Node8&#45;&gt;Node7 -->
<g id="edge14" class="edge">
<title>Node8&#45;&gt;Node7</title>
<path fill="none" stroke="midnightblue" d="M322.73,-184.92C267.54,-173.99 180.39,-155.1 171,-143 161.33,-130.53 166.35,-65.28 176,-56 206.62,-26.54 836.26,-14.61 1021.29,-11.73"/>
<polygon fill="midnightblue" stroke="midnightblue" points="1021.36,-15.22 1031.3,-11.57 1021.25,-8.23 1021.36,-15.22"/>
</g>
<!-- Node9 -->
<g id="node9" class="node">
<title>Node9</title>
<g id="a_node9"><a xlink:href="J2DAnimation_8h.html" target="_top" xlink:title=" ">
<polygon fill="white" stroke="black" points="547.5,-118 547.5,-137 720.5,-137 720.5,-118 547.5,-118"/>
<text text-anchor="middle" x="634" y="-125" font-family="Helvetica,sans-Serif" font-size="10.00">JSystem/J2DGraph/J2DAnimation.h</text>
</a>
</g>
</g>
<!-- Node8&#45;&gt;Node9 -->
<g id="edge10" class="edge">
<title>Node8&#45;&gt;Node9</title>
<path fill="none" stroke="midnightblue" d="M403.05,-184.94C450.79,-173.27 536.33,-152.37 588.83,-139.54"/>
<polygon fill="midnightblue" stroke="midnightblue" points="589.99,-142.86 598.87,-137.08 588.33,-136.06 589.99,-142.86"/>
</g>
<!-- Node9&#45;&gt;Node7 -->
<g id="edge13" class="edge">
<title>Node9&#45;&gt;Node7</title>
<path fill="none" stroke="midnightblue" d="M636.77,-117.77C642.15,-102.37 655.6,-70.62 679,-56 734.93,-21.06 928.12,-13.22 1021.15,-11.48"/>
<polygon fill="midnightblue" stroke="midnightblue" points="1021.24,-14.98 1031.18,-11.31 1021.12,-7.98 1021.24,-14.98"/>
</g>
<!-- Node10 -->
<g id="node10" class="node">
<title>Node10</title>
<g id="a_node10"><a xlink:href="GXTexture_8h.html" target="_top" xlink:title=" ">
<polygon fill="white" stroke="black" points="907.5,-56.5 907.5,-75.5 1024.5,-75.5 1024.5,-56.5 907.5,-56.5"/>
<text text-anchor="middle" x="966" y="-63.5" font-family="Helvetica,sans-Serif" font-size="10.00">dolphin/gx/GXTexture.h</text>
</a>
</g>
</g>
<!-- Node9&#45;&gt;Node10 -->
<g id="edge11" class="edge">
<title>Node9&#45;&gt;Node10</title>
<path fill="none" stroke="midnightblue" d="M681.57,-117.98C741.48,-107.24 844.32,-88.81 908.56,-77.29"/>
<polygon fill="midnightblue" stroke="midnightblue" points="909.3,-80.72 918.52,-75.51 908.06,-73.83 909.3,-80.72"/>
</g>
<!-- Node10&#45;&gt;Node7 -->
<g id="edge12" class="edge">
<title>Node10&#45;&gt;Node7</title>
<path fill="none" stroke="midnightblue" d="M983.03,-56.32C1000.03,-47.66 1026.38,-34.24 1045.99,-24.25"/>
<polygon fill="midnightblue" stroke="midnightblue" points="1047.69,-27.31 1055.01,-19.65 1044.51,-21.08 1047.69,-27.31"/>
</g>
<!-- Node11&#45;&gt;Node7 -->
<g id="edge78" class="edge">
<title>Node11&#45;&gt;Node7</title>
<path fill="none" stroke="midnightblue" d="M1024.45,-371.1C1142.83,-358.27 1357,-325.59 1357,-257 1357,-257 1357,-257 1357,-126.5 1357,-90.69 1347.08,-76.9 1318,-56 1287.44,-34.04 1185.47,-21.18 1122.81,-15.17"/>
<polygon fill="midnightblue" stroke="midnightblue" points="1123.01,-11.68 1112.73,-14.23 1122.36,-18.65 1123.01,-11.68"/>
</g>
<!-- Node11&#45;&gt;Node9 -->
<g id="edge16" class="edge">
<title>Node11&#45;&gt;Node9</title>
<path fill="none" stroke="midnightblue" d="M945.42,-369.2C935.81,-337.94 898.93,-231.35 829,-179 807.79,-163.12 743.34,-148.34 694.29,-138.93"/>
<polygon fill="midnightblue" stroke="midnightblue" points="694.87,-135.47 684.39,-137.06 693.57,-142.35 694.87,-135.47"/>
</g>
<!-- Node12 -->
<g id="node12" class="node">
<title>Node12</title>
<g id="a_node12"><a xlink:href="J2DGrafContext_8h.html" target="_top" xlink:title=" ">
<polygon fill="white" stroke="black" points="680,-179.5 680,-209.5 820,-209.5 820,-179.5 680,-179.5"/>
<text text-anchor="start" x="688" y="-197.5" font-family="Helvetica,sans-Serif" font-size="10.00">JSystem/J2DGraph/J2DGraf</text>
<text text-anchor="middle" x="750" y="-186.5" font-family="Helvetica,sans-Serif" font-size="10.00">Context.h</text>
</a>
</g>
</g>
<!-- Node11&#45;&gt;Node12 -->
<g id="edge17" class="edge">
<title>Node11&#45;&gt;Node12</title>
<path fill="none" stroke="midnightblue" d="M909.34,-369.43C885.58,-362.65 855.66,-351.21 834,-333 796.68,-301.62 771.24,-249.23 758.8,-218.99"/>
<polygon fill="midnightblue" stroke="midnightblue" points="762.03,-217.64 755.09,-209.64 755.53,-220.23 762.03,-217.64"/>
</g>
<!-- Node13 -->
<g id="node13" class="node">
<title>Node13</title>
<g id="a_node13"><a xlink:href="JGeometry_8h.html" target="_top" xlink:title=" ">
<polygon fill="white" stroke="black" points="339.5,-118 339.5,-137 452.5,-137 452.5,-118 339.5,-118"/>
<text text-anchor="middle" x="396" y="-125" font-family="Helvetica,sans-Serif" font-size="10.00">JSystem/JGeometry.h</text>
</a>
</g>
</g>
<!-- Node11&#45;&gt;Node13 -->
<g id="edge24" class="edge">
<title>Node11&#45;&gt;Node13</title>
<path fill="none" stroke="midnightblue" d="M888.76,-369.47C846.28,-362.34 788.13,-350.49 739,-333 625.71,-292.67 599.05,-275.2 498,-210 496.89,-209.29 443.74,-166.74 414.61,-143.41"/>
<polygon fill="midnightblue" stroke="midnightblue" points="416.76,-140.64 406.77,-137.12 412.38,-146.11 416.76,-140.64"/>
</g>
<!-- Node15 -->
<g id="node15" class="node">
<title>Node15</title>
<g id="a_node15"><a xlink:href="JKRArchive_8h.html" target="_top" xlink:title=" ">
<polygon fill="white" stroke="black" points="1634.5,-308 1634.5,-327 1787.5,-327 1787.5,-308 1634.5,-308"/>
<text text-anchor="middle" x="1711" y="-315" font-family="Helvetica,sans-Serif" font-size="10.00">JSystem/JKernel/JKRArchive.h</text>
</a>
</g>
</g>
<!-- Node11&#45;&gt;Node15 -->
<g id="edge25" class="edge">
<title>Node11&#45;&gt;Node15</title>
<path fill="none" stroke="midnightblue" d="M1024.3,-372.05C1167.08,-360.92 1473.77,-337 1624.19,-325.27"/>
<polygon fill="midnightblue" stroke="midnightblue" points="1624.61,-328.75 1634.31,-324.48 1624.07,-321.77 1624.61,-328.75"/>
</g>
<!-- Node20 -->
<g id="node20" class="node">
<title>Node20</title>
<g id="a_node20"><a xlink:href="JSUList_8h.html" target="_top" xlink:title=" ">
<polygon fill="white" stroke="black" points="1873.5,-56.5 1873.5,-75.5 2016.5,-75.5 2016.5,-56.5 1873.5,-56.5"/>
<text text-anchor="middle" x="1945" y="-63.5" font-family="Helvetica,sans-Serif" font-size="10.00">JSystem/JSupport/JSUList.h</text>
</a>
</g>
</g>
<!-- Node11&#45;&gt;Node20 -->
<g id="edge47" class="edge">
<title>Node11&#45;&gt;Node20</title>
<path fill="none" stroke="midnightblue" d="M1024.18,-376.63C1203.88,-372.96 1650.15,-361.22 1797,-333 1964.28,-300.86 2060.74,-348.44 2160,-210 2208.62,-142.19 2072.87,-97.38 1995.15,-77.98"/>
<polygon fill="midnightblue" stroke="midnightblue" points="1995.6,-74.49 1985.06,-75.52 1993.95,-81.29 1995.6,-74.49"/>
</g>
<!-- Node25 -->
<g id="node25" class="node">
<title>Node25</title>
<g id="a_node25"><a xlink:href="JSURandomInputStream_8h.html" target="_top" xlink:title=" ">
<polygon fill="white" stroke="black" points="506.5,-179.5 506.5,-209.5 661.5,-209.5 661.5,-179.5 506.5,-179.5"/>
<text text-anchor="start" x="514.5" y="-197.5" font-family="Helvetica,sans-Serif" font-size="10.00">JSystem/JSupport/JSURandom</text>
<text text-anchor="middle" x="584" y="-186.5" font-family="Helvetica,sans-Serif" font-size="10.00">InputStream.h</text>
</a>
</g>
</g>
<!-- Node11&#45;&gt;Node25 -->
<g id="edge48" class="edge">
<title>Node11&#45;&gt;Node25</title>
<path fill="none" stroke="midnightblue" d="M911.01,-369.48C880.89,-361.87 837.67,-349.39 802,-333 728.71,-299.31 650.54,-244.88 610.7,-215.63"/>
<polygon fill="midnightblue" stroke="midnightblue" points="612.69,-212.75 602.57,-209.62 608.53,-218.38 612.69,-212.75"/>
</g>
<!-- Node26 -->
<g id="node26" class="node">
<title>Node26</title>
<g id="a_node26"><a xlink:href="JUTFont_8h.html" target="_top" xlink:title=" ">
<polygon fill="white" stroke="black" points="1191.5,-185 1191.5,-204 1328.5,-204 1328.5,-185 1191.5,-185"/>
<text text-anchor="middle" x="1260" y="-192" font-family="Helvetica,sans-Serif" font-size="10.00">JSystem/JUtility/JUTFont.h</text>
</a>
</g>
</g>
<!-- Node11&#45;&gt;Node26 -->
<g id="edge51" class="edge">
<title>Node11&#45;&gt;Node26</title>
<path fill="none" stroke="midnightblue" d="M962.63,-369.44C1012.38,-340.34 1175.29,-245.05 1236.49,-209.25"/>
<polygon fill="midnightblue" stroke="midnightblue" points="1238.54,-212.11 1245.4,-204.04 1235,-206.07 1238.54,-212.11"/>
</g>
<!-- Node29 -->
<g id="node29" class="node">
<title>Node29</title>
<g id="a_node29"><a xlink:href="JUTResFont_8h.html" target="_top" xlink:title=" ">
<polygon fill="white" stroke="black" points="1385,-246.5 1385,-265.5 1539,-265.5 1539,-246.5 1385,-246.5"/>
<text text-anchor="middle" x="1462" y="-253.5" font-family="Helvetica,sans-Serif" font-size="10.00">JSystem/JUtility/JUTResFont.h</text>
</a>
</g>
</g>
<!-- Node11&#45;&gt;Node29 -->
<g id="edge59" class="edge">
<title>Node11&#45;&gt;Node29</title>
<path fill="none" stroke="midnightblue" d="M1024.14,-375.2C1128.6,-370.45 1310.31,-358.72 1371,-333 1402.27,-319.75 1431.03,-292.01 1447.53,-273.96"/>
<polygon fill="midnightblue" stroke="midnightblue" points="1450.59,-275.79 1454.6,-265.98 1445.35,-271.14 1450.59,-275.79"/>
</g>
<!-- Node31 -->
<g id="node31" class="node">
<title>Node31</title>
<g id="a_node31"><a xlink:href="JUTTexture_8h.html" target="_top" xlink:title=" ">
<polygon fill="white" stroke="black" points="949.5,-246.5 949.5,-265.5 1098.5,-265.5 1098.5,-246.5 949.5,-246.5"/>
<text text-anchor="middle" x="1024" y="-253.5" font-family="Helvetica,sans-Serif" font-size="10.00">JSystem/JUtility/JUTTexture.h</text>
</a>
</g>
</g>
<!-- Node11&#45;&gt;Node31 -->
<g id="edge66" class="edge">
<title>Node11&#45;&gt;Node31</title>
<path fill="none" stroke="midnightblue" d="M953.47,-369.3C965.95,-349.41 996.77,-300.35 1013.23,-274.15"/>
<polygon fill="midnightblue" stroke="midnightblue" points="1016.23,-275.95 1018.58,-265.62 1010.3,-272.23 1016.23,-275.95"/>
</g>
<!-- Node33 -->
<g id="node33" class="node">
<title>Node33</title>
<g id="a_node33"><a xlink:href="mtx_8h.html" target="_top" xlink:title=" ">
<polygon fill="white" stroke="black" points="876,-185 876,-204 968,-204 968,-185 876,-185"/>
<text text-anchor="middle" x="922" y="-192" font-family="Helvetica,sans-Serif" font-size="10.00">dolphin/mtx/mtx.h</text>
</a>
</g>
</g>
<!-- Node11&#45;&gt;Node33 -->
<g id="edge71" class="edge">
<title>Node11&#45;&gt;Node33</title>
<path fill="none" stroke="midnightblue" d="M946.75,-369.2C942.74,-341.07 930.19,-252.96 924.66,-214.16"/>
<polygon fill="midnightblue" stroke="midnightblue" points="928.12,-213.62 923.24,-204.21 921.19,-214.61 928.12,-213.62"/>
</g>
<!-- Node12&#45;&gt;Node7 -->
<g id="edge23" class="edge">
<title>Node12&#45;&gt;Node7</title>
<path fill="none" stroke="midnightblue" d="M682.65,-179.47C622.65,-166.65 543.6,-148.83 539,-143 530.47,-132.18 531.68,-123.67 539,-112 590.02,-30.71 897.63,-14.84 1020.94,-11.75"/>
<polygon fill="midnightblue" stroke="midnightblue" points="1021.32,-15.24 1031.24,-11.51 1021.16,-8.24 1021.32,-15.24"/>
</g>
<!-- Node12&#45;&gt;Node13 -->
<g id="edge18" class="edge">
<title>Node12&#45;&gt;Node13</title>
<path fill="none" stroke="midnightblue" d="M679.64,-180.58C612.98,-168.34 514.15,-150.19 452.48,-138.87"/>
<polygon fill="midnightblue" stroke="midnightblue" points="453.01,-135.41 442.54,-137.05 451.75,-142.29 453.01,-135.41"/>
</g>
<!-- Node14 -->
<g id="node14" class="node">
<title>Node14</title>
<g id="a_node14"><a xlink:href="JUtility_8h.html" target="_top" xlink:title=" ">
<polygon fill="white" stroke="black" points="929.5,-118 929.5,-137 1024.5,-137 1024.5,-118 929.5,-118"/>
<text text-anchor="middle" x="977" y="-125" font-family="Helvetica,sans-Serif" font-size="10.00">JSystem/JUtility.h</text>
</a>
</g>
</g>
<!-- Node12&#45;&gt;Node14 -->
<g id="edge20" class="edge">
<title>Node12&#45;&gt;Node14</title>
<path fill="none" stroke="midnightblue" d="M798.98,-179.48C840.37,-167.62 898.92,-150.86 937.4,-139.84"/>
<polygon fill="midnightblue" stroke="midnightblue" points="938.57,-143.15 947.22,-137.03 936.64,-136.42 938.57,-143.15"/>
</g>
<!-- Node13&#45;&gt;Node7 -->
<g id="edge19" class="edge">
<title>Node13&#45;&gt;Node7</title>
<path fill="none" stroke="midnightblue" d="M401.57,-117.84C412.15,-102.24 436.82,-69.77 467,-56 565.21,-11.19 894.05,-9.29 1021.2,-10.31"/>
<polygon fill="midnightblue" stroke="midnightblue" points="1021.41,-13.81 1031.44,-10.4 1021.47,-6.81 1021.41,-13.81"/>
</g>
<!-- Node14&#45;&gt;Node7 -->
<g id="edge22" class="edge">
<title>Node14&#45;&gt;Node7</title>
<path fill="none" stroke="midnightblue" d="M953.65,-117.8C924.09,-105.48 879.24,-81.56 899,-56 913.91,-36.71 975.68,-24.15 1021.18,-17.32"/>
<polygon fill="midnightblue" stroke="midnightblue" points="1021.8,-20.77 1031.2,-15.87 1020.8,-13.84 1021.8,-20.77"/>
</g>
<!-- Node14&#45;&gt;Node10 -->
<g id="edge21" class="edge">
<title>Node14&#45;&gt;Node10</title>
<path fill="none" stroke="midnightblue" d="M975.42,-117.98C973.87,-109.58 971.45,-96.48 969.45,-85.66"/>
<polygon fill="midnightblue" stroke="midnightblue" points="972.83,-84.71 967.57,-75.51 965.95,-85.98 972.83,-84.71"/>
</g>
<!-- Node16 -->
<g id="node16" class="node">
<title>Node16</title>
<g id="a_node16"><a xlink:href="JKRCompression_8h.html" target="_top" xlink:title=" ">
<polygon fill="white" stroke="black" points="1622.5,-185 1622.5,-204 1799.5,-204 1799.5,-185 1622.5,-185"/>
<text text-anchor="middle" x="1711" y="-192" font-family="Helvetica,sans-Serif" font-size="10.00">JSystem/JKernel/JKRCompression.h</text>
</a>
</g>
</g>
<!-- Node15&#45;&gt;Node16 -->
<g id="edge26" class="edge">
<title>Node15&#45;&gt;Node16</title>
<path fill="none" stroke="midnightblue" d="M1711,-307.8C1711,-288.35 1711,-240.99 1711,-214.4"/>
<polygon fill="midnightblue" stroke="midnightblue" points="1714.5,-214.12 1711,-204.12 1707.5,-214.12 1714.5,-214.12"/>
</g>
<!-- Node17 -->
<g id="node17" class="node">
<title>Node17</title>
<g id="a_node17"><a xlink:href="JKRDecomp_8h.html" target="_top" xlink:title=" ">
<polygon fill="white" stroke="black" points="1777,-246.5 1777,-265.5 1933,-265.5 1933,-246.5 1777,-246.5"/>
<text text-anchor="middle" x="1855" y="-253.5" font-family="Helvetica,sans-Serif" font-size="10.00">JSystem/JKernel/JKRDecomp.h</text>
</a>
</g>
</g>
<!-- Node15&#45;&gt;Node17 -->
<g id="edge27" class="edge">
<title>Node15&#45;&gt;Node17</title>
<path fill="none" stroke="midnightblue" d="M1731.63,-307.98C1756.12,-297.86 1797.15,-280.9 1825.11,-269.35"/>
<polygon fill="midnightblue" stroke="midnightblue" points="1826.5,-272.56 1834.41,-265.51 1823.83,-266.09 1826.5,-272.56"/>
</g>
<!-- Node23 -->
<g id="node23" class="node">
<title>Node23</title>
<g id="a_node23"><a xlink:href="JKRFileLoader_8h.html" target="_top" xlink:title=" ">
<polygon fill="white" stroke="black" points="1985,-185 1985,-204 2151,-204 2151,-185 1985,-185"/>
<text text-anchor="middle" x="2068" y="-192" font-family="Helvetica,sans-Serif" font-size="10.00">JSystem/JKernel/JKRFileLoader.h</text>
</a>
</g>
</g>
<!-- Node15&#45;&gt;Node23 -->
<g id="edge41" class="edge">
<title>Node15&#45;&gt;Node23</title>
<path fill="none" stroke="midnightblue" d="M1773.71,-307.92C1821.01,-300.24 1886.92,-286.9 1942,-266 1981.28,-251.1 2023.13,-225.49 2047.35,-209.58"/>
<polygon fill="midnightblue" stroke="midnightblue" points="2049.34,-212.46 2055.73,-204.01 2045.46,-206.64 2049.34,-212.46"/>
</g>
<!-- Node24 -->
<g id="node24" class="node">
<title>Node24</title>
<g id="a_node24"><a xlink:href="global_8h.html" target="_top" xlink:title=" ">
<polygon fill="white" stroke="black" points="1595,-246.5 1595,-265.5 1645,-265.5 1645,-246.5 1595,-246.5"/>
<text text-anchor="middle" x="1620" y="-253.5" font-family="Helvetica,sans-Serif" font-size="10.00">global.h</text>
</a>
</g>
</g>
<!-- Node15&#45;&gt;Node24 -->
<g id="edge45" class="edge">
<title>Node15&#45;&gt;Node24</title>
<path fill="none" stroke="midnightblue" d="M1697.96,-307.98C1683.23,-298.34 1659.03,-282.52 1641.49,-271.05"/>
<polygon fill="midnightblue" stroke="midnightblue" points="1643.3,-268.05 1633.01,-265.51 1639.47,-273.91 1643.3,-268.05"/>
</g>
<!-- Node17&#45;&gt;Node7 -->
<g id="edge40" class="edge">
<title>Node17&#45;&gt;Node7</title>
<path fill="none" stroke="midnightblue" d="M1933.01,-254.63C2013.5,-252.4 2131.23,-243.32 2160,-210 2219.03,-141.62 2207.27,-130.77 2049,-56 1965.04,-16.34 1311.26,-11.6 1122.73,-11.06"/>
<polygon fill="midnightblue" stroke="midnightblue" points="1122.55,-7.56 1112.54,-11.04 1122.53,-14.56 1122.55,-7.56"/>
</g>
<!-- Node17&#45;&gt;Node16 -->
<g id="edge28" class="edge">
<title>Node17&#45;&gt;Node16</title>
<path fill="none" stroke="midnightblue" d="M1834.37,-246.48C1809.88,-236.36 1768.85,-219.4 1740.89,-207.85"/>
<polygon fill="midnightblue" stroke="midnightblue" points="1742.17,-204.59 1731.59,-204.01 1739.5,-211.06 1742.17,-204.59"/>
</g>
<!-- Node18 -->
<g id="node18" class="node">
<title>Node18</title>
<g id="a_node18"><a xlink:href="JKRThread_8h.html" target="_top" xlink:title=" ">
<polygon fill="white" stroke="black" points="1817,-185 1817,-204 1967,-204 1967,-185 1817,-185"/>
<text text-anchor="middle" x="1892" y="-192" font-family="Helvetica,sans-Serif" font-size="10.00">JSystem/JKernel/JKRThread.h</text>
</a>
</g>
</g>
<!-- Node17&#45;&gt;Node18 -->
<g id="edge29" class="edge">
<title>Node17&#45;&gt;Node18</title>
<path fill="none" stroke="midnightblue" d="M1860.3,-246.48C1865.74,-237.73 1874.36,-223.87 1881.24,-212.81"/>
<polygon fill="midnightblue" stroke="midnightblue" points="1884.4,-214.35 1886.71,-204.01 1878.46,-210.65 1884.4,-214.35"/>
</g>
<!-- Node18&#45;&gt;Node7 -->
<g id="edge39" class="edge">
<title>Node18&#45;&gt;Node7</title>
<path fill="none" stroke="midnightblue" d="M1861.51,-184.96C1832.16,-176.21 1786.92,-161.31 1750,-143 1686.72,-111.61 1683.8,-78.94 1617,-56 1526.46,-24.9 1240.37,-14.88 1123,-12.02"/>
<polygon fill="midnightblue" stroke="midnightblue" points="1122.92,-8.52 1112.84,-11.78 1122.76,-15.51 1122.92,-8.52"/>
</g>
<!-- Node19 -->
<g id="node19" class="node">
<title>Node19</title>
<g id="a_node19"><a xlink:href="JKRDisposer_8h.html" target="_top" xlink:title=" ">
<polygon fill="white" stroke="black" points="1759,-118 1759,-137 1917,-137 1917,-118 1759,-118"/>
<text text-anchor="middle" x="1838" y="-125" font-family="Helvetica,sans-Serif" font-size="10.00">JSystem/JKernel/JKRDisposer.h</text>
</a>
</g>
</g>
<!-- Node18&#45;&gt;Node19 -->
<g id="edge30" class="edge">
<title>Node18&#45;&gt;Node19</title>
<path fill="none" stroke="midnightblue" d="M1884.72,-184.73C1876.3,-174.6 1862.25,-157.69 1851.75,-145.06"/>
<polygon fill="midnightblue" stroke="midnightblue" points="1854.25,-142.58 1845.17,-137.13 1848.87,-147.06 1854.25,-142.58"/>
</g>
<!-- Node18&#45;&gt;Node20 -->
<g id="edge34" class="edge">
<title>Node18&#45;&gt;Node20</title>
<path fill="none" stroke="midnightblue" d="M1899.29,-184.76C1906.98,-175.11 1918.95,-158.84 1926,-143 1934.28,-124.4 1939.37,-101.57 1942.17,-85.82"/>
<polygon fill="midnightblue" stroke="midnightblue" points="1945.66,-86.19 1943.82,-75.76 1938.75,-85.06 1945.66,-86.19"/>
</g>
<!-- Node21 -->
<g id="node21" class="node">
<title>Node21</title>
<g id="a_node21"><a xlink:href="OS_8h.html" target="_top" xlink:title=" ">
<polygon fill="white" stroke="black" points="1533,-118 1533,-137 1619,-137 1619,-118 1533,-118"/>
<text text-anchor="middle" x="1576" y="-125" font-family="Helvetica,sans-Serif" font-size="10.00">dolphin/os/OS.h</text>
</a>
</g>
</g>
<!-- Node18&#45;&gt;Node21 -->
<g id="edge35" class="edge">
<title>Node18&#45;&gt;Node21</title>
<path fill="none" stroke="midnightblue" d="M1850.36,-184.94C1792.97,-173.13 1689.62,-151.87 1627.46,-139.09"/>
<polygon fill="midnightblue" stroke="midnightblue" points="1627.98,-135.62 1617.48,-137.03 1626.57,-142.47 1627.98,-135.62"/>
</g>
<!-- Node19&#45;&gt;Node7 -->
<g id="edge33" class="edge">
<title>Node19&#45;&gt;Node7</title>
<path fill="none" stroke="midnightblue" d="M1829.01,-117.8C1812.19,-102.13 1774.1,-69.57 1735,-56 1622.13,-16.84 1257.96,-11.59 1122.97,-11.01"/>
<polygon fill="midnightblue" stroke="midnightblue" points="1122.9,-7.51 1112.89,-10.98 1122.88,-14.51 1122.9,-7.51"/>
</g>
<!-- Node19&#45;&gt;Node20 -->
<g id="edge31" class="edge">
<title>Node19&#45;&gt;Node20</title>
<path fill="none" stroke="midnightblue" d="M1853.33,-117.98C1870.97,-108.17 1900.16,-91.93 1920.86,-80.42"/>
<polygon fill="midnightblue" stroke="midnightblue" points="1922.66,-83.43 1929.7,-75.51 1919.26,-77.31 1922.66,-83.43"/>
</g>
<!-- Node20&#45;&gt;Node7 -->
<g id="edge32" class="edge">
<title>Node20&#45;&gt;Node7</title>
<path fill="none" stroke="midnightblue" d="M1873.42,-60.02C1853.83,-58.69 1832.6,-57.26 1813,-56 1553.37,-39.27 1242.45,-20.94 1122.56,-13.94"/>
<polygon fill="midnightblue" stroke="midnightblue" points="1122.76,-10.45 1112.57,-13.36 1122.35,-17.43 1122.76,-10.45"/>
</g>
<!-- Node21&#45;&gt;Node7 -->
<g id="edge36" class="edge">
<title>Node21&#45;&gt;Node7</title>
<path fill="none" stroke="midnightblue" d="M1584.05,-117.54C1596.23,-102.9 1616.27,-73.71 1600,-56 1568.11,-21.28 1248.75,-13.31 1122.74,-11.51"/>
<polygon fill="midnightblue" stroke="midnightblue" points="1122.63,-8.01 1112.58,-11.37 1122.54,-15.01 1122.63,-8.01"/>
</g>
<!-- Node22 -->
<g id="node22" class="node">
<title>Node22</title>
<g id="a_node22"><a xlink:href="dvd_8h.html" target="_top" xlink:title=" ">
<polygon fill="white" stroke="black" points="1499,-56.5 1499,-75.5 1591,-75.5 1591,-56.5 1499,-56.5"/>
<text text-anchor="middle" x="1545" y="-63.5" font-family="Helvetica,sans-Serif" font-size="10.00">dolphin/dvd/dvd.h</text>
</a>
</g>
</g>
<!-- Node21&#45;&gt;Node22 -->
<g id="edge37" class="edge">
<title>Node21&#45;&gt;Node22</title>
<path fill="none" stroke="midnightblue" d="M1571.56,-117.98C1567.05,-109.32 1559.93,-95.65 1554.19,-84.65"/>
<polygon fill="midnightblue" stroke="midnightblue" points="1557.16,-82.76 1549.43,-75.51 1550.95,-85.99 1557.16,-82.76"/>
</g>
<!-- Node22&#45;&gt;Node7 -->
<g id="edge38" class="edge">
<title>Node22&#45;&gt;Node7</title>
<path fill="none" stroke="midnightblue" d="M1498.84,-57.88C1494.17,-57.22 1489.49,-56.58 1485,-56 1354.59,-39.12 1200.46,-23.46 1122.54,-15.84"/>
<polygon fill="midnightblue" stroke="midnightblue" points="1122.81,-12.35 1112.51,-14.87 1122.13,-19.32 1122.81,-12.35"/>
</g>
<!-- Node23&#45;&gt;Node7 -->
<g id="edge44" class="edge">
<title>Node23&#45;&gt;Node7</title>
<path fill="none" stroke="midnightblue" d="M2068.43,-184.89C2069.14,-160.09 2067.39,-88.17 2026,-56 1990.11,-28.1 1315.39,-14.98 1122.88,-11.79"/>
<polygon fill="midnightblue" stroke="midnightblue" points="1122.81,-8.29 1112.75,-11.62 1122.69,-15.29 1122.81,-8.29"/>
</g>
<!-- Node23&#45;&gt;Node19 -->
<g id="edge42" class="edge">
<title>Node23&#45;&gt;Node19</title>
<path fill="none" stroke="midnightblue" d="M2037.46,-184.87C1996.45,-173.28 1923.5,-152.66 1878.1,-139.83"/>
<polygon fill="midnightblue" stroke="midnightblue" points="1878.88,-136.42 1868.3,-137.06 1876.97,-143.15 1878.88,-136.42"/>
</g>
<!-- Node23&#45;&gt;Node20 -->
<g id="edge43" class="edge">
<title>Node23&#45;&gt;Node20</title>
<path fill="none" stroke="midnightblue" d="M2059.55,-184.81C2039.18,-163.86 1987.15,-110.35 1960.8,-83.25"/>
<polygon fill="midnightblue" stroke="midnightblue" points="1962.99,-80.49 1953.51,-75.76 1957.98,-85.37 1962.99,-80.49"/>
</g>
<!-- Node24&#45;&gt;Node7 -->
<g id="edge46" class="edge">
<title>Node24&#45;&gt;Node7</title>
<path fill="none" stroke="midnightblue" d="M1594.69,-251.04C1553.37,-244.13 1473.88,-228.77 1453,-210 1398.36,-160.9 1450.67,-101.49 1393,-56 1352.14,-23.77 1202.78,-14.62 1123.02,-12.03"/>
<polygon fill="midnightblue" stroke="midnightblue" points="1122.81,-8.52 1112.71,-11.72 1122.6,-15.52 1122.81,-8.52"/>
</g>
<!-- Node25&#45;&gt;Node5 -->
<g id="edge49" class="edge">
<title>Node25&#45;&gt;Node5</title>
<path fill="none" stroke="midnightblue" d="M512.15,-179.48C459.06,-169.11 386.73,-154.99 331.65,-144.24"/>
<polygon fill="midnightblue" stroke="midnightblue" points="332.06,-140.76 321.57,-142.28 330.72,-147.63 332.06,-140.76"/>
</g>
<!-- Node25&#45;&gt;Node7 -->
<g id="edge50" class="edge">
<title>Node25&#45;&gt;Node7</title>
<path fill="none" stroke="midnightblue" d="M561.22,-179.44C549.21,-170.62 535.62,-158.07 529,-143 510.6,-101.12 542.67,-75.62 584,-56 660.41,-19.73 912.52,-12.65 1021.3,-11.3"/>
<polygon fill="midnightblue" stroke="midnightblue" points="1021.41,-14.8 1031.37,-11.19 1021.33,-7.8 1021.41,-14.8"/>
</g>
<!-- Node26&#45;&gt;Node7 -->
<g id="edge58" class="edge">
<title>Node26&#45;&gt;Node7</title>
<path fill="none" stroke="midnightblue" d="M1267.43,-184.69C1286.36,-161.12 1332.68,-95.76 1300,-56 1278.02,-29.26 1183.09,-18.15 1122.87,-13.73"/>
<polygon fill="midnightblue" stroke="midnightblue" points="1123,-10.23 1112.78,-13.03 1122.52,-17.21 1123,-10.23"/>
</g>
<!-- Node26&#45;&gt;Node14 -->
<g id="edge52" class="edge">
<title>Node26&#45;&gt;Node14</title>
<path fill="none" stroke="midnightblue" d="M1222.71,-184.94C1171.7,-173.22 1080.15,-152.19 1024.36,-139.38"/>
<polygon fill="midnightblue" stroke="midnightblue" points="1024.9,-135.91 1014.37,-137.08 1023.33,-142.73 1024.9,-135.91"/>
</g>
<!-- Node27 -->
<g id="node27" class="node">
<title>Node27</title>
<g id="a_node27"><a xlink:href="GX_8h.html" target="_top" xlink:title=" ">
<polygon fill="white" stroke="black" points="1119.5,-118 1119.5,-137 1204.5,-137 1204.5,-118 1119.5,-118"/>
<text text-anchor="middle" x="1162" y="-125" font-family="Helvetica,sans-Serif" font-size="10.00">dolphin/gx/GX.h</text>
</a>
</g>
</g>
<!-- Node26&#45;&gt;Node27 -->
<g id="edge53" class="edge">
<title>Node26&#45;&gt;Node27</title>
<path fill="none" stroke="midnightblue" d="M1246.78,-184.73C1230.55,-173.96 1202.78,-155.55 1183.47,-142.74"/>
<polygon fill="midnightblue" stroke="midnightblue" points="1185.28,-139.74 1175.01,-137.13 1181.41,-145.57 1185.28,-139.74"/>
</g>
<!-- Node27&#45;&gt;Node7 -->
<g id="edge57" class="edge">
<title>Node27&#45;&gt;Node7</title>
<path fill="none" stroke="midnightblue" d="M1155.24,-117.82C1140.38,-98.76 1104.69,-52.95 1085.21,-27.96"/>
<polygon fill="midnightblue" stroke="midnightblue" points="1087.75,-25.52 1078.84,-19.78 1082.23,-29.82 1087.75,-25.52"/>
</g>
<!-- Node27&#45;&gt;Node10 -->
<g id="edge56" class="edge">
<title>Node27&#45;&gt;Node10</title>
<path fill="none" stroke="midnightblue" d="M1133.92,-117.98C1099.71,-107.59 1041.8,-90.01 1003.73,-78.45"/>
<polygon fill="midnightblue" stroke="midnightblue" points="1004.62,-75.06 994.03,-75.51 1002.58,-81.76 1004.62,-75.06"/>
</g>
<!-- Node28 -->
<g id="node28" class="node">
<title>Node28</title>
<g id="a_node28"><a xlink:href="GXDisplayList_8h.html" target="_top" xlink:title=" ">
<polygon fill="white" stroke="black" points="1157.5,-56.5 1157.5,-75.5 1290.5,-75.5 1290.5,-56.5 1157.5,-56.5"/>
<text text-anchor="middle" x="1224" y="-63.5" font-family="Helvetica,sans-Serif" font-size="10.00">dolphin/gx/GXDisplayList.h</text>
</a>
</g>
</g>
<!-- Node27&#45;&gt;Node28 -->
<g id="edge54" class="edge">
<title>Node27&#45;&gt;Node28</title>
<path fill="none" stroke="midnightblue" d="M1170.88,-117.98C1180.46,-108.78 1195.91,-93.96 1207.69,-82.66"/>
<polygon fill="midnightblue" stroke="midnightblue" points="1210.34,-84.96 1215.13,-75.51 1205.49,-79.91 1210.34,-84.96"/>
</g>
<!-- Node28&#45;&gt;Node7 -->
<g id="edge55" class="edge">
<title>Node28&#45;&gt;Node7</title>
<path fill="none" stroke="midnightblue" d="M1199.92,-56.44C1174.46,-47.4 1134.11,-33.06 1105.54,-22.92"/>
<polygon fill="midnightblue" stroke="midnightblue" points="1106.57,-19.57 1095.97,-19.52 1104.22,-26.16 1106.57,-19.57"/>
</g>
<!-- Node29&#45;&gt;Node7 -->
<g id="edge65" class="edge">
<title>Node29&#45;&gt;Node7</title>
<path fill="none" stroke="midnightblue" d="M1451.36,-246.41C1441.65,-238.06 1427.56,-224.52 1419,-210 1382.61,-148.23 1425.41,-102.68 1371,-56 1334.66,-24.83 1198.29,-15.23 1122.9,-12.29"/>
<polygon fill="midnightblue" stroke="midnightblue" points="1122.8,-8.78 1112.68,-11.92 1122.55,-15.78 1122.8,-8.78"/>
</g>
<!-- Node29&#45;&gt;Node26 -->
<g id="edge64" class="edge">
<title>Node29&#45;&gt;Node26</title>
<path fill="none" stroke="midnightblue" d="M1433.06,-246.48C1397.73,-236.07 1337.87,-218.44 1298.64,-206.88"/>
<polygon fill="midnightblue" stroke="midnightblue" points="1299.47,-203.48 1288.89,-204.01 1297.49,-210.19 1299.47,-203.48"/>
</g>
<!-- Node30 -->
<g id="node30" class="node">
<title>Node30</title>
<g id="a_node30"><a xlink:href="JKRHeap_8h.html" target="_top" xlink:title=" ">
<polygon fill="white" stroke="black" points="1461.5,-185 1461.5,-204 1604.5,-204 1604.5,-185 1461.5,-185"/>
<text text-anchor="middle" x="1533" y="-192" font-family="Helvetica,sans-Serif" font-size="10.00">JSystem/JKernel/JKRHeap.h</text>
</a>
</g>
</g>
<!-- Node29&#45;&gt;Node30 -->
<g id="edge60" class="edge">
<title>Node29&#45;&gt;Node30</title>
<path fill="none" stroke="midnightblue" d="M1472.17,-246.48C1483.35,-237.11 1501.52,-221.88 1515.09,-210.51"/>
<polygon fill="midnightblue" stroke="midnightblue" points="1517.43,-213.11 1522.85,-204.01 1512.93,-207.75 1517.43,-213.11"/>
</g>
<!-- Node30&#45;&gt;Node7 -->
<g id="edge63" class="edge">
<title>Node30&#45;&gt;Node7</title>
<path fill="none" stroke="midnightblue" d="M1530.5,-184.85C1522.81,-159.91 1496.92,-87.69 1447,-56 1394.28,-22.53 1212.44,-13.96 1122.79,-11.76"/>
<polygon fill="midnightblue" stroke="midnightblue" points="1122.66,-8.25 1112.59,-11.53 1122.5,-15.25 1122.66,-8.25"/>
</g>
<!-- Node30&#45;&gt;Node19 -->
<g id="edge61" class="edge">
<title>Node30&#45;&gt;Node19</title>
<path fill="none" stroke="midnightblue" d="M1573.19,-184.94C1628.39,-173.17 1727.65,-152.02 1787.71,-139.22"/>
<polygon fill="midnightblue" stroke="midnightblue" points="1788.67,-142.59 1797.72,-137.08 1787.21,-135.74 1788.67,-142.59"/>
</g>
<!-- Node30&#45;&gt;Node21 -->
<g id="edge62" class="edge">
<title>Node30&#45;&gt;Node21</title>
<path fill="none" stroke="midnightblue" d="M1538.8,-184.73C1545.38,-174.79 1556.26,-158.34 1564.56,-145.79"/>
<polygon fill="midnightblue" stroke="midnightblue" points="1567.69,-147.4 1570.29,-137.13 1561.86,-143.54 1567.69,-147.4"/>
</g>
<!-- Node31&#45;&gt;Node7 -->
<g id="edge70" class="edge">
<title>Node31&#45;&gt;Node7</title>
<path fill="none" stroke="midnightblue" d="M1021.26,-246.45C1017.12,-232.25 1010.33,-203.02 1016,-179 1020.11,-161.59 1027.5,-159.67 1034,-143 1049.4,-103.52 1061.73,-55.25 1067.83,-29.41"/>
<polygon fill="midnightblue" stroke="midnightblue" points="1071.28,-30.05 1070.12,-19.52 1064.46,-28.47 1071.28,-30.05"/>
</g>
<!-- Node32 -->
<g id="node32" class="node">
<title>Node32</title>
<g id="a_node32"><a xlink:href="JUTPalette_8h.html" target="_top" xlink:title=" ">
<polygon fill="white" stroke="black" points="1025,-185 1025,-204 1173,-204 1173,-185 1025,-185"/>
<text text-anchor="middle" x="1099" y="-192" font-family="Helvetica,sans-Serif" font-size="10.00">JSystem/JUtility/JUTPalette.h</text>
</a>
</g>
</g>
<!-- Node31&#45;&gt;Node32 -->
<g id="edge67" class="edge">
<title>Node31&#45;&gt;Node32</title>
<path fill="none" stroke="midnightblue" d="M1034.75,-246.48C1046.55,-237.11 1065.74,-221.88 1080.08,-210.51"/>
<polygon fill="midnightblue" stroke="midnightblue" points="1082.62,-212.97 1088.27,-204.01 1078.26,-207.48 1082.62,-212.97"/>
</g>
<!-- Node32&#45;&gt;Node7 -->
<g id="edge69" class="edge">
<title>Node32&#45;&gt;Node7</title>
<path fill="none" stroke="midnightblue" d="M1097.7,-184.7C1093.54,-156.57 1080.5,-68.46 1074.76,-29.66"/>
<polygon fill="midnightblue" stroke="midnightblue" points="1078.22,-29.09 1073.29,-19.71 1071.29,-30.12 1078.22,-29.09"/>
</g>
<!-- Node32&#45;&gt;Node27 -->
<g id="edge68" class="edge">
<title>Node32&#45;&gt;Node27</title>
<path fill="none" stroke="midnightblue" d="M1107.5,-184.73C1117.51,-174.4 1134.34,-157.04 1146.66,-144.33"/>
<polygon fill="midnightblue" stroke="midnightblue" points="1149.19,-146.74 1153.64,-137.13 1144.17,-141.87 1149.19,-146.74"/>
</g>
<!-- Node33&#45;&gt;Node7 -->
<g id="edge77" class="edge">
<title>Node33&#45;&gt;Node7</title>
<path fill="none" stroke="midnightblue" d="M891.66,-184.94C849.76,-172.89 778.26,-151.47 769,-143 738.92,-115.5 713.18,-86.69 740,-56 775.91,-14.9 937.59,-9.87 1021.35,-10.12"/>
<polygon fill="midnightblue" stroke="midnightblue" points="1021.38,-13.62 1031.4,-10.18 1021.42,-6.62 1021.38,-13.62"/>
</g>
<!-- Node34 -->
<g id="node34" class="node">
<title>Node34</title>
<g id="a_node34"><a xlink:href="quat_8h.html" target="_top" xlink:title=" ">
<polygon fill="white" stroke="black" points="777.5,-118 777.5,-137 872.5,-137 872.5,-118 777.5,-118"/>
<text text-anchor="middle" x="825" y="-125" font-family="Helvetica,sans-Serif" font-size="10.00">dolphin/mtx/quat.h</text>
</a>
</g>
</g>
<!-- Node33&#45;&gt;Node34 -->
<g id="edge72" class="edge">
<title>Node33&#45;&gt;Node34</title>
<path fill="none" stroke="midnightblue" d="M908.92,-184.73C892.85,-173.96 865.37,-155.55 846.25,-142.74"/>
<polygon fill="midnightblue" stroke="midnightblue" points="848.13,-139.79 837.87,-137.13 844.23,-145.6 848.13,-139.79"/>
</g>
<!-- Node35 -->
<g id="node35" class="node">
<title>Node35</title>
<g id="a_node35"><a xlink:href="vec_8h.html" target="_top" xlink:title=" ">
<polygon fill="white" stroke="black" points="759,-56.5 759,-75.5 851,-75.5 851,-56.5 759,-56.5"/>
<text text-anchor="middle" x="805" y="-63.5" font-family="Helvetica,sans-Serif" font-size="10.00">dolphin/mtx/vec.h</text>
</a>
</g>
</g>
<!-- Node33&#45;&gt;Node35 -->
<g id="edge76" class="edge">
<title>Node33&#45;&gt;Node35</title>
<path fill="none" stroke="midnightblue" d="M919.61,-184.92C914.8,-168.92 902.61,-134.16 882,-112 869.25,-98.29 851.37,-87.49 836.05,-79.92"/>
<polygon fill="midnightblue" stroke="midnightblue" points="837.44,-76.7 826.91,-75.62 834.47,-83.04 837.44,-76.7"/>
</g>
<!-- Node34&#45;&gt;Node7 -->
<g id="edge75" class="edge">
<title>Node34&#45;&gt;Node7</title>
<path fill="none" stroke="midnightblue" d="M803.51,-117.97C774.54,-105.26 728.89,-80.27 750,-56 784.55,-16.28 939.69,-10.55 1021.36,-10.37"/>
<polygon fill="midnightblue" stroke="midnightblue" points="1021.41,-13.87 1031.42,-10.37 1021.42,-6.87 1021.41,-13.87"/>
</g>
<!-- Node34&#45;&gt;Node35 -->
<g id="edge73" class="edge">
<title>Node34&#45;&gt;Node35</title>
<path fill="none" stroke="midnightblue" d="M822.13,-117.98C819.28,-109.49 814.82,-96.2 811.16,-85.32"/>
<polygon fill="midnightblue" stroke="midnightblue" points="814.36,-83.87 807.86,-75.51 807.73,-86.1 814.36,-83.87"/>
</g>
<!-- Node35&#45;&gt;Node7 -->
<g id="edge74" class="edge">
<title>Node35&#45;&gt;Node7</title>
<path fill="none" stroke="midnightblue" d="M847.31,-56.44C894.49,-46.9 970.79,-31.47 1021.18,-21.28"/>
<polygon fill="midnightblue" stroke="midnightblue" points="1022.1,-24.66 1031.2,-19.25 1020.71,-17.8 1022.1,-24.66"/>
</g>
<!-- Node36&#45;&gt;Node7 -->
<g id="edge80" class="edge">
<title>Node36&#45;&gt;Node7</title>
<path fill="none" stroke="midnightblue" d="M158.13,-302.46C126.18,-283.01 76,-244.64 76,-195.5 76,-195.5 76,-195.5 76,-126.5 76,-81.07 108.25,-73.9 150,-56 230.1,-21.66 839.78,-13.19 1021.22,-11.42"/>
<polygon fill="midnightblue" stroke="midnightblue" points="1021.32,-14.92 1031.29,-11.32 1021.26,-7.92 1021.32,-14.92"/>
</g>
<!-- Node37&#45;&gt;Node7 -->
<g id="edge84" class="edge">
<title>Node37&#45;&gt;Node7</title>
<path fill="none" stroke="midnightblue" d="M2219.51,-246.24C2220.44,-222.19 2219.94,-154.09 2188,-112 2155.79,-69.56 2133.42,-69.97 2082,-56 1989.17,-30.78 1314.72,-15.76 1122.81,-11.96"/>
<polygon fill="midnightblue" stroke="midnightblue" points="1122.78,-8.46 1112.72,-11.76 1122.65,-15.46 1122.78,-8.46"/>
</g>
<!-- Node37&#45;&gt;Node30 -->
<g id="edge83" class="edge">
<title>Node37&#45;&gt;Node30</title>
<path fill="none" stroke="midnightblue" d="M2139.46,-251.7C2023.54,-246.29 1801.57,-233.7 1614,-210 1604.84,-208.84 1595.14,-207.35 1585.76,-205.75"/>
<polygon fill="midnightblue" stroke="midnightblue" points="1586.21,-202.28 1575.75,-204 1585,-209.17 1586.21,-202.28"/>
</g>
</g>
</svg>
