<?xml version="1.0" encoding="UTF-8" standalone="no"?>
<!DOCTYPE svg PUBLIC "-//W3C//DTD SVG 1.1//EN"
 "http://www.w3.org/Graphics/SVG/1.1/DTD/svg11.dtd">
<!-- Generated by graphviz version 2.44.0 ()
 -->
<!-- Title: include/d/d_stage.h Pages: 1 -->
<svg width="1120pt" height="542pt"
 viewBox="0.00 0.00 1119.83 542.00" xmlns="http://www.w3.org/2000/svg" xmlns:xlink="http://www.w3.org/1999/xlink">
<g id="graph0" class="graph" transform="scale(1 1) rotate(0) translate(4 538)">
<title>include/d/d_stage.h</title>
<polygon fill="white" stroke="transparent" points="-4,4 -4,-538 1115.83,-538 1115.83,4 -4,4"/>
<!-- Node1 -->
<g id="node1" class="node">
<title>Node1</title>
<g id="a_node1"><a xlink:title=" ">
<polygon fill="#bfbfbf" stroke="black" points="650,-514.5 650,-533.5 751,-533.5 751,-514.5 650,-514.5"/>
<text text-anchor="middle" x="700.5" y="-521.5" font-family="Helvetica,sans-Serif" font-size="10.00">include/d/d_stage.h</text>
</a>
</g>
</g>
<!-- Node2 -->
<g id="node2" class="node">
<title>Node2</title>
<g id="a_node2"><a xlink:href="d__stage_8cpp.html" target="_top" xlink:title=" ">
<polygon fill="white" stroke="black" points="271.5,-453 271.5,-472 365.5,-472 365.5,-453 271.5,-453"/>
<text text-anchor="middle" x="318.5" y="-460" font-family="Helvetica,sans-Serif" font-size="10.00">src/d/d_stage.cpp</text>
</a>
</g>
</g>
<!-- Node1&#45;&gt;Node2 -->
<g id="edge1" class="edge">
<title>Node1&#45;&gt;Node2</title>
<path fill="none" stroke="midnightblue" d="M639.75,-516.75C574.02,-509.49 466.27,-496.15 374.5,-478 366.13,-476.34 357.14,-474.19 348.87,-472.05"/>
<polygon fill="midnightblue" stroke="midnightblue" points="639.61,-520.26 649.94,-517.86 640.37,-513.3 639.61,-520.26"/>
</g>
<!-- Node3 -->
<g id="node3" class="node">
<title>Node3</title>
<g id="a_node3"><a xlink:href="f__op__actor_8cpp.html" target="_top" xlink:title=" ">
<polygon fill="white" stroke="black" points="384,-453 384,-472 503,-472 503,-453 384,-453"/>
<text text-anchor="middle" x="443.5" y="-460" font-family="Helvetica,sans-Serif" font-size="10.00">src/f_op/f_op_actor.cpp</text>
</a>
</g>
</g>
<!-- Node1&#45;&gt;Node3 -->
<g id="edge2" class="edge">
<title>Node1&#45;&gt;Node3</title>
<path fill="none" stroke="midnightblue" d="M653.79,-512.19C603.92,-500.64 525.93,-482.58 480.25,-472.01"/>
<polygon fill="midnightblue" stroke="midnightblue" points="653.15,-515.63 663.68,-514.48 654.73,-508.81 653.15,-515.63"/>
</g>
<!-- Node4 -->
<g id="node4" class="node">
<title>Node4</title>
<g id="a_node4"><a xlink:href="f__op__actor__mng_8cpp.html" target="_top" xlink:title=" ">
<polygon fill="white" stroke="black" points="521,-447.5 521,-477.5 622,-477.5 622,-447.5 521,-447.5"/>
<text text-anchor="start" x="529" y="-465.5" font-family="Helvetica,sans-Serif" font-size="10.00">src/f_op/f_op_actor</text>
<text text-anchor="middle" x="571.5" y="-454.5" font-family="Helvetica,sans-Serif" font-size="10.00">_mng.cpp</text>
</a>
</g>
</g>
<!-- Node1&#45;&gt;Node4 -->
<g id="edge3" class="edge">
<title>Node1&#45;&gt;Node4</title>
<path fill="none" stroke="midnightblue" d="M672.75,-510.2C651.9,-500.58 623.37,-487.42 601.9,-477.52"/>
<polygon fill="midnightblue" stroke="midnightblue" points="671.47,-513.46 682.02,-514.48 674.4,-507.11 671.47,-513.46"/>
</g>
<!-- Node5 -->
<g id="node5" class="node">
<title>Node5</title>
<g id="a_node5"><a xlink:href="d__a__player_8h.html" target="_top" xlink:title=" ">
<polygon fill="white" stroke="black" points="640,-453 640,-472 761,-472 761,-453 640,-453"/>
<text text-anchor="middle" x="700.5" y="-460" font-family="Helvetica,sans-Serif" font-size="10.00">include/d/a/d_a_player.h</text>
</a>
</g>
</g>
<!-- Node1&#45;&gt;Node5 -->
<g id="edge4" class="edge">
<title>Node1&#45;&gt;Node5</title>
<path fill="none" stroke="midnightblue" d="M700.5,-504.32C700.5,-493.5 700.5,-480.4 700.5,-472.01"/>
<polygon fill="midnightblue" stroke="midnightblue" points="697,-504.48 700.5,-514.48 704,-504.48 697,-504.48"/>
</g>
<!-- Node9 -->
<g id="node9" class="node">
<title>Node9</title>
<g id="a_node9"><a xlink:href="d__com__inf__game_8h.html" target="_top" xlink:title=" ">
<polygon fill="white" stroke="black" points="700.5,-123.5 700.5,-153.5 810.5,-153.5 810.5,-123.5 700.5,-123.5"/>
<text text-anchor="start" x="708.5" y="-141.5" font-family="Helvetica,sans-Serif" font-size="10.00">include/d/com/d_com</text>
<text text-anchor="middle" x="755.5" y="-130.5" font-family="Helvetica,sans-Serif" font-size="10.00">_inf_game.h</text>
</a>
</g>
</g>
<!-- Node1&#45;&gt;Node9 -->
<g id="edge36" class="edge">
<title>Node1&#45;&gt;Node9</title>
<path fill="none" stroke="midnightblue" d="M730.59,-509.83C744.37,-502.37 759.75,-491.74 769.5,-478 791.07,-447.57 789.5,-433.8 789.5,-396.5 789.5,-396.5 789.5,-396.5 789.5,-260.5 789.5,-220.57 772.13,-175.9 762.22,-153.66"/>
<polygon fill="midnightblue" stroke="midnightblue" points="728.74,-506.85 721.4,-514.5 731.9,-513.09 728.74,-506.85"/>
</g>
<!-- Node27 -->
<g id="node27" class="node">
<title>Node27</title>
<g id="a_node27"><a xlink:href="d__event_8h.html" target="_top" xlink:title=" ">
<polygon fill="white" stroke="black" points="977.5,-319 977.5,-338 1105.5,-338 1105.5,-319 977.5,-319"/>
<text text-anchor="middle" x="1041.5" y="-326" font-family="Helvetica,sans-Serif" font-size="10.00">include/d/event/d_event.h</text>
</a>
</g>
</g>
<!-- Node1&#45;&gt;Node27 -->
<g id="edge37" class="edge">
<title>Node1&#45;&gt;Node27</title>
<path fill="none" stroke="midnightblue" d="M761.18,-515.87C864.74,-502.23 1068.18,-468.59 1106.5,-411 1114.13,-399.53 1112.56,-392.38 1106.5,-380 1096.95,-360.49 1075.83,-346.34 1060.24,-338.07"/>
<polygon fill="midnightblue" stroke="midnightblue" points="760.64,-512.41 751.17,-517.16 761.54,-519.35 760.64,-512.41"/>
</g>
<!-- Node28 -->
<g id="node28" class="node">
<title>Node28</title>
<g id="a_node28"><a xlink:href="d__event__data_8h.html" target="_top" xlink:title=" ">
<polygon fill="white" stroke="black" points="817.5,-447.5 817.5,-477.5 937.5,-477.5 937.5,-447.5 817.5,-447.5"/>
<text text-anchor="start" x="825.5" y="-465.5" font-family="Helvetica,sans-Serif" font-size="10.00">include/d/event/d_event</text>
<text text-anchor="middle" x="877.5" y="-454.5" font-family="Helvetica,sans-Serif" font-size="10.00">_data.h</text>
</a>
</g>
</g>
<!-- Node1&#45;&gt;Node28 -->
<g id="edge38" class="edge">
<title>Node1&#45;&gt;Node28</title>
<path fill="none" stroke="midnightblue" d="M735.51,-511.23C764.33,-501.54 805.27,-487.78 835.78,-477.52"/>
<polygon fill="midnightblue" stroke="midnightblue" points="734.22,-507.97 725.86,-514.48 736.45,-514.61 734.22,-507.97"/>
</g>
<!-- Node6 -->
<g id="node6" class="node">
<title>Node6</title>
<g id="a_node6"><a xlink:href="d__a__player_8cpp.html" target="_top" xlink:title=" ">
<polygon fill="white" stroke="black" points="609.5,-386 609.5,-405 723.5,-405 723.5,-386 609.5,-386"/>
<text text-anchor="middle" x="666.5" y="-393" font-family="Helvetica,sans-Serif" font-size="10.00">src/d/a/d_a_player.cpp</text>
</a>
</g>
</g>
<!-- Node5&#45;&gt;Node6 -->
<g id="edge5" class="edge">
<title>Node5&#45;&gt;Node6</title>
<path fill="none" stroke="midnightblue" d="M691.17,-443.66C684.61,-431.13 676.13,-414.91 671.01,-405.13"/>
<polygon fill="midnightblue" stroke="midnightblue" points="688.18,-445.5 695.91,-452.73 694.38,-442.25 688.18,-445.5"/>
</g>
<!-- Node7 -->
<g id="node7" class="node">
<title>Node7</title>
<g id="a_node7"><a xlink:href="d__a__alink_8h.html" target="_top" xlink:title=" ">
<polygon fill="white" stroke="black" points="481.5,-190.5 481.5,-209.5 597.5,-209.5 597.5,-190.5 481.5,-190.5"/>
<text text-anchor="middle" x="539.5" y="-197.5" font-family="Helvetica,sans-Serif" font-size="10.00">include/d/a/d_a_alink.h</text>
</a>
</g>
</g>
<!-- Node5&#45;&gt;Node7 -->
<g id="edge6" class="edge">
<title>Node5&#45;&gt;Node7</title>
<path fill="none" stroke="midnightblue" d="M659.03,-449.32C638.76,-441.41 615.55,-429.13 600.5,-411 573.7,-378.72 547.71,-245.67 541.11,-209.89"/>
<polygon fill="midnightblue" stroke="midnightblue" points="658.1,-452.71 668.7,-452.86 660.51,-446.13 658.1,-452.71"/>
</g>
<!-- Node15 -->
<g id="node15" class="node">
<title>Node15</title>
<g id="a_node15"><a xlink:href="d__bg__s__acch_8h.html" target="_top" xlink:title=" ">
<polygon fill="white" stroke="black" points="301.5,-380.5 301.5,-410.5 405.5,-410.5 405.5,-380.5 301.5,-380.5"/>
<text text-anchor="start" x="309.5" y="-398.5" font-family="Helvetica,sans-Serif" font-size="10.00">include/d/bg/d_bg_s</text>
<text text-anchor="middle" x="353.5" y="-387.5" font-family="Helvetica,sans-Serif" font-size="10.00">_acch.h</text>
</a>
</g>
</g>
<!-- Node5&#45;&gt;Node15 -->
<g id="edge16" class="edge">
<title>Node5&#45;&gt;Node15</title>
<path fill="none" stroke="midnightblue" d="M650,-450.89C643.44,-449.56 636.82,-448.23 630.5,-447 552.29,-431.77 461.38,-415.46 405.64,-405.62"/>
<polygon fill="midnightblue" stroke="midnightblue" points="649.69,-454.4 660.19,-452.98 651.09,-447.54 649.69,-454.4"/>
</g>
<!-- Node25 -->
<g id="node25" class="node">
<title>Node25</title>
<g id="a_node25"><a xlink:href="d__attention_8h.html" target="_top" xlink:title=" ">
<polygon fill="white" stroke="black" points="630.5,-252 630.5,-271 744.5,-271 744.5,-252 630.5,-252"/>
<text text-anchor="middle" x="687.5" y="-259" font-family="Helvetica,sans-Serif" font-size="10.00">include/d/d_attention.h</text>
</a>
</g>
</g>
<!-- Node5&#45;&gt;Node25 -->
<g id="edge29" class="edge">
<title>Node5&#45;&gt;Node25</title>
<path fill="none" stroke="midnightblue" d="M714.34,-444.99C721.26,-435.65 728.91,-423.39 732.5,-411 736.34,-397.77 735.01,-393.55 732.5,-380 724.59,-337.25 701.79,-289.96 692.02,-271.02"/>
<polygon fill="midnightblue" stroke="midnightblue" points="711.51,-442.93 708.09,-452.96 717.02,-447.25 711.51,-442.93"/>
</g>
<!-- Node5&#45;&gt;Node27 -->
<g id="edge33" class="edge">
<title>Node5&#45;&gt;Node27</title>
<path fill="none" stroke="midnightblue" d="M768.89,-451.4C830.45,-441.6 915.81,-426.04 946.5,-411 951.45,-408.57 1008.29,-358.75 1031.61,-338.22"/>
<polygon fill="midnightblue" stroke="midnightblue" points="768.18,-447.97 758.85,-452.98 769.27,-454.88 768.18,-447.97"/>
</g>
<!-- Node8 -->
<g id="node8" class="node">
<title>Node8</title>
<g id="a_node8"><a xlink:href="d__a__alink_8cpp.html" target="_top" xlink:title=" ">
<polygon fill="white" stroke="black" points="529,-67.5 529,-86.5 638,-86.5 638,-67.5 529,-67.5"/>
<text text-anchor="middle" x="583.5" y="-74.5" font-family="Helvetica,sans-Serif" font-size="10.00">src/d/a/d_a_alink.cpp</text>
</a>
</g>
</g>
<!-- Node7&#45;&gt;Node8 -->
<g id="edge7" class="edge">
<title>Node7&#45;&gt;Node8</title>
<path fill="none" stroke="midnightblue" d="M546.15,-180.7C555.79,-154.2 573.26,-106.17 580.36,-86.62"/>
<polygon fill="midnightblue" stroke="midnightblue" points="542.79,-179.7 542.66,-190.3 549.37,-182.1 542.79,-179.7"/>
</g>
<!-- Node7&#45;&gt;Node9 -->
<g id="edge8" class="edge">
<title>Node7&#45;&gt;Node9</title>
<path fill="none" stroke="midnightblue" d="M580.4,-187.73C615.65,-178.02 666.7,-163.96 704.59,-153.52"/>
<polygon fill="midnightblue" stroke="midnightblue" points="579.16,-184.44 570.45,-190.48 581.02,-191.19 579.16,-184.44"/>
</g>
<!-- Node9&#45;&gt;Node8 -->
<g id="edge10" class="edge">
<title>Node9&#45;&gt;Node8</title>
<path fill="none" stroke="midnightblue" d="M705.13,-120.08C673.27,-109.05 633.49,-95.29 608.28,-86.57"/>
<polygon fill="midnightblue" stroke="midnightblue" points="704.14,-123.44 714.74,-123.4 706.43,-116.82 704.14,-123.44"/>
</g>
<!-- Node10 -->
<g id="node10" class="node">
<title>Node10</title>
<g id="a_node10"><a xlink:href="d__com__inf__game_8cpp.html" target="_top" xlink:title=" ">
<polygon fill="white" stroke="black" points="625.5,-0.5 625.5,-30.5 733.5,-30.5 733.5,-0.5 625.5,-0.5"/>
<text text-anchor="start" x="633.5" y="-18.5" font-family="Helvetica,sans-Serif" font-size="10.00">src/d/com/d_com_inf</text>
<text text-anchor="middle" x="679.5" y="-7.5" font-family="Helvetica,sans-Serif" font-size="10.00">_game.cpp</text>
</a>
</g>
</g>
<!-- Node9&#45;&gt;Node10 -->
<g id="edge9" class="edge">
<title>Node9&#45;&gt;Node10</title>
<path fill="none" stroke="midnightblue" d="M726.32,-117.25C716.21,-108.93 705.64,-98.53 698.5,-87 687.62,-69.43 682.89,-45.66 680.89,-30.7"/>
<polygon fill="midnightblue" stroke="midnightblue" points="724.21,-120.05 734.24,-123.46 728.53,-114.54 724.21,-120.05"/>
</g>
<!-- Node11 -->
<g id="node11" class="node">
<title>Node11</title>
<g id="a_node11"><a xlink:href="d__event_8cpp.html" target="_top" xlink:title=" ">
<polygon fill="white" stroke="black" points="969,-67.5 969,-86.5 1090,-86.5 1090,-67.5 969,-67.5"/>
<text text-anchor="middle" x="1029.5" y="-74.5" font-family="Helvetica,sans-Serif" font-size="10.00">src/d/event/d_event.cpp</text>
</a>
</g>
</g>
<!-- Node9&#45;&gt;Node11 -->
<g id="edge11" class="edge">
<title>Node9&#45;&gt;Node11</title>
<path fill="none" stroke="midnightblue" d="M820.54,-123.38C873.21,-111.94 945.69,-96.2 989.98,-86.58"/>
<polygon fill="midnightblue" stroke="midnightblue" points="819.65,-119.99 810.62,-125.53 821.13,-126.83 819.65,-119.99"/>
</g>
<!-- Node12 -->
<g id="node12" class="node">
<title>Node12</title>
<g id="a_node12"><a xlink:href="d__save_8cpp.html" target="_top" xlink:title=" ">
<polygon fill="white" stroke="black" points="821,-67.5 821,-86.5 936,-86.5 936,-67.5 821,-67.5"/>
<text text-anchor="middle" x="878.5" y="-74.5" font-family="Helvetica,sans-Serif" font-size="10.00">src/d/save/d_save.cpp</text>
</a>
</g>
</g>
<!-- Node9&#45;&gt;Node12 -->
<g id="edge12" class="edge">
<title>Node9&#45;&gt;Node12</title>
<path fill="none" stroke="midnightblue" d="M793.87,-118.94C816.15,-108.16 843.18,-95.08 860.6,-86.66"/>
<polygon fill="midnightblue" stroke="midnightblue" points="792.13,-115.89 784.65,-123.4 795.18,-122.2 792.13,-115.89"/>
</g>
<!-- Node13 -->
<g id="node13" class="node">
<title>Node13</title>
<g id="a_node13"><a xlink:href="d__item_8h.html" target="_top" xlink:title=" ">
<polygon fill="white" stroke="black" points="708,-67.5 708,-86.5 803,-86.5 803,-67.5 708,-67.5"/>
<text text-anchor="middle" x="755.5" y="-74.5" font-family="Helvetica,sans-Serif" font-size="10.00">include/d/d_item.h</text>
</a>
</g>
</g>
<!-- Node9&#45;&gt;Node13 -->
<g id="edge13" class="edge">
<title>Node9&#45;&gt;Node13</title>
<path fill="none" stroke="midnightblue" d="M755.5,-113.29C755.5,-103.86 755.5,-93.65 755.5,-86.66"/>
<polygon fill="midnightblue" stroke="midnightblue" points="752,-113.4 755.5,-123.4 759,-113.4 752,-113.4"/>
</g>
<!-- Node13&#45;&gt;Node10 -->
<g id="edge14" class="edge">
<title>Node13&#45;&gt;Node10</title>
<path fill="none" stroke="midnightblue" d="M736.59,-61.2C724.61,-51.81 709.2,-39.75 697.41,-30.52"/>
<polygon fill="midnightblue" stroke="midnightblue" points="734.58,-64.07 744.61,-67.48 738.89,-58.55 734.58,-64.07"/>
</g>
<!-- Node14 -->
<g id="node14" class="node">
<title>Node14</title>
<g id="a_node14"><a xlink:href="d__item_8cpp.html" target="_top" xlink:title=" ">
<polygon fill="white" stroke="black" points="752,-6 752,-25 841,-25 841,-6 752,-6"/>
<text text-anchor="middle" x="796.5" y="-13" font-family="Helvetica,sans-Serif" font-size="10.00">src/d/d_item.cpp</text>
</a>
</g>
</g>
<!-- Node13&#45;&gt;Node14 -->
<g id="edge15" class="edge">
<title>Node13&#45;&gt;Node14</title>
<path fill="none" stroke="midnightblue" d="M767.21,-59.01C774.87,-47.89 784.55,-33.84 790.64,-25.01"/>
<polygon fill="midnightblue" stroke="midnightblue" points="764.17,-57.25 761.37,-67.48 769.93,-61.23 764.17,-57.25"/>
</g>
<!-- Node16 -->
<g id="node16" class="node">
<title>Node16</title>
<g id="a_node16"><a xlink:href="d__bg__s__acch_8cpp.html" target="_top" xlink:title=" ">
<polygon fill="white" stroke="black" points="422,-319 422,-338 553,-338 553,-319 422,-319"/>
<text text-anchor="middle" x="487.5" y="-326" font-family="Helvetica,sans-Serif" font-size="10.00">src/d/bg/d_bg_s_acch.cpp</text>
</a>
</g>
</g>
<!-- Node15&#45;&gt;Node16 -->
<g id="edge17" class="edge">
<title>Node15&#45;&gt;Node16</title>
<path fill="none" stroke="midnightblue" d="M391.71,-375.97C417.45,-363.48 450.19,-347.6 469.96,-338.01"/>
<polygon fill="midnightblue" stroke="midnightblue" points="390.05,-372.88 382.58,-380.4 393.1,-379.18 390.05,-372.88"/>
</g>
<!-- Node17 -->
<g id="node17" class="node">
<title>Node17</title>
<g id="a_node17"><a xlink:href="d__bg__w_8h.html" target="_top" xlink:title=" ">
<polygon fill="white" stroke="black" points="51,-319 51,-338 164,-338 164,-319 51,-319"/>
<text text-anchor="middle" x="107.5" y="-326" font-family="Helvetica,sans-Serif" font-size="10.00">include/d/bg/d_bg_w.h</text>
</a>
</g>
</g>
<!-- Node15&#45;&gt;Node17 -->
<g id="edge18" class="edge">
<title>Node15&#45;&gt;Node17</title>
<path fill="none" stroke="midnightblue" d="M291.63,-378.15C243.46,-365.42 178.52,-348.26 140.02,-338.09"/>
<polygon fill="midnightblue" stroke="midnightblue" points="290.77,-381.54 301.33,-380.72 292.56,-374.78 290.77,-381.54"/>
</g>
<!-- Node21 -->
<g id="node21" class="node">
<title>Node21</title>
<g id="a_node21"><a xlink:href="d__bomb_8h.html" target="_top" xlink:title=" ">
<polygon fill="white" stroke="black" points="303,-319 303,-338 404,-338 404,-319 303,-319"/>
<text text-anchor="middle" x="353.5" y="-326" font-family="Helvetica,sans-Serif" font-size="10.00">include/d/d_bomb.h</text>
</a>
</g>
</g>
<!-- Node15&#45;&gt;Node21 -->
<g id="edge24" class="edge">
<title>Node15&#45;&gt;Node21</title>
<path fill="none" stroke="midnightblue" d="M353.5,-370.25C353.5,-359.02 353.5,-346.38 353.5,-338.19"/>
<polygon fill="midnightblue" stroke="midnightblue" points="350,-370.4 353.5,-380.4 357,-370.4 350,-370.4"/>
</g>
<!-- Node23 -->
<g id="node23" class="node">
<title>Node23</title>
<g id="a_node23"><a xlink:href="d__particle__copoly_8h.html" target="_top" xlink:title=" ">
<polygon fill="white" stroke="black" points="182.5,-313.5 182.5,-343.5 284.5,-343.5 284.5,-313.5 182.5,-313.5"/>
<text text-anchor="start" x="190.5" y="-331.5" font-family="Helvetica,sans-Serif" font-size="10.00">include/d/particle</text>
<text text-anchor="middle" x="233.5" y="-320.5" font-family="Helvetica,sans-Serif" font-size="10.00">/d_particle_copoly.h</text>
</a>
</g>
</g>
<!-- Node15&#45;&gt;Node23 -->
<g id="edge26" class="edge">
<title>Node15&#45;&gt;Node23</title>
<path fill="none" stroke="midnightblue" d="M318.56,-375.57C299.68,-365.35 276.77,-352.94 259.49,-343.58"/>
<polygon fill="midnightblue" stroke="midnightblue" points="317,-378.71 327.46,-380.4 320.34,-372.56 317,-378.71"/>
</g>
<!-- Node18 -->
<g id="node18" class="node">
<title>Node18</title>
<g id="a_node18"><a xlink:href="d__bg__w_8cpp.html" target="_top" xlink:title=" ">
<polygon fill="white" stroke="black" points="129,-252 129,-271 236,-271 236,-252 129,-252"/>
<text text-anchor="middle" x="182.5" y="-259" font-family="Helvetica,sans-Serif" font-size="10.00">src/d/bg/d_bg_w.cpp</text>
</a>
</g>
</g>
<!-- Node17&#45;&gt;Node18 -->
<g id="edge19" class="edge">
<title>Node17&#45;&gt;Node18</title>
<path fill="none" stroke="midnightblue" d="M125.55,-311.86C140.29,-299.08 160.59,-281.49 172.55,-271.13"/>
<polygon fill="midnightblue" stroke="midnightblue" points="122.88,-309.54 117.61,-318.73 127.46,-314.83 122.88,-309.54"/>
</g>
<!-- Node19 -->
<g id="node19" class="node">
<title>Node19</title>
<g id="a_node19"><a xlink:href="d__bg__s_8h.html" target="_top" xlink:title=" ">
<polygon fill="white" stroke="black" points="0,-252 0,-271 111,-271 111,-252 0,-252"/>
<text text-anchor="middle" x="55.5" y="-259" font-family="Helvetica,sans-Serif" font-size="10.00">include/d/bg/d_bg_s.h</text>
</a>
</g>
</g>
<!-- Node17&#45;&gt;Node19 -->
<g id="edge20" class="edge">
<title>Node17&#45;&gt;Node19</title>
<path fill="none" stroke="midnightblue" d="M94.12,-310.77C83.98,-298.1 70.46,-281.2 62.4,-271.13"/>
<polygon fill="midnightblue" stroke="midnightblue" points="91.51,-313.11 100.49,-318.73 96.97,-308.74 91.51,-313.11"/>
</g>
<!-- Node19&#45;&gt;Node7 -->
<g id="edge22" class="edge">
<title>Node19&#45;&gt;Node7</title>
<path fill="none" stroke="midnightblue" d="M99.98,-249.73C106.5,-248.35 113.16,-247.05 119.5,-246 247.9,-224.65 400.16,-211.27 481.46,-205.08"/>
<polygon fill="midnightblue" stroke="midnightblue" points="98.92,-246.38 89.9,-251.94 100.42,-253.21 98.92,-246.38"/>
</g>
<!-- Node19&#45;&gt;Node9 -->
<g id="edge23" class="edge">
<title>Node19&#45;&gt;Node9</title>
<path fill="none" stroke="midnightblue" d="M101.62,-249.72C107.62,-248.42 113.7,-247.14 119.5,-246 333.43,-203.89 589.94,-164.22 700.44,-147.64"/>
<polygon fill="midnightblue" stroke="midnightblue" points="100.64,-246.35 91.64,-251.93 102.16,-253.19 100.64,-246.35"/>
</g>
<!-- Node20 -->
<g id="node20" class="node">
<title>Node20</title>
<g id="a_node20"><a xlink:href="d__bg__s_8cpp.html" target="_top" xlink:title=" ">
<polygon fill="white" stroke="black" points="3.5,-190.5 3.5,-209.5 107.5,-209.5 107.5,-190.5 3.5,-190.5"/>
<text text-anchor="middle" x="55.5" y="-197.5" font-family="Helvetica,sans-Serif" font-size="10.00">src/d/bg/d_bg_s.cpp</text>
</a>
</g>
</g>
<!-- Node19&#45;&gt;Node20 -->
<g id="edge21" class="edge">
<title>Node19&#45;&gt;Node20</title>
<path fill="none" stroke="midnightblue" d="M55.5,-241.82C55.5,-231 55.5,-217.9 55.5,-209.51"/>
<polygon fill="midnightblue" stroke="midnightblue" points="52,-241.98 55.5,-251.98 59,-241.98 52,-241.98"/>
</g>
<!-- Node22 -->
<g id="node22" class="node">
<title>Node22</title>
<g id="a_node22"><a xlink:href="d__bomb_8cpp.html" target="_top" xlink:title=" ">
<polygon fill="white" stroke="black" points="428.5,-252 428.5,-271 522.5,-271 522.5,-252 428.5,-252"/>
<text text-anchor="middle" x="475.5" y="-259" font-family="Helvetica,sans-Serif" font-size="10.00">src/d/d_bomb.cpp</text>
</a>
</g>
</g>
<!-- Node21&#45;&gt;Node22 -->
<g id="edge25" class="edge">
<title>Node21&#45;&gt;Node22</title>
<path fill="none" stroke="midnightblue" d="M378.64,-314.1C402.81,-301.23 438.6,-282.16 459.23,-271.17"/>
<polygon fill="midnightblue" stroke="midnightblue" points="376.88,-311.08 369.7,-318.87 380.17,-317.26 376.88,-311.08"/>
</g>
<!-- Node23&#45;&gt;Node7 -->
<g id="edge28" class="edge">
<title>Node23&#45;&gt;Node7</title>
<path fill="none" stroke="midnightblue" d="M241.65,-304.05C249.43,-285.3 263.02,-259.93 283.5,-246 314.94,-224.62 415.9,-211.89 481.24,-205.68"/>
<polygon fill="midnightblue" stroke="midnightblue" points="238.38,-302.82 238.02,-313.41 244.9,-305.36 238.38,-302.82"/>
</g>
<!-- Node24 -->
<g id="node24" class="node">
<title>Node24</title>
<g id="a_node24"><a xlink:href="d__particle__copoly_8cpp.html" target="_top" xlink:title=" ">
<polygon fill="white" stroke="black" points="292.5,-246.5 292.5,-276.5 410.5,-276.5 410.5,-246.5 292.5,-246.5"/>
<text text-anchor="start" x="300.5" y="-264.5" font-family="Helvetica,sans-Serif" font-size="10.00">src/d/particle/d_particle</text>
<text text-anchor="middle" x="351.5" y="-253.5" font-family="Helvetica,sans-Serif" font-size="10.00">_copoly.cpp</text>
</a>
</g>
</g>
<!-- Node23&#45;&gt;Node24 -->
<g id="edge27" class="edge">
<title>Node23&#45;&gt;Node24</title>
<path fill="none" stroke="midnightblue" d="M268.11,-308.44C286.62,-298.24 309.02,-285.9 325.95,-276.58"/>
<polygon fill="midnightblue" stroke="midnightblue" points="266.17,-305.51 259.1,-313.4 269.55,-311.64 266.17,-305.51"/>
</g>
<!-- Node25&#45;&gt;Node7 -->
<g id="edge31" class="edge">
<title>Node25&#45;&gt;Node7</title>
<path fill="none" stroke="midnightblue" d="M656.73,-248.13C627.98,-236.57 585.82,-219.62 560.67,-209.51"/>
<polygon fill="midnightblue" stroke="midnightblue" points="655.71,-251.49 666.3,-251.98 658.32,-245 655.71,-251.49"/>
</g>
<!-- Node25&#45;&gt;Node9 -->
<g id="edge32" class="edge">
<title>Node25&#45;&gt;Node9</title>
<path fill="none" stroke="midnightblue" d="M704.24,-244.61C713.32,-235.24 724.16,-222.75 731.5,-210 741.95,-191.85 748.79,-168.44 752.4,-153.69"/>
<polygon fill="midnightblue" stroke="midnightblue" points="701.75,-242.14 697.14,-251.68 706.69,-247.1 701.75,-242.14"/>
</g>
<!-- Node26 -->
<g id="node26" class="node">
<title>Node26</title>
<g id="a_node26"><a xlink:href="d__attention_8cpp.html" target="_top" xlink:title=" ">
<polygon fill="white" stroke="black" points="616,-190.5 616,-209.5 723,-209.5 723,-190.5 616,-190.5"/>
<text text-anchor="middle" x="669.5" y="-197.5" font-family="Helvetica,sans-Serif" font-size="10.00">src/d/d_attention.cpp</text>
</a>
</g>
</g>
<!-- Node25&#45;&gt;Node26 -->
<g id="edge30" class="edge">
<title>Node25&#45;&gt;Node26</title>
<path fill="none" stroke="midnightblue" d="M681.95,-242.16C678.66,-231.27 674.64,-217.99 672.07,-209.51"/>
<polygon fill="midnightblue" stroke="midnightblue" points="678.68,-243.42 684.92,-251.98 685.38,-241.39 678.68,-243.42"/>
</g>
<!-- Node27&#45;&gt;Node9 -->
<g id="edge35" class="edge">
<title>Node27&#45;&gt;Node9</title>
<path fill="none" stroke="midnightblue" d="M1021.37,-312.95C985.67,-287.31 908.69,-232.75 841.5,-190 821.34,-177.17 797.92,-163.5 780.62,-153.62"/>
<polygon fill="midnightblue" stroke="midnightblue" points="1019.37,-315.82 1029.53,-318.82 1023.46,-310.14 1019.37,-315.82"/>
</g>
<!-- Node27&#45;&gt;Node11 -->
<g id="edge34" class="edge">
<title>Node27&#45;&gt;Node11</title>
<path fill="none" stroke="midnightblue" d="M1040.6,-308.84C1038.19,-258.64 1031.62,-122.1 1029.91,-86.55"/>
<polygon fill="midnightblue" stroke="midnightblue" points="1037.11,-309.09 1041.09,-318.91 1044.1,-308.76 1037.11,-309.09"/>
</g>
<!-- Node29 -->
<g id="node29" class="node">
<title>Node29</title>
<g id="a_node29"><a xlink:href="d__event__data_8cpp.html" target="_top" xlink:title=" ">
<polygon fill="white" stroke="black" points="994,-380.5 994,-410.5 1097,-410.5 1097,-380.5 994,-380.5"/>
<text text-anchor="start" x="1002" y="-398.5" font-family="Helvetica,sans-Serif" font-size="10.00">src/d/event/d_event</text>
<text text-anchor="middle" x="1045.5" y="-387.5" font-family="Helvetica,sans-Serif" font-size="10.00">_data.cpp</text>
</a>
</g>
</g>
<!-- Node28&#45;&gt;Node29 -->
<g id="edge39" class="edge">
<title>Node28&#45;&gt;Node29</title>
<path fill="none" stroke="midnightblue" d="M923.55,-443.68C950.5,-433.26 984.04,-420.28 1009.12,-410.58"/>
<polygon fill="midnightblue" stroke="midnightblue" points="922.02,-440.52 913.95,-447.4 924.54,-447.05 922.02,-440.52"/>
</g>
<!-- Node30 -->
<g id="node30" class="node">
<title>Node30</title>
<g id="a_node30"><a xlink:href="d__event__manager_8h.html" target="_top" xlink:title=" ">
<polygon fill="white" stroke="black" points="817.5,-380.5 817.5,-410.5 937.5,-410.5 937.5,-380.5 817.5,-380.5"/>
<text text-anchor="start" x="825.5" y="-398.5" font-family="Helvetica,sans-Serif" font-size="10.00">include/d/event/d_event</text>
<text text-anchor="middle" x="877.5" y="-387.5" font-family="Helvetica,sans-Serif" font-size="10.00">_manager.h</text>
</a>
</g>
</g>
<!-- Node28&#45;&gt;Node30 -->
<g id="edge40" class="edge">
<title>Node28&#45;&gt;Node30</title>
<path fill="none" stroke="midnightblue" d="M877.5,-437.11C877.5,-428.15 877.5,-418.32 877.5,-410.58"/>
<polygon fill="midnightblue" stroke="midnightblue" points="874,-437.4 877.5,-447.4 881,-437.4 874,-437.4"/>
</g>
<!-- Node30&#45;&gt;Node9 -->
<g id="edge42" class="edge">
<title>Node30&#45;&gt;Node9</title>
<path fill="none" stroke="midnightblue" d="M861.79,-371.94C856.4,-363.46 850.67,-353.56 846.5,-344 818.08,-278.87 838.57,-251.8 803.5,-190 795.62,-176.11 783.1,-163.12 772.83,-153.79"/>
<polygon fill="midnightblue" stroke="midnightblue" points="859.01,-374.07 867.43,-380.5 864.85,-370.22 859.01,-374.07"/>
</g>
<!-- Node30&#45;&gt;Node27 -->
<g id="edge43" class="edge">
<title>Node30&#45;&gt;Node27</title>
<path fill="none" stroke="midnightblue" d="M922.61,-376.62C954.35,-364.04 995.41,-347.77 1020.04,-338.01"/>
<polygon fill="midnightblue" stroke="midnightblue" points="921.09,-373.46 913.09,-380.4 923.67,-379.97 921.09,-373.46"/>
</g>
<!-- Node31 -->
<g id="node31" class="node">
<title>Node31</title>
<g id="a_node31"><a xlink:href="d__event__manager_8cpp.html" target="_top" xlink:title=" ">
<polygon fill="white" stroke="black" points="856,-313.5 856,-343.5 959,-343.5 959,-313.5 856,-313.5"/>
<text text-anchor="start" x="864" y="-331.5" font-family="Helvetica,sans-Serif" font-size="10.00">src/d/event/d_event</text>
<text text-anchor="middle" x="907.5" y="-320.5" font-family="Helvetica,sans-Serif" font-size="10.00">_manager.cpp</text>
</a>
</g>
</g>
<!-- Node30&#45;&gt;Node31 -->
<g id="edge41" class="edge">
<title>Node30&#45;&gt;Node31</title>
<path fill="none" stroke="midnightblue" d="M888.22,-371.28C892.49,-362.02 897.27,-351.66 901,-343.58"/>
<polygon fill="midnightblue" stroke="midnightblue" points="885.02,-369.85 884.01,-380.4 891.38,-372.78 885.02,-369.85"/>
</g>
</g>
</svg>
