<?xml version="1.0" encoding="UTF-8" standalone="no"?>
<!DOCTYPE svg PUBLIC "-//W3C//DTD SVG 1.1//EN"
 "http://www.w3.org/Graphics/SVG/1.1/DTD/svg11.dtd">
<!-- Generated by graphviz version 2.44.0 ()
 -->
<!-- Title: include/d/save/d_save.h Pages: 1 -->
<svg width="372pt" height="218pt"
 viewBox="0.00 0.00 372.00 218.00" xmlns="http://www.w3.org/2000/svg" xmlns:xlink="http://www.w3.org/1999/xlink">
<g id="graph0" class="graph" transform="scale(1 1) rotate(0) translate(4 214)">
<title>include/d/save/d_save.h</title>
<polygon fill="white" stroke="transparent" points="-4,4 -4,-214 368,-214 368,4 -4,4"/>
<!-- Node1 -->
<g id="node1" class="node">
<title>Node1</title>
<g id="a_node1"><a xlink:title=" ">
<polygon fill="#bfbfbf" stroke="black" points="127,-190.5 127,-209.5 249,-209.5 249,-190.5 127,-190.5"/>
<text text-anchor="middle" x="188" y="-197.5" font-family="Helvetica,sans-Serif" font-size="10.00">include/d/save/d_save.h</text>
</a>
</g>
</g>
<!-- Node2 -->
<g id="node2" class="node">
<title>Node2</title>
<g id="a_node2"><a xlink:href="c__xyz_8h.html" target="_top" xlink:title=" ">
<polygon fill="white" stroke="black" points="44,-123.5 44,-153.5 160,-153.5 160,-123.5 44,-123.5"/>
<text text-anchor="start" x="52" y="-141.5" font-family="Helvetica,sans-Serif" font-size="10.00">SSystem/SComponent</text>
<text text-anchor="middle" x="102" y="-130.5" font-family="Helvetica,sans-Serif" font-size="10.00">/c_xyz.h</text>
</a>
</g>
</g>
<!-- Node1&#45;&gt;Node2 -->
<g id="edge1" class="edge">
<title>Node1&#45;&gt;Node2</title>
<path fill="none" stroke="midnightblue" d="M175.68,-190.48C164.03,-182.42 146.12,-170.02 130.87,-159.47"/>
<polygon fill="midnightblue" stroke="midnightblue" points="132.48,-156.33 122.27,-153.52 128.5,-162.09 132.48,-156.33"/>
</g>
<!-- Node4 -->
<g id="node4" class="node">
<title>Node4</title>
<g id="a_node4"><a xlink:href="types_8h.html" target="_top" xlink:title=" ">
<polygon fill="white" stroke="black" points="147.5,-0.5 147.5,-19.5 228.5,-19.5 228.5,-0.5 147.5,-0.5"/>
<text text-anchor="middle" x="188" y="-7.5" font-family="Helvetica,sans-Serif" font-size="10.00">dolphin/types.h</text>
</a>
</g>
</g>
<!-- Node1&#45;&gt;Node4 -->
<g id="edge6" class="edge">
<title>Node1&#45;&gt;Node4</title>
<path fill="none" stroke="midnightblue" d="M188,-190.43C188,-161.93 188,-69.82 188,-29.83"/>
<polygon fill="midnightblue" stroke="midnightblue" points="191.5,-29.62 188,-19.62 184.5,-29.62 191.5,-29.62"/>
</g>
<!-- Node6 -->
<g id="node6" class="node">
<title>Node6</title>
<g id="a_node6"><a xlink:href="msl__c_2string_8h.html" target="_top" xlink:title=" ">
<polygon fill="white" stroke="black" points="216.5,-129 216.5,-148 293.5,-148 293.5,-129 216.5,-129"/>
<text text-anchor="middle" x="255" y="-136" font-family="Helvetica,sans-Serif" font-size="10.00">msl_c/string.h</text>
</a>
</g>
</g>
<!-- Node1&#45;&gt;Node6 -->
<g id="edge7" class="edge">
<title>Node1&#45;&gt;Node6</title>
<path fill="none" stroke="midnightblue" d="M197.6,-190.48C208.05,-181.2 224.97,-166.17 237.74,-154.83"/>
<polygon fill="midnightblue" stroke="midnightblue" points="240.27,-157.27 245.42,-148.01 235.62,-152.03 240.27,-157.27"/>
</g>
<!-- Node3 -->
<g id="node3" class="node">
<title>Node3</title>
<g id="a_node3"><a xlink:href="vec_8h.html" target="_top" xlink:title=" ">
<polygon fill="white" stroke="black" points="0,-62 0,-81 92,-81 92,-62 0,-62"/>
<text text-anchor="middle" x="46" y="-69" font-family="Helvetica,sans-Serif" font-size="10.00">dolphin/mtx/vec.h</text>
</a>
</g>
</g>
<!-- Node2&#45;&gt;Node3 -->
<g id="edge2" class="edge">
<title>Node2&#45;&gt;Node3</title>
<path fill="none" stroke="midnightblue" d="M89.85,-123.4C81.12,-113.26 69.32,-99.57 60.16,-88.94"/>
<polygon fill="midnightblue" stroke="midnightblue" points="62.67,-86.49 53.49,-81.19 57.37,-91.06 62.67,-86.49"/>
</g>
<!-- Node5 -->
<g id="node5" class="node">
<title>Node5</title>
<g id="a_node5"><a xlink:href="global_8h.html" target="_top" xlink:title=" ">
<polygon fill="white" stroke="black" points="110,-62 110,-81 160,-81 160,-62 110,-62"/>
<text text-anchor="middle" x="135" y="-69" font-family="Helvetica,sans-Serif" font-size="10.00">global.h</text>
</a>
</g>
</g>
<!-- Node2&#45;&gt;Node5 -->
<g id="edge4" class="edge">
<title>Node2&#45;&gt;Node5</title>
<path fill="none" stroke="midnightblue" d="M109.16,-123.4C114.1,-113.66 120.71,-100.65 126.01,-90.21"/>
<polygon fill="midnightblue" stroke="midnightblue" points="129.18,-91.7 130.59,-81.19 122.94,-88.53 129.18,-91.7"/>
</g>
<!-- Node3&#45;&gt;Node4 -->
<g id="edge3" class="edge">
<title>Node3&#45;&gt;Node4</title>
<path fill="none" stroke="midnightblue" d="M66.35,-61.98C90.39,-51.9 130.6,-35.05 158.16,-23.5"/>
<polygon fill="midnightblue" stroke="midnightblue" points="159.82,-26.6 167.69,-19.51 157.12,-20.15 159.82,-26.6"/>
</g>
<!-- Node5&#45;&gt;Node4 -->
<g id="edge5" class="edge">
<title>Node5&#45;&gt;Node4</title>
<path fill="none" stroke="midnightblue" d="M142.59,-61.98C150.7,-52.87 163.73,-38.24 173.76,-26.98"/>
<polygon fill="midnightblue" stroke="midnightblue" points="176.38,-29.3 180.42,-19.51 171.16,-24.65 176.38,-29.3"/>
</g>
<!-- Node6&#45;&gt;Node4 -->
<g id="edge10" class="edge">
<title>Node6&#45;&gt;Node4</title>
<path fill="none" stroke="midnightblue" d="M250.39,-128.81C239.49,-108.22 211.93,-56.19 197.36,-28.68"/>
<polygon fill="midnightblue" stroke="midnightblue" points="200.41,-26.95 192.64,-19.76 194.22,-30.23 200.41,-26.95"/>
</g>
<!-- Node7 -->
<g id="node7" class="node">
<title>Node7</title>
<g id="a_node7"><a xlink:href="____va__arg_8h.html" target="_top" xlink:title=" ">
<polygon fill="white" stroke="black" points="254,-56.5 254,-86.5 364,-86.5 364,-56.5 254,-56.5"/>
<text text-anchor="start" x="262" y="-74.5" font-family="Helvetica,sans-Serif" font-size="10.00">Runtime.PPCEABI.H/</text>
<text text-anchor="middle" x="309" y="-63.5" font-family="Helvetica,sans-Serif" font-size="10.00">__va_arg.h</text>
</a>
</g>
</g>
<!-- Node6&#45;&gt;Node7 -->
<g id="edge8" class="edge">
<title>Node6&#45;&gt;Node7</title>
<path fill="none" stroke="midnightblue" d="M262.28,-128.73C269.58,-119.95 281.1,-106.08 290.88,-94.31"/>
<polygon fill="midnightblue" stroke="midnightblue" points="293.6,-96.52 297.3,-86.59 288.21,-92.04 293.6,-96.52"/>
</g>
<!-- Node7&#45;&gt;Node4 -->
<g id="edge9" class="edge">
<title>Node7&#45;&gt;Node4</title>
<path fill="none" stroke="midnightblue" d="M280.32,-56.4C260.48,-46.64 234.24,-33.74 214.81,-24.18"/>
<polygon fill="midnightblue" stroke="midnightblue" points="216.12,-20.93 205.61,-19.66 213.04,-27.21 216.12,-20.93"/>
</g>
</g>
</svg>
