<?xml version="1.0" encoding="UTF-8" standalone="no"?>
<!DOCTYPE svg PUBLIC "-//W3C//DTD SVG 1.1//EN"
 "http://www.w3.org/Graphics/SVG/1.1/DTD/svg11.dtd">
<!-- Generated by graphviz version 2.44.0 ()
 -->
<!-- Title: include/d/save/d_save.h Pages: 1 -->
<!--zoomable 609 -->
<svg id="main" version="1.1" xmlns="http://www.w3.org/2000/svg" xmlns:xlink="http://www.w3.org/1999/xlink" xml:space="preserve" onload="init(evt)">
<style type="text/css"><![CDATA[
.edge:hover path { stroke: red; }
.edge:hover polygon { stroke: red; fill: red; }
]]></style>
<script type="text/javascript"><![CDATA[
var edges = document.getElementsByTagName('g');
if (edges && edges.length) {
  for (var i=0;i<edges.length;i++) {
    if (edges[i].id.substr(0,4)=='edge') {
      edges[i].setAttribute('class','edge');
    }
  }
}
]]></script>
        <defs>
                <circle id="rim" cx="0" cy="0" r="7"/>
                <circle id="rim2" cx="0" cy="0" r="3.5"/>
                <g id="zoomPlus">
                        <use xlink:href="#rim" fill="#404040">
                                <set attributeName="fill" to="#808080" begin="zoomplus.mouseover" end="zoomplus.mouseout"/>
                        </use>
                        <path d="M-4,0h8M0,-4v8" fill="none" stroke="white" stroke-width="1.5" pointer-events="none"/>
                </g>
                <g id="zoomMin">
                        <use xlink:href="#rim" fill="#404040">
                                <set attributeName="fill" to="#808080" begin="zoomminus.mouseover" end="zoomminus.mouseout"/>
                        </use>
                        <path d="M-4,0h8" fill="none" stroke="white" stroke-width="1.5" pointer-events="none"/>
                </g>
                <g id="dirArrow">
                        <path fill="none" stroke="white" stroke-width="1.5" d="M0,-3.0v7 M-2.5,-0.5L0,-3.0L2.5,-0.5"/>
                </g>
               <g id="resetDef">
                       <use xlink:href="#rim2" fill="#404040">
                               <set attributeName="fill" to="#808080" begin="reset.mouseover" end="reset.mouseout"/>
                       </use>
               </g>
        </defs>

<script type="text/javascript">
var viewWidth = 1352;
var viewHeight = 609;
var sectionId = 'dynsection-1';
</script>
<script xlink:href="svgpan.js"/>
<svg id="graph" class="graph">
<g id="viewport">
<title>include/d/save/d_save.h</title>
<polygon fill="white" stroke="transparent" points="-4,4 -4,-605 1348,-605 1348,4 -4,4"/>
<!-- Node1 -->
<g id="node1" class="node">
<title>Node1</title>
<g id="a_node1"><a xlink:title=" ">
<polygon fill="#bfbfbf" stroke="black" points="710,-581.5 710,-600.5 832,-600.5 832,-581.5 710,-581.5"/>
<text text-anchor="middle" x="771" y="-588.5" font-family="Helvetica,sans-Serif" font-size="10.00">include/d/save/d_save.h</text>
</a>
</g>
</g>
<!-- Node2 -->
<g id="node2" class="node">
<title>Node2</title>
<g id="a_node2"><a xlink:href="d__meter2__info_8cpp.html" target="_top" xlink:title=" ">
<polygon fill="white" stroke="black" points="206,-67.5 206,-97.5 316,-97.5 316,-67.5 206,-67.5"/>
<text text-anchor="start" x="214" y="-85.5" font-family="Helvetica,sans-Serif" font-size="10.00">src/d/meter/d_meter2</text>
<text text-anchor="middle" x="261" y="-74.5" font-family="Helvetica,sans-Serif" font-size="10.00">_info.cpp</text>
</a>
</g>
</g>
<!-- Node1&#45;&gt;Node2 -->
<g id="edge1" class="edge">
<title>Node1&#45;&gt;Node2</title>
<path fill="none" stroke="midnightblue" d="M699.64,-586.75C508.61,-577.12 0,-544.86 0,-474.5 0,-474.5 0,-474.5 0,-210 0,-119.24 129.39,-93.57 205.97,-86.33"/>
<polygon fill="midnightblue" stroke="midnightblue" points="699.69,-590.26 709.86,-587.26 700.04,-583.27 699.69,-590.26"/>
</g>
<!-- Node3 -->
<g id="node3" class="node">
<title>Node3</title>
<g id="a_node3"><a xlink:href="d__save_8cpp.html" target="_top" xlink:title=" ">
<polygon fill="white" stroke="black" points="1188.5,-73 1188.5,-92 1303.5,-92 1303.5,-73 1188.5,-73"/>
<text text-anchor="middle" x="1246" y="-80" font-family="Helvetica,sans-Serif" font-size="10.00">src/d/save/d_save.cpp</text>
</a>
</g>
</g>
<!-- Node1&#45;&gt;Node3 -->
<g id="edge2" class="edge">
<title>Node1&#45;&gt;Node3</title>
<path fill="none" stroke="midnightblue" d="M842.39,-587.14C976.19,-581.29 1254.72,-566.68 1293,-545 1326.65,-525.94 1344,-513.17 1344,-474.5 1344,-474.5 1344,-474.5 1344,-210 1344,-155.55 1286.55,-110.32 1259.63,-92.12"/>
<polygon fill="midnightblue" stroke="midnightblue" points="842.07,-583.65 832.23,-587.58 842.37,-590.64 842.07,-583.65"/>
</g>
<!-- Node4 -->
<g id="node4" class="node">
<title>Node4</title>
<g id="a_node4"><a xlink:href="d__a__player_8h.html" target="_top" xlink:title=" ">
<polygon fill="white" stroke="black" points="371.5,-464 371.5,-483 492.5,-483 492.5,-464 371.5,-464"/>
<text text-anchor="middle" x="432" y="-471" font-family="Helvetica,sans-Serif" font-size="10.00">include/d/a/d_a_player.h</text>
</a>
</g>
</g>
<!-- Node1&#45;&gt;Node4 -->
<g id="edge3" class="edge">
<title>Node1&#45;&gt;Node4</title>
<path fill="none" stroke="midnightblue" d="M735.91,-578.05C667.38,-554.7 517.23,-503.54 457.37,-483.14"/>
<polygon fill="midnightblue" stroke="midnightblue" points="735.2,-581.5 745.8,-581.41 737.46,-574.87 735.2,-581.5"/>
</g>
<!-- Node8 -->
<g id="node8" class="node">
<title>Node8</title>
<g id="a_node8"><a xlink:href="d__com__inf__game_8h.html" target="_top" xlink:title=" ">
<polygon fill="white" stroke="black" points="764,-134.5 764,-164.5 874,-164.5 874,-134.5 764,-134.5"/>
<text text-anchor="start" x="772" y="-152.5" font-family="Helvetica,sans-Serif" font-size="10.00">include/d/com/d_com</text>
<text text-anchor="middle" x="819" y="-141.5" font-family="Helvetica,sans-Serif" font-size="10.00">_inf_game.h</text>
</a>
</g>
</g>
<!-- Node1&#45;&gt;Node8 -->
<g id="edge37" class="edge">
<title>Node1&#45;&gt;Node8</title>
<path fill="none" stroke="midnightblue" d="M842.42,-582.47C950.21,-569.1 1142,-536.58 1142,-474.5 1142,-474.5 1142,-474.5 1142,-271.5 1142,-214.99 966.41,-176.03 874.16,-159.46"/>
<polygon fill="midnightblue" stroke="midnightblue" points="841.77,-579.03 832.26,-583.71 842.61,-585.97 841.77,-579.03"/>
</g>
<!-- Node24 -->
<g id="node24" class="node">
<title>Node24</title>
<g id="a_node24"><a xlink:href="d__attention_8h.html" target="_top" xlink:title=" ">
<polygon fill="white" stroke="black" points="96,-397 96,-416 210,-416 210,-397 96,-397"/>
<text text-anchor="middle" x="153" y="-404" font-family="Helvetica,sans-Serif" font-size="10.00">include/d/d_attention.h</text>
</a>
</g>
</g>
<!-- Node1&#45;&gt;Node24 -->
<g id="edge38" class="edge">
<title>Node1&#45;&gt;Node24</title>
<path fill="none" stroke="midnightblue" d="M723.42,-579.25C684.31,-570.33 627.48,-557.18 578,-545 481.7,-521.29 456.36,-519.51 362,-489 291.04,-466.05 209.29,-431.83 172.6,-416.04"/>
<polygon fill="midnightblue" stroke="midnightblue" points="722.69,-582.67 733.21,-581.48 724.24,-575.85 722.69,-582.67"/>
</g>
<!-- Node26 -->
<g id="node26" class="node">
<title>Node26</title>
<g id="a_node26"><a xlink:href="d__event_8h.html" target="_top" xlink:title=" ">
<polygon fill="white" stroke="black" points="948,-330 948,-349 1076,-349 1076,-330 948,-330"/>
<text text-anchor="middle" x="1012" y="-337" font-family="Helvetica,sans-Serif" font-size="10.00">include/d/event/d_event.h</text>
</a>
</g>
</g>
<!-- Node1&#45;&gt;Node26 -->
<g id="edge55" class="edge">
<title>Node1&#45;&gt;Node26</title>
<path fill="none" stroke="midnightblue" d="M842.23,-587.95C912.38,-581.67 1016.19,-560.03 1067,-489 1074.79,-478.11 1076.24,-418.24 1064,-391 1055.85,-372.86 1037.95,-357.88 1025.44,-349.06"/>
<polygon fill="midnightblue" stroke="midnightblue" points="841.82,-584.47 832.13,-588.77 842.38,-591.45 841.82,-584.47"/>
</g>
<!-- Node27 -->
<g id="node27" class="node">
<title>Node27</title>
<g id="a_node27"><a xlink:href="d__vibration_8h.html" target="_top" xlink:title=" ">
<polygon fill="white" stroke="black" points="1170.5,-525.5 1170.5,-544.5 1283.5,-544.5 1283.5,-525.5 1170.5,-525.5"/>
<text text-anchor="middle" x="1227" y="-532.5" font-family="Helvetica,sans-Serif" font-size="10.00">include/d/d_vibration.h</text>
</a>
</g>
</g>
<!-- Node1&#45;&gt;Node27 -->
<g id="edge39" class="edge">
<title>Node1&#45;&gt;Node27</title>
<path fill="none" stroke="midnightblue" d="M842.14,-581.9C919.42,-573.04 1046.52,-558.34 1156,-545 1160.69,-544.43 1165.55,-543.83 1170.42,-543.22"/>
<polygon fill="midnightblue" stroke="midnightblue" points="841.57,-578.44 832.03,-583.05 842.37,-585.39 841.57,-578.44"/>
</g>
<!-- Node29 -->
<g id="node29" class="node">
<title>Node29</title>
<g id="a_node29"><a xlink:href="d__stage_8h.html" target="_top" xlink:title=" ">
<polygon fill="white" stroke="black" points="720.5,-525.5 720.5,-544.5 821.5,-544.5 821.5,-525.5 720.5,-525.5"/>
<text text-anchor="middle" x="771" y="-532.5" font-family="Helvetica,sans-Serif" font-size="10.00">include/d/d_stage.h</text>
</a>
</g>
</g>
<!-- Node1&#45;&gt;Node29 -->
<g id="edge42" class="edge">
<title>Node1&#45;&gt;Node29</title>
<path fill="none" stroke="midnightblue" d="M771,-570.8C771,-561.91 771,-551.78 771,-544.75"/>
<polygon fill="midnightblue" stroke="midnightblue" points="767.5,-571.08 771,-581.08 774.5,-571.08 767.5,-571.08"/>
</g>
<!-- Node33 -->
<g id="node33" class="node">
<title>Node33</title>
<g id="a_node33"><a xlink:href="d__event__data_8h.html" target="_top" xlink:title=" ">
<polygon fill="white" stroke="black" points="511,-458.5 511,-488.5 631,-488.5 631,-458.5 511,-458.5"/>
<text text-anchor="start" x="519" y="-476.5" font-family="Helvetica,sans-Serif" font-size="10.00">include/d/event/d_event</text>
<text text-anchor="middle" x="571" y="-465.5" font-family="Helvetica,sans-Serif" font-size="10.00">_data.h</text>
</a>
</g>
</g>
<!-- Node1&#45;&gt;Node33 -->
<g id="edge56" class="edge">
<title>Node1&#45;&gt;Node33</title>
<path fill="none" stroke="midnightblue" d="M747.05,-576.17C708.69,-554.02 633.91,-510.83 595.32,-488.55"/>
<polygon fill="midnightblue" stroke="midnightblue" points="745.56,-579.35 755.97,-581.32 749.06,-573.29 745.56,-579.35"/>
</g>
<!-- Node5 -->
<g id="node5" class="node">
<title>Node5</title>
<g id="a_node5"><a xlink:href="d__a__player_8cpp.html" target="_top" xlink:title=" ">
<polygon fill="white" stroke="black" points="228,-397 228,-416 342,-416 342,-397 228,-397"/>
<text text-anchor="middle" x="285" y="-404" font-family="Helvetica,sans-Serif" font-size="10.00">src/d/a/d_a_player.cpp</text>
</a>
</g>
</g>
<!-- Node4&#45;&gt;Node5 -->
<g id="edge4" class="edge">
<title>Node4&#45;&gt;Node5</title>
<path fill="none" stroke="midnightblue" d="M403.24,-459.78C374.12,-446.91 329.9,-427.35 304.6,-416.17"/>
<polygon fill="midnightblue" stroke="midnightblue" points="401.92,-463.03 412.48,-463.87 404.75,-456.62 401.92,-463.03"/>
</g>
<!-- Node6 -->
<g id="node6" class="node">
<title>Node6</title>
<g id="a_node6"><a xlink:href="d__a__alink_8h.html" target="_top" xlink:title=" ">
<polygon fill="white" stroke="black" points="368,-201.5 368,-220.5 484,-220.5 484,-201.5 368,-201.5"/>
<text text-anchor="middle" x="426" y="-208.5" font-family="Helvetica,sans-Serif" font-size="10.00">include/d/a/d_a_alink.h</text>
</a>
</g>
</g>
<!-- Node4&#45;&gt;Node6 -->
<g id="edge5" class="edge">
<title>Node4&#45;&gt;Node6</title>
<path fill="none" stroke="midnightblue" d="M419,-455.77C404.21,-437.7 378.52,-409.06 351,-391 314.29,-366.91 283.75,-391.27 259,-355 239.38,-326.26 283.69,-260.04 287,-257 309.11,-236.64 340.54,-225.49 367.92,-219.38"/>
<polygon fill="midnightblue" stroke="midnightblue" points="416.37,-458.08 425.35,-463.71 421.84,-453.71 416.37,-458.08"/>
</g>
<!-- Node14 -->
<g id="node14" class="node">
<title>Node14</title>
<g id="a_node14"><a xlink:href="d__bg__s__acch_8h.html" target="_top" xlink:title=" ">
<polygon fill="white" stroke="black" points="398,-391.5 398,-421.5 502,-421.5 502,-391.5 398,-391.5"/>
<text text-anchor="start" x="406" y="-409.5" font-family="Helvetica,sans-Serif" font-size="10.00">include/d/bg/d_bg_s</text>
<text text-anchor="middle" x="450" y="-398.5" font-family="Helvetica,sans-Serif" font-size="10.00">_acch.h</text>
</a>
</g>
</g>
<!-- Node4&#45;&gt;Node14 -->
<g id="edge17" class="edge">
<title>Node4&#45;&gt;Node14</title>
<path fill="none" stroke="midnightblue" d="M437.11,-454.06C439.96,-443.75 443.46,-431.1 446.1,-421.59"/>
<polygon fill="midnightblue" stroke="midnightblue" points="433.72,-453.16 434.43,-463.73 440.47,-455.03 433.72,-453.16"/>
</g>
<!-- Node4&#45;&gt;Node24 -->
<g id="edge30" class="edge">
<title>Node4&#45;&gt;Node24</title>
<path fill="none" stroke="midnightblue" d="M385.4,-461.64C330.43,-448.84 240.17,-427.81 189.84,-416.08"/>
<polygon fill="midnightblue" stroke="midnightblue" points="384.71,-465.08 395.24,-463.94 386.29,-458.26 384.71,-465.08"/>
</g>
<!-- Node4&#45;&gt;Node26 -->
<g id="edge34" class="edge">
<title>Node4&#45;&gt;Node26</title>
<path fill="none" stroke="midnightblue" d="M479.66,-461.96C487.11,-460.5 494.75,-459.12 502,-458 655.22,-434.24 705.82,-481.5 849,-422 869.13,-413.64 868.24,-402.1 887,-391 918.43,-372.41 957.97,-357.73 984.07,-349.09"/>
<polygon fill="midnightblue" stroke="midnightblue" points="478.77,-458.57 469.65,-463.97 480.15,-465.43 478.77,-458.57"/>
</g>
<!-- Node7 -->
<g id="node7" class="node">
<title>Node7</title>
<g id="a_node7"><a xlink:href="d__a__alink_8cpp.html" target="_top" xlink:title=" ">
<polygon fill="white" stroke="black" points="483.5,-73 483.5,-92 592.5,-92 592.5,-73 483.5,-73"/>
<text text-anchor="middle" x="538" y="-80" font-family="Helvetica,sans-Serif" font-size="10.00">src/d/a/d_a_alink.cpp</text>
</a>
</g>
</g>
<!-- Node6&#45;&gt;Node7 -->
<g id="edge6" class="edge">
<title>Node6&#45;&gt;Node7</title>
<path fill="none" stroke="midnightblue" d="M440.63,-193.47C464.68,-166.32 511.73,-113.17 530.25,-92.26"/>
<polygon fill="midnightblue" stroke="midnightblue" points="437.71,-191.5 433.7,-201.31 442.95,-196.14 437.71,-191.5"/>
</g>
<!-- Node6&#45;&gt;Node8 -->
<g id="edge7" class="edge">
<title>Node6&#45;&gt;Node8</title>
<path fill="none" stroke="midnightblue" d="M492.28,-199.96C568.57,-188.42 692.46,-169.66 763.75,-158.87"/>
<polygon fill="midnightblue" stroke="midnightblue" points="491.67,-196.52 482.31,-201.48 492.72,-203.44 491.67,-196.52"/>
</g>
<!-- Node8&#45;&gt;Node2 -->
<g id="edge11" class="edge">
<title>Node8&#45;&gt;Node2</title>
<path fill="none" stroke="midnightblue" d="M753.92,-140.92C643.08,-128.01 419.61,-101.98 316.03,-89.91"/>
<polygon fill="midnightblue" stroke="midnightblue" points="753.63,-144.41 763.97,-142.09 754.44,-137.46 753.63,-144.41"/>
</g>
<!-- Node8&#45;&gt;Node3 -->
<g id="edge13" class="edge">
<title>Node8&#45;&gt;Node3</title>
<path fill="none" stroke="midnightblue" d="M884.53,-138.53C968.13,-125.8 1111.3,-104 1190.03,-92.02"/>
<polygon fill="midnightblue" stroke="midnightblue" points="883.74,-135.1 874.39,-140.07 884.8,-142.02 883.74,-135.1"/>
</g>
<!-- Node8&#45;&gt;Node7 -->
<g id="edge9" class="edge">
<title>Node8&#45;&gt;Node7</title>
<path fill="none" stroke="midnightblue" d="M754.07,-133.48C698.56,-120.64 620.65,-102.62 575.13,-92.09"/>
<polygon fill="midnightblue" stroke="midnightblue" points="753.29,-136.89 763.82,-135.74 754.86,-130.07 753.29,-136.89"/>
</g>
<!-- Node9 -->
<g id="node9" class="node">
<title>Node9</title>
<g id="a_node9"><a xlink:href="d__com__inf__game_8cpp.html" target="_top" xlink:title=" ">
<polygon fill="white" stroke="black" points="756,-0.5 756,-30.5 864,-30.5 864,-0.5 756,-0.5"/>
<text text-anchor="start" x="764" y="-18.5" font-family="Helvetica,sans-Serif" font-size="10.00">src/d/com/d_com_inf</text>
<text text-anchor="middle" x="810" y="-7.5" font-family="Helvetica,sans-Serif" font-size="10.00">_game.cpp</text>
</a>
</g>
</g>
<!-- Node8&#45;&gt;Node9 -->
<g id="edge8" class="edge">
<title>Node8&#45;&gt;Node9</title>
<path fill="none" stroke="midnightblue" d="M817.36,-124.39C815.48,-96.9 812.48,-52.89 810.96,-30.52"/>
<polygon fill="midnightblue" stroke="midnightblue" points="813.86,-124.63 818.04,-134.37 820.85,-124.16 813.86,-124.63"/>
</g>
<!-- Node10 -->
<g id="node10" class="node">
<title>Node10</title>
<g id="a_node10"><a xlink:href="d__event_8cpp.html" target="_top" xlink:title=" ">
<polygon fill="white" stroke="black" points="951.5,-73 951.5,-92 1072.5,-92 1072.5,-73 951.5,-73"/>
<text text-anchor="middle" x="1012" y="-80" font-family="Helvetica,sans-Serif" font-size="10.00">src/d/event/d_event.cpp</text>
</a>
</g>
</g>
<!-- Node8&#45;&gt;Node10 -->
<g id="edge10" class="edge">
<title>Node8&#45;&gt;Node10</title>
<path fill="none" stroke="midnightblue" d="M870.64,-131.11C908.19,-118.46 957.39,-101.89 986.74,-92.01"/>
<polygon fill="midnightblue" stroke="midnightblue" points="869.24,-127.89 860.88,-134.4 871.47,-134.52 869.24,-127.89"/>
</g>
<!-- Node11 -->
<g id="node11" class="node">
<title>Node11</title>
<g id="a_node11"><a xlink:href="d__msg__flow_8cpp.html" target="_top" xlink:title=" ">
<polygon fill="white" stroke="black" points="648.5,-73 648.5,-92 781.5,-92 781.5,-73 648.5,-73"/>
<text text-anchor="middle" x="715" y="-80" font-family="Helvetica,sans-Serif" font-size="10.00">src/d/msg/d_msg_flow.cpp</text>
</a>
</g>
</g>
<!-- Node8&#45;&gt;Node11 -->
<g id="edge12" class="edge">
<title>Node8&#45;&gt;Node11</title>
<path fill="none" stroke="midnightblue" d="M787.76,-128.97C768.04,-116.65 743.55,-101.35 728.61,-92.01"/>
<polygon fill="midnightblue" stroke="midnightblue" points="786.1,-132.06 796.43,-134.4 789.81,-126.13 786.1,-132.06"/>
</g>
<!-- Node12 -->
<g id="node12" class="node">
<title>Node12</title>
<g id="a_node12"><a xlink:href="d__item_8h.html" target="_top" xlink:title=" ">
<polygon fill="white" stroke="black" points="838.5,-73 838.5,-92 933.5,-92 933.5,-73 838.5,-73"/>
<text text-anchor="middle" x="886" y="-80" font-family="Helvetica,sans-Serif" font-size="10.00">include/d/d_item.h</text>
</a>
</g>
</g>
<!-- Node8&#45;&gt;Node12 -->
<g id="edge14" class="edge">
<title>Node8&#45;&gt;Node12</title>
<path fill="none" stroke="midnightblue" d="M840.82,-127.34C853.12,-115.4 867.82,-101.14 877.04,-92.19"/>
<polygon fill="midnightblue" stroke="midnightblue" points="838.28,-124.92 833.54,-134.4 843.15,-129.94 838.28,-124.92"/>
</g>
<!-- Node12&#45;&gt;Node9 -->
<g id="edge15" class="edge">
<title>Node12&#45;&gt;Node9</title>
<path fill="none" stroke="midnightblue" d="M867.79,-65.93C855.22,-55.18 838.65,-41 826.47,-30.59"/>
<polygon fill="midnightblue" stroke="midnightblue" points="865.88,-68.89 875.75,-72.73 870.43,-63.57 865.88,-68.89"/>
</g>
<!-- Node13 -->
<g id="node13" class="node">
<title>Node13</title>
<g id="a_node13"><a xlink:href="d__item_8cpp.html" target="_top" xlink:title=" ">
<polygon fill="white" stroke="black" points="882.5,-6 882.5,-25 971.5,-25 971.5,-6 882.5,-6"/>
<text text-anchor="middle" x="927" y="-13" font-family="Helvetica,sans-Serif" font-size="10.00">src/d/d_item.cpp</text>
</a>
</g>
</g>
<!-- Node12&#45;&gt;Node13 -->
<g id="edge16" class="edge">
<title>Node12&#45;&gt;Node13</title>
<path fill="none" stroke="midnightblue" d="M897.02,-64.03C904.95,-51.45 915.33,-35.01 921.56,-25.13"/>
<polygon fill="midnightblue" stroke="midnightblue" points="893.9,-62.41 891.53,-72.73 899.82,-66.14 893.9,-62.41"/>
</g>
<!-- Node15 -->
<g id="node15" class="node">
<title>Node15</title>
<g id="a_node15"><a xlink:href="d__bg__s__acch_8cpp.html" target="_top" xlink:title=" ">
<polygon fill="white" stroke="black" points="507.5,-330 507.5,-349 638.5,-349 638.5,-330 507.5,-330"/>
<text text-anchor="middle" x="573" y="-337" font-family="Helvetica,sans-Serif" font-size="10.00">src/d/bg/d_bg_s_acch.cpp</text>
</a>
</g>
</g>
<!-- Node14&#45;&gt;Node15 -->
<g id="edge18" class="edge">
<title>Node14&#45;&gt;Node15</title>
<path fill="none" stroke="midnightblue" d="M485.69,-386.64C509.22,-374.2 538.91,-358.51 556.9,-349.01"/>
<polygon fill="midnightblue" stroke="midnightblue" points="483.9,-383.63 476.69,-391.4 487.17,-389.82 483.9,-383.63"/>
</g>
<!-- Node16 -->
<g id="node16" class="node">
<title>Node16</title>
<g id="a_node16"><a xlink:href="d__bg__w_8h.html" target="_top" xlink:title=" ">
<polygon fill="white" stroke="black" points="656.5,-330 656.5,-349 769.5,-349 769.5,-330 656.5,-330"/>
<text text-anchor="middle" x="713" y="-337" font-family="Helvetica,sans-Serif" font-size="10.00">include/d/bg/d_bg_w.h</text>
</a>
</g>
</g>
<!-- Node14&#45;&gt;Node16 -->
<g id="edge19" class="edge">
<title>Node14&#45;&gt;Node16</title>
<path fill="none" stroke="midnightblue" d="M512.05,-390.16C563.99,-377.33 636.19,-359.48 678.42,-349.05"/>
<polygon fill="midnightblue" stroke="midnightblue" points="511.14,-386.78 502.27,-392.58 512.82,-393.58 511.14,-386.78"/>
</g>
<!-- Node20 -->
<g id="node20" class="node">
<title>Node20</title>
<g id="a_node20"><a xlink:href="d__bomb_8h.html" target="_top" xlink:title=" ">
<polygon fill="white" stroke="black" points="388.5,-330 388.5,-349 489.5,-349 489.5,-330 388.5,-330"/>
<text text-anchor="middle" x="439" y="-337" font-family="Helvetica,sans-Serif" font-size="10.00">include/d/d_bomb.h</text>
</a>
</g>
</g>
<!-- Node14&#45;&gt;Node20 -->
<g id="edge25" class="edge">
<title>Node14&#45;&gt;Node20</title>
<path fill="none" stroke="midnightblue" d="M445.9,-381.25C444,-370.02 441.86,-357.38 440.47,-349.19"/>
<polygon fill="midnightblue" stroke="midnightblue" points="442.49,-382.12 447.61,-391.4 449.4,-380.95 442.49,-382.12"/>
</g>
<!-- Node22 -->
<g id="node22" class="node">
<title>Node22</title>
<g id="a_node22"><a xlink:href="d__particle__copoly_8h.html" target="_top" xlink:title=" ">
<polygon fill="white" stroke="black" points="268,-324.5 268,-354.5 370,-354.5 370,-324.5 268,-324.5"/>
<text text-anchor="start" x="276" y="-342.5" font-family="Helvetica,sans-Serif" font-size="10.00">include/d/particle</text>
<text text-anchor="middle" x="319" y="-331.5" font-family="Helvetica,sans-Serif" font-size="10.00">/d_particle_copoly.h</text>
</a>
</g>
</g>
<!-- Node14&#45;&gt;Node22 -->
<g id="edge27" class="edge">
<title>Node14&#45;&gt;Node22</title>
<path fill="none" stroke="midnightblue" d="M412.42,-386.85C391.71,-376.58 366.41,-364.03 347.37,-354.58"/>
<polygon fill="midnightblue" stroke="midnightblue" points="411.06,-390.09 421.57,-391.4 414.17,-383.82 411.06,-390.09"/>
</g>
<!-- Node17 -->
<g id="node17" class="node">
<title>Node17</title>
<g id="a_node17"><a xlink:href="d__bg__w_8cpp.html" target="_top" xlink:title=" ">
<polygon fill="white" stroke="black" points="554.5,-263 554.5,-282 661.5,-282 661.5,-263 554.5,-263"/>
<text text-anchor="middle" x="608" y="-270" font-family="Helvetica,sans-Serif" font-size="10.00">src/d/bg/d_bg_w.cpp</text>
</a>
</g>
</g>
<!-- Node16&#45;&gt;Node17 -->
<g id="edge20" class="edge">
<title>Node16&#45;&gt;Node17</title>
<path fill="none" stroke="midnightblue" d="M690.29,-324.44C669.5,-311.57 639.38,-292.93 621.94,-282.13"/>
<polygon fill="midnightblue" stroke="midnightblue" points="688.49,-327.45 698.84,-329.73 692.18,-321.49 688.49,-327.45"/>
</g>
<!-- Node18 -->
<g id="node18" class="node">
<title>Node18</title>
<g id="a_node18"><a xlink:href="d__bg__s_8h.html" target="_top" xlink:title=" ">
<polygon fill="white" stroke="black" points="679.5,-263 679.5,-282 790.5,-282 790.5,-263 679.5,-263"/>
<text text-anchor="middle" x="735" y="-270" font-family="Helvetica,sans-Serif" font-size="10.00">include/d/bg/d_bg_s.h</text>
</a>
</g>
</g>
<!-- Node16&#45;&gt;Node18 -->
<g id="edge21" class="edge">
<title>Node16&#45;&gt;Node18</title>
<path fill="none" stroke="midnightblue" d="M719.29,-319.91C723.5,-307.49 728.83,-291.72 732.08,-282.13"/>
<polygon fill="midnightblue" stroke="midnightblue" points="715.86,-319.14 715.97,-329.73 722.49,-321.38 715.86,-319.14"/>
</g>
<!-- Node18&#45;&gt;Node6 -->
<g id="edge23" class="edge">
<title>Node18&#45;&gt;Node6</title>
<path fill="none" stroke="midnightblue" d="M687.91,-260.78C681.89,-259.47 675.81,-258.18 670,-257 602.68,-243.29 524.53,-229.19 475.18,-220.52"/>
<polygon fill="midnightblue" stroke="midnightblue" points="687.41,-264.25 697.93,-262.98 688.91,-257.42 687.41,-264.25"/>
</g>
<!-- Node18&#45;&gt;Node8 -->
<g id="edge24" class="edge">
<title>Node18&#45;&gt;Node8</title>
<path fill="none" stroke="midnightblue" d="M746.93,-254.31C763.67,-230.21 793.79,-186.82 809.25,-164.54"/>
<polygon fill="midnightblue" stroke="midnightblue" points="743.87,-252.59 741.04,-262.8 749.62,-256.58 743.87,-252.59"/>
</g>
<!-- Node19 -->
<g id="node19" class="node">
<title>Node19</title>
<g id="a_node19"><a xlink:href="d__bg__s_8cpp.html" target="_top" xlink:title=" ">
<polygon fill="white" stroke="black" points="649,-201.5 649,-220.5 753,-220.5 753,-201.5 649,-201.5"/>
<text text-anchor="middle" x="701" y="-208.5" font-family="Helvetica,sans-Serif" font-size="10.00">src/d/bg/d_bg_s.cpp</text>
</a>
</g>
</g>
<!-- Node18&#45;&gt;Node19 -->
<g id="edge22" class="edge">
<title>Node18&#45;&gt;Node19</title>
<path fill="none" stroke="midnightblue" d="M725.1,-254.17C718.78,-243.11 710.86,-229.25 705.86,-220.51"/>
<polygon fill="midnightblue" stroke="midnightblue" points="722.13,-256.03 730.13,-262.98 728.21,-252.56 722.13,-256.03"/>
</g>
<!-- Node21 -->
<g id="node21" class="node">
<title>Node21</title>
<g id="a_node21"><a xlink:href="d__bomb_8cpp.html" target="_top" xlink:title=" ">
<polygon fill="white" stroke="black" points="442,-263 442,-282 536,-282 536,-263 442,-263"/>
<text text-anchor="middle" x="489" y="-270" font-family="Helvetica,sans-Serif" font-size="10.00">src/d/d_bomb.cpp</text>
</a>
</g>
</g>
<!-- Node20&#45;&gt;Node21 -->
<g id="edge26" class="edge">
<title>Node20&#45;&gt;Node21</title>
<path fill="none" stroke="midnightblue" d="M451.87,-321.77C461.62,-309.1 474.61,-292.2 482.36,-282.13"/>
<polygon fill="midnightblue" stroke="midnightblue" points="449.07,-319.67 445.74,-329.73 454.61,-323.94 449.07,-319.67"/>
</g>
<!-- Node22&#45;&gt;Node6 -->
<g id="edge29" class="edge">
<title>Node22&#45;&gt;Node6</title>
<path fill="none" stroke="midnightblue" d="M303.09,-315.33C293.3,-297.93 284.76,-274.24 297,-257 313.14,-234.28 341.64,-222.93 367.75,-217.31"/>
<polygon fill="midnightblue" stroke="midnightblue" points="300.34,-317.55 308.53,-324.27 306.32,-313.91 300.34,-317.55"/>
</g>
<!-- Node23 -->
<g id="node23" class="node">
<title>Node23</title>
<g id="a_node23"><a xlink:href="d__particle__copoly_8cpp.html" target="_top" xlink:title=" ">
<polygon fill="white" stroke="black" points="306,-257.5 306,-287.5 424,-287.5 424,-257.5 306,-257.5"/>
<text text-anchor="start" x="314" y="-275.5" font-family="Helvetica,sans-Serif" font-size="10.00">src/d/particle/d_particle</text>
<text text-anchor="middle" x="365" y="-264.5" font-family="Helvetica,sans-Serif" font-size="10.00">_copoly.cpp</text>
</a>
</g>
</g>
<!-- Node22&#45;&gt;Node23 -->
<g id="edge28" class="edge">
<title>Node22&#45;&gt;Node23</title>
<path fill="none" stroke="midnightblue" d="M334.81,-316.16C341.52,-306.68 349.13,-295.92 355.04,-287.58"/>
<polygon fill="midnightblue" stroke="midnightblue" points="331.9,-314.21 328.98,-324.4 337.62,-318.26 331.9,-314.21"/>
</g>
<!-- Node24&#45;&gt;Node6 -->
<g id="edge32" class="edge">
<title>Node24&#45;&gt;Node6</title>
<path fill="none" stroke="midnightblue" d="M161.73,-387.91C166.54,-378.21 172.61,-365.94 178,-355 199.43,-311.49 187.93,-287.05 226,-257 266.22,-225.24 324.48,-214.97 367.75,-212.07"/>
<polygon fill="midnightblue" stroke="midnightblue" points="158.57,-386.41 157.26,-396.93 164.84,-389.52 158.57,-386.41"/>
</g>
<!-- Node24&#45;&gt;Node8 -->
<g id="edge33" class="edge">
<title>Node24&#45;&gt;Node8</title>
<path fill="none" stroke="midnightblue" d="M153.31,-386.48C154.85,-355.3 162.4,-293.19 197,-257 274.56,-175.89 626.35,-156.39 763.77,-151.84"/>
<polygon fill="midnightblue" stroke="midnightblue" points="149.8,-386.68 152.97,-396.79 156.8,-386.91 149.8,-386.68"/>
</g>
<!-- Node25 -->
<g id="node25" class="node">
<title>Node25</title>
<g id="a_node25"><a xlink:href="d__attention_8cpp.html" target="_top" xlink:title=" ">
<polygon fill="white" stroke="black" points="28.5,-330 28.5,-349 135.5,-349 135.5,-330 28.5,-330"/>
<text text-anchor="middle" x="82" y="-337" font-family="Helvetica,sans-Serif" font-size="10.00">src/d/d_attention.cpp</text>
</a>
</g>
</g>
<!-- Node24&#45;&gt;Node25 -->
<g id="edge31" class="edge">
<title>Node24&#45;&gt;Node25</title>
<path fill="none" stroke="midnightblue" d="M135.91,-389.86C121.95,-377.08 102.74,-359.49 91.42,-349.13"/>
<polygon fill="midnightblue" stroke="midnightblue" points="133.69,-392.56 143.42,-396.73 138.41,-387.4 133.69,-392.56"/>
</g>
<!-- Node26&#45;&gt;Node8 -->
<g id="edge36" class="edge">
<title>Node26&#45;&gt;Node8</title>
<path fill="none" stroke="midnightblue" d="M995.78,-322.7C958.83,-286.71 868.9,-199.11 833.58,-164.7"/>
<polygon fill="midnightblue" stroke="midnightblue" points="993.6,-325.46 1003.21,-329.93 998.48,-320.45 993.6,-325.46"/>
</g>
<!-- Node26&#45;&gt;Node10 -->
<g id="edge35" class="edge">
<title>Node26&#45;&gt;Node10</title>
<path fill="none" stroke="midnightblue" d="M1012,-319.43C1012,-268.12 1012,-128.57 1012,-92.24"/>
<polygon fill="midnightblue" stroke="midnightblue" points="1008.5,-319.72 1012,-329.72 1015.5,-319.72 1008.5,-319.72"/>
</g>
<!-- Node27&#45;&gt;Node8 -->
<g id="edge41" class="edge">
<title>Node27&#45;&gt;Node8</title>
<path fill="none" stroke="midnightblue" d="M1252.47,-520.1C1264.32,-512.4 1277.62,-501.79 1286,-489 1306.44,-457.8 1306,-444.8 1306,-407.5 1306,-407.5 1306,-407.5 1306,-271.5 1306,-183.4 1002.03,-158.98 874.39,-152.61"/>
<polygon fill="midnightblue" stroke="midnightblue" points="1250.5,-517.2 1243.79,-525.4 1254.15,-523.17 1250.5,-517.2"/>
</g>
<!-- Node28 -->
<g id="node28" class="node">
<title>Node28</title>
<g id="a_node28"><a xlink:href="d__vibration_8cpp.html" target="_top" xlink:title=" ">
<polygon fill="white" stroke="black" points="1170.5,-464 1170.5,-483 1277.5,-483 1277.5,-464 1170.5,-464"/>
<text text-anchor="middle" x="1224" y="-471" font-family="Helvetica,sans-Serif" font-size="10.00">src/d/d_vibration.cpp</text>
</a>
</g>
</g>
<!-- Node27&#45;&gt;Node28 -->
<g id="edge40" class="edge">
<title>Node27&#45;&gt;Node28</title>
<path fill="none" stroke="midnightblue" d="M1226.06,-515.32C1225.51,-504.5 1224.85,-491.4 1224.43,-483.01"/>
<polygon fill="midnightblue" stroke="midnightblue" points="1222.57,-515.66 1226.57,-525.48 1229.56,-515.31 1222.57,-515.66"/>
</g>
<!-- Node29&#45;&gt;Node4 -->
<g id="edge46" class="edge">
<title>Node29&#45;&gt;Node4</title>
<path fill="none" stroke="midnightblue" d="M710.13,-524.5C655.53,-515.82 573.27,-502.34 502,-489 492.24,-487.17 481.75,-485.07 471.93,-483.05"/>
<polygon fill="midnightblue" stroke="midnightblue" points="709.9,-528.01 720.33,-526.12 711,-521.1 709.9,-528.01"/>
</g>
<!-- Node29&#45;&gt;Node8 -->
<g id="edge47" class="edge">
<title>Node29&#45;&gt;Node8</title>
<path fill="none" stroke="midnightblue" d="M770.28,-515.35C770.69,-497.94 774.25,-472.52 790,-458 862.2,-391.44 919.15,-463.82 1008,-422 1049.05,-402.68 1066.2,-396.28 1085,-355 1130.63,-254.81 963.9,-191.09 873.5,-164.6"/>
<polygon fill="midnightblue" stroke="midnightblue" points="766.78,-515.48 770.37,-525.44 773.78,-515.41 766.78,-515.48"/>
</g>
<!-- Node29&#45;&gt;Node26 -->
<g id="edge48" class="edge">
<title>Node29&#45;&gt;Node26</title>
<path fill="none" stroke="midnightblue" d="M831.94,-532.88C904.45,-530.1 1019.09,-520.67 1046,-489 1081.96,-446.67 1036.05,-373.86 1018.38,-349.06"/>
<polygon fill="midnightblue" stroke="midnightblue" points="831.44,-529.39 821.57,-533.24 831.69,-536.39 831.44,-529.39"/>
</g>
<!-- Node30 -->
<g id="node30" class="node">
<title>Node30</title>
<g id="a_node30"><a xlink:href="d__stage_8cpp.html" target="_top" xlink:title=" ">
<polygon fill="white" stroke="black" points="649,-464 649,-483 743,-483 743,-464 649,-464"/>
<text text-anchor="middle" x="696" y="-471" font-family="Helvetica,sans-Serif" font-size="10.00">src/d/d_stage.cpp</text>
</a>
</g>
</g>
<!-- Node29&#45;&gt;Node30 -->
<g id="edge43" class="edge">
<title>Node29&#45;&gt;Node30</title>
<path fill="none" stroke="midnightblue" d="M752.06,-518.97C737.71,-507.59 718.52,-492.37 706.73,-483.01"/>
<polygon fill="midnightblue" stroke="midnightblue" points="750.24,-522 760.25,-525.48 754.6,-516.52 750.24,-522"/>
</g>
<!-- Node31 -->
<g id="node31" class="node">
<title>Node31</title>
<g id="a_node31"><a xlink:href="f__op__actor_8cpp.html" target="_top" xlink:title=" ">
<polygon fill="white" stroke="black" points="799.5,-464 799.5,-483 918.5,-483 918.5,-464 799.5,-464"/>
<text text-anchor="middle" x="859" y="-471" font-family="Helvetica,sans-Serif" font-size="10.00">src/f_op/f_op_actor.cpp</text>
</a>
</g>
</g>
<!-- Node29&#45;&gt;Node31 -->
<g id="edge44" class="edge">
<title>Node29&#45;&gt;Node31</title>
<path fill="none" stroke="midnightblue" d="M792.28,-519.61C809.2,-508.17 832.31,-492.55 846.42,-483.01"/>
<polygon fill="midnightblue" stroke="midnightblue" points="789.93,-516.97 783.61,-525.48 793.85,-522.77 789.93,-516.97"/>
</g>
<!-- Node32 -->
<g id="node32" class="node">
<title>Node32</title>
<g id="a_node32"><a xlink:href="f__op__actor__mng_8cpp.html" target="_top" xlink:title=" ">
<polygon fill="white" stroke="black" points="936.5,-458.5 936.5,-488.5 1037.5,-488.5 1037.5,-458.5 936.5,-458.5"/>
<text text-anchor="start" x="944.5" y="-476.5" font-family="Helvetica,sans-Serif" font-size="10.00">src/f_op/f_op_actor</text>
<text text-anchor="middle" x="987" y="-465.5" font-family="Helvetica,sans-Serif" font-size="10.00">_mng.cpp</text>
</a>
</g>
</g>
<!-- Node29&#45;&gt;Node32 -->
<g id="edge45" class="edge">
<title>Node29&#45;&gt;Node32</title>
<path fill="none" stroke="midnightblue" d="M811.9,-522.73C847.15,-513.02 898.2,-498.96 936.09,-488.52"/>
<polygon fill="midnightblue" stroke="midnightblue" points="810.66,-519.44 801.95,-525.48 812.52,-526.19 810.66,-519.44"/>
</g>
<!-- Node29&#45;&gt;Node33 -->
<g id="edge49" class="edge">
<title>Node29&#45;&gt;Node33</title>
<path fill="none" stroke="midnightblue" d="M732.71,-522.61C700.09,-512.9 653.07,-498.92 618.14,-488.52"/>
<polygon fill="midnightblue" stroke="midnightblue" points="731.76,-525.98 742.34,-525.48 733.76,-519.27 731.76,-525.98"/>
</g>
<!-- Node34 -->
<g id="node34" class="node">
<title>Node34</title>
<g id="a_node34"><a xlink:href="d__event__data_8cpp.html" target="_top" xlink:title=" ">
<polygon fill="white" stroke="black" points="896.5,-391.5 896.5,-421.5 999.5,-421.5 999.5,-391.5 896.5,-391.5"/>
<text text-anchor="start" x="904.5" y="-409.5" font-family="Helvetica,sans-Serif" font-size="10.00">src/d/event/d_event</text>
<text text-anchor="middle" x="948" y="-398.5" font-family="Helvetica,sans-Serif" font-size="10.00">_data.cpp</text>
</a>
</g>
</g>
<!-- Node33&#45;&gt;Node34 -->
<g id="edge50" class="edge">
<title>Node33&#45;&gt;Node34</title>
<path fill="none" stroke="midnightblue" d="M641.13,-457.87C748.74,-438.96 778.19,-441.1 882,-422 886.62,-421.15 891.4,-420.21 896.19,-419.23"/>
<polygon fill="midnightblue" stroke="midnightblue" points="640.4,-454.44 631.17,-459.64 641.63,-461.33 640.4,-454.44"/>
</g>
<!-- Node35 -->
<g id="node35" class="node">
<title>Node35</title>
<g id="a_node35"><a xlink:href="d__event__manager_8h.html" target="_top" xlink:title=" ">
<polygon fill="white" stroke="black" points="720,-391.5 720,-421.5 840,-421.5 840,-391.5 720,-391.5"/>
<text text-anchor="start" x="728" y="-409.5" font-family="Helvetica,sans-Serif" font-size="10.00">include/d/event/d_event</text>
<text text-anchor="middle" x="780" y="-398.5" font-family="Helvetica,sans-Serif" font-size="10.00">_manager.h</text>
</a>
</g>
</g>
<!-- Node33&#45;&gt;Node35 -->
<g id="edge51" class="edge">
<title>Node33&#45;&gt;Node35</title>
<path fill="none" stroke="midnightblue" d="M625.84,-455.44C659.72,-444.91 702.67,-431.55 734.63,-421.61"/>
<polygon fill="midnightblue" stroke="midnightblue" points="624.6,-452.16 616.09,-458.48 626.68,-458.85 624.6,-452.16"/>
</g>
<!-- Node35&#45;&gt;Node8 -->
<g id="edge53" class="edge">
<title>Node35&#45;&gt;Node8</title>
<path fill="none" stroke="midnightblue" d="M783.99,-381.53C787.91,-357.79 794.02,-320.41 799,-288 805.92,-242.94 813.52,-189.47 817.03,-164.56"/>
<polygon fill="midnightblue" stroke="midnightblue" points="780.54,-380.97 782.35,-391.4 787.44,-382.11 780.54,-380.97"/>
</g>
<!-- Node35&#45;&gt;Node26 -->
<g id="edge54" class="edge">
<title>Node35&#45;&gt;Node26</title>
<path fill="none" stroke="midnightblue" d="M839.78,-388.75C885.16,-376.04 945.67,-359.09 981.56,-349.03"/>
<polygon fill="midnightblue" stroke="midnightblue" points="838.74,-385.41 830.05,-391.48 840.63,-392.15 838.74,-385.41"/>
</g>
<!-- Node36 -->
<g id="node36" class="node">
<title>Node36</title>
<g id="a_node36"><a xlink:href="d__event__manager_8cpp.html" target="_top" xlink:title=" ">
<polygon fill="white" stroke="black" points="826.5,-324.5 826.5,-354.5 929.5,-354.5 929.5,-324.5 826.5,-324.5"/>
<text text-anchor="start" x="834.5" y="-342.5" font-family="Helvetica,sans-Serif" font-size="10.00">src/d/event/d_event</text>
<text text-anchor="middle" x="878" y="-331.5" font-family="Helvetica,sans-Serif" font-size="10.00">_manager.cpp</text>
</a>
</g>
</g>
<!-- Node35&#45;&gt;Node36 -->
<g id="edge52" class="edge">
<title>Node35&#45;&gt;Node36</title>
<path fill="none" stroke="midnightblue" d="M809.8,-385.73C824.97,-375.68 843.04,-363.68 856.78,-354.58"/>
<polygon fill="midnightblue" stroke="midnightblue" points="807.66,-382.95 801.26,-391.4 811.53,-388.79 807.66,-382.95"/>
</g>
</g>
</svg>
        <g id="navigator" transform="translate(0 0)" fill="#404254">
                <rect fill="#f2f5e9" fill-opacity="0.5" stroke="#606060" stroke-width=".5" x="0" y="0" width="60" height="60"/>
                <use id="zoomplus" xlink:href="#zoomPlus" x="17" y="9" onmousedown="handleZoom(evt,'in')"/>
                <use id="zoomminus" xlink:href="#zoomMin" x="42" y="9" onmousedown="handleZoom(evt,'out')"/>
                <use id="reset" xlink:href="#resetDef" x="30" y="36" onmousedown="handleReset()"/>
                <g id="arrowUp" xlink:href="#dirArrow" transform="translate(30 24)" onmousedown="handlePan(0,-1)">
                  <use xlink:href="#rim" fill="#404040">
                        <set attributeName="fill" to="#808080" begin="arrowUp.mouseover" end="arrowUp.mouseout"/>
                  </use>
                  <path fill="none" stroke="white" stroke-width="1.5" d="M0,-3.0v7 M-2.5,-0.5L0,-3.0L2.5,-0.5"/>
                </g>
                <g id="arrowRight" xlink:href="#dirArrow" transform="rotate(90) translate(36 -43)" onmousedown="handlePan(1,0)">
                  <use xlink:href="#rim" fill="#404040">
                        <set attributeName="fill" to="#808080" begin="arrowRight.mouseover" end="arrowRight.mouseout"/>
                  </use>
                  <path fill="none" stroke="white" stroke-width="1.5" d="M0,-3.0v7 M-2.5,-0.5L0,-3.0L2.5,-0.5"/>
                </g>
                <g id="arrowDown" xlink:href="#dirArrow" transform="rotate(180) translate(-30 -48)" onmousedown="handlePan(0,1)">
                  <use xlink:href="#rim" fill="#404040">
                        <set attributeName="fill" to="#808080" begin="arrowDown.mouseover" end="arrowDown.mouseout"/>
                  </use>
                  <path fill="none" stroke="white" stroke-width="1.5" d="M0,-3.0v7 M-2.5,-0.5L0,-3.0L2.5,-0.5"/>
                </g>
                <g id="arrowLeft" xlink:href="#dirArrow" transform="rotate(270) translate(-36 17)" onmousedown="handlePan(-1,0)">
                  <use xlink:href="#rim" fill="#404040">
                        <set attributeName="fill" to="#808080" begin="arrowLeft.mouseover" end="arrowLeft.mouseout"/>
                  </use>
                  <path fill="none" stroke="white" stroke-width="1.5" d="M0,-3.0v7 M-2.5,-0.5L0,-3.0L2.5,-0.5"/>
                </g>
        </g>
        <svg viewBox="0 0 15 15" width="100%" height="30px" preserveAspectRatio="xMaxYMin meet">
         <g id="arrow_out" transform="scale(0.3 0.3)">
          <a xlink:href="d__save_8h__dep__incl_org.svg" target="_base">
           <rect id="button" ry="5" rx="5" y="6" x="6" height="38" width="38"
                fill="#f2f5e9" fill-opacity="0.5" stroke="#606060" stroke-width="1.0"/>
           <path id="arrow"
             d="M 11.500037,31.436501 C 11.940474,20.09759 22.043105,11.32322 32.158766,21.979434 L 37.068811,17.246167 C 37.068811,17.246167 37.088388,32 37.088388,32 L 22.160133,31.978069 C 22.160133,31.978069 26.997745,27.140456 26.997745,27.140456 C 18.528582,18.264221 13.291696,25.230495 11.500037,31.436501 z"
             style="fill:#404040;"/>
          </a>
         </g>
        </svg>
</svg>
