<?xml version="1.0" encoding="UTF-8" standalone="no"?>
<!DOCTYPE svg PUBLIC "-//W3C//DTD SVG 1.1//EN"
 "http://www.w3.org/Graphics/SVG/1.1/DTD/svg11.dtd">
<!-- Generated by graphviz version 2.44.0 ()
 -->
<!-- Title: include/d/save/d_save.h Pages: 1 -->
<svg width="302pt" height="207pt"
 viewBox="0.00 0.00 301.50 207.00" xmlns="http://www.w3.org/2000/svg" xmlns:xlink="http://www.w3.org/1999/xlink">
<g id="graph0" class="graph" transform="scale(1 1) rotate(0) translate(4 203)">
<title>include/d/save/d_save.h</title>
<polygon fill="white" stroke="transparent" points="-4,4 -4,-203 297.5,-203 297.5,4 -4,4"/>
<!-- Node1 -->
<g id="node1" class="node">
<title>Node1</title>
<g id="a_node1"><a xlink:title=" ">
<polygon fill="#bfbfbf" stroke="black" points="127,-179.5 127,-198.5 249,-198.5 249,-179.5 127,-179.5"/>
<text text-anchor="middle" x="188" y="-186.5" font-family="Helvetica,sans-Serif" font-size="10.00">include/d/save/d_save.h</text>
</a>
</g>
</g>
<!-- Node2 -->
<g id="node2" class="node">
<title>Node2</title>
<g id="a_node2"><a xlink:href="c__xyz_8h.html" target="_top" xlink:title=" ">
<polygon fill="white" stroke="black" points="44,-112.5 44,-142.5 160,-142.5 160,-112.5 44,-112.5"/>
<text text-anchor="start" x="52" y="-130.5" font-family="Helvetica,sans-Serif" font-size="10.00">SSystem/SComponent</text>
<text text-anchor="middle" x="102" y="-119.5" font-family="Helvetica,sans-Serif" font-size="10.00">/c_xyz.h</text>
</a>
</g>
</g>
<!-- Node1&#45;&gt;Node2 -->
<g id="edge1" class="edge">
<title>Node1&#45;&gt;Node2</title>
<path fill="none" stroke="midnightblue" d="M175.68,-179.48C164.03,-171.42 146.12,-159.02 130.87,-148.47"/>
<polygon fill="midnightblue" stroke="midnightblue" points="132.48,-145.33 122.27,-142.52 128.5,-151.09 132.48,-145.33"/>
</g>
<!-- Node4 -->
<g id="node4" class="node">
<title>Node4</title>
<g id="a_node4"><a xlink:href="types_8h.html" target="_top" xlink:title=" ">
<polygon fill="white" stroke="black" points="120.5,-0.5 120.5,-19.5 201.5,-19.5 201.5,-0.5 120.5,-0.5"/>
<text text-anchor="middle" x="161" y="-7.5" font-family="Helvetica,sans-Serif" font-size="10.00">dolphin/types.h</text>
</a>
</g>
</g>
<!-- Node1&#45;&gt;Node4 -->
<g id="edge6" class="edge">
<title>Node1&#45;&gt;Node4</title>
<path fill="none" stroke="midnightblue" d="M186.85,-179.34C184.04,-158.22 176.46,-102.4 169,-56 167.6,-47.27 165.9,-37.62 164.43,-29.5"/>
<polygon fill="midnightblue" stroke="midnightblue" points="167.86,-28.82 162.62,-19.61 160.98,-30.08 167.86,-28.82"/>
</g>
<!-- Node6 -->
<g id="node6" class="node">
<title>Node6</title>
<g id="a_node6"><a xlink:href="msl__c_2string_8h.html" target="_top" xlink:title=" ">
<polygon fill="white" stroke="black" points="216.5,-118 216.5,-137 293.5,-137 293.5,-118 216.5,-118"/>
<text text-anchor="middle" x="255" y="-125" font-family="Helvetica,sans-Serif" font-size="10.00">msl_c/string.h</text>
</a>
</g>
</g>
<!-- Node1&#45;&gt;Node6 -->
<g id="edge7" class="edge">
<title>Node1&#45;&gt;Node6</title>
<path fill="none" stroke="midnightblue" d="M197.6,-179.48C208.05,-170.2 224.97,-155.17 237.74,-143.83"/>
<polygon fill="midnightblue" stroke="midnightblue" points="240.27,-146.27 245.42,-137.01 235.62,-141.03 240.27,-146.27"/>
</g>
<!-- Node3 -->
<g id="node3" class="node">
<title>Node3</title>
<g id="a_node3"><a xlink:href="vec_8h.html" target="_top" xlink:title=" ">
<polygon fill="white" stroke="black" points="0,-56.5 0,-75.5 92,-75.5 92,-56.5 0,-56.5"/>
<text text-anchor="middle" x="46" y="-63.5" font-family="Helvetica,sans-Serif" font-size="10.00">dolphin/mtx/vec.h</text>
</a>
</g>
</g>
<!-- Node2&#45;&gt;Node3 -->
<g id="edge2" class="edge">
<title>Node2&#45;&gt;Node3</title>
<path fill="none" stroke="midnightblue" d="M88.73,-112.4C80.42,-103.58 69.7,-92.18 61.08,-83.02"/>
<polygon fill="midnightblue" stroke="midnightblue" points="63.55,-80.54 54.15,-75.66 58.45,-85.34 63.55,-80.54"/>
</g>
<!-- Node5 -->
<g id="node5" class="node">
<title>Node5</title>
<g id="a_node5"><a xlink:href="global_8h.html" target="_top" xlink:title=" ">
<polygon fill="white" stroke="black" points="110,-56.5 110,-75.5 160,-75.5 160,-56.5 110,-56.5"/>
<text text-anchor="middle" x="135" y="-63.5" font-family="Helvetica,sans-Serif" font-size="10.00">global.h</text>
</a>
</g>
</g>
<!-- Node2&#45;&gt;Node5 -->
<g id="edge4" class="edge">
<title>Node2&#45;&gt;Node5</title>
<path fill="none" stroke="midnightblue" d="M109.82,-112.4C114.47,-104.02 120.4,-93.33 125.34,-84.42"/>
<polygon fill="midnightblue" stroke="midnightblue" points="128.41,-86.1 130.2,-75.66 122.29,-82.71 128.41,-86.1"/>
</g>
<!-- Node3&#45;&gt;Node4 -->
<g id="edge3" class="edge">
<title>Node3&#45;&gt;Node4</title>
<path fill="none" stroke="midnightblue" d="M64.22,-56.44C82.9,-47.68 112.16,-33.94 133.62,-23.86"/>
<polygon fill="midnightblue" stroke="midnightblue" points="135.3,-26.93 142.86,-19.52 132.32,-20.6 135.3,-26.93"/>
</g>
<!-- Node5&#45;&gt;Node4 -->
<g id="edge5" class="edge">
<title>Node5&#45;&gt;Node4</title>
<path fill="none" stroke="midnightblue" d="M139.29,-56.08C142.85,-48.69 148.02,-37.95 152.42,-28.81"/>
<polygon fill="midnightblue" stroke="midnightblue" points="155.6,-30.28 156.79,-19.75 149.29,-27.24 155.6,-30.28"/>
</g>
<!-- Node6&#45;&gt;Node4 -->
<g id="edge8" class="edge">
<title>Node6&#45;&gt;Node4</title>
<path fill="none" stroke="midnightblue" d="M248.73,-117.61C239.07,-104.04 219.78,-77.46 202,-56 193.83,-46.13 184.2,-35.52 176.33,-27.08"/>
<polygon fill="midnightblue" stroke="midnightblue" points="178.83,-24.62 169.42,-19.74 173.73,-29.42 178.83,-24.62"/>
</g>
</g>
</svg>
