<?xml version="1.0" encoding="UTF-8" standalone="no"?>
<!DOCTYPE svg PUBLIC "-//W3C//DTD SVG 1.1//EN"
 "http://www.w3.org/Graphics/SVG/1.1/DTD/svg11.dtd">
<!-- Generated by graphviz version 2.44.0 ()
 -->
<!-- Title: src/d/d_vibration.cpp Pages: 1 -->
<!--zoomable 330 -->
<svg id="main" version="1.1" xmlns="http://www.w3.org/2000/svg" xmlns:xlink="http://www.w3.org/1999/xlink" xml:space="preserve" onload="init(evt)">
<style type="text/css"><![CDATA[
.edge:hover path { stroke: red; }
.edge:hover polygon { stroke: red; fill: red; }
]]></style>
<script type="text/javascript"><![CDATA[
var edges = document.getElementsByTagName('g');
if (edges && edges.length) {
  for (var i=0;i<edges.length;i++) {
    if (edges[i].id.substr(0,4)=='edge') {
      edges[i].setAttribute('class','edge');
    }
  }
}
]]></script>
        <defs>
                <circle id="rim" cx="0" cy="0" r="7"/>
                <circle id="rim2" cx="0" cy="0" r="3.5"/>
                <g id="zoomPlus">
                        <use xlink:href="#rim" fill="#404040">
                                <set attributeName="fill" to="#808080" begin="zoomplus.mouseover" end="zoomplus.mouseout"/>
                        </use>
                        <path d="M-4,0h8M0,-4v8" fill="none" stroke="white" stroke-width="1.5" pointer-events="none"/>
                </g>
                <g id="zoomMin">
                        <use xlink:href="#rim" fill="#404040">
                                <set attributeName="fill" to="#808080" begin="zoomminus.mouseover" end="zoomminus.mouseout"/>
                        </use>
                        <path d="M-4,0h8" fill="none" stroke="white" stroke-width="1.5" pointer-events="none"/>
                </g>
                <g id="dirArrow">
                        <path fill="none" stroke="white" stroke-width="1.5" d="M0,-3.0v7 M-2.5,-0.5L0,-3.0L2.5,-0.5"/>
                </g>
               <g id="resetDef">
                       <use xlink:href="#rim2" fill="#404040">
                               <set attributeName="fill" to="#808080" begin="reset.mouseover" end="reset.mouseout"/>
                       </use>
               </g>
        </defs>

<script type="text/javascript">
var viewWidth = 2680;
var viewHeight = 330;
var sectionId = 'dynsection-0';
</script>
<script xlink:href="svgpan.js"/>
<svg id="graph" class="graph">
<g id="viewport">
<title>src/d/d_vibration.cpp</title>
<polygon fill="white" stroke="transparent" points="-4,4 -4,-326 2675.5,-326 2675.5,4 -4,4"/>
<!-- Node1 -->
<g id="node1" class="node">
<title>Node1</title>
<g id="a_node1"><a xlink:title=" ">
<polygon fill="#bfbfbf" stroke="black" points="1237.5,-302.5 1237.5,-321.5 1344.5,-321.5 1344.5,-302.5 1237.5,-302.5"/>
<text text-anchor="middle" x="1291" y="-309.5" font-family="Helvetica,sans-Serif" font-size="10.00">src/d/d_vibration.cpp</text>
</a>
</g>
</g>
<!-- Node2 -->
<g id="node2" class="node">
<title>Node2</title>
<g id="a_node2"><a xlink:href="d__vibration_8h.html" target="_top" xlink:title=" ">
<polygon fill="white" stroke="black" points="252,-241 252,-260 332,-260 332,-241 252,-241"/>
<text text-anchor="middle" x="292" y="-248" font-family="Helvetica,sans-Serif" font-size="10.00">d/d_vibration.h</text>
</a>
</g>
</g>
<!-- Node1&#45;&gt;Node2 -->
<g id="edge1" class="edge">
<title>Node1&#45;&gt;Node2</title>
<path fill="none" stroke="midnightblue" d="M1237.36,-309.96C1063.97,-306.36 519.74,-293.14 346,-266 340.49,-265.14 334.72,-263.93 329.1,-262.58"/>
<polygon fill="midnightblue" stroke="midnightblue" points="329.78,-259.14 319.23,-260.03 328.03,-265.92 329.78,-259.14"/>
</g>
<!-- Node6 -->
<g id="node6" class="node">
<title>Node6</title>
<g id="a_node6"><a xlink:href="types_8h.html" target="_top" xlink:title=" ">
<polygon fill="white" stroke="black" points="180.5,-0.5 180.5,-19.5 261.5,-19.5 261.5,-0.5 180.5,-0.5"/>
<text text-anchor="middle" x="221" y="-7.5" font-family="Helvetica,sans-Serif" font-size="10.00">dolphin/types.h</text>
</a>
</g>
</g>
<!-- Node1&#45;&gt;Node6 -->
<g id="edge13" class="edge">
<title>Node1&#45;&gt;Node6</title>
<path fill="none" stroke="midnightblue" d="M1237.33,-310.09C1046.92,-306.62 413.42,-293.1 380,-266 352.87,-244 360,-224.93 360,-190 360,-190 360,-190 360,-126.5 360,-73.05 298.46,-39.59 257.27,-23.19"/>
<polygon fill="midnightblue" stroke="midnightblue" points="258.39,-19.87 247.8,-19.57 255.89,-26.41 258.39,-19.87"/>
</g>
<!-- Node9 -->
<g id="node9" class="node">
<title>Node9</title>
<g id="a_node9"><a xlink:href="dol2asm_8h.html" target="_top" xlink:title=" ">
<polygon fill="white" stroke="black" points="388.5,-241 388.5,-260 449.5,-260 449.5,-241 388.5,-241"/>
<text text-anchor="middle" x="419" y="-248" font-family="Helvetica,sans-Serif" font-size="10.00">dol2asm.h</text>
</a>
</g>
</g>
<!-- Node1&#45;&gt;Node9 -->
<g id="edge12" class="edge">
<title>Node1&#45;&gt;Node9</title>
<path fill="none" stroke="midnightblue" d="M1237.34,-310.15C1077.89,-307.3 608.72,-296.49 459,-266 455.57,-265.3 452.03,-264.36 448.55,-263.3"/>
<polygon fill="midnightblue" stroke="midnightblue" points="449.61,-259.96 439.02,-260.06 447.36,-266.59 449.61,-259.96"/>
</g>
<!-- Node10 -->
<g id="node10" class="node">
<title>Node10</title>
<g id="a_node10"><a xlink:title=" ">
<polygon fill="white" stroke="#bfbfbf" points="468,-235.5 468,-265.5 584,-265.5 584,-235.5 468,-235.5"/>
<text text-anchor="start" x="476" y="-253.5" font-family="Helvetica,sans-Serif" font-size="10.00">asm/d/d_vibration/func</text>
<text text-anchor="middle" x="526" y="-242.5" font-family="Helvetica,sans-Serif" font-size="10.00">_8006F168.s</text>
</a>
</g>
</g>
<!-- Node1&#45;&gt;Node10 -->
<g id="edge14" class="edge">
<title>Node1&#45;&gt;Node10</title>
<path fill="none" stroke="midnightblue" d="M1237.31,-310.25C1121.5,-308.06 839.57,-299.58 594.19,-266.02"/>
<polygon fill="midnightblue" stroke="midnightblue" points="594.4,-262.51 584.01,-264.61 593.44,-269.45 594.4,-262.51"/>
</g>
<!-- Node11 -->
<g id="node11" class="node">
<title>Node11</title>
<g id="a_node11"><a xlink:title=" ">
<polygon fill="white" stroke="#bfbfbf" points="602,-235.5 602,-265.5 718,-265.5 718,-235.5 602,-235.5"/>
<text text-anchor="start" x="610" y="-253.5" font-family="Helvetica,sans-Serif" font-size="10.00">asm/d/d_vibration/func</text>
<text text-anchor="middle" x="660" y="-242.5" font-family="Helvetica,sans-Serif" font-size="10.00">_8006F184.s</text>
</a>
</g>
</g>
<!-- Node1&#45;&gt;Node11 -->
<g id="edge15" class="edge">
<title>Node1&#45;&gt;Node11</title>
<path fill="none" stroke="midnightblue" d="M1237.47,-309.11C1138.67,-305.11 920.94,-293.86 728.06,-266.02"/>
<polygon fill="midnightblue" stroke="midnightblue" points="728.42,-262.54 718.02,-264.55 727.41,-269.46 728.42,-262.54"/>
</g>
<!-- Node12 -->
<g id="node12" class="node">
<title>Node12</title>
<g id="a_node12"><a xlink:title=" ">
<polygon fill="white" stroke="#bfbfbf" points="736,-235.5 736,-265.5 852,-265.5 852,-235.5 736,-235.5"/>
<text text-anchor="start" x="744" y="-253.5" font-family="Helvetica,sans-Serif" font-size="10.00">asm/d/d_vibration/func</text>
<text text-anchor="middle" x="794" y="-242.5" font-family="Helvetica,sans-Serif" font-size="10.00">_8006F1A4.s</text>
</a>
</g>
</g>
<!-- Node1&#45;&gt;Node12 -->
<g id="edge16" class="edge">
<title>Node1&#45;&gt;Node12</title>
<path fill="none" stroke="midnightblue" d="M1237.46,-307.28C1157.79,-301.33 1003.17,-288.19 862.16,-266.07"/>
<polygon fill="midnightblue" stroke="midnightblue" points="862.46,-262.58 852.03,-264.46 861.36,-269.49 862.46,-262.58"/>
</g>
<!-- Node13 -->
<g id="node13" class="node">
<title>Node13</title>
<g id="a_node13"><a xlink:title=" ">
<polygon fill="white" stroke="#bfbfbf" points="870,-235.5 870,-265.5 986,-265.5 986,-235.5 870,-235.5"/>
<text text-anchor="start" x="878" y="-253.5" font-family="Helvetica,sans-Serif" font-size="10.00">asm/d/d_vibration/func</text>
<text text-anchor="middle" x="928" y="-242.5" font-family="Helvetica,sans-Serif" font-size="10.00">_8006F1D8.s</text>
</a>
</g>
</g>
<!-- Node1&#45;&gt;Node13 -->
<g id="edge17" class="edge">
<title>Node1&#45;&gt;Node13</title>
<path fill="none" stroke="midnightblue" d="M1237.36,-303.87C1180.02,-296.02 1086.23,-282.51 995.92,-266.1"/>
<polygon fill="midnightblue" stroke="midnightblue" points="996.53,-262.66 986.06,-264.3 995.27,-269.54 996.53,-262.66"/>
</g>
<!-- Node14 -->
<g id="node14" class="node">
<title>Node14</title>
<g id="a_node14"><a xlink:title=" ">
<polygon fill="white" stroke="#bfbfbf" points="1004,-235.5 1004,-265.5 1118,-265.5 1118,-235.5 1004,-235.5"/>
<text text-anchor="start" x="1012" y="-253.5" font-family="Helvetica,sans-Serif" font-size="10.00">asm/d/d_vibration/Run</text>
<text text-anchor="middle" x="1061" y="-242.5" font-family="Helvetica,sans-Serif" font-size="10.00">__12dVibration_cFv.s</text>
</a>
</g>
</g>
<!-- Node1&#45;&gt;Node14 -->
<g id="edge18" class="edge">
<title>Node1&#45;&gt;Node14</title>
<path fill="none" stroke="midnightblue" d="M1258.05,-302.48C1223.48,-293.53 1168.26,-279.25 1125.07,-268.07"/>
<polygon fill="midnightblue" stroke="midnightblue" points="1125.76,-264.64 1115.21,-265.52 1124.01,-271.42 1125.76,-264.64"/>
</g>
<!-- Node15 -->
<g id="node15" class="node">
<title>Node15</title>
<g id="a_node15"><a xlink:title=" ">
<polygon fill="white" stroke="#bfbfbf" points="1136,-235.5 1136,-265.5 1282,-265.5 1282,-235.5 1136,-235.5"/>
<text text-anchor="start" x="1144" y="-253.5" font-family="Helvetica,sans-Serif" font-size="10.00">asm/d/d_vibration/StartShock</text>
<text text-anchor="middle" x="1209" y="-242.5" font-family="Helvetica,sans-Serif" font-size="10.00">__12dVibration_cFii4cXyz.s</text>
</a>
</g>
</g>
<!-- Node1&#45;&gt;Node15 -->
<g id="edge19" class="edge">
<title>Node1&#45;&gt;Node15</title>
<path fill="none" stroke="midnightblue" d="M1279.25,-302.48C1268.15,-294.42 1251.07,-282.02 1236.53,-271.47"/>
<polygon fill="midnightblue" stroke="midnightblue" points="1238.48,-268.56 1228.33,-265.52 1234.36,-274.23 1238.48,-268.56"/>
</g>
<!-- Node16 -->
<g id="node16" class="node">
<title>Node16</title>
<g id="a_node16"><a xlink:title=" ">
<polygon fill="white" stroke="#bfbfbf" points="1300,-235.5 1300,-265.5 1446,-265.5 1446,-235.5 1300,-235.5"/>
<text text-anchor="start" x="1308" y="-253.5" font-family="Helvetica,sans-Serif" font-size="10.00">asm/d/d_vibration/StartQuake</text>
<text text-anchor="middle" x="1373" y="-242.5" font-family="Helvetica,sans-Serif" font-size="10.00">__12dVibration_cFii4cXyz.s</text>
</a>
</g>
</g>
<!-- Node1&#45;&gt;Node16 -->
<g id="edge20" class="edge">
<title>Node1&#45;&gt;Node16</title>
<path fill="none" stroke="midnightblue" d="M1302.75,-302.48C1313.85,-294.42 1330.93,-282.02 1345.47,-271.47"/>
<polygon fill="midnightblue" stroke="midnightblue" points="1347.64,-274.23 1353.67,-265.52 1343.52,-268.56 1347.64,-274.23"/>
</g>
<!-- Node17 -->
<g id="node17" class="node">
<title>Node17</title>
<g id="a_node17"><a xlink:title=" ">
<polygon fill="white" stroke="#bfbfbf" points="1464,-235.5 1464,-265.5 1626,-265.5 1626,-235.5 1464,-235.5"/>
<text text-anchor="start" x="1472" y="-253.5" font-family="Helvetica,sans-Serif" font-size="10.00">asm/d/d_vibration/StartQuake</text>
<text text-anchor="middle" x="1545" y="-242.5" font-family="Helvetica,sans-Serif" font-size="10.00">__12dVibration_cFPCUcii4cXyz.s</text>
</a>
</g>
</g>
<!-- Node1&#45;&gt;Node17 -->
<g id="edge21" class="edge">
<title>Node1&#45;&gt;Node17</title>
<path fill="none" stroke="midnightblue" d="M1327.39,-302.48C1365.81,-293.48 1427.31,-279.07 1475.15,-267.86"/>
<polygon fill="midnightblue" stroke="midnightblue" points="1476.2,-271.21 1485.14,-265.52 1474.6,-264.4 1476.2,-271.21"/>
</g>
<!-- Node18 -->
<g id="node18" class="node">
<title>Node18</title>
<g id="a_node18"><a xlink:title=" ">
<polygon fill="white" stroke="#bfbfbf" points="1644,-235.5 1644,-265.5 1790,-265.5 1790,-235.5 1644,-235.5"/>
<text text-anchor="start" x="1652" y="-253.5" font-family="Helvetica,sans-Serif" font-size="10.00">asm/d/d_vibration/StopQuake</text>
<text text-anchor="middle" x="1717" y="-242.5" font-family="Helvetica,sans-Serif" font-size="10.00">__12dVibration_cFi.s</text>
</a>
</g>
</g>
<!-- Node1&#45;&gt;Node18 -->
<g id="edge22" class="edge">
<title>Node1&#45;&gt;Node18</title>
<path fill="none" stroke="midnightblue" d="M1344.73,-304.73C1410.46,-296.89 1525.38,-282.64 1633.6,-266.18"/>
<polygon fill="midnightblue" stroke="midnightblue" points="1634.35,-269.6 1643.71,-264.63 1633.29,-262.68 1634.35,-269.6"/>
</g>
<!-- Node19 -->
<g id="node19" class="node">
<title>Node19</title>
<g id="a_node19"><a xlink:title=" ">
<polygon fill="white" stroke="#bfbfbf" points="1808,-235.5 1808,-265.5 1918,-265.5 1918,-235.5 1808,-235.5"/>
<text text-anchor="start" x="1816" y="-253.5" font-family="Helvetica,sans-Serif" font-size="10.00">asm/d/d_vibration/Kill</text>
<text text-anchor="middle" x="1863" y="-242.5" font-family="Helvetica,sans-Serif" font-size="10.00">__12dVibration_cFv.s</text>
</a>
</g>
</g>
<!-- Node1&#45;&gt;Node19 -->
<g id="edge23" class="edge">
<title>Node1&#45;&gt;Node19</title>
<path fill="none" stroke="midnightblue" d="M1344.68,-308.62C1435.9,-304.06 1627.09,-292.25 1798,-266.01"/>
<polygon fill="midnightblue" stroke="midnightblue" points="1798.59,-269.47 1807.93,-264.47 1797.51,-262.55 1798.59,-269.47"/>
</g>
<!-- Node20 -->
<g id="node20" class="node">
<title>Node20</title>
<g id="a_node20"><a xlink:title=" ">
<polygon fill="white" stroke="#bfbfbf" points="1936.5,-235.5 1936.5,-265.5 2089.5,-265.5 2089.5,-235.5 1936.5,-235.5"/>
<text text-anchor="start" x="1944.5" y="-253.5" font-family="Helvetica,sans-Serif" font-size="10.00">asm/d/d_vibration/CheckQuake</text>
<text text-anchor="middle" x="2013" y="-242.5" font-family="Helvetica,sans-Serif" font-size="10.00">__12dVibration_cFv.s</text>
</a>
</g>
</g>
<!-- Node1&#45;&gt;Node20 -->
<g id="edge24" class="edge">
<title>Node1&#45;&gt;Node20</title>
<path fill="none" stroke="midnightblue" d="M1344.77,-308.95C1452.86,-304.44 1704.36,-292.04 1925.96,-266.04"/>
<polygon fill="midnightblue" stroke="midnightblue" points="1926.64,-269.49 1936.16,-264.83 1925.82,-262.53 1926.64,-269.49"/>
</g>
<!-- Node21 -->
<g id="node21" class="node">
<title>Node21</title>
<g id="a_node21"><a xlink:title=" ">
<polygon fill="white" stroke="#bfbfbf" points="2107.5,-235.5 2107.5,-265.5 2248.5,-265.5 2248.5,-235.5 2107.5,-235.5"/>
<text text-anchor="start" x="2115.5" y="-253.5" font-family="Helvetica,sans-Serif" font-size="10.00">asm/d/d_vibration/setDefault</text>
<text text-anchor="middle" x="2178" y="-242.5" font-family="Helvetica,sans-Serif" font-size="10.00">__12dVibration_cFv.s</text>
</a>
</g>
</g>
<!-- Node1&#45;&gt;Node21 -->
<g id="edge25" class="edge">
<title>Node1&#45;&gt;Node21</title>
<path fill="none" stroke="midnightblue" d="M1344.62,-310.34C1472.99,-308.27 1808.17,-299.9 2097.17,-266.12"/>
<polygon fill="midnightblue" stroke="midnightblue" points="2097.91,-269.56 2107.43,-264.91 2097.09,-262.6 2097.91,-269.56"/>
</g>
<!-- Node22 -->
<g id="node22" class="node">
<title>Node22</title>
<g id="a_node22"><a xlink:title=" ">
<polygon fill="white" stroke="#bfbfbf" points="2267,-235.5 2267,-265.5 2377,-265.5 2377,-235.5 2267,-235.5"/>
<text text-anchor="start" x="2275" y="-253.5" font-family="Helvetica,sans-Serif" font-size="10.00">asm/d/d_vibration/Init</text>
<text text-anchor="middle" x="2322" y="-242.5" font-family="Helvetica,sans-Serif" font-size="10.00">__12dVibration_cFv.s</text>
</a>
</g>
</g>
<!-- Node1&#45;&gt;Node22 -->
<g id="edge26" class="edge">
<title>Node1&#45;&gt;Node22</title>
<path fill="none" stroke="midnightblue" d="M1344.61,-309.75C1517.54,-305.53 2060.29,-290.73 2257.01,-265.92"/>
<polygon fill="midnightblue" stroke="midnightblue" points="2257.49,-269.39 2266.95,-264.62 2256.58,-262.45 2257.49,-269.39"/>
</g>
<!-- Node23 -->
<g id="node23" class="node">
<title>Node23</title>
<g id="a_node23"><a xlink:title=" ">
<polygon fill="white" stroke="#bfbfbf" points="2395.5,-235.5 2395.5,-265.5 2520.5,-265.5 2520.5,-235.5 2395.5,-235.5"/>
<text text-anchor="start" x="2403.5" y="-253.5" font-family="Helvetica,sans-Serif" font-size="10.00">asm/d/d_vibration/Pause</text>
<text text-anchor="middle" x="2458" y="-242.5" font-family="Helvetica,sans-Serif" font-size="10.00">__12dVibration_cFv.s</text>
</a>
</g>
</g>
<!-- Node1&#45;&gt;Node23 -->
<g id="edge27" class="edge">
<title>Node1&#45;&gt;Node23</title>
<path fill="none" stroke="midnightblue" d="M1344.57,-309.92C1532.4,-305.95 2161.37,-291.18 2385.23,-265.91"/>
<polygon fill="midnightblue" stroke="midnightblue" points="2385.74,-269.38 2395.27,-264.74 2384.93,-262.42 2385.74,-269.38"/>
</g>
<!-- Node24 -->
<g id="node24" class="node">
<title>Node24</title>
<g id="a_node24"><a xlink:title=" ">
<polygon fill="white" stroke="#bfbfbf" points="2538.5,-235.5 2538.5,-265.5 2671.5,-265.5 2671.5,-235.5 2538.5,-235.5"/>
<text text-anchor="start" x="2546.5" y="-253.5" font-family="Helvetica,sans-Serif" font-size="10.00">asm/d/d_vibration/Remove</text>
<text text-anchor="middle" x="2605" y="-242.5" font-family="Helvetica,sans-Serif" font-size="10.00">__12dVibration_cFv.s</text>
</a>
</g>
</g>
<!-- Node1&#45;&gt;Node24 -->
<g id="edge28" class="edge">
<title>Node1&#45;&gt;Node24</title>
<path fill="none" stroke="midnightblue" d="M1344.71,-310.16C1548.52,-306.78 2274.92,-293.18 2528.17,-266.06"/>
<polygon fill="midnightblue" stroke="midnightblue" points="2528.87,-269.5 2538.43,-264.92 2528.1,-262.55 2528.87,-269.5"/>
</g>
<!-- Node3 -->
<g id="node3" class="node">
<title>Node3</title>
<g id="a_node3"><a xlink:href="d__save_8h.html" target="_top" xlink:title=" ">
<polygon fill="white" stroke="black" points="175,-179.5 175,-198.5 263,-198.5 263,-179.5 175,-179.5"/>
<text text-anchor="middle" x="219" y="-186.5" font-family="Helvetica,sans-Serif" font-size="10.00">d/save/d_save.h</text>
</a>
</g>
</g>
<!-- Node2&#45;&gt;Node3 -->
<g id="edge2" class="edge">
<title>Node2&#45;&gt;Node3</title>
<path fill="none" stroke="midnightblue" d="M281.54,-240.98C270.05,-231.61 251.37,-216.38 237.41,-205.01"/>
<polygon fill="midnightblue" stroke="midnightblue" points="239.4,-202.11 229.44,-198.51 234.98,-207.54 239.4,-202.11"/>
</g>
<!-- Node2&#45;&gt;Node6 -->
<g id="edge11" class="edge">
<title>Node2&#45;&gt;Node6</title>
<path fill="none" stroke="midnightblue" d="M295.09,-240.81C302.49,-218.61 319.42,-158.27 303,-112 290.39,-76.45 259.34,-44.31 239.27,-26.25"/>
<polygon fill="midnightblue" stroke="midnightblue" points="241.51,-23.56 231.68,-19.61 236.91,-28.83 241.51,-23.56"/>
</g>
<!-- Node4 -->
<g id="node4" class="node">
<title>Node4</title>
<g id="a_node4"><a xlink:href="c__xyz_8h.html" target="_top" xlink:title=" ">
<polygon fill="white" stroke="black" points="44,-112.5 44,-142.5 160,-142.5 160,-112.5 44,-112.5"/>
<text text-anchor="start" x="52" y="-130.5" font-family="Helvetica,sans-Serif" font-size="10.00">SSystem/SComponent</text>
<text text-anchor="middle" x="102" y="-119.5" font-family="Helvetica,sans-Serif" font-size="10.00">/c_xyz.h</text>
</a>
</g>
</g>
<!-- Node3&#45;&gt;Node4 -->
<g id="edge3" class="edge">
<title>Node3&#45;&gt;Node4</title>
<path fill="none" stroke="midnightblue" d="M202.24,-179.48C185.72,-171.08 159.95,-157.97 138.68,-147.15"/>
<polygon fill="midnightblue" stroke="midnightblue" points="140.07,-143.94 129.57,-142.52 136.9,-150.18 140.07,-143.94"/>
</g>
<!-- Node3&#45;&gt;Node6 -->
<g id="edge8" class="edge">
<title>Node3&#45;&gt;Node6</title>
<path fill="none" stroke="midnightblue" d="M216.27,-179.49C213.55,-170.52 209.56,-155.94 208,-143 203.13,-102.57 211.19,-55.01 216.64,-29.46"/>
<polygon fill="midnightblue" stroke="midnightblue" points="220.07,-30.19 218.84,-19.66 213.24,-28.65 220.07,-30.19"/>
</g>
<!-- Node8 -->
<g id="node8" class="node">
<title>Node8</title>
<g id="a_node8"><a xlink:href="msl__c_2string_8h.html" target="_top" xlink:title=" ">
<polygon fill="white" stroke="black" points="216.5,-118 216.5,-137 293.5,-137 293.5,-118 216.5,-118"/>
<text text-anchor="middle" x="255" y="-125" font-family="Helvetica,sans-Serif" font-size="10.00">msl_c/string.h</text>
</a>
</g>
</g>
<!-- Node3&#45;&gt;Node8 -->
<g id="edge9" class="edge">
<title>Node3&#45;&gt;Node8</title>
<path fill="none" stroke="midnightblue" d="M224.16,-179.48C229.45,-170.73 237.84,-156.87 244.53,-145.81"/>
<polygon fill="midnightblue" stroke="midnightblue" points="247.67,-147.38 249.85,-137.01 241.68,-143.75 247.67,-147.38"/>
</g>
<!-- Node5 -->
<g id="node5" class="node">
<title>Node5</title>
<g id="a_node5"><a xlink:href="vec_8h.html" target="_top" xlink:title=" ">
<polygon fill="white" stroke="black" points="0,-56.5 0,-75.5 92,-75.5 92,-56.5 0,-56.5"/>
<text text-anchor="middle" x="46" y="-63.5" font-family="Helvetica,sans-Serif" font-size="10.00">dolphin/mtx/vec.h</text>
</a>
</g>
</g>
<!-- Node4&#45;&gt;Node5 -->
<g id="edge4" class="edge">
<title>Node4&#45;&gt;Node5</title>
<path fill="none" stroke="midnightblue" d="M88.73,-112.4C80.42,-103.58 69.7,-92.18 61.08,-83.02"/>
<polygon fill="midnightblue" stroke="midnightblue" points="63.55,-80.54 54.15,-75.66 58.45,-85.34 63.55,-80.54"/>
</g>
<!-- Node7 -->
<g id="node7" class="node">
<title>Node7</title>
<g id="a_node7"><a xlink:href="global_8h.html" target="_top" xlink:title=" ">
<polygon fill="white" stroke="black" points="110,-56.5 110,-75.5 160,-75.5 160,-56.5 110,-56.5"/>
<text text-anchor="middle" x="135" y="-63.5" font-family="Helvetica,sans-Serif" font-size="10.00">global.h</text>
</a>
</g>
</g>
<!-- Node4&#45;&gt;Node7 -->
<g id="edge6" class="edge">
<title>Node4&#45;&gt;Node7</title>
<path fill="none" stroke="midnightblue" d="M109.82,-112.4C114.47,-104.02 120.4,-93.33 125.34,-84.42"/>
<polygon fill="midnightblue" stroke="midnightblue" points="128.41,-86.1 130.2,-75.66 122.29,-82.71 128.41,-86.1"/>
</g>
<!-- Node5&#45;&gt;Node6 -->
<g id="edge5" class="edge">
<title>Node5&#45;&gt;Node6</title>
<path fill="none" stroke="midnightblue" d="M73.73,-56.44C103.43,-47.28 150.72,-32.69 183.67,-22.52"/>
<polygon fill="midnightblue" stroke="midnightblue" points="184.88,-25.81 193.4,-19.52 182.81,-19.12 184.88,-25.81"/>
</g>
<!-- Node7&#45;&gt;Node6 -->
<g id="edge7" class="edge">
<title>Node7&#45;&gt;Node6</title>
<path fill="none" stroke="midnightblue" d="M148.82,-56.32C162.23,-47.9 182.82,-34.97 198.59,-25.07"/>
<polygon fill="midnightblue" stroke="midnightblue" points="200.61,-27.94 207.22,-19.65 196.89,-22.01 200.61,-27.94"/>
</g>
<!-- Node8&#45;&gt;Node6 -->
<g id="edge10" class="edge">
<title>Node8&#45;&gt;Node6</title>
<path fill="none" stroke="midnightblue" d="M252.44,-117.82C246.96,-99.17 233.94,-54.94 226.48,-29.63"/>
<polygon fill="midnightblue" stroke="midnightblue" points="229.77,-28.39 223.59,-19.78 223.05,-30.36 229.77,-28.39"/>
</g>
</g>
</svg>
        <g id="navigator" transform="translate(0 0)" fill="#404254">
                <rect fill="#f2f5e9" fill-opacity="0.5" stroke="#606060" stroke-width=".5" x="0" y="0" width="60" height="60"/>
                <use id="zoomplus" xlink:href="#zoomPlus" x="17" y="9" onmousedown="handleZoom(evt,'in')"/>
                <use id="zoomminus" xlink:href="#zoomMin" x="42" y="9" onmousedown="handleZoom(evt,'out')"/>
                <use id="reset" xlink:href="#resetDef" x="30" y="36" onmousedown="handleReset()"/>
                <g id="arrowUp" xlink:href="#dirArrow" transform="translate(30 24)" onmousedown="handlePan(0,-1)">
                  <use xlink:href="#rim" fill="#404040">
                        <set attributeName="fill" to="#808080" begin="arrowUp.mouseover" end="arrowUp.mouseout"/>
                  </use>
                  <path fill="none" stroke="white" stroke-width="1.5" d="M0,-3.0v7 M-2.5,-0.5L0,-3.0L2.5,-0.5"/>
                </g>
                <g id="arrowRight" xlink:href="#dirArrow" transform="rotate(90) translate(36 -43)" onmousedown="handlePan(1,0)">
                  <use xlink:href="#rim" fill="#404040">
                        <set attributeName="fill" to="#808080" begin="arrowRight.mouseover" end="arrowRight.mouseout"/>
                  </use>
                  <path fill="none" stroke="white" stroke-width="1.5" d="M0,-3.0v7 M-2.5,-0.5L0,-3.0L2.5,-0.5"/>
                </g>
                <g id="arrowDown" xlink:href="#dirArrow" transform="rotate(180) translate(-30 -48)" onmousedown="handlePan(0,1)">
                  <use xlink:href="#rim" fill="#404040">
                        <set attributeName="fill" to="#808080" begin="arrowDown.mouseover" end="arrowDown.mouseout"/>
                  </use>
                  <path fill="none" stroke="white" stroke-width="1.5" d="M0,-3.0v7 M-2.5,-0.5L0,-3.0L2.5,-0.5"/>
                </g>
                <g id="arrowLeft" xlink:href="#dirArrow" transform="rotate(270) translate(-36 17)" onmousedown="handlePan(-1,0)">
                  <use xlink:href="#rim" fill="#404040">
                        <set attributeName="fill" to="#808080" begin="arrowLeft.mouseover" end="arrowLeft.mouseout"/>
                  </use>
                  <path fill="none" stroke="white" stroke-width="1.5" d="M0,-3.0v7 M-2.5,-0.5L0,-3.0L2.5,-0.5"/>
                </g>
        </g>
        <svg viewBox="0 0 15 15" width="100%" height="30px" preserveAspectRatio="xMaxYMin meet">
         <g id="arrow_out" transform="scale(0.3 0.3)">
          <a xlink:href="d__vibration_8cpp__incl_org.svg" target="_base">
           <rect id="button" ry="5" rx="5" y="6" x="6" height="38" width="38"
                fill="#f2f5e9" fill-opacity="0.5" stroke="#606060" stroke-width="1.0"/>
           <path id="arrow"
             d="M 11.500037,31.436501 C 11.940474,20.09759 22.043105,11.32322 32.158766,21.979434 L 37.068811,17.246167 C 37.068811,17.246167 37.088388,32 37.088388,32 L 22.160133,31.978069 C 22.160133,31.978069 26.997745,27.140456 26.997745,27.140456 C 18.528582,18.264221 13.291696,25.230495 11.500037,31.436501 z"
             style="fill:#404040;"/>
          </a>
         </g>
        </svg>
</svg>
