<?xml version="1.0" encoding="UTF-8" standalone="no"?>
<!DOCTYPE svg PUBLIC "-//W3C//DTD SVG 1.1//EN"
 "http://www.w3.org/Graphics/SVG/1.1/DTD/svg11.dtd">
<!-- Generated by graphviz version 2.44.0 ()
 -->
<!-- Title: include/JSystem/JUtility Pages: 1 -->
<svg width="189pt" height="295pt"
 viewBox="0.00 0.00 189.40 295.00" xmlns="http://www.w3.org/2000/svg" xmlns:xlink="http://www.w3.org/1999/xlink">
<g id="graph0" class="graph" transform="scale(1 1) rotate(0) translate(4 291)">
<title>include/JSystem/JUtility</title>
<polygon fill="white" stroke="transparent" points="-4,4 -4,-291 185.4,-291 185.4,4 -4,4"/>
<g id="clust1" class="cluster">
<title>clusterdir_4f0979a7f5e3194619cde56505e372d8</title>
<g id="a_clust1"><a xlink:href="dir_4f0979a7f5e3194619cde56505e372d8.html" target="_top" xlink:title="JSystem">
<polygon fill="#ddddee" stroke="black" points="8,-64 8,-279 172,-279 172,-64 8,-64"/>
<text text-anchor="middle" x="90" y="-267" font-family="Helvetica,sans-Serif" font-size="10.00">JSystem</text>
</a>
</g>
</g>
<!-- dir_2adf73cd42e23ea1cf49f138568984bb -->
<g id="node1" class="node">
<title>dir_2adf73cd42e23ea1cf49f138568984bb</title>
<g id="a_node1"><a xlink:href="dir_2adf73cd42e23ea1cf49f138568984bb.html" target="_top" xlink:title="JGadget">
<polygon fill="none" stroke="black" points="164,-180 110,-180 110,-144 164,-144 164,-180"/>
<text text-anchor="middle" x="137" y="-159.5" font-family="Helvetica,sans-Serif" font-size="10.00">JGadget</text>
</a>
</g>
</g>
<!-- dir_b778c3f297ab88300258a2935792c8cc -->
<g id="node5" class="node">
<title>dir_b778c3f297ab88300258a2935792c8cc</title>
<g id="a_node5"><a xlink:href="dir_b778c3f297ab88300258a2935792c8cc.html" target="_top" xlink:title="dolphin">
<polygon fill="white" stroke="red" points="153,-36 99,-36 99,0 153,0 153,-36"/>
<text text-anchor="middle" x="126" y="-15.5" font-family="Helvetica,sans-Serif" font-size="10.00">dolphin</text>
</a>
</g>
</g>
<!-- dir_2adf73cd42e23ea1cf49f138568984bb&#45;&gt;dir_b778c3f297ab88300258a2935792c8cc -->
<g id="edge1" class="edge">
<title>dir_2adf73cd42e23ea1cf49f138568984bb&#45;&gt;dir_b778c3f297ab88300258a2935792c8cc</title>
<path fill="none" stroke="black" d="M135.67,-143.87C133.8,-119.67 130.35,-75.21 128.12,-46.39"/>
<polygon fill="black" stroke="black" points="131.59,-45.89 127.33,-36.19 124.61,-46.43 131.59,-45.89"/>
<g id="a_edge1&#45;headlabel"><a xlink:href="dir_000053_000025.html" target="_top" xlink:title="3">
<text text-anchor="middle" x="134.7" y="-46.75" font-family="Helvetica,sans-Serif" font-size="10.00">3</text>
</a>
</g>
</g>
<!-- dir_45593f23b58a9cb34ecfe1ccd7e4e81f -->
<g id="node2" class="node">
<title>dir_45593f23b58a9cb34ecfe1ccd7e4e81f</title>
<g id="a_node2"><a xlink:href="dir_45593f23b58a9cb34ecfe1ccd7e4e81f.html" target="_top" xlink:title="JSupport">
<polygon fill="none" stroke="black" points="92,-180 36,-180 36,-144 92,-144 92,-180"/>
<text text-anchor="middle" x="64" y="-159.5" font-family="Helvetica,sans-Serif" font-size="10.00">JSupport</text>
</a>
</g>
</g>
<!-- dir_cd1009b6de6f257cf504091b6f95eba2 -->
<g id="node3" class="node">
<title>dir_cd1009b6de6f257cf504091b6f95eba2</title>
<g id="a_node3"><a xlink:href="dir_cd1009b6de6f257cf504091b6f95eba2.html" target="_top" xlink:title="JKernel">
<polygon fill="none" stroke="black" points="79,-108 25,-108 25,-72 79,-72 79,-108"/>
<text text-anchor="middle" x="52" y="-87.5" font-family="Helvetica,sans-Serif" font-size="10.00">JKernel</text>
</a>
</g>
</g>
<!-- dir_45593f23b58a9cb34ecfe1ccd7e4e81f&#45;&gt;dir_cd1009b6de6f257cf504091b6f95eba2 -->
<g id="edge3" class="edge">
<title>dir_45593f23b58a9cb34ecfe1ccd7e4e81f&#45;&gt;dir_cd1009b6de6f257cf504091b6f95eba2</title>
<path fill="none" stroke="black" d="M55.12,-143.7C53,-135.98 51.18,-126.71 50.05,-118.11"/>
<polygon fill="black" stroke="black" points="53.53,-117.7 49.04,-108.1 46.56,-118.41 53.53,-117.7"/>
<g id="a_edge3&#45;headlabel"><a xlink:href="dir_000064_000054.html" target="_top" xlink:title="1">
<text text-anchor="middle" x="56.72" y="-118.49" font-family="Helvetica,sans-Serif" font-size="10.00">1</text>
</a>
</g>
</g>
<!-- dir_45593f23b58a9cb34ecfe1ccd7e4e81f&#45;&gt;dir_b778c3f297ab88300258a2935792c8cc -->
<g id="edge2" class="edge">
<title>dir_45593f23b58a9cb34ecfe1ccd7e4e81f&#45;&gt;dir_b778c3f297ab88300258a2935792c8cc</title>
<path fill="none" stroke="black" d="M71.88,-143.86C76.61,-133.5 82.71,-120.02 88,-108 97.16,-87.17 107.26,-63.48 114.75,-45.77"/>
<polygon fill="black" stroke="black" points="118.16,-46.68 118.82,-36.11 111.71,-43.96 118.16,-46.68"/>
<g id="a_edge2&#45;headlabel"><a xlink:href="dir_000064_000025.html" target="_top" xlink:title="6">
<text text-anchor="middle" x="119.38" y="-48.6" font-family="Helvetica,sans-Serif" font-size="10.00">6</text>
</a>
</g>
</g>
<!-- dir_cd1009b6de6f257cf504091b6f95eba2&#45;&gt;dir_45593f23b58a9cb34ecfe1ccd7e4e81f -->
<g id="edge4" class="edge">
<title>dir_cd1009b6de6f257cf504091b6f95eba2&#45;&gt;dir_45593f23b58a9cb34ecfe1ccd7e4e81f</title>
<path fill="none" stroke="black" d="M60.83,-108.1C62.95,-115.79 64.77,-125.05 65.92,-133.67"/>
<polygon fill="black" stroke="black" points="62.44,-134.11 66.95,-143.7 69.41,-133.39 62.44,-134.11"/>
<g id="a_edge4&#45;headlabel"><a xlink:href="dir_000054_000064.html" target="_top" xlink:title="8">
<text text-anchor="middle" x="59.25" y="-128.32" font-family="Helvetica,sans-Serif" font-size="10.00">8</text>
</a>
</g>
</g>
<!-- dir_cd1009b6de6f257cf504091b6f95eba2&#45;&gt;dir_b778c3f297ab88300258a2935792c8cc -->
<g id="edge5" class="edge">
<title>dir_cd1009b6de6f257cf504091b6f95eba2&#45;&gt;dir_b778c3f297ab88300258a2935792c8cc</title>
<path fill="none" stroke="black" d="M70.29,-71.7C79.43,-63.05 90.64,-52.45 100.6,-43.03"/>
<polygon fill="black" stroke="black" points="103.06,-45.52 107.92,-36.1 98.25,-40.43 103.06,-45.52"/>
<g id="a_edge5&#45;headlabel"><a xlink:href="dir_000054_000025.html" target="_top" xlink:title="33">
<text text-anchor="middle" x="102.4" y="-47.55" font-family="Helvetica,sans-Serif" font-size="10.00">33</text>
</a>
</g>
</g>
<!-- dir_25682d7fe27d5da48e7af3ae8c2abb7f -->
<g id="node4" class="node">
<title>dir_25682d7fe27d5da48e7af3ae8c2abb7f</title>
<g id="a_node4"><a xlink:href="dir_25682d7fe27d5da48e7af3ae8c2abb7f.html" target="_top" xlink:title="JUtility">
<polygon fill="#eeeeff" stroke="black" points="127,-252 73,-252 73,-216 127,-216 127,-252"/>
<text text-anchor="middle" x="100" y="-231.5" font-family="Helvetica,sans-Serif" font-size="10.00">JUtility</text>
</a>
</g>
</g>
<!-- dir_25682d7fe27d5da48e7af3ae8c2abb7f&#45;&gt;dir_2adf73cd42e23ea1cf49f138568984bb -->
<g id="edge6" class="edge">
<title>dir_25682d7fe27d5da48e7af3ae8c2abb7f&#45;&gt;dir_2adf73cd42e23ea1cf49f138568984bb</title>
<path fill="none" stroke="black" d="M109.15,-215.7C113.4,-207.64 118.56,-197.89 123.27,-188.98"/>
<polygon fill="black" stroke="black" points="126.38,-190.58 127.96,-180.1 120.19,-187.31 126.38,-190.58"/>
<g id="a_edge6&#45;headlabel"><a xlink:href="dir_000065_000053.html" target="_top" xlink:title="1">
<text text-anchor="middle" x="127.21" y="-192.59" font-family="Helvetica,sans-Serif" font-size="10.00">1</text>
</a>
</g>
</g>
<!-- dir_25682d7fe27d5da48e7af3ae8c2abb7f&#45;&gt;dir_45593f23b58a9cb34ecfe1ccd7e4e81f -->
<g id="edge7" class="edge">
<title>dir_25682d7fe27d5da48e7af3ae8c2abb7f&#45;&gt;dir_45593f23b58a9cb34ecfe1ccd7e4e81f</title>
<path fill="none" stroke="black" d="M91.1,-215.7C87,-207.73 82.05,-198.1 77.51,-189.26"/>
<polygon fill="black" stroke="black" points="80.48,-187.4 72.8,-180.1 74.26,-190.6 80.48,-187.4"/>
<g id="a_edge7&#45;headlabel"><a xlink:href="dir_000065_000064.html" target="_top" xlink:title="1">
<text text-anchor="middle" x="84.65" y="-186.79" font-family="Helvetica,sans-Serif" font-size="10.00">1</text>
</a>
</g>
</g>
<!-- dir_25682d7fe27d5da48e7af3ae8c2abb7f&#45;&gt;dir_cd1009b6de6f257cf504091b6f95eba2 -->
<g id="edge9" class="edge">
<title>dir_25682d7fe27d5da48e7af3ae8c2abb7f&#45;&gt;dir_cd1009b6de6f257cf504091b6f95eba2</title>
<path fill="none" stroke="black" d="M72.93,-221.3C56.38,-212.55 36.6,-198.84 27,-180 16.77,-159.94 25.27,-135.14 35.03,-116.81"/>
<polygon fill="black" stroke="black" points="38.07,-118.55 40,-108.14 31.99,-115.07 38.07,-118.55"/>
<g id="a_edge9&#45;headlabel"><a xlink:href="dir_000065_000054.html" target="_top" xlink:title="6">
<text text-anchor="middle" x="38.74" y="-120.58" font-family="Helvetica,sans-Serif" font-size="10.00">6</text>
</a>
</g>
</g>
<!-- dir_25682d7fe27d5da48e7af3ae8c2abb7f&#45;&gt;dir_b778c3f297ab88300258a2935792c8cc -->
<g id="edge8" class="edge">
<title>dir_25682d7fe27d5da48e7af3ae8c2abb7f&#45;&gt;dir_b778c3f297ab88300258a2935792c8cc</title>
<path fill="none" stroke="black" d="M127.07,-221.3C143.62,-212.55 163.4,-198.84 173,-180 195.84,-135.18 166.45,-77.53 144.92,-44.78"/>
<polygon fill="black" stroke="black" points="147.63,-42.54 139.11,-36.24 141.84,-46.47 147.63,-42.54"/>
<g id="a_edge8&#45;headlabel"><a xlink:href="dir_000065_000025.html" target="_top" xlink:title="29">
<text text-anchor="middle" x="152" y="-41.41" font-family="Helvetica,sans-Serif" font-size="10.00">29</text>
</a>
</g>
</g>
</g>
</svg>
