<?xml version="1.0" encoding="UTF-8" standalone="no"?>
<!DOCTYPE svg PUBLIC "-//W3C//DTD SVG 1.1//EN"
 "http://www.w3.org/Graphics/SVG/1.1/DTD/svg11.dtd">
<!-- Generated by graphviz version 2.44.0 ()
 -->
<!-- Title: include/JSystem Pages: 1 -->
<svg width="1345pt" height="391pt"
 viewBox="0.00 0.00 1345.00 391.00" xmlns="http://www.w3.org/2000/svg" xmlns:xlink="http://www.w3.org/1999/xlink">
<g id="graph0" class="graph" transform="scale(1 1) rotate(0) translate(4 387)">
<title>include/JSystem</title>
<polygon fill="white" stroke="transparent" points="-4,4 -4,-387 1341,-387 1341,4 -4,4"/>
<g id="clust1" class="cluster">
<title>clusterdir_d44c64559bbebec7f509842c48db8b23</title>
<g id="a_clust1"><a xlink:href="dir_d44c64559bbebec7f509842c48db8b23.html" target="_top" xlink:title="include">
<polygon fill="#ddddee" stroke="black" points="8,-8 8,-375 1329,-375 1329,-8 8,-8"/>
<text text-anchor="middle" x="668.5" y="-363" font-family="Helvetica,sans-Serif" font-size="10.00">include</text>
</a>
</g>
</g>
<g id="clust2" class="cluster">
<title>clusterdir_4f0979a7f5e3194619cde56505e372d8</title>
<g id="a_clust2"><a xlink:href="dir_4f0979a7f5e3194619cde56505e372d8.html" target="_top">
<polygon fill="#eeeeff" stroke="black" points="16,-80 16,-348 1097,-348 1097,-80 16,-80"/>
</a>
</g>
</g>
<!-- dir_54283da8a0cf1311a88c964d76512876 -->
<g id="node1" class="node">
<title>dir_54283da8a0cf1311a88c964d76512876</title>
<g id="a_node1"><a xlink:href="dir_54283da8a0cf1311a88c964d76512876.html" target="_top" xlink:title="SSystem">
<polygon fill="white" stroke="red" points="1161,-268 1105,-268 1105,-232 1161,-232 1161,-268"/>
<text text-anchor="middle" x="1133" y="-247.5" font-family="Helvetica,sans-Serif" font-size="10.00">SSystem</text>
</a>
</g>
</g>
<!-- dir_b778c3f297ab88300258a2935792c8cc -->
<g id="node2" class="node">
<title>dir_b778c3f297ab88300258a2935792c8cc</title>
<g id="a_node2"><a xlink:href="dir_b778c3f297ab88300258a2935792c8cc.html" target="_top" xlink:title="dolphin">
<polygon fill="white" stroke="red" points="1159,-124 1105,-124 1105,-88 1159,-88 1159,-124"/>
<text text-anchor="middle" x="1132" y="-103.5" font-family="Helvetica,sans-Serif" font-size="10.00">dolphin</text>
</a>
</g>
</g>
<!-- dir_54283da8a0cf1311a88c964d76512876&#45;&gt;dir_b778c3f297ab88300258a2935792c8cc -->
<g id="edge19" class="edge">
<title>dir_54283da8a0cf1311a88c964d76512876&#45;&gt;dir_b778c3f297ab88300258a2935792c8cc</title>
<path fill="none" stroke="black" d="M1132.88,-231.87C1132.71,-207.67 1132.4,-163.21 1132.19,-134.39"/>
<polygon fill="black" stroke="black" points="1135.69,-134.16 1132.12,-124.19 1128.69,-134.21 1135.69,-134.16"/>
<g id="a_edge19&#45;headlabel"><a xlink:href="dir_001623_000025.html" target="_top" xlink:title="40">
<text text-anchor="middle" x="1138.56" y="-135.24" font-family="Helvetica,sans-Serif" font-size="10.00">40</text>
</a>
</g>
</g>
<!-- dir_cd1009b6de6f257cf504091b6f95eba2 -->
<g id="node13" class="node">
<title>dir_cd1009b6de6f257cf504091b6f95eba2</title>
<g id="a_node13"><a xlink:href="dir_cd1009b6de6f257cf504091b6f95eba2.html" target="_top" xlink:title="JKernel">
<polygon fill="white" stroke="black" points="352,-196 298,-196 298,-160 352,-160 352,-196"/>
<text text-anchor="middle" x="325" y="-175.5" font-family="Helvetica,sans-Serif" font-size="10.00">JKernel</text>
</a>
</g>
</g>
<!-- dir_54283da8a0cf1311a88c964d76512876&#45;&gt;dir_cd1009b6de6f257cf504091b6f95eba2 -->
<g id="edge20" class="edge">
<title>dir_54283da8a0cf1311a88c964d76512876&#45;&gt;dir_cd1009b6de6f257cf504091b6f95eba2</title>
<path fill="none" stroke="black" d="M1104.65,-233.15C1103.43,-232.72 1102.21,-232.33 1101,-232 784.64,-145.02 677.25,-283.11 361.96,-197.46"/>
<polygon fill="black" stroke="black" points="362.67,-194.02 352.09,-194.73 360.8,-200.77 362.67,-194.02"/>
<g id="a_edge20&#45;headlabel"><a xlink:href="dir_001623_000054.html" target="_top" xlink:title="1">
<text text-anchor="middle" x="366.89" y="-189.75" font-family="Helvetica,sans-Serif" font-size="10.00">1</text>
</a>
</g>
</g>
<!-- dir_745c4d827b885b106b58a37f86b4723a -->
<g id="node14" class="node">
<title>dir_745c4d827b885b106b58a37f86b4723a</title>
<g id="a_node14"><a xlink:href="dir_745c4d827b885b106b58a37f86b4723a.html" target="_top" xlink:title="JMath">
<polygon fill="white" stroke="black" points="318,-340 264,-340 264,-304 318,-304 318,-340"/>
<text text-anchor="middle" x="291" y="-319.5" font-family="Helvetica,sans-Serif" font-size="10.00">JMath</text>
</a>
</g>
</g>
<!-- dir_54283da8a0cf1311a88c964d76512876&#45;&gt;dir_745c4d827b885b106b58a37f86b4723a -->
<g id="edge18" class="edge">
<title>dir_54283da8a0cf1311a88c964d76512876&#45;&gt;dir_745c4d827b885b106b58a37f86b4723a</title>
<path fill="none" stroke="black" d="M1104.65,-266.86C1103.43,-267.28 1102.21,-267.67 1101,-268 769.3,-358.89 662.18,-222.71 328,-304 327.9,-304.03 327.79,-304.05 327.69,-304.08"/>
<polygon fill="black" stroke="black" points="326.51,-300.78 318.06,-307.16 328.65,-307.44 326.51,-300.78"/>
<g id="a_edge18&#45;headlabel"><a xlink:href="dir_001623_000055.html" target="_top" xlink:title="1">
<text text-anchor="middle" x="329.07" y="-294.48" font-family="Helvetica,sans-Serif" font-size="10.00">1</text>
</a>
</g>
</g>
<!-- dir_6141ad2e1396b1970c524b101e645d67 -->
<g id="node3" class="node">
<title>dir_6141ad2e1396b1970c524b101e645d67</title>
<g id="a_node3"><a xlink:href="dir_6141ad2e1396b1970c524b101e645d67.html" target="_top" xlink:title="Runtime.PPCEABI.H">
<polygon fill="none" stroke="black" points="1185.5,-52 1078.5,-52 1078.5,-16 1185.5,-16 1185.5,-52"/>
<text text-anchor="middle" x="1132" y="-31.5" font-family="Helvetica,sans-Serif" font-size="10.00">Runtime.PPCEABI.H</text>
</a>
</g>
</g>
<!-- dir_b778c3f297ab88300258a2935792c8cc&#45;&gt;dir_6141ad2e1396b1970c524b101e645d67 -->
<g id="edge2" class="edge">
<title>dir_b778c3f297ab88300258a2935792c8cc&#45;&gt;dir_6141ad2e1396b1970c524b101e645d67</title>
<path fill="none" stroke="black" d="M1126.08,-87.7C1125.29,-79.98 1125.06,-70.71 1125.4,-62.11"/>
<polygon fill="black" stroke="black" points="1128.9,-62.32 1126.1,-52.1 1121.92,-61.84 1128.9,-62.32"/>
<g id="a_edge2&#45;headlabel"><a xlink:href="dir_000025_001622.html" target="_top" xlink:title="1">
<text text-anchor="middle" x="1131.48" y="-63.61" font-family="Helvetica,sans-Serif" font-size="10.00">1</text>
</a>
</g>
</g>
<!-- dir_6141ad2e1396b1970c524b101e645d67&#45;&gt;dir_b778c3f297ab88300258a2935792c8cc -->
<g id="edge26" class="edge">
<title>dir_6141ad2e1396b1970c524b101e645d67&#45;&gt;dir_b778c3f297ab88300258a2935792c8cc</title>
<path fill="none" stroke="black" d="M1137.9,-52.1C1138.7,-59.79 1138.94,-69.05 1138.6,-77.67"/>
<polygon fill="black" stroke="black" points="1135.11,-77.48 1137.92,-87.7 1142.09,-77.96 1135.11,-77.48"/>
<g id="a_edge26&#45;headlabel"><a xlink:href="dir_001622_000025.html" target="_top" xlink:title="9">
<text text-anchor="middle" x="1132.52" y="-71.2" font-family="Helvetica,sans-Serif" font-size="10.00">9</text>
</a>
</g>
</g>
<!-- dir_4f0979a7f5e3194619cde56505e372d8 -->
<g id="node4" class="node">
<title>dir_4f0979a7f5e3194619cde56505e372d8</title>
<text text-anchor="middle" x="1061" y="-319.5" font-family="Helvetica,sans-Serif" font-size="10.00">JSystem</text>
</g>
<!-- dir_a9517e75d808b51ad9f5947a3cea1d31 -->
<g id="node5" class="node">
<title>dir_a9517e75d808b51ad9f5947a3cea1d31</title>
<g id="a_node5"><a xlink:href="dir_a9517e75d808b51ad9f5947a3cea1d31.html" target="_top" xlink:title="J2DGraph">
<polygon fill="white" stroke="black" points="156,-340 96,-340 96,-304 156,-304 156,-340"/>
<text text-anchor="middle" x="126" y="-319.5" font-family="Helvetica,sans-Serif" font-size="10.00">J2DGraph</text>
</a>
</g>
</g>
<!-- dir_a9517e75d808b51ad9f5947a3cea1d31&#45;&gt;dir_b778c3f297ab88300258a2935792c8cc -->
<g id="edge7" class="edge">
<title>dir_a9517e75d808b51ad9f5947a3cea1d31&#45;&gt;dir_b778c3f297ab88300258a2935792c8cc</title>
<path fill="none" stroke="black" d="M156.3,-306.56C159.19,-305.56 162.12,-304.68 165,-304 319.66,-267.67 727.63,-316.25 879,-268 902.98,-260.36 1035.13,-172.37 1098.32,-129.8"/>
<polygon fill="black" stroke="black" points="1100.43,-132.6 1106.76,-124.11 1096.51,-126.8 1100.43,-132.6"/>
<g id="a_edge7&#45;headlabel"><a xlink:href="dir_000046_000025.html" target="_top" xlink:title="21">
<text text-anchor="middle" x="1099.03" y="-134.46" font-family="Helvetica,sans-Serif" font-size="10.00">21</text>
</a>
</g>
</g>
<!-- dir_a9517e75d808b51ad9f5947a3cea1d31&#45;&gt;dir_cd1009b6de6f257cf504091b6f95eba2 -->
<g id="edge8" class="edge">
<title>dir_a9517e75d808b51ad9f5947a3cea1d31&#45;&gt;dir_cd1009b6de6f257cf504091b6f95eba2</title>
<path fill="none" stroke="black" d="M156.19,-307.72C159.16,-306.45 162.14,-305.19 165,-304 205.16,-287.31 221.22,-294.11 256,-268 278.68,-250.98 297.8,-224.68 310.13,-205.07"/>
<polygon fill="black" stroke="black" points="313.24,-206.69 315.46,-196.33 307.26,-203.05 313.24,-206.69"/>
<g id="a_edge8&#45;headlabel"><a xlink:href="dir_000046_000054.html" target="_top" xlink:title="1">
<text text-anchor="middle" x="313.8" y="-208.74" font-family="Helvetica,sans-Serif" font-size="10.00">1</text>
</a>
</g>
</g>
<!-- dir_45593f23b58a9cb34ecfe1ccd7e4e81f -->
<g id="node19" class="node">
<title>dir_45593f23b58a9cb34ecfe1ccd7e4e81f</title>
<g id="a_node19"><a xlink:href="dir_45593f23b58a9cb34ecfe1ccd7e4e81f.html" target="_top" xlink:title="JSupport">
<polygon fill="white" stroke="black" points="294,-124 238,-124 238,-88 294,-88 294,-124"/>
<text text-anchor="middle" x="266" y="-103.5" font-family="Helvetica,sans-Serif" font-size="10.00">JSupport</text>
</a>
</g>
</g>
<!-- dir_a9517e75d808b51ad9f5947a3cea1d31&#45;&gt;dir_45593f23b58a9cb34ecfe1ccd7e4e81f -->
<g id="edge6" class="edge">
<title>dir_a9517e75d808b51ad9f5947a3cea1d31&#45;&gt;dir_45593f23b58a9cb34ecfe1ccd7e4e81f</title>
<path fill="none" stroke="black" d="M137.63,-303.69C144.25,-293.51 152.5,-280.26 159,-268 183.61,-221.59 176.11,-202.49 207,-160 214.79,-149.28 225.07,-139.13 234.86,-130.63"/>
<polygon fill="black" stroke="black" points="237.13,-133.3 242.55,-124.19 232.63,-127.93 237.13,-133.3"/>
<g id="a_edge6&#45;headlabel"><a xlink:href="dir_000046_000064.html" target="_top" xlink:title="4">
<text text-anchor="middle" x="236.19" y="-135.28" font-family="Helvetica,sans-Serif" font-size="10.00">4</text>
</a>
</g>
</g>
<!-- dir_25682d7fe27d5da48e7af3ae8c2abb7f -->
<g id="node20" class="node">
<title>dir_25682d7fe27d5da48e7af3ae8c2abb7f</title>
<g id="a_node20"><a xlink:href="dir_25682d7fe27d5da48e7af3ae8c2abb7f.html" target="_top" xlink:title="JUtility">
<polygon fill="white" stroke="black" points="247,-268 193,-268 193,-232 247,-232 247,-268"/>
<text text-anchor="middle" x="220" y="-247.5" font-family="Helvetica,sans-Serif" font-size="10.00">JUtility</text>
</a>
</g>
</g>
<!-- dir_a9517e75d808b51ad9f5947a3cea1d31&#45;&gt;dir_25682d7fe27d5da48e7af3ae8c2abb7f -->
<g id="edge5" class="edge">
<title>dir_a9517e75d808b51ad9f5947a3cea1d31&#45;&gt;dir_25682d7fe27d5da48e7af3ae8c2abb7f</title>
<path fill="none" stroke="black" d="M149.24,-303.7C161.19,-294.8 175.92,-283.82 188.85,-274.2"/>
<polygon fill="black" stroke="black" points="191.1,-276.88 197.03,-268.1 186.92,-271.27 191.1,-276.88"/>
<g id="a_edge5&#45;headlabel"><a xlink:href="dir_000046_000065.html" target="_top" xlink:title="6">
<text text-anchor="middle" x="189.91" y="-278.81" font-family="Helvetica,sans-Serif" font-size="10.00">6</text>
</a>
</g>
</g>
<!-- dir_d068c98d77942e923a6396bfbdef05f0 -->
<g id="node6" class="node">
<title>dir_d068c98d77942e923a6396bfbdef05f0</title>
<g id="a_node6"><a xlink:href="dir_d068c98d77942e923a6396bfbdef05f0.html" target="_top" xlink:title="J3DGraphAnimator">
<polygon fill="white" stroke="black" points="754.5,-340 655.5,-340 655.5,-304 754.5,-304 754.5,-340"/>
<text text-anchor="middle" x="705" y="-319.5" font-family="Helvetica,sans-Serif" font-size="10.00">J3DGraphAnimator</text>
</a>
</g>
</g>
<!-- dir_d068c98d77942e923a6396bfbdef05f0&#45;&gt;dir_b778c3f297ab88300258a2935792c8cc -->
<g id="edge17" class="edge">
<title>dir_d068c98d77942e923a6396bfbdef05f0&#45;&gt;dir_b778c3f297ab88300258a2935792c8cc</title>
<path fill="none" stroke="black" d="M754.72,-305.89C757.85,-305.19 760.96,-304.55 764,-304 816.75,-294.53 1208.55,-307.29 1245,-268 1261.32,-250.41 1257.87,-180.26 1245,-160 1228.43,-133.93 1195.27,-120.46 1169.13,-113.64"/>
<polygon fill="black" stroke="black" points="1169.69,-110.17 1159.15,-111.26 1168.07,-116.98 1169.69,-110.17"/>
<g id="a_edge17&#45;headlabel"><a xlink:href="dir_000047_000025.html" target="_top" xlink:title="12">
<text text-anchor="middle" x="1173.85" y="-105.74" font-family="Helvetica,sans-Serif" font-size="10.00">12</text>
</a>
</g>
</g>
<!-- dir_4a61573b4bce9188d102de1e22b28aee -->
<g id="node7" class="node">
<title>dir_4a61573b4bce9188d102de1e22b28aee</title>
<g id="a_node7"><a xlink:href="dir_4a61573b4bce9188d102de1e22b28aee.html" target="_top" xlink:title="J3DGraphBase">
<polygon fill="white" stroke="black" points="419.5,-340 336.5,-340 336.5,-304 419.5,-304 419.5,-340"/>
<text text-anchor="middle" x="378" y="-319.5" font-family="Helvetica,sans-Serif" font-size="10.00">J3DGraphBase</text>
</a>
</g>
</g>
<!-- dir_4a61573b4bce9188d102de1e22b28aee&#45;&gt;dir_54283da8a0cf1311a88c964d76512876 -->
<g id="edge12" class="edge">
<title>dir_4a61573b4bce9188d102de1e22b28aee&#45;&gt;dir_54283da8a0cf1311a88c964d76512876</title>
<path fill="none" stroke="black" d="M419.51,-306.16C422.69,-305.33 425.88,-304.59 429,-304 719.55,-248.83 810.77,-345.82 1094.89,-269.51"/>
<polygon fill="black" stroke="black" points="1095.92,-272.86 1104.65,-266.85 1094.08,-266.11 1095.92,-272.86"/>
<g id="a_edge12&#45;headlabel"><a xlink:href="dir_000048_001623.html" target="_top" xlink:title="1">
<text text-anchor="middle" x="1093.2" y="-274.05" font-family="Helvetica,sans-Serif" font-size="10.00">1</text>
</a>
</g>
</g>
<!-- dir_4a61573b4bce9188d102de1e22b28aee&#45;&gt;dir_b778c3f297ab88300258a2935792c8cc -->
<g id="edge13" class="edge">
<title>dir_4a61573b4bce9188d102de1e22b28aee&#45;&gt;dir_b778c3f297ab88300258a2935792c8cc</title>
<path fill="none" stroke="black" d="M419.5,-306.14C422.69,-305.31 425.88,-304.58 429,-304 510.02,-288.83 1113.14,-327.68 1170,-268 1188.25,-248.84 1160.53,-173.82 1143.57,-133.3"/>
<polygon fill="black" stroke="black" points="1146.76,-131.86 1139.62,-124.03 1140.32,-134.61 1146.76,-131.86"/>
<g id="a_edge13&#45;headlabel"><a xlink:href="dir_000048_000025.html" target="_top" xlink:title="22">
<text text-anchor="middle" x="1150.78" y="-131.56" font-family="Helvetica,sans-Serif" font-size="10.00">22</text>
</a>
</g>
</g>
<!-- dir_a362cd36472d11e3c6a34ca86d202e04 -->
<g id="node8" class="node">
<title>dir_a362cd36472d11e3c6a34ca86d202e04</title>
<g id="a_node8"><a xlink:href="dir_a362cd36472d11e3c6a34ca86d202e04.html" target="_top" xlink:title="J3DGraphLoader">
<polygon fill="white" stroke="black" points="863,-340 773,-340 773,-304 863,-304 863,-340"/>
<text text-anchor="middle" x="818" y="-319.5" font-family="Helvetica,sans-Serif" font-size="10.00">J3DGraphLoader</text>
</a>
</g>
</g>
<!-- dir_a362cd36472d11e3c6a34ca86d202e04&#45;&gt;dir_b778c3f297ab88300258a2935792c8cc -->
<g id="edge16" class="edge">
<title>dir_a362cd36472d11e3c6a34ca86d202e04&#45;&gt;dir_b778c3f297ab88300258a2935792c8cc</title>
<path fill="none" stroke="black" d="M863.19,-306C866.15,-305.26 869.11,-304.58 872,-304 957.98,-286.73 1205.88,-332.78 1265,-268 1281.18,-250.27 1278.47,-179.86 1265,-160 1243.76,-128.67 1200.72,-115.86 1169.34,-110.62"/>
<polygon fill="black" stroke="black" points="1169.6,-107.12 1159.19,-109.12 1168.57,-114.05 1169.6,-107.12"/>
<g id="a_edge16&#45;headlabel"><a xlink:href="dir_000049_000025.html" target="_top" xlink:title="8">
<text text-anchor="middle" x="1173.57" y="-102.34" font-family="Helvetica,sans-Serif" font-size="10.00">8</text>
</a>
</g>
</g>
<!-- dir_f96cf58bc010b3610669f6849d6dc02e -->
<g id="node9" class="node">
<title>dir_f96cf58bc010b3610669f6849d6dc02e</title>
<g id="a_node9"><a xlink:href="dir_f96cf58bc010b3610669f6849d6dc02e.html" target="_top" xlink:title="J3DU">
<polygon fill="white" stroke="black" points="935,-340 881,-340 881,-304 935,-304 935,-340"/>
<text text-anchor="middle" x="908" y="-319.5" font-family="Helvetica,sans-Serif" font-size="10.00">J3DU</text>
</a>
</g>
</g>
<!-- dir_f96cf58bc010b3610669f6849d6dc02e&#45;&gt;dir_b778c3f297ab88300258a2935792c8cc -->
<g id="edge24" class="edge">
<title>dir_f96cf58bc010b3610669f6849d6dc02e&#45;&gt;dir_b778c3f297ab88300258a2935792c8cc</title>
<path fill="none" stroke="black" d="M935.15,-307.02C938.09,-305.86 941.07,-304.82 944,-304 1017.37,-283.44 1234.03,-324.64 1285,-268 1301.06,-250.16 1298.92,-179.55 1285,-160 1258.88,-123.32 1205.55,-111.79 1169.28,-108.3"/>
<polygon fill="black" stroke="black" points="1169.33,-104.79 1159.08,-107.48 1168.77,-111.77 1169.33,-104.79"/>
<g id="a_edge24&#45;headlabel"><a xlink:href="dir_000050_000025.html" target="_top" xlink:title="3">
<text text-anchor="middle" x="1173.14" y="-99.75" font-family="Helvetica,sans-Serif" font-size="10.00">3</text>
</a>
</g>
</g>
<!-- dir_939d1828e03278096bc671d6c97dec06 -->
<g id="node10" class="node">
<title>dir_939d1828e03278096bc671d6c97dec06</title>
<g id="a_node10"><a xlink:href="dir_939d1828e03278096bc671d6c97dec06.html" target="_top" xlink:title="JAudio2">
<polygon fill="white" stroke="black" points="78,-340 24,-340 24,-304 78,-304 78,-340"/>
<text text-anchor="middle" x="51" y="-319.5" font-family="Helvetica,sans-Serif" font-size="10.00">JAudio2</text>
</a>
</g>
</g>
<!-- dir_939d1828e03278096bc671d6c97dec06&#45;&gt;dir_b778c3f297ab88300258a2935792c8cc -->
<g id="edge23" class="edge">
<title>dir_939d1828e03278096bc671d6c97dec06&#45;&gt;dir_b778c3f297ab88300258a2935792c8cc</title>
<path fill="none" stroke="black" d="M78.21,-307.23C81.14,-306.03 84.1,-304.92 87,-304 193.26,-270.15 953.04,-167.41 1095.02,-125.66"/>
<polygon fill="black" stroke="black" points="1096.38,-128.9 1104.84,-122.52 1094.25,-122.23 1096.38,-128.9"/>
<g id="a_edge23&#45;headlabel"><a xlink:href="dir_000051_000025.html" target="_top" xlink:title="69">
<text text-anchor="middle" x="1093.82" y="-130.2" font-family="Helvetica,sans-Serif" font-size="10.00">69</text>
</a>
</g>
</g>
<!-- dir_939d1828e03278096bc671d6c97dec06&#45;&gt;dir_45593f23b58a9cb34ecfe1ccd7e4e81f -->
<g id="edge22" class="edge">
<title>dir_939d1828e03278096bc671d6c97dec06&#45;&gt;dir_45593f23b58a9cb34ecfe1ccd7e4e81f</title>
<path fill="none" stroke="black" d="M62.7,-303.54C84.2,-272.29 132.53,-205.79 184,-160 197.63,-147.87 214.3,-136.57 229.04,-127.55"/>
<polygon fill="black" stroke="black" points="231.14,-130.37 237.93,-122.23 227.55,-124.36 231.14,-130.37"/>
<g id="a_edge22&#45;headlabel"><a xlink:href="dir_000051_000064.html" target="_top" xlink:title="3">
<text text-anchor="middle" x="229.51" y="-132.15" font-family="Helvetica,sans-Serif" font-size="10.00">3</text>
</a>
</g>
</g>
<!-- dir_939d1828e03278096bc671d6c97dec06&#45;&gt;dir_25682d7fe27d5da48e7af3ae8c2abb7f -->
<g id="edge21" class="edge">
<title>dir_939d1828e03278096bc671d6c97dec06&#45;&gt;dir_25682d7fe27d5da48e7af3ae8c2abb7f</title>
<path fill="none" stroke="black" d="M78.04,-308.01C81.05,-306.63 84.08,-305.27 87,-304 119.28,-289.96 156.54,-275.24 183.4,-264.88"/>
<polygon fill="black" stroke="black" points="184.72,-268.13 192.8,-261.27 182.21,-261.59 184.72,-268.13"/>
<g id="a_edge21&#45;headlabel"><a xlink:href="dir_000051_000065.html" target="_top" xlink:title="1">
<text text-anchor="middle" x="182.38" y="-269.57" font-family="Helvetica,sans-Serif" font-size="10.00">1</text>
</a>
</g>
</g>
<!-- dir_46476ff8a47134c2cbdbc6a41dfe8c11 -->
<g id="node11" class="node">
<title>dir_46476ff8a47134c2cbdbc6a41dfe8c11</title>
<g id="a_node11"><a xlink:href="dir_46476ff8a47134c2cbdbc6a41dfe8c11.html" target="_top" xlink:title="JFramework">
<polygon fill="white" stroke="black" points="245.5,-340 174.5,-340 174.5,-304 245.5,-304 245.5,-340"/>
<text text-anchor="middle" x="210" y="-319.5" font-family="Helvetica,sans-Serif" font-size="10.00">JFramework</text>
</a>
</g>
</g>
<!-- dir_46476ff8a47134c2cbdbc6a41dfe8c11&#45;&gt;dir_b778c3f297ab88300258a2935792c8cc -->
<g id="edge15" class="edge">
<title>dir_46476ff8a47134c2cbdbc6a41dfe8c11&#45;&gt;dir_b778c3f297ab88300258a2935792c8cc</title>
<path fill="none" stroke="black" d="M245.56,-306.42C248.72,-305.48 251.89,-304.65 255,-304 412.92,-271.1 833.5,-335.52 980,-268 1012.74,-252.91 1079.11,-173.49 1112.25,-132.12"/>
<polygon fill="black" stroke="black" points="1115.11,-134.15 1118.6,-124.15 1109.63,-129.79 1115.11,-134.15"/>
<g id="a_edge15&#45;headlabel"><a xlink:href="dir_000052_000025.html" target="_top" xlink:title="2">
<text text-anchor="middle" x="1115.09" y="-136.23" font-family="Helvetica,sans-Serif" font-size="10.00">2</text>
</a>
</g>
</g>
<!-- dir_46476ff8a47134c2cbdbc6a41dfe8c11&#45;&gt;dir_25682d7fe27d5da48e7af3ae8c2abb7f -->
<g id="edge14" class="edge">
<title>dir_46476ff8a47134c2cbdbc6a41dfe8c11&#45;&gt;dir_25682d7fe27d5da48e7af3ae8c2abb7f</title>
<path fill="none" stroke="black" d="M212.47,-303.7C213.57,-295.98 214.9,-286.71 216.13,-278.11"/>
<polygon fill="black" stroke="black" points="219.61,-278.5 217.56,-268.1 212.68,-277.51 219.61,-278.5"/>
<g id="a_edge14&#45;headlabel"><a xlink:href="dir_000052_000065.html" target="_top" xlink:title="1">
<text text-anchor="middle" x="221.91" y="-279.96" font-family="Helvetica,sans-Serif" font-size="10.00">1</text>
</a>
</g>
</g>
<!-- dir_2adf73cd42e23ea1cf49f138568984bb -->
<g id="node12" class="node">
<title>dir_2adf73cd42e23ea1cf49f138568984bb</title>
<g id="a_node12"><a xlink:href="dir_2adf73cd42e23ea1cf49f138568984bb.html" target="_top" xlink:title="JGadget">
<polygon fill="white" stroke="black" points="280,-196 226,-196 226,-160 280,-160 280,-196"/>
<text text-anchor="middle" x="253" y="-175.5" font-family="Helvetica,sans-Serif" font-size="10.00">JGadget</text>
</a>
</g>
</g>
<!-- dir_2adf73cd42e23ea1cf49f138568984bb&#45;&gt;dir_b778c3f297ab88300258a2935792c8cc -->
<g id="edge1" class="edge">
<title>dir_2adf73cd42e23ea1cf49f138568984bb&#45;&gt;dir_b778c3f297ab88300258a2935792c8cc</title>
<path fill="none" stroke="black" d="M280.1,-162.84C283.05,-161.71 286.05,-160.73 289,-160 636.4,-73.97 751,-218.65 1095.18,-125.41"/>
<polygon fill="black" stroke="black" points="1096.2,-128.76 1104.91,-122.73 1094.34,-122.02 1096.2,-128.76"/>
<g id="a_edge1&#45;headlabel"><a xlink:href="dir_000053_000025.html" target="_top" xlink:title="3">
<text text-anchor="middle" x="1093.49" y="-129.96" font-family="Helvetica,sans-Serif" font-size="10.00">3</text>
</a>
</g>
</g>
<!-- dir_cd1009b6de6f257cf504091b6f95eba2&#45;&gt;dir_b778c3f297ab88300258a2935792c8cc -->
<g id="edge11" class="edge">
<title>dir_cd1009b6de6f257cf504091b6f95eba2&#45;&gt;dir_b778c3f297ab88300258a2935792c8cc</title>
<path fill="none" stroke="black" d="M352.09,-161.27C353.4,-160.8 354.7,-160.37 356,-160 671.78,-70.92 779.74,-211.07 1095.04,-125.46"/>
<polygon fill="black" stroke="black" points="1096.2,-128.77 1104.91,-122.73 1094.33,-122.02 1096.2,-128.77"/>
<g id="a_edge11&#45;headlabel"><a xlink:href="dir_000054_000025.html" target="_top" xlink:title="33">
<text text-anchor="middle" x="1093.5" y="-129.97" font-family="Helvetica,sans-Serif" font-size="10.00">33</text>
</a>
</g>
</g>
<!-- dir_cd1009b6de6f257cf504091b6f95eba2&#45;&gt;dir_45593f23b58a9cb34ecfe1ccd7e4e81f -->
<g id="edge10" class="edge">
<title>dir_cd1009b6de6f257cf504091b6f95eba2&#45;&gt;dir_45593f23b58a9cb34ecfe1ccd7e4e81f</title>
<path fill="none" stroke="black" d="M304.5,-159.7C296.64,-151.39 287.92,-141.28 280.68,-132.14"/>
<polygon fill="black" stroke="black" points="283.38,-129.91 274.52,-124.1 277.83,-134.17 283.38,-129.91"/>
<g id="a_edge10&#45;headlabel"><a xlink:href="dir_000054_000064.html" target="_top" xlink:title="8">
<text text-anchor="middle" x="287.82" y="-128.53" font-family="Helvetica,sans-Serif" font-size="10.00">8</text>
</a>
</g>
</g>
<!-- dir_745c4d827b885b106b58a37f86b4723a&#45;&gt;dir_b778c3f297ab88300258a2935792c8cc -->
<g id="edge9" class="edge">
<title>dir_745c4d827b885b106b58a37f86b4723a&#45;&gt;dir_b778c3f297ab88300258a2935792c8cc</title>
<path fill="none" stroke="black" d="M318.06,-307.17C321.34,-305.91 324.7,-304.81 328,-304 404.93,-285.12 972.51,-309.48 1040,-268 1089.01,-237.88 1114.43,-171.36 1125.31,-133.93"/>
<polygon fill="black" stroke="black" points="1128.71,-134.78 1128,-124.2 1121.96,-132.91 1128.71,-134.78"/>
<g id="a_edge9&#45;headlabel"><a xlink:href="dir_000055_000025.html" target="_top" xlink:title="3">
<text text-anchor="middle" x="1130.48" y="-136.5" font-family="Helvetica,sans-Serif" font-size="10.00">3</text>
</a>
</g>
</g>
<!-- dir_49a47a08903d444eb2abc0c220e49786 -->
<g id="node15" class="node">
<title>dir_49a47a08903d444eb2abc0c220e49786</title>
<g id="a_node15"><a xlink:href="dir_49a47a08903d444eb2abc0c220e49786.html" target="_top" xlink:title="JMessage">
<polygon fill="white" stroke="black" points="1015,-340 953,-340 953,-304 1015,-304 1015,-340"/>
<text text-anchor="middle" x="984" y="-319.5" font-family="Helvetica,sans-Serif" font-size="10.00">JMessage</text>
</a>
</g>
</g>
<!-- dir_49a47a08903d444eb2abc0c220e49786&#45;&gt;dir_b778c3f297ab88300258a2935792c8cc -->
<g id="edge25" class="edge">
<title>dir_49a47a08903d444eb2abc0c220e49786&#45;&gt;dir_b778c3f297ab88300258a2935792c8cc</title>
<path fill="none" stroke="black" d="M1015.04,-307.13C1018.36,-305.95 1021.72,-304.87 1025,-304 1085.62,-287.84 1263.56,-315.1 1305,-268 1336.7,-231.96 1333.54,-198.59 1305,-160 1273.9,-117.95 1210.07,-108.18 1169.24,-106.48"/>
<polygon fill="black" stroke="black" points="1169.23,-102.98 1159.14,-106.21 1169.04,-109.98 1169.23,-102.98"/>
<g id="a_edge25&#45;headlabel"><a xlink:href="dir_000056_000025.html" target="_top" xlink:title="5">
<text text-anchor="middle" x="1172.9" y="-97.74" font-family="Helvetica,sans-Serif" font-size="10.00">5</text>
</a>
</g>
</g>
<!-- dir_f1b491a5f48e85031c6ef4e5894314c1 -->
<g id="node16" class="node">
<title>dir_f1b491a5f48e85031c6ef4e5894314c1</title>
<g id="a_node16"><a xlink:href="dir_f1b491a5f48e85031c6ef4e5894314c1.html" target="_top" xlink:title="JParticle">
<polygon fill="white" stroke="black" points="492.5,-340 437.5,-340 437.5,-304 492.5,-304 492.5,-340"/>
<text text-anchor="middle" x="465" y="-319.5" font-family="Helvetica,sans-Serif" font-size="10.00">JParticle</text>
</a>
</g>
</g>
<!-- dir_f1b491a5f48e85031c6ef4e5894314c1&#45;&gt;dir_b778c3f297ab88300258a2935792c8cc -->
<g id="edge29" class="edge">
<title>dir_f1b491a5f48e85031c6ef4e5894314c1&#45;&gt;dir_b778c3f297ab88300258a2935792c8cc</title>
<path fill="none" stroke="black" d="M492.88,-306.87C495.91,-305.74 498.98,-304.74 502,-304 575.79,-285.81 1132.7,-323.13 1185,-268 1218.04,-233.18 1203.37,-204.35 1185,-160 1180.46,-149.03 1172.41,-139.14 1163.95,-130.96"/>
<polygon fill="black" stroke="black" points="1166.25,-128.33 1156.48,-124.23 1161.56,-133.53 1166.25,-128.33"/>
<g id="a_edge29&#45;headlabel"><a xlink:href="dir_000061_000025.html" target="_top" xlink:title="16">
<text text-anchor="middle" x="1170.82" y="-126.12" font-family="Helvetica,sans-Serif" font-size="10.00">16</text>
</a>
</g>
</g>
<!-- dir_544b542202d39fd3aaf8ba56c4f2c043 -->
<g id="node17" class="node">
<title>dir_544b542202d39fd3aaf8ba56c4f2c043</title>
<g id="a_node17"><a xlink:href="dir_544b542202d39fd3aaf8ba56c4f2c043.html" target="_top" xlink:title="JStage">
<polygon fill="white" stroke="black" points="565,-340 511,-340 511,-304 565,-304 565,-340"/>
<text text-anchor="middle" x="538" y="-319.5" font-family="Helvetica,sans-Serif" font-size="10.00">JStage</text>
</a>
</g>
</g>
<!-- dir_544b542202d39fd3aaf8ba56c4f2c043&#45;&gt;dir_b778c3f297ab88300258a2935792c8cc -->
<g id="edge28" class="edge">
<title>dir_544b542202d39fd3aaf8ba56c4f2c043&#45;&gt;dir_b778c3f297ab88300258a2935792c8cc</title>
<path fill="none" stroke="black" d="M565.11,-306.88C568.05,-305.74 571.05,-304.75 574,-304 642.06,-286.69 1156.78,-319.05 1205,-268 1237.96,-233.11 1226.8,-202.76 1205,-160 1197.05,-144.4 1182.12,-132.32 1167.82,-123.66"/>
<polygon fill="black" stroke="black" points="1169.5,-120.58 1159.07,-118.7 1166.05,-126.67 1169.5,-120.58"/>
<g id="a_edge28&#45;headlabel"><a xlink:href="dir_000062_000025.html" target="_top" xlink:title="7">
<text text-anchor="middle" x="1174.03" y="-117.38" font-family="Helvetica,sans-Serif" font-size="10.00">7</text>
</a>
</g>
</g>
<!-- dir_ddc9133ecf11e60602f1406a8bd2a6d3 -->
<g id="node18" class="node">
<title>dir_ddc9133ecf11e60602f1406a8bd2a6d3</title>
<g id="a_node18"><a xlink:href="dir_ddc9133ecf11e60602f1406a8bd2a6d3.html" target="_top" xlink:title="JStudio">
<polygon fill="white" stroke="red" points="637,-340 583,-340 583,-304 637,-304 637,-340"/>
<text text-anchor="middle" x="610" y="-319.5" font-family="Helvetica,sans-Serif" font-size="10.00">JStudio</text>
</a>
</g>
</g>
<!-- dir_ddc9133ecf11e60602f1406a8bd2a6d3&#45;&gt;dir_b778c3f297ab88300258a2935792c8cc -->
<g id="edge27" class="edge">
<title>dir_ddc9133ecf11e60602f1406a8bd2a6d3&#45;&gt;dir_b778c3f297ab88300258a2935792c8cc</title>
<path fill="none" stroke="black" d="M637.07,-307.21C640.35,-305.94 643.71,-304.83 647,-304 709.4,-288.3 1180.94,-314.89 1225,-268 1241.43,-250.51 1237.06,-180.75 1225,-160 1212.91,-139.19 1189.26,-125.88 1168.83,-117.79"/>
<polygon fill="black" stroke="black" points="1170.02,-114.5 1159.43,-114.34 1167.61,-121.07 1170.02,-114.5"/>
<g id="a_edge27&#45;headlabel"><a xlink:href="dir_000057_000025.html" target="_top" xlink:title="25">
<text text-anchor="middle" x="1174.37" y="-110.58" font-family="Helvetica,sans-Serif" font-size="10.00">25</text>
</a>
</g>
</g>
<!-- dir_45593f23b58a9cb34ecfe1ccd7e4e81f&#45;&gt;dir_b778c3f297ab88300258a2935792c8cc -->
<g id="edge3" class="edge">
<title>dir_45593f23b58a9cb34ecfe1ccd7e4e81f&#45;&gt;dir_b778c3f297ab88300258a2935792c8cc</title>
<path fill="none" stroke="black" d="M294.33,-106C560.99,-106 827.65,-106 1094.31,-106"/>
<polygon fill="black" stroke="black" points="1094.6,-109.5 1104.6,-106 1094.6,-102.5 1094.6,-109.5"/>
<g id="a_edge3&#45;headlabel"><a xlink:href="dir_000064_000025.html" target="_top" xlink:title="6">
<text text-anchor="middle" x="1091" y="-109.84" font-family="Helvetica,sans-Serif" font-size="10.00">6</text>
</a>
</g>
</g>
<!-- dir_45593f23b58a9cb34ecfe1ccd7e4e81f&#45;&gt;dir_cd1009b6de6f257cf504091b6f95eba2 -->
<g id="edge4" class="edge">
<title>dir_45593f23b58a9cb34ecfe1ccd7e4e81f&#45;&gt;dir_cd1009b6de6f257cf504091b6f95eba2</title>
<path fill="none" stroke="black" d="M286.31,-124.1C294.16,-132.38 302.88,-142.49 310.14,-151.64"/>
<polygon fill="black" stroke="black" points="307.46,-153.9 316.33,-159.7 313.01,-149.63 307.46,-153.9"/>
<g id="a_edge4&#45;headlabel"><a xlink:href="dir_000064_000054.html" target="_top" xlink:title="1">
<text text-anchor="middle" x="303.02" y="-150.28" font-family="Helvetica,sans-Serif" font-size="10.00">1</text>
</a>
</g>
</g>
<!-- dir_25682d7fe27d5da48e7af3ae8c2abb7f&#45;&gt;dir_b778c3f297ab88300258a2935792c8cc -->
<g id="edge33" class="edge">
<title>dir_25682d7fe27d5da48e7af3ae8c2abb7f&#45;&gt;dir_b778c3f297ab88300258a2935792c8cc</title>
<path fill="none" stroke="black" d="M247.13,-233.4C248.42,-232.89 249.72,-232.42 251,-232 338.9,-203.46 971.75,-156.27 1095.12,-125.35"/>
<polygon fill="black" stroke="black" points="1096.19,-128.69 1104.87,-122.6 1094.29,-121.95 1096.19,-128.69"/>
<g id="a_edge33&#45;headlabel"><a xlink:href="dir_000065_000025.html" target="_top" xlink:title="31">
<text text-anchor="middle" x="1093.51" y="-129.9" font-family="Helvetica,sans-Serif" font-size="10.00">31</text>
</a>
</g>
</g>
<!-- dir_25682d7fe27d5da48e7af3ae8c2abb7f&#45;&gt;dir_6141ad2e1396b1970c524b101e645d67 -->
<g id="edge32" class="edge">
<title>dir_25682d7fe27d5da48e7af3ae8c2abb7f&#45;&gt;dir_6141ad2e1396b1970c524b101e645d67</title>
<path fill="none" stroke="black" d="M214.02,-231.98C202.86,-196.77 183.85,-116.22 229,-80 261.68,-53.78 868.12,-39.99 1068.41,-36.14"/>
<polygon fill="black" stroke="black" points="1068.55,-39.64 1078.48,-35.95 1068.42,-32.64 1068.55,-39.64"/>
<g id="a_edge32&#45;headlabel"><a xlink:href="dir_000065_001622.html" target="_top" xlink:title="3">
<text text-anchor="middle" x="1065.01" y="-40.04" font-family="Helvetica,sans-Serif" font-size="10.00">3</text>
</a>
</g>
</g>
<!-- dir_25682d7fe27d5da48e7af3ae8c2abb7f&#45;&gt;dir_2adf73cd42e23ea1cf49f138568984bb -->
<g id="edge30" class="edge">
<title>dir_25682d7fe27d5da48e7af3ae8c2abb7f&#45;&gt;dir_2adf73cd42e23ea1cf49f138568984bb</title>
<path fill="none" stroke="black" d="M228.16,-231.7C231.91,-223.73 236.45,-214.1 240.62,-205.26"/>
<polygon fill="black" stroke="black" points="243.84,-206.64 244.94,-196.1 237.51,-203.66 243.84,-206.64"/>
<g id="a_edge30&#45;headlabel"><a xlink:href="dir_000065_000053.html" target="_top" xlink:title="1">
<text text-anchor="middle" x="244.87" y="-208.6" font-family="Helvetica,sans-Serif" font-size="10.00">1</text>
</a>
</g>
</g>
<!-- dir_25682d7fe27d5da48e7af3ae8c2abb7f&#45;&gt;dir_cd1009b6de6f257cf504091b6f95eba2 -->
<g id="edge34" class="edge">
<title>dir_25682d7fe27d5da48e7af3ae8c2abb7f&#45;&gt;dir_cd1009b6de6f257cf504091b6f95eba2</title>
<path fill="none" stroke="black" d="M245.69,-231.88C259.29,-222.81 276.17,-211.55 290.86,-201.76"/>
<polygon fill="black" stroke="black" points="292.84,-204.65 299.22,-196.19 288.95,-198.82 292.84,-204.65"/>
<g id="a_edge34&#45;headlabel"><a xlink:href="dir_000065_000054.html" target="_top" xlink:title="6">
<text text-anchor="middle" x="291.42" y="-206.51" font-family="Helvetica,sans-Serif" font-size="10.00">6</text>
</a>
</g>
</g>
<!-- dir_25682d7fe27d5da48e7af3ae8c2abb7f&#45;&gt;dir_45593f23b58a9cb34ecfe1ccd7e4e81f -->
<g id="edge31" class="edge">
<title>dir_25682d7fe27d5da48e7af3ae8c2abb7f&#45;&gt;dir_45593f23b58a9cb34ecfe1ccd7e4e81f</title>
<path fill="none" stroke="black" d="M215.54,-231.93C211.59,-213.5 207.76,-183.61 217,-160 221.2,-149.28 228.69,-139.43 236.58,-131.2"/>
<polygon fill="black" stroke="black" points="239.12,-133.61 243.85,-124.13 234.24,-128.59 239.12,-133.61"/>
<g id="a_edge31&#45;headlabel"><a xlink:href="dir_000065_000064.html" target="_top" xlink:title="1">
<text text-anchor="middle" x="238.53" y="-135.65" font-family="Helvetica,sans-Serif" font-size="10.00">1</text>
</a>
</g>
</g>
</g>
</svg>
