<?xml version="1.0" encoding="UTF-8" standalone="no"?>
<!DOCTYPE svg PUBLIC "-//W3C//DTD SVG 1.1//EN"
 "http://www.w3.org/Graphics/SVG/1.1/DTD/svg11.dtd">
<!-- Generated by graphviz version 2.44.0 ()
 -->
<!-- Title: include/JSystem/J2DGraph Pages: 1 -->
<svg width="163pt" height="367pt"
 viewBox="0.00 0.00 162.78 367.00" xmlns="http://www.w3.org/2000/svg" xmlns:xlink="http://www.w3.org/1999/xlink">
<g id="graph0" class="graph" transform="scale(1 1) rotate(0) translate(4 363)">
<title>include/JSystem/J2DGraph</title>
<polygon fill="white" stroke="transparent" points="-4,4 -4,-363 158.78,-363 158.78,4 -4,4"/>
<g id="clust1" class="cluster">
<title>clusterdir_4f0979a7f5e3194619cde56505e372d8</title>
<g id="a_clust1"><a xlink:href="dir_4f0979a7f5e3194619cde56505e372d8.html" target="_top" xlink:title="JSystem">
<polygon fill="#ddddee" stroke="black" points="8,-64 8,-351 120,-351 120,-64 8,-64"/>
<text text-anchor="middle" x="64" y="-339" font-family="Helvetica,sans-Serif" font-size="10.00">JSystem</text>
</a>
</g>
</g>
<!-- dir_25682d7fe27d5da48e7af3ae8c2abb7f -->
<g id="node1" class="node">
<title>dir_25682d7fe27d5da48e7af3ae8c2abb7f</title>
<g id="a_node1"><a xlink:href="dir_25682d7fe27d5da48e7af3ae8c2abb7f.html" target="_top" xlink:title="JUtility">
<polygon fill="none" stroke="black" points="91,-252 37,-252 37,-216 91,-216 91,-252"/>
<text text-anchor="middle" x="64" y="-231.5" font-family="Helvetica,sans-Serif" font-size="10.00">JUtility</text>
</a>
</g>
</g>
<!-- dir_45593f23b58a9cb34ecfe1ccd7e4e81f -->
<g id="node2" class="node">
<title>dir_45593f23b58a9cb34ecfe1ccd7e4e81f</title>
<g id="a_node2"><a xlink:href="dir_45593f23b58a9cb34ecfe1ccd7e4e81f.html" target="_top" xlink:title="JSupport">
<polygon fill="none" stroke="black" points="112,-180 56,-180 56,-144 112,-144 112,-180"/>
<text text-anchor="middle" x="84" y="-159.5" font-family="Helvetica,sans-Serif" font-size="10.00">JSupport</text>
</a>
</g>
</g>
<!-- dir_25682d7fe27d5da48e7af3ae8c2abb7f&#45;&gt;dir_45593f23b58a9cb34ecfe1ccd7e4e81f -->
<g id="edge9" class="edge">
<title>dir_25682d7fe27d5da48e7af3ae8c2abb7f&#45;&gt;dir_45593f23b58a9cb34ecfe1ccd7e4e81f</title>
<path fill="none" stroke="black" d="M68.94,-215.7C71.17,-207.9 73.85,-198.51 76.33,-189.83"/>
<polygon fill="black" stroke="black" points="79.73,-190.68 79.11,-180.1 73,-188.76 79.73,-190.68"/>
<g id="a_edge9&#45;headlabel"><a xlink:href="dir_000065_000064.html" target="_top" xlink:title="1">
<text text-anchor="middle" x="81.47" y="-192.42" font-family="Helvetica,sans-Serif" font-size="10.00">1</text>
</a>
</g>
</g>
<!-- dir_cd1009b6de6f257cf504091b6f95eba2 -->
<g id="node3" class="node">
<title>dir_cd1009b6de6f257cf504091b6f95eba2</title>
<g id="a_node3"><a xlink:href="dir_cd1009b6de6f257cf504091b6f95eba2.html" target="_top" xlink:title="JKernel">
<polygon fill="none" stroke="black" points="74,-108 20,-108 20,-72 74,-72 74,-108"/>
<text text-anchor="middle" x="47" y="-87.5" font-family="Helvetica,sans-Serif" font-size="10.00">JKernel</text>
</a>
</g>
</g>
<!-- dir_25682d7fe27d5da48e7af3ae8c2abb7f&#45;&gt;dir_cd1009b6de6f257cf504091b6f95eba2 -->
<g id="edge11" class="edge">
<title>dir_25682d7fe27d5da48e7af3ae8c2abb7f&#45;&gt;dir_cd1009b6de6f257cf504091b6f95eba2</title>
<path fill="none" stroke="black" d="M56.93,-215.67C53.16,-205.47 48.91,-192.22 47,-180 43.8,-159.52 43.95,-136.06 44.82,-118.37"/>
<polygon fill="black" stroke="black" points="48.33,-118.38 45.44,-108.18 41.34,-117.96 48.33,-118.38"/>
<g id="a_edge11&#45;headlabel"><a xlink:href="dir_000065_000054.html" target="_top" xlink:title="2">
<text text-anchor="middle" x="50.95" y="-119.63" font-family="Helvetica,sans-Serif" font-size="10.00">2</text>
</a>
</g>
</g>
<!-- dir_b778c3f297ab88300258a2935792c8cc -->
<g id="node5" class="node">
<title>dir_b778c3f297ab88300258a2935792c8cc</title>
<g id="a_node5"><a xlink:href="dir_b778c3f297ab88300258a2935792c8cc.html" target="_top" xlink:title="dolphin">
<polygon fill="white" stroke="red" points="148,-36 94,-36 94,0 148,0 148,-36"/>
<text text-anchor="middle" x="121" y="-15.5" font-family="Helvetica,sans-Serif" font-size="10.00">dolphin</text>
</a>
</g>
</g>
<!-- dir_25682d7fe27d5da48e7af3ae8c2abb7f&#45;&gt;dir_b778c3f297ab88300258a2935792c8cc -->
<g id="edge10" class="edge">
<title>dir_25682d7fe27d5da48e7af3ae8c2abb7f&#45;&gt;dir_b778c3f297ab88300258a2935792c8cc</title>
<path fill="none" stroke="black" d="M90.58,-215.91C102.24,-206.81 114.69,-194.49 121,-180 140.04,-136.3 133.71,-79.37 127.36,-46.23"/>
<polygon fill="black" stroke="black" points="130.78,-45.45 125.34,-36.36 123.92,-46.86 130.78,-45.45"/>
<g id="a_edge10&#45;headlabel"><a xlink:href="dir_000065_000025.html" target="_top" xlink:title="29">
<text text-anchor="middle" x="134.28" y="-45.9" font-family="Helvetica,sans-Serif" font-size="10.00">29</text>
</a>
</g>
</g>
<!-- dir_45593f23b58a9cb34ecfe1ccd7e4e81f&#45;&gt;dir_cd1009b6de6f257cf504091b6f95eba2 -->
<g id="edge2" class="edge">
<title>dir_45593f23b58a9cb34ecfe1ccd7e4e81f&#45;&gt;dir_cd1009b6de6f257cf504091b6f95eba2</title>
<path fill="none" stroke="black" d="M68.94,-143.7C63.9,-135.73 58.6,-126.1 54.32,-117.26"/>
<polygon fill="black" stroke="black" points="57.48,-115.75 50.15,-108.1 51.11,-118.66 57.48,-115.75"/>
<g id="a_edge2&#45;headlabel"><a xlink:href="dir_000064_000054.html" target="_top" xlink:title="1">
<text text-anchor="middle" x="61.55" y="-115.34" font-family="Helvetica,sans-Serif" font-size="10.00">1</text>
</a>
</g>
</g>
<!-- dir_45593f23b58a9cb34ecfe1ccd7e4e81f&#45;&gt;dir_b778c3f297ab88300258a2935792c8cc -->
<g id="edge1" class="edge">
<title>dir_45593f23b58a9cb34ecfe1ccd7e4e81f&#45;&gt;dir_b778c3f297ab88300258a2935792c8cc</title>
<path fill="none" stroke="black" d="M88.46,-143.87C94.8,-119.56 106.46,-74.82 113.96,-46.01"/>
<polygon fill="black" stroke="black" points="117.39,-46.75 116.52,-36.19 110.61,-44.98 117.39,-46.75"/>
<g id="a_edge1&#45;headlabel"><a xlink:href="dir_000064_000025.html" target="_top" xlink:title="6">
<text text-anchor="middle" x="119.23" y="-48.44" font-family="Helvetica,sans-Serif" font-size="10.00">6</text>
</a>
</g>
</g>
<!-- dir_cd1009b6de6f257cf504091b6f95eba2&#45;&gt;dir_45593f23b58a9cb34ecfe1ccd7e4e81f -->
<g id="edge7" class="edge">
<title>dir_cd1009b6de6f257cf504091b6f95eba2&#45;&gt;dir_45593f23b58a9cb34ecfe1ccd7e4e81f</title>
<path fill="none" stroke="black" d="M61.94,-108.1C66.96,-116.04 72.28,-125.67 76.57,-134.51"/>
<polygon fill="black" stroke="black" points="73.43,-136.06 80.77,-143.7 79.79,-133.15 73.43,-136.06"/>
<g id="a_edge7&#45;headlabel"><a xlink:href="dir_000054_000064.html" target="_top" xlink:title="8">
<text text-anchor="middle" x="69.35" y="-131.47" font-family="Helvetica,sans-Serif" font-size="10.00">8</text>
</a>
</g>
</g>
<!-- dir_cd1009b6de6f257cf504091b6f95eba2&#45;&gt;dir_b778c3f297ab88300258a2935792c8cc -->
<g id="edge8" class="edge">
<title>dir_cd1009b6de6f257cf504091b6f95eba2&#45;&gt;dir_b778c3f297ab88300258a2935792c8cc</title>
<path fill="none" stroke="black" d="M65.29,-71.7C74.43,-63.05 85.64,-52.45 95.6,-43.03"/>
<polygon fill="black" stroke="black" points="98.06,-45.52 102.92,-36.1 93.25,-40.43 98.06,-45.52"/>
<g id="a_edge8&#45;headlabel"><a xlink:href="dir_000054_000025.html" target="_top" xlink:title="33">
<text text-anchor="middle" x="97.4" y="-47.55" font-family="Helvetica,sans-Serif" font-size="10.00">33</text>
</a>
</g>
</g>
<!-- dir_a9517e75d808b51ad9f5947a3cea1d31 -->
<g id="node4" class="node">
<title>dir_a9517e75d808b51ad9f5947a3cea1d31</title>
<g id="a_node4"><a xlink:href="dir_a9517e75d808b51ad9f5947a3cea1d31.html" target="_top" xlink:title="J2DGraph">
<polygon fill="#eeeeff" stroke="black" points="103,-324 43,-324 43,-288 103,-288 103,-324"/>
<text text-anchor="middle" x="73" y="-303.5" font-family="Helvetica,sans-Serif" font-size="10.00">J2DGraph</text>
</a>
</g>
</g>
<!-- dir_a9517e75d808b51ad9f5947a3cea1d31&#45;&gt;dir_25682d7fe27d5da48e7af3ae8c2abb7f -->
<g id="edge3" class="edge">
<title>dir_a9517e75d808b51ad9f5947a3cea1d31&#45;&gt;dir_25682d7fe27d5da48e7af3ae8c2abb7f</title>
<path fill="none" stroke="black" d="M70.78,-287.7C69.78,-279.98 68.59,-270.71 67.49,-262.11"/>
<polygon fill="black" stroke="black" points="70.95,-261.58 66.2,-252.1 64,-262.47 70.95,-261.58"/>
<g id="a_edge3&#45;headlabel"><a xlink:href="dir_000046_000065.html" target="_top" xlink:title="5">
<text text-anchor="middle" x="74.22" y="-262.28" font-family="Helvetica,sans-Serif" font-size="10.00">5</text>
</a>
</g>
</g>
<!-- dir_a9517e75d808b51ad9f5947a3cea1d31&#45;&gt;dir_45593f23b58a9cb34ecfe1ccd7e4e81f -->
<g id="edge4" class="edge">
<title>dir_a9517e75d808b51ad9f5947a3cea1d31&#45;&gt;dir_45593f23b58a9cb34ecfe1ccd7e4e81f</title>
<path fill="none" stroke="black" d="M84.47,-287.67C90.37,-277.69 96.96,-264.65 100,-252 104.96,-231.33 100.2,-207.62 94.61,-189.88"/>
<polygon fill="black" stroke="black" points="97.84,-188.51 91.29,-180.18 91.22,-190.78 97.84,-188.51"/>
<g id="a_edge4&#45;headlabel"><a xlink:href="dir_000046_000064.html" target="_top" xlink:title="3">
<text text-anchor="middle" x="101.69" y="-188.49" font-family="Helvetica,sans-Serif" font-size="10.00">3</text>
</a>
</g>
</g>
<!-- dir_a9517e75d808b51ad9f5947a3cea1d31&#45;&gt;dir_cd1009b6de6f257cf504091b6f95eba2 -->
<g id="edge6" class="edge">
<title>dir_a9517e75d808b51ad9f5947a3cea1d31&#45;&gt;dir_cd1009b6de6f257cf504091b6f95eba2</title>
<path fill="none" stroke="black" d="M52.62,-287.53C43.19,-278.09 32.99,-265.6 28,-252 11.45,-206.94 25.38,-150.47 36.53,-117.78"/>
<polygon fill="black" stroke="black" points="39.94,-118.65 40.01,-108.05 33.35,-116.29 39.94,-118.65"/>
<g id="a_edge6&#45;headlabel"><a xlink:href="dir_000046_000054.html" target="_top" xlink:title="1">
<text text-anchor="middle" x="41.4" y="-120.49" font-family="Helvetica,sans-Serif" font-size="10.00">1</text>
</a>
</g>
</g>
<!-- dir_a9517e75d808b51ad9f5947a3cea1d31&#45;&gt;dir_b778c3f297ab88300258a2935792c8cc -->
<g id="edge5" class="edge">
<title>dir_a9517e75d808b51ad9f5947a3cea1d31&#45;&gt;dir_b778c3f297ab88300258a2935792c8cc</title>
<path fill="none" stroke="black" d="M85.75,-287.92C102.13,-264.84 129.8,-221.76 141,-180 154.38,-130.14 160.37,-113.86 147,-64 145.25,-57.48 142.31,-50.93 139.01,-44.92"/>
<polygon fill="black" stroke="black" points="141.81,-42.78 133.67,-36.01 135.81,-46.38 141.81,-42.78"/>
<g id="a_edge5&#45;headlabel"><a xlink:href="dir_000046_000025.html" target="_top" xlink:title="20">
<text text-anchor="middle" x="146.09" y="-41.91" font-family="Helvetica,sans-Serif" font-size="10.00">20</text>
</a>
</g>
</g>
</g>
</svg>
