<?xml version="1.0" encoding="UTF-8" standalone="no"?>
<!DOCTYPE svg PUBLIC "-//W3C//DTD SVG 1.1//EN"
 "http://www.w3.org/Graphics/SVG/1.1/DTD/svg11.dtd">
<!-- Generated by graphviz version 2.44.0 ()
 -->
<!-- Title: include/JSystem Pages: 1 -->
<!--zoomable 463 -->
<svg id="main" version="1.1" xmlns="http://www.w3.org/2000/svg" xmlns:xlink="http://www.w3.org/1999/xlink" xml:space="preserve" onload="init(evt)">
<style type="text/css"><![CDATA[
.edge:hover path { stroke: red; }
.edge:hover polygon { stroke: red; fill: red; }
]]></style>
<script type="text/javascript"><![CDATA[
var edges = document.getElementsByTagName('g');
if (edges && edges.length) {
  for (var i=0;i<edges.length;i++) {
    if (edges[i].id.substr(0,4)=='edge') {
      edges[i].setAttribute('class','edge');
    }
  }
}
]]></script>
        <defs>
                <circle id="rim" cx="0" cy="0" r="7"/>
                <circle id="rim2" cx="0" cy="0" r="3.5"/>
                <g id="zoomPlus">
                        <use xlink:href="#rim" fill="#404040">
                                <set attributeName="fill" to="#808080" begin="zoomplus.mouseover" end="zoomplus.mouseout"/>
                        </use>
                        <path d="M-4,0h8M0,-4v8" fill="none" stroke="white" stroke-width="1.5" pointer-events="none"/>
                </g>
                <g id="zoomMin">
                        <use xlink:href="#rim" fill="#404040">
                                <set attributeName="fill" to="#808080" begin="zoomminus.mouseover" end="zoomminus.mouseout"/>
                        </use>
                        <path d="M-4,0h8" fill="none" stroke="white" stroke-width="1.5" pointer-events="none"/>
                </g>
                <g id="dirArrow">
                        <path fill="none" stroke="white" stroke-width="1.5" d="M0,-3.0v7 M-2.5,-0.5L0,-3.0L2.5,-0.5"/>
                </g>
               <g id="resetDef">
                       <use xlink:href="#rim2" fill="#404040">
                               <set attributeName="fill" to="#808080" begin="reset.mouseover" end="reset.mouseout"/>
                       </use>
               </g>
        </defs>

<script type="text/javascript">
var viewWidth = 1008;
var viewHeight = 463;
var sectionId = 'dynsection-0';
</script>
<script xlink:href="svgpan.js"/>
<svg id="graph" class="graph">
<g id="viewport">
<title>include/JSystem</title>
<polygon fill="white" stroke="transparent" points="-4,4 -4,-459 1003.9,-459 1003.9,4 -4,4"/>
<g id="clust1" class="cluster">
<title>clusterdir_d44c64559bbebec7f509842c48db8b23</title>
<g id="a_clust1"><a xlink:href="dir_d44c64559bbebec7f509842c48db8b23.html" target="_top" xlink:title="include">
<polygon fill="#ddddee" stroke="black" points="12.9,-8 12.9,-447 991.9,-447 991.9,-8 12.9,-8"/>
<text text-anchor="middle" x="502.4" y="-435" font-family="Helvetica,sans-Serif" font-size="10.00">include</text>
</a>
</g>
</g>
<g id="clust2" class="cluster">
<title>clusterdir_4f0979a7f5e3194619cde56505e372d8</title>
<g id="a_clust2"><a xlink:href="dir_4f0979a7f5e3194619cde56505e372d8.html" target="_top">
<polygon fill="#eeeeff" stroke="black" points="244.9,-80 244.9,-420 983.9,-420 983.9,-80 244.9,-80"/>
</a>
</g>
</g>
<!-- dir_54283da8a0cf1311a88c964d76512876 -->
<g id="node1" class="node">
<title>dir_54283da8a0cf1311a88c964d76512876</title>
<g id="a_node1"><a xlink:href="dir_54283da8a0cf1311a88c964d76512876.html" target="_top" xlink:title="SSystem">
<polygon fill="white" stroke="red" points="236.9,-268 180.9,-268 180.9,-232 236.9,-232 236.9,-268"/>
<text text-anchor="middle" x="208.9" y="-247.5" font-family="Helvetica,sans-Serif" font-size="10.00">SSystem</text>
</a>
</g>
</g>
<!-- dir_b778c3f297ab88300258a2935792c8cc -->
<g id="node2" class="node">
<title>dir_b778c3f297ab88300258a2935792c8cc</title>
<g id="a_node2"><a xlink:href="dir_b778c3f297ab88300258a2935792c8cc.html" target="_top" xlink:title="dolphin">
<polygon fill="white" stroke="red" points="235.9,-124 181.9,-124 181.9,-88 235.9,-88 235.9,-124"/>
<text text-anchor="middle" x="208.9" y="-103.5" font-family="Helvetica,sans-Serif" font-size="10.00">dolphin</text>
</a>
</g>
</g>
<!-- dir_54283da8a0cf1311a88c964d76512876&#45;&gt;dir_b778c3f297ab88300258a2935792c8cc -->
<g id="edge22" class="edge">
<title>dir_54283da8a0cf1311a88c964d76512876&#45;&gt;dir_b778c3f297ab88300258a2935792c8cc</title>
<path fill="none" stroke="black" d="M208.9,-231.87C208.9,-207.67 208.9,-163.21 208.9,-134.39"/>
<polygon fill="black" stroke="black" points="212.4,-134.19 208.9,-124.19 205.4,-134.19 212.4,-134.19"/>
<g id="a_edge22&#45;headlabel"><a xlink:href="dir_001623_000025.html" target="_top" xlink:title="41">
<text text-anchor="middle" x="215.24" y="-135.28" font-family="Helvetica,sans-Serif" font-size="10.00">41</text>
</a>
</g>
</g>
<!-- dir_cd1009b6de6f257cf504091b6f95eba2 -->
<g id="node13" class="node">
<title>dir_cd1009b6de6f257cf504091b6f95eba2</title>
<g id="a_node13"><a xlink:href="dir_cd1009b6de6f257cf504091b6f95eba2.html" target="_top" xlink:title="JKernel">
<polygon fill="white" stroke="black" points="480.9,-196 426.9,-196 426.9,-160 480.9,-160 480.9,-196"/>
<text text-anchor="middle" x="453.9" y="-175.5" font-family="Helvetica,sans-Serif" font-size="10.00">JKernel</text>
</a>
</g>
</g>
<!-- dir_54283da8a0cf1311a88c964d76512876&#45;&gt;dir_cd1009b6de6f257cf504091b6f95eba2 -->
<g id="edge23" class="edge">
<title>dir_54283da8a0cf1311a88c964d76512876&#45;&gt;dir_cd1009b6de6f257cf504091b6f95eba2</title>
<path fill="none" stroke="black" d="M236.97,-233.53C238.28,-232.98 239.6,-232.47 240.9,-232 313.51,-205.95 339.67,-220.1 416.98,-195.85"/>
<polygon fill="black" stroke="black" points="418.24,-199.12 426.66,-192.69 416.07,-192.46 418.24,-199.12"/>
<g id="a_edge23&#45;headlabel"><a xlink:href="dir_001623_000054.html" target="_top" xlink:title="1">
<text text-anchor="middle" x="415.7" y="-200.43" font-family="Helvetica,sans-Serif" font-size="10.00">1</text>
</a>
</g>
</g>
<!-- dir_745c4d827b885b106b58a37f86b4723a -->
<g id="node14" class="node">
<title>dir_745c4d827b885b106b58a37f86b4723a</title>
<g id="a_node14"><a xlink:href="dir_745c4d827b885b106b58a37f86b4723a.html" target="_top" xlink:title="JMath">
<polygon fill="white" stroke="black" points="784.9,-412 730.9,-412 730.9,-376 784.9,-376 784.9,-412"/>
<text text-anchor="middle" x="757.9" y="-391.5" font-family="Helvetica,sans-Serif" font-size="10.00">JMath</text>
</a>
</g>
</g>
<!-- dir_54283da8a0cf1311a88c964d76512876&#45;&gt;dir_745c4d827b885b106b58a37f86b4723a -->
<g id="edge21" class="edge">
<title>dir_54283da8a0cf1311a88c964d76512876&#45;&gt;dir_745c4d827b885b106b58a37f86b4723a</title>
<path fill="none" stroke="black" d="M210.56,-268.36C213.55,-289.13 221.89,-323.19 244.9,-340 328.31,-400.93 602.95,-351.81 720.87,-376.57"/>
<polygon fill="black" stroke="black" points="720.24,-380.02 730.78,-378.93 721.86,-373.21 720.24,-380.02"/>
<g id="a_edge21&#45;headlabel"><a xlink:href="dir_001623_000055.html" target="_top" xlink:title="1">
<text text-anchor="middle" x="716.08" y="-379.45" font-family="Helvetica,sans-Serif" font-size="10.00">1</text>
</a>
</g>
</g>
<!-- dir_6141ad2e1396b1970c524b101e645d67 -->
<g id="node3" class="node">
<title>dir_6141ad2e1396b1970c524b101e645d67</title>
<g id="a_node3"><a xlink:href="dir_6141ad2e1396b1970c524b101e645d67.html" target="_top" xlink:title="Runtime.PPCEABI.H">
<polygon fill="none" stroke="black" points="262.4,-52 155.4,-52 155.4,-16 262.4,-16 262.4,-52"/>
<text text-anchor="middle" x="208.9" y="-31.5" font-family="Helvetica,sans-Serif" font-size="10.00">Runtime.PPCEABI.H</text>
</a>
</g>
</g>
<!-- dir_b778c3f297ab88300258a2935792c8cc&#45;&gt;dir_6141ad2e1396b1970c524b101e645d67 -->
<g id="edge2" class="edge">
<title>dir_b778c3f297ab88300258a2935792c8cc&#45;&gt;dir_6141ad2e1396b1970c524b101e645d67</title>
<path fill="none" stroke="black" d="M202.99,-87.7C202.19,-79.98 201.96,-70.71 202.31,-62.11"/>
<polygon fill="black" stroke="black" points="205.8,-62.32 203.01,-52.1 198.82,-61.84 205.8,-62.32"/>
<g id="a_edge2&#45;headlabel"><a xlink:href="dir_000025_001622.html" target="_top" xlink:title="1">
<text text-anchor="middle" x="208.38" y="-63.61" font-family="Helvetica,sans-Serif" font-size="10.00">1</text>
</a>
</g>
</g>
<!-- dir_6141ad2e1396b1970c524b101e645d67&#45;&gt;dir_b778c3f297ab88300258a2935792c8cc -->
<g id="edge29" class="edge">
<title>dir_6141ad2e1396b1970c524b101e645d67&#45;&gt;dir_b778c3f297ab88300258a2935792c8cc</title>
<path fill="none" stroke="black" d="M214.8,-52.1C215.6,-59.79 215.84,-69.05 215.5,-77.67"/>
<polygon fill="black" stroke="black" points="212.01,-77.48 214.82,-87.7 218.99,-77.96 212.01,-77.48"/>
<g id="a_edge29&#45;headlabel"><a xlink:href="dir_001622_000025.html" target="_top" xlink:title="9">
<text text-anchor="middle" x="209.42" y="-71.2" font-family="Helvetica,sans-Serif" font-size="10.00">9</text>
</a>
</g>
</g>
<!-- dir_4f0979a7f5e3194619cde56505e372d8 -->
<g id="node4" class="node">
<title>dir_4f0979a7f5e3194619cde56505e372d8</title>
<text text-anchor="middle" x="947.9" y="-391.5" font-family="Helvetica,sans-Serif" font-size="10.00">JSystem</text>
</g>
<!-- dir_a9517e75d808b51ad9f5947a3cea1d31 -->
<g id="node5" class="node">
<title>dir_a9517e75d808b51ad9f5947a3cea1d31</title>
<g id="a_node5"><a xlink:href="dir_a9517e75d808b51ad9f5947a3cea1d31.html" target="_top" xlink:title="J2DGraph">
<polygon fill="white" stroke="black" points="595.9,-340 535.9,-340 535.9,-304 595.9,-304 595.9,-340"/>
<text text-anchor="middle" x="565.9" y="-319.5" font-family="Helvetica,sans-Serif" font-size="10.00">J2DGraph</text>
</a>
</g>
</g>
<!-- dir_a9517e75d808b51ad9f5947a3cea1d31&#45;&gt;dir_b778c3f297ab88300258a2935792c8cc -->
<g id="edge7" class="edge">
<title>dir_a9517e75d808b51ad9f5947a3cea1d31&#45;&gt;dir_b778c3f297ab88300258a2935792c8cc</title>
<path fill="none" stroke="black" d="M535.8,-307.5C532.81,-306.28 529.81,-305.09 526.9,-304 477.15,-285.36 459.91,-292.77 412.9,-268 375.43,-248.26 283.22,-170.89 236.69,-131.03"/>
<polygon fill="black" stroke="black" points="238.7,-128.14 228.83,-124.28 234.14,-133.45 238.7,-128.14"/>
<g id="a_edge7&#45;headlabel"><a xlink:href="dir_000046_000025.html" target="_top" xlink:title="21">
<text text-anchor="middle" x="243.27" y="-125.83" font-family="Helvetica,sans-Serif" font-size="10.00">21</text>
</a>
</g>
</g>
<!-- dir_a9517e75d808b51ad9f5947a3cea1d31&#45;&gt;dir_cd1009b6de6f257cf504091b6f95eba2 -->
<g id="edge8" class="edge">
<title>dir_a9517e75d808b51ad9f5947a3cea1d31&#45;&gt;dir_cd1009b6de6f257cf504091b6f95eba2</title>
<path fill="none" stroke="black" d="M552.39,-303.87C532.8,-279.03 496.37,-232.85 473.73,-204.14"/>
<polygon fill="black" stroke="black" points="476.4,-201.87 467.46,-196.19 470.9,-206.21 476.4,-201.87"/>
<g id="a_edge8&#45;headlabel"><a xlink:href="dir_000046_000054.html" target="_top" xlink:title="1">
<text text-anchor="middle" x="480.85" y="-200.44" font-family="Helvetica,sans-Serif" font-size="10.00">1</text>
</a>
</g>
</g>
<!-- dir_45593f23b58a9cb34ecfe1ccd7e4e81f -->
<g id="node19" class="node">
<title>dir_45593f23b58a9cb34ecfe1ccd7e4e81f</title>
<g id="a_node19"><a xlink:href="dir_45593f23b58a9cb34ecfe1ccd7e4e81f.html" target="_top" xlink:title="JSupport">
<polygon fill="white" stroke="black" points="504.9,-124 448.9,-124 448.9,-88 504.9,-88 504.9,-124"/>
<text text-anchor="middle" x="476.9" y="-103.5" font-family="Helvetica,sans-Serif" font-size="10.00">JSupport</text>
</a>
</g>
</g>
<!-- dir_a9517e75d808b51ad9f5947a3cea1d31&#45;&gt;dir_45593f23b58a9cb34ecfe1ccd7e4e81f -->
<g id="edge6" class="edge">
<title>dir_a9517e75d808b51ad9f5947a3cea1d31&#45;&gt;dir_45593f23b58a9cb34ecfe1ccd7e4e81f</title>
<path fill="none" stroke="black" d="M559.52,-303.94C548.38,-274.39 524.42,-211.87 501.9,-160 498.07,-151.19 493.67,-141.66 489.63,-133.15"/>
<polygon fill="black" stroke="black" points="492.76,-131.57 485.28,-124.06 486.44,-134.59 492.76,-131.57"/>
<g id="a_edge6&#45;headlabel"><a xlink:href="dir_000046_000064.html" target="_top" xlink:title="4">
<text text-anchor="middle" x="496.87" y="-131.09" font-family="Helvetica,sans-Serif" font-size="10.00">4</text>
</a>
</g>
</g>
<!-- dir_25682d7fe27d5da48e7af3ae8c2abb7f -->
<g id="node20" class="node">
<title>dir_25682d7fe27d5da48e7af3ae8c2abb7f</title>
<g id="a_node20"><a xlink:href="dir_25682d7fe27d5da48e7af3ae8c2abb7f.html" target="_top" xlink:title="JUtility">
<polygon fill="white" stroke="black" points="475.9,-268 421.9,-268 421.9,-232 475.9,-232 475.9,-268"/>
<text text-anchor="middle" x="448.9" y="-247.5" font-family="Helvetica,sans-Serif" font-size="10.00">JUtility</text>
</a>
</g>
</g>
<!-- dir_a9517e75d808b51ad9f5947a3cea1d31&#45;&gt;dir_25682d7fe27d5da48e7af3ae8c2abb7f -->
<g id="edge5" class="edge">
<title>dir_a9517e75d808b51ad9f5947a3cea1d31&#45;&gt;dir_25682d7fe27d5da48e7af3ae8c2abb7f</title>
<path fill="none" stroke="black" d="M537.28,-303.88C521.53,-294.45 501.82,-282.66 485.01,-272.61"/>
<polygon fill="black" stroke="black" points="486.4,-269.36 476.02,-267.23 482.81,-275.36 486.4,-269.36"/>
<g id="a_edge5&#45;headlabel"><a xlink:href="dir_000046_000065.html" target="_top" xlink:title="6">
<text text-anchor="middle" x="490.94" y="-266.27" font-family="Helvetica,sans-Serif" font-size="10.00">6</text>
</a>
</g>
</g>
<!-- dir_d068c98d77942e923a6396bfbdef05f0 -->
<g id="node6" class="node">
<title>dir_d068c98d77942e923a6396bfbdef05f0</title>
<g id="a_node6"><a xlink:href="dir_d068c98d77942e923a6396bfbdef05f0.html" target="_top" xlink:title="J3DGraphAnimator">
<polygon fill="white" stroke="black" points="902.4,-412 803.4,-412 803.4,-376 902.4,-376 902.4,-412"/>
<text text-anchor="middle" x="852.9" y="-391.5" font-family="Helvetica,sans-Serif" font-size="10.00">J3DGraphAnimator</text>
</a>
</g>
</g>
<!-- dir_d068c98d77942e923a6396bfbdef05f0&#45;&gt;dir_b778c3f297ab88300258a2935792c8cc -->
<g id="edge20" class="edge">
<title>dir_d068c98d77942e923a6396bfbdef05f0&#45;&gt;dir_b778c3f297ab88300258a2935792c8cc</title>
<path fill="none" stroke="black" d="M803.18,-377.86C800.06,-377.16 796.95,-376.53 793.9,-376 673.46,-354.95 356.44,-390.08 244.9,-340 203.33,-321.34 189.48,-310.04 171.9,-268 152.86,-222.49 176.12,-165.44 193.42,-132.92"/>
<polygon fill="black" stroke="black" points="196.56,-134.48 198.33,-124.04 190.43,-131.1 196.56,-134.48"/>
<g id="a_edge20&#45;headlabel"><a xlink:href="dir_000047_000025.html" target="_top" xlink:title="15">
<text text-anchor="middle" x="197.3" y="-136.5" font-family="Helvetica,sans-Serif" font-size="10.00">15</text>
</a>
</g>
</g>
<!-- dir_4a61573b4bce9188d102de1e22b28aee -->
<g id="node7" class="node">
<title>dir_4a61573b4bce9188d102de1e22b28aee</title>
<g id="a_node7"><a xlink:href="dir_4a61573b4bce9188d102de1e22b28aee.html" target="_top" xlink:title="J3DGraphBase">
<polygon fill="white" stroke="black" points="336.4,-340 253.4,-340 253.4,-304 336.4,-304 336.4,-340"/>
<text text-anchor="middle" x="294.9" y="-319.5" font-family="Helvetica,sans-Serif" font-size="10.00">J3DGraphBase</text>
</a>
</g>
</g>
<!-- dir_d068c98d77942e923a6396bfbdef05f0&#45;&gt;dir_4a61573b4bce9188d102de1e22b28aee -->
<g id="edge19" class="edge">
<title>dir_d068c98d77942e923a6396bfbdef05f0&#45;&gt;dir_4a61573b4bce9188d102de1e22b28aee</title>
<path fill="none" stroke="black" d="M803.17,-377.91C800.05,-377.2 796.94,-376.55 793.9,-376 600.55,-340.74 543.47,-378.61 346.23,-339.72"/>
<polygon fill="black" stroke="black" points="346.92,-336.29 336.43,-337.75 345.54,-343.16 346.92,-336.29"/>
<g id="a_edge19&#45;headlabel"><a xlink:href="dir_000047_000048.html" target="_top" xlink:title="10">
<text text-anchor="middle" x="351" y="-331.72" font-family="Helvetica,sans-Serif" font-size="10.00">10</text>
</a>
</g>
</g>
<!-- dir_d068c98d77942e923a6396bfbdef05f0&#45;&gt;dir_25682d7fe27d5da48e7af3ae8c2abb7f -->
<g id="edge18" class="edge">
<title>dir_d068c98d77942e923a6396bfbdef05f0&#45;&gt;dir_25682d7fe27d5da48e7af3ae8c2abb7f</title>
<path fill="none" stroke="black" d="M803.16,-378C800.04,-377.27 796.93,-376.59 793.9,-376 719.55,-361.46 507.43,-394.59 454.9,-340 439.52,-324.01 439.47,-298.05 442.42,-278.28"/>
<polygon fill="black" stroke="black" points="445.88,-278.78 444.22,-268.32 438.99,-277.53 445.88,-278.78"/>
<g id="a_edge18&#45;headlabel"><a xlink:href="dir_000047_000065.html" target="_top" xlink:title="3">
<text text-anchor="middle" x="448.04" y="-280.32" font-family="Helvetica,sans-Serif" font-size="10.00">3</text>
</a>
</g>
</g>
<!-- dir_4a61573b4bce9188d102de1e22b28aee&#45;&gt;dir_54283da8a0cf1311a88c964d76512876 -->
<g id="edge13" class="edge">
<title>dir_4a61573b4bce9188d102de1e22b28aee&#45;&gt;dir_54283da8a0cf1311a88c964d76512876</title>
<path fill="none" stroke="black" d="M273.64,-303.7C262.81,-294.88 249.48,-284.03 237.74,-274.47"/>
<polygon fill="black" stroke="black" points="239.88,-271.7 229.91,-268.1 235.46,-277.13 239.88,-271.7"/>
<g id="a_edge13&#45;headlabel"><a xlink:href="dir_000048_001623.html" target="_top" xlink:title="1">
<text text-anchor="middle" x="244.46" y="-269.27" font-family="Helvetica,sans-Serif" font-size="10.00">1</text>
</a>
</g>
</g>
<!-- dir_4a61573b4bce9188d102de1e22b28aee&#45;&gt;dir_b778c3f297ab88300258a2935792c8cc -->
<g id="edge14" class="edge">
<title>dir_4a61573b4bce9188d102de1e22b28aee&#45;&gt;dir_b778c3f297ab88300258a2935792c8cc</title>
<path fill="none" stroke="black" d="M286.87,-303.92C282.08,-293.59 275.97,-280.11 270.9,-268 251.28,-221.13 230.44,-165.68 218.61,-133.6"/>
<polygon fill="black" stroke="black" points="221.83,-132.23 215.1,-124.05 215.26,-134.64 221.83,-132.23"/>
<g id="a_edge14&#45;headlabel"><a xlink:href="dir_000048_000025.html" target="_top" xlink:title="28">
<text text-anchor="middle" x="225.74" y="-132.12" font-family="Helvetica,sans-Serif" font-size="10.00">28</text>
</a>
</g>
</g>
<!-- dir_4a61573b4bce9188d102de1e22b28aee&#45;&gt;dir_25682d7fe27d5da48e7af3ae8c2abb7f -->
<g id="edge12" class="edge">
<title>dir_4a61573b4bce9188d102de1e22b28aee&#45;&gt;dir_25682d7fe27d5da48e7af3ae8c2abb7f</title>
<path fill="none" stroke="black" d="M336.62,-304.18C358.21,-295.22 385.11,-283.66 412.35,-270.63"/>
<polygon fill="black" stroke="black" points="414.11,-273.67 421.59,-266.16 411.06,-267.36 414.11,-273.67"/>
<g id="a_edge12&#45;headlabel"><a xlink:href="dir_000048_000065.html" target="_top" xlink:title="1">
<text text-anchor="middle" x="412.11" y="-275.29" font-family="Helvetica,sans-Serif" font-size="10.00">1</text>
</a>
</g>
</g>
<!-- dir_a362cd36472d11e3c6a34ca86d202e04 -->
<g id="node8" class="node">
<title>dir_a362cd36472d11e3c6a34ca86d202e04</title>
<g id="a_node8"><a xlink:href="dir_a362cd36472d11e3c6a34ca86d202e04.html" target="_top" xlink:title="J3DGraphLoader">
<polygon fill="white" stroke="black" points="342.9,-412 252.9,-412 252.9,-376 342.9,-376 342.9,-412"/>
<text text-anchor="middle" x="297.9" y="-391.5" font-family="Helvetica,sans-Serif" font-size="10.00">J3DGraphLoader</text>
</a>
</g>
</g>
<!-- dir_a362cd36472d11e3c6a34ca86d202e04&#45;&gt;dir_b778c3f297ab88300258a2935792c8cc -->
<g id="edge17" class="edge">
<title>dir_a362cd36472d11e3c6a34ca86d202e04&#45;&gt;dir_b778c3f297ab88300258a2935792c8cc</title>
<path fill="none" stroke="black" d="M252.87,-390.52C185.54,-385.77 63.67,-372.76 36.9,-340 -13.73,-278.06 -10.61,-224.36 36.9,-160 67.72,-118.26 130.92,-108.37 171.53,-106.57"/>
<polygon fill="black" stroke="black" points="171.69,-110.07 181.58,-106.27 171.48,-103.07 171.69,-110.07"/>
<g id="a_edge17&#45;headlabel"><a xlink:href="dir_000049_000025.html" target="_top" xlink:title="8">
<text text-anchor="middle" x="168.19" y="-110.51" font-family="Helvetica,sans-Serif" font-size="10.00">8</text>
</a>
</g>
</g>
<!-- dir_f96cf58bc010b3610669f6849d6dc02e -->
<g id="node9" class="node">
<title>dir_f96cf58bc010b3610669f6849d6dc02e</title>
<g id="a_node9"><a xlink:href="dir_f96cf58bc010b3610669f6849d6dc02e.html" target="_top" xlink:title="J3DU">
<polygon fill="white" stroke="black" points="414.9,-412 360.9,-412 360.9,-376 414.9,-376 414.9,-412"/>
<text text-anchor="middle" x="387.9" y="-391.5" font-family="Helvetica,sans-Serif" font-size="10.00">J3DU</text>
</a>
</g>
</g>
<!-- dir_f96cf58bc010b3610669f6849d6dc02e&#45;&gt;dir_b778c3f297ab88300258a2935792c8cc -->
<g id="edge27" class="edge">
<title>dir_f96cf58bc010b3610669f6849d6dc02e&#45;&gt;dir_b778c3f297ab88300258a2935792c8cc</title>
<path fill="none" stroke="black" d="M360.74,-379.07C357.8,-377.9 354.82,-376.84 351.9,-376 288.45,-357.67 100.68,-389.45 56.9,-340 3.87,-280.1 10.57,-225.22 56.9,-160 82.75,-123.61 135.52,-112 171.55,-108.41"/>
<polygon fill="black" stroke="black" points="172.01,-111.88 181.69,-107.56 171.43,-104.91 172.01,-111.88"/>
<g id="a_edge27&#45;headlabel"><a xlink:href="dir_000050_000025.html" target="_top" xlink:title="3">
<text text-anchor="middle" x="168.67" y="-112.51" font-family="Helvetica,sans-Serif" font-size="10.00">3</text>
</a>
</g>
</g>
<!-- dir_939d1828e03278096bc671d6c97dec06 -->
<g id="node10" class="node">
<title>dir_939d1828e03278096bc671d6c97dec06</title>
<g id="a_node10"><a xlink:href="dir_939d1828e03278096bc671d6c97dec06.html" target="_top" xlink:title="JAudio2">
<polygon fill="white" stroke="black" points="517.9,-340 463.9,-340 463.9,-304 517.9,-304 517.9,-340"/>
<text text-anchor="middle" x="490.9" y="-319.5" font-family="Helvetica,sans-Serif" font-size="10.00">JAudio2</text>
</a>
</g>
</g>
<!-- dir_939d1828e03278096bc671d6c97dec06&#45;&gt;dir_b778c3f297ab88300258a2935792c8cc -->
<g id="edge26" class="edge">
<title>dir_939d1828e03278096bc671d6c97dec06&#45;&gt;dir_b778c3f297ab88300258a2935792c8cc</title>
<path fill="none" stroke="black" d="M463.86,-312.72C454.68,-309.93 444.35,-306.81 434.9,-304 379.89,-287.66 355.64,-303.94 310.9,-268 289.58,-250.87 267.13,-182.71 251.9,-160 245.5,-150.45 237.77,-140.53 230.65,-131.89"/>
<polygon fill="black" stroke="black" points="233.18,-129.46 224.06,-124.05 227.82,-133.96 233.18,-129.46"/>
<g id="a_edge26&#45;headlabel"><a xlink:href="dir_000051_000025.html" target="_top" xlink:title="69">
<text text-anchor="middle" x="237.66" y="-127.89" font-family="Helvetica,sans-Serif" font-size="10.00">69</text>
</a>
</g>
</g>
<!-- dir_939d1828e03278096bc671d6c97dec06&#45;&gt;dir_45593f23b58a9cb34ecfe1ccd7e4e81f -->
<g id="edge25" class="edge">
<title>dir_939d1828e03278096bc671d6c97dec06&#45;&gt;dir_45593f23b58a9cb34ecfe1ccd7e4e81f</title>
<path fill="none" stroke="black" d="M493.68,-303.92C497.99,-274.35 504.9,-211.8 495.9,-160 494.38,-151.24 491.54,-142.01 488.51,-133.75"/>
<polygon fill="black" stroke="black" points="491.7,-132.29 484.79,-124.25 485.18,-134.84 491.7,-132.29"/>
<g id="a_edge25&#45;headlabel"><a xlink:href="dir_000051_000064.html" target="_top" xlink:title="3">
<text text-anchor="middle" x="495.65" y="-132.11" font-family="Helvetica,sans-Serif" font-size="10.00">3</text>
</a>
</g>
</g>
<!-- dir_939d1828e03278096bc671d6c97dec06&#45;&gt;dir_25682d7fe27d5da48e7af3ae8c2abb7f -->
<g id="edge24" class="edge">
<title>dir_939d1828e03278096bc671d6c97dec06&#45;&gt;dir_25682d7fe27d5da48e7af3ae8c2abb7f</title>
<path fill="none" stroke="black" d="M480.52,-303.7C475.64,-295.56 469.71,-285.69 464.32,-276.7"/>
<polygon fill="black" stroke="black" points="467.31,-274.88 459.16,-268.1 461.31,-278.48 467.31,-274.88"/>
<g id="a_edge24&#45;headlabel"><a xlink:href="dir_000051_000065.html" target="_top" xlink:title="1">
<text text-anchor="middle" x="471.59" y="-274" font-family="Helvetica,sans-Serif" font-size="10.00">1</text>
</a>
</g>
</g>
<!-- dir_46476ff8a47134c2cbdbc6a41dfe8c11 -->
<g id="node11" class="node">
<title>dir_46476ff8a47134c2cbdbc6a41dfe8c11</title>
<g id="a_node11"><a xlink:href="dir_46476ff8a47134c2cbdbc6a41dfe8c11.html" target="_top" xlink:title="JFramework">
<polygon fill="white" stroke="black" points="425.4,-340 354.4,-340 354.4,-304 425.4,-304 425.4,-340"/>
<text text-anchor="middle" x="389.9" y="-319.5" font-family="Helvetica,sans-Serif" font-size="10.00">JFramework</text>
</a>
</g>
</g>
<!-- dir_46476ff8a47134c2cbdbc6a41dfe8c11&#45;&gt;dir_b778c3f297ab88300258a2935792c8cc -->
<g id="edge16" class="edge">
<title>dir_46476ff8a47134c2cbdbc6a41dfe8c11&#45;&gt;dir_b778c3f297ab88300258a2935792c8cc</title>
<path fill="none" stroke="black" d="M354.16,-304.8C329.86,-293.24 300.44,-278.03 290.9,-268 272.61,-248.77 252.28,-183.48 239.9,-160 235.23,-151.14 229.81,-141.64 224.82,-133.16"/>
<polygon fill="black" stroke="black" points="227.75,-131.25 219.63,-124.45 221.74,-134.83 227.75,-131.25"/>
<g id="a_edge16&#45;headlabel"><a xlink:href="dir_000052_000025.html" target="_top" xlink:title="2">
<text text-anchor="middle" x="232.03" y="-130.39" font-family="Helvetica,sans-Serif" font-size="10.00">2</text>
</a>
</g>
</g>
<!-- dir_46476ff8a47134c2cbdbc6a41dfe8c11&#45;&gt;dir_25682d7fe27d5da48e7af3ae8c2abb7f -->
<g id="edge15" class="edge">
<title>dir_46476ff8a47134c2cbdbc6a41dfe8c11&#45;&gt;dir_25682d7fe27d5da48e7af3ae8c2abb7f</title>
<path fill="none" stroke="black" d="M404.49,-303.7C411.56,-295.3 420.18,-285.07 427.95,-275.86"/>
<polygon fill="black" stroke="black" points="430.72,-278.01 434.48,-268.1 425.36,-273.49 430.72,-278.01"/>
<g id="a_edge15&#45;headlabel"><a xlink:href="dir_000052_000065.html" target="_top" xlink:title="1">
<text text-anchor="middle" x="430.57" y="-280.08" font-family="Helvetica,sans-Serif" font-size="10.00">1</text>
</a>
</g>
</g>
<!-- dir_2adf73cd42e23ea1cf49f138568984bb -->
<g id="node12" class="node">
<title>dir_2adf73cd42e23ea1cf49f138568984bb</title>
<g id="a_node12"><a xlink:href="dir_2adf73cd42e23ea1cf49f138568984bb.html" target="_top" xlink:title="JGadget">
<polygon fill="white" stroke="black" points="408.9,-196 354.9,-196 354.9,-160 408.9,-160 408.9,-196"/>
<text text-anchor="middle" x="381.9" y="-175.5" font-family="Helvetica,sans-Serif" font-size="10.00">JGadget</text>
</a>
</g>
</g>
<!-- dir_2adf73cd42e23ea1cf49f138568984bb&#45;&gt;dir_b778c3f297ab88300258a2935792c8cc -->
<g id="edge1" class="edge">
<title>dir_2adf73cd42e23ea1cf49f138568984bb&#45;&gt;dir_b778c3f297ab88300258a2935792c8cc</title>
<path fill="none" stroke="black" d="M354.65,-161.7C353.39,-161.11 352.14,-160.54 350.9,-160 306.65,-140.82 290.29,-143.66 245.36,-125.68"/>
<polygon fill="black" stroke="black" points="246.56,-122.39 235.98,-121.79 243.88,-128.85 246.56,-122.39"/>
<g id="a_edge1&#45;headlabel"><a xlink:href="dir_000053_000025.html" target="_top" xlink:title="3">
<text text-anchor="middle" x="250.97" y="-118.64" font-family="Helvetica,sans-Serif" font-size="10.00">3</text>
</a>
</g>
</g>
<!-- dir_cd1009b6de6f257cf504091b6f95eba2&#45;&gt;dir_b778c3f297ab88300258a2935792c8cc -->
<g id="edge11" class="edge">
<title>dir_cd1009b6de6f257cf504091b6f95eba2&#45;&gt;dir_b778c3f297ab88300258a2935792c8cc</title>
<path fill="none" stroke="black" d="M426.66,-163.31C423.74,-162.09 420.79,-160.96 417.9,-160 344.85,-135.72 318.62,-149.83 245.85,-125.51"/>
<polygon fill="black" stroke="black" points="246.84,-122.15 236.25,-122.17 244.55,-128.76 246.84,-122.15"/>
<g id="a_edge11&#45;headlabel"><a xlink:href="dir_000054_000025.html" target="_top" xlink:title="33">
<text text-anchor="middle" x="251.17" y="-118.15" font-family="Helvetica,sans-Serif" font-size="10.00">33</text>
</a>
</g>
</g>
<!-- dir_cd1009b6de6f257cf504091b6f95eba2&#45;&gt;dir_45593f23b58a9cb34ecfe1ccd7e4e81f -->
<g id="edge10" class="edge">
<title>dir_cd1009b6de6f257cf504091b6f95eba2&#45;&gt;dir_45593f23b58a9cb34ecfe1ccd7e4e81f</title>
<path fill="none" stroke="black" d="M453.67,-159.7C455.45,-151.81 458.35,-142.3 461.61,-133.55"/>
<polygon fill="black" stroke="black" points="464.92,-134.69 465.39,-124.1 458.42,-132.09 464.92,-134.69"/>
<g id="a_edge10&#45;headlabel"><a xlink:href="dir_000054_000064.html" target="_top" xlink:title="8">
<text text-anchor="middle" x="466.22" y="-136.58" font-family="Helvetica,sans-Serif" font-size="10.00">8</text>
</a>
</g>
</g>
<!-- dir_745c4d827b885b106b58a37f86b4723a&#45;&gt;dir_b778c3f297ab88300258a2935792c8cc -->
<g id="edge9" class="edge">
<title>dir_745c4d827b885b106b58a37f86b4723a&#45;&gt;dir_b778c3f297ab88300258a2935792c8cc</title>
<path fill="none" stroke="black" d="M730.78,-378.9C727.84,-377.76 724.85,-376.76 721.9,-376 660.99,-360.29 199.94,-385.87 156.9,-340 102.16,-281.66 126.64,-234.06 156.9,-160 161.39,-149.02 169.37,-139.08 177.76,-130.86"/>
<polygon fill="black" stroke="black" points="180.14,-133.42 185.15,-124.09 175.41,-128.26 180.14,-133.42"/>
<g id="a_edge9&#45;headlabel"><a xlink:href="dir_000055_000025.html" target="_top" xlink:title="4">
<text text-anchor="middle" x="179.4" y="-135.45" font-family="Helvetica,sans-Serif" font-size="10.00">4</text>
</a>
</g>
</g>
<!-- dir_49a47a08903d444eb2abc0c220e49786 -->
<g id="node15" class="node">
<title>dir_49a47a08903d444eb2abc0c220e49786</title>
<g id="a_node15"><a xlink:href="dir_49a47a08903d444eb2abc0c220e49786.html" target="_top" xlink:title="JMessage">
<polygon fill="white" stroke="black" points="494.9,-412 432.9,-412 432.9,-376 494.9,-376 494.9,-412"/>
<text text-anchor="middle" x="463.9" y="-391.5" font-family="Helvetica,sans-Serif" font-size="10.00">JMessage</text>
</a>
</g>
</g>
<!-- dir_49a47a08903d444eb2abc0c220e49786&#45;&gt;dir_b778c3f297ab88300258a2935792c8cc -->
<g id="edge28" class="edge">
<title>dir_49a47a08903d444eb2abc0c220e49786&#45;&gt;dir_b778c3f297ab88300258a2935792c8cc</title>
<path fill="none" stroke="black" d="M432.77,-378.73C429.81,-377.69 426.82,-376.75 423.9,-376 348.84,-356.62 128.81,-397.58 76.9,-340 23.33,-280.58 32.09,-226.27 76.9,-160 97.9,-128.94 140.43,-116.08 171.55,-110.76"/>
<polygon fill="black" stroke="black" points="172.27,-114.19 181.63,-109.22 171.21,-107.27 172.27,-114.19"/>
<g id="a_edge28&#45;headlabel"><a xlink:href="dir_000056_000025.html" target="_top" xlink:title="5">
<text text-anchor="middle" x="169.14" y="-115.03" font-family="Helvetica,sans-Serif" font-size="10.00">5</text>
</a>
</g>
</g>
<!-- dir_f1b491a5f48e85031c6ef4e5894314c1 -->
<g id="node16" class="node">
<title>dir_f1b491a5f48e85031c6ef4e5894314c1</title>
<g id="a_node16"><a xlink:href="dir_f1b491a5f48e85031c6ef4e5894314c1.html" target="_top" xlink:title="JParticle">
<polygon fill="white" stroke="black" points="568.4,-412 513.4,-412 513.4,-376 568.4,-376 568.4,-412"/>
<text text-anchor="middle" x="540.9" y="-391.5" font-family="Helvetica,sans-Serif" font-size="10.00">JParticle</text>
</a>
</g>
</g>
<!-- dir_f1b491a5f48e85031c6ef4e5894314c1&#45;&gt;dir_b778c3f297ab88300258a2935792c8cc -->
<g id="edge32" class="edge">
<title>dir_f1b491a5f48e85031c6ef4e5894314c1&#45;&gt;dir_b778c3f297ab88300258a2935792c8cc</title>
<path fill="none" stroke="black" d="M513.4,-379.13C510.25,-377.92 507.04,-376.83 503.9,-376 416.14,-352.71 158.21,-406.97 96.9,-340 42.88,-280.99 54.11,-227.59 96.9,-160 113.26,-134.17 145.97,-120.68 171.84,-113.8"/>
<polygon fill="black" stroke="black" points="172.84,-117.16 181.73,-111.39 171.19,-110.35 172.84,-117.16"/>
<g id="a_edge32&#45;headlabel"><a xlink:href="dir_000061_000025.html" target="_top" xlink:title="16">
<text text-anchor="middle" x="170.02" y="-118.26" font-family="Helvetica,sans-Serif" font-size="10.00">16</text>
</a>
</g>
</g>
<!-- dir_544b542202d39fd3aaf8ba56c4f2c043 -->
<g id="node17" class="node">
<title>dir_544b542202d39fd3aaf8ba56c4f2c043</title>
<g id="a_node17"><a xlink:href="dir_544b542202d39fd3aaf8ba56c4f2c043.html" target="_top" xlink:title="JStage">
<polygon fill="white" stroke="black" points="640.9,-412 586.9,-412 586.9,-376 640.9,-376 640.9,-412"/>
<text text-anchor="middle" x="613.9" y="-391.5" font-family="Helvetica,sans-Serif" font-size="10.00">JStage</text>
</a>
</g>
</g>
<!-- dir_544b542202d39fd3aaf8ba56c4f2c043&#45;&gt;dir_b778c3f297ab88300258a2935792c8cc -->
<g id="edge31" class="edge">
<title>dir_544b542202d39fd3aaf8ba56c4f2c043&#45;&gt;dir_b778c3f297ab88300258a2935792c8cc</title>
<path fill="none" stroke="black" d="M586.77,-378.94C583.83,-377.79 580.84,-376.78 577.9,-376 528.24,-362.81 151.79,-377.72 116.9,-340 62.58,-281.27 76.87,-229.26 116.9,-160 128.79,-139.43 152.03,-126.14 172.18,-118.01"/>
<polygon fill="black" stroke="black" points="173.62,-121.21 181.76,-114.42 171.17,-114.65 173.62,-121.21"/>
<g id="a_edge31&#45;headlabel"><a xlink:href="dir_000062_000025.html" target="_top" xlink:title="7">
<text text-anchor="middle" x="171.25" y="-122.62" font-family="Helvetica,sans-Serif" font-size="10.00">7</text>
</a>
</g>
</g>
<!-- dir_ddc9133ecf11e60602f1406a8bd2a6d3 -->
<g id="node18" class="node">
<title>dir_ddc9133ecf11e60602f1406a8bd2a6d3</title>
<g id="a_node18"><a xlink:href="dir_ddc9133ecf11e60602f1406a8bd2a6d3.html" target="_top" xlink:title="JStudio">
<polygon fill="white" stroke="red" points="712.9,-412 658.9,-412 658.9,-376 712.9,-376 712.9,-412"/>
<text text-anchor="middle" x="685.9" y="-391.5" font-family="Helvetica,sans-Serif" font-size="10.00">JStudio</text>
</a>
</g>
</g>
<!-- dir_ddc9133ecf11e60602f1406a8bd2a6d3&#45;&gt;dir_b778c3f297ab88300258a2935792c8cc -->
<g id="edge30" class="edge">
<title>dir_ddc9133ecf11e60602f1406a8bd2a6d3&#45;&gt;dir_b778c3f297ab88300258a2935792c8cc</title>
<path fill="none" stroke="black" d="M658.78,-378.92C655.84,-377.78 652.84,-376.77 649.9,-376 594.62,-361.55 175.87,-381.79 136.9,-340 82.35,-281.48 100.8,-231.39 136.9,-160 144.6,-144.77 158.96,-132.85 172.84,-124.2"/>
<polygon fill="black" stroke="black" points="174.93,-127.04 181.82,-118.99 171.42,-120.98 174.93,-127.04"/>
<g id="a_edge30&#45;headlabel"><a xlink:href="dir_000057_000025.html" target="_top" xlink:title="25">
<text text-anchor="middle" x="173.25" y="-128.8" font-family="Helvetica,sans-Serif" font-size="10.00">25</text>
</a>
</g>
</g>
<!-- dir_45593f23b58a9cb34ecfe1ccd7e4e81f&#45;&gt;dir_b778c3f297ab88300258a2935792c8cc -->
<g id="edge3" class="edge">
<title>dir_45593f23b58a9cb34ecfe1ccd7e4e81f&#45;&gt;dir_b778c3f297ab88300258a2935792c8cc</title>
<path fill="none" stroke="black" d="M448.68,-106C381.29,-106 313.89,-106 246.5,-106"/>
<polygon fill="black" stroke="black" points="246.12,-102.5 236.12,-106 246.12,-109.5 246.12,-102.5"/>
<g id="a_edge3&#45;headlabel"><a xlink:href="dir_000064_000025.html" target="_top" xlink:title="6">
<text text-anchor="middle" x="249.71" y="-97.16" font-family="Helvetica,sans-Serif" font-size="10.00">6</text>
</a>
</g>
</g>
<!-- dir_45593f23b58a9cb34ecfe1ccd7e4e81f&#45;&gt;dir_cd1009b6de6f257cf504091b6f95eba2 -->
<g id="edge4" class="edge">
<title>dir_45593f23b58a9cb34ecfe1ccd7e4e81f&#45;&gt;dir_cd1009b6de6f257cf504091b6f95eba2</title>
<path fill="none" stroke="black" d="M477.18,-124.1C475.42,-131.96 472.52,-141.46 469.28,-150.23"/>
<polygon fill="black" stroke="black" points="465.96,-149.11 465.5,-159.7 472.46,-151.71 465.96,-149.11"/>
<g id="a_edge4&#45;headlabel"><a xlink:href="dir_000064_000054.html" target="_top" xlink:title="1">
<text text-anchor="middle" x="464.65" y="-142.22" font-family="Helvetica,sans-Serif" font-size="10.00">1</text>
</a>
</g>
</g>
<!-- dir_25682d7fe27d5da48e7af3ae8c2abb7f&#45;&gt;dir_b778c3f297ab88300258a2935792c8cc -->
<g id="edge36" class="edge">
<title>dir_25682d7fe27d5da48e7af3ae8c2abb7f&#45;&gt;dir_b778c3f297ab88300258a2935792c8cc</title>
<path fill="none" stroke="black" d="M421.88,-234.1C420.54,-233.39 419.21,-232.68 417.9,-232 386.21,-215.4 372.95,-219.42 345.9,-196 331.18,-183.25 335.88,-172.45 320.9,-160 293.37,-137.13 278.48,-140.37 245.4,-125.92"/>
<polygon fill="black" stroke="black" points="246.62,-122.63 236.07,-121.59 243.67,-128.98 246.62,-122.63"/>
<g id="a_edge36&#45;headlabel"><a xlink:href="dir_000065_000025.html" target="_top" xlink:title="31">
<text text-anchor="middle" x="251.07" y="-119.06" font-family="Helvetica,sans-Serif" font-size="10.00">31</text>
</a>
</g>
</g>
<!-- dir_25682d7fe27d5da48e7af3ae8c2abb7f&#45;&gt;dir_6141ad2e1396b1970c524b101e645d67 -->
<g id="edge35" class="edge">
<title>dir_25682d7fe27d5da48e7af3ae8c2abb7f&#45;&gt;dir_6141ad2e1396b1970c524b101e645d67</title>
<path fill="none" stroke="black" d="M468.3,-231.55C477.9,-221.93 488.9,-209.27 495.9,-196 520.23,-149.85 547.99,-119.49 513.9,-80 483.44,-44.71 353.24,-36.61 273.12,-35.04"/>
<polygon fill="black" stroke="black" points="272.7,-31.53 262.64,-34.86 272.58,-38.53 272.7,-31.53"/>
<g id="a_edge35&#45;headlabel"><a xlink:href="dir_000065_001622.html" target="_top" xlink:title="3">
<text text-anchor="middle" x="276.34" y="-26.25" font-family="Helvetica,sans-Serif" font-size="10.00">3</text>
</a>
</g>
</g>
<!-- dir_25682d7fe27d5da48e7af3ae8c2abb7f&#45;&gt;dir_2adf73cd42e23ea1cf49f138568984bb -->
<g id="edge33" class="edge">
<title>dir_25682d7fe27d5da48e7af3ae8c2abb7f&#45;&gt;dir_2adf73cd42e23ea1cf49f138568984bb</title>
<path fill="none" stroke="black" d="M432.34,-231.7C424.23,-223.22 414.31,-212.86 405.43,-203.58"/>
<polygon fill="black" stroke="black" points="407.72,-200.91 398.27,-196.1 402.66,-205.75 407.72,-200.91"/>
<g id="a_edge33&#45;headlabel"><a xlink:href="dir_000065_000053.html" target="_top" xlink:title="1">
<text text-anchor="middle" x="412.25" y="-199.04" font-family="Helvetica,sans-Serif" font-size="10.00">1</text>
</a>
</g>
</g>
<!-- dir_25682d7fe27d5da48e7af3ae8c2abb7f&#45;&gt;dir_cd1009b6de6f257cf504091b6f95eba2 -->
<g id="edge37" class="edge">
<title>dir_25682d7fe27d5da48e7af3ae8c2abb7f&#45;&gt;dir_cd1009b6de6f257cf504091b6f95eba2</title>
<path fill="none" stroke="black" d="M450.14,-231.7C450.69,-223.98 451.35,-214.71 451.96,-206.11"/>
<polygon fill="black" stroke="black" points="455.46,-206.33 452.68,-196.1 448.48,-205.83 455.46,-206.33"/>
<g id="a_edge37&#45;headlabel"><a xlink:href="dir_000065_000054.html" target="_top" xlink:title="6">
<text text-anchor="middle" x="458.03" y="-207.62" font-family="Helvetica,sans-Serif" font-size="10.00">6</text>
</a>
</g>
</g>
<!-- dir_25682d7fe27d5da48e7af3ae8c2abb7f&#45;&gt;dir_45593f23b58a9cb34ecfe1ccd7e4e81f -->
<g id="edge34" class="edge">
<title>dir_25682d7fe27d5da48e7af3ae8c2abb7f&#45;&gt;dir_45593f23b58a9cb34ecfe1ccd7e4e81f</title>
<path fill="none" stroke="black" d="M467.07,-231.68C475.79,-222.1 485.31,-209.43 489.9,-196 496.81,-175.77 492.61,-151.73 487.21,-133.73"/>
<polygon fill="black" stroke="black" points="490.51,-132.57 484.06,-124.17 483.87,-134.76 490.51,-132.57"/>
<g id="a_edge34&#45;headlabel"><a xlink:href="dir_000065_000064.html" target="_top" xlink:title="1">
<text text-anchor="middle" x="494.34" y="-132.59" font-family="Helvetica,sans-Serif" font-size="10.00">1</text>
</a>
</g>
</g>
</g>
</svg>
        <g id="navigator" transform="translate(0 0)" fill="#404254">
                <rect fill="#f2f5e9" fill-opacity="0.5" stroke="#606060" stroke-width=".5" x="0" y="0" width="60" height="60"/>
                <use id="zoomplus" xlink:href="#zoomPlus" x="17" y="9" onmousedown="handleZoom(evt,'in')"/>
                <use id="zoomminus" xlink:href="#zoomMin" x="42" y="9" onmousedown="handleZoom(evt,'out')"/>
                <use id="reset" xlink:href="#resetDef" x="30" y="36" onmousedown="handleReset()"/>
                <g id="arrowUp" xlink:href="#dirArrow" transform="translate(30 24)" onmousedown="handlePan(0,-1)">
                  <use xlink:href="#rim" fill="#404040">
                        <set attributeName="fill" to="#808080" begin="arrowUp.mouseover" end="arrowUp.mouseout"/>
                  </use>
                  <path fill="none" stroke="white" stroke-width="1.5" d="M0,-3.0v7 M-2.5,-0.5L0,-3.0L2.5,-0.5"/>
                </g>
                <g id="arrowRight" xlink:href="#dirArrow" transform="rotate(90) translate(36 -43)" onmousedown="handlePan(1,0)">
                  <use xlink:href="#rim" fill="#404040">
                        <set attributeName="fill" to="#808080" begin="arrowRight.mouseover" end="arrowRight.mouseout"/>
                  </use>
                  <path fill="none" stroke="white" stroke-width="1.5" d="M0,-3.0v7 M-2.5,-0.5L0,-3.0L2.5,-0.5"/>
                </g>
                <g id="arrowDown" xlink:href="#dirArrow" transform="rotate(180) translate(-30 -48)" onmousedown="handlePan(0,1)">
                  <use xlink:href="#rim" fill="#404040">
                        <set attributeName="fill" to="#808080" begin="arrowDown.mouseover" end="arrowDown.mouseout"/>
                  </use>
                  <path fill="none" stroke="white" stroke-width="1.5" d="M0,-3.0v7 M-2.5,-0.5L0,-3.0L2.5,-0.5"/>
                </g>
                <g id="arrowLeft" xlink:href="#dirArrow" transform="rotate(270) translate(-36 17)" onmousedown="handlePan(-1,0)">
                  <use xlink:href="#rim" fill="#404040">
                        <set attributeName="fill" to="#808080" begin="arrowLeft.mouseover" end="arrowLeft.mouseout"/>
                  </use>
                  <path fill="none" stroke="white" stroke-width="1.5" d="M0,-3.0v7 M-2.5,-0.5L0,-3.0L2.5,-0.5"/>
                </g>
        </g>
        <svg viewBox="0 0 15 15" width="100%" height="30px" preserveAspectRatio="xMaxYMin meet">
         <g id="arrow_out" transform="scale(0.3 0.3)">
          <a xlink:href="dir_4f0979a7f5e3194619cde56505e372d8_dep_org.svg" target="_base">
           <rect id="button" ry="5" rx="5" y="6" x="6" height="38" width="38"
                fill="#f2f5e9" fill-opacity="0.5" stroke="#606060" stroke-width="1.0"/>
           <path id="arrow"
             d="M 11.500037,31.436501 C 11.940474,20.09759 22.043105,11.32322 32.158766,21.979434 L 37.068811,17.246167 C 37.068811,17.246167 37.088388,32 37.088388,32 L 22.160133,31.978069 C 22.160133,31.978069 26.997745,27.140456 26.997745,27.140456 C 18.528582,18.264221 13.291696,25.230495 11.500037,31.436501 z"
             style="fill:#404040;"/>
          </a>
         </g>
        </svg>
</svg>
