<?xml version="1.0" encoding="UTF-8" standalone="no"?>
<!DOCTYPE svg PUBLIC "-//W3C//DTD SVG 1.1//EN"
 "http://www.w3.org/Graphics/SVG/1.1/DTD/svg11.dtd">
<!-- Generated by graphviz version 2.44.0 ()
 -->
<!-- Title: include Pages: 1 -->
<!--zoomable 364 -->
<svg id="main" version="1.1" xmlns="http://www.w3.org/2000/svg" xmlns:xlink="http://www.w3.org/1999/xlink" xml:space="preserve" onload="init(evt)">
<style type="text/css"><![CDATA[
.edge:hover path { stroke: red; }
.edge:hover polygon { stroke: red; fill: red; }
]]></style>
<script type="text/javascript"><![CDATA[
var edges = document.getElementsByTagName('g');
if (edges && edges.length) {
  for (var i=0;i<edges.length;i++) {
    if (edges[i].id.substr(0,4)=='edge') {
      edges[i].setAttribute('class','edge');
    }
  }
}
]]></script>
        <defs>
                <circle id="rim" cx="0" cy="0" r="7"/>
                <circle id="rim2" cx="0" cy="0" r="3.5"/>
                <g id="zoomPlus">
                        <use xlink:href="#rim" fill="#404040">
                                <set attributeName="fill" to="#808080" begin="zoomplus.mouseover" end="zoomplus.mouseout"/>
                        </use>
                        <path d="M-4,0h8M0,-4v8" fill="none" stroke="white" stroke-width="1.5" pointer-events="none"/>
                </g>
                <g id="zoomMin">
                        <use xlink:href="#rim" fill="#404040">
                                <set attributeName="fill" to="#808080" begin="zoomminus.mouseover" end="zoomminus.mouseout"/>
                        </use>
                        <path d="M-4,0h8" fill="none" stroke="white" stroke-width="1.5" pointer-events="none"/>
                </g>
                <g id="dirArrow">
                        <path fill="none" stroke="white" stroke-width="1.5" d="M0,-3.0v7 M-2.5,-0.5L0,-3.0L2.5,-0.5"/>
                </g>
               <g id="resetDef">
                       <use xlink:href="#rim2" fill="#404040">
                               <set attributeName="fill" to="#808080" begin="reset.mouseover" end="reset.mouseout"/>
                       </use>
               </g>
        </defs>

<script type="text/javascript">
var viewWidth = 1261;
var viewHeight = 364;
var sectionId = 'dynsection-0';
</script>
<script xlink:href="svgpan.js"/>
<svg id="graph" class="graph">
<g id="viewport">
<title>include</title>
<polygon fill="white" stroke="transparent" points="-4,4 -4,-360 1257,-360 1257,4 -4,4"/>
<g id="clust1" class="cluster">
<title>clusterdir_d44c64559bbebec7f509842c48db8b23</title>
<g id="a_clust1"><a xlink:href="dir_d44c64559bbebec7f509842c48db8b23.html" target="_top">
<polygon fill="#eeeeff" stroke="black" points="8,-8 8,-348 1245,-348 1245,-8 8,-8"/>
</a>
</g>
</g>
<!-- dir_d44c64559bbebec7f509842c48db8b23 -->
<g id="node1" class="node">
<title>dir_d44c64559bbebec7f509842c48db8b23</title>
<text text-anchor="middle" x="1052" y="-319.5" font-family="Helvetica,sans-Serif" font-size="10.00">include</text>
</g>
<!-- dir_755f0d2039dcbad844014f016ea14e59 -->
<g id="node2" class="node">
<title>dir_755f0d2039dcbad844014f016ea14e59</title>
<g id="a_node2"><a xlink:href="dir_755f0d2039dcbad844014f016ea14e59.html" target="_top" xlink:title="a">
<polygon fill="white" stroke="red" points="1237,-124 1183,-124 1183,-88 1237,-88 1237,-124"/>
<text text-anchor="middle" x="1210" y="-103.5" font-family="Helvetica,sans-Serif" font-size="10.00">a</text>
</a>
</g>
</g>
<!-- dir_b778c3f297ab88300258a2935792c8cc -->
<g id="node6" class="node">
<title>dir_b778c3f297ab88300258a2935792c8cc</title>
<g id="a_node6"><a xlink:href="dir_b778c3f297ab88300258a2935792c8cc.html" target="_top" xlink:title="dolphin">
<polygon fill="white" stroke="red" points="766,-52 712,-52 712,-16 766,-16 766,-52"/>
<text text-anchor="middle" x="739" y="-31.5" font-family="Helvetica,sans-Serif" font-size="10.00">dolphin</text>
</a>
</g>
</g>
<!-- dir_755f0d2039dcbad844014f016ea14e59&#45;&gt;dir_b778c3f297ab88300258a2935792c8cc -->
<g id="edge6" class="edge">
<title>dir_755f0d2039dcbad844014f016ea14e59&#45;&gt;dir_b778c3f297ab88300258a2935792c8cc</title>
<path fill="none" stroke="black" d="M1182.84,-91.07C1179.9,-89.9 1176.92,-88.84 1174,-88 1030.89,-46.66 852.24,-37.55 776.12,-35.56"/>
<polygon fill="black" stroke="black" points="776.15,-32.06 766.07,-35.32 775.99,-39.05 776.15,-32.06"/>
<g id="a_edge6&#45;headlabel"><a xlink:href="dir_000002_000025.html" target="_top" xlink:title="4">
<text text-anchor="middle" x="779.81" y="-26.8" font-family="Helvetica,sans-Serif" font-size="10.00">4</text>
</a>
</g>
</g>
<!-- dir_69c21e3fe128ba7f70ba19e6abc39168 -->
<g id="node3" class="node">
<title>dir_69c21e3fe128ba7f70ba19e6abc39168</title>
<g id="a_node3"><a xlink:href="dir_69c21e3fe128ba7f70ba19e6abc39168.html" target="_top" xlink:title="amcstubs">
<polygon fill="white" stroke="black" points="1164.5,-124 1105.5,-124 1105.5,-88 1164.5,-88 1164.5,-124"/>
<text text-anchor="middle" x="1135" y="-103.5" font-family="Helvetica,sans-Serif" font-size="10.00">amcstubs</text>
</a>
</g>
</g>
<!-- dir_69c21e3fe128ba7f70ba19e6abc39168&#45;&gt;dir_b778c3f297ab88300258a2935792c8cc -->
<g id="edge4" class="edge">
<title>dir_69c21e3fe128ba7f70ba19e6abc39168&#45;&gt;dir_b778c3f297ab88300258a2935792c8cc</title>
<path fill="none" stroke="black" d="M1105.49,-91.18C1102.33,-89.99 1099.12,-88.9 1096,-88 982.46,-55.45 842.56,-42.1 776.68,-37.32"/>
<polygon fill="black" stroke="black" points="776.61,-33.81 766.39,-36.6 776.12,-40.79 776.61,-33.81"/>
<g id="a_edge4&#45;headlabel"><a xlink:href="dir_000005_000025.html" target="_top" xlink:title="1">
<text text-anchor="middle" x="780.39" y="-28.73" font-family="Helvetica,sans-Serif" font-size="10.00">1</text>
</a>
</g>
</g>
<!-- dir_f0bbaeb96b1b216779501c980a5af6c6 -->
<g id="node4" class="node">
<title>dir_f0bbaeb96b1b216779501c980a5af6c6</title>
<g id="a_node4"><a xlink:href="dir_f0bbaeb96b1b216779501c980a5af6c6.html" target="_top" xlink:title="c">
<polygon fill="white" stroke="black" points="1087,-124 1033,-124 1033,-88 1087,-88 1087,-124"/>
<text text-anchor="middle" x="1060" y="-103.5" font-family="Helvetica,sans-Serif" font-size="10.00">c</text>
</a>
</g>
</g>
<!-- dir_f0bbaeb96b1b216779501c980a5af6c6&#45;&gt;dir_b778c3f297ab88300258a2935792c8cc -->
<g id="edge5" class="edge">
<title>dir_f0bbaeb96b1b216779501c980a5af6c6&#45;&gt;dir_b778c3f297ab88300258a2935792c8cc</title>
<path fill="none" stroke="black" d="M1032.94,-92.86C1028.34,-91.07 1023.58,-89.37 1019,-88 933.89,-62.6 830.45,-46.76 776.24,-39.56"/>
<polygon fill="black" stroke="black" points="776.45,-36.06 766.08,-38.24 775.54,-43 776.45,-36.06"/>
<g id="a_edge5&#45;headlabel"><a xlink:href="dir_000006_000025.html" target="_top" xlink:title="2">
<text text-anchor="middle" x="780.38" y="-31.21" font-family="Helvetica,sans-Serif" font-size="10.00">2</text>
</a>
</g>
</g>
<!-- dir_cc3ad1aed4be3f446fdd7af78322f5bf -->
<g id="node5" class="node">
<title>dir_cc3ad1aed4be3f446fdd7af78322f5bf</title>
<g id="a_node5"><a xlink:href="dir_cc3ad1aed4be3f446fdd7af78322f5bf.html" target="_top" xlink:title="d">
<polygon fill="white" stroke="red" points="827,-340 773,-340 773,-304 827,-304 827,-340"/>
<text text-anchor="middle" x="800" y="-319.5" font-family="Helvetica,sans-Serif" font-size="10.00">d</text>
</a>
</g>
</g>
<!-- dir_cc3ad1aed4be3f446fdd7af78322f5bf&#45;&gt;dir_b778c3f297ab88300258a2935792c8cc -->
<g id="edge39" class="edge">
<title>dir_cc3ad1aed4be3f446fdd7af78322f5bf&#45;&gt;dir_b778c3f297ab88300258a2935792c8cc</title>
<path fill="none" stroke="black" d="M772.76,-311.22C731.51,-294.74 654.67,-257.13 623,-196 615.73,-181.97 611.02,-107.97 624,-88 641.26,-61.44 675.53,-47.99 702.18,-41.3"/>
<polygon fill="black" stroke="black" points="703.01,-44.71 711.98,-39.06 701.45,-37.88 703.01,-44.71"/>
<g id="a_edge39&#45;headlabel"><a xlink:href="dir_000007_000025.html" target="_top" xlink:title="148">
<text text-anchor="middle" x="700.14" y="-45.78" font-family="Helvetica,sans-Serif" font-size="10.00">148</text>
</a>
</g>
</g>
<!-- dir_fbb29e8cafd745cbb7106b56de6b5377 -->
<g id="node9" class="node">
<title>dir_fbb29e8cafd745cbb7106b56de6b5377</title>
<g id="a_node9"><a xlink:href="dir_fbb29e8cafd745cbb7106b56de6b5377.html" target="_top" xlink:title="f_op">
<polygon fill="white" stroke="black" points="804,-268 750,-268 750,-232 804,-232 804,-268"/>
<text text-anchor="middle" x="777" y="-247.5" font-family="Helvetica,sans-Serif" font-size="10.00">f_op</text>
</a>
</g>
</g>
<!-- dir_cc3ad1aed4be3f446fdd7af78322f5bf&#45;&gt;dir_fbb29e8cafd745cbb7106b56de6b5377 -->
<g id="edge40" class="edge">
<title>dir_cc3ad1aed4be3f446fdd7af78322f5bf&#45;&gt;dir_fbb29e8cafd745cbb7106b56de6b5377</title>
<path fill="none" stroke="black" d="M788.4,-303.7C785.03,-295.9 781.72,-286.51 779.23,-277.83"/>
<polygon fill="black" stroke="black" points="782.61,-276.91 776.72,-268.1 775.83,-278.66 782.61,-276.91"/>
<g id="a_edge40&#45;headlabel"><a xlink:href="dir_000007_000043.html" target="_top" xlink:title="11">
<text text-anchor="middle" x="786.26" y="-277.19" font-family="Helvetica,sans-Serif" font-size="10.00">11</text>
</a>
</g>
</g>
<!-- dir_4f0979a7f5e3194619cde56505e372d8 -->
<g id="node11" class="node">
<title>dir_4f0979a7f5e3194619cde56505e372d8</title>
<g id="a_node11"><a xlink:href="dir_4f0979a7f5e3194619cde56505e372d8.html" target="_top" xlink:title="JSystem">
<polygon fill="white" stroke="red" points="790.5,-124 735.5,-124 735.5,-88 790.5,-88 790.5,-124"/>
<text text-anchor="middle" x="763" y="-103.5" font-family="Helvetica,sans-Serif" font-size="10.00">JSystem</text>
</a>
</g>
</g>
<!-- dir_cc3ad1aed4be3f446fdd7af78322f5bf&#45;&gt;dir_4f0979a7f5e3194619cde56505e372d8 -->
<g id="edge34" class="edge">
<title>dir_cc3ad1aed4be3f446fdd7af78322f5bf&#45;&gt;dir_4f0979a7f5e3194619cde56505e372d8</title>
<path fill="none" stroke="black" d="M772.82,-304.34C760.67,-295.26 747.62,-282.84 741,-268 721.32,-223.87 737.82,-166.72 750.9,-133.73"/>
<polygon fill="black" stroke="black" points="754.21,-134.88 754.81,-124.3 747.74,-132.2 754.21,-134.88"/>
<g id="a_edge34&#45;headlabel"><a xlink:href="dir_000007_000045.html" target="_top" xlink:title="27">
<text text-anchor="middle" x="755.46" y="-136.79" font-family="Helvetica,sans-Serif" font-size="10.00">27</text>
</a>
</g>
</g>
<!-- dir_6bdfff2c28f90f381b6da5bee088878b -->
<g id="node12" class="node">
<title>dir_6bdfff2c28f90f381b6da5bee088878b</title>
<g id="a_node12"><a xlink:href="dir_6bdfff2c28f90f381b6da5bee088878b.html" target="_top" xlink:title="m_Do">
<polygon fill="white" stroke="black" points="897,-268 843,-268 843,-232 897,-232 897,-268"/>
<text text-anchor="middle" x="870" y="-247.5" font-family="Helvetica,sans-Serif" font-size="10.00">m_Do</text>
</a>
</g>
</g>
<!-- dir_cc3ad1aed4be3f446fdd7af78322f5bf&#45;&gt;dir_6bdfff2c28f90f381b6da5bee088878b -->
<g id="edge36" class="edge">
<title>dir_cc3ad1aed4be3f446fdd7af78322f5bf&#45;&gt;dir_6bdfff2c28f90f381b6da5bee088878b</title>
<path fill="none" stroke="black" d="M817.3,-303.7C825.86,-295.14 836.34,-284.66 845.7,-275.3"/>
<polygon fill="black" stroke="black" points="848.3,-277.65 852.9,-268.1 843.35,-272.7 848.3,-277.65"/>
<g id="a_edge36&#45;headlabel"><a xlink:href="dir_000007_000066.html" target="_top" xlink:title="6">
<text text-anchor="middle" x="847.77" y="-279.7" font-family="Helvetica,sans-Serif" font-size="10.00">6</text>
</a>
</g>
</g>
<!-- dir_b056c41af2f37e34bf043d25c5f2cbe4 -->
<g id="node14" class="node">
<title>dir_b056c41af2f37e34bf043d25c5f2cbe4</title>
<g id="a_node14"><a xlink:href="dir_b056c41af2f37e34bf043d25c5f2cbe4.html" target="_top" xlink:title="msl_c">
<polygon fill="white" stroke="black" points="955,-124 901,-124 901,-88 955,-88 955,-124"/>
<text text-anchor="middle" x="928" y="-103.5" font-family="Helvetica,sans-Serif" font-size="10.00">msl_c</text>
</a>
</g>
</g>
<!-- dir_cc3ad1aed4be3f446fdd7af78322f5bf&#45;&gt;dir_b056c41af2f37e34bf043d25c5f2cbe4 -->
<g id="edge38" class="edge">
<title>dir_cc3ad1aed4be3f446fdd7af78322f5bf&#45;&gt;dir_b056c41af2f37e34bf043d25c5f2cbe4</title>
<path fill="none" stroke="black" d="M827.36,-318.94C883.27,-314.11 1007.51,-299.94 1033,-268 1041.83,-256.93 1048.11,-185.89 1032,-160 1017.29,-136.36 988.42,-122.83 964.82,-115.37"/>
<polygon fill="black" stroke="black" points="965.67,-111.97 955.09,-112.53 963.71,-118.69 965.67,-111.97"/>
<g id="a_edge38&#45;headlabel"><a xlink:href="dir_000007_000078.html" target="_top" xlink:title="2">
<text text-anchor="middle" x="969.91" y="-107.75" font-family="Helvetica,sans-Serif" font-size="10.00">2</text>
</a>
</g>
</g>
<!-- dir_54283da8a0cf1311a88c964d76512876 -->
<g id="node20" class="node">
<title>dir_54283da8a0cf1311a88c964d76512876</title>
<g id="a_node20"><a xlink:href="dir_54283da8a0cf1311a88c964d76512876.html" target="_top" xlink:title="SSystem">
<polygon fill="white" stroke="red" points="851,-196 795,-196 795,-160 851,-160 851,-196"/>
<text text-anchor="middle" x="823" y="-175.5" font-family="Helvetica,sans-Serif" font-size="10.00">SSystem</text>
</a>
</g>
</g>
<!-- dir_cc3ad1aed4be3f446fdd7af78322f5bf&#45;&gt;dir_54283da8a0cf1311a88c964d76512876 -->
<g id="edge35" class="edge">
<title>dir_cc3ad1aed4be3f446fdd7af78322f5bf&#45;&gt;dir_54283da8a0cf1311a88c964d76512876</title>
<path fill="none" stroke="black" d="M804.78,-303.93C807.52,-293.6 810.84,-280.13 813,-268 816.66,-247.46 819.23,-224.01 820.85,-206.34"/>
<polygon fill="black" stroke="black" points="824.35,-206.42 821.73,-196.16 817.38,-205.81 824.35,-206.42"/>
<g id="a_edge35&#45;headlabel"><a xlink:href="dir_000007_001623.html" target="_top" xlink:title="34">
<text text-anchor="middle" x="826.87" y="-207.75" font-family="Helvetica,sans-Serif" font-size="10.00">34</text>
</a>
</g>
</g>
<!-- dir_81939fb769658ab66ba54ec390580a1a -->
<g id="node22" class="node">
<title>dir_81939fb769658ab66ba54ec390580a1a</title>
<g id="a_node22"><a xlink:href="dir_81939fb769658ab66ba54ec390580a1a.html" target="_top" xlink:title="Z2AudioLib">
<polygon fill="white" stroke="black" points="1024,-268 958,-268 958,-232 1024,-232 1024,-268"/>
<text text-anchor="middle" x="991" y="-247.5" font-family="Helvetica,sans-Serif" font-size="10.00">Z2AudioLib</text>
</a>
</g>
</g>
<!-- dir_cc3ad1aed4be3f446fdd7af78322f5bf&#45;&gt;dir_81939fb769658ab66ba54ec390580a1a -->
<g id="edge37" class="edge">
<title>dir_cc3ad1aed4be3f446fdd7af78322f5bf&#45;&gt;dir_81939fb769658ab66ba54ec390580a1a</title>
<path fill="none" stroke="black" d="M827.37,-310.97C858.99,-299.38 911.42,-280.17 948.39,-266.61"/>
<polygon fill="black" stroke="black" points="949.73,-269.85 957.91,-263.13 947.32,-263.28 949.73,-269.85"/>
<g id="a_edge37&#45;headlabel"><a xlink:href="dir_000007_001641.html" target="_top" xlink:title="4">
<text text-anchor="middle" x="947.33" y="-271.26" font-family="Helvetica,sans-Serif" font-size="10.00">4</text>
</a>
</g>
</g>
<!-- dir_bd30b2f27e7c332535a4051e395ad81c -->
<g id="node7" class="node">
<title>dir_bd30b2f27e7c332535a4051e395ad81c</title>
<g id="a_node7"><a xlink:href="dir_bd30b2f27e7c332535a4051e395ad81c.html" target="_top" xlink:title="exi">
<polygon fill="white" stroke="black" points="697,-124 643,-124 643,-88 697,-88 697,-124"/>
<text text-anchor="middle" x="670" y="-103.5" font-family="Helvetica,sans-Serif" font-size="10.00">exi</text>
</a>
</g>
</g>
<!-- dir_bd30b2f27e7c332535a4051e395ad81c&#45;&gt;dir_b778c3f297ab88300258a2935792c8cc -->
<g id="edge14" class="edge">
<title>dir_bd30b2f27e7c332535a4051e395ad81c&#45;&gt;dir_b778c3f297ab88300258a2935792c8cc</title>
<path fill="none" stroke="black" d="M687.06,-87.7C695.5,-79.14 705.82,-68.66 715.04,-59.3"/>
<polygon fill="black" stroke="black" points="717.61,-61.68 722.14,-52.1 712.63,-56.77 717.61,-61.68"/>
<g id="a_edge14&#45;headlabel"><a xlink:href="dir_000041_000025.html" target="_top" xlink:title="2">
<text text-anchor="middle" x="717.11" y="-63.74" font-family="Helvetica,sans-Serif" font-size="10.00">2</text>
</a>
</g>
</g>
<!-- dir_842110f85f767812b47b9e09c1085d00 -->
<g id="node8" class="node">
<title>dir_842110f85f767812b47b9e09c1085d00</title>
<g id="a_node8"><a xlink:href="dir_842110f85f767812b47b9e09c1085d00.html" target="_top" xlink:title="f_ap">
<polygon fill="white" stroke="black" points="697,-196 643,-196 643,-160 697,-160 697,-196"/>
<text text-anchor="middle" x="670" y="-175.5" font-family="Helvetica,sans-Serif" font-size="10.00">f_ap</text>
</a>
</g>
</g>
<!-- dir_842110f85f767812b47b9e09c1085d00&#45;&gt;dir_b778c3f297ab88300258a2935792c8cc -->
<g id="edge2" class="edge">
<title>dir_842110f85f767812b47b9e09c1085d00&#45;&gt;dir_b778c3f297ab88300258a2935792c8cc</title>
<path fill="none" stroke="black" d="M653.84,-159.8C638.48,-141.26 619.67,-111.28 634,-88 648.7,-64.11 677.86,-50.6 701.73,-43.2"/>
<polygon fill="black" stroke="black" points="702.92,-46.51 711.58,-40.4 701,-39.77 702.92,-46.51"/>
<g id="a_edge2&#45;headlabel"><a xlink:href="dir_000042_000025.html" target="_top" xlink:title="1">
<text text-anchor="middle" x="700.24" y="-47.72" font-family="Helvetica,sans-Serif" font-size="10.00">1</text>
</a>
</g>
</g>
<!-- dir_842110f85f767812b47b9e09c1085d00&#45;&gt;dir_4f0979a7f5e3194619cde56505e372d8 -->
<g id="edge1" class="edge">
<title>dir_842110f85f767812b47b9e09c1085d00&#45;&gt;dir_4f0979a7f5e3194619cde56505e372d8</title>
<path fill="none" stroke="black" d="M692.99,-159.7C704.81,-150.8 719.39,-139.82 732.18,-130.2"/>
<polygon fill="black" stroke="black" points="734.39,-132.91 740.28,-124.1 730.18,-127.32 734.39,-132.91"/>
<g id="a_edge1&#45;headlabel"><a xlink:href="dir_000042_000045.html" target="_top" xlink:title="1">
<text text-anchor="middle" x="733.23" y="-134.84" font-family="Helvetica,sans-Serif" font-size="10.00">1</text>
</a>
</g>
</g>
<!-- dir_fbb29e8cafd745cbb7106b56de6b5377&#45;&gt;dir_cc3ad1aed4be3f446fdd7af78322f5bf -->
<g id="edge22" class="edge">
<title>dir_fbb29e8cafd745cbb7106b56de6b5377&#45;&gt;dir_cc3ad1aed4be3f446fdd7af78322f5bf</title>
<path fill="none" stroke="black" d="M788.52,-268.1C791.88,-275.88 795.2,-285.26 797.7,-293.95"/>
<polygon fill="black" stroke="black" points="794.33,-294.89 800.23,-303.7 801.11,-293.14 794.33,-294.89"/>
<g id="a_edge22&#45;headlabel"><a xlink:href="dir_000043_000007.html" target="_top" xlink:title="1">
<text text-anchor="middle" x="790.68" y="-289.63" font-family="Helvetica,sans-Serif" font-size="10.00">1</text>
</a>
</g>
</g>
<!-- dir_fbb29e8cafd745cbb7106b56de6b5377&#45;&gt;dir_b778c3f297ab88300258a2935792c8cc -->
<g id="edge21" class="edge">
<title>dir_fbb29e8cafd745cbb7106b56de6b5377&#45;&gt;dir_b778c3f297ab88300258a2935792c8cc</title>
<path fill="none" stroke="black" d="M749.9,-247.76C716.27,-244.58 660.16,-233.6 634,-196 624.86,-182.87 625.59,-173.61 634,-160 652.81,-129.57 682.11,-150.63 706,-124 721.6,-106.61 730.04,-81.19 734.47,-61.97"/>
<polygon fill="black" stroke="black" points="737.93,-62.52 736.54,-52.01 731.07,-61.09 737.93,-62.52"/>
<g id="a_edge21&#45;headlabel"><a xlink:href="dir_000043_000025.html" target="_top" xlink:title="18">
<text text-anchor="middle" x="739.98" y="-64.11" font-family="Helvetica,sans-Serif" font-size="10.00">18</text>
</a>
</g>
</g>
<!-- dir_14c28d3bb977da9b21a3aa2d366ba228 -->
<g id="node10" class="node">
<title>dir_14c28d3bb977da9b21a3aa2d366ba228</title>
<g id="a_node10"><a xlink:href="dir_14c28d3bb977da9b21a3aa2d366ba228.html" target="_top" xlink:title="f_pc">
<polygon fill="white" stroke="black" points="863,-124 809,-124 809,-88 863,-88 863,-124"/>
<text text-anchor="middle" x="836" y="-103.5" font-family="Helvetica,sans-Serif" font-size="10.00">f_pc</text>
</a>
</g>
</g>
<!-- dir_fbb29e8cafd745cbb7106b56de6b5377&#45;&gt;dir_14c28d3bb977da9b21a3aa2d366ba228 -->
<g id="edge18" class="edge">
<title>dir_fbb29e8cafd745cbb7106b56de6b5377&#45;&gt;dir_14c28d3bb977da9b21a3aa2d366ba228</title>
<path fill="none" stroke="black" d="M775.55,-231.75C774.7,-213.18 775.42,-183.17 786,-160 790.87,-149.34 798.76,-139.46 806.85,-131.18"/>
<polygon fill="black" stroke="black" points="809.48,-133.51 814.26,-124.06 804.62,-128.47 809.48,-133.51"/>
<g id="a_edge18&#45;headlabel"><a xlink:href="dir_000043_000044.html" target="_top" xlink:title="13">
<text text-anchor="middle" x="808.86" y="-135.55" font-family="Helvetica,sans-Serif" font-size="10.00">13</text>
</a>
</g>
</g>
<!-- dir_fbb29e8cafd745cbb7106b56de6b5377&#45;&gt;dir_4f0979a7f5e3194619cde56505e372d8 -->
<g id="edge19" class="edge">
<title>dir_fbb29e8cafd745cbb7106b56de6b5377&#45;&gt;dir_4f0979a7f5e3194619cde56505e372d8</title>
<path fill="none" stroke="black" d="M765.95,-231.61C760.26,-221.62 753.92,-208.58 751,-196 746.23,-175.43 749.86,-151.72 754.34,-133.95"/>
<polygon fill="black" stroke="black" points="757.74,-134.81 757.02,-124.23 750.99,-132.94 757.74,-134.81"/>
<g id="a_edge19&#45;headlabel"><a xlink:href="dir_000043_000045.html" target="_top" xlink:title="2">
<text text-anchor="middle" x="759.52" y="-136.53" font-family="Helvetica,sans-Serif" font-size="10.00">2</text>
</a>
</g>
</g>
<!-- dir_fbb29e8cafd745cbb7106b56de6b5377&#45;&gt;dir_54283da8a0cf1311a88c964d76512876 -->
<g id="edge20" class="edge">
<title>dir_fbb29e8cafd745cbb7106b56de6b5377&#45;&gt;dir_54283da8a0cf1311a88c964d76512876</title>
<path fill="none" stroke="black" d="M782.46,-231.7C787.01,-223.47 793.37,-213.48 799.77,-204.42"/>
<polygon fill="black" stroke="black" points="802.78,-206.24 805.86,-196.1 797.13,-202.1 802.78,-206.24"/>
<g id="a_edge20&#45;headlabel"><a xlink:href="dir_000043_001623.html" target="_top" xlink:title="13">
<text text-anchor="middle" x="802.95" y="-208.32" font-family="Helvetica,sans-Serif" font-size="10.00">13</text>
</a>
</g>
</g>
<!-- dir_14c28d3bb977da9b21a3aa2d366ba228&#45;&gt;dir_b778c3f297ab88300258a2935792c8cc -->
<g id="edge13" class="edge">
<title>dir_14c28d3bb977da9b21a3aa2d366ba228&#45;&gt;dir_b778c3f297ab88300258a2935792c8cc</title>
<path fill="none" stroke="black" d="M812.02,-87.7C799.69,-78.8 784.48,-67.82 771.15,-58.2"/>
<polygon fill="black" stroke="black" points="772.86,-55.12 762.7,-52.1 768.76,-60.79 772.86,-55.12"/>
<g id="a_edge13&#45;headlabel"><a xlink:href="dir_000044_000025.html" target="_top" xlink:title="24">
<text text-anchor="middle" x="777.44" y="-52.42" font-family="Helvetica,sans-Serif" font-size="10.00">24</text>
</a>
</g>
</g>
<!-- dir_14c28d3bb977da9b21a3aa2d366ba228&#45;&gt;dir_54283da8a0cf1311a88c964d76512876 -->
<g id="edge12" class="edge">
<title>dir_14c28d3bb977da9b21a3aa2d366ba228&#45;&gt;dir_54283da8a0cf1311a88c964d76512876</title>
<path fill="none" stroke="black" d="M838.72,-124.1C838.09,-131.88 836.58,-141.26 834.62,-149.95"/>
<polygon fill="black" stroke="black" points="831.21,-149.14 832.13,-159.7 837.99,-150.87 831.21,-149.14"/>
<g id="a_edge12&#45;headlabel"><a xlink:href="dir_000044_001623.html" target="_top" xlink:title="23">
<text text-anchor="middle" x="829.35" y="-142.46" font-family="Helvetica,sans-Serif" font-size="10.00">23</text>
</a>
</g>
</g>
<!-- dir_4f0979a7f5e3194619cde56505e372d8&#45;&gt;dir_b778c3f297ab88300258a2935792c8cc -->
<g id="edge43" class="edge">
<title>dir_4f0979a7f5e3194619cde56505e372d8&#45;&gt;dir_b778c3f297ab88300258a2935792c8cc</title>
<path fill="none" stroke="black" d="M757.07,-87.7C754.39,-79.9 751.17,-70.51 748.2,-61.83"/>
<polygon fill="black" stroke="black" points="751.42,-60.43 744.86,-52.1 744.8,-62.7 751.42,-60.43"/>
<g id="a_edge43&#45;headlabel"><a xlink:href="dir_000045_000025.html" target="_top" xlink:title="267">
<text text-anchor="middle" x="755.27" y="-60.41" font-family="Helvetica,sans-Serif" font-size="10.00">267</text>
</a>
</g>
</g>
<!-- dir_4f0979a7f5e3194619cde56505e372d8&#45;&gt;dir_54283da8a0cf1311a88c964d76512876 -->
<g id="edge42" class="edge">
<title>dir_4f0979a7f5e3194619cde56505e372d8&#45;&gt;dir_54283da8a0cf1311a88c964d76512876</title>
<path fill="none" stroke="black" d="M783.56,-124.1C791.52,-132.38 800.39,-142.49 807.78,-151.64"/>
<polygon fill="black" stroke="black" points="805.17,-153.98 814.08,-159.7 810.68,-149.66 805.17,-153.98"/>
<g id="a_edge42&#45;headlabel"><a xlink:href="dir_000045_001623.html" target="_top" xlink:title="1">
<text text-anchor="middle" x="800.71" y="-150.4" font-family="Helvetica,sans-Serif" font-size="10.00">1</text>
</a>
</g>
</g>
<!-- dir_6bdfff2c28f90f381b6da5bee088878b&#45;&gt;dir_b778c3f297ab88300258a2935792c8cc -->
<g id="edge26" class="edge">
<title>dir_6bdfff2c28f90f381b6da5bee088878b&#45;&gt;dir_b778c3f297ab88300258a2935792c8cc</title>
<path fill="none" stroke="black" d="M897.09,-243.6C937.13,-235 1009.02,-217 1024,-196 1033.29,-182.97 1028.85,-175.25 1024,-160 1018.05,-141.32 989.31,-98.89 973,-88 912.48,-47.6 825.6,-37.66 776.51,-35.42"/>
<polygon fill="black" stroke="black" points="776.47,-31.91 766.34,-35.04 776.21,-38.91 776.47,-31.91"/>
<g id="a_edge26&#45;headlabel"><a xlink:href="dir_000066_000025.html" target="_top" xlink:title="18">
<text text-anchor="middle" x="780.16" y="-26.71" font-family="Helvetica,sans-Serif" font-size="10.00">18</text>
</a>
</g>
</g>
<!-- dir_6bdfff2c28f90f381b6da5bee088878b&#45;&gt;dir_14c28d3bb977da9b21a3aa2d366ba228 -->
<g id="edge23" class="edge">
<title>dir_6bdfff2c28f90f381b6da5bee088878b&#45;&gt;dir_14c28d3bb977da9b21a3aa2d366ba228</title>
<path fill="none" stroke="black" d="M869.66,-231.97C868.94,-213.84 866.72,-184.44 860,-160 857.53,-151.04 853.74,-141.68 849.89,-133.35"/>
<polygon fill="black" stroke="black" points="852.94,-131.62 845.43,-124.15 846.64,-134.68 852.94,-131.62"/>
<g id="a_edge23&#45;headlabel"><a xlink:href="dir_000066_000044.html" target="_top" xlink:title="1">
<text text-anchor="middle" x="857.07" y="-131.11" font-family="Helvetica,sans-Serif" font-size="10.00">1</text>
</a>
</g>
</g>
<!-- dir_6bdfff2c28f90f381b6da5bee088878b&#45;&gt;dir_4f0979a7f5e3194619cde56505e372d8 -->
<g id="edge24" class="edge">
<title>dir_6bdfff2c28f90f381b6da5bee088878b&#45;&gt;dir_4f0979a7f5e3194619cde56505e372d8</title>
<path fill="none" stroke="black" d="M842.65,-238.23C824.02,-229.52 800.23,-215.5 786,-196 772.88,-178.03 767.23,-153.24 764.81,-134.38"/>
<polygon fill="black" stroke="black" points="768.27,-133.91 763.74,-124.33 761.31,-134.64 768.27,-133.91"/>
<g id="a_edge24&#45;headlabel"><a xlink:href="dir_000066_000045.html" target="_top" xlink:title="14">
<text text-anchor="middle" x="771.48" y="-134.68" font-family="Helvetica,sans-Serif" font-size="10.00">14</text>
</a>
</g>
</g>
<!-- dir_f04ab26cc3a9b32efb726132a22d6a75 -->
<g id="node15" class="node">
<title>dir_f04ab26cc3a9b32efb726132a22d6a75</title>
<g id="a_node15"><a xlink:href="dir_f04ab26cc3a9b32efb726132a22d6a75.html" target="_top" xlink:title="MSL_C.PPCEABI.bare.H">
<polygon fill="white" stroke="red" points="1014.5,-196 889.5,-196 889.5,-160 1014.5,-160 1014.5,-196"/>
<text text-anchor="middle" x="952" y="-175.5" font-family="Helvetica,sans-Serif" font-size="10.00">MSL_C.PPCEABI.bare.H</text>
</a>
</g>
</g>
<!-- dir_6bdfff2c28f90f381b6da5bee088878b&#45;&gt;dir_f04ab26cc3a9b32efb726132a22d6a75 -->
<g id="edge27" class="edge">
<title>dir_6bdfff2c28f90f381b6da5bee088878b&#45;&gt;dir_f04ab26cc3a9b32efb726132a22d6a75</title>
<path fill="none" stroke="black" d="M890.27,-231.7C900.5,-222.97 913.06,-212.24 924.18,-202.75"/>
<polygon fill="black" stroke="black" points="926.63,-205.26 931.96,-196.1 922.09,-199.94 926.63,-205.26"/>
<g id="a_edge27&#45;headlabel"><a xlink:href="dir_000066_000069.html" target="_top" xlink:title="2">
<text text-anchor="middle" x="925.74" y="-207.25" font-family="Helvetica,sans-Serif" font-size="10.00">2</text>
</a>
</g>
</g>
<!-- dir_6bdfff2c28f90f381b6da5bee088878b&#45;&gt;dir_54283da8a0cf1311a88c964d76512876 -->
<g id="edge25" class="edge">
<title>dir_6bdfff2c28f90f381b6da5bee088878b&#45;&gt;dir_54283da8a0cf1311a88c964d76512876</title>
<path fill="none" stroke="black" d="M858.38,-231.7C852.86,-223.47 846.15,-213.48 840.07,-204.42"/>
<polygon fill="black" stroke="black" points="842.96,-202.46 834.48,-196.1 837.15,-206.36 842.96,-202.46"/>
<g id="a_edge25&#45;headlabel"><a xlink:href="dir_000066_001623.html" target="_top" xlink:title="1">
<text text-anchor="middle" x="847.33" y="-201.36" font-family="Helvetica,sans-Serif" font-size="10.00">1</text>
</a>
</g>
</g>
<!-- dir_f4a0ada2a696f9fa1f0722f1cc886f9d -->
<g id="node13" class="node">
<title>dir_f4a0ada2a696f9fa1f0722f1cc886f9d</title>
<g id="a_node13"><a xlink:href="dir_f4a0ada2a696f9fa1f0722f1cc886f9d.html" target="_top" xlink:title="msg">
<polygon fill="white" stroke="red" points="585,-124 531,-124 531,-88 585,-88 585,-124"/>
<text text-anchor="middle" x="558" y="-103.5" font-family="Helvetica,sans-Serif" font-size="10.00">msg</text>
</a>
</g>
</g>
<!-- dir_f4a0ada2a696f9fa1f0722f1cc886f9d&#45;&gt;dir_b778c3f297ab88300258a2935792c8cc -->
<g id="edge15" class="edge">
<title>dir_f4a0ada2a696f9fa1f0722f1cc886f9d&#45;&gt;dir_b778c3f297ab88300258a2935792c8cc</title>
<path fill="none" stroke="black" d="M585.3,-93.54C589.86,-91.67 594.56,-89.76 599,-88 633.9,-74.16 674,-59.06 702.31,-48.53"/>
<polygon fill="black" stroke="black" points="703.65,-51.77 711.8,-45.01 701.21,-45.21 703.65,-51.77"/>
<g id="a_edge15&#45;headlabel"><a xlink:href="dir_000067_000025.html" target="_top" xlink:title="14">
<text text-anchor="middle" x="701.26" y="-53.18" font-family="Helvetica,sans-Serif" font-size="10.00">14</text>
</a>
</g>
</g>
<!-- dir_b056c41af2f37e34bf043d25c5f2cbe4&#45;&gt;dir_b778c3f297ab88300258a2935792c8cc -->
<g id="edge16" class="edge">
<title>dir_b056c41af2f37e34bf043d25c5f2cbe4&#45;&gt;dir_b778c3f297ab88300258a2935792c8cc</title>
<path fill="none" stroke="black" d="M900.73,-93.47C896.16,-91.61 891.46,-89.72 887,-88 849.37,-73.47 805.86,-58.05 775.8,-47.62"/>
<polygon fill="black" stroke="black" points="776.75,-44.24 766.15,-44.27 774.46,-50.85 776.75,-44.24"/>
<g id="a_edge16&#45;headlabel"><a xlink:href="dir_000078_000025.html" target="_top" xlink:title="2">
<text text-anchor="middle" x="781.07" y="-40.23" font-family="Helvetica,sans-Serif" font-size="10.00">2</text>
</a>
</g>
</g>
<!-- dir_f04ab26cc3a9b32efb726132a22d6a75&#45;&gt;dir_b778c3f297ab88300258a2935792c8cc -->
<g id="edge3" class="edge">
<title>dir_f04ab26cc3a9b32efb726132a22d6a75&#45;&gt;dir_b778c3f297ab88300258a2935792c8cc</title>
<path fill="none" stroke="black" d="M961.04,-159.96C970.01,-140.45 980.26,-108.54 964,-88 941.02,-58.97 834.28,-44.26 776.46,-38.3"/>
<polygon fill="black" stroke="black" points="776.56,-34.79 766.26,-37.29 775.87,-41.76 776.56,-34.79"/>
<g id="a_edge3&#45;headlabel"><a xlink:href="dir_000069_000025.html" target="_top" xlink:title="56">
<text text-anchor="middle" x="780.42" y="-29.82" font-family="Helvetica,sans-Serif" font-size="10.00">56</text>
</a>
</g>
</g>
<!-- dir_87ef4356690393f98a03cd010822f8d3 -->
<g id="node16" class="node">
<title>dir_87ef4356690393f98a03cd010822f8d3</title>
<g id="a_node16"><a xlink:href="dir_87ef4356690393f98a03cd010822f8d3.html" target="_top" xlink:title="odemuexi2">
<polygon fill="white" stroke="red" points="512.5,-124 449.5,-124 449.5,-88 512.5,-88 512.5,-124"/>
<text text-anchor="middle" x="481" y="-103.5" font-family="Helvetica,sans-Serif" font-size="10.00">odemuexi2</text>
</a>
</g>
</g>
<!-- dir_87ef4356690393f98a03cd010822f8d3&#45;&gt;dir_b778c3f297ab88300258a2935792c8cc -->
<g id="edge17" class="edge">
<title>dir_87ef4356690393f98a03cd010822f8d3&#45;&gt;dir_b778c3f297ab88300258a2935792c8cc</title>
<path fill="none" stroke="black" d="M512.6,-91.33C515.75,-90.14 518.92,-89.01 522,-88 584.1,-67.67 658.46,-51.15 702.04,-42.22"/>
<polygon fill="black" stroke="black" points="702.8,-45.64 711.9,-40.22 701.41,-38.78 702.8,-45.64"/>
<g id="a_edge17&#45;headlabel"><a xlink:href="dir_000079_000025.html" target="_top" xlink:title="1">
<text text-anchor="middle" x="699.84" y="-46.63" font-family="Helvetica,sans-Serif" font-size="10.00">1</text>
</a>
</g>
</g>
<!-- dir_70bf4e9311ed1821b28462b50265373f -->
<g id="node17" class="node">
<title>dir_70bf4e9311ed1821b28462b50265373f</title>
<g id="a_node17"><a xlink:href="dir_70bf4e9311ed1821b28462b50265373f.html" target="_top" xlink:title="odenotstub">
<polygon fill="white" stroke="black" points="431.5,-124 366.5,-124 366.5,-88 431.5,-88 431.5,-124"/>
<text text-anchor="middle" x="399" y="-103.5" font-family="Helvetica,sans-Serif" font-size="10.00">odenotstub</text>
</a>
</g>
</g>
<!-- dir_70bf4e9311ed1821b28462b50265373f&#45;&gt;dir_b778c3f297ab88300258a2935792c8cc -->
<g id="edge11" class="edge">
<title>dir_70bf4e9311ed1821b28462b50265373f&#45;&gt;dir_b778c3f297ab88300258a2935792c8cc</title>
<path fill="none" stroke="black" d="M431.79,-90.97C434.87,-89.88 437.98,-88.87 441,-88 532.99,-61.52 644.95,-45.89 701.89,-39.07"/>
<polygon fill="black" stroke="black" points="702.33,-42.55 711.86,-37.9 701.52,-35.59 702.33,-42.55"/>
<g id="a_edge11&#45;headlabel"><a xlink:href="dir_000082_000025.html" target="_top" xlink:title="1">
<text text-anchor="middle" x="699.1" y="-43.28" font-family="Helvetica,sans-Serif" font-size="10.00">1</text>
</a>
</g>
</g>
<!-- dir_d1e95842203b094e4f127fa85baf24b5 -->
<g id="node18" class="node">
<title>dir_d1e95842203b094e4f127fa85baf24b5</title>
<g id="a_node18"><a xlink:href="dir_d1e95842203b094e4f127fa85baf24b5.html" target="_top" xlink:title="rel">
<polygon fill="white" stroke="red" points="348,-124 294,-124 294,-88 348,-88 348,-124"/>
<text text-anchor="middle" x="321" y="-103.5" font-family="Helvetica,sans-Serif" font-size="10.00">rel</text>
</a>
</g>
</g>
<!-- dir_d1e95842203b094e4f127fa85baf24b5&#45;&gt;dir_b778c3f297ab88300258a2935792c8cc -->
<g id="edge28" class="edge">
<title>dir_d1e95842203b094e4f127fa85baf24b5&#45;&gt;dir_b778c3f297ab88300258a2935792c8cc</title>
<path fill="none" stroke="black" d="M348.14,-91.45C351.41,-90.15 354.74,-88.95 358,-88 480.3,-52.24 631.93,-40.35 701.24,-36.6"/>
<polygon fill="black" stroke="black" points="701.83,-40.08 711.64,-36.07 701.47,-33.09 701.83,-40.08"/>
<g id="a_edge28&#45;headlabel"><a xlink:href="dir_000083_000025.html" target="_top" xlink:title="3479">
<text text-anchor="middle" x="698.39" y="-40.6" font-family="Helvetica,sans-Serif" font-size="10.00">3479</text>
</a>
</g>
</g>
<!-- dir_6141ad2e1396b1970c524b101e645d67 -->
<g id="node19" class="node">
<title>dir_6141ad2e1396b1970c524b101e645d67</title>
<g id="a_node19"><a xlink:href="dir_6141ad2e1396b1970c524b101e645d67.html" target="_top" xlink:title="Runtime.PPCEABI.H">
<polygon fill="white" stroke="black" points="275.5,-124 168.5,-124 168.5,-88 275.5,-88 275.5,-124"/>
<text text-anchor="middle" x="222" y="-103.5" font-family="Helvetica,sans-Serif" font-size="10.00">Runtime.PPCEABI.H</text>
</a>
</g>
</g>
<!-- dir_6141ad2e1396b1970c524b101e645d67&#45;&gt;dir_b778c3f297ab88300258a2935792c8cc -->
<g id="edge41" class="edge">
<title>dir_6141ad2e1396b1970c524b101e645d67&#45;&gt;dir_b778c3f297ab88300258a2935792c8cc</title>
<path fill="none" stroke="black" d="M275.83,-89.91C278.93,-89.22 282,-88.58 285,-88 438.13,-58.57 623.68,-43.09 701.65,-37.49"/>
<polygon fill="black" stroke="black" points="702.19,-40.96 711.92,-36.76 701.7,-33.98 702.19,-40.96"/>
<g id="a_edge41&#45;headlabel"><a xlink:href="dir_001622_000025.html" target="_top" xlink:title="9">
<text text-anchor="middle" x="698.81" y="-41.54" font-family="Helvetica,sans-Serif" font-size="10.00">9</text>
</a>
</g>
</g>
<!-- dir_54283da8a0cf1311a88c964d76512876&#45;&gt;dir_b778c3f297ab88300258a2935792c8cc -->
<g id="edge32" class="edge">
<title>dir_54283da8a0cf1311a88c964d76512876&#45;&gt;dir_b778c3f297ab88300258a2935792c8cc</title>
<path fill="none" stroke="black" d="M844.09,-159.72C863.86,-141.37 888.13,-111.8 872,-88 850.76,-56.67 807.72,-43.86 776.34,-38.62"/>
<polygon fill="black" stroke="black" points="776.6,-35.12 766.19,-37.12 775.57,-42.05 776.6,-35.12"/>
<g id="a_edge32&#45;headlabel"><a xlink:href="dir_001623_000025.html" target="_top" xlink:title="40">
<text text-anchor="middle" x="780.57" y="-30.34" font-family="Helvetica,sans-Serif" font-size="10.00">40</text>
</a>
</g>
</g>
<!-- dir_54283da8a0cf1311a88c964d76512876&#45;&gt;dir_fbb29e8cafd745cbb7106b56de6b5377 -->
<g id="edge33" class="edge">
<title>dir_54283da8a0cf1311a88c964d76512876&#45;&gt;dir_fbb29e8cafd745cbb7106b56de6b5377</title>
<path fill="none" stroke="black" d="M817.66,-196.1C813.13,-204.3 806.78,-214.28 800.38,-223.36"/>
<polygon fill="black" stroke="black" points="797.36,-221.56 794.29,-231.7 803.01,-225.69 797.36,-221.56"/>
<g id="a_edge33&#45;headlabel"><a xlink:href="dir_001623_000043.html" target="_top" xlink:title="1">
<text text-anchor="middle" x="797.19" y="-214.48" font-family="Helvetica,sans-Serif" font-size="10.00">1</text>
</a>
</g>
</g>
<!-- dir_54283da8a0cf1311a88c964d76512876&#45;&gt;dir_14c28d3bb977da9b21a3aa2d366ba228 -->
<g id="edge29" class="edge">
<title>dir_54283da8a0cf1311a88c964d76512876&#45;&gt;dir_14c28d3bb977da9b21a3aa2d366ba228</title>
<path fill="none" stroke="black" d="M820.3,-159.7C820.94,-151.9 822.46,-142.51 824.43,-133.83"/>
<polygon fill="black" stroke="black" points="827.83,-134.66 826.93,-124.1 821.05,-132.92 827.83,-134.66"/>
<g id="a_edge29&#45;headlabel"><a xlink:href="dir_001623_000044.html" target="_top" xlink:title="1">
<text text-anchor="middle" x="829.69" y="-136.35" font-family="Helvetica,sans-Serif" font-size="10.00">1</text>
</a>
</g>
</g>
<!-- dir_54283da8a0cf1311a88c964d76512876&#45;&gt;dir_4f0979a7f5e3194619cde56505e372d8 -->
<g id="edge30" class="edge">
<title>dir_54283da8a0cf1311a88c964d76512876&#45;&gt;dir_4f0979a7f5e3194619cde56505e372d8</title>
<path fill="none" stroke="black" d="M802.25,-159.7C794.28,-151.39 785.41,-141.28 778.04,-132.14"/>
<polygon fill="black" stroke="black" points="780.68,-129.83 771.77,-124.1 775.16,-134.14 780.68,-129.83"/>
<g id="a_edge30&#45;headlabel"><a xlink:href="dir_001623_000045.html" target="_top" xlink:title="2">
<text text-anchor="middle" x="785.13" y="-128.42" font-family="Helvetica,sans-Serif" font-size="10.00">2</text>
</a>
</g>
</g>
<!-- dir_54283da8a0cf1311a88c964d76512876&#45;&gt;dir_b056c41af2f37e34bf043d25c5f2cbe4 -->
<g id="edge31" class="edge">
<title>dir_54283da8a0cf1311a88c964d76512876&#45;&gt;dir_b056c41af2f37e34bf043d25c5f2cbe4</title>
<path fill="none" stroke="black" d="M848.69,-159.88C862.29,-150.81 879.17,-139.55 893.86,-129.76"/>
<polygon fill="black" stroke="black" points="895.84,-132.65 902.22,-124.19 891.95,-126.82 895.84,-132.65"/>
<g id="a_edge31&#45;headlabel"><a xlink:href="dir_001623_000078.html" target="_top" xlink:title="1">
<text text-anchor="middle" x="894.42" y="-134.51" font-family="Helvetica,sans-Serif" font-size="10.00">1</text>
</a>
</g>
</g>
<!-- dir_1cf8c5ae6c227b033e49e3be60b350ef -->
<g id="node21" class="node">
<title>dir_1cf8c5ae6c227b033e49e3be60b350ef</title>
<g id="a_node21"><a xlink:href="dir_1cf8c5ae6c227b033e49e3be60b350ef.html" target="_top" xlink:title="TRK_MINNOW_DOLPHIN">
<polygon fill="white" stroke="red" points="150,-124 16,-124 16,-88 150,-88 150,-124"/>
<text text-anchor="middle" x="83" y="-103.5" font-family="Helvetica,sans-Serif" font-size="10.00">TRK_MINNOW_DOLPHIN</text>
</a>
</g>
</g>
<!-- dir_1cf8c5ae6c227b033e49e3be60b350ef&#45;&gt;dir_b778c3f297ab88300258a2935792c8cc -->
<g id="edge7" class="edge">
<title>dir_1cf8c5ae6c227b033e49e3be60b350ef&#45;&gt;dir_b778c3f297ab88300258a2935792c8cc</title>
<path fill="none" stroke="black" d="M150.1,-89.66C153.44,-89.06 156.75,-88.5 160,-88 362.92,-56.44 608.99,-41.57 701.47,-36.79"/>
<polygon fill="black" stroke="black" points="701.91,-40.28 711.72,-36.27 701.55,-33.29 701.91,-40.28"/>
<g id="a_edge7&#45;headlabel"><a xlink:href="dir_001626_000025.html" target="_top" xlink:title="29">
<text text-anchor="middle" x="698.46" y="-40.79" font-family="Helvetica,sans-Serif" font-size="10.00">29</text>
</a>
</g>
</g>
<!-- dir_81939fb769658ab66ba54ec390580a1a&#45;&gt;dir_b778c3f297ab88300258a2935792c8cc -->
<g id="edge10" class="edge">
<title>dir_81939fb769658ab66ba54ec390580a1a&#45;&gt;dir_b778c3f297ab88300258a2935792c8cc</title>
<path fill="none" stroke="black" d="M1008.73,-231.6C1017.24,-222 1026.53,-209.34 1031,-196 1036.08,-180.83 1034.85,-175.53 1031,-160 1022.3,-124.88 1021.9,-109.77 993,-88 959.24,-62.58 838.5,-45.95 776.44,-38.88"/>
<polygon fill="black" stroke="black" points="776.61,-35.38 766.28,-37.75 775.83,-42.33 776.61,-35.38"/>
<g id="a_edge10&#45;headlabel"><a xlink:href="dir_001641_000025.html" target="_top" xlink:title="25">
<text text-anchor="middle" x="780.49" y="-30.45" font-family="Helvetica,sans-Serif" font-size="10.00">25</text>
</a>
</g>
</g>
<!-- dir_81939fb769658ab66ba54ec390580a1a&#45;&gt;dir_4f0979a7f5e3194619cde56505e372d8 -->
<g id="edge8" class="edge">
<title>dir_81939fb769658ab66ba54ec390580a1a&#45;&gt;dir_4f0979a7f5e3194619cde56505e372d8</title>
<path fill="none" stroke="black" d="M1006.66,-231.8C1022.37,-212.44 1041.85,-180.95 1024,-160 991.3,-121.63 848.24,-138.66 800,-124 799.9,-123.97 799.81,-123.94 799.71,-123.91"/>
<polygon fill="black" stroke="black" points="801.16,-120.71 790.56,-120.64 798.8,-127.3 801.16,-120.71"/>
<g id="a_edge8&#45;headlabel"><a xlink:href="dir_001641_000045.html" target="_top" xlink:title="12">
<text text-anchor="middle" x="805.5" y="-116.75" font-family="Helvetica,sans-Serif" font-size="10.00">12</text>
</a>
</g>
</g>
<!-- dir_81939fb769658ab66ba54ec390580a1a&#45;&gt;dir_54283da8a0cf1311a88c964d76512876 -->
<g id="edge9" class="edge">
<title>dir_81939fb769658ab66ba54ec390580a1a&#45;&gt;dir_54283da8a0cf1311a88c964d76512876</title>
<path fill="none" stroke="black" d="M957.81,-235.17C929.8,-223.5 889.72,-206.8 860.55,-194.64"/>
<polygon fill="black" stroke="black" points="861.68,-191.33 851.1,-190.71 858.99,-197.79 861.68,-191.33"/>
<g id="a_edge9&#45;headlabel"><a xlink:href="dir_001641_001623.html" target="_top" xlink:title="1">
<text text-anchor="middle" x="866.09" y="-187.59" font-family="Helvetica,sans-Serif" font-size="10.00">1</text>
</a>
</g>
</g>
</g>
</svg>
        <g id="navigator" transform="translate(0 0)" fill="#404254">
                <rect fill="#f2f5e9" fill-opacity="0.5" stroke="#606060" stroke-width=".5" x="0" y="0" width="60" height="60"/>
                <use id="zoomplus" xlink:href="#zoomPlus" x="17" y="9" onmousedown="handleZoom(evt,'in')"/>
                <use id="zoomminus" xlink:href="#zoomMin" x="42" y="9" onmousedown="handleZoom(evt,'out')"/>
                <use id="reset" xlink:href="#resetDef" x="30" y="36" onmousedown="handleReset()"/>
                <g id="arrowUp" xlink:href="#dirArrow" transform="translate(30 24)" onmousedown="handlePan(0,-1)">
                  <use xlink:href="#rim" fill="#404040">
                        <set attributeName="fill" to="#808080" begin="arrowUp.mouseover" end="arrowUp.mouseout"/>
                  </use>
                  <path fill="none" stroke="white" stroke-width="1.5" d="M0,-3.0v7 M-2.5,-0.5L0,-3.0L2.5,-0.5"/>
                </g>
                <g id="arrowRight" xlink:href="#dirArrow" transform="rotate(90) translate(36 -43)" onmousedown="handlePan(1,0)">
                  <use xlink:href="#rim" fill="#404040">
                        <set attributeName="fill" to="#808080" begin="arrowRight.mouseover" end="arrowRight.mouseout"/>
                  </use>
                  <path fill="none" stroke="white" stroke-width="1.5" d="M0,-3.0v7 M-2.5,-0.5L0,-3.0L2.5,-0.5"/>
                </g>
                <g id="arrowDown" xlink:href="#dirArrow" transform="rotate(180) translate(-30 -48)" onmousedown="handlePan(0,1)">
                  <use xlink:href="#rim" fill="#404040">
                        <set attributeName="fill" to="#808080" begin="arrowDown.mouseover" end="arrowDown.mouseout"/>
                  </use>
                  <path fill="none" stroke="white" stroke-width="1.5" d="M0,-3.0v7 M-2.5,-0.5L0,-3.0L2.5,-0.5"/>
                </g>
                <g id="arrowLeft" xlink:href="#dirArrow" transform="rotate(270) translate(-36 17)" onmousedown="handlePan(-1,0)">
                  <use xlink:href="#rim" fill="#404040">
                        <set attributeName="fill" to="#808080" begin="arrowLeft.mouseover" end="arrowLeft.mouseout"/>
                  </use>
                  <path fill="none" stroke="white" stroke-width="1.5" d="M0,-3.0v7 M-2.5,-0.5L0,-3.0L2.5,-0.5"/>
                </g>
        </g>
        <svg viewBox="0 0 15 15" width="100%" height="30px" preserveAspectRatio="xMaxYMin meet">
         <g id="arrow_out" transform="scale(0.3 0.3)">
          <a xlink:href="dir_d44c64559bbebec7f509842c48db8b23_dep_org.svg" target="_base">
           <rect id="button" ry="5" rx="5" y="6" x="6" height="38" width="38"
                fill="#f2f5e9" fill-opacity="0.5" stroke="#606060" stroke-width="1.0"/>
           <path id="arrow"
             d="M 11.500037,31.436501 C 11.940474,20.09759 22.043105,11.32322 32.158766,21.979434 L 37.068811,17.246167 C 37.068811,17.246167 37.088388,32 37.088388,32 L 22.160133,31.978069 C 22.160133,31.978069 26.997745,27.140456 26.997745,27.140456 C 18.528582,18.264221 13.291696,25.230495 11.500037,31.436501 z"
             style="fill:#404040;"/>
          </a>
         </g>
        </svg>
</svg>
