<?xml version="1.0" encoding="UTF-8" standalone="no"?>
<!DOCTYPE svg PUBLIC "-//W3C//DTD SVG 1.1//EN"
 "http://www.w3.org/Graphics/SVG/1.1/DTD/svg11.dtd">
<!-- Generated by graphviz version 2.44.0 ()
 -->
<!-- Title: include Pages: 1 -->
<svg width="1214pt" height="652pt"
 viewBox="0.00 0.00 1214.00 652.00" xmlns="http://www.w3.org/2000/svg" xmlns:xlink="http://www.w3.org/1999/xlink">
<g id="graph0" class="graph" transform="scale(1 1) rotate(0) translate(4 648)">
<title>include</title>
<polygon fill="white" stroke="transparent" points="-4,4 -4,-648 1210,-648 1210,4 -4,4"/>
<g id="clust1" class="cluster">
<title>clusterdir_d44c64559bbebec7f509842c48db8b23</title>
<g id="a_clust1"><a xlink:href="dir_d44c64559bbebec7f509842c48db8b23.html" target="_top">
<polygon fill="#eeeeff" stroke="black" points="8,-8 8,-636 1198,-636 1198,-8 8,-8"/>
</a>
</g>
</g>
<!-- dir_d44c64559bbebec7f509842c48db8b23 -->
<g id="node1" class="node">
<title>dir_d44c64559bbebec7f509842c48db8b23</title>
<text text-anchor="middle" x="1073" y="-607.5" font-family="Helvetica,sans-Serif" font-size="10.00">include</text>
</g>
<!-- dir_755f0d2039dcbad844014f016ea14e59 -->
<g id="node2" class="node">
<title>dir_755f0d2039dcbad844014f016ea14e59</title>
<g id="a_node2"><a xlink:href="dir_755f0d2039dcbad844014f016ea14e59.html" target="_top" xlink:title="a">
<polygon fill="white" stroke="red" points="916,-196 862,-196 862,-160 916,-160 916,-196"/>
<text text-anchor="middle" x="889" y="-175.5" font-family="Helvetica,sans-Serif" font-size="10.00">a</text>
</a>
</g>
</g>
<!-- dir_b778c3f297ab88300258a2935792c8cc -->
<g id="node6" class="node">
<title>dir_b778c3f297ab88300258a2935792c8cc</title>
<g id="a_node6"><a xlink:href="dir_b778c3f297ab88300258a2935792c8cc.html" target="_top" xlink:title="dolphin">
<polygon fill="white" stroke="red" points="694,-124 640,-124 640,-88 694,-88 694,-124"/>
<text text-anchor="middle" x="667" y="-103.5" font-family="Helvetica,sans-Serif" font-size="10.00">dolphin</text>
</a>
</g>
</g>
<!-- dir_755f0d2039dcbad844014f016ea14e59&#45;&gt;dir_b778c3f297ab88300258a2935792c8cc -->
<g id="edge8" class="edge">
<title>dir_755f0d2039dcbad844014f016ea14e59&#45;&gt;dir_b778c3f297ab88300258a2935792c8cc</title>
<path fill="none" stroke="black" d="M861.68,-163.53C858.78,-162.27 855.85,-161.07 853,-160 802.58,-141.06 742.31,-125.04 704.34,-115.73"/>
<polygon fill="black" stroke="black" points="704.79,-112.23 694.25,-113.28 703.14,-119.04 704.79,-112.23"/>
<g id="a_edge8&#45;headlabel"><a xlink:href="dir_000002_000025.html" target="_top" xlink:title="4">
<text text-anchor="middle" x="708.95" y="-107.82" font-family="Helvetica,sans-Serif" font-size="10.00">4</text>
</a>
</g>
</g>
<!-- dir_69c21e3fe128ba7f70ba19e6abc39168 -->
<g id="node3" class="node">
<title>dir_69c21e3fe128ba7f70ba19e6abc39168</title>
<g id="a_node3"><a xlink:href="dir_69c21e3fe128ba7f70ba19e6abc39168.html" target="_top" xlink:title="amcstubs">
<polygon fill="white" stroke="black" points="843.5,-196 784.5,-196 784.5,-160 843.5,-160 843.5,-196"/>
<text text-anchor="middle" x="814" y="-175.5" font-family="Helvetica,sans-Serif" font-size="10.00">amcstubs</text>
</a>
</g>
</g>
<!-- dir_69c21e3fe128ba7f70ba19e6abc39168&#45;&gt;dir_b778c3f297ab88300258a2935792c8cc -->
<g id="edge6" class="edge">
<title>dir_69c21e3fe128ba7f70ba19e6abc39168&#45;&gt;dir_b778c3f297ab88300258a2935792c8cc</title>
<path fill="none" stroke="black" d="M784.25,-162.83C760.89,-151.71 728.27,-136.17 703.36,-124.31"/>
<polygon fill="black" stroke="black" points="704.76,-121.1 694.22,-119.96 701.75,-127.42 704.76,-121.1"/>
<g id="a_edge6&#45;headlabel"><a xlink:href="dir_000005_000025.html" target="_top" xlink:title="1">
<text text-anchor="middle" x="709.22" y="-117.59" font-family="Helvetica,sans-Serif" font-size="10.00">1</text>
</a>
</g>
</g>
<!-- dir_f0bbaeb96b1b216779501c980a5af6c6 -->
<g id="node4" class="node">
<title>dir_f0bbaeb96b1b216779501c980a5af6c6</title>
<g id="a_node4"><a xlink:href="dir_f0bbaeb96b1b216779501c980a5af6c6.html" target="_top" xlink:title="c">
<polygon fill="white" stroke="black" points="766,-196 712,-196 712,-160 766,-160 766,-196"/>
<text text-anchor="middle" x="739" y="-175.5" font-family="Helvetica,sans-Serif" font-size="10.00">c</text>
</a>
</g>
</g>
<!-- dir_f0bbaeb96b1b216779501c980a5af6c6&#45;&gt;dir_b778c3f297ab88300258a2935792c8cc -->
<g id="edge7" class="edge">
<title>dir_f0bbaeb96b1b216779501c980a5af6c6&#45;&gt;dir_b778c3f297ab88300258a2935792c8cc</title>
<path fill="none" stroke="black" d="M721.2,-159.7C712.4,-151.14 701.62,-140.66 692,-131.3"/>
<polygon fill="black" stroke="black" points="694.2,-128.57 684.59,-124.1 689.32,-133.58 694.2,-128.57"/>
<g id="a_edge7&#45;headlabel"><a xlink:href="dir_000006_000025.html" target="_top" xlink:title="2">
<text text-anchor="middle" x="698.76" y="-126.54" font-family="Helvetica,sans-Serif" font-size="10.00">2</text>
</a>
</g>
</g>
<!-- dir_cc3ad1aed4be3f446fdd7af78322f5bf -->
<g id="node5" class="node">
<title>dir_cc3ad1aed4be3f446fdd7af78322f5bf</title>
<g id="a_node5"><a xlink:href="dir_cc3ad1aed4be3f446fdd7af78322f5bf.html" target="_top" xlink:title="d">
<polygon fill="white" stroke="red" points="714,-340 660,-340 660,-304 714,-304 714,-340"/>
<text text-anchor="middle" x="687" y="-319.5" font-family="Helvetica,sans-Serif" font-size="10.00">d</text>
</a>
</g>
</g>
<!-- dir_cc3ad1aed4be3f446fdd7af78322f5bf&#45;&gt;dir_b778c3f297ab88300258a2935792c8cc -->
<g id="edge43" class="edge">
<title>dir_cc3ad1aed4be3f446fdd7af78322f5bf&#45;&gt;dir_b778c3f297ab88300258a2935792c8cc</title>
<path fill="none" stroke="black" d="M714.08,-317.95C805.82,-306.61 1094.47,-262.16 1007,-160 968.33,-114.83 784.22,-107.86 704.24,-107"/>
<polygon fill="black" stroke="black" points="704.14,-103.5 694.12,-106.91 704.09,-110.5 704.14,-103.5"/>
<g id="a_edge43&#45;headlabel"><a xlink:href="dir_000007_000025.html" target="_top" xlink:title="148">
<text text-anchor="middle" x="707.76" y="-98.19" font-family="Helvetica,sans-Serif" font-size="10.00">148</text>
</a>
</g>
</g>
<!-- dir_fbb29e8cafd745cbb7106b56de6b5377 -->
<g id="node9" class="node">
<title>dir_fbb29e8cafd745cbb7106b56de6b5377</title>
<g id="a_node9"><a xlink:href="dir_fbb29e8cafd745cbb7106b56de6b5377.html" target="_top" xlink:title="f_op">
<polygon fill="white" stroke="black" points="714,-412 660,-412 660,-376 714,-376 714,-412"/>
<text text-anchor="middle" x="687" y="-391.5" font-family="Helvetica,sans-Serif" font-size="10.00">f_op</text>
</a>
</g>
</g>
<!-- dir_cc3ad1aed4be3f446fdd7af78322f5bf&#45;&gt;dir_fbb29e8cafd745cbb7106b56de6b5377 -->
<g id="edge44" class="edge">
<title>dir_cc3ad1aed4be3f446fdd7af78322f5bf&#45;&gt;dir_fbb29e8cafd745cbb7106b56de6b5377</title>
<path fill="none" stroke="black" d="M692.9,-340.1C693.7,-347.79 693.94,-357.05 693.6,-365.67"/>
<polygon fill="black" stroke="black" points="690.11,-365.48 692.92,-375.7 697.09,-365.96 690.11,-365.48"/>
<g id="a_edge44&#45;headlabel"><a xlink:href="dir_000007_000043.html" target="_top" xlink:title="11">
<text text-anchor="middle" x="687.52" y="-359.2" font-family="Helvetica,sans-Serif" font-size="10.00">11</text>
</a>
</g>
</g>
<!-- dir_4f0979a7f5e3194619cde56505e372d8 -->
<g id="node11" class="node">
<title>dir_4f0979a7f5e3194619cde56505e372d8</title>
<g id="a_node11"><a xlink:href="dir_4f0979a7f5e3194619cde56505e372d8.html" target="_top" xlink:title="JSystem">
<polygon fill="white" stroke="red" points="760.5,-556 705.5,-556 705.5,-520 760.5,-520 760.5,-556"/>
<text text-anchor="middle" x="733" y="-535.5" font-family="Helvetica,sans-Serif" font-size="10.00">JSystem</text>
</a>
</g>
</g>
<!-- dir_cc3ad1aed4be3f446fdd7af78322f5bf&#45;&gt;dir_4f0979a7f5e3194619cde56505e372d8 -->
<g id="edge38" class="edge">
<title>dir_cc3ad1aed4be3f446fdd7af78322f5bf&#45;&gt;dir_4f0979a7f5e3194619cde56505e372d8</title>
<path fill="none" stroke="black" d="M702.29,-340.33C709.95,-350.11 718.54,-362.95 723,-376 738.38,-421 737.76,-477.14 735.59,-509.84"/>
<polygon fill="black" stroke="black" points="732.09,-509.74 734.82,-519.98 739.07,-510.28 732.09,-509.74"/>
<g id="a_edge38&#45;headlabel"><a xlink:href="dir_000007_000045.html" target="_top" xlink:title="27">
<text text-anchor="middle" x="729.53" y="-503.44" font-family="Helvetica,sans-Serif" font-size="10.00">27</text>
</a>
</g>
</g>
<!-- dir_6bdfff2c28f90f381b6da5bee088878b -->
<g id="node12" class="node">
<title>dir_6bdfff2c28f90f381b6da5bee088878b</title>
<g id="a_node12"><a xlink:href="dir_6bdfff2c28f90f381b6da5bee088878b.html" target="_top" xlink:title="m_Do">
<polygon fill="white" stroke="black" points="254,-268 200,-268 200,-232 254,-232 254,-268"/>
<text text-anchor="middle" x="227" y="-247.5" font-family="Helvetica,sans-Serif" font-size="10.00">m_Do</text>
</a>
</g>
</g>
<!-- dir_cc3ad1aed4be3f446fdd7af78322f5bf&#45;&gt;dir_6bdfff2c28f90f381b6da5bee088878b -->
<g id="edge40" class="edge">
<title>dir_cc3ad1aed4be3f446fdd7af78322f5bf&#45;&gt;dir_6bdfff2c28f90f381b6da5bee088878b</title>
<path fill="none" stroke="black" d="M659.94,-316.88C581.49,-304.94 353.8,-270.3 264.02,-256.63"/>
<polygon fill="black" stroke="black" points="264.44,-253.16 254.02,-255.11 263.38,-260.08 264.44,-253.16"/>
<g id="a_edge40&#45;headlabel"><a xlink:href="dir_000007_000066.html" target="_top" xlink:title="6">
<text text-anchor="middle" x="268.42" y="-248.39" font-family="Helvetica,sans-Serif" font-size="10.00">6</text>
</a>
</g>
</g>
<!-- dir_b056c41af2f37e34bf043d25c5f2cbe4 -->
<g id="node14" class="node">
<title>dir_b056c41af2f37e34bf043d25c5f2cbe4</title>
<g id="a_node14"><a xlink:href="dir_b056c41af2f37e34bf043d25c5f2cbe4.html" target="_top" xlink:title="msl_c">
<polygon fill="white" stroke="black" points="648,-268 594,-268 594,-232 648,-232 648,-268"/>
<text text-anchor="middle" x="621" y="-247.5" font-family="Helvetica,sans-Serif" font-size="10.00">msl_c</text>
</a>
</g>
</g>
<!-- dir_cc3ad1aed4be3f446fdd7af78322f5bf&#45;&gt;dir_b056c41af2f37e34bf043d25c5f2cbe4 -->
<g id="edge42" class="edge">
<title>dir_cc3ad1aed4be3f446fdd7af78322f5bf&#45;&gt;dir_b056c41af2f37e34bf043d25c5f2cbe4</title>
<path fill="none" stroke="black" d="M670.69,-303.7C662.69,-295.22 652.93,-284.86 644.18,-275.58"/>
<polygon fill="black" stroke="black" points="646.53,-272.98 637.13,-268.1 641.44,-277.78 646.53,-272.98"/>
<g id="a_edge42&#45;headlabel"><a xlink:href="dir_000007_000078.html" target="_top" xlink:title="2">
<text text-anchor="middle" x="651.07" y="-271.15" font-family="Helvetica,sans-Serif" font-size="10.00">2</text>
</a>
</g>
</g>
<!-- dir_54283da8a0cf1311a88c964d76512876 -->
<g id="node20" class="node">
<title>dir_54283da8a0cf1311a88c964d76512876</title>
<g id="a_node20"><a xlink:href="dir_54283da8a0cf1311a88c964d76512876.html" target="_top" xlink:title="SSystem">
<polygon fill="white" stroke="red" points="669,-484 613,-484 613,-448 669,-448 669,-484"/>
<text text-anchor="middle" x="641" y="-463.5" font-family="Helvetica,sans-Serif" font-size="10.00">SSystem</text>
</a>
</g>
</g>
<!-- dir_cc3ad1aed4be3f446fdd7af78322f5bf&#45;&gt;dir_54283da8a0cf1311a88c964d76512876 -->
<g id="edge39" class="edge">
<title>dir_cc3ad1aed4be3f446fdd7af78322f5bf&#45;&gt;dir_54283da8a0cf1311a88c964d76512876</title>
<path fill="none" stroke="black" d="M671.97,-340.42C664.38,-350.22 655.78,-363.06 651,-376 643.68,-395.78 641.31,-419.58 640.7,-437.59"/>
<polygon fill="black" stroke="black" points="637.2,-437.65 640.52,-447.71 644.2,-437.77 637.2,-437.65"/>
<g id="a_edge39&#45;headlabel"><a xlink:href="dir_000007_001623.html" target="_top" xlink:title="34">
<text text-anchor="middle" x="634.43" y="-431.5" font-family="Helvetica,sans-Serif" font-size="10.00">34</text>
</a>
</g>
</g>
<!-- dir_81939fb769658ab66ba54ec390580a1a -->
<g id="node22" class="node">
<title>dir_81939fb769658ab66ba54ec390580a1a</title>
<g id="a_node22"><a xlink:href="dir_81939fb769658ab66ba54ec390580a1a.html" target="_top" xlink:title="Z2AudioLib">
<polygon fill="white" stroke="black" points="1122,-268 1056,-268 1056,-232 1122,-232 1122,-268"/>
<text text-anchor="middle" x="1089" y="-247.5" font-family="Helvetica,sans-Serif" font-size="10.00">Z2AudioLib</text>
</a>
</g>
</g>
<!-- dir_cc3ad1aed4be3f446fdd7af78322f5bf&#45;&gt;dir_81939fb769658ab66ba54ec390580a1a -->
<g id="edge41" class="edge">
<title>dir_cc3ad1aed4be3f446fdd7af78322f5bf&#45;&gt;dir_81939fb769658ab66ba54ec390580a1a</title>
<path fill="none" stroke="black" d="M714.07,-317.57C771.25,-310.15 908.38,-291.35 1022,-268 1029.77,-266.4 1037.99,-264.5 1045.92,-262.55"/>
<polygon fill="black" stroke="black" points="1046.9,-265.91 1055.74,-260.08 1045.19,-259.12 1046.9,-265.91"/>
<g id="a_edge41&#45;headlabel"><a xlink:href="dir_000007_001641.html" target="_top" xlink:title="4">
<text text-anchor="middle" x="1044.1" y="-267.04" font-family="Helvetica,sans-Serif" font-size="10.00">4</text>
</a>
</g>
</g>
<!-- dir_6141ad2e1396b1970c524b101e645d67 -->
<g id="node19" class="node">
<title>dir_6141ad2e1396b1970c524b101e645d67</title>
<g id="a_node19"><a xlink:href="dir_6141ad2e1396b1970c524b101e645d67.html" target="_top" xlink:title="Runtime.PPCEABI.H">
<polygon fill="white" stroke="black" points="523.5,-52 416.5,-52 416.5,-16 523.5,-16 523.5,-52"/>
<text text-anchor="middle" x="470" y="-31.5" font-family="Helvetica,sans-Serif" font-size="10.00">Runtime.PPCEABI.H</text>
</a>
</g>
</g>
<!-- dir_b778c3f297ab88300258a2935792c8cc&#45;&gt;dir_6141ad2e1396b1970c524b101e645d67 -->
<g id="edge1" class="edge">
<title>dir_b778c3f297ab88300258a2935792c8cc&#45;&gt;dir_6141ad2e1396b1970c524b101e645d67</title>
<path fill="none" stroke="black" d="M639.91,-96.97C609.57,-86.98 559.95,-69.56 522.1,-55.72"/>
<polygon fill="black" stroke="black" points="522.85,-52.27 512.25,-52.11 520.43,-58.84 522.85,-52.27"/>
<g id="a_edge1&#45;headlabel"><a xlink:href="dir_000025_001622.html" target="_top" xlink:title="1">
<text text-anchor="middle" x="527.2" y="-48.34" font-family="Helvetica,sans-Serif" font-size="10.00">1</text>
</a>
</g>
</g>
<!-- dir_bd30b2f27e7c332535a4051e395ad81c -->
<g id="node7" class="node">
<title>dir_bd30b2f27e7c332535a4051e395ad81c</title>
<g id="a_node7"><a xlink:href="dir_bd30b2f27e7c332535a4051e395ad81c.html" target="_top" xlink:title="exi">
<polygon fill="white" stroke="black" points="694,-196 640,-196 640,-160 694,-160 694,-196"/>
<text text-anchor="middle" x="667" y="-175.5" font-family="Helvetica,sans-Serif" font-size="10.00">exi</text>
</a>
</g>
</g>
<!-- dir_bd30b2f27e7c332535a4051e395ad81c&#45;&gt;dir_b778c3f297ab88300258a2935792c8cc -->
<g id="edge16" class="edge">
<title>dir_bd30b2f27e7c332535a4051e395ad81c&#45;&gt;dir_b778c3f297ab88300258a2935792c8cc</title>
<path fill="none" stroke="black" d="M667,-159.7C667,-151.98 667,-142.71 667,-134.11"/>
<polygon fill="black" stroke="black" points="670.5,-134.1 667,-124.1 663.5,-134.1 670.5,-134.1"/>
<g id="a_edge16&#45;headlabel"><a xlink:href="dir_000041_000025.html" target="_top" xlink:title="2">
<text text-anchor="middle" x="673.34" y="-135.2" font-family="Helvetica,sans-Serif" font-size="10.00">2</text>
</a>
</g>
</g>
<!-- dir_842110f85f767812b47b9e09c1085d00 -->
<g id="node8" class="node">
<title>dir_842110f85f767812b47b9e09c1085d00</title>
<g id="a_node8"><a xlink:href="dir_842110f85f767812b47b9e09c1085d00.html" target="_top" xlink:title="f_ap">
<polygon fill="white" stroke="black" points="849,-628 795,-628 795,-592 849,-592 849,-628"/>
<text text-anchor="middle" x="822" y="-607.5" font-family="Helvetica,sans-Serif" font-size="10.00">f_ap</text>
</a>
</g>
</g>
<!-- dir_842110f85f767812b47b9e09c1085d00&#45;&gt;dir_b778c3f297ab88300258a2935792c8cc -->
<g id="edge3" class="edge">
<title>dir_842110f85f767812b47b9e09c1085d00&#45;&gt;dir_b778c3f297ab88300258a2935792c8cc</title>
<path fill="none" stroke="black" d="M849.38,-603.15C917.21,-586.94 1091.93,-534.36 1153,-412 1203.02,-311.79 1227.48,-241.82 1151,-160 1120.59,-127.47 812.28,-112.58 704.2,-108.33"/>
<polygon fill="black" stroke="black" points="704.21,-104.83 694.08,-107.94 703.94,-111.83 704.21,-104.83"/>
<g id="a_edge3&#45;headlabel"><a xlink:href="dir_000042_000025.html" target="_top" xlink:title="1">
<text text-anchor="middle" x="707.91" y="-99.63" font-family="Helvetica,sans-Serif" font-size="10.00">1</text>
</a>
</g>
</g>
<!-- dir_842110f85f767812b47b9e09c1085d00&#45;&gt;dir_4f0979a7f5e3194619cde56505e372d8 -->
<g id="edge2" class="edge">
<title>dir_842110f85f767812b47b9e09c1085d00&#45;&gt;dir_4f0979a7f5e3194619cde56505e372d8</title>
<path fill="none" stroke="black" d="M800,-591.7C788.79,-582.88 775,-572.03 762.85,-562.47"/>
<polygon fill="black" stroke="black" points="764.77,-559.54 754.75,-556.1 760.44,-565.04 764.77,-559.54"/>
<g id="a_edge2&#45;headlabel"><a xlink:href="dir_000042_000045.html" target="_top" xlink:title="1">
<text text-anchor="middle" x="769.35" y="-557.03" font-family="Helvetica,sans-Serif" font-size="10.00">1</text>
</a>
</g>
</g>
<!-- dir_fbb29e8cafd745cbb7106b56de6b5377&#45;&gt;dir_cc3ad1aed4be3f446fdd7af78322f5bf -->
<g id="edge25" class="edge">
<title>dir_fbb29e8cafd745cbb7106b56de6b5377&#45;&gt;dir_cc3ad1aed4be3f446fdd7af78322f5bf</title>
<path fill="none" stroke="black" d="M681.08,-375.7C680.29,-367.98 680.06,-358.71 680.4,-350.11"/>
<polygon fill="black" stroke="black" points="683.9,-350.32 681.1,-340.1 676.92,-349.84 683.9,-350.32"/>
<g id="a_edge25&#45;headlabel"><a xlink:href="dir_000043_000007.html" target="_top" xlink:title="1">
<text text-anchor="middle" x="686.48" y="-351.61" font-family="Helvetica,sans-Serif" font-size="10.00">1</text>
</a>
</g>
</g>
<!-- dir_fbb29e8cafd745cbb7106b56de6b5377&#45;&gt;dir_b778c3f297ab88300258a2935792c8cc -->
<g id="edge24" class="edge">
<title>dir_fbb29e8cafd745cbb7106b56de6b5377&#45;&gt;dir_b778c3f297ab88300258a2935792c8cc</title>
<path fill="none" stroke="black" d="M714.12,-386.67C809.75,-363.17 1120.14,-276.29 1020,-160 979.52,-112.99 786.42,-107.09 704.2,-106.76"/>
<polygon fill="black" stroke="black" points="704.06,-103.26 694.05,-106.74 704.05,-110.26 704.06,-103.26"/>
<g id="a_edge24&#45;headlabel"><a xlink:href="dir_000043_000025.html" target="_top" xlink:title="18">
<text text-anchor="middle" x="707.66" y="-97.92" font-family="Helvetica,sans-Serif" font-size="10.00">18</text>
</a>
</g>
</g>
<!-- dir_14c28d3bb977da9b21a3aa2d366ba228 -->
<g id="node10" class="node">
<title>dir_14c28d3bb977da9b21a3aa2d366ba228</title>
<g id="a_node10"><a xlink:href="dir_14c28d3bb977da9b21a3aa2d366ba228.html" target="_top" xlink:title="f_pc">
<polygon fill="white" stroke="black" points="254,-196 200,-196 200,-160 254,-160 254,-196"/>
<text text-anchor="middle" x="227" y="-175.5" font-family="Helvetica,sans-Serif" font-size="10.00">f_pc</text>
</a>
</g>
</g>
<!-- dir_fbb29e8cafd745cbb7106b56de6b5377&#45;&gt;dir_14c28d3bb977da9b21a3aa2d366ba228 -->
<g id="edge21" class="edge">
<title>dir_fbb29e8cafd745cbb7106b56de6b5377&#45;&gt;dir_14c28d3bb977da9b21a3aa2d366ba228</title>
<path fill="none" stroke="black" d="M659.94,-380.41C581.25,-343.8 352.41,-237.34 263.21,-195.84"/>
<polygon fill="black" stroke="black" points="264.57,-192.62 254.02,-191.57 261.61,-198.96 264.57,-192.62"/>
<g id="a_edge21&#45;headlabel"><a xlink:href="dir_000043_000044.html" target="_top" xlink:title="13">
<text text-anchor="middle" x="269.02" y="-189.06" font-family="Helvetica,sans-Serif" font-size="10.00">13</text>
</a>
</g>
</g>
<!-- dir_fbb29e8cafd745cbb7106b56de6b5377&#45;&gt;dir_4f0979a7f5e3194619cde56505e372d8 -->
<g id="edge22" class="edge">
<title>dir_fbb29e8cafd745cbb7106b56de6b5377&#45;&gt;dir_4f0979a7f5e3194619cde56505e372d8</title>
<path fill="none" stroke="black" d="M692.57,-412.19C700.45,-436.53 714.95,-481.28 724.27,-510.06"/>
<polygon fill="black" stroke="black" points="721.04,-511.44 727.45,-519.87 727.7,-509.28 721.04,-511.44"/>
<g id="a_edge22&#45;headlabel"><a xlink:href="dir_000043_000045.html" target="_top" xlink:title="2">
<text text-anchor="middle" x="717.23" y="-506.39" font-family="Helvetica,sans-Serif" font-size="10.00">2</text>
</a>
</g>
</g>
<!-- dir_fbb29e8cafd745cbb7106b56de6b5377&#45;&gt;dir_54283da8a0cf1311a88c964d76512876 -->
<g id="edge23" class="edge">
<title>dir_fbb29e8cafd745cbb7106b56de6b5377&#45;&gt;dir_54283da8a0cf1311a88c964d76512876</title>
<path fill="none" stroke="black" d="M681.66,-412.1C677.13,-420.3 670.78,-430.28 664.38,-439.36"/>
<polygon fill="black" stroke="black" points="661.36,-437.56 658.29,-447.7 667.01,-441.69 661.36,-437.56"/>
<g id="a_edge23&#45;headlabel"><a xlink:href="dir_000043_001623.html" target="_top" xlink:title="13">
<text text-anchor="middle" x="661.19" y="-430.48" font-family="Helvetica,sans-Serif" font-size="10.00">13</text>
</a>
</g>
</g>
<!-- dir_14c28d3bb977da9b21a3aa2d366ba228&#45;&gt;dir_b778c3f297ab88300258a2935792c8cc -->
<g id="edge15" class="edge">
<title>dir_14c28d3bb977da9b21a3aa2d366ba228&#45;&gt;dir_b778c3f297ab88300258a2935792c8cc</title>
<path fill="none" stroke="black" d="M254.14,-168.6C264.64,-165.57 276.81,-162.33 288,-160 411.79,-134.21 560.99,-117.48 629.4,-110.58"/>
<polygon fill="black" stroke="black" points="630.07,-114.04 639.67,-109.56 629.37,-107.07 630.07,-114.04"/>
<g id="a_edge15&#45;headlabel"><a xlink:href="dir_000044_000025.html" target="_top" xlink:title="24">
<text text-anchor="middle" x="626.77" y="-114.72" font-family="Helvetica,sans-Serif" font-size="10.00">24</text>
</a>
</g>
</g>
<!-- dir_14c28d3bb977da9b21a3aa2d366ba228&#45;&gt;dir_54283da8a0cf1311a88c964d76512876 -->
<g id="edge14" class="edge">
<title>dir_14c28d3bb977da9b21a3aa2d366ba228&#45;&gt;dir_54283da8a0cf1311a88c964d76512876</title>
<path fill="none" stroke="black" d="M249.45,-196C258.17,-205.88 266.97,-218.92 272,-232 301.01,-307.38 240.2,-354.57 297,-412 339.49,-454.96 522.06,-463.22 602.68,-464.72"/>
<polygon fill="black" stroke="black" points="602.84,-468.23 612.9,-464.89 602.96,-461.23 602.84,-468.23"/>
<g id="a_edge14&#45;headlabel"><a xlink:href="dir_000044_001623.html" target="_top" xlink:title="23">
<text text-anchor="middle" x="599.2" y="-468.51" font-family="Helvetica,sans-Serif" font-size="10.00">23</text>
</a>
</g>
</g>
<!-- dir_4f0979a7f5e3194619cde56505e372d8&#45;&gt;dir_b778c3f297ab88300258a2935792c8cc -->
<g id="edge47" class="edge">
<title>dir_4f0979a7f5e3194619cde56505e372d8&#45;&gt;dir_b778c3f297ab88300258a2935792c8cc</title>
<path fill="none" stroke="black" d="M760.62,-533.68C853.53,-521.74 1149,-477.32 1149,-395 1149,-395 1149,-395 1149,-249 1149,-209.2 1167.15,-188.15 1139,-160 1108.42,-129.42 810.97,-113.37 704.59,-108.57"/>
<polygon fill="black" stroke="black" points="704.47,-105.06 694.32,-108.11 704.16,-112.05 704.47,-105.06"/>
<g id="a_edge47&#45;headlabel"><a xlink:href="dir_000045_000025.html" target="_top" xlink:title="267">
<text text-anchor="middle" x="708.19" y="-99.88" font-family="Helvetica,sans-Serif" font-size="10.00">267</text>
</a>
</g>
</g>
<!-- dir_4f0979a7f5e3194619cde56505e372d8&#45;&gt;dir_6141ad2e1396b1970c524b101e645d67 -->
<g id="edge48" class="edge">
<title>dir_4f0979a7f5e3194619cde56505e372d8&#45;&gt;dir_6141ad2e1396b1970c524b101e645d67</title>
<path fill="none" stroke="black" d="M760.54,-537.04C818.46,-536.19 956.08,-529.14 1060,-484 1168.57,-436.85 1189,-369.37 1189,-251 1189,-251 1189,-251 1189,-177 1189,-44.06 709.95,-33.54 533.9,-34.16"/>
<polygon fill="black" stroke="black" points="533.73,-30.66 523.75,-34.21 533.76,-37.66 533.73,-30.66"/>
<g id="a_edge48&#45;headlabel"><a xlink:href="dir_000045_001622.html" target="_top" xlink:title="3">
<text text-anchor="middle" x="537.31" y="-25.3" font-family="Helvetica,sans-Serif" font-size="10.00">3</text>
</a>
</g>
</g>
<!-- dir_4f0979a7f5e3194619cde56505e372d8&#45;&gt;dir_54283da8a0cf1311a88c964d76512876 -->
<g id="edge46" class="edge">
<title>dir_4f0979a7f5e3194619cde56505e372d8&#45;&gt;dir_54283da8a0cf1311a88c964d76512876</title>
<path fill="none" stroke="black" d="M705.36,-520.41C692.73,-511.54 677.98,-500.47 665.73,-490.71"/>
<polygon fill="black" stroke="black" points="667.67,-487.78 657.7,-484.2 663.27,-493.22 667.67,-487.78"/>
<g id="a_edge46&#45;headlabel"><a xlink:href="dir_000045_001623.html" target="_top" xlink:title="1">
<text text-anchor="middle" x="672.25" y="-485.34" font-family="Helvetica,sans-Serif" font-size="10.00">1</text>
</a>
</g>
</g>
<!-- dir_6bdfff2c28f90f381b6da5bee088878b&#45;&gt;dir_b778c3f297ab88300258a2935792c8cc -->
<g id="edge30" class="edge">
<title>dir_6bdfff2c28f90f381b6da5bee088878b&#45;&gt;dir_b778c3f297ab88300258a2935792c8cc</title>
<path fill="none" stroke="black" d="M210.24,-231.73C193.41,-212.3 172.44,-180.74 191,-160 220.18,-127.39 523.18,-112.58 629.99,-108.34"/>
<polygon fill="black" stroke="black" points="630.13,-111.84 639.99,-107.95 629.86,-104.84 630.13,-111.84"/>
<g id="a_edge30&#45;headlabel"><a xlink:href="dir_000066_000025.html" target="_top" xlink:title="18">
<text text-anchor="middle" x="626.65" y="-112.31" font-family="Helvetica,sans-Serif" font-size="10.00">18</text>
</a>
</g>
</g>
<!-- dir_6bdfff2c28f90f381b6da5bee088878b&#45;&gt;dir_14c28d3bb977da9b21a3aa2d366ba228 -->
<g id="edge26" class="edge">
<title>dir_6bdfff2c28f90f381b6da5bee088878b&#45;&gt;dir_14c28d3bb977da9b21a3aa2d366ba228</title>
<path fill="none" stroke="black" d="M227,-231.7C227,-223.98 227,-214.71 227,-206.11"/>
<polygon fill="black" stroke="black" points="230.5,-206.1 227,-196.1 223.5,-206.1 230.5,-206.1"/>
<g id="a_edge26&#45;headlabel"><a xlink:href="dir_000066_000044.html" target="_top" xlink:title="1">
<text text-anchor="middle" x="233.34" y="-207.2" font-family="Helvetica,sans-Serif" font-size="10.00">1</text>
</a>
</g>
</g>
<!-- dir_6bdfff2c28f90f381b6da5bee088878b&#45;&gt;dir_4f0979a7f5e3194619cde56505e372d8 -->
<g id="edge27" class="edge">
<title>dir_6bdfff2c28f90f381b6da5bee088878b&#45;&gt;dir_4f0979a7f5e3194619cde56505e372d8</title>
<path fill="none" stroke="black" d="M223.21,-268.18C217.13,-300.79 209.28,-371.97 246,-412 307.54,-479.08 592.11,-519.83 695.41,-532.63"/>
<polygon fill="black" stroke="black" points="695.04,-536.11 705.39,-533.85 695.89,-529.16 695.04,-536.11"/>
<g id="a_edge27&#45;headlabel"><a xlink:href="dir_000066_000045.html" target="_top" xlink:title="14">
<text text-anchor="middle" x="691.13" y="-535.99" font-family="Helvetica,sans-Serif" font-size="10.00">14</text>
</a>
</g>
</g>
<!-- dir_f04ab26cc3a9b32efb726132a22d6a75 -->
<g id="node15" class="node">
<title>dir_f04ab26cc3a9b32efb726132a22d6a75</title>
<g id="a_node15"><a xlink:href="dir_f04ab26cc3a9b32efb726132a22d6a75.html" target="_top" xlink:title="MSL_C.PPCEABI.bare.H">
<polygon fill="white" stroke="red" points="161.5,-196 36.5,-196 36.5,-160 161.5,-160 161.5,-196"/>
<text text-anchor="middle" x="99" y="-175.5" font-family="Helvetica,sans-Serif" font-size="10.00">MSL_C.PPCEABI.bare.H</text>
</a>
</g>
</g>
<!-- dir_6bdfff2c28f90f381b6da5bee088878b&#45;&gt;dir_f04ab26cc3a9b32efb726132a22d6a75 -->
<g id="edge31" class="edge">
<title>dir_6bdfff2c28f90f381b6da5bee088878b&#45;&gt;dir_f04ab26cc3a9b32efb726132a22d6a75</title>
<path fill="none" stroke="black" d="M199.85,-234.15C182.16,-224.48 158.77,-211.69 138.97,-200.86"/>
<polygon fill="black" stroke="black" points="140.61,-197.77 130.16,-196.04 137.25,-203.91 140.61,-197.77"/>
<g id="a_edge31&#45;headlabel"><a xlink:href="dir_000066_000069.html" target="_top" xlink:title="2">
<text text-anchor="middle" x="145.13" y="-194.5" font-family="Helvetica,sans-Serif" font-size="10.00">2</text>
</a>
</g>
</g>
<!-- dir_6bdfff2c28f90f381b6da5bee088878b&#45;&gt;dir_6141ad2e1396b1970c524b101e645d67 -->
<g id="edge29" class="edge">
<title>dir_6bdfff2c28f90f381b6da5bee088878b&#45;&gt;dir_6141ad2e1396b1970c524b101e645d67</title>
<path fill="none" stroke="black" d="M199.58,-247.43C135.86,-242.68 -13.72,-224.52 28,-160 69.25,-96.2 293.98,-58.12 406.19,-42.82"/>
<polygon fill="black" stroke="black" points="406.92,-46.26 416.36,-41.46 405.99,-39.32 406.92,-46.26"/>
<g id="a_edge29&#45;headlabel"><a xlink:href="dir_000066_001622.html" target="_top" xlink:title="1">
<text text-anchor="middle" x="403.73" y="-47.05" font-family="Helvetica,sans-Serif" font-size="10.00">1</text>
</a>
</g>
</g>
<!-- dir_6bdfff2c28f90f381b6da5bee088878b&#45;&gt;dir_54283da8a0cf1311a88c964d76512876 -->
<g id="edge28" class="edge">
<title>dir_6bdfff2c28f90f381b6da5bee088878b&#45;&gt;dir_54283da8a0cf1311a88c964d76512876</title>
<path fill="none" stroke="black" d="M228.98,-268.26C233.65,-305.74 246.59,-392.79 268,-412 316.78,-455.77 517.75,-463.49 602.75,-464.78"/>
<polygon fill="black" stroke="black" points="602.72,-468.28 612.76,-464.91 602.81,-461.28 602.72,-468.28"/>
<g id="a_edge28&#45;headlabel"><a xlink:href="dir_000066_001623.html" target="_top" xlink:title="1">
<text text-anchor="middle" x="599.09" y="-468.57" font-family="Helvetica,sans-Serif" font-size="10.00">1</text>
</a>
</g>
</g>
<!-- dir_f4a0ada2a696f9fa1f0722f1cc886f9d -->
<g id="node13" class="node">
<title>dir_f4a0ada2a696f9fa1f0722f1cc886f9d</title>
<g id="a_node13"><a xlink:href="dir_f4a0ada2a696f9fa1f0722f1cc886f9d.html" target="_top" xlink:title="msg">
<polygon fill="white" stroke="red" points="1130,-196 1076,-196 1076,-160 1130,-160 1130,-196"/>
<text text-anchor="middle" x="1103" y="-175.5" font-family="Helvetica,sans-Serif" font-size="10.00">msg</text>
</a>
</g>
</g>
<!-- dir_f4a0ada2a696f9fa1f0722f1cc886f9d&#45;&gt;dir_b778c3f297ab88300258a2935792c8cc -->
<g id="edge17" class="edge">
<title>dir_f4a0ada2a696f9fa1f0722f1cc886f9d&#45;&gt;dir_b778c3f297ab88300258a2935792c8cc</title>
<path fill="none" stroke="black" d="M1076,-164.65C1071.4,-162.88 1066.61,-161.24 1062,-160 933.64,-125.41 775.45,-112.89 704.52,-108.79"/>
<polygon fill="black" stroke="black" points="704.48,-105.28 694.3,-108.23 704.09,-112.27 704.48,-105.28"/>
<g id="a_edge17&#45;headlabel"><a xlink:href="dir_000067_000025.html" target="_top" xlink:title="14">
<text text-anchor="middle" x="708.22" y="-100.15" font-family="Helvetica,sans-Serif" font-size="10.00">14</text>
</a>
</g>
</g>
<!-- dir_b056c41af2f37e34bf043d25c5f2cbe4&#45;&gt;dir_b778c3f297ab88300258a2935792c8cc -->
<g id="edge19" class="edge">
<title>dir_b056c41af2f37e34bf043d25c5f2cbe4&#45;&gt;dir_b778c3f297ab88300258a2935792c8cc</title>
<path fill="none" stroke="black" d="M620.52,-231.71C620.56,-213.35 622.21,-183.77 631,-160 634.55,-150.4 640.2,-140.85 645.98,-132.56"/>
<polygon fill="black" stroke="black" points="648.86,-134.55 651.97,-124.42 643.23,-130.4 648.86,-134.55"/>
<g id="a_edge19&#45;headlabel"><a xlink:href="dir_000078_000025.html" target="_top" xlink:title="2">
<text text-anchor="middle" x="649.02" y="-136.63" font-family="Helvetica,sans-Serif" font-size="10.00">2</text>
</a>
</g>
</g>
<!-- dir_b056c41af2f37e34bf043d25c5f2cbe4&#45;&gt;dir_6141ad2e1396b1970c524b101e645d67 -->
<g id="edge18" class="edge">
<title>dir_b056c41af2f37e34bf043d25c5f2cbe4&#45;&gt;dir_6141ad2e1396b1970c524b101e645d67</title>
<path fill="none" stroke="black" d="M593.9,-246.48C520.46,-239.37 321.83,-218.23 303,-196 257.04,-141.74 353.92,-85.74 418.47,-56.21"/>
<polygon fill="black" stroke="black" points="420.05,-59.34 427.73,-52.05 417.18,-52.95 420.05,-59.34"/>
<g id="a_edge18&#45;headlabel"><a xlink:href="dir_000078_001622.html" target="_top" xlink:title="1">
<text text-anchor="middle" x="417.93" y="-60.9" font-family="Helvetica,sans-Serif" font-size="10.00">1</text>
</a>
</g>
</g>
<!-- dir_f04ab26cc3a9b32efb726132a22d6a75&#45;&gt;dir_b778c3f297ab88300258a2935792c8cc -->
<g id="edge4" class="edge">
<title>dir_f04ab26cc3a9b32efb726132a22d6a75&#45;&gt;dir_b778c3f297ab88300258a2935792c8cc</title>
<path fill="none" stroke="black" d="M161.5,-162.6C166.4,-161.66 171.27,-160.77 176,-160 344.4,-132.41 547.73,-115.68 629.89,-109.61"/>
<polygon fill="black" stroke="black" points="630.26,-113.09 639.98,-108.87 629.75,-106.11 630.26,-113.09"/>
<g id="a_edge4&#45;headlabel"><a xlink:href="dir_000069_000025.html" target="_top" xlink:title="56">
<text text-anchor="middle" x="626.89" y="-113.68" font-family="Helvetica,sans-Serif" font-size="10.00">56</text>
</a>
</g>
</g>
<!-- dir_f04ab26cc3a9b32efb726132a22d6a75&#45;&gt;dir_6141ad2e1396b1970c524b101e645d67 -->
<g id="edge5" class="edge">
<title>dir_f04ab26cc3a9b32efb726132a22d6a75&#45;&gt;dir_6141ad2e1396b1970c524b101e645d67</title>
<path fill="none" stroke="black" d="M126.77,-159.83C159.52,-140.2 216.07,-108.18 268,-88 313.02,-70.51 365.88,-56.87 406.23,-47.81"/>
<polygon fill="black" stroke="black" points="407.2,-51.18 416.21,-45.6 405.69,-44.34 407.2,-51.18"/>
<g id="a_edge5&#45;headlabel"><a xlink:href="dir_000069_001622.html" target="_top" xlink:title="1">
<text text-anchor="middle" x="404.3" y="-52.23" font-family="Helvetica,sans-Serif" font-size="10.00">1</text>
</a>
</g>
</g>
<!-- dir_87ef4356690393f98a03cd010822f8d3 -->
<g id="node16" class="node">
<title>dir_87ef4356690393f98a03cd010822f8d3</title>
<g id="a_node16"><a xlink:href="dir_87ef4356690393f98a03cd010822f8d3.html" target="_top" xlink:title="odemuexi2">
<polygon fill="white" stroke="red" points="997.5,-196 934.5,-196 934.5,-160 997.5,-160 997.5,-196"/>
<text text-anchor="middle" x="966" y="-175.5" font-family="Helvetica,sans-Serif" font-size="10.00">odemuexi2</text>
</a>
</g>
</g>
<!-- dir_87ef4356690393f98a03cd010822f8d3&#45;&gt;dir_b778c3f297ab88300258a2935792c8cc -->
<g id="edge20" class="edge">
<title>dir_87ef4356690393f98a03cd010822f8d3&#45;&gt;dir_b778c3f297ab88300258a2935792c8cc</title>
<path fill="none" stroke="black" d="M934.43,-163.21C931.28,-162.05 928.09,-160.95 925,-160 848.07,-136.39 754.99,-120.19 704.31,-112.38"/>
<polygon fill="black" stroke="black" points="704.58,-108.88 694.17,-110.84 703.53,-115.8 704.58,-108.88"/>
<g id="a_edge20&#45;headlabel"><a xlink:href="dir_000079_000025.html" target="_top" xlink:title="1">
<text text-anchor="middle" x="708.56" y="-104.11" font-family="Helvetica,sans-Serif" font-size="10.00">1</text>
</a>
</g>
</g>
<!-- dir_70bf4e9311ed1821b28462b50265373f -->
<g id="node17" class="node">
<title>dir_70bf4e9311ed1821b28462b50265373f</title>
<g id="a_node17"><a xlink:href="dir_70bf4e9311ed1821b28462b50265373f.html" target="_top" xlink:title="odenotstub">
<polygon fill="white" stroke="black" points="601.5,-196 536.5,-196 536.5,-160 601.5,-160 601.5,-196"/>
<text text-anchor="middle" x="569" y="-175.5" font-family="Helvetica,sans-Serif" font-size="10.00">odenotstub</text>
</a>
</g>
</g>
<!-- dir_70bf4e9311ed1821b28462b50265373f&#45;&gt;dir_b778c3f297ab88300258a2935792c8cc -->
<g id="edge13" class="edge">
<title>dir_70bf4e9311ed1821b28462b50265373f&#45;&gt;dir_b778c3f297ab88300258a2935792c8cc</title>
<path fill="none" stroke="black" d="M592.97,-159.88C605.55,-150.89 621.13,-139.76 634.75,-130.03"/>
<polygon fill="black" stroke="black" points="636.83,-132.85 642.93,-124.19 632.76,-127.15 636.83,-132.85"/>
<g id="a_edge13&#45;headlabel"><a xlink:href="dir_000082_000025.html" target="_top" xlink:title="1">
<text text-anchor="middle" x="635.56" y="-134.75" font-family="Helvetica,sans-Serif" font-size="10.00">1</text>
</a>
</g>
</g>
<!-- dir_d1e95842203b094e4f127fa85baf24b5 -->
<g id="node18" class="node">
<title>dir_d1e95842203b094e4f127fa85baf24b5</title>
<g id="a_node18"><a xlink:href="dir_d1e95842203b094e4f127fa85baf24b5.html" target="_top" xlink:title="rel">
<polygon fill="white" stroke="red" points="518,-196 464,-196 464,-160 518,-160 518,-196"/>
<text text-anchor="middle" x="491" y="-175.5" font-family="Helvetica,sans-Serif" font-size="10.00">rel</text>
</a>
</g>
</g>
<!-- dir_d1e95842203b094e4f127fa85baf24b5&#45;&gt;dir_b778c3f297ab88300258a2935792c8cc -->
<g id="edge32" class="edge">
<title>dir_d1e95842203b094e4f127fa85baf24b5&#45;&gt;dir_b778c3f297ab88300258a2935792c8cc</title>
<path fill="none" stroke="black" d="M518.39,-164.17C521.62,-162.73 524.87,-161.31 528,-160 562.4,-145.56 602.24,-130.54 630.43,-120.19"/>
<polygon fill="black" stroke="black" points="631.69,-123.45 639.88,-116.73 629.29,-116.88 631.69,-123.45"/>
<g id="a_edge32&#45;headlabel"><a xlink:href="dir_000083_000025.html" target="_top" xlink:title="3479">
<text text-anchor="middle" x="629.29" y="-124.85" font-family="Helvetica,sans-Serif" font-size="10.00">3479</text>
</a>
</g>
</g>
<!-- dir_6141ad2e1396b1970c524b101e645d67&#45;&gt;dir_b778c3f297ab88300258a2935792c8cc -->
<g id="edge45" class="edge">
<title>dir_6141ad2e1396b1970c524b101e645d67&#45;&gt;dir_b778c3f297ab88300258a2935792c8cc</title>
<path fill="none" stroke="black" d="M523.58,-51.95C557.32,-63.5 599.93,-78.67 629.96,-89.82"/>
<polygon fill="black" stroke="black" points="629.04,-93.22 639.64,-93.44 631.5,-86.66 629.04,-93.22"/>
<g id="a_edge45&#45;headlabel"><a xlink:href="dir_001622_000025.html" target="_top" xlink:title="9">
<text text-anchor="middle" x="624.68" y="-92.12" font-family="Helvetica,sans-Serif" font-size="10.00">9</text>
</a>
</g>
</g>
<!-- dir_54283da8a0cf1311a88c964d76512876&#45;&gt;dir_b778c3f297ab88300258a2935792c8cc -->
<g id="edge36" class="edge">
<title>dir_54283da8a0cf1311a88c964d76512876&#45;&gt;dir_b778c3f297ab88300258a2935792c8cc</title>
<path fill="none" stroke="black" d="M612.82,-459.82C529.97,-443.79 293,-391.92 293,-323 293,-323 293,-323 293,-249 293,-209.2 275.32,-188.6 303,-160 347.61,-113.9 546.39,-107.52 629.88,-106.9"/>
<polygon fill="black" stroke="black" points="629.96,-110.4 639.94,-106.85 629.92,-103.4 629.96,-110.4"/>
<g id="a_edge36&#45;headlabel"><a xlink:href="dir_001623_000025.html" target="_top" xlink:title="40">
<text text-anchor="middle" x="626.38" y="-110.76" font-family="Helvetica,sans-Serif" font-size="10.00">40</text>
</a>
</g>
</g>
<!-- dir_54283da8a0cf1311a88c964d76512876&#45;&gt;dir_fbb29e8cafd745cbb7106b56de6b5377 -->
<g id="edge37" class="edge">
<title>dir_54283da8a0cf1311a88c964d76512876&#45;&gt;dir_fbb29e8cafd745cbb7106b56de6b5377</title>
<path fill="none" stroke="black" d="M646.46,-447.7C651.01,-439.47 657.37,-429.48 663.77,-420.42"/>
<polygon fill="black" stroke="black" points="666.78,-422.24 669.86,-412.1 661.13,-418.1 666.78,-422.24"/>
<g id="a_edge37&#45;headlabel"><a xlink:href="dir_001623_000043.html" target="_top" xlink:title="1">
<text text-anchor="middle" x="666.95" y="-424.32" font-family="Helvetica,sans-Serif" font-size="10.00">1</text>
</a>
</g>
</g>
<!-- dir_54283da8a0cf1311a88c964d76512876&#45;&gt;dir_14c28d3bb977da9b21a3aa2d366ba228 -->
<g id="edge33" class="edge">
<title>dir_54283da8a0cf1311a88c964d76512876&#45;&gt;dir_14c28d3bb977da9b21a3aa2d366ba228</title>
<path fill="none" stroke="black" d="M612.96,-464.98C535.97,-464.37 325.08,-458.59 279,-412 222.2,-354.57 283.01,-307.38 254,-232 250.3,-222.39 244.58,-212.81 239.19,-204.48"/>
<polygon fill="black" stroke="black" points="242.03,-202.42 233.6,-196 236.18,-206.28 242.03,-202.42"/>
<g id="a_edge33&#45;headlabel"><a xlink:href="dir_001623_000044.html" target="_top" xlink:title="1">
<text text-anchor="middle" x="246.38" y="-201.36" font-family="Helvetica,sans-Serif" font-size="10.00">1</text>
</a>
</g>
</g>
<!-- dir_54283da8a0cf1311a88c964d76512876&#45;&gt;dir_4f0979a7f5e3194619cde56505e372d8 -->
<g id="edge34" class="edge">
<title>dir_54283da8a0cf1311a88c964d76512876&#45;&gt;dir_4f0979a7f5e3194619cde56505e372d8</title>
<path fill="none" stroke="black" d="M669.03,-483.86C681.56,-492.68 696.11,-503.61 708.23,-513.26"/>
<polygon fill="black" stroke="black" points="706.2,-516.12 716.17,-519.7 710.61,-510.68 706.2,-516.12"/>
<g id="a_edge34&#45;headlabel"><a xlink:href="dir_001623_000045.html" target="_top" xlink:title="2">
<text text-anchor="middle" x="701.62" y="-513.57" font-family="Helvetica,sans-Serif" font-size="10.00">2</text>
</a>
</g>
</g>
<!-- dir_54283da8a0cf1311a88c964d76512876&#45;&gt;dir_b056c41af2f37e34bf043d25c5f2cbe4 -->
<g id="edge35" class="edge">
<title>dir_54283da8a0cf1311a88c964d76512876&#45;&gt;dir_b056c41af2f37e34bf043d25c5f2cbe4</title>
<path fill="none" stroke="black" d="M639.4,-447.85C635.94,-410.83 627.75,-323.18 623.56,-278.39"/>
<polygon fill="black" stroke="black" points="627.03,-277.86 622.61,-268.23 620.06,-278.51 627.03,-277.86"/>
<g id="a_edge35&#45;headlabel"><a xlink:href="dir_001623_000078.html" target="_top" xlink:title="1">
<text text-anchor="middle" x="630.19" y="-278.68" font-family="Helvetica,sans-Serif" font-size="10.00">1</text>
</a>
</g>
</g>
<!-- dir_1cf8c5ae6c227b033e49e3be60b350ef -->
<g id="node21" class="node">
<title>dir_1cf8c5ae6c227b033e49e3be60b350ef</title>
<g id="a_node21"><a xlink:href="dir_1cf8c5ae6c227b033e49e3be60b350ef.html" target="_top" xlink:title="TRK_MINNOW_DOLPHIN">
<polygon fill="white" stroke="red" points="446,-196 312,-196 312,-160 446,-160 446,-196"/>
<text text-anchor="middle" x="379" y="-175.5" font-family="Helvetica,sans-Serif" font-size="10.00">TRK_MINNOW_DOLPHIN</text>
</a>
</g>
</g>
<!-- dir_1cf8c5ae6c227b033e49e3be60b350ef&#45;&gt;dir_b778c3f297ab88300258a2935792c8cc -->
<g id="edge9" class="edge">
<title>dir_1cf8c5ae6c227b033e49e3be60b350ef&#45;&gt;dir_b778c3f297ab88300258a2935792c8cc</title>
<path fill="none" stroke="black" d="M446.16,-160.68C503.33,-146.78 583.37,-127.33 629.73,-116.06"/>
<polygon fill="black" stroke="black" points="630.76,-119.41 639.65,-113.65 629.11,-112.61 630.76,-119.41"/>
<g id="a_edge9&#45;headlabel"><a xlink:href="dir_001626_000025.html" target="_top" xlink:title="29">
<text text-anchor="middle" x="627.94" y="-120.52" font-family="Helvetica,sans-Serif" font-size="10.00">29</text>
</a>
</g>
</g>
<!-- dir_81939fb769658ab66ba54ec390580a1a&#45;&gt;dir_b778c3f297ab88300258a2935792c8cc -->
<g id="edge12" class="edge">
<title>dir_81939fb769658ab66ba54ec390580a1a&#45;&gt;dir_b778c3f297ab88300258a2935792c8cc</title>
<path fill="none" stroke="black" d="M1082.11,-231.74C1072.48,-208.48 1054.72,-168.94 1042,-160 987.96,-122.02 787.78,-111.01 704.12,-108.03"/>
<polygon fill="black" stroke="black" points="704.16,-104.53 694.05,-107.69 703.92,-111.53 704.16,-104.53"/>
<g id="a_edge12&#45;headlabel"><a xlink:href="dir_001641_000025.html" target="_top" xlink:title="25">
<text text-anchor="middle" x="707.85" y="-99.31" font-family="Helvetica,sans-Serif" font-size="10.00">25</text>
</a>
</g>
</g>
<!-- dir_81939fb769658ab66ba54ec390580a1a&#45;&gt;dir_4f0979a7f5e3194619cde56505e372d8 -->
<g id="edge10" class="edge">
<title>dir_81939fb769658ab66ba54ec390580a1a&#45;&gt;dir_4f0979a7f5e3194619cde56505e372d8</title>
<path fill="none" stroke="black" d="M1086.74,-268.24C1083.52,-287.37 1076.11,-318.36 1060,-340 984.16,-441.83 838.7,-501.58 770.29,-525.2"/>
<polygon fill="black" stroke="black" points="769.13,-521.9 760.78,-528.42 771.37,-528.53 769.13,-521.9"/>
<g id="a_edge10&#45;headlabel"><a xlink:href="dir_001641_000045.html" target="_top" xlink:title="12">
<text text-anchor="middle" x="771.62" y="-515.56" font-family="Helvetica,sans-Serif" font-size="10.00">12</text>
</a>
</g>
</g>
<!-- dir_81939fb769658ab66ba54ec390580a1a&#45;&gt;dir_54283da8a0cf1311a88c964d76512876 -->
<g id="edge11" class="edge">
<title>dir_81939fb769658ab66ba54ec390580a1a&#45;&gt;dir_54283da8a0cf1311a88c964d76512876</title>
<path fill="none" stroke="black" d="M1084.27,-268.31C1077.92,-288.38 1064.71,-321.12 1042,-340 932.48,-431.05 756.66,-455.93 679.46,-462.61"/>
<polygon fill="black" stroke="black" points="678.92,-459.14 669.23,-463.43 679.48,-466.12 678.92,-459.14"/>
<g id="a_edge11&#45;headlabel"><a xlink:href="dir_001641_001623.html" target="_top" xlink:title="1">
<text text-anchor="middle" x="682.27" y="-453.52" font-family="Helvetica,sans-Serif" font-size="10.00">1</text>
</a>
</g>
</g>
</g>
</svg>
