<?xml version="1.0" encoding="UTF-8" standalone="no"?>
<!DOCTYPE svg PUBLIC "-//W3C//DTD SVG 1.1//EN"
 "http://www.w3.org/Graphics/SVG/1.1/DTD/svg11.dtd">
<!-- Generated by graphviz version 2.44.0 ()
 -->
<!-- Title: include/JSystem Pages: 1 -->
<svg width="1515pt" height="327pt"
 viewBox="0.00 0.00 1515.00 327.00" xmlns="http://www.w3.org/2000/svg" xmlns:xlink="http://www.w3.org/1999/xlink">
<g id="graph0" class="graph" transform="scale(1 1) rotate(0) translate(4 323)">
<title>include/JSystem</title>
<polygon fill="white" stroke="transparent" points="-4,4 -4,-323 1511,-323 1511,4 -4,4"/>
<g id="clust1" class="cluster">
<title>clusterdir_d44c64559bbebec7f509842c48db8b23</title>
<g id="a_clust1"><a xlink:href="dir_d44c64559bbebec7f509842c48db8b23.html" target="_top" xlink:title="include">
<polygon fill="#ddddee" stroke="black" points="8,-8 8,-311 1499,-311 1499,-8 8,-8"/>
<text text-anchor="middle" x="753.5" y="-299" font-family="Helvetica,sans-Serif" font-size="10.00">include</text>
</a>
</g>
</g>
<g id="clust2" class="cluster">
<title>clusterdir_4f0979a7f5e3194619cde56505e372d8</title>
<g id="a_clust2"><a xlink:href="dir_4f0979a7f5e3194619cde56505e372d8.html" target="_top">
<polygon fill="#eeeeff" stroke="black" points="16,-16 16,-284 1096,-284 1096,-16 16,-16"/>
</a>
</g>
</g>
<!-- dir_54283da8a0cf1311a88c964d76512876 -->
<g id="node1" class="node">
<title>dir_54283da8a0cf1311a88c964d76512876</title>
<g id="a_node1"><a xlink:href="dir_54283da8a0cf1311a88c964d76512876.html" target="_top" xlink:title="SSystem">
<polygon fill="white" stroke="red" points="1331,-204 1275,-204 1275,-168 1331,-168 1331,-204"/>
<text text-anchor="middle" x="1303" y="-183.5" font-family="Helvetica,sans-Serif" font-size="10.00">SSystem</text>
</a>
</g>
</g>
<!-- dir_b778c3f297ab88300258a2935792c8cc -->
<g id="node2" class="node">
<title>dir_b778c3f297ab88300258a2935792c8cc</title>
<g id="a_node2"><a xlink:href="dir_b778c3f297ab88300258a2935792c8cc.html" target="_top" xlink:title="dolphin">
<polygon fill="white" stroke="red" points="1347,-60 1293,-60 1293,-24 1347,-24 1347,-60"/>
<text text-anchor="middle" x="1320" y="-39.5" font-family="Helvetica,sans-Serif" font-size="10.00">dolphin</text>
</a>
</g>
</g>
<!-- dir_54283da8a0cf1311a88c964d76512876&#45;&gt;dir_b778c3f297ab88300258a2935792c8cc -->
<g id="edge18" class="edge">
<title>dir_54283da8a0cf1311a88c964d76512876&#45;&gt;dir_b778c3f297ab88300258a2935792c8cc</title>
<path fill="none" stroke="black" d="M1307.62,-167.95C1310.23,-157.62 1313.3,-144.15 1315,-132 1317.88,-111.44 1319.12,-87.99 1319.64,-70.32"/>
<polygon fill="black" stroke="black" points="1323.14,-70.22 1319.88,-60.14 1316.15,-70.06 1323.14,-70.22"/>
<g id="a_edge18&#45;headlabel"><a xlink:href="dir_001623_000025.html" target="_top" xlink:title="40">
<text text-anchor="middle" x="1325.9" y="-71.39" font-family="Helvetica,sans-Serif" font-size="10.00">40</text>
</a>
</g>
</g>
<!-- dir_cd1009b6de6f257cf504091b6f95eba2 -->
<g id="node13" class="node">
<title>dir_cd1009b6de6f257cf504091b6f95eba2</title>
<g id="a_node13"><a xlink:href="dir_cd1009b6de6f257cf504091b6f95eba2.html" target="_top" xlink:title="JKernel">
<polygon fill="white" stroke="black" points="1013,-132 959,-132 959,-96 1013,-96 1013,-132"/>
<text text-anchor="middle" x="986" y="-111.5" font-family="Helvetica,sans-Serif" font-size="10.00">JKernel</text>
</a>
</g>
</g>
<!-- dir_54283da8a0cf1311a88c964d76512876&#45;&gt;dir_cd1009b6de6f257cf504091b6f95eba2 -->
<g id="edge19" class="edge">
<title>dir_54283da8a0cf1311a88c964d76512876&#45;&gt;dir_cd1009b6de6f257cf504091b6f95eba2</title>
<path fill="none" stroke="black" d="M1274.89,-182.1C1225.29,-176.47 1119.09,-162.16 1022.81,-131.82"/>
<polygon fill="black" stroke="black" points="1023.82,-128.47 1013.22,-128.73 1021.67,-135.13 1023.82,-128.47"/>
<g id="a_edge19&#45;headlabel"><a xlink:href="dir_001623_000054.html" target="_top" xlink:title="1">
<text text-anchor="middle" x="1028.11" y="-124.37" font-family="Helvetica,sans-Serif" font-size="10.00">1</text>
</a>
</g>
</g>
<!-- dir_745c4d827b885b106b58a37f86b4723a -->
<g id="node14" class="node">
<title>dir_745c4d827b885b106b58a37f86b4723a</title>
<g id="a_node14"><a xlink:href="dir_745c4d827b885b106b58a37f86b4723a.html" target="_top" xlink:title="JMath">
<polygon fill="white" stroke="black" points="419,-276 365,-276 365,-240 419,-240 419,-276"/>
<text text-anchor="middle" x="392" y="-255.5" font-family="Helvetica,sans-Serif" font-size="10.00">JMath</text>
</a>
</g>
</g>
<!-- dir_54283da8a0cf1311a88c964d76512876&#45;&gt;dir_745c4d827b885b106b58a37f86b4723a -->
<g id="edge17" class="edge">
<title>dir_54283da8a0cf1311a88c964d76512876&#45;&gt;dir_745c4d827b885b106b58a37f86b4723a</title>
<path fill="none" stroke="black" d="M1274.95,-199.87C1270.37,-201.53 1265.61,-203 1261,-204 902.15,-281.95 789.78,-153.49 429.03,-240.4"/>
<polygon fill="black" stroke="black" points="427.98,-237.06 419.1,-242.83 429.65,-243.86 427.98,-237.06"/>
<g id="a_edge17&#45;headlabel"><a xlink:href="dir_001623_000055.html" target="_top" xlink:title="1">
<text text-anchor="middle" x="430.8" y="-230.94" font-family="Helvetica,sans-Serif" font-size="10.00">1</text>
</a>
</g>
</g>
<!-- dir_6141ad2e1396b1970c524b101e645d67 -->
<g id="node3" class="node">
<title>dir_6141ad2e1396b1970c524b101e645d67</title>
<g id="a_node3"><a xlink:href="dir_6141ad2e1396b1970c524b101e645d67.html" target="_top" xlink:title="Runtime.PPCEABI.H">
<polygon fill="none" stroke="black" points="1210.5,-132 1103.5,-132 1103.5,-96 1210.5,-96 1210.5,-132"/>
<text text-anchor="middle" x="1157" y="-111.5" font-family="Helvetica,sans-Serif" font-size="10.00">Runtime.PPCEABI.H</text>
</a>
</g>
</g>
<!-- dir_6141ad2e1396b1970c524b101e645d67&#45;&gt;dir_b778c3f297ab88300258a2935792c8cc -->
<g id="edge24" class="edge">
<title>dir_6141ad2e1396b1970c524b101e645d67&#45;&gt;dir_b778c3f297ab88300258a2935792c8cc</title>
<path fill="none" stroke="black" d="M1196.87,-95.88C1223.28,-84.53 1257.66,-69.77 1283.38,-58.73"/>
<polygon fill="black" stroke="black" points="1284.97,-61.85 1292.78,-54.69 1282.21,-55.42 1284.97,-61.85"/>
<g id="a_edge24&#45;headlabel"><a xlink:href="dir_001622_000025.html" target="_top" xlink:title="9">
<text text-anchor="middle" x="1282.79" y="-63.38" font-family="Helvetica,sans-Serif" font-size="10.00">9</text>
</a>
</g>
</g>
<!-- dir_4f0979a7f5e3194619cde56505e372d8 -->
<g id="node4" class="node">
<title>dir_4f0979a7f5e3194619cde56505e372d8</title>
<text text-anchor="middle" x="1060" y="-255.5" font-family="Helvetica,sans-Serif" font-size="10.00">JSystem</text>
</g>
<!-- dir_a9517e75d808b51ad9f5947a3cea1d31 -->
<g id="node5" class="node">
<title>dir_a9517e75d808b51ad9f5947a3cea1d31</title>
<g id="a_node5"><a xlink:href="dir_a9517e75d808b51ad9f5947a3cea1d31.html" target="_top" xlink:title="J2DGraph">
<polygon fill="white" stroke="black" points="84,-276 24,-276 24,-240 84,-240 84,-276"/>
<text text-anchor="middle" x="54" y="-255.5" font-family="Helvetica,sans-Serif" font-size="10.00">J2DGraph</text>
</a>
</g>
</g>
<!-- dir_a9517e75d808b51ad9f5947a3cea1d31&#45;&gt;dir_b778c3f297ab88300258a2935792c8cc -->
<g id="edge6" class="edge">
<title>dir_a9517e75d808b51ad9f5947a3cea1d31&#45;&gt;dir_b778c3f297ab88300258a2935792c8cc</title>
<path fill="none" stroke="black" d="M84.29,-242.53C87.19,-241.53 90.12,-240.66 93,-240 485.79,-149.94 601.6,-270.88 999,-204 1107.98,-185.66 1152.51,-203.23 1237,-132 1250.68,-120.47 1243.82,-109.96 1255,-96 1263.78,-85.04 1275.16,-74.82 1285.95,-66.33"/>
<polygon fill="black" stroke="black" points="1288.18,-69.03 1294.02,-60.2 1283.94,-63.46 1288.18,-69.03"/>
<g id="a_edge6&#45;headlabel"><a xlink:href="dir_000046_000025.html" target="_top" xlink:title="21">
<text text-anchor="middle" x="1287.03" y="-70.97" font-family="Helvetica,sans-Serif" font-size="10.00">21</text>
</a>
</g>
</g>
<!-- dir_a9517e75d808b51ad9f5947a3cea1d31&#45;&gt;dir_cd1009b6de6f257cf504091b6f95eba2 -->
<g id="edge7" class="edge">
<title>dir_a9517e75d808b51ad9f5947a3cea1d31&#45;&gt;dir_cd1009b6de6f257cf504091b6f95eba2</title>
<path fill="none" stroke="black" d="M84.37,-242.83C87.25,-241.77 90.16,-240.8 93,-240 258.91,-193.18 800.29,-134.4 948.3,-118.9"/>
<polygon fill="black" stroke="black" points="949.08,-122.33 958.66,-117.81 948.35,-115.37 949.08,-122.33"/>
<g id="a_edge7&#45;headlabel"><a xlink:href="dir_000046_000054.html" target="_top" xlink:title="1">
<text text-anchor="middle" x="945.8" y="-123.03" font-family="Helvetica,sans-Serif" font-size="10.00">1</text>
</a>
</g>
</g>
<!-- dir_45593f23b58a9cb34ecfe1ccd7e4e81f -->
<g id="node19" class="node">
<title>dir_45593f23b58a9cb34ecfe1ccd7e4e81f</title>
<g id="a_node19"><a xlink:href="dir_45593f23b58a9cb34ecfe1ccd7e4e81f.html" target="_top" xlink:title="JSupport">
<polygon fill="white" stroke="black" points="1014,-60 958,-60 958,-24 1014,-24 1014,-60"/>
<text text-anchor="middle" x="986" y="-39.5" font-family="Helvetica,sans-Serif" font-size="10.00">JSupport</text>
</a>
</g>
</g>
<!-- dir_a9517e75d808b51ad9f5947a3cea1d31&#45;&gt;dir_45593f23b58a9cb34ecfe1ccd7e4e81f -->
<g id="edge5" class="edge">
<title>dir_a9517e75d808b51ad9f5947a3cea1d31&#45;&gt;dir_45593f23b58a9cb34ecfe1ccd7e4e81f</title>
<path fill="none" stroke="black" d="M84.31,-242.5C126.55,-222.86 205.97,-187.95 277,-168 527.96,-97.53 840.58,-58.92 947.83,-47.03"/>
<polygon fill="black" stroke="black" points="948.29,-50.5 957.85,-45.93 947.53,-43.54 948.29,-50.5"/>
<g id="a_edge5&#45;headlabel"><a xlink:href="dir_000046_000064.html" target="_top" xlink:title="4">
<text text-anchor="middle" x="945.03" y="-51.21" font-family="Helvetica,sans-Serif" font-size="10.00">4</text>
</a>
</g>
</g>
<!-- dir_25682d7fe27d5da48e7af3ae8c2abb7f -->
<g id="node20" class="node">
<title>dir_25682d7fe27d5da48e7af3ae8c2abb7f</title>
<g id="a_node20"><a xlink:href="dir_25682d7fe27d5da48e7af3ae8c2abb7f.html" target="_top" xlink:title="JUtility">
<polygon fill="white" stroke="black" points="990,-204 936,-204 936,-168 990,-168 990,-204"/>
<text text-anchor="middle" x="963" y="-183.5" font-family="Helvetica,sans-Serif" font-size="10.00">JUtility</text>
</a>
</g>
</g>
<!-- dir_a9517e75d808b51ad9f5947a3cea1d31&#45;&gt;dir_25682d7fe27d5da48e7af3ae8c2abb7f -->
<g id="edge4" class="edge">
<title>dir_a9517e75d808b51ad9f5947a3cea1d31&#45;&gt;dir_25682d7fe27d5da48e7af3ae8c2abb7f</title>
<path fill="none" stroke="black" d="M84.31,-242.59C87.2,-241.58 90.13,-240.69 93,-240 174.71,-220.35 769.72,-194.89 925.67,-188.5"/>
<polygon fill="black" stroke="black" points="925.86,-192 935.71,-188.09 925.57,-185.01 925.86,-192"/>
<g id="a_edge4&#45;headlabel"><a xlink:href="dir_000046_000065.html" target="_top" xlink:title="6">
<text text-anchor="middle" x="922.38" y="-192.48" font-family="Helvetica,sans-Serif" font-size="10.00">6</text>
</a>
</g>
</g>
<!-- dir_d068c98d77942e923a6396bfbdef05f0 -->
<g id="node6" class="node">
<title>dir_d068c98d77942e923a6396bfbdef05f0</title>
<g id="a_node6"><a xlink:href="dir_d068c98d77942e923a6396bfbdef05f0.html" target="_top" xlink:title="J3DGraphAnimator">
<polygon fill="white" stroke="black" points="1014.5,-276 915.5,-276 915.5,-240 1014.5,-240 1014.5,-276"/>
<text text-anchor="middle" x="965" y="-255.5" font-family="Helvetica,sans-Serif" font-size="10.00">J3DGraphAnimator</text>
</a>
</g>
</g>
<!-- dir_d068c98d77942e923a6396bfbdef05f0&#45;&gt;dir_b778c3f297ab88300258a2935792c8cc -->
<g id="edge16" class="edge">
<title>dir_d068c98d77942e923a6396bfbdef05f0&#45;&gt;dir_b778c3f297ab88300258a2935792c8cc</title>
<path fill="none" stroke="black" d="M1014.73,-241.91C1017.85,-241.2 1020.96,-240.55 1024,-240 1073.46,-231 1440.9,-240.93 1475,-204 1507.56,-168.73 1502.92,-135.05 1475,-96 1448.43,-58.83 1394.17,-47.44 1357.44,-44.11"/>
<polygon fill="black" stroke="black" points="1357.35,-40.6 1347.11,-43.35 1356.83,-47.58 1357.35,-40.6"/>
<g id="a_edge16&#45;headlabel"><a xlink:href="dir_000047_000025.html" target="_top" xlink:title="12">
<text text-anchor="middle" x="1361.14" y="-35.53" font-family="Helvetica,sans-Serif" font-size="10.00">12</text>
</a>
</g>
</g>
<!-- dir_4a61573b4bce9188d102de1e22b28aee -->
<g id="node7" class="node">
<title>dir_4a61573b4bce9188d102de1e22b28aee</title>
<g id="a_node7"><a xlink:href="dir_4a61573b4bce9188d102de1e22b28aee.html" target="_top" xlink:title="J3DGraphBase">
<polygon fill="white" stroke="black" points="346.5,-276 263.5,-276 263.5,-240 346.5,-240 346.5,-276"/>
<text text-anchor="middle" x="305" y="-255.5" font-family="Helvetica,sans-Serif" font-size="10.00">J3DGraphBase</text>
</a>
</g>
</g>
<!-- dir_4a61573b4bce9188d102de1e22b28aee&#45;&gt;dir_54283da8a0cf1311a88c964d76512876 -->
<g id="edge11" class="edge">
<title>dir_4a61573b4bce9188d102de1e22b28aee&#45;&gt;dir_54283da8a0cf1311a88c964d76512876</title>
<path fill="none" stroke="black" d="M346.78,-242.04C349.87,-241.25 352.97,-240.55 356,-240 751.98,-167.63 867.49,-288.77 1261,-204 1262.44,-203.69 1263.9,-203.33 1265.36,-202.94"/>
<polygon fill="black" stroke="black" points="1266.48,-206.25 1274.95,-199.89 1264.36,-199.58 1266.48,-206.25"/>
<g id="a_edge11&#45;headlabel"><a xlink:href="dir_000048_001623.html" target="_top" xlink:title="1">
<text text-anchor="middle" x="1263.92" y="-207.55" font-family="Helvetica,sans-Serif" font-size="10.00">1</text>
</a>
</g>
</g>
<!-- dir_4a61573b4bce9188d102de1e22b28aee&#45;&gt;dir_b778c3f297ab88300258a2935792c8cc -->
<g id="edge12" class="edge">
<title>dir_4a61573b4bce9188d102de1e22b28aee&#45;&gt;dir_b778c3f297ab88300258a2935792c8cc</title>
<path fill="none" stroke="black" d="M346.78,-242.04C349.87,-241.25 352.97,-240.56 356,-240 452.8,-222.26 1154.74,-251.38 1241,-204 1258.07,-194.62 1254.33,-183.59 1266,-168 1278.31,-151.55 1285.59,-150.26 1295,-132 1305.08,-112.44 1311.54,-88.31 1315.36,-70.11"/>
<polygon fill="black" stroke="black" points="1318.82,-70.64 1317.31,-60.16 1311.95,-69.3 1318.82,-70.64"/>
<g id="a_edge12&#45;headlabel"><a xlink:href="dir_000048_000025.html" target="_top" xlink:title="22">
<text text-anchor="middle" x="1320.91" y="-72.22" font-family="Helvetica,sans-Serif" font-size="10.00">22</text>
</a>
</g>
</g>
<!-- dir_a362cd36472d11e3c6a34ca86d202e04 -->
<g id="node8" class="node">
<title>dir_a362cd36472d11e3c6a34ca86d202e04</title>
<g id="a_node8"><a xlink:href="dir_a362cd36472d11e3c6a34ca86d202e04.html" target="_top" xlink:title="J3DGraphLoader">
<polygon fill="white" stroke="black" points="527,-276 437,-276 437,-240 527,-240 527,-276"/>
<text text-anchor="middle" x="482" y="-255.5" font-family="Helvetica,sans-Serif" font-size="10.00">J3DGraphLoader</text>
</a>
</g>
</g>
<!-- dir_a362cd36472d11e3c6a34ca86d202e04&#45;&gt;dir_b778c3f297ab88300258a2935792c8cc -->
<g id="edge15" class="edge">
<title>dir_a362cd36472d11e3c6a34ca86d202e04&#45;&gt;dir_b778c3f297ab88300258a2935792c8cc</title>
<path fill="none" stroke="black" d="M527.16,-241.84C530.13,-241.14 533.1,-240.51 536,-240 580.85,-232.09 1323.51,-236.9 1355,-204 1388.19,-169.32 1368.81,-141.97 1355,-96 1352.08,-86.28 1346.74,-76.7 1341.09,-68.41"/>
<polygon fill="black" stroke="black" points="1343.9,-66.32 1335.18,-60.3 1338.24,-70.44 1343.9,-66.32"/>
<g id="a_edge15&#45;headlabel"><a xlink:href="dir_000049_000025.html" target="_top" xlink:title="8">
<text text-anchor="middle" x="1348.31" y="-65.06" font-family="Helvetica,sans-Serif" font-size="10.00">8</text>
</a>
</g>
</g>
<!-- dir_f96cf58bc010b3610669f6849d6dc02e -->
<g id="node9" class="node">
<title>dir_f96cf58bc010b3610669f6849d6dc02e</title>
<g id="a_node9"><a xlink:href="dir_f96cf58bc010b3610669f6849d6dc02e.html" target="_top" xlink:title="J3DU">
<polygon fill="white" stroke="black" points="599,-276 545,-276 545,-240 599,-240 599,-276"/>
<text text-anchor="middle" x="572" y="-255.5" font-family="Helvetica,sans-Serif" font-size="10.00">J3DU</text>
</a>
</g>
</g>
<!-- dir_f96cf58bc010b3610669f6849d6dc02e&#45;&gt;dir_b778c3f297ab88300258a2935792c8cc -->
<g id="edge22" class="edge">
<title>dir_f96cf58bc010b3610669f6849d6dc02e&#45;&gt;dir_b778c3f297ab88300258a2935792c8cc</title>
<path fill="none" stroke="black" d="M599.1,-242.85C602.05,-241.72 605.05,-240.73 608,-240 690.79,-219.39 1316.1,-265.73 1375,-204 1408.14,-169.27 1393.78,-140.17 1375,-96 1370.27,-84.86 1361.92,-74.93 1353.13,-66.76"/>
<polygon fill="black" stroke="black" points="1355.23,-63.95 1345.38,-60.05 1350.65,-69.24 1355.23,-63.95"/>
<g id="a_edge22&#45;headlabel"><a xlink:href="dir_000050_000025.html" target="_top" xlink:title="3">
<text text-anchor="middle" x="1359.81" y="-61.65" font-family="Helvetica,sans-Serif" font-size="10.00">3</text>
</a>
</g>
</g>
<!-- dir_939d1828e03278096bc671d6c97dec06 -->
<g id="node10" class="node">
<title>dir_939d1828e03278096bc671d6c97dec06</title>
<g id="a_node10"><a xlink:href="dir_939d1828e03278096bc671d6c97dec06.html" target="_top" xlink:title="JAudio2">
<polygon fill="white" stroke="black" points="156,-276 102,-276 102,-240 156,-240 156,-276"/>
<text text-anchor="middle" x="129" y="-255.5" font-family="Helvetica,sans-Serif" font-size="10.00">JAudio2</text>
</a>
</g>
</g>
<!-- dir_939d1828e03278096bc671d6c97dec06&#45;&gt;dir_b778c3f297ab88300258a2935792c8cc -->
<g id="edge21" class="edge">
<title>dir_939d1828e03278096bc671d6c97dec06&#45;&gt;dir_b778c3f297ab88300258a2935792c8cc</title>
<path fill="none" stroke="black" d="M156.05,-243.12C159.33,-241.87 162.7,-240.78 166,-240 277.97,-213.46 1102.85,-264.07 1201,-204 1216.61,-194.45 1210.19,-182.77 1221,-168 1234,-150.24 1242,-149.76 1255,-132 1265.81,-117.23 1264.58,-111.05 1275,-96 1281.56,-86.52 1289.49,-76.74 1296.85,-68.2"/>
<polygon fill="black" stroke="black" points="1299.69,-70.27 1303.67,-60.45 1294.44,-65.64 1299.69,-70.27"/>
<g id="a_edge21&#45;headlabel"><a xlink:href="dir_000051_000025.html" target="_top" xlink:title="69">
<text text-anchor="middle" x="1299.45" y="-72.34" font-family="Helvetica,sans-Serif" font-size="10.00">69</text>
</a>
</g>
</g>
<!-- dir_939d1828e03278096bc671d6c97dec06&#45;&gt;dir_25682d7fe27d5da48e7af3ae8c2abb7f -->
<g id="edge20" class="edge">
<title>dir_939d1828e03278096bc671d6c97dec06&#45;&gt;dir_25682d7fe27d5da48e7af3ae8c2abb7f</title>
<path fill="none" stroke="black" d="M156.07,-243.22C159.35,-241.95 162.71,-240.83 166,-240 240.09,-221.2 777.75,-195.47 925.51,-188.69"/>
<polygon fill="black" stroke="black" points="926.03,-192.17 935.86,-188.22 925.71,-185.18 926.03,-192.17"/>
<g id="a_edge20&#45;headlabel"><a xlink:href="dir_000051_000065.html" target="_top" xlink:title="1">
<text text-anchor="middle" x="922.57" y="-192.67" font-family="Helvetica,sans-Serif" font-size="10.00">1</text>
</a>
</g>
</g>
<!-- dir_46476ff8a47134c2cbdbc6a41dfe8c11 -->
<g id="node11" class="node">
<title>dir_46476ff8a47134c2cbdbc6a41dfe8c11</title>
<g id="a_node11"><a xlink:href="dir_46476ff8a47134c2cbdbc6a41dfe8c11.html" target="_top" xlink:title="JFramework">
<polygon fill="white" stroke="black" points="245.5,-276 174.5,-276 174.5,-240 245.5,-240 245.5,-276"/>
<text text-anchor="middle" x="210" y="-255.5" font-family="Helvetica,sans-Serif" font-size="10.00">JFramework</text>
</a>
</g>
</g>
<!-- dir_46476ff8a47134c2cbdbc6a41dfe8c11&#45;&gt;dir_b778c3f297ab88300258a2935792c8cc -->
<g id="edge14" class="edge">
<title>dir_46476ff8a47134c2cbdbc6a41dfe8c11&#45;&gt;dir_b778c3f297ab88300258a2935792c8cc</title>
<path fill="none" stroke="black" d="M245.55,-242.38C248.71,-241.44 251.89,-240.63 255,-240 360.28,-218.74 1129.46,-260.18 1221,-204 1236.6,-194.43 1230.19,-182.77 1241,-168 1254,-150.24 1262.35,-150.01 1275,-132 1282.59,-121.2 1297.09,-91.71 1307.59,-69.61"/>
<polygon fill="black" stroke="black" points="1310.85,-70.91 1311.95,-60.37 1304.52,-67.92 1310.85,-70.91"/>
<g id="a_edge14&#45;headlabel"><a xlink:href="dir_000052_000025.html" target="_top" xlink:title="2">
<text text-anchor="middle" x="1311.88" y="-72.87" font-family="Helvetica,sans-Serif" font-size="10.00">2</text>
</a>
</g>
</g>
<!-- dir_46476ff8a47134c2cbdbc6a41dfe8c11&#45;&gt;dir_25682d7fe27d5da48e7af3ae8c2abb7f -->
<g id="edge13" class="edge">
<title>dir_46476ff8a47134c2cbdbc6a41dfe8c11&#45;&gt;dir_25682d7fe27d5da48e7af3ae8c2abb7f</title>
<path fill="none" stroke="black" d="M245.58,-242.51C248.73,-241.54 251.9,-240.69 255,-240 384.8,-211.25 798.55,-193.32 925.56,-188.39"/>
<polygon fill="black" stroke="black" points="926.06,-191.87 935.92,-187.99 925.79,-184.88 926.06,-191.87"/>
<g id="a_edge13&#45;headlabel"><a xlink:href="dir_000052_000065.html" target="_top" xlink:title="1">
<text text-anchor="middle" x="922.58" y="-192.35" font-family="Helvetica,sans-Serif" font-size="10.00">1</text>
</a>
</g>
</g>
<!-- dir_2adf73cd42e23ea1cf49f138568984bb -->
<g id="node12" class="node">
<title>dir_2adf73cd42e23ea1cf49f138568984bb</title>
<g id="a_node12"><a xlink:href="dir_2adf73cd42e23ea1cf49f138568984bb.html" target="_top" xlink:title="JGadget">
<polygon fill="white" stroke="black" points="1085,-132 1031,-132 1031,-96 1085,-96 1085,-132"/>
<text text-anchor="middle" x="1058" y="-111.5" font-family="Helvetica,sans-Serif" font-size="10.00">JGadget</text>
</a>
</g>
</g>
<!-- dir_2adf73cd42e23ea1cf49f138568984bb&#45;&gt;dir_b778c3f297ab88300258a2935792c8cc -->
<g id="edge1" class="edge">
<title>dir_2adf73cd42e23ea1cf49f138568984bb&#45;&gt;dir_b778c3f297ab88300258a2935792c8cc</title>
<path fill="none" stroke="black" d="M1085.19,-97.56C1086.46,-97 1087.74,-96.48 1089,-96 1155.14,-70.83 1236.68,-55.56 1283.07,-48.25"/>
<polygon fill="black" stroke="black" points="1283.62,-51.7 1292.97,-46.72 1282.55,-44.78 1283.62,-51.7"/>
<g id="a_edge1&#45;headlabel"><a xlink:href="dir_000053_000025.html" target="_top" xlink:title="3">
<text text-anchor="middle" x="1280.5" y="-52.56" font-family="Helvetica,sans-Serif" font-size="10.00">3</text>
</a>
</g>
</g>
<!-- dir_cd1009b6de6f257cf504091b6f95eba2&#45;&gt;dir_b778c3f297ab88300258a2935792c8cc -->
<g id="edge10" class="edge">
<title>dir_cd1009b6de6f257cf504091b6f95eba2&#45;&gt;dir_b778c3f297ab88300258a2935792c8cc</title>
<path fill="none" stroke="black" d="M1013.21,-99.23C1016.14,-98.03 1019.1,-96.92 1022,-96 1113.2,-66.93 1225.5,-52.39 1282.69,-46.43"/>
<polygon fill="black" stroke="black" points="1283.11,-49.9 1292.71,-45.41 1282.41,-42.94 1283.11,-49.9"/>
<g id="a_edge10&#45;headlabel"><a xlink:href="dir_000054_000025.html" target="_top" xlink:title="33">
<text text-anchor="middle" x="1279.82" y="-50.59" font-family="Helvetica,sans-Serif" font-size="10.00">33</text>
</a>
</g>
</g>
<!-- dir_cd1009b6de6f257cf504091b6f95eba2&#45;&gt;dir_45593f23b58a9cb34ecfe1ccd7e4e81f -->
<g id="edge9" class="edge">
<title>dir_cd1009b6de6f257cf504091b6f95eba2&#45;&gt;dir_45593f23b58a9cb34ecfe1ccd7e4e81f</title>
<path fill="none" stroke="black" d="M980.08,-95.7C979.29,-87.98 979.06,-78.71 979.4,-70.11"/>
<polygon fill="black" stroke="black" points="982.9,-70.32 980.1,-60.1 975.92,-69.84 982.9,-70.32"/>
<g id="a_edge9&#45;headlabel"><a xlink:href="dir_000054_000064.html" target="_top" xlink:title="8">
<text text-anchor="middle" x="985.48" y="-71.61" font-family="Helvetica,sans-Serif" font-size="10.00">8</text>
</a>
</g>
</g>
<!-- dir_745c4d827b885b106b58a37f86b4723a&#45;&gt;dir_b778c3f297ab88300258a2935792c8cc -->
<g id="edge8" class="edge">
<title>dir_745c4d827b885b106b58a37f86b4723a&#45;&gt;dir_b778c3f297ab88300258a2935792c8cc</title>
<path fill="none" stroke="black" d="M419.1,-242.82C422.04,-241.7 425.05,-240.72 428,-240 477.25,-227.93 1304.86,-240.55 1340,-204 1357.91,-185.37 1339.86,-110.71 1328.21,-69.93"/>
<polygon fill="black" stroke="black" points="1331.5,-68.72 1325.34,-60.11 1324.78,-70.69 1331.5,-68.72"/>
<g id="a_edge8&#45;headlabel"><a xlink:href="dir_000055_000025.html" target="_top" xlink:title="3">
<text text-anchor="middle" x="1335.24" y="-68.88" font-family="Helvetica,sans-Serif" font-size="10.00">3</text>
</a>
</g>
</g>
<!-- dir_49a47a08903d444eb2abc0c220e49786 -->
<g id="node15" class="node">
<title>dir_49a47a08903d444eb2abc0c220e49786</title>
<g id="a_node15"><a xlink:href="dir_49a47a08903d444eb2abc0c220e49786.html" target="_top" xlink:title="JMessage">
<polygon fill="white" stroke="black" points="679,-276 617,-276 617,-240 679,-240 679,-276"/>
<text text-anchor="middle" x="648" y="-255.5" font-family="Helvetica,sans-Serif" font-size="10.00">JMessage</text>
</a>
</g>
</g>
<!-- dir_49a47a08903d444eb2abc0c220e49786&#45;&gt;dir_b778c3f297ab88300258a2935792c8cc -->
<g id="edge23" class="edge">
<title>dir_49a47a08903d444eb2abc0c220e49786&#45;&gt;dir_b778c3f297ab88300258a2935792c8cc</title>
<path fill="none" stroke="black" d="M679.43,-242.72C682.62,-241.65 685.84,-240.71 689,-240 765.62,-222.71 1340.89,-260.94 1395,-204 1428.07,-169.21 1417.07,-138.62 1395,-96 1386.68,-79.94 1371.01,-67.7 1356.13,-59.06"/>
<polygon fill="black" stroke="black" points="1357.5,-55.82 1347.04,-54.14 1354.17,-61.98 1357.5,-55.82"/>
<g id="a_edge23&#45;headlabel"><a xlink:href="dir_000056_000025.html" target="_top" xlink:title="5">
<text text-anchor="middle" x="1362.01" y="-52.53" font-family="Helvetica,sans-Serif" font-size="10.00">5</text>
</a>
</g>
</g>
<!-- dir_f1b491a5f48e85031c6ef4e5894314c1 -->
<g id="node16" class="node">
<title>dir_f1b491a5f48e85031c6ef4e5894314c1</title>
<g id="a_node16"><a xlink:href="dir_f1b491a5f48e85031c6ef4e5894314c1.html" target="_top" xlink:title="JParticle">
<polygon fill="white" stroke="black" points="752.5,-276 697.5,-276 697.5,-240 752.5,-240 752.5,-276"/>
<text text-anchor="middle" x="725" y="-255.5" font-family="Helvetica,sans-Serif" font-size="10.00">JParticle</text>
</a>
</g>
</g>
<!-- dir_f1b491a5f48e85031c6ef4e5894314c1&#45;&gt;dir_b778c3f297ab88300258a2935792c8cc -->
<g id="edge27" class="edge">
<title>dir_f1b491a5f48e85031c6ef4e5894314c1&#45;&gt;dir_b778c3f297ab88300258a2935792c8cc</title>
<path fill="none" stroke="black" d="M752.89,-242.87C755.91,-241.74 758.98,-240.75 762,-240 832.53,-222.52 1365.05,-256.78 1415,-204 1431.5,-186.57 1427.15,-116.7 1415,-96 1402.45,-74.63 1377.81,-61.24 1356.76,-53.27"/>
<polygon fill="black" stroke="black" points="1357.69,-49.89 1347.1,-49.88 1355.38,-56.49 1357.69,-49.89"/>
<g id="a_edge27&#45;headlabel"><a xlink:href="dir_000061_000025.html" target="_top" xlink:title="16">
<text text-anchor="middle" x="1362.03" y="-45.9" font-family="Helvetica,sans-Serif" font-size="10.00">16</text>
</a>
</g>
</g>
<!-- dir_544b542202d39fd3aaf8ba56c4f2c043 -->
<g id="node17" class="node">
<title>dir_544b542202d39fd3aaf8ba56c4f2c043</title>
<g id="a_node17"><a xlink:href="dir_544b542202d39fd3aaf8ba56c4f2c043.html" target="_top" xlink:title="JStage">
<polygon fill="white" stroke="black" points="825,-276 771,-276 771,-240 825,-240 825,-276"/>
<text text-anchor="middle" x="798" y="-255.5" font-family="Helvetica,sans-Serif" font-size="10.00">JStage</text>
</a>
</g>
</g>
<!-- dir_544b542202d39fd3aaf8ba56c4f2c043&#45;&gt;dir_b778c3f297ab88300258a2935792c8cc -->
<g id="edge26" class="edge">
<title>dir_544b542202d39fd3aaf8ba56c4f2c043&#45;&gt;dir_b778c3f297ab88300258a2935792c8cc</title>
<path fill="none" stroke="black" d="M825.11,-242.88C828.06,-241.75 831.05,-240.75 834,-240 898.81,-223.42 1389.13,-252.7 1435,-204 1451.46,-186.53 1447.94,-116.21 1435,-96 1417.92,-69.32 1383.63,-55.89 1356.92,-49.24"/>
<polygon fill="black" stroke="black" points="1357.63,-45.81 1347.11,-47.01 1356.08,-52.63 1357.63,-45.81"/>
<g id="a_edge26&#45;headlabel"><a xlink:href="dir_000062_000025.html" target="_top" xlink:title="7">
<text text-anchor="middle" x="1361.77" y="-41.34" font-family="Helvetica,sans-Serif" font-size="10.00">7</text>
</a>
</g>
</g>
<!-- dir_ddc9133ecf11e60602f1406a8bd2a6d3 -->
<g id="node18" class="node">
<title>dir_ddc9133ecf11e60602f1406a8bd2a6d3</title>
<g id="a_node18"><a xlink:href="dir_ddc9133ecf11e60602f1406a8bd2a6d3.html" target="_top" xlink:title="JStudio">
<polygon fill="white" stroke="red" points="897,-276 843,-276 843,-240 897,-240 897,-276"/>
<text text-anchor="middle" x="870" y="-255.5" font-family="Helvetica,sans-Serif" font-size="10.00">JStudio</text>
</a>
</g>
</g>
<!-- dir_ddc9133ecf11e60602f1406a8bd2a6d3&#45;&gt;dir_b778c3f297ab88300258a2935792c8cc -->
<g id="edge25" class="edge">
<title>dir_ddc9133ecf11e60602f1406a8bd2a6d3&#45;&gt;dir_b778c3f297ab88300258a2935792c8cc</title>
<path fill="none" stroke="black" d="M897.07,-243.22C900.35,-241.95 903.71,-240.83 907,-240 966.15,-225.01 1413.29,-248.54 1455,-204 1471.4,-186.48 1468.52,-115.83 1455,-96 1433.27,-64.13 1389.21,-51.42 1357.32,-46.36"/>
<polygon fill="black" stroke="black" points="1357.41,-42.84 1347.03,-44.92 1356.44,-49.77 1357.41,-42.84"/>
<g id="a_edge25&#45;headlabel"><a xlink:href="dir_000057_000025.html" target="_top" xlink:title="25">
<text text-anchor="middle" x="1361.37" y="-38.02" font-family="Helvetica,sans-Serif" font-size="10.00">25</text>
</a>
</g>
</g>
<!-- dir_45593f23b58a9cb34ecfe1ccd7e4e81f&#45;&gt;dir_b778c3f297ab88300258a2935792c8cc -->
<g id="edge2" class="edge">
<title>dir_45593f23b58a9cb34ecfe1ccd7e4e81f&#45;&gt;dir_b778c3f297ab88300258a2935792c8cc</title>
<path fill="none" stroke="black" d="M1014.05,-42C1103.61,-42 1193.18,-42 1282.74,-42"/>
<polygon fill="black" stroke="black" points="1282.81,-45.5 1292.81,-42 1282.81,-38.5 1282.81,-45.5"/>
<g id="a_edge2&#45;headlabel"><a xlink:href="dir_000064_000025.html" target="_top" xlink:title="6">
<text text-anchor="middle" x="1279.22" y="-45.84" font-family="Helvetica,sans-Serif" font-size="10.00">6</text>
</a>
</g>
</g>
<!-- dir_45593f23b58a9cb34ecfe1ccd7e4e81f&#45;&gt;dir_cd1009b6de6f257cf504091b6f95eba2 -->
<g id="edge3" class="edge">
<title>dir_45593f23b58a9cb34ecfe1ccd7e4e81f&#45;&gt;dir_cd1009b6de6f257cf504091b6f95eba2</title>
<path fill="none" stroke="black" d="M991.9,-60.1C992.7,-67.79 992.94,-77.05 992.6,-85.67"/>
<polygon fill="black" stroke="black" points="989.11,-85.48 991.92,-95.7 996.09,-85.96 989.11,-85.48"/>
<g id="a_edge3&#45;headlabel"><a xlink:href="dir_000064_000054.html" target="_top" xlink:title="1">
<text text-anchor="middle" x="986.52" y="-79.2" font-family="Helvetica,sans-Serif" font-size="10.00">1</text>
</a>
</g>
</g>
<!-- dir_25682d7fe27d5da48e7af3ae8c2abb7f&#45;&gt;dir_b778c3f297ab88300258a2935792c8cc -->
<g id="edge31" class="edge">
<title>dir_25682d7fe27d5da48e7af3ae8c2abb7f&#45;&gt;dir_b778c3f297ab88300258a2935792c8cc</title>
<path fill="none" stroke="black" d="M990.15,-169.45C991.44,-168.92 992.72,-168.44 994,-168 1090.23,-135.06 1133.87,-186.1 1220,-132 1236.5,-121.64 1231.28,-109.83 1245,-96 1256.7,-84.21 1271.29,-73.23 1284.49,-64.37"/>
<polygon fill="black" stroke="black" points="1286.47,-67.26 1292.92,-58.86 1282.64,-61.4 1286.47,-67.26"/>
<g id="a_edge31&#45;headlabel"><a xlink:href="dir_000065_000025.html" target="_top" xlink:title="31">
<text text-anchor="middle" x="1285.01" y="-69.1" font-family="Helvetica,sans-Serif" font-size="10.00">31</text>
</a>
</g>
</g>
<!-- dir_25682d7fe27d5da48e7af3ae8c2abb7f&#45;&gt;dir_6141ad2e1396b1970c524b101e645d67 -->
<g id="edge30" class="edge">
<title>dir_25682d7fe27d5da48e7af3ae8c2abb7f&#45;&gt;dir_6141ad2e1396b1970c524b101e645d67</title>
<path fill="none" stroke="black" d="M990.25,-169.7C991.51,-169.11 992.76,-168.54 994,-168 1012.24,-160.12 1055.82,-146.03 1093.33,-134.36"/>
<polygon fill="black" stroke="black" points="1094.7,-137.6 1103.22,-131.3 1092.63,-130.92 1094.7,-137.6"/>
<g id="a_edge30&#45;headlabel"><a xlink:href="dir_000065_001622.html" target="_top" xlink:title="1">
<text text-anchor="middle" x="1092.11" y="-138.88" font-family="Helvetica,sans-Serif" font-size="10.00">1</text>
</a>
</g>
</g>
<!-- dir_25682d7fe27d5da48e7af3ae8c2abb7f&#45;&gt;dir_2adf73cd42e23ea1cf49f138568984bb -->
<g id="edge28" class="edge">
<title>dir_25682d7fe27d5da48e7af3ae8c2abb7f&#45;&gt;dir_2adf73cd42e23ea1cf49f138568984bb</title>
<path fill="none" stroke="black" d="M986.48,-167.7C998.56,-158.8 1013.45,-147.82 1026.52,-138.2"/>
<polygon fill="black" stroke="black" points="1028.81,-140.85 1034.79,-132.1 1024.66,-135.22 1028.81,-140.85"/>
<g id="a_edge28&#45;headlabel"><a xlink:href="dir_000065_000053.html" target="_top" xlink:title="1">
<text text-anchor="middle" x="1027.6" y="-142.77" font-family="Helvetica,sans-Serif" font-size="10.00">1</text>
</a>
</g>
</g>
<!-- dir_25682d7fe27d5da48e7af3ae8c2abb7f&#45;&gt;dir_cd1009b6de6f257cf504091b6f95eba2 -->
<g id="edge32" class="edge">
<title>dir_25682d7fe27d5da48e7af3ae8c2abb7f&#45;&gt;dir_cd1009b6de6f257cf504091b6f95eba2</title>
<path fill="none" stroke="black" d="M968.69,-167.7C971.25,-159.9 974.33,-150.51 977.18,-141.83"/>
<polygon fill="black" stroke="black" points="980.58,-142.7 980.38,-132.1 973.93,-140.51 980.58,-142.7"/>
<g id="a_edge32&#45;headlabel"><a xlink:href="dir_000065_000054.html" target="_top" xlink:title="6">
<text text-anchor="middle" x="982.16" y="-144.5" font-family="Helvetica,sans-Serif" font-size="10.00">6</text>
</a>
</g>
</g>
<!-- dir_25682d7fe27d5da48e7af3ae8c2abb7f&#45;&gt;dir_45593f23b58a9cb34ecfe1ccd7e4e81f -->
<g id="edge29" class="edge">
<title>dir_25682d7fe27d5da48e7af3ae8c2abb7f&#45;&gt;dir_45593f23b58a9cb34ecfe1ccd7e4e81f</title>
<path fill="none" stroke="black" d="M956.14,-167.93C949.83,-149.76 942.52,-120.33 950,-96 953.01,-86.22 958.51,-76.62 964.32,-68.33"/>
<polygon fill="black" stroke="black" points="967.19,-70.33 970.39,-60.23 961.59,-66.13 967.19,-70.33"/>
<g id="a_edge29&#45;headlabel"><a xlink:href="dir_000065_000064.html" target="_top" xlink:title="1">
<text text-anchor="middle" x="967.31" y="-72.41" font-family="Helvetica,sans-Serif" font-size="10.00">1</text>
</a>
</g>
</g>
</g>
</svg>
