<?xml version="1.0" encoding="UTF-8" standalone="no"?>
<!DOCTYPE svg PUBLIC "-//W3C//DTD SVG 1.1//EN"
 "http://www.w3.org/Graphics/SVG/1.1/DTD/svg11.dtd">
<!-- Generated by graphviz version 2.44.0 ()
 -->
<!-- Title: include/msl_c Pages: 1 -->
<svg width="167pt" height="239pt"
 viewBox="0.00 0.00 167.00 239.00" xmlns="http://www.w3.org/2000/svg" xmlns:xlink="http://www.w3.org/1999/xlink">
<g id="graph0" class="graph" transform="scale(1 1) rotate(0) translate(4 235)">
<title>include/msl_c</title>
<polygon fill="white" stroke="transparent" points="-4,4 -4,-235 163,-235 163,4 -4,4"/>
<g id="clust1" class="cluster">
<title>clusterdir_d44c64559bbebec7f509842c48db8b23</title>
<g id="a_clust1"><a xlink:href="dir_d44c64559bbebec7f509842c48db8b23.html" target="_top" xlink:title="include">
<polygon fill="#ddddee" stroke="black" points="8,-8 8,-223 151,-223 151,-8 8,-8"/>
<text text-anchor="middle" x="79.5" y="-211" font-family="Helvetica,sans-Serif" font-size="10.00">include</text>
</a>
</g>
</g>
<!-- dir_6141ad2e1396b1970c524b101e645d67 -->
<g id="node1" class="node">
<title>dir_6141ad2e1396b1970c524b101e645d67</title>
<g id="a_node1"><a xlink:href="dir_6141ad2e1396b1970c524b101e645d67.html" target="_top" xlink:title="Runtime.PPCEABI.H">
<polygon fill="none" stroke="black" points="122.5,-124 15.5,-124 15.5,-88 122.5,-88 122.5,-124"/>
<text text-anchor="middle" x="69" y="-103.5" font-family="Helvetica,sans-Serif" font-size="10.00">Runtime.PPCEABI.H</text>
</a>
</g>
</g>
<!-- dir_b778c3f297ab88300258a2935792c8cc -->
<g id="node2" class="node">
<title>dir_b778c3f297ab88300258a2935792c8cc</title>
<g id="a_node2"><a xlink:href="dir_b778c3f297ab88300258a2935792c8cc.html" target="_top" xlink:title="dolphin">
<polygon fill="white" stroke="red" points="96,-52 42,-52 42,-16 96,-16 96,-52"/>
<text text-anchor="middle" x="69" y="-31.5" font-family="Helvetica,sans-Serif" font-size="10.00">dolphin</text>
</a>
</g>
</g>
<!-- dir_6141ad2e1396b1970c524b101e645d67&#45;&gt;dir_b778c3f297ab88300258a2935792c8cc -->
<g id="edge4" class="edge">
<title>dir_6141ad2e1396b1970c524b101e645d67&#45;&gt;dir_b778c3f297ab88300258a2935792c8cc</title>
<path fill="none" stroke="black" d="M63.08,-87.7C62.29,-79.98 62.06,-70.71 62.4,-62.11"/>
<polygon fill="black" stroke="black" points="65.9,-62.32 63.1,-52.1 58.92,-61.84 65.9,-62.32"/>
<g id="a_edge4&#45;headlabel"><a xlink:href="dir_001622_000025.html" target="_top" xlink:title="9">
<text text-anchor="middle" x="68.48" y="-63.61" font-family="Helvetica,sans-Serif" font-size="10.00">9</text>
</a>
</g>
</g>
<!-- dir_b778c3f297ab88300258a2935792c8cc&#45;&gt;dir_6141ad2e1396b1970c524b101e645d67 -->
<g id="edge1" class="edge">
<title>dir_b778c3f297ab88300258a2935792c8cc&#45;&gt;dir_6141ad2e1396b1970c524b101e645d67</title>
<path fill="none" stroke="black" d="M74.9,-52.1C75.7,-59.79 75.94,-69.05 75.6,-77.67"/>
<polygon fill="black" stroke="black" points="72.11,-77.48 74.92,-87.7 79.09,-77.96 72.11,-77.48"/>
<g id="a_edge1&#45;headlabel"><a xlink:href="dir_000025_001622.html" target="_top" xlink:title="1">
<text text-anchor="middle" x="69.52" y="-71.2" font-family="Helvetica,sans-Serif" font-size="10.00">1</text>
</a>
</g>
</g>
<!-- dir_b056c41af2f37e34bf043d25c5f2cbe4 -->
<g id="node3" class="node">
<title>dir_b056c41af2f37e34bf043d25c5f2cbe4</title>
<g id="a_node3"><a xlink:href="dir_b056c41af2f37e34bf043d25c5f2cbe4.html" target="_top" xlink:title="msl_c">
<polygon fill="#eeeeff" stroke="black" points="119,-196 65,-196 65,-160 119,-160 119,-196"/>
<text text-anchor="middle" x="92" y="-175.5" font-family="Helvetica,sans-Serif" font-size="10.00">msl_c</text>
</a>
</g>
</g>
<!-- dir_b056c41af2f37e34bf043d25c5f2cbe4&#45;&gt;dir_6141ad2e1396b1970c524b101e645d67 -->
<g id="edge2" class="edge">
<title>dir_b056c41af2f37e34bf043d25c5f2cbe4&#45;&gt;dir_6141ad2e1396b1970c524b101e645d67</title>
<path fill="none" stroke="black" d="M86.31,-159.7C83.75,-151.9 80.67,-142.51 77.82,-133.83"/>
<polygon fill="black" stroke="black" points="81.07,-132.51 74.62,-124.1 74.42,-134.7 81.07,-132.51"/>
<g id="a_edge2&#45;headlabel"><a xlink:href="dir_000078_001622.html" target="_top" xlink:title="1">
<text text-anchor="middle" x="84.89" y="-132.54" font-family="Helvetica,sans-Serif" font-size="10.00">1</text>
</a>
</g>
</g>
<!-- dir_b056c41af2f37e34bf043d25c5f2cbe4&#45;&gt;dir_b778c3f297ab88300258a2935792c8cc -->
<g id="edge3" class="edge">
<title>dir_b056c41af2f37e34bf043d25c5f2cbe4&#45;&gt;dir_b778c3f297ab88300258a2935792c8cc</title>
<path fill="none" stroke="black" d="M109.73,-159.6C118.24,-150 127.53,-137.34 132,-124 137.08,-108.83 138.75,-102.51 132,-88 126.04,-75.2 115.29,-64.38 104.35,-55.93"/>
<polygon fill="black" stroke="black" points="106.17,-52.93 96.01,-49.93 102.08,-58.61 106.17,-52.93"/>
<g id="a_edge3&#45;headlabel"><a xlink:href="dir_000078_000025.html" target="_top" xlink:title="2">
<text text-anchor="middle" x="110.75" y="-50.22" font-family="Helvetica,sans-Serif" font-size="10.00">2</text>
</a>
</g>
</g>
</g>
</svg>
