<?xml version="1.0" encoding="UTF-8" standalone="no"?>
<!DOCTYPE svg PUBLIC "-//W3C//DTD SVG 1.1//EN"
 "http://www.w3.org/Graphics/SVG/1.1/DTD/svg11.dtd">
<!-- Generated by graphviz version 2.44.0 ()
 -->
<!-- Title: include Pages: 1 -->
<!--zoomable 652 -->
<svg id="main" version="1.1" xmlns="http://www.w3.org/2000/svg" xmlns:xlink="http://www.w3.org/1999/xlink" xml:space="preserve" onload="init(evt)">
<style type="text/css"><![CDATA[
.edge:hover path { stroke: red; }
.edge:hover polygon { stroke: red; fill: red; }
]]></style>
<script type="text/javascript"><![CDATA[
var edges = document.getElementsByTagName('g');
if (edges && edges.length) {
  for (var i=0;i<edges.length;i++) {
    if (edges[i].id.substr(0,4)=='edge') {
      edges[i].setAttribute('class','edge');
    }
  }
}
]]></script>
        <defs>
                <circle id="rim" cx="0" cy="0" r="7"/>
                <circle id="rim2" cx="0" cy="0" r="3.5"/>
                <g id="zoomPlus">
                        <use xlink:href="#rim" fill="#404040">
                                <set attributeName="fill" to="#808080" begin="zoomplus.mouseover" end="zoomplus.mouseout"/>
                        </use>
                        <path d="M-4,0h8M0,-4v8" fill="none" stroke="white" stroke-width="1.5" pointer-events="none"/>
                </g>
                <g id="zoomMin">
                        <use xlink:href="#rim" fill="#404040">
                                <set attributeName="fill" to="#808080" begin="zoomminus.mouseover" end="zoomminus.mouseout"/>
                        </use>
                        <path d="M-4,0h8" fill="none" stroke="white" stroke-width="1.5" pointer-events="none"/>
                </g>
                <g id="dirArrow">
                        <path fill="none" stroke="white" stroke-width="1.5" d="M0,-3.0v7 M-2.5,-0.5L0,-3.0L2.5,-0.5"/>
                </g>
               <g id="resetDef">
                       <use xlink:href="#rim2" fill="#404040">
                               <set attributeName="fill" to="#808080" begin="reset.mouseover" end="reset.mouseout"/>
                       </use>
               </g>
        </defs>

<script type="text/javascript">
var viewWidth = 1278;
var viewHeight = 652;
var sectionId = 'dynsection-0';
</script>
<script xlink:href="svgpan.js"/>
<svg id="graph" class="graph">
<g id="viewport">
<title>include</title>
<polygon fill="white" stroke="transparent" points="-4,4 -4,-648 1274,-648 1274,4 -4,4"/>
<g id="clust1" class="cluster">
<title>clusterdir_d44c64559bbebec7f509842c48db8b23</title>
<g id="a_clust1"><a xlink:href="dir_d44c64559bbebec7f509842c48db8b23.html" target="_top">
<polygon fill="#eeeeff" stroke="black" points="8,-8 8,-636 1262,-636 1262,-8 8,-8"/>
</a>
</g>
</g>
<!-- dir_d44c64559bbebec7f509842c48db8b23 -->
<g id="node1" class="node">
<title>dir_d44c64559bbebec7f509842c48db8b23</title>
<text text-anchor="middle" x="715" y="-607.5" font-family="Helvetica,sans-Serif" font-size="10.00">include</text>
</g>
<!-- dir_755f0d2039dcbad844014f016ea14e59 -->
<g id="node2" class="node">
<title>dir_755f0d2039dcbad844014f016ea14e59</title>
<g id="a_node2"><a xlink:href="dir_755f0d2039dcbad844014f016ea14e59.html" target="_top" xlink:title="a">
<polygon fill="white" stroke="red" points="968,-196 914,-196 914,-160 968,-160 968,-196"/>
<text text-anchor="middle" x="941" y="-175.5" font-family="Helvetica,sans-Serif" font-size="10.00">a</text>
</a>
</g>
</g>
<!-- dir_b778c3f297ab88300258a2935792c8cc -->
<g id="node6" class="node">
<title>dir_b778c3f297ab88300258a2935792c8cc</title>
<g id="a_node6"><a xlink:href="dir_b778c3f297ab88300258a2935792c8cc.html" target="_top" xlink:title="dolphin">
<polygon fill="white" stroke="red" points="584,-124 530,-124 530,-88 584,-88 584,-124"/>
<text text-anchor="middle" x="557" y="-103.5" font-family="Helvetica,sans-Serif" font-size="10.00">dolphin</text>
</a>
</g>
</g>
<!-- dir_755f0d2039dcbad844014f016ea14e59&#45;&gt;dir_b778c3f297ab88300258a2935792c8cc -->
<g id="edge8" class="edge">
<title>dir_755f0d2039dcbad844014f016ea14e59&#45;&gt;dir_b778c3f297ab88300258a2935792c8cc</title>
<path fill="none" stroke="black" d="M913.81,-163.16C910.88,-161.97 907.91,-160.89 905,-160 795.09,-126.46 658.89,-113.6 594.32,-109.13"/>
<polygon fill="black" stroke="black" points="594.43,-105.63 584.22,-108.46 593.97,-112.62 594.43,-105.63"/>
<g id="a_edge8&#45;headlabel"><a xlink:href="dir_000002_000025.html" target="_top" xlink:title="4">
<text text-anchor="middle" x="598.21" y="-100.54" font-family="Helvetica,sans-Serif" font-size="10.00">4</text>
</a>
</g>
</g>
<!-- dir_69c21e3fe128ba7f70ba19e6abc39168 -->
<g id="node3" class="node">
<title>dir_69c21e3fe128ba7f70ba19e6abc39168</title>
<g id="a_node3"><a xlink:href="dir_69c21e3fe128ba7f70ba19e6abc39168.html" target="_top" xlink:title="amcstubs">
<polygon fill="white" stroke="black" points="895.5,-196 836.5,-196 836.5,-160 895.5,-160 895.5,-196"/>
<text text-anchor="middle" x="866" y="-175.5" font-family="Helvetica,sans-Serif" font-size="10.00">amcstubs</text>
</a>
</g>
</g>
<!-- dir_69c21e3fe128ba7f70ba19e6abc39168&#45;&gt;dir_b778c3f297ab88300258a2935792c8cc -->
<g id="edge6" class="edge">
<title>dir_69c21e3fe128ba7f70ba19e6abc39168&#45;&gt;dir_b778c3f297ab88300258a2935792c8cc</title>
<path fill="none" stroke="black" d="M836.44,-163.33C833.29,-162.11 830.1,-160.97 827,-160 745.94,-134.71 647.28,-118.99 594.53,-111.74"/>
<polygon fill="black" stroke="black" points="594.69,-108.23 584.31,-110.36 593.75,-115.17 594.69,-108.23"/>
<g id="a_edge6&#45;headlabel"><a xlink:href="dir_000005_000025.html" target="_top" xlink:title="1">
<text text-anchor="middle" x="598.63" y="-103.39" font-family="Helvetica,sans-Serif" font-size="10.00">1</text>
</a>
</g>
</g>
<!-- dir_f0bbaeb96b1b216779501c980a5af6c6 -->
<g id="node4" class="node">
<title>dir_f0bbaeb96b1b216779501c980a5af6c6</title>
<g id="a_node4"><a xlink:href="dir_f0bbaeb96b1b216779501c980a5af6c6.html" target="_top" xlink:title="c">
<polygon fill="white" stroke="black" points="818,-196 764,-196 764,-160 818,-160 818,-196"/>
<text text-anchor="middle" x="791" y="-175.5" font-family="Helvetica,sans-Serif" font-size="10.00">c</text>
</a>
</g>
</g>
<!-- dir_f0bbaeb96b1b216779501c980a5af6c6&#45;&gt;dir_b778c3f297ab88300258a2935792c8cc -->
<g id="edge7" class="edge">
<title>dir_f0bbaeb96b1b216779501c980a5af6c6&#45;&gt;dir_b778c3f297ab88300258a2935792c8cc</title>
<path fill="none" stroke="black" d="M763.7,-163.49C760.79,-162.24 757.86,-161.05 755,-160 700.14,-139.89 634.19,-123.77 593.95,-114.8"/>
<polygon fill="black" stroke="black" points="594.57,-111.35 584.05,-112.62 593.07,-118.19 594.57,-111.35"/>
<g id="a_edge7&#45;headlabel"><a xlink:href="dir_000006_000025.html" target="_top" xlink:title="2">
<text text-anchor="middle" x="598.69" y="-106.85" font-family="Helvetica,sans-Serif" font-size="10.00">2</text>
</a>
</g>
</g>
<!-- dir_cc3ad1aed4be3f446fdd7af78322f5bf -->
<g id="node5" class="node">
<title>dir_cc3ad1aed4be3f446fdd7af78322f5bf</title>
<g id="a_node5"><a xlink:href="dir_cc3ad1aed4be3f446fdd7af78322f5bf.html" target="_top" xlink:title="d">
<polygon fill="white" stroke="red" points="314,-340 260,-340 260,-304 314,-304 314,-340"/>
<text text-anchor="middle" x="287" y="-319.5" font-family="Helvetica,sans-Serif" font-size="10.00">d</text>
</a>
</g>
</g>
<!-- dir_cc3ad1aed4be3f446fdd7af78322f5bf&#45;&gt;dir_b778c3f297ab88300258a2935792c8cc -->
<g id="edge44" class="edge">
<title>dir_cc3ad1aed4be3f446fdd7af78322f5bf&#45;&gt;dir_b778c3f297ab88300258a2935792c8cc</title>
<path fill="none" stroke="black" d="M278.03,-303.62C262.76,-271.29 236.51,-201.46 271,-160 302.25,-122.42 449.75,-111.37 519.84,-108.21"/>
<polygon fill="black" stroke="black" points="520.15,-111.7 529.99,-107.79 519.86,-104.71 520.15,-111.7"/>
<g id="a_edge44&#45;headlabel"><a xlink:href="dir_000007_000025.html" target="_top" xlink:title="148">
<text text-anchor="middle" x="516.68" y="-112.19" font-family="Helvetica,sans-Serif" font-size="10.00">148</text>
</a>
</g>
</g>
<!-- dir_fbb29e8cafd745cbb7106b56de6b5377 -->
<g id="node9" class="node">
<title>dir_fbb29e8cafd745cbb7106b56de6b5377</title>
<g id="a_node9"><a xlink:href="dir_fbb29e8cafd745cbb7106b56de6b5377.html" target="_top" xlink:title="f_op">
<polygon fill="white" stroke="black" points="202,-412 148,-412 148,-376 202,-376 202,-412"/>
<text text-anchor="middle" x="175" y="-391.5" font-family="Helvetica,sans-Serif" font-size="10.00">f_op</text>
</a>
</g>
</g>
<!-- dir_cc3ad1aed4be3f446fdd7af78322f5bf&#45;&gt;dir_fbb29e8cafd745cbb7106b56de6b5377 -->
<g id="edge45" class="edge">
<title>dir_cc3ad1aed4be3f446fdd7af78322f5bf&#45;&gt;dir_fbb29e8cafd745cbb7106b56de6b5377</title>
<path fill="none" stroke="black" d="M265.42,-340.18C249.98,-350.5 229.01,-363.63 211.1,-374.23"/>
<polygon fill="black" stroke="black" points="208.93,-371.44 202.05,-379.5 212.45,-377.49 208.93,-371.44"/>
<g id="a_edge45&#45;headlabel"><a xlink:href="dir_000007_000043.html" target="_top" xlink:title="11">
<text text-anchor="middle" x="210.6" y="-364.68" font-family="Helvetica,sans-Serif" font-size="10.00">11</text>
</a>
</g>
</g>
<!-- dir_4f0979a7f5e3194619cde56505e372d8 -->
<g id="node11" class="node">
<title>dir_4f0979a7f5e3194619cde56505e372d8</title>
<g id="a_node11"><a xlink:href="dir_4f0979a7f5e3194619cde56505e372d8.html" target="_top" xlink:title="JSystem">
<polygon fill="white" stroke="red" points="263.5,-556 208.5,-556 208.5,-520 263.5,-520 263.5,-556"/>
<text text-anchor="middle" x="236" y="-535.5" font-family="Helvetica,sans-Serif" font-size="10.00">JSystem</text>
</a>
</g>
</g>
<!-- dir_cc3ad1aed4be3f446fdd7af78322f5bf&#45;&gt;dir_4f0979a7f5e3194619cde56505e372d8 -->
<g id="edge39" class="edge">
<title>dir_cc3ad1aed4be3f446fdd7af78322f5bf&#45;&gt;dir_4f0979a7f5e3194619cde56505e372d8</title>
<path fill="none" stroke="black" d="M288.34,-340.07C290.1,-370.15 291.09,-434.15 273,-484 269.48,-493.71 263.71,-503.29 257.76,-511.57"/>
<polygon fill="black" stroke="black" points="254.85,-509.61 251.58,-519.69 260.42,-513.85 254.85,-509.61"/>
<g id="a_edge39&#45;headlabel"><a xlink:href="dir_000007_000045.html" target="_top" xlink:title="27">
<text text-anchor="middle" x="254.77" y="-502.53" font-family="Helvetica,sans-Serif" font-size="10.00">27</text>
</a>
</g>
</g>
<!-- dir_6bdfff2c28f90f381b6da5bee088878b -->
<g id="node12" class="node">
<title>dir_6bdfff2c28f90f381b6da5bee088878b</title>
<g id="a_node12"><a xlink:href="dir_6bdfff2c28f90f381b6da5bee088878b.html" target="_top" xlink:title="m_Do">
<polygon fill="white" stroke="black" points="629,-268 575,-268 575,-232 629,-232 629,-268"/>
<text text-anchor="middle" x="602" y="-247.5" font-family="Helvetica,sans-Serif" font-size="10.00">m_Do</text>
</a>
</g>
</g>
<!-- dir_cc3ad1aed4be3f446fdd7af78322f5bf&#45;&gt;dir_6bdfff2c28f90f381b6da5bee088878b -->
<g id="edge41" class="edge">
<title>dir_cc3ad1aed4be3f446fdd7af78322f5bf&#45;&gt;dir_6bdfff2c28f90f381b6da5bee088878b</title>
<path fill="none" stroke="black" d="M314.13,-314.97C370.53,-302.44 500.53,-273.55 564.74,-259.28"/>
<polygon fill="black" stroke="black" points="565.82,-262.63 574.82,-257.04 564.3,-255.79 565.82,-262.63"/>
<g id="a_edge41&#45;headlabel"><a xlink:href="dir_000007_000066.html" target="_top" xlink:title="6">
<text text-anchor="middle" x="562.93" y="-263.68" font-family="Helvetica,sans-Serif" font-size="10.00">6</text>
</a>
</g>
</g>
<!-- dir_b056c41af2f37e34bf043d25c5f2cbe4 -->
<g id="node14" class="node">
<title>dir_b056c41af2f37e34bf043d25c5f2cbe4</title>
<g id="a_node14"><a xlink:href="dir_b056c41af2f37e34bf043d25c5f2cbe4.html" target="_top" xlink:title="msl_c">
<polygon fill="white" stroke="black" points="360,-268 306,-268 306,-232 360,-232 360,-268"/>
<text text-anchor="middle" x="333" y="-247.5" font-family="Helvetica,sans-Serif" font-size="10.00">msl_c</text>
</a>
</g>
</g>
<!-- dir_cc3ad1aed4be3f446fdd7af78322f5bf&#45;&gt;dir_b056c41af2f37e34bf043d25c5f2cbe4 -->
<g id="edge43" class="edge">
<title>dir_cc3ad1aed4be3f446fdd7af78322f5bf&#45;&gt;dir_b056c41af2f37e34bf043d25c5f2cbe4</title>
<path fill="none" stroke="black" d="M298.37,-303.7C303.72,-295.56 310.2,-285.69 316.11,-276.7"/>
<polygon fill="black" stroke="black" points="319.19,-278.38 321.76,-268.1 313.34,-274.54 319.19,-278.38"/>
<g id="a_edge43&#45;headlabel"><a xlink:href="dir_000007_000078.html" target="_top" xlink:title="2">
<text text-anchor="middle" x="319.59" y="-280.45" font-family="Helvetica,sans-Serif" font-size="10.00">2</text>
</a>
</g>
</g>
<!-- dir_54283da8a0cf1311a88c964d76512876 -->
<g id="node20" class="node">
<title>dir_54283da8a0cf1311a88c964d76512876</title>
<g id="a_node20"><a xlink:href="dir_54283da8a0cf1311a88c964d76512876.html" target="_top" xlink:title="SSystem">
<polygon fill="white" stroke="red" points="264,-484 208,-484 208,-448 264,-448 264,-484"/>
<text text-anchor="middle" x="236" y="-463.5" font-family="Helvetica,sans-Serif" font-size="10.00">SSystem</text>
</a>
</g>
</g>
<!-- dir_cc3ad1aed4be3f446fdd7af78322f5bf&#45;&gt;dir_54283da8a0cf1311a88c964d76512876 -->
<g id="edge40" class="edge">
<title>dir_cc3ad1aed4be3f446fdd7af78322f5bf&#45;&gt;dir_54283da8a0cf1311a88c964d76512876</title>
<path fill="none" stroke="black" d="M280.83,-340.19C272.05,-364.64 255.87,-409.67 245.54,-438.44"/>
<polygon fill="black" stroke="black" points="242.24,-437.28 242.15,-447.87 248.83,-439.64 242.24,-437.28"/>
<g id="a_edge40&#45;headlabel"><a xlink:href="dir_000007_001623.html" target="_top" xlink:title="34">
<text text-anchor="middle" x="240.78" y="-430.43" font-family="Helvetica,sans-Serif" font-size="10.00">34</text>
</a>
</g>
</g>
<!-- dir_81939fb769658ab66ba54ec390580a1a -->
<g id="node22" class="node">
<title>dir_81939fb769658ab66ba54ec390580a1a</title>
<g id="a_node22"><a xlink:href="dir_81939fb769658ab66ba54ec390580a1a.html" target="_top" xlink:title="Z2AudioLib">
<polygon fill="white" stroke="black" points="674,-196 608,-196 608,-160 674,-160 674,-196"/>
<text text-anchor="middle" x="641" y="-175.5" font-family="Helvetica,sans-Serif" font-size="10.00">Z2AudioLib</text>
</a>
</g>
</g>
<!-- dir_cc3ad1aed4be3f446fdd7af78322f5bf&#45;&gt;dir_81939fb769658ab66ba54ec390580a1a -->
<g id="edge42" class="edge">
<title>dir_cc3ad1aed4be3f446fdd7af78322f5bf&#45;&gt;dir_81939fb769658ab66ba54ec390580a1a</title>
<path fill="none" stroke="black" d="M283.32,-303.97C280.07,-283.85 278.37,-250.75 297,-232 342.58,-186.11 517.57,-210.5 597.61,-195.62"/>
<polygon fill="black" stroke="black" points="598.79,-198.94 607.8,-193.37 597.28,-192.11 598.79,-198.94"/>
<g id="a_edge42&#45;headlabel"><a xlink:href="dir_000007_001641.html" target="_top" xlink:title="4">
<text text-anchor="middle" x="595.89" y="-199.99" font-family="Helvetica,sans-Serif" font-size="10.00">4</text>
</a>
</g>
</g>
<!-- dir_6141ad2e1396b1970c524b101e645d67 -->
<g id="node19" class="node">
<title>dir_6141ad2e1396b1970c524b101e645d67</title>
<g id="a_node19"><a xlink:href="dir_6141ad2e1396b1970c524b101e645d67.html" target="_top" xlink:title="Runtime.PPCEABI.H">
<polygon fill="white" stroke="black" points="866.5,-52 759.5,-52 759.5,-16 866.5,-16 866.5,-52"/>
<text text-anchor="middle" x="813" y="-31.5" font-family="Helvetica,sans-Serif" font-size="10.00">Runtime.PPCEABI.H</text>
</a>
</g>
</g>
<!-- dir_b778c3f297ab88300258a2935792c8cc&#45;&gt;dir_6141ad2e1396b1970c524b101e645d67 -->
<g id="edge1" class="edge">
<title>dir_b778c3f297ab88300258a2935792c8cc&#45;&gt;dir_6141ad2e1396b1970c524b101e645d67</title>
<path fill="none" stroke="black" d="M584.26,-96.28C623.32,-84.95 696.03,-64.97 749.06,-50.91"/>
<polygon fill="black" stroke="black" points="750.28,-54.21 759.05,-48.27 748.49,-47.44 750.28,-54.21"/>
<g id="a_edge1&#45;headlabel"><a xlink:href="dir_000025_001622.html" target="_top" xlink:title="1">
<text text-anchor="middle" x="747.53" y="-55.37" font-family="Helvetica,sans-Serif" font-size="10.00">1</text>
</a>
</g>
</g>
<!-- dir_bd30b2f27e7c332535a4051e395ad81c -->
<g id="node7" class="node">
<title>dir_bd30b2f27e7c332535a4051e395ad81c</title>
<g id="a_node7"><a xlink:href="dir_bd30b2f27e7c332535a4051e395ad81c.html" target="_top" xlink:title="exi">
<polygon fill="white" stroke="black" points="746,-196 692,-196 692,-160 746,-160 746,-196"/>
<text text-anchor="middle" x="719" y="-175.5" font-family="Helvetica,sans-Serif" font-size="10.00">exi</text>
</a>
</g>
</g>
<!-- dir_bd30b2f27e7c332535a4051e395ad81c&#45;&gt;dir_b778c3f297ab88300258a2935792c8cc -->
<g id="edge16" class="edge">
<title>dir_bd30b2f27e7c332535a4051e395ad81c&#45;&gt;dir_b778c3f297ab88300258a2935792c8cc</title>
<path fill="none" stroke="black" d="M691.93,-164.06C688.93,-162.67 685.9,-161.3 683,-160 653.15,-146.68 618.95,-132.36 593.72,-121.96"/>
<polygon fill="black" stroke="black" points="594.76,-118.6 584.18,-118.04 592.1,-125.08 594.76,-118.6"/>
<g id="a_edge16&#45;headlabel"><a xlink:href="dir_000041_000025.html" target="_top" xlink:title="2">
<text text-anchor="middle" x="599.17" y="-114.84" font-family="Helvetica,sans-Serif" font-size="10.00">2</text>
</a>
</g>
</g>
<!-- dir_842110f85f767812b47b9e09c1085d00 -->
<g id="node8" class="node">
<title>dir_842110f85f767812b47b9e09c1085d00</title>
<g id="a_node8"><a xlink:href="dir_842110f85f767812b47b9e09c1085d00.html" target="_top" xlink:title="f_ap">
<polygon fill="white" stroke="black" points="159,-628 105,-628 105,-592 159,-592 159,-628"/>
<text text-anchor="middle" x="132" y="-607.5" font-family="Helvetica,sans-Serif" font-size="10.00">f_ap</text>
</a>
</g>
</g>
<!-- dir_842110f85f767812b47b9e09c1085d00&#45;&gt;dir_b778c3f297ab88300258a2935792c8cc -->
<g id="edge3" class="edge">
<title>dir_842110f85f767812b47b9e09c1085d00&#45;&gt;dir_b778c3f297ab88300258a2935792c8cc</title>
<path fill="none" stroke="black" d="M110.44,-591.78C82.41,-567.28 37,-519.5 37,-467 37,-467 37,-467 37,-249 37,-209.2 18.74,-188.03 47,-160 80.49,-126.79 408,-112.24 519.81,-108.22"/>
<polygon fill="black" stroke="black" points="520.07,-111.71 529.94,-107.86 519.83,-104.72 520.07,-111.71"/>
<g id="a_edge3&#45;headlabel"><a xlink:href="dir_000042_000025.html" target="_top" xlink:title="1">
<text text-anchor="middle" x="516.58" y="-112.18" font-family="Helvetica,sans-Serif" font-size="10.00">1</text>
</a>
</g>
</g>
<!-- dir_842110f85f767812b47b9e09c1085d00&#45;&gt;dir_4f0979a7f5e3194619cde56505e372d8 -->
<g id="edge2" class="edge">
<title>dir_842110f85f767812b47b9e09c1085d00&#45;&gt;dir_4f0979a7f5e3194619cde56505e372d8</title>
<path fill="none" stroke="black" d="M157.44,-591.88C170.79,-582.89 187.32,-571.76 201.78,-562.03"/>
<polygon fill="black" stroke="black" points="204.12,-564.68 210.46,-556.19 200.21,-558.87 204.12,-564.68"/>
<g id="a_edge2&#45;headlabel"><a xlink:href="dir_000042_000045.html" target="_top" xlink:title="1">
<text text-anchor="middle" x="202.72" y="-566.54" font-family="Helvetica,sans-Serif" font-size="10.00">1</text>
</a>
</g>
</g>
<!-- dir_fbb29e8cafd745cbb7106b56de6b5377&#45;&gt;dir_cc3ad1aed4be3f446fdd7af78322f5bf -->
<g id="edge25" class="edge">
<title>dir_fbb29e8cafd745cbb7106b56de6b5377&#45;&gt;dir_cc3ad1aed4be3f446fdd7af78322f5bf</title>
<path fill="none" stroke="black" d="M196.5,-375.88C211.86,-365.6 232.73,-352.53 250.61,-341.95"/>
<polygon fill="black" stroke="black" points="252.78,-344.73 259.65,-336.67 249.25,-338.69 252.78,-344.73"/>
<g id="a_edge25&#45;headlabel"><a xlink:href="dir_000043_000007.html" target="_top" xlink:title="1">
<text text-anchor="middle" x="251.11" y="-346.5" font-family="Helvetica,sans-Serif" font-size="10.00">1</text>
</a>
</g>
</g>
<!-- dir_fbb29e8cafd745cbb7106b56de6b5377&#45;&gt;dir_b778c3f297ab88300258a2935792c8cc -->
<g id="edge24" class="edge">
<title>dir_fbb29e8cafd745cbb7106b56de6b5377&#45;&gt;dir_b778c3f297ab88300258a2935792c8cc</title>
<path fill="none" stroke="black" d="M170.84,-375.89C159.55,-327.65 131.02,-191.95 159,-160 182.6,-133.05 424.95,-115.2 519.51,-109.22"/>
<polygon fill="black" stroke="black" points="520,-112.7 529.76,-108.58 519.56,-105.71 520,-112.7"/>
<g id="a_edge24&#45;headlabel"><a xlink:href="dir_000043_000025.html" target="_top" xlink:title="18">
<text text-anchor="middle" x="516.59" y="-113.26" font-family="Helvetica,sans-Serif" font-size="10.00">18</text>
</a>
</g>
</g>
<!-- dir_14c28d3bb977da9b21a3aa2d366ba228 -->
<g id="node10" class="node">
<title>dir_14c28d3bb977da9b21a3aa2d366ba228</title>
<g id="a_node10"><a xlink:href="dir_14c28d3bb977da9b21a3aa2d366ba228.html" target="_top" xlink:title="f_pc">
<polygon fill="white" stroke="black" points="222,-196 168,-196 168,-160 222,-160 222,-196"/>
<text text-anchor="middle" x="195" y="-175.5" font-family="Helvetica,sans-Serif" font-size="10.00">f_pc</text>
</a>
</g>
</g>
<!-- dir_fbb29e8cafd745cbb7106b56de6b5377&#45;&gt;dir_14c28d3bb977da9b21a3aa2d366ba228 -->
<g id="edge21" class="edge">
<title>dir_fbb29e8cafd745cbb7106b56de6b5377&#45;&gt;dir_14c28d3bb977da9b21a3aa2d366ba228</title>
<path fill="none" stroke="black" d="M176.6,-375.85C180.06,-338.83 188.25,-251.18 192.44,-206.39"/>
<polygon fill="black" stroke="black" points="195.94,-206.51 193.39,-196.23 188.97,-205.86 195.94,-206.51"/>
<g id="a_edge21&#45;headlabel"><a xlink:href="dir_000043_000044.html" target="_top" xlink:title="13">
<text text-anchor="middle" x="198.44" y="-207.86" font-family="Helvetica,sans-Serif" font-size="10.00">13</text>
</a>
</g>
</g>
<!-- dir_fbb29e8cafd745cbb7106b56de6b5377&#45;&gt;dir_4f0979a7f5e3194619cde56505e372d8 -->
<g id="edge22" class="edge">
<title>dir_fbb29e8cafd745cbb7106b56de6b5377&#45;&gt;dir_4f0979a7f5e3194619cde56505e372d8</title>
<path fill="none" stroke="black" d="M177.77,-412.01C181.18,-430.38 187.91,-460.21 199,-484 203.44,-493.51 209.57,-503.15 215.57,-511.54"/>
<polygon fill="black" stroke="black" points="212.92,-513.85 221.69,-519.79 218.54,-509.68 212.92,-513.85"/>
<g id="a_edge22&#45;headlabel"><a xlink:href="dir_000043_000045.html" target="_top" xlink:title="2">
<text text-anchor="middle" x="208.5" y="-510.16" font-family="Helvetica,sans-Serif" font-size="10.00">2</text>
</a>
</g>
</g>
<!-- dir_fbb29e8cafd745cbb7106b56de6b5377&#45;&gt;dir_54283da8a0cf1311a88c964d76512876 -->
<g id="edge23" class="edge">
<title>dir_fbb29e8cafd745cbb7106b56de6b5377&#45;&gt;dir_54283da8a0cf1311a88c964d76512876</title>
<path fill="none" stroke="black" d="M195.8,-412.1C203.88,-420.38 212.9,-430.49 220.42,-439.64"/>
<polygon fill="black" stroke="black" points="217.87,-442.06 226.84,-447.7 223.34,-437.69 217.87,-442.06"/>
<g id="a_edge23&#45;headlabel"><a xlink:href="dir_000043_001623.html" target="_top" xlink:title="13">
<text text-anchor="middle" x="213.41" y="-438.51" font-family="Helvetica,sans-Serif" font-size="10.00">13</text>
</a>
</g>
</g>
<!-- dir_14c28d3bb977da9b21a3aa2d366ba228&#45;&gt;dir_b778c3f297ab88300258a2935792c8cc -->
<g id="edge15" class="edge">
<title>dir_14c28d3bb977da9b21a3aa2d366ba228&#45;&gt;dir_b778c3f297ab88300258a2935792c8cc</title>
<path fill="none" stroke="black" d="M222.04,-164.77C226.63,-162.99 231.41,-161.31 236,-160 336.42,-131.3 459.23,-116.41 519.71,-110.35"/>
<polygon fill="black" stroke="black" points="520.3,-113.81 529.91,-109.36 519.62,-106.85 520.3,-113.81"/>
<g id="a_edge15&#45;headlabel"><a xlink:href="dir_000044_000025.html" target="_top" xlink:title="24">
<text text-anchor="middle" x="516.99" y="-114.49" font-family="Helvetica,sans-Serif" font-size="10.00">24</text>
</a>
</g>
</g>
<!-- dir_14c28d3bb977da9b21a3aa2d366ba228&#45;&gt;dir_54283da8a0cf1311a88c964d76512876 -->
<g id="edge14" class="edge">
<title>dir_14c28d3bb977da9b21a3aa2d366ba228&#45;&gt;dir_54283da8a0cf1311a88c964d76512876</title>
<path fill="none" stroke="black" d="M200.92,-196.31C211.96,-244.31 231.57,-379.44 236.26,-437.7"/>
<polygon fill="black" stroke="black" points="232.79,-438.23 236.97,-447.97 239.77,-437.75 232.79,-438.23"/>
<g id="a_edge14&#45;headlabel"><a xlink:href="dir_000044_001623.html" target="_top" xlink:title="23">
<text text-anchor="middle" x="229.7" y="-432.34" font-family="Helvetica,sans-Serif" font-size="10.00">23</text>
</a>
</g>
</g>
<!-- dir_4f0979a7f5e3194619cde56505e372d8&#45;&gt;dir_b778c3f297ab88300258a2935792c8cc -->
<g id="edge48" class="edge">
<title>dir_4f0979a7f5e3194619cde56505e372d8&#45;&gt;dir_b778c3f297ab88300258a2935792c8cc</title>
<path fill="none" stroke="black" d="M211.18,-519.98C179.57,-496.07 129,-449.33 129,-395 129,-395 129,-395 129,-249 129,-208.89 115.08,-187.8 144,-160 197.2,-108.86 428.23,-105.58 519.6,-106.35"/>
<polygon fill="black" stroke="black" points="519.75,-109.85 529.78,-106.46 519.82,-102.85 519.75,-109.85"/>
<g id="a_edge48&#45;headlabel"><a xlink:href="dir_000045_000025.html" target="_top" xlink:title="267">
<text text-anchor="middle" x="516.12" y="-110.15" font-family="Helvetica,sans-Serif" font-size="10.00">267</text>
</a>
</g>
</g>
<!-- dir_4f0979a7f5e3194619cde56505e372d8&#45;&gt;dir_6141ad2e1396b1970c524b101e645d67 -->
<g id="edge49" class="edge">
<title>dir_4f0979a7f5e3194619cde56505e372d8&#45;&gt;dir_6141ad2e1396b1970c524b101e645d67</title>
<path fill="none" stroke="black" d="M208.29,-528.1C186.81,-519.87 157.8,-505.6 140,-484 44.71,-368.39 -50.03,-274.15 47,-160 137.29,-53.78 582.05,-37.61 749.28,-35.31"/>
<polygon fill="black" stroke="black" points="749.46,-38.81 759.41,-35.18 749.37,-31.81 749.46,-38.81"/>
<g id="a_edge49&#45;headlabel"><a xlink:href="dir_000045_001622.html" target="_top" xlink:title="3">
<text text-anchor="middle" x="745.9" y="-39.19" font-family="Helvetica,sans-Serif" font-size="10.00">3</text>
</a>
</g>
</g>
<!-- dir_4f0979a7f5e3194619cde56505e372d8&#45;&gt;dir_54283da8a0cf1311a88c964d76512876 -->
<g id="edge47" class="edge">
<title>dir_4f0979a7f5e3194619cde56505e372d8&#45;&gt;dir_54283da8a0cf1311a88c964d76512876</title>
<path fill="none" stroke="black" d="M230.08,-519.7C229.29,-511.98 229.06,-502.71 229.4,-494.11"/>
<polygon fill="black" stroke="black" points="232.9,-494.32 230.1,-484.1 225.92,-493.84 232.9,-494.32"/>
<g id="a_edge47&#45;headlabel"><a xlink:href="dir_000045_001623.html" target="_top" xlink:title="1">
<text text-anchor="middle" x="235.48" y="-495.61" font-family="Helvetica,sans-Serif" font-size="10.00">1</text>
</a>
</g>
</g>
<!-- dir_6bdfff2c28f90f381b6da5bee088878b&#45;&gt;dir_b778c3f297ab88300258a2935792c8cc -->
<g id="edge31" class="edge">
<title>dir_6bdfff2c28f90f381b6da5bee088878b&#45;&gt;dir_b778c3f297ab88300258a2935792c8cc</title>
<path fill="none" stroke="black" d="M629.23,-247.91C723.27,-243.87 1030.25,-228.28 1059,-196 1069.64,-184.05 1069.7,-171.89 1059,-160 1027.98,-125.53 705.05,-111.83 594.15,-108.12"/>
<polygon fill="black" stroke="black" points="594.21,-104.62 584.1,-107.79 593.98,-111.61 594.21,-104.62"/>
<g id="a_edge31&#45;headlabel"><a xlink:href="dir_000066_000025.html" target="_top" xlink:title="18">
<text text-anchor="middle" x="597.89" y="-99.4" font-family="Helvetica,sans-Serif" font-size="10.00">18</text>
</a>
</g>
</g>
<!-- dir_6bdfff2c28f90f381b6da5bee088878b&#45;&gt;dir_14c28d3bb977da9b21a3aa2d366ba228 -->
<g id="edge26" class="edge">
<title>dir_6bdfff2c28f90f381b6da5bee088878b&#45;&gt;dir_14c28d3bb977da9b21a3aa2d366ba228</title>
<path fill="none" stroke="black" d="M574.87,-245.23C518.22,-237.24 383.31,-217.53 271,-196 258.24,-193.55 244.35,-190.55 231.98,-187.75"/>
<polygon fill="black" stroke="black" points="232.53,-184.28 222,-185.46 230.97,-191.11 232.53,-184.28"/>
<g id="a_edge26&#45;headlabel"><a xlink:href="dir_000066_000044.html" target="_top" xlink:title="1">
<text text-anchor="middle" x="236.67" y="-179.82" font-family="Helvetica,sans-Serif" font-size="10.00">1</text>
</a>
</g>
</g>
<!-- dir_6bdfff2c28f90f381b6da5bee088878b&#45;&gt;dir_4f0979a7f5e3194619cde56505e372d8 -->
<g id="edge27" class="edge">
<title>dir_6bdfff2c28f90f381b6da5bee088878b&#45;&gt;dir_4f0979a7f5e3194619cde56505e372d8</title>
<path fill="none" stroke="black" d="M601.65,-268.24C599.75,-311.77 588.4,-426.74 522,-484 485.26,-515.68 342.57,-529.66 273.66,-534.67"/>
<polygon fill="black" stroke="black" points="273.38,-531.18 263.65,-535.37 273.87,-538.16 273.38,-531.18"/>
<g id="a_edge27&#45;headlabel"><a xlink:href="dir_000066_000045.html" target="_top" xlink:title="14">
<text text-anchor="middle" x="276.77" y="-525.59" font-family="Helvetica,sans-Serif" font-size="10.00">14</text>
</a>
</g>
</g>
<!-- dir_f04ab26cc3a9b32efb726132a22d6a75 -->
<g id="node15" class="node">
<title>dir_f04ab26cc3a9b32efb726132a22d6a75</title>
<g id="a_node15"><a xlink:href="dir_f04ab26cc3a9b32efb726132a22d6a75.html" target="_top" xlink:title="MSL_C.PPCEABI.bare.H">
<polygon fill="white" stroke="red" points="1233.5,-196 1108.5,-196 1108.5,-160 1233.5,-160 1233.5,-196"/>
<text text-anchor="middle" x="1171" y="-175.5" font-family="Helvetica,sans-Serif" font-size="10.00">MSL_C.PPCEABI.bare.H</text>
</a>
</g>
</g>
<!-- dir_6bdfff2c28f90f381b6da5bee088878b&#45;&gt;dir_f04ab26cc3a9b32efb726132a22d6a75 -->
<g id="edge32" class="edge">
<title>dir_6bdfff2c28f90f381b6da5bee088878b&#45;&gt;dir_f04ab26cc3a9b32efb726132a22d6a75</title>
<path fill="none" stroke="black" d="M629.07,-247.14C703.59,-241.78 917.87,-224.84 1094,-196 1095.48,-195.76 1096.97,-195.51 1098.47,-195.24"/>
<polygon fill="black" stroke="black" points="1099.29,-198.65 1108.5,-193.4 1098.03,-191.77 1099.29,-198.65"/>
<g id="a_edge32&#45;headlabel"><a xlink:href="dir_000066_000069.html" target="_top" xlink:title="2">
<text text-anchor="middle" x="1096.27" y="-199.59" font-family="Helvetica,sans-Serif" font-size="10.00">2</text>
</a>
</g>
</g>
<!-- dir_6bdfff2c28f90f381b6da5bee088878b&#45;&gt;dir_6141ad2e1396b1970c524b101e645d67 -->
<g id="edge29" class="edge">
<title>dir_6bdfff2c28f90f381b6da5bee088878b&#45;&gt;dir_6141ad2e1396b1970c524b101e645d67</title>
<path fill="none" stroke="black" d="M629.11,-248.87C745.74,-248.02 1200.83,-241.8 1243,-196 1352.15,-77.45 1020.8,-45.74 876.57,-37.64"/>
<polygon fill="black" stroke="black" points="876.69,-34.14 866.51,-37.1 876.31,-41.13 876.69,-34.14"/>
<g id="a_edge29&#45;headlabel"><a xlink:href="dir_000066_001622.html" target="_top" xlink:title="1">
<text text-anchor="middle" x="880.43" y="-29" font-family="Helvetica,sans-Serif" font-size="10.00">1</text>
</a>
</g>
</g>
<!-- dir_6bdfff2c28f90f381b6da5bee088878b&#45;&gt;dir_54283da8a0cf1311a88c964d76512876 -->
<g id="edge28" class="edge">
<title>dir_6bdfff2c28f90f381b6da5bee088878b&#45;&gt;dir_54283da8a0cf1311a88c964d76512876</title>
<path fill="none" stroke="black" d="M582.88,-268.18C546.48,-300.18 463.71,-369.49 384,-412 348.41,-430.98 304.59,-445.71 273.9,-454.77"/>
<polygon fill="black" stroke="black" points="272.66,-451.49 264.02,-457.63 274.6,-458.21 272.66,-451.49"/>
<g id="a_edge28&#45;headlabel"><a xlink:href="dir_000066_001623.html" target="_top" xlink:title="1">
<text text-anchor="middle" x="275.32" y="-445.26" font-family="Helvetica,sans-Serif" font-size="10.00">1</text>
</a>
</g>
</g>
<!-- dir_6bdfff2c28f90f381b6da5bee088878b&#45;&gt;dir_81939fb769658ab66ba54ec390580a1a -->
<g id="edge30" class="edge">
<title>dir_6bdfff2c28f90f381b6da5bee088878b&#45;&gt;dir_81939fb769658ab66ba54ec390580a1a</title>
<path fill="none" stroke="black" d="M611.64,-231.7C616.13,-223.64 621.56,-213.89 626.52,-204.98"/>
<polygon fill="black" stroke="black" points="629.66,-206.54 631.47,-196.1 623.55,-203.14 629.66,-206.54"/>
<g id="a_edge30&#45;headlabel"><a xlink:href="dir_000066_001641.html" target="_top" xlink:title="1">
<text text-anchor="middle" x="630.39" y="-208.57" font-family="Helvetica,sans-Serif" font-size="10.00">1</text>
</a>
</g>
</g>
<!-- dir_f4a0ada2a696f9fa1f0722f1cc886f9d -->
<g id="node13" class="node">
<title>dir_f4a0ada2a696f9fa1f0722f1cc886f9d</title>
<g id="a_node13"><a xlink:href="dir_f4a0ada2a696f9fa1f0722f1cc886f9d.html" target="_top" xlink:title="msg">
<polygon fill="white" stroke="red" points="110,-196 56,-196 56,-160 110,-160 110,-196"/>
<text text-anchor="middle" x="83" y="-175.5" font-family="Helvetica,sans-Serif" font-size="10.00">msg</text>
</a>
</g>
</g>
<!-- dir_f4a0ada2a696f9fa1f0722f1cc886f9d&#45;&gt;dir_b778c3f297ab88300258a2935792c8cc -->
<g id="edge17" class="edge">
<title>dir_f4a0ada2a696f9fa1f0722f1cc886f9d&#45;&gt;dir_b778c3f297ab88300258a2935792c8cc</title>
<path fill="none" stroke="black" d="M110.44,-164.43C114.9,-162.74 119.53,-161.18 124,-160 266.93,-122.37 443.57,-111.31 519.47,-108.18"/>
<polygon fill="black" stroke="black" points="520.06,-111.66 529.92,-107.78 519.79,-104.67 520.06,-111.66"/>
<g id="a_edge17&#45;headlabel"><a xlink:href="dir_000067_000025.html" target="_top" xlink:title="14">
<text text-anchor="middle" x="516.58" y="-112.14" font-family="Helvetica,sans-Serif" font-size="10.00">14</text>
</a>
</g>
</g>
<!-- dir_b056c41af2f37e34bf043d25c5f2cbe4&#45;&gt;dir_b778c3f297ab88300258a2935792c8cc -->
<g id="edge19" class="edge">
<title>dir_b056c41af2f37e34bf043d25c5f2cbe4&#45;&gt;dir_b778c3f297ab88300258a2935792c8cc</title>
<path fill="none" stroke="black" d="M360.36,-237.6C379.66,-228.52 405.15,-214.3 423,-196 435.78,-182.9 429.6,-172.47 443,-160 464.91,-139.61 496.05,-125.86 520.25,-117.49"/>
<polygon fill="black" stroke="black" points="521.42,-120.79 529.81,-114.33 519.22,-114.14 521.42,-120.79"/>
<g id="a_edge19&#45;headlabel"><a xlink:href="dir_000078_000025.html" target="_top" xlink:title="2">
<text text-anchor="middle" x="518.89" y="-122.11" font-family="Helvetica,sans-Serif" font-size="10.00">2</text>
</a>
</g>
</g>
<!-- dir_b056c41af2f37e34bf043d25c5f2cbe4&#45;&gt;dir_6141ad2e1396b1970c524b101e645d67 -->
<g id="edge18" class="edge">
<title>dir_b056c41af2f37e34bf043d25c5f2cbe4&#45;&gt;dir_6141ad2e1396b1970c524b101e645d67</title>
<path fill="none" stroke="black" d="M360.14,-247.02C491.93,-237.4 1059,-196 1059,-196 1122.71,-127.47 969.03,-74.53 876.63,-49.99"/>
<polygon fill="black" stroke="black" points="877.35,-46.56 866.79,-47.42 875.58,-53.33 877.35,-46.56"/>
<g id="a_edge18&#45;headlabel"><a xlink:href="dir_000078_001622.html" target="_top" xlink:title="1">
<text text-anchor="middle" x="881.54" y="-42.22" font-family="Helvetica,sans-Serif" font-size="10.00">1</text>
</a>
</g>
</g>
<!-- dir_f04ab26cc3a9b32efb726132a22d6a75&#45;&gt;dir_b778c3f297ab88300258a2935792c8cc -->
<g id="edge4" class="edge">
<title>dir_f04ab26cc3a9b32efb726132a22d6a75&#45;&gt;dir_b778c3f297ab88300258a2935792c8cc</title>
<path fill="none" stroke="black" d="M1108.08,-162.47C1103.33,-161.57 1098.6,-160.73 1094,-160 907.52,-130.32 681.8,-114.52 594.23,-109.14"/>
<polygon fill="black" stroke="black" points="594.44,-105.65 584.25,-108.54 594.02,-112.64 594.44,-105.65"/>
<g id="a_edge4&#45;headlabel"><a xlink:href="dir_000069_000025.html" target="_top" xlink:title="56">
<text text-anchor="middle" x="598.2" y="-100.53" font-family="Helvetica,sans-Serif" font-size="10.00">56</text>
</a>
</g>
</g>
<!-- dir_f04ab26cc3a9b32efb726132a22d6a75&#45;&gt;dir_6141ad2e1396b1970c524b101e645d67 -->
<g id="edge5" class="edge">
<title>dir_f04ab26cc3a9b32efb726132a22d6a75&#45;&gt;dir_6141ad2e1396b1970c524b101e645d67</title>
<path fill="none" stroke="black" d="M1157.54,-159.95C1140.4,-139.5 1108.82,-105.75 1074,-88 1011.69,-56.24 931.9,-43.51 877.04,-38.41"/>
<polygon fill="black" stroke="black" points="877.02,-34.89 866.75,-37.51 876.41,-41.87 877.02,-34.89"/>
<g id="a_edge5&#45;headlabel"><a xlink:href="dir_000069_001622.html" target="_top" xlink:title="1">
<text text-anchor="middle" x="880.84" y="-29.88" font-family="Helvetica,sans-Serif" font-size="10.00">1</text>
</a>
</g>
</g>
<!-- dir_87ef4356690393f98a03cd010822f8d3 -->
<g id="node16" class="node">
<title>dir_87ef4356690393f98a03cd010822f8d3</title>
<g id="a_node16"><a xlink:href="dir_87ef4356690393f98a03cd010822f8d3.html" target="_top" xlink:title="odemuexi2">
<polygon fill="white" stroke="red" points="1049.5,-196 986.5,-196 986.5,-160 1049.5,-160 1049.5,-196"/>
<text text-anchor="middle" x="1018" y="-175.5" font-family="Helvetica,sans-Serif" font-size="10.00">odemuexi2</text>
</a>
</g>
</g>
<!-- dir_87ef4356690393f98a03cd010822f8d3&#45;&gt;dir_b778c3f297ab88300258a2935792c8cc -->
<g id="edge20" class="edge">
<title>dir_87ef4356690393f98a03cd010822f8d3&#45;&gt;dir_b778c3f297ab88300258a2935792c8cc</title>
<path fill="none" stroke="black" d="M986.05,-162.8C983.03,-161.75 979.98,-160.79 977,-160 838.88,-123.36 668.28,-111.8 594.22,-108.36"/>
<polygon fill="black" stroke="black" points="594.15,-104.86 584.01,-107.91 593.85,-111.85 594.15,-104.86"/>
<g id="a_edge20&#45;headlabel"><a xlink:href="dir_000079_000025.html" target="_top" xlink:title="1">
<text text-anchor="middle" x="597.87" y="-99.68" font-family="Helvetica,sans-Serif" font-size="10.00">1</text>
</a>
</g>
</g>
<!-- dir_70bf4e9311ed1821b28462b50265373f -->
<g id="node17" class="node">
<title>dir_70bf4e9311ed1821b28462b50265373f</title>
<g id="a_node17"><a xlink:href="dir_70bf4e9311ed1821b28462b50265373f.html" target="_top" xlink:title="odenotstub">
<polygon fill="white" stroke="black" points="589.5,-196 524.5,-196 524.5,-160 589.5,-160 589.5,-196"/>
<text text-anchor="middle" x="557" y="-175.5" font-family="Helvetica,sans-Serif" font-size="10.00">odenotstub</text>
</a>
</g>
</g>
<!-- dir_70bf4e9311ed1821b28462b50265373f&#45;&gt;dir_b778c3f297ab88300258a2935792c8cc -->
<g id="edge13" class="edge">
<title>dir_70bf4e9311ed1821b28462b50265373f&#45;&gt;dir_b778c3f297ab88300258a2935792c8cc</title>
<path fill="none" stroke="black" d="M557,-159.7C557,-151.98 557,-142.71 557,-134.11"/>
<polygon fill="black" stroke="black" points="560.5,-134.1 557,-124.1 553.5,-134.1 560.5,-134.1"/>
<g id="a_edge13&#45;headlabel"><a xlink:href="dir_000082_000025.html" target="_top" xlink:title="1">
<text text-anchor="middle" x="563.34" y="-135.2" font-family="Helvetica,sans-Serif" font-size="10.00">1</text>
</a>
</g>
</g>
<!-- dir_d1e95842203b094e4f127fa85baf24b5 -->
<g id="node18" class="node">
<title>dir_d1e95842203b094e4f127fa85baf24b5</title>
<g id="a_node18"><a xlink:href="dir_d1e95842203b094e4f127fa85baf24b5.html" target="_top" xlink:title="rel">
<polygon fill="white" stroke="red" points="506,-196 452,-196 452,-160 506,-160 506,-196"/>
<text text-anchor="middle" x="479" y="-175.5" font-family="Helvetica,sans-Serif" font-size="10.00">rel</text>
</a>
</g>
</g>
<!-- dir_d1e95842203b094e4f127fa85baf24b5&#45;&gt;dir_b778c3f297ab88300258a2935792c8cc -->
<g id="edge33" class="edge">
<title>dir_d1e95842203b094e4f127fa85baf24b5&#45;&gt;dir_b778c3f297ab88300258a2935792c8cc</title>
<path fill="none" stroke="black" d="M498.28,-159.7C507.92,-151.05 519.73,-140.45 530.23,-131.03"/>
<polygon fill="black" stroke="black" points="532.84,-133.39 537.94,-124.1 528.16,-128.18 532.84,-133.39"/>
<g id="a_edge33&#45;headlabel"><a xlink:href="dir_000083_000025.html" target="_top" xlink:title="3479">
<text text-anchor="middle" x="532.06" y="-135.4" font-family="Helvetica,sans-Serif" font-size="10.00">3479</text>
</a>
</g>
</g>
<!-- dir_6141ad2e1396b1970c524b101e645d67&#45;&gt;dir_b778c3f297ab88300258a2935792c8cc -->
<g id="edge46" class="edge">
<title>dir_6141ad2e1396b1970c524b101e645d67&#45;&gt;dir_b778c3f297ab88300258a2935792c8cc</title>
<path fill="none" stroke="black" d="M759.4,-51.24C709.85,-65.22 637.65,-84.86 594.13,-96.12"/>
<polygon fill="black" stroke="black" points="593.06,-92.79 584.25,-98.66 594.81,-99.57 593.06,-92.79"/>
<g id="a_edge46&#45;headlabel"><a xlink:href="dir_001622_000025.html" target="_top" xlink:title="9">
<text text-anchor="middle" x="595.84" y="-86.64" font-family="Helvetica,sans-Serif" font-size="10.00">9</text>
</a>
</g>
</g>
<!-- dir_54283da8a0cf1311a88c964d76512876&#45;&gt;dir_b778c3f297ab88300258a2935792c8cc -->
<g id="edge37" class="edge">
<title>dir_54283da8a0cf1311a88c964d76512876&#45;&gt;dir_b778c3f297ab88300258a2935792c8cc</title>
<path fill="none" stroke="black" d="M236.99,-447.96C238.44,-421.31 241,-368.14 241,-323 241,-323 241,-323 241,-249 241,-209.2 223.71,-188.97 251,-160 287.12,-121.66 446.36,-110.97 519.74,-108.06"/>
<polygon fill="black" stroke="black" points="520.05,-111.55 529.92,-107.68 519.79,-104.55 520.05,-111.55"/>
<g id="a_edge37&#45;headlabel"><a xlink:href="dir_001623_000025.html" target="_top" xlink:title="40">
<text text-anchor="middle" x="516.57" y="-112.02" font-family="Helvetica,sans-Serif" font-size="10.00">40</text>
</a>
</g>
</g>
<!-- dir_54283da8a0cf1311a88c964d76512876&#45;&gt;dir_fbb29e8cafd745cbb7106b56de6b5377 -->
<g id="edge38" class="edge">
<title>dir_54283da8a0cf1311a88c964d76512876&#45;&gt;dir_fbb29e8cafd745cbb7106b56de6b5377</title>
<path fill="none" stroke="black" d="M215.01,-447.7C206.91,-439.39 197.9,-429.28 190.4,-420.14"/>
<polygon fill="black" stroke="black" points="192.97,-417.75 184.01,-412.1 187.5,-422.11 192.97,-417.75"/>
<g id="a_edge38&#45;headlabel"><a xlink:href="dir_001623_000043.html" target="_top" xlink:title="1">
<text text-anchor="middle" x="197.43" y="-416.3" font-family="Helvetica,sans-Serif" font-size="10.00">1</text>
</a>
</g>
</g>
<!-- dir_54283da8a0cf1311a88c964d76512876&#45;&gt;dir_14c28d3bb977da9b21a3aa2d366ba228 -->
<g id="edge34" class="edge">
<title>dir_54283da8a0cf1311a88c964d76512876&#45;&gt;dir_14c28d3bb977da9b21a3aa2d366ba228</title>
<path fill="none" stroke="black" d="M230.15,-447.97C219.14,-400.29 199.51,-265.18 194.77,-206.63"/>
<polygon fill="black" stroke="black" points="198.24,-206.04 194.04,-196.31 191.25,-206.53 198.24,-206.04"/>
<g id="a_edge34&#45;headlabel"><a xlink:href="dir_001623_000044.html" target="_top" xlink:title="1">
<text text-anchor="middle" x="201.32" y="-206.92" font-family="Helvetica,sans-Serif" font-size="10.00">1</text>
</a>
</g>
</g>
<!-- dir_54283da8a0cf1311a88c964d76512876&#45;&gt;dir_4f0979a7f5e3194619cde56505e372d8 -->
<g id="edge35" class="edge">
<title>dir_54283da8a0cf1311a88c964d76512876&#45;&gt;dir_4f0979a7f5e3194619cde56505e372d8</title>
<path fill="none" stroke="black" d="M241.9,-484.1C242.7,-491.79 242.94,-501.05 242.6,-509.67"/>
<polygon fill="black" stroke="black" points="239.11,-509.48 241.92,-519.7 246.09,-509.96 239.11,-509.48"/>
<g id="a_edge35&#45;headlabel"><a xlink:href="dir_001623_000045.html" target="_top" xlink:title="2">
<text text-anchor="middle" x="236.52" y="-503.2" font-family="Helvetica,sans-Serif" font-size="10.00">2</text>
</a>
</g>
</g>
<!-- dir_54283da8a0cf1311a88c964d76512876&#45;&gt;dir_b056c41af2f37e34bf043d25c5f2cbe4 -->
<g id="edge36" class="edge">
<title>dir_54283da8a0cf1311a88c964d76512876&#45;&gt;dir_b056c41af2f37e34bf043d25c5f2cbe4</title>
<path fill="none" stroke="black" d="M252.07,-447.99C272.43,-425.33 306.79,-383.06 323,-340 330.43,-320.26 332.79,-296.46 333.37,-278.44"/>
<polygon fill="black" stroke="black" points="336.87,-278.37 333.53,-268.31 329.88,-278.25 336.87,-278.37"/>
<g id="a_edge36&#45;headlabel"><a xlink:href="dir_001623_000078.html" target="_top" xlink:title="1">
<text text-anchor="middle" x="339.66" y="-279.51" font-family="Helvetica,sans-Serif" font-size="10.00">1</text>
</a>
</g>
</g>
<!-- dir_1cf8c5ae6c227b033e49e3be60b350ef -->
<g id="node21" class="node">
<title>dir_1cf8c5ae6c227b033e49e3be60b350ef</title>
<g id="a_node21"><a xlink:href="dir_1cf8c5ae6c227b033e49e3be60b350ef.html" target="_top" xlink:title="TRK_MINNOW_DOLPHIN">
<polygon fill="white" stroke="red" points="414,-196 280,-196 280,-160 414,-160 414,-196"/>
<text text-anchor="middle" x="347" y="-175.5" font-family="Helvetica,sans-Serif" font-size="10.00">TRK_MINNOW_DOLPHIN</text>
</a>
</g>
</g>
<!-- dir_1cf8c5ae6c227b033e49e3be60b350ef&#45;&gt;dir_b778c3f297ab88300258a2935792c8cc -->
<g id="edge9" class="edge">
<title>dir_1cf8c5ae6c227b033e49e3be60b350ef&#45;&gt;dir_b778c3f297ab88300258a2935792c8cc</title>
<path fill="none" stroke="black" d="M398.1,-159.97C435.89,-147.37 486.46,-130.51 520.31,-119.23"/>
<polygon fill="black" stroke="black" points="521.43,-122.55 529.81,-116.06 519.22,-115.9 521.43,-122.55"/>
<g id="a_edge9&#45;headlabel"><a xlink:href="dir_001626_000025.html" target="_top" xlink:title="29">
<text text-anchor="middle" x="518.92" y="-123.88" font-family="Helvetica,sans-Serif" font-size="10.00">29</text>
</a>
</g>
</g>
<!-- dir_81939fb769658ab66ba54ec390580a1a&#45;&gt;dir_b778c3f297ab88300258a2935792c8cc -->
<g id="edge12" class="edge">
<title>dir_81939fb769658ab66ba54ec390580a1a&#45;&gt;dir_b778c3f297ab88300258a2935792c8cc</title>
<path fill="none" stroke="black" d="M620.24,-159.7C609.76,-150.97 596.89,-140.24 585.5,-130.75"/>
<polygon fill="black" stroke="black" points="587.45,-127.82 577.53,-124.1 582.97,-133.19 587.45,-127.82"/>
<g id="a_edge12&#45;headlabel"><a xlink:href="dir_001641_000025.html" target="_top" xlink:title="27">
<text text-anchor="middle" x="592.03" y="-125.44" font-family="Helvetica,sans-Serif" font-size="10.00">27</text>
</a>
</g>
</g>
<!-- dir_81939fb769658ab66ba54ec390580a1a&#45;&gt;dir_4f0979a7f5e3194619cde56505e372d8 -->
<g id="edge10" class="edge">
<title>dir_81939fb769658ab66ba54ec390580a1a&#45;&gt;dir_4f0979a7f5e3194619cde56505e372d8</title>
<path fill="none" stroke="black" d="M610.67,-196.04C573.96,-219.18 517,-264.21 517,-321 517,-395 517,-395 517,-395 517,-502.67 350.62,-528.72 273.91,-535.01"/>
<polygon fill="black" stroke="black" points="273.42,-531.53 263.71,-535.77 273.95,-538.51 273.42,-531.53"/>
<g id="a_edge10&#45;headlabel"><a xlink:href="dir_001641_000045.html" target="_top" xlink:title="22">
<text text-anchor="middle" x="276.8" y="-525.93" font-family="Helvetica,sans-Serif" font-size="10.00">22</text>
</a>
</g>
</g>
<!-- dir_81939fb769658ab66ba54ec390580a1a&#45;&gt;dir_54283da8a0cf1311a88c964d76512876 -->
<g id="edge11" class="edge">
<title>dir_81939fb769658ab66ba54ec390580a1a&#45;&gt;dir_54283da8a0cf1311a88c964d76512876</title>
<path fill="none" stroke="black" d="M607.85,-192.47C570.36,-207.73 514.2,-230.67 512,-232 505.14,-236.16 332.82,-382.61 264,-441.16"/>
<polygon fill="black" stroke="black" points="261.49,-438.71 256.14,-447.85 266.02,-444.04 261.49,-438.71"/>
<g id="a_edge11&#45;headlabel"><a xlink:href="dir_001641_001623.html" target="_top" xlink:title="1">
<text text-anchor="middle" x="262.39" y="-431.72" font-family="Helvetica,sans-Serif" font-size="10.00">1</text>
</a>
</g>
</g>
</g>
</svg>
        <g id="navigator" transform="translate(0 0)" fill="#404254">
                <rect fill="#f2f5e9" fill-opacity="0.5" stroke="#606060" stroke-width=".5" x="0" y="0" width="60" height="60"/>
                <use id="zoomplus" xlink:href="#zoomPlus" x="17" y="9" onmousedown="handleZoom(evt,'in')"/>
                <use id="zoomminus" xlink:href="#zoomMin" x="42" y="9" onmousedown="handleZoom(evt,'out')"/>
                <use id="reset" xlink:href="#resetDef" x="30" y="36" onmousedown="handleReset()"/>
                <g id="arrowUp" xlink:href="#dirArrow" transform="translate(30 24)" onmousedown="handlePan(0,-1)">
                  <use xlink:href="#rim" fill="#404040">
                        <set attributeName="fill" to="#808080" begin="arrowUp.mouseover" end="arrowUp.mouseout"/>
                  </use>
                  <path fill="none" stroke="white" stroke-width="1.5" d="M0,-3.0v7 M-2.5,-0.5L0,-3.0L2.5,-0.5"/>
                </g>
                <g id="arrowRight" xlink:href="#dirArrow" transform="rotate(90) translate(36 -43)" onmousedown="handlePan(1,0)">
                  <use xlink:href="#rim" fill="#404040">
                        <set attributeName="fill" to="#808080" begin="arrowRight.mouseover" end="arrowRight.mouseout"/>
                  </use>
                  <path fill="none" stroke="white" stroke-width="1.5" d="M0,-3.0v7 M-2.5,-0.5L0,-3.0L2.5,-0.5"/>
                </g>
                <g id="arrowDown" xlink:href="#dirArrow" transform="rotate(180) translate(-30 -48)" onmousedown="handlePan(0,1)">
                  <use xlink:href="#rim" fill="#404040">
                        <set attributeName="fill" to="#808080" begin="arrowDown.mouseover" end="arrowDown.mouseout"/>
                  </use>
                  <path fill="none" stroke="white" stroke-width="1.5" d="M0,-3.0v7 M-2.5,-0.5L0,-3.0L2.5,-0.5"/>
                </g>
                <g id="arrowLeft" xlink:href="#dirArrow" transform="rotate(270) translate(-36 17)" onmousedown="handlePan(-1,0)">
                  <use xlink:href="#rim" fill="#404040">
                        <set attributeName="fill" to="#808080" begin="arrowLeft.mouseover" end="arrowLeft.mouseout"/>
                  </use>
                  <path fill="none" stroke="white" stroke-width="1.5" d="M0,-3.0v7 M-2.5,-0.5L0,-3.0L2.5,-0.5"/>
                </g>
        </g>
        <svg viewBox="0 0 15 15" width="100%" height="30px" preserveAspectRatio="xMaxYMin meet">
         <g id="arrow_out" transform="scale(0.3 0.3)">
          <a xlink:href="dir_d44c64559bbebec7f509842c48db8b23_dep_org.svg" target="_base">
           <rect id="button" ry="5" rx="5" y="6" x="6" height="38" width="38"
                fill="#f2f5e9" fill-opacity="0.5" stroke="#606060" stroke-width="1.0"/>
           <path id="arrow"
             d="M 11.500037,31.436501 C 11.940474,20.09759 22.043105,11.32322 32.158766,21.979434 L 37.068811,17.246167 C 37.068811,17.246167 37.088388,32 37.088388,32 L 22.160133,31.978069 C 22.160133,31.978069 26.997745,27.140456 26.997745,27.140456 C 18.528582,18.264221 13.291696,25.230495 11.500037,31.436501 z"
             style="fill:#404040;"/>
          </a>
         </g>
        </svg>
</svg>
