<?xml version="1.0" encoding="UTF-8" standalone="no"?>
<!DOCTYPE svg PUBLIC "-//W3C//DTD SVG 1.1//EN"
 "http://www.w3.org/Graphics/SVG/1.1/DTD/svg11.dtd">
<!-- Generated by graphviz version 2.44.0 ()
 -->
<!-- Title: include/d/meter Pages: 1 -->
<svg width="296pt" height="367pt"
 viewBox="0.00 0.00 295.72 367.00" xmlns="http://www.w3.org/2000/svg" xmlns:xlink="http://www.w3.org/1999/xlink">
<g id="graph0" class="graph" transform="scale(1 1) rotate(0) translate(4 363)">
<title>include/d/meter</title>
<polygon fill="white" stroke="transparent" points="-4,4 -4,-363 291.72,-363 291.72,4 -4,4"/>
<g id="clust1" class="cluster">
<title>clusterdir_cc3ad1aed4be3f446fdd7af78322f5bf</title>
<g id="a_clust1"><a xlink:href="dir_cc3ad1aed4be3f446fdd7af78322f5bf.html" target="_top" xlink:title="d">
<polygon fill="#ddddee" stroke="black" points="8,-208 8,-351 222,-351 222,-208 8,-208"/>
<text text-anchor="middle" x="115" y="-339" font-family="Helvetica,sans-Serif" font-size="10.00">d</text>
</a>
</g>
</g>
<!-- dir_1ab896b3fe9bd3d95640c42fe839f29d -->
<g id="node1" class="node">
<title>dir_1ab896b3fe9bd3d95640c42fe839f29d</title>
<g id="a_node1"><a xlink:href="dir_1ab896b3fe9bd3d95640c42fe839f29d.html" target="_top" xlink:title="pane">
<polygon fill="none" stroke="black" points="142,-252 88,-252 88,-216 142,-216 142,-252"/>
<text text-anchor="middle" x="115" y="-231.5" font-family="Helvetica,sans-Serif" font-size="10.00">pane</text>
</a>
</g>
</g>
<!-- dir_4f0979a7f5e3194619cde56505e372d8 -->
<g id="node5" class="node">
<title>dir_4f0979a7f5e3194619cde56505e372d8</title>
<g id="a_node5"><a xlink:href="dir_4f0979a7f5e3194619cde56505e372d8.html" target="_top" xlink:title="JSystem">
<polygon fill="white" stroke="red" points="251.5,-108 196.5,-108 196.5,-72 251.5,-72 251.5,-108"/>
<text text-anchor="middle" x="224" y="-87.5" font-family="Helvetica,sans-Serif" font-size="10.00">JSystem</text>
</a>
</g>
</g>
<!-- dir_1ab896b3fe9bd3d95640c42fe839f29d&#45;&gt;dir_4f0979a7f5e3194619cde56505e372d8 -->
<g id="edge3" class="edge">
<title>dir_1ab896b3fe9bd3d95640c42fe839f29d&#45;&gt;dir_4f0979a7f5e3194619cde56505e372d8</title>
<path fill="none" stroke="black" d="M128.15,-215.87C147.22,-191.03 182.67,-144.85 204.7,-116.14"/>
<polygon fill="black" stroke="black" points="207.49,-118.25 210.81,-108.19 201.94,-113.99 207.49,-118.25"/>
<g id="a_edge3&#45;headlabel"><a xlink:href="dir_000020_000045.html" target="_top" xlink:title="2">
<text text-anchor="middle" x="207.56" y="-120.33" font-family="Helvetica,sans-Serif" font-size="10.00">2</text>
</a>
</g>
</g>
<!-- dir_b778c3f297ab88300258a2935792c8cc -->
<g id="node6" class="node">
<title>dir_b778c3f297ab88300258a2935792c8cc</title>
<g id="a_node6"><a xlink:href="dir_b778c3f297ab88300258a2935792c8cc.html" target="_top" xlink:title="dolphin">
<polygon fill="white" stroke="red" points="223,-36 169,-36 169,0 223,0 223,-36"/>
<text text-anchor="middle" x="196" y="-15.5" font-family="Helvetica,sans-Serif" font-size="10.00">dolphin</text>
</a>
</g>
</g>
<!-- dir_1ab896b3fe9bd3d95640c42fe839f29d&#45;&gt;dir_b778c3f297ab88300258a2935792c8cc -->
<g id="edge4" class="edge">
<title>dir_1ab896b3fe9bd3d95640c42fe839f29d&#45;&gt;dir_b778c3f297ab88300258a2935792c8cc</title>
<path fill="none" stroke="black" d="M121.49,-215.85C135.56,-178.68 168.96,-90.44 185.85,-45.82"/>
<polygon fill="black" stroke="black" points="189.21,-46.82 189.48,-36.23 182.66,-44.35 189.21,-46.82"/>
<g id="a_edge4&#45;headlabel"><a xlink:href="dir_000020_000025.html" target="_top" xlink:title="3">
<text text-anchor="middle" x="190.59" y="-48.69" font-family="Helvetica,sans-Serif" font-size="10.00">3</text>
</a>
</g>
</g>
<!-- dir_8708ba3a724eae4ad101a20e39d5924d -->
<g id="node2" class="node">
<title>dir_8708ba3a724eae4ad101a20e39d5924d</title>
<g id="a_node2"><a xlink:href="dir_8708ba3a724eae4ad101a20e39d5924d.html" target="_top" xlink:title="menu">
<polygon fill="none" stroke="black" points="70,-252 16,-252 16,-216 70,-216 70,-252"/>
<text text-anchor="middle" x="43" y="-231.5" font-family="Helvetica,sans-Serif" font-size="10.00">menu</text>
</a>
</g>
</g>
<!-- dir_1641b1a8130cba42fb335c906a98b602 -->
<g id="node4" class="node">
<title>dir_1641b1a8130cba42fb335c906a98b602</title>
<g id="a_node4"><a xlink:href="dir_1641b1a8130cba42fb335c906a98b602.html" target="_top" xlink:title="meter">
<polygon fill="#eeeeff" stroke="black" points="214,-324 160,-324 160,-288 214,-288 214,-324"/>
<text text-anchor="middle" x="187" y="-303.5" font-family="Helvetica,sans-Serif" font-size="10.00">meter</text>
</a>
</g>
</g>
<!-- dir_8708ba3a724eae4ad101a20e39d5924d&#45;&gt;dir_1641b1a8130cba42fb335c906a98b602 -->
<g id="edge13" class="edge">
<title>dir_8708ba3a724eae4ad101a20e39d5924d&#45;&gt;dir_1641b1a8130cba42fb335c906a98b602</title>
<path fill="none" stroke="black" d="M70.17,-245.76C92.97,-255.98 125.54,-271.62 150.56,-284.26"/>
<polygon fill="black" stroke="black" points="149.25,-287.52 159.74,-288.94 152.42,-281.28 149.25,-287.52"/>
<g id="a_edge13&#45;headlabel"><a xlink:href="dir_000016_000017.html" target="_top" xlink:title="1">
<text text-anchor="middle" x="144.75" y="-285.92" font-family="Helvetica,sans-Serif" font-size="10.00">1</text>
</a>
</g>
</g>
<!-- dir_8708ba3a724eae4ad101a20e39d5924d&#45;&gt;dir_b778c3f297ab88300258a2935792c8cc -->
<g id="edge14" class="edge">
<title>dir_8708ba3a724eae4ad101a20e39d5924d&#45;&gt;dir_b778c3f297ab88300258a2935792c8cc</title>
<path fill="none" stroke="black" d="M55.41,-215.6C76.49,-186.07 120.62,-124.24 158,-72 164.42,-63.02 171.47,-53.2 177.73,-44.47"/>
<polygon fill="black" stroke="black" points="180.69,-46.35 183.67,-36.18 175,-42.27 180.69,-46.35"/>
<g id="a_edge14&#45;headlabel"><a xlink:href="dir_000016_000025.html" target="_top" xlink:title="18">
<text text-anchor="middle" x="180.9" y="-48.42" font-family="Helvetica,sans-Serif" font-size="10.00">18</text>
</a>
</g>
</g>
<!-- dir_d6b0d4f987b95c78b3cfcc31952546fc -->
<g id="node3" class="node">
<title>dir_d6b0d4f987b95c78b3cfcc31952546fc</title>
<g id="a_node3"><a xlink:href="dir_d6b0d4f987b95c78b3cfcc31952546fc.html" target="_top" xlink:title="msg">
<polygon fill="none" stroke="black" points="214,-252 160,-252 160,-216 214,-216 214,-252"/>
<text text-anchor="middle" x="187" y="-231.5" font-family="Helvetica,sans-Serif" font-size="10.00">msg</text>
</a>
</g>
</g>
<!-- dir_d6b0d4f987b95c78b3cfcc31952546fc&#45;&gt;dir_b778c3f297ab88300258a2935792c8cc -->
<g id="edge1" class="edge">
<title>dir_d6b0d4f987b95c78b3cfcc31952546fc&#45;&gt;dir_b778c3f297ab88300258a2935792c8cc</title>
<path fill="none" stroke="black" d="M186.29,-215.57C185.27,-186 183.93,-124.11 188,-72 188.66,-63.52 189.87,-54.34 191.15,-46.04"/>
<polygon fill="black" stroke="black" points="194.62,-46.55 192.78,-36.11 187.71,-45.42 194.62,-46.55"/>
<g id="a_edge1&#45;headlabel"><a xlink:href="dir_000018_000025.html" target="_top" xlink:title="7">
<text text-anchor="middle" x="196.84" y="-48.05" font-family="Helvetica,sans-Serif" font-size="10.00">7</text>
</a>
</g>
</g>
<!-- dir_fbb29e8cafd745cbb7106b56de6b5377 -->
<g id="node7" class="node">
<title>dir_fbb29e8cafd745cbb7106b56de6b5377</title>
<g id="a_node7"><a xlink:href="dir_fbb29e8cafd745cbb7106b56de6b5377.html" target="_top" xlink:title="f_op">
<polygon fill="none" stroke="black" points="252,-180 198,-180 198,-144 252,-144 252,-180"/>
<text text-anchor="middle" x="225" y="-159.5" font-family="Helvetica,sans-Serif" font-size="10.00">f_op</text>
</a>
</g>
</g>
<!-- dir_d6b0d4f987b95c78b3cfcc31952546fc&#45;&gt;dir_fbb29e8cafd745cbb7106b56de6b5377 -->
<g id="edge2" class="edge">
<title>dir_d6b0d4f987b95c78b3cfcc31952546fc&#45;&gt;dir_fbb29e8cafd745cbb7106b56de6b5377</title>
<path fill="none" stroke="black" d="M196.39,-215.7C200.76,-207.64 206.06,-197.89 210.9,-188.98"/>
<polygon fill="black" stroke="black" points="214.02,-190.56 215.71,-180.1 207.87,-187.22 214.02,-190.56"/>
<g id="a_edge2&#45;headlabel"><a xlink:href="dir_000018_000043.html" target="_top" xlink:title="1">
<text text-anchor="middle" x="214.8" y="-192.58" font-family="Helvetica,sans-Serif" font-size="10.00">1</text>
</a>
</g>
</g>
<!-- dir_1641b1a8130cba42fb335c906a98b602&#45;&gt;dir_1ab896b3fe9bd3d95640c42fe839f29d -->
<g id="edge5" class="edge">
<title>dir_1641b1a8130cba42fb335c906a98b602&#45;&gt;dir_1ab896b3fe9bd3d95640c42fe839f29d</title>
<path fill="none" stroke="black" d="M169.2,-287.7C160.4,-279.14 149.62,-268.66 140,-259.3"/>
<polygon fill="black" stroke="black" points="142.2,-256.57 132.59,-252.1 137.32,-261.58 142.2,-256.57"/>
<g id="a_edge5&#45;headlabel"><a xlink:href="dir_000017_000020.html" target="_top" xlink:title="1">
<text text-anchor="middle" x="146.76" y="-254.54" font-family="Helvetica,sans-Serif" font-size="10.00">1</text>
</a>
</g>
</g>
<!-- dir_1641b1a8130cba42fb335c906a98b602&#45;&gt;dir_8708ba3a724eae4ad101a20e39d5924d -->
<g id="edge7" class="edge">
<title>dir_1641b1a8130cba42fb335c906a98b602&#45;&gt;dir_8708ba3a724eae4ad101a20e39d5924d</title>
<path fill="none" stroke="black" d="M159.78,-294.22C136.95,-283.98 104.34,-268.32 79.32,-255.68"/>
<polygon fill="black" stroke="black" points="80.64,-252.42 70.14,-251 77.46,-258.66 80.64,-252.42"/>
<g id="a_edge7&#45;headlabel"><a xlink:href="dir_000017_000016.html" target="_top" xlink:title="1">
<text text-anchor="middle" x="85.13" y="-249.03" font-family="Helvetica,sans-Serif" font-size="10.00">1</text>
</a>
</g>
</g>
<!-- dir_1641b1a8130cba42fb335c906a98b602&#45;&gt;dir_d6b0d4f987b95c78b3cfcc31952546fc -->
<g id="edge9" class="edge">
<title>dir_1641b1a8130cba42fb335c906a98b602&#45;&gt;dir_d6b0d4f987b95c78b3cfcc31952546fc</title>
<path fill="none" stroke="black" d="M187,-287.7C187,-279.98 187,-270.71 187,-262.11"/>
<polygon fill="black" stroke="black" points="190.5,-262.1 187,-252.1 183.5,-262.1 190.5,-262.1"/>
<g id="a_edge9&#45;headlabel"><a xlink:href="dir_000017_000018.html" target="_top" xlink:title="1">
<text text-anchor="middle" x="193.34" y="-263.2" font-family="Helvetica,sans-Serif" font-size="10.00">1</text>
</a>
</g>
</g>
<!-- dir_1641b1a8130cba42fb335c906a98b602&#45;&gt;dir_4f0979a7f5e3194619cde56505e372d8 -->
<g id="edge6" class="edge">
<title>dir_1641b1a8130cba42fb335c906a98b602&#45;&gt;dir_4f0979a7f5e3194619cde56505e372d8</title>
<path fill="none" stroke="black" d="M207.96,-287.98C218.58,-278.4 230.9,-265.63 239,-252 256.09,-223.24 256.06,-213.09 261,-180 263.36,-164.18 265.8,-159.26 261,-144 257.9,-134.15 252.25,-124.53 246.28,-116.25"/>
<polygon fill="black" stroke="black" points="248.91,-113.94 240.04,-108.15 243.37,-118.21 248.91,-113.94"/>
<g id="a_edge6&#45;headlabel"><a xlink:href="dir_000017_000045.html" target="_top" xlink:title="2">
<text text-anchor="middle" x="253.36" y="-112.55" font-family="Helvetica,sans-Serif" font-size="10.00">2</text>
</a>
</g>
</g>
<!-- dir_1641b1a8130cba42fb335c906a98b602&#45;&gt;dir_b778c3f297ab88300258a2935792c8cc -->
<g id="edge8" class="edge">
<title>dir_1641b1a8130cba42fb335c906a98b602&#45;&gt;dir_b778c3f297ab88300258a2935792c8cc</title>
<path fill="none" stroke="black" d="M214.25,-292.04C230.3,-283.02 249.62,-269.48 261,-252 278.84,-224.61 272.65,-212.51 276,-180 280.92,-132.25 298.71,-114.29 276,-72 266.71,-54.7 249.01,-42.1 232.62,-33.53"/>
<polygon fill="black" stroke="black" points="233.72,-30.17 223.2,-28.95 230.66,-36.47 233.72,-30.17"/>
<g id="a_edge8&#45;headlabel"><a xlink:href="dir_000017_000025.html" target="_top" xlink:title="9">
<text text-anchor="middle" x="238.2" y="-26.69" font-family="Helvetica,sans-Serif" font-size="10.00">9</text>
</a>
</g>
</g>
<!-- dir_1641b1a8130cba42fb335c906a98b602&#45;&gt;dir_fbb29e8cafd745cbb7106b56de6b5377 -->
<g id="edge10" class="edge">
<title>dir_1641b1a8130cba42fb335c906a98b602&#45;&gt;dir_fbb29e8cafd745cbb7106b56de6b5377</title>
<path fill="none" stroke="black" d="M202.49,-287.74C210.22,-277.98 218.8,-265.14 223,-252 229.39,-232.04 229.57,-208.25 228.33,-190.29"/>
<polygon fill="black" stroke="black" points="231.8,-189.86 227.44,-180.2 224.83,-190.47 231.8,-189.86"/>
<g id="a_edge10&#45;headlabel"><a xlink:href="dir_000017_000043.html" target="_top" xlink:title="1">
<text text-anchor="middle" x="234.94" y="-190.69" font-family="Helvetica,sans-Serif" font-size="10.00">1</text>
</a>
</g>
</g>
<!-- dir_4f0979a7f5e3194619cde56505e372d8&#45;&gt;dir_b778c3f297ab88300258a2935792c8cc -->
<g id="edge15" class="edge">
<title>dir_4f0979a7f5e3194619cde56505e372d8&#45;&gt;dir_b778c3f297ab88300258a2935792c8cc</title>
<path fill="none" stroke="black" d="M217.08,-71.7C213.93,-63.81 210.12,-54.3 206.62,-45.55"/>
<polygon fill="black" stroke="black" points="209.81,-44.09 202.84,-36.1 203.31,-46.69 209.81,-44.09"/>
<g id="a_edge15&#45;headlabel"><a xlink:href="dir_000045_000025.html" target="_top" xlink:title="263">
<text text-anchor="middle" x="213.78" y="-43.87" font-family="Helvetica,sans-Serif" font-size="10.00">263</text>
</a>
</g>
</g>
<!-- dir_fbb29e8cafd745cbb7106b56de6b5377&#45;&gt;dir_4f0979a7f5e3194619cde56505e372d8 -->
<g id="edge11" class="edge">
<title>dir_fbb29e8cafd745cbb7106b56de6b5377&#45;&gt;dir_4f0979a7f5e3194619cde56505e372d8</title>
<path fill="none" stroke="black" d="M224.75,-143.7C224.64,-135.98 224.51,-126.71 224.39,-118.11"/>
<polygon fill="black" stroke="black" points="227.89,-118.05 224.24,-108.1 220.89,-118.15 227.89,-118.05"/>
<g id="a_edge11&#45;headlabel"><a xlink:href="dir_000043_000045.html" target="_top" xlink:title="2">
<text text-anchor="middle" x="230.78" y="-119.11" font-family="Helvetica,sans-Serif" font-size="10.00">2</text>
</a>
</g>
</g>
<!-- dir_fbb29e8cafd745cbb7106b56de6b5377&#45;&gt;dir_b778c3f297ab88300258a2935792c8cc -->
<g id="edge12" class="edge">
<title>dir_fbb29e8cafd745cbb7106b56de6b5377&#45;&gt;dir_b778c3f297ab88300258a2935792c8cc</title>
<path fill="none" stroke="black" d="M240.68,-143.68C255.09,-125.55 272.58,-96.39 261,-72 254.67,-58.66 243.15,-47.58 231.56,-39.05"/>
<polygon fill="black" stroke="black" points="233.4,-36.07 223.17,-33.3 229.44,-41.84 233.4,-36.07"/>
<g id="a_edge12&#45;headlabel"><a xlink:href="dir_000043_000025.html" target="_top" xlink:title="18">
<text text-anchor="middle" x="237.97" y="-33.26" font-family="Helvetica,sans-Serif" font-size="10.00">18</text>
</a>
</g>
</g>
</g>
</svg>
