<?xml version="1.0" encoding="UTF-8" standalone="no"?>
<!DOCTYPE svg PUBLIC "-//W3C//DTD SVG 1.1//EN"
 "http://www.w3.org/Graphics/SVG/1.1/DTD/svg11.dtd">
<!-- Generated by graphviz version 2.44.0 ()
 -->
<!-- Title: include/f_ap/f_ap_game.h Pages: 1 -->
<svg width="210pt" height="196pt"
 viewBox="0.00 0.00 209.50 196.00" xmlns="http://www.w3.org/2000/svg" xmlns:xlink="http://www.w3.org/1999/xlink">
<g id="graph0" class="graph" transform="scale(1 1) rotate(0) translate(4 192)">
<title>include/f_ap/f_ap_game.h</title>
<polygon fill="white" stroke="transparent" points="-4,4 -4,-192 205.5,-192 205.5,4 -4,4"/>
<!-- Node1 -->
<g id="node1" class="node">
<title>Node1</title>
<g id="a_node1"><a xlink:title=" ">
<polygon fill="#bfbfbf" stroke="black" points="73.5,-168.5 73.5,-187.5 201.5,-187.5 201.5,-168.5 73.5,-168.5"/>
<text text-anchor="middle" x="137.5" y="-175.5" font-family="Helvetica,sans-Serif" font-size="10.00">include/f_ap/f_ap_game.h</text>
</a>
</g>
</g>
<!-- Node2 -->
<g id="node2" class="node">
<title>Node2</title>
<g id="a_node2"><a xlink:href="TColor_8h.html" target="_top" xlink:title=" ">
<polygon fill="white" stroke="black" points="28,-112.5 28,-131.5 155,-131.5 155,-112.5 28,-112.5"/>
<text text-anchor="middle" x="91.5" y="-119.5" font-family="Helvetica,sans-Serif" font-size="10.00">JSystem/JUtility/TColor.h</text>
</a>
</g>
</g>
<!-- Node1&#45;&gt;Node2 -->
<g id="edge1" class="edge">
<title>Node1&#45;&gt;Node2</title>
<path fill="none" stroke="midnightblue" d="M129.9,-168.08C123.27,-160.3 113.48,-148.8 105.44,-139.37"/>
<polygon fill="midnightblue" stroke="midnightblue" points="108.1,-137.09 98.95,-131.75 102.77,-141.63 108.1,-137.09"/>
</g>
<!-- Node4 -->
<g id="node4" class="node">
<title>Node4</title>
<g id="a_node4"><a xlink:href="types_8h.html" target="_top" xlink:title=" ">
<polygon fill="white" stroke="black" points="105,-0.5 105,-19.5 186,-19.5 186,-0.5 105,-0.5"/>
<text text-anchor="middle" x="145.5" y="-7.5" font-family="Helvetica,sans-Serif" font-size="10.00">dolphin/types.h</text>
</a>
</g>
</g>
<!-- Node1&#45;&gt;Node4 -->
<g id="edge5" class="edge">
<title>Node1&#45;&gt;Node4</title>
<path fill="none" stroke="midnightblue" d="M144.39,-168.32C150.77,-159.68 159.81,-145.77 163.5,-132 173.09,-96.24 161.27,-53.08 152.76,-29.18"/>
<polygon fill="midnightblue" stroke="midnightblue" points="155.97,-27.77 149.17,-19.65 149.42,-30.24 155.97,-27.77"/>
</g>
<!-- Node3 -->
<g id="node3" class="node">
<title>Node3</title>
<g id="a_node3"><a xlink:href="GXTexture_8h.html" target="_top" xlink:title=" ">
<polygon fill="white" stroke="black" points="0,-56.5 0,-75.5 117,-75.5 117,-56.5 0,-56.5"/>
<text text-anchor="middle" x="58.5" y="-63.5" font-family="Helvetica,sans-Serif" font-size="10.00">dolphin/gx/GXTexture.h</text>
</a>
</g>
</g>
<!-- Node2&#45;&gt;Node3 -->
<g id="edge2" class="edge">
<title>Node2&#45;&gt;Node3</title>
<path fill="none" stroke="midnightblue" d="M86.05,-112.08C81.49,-104.61 74.83,-93.72 69.21,-84.52"/>
<polygon fill="midnightblue" stroke="midnightblue" points="72.05,-82.46 63.85,-75.75 66.08,-86.11 72.05,-82.46"/>
</g>
<!-- Node2&#45;&gt;Node4 -->
<g id="edge4" class="edge">
<title>Node2&#45;&gt;Node4</title>
<path fill="none" stroke="midnightblue" d="M99.54,-112.32C107.16,-103.69 118.46,-89.77 125.5,-76 133.06,-61.22 138.35,-43.06 141.58,-29.7"/>
<polygon fill="midnightblue" stroke="midnightblue" points="145.03,-30.31 143.82,-19.78 138.2,-28.77 145.03,-30.31"/>
</g>
<!-- Node3&#45;&gt;Node4 -->
<g id="edge3" class="edge">
<title>Node3&#45;&gt;Node4</title>
<path fill="none" stroke="midnightblue" d="M72.48,-56.32C86.05,-47.9 106.88,-34.97 122.82,-25.07"/>
<polygon fill="midnightblue" stroke="midnightblue" points="124.91,-27.9 131.56,-19.65 121.21,-21.95 124.91,-27.9"/>
</g>
</g>
</svg>
