<?xml version="1.0" encoding="UTF-8" standalone="no"?>
<!DOCTYPE svg PUBLIC "-//W3C//DTD SVG 1.1//EN"
 "http://www.w3.org/Graphics/SVG/1.1/DTD/svg11.dtd">
<!-- Generated by graphviz version 2.44.0 ()
 -->
<!-- Title: include/f_op/f_op_actor_mng.h Pages: 1 -->
<svg width="1381pt" height="609pt"
 viewBox="0.00 0.00 1380.50 609.00" xmlns="http://www.w3.org/2000/svg" xmlns:xlink="http://www.w3.org/1999/xlink">
<g id="graph0" class="graph" transform="scale(1 1) rotate(0) translate(4 605)">
<title>include/f_op/f_op_actor_mng.h</title>
<polygon fill="white" stroke="transparent" points="-4,4 -4,-605 1376.5,-605 1376.5,4 -4,4"/>
<!-- Node1 -->
<g id="node1" class="node">
<title>Node1</title>
<g id="a_node1"><a xlink:title=" ">
<polygon fill="#bfbfbf" stroke="black" points="712,-570.5 712,-600.5 830,-600.5 830,-570.5 712,-570.5"/>
<text text-anchor="start" x="720" y="-588.5" font-family="Helvetica,sans-Serif" font-size="10.00">include/f_op/f_op_actor</text>
<text text-anchor="middle" x="771" y="-577.5" font-family="Helvetica,sans-Serif" font-size="10.00">_mng.h</text>
</a>
</g>
</g>
<!-- Node2 -->
<g id="node2" class="node">
<title>Node2</title>
<g id="a_node2"><a xlink:href="d__a__player_8cpp.html" target="_top" xlink:title=" ">
<polygon fill="white" stroke="black" points="323,-386 323,-405 437,-405 437,-386 323,-386"/>
<text text-anchor="middle" x="380" y="-393" font-family="Helvetica,sans-Serif" font-size="10.00">src/d/a/d_a_player.cpp</text>
</a>
</g>
</g>
<!-- Node1&#45;&gt;Node2 -->
<g id="edge1" class="edge">
<title>Node1&#45;&gt;Node2</title>
<path fill="none" stroke="midnightblue" d="M701.89,-575.74C629.9,-563.78 516.7,-536.67 437,-478 410.02,-458.14 391.2,-421.58 383.66,-405.03"/>
<polygon fill="midnightblue" stroke="midnightblue" points="701.34,-579.2 711.77,-577.33 702.45,-572.29 701.34,-579.2"/>
</g>
<!-- Node3 -->
<g id="node3" class="node">
<title>Node3</title>
<g id="a_node3"><a xlink:href="d__cc__d__nonmatching_8cpp.html" target="_top" xlink:title=" ">
<polygon fill="white" stroke="black" points="1207.5,-514.5 1207.5,-533.5 1372.5,-533.5 1372.5,-514.5 1207.5,-514.5"/>
<text text-anchor="middle" x="1290" y="-521.5" font-family="Helvetica,sans-Serif" font-size="10.00">src/d/cc/d_cc_d_nonmatching.cpp</text>
</a>
</g>
</g>
<!-- Node1&#45;&gt;Node3 -->
<g id="edge2" class="edge">
<title>Node1&#45;&gt;Node3</title>
<path fill="none" stroke="midnightblue" d="M840.08,-576.58C937.67,-565.39 1115.16,-545.04 1215.57,-533.53"/>
<polygon fill="midnightblue" stroke="midnightblue" points="839.57,-573.12 830.03,-577.73 840.36,-580.07 839.57,-573.12"/>
</g>
<!-- Node4 -->
<g id="node4" class="node">
<title>Node4</title>
<g id="a_node4"><a xlink:href="d__bomb_8cpp.html" target="_top" xlink:title=" ">
<polygon fill="white" stroke="black" points="37,-252 37,-271 131,-271 131,-252 37,-252"/>
<text text-anchor="middle" x="84" y="-259" font-family="Helvetica,sans-Serif" font-size="10.00">src/d/d_bomb.cpp</text>
</a>
</g>
</g>
<!-- Node1&#45;&gt;Node4 -->
<g id="edge3" class="edge">
<title>Node1&#45;&gt;Node4</title>
<path fill="none" stroke="midnightblue" d="M701.92,-580.31C519.35,-568.33 38,-530.39 38,-463.5 38,-463.5 38,-463.5 38,-394.5 38,-357.31 43.9,-347.81 57,-313 62.81,-297.55 72.44,-280.91 78.49,-271.11"/>
<polygon fill="midnightblue" stroke="midnightblue" points="701.74,-583.81 711.95,-580.96 702.19,-576.82 701.74,-583.81"/>
</g>
<!-- Node5 -->
<g id="node5" class="node">
<title>Node5</title>
<g id="a_node5"><a xlink:href="d__a__alink_8cpp.html" target="_top" xlink:title=" ">
<polygon fill="white" stroke="black" points="458.5,-67.5 458.5,-86.5 567.5,-86.5 567.5,-67.5 458.5,-67.5"/>
<text text-anchor="middle" x="513" y="-74.5" font-family="Helvetica,sans-Serif" font-size="10.00">src/d/a/d_a_alink.cpp</text>
</a>
</g>
</g>
<!-- Node1&#45;&gt;Node5 -->
<g id="edge4" class="edge">
<title>Node1&#45;&gt;Node5</title>
<path fill="none" stroke="midnightblue" d="M701.73,-582.28C560.71,-577.22 244.89,-562.96 141,-534 73.51,-515.19 0,-533.56 0,-463.5 0,-463.5 0,-463.5 0,-199 0,-105.66 325.76,-84.25 458.1,-79.4"/>
<polygon fill="midnightblue" stroke="midnightblue" points="701.86,-585.79 711.98,-582.64 702.11,-578.79 701.86,-585.79"/>
</g>
<!-- Node6 -->
<g id="node6" class="node">
<title>Node6</title>
<g id="a_node6"><a xlink:href="d__event_8cpp.html" target="_top" xlink:title=" ">
<polygon fill="white" stroke="black" points="870.5,-67.5 870.5,-86.5 991.5,-86.5 991.5,-67.5 870.5,-67.5"/>
<text text-anchor="middle" x="931" y="-74.5" font-family="Helvetica,sans-Serif" font-size="10.00">src/d/event/d_event.cpp</text>
</a>
</g>
</g>
<!-- Node1&#45;&gt;Node6 -->
<g id="edge5" class="edge">
<title>Node1&#45;&gt;Node6</title>
<path fill="none" stroke="midnightblue" d="M840.58,-578.28C957.08,-565.93 1179,-533.25 1179,-463.5 1179,-463.5 1179,-463.5 1179,-199 1179,-115.88 1065.09,-89.85 991.67,-81.7"/>
<polygon fill="midnightblue" stroke="midnightblue" points="839.91,-574.83 830.33,-579.35 840.63,-581.8 839.91,-574.83"/>
</g>
<!-- Node7 -->
<g id="node7" class="node">
<title>Node7</title>
<g id="a_node7"><a xlink:href="f__op__actor__mng_8cpp.html" target="_top" xlink:title=" ">
<polygon fill="white" stroke="black" points="1049.5,-447.5 1049.5,-477.5 1150.5,-477.5 1150.5,-447.5 1049.5,-447.5"/>
<text text-anchor="start" x="1057.5" y="-465.5" font-family="Helvetica,sans-Serif" font-size="10.00">src/f_op/f_op_actor</text>
<text text-anchor="middle" x="1100" y="-454.5" font-family="Helvetica,sans-Serif" font-size="10.00">_mng.cpp</text>
</a>
</g>
</g>
<!-- Node1&#45;&gt;Node7 -->
<g id="edge6" class="edge">
<title>Node1&#45;&gt;Node7</title>
<path fill="none" stroke="midnightblue" d="M819.1,-566.81C884.92,-542.6 1001.71,-499.65 1061.86,-477.53"/>
<polygon fill="midnightblue" stroke="midnightblue" points="817.56,-563.65 809.38,-570.38 819.98,-570.22 817.56,-563.65"/>
</g>
<!-- Node8 -->
<g id="node8" class="node">
<title>Node8</title>
<g id="a_node8"><a xlink:href="d__stage_8h.html" target="_top" xlink:title=" ">
<polygon fill="white" stroke="black" points="720.5,-514.5 720.5,-533.5 821.5,-533.5 821.5,-514.5 720.5,-514.5"/>
<text text-anchor="middle" x="771" y="-521.5" font-family="Helvetica,sans-Serif" font-size="10.00">include/d/d_stage.h</text>
</a>
</g>
</g>
<!-- Node1&#45;&gt;Node8 -->
<g id="edge7" class="edge">
<title>Node1&#45;&gt;Node8</title>
<path fill="none" stroke="midnightblue" d="M771,-560.29C771,-550.86 771,-540.65 771,-533.66"/>
<polygon fill="midnightblue" stroke="midnightblue" points="767.5,-560.4 771,-570.4 774.5,-560.4 767.5,-560.4"/>
</g>
<!-- Node8&#45;&gt;Node7 -->
<g id="edge10" class="edge">
<title>Node8&#45;&gt;Node7</title>
<path fill="none" stroke="midnightblue" d="M831.99,-514.07C886.66,-505.76 968.96,-492.51 1040,-478 1043.04,-477.38 1046.17,-476.71 1049.32,-476.02"/>
<polygon fill="midnightblue" stroke="midnightblue" points="831.13,-510.66 821.77,-515.61 832.18,-517.58 831.13,-510.66"/>
</g>
<!-- Node9 -->
<g id="node9" class="node">
<title>Node9</title>
<g id="a_node9"><a xlink:href="d__stage_8cpp.html" target="_top" xlink:title=" ">
<polygon fill="white" stroke="black" points="937,-453 937,-472 1031,-472 1031,-453 937,-453"/>
<text text-anchor="middle" x="984" y="-460" font-family="Helvetica,sans-Serif" font-size="10.00">src/d/d_stage.cpp</text>
</a>
</g>
</g>
<!-- Node8&#45;&gt;Node9 -->
<g id="edge8" class="edge">
<title>Node8&#45;&gt;Node9</title>
<path fill="none" stroke="midnightblue" d="M811.28,-511.75C852.66,-500.19 916.16,-482.45 953.54,-472.01"/>
<polygon fill="midnightblue" stroke="midnightblue" points="810.21,-508.41 801.52,-514.48 812.09,-515.16 810.21,-508.41"/>
</g>
<!-- Node10 -->
<g id="node10" class="node">
<title>Node10</title>
<g id="a_node10"><a xlink:href="f__op__actor_8cpp.html" target="_top" xlink:title=" ">
<polygon fill="white" stroke="black" points="585.5,-453 585.5,-472 704.5,-472 704.5,-453 585.5,-453"/>
<text text-anchor="middle" x="645" y="-460" font-family="Helvetica,sans-Serif" font-size="10.00">src/f_op/f_op_actor.cpp</text>
</a>
</g>
</g>
<!-- Node8&#45;&gt;Node10 -->
<g id="edge9" class="edge">
<title>Node8&#45;&gt;Node10</title>
<path fill="none" stroke="midnightblue" d="M743.84,-510.17C719.39,-498.63 684.15,-481.99 663.02,-472.01"/>
<polygon fill="midnightblue" stroke="midnightblue" points="742.41,-513.37 752.95,-514.48 745.4,-507.04 742.41,-513.37"/>
</g>
<!-- Node11 -->
<g id="node11" class="node">
<title>Node11</title>
<g id="a_node11"><a xlink:href="d__a__player_8h.html" target="_top" xlink:title=" ">
<polygon fill="white" stroke="black" points="446.5,-453 446.5,-472 567.5,-472 567.5,-453 446.5,-453"/>
<text text-anchor="middle" x="507" y="-460" font-family="Helvetica,sans-Serif" font-size="10.00">include/d/a/d_a_player.h</text>
</a>
</g>
</g>
<!-- Node8&#45;&gt;Node11 -->
<g id="edge11" class="edge">
<title>Node8&#45;&gt;Node11</title>
<path fill="none" stroke="midnightblue" d="M723.34,-512.26C672.13,-500.72 591.77,-482.61 544.75,-472.01"/>
<polygon fill="midnightblue" stroke="midnightblue" points="722.65,-515.69 733.18,-514.48 724.19,-508.86 722.65,-515.69"/>
</g>
<!-- Node13 -->
<g id="node13" class="node">
<title>Node13</title>
<g id="a_node13"><a xlink:href="d__com__inf__game_8h.html" target="_top" xlink:title=" ">
<polygon fill="white" stroke="black" points="617,-123.5 617,-153.5 727,-153.5 727,-123.5 617,-123.5"/>
<text text-anchor="start" x="625" y="-141.5" font-family="Helvetica,sans-Serif" font-size="10.00">include/d/com/d_com</text>
<text text-anchor="middle" x="672" y="-130.5" font-family="Helvetica,sans-Serif" font-size="10.00">_inf_game.h</text>
</a>
</g>
</g>
<!-- Node8&#45;&gt;Node13 -->
<g id="edge43" class="edge">
<title>Node8&#45;&gt;Node13</title>
<path fill="none" stroke="midnightblue" d="M767.17,-504.68C760.64,-472.4 747.6,-403.19 743,-344 741.93,-330.26 742.24,-326.76 743,-313 746.02,-258.4 771.97,-238.12 746,-190 737.28,-173.85 720.88,-161.86 705.73,-153.62"/>
<polygon fill="midnightblue" stroke="midnightblue" points="763.74,-505.39 769.19,-514.49 770.6,-503.99 763.74,-505.39"/>
</g>
<!-- Node29 -->
<g id="node29" class="node">
<title>Node29</title>
<g id="a_node29"><a xlink:href="d__event_8h.html" target="_top" xlink:title=" ">
<polygon fill="white" stroke="black" points="752,-319 752,-338 880,-338 880,-319 752,-319"/>
<text text-anchor="middle" x="816" y="-326" font-family="Helvetica,sans-Serif" font-size="10.00">include/d/event/d_event.h</text>
</a>
</g>
</g>
<!-- Node8&#45;&gt;Node29 -->
<g id="edge44" class="edge">
<title>Node8&#45;&gt;Node29</title>
<path fill="none" stroke="midnightblue" d="M775.29,-504.55C784.74,-463.94 807.03,-368.07 813.93,-338.41"/>
<polygon fill="midnightblue" stroke="midnightblue" points="771.85,-503.9 772.99,-514.44 778.67,-505.49 771.85,-503.9"/>
</g>
<!-- Node30 -->
<g id="node30" class="node">
<title>Node30</title>
<g id="a_node30"><a xlink:href="d__event__data_8h.html" target="_top" xlink:title=" ">
<polygon fill="white" stroke="black" points="799,-447.5 799,-477.5 919,-477.5 919,-447.5 799,-447.5"/>
<text text-anchor="start" x="807" y="-465.5" font-family="Helvetica,sans-Serif" font-size="10.00">include/d/event/d_event</text>
<text text-anchor="middle" x="859" y="-454.5" font-family="Helvetica,sans-Serif" font-size="10.00">_data.h</text>
</a>
</g>
</g>
<!-- Node8&#45;&gt;Node30 -->
<g id="edge45" class="edge">
<title>Node8&#45;&gt;Node30</title>
<path fill="none" stroke="midnightblue" d="M792.09,-508.74C806.08,-499.28 824.35,-486.93 838.26,-477.52"/>
<polygon fill="midnightblue" stroke="midnightblue" points="789.93,-505.97 783.61,-514.48 793.85,-511.77 789.93,-505.97"/>
</g>
<!-- Node11&#45;&gt;Node2 -->
<g id="edge12" class="edge">
<title>Node11&#45;&gt;Node2</title>
<path fill="none" stroke="midnightblue" d="M481.16,-448.27C456,-435.4 418.51,-416.21 396.93,-405.17"/>
<polygon fill="midnightblue" stroke="midnightblue" points="479.64,-451.43 490.14,-452.87 482.83,-445.2 479.64,-451.43"/>
</g>
<!-- Node12 -->
<g id="node12" class="node">
<title>Node12</title>
<g id="a_node12"><a xlink:href="d__a__alink_8h.html" target="_top" xlink:title=" ">
<polygon fill="white" stroke="black" points="455,-190.5 455,-209.5 571,-209.5 571,-190.5 455,-190.5"/>
<text text-anchor="middle" x="513" y="-197.5" font-family="Helvetica,sans-Serif" font-size="10.00">include/d/a/d_a_alink.h</text>
</a>
</g>
</g>
<!-- Node11&#45;&gt;Node12 -->
<g id="edge13" class="edge">
<title>Node11&#45;&gt;Node12</title>
<path fill="none" stroke="midnightblue" d="M531.48,-447.53C544.51,-438.77 559.55,-426.24 568,-411 582.57,-384.73 575,-373.98 577,-344 579.91,-300.54 597.07,-284.65 577,-246 568.11,-228.88 549.39,-216.91 534.48,-209.64"/>
<polygon fill="midnightblue" stroke="midnightblue" points="529.46,-444.67 522.89,-452.99 533.21,-450.58 529.46,-444.67"/>
</g>
<!-- Node18 -->
<g id="node18" class="node">
<title>Node18</title>
<g id="a_node18"><a xlink:href="d__bg__s__acch_8h.html" target="_top" xlink:title=" ">
<polygon fill="white" stroke="black" points="455,-380.5 455,-410.5 559,-410.5 559,-380.5 455,-380.5"/>
<text text-anchor="start" x="463" y="-398.5" font-family="Helvetica,sans-Serif" font-size="10.00">include/d/bg/d_bg_s</text>
<text text-anchor="middle" x="507" y="-387.5" font-family="Helvetica,sans-Serif" font-size="10.00">_acch.h</text>
</a>
</g>
</g>
<!-- Node11&#45;&gt;Node18 -->
<g id="edge23" class="edge">
<title>Node11&#45;&gt;Node18</title>
<path fill="none" stroke="midnightblue" d="M507,-442.41C507,-432.22 507,-419.9 507,-410.59"/>
<polygon fill="midnightblue" stroke="midnightblue" points="503.5,-442.73 507,-452.73 510.5,-442.73 503.5,-442.73"/>
</g>
<!-- Node27 -->
<g id="node27" class="node">
<title>Node27</title>
<g id="a_node27"><a xlink:href="d__attention_8h.html" target="_top" xlink:title=" ">
<polygon fill="white" stroke="black" points="624,-252 624,-271 738,-271 738,-252 624,-252"/>
<text text-anchor="middle" x="681" y="-259" font-family="Helvetica,sans-Serif" font-size="10.00">include/d/d_attention.h</text>
</a>
</g>
</g>
<!-- Node11&#45;&gt;Node27 -->
<g id="edge36" class="edge">
<title>Node11&#45;&gt;Node27</title>
<path fill="none" stroke="midnightblue" d="M546.03,-449.46C567.1,-441.35 592.34,-428.84 610,-411 652.22,-368.36 672.95,-295.75 679.04,-271.03"/>
<polygon fill="midnightblue" stroke="midnightblue" points="544.57,-446.27 536.38,-452.99 546.97,-452.84 544.57,-446.27"/>
</g>
<!-- Node11&#45;&gt;Node29 -->
<g id="edge40" class="edge">
<title>Node11&#45;&gt;Node29</title>
<path fill="none" stroke="midnightblue" d="M550.77,-450.32C583.63,-441.32 629.43,-427.48 668,-411 719.79,-388.88 777.15,-354.1 802.59,-338.09"/>
<polygon fill="midnightblue" stroke="midnightblue" points="549.75,-446.97 541,-452.96 551.57,-453.73 549.75,-446.97"/>
</g>
<!-- Node12&#45;&gt;Node5 -->
<g id="edge14" class="edge">
<title>Node12&#45;&gt;Node5</title>
<path fill="none" stroke="midnightblue" d="M513,-179.99C513,-153.35 513,-106 513,-86.62"/>
<polygon fill="midnightblue" stroke="midnightblue" points="509.5,-180.3 513,-190.3 516.5,-180.3 509.5,-180.3"/>
</g>
<!-- Node12&#45;&gt;Node13 -->
<g id="edge15" class="edge">
<title>Node12&#45;&gt;Node13</title>
<path fill="none" stroke="midnightblue" d="M545.47,-186.85C571.3,-177.18 607.47,-163.65 634.53,-153.52"/>
<polygon fill="midnightblue" stroke="midnightblue" points="543.92,-183.69 535.78,-190.48 546.37,-190.25 543.92,-183.69"/>
</g>
<!-- Node13&#45;&gt;Node5 -->
<g id="edge17" class="edge">
<title>Node13&#45;&gt;Node5</title>
<path fill="none" stroke="midnightblue" d="M624.7,-119.8C595.47,-108.86 559.26,-95.31 536.14,-86.66"/>
<polygon fill="midnightblue" stroke="midnightblue" points="623.73,-123.17 634.32,-123.4 626.18,-116.62 623.73,-123.17"/>
</g>
<!-- Node13&#45;&gt;Node6 -->
<g id="edge18" class="edge">
<title>Node13&#45;&gt;Node6</title>
<path fill="none" stroke="midnightblue" d="M737.22,-122.52C786.71,-111.15 852.98,-95.92 893.8,-86.55"/>
<polygon fill="midnightblue" stroke="midnightblue" points="736.21,-119.16 727.24,-124.81 737.77,-125.98 736.21,-119.16"/>
</g>
<!-- Node14 -->
<g id="node14" class="node">
<title>Node14</title>
<g id="a_node14"><a xlink:href="d__com__inf__game_8cpp.html" target="_top" xlink:title=" ">
<polygon fill="white" stroke="black" points="542,-0.5 542,-30.5 650,-30.5 650,-0.5 542,-0.5"/>
<text text-anchor="start" x="550" y="-18.5" font-family="Helvetica,sans-Serif" font-size="10.00">src/d/com/d_com_inf</text>
<text text-anchor="middle" x="596" y="-7.5" font-family="Helvetica,sans-Serif" font-size="10.00">_game.cpp</text>
</a>
</g>
</g>
<!-- Node13&#45;&gt;Node14 -->
<g id="edge16" class="edge">
<title>Node13&#45;&gt;Node14</title>
<path fill="none" stroke="midnightblue" d="M642.82,-117.25C632.71,-108.93 622.14,-98.53 615,-87 604.12,-69.43 599.39,-45.66 597.39,-30.7"/>
<polygon fill="midnightblue" stroke="midnightblue" points="640.71,-120.05 650.74,-123.46 645.03,-114.54 640.71,-120.05"/>
</g>
<!-- Node15 -->
<g id="node15" class="node">
<title>Node15</title>
<g id="a_node15"><a xlink:href="d__save_8cpp.html" target="_top" xlink:title=" ">
<polygon fill="white" stroke="black" points="737.5,-67.5 737.5,-86.5 852.5,-86.5 852.5,-67.5 737.5,-67.5"/>
<text text-anchor="middle" x="795" y="-74.5" font-family="Helvetica,sans-Serif" font-size="10.00">src/d/save/d_save.cpp</text>
</a>
</g>
</g>
<!-- Node13&#45;&gt;Node15 -->
<g id="edge19" class="edge">
<title>Node13&#45;&gt;Node15</title>
<path fill="none" stroke="midnightblue" d="M710.37,-118.94C732.65,-108.16 759.68,-95.08 777.1,-86.66"/>
<polygon fill="midnightblue" stroke="midnightblue" points="708.63,-115.89 701.15,-123.4 711.68,-122.2 708.63,-115.89"/>
</g>
<!-- Node16 -->
<g id="node16" class="node">
<title>Node16</title>
<g id="a_node16"><a xlink:href="d__item_8h.html" target="_top" xlink:title=" ">
<polygon fill="white" stroke="black" points="624.5,-67.5 624.5,-86.5 719.5,-86.5 719.5,-67.5 624.5,-67.5"/>
<text text-anchor="middle" x="672" y="-74.5" font-family="Helvetica,sans-Serif" font-size="10.00">include/d/d_item.h</text>
</a>
</g>
</g>
<!-- Node13&#45;&gt;Node16 -->
<g id="edge20" class="edge">
<title>Node13&#45;&gt;Node16</title>
<path fill="none" stroke="midnightblue" d="M672,-113.29C672,-103.86 672,-93.65 672,-86.66"/>
<polygon fill="midnightblue" stroke="midnightblue" points="668.5,-113.4 672,-123.4 675.5,-113.4 668.5,-113.4"/>
</g>
<!-- Node16&#45;&gt;Node14 -->
<g id="edge21" class="edge">
<title>Node16&#45;&gt;Node14</title>
<path fill="none" stroke="midnightblue" d="M653.09,-61.2C641.11,-51.81 625.7,-39.75 613.91,-30.52"/>
<polygon fill="midnightblue" stroke="midnightblue" points="651.08,-64.07 661.11,-67.48 655.39,-58.55 651.08,-64.07"/>
</g>
<!-- Node17 -->
<g id="node17" class="node">
<title>Node17</title>
<g id="a_node17"><a xlink:href="d__item_8cpp.html" target="_top" xlink:title=" ">
<polygon fill="white" stroke="black" points="668.5,-6 668.5,-25 757.5,-25 757.5,-6 668.5,-6"/>
<text text-anchor="middle" x="713" y="-13" font-family="Helvetica,sans-Serif" font-size="10.00">src/d/d_item.cpp</text>
</a>
</g>
</g>
<!-- Node16&#45;&gt;Node17 -->
<g id="edge22" class="edge">
<title>Node16&#45;&gt;Node17</title>
<path fill="none" stroke="midnightblue" d="M683.71,-59.01C691.37,-47.89 701.05,-33.84 707.14,-25.01"/>
<polygon fill="midnightblue" stroke="midnightblue" points="680.67,-57.25 677.87,-67.48 686.43,-61.23 680.67,-57.25"/>
</g>
<!-- Node19 -->
<g id="node19" class="node">
<title>Node19</title>
<g id="a_node19"><a xlink:href="d__bg__s__acch_8cpp.html" target="_top" xlink:title=" ">
<polygon fill="white" stroke="black" points="185.5,-319 185.5,-338 316.5,-338 316.5,-319 185.5,-319"/>
<text text-anchor="middle" x="251" y="-326" font-family="Helvetica,sans-Serif" font-size="10.00">src/d/bg/d_bg_s_acch.cpp</text>
</a>
</g>
</g>
<!-- Node18&#45;&gt;Node19 -->
<g id="edge24" class="edge">
<title>Node18&#45;&gt;Node19</title>
<path fill="none" stroke="midnightblue" d="M445.07,-378.77C394.65,-365.97 325.39,-348.39 284.7,-338.06"/>
<polygon fill="midnightblue" stroke="midnightblue" points="444.33,-382.2 454.89,-381.27 446.05,-375.41 444.33,-382.2"/>
</g>
<!-- Node20 -->
<g id="node20" class="node">
<title>Node20</title>
<g id="a_node20"><a xlink:href="d__bg__w_8h.html" target="_top" xlink:title=" ">
<polygon fill="white" stroke="black" points="334.5,-319 334.5,-338 447.5,-338 447.5,-319 334.5,-319"/>
<text text-anchor="middle" x="391" y="-326" font-family="Helvetica,sans-Serif" font-size="10.00">include/d/bg/d_bg_w.h</text>
</a>
</g>
</g>
<!-- Node18&#45;&gt;Node20 -->
<g id="edge25" class="edge">
<title>Node18&#45;&gt;Node20</title>
<path fill="none" stroke="midnightblue" d="M473.04,-375.47C450.9,-363.06 423.07,-347.47 406.18,-338.01"/>
<polygon fill="midnightblue" stroke="midnightblue" points="471.4,-378.56 481.83,-380.4 474.82,-372.45 471.4,-378.56"/>
</g>
<!-- Node24 -->
<g id="node24" class="node">
<title>Node24</title>
<g id="a_node24"><a xlink:href="d__bomb_8h.html" target="_top" xlink:title=" ">
<polygon fill="white" stroke="black" points="66.5,-319 66.5,-338 167.5,-338 167.5,-319 66.5,-319"/>
<text text-anchor="middle" x="117" y="-326" font-family="Helvetica,sans-Serif" font-size="10.00">include/d/d_bomb.h</text>
</a>
</g>
</g>
<!-- Node18&#45;&gt;Node24 -->
<g id="edge31" class="edge">
<title>Node18&#45;&gt;Node24</title>
<path fill="none" stroke="midnightblue" d="M444.91,-379.92C325.21,-358.4 291.82,-365.89 176,-344 167.19,-342.34 157.73,-340.18 149.01,-338.04"/>
<polygon fill="midnightblue" stroke="midnightblue" points="444.36,-383.38 454.83,-381.73 445.62,-376.49 444.36,-383.38"/>
</g>
<!-- Node25 -->
<g id="node25" class="node">
<title>Node25</title>
<g id="a_node25"><a xlink:href="d__particle__copoly_8h.html" target="_top" xlink:title=" ">
<polygon fill="white" stroke="black" points="466,-313.5 466,-343.5 568,-343.5 568,-313.5 466,-313.5"/>
<text text-anchor="start" x="474" y="-331.5" font-family="Helvetica,sans-Serif" font-size="10.00">include/d/particle</text>
<text text-anchor="middle" x="517" y="-320.5" font-family="Helvetica,sans-Serif" font-size="10.00">/d_particle_copoly.h</text>
</a>
</g>
</g>
<!-- Node18&#45;&gt;Node25 -->
<g id="edge33" class="edge">
<title>Node18&#45;&gt;Node25</title>
<path fill="none" stroke="midnightblue" d="M510.71,-370.4C512.1,-361.37 513.63,-351.41 514.83,-343.58"/>
<polygon fill="midnightblue" stroke="midnightblue" points="507.23,-369.98 509.17,-380.4 514.15,-371.04 507.23,-369.98"/>
</g>
<!-- Node21 -->
<g id="node21" class="node">
<title>Node21</title>
<g id="a_node21"><a xlink:href="d__bg__w_8cpp.html" target="_top" xlink:title=" ">
<polygon fill="white" stroke="black" points="157.5,-252 157.5,-271 264.5,-271 264.5,-252 157.5,-252"/>
<text text-anchor="middle" x="211" y="-259" font-family="Helvetica,sans-Serif" font-size="10.00">src/d/bg/d_bg_w.cpp</text>
</a>
</g>
</g>
<!-- Node20&#45;&gt;Node21 -->
<g id="edge26" class="edge">
<title>Node20&#45;&gt;Node21</title>
<path fill="none" stroke="midnightblue" d="M357.59,-315.44C321.88,-302.54 266.17,-282.42 234.71,-271.06"/>
<polygon fill="midnightblue" stroke="midnightblue" points="356.5,-318.76 367.1,-318.87 358.88,-312.18 356.5,-318.76"/>
</g>
<!-- Node22 -->
<g id="node22" class="node">
<title>Node22</title>
<g id="a_node22"><a xlink:href="d__bg__s_8h.html" target="_top" xlink:title=" ">
<polygon fill="white" stroke="black" points="282.5,-252 282.5,-271 393.5,-271 393.5,-252 282.5,-252"/>
<text text-anchor="middle" x="338" y="-259" font-family="Helvetica,sans-Serif" font-size="10.00">include/d/bg/d_bg_s.h</text>
</a>
</g>
</g>
<!-- Node20&#45;&gt;Node22 -->
<g id="edge27" class="edge">
<title>Node20&#45;&gt;Node22</title>
<path fill="none" stroke="midnightblue" d="M377.36,-310.77C367.03,-298.1 353.25,-281.2 345.03,-271.13"/>
<polygon fill="midnightblue" stroke="midnightblue" points="374.82,-313.2 383.85,-318.73 380.25,-308.77 374.82,-313.2"/>
</g>
<!-- Node22&#45;&gt;Node12 -->
<g id="edge29" class="edge">
<title>Node22&#45;&gt;Node12</title>
<path fill="none" stroke="midnightblue" d="M372.61,-248.73C406.63,-237.17 457.72,-219.8 487.97,-209.51"/>
<polygon fill="midnightblue" stroke="midnightblue" points="371.41,-245.44 363.07,-251.98 373.67,-252.07 371.41,-245.44"/>
</g>
<!-- Node22&#45;&gt;Node13 -->
<g id="edge30" class="edge">
<title>Node22&#45;&gt;Node13</title>
<path fill="none" stroke="midnightblue" d="M356.19,-245.66C376.77,-229.61 411.88,-204.39 446,-190 501.75,-166.49 570.06,-153.17 616.89,-146.18"/>
<polygon fill="midnightblue" stroke="midnightblue" points="353.96,-242.96 348.31,-251.92 358.32,-248.44 353.96,-242.96"/>
</g>
<!-- Node23 -->
<g id="node23" class="node">
<title>Node23</title>
<g id="a_node23"><a xlink:href="d__bg__s_8cpp.html" target="_top" xlink:title=" ">
<polygon fill="white" stroke="black" points="286,-190.5 286,-209.5 390,-209.5 390,-190.5 286,-190.5"/>
<text text-anchor="middle" x="338" y="-197.5" font-family="Helvetica,sans-Serif" font-size="10.00">src/d/bg/d_bg_s.cpp</text>
</a>
</g>
</g>
<!-- Node22&#45;&gt;Node23 -->
<g id="edge28" class="edge">
<title>Node22&#45;&gt;Node23</title>
<path fill="none" stroke="midnightblue" d="M338,-241.82C338,-231 338,-217.9 338,-209.51"/>
<polygon fill="midnightblue" stroke="midnightblue" points="334.5,-241.98 338,-251.98 341.5,-241.98 334.5,-241.98"/>
</g>
<!-- Node24&#45;&gt;Node4 -->
<g id="edge32" class="edge">
<title>Node24&#45;&gt;Node4</title>
<path fill="none" stroke="midnightblue" d="M107.94,-309.66C101.58,-297.13 93.35,-280.91 88.38,-271.13"/>
<polygon fill="midnightblue" stroke="midnightblue" points="104.9,-311.4 112.55,-318.73 111.14,-308.23 104.9,-311.4"/>
</g>
<!-- Node25&#45;&gt;Node12 -->
<g id="edge35" class="edge">
<title>Node25&#45;&gt;Node12</title>
<path fill="none" stroke="midnightblue" d="M473.09,-308.46C460.43,-300.65 448.12,-290.27 441,-277 434.49,-264.86 434.32,-258.05 441,-246 450.86,-228.21 471.01,-216.52 487.5,-209.53"/>
<polygon fill="midnightblue" stroke="midnightblue" points="471.44,-311.54 481.86,-313.45 474.9,-305.46 471.44,-311.54"/>
</g>
<!-- Node26 -->
<g id="node26" class="node">
<title>Node26</title>
<g id="a_node26"><a xlink:href="d__particle__copoly_8cpp.html" target="_top" xlink:title=" ">
<polygon fill="white" stroke="black" points="450,-246.5 450,-276.5 568,-276.5 568,-246.5 450,-246.5"/>
<text text-anchor="start" x="458" y="-264.5" font-family="Helvetica,sans-Serif" font-size="10.00">src/d/particle/d_particle</text>
<text text-anchor="middle" x="509" y="-253.5" font-family="Helvetica,sans-Serif" font-size="10.00">_copoly.cpp</text>
</a>
</g>
</g>
<!-- Node25&#45;&gt;Node26 -->
<g id="edge34" class="edge">
<title>Node25&#45;&gt;Node26</title>
<path fill="none" stroke="midnightblue" d="M514.03,-303.4C512.92,-294.37 511.7,-284.41 510.73,-276.58"/>
<polygon fill="midnightblue" stroke="midnightblue" points="510.57,-303.9 515.26,-313.4 517.52,-303.04 510.57,-303.9"/>
</g>
<!-- Node27&#45;&gt;Node12 -->
<g id="edge38" class="edge">
<title>Node27&#45;&gt;Node12</title>
<path fill="none" stroke="midnightblue" d="M647.35,-248.58C614.7,-237.02 565.95,-219.75 537.03,-209.51"/>
<polygon fill="midnightblue" stroke="midnightblue" points="646.33,-251.94 656.93,-251.98 648.67,-245.34 646.33,-251.94"/>
</g>
<!-- Node27&#45;&gt;Node13 -->
<g id="edge39" class="edge">
<title>Node27&#45;&gt;Node13</title>
<path fill="none" stroke="midnightblue" d="M655.63,-246.51C642.68,-237.86 628.19,-225.45 621,-210 611.06,-188.63 632.17,-167.13 650.18,-153.59"/>
<polygon fill="midnightblue" stroke="midnightblue" points="653.89,-249.56 664.23,-251.89 657.61,-243.62 653.89,-249.56"/>
</g>
<!-- Node28 -->
<g id="node28" class="node">
<title>Node28</title>
<g id="a_node28"><a xlink:href="d__attention_8cpp.html" target="_top" xlink:title=" ">
<polygon fill="white" stroke="black" points="630.5,-190.5 630.5,-209.5 737.5,-209.5 737.5,-190.5 630.5,-190.5"/>
<text text-anchor="middle" x="684" y="-197.5" font-family="Helvetica,sans-Serif" font-size="10.00">src/d/d_attention.cpp</text>
</a>
</g>
</g>
<!-- Node27&#45;&gt;Node28 -->
<g id="edge37" class="edge">
<title>Node27&#45;&gt;Node28</title>
<path fill="none" stroke="midnightblue" d="M681.94,-241.82C682.49,-231 683.15,-217.9 683.57,-209.51"/>
<polygon fill="midnightblue" stroke="midnightblue" points="678.44,-241.81 681.43,-251.98 685.43,-242.16 678.44,-241.81"/>
</g>
<!-- Node29&#45;&gt;Node6 -->
<g id="edge41" class="edge">
<title>Node29&#45;&gt;Node6</title>
<path fill="none" stroke="midnightblue" d="M824.17,-309.78C846.94,-260.37 910.57,-122.32 927.06,-86.55"/>
<polygon fill="midnightblue" stroke="midnightblue" points="820.97,-308.36 819.96,-318.91 827.32,-311.3 820.97,-308.36"/>
</g>
<!-- Node29&#45;&gt;Node13 -->
<g id="edge42" class="edge">
<title>Node29&#45;&gt;Node13</title>
<path fill="none" stroke="midnightblue" d="M815.94,-308.71C814.87,-279.93 808.88,-224.66 780,-190 765.76,-172.91 744.43,-161.26 724.48,-153.51"/>
<polygon fill="midnightblue" stroke="midnightblue" points="812.44,-309.04 816.14,-318.97 819.44,-308.9 812.44,-309.04"/>
</g>
<!-- Node31 -->
<g id="node31" class="node">
<title>Node31</title>
<g id="a_node31"><a xlink:href="d__event__data_8cpp.html" target="_top" xlink:title=" ">
<polygon fill="white" stroke="black" points="966.5,-380.5 966.5,-410.5 1069.5,-410.5 1069.5,-380.5 966.5,-380.5"/>
<text text-anchor="start" x="974.5" y="-398.5" font-family="Helvetica,sans-Serif" font-size="10.00">src/d/event/d_event</text>
<text text-anchor="middle" x="1018" y="-387.5" font-family="Helvetica,sans-Serif" font-size="10.00">_data.cpp</text>
</a>
</g>
</g>
<!-- Node30&#45;&gt;Node31 -->
<g id="edge46" class="edge">
<title>Node30&#45;&gt;Node31</title>
<path fill="none" stroke="midnightblue" d="M902.92,-443.54C928.37,-433.14 959.93,-420.24 983.57,-410.58"/>
<polygon fill="midnightblue" stroke="midnightblue" points="901.43,-440.37 893.5,-447.4 904.08,-446.85 901.43,-440.37"/>
</g>
<!-- Node32 -->
<g id="node32" class="node">
<title>Node32</title>
<g id="a_node32"><a xlink:href="d__event__manager_8h.html" target="_top" xlink:title=" ">
<polygon fill="white" stroke="black" points="828,-380.5 828,-410.5 948,-410.5 948,-380.5 828,-380.5"/>
<text text-anchor="start" x="836" y="-398.5" font-family="Helvetica,sans-Serif" font-size="10.00">include/d/event/d_event</text>
<text text-anchor="middle" x="888" y="-387.5" font-family="Helvetica,sans-Serif" font-size="10.00">_manager.h</text>
</a>
</g>
</g>
<!-- Node30&#45;&gt;Node32 -->
<g id="edge47" class="edge">
<title>Node30&#45;&gt;Node32</title>
<path fill="none" stroke="midnightblue" d="M869.49,-437.99C873.59,-428.8 878.15,-418.58 881.72,-410.58"/>
<polygon fill="midnightblue" stroke="midnightblue" points="866.17,-436.84 865.29,-447.4 872.56,-439.69 866.17,-436.84"/>
</g>
<!-- Node32&#45;&gt;Node13 -->
<g id="edge49" class="edge">
<title>Node32&#45;&gt;Node13</title>
<path fill="none" stroke="midnightblue" d="M892.25,-370.3C894.21,-353.76 894.96,-331.57 889,-313 868.46,-249 854.04,-231.29 801,-190 779.36,-173.16 751.42,-161.3 727.07,-153.33"/>
<polygon fill="midnightblue" stroke="midnightblue" points="888.78,-369.86 890.85,-380.25 895.71,-370.84 888.78,-369.86"/>
</g>
<!-- Node32&#45;&gt;Node29 -->
<g id="edge50" class="edge">
<title>Node32&#45;&gt;Node29</title>
<path fill="none" stroke="midnightblue" d="M864.93,-373.67C851.64,-361.67 835.63,-347.22 825.63,-338.19"/>
<polygon fill="midnightblue" stroke="midnightblue" points="862.61,-376.29 872.38,-380.4 867.3,-371.1 862.61,-376.29"/>
</g>
<!-- Node33 -->
<g id="node33" class="node">
<title>Node33</title>
<g id="a_node33"><a xlink:href="d__event__manager_8cpp.html" target="_top" xlink:title=" ">
<polygon fill="white" stroke="black" points="936.5,-313.5 936.5,-343.5 1039.5,-343.5 1039.5,-313.5 936.5,-313.5"/>
<text text-anchor="start" x="944.5" y="-331.5" font-family="Helvetica,sans-Serif" font-size="10.00">src/d/event/d_event</text>
<text text-anchor="middle" x="988" y="-320.5" font-family="Helvetica,sans-Serif" font-size="10.00">_manager.cpp</text>
</a>
</g>
</g>
<!-- Node32&#45;&gt;Node33 -->
<g id="edge48" class="edge">
<title>Node32&#45;&gt;Node33</title>
<path fill="none" stroke="midnightblue" d="M918.41,-374.73C933.88,-364.68 952.33,-352.68 966.34,-343.58"/>
<polygon fill="midnightblue" stroke="midnightblue" points="916.18,-372.01 909.7,-380.4 919.99,-377.88 916.18,-372.01"/>
</g>
</g>
</svg>
