<?xml version="1.0" encoding="UTF-8" standalone="no"?>
<!DOCTYPE svg PUBLIC "-//W3C//DTD SVG 1.1//EN"
 "http://www.w3.org/Graphics/SVG/1.1/DTD/svg11.dtd">
<!-- Generated by graphviz version 2.44.0 ()
 -->
<!-- Title: include/f_pc/f_pc_node_req.h Pages: 1 -->
<!--zoomable 743 -->
<svg id="main" version="1.1" xmlns="http://www.w3.org/2000/svg" xmlns:xlink="http://www.w3.org/1999/xlink" xml:space="preserve" onload="init(evt)">
<style type="text/css"><![CDATA[
.edge:hover path { stroke: red; }
.edge:hover polygon { stroke: red; fill: red; }
]]></style>
<script type="text/javascript"><![CDATA[
var edges = document.getElementsByTagName('g');
if (edges && edges.length) {
  for (var i=0;i<edges.length;i++) {
    if (edges[i].id.substr(0,4)=='edge') {
      edges[i].setAttribute('class','edge');
    }
  }
}
]]></script>
        <defs>
                <circle id="rim" cx="0" cy="0" r="7"/>
                <circle id="rim2" cx="0" cy="0" r="3.5"/>
                <g id="zoomPlus">
                        <use xlink:href="#rim" fill="#404040">
                                <set attributeName="fill" to="#808080" begin="zoomplus.mouseover" end="zoomplus.mouseout"/>
                        </use>
                        <path d="M-4,0h8M0,-4v8" fill="none" stroke="white" stroke-width="1.5" pointer-events="none"/>
                </g>
                <g id="zoomMin">
                        <use xlink:href="#rim" fill="#404040">
                                <set attributeName="fill" to="#808080" begin="zoomminus.mouseover" end="zoomminus.mouseout"/>
                        </use>
                        <path d="M-4,0h8" fill="none" stroke="white" stroke-width="1.5" pointer-events="none"/>
                </g>
                <g id="dirArrow">
                        <path fill="none" stroke="white" stroke-width="1.5" d="M0,-3.0v7 M-2.5,-0.5L0,-3.0L2.5,-0.5"/>
                </g>
               <g id="resetDef">
                       <use xlink:href="#rim2" fill="#404040">
                               <set attributeName="fill" to="#808080" begin="reset.mouseover" end="reset.mouseout"/>
                       </use>
               </g>
        </defs>

<script type="text/javascript">
var viewWidth = 1378;
var viewHeight = 743;
var sectionId = 'dynsection-1';
</script>
<script xlink:href="svgpan.js"/>
<svg id="graph" class="graph">
<g id="viewport">
<title>include/f_pc/f_pc_node_req.h</title>
<polygon fill="white" stroke="transparent" points="-4,4 -4,-739 1373.5,-739 1373.5,4 -4,4"/>
<!-- Node1 -->
<g id="node1" class="node">
<title>Node1</title>
<g id="a_node1"><a xlink:title=" ">
<polygon fill="#bfbfbf" stroke="black" points="581.5,-704.5 581.5,-734.5 698.5,-734.5 698.5,-704.5 581.5,-704.5"/>
<text text-anchor="start" x="589.5" y="-722.5" font-family="Helvetica,sans-Serif" font-size="10.00">include/f_pc/f_pc_node</text>
<text text-anchor="middle" x="640" y="-711.5" font-family="Helvetica,sans-Serif" font-size="10.00">_req.h</text>
</a>
</g>
</g>
<!-- Node2 -->
<g id="node2" class="node">
<title>Node2</title>
<g id="a_node2"><a xlink:href="f__pc__manager_8cpp.html" target="_top" xlink:title=" ">
<polygon fill="white" stroke="black" points="305,-576 305,-595 439,-595 439,-576 305,-576"/>
<text text-anchor="middle" x="372" y="-583" font-family="Helvetica,sans-Serif" font-size="10.00">src/f_pc/f_pc_manager.cpp</text>
</a>
</g>
</g>
<!-- Node1&#45;&gt;Node2 -->
<g id="edge1" class="edge">
<title>Node1&#45;&gt;Node2</title>
<path fill="none" stroke="midnightblue" d="M577.41,-701.47C550.17,-693.01 518.31,-681.65 491,-668 448,-646.5 402.56,-611.41 382.53,-595.2"/>
<polygon fill="midnightblue" stroke="midnightblue" points="576.63,-704.9 587.22,-704.46 578.67,-698.2 576.63,-704.9"/>
</g>
<!-- Node3 -->
<g id="node3" class="node">
<title>Node3</title>
<g id="a_node3"><a xlink:href="f__pc__node__req_8cpp.html" target="_top" xlink:title=" ">
<polygon fill="white" stroke="black" points="660,-637.5 660,-667.5 760,-667.5 760,-637.5 660,-637.5"/>
<text text-anchor="start" x="668" y="-655.5" font-family="Helvetica,sans-Serif" font-size="10.00">src/f_pc/f_pc_node</text>
<text text-anchor="middle" x="710" y="-644.5" font-family="Helvetica,sans-Serif" font-size="10.00">_req.cpp</text>
</a>
</g>
</g>
<!-- Node1&#45;&gt;Node3 -->
<g id="edge2" class="edge">
<title>Node1&#45;&gt;Node3</title>
<path fill="none" stroke="midnightblue" d="M662.82,-697.31C673.32,-687.56 685.49,-676.26 694.84,-667.58"/>
<polygon fill="midnightblue" stroke="midnightblue" points="660.14,-695.03 655.19,-704.4 664.9,-700.16 660.14,-695.03"/>
</g>
<!-- Node4 -->
<g id="node4" class="node">
<title>Node4</title>
<g id="a_node4"><a xlink:href="f__op__scene__req_8h.html" target="_top" xlink:title=" ">
<polygon fill="white" stroke="black" points="837,-637.5 837,-667.5 959,-667.5 959,-637.5 837,-637.5"/>
<text text-anchor="start" x="845" y="-655.5" font-family="Helvetica,sans-Serif" font-size="10.00">include/f_op/f_op_scene</text>
<text text-anchor="middle" x="898" y="-644.5" font-family="Helvetica,sans-Serif" font-size="10.00">_req.h</text>
</a>
</g>
</g>
<!-- Node1&#45;&gt;Node4 -->
<g id="edge3" class="edge">
<title>Node1&#45;&gt;Node4</title>
<path fill="none" stroke="midnightblue" d="M705.55,-701.98C747.7,-691.37 801.86,-677.72 841.99,-667.61"/>
<polygon fill="midnightblue" stroke="midnightblue" points="704.51,-698.64 695.66,-704.48 706.22,-705.43 704.51,-698.64"/>
</g>
<!-- Node7 -->
<g id="node7" class="node">
<title>Node7</title>
<g id="a_node7"><a xlink:href="f__pc__manager_8h.html" target="_top" xlink:title=" ">
<polygon fill="white" stroke="black" points="500.5,-643 500.5,-662 641.5,-662 641.5,-643 500.5,-643"/>
<text text-anchor="middle" x="571" y="-650" font-family="Helvetica,sans-Serif" font-size="10.00">include/f_pc/f_pc_manager.h</text>
</a>
</g>
</g>
<!-- Node1&#45;&gt;Node7 -->
<g id="edge6" class="edge">
<title>Node1&#45;&gt;Node7</title>
<path fill="none" stroke="midnightblue" d="M617.53,-697.34C604.86,-685.4 589.72,-671.14 580.23,-662.19"/>
<polygon fill="midnightblue" stroke="midnightblue" points="615.35,-700.09 625.03,-704.4 620.15,-694.99 615.35,-700.09"/>
</g>
<!-- Node5 -->
<g id="node5" class="node">
<title>Node5</title>
<g id="a_node5"><a xlink:href="f__op__scene__mng_8cpp.html" target="_top" xlink:title=" ">
<polygon fill="white" stroke="black" points="845.5,-570.5 845.5,-600.5 950.5,-600.5 950.5,-570.5 845.5,-570.5"/>
<text text-anchor="start" x="853.5" y="-588.5" font-family="Helvetica,sans-Serif" font-size="10.00">src/f_op/f_op_scene</text>
<text text-anchor="middle" x="898" y="-577.5" font-family="Helvetica,sans-Serif" font-size="10.00">_mng.cpp</text>
</a>
</g>
</g>
<!-- Node4&#45;&gt;Node5 -->
<g id="edge4" class="edge">
<title>Node4&#45;&gt;Node5</title>
<path fill="none" stroke="midnightblue" d="M898,-627.11C898,-618.15 898,-608.32 898,-600.58"/>
<polygon fill="midnightblue" stroke="midnightblue" points="894.5,-627.4 898,-637.4 901.5,-627.4 894.5,-627.4"/>
</g>
<!-- Node6 -->
<g id="node6" class="node">
<title>Node6</title>
<g id="a_node6"><a xlink:href="f__op__scene__req_8cpp.html" target="_top" xlink:title=" ">
<polygon fill="white" stroke="black" points="968.5,-570.5 968.5,-600.5 1073.5,-600.5 1073.5,-570.5 968.5,-570.5"/>
<text text-anchor="start" x="976.5" y="-588.5" font-family="Helvetica,sans-Serif" font-size="10.00">src/f_op/f_op_scene</text>
<text text-anchor="middle" x="1021" y="-577.5" font-family="Helvetica,sans-Serif" font-size="10.00">_req.cpp</text>
</a>
</g>
</g>
<!-- Node4&#45;&gt;Node6 -->
<g id="edge5" class="edge">
<title>Node4&#45;&gt;Node6</title>
<path fill="none" stroke="midnightblue" d="M933.55,-632.71C952.95,-622.46 976.56,-609.98 994.36,-600.58"/>
<polygon fill="midnightblue" stroke="midnightblue" points="931.9,-629.63 924.69,-637.4 935.17,-635.82 931.9,-629.63"/>
</g>
<!-- Node7&#45;&gt;Node2 -->
<g id="edge9" class="edge">
<title>Node7&#45;&gt;Node2</title>
<path fill="none" stroke="midnightblue" d="M534.82,-639.68C495.38,-626.8 433.22,-606.5 398.22,-595.06"/>
<polygon fill="midnightblue" stroke="midnightblue" points="533.98,-643.09 544.57,-642.87 536.16,-636.44 533.98,-643.09"/>
</g>
<!-- Node8 -->
<g id="node8" class="node">
<title>Node8</title>
<g id="a_node8"><a xlink:href="f__op__overlap__req_8cpp.html" target="_top" xlink:title=" ">
<polygon fill="white" stroke="black" points="457,-570.5 457,-600.5 567,-600.5 567,-570.5 457,-570.5"/>
<text text-anchor="start" x="465" y="-588.5" font-family="Helvetica,sans-Serif" font-size="10.00">src/f_op/f_op_overlap</text>
<text text-anchor="middle" x="512" y="-577.5" font-family="Helvetica,sans-Serif" font-size="10.00">_req.cpp</text>
</a>
</g>
</g>
<!-- Node7&#45;&gt;Node8 -->
<g id="edge7" class="edge">
<title>Node7&#45;&gt;Node8</title>
<path fill="none" stroke="midnightblue" d="M556.3,-635.3C546.61,-624.63 534.06,-610.8 524.79,-600.59"/>
<polygon fill="midnightblue" stroke="midnightblue" points="553.73,-637.68 563.04,-642.73 558.91,-632.98 553.73,-637.68"/>
</g>
<!-- Node9 -->
<g id="node9" class="node">
<title>Node9</title>
<g id="a_node9"><a xlink:href="f__op__scene__pause_8cpp.html" target="_top" xlink:title=" ">
<polygon fill="white" stroke="black" points="585.5,-570.5 585.5,-600.5 690.5,-600.5 690.5,-570.5 585.5,-570.5"/>
<text text-anchor="start" x="593.5" y="-588.5" font-family="Helvetica,sans-Serif" font-size="10.00">src/f_op/f_op_scene</text>
<text text-anchor="middle" x="638" y="-577.5" font-family="Helvetica,sans-Serif" font-size="10.00">_pause.cpp</text>
</a>
</g>
</g>
<!-- Node7&#45;&gt;Node9 -->
<g id="edge8" class="edge">
<title>Node7&#45;&gt;Node9</title>
<path fill="none" stroke="midnightblue" d="M587.37,-635.62C598.41,-624.91 612.85,-610.9 623.48,-600.59"/>
<polygon fill="midnightblue" stroke="midnightblue" points="584.78,-633.26 580.04,-642.73 589.65,-638.28 584.78,-633.26"/>
</g>
<!-- Node10 -->
<g id="node10" class="node">
<title>Node10</title>
<g id="a_node10"><a xlink:href="f__op__actor__mng_8h.html" target="_top" xlink:title=" ">
<polygon fill="white" stroke="black" points="709,-570.5 709,-600.5 827,-600.5 827,-570.5 709,-570.5"/>
<text text-anchor="start" x="717" y="-588.5" font-family="Helvetica,sans-Serif" font-size="10.00">include/f_op/f_op_actor</text>
<text text-anchor="middle" x="768" y="-577.5" font-family="Helvetica,sans-Serif" font-size="10.00">_mng.h</text>
</a>
</g>
</g>
<!-- Node7&#45;&gt;Node10 -->
<g id="edge10" class="edge">
<title>Node7&#45;&gt;Node10</title>
<path fill="none" stroke="midnightblue" d="M606.97,-639.63C640.37,-628.61 690.13,-612.19 725.48,-600.53"/>
<polygon fill="midnightblue" stroke="midnightblue" points="605.56,-636.41 597.16,-642.87 607.75,-643.06 605.56,-636.41"/>
</g>
<!-- Node11 -->
<g id="node11" class="node">
<title>Node11</title>
<g id="a_node11"><a xlink:href="d__a__player_8cpp.html" target="_top" xlink:title=" ">
<polygon fill="white" stroke="black" points="320,-386 320,-405 434,-405 434,-386 320,-386"/>
<text text-anchor="middle" x="377" y="-393" font-family="Helvetica,sans-Serif" font-size="10.00">src/d/a/d_a_player.cpp</text>
</a>
</g>
</g>
<!-- Node10&#45;&gt;Node11 -->
<g id="edge11" class="edge">
<title>Node10&#45;&gt;Node11</title>
<path fill="none" stroke="midnightblue" d="M699.02,-568.07C614.25,-546.94 476.43,-509.24 434,-478 407.02,-458.14 388.2,-421.58 380.66,-405.03"/>
<polygon fill="midnightblue" stroke="midnightblue" points="698.28,-571.49 708.83,-570.5 699.97,-564.7 698.28,-571.49"/>
</g>
<!-- Node12 -->
<g id="node12" class="node">
<title>Node12</title>
<g id="a_node12"><a xlink:href="d__cc__d__nonmatching_8cpp.html" target="_top" xlink:title=" ">
<polygon fill="white" stroke="black" points="1204.5,-514.5 1204.5,-533.5 1369.5,-533.5 1369.5,-514.5 1204.5,-514.5"/>
<text text-anchor="middle" x="1287" y="-521.5" font-family="Helvetica,sans-Serif" font-size="10.00">src/d/cc/d_cc_d_nonmatching.cpp</text>
</a>
</g>
</g>
<!-- Node10&#45;&gt;Node12 -->
<g id="edge12" class="edge">
<title>Node10&#45;&gt;Node12</title>
<path fill="none" stroke="midnightblue" d="M837.44,-570C897.53,-561.98 1091.33,-543.41 1204.11,-532.77"/>
<polygon fill="midnightblue" stroke="midnightblue" points="836.67,-566.57 827.27,-571.46 837.66,-573.5 836.67,-566.57"/>
</g>
<!-- Node13 -->
<g id="node13" class="node">
<title>Node13</title>
<g id="a_node13"><a xlink:href="d__bomb_8cpp.html" target="_top" xlink:title=" ">
<polygon fill="white" stroke="black" points="37,-252 37,-271 131,-271 131,-252 37,-252"/>
<text text-anchor="middle" x="84" y="-259" font-family="Helvetica,sans-Serif" font-size="10.00">src/d/d_bomb.cpp</text>
</a>
</g>
</g>
<!-- Node10&#45;&gt;Node13 -->
<g id="edge13" class="edge">
<title>Node10&#45;&gt;Node13</title>
<path fill="none" stroke="midnightblue" d="M699.3,-570.06C699.2,-570.04 699.1,-570.02 699,-570 552.71,-542.86 38,-612.28 38,-463.5 38,-463.5 38,-463.5 38,-394.5 38,-357.31 43.9,-347.81 57,-313 62.81,-297.55 72.44,-280.91 78.49,-271.11"/>
<polygon fill="midnightblue" stroke="midnightblue" points="698.46,-573.46 708.94,-571.9 699.78,-566.58 698.46,-573.46"/>
</g>
<!-- Node14 -->
<g id="node14" class="node">
<title>Node14</title>
<g id="a_node14"><a xlink:href="d__a__alink_8cpp.html" target="_top" xlink:title=" ">
<polygon fill="white" stroke="black" points="452.5,-67.5 452.5,-86.5 561.5,-86.5 561.5,-67.5 452.5,-67.5"/>
<text text-anchor="middle" x="507" y="-74.5" font-family="Helvetica,sans-Serif" font-size="10.00">src/d/a/d_a_alink.cpp</text>
</a>
</g>
</g>
<!-- Node10&#45;&gt;Node14 -->
<g id="edge14" class="edge">
<title>Node10&#45;&gt;Node14</title>
<path fill="none" stroke="midnightblue" d="M698.51,-570.24C522.22,-552.05 0,-617.56 0,-463.5 0,-463.5 0,-463.5 0,-199 0,-106.81 321.16,-84.72 452.26,-79.54"/>
<polygon fill="midnightblue" stroke="midnightblue" points="698.29,-573.74 708.63,-571.43 699.11,-566.79 698.29,-573.74"/>
</g>
<!-- Node15 -->
<g id="node15" class="node">
<title>Node15</title>
<g id="a_node15"><a xlink:href="d__event_8cpp.html" target="_top" xlink:title=" ">
<polygon fill="white" stroke="black" points="864.5,-67.5 864.5,-86.5 985.5,-86.5 985.5,-67.5 864.5,-67.5"/>
<text text-anchor="middle" x="925" y="-74.5" font-family="Helvetica,sans-Serif" font-size="10.00">src/d/event/d_event.cpp</text>
</a>
</g>
</g>
<!-- Node10&#45;&gt;Node15 -->
<g id="edge15" class="edge">
<title>Node10&#45;&gt;Node15</title>
<path fill="none" stroke="midnightblue" d="M836.91,-568.99C932.73,-546.86 1100.78,-505.82 1157,-478 1166.52,-473.29 1176,-474.12 1176,-463.5 1176,-463.5 1176,-463.5 1176,-199 1176,-114.83 1060.04,-89.18 985.76,-81.38"/>
<polygon fill="midnightblue" stroke="midnightblue" points="835.97,-565.62 827.01,-571.27 837.54,-572.44 835.97,-565.62"/>
</g>
<!-- Node16 -->
<g id="node16" class="node">
<title>Node16</title>
<g id="a_node16"><a xlink:href="f__op__actor__mng_8cpp.html" target="_top" xlink:title=" ">
<polygon fill="white" stroke="black" points="1046.5,-447.5 1046.5,-477.5 1147.5,-477.5 1147.5,-447.5 1046.5,-447.5"/>
<text text-anchor="start" x="1054.5" y="-465.5" font-family="Helvetica,sans-Serif" font-size="10.00">src/f_op/f_op_actor</text>
<text text-anchor="middle" x="1097" y="-454.5" font-family="Helvetica,sans-Serif" font-size="10.00">_mng.cpp</text>
</a>
</g>
</g>
<!-- Node10&#45;&gt;Node16 -->
<g id="edge16" class="edge">
<title>Node10&#45;&gt;Node16</title>
<path fill="none" stroke="midnightblue" d="M816.1,-566.81C881.92,-542.6 998.71,-499.65 1058.86,-477.53"/>
<polygon fill="midnightblue" stroke="midnightblue" points="814.56,-563.65 806.38,-570.38 816.98,-570.22 814.56,-563.65"/>
</g>
<!-- Node17 -->
<g id="node17" class="node">
<title>Node17</title>
<g id="a_node17"><a xlink:href="d__stage_8h.html" target="_top" xlink:title=" ">
<polygon fill="white" stroke="black" points="717.5,-514.5 717.5,-533.5 818.5,-533.5 818.5,-514.5 717.5,-514.5"/>
<text text-anchor="middle" x="768" y="-521.5" font-family="Helvetica,sans-Serif" font-size="10.00">include/d/d_stage.h</text>
</a>
</g>
</g>
<!-- Node10&#45;&gt;Node17 -->
<g id="edge17" class="edge">
<title>Node10&#45;&gt;Node17</title>
<path fill="none" stroke="midnightblue" d="M768,-560.29C768,-550.86 768,-540.65 768,-533.66"/>
<polygon fill="midnightblue" stroke="midnightblue" points="764.5,-560.4 768,-570.4 771.5,-560.4 764.5,-560.4"/>
</g>
<!-- Node17&#45;&gt;Node16 -->
<g id="edge20" class="edge">
<title>Node17&#45;&gt;Node16</title>
<path fill="none" stroke="midnightblue" d="M828.99,-514.07C883.66,-505.76 965.96,-492.51 1037,-478 1040.04,-477.38 1043.17,-476.71 1046.32,-476.02"/>
<polygon fill="midnightblue" stroke="midnightblue" points="828.13,-510.66 818.77,-515.61 829.18,-517.58 828.13,-510.66"/>
</g>
<!-- Node18 -->
<g id="node18" class="node">
<title>Node18</title>
<g id="a_node18"><a xlink:href="d__stage_8cpp.html" target="_top" xlink:title=" ">
<polygon fill="white" stroke="black" points="934,-453 934,-472 1028,-472 1028,-453 934,-453"/>
<text text-anchor="middle" x="981" y="-460" font-family="Helvetica,sans-Serif" font-size="10.00">src/d/d_stage.cpp</text>
</a>
</g>
</g>
<!-- Node17&#45;&gt;Node18 -->
<g id="edge18" class="edge">
<title>Node17&#45;&gt;Node18</title>
<path fill="none" stroke="midnightblue" d="M808.28,-511.75C849.66,-500.19 913.16,-482.45 950.54,-472.01"/>
<polygon fill="midnightblue" stroke="midnightblue" points="807.21,-508.41 798.52,-514.48 809.09,-515.16 807.21,-508.41"/>
</g>
<!-- Node19 -->
<g id="node19" class="node">
<title>Node19</title>
<g id="a_node19"><a xlink:href="f__op__actor_8cpp.html" target="_top" xlink:title=" ">
<polygon fill="white" stroke="black" points="582.5,-453 582.5,-472 701.5,-472 701.5,-453 582.5,-453"/>
<text text-anchor="middle" x="642" y="-460" font-family="Helvetica,sans-Serif" font-size="10.00">src/f_op/f_op_actor.cpp</text>
</a>
</g>
</g>
<!-- Node17&#45;&gt;Node19 -->
<g id="edge19" class="edge">
<title>Node17&#45;&gt;Node19</title>
<path fill="none" stroke="midnightblue" d="M740.84,-510.17C716.39,-498.63 681.15,-481.99 660.02,-472.01"/>
<polygon fill="midnightblue" stroke="midnightblue" points="739.41,-513.37 749.95,-514.48 742.4,-507.04 739.41,-513.37"/>
</g>
<!-- Node20 -->
<g id="node20" class="node">
<title>Node20</title>
<g id="a_node20"><a xlink:href="d__a__player_8h.html" target="_top" xlink:title=" ">
<polygon fill="white" stroke="black" points="443.5,-453 443.5,-472 564.5,-472 564.5,-453 443.5,-453"/>
<text text-anchor="middle" x="504" y="-460" font-family="Helvetica,sans-Serif" font-size="10.00">include/d/a/d_a_player.h</text>
</a>
</g>
</g>
<!-- Node17&#45;&gt;Node20 -->
<g id="edge21" class="edge">
<title>Node17&#45;&gt;Node20</title>
<path fill="none" stroke="midnightblue" d="M720.34,-512.26C669.13,-500.72 588.77,-482.61 541.75,-472.01"/>
<polygon fill="midnightblue" stroke="midnightblue" points="719.65,-515.69 730.18,-514.48 721.19,-508.86 719.65,-515.69"/>
</g>
<!-- Node22 -->
<g id="node22" class="node">
<title>Node22</title>
<g id="a_node22"><a xlink:href="d__com__inf__game_8h.html" target="_top" xlink:title=" ">
<polygon fill="white" stroke="black" points="611,-123.5 611,-153.5 721,-153.5 721,-123.5 611,-123.5"/>
<text text-anchor="start" x="619" y="-141.5" font-family="Helvetica,sans-Serif" font-size="10.00">include/d/com/d_com</text>
<text text-anchor="middle" x="666" y="-130.5" font-family="Helvetica,sans-Serif" font-size="10.00">_inf_game.h</text>
</a>
</g>
</g>
<!-- Node17&#45;&gt;Node22 -->
<g id="edge53" class="edge">
<title>Node17&#45;&gt;Node22</title>
<path fill="none" stroke="midnightblue" d="M763.76,-504.71C756.53,-472.47 742.1,-403.31 737,-344 735.82,-330.27 735.14,-326.65 737,-313 739.24,-296.55 744.76,-293.45 747,-277 749.07,-261.84 748.15,-193.83 746,-190 736.73,-173.54 719.65,-161.68 703.64,-153.6"/>
<polygon fill="midnightblue" stroke="midnightblue" points="760.36,-505.53 765.99,-514.5 767.18,-503.97 760.36,-505.53"/>
</g>
<!-- Node38 -->
<g id="node38" class="node">
<title>Node38</title>
<g id="a_node38"><a xlink:href="d__event_8h.html" target="_top" xlink:title=" ">
<polygon fill="white" stroke="black" points="746,-319 746,-338 874,-338 874,-319 746,-319"/>
<text text-anchor="middle" x="810" y="-326" font-family="Helvetica,sans-Serif" font-size="10.00">include/d/event/d_event.h</text>
</a>
</g>
</g>
<!-- Node17&#45;&gt;Node38 -->
<g id="edge54" class="edge">
<title>Node17&#45;&gt;Node38</title>
<path fill="none" stroke="midnightblue" d="M772.01,-504.55C780.82,-463.94 801.63,-368.07 808.07,-338.41"/>
<polygon fill="midnightblue" stroke="midnightblue" points="768.56,-503.92 769.86,-514.44 775.4,-505.41 768.56,-503.92"/>
</g>
<!-- Node39 -->
<g id="node39" class="node">
<title>Node39</title>
<g id="a_node39"><a xlink:href="d__event__data_8h.html" target="_top" xlink:title=" ">
<polygon fill="white" stroke="black" points="796,-447.5 796,-477.5 916,-477.5 916,-447.5 796,-447.5"/>
<text text-anchor="start" x="804" y="-465.5" font-family="Helvetica,sans-Serif" font-size="10.00">include/d/event/d_event</text>
<text text-anchor="middle" x="856" y="-454.5" font-family="Helvetica,sans-Serif" font-size="10.00">_data.h</text>
</a>
</g>
</g>
<!-- Node17&#45;&gt;Node39 -->
<g id="edge55" class="edge">
<title>Node17&#45;&gt;Node39</title>
<path fill="none" stroke="midnightblue" d="M789.09,-508.74C803.08,-499.28 821.35,-486.93 835.26,-477.52"/>
<polygon fill="midnightblue" stroke="midnightblue" points="786.93,-505.97 780.61,-514.48 790.85,-511.77 786.93,-505.97"/>
</g>
<!-- Node20&#45;&gt;Node11 -->
<g id="edge22" class="edge">
<title>Node20&#45;&gt;Node11</title>
<path fill="none" stroke="midnightblue" d="M478.16,-448.27C453,-435.4 415.51,-416.21 393.93,-405.17"/>
<polygon fill="midnightblue" stroke="midnightblue" points="476.64,-451.43 487.14,-452.87 479.83,-445.2 476.64,-451.43"/>
</g>
<!-- Node21 -->
<g id="node21" class="node">
<title>Node21</title>
<g id="a_node21"><a xlink:href="d__a__alink_8h.html" target="_top" xlink:title=" ">
<polygon fill="white" stroke="black" points="455,-190.5 455,-209.5 571,-209.5 571,-190.5 455,-190.5"/>
<text text-anchor="middle" x="513" y="-197.5" font-family="Helvetica,sans-Serif" font-size="10.00">include/d/a/d_a_alink.h</text>
</a>
</g>
</g>
<!-- Node20&#45;&gt;Node21 -->
<g id="edge23" class="edge">
<title>Node20&#45;&gt;Node21</title>
<path fill="none" stroke="midnightblue" d="M528.23,-447.39C541.18,-438.58 556.22,-426.05 565,-411 580.25,-384.87 574.32,-374.13 577,-344 580.85,-300.62 597.07,-284.65 577,-246 568.11,-228.88 549.39,-216.91 534.48,-209.64"/>
<polygon fill="midnightblue" stroke="midnightblue" points="526.21,-444.52 519.7,-452.88 530.01,-450.41 526.21,-444.52"/>
</g>
<!-- Node27 -->
<g id="node27" class="node">
<title>Node27</title>
<g id="a_node27"><a xlink:href="d__bg__s__acch_8h.html" target="_top" xlink:title=" ">
<polygon fill="white" stroke="black" points="452,-380.5 452,-410.5 556,-410.5 556,-380.5 452,-380.5"/>
<text text-anchor="start" x="460" y="-398.5" font-family="Helvetica,sans-Serif" font-size="10.00">include/d/bg/d_bg_s</text>
<text text-anchor="middle" x="504" y="-387.5" font-family="Helvetica,sans-Serif" font-size="10.00">_acch.h</text>
</a>
</g>
</g>
<!-- Node20&#45;&gt;Node27 -->
<g id="edge33" class="edge">
<title>Node20&#45;&gt;Node27</title>
<path fill="none" stroke="midnightblue" d="M504,-442.41C504,-432.22 504,-419.9 504,-410.59"/>
<polygon fill="midnightblue" stroke="midnightblue" points="500.5,-442.73 504,-452.73 507.5,-442.73 500.5,-442.73"/>
</g>
<!-- Node36 -->
<g id="node36" class="node">
<title>Node36</title>
<g id="a_node36"><a xlink:href="d__attention_8h.html" target="_top" xlink:title=" ">
<polygon fill="white" stroke="black" points="624,-252 624,-271 738,-271 738,-252 624,-252"/>
<text text-anchor="middle" x="681" y="-259" font-family="Helvetica,sans-Serif" font-size="10.00">include/d/d_attention.h</text>
</a>
</g>
</g>
<!-- Node20&#45;&gt;Node36 -->
<g id="edge46" class="edge">
<title>Node20&#45;&gt;Node36</title>
<path fill="none" stroke="midnightblue" d="M544.76,-449.48C566.33,-441.44 591.99,-428.99 610,-411 652.46,-368.6 673.04,-295.83 679.06,-271.05"/>
<polygon fill="midnightblue" stroke="midnightblue" points="543.45,-446.24 535.19,-452.87 545.78,-452.83 543.45,-446.24"/>
</g>
<!-- Node20&#45;&gt;Node38 -->
<g id="edge50" class="edge">
<title>Node20&#45;&gt;Node38</title>
<path fill="none" stroke="midnightblue" d="M549.64,-450.37C583.1,-441.52 629.25,-427.84 668,-411 718.05,-389.25 772.9,-354.28 797.2,-338.16"/>
<polygon fill="midnightblue" stroke="midnightblue" points="548.48,-447.06 539.69,-452.96 550.25,-453.83 548.48,-447.06"/>
</g>
<!-- Node21&#45;&gt;Node14 -->
<g id="edge24" class="edge">
<title>Node21&#45;&gt;Node14</title>
<path fill="none" stroke="midnightblue" d="M512.06,-179.99C510.74,-153.35 508.39,-106 507.43,-86.62"/>
<polygon fill="midnightblue" stroke="midnightblue" points="508.58,-180.48 512.57,-190.3 515.57,-180.14 508.58,-180.48"/>
</g>
<!-- Node21&#45;&gt;Node22 -->
<g id="edge25" class="edge">
<title>Node21&#45;&gt;Node22</title>
<path fill="none" stroke="midnightblue" d="M544.25,-186.85C569.1,-177.18 603.91,-163.65 629.94,-153.52"/>
<polygon fill="midnightblue" stroke="midnightblue" points="542.97,-183.59 534.92,-190.48 545.51,-190.11 542.97,-183.59"/>
</g>
<!-- Node22&#45;&gt;Node14 -->
<g id="edge27" class="edge">
<title>Node22&#45;&gt;Node14</title>
<path fill="none" stroke="midnightblue" d="M618.7,-119.8C589.47,-108.86 553.26,-95.31 530.14,-86.66"/>
<polygon fill="midnightblue" stroke="midnightblue" points="617.73,-123.17 628.32,-123.4 620.18,-116.62 617.73,-123.17"/>
</g>
<!-- Node22&#45;&gt;Node15 -->
<g id="edge28" class="edge">
<title>Node22&#45;&gt;Node15</title>
<path fill="none" stroke="midnightblue" d="M731.22,-122.52C780.71,-111.15 846.98,-95.92 887.8,-86.55"/>
<polygon fill="midnightblue" stroke="midnightblue" points="730.21,-119.16 721.24,-124.81 731.77,-125.98 730.21,-119.16"/>
</g>
<!-- Node23 -->
<g id="node23" class="node">
<title>Node23</title>
<g id="a_node23"><a xlink:href="d__com__inf__game_8cpp.html" target="_top" xlink:title=" ">
<polygon fill="white" stroke="black" points="536,-0.5 536,-30.5 644,-30.5 644,-0.5 536,-0.5"/>
<text text-anchor="start" x="544" y="-18.5" font-family="Helvetica,sans-Serif" font-size="10.00">src/d/com/d_com_inf</text>
<text text-anchor="middle" x="590" y="-7.5" font-family="Helvetica,sans-Serif" font-size="10.00">_game.cpp</text>
</a>
</g>
</g>
<!-- Node22&#45;&gt;Node23 -->
<g id="edge26" class="edge">
<title>Node22&#45;&gt;Node23</title>
<path fill="none" stroke="midnightblue" d="M636.82,-117.25C626.71,-108.93 616.14,-98.53 609,-87 598.12,-69.43 593.39,-45.66 591.39,-30.7"/>
<polygon fill="midnightblue" stroke="midnightblue" points="634.71,-120.05 644.74,-123.46 639.03,-114.54 634.71,-120.05"/>
</g>
<!-- Node24 -->
<g id="node24" class="node">
<title>Node24</title>
<g id="a_node24"><a xlink:href="d__save_8cpp.html" target="_top" xlink:title=" ">
<polygon fill="white" stroke="black" points="731.5,-67.5 731.5,-86.5 846.5,-86.5 846.5,-67.5 731.5,-67.5"/>
<text text-anchor="middle" x="789" y="-74.5" font-family="Helvetica,sans-Serif" font-size="10.00">src/d/save/d_save.cpp</text>
</a>
</g>
</g>
<!-- Node22&#45;&gt;Node24 -->
<g id="edge29" class="edge">
<title>Node22&#45;&gt;Node24</title>
<path fill="none" stroke="midnightblue" d="M704.37,-118.94C726.65,-108.16 753.68,-95.08 771.1,-86.66"/>
<polygon fill="midnightblue" stroke="midnightblue" points="702.63,-115.89 695.15,-123.4 705.68,-122.2 702.63,-115.89"/>
</g>
<!-- Node25 -->
<g id="node25" class="node">
<title>Node25</title>
<g id="a_node25"><a xlink:href="d__item_8h.html" target="_top" xlink:title=" ">
<polygon fill="white" stroke="black" points="618.5,-67.5 618.5,-86.5 713.5,-86.5 713.5,-67.5 618.5,-67.5"/>
<text text-anchor="middle" x="666" y="-74.5" font-family="Helvetica,sans-Serif" font-size="10.00">include/d/d_item.h</text>
</a>
</g>
</g>
<!-- Node22&#45;&gt;Node25 -->
<g id="edge30" class="edge">
<title>Node22&#45;&gt;Node25</title>
<path fill="none" stroke="midnightblue" d="M666,-113.29C666,-103.86 666,-93.65 666,-86.66"/>
<polygon fill="midnightblue" stroke="midnightblue" points="662.5,-113.4 666,-123.4 669.5,-113.4 662.5,-113.4"/>
</g>
<!-- Node25&#45;&gt;Node23 -->
<g id="edge31" class="edge">
<title>Node25&#45;&gt;Node23</title>
<path fill="none" stroke="midnightblue" d="M647.09,-61.2C635.11,-51.81 619.7,-39.75 607.91,-30.52"/>
<polygon fill="midnightblue" stroke="midnightblue" points="645.08,-64.07 655.11,-67.48 649.39,-58.55 645.08,-64.07"/>
</g>
<!-- Node26 -->
<g id="node26" class="node">
<title>Node26</title>
<g id="a_node26"><a xlink:href="d__item_8cpp.html" target="_top" xlink:title=" ">
<polygon fill="white" stroke="black" points="662.5,-6 662.5,-25 751.5,-25 751.5,-6 662.5,-6"/>
<text text-anchor="middle" x="707" y="-13" font-family="Helvetica,sans-Serif" font-size="10.00">src/d/d_item.cpp</text>
</a>
</g>
</g>
<!-- Node25&#45;&gt;Node26 -->
<g id="edge32" class="edge">
<title>Node25&#45;&gt;Node26</title>
<path fill="none" stroke="midnightblue" d="M677.71,-59.01C685.37,-47.89 695.05,-33.84 701.14,-25.01"/>
<polygon fill="midnightblue" stroke="midnightblue" points="674.67,-57.25 671.87,-67.48 680.43,-61.23 674.67,-57.25"/>
</g>
<!-- Node28 -->
<g id="node28" class="node">
<title>Node28</title>
<g id="a_node28"><a xlink:href="d__bg__s__acch_8cpp.html" target="_top" xlink:title=" ">
<polygon fill="white" stroke="black" points="185.5,-319 185.5,-338 316.5,-338 316.5,-319 185.5,-319"/>
<text text-anchor="middle" x="251" y="-326" font-family="Helvetica,sans-Serif" font-size="10.00">src/d/bg/d_bg_s_acch.cpp</text>
</a>
</g>
</g>
<!-- Node27&#45;&gt;Node28 -->
<g id="edge34" class="edge">
<title>Node27&#45;&gt;Node28</title>
<path fill="none" stroke="midnightblue" d="M442.17,-378.62C392.33,-365.81 324.16,-348.3 284.13,-338.01"/>
<polygon fill="midnightblue" stroke="midnightblue" points="441.33,-382.01 451.89,-381.11 443.07,-375.23 441.33,-382.01"/>
</g>
<!-- Node29 -->
<g id="node29" class="node">
<title>Node29</title>
<g id="a_node29"><a xlink:href="d__bg__w_8h.html" target="_top" xlink:title=" ">
<polygon fill="white" stroke="black" points="334.5,-319 334.5,-338 447.5,-338 447.5,-319 334.5,-319"/>
<text text-anchor="middle" x="391" y="-326" font-family="Helvetica,sans-Serif" font-size="10.00">include/d/bg/d_bg_w.h</text>
</a>
</g>
</g>
<!-- Node27&#45;&gt;Node29 -->
<g id="edge35" class="edge">
<title>Node27&#45;&gt;Node29</title>
<path fill="none" stroke="midnightblue" d="M470.63,-375.31C449.11,-362.93 422.17,-347.43 405.79,-338.01"/>
<polygon fill="midnightblue" stroke="midnightblue" points="469.07,-378.44 479.48,-380.4 472.56,-372.38 469.07,-378.44"/>
</g>
<!-- Node33 -->
<g id="node33" class="node">
<title>Node33</title>
<g id="a_node33"><a xlink:href="d__bomb_8h.html" target="_top" xlink:title=" ">
<polygon fill="white" stroke="black" points="66.5,-319 66.5,-338 167.5,-338 167.5,-319 66.5,-319"/>
<text text-anchor="middle" x="117" y="-326" font-family="Helvetica,sans-Serif" font-size="10.00">include/d/d_bomb.h</text>
</a>
</g>
</g>
<!-- Node27&#45;&gt;Node33 -->
<g id="edge41" class="edge">
<title>Node27&#45;&gt;Node33</title>
<path fill="none" stroke="midnightblue" d="M441.66,-379.87C323.48,-358.55 290.42,-365.71 176,-344 167.19,-342.33 157.73,-340.17 149.02,-338.03"/>
<polygon fill="midnightblue" stroke="midnightblue" points="441.36,-383.38 451.83,-381.74 442.63,-376.49 441.36,-383.38"/>
</g>
<!-- Node34 -->
<g id="node34" class="node">
<title>Node34</title>
<g id="a_node34"><a xlink:href="d__particle__copoly_8h.html" target="_top" xlink:title=" ">
<polygon fill="white" stroke="black" points="466,-313.5 466,-343.5 568,-343.5 568,-313.5 466,-313.5"/>
<text text-anchor="start" x="474" y="-331.5" font-family="Helvetica,sans-Serif" font-size="10.00">include/d/particle</text>
<text text-anchor="middle" x="517" y="-320.5" font-family="Helvetica,sans-Serif" font-size="10.00">/d_particle_copoly.h</text>
</a>
</g>
</g>
<!-- Node27&#45;&gt;Node34 -->
<g id="edge43" class="edge">
<title>Node27&#45;&gt;Node34</title>
<path fill="none" stroke="midnightblue" d="M508.82,-370.4C510.63,-361.37 512.62,-351.41 514.18,-343.58"/>
<polygon fill="midnightblue" stroke="midnightblue" points="505.35,-369.9 506.82,-380.4 512.21,-371.28 505.35,-369.9"/>
</g>
<!-- Node30 -->
<g id="node30" class="node">
<title>Node30</title>
<g id="a_node30"><a xlink:href="d__bg__w_8cpp.html" target="_top" xlink:title=" ">
<polygon fill="white" stroke="black" points="157.5,-252 157.5,-271 264.5,-271 264.5,-252 157.5,-252"/>
<text text-anchor="middle" x="211" y="-259" font-family="Helvetica,sans-Serif" font-size="10.00">src/d/bg/d_bg_w.cpp</text>
</a>
</g>
</g>
<!-- Node29&#45;&gt;Node30 -->
<g id="edge36" class="edge">
<title>Node29&#45;&gt;Node30</title>
<path fill="none" stroke="midnightblue" d="M357.59,-315.44C321.88,-302.54 266.17,-282.42 234.71,-271.06"/>
<polygon fill="midnightblue" stroke="midnightblue" points="356.5,-318.76 367.1,-318.87 358.88,-312.18 356.5,-318.76"/>
</g>
<!-- Node31 -->
<g id="node31" class="node">
<title>Node31</title>
<g id="a_node31"><a xlink:href="d__bg__s_8h.html" target="_top" xlink:title=" ">
<polygon fill="white" stroke="black" points="282.5,-252 282.5,-271 393.5,-271 393.5,-252 282.5,-252"/>
<text text-anchor="middle" x="338" y="-259" font-family="Helvetica,sans-Serif" font-size="10.00">include/d/bg/d_bg_s.h</text>
</a>
</g>
</g>
<!-- Node29&#45;&gt;Node31 -->
<g id="edge37" class="edge">
<title>Node29&#45;&gt;Node31</title>
<path fill="none" stroke="midnightblue" d="M377.36,-310.77C367.03,-298.1 353.25,-281.2 345.03,-271.13"/>
<polygon fill="midnightblue" stroke="midnightblue" points="374.82,-313.2 383.85,-318.73 380.25,-308.77 374.82,-313.2"/>
</g>
<!-- Node31&#45;&gt;Node21 -->
<g id="edge39" class="edge">
<title>Node31&#45;&gt;Node21</title>
<path fill="none" stroke="midnightblue" d="M372.61,-248.73C406.63,-237.17 457.72,-219.8 487.97,-209.51"/>
<polygon fill="midnightblue" stroke="midnightblue" points="371.41,-245.44 363.07,-251.98 373.67,-252.07 371.41,-245.44"/>
</g>
<!-- Node31&#45;&gt;Node22 -->
<g id="edge40" class="edge">
<title>Node31&#45;&gt;Node22</title>
<path fill="none" stroke="midnightblue" d="M356.21,-245.7C376.8,-229.68 411.92,-204.49 446,-190 499.74,-167.16 565.45,-153.8 610.99,-146.62"/>
<polygon fill="midnightblue" stroke="midnightblue" points="353.99,-242.99 348.32,-251.94 358.33,-248.48 353.99,-242.99"/>
</g>
<!-- Node32 -->
<g id="node32" class="node">
<title>Node32</title>
<g id="a_node32"><a xlink:href="d__bg__s_8cpp.html" target="_top" xlink:title=" ">
<polygon fill="white" stroke="black" points="286,-190.5 286,-209.5 390,-209.5 390,-190.5 286,-190.5"/>
<text text-anchor="middle" x="338" y="-197.5" font-family="Helvetica,sans-Serif" font-size="10.00">src/d/bg/d_bg_s.cpp</text>
</a>
</g>
</g>
<!-- Node31&#45;&gt;Node32 -->
<g id="edge38" class="edge">
<title>Node31&#45;&gt;Node32</title>
<path fill="none" stroke="midnightblue" d="M338,-241.82C338,-231 338,-217.9 338,-209.51"/>
<polygon fill="midnightblue" stroke="midnightblue" points="334.5,-241.98 338,-251.98 341.5,-241.98 334.5,-241.98"/>
</g>
<!-- Node33&#45;&gt;Node13 -->
<g id="edge42" class="edge">
<title>Node33&#45;&gt;Node13</title>
<path fill="none" stroke="midnightblue" d="M107.94,-309.66C101.58,-297.13 93.35,-280.91 88.38,-271.13"/>
<polygon fill="midnightblue" stroke="midnightblue" points="104.9,-311.4 112.55,-318.73 111.14,-308.23 104.9,-311.4"/>
</g>
<!-- Node34&#45;&gt;Node21 -->
<g id="edge45" class="edge">
<title>Node34&#45;&gt;Node21</title>
<path fill="none" stroke="midnightblue" d="M473.09,-308.46C460.43,-300.65 448.12,-290.27 441,-277 434.49,-264.86 434.32,-258.05 441,-246 450.86,-228.21 471.01,-216.52 487.5,-209.53"/>
<polygon fill="midnightblue" stroke="midnightblue" points="471.44,-311.54 481.86,-313.45 474.9,-305.46 471.44,-311.54"/>
</g>
<!-- Node35 -->
<g id="node35" class="node">
<title>Node35</title>
<g id="a_node35"><a xlink:href="d__particle__copoly_8cpp.html" target="_top" xlink:title=" ">
<polygon fill="white" stroke="black" points="450,-246.5 450,-276.5 568,-276.5 568,-246.5 450,-246.5"/>
<text text-anchor="start" x="458" y="-264.5" font-family="Helvetica,sans-Serif" font-size="10.00">src/d/particle/d_particle</text>
<text text-anchor="middle" x="509" y="-253.5" font-family="Helvetica,sans-Serif" font-size="10.00">_copoly.cpp</text>
</a>
</g>
</g>
<!-- Node34&#45;&gt;Node35 -->
<g id="edge44" class="edge">
<title>Node34&#45;&gt;Node35</title>
<path fill="none" stroke="midnightblue" d="M514.03,-303.4C512.92,-294.37 511.7,-284.41 510.73,-276.58"/>
<polygon fill="midnightblue" stroke="midnightblue" points="510.57,-303.9 515.26,-313.4 517.52,-303.04 510.57,-303.9"/>
</g>
<!-- Node36&#45;&gt;Node21 -->
<g id="edge48" class="edge">
<title>Node36&#45;&gt;Node21</title>
<path fill="none" stroke="midnightblue" d="M647.35,-248.58C614.7,-237.02 565.95,-219.75 537.03,-209.51"/>
<polygon fill="midnightblue" stroke="midnightblue" points="646.33,-251.94 656.93,-251.98 648.67,-245.34 646.33,-251.94"/>
</g>
<!-- Node36&#45;&gt;Node22 -->
<g id="edge49" class="edge">
<title>Node36&#45;&gt;Node22</title>
<path fill="none" stroke="midnightblue" d="M655.63,-246.51C642.68,-237.86 628.19,-225.45 621,-210 611.38,-189.33 630.49,-167.5 646.7,-153.7"/>
<polygon fill="midnightblue" stroke="midnightblue" points="653.89,-249.56 664.23,-251.89 657.61,-243.62 653.89,-249.56"/>
</g>
<!-- Node37 -->
<g id="node37" class="node">
<title>Node37</title>
<g id="a_node37"><a xlink:href="d__attention_8cpp.html" target="_top" xlink:title=" ">
<polygon fill="white" stroke="black" points="630.5,-190.5 630.5,-209.5 737.5,-209.5 737.5,-190.5 630.5,-190.5"/>
<text text-anchor="middle" x="684" y="-197.5" font-family="Helvetica,sans-Serif" font-size="10.00">src/d/d_attention.cpp</text>
</a>
</g>
</g>
<!-- Node36&#45;&gt;Node37 -->
<g id="edge47" class="edge">
<title>Node36&#45;&gt;Node37</title>
<path fill="none" stroke="midnightblue" d="M681.94,-241.82C682.49,-231 683.15,-217.9 683.57,-209.51"/>
<polygon fill="midnightblue" stroke="midnightblue" points="678.44,-241.81 681.43,-251.98 685.43,-242.16 678.44,-241.81"/>
</g>
<!-- Node38&#45;&gt;Node15 -->
<g id="edge51" class="edge">
<title>Node38&#45;&gt;Node15</title>
<path fill="none" stroke="midnightblue" d="M818.17,-309.78C840.94,-260.37 904.57,-122.32 921.06,-86.55"/>
<polygon fill="midnightblue" stroke="midnightblue" points="814.97,-308.36 813.96,-318.91 821.32,-311.3 814.97,-308.36"/>
</g>
<!-- Node38&#45;&gt;Node22 -->
<g id="edge52" class="edge">
<title>Node38&#45;&gt;Node22</title>
<path fill="none" stroke="midnightblue" d="M810.97,-308.7C811.44,-279.91 808.24,-224.61 780,-190 765.15,-171.8 742.41,-159.96 721.14,-152.35"/>
<polygon fill="midnightblue" stroke="midnightblue" points="807.46,-308.85 810.62,-318.96 814.46,-309.09 807.46,-308.85"/>
</g>
<!-- Node40 -->
<g id="node40" class="node">
<title>Node40</title>
<g id="a_node40"><a xlink:href="d__event__data_8cpp.html" target="_top" xlink:title=" ">
<polygon fill="white" stroke="black" points="960.5,-380.5 960.5,-410.5 1063.5,-410.5 1063.5,-380.5 960.5,-380.5"/>
<text text-anchor="start" x="968.5" y="-398.5" font-family="Helvetica,sans-Serif" font-size="10.00">src/d/event/d_event</text>
<text text-anchor="middle" x="1012" y="-387.5" font-family="Helvetica,sans-Serif" font-size="10.00">_data.cpp</text>
</a>
</g>
</g>
<!-- Node39&#45;&gt;Node40 -->
<g id="edge56" class="edge">
<title>Node39&#45;&gt;Node40</title>
<path fill="none" stroke="midnightblue" d="M899.09,-443.54C924.06,-433.14 955.03,-420.24 978.22,-410.58"/>
<polygon fill="midnightblue" stroke="midnightblue" points="897.73,-440.32 889.85,-447.4 900.43,-446.78 897.73,-440.32"/>
</g>
<!-- Node41 -->
<g id="node41" class="node">
<title>Node41</title>
<g id="a_node41"><a xlink:href="d__event__manager_8h.html" target="_top" xlink:title=" ">
<polygon fill="white" stroke="black" points="822,-380.5 822,-410.5 942,-410.5 942,-380.5 822,-380.5"/>
<text text-anchor="start" x="830" y="-398.5" font-family="Helvetica,sans-Serif" font-size="10.00">include/d/event/d_event</text>
<text text-anchor="middle" x="882" y="-387.5" font-family="Helvetica,sans-Serif" font-size="10.00">_manager.h</text>
</a>
</g>
</g>
<!-- Node39&#45;&gt;Node41 -->
<g id="edge57" class="edge">
<title>Node39&#45;&gt;Node41</title>
<path fill="none" stroke="midnightblue" d="M865.4,-437.99C869.08,-428.8 873.17,-418.58 876.37,-410.58"/>
<polygon fill="midnightblue" stroke="midnightblue" points="862.11,-436.81 861.64,-447.4 868.61,-439.41 862.11,-436.81"/>
</g>
<!-- Node41&#45;&gt;Node22 -->
<g id="edge59" class="edge">
<title>Node41&#45;&gt;Node22</title>
<path fill="none" stroke="midnightblue" d="M886.09,-370.35C887.98,-353.84 888.7,-331.65 883,-313 863.71,-249.93 851.74,-230.89 800,-190 777.08,-171.89 746.97,-159.76 721.1,-151.95"/>
<polygon fill="midnightblue" stroke="midnightblue" points="882.62,-369.91 884.74,-380.29 889.55,-370.85 882.62,-369.91"/>
</g>
<!-- Node41&#45;&gt;Node38 -->
<g id="edge60" class="edge">
<title>Node41&#45;&gt;Node38</title>
<path fill="none" stroke="midnightblue" d="M858.93,-373.67C845.64,-361.67 829.63,-347.22 819.63,-338.19"/>
<polygon fill="midnightblue" stroke="midnightblue" points="856.61,-376.29 866.38,-380.4 861.3,-371.1 856.61,-376.29"/>
</g>
<!-- Node42 -->
<g id="node42" class="node">
<title>Node42</title>
<g id="a_node42"><a xlink:href="d__event__manager_8cpp.html" target="_top" xlink:title=" ">
<polygon fill="white" stroke="black" points="930.5,-313.5 930.5,-343.5 1033.5,-343.5 1033.5,-313.5 930.5,-313.5"/>
<text text-anchor="start" x="938.5" y="-331.5" font-family="Helvetica,sans-Serif" font-size="10.00">src/d/event/d_event</text>
<text text-anchor="middle" x="982" y="-320.5" font-family="Helvetica,sans-Serif" font-size="10.00">_manager.cpp</text>
</a>
</g>
</g>
<!-- Node41&#45;&gt;Node42 -->
<g id="edge58" class="edge">
<title>Node41&#45;&gt;Node42</title>
<path fill="none" stroke="midnightblue" d="M912.41,-374.73C927.88,-364.68 946.33,-352.68 960.34,-343.58"/>
<polygon fill="midnightblue" stroke="midnightblue" points="910.18,-372.01 903.7,-380.4 913.99,-377.88 910.18,-372.01"/>
</g>
</g>
</svg>
        <g id="navigator" transform="translate(0 0)" fill="#404254">
                <rect fill="#f2f5e9" fill-opacity="0.5" stroke="#606060" stroke-width=".5" x="0" y="0" width="60" height="60"/>
                <use id="zoomplus" xlink:href="#zoomPlus" x="17" y="9" onmousedown="handleZoom(evt,'in')"/>
                <use id="zoomminus" xlink:href="#zoomMin" x="42" y="9" onmousedown="handleZoom(evt,'out')"/>
                <use id="reset" xlink:href="#resetDef" x="30" y="36" onmousedown="handleReset()"/>
                <g id="arrowUp" xlink:href="#dirArrow" transform="translate(30 24)" onmousedown="handlePan(0,-1)">
                  <use xlink:href="#rim" fill="#404040">
                        <set attributeName="fill" to="#808080" begin="arrowUp.mouseover" end="arrowUp.mouseout"/>
                  </use>
                  <path fill="none" stroke="white" stroke-width="1.5" d="M0,-3.0v7 M-2.5,-0.5L0,-3.0L2.5,-0.5"/>
                </g>
                <g id="arrowRight" xlink:href="#dirArrow" transform="rotate(90) translate(36 -43)" onmousedown="handlePan(1,0)">
                  <use xlink:href="#rim" fill="#404040">
                        <set attributeName="fill" to="#808080" begin="arrowRight.mouseover" end="arrowRight.mouseout"/>
                  </use>
                  <path fill="none" stroke="white" stroke-width="1.5" d="M0,-3.0v7 M-2.5,-0.5L0,-3.0L2.5,-0.5"/>
                </g>
                <g id="arrowDown" xlink:href="#dirArrow" transform="rotate(180) translate(-30 -48)" onmousedown="handlePan(0,1)">
                  <use xlink:href="#rim" fill="#404040">
                        <set attributeName="fill" to="#808080" begin="arrowDown.mouseover" end="arrowDown.mouseout"/>
                  </use>
                  <path fill="none" stroke="white" stroke-width="1.5" d="M0,-3.0v7 M-2.5,-0.5L0,-3.0L2.5,-0.5"/>
                </g>
                <g id="arrowLeft" xlink:href="#dirArrow" transform="rotate(270) translate(-36 17)" onmousedown="handlePan(-1,0)">
                  <use xlink:href="#rim" fill="#404040">
                        <set attributeName="fill" to="#808080" begin="arrowLeft.mouseover" end="arrowLeft.mouseout"/>
                  </use>
                  <path fill="none" stroke="white" stroke-width="1.5" d="M0,-3.0v7 M-2.5,-0.5L0,-3.0L2.5,-0.5"/>
                </g>
        </g>
        <svg viewBox="0 0 15 15" width="100%" height="30px" preserveAspectRatio="xMaxYMin meet">
         <g id="arrow_out" transform="scale(0.3 0.3)">
          <a xlink:href="f__pc__node__req_8h__dep__incl_org.svg" target="_base">
           <rect id="button" ry="5" rx="5" y="6" x="6" height="38" width="38"
                fill="#f2f5e9" fill-opacity="0.5" stroke="#606060" stroke-width="1.0"/>
           <path id="arrow"
             d="M 11.500037,31.436501 C 11.940474,20.09759 22.043105,11.32322 32.158766,21.979434 L 37.068811,17.246167 C 37.068811,17.246167 37.088388,32 37.088388,32 L 22.160133,31.978069 C 22.160133,31.978069 26.997745,27.140456 26.997745,27.140456 C 18.528582,18.264221 13.291696,25.230495 11.500037,31.436501 z"
             style="fill:#404040;"/>
          </a>
         </g>
        </svg>
</svg>
