<?xml version="1.0" encoding="UTF-8" standalone="no"?>
<!DOCTYPE svg PUBLIC "-//W3C//DTD SVG 1.1//EN"
 "http://www.w3.org/Graphics/SVG/1.1/DTD/svg11.dtd">
<!-- Generated by graphviz version 2.44.0 ()
 -->
<!-- Title: include/f_pc/f_pc_executor.h Pages: 1 -->
<svg width="1862pt" height="665pt"
 viewBox="0.00 0.00 1861.50 665.00" xmlns="http://www.w3.org/2000/svg" xmlns:xlink="http://www.w3.org/1999/xlink">
<g id="graph0" class="graph" transform="scale(1 1) rotate(0) translate(4 661)">
<title>include/f_pc/f_pc_executor.h</title>
<polygon fill="white" stroke="transparent" points="-4,4 -4,-661 1857.5,-661 1857.5,4 -4,4"/>
<!-- Node1 -->
<g id="node1" class="node">
<title>Node1</title>
<g id="a_node1"><a xlink:title=" ">
<polygon fill="#bfbfbf" stroke="black" points="553,-637.5 553,-656.5 693,-656.5 693,-637.5 553,-637.5"/>
<text text-anchor="middle" x="623" y="-644.5" font-family="Helvetica,sans-Serif" font-size="10.00">include/f_pc/f_pc_executor.h</text>
</a>
</g>
</g>
<!-- Node2 -->
<g id="node2" class="node">
<title>Node2</title>
<g id="a_node2"><a xlink:href="f__op__overlap__mng_8cpp.html" target="_top" xlink:title=" ">
<polygon fill="white" stroke="black" points="0,-570.5 0,-600.5 110,-600.5 110,-570.5 0,-570.5"/>
<text text-anchor="start" x="8" y="-588.5" font-family="Helvetica,sans-Serif" font-size="10.00">src/f_op/f_op_overlap</text>
<text text-anchor="middle" x="55" y="-577.5" font-family="Helvetica,sans-Serif" font-size="10.00">_mng.cpp</text>
</a>
</g>
</g>
<!-- Node1&#45;&gt;Node2 -->
<g id="edge1" class="edge">
<title>Node1&#45;&gt;Node2</title>
<path fill="none" stroke="midnightblue" d="M542.93,-642.16C443.17,-636.62 267.71,-624.38 119,-601 116.07,-600.54 113.08,-600.02 110.07,-599.47"/>
<polygon fill="midnightblue" stroke="midnightblue" points="542.76,-645.66 552.93,-642.71 543.14,-638.67 542.76,-645.66"/>
</g>
<!-- Node3 -->
<g id="node3" class="node">
<title>Node3</title>
<g id="a_node3"><a xlink:href="f__op__overlap__req_8cpp.html" target="_top" xlink:title=" ">
<polygon fill="white" stroke="black" points="128,-570.5 128,-600.5 238,-600.5 238,-570.5 128,-570.5"/>
<text text-anchor="start" x="136" y="-588.5" font-family="Helvetica,sans-Serif" font-size="10.00">src/f_op/f_op_overlap</text>
<text text-anchor="middle" x="183" y="-577.5" font-family="Helvetica,sans-Serif" font-size="10.00">_req.cpp</text>
</a>
</g>
</g>
<!-- Node1&#45;&gt;Node3 -->
<g id="edge2" class="edge">
<title>Node1&#45;&gt;Node3</title>
<path fill="none" stroke="midnightblue" d="M542.66,-638.82C466.3,-631.42 348.37,-618.5 247,-601 244.08,-600.5 241.09,-599.94 238.09,-599.36"/>
<polygon fill="midnightblue" stroke="midnightblue" points="542.4,-642.31 552.69,-639.78 543.07,-635.34 542.4,-642.31"/>
</g>
<!-- Node4 -->
<g id="node4" class="node">
<title>Node4</title>
<g id="a_node4"><a xlink:href="f__op__scene__pause_8cpp.html" target="_top" xlink:title=" ">
<polygon fill="white" stroke="black" points="256.5,-570.5 256.5,-600.5 361.5,-600.5 361.5,-570.5 256.5,-570.5"/>
<text text-anchor="start" x="264.5" y="-588.5" font-family="Helvetica,sans-Serif" font-size="10.00">src/f_op/f_op_scene</text>
<text text-anchor="middle" x="309" y="-577.5" font-family="Helvetica,sans-Serif" font-size="10.00">_pause.cpp</text>
</a>
</g>
</g>
<!-- Node1&#45;&gt;Node4 -->
<g id="edge3" class="edge">
<title>Node1&#45;&gt;Node4</title>
<path fill="none" stroke="midnightblue" d="M560.07,-635.84C508.76,-627.3 434.5,-614.39 370,-601 367.23,-600.42 364.39,-599.82 361.53,-599.19"/>
<polygon fill="midnightblue" stroke="midnightblue" points="559.58,-639.3 570.01,-637.48 560.72,-632.4 559.58,-639.3"/>
</g>
<!-- Node5 -->
<g id="node5" class="node">
<title>Node5</title>
<g id="a_node5"><a xlink:href="f__op__scene__req_8cpp.html" target="_top" xlink:title=" ">
<polygon fill="white" stroke="black" points="379.5,-570.5 379.5,-600.5 484.5,-600.5 484.5,-570.5 379.5,-570.5"/>
<text text-anchor="start" x="387.5" y="-588.5" font-family="Helvetica,sans-Serif" font-size="10.00">src/f_op/f_op_scene</text>
<text text-anchor="middle" x="432" y="-577.5" font-family="Helvetica,sans-Serif" font-size="10.00">_req.cpp</text>
</a>
</g>
</g>
<!-- Node1&#45;&gt;Node5 -->
<g id="edge4" class="edge">
<title>Node1&#45;&gt;Node5</title>
<path fill="none" stroke="midnightblue" d="M586.03,-634.48C554.89,-624.78 510.23,-610.87 477.01,-600.52"/>
<polygon fill="midnightblue" stroke="midnightblue" points="585.05,-637.84 595.63,-637.48 587.13,-631.16 585.05,-637.84"/>
</g>
<!-- Node6 -->
<g id="node6" class="node">
<title>Node6</title>
<g id="a_node6"><a xlink:href="f__pc__create__req_8cpp.html" target="_top" xlink:title=" ">
<polygon fill="white" stroke="black" points="503,-570.5 503,-600.5 609,-600.5 609,-570.5 503,-570.5"/>
<text text-anchor="start" x="511" y="-588.5" font-family="Helvetica,sans-Serif" font-size="10.00">src/f_pc/f_pc_create</text>
<text text-anchor="middle" x="556" y="-577.5" font-family="Helvetica,sans-Serif" font-size="10.00">_req.cpp</text>
</a>
</g>
</g>
<!-- Node1&#45;&gt;Node6 -->
<g id="edge5" class="edge">
<title>Node1&#45;&gt;Node6</title>
<path fill="none" stroke="midnightblue" d="M605.71,-630.65C595.24,-621.35 581.98,-609.57 571.79,-600.52"/>
<polygon fill="midnightblue" stroke="midnightblue" points="603.6,-633.45 613.4,-637.48 608.25,-628.22 603.6,-633.45"/>
</g>
<!-- Node7 -->
<g id="node7" class="node">
<title>Node7</title>
<g id="a_node7"><a xlink:href="f__pc__deletor_8cpp.html" target="_top" xlink:title=" ">
<polygon fill="white" stroke="black" points="627,-576 627,-595 753,-595 753,-576 627,-576"/>
<text text-anchor="middle" x="690" y="-583" font-family="Helvetica,sans-Serif" font-size="10.00">src/f_pc/f_pc_deletor.cpp</text>
</a>
</g>
</g>
<!-- Node1&#45;&gt;Node7 -->
<g id="edge6" class="edge">
<title>Node1&#45;&gt;Node7</title>
<path fill="none" stroke="midnightblue" d="M640.29,-630.65C653.06,-619.31 669.98,-604.28 680.42,-595.01"/>
<polygon fill="midnightblue" stroke="midnightblue" points="637.75,-628.22 632.6,-637.48 642.4,-633.45 637.75,-628.22"/>
</g>
<!-- Node8 -->
<g id="node8" class="node">
<title>Node8</title>
<g id="a_node8"><a xlink:href="f__pc__executor_8cpp.html" target="_top" xlink:title=" ">
<polygon fill="white" stroke="black" points="771,-576 771,-595 905,-595 905,-576 771,-576"/>
<text text-anchor="middle" x="838" y="-583" font-family="Helvetica,sans-Serif" font-size="10.00">src/f_pc/f_pc_executor.cpp</text>
</a>
</g>
</g>
<!-- Node1&#45;&gt;Node8 -->
<g id="edge7" class="edge">
<title>Node1&#45;&gt;Node8</title>
<path fill="none" stroke="midnightblue" d="M663.65,-634.75C705.42,-623.19 769.52,-605.45 807.25,-595.01"/>
<polygon fill="midnightblue" stroke="midnightblue" points="662.51,-631.43 653.8,-637.48 664.38,-638.18 662.51,-631.43"/>
</g>
<!-- Node9 -->
<g id="node9" class="node">
<title>Node9</title>
<g id="a_node9"><a xlink:href="f__pc__manager_8cpp.html" target="_top" xlink:title=" ">
<polygon fill="white" stroke="black" points="923,-576 923,-595 1057,-595 1057,-576 923,-576"/>
<text text-anchor="middle" x="990" y="-583" font-family="Helvetica,sans-Serif" font-size="10.00">src/f_pc/f_pc_manager.cpp</text>
</a>
</g>
</g>
<!-- Node1&#45;&gt;Node9 -->
<g id="edge8" class="edge">
<title>Node1&#45;&gt;Node9</title>
<path fill="none" stroke="midnightblue" d="M692.13,-636.01C751.16,-627.31 838.28,-614.07 914,-601 924.59,-599.17 935.98,-597.07 946.64,-595.04"/>
<polygon fill="midnightblue" stroke="midnightblue" points="691.56,-632.55 682.18,-637.47 692.58,-639.48 691.56,-632.55"/>
</g>
<!-- Node10 -->
<g id="node10" class="node">
<title>Node10</title>
<g id="a_node10"><a xlink:href="f__pc__node__req_8cpp.html" target="_top" xlink:title=" ">
<polygon fill="white" stroke="black" points="1075,-570.5 1075,-600.5 1175,-600.5 1175,-570.5 1075,-570.5"/>
<text text-anchor="start" x="1083" y="-588.5" font-family="Helvetica,sans-Serif" font-size="10.00">src/f_pc/f_pc_node</text>
<text text-anchor="middle" x="1125" y="-577.5" font-family="Helvetica,sans-Serif" font-size="10.00">_req.cpp</text>
</a>
</g>
</g>
<!-- Node1&#45;&gt;Node10 -->
<g id="edge9" class="edge">
<title>Node1&#45;&gt;Node10</title>
<path fill="none" stroke="midnightblue" d="M703.27,-641.23C792.37,-635.16 940.21,-622.74 1066,-601 1068.91,-600.5 1071.89,-599.93 1074.89,-599.32"/>
<polygon fill="midnightblue" stroke="midnightblue" points="702.98,-637.74 693.23,-641.91 703.44,-644.73 702.98,-637.74"/>
</g>
<!-- Node11 -->
<g id="node11" class="node">
<title>Node11</title>
<g id="a_node11"><a xlink:href="f__op__actor__mng_8h.html" target="_top" xlink:title=" ">
<polygon fill="white" stroke="black" points="1193,-570.5 1193,-600.5 1311,-600.5 1311,-570.5 1193,-570.5"/>
<text text-anchor="start" x="1201" y="-588.5" font-family="Helvetica,sans-Serif" font-size="10.00">include/f_op/f_op_actor</text>
<text text-anchor="middle" x="1252" y="-577.5" font-family="Helvetica,sans-Serif" font-size="10.00">_mng.h</text>
</a>
</g>
</g>
<!-- Node1&#45;&gt;Node11 -->
<g id="edge10" class="edge">
<title>Node1&#45;&gt;Node11</title>
<path fill="none" stroke="midnightblue" d="M703.58,-642.83C812.88,-637.78 1014.01,-625.83 1184,-601 1186.87,-600.58 1189.79,-600.11 1192.74,-599.61"/>
<polygon fill="midnightblue" stroke="midnightblue" points="703.13,-639.35 693.3,-643.3 703.45,-646.34 703.13,-639.35"/>
</g>
<!-- Node12 -->
<g id="node12" class="node">
<title>Node12</title>
<g id="a_node12"><a xlink:href="d__a__player_8cpp.html" target="_top" xlink:title=" ">
<polygon fill="white" stroke="black" points="804,-386 804,-405 918,-405 918,-386 804,-386"/>
<text text-anchor="middle" x="861" y="-393" font-family="Helvetica,sans-Serif" font-size="10.00">src/d/a/d_a_player.cpp</text>
</a>
</g>
</g>
<!-- Node11&#45;&gt;Node12 -->
<g id="edge11" class="edge">
<title>Node11&#45;&gt;Node12</title>
<path fill="none" stroke="midnightblue" d="M1183.02,-568.07C1098.25,-546.94 960.43,-509.24 918,-478 891.02,-458.14 872.2,-421.58 864.66,-405.03"/>
<polygon fill="midnightblue" stroke="midnightblue" points="1182.28,-571.49 1192.83,-570.5 1183.97,-564.7 1182.28,-571.49"/>
</g>
<!-- Node13 -->
<g id="node13" class="node">
<title>Node13</title>
<g id="a_node13"><a xlink:href="d__cc__d__nonmatching_8cpp.html" target="_top" xlink:title=" ">
<polygon fill="white" stroke="black" points="1688.5,-514.5 1688.5,-533.5 1853.5,-533.5 1853.5,-514.5 1688.5,-514.5"/>
<text text-anchor="middle" x="1771" y="-521.5" font-family="Helvetica,sans-Serif" font-size="10.00">src/d/cc/d_cc_d_nonmatching.cpp</text>
</a>
</g>
</g>
<!-- Node11&#45;&gt;Node13 -->
<g id="edge12" class="edge">
<title>Node11&#45;&gt;Node13</title>
<path fill="none" stroke="midnightblue" d="M1321.08,-576.58C1418.67,-565.39 1596.16,-545.04 1696.57,-533.53"/>
<polygon fill="midnightblue" stroke="midnightblue" points="1320.57,-573.12 1311.03,-577.73 1321.36,-580.07 1320.57,-573.12"/>
</g>
<!-- Node14 -->
<g id="node14" class="node">
<title>Node14</title>
<g id="a_node14"><a xlink:href="d__bomb_8cpp.html" target="_top" xlink:title=" ">
<polygon fill="white" stroke="black" points="521,-252 521,-271 615,-271 615,-252 521,-252"/>
<text text-anchor="middle" x="568" y="-259" font-family="Helvetica,sans-Serif" font-size="10.00">src/d/d_bomb.cpp</text>
</a>
</g>
</g>
<!-- Node11&#45;&gt;Node14 -->
<g id="edge13" class="edge">
<title>Node11&#45;&gt;Node14</title>
<path fill="none" stroke="midnightblue" d="M1182.7,-570C1016.61,-545.4 522,-609.45 522,-463.5 522,-463.5 522,-463.5 522,-394.5 522,-357.31 527.9,-347.81 541,-313 546.81,-297.55 556.44,-280.91 562.49,-271.11"/>
<polygon fill="midnightblue" stroke="midnightblue" points="1182.26,-573.48 1192.7,-571.67 1183.41,-566.57 1182.26,-573.48"/>
</g>
<!-- Node15 -->
<g id="node15" class="node">
<title>Node15</title>
<g id="a_node15"><a xlink:href="d__a__alink_8cpp.html" target="_top" xlink:title=" ">
<polygon fill="white" stroke="black" points="936.5,-67.5 936.5,-86.5 1045.5,-86.5 1045.5,-67.5 936.5,-67.5"/>
<text text-anchor="middle" x="991" y="-74.5" font-family="Helvetica,sans-Serif" font-size="10.00">src/d/a/d_a_alink.cpp</text>
</a>
</g>
</g>
<!-- Node11&#45;&gt;Node15 -->
<g id="edge14" class="edge">
<title>Node11&#45;&gt;Node15</title>
<path fill="none" stroke="midnightblue" d="M1182.82,-570.1C1027.49,-553.02 670.94,-594.8 546,-534 508.48,-515.74 484,-505.23 484,-463.5 484,-463.5 484,-463.5 484,-199 484,-106.81 805.16,-84.72 936.26,-79.54"/>
<polygon fill="midnightblue" stroke="midnightblue" points="1182.41,-573.57 1192.76,-571.31 1183.25,-566.62 1182.41,-573.57"/>
</g>
<!-- Node16 -->
<g id="node16" class="node">
<title>Node16</title>
<g id="a_node16"><a xlink:href="d__event_8cpp.html" target="_top" xlink:title=" ">
<polygon fill="white" stroke="black" points="1348.5,-67.5 1348.5,-86.5 1469.5,-86.5 1469.5,-67.5 1348.5,-67.5"/>
<text text-anchor="middle" x="1409" y="-74.5" font-family="Helvetica,sans-Serif" font-size="10.00">src/d/event/d_event.cpp</text>
</a>
</g>
</g>
<!-- Node11&#45;&gt;Node16 -->
<g id="edge15" class="edge">
<title>Node11&#45;&gt;Node16</title>
<path fill="none" stroke="midnightblue" d="M1321.58,-578.28C1438.08,-565.93 1660,-533.25 1660,-463.5 1660,-463.5 1660,-463.5 1660,-199 1660,-114.83 1544.04,-89.18 1469.76,-81.38"/>
<polygon fill="midnightblue" stroke="midnightblue" points="1320.91,-574.83 1311.33,-579.35 1321.63,-581.8 1320.91,-574.83"/>
</g>
<!-- Node17 -->
<g id="node17" class="node">
<title>Node17</title>
<g id="a_node17"><a xlink:href="f__op__actor__mng_8cpp.html" target="_top" xlink:title=" ">
<polygon fill="white" stroke="black" points="1530.5,-447.5 1530.5,-477.5 1631.5,-477.5 1631.5,-447.5 1530.5,-447.5"/>
<text text-anchor="start" x="1538.5" y="-465.5" font-family="Helvetica,sans-Serif" font-size="10.00">src/f_op/f_op_actor</text>
<text text-anchor="middle" x="1581" y="-454.5" font-family="Helvetica,sans-Serif" font-size="10.00">_mng.cpp</text>
</a>
</g>
</g>
<!-- Node11&#45;&gt;Node17 -->
<g id="edge16" class="edge">
<title>Node11&#45;&gt;Node17</title>
<path fill="none" stroke="midnightblue" d="M1300.1,-566.81C1365.92,-542.6 1482.71,-499.65 1542.86,-477.53"/>
<polygon fill="midnightblue" stroke="midnightblue" points="1298.56,-563.65 1290.38,-570.38 1300.98,-570.22 1298.56,-563.65"/>
</g>
<!-- Node18 -->
<g id="node18" class="node">
<title>Node18</title>
<g id="a_node18"><a xlink:href="d__stage_8h.html" target="_top" xlink:title=" ">
<polygon fill="white" stroke="black" points="1201.5,-514.5 1201.5,-533.5 1302.5,-533.5 1302.5,-514.5 1201.5,-514.5"/>
<text text-anchor="middle" x="1252" y="-521.5" font-family="Helvetica,sans-Serif" font-size="10.00">include/d/d_stage.h</text>
</a>
</g>
</g>
<!-- Node11&#45;&gt;Node18 -->
<g id="edge17" class="edge">
<title>Node11&#45;&gt;Node18</title>
<path fill="none" stroke="midnightblue" d="M1252,-560.29C1252,-550.86 1252,-540.65 1252,-533.66"/>
<polygon fill="midnightblue" stroke="midnightblue" points="1248.5,-560.4 1252,-570.4 1255.5,-560.4 1248.5,-560.4"/>
</g>
<!-- Node18&#45;&gt;Node17 -->
<g id="edge20" class="edge">
<title>Node18&#45;&gt;Node17</title>
<path fill="none" stroke="midnightblue" d="M1312.99,-514.07C1367.66,-505.76 1449.96,-492.51 1521,-478 1524.04,-477.38 1527.17,-476.71 1530.32,-476.02"/>
<polygon fill="midnightblue" stroke="midnightblue" points="1312.13,-510.66 1302.77,-515.61 1313.18,-517.58 1312.13,-510.66"/>
</g>
<!-- Node19 -->
<g id="node19" class="node">
<title>Node19</title>
<g id="a_node19"><a xlink:href="d__stage_8cpp.html" target="_top" xlink:title=" ">
<polygon fill="white" stroke="black" points="1418,-453 1418,-472 1512,-472 1512,-453 1418,-453"/>
<text text-anchor="middle" x="1465" y="-460" font-family="Helvetica,sans-Serif" font-size="10.00">src/d/d_stage.cpp</text>
</a>
</g>
</g>
<!-- Node18&#45;&gt;Node19 -->
<g id="edge18" class="edge">
<title>Node18&#45;&gt;Node19</title>
<path fill="none" stroke="midnightblue" d="M1292.28,-511.75C1333.66,-500.19 1397.16,-482.45 1434.54,-472.01"/>
<polygon fill="midnightblue" stroke="midnightblue" points="1291.21,-508.41 1282.52,-514.48 1293.09,-515.16 1291.21,-508.41"/>
</g>
<!-- Node20 -->
<g id="node20" class="node">
<title>Node20</title>
<g id="a_node20"><a xlink:href="f__op__actor_8cpp.html" target="_top" xlink:title=" ">
<polygon fill="white" stroke="black" points="1066.5,-453 1066.5,-472 1185.5,-472 1185.5,-453 1066.5,-453"/>
<text text-anchor="middle" x="1126" y="-460" font-family="Helvetica,sans-Serif" font-size="10.00">src/f_op/f_op_actor.cpp</text>
</a>
</g>
</g>
<!-- Node18&#45;&gt;Node20 -->
<g id="edge19" class="edge">
<title>Node18&#45;&gt;Node20</title>
<path fill="none" stroke="midnightblue" d="M1224.84,-510.17C1200.39,-498.63 1165.15,-481.99 1144.02,-472.01"/>
<polygon fill="midnightblue" stroke="midnightblue" points="1223.41,-513.37 1233.95,-514.48 1226.4,-507.04 1223.41,-513.37"/>
</g>
<!-- Node21 -->
<g id="node21" class="node">
<title>Node21</title>
<g id="a_node21"><a xlink:href="d__a__player_8h.html" target="_top" xlink:title=" ">
<polygon fill="white" stroke="black" points="927.5,-453 927.5,-472 1048.5,-472 1048.5,-453 927.5,-453"/>
<text text-anchor="middle" x="988" y="-460" font-family="Helvetica,sans-Serif" font-size="10.00">include/d/a/d_a_player.h</text>
</a>
</g>
</g>
<!-- Node18&#45;&gt;Node21 -->
<g id="edge21" class="edge">
<title>Node18&#45;&gt;Node21</title>
<path fill="none" stroke="midnightblue" d="M1204.34,-512.26C1153.13,-500.72 1072.77,-482.61 1025.75,-472.01"/>
<polygon fill="midnightblue" stroke="midnightblue" points="1203.65,-515.69 1214.18,-514.48 1205.19,-508.86 1203.65,-515.69"/>
</g>
<!-- Node23 -->
<g id="node23" class="node">
<title>Node23</title>
<g id="a_node23"><a xlink:href="d__com__inf__game_8h.html" target="_top" xlink:title=" ">
<polygon fill="white" stroke="black" points="1095,-123.5 1095,-153.5 1205,-153.5 1205,-123.5 1095,-123.5"/>
<text text-anchor="start" x="1103" y="-141.5" font-family="Helvetica,sans-Serif" font-size="10.00">include/d/com/d_com</text>
<text text-anchor="middle" x="1150" y="-130.5" font-family="Helvetica,sans-Serif" font-size="10.00">_inf_game.h</text>
</a>
</g>
</g>
<!-- Node18&#45;&gt;Node23 -->
<g id="edge53" class="edge">
<title>Node18&#45;&gt;Node23</title>
<path fill="none" stroke="midnightblue" d="M1247.76,-504.71C1240.53,-472.47 1226.1,-403.31 1221,-344 1219.82,-330.27 1219.14,-326.65 1221,-313 1223.24,-296.55 1228.76,-293.45 1231,-277 1233.07,-261.84 1232.15,-193.83 1230,-190 1220.73,-173.54 1203.65,-161.68 1187.64,-153.6"/>
<polygon fill="midnightblue" stroke="midnightblue" points="1244.36,-505.53 1249.99,-514.5 1251.18,-503.97 1244.36,-505.53"/>
</g>
<!-- Node39 -->
<g id="node39" class="node">
<title>Node39</title>
<g id="a_node39"><a xlink:href="d__event_8h.html" target="_top" xlink:title=" ">
<polygon fill="white" stroke="black" points="1230,-319 1230,-338 1358,-338 1358,-319 1230,-319"/>
<text text-anchor="middle" x="1294" y="-326" font-family="Helvetica,sans-Serif" font-size="10.00">include/d/event/d_event.h</text>
</a>
</g>
</g>
<!-- Node18&#45;&gt;Node39 -->
<g id="edge54" class="edge">
<title>Node18&#45;&gt;Node39</title>
<path fill="none" stroke="midnightblue" d="M1256.01,-504.55C1264.82,-463.94 1285.63,-368.07 1292.07,-338.41"/>
<polygon fill="midnightblue" stroke="midnightblue" points="1252.56,-503.92 1253.86,-514.44 1259.4,-505.41 1252.56,-503.92"/>
</g>
<!-- Node40 -->
<g id="node40" class="node">
<title>Node40</title>
<g id="a_node40"><a xlink:href="d__event__data_8h.html" target="_top" xlink:title=" ">
<polygon fill="white" stroke="black" points="1280,-447.5 1280,-477.5 1400,-477.5 1400,-447.5 1280,-447.5"/>
<text text-anchor="start" x="1288" y="-465.5" font-family="Helvetica,sans-Serif" font-size="10.00">include/d/event/d_event</text>
<text text-anchor="middle" x="1340" y="-454.5" font-family="Helvetica,sans-Serif" font-size="10.00">_data.h</text>
</a>
</g>
</g>
<!-- Node18&#45;&gt;Node40 -->
<g id="edge55" class="edge">
<title>Node18&#45;&gt;Node40</title>
<path fill="none" stroke="midnightblue" d="M1273.09,-508.74C1287.08,-499.28 1305.35,-486.93 1319.26,-477.52"/>
<polygon fill="midnightblue" stroke="midnightblue" points="1270.93,-505.97 1264.61,-514.48 1274.85,-511.77 1270.93,-505.97"/>
</g>
<!-- Node21&#45;&gt;Node12 -->
<g id="edge22" class="edge">
<title>Node21&#45;&gt;Node12</title>
<path fill="none" stroke="midnightblue" d="M962.16,-448.27C937,-435.4 899.51,-416.21 877.93,-405.17"/>
<polygon fill="midnightblue" stroke="midnightblue" points="960.64,-451.43 971.14,-452.87 963.83,-445.2 960.64,-451.43"/>
</g>
<!-- Node22 -->
<g id="node22" class="node">
<title>Node22</title>
<g id="a_node22"><a xlink:href="d__a__alink_8h.html" target="_top" xlink:title=" ">
<polygon fill="white" stroke="black" points="939,-190.5 939,-209.5 1055,-209.5 1055,-190.5 939,-190.5"/>
<text text-anchor="middle" x="997" y="-197.5" font-family="Helvetica,sans-Serif" font-size="10.00">include/d/a/d_a_alink.h</text>
</a>
</g>
</g>
<!-- Node21&#45;&gt;Node22 -->
<g id="edge23" class="edge">
<title>Node21&#45;&gt;Node22</title>
<path fill="none" stroke="midnightblue" d="M1012.23,-447.39C1025.18,-438.58 1040.22,-426.05 1049,-411 1064.25,-384.87 1058.32,-374.13 1061,-344 1064.85,-300.62 1081.07,-284.65 1061,-246 1052.11,-228.88 1033.39,-216.91 1018.48,-209.64"/>
<polygon fill="midnightblue" stroke="midnightblue" points="1010.21,-444.52 1003.7,-452.88 1014.01,-450.41 1010.21,-444.52"/>
</g>
<!-- Node28 -->
<g id="node28" class="node">
<title>Node28</title>
<g id="a_node28"><a xlink:href="d__bg__s__acch_8h.html" target="_top" xlink:title=" ">
<polygon fill="white" stroke="black" points="936,-380.5 936,-410.5 1040,-410.5 1040,-380.5 936,-380.5"/>
<text text-anchor="start" x="944" y="-398.5" font-family="Helvetica,sans-Serif" font-size="10.00">include/d/bg/d_bg_s</text>
<text text-anchor="middle" x="988" y="-387.5" font-family="Helvetica,sans-Serif" font-size="10.00">_acch.h</text>
</a>
</g>
</g>
<!-- Node21&#45;&gt;Node28 -->
<g id="edge33" class="edge">
<title>Node21&#45;&gt;Node28</title>
<path fill="none" stroke="midnightblue" d="M988,-442.41C988,-432.22 988,-419.9 988,-410.59"/>
<polygon fill="midnightblue" stroke="midnightblue" points="984.5,-442.73 988,-452.73 991.5,-442.73 984.5,-442.73"/>
</g>
<!-- Node37 -->
<g id="node37" class="node">
<title>Node37</title>
<g id="a_node37"><a xlink:href="d__attention_8h.html" target="_top" xlink:title=" ">
<polygon fill="white" stroke="black" points="1108,-252 1108,-271 1222,-271 1222,-252 1108,-252"/>
<text text-anchor="middle" x="1165" y="-259" font-family="Helvetica,sans-Serif" font-size="10.00">include/d/d_attention.h</text>
</a>
</g>
</g>
<!-- Node21&#45;&gt;Node37 -->
<g id="edge46" class="edge">
<title>Node21&#45;&gt;Node37</title>
<path fill="none" stroke="midnightblue" d="M1028.76,-449.48C1050.33,-441.44 1075.99,-428.99 1094,-411 1136.46,-368.6 1157.04,-295.83 1163.06,-271.05"/>
<polygon fill="midnightblue" stroke="midnightblue" points="1027.45,-446.24 1019.19,-452.87 1029.78,-452.83 1027.45,-446.24"/>
</g>
<!-- Node21&#45;&gt;Node39 -->
<g id="edge50" class="edge">
<title>Node21&#45;&gt;Node39</title>
<path fill="none" stroke="midnightblue" d="M1033.64,-450.37C1067.1,-441.52 1113.25,-427.84 1152,-411 1202.05,-389.25 1256.9,-354.28 1281.2,-338.16"/>
<polygon fill="midnightblue" stroke="midnightblue" points="1032.48,-447.06 1023.69,-452.96 1034.25,-453.83 1032.48,-447.06"/>
</g>
<!-- Node22&#45;&gt;Node15 -->
<g id="edge24" class="edge">
<title>Node22&#45;&gt;Node15</title>
<path fill="none" stroke="midnightblue" d="M996.06,-179.99C994.74,-153.35 992.39,-106 991.43,-86.62"/>
<polygon fill="midnightblue" stroke="midnightblue" points="992.58,-180.48 996.57,-190.3 999.57,-180.14 992.58,-180.48"/>
</g>
<!-- Node22&#45;&gt;Node23 -->
<g id="edge25" class="edge">
<title>Node22&#45;&gt;Node23</title>
<path fill="none" stroke="midnightblue" d="M1028.25,-186.85C1053.1,-177.18 1087.91,-163.65 1113.94,-153.52"/>
<polygon fill="midnightblue" stroke="midnightblue" points="1026.97,-183.59 1018.92,-190.48 1029.51,-190.11 1026.97,-183.59"/>
</g>
<!-- Node23&#45;&gt;Node15 -->
<g id="edge27" class="edge">
<title>Node23&#45;&gt;Node15</title>
<path fill="none" stroke="midnightblue" d="M1102.7,-119.8C1073.47,-108.86 1037.26,-95.31 1014.14,-86.66"/>
<polygon fill="midnightblue" stroke="midnightblue" points="1101.73,-123.17 1112.32,-123.4 1104.18,-116.62 1101.73,-123.17"/>
</g>
<!-- Node23&#45;&gt;Node16 -->
<g id="edge28" class="edge">
<title>Node23&#45;&gt;Node16</title>
<path fill="none" stroke="midnightblue" d="M1215.22,-122.52C1264.71,-111.15 1330.98,-95.92 1371.8,-86.55"/>
<polygon fill="midnightblue" stroke="midnightblue" points="1214.21,-119.16 1205.24,-124.81 1215.77,-125.98 1214.21,-119.16"/>
</g>
<!-- Node24 -->
<g id="node24" class="node">
<title>Node24</title>
<g id="a_node24"><a xlink:href="d__com__inf__game_8cpp.html" target="_top" xlink:title=" ">
<polygon fill="white" stroke="black" points="1020,-0.5 1020,-30.5 1128,-30.5 1128,-0.5 1020,-0.5"/>
<text text-anchor="start" x="1028" y="-18.5" font-family="Helvetica,sans-Serif" font-size="10.00">src/d/com/d_com_inf</text>
<text text-anchor="middle" x="1074" y="-7.5" font-family="Helvetica,sans-Serif" font-size="10.00">_game.cpp</text>
</a>
</g>
</g>
<!-- Node23&#45;&gt;Node24 -->
<g id="edge26" class="edge">
<title>Node23&#45;&gt;Node24</title>
<path fill="none" stroke="midnightblue" d="M1120.82,-117.25C1110.71,-108.93 1100.14,-98.53 1093,-87 1082.12,-69.43 1077.39,-45.66 1075.39,-30.7"/>
<polygon fill="midnightblue" stroke="midnightblue" points="1118.71,-120.05 1128.74,-123.46 1123.03,-114.54 1118.71,-120.05"/>
</g>
<!-- Node25 -->
<g id="node25" class="node">
<title>Node25</title>
<g id="a_node25"><a xlink:href="d__save_8cpp.html" target="_top" xlink:title=" ">
<polygon fill="white" stroke="black" points="1215.5,-67.5 1215.5,-86.5 1330.5,-86.5 1330.5,-67.5 1215.5,-67.5"/>
<text text-anchor="middle" x="1273" y="-74.5" font-family="Helvetica,sans-Serif" font-size="10.00">src/d/save/d_save.cpp</text>
</a>
</g>
</g>
<!-- Node23&#45;&gt;Node25 -->
<g id="edge29" class="edge">
<title>Node23&#45;&gt;Node25</title>
<path fill="none" stroke="midnightblue" d="M1188.37,-118.94C1210.65,-108.16 1237.68,-95.08 1255.1,-86.66"/>
<polygon fill="midnightblue" stroke="midnightblue" points="1186.63,-115.89 1179.15,-123.4 1189.68,-122.2 1186.63,-115.89"/>
</g>
<!-- Node26 -->
<g id="node26" class="node">
<title>Node26</title>
<g id="a_node26"><a xlink:href="d__item_8h.html" target="_top" xlink:title=" ">
<polygon fill="white" stroke="black" points="1102.5,-67.5 1102.5,-86.5 1197.5,-86.5 1197.5,-67.5 1102.5,-67.5"/>
<text text-anchor="middle" x="1150" y="-74.5" font-family="Helvetica,sans-Serif" font-size="10.00">include/d/d_item.h</text>
</a>
</g>
</g>
<!-- Node23&#45;&gt;Node26 -->
<g id="edge30" class="edge">
<title>Node23&#45;&gt;Node26</title>
<path fill="none" stroke="midnightblue" d="M1150,-113.29C1150,-103.86 1150,-93.65 1150,-86.66"/>
<polygon fill="midnightblue" stroke="midnightblue" points="1146.5,-113.4 1150,-123.4 1153.5,-113.4 1146.5,-113.4"/>
</g>
<!-- Node26&#45;&gt;Node24 -->
<g id="edge31" class="edge">
<title>Node26&#45;&gt;Node24</title>
<path fill="none" stroke="midnightblue" d="M1131.09,-61.2C1119.11,-51.81 1103.7,-39.75 1091.91,-30.52"/>
<polygon fill="midnightblue" stroke="midnightblue" points="1129.08,-64.07 1139.11,-67.48 1133.39,-58.55 1129.08,-64.07"/>
</g>
<!-- Node27 -->
<g id="node27" class="node">
<title>Node27</title>
<g id="a_node27"><a xlink:href="d__item_8cpp.html" target="_top" xlink:title=" ">
<polygon fill="white" stroke="black" points="1146.5,-6 1146.5,-25 1235.5,-25 1235.5,-6 1146.5,-6"/>
<text text-anchor="middle" x="1191" y="-13" font-family="Helvetica,sans-Serif" font-size="10.00">src/d/d_item.cpp</text>
</a>
</g>
</g>
<!-- Node26&#45;&gt;Node27 -->
<g id="edge32" class="edge">
<title>Node26&#45;&gt;Node27</title>
<path fill="none" stroke="midnightblue" d="M1161.71,-59.01C1169.37,-47.89 1179.05,-33.84 1185.14,-25.01"/>
<polygon fill="midnightblue" stroke="midnightblue" points="1158.67,-57.25 1155.87,-67.48 1164.43,-61.23 1158.67,-57.25"/>
</g>
<!-- Node29 -->
<g id="node29" class="node">
<title>Node29</title>
<g id="a_node29"><a xlink:href="d__bg__s__acch_8cpp.html" target="_top" xlink:title=" ">
<polygon fill="white" stroke="black" points="669.5,-319 669.5,-338 800.5,-338 800.5,-319 669.5,-319"/>
<text text-anchor="middle" x="735" y="-326" font-family="Helvetica,sans-Serif" font-size="10.00">src/d/bg/d_bg_s_acch.cpp</text>
</a>
</g>
</g>
<!-- Node28&#45;&gt;Node29 -->
<g id="edge34" class="edge">
<title>Node28&#45;&gt;Node29</title>
<path fill="none" stroke="midnightblue" d="M926.17,-378.62C876.33,-365.81 808.16,-348.3 768.13,-338.01"/>
<polygon fill="midnightblue" stroke="midnightblue" points="925.33,-382.01 935.89,-381.11 927.07,-375.23 925.33,-382.01"/>
</g>
<!-- Node30 -->
<g id="node30" class="node">
<title>Node30</title>
<g id="a_node30"><a xlink:href="d__bg__w_8h.html" target="_top" xlink:title=" ">
<polygon fill="white" stroke="black" points="818.5,-319 818.5,-338 931.5,-338 931.5,-319 818.5,-319"/>
<text text-anchor="middle" x="875" y="-326" font-family="Helvetica,sans-Serif" font-size="10.00">include/d/bg/d_bg_w.h</text>
</a>
</g>
</g>
<!-- Node28&#45;&gt;Node30 -->
<g id="edge35" class="edge">
<title>Node28&#45;&gt;Node30</title>
<path fill="none" stroke="midnightblue" d="M954.63,-375.31C933.11,-362.93 906.17,-347.43 889.79,-338.01"/>
<polygon fill="midnightblue" stroke="midnightblue" points="953.07,-378.44 963.48,-380.4 956.56,-372.38 953.07,-378.44"/>
</g>
<!-- Node34 -->
<g id="node34" class="node">
<title>Node34</title>
<g id="a_node34"><a xlink:href="d__bomb_8h.html" target="_top" xlink:title=" ">
<polygon fill="white" stroke="black" points="550.5,-319 550.5,-338 651.5,-338 651.5,-319 550.5,-319"/>
<text text-anchor="middle" x="601" y="-326" font-family="Helvetica,sans-Serif" font-size="10.00">include/d/d_bomb.h</text>
</a>
</g>
</g>
<!-- Node28&#45;&gt;Node34 -->
<g id="edge41" class="edge">
<title>Node28&#45;&gt;Node34</title>
<path fill="none" stroke="midnightblue" d="M925.66,-379.87C807.48,-358.55 774.42,-365.71 660,-344 651.19,-342.33 641.73,-340.17 633.02,-338.03"/>
<polygon fill="midnightblue" stroke="midnightblue" points="925.36,-383.38 935.83,-381.74 926.63,-376.49 925.36,-383.38"/>
</g>
<!-- Node35 -->
<g id="node35" class="node">
<title>Node35</title>
<g id="a_node35"><a xlink:href="d__particle__copoly_8h.html" target="_top" xlink:title=" ">
<polygon fill="white" stroke="black" points="950,-313.5 950,-343.5 1052,-343.5 1052,-313.5 950,-313.5"/>
<text text-anchor="start" x="958" y="-331.5" font-family="Helvetica,sans-Serif" font-size="10.00">include/d/particle</text>
<text text-anchor="middle" x="1001" y="-320.5" font-family="Helvetica,sans-Serif" font-size="10.00">/d_particle_copoly.h</text>
</a>
</g>
</g>
<!-- Node28&#45;&gt;Node35 -->
<g id="edge43" class="edge">
<title>Node28&#45;&gt;Node35</title>
<path fill="none" stroke="midnightblue" d="M992.82,-370.4C994.63,-361.37 996.62,-351.41 998.18,-343.58"/>
<polygon fill="midnightblue" stroke="midnightblue" points="989.35,-369.9 990.82,-380.4 996.21,-371.28 989.35,-369.9"/>
</g>
<!-- Node31 -->
<g id="node31" class="node">
<title>Node31</title>
<g id="a_node31"><a xlink:href="d__bg__w_8cpp.html" target="_top" xlink:title=" ">
<polygon fill="white" stroke="black" points="641.5,-252 641.5,-271 748.5,-271 748.5,-252 641.5,-252"/>
<text text-anchor="middle" x="695" y="-259" font-family="Helvetica,sans-Serif" font-size="10.00">src/d/bg/d_bg_w.cpp</text>
</a>
</g>
</g>
<!-- Node30&#45;&gt;Node31 -->
<g id="edge36" class="edge">
<title>Node30&#45;&gt;Node31</title>
<path fill="none" stroke="midnightblue" d="M841.59,-315.44C805.88,-302.54 750.17,-282.42 718.71,-271.06"/>
<polygon fill="midnightblue" stroke="midnightblue" points="840.5,-318.76 851.1,-318.87 842.88,-312.18 840.5,-318.76"/>
</g>
<!-- Node32 -->
<g id="node32" class="node">
<title>Node32</title>
<g id="a_node32"><a xlink:href="d__bg__s_8h.html" target="_top" xlink:title=" ">
<polygon fill="white" stroke="black" points="766.5,-252 766.5,-271 877.5,-271 877.5,-252 766.5,-252"/>
<text text-anchor="middle" x="822" y="-259" font-family="Helvetica,sans-Serif" font-size="10.00">include/d/bg/d_bg_s.h</text>
</a>
</g>
</g>
<!-- Node30&#45;&gt;Node32 -->
<g id="edge37" class="edge">
<title>Node30&#45;&gt;Node32</title>
<path fill="none" stroke="midnightblue" d="M861.36,-310.77C851.03,-298.1 837.25,-281.2 829.03,-271.13"/>
<polygon fill="midnightblue" stroke="midnightblue" points="858.82,-313.2 867.85,-318.73 864.25,-308.77 858.82,-313.2"/>
</g>
<!-- Node32&#45;&gt;Node22 -->
<g id="edge39" class="edge">
<title>Node32&#45;&gt;Node22</title>
<path fill="none" stroke="midnightblue" d="M856.61,-248.73C890.63,-237.17 941.72,-219.8 971.97,-209.51"/>
<polygon fill="midnightblue" stroke="midnightblue" points="855.41,-245.44 847.07,-251.98 857.67,-252.07 855.41,-245.44"/>
</g>
<!-- Node32&#45;&gt;Node23 -->
<g id="edge40" class="edge">
<title>Node32&#45;&gt;Node23</title>
<path fill="none" stroke="midnightblue" d="M840.21,-245.7C860.8,-229.68 895.92,-204.49 930,-190 983.74,-167.16 1049.45,-153.8 1094.99,-146.62"/>
<polygon fill="midnightblue" stroke="midnightblue" points="837.99,-242.99 832.32,-251.94 842.33,-248.48 837.99,-242.99"/>
</g>
<!-- Node33 -->
<g id="node33" class="node">
<title>Node33</title>
<g id="a_node33"><a xlink:href="d__bg__s_8cpp.html" target="_top" xlink:title=" ">
<polygon fill="white" stroke="black" points="770,-190.5 770,-209.5 874,-209.5 874,-190.5 770,-190.5"/>
<text text-anchor="middle" x="822" y="-197.5" font-family="Helvetica,sans-Serif" font-size="10.00">src/d/bg/d_bg_s.cpp</text>
</a>
</g>
</g>
<!-- Node32&#45;&gt;Node33 -->
<g id="edge38" class="edge">
<title>Node32&#45;&gt;Node33</title>
<path fill="none" stroke="midnightblue" d="M822,-241.82C822,-231 822,-217.9 822,-209.51"/>
<polygon fill="midnightblue" stroke="midnightblue" points="818.5,-241.98 822,-251.98 825.5,-241.98 818.5,-241.98"/>
</g>
<!-- Node34&#45;&gt;Node14 -->
<g id="edge42" class="edge">
<title>Node34&#45;&gt;Node14</title>
<path fill="none" stroke="midnightblue" d="M591.94,-309.66C585.58,-297.13 577.35,-280.91 572.38,-271.13"/>
<polygon fill="midnightblue" stroke="midnightblue" points="588.9,-311.4 596.55,-318.73 595.14,-308.23 588.9,-311.4"/>
</g>
<!-- Node35&#45;&gt;Node22 -->
<g id="edge45" class="edge">
<title>Node35&#45;&gt;Node22</title>
<path fill="none" stroke="midnightblue" d="M957.09,-308.46C944.43,-300.65 932.12,-290.27 925,-277 918.49,-264.86 918.32,-258.05 925,-246 934.86,-228.21 955.01,-216.52 971.5,-209.53"/>
<polygon fill="midnightblue" stroke="midnightblue" points="955.44,-311.54 965.86,-313.45 958.9,-305.46 955.44,-311.54"/>
</g>
<!-- Node36 -->
<g id="node36" class="node">
<title>Node36</title>
<g id="a_node36"><a xlink:href="d__particle__copoly_8cpp.html" target="_top" xlink:title=" ">
<polygon fill="white" stroke="black" points="934,-246.5 934,-276.5 1052,-276.5 1052,-246.5 934,-246.5"/>
<text text-anchor="start" x="942" y="-264.5" font-family="Helvetica,sans-Serif" font-size="10.00">src/d/particle/d_particle</text>
<text text-anchor="middle" x="993" y="-253.5" font-family="Helvetica,sans-Serif" font-size="10.00">_copoly.cpp</text>
</a>
</g>
</g>
<!-- Node35&#45;&gt;Node36 -->
<g id="edge44" class="edge">
<title>Node35&#45;&gt;Node36</title>
<path fill="none" stroke="midnightblue" d="M998.03,-303.4C996.92,-294.37 995.7,-284.41 994.73,-276.58"/>
<polygon fill="midnightblue" stroke="midnightblue" points="994.57,-303.9 999.26,-313.4 1001.52,-303.04 994.57,-303.9"/>
</g>
<!-- Node37&#45;&gt;Node22 -->
<g id="edge48" class="edge">
<title>Node37&#45;&gt;Node22</title>
<path fill="none" stroke="midnightblue" d="M1131.35,-248.58C1098.7,-237.02 1049.95,-219.75 1021.03,-209.51"/>
<polygon fill="midnightblue" stroke="midnightblue" points="1130.33,-251.94 1140.93,-251.98 1132.67,-245.34 1130.33,-251.94"/>
</g>
<!-- Node37&#45;&gt;Node23 -->
<g id="edge49" class="edge">
<title>Node37&#45;&gt;Node23</title>
<path fill="none" stroke="midnightblue" d="M1139.63,-246.51C1126.68,-237.86 1112.19,-225.45 1105,-210 1095.38,-189.33 1114.49,-167.5 1130.7,-153.7"/>
<polygon fill="midnightblue" stroke="midnightblue" points="1137.89,-249.56 1148.23,-251.89 1141.61,-243.62 1137.89,-249.56"/>
</g>
<!-- Node38 -->
<g id="node38" class="node">
<title>Node38</title>
<g id="a_node38"><a xlink:href="d__attention_8cpp.html" target="_top" xlink:title=" ">
<polygon fill="white" stroke="black" points="1114.5,-190.5 1114.5,-209.5 1221.5,-209.5 1221.5,-190.5 1114.5,-190.5"/>
<text text-anchor="middle" x="1168" y="-197.5" font-family="Helvetica,sans-Serif" font-size="10.00">src/d/d_attention.cpp</text>
</a>
</g>
</g>
<!-- Node37&#45;&gt;Node38 -->
<g id="edge47" class="edge">
<title>Node37&#45;&gt;Node38</title>
<path fill="none" stroke="midnightblue" d="M1165.94,-241.82C1166.49,-231 1167.15,-217.9 1167.57,-209.51"/>
<polygon fill="midnightblue" stroke="midnightblue" points="1162.44,-241.81 1165.43,-251.98 1169.43,-242.16 1162.44,-241.81"/>
</g>
<!-- Node39&#45;&gt;Node16 -->
<g id="edge51" class="edge">
<title>Node39&#45;&gt;Node16</title>
<path fill="none" stroke="midnightblue" d="M1302.17,-309.78C1324.94,-260.37 1388.57,-122.32 1405.06,-86.55"/>
<polygon fill="midnightblue" stroke="midnightblue" points="1298.97,-308.36 1297.96,-318.91 1305.32,-311.3 1298.97,-308.36"/>
</g>
<!-- Node39&#45;&gt;Node23 -->
<g id="edge52" class="edge">
<title>Node39&#45;&gt;Node23</title>
<path fill="none" stroke="midnightblue" d="M1294.97,-308.7C1295.44,-279.91 1292.24,-224.61 1264,-190 1249.15,-171.8 1226.41,-159.96 1205.14,-152.35"/>
<polygon fill="midnightblue" stroke="midnightblue" points="1291.46,-308.85 1294.62,-318.96 1298.46,-309.09 1291.46,-308.85"/>
</g>
<!-- Node41 -->
<g id="node41" class="node">
<title>Node41</title>
<g id="a_node41"><a xlink:href="d__event__data_8cpp.html" target="_top" xlink:title=" ">
<polygon fill="white" stroke="black" points="1444.5,-380.5 1444.5,-410.5 1547.5,-410.5 1547.5,-380.5 1444.5,-380.5"/>
<text text-anchor="start" x="1452.5" y="-398.5" font-family="Helvetica,sans-Serif" font-size="10.00">src/d/event/d_event</text>
<text text-anchor="middle" x="1496" y="-387.5" font-family="Helvetica,sans-Serif" font-size="10.00">_data.cpp</text>
</a>
</g>
</g>
<!-- Node40&#45;&gt;Node41 -->
<g id="edge56" class="edge">
<title>Node40&#45;&gt;Node41</title>
<path fill="none" stroke="midnightblue" d="M1383.09,-443.54C1408.06,-433.14 1439.03,-420.24 1462.22,-410.58"/>
<polygon fill="midnightblue" stroke="midnightblue" points="1381.73,-440.32 1373.85,-447.4 1384.43,-446.78 1381.73,-440.32"/>
</g>
<!-- Node42 -->
<g id="node42" class="node">
<title>Node42</title>
<g id="a_node42"><a xlink:href="d__event__manager_8h.html" target="_top" xlink:title=" ">
<polygon fill="white" stroke="black" points="1306,-380.5 1306,-410.5 1426,-410.5 1426,-380.5 1306,-380.5"/>
<text text-anchor="start" x="1314" y="-398.5" font-family="Helvetica,sans-Serif" font-size="10.00">include/d/event/d_event</text>
<text text-anchor="middle" x="1366" y="-387.5" font-family="Helvetica,sans-Serif" font-size="10.00">_manager.h</text>
</a>
</g>
</g>
<!-- Node40&#45;&gt;Node42 -->
<g id="edge57" class="edge">
<title>Node40&#45;&gt;Node42</title>
<path fill="none" stroke="midnightblue" d="M1349.4,-437.99C1353.08,-428.8 1357.17,-418.58 1360.37,-410.58"/>
<polygon fill="midnightblue" stroke="midnightblue" points="1346.11,-436.81 1345.64,-447.4 1352.61,-439.41 1346.11,-436.81"/>
</g>
<!-- Node42&#45;&gt;Node23 -->
<g id="edge59" class="edge">
<title>Node42&#45;&gt;Node23</title>
<path fill="none" stroke="midnightblue" d="M1370.09,-370.35C1371.98,-353.84 1372.7,-331.65 1367,-313 1347.71,-249.93 1335.74,-230.89 1284,-190 1261.08,-171.89 1230.97,-159.76 1205.1,-151.95"/>
<polygon fill="midnightblue" stroke="midnightblue" points="1366.62,-369.91 1368.74,-380.29 1373.55,-370.85 1366.62,-369.91"/>
</g>
<!-- Node42&#45;&gt;Node39 -->
<g id="edge60" class="edge">
<title>Node42&#45;&gt;Node39</title>
<path fill="none" stroke="midnightblue" d="M1342.93,-373.67C1329.64,-361.67 1313.63,-347.22 1303.63,-338.19"/>
<polygon fill="midnightblue" stroke="midnightblue" points="1340.61,-376.29 1350.38,-380.4 1345.3,-371.1 1340.61,-376.29"/>
</g>
<!-- Node43 -->
<g id="node43" class="node">
<title>Node43</title>
<g id="a_node43"><a xlink:href="d__event__manager_8cpp.html" target="_top" xlink:title=" ">
<polygon fill="white" stroke="black" points="1414.5,-313.5 1414.5,-343.5 1517.5,-343.5 1517.5,-313.5 1414.5,-313.5"/>
<text text-anchor="start" x="1422.5" y="-331.5" font-family="Helvetica,sans-Serif" font-size="10.00">src/d/event/d_event</text>
<text text-anchor="middle" x="1466" y="-320.5" font-family="Helvetica,sans-Serif" font-size="10.00">_manager.cpp</text>
</a>
</g>
</g>
<!-- Node42&#45;&gt;Node43 -->
<g id="edge58" class="edge">
<title>Node42&#45;&gt;Node43</title>
<path fill="none" stroke="midnightblue" d="M1396.41,-374.73C1411.88,-364.68 1430.33,-352.68 1444.34,-343.58"/>
<polygon fill="midnightblue" stroke="midnightblue" points="1394.18,-372.01 1387.7,-380.4 1397.99,-377.88 1394.18,-372.01"/>
</g>
</g>
</svg>
