<?xml version="1.0" encoding="UTF-8" standalone="no"?>
<!DOCTYPE svg PUBLIC "-//W3C//DTD SVG 1.1//EN"
 "http://www.w3.org/Graphics/SVG/1.1/DTD/svg11.dtd">
<!-- Generated by graphviz version 2.44.0 ()
 -->
<!-- Title: include/f_pc/f_pc_create_tag.h Pages: 1 -->
<!--zoomable 307 -->
<svg id="main" version="1.1" xmlns="http://www.w3.org/2000/svg" xmlns:xlink="http://www.w3.org/1999/xlink" xml:space="preserve" onload="init(evt)">
<style type="text/css"><![CDATA[
.edge:hover path { stroke: red; }
.edge:hover polygon { stroke: red; fill: red; }
]]></style>
<script type="text/javascript"><![CDATA[
var edges = document.getElementsByTagName('g');
if (edges && edges.length) {
  for (var i=0;i<edges.length;i++) {
    if (edges[i].id.substr(0,4)=='edge') {
      edges[i].setAttribute('class','edge');
    }
  }
}
]]></script>
        <defs>
                <circle id="rim" cx="0" cy="0" r="7"/>
                <circle id="rim2" cx="0" cy="0" r="3.5"/>
                <g id="zoomPlus">
                        <use xlink:href="#rim" fill="#404040">
                                <set attributeName="fill" to="#808080" begin="zoomplus.mouseover" end="zoomplus.mouseout"/>
                        </use>
                        <path d="M-4,0h8M0,-4v8" fill="none" stroke="white" stroke-width="1.5" pointer-events="none"/>
                </g>
                <g id="zoomMin">
                        <use xlink:href="#rim" fill="#404040">
                                <set attributeName="fill" to="#808080" begin="zoomminus.mouseover" end="zoomminus.mouseout"/>
                        </use>
                        <path d="M-4,0h8" fill="none" stroke="white" stroke-width="1.5" pointer-events="none"/>
                </g>
                <g id="dirArrow">
                        <path fill="none" stroke="white" stroke-width="1.5" d="M0,-3.0v7 M-2.5,-0.5L0,-3.0L2.5,-0.5"/>
                </g>
               <g id="resetDef">
                       <use xlink:href="#rim2" fill="#404040">
                               <set attributeName="fill" to="#808080" begin="reset.mouseover" end="reset.mouseout"/>
                       </use>
               </g>
        </defs>

<script type="text/javascript">
var viewWidth = 1050;
var viewHeight = 307;
var sectionId = 'dynsection-1';
</script>
<script xlink:href="svgpan.js"/>
<svg id="graph" class="graph">
<g id="viewport">
<title>include/f_pc/f_pc_create_tag.h</title>
<polygon fill="white" stroke="transparent" points="-4,4 -4,-303 1046,-303 1046,4 -4,4"/>
<!-- Node1 -->
<g id="node1" class="node">
<title>Node1</title>
<g id="a_node1"><a xlink:title=" ">
<polygon fill="#bfbfbf" stroke="black" points="387.5,-268.5 387.5,-298.5 510.5,-298.5 510.5,-268.5 387.5,-268.5"/>
<text text-anchor="start" x="395.5" y="-286.5" font-family="Helvetica,sans-Serif" font-size="10.00">include/f_pc/f_pc_create</text>
<text text-anchor="middle" x="449" y="-275.5" font-family="Helvetica,sans-Serif" font-size="10.00">_tag.h</text>
</a>
</g>
</g>
<!-- Node2 -->
<g id="node2" class="node">
<title>Node2</title>
<g id="a_node2"><a xlink:href="f__pc__create__tag_8cpp.html" target="_top" xlink:title=" ">
<polygon fill="white" stroke="black" points="156,-201.5 156,-231.5 262,-231.5 262,-201.5 156,-201.5"/>
<text text-anchor="start" x="164" y="-219.5" font-family="Helvetica,sans-Serif" font-size="10.00">src/f_pc/f_pc_create</text>
<text text-anchor="middle" x="209" y="-208.5" font-family="Helvetica,sans-Serif" font-size="10.00">_tag.cpp</text>
</a>
</g>
</g>
<!-- Node1&#45;&gt;Node2 -->
<g id="edge1" class="edge">
<title>Node1&#45;&gt;Node2</title>
<path fill="none" stroke="midnightblue" d="M387.52,-265.85C348.39,-255.25 298.27,-241.68 261.1,-231.61"/>
<polygon fill="midnightblue" stroke="midnightblue" points="386.65,-269.24 397.22,-268.48 388.48,-262.48 386.65,-269.24"/>
</g>
<!-- Node3 -->
<g id="node3" class="node">
<title>Node3</title>
<g id="a_node3"><a xlink:href="f__pc__create__req_8cpp.html" target="_top" xlink:title=" ">
<polygon fill="white" stroke="black" points="396,-134.5 396,-164.5 502,-164.5 502,-134.5 396,-134.5"/>
<text text-anchor="start" x="404" y="-152.5" font-family="Helvetica,sans-Serif" font-size="10.00">src/f_pc/f_pc_create</text>
<text text-anchor="middle" x="449" y="-141.5" font-family="Helvetica,sans-Serif" font-size="10.00">_req.cpp</text>
</a>
</g>
</g>
<!-- Node1&#45;&gt;Node3 -->
<g id="edge2" class="edge">
<title>Node1&#45;&gt;Node3</title>
<path fill="none" stroke="midnightblue" d="M449,-258.02C449,-230.51 449,-186.79 449,-164.52"/>
<polygon fill="midnightblue" stroke="midnightblue" points="445.5,-258.37 449,-268.37 452.5,-258.37 445.5,-258.37"/>
</g>
<!-- Node4 -->
<g id="node4" class="node">
<title>Node4</title>
<g id="a_node4"><a xlink:href="f__pc__line__iter_8cpp.html" target="_top" xlink:title=" ">
<polygon fill="white" stroke="black" points="643,-201.5 643,-231.5 737,-231.5 737,-201.5 643,-201.5"/>
<text text-anchor="start" x="651" y="-219.5" font-family="Helvetica,sans-Serif" font-size="10.00">src/f_pc/f_pc_line</text>
<text text-anchor="middle" x="690" y="-208.5" font-family="Helvetica,sans-Serif" font-size="10.00">_iter.cpp</text>
</a>
</g>
</g>
<!-- Node1&#45;&gt;Node4 -->
<g id="edge3" class="edge">
<title>Node1&#45;&gt;Node4</title>
<path fill="none" stroke="midnightblue" d="M510.66,-265.87C551.86,-254.76 605.22,-240.37 642.99,-230.18"/>
<polygon fill="midnightblue" stroke="midnightblue" points="509.74,-262.49 501,-268.48 511.56,-269.25 509.74,-262.49"/>
</g>
<!-- Node5 -->
<g id="node5" class="node">
<title>Node5</title>
<g id="a_node5"><a xlink:href="f__pc__create__req_8h.html" target="_top" xlink:title=" ">
<polygon fill="white" stroke="black" points="501.5,-201.5 501.5,-231.5 624.5,-231.5 624.5,-201.5 501.5,-201.5"/>
<text text-anchor="start" x="509.5" y="-219.5" font-family="Helvetica,sans-Serif" font-size="10.00">include/f_pc/f_pc_create</text>
<text text-anchor="middle" x="563" y="-208.5" font-family="Helvetica,sans-Serif" font-size="10.00">_req.h</text>
</a>
</g>
</g>
<!-- Node1&#45;&gt;Node5 -->
<g id="edge4" class="edge">
<title>Node1&#45;&gt;Node5</title>
<path fill="none" stroke="midnightblue" d="M482.68,-263.3C500.52,-253.12 522.04,-240.85 538.31,-231.58"/>
<polygon fill="midnightblue" stroke="midnightblue" points="480.69,-260.4 473.74,-268.4 484.16,-266.48 480.69,-260.4"/>
</g>
<!-- Node22 -->
<g id="node22" class="node">
<title>Node22</title>
<g id="a_node22"><a xlink:href="f__pc__create__iter_8h.html" target="_top" xlink:title=" ">
<polygon fill="white" stroke="black" points="280.5,-201.5 280.5,-231.5 403.5,-231.5 403.5,-201.5 280.5,-201.5"/>
<text text-anchor="start" x="288.5" y="-219.5" font-family="Helvetica,sans-Serif" font-size="10.00">include/f_pc/f_pc_create</text>
<text text-anchor="middle" x="342" y="-208.5" font-family="Helvetica,sans-Serif" font-size="10.00">_iter.h</text>
</a>
</g>
</g>
<!-- Node1&#45;&gt;Node22 -->
<g id="edge24" class="edge">
<title>Node1&#45;&gt;Node22</title>
<path fill="none" stroke="midnightblue" d="M416.92,-263.02C400.27,-252.9 380.31,-240.77 365.17,-231.58"/>
<polygon fill="midnightblue" stroke="midnightblue" points="415.42,-266.2 425.78,-268.4 419.05,-260.21 415.42,-266.2"/>
</g>
<!-- Node5&#45;&gt;Node3 -->
<g id="edge7" class="edge">
<title>Node5&#45;&gt;Node3</title>
<path fill="none" stroke="midnightblue" d="M529.32,-196.3C511.48,-186.12 489.96,-173.85 473.69,-164.58"/>
<polygon fill="midnightblue" stroke="midnightblue" points="527.84,-199.48 538.26,-201.4 531.31,-193.4 527.84,-199.48"/>
</g>
<!-- Node6 -->
<g id="node6" class="node">
<title>Node6</title>
<g id="a_node6"><a xlink:href="f__pc__create__iter_8cpp.html" target="_top" xlink:title=" ">
<polygon fill="white" stroke="black" points="272,-134.5 272,-164.5 378,-164.5 378,-134.5 272,-134.5"/>
<text text-anchor="start" x="280" y="-152.5" font-family="Helvetica,sans-Serif" font-size="10.00">src/f_pc/f_pc_create</text>
<text text-anchor="middle" x="325" y="-141.5" font-family="Helvetica,sans-Serif" font-size="10.00">_iter.cpp</text>
</a>
</g>
</g>
<!-- Node5&#45;&gt;Node6 -->
<g id="edge5" class="edge">
<title>Node5&#45;&gt;Node6</title>
<path fill="none" stroke="midnightblue" d="M501.54,-198.71C462.81,-188.14 413.37,-174.63 376.67,-164.61"/>
<polygon fill="midnightblue" stroke="midnightblue" points="501.08,-202.22 511.65,-201.48 502.93,-195.46 501.08,-202.22"/>
</g>
<!-- Node7 -->
<g id="node7" class="node">
<title>Node7</title>
<g id="a_node7"><a xlink:href="f__pc__creator_8cpp.html" target="_top" xlink:title=" ">
<polygon fill="white" stroke="black" points="866.5,-140 866.5,-159 993.5,-159 993.5,-140 866.5,-140"/>
<text text-anchor="middle" x="930" y="-147" font-family="Helvetica,sans-Serif" font-size="10.00">src/f_pc/f_pc_creator.cpp</text>
</a>
</g>
</g>
<!-- Node5&#45;&gt;Node7 -->
<g id="edge6" class="edge">
<title>Node5&#45;&gt;Node7</title>
<path fill="none" stroke="midnightblue" d="M634.55,-200.94C732.24,-183.08 758.39,-181.43 852,-165 862.72,-163.12 874.25,-161.02 885.07,-159.01"/>
<polygon fill="midnightblue" stroke="midnightblue" points="633.75,-197.53 624.55,-202.78 635.01,-204.42 633.75,-197.53"/>
</g>
<!-- Node8 -->
<g id="node8" class="node">
<title>Node8</title>
<g id="a_node8"><a xlink:href="f__pc__node__req_8cpp.html" target="_top" xlink:title=" ">
<polygon fill="white" stroke="black" points="942,-67.5 942,-97.5 1042,-97.5 1042,-67.5 942,-67.5"/>
<text text-anchor="start" x="950" y="-85.5" font-family="Helvetica,sans-Serif" font-size="10.00">src/f_pc/f_pc_node</text>
<text text-anchor="middle" x="992" y="-74.5" font-family="Helvetica,sans-Serif" font-size="10.00">_req.cpp</text>
</a>
</g>
</g>
<!-- Node5&#45;&gt;Node8 -->
<g id="edge8" class="edge">
<title>Node5&#45;&gt;Node8</title>
<path fill="none" stroke="midnightblue" d="M634.5,-200.99C718.2,-185.7 745.75,-198.76 819,-165 839.11,-155.73 838.74,-144.93 858,-134 885.03,-118.67 917.61,-106.27 943.88,-97.59"/>
<polygon fill="midnightblue" stroke="midnightblue" points="633.73,-197.57 624.57,-202.89 635.05,-204.45 633.73,-197.57"/>
</g>
<!-- Node9 -->
<g id="node9" class="node">
<title>Node9</title>
<g id="a_node9"><a xlink:href="f__pc__fstcreate__req_8h.html" target="_top" xlink:title=" ">
<polygon fill="white" stroke="black" points="520,-134.5 520,-164.5 654,-164.5 654,-134.5 520,-134.5"/>
<text text-anchor="start" x="528" y="-152.5" font-family="Helvetica,sans-Serif" font-size="10.00">include/f_pc/f_pc_fstcreate</text>
<text text-anchor="middle" x="587" y="-141.5" font-family="Helvetica,sans-Serif" font-size="10.00">_req.h</text>
</a>
</g>
</g>
<!-- Node5&#45;&gt;Node9 -->
<g id="edge9" class="edge">
<title>Node5&#45;&gt;Node9</title>
<path fill="none" stroke="midnightblue" d="M571.68,-191.99C575.07,-182.8 578.85,-172.58 581.8,-164.58"/>
<polygon fill="midnightblue" stroke="midnightblue" points="568.39,-190.8 568.21,-201.4 574.95,-193.23 568.39,-190.8"/>
</g>
<!-- Node18 -->
<g id="node18" class="node">
<title>Node18</title>
<g id="a_node18"><a xlink:href="f__pc__stdcreate__req_8h.html" target="_top" xlink:title=" ">
<polygon fill="white" stroke="black" points="672.5,-134.5 672.5,-164.5 809.5,-164.5 809.5,-134.5 672.5,-134.5"/>
<text text-anchor="start" x="680.5" y="-152.5" font-family="Helvetica,sans-Serif" font-size="10.00">include/f_pc/f_pc_stdcreate</text>
<text text-anchor="middle" x="741" y="-141.5" font-family="Helvetica,sans-Serif" font-size="10.00">_req.h</text>
</a>
</g>
</g>
<!-- Node5&#45;&gt;Node18 -->
<g id="edge18" class="edge">
<title>Node5&#45;&gt;Node18</title>
<path fill="none" stroke="midnightblue" d="M611.05,-197.96C639.72,-187.48 675.64,-174.37 702.45,-164.58"/>
<polygon fill="midnightblue" stroke="midnightblue" points="609.82,-194.68 601.62,-201.4 612.22,-201.25 609.82,-194.68"/>
</g>
<!-- Node10 -->
<g id="node10" class="node">
<title>Node10</title>
<g id="a_node10"><a xlink:href="f__pc__fstcreate__req_8cpp.html" target="_top" xlink:title=" ">
<polygon fill="white" stroke="black" points="275.5,-67.5 275.5,-97.5 392.5,-97.5 392.5,-67.5 275.5,-67.5"/>
<text text-anchor="start" x="283.5" y="-85.5" font-family="Helvetica,sans-Serif" font-size="10.00">src/f_pc/f_pc_fstcreate</text>
<text text-anchor="middle" x="334" y="-74.5" font-family="Helvetica,sans-Serif" font-size="10.00">_req.cpp</text>
</a>
</g>
</g>
<!-- Node9&#45;&gt;Node10 -->
<g id="edge10" class="edge">
<title>Node9&#45;&gt;Node10</title>
<path fill="none" stroke="midnightblue" d="M522.72,-131.98C481.39,-121.37 428.27,-107.72 388.92,-97.61"/>
<polygon fill="midnightblue" stroke="midnightblue" points="521.86,-135.38 532.41,-134.48 523.6,-128.6 521.86,-135.38"/>
</g>
<!-- Node11 -->
<g id="node11" class="node">
<title>Node11</title>
<g id="a_node11"><a xlink:href="f__pc__manager_8cpp.html" target="_top" xlink:title=" ">
<polygon fill="white" stroke="black" points="0,-73 0,-92 134,-92 134,-73 0,-73"/>
<text text-anchor="middle" x="67" y="-80" font-family="Helvetica,sans-Serif" font-size="10.00">src/f_pc/f_pc_manager.cpp</text>
</a>
</g>
</g>
<!-- Node9&#45;&gt;Node11 -->
<g id="edge11" class="edge">
<title>Node9&#45;&gt;Node11</title>
<path fill="none" stroke="midnightblue" d="M510.01,-133.95C346.63,-110.99 302.48,-120.97 143,-98 131.57,-96.35 119.24,-94.18 107.91,-92.01"/>
<polygon fill="midnightblue" stroke="midnightblue" points="509.53,-137.41 519.92,-135.36 510.51,-130.48 509.53,-137.41"/>
</g>
<!-- Node12 -->
<g id="node12" class="node">
<title>Node12</title>
<g id="a_node12"><a xlink:href="f__op__actor__mng_8h.html" target="_top" xlink:title=" ">
<polygon fill="white" stroke="black" points="539,-67.5 539,-97.5 657,-97.5 657,-67.5 539,-67.5"/>
<text text-anchor="start" x="547" y="-85.5" font-family="Helvetica,sans-Serif" font-size="10.00">include/f_op/f_op_actor</text>
<text text-anchor="middle" x="598" y="-74.5" font-family="Helvetica,sans-Serif" font-size="10.00">_mng.h</text>
</a>
</g>
</g>
<!-- Node9&#45;&gt;Node12 -->
<g id="edge12" class="edge">
<title>Node9&#45;&gt;Node12</title>
<path fill="none" stroke="midnightblue" d="M591.08,-124.4C592.61,-115.37 594.29,-105.41 595.62,-97.58"/>
<polygon fill="midnightblue" stroke="midnightblue" points="587.6,-123.95 589.39,-134.4 594.51,-125.12 587.6,-123.95"/>
</g>
<!-- Node13 -->
<g id="node13" class="node">
<title>Node13</title>
<g id="a_node13"><a xlink:href="d__a__player_8cpp.html" target="_top" xlink:title=" ">
<polygon fill="white" stroke="black" points="299,-6 299,-25 413,-25 413,-6 299,-6"/>
<text text-anchor="middle" x="356" y="-13" font-family="Helvetica,sans-Serif" font-size="10.00">src/d/a/d_a_player.cpp</text>
</a>
</g>
</g>
<!-- Node12&#45;&gt;Node13 -->
<g id="edge13" class="edge">
<title>Node12&#45;&gt;Node13</title>
<path fill="none" stroke="midnightblue" d="M535.94,-64.83C488.58,-52.11 425.27,-35.11 387.75,-25.03"/>
<polygon fill="midnightblue" stroke="midnightblue" points="535.22,-68.26 545.79,-67.48 537.04,-61.5 535.22,-68.26"/>
</g>
<!-- Node14 -->
<g id="node14" class="node">
<title>Node14</title>
<g id="a_node14"><a xlink:href="d__bomb_8cpp.html" target="_top" xlink:title=" ">
<polygon fill="white" stroke="black" points="431,-6 431,-25 525,-25 525,-6 431,-6"/>
<text text-anchor="middle" x="478" y="-13" font-family="Helvetica,sans-Serif" font-size="10.00">src/d/d_bomb.cpp</text>
</a>
</g>
</g>
<!-- Node12&#45;&gt;Node14 -->
<g id="edge14" class="edge">
<title>Node12&#45;&gt;Node14</title>
<path fill="none" stroke="midnightblue" d="M562.87,-62.47C539.96,-50.06 511.18,-34.47 493.71,-25.01"/>
<polygon fill="midnightblue" stroke="midnightblue" points="561.5,-65.71 571.96,-67.4 564.84,-59.56 561.5,-65.71"/>
</g>
<!-- Node15 -->
<g id="node15" class="node">
<title>Node15</title>
<g id="a_node15"><a xlink:href="d__a__alink_8cpp.html" target="_top" xlink:title=" ">
<polygon fill="white" stroke="black" points="543.5,-6 543.5,-25 652.5,-25 652.5,-6 543.5,-6"/>
<text text-anchor="middle" x="598" y="-13" font-family="Helvetica,sans-Serif" font-size="10.00">src/d/a/d_a_alink.cpp</text>
</a>
</g>
</g>
<!-- Node12&#45;&gt;Node15 -->
<g id="edge15" class="edge">
<title>Node12&#45;&gt;Node15</title>
<path fill="none" stroke="midnightblue" d="M598,-57.25C598,-46.02 598,-33.38 598,-25.19"/>
<polygon fill="midnightblue" stroke="midnightblue" points="594.5,-57.4 598,-67.4 601.5,-57.4 594.5,-57.4"/>
</g>
<!-- Node16 -->
<g id="node16" class="node">
<title>Node16</title>
<g id="a_node16"><a xlink:href="d__event_8cpp.html" target="_top" xlink:title=" ">
<polygon fill="white" stroke="black" points="670.5,-6 670.5,-25 791.5,-25 791.5,-6 670.5,-6"/>
<text text-anchor="middle" x="731" y="-13" font-family="Helvetica,sans-Serif" font-size="10.00">src/d/event/d_event.cpp</text>
</a>
</g>
</g>
<!-- Node12&#45;&gt;Node16 -->
<g id="edge16" class="edge">
<title>Node12&#45;&gt;Node16</title>
<path fill="none" stroke="midnightblue" d="M635.92,-62.97C661.47,-50.48 693.97,-34.6 713.59,-25.01"/>
<polygon fill="midnightblue" stroke="midnightblue" points="634.31,-59.86 626.86,-67.4 637.38,-66.15 634.31,-59.86"/>
</g>
<!-- Node17 -->
<g id="node17" class="node">
<title>Node17</title>
<g id="a_node17"><a xlink:href="f__op__actor__mng_8cpp.html" target="_top" xlink:title=" ">
<polygon fill="white" stroke="black" points="809.5,-0.5 809.5,-30.5 910.5,-30.5 910.5,-0.5 809.5,-0.5"/>
<text text-anchor="start" x="817.5" y="-18.5" font-family="Helvetica,sans-Serif" font-size="10.00">src/f_op/f_op_actor</text>
<text text-anchor="middle" x="860" y="-7.5" font-family="Helvetica,sans-Serif" font-size="10.00">_mng.cpp</text>
</a>
</g>
</g>
<!-- Node12&#45;&gt;Node17 -->
<g id="edge17" class="edge">
<title>Node12&#45;&gt;Node17</title>
<path fill="none" stroke="midnightblue" d="M664.5,-65C709.52,-53.83 768.08,-39.3 809.33,-29.07"/>
<polygon fill="midnightblue" stroke="midnightblue" points="663.39,-61.67 654.53,-67.48 665.08,-68.47 663.39,-61.67"/>
</g>
<!-- Node18&#45;&gt;Node8 -->
<g id="edge21" class="edge">
<title>Node18&#45;&gt;Node8</title>
<path fill="none" stroke="midnightblue" d="M804.85,-131.97C847.35,-120.96 902.41,-106.7 941.78,-96.5"/>
<polygon fill="midnightblue" stroke="midnightblue" points="803.96,-128.58 795.15,-134.48 805.71,-135.36 803.96,-128.58"/>
</g>
<!-- Node18&#45;&gt;Node12 -->
<g id="edge23" class="edge">
<title>Node18&#45;&gt;Node12</title>
<path fill="none" stroke="midnightblue" d="M700.59,-130.13C677.87,-119.8 649.94,-107.11 628.97,-97.58"/>
<polygon fill="midnightblue" stroke="midnightblue" points="699.42,-133.44 709.97,-134.4 702.32,-127.07 699.42,-133.44"/>
</g>
<!-- Node19 -->
<g id="node19" class="node">
<title>Node19</title>
<g id="a_node19"><a xlink:href="f__op__camera__mng_8cpp.html" target="_top" xlink:title=" ">
<polygon fill="white" stroke="black" points="675.5,-67.5 675.5,-97.5 786.5,-97.5 786.5,-67.5 675.5,-67.5"/>
<text text-anchor="start" x="683.5" y="-85.5" font-family="Helvetica,sans-Serif" font-size="10.00">src/f_op/f_op_camera</text>
<text text-anchor="middle" x="731" y="-74.5" font-family="Helvetica,sans-Serif" font-size="10.00">_mng.cpp</text>
</a>
</g>
</g>
<!-- Node18&#45;&gt;Node19 -->
<g id="edge19" class="edge">
<title>Node18&#45;&gt;Node19</title>
<path fill="none" stroke="midnightblue" d="M737.29,-124.4C735.9,-115.37 734.37,-105.41 733.17,-97.58"/>
<polygon fill="midnightblue" stroke="midnightblue" points="733.85,-125.04 738.83,-134.4 740.77,-123.98 733.85,-125.04"/>
</g>
<!-- Node20 -->
<g id="node20" class="node">
<title>Node20</title>
<g id="a_node20"><a xlink:href="f__op__overlap__req_8cpp.html" target="_top" xlink:title=" ">
<polygon fill="white" stroke="black" points="411,-67.5 411,-97.5 521,-97.5 521,-67.5 411,-67.5"/>
<text text-anchor="start" x="419" y="-85.5" font-family="Helvetica,sans-Serif" font-size="10.00">src/f_op/f_op_overlap</text>
<text text-anchor="middle" x="466" y="-74.5" font-family="Helvetica,sans-Serif" font-size="10.00">_req.cpp</text>
</a>
</g>
</g>
<!-- Node18&#45;&gt;Node20 -->
<g id="edge20" class="edge">
<title>Node18&#45;&gt;Node20</title>
<path fill="none" stroke="midnightblue" d="M671.93,-132.17C625.24,-121.14 564.43,-106.77 521.02,-96.5"/>
<polygon fill="midnightblue" stroke="midnightblue" points="671.13,-135.58 681.67,-134.48 672.74,-128.77 671.13,-135.58"/>
</g>
<!-- Node21 -->
<g id="node21" class="node">
<title>Node21</title>
<g id="a_node21"><a xlink:href="f__pc__stdcreate__req_8cpp.html" target="_top" xlink:title=" ">
<polygon fill="white" stroke="black" points="804.5,-67.5 804.5,-97.5 923.5,-97.5 923.5,-67.5 804.5,-67.5"/>
<text text-anchor="start" x="812.5" y="-85.5" font-family="Helvetica,sans-Serif" font-size="10.00">src/f_pc/f_pc_stdcreate</text>
<text text-anchor="middle" x="864" y="-74.5" font-family="Helvetica,sans-Serif" font-size="10.00">_req.cpp</text>
</a>
</g>
</g>
<!-- Node18&#45;&gt;Node21 -->
<g id="edge22" class="edge">
<title>Node18&#45;&gt;Node21</title>
<path fill="none" stroke="midnightblue" d="M776.55,-129.71C795.95,-119.46 819.56,-106.98 837.36,-97.58"/>
<polygon fill="midnightblue" stroke="midnightblue" points="774.9,-126.63 767.69,-134.4 778.17,-132.82 774.9,-126.63"/>
</g>
<!-- Node22&#45;&gt;Node3 -->
<g id="edge26" class="edge">
<title>Node22&#45;&gt;Node3</title>
<path fill="none" stroke="midnightblue" d="M374.08,-196.02C390.73,-185.9 410.69,-173.77 425.83,-164.58"/>
<polygon fill="midnightblue" stroke="midnightblue" points="371.95,-193.21 365.22,-201.4 375.58,-199.2 371.95,-193.21"/>
</g>
<!-- Node22&#45;&gt;Node6 -->
<g id="edge25" class="edge">
<title>Node22&#45;&gt;Node6</title>
<path fill="none" stroke="midnightblue" d="M335.77,-191.7C333.39,-182.59 330.75,-172.49 328.68,-164.58"/>
<polygon fill="midnightblue" stroke="midnightblue" points="332.39,-192.61 338.31,-201.4 339.17,-190.84 332.39,-192.61"/>
</g>
<!-- Node22&#45;&gt;Node11 -->
<g id="edge27" class="edge">
<title>Node22&#45;&gt;Node11</title>
<path fill="none" stroke="midnightblue" d="M270.32,-200.76C200.53,-186.34 104.67,-166.36 103,-165 79.7,-146.1 71.04,-109.04 68.21,-92.2"/>
<polygon fill="midnightblue" stroke="midnightblue" points="269.92,-204.25 280.42,-202.84 271.33,-197.39 269.92,-204.25"/>
</g>
<!-- Node23 -->
<g id="node23" class="node">
<title>Node23</title>
<g id="a_node23"><a xlink:href="f__pc__manager_8h.html" target="_top" xlink:title=" ">
<polygon fill="white" stroke="black" points="112.5,-140 112.5,-159 253.5,-159 253.5,-140 112.5,-140"/>
<text text-anchor="middle" x="183" y="-147" font-family="Helvetica,sans-Serif" font-size="10.00">include/f_pc/f_pc_manager.h</text>
</a>
</g>
</g>
<!-- Node22&#45;&gt;Node23 -->
<g id="edge28" class="edge">
<title>Node22&#45;&gt;Node23</title>
<path fill="none" stroke="midnightblue" d="M297.87,-197.46C267.15,-184.9 227.58,-168.72 203.81,-159.01"/>
<polygon fill="midnightblue" stroke="midnightblue" points="296.92,-200.85 307.5,-201.4 299.57,-194.37 296.92,-200.85"/>
</g>
<!-- Node23&#45;&gt;Node11 -->
<g id="edge31" class="edge">
<title>Node23&#45;&gt;Node11</title>
<path fill="none" stroke="midnightblue" d="M158.53,-134.79C135.54,-121.9 101.84,-103.02 82.4,-92.13"/>
<polygon fill="midnightblue" stroke="midnightblue" points="156.92,-137.9 167.36,-139.73 160.34,-131.79 156.92,-137.9"/>
</g>
<!-- Node23&#45;&gt;Node12 -->
<g id="edge32" class="edge">
<title>Node23&#45;&gt;Node12</title>
<path fill="none" stroke="midnightblue" d="M238.21,-138.16C246.51,-136.7 254.97,-135.27 263,-134 381.27,-115.32 412.03,-118.5 530,-98 532.85,-97.5 535.77,-96.97 538.71,-96.42"/>
<polygon fill="midnightblue" stroke="midnightblue" points="237.44,-134.74 228.21,-139.94 238.67,-141.63 237.44,-134.74"/>
</g>
<!-- Node23&#45;&gt;Node20 -->
<g id="edge29" class="edge">
<title>Node23&#45;&gt;Node20</title>
<path fill="none" stroke="midnightblue" d="M230.15,-137.67C279.91,-126.24 358.28,-108.24 410.87,-96.16"/>
<polygon fill="midnightblue" stroke="midnightblue" points="229.25,-134.29 220.29,-139.94 230.82,-141.11 229.25,-134.29"/>
</g>
<!-- Node24 -->
<g id="node24" class="node">
<title>Node24</title>
<g id="a_node24"><a xlink:href="f__op__scene__pause_8cpp.html" target="_top" xlink:title=" ">
<polygon fill="white" stroke="black" points="152.5,-67.5 152.5,-97.5 257.5,-97.5 257.5,-67.5 152.5,-67.5"/>
<text text-anchor="start" x="160.5" y="-85.5" font-family="Helvetica,sans-Serif" font-size="10.00">src/f_op/f_op_scene</text>
<text text-anchor="middle" x="205" y="-74.5" font-family="Helvetica,sans-Serif" font-size="10.00">_pause.cpp</text>
</a>
</g>
</g>
<!-- Node23&#45;&gt;Node24 -->
<g id="edge30" class="edge">
<title>Node23&#45;&gt;Node24</title>
<path fill="none" stroke="midnightblue" d="M189.24,-130.06C192.73,-119.75 197.01,-107.1 200.23,-97.59"/>
<polygon fill="midnightblue" stroke="midnightblue" points="185.86,-129.14 185.97,-139.73 192.49,-131.38 185.86,-129.14"/>
</g>
</g>
</svg>
        <g id="navigator" transform="translate(0 0)" fill="#404254">
                <rect fill="#f2f5e9" fill-opacity="0.5" stroke="#606060" stroke-width=".5" x="0" y="0" width="60" height="60"/>
                <use id="zoomplus" xlink:href="#zoomPlus" x="17" y="9" onmousedown="handleZoom(evt,'in')"/>
                <use id="zoomminus" xlink:href="#zoomMin" x="42" y="9" onmousedown="handleZoom(evt,'out')"/>
                <use id="reset" xlink:href="#resetDef" x="30" y="36" onmousedown="handleReset()"/>
                <g id="arrowUp" xlink:href="#dirArrow" transform="translate(30 24)" onmousedown="handlePan(0,-1)">
                  <use xlink:href="#rim" fill="#404040">
                        <set attributeName="fill" to="#808080" begin="arrowUp.mouseover" end="arrowUp.mouseout"/>
                  </use>
                  <path fill="none" stroke="white" stroke-width="1.5" d="M0,-3.0v7 M-2.5,-0.5L0,-3.0L2.5,-0.5"/>
                </g>
                <g id="arrowRight" xlink:href="#dirArrow" transform="rotate(90) translate(36 -43)" onmousedown="handlePan(1,0)">
                  <use xlink:href="#rim" fill="#404040">
                        <set attributeName="fill" to="#808080" begin="arrowRight.mouseover" end="arrowRight.mouseout"/>
                  </use>
                  <path fill="none" stroke="white" stroke-width="1.5" d="M0,-3.0v7 M-2.5,-0.5L0,-3.0L2.5,-0.5"/>
                </g>
                <g id="arrowDown" xlink:href="#dirArrow" transform="rotate(180) translate(-30 -48)" onmousedown="handlePan(0,1)">
                  <use xlink:href="#rim" fill="#404040">
                        <set attributeName="fill" to="#808080" begin="arrowDown.mouseover" end="arrowDown.mouseout"/>
                  </use>
                  <path fill="none" stroke="white" stroke-width="1.5" d="M0,-3.0v7 M-2.5,-0.5L0,-3.0L2.5,-0.5"/>
                </g>
                <g id="arrowLeft" xlink:href="#dirArrow" transform="rotate(270) translate(-36 17)" onmousedown="handlePan(-1,0)">
                  <use xlink:href="#rim" fill="#404040">
                        <set attributeName="fill" to="#808080" begin="arrowLeft.mouseover" end="arrowLeft.mouseout"/>
                  </use>
                  <path fill="none" stroke="white" stroke-width="1.5" d="M0,-3.0v7 M-2.5,-0.5L0,-3.0L2.5,-0.5"/>
                </g>
        </g>
        <svg viewBox="0 0 15 15" width="100%" height="30px" preserveAspectRatio="xMaxYMin meet">
         <g id="arrow_out" transform="scale(0.3 0.3)">
          <a xlink:href="f__pc__create__tag_8h__dep__incl_org.svg" target="_base">
           <rect id="button" ry="5" rx="5" y="6" x="6" height="38" width="38"
                fill="#f2f5e9" fill-opacity="0.5" stroke="#606060" stroke-width="1.0"/>
           <path id="arrow"
             d="M 11.500037,31.436501 C 11.940474,20.09759 22.043105,11.32322 32.158766,21.979434 L 37.068811,17.246167 C 37.068811,17.246167 37.088388,32 37.088388,32 L 22.160133,31.978069 C 22.160133,31.978069 26.997745,27.140456 26.997745,27.140456 C 18.528582,18.264221 13.291696,25.230495 11.500037,31.436501 z"
             style="fill:#404040;"/>
          </a>
         </g>
        </svg>
</svg>
