<?xml version="1.0" encoding="UTF-8" standalone="no"?>
<!DOCTYPE svg PUBLIC "-//W3C//DTD SVG 1.1//EN"
 "http://www.w3.org/Graphics/SVG/1.1/DTD/svg11.dtd">
<!-- Generated by graphviz version 2.44.0 ()
 -->
<!-- Title: include/f_pc/f_pc_manager.h Pages: 1 -->
<!--zoomable 676 -->
<svg id="main" version="1.1" xmlns="http://www.w3.org/2000/svg" xmlns:xlink="http://www.w3.org/1999/xlink" xml:space="preserve" onload="init(evt)">
<style type="text/css"><![CDATA[
.edge:hover path { stroke: red; }
.edge:hover polygon { stroke: red; fill: red; }
]]></style>
<script type="text/javascript"><![CDATA[
var edges = document.getElementsByTagName('g');
if (edges && edges.length) {
  for (var i=0;i<edges.length;i++) {
    if (edges[i].id.substr(0,4)=='edge') {
      edges[i].setAttribute('class','edge');
    }
  }
}
]]></script>
        <defs>
                <circle id="rim" cx="0" cy="0" r="7"/>
                <circle id="rim2" cx="0" cy="0" r="3.5"/>
                <g id="zoomPlus">
                        <use xlink:href="#rim" fill="#404040">
                                <set attributeName="fill" to="#808080" begin="zoomplus.mouseover" end="zoomplus.mouseout"/>
                        </use>
                        <path d="M-4,0h8M0,-4v8" fill="none" stroke="white" stroke-width="1.5" pointer-events="none"/>
                </g>
                <g id="zoomMin">
                        <use xlink:href="#rim" fill="#404040">
                                <set attributeName="fill" to="#808080" begin="zoomminus.mouseover" end="zoomminus.mouseout"/>
                        </use>
                        <path d="M-4,0h8" fill="none" stroke="white" stroke-width="1.5" pointer-events="none"/>
                </g>
                <g id="dirArrow">
                        <path fill="none" stroke="white" stroke-width="1.5" d="M0,-3.0v7 M-2.5,-0.5L0,-3.0L2.5,-0.5"/>
                </g>
               <g id="resetDef">
                       <use xlink:href="#rim2" fill="#404040">
                               <set attributeName="fill" to="#808080" begin="reset.mouseover" end="reset.mouseout"/>
                       </use>
               </g>
        </defs>

<script type="text/javascript">
var viewWidth = 1386;
var viewHeight = 676;
var sectionId = 'dynsection-1';
</script>
<script xlink:href="svgpan.js"/>
<svg id="graph" class="graph">
<g id="viewport">
<title>include/f_pc/f_pc_manager.h</title>
<polygon fill="white" stroke="transparent" points="-4,4 -4,-672 1381.5,-672 1381.5,4 -4,4"/>
<!-- Node1 -->
<g id="node1" class="node">
<title>Node1</title>
<g id="a_node1"><a xlink:title=" ">
<polygon fill="#bfbfbf" stroke="black" points="492.5,-648.5 492.5,-667.5 633.5,-667.5 633.5,-648.5 492.5,-648.5"/>
<text text-anchor="middle" x="563" y="-655.5" font-family="Helvetica,sans-Serif" font-size="10.00">include/f_pc/f_pc_manager.h</text>
</a>
</g>
</g>
<!-- Node2 -->
<g id="node2" class="node">
<title>Node2</title>
<g id="a_node2"><a xlink:href="f__op__overlap__req_8cpp.html" target="_top" xlink:title=" ">
<polygon fill="white" stroke="black" points="313,-581.5 313,-611.5 423,-611.5 423,-581.5 313,-581.5"/>
<text text-anchor="start" x="321" y="-599.5" font-family="Helvetica,sans-Serif" font-size="10.00">src/f_op/f_op_overlap</text>
<text text-anchor="middle" x="368" y="-588.5" font-family="Helvetica,sans-Serif" font-size="10.00">_req.cpp</text>
</a>
</g>
</g>
<!-- Node1&#45;&gt;Node2 -->
<g id="edge1" class="edge">
<title>Node1&#45;&gt;Node2</title>
<path fill="none" stroke="midnightblue" d="M525.26,-645.48C493.46,-635.78 447.87,-621.87 413.96,-611.52"/>
<polygon fill="midnightblue" stroke="midnightblue" points="524.48,-648.9 535.06,-648.48 526.52,-642.21 524.48,-648.9"/>
</g>
<!-- Node3 -->
<g id="node3" class="node">
<title>Node3</title>
<g id="a_node3"><a xlink:href="f__op__scene__pause_8cpp.html" target="_top" xlink:title=" ">
<polygon fill="white" stroke="black" points="441.5,-581.5 441.5,-611.5 546.5,-611.5 546.5,-581.5 441.5,-581.5"/>
<text text-anchor="start" x="449.5" y="-599.5" font-family="Helvetica,sans-Serif" font-size="10.00">src/f_op/f_op_scene</text>
<text text-anchor="middle" x="494" y="-588.5" font-family="Helvetica,sans-Serif" font-size="10.00">_pause.cpp</text>
</a>
</g>
</g>
<!-- Node1&#45;&gt;Node3 -->
<g id="edge2" class="edge">
<title>Node1&#45;&gt;Node3</title>
<path fill="none" stroke="midnightblue" d="M545.51,-641.92C534.68,-632.58 520.86,-620.66 510.26,-611.52"/>
<polygon fill="midnightblue" stroke="midnightblue" points="543.26,-644.6 553.11,-648.48 547.83,-639.29 543.26,-644.6"/>
</g>
<!-- Node4 -->
<g id="node4" class="node">
<title>Node4</title>
<g id="a_node4"><a xlink:href="f__pc__manager_8cpp.html" target="_top" xlink:title=" ">
<polygon fill="white" stroke="black" points="565,-587 565,-606 699,-606 699,-587 565,-587"/>
<text text-anchor="middle" x="632" y="-594" font-family="Helvetica,sans-Serif" font-size="10.00">src/f_pc/f_pc_manager.cpp</text>
</a>
</g>
</g>
<!-- Node1&#45;&gt;Node4 -->
<g id="edge3" class="edge">
<title>Node1&#45;&gt;Node4</title>
<path fill="none" stroke="midnightblue" d="M580.8,-641.65C593.96,-630.31 611.38,-615.28 622.13,-606.01"/>
<polygon fill="midnightblue" stroke="midnightblue" points="578.17,-639.29 572.89,-648.48 582.74,-644.6 578.17,-639.29"/>
</g>
<!-- Node5 -->
<g id="node5" class="node">
<title>Node5</title>
<g id="a_node5"><a xlink:href="f__op__actor__mng_8h.html" target="_top" xlink:title=" ">
<polygon fill="white" stroke="black" points="717,-581.5 717,-611.5 835,-611.5 835,-581.5 717,-581.5"/>
<text text-anchor="start" x="725" y="-599.5" font-family="Helvetica,sans-Serif" font-size="10.00">include/f_op/f_op_actor</text>
<text text-anchor="middle" x="776" y="-588.5" font-family="Helvetica,sans-Serif" font-size="10.00">_mng.h</text>
</a>
</g>
</g>
<!-- Node1&#45;&gt;Node5 -->
<g id="edge4" class="edge">
<title>Node1&#45;&gt;Node5</title>
<path fill="none" stroke="midnightblue" d="M603.33,-645.73C638.09,-636.02 688.43,-621.96 725.8,-611.52"/>
<polygon fill="midnightblue" stroke="midnightblue" points="602.21,-642.41 593.52,-648.48 604.09,-649.16 602.21,-642.41"/>
</g>
<!-- Node6 -->
<g id="node6" class="node">
<title>Node6</title>
<g id="a_node6"><a xlink:href="d__a__player_8cpp.html" target="_top" xlink:title=" ">
<polygon fill="white" stroke="black" points="328,-397 328,-416 442,-416 442,-397 328,-397"/>
<text text-anchor="middle" x="385" y="-404" font-family="Helvetica,sans-Serif" font-size="10.00">src/d/a/d_a_player.cpp</text>
</a>
</g>
</g>
<!-- Node5&#45;&gt;Node6 -->
<g id="edge5" class="edge">
<title>Node5&#45;&gt;Node6</title>
<path fill="none" stroke="midnightblue" d="M707.02,-579.07C622.25,-557.94 484.43,-520.24 442,-489 415.02,-469.14 396.2,-432.58 388.66,-416.03"/>
<polygon fill="midnightblue" stroke="midnightblue" points="706.28,-582.49 716.83,-581.5 707.97,-575.7 706.28,-582.49"/>
</g>
<!-- Node7 -->
<g id="node7" class="node">
<title>Node7</title>
<g id="a_node7"><a xlink:href="d__cc__d__nonmatching_8cpp.html" target="_top" xlink:title=" ">
<polygon fill="white" stroke="black" points="1212.5,-525.5 1212.5,-544.5 1377.5,-544.5 1377.5,-525.5 1212.5,-525.5"/>
<text text-anchor="middle" x="1295" y="-532.5" font-family="Helvetica,sans-Serif" font-size="10.00">src/d/cc/d_cc_d_nonmatching.cpp</text>
</a>
</g>
</g>
<!-- Node5&#45;&gt;Node7 -->
<g id="edge6" class="edge">
<title>Node5&#45;&gt;Node7</title>
<path fill="none" stroke="midnightblue" d="M845.08,-587.58C942.67,-576.39 1120.16,-556.04 1220.57,-544.53"/>
<polygon fill="midnightblue" stroke="midnightblue" points="844.57,-584.12 835.03,-588.73 845.36,-591.07 844.57,-584.12"/>
</g>
<!-- Node8 -->
<g id="node8" class="node">
<title>Node8</title>
<g id="a_node8"><a xlink:href="d__bomb_8cpp.html" target="_top" xlink:title=" ">
<polygon fill="white" stroke="black" points="37,-263 37,-282 131,-282 131,-263 37,-263"/>
<text text-anchor="middle" x="84" y="-270" font-family="Helvetica,sans-Serif" font-size="10.00">src/d/d_bomb.cpp</text>
</a>
</g>
</g>
<!-- Node5&#45;&gt;Node8 -->
<g id="edge7" class="edge">
<title>Node5&#45;&gt;Node8</title>
<path fill="none" stroke="midnightblue" d="M706.59,-580.99C538.6,-556.29 38,-622.17 38,-474.5 38,-474.5 38,-474.5 38,-405.5 38,-368.31 43.9,-358.81 57,-324 62.81,-308.55 72.44,-291.91 78.49,-282.11"/>
<polygon fill="midnightblue" stroke="midnightblue" points="706.26,-584.48 716.7,-582.66 707.4,-577.58 706.26,-584.48"/>
</g>
<!-- Node9 -->
<g id="node9" class="node">
<title>Node9</title>
<g id="a_node9"><a xlink:href="d__a__alink_8cpp.html" target="_top" xlink:title=" ">
<polygon fill="white" stroke="black" points="257.5,-73 257.5,-92 366.5,-92 366.5,-73 257.5,-73"/>
<text text-anchor="middle" x="312" y="-80" font-family="Helvetica,sans-Serif" font-size="10.00">src/d/a/d_a_alink.cpp</text>
</a>
</g>
</g>
<!-- Node5&#45;&gt;Node9 -->
<g id="edge8" class="edge">
<title>Node5&#45;&gt;Node9</title>
<path fill="none" stroke="midnightblue" d="M706.72,-581.08C549.78,-563.87 189.57,-605.93 63,-545 25.14,-526.77 0,-516.52 0,-474.5 0,-474.5 0,-474.5 0,-210 0,-153.16 180.1,-109.67 266.63,-92.05"/>
<polygon fill="midnightblue" stroke="midnightblue" points="706.41,-584.57 716.76,-582.3 707.25,-577.62 706.41,-584.57"/>
</g>
<!-- Node10 -->
<g id="node10" class="node">
<title>Node10</title>
<g id="a_node10"><a xlink:href="d__event_8cpp.html" target="_top" xlink:title=" ">
<polygon fill="white" stroke="black" points="949.5,-73 949.5,-92 1070.5,-92 1070.5,-73 949.5,-73"/>
<text text-anchor="middle" x="1010" y="-80" font-family="Helvetica,sans-Serif" font-size="10.00">src/d/event/d_event.cpp</text>
</a>
</g>
</g>
<!-- Node5&#45;&gt;Node10 -->
<g id="edge9" class="edge">
<title>Node5&#45;&gt;Node10</title>
<path fill="none" stroke="midnightblue" d="M845.58,-589.28C962.08,-576.93 1184,-544.25 1184,-474.5 1184,-474.5 1184,-474.5 1184,-210 1184,-142.03 1096.05,-106.77 1045.21,-92.06"/>
<polygon fill="midnightblue" stroke="midnightblue" points="844.91,-585.83 835.33,-590.35 845.63,-592.8 844.91,-585.83"/>
</g>
<!-- Node11 -->
<g id="node11" class="node">
<title>Node11</title>
<g id="a_node11"><a xlink:href="f__op__actor__mng_8cpp.html" target="_top" xlink:title=" ">
<polygon fill="white" stroke="black" points="1054.5,-458.5 1054.5,-488.5 1155.5,-488.5 1155.5,-458.5 1054.5,-458.5"/>
<text text-anchor="start" x="1062.5" y="-476.5" font-family="Helvetica,sans-Serif" font-size="10.00">src/f_op/f_op_actor</text>
<text text-anchor="middle" x="1105" y="-465.5" font-family="Helvetica,sans-Serif" font-size="10.00">_mng.cpp</text>
</a>
</g>
</g>
<!-- Node5&#45;&gt;Node11 -->
<g id="edge10" class="edge">
<title>Node5&#45;&gt;Node11</title>
<path fill="none" stroke="midnightblue" d="M824.1,-577.81C889.92,-553.6 1006.71,-510.65 1066.86,-488.53"/>
<polygon fill="midnightblue" stroke="midnightblue" points="822.56,-574.65 814.38,-581.38 824.98,-581.22 822.56,-574.65"/>
</g>
<!-- Node12 -->
<g id="node12" class="node">
<title>Node12</title>
<g id="a_node12"><a xlink:href="d__stage_8h.html" target="_top" xlink:title=" ">
<polygon fill="white" stroke="black" points="725.5,-525.5 725.5,-544.5 826.5,-544.5 826.5,-525.5 725.5,-525.5"/>
<text text-anchor="middle" x="776" y="-532.5" font-family="Helvetica,sans-Serif" font-size="10.00">include/d/d_stage.h</text>
</a>
</g>
</g>
<!-- Node5&#45;&gt;Node12 -->
<g id="edge11" class="edge">
<title>Node5&#45;&gt;Node12</title>
<path fill="none" stroke="midnightblue" d="M776,-571.29C776,-561.86 776,-551.65 776,-544.66"/>
<polygon fill="midnightblue" stroke="midnightblue" points="772.5,-571.4 776,-581.4 779.5,-571.4 772.5,-571.4"/>
</g>
<!-- Node12&#45;&gt;Node11 -->
<g id="edge14" class="edge">
<title>Node12&#45;&gt;Node11</title>
<path fill="none" stroke="midnightblue" d="M836.99,-525.07C891.66,-516.76 973.96,-503.51 1045,-489 1048.04,-488.38 1051.17,-487.71 1054.32,-487.02"/>
<polygon fill="midnightblue" stroke="midnightblue" points="836.13,-521.66 826.77,-526.61 837.18,-528.58 836.13,-521.66"/>
</g>
<!-- Node13 -->
<g id="node13" class="node">
<title>Node13</title>
<g id="a_node13"><a xlink:href="d__stage_8cpp.html" target="_top" xlink:title=" ">
<polygon fill="white" stroke="black" points="942,-464 942,-483 1036,-483 1036,-464 942,-464"/>
<text text-anchor="middle" x="989" y="-471" font-family="Helvetica,sans-Serif" font-size="10.00">src/d/d_stage.cpp</text>
</a>
</g>
</g>
<!-- Node12&#45;&gt;Node13 -->
<g id="edge12" class="edge">
<title>Node12&#45;&gt;Node13</title>
<path fill="none" stroke="midnightblue" d="M816.28,-522.75C857.66,-511.19 921.16,-493.45 958.54,-483.01"/>
<polygon fill="midnightblue" stroke="midnightblue" points="815.21,-519.41 806.52,-525.48 817.09,-526.16 815.21,-519.41"/>
</g>
<!-- Node14 -->
<g id="node14" class="node">
<title>Node14</title>
<g id="a_node14"><a xlink:href="f__op__actor_8cpp.html" target="_top" xlink:title=" ">
<polygon fill="white" stroke="black" points="590.5,-464 590.5,-483 709.5,-483 709.5,-464 590.5,-464"/>
<text text-anchor="middle" x="650" y="-471" font-family="Helvetica,sans-Serif" font-size="10.00">src/f_op/f_op_actor.cpp</text>
</a>
</g>
</g>
<!-- Node12&#45;&gt;Node14 -->
<g id="edge13" class="edge">
<title>Node12&#45;&gt;Node14</title>
<path fill="none" stroke="midnightblue" d="M748.84,-521.17C724.39,-509.63 689.15,-492.99 668.02,-483.01"/>
<polygon fill="midnightblue" stroke="midnightblue" points="747.41,-524.37 757.95,-525.48 750.4,-518.04 747.41,-524.37"/>
</g>
<!-- Node15 -->
<g id="node15" class="node">
<title>Node15</title>
<g id="a_node15"><a xlink:href="d__a__player_8h.html" target="_top" xlink:title=" ">
<polygon fill="white" stroke="black" points="451.5,-464 451.5,-483 572.5,-483 572.5,-464 451.5,-464"/>
<text text-anchor="middle" x="512" y="-471" font-family="Helvetica,sans-Serif" font-size="10.00">include/d/a/d_a_player.h</text>
</a>
</g>
</g>
<!-- Node12&#45;&gt;Node15 -->
<g id="edge15" class="edge">
<title>Node12&#45;&gt;Node15</title>
<path fill="none" stroke="midnightblue" d="M728.34,-523.26C677.13,-511.72 596.77,-493.61 549.75,-483.01"/>
<polygon fill="midnightblue" stroke="midnightblue" points="727.65,-526.69 738.18,-525.48 729.19,-519.86 727.65,-526.69"/>
</g>
<!-- Node17 -->
<g id="node17" class="node">
<title>Node17</title>
<g id="a_node17"><a xlink:href="d__com__inf__game_8h.html" target="_top" xlink:title=" ">
<polygon fill="white" stroke="black" points="624,-134.5 624,-164.5 734,-164.5 734,-134.5 624,-134.5"/>
<text text-anchor="start" x="632" y="-152.5" font-family="Helvetica,sans-Serif" font-size="10.00">include/d/com/d_com</text>
<text text-anchor="middle" x="679" y="-141.5" font-family="Helvetica,sans-Serif" font-size="10.00">_inf_game.h</text>
</a>
</g>
</g>
<!-- Node12&#45;&gt;Node17 -->
<g id="edge49" class="edge">
<title>Node12&#45;&gt;Node17</title>
<path fill="none" stroke="midnightblue" d="M773.07,-515.2C768.1,-482.65 758.09,-413.66 753,-355 747.07,-286.74 777.95,-261.61 746,-201 737.71,-185.28 722.11,-173.07 708.04,-164.6"/>
<polygon fill="midnightblue" stroke="midnightblue" points="769.66,-516.11 774.65,-525.46 776.58,-515.04 769.66,-516.11"/>
</g>
<!-- Node35 -->
<g id="node35" class="node">
<title>Node35</title>
<g id="a_node35"><a xlink:href="d__event_8h.html" target="_top" xlink:title=" ">
<polygon fill="white" stroke="black" points="762,-330 762,-349 890,-349 890,-330 762,-330"/>
<text text-anchor="middle" x="826" y="-337" font-family="Helvetica,sans-Serif" font-size="10.00">include/d/event/d_event.h</text>
</a>
</g>
</g>
<!-- Node12&#45;&gt;Node35 -->
<g id="edge50" class="edge">
<title>Node12&#45;&gt;Node35</title>
<path fill="none" stroke="midnightblue" d="M780.61,-515.26C784.42,-499.87 789.99,-477.5 795,-458 805.5,-417.13 818.51,-368.4 823.71,-349.04"/>
<polygon fill="midnightblue" stroke="midnightblue" points="777.18,-514.55 778.19,-525.1 783.98,-516.23 777.18,-514.55"/>
</g>
<!-- Node36 -->
<g id="node36" class="node">
<title>Node36</title>
<g id="a_node36"><a xlink:href="d__event__data_8h.html" target="_top" xlink:title=" ">
<polygon fill="white" stroke="black" points="804,-458.5 804,-488.5 924,-488.5 924,-458.5 804,-458.5"/>
<text text-anchor="start" x="812" y="-476.5" font-family="Helvetica,sans-Serif" font-size="10.00">include/d/event/d_event</text>
<text text-anchor="middle" x="864" y="-465.5" font-family="Helvetica,sans-Serif" font-size="10.00">_data.h</text>
</a>
</g>
</g>
<!-- Node12&#45;&gt;Node36 -->
<g id="edge51" class="edge">
<title>Node12&#45;&gt;Node36</title>
<path fill="none" stroke="midnightblue" d="M797.09,-519.74C811.08,-510.28 829.35,-497.93 843.26,-488.52"/>
<polygon fill="midnightblue" stroke="midnightblue" points="794.93,-516.97 788.61,-525.48 798.85,-522.77 794.93,-516.97"/>
</g>
<!-- Node15&#45;&gt;Node6 -->
<g id="edge16" class="edge">
<title>Node15&#45;&gt;Node6</title>
<path fill="none" stroke="midnightblue" d="M486.16,-459.27C461,-446.4 423.51,-427.21 401.93,-416.17"/>
<polygon fill="midnightblue" stroke="midnightblue" points="484.64,-462.43 495.14,-463.87 487.83,-456.2 484.64,-462.43"/>
</g>
<!-- Node16 -->
<g id="node16" class="node">
<title>Node16</title>
<g id="a_node16"><a xlink:href="d__a__alink_8h.html" target="_top" xlink:title=" ">
<polygon fill="white" stroke="black" points="455,-201.5 455,-220.5 571,-220.5 571,-201.5 455,-201.5"/>
<text text-anchor="middle" x="513" y="-208.5" font-family="Helvetica,sans-Serif" font-size="10.00">include/d/a/d_a_alink.h</text>
</a>
</g>
</g>
<!-- Node15&#45;&gt;Node16 -->
<g id="edge17" class="edge">
<title>Node15&#45;&gt;Node16</title>
<path fill="none" stroke="midnightblue" d="M537.17,-458.6C550.28,-449.91 565.17,-437.44 573,-422 586.5,-395.4 576.11,-384.82 577,-355 578.3,-311.46 597.07,-295.65 577,-257 568.11,-239.88 549.39,-227.91 534.48,-220.64"/>
<polygon fill="midnightblue" stroke="midnightblue" points="535.13,-455.74 528.49,-464 538.83,-461.69 535.13,-455.74"/>
</g>
<!-- Node24 -->
<g id="node24" class="node">
<title>Node24</title>
<g id="a_node24"><a xlink:href="d__bg__s__acch_8h.html" target="_top" xlink:title=" ">
<polygon fill="white" stroke="black" points="460,-391.5 460,-421.5 564,-421.5 564,-391.5 460,-391.5"/>
<text text-anchor="start" x="468" y="-409.5" font-family="Helvetica,sans-Serif" font-size="10.00">include/d/bg/d_bg_s</text>
<text text-anchor="middle" x="512" y="-398.5" font-family="Helvetica,sans-Serif" font-size="10.00">_acch.h</text>
</a>
</g>
</g>
<!-- Node15&#45;&gt;Node24 -->
<g id="edge29" class="edge">
<title>Node15&#45;&gt;Node24</title>
<path fill="none" stroke="midnightblue" d="M512,-453.41C512,-443.22 512,-430.9 512,-421.59"/>
<polygon fill="midnightblue" stroke="midnightblue" points="508.5,-453.73 512,-463.73 515.5,-453.73 508.5,-453.73"/>
</g>
<!-- Node33 -->
<g id="node33" class="node">
<title>Node33</title>
<g id="a_node33"><a xlink:href="d__attention_8h.html" target="_top" xlink:title=" ">
<polygon fill="white" stroke="black" points="624,-263 624,-282 738,-282 738,-263 624,-263"/>
<text text-anchor="middle" x="681" y="-270" font-family="Helvetica,sans-Serif" font-size="10.00">include/d/d_attention.h</text>
</a>
</g>
</g>
<!-- Node15&#45;&gt;Node33 -->
<g id="edge42" class="edge">
<title>Node15&#45;&gt;Node33</title>
<path fill="none" stroke="midnightblue" d="M548.59,-460.28C568.75,-452.04 593.05,-439.47 610,-422 651.6,-379.14 672.6,-307.29 678.91,-282.34"/>
<polygon fill="midnightblue" stroke="midnightblue" points="547.13,-457.09 539.07,-463.97 549.66,-463.61 547.13,-457.09"/>
</g>
<!-- Node15&#45;&gt;Node35 -->
<g id="edge46" class="edge">
<title>Node15&#45;&gt;Node35</title>
<path fill="none" stroke="midnightblue" d="M553.18,-461.17C585.02,-451.93 629.94,-437.85 668,-422 722.42,-399.33 783.59,-365.12 811.14,-349.21"/>
<polygon fill="midnightblue" stroke="midnightblue" points="551.97,-457.87 543.32,-463.99 553.9,-464.6 551.97,-457.87"/>
</g>
<!-- Node16&#45;&gt;Node9 -->
<g id="edge18" class="edge">
<title>Node16&#45;&gt;Node9</title>
<path fill="none" stroke="midnightblue" d="M490.53,-195.86C448.61,-169.48 359.69,-113.51 325.65,-92.09"/>
<polygon fill="midnightblue" stroke="midnightblue" points="488.86,-198.94 499.18,-201.31 492.59,-193.02 488.86,-198.94"/>
</g>
<!-- Node16&#45;&gt;Node17 -->
<g id="edge19" class="edge">
<title>Node16&#45;&gt;Node17</title>
<path fill="none" stroke="midnightblue" d="M546.55,-197.98C573.54,-188.3 611.51,-174.69 639.88,-164.52"/>
<polygon fill="midnightblue" stroke="midnightblue" points="545.02,-194.81 536.78,-201.48 547.38,-201.4 545.02,-194.81"/>
</g>
<!-- Node17&#45;&gt;Node9 -->
<g id="edge21" class="edge">
<title>Node17&#45;&gt;Node9</title>
<path fill="none" stroke="midnightblue" d="M613.91,-138.88C552.21,-129.47 457.03,-114.24 375,-98 365.97,-96.21 356.26,-94.08 347.24,-92.01"/>
<polygon fill="midnightblue" stroke="midnightblue" points="613.49,-142.35 623.9,-140.39 614.54,-135.43 613.49,-142.35"/>
</g>
<!-- Node17&#45;&gt;Node10 -->
<g id="edge22" class="edge">
<title>Node17&#45;&gt;Node10</title>
<path fill="none" stroke="midnightblue" d="M743.94,-136.18C796.78,-126.1 873.25,-111.37 940,-98 949.49,-96.1 959.7,-94.01 969.3,-92.02"/>
<polygon fill="midnightblue" stroke="midnightblue" points="743.2,-132.76 734.03,-138.07 744.51,-139.63 743.2,-132.76"/>
</g>
<!-- Node18 -->
<g id="node18" class="node">
<title>Node18</title>
<g id="a_node18"><a xlink:href="d__com__inf__game_8cpp.html" target="_top" xlink:title=" ">
<polygon fill="white" stroke="black" points="625,-0.5 625,-30.5 733,-30.5 733,-0.5 625,-0.5"/>
<text text-anchor="start" x="633" y="-18.5" font-family="Helvetica,sans-Serif" font-size="10.00">src/d/com/d_com_inf</text>
<text text-anchor="middle" x="679" y="-7.5" font-family="Helvetica,sans-Serif" font-size="10.00">_game.cpp</text>
</a>
</g>
</g>
<!-- Node17&#45;&gt;Node18 -->
<g id="edge20" class="edge">
<title>Node17&#45;&gt;Node18</title>
<path fill="none" stroke="midnightblue" d="M679,-124.02C679,-96.51 679,-52.79 679,-30.52"/>
<polygon fill="midnightblue" stroke="midnightblue" points="675.5,-124.37 679,-134.37 682.5,-124.37 675.5,-124.37"/>
</g>
<!-- Node19 -->
<g id="node19" class="node">
<title>Node19</title>
<g id="a_node19"><a xlink:href="d__meter2__info_8cpp.html" target="_top" xlink:title=" ">
<polygon fill="white" stroke="black" points="821,-67.5 821,-97.5 931,-97.5 931,-67.5 821,-67.5"/>
<text text-anchor="start" x="829" y="-85.5" font-family="Helvetica,sans-Serif" font-size="10.00">src/d/meter/d_meter2</text>
<text text-anchor="middle" x="876" y="-74.5" font-family="Helvetica,sans-Serif" font-size="10.00">_info.cpp</text>
</a>
</g>
</g>
<!-- Node17&#45;&gt;Node19 -->
<g id="edge23" class="edge">
<title>Node17&#45;&gt;Node19</title>
<path fill="none" stroke="midnightblue" d="M731.35,-131.23C763.22,-120.71 803.41,-107.45 833.34,-97.58"/>
<polygon fill="midnightblue" stroke="midnightblue" points="730.15,-127.94 721.75,-134.4 732.34,-134.59 730.15,-127.94"/>
</g>
<!-- Node20 -->
<g id="node20" class="node">
<title>Node20</title>
<g id="a_node20"><a xlink:href="d__msg__flow_8cpp.html" target="_top" xlink:title=" ">
<polygon fill="white" stroke="black" points="384.5,-73 384.5,-92 517.5,-92 517.5,-73 384.5,-73"/>
<text text-anchor="middle" x="451" y="-80" font-family="Helvetica,sans-Serif" font-size="10.00">src/d/msg/d_msg_flow.cpp</text>
</a>
</g>
</g>
<!-- Node17&#45;&gt;Node20 -->
<g id="edge24" class="edge">
<title>Node17&#45;&gt;Node20</title>
<path fill="none" stroke="midnightblue" d="M619.97,-131.67C575.41,-118.97 516.12,-102.06 480.92,-92.03"/>
<polygon fill="midnightblue" stroke="midnightblue" points="619.23,-135.1 629.81,-134.48 621.15,-128.37 619.23,-135.1"/>
</g>
<!-- Node21 -->
<g id="node21" class="node">
<title>Node21</title>
<g id="a_node21"><a xlink:href="d__save_8cpp.html" target="_top" xlink:title=" ">
<polygon fill="white" stroke="black" points="535.5,-73 535.5,-92 650.5,-92 650.5,-73 535.5,-73"/>
<text text-anchor="middle" x="593" y="-80" font-family="Helvetica,sans-Serif" font-size="10.00">src/d/save/d_save.cpp</text>
</a>
</g>
</g>
<!-- Node17&#45;&gt;Node21 -->
<g id="edge25" class="edge">
<title>Node17&#45;&gt;Node21</title>
<path fill="none" stroke="midnightblue" d="M652.33,-128.34C636.28,-116.21 616.67,-101.39 604.5,-92.19"/>
<polygon fill="midnightblue" stroke="midnightblue" points="650.25,-131.16 660.34,-134.4 654.47,-125.57 650.25,-131.16"/>
</g>
<!-- Node22 -->
<g id="node22" class="node">
<title>Node22</title>
<g id="a_node22"><a xlink:href="d__item_8h.html" target="_top" xlink:title=" ">
<polygon fill="white" stroke="black" points="707.5,-73 707.5,-92 802.5,-92 802.5,-73 707.5,-73"/>
<text text-anchor="middle" x="755" y="-80" font-family="Helvetica,sans-Serif" font-size="10.00">include/d/d_item.h</text>
</a>
</g>
</g>
<!-- Node17&#45;&gt;Node22 -->
<g id="edge26" class="edge">
<title>Node17&#45;&gt;Node22</title>
<path fill="none" stroke="midnightblue" d="M703.35,-127.67C717.39,-115.67 734.28,-101.22 744.83,-92.19"/>
<polygon fill="midnightblue" stroke="midnightblue" points="700.82,-125.24 695.49,-134.4 705.37,-130.56 700.82,-125.24"/>
</g>
<!-- Node22&#45;&gt;Node18 -->
<g id="edge27" class="edge">
<title>Node22&#45;&gt;Node18</title>
<path fill="none" stroke="midnightblue" d="M736.79,-65.93C724.22,-55.18 707.65,-41 695.47,-30.59"/>
<polygon fill="midnightblue" stroke="midnightblue" points="734.88,-68.89 744.75,-72.73 739.43,-63.57 734.88,-68.89"/>
</g>
<!-- Node23 -->
<g id="node23" class="node">
<title>Node23</title>
<g id="a_node23"><a xlink:href="d__item_8cpp.html" target="_top" xlink:title=" ">
<polygon fill="white" stroke="black" points="751.5,-6 751.5,-25 840.5,-25 840.5,-6 751.5,-6"/>
<text text-anchor="middle" x="796" y="-13" font-family="Helvetica,sans-Serif" font-size="10.00">src/d/d_item.cpp</text>
</a>
</g>
</g>
<!-- Node22&#45;&gt;Node23 -->
<g id="edge28" class="edge">
<title>Node22&#45;&gt;Node23</title>
<path fill="none" stroke="midnightblue" d="M766.02,-64.03C773.95,-51.45 784.33,-35.01 790.56,-25.13"/>
<polygon fill="midnightblue" stroke="midnightblue" points="762.9,-62.41 760.53,-72.73 768.82,-66.14 762.9,-62.41"/>
</g>
<!-- Node25 -->
<g id="node25" class="node">
<title>Node25</title>
<g id="a_node25"><a xlink:href="d__bg__s__acch_8cpp.html" target="_top" xlink:title=" ">
<polygon fill="white" stroke="black" points="185.5,-330 185.5,-349 316.5,-349 316.5,-330 185.5,-330"/>
<text text-anchor="middle" x="251" y="-337" font-family="Helvetica,sans-Serif" font-size="10.00">src/d/bg/d_bg_s_acch.cpp</text>
</a>
</g>
</g>
<!-- Node24&#45;&gt;Node25 -->
<g id="edge30" class="edge">
<title>Node24&#45;&gt;Node25</title>
<path fill="none" stroke="midnightblue" d="M450.1,-390.09C398.55,-377.25 327.04,-359.44 285.23,-349.02"/>
<polygon fill="midnightblue" stroke="midnightblue" points="449.26,-393.48 459.81,-392.5 450.95,-386.69 449.26,-393.48"/>
</g>
<!-- Node26 -->
<g id="node26" class="node">
<title>Node26</title>
<g id="a_node26"><a xlink:href="d__bg__w_8h.html" target="_top" xlink:title=" ">
<polygon fill="white" stroke="black" points="334.5,-330 334.5,-349 447.5,-349 447.5,-330 334.5,-330"/>
<text text-anchor="middle" x="391" y="-337" font-family="Helvetica,sans-Serif" font-size="10.00">include/d/bg/d_bg_w.h</text>
</a>
</g>
</g>
<!-- Node24&#45;&gt;Node26 -->
<g id="edge31" class="edge">
<title>Node24&#45;&gt;Node26</title>
<path fill="none" stroke="midnightblue" d="M476.89,-386.64C453.74,-374.2 424.53,-358.51 406.84,-349.01"/>
<polygon fill="midnightblue" stroke="midnightblue" points="475.28,-389.75 485.74,-391.4 478.59,-383.58 475.28,-389.75"/>
</g>
<!-- Node30 -->
<g id="node30" class="node">
<title>Node30</title>
<g id="a_node30"><a xlink:href="d__bomb_8h.html" target="_top" xlink:title=" ">
<polygon fill="white" stroke="black" points="66.5,-330 66.5,-349 167.5,-349 167.5,-330 66.5,-330"/>
<text text-anchor="middle" x="117" y="-337" font-family="Helvetica,sans-Serif" font-size="10.00">include/d/d_bomb.h</text>
</a>
</g>
</g>
<!-- Node24&#45;&gt;Node30 -->
<g id="edge37" class="edge">
<title>Node24&#45;&gt;Node30</title>
<path fill="none" stroke="midnightblue" d="M449.74,-390.89C327.98,-369.17 293.95,-377.14 176,-355 167.19,-353.35 157.72,-351.19 149.01,-349.05"/>
<polygon fill="midnightblue" stroke="midnightblue" points="449.37,-394.38 459.83,-392.73 450.62,-387.5 449.37,-394.38"/>
</g>
<!-- Node31 -->
<g id="node31" class="node">
<title>Node31</title>
<g id="a_node31"><a xlink:href="d__particle__copoly_8h.html" target="_top" xlink:title=" ">
<polygon fill="white" stroke="black" points="466,-324.5 466,-354.5 568,-354.5 568,-324.5 466,-324.5"/>
<text text-anchor="start" x="474" y="-342.5" font-family="Helvetica,sans-Serif" font-size="10.00">include/d/particle</text>
<text text-anchor="middle" x="517" y="-331.5" font-family="Helvetica,sans-Serif" font-size="10.00">/d_particle_copoly.h</text>
</a>
</g>
</g>
<!-- Node24&#45;&gt;Node31 -->
<g id="edge39" class="edge">
<title>Node24&#45;&gt;Node31</title>
<path fill="none" stroke="midnightblue" d="M513.85,-381.4C514.55,-372.37 515.31,-362.41 515.92,-354.58"/>
<polygon fill="midnightblue" stroke="midnightblue" points="510.36,-381.16 513.08,-391.4 517.34,-381.69 510.36,-381.16"/>
</g>
<!-- Node27 -->
<g id="node27" class="node">
<title>Node27</title>
<g id="a_node27"><a xlink:href="d__bg__w_8cpp.html" target="_top" xlink:title=" ">
<polygon fill="white" stroke="black" points="157.5,-263 157.5,-282 264.5,-282 264.5,-263 157.5,-263"/>
<text text-anchor="middle" x="211" y="-270" font-family="Helvetica,sans-Serif" font-size="10.00">src/d/bg/d_bg_w.cpp</text>
</a>
</g>
</g>
<!-- Node26&#45;&gt;Node27 -->
<g id="edge32" class="edge">
<title>Node26&#45;&gt;Node27</title>
<path fill="none" stroke="midnightblue" d="M357.59,-326.44C321.88,-313.54 266.17,-293.42 234.71,-282.06"/>
<polygon fill="midnightblue" stroke="midnightblue" points="356.5,-329.76 367.1,-329.87 358.88,-323.18 356.5,-329.76"/>
</g>
<!-- Node28 -->
<g id="node28" class="node">
<title>Node28</title>
<g id="a_node28"><a xlink:href="d__bg__s_8h.html" target="_top" xlink:title=" ">
<polygon fill="white" stroke="black" points="282.5,-263 282.5,-282 393.5,-282 393.5,-263 282.5,-263"/>
<text text-anchor="middle" x="338" y="-270" font-family="Helvetica,sans-Serif" font-size="10.00">include/d/bg/d_bg_s.h</text>
</a>
</g>
</g>
<!-- Node26&#45;&gt;Node28 -->
<g id="edge33" class="edge">
<title>Node26&#45;&gt;Node28</title>
<path fill="none" stroke="midnightblue" d="M377.36,-321.77C367.03,-309.1 353.25,-292.2 345.03,-282.13"/>
<polygon fill="midnightblue" stroke="midnightblue" points="374.82,-324.2 383.85,-329.73 380.25,-319.77 374.82,-324.2"/>
</g>
<!-- Node28&#45;&gt;Node16 -->
<g id="edge35" class="edge">
<title>Node28&#45;&gt;Node16</title>
<path fill="none" stroke="midnightblue" d="M372.61,-259.73C406.63,-248.17 457.72,-230.8 487.97,-220.51"/>
<polygon fill="midnightblue" stroke="midnightblue" points="371.41,-256.44 363.07,-262.98 373.67,-263.07 371.41,-256.44"/>
</g>
<!-- Node28&#45;&gt;Node17 -->
<g id="edge36" class="edge">
<title>Node28&#45;&gt;Node17</title>
<path fill="none" stroke="midnightblue" d="M356.18,-256.62C376.74,-240.53 411.83,-215.28 446,-201 504.05,-176.74 575.31,-163.48 623.62,-156.72"/>
<polygon fill="midnightblue" stroke="midnightblue" points="353.94,-253.93 348.3,-262.89 358.3,-259.4 353.94,-253.93"/>
</g>
<!-- Node29 -->
<g id="node29" class="node">
<title>Node29</title>
<g id="a_node29"><a xlink:href="d__bg__s_8cpp.html" target="_top" xlink:title=" ">
<polygon fill="white" stroke="black" points="286,-201.5 286,-220.5 390,-220.5 390,-201.5 286,-201.5"/>
<text text-anchor="middle" x="338" y="-208.5" font-family="Helvetica,sans-Serif" font-size="10.00">src/d/bg/d_bg_s.cpp</text>
</a>
</g>
</g>
<!-- Node28&#45;&gt;Node29 -->
<g id="edge34" class="edge">
<title>Node28&#45;&gt;Node29</title>
<path fill="none" stroke="midnightblue" d="M338,-252.82C338,-242 338,-228.9 338,-220.51"/>
<polygon fill="midnightblue" stroke="midnightblue" points="334.5,-252.98 338,-262.98 341.5,-252.98 334.5,-252.98"/>
</g>
<!-- Node30&#45;&gt;Node8 -->
<g id="edge38" class="edge">
<title>Node30&#45;&gt;Node8</title>
<path fill="none" stroke="midnightblue" d="M107.94,-320.66C101.58,-308.13 93.35,-291.91 88.38,-282.13"/>
<polygon fill="midnightblue" stroke="midnightblue" points="104.9,-322.4 112.55,-329.73 111.14,-319.23 104.9,-322.4"/>
</g>
<!-- Node31&#45;&gt;Node16 -->
<g id="edge41" class="edge">
<title>Node31&#45;&gt;Node16</title>
<path fill="none" stroke="midnightblue" d="M473.09,-319.46C460.43,-311.65 448.12,-301.27 441,-288 434.49,-275.86 434.32,-269.05 441,-257 450.86,-239.21 471.01,-227.52 487.5,-220.53"/>
<polygon fill="midnightblue" stroke="midnightblue" points="471.44,-322.54 481.86,-324.45 474.9,-316.46 471.44,-322.54"/>
</g>
<!-- Node32 -->
<g id="node32" class="node">
<title>Node32</title>
<g id="a_node32"><a xlink:href="d__particle__copoly_8cpp.html" target="_top" xlink:title=" ">
<polygon fill="white" stroke="black" points="450,-257.5 450,-287.5 568,-287.5 568,-257.5 450,-257.5"/>
<text text-anchor="start" x="458" y="-275.5" font-family="Helvetica,sans-Serif" font-size="10.00">src/d/particle/d_particle</text>
<text text-anchor="middle" x="509" y="-264.5" font-family="Helvetica,sans-Serif" font-size="10.00">_copoly.cpp</text>
</a>
</g>
</g>
<!-- Node31&#45;&gt;Node32 -->
<g id="edge40" class="edge">
<title>Node31&#45;&gt;Node32</title>
<path fill="none" stroke="midnightblue" d="M514.03,-314.4C512.92,-305.37 511.7,-295.41 510.73,-287.58"/>
<polygon fill="midnightblue" stroke="midnightblue" points="510.57,-314.9 515.26,-324.4 517.52,-314.04 510.57,-314.9"/>
</g>
<!-- Node33&#45;&gt;Node16 -->
<g id="edge44" class="edge">
<title>Node33&#45;&gt;Node16</title>
<path fill="none" stroke="midnightblue" d="M647.35,-259.58C614.7,-248.02 565.95,-230.75 537.03,-220.51"/>
<polygon fill="midnightblue" stroke="midnightblue" points="646.33,-262.94 656.93,-262.98 648.67,-256.34 646.33,-262.94"/>
</g>
<!-- Node33&#45;&gt;Node17 -->
<g id="edge45" class="edge">
<title>Node33&#45;&gt;Node17</title>
<path fill="none" stroke="midnightblue" d="M655.63,-257.51C642.68,-248.86 628.19,-236.45 621,-221 610.7,-198.87 633.78,-177.85 653.81,-164.62"/>
<polygon fill="midnightblue" stroke="midnightblue" points="653.89,-260.56 664.23,-262.89 657.61,-254.62 653.89,-260.56"/>
</g>
<!-- Node34 -->
<g id="node34" class="node">
<title>Node34</title>
<g id="a_node34"><a xlink:href="d__attention_8cpp.html" target="_top" xlink:title=" ">
<polygon fill="white" stroke="black" points="630.5,-201.5 630.5,-220.5 737.5,-220.5 737.5,-201.5 630.5,-201.5"/>
<text text-anchor="middle" x="684" y="-208.5" font-family="Helvetica,sans-Serif" font-size="10.00">src/d/d_attention.cpp</text>
</a>
</g>
</g>
<!-- Node33&#45;&gt;Node34 -->
<g id="edge43" class="edge">
<title>Node33&#45;&gt;Node34</title>
<path fill="none" stroke="midnightblue" d="M681.94,-252.82C682.49,-242 683.15,-228.9 683.57,-220.51"/>
<polygon fill="midnightblue" stroke="midnightblue" points="678.44,-252.81 681.43,-262.98 685.43,-253.16 678.44,-252.81"/>
</g>
<!-- Node35&#45;&gt;Node10 -->
<g id="edge47" class="edge">
<title>Node35&#45;&gt;Node10</title>
<path fill="none" stroke="midnightblue" d="M838.39,-321.33C874.23,-271.66 977.15,-129.03 1003.69,-92.24"/>
<polygon fill="midnightblue" stroke="midnightblue" points="835.35,-319.56 832.33,-329.72 841.02,-323.66 835.35,-319.56"/>
</g>
<!-- Node35&#45;&gt;Node17 -->
<g id="edge48" class="edge">
<title>Node35&#45;&gt;Node17</title>
<path fill="none" stroke="midnightblue" d="M824.27,-319.73C820.71,-290.99 810.17,-235.75 780,-201 765.48,-184.27 744.1,-172.47 724.74,-164.51"/>
<polygon fill="midnightblue" stroke="midnightblue" points="820.82,-320.41 825.38,-329.98 827.78,-319.66 820.82,-320.41"/>
</g>
<!-- Node37 -->
<g id="node37" class="node">
<title>Node37</title>
<g id="a_node37"><a xlink:href="d__event__data_8cpp.html" target="_top" xlink:title=" ">
<polygon fill="white" stroke="black" points="976.5,-391.5 976.5,-421.5 1079.5,-421.5 1079.5,-391.5 976.5,-391.5"/>
<text text-anchor="start" x="984.5" y="-409.5" font-family="Helvetica,sans-Serif" font-size="10.00">src/d/event/d_event</text>
<text text-anchor="middle" x="1028" y="-398.5" font-family="Helvetica,sans-Serif" font-size="10.00">_data.cpp</text>
</a>
</g>
</g>
<!-- Node36&#45;&gt;Node37 -->
<g id="edge52" class="edge">
<title>Node36&#45;&gt;Node37</title>
<path fill="none" stroke="midnightblue" d="M908.96,-454.68C935.26,-444.26 968,-431.28 992.48,-421.58"/>
<polygon fill="midnightblue" stroke="midnightblue" points="907.59,-451.46 899.59,-458.4 910.17,-457.97 907.59,-451.46"/>
</g>
<!-- Node38 -->
<g id="node38" class="node">
<title>Node38</title>
<g id="a_node38"><a xlink:href="d__event__manager_8h.html" target="_top" xlink:title=" ">
<polygon fill="white" stroke="black" points="838,-391.5 838,-421.5 958,-421.5 958,-391.5 838,-391.5"/>
<text text-anchor="start" x="846" y="-409.5" font-family="Helvetica,sans-Serif" font-size="10.00">include/d/event/d_event</text>
<text text-anchor="middle" x="898" y="-398.5" font-family="Helvetica,sans-Serif" font-size="10.00">_manager.h</text>
</a>
</g>
</g>
<!-- Node36&#45;&gt;Node38 -->
<g id="edge53" class="edge">
<title>Node36&#45;&gt;Node38</title>
<path fill="none" stroke="midnightblue" d="M876.14,-449.28C880.99,-440.02 886.41,-429.66 890.64,-421.58"/>
<polygon fill="midnightblue" stroke="midnightblue" points="872.91,-447.91 871.38,-458.4 879.11,-451.16 872.91,-447.91"/>
</g>
<!-- Node38&#45;&gt;Node17 -->
<g id="edge55" class="edge">
<title>Node38&#45;&gt;Node17</title>
<path fill="none" stroke="midnightblue" d="M902.52,-381.49C904.64,-364.88 905.47,-342.52 899,-324 875.93,-258.02 856.84,-243.04 801,-201 779.39,-184.73 751.78,-172.73 728.29,-164.52"/>
<polygon fill="midnightblue" stroke="midnightblue" points="899.05,-381.07 901,-391.48 905.97,-382.12 899.05,-381.07"/>
</g>
<!-- Node38&#45;&gt;Node35 -->
<g id="edge56" class="edge">
<title>Node38&#45;&gt;Node35</title>
<path fill="none" stroke="midnightblue" d="M874.93,-384.67C861.64,-372.67 845.63,-358.22 835.63,-349.19"/>
<polygon fill="midnightblue" stroke="midnightblue" points="872.61,-387.29 882.38,-391.4 877.3,-382.1 872.61,-387.29"/>
</g>
<!-- Node39 -->
<g id="node39" class="node">
<title>Node39</title>
<g id="a_node39"><a xlink:href="d__event__manager_8cpp.html" target="_top" xlink:title=" ">
<polygon fill="white" stroke="black" points="946.5,-324.5 946.5,-354.5 1049.5,-354.5 1049.5,-324.5 946.5,-324.5"/>
<text text-anchor="start" x="954.5" y="-342.5" font-family="Helvetica,sans-Serif" font-size="10.00">src/d/event/d_event</text>
<text text-anchor="middle" x="998" y="-331.5" font-family="Helvetica,sans-Serif" font-size="10.00">_manager.cpp</text>
</a>
</g>
</g>
<!-- Node38&#45;&gt;Node39 -->
<g id="edge54" class="edge">
<title>Node38&#45;&gt;Node39</title>
<path fill="none" stroke="midnightblue" d="M928.41,-385.73C943.88,-375.68 962.33,-363.68 976.34,-354.58"/>
<polygon fill="midnightblue" stroke="midnightblue" points="926.18,-383.01 919.7,-391.4 929.99,-388.88 926.18,-383.01"/>
</g>
</g>
</svg>
        <g id="navigator" transform="translate(0 0)" fill="#404254">
                <rect fill="#f2f5e9" fill-opacity="0.5" stroke="#606060" stroke-width=".5" x="0" y="0" width="60" height="60"/>
                <use id="zoomplus" xlink:href="#zoomPlus" x="17" y="9" onmousedown="handleZoom(evt,'in')"/>
                <use id="zoomminus" xlink:href="#zoomMin" x="42" y="9" onmousedown="handleZoom(evt,'out')"/>
                <use id="reset" xlink:href="#resetDef" x="30" y="36" onmousedown="handleReset()"/>
                <g id="arrowUp" xlink:href="#dirArrow" transform="translate(30 24)" onmousedown="handlePan(0,-1)">
                  <use xlink:href="#rim" fill="#404040">
                        <set attributeName="fill" to="#808080" begin="arrowUp.mouseover" end="arrowUp.mouseout"/>
                  </use>
                  <path fill="none" stroke="white" stroke-width="1.5" d="M0,-3.0v7 M-2.5,-0.5L0,-3.0L2.5,-0.5"/>
                </g>
                <g id="arrowRight" xlink:href="#dirArrow" transform="rotate(90) translate(36 -43)" onmousedown="handlePan(1,0)">
                  <use xlink:href="#rim" fill="#404040">
                        <set attributeName="fill" to="#808080" begin="arrowRight.mouseover" end="arrowRight.mouseout"/>
                  </use>
                  <path fill="none" stroke="white" stroke-width="1.5" d="M0,-3.0v7 M-2.5,-0.5L0,-3.0L2.5,-0.5"/>
                </g>
                <g id="arrowDown" xlink:href="#dirArrow" transform="rotate(180) translate(-30 -48)" onmousedown="handlePan(0,1)">
                  <use xlink:href="#rim" fill="#404040">
                        <set attributeName="fill" to="#808080" begin="arrowDown.mouseover" end="arrowDown.mouseout"/>
                  </use>
                  <path fill="none" stroke="white" stroke-width="1.5" d="M0,-3.0v7 M-2.5,-0.5L0,-3.0L2.5,-0.5"/>
                </g>
                <g id="arrowLeft" xlink:href="#dirArrow" transform="rotate(270) translate(-36 17)" onmousedown="handlePan(-1,0)">
                  <use xlink:href="#rim" fill="#404040">
                        <set attributeName="fill" to="#808080" begin="arrowLeft.mouseover" end="arrowLeft.mouseout"/>
                  </use>
                  <path fill="none" stroke="white" stroke-width="1.5" d="M0,-3.0v7 M-2.5,-0.5L0,-3.0L2.5,-0.5"/>
                </g>
        </g>
        <svg viewBox="0 0 15 15" width="100%" height="30px" preserveAspectRatio="xMaxYMin meet">
         <g id="arrow_out" transform="scale(0.3 0.3)">
          <a xlink:href="f__pc__manager_8h__dep__incl_org.svg" target="_base">
           <rect id="button" ry="5" rx="5" y="6" x="6" height="38" width="38"
                fill="#f2f5e9" fill-opacity="0.5" stroke="#606060" stroke-width="1.0"/>
           <path id="arrow"
             d="M 11.500037,31.436501 C 11.940474,20.09759 22.043105,11.32322 32.158766,21.979434 L 37.068811,17.246167 C 37.068811,17.246167 37.088388,32 37.088388,32 L 22.160133,31.978069 C 22.160133,31.978069 26.997745,27.140456 26.997745,27.140456 C 18.528582,18.264221 13.291696,25.230495 11.500037,31.436501 z"
             style="fill:#404040;"/>
          </a>
         </g>
        </svg>
</svg>
