<?xml version="1.0" encoding="UTF-8" standalone="no"?>
<!DOCTYPE svg PUBLIC "-//W3C//DTD SVG 1.1//EN"
 "http://www.w3.org/Graphics/SVG/1.1/DTD/svg11.dtd">
<!-- Generated by graphviz version 2.44.0 ()
 -->
<!-- Title: include/f_pc/f_pc_create_tag.h Pages: 1 -->
<svg width="1379pt" height="810pt"
 viewBox="0.00 0.00 1378.50 810.00" xmlns="http://www.w3.org/2000/svg" xmlns:xlink="http://www.w3.org/1999/xlink">
<g id="graph0" class="graph" transform="scale(1 1) rotate(0) translate(4 806)">
<title>include/f_pc/f_pc_create_tag.h</title>
<polygon fill="white" stroke="transparent" points="-4,4 -4,-806 1374.5,-806 1374.5,4 -4,4"/>
<!-- Node1 -->
<g id="node1" class="node">
<title>Node1</title>
<g id="a_node1"><a xlink:title=" ">
<polygon fill="#bfbfbf" stroke="black" points="604.5,-771.5 604.5,-801.5 727.5,-801.5 727.5,-771.5 604.5,-771.5"/>
<text text-anchor="start" x="612.5" y="-789.5" font-family="Helvetica,sans-Serif" font-size="10.00">include/f_pc/f_pc_create</text>
<text text-anchor="middle" x="666" y="-778.5" font-family="Helvetica,sans-Serif" font-size="10.00">_tag.h</text>
</a>
</g>
</g>
<!-- Node2 -->
<g id="node2" class="node">
<title>Node2</title>
<g id="a_node2"><a xlink:href="f__pc__create__req_8cpp.html" target="_top" xlink:title=" ">
<polygon fill="white" stroke="black" points="490,-637.5 490,-667.5 596,-667.5 596,-637.5 490,-637.5"/>
<text text-anchor="start" x="498" y="-655.5" font-family="Helvetica,sans-Serif" font-size="10.00">src/f_pc/f_pc_create</text>
<text text-anchor="middle" x="543" y="-644.5" font-family="Helvetica,sans-Serif" font-size="10.00">_req.cpp</text>
</a>
</g>
</g>
<!-- Node1&#45;&gt;Node2 -->
<g id="edge1" class="edge">
<title>Node1&#45;&gt;Node2</title>
<path fill="none" stroke="midnightblue" d="M632.97,-765.88C620.24,-757.36 606.09,-746.67 595,-735 575.22,-714.2 558.67,-684.82 549.85,-667.61"/>
<polygon fill="midnightblue" stroke="midnightblue" points="631.22,-768.91 641.51,-771.41 635.02,-763.03 631.22,-768.91"/>
</g>
<!-- Node3 -->
<g id="node3" class="node">
<title>Node3</title>
<g id="a_node3"><a xlink:href="f__pc__create__tag_8cpp.html" target="_top" xlink:title=" ">
<polygon fill="white" stroke="black" points="746,-704.5 746,-734.5 852,-734.5 852,-704.5 746,-704.5"/>
<text text-anchor="start" x="754" y="-722.5" font-family="Helvetica,sans-Serif" font-size="10.00">src/f_pc/f_pc_create</text>
<text text-anchor="middle" x="799" y="-711.5" font-family="Helvetica,sans-Serif" font-size="10.00">_tag.cpp</text>
</a>
</g>
</g>
<!-- Node1&#45;&gt;Node3 -->
<g id="edge2" class="edge">
<title>Node1&#45;&gt;Node3</title>
<path fill="none" stroke="midnightblue" d="M703.87,-766.99C724.95,-756.69 750.78,-744.07 770.2,-734.58"/>
<polygon fill="midnightblue" stroke="midnightblue" points="702.31,-763.86 694.86,-771.4 705.38,-770.15 702.31,-763.86"/>
</g>
<!-- Node4 -->
<g id="node4" class="node">
<title>Node4</title>
<g id="a_node4"><a xlink:href="f__pc__line__iter_8cpp.html" target="_top" xlink:title=" ">
<polygon fill="white" stroke="black" points="870,-704.5 870,-734.5 964,-734.5 964,-704.5 870,-704.5"/>
<text text-anchor="start" x="878" y="-722.5" font-family="Helvetica,sans-Serif" font-size="10.00">src/f_pc/f_pc_line</text>
<text text-anchor="middle" x="917" y="-711.5" font-family="Helvetica,sans-Serif" font-size="10.00">_iter.cpp</text>
</a>
</g>
</g>
<!-- Node1&#45;&gt;Node4 -->
<g id="edge3" class="edge">
<title>Node1&#45;&gt;Node4</title>
<path fill="none" stroke="midnightblue" d="M730.08,-768.91C773.61,-757.63 830.24,-742.97 869.71,-732.75"/>
<polygon fill="midnightblue" stroke="midnightblue" points="728.96,-765.58 720.15,-771.48 730.71,-772.36 728.96,-765.58"/>
</g>
<!-- Node5 -->
<g id="node5" class="node">
<title>Node5</title>
<g id="a_node5"><a xlink:href="f__pc__create__iter_8h.html" target="_top" xlink:title=" ">
<polygon fill="white" stroke="black" points="357.5,-704.5 357.5,-734.5 480.5,-734.5 480.5,-704.5 357.5,-704.5"/>
<text text-anchor="start" x="365.5" y="-722.5" font-family="Helvetica,sans-Serif" font-size="10.00">include/f_pc/f_pc_create</text>
<text text-anchor="middle" x="419" y="-711.5" font-family="Helvetica,sans-Serif" font-size="10.00">_iter.h</text>
</a>
</g>
</g>
<!-- Node1&#45;&gt;Node5 -->
<g id="edge4" class="edge">
<title>Node1&#45;&gt;Node5</title>
<path fill="none" stroke="midnightblue" d="M602.99,-768.92C562.68,-758.31 510.96,-744.7 472.62,-734.61"/>
<polygon fill="midnightblue" stroke="midnightblue" points="602.15,-772.32 612.71,-771.48 603.93,-765.55 602.15,-772.32"/>
</g>
<!-- Node44 -->
<g id="node43" class="node">
<title>Node44</title>
<g id="a_node43"><a xlink:href="f__pc__create__req_8h.html" target="_top" xlink:title=" ">
<polygon fill="white" stroke="black" points="604.5,-704.5 604.5,-734.5 727.5,-734.5 727.5,-704.5 604.5,-704.5"/>
<text text-anchor="start" x="612.5" y="-722.5" font-family="Helvetica,sans-Serif" font-size="10.00">include/f_pc/f_pc_create</text>
<text text-anchor="middle" x="666" y="-711.5" font-family="Helvetica,sans-Serif" font-size="10.00">_req.h</text>
</a>
</g>
</g>
<!-- Node1&#45;&gt;Node44 -->
<g id="edge62" class="edge">
<title>Node1&#45;&gt;Node44</title>
<path fill="none" stroke="midnightblue" d="M666,-761.11C666,-752.15 666,-742.32 666,-734.58"/>
<polygon fill="midnightblue" stroke="midnightblue" points="662.5,-761.4 666,-771.4 669.5,-761.4 662.5,-761.4"/>
</g>
<!-- Node5&#45;&gt;Node2 -->
<g id="edge6" class="edge">
<title>Node5&#45;&gt;Node2</title>
<path fill="none" stroke="midnightblue" d="M454.84,-699.71C474.39,-689.46 498.2,-676.98 516.15,-667.58"/>
<polygon fill="midnightblue" stroke="midnightblue" points="453.14,-696.65 445.91,-704.4 456.39,-702.85 453.14,-696.65"/>
</g>
<!-- Node6 -->
<g id="node6" class="node">
<title>Node6</title>
<g id="a_node6"><a xlink:href="f__pc__create__iter_8cpp.html" target="_top" xlink:title=" ">
<polygon fill="white" stroke="black" points="366,-637.5 366,-667.5 472,-667.5 472,-637.5 366,-637.5"/>
<text text-anchor="start" x="374" y="-655.5" font-family="Helvetica,sans-Serif" font-size="10.00">src/f_pc/f_pc_create</text>
<text text-anchor="middle" x="419" y="-644.5" font-family="Helvetica,sans-Serif" font-size="10.00">_iter.cpp</text>
</a>
</g>
</g>
<!-- Node5&#45;&gt;Node6 -->
<g id="edge5" class="edge">
<title>Node5&#45;&gt;Node6</title>
<path fill="none" stroke="midnightblue" d="M419,-694.11C419,-685.15 419,-675.32 419,-667.58"/>
<polygon fill="midnightblue" stroke="midnightblue" points="415.5,-694.4 419,-704.4 422.5,-694.4 415.5,-694.4"/>
</g>
<!-- Node7 -->
<g id="node7" class="node">
<title>Node7</title>
<g id="a_node7"><a xlink:href="f__pc__manager_8cpp.html" target="_top" xlink:title=" ">
<polygon fill="white" stroke="black" points="112,-576 112,-595 246,-595 246,-576 112,-576"/>
<text text-anchor="middle" x="179" y="-583" font-family="Helvetica,sans-Serif" font-size="10.00">src/f_pc/f_pc_manager.cpp</text>
</a>
</g>
</g>
<!-- Node5&#45;&gt;Node7 -->
<g id="edge7" class="edge">
<title>Node5&#45;&gt;Node7</title>
<path fill="none" stroke="midnightblue" d="M347.34,-710.55C290.74,-702.79 217.93,-689.06 197,-668 177.19,-648.06 177.07,-611.54 178.17,-595.02"/>
<polygon fill="midnightblue" stroke="midnightblue" points="346.97,-714.03 357.35,-711.88 347.9,-707.09 346.97,-714.03"/>
</g>
<!-- Node8 -->
<g id="node8" class="node">
<title>Node8</title>
<g id="a_node8"><a xlink:href="f__pc__manager_8h.html" target="_top" xlink:title=" ">
<polygon fill="white" stroke="black" points="206.5,-643 206.5,-662 347.5,-662 347.5,-643 206.5,-643"/>
<text text-anchor="middle" x="277" y="-650" font-family="Helvetica,sans-Serif" font-size="10.00">include/f_pc/f_pc_manager.h</text>
</a>
</g>
</g>
<!-- Node5&#45;&gt;Node8 -->
<g id="edge8" class="edge">
<title>Node5&#45;&gt;Node8</title>
<path fill="none" stroke="midnightblue" d="M378.87,-700.13C351.54,-687.62 316.63,-671.64 295.58,-662.01"/>
<polygon fill="midnightblue" stroke="midnightblue" points="377.64,-703.42 388.19,-704.4 380.55,-697.05 377.64,-703.42"/>
</g>
<!-- Node8&#45;&gt;Node7 -->
<g id="edge11" class="edge">
<title>Node8&#45;&gt;Node7</title>
<path fill="none" stroke="midnightblue" d="M255.28,-637.09C235.89,-624.24 208.14,-605.83 192.01,-595.13"/>
<polygon fill="midnightblue" stroke="midnightblue" points="253.52,-640.12 263.78,-642.73 257.38,-634.29 253.52,-640.12"/>
</g>
<!-- Node9 -->
<g id="node9" class="node">
<title>Node9</title>
<g id="a_node9"><a xlink:href="f__op__overlap__req_8cpp.html" target="_top" xlink:title=" ">
<polygon fill="white" stroke="black" points="582,-570.5 582,-600.5 692,-600.5 692,-570.5 582,-570.5"/>
<text text-anchor="start" x="590" y="-588.5" font-family="Helvetica,sans-Serif" font-size="10.00">src/f_op/f_op_overlap</text>
<text text-anchor="middle" x="637" y="-577.5" font-family="Helvetica,sans-Serif" font-size="10.00">_req.cpp</text>
</a>
</g>
</g>
<!-- Node8&#45;&gt;Node9 -->
<g id="edge9" class="edge">
<title>Node8&#45;&gt;Node9</title>
<path fill="none" stroke="midnightblue" d="M333.43,-641.17C341.34,-639.75 349.37,-638.33 357,-637 452.45,-620.36 476.91,-619.55 572,-601 575.18,-600.38 578.44,-599.72 581.72,-599.04"/>
<polygon fill="midnightblue" stroke="midnightblue" points="332.74,-637.74 323.51,-642.96 333.98,-644.63 332.74,-637.74"/>
</g>
<!-- Node10 -->
<g id="node10" class="node">
<title>Node10</title>
<g id="a_node10"><a xlink:href="f__op__scene__pause_8cpp.html" target="_top" xlink:title=" ">
<polygon fill="white" stroke="black" points="264.5,-570.5 264.5,-600.5 369.5,-600.5 369.5,-570.5 264.5,-570.5"/>
<text text-anchor="start" x="272.5" y="-588.5" font-family="Helvetica,sans-Serif" font-size="10.00">src/f_op/f_op_scene</text>
<text text-anchor="middle" x="317" y="-577.5" font-family="Helvetica,sans-Serif" font-size="10.00">_pause.cpp</text>
</a>
</g>
</g>
<!-- Node8&#45;&gt;Node10 -->
<g id="edge10" class="edge">
<title>Node8&#45;&gt;Node10</title>
<path fill="none" stroke="midnightblue" d="M287.75,-634.03C294.2,-623.56 302.29,-610.4 308.33,-600.59"/>
<polygon fill="midnightblue" stroke="midnightblue" points="284.65,-632.38 282.39,-642.73 290.62,-636.05 284.65,-632.38"/>
</g>
<!-- Node11 -->
<g id="node11" class="node">
<title>Node11</title>
<g id="a_node11"><a xlink:href="f__op__actor__mng_8h.html" target="_top" xlink:title=" ">
<polygon fill="white" stroke="black" points="710,-570.5 710,-600.5 828,-600.5 828,-570.5 710,-570.5"/>
<text text-anchor="start" x="718" y="-588.5" font-family="Helvetica,sans-Serif" font-size="10.00">include/f_op/f_op_actor</text>
<text text-anchor="middle" x="769" y="-577.5" font-family="Helvetica,sans-Serif" font-size="10.00">_mng.h</text>
</a>
</g>
</g>
<!-- Node8&#45;&gt;Node11 -->
<g id="edge12" class="edge">
<title>Node8&#45;&gt;Node11</title>
<path fill="none" stroke="midnightblue" d="M330.97,-641.15C339.66,-639.65 348.56,-638.2 357,-637 509.18,-615.28 549.17,-625.06 701,-601 703.86,-600.55 706.78,-600.05 709.73,-599.52"/>
<polygon fill="midnightblue" stroke="midnightblue" points="330.15,-637.74 320.92,-642.93 331.37,-644.63 330.15,-637.74"/>
</g>
<!-- Node12 -->
<g id="node12" class="node">
<title>Node12</title>
<g id="a_node12"><a xlink:href="d__a__player_8cpp.html" target="_top" xlink:title=" ">
<polygon fill="white" stroke="black" points="321,-386 321,-405 435,-405 435,-386 321,-386"/>
<text text-anchor="middle" x="378" y="-393" font-family="Helvetica,sans-Serif" font-size="10.00">src/d/a/d_a_player.cpp</text>
</a>
</g>
</g>
<!-- Node11&#45;&gt;Node12 -->
<g id="edge13" class="edge">
<title>Node11&#45;&gt;Node12</title>
<path fill="none" stroke="midnightblue" d="M700.02,-568.07C615.25,-546.94 477.43,-509.24 435,-478 408.02,-458.14 389.2,-421.58 381.66,-405.03"/>
<polygon fill="midnightblue" stroke="midnightblue" points="699.28,-571.49 709.83,-570.5 700.97,-564.7 699.28,-571.49"/>
</g>
<!-- Node13 -->
<g id="node13" class="node">
<title>Node13</title>
<g id="a_node13"><a xlink:href="d__cc__d__nonmatching_8cpp.html" target="_top" xlink:title=" ">
<polygon fill="white" stroke="black" points="1205.5,-514.5 1205.5,-533.5 1370.5,-533.5 1370.5,-514.5 1205.5,-514.5"/>
<text text-anchor="middle" x="1288" y="-521.5" font-family="Helvetica,sans-Serif" font-size="10.00">src/d/cc/d_cc_d_nonmatching.cpp</text>
</a>
</g>
</g>
<!-- Node11&#45;&gt;Node13 -->
<g id="edge14" class="edge">
<title>Node11&#45;&gt;Node13</title>
<path fill="none" stroke="midnightblue" d="M838.44,-570C898.53,-561.98 1092.33,-543.41 1205.11,-532.77"/>
<polygon fill="midnightblue" stroke="midnightblue" points="837.67,-566.57 828.27,-571.46 838.66,-573.5 837.67,-566.57"/>
</g>
<!-- Node14 -->
<g id="node14" class="node">
<title>Node14</title>
<g id="a_node14"><a xlink:href="d__bomb_8cpp.html" target="_top" xlink:title=" ">
<polygon fill="white" stroke="black" points="37,-252 37,-271 131,-271 131,-252 37,-252"/>
<text text-anchor="middle" x="84" y="-259" font-family="Helvetica,sans-Serif" font-size="10.00">src/d/d_bomb.cpp</text>
</a>
</g>
</g>
<!-- Node11&#45;&gt;Node14 -->
<g id="edge15" class="edge">
<title>Node11&#45;&gt;Node14</title>
<path fill="none" stroke="midnightblue" d="M699.69,-570C533.36,-545.38 38,-609.66 38,-463.5 38,-463.5 38,-463.5 38,-394.5 38,-357.31 43.9,-347.81 57,-313 62.81,-297.55 72.44,-280.91 78.49,-271.11"/>
<polygon fill="midnightblue" stroke="midnightblue" points="699.26,-573.48 709.7,-571.67 700.41,-566.57 699.26,-573.48"/>
</g>
<!-- Node15 -->
<g id="node15" class="node">
<title>Node15</title>
<g id="a_node15"><a xlink:href="d__a__alink_8cpp.html" target="_top" xlink:title=" ">
<polygon fill="white" stroke="black" points="408.5,-67.5 408.5,-86.5 517.5,-86.5 517.5,-67.5 408.5,-67.5"/>
<text text-anchor="middle" x="463" y="-74.5" font-family="Helvetica,sans-Serif" font-size="10.00">src/d/a/d_a_alink.cpp</text>
</a>
</g>
</g>
<!-- Node11&#45;&gt;Node15 -->
<g id="edge16" class="edge">
<title>Node11&#45;&gt;Node15</title>
<path fill="none" stroke="midnightblue" d="M699.8,-570.09C544.24,-553 187.14,-594.89 62,-534 24.48,-515.74 0,-505.23 0,-463.5 0,-463.5 0,-463.5 0,-199 0,-115.5 285.43,-88.53 408.07,-80.79"/>
<polygon fill="midnightblue" stroke="midnightblue" points="699.41,-573.57 709.76,-571.31 700.25,-566.62 699.41,-573.57"/>
</g>
<!-- Node16 -->
<g id="node16" class="node">
<title>Node16</title>
<g id="a_node16"><a xlink:href="d__event_8cpp.html" target="_top" xlink:title=" ">
<polygon fill="white" stroke="black" points="820.5,-67.5 820.5,-86.5 941.5,-86.5 941.5,-67.5 820.5,-67.5"/>
<text text-anchor="middle" x="881" y="-74.5" font-family="Helvetica,sans-Serif" font-size="10.00">src/d/event/d_event.cpp</text>
</a>
</g>
</g>
<!-- Node11&#45;&gt;Node16 -->
<g id="edge17" class="edge">
<title>Node11&#45;&gt;Node16</title>
<path fill="none" stroke="midnightblue" d="M837.91,-568.99C933.73,-546.86 1101.78,-505.82 1158,-478 1167.52,-473.29 1177,-474.12 1177,-463.5 1177,-463.5 1177,-463.5 1177,-199 1177,-145.29 1007.89,-103.64 925.31,-86.51"/>
<polygon fill="midnightblue" stroke="midnightblue" points="836.97,-565.62 828.01,-571.27 838.54,-572.44 836.97,-565.62"/>
</g>
<!-- Node17 -->
<g id="node17" class="node">
<title>Node17</title>
<g id="a_node17"><a xlink:href="f__op__actor__mng_8cpp.html" target="_top" xlink:title=" ">
<polygon fill="white" stroke="black" points="1047.5,-447.5 1047.5,-477.5 1148.5,-477.5 1148.5,-447.5 1047.5,-447.5"/>
<text text-anchor="start" x="1055.5" y="-465.5" font-family="Helvetica,sans-Serif" font-size="10.00">src/f_op/f_op_actor</text>
<text text-anchor="middle" x="1098" y="-454.5" font-family="Helvetica,sans-Serif" font-size="10.00">_mng.cpp</text>
</a>
</g>
</g>
<!-- Node11&#45;&gt;Node17 -->
<g id="edge18" class="edge">
<title>Node11&#45;&gt;Node17</title>
<path fill="none" stroke="midnightblue" d="M817.1,-566.81C882.92,-542.6 999.71,-499.65 1059.86,-477.53"/>
<polygon fill="midnightblue" stroke="midnightblue" points="815.56,-563.65 807.38,-570.38 817.98,-570.22 815.56,-563.65"/>
</g>
<!-- Node18 -->
<g id="node18" class="node">
<title>Node18</title>
<g id="a_node18"><a xlink:href="d__stage_8h.html" target="_top" xlink:title=" ">
<polygon fill="white" stroke="black" points="718.5,-514.5 718.5,-533.5 819.5,-533.5 819.5,-514.5 718.5,-514.5"/>
<text text-anchor="middle" x="769" y="-521.5" font-family="Helvetica,sans-Serif" font-size="10.00">include/d/d_stage.h</text>
</a>
</g>
</g>
<!-- Node11&#45;&gt;Node18 -->
<g id="edge19" class="edge">
<title>Node11&#45;&gt;Node18</title>
<path fill="none" stroke="midnightblue" d="M769,-560.29C769,-550.86 769,-540.65 769,-533.66"/>
<polygon fill="midnightblue" stroke="midnightblue" points="765.5,-560.4 769,-570.4 772.5,-560.4 765.5,-560.4"/>
</g>
<!-- Node18&#45;&gt;Node17 -->
<g id="edge22" class="edge">
<title>Node18&#45;&gt;Node17</title>
<path fill="none" stroke="midnightblue" d="M829.99,-514.07C884.66,-505.76 966.96,-492.51 1038,-478 1041.04,-477.38 1044.17,-476.71 1047.32,-476.02"/>
<polygon fill="midnightblue" stroke="midnightblue" points="829.13,-510.66 819.77,-515.61 830.18,-517.58 829.13,-510.66"/>
</g>
<!-- Node19 -->
<g id="node19" class="node">
<title>Node19</title>
<g id="a_node19"><a xlink:href="d__stage_8cpp.html" target="_top" xlink:title=" ">
<polygon fill="white" stroke="black" points="935,-453 935,-472 1029,-472 1029,-453 935,-453"/>
<text text-anchor="middle" x="982" y="-460" font-family="Helvetica,sans-Serif" font-size="10.00">src/d/d_stage.cpp</text>
</a>
</g>
</g>
<!-- Node18&#45;&gt;Node19 -->
<g id="edge20" class="edge">
<title>Node18&#45;&gt;Node19</title>
<path fill="none" stroke="midnightblue" d="M809.28,-511.75C850.66,-500.19 914.16,-482.45 951.54,-472.01"/>
<polygon fill="midnightblue" stroke="midnightblue" points="808.21,-508.41 799.52,-514.48 810.09,-515.16 808.21,-508.41"/>
</g>
<!-- Node20 -->
<g id="node20" class="node">
<title>Node20</title>
<g id="a_node20"><a xlink:href="f__op__actor_8cpp.html" target="_top" xlink:title=" ">
<polygon fill="white" stroke="black" points="583.5,-453 583.5,-472 702.5,-472 702.5,-453 583.5,-453"/>
<text text-anchor="middle" x="643" y="-460" font-family="Helvetica,sans-Serif" font-size="10.00">src/f_op/f_op_actor.cpp</text>
</a>
</g>
</g>
<!-- Node18&#45;&gt;Node20 -->
<g id="edge21" class="edge">
<title>Node18&#45;&gt;Node20</title>
<path fill="none" stroke="midnightblue" d="M741.84,-510.17C717.39,-498.63 682.15,-481.99 661.02,-472.01"/>
<polygon fill="midnightblue" stroke="midnightblue" points="740.41,-513.37 750.95,-514.48 743.4,-507.04 740.41,-513.37"/>
</g>
<!-- Node21 -->
<g id="node21" class="node">
<title>Node21</title>
<g id="a_node21"><a xlink:href="d__a__player_8h.html" target="_top" xlink:title=" ">
<polygon fill="white" stroke="black" points="444.5,-453 444.5,-472 565.5,-472 565.5,-453 444.5,-453"/>
<text text-anchor="middle" x="505" y="-460" font-family="Helvetica,sans-Serif" font-size="10.00">include/d/a/d_a_player.h</text>
</a>
</g>
</g>
<!-- Node18&#45;&gt;Node21 -->
<g id="edge23" class="edge">
<title>Node18&#45;&gt;Node21</title>
<path fill="none" stroke="midnightblue" d="M721.34,-512.26C670.13,-500.72 589.77,-482.61 542.75,-472.01"/>
<polygon fill="midnightblue" stroke="midnightblue" points="720.65,-515.69 731.18,-514.48 722.19,-508.86 720.65,-515.69"/>
</g>
<!-- Node23 -->
<g id="node23" class="node">
<title>Node23</title>
<g id="a_node23"><a xlink:href="d__com__inf__game_8h.html" target="_top" xlink:title=" ">
<polygon fill="white" stroke="black" points="567,-123.5 567,-153.5 677,-153.5 677,-123.5 567,-123.5"/>
<text text-anchor="start" x="575" y="-141.5" font-family="Helvetica,sans-Serif" font-size="10.00">include/d/com/d_com</text>
<text text-anchor="middle" x="622" y="-130.5" font-family="Helvetica,sans-Serif" font-size="10.00">_inf_game.h</text>
</a>
</g>
</g>
<!-- Node18&#45;&gt;Node23 -->
<g id="edge54" class="edge">
<title>Node18&#45;&gt;Node23</title>
<path fill="none" stroke="midnightblue" d="M766.46,-504.19C762.19,-471.63 753.67,-402.61 750,-344 749.73,-339.73 749.43,-193.52 747,-190 731.13,-166.97 702.84,-154.43 677.18,-147.62"/>
<polygon fill="midnightblue" stroke="midnightblue" points="763.04,-505 767.83,-514.45 769.98,-504.08 763.04,-505"/>
</g>
<!-- Node39 -->
<g id="node38" class="node">
<title>Node39</title>
<g id="a_node38"><a xlink:href="d__event_8h.html" target="_top" xlink:title=" ">
<polygon fill="white" stroke="black" points="759,-319 759,-338 887,-338 887,-319 759,-319"/>
<text text-anchor="middle" x="823" y="-326" font-family="Helvetica,sans-Serif" font-size="10.00">include/d/event/d_event.h</text>
</a>
</g>
</g>
<!-- Node18&#45;&gt;Node39 -->
<g id="edge55" class="edge">
<title>Node18&#45;&gt;Node39</title>
<path fill="none" stroke="midnightblue" d="M768.73,-503.91C768.94,-475.81 771.71,-422.1 788,-380 794.31,-363.68 806.9,-347.55 815.13,-338.06"/>
<polygon fill="midnightblue" stroke="midnightblue" points="765.23,-504.28 768.76,-514.27 772.23,-504.26 765.23,-504.28"/>
</g>
<!-- Node40 -->
<g id="node39" class="node">
<title>Node40</title>
<g id="a_node39"><a xlink:href="d__event__data_8h.html" target="_top" xlink:title=" ">
<polygon fill="white" stroke="black" points="797,-447.5 797,-477.5 917,-477.5 917,-447.5 797,-447.5"/>
<text text-anchor="start" x="805" y="-465.5" font-family="Helvetica,sans-Serif" font-size="10.00">include/d/event/d_event</text>
<text text-anchor="middle" x="857" y="-454.5" font-family="Helvetica,sans-Serif" font-size="10.00">_data.h</text>
</a>
</g>
</g>
<!-- Node18&#45;&gt;Node40 -->
<g id="edge56" class="edge">
<title>Node18&#45;&gt;Node40</title>
<path fill="none" stroke="midnightblue" d="M790.09,-508.74C804.08,-499.28 822.35,-486.93 836.26,-477.52"/>
<polygon fill="midnightblue" stroke="midnightblue" points="787.93,-505.97 781.61,-514.48 791.85,-511.77 787.93,-505.97"/>
</g>
<!-- Node21&#45;&gt;Node12 -->
<g id="edge24" class="edge">
<title>Node21&#45;&gt;Node12</title>
<path fill="none" stroke="midnightblue" d="M479.16,-448.27C454,-435.4 416.51,-416.21 394.93,-405.17"/>
<polygon fill="midnightblue" stroke="midnightblue" points="477.64,-451.43 488.14,-452.87 480.83,-445.2 477.64,-451.43"/>
</g>
<!-- Node22 -->
<g id="node22" class="node">
<title>Node22</title>
<g id="a_node22"><a xlink:href="d__a__alink_8h.html" target="_top" xlink:title=" ">
<polygon fill="white" stroke="black" points="459,-190.5 459,-209.5 575,-209.5 575,-190.5 459,-190.5"/>
<text text-anchor="middle" x="517" y="-197.5" font-family="Helvetica,sans-Serif" font-size="10.00">include/d/a/d_a_alink.h</text>
</a>
</g>
</g>
<!-- Node21&#45;&gt;Node22 -->
<g id="edge25" class="edge">
<title>Node21&#45;&gt;Node22</title>
<path fill="none" stroke="midnightblue" d="M529.31,-447.44C542.29,-438.64 557.33,-426.11 566,-411 581.02,-384.83 574.55,-374.08 577,-344 580.54,-300.59 596.48,-284.96 577,-246 568.56,-229.11 550.43,-216.92 536.3,-209.52"/>
<polygon fill="midnightblue" stroke="midnightblue" points="527.29,-444.57 520.76,-452.92 531.07,-450.47 527.29,-444.57"/>
</g>
<!-- Node28 -->
<g id="node28" class="node">
<title>Node28</title>
<g id="a_node28"><a xlink:href="d__bg__s__acch_8h.html" target="_top" xlink:title=" ">
<polygon fill="white" stroke="black" points="453,-380.5 453,-410.5 557,-410.5 557,-380.5 453,-380.5"/>
<text text-anchor="start" x="461" y="-398.5" font-family="Helvetica,sans-Serif" font-size="10.00">include/d/bg/d_bg_s</text>
<text text-anchor="middle" x="505" y="-387.5" font-family="Helvetica,sans-Serif" font-size="10.00">_acch.h</text>
</a>
</g>
</g>
<!-- Node21&#45;&gt;Node28 -->
<g id="edge35" class="edge">
<title>Node21&#45;&gt;Node28</title>
<path fill="none" stroke="midnightblue" d="M505,-442.41C505,-432.22 505,-419.9 505,-410.59"/>
<polygon fill="midnightblue" stroke="midnightblue" points="501.5,-442.73 505,-452.73 508.5,-442.73 501.5,-442.73"/>
</g>
<!-- Node37 -->
<g id="node36" class="node">
<title>Node37</title>
<g id="a_node36"><a xlink:href="d__attention_8h.html" target="_top" xlink:title=" ">
<polygon fill="white" stroke="black" points="625,-252 625,-271 739,-271 739,-252 625,-252"/>
<text text-anchor="middle" x="682" y="-259" font-family="Helvetica,sans-Serif" font-size="10.00">include/d/d_attention.h</text>
</a>
</g>
</g>
<!-- Node21&#45;&gt;Node37 -->
<g id="edge47" class="edge">
<title>Node21&#45;&gt;Node37</title>
<path fill="none" stroke="midnightblue" d="M545.76,-449.48C567.33,-441.44 592.99,-428.99 611,-411 653.46,-368.6 674.04,-295.83 680.06,-271.05"/>
<polygon fill="midnightblue" stroke="midnightblue" points="544.45,-446.24 536.19,-452.87 546.78,-452.83 544.45,-446.24"/>
</g>
<!-- Node21&#45;&gt;Node39 -->
<g id="edge51" class="edge">
<title>Node21&#45;&gt;Node39</title>
<path fill="none" stroke="midnightblue" d="M541.66,-449.78C570.99,-440.13 613.02,-425.69 649,-411 707.68,-387.04 775.1,-353.75 805.97,-338.18"/>
<polygon fill="midnightblue" stroke="midnightblue" points="540.26,-446.55 531.84,-452.99 542.43,-453.21 540.26,-446.55"/>
</g>
<!-- Node22&#45;&gt;Node15 -->
<g id="edge26" class="edge">
<title>Node22&#45;&gt;Node15</title>
<path fill="none" stroke="midnightblue" d="M508.99,-181.05C497.2,-154.62 475.61,-106.26 466.85,-86.62"/>
<polygon fill="midnightblue" stroke="midnightblue" points="505.84,-182.59 513.12,-190.3 512.24,-179.74 505.84,-182.59"/>
</g>
<!-- Node22&#45;&gt;Node23 -->
<g id="edge27" class="edge">
<title>Node22&#45;&gt;Node23</title>
<path fill="none" stroke="midnightblue" d="M540.75,-185.54C557.6,-175.99 580.18,-163.2 597.25,-153.52"/>
<polygon fill="midnightblue" stroke="midnightblue" points="539.02,-182.5 532.04,-190.48 542.47,-188.59 539.02,-182.5"/>
</g>
<!-- Node23&#45;&gt;Node15 -->
<g id="edge29" class="edge">
<title>Node23&#45;&gt;Node15</title>
<path fill="none" stroke="midnightblue" d="M574.7,-119.8C545.47,-108.86 509.26,-95.31 486.14,-86.66"/>
<polygon fill="midnightblue" stroke="midnightblue" points="573.73,-123.17 584.32,-123.4 576.18,-116.62 573.73,-123.17"/>
</g>
<!-- Node23&#45;&gt;Node16 -->
<g id="edge30" class="edge">
<title>Node23&#45;&gt;Node16</title>
<path fill="none" stroke="midnightblue" d="M687.22,-122.52C736.71,-111.15 802.98,-95.92 843.8,-86.55"/>
<polygon fill="midnightblue" stroke="midnightblue" points="686.21,-119.16 677.24,-124.81 687.77,-125.98 686.21,-119.16"/>
</g>
<!-- Node24 -->
<g id="node24" class="node">
<title>Node24</title>
<g id="a_node24"><a xlink:href="d__com__inf__game_8cpp.html" target="_top" xlink:title=" ">
<polygon fill="white" stroke="black" points="492,-0.5 492,-30.5 600,-30.5 600,-0.5 492,-0.5"/>
<text text-anchor="start" x="500" y="-18.5" font-family="Helvetica,sans-Serif" font-size="10.00">src/d/com/d_com_inf</text>
<text text-anchor="middle" x="546" y="-7.5" font-family="Helvetica,sans-Serif" font-size="10.00">_game.cpp</text>
</a>
</g>
</g>
<!-- Node23&#45;&gt;Node24 -->
<g id="edge28" class="edge">
<title>Node23&#45;&gt;Node24</title>
<path fill="none" stroke="midnightblue" d="M592.82,-117.25C582.71,-108.93 572.14,-98.53 565,-87 554.12,-69.43 549.39,-45.66 547.39,-30.7"/>
<polygon fill="midnightblue" stroke="midnightblue" points="590.71,-120.05 600.74,-123.46 595.03,-114.54 590.71,-120.05"/>
</g>
<!-- Node25 -->
<g id="node25" class="node">
<title>Node25</title>
<g id="a_node25"><a xlink:href="d__save_8cpp.html" target="_top" xlink:title=" ">
<polygon fill="white" stroke="black" points="687.5,-67.5 687.5,-86.5 802.5,-86.5 802.5,-67.5 687.5,-67.5"/>
<text text-anchor="middle" x="745" y="-74.5" font-family="Helvetica,sans-Serif" font-size="10.00">src/d/save/d_save.cpp</text>
</a>
</g>
</g>
<!-- Node23&#45;&gt;Node25 -->
<g id="edge31" class="edge">
<title>Node23&#45;&gt;Node25</title>
<path fill="none" stroke="midnightblue" d="M660.37,-118.94C682.65,-108.16 709.68,-95.08 727.1,-86.66"/>
<polygon fill="midnightblue" stroke="midnightblue" points="658.63,-115.89 651.15,-123.4 661.68,-122.2 658.63,-115.89"/>
</g>
<!-- Node26 -->
<g id="node26" class="node">
<title>Node26</title>
<g id="a_node26"><a xlink:href="d__item_8h.html" target="_top" xlink:title=" ">
<polygon fill="white" stroke="black" points="574.5,-67.5 574.5,-86.5 669.5,-86.5 669.5,-67.5 574.5,-67.5"/>
<text text-anchor="middle" x="622" y="-74.5" font-family="Helvetica,sans-Serif" font-size="10.00">include/d/d_item.h</text>
</a>
</g>
</g>
<!-- Node23&#45;&gt;Node26 -->
<g id="edge32" class="edge">
<title>Node23&#45;&gt;Node26</title>
<path fill="none" stroke="midnightblue" d="M622,-113.29C622,-103.86 622,-93.65 622,-86.66"/>
<polygon fill="midnightblue" stroke="midnightblue" points="618.5,-113.4 622,-123.4 625.5,-113.4 618.5,-113.4"/>
</g>
<!-- Node26&#45;&gt;Node24 -->
<g id="edge33" class="edge">
<title>Node26&#45;&gt;Node24</title>
<path fill="none" stroke="midnightblue" d="M603.09,-61.2C591.11,-51.81 575.7,-39.75 563.91,-30.52"/>
<polygon fill="midnightblue" stroke="midnightblue" points="601.08,-64.07 611.11,-67.48 605.39,-58.55 601.08,-64.07"/>
</g>
<!-- Node27 -->
<g id="node27" class="node">
<title>Node27</title>
<g id="a_node27"><a xlink:href="d__item_8cpp.html" target="_top" xlink:title=" ">
<polygon fill="white" stroke="black" points="618.5,-6 618.5,-25 707.5,-25 707.5,-6 618.5,-6"/>
<text text-anchor="middle" x="663" y="-13" font-family="Helvetica,sans-Serif" font-size="10.00">src/d/d_item.cpp</text>
</a>
</g>
</g>
<!-- Node26&#45;&gt;Node27 -->
<g id="edge34" class="edge">
<title>Node26&#45;&gt;Node27</title>
<path fill="none" stroke="midnightblue" d="M633.71,-59.01C641.37,-47.89 651.05,-33.84 657.14,-25.01"/>
<polygon fill="midnightblue" stroke="midnightblue" points="630.67,-57.25 627.87,-67.48 636.43,-61.23 630.67,-57.25"/>
</g>
<!-- Node29 -->
<g id="node29" class="node">
<title>Node29</title>
<g id="a_node29"><a xlink:href="d__bg__s__acch_8cpp.html" target="_top" xlink:title=" ">
<polygon fill="white" stroke="black" points="185.5,-319 185.5,-338 316.5,-338 316.5,-319 185.5,-319"/>
<text text-anchor="middle" x="251" y="-326" font-family="Helvetica,sans-Serif" font-size="10.00">src/d/bg/d_bg_s_acch.cpp</text>
</a>
</g>
</g>
<!-- Node28&#45;&gt;Node29 -->
<g id="edge36" class="edge">
<title>Node28&#45;&gt;Node29</title>
<path fill="none" stroke="midnightblue" d="M443.24,-378.7C393.21,-365.89 324.63,-348.34 284.35,-338.03"/>
<polygon fill="midnightblue" stroke="midnightblue" points="442.43,-382.1 452.99,-381.19 444.17,-375.32 442.43,-382.1"/>
</g>
<!-- Node30 -->
<g id="node30" class="node">
<title>Node30</title>
<g id="a_node30"><a xlink:href="d__bg__w_8h.html" target="_top" xlink:title=" ">
<polygon fill="white" stroke="black" points="455.5,-319 455.5,-338 568.5,-338 568.5,-319 455.5,-319"/>
<text text-anchor="middle" x="512" y="-326" font-family="Helvetica,sans-Serif" font-size="10.00">include/d/bg/d_bg_w.h</text>
</a>
</g>
</g>
<!-- Node28&#45;&gt;Node30 -->
<g id="edge37" class="edge">
<title>Node28&#45;&gt;Node30</title>
<path fill="none" stroke="midnightblue" d="M507.61,-370.25C508.82,-359.02 510.18,-346.38 511.06,-338.19"/>
<polygon fill="midnightblue" stroke="midnightblue" points="504.11,-370.08 506.52,-380.4 511.07,-370.83 504.11,-370.08"/>
</g>
<!-- Node34 -->
<g id="node33" class="node">
<title>Node34</title>
<g id="a_node33"><a xlink:href="d__bomb_8h.html" target="_top" xlink:title=" ">
<polygon fill="white" stroke="black" points="66.5,-319 66.5,-338 167.5,-338 167.5,-319 66.5,-319"/>
<text text-anchor="middle" x="117" y="-326" font-family="Helvetica,sans-Serif" font-size="10.00">include/d/d_bomb.h</text>
</a>
</g>
</g>
<!-- Node28&#45;&gt;Node34 -->
<g id="edge42" class="edge">
<title>Node28&#45;&gt;Node34</title>
<path fill="none" stroke="midnightblue" d="M442.98,-379.93C324.1,-358.49 290.97,-365.78 176,-344 167.19,-342.33 157.73,-340.17 149.01,-338.03"/>
<polygon fill="midnightblue" stroke="midnightblue" points="442.36,-383.38 452.83,-381.74 443.62,-376.49 442.36,-383.38"/>
</g>
<!-- Node35 -->
<g id="node34" class="node">
<title>Node35</title>
<g id="a_node34"><a xlink:href="d__particle__copoly_8h.html" target="_top" xlink:title=" ">
<polygon fill="white" stroke="black" points="335,-313.5 335,-343.5 437,-343.5 437,-313.5 335,-313.5"/>
<text text-anchor="start" x="343" y="-331.5" font-family="Helvetica,sans-Serif" font-size="10.00">include/d/particle</text>
<text text-anchor="middle" x="386" y="-320.5" font-family="Helvetica,sans-Serif" font-size="10.00">/d_particle_copoly.h</text>
</a>
</g>
</g>
<!-- Node28&#45;&gt;Node35 -->
<g id="edge44" class="edge">
<title>Node28&#45;&gt;Node35</title>
<path fill="none" stroke="midnightblue" d="M470.35,-375.57C451.63,-365.35 428.91,-352.94 411.77,-343.58"/>
<polygon fill="midnightblue" stroke="midnightblue" points="468.72,-378.67 479.18,-380.4 472.08,-372.53 468.72,-378.67"/>
</g>
<!-- Node31 -->
<g id="node31" class="node">
<title>Node31</title>
<g id="a_node31"><a xlink:href="d__bg__w_8cpp.html" target="_top" xlink:title=" ">
<polygon fill="white" stroke="black" points="332.5,-252 332.5,-271 439.5,-271 439.5,-252 332.5,-252"/>
<text text-anchor="middle" x="386" y="-259" font-family="Helvetica,sans-Serif" font-size="10.00">src/d/bg/d_bg_w.cpp</text>
</a>
</g>
</g>
<!-- Node30&#45;&gt;Node31 -->
<g id="edge38" class="edge">
<title>Node30&#45;&gt;Node31</title>
<path fill="none" stroke="midnightblue" d="M486.36,-314.27C461.41,-301.4 424.2,-282.21 402.8,-271.17"/>
<polygon fill="midnightblue" stroke="midnightblue" points="484.78,-317.39 495.27,-318.87 487.99,-311.17 484.78,-317.39"/>
</g>
<!-- Node32 -->
<g id="node32" class="node">
<title>Node32</title>
<g id="a_node32"><a xlink:href="d__bg__s_8h.html" target="_top" xlink:title=" ">
<polygon fill="white" stroke="red" points="457.5,-252 457.5,-271 568.5,-271 568.5,-252 457.5,-252"/>
<text text-anchor="middle" x="513" y="-259" font-family="Helvetica,sans-Serif" font-size="10.00">include/d/bg/d_bg_s.h</text>
</a>
</g>
</g>
<!-- Node30&#45;&gt;Node32 -->
<g id="edge39" class="edge">
<title>Node30&#45;&gt;Node32</title>
<path fill="none" stroke="midnightblue" d="M512.29,-308.54C512.48,-296.17 512.72,-280.62 512.87,-271.13"/>
<polygon fill="midnightblue" stroke="midnightblue" points="508.79,-308.68 512.13,-318.73 515.79,-308.79 508.79,-308.68"/>
</g>
<!-- Node32&#45;&gt;Node22 -->
<g id="edge40" class="edge">
<title>Node32&#45;&gt;Node22</title>
<path fill="none" stroke="midnightblue" d="M514.26,-241.82C514.98,-231 515.86,-217.9 516.43,-209.51"/>
<polygon fill="midnightblue" stroke="midnightblue" points="510.75,-241.76 513.57,-251.98 517.74,-242.23 510.75,-241.76"/>
</g>
<!-- Node32&#45;&gt;Node23 -->
<g id="edge41" class="edge">
<title>Node32&#45;&gt;Node23</title>
<path fill="none" stroke="midnightblue" d="M485.94,-246.78C462.42,-233 434.37,-210.88 450,-190 464.17,-171.07 522.15,-156.81 566.92,-148.36"/>
<polygon fill="midnightblue" stroke="midnightblue" points="484.52,-249.99 494.96,-251.8 487.93,-243.88 484.52,-249.99"/>
</g>
<!-- Node34&#45;&gt;Node14 -->
<g id="edge43" class="edge">
<title>Node34&#45;&gt;Node14</title>
<path fill="none" stroke="midnightblue" d="M107.94,-309.66C101.58,-297.13 93.35,-280.91 88.38,-271.13"/>
<polygon fill="midnightblue" stroke="midnightblue" points="104.9,-311.4 112.55,-318.73 111.14,-308.23 104.9,-311.4"/>
</g>
<!-- Node35&#45;&gt;Node22 -->
<g id="edge46" class="edge">
<title>Node35&#45;&gt;Node22</title>
<path fill="none" stroke="midnightblue" d="M324.97,-312.95C267.28,-299.06 189.2,-279.83 187,-277 178.54,-266.13 177.94,-256.38 187,-246 221.6,-206.36 373.8,-200.34 458.89,-200.17"/>
<polygon fill="midnightblue" stroke="midnightblue" points="324.22,-316.37 334.76,-315.31 325.85,-309.56 324.22,-316.37"/>
</g>
<!-- Node36 -->
<g id="node35" class="node">
<title>Node36</title>
<g id="a_node35"><a xlink:href="d__particle__copoly_8cpp.html" target="_top" xlink:title=" ">
<polygon fill="white" stroke="black" points="196,-246.5 196,-276.5 314,-276.5 314,-246.5 196,-246.5"/>
<text text-anchor="start" x="204" y="-264.5" font-family="Helvetica,sans-Serif" font-size="10.00">src/d/particle/d_particle</text>
<text text-anchor="middle" x="255" y="-253.5" font-family="Helvetica,sans-Serif" font-size="10.00">_copoly.cpp</text>
</a>
</g>
</g>
<!-- Node35&#45;&gt;Node36 -->
<g id="edge45" class="edge">
<title>Node35&#45;&gt;Node36</title>
<path fill="none" stroke="midnightblue" d="M348.42,-308.85C327.71,-298.58 302.41,-286.03 283.37,-276.58"/>
<polygon fill="midnightblue" stroke="midnightblue" points="347.06,-312.09 357.57,-313.4 350.17,-305.82 347.06,-312.09"/>
</g>
<!-- Node37&#45;&gt;Node22 -->
<g id="edge49" class="edge">
<title>Node37&#45;&gt;Node22</title>
<path fill="none" stroke="midnightblue" d="M648.95,-248.58C616.88,-237.02 569,-219.75 540.6,-209.51"/>
<polygon fill="midnightblue" stroke="midnightblue" points="647.77,-251.88 658.36,-251.98 650.14,-245.29 647.77,-251.88"/>
</g>
<!-- Node37&#45;&gt;Node23 -->
<g id="edge50" class="edge">
<title>Node37&#45;&gt;Node23</title>
<path fill="none" stroke="midnightblue" d="M656.63,-246.51C643.68,-237.86 629.19,-225.45 622,-210 613.63,-192.02 615.86,-168.57 618.62,-153.76"/>
<polygon fill="midnightblue" stroke="midnightblue" points="654.89,-249.56 665.23,-251.89 658.61,-243.62 654.89,-249.56"/>
</g>
<!-- Node38 -->
<g id="node37" class="node">
<title>Node38</title>
<g id="a_node37"><a xlink:href="d__attention_8cpp.html" target="_top" xlink:title=" ">
<polygon fill="white" stroke="black" points="631.5,-190.5 631.5,-209.5 738.5,-209.5 738.5,-190.5 631.5,-190.5"/>
<text text-anchor="middle" x="685" y="-197.5" font-family="Helvetica,sans-Serif" font-size="10.00">src/d/d_attention.cpp</text>
</a>
</g>
</g>
<!-- Node37&#45;&gt;Node38 -->
<g id="edge48" class="edge">
<title>Node37&#45;&gt;Node38</title>
<path fill="none" stroke="midnightblue" d="M682.94,-241.82C683.49,-231 684.15,-217.9 684.57,-209.51"/>
<polygon fill="midnightblue" stroke="midnightblue" points="679.44,-241.81 682.43,-251.98 686.43,-242.16 679.44,-241.81"/>
</g>
<!-- Node39&#45;&gt;Node16 -->
<g id="edge52" class="edge">
<title>Node39&#45;&gt;Node16</title>
<path fill="none" stroke="midnightblue" d="M827.26,-309.16C838.87,-259.21 870.73,-122.17 879.01,-86.55"/>
<polygon fill="midnightblue" stroke="midnightblue" points="823.85,-308.38 825,-318.91 830.67,-309.96 823.85,-308.38"/>
</g>
<!-- Node39&#45;&gt;Node23 -->
<g id="edge53" class="edge">
<title>Node39&#45;&gt;Node23</title>
<path fill="none" stroke="midnightblue" d="M822.56,-308.56C820.83,-279.17 813.23,-222.59 781,-190 753.71,-162.41 711.42,-149.86 677.32,-144.17"/>
<polygon fill="midnightblue" stroke="midnightblue" points="819.06,-308.86 822.97,-318.7 826.06,-308.57 819.06,-308.86"/>
</g>
<!-- Node41 -->
<g id="node40" class="node">
<title>Node41</title>
<g id="a_node40"><a xlink:href="d__event__data_8cpp.html" target="_top" xlink:title=" ">
<polygon fill="white" stroke="black" points="935.5,-380.5 935.5,-410.5 1038.5,-410.5 1038.5,-380.5 935.5,-380.5"/>
<text text-anchor="start" x="943.5" y="-398.5" font-family="Helvetica,sans-Serif" font-size="10.00">src/d/event/d_event</text>
<text text-anchor="middle" x="987" y="-387.5" font-family="Helvetica,sans-Serif" font-size="10.00">_data.cpp</text>
</a>
</g>
</g>
<!-- Node40&#45;&gt;Node41 -->
<g id="edge57" class="edge">
<title>Node40&#45;&gt;Node41</title>
<path fill="none" stroke="midnightblue" d="M894.29,-442.85C914.85,-432.58 939.95,-420.03 958.85,-410.58"/>
<polygon fill="midnightblue" stroke="midnightblue" points="892.59,-439.79 885.21,-447.4 895.72,-446.05 892.59,-439.79"/>
</g>
<!-- Node42 -->
<g id="node41" class="node">
<title>Node42</title>
<g id="a_node41"><a xlink:href="d__event__manager_8h.html" target="_top" xlink:title=" ">
<polygon fill="white" stroke="black" points="797,-380.5 797,-410.5 917,-410.5 917,-380.5 797,-380.5"/>
<text text-anchor="start" x="805" y="-398.5" font-family="Helvetica,sans-Serif" font-size="10.00">include/d/event/d_event</text>
<text text-anchor="middle" x="857" y="-387.5" font-family="Helvetica,sans-Serif" font-size="10.00">_manager.h</text>
</a>
</g>
</g>
<!-- Node40&#45;&gt;Node42 -->
<g id="edge58" class="edge">
<title>Node40&#45;&gt;Node42</title>
<path fill="none" stroke="midnightblue" d="M857,-437.11C857,-428.15 857,-418.32 857,-410.58"/>
<polygon fill="midnightblue" stroke="midnightblue" points="853.5,-437.4 857,-447.4 860.5,-437.4 853.5,-437.4"/>
</g>
<!-- Node42&#45;&gt;Node23 -->
<g id="edge60" class="edge">
<title>Node42&#45;&gt;Node23</title>
<path fill="none" stroke="midnightblue" d="M879.02,-372.53C885.82,-364.28 892.46,-354.38 896,-344 900.45,-330.96 900.38,-326.06 896,-313 874.2,-248.03 859.65,-228.57 803,-190 765.52,-164.48 715.38,-151.78 677.37,-145.51"/>
<polygon fill="midnightblue" stroke="midnightblue" points="876.26,-370.36 872.26,-380.17 881.51,-375 876.26,-370.36"/>
</g>
<!-- Node42&#45;&gt;Node39 -->
<g id="edge61" class="edge">
<title>Node42&#45;&gt;Node39</title>
<path fill="none" stroke="midnightblue" d="M844.86,-371.29C838.85,-359.8 831.96,-346.63 827.55,-338.19"/>
<polygon fill="midnightblue" stroke="midnightblue" points="841.89,-373.16 849.62,-380.4 848.09,-369.91 841.89,-373.16"/>
</g>
<!-- Node43 -->
<g id="node42" class="node">
<title>Node43</title>
<g id="a_node42"><a xlink:href="d__event__manager_8cpp.html" target="_top" xlink:title=" ">
<polygon fill="white" stroke="black" points="943.5,-313.5 943.5,-343.5 1046.5,-343.5 1046.5,-313.5 943.5,-313.5"/>
<text text-anchor="start" x="951.5" y="-331.5" font-family="Helvetica,sans-Serif" font-size="10.00">src/d/event/d_event</text>
<text text-anchor="middle" x="995" y="-320.5" font-family="Helvetica,sans-Serif" font-size="10.00">_manager.cpp</text>
</a>
</g>
</g>
<!-- Node42&#45;&gt;Node43 -->
<g id="edge59" class="edge">
<title>Node42&#45;&gt;Node43</title>
<path fill="none" stroke="midnightblue" d="M896,-376.13C917.93,-365.8 944.87,-353.11 965.11,-343.58"/>
<polygon fill="midnightblue" stroke="midnightblue" points="894.5,-372.97 886.94,-380.4 897.48,-379.3 894.5,-372.97"/>
</g>
<!-- Node44&#45;&gt;Node2 -->
<g id="edge64" class="edge">
<title>Node44&#45;&gt;Node2</title>
<path fill="none" stroke="midnightblue" d="M630.45,-699.71C611.05,-689.46 587.44,-676.98 569.64,-667.58"/>
<polygon fill="midnightblue" stroke="midnightblue" points="628.83,-702.82 639.31,-704.4 632.1,-696.63 628.83,-702.82"/>
</g>
<!-- Node44&#45;&gt;Node6 -->
<g id="edge63" class="edge">
<title>Node44&#45;&gt;Node6</title>
<path fill="none" stroke="midnightblue" d="M602.95,-701.91C562.5,-691.26 510.56,-677.59 472.2,-667.5"/>
<polygon fill="midnightblue" stroke="midnightblue" points="602.15,-705.32 612.71,-704.48 603.93,-698.55 602.15,-705.32"/>
</g>
<!-- Node45 -->
<g id="node44" class="node">
<title>Node45</title>
<g id="a_node44"><a xlink:href="f__pc__creator_8cpp.html" target="_top" xlink:title=" ">
<polygon fill="white" stroke="black" points="614.5,-643 614.5,-662 741.5,-662 741.5,-643 614.5,-643"/>
<text text-anchor="middle" x="678" y="-650" font-family="Helvetica,sans-Serif" font-size="10.00">src/f_pc/f_pc_creator.cpp</text>
</a>
</g>
</g>
<!-- Node44&#45;&gt;Node45 -->
<g id="edge65" class="edge">
<title>Node44&#45;&gt;Node45</title>
<path fill="none" stroke="midnightblue" d="M670.48,-694.25C672.55,-683.02 674.88,-670.38 676.39,-662.19"/>
<polygon fill="midnightblue" stroke="midnightblue" points="666.98,-693.93 668.6,-704.4 673.86,-695.2 666.98,-693.93"/>
</g>
<!-- Node46 -->
<g id="node45" class="node">
<title>Node46</title>
<g id="a_node45"><a xlink:href="f__pc__node__req_8cpp.html" target="_top" xlink:title=" ">
<polygon fill="white" stroke="black" points="1113,-570.5 1113,-600.5 1213,-600.5 1213,-570.5 1113,-570.5"/>
<text text-anchor="start" x="1121" y="-588.5" font-family="Helvetica,sans-Serif" font-size="10.00">src/f_pc/f_pc_node</text>
<text text-anchor="middle" x="1163" y="-577.5" font-family="Helvetica,sans-Serif" font-size="10.00">_req.cpp</text>
</a>
</g>
</g>
<!-- Node44&#45;&gt;Node46 -->
<g id="edge66" class="edge">
<title>Node44&#45;&gt;Node46</title>
<path fill="none" stroke="midnightblue" d="M737.58,-704.06C881.38,-683.36 928.7,-721.26 1059,-668 1096.58,-652.64 1131.91,-619.56 1150.14,-600.6"/>
<polygon fill="midnightblue" stroke="midnightblue" points="736.88,-700.63 727.51,-705.58 737.92,-707.55 736.88,-700.63"/>
</g>
<!-- Node47 -->
<g id="node46" class="node">
<title>Node47</title>
<g id="a_node46"><a xlink:href="f__pc__fstcreate__req_8h.html" target="_top" xlink:title=" ">
<polygon fill="white" stroke="black" points="760,-637.5 760,-667.5 894,-667.5 894,-637.5 760,-637.5"/>
<text text-anchor="start" x="768" y="-655.5" font-family="Helvetica,sans-Serif" font-size="10.00">include/f_pc/f_pc_fstcreate</text>
<text text-anchor="middle" x="827" y="-644.5" font-family="Helvetica,sans-Serif" font-size="10.00">_req.h</text>
</a>
</g>
</g>
<!-- Node44&#45;&gt;Node47 -->
<g id="edge67" class="edge">
<title>Node44&#45;&gt;Node47</title>
<path fill="none" stroke="midnightblue" d="M710.48,-700.54C736.24,-690.14 768.2,-677.24 792.13,-667.58"/>
<polygon fill="midnightblue" stroke="midnightblue" points="708.9,-697.41 700.93,-704.4 711.52,-703.9 708.9,-697.41"/>
</g>
<!-- Node49 -->
<g id="node48" class="node">
<title>Node49</title>
<g id="a_node48"><a xlink:href="f__pc__stdcreate__req_8h.html" target="_top" xlink:title=" ">
<polygon fill="white" stroke="black" points="912.5,-637.5 912.5,-667.5 1049.5,-667.5 1049.5,-637.5 912.5,-637.5"/>
<text text-anchor="start" x="920.5" y="-655.5" font-family="Helvetica,sans-Serif" font-size="10.00">include/f_pc/f_pc_stdcreate</text>
<text text-anchor="middle" x="981" y="-644.5" font-family="Helvetica,sans-Serif" font-size="10.00">_req.h</text>
</a>
</g>
</g>
<!-- Node44&#45;&gt;Node49 -->
<g id="edge71" class="edge">
<title>Node44&#45;&gt;Node49</title>
<path fill="none" stroke="midnightblue" d="M737.79,-703.69C790.39,-692.83 861.32,-678.2 913,-667.53"/>
<polygon fill="midnightblue" stroke="midnightblue" points="736.94,-700.29 727.86,-705.74 738.36,-707.14 736.94,-700.29"/>
</g>
<!-- Node47&#45;&gt;Node7 -->
<g id="edge69" class="edge">
<title>Node47&#45;&gt;Node7</title>
<path fill="none" stroke="midnightblue" d="M749.94,-637.12C529.54,-609.15 470.5,-629.3 255,-601 243.28,-599.46 230.64,-597.27 219.09,-595.05"/>
<polygon fill="midnightblue" stroke="midnightblue" points="749.51,-640.59 759.88,-638.4 750.41,-633.65 749.51,-640.59"/>
</g>
<!-- Node47&#45;&gt;Node11 -->
<g id="edge70" class="edge">
<title>Node47&#45;&gt;Node11</title>
<path fill="none" stroke="midnightblue" d="M807.58,-629.74C799,-620.12 789.16,-609.09 781.56,-600.58"/>
<polygon fill="midnightblue" stroke="midnightblue" points="805.15,-632.26 814.41,-637.4 810.37,-627.6 805.15,-632.26"/>
</g>
<!-- Node48 -->
<g id="node47" class="node">
<title>Node48</title>
<g id="a_node47"><a xlink:href="f__pc__fstcreate__req_8cpp.html" target="_top" xlink:title=" ">
<polygon fill="white" stroke="black" points="446.5,-570.5 446.5,-600.5 563.5,-600.5 563.5,-570.5 446.5,-570.5"/>
<text text-anchor="start" x="454.5" y="-588.5" font-family="Helvetica,sans-Serif" font-size="10.00">src/f_pc/f_pc_fstcreate</text>
<text text-anchor="middle" x="505" y="-577.5" font-family="Helvetica,sans-Serif" font-size="10.00">_req.cpp</text>
</a>
</g>
</g>
<!-- Node47&#45;&gt;Node48 -->
<g id="edge68" class="edge">
<title>Node47&#45;&gt;Node48</title>
<path fill="none" stroke="midnightblue" d="M749.99,-636.48C699.6,-626.57 632.34,-613.23 573,-601 569.93,-600.37 566.78,-599.71 563.59,-599.05"/>
<polygon fill="midnightblue" stroke="midnightblue" points="749.35,-639.92 759.83,-638.41 750.69,-633.05 749.35,-639.92"/>
</g>
<!-- Node49&#45;&gt;Node9 -->
<g id="edge73" class="edge">
<title>Node49&#45;&gt;Node9</title>
<path fill="none" stroke="midnightblue" d="M902.23,-636.87C811.64,-620.54 787.33,-618.46 701,-601 698.1,-600.41 695.12,-599.8 692.12,-599.16"/>
<polygon fill="midnightblue" stroke="midnightblue" points="901.64,-640.32 912.1,-638.66 902.89,-633.44 901.64,-640.32"/>
</g>
<!-- Node49&#45;&gt;Node11 -->
<g id="edge76" class="edge">
<title>Node49&#45;&gt;Node11</title>
<path fill="none" stroke="midnightblue" d="M925.37,-634.44C891.01,-623.91 847.44,-610.55 815.02,-600.61"/>
<polygon fill="midnightblue" stroke="midnightblue" points="924.67,-637.89 935.26,-637.48 926.73,-631.2 924.67,-637.89"/>
</g>
<!-- Node49&#45;&gt;Node46 -->
<g id="edge74" class="edge">
<title>Node49&#45;&gt;Node46</title>
<path fill="none" stroke="midnightblue" d="M1030.13,-633.96C1059.44,-623.48 1096.18,-610.37 1123.59,-600.58"/>
<polygon fill="midnightblue" stroke="midnightblue" points="1028.73,-630.74 1020.49,-637.4 1031.09,-637.33 1028.73,-630.74"/>
</g>
<!-- Node50 -->
<g id="node49" class="node">
<title>Node50</title>
<g id="a_node49"><a xlink:href="f__op__camera__mng_8cpp.html" target="_top" xlink:title=" ">
<polygon fill="white" stroke="black" points="983.5,-570.5 983.5,-600.5 1094.5,-600.5 1094.5,-570.5 983.5,-570.5"/>
<text text-anchor="start" x="991.5" y="-588.5" font-family="Helvetica,sans-Serif" font-size="10.00">src/f_op/f_op_camera</text>
<text text-anchor="middle" x="1039" y="-577.5" font-family="Helvetica,sans-Serif" font-size="10.00">_mng.cpp</text>
</a>
</g>
</g>
<!-- Node49&#45;&gt;Node50 -->
<g id="edge72" class="edge">
<title>Node49&#45;&gt;Node50</title>
<path fill="none" stroke="midnightblue" d="M1000.42,-629.74C1009,-620.12 1018.84,-609.09 1026.44,-600.58"/>
<polygon fill="midnightblue" stroke="midnightblue" points="997.63,-627.6 993.59,-637.4 1002.85,-632.26 997.63,-627.6"/>
</g>
<!-- Node51 -->
<g id="node50" class="node">
<title>Node51</title>
<g id="a_node50"><a xlink:href="f__pc__stdcreate__req_8cpp.html" target="_top" xlink:title=" ">
<polygon fill="white" stroke="black" points="846.5,-570.5 846.5,-600.5 965.5,-600.5 965.5,-570.5 846.5,-570.5"/>
<text text-anchor="start" x="854.5" y="-588.5" font-family="Helvetica,sans-Serif" font-size="10.00">src/f_pc/f_pc_stdcreate</text>
<text text-anchor="middle" x="906" y="-577.5" font-family="Helvetica,sans-Serif" font-size="10.00">_req.cpp</text>
</a>
</g>
</g>
<!-- Node49&#45;&gt;Node51 -->
<g id="edge75" class="edge">
<title>Node49&#45;&gt;Node51</title>
<path fill="none" stroke="midnightblue" d="M956.88,-630.6C945.56,-620.78 932.36,-609.34 922.24,-600.58"/>
<polygon fill="midnightblue" stroke="midnightblue" points="954.88,-633.49 964.73,-637.4 959.46,-628.2 954.88,-633.49"/>
</g>
</g>
</svg>
