<?xml version="1.0" encoding="UTF-8" standalone="no"?>
<!DOCTYPE svg PUBLIC "-//W3C//DTD SVG 1.1//EN"
 "http://www.w3.org/Graphics/SVG/1.1/DTD/svg11.dtd">
<!-- Generated by graphviz version 2.44.0 ()
 -->
<!-- Title: include/dolphin/gx/GX.h Pages: 1 -->
<svg width="3147pt" height="553pt"
 viewBox="0.00 0.00 3147.00 553.00" xmlns="http://www.w3.org/2000/svg" xmlns:xlink="http://www.w3.org/1999/xlink">
<g id="graph0" class="graph" transform="scale(1 1) rotate(0) translate(4 549)">
<title>include/dolphin/gx/GX.h</title>
<polygon fill="white" stroke="transparent" points="-4,4 -4,-549 3143,-549 3143,4 -4,4"/>
<!-- Node1 -->
<g id="node1" class="node">
<title>Node1</title>
<g id="a_node1"><a xlink:title=" ">
<polygon fill="#bfbfbf" stroke="black" points="1320.5,-525.5 1320.5,-544.5 1439.5,-544.5 1439.5,-525.5 1320.5,-525.5"/>
<text text-anchor="middle" x="1380" y="-532.5" font-family="Helvetica,sans-Serif" font-size="10.00">include/dolphin/gx/GX.h</text>
</a>
</g>
</g>
<!-- Node2 -->
<g id="node2" class="node">
<title>Node2</title>
<g id="a_node2"><a xlink:href="m__Do__Reset_8cpp.html" target="_top" xlink:title=" ">
<polygon fill="white" stroke="black" points="0,-464 0,-483 136,-483 136,-464 0,-464"/>
<text text-anchor="middle" x="68" y="-471" font-family="Helvetica,sans-Serif" font-size="10.00">src/m_Do/m_Do_Reset.cpp</text>
</a>
</g>
</g>
<!-- Node1&#45;&gt;Node2 -->
<g id="edge1" class="edge">
<title>Node1&#45;&gt;Node2</title>
<path fill="none" stroke="midnightblue" d="M1310.26,-532.83C1084.25,-528.84 373.37,-514.52 145,-489 132.56,-487.61 119.12,-485.35 107,-483.02"/>
<polygon fill="midnightblue" stroke="midnightblue" points="1310.28,-536.33 1320.34,-533.01 1310.4,-529.34 1310.28,-536.33"/>
</g>
<!-- Node3 -->
<g id="node3" class="node">
<title>Node3</title>
<g id="a_node3"><a xlink:href="J3DPacket_8cpp.html" target="_top" xlink:title=" ">
<polygon fill="white" stroke="black" points="154,-458.5 154,-488.5 296,-488.5 296,-458.5 154,-458.5"/>
<text text-anchor="start" x="162" y="-476.5" font-family="Helvetica,sans-Serif" font-size="10.00">libs/JSystem/J3DGraphBase</text>
<text text-anchor="middle" x="225" y="-465.5" font-family="Helvetica,sans-Serif" font-size="10.00">/J3DPacket.cpp</text>
</a>
</g>
</g>
<!-- Node1&#45;&gt;Node3 -->
<g id="edge2" class="edge">
<title>Node1&#45;&gt;Node3</title>
<path fill="none" stroke="midnightblue" d="M1310.23,-534.12C1139.22,-533.76 685.75,-528.79 310,-489 305.53,-488.53 300.95,-487.97 296.33,-487.34"/>
<polygon fill="midnightblue" stroke="midnightblue" points="1310.35,-537.62 1320.35,-534.14 1310.36,-530.62 1310.35,-537.62"/>
</g>
<!-- Node4 -->
<g id="node4" class="node">
<title>Node4</title>
<g id="a_node4"><a xlink:href="JUTXfb_8cpp.html" target="_top" xlink:title=" ">
<polygon fill="white" stroke="black" points="298,-257.5 298,-287.5 404,-287.5 404,-257.5 298,-257.5"/>
<text text-anchor="start" x="306" y="-275.5" font-family="Helvetica,sans-Serif" font-size="10.00">libs/JSystem/JUtility</text>
<text text-anchor="middle" x="351" y="-264.5" font-family="Helvetica,sans-Serif" font-size="10.00">/JUTXfb.cpp</text>
</a>
</g>
</g>
<!-- Node1&#45;&gt;Node4 -->
<g id="edge3" class="edge">
<title>Node1&#45;&gt;Node4</title>
<path fill="none" stroke="midnightblue" d="M1310.31,-534.43C1130.45,-534.9 654.15,-531.93 503,-489 443.49,-472.1 425.04,-465.44 381,-422 347.74,-389.19 339.33,-370.57 343,-324 343.98,-311.61 346.28,-297.67 348.16,-287.58"/>
<polygon fill="midnightblue" stroke="midnightblue" points="1310.46,-537.93 1320.45,-534.4 1310.44,-530.93 1310.46,-537.93"/>
</g>
<!-- Node5 -->
<g id="node5" class="node">
<title>Node5</title>
<g id="a_node5"><a xlink:href="d__drawlist_8h.html" target="_top" xlink:title=" ">
<polygon fill="white" stroke="black" points="2761,-330 2761,-349 2871,-349 2871,-330 2761,-330"/>
<text text-anchor="middle" x="2816" y="-337" font-family="Helvetica,sans-Serif" font-size="10.00">include/d/d_drawlist.h</text>
</a>
</g>
</g>
<!-- Node1&#45;&gt;Node5 -->
<g id="edge4" class="edge">
<title>Node1&#45;&gt;Node5</title>
<path fill="none" stroke="midnightblue" d="M1450.01,-533.83C1705.87,-532.89 2581.68,-526.91 2701,-489 2752.69,-472.58 2773.55,-467.55 2803,-422 2817.86,-399.02 2817.78,-364.96 2816.78,-349.15"/>
<polygon fill="midnightblue" stroke="midnightblue" points="1449.71,-530.33 1439.73,-533.86 1449.74,-537.33 1449.71,-530.33"/>
</g>
<!-- Node40 -->
<g id="node19" class="node">
<title>Node40</title>
<g id="a_node19"><a xlink:href="vi_8h.html" target="_top" xlink:title=" ">
<polygon fill="white" stroke="black" points="565,-464 565,-483 675,-483 675,-464 565,-464"/>
<text text-anchor="middle" x="620" y="-471" font-family="Helvetica,sans-Serif" font-size="10.00">include/dolphin/vi/vi.h</text>
</a>
</g>
</g>
<!-- Node1&#45;&gt;Node40 -->
<g id="edge26" class="edge">
<title>Node1&#45;&gt;Node40</title>
<path fill="none" stroke="midnightblue" d="M1310.37,-528.55C1160.71,-516.83 810.97,-489.45 675.23,-478.82"/>
<polygon fill="midnightblue" stroke="midnightblue" points="1310.12,-532.04 1320.36,-529.33 1310.67,-525.06 1310.12,-532.04"/>
</g>
<!-- Node44 -->
<g id="node23" class="node">
<title>Node44</title>
<g id="a_node23"><a xlink:href="JUTVideo_8h.html" target="_top" xlink:title=" ">
<polygon fill="white" stroke="black" points="390,-391.5 390,-421.5 512,-421.5 512,-391.5 390,-391.5"/>
<text text-anchor="start" x="398" y="-409.5" font-family="Helvetica,sans-Serif" font-size="10.00">include/JSystem/JUtility</text>
<text text-anchor="middle" x="451" y="-398.5" font-family="Helvetica,sans-Serif" font-size="10.00">/JUTVideo.h</text>
</a>
</g>
</g>
<!-- Node1&#45;&gt;Node44 -->
<g id="edge72" class="edge">
<title>Node1&#45;&gt;Node44</title>
<path fill="none" stroke="midnightblue" d="M1310.18,-532.57C1124.1,-528.42 625.65,-515 556,-489 517.52,-474.63 481.79,-440.84 463.59,-421.59"/>
<polygon fill="midnightblue" stroke="midnightblue" points="1310.32,-536.07 1320.39,-532.8 1310.47,-529.08 1310.32,-536.07"/>
</g>
<!-- Node48 -->
<g id="node27" class="node">
<title>Node48</title>
<g id="a_node27"><a xlink:href="J3DShape_8h.html" target="_top" xlink:title=" ">
<polygon fill="white" stroke="black" points="2556.5,-458.5 2556.5,-488.5 2691.5,-488.5 2691.5,-458.5 2556.5,-458.5"/>
<text text-anchor="start" x="2564.5" y="-476.5" font-family="Helvetica,sans-Serif" font-size="10.00">include/JSystem/J3DGraph</text>
<text text-anchor="middle" x="2624" y="-465.5" font-family="Helvetica,sans-Serif" font-size="10.00">Base/J3DShape.h</text>
</a>
</g>
</g>
<!-- Node1&#45;&gt;Node48 -->
<g id="edge37" class="edge">
<title>Node1&#45;&gt;Node48</title>
<path fill="none" stroke="midnightblue" d="M1449.8,-532.61C1624,-528.81 2091.84,-516.66 2481,-489 2505.64,-487.25 2532.61,-484.68 2556.42,-482.2"/>
<polygon fill="midnightblue" stroke="midnightblue" points="1449.67,-529.11 1439.74,-532.82 1449.82,-536.11 1449.67,-529.11"/>
</g>
<!-- Node50 -->
<g id="node29" class="node">
<title>Node50</title>
<g id="a_node29"><a xlink:href="JPAParticle_8h.html" target="_top" xlink:title=" ">
<polygon fill="white" stroke="black" points="2904,-458.5 2904,-488.5 3034,-488.5 3034,-458.5 2904,-458.5"/>
<text text-anchor="start" x="2912" y="-476.5" font-family="Helvetica,sans-Serif" font-size="10.00">include/JSystem/JParticle</text>
<text text-anchor="middle" x="2969" y="-465.5" font-family="Helvetica,sans-Serif" font-size="10.00">/JPAParticle.h</text>
</a>
</g>
</g>
<!-- Node1&#45;&gt;Node50 -->
<g id="edge40" class="edge">
<title>Node1&#45;&gt;Node50</title>
<path fill="none" stroke="midnightblue" d="M1449.99,-533.76C1660.12,-532.64 2303.84,-526.18 2836,-489 2858.13,-487.45 2882.26,-485.04 2903.81,-482.63"/>
<polygon fill="midnightblue" stroke="midnightblue" points="1449.7,-530.26 1439.72,-533.82 1449.74,-537.26 1449.7,-530.26"/>
</g>
<!-- Node82 -->
<g id="node33" class="node">
<title>Node82</title>
<g id="a_node33"><a xlink:href="JUTException_8h.html" target="_top" xlink:title=" ">
<polygon fill="white" stroke="black" points="1319,-458.5 1319,-488.5 1441,-488.5 1441,-458.5 1319,-458.5"/>
<text text-anchor="start" x="1327" y="-476.5" font-family="Helvetica,sans-Serif" font-size="10.00">include/JSystem/JUtility</text>
<text text-anchor="middle" x="1380" y="-465.5" font-family="Helvetica,sans-Serif" font-size="10.00">/JUTException.h</text>
</a>
</g>
</g>
<!-- Node1&#45;&gt;Node82 -->
<g id="edge48" class="edge">
<title>Node1&#45;&gt;Node82</title>
<path fill="none" stroke="midnightblue" d="M1380,-515.23C1380,-506.59 1380,-496.5 1380,-488.52"/>
<polygon fill="midnightblue" stroke="midnightblue" points="1376.5,-515.48 1380,-525.48 1383.5,-515.48 1376.5,-515.48"/>
</g>
<!-- Node91 -->
<g id="node42" class="node">
<title>Node91</title>
<g id="a_node42"><a xlink:href="JUTFont_8h.html" target="_top" xlink:title=" ">
<polygon fill="white" stroke="black" points="2004,-458.5 2004,-488.5 2126,-488.5 2126,-458.5 2004,-458.5"/>
<text text-anchor="start" x="2012" y="-476.5" font-family="Helvetica,sans-Serif" font-size="10.00">include/JSystem/JUtility</text>
<text text-anchor="middle" x="2065" y="-465.5" font-family="Helvetica,sans-Serif" font-size="10.00">/JUTFont.h</text>
</a>
</g>
</g>
<!-- Node1&#45;&gt;Node91 -->
<g id="edge58" class="edge">
<title>Node1&#45;&gt;Node91</title>
<path fill="none" stroke="midnightblue" d="M1449.75,-527.94C1583.99,-516.28 1876.21,-490.9 2003.58,-479.83"/>
<polygon fill="midnightblue" stroke="midnightblue" points="1449.25,-524.47 1439.59,-528.82 1449.86,-531.45 1449.25,-524.47"/>
</g>
<!-- Node118 -->
<g id="node48" class="node">
<title>Node118</title>
<g id="a_node48"><a xlink:href="JUTPalette_8h.html" target="_top" xlink:title=" ">
<polygon fill="white" stroke="black" points="2350,-458.5 2350,-488.5 2472,-488.5 2472,-458.5 2350,-458.5"/>
<text text-anchor="start" x="2358" y="-476.5" font-family="Helvetica,sans-Serif" font-size="10.00">include/JSystem/JUtility</text>
<text text-anchor="middle" x="2411" y="-465.5" font-family="Helvetica,sans-Serif" font-size="10.00">/JUTPalette.h</text>
</a>
</g>
</g>
<!-- Node1&#45;&gt;Node118 -->
<g id="edge67" class="edge">
<title>Node1&#45;&gt;Node118</title>
<path fill="none" stroke="midnightblue" d="M1449.7,-529.98C1640.6,-518.96 2169.63,-488.43 2349.91,-478.03"/>
<polygon fill="midnightblue" stroke="midnightblue" points="1449.29,-526.5 1439.51,-530.57 1449.7,-533.48 1449.29,-526.5"/>
</g>
<!-- Node6 -->
<g id="node6" class="node">
<title>Node6</title>
<g id="a_node6"><a xlink:href="d__drawlist_8cpp.html" target="_top" xlink:title=" ">
<polygon fill="white" stroke="black" points="2666,-263 2666,-282 2770,-282 2770,-263 2666,-263"/>
<text text-anchor="middle" x="2718" y="-270" font-family="Helvetica,sans-Serif" font-size="10.00">src/d/d_drawlist.cpp</text>
</a>
</g>
</g>
<!-- Node5&#45;&gt;Node6 -->
<g id="edge5" class="edge">
<title>Node5&#45;&gt;Node6</title>
<path fill="none" stroke="midnightblue" d="M2794.28,-324.09C2774.89,-311.24 2747.14,-292.83 2731.01,-282.13"/>
<polygon fill="midnightblue" stroke="midnightblue" points="2792.52,-327.12 2802.78,-329.73 2796.38,-321.29 2792.52,-327.12"/>
</g>
<!-- Node7 -->
<g id="node7" class="node">
<title>Node7</title>
<g id="a_node7"><a xlink:href="d__a__alink_8h.html" target="_top" xlink:title=" ">
<polygon fill="white" stroke="black" points="2794,-134.5 2794,-153.5 2910,-153.5 2910,-134.5 2794,-134.5"/>
<text text-anchor="middle" x="2852" y="-141.5" font-family="Helvetica,sans-Serif" font-size="10.00">include/d/a/d_a_alink.h</text>
</a>
</g>
</g>
<!-- Node5&#45;&gt;Node7 -->
<g id="edge6" class="edge">
<title>Node5&#45;&gt;Node7</title>
<path fill="none" stroke="midnightblue" d="M2821.18,-320.07C2823.75,-310.54 2826.77,-298.7 2829,-288 2839.53,-237.54 2847.94,-176.2 2850.88,-153.76"/>
<polygon fill="midnightblue" stroke="midnightblue" points="2817.73,-319.41 2818.45,-329.98 2824.48,-321.27 2817.73,-319.41"/>
</g>
<!-- Node9 -->
<g id="node9" class="node">
<title>Node9</title>
<g id="a_node9"><a xlink:href="d__com__inf__game_8h.html" target="_top" xlink:title=" ">
<polygon fill="white" stroke="red" points="2680,-67.5 2680,-97.5 2790,-97.5 2790,-67.5 2680,-67.5"/>
<text text-anchor="start" x="2688" y="-85.5" font-family="Helvetica,sans-Serif" font-size="10.00">include/d/com/d_com</text>
<text text-anchor="middle" x="2735" y="-74.5" font-family="Helvetica,sans-Serif" font-size="10.00">_inf_game.h</text>
</a>
</g>
</g>
<!-- Node5&#45;&gt;Node9 -->
<g id="edge24" class="edge">
<title>Node5&#45;&gt;Node9</title>
<path fill="none" stroke="midnightblue" d="M2810.09,-319.91C2794.62,-271.19 2753.15,-140.63 2739.46,-97.53"/>
<polygon fill="midnightblue" stroke="midnightblue" points="2806.85,-321.25 2813.21,-329.72 2813.52,-319.13 2806.85,-321.25"/>
</g>
<!-- Node24 -->
<g id="node14" class="node">
<title>Node24</title>
<g id="a_node14"><a xlink:href="d__kantera__icon__meter_8h.html" target="_top" xlink:title=" ">
<polygon fill="white" stroke="red" points="2884.5,-0.5 2884.5,-30.5 2985.5,-30.5 2985.5,-0.5 2884.5,-0.5"/>
<text text-anchor="start" x="2892.5" y="-18.5" font-family="Helvetica,sans-Serif" font-size="10.00">include/d/d_kantera</text>
<text text-anchor="middle" x="2935" y="-7.5" font-family="Helvetica,sans-Serif" font-size="10.00">_icon_meter.h</text>
</a>
</g>
</g>
<!-- Node5&#45;&gt;Node24 -->
<g id="edge25" class="edge">
<title>Node5&#45;&gt;Node24</title>
<path fill="none" stroke="midnightblue" d="M2842.47,-325.02C2878.35,-304.64 2938,-262.36 2938,-206.5 2938,-206.5 2938,-206.5 2938,-143 2938,-102.14 2936.42,-53.88 2935.55,-30.54"/>
<polygon fill="midnightblue" stroke="midnightblue" points="2840.56,-322.07 2833.48,-329.95 2843.93,-328.21 2840.56,-322.07"/>
</g>
<!-- Node26 -->
<g id="node15" class="node">
<title>Node26</title>
<g id="a_node15"><a xlink:href="d__a__player_8h.html" target="_top" xlink:title=" ">
<polygon fill="white" stroke="black" points="2509.5,-263 2509.5,-282 2630.5,-282 2630.5,-263 2509.5,-263"/>
<text text-anchor="middle" x="2570" y="-270" font-family="Helvetica,sans-Serif" font-size="10.00">include/d/a/d_a_player.h</text>
</a>
</g>
</g>
<!-- Node5&#45;&gt;Node26 -->
<g id="edge15" class="edge">
<title>Node5&#45;&gt;Node26</title>
<path fill="none" stroke="midnightblue" d="M2773.7,-327.32C2725.13,-314.49 2646.49,-293.71 2602.48,-282.08"/>
<polygon fill="midnightblue" stroke="midnightblue" points="2773.02,-330.76 2783.59,-329.94 2774.81,-324 2773.02,-330.76"/>
</g>
<!-- Node8 -->
<g id="node8" class="node">
<title>Node8</title>
<g id="a_node8"><a xlink:href="d__a__alink_8cpp.html" target="_top" xlink:title=" ">
<polygon fill="white" stroke="black" points="2757.5,-6 2757.5,-25 2866.5,-25 2866.5,-6 2757.5,-6"/>
<text text-anchor="middle" x="2812" y="-13" font-family="Helvetica,sans-Serif" font-size="10.00">src/d/a/d_a_alink.cpp</text>
</a>
</g>
</g>
<!-- Node7&#45;&gt;Node8 -->
<g id="edge7" class="edge">
<title>Node7&#45;&gt;Node8</title>
<path fill="none" stroke="midnightblue" d="M2846.21,-124.67C2837.46,-97.03 2821.24,-45.72 2814.77,-25.26"/>
<polygon fill="midnightblue" stroke="midnightblue" points="2842.9,-125.83 2849.25,-134.31 2849.57,-123.72 2842.9,-125.83"/>
</g>
<!-- Node7&#45;&gt;Node9 -->
<g id="edge8" class="edge">
<title>Node7&#45;&gt;Node9</title>
<path fill="none" stroke="midnightblue" d="M2826.32,-129.94C2807.45,-120.35 2781.87,-107.33 2762.57,-97.52"/>
<polygon fill="midnightblue" stroke="midnightblue" points="2824.74,-133.06 2835.24,-134.48 2827.91,-126.82 2824.74,-133.06"/>
</g>
<!-- Node9&#45;&gt;Node8 -->
<g id="edge11" class="edge">
<title>Node9&#45;&gt;Node8</title>
<path fill="none" stroke="midnightblue" d="M2759.67,-60.67C2773.89,-48.67 2791.01,-34.22 2801.7,-25.19"/>
<polygon fill="midnightblue" stroke="midnightblue" points="2757.09,-58.27 2751.71,-67.4 2761.61,-63.62 2757.09,-58.27"/>
</g>
<!-- Node10 -->
<g id="node10" class="node">
<title>Node10</title>
<g id="a_node10"><a xlink:href="d__a__player_8cpp.html" target="_top" xlink:title=" ">
<polygon fill="white" stroke="black" points="2392,-6 2392,-25 2506,-25 2506,-6 2392,-6"/>
<text text-anchor="middle" x="2449" y="-13" font-family="Helvetica,sans-Serif" font-size="10.00">src/d/a/d_a_player.cpp</text>
</a>
</g>
</g>
<!-- Node9&#45;&gt;Node10 -->
<g id="edge9" class="edge">
<title>Node9&#45;&gt;Node10</title>
<path fill="none" stroke="midnightblue" d="M2669.92,-66.71C2613.31,-53.84 2533.23,-35.64 2486.65,-25.06"/>
<polygon fill="midnightblue" stroke="midnightblue" points="2669.33,-70.16 2679.86,-68.97 2670.88,-63.34 2669.33,-70.16"/>
</g>
<!-- Node11 -->
<g id="node11" class="node">
<title>Node11</title>
<g id="a_node11"><a xlink:href="d__com__inf__game_8cpp.html" target="_top" xlink:title=" ">
<polygon fill="white" stroke="black" points="3004,-0.5 3004,-30.5 3112,-30.5 3112,-0.5 3004,-0.5"/>
<text text-anchor="start" x="3012" y="-18.5" font-family="Helvetica,sans-Serif" font-size="10.00">src/d/com/d_com_inf</text>
<text text-anchor="middle" x="3058" y="-7.5" font-family="Helvetica,sans-Serif" font-size="10.00">_game.cpp</text>
</a>
</g>
</g>
<!-- Node9&#45;&gt;Node11 -->
<g id="edge10" class="edge">
<title>Node9&#45;&gt;Node11</title>
<path fill="none" stroke="midnightblue" d="M2800.03,-69.51C2852.7,-59.65 2928.76,-45.05 2995,-31 2997.85,-30.39 3000.78,-29.76 3003.73,-29.12"/>
<polygon fill="midnightblue" stroke="midnightblue" points="2799.33,-66.08 2790.14,-71.36 2800.62,-72.96 2799.33,-66.08"/>
</g>
<!-- Node12 -->
<g id="node12" class="node">
<title>Node12</title>
<g id="a_node12"><a xlink:href="d__resorce_8cpp.html" target="_top" xlink:title=" ">
<polygon fill="white" stroke="black" points="2525,-6 2525,-25 2627,-25 2627,-6 2525,-6"/>
<text text-anchor="middle" x="2576" y="-13" font-family="Helvetica,sans-Serif" font-size="10.00">src/d/d_resorce.cpp</text>
</a>
</g>
</g>
<!-- Node9&#45;&gt;Node12 -->
<g id="edge12" class="edge">
<title>Node9&#45;&gt;Node12</title>
<path fill="none" stroke="midnightblue" d="M2690.87,-63.46C2660.15,-50.9 2620.58,-34.72 2596.81,-25.01"/>
<polygon fill="midnightblue" stroke="midnightblue" points="2689.92,-66.85 2700.5,-67.4 2692.57,-60.37 2689.92,-66.85"/>
</g>
<!-- Node13 -->
<g id="node13" class="node">
<title>Node13</title>
<g id="a_node13"><a xlink:href="d__stage_8cpp.html" target="_top" xlink:title=" ">
<polygon fill="white" stroke="black" points="2645,-6 2645,-25 2739,-25 2739,-6 2645,-6"/>
<text text-anchor="middle" x="2692" y="-13" font-family="Helvetica,sans-Serif" font-size="10.00">src/d/d_stage.cpp</text>
</a>
</g>
</g>
<!-- Node9&#45;&gt;Node13 -->
<g id="edge13" class="edge">
<title>Node9&#45;&gt;Node13</title>
<path fill="none" stroke="midnightblue" d="M2720.1,-58.97C2712.4,-47.33 2703.44,-33.8 2697.75,-25.19"/>
<polygon fill="midnightblue" stroke="midnightblue" points="2717.23,-60.99 2725.67,-67.4 2723.07,-57.12 2717.23,-60.99"/>
</g>
<!-- Node9&#45;&gt;Node24 -->
<g id="edge14" class="edge">
<title>Node9&#45;&gt;Node24</title>
<path fill="none" stroke="midnightblue" d="M2788.15,-64.23C2820.5,-53.71 2861.31,-40.45 2891.69,-30.58"/>
<polygon fill="midnightblue" stroke="midnightblue" points="2786.83,-60.98 2778.4,-67.4 2788.99,-67.63 2786.83,-60.98"/>
</g>
<!-- Node26&#45;&gt;Node7 -->
<g id="edge17" class="edge">
<title>Node26&#45;&gt;Node7</title>
<path fill="none" stroke="midnightblue" d="M2635.52,-260.89C2672.81,-253.16 2719.6,-240.56 2758,-221 2793.72,-202.81 2828.46,-169.45 2843.8,-153.69"/>
<polygon fill="midnightblue" stroke="midnightblue" points="2634.39,-257.55 2625.27,-262.94 2635.76,-264.41 2634.39,-257.55"/>
</g>
<!-- Node26&#45;&gt;Node10 -->
<g id="edge16" class="edge">
<title>Node26&#45;&gt;Node10</title>
<path fill="none" stroke="midnightblue" d="M2539.9,-258.1C2524.23,-249.63 2506.08,-237.2 2495,-221 2450.63,-156.11 2448.39,-55.14 2448.77,-25.17"/>
<polygon fill="midnightblue" stroke="midnightblue" points="2538.75,-261.44 2549.25,-262.86 2541.93,-255.2 2538.75,-261.44"/>
</g>
<!-- Node27 -->
<g id="node16" class="node">
<title>Node27</title>
<g id="a_node16"><a xlink:href="d__bg__s__acch_8h.html" target="_top" xlink:title=" ">
<polygon fill="white" stroke="red" points="2645,-190.5 2645,-220.5 2749,-220.5 2749,-190.5 2645,-190.5"/>
<text text-anchor="start" x="2653" y="-208.5" font-family="Helvetica,sans-Serif" font-size="10.00">include/d/bg/d_bg_s</text>
<text text-anchor="middle" x="2697" y="-197.5" font-family="Helvetica,sans-Serif" font-size="10.00">_acch.h</text>
</a>
</g>
</g>
<!-- Node26&#45;&gt;Node27 -->
<g id="edge18" class="edge">
<title>Node26&#45;&gt;Node27</title>
<path fill="none" stroke="midnightblue" d="M2596,-258.19C2617.36,-247.26 2647.55,-231.81 2669.35,-220.65"/>
<polygon fill="midnightblue" stroke="midnightblue" points="2594.17,-255.2 2586.86,-262.87 2597.36,-261.43 2594.17,-255.2"/>
</g>
<!-- Node37 -->
<g id="node17" class="node">
<title>Node37</title>
<g id="a_node17"><a xlink:href="d__attention_8h.html" target="_top" xlink:title=" ">
<polygon fill="white" stroke="red" points="2513,-196 2513,-215 2627,-215 2627,-196 2513,-196"/>
<text text-anchor="middle" x="2570" y="-203" font-family="Helvetica,sans-Serif" font-size="10.00">include/d/d_attention.h</text>
</a>
</g>
</g>
<!-- Node26&#45;&gt;Node37 -->
<g id="edge19" class="edge">
<title>Node26&#45;&gt;Node37</title>
<path fill="none" stroke="midnightblue" d="M2570,-252.54C2570,-240.17 2570,-224.62 2570,-215.13"/>
<polygon fill="midnightblue" stroke="midnightblue" points="2566.5,-252.73 2570,-262.73 2573.5,-252.73 2566.5,-252.73"/>
</g>
<!-- Node39 -->
<g id="node18" class="node">
<title>Node39</title>
<g id="a_node18"><a xlink:href="d__event_8h.html" target="_top" xlink:title=" ">
<polygon fill="white" stroke="red" points="2501,-134.5 2501,-153.5 2629,-153.5 2629,-134.5 2501,-134.5"/>
<text text-anchor="middle" x="2565" y="-141.5" font-family="Helvetica,sans-Serif" font-size="10.00">include/d/event/d_event.h</text>
</a>
</g>
</g>
<!-- Node26&#45;&gt;Node39 -->
<g id="edge22" class="edge">
<title>Node26&#45;&gt;Node39</title>
<path fill="none" stroke="midnightblue" d="M2541.73,-257.83C2527.62,-249.36 2511.92,-237.02 2504,-221 2497.9,-208.65 2497.79,-202.3 2504,-190 2512.54,-173.08 2530.78,-160.96 2545.09,-153.59"/>
<polygon fill="midnightblue" stroke="midnightblue" points="2540.23,-261.01 2550.67,-262.84 2543.65,-254.9 2540.23,-261.01"/>
</g>
<!-- Node37&#45;&gt;Node7 -->
<g id="edge20" class="edge">
<title>Node37&#45;&gt;Node7</title>
<path fill="none" stroke="midnightblue" d="M2618.3,-193.83C2624.26,-192.53 2630.27,-191.23 2636,-190 2696.49,-177.05 2766.63,-162.53 2810.16,-153.58"/>
<polygon fill="midnightblue" stroke="midnightblue" points="2617.4,-190.44 2608.37,-196 2618.89,-197.28 2617.4,-190.44"/>
</g>
<!-- Node37&#45;&gt;Node9 -->
<g id="edge21" class="edge">
<title>Node37&#45;&gt;Node9</title>
<path fill="none" stroke="midnightblue" d="M2589.74,-190.02C2621.66,-166.62 2684.19,-120.76 2715.77,-97.6"/>
<polygon fill="midnightblue" stroke="midnightblue" points="2587.6,-187.26 2581.6,-195.99 2591.74,-192.9 2587.6,-187.26"/>
</g>
<!-- Node39&#45;&gt;Node9 -->
<g id="edge23" class="edge">
<title>Node39&#45;&gt;Node9</title>
<path fill="none" stroke="midnightblue" d="M2598.99,-131.1C2626.65,-121.42 2665.75,-107.74 2694.93,-97.52"/>
<polygon fill="midnightblue" stroke="midnightblue" points="2597.64,-127.87 2589.36,-134.48 2599.95,-134.48 2597.64,-127.87"/>
</g>
<!-- Node41 -->
<g id="node20" class="node">
<title>Node41</title>
<g id="a_node20"><a xlink:href="vi_8cpp.html" target="_top" xlink:title=" ">
<polygon fill="white" stroke="black" points="568,-397 568,-416 672,-416 672,-397 568,-397"/>
<text text-anchor="middle" x="620" y="-404" font-family="Helvetica,sans-Serif" font-size="10.00">libs/dolphin/vi/vi.cpp</text>
</a>
</g>
</g>
<!-- Node40&#45;&gt;Node41 -->
<g id="edge27" class="edge">
<title>Node40&#45;&gt;Node41</title>
<path fill="none" stroke="midnightblue" d="M620,-453.54C620,-441.17 620,-425.62 620,-416.13"/>
<polygon fill="midnightblue" stroke="midnightblue" points="616.5,-453.73 620,-463.73 623.5,-453.73 616.5,-453.73"/>
</g>
<!-- Node42 -->
<g id="node21" class="node">
<title>Node42</title>
<g id="a_node21"><a xlink:href="JKRFile_8cpp.html" target="_top" xlink:title=" ">
<polygon fill="white" stroke="black" points="690.5,-391.5 690.5,-421.5 799.5,-421.5 799.5,-391.5 690.5,-391.5"/>
<text text-anchor="start" x="698.5" y="-409.5" font-family="Helvetica,sans-Serif" font-size="10.00">libs/JSystem/JKernel</text>
<text text-anchor="middle" x="745" y="-398.5" font-family="Helvetica,sans-Serif" font-size="10.00">/JKRFile.cpp</text>
</a>
</g>
</g>
<!-- Node40&#45;&gt;Node42 -->
<g id="edge28" class="edge">
<title>Node40&#45;&gt;Node42</title>
<path fill="none" stroke="midnightblue" d="M645.59,-459.19C666.61,-448.26 696.33,-432.81 717.79,-421.65"/>
<polygon fill="midnightblue" stroke="midnightblue" points="643.86,-456.15 636.6,-463.87 647.09,-462.36 643.86,-456.15"/>
</g>
<!-- Node43 -->
<g id="node22" class="node">
<title>Node43</title>
<g id="a_node22"><a xlink:href="JUTVideo_8cpp.html" target="_top" xlink:title=" ">
<polygon fill="white" stroke="black" points="449,-257.5 449,-287.5 555,-287.5 555,-257.5 449,-257.5"/>
<text text-anchor="start" x="457" y="-275.5" font-family="Helvetica,sans-Serif" font-size="10.00">libs/JSystem/JUtility</text>
<text text-anchor="middle" x="502" y="-264.5" font-family="Helvetica,sans-Serif" font-size="10.00">/JUTVideo.cpp</text>
</a>
</g>
</g>
<!-- Node40&#45;&gt;Node43 -->
<g id="edge29" class="edge">
<title>Node40&#45;&gt;Node43</title>
<path fill="none" stroke="midnightblue" d="M597.55,-458.22C584.8,-449.15 569.36,-436.43 559,-422 527.75,-378.49 511.13,-315.64 504.91,-287.76"/>
<polygon fill="midnightblue" stroke="midnightblue" points="595.62,-461.14 605.86,-463.89 599.57,-455.36 595.62,-461.14"/>
</g>
<!-- Node40&#45;&gt;Node44 -->
<g id="edge30" class="edge">
<title>Node40&#45;&gt;Node44</title>
<path fill="none" stroke="midnightblue" d="M588.03,-460.2C559.39,-449.19 517.41,-433.04 487.47,-421.53"/>
<polygon fill="midnightblue" stroke="midnightblue" points="586.97,-463.55 597.56,-463.87 589.48,-457.01 586.97,-463.55"/>
</g>
<!-- Node44&#45;&gt;Node43 -->
<g id="edge31" class="edge">
<title>Node44&#45;&gt;Node43</title>
<path fill="none" stroke="midnightblue" d="M467.72,-382.73C473.24,-374.35 478.99,-364.56 483,-355 492.44,-332.49 497.67,-304.42 500.15,-287.79"/>
<polygon fill="midnightblue" stroke="midnightblue" points="464.68,-380.97 461.9,-391.2 470.45,-384.93 464.68,-380.97"/>
</g>
<!-- Node45 -->
<g id="node24" class="node">
<title>Node45</title>
<g id="a_node24"><a xlink:href="JUTXfb_8h.html" target="_top" xlink:title=" ">
<polygon fill="white" stroke="black" points="352,-324.5 352,-354.5 474,-354.5 474,-324.5 352,-324.5"/>
<text text-anchor="start" x="360" y="-342.5" font-family="Helvetica,sans-Serif" font-size="10.00">include/JSystem/JUtility</text>
<text text-anchor="middle" x="413" y="-331.5" font-family="Helvetica,sans-Serif" font-size="10.00">/JUTXfb.h</text>
</a>
</g>
</g>
<!-- Node44&#45;&gt;Node45 -->
<g id="edge32" class="edge">
<title>Node44&#45;&gt;Node45</title>
<path fill="none" stroke="midnightblue" d="M437.6,-382.58C432.14,-373.24 426.01,-362.75 421.23,-354.58"/>
<polygon fill="midnightblue" stroke="midnightblue" points="434.69,-384.53 442.75,-391.4 440.73,-381 434.69,-384.53"/>
</g>
<!-- Node46 -->
<g id="node25" class="node">
<title>Node46</title>
<g id="a_node25"><a xlink:href="m__Do__machine_8h.html" target="_top" xlink:title=" ">
<polygon fill="white" stroke="black" points="1870,-330 1870,-349 2024,-349 2024,-330 1870,-330"/>
<text text-anchor="middle" x="1947" y="-337" font-family="Helvetica,sans-Serif" font-size="10.00">include/m_Do/m_Do_machine.h</text>
</a>
</g>
</g>
<!-- Node44&#45;&gt;Node46 -->
<g id="edge35" class="edge">
<title>Node44&#45;&gt;Node46</title>
<path fill="none" stroke="midnightblue" d="M522.18,-394.95C534.44,-393.41 547.07,-392.02 559,-391 1057.25,-348.59 1659.07,-341.75 1869.72,-340.68"/>
<polygon fill="midnightblue" stroke="midnightblue" points="521.47,-391.51 512,-396.26 522.37,-398.45 521.47,-391.51"/>
</g>
<!-- Node45&#45;&gt;Node4 -->
<g id="edge34" class="edge">
<title>Node45&#45;&gt;Node4</title>
<path fill="none" stroke="midnightblue" d="M392.52,-317.02C383.28,-307.34 372.63,-296.17 364.43,-287.58"/>
<polygon fill="midnightblue" stroke="midnightblue" points="390.11,-319.58 399.55,-324.4 395.18,-314.74 390.11,-319.58"/>
</g>
<!-- Node45&#45;&gt;Node43 -->
<g id="edge33" class="edge">
<title>Node45&#45;&gt;Node43</title>
<path fill="none" stroke="midnightblue" d="M440.45,-318.45C454.14,-308.45 470.37,-296.6 482.73,-287.58"/>
<polygon fill="midnightblue" stroke="midnightblue" points="438.32,-315.67 432.31,-324.4 442.45,-321.32 438.32,-315.67"/>
</g>
<!-- Node47 -->
<g id="node26" class="node">
<title>Node47</title>
<g id="a_node26"><a xlink:href="m__Do__machine_8cpp.html" target="_top" xlink:title=" ">
<polygon fill="white" stroke="black" points="1873.5,-263 1873.5,-282 2020.5,-282 2020.5,-263 1873.5,-263"/>
<text text-anchor="middle" x="1947" y="-270" font-family="Helvetica,sans-Serif" font-size="10.00">src/m_Do/m_Do_machine.cpp</text>
</a>
</g>
</g>
<!-- Node46&#45;&gt;Node47 -->
<g id="edge36" class="edge">
<title>Node46&#45;&gt;Node47</title>
<path fill="none" stroke="midnightblue" d="M1947,-319.54C1947,-307.17 1947,-291.62 1947,-282.13"/>
<polygon fill="midnightblue" stroke="midnightblue" points="1943.5,-319.73 1947,-329.73 1950.5,-319.73 1943.5,-319.73"/>
</g>
<!-- Node48&#45;&gt;Node6 -->
<g id="edge38" class="edge">
<title>Node48&#45;&gt;Node6</title>
<path fill="none" stroke="midnightblue" d="M2627.44,-448.23C2630.32,-431.66 2635.23,-409.45 2643,-391 2661.6,-346.84 2696.29,-300.7 2711.06,-282.06"/>
<polygon fill="midnightblue" stroke="midnightblue" points="2623.97,-447.77 2625.83,-458.2 2630.88,-448.89 2623.97,-447.77"/>
</g>
<!-- Node49 -->
<g id="node28" class="node">
<title>Node49</title>
<g id="a_node28"><a xlink:href="J3DShape_8cpp.html" target="_top" xlink:title=" ">
<polygon fill="white" stroke="black" points="2652,-391.5 2652,-421.5 2794,-421.5 2794,-391.5 2652,-391.5"/>
<text text-anchor="start" x="2660" y="-409.5" font-family="Helvetica,sans-Serif" font-size="10.00">libs/JSystem/J3DGraphBase</text>
<text text-anchor="middle" x="2723" y="-398.5" font-family="Helvetica,sans-Serif" font-size="10.00">/J3DShape.cpp</text>
</a>
</g>
</g>
<!-- Node48&#45;&gt;Node49 -->
<g id="edge39" class="edge">
<title>Node48&#45;&gt;Node49</title>
<path fill="none" stroke="midnightblue" d="M2654.11,-452.73C2669.42,-442.68 2687.69,-430.68 2701.56,-421.58"/>
<polygon fill="midnightblue" stroke="midnightblue" points="2651.92,-449.98 2645.48,-458.4 2655.76,-455.83 2651.92,-449.98"/>
</g>
<!-- Node51 -->
<g id="node30" class="node">
<title>Node51</title>
<g id="a_node30"><a xlink:href="JPAParticle_8cpp.html" target="_top" xlink:title=" ">
<polygon fill="white" stroke="black" points="2966,-391.5 2966,-421.5 3080,-421.5 3080,-391.5 2966,-391.5"/>
<text text-anchor="start" x="2974" y="-409.5" font-family="Helvetica,sans-Serif" font-size="10.00">libs/JSystem/JParticle</text>
<text text-anchor="middle" x="3023" y="-398.5" font-family="Helvetica,sans-Serif" font-size="10.00">/JPAParticle.cpp</text>
</a>
</g>
</g>
<!-- Node50&#45;&gt;Node51 -->
<g id="edge41" class="edge">
<title>Node50&#45;&gt;Node51</title>
<path fill="none" stroke="midnightblue" d="M2987.32,-450.45C2995.25,-440.9 3004.3,-430 3011.31,-421.58"/>
<polygon fill="midnightblue" stroke="midnightblue" points="2984.42,-448.47 2980.72,-458.4 2989.8,-452.94 2984.42,-448.47"/>
</g>
<!-- Node52 -->
<g id="node31" class="node">
<title>Node52</title>
<g id="a_node31"><a xlink:href="d__kankyo_8h.html" target="_top" xlink:title=" ">
<polygon fill="white" stroke="red" points="2850,-391.5 2850,-421.5 2948,-421.5 2948,-391.5 2850,-391.5"/>
<text text-anchor="start" x="2858" y="-409.5" font-family="Helvetica,sans-Serif" font-size="10.00">include/d/kankyo/d</text>
<text text-anchor="middle" x="2899" y="-398.5" font-family="Helvetica,sans-Serif" font-size="10.00">_kankyo.h</text>
</a>
</g>
</g>
<!-- Node50&#45;&gt;Node52 -->
<g id="edge42" class="edge">
<title>Node50&#45;&gt;Node52</title>
<path fill="none" stroke="midnightblue" d="M2946.18,-451.31C2935.68,-441.56 2923.51,-430.26 2914.16,-421.58"/>
<polygon fill="midnightblue" stroke="midnightblue" points="2944.1,-454.16 2953.81,-458.4 2948.86,-449.03 2944.1,-454.16"/>
</g>
<!-- Node69 -->
<g id="node32" class="node">
<title>Node69</title>
<g id="a_node32"><a xlink:href="d__particle_8h.html" target="_top" xlink:title=" ">
<polygon fill="white" stroke="red" points="3049,-190.5 3049,-220.5 3139,-220.5 3139,-190.5 3049,-190.5"/>
<text text-anchor="start" x="3057" y="-208.5" font-family="Helvetica,sans-Serif" font-size="10.00">include/d/particle</text>
<text text-anchor="middle" x="3094" y="-197.5" font-family="Helvetica,sans-Serif" font-size="10.00">/d_particle.h</text>
</a>
</g>
</g>
<!-- Node50&#45;&gt;Node69 -->
<g id="edge46" class="edge">
<title>Node50&#45;&gt;Node69</title>
<path fill="none" stroke="midnightblue" d="M3044.01,-456.1C3061.57,-448.62 3078.27,-437.76 3089,-422 3132.39,-358.28 3109.19,-257.57 3098.47,-220.66"/>
<polygon fill="midnightblue" stroke="midnightblue" points="3042.25,-453.02 3034.2,-459.91 3044.79,-459.55 3042.25,-453.02"/>
</g>
<!-- Node52&#45;&gt;Node5 -->
<g id="edge45" class="edge">
<title>Node52&#45;&gt;Node5</title>
<path fill="none" stroke="midnightblue" d="M2872.83,-385.01C2857.42,-372.94 2838.74,-358.3 2827.1,-349.19"/>
<polygon fill="midnightblue" stroke="midnightblue" points="2870.96,-387.99 2880.99,-391.4 2875.28,-382.47 2870.96,-387.99"/>
</g>
<!-- Node52&#45;&gt;Node7 -->
<g id="edge44" class="edge">
<title>Node52&#45;&gt;Node7</title>
<path fill="none" stroke="midnightblue" d="M2894.66,-381.46C2884.59,-325.62 2859.98,-189.24 2853.56,-153.63"/>
<polygon fill="midnightblue" stroke="midnightblue" points="2891.25,-382.27 2896.47,-391.49 2898.14,-381.03 2891.25,-382.27"/>
</g>
<!-- Node52&#45;&gt;Node11 -->
<g id="edge43" class="edge">
<title>Node52&#45;&gt;Node11</title>
<path fill="none" stroke="midnightblue" d="M2925.74,-384.68C2952.9,-360.97 2991,-319.52 2991,-273.5 2991,-273.5 2991,-273.5 2991,-143 2991,-97.77 3024.86,-52.91 3044.44,-30.76"/>
<polygon fill="midnightblue" stroke="midnightblue" points="2923.44,-382.04 2918.06,-391.17 2927.96,-387.39 2923.44,-382.04"/>
</g>
<!-- Node69&#45;&gt;Node7 -->
<g id="edge47" class="edge">
<title>Node69&#45;&gt;Node7</title>
<path fill="none" stroke="midnightblue" d="M3038.8,-190.93C2992.09,-179.44 2926.57,-163.33 2886.82,-153.56"/>
<polygon fill="midnightblue" stroke="midnightblue" points="3038.22,-194.39 3048.77,-193.38 3039.89,-187.59 3038.22,-194.39"/>
</g>
<!-- Node82&#45;&gt;Node47 -->
<g id="edge49" class="edge">
<title>Node82&#45;&gt;Node47</title>
<path fill="none" stroke="midnightblue" d="M1451.15,-473.09C1561.34,-472.6 1766.47,-465.62 1823,-422 1859.98,-393.46 1830.73,-359.58 1861,-324 1877.83,-304.22 1904.46,-290.28 1923.63,-282.13"/>
<polygon fill="midnightblue" stroke="midnightblue" points="1451.11,-469.59 1441.12,-473.12 1451.13,-476.59 1451.11,-469.59"/>
</g>
<!-- Node83 -->
<g id="node34" class="node">
<title>Node83</title>
<g id="a_node34"><a xlink:href="JKRAram_8cpp.html" target="_top" xlink:title=" ">
<polygon fill="white" stroke="black" points="817.5,-391.5 817.5,-421.5 926.5,-421.5 926.5,-391.5 817.5,-391.5"/>
<text text-anchor="start" x="825.5" y="-409.5" font-family="Helvetica,sans-Serif" font-size="10.00">libs/JSystem/JKernel</text>
<text text-anchor="middle" x="872" y="-398.5" font-family="Helvetica,sans-Serif" font-size="10.00">/JKRAram.cpp</text>
</a>
</g>
</g>
<!-- Node82&#45;&gt;Node83 -->
<g id="edge50" class="edge">
<title>Node82&#45;&gt;Node83</title>
<path fill="none" stroke="midnightblue" d="M1308.51,-466.8C1220.49,-459.22 1066.59,-444.15 936,-422 932.97,-421.49 929.86,-420.92 926.73,-420.32"/>
<polygon fill="midnightblue" stroke="midnightblue" points="1308.39,-470.3 1318.66,-467.66 1308.99,-463.33 1308.39,-470.3"/>
</g>
<!-- Node84 -->
<g id="node35" class="node">
<title>Node84</title>
<g id="a_node35"><a xlink:href="JKRAramPiece_8cpp.html" target="_top" xlink:title=" ">
<polygon fill="white" stroke="black" points="944.5,-391.5 944.5,-421.5 1053.5,-421.5 1053.5,-391.5 944.5,-391.5"/>
<text text-anchor="start" x="952.5" y="-409.5" font-family="Helvetica,sans-Serif" font-size="10.00">libs/JSystem/JKernel</text>
<text text-anchor="middle" x="999" y="-398.5" font-family="Helvetica,sans-Serif" font-size="10.00">/JKRAramPiece.cpp</text>
</a>
</g>
</g>
<!-- Node82&#45;&gt;Node84 -->
<g id="edge51" class="edge">
<title>Node82&#45;&gt;Node84</title>
<path fill="none" stroke="midnightblue" d="M1308.68,-462.49C1244.28,-453.13 1147.02,-438.19 1063,-422 1059.98,-421.42 1056.88,-420.8 1053.76,-420.15"/>
<polygon fill="midnightblue" stroke="midnightblue" points="1308.33,-465.97 1318.73,-463.94 1309.33,-459.05 1308.33,-465.97"/>
</g>
<!-- Node85 -->
<g id="node36" class="node">
<title>Node85</title>
<g id="a_node36"><a xlink:href="JKRDvdArchive_8cpp.html" target="_top" xlink:title=" ">
<polygon fill="white" stroke="black" points="1071.5,-391.5 1071.5,-421.5 1180.5,-421.5 1180.5,-391.5 1071.5,-391.5"/>
<text text-anchor="start" x="1079.5" y="-409.5" font-family="Helvetica,sans-Serif" font-size="10.00">libs/JSystem/JKernel</text>
<text text-anchor="middle" x="1126" y="-398.5" font-family="Helvetica,sans-Serif" font-size="10.00">/JKRDvdArchive.cpp</text>
</a>
</g>
</g>
<!-- Node82&#45;&gt;Node85 -->
<g id="edge52" class="edge">
<title>Node82&#45;&gt;Node85</title>
<path fill="none" stroke="midnightblue" d="M1315.43,-455.98C1273.79,-445.32 1220.24,-431.62 1180.7,-421.5"/>
<polygon fill="midnightblue" stroke="midnightblue" points="1314.64,-459.39 1325.2,-458.48 1316.38,-452.61 1314.64,-459.39"/>
</g>
<!-- Node86 -->
<g id="node37" class="node">
<title>Node86</title>
<g id="a_node37"><a xlink:href="JKRDvdFile_8cpp.html" target="_top" xlink:title=" ">
<polygon fill="white" stroke="black" points="1198.5,-391.5 1198.5,-421.5 1307.5,-421.5 1307.5,-391.5 1198.5,-391.5"/>
<text text-anchor="start" x="1206.5" y="-409.5" font-family="Helvetica,sans-Serif" font-size="10.00">libs/JSystem/JKernel</text>
<text text-anchor="middle" x="1253" y="-398.5" font-family="Helvetica,sans-Serif" font-size="10.00">/JKRDvdFile.cpp</text>
</a>
</g>
</g>
<!-- Node82&#45;&gt;Node86 -->
<g id="edge53" class="edge">
<title>Node82&#45;&gt;Node86</title>
<path fill="none" stroke="midnightblue" d="M1343.3,-453.71C1323.27,-443.46 1298.88,-430.98 1280.5,-421.58"/>
<polygon fill="midnightblue" stroke="midnightblue" points="1341.95,-456.96 1352.44,-458.4 1345.14,-450.72 1341.95,-456.96"/>
</g>
<!-- Node87 -->
<g id="node38" class="node">
<title>Node87</title>
<g id="a_node38"><a xlink:href="JKRExpHeap_8cpp.html" target="_top" xlink:title=" ">
<polygon fill="white" stroke="black" points="1325.5,-391.5 1325.5,-421.5 1434.5,-421.5 1434.5,-391.5 1325.5,-391.5"/>
<text text-anchor="start" x="1333.5" y="-409.5" font-family="Helvetica,sans-Serif" font-size="10.00">libs/JSystem/JKernel</text>
<text text-anchor="middle" x="1380" y="-398.5" font-family="Helvetica,sans-Serif" font-size="10.00">/JKRExpHeap.cpp</text>
</a>
</g>
</g>
<!-- Node82&#45;&gt;Node87 -->
<g id="edge54" class="edge">
<title>Node82&#45;&gt;Node87</title>
<path fill="none" stroke="midnightblue" d="M1380,-448.11C1380,-439.15 1380,-429.32 1380,-421.58"/>
<polygon fill="midnightblue" stroke="midnightblue" points="1376.5,-448.4 1380,-458.4 1383.5,-448.4 1376.5,-448.4"/>
</g>
<!-- Node88 -->
<g id="node39" class="node">
<title>Node88</title>
<g id="a_node39"><a xlink:href="JKRHeap_8cpp.html" target="_top" xlink:title=" ">
<polygon fill="white" stroke="black" points="1452.5,-391.5 1452.5,-421.5 1561.5,-421.5 1561.5,-391.5 1452.5,-391.5"/>
<text text-anchor="start" x="1460.5" y="-409.5" font-family="Helvetica,sans-Serif" font-size="10.00">libs/JSystem/JKernel</text>
<text text-anchor="middle" x="1507" y="-398.5" font-family="Helvetica,sans-Serif" font-size="10.00">/JKRHeap.cpp</text>
</a>
</g>
</g>
<!-- Node82&#45;&gt;Node88 -->
<g id="edge55" class="edge">
<title>Node82&#45;&gt;Node88</title>
<path fill="none" stroke="midnightblue" d="M1416.7,-453.71C1436.73,-443.46 1461.12,-430.98 1479.5,-421.58"/>
<polygon fill="midnightblue" stroke="midnightblue" points="1414.86,-450.72 1407.56,-458.4 1418.05,-456.96 1414.86,-450.72"/>
</g>
<!-- Node89 -->
<g id="node40" class="node">
<title>Node89</title>
<g id="a_node40"><a xlink:href="JKRMemArchive_8cpp.html" target="_top" xlink:title=" ">
<polygon fill="white" stroke="black" points="1579.5,-391.5 1579.5,-421.5 1690.5,-421.5 1690.5,-391.5 1579.5,-391.5"/>
<text text-anchor="start" x="1587.5" y="-409.5" font-family="Helvetica,sans-Serif" font-size="10.00">libs/JSystem/JKernel</text>
<text text-anchor="middle" x="1635" y="-398.5" font-family="Helvetica,sans-Serif" font-size="10.00">/JKRMemArchive.cpp</text>
</a>
</g>
</g>
<!-- Node82&#45;&gt;Node89 -->
<g id="edge56" class="edge">
<title>Node82&#45;&gt;Node89</title>
<path fill="none" stroke="midnightblue" d="M1444.79,-455.98C1486.44,-445.37 1539.98,-431.72 1579.64,-421.61"/>
<polygon fill="midnightblue" stroke="midnightblue" points="1443.84,-452.61 1435.02,-458.48 1445.57,-459.4 1443.84,-452.61"/>
</g>
<!-- Node90 -->
<g id="node41" class="node">
<title>Node90</title>
<g id="a_node41"><a xlink:href="JUTException_8cpp.html" target="_top" xlink:title=" ">
<polygon fill="white" stroke="black" points="1708,-391.5 1708,-421.5 1814,-421.5 1814,-391.5 1708,-391.5"/>
<text text-anchor="start" x="1716" y="-409.5" font-family="Helvetica,sans-Serif" font-size="10.00">libs/JSystem/JUtility</text>
<text text-anchor="middle" x="1761" y="-398.5" font-family="Helvetica,sans-Serif" font-size="10.00">/JUTException.cpp</text>
</a>
</g>
</g>
<!-- Node82&#45;&gt;Node90 -->
<g id="edge57" class="edge">
<title>Node82&#45;&gt;Node90</title>
<path fill="none" stroke="midnightblue" d="M1451.44,-462.83C1516.47,-453.65 1615.02,-438.78 1700,-422 1702.56,-421.49 1705.18,-420.96 1707.82,-420.39"/>
<polygon fill="midnightblue" stroke="midnightblue" points="1450.71,-459.4 1441.29,-464.25 1451.68,-466.33 1450.71,-459.4"/>
</g>
<!-- Node92 -->
<g id="node43" class="node">
<title>Node92</title>
<g id="a_node43"><a xlink:href="JUTFont_8cpp.html" target="_top" xlink:title=" ">
<polygon fill="white" stroke="black" points="2188,-391.5 2188,-421.5 2294,-421.5 2294,-391.5 2188,-391.5"/>
<text text-anchor="start" x="2196" y="-409.5" font-family="Helvetica,sans-Serif" font-size="10.00">libs/JSystem/JUtility</text>
<text text-anchor="middle" x="2241" y="-398.5" font-family="Helvetica,sans-Serif" font-size="10.00">/JUTFont.cpp</text>
</a>
</g>
</g>
<!-- Node91&#45;&gt;Node92 -->
<g id="edge59" class="edge">
<title>Node91&#45;&gt;Node92</title>
<path fill="none" stroke="midnightblue" d="M2112.88,-454.82C2141.17,-444.37 2176.49,-431.32 2202.89,-421.58"/>
<polygon fill="midnightblue" stroke="midnightblue" points="2111.36,-451.65 2103.19,-458.4 2113.78,-458.21 2111.36,-451.65"/>
</g>
<!-- Node93 -->
<g id="node44" class="node">
<title>Node93</title>
<g id="a_node44"><a xlink:href="J2DPane_8h.html" target="_top" xlink:title=" ">
<polygon fill="white" stroke="red" points="2254.5,-324.5 2254.5,-354.5 2389.5,-354.5 2389.5,-324.5 2254.5,-324.5"/>
<text text-anchor="start" x="2262.5" y="-342.5" font-family="Helvetica,sans-Serif" font-size="10.00">include/JSystem/J2DGraph</text>
<text text-anchor="middle" x="2322" y="-331.5" font-family="Helvetica,sans-Serif" font-size="10.00">/J2DPane.h</text>
</a>
</g>
</g>
<!-- Node91&#45;&gt;Node93 -->
<g id="edge60" class="edge">
<title>Node91&#45;&gt;Node93</title>
<path fill="none" stroke="midnightblue" d="M2136.13,-465.8C2197.43,-458.57 2279.64,-444.9 2303,-422 2321.05,-404.3 2323.34,-373.01 2322.96,-354.78"/>
<polygon fill="midnightblue" stroke="midnightblue" points="2135.64,-462.34 2126.11,-466.95 2136.44,-469.29 2135.64,-462.34"/>
</g>
<!-- Node110 -->
<g id="node45" class="node">
<title>Node110</title>
<g id="a_node45"><a xlink:href="JUTConsole_8h.html" target="_top" xlink:title=" ">
<polygon fill="white" stroke="red" points="1870,-391.5 1870,-421.5 1992,-421.5 1992,-391.5 1870,-391.5"/>
<text text-anchor="start" x="1878" y="-409.5" font-family="Helvetica,sans-Serif" font-size="10.00">include/JSystem/JUtility</text>
<text text-anchor="middle" x="1931" y="-398.5" font-family="Helvetica,sans-Serif" font-size="10.00">/JUTConsole.h</text>
</a>
</g>
</g>
<!-- Node91&#45;&gt;Node110 -->
<g id="edge61" class="edge">
<title>Node91&#45;&gt;Node110</title>
<path fill="none" stroke="midnightblue" d="M2026.85,-453.99C2005.61,-443.69 1979.59,-431.07 1960.02,-421.58"/>
<polygon fill="midnightblue" stroke="midnightblue" points="2025.4,-457.18 2035.92,-458.4 2028.45,-450.88 2025.4,-457.18"/>
</g>
<!-- Node114 -->
<g id="node46" class="node">
<title>Node114</title>
<g id="a_node46"><a xlink:href="JUTDbPrint_8h.html" target="_top" xlink:title=" ">
<polygon fill="white" stroke="red" points="2042,-324.5 2042,-354.5 2164,-354.5 2164,-324.5 2042,-324.5"/>
<text text-anchor="start" x="2050" y="-342.5" font-family="Helvetica,sans-Serif" font-size="10.00">include/JSystem/JUtility</text>
<text text-anchor="middle" x="2103" y="-331.5" font-family="Helvetica,sans-Serif" font-size="10.00">/JUTDbPrint.h</text>
</a>
</g>
</g>
<!-- Node91&#45;&gt;Node114 -->
<g id="edge63" class="edge">
<title>Node91&#45;&gt;Node114</title>
<path fill="none" stroke="midnightblue" d="M2048.77,-449.91C2038.88,-433.17 2029.76,-410.06 2039,-391 2046.59,-375.33 2061.66,-363.06 2075.28,-354.54"/>
<polygon fill="midnightblue" stroke="midnightblue" points="2045.91,-451.93 2054.24,-458.49 2051.82,-448.17 2045.91,-451.93"/>
</g>
<!-- Node116 -->
<g id="node47" class="node">
<title>Node116</title>
<g id="a_node47"><a xlink:href="JUTResFont_8h.html" target="_top" xlink:title=" ">
<polygon fill="white" stroke="red" points="2048,-391.5 2048,-421.5 2170,-421.5 2170,-391.5 2048,-391.5"/>
<text text-anchor="start" x="2056" y="-409.5" font-family="Helvetica,sans-Serif" font-size="10.00">include/JSystem/JUtility</text>
<text text-anchor="middle" x="2109" y="-398.5" font-family="Helvetica,sans-Serif" font-size="10.00">/JUTResFont.h</text>
</a>
</g>
</g>
<!-- Node91&#45;&gt;Node116 -->
<g id="edge65" class="edge">
<title>Node91&#45;&gt;Node116</title>
<path fill="none" stroke="midnightblue" d="M2080.32,-449.87C2086.69,-440.46 2093.88,-429.83 2099.47,-421.58"/>
<polygon fill="midnightblue" stroke="midnightblue" points="2077.25,-448.15 2074.55,-458.4 2083.05,-452.08 2077.25,-448.15"/>
</g>
<!-- Node110&#45;&gt;Node46 -->
<g id="edge62" class="edge">
<title>Node110&#45;&gt;Node46</title>
<path fill="none" stroke="midnightblue" d="M1936.88,-381.6C1939.67,-370.28 1942.82,-357.46 1944.86,-349.19"/>
<polygon fill="midnightblue" stroke="midnightblue" points="1933.46,-380.85 1934.47,-391.4 1940.26,-382.52 1933.46,-380.85"/>
</g>
<!-- Node114&#45;&gt;Node47 -->
<g id="edge64" class="edge">
<title>Node114&#45;&gt;Node47</title>
<path fill="none" stroke="midnightblue" d="M2059.7,-320.46C2029.56,-307.9 1990.74,-291.72 1967.42,-282.01"/>
<polygon fill="midnightblue" stroke="midnightblue" points="2058.57,-323.78 2069.15,-324.4 2061.27,-317.32 2058.57,-323.78"/>
</g>
<!-- Node116&#45;&gt;Node93 -->
<g id="edge66" class="edge">
<title>Node116&#45;&gt;Node93</title>
<path fill="none" stroke="midnightblue" d="M2164.89,-388.44C2199.42,-377.91 2243.19,-364.55 2275.76,-354.61"/>
<polygon fill="midnightblue" stroke="midnightblue" points="2163.5,-385.21 2154.96,-391.48 2165.54,-391.9 2163.5,-385.21"/>
</g>
<!-- Node119 -->
<g id="node49" class="node">
<title>Node119</title>
<g id="a_node49"><a xlink:href="JUTPalette_8cpp.html" target="_top" xlink:title=" ">
<polygon fill="white" stroke="black" points="2490,-391.5 2490,-421.5 2596,-421.5 2596,-391.5 2490,-391.5"/>
<text text-anchor="start" x="2498" y="-409.5" font-family="Helvetica,sans-Serif" font-size="10.00">libs/JSystem/JUtility</text>
<text text-anchor="middle" x="2543" y="-398.5" font-family="Helvetica,sans-Serif" font-size="10.00">/JUTPalette.cpp</text>
</a>
</g>
</g>
<!-- Node118&#45;&gt;Node119 -->
<g id="edge68" class="edge">
<title>Node118&#45;&gt;Node119</title>
<path fill="none" stroke="midnightblue" d="M2448.87,-453.85C2469.74,-443.58 2495.23,-431.03 2514.41,-421.58"/>
<polygon fill="midnightblue" stroke="midnightblue" points="2447.07,-450.84 2439.64,-458.4 2450.16,-457.12 2447.07,-450.84"/>
</g>
<!-- Node120 -->
<g id="node50" class="node">
<title>Node120</title>
<g id="a_node50"><a xlink:href="JUTTexture_8h.html" target="_top" xlink:title=" ">
<polygon fill="white" stroke="red" points="2350,-391.5 2350,-421.5 2472,-421.5 2472,-391.5 2350,-391.5"/>
<text text-anchor="start" x="2358" y="-409.5" font-family="Helvetica,sans-Serif" font-size="10.00">include/JSystem/JUtility</text>
<text text-anchor="middle" x="2411" y="-398.5" font-family="Helvetica,sans-Serif" font-size="10.00">/JUTTexture.h</text>
</a>
</g>
</g>
<!-- Node118&#45;&gt;Node120 -->
<g id="edge69" class="edge">
<title>Node118&#45;&gt;Node120</title>
<path fill="none" stroke="midnightblue" d="M2411,-448.11C2411,-439.15 2411,-429.32 2411,-421.58"/>
<polygon fill="midnightblue" stroke="midnightblue" points="2407.5,-448.4 2411,-458.4 2414.5,-448.4 2407.5,-448.4"/>
</g>
<!-- Node120&#45;&gt;Node26 -->
<g id="edge70" class="edge">
<title>Node120&#45;&gt;Node26</title>
<path fill="none" stroke="midnightblue" d="M2435.97,-384.77C2471.44,-355.33 2534.84,-302.69 2559.64,-282.1"/>
<polygon fill="midnightblue" stroke="midnightblue" points="2433.47,-382.29 2428.02,-391.37 2437.95,-387.68 2433.47,-382.29"/>
</g>
<!-- Node120&#45;&gt;Node93 -->
<g id="edge71" class="edge">
<title>Node120&#45;&gt;Node93</title>
<path fill="none" stroke="midnightblue" d="M2383.55,-385.45C2369.86,-375.45 2353.63,-363.6 2341.27,-354.58"/>
<polygon fill="midnightblue" stroke="midnightblue" points="2381.55,-388.32 2391.69,-391.4 2385.68,-382.67 2381.55,-388.32"/>
</g>
</g>
</svg>
