<?xml version="1.0" encoding="UTF-8" standalone="no"?>
<!DOCTYPE svg PUBLIC "-//W3C//DTD SVG 1.1//EN"
 "http://www.w3.org/Graphics/SVG/1.1/DTD/svg11.dtd">
<!-- Generated by graphviz version 2.44.0 ()
 -->
<!-- Title: include/dolphin/gx/GXDisplayList.h Pages: 1 -->
<svg width="3009pt" height="620pt"
 viewBox="0.00 0.00 3009.00 620.00" xmlns="http://www.w3.org/2000/svg" xmlns:xlink="http://www.w3.org/1999/xlink">
<g id="graph0" class="graph" transform="scale(1 1) rotate(0) translate(4 616)">
<title>include/dolphin/gx/GXDisplayList.h</title>
<polygon fill="white" stroke="transparent" points="-4,4 -4,-616 3005,-616 3005,4 -4,4"/>
<!-- Node1 -->
<g id="node1" class="node">
<title>Node1</title>
<g id="a_node1"><a xlink:title=" ">
<polygon fill="#bfbfbf" stroke="black" points="1543,-581.5 1543,-611.5 1637,-611.5 1637,-581.5 1543,-581.5"/>
<text text-anchor="start" x="1551" y="-599.5" font-family="Helvetica,sans-Serif" font-size="10.00">include/dolphin/gx</text>
<text text-anchor="middle" x="1590" y="-588.5" font-family="Helvetica,sans-Serif" font-size="10.00">/GXDisplayList.h</text>
</a>
</g>
</g>
<!-- Node2 -->
<g id="node2" class="node">
<title>Node2</title>
<g id="a_node2"><a xlink:href="GXDisplayList_8cpp.html" target="_top" xlink:title=" ">
<polygon fill="white" stroke="black" points="1456.5,-514.5 1456.5,-544.5 1583.5,-544.5 1583.5,-514.5 1456.5,-514.5"/>
<text text-anchor="start" x="1464.5" y="-532.5" font-family="Helvetica,sans-Serif" font-size="10.00">libs/dolphin/gx/GXDisplay</text>
<text text-anchor="middle" x="1520" y="-521.5" font-family="Helvetica,sans-Serif" font-size="10.00">List.cpp</text>
</a>
</g>
</g>
<!-- Node1&#45;&gt;Node2 -->
<g id="edge1" class="edge">
<title>Node1&#45;&gt;Node2</title>
<path fill="none" stroke="midnightblue" d="M1567.18,-574.31C1556.68,-564.56 1544.51,-553.26 1535.16,-544.58"/>
<polygon fill="midnightblue" stroke="midnightblue" points="1565.1,-577.16 1574.81,-581.4 1569.86,-572.03 1565.1,-577.16"/>
</g>
<!-- Node3 -->
<g id="node3" class="node">
<title>Node3</title>
<g id="a_node3"><a xlink:href="GX_8h.html" target="_top" xlink:title=" ">
<polygon fill="white" stroke="black" points="1601.5,-520 1601.5,-539 1720.5,-539 1720.5,-520 1601.5,-520"/>
<text text-anchor="middle" x="1661" y="-527" font-family="Helvetica,sans-Serif" font-size="10.00">include/dolphin/gx/GX.h</text>
</a>
</g>
</g>
<!-- Node1&#45;&gt;Node3 -->
<g id="edge2" class="edge">
<title>Node1&#45;&gt;Node3</title>
<path fill="none" stroke="midnightblue" d="M1613.12,-574.34C1626.15,-562.4 1641.74,-548.14 1651.5,-539.19"/>
<polygon fill="midnightblue" stroke="midnightblue" points="1610.42,-572.06 1605.41,-581.4 1615.15,-577.22 1610.42,-572.06"/>
</g>
<!-- Node4 -->
<g id="node4" class="node">
<title>Node4</title>
<g id="a_node4"><a xlink:href="m__Do__Reset_8cpp.html" target="_top" xlink:title=" ">
<polygon fill="white" stroke="black" points="0,-453 0,-472 136,-472 136,-453 0,-453"/>
<text text-anchor="middle" x="68" y="-460" font-family="Helvetica,sans-Serif" font-size="10.00">src/m_Do/m_Do_Reset.cpp</text>
</a>
</g>
</g>
<!-- Node3&#45;&gt;Node4 -->
<g id="edge3" class="edge">
<title>Node3&#45;&gt;Node4</title>
<path fill="none" stroke="midnightblue" d="M1616.43,-517.9C1608.34,-516.33 1599.95,-514.93 1592,-514 953.01,-439.54 784.73,-545.75 145,-478 132.42,-476.67 118.82,-474.39 106.6,-472.03"/>
<polygon fill="midnightblue" stroke="midnightblue" points="1615.96,-521.37 1626.45,-519.95 1617.36,-514.51 1615.96,-521.37"/>
</g>
<!-- Node5 -->
<g id="node5" class="node">
<title>Node5</title>
<g id="a_node5"><a xlink:href="J3DPacket_8cpp.html" target="_top" xlink:title=" ">
<polygon fill="white" stroke="black" points="154,-447.5 154,-477.5 296,-477.5 296,-447.5 154,-447.5"/>
<text text-anchor="start" x="162" y="-465.5" font-family="Helvetica,sans-Serif" font-size="10.00">libs/JSystem/J3DGraphBase</text>
<text text-anchor="middle" x="225" y="-454.5" font-family="Helvetica,sans-Serif" font-size="10.00">/J3DPacket.cpp</text>
</a>
</g>
</g>
<!-- Node3&#45;&gt;Node5 -->
<g id="edge4" class="edge">
<title>Node3&#45;&gt;Node5</title>
<path fill="none" stroke="midnightblue" d="M1616.43,-517.92C1608.34,-516.34 1599.95,-514.94 1592,-514 1025.93,-447.12 877.24,-534.06 310,-478 305.53,-477.56 300.94,-477.02 296.32,-476.42"/>
<polygon fill="midnightblue" stroke="midnightblue" points="1615.95,-521.39 1626.45,-519.97 1617.36,-514.54 1615.95,-521.39"/>
</g>
<!-- Node6 -->
<g id="node6" class="node">
<title>Node6</title>
<g id="a_node6"><a xlink:href="JUTXfb_8cpp.html" target="_top" xlink:title=" ">
<polygon fill="white" stroke="black" points="316,-313.5 316,-343.5 422,-343.5 422,-313.5 316,-313.5"/>
<text text-anchor="start" x="324" y="-331.5" font-family="Helvetica,sans-Serif" font-size="10.00">libs/JSystem/JUtility</text>
<text text-anchor="middle" x="369" y="-320.5" font-family="Helvetica,sans-Serif" font-size="10.00">/JUTXfb.cpp</text>
</a>
</g>
</g>
<!-- Node3&#45;&gt;Node6 -->
<g id="edge5" class="edge">
<title>Node3&#45;&gt;Node6</title>
<path fill="none" stroke="midnightblue" d="M1616.16,-517.9C1608.16,-516.35 1599.86,-514.95 1592,-514 1354.26,-485.27 749.58,-526.15 515,-478 434.64,-461.51 389.3,-478.73 343,-411 328.67,-390.03 345.08,-360.71 357.56,-343.55"/>
<polygon fill="midnightblue" stroke="midnightblue" points="1615.6,-521.36 1626.09,-519.94 1617,-514.5 1615.6,-521.36"/>
</g>
<!-- Node7 -->
<g id="node7" class="node">
<title>Node7</title>
<g id="a_node7"><a xlink:href="d__drawlist_8h.html" target="_top" xlink:title=" ">
<polygon fill="white" stroke="black" points="2693,-319 2693,-338 2803,-338 2803,-319 2693,-319"/>
<text text-anchor="middle" x="2748" y="-326" font-family="Helvetica,sans-Serif" font-size="10.00">include/d/d_drawlist.h</text>
</a>
</g>
</g>
<!-- Node3&#45;&gt;Node7 -->
<g id="edge6" class="edge">
<title>Node3&#45;&gt;Node7</title>
<path fill="none" stroke="midnightblue" d="M1730.82,-527.94C1916.32,-525.92 2418.27,-516.91 2579,-478 2649.96,-460.82 2682.53,-467.32 2729,-411 2746.75,-389.48 2748.56,-354.4 2748.36,-338.2"/>
<polygon fill="midnightblue" stroke="midnightblue" points="1730.6,-524.44 1720.64,-528.04 1730.67,-531.44 1730.6,-524.44"/>
</g>
<!-- Node42 -->
<g id="node22" class="node">
<title>Node42</title>
<g id="a_node22"><a xlink:href="J3DShape_8h.html" target="_top" xlink:title=" ">
<polygon fill="white" stroke="black" points="2776.5,-447.5 2776.5,-477.5 2911.5,-477.5 2911.5,-447.5 2776.5,-447.5"/>
<text text-anchor="start" x="2784.5" y="-465.5" font-family="Helvetica,sans-Serif" font-size="10.00">include/JSystem/J3DGraph</text>
<text text-anchor="middle" x="2844" y="-454.5" font-family="Helvetica,sans-Serif" font-size="10.00">Base/J3DShape.h</text>
</a>
</g>
</g>
<!-- Node3&#45;&gt;Node42 -->
<g id="edge30" class="edge">
<title>Node3&#45;&gt;Node42</title>
<path fill="none" stroke="midnightblue" d="M1730.65,-528.42C1904.97,-527.55 2373.92,-521.03 2762,-478 2766.6,-477.49 2771.33,-476.88 2776.08,-476.21"/>
<polygon fill="midnightblue" stroke="midnightblue" points="1730.57,-524.92 1720.59,-528.47 1730.6,-531.92 1730.57,-524.92"/>
</g>
<!-- Node44 -->
<g id="node24" class="node">
<title>Node44</title>
<g id="a_node24"><a xlink:href="JPAParticle_8h.html" target="_top" xlink:title=" ">
<polygon fill="white" stroke="black" points="2440,-447.5 2440,-477.5 2570,-477.5 2570,-447.5 2440,-447.5"/>
<text text-anchor="start" x="2448" y="-465.5" font-family="Helvetica,sans-Serif" font-size="10.00">include/JSystem/JParticle</text>
<text text-anchor="middle" x="2505" y="-454.5" font-family="Helvetica,sans-Serif" font-size="10.00">/JPAParticle.h</text>
</a>
</g>
</g>
<!-- Node3&#45;&gt;Node44 -->
<g id="edge33" class="edge">
<title>Node3&#45;&gt;Node44</title>
<path fill="none" stroke="midnightblue" d="M1731.05,-523.15C1851.31,-513.96 2104.78,-494.57 2319,-478 2359.04,-474.9 2403.93,-471.4 2439.58,-468.62"/>
<polygon fill="midnightblue" stroke="midnightblue" points="1730.58,-519.68 1720.88,-523.93 1731.12,-526.66 1730.58,-519.68"/>
</g>
<!-- Node76 -->
<g id="node28" class="node">
<title>Node76</title>
<g id="a_node28"><a xlink:href="JUTException_8h.html" target="_top" xlink:title=" ">
<polygon fill="white" stroke="black" points="1216,-447.5 1216,-477.5 1338,-477.5 1338,-447.5 1216,-447.5"/>
<text text-anchor="start" x="1224" y="-465.5" font-family="Helvetica,sans-Serif" font-size="10.00">include/JSystem/JUtility</text>
<text text-anchor="middle" x="1277" y="-454.5" font-family="Helvetica,sans-Serif" font-size="10.00">/JUTException.h</text>
</a>
</g>
</g>
<!-- Node3&#45;&gt;Node76 -->
<g id="edge41" class="edge">
<title>Node3&#45;&gt;Node76</title>
<path fill="none" stroke="midnightblue" d="M1612.21,-517.94C1605.43,-516.56 1598.55,-515.21 1592,-514 1504.05,-497.72 1401.7,-481.88 1338.13,-472.41"/>
<polygon fill="midnightblue" stroke="midnightblue" points="1611.52,-521.37 1622.02,-519.97 1612.93,-514.52 1611.52,-521.37"/>
</g>
<!-- Node86 -->
<g id="node38" class="node">
<title>Node86</title>
<g id="a_node38"><a xlink:href="JUTFont_8h.html" target="_top" xlink:title=" ">
<polygon fill="white" stroke="black" points="1881,-447.5 1881,-477.5 2003,-477.5 2003,-447.5 1881,-447.5"/>
<text text-anchor="start" x="1889" y="-465.5" font-family="Helvetica,sans-Serif" font-size="10.00">include/JSystem/JUtility</text>
<text text-anchor="middle" x="1942" y="-454.5" font-family="Helvetica,sans-Serif" font-size="10.00">/JUTFont.h</text>
</a>
</g>
</g>
<!-- Node3&#45;&gt;Node86 -->
<g id="edge51" class="edge">
<title>Node3&#45;&gt;Node86</title>
<path fill="none" stroke="midnightblue" d="M1708.05,-517.62C1755.6,-506.62 1829.28,-489.58 1881.22,-477.56"/>
<polygon fill="midnightblue" stroke="midnightblue" points="1706.98,-514.27 1698.02,-519.94 1708.56,-521.09 1706.98,-514.27"/>
</g>
<!-- Node114 -->
<g id="node45" class="node">
<title>Node114</title>
<g id="a_node45"><a xlink:href="JUTPalette_8h.html" target="_top" xlink:title=" ">
<polygon fill="white" stroke="black" points="2188,-447.5 2188,-477.5 2310,-477.5 2310,-447.5 2188,-447.5"/>
<text text-anchor="start" x="2196" y="-465.5" font-family="Helvetica,sans-Serif" font-size="10.00">include/JSystem/JUtility</text>
<text text-anchor="middle" x="2249" y="-454.5" font-family="Helvetica,sans-Serif" font-size="10.00">/JUTPalette.h</text>
</a>
</g>
</g>
<!-- Node3&#45;&gt;Node114 -->
<g id="edge61" class="edge">
<title>Node3&#45;&gt;Node114</title>
<path fill="none" stroke="midnightblue" d="M1730.81,-520.78C1846.93,-507.95 2077.84,-482.42 2187.9,-470.25"/>
<polygon fill="midnightblue" stroke="midnightblue" points="1730.17,-517.33 1720.62,-521.91 1730.94,-524.29 1730.17,-517.33"/>
</g>
<!-- Node121 -->
<g id="node48" class="node">
<title>Node121</title>
<g id="a_node48"><a xlink:href="JUTVideo_8h.html" target="_top" xlink:title=" ">
<polygon fill="white" stroke="black" points="524,-447.5 524,-477.5 646,-477.5 646,-447.5 524,-447.5"/>
<text text-anchor="start" x="532" y="-465.5" font-family="Helvetica,sans-Serif" font-size="10.00">include/JSystem/JUtility</text>
<text text-anchor="middle" x="585" y="-454.5" font-family="Helvetica,sans-Serif" font-size="10.00">/JUTVideo.h</text>
</a>
</g>
</g>
<!-- Node3&#45;&gt;Node121 -->
<g id="edge66" class="edge">
<title>Node3&#45;&gt;Node121</title>
<path fill="none" stroke="midnightblue" d="M1615.89,-517.96C1607.96,-516.41 1599.77,-515 1592,-514 1235.69,-467.92 803.41,-463.27 646.02,-463.23"/>
<polygon fill="midnightblue" stroke="midnightblue" points="1615.23,-521.4 1625.73,-519.97 1616.63,-514.54 1615.23,-521.4"/>
</g>
<!-- Node8 -->
<g id="node8" class="node">
<title>Node8</title>
<g id="a_node8"><a xlink:href="d__drawlist_8cpp.html" target="_top" xlink:title=" ">
<polygon fill="white" stroke="black" points="2778,-257.5 2778,-276.5 2882,-276.5 2882,-257.5 2778,-257.5"/>
<text text-anchor="middle" x="2830" y="-264.5" font-family="Helvetica,sans-Serif" font-size="10.00">src/d/d_drawlist.cpp</text>
</a>
</g>
</g>
<!-- Node7&#45;&gt;Node8 -->
<g id="edge7" class="edge">
<title>Node7&#45;&gt;Node8</title>
<path fill="none" stroke="midnightblue" d="M2768.27,-312.79C2784,-301.38 2805.25,-285.96 2818.27,-276.51"/>
<polygon fill="midnightblue" stroke="midnightblue" points="2765.79,-310.27 2759.75,-318.98 2769.9,-315.93 2765.79,-310.27"/>
</g>
<!-- Node9 -->
<g id="node9" class="node">
<title>Node9</title>
<g id="a_node9"><a xlink:href="d__a__alink_8h.html" target="_top" xlink:title=" ">
<polygon fill="white" stroke="black" points="2457,-134.5 2457,-153.5 2573,-153.5 2573,-134.5 2457,-134.5"/>
<text text-anchor="middle" x="2515" y="-141.5" font-family="Helvetica,sans-Serif" font-size="10.00">include/d/a/d_a_alink.h</text>
</a>
</g>
</g>
<!-- Node7&#45;&gt;Node9 -->
<g id="edge8" class="edge">
<title>Node7&#45;&gt;Node9</title>
<path fill="none" stroke="midnightblue" d="M2729.47,-312.32C2717.67,-302.49 2702.18,-289.27 2689,-277 2649.2,-239.96 2646.87,-222.12 2603,-190 2581.95,-174.59 2554.88,-161.62 2536.35,-153.62"/>
<polygon fill="midnightblue" stroke="midnightblue" points="2727.39,-315.14 2737.33,-318.82 2731.85,-309.75 2727.39,-315.14"/>
</g>
<!-- Node11 -->
<g id="node11" class="node">
<title>Node11</title>
<g id="a_node11"><a xlink:href="d__com__inf__game_8h.html" target="_top" xlink:title=" ">
<polygon fill="white" stroke="red" points="2336,-67.5 2336,-97.5 2446,-97.5 2446,-67.5 2336,-67.5"/>
<text text-anchor="start" x="2344" y="-85.5" font-family="Helvetica,sans-Serif" font-size="10.00">include/d/com/d_com</text>
<text text-anchor="middle" x="2391" y="-74.5" font-family="Helvetica,sans-Serif" font-size="10.00">_inf_game.h</text>
</a>
</g>
</g>
<!-- Node7&#45;&gt;Node11 -->
<g id="edge28" class="edge">
<title>Node7&#45;&gt;Node11</title>
<path fill="none" stroke="midnightblue" d="M2738.28,-309.85C2716.06,-271.29 2657.6,-179.36 2582,-134 2540.24,-108.94 2486.04,-96.14 2446.05,-89.72"/>
<polygon fill="midnightblue" stroke="midnightblue" points="2735.39,-311.85 2743.35,-318.84 2741.48,-308.41 2735.39,-311.85"/>
</g>
<!-- Node26 -->
<g id="node17" class="node">
<title>Node26</title>
<g id="a_node17"><a xlink:href="d__kantera__icon__meter_8h.html" target="_top" xlink:title=" ">
<polygon fill="white" stroke="red" points="2714.5,-0.5 2714.5,-30.5 2815.5,-30.5 2815.5,-0.5 2714.5,-0.5"/>
<text text-anchor="start" x="2722.5" y="-18.5" font-family="Helvetica,sans-Serif" font-size="10.00">include/d/d_kantera</text>
<text text-anchor="middle" x="2765" y="-7.5" font-family="Helvetica,sans-Serif" font-size="10.00">_icon_meter.h</text>
</a>
</g>
</g>
<!-- Node7&#45;&gt;Node26 -->
<g id="edge29" class="edge">
<title>Node7&#45;&gt;Node26</title>
<path fill="none" stroke="midnightblue" d="M2748.25,-308.94C2748.54,-285.19 2749,-242.79 2749,-206.5 2749,-206.5 2749,-206.5 2749,-143 2749,-102.05 2757.36,-54.22 2761.99,-30.84"/>
<polygon fill="midnightblue" stroke="midnightblue" points="2744.75,-308.95 2748.12,-318.99 2751.75,-309.04 2744.75,-308.95"/>
</g>
<!-- Node28 -->
<g id="node18" class="node">
<title>Node28</title>
<g id="a_node18"><a xlink:href="d__a__player_8h.html" target="_top" xlink:title=" ">
<polygon fill="white" stroke="black" points="2188.5,-257.5 2188.5,-276.5 2309.5,-276.5 2309.5,-257.5 2188.5,-257.5"/>
<text text-anchor="middle" x="2249" y="-264.5" font-family="Helvetica,sans-Serif" font-size="10.00">include/d/a/d_a_player.h</text>
</a>
</g>
</g>
<!-- Node7&#45;&gt;Node28 -->
<g id="edge18" class="edge">
<title>Node7&#45;&gt;Node28</title>
<path fill="none" stroke="midnightblue" d="M2682.69,-319.71C2585.47,-308.12 2404.02,-286.48 2309.6,-275.23"/>
<polygon fill="midnightblue" stroke="midnightblue" points="2682.35,-323.2 2692.69,-320.91 2683.18,-316.25 2682.35,-323.2"/>
</g>
<!-- Node10 -->
<g id="node10" class="node">
<title>Node10</title>
<g id="a_node10"><a xlink:href="d__a__alink_8cpp.html" target="_top" xlink:title=" ">
<polygon fill="white" stroke="black" points="2460.5,-6 2460.5,-25 2569.5,-25 2569.5,-6 2460.5,-6"/>
<text text-anchor="middle" x="2515" y="-13" font-family="Helvetica,sans-Serif" font-size="10.00">src/d/a/d_a_alink.cpp</text>
</a>
</g>
</g>
<!-- Node9&#45;&gt;Node10 -->
<g id="edge9" class="edge">
<title>Node9&#45;&gt;Node10</title>
<path fill="none" stroke="midnightblue" d="M2515,-123.94C2515,-96.12 2515,-45.54 2515,-25.26"/>
<polygon fill="midnightblue" stroke="midnightblue" points="2511.5,-124.31 2515,-134.31 2518.5,-124.31 2511.5,-124.31"/>
</g>
<!-- Node9&#45;&gt;Node11 -->
<g id="edge10" class="edge">
<title>Node9&#45;&gt;Node11</title>
<path fill="none" stroke="midnightblue" d="M2488.05,-130.07C2468.04,-120.47 2440.76,-107.38 2420.22,-97.52"/>
<polygon fill="midnightblue" stroke="midnightblue" points="2486.7,-133.3 2497.23,-134.48 2489.73,-126.99 2486.7,-133.3"/>
</g>
<!-- Node11&#45;&gt;Node10 -->
<g id="edge13" class="edge">
<title>Node11&#45;&gt;Node10</title>
<path fill="none" stroke="midnightblue" d="M2426.98,-62.64C2450.71,-50.2 2480.64,-34.51 2498.77,-25.01"/>
<polygon fill="midnightblue" stroke="midnightblue" points="2425.14,-59.65 2417.91,-67.4 2428.39,-65.85 2425.14,-59.65"/>
</g>
<!-- Node12 -->
<g id="node12" class="node">
<title>Node12</title>
<g id="a_node12"><a xlink:href="d__a__player_8cpp.html" target="_top" xlink:title=" ">
<polygon fill="white" stroke="black" points="2096,-6 2096,-25 2210,-25 2210,-6 2096,-6"/>
<text text-anchor="middle" x="2153" y="-13" font-family="Helvetica,sans-Serif" font-size="10.00">src/d/a/d_a_player.cpp</text>
</a>
</g>
</g>
<!-- Node11&#45;&gt;Node12 -->
<g id="edge11" class="edge">
<title>Node11&#45;&gt;Node12</title>
<path fill="none" stroke="midnightblue" d="M2329.96,-64.83C2283.38,-52.11 2221.13,-35.11 2184.23,-25.03"/>
<polygon fill="midnightblue" stroke="midnightblue" points="2329.08,-68.22 2339.65,-67.48 2330.93,-61.46 2329.08,-68.22"/>
</g>
<!-- Node13 -->
<g id="node13" class="node">
<title>Node13</title>
<g id="a_node13"><a xlink:href="d__com__inf__game_8cpp.html" target="_top" xlink:title=" ">
<polygon fill="white" stroke="black" points="2588,-0.5 2588,-30.5 2696,-30.5 2696,-0.5 2588,-0.5"/>
<text text-anchor="start" x="2596" y="-18.5" font-family="Helvetica,sans-Serif" font-size="10.00">src/d/com/d_com_inf</text>
<text text-anchor="middle" x="2642" y="-7.5" font-family="Helvetica,sans-Serif" font-size="10.00">_game.cpp</text>
</a>
</g>
</g>
<!-- Node11&#45;&gt;Node13 -->
<g id="edge12" class="edge">
<title>Node11&#45;&gt;Node13</title>
<path fill="none" stroke="midnightblue" d="M2455.07,-64.91C2496.18,-54.26 2548.96,-40.59 2587.94,-30.5"/>
<polygon fill="midnightblue" stroke="midnightblue" points="2453.96,-61.58 2445.15,-67.48 2455.71,-68.36 2453.96,-61.58"/>
</g>
<!-- Node14 -->
<g id="node14" class="node">
<title>Node14</title>
<g id="a_node14"><a xlink:href="d__resorce_8cpp.html" target="_top" xlink:title=" ">
<polygon fill="white" stroke="black" points="2340,-6 2340,-25 2442,-25 2442,-6 2340,-6"/>
<text text-anchor="middle" x="2391" y="-13" font-family="Helvetica,sans-Serif" font-size="10.00">src/d/d_resorce.cpp</text>
</a>
</g>
</g>
<!-- Node11&#45;&gt;Node14 -->
<g id="edge14" class="edge">
<title>Node11&#45;&gt;Node14</title>
<path fill="none" stroke="midnightblue" d="M2391,-57.25C2391,-46.02 2391,-33.38 2391,-25.19"/>
<polygon fill="midnightblue" stroke="midnightblue" points="2387.5,-57.4 2391,-67.4 2394.5,-57.4 2387.5,-57.4"/>
</g>
<!-- Node15 -->
<g id="node15" class="node">
<title>Node15</title>
<g id="a_node15"><a xlink:href="d__stage_8cpp.html" target="_top" xlink:title=" ">
<polygon fill="white" stroke="black" points="2228,-6 2228,-25 2322,-25 2322,-6 2228,-6"/>
<text text-anchor="middle" x="2275" y="-13" font-family="Helvetica,sans-Serif" font-size="10.00">src/d/d_stage.cpp</text>
</a>
</g>
</g>
<!-- Node11&#45;&gt;Node15 -->
<g id="edge15" class="edge">
<title>Node11&#45;&gt;Node15</title>
<path fill="none" stroke="midnightblue" d="M2357.04,-62.47C2334.9,-50.06 2307.07,-34.47 2290.18,-25.01"/>
<polygon fill="midnightblue" stroke="midnightblue" points="2355.4,-65.56 2365.83,-67.4 2358.82,-59.45 2355.4,-65.56"/>
</g>
<!-- Node16 -->
<g id="node16" class="node">
<title>Node16</title>
<g id="a_node16"><a xlink:href="d__event_8cpp.html" target="_top" xlink:title=" ">
<polygon fill="white" stroke="black" points="1956.5,-6 1956.5,-25 2077.5,-25 2077.5,-6 1956.5,-6"/>
<text text-anchor="middle" x="2017" y="-13" font-family="Helvetica,sans-Serif" font-size="10.00">src/d/event/d_event.cpp</text>
</a>
</g>
</g>
<!-- Node11&#45;&gt;Node16 -->
<g id="edge16" class="edge">
<title>Node11&#45;&gt;Node16</title>
<path fill="none" stroke="midnightblue" d="M2325.99,-71.47C2264.35,-61.77 2169.2,-46.34 2087,-31 2077.24,-29.18 2066.74,-27.08 2056.92,-25.06"/>
<polygon fill="midnightblue" stroke="midnightblue" points="2325.54,-74.94 2335.97,-73.03 2326.63,-68.02 2325.54,-74.94"/>
</g>
<!-- Node11&#45;&gt;Node26 -->
<g id="edge17" class="edge">
<title>Node11&#45;&gt;Node26</title>
<path fill="none" stroke="midnightblue" d="M2456.16,-72.53C2519.85,-63.4 2619.45,-48.19 2705,-31 2708.05,-30.39 2711.17,-29.73 2714.32,-29.04"/>
<polygon fill="midnightblue" stroke="midnightblue" points="2455.66,-69.06 2446.25,-73.94 2456.65,-75.99 2455.66,-69.06"/>
</g>
<!-- Node28&#45;&gt;Node9 -->
<g id="edge20" class="edge">
<title>Node28&#45;&gt;Node9</title>
<path fill="none" stroke="midnightblue" d="M2318.56,-255.48C2351.74,-248.65 2391.24,-237.8 2424,-221 2426.31,-219.81 2481.63,-173.18 2504.87,-153.56"/>
<polygon fill="midnightblue" stroke="midnightblue" points="2317.61,-252.1 2308.48,-257.47 2318.97,-258.97 2317.61,-252.1"/>
</g>
<!-- Node28&#45;&gt;Node12 -->
<g id="edge19" class="edge">
<title>Node28&#45;&gt;Node12</title>
<path fill="none" stroke="midnightblue" d="M2211.08,-253.41C2195.76,-246.34 2179.49,-235.88 2170,-221 2128.61,-156.13 2144.96,-55.14 2151.08,-25.17"/>
<polygon fill="midnightblue" stroke="midnightblue" points="2209.85,-256.69 2220.42,-257.38 2212.59,-250.25 2209.85,-256.69"/>
</g>
<!-- Node29 -->
<g id="node19" class="node">
<title>Node29</title>
<g id="a_node19"><a xlink:href="d__bg__s__acch_8h.html" target="_top" xlink:title=" ">
<polygon fill="white" stroke="red" points="2179,-190.5 2179,-220.5 2283,-220.5 2283,-190.5 2179,-190.5"/>
<text text-anchor="start" x="2187" y="-208.5" font-family="Helvetica,sans-Serif" font-size="10.00">include/d/bg/d_bg_s</text>
<text text-anchor="middle" x="2231" y="-197.5" font-family="Helvetica,sans-Serif" font-size="10.00">_acch.h</text>
</a>
</g>
</g>
<!-- Node28&#45;&gt;Node29 -->
<g id="edge21" class="edge">
<title>Node28&#45;&gt;Node29</title>
<path fill="none" stroke="midnightblue" d="M2243.5,-247.82C2240.84,-239.04 2237.71,-228.68 2235.24,-220.52"/>
<polygon fill="midnightblue" stroke="midnightblue" points="2240.18,-248.92 2246.42,-257.48 2246.88,-246.89 2240.18,-248.92"/>
</g>
<!-- Node39 -->
<g id="node20" class="node">
<title>Node39</title>
<g id="a_node20"><a xlink:href="d__attention_8h.html" target="_top" xlink:title=" ">
<polygon fill="white" stroke="red" points="2301,-196 2301,-215 2415,-215 2415,-196 2301,-196"/>
<text text-anchor="middle" x="2358" y="-203" font-family="Helvetica,sans-Serif" font-size="10.00">include/d/d_attention.h</text>
</a>
</g>
</g>
<!-- Node28&#45;&gt;Node39 -->
<g id="edge22" class="edge">
<title>Node28&#45;&gt;Node39</title>
<path fill="none" stroke="midnightblue" d="M2273.63,-252.56C2294.72,-241.04 2324.46,-224.81 2342.41,-215.01"/>
<polygon fill="midnightblue" stroke="midnightblue" points="2271.72,-249.61 2264.62,-257.48 2275.07,-255.76 2271.72,-249.61"/>
</g>
<!-- Node41 -->
<g id="node21" class="node">
<title>Node41</title>
<g id="a_node21"><a xlink:href="d__event_8h.html" target="_top" xlink:title=" ">
<polygon fill="white" stroke="black" points="1995,-134.5 1995,-153.5 2123,-153.5 2123,-134.5 1995,-134.5"/>
<text text-anchor="middle" x="2059" y="-141.5" font-family="Helvetica,sans-Serif" font-size="10.00">include/d/event/d_event.h</text>
</a>
</g>
</g>
<!-- Node28&#45;&gt;Node41 -->
<g id="edge25" class="edge">
<title>Node28&#45;&gt;Node41</title>
<path fill="none" stroke="midnightblue" d="M2209.43,-254.33C2187.12,-246.74 2159.33,-235.54 2137,-221 2106.9,-201.4 2078.51,-169.03 2065.88,-153.64"/>
<polygon fill="midnightblue" stroke="midnightblue" points="2208.34,-257.66 2218.94,-257.46 2210.53,-251.01 2208.34,-257.66"/>
</g>
<!-- Node39&#45;&gt;Node9 -->
<g id="edge23" class="edge">
<title>Node39&#45;&gt;Node9</title>
<path fill="none" stroke="midnightblue" d="M2390.24,-192.28C2420.75,-180.72 2465.75,-163.66 2492.55,-153.51"/>
<polygon fill="midnightblue" stroke="midnightblue" points="2388.6,-189.16 2380.49,-195.98 2391.09,-195.7 2388.6,-189.16"/>
</g>
<!-- Node39&#45;&gt;Node11 -->
<g id="edge24" class="edge">
<title>Node39&#45;&gt;Node11</title>
<path fill="none" stroke="midnightblue" d="M2363.04,-186.01C2369.68,-161.68 2381.2,-119.42 2387.17,-97.54"/>
<polygon fill="midnightblue" stroke="midnightblue" points="2359.63,-185.23 2360.37,-195.8 2366.38,-187.07 2359.63,-185.23"/>
</g>
<!-- Node41&#45;&gt;Node11 -->
<g id="edge27" class="edge">
<title>Node41&#45;&gt;Node11</title>
<path fill="none" stroke="midnightblue" d="M2116.51,-132.69C2178.08,-121.66 2275.09,-104.27 2335.78,-93.4"/>
<polygon fill="midnightblue" stroke="midnightblue" points="2115.79,-129.27 2106.57,-134.48 2117.03,-136.16 2115.79,-129.27"/>
</g>
<!-- Node41&#45;&gt;Node16 -->
<g id="edge26" class="edge">
<title>Node41&#45;&gt;Node16</title>
<path fill="none" stroke="midnightblue" d="M2052.92,-124.67C2043.74,-97.03 2026.7,-45.72 2019.91,-25.26"/>
<polygon fill="midnightblue" stroke="midnightblue" points="2049.64,-125.92 2056.11,-134.31 2056.28,-123.71 2049.64,-125.92"/>
</g>
<!-- Node42&#45;&gt;Node8 -->
<g id="edge31" class="edge">
<title>Node42&#45;&gt;Node8</title>
<path fill="none" stroke="midnightblue" d="M2842.25,-437.28C2839.1,-393.82 2832.64,-304.55 2830.62,-276.58"/>
<polygon fill="midnightblue" stroke="midnightblue" points="2838.76,-437.55 2842.97,-447.27 2845.74,-437.04 2838.76,-437.55"/>
</g>
<!-- Node43 -->
<g id="node23" class="node">
<title>Node43</title>
<g id="a_node23"><a xlink:href="J3DShape_8cpp.html" target="_top" xlink:title=" ">
<polygon fill="white" stroke="black" points="2859,-380.5 2859,-410.5 3001,-410.5 3001,-380.5 2859,-380.5"/>
<text text-anchor="start" x="2867" y="-398.5" font-family="Helvetica,sans-Serif" font-size="10.00">libs/JSystem/J3DGraphBase</text>
<text text-anchor="middle" x="2930" y="-387.5" font-family="Helvetica,sans-Serif" font-size="10.00">/J3DShape.cpp</text>
</a>
</g>
</g>
<!-- Node42&#45;&gt;Node43 -->
<g id="edge32" class="edge">
<title>Node42&#45;&gt;Node43</title>
<path fill="none" stroke="midnightblue" d="M2870.9,-441.17C2884.05,-431.23 2899.55,-419.51 2911.38,-410.58"/>
<polygon fill="midnightblue" stroke="midnightblue" points="2868.53,-438.57 2862.66,-447.4 2872.75,-444.16 2868.53,-438.57"/>
</g>
<!-- Node45 -->
<g id="node25" class="node">
<title>Node45</title>
<g id="a_node25"><a xlink:href="JPAParticle_8cpp.html" target="_top" xlink:title=" ">
<polygon fill="white" stroke="black" points="2490,-380.5 2490,-410.5 2604,-410.5 2604,-380.5 2490,-380.5"/>
<text text-anchor="start" x="2498" y="-398.5" font-family="Helvetica,sans-Serif" font-size="10.00">libs/JSystem/JParticle</text>
<text text-anchor="middle" x="2547" y="-387.5" font-family="Helvetica,sans-Serif" font-size="10.00">/JPAParticle.cpp</text>
</a>
</g>
</g>
<!-- Node44&#45;&gt;Node45 -->
<g id="edge34" class="edge">
<title>Node44&#45;&gt;Node45</title>
<path fill="none" stroke="midnightblue" d="M2519.62,-438.87C2525.7,-429.46 2532.57,-418.83 2537.9,-410.58"/>
<polygon fill="midnightblue" stroke="midnightblue" points="2516.6,-437.1 2514.11,-447.4 2522.48,-440.9 2516.6,-437.1"/>
</g>
<!-- Node46 -->
<g id="node26" class="node">
<title>Node46</title>
<g id="a_node26"><a xlink:href="d__kankyo_8h.html" target="_top" xlink:title=" ">
<polygon fill="white" stroke="red" points="2622,-380.5 2622,-410.5 2720,-410.5 2720,-380.5 2622,-380.5"/>
<text text-anchor="start" x="2630" y="-398.5" font-family="Helvetica,sans-Serif" font-size="10.00">include/d/kankyo/d</text>
<text text-anchor="middle" x="2671" y="-387.5" font-family="Helvetica,sans-Serif" font-size="10.00">_kankyo.h</text>
</a>
</g>
</g>
<!-- Node44&#45;&gt;Node46 -->
<g id="edge35" class="edge">
<title>Node44&#45;&gt;Node46</title>
<path fill="none" stroke="midnightblue" d="M2550.51,-443.68C2577.13,-433.26 2610.27,-420.28 2635.05,-410.58"/>
<polygon fill="midnightblue" stroke="midnightblue" points="2549.05,-440.49 2541.02,-447.4 2551.61,-447.01 2549.05,-440.49"/>
</g>
<!-- Node63 -->
<g id="node27" class="node">
<title>Node63</title>
<g id="a_node27"><a xlink:href="d__particle_8h.html" target="_top" xlink:title=" ">
<polygon fill="white" stroke="red" points="2471,-190.5 2471,-220.5 2561,-220.5 2561,-190.5 2471,-190.5"/>
<text text-anchor="start" x="2479" y="-208.5" font-family="Helvetica,sans-Serif" font-size="10.00">include/d/particle</text>
<text text-anchor="middle" x="2516" y="-197.5" font-family="Helvetica,sans-Serif" font-size="10.00">/d_particle.h</text>
</a>
</g>
</g>
<!-- Node44&#45;&gt;Node63 -->
<g id="edge39" class="edge">
<title>Node44&#45;&gt;Node63</title>
<path fill="none" stroke="midnightblue" d="M2491.22,-438.08C2487.08,-429.81 2483.09,-420.26 2481,-411 2465.07,-340.37 2495.73,-254.58 2509.64,-220.98"/>
<polygon fill="midnightblue" stroke="midnightblue" points="2488.24,-439.93 2496.04,-447.1 2494.42,-436.63 2488.24,-439.93"/>
</g>
<!-- Node46&#45;&gt;Node7 -->
<g id="edge38" class="edge">
<title>Node46&#45;&gt;Node7</title>
<path fill="none" stroke="midnightblue" d="M2695.67,-373.67C2709.89,-361.67 2727.01,-347.22 2737.7,-338.19"/>
<polygon fill="midnightblue" stroke="midnightblue" points="2693.09,-371.27 2687.71,-380.4 2697.61,-376.62 2693.09,-371.27"/>
</g>
<!-- Node46&#45;&gt;Node9 -->
<g id="edge37" class="edge">
<title>Node46&#45;&gt;Node9</title>
<path fill="none" stroke="midnightblue" d="M2660.83,-370.81C2640.36,-323.73 2594.11,-220.32 2570,-190 2558.17,-175.13 2540.67,-161.87 2528.6,-153.66"/>
<polygon fill="midnightblue" stroke="midnightblue" points="2657.71,-372.43 2664.9,-380.22 2664.14,-369.65 2657.71,-372.43"/>
</g>
<!-- Node46&#45;&gt;Node13 -->
<g id="edge36" class="edge">
<title>Node46&#45;&gt;Node13</title>
<path fill="none" stroke="midnightblue" d="M2669.1,-369.75C2663.55,-297.4 2647.46,-87.73 2643.1,-30.87"/>
<polygon fill="midnightblue" stroke="midnightblue" points="2665.64,-370.44 2669.9,-380.14 2672.62,-369.91 2665.64,-370.44"/>
</g>
<!-- Node63&#45;&gt;Node9 -->
<g id="edge40" class="edge">
<title>Node63&#45;&gt;Node9</title>
<path fill="none" stroke="midnightblue" d="M2515.59,-180.29C2515.43,-170.86 2515.26,-160.65 2515.15,-153.66"/>
<polygon fill="midnightblue" stroke="midnightblue" points="2512.1,-180.46 2515.76,-190.4 2519.09,-180.34 2512.1,-180.46"/>
</g>
<!-- Node77 -->
<g id="node29" class="node">
<title>Node77</title>
<g id="a_node29"><a xlink:href="m__Do__machine_8cpp.html" target="_top" xlink:title=" ">
<polygon fill="white" stroke="black" points="1711.5,-257.5 1711.5,-276.5 1858.5,-276.5 1858.5,-257.5 1711.5,-257.5"/>
<text text-anchor="middle" x="1785" y="-264.5" font-family="Helvetica,sans-Serif" font-size="10.00">src/m_Do/m_Do_machine.cpp</text>
</a>
</g>
</g>
<!-- Node76&#45;&gt;Node77 -->
<g id="edge42" class="edge">
<title>Node76&#45;&gt;Node77</title>
<path fill="none" stroke="midnightblue" d="M1348.17,-460.53C1445.32,-457.81 1612.79,-447.76 1660,-411 1696.99,-382.2 1667.61,-347.82 1699,-313 1714.8,-295.48 1739.04,-283.66 1757.76,-276.55"/>
<polygon fill="midnightblue" stroke="midnightblue" points="1348.04,-457.03 1338.13,-460.79 1348.22,-464.03 1348.04,-457.03"/>
</g>
<!-- Node78 -->
<g id="node30" class="node">
<title>Node78</title>
<g id="a_node30"><a xlink:href="JKRAram_8cpp.html" target="_top" xlink:title=" ">
<polygon fill="white" stroke="black" points="778.5,-380.5 778.5,-410.5 887.5,-410.5 887.5,-380.5 778.5,-380.5"/>
<text text-anchor="start" x="786.5" y="-398.5" font-family="Helvetica,sans-Serif" font-size="10.00">libs/JSystem/JKernel</text>
<text text-anchor="middle" x="833" y="-387.5" font-family="Helvetica,sans-Serif" font-size="10.00">/JKRAram.cpp</text>
</a>
</g>
</g>
<!-- Node76&#45;&gt;Node78 -->
<g id="edge43" class="edge">
<title>Node76&#45;&gt;Node78</title>
<path fill="none" stroke="midnightblue" d="M1205.64,-454.08C1128.86,-445.62 1003.29,-430.41 896,-411 893.24,-410.5 890.42,-409.96 887.57,-409.39"/>
<polygon fill="midnightblue" stroke="midnightblue" points="1205.36,-457.57 1215.69,-455.18 1206.12,-450.61 1205.36,-457.57"/>
</g>
<!-- Node79 -->
<g id="node31" class="node">
<title>Node79</title>
<g id="a_node31"><a xlink:href="JKRAramPiece_8cpp.html" target="_top" xlink:title=" ">
<polygon fill="white" stroke="black" points="905.5,-380.5 905.5,-410.5 1014.5,-410.5 1014.5,-380.5 905.5,-380.5"/>
<text text-anchor="start" x="913.5" y="-398.5" font-family="Helvetica,sans-Serif" font-size="10.00">libs/JSystem/JKernel</text>
<text text-anchor="middle" x="960" y="-387.5" font-family="Helvetica,sans-Serif" font-size="10.00">/JKRAramPiece.cpp</text>
</a>
</g>
</g>
<!-- Node76&#45;&gt;Node79 -->
<g id="edge44" class="edge">
<title>Node76&#45;&gt;Node79</title>
<path fill="none" stroke="midnightblue" d="M1205.89,-447.95C1154.9,-438.09 1084.61,-424.21 1023,-411 1020.26,-410.41 1017.45,-409.8 1014.61,-409.18"/>
<polygon fill="midnightblue" stroke="midnightblue" points="1205.34,-451.41 1215.82,-449.87 1206.66,-444.54 1205.34,-451.41"/>
</g>
<!-- Node80 -->
<g id="node32" class="node">
<title>Node80</title>
<g id="a_node32"><a xlink:href="JKRDvdArchive_8cpp.html" target="_top" xlink:title=" ">
<polygon fill="white" stroke="black" points="1032.5,-380.5 1032.5,-410.5 1141.5,-410.5 1141.5,-380.5 1032.5,-380.5"/>
<text text-anchor="start" x="1040.5" y="-398.5" font-family="Helvetica,sans-Serif" font-size="10.00">libs/JSystem/JKernel</text>
<text text-anchor="middle" x="1087" y="-387.5" font-family="Helvetica,sans-Serif" font-size="10.00">/JKRDvdArchive.cpp</text>
</a>
</g>
</g>
<!-- Node76&#45;&gt;Node80 -->
<g id="edge45" class="edge">
<title>Node76&#45;&gt;Node80</title>
<path fill="none" stroke="midnightblue" d="M1226.11,-444.09C1195.44,-433.6 1156.89,-420.41 1128.15,-410.58"/>
<polygon fill="midnightblue" stroke="midnightblue" points="1225.18,-447.47 1235.77,-447.4 1227.44,-440.85 1225.18,-447.47"/>
</g>
<!-- Node81 -->
<g id="node33" class="node">
<title>Node81</title>
<g id="a_node33"><a xlink:href="JKRDvdFile_8cpp.html" target="_top" xlink:title=" ">
<polygon fill="white" stroke="black" points="1159.5,-380.5 1159.5,-410.5 1268.5,-410.5 1268.5,-380.5 1159.5,-380.5"/>
<text text-anchor="start" x="1167.5" y="-398.5" font-family="Helvetica,sans-Serif" font-size="10.00">libs/JSystem/JKernel</text>
<text text-anchor="middle" x="1214" y="-387.5" font-family="Helvetica,sans-Serif" font-size="10.00">/JKRDvdFile.cpp</text>
</a>
</g>
</g>
<!-- Node76&#45;&gt;Node81 -->
<g id="edge46" class="edge">
<title>Node76&#45;&gt;Node81</title>
<path fill="none" stroke="midnightblue" d="M1256.19,-440.02C1246.8,-430.34 1235.98,-419.17 1227.64,-410.58"/>
<polygon fill="midnightblue" stroke="midnightblue" points="1253.86,-442.65 1263.33,-447.4 1258.88,-437.78 1253.86,-442.65"/>
</g>
<!-- Node82 -->
<g id="node34" class="node">
<title>Node82</title>
<g id="a_node34"><a xlink:href="JKRExpHeap_8cpp.html" target="_top" xlink:title=" ">
<polygon fill="white" stroke="black" points="1286.5,-380.5 1286.5,-410.5 1395.5,-410.5 1395.5,-380.5 1286.5,-380.5"/>
<text text-anchor="start" x="1294.5" y="-398.5" font-family="Helvetica,sans-Serif" font-size="10.00">libs/JSystem/JKernel</text>
<text text-anchor="middle" x="1341" y="-387.5" font-family="Helvetica,sans-Serif" font-size="10.00">/JKRExpHeap.cpp</text>
</a>
</g>
</g>
<!-- Node76&#45;&gt;Node82 -->
<g id="edge47" class="edge">
<title>Node76&#45;&gt;Node82</title>
<path fill="none" stroke="midnightblue" d="M1298.15,-440.02C1307.68,-430.34 1318.67,-419.17 1327.14,-410.58"/>
<polygon fill="midnightblue" stroke="midnightblue" points="1295.41,-437.81 1290.89,-447.4 1300.4,-442.73 1295.41,-437.81"/>
</g>
<!-- Node83 -->
<g id="node35" class="node">
<title>Node83</title>
<g id="a_node35"><a xlink:href="JKRHeap_8cpp.html" target="_top" xlink:title=" ">
<polygon fill="white" stroke="black" points="1413.5,-380.5 1413.5,-410.5 1522.5,-410.5 1522.5,-380.5 1413.5,-380.5"/>
<text text-anchor="start" x="1421.5" y="-398.5" font-family="Helvetica,sans-Serif" font-size="10.00">libs/JSystem/JKernel</text>
<text text-anchor="middle" x="1468" y="-387.5" font-family="Helvetica,sans-Serif" font-size="10.00">/JKRHeap.cpp</text>
</a>
</g>
</g>
<!-- Node76&#45;&gt;Node83 -->
<g id="edge48" class="edge">
<title>Node76&#45;&gt;Node83</title>
<path fill="none" stroke="midnightblue" d="M1328.15,-444.09C1358.99,-433.6 1397.75,-420.41 1426.64,-410.58"/>
<polygon fill="midnightblue" stroke="midnightblue" points="1326.78,-440.86 1318.44,-447.4 1329.04,-447.49 1326.78,-440.86"/>
</g>
<!-- Node84 -->
<g id="node36" class="node">
<title>Node84</title>
<g id="a_node36"><a xlink:href="JKRMemArchive_8cpp.html" target="_top" xlink:title=" ">
<polygon fill="white" stroke="black" points="1540.5,-380.5 1540.5,-410.5 1651.5,-410.5 1651.5,-380.5 1540.5,-380.5"/>
<text text-anchor="start" x="1548.5" y="-398.5" font-family="Helvetica,sans-Serif" font-size="10.00">libs/JSystem/JKernel</text>
<text text-anchor="middle" x="1596" y="-387.5" font-family="Helvetica,sans-Serif" font-size="10.00">/JKRMemArchive.cpp</text>
</a>
</g>
</g>
<!-- Node76&#45;&gt;Node84 -->
<g id="edge49" class="edge">
<title>Node76&#45;&gt;Node84</title>
<path fill="none" stroke="midnightblue" d="M1348.09,-447.83C1399.06,-437.91 1469.34,-424 1531,-411 1534.05,-410.36 1537.19,-409.69 1540.35,-409"/>
<polygon fill="midnightblue" stroke="midnightblue" points="1347.3,-444.41 1338.16,-449.75 1348.64,-451.28 1347.3,-444.41"/>
</g>
<!-- Node85 -->
<g id="node37" class="node">
<title>Node85</title>
<g id="a_node37"><a xlink:href="JUTException_8cpp.html" target="_top" xlink:title=" ">
<polygon fill="white" stroke="black" points="654,-380.5 654,-410.5 760,-410.5 760,-380.5 654,-380.5"/>
<text text-anchor="start" x="662" y="-398.5" font-family="Helvetica,sans-Serif" font-size="10.00">libs/JSystem/JUtility</text>
<text text-anchor="middle" x="707" y="-387.5" font-family="Helvetica,sans-Serif" font-size="10.00">/JUTException.cpp</text>
</a>
</g>
</g>
<!-- Node76&#45;&gt;Node85 -->
<g id="edge50" class="edge">
<title>Node76&#45;&gt;Node85</title>
<path fill="none" stroke="midnightblue" d="M1205.51,-457.35C1106.83,-450.95 923.54,-436.64 769,-411 766.06,-410.51 763.04,-409.96 760.01,-409.38"/>
<polygon fill="midnightblue" stroke="midnightblue" points="1205.46,-460.85 1215.67,-458 1205.91,-453.87 1205.46,-460.85"/>
</g>
<!-- Node87 -->
<g id="node39" class="node">
<title>Node87</title>
<g id="a_node39"><a xlink:href="JUTFont_8cpp.html" target="_top" xlink:title=" ">
<polygon fill="white" stroke="black" points="1848,-380.5 1848,-410.5 1954,-410.5 1954,-380.5 1848,-380.5"/>
<text text-anchor="start" x="1856" y="-398.5" font-family="Helvetica,sans-Serif" font-size="10.00">libs/JSystem/JUtility</text>
<text text-anchor="middle" x="1901" y="-387.5" font-family="Helvetica,sans-Serif" font-size="10.00">/JUTFont.cpp</text>
</a>
</g>
</g>
<!-- Node86&#45;&gt;Node87 -->
<g id="edge52" class="edge">
<title>Node86&#45;&gt;Node87</title>
<path fill="none" stroke="midnightblue" d="M1927.72,-438.87C1921.79,-429.46 1915.09,-418.83 1909.88,-410.58"/>
<polygon fill="midnightblue" stroke="midnightblue" points="1924.81,-440.81 1933.1,-447.4 1930.73,-437.07 1924.81,-440.81"/>
</g>
<!-- Node88 -->
<g id="node40" class="node">
<title>Node88</title>
<g id="a_node40"><a xlink:href="J2DPane_8h.html" target="_top" xlink:title=" ">
<polygon fill="white" stroke="red" points="2041.5,-313.5 2041.5,-343.5 2176.5,-343.5 2176.5,-313.5 2041.5,-313.5"/>
<text text-anchor="start" x="2049.5" y="-331.5" font-family="Helvetica,sans-Serif" font-size="10.00">include/JSystem/J2DGraph</text>
<text text-anchor="middle" x="2109" y="-320.5" font-family="Helvetica,sans-Serif" font-size="10.00">/J2DPane.h</text>
</a>
</g>
</g>
<!-- Node86&#45;&gt;Node88 -->
<g id="edge53" class="edge">
<title>Node86&#45;&gt;Node88</title>
<path fill="none" stroke="midnightblue" d="M1965.91,-440.56C1985.3,-423.79 2013.49,-399.87 2039,-380 2055.31,-367.29 2074.38,-353.61 2088.49,-343.7"/>
<polygon fill="midnightblue" stroke="midnightblue" points="1963.43,-438.08 1958.17,-447.28 1968.02,-443.37 1963.43,-438.08"/>
</g>
<!-- Node105 -->
<g id="node41" class="node">
<title>Node105</title>
<g id="a_node41"><a xlink:href="JUTConsole_8h.html" target="_top" xlink:title=" ">
<polygon fill="white" stroke="red" points="1708,-380.5 1708,-410.5 1830,-410.5 1830,-380.5 1708,-380.5"/>
<text text-anchor="start" x="1716" y="-398.5" font-family="Helvetica,sans-Serif" font-size="10.00">include/JSystem/JUtility</text>
<text text-anchor="middle" x="1769" y="-387.5" font-family="Helvetica,sans-Serif" font-size="10.00">/JUTConsole.h</text>
</a>
</g>
</g>
<!-- Node86&#45;&gt;Node105 -->
<g id="edge54" class="edge">
<title>Node86&#45;&gt;Node105</title>
<path fill="none" stroke="midnightblue" d="M1894.94,-443.82C1867.13,-433.37 1832.41,-420.32 1806.47,-410.58"/>
<polygon fill="midnightblue" stroke="midnightblue" points="1893.87,-447.16 1904.46,-447.4 1896.33,-440.6 1893.87,-447.16"/>
</g>
<!-- Node110 -->
<g id="node43" class="node">
<title>Node110</title>
<g id="a_node43"><a xlink:href="JUTDbPrint_8h.html" target="_top" xlink:title=" ">
<polygon fill="white" stroke="red" points="1891,-313.5 1891,-343.5 2013,-343.5 2013,-313.5 1891,-313.5"/>
<text text-anchor="start" x="1899" y="-331.5" font-family="Helvetica,sans-Serif" font-size="10.00">include/JSystem/JUtility</text>
<text text-anchor="middle" x="1952" y="-320.5" font-family="Helvetica,sans-Serif" font-size="10.00">/JUTDbPrint.h</text>
</a>
</g>
</g>
<!-- Node86&#45;&gt;Node110 -->
<g id="edge57" class="edge">
<title>Node86&#45;&gt;Node110</title>
<path fill="none" stroke="midnightblue" d="M1953.91,-438.26C1957.59,-429.9 1961.16,-420.24 1963,-411 1967.67,-387.62 1961.56,-360.06 1956.76,-343.72"/>
<polygon fill="midnightblue" stroke="midnightblue" points="1950.71,-436.85 1949.64,-447.39 1957.05,-439.82 1950.71,-436.85"/>
</g>
<!-- Node112 -->
<g id="node44" class="node">
<title>Node112</title>
<g id="a_node44"><a xlink:href="JUTResFont_8h.html" target="_top" xlink:title=" ">
<polygon fill="white" stroke="red" points="2048,-380.5 2048,-410.5 2170,-410.5 2170,-380.5 2048,-380.5"/>
<text text-anchor="start" x="2056" y="-398.5" font-family="Helvetica,sans-Serif" font-size="10.00">include/JSystem/JUtility</text>
<text text-anchor="middle" x="2109" y="-387.5" font-family="Helvetica,sans-Serif" font-size="10.00">/JUTResFont.h</text>
</a>
</g>
</g>
<!-- Node86&#45;&gt;Node112 -->
<g id="edge59" class="edge">
<title>Node86&#45;&gt;Node112</title>
<path fill="none" stroke="midnightblue" d="M1987.78,-443.68C2014.56,-433.26 2047.9,-420.28 2072.83,-410.58"/>
<polygon fill="midnightblue" stroke="midnightblue" points="1986.29,-440.51 1978.24,-447.4 1988.83,-447.03 1986.29,-440.51"/>
</g>
<!-- Node109 -->
<g id="node42" class="node">
<title>Node109</title>
<g id="a_node42"><a xlink:href="m__Do__machine_8h.html" target="_top" xlink:title=" ">
<polygon fill="white" stroke="black" points="1708,-319 1708,-338 1862,-338 1862,-319 1708,-319"/>
<text text-anchor="middle" x="1785" y="-326" font-family="Helvetica,sans-Serif" font-size="10.00">include/m_Do/m_Do_machine.h</text>
</a>
</g>
</g>
<!-- Node105&#45;&gt;Node109 -->
<g id="edge55" class="edge">
<title>Node105&#45;&gt;Node109</title>
<path fill="none" stroke="midnightblue" d="M1774.88,-370.6C1777.67,-359.28 1780.82,-346.46 1782.86,-338.19"/>
<polygon fill="midnightblue" stroke="midnightblue" points="1771.46,-369.85 1772.47,-380.4 1778.26,-371.52 1771.46,-369.85"/>
</g>
<!-- Node109&#45;&gt;Node77 -->
<g id="edge56" class="edge">
<title>Node109&#45;&gt;Node77</title>
<path fill="none" stroke="midnightblue" d="M1785,-308.82C1785,-298 1785,-284.9 1785,-276.51"/>
<polygon fill="midnightblue" stroke="midnightblue" points="1781.5,-308.98 1785,-318.98 1788.5,-308.98 1781.5,-308.98"/>
</g>
<!-- Node110&#45;&gt;Node77 -->
<g id="edge58" class="edge">
<title>Node110&#45;&gt;Node77</title>
<path fill="none" stroke="midnightblue" d="M1902.72,-309.94C1871.96,-298.98 1833.69,-285.35 1809.3,-276.66"/>
<polygon fill="midnightblue" stroke="midnightblue" points="1901.83,-313.34 1912.42,-313.4 1904.18,-306.75 1901.83,-313.34"/>
</g>
<!-- Node112&#45;&gt;Node88 -->
<g id="edge60" class="edge">
<title>Node112&#45;&gt;Node88</title>
<path fill="none" stroke="midnightblue" d="M2109,-370.11C2109,-361.15 2109,-351.32 2109,-343.58"/>
<polygon fill="midnightblue" stroke="midnightblue" points="2105.5,-370.4 2109,-380.4 2112.5,-370.4 2105.5,-370.4"/>
</g>
<!-- Node115 -->
<g id="node46" class="node">
<title>Node115</title>
<g id="a_node46"><a xlink:href="JUTPalette_8cpp.html" target="_top" xlink:title=" ">
<polygon fill="white" stroke="black" points="2328,-380.5 2328,-410.5 2434,-410.5 2434,-380.5 2328,-380.5"/>
<text text-anchor="start" x="2336" y="-398.5" font-family="Helvetica,sans-Serif" font-size="10.00">libs/JSystem/JUtility</text>
<text text-anchor="middle" x="2381" y="-387.5" font-family="Helvetica,sans-Serif" font-size="10.00">/JUTPalette.cpp</text>
</a>
</g>
</g>
<!-- Node114&#45;&gt;Node115 -->
<g id="edge62" class="edge">
<title>Node114&#45;&gt;Node115</title>
<path fill="none" stroke="midnightblue" d="M2286.87,-442.85C2307.74,-432.58 2333.23,-420.03 2352.41,-410.58"/>
<polygon fill="midnightblue" stroke="midnightblue" points="2285.07,-439.84 2277.64,-447.4 2288.16,-446.12 2285.07,-439.84"/>
</g>
<!-- Node116 -->
<g id="node47" class="node">
<title>Node116</title>
<g id="a_node47"><a xlink:href="JUTTexture_8h.html" target="_top" xlink:title=" ">
<polygon fill="white" stroke="red" points="2188,-380.5 2188,-410.5 2310,-410.5 2310,-380.5 2188,-380.5"/>
<text text-anchor="start" x="2196" y="-398.5" font-family="Helvetica,sans-Serif" font-size="10.00">include/JSystem/JUtility</text>
<text text-anchor="middle" x="2249" y="-387.5" font-family="Helvetica,sans-Serif" font-size="10.00">/JUTTexture.h</text>
</a>
</g>
</g>
<!-- Node114&#45;&gt;Node116 -->
<g id="edge63" class="edge">
<title>Node114&#45;&gt;Node116</title>
<path fill="none" stroke="midnightblue" d="M2249,-437.11C2249,-428.15 2249,-418.32 2249,-410.58"/>
<polygon fill="midnightblue" stroke="midnightblue" points="2245.5,-437.4 2249,-447.4 2252.5,-437.4 2245.5,-437.4"/>
</g>
<!-- Node116&#45;&gt;Node28 -->
<g id="edge64" class="edge">
<title>Node116&#45;&gt;Node28</title>
<path fill="none" stroke="midnightblue" d="M2249,-370.14C2249,-341.62 2249,-295.86 2249,-276.79"/>
<polygon fill="midnightblue" stroke="midnightblue" points="2245.5,-370.48 2249,-380.48 2252.5,-370.48 2245.5,-370.48"/>
</g>
<!-- Node116&#45;&gt;Node88 -->
<g id="edge65" class="edge">
<title>Node116&#45;&gt;Node88</title>
<path fill="none" stroke="midnightblue" d="M2209.43,-376.13C2187.19,-365.8 2159.85,-353.11 2139.32,-343.58"/>
<polygon fill="midnightblue" stroke="midnightblue" points="2208.08,-379.36 2218.62,-380.4 2211.03,-373.01 2208.08,-379.36"/>
</g>
<!-- Node121&#45;&gt;Node109 -->
<g id="edge70" class="edge">
<title>Node121&#45;&gt;Node109</title>
<path fill="none" stroke="midnightblue" d="M595.11,-438.08C604.83,-418.75 621.53,-392.53 645,-380 738.12,-330.3 1466.31,-328.35 1707.62,-329.09"/>
<polygon fill="midnightblue" stroke="midnightblue" points="591.91,-436.66 590.78,-447.19 598.23,-439.66 591.91,-436.66"/>
</g>
<!-- Node122 -->
<g id="node49" class="node">
<title>Node122</title>
<g id="a_node49"><a xlink:href="JUTVideo_8cpp.html" target="_top" xlink:title=" ">
<polygon fill="white" stroke="black" points="492,-380.5 492,-410.5 598,-410.5 598,-380.5 492,-380.5"/>
<text text-anchor="start" x="500" y="-398.5" font-family="Helvetica,sans-Serif" font-size="10.00">libs/JSystem/JUtility</text>
<text text-anchor="middle" x="545" y="-387.5" font-family="Helvetica,sans-Serif" font-size="10.00">/JUTVideo.cpp</text>
</a>
</g>
</g>
<!-- Node121&#45;&gt;Node122 -->
<g id="edge67" class="edge">
<title>Node121&#45;&gt;Node122</title>
<path fill="none" stroke="midnightblue" d="M571.07,-438.87C565.28,-429.46 558.74,-418.83 553.66,-410.58"/>
<polygon fill="midnightblue" stroke="midnightblue" points="568.1,-440.71 576.32,-447.4 574.06,-437.05 568.1,-440.71"/>
</g>
<!-- Node123 -->
<g id="node50" class="node">
<title>Node123</title>
<g id="a_node50"><a xlink:href="JUTXfb_8h.html" target="_top" xlink:title=" ">
<polygon fill="white" stroke="black" points="352,-380.5 352,-410.5 474,-410.5 474,-380.5 352,-380.5"/>
<text text-anchor="start" x="360" y="-398.5" font-family="Helvetica,sans-Serif" font-size="10.00">include/JSystem/JUtility</text>
<text text-anchor="middle" x="413" y="-387.5" font-family="Helvetica,sans-Serif" font-size="10.00">/JUTXfb.h</text>
</a>
</g>
</g>
<!-- Node121&#45;&gt;Node123 -->
<g id="edge68" class="edge">
<title>Node121&#45;&gt;Node123</title>
<path fill="none" stroke="midnightblue" d="M538.21,-443.82C510.57,-433.37 476.04,-420.32 450.25,-410.58"/>
<polygon fill="midnightblue" stroke="midnightblue" points="537.09,-447.13 547.68,-447.4 539.56,-440.59 537.09,-447.13"/>
</g>
<!-- Node123&#45;&gt;Node6 -->
<g id="edge69" class="edge">
<title>Node123&#45;&gt;Node6</title>
<path fill="none" stroke="midnightblue" d="M397.68,-371.87C391.31,-362.46 384.12,-351.83 378.53,-343.58"/>
<polygon fill="midnightblue" stroke="midnightblue" points="394.95,-374.08 403.45,-380.4 400.75,-370.15 394.95,-374.08"/>
</g>
</g>
</svg>
