<?xml version="1.0" encoding="UTF-8" standalone="no"?>
<!DOCTYPE svg PUBLIC "-//W3C//DTD SVG 1.1//EN"
 "http://www.w3.org/Graphics/SVG/1.1/DTD/svg11.dtd">
<!-- Generated by graphviz version 2.44.0 ()
 -->
<!-- Title: include/JSystem/J2DGraph/J2DAnimation.h Pages: 1 -->
<!--zoomable 642 -->
<svg id="main" version="1.1" xmlns="http://www.w3.org/2000/svg" xmlns:xlink="http://www.w3.org/1999/xlink" xml:space="preserve" onload="init(evt)">
<style type="text/css"><![CDATA[
.edge:hover path { stroke: red; }
.edge:hover polygon { stroke: red; fill: red; }
]]></style>
<script type="text/javascript"><![CDATA[
var edges = document.getElementsByTagName('g');
if (edges && edges.length) {
  for (var i=0;i<edges.length;i++) {
    if (edges[i].id.substr(0,4)=='edge') {
      edges[i].setAttribute('class','edge');
    }
  }
}
]]></script>
        <defs>
                <circle id="rim" cx="0" cy="0" r="7"/>
                <circle id="rim2" cx="0" cy="0" r="3.5"/>
                <g id="zoomPlus">
                        <use xlink:href="#rim" fill="#404040">
                                <set attributeName="fill" to="#808080" begin="zoomplus.mouseover" end="zoomplus.mouseout"/>
                        </use>
                        <path d="M-4,0h8M0,-4v8" fill="none" stroke="white" stroke-width="1.5" pointer-events="none"/>
                </g>
                <g id="zoomMin">
                        <use xlink:href="#rim" fill="#404040">
                                <set attributeName="fill" to="#808080" begin="zoomminus.mouseover" end="zoomminus.mouseout"/>
                        </use>
                        <path d="M-4,0h8" fill="none" stroke="white" stroke-width="1.5" pointer-events="none"/>
                </g>
                <g id="dirArrow">
                        <path fill="none" stroke="white" stroke-width="1.5" d="M0,-3.0v7 M-2.5,-0.5L0,-3.0L2.5,-0.5"/>
                </g>
               <g id="resetDef">
                       <use xlink:href="#rim2" fill="#404040">
                               <set attributeName="fill" to="#808080" begin="reset.mouseover" end="reset.mouseout"/>
                       </use>
               </g>
        </defs>

<script type="text/javascript">
var viewWidth = 1103;
var viewHeight = 642;
var sectionId = 'dynsection-1';
</script>
<script xlink:href="svgpan.js"/>
<svg id="graph" class="graph">
<g id="viewport">
<title>include/JSystem/J2DGraph/J2DAnimation.h</title>
<polygon fill="white" stroke="transparent" points="-4,4 -4,-638 1098.93,-638 1098.93,4 -4,4"/>
<!-- Node1 -->
<g id="node1" class="node">
<title>Node1</title>
<g id="a_node1"><a xlink:title=" ">
<polygon fill="#bfbfbf" stroke="black" points="496.93,-603.5 496.93,-633.5 631.93,-633.5 631.93,-603.5 496.93,-603.5"/>
<text text-anchor="start" x="504.93" y="-621.5" font-family="Helvetica,sans-Serif" font-size="10.00">include/JSystem/J2DGraph</text>
<text text-anchor="middle" x="564.43" y="-610.5" font-family="Helvetica,sans-Serif" font-size="10.00">/J2DAnimation.h</text>
</a>
</g>
</g>
<!-- Node2 -->
<g id="node2" class="node">
<title>Node2</title>
<g id="a_node2"><a xlink:href="J2DAnimation_8cpp.html" target="_top" xlink:title=" ">
<polygon fill="white" stroke="black" points="359.93,-536.5 359.93,-566.5 478.93,-566.5 478.93,-536.5 359.93,-536.5"/>
<text text-anchor="start" x="367.93" y="-554.5" font-family="Helvetica,sans-Serif" font-size="10.00">libs/JSystem/J2DGraph</text>
<text text-anchor="middle" x="419.43" y="-543.5" font-family="Helvetica,sans-Serif" font-size="10.00">/J2DAnimation.cpp</text>
</a>
</g>
</g>
<!-- Node1&#45;&gt;Node2 -->
<g id="edge1" class="edge">
<title>Node1&#45;&gt;Node2</title>
<path fill="none" stroke="midnightblue" d="M523.76,-599.27C500.67,-588.92 472.2,-576.15 450.83,-566.58"/>
<polygon fill="midnightblue" stroke="midnightblue" points="522.41,-602.5 532.97,-603.4 525.28,-596.11 522.41,-602.5"/>
</g>
<!-- Node3 -->
<g id="node3" class="node">
<title>Node3</title>
<g id="a_node3"><a xlink:href="J2DMaterial_8h.html" target="_top" xlink:title=" ">
<polygon fill="white" stroke="black" points="496.93,-536.5 496.93,-566.5 631.93,-566.5 631.93,-536.5 496.93,-536.5"/>
<text text-anchor="start" x="504.93" y="-554.5" font-family="Helvetica,sans-Serif" font-size="10.00">include/JSystem/J2DGraph</text>
<text text-anchor="middle" x="564.43" y="-543.5" font-family="Helvetica,sans-Serif" font-size="10.00">/J2DMaterial.h</text>
</a>
</g>
</g>
<!-- Node1&#45;&gt;Node3 -->
<g id="edge2" class="edge">
<title>Node1&#45;&gt;Node3</title>
<path fill="none" stroke="midnightblue" d="M564.43,-593.11C564.43,-584.15 564.43,-574.32 564.43,-566.58"/>
<polygon fill="midnightblue" stroke="midnightblue" points="560.93,-593.4 564.43,-603.4 567.93,-593.4 560.93,-593.4"/>
</g>
<!-- Node29 -->
<g id="node29" class="node">
<title>Node29</title>
<g id="a_node29"><a xlink:href="J2DPane_8h.html" target="_top" xlink:title=" ">
<polygon fill="white" stroke="black" points="697.93,-536.5 697.93,-566.5 832.93,-566.5 832.93,-536.5 697.93,-536.5"/>
<text text-anchor="start" x="705.93" y="-554.5" font-family="Helvetica,sans-Serif" font-size="10.00">include/JSystem/J2DGraph</text>
<text text-anchor="middle" x="765.43" y="-543.5" font-family="Helvetica,sans-Serif" font-size="10.00">/J2DPane.h</text>
</a>
</g>
</g>
<!-- Node1&#45;&gt;Node29 -->
<g id="edge35" class="edge">
<title>Node1&#45;&gt;Node29</title>
<path fill="none" stroke="midnightblue" d="M617.84,-600.23C650.36,-589.71 691.37,-576.45 721.9,-566.58"/>
<polygon fill="midnightblue" stroke="midnightblue" points="616.48,-596.99 608.05,-603.4 618.64,-603.65 616.48,-596.99"/>
</g>
<!-- Node4 -->
<g id="node4" class="node">
<title>Node4</title>
<g id="a_node4"><a xlink:href="J2DMaterial_8cpp.html" target="_top" xlink:title=" ">
<polygon fill="white" stroke="black" points="335.93,-469.5 335.93,-499.5 454.93,-499.5 454.93,-469.5 335.93,-469.5"/>
<text text-anchor="start" x="343.93" y="-487.5" font-family="Helvetica,sans-Serif" font-size="10.00">libs/JSystem/J2DGraph</text>
<text text-anchor="middle" x="395.43" y="-476.5" font-family="Helvetica,sans-Serif" font-size="10.00">/J2DMaterial.cpp</text>
</a>
</g>
</g>
<!-- Node3&#45;&gt;Node4 -->
<g id="edge3" class="edge">
<title>Node3&#45;&gt;Node4</title>
<path fill="none" stroke="midnightblue" d="M518.1,-532.68C491,-522.26 457.26,-509.28 432.03,-499.58"/>
<polygon fill="midnightblue" stroke="midnightblue" points="517.17,-536.07 527.76,-536.4 519.69,-529.54 517.17,-536.07"/>
</g>
<!-- Node5 -->
<g id="node5" class="node">
<title>Node5</title>
<g id="a_node5"><a xlink:href="J2DScreen_8h.html" target="_top" xlink:title=" ">
<polygon fill="white" stroke="black" points="625.93,-469.5 625.93,-499.5 760.93,-499.5 760.93,-469.5 625.93,-469.5"/>
<text text-anchor="start" x="633.93" y="-487.5" font-family="Helvetica,sans-Serif" font-size="10.00">include/JSystem/J2DGraph</text>
<text text-anchor="middle" x="693.43" y="-476.5" font-family="Helvetica,sans-Serif" font-size="10.00">/J2DScreen.h</text>
</a>
</g>
</g>
<!-- Node3&#45;&gt;Node5 -->
<g id="edge4" class="edge">
<title>Node3&#45;&gt;Node5</title>
<path fill="none" stroke="midnightblue" d="M601.44,-531.85C621.84,-521.58 646.74,-509.03 665.5,-499.58"/>
<polygon fill="midnightblue" stroke="midnightblue" points="599.78,-528.77 592.42,-536.4 602.93,-535.02 599.78,-528.77"/>
</g>
<!-- Node27 -->
<g id="node27" class="node">
<title>Node27</title>
<g id="a_node27"><a xlink:href="J2DTextBox_8h.html" target="_top" xlink:title=" ">
<polygon fill="white" stroke="black" points="472.93,-469.5 472.93,-499.5 607.93,-499.5 607.93,-469.5 472.93,-469.5"/>
<text text-anchor="start" x="480.93" y="-487.5" font-family="Helvetica,sans-Serif" font-size="10.00">include/JSystem/J2DGraph</text>
<text text-anchor="middle" x="540.43" y="-476.5" font-family="Helvetica,sans-Serif" font-size="10.00">/J2DTextBox.h</text>
</a>
</g>
</g>
<!-- Node3&#45;&gt;Node27 -->
<g id="edge33" class="edge">
<title>Node3&#45;&gt;Node27</title>
<path fill="none" stroke="midnightblue" d="M555.75,-526.99C552.36,-517.8 548.58,-507.58 545.63,-499.58"/>
<polygon fill="midnightblue" stroke="midnightblue" points="552.48,-528.23 559.23,-536.4 559.04,-525.8 552.48,-528.23"/>
</g>
<!-- Node6 -->
<g id="node6" class="node">
<title>Node6</title>
<g id="a_node6"><a xlink:href="d__drawlist_8cpp.html" target="_top" xlink:title=" ">
<polygon fill="white" stroke="black" points="704.43,-408 704.43,-427 808.43,-427 808.43,-408 704.43,-408"/>
<text text-anchor="middle" x="756.43" y="-415" font-family="Helvetica,sans-Serif" font-size="10.00">src/d/d_drawlist.cpp</text>
</a>
</g>
</g>
<!-- Node5&#45;&gt;Node6 -->
<g id="edge5" class="edge">
<title>Node5&#45;&gt;Node6</title>
<path fill="none" stroke="midnightblue" d="M714.27,-462C725.77,-450.13 739.42,-436.05 748.01,-427.19"/>
<polygon fill="midnightblue" stroke="midnightblue" points="711.55,-459.78 707.1,-469.4 716.58,-464.65 711.55,-459.78"/>
</g>
<!-- Node7 -->
<g id="node7" class="node">
<title>Node7</title>
<g id="a_node7"><a xlink:href="J2DScreen_8cpp.html" target="_top" xlink:title=" ">
<polygon fill="white" stroke="black" points="434.93,-402.5 434.93,-432.5 553.93,-432.5 553.93,-402.5 434.93,-402.5"/>
<text text-anchor="start" x="442.93" y="-420.5" font-family="Helvetica,sans-Serif" font-size="10.00">libs/JSystem/J2DGraph</text>
<text text-anchor="middle" x="494.43" y="-409.5" font-family="Helvetica,sans-Serif" font-size="10.00">/J2DScreen.cpp</text>
</a>
</g>
</g>
<!-- Node5&#45;&gt;Node7 -->
<g id="edge6" class="edge">
<title>Node5&#45;&gt;Node7</title>
<path fill="none" stroke="midnightblue" d="M640.55,-466.23C608.36,-455.71 567.76,-442.45 537.53,-432.58"/>
<polygon fill="midnightblue" stroke="midnightblue" points="639.66,-469.62 650.25,-469.4 641.83,-462.96 639.66,-469.62"/>
</g>
<!-- Node8 -->
<g id="node8" class="node">
<title>Node8</title>
<g id="a_node8"><a xlink:href="d__pane__class__alpha_8h.html" target="_top" xlink:title=" ">
<polygon fill="white" stroke="black" points="572.43,-402.5 572.43,-432.5 686.43,-432.5 686.43,-402.5 572.43,-402.5"/>
<text text-anchor="start" x="580.43" y="-420.5" font-family="Helvetica,sans-Serif" font-size="10.00">include/d/pane/d_pane</text>
<text text-anchor="middle" x="629.43" y="-409.5" font-family="Helvetica,sans-Serif" font-size="10.00">_class_alpha.h</text>
</a>
</g>
</g>
<!-- Node5&#45;&gt;Node8 -->
<g id="edge7" class="edge">
<title>Node5&#45;&gt;Node8</title>
<path fill="none" stroke="midnightblue" d="M672.29,-462.02C662.75,-452.34 651.76,-441.17 643.29,-432.58"/>
<polygon fill="midnightblue" stroke="midnightblue" points="670.04,-464.73 679.55,-469.4 675.02,-459.81 670.04,-464.73"/>
</g>
<!-- Node25 -->
<g id="node25" class="node">
<title>Node25</title>
<g id="a_node25"><a xlink:href="J2DPicture_8h.html" target="_top" xlink:title=" ">
<polygon fill="white" stroke="black" points="826.93,-402.5 826.93,-432.5 961.93,-432.5 961.93,-402.5 826.93,-402.5"/>
<text text-anchor="start" x="834.93" y="-420.5" font-family="Helvetica,sans-Serif" font-size="10.00">include/JSystem/J2DGraph</text>
<text text-anchor="middle" x="894.43" y="-409.5" font-family="Helvetica,sans-Serif" font-size="10.00">/J2DPicture.h</text>
</a>
</g>
</g>
<!-- Node5&#45;&gt;Node25 -->
<g id="edge31" class="edge">
<title>Node5&#45;&gt;Node25</title>
<path fill="none" stroke="midnightblue" d="M746.84,-466.23C779.36,-455.71 820.37,-442.45 850.9,-432.58"/>
<polygon fill="midnightblue" stroke="midnightblue" points="745.48,-462.99 737.05,-469.4 747.64,-469.65 745.48,-462.99"/>
</g>
<!-- Node9 -->
<g id="node9" class="node">
<title>Node9</title>
<g id="a_node9"><a xlink:href="d__pane__class__alpha_8cpp.html" target="_top" xlink:title=" ">
<polygon fill="white" stroke="black" points="493.93,-335.5 493.93,-365.5 618.93,-365.5 618.93,-335.5 493.93,-335.5"/>
<text text-anchor="start" x="501.93" y="-353.5" font-family="Helvetica,sans-Serif" font-size="10.00">src/d/pane/d_pane_class</text>
<text text-anchor="middle" x="556.43" y="-342.5" font-family="Helvetica,sans-Serif" font-size="10.00">_alpha.cpp</text>
</a>
</g>
</g>
<!-- Node8&#45;&gt;Node9 -->
<g id="edge8" class="edge">
<title>Node8&#45;&gt;Node9</title>
<path fill="none" stroke="midnightblue" d="M605.96,-395.6C594.94,-385.78 582.09,-374.34 572.24,-365.58"/>
<polygon fill="midnightblue" stroke="midnightblue" points="603.8,-398.36 613.59,-402.4 608.45,-393.13 603.8,-398.36"/>
</g>
<!-- Node10 -->
<g id="node10" class="node">
<title>Node10</title>
<g id="a_node10"><a xlink:href="d__pane__class_8h.html" target="_top" xlink:title=" ">
<polygon fill="white" stroke="black" points="637.43,-335.5 637.43,-365.5 751.43,-365.5 751.43,-335.5 637.43,-335.5"/>
<text text-anchor="start" x="645.43" y="-353.5" font-family="Helvetica,sans-Serif" font-size="10.00">include/d/pane/d_pane</text>
<text text-anchor="middle" x="694.43" y="-342.5" font-family="Helvetica,sans-Serif" font-size="10.00">_class.h</text>
</a>
</g>
</g>
<!-- Node8&#45;&gt;Node10 -->
<g id="edge9" class="edge">
<title>Node8&#45;&gt;Node10</title>
<path fill="none" stroke="midnightblue" d="M650.62,-395.31C660.37,-385.56 671.67,-374.26 680.36,-365.58"/>
<polygon fill="midnightblue" stroke="midnightblue" points="648.13,-392.85 643.54,-402.4 653.08,-397.8 648.13,-392.85"/>
</g>
<!-- Node11 -->
<g id="node11" class="node">
<title>Node11</title>
<g id="a_node11"><a xlink:href="d__pane__class_8cpp.html" target="_top" xlink:title=" ">
<polygon fill="white" stroke="black" points="545.93,-274 545.93,-293 688.93,-293 688.93,-274 545.93,-274"/>
<text text-anchor="middle" x="617.43" y="-281" font-family="Helvetica,sans-Serif" font-size="10.00">src/d/pane/d_pane_class.cpp</text>
</a>
</g>
</g>
<!-- Node10&#45;&gt;Node11 -->
<g id="edge10" class="edge">
<title>Node10&#45;&gt;Node11</title>
<path fill="none" stroke="midnightblue" d="M669.76,-328.67C655.54,-316.67 638.42,-302.22 627.73,-293.19"/>
<polygon fill="midnightblue" stroke="midnightblue" points="667.83,-331.62 677.72,-335.4 672.34,-326.27 667.83,-331.62"/>
</g>
<!-- Node12 -->
<g id="node12" class="node">
<title>Node12</title>
<g id="a_node12"><a xlink:href="d__meter2__info_8h.html" target="_top" xlink:title=" ">
<polygon fill="white" stroke="black" points="706.93,-268.5 706.93,-298.5 833.93,-298.5 833.93,-268.5 706.93,-268.5"/>
<text text-anchor="start" x="714.93" y="-286.5" font-family="Helvetica,sans-Serif" font-size="10.00">include/d/meter/d_meter2</text>
<text text-anchor="middle" x="770.43" y="-275.5" font-family="Helvetica,sans-Serif" font-size="10.00">_info.h</text>
</a>
</g>
</g>
<!-- Node10&#45;&gt;Node12 -->
<g id="edge11" class="edge">
<title>Node10&#45;&gt;Node12</title>
<path fill="none" stroke="midnightblue" d="M718.54,-328.88C730.09,-319.01 743.62,-307.43 753.97,-298.58"/>
<polygon fill="midnightblue" stroke="midnightblue" points="716.25,-326.24 710.92,-335.4 720.8,-331.56 716.25,-326.24"/>
</g>
<!-- Node13 -->
<g id="node13" class="node">
<title>Node13</title>
<g id="a_node13"><a xlink:href="d__com__inf__game_8cpp.html" target="_top" xlink:title=" ">
<polygon fill="white" stroke="black" points="517.43,-0.5 517.43,-30.5 625.43,-30.5 625.43,-0.5 517.43,-0.5"/>
<text text-anchor="start" x="525.43" y="-18.5" font-family="Helvetica,sans-Serif" font-size="10.00">src/d/com/d_com_inf</text>
<text text-anchor="middle" x="571.43" y="-7.5" font-family="Helvetica,sans-Serif" font-size="10.00">_game.cpp</text>
</a>
</g>
</g>
<!-- Node12&#45;&gt;Node13 -->
<g id="edge12" class="edge">
<title>Node12&#45;&gt;Node13</title>
<path fill="none" stroke="midnightblue" d="M696.56,-267.86C380.72,-224.8 178.49,-359.82 6.43,-98 -1.13,-86.49 -2.87,-77.17 6.43,-67 40.5,-29.76 382.31,-19.78 517.15,-17.28"/>
<polygon fill="midnightblue" stroke="midnightblue" points="696.5,-271.39 706.89,-269.33 697.48,-264.46 696.5,-271.39"/>
</g>
<!-- Node14 -->
<g id="node14" class="node">
<title>Node14</title>
<g id="a_node14"><a xlink:href="d__item_8cpp.html" target="_top" xlink:title=" ">
<polygon fill="white" stroke="black" points="727.93,-6 727.93,-25 816.93,-25 816.93,-6 727.93,-6"/>
<text text-anchor="middle" x="772.43" y="-13" font-family="Helvetica,sans-Serif" font-size="10.00">src/d/d_item.cpp</text>
</a>
</g>
</g>
<!-- Node12&#45;&gt;Node14 -->
<g id="edge13" class="edge">
<title>Node12&#45;&gt;Node14</title>
<path fill="none" stroke="midnightblue" d="M782.02,-258.94C798.22,-224.57 826.84,-158.18 837.43,-98 839.82,-84.43 843.49,-79.38 837.43,-67 827.88,-47.49 806.76,-33.34 791.17,-25.07"/>
<polygon fill="midnightblue" stroke="midnightblue" points="778.77,-257.62 777.61,-268.15 785.09,-260.64 778.77,-257.62"/>
</g>
<!-- Node15 -->
<g id="node15" class="node">
<title>Node15</title>
<g id="a_node15"><a xlink:href="d__meter2__info_8cpp.html" target="_top" xlink:title=" ">
<polygon fill="white" stroke="black" points="15.43,-67.5 15.43,-97.5 125.43,-97.5 125.43,-67.5 15.43,-67.5"/>
<text text-anchor="start" x="23.43" y="-85.5" font-family="Helvetica,sans-Serif" font-size="10.00">src/d/meter/d_meter2</text>
<text text-anchor="middle" x="70.43" y="-74.5" font-family="Helvetica,sans-Serif" font-size="10.00">_info.cpp</text>
</a>
</g>
</g>
<!-- Node12&#45;&gt;Node15 -->
<g id="edge14" class="edge">
<title>Node12&#45;&gt;Node15</title>
<path fill="none" stroke="midnightblue" d="M696.69,-267.82C568.77,-248.14 531.07,-265.45 409.43,-232 286.77,-198.26 151.06,-127.88 95.86,-97.72"/>
<polygon fill="midnightblue" stroke="midnightblue" points="696.45,-271.32 706.88,-269.43 697.55,-264.41 696.45,-271.32"/>
</g>
<!-- Node16 -->
<g id="node16" class="node">
<title>Node16</title>
<g id="a_node16"><a xlink:href="d__save_8cpp.html" target="_top" xlink:title=" ">
<polygon fill="white" stroke="black" points="712.93,-73 712.93,-92 827.93,-92 827.93,-73 712.93,-73"/>
<text text-anchor="middle" x="770.43" y="-80" font-family="Helvetica,sans-Serif" font-size="10.00">src/d/save/d_save.cpp</text>
</a>
</g>
</g>
<!-- Node12&#45;&gt;Node16 -->
<g id="edge15" class="edge">
<title>Node12&#45;&gt;Node16</title>
<path fill="none" stroke="midnightblue" d="M770.43,-257.96C770.43,-213.43 770.43,-121.25 770.43,-92.36"/>
<polygon fill="midnightblue" stroke="midnightblue" points="766.93,-258.19 770.43,-268.19 773.93,-258.19 766.93,-258.19"/>
</g>
<!-- Node17 -->
<g id="node17" class="node">
<title>Node17</title>
<g id="a_node17"><a xlink:href="d__a__alink_8h.html" target="_top" xlink:title=" ">
<polygon fill="white" stroke="black" points="418.43,-207 418.43,-226 534.43,-226 534.43,-207 418.43,-207"/>
<text text-anchor="middle" x="476.43" y="-214" font-family="Helvetica,sans-Serif" font-size="10.00">include/d/a/d_a_alink.h</text>
</a>
</g>
</g>
<!-- Node12&#45;&gt;Node17 -->
<g id="edge16" class="edge">
<title>Node12&#45;&gt;Node17</title>
<path fill="none" stroke="midnightblue" d="M697.19,-266.31C639.43,-253.54 561.16,-236.23 515.01,-226.03"/>
<polygon fill="midnightblue" stroke="midnightblue" points="696.48,-269.73 707,-268.48 697.99,-262.9 696.48,-269.73"/>
</g>
<!-- Node23 -->
<g id="node23" class="node">
<title>Node23</title>
<g id="a_node23"><a xlink:href="d__menu__window_8h.html" target="_top" xlink:title=" ">
<polygon fill="white" stroke="black" points="884.43,-201.5 884.43,-231.5 1004.43,-231.5 1004.43,-201.5 884.43,-201.5"/>
<text text-anchor="start" x="892.43" y="-219.5" font-family="Helvetica,sans-Serif" font-size="10.00">include/d/menu/d_menu</text>
<text text-anchor="middle" x="944.43" y="-208.5" font-family="Helvetica,sans-Serif" font-size="10.00">_window.h</text>
</a>
</g>
</g>
<!-- Node12&#45;&gt;Node23 -->
<g id="edge28" class="edge">
<title>Node12&#45;&gt;Node23</title>
<path fill="none" stroke="midnightblue" d="M812.04,-264.68C838.95,-254.26 873.82,-241.28 901.08,-231.58"/>
<polygon fill="midnightblue" stroke="midnightblue" points="810.55,-261.5 802.51,-268.4 813.1,-268.02 810.55,-261.5"/>
</g>
<!-- Node18 -->
<g id="node18" class="node">
<title>Node18</title>
<g id="a_node18"><a xlink:href="d__a__alink_8cpp.html" target="_top" xlink:title=" ">
<polygon fill="white" stroke="black" points="143.93,-73 143.93,-92 252.93,-92 252.93,-73 143.93,-73"/>
<text text-anchor="middle" x="198.43" y="-80" font-family="Helvetica,sans-Serif" font-size="10.00">src/d/a/d_a_alink.cpp</text>
</a>
</g>
</g>
<!-- Node17&#45;&gt;Node18 -->
<g id="edge17" class="edge">
<title>Node17&#45;&gt;Node18</title>
<path fill="none" stroke="midnightblue" d="M449.12,-202.53C392.53,-175.66 263.78,-114.53 216.38,-92.02"/>
<polygon fill="midnightblue" stroke="midnightblue" points="447.66,-205.71 458.19,-206.84 450.66,-199.39 447.66,-205.71"/>
</g>
<!-- Node19 -->
<g id="node19" class="node">
<title>Node19</title>
<g id="a_node19"><a xlink:href="d__com__inf__game_8h.html" target="_top" xlink:title=" ">
<polygon fill="white" stroke="black" points="421.43,-134.5 421.43,-164.5 531.43,-164.5 531.43,-134.5 421.43,-134.5"/>
<text text-anchor="start" x="429.43" y="-152.5" font-family="Helvetica,sans-Serif" font-size="10.00">include/d/com/d_com</text>
<text text-anchor="middle" x="476.43" y="-141.5" font-family="Helvetica,sans-Serif" font-size="10.00">_inf_game.h</text>
</a>
</g>
</g>
<!-- Node17&#45;&gt;Node19 -->
<g id="edge18" class="edge">
<title>Node17&#45;&gt;Node19</title>
<path fill="none" stroke="midnightblue" d="M476.43,-196.41C476.43,-186.22 476.43,-173.9 476.43,-164.59"/>
<polygon fill="midnightblue" stroke="midnightblue" points="472.93,-196.73 476.43,-206.73 479.93,-196.73 472.93,-196.73"/>
</g>
<!-- Node19&#45;&gt;Node13 -->
<g id="edge19" class="edge">
<title>Node19&#45;&gt;Node13</title>
<path fill="none" stroke="midnightblue" d="M516.37,-129.22C529.27,-121.21 542.53,-110.76 551.43,-98 565.69,-77.57 569.83,-48.07 571,-30.73"/>
<polygon fill="midnightblue" stroke="midnightblue" points="514.42,-126.31 507.56,-134.38 517.96,-132.35 514.42,-126.31"/>
</g>
<!-- Node19&#45;&gt;Node15 -->
<g id="edge22" class="edge">
<title>Node19&#45;&gt;Node15</title>
<path fill="none" stroke="midnightblue" d="M411.15,-140.36C342.14,-131.42 230.25,-115.9 134.43,-98 131.52,-97.46 128.54,-96.87 125.54,-96.26"/>
<polygon fill="midnightblue" stroke="midnightblue" points="411.06,-143.88 421.43,-141.69 411.96,-136.94 411.06,-143.88"/>
</g>
<!-- Node19&#45;&gt;Node16 -->
<g id="edge24" class="edge">
<title>Node19&#45;&gt;Node16</title>
<path fill="none" stroke="midnightblue" d="M541.59,-134.1C599.9,-121.2 683.43,-102.74 731.79,-92.04"/>
<polygon fill="midnightblue" stroke="midnightblue" points="540.74,-130.7 531.73,-136.27 542.25,-137.53 540.74,-130.7"/>
</g>
<!-- Node19&#45;&gt;Node18 -->
<g id="edge20" class="edge">
<title>Node19&#45;&gt;Node18</title>
<path fill="none" stroke="midnightblue" d="M411.19,-133.24C356.26,-120.4 279.71,-102.5 234.98,-92.05"/>
<polygon fill="midnightblue" stroke="midnightblue" points="410.64,-136.71 421.18,-135.58 412.24,-129.9 410.64,-136.71"/>
</g>
<!-- Node20 -->
<g id="node20" class="node">
<title>Node20</title>
<g id="a_node20"><a xlink:href="d__event_8cpp.html" target="_top" xlink:title=" ">
<polygon fill="white" stroke="black" points="270.93,-73 270.93,-92 391.93,-92 391.93,-73 270.93,-73"/>
<text text-anchor="middle" x="331.43" y="-80" font-family="Helvetica,sans-Serif" font-size="10.00">src/d/event/d_event.cpp</text>
</a>
</g>
</g>
<!-- Node19&#45;&gt;Node20 -->
<g id="edge21" class="edge">
<title>Node19&#45;&gt;Node20</title>
<path fill="none" stroke="midnightblue" d="M435.82,-130.3C407.86,-117.76 371.99,-101.68 350.41,-92.01"/>
<polygon fill="midnightblue" stroke="midnightblue" points="434.41,-133.5 444.97,-134.4 437.28,-127.11 434.41,-133.5"/>
</g>
<!-- Node21 -->
<g id="node21" class="node">
<title>Node21</title>
<g id="a_node21"><a xlink:href="d__msg__flow_8cpp.html" target="_top" xlink:title=" ">
<polygon fill="white" stroke="black" points="409.93,-73 409.93,-92 542.93,-92 542.93,-73 409.93,-73"/>
<text text-anchor="middle" x="476.43" y="-80" font-family="Helvetica,sans-Serif" font-size="10.00">src/d/msg/d_msg_flow.cpp</text>
</a>
</g>
</g>
<!-- Node19&#45;&gt;Node21 -->
<g id="edge23" class="edge">
<title>Node19&#45;&gt;Node21</title>
<path fill="none" stroke="midnightblue" d="M476.43,-124.25C476.43,-113.02 476.43,-100.38 476.43,-92.19"/>
<polygon fill="midnightblue" stroke="midnightblue" points="472.93,-124.4 476.43,-134.4 479.93,-124.4 472.93,-124.4"/>
</g>
<!-- Node22 -->
<g id="node22" class="node">
<title>Node22</title>
<g id="a_node22"><a xlink:href="d__item_8h.html" target="_top" xlink:title=" ">
<polygon fill="white" stroke="black" points="599.93,-73 599.93,-92 694.93,-92 694.93,-73 599.93,-73"/>
<text text-anchor="middle" x="647.43" y="-80" font-family="Helvetica,sans-Serif" font-size="10.00">include/d/d_item.h</text>
</a>
</g>
</g>
<!-- Node19&#45;&gt;Node22 -->
<g id="edge25" class="edge">
<title>Node19&#45;&gt;Node22</title>
<path fill="none" stroke="midnightblue" d="M523.04,-130.78C556.2,-118.18 599.27,-101.81 625.05,-92.01"/>
<polygon fill="midnightblue" stroke="midnightblue" points="521.64,-127.57 513.54,-134.4 524.13,-134.11 521.64,-127.57"/>
</g>
<!-- Node22&#45;&gt;Node13 -->
<g id="edge26" class="edge">
<title>Node22&#45;&gt;Node13</title>
<path fill="none" stroke="midnightblue" d="M629.23,-65.93C616.66,-55.18 600.08,-41 587.91,-30.59"/>
<polygon fill="midnightblue" stroke="midnightblue" points="627.31,-68.89 637.18,-72.73 631.86,-63.57 627.31,-68.89"/>
</g>
<!-- Node22&#45;&gt;Node14 -->
<g id="edge27" class="edge">
<title>Node22&#45;&gt;Node14</title>
<path fill="none" stroke="midnightblue" d="M673.2,-68.1C697.95,-55.23 734.63,-36.16 755.77,-25.17"/>
<polygon fill="midnightblue" stroke="midnightblue" points="671.29,-65.15 664.03,-72.87 674.52,-71.36 671.29,-65.15"/>
</g>
<!-- Node23&#45;&gt;Node12 -->
<g id="edge30" class="edge">
<title>Node23&#45;&gt;Node12</title>
<path fill="none" stroke="midnightblue" d="M902.91,-235.29C876.01,-245.71 841.13,-258.69 813.87,-268.4"/>
<polygon fill="midnightblue" stroke="midnightblue" points="904.38,-238.47 912.43,-231.58 901.84,-231.95 904.38,-238.47"/>
</g>
<!-- Node24 -->
<g id="node24" class="node">
<title>Node24</title>
<g id="a_node24"><a xlink:href="d__menu__window_8cpp.html" target="_top" xlink:title=" ">
<polygon fill="white" stroke="black" points="883.93,-140 883.93,-159 1042.93,-159 1042.93,-140 883.93,-140"/>
<text text-anchor="middle" x="963.43" y="-147" font-family="Helvetica,sans-Serif" font-size="10.00">src/d/menu/d_menu_window.cpp</text>
</a>
</g>
</g>
<!-- Node23&#45;&gt;Node24 -->
<g id="edge29" class="edge">
<title>Node23&#45;&gt;Node24</title>
<path fill="none" stroke="midnightblue" d="M951.42,-191.6C954.73,-180.28 958.47,-167.46 960.89,-159.19"/>
<polygon fill="midnightblue" stroke="midnightblue" points="948,-190.82 948.56,-201.4 954.72,-192.78 948,-190.82"/>
</g>
<!-- Node26 -->
<g id="node26" class="node">
<title>Node26</title>
<g id="a_node26"><a xlink:href="J2DPicture_8cpp.html" target="_top" xlink:title=" ">
<polygon fill="white" stroke="black" points="834.93,-335.5 834.93,-365.5 953.93,-365.5 953.93,-335.5 834.93,-335.5"/>
<text text-anchor="start" x="842.93" y="-353.5" font-family="Helvetica,sans-Serif" font-size="10.00">libs/JSystem/J2DGraph</text>
<text text-anchor="middle" x="894.43" y="-342.5" font-family="Helvetica,sans-Serif" font-size="10.00">/J2DPicture.cpp</text>
</a>
</g>
</g>
<!-- Node25&#45;&gt;Node26 -->
<g id="edge32" class="edge">
<title>Node25&#45;&gt;Node26</title>
<path fill="none" stroke="midnightblue" d="M894.43,-392.11C894.43,-383.15 894.43,-373.32 894.43,-365.58"/>
<polygon fill="midnightblue" stroke="midnightblue" points="890.93,-392.4 894.43,-402.4 897.93,-392.4 890.93,-392.4"/>
</g>
<!-- Node28 -->
<g id="node28" class="node">
<title>Node28</title>
<g id="a_node28"><a xlink:href="J2DTextBox_8cpp.html" target="_top" xlink:title=" ">
<polygon fill="white" stroke="black" points="297.93,-402.5 297.93,-432.5 416.93,-432.5 416.93,-402.5 297.93,-402.5"/>
<text text-anchor="start" x="305.93" y="-420.5" font-family="Helvetica,sans-Serif" font-size="10.00">libs/JSystem/J2DGraph</text>
<text text-anchor="middle" x="357.43" y="-409.5" font-family="Helvetica,sans-Serif" font-size="10.00">/J2DTextBox.cpp</text>
</a>
</g>
</g>
<!-- Node27&#45;&gt;Node28 -->
<g id="edge34" class="edge">
<title>Node27&#45;&gt;Node28</title>
<path fill="none" stroke="midnightblue" d="M491.04,-465.96C461.56,-455.48 424.62,-442.37 397.06,-432.58"/>
<polygon fill="midnightblue" stroke="midnightblue" points="490.13,-469.35 500.72,-469.4 492.47,-462.75 490.13,-469.35"/>
</g>
<!-- Node29&#45;&gt;Node5 -->
<g id="edge39" class="edge">
<title>Node29&#45;&gt;Node5</title>
<path fill="none" stroke="midnightblue" d="M742.28,-529.6C731.41,-519.78 718.74,-508.34 709.03,-499.58"/>
<polygon fill="midnightblue" stroke="midnightblue" points="740.04,-532.29 749.81,-536.4 744.73,-527.1 740.04,-532.29"/>
</g>
<!-- Node29&#45;&gt;Node25 -->
<g id="edge38" class="edge">
<title>Node29&#45;&gt;Node25</title>
<path fill="none" stroke="midnightblue" d="M773.82,-526.83C780.94,-509.29 792.54,-485.63 808.43,-469 823.27,-453.48 843.91,-441.14 861.25,-432.55"/>
<polygon fill="midnightblue" stroke="midnightblue" points="770.48,-525.77 770.14,-536.36 777.01,-528.29 770.48,-525.77"/>
</g>
<!-- Node29&#45;&gt;Node27 -->
<g id="edge40" class="edge">
<title>Node29&#45;&gt;Node27</title>
<path fill="none" stroke="midnightblue" d="M706.86,-533.58C670.32,-523.02 623.83,-509.59 589.28,-499.61"/>
<polygon fill="midnightblue" stroke="midnightblue" points="706.31,-537.06 716.89,-536.48 708.25,-530.34 706.31,-537.06"/>
</g>
<!-- Node30 -->
<g id="node30" class="node">
<title>Node30</title>
<g id="a_node30"><a xlink:href="f__op__msg__mng_8cpp.html" target="_top" xlink:title=" ">
<polygon fill="white" stroke="black" points="817.43,-475 817.43,-494 957.43,-494 957.43,-475 817.43,-475"/>
<text text-anchor="middle" x="887.43" y="-482" font-family="Helvetica,sans-Serif" font-size="10.00">src/f_op/f_op_msg_mng.cpp</text>
</a>
</g>
</g>
<!-- Node29&#45;&gt;Node30 -->
<g id="edge36" class="edge">
<title>Node29&#45;&gt;Node30</title>
<path fill="none" stroke="midnightblue" d="M800.84,-531.64C824.18,-519.2 853.62,-503.51 871.47,-494.01"/>
<polygon fill="midnightblue" stroke="midnightblue" points="799.08,-528.6 791.9,-536.4 802.38,-534.78 799.08,-528.6"/>
</g>
<!-- Node31 -->
<g id="node31" class="node">
<title>Node31</title>
<g id="a_node31"><a xlink:href="J2DPane_8cpp.html" target="_top" xlink:title=" ">
<polygon fill="white" stroke="black" points="975.93,-469.5 975.93,-499.5 1094.93,-499.5 1094.93,-469.5 975.93,-469.5"/>
<text text-anchor="start" x="983.93" y="-487.5" font-family="Helvetica,sans-Serif" font-size="10.00">libs/JSystem/J2DGraph</text>
<text text-anchor="middle" x="1035.43" y="-476.5" font-family="Helvetica,sans-Serif" font-size="10.00">/J2DPane.cpp</text>
</a>
</g>
</g>
<!-- Node29&#45;&gt;Node31 -->
<g id="edge37" class="edge">
<title>Node29&#45;&gt;Node31</title>
<path fill="none" stroke="midnightblue" d="M833.48,-534.12C877.66,-523.48 934.65,-509.76 976.82,-499.61"/>
<polygon fill="midnightblue" stroke="midnightblue" points="832.59,-530.73 823.69,-536.48 834.23,-537.54 832.59,-530.73"/>
</g>
</g>
</svg>
        <g id="navigator" transform="translate(0 0)" fill="#404254">
                <rect fill="#f2f5e9" fill-opacity="0.5" stroke="#606060" stroke-width=".5" x="0" y="0" width="60" height="60"/>
                <use id="zoomplus" xlink:href="#zoomPlus" x="17" y="9" onmousedown="handleZoom(evt,'in')"/>
                <use id="zoomminus" xlink:href="#zoomMin" x="42" y="9" onmousedown="handleZoom(evt,'out')"/>
                <use id="reset" xlink:href="#resetDef" x="30" y="36" onmousedown="handleReset()"/>
                <g id="arrowUp" xlink:href="#dirArrow" transform="translate(30 24)" onmousedown="handlePan(0,-1)">
                  <use xlink:href="#rim" fill="#404040">
                        <set attributeName="fill" to="#808080" begin="arrowUp.mouseover" end="arrowUp.mouseout"/>
                  </use>
                  <path fill="none" stroke="white" stroke-width="1.5" d="M0,-3.0v7 M-2.5,-0.5L0,-3.0L2.5,-0.5"/>
                </g>
                <g id="arrowRight" xlink:href="#dirArrow" transform="rotate(90) translate(36 -43)" onmousedown="handlePan(1,0)">
                  <use xlink:href="#rim" fill="#404040">
                        <set attributeName="fill" to="#808080" begin="arrowRight.mouseover" end="arrowRight.mouseout"/>
                  </use>
                  <path fill="none" stroke="white" stroke-width="1.5" d="M0,-3.0v7 M-2.5,-0.5L0,-3.0L2.5,-0.5"/>
                </g>
                <g id="arrowDown" xlink:href="#dirArrow" transform="rotate(180) translate(-30 -48)" onmousedown="handlePan(0,1)">
                  <use xlink:href="#rim" fill="#404040">
                        <set attributeName="fill" to="#808080" begin="arrowDown.mouseover" end="arrowDown.mouseout"/>
                  </use>
                  <path fill="none" stroke="white" stroke-width="1.5" d="M0,-3.0v7 M-2.5,-0.5L0,-3.0L2.5,-0.5"/>
                </g>
                <g id="arrowLeft" xlink:href="#dirArrow" transform="rotate(270) translate(-36 17)" onmousedown="handlePan(-1,0)">
                  <use xlink:href="#rim" fill="#404040">
                        <set attributeName="fill" to="#808080" begin="arrowLeft.mouseover" end="arrowLeft.mouseout"/>
                  </use>
                  <path fill="none" stroke="white" stroke-width="1.5" d="M0,-3.0v7 M-2.5,-0.5L0,-3.0L2.5,-0.5"/>
                </g>
        </g>
        <svg viewBox="0 0 15 15" width="100%" height="30px" preserveAspectRatio="xMaxYMin meet">
         <g id="arrow_out" transform="scale(0.3 0.3)">
          <a xlink:href="J2DAnimation_8h__dep__incl_org.svg" target="_base">
           <rect id="button" ry="5" rx="5" y="6" x="6" height="38" width="38"
                fill="#f2f5e9" fill-opacity="0.5" stroke="#606060" stroke-width="1.0"/>
           <path id="arrow"
             d="M 11.500037,31.436501 C 11.940474,20.09759 22.043105,11.32322 32.158766,21.979434 L 37.068811,17.246167 C 37.068811,17.246167 37.088388,32 37.088388,32 L 22.160133,31.978069 C 22.160133,31.978069 26.997745,27.140456 26.997745,27.140456 C 18.528582,18.264221 13.291696,25.230495 11.500037,31.436501 z"
             style="fill:#404040;"/>
          </a>
         </g>
        </svg>
</svg>
