<?xml version="1.0" encoding="UTF-8" standalone="no"?>
<!DOCTYPE svg PUBLIC "-//W3C//DTD SVG 1.1//EN"
 "http://www.w3.org/Graphics/SVG/1.1/DTD/svg11.dtd">
<!-- Generated by graphviz version 2.44.0 ()
 -->
<!-- Title: libs/JSystem/J2DGraph/J2DAnimation.cpp Pages: 1 -->
<svg width="5681pt" height="240pt"
 viewBox="0.00 0.00 5681.00 240.00" xmlns="http://www.w3.org/2000/svg" xmlns:xlink="http://www.w3.org/1999/xlink">
<g id="graph0" class="graph" transform="scale(1 1) rotate(0) translate(4 236)">
<title>libs/JSystem/J2DGraph/J2DAnimation.cpp</title>
<polygon fill="white" stroke="transparent" points="-4,4 -4,-236 5677,-236 5677,4 -4,4"/>
<!-- Node1 -->
<g id="node1" class="node">
<title>Node1</title>
<g id="a_node1"><a xlink:title=" ">
<polygon fill="#bfbfbf" stroke="black" points="2644,-201.5 2644,-231.5 2763,-231.5 2763,-201.5 2644,-201.5"/>
<text text-anchor="start" x="2652" y="-219.5" font-family="Helvetica,sans-Serif" font-size="10.00">libs/JSystem/J2DGraph</text>
<text text-anchor="middle" x="2703.5" y="-208.5" font-family="Helvetica,sans-Serif" font-size="10.00">/J2DAnimation.cpp</text>
</a>
</g>
</g>
<!-- Node2 -->
<g id="node2" class="node">
<title>Node2</title>
<g id="a_node2"><a xlink:href="J2DAnimation_8h.html" target="_top" xlink:title=" ">
<polygon fill="white" stroke="black" points="0,-129 0,-148 173,-148 173,-129 0,-129"/>
<text text-anchor="middle" x="86.5" y="-136" font-family="Helvetica,sans-Serif" font-size="10.00">JSystem/J2DGraph/J2DAnimation.h</text>
</a>
</g>
</g>
<!-- Node1&#45;&gt;Node2 -->
<g id="edge1" class="edge">
<title>Node1&#45;&gt;Node2</title>
<path fill="none" stroke="midnightblue" d="M2643.94,-215.12C2286.93,-212.7 437.69,-198.65 187.5,-165 165.77,-162.08 141.98,-156.21 122.94,-150.83"/>
<polygon fill="midnightblue" stroke="midnightblue" points="123.76,-147.43 113.18,-148 121.81,-154.15 123.76,-147.43"/>
</g>
<!-- Node4 -->
<g id="node4" class="node">
<title>Node4</title>
<g id="a_node4"><a xlink:href="types_8h.html" target="_top" xlink:title=" ">
<polygon fill="white" stroke="black" points="123,-0.5 123,-19.5 204,-19.5 204,-0.5 123,-0.5"/>
<text text-anchor="middle" x="163.5" y="-7.5" font-family="Helvetica,sans-Serif" font-size="10.00">dolphin/types.h</text>
</a>
</g>
</g>
<!-- Node1&#45;&gt;Node4 -->
<g id="edge6" class="edge">
<title>Node1&#45;&gt;Node4</title>
<path fill="none" stroke="midnightblue" d="M2643.77,-215.21C2270.39,-213.28 271.46,-201.25 220.5,-165 176.24,-133.51 166.29,-63.59 164.09,-29.88"/>
<polygon fill="midnightblue" stroke="midnightblue" points="167.57,-29.42 163.6,-19.6 160.58,-29.75 167.57,-29.42"/>
</g>
<!-- Node5 -->
<g id="node5" class="node">
<title>Node5</title>
<g id="a_node5"><a xlink:href="dol2asm_8h.html" target="_top" xlink:title=" ">
<polygon fill="white" stroke="black" points="230,-129 230,-148 291,-148 291,-129 230,-129"/>
<text text-anchor="middle" x="260.5" y="-136" font-family="Helvetica,sans-Serif" font-size="10.00">dol2asm.h</text>
</a>
</g>
</g>
<!-- Node1&#45;&gt;Node5 -->
<g id="edge5" class="edge">
<title>Node1&#45;&gt;Node5</title>
<path fill="none" stroke="midnightblue" d="M2643.99,-215.16C2284.65,-212.98 415.97,-199.99 300.5,-165 292.98,-162.72 285.51,-158.6 279.1,-154.32"/>
<polygon fill="midnightblue" stroke="midnightblue" points="280.73,-151.18 270.57,-148.15 276.62,-156.85 280.73,-151.18"/>
</g>
<!-- Node6 -->
<g id="node6" class="node">
<title>Node6</title>
<g id="a_node6"><a xlink:title=" ">
<polygon fill="white" stroke="#bfbfbf" points="309.5,-112.5 309.5,-164.5 497.5,-164.5 497.5,-112.5 309.5,-112.5"/>
<text text-anchor="start" x="317.5" y="-152.5" font-family="Helvetica,sans-Serif" font-size="10.00">asm/JSystem/J2DGraph</text>
<text text-anchor="start" x="317.5" y="-141.5" font-family="Helvetica,sans-Serif" font-size="10.00">/J2DAnimation/getTransform</text>
<text text-anchor="start" x="317.5" y="-130.5" font-family="Helvetica,sans-Serif" font-size="10.00">__19J2DAnmTransformFullCFUsP16J3</text>
<text text-anchor="middle" x="403.5" y="-119.5" font-family="Helvetica,sans-Serif" font-size="10.00">DTransformInfo.s</text>
</a>
</g>
</g>
<!-- Node1&#45;&gt;Node6 -->
<g id="edge7" class="edge">
<title>Node1&#45;&gt;Node6</title>
<path fill="none" stroke="midnightblue" d="M2643.92,-214.91C2319.01,-211.61 766.57,-194.45 507.65,-164.92"/>
<polygon fill="midnightblue" stroke="midnightblue" points="507.99,-161.43 497.64,-163.68 507.14,-168.38 507.99,-161.43"/>
</g>
<!-- Node7 -->
<g id="node7" class="node">
<title>Node7</title>
<g id="a_node7"><a xlink:title=" ">
<polygon fill="white" stroke="#bfbfbf" points="515.5,-112.5 515.5,-164.5 707.5,-164.5 707.5,-112.5 515.5,-112.5"/>
<text text-anchor="start" x="523.5" y="-152.5" font-family="Helvetica,sans-Serif" font-size="10.00">asm/JSystem/J2DGraph</text>
<text text-anchor="start" x="523.5" y="-141.5" font-family="Helvetica,sans-Serif" font-size="10.00">/J2DAnimation/calcTransform</text>
<text text-anchor="start" x="523.5" y="-130.5" font-family="Helvetica,sans-Serif" font-size="10.00">__18J2DAnmTransformKeyCFfUsP16J3</text>
<text text-anchor="middle" x="611.5" y="-119.5" font-family="Helvetica,sans-Serif" font-size="10.00">DTransformInfo.s</text>
</a>
</g>
</g>
<!-- Node1&#45;&gt;Node7 -->
<g id="edge8" class="edge">
<title>Node1&#45;&gt;Node7</title>
<path fill="none" stroke="midnightblue" d="M2643.99,-215.68C2355.87,-216.27 1103.91,-215.81 717.5,-165 717.4,-164.99 717.29,-164.97 717.19,-164.96"/>
<polygon fill="midnightblue" stroke="midnightblue" points="717.93,-161.53 707.53,-163.53 716.91,-168.46 717.93,-161.53"/>
</g>
<!-- Node8 -->
<g id="node8" class="node">
<title>Node8</title>
<g id="a_node8"><a xlink:title=" ">
<polygon fill="white" stroke="#bfbfbf" points="726,-118 726,-159 907,-159 907,-118 726,-118"/>
<text text-anchor="start" x="734" y="-147" font-family="Helvetica,sans-Serif" font-size="10.00">asm/JSystem/J2DGraph</text>
<text text-anchor="start" x="734" y="-136" font-family="Helvetica,sans-Serif" font-size="10.00">/J2DAnimation/searchUpdateMaterial</text>
<text text-anchor="middle" x="816.5" y="-125" font-family="Helvetica,sans-Serif" font-size="10.00">ID__11J2DAnmColorFP9J2DScreen.s</text>
</a>
</g>
</g>
<!-- Node1&#45;&gt;Node8 -->
<g id="edge9" class="edge">
<title>Node1&#45;&gt;Node8</title>
<path fill="none" stroke="midnightblue" d="M2643.76,-215.59C2373.22,-215.71 1261.14,-213.2 916.5,-165 909.36,-164 902,-162.69 894.66,-161.18"/>
<polygon fill="midnightblue" stroke="midnightblue" points="895.2,-157.72 884.69,-159.02 893.72,-164.56 895.2,-157.72"/>
</g>
<!-- Node9 -->
<g id="node9" class="node">
<title>Node9</title>
<g id="a_node9"><a xlink:title=" ">
<polygon fill="white" stroke="#bfbfbf" points="925,-112.5 925,-164.5 1076,-164.5 1076,-112.5 925,-112.5"/>
<text text-anchor="start" x="933" y="-152.5" font-family="Helvetica,sans-Serif" font-size="10.00">asm/JSystem/J2DGraph</text>
<text text-anchor="start" x="933" y="-141.5" font-family="Helvetica,sans-Serif" font-size="10.00">/J2DAnimation/getColor</text>
<text text-anchor="start" x="933" y="-130.5" font-family="Helvetica,sans-Serif" font-size="10.00">__15J2DAnmColorFullCFUsP8</text>
<text text-anchor="middle" x="1000.5" y="-119.5" font-family="Helvetica,sans-Serif" font-size="10.00">_GXColor.s</text>
</a>
</g>
</g>
<!-- Node1&#45;&gt;Node9 -->
<g id="edge10" class="edge">
<title>Node1&#45;&gt;Node9</title>
<path fill="none" stroke="midnightblue" d="M2643.91,-215.71C2392.24,-216.29 1414.6,-215.27 1086.26,-164.88"/>
<polygon fill="midnightblue" stroke="midnightblue" points="1086.69,-161.4 1076.27,-163.3 1085.6,-168.32 1086.69,-161.4"/>
</g>
<!-- Node10 -->
<g id="node10" class="node">
<title>Node10</title>
<g id="a_node10"><a xlink:title=" ">
<polygon fill="white" stroke="#bfbfbf" points="1094.5,-112.5 1094.5,-164.5 1246.5,-164.5 1246.5,-112.5 1094.5,-112.5"/>
<text text-anchor="start" x="1102.5" y="-152.5" font-family="Helvetica,sans-Serif" font-size="10.00">asm/JSystem/J2DGraph</text>
<text text-anchor="start" x="1102.5" y="-141.5" font-family="Helvetica,sans-Serif" font-size="10.00">/J2DAnimation/getColor</text>
<text text-anchor="start" x="1102.5" y="-130.5" font-family="Helvetica,sans-Serif" font-size="10.00">__14J2DAnmColorKeyCFUsP8</text>
<text text-anchor="middle" x="1170.5" y="-119.5" font-family="Helvetica,sans-Serif" font-size="10.00">_GXColor.s</text>
</a>
</g>
</g>
<!-- Node1&#45;&gt;Node10 -->
<g id="edge11" class="edge">
<title>Node1&#45;&gt;Node10</title>
<path fill="none" stroke="midnightblue" d="M2643.88,-215.46C2409.42,-214.97 1549.77,-210.19 1256.91,-165"/>
<polygon fill="midnightblue" stroke="midnightblue" points="1257.16,-161.5 1246.74,-163.38 1256.06,-168.41 1257.16,-161.5"/>
</g>
<!-- Node11 -->
<g id="node11" class="node">
<title>Node11</title>
<g id="a_node11"><a xlink:title=" ">
<polygon fill="white" stroke="#bfbfbf" points="1264.5,-112.5 1264.5,-164.5 1442.5,-164.5 1442.5,-112.5 1264.5,-112.5"/>
<text text-anchor="start" x="1272.5" y="-152.5" font-family="Helvetica,sans-Serif" font-size="10.00">asm/JSystem/J2DGraph</text>
<text text-anchor="start" x="1272.5" y="-141.5" font-family="Helvetica,sans-Serif" font-size="10.00">/J2DAnimation/getColor</text>
<text text-anchor="start" x="1272.5" y="-130.5" font-family="Helvetica,sans-Serif" font-size="10.00">__18J2DAnmVtxColorFullCFUcUsP8</text>
<text text-anchor="middle" x="1353.5" y="-119.5" font-family="Helvetica,sans-Serif" font-size="10.00">_GXColor.s</text>
</a>
</g>
</g>
<!-- Node1&#45;&gt;Node11 -->
<g id="edge12" class="edge">
<title>Node1&#45;&gt;Node11</title>
<path fill="none" stroke="midnightblue" d="M2643.74,-214.76C2430.41,-211.88 1706.08,-199.81 1452.54,-164.8"/>
<polygon fill="midnightblue" stroke="midnightblue" points="1453.03,-161.33 1442.64,-163.38 1452.04,-168.26 1453.03,-161.33"/>
</g>
<!-- Node12 -->
<g id="node12" class="node">
<title>Node12</title>
<g id="a_node12"><a xlink:title=" ">
<polygon fill="white" stroke="#bfbfbf" points="1461,-112.5 1461,-164.5 1640,-164.5 1640,-112.5 1461,-112.5"/>
<text text-anchor="start" x="1469" y="-152.5" font-family="Helvetica,sans-Serif" font-size="10.00">asm/JSystem/J2DGraph</text>
<text text-anchor="start" x="1469" y="-141.5" font-family="Helvetica,sans-Serif" font-size="10.00">/J2DAnimation/getColor</text>
<text text-anchor="start" x="1469" y="-130.5" font-family="Helvetica,sans-Serif" font-size="10.00">__17J2DAnmVtxColorKeyCFUcUsP8</text>
<text text-anchor="middle" x="1550.5" y="-119.5" font-family="Helvetica,sans-Serif" font-size="10.00">_GXColor.s</text>
</a>
</g>
</g>
<!-- Node1&#45;&gt;Node12 -->
<g id="edge13" class="edge">
<title>Node1&#45;&gt;Node12</title>
<path fill="none" stroke="midnightblue" d="M2643.69,-214.24C2453.45,-209.99 1862.88,-194.81 1650.31,-164.93"/>
<polygon fill="midnightblue" stroke="midnightblue" points="1650.58,-161.43 1640.18,-163.45 1649.57,-168.36 1650.58,-161.43"/>
</g>
<!-- Node13 -->
<g id="node13" class="node">
<title>Node13</title>
<g id="a_node13"><a xlink:title=" ">
<polygon fill="white" stroke="#bfbfbf" points="1658.5,-112.5 1658.5,-164.5 1858.5,-164.5 1858.5,-112.5 1658.5,-112.5"/>
<text text-anchor="start" x="1666.5" y="-152.5" font-family="Helvetica,sans-Serif" font-size="10.00">asm/JSystem/J2DGraph</text>
<text text-anchor="start" x="1666.5" y="-141.5" font-family="Helvetica,sans-Serif" font-size="10.00">/J2DAnimation/calcTransform</text>
<text text-anchor="start" x="1666.5" y="-130.5" font-family="Helvetica,sans-Serif" font-size="10.00">__19J2DAnmTextureSRTKeyCFfUsP17J3</text>
<text text-anchor="middle" x="1758.5" y="-119.5" font-family="Helvetica,sans-Serif" font-size="10.00">DTextureSRTInfo.s</text>
</a>
</g>
</g>
<!-- Node1&#45;&gt;Node13 -->
<g id="edge14" class="edge">
<title>Node1&#45;&gt;Node13</title>
<path fill="none" stroke="midnightblue" d="M2643.93,-215.31C2508.06,-214.14 2164.85,-207.03 1868.85,-164.92"/>
<polygon fill="midnightblue" stroke="midnightblue" points="1869.18,-161.44 1858.78,-163.48 1868.18,-168.36 1869.18,-161.44"/>
</g>
<!-- Node14 -->
<g id="node14" class="node">
<title>Node14</title>
<g id="a_node14"><a xlink:title=" ">
<polygon fill="white" stroke="#bfbfbf" points="1877,-118 1877,-159 2104,-159 2104,-118 1877,-118"/>
<text text-anchor="start" x="1885" y="-147" font-family="Helvetica,sans-Serif" font-size="10.00">asm/JSystem/J2DGraph</text>
<text text-anchor="start" x="1885" y="-136" font-family="Helvetica,sans-Serif" font-size="10.00">/J2DAnimation/searchUpdateMaterial</text>
<text text-anchor="middle" x="1990.5" y="-125" font-family="Helvetica,sans-Serif" font-size="10.00">ID__19J2DAnmTextureSRTKeyFP9J2DScreen.s</text>
</a>
</g>
</g>
<!-- Node1&#45;&gt;Node14 -->
<g id="edge15" class="edge">
<title>Node1&#45;&gt;Node14</title>
<path fill="none" stroke="midnightblue" d="M2643.77,-212.74C2536.94,-207.29 2306.27,-193.13 2113.5,-165 2105.28,-163.8 2096.78,-162.39 2088.27,-160.87"/>
<polygon fill="midnightblue" stroke="midnightblue" points="2088.76,-157.4 2078.29,-159.03 2087.49,-164.28 2088.76,-157.4"/>
</g>
<!-- Node15 -->
<g id="node15" class="node">
<title>Node15</title>
<g id="a_node15"><a xlink:title=" ">
<polygon fill="white" stroke="#bfbfbf" points="2122.5,-118 2122.5,-159 2328.5,-159 2328.5,-118 2122.5,-118"/>
<text text-anchor="start" x="2130.5" y="-147" font-family="Helvetica,sans-Serif" font-size="10.00">asm/JSystem/J2DGraph</text>
<text text-anchor="start" x="2130.5" y="-136" font-family="Helvetica,sans-Serif" font-size="10.00">/J2DAnimation/searchUpdateMaterial</text>
<text text-anchor="middle" x="2225.5" y="-125" font-family="Helvetica,sans-Serif" font-size="10.00">ID__16J2DAnmTexPatternFP9J2DScreen.s</text>
</a>
</g>
</g>
<!-- Node1&#45;&gt;Node15 -->
<g id="edge16" class="edge">
<title>Node1&#45;&gt;Node15</title>
<path fill="none" stroke="midnightblue" d="M2643.83,-208.81C2571.35,-200.33 2445.5,-184.44 2338.5,-165 2331.92,-163.8 2325.14,-162.49 2318.33,-161.11"/>
<polygon fill="midnightblue" stroke="midnightblue" points="2318.84,-157.64 2308.34,-159.03 2317.42,-164.49 2318.84,-157.64"/>
</g>
<!-- Node16 -->
<g id="node16" class="node">
<title>Node16</title>
<g id="a_node16"><a xlink:title=" ">
<polygon fill="white" stroke="#bfbfbf" points="2347,-118 2347,-159 2522,-159 2522,-118 2347,-118"/>
<text text-anchor="start" x="2355" y="-147" font-family="Helvetica,sans-Serif" font-size="10.00">asm/JSystem/J2DGraph</text>
<text text-anchor="start" x="2355" y="-136" font-family="Helvetica,sans-Serif" font-size="10.00">/J2DAnimation/getTexNo</text>
<text text-anchor="middle" x="2434.5" y="-125" font-family="Helvetica,sans-Serif" font-size="10.00">__16J2DAnmTexPatternCFUsPUs.s</text>
</a>
</g>
</g>
<!-- Node1&#45;&gt;Node16 -->
<g id="edge17" class="edge">
<title>Node1&#45;&gt;Node16</title>
<path fill="none" stroke="midnightblue" d="M2653.85,-201.47C2614.53,-190.36 2558.86,-174.64 2513.45,-161.8"/>
<polygon fill="midnightblue" stroke="midnightblue" points="2514.2,-158.38 2503.63,-159.03 2512.3,-165.12 2514.2,-158.38"/>
</g>
<!-- Node17 -->
<g id="node17" class="node">
<title>Node17</title>
<g id="a_node17"><a xlink:title=" ">
<polygon fill="white" stroke="#bfbfbf" points="2540,-118 2540,-159 2695,-159 2695,-118 2540,-118"/>
<text text-anchor="start" x="2548" y="-147" font-family="Helvetica,sans-Serif" font-size="10.00">asm/JSystem/J2DGraph</text>
<text text-anchor="start" x="2548" y="-136" font-family="Helvetica,sans-Serif" font-size="10.00">/J2DAnimation/getResTIMG</text>
<text text-anchor="middle" x="2617.5" y="-125" font-family="Helvetica,sans-Serif" font-size="10.00">__16J2DAnmTexPatternCFUs.s</text>
</a>
</g>
</g>
<!-- Node1&#45;&gt;Node17 -->
<g id="edge18" class="edge">
<title>Node1&#45;&gt;Node17</title>
<path fill="none" stroke="midnightblue" d="M2687.32,-201.2C2676.1,-191.28 2660.81,-177.77 2647.4,-165.93"/>
<polygon fill="midnightblue" stroke="midnightblue" points="2649.58,-163.18 2639.77,-159.18 2644.95,-168.42 2649.58,-163.18"/>
</g>
<!-- Node18 -->
<g id="node18" class="node">
<title>Node18</title>
<g id="a_node18"><a xlink:title=" ">
<polygon fill="white" stroke="#bfbfbf" points="2713,-118 2713,-159 2868,-159 2868,-118 2713,-118"/>
<text text-anchor="start" x="2721" y="-147" font-family="Helvetica,sans-Serif" font-size="10.00">asm/JSystem/J2DGraph</text>
<text text-anchor="start" x="2721" y="-136" font-family="Helvetica,sans-Serif" font-size="10.00">/J2DAnimation/getPalette</text>
<text text-anchor="middle" x="2790.5" y="-125" font-family="Helvetica,sans-Serif" font-size="10.00">__16J2DAnmTexPatternCFUs.s</text>
</a>
</g>
</g>
<!-- Node1&#45;&gt;Node18 -->
<g id="edge19" class="edge">
<title>Node1&#45;&gt;Node18</title>
<path fill="none" stroke="midnightblue" d="M2719.86,-201.2C2731.22,-191.28 2746.69,-177.77 2760.25,-165.93"/>
<polygon fill="midnightblue" stroke="midnightblue" points="2762.74,-168.39 2767.97,-159.18 2758.14,-163.12 2762.74,-168.39"/>
</g>
<!-- Node19 -->
<g id="node19" class="node">
<title>Node19</title>
<g id="a_node19"><a xlink:title=" ">
<polygon fill="white" stroke="#bfbfbf" points="2886,-118 2886,-159 3065,-159 3065,-118 2886,-118"/>
<text text-anchor="start" x="2894" y="-147" font-family="Helvetica,sans-Serif" font-size="10.00">asm/JSystem/J2DGraph</text>
<text text-anchor="start" x="2894" y="-136" font-family="Helvetica,sans-Serif" font-size="10.00">/J2DAnimation/getVisibility</text>
<text text-anchor="middle" x="2975.5" y="-125" font-family="Helvetica,sans-Serif" font-size="10.00">__20J2DAnmVisibilityFullCFUsPUc.s</text>
</a>
</g>
</g>
<!-- Node1&#45;&gt;Node19 -->
<g id="edge20" class="edge">
<title>Node1&#45;&gt;Node19</title>
<path fill="none" stroke="midnightblue" d="M2753.71,-201.47C2793.55,-190.34 2849.99,-174.57 2895.96,-161.72"/>
<polygon fill="midnightblue" stroke="midnightblue" points="2896.91,-165.09 2905.6,-159.03 2895.03,-158.35 2896.91,-165.09"/>
</g>
<!-- Node20 -->
<g id="node20" class="node">
<title>Node20</title>
<g id="a_node20"><a xlink:title=" ">
<polygon fill="white" stroke="#bfbfbf" points="3083.5,-112.5 3083.5,-164.5 3251.5,-164.5 3251.5,-112.5 3083.5,-112.5"/>
<text text-anchor="start" x="3091.5" y="-152.5" font-family="Helvetica,sans-Serif" font-size="10.00">asm/JSystem/J2DGraph</text>
<text text-anchor="start" x="3091.5" y="-141.5" font-family="Helvetica,sans-Serif" font-size="10.00">/J2DAnimation/getTevColorReg</text>
<text text-anchor="start" x="3091.5" y="-130.5" font-family="Helvetica,sans-Serif" font-size="10.00">__15J2DAnmTevRegKeyCFUsP11</text>
<text text-anchor="middle" x="3167.5" y="-119.5" font-family="Helvetica,sans-Serif" font-size="10.00">_GXColorS10.s</text>
</a>
</g>
</g>
<!-- Node1&#45;&gt;Node20 -->
<g id="edge21" class="edge">
<title>Node1&#45;&gt;Node20</title>
<path fill="none" stroke="midnightblue" d="M2763.02,-209.85C2834.56,-202.52 2958.33,-188.09 3073.43,-165.11"/>
<polygon fill="midnightblue" stroke="midnightblue" points="3074.36,-168.49 3083.47,-163.08 3072.98,-161.63 3074.36,-168.49"/>
</g>
<!-- Node21 -->
<g id="node21" class="node">
<title>Node21</title>
<g id="a_node21"><a xlink:title=" ">
<polygon fill="white" stroke="#bfbfbf" points="3270,-112.5 3270,-164.5 3433,-164.5 3433,-112.5 3270,-112.5"/>
<text text-anchor="start" x="3278" y="-152.5" font-family="Helvetica,sans-Serif" font-size="10.00">asm/JSystem/J2DGraph</text>
<text text-anchor="start" x="3278" y="-141.5" font-family="Helvetica,sans-Serif" font-size="10.00">/J2DAnimation/getTevKonstReg</text>
<text text-anchor="start" x="3278" y="-130.5" font-family="Helvetica,sans-Serif" font-size="10.00">__15J2DAnmTevRegKeyCFUsP8</text>
<text text-anchor="middle" x="3351.5" y="-119.5" font-family="Helvetica,sans-Serif" font-size="10.00">_GXColor.s</text>
</a>
</g>
</g>
<!-- Node1&#45;&gt;Node21 -->
<g id="edge22" class="edge">
<title>Node1&#45;&gt;Node21</title>
<path fill="none" stroke="midnightblue" d="M2763.34,-213.66C2864.08,-209.78 3073.9,-198.33 3259.85,-164.96"/>
<polygon fill="midnightblue" stroke="midnightblue" points="3260.6,-168.38 3269.81,-163.15 3259.35,-161.5 3260.6,-168.38"/>
</g>
<!-- Node22 -->
<g id="node22" class="node">
<title>Node22</title>
<g id="a_node22"><a xlink:title=" ">
<polygon fill="white" stroke="#bfbfbf" points="3451,-118 3451,-159 3660,-159 3660,-118 3451,-118"/>
<text text-anchor="start" x="3459" y="-147" font-family="Helvetica,sans-Serif" font-size="10.00">asm/JSystem/J2DGraph</text>
<text text-anchor="start" x="3459" y="-136" font-family="Helvetica,sans-Serif" font-size="10.00">/J2DAnimation/searchUpdateMaterial</text>
<text text-anchor="middle" x="3555.5" y="-125" font-family="Helvetica,sans-Serif" font-size="10.00">ID__15J2DAnmTevRegKeyFP9J2DScreen.s</text>
</a>
</g>
</g>
<!-- Node1&#45;&gt;Node22 -->
<g id="edge23" class="edge">
<title>Node1&#45;&gt;Node22</title>
<path fill="none" stroke="midnightblue" d="M2763.22,-214.53C2889.33,-211.79 3191.82,-201.63 3442.5,-165 3450.2,-163.88 3458.15,-162.51 3466.1,-161"/>
<polygon fill="midnightblue" stroke="midnightblue" points="3467.01,-164.39 3476.15,-159.02 3465.66,-157.52 3467.01,-164.39"/>
</g>
<!-- Node23 -->
<g id="node23" class="node">
<title>Node23</title>
<g id="a_node23"><a xlink:title=" ">
<polygon fill="white" stroke="#bfbfbf" points="3678.5,-123.5 3678.5,-153.5 3838.5,-153.5 3838.5,-123.5 3678.5,-123.5"/>
<text text-anchor="start" x="3686.5" y="-141.5" font-family="Helvetica,sans-Serif" font-size="10.00">asm/JSystem/J2DGraph</text>
<text text-anchor="middle" x="3758.5" y="-130.5" font-family="Helvetica,sans-Serif" font-size="10.00">/J2DAnimation/func_8030C77C.s</text>
</a>
</g>
</g>
<!-- Node1&#45;&gt;Node23 -->
<g id="edge24" class="edge">
<title>Node1&#45;&gt;Node23</title>
<path fill="none" stroke="midnightblue" d="M2763.09,-214.15C2945.38,-209.76 3493.72,-194.39 3669.5,-165 3681.76,-162.95 3694.74,-159.81 3706.88,-156.43"/>
<polygon fill="midnightblue" stroke="midnightblue" points="3708.21,-159.69 3716.84,-153.55 3706.27,-152.96 3708.21,-159.69"/>
</g>
<!-- Node24 -->
<g id="node24" class="node">
<title>Node24</title>
<g id="a_node24"><a xlink:title=" ">
<polygon fill="white" stroke="#bfbfbf" points="3856.5,-123.5 3856.5,-153.5 4016.5,-153.5 4016.5,-123.5 3856.5,-123.5"/>
<text text-anchor="start" x="3864.5" y="-141.5" font-family="Helvetica,sans-Serif" font-size="10.00">asm/JSystem/J2DGraph</text>
<text text-anchor="middle" x="3936.5" y="-130.5" font-family="Helvetica,sans-Serif" font-size="10.00">/J2DAnimation/func_8030C9B0.s</text>
</a>
</g>
</g>
<!-- Node1&#45;&gt;Node24 -->
<g id="edge25" class="edge">
<title>Node1&#45;&gt;Node24</title>
<path fill="none" stroke="midnightblue" d="M2763.04,-214.72C2966.85,-211.75 3635.59,-199.54 3847.5,-165 3859.77,-163 3872.75,-159.88 3884.89,-156.5"/>
<polygon fill="midnightblue" stroke="midnightblue" points="3886.22,-159.76 3894.86,-153.62 3884.28,-153.04 3886.22,-159.76"/>
</g>
<!-- Node25 -->
<g id="node25" class="node">
<title>Node25</title>
<g id="a_node25"><a xlink:title=" ">
<polygon fill="white" stroke="#bfbfbf" points="4035,-118 4035,-159 4268,-159 4268,-118 4035,-118"/>
<text text-anchor="start" x="4043" y="-147" font-family="Helvetica,sans-Serif" font-size="10.00">asm/JSystem/J2DGraph</text>
<text text-anchor="start" x="4043" y="-136" font-family="Helvetica,sans-Serif" font-size="10.00">/J2DAnimation/__ct__Q216J2DAnm</text>
<text text-anchor="middle" x="4151.5" y="-125" font-family="Helvetica,sans-Serif" font-size="10.00">TexPattern27J2DAnmTexPatternTIMGPointerFv.s</text>
</a>
</g>
</g>
<!-- Node1&#45;&gt;Node25 -->
<g id="edge26" class="edge">
<title>Node1&#45;&gt;Node25</title>
<path fill="none" stroke="midnightblue" d="M2763.1,-214.5C2986.74,-210.57 3775.92,-194.82 4025.5,-165 4034.88,-163.88 4044.59,-162.43 4054.28,-160.8"/>
<polygon fill="midnightblue" stroke="midnightblue" points="4055.11,-164.21 4064.36,-159.03 4053.9,-157.31 4055.11,-164.21"/>
</g>
<!-- Node26 -->
<g id="node26" class="node">
<title>Node26</title>
<g id="a_node26"><a xlink:title=" ">
<polygon fill="white" stroke="#bfbfbf" points="4286,-118 4286,-159 4519,-159 4519,-118 4286,-118"/>
<text text-anchor="start" x="4294" y="-147" font-family="Helvetica,sans-Serif" font-size="10.00">asm/JSystem/J2DGraph</text>
<text text-anchor="start" x="4294" y="-136" font-family="Helvetica,sans-Serif" font-size="10.00">/J2DAnimation/__dt__Q216J2DAnm</text>
<text text-anchor="middle" x="4402.5" y="-125" font-family="Helvetica,sans-Serif" font-size="10.00">TexPattern27J2DAnmTexPatternTIMGPointerFv.s</text>
</a>
</g>
</g>
<!-- Node1&#45;&gt;Node26 -->
<g id="edge27" class="edge">
<title>Node1&#45;&gt;Node26</title>
<path fill="none" stroke="midnightblue" d="M2763.04,-214.94C3012.68,-212.37 3975.91,-200.34 4277.5,-165 4286.89,-163.9 4296.62,-162.46 4306.32,-160.82"/>
<polygon fill="midnightblue" stroke="midnightblue" points="4307.16,-164.22 4316.4,-159.04 4305.94,-157.33 4307.16,-164.22"/>
</g>
<!-- Node27 -->
<g id="node27" class="node">
<title>Node27</title>
<g id="a_node27"><a xlink:title=" ">
<polygon fill="white" stroke="#bfbfbf" points="4537,-118 4537,-159 4698,-159 4698,-118 4537,-118"/>
<text text-anchor="start" x="4545" y="-147" font-family="Helvetica,sans-Serif" font-size="10.00">asm/JSystem/J2DGraph</text>
<text text-anchor="start" x="4545" y="-136" font-family="Helvetica,sans-Serif" font-size="10.00">/J2DAnimation/__dt__16J2DAnm</text>
<text text-anchor="middle" x="4617.5" y="-125" font-family="Helvetica,sans-Serif" font-size="10.00">TexPatternFv.s</text>
</a>
</g>
</g>
<!-- Node1&#45;&gt;Node27 -->
<g id="edge28" class="edge">
<title>Node1&#45;&gt;Node27</title>
<path fill="none" stroke="midnightblue" d="M2763.17,-215.86C3037.19,-217.21 4176.69,-219.38 4528.5,-165 4534.4,-164.09 4540.47,-162.9 4546.52,-161.54"/>
<polygon fill="midnightblue" stroke="midnightblue" points="4547.76,-164.85 4556.67,-159.11 4546.13,-158.04 4547.76,-164.85"/>
</g>
<!-- Node28 -->
<g id="node28" class="node">
<title>Node28</title>
<g id="a_node28"><a xlink:title=" ">
<polygon fill="white" stroke="#bfbfbf" points="4716,-118 4716,-159 4877,-159 4877,-118 4716,-118"/>
<text text-anchor="start" x="4724" y="-147" font-family="Helvetica,sans-Serif" font-size="10.00">asm/JSystem/J2DGraph</text>
<text text-anchor="start" x="4724" y="-136" font-family="Helvetica,sans-Serif" font-size="10.00">/J2DAnimation/__dt__17J2DAnm</text>
<text text-anchor="middle" x="4796.5" y="-125" font-family="Helvetica,sans-Serif" font-size="10.00">VtxColorKeyFv.s</text>
</a>
</g>
</g>
<!-- Node1&#45;&gt;Node28 -->
<g id="edge29" class="edge">
<title>Node1&#45;&gt;Node28</title>
<path fill="none" stroke="midnightblue" d="M2763.14,-214.9C3075.01,-211.63 4511.42,-195.06 4707.5,-165 4713.65,-164.06 4719.98,-162.82 4726.29,-161.39"/>
<polygon fill="midnightblue" stroke="midnightblue" points="4727.25,-164.76 4736.16,-159.01 4725.61,-157.95 4727.25,-164.76"/>
</g>
<!-- Node29 -->
<g id="node29" class="node">
<title>Node29</title>
<g id="a_node29"><a xlink:title=" ">
<polygon fill="white" stroke="#bfbfbf" points="4895,-118 4895,-159 5056,-159 5056,-118 4895,-118"/>
<text text-anchor="start" x="4903" y="-147" font-family="Helvetica,sans-Serif" font-size="10.00">asm/JSystem/J2DGraph</text>
<text text-anchor="start" x="4903" y="-136" font-family="Helvetica,sans-Serif" font-size="10.00">/J2DAnimation/__dt__18J2DAnm</text>
<text text-anchor="middle" x="4975.5" y="-125" font-family="Helvetica,sans-Serif" font-size="10.00">VtxColorFullFv.s</text>
</a>
</g>
</g>
<!-- Node1&#45;&gt;Node29 -->
<g id="edge30" class="edge">
<title>Node1&#45;&gt;Node29</title>
<path fill="none" stroke="midnightblue" d="M2763.26,-215.03C3091.85,-212.32 4671.77,-197.69 4886.5,-165 4892.65,-164.06 4898.98,-162.83 4905.29,-161.4"/>
<polygon fill="midnightblue" stroke="midnightblue" points="4906.26,-164.77 4915.16,-159.03 4904.62,-157.96 4906.26,-164.77"/>
</g>
<!-- Node30 -->
<g id="node30" class="node">
<title>Node30</title>
<g id="a_node30"><a xlink:title=" ">
<polygon fill="white" stroke="#bfbfbf" points="5074,-118 5074,-159 5235,-159 5235,-118 5074,-118"/>
<text text-anchor="start" x="5082" y="-147" font-family="Helvetica,sans-Serif" font-size="10.00">asm/JSystem/J2DGraph</text>
<text text-anchor="start" x="5082" y="-136" font-family="Helvetica,sans-Serif" font-size="10.00">/J2DAnimation/__dt__15J2DAnm</text>
<text text-anchor="middle" x="5154.5" y="-125" font-family="Helvetica,sans-Serif" font-size="10.00">ColorFullFv.s</text>
</a>
</g>
</g>
<!-- Node1&#45;&gt;Node30 -->
<g id="edge31" class="edge">
<title>Node1&#45;&gt;Node30</title>
<path fill="none" stroke="midnightblue" d="M2763.02,-215.14C3106.87,-212.97 4832,-200.34 5065.5,-165 5071.65,-164.07 5077.98,-162.84 5084.29,-161.41"/>
<polygon fill="midnightblue" stroke="midnightblue" points="5085.26,-164.78 5094.16,-159.04 5083.62,-157.98 5085.26,-164.78"/>
</g>
<!-- Node31 -->
<g id="node31" class="node">
<title>Node31</title>
<g id="a_node31"><a xlink:title=" ">
<polygon fill="white" stroke="#bfbfbf" points="5253.5,-112.5 5253.5,-164.5 5493.5,-164.5 5493.5,-112.5 5253.5,-112.5"/>
<text text-anchor="start" x="5261.5" y="-152.5" font-family="Helvetica,sans-Serif" font-size="10.00">asm/JSystem/J2DGraph</text>
<text text-anchor="start" x="5261.5" y="-141.5" font-family="Helvetica,sans-Serif" font-size="10.00">/J2DAnimation/getTransform</text>
<text text-anchor="start" x="5261.5" y="-130.5" font-family="Helvetica,sans-Serif" font-size="10.00">__18J2DAnmTransformKeyCFUsP16J3DTransform</text>
<text text-anchor="middle" x="5373.5" y="-119.5" font-family="Helvetica,sans-Serif" font-size="10.00">Info.s</text>
</a>
</g>
</g>
<!-- Node1&#45;&gt;Node31 -->
<g id="edge32" class="edge">
<title>Node1&#45;&gt;Node31</title>
<path fill="none" stroke="midnightblue" d="M2763.09,-215.73C3095.02,-216.83 4719.36,-219.31 5243.16,-165.04"/>
<polygon fill="midnightblue" stroke="midnightblue" points="5243.86,-168.48 5253.44,-163.95 5243.13,-161.52 5243.86,-168.48"/>
</g>
<!-- Node32 -->
<g id="node32" class="node">
<title>Node32</title>
<g id="a_node32"><a xlink:title=" ">
<polygon fill="white" stroke="#bfbfbf" points="5512,-118 5512,-159 5673,-159 5673,-118 5512,-118"/>
<text text-anchor="start" x="5520" y="-147" font-family="Helvetica,sans-Serif" font-size="10.00">asm/JSystem/J2DGraph</text>
<text text-anchor="start" x="5520" y="-136" font-family="Helvetica,sans-Serif" font-size="10.00">/J2DAnimation/__dt__19J2DAnm</text>
<text text-anchor="middle" x="5592.5" y="-125" font-family="Helvetica,sans-Serif" font-size="10.00">TransformFullFv.s</text>
</a>
</g>
</g>
<!-- Node1&#45;&gt;Node32 -->
<g id="edge33" class="edge">
<title>Node1&#45;&gt;Node32</title>
<path fill="none" stroke="midnightblue" d="M2763.17,-215.35C3143.61,-214.25 5223.13,-206.39 5502.5,-165 5508.72,-164.08 5515.12,-162.85 5521.5,-161.44"/>
<polygon fill="midnightblue" stroke="midnightblue" points="5522.55,-164.78 5531.48,-159.07 5520.94,-157.97 5522.55,-164.78"/>
</g>
<!-- Node3 -->
<g id="node3" class="node">
<title>Node3</title>
<g id="a_node3"><a xlink:href="GXTexture_8h.html" target="_top" xlink:title=" ">
<polygon fill="white" stroke="black" points="18,-56.5 18,-75.5 135,-75.5 135,-56.5 18,-56.5"/>
<text text-anchor="middle" x="76.5" y="-63.5" font-family="Helvetica,sans-Serif" font-size="10.00">dolphin/gx/GXTexture.h</text>
</a>
</g>
</g>
<!-- Node2&#45;&gt;Node3 -->
<g id="edge2" class="edge">
<title>Node2&#45;&gt;Node3</title>
<path fill="none" stroke="midnightblue" d="M85.27,-128.86C83.76,-118.18 81.14,-99.72 79.16,-85.73"/>
<polygon fill="midnightblue" stroke="midnightblue" points="82.61,-85.12 77.74,-75.72 75.68,-86.11 82.61,-85.12"/>
</g>
<!-- Node2&#45;&gt;Node4 -->
<g id="edge4" class="edge">
<title>Node2&#45;&gt;Node4</title>
<path fill="none" stroke="midnightblue" d="M96.84,-128.99C109.56,-118 130.99,-97.69 143.5,-76 151.79,-61.62 157.01,-43.42 160.03,-29.94"/>
<polygon fill="midnightblue" stroke="midnightblue" points="163.5,-30.41 162.07,-19.92 156.64,-29.02 163.5,-30.41"/>
</g>
<!-- Node3&#45;&gt;Node4 -->
<g id="edge3" class="edge">
<title>Node3&#45;&gt;Node4</title>
<path fill="none" stroke="midnightblue" d="M90.48,-56.32C104.05,-47.9 124.88,-34.97 140.82,-25.07"/>
<polygon fill="midnightblue" stroke="midnightblue" points="142.91,-27.9 149.56,-19.65 139.21,-21.95 142.91,-27.9"/>
</g>
</g>
</svg>
