<?xml version="1.0" encoding="UTF-8" standalone="no"?>
<!DOCTYPE svg PUBLIC "-//W3C//DTD SVG 1.1//EN"
 "http://www.w3.org/Graphics/SVG/1.1/DTD/svg11.dtd">
<!-- Generated by graphviz version 2.44.0 ()
 -->
<!-- Title: libs/JSystem/J2DGraph/J2DGrafContext.cpp Pages: 1 -->
<svg width="2492pt" height="285pt"
 viewBox="0.00 0.00 2492.00 285.00" xmlns="http://www.w3.org/2000/svg" xmlns:xlink="http://www.w3.org/1999/xlink">
<g id="graph0" class="graph" transform="scale(1 1) rotate(0) translate(4 281)">
<title>libs/JSystem/J2DGraph/J2DGrafContext.cpp</title>
<polygon fill="white" stroke="transparent" points="-4,4 -4,-281 2488,-281 2488,4 -4,4"/>
<!-- Node1 -->
<g id="node1" class="node">
<title>Node1</title>
<g id="a_node1"><a xlink:title=" ">
<polygon fill="#bfbfbf" stroke="black" points="1199,-246.5 1199,-276.5 1318,-276.5 1318,-246.5 1199,-246.5"/>
<text text-anchor="start" x="1207" y="-264.5" font-family="Helvetica,sans-Serif" font-size="10.00">libs/JSystem/J2DGraph</text>
<text text-anchor="middle" x="1258.5" y="-253.5" font-family="Helvetica,sans-Serif" font-size="10.00">/J2DGrafContext.cpp</text>
</a>
</g>
</g>
<!-- Node2 -->
<g id="node2" class="node">
<title>Node2</title>
<g id="a_node2"><a xlink:href="J2DGrafContext_8h.html" target="_top" xlink:title=" ">
<polygon fill="white" stroke="black" points="109.5,-174 109.5,-204 249.5,-204 249.5,-174 109.5,-174"/>
<text text-anchor="start" x="117.5" y="-192" font-family="Helvetica,sans-Serif" font-size="10.00">JSystem/J2DGraph/J2DGraf</text>
<text text-anchor="middle" x="179.5" y="-181" font-family="Helvetica,sans-Serif" font-size="10.00">Context.h</text>
</a>
</g>
</g>
<!-- Node1&#45;&gt;Node2 -->
<g id="edge1" class="edge">
<title>Node1&#45;&gt;Node2</title>
<path fill="none" stroke="midnightblue" d="M1198.99,-258.66C1052.57,-253.83 663.17,-239.09 339.5,-210 313.53,-207.67 285.28,-204.38 259.85,-201.15"/>
<polygon fill="midnightblue" stroke="midnightblue" points="260.24,-197.67 249.88,-199.87 259.35,-204.62 260.24,-197.67"/>
</g>
<!-- Node4 -->
<g id="node4" class="node">
<title>Node4</title>
<g id="a_node4"><a xlink:href="types_8h.html" target="_top" xlink:title=" ">
<polygon fill="white" stroke="black" points="139,-0.5 139,-19.5 220,-19.5 220,-0.5 139,-0.5"/>
<text text-anchor="middle" x="179.5" y="-7.5" font-family="Helvetica,sans-Serif" font-size="10.00">dolphin/types.h</text>
</a>
</g>
</g>
<!-- Node1&#45;&gt;Node4 -->
<g id="edge10" class="edge">
<title>Node1&#45;&gt;Node4</title>
<path fill="none" stroke="midnightblue" d="M1198.99,-261.11C1010.75,-262.48 436.89,-262.31 373.5,-210 319.04,-165.06 383.56,-106.78 334.5,-56 307.51,-28.06 264.28,-17.18 230.33,-13.08"/>
<polygon fill="midnightblue" stroke="midnightblue" points="230.43,-9.57 220.12,-12.02 229.7,-16.54 230.43,-9.57"/>
</g>
<!-- Node7 -->
<g id="node7" class="node">
<title>Node7</title>
<g id="a_node7"><a xlink:href="dol2asm_8h.html" target="_top" xlink:title=" ">
<polygon fill="white" stroke="black" points="382,-179.5 382,-198.5 443,-198.5 443,-179.5 382,-179.5"/>
<text text-anchor="middle" x="412.5" y="-186.5" font-family="Helvetica,sans-Serif" font-size="10.00">dol2asm.h</text>
</a>
</g>
</g>
<!-- Node1&#45;&gt;Node7 -->
<g id="edge9" class="edge">
<title>Node1&#45;&gt;Node7</title>
<path fill="none" stroke="midnightblue" d="M1198.97,-259.84C1037.38,-257.56 593.3,-247.92 452.5,-210 446.78,-208.46 440.92,-206.06 435.51,-203.46"/>
<polygon fill="midnightblue" stroke="midnightblue" points="436.87,-200.22 426.39,-198.68 433.62,-206.42 436.87,-200.22"/>
</g>
<!-- Node8 -->
<g id="node8" class="node">
<title>Node8</title>
<g id="a_node8"><a xlink:title=" ">
<polygon fill="white" stroke="#bfbfbf" points="461,-168.5 461,-209.5 592,-209.5 592,-168.5 461,-168.5"/>
<text text-anchor="start" x="469" y="-197.5" font-family="Helvetica,sans-Serif" font-size="10.00">asm/JSystem/J2DGraph</text>
<text text-anchor="start" x="469" y="-186.5" font-family="Helvetica,sans-Serif" font-size="10.00">/J2DGrafContext/__ct</text>
<text text-anchor="middle" x="526.5" y="-175.5" font-family="Helvetica,sans-Serif" font-size="10.00">__14J2DGrafContextFffff.s</text>
</a>
</g>
</g>
<!-- Node1&#45;&gt;Node8 -->
<g id="edge11" class="edge">
<title>Node1&#45;&gt;Node8</title>
<path fill="none" stroke="midnightblue" d="M1198.71,-259.57C1084.43,-257.01 827.12,-247.4 602.21,-209.94"/>
<polygon fill="midnightblue" stroke="midnightblue" points="602.64,-206.46 592.2,-208.25 601.48,-213.37 602.64,-206.46"/>
</g>
<!-- Node9 -->
<g id="node9" class="node">
<title>Node9</title>
<g id="a_node9"><a xlink:title=" ">
<polygon fill="white" stroke="#bfbfbf" points="610,-168.5 610,-209.5 735,-209.5 735,-168.5 610,-168.5"/>
<text text-anchor="start" x="618" y="-197.5" font-family="Helvetica,sans-Serif" font-size="10.00">asm/JSystem/J2DGraph</text>
<text text-anchor="start" x="618" y="-186.5" font-family="Helvetica,sans-Serif" font-size="10.00">/J2DGrafContext/setPort</text>
<text text-anchor="middle" x="672.5" y="-175.5" font-family="Helvetica,sans-Serif" font-size="10.00">__14J2DGrafContextFv.s</text>
</a>
</g>
</g>
<!-- Node1&#45;&gt;Node9 -->
<g id="edge12" class="edge">
<title>Node1&#45;&gt;Node9</title>
<path fill="none" stroke="midnightblue" d="M1198.67,-257.98C1104.16,-253.27 914.53,-240.83 745.03,-209.92"/>
<polygon fill="midnightblue" stroke="midnightblue" points="745.65,-206.48 735.18,-208.1 744.38,-213.36 745.65,-206.48"/>
</g>
<!-- Node10 -->
<g id="node10" class="node">
<title>Node10</title>
<g id="a_node10"><a xlink:title=" ">
<polygon fill="white" stroke="#bfbfbf" points="753.5,-168.5 753.5,-209.5 881.5,-209.5 881.5,-168.5 753.5,-168.5"/>
<text text-anchor="start" x="761.5" y="-197.5" font-family="Helvetica,sans-Serif" font-size="10.00">asm/JSystem/J2DGraph</text>
<text text-anchor="start" x="761.5" y="-186.5" font-family="Helvetica,sans-Serif" font-size="10.00">/J2DGrafContext/setup2D</text>
<text text-anchor="middle" x="817.5" y="-175.5" font-family="Helvetica,sans-Serif" font-size="10.00">__14J2DGrafContextFv.s</text>
</a>
</g>
</g>
<!-- Node1&#45;&gt;Node10 -->
<g id="edge13" class="edge">
<title>Node1&#45;&gt;Node10</title>
<path fill="none" stroke="midnightblue" d="M1198.82,-254.74C1127.76,-247.34 1005.39,-232.9 891.79,-210.14"/>
<polygon fill="midnightblue" stroke="midnightblue" points="892.37,-206.69 881.88,-208.13 890.98,-213.55 892.37,-206.69"/>
</g>
<!-- Node11 -->
<g id="node11" class="node">
<title>Node11</title>
<g id="a_node11"><a xlink:title=" ">
<polygon fill="white" stroke="#bfbfbf" points="899.5,-168.5 899.5,-209.5 1037.5,-209.5 1037.5,-168.5 899.5,-168.5"/>
<text text-anchor="start" x="907.5" y="-197.5" font-family="Helvetica,sans-Serif" font-size="10.00">asm/JSystem/J2DGraph</text>
<text text-anchor="start" x="907.5" y="-186.5" font-family="Helvetica,sans-Serif" font-size="10.00">/J2DGrafContext/setScissor</text>
<text text-anchor="middle" x="968.5" y="-175.5" font-family="Helvetica,sans-Serif" font-size="10.00">__14J2DGrafContextFv.s</text>
</a>
</g>
</g>
<!-- Node1&#45;&gt;Node11 -->
<g id="edge14" class="edge">
<title>Node1&#45;&gt;Node11</title>
<path fill="none" stroke="midnightblue" d="M1198.88,-246.45C1158.9,-236.98 1104.82,-224.07 1047.78,-210.05"/>
<polygon fill="midnightblue" stroke="midnightblue" points="1048.4,-206.6 1037.85,-207.61 1046.72,-213.4 1048.4,-206.6"/>
</g>
<!-- Node12 -->
<g id="node12" class="node">
<title>Node12</title>
<g id="a_node12"><a xlink:title=" ">
<polygon fill="white" stroke="#bfbfbf" points="1056,-168.5 1056,-209.5 1179,-209.5 1179,-168.5 1056,-168.5"/>
<text text-anchor="start" x="1064" y="-197.5" font-family="Helvetica,sans-Serif" font-size="10.00">asm/JSystem/J2DGraph</text>
<text text-anchor="start" x="1064" y="-186.5" font-family="Helvetica,sans-Serif" font-size="10.00">/J2DGrafContext/func</text>
<text text-anchor="middle" x="1117.5" y="-175.5" font-family="Helvetica,sans-Serif" font-size="10.00">_802E90C0.s</text>
</a>
</g>
</g>
<!-- Node1&#45;&gt;Node12 -->
<g id="edge15" class="edge">
<title>Node1&#45;&gt;Node12</title>
<path fill="none" stroke="midnightblue" d="M1230.31,-246.4C1211.81,-237.16 1187.15,-224.83 1165.61,-214.05"/>
<polygon fill="midnightblue" stroke="midnightblue" points="1167.1,-210.89 1156.59,-209.55 1163.97,-217.15 1167.1,-210.89"/>
</g>
<!-- Node13 -->
<g id="node13" class="node">
<title>Node13</title>
<g id="a_node13"><a xlink:title=" ">
<polygon fill="white" stroke="#bfbfbf" points="1197,-168.5 1197,-209.5 1320,-209.5 1320,-168.5 1197,-168.5"/>
<text text-anchor="start" x="1205" y="-197.5" font-family="Helvetica,sans-Serif" font-size="10.00">asm/JSystem/J2DGraph</text>
<text text-anchor="start" x="1205" y="-186.5" font-family="Helvetica,sans-Serif" font-size="10.00">/J2DGrafContext/func</text>
<text text-anchor="middle" x="1258.5" y="-175.5" font-family="Helvetica,sans-Serif" font-size="10.00">_802E90E4.s</text>
</a>
</g>
</g>
<!-- Node1&#45;&gt;Node13 -->
<g id="edge16" class="edge">
<title>Node1&#45;&gt;Node13</title>
<path fill="none" stroke="midnightblue" d="M1258.5,-246.23C1258.5,-238.57 1258.5,-228.84 1258.5,-219.63"/>
<polygon fill="midnightblue" stroke="midnightblue" points="1262,-219.59 1258.5,-209.59 1255,-219.59 1262,-219.59"/>
</g>
<!-- Node14 -->
<g id="node14" class="node">
<title>Node14</title>
<g id="a_node14"><a xlink:title=" ">
<polygon fill="white" stroke="#bfbfbf" points="1338,-168.5 1338,-209.5 1461,-209.5 1461,-168.5 1338,-168.5"/>
<text text-anchor="start" x="1346" y="-197.5" font-family="Helvetica,sans-Serif" font-size="10.00">asm/JSystem/J2DGraph</text>
<text text-anchor="start" x="1346" y="-186.5" font-family="Helvetica,sans-Serif" font-size="10.00">/J2DGrafContext/func</text>
<text text-anchor="middle" x="1399.5" y="-175.5" font-family="Helvetica,sans-Serif" font-size="10.00">_802E9118.s</text>
</a>
</g>
</g>
<!-- Node1&#45;&gt;Node14 -->
<g id="edge17" class="edge">
<title>Node1&#45;&gt;Node14</title>
<path fill="none" stroke="midnightblue" d="M1286.69,-246.4C1305.19,-237.16 1329.85,-224.83 1351.39,-214.05"/>
<polygon fill="midnightblue" stroke="midnightblue" points="1353.03,-217.15 1360.41,-209.55 1349.9,-210.89 1353.03,-217.15"/>
</g>
<!-- Node15 -->
<g id="node15" class="node">
<title>Node15</title>
<g id="a_node15"><a xlink:title=" ">
<polygon fill="white" stroke="#bfbfbf" points="1479,-168.5 1479,-209.5 1628,-209.5 1628,-168.5 1479,-168.5"/>
<text text-anchor="start" x="1487" y="-197.5" font-family="Helvetica,sans-Serif" font-size="10.00">asm/JSystem/J2DGraph</text>
<text text-anchor="start" x="1487" y="-186.5" font-family="Helvetica,sans-Serif" font-size="10.00">/J2DGrafContext/setLineWidth</text>
<text text-anchor="middle" x="1553.5" y="-175.5" font-family="Helvetica,sans-Serif" font-size="10.00">__14J2DGrafContextFUc.s</text>
</a>
</g>
</g>
<!-- Node1&#45;&gt;Node15 -->
<g id="edge18" class="edge">
<title>Node1&#45;&gt;Node15</title>
<path fill="none" stroke="midnightblue" d="M1317.91,-246.39C1358.09,-236.84 1412.63,-223.86 1469.04,-210.35"/>
<polygon fill="midnightblue" stroke="midnightblue" points="1469.94,-213.73 1478.85,-208 1468.31,-206.92 1469.94,-213.73"/>
</g>
<!-- Node16 -->
<g id="node16" class="node">
<title>Node16</title>
<g id="a_node16"><a xlink:title=" ">
<polygon fill="white" stroke="#bfbfbf" points="1646,-168.5 1646,-209.5 1769,-209.5 1769,-168.5 1646,-168.5"/>
<text text-anchor="start" x="1654" y="-197.5" font-family="Helvetica,sans-Serif" font-size="10.00">asm/JSystem/J2DGraph</text>
<text text-anchor="start" x="1654" y="-186.5" font-family="Helvetica,sans-Serif" font-size="10.00">/J2DGrafContext/func</text>
<text text-anchor="middle" x="1707.5" y="-175.5" font-family="Helvetica,sans-Serif" font-size="10.00">_802E9260.s</text>
</a>
</g>
</g>
<!-- Node1&#45;&gt;Node16 -->
<g id="edge19" class="edge">
<title>Node1&#45;&gt;Node16</title>
<path fill="none" stroke="midnightblue" d="M1318.03,-255.28C1391.01,-248.27 1518.51,-234.09 1635.91,-210.2"/>
<polygon fill="midnightblue" stroke="midnightblue" points="1636.7,-213.61 1645.79,-208.16 1635.28,-206.75 1636.7,-213.61"/>
</g>
<!-- Node17 -->
<g id="node17" class="node">
<title>Node17</title>
<g id="a_node17"><a xlink:title=" ">
<polygon fill="white" stroke="#bfbfbf" points="1787,-168.5 1787,-209.5 1910,-209.5 1910,-168.5 1787,-168.5"/>
<text text-anchor="start" x="1795" y="-197.5" font-family="Helvetica,sans-Serif" font-size="10.00">asm/JSystem/J2DGraph</text>
<text text-anchor="start" x="1795" y="-186.5" font-family="Helvetica,sans-Serif" font-size="10.00">/J2DGrafContext/func</text>
<text text-anchor="middle" x="1848.5" y="-175.5" font-family="Helvetica,sans-Serif" font-size="10.00">_802E9368.s</text>
</a>
</g>
</g>
<!-- Node1&#45;&gt;Node17 -->
<g id="edge20" class="edge">
<title>Node1&#45;&gt;Node17</title>
<path fill="none" stroke="midnightblue" d="M1318.27,-258.22C1413.64,-253.81 1606.13,-241.76 1776.89,-210.15"/>
<polygon fill="midnightblue" stroke="midnightblue" points="1777.63,-213.57 1786.81,-208.28 1776.34,-206.69 1777.63,-213.57"/>
</g>
<!-- Node18 -->
<g id="node18" class="node">
<title>Node18</title>
<g id="a_node18"><a xlink:title=" ">
<polygon fill="white" stroke="#bfbfbf" points="1928,-168.5 1928,-209.5 2051,-209.5 2051,-168.5 1928,-168.5"/>
<text text-anchor="start" x="1936" y="-197.5" font-family="Helvetica,sans-Serif" font-size="10.00">asm/JSystem/J2DGraph</text>
<text text-anchor="start" x="1936" y="-186.5" font-family="Helvetica,sans-Serif" font-size="10.00">/J2DGrafContext/func</text>
<text text-anchor="middle" x="1989.5" y="-175.5" font-family="Helvetica,sans-Serif" font-size="10.00">_802E9488.s</text>
</a>
</g>
</g>
<!-- Node1&#45;&gt;Node18 -->
<g id="edge21" class="edge">
<title>Node1&#45;&gt;Node18</title>
<path fill="none" stroke="midnightblue" d="M1318.26,-259.96C1433.11,-258.06 1692.54,-249.53 1917.8,-210.13"/>
<polygon fill="midnightblue" stroke="midnightblue" points="1918.59,-213.55 1927.82,-208.35 1917.36,-206.65 1918.59,-213.55"/>
</g>
<!-- Node19 -->
<g id="node19" class="node">
<title>Node19</title>
<g id="a_node19"><a xlink:title=" ">
<polygon fill="white" stroke="#bfbfbf" points="2069,-168.5 2069,-209.5 2192,-209.5 2192,-168.5 2069,-168.5"/>
<text text-anchor="start" x="2077" y="-197.5" font-family="Helvetica,sans-Serif" font-size="10.00">asm/JSystem/J2DGraph</text>
<text text-anchor="start" x="2077" y="-186.5" font-family="Helvetica,sans-Serif" font-size="10.00">/J2DGrafContext/func</text>
<text text-anchor="middle" x="2130.5" y="-175.5" font-family="Helvetica,sans-Serif" font-size="10.00">_802E9564.s</text>
</a>
</g>
</g>
<!-- Node1&#45;&gt;Node19 -->
<g id="edge22" class="edge">
<title>Node1&#45;&gt;Node19</title>
<path fill="none" stroke="midnightblue" d="M1318.12,-261.11C1450.38,-261.53 1778.24,-257.38 2058.87,-210.1"/>
<polygon fill="midnightblue" stroke="midnightblue" points="2059.56,-213.53 2068.83,-208.4 2058.38,-206.63 2059.56,-213.53"/>
</g>
<!-- Node20 -->
<g id="node20" class="node">
<title>Node20</title>
<g id="a_node20"><a xlink:title=" ">
<polygon fill="white" stroke="#bfbfbf" points="2210,-168.5 2210,-209.5 2335,-209.5 2335,-168.5 2210,-168.5"/>
<text text-anchor="start" x="2218" y="-197.5" font-family="Helvetica,sans-Serif" font-size="10.00">asm/JSystem/J2DGraph</text>
<text text-anchor="start" x="2218" y="-186.5" font-family="Helvetica,sans-Serif" font-size="10.00">/J2DGrafContext/__dt</text>
<text text-anchor="middle" x="2272.5" y="-175.5" font-family="Helvetica,sans-Serif" font-size="10.00">__14J2DGrafContextFv.s</text>
</a>
</g>
</g>
<!-- Node1&#45;&gt;Node20 -->
<g id="edge23" class="edge">
<title>Node1&#45;&gt;Node20</title>
<path fill="none" stroke="midnightblue" d="M1318.25,-259.03C1494.51,-254.42 2011.22,-238.9 2199.87,-210.04"/>
<polygon fill="midnightblue" stroke="midnightblue" points="2200.63,-213.46 2209.95,-208.43 2199.52,-206.55 2200.63,-213.46"/>
</g>
<!-- Node21 -->
<g id="node21" class="node">
<title>Node21</title>
<g id="a_node21"><a xlink:title=" ">
<polygon fill="white" stroke="#bfbfbf" points="2353,-168.5 2353,-209.5 2484,-209.5 2484,-168.5 2353,-168.5"/>
<text text-anchor="start" x="2361" y="-197.5" font-family="Helvetica,sans-Serif" font-size="10.00">asm/JSystem/J2DGraph</text>
<text text-anchor="start" x="2361" y="-186.5" font-family="Helvetica,sans-Serif" font-size="10.00">/J2DGrafContext/place</text>
<text text-anchor="middle" x="2418.5" y="-175.5" font-family="Helvetica,sans-Serif" font-size="10.00">__14J2DGrafContextFffff.s</text>
</a>
</g>
</g>
<!-- Node1&#45;&gt;Node21 -->
<g id="edge24" class="edge">
<title>Node1&#45;&gt;Node21</title>
<path fill="none" stroke="midnightblue" d="M1318.06,-259.44C1511.95,-255.71 2124.6,-241.79 2342.8,-210.05"/>
<polygon fill="midnightblue" stroke="midnightblue" points="2343.53,-213.48 2352.89,-208.53 2342.48,-206.56 2343.53,-213.48"/>
</g>
<!-- Node3 -->
<g id="node3" class="node">
<title>Node3</title>
<g id="a_node3"><a xlink:href="JGeometry_8h.html" target="_top" xlink:title=" ">
<polygon fill="white" stroke="black" points="0,-56.5 0,-75.5 113,-75.5 113,-56.5 0,-56.5"/>
<text text-anchor="middle" x="56.5" y="-63.5" font-family="Helvetica,sans-Serif" font-size="10.00">JSystem/JGeometry.h</text>
</a>
</g>
</g>
<!-- Node2&#45;&gt;Node3 -->
<g id="edge2" class="edge">
<title>Node2&#45;&gt;Node3</title>
<path fill="none" stroke="midnightblue" d="M164.91,-173.64C141.7,-150.81 96.53,-106.38 72.48,-82.72"/>
<polygon fill="midnightblue" stroke="midnightblue" points="74.78,-80.07 65.19,-75.55 69.87,-85.06 74.78,-80.07"/>
</g>
<!-- Node2&#45;&gt;Node4 -->
<g id="edge8" class="edge">
<title>Node2&#45;&gt;Node4</title>
<path fill="none" stroke="midnightblue" d="M173.15,-173.6C168.62,-162.48 162.91,-146.59 160.5,-132 154.49,-95.59 165.36,-52.95 172.98,-29.25"/>
<polygon fill="midnightblue" stroke="midnightblue" points="176.39,-30.11 176.28,-19.52 169.76,-27.86 176.39,-30.11"/>
</g>
<!-- Node5 -->
<g id="node5" class="node">
<title>Node5</title>
<g id="a_node5"><a xlink:href="JUtility_8h.html" target="_top" xlink:title=" ">
<polygon fill="white" stroke="black" points="170,-112.5 170,-131.5 265,-131.5 265,-112.5 170,-112.5"/>
<text text-anchor="middle" x="217.5" y="-119.5" font-family="Helvetica,sans-Serif" font-size="10.00">JSystem/JUtility.h</text>
</a>
</g>
</g>
<!-- Node2&#45;&gt;Node5 -->
<g id="edge4" class="edge">
<title>Node2&#45;&gt;Node5</title>
<path fill="none" stroke="midnightblue" d="M187.75,-173.9C193.49,-164.06 201.2,-150.88 207.33,-140.39"/>
<polygon fill="midnightblue" stroke="midnightblue" points="210.39,-142.09 212.42,-131.69 204.35,-138.56 210.39,-142.09"/>
</g>
<!-- Node3&#45;&gt;Node4 -->
<g id="edge3" class="edge">
<title>Node3&#45;&gt;Node4</title>
<path fill="none" stroke="midnightblue" d="M75.99,-56.44C96.14,-47.6 127.82,-33.69 150.83,-23.59"/>
<polygon fill="midnightblue" stroke="midnightblue" points="152.35,-26.74 160.1,-19.52 149.54,-20.33 152.35,-26.74"/>
</g>
<!-- Node5&#45;&gt;Node4 -->
<g id="edge7" class="edge">
<title>Node5&#45;&gt;Node4</title>
<path fill="none" stroke="midnightblue" d="M213.56,-112.49C209.49,-103.53 203.11,-88.94 198.5,-76 192.96,-60.42 187.77,-42.35 184.22,-29.22"/>
<polygon fill="midnightblue" stroke="midnightblue" points="187.6,-28.29 181.65,-19.51 180.83,-30.08 187.6,-28.29"/>
</g>
<!-- Node6 -->
<g id="node6" class="node">
<title>Node6</title>
<g id="a_node6"><a xlink:href="GXTexture_8h.html" target="_top" xlink:title=" ">
<polygon fill="white" stroke="black" points="208,-56.5 208,-75.5 325,-75.5 325,-56.5 208,-56.5"/>
<text text-anchor="middle" x="266.5" y="-63.5" font-family="Helvetica,sans-Serif" font-size="10.00">dolphin/gx/GXTexture.h</text>
</a>
</g>
</g>
<!-- Node5&#45;&gt;Node6 -->
<g id="edge5" class="edge">
<title>Node5&#45;&gt;Node6</title>
<path fill="none" stroke="midnightblue" d="M225.59,-112.08C232.66,-104.3 243.09,-92.8 251.65,-83.37"/>
<polygon fill="midnightblue" stroke="midnightblue" points="254.43,-85.51 258.56,-75.75 249.25,-80.8 254.43,-85.51"/>
</g>
<!-- Node6&#45;&gt;Node4 -->
<g id="edge6" class="edge">
<title>Node6&#45;&gt;Node4</title>
<path fill="none" stroke="midnightblue" d="M252.52,-56.32C238.95,-47.9 218.12,-34.97 202.18,-25.07"/>
<polygon fill="midnightblue" stroke="midnightblue" points="203.79,-21.95 193.44,-19.65 200.09,-27.9 203.79,-21.95"/>
</g>
</g>
</svg>
