<?xml version="1.0" encoding="UTF-8" standalone="no"?>
<!DOCTYPE svg PUBLIC "-//W3C//DTD SVG 1.1//EN"
 "http://www.w3.org/Graphics/SVG/1.1/DTD/svg11.dtd">
<!-- Generated by graphviz version 2.44.0 ()
 -->
<!-- Title: libs/JSystem/J2DGraph/J2DGrafContext.cpp Pages: 1 -->
<svg width="2680pt" height="341pt"
 viewBox="0.00 0.00 2680.00 341.00" xmlns="http://www.w3.org/2000/svg" xmlns:xlink="http://www.w3.org/1999/xlink">
<g id="graph0" class="graph" transform="scale(1 1) rotate(0) translate(4 337)">
<title>libs/JSystem/J2DGraph/J2DGrafContext.cpp</title>
<polygon fill="white" stroke="transparent" points="-4,4 -4,-337 2676,-337 2676,4 -4,4"/>
<!-- Node1 -->
<g id="node1" class="node">
<title>Node1</title>
<g id="a_node1"><a xlink:title=" ">
<polygon fill="#bfbfbf" stroke="black" points="1387,-302.5 1387,-332.5 1506,-332.5 1506,-302.5 1387,-302.5"/>
<text text-anchor="start" x="1395" y="-320.5" font-family="Helvetica,sans-Serif" font-size="10.00">libs/JSystem/J2DGraph</text>
<text text-anchor="middle" x="1446.5" y="-309.5" font-family="Helvetica,sans-Serif" font-size="10.00">/J2DGrafContext.cpp</text>
</a>
</g>
</g>
<!-- Node2 -->
<g id="node2" class="node">
<title>Node2</title>
<g id="a_node2"><a xlink:href="J2DGrafContext_8h.html" target="_top" xlink:title=" ">
<polygon fill="white" stroke="black" points="177.5,-230 177.5,-260 317.5,-260 317.5,-230 177.5,-230"/>
<text text-anchor="start" x="185.5" y="-248" font-family="Helvetica,sans-Serif" font-size="10.00">JSystem/J2DGraph/J2DGraf</text>
<text text-anchor="middle" x="247.5" y="-237" font-family="Helvetica,sans-Serif" font-size="10.00">Context.h</text>
</a>
</g>
</g>
<!-- Node1&#45;&gt;Node2 -->
<g id="edge1" class="edge">
<title>Node1&#45;&gt;Node2</title>
<path fill="none" stroke="midnightblue" d="M1386.81,-313.56C1240.37,-306.27 851.63,-286.48 527.5,-266 460.19,-261.75 383.83,-256.25 327.88,-252.09"/>
<polygon fill="midnightblue" stroke="midnightblue" points="327.9,-248.58 317.67,-251.33 327.38,-255.57 327.9,-248.58"/>
</g>
<!-- Node4 -->
<g id="node4" class="node">
<title>Node4</title>
<g id="a_node4"><a xlink:href="types_8h.html" target="_top" xlink:title=" ">
<polygon fill="white" stroke="black" points="269,-0.5 269,-19.5 350,-19.5 350,-0.5 269,-0.5"/>
<text text-anchor="middle" x="309.5" y="-7.5" font-family="Helvetica,sans-Serif" font-size="10.00">dolphin/types.h</text>
</a>
</g>
</g>
<!-- Node1&#45;&gt;Node4 -->
<g id="edge17" class="edge">
<title>Node1&#45;&gt;Node4</title>
<path fill="none" stroke="midnightblue" d="M1386.75,-315.05C1193.05,-310.08 593.04,-292.61 561.5,-266 531.18,-240.41 541.5,-218.68 541.5,-179 541.5,-179 541.5,-179 541.5,-121 541.5,-90.64 543.04,-76.34 520.5,-56 497.38,-35.14 415.27,-22.39 360.56,-16.02"/>
<polygon fill="midnightblue" stroke="midnightblue" points="360.68,-12.51 350.35,-14.87 359.89,-19.47 360.68,-12.51"/>
</g>
<!-- Node10 -->
<g id="node10" class="node">
<title>Node10</title>
<g id="a_node10"><a xlink:href="dol2asm_8h.html" target="_top" xlink:title=" ">
<polygon fill="white" stroke="black" points="570,-235.5 570,-254.5 631,-254.5 631,-235.5 570,-235.5"/>
<text text-anchor="middle" x="600.5" y="-242.5" font-family="Helvetica,sans-Serif" font-size="10.00">dol2asm.h</text>
</a>
</g>
</g>
<!-- Node1&#45;&gt;Node10 -->
<g id="edge16" class="edge">
<title>Node1&#45;&gt;Node10</title>
<path fill="none" stroke="midnightblue" d="M1386.97,-315.84C1225.38,-313.56 781.3,-303.92 640.5,-266 634.78,-264.46 628.92,-262.06 623.51,-259.46"/>
<polygon fill="midnightblue" stroke="midnightblue" points="624.87,-256.22 614.39,-254.68 621.62,-262.42 624.87,-256.22"/>
</g>
<!-- Node11 -->
<g id="node11" class="node">
<title>Node11</title>
<g id="a_node11"><a xlink:title=" ">
<polygon fill="white" stroke="#bfbfbf" points="649,-224.5 649,-265.5 780,-265.5 780,-224.5 649,-224.5"/>
<text text-anchor="start" x="657" y="-253.5" font-family="Helvetica,sans-Serif" font-size="10.00">asm/JSystem/J2DGraph</text>
<text text-anchor="start" x="657" y="-242.5" font-family="Helvetica,sans-Serif" font-size="10.00">/J2DGrafContext/__ct</text>
<text text-anchor="middle" x="714.5" y="-231.5" font-family="Helvetica,sans-Serif" font-size="10.00">__14J2DGrafContextFffff.s</text>
</a>
</g>
</g>
<!-- Node1&#45;&gt;Node11 -->
<g id="edge18" class="edge">
<title>Node1&#45;&gt;Node11</title>
<path fill="none" stroke="midnightblue" d="M1386.71,-315.57C1272.43,-313.01 1015.12,-303.4 790.21,-265.94"/>
<polygon fill="midnightblue" stroke="midnightblue" points="790.64,-262.46 780.2,-264.25 789.48,-269.37 790.64,-262.46"/>
</g>
<!-- Node12 -->
<g id="node12" class="node">
<title>Node12</title>
<g id="a_node12"><a xlink:title=" ">
<polygon fill="white" stroke="#bfbfbf" points="798,-224.5 798,-265.5 923,-265.5 923,-224.5 798,-224.5"/>
<text text-anchor="start" x="806" y="-253.5" font-family="Helvetica,sans-Serif" font-size="10.00">asm/JSystem/J2DGraph</text>
<text text-anchor="start" x="806" y="-242.5" font-family="Helvetica,sans-Serif" font-size="10.00">/J2DGrafContext/setPort</text>
<text text-anchor="middle" x="860.5" y="-231.5" font-family="Helvetica,sans-Serif" font-size="10.00">__14J2DGrafContextFv.s</text>
</a>
</g>
</g>
<!-- Node1&#45;&gt;Node12 -->
<g id="edge19" class="edge">
<title>Node1&#45;&gt;Node12</title>
<path fill="none" stroke="midnightblue" d="M1386.67,-313.98C1292.16,-309.27 1102.53,-296.83 933.03,-265.92"/>
<polygon fill="midnightblue" stroke="midnightblue" points="933.65,-262.48 923.18,-264.1 932.38,-269.36 933.65,-262.48"/>
</g>
<!-- Node13 -->
<g id="node13" class="node">
<title>Node13</title>
<g id="a_node13"><a xlink:title=" ">
<polygon fill="white" stroke="#bfbfbf" points="941.5,-224.5 941.5,-265.5 1069.5,-265.5 1069.5,-224.5 941.5,-224.5"/>
<text text-anchor="start" x="949.5" y="-253.5" font-family="Helvetica,sans-Serif" font-size="10.00">asm/JSystem/J2DGraph</text>
<text text-anchor="start" x="949.5" y="-242.5" font-family="Helvetica,sans-Serif" font-size="10.00">/J2DGrafContext/setup2D</text>
<text text-anchor="middle" x="1005.5" y="-231.5" font-family="Helvetica,sans-Serif" font-size="10.00">__14J2DGrafContextFv.s</text>
</a>
</g>
</g>
<!-- Node1&#45;&gt;Node13 -->
<g id="edge20" class="edge">
<title>Node1&#45;&gt;Node13</title>
<path fill="none" stroke="midnightblue" d="M1386.82,-310.74C1315.76,-303.34 1193.39,-288.9 1079.79,-266.14"/>
<polygon fill="midnightblue" stroke="midnightblue" points="1080.37,-262.69 1069.88,-264.13 1078.98,-269.55 1080.37,-262.69"/>
</g>
<!-- Node14 -->
<g id="node14" class="node">
<title>Node14</title>
<g id="a_node14"><a xlink:title=" ">
<polygon fill="white" stroke="#bfbfbf" points="1087.5,-224.5 1087.5,-265.5 1225.5,-265.5 1225.5,-224.5 1087.5,-224.5"/>
<text text-anchor="start" x="1095.5" y="-253.5" font-family="Helvetica,sans-Serif" font-size="10.00">asm/JSystem/J2DGraph</text>
<text text-anchor="start" x="1095.5" y="-242.5" font-family="Helvetica,sans-Serif" font-size="10.00">/J2DGrafContext/setScissor</text>
<text text-anchor="middle" x="1156.5" y="-231.5" font-family="Helvetica,sans-Serif" font-size="10.00">__14J2DGrafContextFv.s</text>
</a>
</g>
</g>
<!-- Node1&#45;&gt;Node14 -->
<g id="edge21" class="edge">
<title>Node1&#45;&gt;Node14</title>
<path fill="none" stroke="midnightblue" d="M1386.88,-302.45C1346.9,-292.98 1292.82,-280.07 1235.78,-266.05"/>
<polygon fill="midnightblue" stroke="midnightblue" points="1236.4,-262.6 1225.85,-263.61 1234.72,-269.4 1236.4,-262.6"/>
</g>
<!-- Node15 -->
<g id="node15" class="node">
<title>Node15</title>
<g id="a_node15"><a xlink:title=" ">
<polygon fill="white" stroke="#bfbfbf" points="1244,-224.5 1244,-265.5 1367,-265.5 1367,-224.5 1244,-224.5"/>
<text text-anchor="start" x="1252" y="-253.5" font-family="Helvetica,sans-Serif" font-size="10.00">asm/JSystem/J2DGraph</text>
<text text-anchor="start" x="1252" y="-242.5" font-family="Helvetica,sans-Serif" font-size="10.00">/J2DGrafContext/func</text>
<text text-anchor="middle" x="1305.5" y="-231.5" font-family="Helvetica,sans-Serif" font-size="10.00">_802E90C0.s</text>
</a>
</g>
</g>
<!-- Node1&#45;&gt;Node15 -->
<g id="edge22" class="edge">
<title>Node1&#45;&gt;Node15</title>
<path fill="none" stroke="midnightblue" d="M1418.31,-302.4C1399.81,-293.16 1375.15,-280.83 1353.61,-270.05"/>
<polygon fill="midnightblue" stroke="midnightblue" points="1355.1,-266.89 1344.59,-265.55 1351.97,-273.15 1355.1,-266.89"/>
</g>
<!-- Node16 -->
<g id="node16" class="node">
<title>Node16</title>
<g id="a_node16"><a xlink:title=" ">
<polygon fill="white" stroke="#bfbfbf" points="1385,-224.5 1385,-265.5 1508,-265.5 1508,-224.5 1385,-224.5"/>
<text text-anchor="start" x="1393" y="-253.5" font-family="Helvetica,sans-Serif" font-size="10.00">asm/JSystem/J2DGraph</text>
<text text-anchor="start" x="1393" y="-242.5" font-family="Helvetica,sans-Serif" font-size="10.00">/J2DGrafContext/func</text>
<text text-anchor="middle" x="1446.5" y="-231.5" font-family="Helvetica,sans-Serif" font-size="10.00">_802E90E4.s</text>
</a>
</g>
</g>
<!-- Node1&#45;&gt;Node16 -->
<g id="edge23" class="edge">
<title>Node1&#45;&gt;Node16</title>
<path fill="none" stroke="midnightblue" d="M1446.5,-302.23C1446.5,-294.57 1446.5,-284.84 1446.5,-275.63"/>
<polygon fill="midnightblue" stroke="midnightblue" points="1450,-275.59 1446.5,-265.59 1443,-275.59 1450,-275.59"/>
</g>
<!-- Node17 -->
<g id="node17" class="node">
<title>Node17</title>
<g id="a_node17"><a xlink:title=" ">
<polygon fill="white" stroke="#bfbfbf" points="1526,-224.5 1526,-265.5 1649,-265.5 1649,-224.5 1526,-224.5"/>
<text text-anchor="start" x="1534" y="-253.5" font-family="Helvetica,sans-Serif" font-size="10.00">asm/JSystem/J2DGraph</text>
<text text-anchor="start" x="1534" y="-242.5" font-family="Helvetica,sans-Serif" font-size="10.00">/J2DGrafContext/func</text>
<text text-anchor="middle" x="1587.5" y="-231.5" font-family="Helvetica,sans-Serif" font-size="10.00">_802E9118.s</text>
</a>
</g>
</g>
<!-- Node1&#45;&gt;Node17 -->
<g id="edge24" class="edge">
<title>Node1&#45;&gt;Node17</title>
<path fill="none" stroke="midnightblue" d="M1474.69,-302.4C1493.19,-293.16 1517.85,-280.83 1539.39,-270.05"/>
<polygon fill="midnightblue" stroke="midnightblue" points="1541.03,-273.15 1548.41,-265.55 1537.9,-266.89 1541.03,-273.15"/>
</g>
<!-- Node18 -->
<g id="node18" class="node">
<title>Node18</title>
<g id="a_node18"><a xlink:title=" ">
<polygon fill="white" stroke="#bfbfbf" points="1667,-224.5 1667,-265.5 1816,-265.5 1816,-224.5 1667,-224.5"/>
<text text-anchor="start" x="1675" y="-253.5" font-family="Helvetica,sans-Serif" font-size="10.00">asm/JSystem/J2DGraph</text>
<text text-anchor="start" x="1675" y="-242.5" font-family="Helvetica,sans-Serif" font-size="10.00">/J2DGrafContext/setLineWidth</text>
<text text-anchor="middle" x="1741.5" y="-231.5" font-family="Helvetica,sans-Serif" font-size="10.00">__14J2DGrafContextFUc.s</text>
</a>
</g>
</g>
<!-- Node1&#45;&gt;Node18 -->
<g id="edge25" class="edge">
<title>Node1&#45;&gt;Node18</title>
<path fill="none" stroke="midnightblue" d="M1505.91,-302.39C1546.09,-292.84 1600.63,-279.86 1657.04,-266.35"/>
<polygon fill="midnightblue" stroke="midnightblue" points="1657.94,-269.73 1666.85,-264 1656.31,-262.92 1657.94,-269.73"/>
</g>
<!-- Node19 -->
<g id="node19" class="node">
<title>Node19</title>
<g id="a_node19"><a xlink:title=" ">
<polygon fill="white" stroke="#bfbfbf" points="1834,-224.5 1834,-265.5 1957,-265.5 1957,-224.5 1834,-224.5"/>
<text text-anchor="start" x="1842" y="-253.5" font-family="Helvetica,sans-Serif" font-size="10.00">asm/JSystem/J2DGraph</text>
<text text-anchor="start" x="1842" y="-242.5" font-family="Helvetica,sans-Serif" font-size="10.00">/J2DGrafContext/func</text>
<text text-anchor="middle" x="1895.5" y="-231.5" font-family="Helvetica,sans-Serif" font-size="10.00">_802E9260.s</text>
</a>
</g>
</g>
<!-- Node1&#45;&gt;Node19 -->
<g id="edge26" class="edge">
<title>Node1&#45;&gt;Node19</title>
<path fill="none" stroke="midnightblue" d="M1506.03,-311.28C1579.01,-304.27 1706.51,-290.09 1823.91,-266.2"/>
<polygon fill="midnightblue" stroke="midnightblue" points="1824.7,-269.61 1833.79,-264.16 1823.28,-262.75 1824.7,-269.61"/>
</g>
<!-- Node20 -->
<g id="node20" class="node">
<title>Node20</title>
<g id="a_node20"><a xlink:title=" ">
<polygon fill="white" stroke="#bfbfbf" points="1975,-224.5 1975,-265.5 2098,-265.5 2098,-224.5 1975,-224.5"/>
<text text-anchor="start" x="1983" y="-253.5" font-family="Helvetica,sans-Serif" font-size="10.00">asm/JSystem/J2DGraph</text>
<text text-anchor="start" x="1983" y="-242.5" font-family="Helvetica,sans-Serif" font-size="10.00">/J2DGrafContext/func</text>
<text text-anchor="middle" x="2036.5" y="-231.5" font-family="Helvetica,sans-Serif" font-size="10.00">_802E9368.s</text>
</a>
</g>
</g>
<!-- Node1&#45;&gt;Node20 -->
<g id="edge27" class="edge">
<title>Node1&#45;&gt;Node20</title>
<path fill="none" stroke="midnightblue" d="M1506.27,-314.22C1601.64,-309.81 1794.13,-297.76 1964.89,-266.15"/>
<polygon fill="midnightblue" stroke="midnightblue" points="1965.63,-269.57 1974.81,-264.28 1964.34,-262.69 1965.63,-269.57"/>
</g>
<!-- Node21 -->
<g id="node21" class="node">
<title>Node21</title>
<g id="a_node21"><a xlink:title=" ">
<polygon fill="white" stroke="#bfbfbf" points="2116,-224.5 2116,-265.5 2239,-265.5 2239,-224.5 2116,-224.5"/>
<text text-anchor="start" x="2124" y="-253.5" font-family="Helvetica,sans-Serif" font-size="10.00">asm/JSystem/J2DGraph</text>
<text text-anchor="start" x="2124" y="-242.5" font-family="Helvetica,sans-Serif" font-size="10.00">/J2DGrafContext/func</text>
<text text-anchor="middle" x="2177.5" y="-231.5" font-family="Helvetica,sans-Serif" font-size="10.00">_802E9488.s</text>
</a>
</g>
</g>
<!-- Node1&#45;&gt;Node21 -->
<g id="edge28" class="edge">
<title>Node1&#45;&gt;Node21</title>
<path fill="none" stroke="midnightblue" d="M1506.26,-315.96C1621.11,-314.06 1880.54,-305.53 2105.8,-266.13"/>
<polygon fill="midnightblue" stroke="midnightblue" points="2106.59,-269.55 2115.82,-264.35 2105.36,-262.65 2106.59,-269.55"/>
</g>
<!-- Node22 -->
<g id="node22" class="node">
<title>Node22</title>
<g id="a_node22"><a xlink:title=" ">
<polygon fill="white" stroke="#bfbfbf" points="2257,-224.5 2257,-265.5 2380,-265.5 2380,-224.5 2257,-224.5"/>
<text text-anchor="start" x="2265" y="-253.5" font-family="Helvetica,sans-Serif" font-size="10.00">asm/JSystem/J2DGraph</text>
<text text-anchor="start" x="2265" y="-242.5" font-family="Helvetica,sans-Serif" font-size="10.00">/J2DGrafContext/func</text>
<text text-anchor="middle" x="2318.5" y="-231.5" font-family="Helvetica,sans-Serif" font-size="10.00">_802E9564.s</text>
</a>
</g>
</g>
<!-- Node1&#45;&gt;Node22 -->
<g id="edge29" class="edge">
<title>Node1&#45;&gt;Node22</title>
<path fill="none" stroke="midnightblue" d="M1506.12,-317.11C1638.38,-317.53 1966.24,-313.38 2246.87,-266.1"/>
<polygon fill="midnightblue" stroke="midnightblue" points="2247.56,-269.53 2256.83,-264.4 2246.38,-262.63 2247.56,-269.53"/>
</g>
<!-- Node23 -->
<g id="node23" class="node">
<title>Node23</title>
<g id="a_node23"><a xlink:title=" ">
<polygon fill="white" stroke="#bfbfbf" points="2398,-224.5 2398,-265.5 2523,-265.5 2523,-224.5 2398,-224.5"/>
<text text-anchor="start" x="2406" y="-253.5" font-family="Helvetica,sans-Serif" font-size="10.00">asm/JSystem/J2DGraph</text>
<text text-anchor="start" x="2406" y="-242.5" font-family="Helvetica,sans-Serif" font-size="10.00">/J2DGrafContext/__dt</text>
<text text-anchor="middle" x="2460.5" y="-231.5" font-family="Helvetica,sans-Serif" font-size="10.00">__14J2DGrafContextFv.s</text>
</a>
</g>
</g>
<!-- Node1&#45;&gt;Node23 -->
<g id="edge30" class="edge">
<title>Node1&#45;&gt;Node23</title>
<path fill="none" stroke="midnightblue" d="M1506.25,-315.03C1682.51,-310.42 2199.22,-294.9 2387.87,-266.04"/>
<polygon fill="midnightblue" stroke="midnightblue" points="2388.63,-269.46 2397.95,-264.43 2387.52,-262.55 2388.63,-269.46"/>
</g>
<!-- Node24 -->
<g id="node24" class="node">
<title>Node24</title>
<g id="a_node24"><a xlink:title=" ">
<polygon fill="white" stroke="#bfbfbf" points="2541,-224.5 2541,-265.5 2672,-265.5 2672,-224.5 2541,-224.5"/>
<text text-anchor="start" x="2549" y="-253.5" font-family="Helvetica,sans-Serif" font-size="10.00">asm/JSystem/J2DGraph</text>
<text text-anchor="start" x="2549" y="-242.5" font-family="Helvetica,sans-Serif" font-size="10.00">/J2DGrafContext/place</text>
<text text-anchor="middle" x="2606.5" y="-231.5" font-family="Helvetica,sans-Serif" font-size="10.00">__14J2DGrafContextFffff.s</text>
</a>
</g>
</g>
<!-- Node1&#45;&gt;Node24 -->
<g id="edge31" class="edge">
<title>Node1&#45;&gt;Node24</title>
<path fill="none" stroke="midnightblue" d="M1506.06,-315.44C1699.95,-311.71 2312.6,-297.79 2530.8,-266.05"/>
<polygon fill="midnightblue" stroke="midnightblue" points="2531.53,-269.48 2540.89,-264.53 2530.48,-262.56 2531.53,-269.48"/>
</g>
<!-- Node3 -->
<g id="node3" class="node">
<title>Node3</title>
<g id="a_node3"><a xlink:href="JGeometry_8h.html" target="_top" xlink:title=" ">
<polygon fill="white" stroke="black" points="0,-168.5 0,-187.5 113,-187.5 113,-168.5 0,-168.5"/>
<text text-anchor="middle" x="56.5" y="-175.5" font-family="Helvetica,sans-Serif" font-size="10.00">JSystem/JGeometry.h</text>
</a>
</g>
</g>
<!-- Node2&#45;&gt;Node3 -->
<g id="edge2" class="edge">
<title>Node2&#45;&gt;Node3</title>
<path fill="none" stroke="midnightblue" d="M206.06,-229.9C171.65,-218.19 123.3,-201.73 90.98,-190.73"/>
<polygon fill="midnightblue" stroke="midnightblue" points="92.09,-187.42 81.5,-187.51 89.84,-194.04 92.09,-187.42"/>
</g>
<!-- Node2&#45;&gt;Node4 -->
<g id="edge15" class="edge">
<title>Node2&#45;&gt;Node4</title>
<path fill="none" stroke="midnightblue" d="M232.04,-229.84C208.95,-206.95 168.84,-159.57 175.5,-112 179.09,-86.37 174,-75.07 191.5,-56 209.01,-36.92 235.48,-25.86 258.92,-19.49"/>
<polygon fill="midnightblue" stroke="midnightblue" points="259.89,-22.86 268.75,-17.04 258.2,-16.07 259.89,-22.86"/>
</g>
<!-- Node5 -->
<g id="node5" class="node">
<title>Node5</title>
<g id="a_node5"><a xlink:href="TColor_8h.html" target="_top" xlink:title=" ">
<polygon fill="white" stroke="black" points="184,-112.5 184,-131.5 311,-131.5 311,-112.5 184,-112.5"/>
<text text-anchor="middle" x="247.5" y="-119.5" font-family="Helvetica,sans-Serif" font-size="10.00">JSystem/JUtility/TColor.h</text>
</a>
</g>
</g>
<!-- Node2&#45;&gt;Node5 -->
<g id="edge4" class="edge">
<title>Node2&#45;&gt;Node5</title>
<path fill="none" stroke="midnightblue" d="M247.5,-229.64C247.5,-207.7 247.5,-165.83 247.5,-141.59"/>
<polygon fill="midnightblue" stroke="midnightblue" points="251,-141.55 247.5,-131.55 244,-141.55 251,-141.55"/>
</g>
<!-- Node7 -->
<g id="node7" class="node">
<title>Node7</title>
<g id="a_node7"><a xlink:href="mtx_8h.html" target="_top" xlink:title=" ">
<polygon fill="white" stroke="black" points="343.5,-168.5 343.5,-187.5 435.5,-187.5 435.5,-168.5 343.5,-168.5"/>
<text text-anchor="middle" x="389.5" y="-175.5" font-family="Helvetica,sans-Serif" font-size="10.00">dolphin/mtx/mtx.h</text>
</a>
</g>
</g>
<!-- Node2&#45;&gt;Node7 -->
<g id="edge8" class="edge">
<title>Node2&#45;&gt;Node7</title>
<path fill="none" stroke="midnightblue" d="M278.31,-229.9C303.12,-218.54 337.68,-202.72 361.66,-191.74"/>
<polygon fill="midnightblue" stroke="midnightblue" points="363.28,-194.85 370.92,-187.51 360.37,-188.49 363.28,-194.85"/>
</g>
<!-- Node3&#45;&gt;Node4 -->
<g id="edge3" class="edge">
<title>Node3&#45;&gt;Node4</title>
<path fill="none" stroke="midnightblue" d="M58.97,-168.39C65.82,-146.07 87.29,-86.01 127.5,-56 165.57,-27.58 219.39,-16.94 258.63,-13.04"/>
<polygon fill="midnightblue" stroke="midnightblue" points="259.12,-16.51 268.77,-12.15 258.51,-9.54 259.12,-16.51"/>
</g>
<!-- Node5&#45;&gt;Node4 -->
<g id="edge7" class="edge">
<title>Node5&#45;&gt;Node4</title>
<path fill="none" stroke="midnightblue" d="M232.97,-112.35C214.22,-100.06 185.58,-76.73 199.5,-56 212.86,-36.09 236.76,-24.99 258.87,-18.79"/>
<polygon fill="midnightblue" stroke="midnightblue" points="260.02,-22.11 268.86,-16.28 258.31,-15.33 260.02,-22.11"/>
</g>
<!-- Node6 -->
<g id="node6" class="node">
<title>Node6</title>
<g id="a_node6"><a xlink:href="GXTexture_8h.html" target="_top" xlink:title=" ">
<polygon fill="white" stroke="black" points="208,-56.5 208,-75.5 325,-75.5 325,-56.5 208,-56.5"/>
<text text-anchor="middle" x="266.5" y="-63.5" font-family="Helvetica,sans-Serif" font-size="10.00">dolphin/gx/GXTexture.h</text>
</a>
</g>
</g>
<!-- Node5&#45;&gt;Node6 -->
<g id="edge5" class="edge">
<title>Node5&#45;&gt;Node6</title>
<path fill="none" stroke="midnightblue" d="M250.64,-112.08C253.18,-104.85 256.86,-94.41 260.03,-85.4"/>
<polygon fill="midnightblue" stroke="midnightblue" points="263.4,-86.35 263.42,-75.75 256.8,-84.02 263.4,-86.35"/>
</g>
<!-- Node6&#45;&gt;Node4 -->
<g id="edge6" class="edge">
<title>Node6&#45;&gt;Node4</title>
<path fill="none" stroke="midnightblue" d="M273.6,-56.08C279.74,-48.38 288.77,-37.03 296.24,-27.65"/>
<polygon fill="midnightblue" stroke="midnightblue" points="299.04,-29.75 302.53,-19.75 293.56,-25.39 299.04,-29.75"/>
</g>
<!-- Node7&#45;&gt;Node4 -->
<g id="edge14" class="edge">
<title>Node7&#45;&gt;Node4</title>
<path fill="none" stroke="midnightblue" d="M385.87,-168.38C377.38,-148.39 355.38,-97.42 334.5,-56 329.82,-46.71 324.22,-36.56 319.51,-28.25"/>
<polygon fill="midnightblue" stroke="midnightblue" points="322.51,-26.45 314.5,-19.52 316.44,-29.93 322.51,-26.45"/>
</g>
<!-- Node8 -->
<g id="node8" class="node">
<title>Node8</title>
<g id="a_node8"><a xlink:href="quat_8h.html" target="_top" xlink:title=" ">
<polygon fill="white" stroke="black" points="380,-112.5 380,-131.5 475,-131.5 475,-112.5 380,-112.5"/>
<text text-anchor="middle" x="427.5" y="-119.5" font-family="Helvetica,sans-Serif" font-size="10.00">dolphin/mtx/quat.h</text>
</a>
</g>
</g>
<!-- Node7&#45;&gt;Node8 -->
<g id="edge9" class="edge">
<title>Node7&#45;&gt;Node8</title>
<path fill="none" stroke="midnightblue" d="M395.77,-168.08C401.14,-160.46 409.02,-149.26 415.58,-139.94"/>
<polygon fill="midnightblue" stroke="midnightblue" points="418.45,-141.94 421.34,-131.75 412.72,-137.91 418.45,-141.94"/>
</g>
<!-- Node9 -->
<g id="node9" class="node">
<title>Node9</title>
<g id="a_node9"><a xlink:href="vec_8h.html" target="_top" xlink:title=" ">
<polygon fill="white" stroke="black" points="419.5,-56.5 419.5,-75.5 511.5,-75.5 511.5,-56.5 419.5,-56.5"/>
<text text-anchor="middle" x="465.5" y="-63.5" font-family="Helvetica,sans-Serif" font-size="10.00">dolphin/mtx/vec.h</text>
</a>
</g>
</g>
<!-- Node7&#45;&gt;Node9 -->
<g id="edge13" class="edge">
<title>Node7&#45;&gt;Node9</title>
<path fill="none" stroke="midnightblue" d="M430.55,-168.38C450.46,-161.92 472.59,-150.81 484.5,-132 493.8,-117.31 486.01,-97.9 477.78,-84.13"/>
<polygon fill="midnightblue" stroke="midnightblue" points="480.62,-82.07 472.21,-75.62 474.76,-85.91 480.62,-82.07"/>
</g>
<!-- Node8&#45;&gt;Node4 -->
<g id="edge12" class="edge">
<title>Node8&#45;&gt;Node4</title>
<path fill="none" stroke="midnightblue" d="M420.16,-112.16C409.25,-99.23 387.87,-74.69 367.5,-56 355.68,-45.15 341.46,-34.09 330.05,-25.65"/>
<polygon fill="midnightblue" stroke="midnightblue" points="332.11,-22.81 321.97,-19.75 327.99,-28.47 332.11,-22.81"/>
</g>
<!-- Node8&#45;&gt;Node9 -->
<g id="edge10" class="edge">
<title>Node8&#45;&gt;Node9</title>
<path fill="none" stroke="midnightblue" d="M433.77,-112.08C439.14,-104.46 447.02,-93.26 453.58,-83.94"/>
<polygon fill="midnightblue" stroke="midnightblue" points="456.45,-85.94 459.34,-75.75 450.72,-81.91 456.45,-85.94"/>
</g>
<!-- Node9&#45;&gt;Node4 -->
<g id="edge11" class="edge">
<title>Node9&#45;&gt;Node4</title>
<path fill="none" stroke="midnightblue" d="M440.78,-56.44C414.65,-47.4 373.24,-33.06 343.92,-22.92"/>
<polygon fill="midnightblue" stroke="midnightblue" points="344.7,-19.48 334.1,-19.52 342.41,-26.1 344.7,-19.48"/>
</g>
</g>
</svg>
