<?xml version="1.0" encoding="UTF-8" standalone="no"?>
<!DOCTYPE svg PUBLIC "-//W3C//DTD SVG 1.1//EN"
 "http://www.w3.org/Graphics/SVG/1.1/DTD/svg11.dtd">
<!-- Generated by graphviz version 2.44.0 ()
 -->
<!-- Title: libs/JSystem/J2DGraph/J2DMaterial.cpp Pages: 1 -->
<svg width="4605pt" height="296pt"
 viewBox="0.00 0.00 4605.00 296.00" xmlns="http://www.w3.org/2000/svg" xmlns:xlink="http://www.w3.org/1999/xlink">
<g id="graph0" class="graph" transform="scale(1 1) rotate(0) translate(4 292)">
<title>libs/JSystem/J2DGraph/J2DMaterial.cpp</title>
<polygon fill="white" stroke="transparent" points="-4,4 -4,-292 4601,-292 4601,4 -4,4"/>
<!-- Node1 -->
<g id="node1" class="node">
<title>Node1</title>
<g id="a_node1"><a xlink:title=" ">
<polygon fill="#bfbfbf" stroke="black" points="2326,-257.5 2326,-287.5 2445,-287.5 2445,-257.5 2326,-257.5"/>
<text text-anchor="start" x="2334" y="-275.5" font-family="Helvetica,sans-Serif" font-size="10.00">libs/JSystem/J2DGraph</text>
<text text-anchor="middle" x="2385.5" y="-264.5" font-family="Helvetica,sans-Serif" font-size="10.00">/J2DMaterial.cpp</text>
</a>
</g>
</g>
<!-- Node2 -->
<g id="node2" class="node">
<title>Node2</title>
<g id="a_node2"><a xlink:href="J2DMaterial_8h.html" target="_top" xlink:title=" ">
<polygon fill="white" stroke="black" points="47.5,-185 47.5,-204 211.5,-204 211.5,-185 47.5,-185"/>
<text text-anchor="middle" x="129.5" y="-192" font-family="Helvetica,sans-Serif" font-size="10.00">JSystem/J2DGraph/J2DMaterial.h</text>
</a>
</g>
</g>
<!-- Node1&#45;&gt;Node2 -->
<g id="edge1" class="edge">
<title>Node1&#45;&gt;Node2</title>
<path fill="none" stroke="midnightblue" d="M2325.85,-270.95C1999.6,-267.81 438.16,-251.29 225.5,-221 205.14,-218.1 182.92,-212.37 164.98,-207.07"/>
<polygon fill="midnightblue" stroke="midnightblue" points="165.82,-203.67 155.23,-204.11 163.79,-210.37 165.82,-203.67"/>
</g>
<!-- Node5 -->
<g id="node5" class="node">
<title>Node5</title>
<g id="a_node5"><a xlink:href="types_8h.html" target="_top" xlink:title=" ">
<polygon fill="white" stroke="black" points="142,-0.5 142,-19.5 223,-19.5 223,-0.5 142,-0.5"/>
<text text-anchor="middle" x="182.5" y="-7.5" font-family="Helvetica,sans-Serif" font-size="10.00">dolphin/types.h</text>
</a>
</g>
</g>
<!-- Node1&#45;&gt;Node5 -->
<g id="edge8" class="edge">
<title>Node1&#45;&gt;Node5</title>
<path fill="none" stroke="midnightblue" d="M2325.73,-271.03C1984.96,-268.2 301.13,-252.68 258.5,-221 196.57,-174.97 233.51,-127.5 204.5,-56 200.78,-46.83 196.02,-36.93 191.88,-28.75"/>
<polygon fill="midnightblue" stroke="midnightblue" points="194.96,-27.07 187.25,-19.8 188.74,-30.29 194.96,-27.07"/>
</g>
<!-- Node6 -->
<g id="node6" class="node">
<title>Node6</title>
<g id="a_node6"><a xlink:href="dol2asm_8h.html" target="_top" xlink:title=" ">
<polygon fill="white" stroke="black" points="268,-185 268,-204 329,-204 329,-185 268,-185"/>
<text text-anchor="middle" x="298.5" y="-192" font-family="Helvetica,sans-Serif" font-size="10.00">dol2asm.h</text>
</a>
</g>
</g>
<!-- Node1&#45;&gt;Node6 -->
<g id="edge7" class="edge">
<title>Node1&#45;&gt;Node6</title>
<path fill="none" stroke="midnightblue" d="M2325.78,-270.93C1998.72,-267.69 435.88,-250.71 338.5,-221 330.98,-218.71 323.52,-214.58 317.1,-210.31"/>
<polygon fill="midnightblue" stroke="midnightblue" points="318.73,-207.17 308.58,-204.14 314.62,-212.84 318.73,-207.17"/>
</g>
<!-- Node7 -->
<g id="node7" class="node">
<title>Node7</title>
<g id="a_node7"><a xlink:title=" ">
<polygon fill="white" stroke="#bfbfbf" points="347,-179.5 347,-209.5 532,-209.5 532,-179.5 347,-179.5"/>
<text text-anchor="start" x="355" y="-197.5" font-family="Helvetica,sans-Serif" font-size="10.00">asm/JSystem/J2DGraph</text>
<text text-anchor="middle" x="439.5" y="-186.5" font-family="Helvetica,sans-Serif" font-size="10.00">/J2DMaterial/__ct__11J2DMaterialFv.s</text>
</a>
</g>
</g>
<!-- Node1&#45;&gt;Node7 -->
<g id="edge9" class="edge">
<title>Node1&#45;&gt;Node7</title>
<path fill="none" stroke="midnightblue" d="M2325.71,-271.61C2049.83,-271.85 898.06,-269.86 541.5,-221 526.73,-218.98 511.01,-215.65 496.44,-212.06"/>
<polygon fill="midnightblue" stroke="midnightblue" points="497.12,-208.62 486.57,-209.54 495.39,-215.4 497.12,-208.62"/>
</g>
<!-- Node8 -->
<g id="node8" class="node">
<title>Node8</title>
<g id="a_node8"><a xlink:title=" ">
<polygon fill="white" stroke="#bfbfbf" points="550,-179.5 550,-209.5 735,-209.5 735,-179.5 550,-179.5"/>
<text text-anchor="start" x="558" y="-197.5" font-family="Helvetica,sans-Serif" font-size="10.00">asm/JSystem/J2DGraph</text>
<text text-anchor="middle" x="642.5" y="-186.5" font-family="Helvetica,sans-Serif" font-size="10.00">/J2DMaterial/__dt__11J2DMaterialFv.s</text>
</a>
</g>
</g>
<!-- Node1&#45;&gt;Node8 -->
<g id="edge10" class="edge">
<title>Node1&#45;&gt;Node8</title>
<path fill="none" stroke="midnightblue" d="M2325.95,-271.39C2069.52,-270.67 1058.26,-265.04 743.5,-221 728.87,-218.95 713.3,-215.62 698.88,-212.02"/>
<polygon fill="midnightblue" stroke="midnightblue" points="699.66,-208.61 689.1,-209.51 697.91,-215.39 699.66,-208.61"/>
</g>
<!-- Node9 -->
<g id="node9" class="node">
<title>Node9</title>
<g id="a_node9"><a xlink:title=" ">
<polygon fill="white" stroke="#bfbfbf" points="752.5,-179.5 752.5,-209.5 946.5,-209.5 946.5,-179.5 752.5,-179.5"/>
<text text-anchor="start" x="760.5" y="-197.5" font-family="Helvetica,sans-Serif" font-size="10.00">asm/JSystem/J2DGraph</text>
<text text-anchor="middle" x="849.5" y="-186.5" font-family="Helvetica,sans-Serif" font-size="10.00">/J2DMaterial/setGX__11J2DMaterialFv.s</text>
</a>
</g>
</g>
<!-- Node1&#45;&gt;Node9 -->
<g id="edge11" class="edge">
<title>Node1&#45;&gt;Node9</title>
<path fill="none" stroke="midnightblue" d="M2325.93,-270.97C2090.9,-268.64 1227.56,-257.72 956.5,-221 940.98,-218.9 924.42,-215.52 909.07,-211.91"/>
<polygon fill="midnightblue" stroke="midnightblue" points="909.74,-208.47 899.19,-209.51 908.09,-215.27 909.74,-208.47"/>
</g>
<!-- Node10 -->
<g id="node10" class="node">
<title>Node10</title>
<g id="a_node10"><a xlink:title=" ">
<polygon fill="white" stroke="#bfbfbf" points="965,-174 965,-215 1108,-215 1108,-174 965,-174"/>
<text text-anchor="start" x="973" y="-203" font-family="Helvetica,sans-Serif" font-size="10.00">asm/JSystem/J2DGraph</text>
<text text-anchor="start" x="973" y="-192" font-family="Helvetica,sans-Serif" font-size="10.00">/J2DMaterial/createTevBlock</text>
<text text-anchor="middle" x="1036.5" y="-181" font-family="Helvetica,sans-Serif" font-size="10.00">__11J2DMaterialFib.s</text>
</a>
</g>
</g>
<!-- Node1&#45;&gt;Node10 -->
<g id="edge12" class="edge">
<title>Node1&#45;&gt;Node10</title>
<path fill="none" stroke="midnightblue" d="M2325.99,-271.22C2108.1,-269.86 1354.22,-262.22 1117.5,-221 1112.37,-220.11 1107.11,-218.97 1101.85,-217.68"/>
<polygon fill="midnightblue" stroke="midnightblue" points="1102.35,-214.2 1091.79,-215.03 1100.57,-220.97 1102.35,-214.2"/>
</g>
<!-- Node11 -->
<g id="node11" class="node">
<title>Node11</title>
<g id="a_node11"><a xlink:title=" ">
<polygon fill="white" stroke="#bfbfbf" points="1126.5,-174 1126.5,-215 1266.5,-215 1266.5,-174 1126.5,-174"/>
<text text-anchor="start" x="1134.5" y="-203" font-family="Helvetica,sans-Serif" font-size="10.00">asm/JSystem/J2DGraph</text>
<text text-anchor="start" x="1134.5" y="-192" font-family="Helvetica,sans-Serif" font-size="10.00">/J2DMaterial/createIndBlock</text>
<text text-anchor="middle" x="1196.5" y="-181" font-family="Helvetica,sans-Serif" font-size="10.00">__11J2DMaterialFib.s</text>
</a>
</g>
</g>
<!-- Node1&#45;&gt;Node11 -->
<g id="edge13" class="edge">
<title>Node1&#45;&gt;Node11</title>
<path fill="none" stroke="midnightblue" d="M2325.67,-270.85C2125.54,-268.33 1480.69,-257.53 1276.5,-221 1271.52,-220.11 1266.41,-218.99 1261.31,-217.72"/>
<polygon fill="midnightblue" stroke="midnightblue" points="1262.1,-214.31 1251.54,-215.12 1260.3,-221.07 1262.1,-214.31"/>
</g>
<!-- Node12 -->
<g id="node12" class="node">
<title>Node12</title>
<g id="a_node12"><a xlink:title=" ">
<polygon fill="white" stroke="#bfbfbf" points="1285,-174 1285,-215 1474,-215 1474,-174 1285,-174"/>
<text text-anchor="start" x="1293" y="-203" font-family="Helvetica,sans-Serif" font-size="10.00">asm/JSystem/J2DGraph</text>
<text text-anchor="start" x="1293" y="-192" font-family="Helvetica,sans-Serif" font-size="10.00">/J2DMaterial/__ct__Q211J2DMaterial21</text>
<text text-anchor="middle" x="1379.5" y="-181" font-family="Helvetica,sans-Serif" font-size="10.00">J2DMaterialAnmPointerFv.s</text>
</a>
</g>
</g>
<!-- Node1&#45;&gt;Node12 -->
<g id="edge14" class="edge">
<title>Node1&#45;&gt;Node12</title>
<path fill="none" stroke="midnightblue" d="M2325.75,-271.95C2180.59,-272.21 1798.21,-267.98 1483.5,-221 1476.42,-219.94 1469.12,-218.63 1461.82,-217.15"/>
<polygon fill="midnightblue" stroke="midnightblue" points="1462.4,-213.7 1451.89,-215.06 1460.96,-220.55 1462.4,-213.7"/>
</g>
<!-- Node13 -->
<g id="node13" class="node">
<title>Node13</title>
<g id="a_node13"><a xlink:title=" ">
<polygon fill="white" stroke="#bfbfbf" points="1492,-174 1492,-215 1641,-215 1641,-174 1492,-174"/>
<text text-anchor="start" x="1500" y="-203" font-family="Helvetica,sans-Serif" font-size="10.00">asm/JSystem/J2DGraph</text>
<text text-anchor="start" x="1500" y="-192" font-family="Helvetica,sans-Serif" font-size="10.00">/J2DMaterial/makeAnmPointer</text>
<text text-anchor="middle" x="1566.5" y="-181" font-family="Helvetica,sans-Serif" font-size="10.00">__11J2DMaterialFv.s</text>
</a>
</g>
</g>
<!-- Node1&#45;&gt;Node13 -->
<g id="edge15" class="edge">
<title>Node1&#45;&gt;Node13</title>
<path fill="none" stroke="midnightblue" d="M2325.87,-271.94C2199.98,-271.89 1898.33,-266.52 1650.5,-221 1645.38,-220.06 1640.14,-218.92 1634.89,-217.64"/>
<polygon fill="midnightblue" stroke="midnightblue" points="1635.39,-214.16 1624.83,-215.05 1633.64,-220.94 1635.39,-214.16"/>
</g>
<!-- Node14 -->
<g id="node14" class="node">
<title>Node14</title>
<g id="a_node14"><a xlink:title=" ">
<polygon fill="white" stroke="#bfbfbf" points="1659.5,-174 1659.5,-215 1839.5,-215 1839.5,-174 1659.5,-174"/>
<text text-anchor="start" x="1667.5" y="-203" font-family="Helvetica,sans-Serif" font-size="10.00">asm/JSystem/J2DGraph</text>
<text text-anchor="start" x="1667.5" y="-192" font-family="Helvetica,sans-Serif" font-size="10.00">/J2DMaterial/setAnimation</text>
<text text-anchor="middle" x="1749.5" y="-181" font-family="Helvetica,sans-Serif" font-size="10.00">__11J2DMaterialFP11J2DAnmColor.s</text>
</a>
</g>
</g>
<!-- Node1&#45;&gt;Node14 -->
<g id="edge16" class="edge">
<title>Node1&#45;&gt;Node14</title>
<path fill="none" stroke="midnightblue" d="M2325.89,-268.98C2226.36,-264.08 2020.3,-251.01 1848.5,-221 1842.36,-219.93 1836.04,-218.67 1829.71,-217.3"/>
<polygon fill="midnightblue" stroke="midnightblue" points="1830.3,-213.84 1819.78,-215.06 1828.76,-220.67 1830.3,-213.84"/>
</g>
<!-- Node15 -->
<g id="node15" class="node">
<title>Node15</title>
<g id="a_node15"><a xlink:title=" ">
<polygon fill="white" stroke="#bfbfbf" points="1857.5,-168.5 1857.5,-220.5 2039.5,-220.5 2039.5,-168.5 1857.5,-168.5"/>
<text text-anchor="start" x="1865.5" y="-208.5" font-family="Helvetica,sans-Serif" font-size="10.00">asm/JSystem/J2DGraph</text>
<text text-anchor="start" x="1865.5" y="-197.5" font-family="Helvetica,sans-Serif" font-size="10.00">/J2DMaterial/setAnimation</text>
<text text-anchor="start" x="1865.5" y="-186.5" font-family="Helvetica,sans-Serif" font-size="10.00">__11J2DMaterialFP19J2DAnmTexture</text>
<text text-anchor="middle" x="1948.5" y="-175.5" font-family="Helvetica,sans-Serif" font-size="10.00">SRTKey.s</text>
</a>
</g>
</g>
<!-- Node1&#45;&gt;Node15 -->
<g id="edge17" class="edge">
<title>Node1&#45;&gt;Node15</title>
<path fill="none" stroke="midnightblue" d="M2325.71,-264.31C2258.28,-255.79 2145.5,-240.29 2049.5,-221 2049.4,-220.98 2049.29,-220.96 2049.19,-220.94"/>
<polygon fill="midnightblue" stroke="midnightblue" points="2050.03,-217.54 2039.52,-218.92 2048.6,-224.39 2050.03,-217.54"/>
</g>
<!-- Node16 -->
<g id="node16" class="node">
<title>Node16</title>
<g id="a_node16"><a xlink:title=" ">
<polygon fill="white" stroke="#bfbfbf" points="2058,-174 2058,-215 2263,-215 2263,-174 2058,-174"/>
<text text-anchor="start" x="2066" y="-203" font-family="Helvetica,sans-Serif" font-size="10.00">asm/JSystem/J2DGraph</text>
<text text-anchor="start" x="2066" y="-192" font-family="Helvetica,sans-Serif" font-size="10.00">/J2DMaterial/setAnimation</text>
<text text-anchor="middle" x="2160.5" y="-181" font-family="Helvetica,sans-Serif" font-size="10.00">__11J2DMaterialFP16J2DAnmTexPattern.s</text>
</a>
</g>
</g>
<!-- Node1&#45;&gt;Node16 -->
<g id="edge18" class="edge">
<title>Node1&#45;&gt;Node16</title>
<path fill="none" stroke="midnightblue" d="M2343.97,-257.47C2311.57,-246.53 2265.88,-231.1 2228.21,-218.37"/>
<polygon fill="midnightblue" stroke="midnightblue" points="2228.91,-214.91 2218.32,-215.03 2226.67,-221.55 2228.91,-214.91"/>
</g>
<!-- Node17 -->
<g id="node17" class="node">
<title>Node17</title>
<g id="a_node17"><a xlink:title=" ">
<polygon fill="white" stroke="#bfbfbf" points="2281.5,-174 2281.5,-215 2489.5,-215 2489.5,-174 2281.5,-174"/>
<text text-anchor="start" x="2289.5" y="-203" font-family="Helvetica,sans-Serif" font-size="10.00">asm/JSystem/J2DGraph</text>
<text text-anchor="start" x="2289.5" y="-192" font-family="Helvetica,sans-Serif" font-size="10.00">/J2DMaterial/setAnimation</text>
<text text-anchor="middle" x="2385.5" y="-181" font-family="Helvetica,sans-Serif" font-size="10.00">__11J2DMaterialFP15J2DAnmTevRegKey.s</text>
</a>
</g>
</g>
<!-- Node1&#45;&gt;Node17 -->
<g id="edge19" class="edge">
<title>Node1&#45;&gt;Node17</title>
<path fill="none" stroke="midnightblue" d="M2385.5,-257.2C2385.5,-248.21 2385.5,-236.27 2385.5,-225.29"/>
<polygon fill="midnightblue" stroke="midnightblue" points="2389,-225.18 2385.5,-215.18 2382,-225.18 2389,-225.18"/>
</g>
<!-- Node18 -->
<g id="node18" class="node">
<title>Node18</title>
<g id="a_node18"><a xlink:title=" ">
<polygon fill="white" stroke="#bfbfbf" points="2508,-174 2508,-215 2631,-215 2631,-174 2508,-174"/>
<text text-anchor="start" x="2516" y="-203" font-family="Helvetica,sans-Serif" font-size="10.00">asm/JSystem/J2DGraph</text>
<text text-anchor="start" x="2516" y="-192" font-family="Helvetica,sans-Serif" font-size="10.00">/J2DMaterial/animation</text>
<text text-anchor="middle" x="2569.5" y="-181" font-family="Helvetica,sans-Serif" font-size="10.00">__11J2DMaterialFv.s</text>
</a>
</g>
</g>
<!-- Node1&#45;&gt;Node18 -->
<g id="edge20" class="edge">
<title>Node1&#45;&gt;Node18</title>
<path fill="none" stroke="midnightblue" d="M2419.68,-257.38C2445.65,-246.65 2481.97,-231.65 2512.35,-219.11"/>
<polygon fill="midnightblue" stroke="midnightblue" points="2514.07,-222.18 2521.98,-215.13 2511.4,-215.71 2514.07,-222.18"/>
</g>
<!-- Node19 -->
<g id="node19" class="node">
<title>Node19</title>
<g id="a_node19"><a xlink:title=" ">
<polygon fill="white" stroke="#bfbfbf" points="2649.5,-174 2649.5,-215 2803.5,-215 2803.5,-174 2649.5,-174"/>
<text text-anchor="start" x="2657.5" y="-203" font-family="Helvetica,sans-Serif" font-size="10.00">asm/JSystem/J2DGraph</text>
<text text-anchor="start" x="2657.5" y="-192" font-family="Helvetica,sans-Serif" font-size="10.00">/J2DMaterial/__dt__13J2DColor</text>
<text text-anchor="middle" x="2726.5" y="-181" font-family="Helvetica,sans-Serif" font-size="10.00">BlockFv.s</text>
</a>
</g>
</g>
<!-- Node1&#45;&gt;Node19 -->
<g id="edge21" class="edge">
<title>Node1&#45;&gt;Node19</title>
<path fill="none" stroke="midnightblue" d="M2445.1,-261.31C2497,-252.06 2574.12,-237.38 2640.5,-221 2644.58,-219.99 2648.76,-218.91 2652.97,-217.79"/>
<polygon fill="midnightblue" stroke="midnightblue" points="2654.09,-221.11 2662.81,-215.1 2652.24,-214.36 2654.09,-221.11"/>
</g>
<!-- Node20 -->
<g id="node20" class="node">
<title>Node20</title>
<g id="a_node20"><a xlink:title=" ">
<polygon fill="white" stroke="#bfbfbf" points="2822,-174 2822,-215 2967,-215 2967,-174 2822,-174"/>
<text text-anchor="start" x="2830" y="-203" font-family="Helvetica,sans-Serif" font-size="10.00">asm/JSystem/J2DGraph</text>
<text text-anchor="start" x="2830" y="-192" font-family="Helvetica,sans-Serif" font-size="10.00">/J2DMaterial/__dt__11J2DInd</text>
<text text-anchor="middle" x="2894.5" y="-181" font-family="Helvetica,sans-Serif" font-size="10.00">BlockFv.s</text>
</a>
</g>
</g>
<!-- Node1&#45;&gt;Node20 -->
<g id="edge22" class="edge">
<title>Node1&#45;&gt;Node20</title>
<path fill="none" stroke="midnightblue" d="M2445.12,-267.92C2528.18,-262.15 2683.08,-248.53 2812.5,-221 2817.09,-220.02 2821.79,-218.9 2826.5,-217.69"/>
<polygon fill="midnightblue" stroke="midnightblue" points="2827.43,-221.06 2836.17,-215.07 2825.6,-214.3 2827.43,-221.06"/>
</g>
<!-- Node21 -->
<g id="node21" class="node">
<title>Node21</title>
<g id="a_node21"><a xlink:title=" ">
<polygon fill="white" stroke="#bfbfbf" points="2985.5,-174 2985.5,-215 3133.5,-215 3133.5,-174 2985.5,-174"/>
<text text-anchor="start" x="2993.5" y="-203" font-family="Helvetica,sans-Serif" font-size="10.00">asm/JSystem/J2DGraph</text>
<text text-anchor="start" x="2993.5" y="-192" font-family="Helvetica,sans-Serif" font-size="10.00">/J2DMaterial/__dt__11J2DTev</text>
<text text-anchor="middle" x="3059.5" y="-181" font-family="Helvetica,sans-Serif" font-size="10.00">BlockFv.s</text>
</a>
</g>
</g>
<!-- Node1&#45;&gt;Node21 -->
<g id="edge23" class="edge">
<title>Node1&#45;&gt;Node21</title>
<path fill="none" stroke="midnightblue" d="M2445.21,-270.58C2552.52,-268.01 2784.68,-258.22 2976.5,-221 2981.46,-220.04 2986.54,-218.89 2991.63,-217.62"/>
<polygon fill="midnightblue" stroke="midnightblue" points="2992.62,-220.98 3001.4,-215.05 2990.84,-214.21 2992.62,-220.98"/>
</g>
<!-- Node22 -->
<g id="node22" class="node">
<title>Node22</title>
<g id="a_node22"><a xlink:title=" ">
<polygon fill="white" stroke="#bfbfbf" points="3152,-174 3152,-215 3281,-215 3281,-174 3152,-174"/>
<text text-anchor="start" x="3160" y="-203" font-family="Helvetica,sans-Serif" font-size="10.00">asm/JSystem/J2DGraph</text>
<text text-anchor="start" x="3160" y="-192" font-family="Helvetica,sans-Serif" font-size="10.00">/J2DMaterial/getType</text>
<text text-anchor="middle" x="3216.5" y="-181" font-family="Helvetica,sans-Serif" font-size="10.00">__15J2DIndBlockNullFv.s</text>
</a>
</g>
</g>
<!-- Node1&#45;&gt;Node22 -->
<g id="edge24" class="edge">
<title>Node1&#45;&gt;Node22</title>
<path fill="none" stroke="midnightblue" d="M2445.07,-269.57C2599.39,-264.23 3009.36,-247.88 3142.5,-221 3146.81,-220.13 3151.22,-219.07 3155.62,-217.89"/>
<polygon fill="midnightblue" stroke="midnightblue" points="3156.59,-221.25 3165.23,-215.12 3154.65,-214.52 3156.59,-221.25"/>
</g>
<!-- Node23 -->
<g id="node23" class="node">
<title>Node23</title>
<g id="a_node23"><a xlink:title=" ">
<polygon fill="white" stroke="#bfbfbf" points="3299,-174 3299,-215 3444,-215 3444,-174 3299,-174"/>
<text text-anchor="start" x="3307" y="-203" font-family="Helvetica,sans-Serif" font-size="10.00">asm/JSystem/J2DGraph</text>
<text text-anchor="start" x="3307" y="-192" font-family="Helvetica,sans-Serif" font-size="10.00">/J2DMaterial/__dt__15J2DInd</text>
<text text-anchor="middle" x="3371.5" y="-181" font-family="Helvetica,sans-Serif" font-size="10.00">BlockNullFv.s</text>
</a>
</g>
</g>
<!-- Node1&#45;&gt;Node23 -->
<g id="edge25" class="edge">
<title>Node1&#45;&gt;Node23</title>
<path fill="none" stroke="midnightblue" d="M2445.04,-270.11C2619.49,-265.74 3127.37,-250.75 3290.5,-221 3295.54,-220.08 3300.7,-218.94 3305.86,-217.66"/>
<polygon fill="midnightblue" stroke="midnightblue" points="3306.98,-220.98 3315.75,-215.04 3305.18,-214.22 3306.98,-220.98"/>
</g>
<!-- Node24 -->
<g id="node24" class="node">
<title>Node24</title>
<g id="a_node24"><a xlink:title=" ">
<polygon fill="white" stroke="#bfbfbf" points="3462,-174 3462,-215 3609,-215 3609,-174 3462,-174"/>
<text text-anchor="start" x="3470" y="-203" font-family="Helvetica,sans-Serif" font-size="10.00">asm/JSystem/J2DGraph</text>
<text text-anchor="start" x="3470" y="-192" font-family="Helvetica,sans-Serif" font-size="10.00">/J2DMaterial/__ct__11J2DTex</text>
<text text-anchor="middle" x="3535.5" y="-181" font-family="Helvetica,sans-Serif" font-size="10.00">CoordFv.s</text>
</a>
</g>
</g>
<!-- Node1&#45;&gt;Node24 -->
<g id="edge26" class="edge">
<title>Node1&#45;&gt;Node24</title>
<path fill="none" stroke="midnightblue" d="M2445.14,-270.67C2640.13,-267.65 3257.44,-255.54 3453.5,-221 3458.6,-220.1 3463.83,-218.98 3469.05,-217.71"/>
<polygon fill="midnightblue" stroke="midnightblue" points="3470.26,-221.01 3479.06,-215.1 3468.5,-214.23 3470.26,-221.01"/>
</g>
<!-- Node25 -->
<g id="node25" class="node">
<title>Node25</title>
<g id="a_node25"><a xlink:title=" ">
<polygon fill="white" stroke="#bfbfbf" points="3627.5,-174 3627.5,-215 3781.5,-215 3781.5,-174 3627.5,-174"/>
<text text-anchor="start" x="3635.5" y="-203" font-family="Helvetica,sans-Serif" font-size="10.00">asm/JSystem/J2DGraph</text>
<text text-anchor="start" x="3635.5" y="-192" font-family="Helvetica,sans-Serif" font-size="10.00">/J2DMaterial/__ct__12J2DColor</text>
<text text-anchor="middle" x="3704.5" y="-181" font-family="Helvetica,sans-Serif" font-size="10.00">ChanFv.s</text>
</a>
</g>
</g>
<!-- Node1&#45;&gt;Node25 -->
<g id="edge27" class="edge">
<title>Node1&#45;&gt;Node25</title>
<path fill="none" stroke="midnightblue" d="M2445.18,-271.01C2659.34,-268.94 3388.66,-259.18 3618.5,-221 3624.21,-220.05 3630.07,-218.84 3635.92,-217.47"/>
<polygon fill="midnightblue" stroke="midnightblue" points="3636.88,-220.83 3645.73,-215.01 3635.18,-214.04 3636.88,-220.83"/>
</g>
<!-- Node26 -->
<g id="node26" class="node">
<title>Node26</title>
<g id="a_node26"><a xlink:title=" ">
<polygon fill="white" stroke="#bfbfbf" points="3800,-174 3800,-215 3945,-215 3945,-174 3800,-174"/>
<text text-anchor="start" x="3808" y="-203" font-family="Helvetica,sans-Serif" font-size="10.00">asm/JSystem/J2DGraph</text>
<text text-anchor="start" x="3808" y="-192" font-family="Helvetica,sans-Serif" font-size="10.00">/J2DMaterial/__dt__19J2DInd</text>
<text text-anchor="middle" x="3872.5" y="-181" font-family="Helvetica,sans-Serif" font-size="10.00">TexCoordScaleFv.s</text>
</a>
</g>
</g>
<!-- Node1&#45;&gt;Node26 -->
<g id="edge28" class="edge">
<title>Node1&#45;&gt;Node26</title>
<path fill="none" stroke="midnightblue" d="M2445.34,-271.46C2678.43,-270.98 3525.82,-266.08 3790.5,-221 3795.83,-220.09 3801.29,-218.93 3806.74,-217.6"/>
<polygon fill="midnightblue" stroke="midnightblue" points="3807.72,-220.97 3816.52,-215.06 3805.96,-214.19 3807.72,-220.97"/>
</g>
<!-- Node27 -->
<g id="node27" class="node">
<title>Node27</title>
<g id="a_node27"><a xlink:title=" ">
<polygon fill="white" stroke="#bfbfbf" points="3963,-174 3963,-215 4108,-215 4108,-174 3963,-174"/>
<text text-anchor="start" x="3971" y="-203" font-family="Helvetica,sans-Serif" font-size="10.00">asm/JSystem/J2DGraph</text>
<text text-anchor="start" x="3971" y="-192" font-family="Helvetica,sans-Serif" font-size="10.00">/J2DMaterial/__ct__19J2DInd</text>
<text text-anchor="middle" x="4035.5" y="-181" font-family="Helvetica,sans-Serif" font-size="10.00">TexCoordScaleFv.s</text>
</a>
</g>
</g>
<!-- Node1&#45;&gt;Node27 -->
<g id="edge29" class="edge">
<title>Node1&#45;&gt;Node27</title>
<path fill="none" stroke="midnightblue" d="M2445.39,-271.75C2695.37,-272.46 3656.27,-271.76 3954.5,-221 3959.64,-220.13 3964.9,-219.01 3970.15,-217.73"/>
<polygon fill="midnightblue" stroke="midnightblue" points="3971.43,-221.01 3980.22,-215.09 3969.66,-214.24 3971.43,-221.01"/>
</g>
<!-- Node28 -->
<g id="node28" class="node">
<title>Node28</title>
<g id="a_node28"><a xlink:title=" ">
<polygon fill="white" stroke="#bfbfbf" points="4126,-174 4126,-215 4271,-215 4271,-174 4126,-174"/>
<text text-anchor="start" x="4134" y="-203" font-family="Helvetica,sans-Serif" font-size="10.00">asm/JSystem/J2DGraph</text>
<text text-anchor="start" x="4134" y="-192" font-family="Helvetica,sans-Serif" font-size="10.00">/J2DMaterial/__dt__12J2DInd</text>
<text text-anchor="middle" x="4198.5" y="-181" font-family="Helvetica,sans-Serif" font-size="10.00">TexMtxFv.s</text>
</a>
</g>
</g>
<!-- Node1&#45;&gt;Node28 -->
<g id="edge30" class="edge">
<title>Node1&#45;&gt;Node28</title>
<path fill="none" stroke="midnightblue" d="M2445.32,-270.73C2731.07,-266.94 3950.09,-249.23 4117.5,-221 4122.64,-220.13 4127.9,-219.02 4133.16,-217.74"/>
<polygon fill="midnightblue" stroke="midnightblue" points="4134.43,-221.03 4143.22,-215.11 4132.66,-214.26 4134.43,-221.03"/>
</g>
<!-- Node29 -->
<g id="node29" class="node">
<title>Node29</title>
<g id="a_node29"><a xlink:title=" ">
<polygon fill="white" stroke="#bfbfbf" points="4289,-174 4289,-215 4434,-215 4434,-174 4289,-174"/>
<text text-anchor="start" x="4297" y="-203" font-family="Helvetica,sans-Serif" font-size="10.00">asm/JSystem/J2DGraph</text>
<text text-anchor="start" x="4297" y="-192" font-family="Helvetica,sans-Serif" font-size="10.00">/J2DMaterial/__ct__12J2DInd</text>
<text text-anchor="middle" x="4361.5" y="-181" font-family="Helvetica,sans-Serif" font-size="10.00">TexMtxFv.s</text>
</a>
</g>
</g>
<!-- Node1&#45;&gt;Node29 -->
<g id="edge31" class="edge">
<title>Node1&#45;&gt;Node29</title>
<path fill="none" stroke="midnightblue" d="M2445.35,-270.89C2747.3,-267.71 4096.19,-251.84 4280.5,-221 4285.86,-220.1 4291.36,-218.93 4296.84,-217.59"/>
<polygon fill="midnightblue" stroke="midnightblue" points="4297.88,-220.94 4306.66,-215.01 4296.1,-214.17 4297.88,-220.94"/>
</g>
<!-- Node30 -->
<g id="node30" class="node">
<title>Node30</title>
<g id="a_node30"><a xlink:title=" ">
<polygon fill="white" stroke="#bfbfbf" points="4452,-174 4452,-215 4597,-215 4597,-174 4452,-174"/>
<text text-anchor="start" x="4460" y="-203" font-family="Helvetica,sans-Serif" font-size="10.00">asm/JSystem/J2DGraph</text>
<text text-anchor="start" x="4460" y="-192" font-family="Helvetica,sans-Serif" font-size="10.00">/J2DMaterial/__ct__14J2DInd</text>
<text text-anchor="middle" x="4524.5" y="-181" font-family="Helvetica,sans-Serif" font-size="10.00">TexOrderFv.s</text>
</a>
</g>
</g>
<!-- Node1&#45;&gt;Node30 -->
<g id="edge32" class="edge">
<title>Node1&#45;&gt;Node30</title>
<path fill="none" stroke="midnightblue" d="M2445.19,-271.03C2762.25,-268.41 4242.21,-254.47 4443.5,-221 4448.86,-220.11 4454.36,-218.94 4459.85,-217.61"/>
<polygon fill="midnightblue" stroke="midnightblue" points="4460.88,-220.95 4469.67,-215.03 4459.11,-214.18 4460.88,-220.95"/>
</g>
<!-- Node3 -->
<g id="node3" class="node">
<title>Node3</title>
<g id="a_node3"><a xlink:href="J2DAnimation_8h.html" target="_top" xlink:title=" ">
<polygon fill="white" stroke="black" points="0,-112.5 0,-131.5 173,-131.5 173,-112.5 0,-112.5"/>
<text text-anchor="middle" x="86.5" y="-119.5" font-family="Helvetica,sans-Serif" font-size="10.00">JSystem/J2DGraph/J2DAnimation.h</text>
</a>
</g>
</g>
<!-- Node2&#45;&gt;Node3 -->
<g id="edge2" class="edge">
<title>Node2&#45;&gt;Node3</title>
<path fill="none" stroke="midnightblue" d="M124.23,-184.86C117.52,-173.86 105.78,-154.61 97.17,-140.5"/>
<polygon fill="midnightblue" stroke="midnightblue" points="100.01,-138.43 91.82,-131.72 94.03,-142.08 100.01,-138.43"/>
</g>
<!-- Node2&#45;&gt;Node5 -->
<g id="edge6" class="edge">
<title>Node2&#45;&gt;Node5</title>
<path fill="none" stroke="midnightblue" d="M140.36,-184.89C153.02,-174.09 173.24,-154.29 181.5,-132 194.24,-97.65 190.09,-53.95 186.14,-29.58"/>
<polygon fill="midnightblue" stroke="midnightblue" points="189.56,-28.8 184.35,-19.57 182.67,-30.03 189.56,-28.8"/>
</g>
<!-- Node4 -->
<g id="node4" class="node">
<title>Node4</title>
<g id="a_node4"><a xlink:href="GXTexture_8h.html" target="_top" xlink:title=" ">
<polygon fill="white" stroke="black" points="18,-56.5 18,-75.5 135,-75.5 135,-56.5 18,-56.5"/>
<text text-anchor="middle" x="76.5" y="-63.5" font-family="Helvetica,sans-Serif" font-size="10.00">dolphin/gx/GXTexture.h</text>
</a>
</g>
</g>
<!-- Node3&#45;&gt;Node4 -->
<g id="edge3" class="edge">
<title>Node3&#45;&gt;Node4</title>
<path fill="none" stroke="midnightblue" d="M84.85,-112.08C83.52,-104.93 81.62,-94.64 79.96,-85.69"/>
<polygon fill="midnightblue" stroke="midnightblue" points="83.38,-84.95 78.12,-75.75 76.5,-86.22 83.38,-84.95"/>
</g>
<!-- Node3&#45;&gt;Node5 -->
<g id="edge5" class="edge">
<title>Node3&#45;&gt;Node5</title>
<path fill="none" stroke="midnightblue" d="M100.33,-112.2C112.65,-103.9 130.68,-90.58 143.5,-76 156.11,-61.67 166.95,-42.71 173.97,-28.97"/>
<polygon fill="midnightblue" stroke="midnightblue" points="177.29,-30.16 178.57,-19.65 171.01,-27.07 177.29,-30.16"/>
</g>
<!-- Node4&#45;&gt;Node5 -->
<g id="edge4" class="edge">
<title>Node4&#45;&gt;Node5</title>
<path fill="none" stroke="midnightblue" d="M93.53,-56.32C110.53,-47.66 136.88,-34.24 156.49,-24.25"/>
<polygon fill="midnightblue" stroke="midnightblue" points="158.19,-27.31 165.51,-19.65 155.01,-21.08 158.19,-27.31"/>
</g>
</g>
</svg>
