<?xml version="1.0" encoding="UTF-8" standalone="no"?>
<!DOCTYPE svg PUBLIC "-//W3C//DTD SVG 1.1//EN"
 "http://www.w3.org/Graphics/SVG/1.1/DTD/svg11.dtd">
<!-- Generated by graphviz version 2.44.0 ()
 -->
<!-- Title: include/JSystem/J2DGraph/J2DOrthoGraph.h Pages: 1 -->
<svg width="550pt" height="330pt"
 viewBox="0.00 0.00 549.88 330.00" xmlns="http://www.w3.org/2000/svg" xmlns:xlink="http://www.w3.org/1999/xlink">
<g id="graph0" class="graph" transform="scale(1 1) rotate(0) translate(4 326)">
<title>include/JSystem/J2DGraph/J2DOrthoGraph.h</title>
<polygon fill="white" stroke="transparent" points="-4,4 -4,-326 545.88,-326 545.88,4 -4,4"/>
<!-- Node1 -->
<g id="node1" class="node">
<title>Node1</title>
<g id="a_node1"><a xlink:title=" ">
<polygon fill="#bfbfbf" stroke="black" points="311,-291.5 311,-321.5 446,-321.5 446,-291.5 311,-291.5"/>
<text text-anchor="start" x="319" y="-309.5" font-family="Helvetica,sans-Serif" font-size="10.00">include/JSystem/J2DGraph</text>
<text text-anchor="middle" x="378.5" y="-298.5" font-family="Helvetica,sans-Serif" font-size="10.00">/J2DOrthoGraph.h</text>
</a>
</g>
</g>
<!-- Node2 -->
<g id="node2" class="node">
<title>Node2</title>
<g id="a_node2"><a xlink:href="J2DGrafContext_8h.html" target="_top" xlink:title=" ">
<polygon fill="white" stroke="black" points="172.5,-224.5 172.5,-254.5 312.5,-254.5 312.5,-224.5 172.5,-224.5"/>
<text text-anchor="start" x="180.5" y="-242.5" font-family="Helvetica,sans-Serif" font-size="10.00">JSystem/J2DGraph/J2DGraf</text>
<text text-anchor="middle" x="242.5" y="-231.5" font-family="Helvetica,sans-Serif" font-size="10.00">Context.h</text>
</a>
</g>
</g>
<!-- Node1&#45;&gt;Node2 -->
<g id="edge1" class="edge">
<title>Node1&#45;&gt;Node2</title>
<path fill="none" stroke="midnightblue" d="M348.99,-291.4C329.12,-281.9 302.71,-269.28 281.16,-258.98"/>
<polygon fill="midnightblue" stroke="midnightblue" points="282.48,-255.73 271.95,-254.58 279.47,-262.05 282.48,-255.73"/>
</g>
<!-- Node4 -->
<g id="node4" class="node">
<title>Node4</title>
<g id="a_node4"><a xlink:href="types_8h.html" target="_top" xlink:title=" ">
<polygon fill="white" stroke="black" points="269,-0.5 269,-19.5 350,-19.5 350,-0.5 269,-0.5"/>
<text text-anchor="middle" x="309.5" y="-7.5" font-family="Helvetica,sans-Serif" font-size="10.00">dolphin/types.h</text>
</a>
</g>
</g>
<!-- Node1&#45;&gt;Node4 -->
<g id="edge16" class="edge">
<title>Node1&#45;&gt;Node4</title>
<path fill="none" stroke="midnightblue" d="M425.21,-291.48C473.38,-273.78 541.5,-238.28 541.5,-179 541.5,-179 541.5,-179 541.5,-121 541.5,-90.64 543.04,-76.34 520.5,-56 497.38,-35.14 415.27,-22.39 360.56,-16.02"/>
<polygon fill="midnightblue" stroke="midnightblue" points="360.68,-12.51 350.35,-14.87 359.89,-19.47 360.68,-12.51"/>
</g>
<!-- Node3 -->
<g id="node3" class="node">
<title>Node3</title>
<g id="a_node3"><a xlink:href="JGeometry_8h.html" target="_top" xlink:title=" ">
<polygon fill="white" stroke="black" points="0,-168.5 0,-187.5 113,-187.5 113,-168.5 0,-168.5"/>
<text text-anchor="middle" x="56.5" y="-175.5" font-family="Helvetica,sans-Serif" font-size="10.00">JSystem/JGeometry.h</text>
</a>
</g>
</g>
<!-- Node2&#45;&gt;Node3 -->
<g id="edge2" class="edge">
<title>Node2&#45;&gt;Node3</title>
<path fill="none" stroke="midnightblue" d="M198.42,-224.4C166.28,-214.12 123.24,-200.35 93.02,-190.68"/>
<polygon fill="midnightblue" stroke="midnightblue" points="93.88,-187.28 83.29,-187.57 91.75,-193.95 93.88,-187.28"/>
</g>
<!-- Node2&#45;&gt;Node4 -->
<g id="edge15" class="edge">
<title>Node2&#45;&gt;Node4</title>
<path fill="none" stroke="midnightblue" d="M230.92,-224.15C205.8,-191.16 151.6,-108.73 191.5,-56 207.49,-34.87 234.68,-23.66 258.93,-17.72"/>
<polygon fill="midnightblue" stroke="midnightblue" points="259.74,-21.12 268.75,-15.55 258.23,-14.29 259.74,-21.12"/>
</g>
<!-- Node5 -->
<g id="node5" class="node">
<title>Node5</title>
<g id="a_node5"><a xlink:href="JUtility_8h.html" target="_top" xlink:title=" ">
<polygon fill="white" stroke="black" points="195,-112.5 195,-131.5 290,-131.5 290,-112.5 195,-112.5"/>
<text text-anchor="middle" x="242.5" y="-119.5" font-family="Helvetica,sans-Serif" font-size="10.00">JSystem/JUtility.h</text>
</a>
</g>
</g>
<!-- Node2&#45;&gt;Node5 -->
<g id="edge4" class="edge">
<title>Node2&#45;&gt;Node5</title>
<path fill="none" stroke="midnightblue" d="M242.5,-224.34C242.5,-203.62 242.5,-165.02 242.5,-141.9"/>
<polygon fill="midnightblue" stroke="midnightblue" points="246,-141.67 242.5,-131.67 239,-141.67 246,-141.67"/>
</g>
<!-- Node7 -->
<g id="node7" class="node">
<title>Node7</title>
<g id="a_node7"><a xlink:href="mtx_8h.html" target="_top" xlink:title=" ">
<polygon fill="white" stroke="black" points="343.5,-168.5 343.5,-187.5 435.5,-187.5 435.5,-168.5 343.5,-168.5"/>
<text text-anchor="middle" x="389.5" y="-175.5" font-family="Helvetica,sans-Serif" font-size="10.00">dolphin/mtx/mtx.h</text>
</a>
</g>
</g>
<!-- Node2&#45;&gt;Node7 -->
<g id="edge8" class="edge">
<title>Node2&#45;&gt;Node7</title>
<path fill="none" stroke="midnightblue" d="M277.34,-224.4C302,-214.42 334.79,-201.15 358.53,-191.53"/>
<polygon fill="midnightblue" stroke="midnightblue" points="360.15,-194.65 368.11,-187.66 357.53,-188.17 360.15,-194.65"/>
</g>
<!-- Node3&#45;&gt;Node4 -->
<g id="edge3" class="edge">
<title>Node3&#45;&gt;Node4</title>
<path fill="none" stroke="midnightblue" d="M58.97,-168.39C65.82,-146.07 87.29,-86.01 127.5,-56 165.57,-27.58 219.39,-16.94 258.63,-13.04"/>
<polygon fill="midnightblue" stroke="midnightblue" points="259.12,-16.51 268.77,-12.15 258.51,-9.54 259.12,-16.51"/>
</g>
<!-- Node5&#45;&gt;Node4 -->
<g id="edge7" class="edge">
<title>Node5&#45;&gt;Node4</title>
<path fill="none" stroke="midnightblue" d="M229.51,-112.35C212.4,-99.88 186,-76.11 199.5,-56 212.86,-36.09 236.76,-24.99 258.87,-18.79"/>
<polygon fill="midnightblue" stroke="midnightblue" points="260.02,-22.11 268.86,-16.28 258.31,-15.33 260.02,-22.11"/>
</g>
<!-- Node6 -->
<g id="node6" class="node">
<title>Node6</title>
<g id="a_node6"><a xlink:href="GXTexture_8h.html" target="_top" xlink:title=" ">
<polygon fill="white" stroke="black" points="208,-56.5 208,-75.5 325,-75.5 325,-56.5 208,-56.5"/>
<text text-anchor="middle" x="266.5" y="-63.5" font-family="Helvetica,sans-Serif" font-size="10.00">dolphin/gx/GXTexture.h</text>
</a>
</g>
</g>
<!-- Node5&#45;&gt;Node6 -->
<g id="edge5" class="edge">
<title>Node5&#45;&gt;Node6</title>
<path fill="none" stroke="midnightblue" d="M246.46,-112.08C249.71,-104.77 254.42,-94.18 258.45,-85.1"/>
<polygon fill="midnightblue" stroke="midnightblue" points="261.75,-86.31 262.61,-75.75 255.35,-83.47 261.75,-86.31"/>
</g>
<!-- Node6&#45;&gt;Node4 -->
<g id="edge6" class="edge">
<title>Node6&#45;&gt;Node4</title>
<path fill="none" stroke="midnightblue" d="M273.6,-56.08C279.74,-48.38 288.77,-37.03 296.24,-27.65"/>
<polygon fill="midnightblue" stroke="midnightblue" points="299.04,-29.75 302.53,-19.75 293.56,-25.39 299.04,-29.75"/>
</g>
<!-- Node7&#45;&gt;Node4 -->
<g id="edge14" class="edge">
<title>Node7&#45;&gt;Node4</title>
<path fill="none" stroke="midnightblue" d="M385.87,-168.38C377.38,-148.39 355.38,-97.42 334.5,-56 329.82,-46.71 324.22,-36.56 319.51,-28.25"/>
<polygon fill="midnightblue" stroke="midnightblue" points="322.51,-26.45 314.5,-19.52 316.44,-29.93 322.51,-26.45"/>
</g>
<!-- Node8 -->
<g id="node8" class="node">
<title>Node8</title>
<g id="a_node8"><a xlink:href="quat_8h.html" target="_top" xlink:title=" ">
<polygon fill="white" stroke="black" points="380,-112.5 380,-131.5 475,-131.5 475,-112.5 380,-112.5"/>
<text text-anchor="middle" x="427.5" y="-119.5" font-family="Helvetica,sans-Serif" font-size="10.00">dolphin/mtx/quat.h</text>
</a>
</g>
</g>
<!-- Node7&#45;&gt;Node8 -->
<g id="edge9" class="edge">
<title>Node7&#45;&gt;Node8</title>
<path fill="none" stroke="midnightblue" d="M395.77,-168.08C401.14,-160.46 409.02,-149.26 415.58,-139.94"/>
<polygon fill="midnightblue" stroke="midnightblue" points="418.45,-141.94 421.34,-131.75 412.72,-137.91 418.45,-141.94"/>
</g>
<!-- Node9 -->
<g id="node9" class="node">
<title>Node9</title>
<g id="a_node9"><a xlink:href="vec_8h.html" target="_top" xlink:title=" ">
<polygon fill="white" stroke="black" points="419.5,-56.5 419.5,-75.5 511.5,-75.5 511.5,-56.5 419.5,-56.5"/>
<text text-anchor="middle" x="465.5" y="-63.5" font-family="Helvetica,sans-Serif" font-size="10.00">dolphin/mtx/vec.h</text>
</a>
</g>
</g>
<!-- Node7&#45;&gt;Node9 -->
<g id="edge13" class="edge">
<title>Node7&#45;&gt;Node9</title>
<path fill="none" stroke="midnightblue" d="M430.55,-168.38C450.46,-161.92 472.59,-150.81 484.5,-132 493.8,-117.31 486.01,-97.9 477.78,-84.13"/>
<polygon fill="midnightblue" stroke="midnightblue" points="480.62,-82.07 472.21,-75.62 474.76,-85.91 480.62,-82.07"/>
</g>
<!-- Node8&#45;&gt;Node4 -->
<g id="edge12" class="edge">
<title>Node8&#45;&gt;Node4</title>
<path fill="none" stroke="midnightblue" d="M420.16,-112.16C409.25,-99.23 387.87,-74.69 367.5,-56 355.68,-45.15 341.46,-34.09 330.05,-25.65"/>
<polygon fill="midnightblue" stroke="midnightblue" points="332.11,-22.81 321.97,-19.75 327.99,-28.47 332.11,-22.81"/>
</g>
<!-- Node8&#45;&gt;Node9 -->
<g id="edge10" class="edge">
<title>Node8&#45;&gt;Node9</title>
<path fill="none" stroke="midnightblue" d="M433.77,-112.08C439.14,-104.46 447.02,-93.26 453.58,-83.94"/>
<polygon fill="midnightblue" stroke="midnightblue" points="456.45,-85.94 459.34,-75.75 450.72,-81.91 456.45,-85.94"/>
</g>
<!-- Node9&#45;&gt;Node4 -->
<g id="edge11" class="edge">
<title>Node9&#45;&gt;Node4</title>
<path fill="none" stroke="midnightblue" d="M440.78,-56.44C414.65,-47.4 373.24,-33.06 343.92,-22.92"/>
<polygon fill="midnightblue" stroke="midnightblue" points="344.7,-19.48 334.1,-19.52 342.41,-26.1 344.7,-19.48"/>
</g>
</g>
</svg>
