<?xml version="1.0" encoding="UTF-8" standalone="no"?>
<!DOCTYPE svg PUBLIC "-//W3C//DTD SVG 1.1//EN"
 "http://www.w3.org/Graphics/SVG/1.1/DTD/svg11.dtd">
<!-- Generated by graphviz version 2.44.0 ()
 -->
<!-- Title: include/JSystem/J2DGraph/J2DPane.h Pages: 1 -->
<!--zoomable 397 -->
<svg id="main" version="1.1" xmlns="http://www.w3.org/2000/svg" xmlns:xlink="http://www.w3.org/1999/xlink" xml:space="preserve" onload="init(evt)">
<style type="text/css"><![CDATA[
.edge:hover path { stroke: red; }
.edge:hover polygon { stroke: red; fill: red; }
]]></style>
<script type="text/javascript"><![CDATA[
var edges = document.getElementsByTagName('g');
if (edges && edges.length) {
  for (var i=0;i<edges.length;i++) {
    if (edges[i].id.substr(0,4)=='edge') {
      edges[i].setAttribute('class','edge');
    }
  }
}
]]></script>
        <defs>
                <circle id="rim" cx="0" cy="0" r="7"/>
                <circle id="rim2" cx="0" cy="0" r="3.5"/>
                <g id="zoomPlus">
                        <use xlink:href="#rim" fill="#404040">
                                <set attributeName="fill" to="#808080" begin="zoomplus.mouseover" end="zoomplus.mouseout"/>
                        </use>
                        <path d="M-4,0h8M0,-4v8" fill="none" stroke="white" stroke-width="1.5" pointer-events="none"/>
                </g>
                <g id="zoomMin">
                        <use xlink:href="#rim" fill="#404040">
                                <set attributeName="fill" to="#808080" begin="zoomminus.mouseover" end="zoomminus.mouseout"/>
                        </use>
                        <path d="M-4,0h8" fill="none" stroke="white" stroke-width="1.5" pointer-events="none"/>
                </g>
                <g id="dirArrow">
                        <path fill="none" stroke="white" stroke-width="1.5" d="M0,-3.0v7 M-2.5,-0.5L0,-3.0L2.5,-0.5"/>
                </g>
               <g id="resetDef">
                       <use xlink:href="#rim2" fill="#404040">
                               <set attributeName="fill" to="#808080" begin="reset.mouseover" end="reset.mouseout"/>
                       </use>
               </g>
        </defs>

<script type="text/javascript">
var viewWidth = 1982;
var viewHeight = 397;
var sectionId = 'dynsection-0';
</script>
<script xlink:href="svgpan.js"/>
<svg id="graph" class="graph">
<g id="viewport">
<title>include/JSystem/J2DGraph/J2DPane.h</title>
<polygon fill="white" stroke="transparent" points="-4,4 -4,-393 1978.12,-393 1978.12,4 -4,4"/>
<!-- Node1 -->
<g id="node1" class="node">
<title>Node1</title>
<g id="a_node1"><a xlink:title=" ">
<polygon fill="#bfbfbf" stroke="black" points="497.26,-358.5 497.26,-388.5 632.26,-388.5 632.26,-358.5 497.26,-358.5"/>
<text text-anchor="start" x="505.26" y="-376.5" font-family="Helvetica,sans-Serif" font-size="10.00">include/JSystem/J2DGraph</text>
<text text-anchor="middle" x="564.76" y="-365.5" font-family="Helvetica,sans-Serif" font-size="10.00">/J2DPane.h</text>
</a>
</g>
</g>
<!-- Node2 -->
<g id="node2" class="node">
<title>Node2</title>
<g id="a_node2"><a xlink:href="J2DAnimation_8h.html" target="_top" xlink:title=" ">
<polygon fill="white" stroke="black" points="208.26,-118 208.26,-137 381.26,-137 381.26,-118 208.26,-118"/>
<text text-anchor="middle" x="294.76" y="-125" font-family="Helvetica,sans-Serif" font-size="10.00">JSystem/J2DGraph/J2DAnimation.h</text>
</a>
</g>
</g>
<!-- Node1&#45;&gt;Node2 -->
<g id="edge1" class="edge">
<title>Node1&#45;&gt;Node2</title>
<path fill="none" stroke="midnightblue" d="M544.95,-358.49C531.36,-348.66 513.09,-335.01 497.76,-322 424.56,-259.88 343.68,-178.65 310.39,-144.61"/>
<polygon fill="midnightblue" stroke="midnightblue" points="312.81,-142.08 303.33,-137.36 307.8,-146.97 312.81,-142.08"/>
</g>
<!-- Node4 -->
<g id="node4" class="node">
<title>Node4</title>
<g id="a_node4"><a xlink:href="types_8h.html" target="_top" xlink:title=" ">
<polygon fill="white" stroke="black" points="862.26,-0.5 862.26,-19.5 943.26,-19.5 943.26,-0.5 862.26,-0.5"/>
<text text-anchor="middle" x="902.76" y="-7.5" font-family="Helvetica,sans-Serif" font-size="10.00">dolphin/types.h</text>
</a>
</g>
</g>
<!-- Node1&#45;&gt;Node4 -->
<g id="edge69" class="edge">
<title>Node1&#45;&gt;Node4</title>
<path fill="none" stroke="midnightblue" d="M496.99,-372.47C348.93,-370.57 9.76,-355.48 9.76,-257 9.76,-257 9.76,-257 9.76,-126.5 9.76,-101.96 -50.66,-107.98 132.76,-56 268.48,-17.54 702.37,-11.9 851.7,-11.12"/>
<polygon fill="midnightblue" stroke="midnightblue" points="851.97,-14.61 861.95,-11.07 851.93,-7.61 851.97,-14.61"/>
</g>
<!-- Node5 -->
<g id="node5" class="node">
<title>Node5</title>
<g id="a_node5"><a xlink:href="J2DGrafContext_8h.html" target="_top" xlink:title=" ">
<polygon fill="white" stroke="black" points="161.76,-179.5 161.76,-209.5 301.76,-209.5 301.76,-179.5 161.76,-179.5"/>
<text text-anchor="start" x="169.76" y="-197.5" font-family="Helvetica,sans-Serif" font-size="10.00">JSystem/J2DGraph/J2DGraf</text>
<text text-anchor="middle" x="231.76" y="-186.5" font-family="Helvetica,sans-Serif" font-size="10.00">Context.h</text>
</a>
</g>
</g>
<!-- Node1&#45;&gt;Node5 -->
<g id="edge5" class="edge">
<title>Node1&#45;&gt;Node5</title>
<path fill="none" stroke="midnightblue" d="M497.09,-372.36C443.99,-369.21 370.34,-357.88 316.76,-322 278.8,-296.58 253.38,-247.92 240.86,-218.92"/>
<polygon fill="midnightblue" stroke="midnightblue" points="244.03,-217.44 236.96,-209.55 237.57,-220.13 244.03,-217.44"/>
</g>
<!-- Node6 -->
<g id="node6" class="node">
<title>Node6</title>
<g id="a_node6"><a xlink:href="JGeometry_8h.html" target="_top" xlink:title=" ">
<polygon fill="white" stroke="black" points="38.26,-118 38.26,-137 151.26,-137 151.26,-118 38.26,-118"/>
<text text-anchor="middle" x="94.76" y="-125" font-family="Helvetica,sans-Serif" font-size="10.00">JSystem/JGeometry.h</text>
</a>
</g>
</g>
<!-- Node1&#45;&gt;Node6 -->
<g id="edge12" class="edge">
<title>Node1&#45;&gt;Node6</title>
<path fill="none" stroke="midnightblue" d="M497.2,-369.37C439.95,-364.58 356.87,-352.48 290.76,-322 219.03,-288.93 206.82,-267.59 152.76,-210 133.88,-189.89 116.11,-163.36 105.33,-146.12"/>
<polygon fill="midnightblue" stroke="midnightblue" points="108.05,-143.86 99.84,-137.16 102.08,-147.52 108.05,-143.86"/>
</g>
<!-- Node8 -->
<g id="node8" class="node">
<title>Node8</title>
<g id="a_node8"><a xlink:href="JKRArchive_8h.html" target="_top" xlink:title=" ">
<polygon fill="white" stroke="black" points="1172.26,-302.5 1172.26,-321.5 1325.26,-321.5 1325.26,-302.5 1172.26,-302.5"/>
<text text-anchor="middle" x="1248.76" y="-309.5" font-family="Helvetica,sans-Serif" font-size="10.00">JSystem/JKernel/JKRArchive.h</text>
</a>
</g>
</g>
<!-- Node1&#45;&gt;Node8 -->
<g id="edge13" class="edge">
<title>Node1&#45;&gt;Node8</title>
<path fill="none" stroke="midnightblue" d="M632.53,-366.6C757.48,-355.74 1023.95,-332.56 1161.93,-320.55"/>
<polygon fill="midnightblue" stroke="midnightblue" points="1162.38,-324.03 1172.04,-319.67 1161.78,-317.05 1162.38,-324.03"/>
</g>
<!-- Node13 -->
<g id="node13" class="node">
<title>Node13</title>
<g id="a_node13"><a xlink:href="JSUList_8h.html" target="_top" xlink:title=" ">
<polygon fill="white" stroke="black" points="1231.26,-56.5 1231.26,-75.5 1374.26,-75.5 1374.26,-56.5 1231.26,-56.5"/>
<text text-anchor="middle" x="1302.76" y="-63.5" font-family="Helvetica,sans-Serif" font-size="10.00">JSystem/JSupport/JSUList.h</text>
</a>
</g>
</g>
<!-- Node1&#45;&gt;Node13 -->
<g id="edge35" class="edge">
<title>Node1&#45;&gt;Node13</title>
<path fill="none" stroke="midnightblue" d="M632.54,-370.16C794.46,-364.22 1200.24,-347.24 1333.76,-322 1414.42,-306.75 1450.26,-322.55 1509.76,-266 1538.59,-238.6 1551.79,-212.76 1530.76,-179 1494.1,-120.15 1416.48,-91.34 1362.03,-77.87"/>
<polygon fill="midnightblue" stroke="midnightblue" points="1362.69,-74.43 1352.15,-75.53 1361.08,-81.24 1362.69,-74.43"/>
</g>
<!-- Node18 -->
<g id="node18" class="node">
<title>Node18</title>
<g id="a_node18"><a xlink:href="JSURandomInputStream_8h.html" target="_top" xlink:title=" ">
<polygon fill="white" stroke="black" points="1616.26,-179.5 1616.26,-209.5 1771.26,-209.5 1771.26,-179.5 1616.26,-179.5"/>
<text text-anchor="start" x="1624.26" y="-197.5" font-family="Helvetica,sans-Serif" font-size="10.00">JSystem/JSupport/JSURandom</text>
<text text-anchor="middle" x="1693.76" y="-186.5" font-family="Helvetica,sans-Serif" font-size="10.00">InputStream.h</text>
</a>
</g>
</g>
<!-- Node1&#45;&gt;Node18 -->
<g id="edge36" class="edge">
<title>Node1&#45;&gt;Node18</title>
<path fill="none" stroke="midnightblue" d="M632.49,-372.57C849.28,-372.33 1516.92,-367.84 1601.76,-322 1643.4,-299.5 1670.99,-249 1684.36,-219.06"/>
<polygon fill="midnightblue" stroke="midnightblue" points="1687.62,-220.33 1688.34,-209.76 1681.18,-217.57 1687.62,-220.33"/>
</g>
<!-- Node21 -->
<g id="node21" class="node">
<title>Node21</title>
<g id="a_node21"><a xlink:href="JUTFont_8h.html" target="_top" xlink:title=" ">
<polygon fill="white" stroke="black" points="395.26,-185 395.26,-204 532.26,-204 532.26,-185 395.26,-185"/>
<text text-anchor="middle" x="463.76" y="-192" font-family="Helvetica,sans-Serif" font-size="10.00">JSystem/JUtility/JUTFont.h</text>
</a>
</g>
</g>
<!-- Node1&#45;&gt;Node21 -->
<g id="edge42" class="edge">
<title>Node1&#45;&gt;Node21</title>
<path fill="none" stroke="midnightblue" d="M549.42,-358.21C529.88,-339.12 496.54,-303.33 478.76,-266 470.95,-249.6 467.17,-229.12 465.37,-214.47"/>
<polygon fill="midnightblue" stroke="midnightblue" points="468.81,-213.75 464.3,-204.16 461.85,-214.47 468.81,-213.75"/>
</g>
<!-- Node24 -->
<g id="node24" class="node">
<title>Node24</title>
<g id="a_node24"><a xlink:href="JUTResFont_8h.html" target="_top" xlink:title=" ">
<polygon fill="white" stroke="black" points="487.76,-246.5 487.76,-265.5 641.76,-265.5 641.76,-246.5 487.76,-246.5"/>
<text text-anchor="middle" x="564.76" y="-253.5" font-family="Helvetica,sans-Serif" font-size="10.00">JSystem/JUtility/JUTResFont.h</text>
</a>
</g>
</g>
<!-- Node1&#45;&gt;Node24 -->
<g id="edge50" class="edge">
<title>Node1&#45;&gt;Node24</title>
<path fill="none" stroke="midnightblue" d="M564.76,-358.34C564.76,-337.62 564.76,-299.02 564.76,-275.9"/>
<polygon fill="midnightblue" stroke="midnightblue" points="568.26,-275.67 564.76,-265.67 561.26,-275.67 568.26,-275.67"/>
</g>
<!-- Node26 -->
<g id="node26" class="node">
<title>Node26</title>
<g id="a_node26"><a xlink:href="JUTTexture_8h.html" target="_top" xlink:title=" ">
<polygon fill="white" stroke="black" points="660.26,-246.5 660.26,-265.5 809.26,-265.5 809.26,-246.5 660.26,-246.5"/>
<text text-anchor="middle" x="734.76" y="-253.5" font-family="Helvetica,sans-Serif" font-size="10.00">JSystem/JUtility/JUTTexture.h</text>
</a>
</g>
</g>
<!-- Node1&#45;&gt;Node26 -->
<g id="edge57" class="edge">
<title>Node1&#45;&gt;Node26</title>
<path fill="none" stroke="midnightblue" d="M585.61,-358.34C618.19,-336.2 680.83,-293.64 713.6,-271.38"/>
<polygon fill="midnightblue" stroke="midnightblue" points="715.7,-274.18 722,-265.67 711.76,-268.39 715.7,-274.18"/>
</g>
<!-- Node28 -->
<g id="node28" class="node">
<title>Node28</title>
<g id="a_node28"><a xlink:href="mtx_8h.html" target="_top" xlink:title=" ">
<polygon fill="white" stroke="black" points="1824.76,-185 1824.76,-204 1916.76,-204 1916.76,-185 1824.76,-185"/>
<text text-anchor="middle" x="1870.76" y="-192" font-family="Helvetica,sans-Serif" font-size="10.00">dolphin/mtx/mtx.h</text>
</a>
</g>
</g>
<!-- Node1&#45;&gt;Node28 -->
<g id="edge62" class="edge">
<title>Node1&#45;&gt;Node28</title>
<path fill="none" stroke="midnightblue" d="M632.27,-373.1C835.74,-374.32 1440.64,-373.4 1629.76,-322 1718.18,-297.97 1810.91,-237.77 1850.7,-209.98"/>
<polygon fill="midnightblue" stroke="midnightblue" points="1852.87,-212.74 1859.01,-204.11 1848.83,-207.02 1852.87,-212.74"/>
</g>
<!-- Node3 -->
<g id="node3" class="node">
<title>Node3</title>
<g id="a_node3"><a xlink:href="GXTexture_8h.html" target="_top" xlink:title=" ">
<polygon fill="white" stroke="black" points="377.26,-56.5 377.26,-75.5 494.26,-75.5 494.26,-56.5 377.26,-56.5"/>
<text text-anchor="middle" x="435.76" y="-63.5" font-family="Helvetica,sans-Serif" font-size="10.00">dolphin/gx/GXTexture.h</text>
</a>
</g>
</g>
<!-- Node2&#45;&gt;Node3 -->
<g id="edge2" class="edge">
<title>Node2&#45;&gt;Node3</title>
<path fill="none" stroke="midnightblue" d="M314.96,-117.98C338.84,-107.9 378.76,-91.05 406.13,-79.5"/>
<polygon fill="midnightblue" stroke="midnightblue" points="407.74,-82.62 415.6,-75.51 405.02,-76.17 407.74,-82.62"/>
</g>
<!-- Node2&#45;&gt;Node4 -->
<g id="edge4" class="edge">
<title>Node2&#45;&gt;Node4</title>
<path fill="none" stroke="midnightblue" d="M299.71,-117.63C308.98,-102 330.59,-69.89 358.76,-56 444.57,-13.69 733.41,-10.13 851.65,-10.51"/>
<polygon fill="midnightblue" stroke="midnightblue" points="851.87,-14.01 861.88,-10.56 851.9,-7.01 851.87,-14.01"/>
</g>
<!-- Node3&#45;&gt;Node4 -->
<g id="edge3" class="edge">
<title>Node3&#45;&gt;Node4</title>
<path fill="none" stroke="midnightblue" d="M494.33,-57.73C499.21,-57.14 504.07,-56.56 508.76,-56 632.01,-41.36 777.05,-25.03 852.08,-16.64"/>
<polygon fill="midnightblue" stroke="midnightblue" points="852.64,-20.1 862.19,-15.51 851.87,-13.14 852.64,-20.1"/>
</g>
<!-- Node5&#45;&gt;Node4 -->
<g id="edge11" class="edge">
<title>Node5&#45;&gt;Node4</title>
<path fill="none" stroke="midnightblue" d="M218.26,-179.43C203.73,-162.5 184.5,-133.68 198.76,-112 233.34,-59.45 267.69,-71.11 328.76,-56 427.29,-31.63 730.72,-17.61 851.95,-12.85"/>
<polygon fill="midnightblue" stroke="midnightblue" points="852.22,-16.34 862.08,-12.46 851.95,-9.35 852.22,-16.34"/>
</g>
<!-- Node5&#45;&gt;Node6 -->
<g id="edge6" class="edge">
<title>Node5&#45;&gt;Node6</title>
<path fill="none" stroke="midnightblue" d="M202.03,-179.4C178.21,-168.09 145.05,-152.36 121.93,-141.39"/>
<polygon fill="midnightblue" stroke="midnightblue" points="123.23,-138.13 112.69,-137.01 120.23,-144.46 123.23,-138.13"/>
</g>
<!-- Node7 -->
<g id="node7" class="node">
<title>Node7</title>
<g id="a_node7"><a xlink:href="JUtility_8h.html" target="_top" xlink:title=" ">
<polygon fill="white" stroke="black" points="399.26,-118 399.26,-137 494.26,-137 494.26,-118 399.26,-118"/>
<text text-anchor="middle" x="446.76" y="-125" font-family="Helvetica,sans-Serif" font-size="10.00">JSystem/JUtility.h</text>
</a>
</g>
</g>
<!-- Node5&#45;&gt;Node7 -->
<g id="edge8" class="edge">
<title>Node5&#45;&gt;Node7</title>
<path fill="none" stroke="midnightblue" d="M278.15,-179.48C317.19,-167.67 372.34,-151 408.79,-139.98"/>
<polygon fill="midnightblue" stroke="midnightblue" points="409.99,-143.27 418.55,-137.03 407.97,-136.57 409.99,-143.27"/>
</g>
<!-- Node6&#45;&gt;Node4 -->
<g id="edge7" class="edge">
<title>Node6&#45;&gt;Node4</title>
<path fill="none" stroke="midnightblue" d="M100.31,-117.8C110.86,-102.14 135.49,-69.57 165.76,-56 227.94,-28.13 695.2,-15.51 851.79,-12.04"/>
<polygon fill="midnightblue" stroke="midnightblue" points="852.16,-15.53 862.08,-11.81 852.01,-8.53 852.16,-15.53"/>
</g>
<!-- Node7&#45;&gt;Node3 -->
<g id="edge9" class="edge">
<title>Node7&#45;&gt;Node3</title>
<path fill="none" stroke="midnightblue" d="M445.19,-117.98C443.63,-109.58 441.21,-96.48 439.21,-85.66"/>
<polygon fill="midnightblue" stroke="midnightblue" points="442.59,-84.71 437.33,-75.51 435.71,-85.98 442.59,-84.71"/>
</g>
<!-- Node7&#45;&gt;Node4 -->
<g id="edge10" class="edge">
<title>Node7&#45;&gt;Node4</title>
<path fill="none" stroke="midnightblue" d="M424.09,-117.99C393.52,-105.32 345.37,-80.36 367.76,-56 400.13,-20.79 724.44,-13.12 851.8,-11.45"/>
<polygon fill="midnightblue" stroke="midnightblue" points="852.11,-14.95 862.07,-11.33 852.02,-7.95 852.11,-14.95"/>
</g>
<!-- Node9 -->
<g id="node9" class="node">
<title>Node9</title>
<g id="a_node9"><a xlink:href="JKRCompression_8h.html" target="_top" xlink:title=" ">
<polygon fill="white" stroke="black" points="1160.26,-185 1160.26,-204 1337.26,-204 1337.26,-185 1160.26,-185"/>
<text text-anchor="middle" x="1248.76" y="-192" font-family="Helvetica,sans-Serif" font-size="10.00">JSystem/JKernel/JKRCompression.h</text>
</a>
</g>
</g>
<!-- Node8&#45;&gt;Node9 -->
<g id="edge14" class="edge">
<title>Node8&#45;&gt;Node9</title>
<path fill="none" stroke="midnightblue" d="M1248.76,-302.32C1248.76,-283.76 1248.76,-239.84 1248.76,-214.47"/>
<polygon fill="midnightblue" stroke="midnightblue" points="1252.26,-214.28 1248.76,-204.28 1245.26,-214.28 1252.26,-214.28"/>
</g>
<!-- Node10 -->
<g id="node10" class="node">
<title>Node10</title>
<g id="a_node10"><a xlink:href="JKRDecomp_8h.html" target="_top" xlink:title=" ">
<polygon fill="white" stroke="black" points="1027.76,-246.5 1027.76,-265.5 1183.76,-265.5 1183.76,-246.5 1027.76,-246.5"/>
<text text-anchor="middle" x="1105.76" y="-253.5" font-family="Helvetica,sans-Serif" font-size="10.00">JSystem/JKernel/JKRDecomp.h</text>
</a>
</g>
</g>
<!-- Node8&#45;&gt;Node10 -->
<g id="edge15" class="edge">
<title>Node8&#45;&gt;Node10</title>
<path fill="none" stroke="midnightblue" d="M1226.1,-302.44C1202.36,-293.48 1164.85,-279.31 1138.02,-269.18"/>
<polygon fill="midnightblue" stroke="midnightblue" points="1138.91,-265.77 1128.31,-265.52 1136.43,-272.32 1138.91,-265.77"/>
</g>
<!-- Node16 -->
<g id="node16" class="node">
<title>Node16</title>
<g id="a_node16"><a xlink:href="JKRFileLoader_8h.html" target="_top" xlink:title=" ">
<polygon fill="white" stroke="black" points="1355.76,-185 1355.76,-204 1521.76,-204 1521.76,-185 1355.76,-185"/>
<text text-anchor="middle" x="1438.76" y="-192" font-family="Helvetica,sans-Serif" font-size="10.00">JSystem/JKernel/JKRFileLoader.h</text>
</a>
</g>
</g>
<!-- Node8&#45;&gt;Node16 -->
<g id="edge29" class="edge">
<title>Node8&#45;&gt;Node16</title>
<path fill="none" stroke="midnightblue" d="M1263.04,-302.32C1295.72,-282.45 1376.17,-233.55 1415.86,-209.42"/>
<polygon fill="midnightblue" stroke="midnightblue" points="1417.85,-212.31 1424.57,-204.12 1414.21,-206.33 1417.85,-212.31"/>
</g>
<!-- Node17 -->
<g id="node17" class="node">
<title>Node17</title>
<g id="a_node17"><a xlink:href="global_8h.html" target="_top" xlink:title=" ">
<polygon fill="white" stroke="black" points="1450.76,-246.5 1450.76,-265.5 1500.76,-265.5 1500.76,-246.5 1450.76,-246.5"/>
<text text-anchor="middle" x="1475.76" y="-253.5" font-family="Helvetica,sans-Serif" font-size="10.00">global.h</text>
</a>
</g>
</g>
<!-- Node8&#45;&gt;Node17 -->
<g id="edge33" class="edge">
<title>Node8&#45;&gt;Node17</title>
<path fill="none" stroke="midnightblue" d="M1284.73,-302.44C1327.46,-292.28 1398.28,-275.43 1440.64,-265.36"/>
<polygon fill="midnightblue" stroke="midnightblue" points="1441.59,-268.73 1450.5,-263.01 1439.97,-261.92 1441.59,-268.73"/>
</g>
<!-- Node10&#45;&gt;Node4 -->
<g id="edge28" class="edge">
<title>Node10&#45;&gt;Node4</title>
<path fill="none" stroke="midnightblue" d="M1041.37,-246.43C1019.4,-240.09 997.06,-229.08 983.76,-210 975.88,-198.7 979.64,-192.15 983.76,-179 989.58,-160.41 999.96,-160.38 1008.76,-143 1022.99,-114.91 1026.58,-107.05 1031.76,-76 1033.22,-67.23 1036.91,-63.25 1031.76,-56 1014.09,-31.11 981.58,-19.88 953.62,-14.85"/>
<polygon fill="midnightblue" stroke="midnightblue" points="953.99,-11.37 943.56,-13.27 952.9,-18.28 953.99,-11.37"/>
</g>
<!-- Node10&#45;&gt;Node9 -->
<g id="edge16" class="edge">
<title>Node10&#45;&gt;Node9</title>
<path fill="none" stroke="midnightblue" d="M1126.25,-246.48C1150.57,-236.36 1191.31,-219.4 1219.08,-207.85"/>
<polygon fill="midnightblue" stroke="midnightblue" points="1220.42,-211.08 1228.31,-204.01 1217.73,-204.62 1220.42,-211.08"/>
</g>
<!-- Node11 -->
<g id="node11" class="node">
<title>Node11</title>
<g id="a_node11"><a xlink:href="JKRThread_8h.html" target="_top" xlink:title=" ">
<polygon fill="white" stroke="black" points="992.76,-185 992.76,-204 1142.76,-204 1142.76,-185 992.76,-185"/>
<text text-anchor="middle" x="1067.76" y="-192" font-family="Helvetica,sans-Serif" font-size="10.00">JSystem/JKernel/JKRThread.h</text>
</a>
</g>
</g>
<!-- Node10&#45;&gt;Node11 -->
<g id="edge17" class="edge">
<title>Node10&#45;&gt;Node11</title>
<path fill="none" stroke="midnightblue" d="M1100.32,-246.48C1094.67,-237.64 1085.7,-223.59 1078.6,-212.48"/>
<polygon fill="midnightblue" stroke="midnightblue" points="1081.53,-210.55 1073.2,-204.01 1075.63,-214.32 1081.53,-210.55"/>
</g>
<!-- Node11&#45;&gt;Node4 -->
<g id="edge27" class="edge">
<title>Node11&#45;&gt;Node4</title>
<path fill="none" stroke="midnightblue" d="M1070.7,-184.95C1078.17,-161.47 1095.24,-95.21 1064.76,-56 1051.04,-38.35 995.71,-25.7 953.5,-18.4"/>
<polygon fill="midnightblue" stroke="midnightblue" points="954.07,-14.95 943.63,-16.75 952.91,-21.85 954.07,-14.95"/>
</g>
<!-- Node12 -->
<g id="node12" class="node">
<title>Node12</title>
<g id="a_node12"><a xlink:href="JKRDisposer_8h.html" target="_top" xlink:title=" ">
<polygon fill="white" stroke="black" points="1116.76,-118 1116.76,-137 1274.76,-137 1274.76,-118 1116.76,-118"/>
<text text-anchor="middle" x="1195.76" y="-125" font-family="Helvetica,sans-Serif" font-size="10.00">JSystem/JKernel/JKRDisposer.h</text>
</a>
</g>
</g>
<!-- Node11&#45;&gt;Node12 -->
<g id="edge18" class="edge">
<title>Node11&#45;&gt;Node12</title>
<path fill="none" stroke="midnightblue" d="M1084.76,-184.87C1106.47,-173.84 1144.26,-154.66 1169.63,-141.77"/>
<polygon fill="midnightblue" stroke="midnightblue" points="1171.36,-144.82 1178.69,-137.17 1168.19,-138.57 1171.36,-144.82"/>
</g>
<!-- Node11&#45;&gt;Node13 -->
<g id="edge22" class="edge">
<title>Node11&#45;&gt;Node13</title>
<path fill="none" stroke="midnightblue" d="M1115.86,-184.99C1175.78,-173.97 1271.79,-154.79 1283.76,-143 1298.94,-128.05 1302.66,-102.93 1303.26,-85.69"/>
<polygon fill="midnightblue" stroke="midnightblue" points="1306.76,-85.7 1303.29,-75.69 1299.76,-85.67 1306.76,-85.7"/>
</g>
<!-- Node14 -->
<g id="node14" class="node">
<title>Node14</title>
<g id="a_node14"><a xlink:href="OS_8h.html" target="_top" xlink:title=" ">
<polygon fill="white" stroke="black" points="913.76,-118 913.76,-137 999.76,-137 999.76,-118 913.76,-118"/>
<text text-anchor="middle" x="956.76" y="-125" font-family="Helvetica,sans-Serif" font-size="10.00">dolphin/os/OS.h</text>
</a>
</g>
</g>
<!-- Node11&#45;&gt;Node14 -->
<g id="edge23" class="edge">
<title>Node11&#45;&gt;Node14</title>
<path fill="none" stroke="midnightblue" d="M1052.79,-184.73C1034.15,-173.82 1002.1,-155.05 980.19,-142.22"/>
<polygon fill="midnightblue" stroke="midnightblue" points="981.89,-139.16 971.49,-137.13 978.36,-145.2 981.89,-139.16"/>
</g>
<!-- Node12&#45;&gt;Node4 -->
<g id="edge21" class="edge">
<title>Node12&#45;&gt;Node4</title>
<path fill="none" stroke="midnightblue" d="M1186.87,-117.62C1171.27,-102.55 1137.3,-72.05 1102.76,-56 1054.86,-33.74 995.27,-22.17 953.65,-16.37"/>
<polygon fill="midnightblue" stroke="midnightblue" points="953.85,-12.86 943.48,-15.02 952.93,-19.8 953.85,-12.86"/>
</g>
<!-- Node12&#45;&gt;Node13 -->
<g id="edge19" class="edge">
<title>Node12&#45;&gt;Node13</title>
<path fill="none" stroke="midnightblue" d="M1211.09,-117.98C1228.73,-108.17 1257.92,-91.93 1278.62,-80.42"/>
<polygon fill="midnightblue" stroke="midnightblue" points="1280.42,-83.43 1287.46,-75.51 1277.02,-77.31 1280.42,-83.43"/>
</g>
<!-- Node13&#45;&gt;Node4 -->
<g id="edge20" class="edge">
<title>Node13&#45;&gt;Node4</title>
<path fill="none" stroke="midnightblue" d="M1239.38,-56.44C1160.22,-45.76 1026.37,-27.69 953.59,-17.86"/>
<polygon fill="midnightblue" stroke="midnightblue" points="953.69,-14.34 943.31,-16.47 952.75,-21.28 953.69,-14.34"/>
</g>
<!-- Node14&#45;&gt;Node4 -->
<g id="edge24" class="edge">
<title>Node14&#45;&gt;Node4</title>
<path fill="none" stroke="midnightblue" d="M949.37,-117.74C941.54,-108.07 929.3,-91.79 921.76,-76 914.64,-61.08 909.61,-42.94 906.52,-29.61"/>
<polygon fill="midnightblue" stroke="midnightblue" points="909.92,-28.77 904.38,-19.73 903.08,-30.25 909.92,-28.77"/>
</g>
<!-- Node15 -->
<g id="node15" class="node">
<title>Node15</title>
<g id="a_node15"><a xlink:href="dvd_8h.html" target="_top" xlink:title=" ">
<polygon fill="white" stroke="black" points="930.76,-56.5 930.76,-75.5 1022.76,-75.5 1022.76,-56.5 930.76,-56.5"/>
<text text-anchor="middle" x="976.76" y="-63.5" font-family="Helvetica,sans-Serif" font-size="10.00">dolphin/dvd/dvd.h</text>
</a>
</g>
</g>
<!-- Node14&#45;&gt;Node15 -->
<g id="edge25" class="edge">
<title>Node14&#45;&gt;Node15</title>
<path fill="none" stroke="midnightblue" d="M959.63,-117.98C962.48,-109.49 966.94,-96.2 970.6,-85.32"/>
<polygon fill="midnightblue" stroke="midnightblue" points="974.03,-86.1 973.9,-75.51 967.4,-83.87 974.03,-86.1"/>
</g>
<!-- Node15&#45;&gt;Node4 -->
<g id="edge26" class="edge">
<title>Node15&#45;&gt;Node4</title>
<path fill="none" stroke="midnightblue" d="M964.87,-56.32C953.61,-48.11 936.47,-35.6 923.05,-25.81"/>
<polygon fill="midnightblue" stroke="midnightblue" points="925.01,-22.9 914.87,-19.83 920.88,-28.56 925.01,-22.9"/>
</g>
<!-- Node16&#45;&gt;Node4 -->
<g id="edge32" class="edge">
<title>Node16&#45;&gt;Node4</title>
<path fill="none" stroke="midnightblue" d="M1438.2,-184.9C1436.06,-160.12 1426.22,-88.27 1382.76,-56 1348.84,-30.81 1069.85,-17.36 953.46,-12.8"/>
<polygon fill="midnightblue" stroke="midnightblue" points="953.5,-9.3 943.37,-12.42 953.23,-16.3 953.5,-9.3"/>
</g>
<!-- Node16&#45;&gt;Node12 -->
<g id="edge30" class="edge">
<title>Node16&#45;&gt;Node12</title>
<path fill="none" stroke="midnightblue" d="M1406.74,-184.94C1363.31,-173.32 1285.64,-152.54 1237.62,-139.7"/>
<polygon fill="midnightblue" stroke="midnightblue" points="1238.42,-136.29 1227.85,-137.08 1236.61,-143.05 1238.42,-136.29"/>
</g>
<!-- Node16&#45;&gt;Node13 -->
<g id="edge31" class="edge">
<title>Node16&#45;&gt;Node13</title>
<path fill="none" stroke="midnightblue" d="M1429.41,-184.81C1406.8,-163.77 1348.87,-109.89 1319.86,-82.9"/>
<polygon fill="midnightblue" stroke="midnightblue" points="1321.88,-80 1312.17,-75.76 1317.11,-85.13 1321.88,-80"/>
</g>
<!-- Node17&#45;&gt;Node4 -->
<g id="edge34" class="edge">
<title>Node17&#45;&gt;Node4</title>
<path fill="none" stroke="midnightblue" d="M1492.96,-246.39C1506.01,-238.79 1523,-226.39 1530.76,-210 1536.66,-197.55 1536.06,-191.72 1530.76,-179 1500.91,-107.34 1477.15,-88.73 1406.76,-56 1327.28,-19.05 1065.44,-12.36 953.86,-11.21"/>
<polygon fill="midnightblue" stroke="midnightblue" points="953.57,-7.71 943.54,-11.11 953.51,-14.71 953.57,-7.71"/>
</g>
<!-- Node18&#45;&gt;Node4 -->
<g id="edge41" class="edge">
<title>Node18&#45;&gt;Node4</title>
<path fill="none" stroke="midnightblue" d="M1665.6,-179.29C1649.35,-170.27 1629.16,-157.56 1613.76,-143 1579.26,-110.38 1593.19,-79.2 1551.76,-56 1500.09,-27.07 1097.4,-15.34 953.59,-12.04"/>
<polygon fill="midnightblue" stroke="midnightblue" points="953.37,-8.54 943.29,-11.81 953.21,-15.53 953.37,-8.54"/>
</g>
<!-- Node19 -->
<g id="node19" class="node">
<title>Node19</title>
<g id="a_node19"><a xlink:href="JSUInputStream_8h.html" target="_top" xlink:title=" ">
<polygon fill="white" stroke="black" points="1623.26,-112.5 1623.26,-142.5 1764.26,-142.5 1764.26,-112.5 1623.26,-112.5"/>
<text text-anchor="start" x="1631.26" y="-130.5" font-family="Helvetica,sans-Serif" font-size="10.00">JSystem/JSupport/JSUInput</text>
<text text-anchor="middle" x="1693.76" y="-119.5" font-family="Helvetica,sans-Serif" font-size="10.00">Stream.h</text>
</a>
</g>
</g>
<!-- Node18&#45;&gt;Node19 -->
<g id="edge37" class="edge">
<title>Node18&#45;&gt;Node19</title>
<path fill="none" stroke="midnightblue" d="M1693.76,-179.4C1693.76,-171.64 1693.76,-161.81 1693.76,-152.86"/>
<polygon fill="midnightblue" stroke="midnightblue" points="1697.26,-152.58 1693.76,-142.58 1690.26,-152.58 1697.26,-152.58"/>
</g>
<!-- Node19&#45;&gt;Node4 -->
<g id="edge40" class="edge">
<title>Node19&#45;&gt;Node4</title>
<path fill="none" stroke="midnightblue" d="M1678.65,-112.35C1659.59,-95.5 1625.04,-68.11 1589.76,-56 1472.14,-15.64 1091.85,-11.16 953.6,-10.9"/>
<polygon fill="midnightblue" stroke="midnightblue" points="953.3,-7.4 943.3,-10.88 953.3,-14.4 953.3,-7.4"/>
</g>
<!-- Node20 -->
<g id="node20" class="node">
<title>Node20</title>
<g id="a_node20"><a xlink:href="JSUIosBase_8h.html" target="_top" xlink:title=" ">
<polygon fill="white" stroke="black" points="1642.26,-56.5 1642.26,-75.5 1805.26,-75.5 1805.26,-56.5 1642.26,-56.5"/>
<text text-anchor="middle" x="1723.76" y="-63.5" font-family="Helvetica,sans-Serif" font-size="10.00">JSystem/JSupport/JSUIosBase.h</text>
</a>
</g>
</g>
<!-- Node19&#45;&gt;Node20 -->
<g id="edge38" class="edge">
<title>Node19&#45;&gt;Node20</title>
<path fill="none" stroke="midnightblue" d="M1700.87,-112.4C1705.05,-104.11 1710.37,-93.55 1714.83,-84.71"/>
<polygon fill="midnightblue" stroke="midnightblue" points="1718.02,-86.16 1719.4,-75.66 1711.77,-83.01 1718.02,-86.16"/>
</g>
<!-- Node20&#45;&gt;Node4 -->
<g id="edge39" class="edge">
<title>Node20&#45;&gt;Node4</title>
<path fill="none" stroke="midnightblue" d="M1642.08,-57.17C1637.23,-56.76 1632.43,-56.36 1627.76,-56 1374.82,-36.3 1071.69,-19.77 953.47,-13.6"/>
<polygon fill="midnightblue" stroke="midnightblue" points="953.44,-10.09 943.27,-13.07 953.08,-17.08 953.44,-10.09"/>
</g>
<!-- Node21&#45;&gt;Node4 -->
<g id="edge49" class="edge">
<title>Node21&#45;&gt;Node4</title>
<path fill="none" stroke="midnightblue" d="M471.19,-184.93C479.46,-175.17 492.95,-158.55 502.76,-143 525.89,-106.36 511.35,-80.97 546.76,-56 594.83,-22.11 765.67,-13.73 852.02,-11.67"/>
<polygon fill="midnightblue" stroke="midnightblue" points="852.19,-15.17 862.11,-11.45 852.04,-8.17 852.19,-15.17"/>
</g>
<!-- Node21&#45;&gt;Node7 -->
<g id="edge43" class="edge">
<title>Node21&#45;&gt;Node7</title>
<path fill="none" stroke="midnightblue" d="M461.47,-184.73C458.95,-175.09 454.82,-159.3 451.58,-146.91"/>
<polygon fill="midnightblue" stroke="midnightblue" points="454.93,-145.92 449.02,-137.13 448.16,-147.69 454.93,-145.92"/>
</g>
<!-- Node22 -->
<g id="node22" class="node">
<title>Node22</title>
<g id="a_node22"><a xlink:href="GX_8h.html" target="_top" xlink:title=" ">
<polygon fill="white" stroke="black" points="589.26,-118 589.26,-137 674.26,-137 674.26,-118 589.26,-118"/>
<text text-anchor="middle" x="631.76" y="-125" font-family="Helvetica,sans-Serif" font-size="10.00">dolphin/gx/GX.h</text>
</a>
</g>
</g>
<!-- Node21&#45;&gt;Node22 -->
<g id="edge44" class="edge">
<title>Node21&#45;&gt;Node22</title>
<path fill="none" stroke="midnightblue" d="M486.07,-184.87C515.27,-173.57 566.64,-153.7 599.92,-140.82"/>
<polygon fill="midnightblue" stroke="midnightblue" points="601.56,-143.94 609.63,-137.06 599.04,-137.41 601.56,-143.94"/>
</g>
<!-- Node22&#45;&gt;Node3 -->
<g id="edge47" class="edge">
<title>Node22&#45;&gt;Node3</title>
<path fill="none" stroke="midnightblue" d="M603.68,-117.98C569.48,-107.59 511.56,-90.01 473.49,-78.45"/>
<polygon fill="midnightblue" stroke="midnightblue" points="474.38,-75.06 463.79,-75.51 472.34,-81.76 474.38,-75.06"/>
</g>
<!-- Node22&#45;&gt;Node4 -->
<g id="edge48" class="edge">
<title>Node22&#45;&gt;Node4</title>
<path fill="none" stroke="midnightblue" d="M626.1,-118C617.22,-103.5 602.52,-73.84 617.76,-56 647.27,-21.47 777.97,-13.28 851.7,-11.44"/>
<polygon fill="midnightblue" stroke="midnightblue" points="852.22,-14.93 862.14,-11.21 852.07,-7.93 852.22,-14.93"/>
</g>
<!-- Node23 -->
<g id="node23" class="node">
<title>Node23</title>
<g id="a_node23"><a xlink:href="GXDisplayList_8h.html" target="_top" xlink:title=" ">
<polygon fill="white" stroke="black" points="627.26,-56.5 627.26,-75.5 760.26,-75.5 760.26,-56.5 627.26,-56.5"/>
<text text-anchor="middle" x="693.76" y="-63.5" font-family="Helvetica,sans-Serif" font-size="10.00">dolphin/gx/GXDisplayList.h</text>
</a>
</g>
</g>
<!-- Node22&#45;&gt;Node23 -->
<g id="edge45" class="edge">
<title>Node22&#45;&gt;Node23</title>
<path fill="none" stroke="midnightblue" d="M640.64,-117.98C650.22,-108.78 665.67,-93.96 677.45,-82.66"/>
<polygon fill="midnightblue" stroke="midnightblue" points="680.1,-84.96 684.89,-75.51 675.26,-79.91 680.1,-84.96"/>
</g>
<!-- Node23&#45;&gt;Node4 -->
<g id="edge46" class="edge">
<title>Node23&#45;&gt;Node4</title>
<path fill="none" stroke="midnightblue" d="M726.88,-56.44C762.88,-47.14 820.53,-32.25 859.95,-22.06"/>
<polygon fill="midnightblue" stroke="midnightblue" points="860.99,-25.41 869.8,-19.52 859.24,-18.63 860.99,-25.41"/>
</g>
<!-- Node24&#45;&gt;Node4 -->
<g id="edge56" class="edge">
<title>Node24&#45;&gt;Node4</title>
<path fill="none" stroke="midnightblue" d="M563.2,-246.15C558.09,-213.77 545.47,-101.35 607.76,-56 645.76,-28.33 778.12,-17.28 851.97,-13.19"/>
<polygon fill="midnightblue" stroke="midnightblue" points="852.18,-16.68 861.98,-12.65 851.81,-9.69 852.18,-16.68"/>
</g>
<!-- Node24&#45;&gt;Node21 -->
<g id="edge55" class="edge">
<title>Node24&#45;&gt;Node21</title>
<path fill="none" stroke="midnightblue" d="M550.29,-246.48C533.79,-236.75 506.58,-220.73 487.08,-209.24"/>
<polygon fill="midnightblue" stroke="midnightblue" points="488.6,-206.07 478.21,-204.01 485.05,-212.1 488.6,-206.07"/>
</g>
<!-- Node25 -->
<g id="node25" class="node">
<title>Node25</title>
<g id="a_node25"><a xlink:href="JKRHeap_8h.html" target="_top" xlink:title=" ">
<polygon fill="white" stroke="black" points="793.26,-185 793.26,-204 936.26,-204 936.26,-185 793.26,-185"/>
<text text-anchor="middle" x="864.76" y="-192" font-family="Helvetica,sans-Serif" font-size="10.00">JSystem/JKernel/JKRHeap.h</text>
</a>
</g>
</g>
<!-- Node24&#45;&gt;Node25 -->
<g id="edge51" class="edge">
<title>Node24&#45;&gt;Node25</title>
<path fill="none" stroke="midnightblue" d="M607.74,-246.48C661.54,-235.8 753.67,-217.53 811.78,-206.01"/>
<polygon fill="midnightblue" stroke="midnightblue" points="812.73,-209.39 821.86,-204.01 811.37,-202.52 812.73,-209.39"/>
</g>
<!-- Node25&#45;&gt;Node4 -->
<g id="edge54" class="edge">
<title>Node25&#45;&gt;Node4</title>
<path fill="none" stroke="midnightblue" d="M866.59,-184.7C872.45,-156.57 890.8,-68.46 898.88,-29.66"/>
<polygon fill="midnightblue" stroke="midnightblue" points="902.34,-30.22 900.95,-19.71 895.48,-28.79 902.34,-30.22"/>
</g>
<!-- Node25&#45;&gt;Node12 -->
<g id="edge52" class="edge">
<title>Node25&#45;&gt;Node12</title>
<path fill="none" stroke="midnightblue" d="M908.37,-184.94C968.61,-173.11 1077.19,-151.78 1142.26,-139.01"/>
<polygon fill="midnightblue" stroke="midnightblue" points="1143.18,-142.39 1152.32,-137.03 1141.83,-135.52 1143.18,-142.39"/>
</g>
<!-- Node25&#45;&gt;Node14 -->
<g id="edge53" class="edge">
<title>Node25&#45;&gt;Node14</title>
<path fill="none" stroke="midnightblue" d="M877.17,-184.73C892.34,-174.01 918.24,-155.72 936.36,-142.91"/>
<polygon fill="midnightblue" stroke="midnightblue" points="938.4,-145.76 944.55,-137.13 934.36,-140.04 938.4,-145.76"/>
</g>
<!-- Node26&#45;&gt;Node4 -->
<g id="edge61" class="edge">
<title>Node26&#45;&gt;Node4</title>
<path fill="none" stroke="midnightblue" d="M740.08,-246.49C748.95,-232.35 767.41,-203.19 783.76,-179 821.68,-122.92 868.63,-57.86 890.49,-27.81"/>
<polygon fill="midnightblue" stroke="midnightblue" points="893.37,-29.79 896.43,-19.65 887.71,-25.67 893.37,-29.79"/>
</g>
<!-- Node27 -->
<g id="node27" class="node">
<title>Node27</title>
<g id="a_node27"><a xlink:href="JUTPalette_8h.html" target="_top" xlink:title=" ">
<polygon fill="white" stroke="black" points="588.76,-185 588.76,-204 736.76,-204 736.76,-185 588.76,-185"/>
<text text-anchor="middle" x="662.76" y="-192" font-family="Helvetica,sans-Serif" font-size="10.00">JSystem/JUtility/JUTPalette.h</text>
</a>
</g>
</g>
<!-- Node26&#45;&gt;Node27 -->
<g id="edge58" class="edge">
<title>Node26&#45;&gt;Node27</title>
<path fill="none" stroke="midnightblue" d="M724.45,-246.48C713.11,-237.11 694.69,-221.88 680.92,-210.51"/>
<polygon fill="midnightblue" stroke="midnightblue" points="683,-207.68 673.06,-204.01 678.54,-213.08 683,-207.68"/>
</g>
<!-- Node27&#45;&gt;Node4 -->
<g id="edge60" class="edge">
<title>Node27&#45;&gt;Node4</title>
<path fill="none" stroke="midnightblue" d="M670.52,-184.87C691.63,-161.77 752.52,-97.46 812.76,-56 831.34,-43.21 854.07,-31.88 872.03,-23.79"/>
<polygon fill="midnightblue" stroke="midnightblue" points="873.73,-26.86 881.47,-19.63 870.91,-20.46 873.73,-26.86"/>
</g>
<!-- Node27&#45;&gt;Node22 -->
<g id="edge59" class="edge">
<title>Node27&#45;&gt;Node22</title>
<path fill="none" stroke="midnightblue" d="M658.58,-184.73C653.89,-174.89 646.15,-158.66 640.18,-146.16"/>
<polygon fill="midnightblue" stroke="midnightblue" points="643.34,-144.65 635.88,-137.13 637.02,-147.66 643.34,-144.65"/>
</g>
<!-- Node28&#45;&gt;Node4 -->
<g id="edge68" class="edge">
<title>Node28&#45;&gt;Node4</title>
<path fill="none" stroke="midnightblue" d="M1884.35,-184.87C1918.77,-162.03 2003.8,-98.82 1962.76,-56 1927.49,-19.2 1160.39,-12.39 953.68,-11.23"/>
<polygon fill="midnightblue" stroke="midnightblue" points="953.43,-7.73 943.42,-11.17 953.4,-14.73 953.43,-7.73"/>
</g>
<!-- Node29 -->
<g id="node29" class="node">
<title>Node29</title>
<g id="a_node29"><a xlink:href="quat_8h.html" target="_top" xlink:title=" ">
<polygon fill="white" stroke="black" points="1786.26,-118 1786.26,-137 1881.26,-137 1881.26,-118 1786.26,-118"/>
<text text-anchor="middle" x="1833.76" y="-125" font-family="Helvetica,sans-Serif" font-size="10.00">dolphin/mtx/quat.h</text>
</a>
</g>
</g>
<!-- Node28&#45;&gt;Node29 -->
<g id="edge63" class="edge">
<title>Node28&#45;&gt;Node29</title>
<path fill="none" stroke="midnightblue" d="M1865.77,-184.73C1860.17,-174.89 1850.93,-158.66 1843.81,-146.16"/>
<polygon fill="midnightblue" stroke="midnightblue" points="1846.66,-144.09 1838.67,-137.13 1840.58,-147.55 1846.66,-144.09"/>
</g>
<!-- Node30 -->
<g id="node30" class="node">
<title>Node30</title>
<g id="a_node30"><a xlink:href="vec_8h.html" target="_top" xlink:title=" ">
<polygon fill="white" stroke="black" points="1861.76,-56.5 1861.76,-75.5 1953.76,-75.5 1953.76,-56.5 1861.76,-56.5"/>
<text text-anchor="middle" x="1907.76" y="-63.5" font-family="Helvetica,sans-Serif" font-size="10.00">dolphin/mtx/vec.h</text>
</a>
</g>
</g>
<!-- Node28&#45;&gt;Node30 -->
<g id="edge67" class="edge">
<title>Node28&#45;&gt;Node30</title>
<path fill="none" stroke="midnightblue" d="M1874.47,-184.68C1878.58,-174.69 1885.22,-157.87 1889.76,-143 1895.69,-123.59 1900.84,-100.9 1904.09,-85.4"/>
<polygon fill="midnightblue" stroke="midnightblue" points="1907.53,-86.03 1906.11,-75.53 1900.68,-84.62 1907.53,-86.03"/>
</g>
<!-- Node29&#45;&gt;Node4 -->
<g id="edge66" class="edge">
<title>Node29&#45;&gt;Node4</title>
<path fill="none" stroke="midnightblue" d="M1834.23,-117.86C1834.53,-102.59 1832.68,-71.05 1813.76,-56 1779.91,-29.08 1140.22,-15.33 953.51,-11.88"/>
<polygon fill="midnightblue" stroke="midnightblue" points="953.48,-8.38 943.42,-11.7 953.35,-15.38 953.48,-8.38"/>
</g>
<!-- Node29&#45;&gt;Node30 -->
<g id="edge64" class="edge">
<title>Node29&#45;&gt;Node30</title>
<path fill="none" stroke="midnightblue" d="M1844.36,-117.98C1856.01,-108.61 1874.95,-93.38 1889.1,-82.01"/>
<polygon fill="midnightblue" stroke="midnightblue" points="1891.58,-84.5 1897.18,-75.51 1887.19,-79.05 1891.58,-84.5"/>
</g>
<!-- Node30&#45;&gt;Node4 -->
<g id="edge65" class="edge">
<title>Node30&#45;&gt;Node4</title>
<path fill="none" stroke="midnightblue" d="M1861.63,-57.6C1856.96,-56.99 1852.27,-56.44 1847.76,-56 1507.3,-22.45 1095.28,-13.7 953.52,-11.61"/>
<polygon fill="midnightblue" stroke="midnightblue" points="953.44,-8.11 943.39,-11.47 953.34,-15.11 953.44,-8.11"/>
</g>
</g>
</svg>
        <g id="navigator" transform="translate(0 0)" fill="#404254">
                <rect fill="#f2f5e9" fill-opacity="0.5" stroke="#606060" stroke-width=".5" x="0" y="0" width="60" height="60"/>
                <use id="zoomplus" xlink:href="#zoomPlus" x="17" y="9" onmousedown="handleZoom(evt,'in')"/>
                <use id="zoomminus" xlink:href="#zoomMin" x="42" y="9" onmousedown="handleZoom(evt,'out')"/>
                <use id="reset" xlink:href="#resetDef" x="30" y="36" onmousedown="handleReset()"/>
                <g id="arrowUp" xlink:href="#dirArrow" transform="translate(30 24)" onmousedown="handlePan(0,-1)">
                  <use xlink:href="#rim" fill="#404040">
                        <set attributeName="fill" to="#808080" begin="arrowUp.mouseover" end="arrowUp.mouseout"/>
                  </use>
                  <path fill="none" stroke="white" stroke-width="1.5" d="M0,-3.0v7 M-2.5,-0.5L0,-3.0L2.5,-0.5"/>
                </g>
                <g id="arrowRight" xlink:href="#dirArrow" transform="rotate(90) translate(36 -43)" onmousedown="handlePan(1,0)">
                  <use xlink:href="#rim" fill="#404040">
                        <set attributeName="fill" to="#808080" begin="arrowRight.mouseover" end="arrowRight.mouseout"/>
                  </use>
                  <path fill="none" stroke="white" stroke-width="1.5" d="M0,-3.0v7 M-2.5,-0.5L0,-3.0L2.5,-0.5"/>
                </g>
                <g id="arrowDown" xlink:href="#dirArrow" transform="rotate(180) translate(-30 -48)" onmousedown="handlePan(0,1)">
                  <use xlink:href="#rim" fill="#404040">
                        <set attributeName="fill" to="#808080" begin="arrowDown.mouseover" end="arrowDown.mouseout"/>
                  </use>
                  <path fill="none" stroke="white" stroke-width="1.5" d="M0,-3.0v7 M-2.5,-0.5L0,-3.0L2.5,-0.5"/>
                </g>
                <g id="arrowLeft" xlink:href="#dirArrow" transform="rotate(270) translate(-36 17)" onmousedown="handlePan(-1,0)">
                  <use xlink:href="#rim" fill="#404040">
                        <set attributeName="fill" to="#808080" begin="arrowLeft.mouseover" end="arrowLeft.mouseout"/>
                  </use>
                  <path fill="none" stroke="white" stroke-width="1.5" d="M0,-3.0v7 M-2.5,-0.5L0,-3.0L2.5,-0.5"/>
                </g>
        </g>
        <svg viewBox="0 0 15 15" width="100%" height="30px" preserveAspectRatio="xMaxYMin meet">
         <g id="arrow_out" transform="scale(0.3 0.3)">
          <a xlink:href="J2DPane_8h__incl_org.svg" target="_base">
           <rect id="button" ry="5" rx="5" y="6" x="6" height="38" width="38"
                fill="#f2f5e9" fill-opacity="0.5" stroke="#606060" stroke-width="1.0"/>
           <path id="arrow"
             d="M 11.500037,31.436501 C 11.940474,20.09759 22.043105,11.32322 32.158766,21.979434 L 37.068811,17.246167 C 37.068811,17.246167 37.088388,32 37.088388,32 L 22.160133,31.978069 C 22.160133,31.978069 26.997745,27.140456 26.997745,27.140456 C 18.528582,18.264221 13.291696,25.230495 11.500037,31.436501 z"
             style="fill:#404040;"/>
          </a>
         </g>
        </svg>
</svg>
