<?xml version="1.0" encoding="UTF-8" standalone="no"?>
<!DOCTYPE svg PUBLIC "-//W3C//DTD SVG 1.1//EN"
 "http://www.w3.org/Graphics/SVG/1.1/DTD/svg11.dtd">
<!-- Generated by graphviz version 2.44.0 ()
 -->
<!-- Title: include/JSystem/J2DGraph/J2DPane.h Pages: 1 -->
<!--zoomable 397 -->
<svg id="main" version="1.1" xmlns="http://www.w3.org/2000/svg" xmlns:xlink="http://www.w3.org/1999/xlink" xml:space="preserve" onload="init(evt)">
<style type="text/css"><![CDATA[
.edge:hover path { stroke: red; }
.edge:hover polygon { stroke: red; fill: red; }
]]></style>
<script type="text/javascript"><![CDATA[
var edges = document.getElementsByTagName('g');
if (edges && edges.length) {
  for (var i=0;i<edges.length;i++) {
    if (edges[i].id.substr(0,4)=='edge') {
      edges[i].setAttribute('class','edge');
    }
  }
}
]]></script>
        <defs>
                <circle id="rim" cx="0" cy="0" r="7"/>
                <circle id="rim2" cx="0" cy="0" r="3.5"/>
                <g id="zoomPlus">
                        <use xlink:href="#rim" fill="#404040">
                                <set attributeName="fill" to="#808080" begin="zoomplus.mouseover" end="zoomplus.mouseout"/>
                        </use>
                        <path d="M-4,0h8M0,-4v8" fill="none" stroke="white" stroke-width="1.5" pointer-events="none"/>
                </g>
                <g id="zoomMin">
                        <use xlink:href="#rim" fill="#404040">
                                <set attributeName="fill" to="#808080" begin="zoomminus.mouseover" end="zoomminus.mouseout"/>
                        </use>
                        <path d="M-4,0h8" fill="none" stroke="white" stroke-width="1.5" pointer-events="none"/>
                </g>
                <g id="dirArrow">
                        <path fill="none" stroke="white" stroke-width="1.5" d="M0,-3.0v7 M-2.5,-0.5L0,-3.0L2.5,-0.5"/>
                </g>
               <g id="resetDef">
                       <use xlink:href="#rim2" fill="#404040">
                               <set attributeName="fill" to="#808080" begin="reset.mouseover" end="reset.mouseout"/>
                       </use>
               </g>
        </defs>

<script type="text/javascript">
var viewWidth = 2165;
var viewHeight = 397;
var sectionId = 'dynsection-0';
</script>
<script xlink:href="svgpan.js"/>
<svg id="graph" class="graph">
<g id="viewport">
<title>include/JSystem/J2DGraph/J2DPane.h</title>
<polygon fill="white" stroke="transparent" points="-4,4 -4,-393 2160.76,-393 2160.76,4 -4,4"/>
<!-- Node1 -->
<g id="node1" class="node">
<title>Node1</title>
<g id="a_node1"><a xlink:title=" ">
<polygon fill="#bfbfbf" stroke="black" points="452.26,-358.5 452.26,-388.5 587.26,-388.5 587.26,-358.5 452.26,-358.5"/>
<text text-anchor="start" x="460.26" y="-376.5" font-family="Helvetica,sans-Serif" font-size="10.00">include/JSystem/J2DGraph</text>
<text text-anchor="middle" x="519.76" y="-365.5" font-family="Helvetica,sans-Serif" font-size="10.00">/J2DPane.h</text>
</a>
</g>
</g>
<!-- Node2 -->
<g id="node2" class="node">
<title>Node2</title>
<g id="a_node2"><a xlink:href="J2DAnimation_8h.html" target="_top" xlink:title=" ">
<polygon fill="white" stroke="black" points="208.26,-118 208.26,-137 381.26,-137 381.26,-118 208.26,-118"/>
<text text-anchor="middle" x="294.76" y="-125" font-family="Helvetica,sans-Serif" font-size="10.00">JSystem/J2DGraph/J2DAnimation.h</text>
</a>
</g>
</g>
<!-- Node1&#45;&gt;Node2 -->
<g id="edge1" class="edge">
<title>Node1&#45;&gt;Node2</title>
<path fill="none" stroke="midnightblue" d="M497.14,-358.45C482.81,-349.02 464.31,-335.84 449.76,-322 388.74,-263.98 330.48,-181.65 306.38,-146.04"/>
<polygon fill="midnightblue" stroke="midnightblue" points="308.99,-143.65 300.52,-137.29 303.18,-147.55 308.99,-143.65"/>
</g>
<!-- Node4 -->
<g id="node4" class="node">
<title>Node4</title>
<g id="a_node4"><a xlink:href="types_8h.html" target="_top" xlink:title=" ">
<polygon fill="white" stroke="black" points="965.26,-0.5 965.26,-19.5 1046.26,-19.5 1046.26,-0.5 965.26,-0.5"/>
<text text-anchor="middle" x="1005.76" y="-7.5" font-family="Helvetica,sans-Serif" font-size="10.00">dolphin/types.h</text>
</a>
</g>
</g>
<!-- Node1&#45;&gt;Node4 -->
<g id="edge77" class="edge">
<title>Node1&#45;&gt;Node4</title>
<path fill="none" stroke="midnightblue" d="M452.04,-371.21C313.31,-366.72 9.76,-346.65 9.76,-257 9.76,-257 9.76,-257 9.76,-126.5 9.76,-101.83 -50.66,-107.3 132.76,-56 288.92,-12.33 792.63,-10.21 954.89,-10.7"/>
<polygon fill="midnightblue" stroke="midnightblue" points="955.06,-14.2 965.07,-10.74 955.09,-7.2 955.06,-14.2"/>
</g>
<!-- Node5 -->
<g id="node5" class="node">
<title>Node5</title>
<g id="a_node5"><a xlink:href="J2DGrafContext_8h.html" target="_top" xlink:title=" ">
<polygon fill="white" stroke="black" points="164.76,-179.5 164.76,-209.5 304.76,-209.5 304.76,-179.5 164.76,-179.5"/>
<text text-anchor="start" x="172.76" y="-197.5" font-family="Helvetica,sans-Serif" font-size="10.00">JSystem/J2DGraph/J2DGraf</text>
<text text-anchor="middle" x="234.76" y="-186.5" font-family="Helvetica,sans-Serif" font-size="10.00">Context.h</text>
</a>
</g>
</g>
<!-- Node1&#45;&gt;Node5 -->
<g id="edge5" class="edge">
<title>Node1&#45;&gt;Node5</title>
<path fill="none" stroke="midnightblue" d="M452.2,-364.77C414.86,-358.01 369.03,-345.41 333.76,-322 293.68,-295.4 262.66,-247.21 246.7,-218.6"/>
<polygon fill="midnightblue" stroke="midnightblue" points="249.71,-216.83 241.87,-209.71 243.56,-220.17 249.71,-216.83"/>
</g>
<!-- Node6 -->
<g id="node6" class="node">
<title>Node6</title>
<g id="a_node6"><a xlink:href="JGeometry_8h.html" target="_top" xlink:title=" ">
<polygon fill="white" stroke="black" points="38.26,-118 38.26,-137 151.26,-137 151.26,-118 38.26,-118"/>
<text text-anchor="middle" x="94.76" y="-125" font-family="Helvetica,sans-Serif" font-size="10.00">JSystem/JGeometry.h</text>
</a>
</g>
</g>
<!-- Node1&#45;&gt;Node6 -->
<g id="edge12" class="edge">
<title>Node1&#45;&gt;Node6</title>
<path fill="none" stroke="midnightblue" d="M451.86,-363.76C408.58,-356.45 352.12,-343.63 305.76,-322 230.36,-286.82 214.63,-268.8 155.76,-210 135.72,-189.98 116.85,-163.07 105.56,-145.76"/>
<polygon fill="midnightblue" stroke="midnightblue" points="108.44,-143.76 100.1,-137.23 102.54,-147.54 108.44,-143.76"/>
</g>
<!-- Node8 -->
<g id="node8" class="node">
<title>Node8</title>
<g id="a_node8"><a xlink:href="JKRArchive_8h.html" target="_top" xlink:title=" ">
<polygon fill="white" stroke="black" points="1037.26,-302.5 1037.26,-321.5 1190.26,-321.5 1190.26,-302.5 1037.26,-302.5"/>
<text text-anchor="middle" x="1113.76" y="-309.5" font-family="Helvetica,sans-Serif" font-size="10.00">JSystem/JKernel/JKRArchive.h</text>
</a>
</g>
</g>
<!-- Node1&#45;&gt;Node8 -->
<g id="edge13" class="edge">
<title>Node1&#45;&gt;Node8</title>
<path fill="none" stroke="midnightblue" d="M587.32,-365.73C695.46,-354.9 907.36,-333.67 1026.71,-321.72"/>
<polygon fill="midnightblue" stroke="midnightblue" points="1027.3,-325.18 1036.9,-320.7 1026.6,-318.21 1027.3,-325.18"/>
</g>
<!-- Node13 -->
<g id="node13" class="node">
<title>Node13</title>
<g id="a_node13"><a xlink:href="JSUList_8h.html" target="_top" xlink:title=" ">
<polygon fill="white" stroke="black" points="934.26,-56.5 934.26,-75.5 1077.26,-75.5 1077.26,-56.5 934.26,-56.5"/>
<text text-anchor="middle" x="1005.76" y="-63.5" font-family="Helvetica,sans-Serif" font-size="10.00">JSystem/JSupport/JSUList.h</text>
</a>
</g>
</g>
<!-- Node1&#45;&gt;Node13 -->
<g id="edge46" class="edge">
<title>Node1&#45;&gt;Node13</title>
<path fill="none" stroke="midnightblue" d="M571.23,-358.41C624.97,-342.04 709.99,-311.35 772.76,-266 814.38,-235.93 810.72,-213.48 848.76,-179 892.8,-139.1 951.23,-100.69 982.94,-80.88"/>
<polygon fill="midnightblue" stroke="midnightblue" points="984.85,-83.82 991.51,-75.58 981.16,-77.87 984.85,-83.82"/>
</g>
<!-- Node21 -->
<g id="node21" class="node">
<title>Node21</title>
<g id="a_node21"><a xlink:href="JSURandomInputStream_8h.html" target="_top" xlink:title=" ">
<polygon fill="white" stroke="black" points="1872.26,-179.5 1872.26,-209.5 2027.26,-209.5 2027.26,-179.5 1872.26,-179.5"/>
<text text-anchor="start" x="1880.26" y="-197.5" font-family="Helvetica,sans-Serif" font-size="10.00">JSystem/JSupport/JSURandom</text>
<text text-anchor="middle" x="1949.76" y="-186.5" font-family="Helvetica,sans-Serif" font-size="10.00">InputStream.h</text>
</a>
</g>
</g>
<!-- Node1&#45;&gt;Node21 -->
<g id="edge47" class="edge">
<title>Node1&#45;&gt;Node21</title>
<path fill="none" stroke="midnightblue" d="M587.59,-372.44C773.54,-371.02 1306.23,-358.52 1736.76,-266 1796.47,-253.17 1862.94,-229.61 1905.49,-213.28"/>
<polygon fill="midnightblue" stroke="midnightblue" points="1906.92,-216.48 1914.98,-209.6 1904.39,-209.95 1906.92,-216.48"/>
</g>
<!-- Node24 -->
<g id="node24" class="node">
<title>Node24</title>
<g id="a_node24"><a xlink:href="JUTFont_8h.html" target="_top" xlink:title=" ">
<polygon fill="white" stroke="black" points="384.26,-185 384.26,-204 521.26,-204 521.26,-185 384.26,-185"/>
<text text-anchor="middle" x="452.76" y="-192" font-family="Helvetica,sans-Serif" font-size="10.00">JSystem/JUtility/JUTFont.h</text>
</a>
</g>
</g>
<!-- Node1&#45;&gt;Node24 -->
<g id="edge53" class="edge">
<title>Node1&#45;&gt;Node24</title>
<path fill="none" stroke="midnightblue" d="M502.82,-358.4C481.92,-339.77 447.46,-304.77 433.76,-266 427.52,-248.33 434.83,-227.55 442.11,-213.15"/>
<polygon fill="midnightblue" stroke="midnightblue" points="445.22,-214.76 446.99,-204.31 439.09,-211.38 445.22,-214.76"/>
</g>
<!-- Node27 -->
<g id="node27" class="node">
<title>Node27</title>
<g id="a_node27"><a xlink:href="JUTResFont_8h.html" target="_top" xlink:title=" ">
<polygon fill="white" stroke="black" points="442.76,-246.5 442.76,-265.5 596.76,-265.5 596.76,-246.5 442.76,-246.5"/>
<text text-anchor="middle" x="519.76" y="-253.5" font-family="Helvetica,sans-Serif" font-size="10.00">JSystem/JUtility/JUTResFont.h</text>
</a>
</g>
</g>
<!-- Node1&#45;&gt;Node27 -->
<g id="edge61" class="edge">
<title>Node1&#45;&gt;Node27</title>
<path fill="none" stroke="midnightblue" d="M519.76,-358.34C519.76,-337.62 519.76,-299.02 519.76,-275.9"/>
<polygon fill="midnightblue" stroke="midnightblue" points="523.26,-275.67 519.76,-265.67 516.26,-275.67 523.26,-275.67"/>
</g>
<!-- Node28 -->
<g id="node28" class="node">
<title>Node28</title>
<g id="a_node28"><a xlink:href="JUTTexture_8h.html" target="_top" xlink:title=" ">
<polygon fill="white" stroke="black" points="615.26,-246.5 615.26,-265.5 764.26,-265.5 764.26,-246.5 615.26,-246.5"/>
<text text-anchor="middle" x="689.76" y="-253.5" font-family="Helvetica,sans-Serif" font-size="10.00">JSystem/JUtility/JUTTexture.h</text>
</a>
</g>
</g>
<!-- Node1&#45;&gt;Node28 -->
<g id="edge65" class="edge">
<title>Node1&#45;&gt;Node28</title>
<path fill="none" stroke="midnightblue" d="M540.61,-358.34C573.19,-336.2 635.83,-293.64 668.6,-271.38"/>
<polygon fill="midnightblue" stroke="midnightblue" points="670.7,-274.18 677,-265.67 666.76,-268.39 670.7,-274.18"/>
</g>
<!-- Node30 -->
<g id="node30" class="node">
<title>Node30</title>
<g id="a_node30"><a xlink:href="mtx_8h.html" target="_top" xlink:title=" ">
<polygon fill="white" stroke="black" points="2045.76,-185 2045.76,-204 2137.76,-204 2137.76,-185 2045.76,-185"/>
<text text-anchor="middle" x="2091.76" y="-192" font-family="Helvetica,sans-Serif" font-size="10.00">dolphin/mtx/mtx.h</text>
</a>
</g>
</g>
<!-- Node1&#45;&gt;Node30 -->
<g id="edge70" class="edge">
<title>Node1&#45;&gt;Node30</title>
<path fill="none" stroke="midnightblue" d="M587.3,-371.92C744.52,-369.91 1147.02,-361.05 1480.76,-322 1618.52,-305.88 1651.87,-293.73 1787.76,-266 1898.48,-243.41 1925.94,-236.61 2035.76,-210 2040.22,-208.92 2044.87,-207.76 2049.5,-206.59"/>
<polygon fill="midnightblue" stroke="midnightblue" points="2050.7,-209.9 2059.53,-204.03 2048.97,-203.12 2050.7,-209.9"/>
</g>
<!-- Node3 -->
<g id="node3" class="node">
<title>Node3</title>
<g id="a_node3"><a xlink:href="GXTexture_8h.html" target="_top" xlink:title=" ">
<polygon fill="white" stroke="black" points="377.26,-56.5 377.26,-75.5 494.26,-75.5 494.26,-56.5 377.26,-56.5"/>
<text text-anchor="middle" x="435.76" y="-63.5" font-family="Helvetica,sans-Serif" font-size="10.00">dolphin/gx/GXTexture.h</text>
</a>
</g>
</g>
<!-- Node2&#45;&gt;Node3 -->
<g id="edge2" class="edge">
<title>Node2&#45;&gt;Node3</title>
<path fill="none" stroke="midnightblue" d="M314.96,-117.98C338.84,-107.9 378.76,-91.05 406.13,-79.5"/>
<polygon fill="midnightblue" stroke="midnightblue" points="407.74,-82.62 415.6,-75.51 405.02,-76.17 407.74,-82.62"/>
</g>
<!-- Node2&#45;&gt;Node4 -->
<g id="edge4" class="edge">
<title>Node2&#45;&gt;Node4</title>
<path fill="none" stroke="midnightblue" d="M299.55,-117.84C308.71,-102.24 330.35,-69.78 358.76,-56 411.83,-30.26 811.37,-16.51 954.74,-12.37"/>
<polygon fill="midnightblue" stroke="midnightblue" points="955.12,-15.86 965.02,-12.07 954.92,-8.86 955.12,-15.86"/>
</g>
<!-- Node3&#45;&gt;Node4 -->
<g id="edge3" class="edge">
<title>Node3&#45;&gt;Node4</title>
<path fill="none" stroke="midnightblue" d="M494.31,-57.61C499.2,-57.05 504.06,-56.5 508.76,-56 671.59,-38.6 864.91,-22.36 954.93,-15.06"/>
<polygon fill="midnightblue" stroke="midnightblue" points="955.45,-18.53 965.13,-14.23 954.88,-11.55 955.45,-18.53"/>
</g>
<!-- Node5&#45;&gt;Node4 -->
<g id="edge11" class="edge">
<title>Node5&#45;&gt;Node4</title>
<path fill="none" stroke="midnightblue" d="M220.14,-179.23C204.68,-162.36 184.39,-133.84 198.76,-112 233.34,-59.45 267.6,-70.74 328.76,-56 447.62,-27.35 818.89,-15.57 955.04,-12.14"/>
<polygon fill="midnightblue" stroke="midnightblue" points="955.29,-15.64 965.2,-11.89 955.12,-8.64 955.29,-15.64"/>
</g>
<!-- Node5&#45;&gt;Node6 -->
<g id="edge6" class="edge">
<title>Node5&#45;&gt;Node6</title>
<path fill="none" stroke="midnightblue" d="M204.38,-179.4C179.93,-168.04 145.85,-152.22 122.21,-141.24"/>
<polygon fill="midnightblue" stroke="midnightblue" points="123.63,-138.04 113.08,-137.01 120.68,-144.39 123.63,-138.04"/>
</g>
<!-- Node7 -->
<g id="node7" class="node">
<title>Node7</title>
<g id="a_node7"><a xlink:href="JUtility_8h.html" target="_top" xlink:title=" ">
<polygon fill="white" stroke="black" points="399.26,-118 399.26,-137 494.26,-137 494.26,-118 399.26,-118"/>
<text text-anchor="middle" x="446.76" y="-125" font-family="Helvetica,sans-Serif" font-size="10.00">JSystem/JUtility.h</text>
</a>
</g>
</g>
<!-- Node5&#45;&gt;Node7 -->
<g id="edge8" class="edge">
<title>Node5&#45;&gt;Node7</title>
<path fill="none" stroke="midnightblue" d="M280.5,-179.48C319,-167.67 373.37,-151 409.32,-139.98"/>
<polygon fill="midnightblue" stroke="midnightblue" points="410.41,-143.31 418.94,-137.03 408.36,-136.61 410.41,-143.31"/>
</g>
<!-- Node6&#45;&gt;Node4 -->
<g id="edge7" class="edge">
<title>Node6&#45;&gt;Node4</title>
<path fill="none" stroke="midnightblue" d="M100.3,-117.78C110.84,-102.08 135.44,-69.46 165.76,-56 237.71,-24.07 784.32,-14 955.01,-11.62"/>
<polygon fill="midnightblue" stroke="midnightblue" points="955.27,-15.12 965.22,-11.48 955.18,-8.12 955.27,-15.12"/>
</g>
<!-- Node7&#45;&gt;Node3 -->
<g id="edge9" class="edge">
<title>Node7&#45;&gt;Node3</title>
<path fill="none" stroke="midnightblue" d="M445.19,-117.98C443.63,-109.58 441.21,-96.48 439.21,-85.66"/>
<polygon fill="midnightblue" stroke="midnightblue" points="442.59,-84.71 437.33,-75.51 435.71,-85.98 442.59,-84.71"/>
</g>
<!-- Node7&#45;&gt;Node4 -->
<g id="edge10" class="edge">
<title>Node7&#45;&gt;Node4</title>
<path fill="none" stroke="midnightblue" d="M424.04,-117.95C393.42,-105.23 345.2,-80.21 367.76,-56 407.46,-13.4 810.41,-10.4 954.7,-10.7"/>
<polygon fill="midnightblue" stroke="midnightblue" points="955.03,-14.21 965.04,-10.73 955.05,-7.21 955.03,-14.21"/>
</g>
<!-- Node9 -->
<g id="node9" class="node">
<title>Node9</title>
<g id="a_node9"><a xlink:href="JKRCompression_8h.html" target="_top" xlink:title=" ">
<polygon fill="white" stroke="black" points="1203.26,-185 1203.26,-204 1380.26,-204 1380.26,-185 1203.26,-185"/>
<text text-anchor="middle" x="1291.76" y="-192" font-family="Helvetica,sans-Serif" font-size="10.00">JSystem/JKernel/JKRCompression.h</text>
</a>
</g>
</g>
<!-- Node8&#45;&gt;Node9 -->
<g id="edge14" class="edge">
<title>Node8&#45;&gt;Node9</title>
<path fill="none" stroke="midnightblue" d="M1127.14,-302.32C1157.55,-282.59 1232.12,-234.2 1269.56,-209.91"/>
<polygon fill="midnightblue" stroke="midnightblue" points="1271.74,-212.66 1278.23,-204.28 1267.93,-206.79 1271.74,-212.66"/>
</g>
<!-- Node10 -->
<g id="node10" class="node">
<title>Node10</title>
<g id="a_node10"><a xlink:href="JKRDecomp_8h.html" target="_top" xlink:title=" ">
<polygon fill="white" stroke="black" points="1274.76,-246.5 1274.76,-265.5 1430.76,-265.5 1430.76,-246.5 1274.76,-246.5"/>
<text text-anchor="middle" x="1352.76" y="-253.5" font-family="Helvetica,sans-Serif" font-size="10.00">JSystem/JKernel/JKRDecomp.h</text>
</a>
</g>
</g>
<!-- Node8&#45;&gt;Node10 -->
<g id="edge15" class="edge">
<title>Node8&#45;&gt;Node10</title>
<path fill="none" stroke="midnightblue" d="M1151.63,-302.44C1193.24,-293.04 1260.13,-277.93 1305.23,-267.74"/>
<polygon fill="midnightblue" stroke="midnightblue" points="1306.09,-271.13 1315.07,-265.52 1304.54,-264.31 1306.09,-271.13"/>
</g>
<!-- Node16 -->
<g id="node16" class="node">
<title>Node16</title>
<g id="a_node16"><a xlink:href="JKRDvdFile_8h.html" target="_top" xlink:title=" ">
<polygon fill="white" stroke="black" points="1575.26,-246.5 1575.26,-265.5 1728.26,-265.5 1728.26,-246.5 1575.26,-246.5"/>
<text text-anchor="middle" x="1651.76" y="-253.5" font-family="Helvetica,sans-Serif" font-size="10.00">JSystem/JKernel/JKRDvdFile.h</text>
</a>
</g>
</g>
<!-- Node8&#45;&gt;Node16 -->
<g id="edge29" class="edge">
<title>Node8&#45;&gt;Node16</title>
<path fill="none" stroke="midnightblue" d="M1190.27,-303.32C1289.24,-293.39 1461.2,-276.13 1564.95,-265.71"/>
<polygon fill="midnightblue" stroke="midnightblue" points="1565.48,-269.18 1575.08,-264.7 1564.78,-262.21 1565.48,-269.18"/>
</g>
<!-- Node18 -->
<g id="node18" class="node">
<title>Node18</title>
<g id="a_node18"><a xlink:href="JKRFileLoader_8h.html" target="_top" xlink:title=" ">
<polygon fill="white" stroke="black" points="857.76,-185 857.76,-204 1023.76,-204 1023.76,-185 857.76,-185"/>
<text text-anchor="middle" x="940.76" y="-192" font-family="Helvetica,sans-Serif" font-size="10.00">JSystem/JKernel/JKRFileLoader.h</text>
</a>
</g>
</g>
<!-- Node8&#45;&gt;Node18 -->
<g id="edge36" class="edge">
<title>Node8&#45;&gt;Node18</title>
<path fill="none" stroke="midnightblue" d="M1100.76,-302.32C1071.2,-282.59 998.73,-234.2 962.34,-209.91"/>
<polygon fill="midnightblue" stroke="midnightblue" points="964.18,-206.92 953.92,-204.28 960.29,-212.75 964.18,-206.92"/>
</g>
<!-- Node19 -->
<g id="node19" class="node">
<title>Node19</title>
<g id="a_node19"><a xlink:href="JKRHeap_8h.html" target="_top" xlink:title=" ">
<polygon fill="white" stroke="black" points="1042.26,-185 1042.26,-204 1185.26,-204 1185.26,-185 1042.26,-185"/>
<text text-anchor="middle" x="1113.76" y="-192" font-family="Helvetica,sans-Serif" font-size="10.00">JSystem/JKernel/JKRHeap.h</text>
</a>
</g>
</g>
<!-- Node8&#45;&gt;Node19 -->
<g id="edge40" class="edge">
<title>Node8&#45;&gt;Node19</title>
<path fill="none" stroke="midnightblue" d="M1113.76,-302.32C1113.76,-283.76 1113.76,-239.84 1113.76,-214.47"/>
<polygon fill="midnightblue" stroke="midnightblue" points="1117.26,-214.28 1113.76,-204.28 1110.26,-214.28 1117.26,-214.28"/>
</g>
<!-- Node20 -->
<g id="node20" class="node">
<title>Node20</title>
<g id="a_node20"><a xlink:href="global_8h.html" target="_top" xlink:title=" ">
<polygon fill="white" stroke="black" points="908.76,-246.5 908.76,-265.5 958.76,-265.5 958.76,-246.5 908.76,-246.5"/>
<text text-anchor="middle" x="933.76" y="-253.5" font-family="Helvetica,sans-Serif" font-size="10.00">global.h</text>
</a>
</g>
</g>
<!-- Node8&#45;&gt;Node20 -->
<g id="edge44" class="edge">
<title>Node8&#45;&gt;Node20</title>
<path fill="none" stroke="midnightblue" d="M1085.24,-302.44C1053.71,-292.98 1002.89,-277.74 968.92,-267.55"/>
<polygon fill="midnightblue" stroke="midnightblue" points="969.54,-264.08 958.95,-264.56 967.53,-270.78 969.54,-264.08"/>
</g>
<!-- Node10&#45;&gt;Node4 -->
<g id="edge28" class="edge">
<title>Node10&#45;&gt;Node4</title>
<path fill="none" stroke="midnightblue" d="M1430.94,-247.81C1481.55,-241.35 1540.89,-229.76 1556.76,-210 1587.43,-171.83 1604.35,-123.23 1524.76,-56 1489.51,-26.23 1180.72,-15.33 1056.85,-12.13"/>
<polygon fill="midnightblue" stroke="midnightblue" points="1056.58,-8.62 1046.5,-11.87 1056.41,-15.62 1056.58,-8.62"/>
</g>
<!-- Node10&#45;&gt;Node9 -->
<g id="edge16" class="edge">
<title>Node10&#45;&gt;Node9</title>
<path fill="none" stroke="midnightblue" d="M1344.02,-246.48C1334.6,-237.28 1319.4,-222.46 1307.81,-211.16"/>
<polygon fill="midnightblue" stroke="midnightblue" points="1310.09,-208.49 1300.49,-204.01 1305.2,-213.5 1310.09,-208.49"/>
</g>
<!-- Node11 -->
<g id="node11" class="node">
<title>Node11</title>
<g id="a_node11"><a xlink:href="JKRThread_8h.html" target="_top" xlink:title=" ">
<polygon fill="white" stroke="black" points="1397.76,-185 1397.76,-204 1547.76,-204 1547.76,-185 1397.76,-185"/>
<text text-anchor="middle" x="1472.76" y="-192" font-family="Helvetica,sans-Serif" font-size="10.00">JSystem/JKernel/JKRThread.h</text>
</a>
</g>
</g>
<!-- Node10&#45;&gt;Node11 -->
<g id="edge17" class="edge">
<title>Node10&#45;&gt;Node11</title>
<path fill="none" stroke="midnightblue" d="M1369.95,-246.48C1390,-236.53 1423.36,-219.99 1446.62,-208.46"/>
<polygon fill="midnightblue" stroke="midnightblue" points="1448.2,-211.59 1455.6,-204.01 1445.09,-205.32 1448.2,-211.59"/>
</g>
<!-- Node11&#45;&gt;Node4 -->
<g id="edge27" class="edge">
<title>Node11&#45;&gt;Node4</title>
<path fill="none" stroke="midnightblue" d="M1460.77,-184.77C1437.99,-168.52 1386.48,-133.36 1338.76,-112 1241.87,-68.62 1121.09,-37.2 1054.87,-21.77"/>
<polygon fill="midnightblue" stroke="midnightblue" points="1055.65,-18.35 1045.11,-19.52 1054.07,-25.18 1055.65,-18.35"/>
</g>
<!-- Node12 -->
<g id="node12" class="node">
<title>Node12</title>
<g id="a_node12"><a xlink:href="JKRDisposer_8h.html" target="_top" xlink:title=" ">
<polygon fill="white" stroke="black" points="1171.76,-118 1171.76,-137 1329.76,-137 1329.76,-118 1171.76,-118"/>
<text text-anchor="middle" x="1250.76" y="-125" font-family="Helvetica,sans-Serif" font-size="10.00">JSystem/JKernel/JKRDisposer.h</text>
</a>
</g>
</g>
<!-- Node11&#45;&gt;Node12 -->
<g id="edge18" class="edge">
<title>Node11&#45;&gt;Node12</title>
<path fill="none" stroke="midnightblue" d="M1443.28,-184.87C1403.78,-173.3 1333.58,-152.75 1289.75,-139.91"/>
<polygon fill="midnightblue" stroke="midnightblue" points="1290.59,-136.51 1280.01,-137.06 1288.62,-143.23 1290.59,-136.51"/>
</g>
<!-- Node11&#45;&gt;Node13 -->
<g id="edge22" class="edge">
<title>Node11&#45;&gt;Node13</title>
<path fill="none" stroke="midnightblue" d="M1423.92,-184.96C1412.4,-182.97 1400.15,-180.89 1388.76,-179 1288.42,-162.35 1259.8,-173.48 1162.76,-143 1112.71,-127.28 1058.5,-98.03 1028.68,-80.76"/>
<polygon fill="midnightblue" stroke="midnightblue" points="1030.29,-77.65 1019.89,-75.61 1026.75,-83.68 1030.29,-77.65"/>
</g>
<!-- Node14 -->
<g id="node14" class="node">
<title>Node14</title>
<g id="a_node14"><a xlink:href="OS_8h.html" target="_top" xlink:title=" ">
<polygon fill="white" stroke="black" points="1423.76,-118 1423.76,-137 1509.76,-137 1509.76,-118 1423.76,-118"/>
<text text-anchor="middle" x="1466.76" y="-125" font-family="Helvetica,sans-Serif" font-size="10.00">dolphin/os/OS.h</text>
</a>
</g>
</g>
<!-- Node11&#45;&gt;Node14 -->
<g id="edge23" class="edge">
<title>Node11&#45;&gt;Node14</title>
<path fill="none" stroke="midnightblue" d="M1471.95,-184.73C1471.07,-175.18 1469.63,-159.62 1468.5,-147.28"/>
<polygon fill="midnightblue" stroke="midnightblue" points="1471.96,-146.76 1467.56,-137.13 1464.99,-147.41 1471.96,-146.76"/>
</g>
<!-- Node12&#45;&gt;Node4 -->
<g id="edge21" class="edge">
<title>Node12&#45;&gt;Node4</title>
<path fill="none" stroke="midnightblue" d="M1236.12,-117.88C1212.21,-103.98 1163.1,-76.13 1119.76,-56 1093.2,-43.66 1062.25,-31.58 1039.3,-23.05"/>
<polygon fill="midnightblue" stroke="midnightblue" points="1040.28,-19.68 1029.68,-19.51 1037.86,-26.25 1040.28,-19.68"/>
</g>
<!-- Node12&#45;&gt;Node13 -->
<g id="edge19" class="edge">
<title>Node12&#45;&gt;Node13</title>
<path fill="none" stroke="midnightblue" d="M1215.66,-117.98C1172.27,-107.44 1098.35,-89.49 1050.81,-77.94"/>
<polygon fill="midnightblue" stroke="midnightblue" points="1051.34,-74.47 1040.8,-75.51 1049.69,-81.27 1051.34,-74.47"/>
</g>
<!-- Node13&#45;&gt;Node4 -->
<g id="edge20" class="edge">
<title>Node13&#45;&gt;Node4</title>
<path fill="none" stroke="midnightblue" d="M1005.76,-56.08C1005.76,-49.01 1005.76,-38.86 1005.76,-29.99"/>
<polygon fill="midnightblue" stroke="midnightblue" points="1009.26,-29.75 1005.76,-19.75 1002.26,-29.75 1009.26,-29.75"/>
</g>
<!-- Node14&#45;&gt;Node4 -->
<g id="edge24" class="edge">
<title>Node14&#45;&gt;Node4</title>
<path fill="none" stroke="midnightblue" d="M1458.3,-117.75C1442.77,-102.3 1408,-70.49 1371.76,-56 1315.64,-33.56 1143.19,-19.74 1056.55,-14.03"/>
<polygon fill="midnightblue" stroke="midnightblue" points="1056.63,-10.53 1046.42,-13.38 1056.17,-17.52 1056.63,-10.53"/>
</g>
<!-- Node15 -->
<g id="node15" class="node">
<title>Node15</title>
<g id="a_node15"><a xlink:href="dvd_8h.html" target="_top" xlink:title=" ">
<polygon fill="white" stroke="black" points="1423.76,-56.5 1423.76,-75.5 1515.76,-75.5 1515.76,-56.5 1423.76,-56.5"/>
<text text-anchor="middle" x="1469.76" y="-63.5" font-family="Helvetica,sans-Serif" font-size="10.00">dolphin/dvd/dvd.h</text>
</a>
</g>
</g>
<!-- Node14&#45;&gt;Node15 -->
<g id="edge25" class="edge">
<title>Node14&#45;&gt;Node15</title>
<path fill="none" stroke="midnightblue" d="M1467.19,-117.98C1467.61,-109.58 1468.28,-96.48 1468.82,-85.66"/>
<polygon fill="midnightblue" stroke="midnightblue" points="1472.32,-85.67 1469.33,-75.51 1465.33,-85.32 1472.32,-85.67"/>
</g>
<!-- Node15&#45;&gt;Node4 -->
<g id="edge26" class="edge">
<title>Node15&#45;&gt;Node4</title>
<path fill="none" stroke="midnightblue" d="M1423.6,-57.9C1418.93,-57.23 1414.25,-56.59 1409.76,-56 1283.11,-39.45 1133.61,-23.81 1056.87,-16.06"/>
<polygon fill="midnightblue" stroke="midnightblue" points="1056.84,-12.54 1046.54,-15.02 1056.14,-19.51 1056.84,-12.54"/>
</g>
<!-- Node16&#45;&gt;Node4 -->
<g id="edge35" class="edge">
<title>Node16&#45;&gt;Node4</title>
<path fill="none" stroke="midnightblue" d="M1716.57,-246.47C1759.89,-239.29 1811.33,-227.37 1824.76,-210 1833.19,-199.1 1831.52,-191 1824.76,-179 1811.82,-156.02 1646.89,-64.02 1621.76,-56 1517.06,-22.59 1185.07,-13.83 1056.92,-11.67"/>
<polygon fill="midnightblue" stroke="midnightblue" points="1056.66,-8.16 1046.61,-11.5 1056.55,-15.16 1056.66,-8.16"/>
</g>
<!-- Node16&#45;&gt;Node14 -->
<g id="edge34" class="edge">
<title>Node16&#45;&gt;Node14</title>
<path fill="none" stroke="midnightblue" d="M1642.18,-246.46C1625.49,-231.78 1589.69,-201.19 1556.76,-179 1536.01,-165.02 1511.12,-151.26 1492.77,-141.65"/>
<polygon fill="midnightblue" stroke="midnightblue" points="1494.33,-138.51 1483.84,-137.02 1491.11,-144.72 1494.33,-138.51"/>
</g>
<!-- Node16&#45;&gt;Node15 -->
<g id="edge33" class="edge">
<title>Node16&#45;&gt;Node15</title>
<path fill="none" stroke="midnightblue" d="M1645.53,-246.2C1635.07,-231.65 1613.03,-201.92 1591.76,-179 1557.47,-142.05 1512.92,-103.18 1488.25,-82.35"/>
<polygon fill="midnightblue" stroke="midnightblue" points="1490.32,-79.51 1480.41,-75.77 1485.82,-84.87 1490.32,-79.51"/>
</g>
<!-- Node17 -->
<g id="node17" class="node">
<title>Node17</title>
<g id="a_node17"><a xlink:href="JKRFile_8h.html" target="_top" xlink:title=" ">
<polygon fill="white" stroke="black" points="1679.76,-185 1679.76,-204 1815.76,-204 1815.76,-185 1679.76,-185"/>
<text text-anchor="middle" x="1747.76" y="-192" font-family="Helvetica,sans-Serif" font-size="10.00">JSystem/JKernel/JKRFile.h</text>
</a>
</g>
</g>
<!-- Node16&#45;&gt;Node17 -->
<g id="edge30" class="edge">
<title>Node16&#45;&gt;Node17</title>
<path fill="none" stroke="midnightblue" d="M1665.52,-246.48C1681.13,-236.8 1706.82,-220.87 1725.34,-209.39"/>
<polygon fill="midnightblue" stroke="midnightblue" points="1727.38,-212.25 1734.03,-204.01 1723.69,-206.3 1727.38,-212.25"/>
</g>
<!-- Node17&#45;&gt;Node4 -->
<g id="edge32" class="edge">
<title>Node17&#45;&gt;Node4</title>
<path fill="none" stroke="midnightblue" d="M1737.71,-184.96C1725.94,-174.95 1705.87,-157.84 1688.76,-143 1644.51,-104.62 1643.74,-78.75 1589.76,-56 1494.27,-15.75 1180.67,-11.07 1056.78,-10.83"/>
<polygon fill="midnightblue" stroke="midnightblue" points="1056.44,-7.33 1046.44,-10.82 1056.43,-14.33 1056.44,-7.33"/>
</g>
<!-- Node17&#45;&gt;Node12 -->
<g id="edge31" class="edge">
<title>Node17&#45;&gt;Node12</title>
<path fill="none" stroke="midnightblue" d="M1682.53,-184.97C1590.58,-172.94 1423.26,-151.06 1326.11,-138.36"/>
<polygon fill="midnightblue" stroke="midnightblue" points="1326.44,-134.87 1316.07,-137.04 1325.53,-141.81 1326.44,-134.87"/>
</g>
<!-- Node18&#45;&gt;Node4 -->
<g id="edge39" class="edge">
<title>Node18&#45;&gt;Node4</title>
<path fill="none" stroke="midnightblue" d="M936.3,-184.7C925.31,-161.7 899.66,-98.67 924.76,-56 933.68,-40.84 949.75,-30.43 965.24,-23.46"/>
<polygon fill="midnightblue" stroke="midnightblue" points="966.82,-26.6 974.74,-19.56 964.16,-20.12 966.82,-26.6"/>
</g>
<!-- Node18&#45;&gt;Node12 -->
<g id="edge37" class="edge">
<title>Node18&#45;&gt;Node12</title>
<path fill="none" stroke="midnightblue" d="M981.61,-184.94C1037.83,-173.15 1139.02,-151.93 1200.02,-139.14"/>
<polygon fill="midnightblue" stroke="midnightblue" points="1200.76,-142.56 1209.83,-137.08 1199.32,-135.71 1200.76,-142.56"/>
</g>
<!-- Node18&#45;&gt;Node13 -->
<g id="edge38" class="edge">
<title>Node18&#45;&gt;Node13</title>
<path fill="none" stroke="midnightblue" d="M945.23,-184.81C955.8,-164.22 982.54,-112.19 996.68,-84.68"/>
<polygon fill="midnightblue" stroke="midnightblue" points="999.81,-86.25 1001.26,-75.76 993.58,-83.05 999.81,-86.25"/>
</g>
<!-- Node19&#45;&gt;Node4 -->
<g id="edge43" class="edge">
<title>Node19&#45;&gt;Node4</title>
<path fill="none" stroke="midnightblue" d="M1114.34,-184.8C1115.44,-161.5 1115.46,-96.76 1085.76,-56 1075.04,-41.28 1057.95,-30.74 1042.31,-23.57"/>
<polygon fill="midnightblue" stroke="midnightblue" points="1043.4,-20.23 1032.83,-19.54 1040.66,-26.67 1043.4,-20.23"/>
</g>
<!-- Node19&#45;&gt;Node12 -->
<g id="edge41" class="edge">
<title>Node19&#45;&gt;Node12</title>
<path fill="none" stroke="midnightblue" d="M1131.95,-184.87C1155.29,-173.8 1195.99,-154.49 1223.16,-141.6"/>
<polygon fill="midnightblue" stroke="midnightblue" points="1224.96,-144.62 1232.49,-137.17 1221.96,-138.29 1224.96,-144.62"/>
</g>
<!-- Node19&#45;&gt;Node14 -->
<g id="edge42" class="edge">
<title>Node19&#45;&gt;Node14</title>
<path fill="none" stroke="midnightblue" d="M1160.27,-184.94C1225.72,-172.89 1344.66,-150.98 1413.55,-138.3"/>
<polygon fill="midnightblue" stroke="midnightblue" points="1414.54,-141.67 1423.74,-136.42 1413.28,-134.79 1414.54,-141.67"/>
</g>
<!-- Node20&#45;&gt;Node4 -->
<g id="edge45" class="edge">
<title>Node20&#45;&gt;Node4</title>
<path fill="none" stroke="midnightblue" d="M908.76,-249.28C888.64,-243.22 861.68,-231.46 848.76,-210 841.65,-198.2 845.45,-192.37 848.76,-179 863.64,-118.99 869.36,-99.03 913.76,-56 928.95,-41.28 949.89,-30.52 967.96,-23.22"/>
<polygon fill="midnightblue" stroke="midnightblue" points="969.55,-26.36 977.64,-19.52 967.05,-19.82 969.55,-26.36"/>
</g>
<!-- Node21&#45;&gt;Node4 -->
<g id="edge52" class="edge">
<title>Node21&#45;&gt;Node4</title>
<path fill="none" stroke="midnightblue" d="M1902.61,-179.4C1877.13,-170.76 1845.68,-158.39 1819.76,-143 1768.24,-112.4 1772.36,-78.35 1716.76,-56 1655.97,-31.56 1208.76,-16.75 1056.42,-12.37"/>
<polygon fill="midnightblue" stroke="midnightblue" points="1056.49,-8.87 1046.39,-12.09 1056.29,-15.87 1056.49,-8.87"/>
</g>
<!-- Node22 -->
<g id="node22" class="node">
<title>Node22</title>
<g id="a_node22"><a xlink:href="JSUInputStream_8h.html" target="_top" xlink:title=" ">
<polygon fill="white" stroke="black" points="1829.26,-112.5 1829.26,-142.5 1970.26,-142.5 1970.26,-112.5 1829.26,-112.5"/>
<text text-anchor="start" x="1837.26" y="-130.5" font-family="Helvetica,sans-Serif" font-size="10.00">JSystem/JSupport/JSUInput</text>
<text text-anchor="middle" x="1899.76" y="-119.5" font-family="Helvetica,sans-Serif" font-size="10.00">Stream.h</text>
</a>
</g>
</g>
<!-- Node21&#45;&gt;Node22 -->
<g id="edge48" class="edge">
<title>Node21&#45;&gt;Node22</title>
<path fill="none" stroke="midnightblue" d="M1938.91,-179.4C1932.43,-170.96 1924.04,-160.07 1916.7,-150.52"/>
<polygon fill="midnightblue" stroke="midnightblue" points="1919.46,-148.37 1910.59,-142.58 1913.91,-152.64 1919.46,-148.37"/>
</g>
<!-- Node22&#45;&gt;Node4 -->
<g id="edge51" class="edge">
<title>Node22&#45;&gt;Node4</title>
<path fill="none" stroke="midnightblue" d="M1918.05,-112.24C1935.45,-97.02 1956.78,-72.81 1940.76,-56 1910.06,-23.78 1247.06,-13.75 1056.54,-11.53"/>
<polygon fill="midnightblue" stroke="midnightblue" points="1056.55,-8.03 1046.51,-11.41 1056.47,-15.03 1056.55,-8.03"/>
</g>
<!-- Node23 -->
<g id="node23" class="node">
<title>Node23</title>
<g id="a_node23"><a xlink:href="JSUIosBase_8h.html" target="_top" xlink:title=" ">
<polygon fill="white" stroke="black" points="1769.26,-56.5 1769.26,-75.5 1932.26,-75.5 1932.26,-56.5 1769.26,-56.5"/>
<text text-anchor="middle" x="1850.76" y="-63.5" font-family="Helvetica,sans-Serif" font-size="10.00">JSystem/JSupport/JSUIosBase.h</text>
</a>
</g>
</g>
<!-- Node22&#45;&gt;Node23 -->
<g id="edge49" class="edge">
<title>Node22&#45;&gt;Node23</title>
<path fill="none" stroke="midnightblue" d="M1888.15,-112.4C1881.03,-103.75 1871.88,-92.64 1864.41,-83.58"/>
<polygon fill="midnightblue" stroke="midnightblue" points="1866.95,-81.15 1857.89,-75.66 1861.55,-85.6 1866.95,-81.15"/>
</g>
<!-- Node23&#45;&gt;Node4 -->
<g id="edge50" class="edge">
<title>Node23&#45;&gt;Node4</title>
<path fill="none" stroke="midnightblue" d="M1769.08,-57.15C1764.23,-56.75 1759.43,-56.36 1754.76,-56 1492.25,-35.81 1177.39,-19.45 1056.46,-13.46"/>
<polygon fill="midnightblue" stroke="midnightblue" points="1056.55,-9.96 1046.39,-12.96 1056.2,-16.95 1056.55,-9.96"/>
</g>
<!-- Node24&#45;&gt;Node4 -->
<g id="edge60" class="edge">
<title>Node24&#45;&gt;Node4</title>
<path fill="none" stroke="midnightblue" d="M462.91,-184.98C473.74,-175.52 490.93,-159.42 502.76,-143 528.09,-107.84 511,-80.47 546.76,-56 579.88,-33.33 842.65,-18.57 955.05,-13.23"/>
<polygon fill="midnightblue" stroke="midnightblue" points="955.3,-16.72 965.13,-12.76 954.97,-9.73 955.3,-16.72"/>
</g>
<!-- Node24&#45;&gt;Node7 -->
<g id="edge54" class="edge">
<title>Node24&#45;&gt;Node7</title>
<path fill="none" stroke="midnightblue" d="M451.95,-184.73C451.07,-175.18 449.63,-159.62 448.5,-147.28"/>
<polygon fill="midnightblue" stroke="midnightblue" points="451.96,-146.76 447.56,-137.13 444.99,-147.41 451.96,-146.76"/>
</g>
<!-- Node25 -->
<g id="node25" class="node">
<title>Node25</title>
<g id="a_node25"><a xlink:href="GX_8h.html" target="_top" xlink:title=" ">
<polygon fill="white" stroke="black" points="609.26,-118 609.26,-137 694.26,-137 694.26,-118 609.26,-118"/>
<text text-anchor="middle" x="651.76" y="-125" font-family="Helvetica,sans-Serif" font-size="10.00">dolphin/gx/GX.h</text>
</a>
</g>
</g>
<!-- Node24&#45;&gt;Node25 -->
<g id="edge55" class="edge">
<title>Node24&#45;&gt;Node25</title>
<path fill="none" stroke="midnightblue" d="M479.19,-184.87C514.3,-173.4 576.46,-153.09 615.82,-140.24"/>
<polygon fill="midnightblue" stroke="midnightblue" points="617.12,-143.5 625.54,-137.06 614.95,-136.84 617.12,-143.5"/>
</g>
<!-- Node25&#45;&gt;Node3 -->
<g id="edge58" class="edge">
<title>Node25&#45;&gt;Node3</title>
<path fill="none" stroke="midnightblue" d="M620.81,-117.98C582.88,-107.53 518.48,-89.79 476.54,-78.23"/>
<polygon fill="midnightblue" stroke="midnightblue" points="477.22,-74.79 466.65,-75.51 475.36,-81.54 477.22,-74.79"/>
</g>
<!-- Node25&#45;&gt;Node4 -->
<g id="edge59" class="edge">
<title>Node25&#45;&gt;Node4</title>
<path fill="none" stroke="midnightblue" d="M663.67,-117.88C684.9,-102.92 731.17,-72.23 774.76,-56 834.51,-33.75 907.25,-21.91 954.94,-16.05"/>
<polygon fill="midnightblue" stroke="midnightblue" points="955.5,-19.51 965.02,-14.85 954.68,-12.56 955.5,-19.51"/>
</g>
<!-- Node26 -->
<g id="node26" class="node">
<title>Node26</title>
<g id="a_node26"><a xlink:href="GXDisplayList_8h.html" target="_top" xlink:title=" ">
<polygon fill="white" stroke="black" points="589.26,-56.5 589.26,-75.5 722.26,-75.5 722.26,-56.5 589.26,-56.5"/>
<text text-anchor="middle" x="655.76" y="-63.5" font-family="Helvetica,sans-Serif" font-size="10.00">dolphin/gx/GXDisplayList.h</text>
</a>
</g>
</g>
<!-- Node25&#45;&gt;Node26 -->
<g id="edge56" class="edge">
<title>Node25&#45;&gt;Node26</title>
<path fill="none" stroke="midnightblue" d="M652.33,-117.98C652.9,-109.58 653.78,-96.48 654.51,-85.66"/>
<polygon fill="midnightblue" stroke="midnightblue" points="658.01,-85.72 655.19,-75.51 651.03,-85.25 658.01,-85.72"/>
</g>
<!-- Node26&#45;&gt;Node4 -->
<g id="edge57" class="edge">
<title>Node26&#45;&gt;Node4</title>
<path fill="none" stroke="midnightblue" d="M711.22,-56.44C778.28,-46.1 890.19,-28.83 955.05,-18.82"/>
<polygon fill="midnightblue" stroke="midnightblue" points="955.69,-22.27 965.04,-17.28 954.62,-15.35 955.69,-22.27"/>
</g>
<!-- Node27&#45;&gt;Node4 -->
<g id="edge64" class="edge">
<title>Node27&#45;&gt;Node4</title>
<path fill="none" stroke="midnightblue" d="M521.84,-246.08C530.54,-209.04 564.34,-68.77 579.76,-56 608.14,-32.5 847.81,-18.42 954.68,-13.26"/>
<polygon fill="midnightblue" stroke="midnightblue" points="955.08,-16.74 964.9,-12.77 954.75,-9.75 955.08,-16.74"/>
</g>
<!-- Node27&#45;&gt;Node19 -->
<g id="edge62" class="edge">
<title>Node27&#45;&gt;Node19</title>
<path fill="none" stroke="midnightblue" d="M597.11,-246.83C600.03,-246.55 602.92,-246.27 605.76,-246 795.37,-228.09 843.93,-234.81 1032.76,-210 1041.61,-208.84 1050.97,-207.38 1060.05,-205.84"/>
<polygon fill="midnightblue" stroke="midnightblue" points="1060.91,-209.24 1070.16,-204.07 1059.71,-202.35 1060.91,-209.24"/>
</g>
<!-- Node27&#45;&gt;Node24 -->
<g id="edge63" class="edge">
<title>Node27&#45;&gt;Node24</title>
<path fill="none" stroke="midnightblue" d="M510.16,-246.48C499.71,-237.2 482.79,-222.17 470.03,-210.83"/>
<polygon fill="midnightblue" stroke="midnightblue" points="472.14,-208.03 462.34,-204.01 467.5,-213.27 472.14,-208.03"/>
</g>
<!-- Node28&#45;&gt;Node4 -->
<g id="edge69" class="edge">
<title>Node28&#45;&gt;Node4</title>
<path fill="none" stroke="midnightblue" d="M698.38,-246.37C736.1,-208.63 885.01,-59.74 890.76,-56 913.31,-41.34 941.37,-30.24 964.13,-22.73"/>
<polygon fill="midnightblue" stroke="midnightblue" points="965.38,-26.01 973.85,-19.64 963.26,-19.34 965.38,-26.01"/>
</g>
<!-- Node29 -->
<g id="node29" class="node">
<title>Node29</title>
<g id="a_node29"><a xlink:href="JUTPalette_8h.html" target="_top" xlink:title=" ">
<polygon fill="white" stroke="black" points="577.76,-185 577.76,-204 725.76,-204 725.76,-185 577.76,-185"/>
<text text-anchor="middle" x="651.76" y="-192" font-family="Helvetica,sans-Serif" font-size="10.00">JSystem/JUtility/JUTPalette.h</text>
</a>
</g>
</g>
<!-- Node28&#45;&gt;Node29 -->
<g id="edge66" class="edge">
<title>Node28&#45;&gt;Node29</title>
<path fill="none" stroke="midnightblue" d="M684.32,-246.48C678.67,-237.64 669.7,-223.59 662.6,-212.48"/>
<polygon fill="midnightblue" stroke="midnightblue" points="665.53,-210.55 657.2,-204.01 659.63,-214.32 665.53,-210.55"/>
</g>
<!-- Node29&#45;&gt;Node4 -->
<g id="edge68" class="edge">
<title>Node29&#45;&gt;Node4</title>
<path fill="none" stroke="midnightblue" d="M660.91,-184.66C689.57,-157.12 777.82,-73.66 812.76,-56 857.82,-33.23 914.63,-21.78 954.92,-16.15"/>
<polygon fill="midnightblue" stroke="midnightblue" points="955.59,-19.59 965.04,-14.81 954.67,-12.65 955.59,-19.59"/>
</g>
<!-- Node29&#45;&gt;Node25 -->
<g id="edge67" class="edge">
<title>Node29&#45;&gt;Node25</title>
<path fill="none" stroke="midnightblue" d="M651.76,-184.73C651.76,-175.18 651.76,-159.62 651.76,-147.28"/>
<polygon fill="midnightblue" stroke="midnightblue" points="655.26,-147.13 651.76,-137.13 648.26,-147.13 655.26,-147.13"/>
</g>
<!-- Node30&#45;&gt;Node4 -->
<g id="edge76" class="edge">
<title>Node30&#45;&gt;Node4</title>
<path fill="none" stroke="midnightblue" d="M2075.79,-184.93C2059.9,-175.89 2035.4,-160.55 2017.76,-143 1984.47,-109.87 1998.82,-78.81 1957.76,-56 1878.8,-12.13 1241.84,-10.36 1056.3,-10.79"/>
<polygon fill="midnightblue" stroke="midnightblue" points="1056.26,-7.29 1046.27,-10.81 1056.28,-14.29 1056.26,-7.29"/>
</g>
<!-- Node31 -->
<g id="node31" class="node">
<title>Node31</title>
<g id="a_node31"><a xlink:href="quat_8h.html" target="_top" xlink:title=" ">
<polygon fill="white" stroke="black" points="2027.26,-118 2027.26,-137 2122.26,-137 2122.26,-118 2027.26,-118"/>
<text text-anchor="middle" x="2074.76" y="-125" font-family="Helvetica,sans-Serif" font-size="10.00">dolphin/mtx/quat.h</text>
</a>
</g>
</g>
<!-- Node30&#45;&gt;Node31 -->
<g id="edge71" class="edge">
<title>Node30&#45;&gt;Node31</title>
<path fill="none" stroke="midnightblue" d="M2089.47,-184.73C2086.95,-175.09 2082.82,-159.3 2079.58,-146.91"/>
<polygon fill="midnightblue" stroke="midnightblue" points="2082.93,-145.92 2077.02,-137.13 2076.16,-147.69 2082.93,-145.92"/>
</g>
<!-- Node32 -->
<g id="node32" class="node">
<title>Node32</title>
<g id="a_node32"><a xlink:href="vec_8h.html" target="_top" xlink:title=" ">
<polygon fill="white" stroke="black" points="2064.76,-56.5 2064.76,-75.5 2156.76,-75.5 2156.76,-56.5 2064.76,-56.5"/>
<text text-anchor="middle" x="2110.76" y="-63.5" font-family="Helvetica,sans-Serif" font-size="10.00">dolphin/mtx/vec.h</text>
</a>
</g>
</g>
<!-- Node30&#45;&gt;Node32 -->
<g id="edge75" class="edge">
<title>Node30&#45;&gt;Node32</title>
<path fill="none" stroke="midnightblue" d="M2101.33,-184.94C2110.89,-175.7 2124.97,-159.98 2130.76,-143 2137.48,-123.3 2129.09,-100.08 2121.21,-84.54"/>
<polygon fill="midnightblue" stroke="midnightblue" points="2124.15,-82.63 2116.27,-75.55 2118.02,-86 2124.15,-82.63"/>
</g>
<!-- Node31&#45;&gt;Node4 -->
<g id="edge74" class="edge">
<title>Node31&#45;&gt;Node4</title>
<path fill="none" stroke="midnightblue" d="M2070.23,-117.78C2061.53,-102.08 2040.83,-69.46 2012.76,-56 1926.23,-14.51 1248.74,-11.08 1056.48,-10.95"/>
<polygon fill="midnightblue" stroke="midnightblue" points="1056.37,-7.45 1046.36,-10.95 1056.36,-14.45 1056.37,-7.45"/>
</g>
<!-- Node31&#45;&gt;Node32 -->
<g id="edge72" class="edge">
<title>Node31&#45;&gt;Node32</title>
<path fill="none" stroke="midnightblue" d="M2079.92,-117.98C2085.21,-109.23 2093.6,-95.37 2100.29,-84.31"/>
<polygon fill="midnightblue" stroke="midnightblue" points="2103.43,-85.88 2105.61,-75.51 2097.44,-82.25 2103.43,-85.88"/>
</g>
<!-- Node32&#45;&gt;Node4 -->
<g id="edge73" class="edge">
<title>Node32&#45;&gt;Node4</title>
<path fill="none" stroke="midnightblue" d="M2064.63,-57.58C2059.96,-56.98 2055.27,-56.43 2050.76,-56 1670.36,-19.38 1209.18,-12.56 1057.11,-11.29"/>
<polygon fill="midnightblue" stroke="midnightblue" points="1056.73,-7.79 1046.7,-11.21 1056.67,-14.79 1056.73,-7.79"/>
</g>
</g>
</svg>
        <g id="navigator" transform="translate(0 0)" fill="#404254">
                <rect fill="#f2f5e9" fill-opacity="0.5" stroke="#606060" stroke-width=".5" x="0" y="0" width="60" height="60"/>
                <use id="zoomplus" xlink:href="#zoomPlus" x="17" y="9" onmousedown="handleZoom(evt,'in')"/>
                <use id="zoomminus" xlink:href="#zoomMin" x="42" y="9" onmousedown="handleZoom(evt,'out')"/>
                <use id="reset" xlink:href="#resetDef" x="30" y="36" onmousedown="handleReset()"/>
                <g id="arrowUp" xlink:href="#dirArrow" transform="translate(30 24)" onmousedown="handlePan(0,-1)">
                  <use xlink:href="#rim" fill="#404040">
                        <set attributeName="fill" to="#808080" begin="arrowUp.mouseover" end="arrowUp.mouseout"/>
                  </use>
                  <path fill="none" stroke="white" stroke-width="1.5" d="M0,-3.0v7 M-2.5,-0.5L0,-3.0L2.5,-0.5"/>
                </g>
                <g id="arrowRight" xlink:href="#dirArrow" transform="rotate(90) translate(36 -43)" onmousedown="handlePan(1,0)">
                  <use xlink:href="#rim" fill="#404040">
                        <set attributeName="fill" to="#808080" begin="arrowRight.mouseover" end="arrowRight.mouseout"/>
                  </use>
                  <path fill="none" stroke="white" stroke-width="1.5" d="M0,-3.0v7 M-2.5,-0.5L0,-3.0L2.5,-0.5"/>
                </g>
                <g id="arrowDown" xlink:href="#dirArrow" transform="rotate(180) translate(-30 -48)" onmousedown="handlePan(0,1)">
                  <use xlink:href="#rim" fill="#404040">
                        <set attributeName="fill" to="#808080" begin="arrowDown.mouseover" end="arrowDown.mouseout"/>
                  </use>
                  <path fill="none" stroke="white" stroke-width="1.5" d="M0,-3.0v7 M-2.5,-0.5L0,-3.0L2.5,-0.5"/>
                </g>
                <g id="arrowLeft" xlink:href="#dirArrow" transform="rotate(270) translate(-36 17)" onmousedown="handlePan(-1,0)">
                  <use xlink:href="#rim" fill="#404040">
                        <set attributeName="fill" to="#808080" begin="arrowLeft.mouseover" end="arrowLeft.mouseout"/>
                  </use>
                  <path fill="none" stroke="white" stroke-width="1.5" d="M0,-3.0v7 M-2.5,-0.5L0,-3.0L2.5,-0.5"/>
                </g>
        </g>
        <svg viewBox="0 0 15 15" width="100%" height="30px" preserveAspectRatio="xMaxYMin meet">
         <g id="arrow_out" transform="scale(0.3 0.3)">
          <a xlink:href="J2DPane_8h__incl_org.svg" target="_base">
           <rect id="button" ry="5" rx="5" y="6" x="6" height="38" width="38"
                fill="#f2f5e9" fill-opacity="0.5" stroke="#606060" stroke-width="1.0"/>
           <path id="arrow"
             d="M 11.500037,31.436501 C 11.940474,20.09759 22.043105,11.32322 32.158766,21.979434 L 37.068811,17.246167 C 37.068811,17.246167 37.088388,32 37.088388,32 L 22.160133,31.978069 C 22.160133,31.978069 26.997745,27.140456 26.997745,27.140456 C 18.528582,18.264221 13.291696,25.230495 11.500037,31.436501 z"
             style="fill:#404040;"/>
          </a>
         </g>
        </svg>
</svg>
