<?xml version="1.0" encoding="UTF-8" standalone="no"?>
<!DOCTYPE svg PUBLIC "-//W3C//DTD SVG 1.1//EN"
 "http://www.w3.org/Graphics/SVG/1.1/DTD/svg11.dtd">
<!-- Generated by graphviz version 2.44.0 ()
 -->
<!-- Title: include/JSystem/J2DGraph/J2DPane.h Pages: 1 -->
<!--zoomable 408 -->
<svg id="main" version="1.1" xmlns="http://www.w3.org/2000/svg" xmlns:xlink="http://www.w3.org/1999/xlink" xml:space="preserve" onload="init(evt)">
<style type="text/css"><![CDATA[
.edge:hover path { stroke: red; }
.edge:hover polygon { stroke: red; fill: red; }
]]></style>
<script type="text/javascript"><![CDATA[
var edges = document.getElementsByTagName('g');
if (edges && edges.length) {
  for (var i=0;i<edges.length;i++) {
    if (edges[i].id.substr(0,4)=='edge') {
      edges[i].setAttribute('class','edge');
    }
  }
}
]]></script>
        <defs>
                <circle id="rim" cx="0" cy="0" r="7"/>
                <circle id="rim2" cx="0" cy="0" r="3.5"/>
                <g id="zoomPlus">
                        <use xlink:href="#rim" fill="#404040">
                                <set attributeName="fill" to="#808080" begin="zoomplus.mouseover" end="zoomplus.mouseout"/>
                        </use>
                        <path d="M-4,0h8M0,-4v8" fill="none" stroke="white" stroke-width="1.5" pointer-events="none"/>
                </g>
                <g id="zoomMin">
                        <use xlink:href="#rim" fill="#404040">
                                <set attributeName="fill" to="#808080" begin="zoomminus.mouseover" end="zoomminus.mouseout"/>
                        </use>
                        <path d="M-4,0h8" fill="none" stroke="white" stroke-width="1.5" pointer-events="none"/>
                </g>
                <g id="dirArrow">
                        <path fill="none" stroke="white" stroke-width="1.5" d="M0,-3.0v7 M-2.5,-0.5L0,-3.0L2.5,-0.5"/>
                </g>
               <g id="resetDef">
                       <use xlink:href="#rim2" fill="#404040">
                               <set attributeName="fill" to="#808080" begin="reset.mouseover" end="reset.mouseout"/>
                       </use>
               </g>
        </defs>

<script type="text/javascript">
var viewWidth = 2243;
var viewHeight = 408;
var sectionId = 'dynsection-0';
</script>
<script xlink:href="svgpan.js"/>
<svg id="graph" class="graph">
<g id="viewport">
<title>include/JSystem/J2DGraph/J2DPane.h</title>
<polygon fill="white" stroke="transparent" points="-4,4 -4,-404 2239.04,-404 2239.04,4 -4,4"/>
<!-- Node1 -->
<g id="node1" class="node">
<title>Node1</title>
<g id="a_node1"><a xlink:title=" ">
<polygon fill="#bfbfbf" stroke="black" points="596.04,-369.5 596.04,-399.5 731.04,-399.5 731.04,-369.5 596.04,-369.5"/>
<text text-anchor="start" x="604.04" y="-387.5" font-family="Helvetica,sans-Serif" font-size="10.00">include/JSystem/J2DGraph</text>
<text text-anchor="middle" x="663.54" y="-376.5" font-family="Helvetica,sans-Serif" font-size="10.00">/J2DPane.h</text>
</a>
</g>
</g>
<!-- Node2 -->
<g id="node2" class="node">
<title>Node2</title>
<g id="a_node2"><a xlink:href="J2DAnimation_8h.html" target="_top" xlink:title=" ">
<polygon fill="white" stroke="black" points="41.04,-118 41.04,-137 214.04,-137 214.04,-118 41.04,-118"/>
<text text-anchor="middle" x="127.54" y="-125" font-family="Helvetica,sans-Serif" font-size="10.00">JSystem/J2DGraph/J2DAnimation.h</text>
</a>
</g>
</g>
<!-- Node1&#45;&gt;Node2 -->
<g id="edge1" class="edge">
<title>Node1&#45;&gt;Node2</title>
<path fill="none" stroke="midnightblue" d="M596.02,-382.21C532.43,-378.75 435.79,-367.58 359.54,-333 259.98,-287.85 172.04,-185.17 140.21,-145.02"/>
<polygon fill="midnightblue" stroke="midnightblue" points="142.88,-142.76 133.97,-137.04 137.37,-147.07 142.88,-142.76"/>
</g>
<!-- Node4 -->
<g id="node4" class="node">
<title>Node4</title>
<g id="a_node4"><a xlink:href="types_8h.html" target="_top" xlink:title=" ">
<polygon fill="white" stroke="black" points="881.04,-0.5 881.04,-19.5 962.04,-19.5 962.04,-0.5 881.04,-0.5"/>
<text text-anchor="middle" x="921.54" y="-7.5" font-family="Helvetica,sans-Serif" font-size="10.00">dolphin/types.h</text>
</a>
</g>
</g>
<!-- Node1&#45;&gt;Node4 -->
<g id="edge78" class="edge">
<title>Node1&#45;&gt;Node4</title>
<path fill="none" stroke="midnightblue" d="M596.02,-377.99C429.48,-363.51 12.54,-321.38 12.54,-262.5 12.54,-262.5 12.54,-262.5 12.54,-126.5 12.54,-99.75 -58.38,-110.1 141.54,-56 279.63,-18.63 719.72,-12.29 870.38,-11.22"/>
<polygon fill="midnightblue" stroke="midnightblue" points="870.74,-14.72 880.72,-11.15 870.7,-7.72 870.74,-14.72"/>
</g>
<!-- Node5 -->
<g id="node5" class="node">
<title>Node5</title>
<g id="a_node5"><a xlink:href="J2DGrafContext_8h.html" target="_top" xlink:title=" ">
<polygon fill="white" stroke="black" points="323.54,-246.5 323.54,-276.5 463.54,-276.5 463.54,-246.5 323.54,-246.5"/>
<text text-anchor="start" x="331.54" y="-264.5" font-family="Helvetica,sans-Serif" font-size="10.00">JSystem/J2DGraph/J2DGraf</text>
<text text-anchor="middle" x="393.54" y="-253.5" font-family="Helvetica,sans-Serif" font-size="10.00">Context.h</text>
</a>
</g>
</g>
<!-- Node1&#45;&gt;Node5 -->
<g id="edge5" class="edge">
<title>Node1&#45;&gt;Node5</title>
<path fill="none" stroke="midnightblue" d="M632.04,-369.38C582.96,-347.39 488.27,-304.95 434.13,-280.69"/>
<polygon fill="midnightblue" stroke="midnightblue" points="435.4,-277.42 424.84,-276.53 432.53,-283.81 435.4,-277.42"/>
</g>
<!-- Node6 -->
<g id="node6" class="node">
<title>Node6</title>
<g id="a_node6"><a xlink:href="JGeometry_8h.html" target="_top" xlink:title=" ">
<polygon fill="white" stroke="black" points="460.04,-185 460.04,-204 573.04,-204 573.04,-185 460.04,-185"/>
<text text-anchor="middle" x="516.54" y="-192" font-family="Helvetica,sans-Serif" font-size="10.00">JSystem/JGeometry.h</text>
</a>
</g>
</g>
<!-- Node1&#45;&gt;Node6 -->
<g id="edge19" class="edge">
<title>Node1&#45;&gt;Node6</title>
<path fill="none" stroke="midnightblue" d="M665.88,-369.26C669.48,-342.15 673.28,-282.57 644.54,-246 633.43,-231.87 591.18,-216.91 558.22,-206.97"/>
<polygon fill="midnightblue" stroke="midnightblue" points="558.91,-203.53 548.33,-204.06 556.93,-210.24 558.91,-203.53"/>
</g>
<!-- Node8 -->
<g id="node8" class="node">
<title>Node8</title>
<g id="a_node8"><a xlink:href="mtx_8h.html" target="_top" xlink:title=" ">
<polygon fill="white" stroke="black" points="591.54,-185 591.54,-204 683.54,-204 683.54,-185 591.54,-185"/>
<text text-anchor="middle" x="637.54" y="-192" font-family="Helvetica,sans-Serif" font-size="10.00">dolphin/mtx/mtx.h</text>
</a>
</g>
</g>
<!-- Node1&#45;&gt;Node8 -->
<g id="edge77" class="edge">
<title>Node1&#45;&gt;Node8</title>
<path fill="none" stroke="midnightblue" d="M668.84,-369.38C677.55,-343.94 692.53,-289.06 677.54,-246 672.93,-232.77 663.25,-220.39 654.57,-211.2"/>
<polygon fill="midnightblue" stroke="midnightblue" points="656.9,-208.58 647.35,-204 651.96,-213.54 656.9,-208.58"/>
</g>
<!-- Node11 -->
<g id="node11" class="node">
<title>Node11</title>
<g id="a_node11"><a xlink:href="JKRArchive_8h.html" target="_top" xlink:title=" ">
<polygon fill="white" stroke="black" points="1188.04,-313.5 1188.04,-332.5 1341.04,-332.5 1341.04,-313.5 1188.04,-313.5"/>
<text text-anchor="middle" x="1264.54" y="-320.5" font-family="Helvetica,sans-Serif" font-size="10.00">JSystem/JKernel/JKRArchive.h</text>
</a>
</g>
</g>
<!-- Node1&#45;&gt;Node11 -->
<g id="edge20" class="edge">
<title>Node1&#45;&gt;Node11</title>
<path fill="none" stroke="midnightblue" d="M731.31,-376.79C840.9,-365.94 1056.87,-344.56 1177.62,-332.61"/>
<polygon fill="midnightblue" stroke="midnightblue" points="1177.96,-336.09 1187.57,-331.62 1177.27,-329.12 1177.96,-336.09"/>
</g>
<!-- Node16 -->
<g id="node16" class="node">
<title>Node16</title>
<g id="a_node16"><a xlink:href="JSUList_8h.html" target="_top" xlink:title=" ">
<polygon fill="white" stroke="black" points="1483.04,-56.5 1483.04,-75.5 1626.04,-75.5 1626.04,-56.5 1483.04,-56.5"/>
<text text-anchor="middle" x="1554.54" y="-63.5" font-family="Helvetica,sans-Serif" font-size="10.00">JSystem/JSupport/JSUList.h</text>
</a>
</g>
</g>
<!-- Node1&#45;&gt;Node16 -->
<g id="edge53" class="edge">
<title>Node1&#45;&gt;Node16</title>
<path fill="none" stroke="midnightblue" d="M731.11,-381.99C854.58,-378.46 1124.63,-367.2 1349.54,-333 1458.25,-316.47 1483.49,-302.15 1590.54,-277 1715.95,-247.53 1792.67,-311.07 1872.54,-210 1881.08,-199.19 1880.5,-190.24 1872.54,-179 1819.4,-103.95 1711.71,-78.83 1636.45,-70.63"/>
<polygon fill="midnightblue" stroke="midnightblue" points="1636.35,-67.1 1626.05,-69.58 1635.65,-74.06 1636.35,-67.1"/>
</g>
<!-- Node24 -->
<g id="node24" class="node">
<title>Node24</title>
<g id="a_node24"><a xlink:href="JSURandomInputStream_8h.html" target="_top" xlink:title=" ">
<polygon fill="white" stroke="black" points="1996.04,-179.5 1996.04,-209.5 2151.04,-209.5 2151.04,-179.5 1996.04,-179.5"/>
<text text-anchor="start" x="2004.04" y="-197.5" font-family="Helvetica,sans-Serif" font-size="10.00">JSystem/JSupport/JSURandom</text>
<text text-anchor="middle" x="2073.54" y="-186.5" font-family="Helvetica,sans-Serif" font-size="10.00">InputStream.h</text>
</a>
</g>
</g>
<!-- Node1&#45;&gt;Node24 -->
<g id="edge54" class="edge">
<title>Node1&#45;&gt;Node24</title>
<path fill="none" stroke="midnightblue" d="M731.37,-382.88C974.51,-380.38 1793.88,-369.3 1905.54,-333 1970.96,-311.73 2028.5,-250.89 2056.14,-217.72"/>
<polygon fill="midnightblue" stroke="midnightblue" points="2058.89,-219.88 2062.51,-209.92 2053.47,-215.45 2058.89,-219.88"/>
</g>
<!-- Node27 -->
<g id="node27" class="node">
<title>Node27</title>
<g id="a_node27"><a xlink:href="JUTFont_8h.html" target="_top" xlink:title=" ">
<polygon fill="white" stroke="black" points="228.04,-185 228.04,-204 365.04,-204 365.04,-185 228.04,-185"/>
<text text-anchor="middle" x="296.54" y="-192" font-family="Helvetica,sans-Serif" font-size="10.00">JSystem/JUtility/JUTFont.h</text>
</a>
</g>
</g>
<!-- Node1&#45;&gt;Node27 -->
<g id="edge60" class="edge">
<title>Node1&#45;&gt;Node27</title>
<path fill="none" stroke="midnightblue" d="M595.89,-382.25C516.79,-376.98 387.42,-355.86 314.54,-277 298.9,-260.08 295.75,-232.74 295.6,-214.45"/>
<polygon fill="midnightblue" stroke="midnightblue" points="299.1,-214.48 295.81,-204.4 292.1,-214.33 299.1,-214.48"/>
</g>
<!-- Node30 -->
<g id="node30" class="node">
<title>Node30</title>
<g id="a_node30"><a xlink:href="JUTResFont_8h.html" target="_top" xlink:title=" ">
<polygon fill="white" stroke="black" points="481.54,-252 481.54,-271 635.54,-271 635.54,-252 481.54,-252"/>
<text text-anchor="middle" x="558.54" y="-259" font-family="Helvetica,sans-Serif" font-size="10.00">JSystem/JUtility/JUTResFont.h</text>
</a>
</g>
</g>
<!-- Node1&#45;&gt;Node30 -->
<g id="edge68" class="edge">
<title>Node1&#45;&gt;Node30</title>
<path fill="none" stroke="midnightblue" d="M651.08,-369.14C631.44,-346.51 593.38,-302.65 572.72,-278.84"/>
<polygon fill="midnightblue" stroke="midnightblue" points="575.16,-276.31 565.96,-271.05 569.87,-280.9 575.16,-276.31"/>
</g>
<!-- Node31 -->
<g id="node31" class="node">
<title>Node31</title>
<g id="a_node31"><a xlink:href="JUTTexture_8h.html" target="_top" xlink:title=" ">
<polygon fill="white" stroke="black" points="729.04,-252 729.04,-271 878.04,-271 878.04,-252 729.04,-252"/>
<text text-anchor="middle" x="803.54" y="-259" font-family="Helvetica,sans-Serif" font-size="10.00">JSystem/JUtility/JUTTexture.h</text>
</a>
</g>
</g>
<!-- Node1&#45;&gt;Node31 -->
<g id="edge72" class="edge">
<title>Node1&#45;&gt;Node31</title>
<path fill="none" stroke="midnightblue" d="M679.87,-369.38C706.41,-346.45 758.67,-301.28 785.98,-277.68"/>
<polygon fill="midnightblue" stroke="midnightblue" points="788.32,-280.28 793.6,-271.09 783.74,-274.98 788.32,-280.28"/>
</g>
<!-- Node3 -->
<g id="node3" class="node">
<title>Node3</title>
<g id="a_node3"><a xlink:href="GXTexture_8h.html" target="_top" xlink:title=" ">
<polygon fill="white" stroke="black" points="172.04,-56.5 172.04,-75.5 289.04,-75.5 289.04,-56.5 172.04,-56.5"/>
<text text-anchor="middle" x="230.54" y="-63.5" font-family="Helvetica,sans-Serif" font-size="10.00">dolphin/gx/GXTexture.h</text>
</a>
</g>
</g>
<!-- Node2&#45;&gt;Node3 -->
<g id="edge2" class="edge">
<title>Node2&#45;&gt;Node3</title>
<path fill="none" stroke="midnightblue" d="M142.3,-117.98C159.2,-108.21 187.12,-92.08 207.03,-80.58"/>
<polygon fill="midnightblue" stroke="midnightblue" points="208.9,-83.54 215.81,-75.51 205.4,-77.48 208.9,-83.54"/>
</g>
<!-- Node2&#45;&gt;Node4 -->
<g id="edge4" class="edge">
<title>Node2&#45;&gt;Node4</title>
<path fill="none" stroke="midnightblue" d="M129,-117.72C132.1,-102.22 140.89,-70.33 162.54,-56 221.31,-17.11 710.23,-11.79 870.72,-11.09"/>
<polygon fill="midnightblue" stroke="midnightblue" points="870.83,-14.59 880.81,-11.05 870.8,-7.59 870.83,-14.59"/>
</g>
<!-- Node3&#45;&gt;Node4 -->
<g id="edge3" class="edge">
<title>Node3&#45;&gt;Node4</title>
<path fill="none" stroke="midnightblue" d="M289.08,-57.52C293.97,-56.98 298.84,-56.46 303.54,-56 513.87,-35.39 765.34,-19.91 870.93,-13.83"/>
<polygon fill="midnightblue" stroke="midnightblue" points="871.2,-17.32 880.99,-13.25 870.8,-10.33 871.2,-17.32"/>
</g>
<!-- Node5&#45;&gt;Node4 -->
<g id="edge18" class="edge">
<title>Node5&#45;&gt;Node4</title>
<path fill="none" stroke="midnightblue" d="M393.38,-246.24C393.83,-206.93 401.29,-97.16 468.54,-56 534.85,-15.41 766.8,-10.63 870.62,-10.59"/>
<polygon fill="midnightblue" stroke="midnightblue" points="870.85,-14.09 880.85,-10.6 870.86,-7.09 870.85,-14.09"/>
</g>
<!-- Node5&#45;&gt;Node6 -->
<g id="edge6" class="edge">
<title>Node5&#45;&gt;Node6</title>
<path fill="none" stroke="midnightblue" d="M420.23,-246.4C441.43,-235.19 470.86,-219.64 491.59,-208.69"/>
<polygon fill="midnightblue" stroke="midnightblue" points="493.24,-211.77 500.44,-204.01 489.96,-205.58 493.24,-211.77"/>
</g>
<!-- Node7 -->
<g id="node7" class="node">
<title>Node7</title>
<g id="a_node7"><a xlink:href="JUtility_8h.html" target="_top" xlink:title=" ">
<polygon fill="white" stroke="black" points="232.04,-118 232.04,-137 327.04,-137 327.04,-118 232.04,-118"/>
<text text-anchor="middle" x="279.54" y="-125" font-family="Helvetica,sans-Serif" font-size="10.00">JSystem/JUtility.h</text>
</a>
</g>
</g>
<!-- Node5&#45;&gt;Node7 -->
<g id="edge8" class="edge">
<title>Node5&#45;&gt;Node7</title>
<path fill="none" stroke="midnightblue" d="M323.22,-249.04C280.4,-240.46 231.51,-227.25 218.54,-210 200.83,-186.46 232.05,-159.02 255.99,-142.74"/>
<polygon fill="midnightblue" stroke="midnightblue" points="258.21,-145.46 264.69,-137.08 254.4,-139.6 258.21,-145.46"/>
</g>
<!-- Node5&#45;&gt;Node8 -->
<g id="edge11" class="edge">
<title>Node5&#45;&gt;Node8</title>
<path fill="none" stroke="midnightblue" d="M446.18,-246.48C490.96,-234.55 554.41,-217.64 595.77,-206.63"/>
<polygon fill="midnightblue" stroke="midnightblue" points="596.76,-209.98 605.52,-204.03 594.96,-203.22 596.76,-209.98"/>
</g>
<!-- Node6&#45;&gt;Node4 -->
<g id="edge7" class="edge">
<title>Node6&#45;&gt;Node4</title>
<path fill="none" stroke="midnightblue" d="M509.89,-184.79C502.99,-175.17 492.66,-158.92 488.54,-143 478.37,-103.67 483.22,-79.23 516.54,-56 572.67,-16.86 775.24,-11.18 870.87,-10.74"/>
<polygon fill="midnightblue" stroke="midnightblue" points="870.9,-14.24 880.89,-10.71 870.88,-7.24 870.9,-14.24"/>
</g>
<!-- Node7&#45;&gt;Node3 -->
<g id="edge9" class="edge">
<title>Node7&#45;&gt;Node3</title>
<path fill="none" stroke="midnightblue" d="M272.52,-117.98C265.1,-108.96 253.21,-94.52 243.97,-83.31"/>
<polygon fill="midnightblue" stroke="midnightblue" points="246.61,-81 237.55,-75.51 241.2,-85.45 246.61,-81"/>
</g>
<!-- Node7&#45;&gt;Node4 -->
<g id="edge10" class="edge">
<title>Node7&#45;&gt;Node4</title>
<path fill="none" stroke="midnightblue" d="M284.25,-117.62C293.1,-101.97 313.84,-69.84 341.54,-56 388.21,-32.67 737.48,-17.68 870.4,-12.77"/>
<polygon fill="midnightblue" stroke="midnightblue" points="870.85,-16.26 880.71,-12.39 870.59,-9.26 870.85,-16.26"/>
</g>
<!-- Node8&#45;&gt;Node4 -->
<g id="edge17" class="edge">
<title>Node8&#45;&gt;Node4</title>
<path fill="none" stroke="midnightblue" d="M668.99,-184.91C707.21,-174.15 769.13,-155.6 789.54,-143 841.05,-111.2 887.66,-55.53 909.11,-27.76"/>
<polygon fill="midnightblue" stroke="midnightblue" points="911.9,-29.86 915.16,-19.78 906.32,-25.63 911.9,-29.86"/>
</g>
<!-- Node9 -->
<g id="node9" class="node">
<title>Node9</title>
<g id="a_node9"><a xlink:href="quat_8h.html" target="_top" xlink:title=" ">
<polygon fill="white" stroke="black" points="686.04,-118 686.04,-137 781.04,-137 781.04,-118 686.04,-118"/>
<text text-anchor="middle" x="733.54" y="-125" font-family="Helvetica,sans-Serif" font-size="10.00">dolphin/mtx/quat.h</text>
</a>
</g>
</g>
<!-- Node8&#45;&gt;Node9 -->
<g id="edge12" class="edge">
<title>Node8&#45;&gt;Node9</title>
<path fill="none" stroke="midnightblue" d="M650.49,-184.73C666.39,-173.96 693.59,-155.55 712.51,-142.74"/>
<polygon fill="midnightblue" stroke="midnightblue" points="714.48,-145.63 720.8,-137.13 710.55,-139.84 714.48,-145.63"/>
</g>
<!-- Node10 -->
<g id="node10" class="node">
<title>Node10</title>
<g id="a_node10"><a xlink:href="vec_8h.html" target="_top" xlink:title=" ">
<polygon fill="white" stroke="black" points="687.54,-56.5 687.54,-75.5 779.54,-75.5 779.54,-56.5 687.54,-56.5"/>
<text text-anchor="middle" x="733.54" y="-63.5" font-family="Helvetica,sans-Serif" font-size="10.00">dolphin/mtx/vec.h</text>
</a>
</g>
</g>
<!-- Node8&#45;&gt;Node10 -->
<g id="edge16" class="edge">
<title>Node8&#45;&gt;Node10</title>
<path fill="none" stroke="midnightblue" d="M640.19,-184.93C645.33,-169.25 657.83,-135.4 676.54,-112 686.11,-100.03 699.43,-89.29 710.8,-81.3"/>
<polygon fill="midnightblue" stroke="midnightblue" points="713.04,-84.01 719.38,-75.52 709.13,-78.2 713.04,-84.01"/>
</g>
<!-- Node9&#45;&gt;Node4 -->
<g id="edge15" class="edge">
<title>Node9&#45;&gt;Node4</title>
<path fill="none" stroke="midnightblue" d="M744.31,-117.87C761.95,-103.94 798.35,-76.06 831.54,-56 851.34,-44.03 874.75,-32.4 892.73,-23.96"/>
<polygon fill="midnightblue" stroke="midnightblue" points="894.5,-27 902.1,-19.62 891.56,-20.65 894.5,-27"/>
</g>
<!-- Node9&#45;&gt;Node10 -->
<g id="edge13" class="edge">
<title>Node9&#45;&gt;Node10</title>
<path fill="none" stroke="midnightblue" d="M733.54,-117.98C733.54,-109.58 733.54,-96.48 733.54,-85.66"/>
<polygon fill="midnightblue" stroke="midnightblue" points="737.04,-85.51 733.54,-75.51 730.04,-85.51 737.04,-85.51"/>
</g>
<!-- Node10&#45;&gt;Node4 -->
<g id="edge14" class="edge">
<title>Node10&#45;&gt;Node4</title>
<path fill="none" stroke="midnightblue" d="M763.33,-56.44C795.37,-47.24 846.47,-32.56 881.89,-22.39"/>
<polygon fill="midnightblue" stroke="midnightblue" points="883.24,-25.64 891.89,-19.52 881.31,-18.91 883.24,-25.64"/>
</g>
<!-- Node12 -->
<g id="node12" class="node">
<title>Node12</title>
<g id="a_node12"><a xlink:href="JKRCompression_8h.html" target="_top" xlink:title=" ">
<polygon fill="white" stroke="black" points="1105.04,-185 1105.04,-204 1282.04,-204 1282.04,-185 1105.04,-185"/>
<text text-anchor="middle" x="1193.54" y="-192" font-family="Helvetica,sans-Serif" font-size="10.00">JSystem/JKernel/JKRCompression.h</text>
</a>
</g>
</g>
<!-- Node11&#45;&gt;Node12 -->
<g id="edge21" class="edge">
<title>Node11&#45;&gt;Node12</title>
<path fill="none" stroke="midnightblue" d="M1229.53,-313.45C1210.61,-306.84 1188.86,-295.59 1177.54,-277 1165.57,-257.33 1174.75,-230.5 1183.36,-213.08"/>
<polygon fill="midnightblue" stroke="midnightblue" points="1186.57,-214.51 1188.2,-204.04 1180.39,-211.21 1186.57,-214.51"/>
</g>
<!-- Node13 -->
<g id="node13" class="node">
<title>Node13</title>
<g id="a_node13"><a xlink:href="JKRDecomp_8h.html" target="_top" xlink:title=" ">
<polygon fill="white" stroke="black" points="1186.54,-252 1186.54,-271 1342.54,-271 1342.54,-252 1186.54,-252"/>
<text text-anchor="middle" x="1264.54" y="-259" font-family="Helvetica,sans-Serif" font-size="10.00">JSystem/JKernel/JKRDecomp.h</text>
</a>
</g>
</g>
<!-- Node11&#45;&gt;Node13 -->
<g id="edge22" class="edge">
<title>Node11&#45;&gt;Node13</title>
<path fill="none" stroke="midnightblue" d="M1264.54,-313.48C1264.54,-305.08 1264.54,-291.98 1264.54,-281.16"/>
<polygon fill="midnightblue" stroke="midnightblue" points="1268.04,-281.01 1264.54,-271.01 1261.04,-281.01 1268.04,-281.01"/>
</g>
<!-- Node19 -->
<g id="node19" class="node">
<title>Node19</title>
<g id="a_node19"><a xlink:href="JKRDvdFile_8h.html" target="_top" xlink:title=" ">
<polygon fill="white" stroke="black" points="1361.04,-252 1361.04,-271 1514.04,-271 1514.04,-252 1361.04,-252"/>
<text text-anchor="middle" x="1437.54" y="-259" font-family="Helvetica,sans-Serif" font-size="10.00">JSystem/JKernel/JKRDvdFile.h</text>
</a>
</g>
</g>
<!-- Node11&#45;&gt;Node19 -->
<g id="edge36" class="edge">
<title>Node11&#45;&gt;Node19</title>
<path fill="none" stroke="midnightblue" d="M1289.33,-313.48C1319.13,-303.22 1369.33,-285.96 1402.94,-274.4"/>
<polygon fill="midnightblue" stroke="midnightblue" points="1404.48,-277.57 1412.8,-271.01 1402.2,-270.95 1404.48,-277.57"/>
</g>
<!-- Node21 -->
<g id="node21" class="node">
<title>Node21</title>
<g id="a_node21"><a xlink:href="JKRFileLoader_8h.html" target="_top" xlink:title=" ">
<polygon fill="white" stroke="black" points="1697.54,-185 1697.54,-204 1863.54,-204 1863.54,-185 1697.54,-185"/>
<text text-anchor="middle" x="1780.54" y="-192" font-family="Helvetica,sans-Serif" font-size="10.00">JSystem/JKernel/JKRFileLoader.h</text>
</a>
</g>
</g>
<!-- Node11&#45;&gt;Node21 -->
<g id="edge43" class="edge">
<title>Node11&#45;&gt;Node21</title>
<path fill="none" stroke="midnightblue" d="M1327.06,-313.48C1379.61,-305.75 1456.5,-293.11 1522.54,-277 1604.55,-256.99 1698.57,-224.91 1747.31,-207.57"/>
<polygon fill="midnightblue" stroke="midnightblue" points="1748.77,-210.76 1757.01,-204.1 1746.41,-204.17 1748.77,-210.76"/>
</g>
<!-- Node22 -->
<g id="node22" class="node">
<title>Node22</title>
<g id="a_node22"><a xlink:href="JKRHeap_8h.html" target="_top" xlink:title=" ">
<polygon fill="white" stroke="black" points="944.04,-185 944.04,-204 1087.04,-204 1087.04,-185 944.04,-185"/>
<text text-anchor="middle" x="1015.54" y="-192" font-family="Helvetica,sans-Serif" font-size="10.00">JSystem/JKernel/JKRHeap.h</text>
</a>
</g>
</g>
<!-- Node11&#45;&gt;Node22 -->
<g id="edge47" class="edge">
<title>Node11&#45;&gt;Node22</title>
<path fill="none" stroke="midnightblue" d="M1245.64,-313.49C1226.18,-304.64 1195.04,-290.26 1168.54,-277 1122.64,-254.03 1069.99,-225.5 1039.96,-209"/>
<polygon fill="midnightblue" stroke="midnightblue" points="1041.49,-205.85 1031.04,-204.1 1038.11,-211.98 1041.49,-205.85"/>
</g>
<!-- Node23 -->
<g id="node23" class="node">
<title>Node23</title>
<g id="a_node23"><a xlink:href="global_8h.html" target="_top" xlink:title=" ">
<polygon fill="white" stroke="black" points="1930.54,-252 1930.54,-271 1980.54,-271 1980.54,-252 1930.54,-252"/>
<text text-anchor="middle" x="1955.54" y="-259" font-family="Helvetica,sans-Serif" font-size="10.00">global.h</text>
</a>
</g>
</g>
<!-- Node11&#45;&gt;Node23 -->
<g id="edge51" class="edge">
<title>Node11&#45;&gt;Node23</title>
<path fill="none" stroke="midnightblue" d="M1341.13,-315.41C1489.93,-302.59 1812.87,-274.78 1920.12,-265.55"/>
<polygon fill="midnightblue" stroke="midnightblue" points="1920.73,-269.01 1930.39,-264.67 1920.13,-262.04 1920.73,-269.01"/>
</g>
<!-- Node13&#45;&gt;Node4 -->
<g id="edge35" class="edge">
<title>Node13&#45;&gt;Node4</title>
<path fill="none" stroke="midnightblue" d="M1186.29,-259.55C1099.43,-256.67 967.13,-246.26 934.54,-210 888.74,-159.04 933.63,-124.24 927.54,-56 926.77,-47.36 925.55,-37.82 924.41,-29.76"/>
<polygon fill="midnightblue" stroke="midnightblue" points="927.84,-28.98 922.91,-19.6 920.91,-30.01 927.84,-28.98"/>
</g>
<!-- Node13&#45;&gt;Node12 -->
<g id="edge23" class="edge">
<title>Node13&#45;&gt;Node12</title>
<path fill="none" stroke="midnightblue" d="M1254.96,-251.73C1243.57,-241.31 1224.35,-223.71 1210.44,-210.97"/>
<polygon fill="midnightblue" stroke="midnightblue" points="1212.7,-208.3 1202.96,-204.13 1207.98,-213.46 1212.7,-208.3"/>
</g>
<!-- Node14 -->
<g id="node14" class="node">
<title>Node14</title>
<g id="a_node14"><a xlink:href="JKRThread_8h.html" target="_top" xlink:title=" ">
<polygon fill="white" stroke="black" points="1375.54,-185 1375.54,-204 1525.54,-204 1525.54,-185 1375.54,-185"/>
<text text-anchor="middle" x="1450.54" y="-192" font-family="Helvetica,sans-Serif" font-size="10.00">JSystem/JKernel/JKRThread.h</text>
</a>
</g>
</g>
<!-- Node13&#45;&gt;Node14 -->
<g id="edge24" class="edge">
<title>Node13&#45;&gt;Node14</title>
<path fill="none" stroke="midnightblue" d="M1289.24,-251.87C1321.85,-240.47 1379.42,-220.35 1416.24,-207.49"/>
<polygon fill="midnightblue" stroke="midnightblue" points="1417.75,-210.67 1426.03,-204.06 1415.44,-204.06 1417.75,-210.67"/>
</g>
<!-- Node14&#45;&gt;Node4 -->
<g id="edge34" class="edge">
<title>Node14&#45;&gt;Node4</title>
<path fill="none" stroke="midnightblue" d="M1438.72,-184.94C1400.61,-157.49 1280.82,-72.49 1236.54,-56 1147.53,-22.85 1036,-13.93 972.35,-11.65"/>
<polygon fill="midnightblue" stroke="midnightblue" points="972.28,-8.14 962.17,-11.32 972.06,-15.14 972.28,-8.14"/>
</g>
<!-- Node15 -->
<g id="node15" class="node">
<title>Node15</title>
<g id="a_node15"><a xlink:href="JKRDisposer_8h.html" target="_top" xlink:title=" ">
<polygon fill="white" stroke="black" points="1392.54,-118 1392.54,-137 1550.54,-137 1550.54,-118 1392.54,-118"/>
<text text-anchor="middle" x="1471.54" y="-125" font-family="Helvetica,sans-Serif" font-size="10.00">JSystem/JKernel/JKRDisposer.h</text>
</a>
</g>
</g>
<!-- Node14&#45;&gt;Node15 -->
<g id="edge25" class="edge">
<title>Node14&#45;&gt;Node15</title>
<path fill="none" stroke="midnightblue" d="M1453.37,-184.73C1456.49,-175.09 1461.59,-159.3 1465.59,-146.91"/>
<polygon fill="midnightblue" stroke="midnightblue" points="1469.01,-147.72 1468.75,-137.13 1462.35,-145.57 1469.01,-147.72"/>
</g>
<!-- Node14&#45;&gt;Node16 -->
<g id="edge29" class="edge">
<title>Node14&#45;&gt;Node16</title>
<path fill="none" stroke="midnightblue" d="M1494.82,-184.96C1518.34,-177.92 1545.28,-165.32 1559.54,-143 1570.52,-125.81 1566.45,-101.75 1561.49,-85.34"/>
<polygon fill="midnightblue" stroke="midnightblue" points="1564.78,-84.14 1558.24,-75.8 1558.15,-86.4 1564.78,-84.14"/>
</g>
<!-- Node17 -->
<g id="node17" class="node">
<title>Node17</title>
<g id="a_node17"><a xlink:href="OS_8h.html" target="_top" xlink:title=" ">
<polygon fill="white" stroke="black" points="1138.54,-118 1138.54,-137 1224.54,-137 1224.54,-118 1138.54,-118"/>
<text text-anchor="middle" x="1181.54" y="-125" font-family="Helvetica,sans-Serif" font-size="10.00">dolphin/os/OS.h</text>
</a>
</g>
</g>
<!-- Node14&#45;&gt;Node17 -->
<g id="edge30" class="edge">
<title>Node14&#45;&gt;Node17</title>
<path fill="none" stroke="midnightblue" d="M1415.1,-184.94C1366.71,-173.24 1279.95,-152.28 1226.88,-139.46"/>
<polygon fill="midnightblue" stroke="midnightblue" points="1227.6,-136.03 1217.06,-137.08 1225.96,-142.83 1227.6,-136.03"/>
</g>
<!-- Node15&#45;&gt;Node4 -->
<g id="edge28" class="edge">
<title>Node15&#45;&gt;Node4</title>
<path fill="none" stroke="midnightblue" d="M1463.33,-117.66C1448.25,-102.07 1414.38,-70.04 1378.54,-56 1305.61,-27.43 1075.38,-16.21 972.3,-12.53"/>
<polygon fill="midnightblue" stroke="midnightblue" points="972.26,-9.03 962.14,-12.18 972.02,-16.02 972.26,-9.03"/>
</g>
<!-- Node15&#45;&gt;Node16 -->
<g id="edge26" class="edge">
<title>Node15&#45;&gt;Node16</title>
<path fill="none" stroke="midnightblue" d="M1483.43,-117.98C1496.74,-108.43 1518.54,-92.81 1534.5,-81.37"/>
<polygon fill="midnightblue" stroke="midnightblue" points="1536.58,-84.18 1542.67,-75.51 1532.5,-78.49 1536.58,-84.18"/>
</g>
<!-- Node16&#45;&gt;Node4 -->
<g id="edge27" class="edge">
<title>Node16&#45;&gt;Node4</title>
<path fill="none" stroke="midnightblue" d="M1482.85,-58.88C1353.53,-47.85 1084.25,-24.88 972.18,-15.32"/>
<polygon fill="midnightblue" stroke="midnightblue" points="972.41,-11.83 962.15,-14.46 971.82,-18.8 972.41,-11.83"/>
</g>
<!-- Node17&#45;&gt;Node4 -->
<g id="edge31" class="edge">
<title>Node17&#45;&gt;Node4</title>
<path fill="none" stroke="midnightblue" d="M1162,-117.82C1116.53,-97.62 1003.46,-47.39 950.18,-23.72"/>
<polygon fill="midnightblue" stroke="midnightblue" points="951.51,-20.49 940.95,-19.62 948.67,-26.88 951.51,-20.49"/>
</g>
<!-- Node18 -->
<g id="node18" class="node">
<title>Node18</title>
<g id="a_node18"><a xlink:href="dvd_8h.html" target="_top" xlink:title=" ">
<polygon fill="white" stroke="black" points="1135.54,-56.5 1135.54,-75.5 1227.54,-75.5 1227.54,-56.5 1135.54,-56.5"/>
<text text-anchor="middle" x="1181.54" y="-63.5" font-family="Helvetica,sans-Serif" font-size="10.00">dolphin/dvd/dvd.h</text>
</a>
</g>
</g>
<!-- Node17&#45;&gt;Node18 -->
<g id="edge32" class="edge">
<title>Node17&#45;&gt;Node18</title>
<path fill="none" stroke="midnightblue" d="M1181.54,-117.98C1181.54,-109.58 1181.54,-96.48 1181.54,-85.66"/>
<polygon fill="midnightblue" stroke="midnightblue" points="1185.04,-85.51 1181.54,-75.51 1178.04,-85.51 1185.04,-85.51"/>
</g>
<!-- Node18&#45;&gt;Node4 -->
<g id="edge33" class="edge">
<title>Node18&#45;&gt;Node4</title>
<path fill="none" stroke="midnightblue" d="M1140.34,-56.44C1094.76,-46.98 1021.27,-31.71 972.2,-21.52"/>
<polygon fill="midnightblue" stroke="midnightblue" points="972.62,-18.03 962.12,-19.43 971.2,-24.89 972.62,-18.03"/>
</g>
<!-- Node19&#45;&gt;Node4 -->
<g id="edge42" class="edge">
<title>Node19&#45;&gt;Node4</title>
<path fill="none" stroke="midnightblue" d="M1514.44,-257.04C1632.98,-250.9 1849.18,-236.22 1872.54,-210 1881.7,-199.71 1879.09,-191.12 1872.54,-179 1825.04,-91.17 1779.35,-87.33 1684.54,-56 1551.81,-12.14 1120.73,-9.99 972.3,-10.61"/>
<polygon fill="midnightblue" stroke="midnightblue" points="972.1,-7.11 962.11,-10.66 972.13,-14.11 972.1,-7.11"/>
</g>
<!-- Node19&#45;&gt;Node17 -->
<g id="edge41" class="edge">
<title>Node19&#45;&gt;Node17</title>
<path fill="none" stroke="midnightblue" d="M1417.46,-251.99C1396.11,-242.66 1361.63,-226.77 1333.54,-210 1313.31,-197.92 1310.88,-190.89 1290.54,-179 1265.13,-164.14 1234.62,-150.32 1212.34,-140.9"/>
<polygon fill="midnightblue" stroke="midnightblue" points="1213.62,-137.64 1203.04,-137.03 1210.92,-144.1 1213.62,-137.64"/>
</g>
<!-- Node19&#45;&gt;Node18 -->
<g id="edge40" class="edge">
<title>Node19&#45;&gt;Node18</title>
<path fill="none" stroke="midnightblue" d="M1425.12,-251.89C1410.85,-241.96 1386.82,-225.06 1366.54,-210 1348.48,-196.59 1344.33,-192.76 1326.54,-179 1281.59,-144.22 1228.76,-103.44 1200.94,-81.97"/>
<polygon fill="midnightblue" stroke="midnightblue" points="1202.88,-79.05 1192.82,-75.71 1198.6,-84.59 1202.88,-79.05"/>
</g>
<!-- Node20 -->
<g id="node20" class="node">
<title>Node20</title>
<g id="a_node20"><a xlink:href="JKRFile_8h.html" target="_top" xlink:title=" ">
<polygon fill="white" stroke="black" points="1543.54,-185 1543.54,-204 1679.54,-204 1679.54,-185 1543.54,-185"/>
<text text-anchor="middle" x="1611.54" y="-192" font-family="Helvetica,sans-Serif" font-size="10.00">JSystem/JKernel/JKRFile.h</text>
</a>
</g>
</g>
<!-- Node19&#45;&gt;Node20 -->
<g id="edge37" class="edge">
<title>Node19&#45;&gt;Node20</title>
<path fill="none" stroke="midnightblue" d="M1460.65,-251.87C1491.02,-240.52 1544.55,-220.52 1579.01,-207.65"/>
<polygon fill="midnightblue" stroke="midnightblue" points="1580.47,-210.84 1588.61,-204.06 1578.02,-204.28 1580.47,-210.84"/>
</g>
<!-- Node20&#45;&gt;Node4 -->
<g id="edge39" class="edge">
<title>Node20&#45;&gt;Node4</title>
<path fill="none" stroke="midnightblue" d="M1617.3,-184.68C1632.28,-160.53 1669,-92.7 1634.54,-56 1611.89,-31.88 1131.38,-16.7 972.23,-12.32"/>
<polygon fill="midnightblue" stroke="midnightblue" points="972.31,-8.82 962.22,-12.04 972.12,-15.82 972.31,-8.82"/>
</g>
<!-- Node20&#45;&gt;Node15 -->
<g id="edge38" class="edge">
<title>Node20&#45;&gt;Node15</title>
<path fill="none" stroke="midnightblue" d="M1592.95,-184.87C1569,-173.75 1527.14,-154.32 1499.39,-141.43"/>
<polygon fill="midnightblue" stroke="midnightblue" points="1500.75,-138.2 1490.21,-137.17 1497.8,-144.55 1500.75,-138.2"/>
</g>
<!-- Node21&#45;&gt;Node4 -->
<g id="edge46" class="edge">
<title>Node21&#45;&gt;Node4</title>
<path fill="none" stroke="midnightblue" d="M1775.94,-184.97C1761.81,-159.75 1716.2,-85.42 1654.54,-56 1593.37,-26.82 1128.2,-15.07 972.29,-11.92"/>
<polygon fill="midnightblue" stroke="midnightblue" points="972.11,-8.42 962.04,-11.72 971.97,-15.42 972.11,-8.42"/>
</g>
<!-- Node21&#45;&gt;Node15 -->
<g id="edge44" class="edge">
<title>Node21&#45;&gt;Node15</title>
<path fill="none" stroke="midnightblue" d="M1739.83,-184.94C1683.9,-173.17 1583.34,-152.02 1522.49,-139.22"/>
<polygon fill="midnightblue" stroke="midnightblue" points="1522.85,-135.72 1512.34,-137.08 1521.41,-142.57 1522.85,-135.72"/>
</g>
<!-- Node21&#45;&gt;Node16 -->
<g id="edge45" class="edge">
<title>Node21&#45;&gt;Node16</title>
<path fill="none" stroke="midnightblue" d="M1765.01,-184.81C1726.29,-163.13 1625.27,-106.59 1578.69,-80.52"/>
<polygon fill="midnightblue" stroke="midnightblue" points="1580.32,-77.42 1569.88,-75.59 1576.9,-83.53 1580.32,-77.42"/>
</g>
<!-- Node22&#45;&gt;Node4 -->
<g id="edge50" class="edge">
<title>Node22&#45;&gt;Node4</title>
<path fill="none" stroke="midnightblue" d="M1014.57,-184.75C1011.69,-161.87 1001.59,-99.1 973.54,-56 965.81,-44.12 954.06,-33.58 943.68,-25.69"/>
<polygon fill="midnightblue" stroke="midnightblue" points="945.57,-22.73 935.41,-19.72 941.47,-28.41 945.57,-22.73"/>
</g>
<!-- Node22&#45;&gt;Node15 -->
<g id="edge48" class="edge">
<title>Node22&#45;&gt;Node15</title>
<path fill="none" stroke="midnightblue" d="M1060.75,-184.93C1072.09,-182.89 1084.25,-180.78 1095.54,-179 1197.03,-163 1314.45,-147.74 1390.7,-138.27"/>
<polygon fill="midnightblue" stroke="midnightblue" points="1391.22,-141.73 1400.71,-137.03 1390.36,-134.79 1391.22,-141.73"/>
</g>
<!-- Node22&#45;&gt;Node17 -->
<g id="edge49" class="edge">
<title>Node22&#45;&gt;Node17</title>
<path fill="none" stroke="midnightblue" d="M1037.58,-184.87C1066.44,-173.57 1117.19,-153.7 1150.08,-140.82"/>
<polygon fill="midnightblue" stroke="midnightblue" points="1151.63,-143.97 1159.67,-137.06 1149.08,-137.45 1151.63,-143.97"/>
</g>
<!-- Node23&#45;&gt;Node4 -->
<g id="edge52" class="edge">
<title>Node23&#45;&gt;Node4</title>
<path fill="none" stroke="midnightblue" d="M1951.39,-251.97C1938.99,-227.25 1899.87,-154.64 1848.54,-112 1803.57,-74.65 1786.21,-70.33 1729.54,-56 1585.24,-19.5 1126.3,-12.59 972.4,-11.3"/>
<polygon fill="midnightblue" stroke="midnightblue" points="972.31,-7.8 962.29,-11.22 972.26,-14.8 972.31,-7.8"/>
</g>
<!-- Node24&#45;&gt;Node4 -->
<g id="edge59" class="edge">
<title>Node24&#45;&gt;Node4</title>
<path fill="none" stroke="midnightblue" d="M2057.19,-179.14C2046.96,-169.58 2033.98,-156.37 2024.54,-143 1999.67,-107.76 2017.69,-79.53 1981.54,-56 1938.84,-28.2 1178,-14.84 972.39,-11.72"/>
<polygon fill="midnightblue" stroke="midnightblue" points="972.23,-8.22 962.18,-11.57 972.13,-15.22 972.23,-8.22"/>
</g>
<!-- Node25 -->
<g id="node25" class="node">
<title>Node25</title>
<g id="a_node25"><a xlink:href="JSUInputStream_8h.html" target="_top" xlink:title=" ">
<polygon fill="white" stroke="black" points="2034.04,-112.5 2034.04,-142.5 2175.04,-142.5 2175.04,-112.5 2034.04,-112.5"/>
<text text-anchor="start" x="2042.04" y="-130.5" font-family="Helvetica,sans-Serif" font-size="10.00">JSystem/JSupport/JSUInput</text>
<text text-anchor="middle" x="2104.54" y="-119.5" font-family="Helvetica,sans-Serif" font-size="10.00">Stream.h</text>
</a>
</g>
</g>
<!-- Node24&#45;&gt;Node25 -->
<g id="edge55" class="edge">
<title>Node24&#45;&gt;Node25</title>
<path fill="none" stroke="midnightblue" d="M2080.27,-179.4C2084.12,-171.3 2089.07,-160.94 2093.48,-151.69"/>
<polygon fill="midnightblue" stroke="midnightblue" points="2096.68,-153.11 2097.83,-142.58 2090.36,-150.1 2096.68,-153.11"/>
</g>
<!-- Node25&#45;&gt;Node4 -->
<g id="edge58" class="edge">
<title>Node25&#45;&gt;Node4</title>
<path fill="none" stroke="midnightblue" d="M2092.77,-112.23C2077.79,-95.26 2050.14,-67.75 2019.54,-56 1921.18,-18.22 1174.96,-12.13 972.23,-11.18"/>
<polygon fill="midnightblue" stroke="midnightblue" points="972.17,-7.68 962.16,-11.13 972.14,-14.68 972.17,-7.68"/>
</g>
<!-- Node26 -->
<g id="node26" class="node">
<title>Node26</title>
<g id="a_node26"><a xlink:href="JSUIosBase_8h.html" target="_top" xlink:title=" ">
<polygon fill="white" stroke="black" points="2072.04,-56.5 2072.04,-75.5 2235.04,-75.5 2235.04,-56.5 2072.04,-56.5"/>
<text text-anchor="middle" x="2153.54" y="-63.5" font-family="Helvetica,sans-Serif" font-size="10.00">JSystem/JSupport/JSUIosBase.h</text>
</a>
</g>
</g>
<!-- Node25&#45;&gt;Node26 -->
<g id="edge56" class="edge">
<title>Node25&#45;&gt;Node26</title>
<path fill="none" stroke="midnightblue" d="M2116.15,-112.4C2123.27,-103.75 2132.42,-92.64 2139.89,-83.58"/>
<polygon fill="midnightblue" stroke="midnightblue" points="2142.75,-85.6 2146.41,-75.66 2137.35,-81.15 2142.75,-85.6"/>
</g>
<!-- Node26&#45;&gt;Node4 -->
<g id="edge57" class="edge">
<title>Node26&#45;&gt;Node4</title>
<path fill="none" stroke="midnightblue" d="M2071.86,-57.04C2067.02,-56.66 2062.22,-56.31 2057.54,-56 1638.64,-28.09 1131.6,-15.49 972.08,-12.03"/>
<polygon fill="midnightblue" stroke="midnightblue" points="972.15,-8.53 962.08,-11.82 972,-15.53 972.15,-8.53"/>
</g>
<!-- Node27&#45;&gt;Node4 -->
<g id="edge67" class="edge">
<title>Node27&#45;&gt;Node4</title>
<path fill="none" stroke="midnightblue" d="M303.97,-184.93C312.24,-175.17 325.73,-158.55 335.54,-143 358.66,-106.36 343.6,-80.2 379.54,-56 419.72,-28.94 743.82,-16.35 870.78,-12.41"/>
<polygon fill="midnightblue" stroke="midnightblue" points="871.13,-15.91 881.01,-12.1 870.91,-8.91 871.13,-15.91"/>
</g>
<!-- Node27&#45;&gt;Node7 -->
<g id="edge61" class="edge">
<title>Node27&#45;&gt;Node7</title>
<path fill="none" stroke="midnightblue" d="M294.25,-184.73C291.72,-175.09 287.59,-159.3 284.35,-146.91"/>
<polygon fill="midnightblue" stroke="midnightblue" points="287.71,-145.92 281.8,-137.13 280.94,-147.69 287.71,-145.92"/>
</g>
<!-- Node28 -->
<g id="node28" class="node">
<title>Node28</title>
<g id="a_node28"><a xlink:href="GX_8h.html" target="_top" xlink:title=" ">
<polygon fill="white" stroke="black" points="498.04,-118 498.04,-137 583.04,-137 583.04,-118 498.04,-118"/>
<text text-anchor="middle" x="540.54" y="-125" font-family="Helvetica,sans-Serif" font-size="10.00">dolphin/gx/GX.h</text>
</a>
</g>
</g>
<!-- Node27&#45;&gt;Node28 -->
<g id="edge62" class="edge">
<title>Node27&#45;&gt;Node28</title>
<path fill="none" stroke="midnightblue" d="M328.69,-184.94C372.3,-173.32 450.29,-152.54 498.51,-139.7"/>
<polygon fill="midnightblue" stroke="midnightblue" points="499.56,-143.04 508.32,-137.08 497.75,-136.28 499.56,-143.04"/>
</g>
<!-- Node28&#45;&gt;Node3 -->
<g id="edge65" class="edge">
<title>Node28&#45;&gt;Node3</title>
<path fill="none" stroke="midnightblue" d="M497.76,-118.29C442.34,-107.65 345.65,-89.09 285.03,-77.46"/>
<polygon fill="midnightblue" stroke="midnightblue" points="285.36,-73.96 274.88,-75.51 284.04,-80.83 285.36,-73.96"/>
</g>
<!-- Node28&#45;&gt;Node4 -->
<g id="edge66" class="edge">
<title>Node28&#45;&gt;Node4</title>
<path fill="none" stroke="midnightblue" d="M534.79,-117.92C525.79,-103.32 510.92,-73.5 526.54,-56 549.09,-30.74 769.22,-17.76 870.73,-13.08"/>
<polygon fill="midnightblue" stroke="midnightblue" points="870.93,-16.58 880.76,-12.63 870.61,-9.58 870.93,-16.58"/>
</g>
<!-- Node29 -->
<g id="node29" class="node">
<title>Node29</title>
<g id="a_node29"><a xlink:href="GXDisplayList_8h.html" target="_top" xlink:title=" ">
<polygon fill="white" stroke="black" points="536.04,-56.5 536.04,-75.5 669.04,-75.5 669.04,-56.5 536.04,-56.5"/>
<text text-anchor="middle" x="602.54" y="-63.5" font-family="Helvetica,sans-Serif" font-size="10.00">dolphin/gx/GXDisplayList.h</text>
</a>
</g>
</g>
<!-- Node28&#45;&gt;Node29 -->
<g id="edge63" class="edge">
<title>Node28&#45;&gt;Node29</title>
<path fill="none" stroke="midnightblue" d="M549.42,-117.98C559,-108.78 574.45,-93.96 586.23,-82.66"/>
<polygon fill="midnightblue" stroke="midnightblue" points="588.88,-84.96 593.67,-75.51 584.03,-79.91 588.88,-84.96"/>
</g>
<!-- Node29&#45;&gt;Node4 -->
<g id="edge64" class="edge">
<title>Node29&#45;&gt;Node4</title>
<path fill="none" stroke="midnightblue" d="M653.09,-56.44C712.71,-46.35 811.23,-29.67 870.9,-19.57"/>
<polygon fill="midnightblue" stroke="midnightblue" points="871.57,-23.01 880.85,-17.89 870.4,-16.11 871.57,-23.01"/>
</g>
<!-- Node30&#45;&gt;Node4 -->
<g id="edge71" class="edge">
<title>Node30&#45;&gt;Node4</title>
<path fill="none" stroke="midnightblue" d="M514.93,-251.93C491.55,-244.88 464.71,-232.27 450.54,-210 421.92,-165.03 430.88,-104.72 491.54,-56 520.57,-32.69 762.85,-18.48 870.43,-13.27"/>
<polygon fill="midnightblue" stroke="midnightblue" points="870.89,-16.75 880.71,-12.78 870.56,-9.76 870.89,-16.75"/>
</g>
<!-- Node30&#45;&gt;Node22 -->
<g id="edge69" class="edge">
<title>Node30&#45;&gt;Node22</title>
<path fill="none" stroke="midnightblue" d="M618.75,-251.94C703.12,-239.94 856.17,-218.17 945.52,-205.46"/>
<polygon fill="midnightblue" stroke="midnightblue" points="946.15,-208.91 955.55,-204.03 945.16,-201.97 946.15,-208.91"/>
</g>
<!-- Node30&#45;&gt;Node27 -->
<g id="edge70" class="edge">
<title>Node30&#45;&gt;Node27</title>
<path fill="none" stroke="midnightblue" d="M524.02,-251.94C476.99,-240.27 392.74,-219.37 341.03,-206.54"/>
<polygon fill="midnightblue" stroke="midnightblue" points="341.69,-203.09 331.14,-204.08 340,-209.89 341.69,-203.09"/>
</g>
<!-- Node31&#45;&gt;Node4 -->
<g id="edge76" class="edge">
<title>Node31&#45;&gt;Node4</title>
<path fill="none" stroke="midnightblue" d="M816.05,-251.78C828.37,-242.63 846.96,-227.2 858.54,-210 897.97,-151.43 913.88,-66.74 919.22,-29.62"/>
<polygon fill="midnightblue" stroke="midnightblue" points="922.69,-30.08 920.56,-19.7 915.75,-29.15 922.69,-30.08"/>
</g>
<!-- Node32 -->
<g id="node32" class="node">
<title>Node32</title>
<g id="a_node32"><a xlink:href="JUTPalette_8h.html" target="_top" xlink:title=" ">
<polygon fill="white" stroke="black" points="701.54,-185 701.54,-204 849.54,-204 849.54,-185 701.54,-185"/>
<text text-anchor="middle" x="775.54" y="-192" font-family="Helvetica,sans-Serif" font-size="10.00">JSystem/JUtility/JUTPalette.h</text>
</a>
</g>
</g>
<!-- Node31&#45;&gt;Node32 -->
<g id="edge73" class="edge">
<title>Node31&#45;&gt;Node32</title>
<path fill="none" stroke="midnightblue" d="M799.76,-251.73C795.56,-241.99 788.67,-225.98 783.31,-213.53"/>
<polygon fill="midnightblue" stroke="midnightblue" points="786.43,-211.93 779.26,-204.13 780,-214.7 786.43,-211.93"/>
</g>
<!-- Node32&#45;&gt;Node4 -->
<g id="edge75" class="edge">
<title>Node32&#45;&gt;Node4</title>
<path fill="none" stroke="midnightblue" d="M796.92,-184.94C815.5,-176.59 842.09,-162.33 859.54,-143 875.7,-125.1 902.13,-60.77 914.61,-29"/>
<polygon fill="midnightblue" stroke="midnightblue" points="917.9,-30.18 918.27,-19.59 911.38,-27.64 917.9,-30.18"/>
</g>
<!-- Node32&#45;&gt;Node28 -->
<g id="edge74" class="edge">
<title>Node32&#45;&gt;Node28</title>
<path fill="none" stroke="midnightblue" d="M744.33,-184.87C702.34,-173.25 627.58,-152.58 581.22,-139.75"/>
<polygon fill="midnightblue" stroke="midnightblue" points="582.07,-136.36 571.5,-137.06 580.21,-143.1 582.07,-136.36"/>
</g>
</g>
</svg>
        <g id="navigator" transform="translate(0 0)" fill="#404254">
                <rect fill="#f2f5e9" fill-opacity="0.5" stroke="#606060" stroke-width=".5" x="0" y="0" width="60" height="60"/>
                <use id="zoomplus" xlink:href="#zoomPlus" x="17" y="9" onmousedown="handleZoom(evt,'in')"/>
                <use id="zoomminus" xlink:href="#zoomMin" x="42" y="9" onmousedown="handleZoom(evt,'out')"/>
                <use id="reset" xlink:href="#resetDef" x="30" y="36" onmousedown="handleReset()"/>
                <g id="arrowUp" xlink:href="#dirArrow" transform="translate(30 24)" onmousedown="handlePan(0,-1)">
                  <use xlink:href="#rim" fill="#404040">
                        <set attributeName="fill" to="#808080" begin="arrowUp.mouseover" end="arrowUp.mouseout"/>
                  </use>
                  <path fill="none" stroke="white" stroke-width="1.5" d="M0,-3.0v7 M-2.5,-0.5L0,-3.0L2.5,-0.5"/>
                </g>
                <g id="arrowRight" xlink:href="#dirArrow" transform="rotate(90) translate(36 -43)" onmousedown="handlePan(1,0)">
                  <use xlink:href="#rim" fill="#404040">
                        <set attributeName="fill" to="#808080" begin="arrowRight.mouseover" end="arrowRight.mouseout"/>
                  </use>
                  <path fill="none" stroke="white" stroke-width="1.5" d="M0,-3.0v7 M-2.5,-0.5L0,-3.0L2.5,-0.5"/>
                </g>
                <g id="arrowDown" xlink:href="#dirArrow" transform="rotate(180) translate(-30 -48)" onmousedown="handlePan(0,1)">
                  <use xlink:href="#rim" fill="#404040">
                        <set attributeName="fill" to="#808080" begin="arrowDown.mouseover" end="arrowDown.mouseout"/>
                  </use>
                  <path fill="none" stroke="white" stroke-width="1.5" d="M0,-3.0v7 M-2.5,-0.5L0,-3.0L2.5,-0.5"/>
                </g>
                <g id="arrowLeft" xlink:href="#dirArrow" transform="rotate(270) translate(-36 17)" onmousedown="handlePan(-1,0)">
                  <use xlink:href="#rim" fill="#404040">
                        <set attributeName="fill" to="#808080" begin="arrowLeft.mouseover" end="arrowLeft.mouseout"/>
                  </use>
                  <path fill="none" stroke="white" stroke-width="1.5" d="M0,-3.0v7 M-2.5,-0.5L0,-3.0L2.5,-0.5"/>
                </g>
        </g>
        <svg viewBox="0 0 15 15" width="100%" height="30px" preserveAspectRatio="xMaxYMin meet">
         <g id="arrow_out" transform="scale(0.3 0.3)">
          <a xlink:href="J2DPane_8h__incl_org.svg" target="_base">
           <rect id="button" ry="5" rx="5" y="6" x="6" height="38" width="38"
                fill="#f2f5e9" fill-opacity="0.5" stroke="#606060" stroke-width="1.0"/>
           <path id="arrow"
             d="M 11.500037,31.436501 C 11.940474,20.09759 22.043105,11.32322 32.158766,21.979434 L 37.068811,17.246167 C 37.068811,17.246167 37.088388,32 37.088388,32 L 22.160133,31.978069 C 22.160133,31.978069 26.997745,27.140456 26.997745,27.140456 C 18.528582,18.264221 13.291696,25.230495 11.500037,31.436501 z"
             style="fill:#404040;"/>
          </a>
         </g>
        </svg>
</svg>
