<?xml version="1.0" encoding="UTF-8" standalone="no"?>
<!DOCTYPE svg PUBLIC "-//W3C//DTD SVG 1.1//EN"
 "http://www.w3.org/Graphics/SVG/1.1/DTD/svg11.dtd">
<!-- Generated by graphviz version 2.44.0 ()
 -->
<!-- Title: include/JSystem/J2DGraph/J2DPane.h Pages: 1 -->
<!--zoomable 464 -->
<svg id="main" version="1.1" xmlns="http://www.w3.org/2000/svg" xmlns:xlink="http://www.w3.org/1999/xlink" xml:space="preserve" onload="init(evt)">
<style type="text/css"><![CDATA[
.edge:hover path { stroke: red; }
.edge:hover polygon { stroke: red; fill: red; }
]]></style>
<script type="text/javascript"><![CDATA[
var edges = document.getElementsByTagName('g');
if (edges && edges.length) {
  for (var i=0;i<edges.length;i++) {
    if (edges[i].id.substr(0,4)=='edge') {
      edges[i].setAttribute('class','edge');
    }
  }
}
]]></script>
        <defs>
                <circle id="rim" cx="0" cy="0" r="7"/>
                <circle id="rim2" cx="0" cy="0" r="3.5"/>
                <g id="zoomPlus">
                        <use xlink:href="#rim" fill="#404040">
                                <set attributeName="fill" to="#808080" begin="zoomplus.mouseover" end="zoomplus.mouseout"/>
                        </use>
                        <path d="M-4,0h8M0,-4v8" fill="none" stroke="white" stroke-width="1.5" pointer-events="none"/>
                </g>
                <g id="zoomMin">
                        <use xlink:href="#rim" fill="#404040">
                                <set attributeName="fill" to="#808080" begin="zoomminus.mouseover" end="zoomminus.mouseout"/>
                        </use>
                        <path d="M-4,0h8" fill="none" stroke="white" stroke-width="1.5" pointer-events="none"/>
                </g>
                <g id="dirArrow">
                        <path fill="none" stroke="white" stroke-width="1.5" d="M0,-3.0v7 M-2.5,-0.5L0,-3.0L2.5,-0.5"/>
                </g>
               <g id="resetDef">
                       <use xlink:href="#rim2" fill="#404040">
                               <set attributeName="fill" to="#808080" begin="reset.mouseover" end="reset.mouseout"/>
                       </use>
               </g>
        </defs>

<script type="text/javascript">
var viewWidth = 2064;
var viewHeight = 464;
var sectionId = 'dynsection-0';
</script>
<script xlink:href="svgpan.js"/>
<svg id="graph" class="graph">
<g id="viewport">
<title>include/JSystem/J2DGraph/J2DPane.h</title>
<polygon fill="white" stroke="transparent" points="-4,4 -4,-460 2059.5,-460 2059.5,4 -4,4"/>
<!-- Node1 -->
<g id="node1" class="node">
<title>Node1</title>
<g id="a_node1"><a xlink:title=" ">
<polygon fill="#bfbfbf" stroke="black" points="468.5,-425.5 468.5,-455.5 603.5,-455.5 603.5,-425.5 468.5,-425.5"/>
<text text-anchor="start" x="476.5" y="-443.5" font-family="Helvetica,sans-Serif" font-size="10.00">include/JSystem/J2DGraph</text>
<text text-anchor="middle" x="536" y="-432.5" font-family="Helvetica,sans-Serif" font-size="10.00">/J2DPane.h</text>
</a>
</g>
</g>
<!-- Node2 -->
<g id="node2" class="node">
<title>Node2</title>
<g id="a_node2"><a xlink:href="J2DAnimation_8h.html" target="_top" xlink:title=" ">
<polygon fill="white" stroke="black" points="66.5,-118 66.5,-137 239.5,-137 239.5,-118 66.5,-118"/>
<text text-anchor="middle" x="153" y="-125" font-family="Helvetica,sans-Serif" font-size="10.00">JSystem/J2DGraph/J2DAnimation.h</text>
</a>
</g>
</g>
<!-- Node1&#45;&gt;Node2 -->
<g id="edge1" class="edge">
<title>Node1&#45;&gt;Node2</title>
<path fill="none" stroke="midnightblue" d="M468.47,-428.01C378.35,-410.74 230,-374.61 230,-324 230,-324 230,-324 230,-260.5 230,-223.2 229.28,-210.93 210,-179 201.26,-164.52 187.01,-151.9 174.95,-142.9"/>
<polygon fill="midnightblue" stroke="midnightblue" points="176.85,-139.95 166.67,-137.01 172.79,-145.65 176.85,-139.95"/>
</g>
<!-- Node4 -->
<g id="node4" class="node">
<title>Node4</title>
<g id="a_node4"><a xlink:href="types_8h.html" target="_top" xlink:title=" ">
<polygon fill="white" stroke="black" points="905.5,-0.5 905.5,-19.5 986.5,-19.5 986.5,-0.5 905.5,-0.5"/>
<text text-anchor="middle" x="946" y="-7.5" font-family="Helvetica,sans-Serif" font-size="10.00">dolphin/types.h</text>
</a>
</g>
</g>
<!-- Node1&#45;&gt;Node4 -->
<g id="edge79" class="edge">
<title>Node1&#45;&gt;Node4</title>
<path fill="none" stroke="midnightblue" d="M468.39,-438.96C324.29,-435.99 0,-418.78 0,-324 0,-324 0,-324 0,-126.5 0,-74.63 44.29,-73.82 93,-56 168.19,-28.49 723.58,-15.37 895.45,-11.94"/>
<polygon fill="midnightblue" stroke="midnightblue" points="895.57,-15.44 905.5,-11.74 895.43,-8.44 895.57,-15.44"/>
</g>
<!-- Node5 -->
<g id="node5" class="node">
<title>Node5</title>
<g id="a_node5"><a xlink:href="J2DGrafContext_8h.html" target="_top" xlink:title=" ">
<polygon fill="white" stroke="black" points="290,-246.5 290,-276.5 430,-276.5 430,-246.5 290,-246.5"/>
<text text-anchor="start" x="298" y="-264.5" font-family="Helvetica,sans-Serif" font-size="10.00">JSystem/J2DGraph/J2DGraf</text>
<text text-anchor="middle" x="360" y="-253.5" font-family="Helvetica,sans-Serif" font-size="10.00">Context.h</text>
</a>
</g>
</g>
<!-- Node1&#45;&gt;Node5 -->
<g id="edge5" class="edge">
<title>Node1&#45;&gt;Node5</title>
<path fill="none" stroke="midnightblue" d="M516.22,-425.33C503.18,-415.65 485.99,-402.22 472,-389 435.99,-354.97 398.74,-310.78 377.56,-284.65"/>
<polygon fill="midnightblue" stroke="midnightblue" points="380.02,-282.12 371.02,-276.52 374.57,-286.5 380.02,-282.12"/>
</g>
<!-- Node6 -->
<g id="node6" class="node">
<title>Node6</title>
<g id="a_node6"><a xlink:href="JGeometry_8h.html" target="_top" xlink:title=" ">
<polygon fill="white" stroke="black" points="88.5,-185 88.5,-204 201.5,-204 201.5,-185 88.5,-185"/>
<text text-anchor="middle" x="145" y="-192" font-family="Helvetica,sans-Serif" font-size="10.00">JSystem/JGeometry.h</text>
</a>
</g>
</g>
<!-- Node1&#45;&gt;Node6 -->
<g id="edge19" class="edge">
<title>Node1&#45;&gt;Node6</title>
<path fill="none" stroke="midnightblue" d="M468.4,-436.74C386.13,-432.05 253.53,-419.84 216,-389 161.39,-344.13 148.79,-253.32 145.87,-214.16"/>
<polygon fill="midnightblue" stroke="midnightblue" points="149.37,-213.94 145.26,-204.17 142.38,-214.37 149.37,-213.94"/>
</g>
<!-- Node8 -->
<g id="node8" class="node">
<title>Node8</title>
<g id="a_node8"><a xlink:href="mtx_8h.html" target="_top" xlink:title=" ">
<polygon fill="white" stroke="black" points="428,-185 428,-204 520,-204 520,-185 428,-185"/>
<text text-anchor="middle" x="474" y="-192" font-family="Helvetica,sans-Serif" font-size="10.00">dolphin/mtx/mtx.h</text>
</a>
</g>
</g>
<!-- Node1&#45;&gt;Node8 -->
<g id="edge78" class="edge">
<title>Node1&#45;&gt;Node8</title>
<path fill="none" stroke="midnightblue" d="M531.97,-425.38C529.12,-415.27 525.24,-401.32 522,-389 505.18,-324.94 486.68,-248.52 478.42,-214.02"/>
<polygon fill="midnightblue" stroke="midnightblue" points="481.75,-212.92 476.02,-204.01 474.94,-214.55 481.75,-212.92"/>
</g>
<!-- Node11 -->
<g id="node11" class="node">
<title>Node11</title>
<g id="a_node11"><a xlink:href="JKRArchive_8h.html" target="_top" xlink:title=" ">
<polygon fill="white" stroke="black" points="1280.5,-369.5 1280.5,-388.5 1433.5,-388.5 1433.5,-369.5 1280.5,-369.5"/>
<text text-anchor="middle" x="1357" y="-376.5" font-family="Helvetica,sans-Serif" font-size="10.00">JSystem/JKernel/JKRArchive.h</text>
</a>
</g>
</g>
<!-- Node1&#45;&gt;Node11 -->
<g id="edge20" class="edge">
<title>Node1&#45;&gt;Node11</title>
<path fill="none" stroke="midnightblue" d="M603.53,-434.61C751.85,-423.86 1105.86,-398.2 1270.3,-386.28"/>
<polygon fill="midnightblue" stroke="midnightblue" points="1270.66,-389.77 1280.38,-385.55 1270.15,-382.79 1270.66,-389.77"/>
</g>
<!-- Node16 -->
<g id="node16" class="node">
<title>Node16</title>
<g id="a_node16"><a xlink:href="JSUList_8h.html" target="_top" xlink:title=" ">
<polygon fill="white" stroke="black" points="1088.5,-56.5 1088.5,-75.5 1231.5,-75.5 1231.5,-56.5 1088.5,-56.5"/>
<text text-anchor="middle" x="1160" y="-63.5" font-family="Helvetica,sans-Serif" font-size="10.00">JSystem/JSupport/JSUList.h</text>
</a>
</g>
</g>
<!-- Node1&#45;&gt;Node16 -->
<g id="edge54" class="edge">
<title>Node1&#45;&gt;Node16</title>
<path fill="none" stroke="midnightblue" d="M575.26,-425.49C642.96,-400.52 784.89,-344.54 894,-277 992.86,-215.8 1004.54,-182.49 1097,-112 1110.76,-101.51 1126.62,-90.19 1138.98,-81.53"/>
<polygon fill="midnightblue" stroke="midnightblue" points="1141.08,-84.33 1147.28,-75.74 1137.08,-78.58 1141.08,-84.33"/>
</g>
<!-- Node24 -->
<g id="node24" class="node">
<title>Node24</title>
<g id="a_node24"><a xlink:href="JSURandomInputStream_8h.html" target="_top" xlink:title=" ">
<polygon fill="white" stroke="black" points="1816.5,-179.5 1816.5,-209.5 1971.5,-209.5 1971.5,-179.5 1816.5,-179.5"/>
<text text-anchor="start" x="1824.5" y="-197.5" font-family="Helvetica,sans-Serif" font-size="10.00">JSystem/JSupport/JSURandom</text>
<text text-anchor="middle" x="1894" y="-186.5" font-family="Helvetica,sans-Serif" font-size="10.00">InputStream.h</text>
</a>
</g>
</g>
<!-- Node1&#45;&gt;Node24 -->
<g id="edge55" class="edge">
<title>Node1&#45;&gt;Node24</title>
<path fill="none" stroke="midnightblue" d="M603.58,-438.5C754.45,-435.65 1130.01,-425.21 1442,-389 1583.68,-372.56 1631.69,-399.26 1758,-333 1811.04,-305.17 1856.2,-249.36 1878.7,-218.08"/>
<polygon fill="midnightblue" stroke="midnightblue" points="1881.79,-219.77 1884.69,-209.58 1876.07,-215.74 1881.79,-219.77"/>
</g>
<!-- Node27 -->
<g id="node27" class="node">
<title>Node27</title>
<g id="a_node27"><a xlink:href="JUTFont_8h.html" target="_top" xlink:title=" ">
<polygon fill="white" stroke="black" points="538.5,-185 538.5,-204 675.5,-204 675.5,-185 538.5,-185"/>
<text text-anchor="middle" x="607" y="-192" font-family="Helvetica,sans-Serif" font-size="10.00">JSystem/JUtility/JUTFont.h</text>
</a>
</g>
</g>
<!-- Node1&#45;&gt;Node27 -->
<g id="edge61" class="edge">
<title>Node1&#45;&gt;Node27</title>
<path fill="none" stroke="midnightblue" d="M534.18,-425.01C530.63,-391.55 525.55,-307.12 555,-246 561.88,-231.73 574.57,-219.28 585.69,-210.31"/>
<polygon fill="midnightblue" stroke="midnightblue" points="587.93,-213 593.77,-204.16 583.69,-207.43 587.93,-213"/>
</g>
<!-- Node30 -->
<g id="node30" class="node">
<title>Node30</title>
<g id="a_node30"><a xlink:href="JUTResFont_8h.html" target="_top" xlink:title=" ">
<polygon fill="white" stroke="black" points="564,-252 564,-271 718,-271 718,-252 564,-252"/>
<text text-anchor="middle" x="641" y="-259" font-family="Helvetica,sans-Serif" font-size="10.00">JSystem/JUtility/JUTResFont.h</text>
</a>
</g>
</g>
<!-- Node1&#45;&gt;Node30 -->
<g id="edge69" class="edge">
<title>Node1&#45;&gt;Node30</title>
<path fill="none" stroke="midnightblue" d="M544.42,-425.31C563.45,-393.22 609.79,-315.11 630.59,-280.05"/>
<polygon fill="midnightblue" stroke="midnightblue" points="633.64,-281.76 635.74,-271.37 627.62,-278.19 633.64,-281.76"/>
</g>
<!-- Node31 -->
<g id="node31" class="node">
<title>Node31</title>
<g id="a_node31"><a xlink:href="JUTTexture_8h.html" target="_top" xlink:title=" ">
<polygon fill="white" stroke="black" points="736.5,-252 736.5,-271 885.5,-271 885.5,-252 736.5,-252"/>
<text text-anchor="middle" x="811" y="-259" font-family="Helvetica,sans-Serif" font-size="10.00">JSystem/JUtility/JUTTexture.h</text>
</a>
</g>
</g>
<!-- Node1&#45;&gt;Node31 -->
<g id="edge73" class="edge">
<title>Node1&#45;&gt;Node31</title>
<path fill="none" stroke="midnightblue" d="M558.04,-425.31C609.51,-392.18 737.17,-310.02 788.8,-276.79"/>
<polygon fill="midnightblue" stroke="midnightblue" points="791.01,-279.53 797.52,-271.17 787.22,-273.64 791.01,-279.53"/>
</g>
<!-- Node3 -->
<g id="node3" class="node">
<title>Node3</title>
<g id="a_node3"><a xlink:href="GXTexture_8h.html" target="_top" xlink:title=" ">
<polygon fill="white" stroke="black" points="310.5,-56.5 310.5,-75.5 427.5,-75.5 427.5,-56.5 310.5,-56.5"/>
<text text-anchor="middle" x="369" y="-63.5" font-family="Helvetica,sans-Serif" font-size="10.00">dolphin/gx/GXTexture.h</text>
</a>
</g>
</g>
<!-- Node2&#45;&gt;Node3 -->
<g id="edge2" class="edge">
<title>Node2&#45;&gt;Node3</title>
<path fill="none" stroke="midnightblue" d="M183.95,-117.98C221.88,-107.53 286.28,-89.79 328.22,-78.23"/>
<polygon fill="midnightblue" stroke="midnightblue" points="329.4,-81.54 338.11,-75.51 327.54,-74.79 329.4,-81.54"/>
</g>
<!-- Node2&#45;&gt;Node4 -->
<g id="edge4" class="edge">
<title>Node2&#45;&gt;Node4</title>
<path fill="none" stroke="midnightblue" d="M159.21,-117.79C170.96,-102.12 198.14,-69.55 230,-56 290.71,-30.18 741.4,-16.28 894.94,-12.25"/>
<polygon fill="midnightblue" stroke="midnightblue" points="895.14,-15.74 905.05,-11.99 894.96,-8.75 895.14,-15.74"/>
</g>
<!-- Node3&#45;&gt;Node4 -->
<g id="edge3" class="edge">
<title>Node3&#45;&gt;Node4</title>
<path fill="none" stroke="midnightblue" d="M427.59,-57.08C430.77,-56.7 433.92,-56.34 437,-56 604.48,-37.52 803.62,-21.69 895.26,-14.75"/>
<polygon fill="midnightblue" stroke="midnightblue" points="895.65,-18.23 905.36,-13.99 895.13,-11.25 895.65,-18.23"/>
</g>
<!-- Node5&#45;&gt;Node4 -->
<g id="edge18" class="edge">
<title>Node5&#45;&gt;Node4</title>
<path fill="none" stroke="midnightblue" d="M346.93,-246.32C314.53,-209.49 236.95,-109.94 292,-56 334.77,-14.09 749.19,-10.68 895.31,-10.79"/>
<polygon fill="midnightblue" stroke="midnightblue" points="895.36,-14.29 905.36,-10.8 895.37,-7.29 895.36,-14.29"/>
</g>
<!-- Node5&#45;&gt;Node6 -->
<g id="edge6" class="edge">
<title>Node5&#45;&gt;Node6</title>
<path fill="none" stroke="midnightblue" d="M313.61,-246.48C274.57,-234.67 219.43,-218 182.97,-206.98"/>
<polygon fill="midnightblue" stroke="midnightblue" points="183.8,-203.57 173.21,-204.03 181.77,-210.27 183.8,-203.57"/>
</g>
<!-- Node7 -->
<g id="node7" class="node">
<title>Node7</title>
<g id="a_node7"><a xlink:href="TColor_8h.html" target="_top" xlink:title=" ">
<polygon fill="white" stroke="black" points="296.5,-118 296.5,-137 423.5,-137 423.5,-118 296.5,-118"/>
<text text-anchor="middle" x="360" y="-125" font-family="Helvetica,sans-Serif" font-size="10.00">JSystem/JUtility/TColor.h</text>
</a>
</g>
</g>
<!-- Node5&#45;&gt;Node7 -->
<g id="edge8" class="edge">
<title>Node5&#45;&gt;Node7</title>
<path fill="none" stroke="midnightblue" d="M360,-246.37C360,-222.5 360,-174.18 360,-147.41"/>
<polygon fill="midnightblue" stroke="midnightblue" points="363.5,-147.1 360,-137.1 356.5,-147.1 363.5,-147.1"/>
</g>
<!-- Node5&#45;&gt;Node8 -->
<g id="edge11" class="edge">
<title>Node5&#45;&gt;Node8</title>
<path fill="none" stroke="midnightblue" d="M384.74,-246.4C404.21,-235.29 431.17,-219.92 450.35,-208.98"/>
<polygon fill="midnightblue" stroke="midnightblue" points="452.13,-212 459.08,-204.01 448.66,-205.92 452.13,-212"/>
</g>
<!-- Node6&#45;&gt;Node4 -->
<g id="edge7" class="edge">
<title>Node6&#45;&gt;Node4</title>
<path fill="none" stroke="midnightblue" d="M114.78,-184.94C94.52,-177.44 69.36,-164.34 57,-143 50.1,-131.08 49.3,-123.43 57,-112 93.97,-57.1 130.44,-70.62 195,-56 328.89,-25.68 749.25,-14.81 895.36,-11.89"/>
<polygon fill="midnightblue" stroke="midnightblue" points="895.46,-15.39 905.39,-11.7 895.33,-8.39 895.46,-15.39"/>
</g>
<!-- Node7&#45;&gt;Node3 -->
<g id="edge9" class="edge">
<title>Node7&#45;&gt;Node3</title>
<path fill="none" stroke="midnightblue" d="M361.29,-117.98C362.56,-109.58 364.54,-96.48 366.18,-85.66"/>
<polygon fill="midnightblue" stroke="midnightblue" points="369.68,-85.92 367.71,-75.51 362.76,-84.87 369.68,-85.92"/>
</g>
<!-- Node7&#45;&gt;Node4 -->
<g id="edge10" class="edge">
<title>Node7&#45;&gt;Node4</title>
<path fill="none" stroke="midnightblue" d="M343.48,-117.78C319.79,-104.21 281.08,-77.36 301,-56 341.19,-12.9 749.45,-10.23 894.89,-10.66"/>
<polygon fill="midnightblue" stroke="midnightblue" points="895.29,-14.16 905.31,-10.7 895.32,-7.16 895.29,-14.16"/>
</g>
<!-- Node8&#45;&gt;Node4 -->
<g id="edge17" class="edge">
<title>Node8&#45;&gt;Node4</title>
<path fill="none" stroke="midnightblue" d="M499.98,-184.86C523.29,-176.38 557.77,-161.95 584,-143 626.82,-112.06 618.38,-80.86 665,-56 703.93,-35.24 825.29,-21.55 895.13,-15.16"/>
<polygon fill="midnightblue" stroke="midnightblue" points="895.81,-18.61 905.46,-14.24 895.19,-11.64 895.81,-18.61"/>
</g>
<!-- Node9 -->
<g id="node9" class="node">
<title>Node9</title>
<g id="a_node9"><a xlink:href="quat_8h.html" target="_top" xlink:title=" ">
<polygon fill="white" stroke="black" points="480.5,-118 480.5,-137 575.5,-137 575.5,-118 480.5,-118"/>
<text text-anchor="middle" x="528" y="-125" font-family="Helvetica,sans-Serif" font-size="10.00">dolphin/mtx/quat.h</text>
</a>
</g>
</g>
<!-- Node8&#45;&gt;Node9 -->
<g id="edge12" class="edge">
<title>Node8&#45;&gt;Node9</title>
<path fill="none" stroke="midnightblue" d="M481.28,-184.73C489.7,-174.6 503.75,-157.69 514.25,-145.06"/>
<polygon fill="midnightblue" stroke="midnightblue" points="517.13,-147.06 520.83,-137.13 511.75,-142.58 517.13,-147.06"/>
</g>
<!-- Node10 -->
<g id="node10" class="node">
<title>Node10</title>
<g id="a_node10"><a xlink:href="vec_8h.html" target="_top" xlink:title=" ">
<polygon fill="white" stroke="black" points="446,-56.5 446,-75.5 538,-75.5 538,-56.5 446,-56.5"/>
<text text-anchor="middle" x="492" y="-63.5" font-family="Helvetica,sans-Serif" font-size="10.00">dolphin/mtx/vec.h</text>
</a>
</g>
</g>
<!-- Node8&#45;&gt;Node10 -->
<g id="edge16" class="edge">
<title>Node8&#45;&gt;Node10</title>
<path fill="none" stroke="midnightblue" d="M472.26,-184.8C469.56,-169.76 465.23,-137.99 471,-112 473.12,-102.43 477.51,-92.48 481.72,-84.37"/>
<polygon fill="midnightblue" stroke="midnightblue" points="484.82,-86 486.62,-75.56 478.7,-82.6 484.82,-86"/>
</g>
<!-- Node9&#45;&gt;Node4 -->
<g id="edge15" class="edge">
<title>Node9&#45;&gt;Node4</title>
<path fill="none" stroke="midnightblue" d="M532.78,-117.75C541.74,-102.32 562.64,-70.51 590,-56 641.78,-28.54 809.75,-17.14 895.15,-13.02"/>
<polygon fill="midnightblue" stroke="midnightblue" points="895.56,-16.51 905.39,-12.54 895.24,-9.51 895.56,-16.51"/>
</g>
<!-- Node9&#45;&gt;Node10 -->
<g id="edge13" class="edge">
<title>Node9&#45;&gt;Node10</title>
<path fill="none" stroke="midnightblue" d="M522.84,-117.98C517.55,-109.23 509.16,-95.37 502.47,-84.31"/>
<polygon fill="midnightblue" stroke="midnightblue" points="505.32,-82.25 497.15,-75.51 499.33,-85.88 505.32,-82.25"/>
</g>
<!-- Node10&#45;&gt;Node4 -->
<g id="edge14" class="edge">
<title>Node10&#45;&gt;Node4</title>
<path fill="none" stroke="midnightblue" d="M538.16,-57.91C542.84,-57.24 547.51,-56.59 552,-56 675.04,-39.75 820.17,-24.07 895.27,-16.22"/>
<polygon fill="midnightblue" stroke="midnightblue" points="895.81,-19.68 905.39,-15.16 895.08,-12.72 895.81,-19.68"/>
</g>
<!-- Node12 -->
<g id="node12" class="node">
<title>Node12</title>
<g id="a_node12"><a xlink:href="JKRCompression_8h.html" target="_top" xlink:title=" ">
<polygon fill="white" stroke="black" points="1152.5,-252 1152.5,-271 1329.5,-271 1329.5,-252 1152.5,-252"/>
<text text-anchor="middle" x="1241" y="-259" font-family="Helvetica,sans-Serif" font-size="10.00">JSystem/JKernel/JKRCompression.h</text>
</a>
</g>
</g>
<!-- Node11&#45;&gt;Node12 -->
<g id="edge21" class="edge">
<title>Node11&#45;&gt;Node12</title>
<path fill="none" stroke="midnightblue" d="M1348.28,-369.32C1328.88,-350 1281.91,-303.24 1257.05,-278.48"/>
<polygon fill="midnightblue" stroke="midnightblue" points="1259.38,-275.86 1249.82,-271.28 1254.44,-280.82 1259.38,-275.86"/>
</g>
<!-- Node13 -->
<g id="node13" class="node">
<title>Node13</title>
<g id="a_node13"><a xlink:href="JKRDecomp_8h.html" target="_top" xlink:title=" ">
<polygon fill="white" stroke="black" points="1021,-313.5 1021,-332.5 1177,-332.5 1177,-313.5 1021,-313.5"/>
<text text-anchor="middle" x="1099" y="-320.5" font-family="Helvetica,sans-Serif" font-size="10.00">JSystem/JKernel/JKRDecomp.h</text>
</a>
</g>
</g>
<!-- Node11&#45;&gt;Node13 -->
<g id="edge22" class="edge">
<title>Node11&#45;&gt;Node13</title>
<path fill="none" stroke="midnightblue" d="M1316.12,-369.44C1271.02,-360 1198.39,-344.8 1149.7,-334.61"/>
<polygon fill="midnightblue" stroke="midnightblue" points="1150.19,-331.14 1139.69,-332.52 1148.76,-337.99 1150.19,-331.14"/>
</g>
<!-- Node17 -->
<g id="node17" class="node">
<title>Node17</title>
<g id="a_node17"><a xlink:href="JKRHeap_8h.html" target="_top" xlink:title=" ">
<polygon fill="white" stroke="black" points="1126.5,-185 1126.5,-204 1269.5,-204 1269.5,-185 1126.5,-185"/>
<text text-anchor="middle" x="1198" y="-192" font-family="Helvetica,sans-Serif" font-size="10.00">JSystem/JKernel/JKRHeap.h</text>
</a>
</g>
</g>
<!-- Node11&#45;&gt;Node17 -->
<g id="edge51" class="edge">
<title>Node11&#45;&gt;Node17</title>
<path fill="none" stroke="midnightblue" d="M1358.51,-369.43C1362.01,-346.53 1368.28,-283.15 1338,-246 1325.77,-230.99 1279.85,-216.24 1243.9,-206.6"/>
<polygon fill="midnightblue" stroke="midnightblue" points="1244.62,-203.17 1234.06,-204.01 1242.85,-209.94 1244.62,-203.17"/>
</g>
<!-- Node20 -->
<g id="node20" class="node">
<title>Node20</title>
<g id="a_node20"><a xlink:href="JKRDvdFile_8h.html" target="_top" xlink:title=" ">
<polygon fill="white" stroke="black" points="1597.5,-252 1597.5,-271 1750.5,-271 1750.5,-252 1597.5,-252"/>
<text text-anchor="middle" x="1674" y="-259" font-family="Helvetica,sans-Serif" font-size="10.00">JSystem/JKernel/JKRDvdFile.h</text>
</a>
</g>
</g>
<!-- Node11&#45;&gt;Node20 -->
<g id="edge40" class="edge">
<title>Node11&#45;&gt;Node20</title>
<path fill="none" stroke="midnightblue" d="M1380.57,-369.41C1436.27,-349.12 1576.21,-298.13 1640.61,-274.66"/>
<polygon fill="midnightblue" stroke="midnightblue" points="1642.08,-277.86 1650.28,-271.14 1639.68,-271.28 1642.08,-277.86"/>
</g>
<!-- Node22 -->
<g id="node22" class="node">
<title>Node22</title>
<g id="a_node22"><a xlink:href="JKRFileLoader_8h.html" target="_top" xlink:title=" ">
<polygon fill="white" stroke="black" points="1288,-185 1288,-204 1454,-204 1454,-185 1288,-185"/>
<text text-anchor="middle" x="1371" y="-192" font-family="Helvetica,sans-Serif" font-size="10.00">JSystem/JKernel/JKRFileLoader.h</text>
</a>
</g>
</g>
<!-- Node11&#45;&gt;Node22 -->
<g id="edge47" class="edge">
<title>Node11&#45;&gt;Node22</title>
<path fill="none" stroke="midnightblue" d="M1360.6,-369.22C1364.06,-360.28 1369.03,-345.94 1371,-333 1377.37,-291.06 1374.9,-241.09 1372.79,-214.45"/>
<polygon fill="midnightblue" stroke="midnightblue" points="1376.26,-213.92 1371.91,-204.26 1369.28,-214.52 1376.26,-213.92"/>
</g>
<!-- Node23 -->
<g id="node23" class="node">
<title>Node23</title>
<g id="a_node23"><a xlink:href="global_8h.html" target="_top" xlink:title=" ">
<polygon fill="white" stroke="black" points="1699,-313.5 1699,-332.5 1749,-332.5 1749,-313.5 1699,-313.5"/>
<text text-anchor="middle" x="1724" y="-320.5" font-family="Helvetica,sans-Serif" font-size="10.00">global.h</text>
</a>
</g>
</g>
<!-- Node11&#45;&gt;Node23 -->
<g id="edge52" class="edge">
<title>Node11&#45;&gt;Node23</title>
<path fill="none" stroke="midnightblue" d="M1415.15,-369.44C1492.12,-358.12 1625.44,-338.5 1688.72,-329.19"/>
<polygon fill="midnightblue" stroke="midnightblue" points="1689.23,-332.65 1698.61,-327.74 1688.21,-325.73 1689.23,-332.65"/>
</g>
<!-- Node13&#45;&gt;Node4 -->
<g id="edge39" class="edge">
<title>Node13&#45;&gt;Node4</title>
<path fill="none" stroke="midnightblue" d="M1037.29,-313.5C1014.57,-307.18 990.8,-296.17 976,-277 915.71,-198.9 969.36,-153.61 955,-56 953.71,-47.22 951.84,-37.56 950.14,-29.45"/>
<polygon fill="midnightblue" stroke="midnightblue" points="953.53,-28.61 947.99,-19.58 946.69,-30.1 953.53,-28.61"/>
</g>
<!-- Node13&#45;&gt;Node12 -->
<g id="edge23" class="edge">
<title>Node13&#45;&gt;Node12</title>
<path fill="none" stroke="midnightblue" d="M1119.35,-313.48C1143.39,-303.4 1183.6,-286.55 1211.16,-275"/>
<polygon fill="midnightblue" stroke="midnightblue" points="1212.82,-278.1 1220.69,-271.01 1210.12,-271.65 1212.82,-278.1"/>
</g>
<!-- Node14 -->
<g id="node14" class="node">
<title>Node14</title>
<g id="a_node14"><a xlink:href="JKRThread_8h.html" target="_top" xlink:title=" ">
<polygon fill="white" stroke="black" points="985,-252 985,-271 1135,-271 1135,-252 985,-252"/>
<text text-anchor="middle" x="1060" y="-259" font-family="Helvetica,sans-Serif" font-size="10.00">JSystem/JKernel/JKRThread.h</text>
</a>
</g>
</g>
<!-- Node13&#45;&gt;Node14 -->
<g id="edge24" class="edge">
<title>Node13&#45;&gt;Node14</title>
<path fill="none" stroke="midnightblue" d="M1093.41,-313.48C1087.62,-304.64 1078.41,-290.59 1071.13,-279.48"/>
<polygon fill="midnightblue" stroke="midnightblue" points="1073.99,-277.45 1065.58,-271.01 1068.13,-281.29 1073.99,-277.45"/>
</g>
<!-- Node14&#45;&gt;Node4 -->
<g id="edge38" class="edge">
<title>Node14&#45;&gt;Node4</title>
<path fill="none" stroke="midnightblue" d="M1059.08,-251.59C1055.64,-221.67 1041.44,-122.9 998,-56 990.28,-44.11 978.53,-33.57 968.16,-25.68"/>
<polygon fill="midnightblue" stroke="midnightblue" points="970.04,-22.72 959.88,-19.71 965.94,-28.4 970.04,-22.72"/>
</g>
<!-- Node15 -->
<g id="node15" class="node">
<title>Node15</title>
<g id="a_node15"><a xlink:href="JKRDisposer_8h.html" target="_top" xlink:title=" ">
<polygon fill="white" stroke="black" points="1127,-118 1127,-137 1285,-137 1285,-118 1127,-118"/>
<text text-anchor="middle" x="1206" y="-125" font-family="Helvetica,sans-Serif" font-size="10.00">JSystem/JKernel/JKRDisposer.h</text>
</a>
</g>
</g>
<!-- Node14&#45;&gt;Node15 -->
<g id="edge25" class="edge">
<title>Node14&#45;&gt;Node15</title>
<path fill="none" stroke="midnightblue" d="M1064.31,-251.95C1072.68,-236 1092.48,-201.31 1117,-179 1134.46,-163.12 1157.76,-150.12 1176.14,-141.29"/>
<polygon fill="midnightblue" stroke="midnightblue" points="1177.66,-144.45 1185.25,-137.06 1174.71,-138.1 1177.66,-144.45"/>
</g>
<!-- Node14&#45;&gt;Node16 -->
<g id="edge36" class="edge">
<title>Node14&#45;&gt;Node16</title>
<path fill="none" stroke="midnightblue" d="M1061.96,-251.83C1067.66,-227.95 1085.87,-159.77 1118,-112 1125.14,-101.38 1134.79,-90.85 1143.04,-82.65"/>
<polygon fill="midnightblue" stroke="midnightblue" points="1145.61,-85.03 1150.39,-75.58 1140.76,-79.99 1145.61,-85.03"/>
</g>
<!-- Node14&#45;&gt;Node17 -->
<g id="edge29" class="edge">
<title>Node14&#45;&gt;Node17</title>
<path fill="none" stroke="midnightblue" d="M1078.33,-251.87C1101.94,-240.75 1143.19,-221.32 1170.55,-208.43"/>
<polygon fill="midnightblue" stroke="midnightblue" points="1172.04,-211.59 1179.6,-204.17 1169.06,-205.26 1172.04,-211.59"/>
</g>
<!-- Node18 -->
<g id="node18" class="node">
<title>Node18</title>
<g id="a_node18"><a xlink:href="OS_8h.html" target="_top" xlink:title=" ">
<polygon fill="white" stroke="black" points="1434,-118 1434,-137 1520,-137 1520,-118 1434,-118"/>
<text text-anchor="middle" x="1477" y="-125" font-family="Helvetica,sans-Serif" font-size="10.00">dolphin/os/OS.h</text>
</a>
</g>
</g>
<!-- Node14&#45;&gt;Node18 -->
<g id="edge37" class="edge">
<title>Node14&#45;&gt;Node18</title>
<path fill="none" stroke="midnightblue" d="M1106.02,-251.95C1118.03,-249.85 1130.98,-247.72 1143,-246 1213.83,-235.84 1410.95,-259.11 1463,-210 1479.86,-194.1 1481.02,-165.85 1479.58,-147.14"/>
<polygon fill="midnightblue" stroke="midnightblue" points="1483.06,-146.73 1478.5,-137.16 1476.1,-147.48 1483.06,-146.73"/>
</g>
<!-- Node15&#45;&gt;Node4 -->
<g id="edge28" class="edge">
<title>Node15&#45;&gt;Node4</title>
<path fill="none" stroke="midnightblue" d="M1215.93,-117.87C1231.06,-103.7 1256.46,-75.18 1240,-56 1209.28,-20.22 1072.72,-12.59 997,-11.15"/>
<polygon fill="midnightblue" stroke="midnightblue" points="996.79,-7.65 986.74,-10.99 996.68,-14.65 996.79,-7.65"/>
</g>
<!-- Node15&#45;&gt;Node16 -->
<g id="edge26" class="edge">
<title>Node15&#45;&gt;Node16</title>
<path fill="none" stroke="midnightblue" d="M1199.41,-117.98C1192.51,-109.05 1181.5,-94.81 1172.87,-83.64"/>
<polygon fill="midnightblue" stroke="midnightblue" points="1175.46,-81.28 1166.58,-75.51 1169.93,-85.56 1175.46,-81.28"/>
</g>
<!-- Node16&#45;&gt;Node4 -->
<g id="edge27" class="edge">
<title>Node16&#45;&gt;Node4</title>
<path fill="none" stroke="midnightblue" d="M1126.09,-56.44C1089.15,-47.12 1029.95,-32.18 989.58,-22"/>
<polygon fill="midnightblue" stroke="midnightblue" points="990.3,-18.57 979.75,-19.52 988.59,-25.36 990.3,-18.57"/>
</g>
<!-- Node17&#45;&gt;Node4 -->
<g id="edge35" class="edge">
<title>Node17&#45;&gt;Node4</title>
<path fill="none" stroke="midnightblue" d="M1181.87,-184.92C1165.12,-175.65 1138.54,-159.92 1118,-143 1076.99,-109.22 1078.64,-87.7 1036,-56 1018.14,-42.72 995.76,-31.51 977.79,-23.6"/>
<polygon fill="midnightblue" stroke="midnightblue" points="978.89,-20.27 968.32,-19.56 976.14,-26.7 978.89,-20.27"/>
</g>
<!-- Node17&#45;&gt;Node15 -->
<g id="edge30" class="edge">
<title>Node17&#45;&gt;Node15</title>
<path fill="none" stroke="midnightblue" d="M1199.08,-184.73C1200.25,-175.18 1202.17,-159.62 1203.69,-147.28"/>
<polygon fill="midnightblue" stroke="midnightblue" points="1207.19,-147.48 1204.94,-137.13 1200.24,-146.62 1207.19,-147.48"/>
</g>
<!-- Node17&#45;&gt;Node18 -->
<g id="edge31" class="edge">
<title>Node17&#45;&gt;Node18</title>
<path fill="none" stroke="midnightblue" d="M1234.76,-184.94C1285.05,-173.22 1375.3,-152.19 1430.31,-139.38"/>
<polygon fill="midnightblue" stroke="midnightblue" points="1431.21,-142.76 1440.16,-137.08 1429.62,-135.94 1431.21,-142.76"/>
</g>
<!-- Node18&#45;&gt;Node4 -->
<g id="edge32" class="edge">
<title>Node18&#45;&gt;Node4</title>
<path fill="none" stroke="midnightblue" d="M1468.17,-117.93C1451.66,-102.49 1414.27,-70.27 1376,-56 1307.63,-30.51 1095.11,-17.78 996.81,-13.13"/>
<polygon fill="midnightblue" stroke="midnightblue" points="996.68,-9.63 986.53,-12.66 996.36,-16.62 996.68,-9.63"/>
</g>
<!-- Node19 -->
<g id="node19" class="node">
<title>Node19</title>
<g id="a_node19"><a xlink:href="dvd_8h.html" target="_top" xlink:title=" ">
<polygon fill="white" stroke="black" points="1431,-56.5 1431,-75.5 1523,-75.5 1523,-56.5 1431,-56.5"/>
<text text-anchor="middle" x="1477" y="-63.5" font-family="Helvetica,sans-Serif" font-size="10.00">dolphin/dvd/dvd.h</text>
</a>
</g>
</g>
<!-- Node18&#45;&gt;Node19 -->
<g id="edge33" class="edge">
<title>Node18&#45;&gt;Node19</title>
<path fill="none" stroke="midnightblue" d="M1477,-117.98C1477,-109.58 1477,-96.48 1477,-85.66"/>
<polygon fill="midnightblue" stroke="midnightblue" points="1480.5,-85.51 1477,-75.51 1473.5,-85.51 1480.5,-85.51"/>
</g>
<!-- Node19&#45;&gt;Node4 -->
<g id="edge34" class="edge">
<title>Node19&#45;&gt;Node4</title>
<path fill="none" stroke="midnightblue" d="M1430.74,-57.92C1425.77,-57.24 1420.78,-56.58 1416,-56 1263.72,-37.49 1082.91,-21.99 996.67,-15"/>
<polygon fill="midnightblue" stroke="midnightblue" points="996.87,-11.5 986.63,-14.19 996.31,-18.48 996.87,-11.5"/>
</g>
<!-- Node20&#45;&gt;Node4 -->
<g id="edge46" class="edge">
<title>Node20&#45;&gt;Node4</title>
<path fill="none" stroke="midnightblue" d="M1680.06,-251.6C1689.69,-236.25 1706.33,-204.03 1695,-179 1660.85,-103.54 1631.37,-88.05 1555,-56 1454.8,-13.96 1124.59,-10.39 996.97,-10.64"/>
<polygon fill="midnightblue" stroke="midnightblue" points="996.69,-7.14 986.7,-10.67 996.71,-14.14 996.69,-7.14"/>
</g>
<!-- Node20&#45;&gt;Node18 -->
<g id="edge45" class="edge">
<title>Node20&#45;&gt;Node18</title>
<path fill="none" stroke="midnightblue" d="M1674.63,-251.81C1675.32,-235.31 1674.35,-199.29 1655,-179 1622.88,-145.32 1570.1,-133.59 1530.34,-129.75"/>
<polygon fill="midnightblue" stroke="midnightblue" points="1530.52,-126.25 1520.27,-128.91 1529.95,-133.23 1530.52,-126.25"/>
</g>
<!-- Node20&#45;&gt;Node19 -->
<g id="edge44" class="edge">
<title>Node20&#45;&gt;Node19</title>
<path fill="none" stroke="midnightblue" d="M1677.13,-251.92C1682.27,-236.22 1690.67,-202.33 1677,-179 1644.22,-123.07 1572.16,-92.97 1524.1,-78.47"/>
<polygon fill="midnightblue" stroke="midnightblue" points="1524.81,-75.03 1514.23,-75.61 1522.86,-81.76 1524.81,-75.03"/>
</g>
<!-- Node21 -->
<g id="node21" class="node">
<title>Node21</title>
<g id="a_node21"><a xlink:href="JKRFile_8h.html" target="_top" xlink:title=" ">
<polygon fill="white" stroke="black" points="1510,-185 1510,-204 1646,-204 1646,-185 1510,-185"/>
<text text-anchor="middle" x="1578" y="-192" font-family="Helvetica,sans-Serif" font-size="10.00">JSystem/JKernel/JKRFile.h</text>
</a>
</g>
</g>
<!-- Node20&#45;&gt;Node21 -->
<g id="edge41" class="edge">
<title>Node20&#45;&gt;Node21</title>
<path fill="none" stroke="midnightblue" d="M1661.05,-251.73C1645.15,-240.96 1617.95,-222.55 1599.03,-209.74"/>
<polygon fill="midnightblue" stroke="midnightblue" points="1600.98,-206.84 1590.74,-204.13 1597.06,-212.63 1600.98,-206.84"/>
</g>
<!-- Node21&#45;&gt;Node4 -->
<g id="edge43" class="edge">
<title>Node21&#45;&gt;Node4</title>
<path fill="none" stroke="midnightblue" d="M1578.12,-184.93C1577.93,-160.21 1573.69,-88.51 1532,-56 1490.29,-23.47 1131.72,-14.12 996.93,-11.73"/>
<polygon fill="midnightblue" stroke="midnightblue" points="996.92,-8.23 986.86,-11.56 996.8,-15.23 996.92,-8.23"/>
</g>
<!-- Node21&#45;&gt;Node15 -->
<g id="edge42" class="edge">
<title>Node21&#45;&gt;Node15</title>
<path fill="none" stroke="midnightblue" d="M1528.98,-184.94C1460.87,-173.03 1337.75,-151.52 1264.78,-138.77"/>
<polygon fill="midnightblue" stroke="midnightblue" points="1265.28,-135.31 1254.83,-137.03 1264.08,-142.2 1265.28,-135.31"/>
</g>
<!-- Node22&#45;&gt;Node4 -->
<g id="edge50" class="edge">
<title>Node22&#45;&gt;Node4</title>
<path fill="none" stroke="midnightblue" d="M1367.6,-184.98C1361.11,-169.39 1345.81,-135.68 1326,-112 1300.65,-81.71 1293.18,-71.84 1257,-56 1171.08,-18.38 1060.29,-10.99 996.79,-10.2"/>
<polygon fill="midnightblue" stroke="midnightblue" points="996.67,-6.7 986.64,-10.12 996.61,-13.7 996.67,-6.7"/>
</g>
<!-- Node22&#45;&gt;Node15 -->
<g id="edge48" class="edge">
<title>Node22&#45;&gt;Node15</title>
<path fill="none" stroke="midnightblue" d="M1349.09,-184.87C1320.41,-173.57 1269.96,-153.7 1237.27,-140.82"/>
<polygon fill="midnightblue" stroke="midnightblue" points="1238.33,-137.47 1227.74,-137.06 1235.76,-143.99 1238.33,-137.47"/>
</g>
<!-- Node22&#45;&gt;Node16 -->
<g id="edge49" class="edge">
<title>Node22&#45;&gt;Node16</title>
<path fill="none" stroke="midnightblue" d="M1365.06,-184.8C1353.34,-168.28 1325.65,-132.24 1294,-112 1269.07,-96.06 1237.89,-85.15 1211.88,-78.07"/>
<polygon fill="midnightblue" stroke="midnightblue" points="1212.75,-74.68 1202.19,-75.54 1210.98,-81.45 1212.75,-74.68"/>
</g>
<!-- Node23&#45;&gt;Node4 -->
<g id="edge53" class="edge">
<title>Node23&#45;&gt;Node4</title>
<path fill="none" stroke="midnightblue" d="M1732.11,-313.26C1749.33,-293.75 1788,-244.48 1788,-195.5 1788,-195.5 1788,-195.5 1788,-126.5 1788,-33.93 1682.59,-75.06 1592,-56 1478.59,-32.13 1128.87,-17.52 997.01,-12.74"/>
<polygon fill="midnightblue" stroke="midnightblue" points="996.91,-9.23 986.79,-12.37 996.66,-16.23 996.91,-9.23"/>
</g>
<!-- Node24&#45;&gt;Node4 -->
<g id="edge60" class="edge">
<title>Node24&#45;&gt;Node4</title>
<path fill="none" stroke="midnightblue" d="M1877.65,-179.14C1867.42,-169.58 1854.44,-156.37 1845,-143 1820.13,-107.76 1838.03,-79.71 1802,-56 1734.81,-11.77 1170.54,-10.15 996.75,-10.72"/>
<polygon fill="midnightblue" stroke="midnightblue" points="996.58,-7.22 986.59,-10.76 996.6,-14.22 996.58,-7.22"/>
</g>
<!-- Node25 -->
<g id="node25" class="node">
<title>Node25</title>
<g id="a_node25"><a xlink:href="JSUInputStream_8h.html" target="_top" xlink:title=" ">
<polygon fill="white" stroke="black" points="1854.5,-112.5 1854.5,-142.5 1995.5,-142.5 1995.5,-112.5 1854.5,-112.5"/>
<text text-anchor="start" x="1862.5" y="-130.5" font-family="Helvetica,sans-Serif" font-size="10.00">JSystem/JSupport/JSUInput</text>
<text text-anchor="middle" x="1925" y="-119.5" font-family="Helvetica,sans-Serif" font-size="10.00">Stream.h</text>
</a>
</g>
</g>
<!-- Node24&#45;&gt;Node25 -->
<g id="edge56" class="edge">
<title>Node24&#45;&gt;Node25</title>
<path fill="none" stroke="midnightblue" d="M1900.73,-179.4C1904.59,-171.3 1909.53,-160.94 1913.94,-151.69"/>
<polygon fill="midnightblue" stroke="midnightblue" points="1917.14,-153.11 1918.29,-142.58 1910.82,-150.1 1917.14,-153.11"/>
</g>
<!-- Node25&#45;&gt;Node4 -->
<g id="edge59" class="edge">
<title>Node25&#45;&gt;Node4</title>
<path fill="none" stroke="midnightblue" d="M1913.21,-112.28C1898.21,-95.36 1870.55,-67.9 1840,-56 1761.47,-25.42 1174.09,-14.35 996.63,-11.69"/>
<polygon fill="midnightblue" stroke="midnightblue" points="996.57,-8.19 986.52,-11.54 996.47,-15.19 996.57,-8.19"/>
</g>
<!-- Node26 -->
<g id="node26" class="node">
<title>Node26</title>
<g id="a_node26"><a xlink:href="JSUIosBase_8h.html" target="_top" xlink:title=" ">
<polygon fill="white" stroke="black" points="1892.5,-56.5 1892.5,-75.5 2055.5,-75.5 2055.5,-56.5 1892.5,-56.5"/>
<text text-anchor="middle" x="1974" y="-63.5" font-family="Helvetica,sans-Serif" font-size="10.00">JSystem/JSupport/JSUIosBase.h</text>
</a>
</g>
</g>
<!-- Node25&#45;&gt;Node26 -->
<g id="edge57" class="edge">
<title>Node25&#45;&gt;Node26</title>
<path fill="none" stroke="midnightblue" d="M1936.61,-112.4C1943.73,-103.75 1952.88,-92.64 1960.35,-83.58"/>
<polygon fill="midnightblue" stroke="midnightblue" points="1963.21,-85.6 1966.87,-75.66 1957.81,-81.15 1963.21,-85.6"/>
</g>
<!-- Node26&#45;&gt;Node4 -->
<g id="edge58" class="edge">
<title>Node26&#45;&gt;Node4</title>
<path fill="none" stroke="midnightblue" d="M1892.32,-57.09C1887.48,-56.7 1882.68,-56.33 1878,-56 1542.22,-32.17 1137.48,-17.38 996.97,-12.65"/>
<polygon fill="midnightblue" stroke="midnightblue" points="997.03,-9.15 986.92,-12.31 996.8,-16.15 997.03,-9.15"/>
</g>
<!-- Node27&#45;&gt;Node4 -->
<g id="edge68" class="edge">
<title>Node27&#45;&gt;Node4</title>
<path fill="none" stroke="midnightblue" d="M609.34,-184.98C616.55,-160.42 640.93,-89.11 689,-56 721.71,-33.47 830.21,-20.69 895.31,-14.87"/>
<polygon fill="midnightblue" stroke="midnightblue" points="895.71,-18.35 905.37,-14 895.1,-11.38 895.71,-18.35"/>
</g>
<!-- Node27&#45;&gt;Node7 -->
<g id="edge62" class="edge">
<title>Node27&#45;&gt;Node7</title>
<path fill="none" stroke="midnightblue" d="M574.46,-184.94C530.31,-173.32 451.36,-152.54 402.55,-139.7"/>
<polygon fill="midnightblue" stroke="midnightblue" points="403.18,-136.24 392.62,-137.08 401.4,-143.01 403.18,-136.24"/>
</g>
<!-- Node28 -->
<g id="node28" class="node">
<title>Node28</title>
<g id="a_node28"><a xlink:href="GX_8h.html" target="_top" xlink:title=" ">
<polygon fill="white" stroke="black" points="670.5,-118 670.5,-137 755.5,-137 755.5,-118 670.5,-118"/>
<text text-anchor="middle" x="713" y="-125" font-family="Helvetica,sans-Serif" font-size="10.00">dolphin/gx/GX.h</text>
</a>
</g>
</g>
<!-- Node27&#45;&gt;Node28 -->
<g id="edge63" class="edge">
<title>Node27&#45;&gt;Node28</title>
<path fill="none" stroke="midnightblue" d="M621.3,-184.73C639.02,-173.87 669.43,-155.22 690.34,-142.39"/>
<polygon fill="midnightblue" stroke="midnightblue" points="692.24,-145.34 698.93,-137.13 688.58,-139.37 692.24,-145.34"/>
</g>
<!-- Node28&#45;&gt;Node3 -->
<g id="edge66" class="edge">
<title>Node28&#45;&gt;Node3</title>
<path fill="none" stroke="midnightblue" d="M670.47,-119.14C609.56,-108.61 497.24,-89.18 428.23,-77.24"/>
<polygon fill="midnightblue" stroke="midnightblue" points="428.82,-73.79 418.37,-75.54 427.63,-80.69 428.82,-73.79"/>
</g>
<!-- Node28&#45;&gt;Node4 -->
<g id="edge67" class="edge">
<title>Node28&#45;&gt;Node4</title>
<path fill="none" stroke="midnightblue" d="M707.1,-117.57C698.26,-102.96 684.13,-73.82 699,-56 723.48,-26.65 830.33,-16.4 895.21,-12.85"/>
<polygon fill="midnightblue" stroke="midnightblue" points="895.44,-16.34 905.24,-12.33 895.08,-9.35 895.44,-16.34"/>
</g>
<!-- Node29 -->
<g id="node29" class="node">
<title>Node29</title>
<g id="a_node29"><a xlink:href="GXDisplayList_8h.html" target="_top" xlink:title=" ">
<polygon fill="white" stroke="black" points="708.5,-56.5 708.5,-75.5 841.5,-75.5 841.5,-56.5 708.5,-56.5"/>
<text text-anchor="middle" x="775" y="-63.5" font-family="Helvetica,sans-Serif" font-size="10.00">dolphin/gx/GXDisplayList.h</text>
</a>
</g>
</g>
<!-- Node28&#45;&gt;Node29 -->
<g id="edge64" class="edge">
<title>Node28&#45;&gt;Node29</title>
<path fill="none" stroke="midnightblue" d="M721.88,-117.98C731.46,-108.78 746.91,-93.96 758.69,-82.66"/>
<polygon fill="midnightblue" stroke="midnightblue" points="761.34,-84.96 766.13,-75.51 756.49,-79.91 761.34,-84.96"/>
</g>
<!-- Node29&#45;&gt;Node4 -->
<g id="edge65" class="edge">
<title>Node29&#45;&gt;Node4</title>
<path fill="none" stroke="midnightblue" d="M802.1,-56.44C830.99,-47.32 876.92,-32.81 909.11,-22.65"/>
<polygon fill="midnightblue" stroke="midnightblue" points="910.55,-25.87 919.03,-19.52 908.44,-19.19 910.55,-25.87"/>
</g>
<!-- Node30&#45;&gt;Node4 -->
<g id="edge72" class="edge">
<title>Node30&#45;&gt;Node4</title>
<path fill="none" stroke="midnightblue" d="M649.25,-251.53C663.63,-236.08 694.48,-203.71 723,-179 793.84,-117.62 884.9,-53.11 925.21,-25.22"/>
<polygon fill="midnightblue" stroke="midnightblue" points="927.21,-28.1 933.46,-19.54 923.24,-22.33 927.21,-28.1"/>
</g>
<!-- Node30&#45;&gt;Node17 -->
<g id="edge70" class="edge">
<title>Node30&#45;&gt;Node17</title>
<path fill="none" stroke="midnightblue" d="M688.69,-251.93C701.13,-249.84 714.55,-247.72 727,-246 863.18,-227.24 1022.34,-211.45 1116.4,-202.74"/>
<polygon fill="midnightblue" stroke="midnightblue" points="1116.78,-206.22 1126.42,-201.82 1116.14,-199.25 1116.78,-206.22"/>
</g>
<!-- Node30&#45;&gt;Node27 -->
<g id="edge71" class="edge">
<title>Node30&#45;&gt;Node27</title>
<path fill="none" stroke="midnightblue" d="M636.41,-251.73C631.27,-241.89 622.78,-225.66 616.24,-213.16"/>
<polygon fill="midnightblue" stroke="midnightblue" points="619.25,-211.37 611.51,-204.13 613.05,-214.61 619.25,-211.37"/>
</g>
<!-- Node31&#45;&gt;Node4 -->
<g id="edge77" class="edge">
<title>Node31&#45;&gt;Node4</title>
<path fill="none" stroke="midnightblue" d="M832.28,-251.86C849.97,-243.63 874.5,-229.57 889,-210 930.68,-153.73 941.93,-67.84 944.93,-30.01"/>
<polygon fill="midnightblue" stroke="midnightblue" points="948.43,-30.12 945.62,-19.9 941.45,-29.64 948.43,-30.12"/>
</g>
<!-- Node32 -->
<g id="node32" class="node">
<title>Node32</title>
<g id="a_node32"><a xlink:href="JUTPalette_8h.html" target="_top" xlink:title=" ">
<polygon fill="white" stroke="black" points="732,-185 732,-204 880,-204 880,-185 732,-185"/>
<text text-anchor="middle" x="806" y="-192" font-family="Helvetica,sans-Serif" font-size="10.00">JSystem/JUtility/JUTPalette.h</text>
</a>
</g>
</g>
<!-- Node31&#45;&gt;Node32 -->
<g id="edge74" class="edge">
<title>Node31&#45;&gt;Node32</title>
<path fill="none" stroke="midnightblue" d="M810.33,-251.73C809.59,-242.18 808.39,-226.62 807.44,-214.28"/>
<polygon fill="midnightblue" stroke="midnightblue" points="810.92,-213.83 806.66,-204.13 803.94,-214.37 810.92,-213.83"/>
</g>
<!-- Node32&#45;&gt;Node4 -->
<g id="edge76" class="edge">
<title>Node32&#45;&gt;Node4</title>
<path fill="none" stroke="midnightblue" d="M812.75,-184.7C834.7,-156.09 904.26,-65.41 933.19,-27.7"/>
<polygon fill="midnightblue" stroke="midnightblue" points="936.01,-29.78 939.32,-19.71 930.45,-25.52 936.01,-29.78"/>
</g>
<!-- Node32&#45;&gt;Node28 -->
<g id="edge75" class="edge">
<title>Node32&#45;&gt;Node28</title>
<path fill="none" stroke="midnightblue" d="M793.46,-184.73C778.12,-174.01 751.94,-155.72 733.62,-142.91"/>
<polygon fill="midnightblue" stroke="midnightblue" points="735.55,-139.99 725.34,-137.13 731.54,-145.72 735.55,-139.99"/>
</g>
</g>
</svg>
        <g id="navigator" transform="translate(0 0)" fill="#404254">
                <rect fill="#f2f5e9" fill-opacity="0.5" stroke="#606060" stroke-width=".5" x="0" y="0" width="60" height="60"/>
                <use id="zoomplus" xlink:href="#zoomPlus" x="17" y="9" onmousedown="handleZoom(evt,'in')"/>
                <use id="zoomminus" xlink:href="#zoomMin" x="42" y="9" onmousedown="handleZoom(evt,'out')"/>
                <use id="reset" xlink:href="#resetDef" x="30" y="36" onmousedown="handleReset()"/>
                <g id="arrowUp" xlink:href="#dirArrow" transform="translate(30 24)" onmousedown="handlePan(0,-1)">
                  <use xlink:href="#rim" fill="#404040">
                        <set attributeName="fill" to="#808080" begin="arrowUp.mouseover" end="arrowUp.mouseout"/>
                  </use>
                  <path fill="none" stroke="white" stroke-width="1.5" d="M0,-3.0v7 M-2.5,-0.5L0,-3.0L2.5,-0.5"/>
                </g>
                <g id="arrowRight" xlink:href="#dirArrow" transform="rotate(90) translate(36 -43)" onmousedown="handlePan(1,0)">
                  <use xlink:href="#rim" fill="#404040">
                        <set attributeName="fill" to="#808080" begin="arrowRight.mouseover" end="arrowRight.mouseout"/>
                  </use>
                  <path fill="none" stroke="white" stroke-width="1.5" d="M0,-3.0v7 M-2.5,-0.5L0,-3.0L2.5,-0.5"/>
                </g>
                <g id="arrowDown" xlink:href="#dirArrow" transform="rotate(180) translate(-30 -48)" onmousedown="handlePan(0,1)">
                  <use xlink:href="#rim" fill="#404040">
                        <set attributeName="fill" to="#808080" begin="arrowDown.mouseover" end="arrowDown.mouseout"/>
                  </use>
                  <path fill="none" stroke="white" stroke-width="1.5" d="M0,-3.0v7 M-2.5,-0.5L0,-3.0L2.5,-0.5"/>
                </g>
                <g id="arrowLeft" xlink:href="#dirArrow" transform="rotate(270) translate(-36 17)" onmousedown="handlePan(-1,0)">
                  <use xlink:href="#rim" fill="#404040">
                        <set attributeName="fill" to="#808080" begin="arrowLeft.mouseover" end="arrowLeft.mouseout"/>
                  </use>
                  <path fill="none" stroke="white" stroke-width="1.5" d="M0,-3.0v7 M-2.5,-0.5L0,-3.0L2.5,-0.5"/>
                </g>
        </g>
        <svg viewBox="0 0 15 15" width="100%" height="30px" preserveAspectRatio="xMaxYMin meet">
         <g id="arrow_out" transform="scale(0.3 0.3)">
          <a xlink:href="J2DPane_8h__incl_org.svg" target="_base">
           <rect id="button" ry="5" rx="5" y="6" x="6" height="38" width="38"
                fill="#f2f5e9" fill-opacity="0.5" stroke="#606060" stroke-width="1.0"/>
           <path id="arrow"
             d="M 11.500037,31.436501 C 11.940474,20.09759 22.043105,11.32322 32.158766,21.979434 L 37.068811,17.246167 C 37.068811,17.246167 37.088388,32 37.088388,32 L 22.160133,31.978069 C 22.160133,31.978069 26.997745,27.140456 26.997745,27.140456 C 18.528582,18.264221 13.291696,25.230495 11.500037,31.436501 z"
             style="fill:#404040;"/>
          </a>
         </g>
        </svg>
</svg>
