<?xml version="1.0" encoding="UTF-8" standalone="no"?>
<!DOCTYPE svg PUBLIC "-//W3C//DTD SVG 1.1//EN"
 "http://www.w3.org/Graphics/SVG/1.1/DTD/svg11.dtd">
<!-- Generated by graphviz version 2.44.0 ()
 -->
<!-- Title: include/JSystem/J2DGraph/J2DTextBox.h Pages: 1 -->
<svg width="2196pt" height="520pt"
 viewBox="0.00 0.00 2195.50 520.00" xmlns="http://www.w3.org/2000/svg" xmlns:xlink="http://www.w3.org/1999/xlink">
<g id="graph0" class="graph" transform="scale(1 1) rotate(0) translate(4 516)">
<title>include/JSystem/J2DGraph/J2DTextBox.h</title>
<polygon fill="white" stroke="transparent" points="-4,4 -4,-516 2191.5,-516 2191.5,4 -4,4"/>
<!-- Node1 -->
<g id="node1" class="node">
<title>Node1</title>
<g id="a_node1"><a xlink:title=" ">
<polygon fill="#bfbfbf" stroke="black" points="0,-481.5 0,-511.5 135,-511.5 135,-481.5 0,-481.5"/>
<text text-anchor="start" x="8" y="-499.5" font-family="Helvetica,sans-Serif" font-size="10.00">include/JSystem/J2DGraph</text>
<text text-anchor="middle" x="67.5" y="-488.5" font-family="Helvetica,sans-Serif" font-size="10.00">/J2DTextBox.h</text>
</a>
</g>
</g>
<!-- Node2 -->
<g id="node2" class="node">
<title>Node2</title>
<g id="a_node2"><a xlink:href="J2DMaterial_8h.html" target="_top" xlink:title=" ">
<polygon fill="white" stroke="black" points="547.5,-185 547.5,-204 711.5,-204 711.5,-185 547.5,-185"/>
<text text-anchor="middle" x="629.5" y="-192" font-family="Helvetica,sans-Serif" font-size="10.00">JSystem/J2DGraph/J2DMaterial.h</text>
</a>
</g>
</g>
<!-- Node1&#45;&gt;Node2 -->
<g id="edge1" class="edge">
<title>Node1&#45;&gt;Node2</title>
<path fill="none" stroke="midnightblue" d="M67.5,-481.28C67.5,-459.48 67.5,-416.49 67.5,-380 67.5,-380 67.5,-380 67.5,-322 67.5,-296.48 424.73,-231.25 569.57,-205.84"/>
<polygon fill="midnightblue" stroke="midnightblue" points="570.38,-209.26 579.63,-204.08 569.17,-202.36 570.38,-209.26"/>
</g>
<!-- Node5 -->
<g id="node5" class="node">
<title>Node5</title>
<g id="a_node5"><a xlink:href="types_8h.html" target="_top" xlink:title=" ">
<polygon fill="white" stroke="black" points="1149,-0.5 1149,-19.5 1230,-19.5 1230,-0.5 1149,-0.5"/>
<text text-anchor="middle" x="1189.5" y="-7.5" font-family="Helvetica,sans-Serif" font-size="10.00">dolphin/types.h</text>
</a>
</g>
</g>
<!-- Node1&#45;&gt;Node5 -->
<g id="edge84" class="edge">
<title>Node1&#45;&gt;Node5</title>
<path fill="none" stroke="midnightblue" d="M59.63,-481.41C48.5,-460.13 29.5,-418.21 29.5,-380 29.5,-380 29.5,-380 29.5,-126.5 29.5,-71.76 78.64,-73.53 130.5,-56 226.46,-23.57 940.77,-13.64 1138.75,-11.49"/>
<polygon fill="midnightblue" stroke="midnightblue" points="1138.92,-14.99 1148.88,-11.38 1138.84,-7.99 1138.92,-14.99"/>
</g>
<!-- Node6 -->
<g id="node6" class="node">
<title>Node6</title>
<g id="a_node6"><a xlink:href="J2DPane_8h.html" target="_top" xlink:title=" ">
<polygon fill="white" stroke="black" points="1337.5,-425.5 1337.5,-444.5 1489.5,-444.5 1489.5,-425.5 1337.5,-425.5"/>
<text text-anchor="middle" x="1413.5" y="-432.5" font-family="Helvetica,sans-Serif" font-size="10.00">JSystem/J2DGraph/J2DPane.h</text>
</a>
</g>
</g>
<!-- Node1&#45;&gt;Node6 -->
<g id="edge7" class="edge">
<title>Node1&#45;&gt;Node6</title>
<path fill="none" stroke="midnightblue" d="M135.17,-492.51C359.43,-482.6 1078.12,-450.83 1327.39,-439.81"/>
<polygon fill="midnightblue" stroke="midnightblue" points="1327.65,-443.3 1337.48,-439.36 1327.34,-436.31 1327.65,-443.3"/>
</g>
<!-- Node3 -->
<g id="node3" class="node">
<title>Node3</title>
<g id="a_node3"><a xlink:href="J2DAnimation_8h.html" target="_top" xlink:title=" ">
<polygon fill="white" stroke="black" points="1034,-118 1034,-137 1207,-137 1207,-118 1034,-118"/>
<text text-anchor="middle" x="1120.5" y="-125" font-family="Helvetica,sans-Serif" font-size="10.00">JSystem/J2DGraph/J2DAnimation.h</text>
</a>
</g>
</g>
<!-- Node2&#45;&gt;Node3 -->
<g id="edge2" class="edge">
<title>Node2&#45;&gt;Node3</title>
<path fill="none" stroke="midnightblue" d="M693.94,-184.97C784.78,-172.94 950.09,-151.06 1046.06,-138.36"/>
<polygon fill="midnightblue" stroke="midnightblue" points="1046.52,-141.82 1055.98,-137.04 1045.61,-134.88 1046.52,-141.82"/>
</g>
<!-- Node2&#45;&gt;Node5 -->
<g id="edge6" class="edge">
<title>Node2&#45;&gt;Node5</title>
<path fill="none" stroke="midnightblue" d="M636.62,-184.72C644.6,-174.77 657.83,-157.98 668.5,-143 695.31,-105.35 685.94,-79.91 725.5,-56 793.95,-14.62 1033.33,-10.31 1138.87,-10.5"/>
<polygon fill="midnightblue" stroke="midnightblue" points="1138.94,-14 1148.95,-10.53 1138.97,-7 1138.94,-14"/>
</g>
<!-- Node4 -->
<g id="node4" class="node">
<title>Node4</title>
<g id="a_node4"><a xlink:href="GXTexture_8h.html" target="_top" xlink:title=" ">
<polygon fill="white" stroke="black" points="1294,-56.5 1294,-75.5 1411,-75.5 1411,-56.5 1294,-56.5"/>
<text text-anchor="middle" x="1352.5" y="-63.5" font-family="Helvetica,sans-Serif" font-size="10.00">dolphin/gx/GXTexture.h</text>
</a>
</g>
</g>
<!-- Node3&#45;&gt;Node4 -->
<g id="edge3" class="edge">
<title>Node3&#45;&gt;Node4</title>
<path fill="none" stroke="midnightblue" d="M1153.74,-117.98C1194.74,-107.46 1264.53,-89.56 1309.55,-78.01"/>
<polygon fill="midnightblue" stroke="midnightblue" points="1310.5,-81.38 1319.32,-75.51 1308.77,-74.6 1310.5,-81.38"/>
</g>
<!-- Node3&#45;&gt;Node5 -->
<g id="edge5" class="edge">
<title>Node3&#45;&gt;Node5</title>
<path fill="none" stroke="midnightblue" d="M1120.92,-117.6C1121.94,-103.55 1125.45,-75.79 1137.5,-56 1144.87,-43.89 1156.6,-33.33 1167.05,-25.49"/>
<polygon fill="midnightblue" stroke="midnightblue" points="1169.27,-28.21 1175.4,-19.57 1165.22,-22.5 1169.27,-28.21"/>
</g>
<!-- Node4&#45;&gt;Node5 -->
<g id="edge4" class="edge">
<title>Node4&#45;&gt;Node5</title>
<path fill="none" stroke="midnightblue" d="M1326.67,-56.44C1299.25,-47.36 1255.72,-32.94 1225.07,-22.78"/>
<polygon fill="midnightblue" stroke="midnightblue" points="1225.8,-19.34 1215.21,-19.52 1223.6,-25.98 1225.8,-19.34"/>
</g>
<!-- Node6&#45;&gt;Node3 -->
<g id="edge8" class="edge">
<title>Node6&#45;&gt;Node3</title>
<path fill="none" stroke="midnightblue" d="M1396.15,-425.48C1355.85,-404.96 1254.69,-349.08 1193.5,-277 1159.04,-236.42 1136.22,-176.77 1126.24,-146.93"/>
<polygon fill="midnightblue" stroke="midnightblue" points="1129.45,-145.49 1123.05,-137.05 1122.79,-147.64 1129.45,-145.49"/>
</g>
<!-- Node6&#45;&gt;Node5 -->
<g id="edge83" class="edge">
<title>Node6&#45;&gt;Node5</title>
<path fill="none" stroke="midnightblue" d="M1489.83,-431.08C1685.1,-422.6 2187.5,-393.98 2187.5,-324 2187.5,-324 2187.5,-324 2187.5,-126.5 2187.5,-87.3 2169.15,-74.34 2134.5,-56 2055.38,-14.12 1425.64,-10.93 1240.51,-10.91"/>
<polygon fill="midnightblue" stroke="midnightblue" points="1240.24,-7.41 1230.24,-10.91 1240.24,-14.41 1240.24,-7.41"/>
</g>
<!-- Node7 -->
<g id="node7" class="node">
<title>Node7</title>
<g id="a_node7"><a xlink:href="J2DGrafContext_8h.html" target="_top" xlink:title=" ">
<polygon fill="white" stroke="black" points="1467.5,-246.5 1467.5,-276.5 1607.5,-276.5 1607.5,-246.5 1467.5,-246.5"/>
<text text-anchor="start" x="1475.5" y="-264.5" font-family="Helvetica,sans-Serif" font-size="10.00">JSystem/J2DGraph/J2DGraf</text>
<text text-anchor="middle" x="1537.5" y="-253.5" font-family="Helvetica,sans-Serif" font-size="10.00">Context.h</text>
</a>
</g>
</g>
<!-- Node6&#45;&gt;Node7 -->
<g id="edge9" class="edge">
<title>Node6&#45;&gt;Node7</title>
<path fill="none" stroke="midnightblue" d="M1420.85,-425.17C1428.26,-416.2 1439.92,-401.83 1449.5,-389 1476.01,-353.49 1505.06,-310.96 1522.26,-285.38"/>
<polygon fill="midnightblue" stroke="midnightblue" points="1525.38,-287.01 1528.04,-276.76 1519.56,-283.12 1525.38,-287.01"/>
</g>
<!-- Node8 -->
<g id="node8" class="node">
<title>Node8</title>
<g id="a_node8"><a xlink:href="JGeometry_8h.html" target="_top" xlink:title=" ">
<polygon fill="white" stroke="black" points="1396,-185 1396,-204 1509,-204 1509,-185 1396,-185"/>
<text text-anchor="middle" x="1452.5" y="-192" font-family="Helvetica,sans-Serif" font-size="10.00">JSystem/JGeometry.h</text>
</a>
</g>
</g>
<!-- Node6&#45;&gt;Node8 -->
<g id="edge23" class="edge">
<title>Node6&#45;&gt;Node8</title>
<path fill="none" stroke="midnightblue" d="M1414.93,-425.23C1420.61,-390.53 1441.56,-262.39 1449.46,-214.09"/>
<polygon fill="midnightblue" stroke="midnightblue" points="1452.93,-214.53 1451.09,-204.1 1446.03,-213.4 1452.93,-214.53"/>
</g>
<!-- Node10 -->
<g id="node10" class="node">
<title>Node10</title>
<g id="a_node10"><a xlink:href="mtx_8h.html" target="_top" xlink:title=" ">
<polygon fill="white" stroke="black" points="1617.5,-185 1617.5,-204 1709.5,-204 1709.5,-185 1617.5,-185"/>
<text text-anchor="middle" x="1663.5" y="-192" font-family="Helvetica,sans-Serif" font-size="10.00">dolphin/mtx/mtx.h</text>
</a>
</g>
</g>
<!-- Node6&#45;&gt;Node10 -->
<g id="edge82" class="edge">
<title>Node6&#45;&gt;Node10</title>
<path fill="none" stroke="midnightblue" d="M1428.35,-425.36C1464.22,-403.93 1557.01,-345.13 1616.5,-277 1633.49,-257.54 1647.43,-231.01 1655.6,-213.58"/>
<polygon fill="midnightblue" stroke="midnightblue" points="1658.98,-214.6 1659.92,-204.05 1652.6,-211.71 1658.98,-214.6"/>
</g>
<!-- Node13 -->
<g id="node13" class="node">
<title>Node13</title>
<g id="a_node13"><a xlink:href="JKRArchive_8h.html" target="_top" xlink:title=" ">
<polygon fill="white" stroke="black" points="692,-369.5 692,-388.5 845,-388.5 845,-369.5 692,-369.5"/>
<text text-anchor="middle" x="768.5" y="-376.5" font-family="Helvetica,sans-Serif" font-size="10.00">JSystem/JKernel/JKRArchive.h</text>
</a>
</g>
</g>
<!-- Node6&#45;&gt;Node13 -->
<g id="edge24" class="edge">
<title>Node6&#45;&gt;Node13</title>
<path fill="none" stroke="midnightblue" d="M1337.3,-427.62C1216.56,-417.51 982,-397.87 855.08,-387.25"/>
<polygon fill="midnightblue" stroke="midnightblue" points="855.27,-383.75 845.01,-386.41 854.68,-390.73 855.27,-383.75"/>
</g>
<!-- Node18 -->
<g id="node18" class="node">
<title>Node18</title>
<g id="a_node18"><a xlink:href="JSUList_8h.html" target="_top" xlink:title=" ">
<polygon fill="white" stroke="black" points="294,-56.5 294,-75.5 437,-75.5 437,-56.5 294,-56.5"/>
<text text-anchor="middle" x="365.5" y="-63.5" font-family="Helvetica,sans-Serif" font-size="10.00">JSystem/JSupport/JSUList.h</text>
</a>
</g>
</g>
<!-- Node6&#45;&gt;Node18 -->
<g id="edge58" class="edge">
<title>Node6&#45;&gt;Node18</title>
<path fill="none" stroke="midnightblue" d="M1337.39,-431.42C1063.4,-421.63 143.5,-384.27 143.5,-324 143.5,-324 143.5,-324 143.5,-260.5 143.5,-223.31 140.06,-208.66 162.5,-179 203.12,-125.33 277.3,-93.98 323.85,-78.7"/>
<polygon fill="midnightblue" stroke="midnightblue" points="325.16,-81.96 333.63,-75.59 323.04,-75.29 325.16,-81.96"/>
</g>
<!-- Node26 -->
<g id="node26" class="node">
<title>Node26</title>
<g id="a_node26"><a xlink:href="JSURandomInputStream_8h.html" target="_top" xlink:title=" ">
<polygon fill="white" stroke="black" points="1776,-179.5 1776,-209.5 1931,-209.5 1931,-179.5 1776,-179.5"/>
<text text-anchor="start" x="1784" y="-197.5" font-family="Helvetica,sans-Serif" font-size="10.00">JSystem/JSupport/JSURandom</text>
<text text-anchor="middle" x="1853.5" y="-186.5" font-family="Helvetica,sans-Serif" font-size="10.00">InputStream.h</text>
</a>
</g>
</g>
<!-- Node6&#45;&gt;Node26 -->
<g id="edge59" class="edge">
<title>Node6&#45;&gt;Node26</title>
<path fill="none" stroke="midnightblue" d="M1434.29,-425.45C1454.9,-416.81 1487.27,-402.79 1514.5,-389 1630.13,-330.43 1762.21,-251.36 1821.61,-215.12"/>
<polygon fill="midnightblue" stroke="midnightblue" points="1823.8,-217.89 1830.51,-209.69 1820.15,-211.91 1823.8,-217.89"/>
</g>
<!-- Node29 -->
<g id="node29" class="node">
<title>Node29</title>
<g id="a_node29"><a xlink:href="JUTFont_8h.html" target="_top" xlink:title=" ">
<polygon fill="white" stroke="black" points="1241,-185 1241,-204 1378,-204 1378,-185 1241,-185"/>
<text text-anchor="middle" x="1309.5" y="-192" font-family="Helvetica,sans-Serif" font-size="10.00">JSystem/JUtility/JUTFont.h</text>
</a>
</g>
</g>
<!-- Node6&#45;&gt;Node29 -->
<g id="edge65" class="edge">
<title>Node6&#45;&gt;Node29</title>
<path fill="none" stroke="midnightblue" d="M1413.06,-425.46C1411.27,-397.62 1402.78,-307.7 1365.5,-246 1356.89,-231.75 1343.02,-219.2 1331.24,-210.18"/>
<polygon fill="midnightblue" stroke="midnightblue" points="1333.27,-207.33 1323.13,-204.25 1329.14,-212.98 1333.27,-207.33"/>
</g>
<!-- Node32 -->
<g id="node32" class="node">
<title>Node32</title>
<g id="a_node32"><a xlink:href="JUTResFont_8h.html" target="_top" xlink:title=" ">
<polygon fill="white" stroke="black" points="1202.5,-252 1202.5,-271 1356.5,-271 1356.5,-252 1202.5,-252"/>
<text text-anchor="middle" x="1279.5" y="-259" font-family="Helvetica,sans-Serif" font-size="10.00">JSystem/JUtility/JUTResFont.h</text>
</a>
</g>
</g>
<!-- Node6&#45;&gt;Node32 -->
<g id="edge73" class="edge">
<title>Node6&#45;&gt;Node32</title>
<path fill="none" stroke="midnightblue" d="M1406.67,-425.26C1385.43,-398.08 1320.29,-314.71 1292.4,-279.01"/>
<polygon fill="midnightblue" stroke="midnightblue" points="1295.07,-276.74 1286.16,-271.02 1289.56,-281.05 1295.07,-276.74"/>
</g>
<!-- Node33 -->
<g id="node33" class="node">
<title>Node33</title>
<g id="a_node33"><a xlink:href="JUTTexture_8h.html" target="_top" xlink:title=" ">
<polygon fill="white" stroke="black" points="1961,-252 1961,-271 2110,-271 2110,-252 1961,-252"/>
<text text-anchor="middle" x="2035.5" y="-259" font-family="Helvetica,sans-Serif" font-size="10.00">JSystem/JUtility/JUTTexture.h</text>
</a>
</g>
</g>
<!-- Node6&#45;&gt;Node33 -->
<g id="edge77" class="edge">
<title>Node6&#45;&gt;Node33</title>
<path fill="none" stroke="midnightblue" d="M1489.82,-432.69C1566.76,-429.56 1688.16,-419.64 1788.5,-389 1877.6,-361.79 1973.03,-303.51 2014.38,-276.62"/>
<polygon fill="midnightblue" stroke="midnightblue" points="2016.38,-279.5 2022.81,-271.09 2012.53,-273.65 2016.38,-279.5"/>
</g>
<!-- Node7&#45;&gt;Node5 -->
<g id="edge22" class="edge">
<title>Node7&#45;&gt;Node5</title>
<path fill="none" stroke="midnightblue" d="M1541.96,-246.22C1546.42,-229.1 1551.11,-200.07 1539.5,-179 1525.04,-152.76 1504.35,-163.5 1482.5,-143 1447.69,-110.33 1459.73,-81.71 1419.5,-56 1365.09,-21.23 1289.74,-12.27 1240.33,-10.49"/>
<polygon fill="midnightblue" stroke="midnightblue" points="1240.29,-6.99 1230.2,-10.21 1240.1,-13.99 1240.29,-6.99"/>
</g>
<!-- Node7&#45;&gt;Node8 -->
<g id="edge10" class="edge">
<title>Node7&#45;&gt;Node8</title>
<path fill="none" stroke="midnightblue" d="M1519.06,-246.4C1505.15,-235.76 1486.11,-221.2 1471.96,-210.38"/>
<polygon fill="midnightblue" stroke="midnightblue" points="1473.94,-207.49 1463.87,-204.19 1469.69,-213.05 1473.94,-207.49"/>
</g>
<!-- Node9 -->
<g id="node9" class="node">
<title>Node9</title>
<g id="a_node9"><a xlink:href="JUtility_8h.html" target="_top" xlink:title=" ">
<polygon fill="white" stroke="black" points="1340,-118 1340,-137 1435,-137 1435,-118 1340,-118"/>
<text text-anchor="middle" x="1387.5" y="-125" font-family="Helvetica,sans-Serif" font-size="10.00">JSystem/JUtility.h</text>
</a>
</g>
</g>
<!-- Node7&#45;&gt;Node9 -->
<g id="edge12" class="edge">
<title>Node7&#45;&gt;Node9</title>
<path fill="none" stroke="midnightblue" d="M1537.8,-246.33C1537.42,-228.5 1534.13,-197.94 1517.5,-179 1505.41,-165.23 1462.18,-150.09 1428.86,-140.02"/>
<polygon fill="midnightblue" stroke="midnightblue" points="1429.46,-136.54 1418.88,-137.06 1427.47,-143.26 1429.46,-136.54"/>
</g>
<!-- Node7&#45;&gt;Node10 -->
<g id="edge15" class="edge">
<title>Node7&#45;&gt;Node10</title>
<path fill="none" stroke="midnightblue" d="M1564.84,-246.4C1586.56,-235.19 1616.7,-219.64 1637.94,-208.69"/>
<polygon fill="midnightblue" stroke="midnightblue" points="1639.73,-211.7 1647.01,-204.01 1636.52,-205.48 1639.73,-211.7"/>
</g>
<!-- Node8&#45;&gt;Node5 -->
<g id="edge11" class="edge">
<title>Node8&#45;&gt;Node5</title>
<path fill="none" stroke="midnightblue" d="M1425.17,-184.93C1399.65,-176.31 1361.03,-161.63 1330.5,-143 1291.2,-119.02 1284.99,-107.59 1251.5,-76 1234.59,-60.05 1216.35,-40.64 1204.07,-27.2"/>
<polygon fill="midnightblue" stroke="midnightblue" points="1206.56,-24.74 1197.25,-19.69 1201.38,-29.45 1206.56,-24.74"/>
</g>
<!-- Node9&#45;&gt;Node4 -->
<g id="edge13" class="edge">
<title>Node9&#45;&gt;Node4</title>
<path fill="none" stroke="midnightblue" d="M1382.49,-117.98C1377.34,-109.23 1369.19,-95.37 1362.68,-84.31"/>
<polygon fill="midnightblue" stroke="midnightblue" points="1365.59,-82.35 1357.51,-75.51 1359.56,-85.9 1365.59,-82.35"/>
</g>
<!-- Node9&#45;&gt;Node5 -->
<g id="edge14" class="edge">
<title>Node9&#45;&gt;Node5</title>
<path fill="none" stroke="midnightblue" d="M1368.09,-118C1347.05,-108.55 1312.71,-92.45 1284.5,-76 1257.38,-60.18 1227.76,-39.3 1208.93,-25.52"/>
<polygon fill="midnightblue" stroke="midnightblue" points="1210.97,-22.68 1200.85,-19.56 1206.82,-28.31 1210.97,-22.68"/>
</g>
<!-- Node10&#45;&gt;Node5 -->
<g id="edge21" class="edge">
<title>Node10&#45;&gt;Node5</title>
<path fill="none" stroke="midnightblue" d="M1665.7,-184.86C1671.32,-160.57 1683.33,-91.2 1647.5,-56 1618.9,-27.9 1353.55,-16.2 1240.32,-12.46"/>
<polygon fill="midnightblue" stroke="midnightblue" points="1240.28,-8.95 1230.17,-12.13 1240.05,-15.95 1240.28,-8.95"/>
</g>
<!-- Node11 -->
<g id="node11" class="node">
<title>Node11</title>
<g id="a_node11"><a xlink:href="quat_8h.html" target="_top" xlink:title=" ">
<polygon fill="white" stroke="black" points="1730,-118 1730,-137 1825,-137 1825,-118 1730,-118"/>
<text text-anchor="middle" x="1777.5" y="-125" font-family="Helvetica,sans-Serif" font-size="10.00">dolphin/mtx/quat.h</text>
</a>
</g>
</g>
<!-- Node10&#45;&gt;Node11 -->
<g id="edge16" class="edge">
<title>Node10&#45;&gt;Node11</title>
<path fill="none" stroke="midnightblue" d="M1678.87,-184.73C1698.02,-173.82 1730.94,-155.05 1753.44,-142.22"/>
<polygon fill="midnightblue" stroke="midnightblue" points="1755.42,-145.12 1762.37,-137.13 1751.95,-139.04 1755.42,-145.12"/>
</g>
<!-- Node12 -->
<g id="node12" class="node">
<title>Node12</title>
<g id="a_node12"><a xlink:href="vec_8h.html" target="_top" xlink:title=" ">
<polygon fill="white" stroke="black" points="1695.5,-56.5 1695.5,-75.5 1787.5,-75.5 1787.5,-56.5 1695.5,-56.5"/>
<text text-anchor="middle" x="1741.5" y="-63.5" font-family="Helvetica,sans-Serif" font-size="10.00">dolphin/mtx/vec.h</text>
</a>
</g>
</g>
<!-- Node10&#45;&gt;Node12 -->
<g id="edge20" class="edge">
<title>Node10&#45;&gt;Node12</title>
<path fill="none" stroke="midnightblue" d="M1668.86,-184.81C1681.61,-164.13 1713.92,-111.73 1730.82,-84.32"/>
<polygon fill="midnightblue" stroke="midnightblue" points="1733.83,-86.1 1736.1,-75.76 1727.87,-82.43 1733.83,-86.1"/>
</g>
<!-- Node11&#45;&gt;Node5 -->
<g id="edge19" class="edge">
<title>Node11&#45;&gt;Node5</title>
<path fill="none" stroke="midnightblue" d="M1784.24,-117.92C1794.87,-103.3 1812.72,-73.46 1796.5,-56 1759.01,-15.62 1379.71,-11.17 1240.43,-10.9"/>
<polygon fill="midnightblue" stroke="midnightblue" points="1240.05,-7.4 1230.05,-10.89 1240.04,-14.4 1240.05,-7.4"/>
</g>
<!-- Node11&#45;&gt;Node12 -->
<g id="edge17" class="edge">
<title>Node11&#45;&gt;Node12</title>
<path fill="none" stroke="midnightblue" d="M1772.34,-117.98C1767.05,-109.23 1758.66,-95.37 1751.97,-84.31"/>
<polygon fill="midnightblue" stroke="midnightblue" points="1754.82,-82.25 1746.65,-75.51 1748.83,-85.88 1754.82,-82.25"/>
</g>
<!-- Node12&#45;&gt;Node5 -->
<g id="edge18" class="edge">
<title>Node12&#45;&gt;Node5</title>
<path fill="none" stroke="midnightblue" d="M1695.35,-57.8C1690.68,-57.16 1686,-56.54 1681.5,-56 1520.75,-36.61 1329.54,-21.35 1240.21,-14.67"/>
<polygon fill="midnightblue" stroke="midnightblue" points="1240.31,-11.17 1230.08,-13.92 1239.8,-18.15 1240.31,-11.17"/>
</g>
<!-- Node14 -->
<g id="node14" class="node">
<title>Node14</title>
<g id="a_node14"><a xlink:href="JKRCompression_8h.html" target="_top" xlink:title=" ">
<polygon fill="white" stroke="black" points="680,-252 680,-271 857,-271 857,-252 680,-252"/>
<text text-anchor="middle" x="768.5" y="-259" font-family="Helvetica,sans-Serif" font-size="10.00">JSystem/JKernel/JKRCompression.h</text>
</a>
</g>
</g>
<!-- Node13&#45;&gt;Node14 -->
<g id="edge25" class="edge">
<title>Node13&#45;&gt;Node14</title>
<path fill="none" stroke="midnightblue" d="M768.5,-369.32C768.5,-350.76 768.5,-306.84 768.5,-281.47"/>
<polygon fill="midnightblue" stroke="midnightblue" points="772,-281.28 768.5,-271.28 765,-281.28 772,-281.28"/>
</g>
<!-- Node15 -->
<g id="node15" class="node">
<title>Node15</title>
<g id="a_node15"><a xlink:href="JKRDecomp_8h.html" target="_top" xlink:title=" ">
<polygon fill="white" stroke="black" points="834.5,-313.5 834.5,-332.5 990.5,-332.5 990.5,-313.5 834.5,-313.5"/>
<text text-anchor="middle" x="912.5" y="-320.5" font-family="Helvetica,sans-Serif" font-size="10.00">JSystem/JKernel/JKRDecomp.h</text>
</a>
</g>
</g>
<!-- Node13&#45;&gt;Node15 -->
<g id="edge26" class="edge">
<title>Node13&#45;&gt;Node15</title>
<path fill="none" stroke="midnightblue" d="M791.32,-369.44C815.33,-360.44 853.33,-346.19 880.37,-336.05"/>
<polygon fill="midnightblue" stroke="midnightblue" points="881.66,-339.3 889.79,-332.52 879.2,-332.75 881.66,-339.3"/>
</g>
<!-- Node19 -->
<g id="node19" class="node">
<title>Node19</title>
<g id="a_node19"><a xlink:href="JKRHeap_8h.html" target="_top" xlink:title=" ">
<polygon fill="white" stroke="black" points="958,-185 958,-204 1101,-204 1101,-185 958,-185"/>
<text text-anchor="middle" x="1029.5" y="-192" font-family="Helvetica,sans-Serif" font-size="10.00">JSystem/JKernel/JKRHeap.h</text>
</a>
</g>
</g>
<!-- Node13&#45;&gt;Node19 -->
<g id="edge55" class="edge">
<title>Node13&#45;&gt;Node19</title>
<path fill="none" stroke="midnightblue" d="M845.07,-369.81C902.35,-362.46 974.86,-350.17 999.5,-333 1023.39,-316.35 1025.65,-305.04 1033.5,-277 1037.21,-263.73 1034.04,-259.77 1033.5,-246 1033.08,-235.5 1032.19,-223.81 1031.35,-214.32"/>
<polygon fill="midnightblue" stroke="midnightblue" points="1034.8,-213.7 1030.39,-204.07 1027.83,-214.35 1034.8,-213.7"/>
</g>
<!-- Node22 -->
<g id="node22" class="node">
<title>Node22</title>
<g id="a_node22"><a xlink:href="JKRDvdFile_8h.html" target="_top" xlink:title=" ">
<polygon fill="white" stroke="black" points="509,-252 509,-271 662,-271 662,-252 509,-252"/>
<text text-anchor="middle" x="585.5" y="-259" font-family="Helvetica,sans-Serif" font-size="10.00">JSystem/JKernel/JKRDvdFile.h</text>
</a>
</g>
</g>
<!-- Node13&#45;&gt;Node22 -->
<g id="edge44" class="edge">
<title>Node13&#45;&gt;Node22</title>
<path fill="none" stroke="midnightblue" d="M754.75,-369.32C723.48,-349.59 646.82,-301.2 608.33,-276.91"/>
<polygon fill="midnightblue" stroke="midnightblue" points="609.74,-273.66 599.41,-271.28 606,-279.58 609.74,-273.66"/>
</g>
<!-- Node24 -->
<g id="node24" class="node">
<title>Node24</title>
<g id="a_node24"><a xlink:href="JKRFileLoader_8h.html" target="_top" xlink:title=" ">
<polygon fill="white" stroke="black" points="171.5,-185 171.5,-204 337.5,-204 337.5,-185 171.5,-185"/>
<text text-anchor="middle" x="254.5" y="-192" font-family="Helvetica,sans-Serif" font-size="10.00">JSystem/JKernel/JKRFileLoader.h</text>
</a>
</g>
</g>
<!-- Node13&#45;&gt;Node24 -->
<g id="edge51" class="edge">
<title>Node13&#45;&gt;Node24</title>
<path fill="none" stroke="midnightblue" d="M744.4,-369.44C661.01,-339.84 384.61,-241.7 288.1,-207.43"/>
<polygon fill="midnightblue" stroke="midnightblue" points="289.14,-204.09 278.55,-204.04 286.8,-210.68 289.14,-204.09"/>
</g>
<!-- Node25 -->
<g id="node25" class="node">
<title>Node25</title>
<g id="a_node25"><a xlink:href="global_8h.html" target="_top" xlink:title=" ">
<polygon fill="white" stroke="black" points="294.5,-313.5 294.5,-332.5 344.5,-332.5 344.5,-313.5 294.5,-313.5"/>
<text text-anchor="middle" x="319.5" y="-320.5" font-family="Helvetica,sans-Serif" font-size="10.00">global.h</text>
</a>
</g>
</g>
<!-- Node13&#45;&gt;Node25 -->
<g id="edge56" class="edge">
<title>Node13&#45;&gt;Node25</title>
<path fill="none" stroke="midnightblue" d="M691.84,-371.99C609.6,-364.98 475.3,-351.88 360.5,-333 358.56,-332.68 356.57,-332.33 354.57,-331.95"/>
<polygon fill="midnightblue" stroke="midnightblue" points="355.06,-328.48 344.57,-329.95 353.68,-335.35 355.06,-328.48"/>
</g>
<!-- Node15&#45;&gt;Node5 -->
<g id="edge43" class="edge">
<title>Node15&#45;&gt;Node5</title>
<path fill="none" stroke="midnightblue" d="M954.08,-313.44C1003.22,-300.69 1081.81,-271.31 1109.5,-210 1115.17,-197.44 1117.11,-190.49 1109.5,-179 1086.84,-144.8 1047.16,-177.2 1024.5,-143 1016.89,-131.51 1017.76,-124.02 1024.5,-112 1050.99,-64.73 1109.62,-36.93 1149.36,-22.83"/>
<polygon fill="midnightblue" stroke="midnightblue" points="1150.69,-26.07 1159.03,-19.54 1148.43,-19.45 1150.69,-26.07"/>
</g>
<!-- Node15&#45;&gt;Node14 -->
<g id="edge27" class="edge">
<title>Node15&#45;&gt;Node14</title>
<path fill="none" stroke="midnightblue" d="M891.87,-313.48C867.38,-303.36 826.35,-286.4 798.39,-274.85"/>
<polygon fill="midnightblue" stroke="midnightblue" points="799.67,-271.59 789.09,-271.01 797,-278.06 799.67,-271.59"/>
</g>
<!-- Node16 -->
<g id="node16" class="node">
<title>Node16</title>
<g id="a_node16"><a xlink:href="JKRThread_8h.html" target="_top" xlink:title=" ">
<polygon fill="white" stroke="black" points="874.5,-252 874.5,-271 1024.5,-271 1024.5,-252 874.5,-252"/>
<text text-anchor="middle" x="949.5" y="-259" font-family="Helvetica,sans-Serif" font-size="10.00">JSystem/JKernel/JKRThread.h</text>
</a>
</g>
</g>
<!-- Node15&#45;&gt;Node16 -->
<g id="edge28" class="edge">
<title>Node15&#45;&gt;Node16</title>
<path fill="none" stroke="midnightblue" d="M917.8,-313.48C923.24,-304.73 931.86,-290.87 938.74,-279.81"/>
<polygon fill="midnightblue" stroke="midnightblue" points="941.9,-281.35 944.21,-271.01 935.96,-277.65 941.9,-281.35"/>
</g>
<!-- Node16&#45;&gt;Node5 -->
<g id="edge42" class="edge">
<title>Node16&#45;&gt;Node5</title>
<path fill="none" stroke="midnightblue" d="M947.43,-251.94C940.4,-220.55 920.87,-110.77 976.5,-56 999.07,-33.78 1083.35,-21.37 1138.89,-15.45"/>
<polygon fill="midnightblue" stroke="midnightblue" points="1139.32,-18.92 1148.9,-14.41 1138.6,-11.96 1139.32,-18.92"/>
</g>
<!-- Node17 -->
<g id="node17" class="node">
<title>Node17</title>
<g id="a_node17"><a xlink:href="JKRDisposer_8h.html" target="_top" xlink:title=" ">
<polygon fill="white" stroke="black" points="501.5,-118 501.5,-137 659.5,-137 659.5,-118 501.5,-118"/>
<text text-anchor="middle" x="580.5" y="-125" font-family="Helvetica,sans-Serif" font-size="10.00">JSystem/JKernel/JKRDisposer.h</text>
</a>
</g>
</g>
<!-- Node16&#45;&gt;Node17 -->
<g id="edge29" class="edge">
<title>Node16&#45;&gt;Node17</title>
<path fill="none" stroke="midnightblue" d="M925.57,-251.94C861.82,-229.13 687.69,-166.84 614.07,-140.51"/>
<polygon fill="midnightblue" stroke="midnightblue" points="614.97,-137.11 604.37,-137.04 612.61,-143.7 614.97,-137.11"/>
</g>
<!-- Node16&#45;&gt;Node18 -->
<g id="edge40" class="edge">
<title>Node16&#45;&gt;Node18</title>
<path fill="none" stroke="midnightblue" d="M904.72,-251.95C892.07,-249.76 878.28,-247.58 865.5,-246 812.31,-239.43 423.47,-246.79 384.5,-210 350.44,-177.84 356.01,-116.34 361.48,-85.54"/>
<polygon fill="midnightblue" stroke="midnightblue" points="364.92,-86.18 363.42,-75.69 358.05,-84.83 364.92,-86.18"/>
</g>
<!-- Node16&#45;&gt;Node19 -->
<g id="edge33" class="edge">
<title>Node16&#45;&gt;Node19</title>
<path fill="none" stroke="midnightblue" d="M960.29,-251.73C973.24,-241.21 995.19,-223.38 1010.89,-210.62"/>
<polygon fill="midnightblue" stroke="midnightblue" points="1013.33,-213.15 1018.88,-204.13 1008.91,-207.72 1013.33,-213.15"/>
</g>
<!-- Node20 -->
<g id="node20" class="node">
<title>Node20</title>
<g id="a_node20"><a xlink:href="OS_8h.html" target="_top" xlink:title=" ">
<polygon fill="white" stroke="black" points="815.5,-118 815.5,-137 901.5,-137 901.5,-118 815.5,-118"/>
<text text-anchor="middle" x="858.5" y="-125" font-family="Helvetica,sans-Serif" font-size="10.00">dolphin/os/OS.h</text>
</a>
</g>
</g>
<!-- Node16&#45;&gt;Node20 -->
<g id="edge41" class="edge">
<title>Node16&#45;&gt;Node20</title>
<path fill="none" stroke="midnightblue" d="M943.53,-251.84C928.68,-230.3 889.87,-174 870.23,-145.52"/>
<polygon fill="midnightblue" stroke="midnightblue" points="872.93,-143.27 864.37,-137.02 867.17,-147.24 872.93,-143.27"/>
</g>
<!-- Node17&#45;&gt;Node5 -->
<g id="edge32" class="edge">
<title>Node17&#45;&gt;Node5</title>
<path fill="none" stroke="midnightblue" d="M589.62,-117.88C606.68,-102.35 645.25,-69.98 684.5,-56 767.13,-26.56 1027.23,-15.68 1138.35,-12.31"/>
<polygon fill="midnightblue" stroke="midnightblue" points="1138.73,-15.8 1148.63,-12.01 1138.53,-8.8 1138.73,-15.8"/>
</g>
<!-- Node17&#45;&gt;Node18 -->
<g id="edge30" class="edge">
<title>Node17&#45;&gt;Node18</title>
<path fill="none" stroke="midnightblue" d="M549.7,-117.98C511.94,-107.53 447.84,-89.79 406.09,-78.23"/>
<polygon fill="midnightblue" stroke="midnightblue" points="406.82,-74.8 396.25,-75.51 404.95,-81.55 406.82,-74.8"/>
</g>
<!-- Node18&#45;&gt;Node5 -->
<g id="edge31" class="edge">
<title>Node18&#45;&gt;Node5</title>
<path fill="none" stroke="midnightblue" d="M437.01,-57.67C443.6,-57.08 450.17,-56.51 456.5,-56 712.48,-35.49 1019.42,-19.4 1138.66,-13.47"/>
<polygon fill="midnightblue" stroke="midnightblue" points="1139.12,-16.95 1148.94,-12.96 1138.78,-9.96 1139.12,-16.95"/>
</g>
<!-- Node19&#45;&gt;Node5 -->
<g id="edge39" class="edge">
<title>Node19&#45;&gt;Node5</title>
<path fill="none" stroke="midnightblue" d="M1020.17,-184.89C1010.85,-175.6 997.13,-159.86 991.5,-143 979.24,-106.33 967.38,-86.22 991.5,-56 1009.59,-33.34 1086.21,-21.22 1138.66,-15.45"/>
<polygon fill="midnightblue" stroke="midnightblue" points="1139.22,-18.91 1148.8,-14.38 1138.49,-11.95 1139.22,-18.91"/>
</g>
<!-- Node19&#45;&gt;Node17 -->
<g id="edge34" class="edge">
<title>Node19&#45;&gt;Node17</title>
<path fill="none" stroke="midnightblue" d="M970.34,-184.94C887.53,-172.95 737.39,-151.21 649.56,-138.5"/>
<polygon fill="midnightblue" stroke="midnightblue" points="649.83,-135 639.43,-137.03 648.83,-141.93 649.83,-135"/>
</g>
<!-- Node19&#45;&gt;Node20 -->
<g id="edge35" class="edge">
<title>Node19&#45;&gt;Node20</title>
<path fill="none" stroke="midnightblue" d="M1006.79,-184.87C976.94,-173.52 924.33,-153.52 890.47,-140.65"/>
<polygon fill="midnightblue" stroke="midnightblue" points="891.62,-137.35 881.03,-137.06 889.13,-143.89 891.62,-137.35"/>
</g>
<!-- Node20&#45;&gt;Node5 -->
<g id="edge36" class="edge">
<title>Node20&#45;&gt;Node5</title>
<path fill="none" stroke="midnightblue" d="M862.76,-117.86C870.77,-102.59 889.65,-71.04 915.5,-56 952.51,-34.47 1070.08,-21.15 1138.59,-15.02"/>
<polygon fill="midnightblue" stroke="midnightblue" points="1139.08,-18.49 1148.74,-14.13 1138.47,-11.51 1139.08,-18.49"/>
</g>
<!-- Node21 -->
<g id="node21" class="node">
<title>Node21</title>
<g id="a_node21"><a xlink:href="dvd_8h.html" target="_top" xlink:title=" ">
<polygon fill="white" stroke="black" points="771.5,-56.5 771.5,-75.5 863.5,-75.5 863.5,-56.5 771.5,-56.5"/>
<text text-anchor="middle" x="817.5" y="-63.5" font-family="Helvetica,sans-Serif" font-size="10.00">dolphin/dvd/dvd.h</text>
</a>
</g>
</g>
<!-- Node20&#45;&gt;Node21 -->
<g id="edge37" class="edge">
<title>Node20&#45;&gt;Node21</title>
<path fill="none" stroke="midnightblue" d="M852.63,-117.98C846.54,-109.14 836.86,-95.09 829.2,-83.98"/>
<polygon fill="midnightblue" stroke="midnightblue" points="831.92,-81.76 823.36,-75.51 826.16,-85.73 831.92,-81.76"/>
</g>
<!-- Node21&#45;&gt;Node5 -->
<g id="edge38" class="edge">
<title>Node21&#45;&gt;Node5</title>
<path fill="none" stroke="midnightblue" d="M863.68,-58.05C868.35,-57.35 873.02,-56.66 877.5,-56 969.37,-42.48 1076.53,-27.12 1138.34,-18.29"/>
<polygon fill="midnightblue" stroke="midnightblue" points="1139.2,-21.7 1148.6,-16.82 1138.21,-14.77 1139.2,-21.7"/>
</g>
<!-- Node22&#45;&gt;Node5 -->
<g id="edge50" class="edge">
<title>Node22&#45;&gt;Node5</title>
<path fill="none" stroke="midnightblue" d="M641.17,-251.93C668.56,-244.98 700.01,-232.46 720.5,-210 768.31,-157.59 708.46,-101.96 762.5,-56 790.66,-32.05 1031.63,-18.19 1138.64,-13.17"/>
<polygon fill="midnightblue" stroke="midnightblue" points="1139.05,-16.66 1148.88,-12.7 1138.73,-9.66 1139.05,-16.66"/>
</g>
<!-- Node22&#45;&gt;Node20 -->
<g id="edge49" class="edge">
<title>Node22&#45;&gt;Node20</title>
<path fill="none" stroke="midnightblue" d="M632.73,-251.95C701.55,-239.32 822.07,-216.47 829.5,-210 847.78,-194.08 854.54,-165.83 857.04,-147.14"/>
<polygon fill="midnightblue" stroke="midnightblue" points="860.52,-147.47 858.09,-137.16 853.56,-146.74 860.52,-147.47"/>
</g>
<!-- Node22&#45;&gt;Node21 -->
<g id="edge48" class="edge">
<title>Node22&#45;&gt;Node21</title>
<path fill="none" stroke="midnightblue" d="M628.13,-251.92C671.46,-242.48 734.8,-226.44 753.5,-210 773.23,-192.66 799.61,-120.12 811.38,-85.52"/>
<polygon fill="midnightblue" stroke="midnightblue" points="814.8,-86.33 814.66,-75.73 808.16,-84.1 814.8,-86.33"/>
</g>
<!-- Node23 -->
<g id="node23" class="node">
<title>Node23</title>
<g id="a_node23"><a xlink:href="JKRFile_8h.html" target="_top" xlink:title=" ">
<polygon fill="white" stroke="black" points="393.5,-185 393.5,-204 529.5,-204 529.5,-185 393.5,-185"/>
<text text-anchor="middle" x="461.5" y="-192" font-family="Helvetica,sans-Serif" font-size="10.00">JSystem/JKernel/JKRFile.h</text>
</a>
</g>
</g>
<!-- Node22&#45;&gt;Node23 -->
<g id="edge45" class="edge">
<title>Node22&#45;&gt;Node23</title>
<path fill="none" stroke="midnightblue" d="M569.03,-251.87C548.1,-240.89 511.72,-221.82 487.14,-208.94"/>
<polygon fill="midnightblue" stroke="midnightblue" points="488.52,-205.71 478.03,-204.17 485.27,-211.91 488.52,-205.71"/>
</g>
<!-- Node23&#45;&gt;Node5 -->
<g id="edge47" class="edge">
<title>Node23&#45;&gt;Node5</title>
<path fill="none" stroke="midnightblue" d="M462.48,-184.61C464.77,-168.1 471.91,-132.51 492.5,-112 542.62,-62.08 572.47,-71.49 641.5,-56 821.01,-15.72 1040.83,-10.59 1138.52,-10.51"/>
<polygon fill="midnightblue" stroke="midnightblue" points="1138.7,-14.01 1148.7,-10.52 1138.71,-7.01 1138.7,-14.01"/>
</g>
<!-- Node23&#45;&gt;Node17 -->
<g id="edge46" class="edge">
<title>Node23&#45;&gt;Node17</title>
<path fill="none" stroke="midnightblue" d="M477.55,-184.73C497.62,-173.77 532.2,-154.88 555.69,-142.05"/>
<polygon fill="midnightblue" stroke="midnightblue" points="557.61,-144.99 564.71,-137.13 554.25,-138.85 557.61,-144.99"/>
</g>
<!-- Node24&#45;&gt;Node5 -->
<g id="edge54" class="edge">
<title>Node24&#45;&gt;Node5</title>
<path fill="none" stroke="midnightblue" d="M253.27,-184.99C250.24,-160.44 245.35,-89.17 284.5,-56 317.26,-28.24 952.64,-15.1 1138.71,-11.83"/>
<polygon fill="midnightblue" stroke="midnightblue" points="1138.84,-15.33 1148.78,-11.66 1138.72,-8.33 1138.84,-15.33"/>
</g>
<!-- Node24&#45;&gt;Node17 -->
<g id="edge52" class="edge">
<title>Node24&#45;&gt;Node17</title>
<path fill="none" stroke="midnightblue" d="M297.45,-184.94C356.78,-173.11 463.72,-151.78 527.81,-139.01"/>
<polygon fill="midnightblue" stroke="midnightblue" points="528.59,-142.42 537.71,-137.03 527.22,-135.55 528.59,-142.42"/>
</g>
<!-- Node24&#45;&gt;Node18 -->
<g id="edge53" class="edge">
<title>Node24&#45;&gt;Node18</title>
<path fill="none" stroke="midnightblue" d="M262.13,-184.81C280.43,-163.95 327.05,-110.81 350.93,-83.61"/>
<polygon fill="midnightblue" stroke="midnightblue" points="353.85,-85.58 357.82,-75.76 348.59,-80.96 353.85,-85.58"/>
</g>
<!-- Node25&#45;&gt;Node5 -->
<g id="edge57" class="edge">
<title>Node25&#45;&gt;Node5</title>
<path fill="none" stroke="midnightblue" d="M294.11,-319C237.42,-310.76 105.5,-282.25 105.5,-195.5 105.5,-195.5 105.5,-195.5 105.5,-126.5 105.5,-48.79 189.87,-73.86 265.5,-56 433.53,-16.33 971.05,-11.55 1138.92,-11.04"/>
<polygon fill="midnightblue" stroke="midnightblue" points="1138.98,-14.54 1148.97,-11.01 1138.96,-7.54 1138.98,-14.54"/>
</g>
<!-- Node26&#45;&gt;Node5 -->
<g id="edge64" class="edge">
<title>Node26&#45;&gt;Node5</title>
<path fill="none" stroke="midnightblue" d="M1854.42,-179.28C1855.4,-150.54 1852.99,-85.73 1814.5,-56 1769.51,-21.25 1381.34,-13.24 1240.38,-11.48"/>
<polygon fill="midnightblue" stroke="midnightblue" points="1240.31,-7.98 1230.27,-11.36 1240.23,-14.98 1240.31,-7.98"/>
</g>
<!-- Node27 -->
<g id="node27" class="node">
<title>Node27</title>
<g id="a_node27"><a xlink:href="JSUInputStream_8h.html" target="_top" xlink:title=" ">
<polygon fill="white" stroke="black" points="1882,-112.5 1882,-142.5 2023,-142.5 2023,-112.5 1882,-112.5"/>
<text text-anchor="start" x="1890" y="-130.5" font-family="Helvetica,sans-Serif" font-size="10.00">JSystem/JSupport/JSUInput</text>
<text text-anchor="middle" x="1952.5" y="-119.5" font-family="Helvetica,sans-Serif" font-size="10.00">Stream.h</text>
</a>
</g>
</g>
<!-- Node26&#45;&gt;Node27 -->
<g id="edge60" class="edge">
<title>Node26&#45;&gt;Node27</title>
<path fill="none" stroke="midnightblue" d="M1874.98,-179.4C1888.86,-170.28 1907.13,-158.29 1922.44,-148.24"/>
<polygon fill="midnightblue" stroke="midnightblue" points="1924.62,-150.99 1931.06,-142.58 1920.78,-145.14 1924.62,-150.99"/>
</g>
<!-- Node27&#45;&gt;Node5 -->
<g id="edge63" class="edge">
<title>Node27&#45;&gt;Node5</title>
<path fill="none" stroke="midnightblue" d="M1940.68,-112.36C1925.65,-95.52 1897.95,-68.14 1867.5,-56 1753.63,-10.6 1377.77,-9.26 1240.38,-10.36"/>
<polygon fill="midnightblue" stroke="midnightblue" points="1240.1,-6.86 1230.13,-10.45 1240.16,-13.86 1240.1,-6.86"/>
</g>
<!-- Node28 -->
<g id="node28" class="node">
<title>Node28</title>
<g id="a_node28"><a xlink:href="JSUIosBase_8h.html" target="_top" xlink:title=" ">
<polygon fill="white" stroke="black" points="1920,-56.5 1920,-75.5 2083,-75.5 2083,-56.5 1920,-56.5"/>
<text text-anchor="middle" x="2001.5" y="-63.5" font-family="Helvetica,sans-Serif" font-size="10.00">JSystem/JSupport/JSUIosBase.h</text>
</a>
</g>
</g>
<!-- Node27&#45;&gt;Node28 -->
<g id="edge61" class="edge">
<title>Node27&#45;&gt;Node28</title>
<path fill="none" stroke="midnightblue" d="M1964.11,-112.4C1971.23,-103.75 1980.38,-92.64 1987.85,-83.58"/>
<polygon fill="midnightblue" stroke="midnightblue" points="1990.71,-85.6 1994.37,-75.66 1985.31,-81.15 1990.71,-85.6"/>
</g>
<!-- Node28&#45;&gt;Node5 -->
<g id="edge62" class="edge">
<title>Node28&#45;&gt;Node5</title>
<path fill="none" stroke="midnightblue" d="M1919.81,-57.17C1914.97,-56.76 1910.17,-56.37 1905.5,-56 1656.3,-36.49 1357.78,-19.91 1240.42,-13.66"/>
<polygon fill="midnightblue" stroke="midnightblue" points="1240.47,-10.16 1230.3,-13.12 1240.1,-17.15 1240.47,-10.16"/>
</g>
<!-- Node29&#45;&gt;Node5 -->
<g id="edge72" class="edge">
<title>Node29&#45;&gt;Node5</title>
<path fill="none" stroke="midnightblue" d="M1303.61,-184.61C1293.3,-169.26 1271.03,-137.05 1249.5,-112 1234.75,-94.84 1225.7,-95.06 1213.5,-76 1204.28,-61.6 1197.89,-43.14 1194.04,-29.58"/>
<polygon fill="midnightblue" stroke="midnightblue" points="1197.33,-28.31 1191.4,-19.53 1190.56,-30.09 1197.33,-28.31"/>
</g>
<!-- Node29&#45;&gt;Node9 -->
<g id="edge66" class="edge">
<title>Node29&#45;&gt;Node9</title>
<path fill="none" stroke="midnightblue" d="M1320.02,-184.73C1332.65,-174.21 1354.04,-156.38 1369.36,-143.62"/>
<polygon fill="midnightblue" stroke="midnightblue" points="1371.71,-146.22 1377.15,-137.13 1367.22,-140.84 1371.71,-146.22"/>
</g>
<!-- Node30 -->
<g id="node30" class="node">
<title>Node30</title>
<g id="a_node30"><a xlink:href="GX_8h.html" target="_top" xlink:title=" ">
<polygon fill="white" stroke="black" points="1492,-118 1492,-137 1577,-137 1577,-118 1492,-118"/>
<text text-anchor="middle" x="1534.5" y="-125" font-family="Helvetica,sans-Serif" font-size="10.00">dolphin/gx/GX.h</text>
</a>
</g>
</g>
<!-- Node29&#45;&gt;Node30 -->
<g id="edge67" class="edge">
<title>Node29&#45;&gt;Node30</title>
<path fill="none" stroke="midnightblue" d="M1339.38,-184.87C1379.41,-173.3 1450.56,-152.75 1494.99,-139.91"/>
<polygon fill="midnightblue" stroke="midnightblue" points="1496.22,-143.2 1504.86,-137.06 1494.28,-136.48 1496.22,-143.2"/>
</g>
<!-- Node30&#45;&gt;Node4 -->
<g id="edge70" class="edge">
<title>Node30&#45;&gt;Node4</title>
<path fill="none" stroke="midnightblue" d="M1508.42,-117.98C1476.93,-107.68 1423.8,-90.31 1388.44,-78.75"/>
<polygon fill="midnightblue" stroke="midnightblue" points="1389.12,-75.29 1378.53,-75.51 1386.95,-81.94 1389.12,-75.29"/>
</g>
<!-- Node30&#45;&gt;Node5 -->
<g id="edge71" class="edge">
<title>Node30&#45;&gt;Node5</title>
<path fill="none" stroke="midnightblue" d="M1527.51,-117.88C1514.62,-102.66 1485.51,-71.17 1453.5,-56 1384.62,-23.36 1295.7,-14.07 1240.65,-11.61"/>
<polygon fill="midnightblue" stroke="midnightblue" points="1240.57,-8.1 1230.44,-11.21 1240.3,-15.1 1240.57,-8.1"/>
</g>
<!-- Node31 -->
<g id="node31" class="node">
<title>Node31</title>
<g id="a_node31"><a xlink:href="GXDisplayList_8h.html" target="_top" xlink:title=" ">
<polygon fill="white" stroke="black" points="1506,-56.5 1506,-75.5 1639,-75.5 1639,-56.5 1506,-56.5"/>
<text text-anchor="middle" x="1572.5" y="-63.5" font-family="Helvetica,sans-Serif" font-size="10.00">dolphin/gx/GXDisplayList.h</text>
</a>
</g>
</g>
<!-- Node30&#45;&gt;Node31 -->
<g id="edge68" class="edge">
<title>Node30&#45;&gt;Node31</title>
<path fill="none" stroke="midnightblue" d="M1539.94,-117.98C1545.59,-109.14 1554.56,-95.09 1561.66,-83.98"/>
<polygon fill="midnightblue" stroke="midnightblue" points="1564.63,-85.82 1567.07,-75.51 1558.73,-82.05 1564.63,-85.82"/>
</g>
<!-- Node31&#45;&gt;Node5 -->
<g id="edge69" class="edge">
<title>Node31&#45;&gt;Node5</title>
<path fill="none" stroke="midnightblue" d="M1511.81,-56.44C1436.72,-45.86 1310.23,-28.02 1240.12,-18.14"/>
<polygon fill="midnightblue" stroke="midnightblue" points="1240.59,-14.67 1230.2,-16.74 1239.61,-21.6 1240.59,-14.67"/>
</g>
<!-- Node32&#45;&gt;Node5 -->
<g id="edge76" class="edge">
<title>Node32&#45;&gt;Node5</title>
<path fill="none" stroke="midnightblue" d="M1267.94,-251.83C1256.71,-242.73 1240.11,-227.33 1231.5,-210 1211.87,-170.47 1227.62,-154.43 1215.5,-112 1210.74,-95.33 1205.31,-92.65 1200.5,-76 1196.08,-60.69 1193.21,-42.81 1191.52,-29.68"/>
<polygon fill="midnightblue" stroke="midnightblue" points="1194.97,-29.07 1190.32,-19.55 1188.02,-29.89 1194.97,-29.07"/>
</g>
<!-- Node32&#45;&gt;Node19 -->
<g id="edge74" class="edge">
<title>Node32&#45;&gt;Node19</title>
<path fill="none" stroke="midnightblue" d="M1246.56,-251.94C1201.78,-240.29 1121.63,-219.45 1072.26,-206.62"/>
<polygon fill="midnightblue" stroke="midnightblue" points="1073.07,-203.21 1062.51,-204.08 1071.31,-209.99 1073.07,-203.21"/>
</g>
<!-- Node32&#45;&gt;Node29 -->
<g id="edge75" class="edge">
<title>Node32&#45;&gt;Node29</title>
<path fill="none" stroke="midnightblue" d="M1283.55,-251.73C1288.04,-241.99 1295.43,-225.98 1301.18,-213.53"/>
<polygon fill="midnightblue" stroke="midnightblue" points="1304.51,-214.67 1305.52,-204.13 1298.15,-211.74 1304.51,-214.67"/>
</g>
<!-- Node33&#45;&gt;Node5 -->
<g id="edge81" class="edge">
<title>Node33&#45;&gt;Node5</title>
<path fill="none" stroke="midnightblue" d="M2062.83,-251.96C2082.17,-244.32 2106.68,-231.03 2118.5,-210 2137.95,-175.4 2178.67,-122.63 2111.5,-56 2080.39,-25.14 1429.3,-14.16 1240.43,-11.62"/>
<polygon fill="midnightblue" stroke="midnightblue" points="1240.27,-8.12 1230.22,-11.49 1240.18,-15.12 1240.27,-8.12"/>
</g>
<!-- Node34 -->
<g id="node34" class="node">
<title>Node34</title>
<g id="a_node34"><a xlink:href="JUTPalette_8h.html" target="_top" xlink:title=" ">
<polygon fill="white" stroke="black" points="1961.5,-185 1961.5,-204 2109.5,-204 2109.5,-185 1961.5,-185"/>
<text text-anchor="middle" x="2035.5" y="-192" font-family="Helvetica,sans-Serif" font-size="10.00">JSystem/JUtility/JUTPalette.h</text>
</a>
</g>
</g>
<!-- Node33&#45;&gt;Node34 -->
<g id="edge78" class="edge">
<title>Node33&#45;&gt;Node34</title>
<path fill="none" stroke="midnightblue" d="M2035.5,-251.73C2035.5,-242.18 2035.5,-226.62 2035.5,-214.28"/>
<polygon fill="midnightblue" stroke="midnightblue" points="2039,-214.13 2035.5,-204.13 2032,-214.13 2039,-214.13"/>
</g>
<!-- Node34&#45;&gt;Node5 -->
<g id="edge80" class="edge">
<title>Node34&#45;&gt;Node5</title>
<path fill="none" stroke="midnightblue" d="M2044.57,-184.91C2068.39,-161.34 2128.45,-94.84 2091.5,-56 2062,-24.99 1426.5,-14.14 1240.32,-11.62"/>
<polygon fill="midnightblue" stroke="midnightblue" points="1240.3,-8.12 1230.25,-11.49 1240.2,-15.12 1240.3,-8.12"/>
</g>
<!-- Node34&#45;&gt;Node30 -->
<g id="edge79" class="edge">
<title>Node34&#45;&gt;Node30</title>
<path fill="none" stroke="midnightblue" d="M1980.71,-184.97C1967.24,-182.95 1952.86,-180.84 1939.5,-179 1813.21,-161.59 1664.38,-143.71 1587.08,-134.62"/>
<polygon fill="midnightblue" stroke="midnightblue" points="1587.45,-131.14 1577.11,-133.45 1586.64,-138.09 1587.45,-131.14"/>
</g>
</g>
</svg>
