<?xml version="1.0" encoding="UTF-8" standalone="no"?>
<!DOCTYPE svg PUBLIC "-//W3C//DTD SVG 1.1//EN"
 "http://www.w3.org/Graphics/SVG/1.1/DTD/svg11.dtd">
<!-- Generated by graphviz version 2.44.0 ()
 -->
<!-- Title: include/JSystem/J2DGraph/J2DTextBox.h Pages: 1 -->
<!--zoomable 453 -->
<svg id="main" version="1.1" xmlns="http://www.w3.org/2000/svg" xmlns:xlink="http://www.w3.org/1999/xlink" xml:space="preserve" onload="init(evt)">
<style type="text/css"><![CDATA[
.edge:hover path { stroke: red; }
.edge:hover polygon { stroke: red; fill: red; }
]]></style>
<script type="text/javascript"><![CDATA[
var edges = document.getElementsByTagName('g');
if (edges && edges.length) {
  for (var i=0;i<edges.length;i++) {
    if (edges[i].id.substr(0,4)=='edge') {
      edges[i].setAttribute('class','edge');
    }
  }
}
]]></script>
        <defs>
                <circle id="rim" cx="0" cy="0" r="7"/>
                <circle id="rim2" cx="0" cy="0" r="3.5"/>
                <g id="zoomPlus">
                        <use xlink:href="#rim" fill="#404040">
                                <set attributeName="fill" to="#808080" begin="zoomplus.mouseover" end="zoomplus.mouseout"/>
                        </use>
                        <path d="M-4,0h8M0,-4v8" fill="none" stroke="white" stroke-width="1.5" pointer-events="none"/>
                </g>
                <g id="zoomMin">
                        <use xlink:href="#rim" fill="#404040">
                                <set attributeName="fill" to="#808080" begin="zoomminus.mouseover" end="zoomminus.mouseout"/>
                        </use>
                        <path d="M-4,0h8" fill="none" stroke="white" stroke-width="1.5" pointer-events="none"/>
                </g>
                <g id="dirArrow">
                        <path fill="none" stroke="white" stroke-width="1.5" d="M0,-3.0v7 M-2.5,-0.5L0,-3.0L2.5,-0.5"/>
                </g>
               <g id="resetDef">
                       <use xlink:href="#rim2" fill="#404040">
                               <set attributeName="fill" to="#808080" begin="reset.mouseover" end="reset.mouseout"/>
                       </use>
               </g>
        </defs>

<script type="text/javascript">
var viewWidth = 2362;
var viewHeight = 453;
var sectionId = 'dynsection-0';
</script>
<script xlink:href="svgpan.js"/>
<svg id="graph" class="graph">
<g id="viewport">
<title>include/JSystem/J2DGraph/J2DTextBox.h</title>
<polygon fill="white" stroke="transparent" points="-4,4 -4,-449 2358,-449 2358,4 -4,4"/>
<!-- Node1 -->
<g id="node1" class="node">
<title>Node1</title>
<g id="a_node1"><a xlink:title=" ">
<polygon fill="#bfbfbf" stroke="black" points="47.5,-414.5 47.5,-444.5 182.5,-444.5 182.5,-414.5 47.5,-414.5"/>
<text text-anchor="start" x="55.5" y="-432.5" font-family="Helvetica,sans-Serif" font-size="10.00">include/JSystem/J2DGraph</text>
<text text-anchor="middle" x="115" y="-421.5" font-family="Helvetica,sans-Serif" font-size="10.00">/J2DTextBox.h</text>
</a>
</g>
</g>
<!-- Node2 -->
<g id="node2" class="node">
<title>Node2</title>
<g id="a_node2"><a xlink:href="J2DMaterial_8h.html" target="_top" xlink:title=" ">
<polygon fill="white" stroke="black" points="33,-185 33,-204 197,-204 197,-185 33,-185"/>
<text text-anchor="middle" x="115" y="-192" font-family="Helvetica,sans-Serif" font-size="10.00">JSystem/J2DGraph/J2DMaterial.h</text>
</a>
</g>
</g>
<!-- Node1&#45;&gt;Node2 -->
<g id="edge1" class="edge">
<title>Node1&#45;&gt;Node2</title>
<path fill="none" stroke="midnightblue" d="M115,-414.28C115,-374.1 115,-259.76 115,-214.39"/>
<polygon fill="midnightblue" stroke="midnightblue" points="118.5,-214.2 115,-204.2 111.5,-214.2 118.5,-214.2"/>
</g>
<!-- Node5 -->
<g id="node5" class="node">
<title>Node5</title>
<g id="a_node5"><a xlink:href="types_8h.html" target="_top" xlink:title=" ">
<polygon fill="white" stroke="black" points="1081.5,-0.5 1081.5,-19.5 1162.5,-19.5 1162.5,-0.5 1081.5,-0.5"/>
<text text-anchor="middle" x="1122" y="-7.5" font-family="Helvetica,sans-Serif" font-size="10.00">dolphin/types.h</text>
</a>
</g>
</g>
<!-- Node1&#45;&gt;Node5 -->
<g id="edge82" class="edge">
<title>Node1&#45;&gt;Node5</title>
<path fill="none" stroke="midnightblue" d="M84.79,-414.44C50.71,-396.25 0,-361.1 0,-313 0,-313 0,-313 0,-126.5 0,-74.99 43.59,-73.6 92,-56 184.34,-22.42 876.08,-13.34 1071.01,-11.43"/>
<polygon fill="midnightblue" stroke="midnightblue" points="1071.29,-14.93 1081.26,-11.34 1071.23,-7.93 1071.29,-14.93"/>
</g>
<!-- Node6 -->
<g id="node6" class="node">
<title>Node6</title>
<g id="a_node6"><a xlink:href="J2DPane_8h.html" target="_top" xlink:title=" ">
<polygon fill="white" stroke="black" points="629,-358.5 629,-377.5 781,-377.5 781,-358.5 629,-358.5"/>
<text text-anchor="middle" x="705" y="-365.5" font-family="Helvetica,sans-Serif" font-size="10.00">JSystem/J2DGraph/J2DPane.h</text>
</a>
</g>
</g>
<!-- Node1&#45;&gt;Node6 -->
<g id="edge7" class="edge">
<title>Node1&#45;&gt;Node6</title>
<path fill="none" stroke="midnightblue" d="M182.68,-421.67C290.33,-410.82 500.43,-389.63 618.73,-377.7"/>
<polygon fill="midnightblue" stroke="midnightblue" points="619.23,-381.17 628.83,-376.68 618.53,-374.2 619.23,-381.17"/>
</g>
<!-- Node3 -->
<g id="node3" class="node">
<title>Node3</title>
<g id="a_node3"><a xlink:href="J2DAnimation_8h.html" target="_top" xlink:title=" ">
<polygon fill="white" stroke="black" points="66.5,-118 66.5,-137 239.5,-137 239.5,-118 66.5,-118"/>
<text text-anchor="middle" x="153" y="-125" font-family="Helvetica,sans-Serif" font-size="10.00">JSystem/J2DGraph/J2DAnimation.h</text>
</a>
</g>
</g>
<!-- Node2&#45;&gt;Node3 -->
<g id="edge2" class="edge">
<title>Node2&#45;&gt;Node3</title>
<path fill="none" stroke="midnightblue" d="M120.12,-184.73C125.94,-174.79 135.56,-158.34 142.89,-145.79"/>
<polygon fill="midnightblue" stroke="midnightblue" points="145.93,-147.53 147.96,-137.13 139.89,-143.99 145.93,-147.53"/>
</g>
<!-- Node2&#45;&gt;Node5 -->
<g id="edge6" class="edge">
<title>Node2&#45;&gt;Node5</title>
<path fill="none" stroke="midnightblue" d="M100.93,-184.8C78.81,-170 40.18,-138.92 58,-112 93.18,-58.86 127.87,-70.2 190,-56 359.86,-17.17 902.36,-11.82 1071.29,-11.11"/>
<polygon fill="midnightblue" stroke="midnightblue" points="1071.41,-14.61 1081.4,-11.07 1071.39,-7.61 1071.41,-14.61"/>
</g>
<!-- Node4 -->
<g id="node4" class="node">
<title>Node4</title>
<g id="a_node4"><a xlink:href="GXTexture_8h.html" target="_top" xlink:title=" ">
<polygon fill="white" stroke="black" points="304.5,-56.5 304.5,-75.5 421.5,-75.5 421.5,-56.5 304.5,-56.5"/>
<text text-anchor="middle" x="363" y="-63.5" font-family="Helvetica,sans-Serif" font-size="10.00">dolphin/gx/GXTexture.h</text>
</a>
</g>
</g>
<!-- Node3&#45;&gt;Node4 -->
<g id="edge3" class="edge">
<title>Node3&#45;&gt;Node4</title>
<path fill="none" stroke="midnightblue" d="M183.09,-117.98C219.89,-107.55 282.31,-89.86 323.09,-78.31"/>
<polygon fill="midnightblue" stroke="midnightblue" points="324.3,-81.6 332.97,-75.51 322.39,-74.87 324.3,-81.6"/>
</g>
<!-- Node3&#45;&gt;Node5 -->
<g id="edge5" class="edge">
<title>Node3&#45;&gt;Node5</title>
<path fill="none" stroke="midnightblue" d="M158.54,-117.77C169.07,-102.05 193.65,-69.41 224,-56 301.48,-21.77 893.11,-13.24 1071.35,-11.43"/>
<polygon fill="midnightblue" stroke="midnightblue" points="1071.53,-14.93 1081.5,-11.33 1071.46,-7.93 1071.53,-14.93"/>
</g>
<!-- Node4&#45;&gt;Node5 -->
<g id="edge4" class="edge">
<title>Node4&#45;&gt;Node5</title>
<path fill="none" stroke="midnightblue" d="M421.54,-57.48C426.43,-56.95 431.3,-56.44 436,-56 673.08,-33.63 957.31,-18.79 1071.18,-13.34"/>
<polygon fill="midnightblue" stroke="midnightblue" points="1071.52,-16.83 1081.34,-12.85 1071.19,-9.83 1071.52,-16.83"/>
</g>
<!-- Node6&#45;&gt;Node3 -->
<g id="edge8" class="edge">
<title>Node6&#45;&gt;Node3</title>
<path fill="none" stroke="midnightblue" d="M651.56,-358.44C607.47,-350.77 543.52,-338.23 489,-322 378.11,-288.99 348.64,-276.55 254,-210 223.5,-188.55 190.22,-160.77 170.5,-143.81"/>
<polygon fill="midnightblue" stroke="midnightblue" points="172.55,-140.95 162.7,-137.05 167.96,-146.24 172.55,-140.95"/>
</g>
<!-- Node6&#45;&gt;Node5 -->
<g id="edge81" class="edge">
<title>Node6&#45;&gt;Node5</title>
<path fill="none" stroke="midnightblue" d="M781.02,-359.79C899.97,-347.07 1122.65,-317.07 1182,-266 1253.21,-204.73 1265.57,-128.64 1206,-56 1193.9,-41.24 1175.65,-30.65 1159.24,-23.46"/>
<polygon fill="midnightblue" stroke="midnightblue" points="1160.44,-20.17 1149.86,-19.62 1157.79,-26.65 1160.44,-20.17"/>
</g>
<!-- Node7 -->
<g id="node7" class="node">
<title>Node7</title>
<g id="a_node7"><a xlink:href="J2DGrafContext_8h.html" target="_top" xlink:title=" ">
<polygon fill="white" stroke="black" points="501,-179.5 501,-209.5 641,-209.5 641,-179.5 501,-179.5"/>
<text text-anchor="start" x="509" y="-197.5" font-family="Helvetica,sans-Serif" font-size="10.00">JSystem/J2DGraph/J2DGraf</text>
<text text-anchor="middle" x="571" y="-186.5" font-family="Helvetica,sans-Serif" font-size="10.00">Context.h</text>
</a>
</g>
</g>
<!-- Node6&#45;&gt;Node7 -->
<g id="edge9" class="edge">
<title>Node6&#45;&gt;Node7</title>
<path fill="none" stroke="midnightblue" d="M693.93,-358.41C683.28,-349.84 667.06,-335.97 655,-322 626.16,-288.58 599.11,-244.77 583.85,-218.45"/>
<polygon fill="midnightblue" stroke="midnightblue" points="586.78,-216.53 578.78,-209.59 580.71,-220.01 586.78,-216.53"/>
</g>
<!-- Node8 -->
<g id="node8" class="node">
<title>Node8</title>
<g id="a_node8"><a xlink:href="JGeometry_8h.html" target="_top" xlink:title=" ">
<polygon fill="white" stroke="black" points="516.5,-118 516.5,-137 629.5,-137 629.5,-118 516.5,-118"/>
<text text-anchor="middle" x="573" y="-125" font-family="Helvetica,sans-Serif" font-size="10.00">JSystem/JGeometry.h</text>
</a>
</g>
</g>
<!-- Node6&#45;&gt;Node8 -->
<g id="edge16" class="edge">
<title>Node6&#45;&gt;Node8</title>
<path fill="none" stroke="midnightblue" d="M704.54,-358.2C702.65,-329.56 693.31,-237.48 650,-179 637.91,-162.68 618.85,-150.12 602.72,-141.6"/>
<polygon fill="midnightblue" stroke="midnightblue" points="604.15,-138.4 593.64,-137.06 601.02,-144.67 604.15,-138.4"/>
</g>
<!-- Node10 -->
<g id="node10" class="node">
<title>Node10</title>
<g id="a_node10"><a xlink:href="JKRArchive_8h.html" target="_top" xlink:title=" ">
<polygon fill="white" stroke="black" points="1751.5,-302.5 1751.5,-321.5 1904.5,-321.5 1904.5,-302.5 1751.5,-302.5"/>
<text text-anchor="middle" x="1828" y="-309.5" font-family="Helvetica,sans-Serif" font-size="10.00">JSystem/JKernel/JKRArchive.h</text>
</a>
</g>
</g>
<!-- Node6&#45;&gt;Node10 -->
<g id="edge17" class="edge">
<title>Node6&#45;&gt;Node10</title>
<path fill="none" stroke="midnightblue" d="M781.31,-363.33C982.75,-353.64 1527.97,-327.43 1741.02,-317.18"/>
<polygon fill="midnightblue" stroke="midnightblue" points="1741.4,-320.67 1751.22,-316.69 1741.06,-313.68 1741.4,-320.67"/>
</g>
<!-- Node15 -->
<g id="node15" class="node">
<title>Node15</title>
<g id="a_node15"><a xlink:href="JSUList_8h.html" target="_top" xlink:title=" ">
<polygon fill="white" stroke="black" points="1395.5,-56.5 1395.5,-75.5 1538.5,-75.5 1538.5,-56.5 1395.5,-56.5"/>
<text text-anchor="middle" x="1467" y="-63.5" font-family="Helvetica,sans-Serif" font-size="10.00">JSystem/JSupport/JSUList.h</text>
</a>
</g>
</g>
<!-- Node6&#45;&gt;Node15 -->
<g id="edge50" class="edge">
<title>Node6&#45;&gt;Node15</title>
<path fill="none" stroke="midnightblue" d="M781.03,-365.43C922.75,-361.84 1216.22,-350.96 1252,-322 1303.59,-280.25 1255.21,-232.12 1295,-179 1331.73,-129.96 1396.7,-96.28 1435.42,-79.44"/>
<polygon fill="midnightblue" stroke="midnightblue" points="1436.82,-82.65 1444.66,-75.52 1434.09,-76.2 1436.82,-82.65"/>
</g>
<!-- Node23 -->
<g id="node23" class="node">
<title>Node23</title>
<g id="a_node23"><a xlink:href="JSURandomInputStream_8h.html" target="_top" xlink:title=" ">
<polygon fill="white" stroke="black" points="697.5,-179.5 697.5,-209.5 852.5,-209.5 852.5,-179.5 697.5,-179.5"/>
<text text-anchor="start" x="705.5" y="-197.5" font-family="Helvetica,sans-Serif" font-size="10.00">JSystem/JSupport/JSURandom</text>
<text text-anchor="middle" x="775" y="-186.5" font-family="Helvetica,sans-Serif" font-size="10.00">InputStream.h</text>
</a>
</g>
</g>
<!-- Node6&#45;&gt;Node23 -->
<g id="edge51" class="edge">
<title>Node6&#45;&gt;Node23</title>
<path fill="none" stroke="midnightblue" d="M708.57,-358.26C718.98,-332.76 749.57,-257.81 765.35,-219.15"/>
<polygon fill="midnightblue" stroke="midnightblue" points="768.66,-220.3 769.19,-209.72 762.18,-217.66 768.66,-220.3"/>
</g>
<!-- Node26 -->
<g id="node26" class="node">
<title>Node26</title>
<g id="a_node26"><a xlink:href="JUTFont_8h.html" target="_top" xlink:title=" ">
<polygon fill="white" stroke="black" points="345.5,-185 345.5,-204 482.5,-204 482.5,-185 345.5,-185"/>
<text text-anchor="middle" x="414" y="-192" font-family="Helvetica,sans-Serif" font-size="10.00">JSystem/JUtility/JUTFont.h</text>
</a>
</g>
</g>
<!-- Node6&#45;&gt;Node26 -->
<g id="edge57" class="edge">
<title>Node6&#45;&gt;Node26</title>
<path fill="none" stroke="midnightblue" d="M691.7,-358.33C650.47,-331.46 526.97,-251.05 518,-246 493.24,-232.05 464.06,-218.08 442.92,-208.39"/>
<polygon fill="midnightblue" stroke="midnightblue" points="444.08,-205.07 433.53,-204.12 441.18,-211.44 444.08,-205.07"/>
</g>
<!-- Node29 -->
<g id="node29" class="node">
<title>Node29</title>
<g id="a_node29"><a xlink:href="JUTResFont_8h.html" target="_top" xlink:title=" ">
<polygon fill="white" stroke="black" points="355,-246.5 355,-265.5 509,-265.5 509,-246.5 355,-246.5"/>
<text text-anchor="middle" x="432" y="-253.5" font-family="Helvetica,sans-Serif" font-size="10.00">JSystem/JUtility/JUTResFont.h</text>
</a>
</g>
</g>
<!-- Node6&#45;&gt;Node29 -->
<g id="edge65" class="edge">
<title>Node6&#45;&gt;Node29</title>
<path fill="none" stroke="midnightblue" d="M653.33,-358.43C617.66,-351.39 569.7,-339.66 530,-322 500.21,-308.74 469.45,-286.73 450.52,-272.04"/>
<polygon fill="midnightblue" stroke="midnightblue" points="452.49,-269.14 442.47,-265.68 448.15,-274.63 452.49,-269.14"/>
</g>
<!-- Node30 -->
<g id="node30" class="node">
<title>Node30</title>
<g id="a_node30"><a xlink:href="JUTTexture_8h.html" target="_top" xlink:title=" ">
<polygon fill="white" stroke="black" points="1023.5,-246.5 1023.5,-265.5 1172.5,-265.5 1172.5,-246.5 1023.5,-246.5"/>
<text text-anchor="middle" x="1098" y="-253.5" font-family="Helvetica,sans-Serif" font-size="10.00">JSystem/JUtility/JUTTexture.h</text>
</a>
</g>
</g>
<!-- Node6&#45;&gt;Node30 -->
<g id="edge69" class="edge">
<title>Node6&#45;&gt;Node30</title>
<path fill="none" stroke="midnightblue" d="M736.66,-358.48C769.9,-349.51 823.67,-334.92 870,-322 936.35,-303.5 1013.38,-281.41 1058.78,-268.33"/>
<polygon fill="midnightblue" stroke="midnightblue" points="1059.88,-271.66 1068.52,-265.52 1057.94,-264.93 1059.88,-271.66"/>
</g>
<!-- Node32 -->
<g id="node32" class="node">
<title>Node32</title>
<g id="a_node32"><a xlink:href="mtx_8h.html" target="_top" xlink:title=" ">
<polygon fill="white" stroke="black" points="914,-185 914,-204 1006,-204 1006,-185 914,-185"/>
<text text-anchor="middle" x="960" y="-192" font-family="Helvetica,sans-Serif" font-size="10.00">dolphin/mtx/mtx.h</text>
</a>
</g>
</g>
<!-- Node6&#45;&gt;Node32 -->
<g id="edge74" class="edge">
<title>Node6&#45;&gt;Node32</title>
<path fill="none" stroke="midnightblue" d="M717.65,-358.5C758.6,-330.95 887.9,-243.99 938.96,-209.65"/>
<polygon fill="midnightblue" stroke="midnightblue" points="940.93,-212.54 947.28,-204.06 937.03,-206.73 940.93,-212.54"/>
</g>
<!-- Node7&#45;&gt;Node5 -->
<g id="edge15" class="edge">
<title>Node7&#45;&gt;Node5</title>
<path fill="none" stroke="midnightblue" d="M543.7,-179.36C530.3,-170.81 515.46,-158.54 508,-143 490.42,-106.38 502.29,-78.66 536,-56 579.89,-26.49 937.11,-15.26 1071.31,-12.06"/>
<polygon fill="midnightblue" stroke="midnightblue" points="1071.41,-15.56 1081.33,-11.83 1071.25,-8.56 1071.41,-15.56"/>
</g>
<!-- Node7&#45;&gt;Node8 -->
<g id="edge10" class="edge">
<title>Node7&#45;&gt;Node8</title>
<path fill="none" stroke="midnightblue" d="M571.43,-179.4C571.72,-170.06 572.1,-157.71 572.41,-147.52"/>
<polygon fill="midnightblue" stroke="midnightblue" points="575.92,-147.3 572.73,-137.19 568.93,-147.08 575.92,-147.3"/>
</g>
<!-- Node9 -->
<g id="node9" class="node">
<title>Node9</title>
<g id="a_node9"><a xlink:href="JUtility_8h.html" target="_top" xlink:title=" ">
<polygon fill="white" stroke="black" points="364.5,-118 364.5,-137 459.5,-137 459.5,-118 364.5,-118"/>
<text text-anchor="middle" x="412" y="-125" font-family="Helvetica,sans-Serif" font-size="10.00">JSystem/JUtility.h</text>
</a>
</g>
</g>
<!-- Node7&#45;&gt;Node9 -->
<g id="edge12" class="edge">
<title>Node7&#45;&gt;Node9</title>
<path fill="none" stroke="midnightblue" d="M536.5,-179.4C508.35,-167.89 468.99,-151.8 442.11,-140.81"/>
<polygon fill="midnightblue" stroke="midnightblue" points="443.39,-137.55 432.81,-137.01 440.74,-144.03 443.39,-137.55"/>
</g>
<!-- Node8&#45;&gt;Node5 -->
<g id="edge11" class="edge">
<title>Node8&#45;&gt;Node5</title>
<path fill="none" stroke="midnightblue" d="M564.33,-117.58C551.2,-103 529.45,-73.9 546,-56 581.31,-17.83 937.29,-11.97 1071.32,-11.12"/>
<polygon fill="midnightblue" stroke="midnightblue" points="1071.36,-14.62 1081.34,-11.07 1071.32,-7.62 1071.36,-14.62"/>
</g>
<!-- Node9&#45;&gt;Node4 -->
<g id="edge13" class="edge">
<title>Node9&#45;&gt;Node4</title>
<path fill="none" stroke="midnightblue" d="M404.98,-117.98C397.56,-108.96 385.67,-94.52 376.43,-83.31"/>
<polygon fill="midnightblue" stroke="midnightblue" points="379.07,-81 370.01,-75.51 373.66,-85.45 379.07,-81"/>
</g>
<!-- Node9&#45;&gt;Node5 -->
<g id="edge14" class="edge">
<title>Node9&#45;&gt;Node5</title>
<path fill="none" stroke="midnightblue" d="M416.56,-117.84C425.32,-102.25 446.1,-69.8 474,-56 526.94,-29.81 927.23,-16.35 1070.88,-12.32"/>
<polygon fill="midnightblue" stroke="midnightblue" points="1071.28,-15.81 1081.18,-12.04 1071.08,-8.82 1071.28,-15.81"/>
</g>
<!-- Node11 -->
<g id="node11" class="node">
<title>Node11</title>
<g id="a_node11"><a xlink:href="JKRCompression_8h.html" target="_top" xlink:title=" ">
<polygon fill="white" stroke="black" points="1855.5,-185 1855.5,-204 2032.5,-204 2032.5,-185 1855.5,-185"/>
<text text-anchor="middle" x="1944" y="-192" font-family="Helvetica,sans-Serif" font-size="10.00">JSystem/JKernel/JKRCompression.h</text>
</a>
</g>
</g>
<!-- Node10&#45;&gt;Node11 -->
<g id="edge18" class="edge">
<title>Node10&#45;&gt;Node11</title>
<path fill="none" stroke="midnightblue" d="M1855.49,-302.47C1874.4,-295.36 1898.91,-283.55 1915,-266 1928.38,-251.4 1936.03,-229.77 1940.07,-214.33"/>
<polygon fill="midnightblue" stroke="midnightblue" points="1943.54,-214.9 1942.41,-204.36 1936.72,-213.3 1943.54,-214.9"/>
</g>
<!-- Node12 -->
<g id="node12" class="node">
<title>Node12</title>
<g id="a_node12"><a xlink:href="JKRDecomp_8h.html" target="_top" xlink:title=" ">
<polygon fill="white" stroke="black" points="1750,-246.5 1750,-265.5 1906,-265.5 1906,-246.5 1750,-246.5"/>
<text text-anchor="middle" x="1828" y="-253.5" font-family="Helvetica,sans-Serif" font-size="10.00">JSystem/JKernel/JKRDecomp.h</text>
</a>
</g>
</g>
<!-- Node10&#45;&gt;Node12 -->
<g id="edge19" class="edge">
<title>Node10&#45;&gt;Node12</title>
<path fill="none" stroke="midnightblue" d="M1828,-302.08C1828,-295.01 1828,-284.86 1828,-275.99"/>
<polygon fill="midnightblue" stroke="midnightblue" points="1831.5,-275.75 1828,-265.75 1824.5,-275.75 1831.5,-275.75"/>
</g>
<!-- Node18 -->
<g id="node18" class="node">
<title>Node18</title>
<g id="a_node18"><a xlink:href="JKRDvdFile_8h.html" target="_top" xlink:title=" ">
<polygon fill="white" stroke="black" points="2132.5,-246.5 2132.5,-265.5 2285.5,-265.5 2285.5,-246.5 2132.5,-246.5"/>
<text text-anchor="middle" x="2209" y="-253.5" font-family="Helvetica,sans-Serif" font-size="10.00">JSystem/JKernel/JKRDvdFile.h</text>
</a>
</g>
</g>
<!-- Node10&#45;&gt;Node18 -->
<g id="edge33" class="edge">
<title>Node10&#45;&gt;Node18</title>
<path fill="none" stroke="midnightblue" d="M1888.37,-302.44C1956.37,-292.81 2066.74,-277.16 2138.6,-266.98"/>
<polygon fill="midnightblue" stroke="midnightblue" points="2139.5,-270.39 2148.91,-265.52 2138.52,-263.45 2139.5,-270.39"/>
</g>
<!-- Node20 -->
<g id="node20" class="node">
<title>Node20</title>
<g id="a_node20"><a xlink:href="JKRFileLoader_8h.html" target="_top" xlink:title=" ">
<polygon fill="white" stroke="black" points="1304,-185 1304,-204 1470,-204 1470,-185 1304,-185"/>
<text text-anchor="middle" x="1387" y="-192" font-family="Helvetica,sans-Serif" font-size="10.00">JSystem/JKernel/JKRFileLoader.h</text>
</a>
</g>
</g>
<!-- Node10&#45;&gt;Node20 -->
<g id="edge40" class="edge">
<title>Node10&#45;&gt;Node20</title>
<path fill="none" stroke="midnightblue" d="M1795.21,-302.41C1716.58,-281.82 1517.32,-229.63 1429.59,-206.65"/>
<polygon fill="midnightblue" stroke="midnightblue" points="1430.26,-203.21 1419.7,-204.06 1428.49,-209.98 1430.26,-203.21"/>
</g>
<!-- Node21 -->
<g id="node21" class="node">
<title>Node21</title>
<g id="a_node21"><a xlink:href="JKRHeap_8h.html" target="_top" xlink:title=" ">
<polygon fill="white" stroke="black" points="1488.5,-185 1488.5,-204 1631.5,-204 1631.5,-185 1488.5,-185"/>
<text text-anchor="middle" x="1560" y="-192" font-family="Helvetica,sans-Serif" font-size="10.00">JSystem/JKernel/JKRHeap.h</text>
</a>
</g>
</g>
<!-- Node10&#45;&gt;Node21 -->
<g id="edge44" class="edge">
<title>Node10&#45;&gt;Node21</title>
<path fill="none" stroke="midnightblue" d="M1807.86,-302.32C1760.99,-282.12 1644.44,-231.89 1589.52,-208.22"/>
<polygon fill="midnightblue" stroke="midnightblue" points="1590.58,-204.87 1580.01,-204.12 1587.81,-211.3 1590.58,-204.87"/>
</g>
<!-- Node22 -->
<g id="node22" class="node">
<title>Node22</title>
<g id="a_node22"><a xlink:href="global_8h.html" target="_top" xlink:title=" ">
<polygon fill="white" stroke="black" points="2304,-246.5 2304,-265.5 2354,-265.5 2354,-246.5 2304,-246.5"/>
<text text-anchor="middle" x="2329" y="-253.5" font-family="Helvetica,sans-Serif" font-size="10.00">global.h</text>
</a>
</g>
</g>
<!-- Node10&#45;&gt;Node22 -->
<g id="edge48" class="edge">
<title>Node10&#45;&gt;Node22</title>
<path fill="none" stroke="midnightblue" d="M1904.55,-307.45C1995.31,-302.38 2151.19,-290.99 2293.62,-265.97"/>
<polygon fill="midnightblue" stroke="midnightblue" points="2294.62,-269.35 2303.85,-264.14 2293.39,-262.46 2294.62,-269.35"/>
</g>
<!-- Node12&#45;&gt;Node5 -->
<g id="edge32" class="edge">
<title>Node12&#45;&gt;Node5</title>
<path fill="none" stroke="midnightblue" d="M1830.57,-246.2C1839.12,-214.97 1863.04,-108.45 1809,-56 1763.67,-12 1324.62,-9.98 1173.11,-10.62"/>
<polygon fill="midnightblue" stroke="midnightblue" points="1172.69,-7.12 1162.7,-10.67 1172.72,-14.12 1172.69,-7.12"/>
</g>
<!-- Node12&#45;&gt;Node11 -->
<g id="edge20" class="edge">
<title>Node12&#45;&gt;Node11</title>
<path fill="none" stroke="midnightblue" d="M1844.62,-246.48C1863.92,-236.58 1895.96,-220.14 1918.43,-208.62"/>
<polygon fill="midnightblue" stroke="midnightblue" points="1920.11,-211.69 1927.41,-204.01 1916.92,-205.46 1920.11,-211.69"/>
</g>
<!-- Node13 -->
<g id="node13" class="node">
<title>Node13</title>
<g id="a_node13"><a xlink:href="JKRThread_8h.html" target="_top" xlink:title=" ">
<polygon fill="white" stroke="black" points="1650,-185 1650,-204 1800,-204 1800,-185 1650,-185"/>
<text text-anchor="middle" x="1725" y="-192" font-family="Helvetica,sans-Serif" font-size="10.00">JSystem/JKernel/JKRThread.h</text>
</a>
</g>
</g>
<!-- Node12&#45;&gt;Node13 -->
<g id="edge21" class="edge">
<title>Node12&#45;&gt;Node13</title>
<path fill="none" stroke="midnightblue" d="M1813.24,-246.48C1796.34,-236.71 1768.42,-220.58 1748.51,-209.08"/>
<polygon fill="midnightblue" stroke="midnightblue" points="1750.14,-205.98 1739.73,-204.01 1746.64,-212.04 1750.14,-205.98"/>
</g>
<!-- Node13&#45;&gt;Node5 -->
<g id="edge31" class="edge">
<title>Node13&#45;&gt;Node5</title>
<path fill="none" stroke="midnightblue" d="M1716.64,-184.54C1702.07,-169.08 1670.82,-136.71 1642,-112 1610.42,-84.92 1605.77,-71.08 1567,-56 1496.23,-28.47 1273.86,-16.74 1172.84,-12.74"/>
<polygon fill="midnightblue" stroke="midnightblue" points="1172.71,-9.23 1162.58,-12.34 1172.44,-16.22 1172.71,-9.23"/>
</g>
<!-- Node14 -->
<g id="node14" class="node">
<title>Node14</title>
<g id="a_node14"><a xlink:href="JKRDisposer_8h.html" target="_top" xlink:title=" ">
<polygon fill="white" stroke="black" points="1475,-118 1475,-137 1633,-137 1633,-118 1475,-118"/>
<text text-anchor="middle" x="1554" y="-125" font-family="Helvetica,sans-Serif" font-size="10.00">JSystem/JKernel/JKRDisposer.h</text>
</a>
</g>
</g>
<!-- Node13&#45;&gt;Node14 -->
<g id="edge22" class="edge">
<title>Node13&#45;&gt;Node14</title>
<path fill="none" stroke="midnightblue" d="M1702.29,-184.87C1672.44,-173.52 1619.83,-153.52 1585.97,-140.65"/>
<polygon fill="midnightblue" stroke="midnightblue" points="1587.12,-137.35 1576.53,-137.06 1584.63,-143.89 1587.12,-137.35"/>
</g>
<!-- Node13&#45;&gt;Node15 -->
<g id="edge26" class="edge">
<title>Node13&#45;&gt;Node15</title>
<path fill="none" stroke="midnightblue" d="M1677.36,-185C1603.49,-171.71 1469.37,-147.09 1466,-143 1452.92,-127.13 1456.14,-102.41 1460.66,-85.5"/>
<polygon fill="midnightblue" stroke="midnightblue" points="1464.08,-86.28 1463.66,-75.69 1457.39,-84.23 1464.08,-86.28"/>
</g>
<!-- Node16 -->
<g id="node16" class="node">
<title>Node16</title>
<g id="a_node16"><a xlink:href="OS_8h.html" target="_top" xlink:title=" ">
<polygon fill="white" stroke="black" points="1689,-118 1689,-137 1775,-137 1775,-118 1689,-118"/>
<text text-anchor="middle" x="1732" y="-125" font-family="Helvetica,sans-Serif" font-size="10.00">dolphin/os/OS.h</text>
</a>
</g>
</g>
<!-- Node13&#45;&gt;Node16 -->
<g id="edge27" class="edge">
<title>Node13&#45;&gt;Node16</title>
<path fill="none" stroke="midnightblue" d="M1725.94,-184.73C1726.97,-175.18 1728.65,-159.62 1729.98,-147.28"/>
<polygon fill="midnightblue" stroke="midnightblue" points="1733.48,-147.44 1731.07,-137.13 1726.52,-146.7 1733.48,-147.44"/>
</g>
<!-- Node14&#45;&gt;Node5 -->
<g id="edge25" class="edge">
<title>Node14&#45;&gt;Node5</title>
<path fill="none" stroke="midnightblue" d="M1556.38,-117.71C1559.82,-102.78 1564.16,-72.49 1548,-56 1522.18,-29.65 1280.53,-17.12 1173.08,-12.81"/>
<polygon fill="midnightblue" stroke="midnightblue" points="1172.94,-9.3 1162.81,-12.4 1172.66,-16.29 1172.94,-9.3"/>
</g>
<!-- Node14&#45;&gt;Node15 -->
<g id="edge23" class="edge">
<title>Node14&#45;&gt;Node15</title>
<path fill="none" stroke="midnightblue" d="M1541.54,-117.98C1527.58,-108.43 1504.74,-92.81 1488.01,-81.37"/>
<polygon fill="midnightblue" stroke="midnightblue" points="1489.67,-78.27 1479.44,-75.51 1485.72,-84.04 1489.67,-78.27"/>
</g>
<!-- Node15&#45;&gt;Node5 -->
<g id="edge24" class="edge">
<title>Node15&#45;&gt;Node5</title>
<path fill="none" stroke="midnightblue" d="M1412.33,-56.44C1346.55,-46.15 1236.97,-29 1172.91,-18.97"/>
<polygon fill="midnightblue" stroke="midnightblue" points="1173.07,-15.45 1162.65,-17.36 1171.99,-22.37 1173.07,-15.45"/>
</g>
<!-- Node16&#45;&gt;Node5 -->
<g id="edge28" class="edge">
<title>Node16&#45;&gt;Node5</title>
<path fill="none" stroke="midnightblue" d="M1725.69,-117.61C1713.99,-101.96 1687.28,-69.82 1656,-56 1570.29,-18.14 1288.88,-12 1172.78,-11.1"/>
<polygon fill="midnightblue" stroke="midnightblue" points="1172.75,-7.6 1162.73,-11.03 1172.71,-14.6 1172.75,-7.6"/>
</g>
<!-- Node17 -->
<g id="node17" class="node">
<title>Node17</title>
<g id="a_node17"><a xlink:href="dvd_8h.html" target="_top" xlink:title=" ">
<polygon fill="white" stroke="black" points="1708,-56.5 1708,-75.5 1800,-75.5 1800,-56.5 1708,-56.5"/>
<text text-anchor="middle" x="1754" y="-63.5" font-family="Helvetica,sans-Serif" font-size="10.00">dolphin/dvd/dvd.h</text>
</a>
</g>
</g>
<!-- Node16&#45;&gt;Node17 -->
<g id="edge29" class="edge">
<title>Node16&#45;&gt;Node17</title>
<path fill="none" stroke="midnightblue" d="M1735.15,-117.98C1738.32,-109.4 1743.3,-95.93 1747.35,-84.98"/>
<polygon fill="midnightblue" stroke="midnightblue" points="1750.67,-86.1 1750.85,-75.51 1744.1,-83.67 1750.67,-86.1"/>
</g>
<!-- Node17&#45;&gt;Node5 -->
<g id="edge30" class="edge">
<title>Node17&#45;&gt;Node5</title>
<path fill="none" stroke="midnightblue" d="M1707.86,-57.74C1703.18,-57.11 1698.5,-56.51 1694,-56 1502.11,-34.09 1272.78,-19.55 1172.79,-13.79"/>
<polygon fill="midnightblue" stroke="midnightblue" points="1172.85,-10.29 1162.67,-13.21 1172.45,-17.28 1172.85,-10.29"/>
</g>
<!-- Node18&#45;&gt;Node5 -->
<g id="edge39" class="edge">
<title>Node18&#45;&gt;Node5</title>
<path fill="none" stroke="midnightblue" d="M2216.55,-246.27C2228.54,-231.31 2249.1,-200.31 2234,-179 2138.68,-44.46 2045.65,-88.51 1884,-56 1747.29,-28.51 1320.39,-15.81 1172.81,-12.16"/>
<polygon fill="midnightblue" stroke="midnightblue" points="1172.75,-8.65 1162.67,-11.91 1172.58,-15.65 1172.75,-8.65"/>
</g>
<!-- Node18&#45;&gt;Node16 -->
<g id="edge38" class="edge">
<title>Node18&#45;&gt;Node16</title>
<path fill="none" stroke="midnightblue" d="M2210.48,-246.43C2212.67,-230.56 2214.72,-196.61 2196,-179 2166.53,-151.28 1900.63,-136.07 1785.14,-130.73"/>
<polygon fill="midnightblue" stroke="midnightblue" points="1785.25,-127.23 1775.11,-130.27 1784.94,-134.22 1785.25,-127.23"/>
</g>
<!-- Node18&#45;&gt;Node17 -->
<g id="edge37" class="edge">
<title>Node18&#45;&gt;Node17</title>
<path fill="none" stroke="midnightblue" d="M2213.43,-246.4C2220.63,-231.08 2232.59,-198.81 2217,-179 2166.91,-115.35 1922.39,-83.53 1810.32,-72.1"/>
<polygon fill="midnightblue" stroke="midnightblue" points="1810.52,-68.6 1800.22,-71.09 1809.82,-75.57 1810.52,-68.6"/>
</g>
<!-- Node19 -->
<g id="node19" class="node">
<title>Node19</title>
<g id="a_node19"><a xlink:href="JKRFile_8h.html" target="_top" xlink:title=" ">
<polygon fill="white" stroke="black" points="2051,-185 2051,-204 2187,-204 2187,-185 2051,-185"/>
<text text-anchor="middle" x="2119" y="-192" font-family="Helvetica,sans-Serif" font-size="10.00">JSystem/JKernel/JKRFile.h</text>
</a>
</g>
</g>
<!-- Node18&#45;&gt;Node19 -->
<g id="edge34" class="edge">
<title>Node18&#45;&gt;Node19</title>
<path fill="none" stroke="midnightblue" d="M2196.11,-246.48C2181.54,-236.84 2157.6,-221.02 2140.25,-209.55"/>
<polygon fill="midnightblue" stroke="midnightblue" points="2142.14,-206.6 2131.87,-204.01 2138.28,-212.44 2142.14,-206.6"/>
</g>
<!-- Node19&#45;&gt;Node5 -->
<g id="edge36" class="edge">
<title>Node19&#45;&gt;Node5</title>
<path fill="none" stroke="midnightblue" d="M2106.48,-184.96C2068.65,-159.71 1951.43,-85.3 1842,-56 1715.56,-22.15 1315.61,-13.58 1173.07,-11.57"/>
<polygon fill="midnightblue" stroke="midnightblue" points="1172.91,-8.07 1162.86,-11.43 1172.81,-15.07 1172.91,-8.07"/>
</g>
<!-- Node19&#45;&gt;Node14 -->
<g id="edge35" class="edge">
<title>Node19&#45;&gt;Node14</title>
<path fill="none" stroke="midnightblue" d="M2077.15,-184.93C2065.78,-182.79 2053.45,-180.64 2042,-179 1881.96,-156.02 1840.76,-160.24 1680,-143 1665.86,-141.48 1650.83,-139.81 1636.27,-138.15"/>
<polygon fill="midnightblue" stroke="midnightblue" points="1636.6,-134.67 1626.27,-137.01 1635.81,-141.62 1636.6,-134.67"/>
</g>
<!-- Node20&#45;&gt;Node5 -->
<g id="edge43" class="edge">
<title>Node20&#45;&gt;Node5</title>
<path fill="none" stroke="midnightblue" d="M1383.32,-184.84C1372.54,-160.5 1338.54,-91 1288,-56 1253.82,-32.32 1207.7,-21.09 1172.76,-15.77"/>
<polygon fill="midnightblue" stroke="midnightblue" points="1173.14,-12.29 1162.75,-14.36 1172.17,-19.22 1173.14,-12.29"/>
</g>
<!-- Node20&#45;&gt;Node14 -->
<g id="edge41" class="edge">
<title>Node20&#45;&gt;Node14</title>
<path fill="none" stroke="midnightblue" d="M1409.18,-184.87C1438.2,-173.57 1489.27,-153.7 1522.35,-140.82"/>
<polygon fill="midnightblue" stroke="midnightblue" points="1523.95,-143.95 1532,-137.06 1521.41,-137.43 1523.95,-143.95"/>
</g>
<!-- Node20&#45;&gt;Node15 -->
<g id="edge42" class="edge">
<title>Node20&#45;&gt;Node15</title>
<path fill="none" stroke="midnightblue" d="M1391.47,-184.71C1399.29,-169.52 1416.25,-137.54 1433,-112 1439.31,-102.38 1446.99,-92.11 1453.45,-83.81"/>
<polygon fill="midnightblue" stroke="midnightblue" points="1456.4,-85.72 1459.87,-75.71 1450.92,-81.38 1456.4,-85.72"/>
</g>
<!-- Node21&#45;&gt;Node5 -->
<g id="edge47" class="edge">
<title>Node21&#45;&gt;Node5</title>
<path fill="none" stroke="midnightblue" d="M1539.73,-184.91C1517.75,-175.39 1481.82,-159.22 1452,-143 1387.98,-108.17 1380.26,-84.07 1313,-56 1267.3,-36.93 1211.93,-25.01 1172.59,-18.27"/>
<polygon fill="midnightblue" stroke="midnightblue" points="1173.14,-14.81 1162.7,-16.62 1171.99,-21.71 1173.14,-14.81"/>
</g>
<!-- Node21&#45;&gt;Node14 -->
<g id="edge45" class="edge">
<title>Node21&#45;&gt;Node14</title>
<path fill="none" stroke="midnightblue" d="M1559.19,-184.73C1558.31,-175.18 1556.87,-159.62 1555.73,-147.28"/>
<polygon fill="midnightblue" stroke="midnightblue" points="1559.2,-146.76 1554.8,-137.13 1552.23,-147.41 1559.2,-146.76"/>
</g>
<!-- Node21&#45;&gt;Node16 -->
<g id="edge46" class="edge">
<title>Node21&#45;&gt;Node16</title>
<path fill="none" stroke="midnightblue" d="M1582.84,-184.87C1612.87,-173.52 1665.78,-153.52 1699.84,-140.65"/>
<polygon fill="midnightblue" stroke="midnightblue" points="1701.22,-143.87 1709.34,-137.06 1698.75,-137.32 1701.22,-143.87"/>
</g>
<!-- Node22&#45;&gt;Node5 -->
<g id="edge49" class="edge">
<title>Node22&#45;&gt;Node5</title>
<path fill="none" stroke="midnightblue" d="M2323.81,-246.34C2308.37,-221.34 2259.99,-148.48 2200,-112 2116,-60.92 2083.15,-71.08 1986,-56 1827.6,-31.41 1332.74,-16.54 1172.57,-12.28"/>
<polygon fill="midnightblue" stroke="midnightblue" points="1172.6,-8.78 1162.51,-12.01 1172.41,-15.78 1172.6,-8.78"/>
</g>
<!-- Node23&#45;&gt;Node5 -->
<g id="edge56" class="edge">
<title>Node23&#45;&gt;Node5</title>
<path fill="none" stroke="midnightblue" d="M772.62,-179.3C768.74,-150.58 764.8,-85.83 802,-56 842.47,-23.55 991.48,-14.5 1071.08,-11.98"/>
<polygon fill="midnightblue" stroke="midnightblue" points="1071.48,-15.47 1081.37,-11.67 1071.27,-8.47 1071.48,-15.47"/>
</g>
<!-- Node24 -->
<g id="node24" class="node">
<title>Node24</title>
<g id="a_node24"><a xlink:href="JSUInputStream_8h.html" target="_top" xlink:title=" ">
<polygon fill="white" stroke="black" points="789.5,-112.5 789.5,-142.5 930.5,-142.5 930.5,-112.5 789.5,-112.5"/>
<text text-anchor="start" x="797.5" y="-130.5" font-family="Helvetica,sans-Serif" font-size="10.00">JSystem/JSupport/JSUInput</text>
<text text-anchor="middle" x="860" y="-119.5" font-family="Helvetica,sans-Serif" font-size="10.00">Stream.h</text>
</a>
</g>
</g>
<!-- Node23&#45;&gt;Node24 -->
<g id="edge52" class="edge">
<title>Node23&#45;&gt;Node24</title>
<path fill="none" stroke="midnightblue" d="M793.44,-179.4C805.14,-170.45 820.46,-158.74 833.45,-148.8"/>
<polygon fill="midnightblue" stroke="midnightblue" points="835.77,-151.43 841.59,-142.58 831.52,-145.87 835.77,-151.43"/>
</g>
<!-- Node24&#45;&gt;Node5 -->
<g id="edge55" class="edge">
<title>Node24&#45;&gt;Node5</title>
<path fill="none" stroke="midnightblue" d="M838.99,-112.3C819.69,-97.55 796.3,-74.14 812,-56 844.91,-17.97 992.07,-11.4 1071.22,-10.69"/>
<polygon fill="midnightblue" stroke="midnightblue" points="1071.47,-14.19 1081.45,-10.62 1071.43,-7.19 1071.47,-14.19"/>
</g>
<!-- Node25 -->
<g id="node25" class="node">
<title>Node25</title>
<g id="a_node25"><a xlink:href="JSUIosBase_8h.html" target="_top" xlink:title=" ">
<polygon fill="white" stroke="black" points="820.5,-56.5 820.5,-75.5 983.5,-75.5 983.5,-56.5 820.5,-56.5"/>
<text text-anchor="middle" x="902" y="-63.5" font-family="Helvetica,sans-Serif" font-size="10.00">JSystem/JSupport/JSUIosBase.h</text>
</a>
</g>
</g>
<!-- Node24&#45;&gt;Node25 -->
<g id="edge53" class="edge">
<title>Node24&#45;&gt;Node25</title>
<path fill="none" stroke="midnightblue" d="M869.95,-112.4C875.99,-103.84 883.74,-92.87 890.1,-83.86"/>
<polygon fill="midnightblue" stroke="midnightblue" points="892.98,-85.85 895.89,-75.66 887.26,-81.81 892.98,-85.85"/>
</g>
<!-- Node25&#45;&gt;Node5 -->
<g id="edge54" class="edge">
<title>Node25&#45;&gt;Node5</title>
<path fill="none" stroke="midnightblue" d="M936.86,-56.44C974.92,-47.1 1035.96,-32.12 1077.46,-21.93"/>
<polygon fill="midnightblue" stroke="midnightblue" points="1078.43,-25.3 1087.3,-19.52 1076.76,-18.5 1078.43,-25.3"/>
</g>
<!-- Node26&#45;&gt;Node5 -->
<g id="edge64" class="edge">
<title>Node26&#45;&gt;Node5</title>
<path fill="none" stroke="midnightblue" d="M396.54,-184.88C354,-162.83 251.66,-102.82 296,-56 322.75,-27.76 895.98,-15.09 1071.43,-11.86"/>
<polygon fill="midnightblue" stroke="midnightblue" points="1071.5,-15.36 1081.43,-11.68 1071.37,-8.36 1071.5,-15.36"/>
</g>
<!-- Node26&#45;&gt;Node9 -->
<g id="edge58" class="edge">
<title>Node26&#45;&gt;Node9</title>
<path fill="none" stroke="midnightblue" d="M413.73,-184.73C413.44,-175.18 412.96,-159.62 412.58,-147.28"/>
<polygon fill="midnightblue" stroke="midnightblue" points="416.07,-147.01 412.27,-137.13 409.07,-147.23 416.07,-147.01"/>
</g>
<!-- Node27 -->
<g id="node27" class="node">
<title>Node27</title>
<g id="a_node27"><a xlink:href="GX_8h.html" target="_top" xlink:title=" ">
<polygon fill="white" stroke="black" points="647.5,-118 647.5,-137 732.5,-137 732.5,-118 647.5,-118"/>
<text text-anchor="middle" x="690" y="-125" font-family="Helvetica,sans-Serif" font-size="10.00">dolphin/gx/GX.h</text>
</a>
</g>
</g>
<!-- Node26&#45;&gt;Node27 -->
<g id="edge59" class="edge">
<title>Node26&#45;&gt;Node27</title>
<path fill="none" stroke="midnightblue" d="M455.22,-184.97C500.47,-175.45 575.17,-159.22 639,-143 642.9,-142.01 646.96,-140.93 651.01,-139.83"/>
<polygon fill="midnightblue" stroke="midnightblue" points="652.25,-143.12 660.95,-137.06 650.38,-136.37 652.25,-143.12"/>
</g>
<!-- Node27&#45;&gt;Node4 -->
<g id="edge62" class="edge">
<title>Node27&#45;&gt;Node4</title>
<path fill="none" stroke="midnightblue" d="M662.09,-117.94C654.63,-115.82 646.55,-113.68 639,-112 568.96,-96.39 487.8,-83.8 431.7,-75.95"/>
<polygon fill="midnightblue" stroke="midnightblue" points="431.91,-72.45 421.53,-74.54 430.95,-79.38 431.91,-72.45"/>
</g>
<!-- Node27&#45;&gt;Node5 -->
<g id="edge63" class="edge">
<title>Node27&#45;&gt;Node5</title>
<path fill="none" stroke="midnightblue" d="M693.37,-117.76C699.82,-102.34 715.48,-70.55 740,-56 794.88,-23.43 980.75,-14.41 1071.42,-11.93"/>
<polygon fill="midnightblue" stroke="midnightblue" points="1071.56,-15.43 1081.47,-11.67 1071.38,-8.43 1071.56,-15.43"/>
</g>
<!-- Node28 -->
<g id="node28" class="node">
<title>Node28</title>
<g id="a_node28"><a xlink:href="GXDisplayList_8h.html" target="_top" xlink:title=" ">
<polygon fill="white" stroke="black" points="554.5,-56.5 554.5,-75.5 687.5,-75.5 687.5,-56.5 554.5,-56.5"/>
<text text-anchor="middle" x="621" y="-63.5" font-family="Helvetica,sans-Serif" font-size="10.00">dolphin/gx/GXDisplayList.h</text>
</a>
</g>
</g>
<!-- Node27&#45;&gt;Node28 -->
<g id="edge60" class="edge">
<title>Node27&#45;&gt;Node28</title>
<path fill="none" stroke="midnightblue" d="M680.11,-117.98C669.35,-108.7 651.93,-93.67 638.78,-82.33"/>
<polygon fill="midnightblue" stroke="midnightblue" points="640.73,-79.39 630.87,-75.51 636.16,-84.69 640.73,-79.39"/>
</g>
<!-- Node28&#45;&gt;Node5 -->
<g id="edge61" class="edge">
<title>Node28&#45;&gt;Node5</title>
<path fill="none" stroke="midnightblue" d="M687.74,-57.56C692.57,-57.03 697.36,-56.51 702,-56 835.26,-41.46 992.35,-24.74 1071.3,-16.37"/>
<polygon fill="midnightblue" stroke="midnightblue" points="1071.87,-19.83 1081.45,-15.29 1071.14,-12.87 1071.87,-19.83"/>
</g>
<!-- Node29&#45;&gt;Node5 -->
<g id="edge68" class="edge">
<title>Node29&#45;&gt;Node5</title>
<path fill="none" stroke="midnightblue" d="M403.78,-246.42C383.48,-239.18 356.37,-227.22 337,-210 282.57,-161.62 230.9,-108.86 281,-56 308.28,-27.23 893.21,-14.9 1071.12,-11.81"/>
<polygon fill="midnightblue" stroke="midnightblue" points="1071.32,-15.31 1081.26,-11.64 1071.2,-8.31 1071.32,-15.31"/>
</g>
<!-- Node29&#45;&gt;Node21 -->
<g id="edge66" class="edge">
<title>Node29&#45;&gt;Node21</title>
<path fill="none" stroke="midnightblue" d="M509.11,-255.22C682.82,-254.94 1117.78,-249.91 1479,-210 1488.59,-208.94 1498.76,-207.43 1508.53,-205.78"/>
<polygon fill="midnightblue" stroke="midnightblue" points="1509.29,-209.2 1518.53,-204.03 1508.08,-202.31 1509.29,-209.2"/>
</g>
<!-- Node29&#45;&gt;Node26 -->
<g id="edge67" class="edge">
<title>Node29&#45;&gt;Node26</title>
<path fill="none" stroke="midnightblue" d="M429.42,-246.48C426.85,-237.99 422.83,-224.7 419.54,-213.82"/>
<polygon fill="midnightblue" stroke="midnightblue" points="422.82,-212.57 416.57,-204.01 416.12,-214.59 422.82,-212.57"/>
</g>
<!-- Node30&#45;&gt;Node5 -->
<g id="edge73" class="edge">
<title>Node30&#45;&gt;Node5</title>
<path fill="none" stroke="midnightblue" d="M1129.43,-246.43C1147.74,-239.69 1169.45,-228.3 1181,-210 1217.57,-152.06 1220.01,-116.58 1188,-56 1180.58,-41.95 1166.58,-31.47 1153.38,-24.17"/>
<polygon fill="midnightblue" stroke="midnightblue" points="1154.96,-21.04 1144.46,-19.62 1151.78,-27.28 1154.96,-21.04"/>
</g>
<!-- Node31 -->
<g id="node31" class="node">
<title>Node31</title>
<g id="a_node31"><a xlink:href="JUTPalette_8h.html" target="_top" xlink:title=" ">
<polygon fill="white" stroke="black" points="1024,-185 1024,-204 1172,-204 1172,-185 1024,-185"/>
<text text-anchor="middle" x="1098" y="-192" font-family="Helvetica,sans-Serif" font-size="10.00">JSystem/JUtility/JUTPalette.h</text>
</a>
</g>
</g>
<!-- Node30&#45;&gt;Node31 -->
<g id="edge70" class="edge">
<title>Node30&#45;&gt;Node31</title>
<path fill="none" stroke="midnightblue" d="M1098,-246.48C1098,-238.08 1098,-224.98 1098,-214.16"/>
<polygon fill="midnightblue" stroke="midnightblue" points="1101.5,-214.01 1098,-204.01 1094.5,-214.01 1101.5,-214.01"/>
</g>
<!-- Node31&#45;&gt;Node5 -->
<g id="edge72" class="edge">
<title>Node31&#45;&gt;Node5</title>
<path fill="none" stroke="midnightblue" d="M1110.71,-184.91C1123.18,-175.86 1141.88,-160.51 1153,-143 1169.73,-116.66 1169.28,-106.85 1174,-76 1175.34,-67.21 1177.7,-64.08 1174,-56 1168.22,-43.36 1156.95,-32.91 1146.37,-25.27"/>
<polygon fill="midnightblue" stroke="midnightblue" points="1148.04,-22.18 1137.78,-19.53 1144.15,-28 1148.04,-22.18"/>
</g>
<!-- Node31&#45;&gt;Node27 -->
<g id="edge71" class="edge">
<title>Node31&#45;&gt;Node27</title>
<path fill="none" stroke="midnightblue" d="M1050.19,-184.98C1038.67,-182.97 1026.4,-180.87 1015,-179 911.17,-161.95 884.96,-159.28 781,-143 768.53,-141.05 755.1,-138.92 742.49,-136.91"/>
<polygon fill="midnightblue" stroke="midnightblue" points="743.01,-133.45 732.58,-135.33 741.91,-140.36 743.01,-133.45"/>
</g>
<!-- Node32&#45;&gt;Node5 -->
<g id="edge80" class="edge">
<title>Node32&#45;&gt;Node5</title>
<path fill="none" stroke="midnightblue" d="M989.29,-184.94C1029.3,-173.01 1097,-151.85 1105,-143 1133.19,-111.82 1129.9,-58.29 1125.63,-29.92"/>
<polygon fill="midnightblue" stroke="midnightblue" points="1129.03,-29.02 1123.9,-19.76 1122.13,-30.2 1129.03,-29.02"/>
</g>
<!-- Node33 -->
<g id="node33" class="node">
<title>Node33</title>
<g id="a_node33"><a xlink:href="quat_8h.html" target="_top" xlink:title=" ">
<polygon fill="white" stroke="black" points="1000.5,-118 1000.5,-137 1095.5,-137 1095.5,-118 1000.5,-118"/>
<text text-anchor="middle" x="1048" y="-125" font-family="Helvetica,sans-Serif" font-size="10.00">dolphin/mtx/quat.h</text>
</a>
</g>
</g>
<!-- Node32&#45;&gt;Node33 -->
<g id="edge75" class="edge">
<title>Node32&#45;&gt;Node33</title>
<path fill="none" stroke="midnightblue" d="M971.87,-184.73C986.25,-174.11 1010.7,-156.05 1028.01,-143.26"/>
<polygon fill="midnightblue" stroke="midnightblue" points="1030.36,-145.88 1036.32,-137.13 1026.2,-140.25 1030.36,-145.88"/>
</g>
<!-- Node34 -->
<g id="node34" class="node">
<title>Node34</title>
<g id="a_node34"><a xlink:href="vec_8h.html" target="_top" xlink:title=" ">
<polygon fill="white" stroke="black" points="1002,-56.5 1002,-75.5 1094,-75.5 1094,-56.5 1002,-56.5"/>
<text text-anchor="middle" x="1048" y="-63.5" font-family="Helvetica,sans-Serif" font-size="10.00">dolphin/mtx/vec.h</text>
</a>
</g>
</g>
<!-- Node32&#45;&gt;Node34 -->
<g id="edge79" class="edge">
<title>Node32&#45;&gt;Node34</title>
<path fill="none" stroke="midnightblue" d="M961.81,-184.93C965.45,-169.25 974.8,-135.39 992,-112 1000.86,-99.95 1013.71,-89.31 1024.87,-81.41"/>
<polygon fill="midnightblue" stroke="midnightblue" points="1027.02,-84.18 1033.34,-75.68 1023.1,-78.38 1027.02,-84.18"/>
</g>
<!-- Node33&#45;&gt;Node5 -->
<g id="edge78" class="edge">
<title>Node33&#45;&gt;Node5</title>
<path fill="none" stroke="midnightblue" d="M1060.78,-117.95C1073.3,-108.94 1092.05,-93.61 1103,-76 1111.83,-61.8 1116.71,-43.32 1119.31,-29.7"/>
<polygon fill="midnightblue" stroke="midnightblue" points="1122.8,-30.04 1120.99,-19.6 1115.89,-28.89 1122.8,-30.04"/>
</g>
<!-- Node33&#45;&gt;Node34 -->
<g id="edge76" class="edge">
<title>Node33&#45;&gt;Node34</title>
<path fill="none" stroke="midnightblue" d="M1048,-117.98C1048,-109.58 1048,-96.48 1048,-85.66"/>
<polygon fill="midnightblue" stroke="midnightblue" points="1051.5,-85.51 1048,-75.51 1044.5,-85.51 1051.5,-85.51"/>
</g>
<!-- Node34&#45;&gt;Node5 -->
<g id="edge77" class="edge">
<title>Node34&#45;&gt;Node5</title>
<path fill="none" stroke="midnightblue" d="M1059.89,-56.32C1071.15,-48.11 1088.29,-35.6 1101.71,-25.81"/>
<polygon fill="midnightblue" stroke="midnightblue" points="1103.88,-28.56 1109.89,-19.83 1099.75,-22.9 1103.88,-28.56"/>
</g>
</g>
</svg>
        <g id="navigator" transform="translate(0 0)" fill="#404254">
                <rect fill="#f2f5e9" fill-opacity="0.5" stroke="#606060" stroke-width=".5" x="0" y="0" width="60" height="60"/>
                <use id="zoomplus" xlink:href="#zoomPlus" x="17" y="9" onmousedown="handleZoom(evt,'in')"/>
                <use id="zoomminus" xlink:href="#zoomMin" x="42" y="9" onmousedown="handleZoom(evt,'out')"/>
                <use id="reset" xlink:href="#resetDef" x="30" y="36" onmousedown="handleReset()"/>
                <g id="arrowUp" xlink:href="#dirArrow" transform="translate(30 24)" onmousedown="handlePan(0,-1)">
                  <use xlink:href="#rim" fill="#404040">
                        <set attributeName="fill" to="#808080" begin="arrowUp.mouseover" end="arrowUp.mouseout"/>
                  </use>
                  <path fill="none" stroke="white" stroke-width="1.5" d="M0,-3.0v7 M-2.5,-0.5L0,-3.0L2.5,-0.5"/>
                </g>
                <g id="arrowRight" xlink:href="#dirArrow" transform="rotate(90) translate(36 -43)" onmousedown="handlePan(1,0)">
                  <use xlink:href="#rim" fill="#404040">
                        <set attributeName="fill" to="#808080" begin="arrowRight.mouseover" end="arrowRight.mouseout"/>
                  </use>
                  <path fill="none" stroke="white" stroke-width="1.5" d="M0,-3.0v7 M-2.5,-0.5L0,-3.0L2.5,-0.5"/>
                </g>
                <g id="arrowDown" xlink:href="#dirArrow" transform="rotate(180) translate(-30 -48)" onmousedown="handlePan(0,1)">
                  <use xlink:href="#rim" fill="#404040">
                        <set attributeName="fill" to="#808080" begin="arrowDown.mouseover" end="arrowDown.mouseout"/>
                  </use>
                  <path fill="none" stroke="white" stroke-width="1.5" d="M0,-3.0v7 M-2.5,-0.5L0,-3.0L2.5,-0.5"/>
                </g>
                <g id="arrowLeft" xlink:href="#dirArrow" transform="rotate(270) translate(-36 17)" onmousedown="handlePan(-1,0)">
                  <use xlink:href="#rim" fill="#404040">
                        <set attributeName="fill" to="#808080" begin="arrowLeft.mouseover" end="arrowLeft.mouseout"/>
                  </use>
                  <path fill="none" stroke="white" stroke-width="1.5" d="M0,-3.0v7 M-2.5,-0.5L0,-3.0L2.5,-0.5"/>
                </g>
        </g>
        <svg viewBox="0 0 15 15" width="100%" height="30px" preserveAspectRatio="xMaxYMin meet">
         <g id="arrow_out" transform="scale(0.3 0.3)">
          <a xlink:href="J2DTextBox_8h__incl_org.svg" target="_base">
           <rect id="button" ry="5" rx="5" y="6" x="6" height="38" width="38"
                fill="#f2f5e9" fill-opacity="0.5" stroke="#606060" stroke-width="1.0"/>
           <path id="arrow"
             d="M 11.500037,31.436501 C 11.940474,20.09759 22.043105,11.32322 32.158766,21.979434 L 37.068811,17.246167 C 37.068811,17.246167 37.088388,32 37.088388,32 L 22.160133,31.978069 C 22.160133,31.978069 26.997745,27.140456 26.997745,27.140456 C 18.528582,18.264221 13.291696,25.230495 11.500037,31.436501 z"
             style="fill:#404040;"/>
          </a>
         </g>
        </svg>
</svg>
