<?xml version="1.0" encoding="UTF-8" standalone="no"?>
<!DOCTYPE svg PUBLIC "-//W3C//DTD SVG 1.1//EN"
 "http://www.w3.org/Graphics/SVG/1.1/DTD/svg11.dtd">
<!-- Generated by graphviz version 2.44.0 ()
 -->
<!-- Title: include/JSystem/J2DGraph/J2DWindow.h Pages: 1 -->
<svg width="2371pt" height="464pt"
 viewBox="0.00 0.00 2370.52 464.00" xmlns="http://www.w3.org/2000/svg" xmlns:xlink="http://www.w3.org/1999/xlink">
<g id="graph0" class="graph" transform="scale(1 1) rotate(0) translate(4 460)">
<title>include/JSystem/J2DGraph/J2DWindow.h</title>
<polygon fill="white" stroke="transparent" points="-4,4 -4,-460 2366.52,-460 2366.52,4 -4,4"/>
<!-- Node1 -->
<g id="node1" class="node">
<title>Node1</title>
<g id="a_node1"><a xlink:title=" ">
<polygon fill="#bfbfbf" stroke="black" points="366.5,-425.5 366.5,-455.5 501.5,-455.5 501.5,-425.5 366.5,-425.5"/>
<text text-anchor="start" x="374.5" y="-443.5" font-family="Helvetica,sans-Serif" font-size="10.00">include/JSystem/J2DGraph</text>
<text text-anchor="middle" x="434" y="-432.5" font-family="Helvetica,sans-Serif" font-size="10.00">/J2DWindow.h</text>
</a>
</g>
</g>
<!-- Node2 -->
<g id="node2" class="node">
<title>Node2</title>
<g id="a_node2"><a xlink:href="J2DMaterial_8h.html" target="_top" xlink:title=" ">
<polygon fill="white" stroke="black" points="28,-179.5 28,-198.5 192,-198.5 192,-179.5 28,-179.5"/>
<text text-anchor="middle" x="110" y="-186.5" font-family="Helvetica,sans-Serif" font-size="10.00">JSystem/J2DGraph/J2DMaterial.h</text>
</a>
</g>
</g>
<!-- Node1&#45;&gt;Node2 -->
<g id="edge1" class="edge">
<title>Node1&#45;&gt;Node2</title>
<path fill="none" stroke="midnightblue" d="M415.65,-425.37C358.99,-381.74 187.12,-249.39 129.25,-204.82"/>
<polygon fill="midnightblue" stroke="midnightblue" points="131.33,-202.01 121.27,-198.68 127.06,-207.55 131.33,-202.01"/>
</g>
<!-- Node5 -->
<g id="node5" class="node">
<title>Node5</title>
<g id="a_node5"><a xlink:href="types_8h.html" target="_top" xlink:title=" ">
<polygon fill="white" stroke="black" points="1034.5,-0.5 1034.5,-19.5 1115.5,-19.5 1115.5,-0.5 1034.5,-0.5"/>
<text text-anchor="middle" x="1075" y="-7.5" font-family="Helvetica,sans-Serif" font-size="10.00">dolphin/types.h</text>
</a>
</g>
</g>
<!-- Node1&#45;&gt;Node5 -->
<g id="edge84" class="edge">
<title>Node1&#45;&gt;Node5</title>
<path fill="none" stroke="midnightblue" d="M366.19,-434.67C244.12,-424.11 0,-393.59 0,-318.5 0,-318.5 0,-318.5 0,-126.5 0,-22.15 811.12,-11.94 1024.22,-11.05"/>
<polygon fill="midnightblue" stroke="midnightblue" points="1024.51,-14.55 1034.5,-11.02 1024.48,-7.55 1024.51,-14.55"/>
</g>
<!-- Node6 -->
<g id="node6" class="node">
<title>Node6</title>
<g id="a_node6"><a xlink:href="J2DPane_8h.html" target="_top" xlink:title=" ">
<polygon fill="white" stroke="black" points="610,-369.5 610,-388.5 762,-388.5 762,-369.5 610,-369.5"/>
<text text-anchor="middle" x="686" y="-376.5" font-family="Helvetica,sans-Serif" font-size="10.00">JSystem/J2DGraph/J2DPane.h</text>
</a>
</g>
</g>
<!-- Node1&#45;&gt;Node6 -->
<g id="edge7" class="edge">
<title>Node1&#45;&gt;Node6</title>
<path fill="none" stroke="midnightblue" d="M493.4,-425.47C538.3,-414.87 599.03,-400.53 640.21,-390.81"/>
<polygon fill="midnightblue" stroke="midnightblue" points="641.04,-394.21 649.97,-388.51 639.44,-387.4 641.04,-394.21"/>
</g>
<!-- Node26 -->
<g id="node26" class="node">
<title>Node26</title>
<g id="a_node26"><a xlink:href="JSURandomInputStream_8h.html" target="_top" xlink:title=" ">
<polygon fill="white" stroke="black" points="2077.5,-302.5 2077.5,-332.5 2232.5,-332.5 2232.5,-302.5 2077.5,-302.5"/>
<text text-anchor="start" x="2085.5" y="-320.5" font-family="Helvetica,sans-Serif" font-size="10.00">JSystem/JSupport/JSURandom</text>
<text text-anchor="middle" x="2155" y="-309.5" font-family="Helvetica,sans-Serif" font-size="10.00">InputStream.h</text>
</a>
</g>
</g>
<!-- Node1&#45;&gt;Node26 -->
<g id="edge83" class="edge">
<title>Node1&#45;&gt;Node26</title>
<path fill="none" stroke="midnightblue" d="M501.69,-437.28C725.16,-429.5 1459.5,-400.14 2063,-333 2064.31,-332.85 2065.63,-332.7 2066.96,-332.55"/>
<polygon fill="midnightblue" stroke="midnightblue" points="2067.78,-335.97 2077.27,-331.26 2066.91,-329.03 2067.78,-335.97"/>
</g>
<!-- Node3 -->
<g id="node3" class="node">
<title>Node3</title>
<g id="a_node3"><a xlink:href="J2DAnimation_8h.html" target="_top" xlink:title=" ">
<polygon fill="white" stroke="black" points="456.5,-118 456.5,-137 629.5,-137 629.5,-118 456.5,-118"/>
<text text-anchor="middle" x="543" y="-125" font-family="Helvetica,sans-Serif" font-size="10.00">JSystem/J2DGraph/J2DAnimation.h</text>
</a>
</g>
</g>
<!-- Node2&#45;&gt;Node3 -->
<g id="edge2" class="edge">
<title>Node2&#45;&gt;Node3</title>
<path fill="none" stroke="midnightblue" d="M172.04,-179.48C251.14,-168.61 387.63,-149.85 471.16,-138.37"/>
<polygon fill="midnightblue" stroke="midnightblue" points="471.65,-141.84 481.08,-137.01 470.69,-134.9 471.65,-141.84"/>
</g>
<!-- Node2&#45;&gt;Node5 -->
<g id="edge6" class="edge">
<title>Node2&#45;&gt;Node5</title>
<path fill="none" stroke="midnightblue" d="M114.19,-179.46C126.77,-154.88 166.9,-83.98 224,-56 295.73,-20.85 852.07,-12.98 1024.33,-11.38"/>
<polygon fill="midnightblue" stroke="midnightblue" points="1024.43,-14.88 1034.4,-11.29 1024.37,-7.88 1024.43,-14.88"/>
</g>
<!-- Node4 -->
<g id="node4" class="node">
<title>Node4</title>
<g id="a_node4"><a xlink:href="GXTexture_8h.html" target="_top" xlink:title=" ">
<polygon fill="white" stroke="black" points="625.5,-56.5 625.5,-75.5 742.5,-75.5 742.5,-56.5 625.5,-56.5"/>
<text text-anchor="middle" x="684" y="-63.5" font-family="Helvetica,sans-Serif" font-size="10.00">dolphin/gx/GXTexture.h</text>
</a>
</g>
</g>
<!-- Node3&#45;&gt;Node4 -->
<g id="edge3" class="edge">
<title>Node3&#45;&gt;Node4</title>
<path fill="none" stroke="midnightblue" d="M563.2,-117.98C587.07,-107.9 627,-91.05 654.37,-79.5"/>
<polygon fill="midnightblue" stroke="midnightblue" points="655.98,-82.62 663.84,-75.51 653.26,-76.17 655.98,-82.62"/>
</g>
<!-- Node3&#45;&gt;Node5 -->
<g id="edge5" class="edge">
<title>Node3&#45;&gt;Node5</title>
<path fill="none" stroke="midnightblue" d="M547.97,-117.67C557.27,-102.09 578.92,-70.08 607,-56 679.12,-19.84 918.89,-12.69 1024.41,-11.31"/>
<polygon fill="midnightblue" stroke="midnightblue" points="1024.54,-14.81 1034.49,-11.19 1024.45,-7.81 1024.54,-14.81"/>
</g>
<!-- Node4&#45;&gt;Node5 -->
<g id="edge4" class="edge">
<title>Node4&#45;&gt;Node5</title>
<path fill="none" stroke="midnightblue" d="M742.54,-56.92C818.99,-46.36 951.59,-28.04 1024.08,-18.03"/>
<polygon fill="midnightblue" stroke="midnightblue" points="1024.89,-21.45 1034.32,-16.62 1023.94,-14.52 1024.89,-21.45"/>
</g>
<!-- Node6&#45;&gt;Node3 -->
<g id="edge8" class="edge">
<title>Node6&#45;&gt;Node3</title>
<path fill="none" stroke="midnightblue" d="M681.08,-369.41C660.49,-333.5 581.08,-194.94 552.95,-145.86"/>
<polygon fill="midnightblue" stroke="midnightblue" points="555.91,-143.99 547.9,-137.05 549.84,-147.47 555.91,-143.99"/>
</g>
<!-- Node6&#45;&gt;Node5 -->
<g id="edge82" class="edge">
<title>Node6&#45;&gt;Node5</title>
<path fill="none" stroke="midnightblue" d="M762.12,-371.32C835.08,-360.89 943.38,-334.21 1008,-266 1041,-231.17 1064.88,-82.41 1072.45,-29.65"/>
<polygon fill="midnightblue" stroke="midnightblue" points="1075.93,-30.06 1073.85,-19.67 1068.99,-29.08 1075.93,-30.06"/>
</g>
<!-- Node7 -->
<g id="node7" class="node">
<title>Node7</title>
<g id="a_node7"><a xlink:href="J2DGrafContext_8h.html" target="_top" xlink:title=" ">
<polygon fill="white" stroke="black" points="388,-235.5 388,-265.5 528,-265.5 528,-235.5 388,-235.5"/>
<text text-anchor="start" x="396" y="-253.5" font-family="Helvetica,sans-Serif" font-size="10.00">JSystem/J2DGraph/J2DGraf</text>
<text text-anchor="middle" x="458" y="-242.5" font-family="Helvetica,sans-Serif" font-size="10.00">Context.h</text>
</a>
</g>
</g>
<!-- Node6&#45;&gt;Node7 -->
<g id="edge9" class="edge">
<title>Node6&#45;&gt;Node7</title>
<path fill="none" stroke="midnightblue" d="M640.27,-369.46C610.77,-362.6 572.39,-351.08 542,-333 515.65,-317.33 491.18,-291.82 475.53,-273.51"/>
<polygon fill="midnightblue" stroke="midnightblue" points="478.08,-271.1 468.98,-265.67 472.7,-275.59 478.08,-271.1"/>
</g>
<!-- Node8 -->
<g id="node8" class="node">
<title>Node8</title>
<g id="a_node8"><a xlink:href="JGeometry_8h.html" target="_top" xlink:title=" ">
<polygon fill="white" stroke="black" points="210.5,-179.5 210.5,-198.5 323.5,-198.5 323.5,-179.5 210.5,-179.5"/>
<text text-anchor="middle" x="267" y="-186.5" font-family="Helvetica,sans-Serif" font-size="10.00">JSystem/JGeometry.h</text>
</a>
</g>
</g>
<!-- Node6&#45;&gt;Node8 -->
<g id="edge23" class="edge">
<title>Node6&#45;&gt;Node8</title>
<path fill="none" stroke="midnightblue" d="M609.78,-371.1C539.63,-363.79 441.42,-350.83 407,-333 348.01,-302.44 299.03,-237.75 278.03,-206.97"/>
<polygon fill="midnightblue" stroke="midnightblue" points="280.89,-204.95 272.42,-198.58 275.07,-208.84 280.89,-204.95"/>
</g>
<!-- Node10 -->
<g id="node10" class="node">
<title>Node10</title>
<g id="a_node10"><a xlink:href="mtx_8h.html" target="_top" xlink:title=" ">
<polygon fill="white" stroke="black" points="342,-179.5 342,-198.5 434,-198.5 434,-179.5 342,-179.5"/>
<text text-anchor="middle" x="388" y="-186.5" font-family="Helvetica,sans-Serif" font-size="10.00">dolphin/mtx/mtx.h</text>
</a>
</g>
</g>
<!-- Node6&#45;&gt;Node10 -->
<g id="edge81" class="edge">
<title>Node6&#45;&gt;Node10</title>
<path fill="none" stroke="midnightblue" d="M609.76,-375.65C534.95,-368.64 425.51,-344.61 379,-266 368.57,-248.37 373.97,-224.4 379.92,-208.13"/>
<polygon fill="midnightblue" stroke="midnightblue" points="383.23,-209.27 383.74,-198.69 376.74,-206.64 383.23,-209.27"/>
</g>
<!-- Node13 -->
<g id="node13" class="node">
<title>Node13</title>
<g id="a_node13"><a xlink:href="JKRArchive_8h.html" target="_top" xlink:title=" ">
<polygon fill="white" stroke="black" points="1342.5,-308 1342.5,-327 1495.5,-327 1495.5,-308 1342.5,-308"/>
<text text-anchor="middle" x="1419" y="-315" font-family="Helvetica,sans-Serif" font-size="10.00">JSystem/JKernel/JKRArchive.h</text>
</a>
</g>
</g>
<!-- Node6&#45;&gt;Node13 -->
<g id="edge24" class="edge">
<title>Node6&#45;&gt;Node13</title>
<path fill="none" stroke="midnightblue" d="M762.03,-371.83C899.27,-360.69 1187.58,-337.29 1332.28,-325.54"/>
<polygon fill="midnightblue" stroke="midnightblue" points="1332.76,-329.01 1342.44,-324.71 1332.19,-322.04 1332.76,-329.01"/>
</g>
<!-- Node18 -->
<g id="node18" class="node">
<title>Node18</title>
<g id="a_node18"><a xlink:href="JSUList_8h.html" target="_top" xlink:title=" ">
<polygon fill="white" stroke="black" points="1758.5,-56.5 1758.5,-75.5 1901.5,-75.5 1901.5,-56.5 1758.5,-56.5"/>
<text text-anchor="middle" x="1830" y="-63.5" font-family="Helvetica,sans-Serif" font-size="10.00">JSystem/JSupport/JSUList.h</text>
</a>
</g>
</g>
<!-- Node6&#45;&gt;Node18 -->
<g id="edge57" class="edge">
<title>Node6&#45;&gt;Node18</title>
<path fill="none" stroke="midnightblue" d="M762.11,-378.42C907.36,-378.22 1233.79,-372.85 1505,-333 1756.06,-296.11 1903.03,-398.38 2060,-199 2065.5,-192.02 2064.71,-186.54 2060,-179 2023.09,-119.97 1945.16,-91.24 1890.27,-77.83"/>
<polygon fill="midnightblue" stroke="midnightblue" points="1890.84,-74.37 1880.3,-75.51 1889.24,-81.19 1890.84,-74.37"/>
</g>
<!-- Node6&#45;&gt;Node26 -->
<g id="edge58" class="edge">
<title>Node6&#45;&gt;Node26</title>
<path fill="none" stroke="midnightblue" d="M762.26,-376.75C1012.54,-372.46 1807.46,-357.22 2063,-333 2064.31,-332.88 2065.64,-332.74 2066.97,-332.61"/>
<polygon fill="midnightblue" stroke="midnightblue" points="2067.74,-336.04 2077.29,-331.44 2066.96,-329.09 2067.74,-336.04"/>
</g>
<!-- Node29 -->
<g id="node29" class="node">
<title>Node29</title>
<g id="a_node29"><a xlink:href="JUTFont_8h.html" target="_top" xlink:title=" ">
<polygon fill="white" stroke="black" points="619.5,-179.5 619.5,-198.5 756.5,-198.5 756.5,-179.5 619.5,-179.5"/>
<text text-anchor="middle" x="688" y="-186.5" font-family="Helvetica,sans-Serif" font-size="10.00">JSystem/JUtility/JUTFont.h</text>
</a>
</g>
</g>
<!-- Node6&#45;&gt;Node29 -->
<g id="edge64" class="edge">
<title>Node6&#45;&gt;Node29</title>
<path fill="none" stroke="midnightblue" d="M683.03,-369.22C675.85,-346.71 658.83,-285.23 669,-235 670.89,-225.65 674.79,-215.83 678.57,-207.75"/>
<polygon fill="midnightblue" stroke="midnightblue" points="681.79,-209.14 683.12,-198.63 675.53,-206.01 681.79,-209.14"/>
</g>
<!-- Node32 -->
<g id="node32" class="node">
<title>Node32</title>
<g id="a_node32"><a xlink:href="JUTResFont_8h.html" target="_top" xlink:title=" ">
<polygon fill="white" stroke="black" points="678,-241 678,-260 832,-260 832,-241 678,-241"/>
<text text-anchor="middle" x="755" y="-248" font-family="Helvetica,sans-Serif" font-size="10.00">JSystem/JUtility/JUTResFont.h</text>
</a>
</g>
</g>
<!-- Node6&#45;&gt;Node32 -->
<g id="edge72" class="edge">
<title>Node6&#45;&gt;Node32</title>
<path fill="none" stroke="midnightblue" d="M690.74,-369.31C701.97,-348.72 730.35,-296.69 745.36,-269.18"/>
<polygon fill="midnightblue" stroke="midnightblue" points="748.51,-270.71 750.22,-260.26 742.36,-267.36 748.51,-270.71"/>
</g>
<!-- Node33 -->
<g id="node33" class="node">
<title>Node33</title>
<g id="a_node33"><a xlink:href="JUTTexture_8h.html" target="_top" xlink:title=" ">
<polygon fill="white" stroke="black" points="850.5,-241 850.5,-260 999.5,-260 999.5,-241 850.5,-241"/>
<text text-anchor="middle" x="925" y="-248" font-family="Helvetica,sans-Serif" font-size="10.00">JSystem/JUtility/JUTTexture.h</text>
</a>
</g>
</g>
<!-- Node6&#45;&gt;Node33 -->
<g id="edge76" class="edge">
<title>Node6&#45;&gt;Node33</title>
<path fill="none" stroke="midnightblue" d="M702.43,-369.31C743.46,-347.59 850.65,-290.85 899.76,-264.86"/>
<polygon fill="midnightblue" stroke="midnightblue" points="901.57,-267.86 908.77,-260.09 898.3,-261.67 901.57,-267.86"/>
</g>
<!-- Node7&#45;&gt;Node5 -->
<g id="edge22" class="edge">
<title>Node7&#45;&gt;Node5</title>
<path fill="none" stroke="midnightblue" d="M454.66,-235.05C447.81,-203.95 433.9,-131.9 447,-112 481.58,-59.45 516.02,-71.47 577,-56 736.62,-15.51 933.11,-10.32 1024.2,-10.34"/>
<polygon fill="midnightblue" stroke="midnightblue" points="1024.24,-13.84 1034.25,-10.37 1024.26,-6.84 1024.24,-13.84"/>
</g>
<!-- Node7&#45;&gt;Node8 -->
<g id="edge10" class="edge">
<title>Node7&#45;&gt;Node8</title>
<path fill="none" stroke="midnightblue" d="M412.74,-235.4C379.59,-225.07 335.15,-211.23 304.1,-201.56"/>
<polygon fill="midnightblue" stroke="midnightblue" points="305.1,-198.2 294.51,-198.57 303.02,-204.89 305.1,-198.2"/>
</g>
<!-- Node9 -->
<g id="node9" class="node">
<title>Node9</title>
<g id="a_node9"><a xlink:href="JUtility_8h.html" target="_top" xlink:title=" ">
<polygon fill="white" stroke="black" points="647.5,-118 647.5,-137 742.5,-137 742.5,-118 647.5,-118"/>
<text text-anchor="middle" x="695" y="-125" font-family="Helvetica,sans-Serif" font-size="10.00">JSystem/JUtility.h</text>
</a>
</g>
</g>
<!-- Node7&#45;&gt;Node9 -->
<g id="edge12" class="edge">
<title>Node7&#45;&gt;Node9</title>
<path fill="none" stroke="midnightblue" d="M485.65,-235.38C531.84,-211.8 624.04,-164.73 669.06,-141.74"/>
<polygon fill="midnightblue" stroke="midnightblue" points="670.86,-144.76 678.17,-137.09 667.67,-138.52 670.86,-144.76"/>
</g>
<!-- Node7&#45;&gt;Node10 -->
<g id="edge15" class="edge">
<title>Node7&#45;&gt;Node10</title>
<path fill="none" stroke="midnightblue" d="M441.41,-235.4C430.71,-226.31 416.81,-214.49 405.87,-205.19"/>
<polygon fill="midnightblue" stroke="midnightblue" points="408.07,-202.47 398.19,-198.66 403.54,-207.8 408.07,-202.47"/>
</g>
<!-- Node8&#45;&gt;Node5 -->
<g id="edge11" class="edge">
<title>Node8&#45;&gt;Node5</title>
<path fill="none" stroke="midnightblue" d="M252.63,-179.33C241.12,-171.47 225.81,-158.72 219,-143 202.62,-105.2 215.94,-77.64 251,-56 316.64,-15.48 855.01,-11.29 1024.27,-10.98"/>
<polygon fill="midnightblue" stroke="midnightblue" points="1024.41,-14.48 1034.41,-10.96 1024.4,-7.48 1024.41,-14.48"/>
</g>
<!-- Node9&#45;&gt;Node4 -->
<g id="edge13" class="edge">
<title>Node9&#45;&gt;Node4</title>
<path fill="none" stroke="midnightblue" d="M693.42,-117.98C691.87,-109.58 689.45,-96.48 687.45,-85.66"/>
<polygon fill="midnightblue" stroke="midnightblue" points="690.83,-84.71 685.57,-75.51 683.95,-85.98 690.83,-84.71"/>
</g>
<!-- Node9&#45;&gt;Node5 -->
<g id="edge14" class="edge">
<title>Node9&#45;&gt;Node5</title>
<path fill="none" stroke="midnightblue" d="M672.11,-117.92C641.59,-105.27 593.84,-80.44 616,-56 643.02,-26.2 910.51,-15.45 1024.25,-12.21"/>
<polygon fill="midnightblue" stroke="midnightblue" points="1024.54,-15.71 1034.44,-11.93 1024.34,-8.71 1024.54,-15.71"/>
</g>
<!-- Node10&#45;&gt;Node5 -->
<g id="edge21" class="edge">
<title>Node10&#45;&gt;Node5</title>
<path fill="none" stroke="midnightblue" d="M386.55,-179.21C383.17,-155.18 377.54,-88.11 414,-56 459.41,-16 876.86,-11.35 1023.98,-10.97"/>
<polygon fill="midnightblue" stroke="midnightblue" points="1024.1,-14.47 1034.1,-10.95 1024.09,-7.47 1024.1,-14.47"/>
</g>
<!-- Node11 -->
<g id="node11" class="node">
<title>Node11</title>
<g id="a_node11"><a xlink:href="quat_8h.html" target="_top" xlink:title=" ">
<polygon fill="white" stroke="black" points="228.5,-118 228.5,-137 323.5,-137 323.5,-118 228.5,-118"/>
<text text-anchor="middle" x="276" y="-125" font-family="Helvetica,sans-Serif" font-size="10.00">dolphin/mtx/quat.h</text>
</a>
</g>
</g>
<!-- Node10&#45;&gt;Node11 -->
<g id="edge16" class="edge">
<title>Node10&#45;&gt;Node11</title>
<path fill="none" stroke="midnightblue" d="M371.95,-179.48C353.41,-169.62 322.66,-153.29 300.98,-141.77"/>
<polygon fill="midnightblue" stroke="midnightblue" points="302.49,-138.61 292.02,-137.01 299.21,-144.79 302.49,-138.61"/>
</g>
<!-- Node12 -->
<g id="node12" class="node">
<title>Node12</title>
<g id="a_node12"><a xlink:href="vec_8h.html" target="_top" xlink:title=" ">
<polygon fill="white" stroke="black" points="270,-56.5 270,-75.5 362,-75.5 362,-56.5 270,-56.5"/>
<text text-anchor="middle" x="316" y="-63.5" font-family="Helvetica,sans-Serif" font-size="10.00">dolphin/mtx/vec.h</text>
</a>
</g>
</g>
<!-- Node10&#45;&gt;Node12 -->
<g id="edge20" class="edge">
<title>Node10&#45;&gt;Node12</title>
<path fill="none" stroke="midnightblue" d="M382.82,-179.3C371.04,-159.5 342.05,-110.78 326.41,-84.49"/>
<polygon fill="midnightblue" stroke="midnightblue" points="329.25,-82.43 321.13,-75.62 323.24,-86.01 329.25,-82.43"/>
</g>
<!-- Node11&#45;&gt;Node5 -->
<g id="edge19" class="edge">
<title>Node11&#45;&gt;Node5</title>
<path fill="none" stroke="midnightblue" d="M269.96,-117.84C260.5,-103.1 244.83,-73.09 261,-56 287.31,-28.2 850.43,-15.25 1024.32,-11.9"/>
<polygon fill="midnightblue" stroke="midnightblue" points="1024.55,-15.4 1034.48,-11.71 1024.41,-8.4 1024.55,-15.4"/>
</g>
<!-- Node11&#45;&gt;Node12 -->
<g id="edge17" class="edge">
<title>Node11&#45;&gt;Node12</title>
<path fill="none" stroke="midnightblue" d="M281.73,-117.98C287.67,-109.14 297.12,-95.09 304.59,-83.98"/>
<polygon fill="midnightblue" stroke="midnightblue" points="307.61,-85.76 310.28,-75.51 301.8,-81.86 307.61,-85.76"/>
</g>
<!-- Node12&#45;&gt;Node5 -->
<g id="edge18" class="edge">
<title>Node12&#45;&gt;Node5</title>
<path fill="none" stroke="midnightblue" d="M362.14,-57.68C366.81,-57.06 371.5,-56.48 376,-56 617.84,-30.12 908.45,-17.21 1024.02,-12.8"/>
<polygon fill="midnightblue" stroke="midnightblue" points="1024.46,-16.29 1034.32,-12.41 1024.19,-9.29 1024.46,-16.29"/>
</g>
<!-- Node14 -->
<g id="node14" class="node">
<title>Node14</title>
<g id="a_node14"><a xlink:href="JKRCompression_8h.html" target="_top" xlink:title=" ">
<polygon fill="white" stroke="black" points="1216.5,-179.5 1216.5,-198.5 1393.5,-198.5 1393.5,-179.5 1216.5,-179.5"/>
<text text-anchor="middle" x="1305" y="-186.5" font-family="Helvetica,sans-Serif" font-size="10.00">JSystem/JKernel/JKRCompression.h</text>
</a>
</g>
</g>
<!-- Node13&#45;&gt;Node14 -->
<g id="edge25" class="edge">
<title>Node13&#45;&gt;Node14</title>
<path fill="none" stroke="midnightblue" d="M1394.82,-307.9C1375.37,-299.84 1348.63,-286.02 1332,-266 1318.33,-249.55 1311.36,-225.67 1307.96,-209.09"/>
<polygon fill="midnightblue" stroke="midnightblue" points="1311.36,-208.17 1306.14,-198.95 1304.47,-209.41 1311.36,-208.17"/>
</g>
<!-- Node15 -->
<g id="node15" class="node">
<title>Node15</title>
<g id="a_node15"><a xlink:href="JKRDecomp_8h.html" target="_top" xlink:title=" ">
<polygon fill="white" stroke="black" points="1341,-241 1341,-260 1497,-260 1497,-241 1341,-241"/>
<text text-anchor="middle" x="1419" y="-248" font-family="Helvetica,sans-Serif" font-size="10.00">JSystem/JKernel/JKRDecomp.h</text>
</a>
</g>
</g>
<!-- Node13&#45;&gt;Node15 -->
<g id="edge26" class="edge">
<title>Node13&#45;&gt;Node15</title>
<path fill="none" stroke="midnightblue" d="M1419,-307.73C1419,-298.18 1419,-282.62 1419,-270.28"/>
<polygon fill="midnightblue" stroke="midnightblue" points="1422.5,-270.13 1419,-260.13 1415.5,-270.13 1422.5,-270.13"/>
</g>
<!-- Node21 -->
<g id="node21" class="node">
<title>Node21</title>
<g id="a_node21"><a xlink:href="JKRDvdFile_8h.html" target="_top" xlink:title=" ">
<polygon fill="white" stroke="black" points="1515.5,-241 1515.5,-260 1668.5,-260 1668.5,-241 1515.5,-241"/>
<text text-anchor="middle" x="1592" y="-248" font-family="Helvetica,sans-Serif" font-size="10.00">JSystem/JKernel/JKRDvdFile.h</text>
</a>
</g>
</g>
<!-- Node13&#45;&gt;Node21 -->
<g id="edge40" class="edge">
<title>Node13&#45;&gt;Node21</title>
<path fill="none" stroke="midnightblue" d="M1441.97,-307.87C1472.17,-296.52 1525.4,-276.52 1559.66,-263.65"/>
<polygon fill="midnightblue" stroke="midnightblue" points="1561.08,-266.86 1569.21,-260.06 1558.62,-260.3 1561.08,-266.86"/>
</g>
<!-- Node23 -->
<g id="node23" class="node">
<title>Node23</title>
<g id="a_node23"><a xlink:href="JKRFileLoader_8h.html" target="_top" xlink:title=" ">
<polygon fill="white" stroke="black" points="1885,-179.5 1885,-198.5 2051,-198.5 2051,-179.5 1885,-179.5"/>
<text text-anchor="middle" x="1968" y="-186.5" font-family="Helvetica,sans-Serif" font-size="10.00">JSystem/JKernel/JKRFileLoader.h</text>
</a>
</g>
</g>
<!-- Node13&#45;&gt;Node23 -->
<g id="edge47" class="edge">
<title>Node13&#45;&gt;Node23</title>
<path fill="none" stroke="midnightblue" d="M1467.89,-307.93C1520.1,-298.55 1605.2,-282.62 1678,-266 1768.04,-245.44 1872.6,-216.87 1928.28,-201.27"/>
<polygon fill="midnightblue" stroke="midnightblue" points="1929.42,-204.59 1938.1,-198.51 1927.52,-197.85 1929.42,-204.59"/>
</g>
<!-- Node24 -->
<g id="node24" class="node">
<title>Node24</title>
<g id="a_node24"><a xlink:href="JKRHeap_8h.html" target="_top" xlink:title=" ">
<polygon fill="white" stroke="black" points="1055.5,-179.5 1055.5,-198.5 1198.5,-198.5 1198.5,-179.5 1055.5,-179.5"/>
<text text-anchor="middle" x="1127" y="-186.5" font-family="Helvetica,sans-Serif" font-size="10.00">JSystem/JKernel/JKRHeap.h</text>
</a>
</g>
</g>
<!-- Node13&#45;&gt;Node24 -->
<g id="edge51" class="edge">
<title>Node13&#45;&gt;Node24</title>
<path fill="none" stroke="midnightblue" d="M1398.93,-307.81C1348.38,-285.91 1215.65,-228.4 1156.35,-202.71"/>
<polygon fill="midnightblue" stroke="midnightblue" points="1157.39,-199.35 1146.82,-198.59 1154.61,-205.78 1157.39,-199.35"/>
</g>
<!-- Node25 -->
<g id="node25" class="node">
<title>Node25</title>
<g id="a_node25"><a xlink:href="global_8h.html" target="_top" xlink:title=" ">
<polygon fill="white" stroke="black" points="2077,-241 2077,-260 2127,-260 2127,-241 2077,-241"/>
<text text-anchor="middle" x="2102" y="-248" font-family="Helvetica,sans-Serif" font-size="10.00">global.h</text>
</a>
</g>
</g>
<!-- Node13&#45;&gt;Node25 -->
<g id="edge55" class="edge">
<title>Node13&#45;&gt;Node25</title>
<path fill="none" stroke="midnightblue" d="M1495.69,-309.2C1643.09,-295.17 1960.74,-264.94 2066.75,-254.85"/>
<polygon fill="midnightblue" stroke="midnightblue" points="2067.29,-258.32 2076.91,-253.89 2066.62,-251.35 2067.29,-258.32"/>
</g>
<!-- Node15&#45;&gt;Node5 -->
<g id="edge39" class="edge">
<title>Node15&#45;&gt;Node5</title>
<path fill="none" stroke="midnightblue" d="M1419.28,-240.7C1419.28,-226.3 1417.32,-197.44 1403,-179 1331.7,-87.18 1196.37,-41.07 1123.83,-22.04"/>
<polygon fill="midnightblue" stroke="midnightblue" points="1124.58,-18.62 1114.02,-19.53 1122.84,-25.4 1124.58,-18.62"/>
</g>
<!-- Node15&#45;&gt;Node14 -->
<g id="edge27" class="edge">
<title>Node15&#45;&gt;Node14</title>
<path fill="none" stroke="midnightblue" d="M1402.67,-240.98C1383.79,-231.12 1352.49,-214.79 1330.42,-203.27"/>
<polygon fill="midnightblue" stroke="midnightblue" points="1331.79,-200.03 1321.3,-198.51 1328.55,-206.24 1331.79,-200.03"/>
</g>
<!-- Node16 -->
<g id="node16" class="node">
<title>Node16</title>
<g id="a_node16"><a xlink:href="JKRThread_8h.html" target="_top" xlink:title=" ">
<polygon fill="white" stroke="black" points="1525,-179.5 1525,-198.5 1675,-198.5 1675,-179.5 1525,-179.5"/>
<text text-anchor="middle" x="1600" y="-186.5" font-family="Helvetica,sans-Serif" font-size="10.00">JSystem/JKernel/JKRThread.h</text>
</a>
</g>
</g>
<!-- Node15&#45;&gt;Node16 -->
<g id="edge28" class="edge">
<title>Node15&#45;&gt;Node16</title>
<path fill="none" stroke="midnightblue" d="M1444.93,-240.98C1476.25,-230.68 1529.09,-213.31 1564.26,-201.75"/>
<polygon fill="midnightblue" stroke="midnightblue" points="1565.71,-204.96 1574.12,-198.51 1563.52,-198.31 1565.71,-204.96"/>
</g>
<!-- Node16&#45;&gt;Node5 -->
<g id="edge38" class="edge">
<title>Node16&#45;&gt;Node5</title>
<path fill="none" stroke="midnightblue" d="M1597.82,-179.32C1591.2,-154.98 1568.88,-85.96 1522,-56 1457.43,-14.73 1228.62,-10.3 1125.75,-10.47"/>
<polygon fill="midnightblue" stroke="midnightblue" points="1125.6,-6.97 1115.61,-10.51 1125.62,-13.97 1125.6,-6.97"/>
</g>
<!-- Node17 -->
<g id="node17" class="node">
<title>Node17</title>
<g id="a_node17"><a xlink:href="JKRDisposer_8h.html" target="_top" xlink:title=" ">
<polygon fill="white" stroke="black" points="1720,-118 1720,-137 1878,-137 1878,-118 1720,-118"/>
<text text-anchor="middle" x="1799" y="-125" font-family="Helvetica,sans-Serif" font-size="10.00">JSystem/JKernel/JKRDisposer.h</text>
</a>
</g>
</g>
<!-- Node16&#45;&gt;Node17 -->
<g id="edge29" class="edge">
<title>Node16&#45;&gt;Node17</title>
<path fill="none" stroke="midnightblue" d="M1628.51,-179.48C1663.24,-169.09 1722.04,-151.51 1760.69,-139.95"/>
<polygon fill="midnightblue" stroke="midnightblue" points="1761.96,-143.23 1770.54,-137.01 1759.96,-136.52 1761.96,-143.23"/>
</g>
<!-- Node16&#45;&gt;Node18 -->
<g id="edge33" class="edge">
<title>Node16&#45;&gt;Node18</title>
<path fill="none" stroke="midnightblue" d="M1610.79,-179.3C1630.01,-164.11 1671.87,-132.42 1711,-112 1737.04,-98.41 1768.15,-86.79 1792.02,-78.77"/>
<polygon fill="midnightblue" stroke="midnightblue" points="1793.37,-82.01 1801.78,-75.56 1791.18,-75.36 1793.37,-82.01"/>
</g>
<!-- Node19 -->
<g id="node19" class="node">
<title>Node19</title>
<g id="a_node19"><a xlink:href="OS_8h.html" target="_top" xlink:title=" ">
<polygon fill="white" stroke="black" points="1383,-118 1383,-137 1469,-137 1469,-118 1383,-118"/>
<text text-anchor="middle" x="1426" y="-125" font-family="Helvetica,sans-Serif" font-size="10.00">dolphin/os/OS.h</text>
</a>
</g>
</g>
<!-- Node16&#45;&gt;Node19 -->
<g id="edge34" class="edge">
<title>Node16&#45;&gt;Node19</title>
<path fill="none" stroke="midnightblue" d="M1575.07,-179.48C1544.96,-169.18 1494.17,-151.81 1460.36,-140.25"/>
<polygon fill="midnightblue" stroke="midnightblue" points="1461.48,-136.93 1450.88,-137.01 1459.21,-143.56 1461.48,-136.93"/>
</g>
<!-- Node17&#45;&gt;Node5 -->
<g id="edge32" class="edge">
<title>Node17&#45;&gt;Node5</title>
<path fill="none" stroke="midnightblue" d="M1791.06,-117.81C1776.16,-102.17 1742.22,-69.63 1706,-56 1600.17,-16.17 1256.31,-11.3 1125.84,-10.92"/>
<polygon fill="midnightblue" stroke="midnightblue" points="1125.72,-7.42 1115.72,-10.9 1125.71,-14.42 1125.72,-7.42"/>
</g>
<!-- Node17&#45;&gt;Node18 -->
<g id="edge30" class="edge">
<title>Node17&#45;&gt;Node18</title>
<path fill="none" stroke="midnightblue" d="M1803.44,-117.98C1807.95,-109.32 1815.07,-95.65 1820.81,-84.65"/>
<polygon fill="midnightblue" stroke="midnightblue" points="1824.05,-85.99 1825.57,-75.51 1817.84,-82.76 1824.05,-85.99"/>
</g>
<!-- Node18&#45;&gt;Node5 -->
<g id="edge31" class="edge">
<title>Node18&#45;&gt;Node5</title>
<path fill="none" stroke="midnightblue" d="M1758.22,-57.29C1753.41,-56.83 1748.64,-56.4 1744,-56 1513.67,-36.21 1238.1,-20.04 1126.09,-13.79"/>
<polygon fill="midnightblue" stroke="midnightblue" points="1125.95,-10.27 1115.77,-13.21 1125.56,-17.26 1125.95,-10.27"/>
</g>
<!-- Node19&#45;&gt;Node5 -->
<g id="edge35" class="edge">
<title>Node19&#45;&gt;Node5</title>
<path fill="none" stroke="midnightblue" d="M1421.76,-117.83C1413.77,-102.51 1394.93,-70.9 1369,-56 1328.56,-32.77 1198.84,-19.92 1125.95,-14.37"/>
<polygon fill="midnightblue" stroke="midnightblue" points="1125.85,-10.85 1115.62,-13.6 1125.33,-17.83 1125.85,-10.85"/>
</g>
<!-- Node20 -->
<g id="node20" class="node">
<title>Node20</title>
<g id="a_node20"><a xlink:href="dvd_8h.html" target="_top" xlink:title=" ">
<polygon fill="white" stroke="black" points="1421,-56.5 1421,-75.5 1513,-75.5 1513,-56.5 1421,-56.5"/>
<text text-anchor="middle" x="1467" y="-63.5" font-family="Helvetica,sans-Serif" font-size="10.00">dolphin/dvd/dvd.h</text>
</a>
</g>
</g>
<!-- Node19&#45;&gt;Node20 -->
<g id="edge36" class="edge">
<title>Node19&#45;&gt;Node20</title>
<path fill="none" stroke="midnightblue" d="M1431.87,-117.98C1437.96,-109.14 1447.64,-95.09 1455.3,-83.98"/>
<polygon fill="midnightblue" stroke="midnightblue" points="1458.34,-85.73 1461.14,-75.51 1452.58,-81.76 1458.34,-85.73"/>
</g>
<!-- Node20&#45;&gt;Node5 -->
<g id="edge37" class="edge">
<title>Node20&#45;&gt;Node5</title>
<path fill="none" stroke="midnightblue" d="M1420.82,-58.01C1416.15,-57.32 1411.48,-56.64 1407,-56 1307.39,-41.78 1190.79,-26.23 1125.66,-17.64"/>
<polygon fill="midnightblue" stroke="midnightblue" points="1126.03,-14.16 1115.66,-16.32 1125.11,-21.1 1126.03,-14.16"/>
</g>
<!-- Node21&#45;&gt;Node5 -->
<g id="edge46" class="edge">
<title>Node21&#45;&gt;Node5</title>
<path fill="none" stroke="midnightblue" d="M1622.59,-240.99C1654.37,-230.34 1697.69,-209.69 1684,-179 1650.66,-104.27 1621.94,-88.87 1547,-56 1472.49,-23.32 1231.64,-14.28 1125.75,-11.85"/>
<polygon fill="midnightblue" stroke="midnightblue" points="1125.7,-8.35 1115.63,-11.63 1125.55,-15.35 1125.7,-8.35"/>
</g>
<!-- Node21&#45;&gt;Node19 -->
<g id="edge45" class="edge">
<title>Node21&#45;&gt;Node19</title>
<path fill="none" stroke="midnightblue" d="M1565.03,-240.92C1541.74,-232.64 1508,-218.5 1483,-199 1463.88,-184.09 1447.14,-161.6 1436.83,-146.05"/>
<polygon fill="midnightblue" stroke="midnightblue" points="1439.62,-143.92 1431.28,-137.39 1433.73,-147.7 1439.62,-143.92"/>
</g>
<!-- Node21&#45;&gt;Node20 -->
<g id="edge44" class="edge">
<title>Node21&#45;&gt;Node20</title>
<path fill="none" stroke="midnightblue" d="M1572.63,-240.95C1555.57,-232.51 1531.15,-218.12 1516,-199 1501.61,-180.83 1481.65,-117.14 1472.27,-85.35"/>
<polygon fill="midnightblue" stroke="midnightblue" points="1475.58,-84.18 1469.42,-75.56 1468.85,-86.14 1475.58,-84.18"/>
</g>
<!-- Node22 -->
<g id="node22" class="node">
<title>Node22</title>
<g id="a_node22"><a xlink:href="JKRFile_8h.html" target="_top" xlink:title=" ">
<polygon fill="white" stroke="black" points="1731,-179.5 1731,-198.5 1867,-198.5 1867,-179.5 1731,-179.5"/>
<text text-anchor="middle" x="1799" y="-186.5" font-family="Helvetica,sans-Serif" font-size="10.00">JSystem/JKernel/JKRFile.h</text>
</a>
</g>
</g>
<!-- Node21&#45;&gt;Node22 -->
<g id="edge41" class="edge">
<title>Node21&#45;&gt;Node22</title>
<path fill="none" stroke="midnightblue" d="M1621.66,-240.98C1657.93,-230.55 1719.46,-212.86 1759.66,-201.31"/>
<polygon fill="midnightblue" stroke="midnightblue" points="1760.75,-204.64 1769.4,-198.51 1758.82,-197.91 1760.75,-204.64"/>
</g>
<!-- Node22&#45;&gt;Node5 -->
<g id="edge43" class="edge">
<title>Node22&#45;&gt;Node5</title>
<path fill="none" stroke="midnightblue" d="M1827.89,-179.47C1847.02,-172.47 1871.37,-160.79 1887,-143 1913.48,-112.87 1938.59,-85.12 1911,-56 1883.89,-27.39 1302.44,-14.96 1125.58,-11.83"/>
<polygon fill="midnightblue" stroke="midnightblue" points="1125.56,-8.32 1115.5,-11.65 1125.44,-15.32 1125.56,-8.32"/>
</g>
<!-- Node22&#45;&gt;Node17 -->
<g id="edge42" class="edge">
<title>Node22&#45;&gt;Node17</title>
<path fill="none" stroke="midnightblue" d="M1799,-179.48C1799,-171.08 1799,-157.98 1799,-147.16"/>
<polygon fill="midnightblue" stroke="midnightblue" points="1802.5,-147.01 1799,-137.01 1795.5,-147.01 1802.5,-147.01"/>
</g>
<!-- Node23&#45;&gt;Node5 -->
<g id="edge50" class="edge">
<title>Node23&#45;&gt;Node5</title>
<path fill="none" stroke="midnightblue" d="M1968.57,-179.42C1969.65,-155.37 1969.02,-87.01 1930,-56 1898.41,-30.89 1305.1,-16 1125.86,-12.06"/>
<polygon fill="midnightblue" stroke="midnightblue" points="1125.72,-8.56 1115.64,-11.84 1125.57,-15.55 1125.72,-8.56"/>
</g>
<!-- Node23&#45;&gt;Node17 -->
<g id="edge48" class="edge">
<title>Node23&#45;&gt;Node17</title>
<path fill="none" stroke="midnightblue" d="M1943.79,-179.48C1914.67,-169.22 1865.63,-151.96 1832.8,-140.4"/>
<polygon fill="midnightblue" stroke="midnightblue" points="1833.76,-137.03 1823.17,-137.01 1831.44,-143.63 1833.76,-137.03"/>
</g>
<!-- Node23&#45;&gt;Node18 -->
<g id="edge49" class="edge">
<title>Node23&#45;&gt;Node18</title>
<path fill="none" stroke="midnightblue" d="M1959.24,-179.31C1944.62,-164.92 1914.18,-135.4 1887,-112 1874.94,-101.61 1860.91,-90.53 1849.79,-81.96"/>
<polygon fill="midnightblue" stroke="midnightblue" points="1851.66,-78.98 1841.59,-75.68 1847.4,-84.54 1851.66,-78.98"/>
</g>
<!-- Node24&#45;&gt;Node5 -->
<g id="edge54" class="edge">
<title>Node24&#45;&gt;Node5</title>
<path fill="none" stroke="midnightblue" d="M1129.33,-179.46C1134.78,-157.67 1146.53,-98.73 1127,-56 1121.22,-43.36 1109.95,-32.91 1099.37,-25.27"/>
<polygon fill="midnightblue" stroke="midnightblue" points="1101.04,-22.18 1090.78,-19.53 1097.15,-28 1101.04,-22.18"/>
</g>
<!-- Node24&#45;&gt;Node17 -->
<g id="edge52" class="edge">
<title>Node24&#45;&gt;Node17</title>
<path fill="none" stroke="midnightblue" d="M1198.54,-179.95C1201.74,-179.62 1204.9,-179.3 1208,-179 1385.58,-161.55 1593.51,-144.59 1709.36,-135.45"/>
<polygon fill="midnightblue" stroke="midnightblue" points="1709.91,-138.91 1719.6,-134.64 1709.36,-131.94 1709.91,-138.91"/>
</g>
<!-- Node24&#45;&gt;Node19 -->
<g id="edge53" class="edge">
<title>Node24&#45;&gt;Node19</title>
<path fill="none" stroke="midnightblue" d="M1169.84,-179.48C1223.46,-168.8 1315.28,-150.53 1373.19,-139.01"/>
<polygon fill="midnightblue" stroke="midnightblue" points="1374.12,-142.39 1383.24,-137.01 1372.75,-135.53 1374.12,-142.39"/>
</g>
<!-- Node25&#45;&gt;Node5 -->
<g id="edge56" class="edge">
<title>Node25&#45;&gt;Node5</title>
<path fill="none" stroke="midnightblue" d="M2102.8,-240.66C2103.66,-226.69 2103.69,-199.03 2093,-179 2053.85,-105.63 2029.09,-87.18 1952,-56 1875.52,-25.07 1301.4,-14.27 1125.84,-11.68"/>
<polygon fill="midnightblue" stroke="midnightblue" points="1125.64,-8.17 1115.59,-11.53 1125.54,-15.17 1125.64,-8.17"/>
</g>
<!-- Node26&#45;&gt;Node5 -->
<g id="edge63" class="edge">
<title>Node26&#45;&gt;Node5</title>
<path fill="none" stroke="midnightblue" d="M2155,-302.46C2155,-279.12 2155,-230.85 2155,-190 2155,-190 2155,-190 2155,-126.5 2155,-45.94 2066.55,-73.92 1988,-56 1822.03,-18.13 1293.02,-12.13 1126.03,-11.18"/>
<polygon fill="midnightblue" stroke="midnightblue" points="1125.58,-7.68 1115.56,-11.12 1125.54,-14.68 1125.58,-7.68"/>
</g>
<!-- Node27 -->
<g id="node27" class="node">
<title>Node27</title>
<g id="a_node27"><a xlink:href="JSUInputStream_8h.html" target="_top" xlink:title=" ">
<polygon fill="white" stroke="black" points="2194.5,-112.5 2194.5,-142.5 2335.5,-142.5 2335.5,-112.5 2194.5,-112.5"/>
<text text-anchor="start" x="2202.5" y="-130.5" font-family="Helvetica,sans-Serif" font-size="10.00">JSystem/JSupport/JSUInput</text>
<text text-anchor="middle" x="2265" y="-119.5" font-family="Helvetica,sans-Serif" font-size="10.00">Stream.h</text>
</a>
</g>
</g>
<!-- Node26&#45;&gt;Node27 -->
<g id="edge59" class="edge">
<title>Node26&#45;&gt;Node27</title>
<path fill="none" stroke="midnightblue" d="M2163.27,-302.37C2182.11,-270.17 2228.37,-191.1 2251.45,-151.66"/>
<polygon fill="midnightblue" stroke="midnightblue" points="2254.76,-152.94 2256.79,-142.54 2248.72,-149.4 2254.76,-152.94"/>
</g>
<!-- Node27&#45;&gt;Node5 -->
<g id="edge62" class="edge">
<title>Node27&#45;&gt;Node5</title>
<path fill="none" stroke="midnightblue" d="M2307.01,-112.39C2340.1,-99.16 2377.38,-78.14 2356,-56 2312.59,-11.04 1358.72,-10.34 1125.91,-10.84"/>
<polygon fill="midnightblue" stroke="midnightblue" points="1125.68,-7.34 1115.69,-10.86 1125.7,-14.34 1125.68,-7.34"/>
</g>
<!-- Node28 -->
<g id="node28" class="node">
<title>Node28</title>
<g id="a_node28"><a xlink:href="JSUIosBase_8h.html" target="_top" xlink:title=" ">
<polygon fill="white" stroke="black" points="2183.5,-56.5 2183.5,-75.5 2346.5,-75.5 2346.5,-56.5 2183.5,-56.5"/>
<text text-anchor="middle" x="2265" y="-63.5" font-family="Helvetica,sans-Serif" font-size="10.00">JSystem/JSupport/JSUIosBase.h</text>
</a>
</g>
</g>
<!-- Node27&#45;&gt;Node28 -->
<g id="edge60" class="edge">
<title>Node27&#45;&gt;Node28</title>
<path fill="none" stroke="midnightblue" d="M2265,-112.4C2265,-104.47 2265,-94.46 2265,-85.86"/>
<polygon fill="midnightblue" stroke="midnightblue" points="2268.5,-85.66 2265,-75.66 2261.5,-85.66 2268.5,-85.66"/>
</g>
<!-- Node28&#45;&gt;Node5 -->
<g id="edge61" class="edge">
<title>Node28&#45;&gt;Node5</title>
<path fill="none" stroke="midnightblue" d="M2183.32,-57.05C2178.48,-56.67 2173.68,-56.32 2169,-56 1767.61,-28.95 1282.19,-15.87 1126.01,-12.15"/>
<polygon fill="midnightblue" stroke="midnightblue" points="1125.85,-8.64 1115.77,-11.91 1125.69,-15.64 1125.85,-8.64"/>
</g>
<!-- Node29&#45;&gt;Node5 -->
<g id="edge71" class="edge">
<title>Node29&#45;&gt;Node5</title>
<path fill="none" stroke="midnightblue" d="M704.16,-179.43C717.98,-171.46 737.69,-158.5 751,-143 779.22,-110.12 760.01,-81.56 795,-56 830.67,-29.94 953.88,-18.31 1024.4,-13.68"/>
<polygon fill="midnightblue" stroke="midnightblue" points="1024.65,-17.17 1034.41,-13.04 1024.21,-10.18 1024.65,-17.17"/>
</g>
<!-- Node29&#45;&gt;Node9 -->
<g id="edge65" class="edge">
<title>Node29&#45;&gt;Node9</title>
<path fill="none" stroke="midnightblue" d="M689,-179.48C689.99,-171.08 691.53,-157.98 692.8,-147.16"/>
<polygon fill="midnightblue" stroke="midnightblue" points="696.31,-147.35 694,-137.01 689.35,-146.53 696.31,-147.35"/>
</g>
<!-- Node30 -->
<g id="node30" class="node">
<title>Node30</title>
<g id="a_node30"><a xlink:href="GX_8h.html" target="_top" xlink:title=" ">
<polygon fill="white" stroke="black" points="837.5,-118 837.5,-137 922.5,-137 922.5,-118 837.5,-118"/>
<text text-anchor="middle" x="880" y="-125" font-family="Helvetica,sans-Serif" font-size="10.00">dolphin/gx/GX.h</text>
</a>
</g>
</g>
<!-- Node29&#45;&gt;Node30 -->
<g id="edge66" class="edge">
<title>Node29&#45;&gt;Node30</title>
<path fill="none" stroke="midnightblue" d="M715.51,-179.48C748.87,-169.14 805.26,-151.66 842.56,-140.1"/>
<polygon fill="midnightblue" stroke="midnightblue" points="844.03,-143.31 852.54,-137.01 841.95,-136.63 844.03,-143.31"/>
</g>
<!-- Node30&#45;&gt;Node4 -->
<g id="edge69" class="edge">
<title>Node30&#45;&gt;Node4</title>
<path fill="none" stroke="midnightblue" d="M851.92,-117.98C817.71,-107.59 759.8,-90.01 721.73,-78.45"/>
<polygon fill="midnightblue" stroke="midnightblue" points="722.62,-75.06 712.03,-75.51 720.58,-81.76 722.62,-75.06"/>
</g>
<!-- Node30&#45;&gt;Node5 -->
<g id="edge70" class="edge">
<title>Node30&#45;&gt;Node5</title>
<path fill="none" stroke="midnightblue" d="M874.16,-117.62C865.42,-103.09 851.42,-74.06 866,-56 885.54,-31.81 969.05,-20 1024.41,-14.74"/>
<polygon fill="midnightblue" stroke="midnightblue" points="1024.75,-18.22 1034.4,-13.83 1024.12,-11.25 1024.75,-18.22"/>
</g>
<!-- Node31 -->
<g id="node31" class="node">
<title>Node31</title>
<g id="a_node31"><a xlink:href="GXDisplayList_8h.html" target="_top" xlink:title=" ">
<polygon fill="white" stroke="black" points="875.5,-56.5 875.5,-75.5 1008.5,-75.5 1008.5,-56.5 875.5,-56.5"/>
<text text-anchor="middle" x="942" y="-63.5" font-family="Helvetica,sans-Serif" font-size="10.00">dolphin/gx/GXDisplayList.h</text>
</a>
</g>
</g>
<!-- Node30&#45;&gt;Node31 -->
<g id="edge67" class="edge">
<title>Node30&#45;&gt;Node31</title>
<path fill="none" stroke="midnightblue" d="M888.88,-117.98C898.46,-108.78 913.91,-93.96 925.69,-82.66"/>
<polygon fill="midnightblue" stroke="midnightblue" points="928.34,-84.96 933.13,-75.51 923.49,-79.91 928.34,-84.96"/>
</g>
<!-- Node31&#45;&gt;Node5 -->
<g id="edge68" class="edge">
<title>Node31&#45;&gt;Node5</title>
<path fill="none" stroke="midnightblue" d="M963.07,-56.44C985.06,-47.52 1019.73,-33.44 1044.66,-23.32"/>
<polygon fill="midnightblue" stroke="midnightblue" points="1046.08,-26.52 1054.02,-19.52 1043.44,-20.04 1046.08,-26.52"/>
</g>
<!-- Node32&#45;&gt;Node5 -->
<g id="edge75" class="edge">
<title>Node32&#45;&gt;Node5</title>
<path fill="none" stroke="midnightblue" d="M756.75,-240.84C763.43,-210.12 790.35,-105.52 856,-56 881.96,-36.42 967.77,-23.19 1023.95,-16.39"/>
<polygon fill="midnightblue" stroke="midnightblue" points="1024.56,-19.84 1034.08,-15.19 1023.74,-12.89 1024.56,-19.84"/>
</g>
<!-- Node32&#45;&gt;Node24 -->
<g id="edge73" class="edge">
<title>Node32&#45;&gt;Node24</title>
<path fill="none" stroke="midnightblue" d="M805.01,-240.97C816.81,-238.99 829.34,-236.9 841,-235 916.58,-222.68 1003.5,-209.09 1061.49,-200.1"/>
<polygon fill="midnightblue" stroke="midnightblue" points="1062.26,-203.52 1071.61,-198.53 1061.19,-196.6 1062.26,-203.52"/>
</g>
<!-- Node32&#45;&gt;Node29 -->
<g id="edge74" class="edge">
<title>Node32&#45;&gt;Node29</title>
<path fill="none" stroke="midnightblue" d="M745.4,-240.98C734.95,-231.7 718.03,-216.67 705.26,-205.33"/>
<polygon fill="midnightblue" stroke="midnightblue" points="707.38,-202.53 697.58,-198.51 702.73,-207.77 707.38,-202.53"/>
</g>
<!-- Node33&#45;&gt;Node5 -->
<g id="edge80" class="edge">
<title>Node33&#45;&gt;Node5</title>
<path fill="none" stroke="midnightblue" d="M933.89,-240.67C943.43,-230.95 958.72,-214.61 970,-199 1012.26,-140.51 1050.49,-63.34 1066.74,-28.91"/>
<polygon fill="midnightblue" stroke="midnightblue" points="1069.99,-30.21 1071.06,-19.67 1063.65,-27.25 1069.99,-30.21"/>
</g>
<!-- Node34 -->
<g id="node34" class="node">
<title>Node34</title>
<g id="a_node34"><a xlink:href="JUTPalette_8h.html" target="_top" xlink:title=" ">
<polygon fill="white" stroke="black" points="813,-179.5 813,-198.5 961,-198.5 961,-179.5 813,-179.5"/>
<text text-anchor="middle" x="887" y="-186.5" font-family="Helvetica,sans-Serif" font-size="10.00">JSystem/JUtility/JUTPalette.h</text>
</a>
</g>
</g>
<!-- Node33&#45;&gt;Node34 -->
<g id="edge77" class="edge">
<title>Node33&#45;&gt;Node34</title>
<path fill="none" stroke="midnightblue" d="M919.56,-240.98C913.91,-232.14 904.94,-218.09 897.84,-206.98"/>
<polygon fill="midnightblue" stroke="midnightblue" points="900.77,-205.05 892.43,-198.51 894.87,-208.82 900.77,-205.05"/>
</g>
<!-- Node34&#45;&gt;Node5 -->
<g id="edge79" class="edge">
<title>Node34&#45;&gt;Node5</title>
<path fill="none" stroke="midnightblue" d="M897.86,-179.45C920.72,-161.28 975.14,-117.14 1017,-76 1032.93,-60.35 1049.78,-41.13 1061.19,-27.66"/>
<polygon fill="midnightblue" stroke="midnightblue" points="1064.09,-29.65 1067.83,-19.74 1058.72,-25.15 1064.09,-29.65"/>
</g>
<!-- Node34&#45;&gt;Node30 -->
<g id="edge78" class="edge">
<title>Node34&#45;&gt;Node30</title>
<path fill="none" stroke="midnightblue" d="M886,-179.48C885.01,-171.08 883.47,-157.98 882.2,-147.16"/>
<polygon fill="midnightblue" stroke="midnightblue" points="885.65,-146.53 881,-137.01 878.69,-147.35 885.65,-146.53"/>
</g>
</g>
</svg>
