<?xml version="1.0" encoding="UTF-8" standalone="no"?>
<!DOCTYPE svg PUBLIC "-//W3C//DTD SVG 1.1//EN"
 "http://www.w3.org/Graphics/SVG/1.1/DTD/svg11.dtd">
<!-- Generated by graphviz version 2.44.0 ()
 -->
<!-- Title: include/JSystem/J3DGraphAnimator/J3DAnimation.h Pages: 1 -->
<!--zoomable 631 -->
<svg id="main" version="1.1" xmlns="http://www.w3.org/2000/svg" xmlns:xlink="http://www.w3.org/1999/xlink" xml:space="preserve" onload="init(evt)">
<style type="text/css"><![CDATA[
.edge:hover path { stroke: red; }
.edge:hover polygon { stroke: red; fill: red; }
]]></style>
<script type="text/javascript"><![CDATA[
var edges = document.getElementsByTagName('g');
if (edges && edges.length) {
  for (var i=0;i<edges.length;i++) {
    if (edges[i].id.substr(0,4)=='edge') {
      edges[i].setAttribute('class','edge');
    }
  }
}
]]></script>
        <defs>
                <circle id="rim" cx="0" cy="0" r="7"/>
                <circle id="rim2" cx="0" cy="0" r="3.5"/>
                <g id="zoomPlus">
                        <use xlink:href="#rim" fill="#404040">
                                <set attributeName="fill" to="#808080" begin="zoomplus.mouseover" end="zoomplus.mouseout"/>
                        </use>
                        <path d="M-4,0h8M0,-4v8" fill="none" stroke="white" stroke-width="1.5" pointer-events="none"/>
                </g>
                <g id="zoomMin">
                        <use xlink:href="#rim" fill="#404040">
                                <set attributeName="fill" to="#808080" begin="zoomminus.mouseover" end="zoomminus.mouseout"/>
                        </use>
                        <path d="M-4,0h8" fill="none" stroke="white" stroke-width="1.5" pointer-events="none"/>
                </g>
                <g id="dirArrow">
                        <path fill="none" stroke="white" stroke-width="1.5" d="M0,-3.0v7 M-2.5,-0.5L0,-3.0L2.5,-0.5"/>
                </g>
               <g id="resetDef">
                       <use xlink:href="#rim2" fill="#404040">
                               <set attributeName="fill" to="#808080" begin="reset.mouseover" end="reset.mouseout"/>
                       </use>
               </g>
        </defs>

<script type="text/javascript">
var viewWidth = 1212;
var viewHeight = 631;
var sectionId = 'dynsection-1';
</script>
<script xlink:href="svgpan.js"/>
<svg id="graph" class="graph">
<g id="viewport">
<title>include/JSystem/J3DGraphAnimator/J3DAnimation.h</title>
<polygon fill="white" stroke="transparent" points="-4,4 -4,-627 1208.22,-627 1208.22,4 -4,4"/>
<!-- Node1 -->
<g id="node1" class="node">
<title>Node1</title>
<g id="a_node1"><a xlink:title=" ">
<polygon fill="#bfbfbf" stroke="black" points="507.5,-592.5 507.5,-622.5 642.5,-622.5 642.5,-592.5 507.5,-592.5"/>
<text text-anchor="start" x="515.5" y="-610.5" font-family="Helvetica,sans-Serif" font-size="10.00">include/JSystem/J3DGraph</text>
<text text-anchor="middle" x="575" y="-599.5" font-family="Helvetica,sans-Serif" font-size="10.00">Animator/J3DAnimation.h</text>
</a>
</g>
</g>
<!-- Node2 -->
<g id="node2" class="node">
<title>Node2</title>
<g id="a_node2"><a xlink:href="J3DAnimation_8cpp.html" target="_top" xlink:title=" ">
<polygon fill="white" stroke="black" points="389,-525.5 389,-555.5 547,-555.5 547,-525.5 389,-525.5"/>
<text text-anchor="start" x="397" y="-543.5" font-family="Helvetica,sans-Serif" font-size="10.00">libs/JSystem/J3DGraphAnimator</text>
<text text-anchor="middle" x="468" y="-532.5" font-family="Helvetica,sans-Serif" font-size="10.00">/J3DAnimation.cpp</text>
</a>
</g>
</g>
<!-- Node1&#45;&gt;Node2 -->
<g id="edge1" class="edge">
<title>Node1&#45;&gt;Node2</title>
<path fill="none" stroke="midnightblue" d="M542.92,-587.02C526.27,-576.9 506.31,-564.77 491.17,-555.58"/>
<polygon fill="midnightblue" stroke="midnightblue" points="541.42,-590.2 551.78,-592.4 545.05,-584.21 541.42,-590.2"/>
</g>
<!-- Node3 -->
<g id="node3" class="node">
<title>Node3</title>
<g id="a_node3"><a xlink:href="d__a__player_8h.html" target="_top" xlink:title=" ">
<polygon fill="white" stroke="black" points="487.5,-402.5 487.5,-421.5 608.5,-421.5 608.5,-402.5 487.5,-402.5"/>
<text text-anchor="middle" x="548" y="-409.5" font-family="Helvetica,sans-Serif" font-size="10.00">include/d/a/d_a_player.h</text>
</a>
</g>
</g>
<!-- Node1&#45;&gt;Node3 -->
<g id="edge2" class="edge">
<title>Node1&#45;&gt;Node3</title>
<path fill="none" stroke="midnightblue" d="M571.62,-582.28C565.56,-538.82 553.1,-449.55 549.2,-421.58"/>
<polygon fill="midnightblue" stroke="midnightblue" points="568.17,-582.85 573.01,-592.27 575.1,-581.88 568.17,-582.85"/>
</g>
<!-- Node23 -->
<g id="node23" class="node">
<title>Node23</title>
<g id="a_node23"><a xlink:href="m__Do__ext_8h.html" target="_top" xlink:title=" ">
<polygon fill="white" stroke="black" points="810,-531 810,-550 940,-550 940,-531 810,-531"/>
<text text-anchor="middle" x="875" y="-538" font-family="Helvetica,sans-Serif" font-size="10.00">include/m_Do/m_Do_ext.h</text>
</a>
</g>
</g>
<!-- Node1&#45;&gt;Node23 -->
<g id="edge28" class="edge">
<title>Node1&#45;&gt;Node23</title>
<path fill="none" stroke="midnightblue" d="M649.73,-590.31C708.67,-577.54 788.54,-560.23 835.64,-550.03"/>
<polygon fill="midnightblue" stroke="midnightblue" points="648.76,-586.94 639.73,-592.48 650.24,-593.78 648.76,-586.94"/>
</g>
<!-- Node4 -->
<g id="node4" class="node">
<title>Node4</title>
<g id="a_node4"><a xlink:href="d__a__player_8cpp.html" target="_top" xlink:title=" ">
<polygon fill="white" stroke="black" points="0,-341 0,-360 114,-360 114,-341 0,-341"/>
<text text-anchor="middle" x="57" y="-348" font-family="Helvetica,sans-Serif" font-size="10.00">src/d/a/d_a_player.cpp</text>
</a>
</g>
</g>
<!-- Node3&#45;&gt;Node4 -->
<g id="edge3" class="edge">
<title>Node3&#45;&gt;Node4</title>
<path fill="none" stroke="midnightblue" d="M477.18,-405.91C392.56,-399.28 246.87,-386.1 123,-366 113.04,-364.38 102.32,-362.22 92.48,-360.05"/>
<polygon fill="midnightblue" stroke="midnightblue" points="476.95,-409.41 487.19,-406.69 477.49,-402.43 476.95,-409.41"/>
</g>
<!-- Node5 -->
<g id="node5" class="node">
<title>Node5</title>
<g id="a_node5"><a xlink:href="d__a__alink_8h.html" target="_top" xlink:title=" ">
<polygon fill="white" stroke="black" points="716,-140 716,-159 832,-159 832,-140 716,-140"/>
<text text-anchor="middle" x="774" y="-147" font-family="Helvetica,sans-Serif" font-size="10.00">include/d/a/d_a_alink.h</text>
</a>
</g>
</g>
<!-- Node3&#45;&gt;Node5 -->
<g id="edge4" class="edge">
<title>Node3&#45;&gt;Node5</title>
<path fill="none" stroke="midnightblue" d="M484.09,-400.49C399.55,-383.43 265.85,-343.75 308,-268 335.47,-218.64 362.89,-220.25 416,-201 517.21,-164.32 643.48,-154.12 715.81,-151.39"/>
<polygon fill="midnightblue" stroke="midnightblue" points="483.66,-403.97 494.14,-402.45 485,-397.1 483.66,-403.97"/>
</g>
<!-- Node9 -->
<g id="node9" class="node">
<title>Node9</title>
<g id="a_node9"><a xlink:href="d__bg__s__acch_8h.html" target="_top" xlink:title=" ">
<polygon fill="white" stroke="black" points="496,-335.5 496,-365.5 600,-365.5 600,-335.5 496,-335.5"/>
<text text-anchor="start" x="504" y="-353.5" font-family="Helvetica,sans-Serif" font-size="10.00">include/d/bg/d_bg_s</text>
<text text-anchor="middle" x="548" y="-342.5" font-family="Helvetica,sans-Serif" font-size="10.00">_acch.h</text>
</a>
</g>
</g>
<!-- Node3&#45;&gt;Node9 -->
<g id="edge8" class="edge">
<title>Node3&#45;&gt;Node9</title>
<path fill="none" stroke="midnightblue" d="M548,-392.23C548,-383.59 548,-373.5 548,-365.52"/>
<polygon fill="midnightblue" stroke="midnightblue" points="544.5,-392.48 548,-402.48 551.5,-392.48 544.5,-392.48"/>
</g>
<!-- Node19 -->
<g id="node19" class="node">
<title>Node19</title>
<g id="a_node19"><a xlink:href="d__attention_8h.html" target="_top" xlink:title=" ">
<polygon fill="white" stroke="black" points="827,-341 827,-360 941,-360 941,-341 827,-341"/>
<text text-anchor="middle" x="884" y="-348" font-family="Helvetica,sans-Serif" font-size="10.00">include/d/d_attention.h</text>
</a>
</g>
</g>
<!-- Node3&#45;&gt;Node19 -->
<g id="edge21" class="edge">
<title>Node3&#45;&gt;Node19</title>
<path fill="none" stroke="midnightblue" d="M606.23,-400.69C671.28,-389.17 775.36,-370.74 835.95,-360.01"/>
<polygon fill="midnightblue" stroke="midnightblue" points="605.38,-397.28 596.14,-402.48 606.6,-404.18 605.38,-397.28"/>
</g>
<!-- Node21 -->
<g id="node21" class="node">
<title>Node21</title>
<g id="a_node21"><a xlink:href="d__event_8h.html" target="_top" xlink:title=" ">
<polygon fill="white" stroke="black" points="132,-341 132,-360 260,-360 260,-341 132,-341"/>
<text text-anchor="middle" x="196" y="-348" font-family="Helvetica,sans-Serif" font-size="10.00">include/d/event/d_event.h</text>
</a>
</g>
</g>
<!-- Node3&#45;&gt;Node21 -->
<g id="edge25" class="edge">
<title>Node3&#45;&gt;Node21</title>
<path fill="none" stroke="midnightblue" d="M484.08,-400.89C428.51,-392.01 345.86,-378.58 274,-366 263.28,-364.12 251.75,-362.02 240.93,-360.02"/>
<polygon fill="midnightblue" stroke="midnightblue" points="483.71,-404.38 494.13,-402.5 484.81,-397.46 483.71,-404.38"/>
</g>
<!-- Node6 -->
<g id="node6" class="node">
<title>Node6</title>
<g id="a_node6"><a xlink:href="d__a__alink_8cpp.html" target="_top" xlink:title=" ">
<polygon fill="white" stroke="black" points="593.5,-73 593.5,-92 702.5,-92 702.5,-73 593.5,-73"/>
<text text-anchor="middle" x="648" y="-80" font-family="Helvetica,sans-Serif" font-size="10.00">src/d/a/d_a_alink.cpp</text>
</a>
</g>
</g>
<!-- Node5&#45;&gt;Node6 -->
<g id="edge5" class="edge">
<title>Node5&#45;&gt;Node6</title>
<path fill="none" stroke="midnightblue" d="M748.36,-135.27C723.41,-122.4 686.2,-103.21 664.8,-92.17"/>
<polygon fill="midnightblue" stroke="midnightblue" points="746.78,-138.39 757.27,-139.87 749.99,-132.17 746.78,-138.39"/>
</g>
<!-- Node7 -->
<g id="node7" class="node">
<title>Node7</title>
<g id="a_node7"><a xlink:href="d__com__inf__game_8h.html" target="_top" xlink:title=" ">
<polygon fill="white" stroke="black" points="721,-67.5 721,-97.5 831,-97.5 831,-67.5 721,-67.5"/>
<text text-anchor="start" x="729" y="-85.5" font-family="Helvetica,sans-Serif" font-size="10.00">include/d/com/d_com</text>
<text text-anchor="middle" x="776" y="-74.5" font-family="Helvetica,sans-Serif" font-size="10.00">_inf_game.h</text>
</a>
</g>
</g>
<!-- Node5&#45;&gt;Node7 -->
<g id="edge6" class="edge">
<title>Node5&#45;&gt;Node7</title>
<path fill="none" stroke="midnightblue" d="M774.59,-129.41C774.9,-119.22 775.28,-106.9 775.57,-97.59"/>
<polygon fill="midnightblue" stroke="midnightblue" points="771.08,-129.63 774.27,-139.73 778.08,-129.85 771.08,-129.63"/>
</g>
<!-- Node8 -->
<g id="node8" class="node">
<title>Node8</title>
<g id="a_node8"><a xlink:href="d__com__inf__game_8cpp.html" target="_top" xlink:title=" ">
<polygon fill="white" stroke="black" points="852,-0.5 852,-30.5 960,-30.5 960,-0.5 852,-0.5"/>
<text text-anchor="start" x="860" y="-18.5" font-family="Helvetica,sans-Serif" font-size="10.00">src/d/com/d_com_inf</text>
<text text-anchor="middle" x="906" y="-7.5" font-family="Helvetica,sans-Serif" font-size="10.00">_game.cpp</text>
</a>
</g>
</g>
<!-- Node7&#45;&gt;Node8 -->
<g id="edge7" class="edge">
<title>Node7&#45;&gt;Node8</title>
<path fill="none" stroke="midnightblue" d="M813.29,-62.85C833.85,-52.58 858.95,-40.03 877.85,-30.58"/>
<polygon fill="midnightblue" stroke="midnightblue" points="811.59,-59.79 804.21,-67.4 814.72,-66.05 811.59,-59.79"/>
</g>
<!-- Node10 -->
<g id="node10" class="node">
<title>Node10</title>
<g id="a_node10"><a xlink:href="d__bg__s__acch_8cpp.html" target="_top" xlink:title=" ">
<polygon fill="white" stroke="black" points="316.5,-274 316.5,-293 447.5,-293 447.5,-274 316.5,-274"/>
<text text-anchor="middle" x="382" y="-281" font-family="Helvetica,sans-Serif" font-size="10.00">src/d/bg/d_bg_s_acch.cpp</text>
</a>
</g>
</g>
<!-- Node9&#45;&gt;Node10 -->
<g id="edge9" class="edge">
<title>Node9&#45;&gt;Node10</title>
<path fill="none" stroke="midnightblue" d="M502.34,-331.62C470.21,-319.04 428.65,-302.77 403.73,-293.01"/>
<polygon fill="midnightblue" stroke="midnightblue" points="501.39,-335.01 511.98,-335.4 503.95,-328.49 501.39,-335.01"/>
</g>
<!-- Node11 -->
<g id="node11" class="node">
<title>Node11</title>
<g id="a_node11"><a xlink:href="d__bg__w_8h.html" target="_top" xlink:title=" ">
<polygon fill="white" stroke="black" points="465.5,-274 465.5,-293 578.5,-293 578.5,-274 465.5,-274"/>
<text text-anchor="middle" x="522" y="-281" font-family="Helvetica,sans-Serif" font-size="10.00">include/d/bg/d_bg_w.h</text>
</a>
</g>
</g>
<!-- Node9&#45;&gt;Node11 -->
<g id="edge10" class="edge">
<title>Node9&#45;&gt;Node11</title>
<path fill="none" stroke="midnightblue" d="M538.58,-325.94C534.02,-314.54 528.82,-301.55 525.48,-293.19"/>
<polygon fill="midnightblue" stroke="midnightblue" points="535.39,-327.41 542.36,-335.4 541.89,-324.81 535.39,-327.41"/>
</g>
<!-- Node15 -->
<g id="node15" class="node">
<title>Node15</title>
<g id="a_node15"><a xlink:href="d__bomb_8h.html" target="_top" xlink:title=" ">
<polygon fill="white" stroke="black" points="596.5,-274 596.5,-293 697.5,-293 697.5,-274 596.5,-274"/>
<text text-anchor="middle" x="647" y="-281" font-family="Helvetica,sans-Serif" font-size="10.00">include/d/d_bomb.h</text>
</a>
</g>
</g>
<!-- Node9&#45;&gt;Node15 -->
<g id="edge16" class="edge">
<title>Node9&#45;&gt;Node15</title>
<path fill="none" stroke="midnightblue" d="M577.99,-329.81C596.72,-317.51 619.88,-302.3 634.04,-293.01"/>
<polygon fill="midnightblue" stroke="midnightblue" points="575.92,-326.98 569.48,-335.4 579.76,-332.83 575.92,-326.98"/>
</g>
<!-- Node17 -->
<g id="node17" class="node">
<title>Node17</title>
<g id="a_node17"><a xlink:href="d__particle__copoly_8h.html" target="_top" xlink:title=" ">
<polygon fill="white" stroke="black" points="716,-268.5 716,-298.5 818,-298.5 818,-268.5 716,-268.5"/>
<text text-anchor="start" x="724" y="-286.5" font-family="Helvetica,sans-Serif" font-size="10.00">include/d/particle</text>
<text text-anchor="middle" x="767" y="-275.5" font-family="Helvetica,sans-Serif" font-size="10.00">/d_particle_copoly.h</text>
</a>
</g>
</g>
<!-- Node9&#45;&gt;Node17 -->
<g id="edge18" class="edge">
<title>Node9&#45;&gt;Node17</title>
<path fill="none" stroke="midnightblue" d="M605.01,-332.58C640.58,-322.02 685.83,-308.59 719.46,-298.61"/>
<polygon fill="midnightblue" stroke="midnightblue" points="603.84,-329.28 595.25,-335.48 605.83,-335.99 603.84,-329.28"/>
</g>
<!-- Node12 -->
<g id="node12" class="node">
<title>Node12</title>
<g id="a_node12"><a xlink:href="d__bg__w_8cpp.html" target="_top" xlink:title=" ">
<polygon fill="white" stroke="black" points="424.5,-207 424.5,-226 531.5,-226 531.5,-207 424.5,-207"/>
<text text-anchor="middle" x="478" y="-214" font-family="Helvetica,sans-Serif" font-size="10.00">src/d/bg/d_bg_w.cpp</text>
</a>
</g>
</g>
<!-- Node11&#45;&gt;Node12 -->
<g id="edge11" class="edge">
<title>Node11&#45;&gt;Node12</title>
<path fill="none" stroke="midnightblue" d="M510.43,-265.4C501.88,-252.77 490.59,-236.1 483.84,-226.13"/>
<polygon fill="midnightblue" stroke="midnightblue" points="507.56,-267.41 516.07,-273.73 513.36,-263.49 507.56,-267.41"/>
</g>
<!-- Node13 -->
<g id="node13" class="node">
<title>Node13</title>
<g id="a_node13"><a xlink:href="d__bg__s_8h.html" target="_top" xlink:title=" ">
<polygon fill="white" stroke="black" points="202.5,-207 202.5,-226 313.5,-226 313.5,-207 202.5,-207"/>
<text text-anchor="middle" x="258" y="-214" font-family="Helvetica,sans-Serif" font-size="10.00">include/d/bg/d_bg_s.h</text>
</a>
</g>
</g>
<!-- Node11&#45;&gt;Node13 -->
<g id="edge12" class="edge">
<title>Node11&#45;&gt;Node13</title>
<path fill="none" stroke="midnightblue" d="M477.26,-271.48C425.18,-258.66 340.29,-237.76 292.86,-226.08"/>
<polygon fill="midnightblue" stroke="midnightblue" points="476.67,-274.94 487.22,-273.94 478.34,-268.15 476.67,-274.94"/>
</g>
<!-- Node13&#45;&gt;Node5 -->
<g id="edge14" class="edge">
<title>Node13&#45;&gt;Node5</title>
<path fill="none" stroke="midnightblue" d="M305.93,-204.97C313.3,-203.52 320.84,-202.14 328,-201 466.31,-178.89 630.28,-162.93 715.68,-155.39"/>
<polygon fill="midnightblue" stroke="midnightblue" points="305.14,-201.56 296.03,-206.96 306.52,-208.42 305.14,-201.56"/>
</g>
<!-- Node13&#45;&gt;Node7 -->
<g id="edge15" class="edge">
<title>Node13&#45;&gt;Node7</title>
<path fill="none" stroke="midnightblue" d="M301.32,-204.46C395.12,-180.56 616.89,-124.04 720.66,-97.6"/>
<polygon fill="midnightblue" stroke="midnightblue" points="300.41,-201.08 291.59,-206.94 302.14,-207.86 300.41,-201.08"/>
</g>
<!-- Node14 -->
<g id="node14" class="node">
<title>Node14</title>
<g id="a_node14"><a xlink:href="d__bg__s_8cpp.html" target="_top" xlink:title=" ">
<polygon fill="white" stroke="black" points="206,-140 206,-159 310,-159 310,-140 206,-140"/>
<text text-anchor="middle" x="258" y="-147" font-family="Helvetica,sans-Serif" font-size="10.00">src/d/bg/d_bg_s.cpp</text>
</a>
</g>
</g>
<!-- Node13&#45;&gt;Node14 -->
<g id="edge13" class="edge">
<title>Node13&#45;&gt;Node14</title>
<path fill="none" stroke="midnightblue" d="M258,-196.54C258,-184.17 258,-168.62 258,-159.13"/>
<polygon fill="midnightblue" stroke="midnightblue" points="254.5,-196.73 258,-206.73 261.5,-196.73 254.5,-196.73"/>
</g>
<!-- Node16 -->
<g id="node16" class="node">
<title>Node16</title>
<g id="a_node16"><a xlink:href="d__bomb_8cpp.html" target="_top" xlink:title=" ">
<polygon fill="white" stroke="black" points="550,-207 550,-226 644,-226 644,-207 550,-207"/>
<text text-anchor="middle" x="597" y="-214" font-family="Helvetica,sans-Serif" font-size="10.00">src/d/d_bomb.cpp</text>
</a>
</g>
</g>
<!-- Node15&#45;&gt;Node16 -->
<g id="edge17" class="edge">
<title>Node15&#45;&gt;Node16</title>
<path fill="none" stroke="midnightblue" d="M634.13,-265.77C624.38,-253.1 611.39,-236.2 603.64,-226.13"/>
<polygon fill="midnightblue" stroke="midnightblue" points="631.39,-267.94 640.26,-273.73 636.93,-263.67 631.39,-267.94"/>
</g>
<!-- Node17&#45;&gt;Node5 -->
<g id="edge20" class="edge">
<title>Node17&#45;&gt;Node5</title>
<path fill="none" stroke="midnightblue" d="M779.47,-259.32C783.33,-250.96 787.07,-241.29 789,-232 794.52,-205.52 783.84,-173.98 777.78,-159.09"/>
<polygon fill="midnightblue" stroke="midnightblue" points="776.26,-257.92 775,-268.44 782.55,-261 776.26,-257.92"/>
</g>
<!-- Node18 -->
<g id="node18" class="node">
<title>Node18</title>
<g id="a_node18"><a xlink:href="d__particle__copoly_8cpp.html" target="_top" xlink:title=" ">
<polygon fill="white" stroke="black" points="662,-201.5 662,-231.5 780,-231.5 780,-201.5 662,-201.5"/>
<text text-anchor="start" x="670" y="-219.5" font-family="Helvetica,sans-Serif" font-size="10.00">src/d/particle/d_particle</text>
<text text-anchor="middle" x="721" y="-208.5" font-family="Helvetica,sans-Serif" font-size="10.00">_copoly.cpp</text>
</a>
</g>
</g>
<!-- Node17&#45;&gt;Node18 -->
<g id="edge19" class="edge">
<title>Node17&#45;&gt;Node18</title>
<path fill="none" stroke="midnightblue" d="M751.19,-260.16C744.48,-250.68 736.87,-239.92 730.96,-231.58"/>
<polygon fill="midnightblue" stroke="midnightblue" points="748.38,-262.26 757.02,-268.4 754.1,-258.21 748.38,-262.26"/>
</g>
<!-- Node19&#45;&gt;Node5 -->
<g id="edge23" class="edge">
<title>Node19&#45;&gt;Node5</title>
<path fill="none" stroke="midnightblue" d="M874.52,-331.82C859.52,-303.91 829.32,-248.01 803,-201 794.7,-186.18 784.81,-169.06 778.98,-159.05"/>
<polygon fill="midnightblue" stroke="midnightblue" points="871.5,-333.61 879.32,-340.76 877.67,-330.29 871.5,-333.61"/>
</g>
<!-- Node19&#45;&gt;Node7 -->
<g id="edge24" class="edge">
<title>Node19&#45;&gt;Node7</title>
<path fill="none" stroke="midnightblue" d="M884.5,-330.67C884.68,-291.16 880.53,-197.96 841,-134 831.61,-118.81 815.89,-106.41 802.26,-97.7"/>
<polygon fill="midnightblue" stroke="midnightblue" points="880.99,-330.87 884.34,-340.92 887.99,-330.98 880.99,-330.87"/>
</g>
<!-- Node20 -->
<g id="node20" class="node">
<title>Node20</title>
<g id="a_node20"><a xlink:href="d__attention_8cpp.html" target="_top" xlink:title=" ">
<polygon fill="white" stroke="black" points="912.5,-274 912.5,-293 1019.5,-293 1019.5,-274 912.5,-274"/>
<text text-anchor="middle" x="966" y="-281" font-family="Helvetica,sans-Serif" font-size="10.00">src/d/d_attention.cpp</text>
</a>
</g>
</g>
<!-- Node19&#45;&gt;Node20 -->
<g id="edge22" class="edge">
<title>Node19&#45;&gt;Node20</title>
<path fill="none" stroke="midnightblue" d="M903.28,-334.21C919.44,-321.41 941.92,-303.59 955.12,-293.13"/>
<polygon fill="midnightblue" stroke="midnightblue" points="900.72,-331.78 895.06,-340.73 905.07,-337.26 900.72,-331.78"/>
</g>
<!-- Node21&#45;&gt;Node7 -->
<g id="edge27" class="edge">
<title>Node21&#45;&gt;Node7</title>
<path fill="none" stroke="midnightblue" d="M167.73,-335.83C153.62,-327.36 137.92,-315.02 130,-299 99.69,-237.64 146.01,-168.03 197,-134 292.43,-70.32 598.5,-114.72 712,-98 714.93,-97.57 717.93,-97.07 720.94,-96.54"/>
<polygon fill="midnightblue" stroke="midnightblue" points="166.23,-339.01 176.67,-340.84 169.65,-332.9 166.23,-339.01"/>
</g>
<!-- Node22 -->
<g id="node22" class="node">
<title>Node22</title>
<g id="a_node22"><a xlink:href="d__event_8cpp.html" target="_top" xlink:title=" ">
<polygon fill="white" stroke="black" points="138.5,-274 138.5,-293 259.5,-293 259.5,-274 138.5,-274"/>
<text text-anchor="middle" x="199" y="-281" font-family="Helvetica,sans-Serif" font-size="10.00">src/d/event/d_event.cpp</text>
</a>
</g>
</g>
<!-- Node21&#45;&gt;Node22 -->
<g id="edge26" class="edge">
<title>Node21&#45;&gt;Node22</title>
<path fill="none" stroke="midnightblue" d="M196.88,-330.54C197.45,-318.17 198.16,-302.62 198.6,-293.13"/>
<polygon fill="midnightblue" stroke="midnightblue" points="193.37,-330.58 196.4,-340.73 200.36,-330.91 193.37,-330.58"/>
</g>
<!-- Node23&#45;&gt;Node19 -->
<g id="edge31" class="edge">
<title>Node23&#45;&gt;Node19</title>
<path fill="none" stroke="midnightblue" d="M950.14,-529.97C999.51,-521.98 1057.7,-508.69 1073,-489 1099.58,-454.78 1064.27,-427.18 1029,-402 998.84,-380.47 958.69,-367.43 928.28,-360.01"/>
<polygon fill="midnightblue" stroke="midnightblue" points="949.41,-526.54 940.08,-531.54 950.5,-533.45 949.41,-526.54"/>
</g>
<!-- Node24 -->
<g id="node24" class="node">
<title>Node24</title>
<g id="a_node24"><a xlink:href="f__op__actor__mng_8cpp.html" target="_top" xlink:title=" ">
<polygon fill="white" stroke="black" points="694.5,-458.5 694.5,-488.5 795.5,-488.5 795.5,-458.5 694.5,-458.5"/>
<text text-anchor="start" x="702.5" y="-476.5" font-family="Helvetica,sans-Serif" font-size="10.00">src/f_op/f_op_actor</text>
<text text-anchor="middle" x="745" y="-465.5" font-family="Helvetica,sans-Serif" font-size="10.00">_mng.cpp</text>
</a>
</g>
</g>
<!-- Node23&#45;&gt;Node24 -->
<g id="edge29" class="edge">
<title>Node23&#45;&gt;Node24</title>
<path fill="none" stroke="midnightblue" d="M848.68,-526.34C826.8,-515.4 795.72,-499.86 773.3,-488.65"/>
<polygon fill="midnightblue" stroke="midnightblue" points="847.23,-529.53 857.74,-530.87 850.36,-523.27 847.23,-529.53"/>
</g>
<!-- Node25 -->
<g id="node25" class="node">
<title>Node25</title>
<g id="a_node25"><a xlink:href="m__Do__ext_8cpp.html" target="_top" xlink:title=" ">
<polygon fill="white" stroke="black" points="813.5,-464 813.5,-483 936.5,-483 936.5,-464 813.5,-464"/>
<text text-anchor="middle" x="875" y="-471" font-family="Helvetica,sans-Serif" font-size="10.00">src/m_Do/m_Do_ext.cpp</text>
</a>
</g>
</g>
<!-- Node23&#45;&gt;Node25 -->
<g id="edge30" class="edge">
<title>Node23&#45;&gt;Node25</title>
<path fill="none" stroke="midnightblue" d="M875,-520.54C875,-508.17 875,-492.62 875,-483.13"/>
<polygon fill="midnightblue" stroke="midnightblue" points="871.5,-520.73 875,-530.73 878.5,-520.73 871.5,-520.73"/>
</g>
<!-- Node26 -->
<g id="node26" class="node">
<title>Node26</title>
<g id="a_node26"><a xlink:href="d__resorce_8h.html" target="_top" xlink:title=" ">
<polygon fill="white" stroke="black" points="954.5,-464 954.5,-483 1063.5,-483 1063.5,-464 954.5,-464"/>
<text text-anchor="middle" x="1009" y="-471" font-family="Helvetica,sans-Serif" font-size="10.00">include/d/d_resorce.h</text>
</a>
</g>
</g>
<!-- Node23&#45;&gt;Node26 -->
<g id="edge32" class="edge">
<title>Node23&#45;&gt;Node26</title>
<path fill="none" stroke="midnightblue" d="M901.92,-526.44C928.46,-513.57 968.27,-494.26 991.13,-483.17"/>
<polygon fill="midnightblue" stroke="midnightblue" points="900.26,-523.35 892.79,-530.87 903.32,-529.65 900.26,-523.35"/>
</g>
<!-- Node26&#45;&gt;Node3 -->
<g id="edge34" class="edge">
<title>Node26&#45;&gt;Node3</title>
<path fill="none" stroke="midnightblue" d="M965.22,-461.75C958.8,-460.37 952.24,-459.07 946,-458 827.25,-437.69 686.95,-424.26 608.65,-417.7"/>
<polygon fill="midnightblue" stroke="midnightblue" points="964.62,-465.2 975.14,-463.96 966.14,-458.37 964.62,-465.2"/>
</g>
<!-- Node26&#45;&gt;Node7 -->
<g id="edge35" class="edge">
<title>Node26&#45;&gt;Node7</title>
<path fill="none" stroke="midnightblue" d="M1067.68,-461.52C1124.47,-447.1 1202,-415.67 1202,-351.5 1202,-351.5 1202,-351.5 1202,-215.5 1202,-178.31 1210.88,-158.62 1183,-134 1125.71,-83.42 916.42,-110.34 841,-98 837.81,-97.48 834.53,-96.9 831.23,-96.27"/>
<polygon fill="midnightblue" stroke="midnightblue" points="1066.6,-458.18 1057.7,-463.94 1068.24,-464.99 1066.6,-458.18"/>
</g>
<!-- Node27 -->
<g id="node27" class="node">
<title>Node27</title>
<g id="a_node27"><a xlink:href="d__resorce_8cpp.html" target="_top" xlink:title=" ">
<polygon fill="white" stroke="black" points="918,-402.5 918,-421.5 1020,-421.5 1020,-402.5 918,-402.5"/>
<text text-anchor="middle" x="969" y="-409.5" font-family="Helvetica,sans-Serif" font-size="10.00">src/d/d_resorce.cpp</text>
</a>
</g>
</g>
<!-- Node26&#45;&gt;Node27 -->
<g id="edge33" class="edge">
<title>Node26&#45;&gt;Node27</title>
<path fill="none" stroke="midnightblue" d="M997.57,-455.51C990.1,-444.39 980.66,-430.34 974.72,-421.51"/>
<polygon fill="midnightblue" stroke="midnightblue" points="994.79,-457.63 1003.27,-463.98 1000.59,-453.72 994.79,-457.63"/>
</g>
<!-- Node28 -->
<g id="node28" class="node">
<title>Node28</title>
<g id="a_node28"><a xlink:href="d__meter2__info_8h.html" target="_top" xlink:title=" ">
<polygon fill="white" stroke="black" points="948.5,-201.5 948.5,-231.5 1075.5,-231.5 1075.5,-201.5 948.5,-201.5"/>
<text text-anchor="start" x="956.5" y="-219.5" font-family="Helvetica,sans-Serif" font-size="10.00">include/d/meter/d_meter2</text>
<text text-anchor="middle" x="1012" y="-208.5" font-family="Helvetica,sans-Serif" font-size="10.00">_info.h</text>
</a>
</g>
</g>
<!-- Node26&#45;&gt;Node28 -->
<g id="edge36" class="edge">
<title>Node26&#45;&gt;Node28</title>
<path fill="none" stroke="midnightblue" d="M1017.94,-454.74C1022.21,-445.28 1026.85,-433.29 1029,-422 1041.83,-354.77 1040.06,-335.54 1029,-268 1026.94,-255.4 1022.16,-241.71 1018.19,-231.77"/>
<polygon fill="midnightblue" stroke="midnightblue" points="1014.74,-453.33 1013.59,-463.87 1021.05,-456.35 1014.74,-453.33"/>
</g>
<!-- Node28&#45;&gt;Node5 -->
<g id="edge39" class="edge">
<title>Node28&#45;&gt;Node5</title>
<path fill="none" stroke="midnightblue" d="M950.96,-198.83C904.38,-186.11 842.13,-169.11 805.23,-159.03"/>
<polygon fill="midnightblue" stroke="midnightblue" points="950.08,-202.22 960.65,-201.48 951.93,-195.46 950.08,-202.22"/>
</g>
<!-- Node28&#45;&gt;Node8 -->
<g id="edge37" class="edge">
<title>Node28&#45;&gt;Node8</title>
<path fill="none" stroke="midnightblue" d="M1020.75,-191.8C1030.68,-160.52 1042.53,-104.97 1018,-67 1005.04,-46.93 981.98,-34.76 960.14,-27.41"/>
<polygon fill="midnightblue" stroke="midnightblue" points="1017.38,-190.83 1017.51,-201.42 1024.02,-193.06 1017.38,-190.83"/>
</g>
<!-- Node29 -->
<g id="node29" class="node">
<title>Node29</title>
<g id="a_node29"><a xlink:href="d__meter2__info_8cpp.html" target="_top" xlink:title=" ">
<polygon fill="white" stroke="black" points="1064,-134.5 1064,-164.5 1174,-164.5 1174,-134.5 1064,-134.5"/>
<text text-anchor="start" x="1072" y="-152.5" font-family="Helvetica,sans-Serif" font-size="10.00">src/d/meter/d_meter2</text>
<text text-anchor="middle" x="1119" y="-141.5" font-family="Helvetica,sans-Serif" font-size="10.00">_info.cpp</text>
</a>
</g>
</g>
<!-- Node28&#45;&gt;Node29 -->
<g id="edge38" class="edge">
<title>Node28&#45;&gt;Node29</title>
<path fill="none" stroke="midnightblue" d="M1044.08,-196.02C1060.73,-185.9 1080.69,-173.77 1095.83,-164.58"/>
<polygon fill="midnightblue" stroke="midnightblue" points="1041.95,-193.21 1035.22,-201.4 1045.58,-199.2 1041.95,-193.21"/>
</g>
<!-- Node30 -->
<g id="node30" class="node">
<title>Node30</title>
<g id="a_node30"><a xlink:href="d__menu__window_8h.html" target="_top" xlink:title=" ">
<polygon fill="white" stroke="black" points="888,-134.5 888,-164.5 1008,-164.5 1008,-134.5 888,-134.5"/>
<text text-anchor="start" x="896" y="-152.5" font-family="Helvetica,sans-Serif" font-size="10.00">include/d/menu/d_menu</text>
<text text-anchor="middle" x="948" y="-141.5" font-family="Helvetica,sans-Serif" font-size="10.00">_window.h</text>
</a>
</g>
</g>
<!-- Node28&#45;&gt;Node30 -->
<g id="edge40" class="edge">
<title>Node28&#45;&gt;Node30</title>
<path fill="none" stroke="midnightblue" d="M985.07,-194.6C974.7,-184.78 963.67,-173.34 956.19,-164.58"/>
<polygon fill="midnightblue" stroke="midnightblue" points="982.71,-197.19 992.43,-201.4 987.46,-192.04 982.71,-197.19"/>
</g>
<!-- Node30&#45;&gt;Node28 -->
<g id="edge42" class="edge">
<title>Node30&#45;&gt;Node28</title>
<path fill="none" stroke="midnightblue" d="M974.9,-171.37C985.26,-181.18 996.3,-192.62 1003.79,-201.4"/>
<polygon fill="midnightblue" stroke="midnightblue" points="977.26,-168.78 967.53,-164.58 972.51,-173.93 977.26,-168.78"/>
</g>
<!-- Node31 -->
<g id="node31" class="node">
<title>Node31</title>
<g id="a_node31"><a xlink:href="d__menu__window_8cpp.html" target="_top" xlink:title=" ">
<polygon fill="white" stroke="black" points="849.5,-73 849.5,-92 1008.5,-92 1008.5,-73 849.5,-73"/>
<text text-anchor="middle" x="929" y="-80" font-family="Helvetica,sans-Serif" font-size="10.00">src/d/menu/d_menu_window.cpp</text>
</a>
</g>
</g>
<!-- Node30&#45;&gt;Node31 -->
<g id="edge41" class="edge">
<title>Node30&#45;&gt;Node31</title>
<path fill="none" stroke="midnightblue" d="M941.01,-124.6C937.7,-113.28 933.96,-100.46 931.54,-92.19"/>
<polygon fill="midnightblue" stroke="midnightblue" points="937.71,-125.78 943.88,-134.4 944.43,-123.82 937.71,-125.78"/>
</g>
</g>
</svg>
        <g id="navigator" transform="translate(0 0)" fill="#404254">
                <rect fill="#f2f5e9" fill-opacity="0.5" stroke="#606060" stroke-width=".5" x="0" y="0" width="60" height="60"/>
                <use id="zoomplus" xlink:href="#zoomPlus" x="17" y="9" onmousedown="handleZoom(evt,'in')"/>
                <use id="zoomminus" xlink:href="#zoomMin" x="42" y="9" onmousedown="handleZoom(evt,'out')"/>
                <use id="reset" xlink:href="#resetDef" x="30" y="36" onmousedown="handleReset()"/>
                <g id="arrowUp" xlink:href="#dirArrow" transform="translate(30 24)" onmousedown="handlePan(0,-1)">
                  <use xlink:href="#rim" fill="#404040">
                        <set attributeName="fill" to="#808080" begin="arrowUp.mouseover" end="arrowUp.mouseout"/>
                  </use>
                  <path fill="none" stroke="white" stroke-width="1.5" d="M0,-3.0v7 M-2.5,-0.5L0,-3.0L2.5,-0.5"/>
                </g>
                <g id="arrowRight" xlink:href="#dirArrow" transform="rotate(90) translate(36 -43)" onmousedown="handlePan(1,0)">
                  <use xlink:href="#rim" fill="#404040">
                        <set attributeName="fill" to="#808080" begin="arrowRight.mouseover" end="arrowRight.mouseout"/>
                  </use>
                  <path fill="none" stroke="white" stroke-width="1.5" d="M0,-3.0v7 M-2.5,-0.5L0,-3.0L2.5,-0.5"/>
                </g>
                <g id="arrowDown" xlink:href="#dirArrow" transform="rotate(180) translate(-30 -48)" onmousedown="handlePan(0,1)">
                  <use xlink:href="#rim" fill="#404040">
                        <set attributeName="fill" to="#808080" begin="arrowDown.mouseover" end="arrowDown.mouseout"/>
                  </use>
                  <path fill="none" stroke="white" stroke-width="1.5" d="M0,-3.0v7 M-2.5,-0.5L0,-3.0L2.5,-0.5"/>
                </g>
                <g id="arrowLeft" xlink:href="#dirArrow" transform="rotate(270) translate(-36 17)" onmousedown="handlePan(-1,0)">
                  <use xlink:href="#rim" fill="#404040">
                        <set attributeName="fill" to="#808080" begin="arrowLeft.mouseover" end="arrowLeft.mouseout"/>
                  </use>
                  <path fill="none" stroke="white" stroke-width="1.5" d="M0,-3.0v7 M-2.5,-0.5L0,-3.0L2.5,-0.5"/>
                </g>
        </g>
        <svg viewBox="0 0 15 15" width="100%" height="30px" preserveAspectRatio="xMaxYMin meet">
         <g id="arrow_out" transform="scale(0.3 0.3)">
          <a xlink:href="J3DAnimation_8h__dep__incl_org.svg" target="_base">
           <rect id="button" ry="5" rx="5" y="6" x="6" height="38" width="38"
                fill="#f2f5e9" fill-opacity="0.5" stroke="#606060" stroke-width="1.0"/>
           <path id="arrow"
             d="M 11.500037,31.436501 C 11.940474,20.09759 22.043105,11.32322 32.158766,21.979434 L 37.068811,17.246167 C 37.068811,17.246167 37.088388,32 37.088388,32 L 22.160133,31.978069 C 22.160133,31.978069 26.997745,27.140456 26.997745,27.140456 C 18.528582,18.264221 13.291696,25.230495 11.500037,31.436501 z"
             style="fill:#404040;"/>
          </a>
         </g>
        </svg>
</svg>
