<?xml version="1.0" encoding="UTF-8" standalone="no"?>
<!DOCTYPE svg PUBLIC "-//W3C//DTD SVG 1.1//EN"
 "http://www.w3.org/Graphics/SVG/1.1/DTD/svg11.dtd">
<!-- Generated by graphviz version 2.44.0 ()
 -->
<!-- Title: include/JSystem/J3DGraphAnimator/J3DAnimation.h Pages: 1 -->
<!--zoomable 687 -->
<svg id="main" version="1.1" xmlns="http://www.w3.org/2000/svg" xmlns:xlink="http://www.w3.org/1999/xlink" xml:space="preserve" onload="init(evt)">
<style type="text/css"><![CDATA[
.edge:hover path { stroke: red; }
.edge:hover polygon { stroke: red; fill: red; }
]]></style>
<script type="text/javascript"><![CDATA[
var edges = document.getElementsByTagName('g');
if (edges && edges.length) {
  for (var i=0;i<edges.length;i++) {
    if (edges[i].id.substr(0,4)=='edge') {
      edges[i].setAttribute('class','edge');
    }
  }
}
]]></script>
        <defs>
                <circle id="rim" cx="0" cy="0" r="7"/>
                <circle id="rim2" cx="0" cy="0" r="3.5"/>
                <g id="zoomPlus">
                        <use xlink:href="#rim" fill="#404040">
                                <set attributeName="fill" to="#808080" begin="zoomplus.mouseover" end="zoomplus.mouseout"/>
                        </use>
                        <path d="M-4,0h8M0,-4v8" fill="none" stroke="white" stroke-width="1.5" pointer-events="none"/>
                </g>
                <g id="zoomMin">
                        <use xlink:href="#rim" fill="#404040">
                                <set attributeName="fill" to="#808080" begin="zoomminus.mouseover" end="zoomminus.mouseout"/>
                        </use>
                        <path d="M-4,0h8" fill="none" stroke="white" stroke-width="1.5" pointer-events="none"/>
                </g>
                <g id="dirArrow">
                        <path fill="none" stroke="white" stroke-width="1.5" d="M0,-3.0v7 M-2.5,-0.5L0,-3.0L2.5,-0.5"/>
                </g>
               <g id="resetDef">
                       <use xlink:href="#rim2" fill="#404040">
                               <set attributeName="fill" to="#808080" begin="reset.mouseover" end="reset.mouseout"/>
                       </use>
               </g>
        </defs>

<script type="text/javascript">
var viewWidth = 1185;
var viewHeight = 687;
var sectionId = 'dynsection-1';
</script>
<script xlink:href="svgpan.js"/>
<svg id="graph" class="graph">
<g id="viewport">
<title>include/JSystem/J3DGraphAnimator/J3DAnimation.h</title>
<polygon fill="white" stroke="transparent" points="-4,4 -4,-683 1180.78,-683 1180.78,4 -4,4"/>
<!-- Node1 -->
<g id="node1" class="node">
<title>Node1</title>
<g id="a_node1"><a xlink:title=" ">
<polygon fill="#bfbfbf" stroke="black" points="287.78,-648.5 287.78,-678.5 422.78,-678.5 422.78,-648.5 287.78,-648.5"/>
<text text-anchor="start" x="295.78" y="-666.5" font-family="Helvetica,sans-Serif" font-size="10.00">include/JSystem/J3DGraph</text>
<text text-anchor="middle" x="355.28" y="-655.5" font-family="Helvetica,sans-Serif" font-size="10.00">Animator/J3DAnimation.h</text>
</a>
</g>
</g>
<!-- Node2 -->
<g id="node2" class="node">
<title>Node2</title>
<g id="a_node2"><a xlink:href="J3DAnimation_8cpp.html" target="_top" xlink:title=" ">
<polygon fill="white" stroke="black" points="169.28,-581.5 169.28,-611.5 327.28,-611.5 327.28,-581.5 169.28,-581.5"/>
<text text-anchor="start" x="177.28" y="-599.5" font-family="Helvetica,sans-Serif" font-size="10.00">libs/JSystem/J3DGraphAnimator</text>
<text text-anchor="middle" x="248.28" y="-588.5" font-family="Helvetica,sans-Serif" font-size="10.00">/J3DAnimation.cpp</text>
</a>
</g>
</g>
<!-- Node1&#45;&gt;Node2 -->
<g id="edge1" class="edge">
<title>Node1&#45;&gt;Node2</title>
<path fill="none" stroke="midnightblue" d="M323.21,-643.02C306.56,-632.9 286.59,-620.77 271.45,-611.58"/>
<polygon fill="midnightblue" stroke="midnightblue" points="321.7,-646.2 332.06,-648.4 325.33,-640.21 321.7,-646.2"/>
</g>
<!-- Node3 -->
<g id="node3" class="node">
<title>Node3</title>
<g id="a_node3"><a xlink:href="d__a__player_8h.html" target="_top" xlink:title=" ">
<polygon fill="white" stroke="black" points="294.78,-458.5 294.78,-477.5 415.78,-477.5 415.78,-458.5 294.78,-458.5"/>
<text text-anchor="middle" x="355.28" y="-465.5" font-family="Helvetica,sans-Serif" font-size="10.00">include/d/a/d_a_player.h</text>
</a>
</g>
</g>
<!-- Node1&#45;&gt;Node3 -->
<g id="edge2" class="edge">
<title>Node1&#45;&gt;Node3</title>
<path fill="none" stroke="midnightblue" d="M355.28,-638C355.28,-594.44 355.28,-505.49 355.28,-477.58"/>
<polygon fill="midnightblue" stroke="midnightblue" points="351.78,-638.27 355.28,-648.27 358.78,-638.27 351.78,-638.27"/>
</g>
<!-- Node26 -->
<g id="node26" class="node">
<title>Node26</title>
<g id="a_node26"><a xlink:href="m__Do__ext_8h.html" target="_top" xlink:title=" ">
<polygon fill="white" stroke="black" points="646.28,-587 646.28,-606 776.28,-606 776.28,-587 646.28,-587"/>
<text text-anchor="middle" x="711.28" y="-594" font-family="Helvetica,sans-Serif" font-size="10.00">include/m_Do/m_Do_ext.h</text>
</a>
</g>
</g>
<!-- Node1&#45;&gt;Node26 -->
<g id="edge34" class="edge">
<title>Node1&#45;&gt;Node26</title>
<path fill="none" stroke="midnightblue" d="M433.28,-648.26C504.02,-635.34 605.95,-616.73 664.72,-606"/>
<polygon fill="midnightblue" stroke="midnightblue" points="432.29,-644.88 423.08,-650.12 433.55,-651.77 432.29,-644.88"/>
</g>
<!-- Node4 -->
<g id="node4" class="node">
<title>Node4</title>
<g id="a_node4"><a xlink:href="d__a__player_8cpp.html" target="_top" xlink:title=" ">
<polygon fill="white" stroke="black" points="175.28,-397 175.28,-416 289.28,-416 289.28,-397 175.28,-397"/>
<text text-anchor="middle" x="232.28" y="-404" font-family="Helvetica,sans-Serif" font-size="10.00">src/d/a/d_a_player.cpp</text>
</a>
</g>
</g>
<!-- Node3&#45;&gt;Node4 -->
<g id="edge3" class="edge">
<title>Node3&#45;&gt;Node4</title>
<path fill="none" stroke="midnightblue" d="M328.45,-454.02C304.6,-442.48 270.41,-425.94 249.87,-416.01"/>
<polygon fill="midnightblue" stroke="midnightblue" points="327.13,-457.27 337.66,-458.48 330.18,-450.97 327.13,-457.27"/>
</g>
<!-- Node5 -->
<g id="node5" class="node">
<title>Node5</title>
<g id="a_node5"><a xlink:href="d__a__alink_8h.html" target="_top" xlink:title=" ">
<polygon fill="white" stroke="black" points="360.28,-196 360.28,-215 476.28,-215 476.28,-196 360.28,-196"/>
<text text-anchor="middle" x="418.28" y="-203" font-family="Helvetica,sans-Serif" font-size="10.00">include/d/a/d_a_alink.h</text>
</a>
</g>
</g>
<!-- Node3&#45;&gt;Node5 -->
<g id="edge4" class="edge">
<title>Node3&#45;&gt;Node5</title>
<path fill="none" stroke="midnightblue" d="M284.5,-461.59C213.88,-452.14 108.09,-426.21 52.28,-355 24.86,-320.01 2.96,-290.41 32.28,-257 37.65,-250.88 253.76,-225.35 360.22,-213.1"/>
<polygon fill="midnightblue" stroke="midnightblue" points="284.29,-465.09 294.65,-462.87 285.17,-458.15 284.29,-465.09"/>
</g>
<!-- Node13 -->
<g id="node13" class="node">
<title>Node13</title>
<g id="a_node13"><a xlink:href="d__bg__s__acch_8h.html" target="_top" xlink:title=" ">
<polygon fill="white" stroke="black" points="307.28,-391.5 307.28,-421.5 411.28,-421.5 411.28,-391.5 307.28,-391.5"/>
<text text-anchor="start" x="315.28" y="-409.5" font-family="Helvetica,sans-Serif" font-size="10.00">include/d/bg/d_bg_s</text>
<text text-anchor="middle" x="359.28" y="-398.5" font-family="Helvetica,sans-Serif" font-size="10.00">_acch.h</text>
</a>
</g>
</g>
<!-- Node3&#45;&gt;Node13 -->
<g id="edge14" class="edge">
<title>Node3&#45;&gt;Node13</title>
<path fill="none" stroke="midnightblue" d="M356.54,-448.23C357.12,-439.59 357.8,-429.5 358.34,-421.52"/>
<polygon fill="midnightblue" stroke="midnightblue" points="353.03,-448.26 355.85,-458.48 360.02,-448.73 353.03,-448.26"/>
</g>
<!-- Node23 -->
<g id="node23" class="node">
<title>Node23</title>
<g id="a_node23"><a xlink:href="d__attention_8h.html" target="_top" xlink:title=" ">
<polygon fill="white" stroke="black" points="573.28,-397 573.28,-416 687.28,-416 687.28,-397 573.28,-397"/>
<text text-anchor="middle" x="630.28" y="-404" font-family="Helvetica,sans-Serif" font-size="10.00">include/d/d_attention.h</text>
</a>
</g>
</g>
<!-- Node3&#45;&gt;Node23 -->
<g id="edge27" class="edge">
<title>Node3&#45;&gt;Node23</title>
<path fill="none" stroke="midnightblue" d="M404.59,-456.33C457.93,-444.79 541.88,-426.63 590.95,-416.01"/>
<polygon fill="midnightblue" stroke="midnightblue" points="403.72,-452.94 394.68,-458.48 405.2,-459.78 403.72,-452.94"/>
</g>
<!-- Node25 -->
<g id="node25" class="node">
<title>Node25</title>
<g id="a_node25"><a xlink:href="d__event_8h.html" target="_top" xlink:title=" ">
<polygon fill="white" stroke="black" points="31.28,-196 31.28,-215 159.28,-215 159.28,-196 31.28,-196"/>
<text text-anchor="middle" x="95.28" y="-203" font-family="Helvetica,sans-Serif" font-size="10.00">include/d/event/d_event.h</text>
</a>
</g>
</g>
<!-- Node3&#45;&gt;Node25 -->
<g id="edge31" class="edge">
<title>Node3&#45;&gt;Node25</title>
<path fill="none" stroke="midnightblue" d="M284.48,-460.56C216.52,-453.42 119.45,-440.43 86.28,-422 16.5,-383.22 -23.26,-326.91 15.28,-257 26.7,-236.29 50.59,-222.9 69.3,-215.15"/>
<polygon fill="midnightblue" stroke="midnightblue" points="284.4,-464.07 294.71,-461.61 285.12,-457.11 284.4,-464.07"/>
</g>
<!-- Node6 -->
<g id="node6" class="node">
<title>Node6</title>
<g id="a_node6"><a xlink:href="d__a__alink_8cpp.html" target="_top" xlink:title=" ">
<polygon fill="white" stroke="black" points="363.78,-67.5 363.78,-86.5 472.78,-86.5 472.78,-67.5 363.78,-67.5"/>
<text text-anchor="middle" x="418.28" y="-74.5" font-family="Helvetica,sans-Serif" font-size="10.00">src/d/a/d_a_alink.cpp</text>
</a>
</g>
</g>
<!-- Node5&#45;&gt;Node6 -->
<g id="edge5" class="edge">
<title>Node5&#45;&gt;Node6</title>
<path fill="none" stroke="midnightblue" d="M418.28,-185.44C418.28,-157.62 418.28,-107.04 418.28,-86.76"/>
<polygon fill="midnightblue" stroke="midnightblue" points="414.78,-185.81 418.28,-195.81 421.78,-185.81 414.78,-185.81"/>
</g>
<!-- Node7 -->
<g id="node7" class="node">
<title>Node7</title>
<g id="a_node7"><a xlink:href="d__com__inf__game_8h.html" target="_top" xlink:title=" ">
<polygon fill="white" stroke="black" points="446.28,-123.5 446.28,-153.5 556.28,-153.5 556.28,-123.5 446.28,-123.5"/>
<text text-anchor="start" x="454.28" y="-141.5" font-family="Helvetica,sans-Serif" font-size="10.00">include/d/com/d_com</text>
<text text-anchor="middle" x="501.28" y="-130.5" font-family="Helvetica,sans-Serif" font-size="10.00">_inf_game.h</text>
</a>
</g>
</g>
<!-- Node5&#45;&gt;Node7 -->
<g id="edge6" class="edge">
<title>Node5&#45;&gt;Node7</title>
<path fill="none" stroke="midnightblue" d="M437.38,-189.54C451.19,-178.73 469.74,-164.2 483.29,-153.59"/>
<polygon fill="midnightblue" stroke="midnightblue" points="435.19,-186.81 429.48,-195.73 439.51,-192.32 435.19,-186.81"/>
</g>
<!-- Node7&#45;&gt;Node6 -->
<g id="edge8" class="edge">
<title>Node7&#45;&gt;Node6</title>
<path fill="none" stroke="midnightblue" d="M473.36,-117.48C458.74,-107 441.59,-94.71 430.36,-86.66"/>
<polygon fill="midnightblue" stroke="midnightblue" points="471.44,-120.42 481.61,-123.4 475.52,-114.73 471.44,-120.42"/>
</g>
<!-- Node8 -->
<g id="node8" class="node">
<title>Node8</title>
<g id="a_node8"><a xlink:href="d__com__inf__game_8cpp.html" target="_top" xlink:title=" ">
<polygon fill="white" stroke="black" points="523.28,-0.5 523.28,-30.5 631.28,-30.5 631.28,-0.5 523.28,-0.5"/>
<text text-anchor="start" x="531.28" y="-18.5" font-family="Helvetica,sans-Serif" font-size="10.00">src/d/com/d_com_inf</text>
<text text-anchor="middle" x="577.28" y="-7.5" font-family="Helvetica,sans-Serif" font-size="10.00">_game.cpp</text>
</a>
</g>
</g>
<!-- Node7&#45;&gt;Node8 -->
<g id="edge7" class="edge">
<title>Node7&#45;&gt;Node8</title>
<path fill="none" stroke="midnightblue" d="M504.7,-113.24C507.53,-98.97 512.55,-81.03 521.28,-67 530.27,-52.55 544.57,-39.75 556.47,-30.66"/>
<polygon fill="midnightblue" stroke="midnightblue" points="501.22,-112.87 502.94,-123.32 508.11,-114.07 501.22,-112.87"/>
</g>
<!-- Node9 -->
<g id="node9" class="node">
<title>Node9</title>
<g id="a_node9"><a xlink:href="d__event_8cpp.html" target="_top" xlink:title=" ">
<polygon fill="white" stroke="black" points="175.78,-67.5 175.78,-86.5 296.78,-86.5 296.78,-67.5 175.78,-67.5"/>
<text text-anchor="middle" x="236.28" y="-74.5" font-family="Helvetica,sans-Serif" font-size="10.00">src/d/event/d_event.cpp</text>
</a>
</g>
</g>
<!-- Node7&#45;&gt;Node9 -->
<g id="edge9" class="edge">
<title>Node7&#45;&gt;Node9</title>
<path fill="none" stroke="midnightblue" d="M436.14,-122.87C385.34,-111.47 316.53,-96.02 274.33,-86.54"/>
<polygon fill="midnightblue" stroke="midnightblue" points="435.53,-126.32 446.05,-125.1 437.06,-119.49 435.53,-126.32"/>
</g>
<!-- Node10 -->
<g id="node10" class="node">
<title>Node10</title>
<g id="a_node10"><a xlink:href="d__save_8cpp.html" target="_top" xlink:title=" ">
<polygon fill="white" stroke="black" points="642.78,-67.5 642.78,-86.5 757.78,-86.5 757.78,-67.5 642.78,-67.5"/>
<text text-anchor="middle" x="700.28" y="-74.5" font-family="Helvetica,sans-Serif" font-size="10.00">src/d/save/d_save.cpp</text>
</a>
</g>
</g>
<!-- Node7&#45;&gt;Node10 -->
<g id="edge10" class="edge">
<title>Node7&#45;&gt;Node10</title>
<path fill="none" stroke="midnightblue" d="M557.91,-120.57C595.13,-109.44 642.24,-95.35 671.83,-86.51"/>
<polygon fill="midnightblue" stroke="midnightblue" points="556.77,-117.26 548.19,-123.47 558.77,-123.96 556.77,-117.26"/>
</g>
<!-- Node11 -->
<g id="node11" class="node">
<title>Node11</title>
<g id="a_node11"><a xlink:href="d__item_8h.html" target="_top" xlink:title=" ">
<polygon fill="white" stroke="black" points="529.78,-67.5 529.78,-86.5 624.78,-86.5 624.78,-67.5 529.78,-67.5"/>
<text text-anchor="middle" x="577.28" y="-74.5" font-family="Helvetica,sans-Serif" font-size="10.00">include/d/d_item.h</text>
</a>
</g>
</g>
<!-- Node7&#45;&gt;Node11 -->
<g id="edge11" class="edge">
<title>Node7&#45;&gt;Node11</title>
<path fill="none" stroke="midnightblue" d="M527.23,-117.19C540.53,-106.77 556.04,-94.63 566.22,-86.66"/>
<polygon fill="midnightblue" stroke="midnightblue" points="525.01,-114.48 519.29,-123.4 529.32,-119.99 525.01,-114.48"/>
</g>
<!-- Node11&#45;&gt;Node8 -->
<g id="edge12" class="edge">
<title>Node11&#45;&gt;Node8</title>
<path fill="none" stroke="midnightblue" d="M577.28,-57.23C577.28,-48.59 577.28,-38.5 577.28,-30.52"/>
<polygon fill="midnightblue" stroke="midnightblue" points="573.78,-57.48 577.28,-67.48 580.78,-57.48 573.78,-57.48"/>
</g>
<!-- Node12 -->
<g id="node12" class="node">
<title>Node12</title>
<g id="a_node12"><a xlink:href="d__item_8cpp.html" target="_top" xlink:title=" ">
<polygon fill="white" stroke="black" points="797.78,-6 797.78,-25 886.78,-25 886.78,-6 797.78,-6"/>
<text text-anchor="middle" x="842.28" y="-13" font-family="Helvetica,sans-Serif" font-size="10.00">src/d/d_item.cpp</text>
</a>
</g>
</g>
<!-- Node11&#45;&gt;Node12 -->
<g id="edge13" class="edge">
<title>Node11&#45;&gt;Node12</title>
<path fill="none" stroke="midnightblue" d="M625.12,-65.26C676.53,-53.72 757.19,-35.61 804.38,-25.01"/>
<polygon fill="midnightblue" stroke="midnightblue" points="624.24,-61.87 615.25,-67.48 625.77,-68.7 624.24,-61.87"/>
</g>
<!-- Node14 -->
<g id="node14" class="node">
<title>Node14</title>
<g id="a_node14"><a xlink:href="d__bg__s__acch_8cpp.html" target="_top" xlink:title=" ">
<polygon fill="white" stroke="black" points="432.78,-330 432.78,-349 563.78,-349 563.78,-330 432.78,-330"/>
<text text-anchor="middle" x="498.28" y="-337" font-family="Helvetica,sans-Serif" font-size="10.00">src/d/bg/d_bg_s_acch.cpp</text>
</a>
</g>
</g>
<!-- Node13&#45;&gt;Node14 -->
<g id="edge15" class="edge">
<title>Node13&#45;&gt;Node14</title>
<path fill="none" stroke="midnightblue" d="M398.56,-387.13C425.32,-374.62 459.49,-358.64 480.09,-349.01"/>
<polygon fill="midnightblue" stroke="midnightblue" points="397.02,-383.99 389.44,-391.4 399.98,-390.33 397.02,-383.99"/>
</g>
<!-- Node15 -->
<g id="node15" class="node">
<title>Node15</title>
<g id="a_node15"><a xlink:href="d__bg__w_8h.html" target="_top" xlink:title=" ">
<polygon fill="white" stroke="black" points="61.78,-330 61.78,-349 174.78,-349 174.78,-330 61.78,-330"/>
<text text-anchor="middle" x="118.28" y="-337" font-family="Helvetica,sans-Serif" font-size="10.00">include/d/bg/d_bg_w.h</text>
</a>
</g>
</g>
<!-- Node13&#45;&gt;Node15 -->
<g id="edge16" class="edge">
<title>Node13&#45;&gt;Node15</title>
<path fill="none" stroke="midnightblue" d="M297.48,-388.83C250.31,-376.11 187.27,-359.11 149.9,-349.03"/>
<polygon fill="midnightblue" stroke="midnightblue" points="296.72,-392.25 307.28,-391.48 298.54,-385.49 296.72,-392.25"/>
</g>
<!-- Node19 -->
<g id="node19" class="node">
<title>Node19</title>
<g id="a_node19"><a xlink:href="d__bomb_8h.html" target="_top" xlink:title=" ">
<polygon fill="white" stroke="black" points="192.78,-330 192.78,-349 293.78,-349 293.78,-330 192.78,-330"/>
<text text-anchor="middle" x="243.28" y="-337" font-family="Helvetica,sans-Serif" font-size="10.00">include/d/d_bomb.h</text>
</a>
</g>
</g>
<!-- Node13&#45;&gt;Node19 -->
<g id="edge22" class="edge">
<title>Node13&#45;&gt;Node19</title>
<path fill="none" stroke="midnightblue" d="M325.32,-386.47C303.18,-374.06 275.35,-358.47 258.46,-349.01"/>
<polygon fill="midnightblue" stroke="midnightblue" points="323.68,-389.56 334.11,-391.4 327.1,-383.45 323.68,-389.56"/>
</g>
<!-- Node21 -->
<g id="node21" class="node">
<title>Node21</title>
<g id="a_node21"><a xlink:href="d__particle__copoly_8h.html" target="_top" xlink:title=" ">
<polygon fill="white" stroke="black" points="312.28,-324.5 312.28,-354.5 414.28,-354.5 414.28,-324.5 312.28,-324.5"/>
<text text-anchor="start" x="320.28" y="-342.5" font-family="Helvetica,sans-Serif" font-size="10.00">include/d/particle</text>
<text text-anchor="middle" x="363.28" y="-331.5" font-family="Helvetica,sans-Serif" font-size="10.00">/d_particle_copoly.h</text>
</a>
</g>
</g>
<!-- Node13&#45;&gt;Node21 -->
<g id="edge24" class="edge">
<title>Node13&#45;&gt;Node21</title>
<path fill="none" stroke="midnightblue" d="M360.76,-381.4C361.32,-372.37 361.93,-362.41 362.42,-354.58"/>
<polygon fill="midnightblue" stroke="midnightblue" points="357.27,-381.2 360.15,-391.4 364.26,-381.63 357.27,-381.2"/>
</g>
<!-- Node16 -->
<g id="node16" class="node">
<title>Node16</title>
<g id="a_node16"><a xlink:href="d__bg__w_8cpp.html" target="_top" xlink:title=" ">
<polygon fill="white" stroke="black" points="41.78,-263 41.78,-282 148.78,-282 148.78,-263 41.78,-263"/>
<text text-anchor="middle" x="95.28" y="-270" font-family="Helvetica,sans-Serif" font-size="10.00">src/d/bg/d_bg_w.cpp</text>
</a>
</g>
</g>
<!-- Node15&#45;&gt;Node16 -->
<g id="edge17" class="edge">
<title>Node15&#45;&gt;Node16</title>
<path fill="none" stroke="midnightblue" d="M111.84,-320.29C107.42,-307.81 101.76,-291.81 98.33,-282.13"/>
<polygon fill="midnightblue" stroke="midnightblue" points="108.54,-321.47 115.18,-329.73 115.14,-319.14 108.54,-321.47"/>
</g>
<!-- Node17 -->
<g id="node17" class="node">
<title>Node17</title>
<g id="a_node17"><a xlink:href="d__bg__s_8h.html" target="_top" xlink:title=" ">
<polygon fill="white" stroke="black" points="166.78,-263 166.78,-282 277.78,-282 277.78,-263 166.78,-263"/>
<text text-anchor="middle" x="222.28" y="-270" font-family="Helvetica,sans-Serif" font-size="10.00">include/d/bg/d_bg_s.h</text>
</a>
</g>
</g>
<!-- Node15&#45;&gt;Node17 -->
<g id="edge18" class="edge">
<title>Node15&#45;&gt;Node17</title>
<path fill="none" stroke="midnightblue" d="M141.05,-324.27C161.64,-311.4 191.27,-292.88 208.48,-282.13"/>
<polygon fill="midnightblue" stroke="midnightblue" points="138.93,-321.47 132.31,-329.73 142.64,-327.4 138.93,-321.47"/>
</g>
<!-- Node17&#45;&gt;Node5 -->
<g id="edge20" class="edge">
<title>Node17&#45;&gt;Node5</title>
<path fill="none" stroke="midnightblue" d="M258.16,-259.6C297.02,-246.71 358.06,-226.47 392.46,-215.06"/>
<polygon fill="midnightblue" stroke="midnightblue" points="256.7,-256.4 248.31,-262.87 258.9,-263.04 256.7,-256.4"/>
</g>
<!-- Node17&#45;&gt;Node7 -->
<g id="edge21" class="edge">
<title>Node17&#45;&gt;Node7</title>
<path fill="none" stroke="midnightblue" d="M241.97,-256.95C266.56,-239.29 310.38,-209.46 351.28,-190 382.92,-174.95 420.25,-162.36 449.75,-153.52"/>
<polygon fill="midnightblue" stroke="midnightblue" points="239.86,-254.16 233.83,-262.86 243.97,-259.82 239.86,-254.16"/>
</g>
<!-- Node18 -->
<g id="node18" class="node">
<title>Node18</title>
<g id="a_node18"><a xlink:href="d__bg__s_8cpp.html" target="_top" xlink:title=" ">
<polygon fill="white" stroke="black" points="177.28,-196 177.28,-215 281.28,-215 281.28,-196 177.28,-196"/>
<text text-anchor="middle" x="229.28" y="-203" font-family="Helvetica,sans-Serif" font-size="10.00">src/d/bg/d_bg_s.cpp</text>
</a>
</g>
</g>
<!-- Node17&#45;&gt;Node18 -->
<g id="edge19" class="edge">
<title>Node17&#45;&gt;Node18</title>
<path fill="none" stroke="midnightblue" d="M224.32,-252.54C225.66,-240.17 227.33,-224.62 228.35,-215.13"/>
<polygon fill="midnightblue" stroke="midnightblue" points="220.82,-252.42 223.23,-262.73 227.78,-253.17 220.82,-252.42"/>
</g>
<!-- Node20 -->
<g id="node20" class="node">
<title>Node20</title>
<g id="a_node20"><a xlink:href="d__bomb_8cpp.html" target="_top" xlink:title=" ">
<polygon fill="white" stroke="black" points="296.28,-263 296.28,-282 390.28,-282 390.28,-263 296.28,-263"/>
<text text-anchor="middle" x="343.28" y="-270" font-family="Helvetica,sans-Serif" font-size="10.00">src/d/d_bomb.cpp</text>
</a>
</g>
</g>
<!-- Node19&#45;&gt;Node20 -->
<g id="edge23" class="edge">
<title>Node19&#45;&gt;Node20</title>
<path fill="none" stroke="midnightblue" d="M265.18,-324.27C284.97,-311.4 313.47,-292.88 330.01,-282.13"/>
<polygon fill="midnightblue" stroke="midnightblue" points="263.24,-321.35 256.77,-329.73 267.06,-327.22 263.24,-321.35"/>
</g>
<!-- Node21&#45;&gt;Node5 -->
<g id="edge26" class="edge">
<title>Node21&#45;&gt;Node5</title>
<path fill="none" stroke="midnightblue" d="M381.78,-316.53C388.13,-308.06 394.76,-298.01 399.28,-288 410.52,-263.11 415.5,-230.82 417.35,-215.43"/>
<polygon fill="midnightblue" stroke="midnightblue" points="379.02,-314.38 375.62,-324.41 384.54,-318.69 379.02,-314.38"/>
</g>
<!-- Node22 -->
<g id="node22" class="node">
<title>Node22</title>
<g id="a_node22"><a xlink:href="d__particle__copoly_8cpp.html" target="_top" xlink:title=" ">
<polygon fill="white" stroke="black" points="446.28,-257.5 446.28,-287.5 564.28,-287.5 564.28,-257.5 446.28,-257.5"/>
<text text-anchor="start" x="454.28" y="-275.5" font-family="Helvetica,sans-Serif" font-size="10.00">src/d/particle/d_particle</text>
<text text-anchor="middle" x="505.28" y="-264.5" font-family="Helvetica,sans-Serif" font-size="10.00">_copoly.cpp</text>
</a>
</g>
</g>
<!-- Node21&#45;&gt;Node22 -->
<g id="edge25" class="edge">
<title>Node21&#45;&gt;Node22</title>
<path fill="none" stroke="midnightblue" d="M403.41,-320.13C425.97,-309.8 453.7,-297.11 474.53,-287.58"/>
<polygon fill="midnightblue" stroke="midnightblue" points="401.73,-317.05 394.09,-324.4 404.64,-323.42 401.73,-317.05"/>
</g>
<!-- Node23&#45;&gt;Node5 -->
<g id="edge29" class="edge">
<title>Node23&#45;&gt;Node5</title>
<path fill="none" stroke="midnightblue" d="M625.29,-386.84C615.42,-351.22 592.7,-275.45 573.28,-257 547.12,-232.15 508.57,-219.53 476.46,-213.11"/>
<polygon fill="midnightblue" stroke="midnightblue" points="622.02,-388.14 628.02,-396.87 628.77,-386.3 622.02,-388.14"/>
</g>
<!-- Node23&#45;&gt;Node7 -->
<g id="edge30" class="edge">
<title>Node23&#45;&gt;Node7</title>
<path fill="none" stroke="midnightblue" d="M627.73,-386.84C625.3,-370.24 621.28,-345.35 616.28,-324 609.19,-293.74 610.77,-284.49 596.28,-257 574.39,-215.46 536.67,-174.56 515.95,-153.72"/>
<polygon fill="midnightblue" stroke="midnightblue" points="624.28,-387.46 629.15,-396.87 631.21,-386.47 624.28,-387.46"/>
</g>
<!-- Node24 -->
<g id="node24" class="node">
<title>Node24</title>
<g id="a_node24"><a xlink:href="d__attention_8cpp.html" target="_top" xlink:title=" ">
<polygon fill="white" stroke="black" points="658.78,-330 658.78,-349 765.78,-349 765.78,-330 658.78,-330"/>
<text text-anchor="middle" x="712.28" y="-337" font-family="Helvetica,sans-Serif" font-size="10.00">src/d/d_attention.cpp</text>
</a>
</g>
</g>
<!-- Node23&#45;&gt;Node24 -->
<g id="edge28" class="edge">
<title>Node23&#45;&gt;Node24</title>
<path fill="none" stroke="midnightblue" d="M649.57,-390.21C665.72,-377.41 688.2,-359.59 701.4,-349.13"/>
<polygon fill="midnightblue" stroke="midnightblue" points="647,-387.78 641.34,-396.73 651.35,-393.26 647,-387.78"/>
</g>
<!-- Node25&#45;&gt;Node7 -->
<g id="edge33" class="edge">
<title>Node25&#45;&gt;Node7</title>
<path fill="none" stroke="midnightblue" d="M146.4,-194.04C153.74,-192.63 161.19,-191.24 168.28,-190 265.77,-172.94 379.9,-156.36 446.06,-147.09"/>
<polygon fill="midnightblue" stroke="midnightblue" points="145.67,-190.62 136.53,-195.97 147.01,-197.49 145.67,-190.62"/>
</g>
<!-- Node25&#45;&gt;Node9 -->
<g id="edge32" class="edge">
<title>Node25&#45;&gt;Node9</title>
<path fill="none" stroke="midnightblue" d="M112.54,-189.02C142.43,-162.2 202.91,-107.94 226.52,-86.76"/>
<polygon fill="midnightblue" stroke="midnightblue" points="110.08,-186.52 104.97,-195.81 114.75,-191.73 110.08,-186.52"/>
</g>
<!-- Node26&#45;&gt;Node23 -->
<g id="edge39" class="edge">
<title>Node26&#45;&gt;Node23</title>
<path fill="none" stroke="midnightblue" d="M708.5,-576.49C705.65,-559.65 700.47,-534.62 692.28,-514 676.88,-475.23 648.97,-433.73 636.54,-416.15"/>
<polygon fill="midnightblue" stroke="midnightblue" points="705.09,-577.34 710.11,-586.68 712.01,-576.25 705.09,-577.34"/>
</g>
<!-- Node27 -->
<g id="node27" class="node">
<title>Node27</title>
<g id="a_node27"><a xlink:href="d__stage_8cpp.html" target="_top" xlink:title=" ">
<polygon fill="white" stroke="black" points="867.28,-520 867.28,-539 961.28,-539 961.28,-520 867.28,-520"/>
<text text-anchor="middle" x="914.28" y="-527" font-family="Helvetica,sans-Serif" font-size="10.00">src/d/d_stage.cpp</text>
</a>
</g>
</g>
<!-- Node26&#45;&gt;Node27 -->
<g id="edge35" class="edge">
<title>Node26&#45;&gt;Node27</title>
<path fill="none" stroke="midnightblue" d="M747.93,-583.77C788.15,-570.89 851.75,-550.52 887.54,-539.06"/>
<polygon fill="midnightblue" stroke="midnightblue" points="746.69,-580.49 738.24,-586.87 748.83,-587.15 746.69,-580.49"/>
</g>
<!-- Node28 -->
<g id="node28" class="node">
<title>Node28</title>
<g id="a_node28"><a xlink:href="f__op__actor__mng_8cpp.html" target="_top" xlink:title=" ">
<polygon fill="white" stroke="black" points="979.78,-514.5 979.78,-544.5 1080.78,-544.5 1080.78,-514.5 979.78,-514.5"/>
<text text-anchor="start" x="987.78" y="-532.5" font-family="Helvetica,sans-Serif" font-size="10.00">src/f_op/f_op_actor</text>
<text text-anchor="middle" x="1030.28" y="-521.5" font-family="Helvetica,sans-Serif" font-size="10.00">_mng.cpp</text>
</a>
</g>
</g>
<!-- Node26&#45;&gt;Node28 -->
<g id="edge36" class="edge">
<title>Node26&#45;&gt;Node28</title>
<path fill="none" stroke="midnightblue" d="M768.82,-585.04C821.4,-575.3 901.25,-560.06 970.28,-545 973.32,-544.34 976.44,-543.64 979.58,-542.92"/>
<polygon fill="midnightblue" stroke="midnightblue" points="767.87,-581.66 758.67,-586.92 769.14,-588.54 767.87,-581.66"/>
</g>
<!-- Node29 -->
<g id="node29" class="node">
<title>Node29</title>
<g id="a_node29"><a xlink:href="m__Do__dvd__thread_8cpp.html" target="_top" xlink:title=" ">
<polygon fill="white" stroke="black" points="383.28,-520 383.28,-539 541.28,-539 541.28,-520 383.28,-520"/>
<text text-anchor="middle" x="462.28" y="-527" font-family="Helvetica,sans-Serif" font-size="10.00">src/m_Do/m_Do_dvd_thread.cpp</text>
</a>
</g>
</g>
<!-- Node26&#45;&gt;Node29 -->
<g id="edge37" class="edge">
<title>Node26&#45;&gt;Node29</title>
<path fill="none" stroke="midnightblue" d="M668.77,-584.4C619.63,-571.58 539.8,-550.74 495.16,-539.08"/>
<polygon fill="midnightblue" stroke="midnightblue" points="667.91,-587.8 678.47,-586.94 669.68,-581.02 667.91,-587.8"/>
</g>
<!-- Node30 -->
<g id="node30" class="node">
<title>Node30</title>
<g id="a_node30"><a xlink:href="m__Do__ext_8cpp.html" target="_top" xlink:title=" ">
<polygon fill="white" stroke="black" points="559.78,-520 559.78,-539 682.78,-539 682.78,-520 559.78,-520"/>
<text text-anchor="middle" x="621.28" y="-527" font-family="Helvetica,sans-Serif" font-size="10.00">src/m_Do/m_Do_ext.cpp</text>
</a>
</g>
</g>
<!-- Node26&#45;&gt;Node30 -->
<g id="edge38" class="edge">
<title>Node26&#45;&gt;Node30</title>
<path fill="none" stroke="midnightblue" d="M690.61,-580.57C672.84,-567.74 647.85,-549.69 633.23,-539.13"/>
<polygon fill="midnightblue" stroke="midnightblue" points="688.99,-583.72 699.14,-586.73 693.09,-578.04 688.99,-583.72"/>
</g>
<!-- Node31 -->
<g id="node31" class="node">
<title>Node31</title>
<g id="a_node31"><a xlink:href="d__resorce_8h.html" target="_top" xlink:title=" ">
<polygon fill="white" stroke="black" points="739.78,-520 739.78,-539 848.78,-539 848.78,-520 739.78,-520"/>
<text text-anchor="middle" x="794.28" y="-527" font-family="Helvetica,sans-Serif" font-size="10.00">include/d/d_resorce.h</text>
</a>
</g>
</g>
<!-- Node26&#45;&gt;Node31 -->
<g id="edge40" class="edge">
<title>Node26&#45;&gt;Node31</title>
<path fill="none" stroke="midnightblue" d="M730.35,-580.57C746.73,-567.74 769.78,-549.69 783.26,-539.13"/>
<polygon fill="midnightblue" stroke="midnightblue" points="728.19,-577.81 722.48,-586.73 732.51,-583.32 728.19,-577.81"/>
</g>
<!-- Node31&#45;&gt;Node3 -->
<g id="edge42" class="edge">
<title>Node31&#45;&gt;Node3</title>
<path fill="none" stroke="midnightblue" d="M729.53,-519.21C717.16,-517.46 704.32,-515.66 692.28,-514 595.65,-500.68 483.35,-485.81 415.88,-476.93"/>
<polygon fill="midnightblue" stroke="midnightblue" points="729.38,-522.72 739.77,-520.66 730.36,-515.79 729.38,-522.72"/>
</g>
<!-- Node31&#45;&gt;Node7 -->
<g id="edge43" class="edge">
<title>Node31&#45;&gt;Node7</title>
<path fill="none" stroke="midnightblue" d="M797.54,-509.83C803.15,-471.82 810.89,-384.03 775.28,-324 721.45,-233.25 603.45,-177.64 541.34,-153.54"/>
<polygon fill="midnightblue" stroke="midnightblue" points="794.04,-509.51 795.91,-519.93 800.95,-510.62 794.04,-509.51"/>
</g>
<!-- Node32 -->
<g id="node32" class="node">
<title>Node32</title>
<g id="a_node32"><a xlink:href="d__resorce_8cpp.html" target="_top" xlink:title=" ">
<polygon fill="white" stroke="black" points="822.28,-458.5 822.28,-477.5 924.28,-477.5 924.28,-458.5 822.28,-458.5"/>
<text text-anchor="middle" x="873.28" y="-465.5" font-family="Helvetica,sans-Serif" font-size="10.00">src/d/d_resorce.cpp</text>
</a>
</g>
</g>
<!-- Node31&#45;&gt;Node32 -->
<g id="edge41" class="edge">
<title>Node31&#45;&gt;Node32</title>
<path fill="none" stroke="midnightblue" d="M813.81,-513.79C828.96,-502.38 849.44,-486.96 861.98,-477.51"/>
<polygon fill="midnightblue" stroke="midnightblue" points="811.48,-511.16 805.6,-519.98 815.69,-516.75 811.48,-511.16"/>
</g>
<!-- Node33 -->
<g id="node33" class="node">
<title>Node33</title>
<g id="a_node33"><a xlink:href="d__meter2__info_8h.html" target="_top" xlink:title=" ">
<polygon fill="white" stroke="black" points="888.78,-257.5 888.78,-287.5 1015.78,-287.5 1015.78,-257.5 888.78,-257.5"/>
<text text-anchor="start" x="896.78" y="-275.5" font-family="Helvetica,sans-Serif" font-size="10.00">include/d/meter/d_meter2</text>
<text text-anchor="middle" x="952.28" y="-264.5" font-family="Helvetica,sans-Serif" font-size="10.00">_info.h</text>
</a>
</g>
</g>
<!-- Node31&#45;&gt;Node33 -->
<g id="edge44" class="edge">
<title>Node31&#45;&gt;Node33</title>
<path fill="none" stroke="midnightblue" d="M840.38,-517.43C876.15,-507.85 921.56,-493.19 933.28,-478 977.95,-420.14 963.26,-323.81 955.64,-287.73"/>
<polygon fill="midnightblue" stroke="midnightblue" points="839.37,-514.08 830.59,-519.99 841.15,-520.85 839.37,-514.08"/>
</g>
<!-- Node33&#45;&gt;Node5 -->
<g id="edge49" class="edge">
<title>Node33&#45;&gt;Node5</title>
<path fill="none" stroke="midnightblue" d="M878.57,-262.53C771.32,-249.47 574.4,-225.5 476.59,-213.6"/>
<polygon fill="midnightblue" stroke="midnightblue" points="878.31,-266.02 888.66,-263.76 879.16,-259.07 878.31,-266.02"/>
</g>
<!-- Node33&#45;&gt;Node8 -->
<g id="edge45" class="edge">
<title>Node33&#45;&gt;Node8</title>
<path fill="none" stroke="midnightblue" d="M878.53,-261.17C852.14,-253.97 824.26,-241.75 805.28,-221 757.7,-168.98 816.68,-117.29 767.28,-67 731.88,-30.96 673.91,-19.72 631.3,-16.64"/>
<polygon fill="midnightblue" stroke="midnightblue" points="878,-264.65 888.55,-263.69 879.71,-257.86 878,-264.65"/>
</g>
<!-- Node33&#45;&gt;Node10 -->
<g id="edge48" class="edge">
<title>Node33&#45;&gt;Node10</title>
<path fill="none" stroke="midnightblue" d="M952.02,-247.15C950.65,-229.55 946.23,-206.14 933.28,-190 884.71,-129.42 795.38,-99.57 742.56,-86.58"/>
<polygon fill="midnightblue" stroke="midnightblue" points="948.53,-247.42 952.54,-257.23 955.52,-247.07 948.53,-247.42"/>
</g>
<!-- Node33&#45;&gt;Node12 -->
<g id="edge46" class="edge">
<title>Node33&#45;&gt;Node12</title>
<path fill="none" stroke="midnightblue" d="M956.69,-247.39C958.79,-230.89 959.8,-208.71 954.28,-190 933.3,-118.81 873.02,-49.31 850.71,-25.31"/>
<polygon fill="midnightblue" stroke="midnightblue" points="953.23,-246.91 955.21,-257.32 960.15,-247.94 953.23,-246.91"/>
</g>
<!-- Node34 -->
<g id="node34" class="node">
<title>Node34</title>
<g id="a_node34"><a xlink:href="d__meter2__info_8cpp.html" target="_top" xlink:title=" ">
<polygon fill="white" stroke="black" points="814.28,-190.5 814.28,-220.5 924.28,-220.5 924.28,-190.5 814.28,-190.5"/>
<text text-anchor="start" x="822.28" y="-208.5" font-family="Helvetica,sans-Serif" font-size="10.00">src/d/meter/d_meter2</text>
<text text-anchor="middle" x="869.28" y="-197.5" font-family="Helvetica,sans-Serif" font-size="10.00">_info.cpp</text>
</a>
</g>
</g>
<!-- Node33&#45;&gt;Node34 -->
<g id="edge47" class="edge">
<title>Node33&#45;&gt;Node34</title>
<path fill="none" stroke="midnightblue" d="M926.32,-251.17C913.63,-241.23 898.67,-229.51 887.26,-220.58"/>
<polygon fill="midnightblue" stroke="midnightblue" points="924.24,-253.99 934.27,-257.4 928.56,-248.47 924.24,-253.99"/>
</g>
<!-- Node35 -->
<g id="node35" class="node">
<title>Node35</title>
<g id="a_node35"><a xlink:href="d__menu__window_8h.html" target="_top" xlink:title=" ">
<polygon fill="white" stroke="black" points="1018.28,-190.5 1018.28,-220.5 1138.28,-220.5 1138.28,-190.5 1018.28,-190.5"/>
<text text-anchor="start" x="1026.28" y="-208.5" font-family="Helvetica,sans-Serif" font-size="10.00">include/d/menu/d_menu</text>
<text text-anchor="middle" x="1078.28" y="-197.5" font-family="Helvetica,sans-Serif" font-size="10.00">_window.h</text>
</a>
</g>
</g>
<!-- Node33&#45;&gt;Node35 -->
<g id="edge50" class="edge">
<title>Node33&#45;&gt;Node35</title>
<path fill="none" stroke="midnightblue" d="M982.77,-252.57C1001.71,-242.35 1025.94,-229.94 1045.32,-220.58"/>
<polygon fill="midnightblue" stroke="midnightblue" points="981.04,-249.53 973.94,-257.4 984.4,-255.67 981.04,-249.53"/>
</g>
<!-- Node35&#45;&gt;Node33 -->
<g id="edge52" class="edge">
<title>Node35&#45;&gt;Node33</title>
<path fill="none" stroke="midnightblue" d="M1047.85,-225.39C1028.92,-235.62 1004.69,-248.03 985.3,-257.4"/>
<polygon fill="midnightblue" stroke="midnightblue" points="1049.57,-228.44 1056.67,-220.58 1046.22,-222.3 1049.57,-228.44"/>
</g>
<!-- Node36 -->
<g id="node36" class="node">
<title>Node36</title>
<g id="a_node36"><a xlink:href="d__menu__window_8cpp.html" target="_top" xlink:title=" ">
<polygon fill="white" stroke="black" points="1017.78,-129 1017.78,-148 1176.78,-148 1176.78,-129 1017.78,-129"/>
<text text-anchor="middle" x="1097.28" y="-136" font-family="Helvetica,sans-Serif" font-size="10.00">src/d/menu/d_menu_window.cpp</text>
</a>
</g>
</g>
<!-- Node35&#45;&gt;Node36 -->
<g id="edge51" class="edge">
<title>Node35&#45;&gt;Node36</title>
<path fill="none" stroke="midnightblue" d="M1085.27,-180.6C1088.58,-169.28 1092.32,-156.46 1094.74,-148.19"/>
<polygon fill="midnightblue" stroke="midnightblue" points="1081.85,-179.82 1082.4,-190.4 1088.57,-181.78 1081.85,-179.82"/>
</g>
</g>
</svg>
        <g id="navigator" transform="translate(0 0)" fill="#404254">
                <rect fill="#f2f5e9" fill-opacity="0.5" stroke="#606060" stroke-width=".5" x="0" y="0" width="60" height="60"/>
                <use id="zoomplus" xlink:href="#zoomPlus" x="17" y="9" onmousedown="handleZoom(evt,'in')"/>
                <use id="zoomminus" xlink:href="#zoomMin" x="42" y="9" onmousedown="handleZoom(evt,'out')"/>
                <use id="reset" xlink:href="#resetDef" x="30" y="36" onmousedown="handleReset()"/>
                <g id="arrowUp" xlink:href="#dirArrow" transform="translate(30 24)" onmousedown="handlePan(0,-1)">
                  <use xlink:href="#rim" fill="#404040">
                        <set attributeName="fill" to="#808080" begin="arrowUp.mouseover" end="arrowUp.mouseout"/>
                  </use>
                  <path fill="none" stroke="white" stroke-width="1.5" d="M0,-3.0v7 M-2.5,-0.5L0,-3.0L2.5,-0.5"/>
                </g>
                <g id="arrowRight" xlink:href="#dirArrow" transform="rotate(90) translate(36 -43)" onmousedown="handlePan(1,0)">
                  <use xlink:href="#rim" fill="#404040">
                        <set attributeName="fill" to="#808080" begin="arrowRight.mouseover" end="arrowRight.mouseout"/>
                  </use>
                  <path fill="none" stroke="white" stroke-width="1.5" d="M0,-3.0v7 M-2.5,-0.5L0,-3.0L2.5,-0.5"/>
                </g>
                <g id="arrowDown" xlink:href="#dirArrow" transform="rotate(180) translate(-30 -48)" onmousedown="handlePan(0,1)">
                  <use xlink:href="#rim" fill="#404040">
                        <set attributeName="fill" to="#808080" begin="arrowDown.mouseover" end="arrowDown.mouseout"/>
                  </use>
                  <path fill="none" stroke="white" stroke-width="1.5" d="M0,-3.0v7 M-2.5,-0.5L0,-3.0L2.5,-0.5"/>
                </g>
                <g id="arrowLeft" xlink:href="#dirArrow" transform="rotate(270) translate(-36 17)" onmousedown="handlePan(-1,0)">
                  <use xlink:href="#rim" fill="#404040">
                        <set attributeName="fill" to="#808080" begin="arrowLeft.mouseover" end="arrowLeft.mouseout"/>
                  </use>
                  <path fill="none" stroke="white" stroke-width="1.5" d="M0,-3.0v7 M-2.5,-0.5L0,-3.0L2.5,-0.5"/>
                </g>
        </g>
        <svg viewBox="0 0 15 15" width="100%" height="30px" preserveAspectRatio="xMaxYMin meet">
         <g id="arrow_out" transform="scale(0.3 0.3)">
          <a xlink:href="J3DAnimation_8h__dep__incl_org.svg" target="_base">
           <rect id="button" ry="5" rx="5" y="6" x="6" height="38" width="38"
                fill="#f2f5e9" fill-opacity="0.5" stroke="#606060" stroke-width="1.0"/>
           <path id="arrow"
             d="M 11.500037,31.436501 C 11.940474,20.09759 22.043105,11.32322 32.158766,21.979434 L 37.068811,17.246167 C 37.068811,17.246167 37.088388,32 37.088388,32 L 22.160133,31.978069 C 22.160133,31.978069 26.997745,27.140456 26.997745,27.140456 C 18.528582,18.264221 13.291696,25.230495 11.500037,31.436501 z"
             style="fill:#404040;"/>
          </a>
         </g>
        </svg>
</svg>
