<?xml version="1.0" encoding="UTF-8" standalone="no"?>
<!DOCTYPE svg PUBLIC "-//W3C//DTD SVG 1.1//EN"
 "http://www.w3.org/Graphics/SVG/1.1/DTD/svg11.dtd">
<!-- Generated by graphviz version 2.44.0 ()
 -->
<!-- Title: include/JSystem/J3DGraphBase/J3DDrawBuffer.h Pages: 1 -->
<svg width="1877pt" height="620pt"
 viewBox="0.00 0.00 1877.00 620.00" xmlns="http://www.w3.org/2000/svg" xmlns:xlink="http://www.w3.org/1999/xlink">
<g id="graph0" class="graph" transform="scale(1 1) rotate(0) translate(4 616)">
<title>include/JSystem/J3DGraphBase/J3DDrawBuffer.h</title>
<polygon fill="white" stroke="transparent" points="-4,4 -4,-616 1873,-616 1873,4 -4,4"/>
<!-- Node1 -->
<g id="node1" class="node">
<title>Node1</title>
<g id="a_node1"><a xlink:title=" ">
<polygon fill="#bfbfbf" stroke="black" points="1287,-581.5 1287,-611.5 1422,-611.5 1422,-581.5 1287,-581.5"/>
<text text-anchor="start" x="1295" y="-599.5" font-family="Helvetica,sans-Serif" font-size="10.00">include/JSystem/J3DGraph</text>
<text text-anchor="middle" x="1354.5" y="-588.5" font-family="Helvetica,sans-Serif" font-size="10.00">Base/J3DDrawBuffer.h</text>
</a>
</g>
</g>
<!-- Node2 -->
<g id="node2" class="node">
<title>Node2</title>
<g id="a_node2"><a xlink:href="J3DDrawBuffer_8cpp.html" target="_top" xlink:title=" ">
<polygon fill="white" stroke="black" points="1142.5,-514.5 1142.5,-544.5 1284.5,-544.5 1284.5,-514.5 1142.5,-514.5"/>
<text text-anchor="start" x="1150.5" y="-532.5" font-family="Helvetica,sans-Serif" font-size="10.00">libs/JSystem/J3DGraphBase</text>
<text text-anchor="middle" x="1213.5" y="-521.5" font-family="Helvetica,sans-Serif" font-size="10.00">/J3DDrawBuffer.cpp</text>
</a>
</g>
</g>
<!-- Node1&#45;&gt;Node2 -->
<g id="edge1" class="edge">
<title>Node1&#45;&gt;Node2</title>
<path fill="none" stroke="midnightblue" d="M1314.65,-577.13C1292.25,-566.8 1264.72,-554.11 1244.04,-544.58"/>
<polygon fill="midnightblue" stroke="midnightblue" points="1313.36,-580.39 1323.91,-581.4 1316.29,-574.03 1313.36,-580.39"/>
</g>
<!-- Node3 -->
<g id="node3" class="node">
<title>Node3</title>
<g id="a_node3"><a xlink:href="d__drawlist_8h.html" target="_top" xlink:title=" ">
<polygon fill="white" stroke="black" points="1424.5,-520 1424.5,-539 1534.5,-539 1534.5,-520 1424.5,-520"/>
<text text-anchor="middle" x="1479.5" y="-527" font-family="Helvetica,sans-Serif" font-size="10.00">include/d/d_drawlist.h</text>
</a>
</g>
</g>
<!-- Node1&#45;&gt;Node3 -->
<g id="edge2" class="edge">
<title>Node1&#45;&gt;Node3</title>
<path fill="none" stroke="midnightblue" d="M1390.77,-576.64C1414.69,-564.2 1444.86,-548.51 1463.14,-539.01"/>
<polygon fill="midnightblue" stroke="midnightblue" points="1388.88,-573.68 1381.62,-581.4 1392.11,-579.89 1388.88,-573.68"/>
</g>
<!-- Node38 -->
<g id="node38" class="node">
<title>Node38</title>
<g id="a_node38"><a xlink:href="d__eye__hl_8h.html" target="_top" xlink:title=" ">
<polygon fill="white" stroke="black" points="1302.5,-520 1302.5,-539 1406.5,-539 1406.5,-520 1302.5,-520"/>
<text text-anchor="middle" x="1354.5" y="-527" font-family="Helvetica,sans-Serif" font-size="10.00">include/d/d_eye_hl.h</text>
</a>
</g>
</g>
<!-- Node1&#45;&gt;Node38 -->
<g id="edge50" class="edge">
<title>Node1&#45;&gt;Node38</title>
<path fill="none" stroke="midnightblue" d="M1354.5,-571.25C1354.5,-560.02 1354.5,-547.38 1354.5,-539.19"/>
<polygon fill="midnightblue" stroke="midnightblue" points="1351,-571.4 1354.5,-581.4 1358,-571.4 1351,-571.4"/>
</g>
<!-- Node4 -->
<g id="node4" class="node">
<title>Node4</title>
<g id="a_node4"><a xlink:href="d__drawlist_8cpp.html" target="_top" xlink:title=" ">
<polygon fill="white" stroke="black" points="1507.5,-458.5 1507.5,-477.5 1611.5,-477.5 1611.5,-458.5 1507.5,-458.5"/>
<text text-anchor="middle" x="1559.5" y="-465.5" font-family="Helvetica,sans-Serif" font-size="10.00">src/d/d_drawlist.cpp</text>
</a>
</g>
</g>
<!-- Node3&#45;&gt;Node4 -->
<g id="edge3" class="edge">
<title>Node3&#45;&gt;Node4</title>
<path fill="none" stroke="midnightblue" d="M1499.27,-513.79C1514.62,-502.38 1535.36,-486.96 1548.06,-477.51"/>
<polygon fill="midnightblue" stroke="midnightblue" points="1496.9,-511.2 1490.96,-519.98 1501.07,-516.82 1496.9,-511.2"/>
</g>
<!-- Node5 -->
<g id="node5" class="node">
<title>Node5</title>
<g id="a_node5"><a xlink:href="d__a__alink_8h.html" target="_top" xlink:title=" ">
<polygon fill="white" stroke="black" points="1270.5,-201.5 1270.5,-220.5 1386.5,-220.5 1386.5,-201.5 1270.5,-201.5"/>
<text text-anchor="middle" x="1328.5" y="-208.5" font-family="Helvetica,sans-Serif" font-size="10.00">include/d/a/d_a_alink.h</text>
</a>
</g>
</g>
<!-- Node3&#45;&gt;Node5 -->
<g id="edge4" class="edge">
<title>Node3&#45;&gt;Node5</title>
<path fill="none" stroke="midnightblue" d="M1479.5,-509.94C1479.5,-486.19 1479.5,-443.79 1479.5,-407.5 1479.5,-407.5 1479.5,-407.5 1479.5,-338.5 1479.5,-296 1461.45,-285.02 1429.5,-257 1409.44,-239.41 1381.38,-227.65 1359.93,-220.58"/>
<polygon fill="midnightblue" stroke="midnightblue" points="1476,-509.99 1479.5,-519.99 1483,-509.99 1476,-509.99"/>
</g>
<!-- Node7 -->
<g id="node7" class="node">
<title>Node7</title>
<g id="a_node7"><a xlink:href="d__com__inf__game_8h.html" target="_top" xlink:title=" ">
<polygon fill="white" stroke="black" points="801.5,-134.5 801.5,-164.5 911.5,-164.5 911.5,-134.5 801.5,-134.5"/>
<text text-anchor="start" x="809.5" y="-152.5" font-family="Helvetica,sans-Serif" font-size="10.00">include/d/com/d_com</text>
<text text-anchor="middle" x="856.5" y="-141.5" font-family="Helvetica,sans-Serif" font-size="10.00">_inf_game.h</text>
</a>
</g>
</g>
<!-- Node3&#45;&gt;Node7 -->
<g id="edge48" class="edge">
<title>Node3&#45;&gt;Node7</title>
<path fill="none" stroke="midnightblue" d="M1436.46,-517.78C1429.48,-516.33 1422.32,-514.99 1415.5,-514 1176.6,-479.22 1109.16,-530.42 873.5,-478 789.23,-459.25 692.5,-493.83 692.5,-407.5 692.5,-407.5 692.5,-407.5 692.5,-271.5 692.5,-238.93 690.18,-224.72 712.5,-201 735.56,-176.5 771.18,-163.88 801.22,-157.38"/>
<polygon fill="midnightblue" stroke="midnightblue" points="1435.95,-521.25 1446.47,-519.98 1437.45,-514.42 1435.95,-521.25"/>
</g>
<!-- Node22 -->
<g id="node22" class="node">
<title>Node22</title>
<g id="a_node22"><a xlink:href="d__kantera__icon__meter_8h.html" target="_top" xlink:title=" ">
<polygon fill="white" stroke="black" points="1765,-67.5 1765,-97.5 1866,-97.5 1866,-67.5 1765,-67.5"/>
<text text-anchor="start" x="1773" y="-85.5" font-family="Helvetica,sans-Serif" font-size="10.00">include/d/d_kantera</text>
<text text-anchor="middle" x="1815.5" y="-74.5" font-family="Helvetica,sans-Serif" font-size="10.00">_icon_meter.h</text>
</a>
</g>
</g>
<!-- Node3&#45;&gt;Node22 -->
<g id="edge49" class="edge">
<title>Node3&#45;&gt;Node22</title>
<path fill="none" stroke="midnightblue" d="M1544.65,-524.28C1618.13,-515.58 1727.5,-488.94 1727.5,-407.5 1727.5,-407.5 1727.5,-407.5 1727.5,-210 1727.5,-161.84 1771.01,-118.87 1796.84,-97.59"/>
<polygon fill="midnightblue" stroke="midnightblue" points="1544.1,-520.82 1534.54,-525.4 1544.86,-527.78 1544.1,-520.82"/>
</g>
<!-- Node24 -->
<g id="node24" class="node">
<title>Node24</title>
<g id="a_node24"><a xlink:href="d__a__player_8h.html" target="_top" xlink:title=" ">
<polygon fill="white" stroke="black" points="882,-458.5 882,-477.5 1003,-477.5 1003,-458.5 882,-458.5"/>
<text text-anchor="middle" x="942.5" y="-465.5" font-family="Helvetica,sans-Serif" font-size="10.00">include/d/a/d_a_player.h</text>
</a>
</g>
</g>
<!-- Node3&#45;&gt;Node24 -->
<g id="edge25" class="edge">
<title>Node3&#45;&gt;Node24</title>
<path fill="none" stroke="midnightblue" d="M1435.26,-517.71C1428.66,-516.32 1421.92,-515.03 1415.5,-514 1268.48,-490.45 1093.64,-477.74 1003.29,-472.29"/>
<polygon fill="midnightblue" stroke="midnightblue" points="1434.93,-521.22 1445.45,-519.94 1436.43,-514.38 1434.93,-521.22"/>
</g>
<!-- Node6 -->
<g id="node6" class="node">
<title>Node6</title>
<g id="a_node6"><a xlink:href="d__a__alink_8cpp.html" target="_top" xlink:title=" ">
<polygon fill="white" stroke="black" points="1638,-73 1638,-92 1747,-92 1747,-73 1638,-73"/>
<text text-anchor="middle" x="1692.5" y="-80" font-family="Helvetica,sans-Serif" font-size="10.00">src/d/a/d_a_alink.cpp</text>
</a>
</g>
</g>
<!-- Node5&#45;&gt;Node6 -->
<g id="edge5" class="edge">
<title>Node5&#45;&gt;Node6</title>
<path fill="none" stroke="midnightblue" d="M1362.86,-198.06C1435.73,-172.74 1604.27,-114.16 1667.73,-92.11"/>
<polygon fill="midnightblue" stroke="midnightblue" points="1361.53,-194.82 1353.23,-201.4 1363.83,-201.43 1361.53,-194.82"/>
</g>
<!-- Node5&#45;&gt;Node7 -->
<g id="edge6" class="edge">
<title>Node5&#45;&gt;Node7</title>
<path fill="none" stroke="midnightblue" d="M1260.17,-201.39C1166.07,-189.52 998.45,-168.39 911.79,-157.47"/>
<polygon fill="midnightblue" stroke="midnightblue" points="1259.79,-204.87 1270.15,-202.64 1260.67,-197.92 1259.79,-204.87"/>
</g>
<!-- Node7&#45;&gt;Node6 -->
<g id="edge9" class="edge">
<title>Node7&#45;&gt;Node6</title>
<path fill="none" stroke="midnightblue" d="M921.71,-147.77C1055.25,-145.51 1369.16,-136.21 1629.5,-98 1639.49,-96.53 1650.25,-94.31 1659.99,-92.03"/>
<polygon fill="midnightblue" stroke="midnightblue" points="921.59,-144.28 911.65,-147.94 921.7,-151.27 921.59,-144.28"/>
</g>
<!-- Node8 -->
<g id="node8" class="node">
<title>Node8</title>
<g id="a_node8"><a xlink:href="d__a__player_8cpp.html" target="_top" xlink:title=" ">
<polygon fill="white" stroke="black" points="139.5,-73 139.5,-92 253.5,-92 253.5,-73 139.5,-73"/>
<text text-anchor="middle" x="196.5" y="-80" font-family="Helvetica,sans-Serif" font-size="10.00">src/d/a/d_a_player.cpp</text>
</a>
</g>
</g>
<!-- Node7&#45;&gt;Node8 -->
<g id="edge7" class="edge">
<title>Node7&#45;&gt;Node8</title>
<path fill="none" stroke="midnightblue" d="M791.43,-143.45C648.08,-132.27 313.71,-105.77 262.5,-98 252.29,-96.45 241.3,-94.25 231.28,-92.04"/>
<polygon fill="midnightblue" stroke="midnightblue" points="791.17,-146.95 801.41,-144.23 791.72,-139.97 791.17,-146.95"/>
</g>
<!-- Node9 -->
<g id="node9" class="node">
<title>Node9</title>
<g id="a_node9"><a xlink:href="d__com__inf__game_8cpp.html" target="_top" xlink:title=" ">
<polygon fill="white" stroke="black" points="490.5,-0.5 490.5,-30.5 598.5,-30.5 598.5,-0.5 490.5,-0.5"/>
<text text-anchor="start" x="498.5" y="-18.5" font-family="Helvetica,sans-Serif" font-size="10.00">src/d/com/d_com_inf</text>
<text text-anchor="middle" x="544.5" y="-7.5" font-family="Helvetica,sans-Serif" font-size="10.00">_game.cpp</text>
</a>
</g>
</g>
<!-- Node7&#45;&gt;Node9 -->
<g id="edge8" class="edge">
<title>Node7&#45;&gt;Node9</title>
<path fill="none" stroke="midnightblue" d="M790.97,-145.47C714.82,-140.57 595.51,-128.19 563.5,-98 545,-80.55 542.92,-48.87 543.45,-30.57"/>
<polygon fill="midnightblue" stroke="midnightblue" points="791.22,-148.99 801.41,-146.11 791.65,-142 791.22,-148.99"/>
</g>
<!-- Node10 -->
<g id="node10" class="node">
<title>Node10</title>
<g id="a_node10"><a xlink:href="d__resorce_8cpp.html" target="_top" xlink:title=" ">
<polygon fill="white" stroke="black" points="572.5,-73 572.5,-92 674.5,-92 674.5,-73 572.5,-73"/>
<text text-anchor="middle" x="623.5" y="-80" font-family="Helvetica,sans-Serif" font-size="10.00">src/d/d_resorce.cpp</text>
</a>
</g>
</g>
<!-- Node7&#45;&gt;Node10 -->
<g id="edge10" class="edge">
<title>Node7&#45;&gt;Node10</title>
<path fill="none" stroke="midnightblue" d="M796.46,-131.75C750.89,-119.04 690.12,-102.09 654.07,-92.03"/>
<polygon fill="midnightblue" stroke="midnightblue" points="795.66,-135.16 806.23,-134.48 797.54,-128.42 795.66,-135.16"/>
</g>
<!-- Node11 -->
<g id="node11" class="node">
<title>Node11</title>
<g id="a_node11"><a xlink:href="d__stage_8cpp.html" target="_top" xlink:title=" ">
<polygon fill="white" stroke="black" points="692.5,-73 692.5,-92 786.5,-92 786.5,-73 692.5,-73"/>
<text text-anchor="middle" x="739.5" y="-80" font-family="Helvetica,sans-Serif" font-size="10.00">src/d/d_stage.cpp</text>
</a>
</g>
</g>
<!-- Node7&#45;&gt;Node11 -->
<g id="edge11" class="edge">
<title>Node7&#45;&gt;Node11</title>
<path fill="none" stroke="midnightblue" d="M822.25,-129.47C799.92,-117.06 771.85,-101.47 754.81,-92.01"/>
<polygon fill="midnightblue" stroke="midnightblue" points="820.67,-132.6 831.11,-134.4 824.07,-126.48 820.67,-132.6"/>
</g>
<!-- Node12 -->
<g id="node12" class="node">
<title>Node12</title>
<g id="a_node12"><a xlink:href="d__event_8cpp.html" target="_top" xlink:title=" ">
<polygon fill="white" stroke="black" points="0,-73 0,-92 121,-92 121,-73 0,-73"/>
<text text-anchor="middle" x="60.5" y="-80" font-family="Helvetica,sans-Serif" font-size="10.00">src/d/event/d_event.cpp</text>
</a>
</g>
</g>
<!-- Node7&#45;&gt;Node12 -->
<g id="edge12" class="edge">
<title>Node7&#45;&gt;Node12</title>
<path fill="none" stroke="midnightblue" d="M791.14,-146.9C663.57,-143.14 372.71,-131.35 130.5,-98 119.56,-96.49 107.76,-94.28 97.03,-92.04"/>
<polygon fill="midnightblue" stroke="midnightblue" points="791.04,-150.4 801.14,-147.19 791.24,-143.41 791.04,-150.4"/>
</g>
<!-- Node13 -->
<g id="node13" class="node">
<title>Node13</title>
<g id="a_node13"><a xlink:href="d__event__manager_8cpp.html" target="_top" xlink:title=" ">
<polygon fill="white" stroke="black" points="805,-67.5 805,-97.5 908,-97.5 908,-67.5 805,-67.5"/>
<text text-anchor="start" x="813" y="-85.5" font-family="Helvetica,sans-Serif" font-size="10.00">src/d/event/d_event</text>
<text text-anchor="middle" x="856.5" y="-74.5" font-family="Helvetica,sans-Serif" font-size="10.00">_manager.cpp</text>
</a>
</g>
</g>
<!-- Node7&#45;&gt;Node13 -->
<g id="edge13" class="edge">
<title>Node7&#45;&gt;Node13</title>
<path fill="none" stroke="midnightblue" d="M856.5,-124.11C856.5,-115.15 856.5,-105.32 856.5,-97.58"/>
<polygon fill="midnightblue" stroke="midnightblue" points="853,-124.4 856.5,-134.4 860,-124.4 853,-124.4"/>
</g>
<!-- Node14 -->
<g id="node14" class="node">
<title>Node14</title>
<g id="a_node14"><a xlink:href="d__kankyo_8cpp.html" target="_top" xlink:title=" ">
<polygon fill="white" stroke="black" points="926.5,-73 926.5,-92 1060.5,-92 1060.5,-73 926.5,-73"/>
<text text-anchor="middle" x="993.5" y="-80" font-family="Helvetica,sans-Serif" font-size="10.00">src/d/kankyo/d_kankyo.cpp</text>
</a>
</g>
</g>
<!-- Node7&#45;&gt;Node14 -->
<g id="edge14" class="edge">
<title>Node7&#45;&gt;Node14</title>
<path fill="none" stroke="midnightblue" d="M895.56,-129.97C921.88,-117.48 955.36,-101.6 975.57,-92.01"/>
<polygon fill="midnightblue" stroke="midnightblue" points="893.76,-126.95 886.23,-134.4 896.76,-133.27 893.76,-126.95"/>
</g>
<!-- Node15 -->
<g id="node15" class="node">
<title>Node15</title>
<g id="a_node15"><a xlink:href="d__meter2__info_8cpp.html" target="_top" xlink:title=" ">
<polygon fill="white" stroke="black" points="1078.5,-67.5 1078.5,-97.5 1188.5,-97.5 1188.5,-67.5 1078.5,-67.5"/>
<text text-anchor="start" x="1086.5" y="-85.5" font-family="Helvetica,sans-Serif" font-size="10.00">src/d/meter/d_meter2</text>
<text text-anchor="middle" x="1133.5" y="-74.5" font-family="Helvetica,sans-Serif" font-size="10.00">_info.cpp</text>
</a>
</g>
</g>
<!-- Node7&#45;&gt;Node15 -->
<g id="edge15" class="edge">
<title>Node7&#45;&gt;Node15</title>
<path fill="none" stroke="midnightblue" d="M921.45,-133.26C969.02,-122.1 1032.9,-107.11 1078.07,-96.51"/>
<polygon fill="midnightblue" stroke="midnightblue" points="920.49,-129.89 911.56,-135.58 922.09,-136.7 920.49,-129.89"/>
</g>
<!-- Node16 -->
<g id="node16" class="node">
<title>Node16</title>
<g id="a_node16"><a xlink:href="d__msg__flow_8cpp.html" target="_top" xlink:title=" ">
<polygon fill="white" stroke="black" points="1207,-73 1207,-92 1340,-92 1340,-73 1207,-73"/>
<text text-anchor="middle" x="1273.5" y="-80" font-family="Helvetica,sans-Serif" font-size="10.00">src/d/msg/d_msg_flow.cpp</text>
</a>
</g>
</g>
<!-- Node7&#45;&gt;Node16 -->
<g id="edge16" class="edge">
<title>Node7&#45;&gt;Node16</title>
<path fill="none" stroke="midnightblue" d="M921.78,-139.65C990.51,-130.15 1101.81,-114.21 1197.5,-98 1208.23,-96.18 1219.78,-94.06 1230.55,-92.02"/>
<polygon fill="midnightblue" stroke="midnightblue" points="920.96,-136.23 911.54,-141.07 921.92,-143.17 920.96,-136.23"/>
</g>
<!-- Node17 -->
<g id="node17" class="node">
<title>Node17</title>
<g id="a_node17"><a xlink:href="d__save_8cpp.html" target="_top" xlink:title=" ">
<polygon fill="white" stroke="black" points="1358,-73 1358,-92 1473,-92 1473,-73 1358,-73"/>
<text text-anchor="middle" x="1415.5" y="-80" font-family="Helvetica,sans-Serif" font-size="10.00">src/d/save/d_save.cpp</text>
</a>
</g>
</g>
<!-- Node7&#45;&gt;Node17 -->
<g id="edge17" class="edge">
<title>Node7&#45;&gt;Node17</title>
<path fill="none" stroke="midnightblue" d="M921.85,-144.19C1016.55,-137.41 1197.25,-122.44 1349.5,-98 1359.46,-96.4 1370.18,-94.24 1380.02,-92.07"/>
<polygon fill="midnightblue" stroke="midnightblue" points="921.58,-140.7 911.85,-144.9 922.07,-147.69 921.58,-140.7"/>
</g>
<!-- Node18 -->
<g id="node18" class="node">
<title>Node18</title>
<g id="a_node18"><a xlink:href="m__Do__machine__exception_8cpp.html" target="_top" xlink:title=" ">
<polygon fill="white" stroke="black" points="1491,-67.5 1491,-97.5 1620,-97.5 1620,-67.5 1491,-67.5"/>
<text text-anchor="start" x="1499" y="-85.5" font-family="Helvetica,sans-Serif" font-size="10.00">src/m_Do/m_Do_machine</text>
<text text-anchor="middle" x="1555.5" y="-74.5" font-family="Helvetica,sans-Serif" font-size="10.00">_exception.cpp</text>
</a>
</g>
</g>
<!-- Node7&#45;&gt;Node18 -->
<g id="edge18" class="edge">
<title>Node7&#45;&gt;Node18</title>
<path fill="none" stroke="midnightblue" d="M921.89,-145.72C1036.08,-140.3 1279.07,-126.31 1482.5,-98 1485.19,-97.63 1487.93,-97.22 1490.69,-96.78"/>
<polygon fill="midnightblue" stroke="midnightblue" points="921.41,-142.24 911.58,-146.2 921.73,-149.23 921.41,-142.24"/>
</g>
<!-- Node19 -->
<g id="node19" class="node">
<title>Node19</title>
<g id="a_node19"><a xlink:href="m__Do__main_8cpp.html" target="_top" xlink:title=" ">
<polygon fill="white" stroke="black" points="272,-73 272,-92 403,-92 403,-73 272,-73"/>
<text text-anchor="middle" x="337.5" y="-80" font-family="Helvetica,sans-Serif" font-size="10.00">src/m_Do/m_Do_main.cpp</text>
</a>
</g>
</g>
<!-- Node7&#45;&gt;Node19 -->
<g id="edge19" class="edge">
<title>Node7&#45;&gt;Node19</title>
<path fill="none" stroke="midnightblue" d="M791.17,-142.75C704.23,-134.71 545.84,-118.75 411.5,-98 400.63,-96.32 388.93,-94.18 378.11,-92.07"/>
<polygon fill="midnightblue" stroke="midnightblue" points="790.88,-146.23 801.16,-143.66 791.52,-139.26 790.88,-146.23"/>
</g>
<!-- Node20 -->
<g id="node20" class="node">
<title>Node20</title>
<g id="a_node20"><a xlink:href="d__item_8h.html" target="_top" xlink:title=" ">
<polygon fill="white" stroke="black" points="421,-73 421,-92 516,-92 516,-73 421,-73"/>
<text text-anchor="middle" x="468.5" y="-80" font-family="Helvetica,sans-Serif" font-size="10.00">include/d/d_item.h</text>
</a>
</g>
</g>
<!-- Node7&#45;&gt;Node20 -->
<g id="edge20" class="edge">
<title>Node7&#45;&gt;Node20</title>
<path fill="none" stroke="midnightblue" d="M791.23,-139.88C725.24,-130.81 620.42,-115.45 530.5,-98 521.49,-96.25 511.81,-94.11 502.83,-92.02"/>
<polygon fill="midnightblue" stroke="midnightblue" points="791.1,-143.39 801.48,-141.28 792.05,-136.46 791.1,-143.39"/>
</g>
<!-- Node7&#45;&gt;Node22 -->
<g id="edge23" class="edge">
<title>Node7&#45;&gt;Node22</title>
<path fill="none" stroke="midnightblue" d="M921.98,-148.96C1071.02,-149.09 1446.65,-144.36 1756.5,-98 1759.21,-97.59 1761.98,-97.12 1764.77,-96.6"/>
<polygon fill="midnightblue" stroke="midnightblue" points="921.65,-145.46 911.65,-148.94 921.64,-152.46 921.65,-145.46"/>
</g>
<!-- Node20&#45;&gt;Node9 -->
<g id="edge21" class="edge">
<title>Node20&#45;&gt;Node9</title>
<path fill="none" stroke="midnightblue" d="M486.71,-65.93C499.28,-55.18 515.85,-41 528.03,-30.59"/>
<polygon fill="midnightblue" stroke="midnightblue" points="484.07,-63.57 478.75,-72.73 488.62,-68.89 484.07,-63.57"/>
</g>
<!-- Node21 -->
<g id="node21" class="node">
<title>Node21</title>
<g id="a_node21"><a xlink:href="d__item_8cpp.html" target="_top" xlink:title=" ">
<polygon fill="white" stroke="black" points="383,-6 383,-25 472,-25 472,-6 383,-6"/>
<text text-anchor="middle" x="427.5" y="-13" font-family="Helvetica,sans-Serif" font-size="10.00">src/d/d_item.cpp</text>
</a>
</g>
</g>
<!-- Node20&#45;&gt;Node21 -->
<g id="edge22" class="edge">
<title>Node20&#45;&gt;Node21</title>
<path fill="none" stroke="midnightblue" d="M457.48,-64.03C449.55,-51.45 439.17,-35.01 432.94,-25.13"/>
<polygon fill="midnightblue" stroke="midnightblue" points="454.68,-66.14 462.97,-72.73 460.6,-62.41 454.68,-66.14"/>
</g>
<!-- Node23 -->
<g id="node23" class="node">
<title>Node23</title>
<g id="a_node23"><a xlink:href="d__kantera__icon__meter_8cpp.html" target="_top" xlink:title=" ">
<polygon fill="white" stroke="black" points="1762,-0.5 1762,-30.5 1869,-30.5 1869,-0.5 1762,-0.5"/>
<text text-anchor="start" x="1770" y="-18.5" font-family="Helvetica,sans-Serif" font-size="10.00">src/d/d_kantera_icon</text>
<text text-anchor="middle" x="1815.5" y="-7.5" font-family="Helvetica,sans-Serif" font-size="10.00">_meter.cpp</text>
</a>
</g>
</g>
<!-- Node22&#45;&gt;Node23 -->
<g id="edge24" class="edge">
<title>Node22&#45;&gt;Node23</title>
<path fill="none" stroke="midnightblue" d="M1815.5,-57.11C1815.5,-48.15 1815.5,-38.32 1815.5,-30.58"/>
<polygon fill="midnightblue" stroke="midnightblue" points="1812,-57.4 1815.5,-67.4 1819,-57.4 1812,-57.4"/>
</g>
<!-- Node24&#45;&gt;Node5 -->
<g id="edge27" class="edge">
<title>Node24&#45;&gt;Node5</title>
<path fill="none" stroke="midnightblue" d="M1013.57,-458.8C1124.99,-444.38 1332.93,-410.61 1379.5,-355 1407.5,-321.56 1403.35,-296.33 1384.5,-257 1376.58,-240.47 1359.29,-228.08 1346,-220.54"/>
<polygon fill="midnightblue" stroke="midnightblue" points="1012.9,-455.36 1003.42,-460.1 1013.79,-462.3 1012.9,-455.36"/>
</g>
<!-- Node24&#45;&gt;Node8 -->
<g id="edge26" class="edge">
<title>Node24&#45;&gt;Node8</title>
<path fill="none" stroke="midnightblue" d="M871.62,-465.55C786.34,-459.59 654.5,-435.09 654.5,-340.5 654.5,-340.5 654.5,-340.5 654.5,-210 654.5,-188.29 344.84,-116.76 234.76,-92.01"/>
<polygon fill="midnightblue" stroke="midnightblue" points="871.57,-469.05 881.77,-466.18 872.01,-462.06 871.57,-469.05"/>
</g>
<!-- Node25 -->
<g id="node25" class="node">
<title>Node25</title>
<g id="a_node25"><a xlink:href="d__bg__s__acch_8h.html" target="_top" xlink:title=" ">
<polygon fill="white" stroke="black" points="1002.5,-391.5 1002.5,-421.5 1106.5,-421.5 1106.5,-391.5 1002.5,-391.5"/>
<text text-anchor="start" x="1010.5" y="-409.5" font-family="Helvetica,sans-Serif" font-size="10.00">include/d/bg/d_bg_s</text>
<text text-anchor="middle" x="1054.5" y="-398.5" font-family="Helvetica,sans-Serif" font-size="10.00">_acch.h</text>
</a>
</g>
</g>
<!-- Node24&#45;&gt;Node25 -->
<g id="edge28" class="edge">
<title>Node24&#45;&gt;Node25</title>
<path fill="none" stroke="midnightblue" d="M967.83,-453.54C985.81,-443.99 1009.89,-431.2 1028.1,-421.52"/>
<polygon fill="midnightblue" stroke="midnightblue" points="965.74,-450.69 958.55,-458.48 969.02,-456.87 965.74,-450.69"/>
</g>
<!-- Node35 -->
<g id="node35" class="node">
<title>Node35</title>
<g id="a_node35"><a xlink:href="d__attention_8h.html" target="_top" xlink:title=" ">
<polygon fill="white" stroke="black" points="720.5,-263 720.5,-282 834.5,-282 834.5,-263 720.5,-263"/>
<text text-anchor="middle" x="777.5" y="-270" font-family="Helvetica,sans-Serif" font-size="10.00">include/d/d_attention.h</text>
</a>
</g>
</g>
<!-- Node24&#45;&gt;Node35 -->
<g id="edge41" class="edge">
<title>Node24&#45;&gt;Node35</title>
<path fill="none" stroke="midnightblue" d="M928.5,-450.58C894.95,-411.23 810.82,-312.58 785.09,-282.41"/>
<polygon fill="midnightblue" stroke="midnightblue" points="926.05,-453.1 935.2,-458.44 931.37,-448.56 926.05,-453.1"/>
</g>
<!-- Node37 -->
<g id="node37" class="node">
<title>Node37</title>
<g id="a_node37"><a xlink:href="d__event_8h.html" target="_top" xlink:title=" ">
<polygon fill="white" stroke="black" points="498.5,-201.5 498.5,-220.5 626.5,-220.5 626.5,-201.5 498.5,-201.5"/>
<text text-anchor="middle" x="562.5" y="-208.5" font-family="Helvetica,sans-Serif" font-size="10.00">include/d/event/d_event.h</text>
</a>
</g>
</g>
<!-- Node24&#45;&gt;Node37 -->
<g id="edge45" class="edge">
<title>Node24&#45;&gt;Node37</title>
<path fill="none" stroke="midnightblue" d="M871.51,-464.61C793.6,-460.6 674.97,-449.97 640.5,-422 574.35,-368.34 564.3,-252.81 562.77,-220.53"/>
<polygon fill="midnightblue" stroke="midnightblue" points="871.59,-468.12 881.75,-465.11 871.93,-461.13 871.59,-468.12"/>
</g>
<!-- Node26 -->
<g id="node26" class="node">
<title>Node26</title>
<g id="a_node26"><a xlink:href="d__bg__s__acch_8cpp.html" target="_top" xlink:title=" ">
<polygon fill="white" stroke="black" points="989,-330 989,-349 1120,-349 1120,-330 989,-330"/>
<text text-anchor="middle" x="1054.5" y="-337" font-family="Helvetica,sans-Serif" font-size="10.00">src/d/bg/d_bg_s_acch.cpp</text>
</a>
</g>
</g>
<!-- Node25&#45;&gt;Node26 -->
<g id="edge29" class="edge">
<title>Node25&#45;&gt;Node26</title>
<path fill="none" stroke="midnightblue" d="M1054.5,-381.25C1054.5,-370.02 1054.5,-357.38 1054.5,-349.19"/>
<polygon fill="midnightblue" stroke="midnightblue" points="1051,-381.4 1054.5,-391.4 1058,-381.4 1051,-381.4"/>
</g>
<!-- Node27 -->
<g id="node27" class="node">
<title>Node27</title>
<g id="a_node27"><a xlink:href="d__bg__w_8h.html" target="_top" xlink:title=" ">
<polygon fill="white" stroke="black" points="858,-330 858,-349 971,-349 971,-330 858,-330"/>
<text text-anchor="middle" x="914.5" y="-337" font-family="Helvetica,sans-Serif" font-size="10.00">include/d/bg/d_bg_w.h</text>
</a>
</g>
</g>
<!-- Node25&#45;&gt;Node27 -->
<g id="edge30" class="edge">
<title>Node25&#45;&gt;Node27</title>
<path fill="none" stroke="midnightblue" d="M1014.94,-387.13C987.99,-374.62 953.57,-358.64 932.82,-349.01"/>
<polygon fill="midnightblue" stroke="midnightblue" points="1013.58,-390.36 1024.12,-391.4 1016.53,-384.01 1013.58,-390.36"/>
</g>
<!-- Node31 -->
<g id="node31" class="node">
<title>Node31</title>
<g id="a_node31"><a xlink:href="d__bomb_8h.html" target="_top" xlink:title=" ">
<polygon fill="white" stroke="black" points="1269,-330 1269,-349 1370,-349 1370,-330 1269,-330"/>
<text text-anchor="middle" x="1319.5" y="-337" font-family="Helvetica,sans-Serif" font-size="10.00">include/d/d_bomb.h</text>
</a>
</g>
</g>
<!-- Node25&#45;&gt;Node31 -->
<g id="edge36" class="edge">
<title>Node25&#45;&gt;Node31</title>
<path fill="none" stroke="midnightblue" d="M1116.38,-390.32C1168.69,-377.49 1241.74,-359.57 1284.49,-349.09"/>
<polygon fill="midnightblue" stroke="midnightblue" points="1115.42,-386.95 1106.54,-392.74 1117.09,-393.75 1115.42,-386.95"/>
</g>
<!-- Node33 -->
<g id="node33" class="node">
<title>Node33</title>
<g id="a_node33"><a xlink:href="d__particle__copoly_8h.html" target="_top" xlink:title=" ">
<polygon fill="white" stroke="black" points="1138.5,-324.5 1138.5,-354.5 1240.5,-354.5 1240.5,-324.5 1138.5,-324.5"/>
<text text-anchor="start" x="1146.5" y="-342.5" font-family="Helvetica,sans-Serif" font-size="10.00">include/d/particle</text>
<text text-anchor="middle" x="1189.5" y="-331.5" font-family="Helvetica,sans-Serif" font-size="10.00">/d_particle_copoly.h</text>
</a>
</g>
</g>
<!-- Node25&#45;&gt;Node33 -->
<g id="edge38" class="edge">
<title>Node25&#45;&gt;Node33</title>
<path fill="none" stroke="midnightblue" d="M1092.94,-386.99C1114.34,-376.69 1140.55,-364.07 1160.26,-354.58"/>
<polygon fill="midnightblue" stroke="midnightblue" points="1091.28,-383.9 1083.79,-391.4 1094.32,-390.21 1091.28,-383.9"/>
</g>
<!-- Node28 -->
<g id="node28" class="node">
<title>Node28</title>
<g id="a_node28"><a xlink:href="d__bg__w_8cpp.html" target="_top" xlink:title=" ">
<polygon fill="white" stroke="black" points="982,-263 982,-282 1089,-282 1089,-263 982,-263"/>
<text text-anchor="middle" x="1035.5" y="-270" font-family="Helvetica,sans-Serif" font-size="10.00">src/d/bg/d_bg_w.cpp</text>
</a>
</g>
</g>
<!-- Node27&#45;&gt;Node28 -->
<g id="edge31" class="edge">
<title>Node27&#45;&gt;Node28</title>
<path fill="none" stroke="midnightblue" d="M939.71,-324.96C963.7,-312.07 999.06,-293.07 1019.44,-282.13"/>
<polygon fill="midnightblue" stroke="midnightblue" points="937.97,-321.92 930.82,-329.73 941.28,-328.08 937.97,-321.92"/>
</g>
<!-- Node29 -->
<g id="node29" class="node">
<title>Node29</title>
<g id="a_node29"><a xlink:href="d__bg__s_8h.html" target="_top" xlink:title=" ">
<polygon fill="white" stroke="black" points="853,-263 853,-282 964,-282 964,-263 853,-263"/>
<text text-anchor="middle" x="908.5" y="-270" font-family="Helvetica,sans-Serif" font-size="10.00">include/d/bg/d_bg_s.h</text>
</a>
</g>
</g>
<!-- Node27&#45;&gt;Node29 -->
<g id="edge32" class="edge">
<title>Node27&#45;&gt;Node29</title>
<path fill="none" stroke="midnightblue" d="M912.75,-319.54C911.61,-307.17 910.17,-291.62 909.3,-282.13"/>
<polygon fill="midnightblue" stroke="midnightblue" points="909.29,-320.1 913.69,-329.73 916.26,-319.45 909.29,-320.1"/>
</g>
<!-- Node29&#45;&gt;Node5 -->
<g id="edge34" class="edge">
<title>Node29&#45;&gt;Node5</title>
<path fill="none" stroke="midnightblue" d="M953.93,-260.8C960.48,-259.42 967.15,-258.11 973.5,-257 1077.54,-238.84 1199.95,-224.96 1270.45,-217.68"/>
<polygon fill="midnightblue" stroke="midnightblue" points="952.83,-257.46 943.8,-263 954.32,-264.3 952.83,-257.46"/>
</g>
<!-- Node29&#45;&gt;Node7 -->
<g id="edge35" class="edge">
<title>Node29&#45;&gt;Node7</title>
<path fill="none" stroke="midnightblue" d="M900.7,-253.34C890.26,-229.06 871.98,-186.52 862.53,-164.54"/>
<polygon fill="midnightblue" stroke="midnightblue" points="897.6,-254.99 904.76,-262.8 904.03,-252.23 897.6,-254.99"/>
</g>
<!-- Node30 -->
<g id="node30" class="node">
<title>Node30</title>
<g id="a_node30"><a xlink:href="d__bg__s_8cpp.html" target="_top" xlink:title=" ">
<polygon fill="white" stroke="black" points="922.5,-201.5 922.5,-220.5 1026.5,-220.5 1026.5,-201.5 922.5,-201.5"/>
<text text-anchor="middle" x="974.5" y="-208.5" font-family="Helvetica,sans-Serif" font-size="10.00">src/d/bg/d_bg_s.cpp</text>
</a>
</g>
</g>
<!-- Node29&#45;&gt;Node30 -->
<g id="edge33" class="edge">
<title>Node29&#45;&gt;Node30</title>
<path fill="none" stroke="midnightblue" d="M925.53,-256.15C938.11,-244.81 954.78,-229.78 965.06,-220.51"/>
<polygon fill="midnightblue" stroke="midnightblue" points="923.04,-253.68 917.96,-262.98 927.73,-258.88 923.04,-253.68"/>
</g>
<!-- Node32 -->
<g id="node32" class="node">
<title>Node32</title>
<g id="a_node32"><a xlink:href="d__bomb_8cpp.html" target="_top" xlink:title=" ">
<polygon fill="white" stroke="black" points="1281.5,-263 1281.5,-282 1375.5,-282 1375.5,-263 1281.5,-263"/>
<text text-anchor="middle" x="1328.5" y="-270" font-family="Helvetica,sans-Serif" font-size="10.00">src/d/d_bomb.cpp</text>
</a>
</g>
</g>
<!-- Node31&#45;&gt;Node32 -->
<g id="edge37" class="edge">
<title>Node31&#45;&gt;Node32</title>
<path fill="none" stroke="midnightblue" d="M1322.13,-319.54C1323.84,-307.17 1325.99,-291.62 1327.31,-282.13"/>
<polygon fill="midnightblue" stroke="midnightblue" points="1318.62,-319.35 1320.71,-329.73 1325.55,-320.31 1318.62,-319.35"/>
</g>
<!-- Node33&#45;&gt;Node5 -->
<g id="edge40" class="edge">
<title>Node33&#45;&gt;Node5</title>
<path fill="none" stroke="midnightblue" d="M1210.2,-317.03C1226.67,-300.24 1250.51,-276.55 1272.5,-257 1287.42,-243.74 1305.56,-229.48 1317.07,-220.65"/>
<polygon fill="midnightblue" stroke="midnightblue" points="1207.67,-314.62 1203.19,-324.22 1212.68,-319.51 1207.67,-314.62"/>
</g>
<!-- Node34 -->
<g id="node34" class="node">
<title>Node34</title>
<g id="a_node34"><a xlink:href="d__particle__copoly_8cpp.html" target="_top" xlink:title=" ">
<polygon fill="white" stroke="black" points="1107.5,-257.5 1107.5,-287.5 1225.5,-287.5 1225.5,-257.5 1107.5,-257.5"/>
<text text-anchor="start" x="1115.5" y="-275.5" font-family="Helvetica,sans-Serif" font-size="10.00">src/d/particle/d_particle</text>
<text text-anchor="middle" x="1166.5" y="-264.5" font-family="Helvetica,sans-Serif" font-size="10.00">_copoly.cpp</text>
</a>
</g>
</g>
<!-- Node33&#45;&gt;Node34 -->
<g id="edge39" class="edge">
<title>Node33&#45;&gt;Node34</title>
<path fill="none" stroke="midnightblue" d="M1181.08,-314.7C1177.85,-305.59 1174.28,-295.49 1171.48,-287.58"/>
<polygon fill="midnightblue" stroke="midnightblue" points="1177.87,-316.14 1184.51,-324.4 1184.47,-313.8 1177.87,-316.14"/>
</g>
<!-- Node35&#45;&gt;Node5 -->
<g id="edge43" class="edge">
<title>Node35&#45;&gt;Node5</title>
<path fill="none" stroke="midnightblue" d="M823.33,-260.82C830.4,-259.39 837.62,-258.06 844.5,-257 997.34,-233.44 1179.37,-220.55 1270.48,-215.13"/>
<polygon fill="midnightblue" stroke="midnightblue" points="822.23,-257.47 813.17,-262.95 823.67,-264.32 822.23,-257.47"/>
</g>
<!-- Node35&#45;&gt;Node7 -->
<g id="edge44" class="edge">
<title>Node35&#45;&gt;Node7</title>
<path fill="none" stroke="midnightblue" d="M800.37,-257.35C813.05,-248.4 828.11,-235.74 837.5,-221 848.6,-203.57 853.27,-179.76 855.19,-164.75"/>
<polygon fill="midnightblue" stroke="midnightblue" points="798.41,-254.45 792.06,-262.94 802.31,-260.26 798.41,-254.45"/>
</g>
<!-- Node36 -->
<g id="node36" class="node">
<title>Node36</title>
<g id="a_node36"><a xlink:href="d__attention_8cpp.html" target="_top" xlink:title=" ">
<polygon fill="white" stroke="black" points="721,-201.5 721,-220.5 828,-220.5 828,-201.5 721,-201.5"/>
<text text-anchor="middle" x="774.5" y="-208.5" font-family="Helvetica,sans-Serif" font-size="10.00">src/d/d_attention.cpp</text>
</a>
</g>
</g>
<!-- Node35&#45;&gt;Node36 -->
<g id="edge42" class="edge">
<title>Node35&#45;&gt;Node36</title>
<path fill="none" stroke="midnightblue" d="M776.56,-252.82C776.01,-242 775.35,-228.9 774.93,-220.51"/>
<polygon fill="midnightblue" stroke="midnightblue" points="773.07,-253.16 777.07,-262.98 780.06,-252.81 773.07,-253.16"/>
</g>
<!-- Node37&#45;&gt;Node7 -->
<g id="edge47" class="edge">
<title>Node37&#45;&gt;Node7</title>
<path fill="none" stroke="midnightblue" d="M614.74,-199.43C667.26,-188.8 747.91,-172.48 801.42,-161.65"/>
<polygon fill="midnightblue" stroke="midnightblue" points="613.73,-196.06 604.62,-201.48 615.12,-202.92 613.73,-196.06"/>
</g>
<!-- Node37&#45;&gt;Node12 -->
<g id="edge46" class="edge">
<title>Node37&#45;&gt;Node12</title>
<path fill="none" stroke="midnightblue" d="M518.44,-198.9C419.73,-174.02 182.57,-114.26 94.33,-92.02"/>
<polygon fill="midnightblue" stroke="midnightblue" points="517.84,-202.35 528.39,-201.4 519.55,-195.57 517.84,-202.35"/>
</g>
<!-- Node38&#45;&gt;Node5 -->
<g id="edge52" class="edge">
<title>Node38&#45;&gt;Node5</title>
<path fill="none" stroke="midnightblue" d="M1375.03,-513.49C1400.75,-492.79 1441.5,-452.83 1441.5,-407.5 1441.5,-407.5 1441.5,-407.5 1441.5,-338.5 1441.5,-298.53 1430.25,-286.69 1403.5,-257 1388.56,-240.42 1366.05,-228.04 1349.59,-220.51"/>
<polygon fill="midnightblue" stroke="midnightblue" points="1372.72,-510.86 1366.96,-519.76 1377.01,-516.39 1372.72,-510.86"/>
</g>
<!-- Node39 -->
<g id="node39" class="node">
<title>Node39</title>
<g id="a_node39"><a xlink:href="d__eye__hl_8cpp.html" target="_top" xlink:title=" ">
<polygon fill="white" stroke="black" points="566.5,-458.5 566.5,-477.5 664.5,-477.5 664.5,-458.5 566.5,-458.5"/>
<text text-anchor="middle" x="615.5" y="-465.5" font-family="Helvetica,sans-Serif" font-size="10.00">src/d/d_eye_hl.cpp</text>
</a>
</g>
</g>
<!-- Node38&#45;&gt;Node39 -->
<g id="edge51" class="edge">
<title>Node38&#45;&gt;Node39</title>
<path fill="none" stroke="midnightblue" d="M1313.25,-517.67C1306.68,-516.24 1299.93,-514.95 1293.5,-514 1022.61,-474.19 950.93,-505.38 678.5,-478 673.99,-477.55 669.31,-477.01 664.63,-476.42"/>
<polygon fill="midnightblue" stroke="midnightblue" points="1312.83,-521.16 1323.36,-519.99 1314.4,-514.34 1312.83,-521.16"/>
</g>
</g>
</svg>
