<?xml version="1.0" encoding="UTF-8" standalone="no"?>
<!DOCTYPE svg PUBLIC "-//W3C//DTD SVG 1.1//EN"
 "http://www.w3.org/Graphics/SVG/1.1/DTD/svg11.dtd">
<!-- Generated by graphviz version 2.44.0 ()
 -->
<!-- Title: include/JSystem/J3DGraphBase/J3DDrawBuffer.h Pages: 1 -->
<svg width="866pt" height="363pt"
 viewBox="0.00 0.00 865.50 363.00" xmlns="http://www.w3.org/2000/svg" xmlns:xlink="http://www.w3.org/1999/xlink">
<g id="graph0" class="graph" transform="scale(1 1) rotate(0) translate(4 359)">
<title>include/JSystem/J3DGraphBase/J3DDrawBuffer.h</title>
<polygon fill="white" stroke="transparent" points="-4,4 -4,-359 861.5,-359 861.5,4 -4,4"/>
<!-- Node1 -->
<g id="node1" class="node">
<title>Node1</title>
<g id="a_node1"><a xlink:title=" ">
<polygon fill="#bfbfbf" stroke="black" points="73.5,-324.5 73.5,-354.5 208.5,-354.5 208.5,-324.5 73.5,-324.5"/>
<text text-anchor="start" x="81.5" y="-342.5" font-family="Helvetica,sans-Serif" font-size="10.00">include/JSystem/J3DGraph</text>
<text text-anchor="middle" x="141" y="-331.5" font-family="Helvetica,sans-Serif" font-size="10.00">Base/J3DDrawBuffer.h</text>
</a>
</g>
</g>
<!-- Node2 -->
<g id="node2" class="node">
<title>Node2</title>
<g id="a_node2"><a xlink:href="J3DDrawBuffer_8cpp.html" target="_top" xlink:title=" ">
<polygon fill="white" stroke="black" points="0,-257.5 0,-287.5 142,-287.5 142,-257.5 0,-257.5"/>
<text text-anchor="start" x="8" y="-275.5" font-family="Helvetica,sans-Serif" font-size="10.00">libs/JSystem/J3DGraphBase</text>
<text text-anchor="middle" x="71" y="-264.5" font-family="Helvetica,sans-Serif" font-size="10.00">/J3DDrawBuffer.cpp</text>
</a>
</g>
</g>
<!-- Node1&#45;&gt;Node2 -->
<g id="edge1" class="edge">
<title>Node1&#45;&gt;Node2</title>
<path fill="none" stroke="midnightblue" d="M118.18,-317.31C107.68,-307.56 95.51,-296.26 86.16,-287.58"/>
<polygon fill="midnightblue" stroke="midnightblue" points="116.1,-320.16 125.81,-324.4 120.86,-315.03 116.1,-320.16"/>
</g>
<!-- Node3 -->
<g id="node3" class="node">
<title>Node3</title>
<g id="a_node3"><a xlink:href="d__eye__hl_8h.html" target="_top" xlink:title=" ">
<polygon fill="white" stroke="black" points="160,-263 160,-282 264,-282 264,-263 160,-263"/>
<text text-anchor="middle" x="212" y="-270" font-family="Helvetica,sans-Serif" font-size="10.00">include/d/d_eye_hl.h</text>
</a>
</g>
</g>
<!-- Node1&#45;&gt;Node3 -->
<g id="edge2" class="edge">
<title>Node1&#45;&gt;Node3</title>
<path fill="none" stroke="midnightblue" d="M164.12,-317.34C177.15,-305.4 192.74,-291.14 202.5,-282.19"/>
<polygon fill="midnightblue" stroke="midnightblue" points="161.42,-315.06 156.41,-324.4 166.15,-320.22 161.42,-315.06"/>
</g>
<!-- Node4 -->
<g id="node4" class="node">
<title>Node4</title>
<g id="a_node4"><a xlink:href="d__eye__hl_8cpp.html" target="_top" xlink:title=" ">
<polygon fill="white" stroke="black" points="100,-201.5 100,-220.5 198,-220.5 198,-201.5 100,-201.5"/>
<text text-anchor="middle" x="149" y="-208.5" font-family="Helvetica,sans-Serif" font-size="10.00">src/d/d_eye_hl.cpp</text>
</a>
</g>
</g>
<!-- Node3&#45;&gt;Node4 -->
<g id="edge3" class="edge">
<title>Node3&#45;&gt;Node4</title>
<path fill="none" stroke="midnightblue" d="M195.4,-255.82C183.43,-244.52 167.73,-229.69 158.01,-220.51"/>
<polygon fill="midnightblue" stroke="midnightblue" points="193.3,-258.65 202.97,-262.98 198.11,-253.56 193.3,-258.65"/>
</g>
<!-- Node5 -->
<g id="node5" class="node">
<title>Node5</title>
<g id="a_node5"><a xlink:href="d__a__alink_8h.html" target="_top" xlink:title=" ">
<polygon fill="white" stroke="black" points="216,-201.5 216,-220.5 332,-220.5 332,-201.5 216,-201.5"/>
<text text-anchor="middle" x="274" y="-208.5" font-family="Helvetica,sans-Serif" font-size="10.00">include/d/a/d_a_alink.h</text>
</a>
</g>
</g>
<!-- Node3&#45;&gt;Node5 -->
<g id="edge4" class="edge">
<title>Node3&#45;&gt;Node5</title>
<path fill="none" stroke="midnightblue" d="M228.33,-255.82C240.11,-244.52 255.56,-229.69 265.13,-220.51"/>
<polygon fill="midnightblue" stroke="midnightblue" points="225.67,-253.53 220.88,-262.98 230.52,-258.58 225.67,-253.53"/>
</g>
<!-- Node6 -->
<g id="node6" class="node">
<title>Node6</title>
<g id="a_node6"><a xlink:href="d__a__alink_8cpp.html" target="_top" xlink:title=" ">
<polygon fill="white" stroke="black" points="44.5,-73 44.5,-92 153.5,-92 153.5,-73 44.5,-73"/>
<text text-anchor="middle" x="99" y="-80" font-family="Helvetica,sans-Serif" font-size="10.00">src/d/a/d_a_alink.cpp</text>
</a>
</g>
</g>
<!-- Node5&#45;&gt;Node6 -->
<g id="edge5" class="edge">
<title>Node5&#45;&gt;Node6</title>
<path fill="none" stroke="midnightblue" d="M253.53,-195.2C216.77,-168.63 140.67,-113.62 111.11,-92.26"/>
<polygon fill="midnightblue" stroke="midnightblue" points="251.82,-198.28 261.97,-201.31 255.92,-192.61 251.82,-198.28"/>
</g>
<!-- Node7 -->
<g id="node7" class="node">
<title>Node7</title>
<g id="a_node7"><a xlink:href="d__com__inf__game_8h.html" target="_top" xlink:title=" ">
<polygon fill="white" stroke="black" points="283,-134.5 283,-164.5 393,-164.5 393,-134.5 283,-134.5"/>
<text text-anchor="start" x="291" y="-152.5" font-family="Helvetica,sans-Serif" font-size="10.00">include/d/com/d_com</text>
<text text-anchor="middle" x="338" y="-141.5" font-family="Helvetica,sans-Serif" font-size="10.00">_inf_game.h</text>
</a>
</g>
</g>
<!-- Node5&#45;&gt;Node7 -->
<g id="edge6" class="edge">
<title>Node5&#45;&gt;Node7</title>
<path fill="none" stroke="midnightblue" d="M290.52,-194.65C300.52,-185.35 313.18,-173.57 322.92,-164.52"/>
<polygon fill="midnightblue" stroke="midnightblue" points="288.11,-192.1 283.17,-201.48 292.88,-197.23 288.11,-192.1"/>
</g>
<!-- Node7&#45;&gt;Node6 -->
<g id="edge8" class="edge">
<title>Node7&#45;&gt;Node6</title>
<path fill="none" stroke="midnightblue" d="M276.71,-131.83C229.93,-119.11 167.41,-102.11 130.36,-92.03"/>
<polygon fill="midnightblue" stroke="midnightblue" points="275.87,-135.23 286.43,-134.48 277.7,-128.47 275.87,-135.23"/>
</g>
<!-- Node8 -->
<g id="node8" class="node">
<title>Node8</title>
<g id="a_node8"><a xlink:href="d__com__inf__game_8cpp.html" target="_top" xlink:title=" ">
<polygon fill="white" stroke="black" points="384,-0.5 384,-30.5 492,-30.5 492,-0.5 384,-0.5"/>
<text text-anchor="start" x="392" y="-18.5" font-family="Helvetica,sans-Serif" font-size="10.00">src/d/com/d_com_inf</text>
<text text-anchor="middle" x="438" y="-7.5" font-family="Helvetica,sans-Serif" font-size="10.00">_game.cpp</text>
</a>
</g>
</g>
<!-- Node7&#45;&gt;Node8 -->
<g id="edge7" class="edge">
<title>Node7&#45;&gt;Node8</title>
<path fill="none" stroke="midnightblue" d="M272.96,-134.59C225.98,-121.52 174.99,-99.13 201,-67 223.56,-39.12 321.2,-25.98 383.9,-20.31"/>
<polygon fill="midnightblue" stroke="midnightblue" points="272.34,-138.04 282.9,-137.23 274.14,-131.28 272.34,-138.04"/>
</g>
<!-- Node9 -->
<g id="node9" class="node">
<title>Node9</title>
<g id="a_node9"><a xlink:href="d__event_8cpp.html" target="_top" xlink:title=" ">
<polygon fill="white" stroke="black" points="210.5,-73 210.5,-92 331.5,-92 331.5,-73 210.5,-73"/>
<text text-anchor="middle" x="271" y="-80" font-family="Helvetica,sans-Serif" font-size="10.00">src/d/event/d_event.cpp</text>
</a>
</g>
</g>
<!-- Node7&#45;&gt;Node9 -->
<g id="edge9" class="edge">
<title>Node7&#45;&gt;Node9</title>
<path fill="none" stroke="midnightblue" d="M316.18,-127.34C303.88,-115.4 289.18,-101.14 279.96,-92.19"/>
<polygon fill="midnightblue" stroke="midnightblue" points="313.85,-129.94 323.46,-134.4 318.72,-124.92 313.85,-129.94"/>
</g>
<!-- Node10 -->
<g id="node10" class="node">
<title>Node10</title>
<g id="a_node10"><a xlink:href="d__meter2__info_8cpp.html" target="_top" xlink:title=" ">
<polygon fill="white" stroke="black" points="350,-67.5 350,-97.5 460,-97.5 460,-67.5 350,-67.5"/>
<text text-anchor="start" x="358" y="-85.5" font-family="Helvetica,sans-Serif" font-size="10.00">src/d/meter/d_meter2</text>
<text text-anchor="middle" x="405" y="-74.5" font-family="Helvetica,sans-Serif" font-size="10.00">_info.cpp</text>
</a>
</g>
</g>
<!-- Node7&#45;&gt;Node10 -->
<g id="edge10" class="edge">
<title>Node7&#45;&gt;Node10</title>
<path fill="none" stroke="midnightblue" d="M359.84,-127.31C369.89,-117.56 381.54,-106.26 390.49,-97.58"/>
<polygon fill="midnightblue" stroke="midnightblue" points="357.28,-124.92 352.54,-134.4 362.15,-129.94 357.28,-124.92"/>
</g>
<!-- Node11 -->
<g id="node11" class="node">
<title>Node11</title>
<g id="a_node11"><a xlink:href="d__msg__flow_8cpp.html" target="_top" xlink:title=" ">
<polygon fill="white" stroke="black" points="478.5,-73 478.5,-92 611.5,-92 611.5,-73 478.5,-73"/>
<text text-anchor="middle" x="545" y="-80" font-family="Helvetica,sans-Serif" font-size="10.00">src/d/msg/d_msg_flow.cpp</text>
</a>
</g>
</g>
<!-- Node7&#45;&gt;Node11 -->
<g id="edge11" class="edge">
<title>Node7&#45;&gt;Node11</title>
<path fill="none" stroke="midnightblue" d="M392.36,-131.43C432.73,-118.75 486.08,-102 517.84,-92.03"/>
<polygon fill="midnightblue" stroke="midnightblue" points="391.15,-128.14 382.66,-134.48 393.25,-134.82 391.15,-128.14"/>
</g>
<!-- Node12 -->
<g id="node12" class="node">
<title>Node12</title>
<g id="a_node12"><a xlink:href="d__save_8cpp.html" target="_top" xlink:title=" ">
<polygon fill="white" stroke="black" points="629.5,-73 629.5,-92 744.5,-92 744.5,-73 629.5,-73"/>
<text text-anchor="middle" x="687" y="-80" font-family="Helvetica,sans-Serif" font-size="10.00">src/d/save/d_save.cpp</text>
</a>
</g>
</g>
<!-- Node7&#45;&gt;Node12 -->
<g id="edge12" class="edge">
<title>Node7&#45;&gt;Node12</title>
<path fill="none" stroke="midnightblue" d="M403.22,-137.5C460.46,-127.69 545.89,-112.65 620,-98 629.34,-96.15 639.39,-94.05 648.78,-92.02"/>
<polygon fill="midnightblue" stroke="midnightblue" points="402.49,-134.08 393.23,-139.21 403.67,-140.98 402.49,-134.08"/>
</g>
<!-- Node13 -->
<g id="node13" class="node">
<title>Node13</title>
<g id="a_node13"><a xlink:href="d__item_8h.html" target="_top" xlink:title=" ">
<polygon fill="white" stroke="black" points="762.5,-73 762.5,-92 857.5,-92 857.5,-73 762.5,-73"/>
<text text-anchor="middle" x="810" y="-80" font-family="Helvetica,sans-Serif" font-size="10.00">include/d/d_item.h</text>
</a>
</g>
</g>
<!-- Node7&#45;&gt;Node13 -->
<g id="edge13" class="edge">
<title>Node7&#45;&gt;Node13</title>
<path fill="none" stroke="midnightblue" d="M403.23,-143.16C485.31,-135.86 630.37,-120.96 753,-98 761.63,-96.38 770.9,-94.22 779.39,-92.05"/>
<polygon fill="midnightblue" stroke="midnightblue" points="402.71,-139.7 393.06,-144.06 403.32,-146.67 402.71,-139.7"/>
</g>
<!-- Node13&#45;&gt;Node8 -->
<g id="edge14" class="edge">
<title>Node13&#45;&gt;Node8</title>
<path fill="none" stroke="midnightblue" d="M768.56,-70.5C763.34,-69.25 758.06,-68.05 753,-67 662.02,-48.17 555.02,-32.34 492.06,-23.65"/>
<polygon fill="midnightblue" stroke="midnightblue" points="767.91,-73.94 778.46,-72.94 769.59,-67.14 767.91,-73.94"/>
</g>
<!-- Node14 -->
<g id="node14" class="node">
<title>Node14</title>
<g id="a_node14"><a xlink:href="d__item_8cpp.html" target="_top" xlink:title=" ">
<polygon fill="white" stroke="black" points="765.5,-6 765.5,-25 854.5,-25 854.5,-6 765.5,-6"/>
<text text-anchor="middle" x="810" y="-13" font-family="Helvetica,sans-Serif" font-size="10.00">src/d/d_item.cpp</text>
</a>
</g>
</g>
<!-- Node13&#45;&gt;Node14 -->
<g id="edge15" class="edge">
<title>Node13&#45;&gt;Node14</title>
<path fill="none" stroke="midnightblue" d="M810,-62.54C810,-50.17 810,-34.62 810,-25.13"/>
<polygon fill="midnightblue" stroke="midnightblue" points="806.5,-62.73 810,-72.73 813.5,-62.73 806.5,-62.73"/>
</g>
</g>
</svg>
