<?xml version="1.0" encoding="UTF-8" standalone="no"?>
<!DOCTYPE svg PUBLIC "-//W3C//DTD SVG 1.1//EN"
 "http://www.w3.org/Graphics/SVG/1.1/DTD/svg11.dtd">
<!-- Generated by graphviz version 2.44.0 ()
 -->
<!-- Title: include/JSystem/J3DGraphAnimator/J3DMaterialAnm.h Pages: 1 -->
<svg width="1785pt" height="821pt"
 viewBox="0.00 0.00 1785.00 821.00" xmlns="http://www.w3.org/2000/svg" xmlns:xlink="http://www.w3.org/1999/xlink">
<g id="graph0" class="graph" transform="scale(1 1) rotate(0) translate(4 817)">
<title>include/JSystem/J3DGraphAnimator/J3DMaterialAnm.h</title>
<polygon fill="white" stroke="transparent" points="-4,4 -4,-817 1781,-817 1781,4 -4,4"/>
<!-- Node1 -->
<g id="node1" class="node">
<title>Node1</title>
<g id="a_node1"><a xlink:title=" ">
<polygon fill="#bfbfbf" stroke="black" points="114,-782.5 114,-812.5 252,-812.5 252,-782.5 114,-782.5"/>
<text text-anchor="start" x="122" y="-800.5" font-family="Helvetica,sans-Serif" font-size="10.00">include/JSystem/J3DGraph</text>
<text text-anchor="middle" x="183" y="-789.5" font-family="Helvetica,sans-Serif" font-size="10.00">Animator/J3DMaterialAnm.h</text>
</a>
</g>
</g>
<!-- Node2 -->
<g id="node2" class="node">
<title>Node2</title>
<g id="a_node2"><a xlink:href="J3DAnimation_8h.html" target="_top" xlink:title=" ">
<polygon fill="white" stroke="black" points="255,-715.5 255,-745.5 395,-745.5 395,-715.5 255,-715.5"/>
<text text-anchor="start" x="263" y="-733.5" font-family="Helvetica,sans-Serif" font-size="10.00">JSystem/J3DGraphAnimator</text>
<text text-anchor="middle" x="325" y="-722.5" font-family="Helvetica,sans-Serif" font-size="10.00">/J3DAnimation.h</text>
</a>
</g>
</g>
<!-- Node1&#45;&gt;Node2 -->
<g id="edge1" class="edge">
<title>Node1&#45;&gt;Node2</title>
<path fill="none" stroke="midnightblue" d="M213.81,-782.4C234.65,-772.86 262.38,-760.16 284.93,-749.84"/>
<polygon fill="midnightblue" stroke="midnightblue" points="286.61,-752.92 294.25,-745.58 283.7,-746.56 286.61,-752.92"/>
</g>
<!-- Node5 -->
<g id="node5" class="node">
<title>Node5</title>
<g id="a_node5"><a xlink:href="types_8h.html" target="_top" xlink:title=" ">
<polygon fill="white" stroke="black" points="758.5,-0.5 758.5,-19.5 839.5,-19.5 839.5,-0.5 758.5,-0.5"/>
<text text-anchor="middle" x="799" y="-7.5" font-family="Helvetica,sans-Serif" font-size="10.00">dolphin/types.h</text>
</a>
</g>
</g>
<!-- Node1&#45;&gt;Node5 -->
<g id="edge87" class="edge">
<title>Node1&#45;&gt;Node5</title>
<path fill="none" stroke="midnightblue" d="M128.59,-782.34C74.65,-764.63 0,-728.55 0,-664.5 0,-664.5 0,-664.5 0,-126.5 0,-90.25 10.13,-75 41,-56 100.94,-19.11 588.39,-12.45 748.35,-11.26"/>
<polygon fill="midnightblue" stroke="midnightblue" points="748.43,-14.76 758.41,-11.19 748.39,-7.76 748.43,-14.76"/>
</g>
<!-- Node3 -->
<g id="node3" class="node">
<title>Node3</title>
<g id="a_node3"><a xlink:href="J3DMaterialAttach_8h.html" target="_top" xlink:title=" ">
<polygon fill="white" stroke="black" points="28,-581.5 28,-611.5 168,-611.5 168,-581.5 28,-581.5"/>
<text text-anchor="start" x="36" y="-599.5" font-family="Helvetica,sans-Serif" font-size="10.00">JSystem/J3DGraphAnimator</text>
<text text-anchor="middle" x="98" y="-588.5" font-family="Helvetica,sans-Serif" font-size="10.00">/J3DMaterialAttach.h</text>
</a>
</g>
</g>
<!-- Node2&#45;&gt;Node3 -->
<g id="edge2" class="edge">
<title>Node2&#45;&gt;Node3</title>
<path fill="none" stroke="midnightblue" d="M300.71,-715.37C259.75,-691.56 176.91,-643.39 130.82,-616.59"/>
<polygon fill="midnightblue" stroke="midnightblue" points="132.52,-613.53 122.12,-611.52 129,-619.58 132.52,-613.53"/>
</g>
<!-- Node2&#45;&gt;Node5 -->
<g id="edge86" class="edge">
<title>Node2&#45;&gt;Node5</title>
<path fill="none" stroke="midnightblue" d="M395.16,-729.73C567.22,-729.53 1023.62,-724.36 1401,-679 1570.77,-658.59 1777,-768.49 1777,-597.5 1777,-597.5 1777,-597.5 1777,-126.5 1777,-51.22 1696.08,-74.03 1623,-56 1475.3,-19.55 1005.59,-12.61 849.77,-11.3"/>
<polygon fill="midnightblue" stroke="midnightblue" points="849.57,-7.8 839.54,-11.22 849.51,-14.8 849.57,-7.8"/>
</g>
<!-- Node6 -->
<g id="node6" class="node">
<title>Node6</title>
<g id="a_node6"><a xlink:href="J3DModelData_8h.html" target="_top" xlink:title=" ">
<polygon fill="white" stroke="black" points="255,-648.5 255,-678.5 395,-678.5 395,-648.5 255,-648.5"/>
<text text-anchor="start" x="263" y="-666.5" font-family="Helvetica,sans-Serif" font-size="10.00">JSystem/J3DGraphAnimator</text>
<text text-anchor="middle" x="325" y="-655.5" font-family="Helvetica,sans-Serif" font-size="10.00">/J3DModelData.h</text>
</a>
</g>
</g>
<!-- Node2&#45;&gt;Node6 -->
<g id="edge6" class="edge">
<title>Node2&#45;&gt;Node6</title>
<path fill="none" stroke="midnightblue" d="M325,-715.4C325,-707.64 325,-697.81 325,-688.86"/>
<polygon fill="midnightblue" stroke="midnightblue" points="328.5,-688.58 325,-678.58 321.5,-688.58 328.5,-688.58"/>
</g>
<!-- Node15 -->
<g id="node15" class="node">
<title>Node15</title>
<g id="a_node15"><a xlink:href="GXTexture_8h.html" target="_top" xlink:title=" ">
<polygon fill="white" stroke="black" points="1265.5,-56.5 1265.5,-75.5 1382.5,-75.5 1382.5,-56.5 1265.5,-56.5"/>
<text text-anchor="middle" x="1324" y="-63.5" font-family="Helvetica,sans-Serif" font-size="10.00">dolphin/gx/GXTexture.h</text>
</a>
</g>
</g>
<!-- Node2&#45;&gt;Node15 -->
<g id="edge85" class="edge">
<title>Node2&#45;&gt;Node15</title>
<path fill="none" stroke="midnightblue" d="M395.12,-726.67C680.44,-714.72 1739,-665.76 1739,-597.5 1739,-597.5 1739,-597.5 1739,-327.5 1739,-164.87 1507.56,-99.86 1390.35,-77.37"/>
<polygon fill="midnightblue" stroke="midnightblue" points="1390.87,-73.9 1380.4,-75.51 1389.59,-80.79 1390.87,-73.9"/>
</g>
<!-- Node4 -->
<g id="node4" class="node">
<title>Node4</title>
<g id="a_node4"><a xlink:href="JUTNameTab_8h.html" target="_top" xlink:title=" ">
<polygon fill="white" stroke="black" points="104,-380.5 104,-410.5 240,-410.5 240,-380.5 104,-380.5"/>
<text text-anchor="start" x="112" y="-398.5" font-family="Helvetica,sans-Serif" font-size="10.00">JSystem/JUtility/JUTName</text>
<text text-anchor="middle" x="172" y="-387.5" font-family="Helvetica,sans-Serif" font-size="10.00">Tab.h</text>
</a>
</g>
</g>
<!-- Node3&#45;&gt;Node4 -->
<g id="edge3" class="edge">
<title>Node3&#45;&gt;Node4</title>
<path fill="none" stroke="midnightblue" d="M102.34,-581.41C110.63,-554.84 129.63,-495.62 149,-447 152.54,-438.12 156.79,-428.54 160.66,-420.14"/>
<polygon fill="midnightblue" stroke="midnightblue" points="163.91,-421.47 164.98,-410.92 157.57,-418.49 163.91,-421.47"/>
</g>
<!-- Node3&#45;&gt;Node5 -->
<g id="edge5" class="edge">
<title>Node3&#45;&gt;Node5</title>
<path fill="none" stroke="midnightblue" d="M86.71,-581.42C69.33,-558.27 38,-510.07 38,-463.5 38,-463.5 38,-463.5 38,-126.5 38,-93.4 35.69,-76.08 62,-56 116.23,-14.62 589.81,-10.94 747.88,-10.88"/>
<polygon fill="midnightblue" stroke="midnightblue" points="748.27,-14.38 758.27,-10.88 748.27,-7.38 748.27,-14.38"/>
</g>
<!-- Node4&#45;&gt;Node5 -->
<g id="edge4" class="edge">
<title>Node4&#45;&gt;Node5</title>
<path fill="none" stroke="midnightblue" d="M172,-380.24C172,-356.03 172,-305.35 172,-262.5 172,-262.5 172,-262.5 172,-126.5 172,-93.4 169.82,-76.26 196,-56 239.19,-22.58 610.55,-13.76 748.06,-11.63"/>
<polygon fill="midnightblue" stroke="midnightblue" points="748.38,-15.12 758.32,-11.47 748.27,-8.12 748.38,-15.12"/>
</g>
<!-- Node6&#45;&gt;Node3 -->
<g id="edge74" class="edge">
<title>Node6&#45;&gt;Node3</title>
<path fill="none" stroke="midnightblue" d="M276.02,-648.48C241.09,-638.47 193.94,-624.97 156.94,-614.38"/>
<polygon fill="midnightblue" stroke="midnightblue" points="157.86,-611 147.28,-611.61 155.93,-617.73 157.86,-611"/>
</g>
<!-- Node6&#45;&gt;Node5 -->
<g id="edge84" class="edge">
<title>Node6&#45;&gt;Node5</title>
<path fill="none" stroke="midnightblue" d="M303.34,-648.5C242.76,-607.45 76,-480.73 76,-329.5 76,-329.5 76,-329.5 76,-126.5 76,-72.48 124.17,-74.29 175,-56 280.1,-18.18 619.12,-12.08 748.33,-11.15"/>
<polygon fill="midnightblue" stroke="midnightblue" points="748.38,-14.65 758.36,-11.08 748.34,-7.65 748.38,-14.65"/>
</g>
<!-- Node7 -->
<g id="node7" class="node">
<title>Node7</title>
<g id="a_node7"><a xlink:href="J3DJointTree_8h.html" target="_top" xlink:title=" ">
<polygon fill="white" stroke="black" points="458,-581.5 458,-611.5 598,-611.5 598,-581.5 458,-581.5"/>
<text text-anchor="start" x="466" y="-599.5" font-family="Helvetica,sans-Serif" font-size="10.00">JSystem/J3DGraphAnimator</text>
<text text-anchor="middle" x="528" y="-588.5" font-family="Helvetica,sans-Serif" font-size="10.00">/J3DJointTree.h</text>
</a>
</g>
</g>
<!-- Node6&#45;&gt;Node7 -->
<g id="edge7" class="edge">
<title>Node6&#45;&gt;Node7</title>
<path fill="none" stroke="midnightblue" d="M369.05,-648.4C399.91,-638.52 441.33,-625.25 474.15,-614.74"/>
<polygon fill="midnightblue" stroke="midnightblue" points="475.58,-617.96 484.04,-611.58 473.45,-611.29 475.58,-617.96"/>
</g>
<!-- Node25 -->
<g id="node25" class="node">
<title>Node25</title>
<g id="a_node25"><a xlink:href="J3DSys_8h.html" target="_top" xlink:title=" ">
<polygon fill="white" stroke="black" points="1473,-246.5 1473,-276.5 1597,-276.5 1597,-246.5 1473,-246.5"/>
<text text-anchor="start" x="1481" y="-264.5" font-family="Helvetica,sans-Serif" font-size="10.00">JSystem/J3DGraphBase</text>
<text text-anchor="middle" x="1535" y="-253.5" font-family="Helvetica,sans-Serif" font-size="10.00">/J3DSys.h</text>
</a>
</g>
</g>
<!-- Node6&#45;&gt;Node25 -->
<g id="edge82" class="edge">
<title>Node6&#45;&gt;Node25</title>
<path fill="none" stroke="midnightblue" d="M395.05,-663.01C670.36,-664.12 1663,-659.17 1663,-530.5 1663,-530.5 1663,-530.5 1663,-394.5 1663,-342.49 1611.15,-303.21 1573.45,-281.53"/>
<polygon fill="midnightblue" stroke="midnightblue" points="1575.13,-278.46 1564.69,-276.66 1571.72,-284.58 1575.13,-278.46"/>
</g>
<!-- Node32 -->
<g id="node32" class="node">
<title>Node32</title>
<g id="a_node32"><a xlink:href="J3DShapeTable_8h.html" target="_top" xlink:title=" ">
<polygon fill="white" stroke="black" points="191,-447.5 191,-477.5 331,-477.5 331,-447.5 191,-447.5"/>
<text text-anchor="start" x="199" y="-465.5" font-family="Helvetica,sans-Serif" font-size="10.00">JSystem/J3DGraphAnimator</text>
<text text-anchor="middle" x="261" y="-454.5" font-family="Helvetica,sans-Serif" font-size="10.00">/J3DShapeTable.h</text>
</a>
</g>
</g>
<!-- Node6&#45;&gt;Node32 -->
<g id="edge75" class="edge">
<title>Node6&#45;&gt;Node32</title>
<path fill="none" stroke="midnightblue" d="M320.4,-648.19C309.51,-614.34 282.09,-529.08 268.66,-487.31"/>
<polygon fill="midnightblue" stroke="midnightblue" points="271.95,-486.13 265.56,-477.68 265.29,-488.27 271.95,-486.13"/>
</g>
<!-- Node33 -->
<g id="node33" class="node">
<title>Node33</title>
<g id="a_node33"><a xlink:href="J3DVertex_8h.html" target="_top" xlink:title=" ">
<polygon fill="white" stroke="black" points="238,-179.5 238,-209.5 362,-209.5 362,-179.5 238,-179.5"/>
<text text-anchor="start" x="246" y="-197.5" font-family="Helvetica,sans-Serif" font-size="10.00">JSystem/J3DGraphBase</text>
<text text-anchor="middle" x="300" y="-186.5" font-family="Helvetica,sans-Serif" font-size="10.00">/J3DVertex.h</text>
</a>
</g>
</g>
<!-- Node6&#45;&gt;Node33 -->
<g id="edge83" class="edge">
<title>Node6&#45;&gt;Node33</title>
<path fill="none" stroke="midnightblue" d="M326.56,-648.17C329.86,-617.18 337.42,-541.58 340,-478 344.21,-374.33 334.57,-347.7 314,-246 312.22,-237.22 309.74,-227.73 307.36,-219.37"/>
<polygon fill="midnightblue" stroke="midnightblue" points="310.65,-218.12 304.46,-209.52 303.93,-220.1 310.65,-218.12"/>
</g>
<!-- Node7&#45;&gt;Node4 -->
<g id="edge71" class="edge">
<title>Node7&#45;&gt;Node4</title>
<path fill="none" stroke="midnightblue" d="M457.65,-592.74C377.62,-585.52 249.34,-560.81 182,-478 169.11,-462.15 167.52,-438.52 168.61,-420.78"/>
<polygon fill="midnightblue" stroke="midnightblue" points="172.12,-420.9 169.57,-410.61 165.15,-420.24 172.12,-420.9"/>
</g>
<!-- Node7&#45;&gt;Node5 -->
<g id="edge73" class="edge">
<title>Node7&#45;&gt;Node5</title>
<path fill="none" stroke="midnightblue" d="M525.34,-581.43C517.98,-539.73 499.35,-413.51 523,-313 537.61,-250.89 602.28,-97.2 651,-56 678.27,-32.94 717.14,-21.7 748.2,-16.21"/>
<polygon fill="midnightblue" stroke="midnightblue" points="749.09,-19.61 758.41,-14.57 747.98,-12.7 749.09,-19.61"/>
</g>
<!-- Node8 -->
<g id="node8" class="node">
<title>Node8</title>
<g id="a_node8"><a xlink:href="J3DJoint_8h.html" target="_top" xlink:title=" ">
<polygon fill="white" stroke="black" points="712,-514.5 712,-544.5 852,-544.5 852,-514.5 712,-514.5"/>
<text text-anchor="start" x="720" y="-532.5" font-family="Helvetica,sans-Serif" font-size="10.00">JSystem/J3DGraphAnimator</text>
<text text-anchor="middle" x="782" y="-521.5" font-family="Helvetica,sans-Serif" font-size="10.00">/J3DJoint.h</text>
</a>
</g>
</g>
<!-- Node7&#45;&gt;Node8 -->
<g id="edge8" class="edge">
<title>Node7&#45;&gt;Node8</title>
<path fill="none" stroke="midnightblue" d="M582.8,-581.48C622.23,-571.39 675.55,-557.74 717.1,-547.11"/>
<polygon fill="midnightblue" stroke="midnightblue" points="718.04,-550.48 726.86,-544.61 716.3,-543.7 718.04,-550.48"/>
</g>
<!-- Node30 -->
<g id="node30" class="node">
<title>Node30</title>
<g id="a_node30"><a xlink:href="mtxvec_8h.html" target="_top" xlink:title=" ">
<polygon fill="white" stroke="black" points="751,-252 751,-271 859,-271 859,-252 751,-252"/>
<text text-anchor="middle" x="805" y="-259" font-family="Helvetica,sans-Serif" font-size="10.00">dolphin/mtx/mtxvec.h</text>
</a>
</g>
</g>
<!-- Node7&#45;&gt;Node30 -->
<g id="edge72" class="edge">
<title>Node7&#45;&gt;Node30</title>
<path fill="none" stroke="midnightblue" d="M598.14,-592.34C683.17,-587.25 820.18,-574.61 861,-545 893.82,-521.19 902,-504.05 902,-463.5 902,-463.5 902,-463.5 902,-394.5 902,-357.31 904.39,-343.43 883,-313 871.37,-296.45 852.42,-284 836.11,-275.6"/>
<polygon fill="midnightblue" stroke="midnightblue" points="837.41,-272.34 826.89,-271.12 834.35,-278.64 837.41,-272.34"/>
</g>
<!-- Node8&#45;&gt;Node5 -->
<g id="edge70" class="edge">
<title>Node8&#45;&gt;Node5</title>
<path fill="none" stroke="midnightblue" d="M774.71,-514.33C752.15,-469.11 685,-323.76 685,-195.5 685,-195.5 685,-195.5 685,-126.5 685,-77.7 737.19,-42.06 770.95,-24.11"/>
<polygon fill="midnightblue" stroke="midnightblue" points="772.61,-27.19 779.92,-19.52 769.42,-20.96 772.61,-27.19"/>
</g>
<!-- Node9 -->
<g id="node9" class="node">
<title>Node9</title>
<g id="a_node9"><a xlink:href="J3DMaterial_8h.html" target="_top" xlink:title=" ">
<polygon fill="white" stroke="black" points="1224,-447.5 1224,-477.5 1348,-477.5 1348,-447.5 1224,-447.5"/>
<text text-anchor="start" x="1232" y="-465.5" font-family="Helvetica,sans-Serif" font-size="10.00">JSystem/J3DGraphBase</text>
<text text-anchor="middle" x="1286" y="-454.5" font-family="Helvetica,sans-Serif" font-size="10.00">/J3DMaterial.h</text>
</a>
</g>
</g>
<!-- Node8&#45;&gt;Node9 -->
<g id="edge9" class="edge">
<title>Node8&#45;&gt;Node9</title>
<path fill="none" stroke="midnightblue" d="M852.08,-519.46C947.43,-507.16 1117.18,-485.27 1213.68,-472.83"/>
<polygon fill="midnightblue" stroke="midnightblue" points="1214.18,-476.29 1223.65,-471.54 1213.28,-469.35 1214.18,-476.29"/>
</g>
<!-- Node31 -->
<g id="node31" class="node">
<title>Node31</title>
<g id="a_node31"><a xlink:href="J3DTransform_8h.html" target="_top" xlink:title=" ">
<polygon fill="white" stroke="black" points="750,-313.5 750,-343.5 874,-343.5 874,-313.5 750,-313.5"/>
<text text-anchor="start" x="758" y="-331.5" font-family="Helvetica,sans-Serif" font-size="10.00">JSystem/J3DGraphBase</text>
<text text-anchor="middle" x="812" y="-320.5" font-family="Helvetica,sans-Serif" font-size="10.00">/J3DTransform.h</text>
</a>
</g>
</g>
<!-- Node8&#45;&gt;Node31 -->
<g id="edge67" class="edge">
<title>Node8&#45;&gt;Node31</title>
<path fill="none" stroke="midnightblue" d="M784.16,-514.19C789.25,-480.41 802.06,-395.44 808.37,-353.57"/>
<polygon fill="midnightblue" stroke="midnightblue" points="811.83,-354.09 809.86,-343.68 804.91,-353.05 811.83,-354.09"/>
</g>
<!-- Node9&#45;&gt;Node5 -->
<g id="edge66" class="edge">
<title>Node9&#45;&gt;Node5</title>
<path fill="none" stroke="midnightblue" d="M1348.07,-453.86C1418.99,-442.06 1534.44,-413.02 1606,-344 1682.06,-270.64 1703.77,-207.24 1658,-112 1640.74,-76.09 1625.2,-70.25 1588,-56 1519.4,-29.72 1013.35,-15.92 849.81,-12.11"/>
<polygon fill="midnightblue" stroke="midnightblue" points="849.62,-8.6 839.54,-11.87 849.46,-15.6 849.62,-8.6"/>
</g>
<!-- Node10 -->
<g id="node10" class="node">
<title>Node10</title>
<g id="a_node10"><a xlink:href="J3DMatBlock_8h.html" target="_top" xlink:title=" ">
<polygon fill="white" stroke="black" points="1179,-380.5 1179,-410.5 1303,-410.5 1303,-380.5 1179,-380.5"/>
<text text-anchor="start" x="1187" y="-398.5" font-family="Helvetica,sans-Serif" font-size="10.00">JSystem/J3DGraphBase</text>
<text text-anchor="middle" x="1241" y="-387.5" font-family="Helvetica,sans-Serif" font-size="10.00">/J3DMatBlock.h</text>
</a>
</g>
</g>
<!-- Node9&#45;&gt;Node10 -->
<g id="edge10" class="edge">
<title>Node9&#45;&gt;Node10</title>
<path fill="none" stroke="midnightblue" d="M1276.24,-447.4C1270.46,-439.05 1263.01,-428.29 1256.45,-418.81"/>
<polygon fill="midnightblue" stroke="midnightblue" points="1259.32,-416.81 1250.75,-410.58 1253.56,-420.79 1259.32,-416.81"/>
</g>
<!-- Node11 -->
<g id="node11" class="node">
<title>Node11</title>
<g id="a_node11"><a xlink:href="J3DStruct_8h.html" target="_top" xlink:title=" ">
<polygon fill="white" stroke="black" points="1335,-179.5 1335,-209.5 1459,-209.5 1459,-179.5 1335,-179.5"/>
<text text-anchor="start" x="1343" y="-197.5" font-family="Helvetica,sans-Serif" font-size="10.00">JSystem/J3DGraphBase</text>
<text text-anchor="middle" x="1397" y="-186.5" font-family="Helvetica,sans-Serif" font-size="10.00">/J3DStruct.h</text>
</a>
</g>
</g>
<!-- Node9&#45;&gt;Node11 -->
<g id="edge63" class="edge">
<title>Node9&#45;&gt;Node11</title>
<path fill="none" stroke="midnightblue" d="M1304.1,-447.4C1329.19,-427.02 1374.55,-387.01 1402,-344 1426.18,-306.11 1438.9,-289.35 1427,-246 1424.3,-236.18 1419.14,-226.33 1413.85,-217.98"/>
<polygon fill="midnightblue" stroke="midnightblue" points="1416.67,-215.9 1408.17,-209.57 1410.87,-219.82 1416.67,-215.9"/>
</g>
<!-- Node16 -->
<g id="node16" class="node">
<title>Node16</title>
<g id="a_node16"><a xlink:href="J3DTevs_8h.html" target="_top" xlink:title=" ">
<polygon fill="white" stroke="black" points="1473,-313.5 1473,-343.5 1597,-343.5 1597,-313.5 1473,-313.5"/>
<text text-anchor="start" x="1481" y="-331.5" font-family="Helvetica,sans-Serif" font-size="10.00">JSystem/J3DGraphBase</text>
<text text-anchor="middle" x="1535" y="-320.5" font-family="Helvetica,sans-Serif" font-size="10.00">/J3DTevs.h</text>
</a>
</g>
</g>
<!-- Node9&#45;&gt;Node16 -->
<g id="edge64" class="edge">
<title>Node9&#45;&gt;Node16</title>
<path fill="none" stroke="midnightblue" d="M1348.15,-451.74C1382.67,-444.33 1425.3,-431.76 1459,-411 1483.63,-395.83 1505.42,-370.57 1519.28,-352.19"/>
<polygon fill="midnightblue" stroke="midnightblue" points="1522.34,-353.93 1525.42,-343.79 1516.69,-349.8 1522.34,-353.93"/>
</g>
<!-- Node17 -->
<g id="node17" class="node">
<title>Node17</title>
<g id="a_node17"><a xlink:href="J3DTexture_8h.html" target="_top" xlink:title=" ">
<polygon fill="white" stroke="black" points="1269,-313.5 1269,-343.5 1393,-343.5 1393,-313.5 1269,-313.5"/>
<text text-anchor="start" x="1277" y="-331.5" font-family="Helvetica,sans-Serif" font-size="10.00">JSystem/J3DGraphBase</text>
<text text-anchor="middle" x="1331" y="-320.5" font-family="Helvetica,sans-Serif" font-size="10.00">/J3DTexture.h</text>
</a>
</g>
</g>
<!-- Node9&#45;&gt;Node17 -->
<g id="edge65" class="edge">
<title>Node9&#45;&gt;Node17</title>
<path fill="none" stroke="midnightblue" d="M1294.49,-447.34C1300.12,-437.45 1307.3,-423.77 1312,-411 1318.91,-392.21 1323.88,-370.03 1327.01,-353.56"/>
<polygon fill="midnightblue" stroke="midnightblue" points="1330.46,-354.11 1328.79,-343.65 1323.57,-352.87 1330.46,-354.11"/>
</g>
<!-- Node24 -->
<g id="node24" class="node">
<title>Node24</title>
<g id="a_node24"><a xlink:href="J3DPacket_8h.html" target="_top" xlink:title=" ">
<polygon fill="white" stroke="black" points="1013,-313.5 1013,-343.5 1137,-343.5 1137,-313.5 1013,-313.5"/>
<text text-anchor="start" x="1021" y="-331.5" font-family="Helvetica,sans-Serif" font-size="10.00">JSystem/J3DGraphBase</text>
<text text-anchor="middle" x="1075" y="-320.5" font-family="Helvetica,sans-Serif" font-size="10.00">/J3DPacket.h</text>
</a>
</g>
</g>
<!-- Node9&#45;&gt;Node24 -->
<g id="edge42" class="edge">
<title>Node9&#45;&gt;Node24</title>
<path fill="none" stroke="midnightblue" d="M1245.87,-447.45C1222.82,-438.56 1193.82,-425.93 1170,-411 1142.29,-393.63 1114.33,-368.52 1095.99,-350.77"/>
<polygon fill="midnightblue" stroke="midnightblue" points="1098.33,-348.16 1088.74,-343.65 1093.43,-353.16 1098.33,-348.16"/>
</g>
<!-- Node27 -->
<g id="node27" class="node">
<title>Node27</title>
<g id="a_node27"><a xlink:href="J3DShape_8h.html" target="_top" xlink:title=" ">
<polygon fill="white" stroke="black" points="376,-380.5 376,-410.5 500,-410.5 500,-380.5 376,-380.5"/>
<text text-anchor="start" x="384" y="-398.5" font-family="Helvetica,sans-Serif" font-size="10.00">JSystem/J3DGraphBase</text>
<text text-anchor="middle" x="438" y="-387.5" font-family="Helvetica,sans-Serif" font-size="10.00">/J3DShape.h</text>
</a>
</g>
</g>
<!-- Node9&#45;&gt;Node27 -->
<g id="edge51" class="edge">
<title>Node9&#45;&gt;Node27</title>
<path fill="none" stroke="midnightblue" d="M1223.99,-456.75C1070.71,-445 674.61,-414.64 510.69,-402.07"/>
<polygon fill="midnightblue" stroke="midnightblue" points="510.47,-398.54 500.23,-401.27 509.93,-405.52 510.47,-398.54"/>
</g>
<!-- Node10&#45;&gt;Node5 -->
<g id="edge41" class="edge">
<title>Node10&#45;&gt;Node5</title>
<path fill="none" stroke="midnightblue" d="M1178.77,-388.97C1109.67,-381.78 1003.57,-367.32 971,-344 858.64,-263.56 814.33,-87.42 802.49,-29.71"/>
<polygon fill="midnightblue" stroke="midnightblue" points="805.86,-28.68 800.5,-19.54 798.99,-30.03 805.86,-28.68"/>
</g>
<!-- Node10&#45;&gt;Node11 -->
<g id="edge11" class="edge">
<title>Node10&#45;&gt;Node11</title>
<path fill="none" stroke="midnightblue" d="M1238.41,-380.42C1233.99,-351.73 1228.27,-285.85 1260,-246 1269.65,-233.88 1301.34,-221.81 1331.8,-212.52"/>
<polygon fill="midnightblue" stroke="midnightblue" points="1333.03,-215.81 1341.62,-209.6 1331.04,-209.1 1333.03,-215.81"/>
</g>
<!-- Node10&#45;&gt;Node15 -->
<g id="edge39" class="edge">
<title>Node10&#45;&gt;Node15</title>
<path fill="none" stroke="midnightblue" d="M1237.1,-380.48C1234.51,-370.42 1231.34,-356.49 1230,-344 1228.53,-330.3 1229.08,-326.75 1230,-313 1232,-283.02 1223.67,-271.84 1239,-246 1252.79,-222.76 1272.92,-232.43 1288,-210 1314.11,-171.16 1321.29,-114.87 1323.26,-85.86"/>
<polygon fill="midnightblue" stroke="midnightblue" points="1326.77,-85.71 1323.81,-75.54 1319.78,-85.33 1326.77,-85.71"/>
</g>
<!-- Node10&#45;&gt;Node16 -->
<g id="edge20" class="edge">
<title>Node10&#45;&gt;Node16</title>
<path fill="none" stroke="midnightblue" d="M1303.35,-380.72C1350.11,-370.38 1414.19,-356.21 1463.11,-345.39"/>
<polygon fill="midnightblue" stroke="midnightblue" points="1463.98,-348.79 1472.99,-343.21 1462.47,-341.95 1463.98,-348.79"/>
</g>
<!-- Node10&#45;&gt;Node17 -->
<g id="edge22" class="edge">
<title>Node10&#45;&gt;Node17</title>
<path fill="none" stroke="midnightblue" d="M1260.53,-380.4C1273.03,-371.37 1289.44,-359.51 1303.28,-349.52"/>
<polygon fill="midnightblue" stroke="midnightblue" points="1305.45,-352.27 1311.51,-343.58 1301.35,-346.59 1305.45,-352.27"/>
</g>
<!-- Node22 -->
<g id="node22" class="node">
<title>Node22</title>
<g id="a_node22"><a xlink:href="mtx_8h.html" target="_top" xlink:title=" ">
<polygon fill="white" stroke="black" points="911,-185 911,-204 1003,-204 1003,-185 911,-185"/>
<text text-anchor="middle" x="957" y="-192" font-family="Helvetica,sans-Serif" font-size="10.00">dolphin/mtx/mtx.h</text>
</a>
</g>
</g>
<!-- Node10&#45;&gt;Node22 -->
<g id="edge40" class="edge">
<title>Node10&#45;&gt;Node22</title>
<path fill="none" stroke="midnightblue" d="M1178.83,-394.27C1127.71,-391.22 1055.54,-380.05 1004,-344 975.2,-323.86 972.74,-310.46 962,-277 955.38,-256.38 954.88,-231.35 955.55,-214.52"/>
<polygon fill="midnightblue" stroke="midnightblue" points="959.06,-214.51 956.15,-204.33 952.07,-214.1 959.06,-214.51"/>
</g>
<!-- Node11&#45;&gt;Node5 -->
<g id="edge19" class="edge">
<title>Node11&#45;&gt;Node5</title>
<path fill="none" stroke="midnightblue" d="M1401.91,-179.09C1410.43,-151.15 1424.12,-89.41 1392,-56 1354.82,-17.33 987.16,-11.79 850.13,-11.07"/>
<polygon fill="midnightblue" stroke="midnightblue" points="849.91,-7.57 839.9,-11.03 849.88,-14.57 849.91,-7.57"/>
</g>
<!-- Node12 -->
<g id="node12" class="node">
<title>Node12</title>
<g id="a_node12"><a xlink:href="c__xyz_8h.html" target="_top" xlink:title=" ">
<polygon fill="white" stroke="black" points="1131,-112.5 1131,-142.5 1247,-142.5 1247,-112.5 1131,-112.5"/>
<text text-anchor="start" x="1139" y="-130.5" font-family="Helvetica,sans-Serif" font-size="10.00">SSystem/SComponent</text>
<text text-anchor="middle" x="1189" y="-119.5" font-family="Helvetica,sans-Serif" font-size="10.00">/c_xyz.h</text>
</a>
</g>
</g>
<!-- Node11&#45;&gt;Node12 -->
<g id="edge12" class="edge">
<title>Node11&#45;&gt;Node12</title>
<path fill="none" stroke="midnightblue" d="M1352.12,-179.48C1320.38,-169.56 1277.64,-156.2 1243.87,-145.65"/>
<polygon fill="midnightblue" stroke="midnightblue" points="1244.74,-142.25 1234.15,-142.61 1242.66,-148.93 1244.74,-142.25"/>
</g>
<!-- Node11&#45;&gt;Node15 -->
<g id="edge17" class="edge">
<title>Node11&#45;&gt;Node15</title>
<path fill="none" stroke="midnightblue" d="M1388.91,-179.48C1375.54,-156.31 1348.86,-110.07 1334.21,-84.69"/>
<polygon fill="midnightblue" stroke="midnightblue" points="1337.1,-82.7 1329.07,-75.79 1331.04,-86.2 1337.1,-82.7"/>
</g>
<!-- Node13 -->
<g id="node13" class="node">
<title>Node13</title>
<g id="a_node13"><a xlink:href="vec_8h.html" target="_top" xlink:title=" ">
<polygon fill="white" stroke="black" points="829,-56.5 829,-75.5 921,-75.5 921,-56.5 829,-56.5"/>
<text text-anchor="middle" x="875" y="-63.5" font-family="Helvetica,sans-Serif" font-size="10.00">dolphin/mtx/vec.h</text>
</a>
</g>
</g>
<!-- Node12&#45;&gt;Node13 -->
<g id="edge13" class="edge">
<title>Node12&#45;&gt;Node13</title>
<path fill="none" stroke="midnightblue" d="M1130.67,-115.45C1073.41,-104.6 986.68,-88.16 930.43,-77.5"/>
<polygon fill="midnightblue" stroke="midnightblue" points="930.77,-74.01 920.3,-75.58 929.47,-80.88 930.77,-74.01"/>
</g>
<!-- Node14 -->
<g id="node14" class="node">
<title>Node14</title>
<g id="a_node14"><a xlink:href="global_8h.html" target="_top" xlink:title=" ">
<polygon fill="white" stroke="black" points="1145,-56.5 1145,-75.5 1195,-75.5 1195,-56.5 1145,-56.5"/>
<text text-anchor="middle" x="1170" y="-63.5" font-family="Helvetica,sans-Serif" font-size="10.00">global.h</text>
</a>
</g>
</g>
<!-- Node12&#45;&gt;Node14 -->
<g id="edge15" class="edge">
<title>Node12&#45;&gt;Node14</title>
<path fill="none" stroke="midnightblue" d="M1184.5,-112.4C1181.91,-104.29 1178.62,-94.01 1175.84,-85.28"/>
<polygon fill="midnightblue" stroke="midnightblue" points="1179.14,-84.12 1172.76,-75.66 1172.47,-86.25 1179.14,-84.12"/>
</g>
<!-- Node13&#45;&gt;Node5 -->
<g id="edge14" class="edge">
<title>Node13&#45;&gt;Node5</title>
<path fill="none" stroke="midnightblue" d="M862.79,-56.32C851.22,-48.11 833.62,-35.6 819.84,-25.81"/>
<polygon fill="midnightblue" stroke="midnightblue" points="821.61,-22.77 811.43,-19.83 817.56,-28.48 821.61,-22.77"/>
</g>
<!-- Node14&#45;&gt;Node5 -->
<g id="edge16" class="edge">
<title>Node14&#45;&gt;Node5</title>
<path fill="none" stroke="midnightblue" d="M1144.95,-60.6C1136.12,-59.09 1126.13,-57.42 1117,-56 1022.8,-41.34 912.57,-26.19 849.75,-17.74"/>
<polygon fill="midnightblue" stroke="midnightblue" points="850.09,-14.26 839.71,-16.39 849.16,-21.19 850.09,-14.26"/>
</g>
<!-- Node15&#45;&gt;Node5 -->
<g id="edge18" class="edge">
<title>Node15&#45;&gt;Node5</title>
<path fill="none" stroke="midnightblue" d="M1265.44,-57.66C1260.56,-57.08 1255.7,-56.52 1251,-56 1105.42,-39.78 933.13,-23.41 849.54,-15.64"/>
<polygon fill="midnightblue" stroke="midnightblue" points="849.83,-12.15 839.55,-14.72 849.18,-19.12 849.83,-12.15"/>
</g>
<!-- Node16&#45;&gt;Node5 -->
<g id="edge21" class="edge">
<title>Node16&#45;&gt;Node5</title>
<path fill="none" stroke="midnightblue" d="M1579.92,-313.44C1597.93,-305.55 1617.17,-293.82 1629,-277 1646.32,-252.37 1636.77,-240.03 1639,-210 1642.22,-166.56 1660.61,-149.82 1639,-112 1614.69,-69.44 1590.87,-70.32 1544,-56 1413.91,-16.26 996.07,-11.44 850,-10.99"/>
<polygon fill="midnightblue" stroke="midnightblue" points="849.96,-7.49 839.96,-10.96 849.95,-14.49 849.96,-7.49"/>
</g>
<!-- Node17&#45;&gt;Node5 -->
<g id="edge38" class="edge">
<title>Node17&#45;&gt;Node5</title>
<path fill="none" stroke="midnightblue" d="M1393.2,-319.72C1469.52,-309.61 1590.74,-291.55 1606,-277 1632.92,-251.33 1625,-232.69 1625,-195.5 1625,-195.5 1625,-195.5 1625,-126.5 1625,-48.79 1540.46,-74.57 1465,-56 1348.47,-27.33 984.6,-15.6 849.85,-12.16"/>
<polygon fill="midnightblue" stroke="midnightblue" points="849.88,-8.66 839.8,-11.91 849.71,-15.66 849.88,-8.66"/>
</g>
<!-- Node18 -->
<g id="node18" class="node">
<title>Node18</title>
<g id="a_node18"><a xlink:href="JUTTexture_8h.html" target="_top" xlink:title=" ">
<polygon fill="white" stroke="black" points="1268.5,-252 1268.5,-271 1417.5,-271 1417.5,-252 1268.5,-252"/>
<text text-anchor="middle" x="1343" y="-259" font-family="Helvetica,sans-Serif" font-size="10.00">JSystem/JUtility/JUTTexture.h</text>
</a>
</g>
</g>
<!-- Node17&#45;&gt;Node18 -->
<g id="edge23" class="edge">
<title>Node17&#45;&gt;Node18</title>
<path fill="none" stroke="midnightblue" d="M1333.6,-313.4C1335.35,-303.96 1337.66,-291.45 1339.55,-281.19"/>
<polygon fill="midnightblue" stroke="midnightblue" points="1343.02,-281.66 1341.39,-271.19 1336.14,-280.39 1343.02,-281.66"/>
</g>
<!-- Node17&#45;&gt;Node22 -->
<g id="edge32" class="edge">
<title>Node17&#45;&gt;Node22</title>
<path fill="none" stroke="midnightblue" d="M1293.63,-313.48C1249.43,-296.99 1173.56,-268.94 1108,-246 1068.85,-232.3 1023.72,-217.31 993.07,-207.25"/>
<polygon fill="midnightblue" stroke="midnightblue" points="993.86,-203.83 983.26,-204.04 991.68,-210.48 993.86,-203.83"/>
</g>
<!-- Node18&#45;&gt;Node5 -->
<g id="edge31" class="edge">
<title>Node18&#45;&gt;Node5</title>
<path fill="none" stroke="midnightblue" d="M1400.32,-251.99C1425.5,-245.09 1452.75,-232.61 1468,-210 1501.84,-159.83 1479.17,-102.79 1412,-56 1366.4,-24.23 989.08,-14.37 850.12,-11.8"/>
<polygon fill="midnightblue" stroke="midnightblue" points="849.82,-8.29 839.76,-11.61 849.69,-15.29 849.82,-8.29"/>
</g>
<!-- Node19 -->
<g id="node19" class="node">
<title>Node19</title>
<g id="a_node19"><a xlink:href="JUTPalette_8h.html" target="_top" xlink:title=" ">
<polygon fill="white" stroke="black" points="1131,-185 1131,-204 1279,-204 1279,-185 1131,-185"/>
<text text-anchor="middle" x="1205" y="-192" font-family="Helvetica,sans-Serif" font-size="10.00">JSystem/JUtility/JUTPalette.h</text>
</a>
</g>
</g>
<!-- Node18&#45;&gt;Node19 -->
<g id="edge24" class="edge">
<title>Node18&#45;&gt;Node19</title>
<path fill="none" stroke="midnightblue" d="M1324.67,-251.87C1301.06,-240.75 1259.81,-221.32 1232.45,-208.43"/>
<polygon fill="midnightblue" stroke="midnightblue" points="1233.94,-205.26 1223.4,-204.17 1230.96,-211.59 1233.94,-205.26"/>
</g>
<!-- Node19&#45;&gt;Node5 -->
<g id="edge30" class="edge">
<title>Node19&#45;&gt;Node5</title>
<path fill="none" stroke="midnightblue" d="M1218.37,-184.95C1230.77,-176.15 1248.42,-161.17 1256,-143 1273.34,-101.42 1244.23,-76.26 1204,-56 1143.1,-25.33 944.27,-15.33 849.77,-12.27"/>
<polygon fill="midnightblue" stroke="midnightblue" points="849.69,-8.76 839.59,-11.95 849.48,-15.76 849.69,-8.76"/>
</g>
<!-- Node20 -->
<g id="node20" class="node">
<title>Node20</title>
<g id="a_node20"><a xlink:href="GX_8h.html" target="_top" xlink:title=" ">
<polygon fill="white" stroke="black" points="495.5,-118 495.5,-137 580.5,-137 580.5,-118 495.5,-118"/>
<text text-anchor="middle" x="538" y="-125" font-family="Helvetica,sans-Serif" font-size="10.00">dolphin/gx/GX.h</text>
</a>
</g>
</g>
<!-- Node19&#45;&gt;Node20 -->
<g id="edge25" class="edge">
<title>Node19&#45;&gt;Node20</title>
<path fill="none" stroke="midnightblue" d="M1130.75,-186.26C994.78,-173.01 708.95,-145.16 590.82,-133.65"/>
<polygon fill="midnightblue" stroke="midnightblue" points="590.88,-130.14 580.59,-132.65 590.2,-137.1 590.88,-130.14"/>
</g>
<!-- Node20&#45;&gt;Node5 -->
<g id="edge29" class="edge">
<title>Node20&#45;&gt;Node5</title>
<path fill="none" stroke="midnightblue" d="M542.34,-118C550.49,-102.95 569.57,-71.73 595,-56 641.83,-27.03 704.87,-16.6 748.42,-12.9"/>
<polygon fill="midnightblue" stroke="midnightblue" points="748.79,-16.38 758.5,-12.13 748.26,-9.4 748.79,-16.38"/>
</g>
<!-- Node20&#45;&gt;Node15 -->
<g id="edge28" class="edge">
<title>Node20&#45;&gt;Node15</title>
<path fill="none" stroke="midnightblue" d="M580.54,-123.28C709.47,-113.52 1096.74,-84.2 1255.24,-72.21"/>
<polygon fill="midnightblue" stroke="midnightblue" points="1255.63,-75.69 1265.34,-71.44 1255.11,-68.71 1255.63,-75.69"/>
</g>
<!-- Node21 -->
<g id="node21" class="node">
<title>Node21</title>
<g id="a_node21"><a xlink:href="GXDisplayList_8h.html" target="_top" xlink:title=" ">
<polygon fill="white" stroke="black" points="409.5,-56.5 409.5,-75.5 542.5,-75.5 542.5,-56.5 409.5,-56.5"/>
<text text-anchor="middle" x="476" y="-63.5" font-family="Helvetica,sans-Serif" font-size="10.00">dolphin/gx/GXDisplayList.h</text>
</a>
</g>
</g>
<!-- Node20&#45;&gt;Node21 -->
<g id="edge26" class="edge">
<title>Node20&#45;&gt;Node21</title>
<path fill="none" stroke="midnightblue" d="M529.12,-117.98C519.54,-108.78 504.09,-93.96 492.31,-82.66"/>
<polygon fill="midnightblue" stroke="midnightblue" points="494.51,-79.91 484.87,-75.51 489.66,-84.96 494.51,-79.91"/>
</g>
<!-- Node21&#45;&gt;Node5 -->
<g id="edge27" class="edge">
<title>Node21&#45;&gt;Node5</title>
<path fill="none" stroke="midnightblue" d="M527.18,-56.44C587.72,-46.32 687.87,-29.58 748.23,-19.49"/>
<polygon fill="midnightblue" stroke="midnightblue" points="749,-22.91 758.29,-17.81 747.85,-16 749,-22.91"/>
</g>
<!-- Node22&#45;&gt;Node5 -->
<g id="edge37" class="edge">
<title>Node22&#45;&gt;Node5</title>
<path fill="none" stroke="midnightblue" d="M970.37,-184.95C982.77,-176.15 1000.42,-161.17 1008,-143 1013.3,-130.28 1013.44,-124.66 1008,-112 981.77,-50.95 902.64,-26.64 849.62,-17.08"/>
<polygon fill="midnightblue" stroke="midnightblue" points="850.16,-13.62 839.72,-15.4 849,-20.52 850.16,-13.62"/>
</g>
<!-- Node22&#45;&gt;Node13 -->
<g id="edge36" class="edge">
<title>Node22&#45;&gt;Node13</title>
<path fill="none" stroke="midnightblue" d="M941.65,-184.9C927.45,-176.17 906.8,-161.32 895,-143 883.82,-125.65 878.87,-102.26 876.69,-86.04"/>
<polygon fill="midnightblue" stroke="midnightblue" points="880.12,-85.23 875.54,-75.67 873.17,-86 880.12,-85.23"/>
</g>
<!-- Node23 -->
<g id="node23" class="node">
<title>Node23</title>
<g id="a_node23"><a xlink:href="quat_8h.html" target="_top" xlink:title=" ">
<polygon fill="white" stroke="black" points="903.5,-118 903.5,-137 998.5,-137 998.5,-118 903.5,-118"/>
<text text-anchor="middle" x="951" y="-125" font-family="Helvetica,sans-Serif" font-size="10.00">dolphin/mtx/quat.h</text>
</a>
</g>
</g>
<!-- Node22&#45;&gt;Node23 -->
<g id="edge33" class="edge">
<title>Node22&#45;&gt;Node23</title>
<path fill="none" stroke="midnightblue" d="M956.19,-184.73C955.31,-175.18 953.87,-159.62 952.73,-147.28"/>
<polygon fill="midnightblue" stroke="midnightblue" points="956.2,-146.76 951.8,-137.13 949.23,-147.41 956.2,-146.76"/>
</g>
<!-- Node23&#45;&gt;Node5 -->
<g id="edge35" class="edge">
<title>Node23&#45;&gt;Node5</title>
<path fill="none" stroke="midnightblue" d="M950.86,-117.89C950.16,-103.22 946.62,-73.32 930,-56 909.04,-34.15 877,-22.91 849.86,-17.12"/>
<polygon fill="midnightblue" stroke="midnightblue" points="850.22,-13.63 839.73,-15.16 848.89,-20.5 850.22,-13.63"/>
</g>
<!-- Node23&#45;&gt;Node13 -->
<g id="edge34" class="edge">
<title>Node23&#45;&gt;Node13</title>
<path fill="none" stroke="midnightblue" d="M940.11,-117.98C928.03,-108.52 908.33,-93.1 893.76,-81.69"/>
<polygon fill="midnightblue" stroke="midnightblue" points="895.9,-78.92 885.87,-75.51 891.59,-84.43 895.9,-78.92"/>
</g>
<!-- Node24&#45;&gt;Node5 -->
<g id="edge50" class="edge">
<title>Node24&#45;&gt;Node5</title>
<path fill="none" stroke="midnightblue" d="M1087.61,-313.19C1095.14,-303.66 1103.99,-290.45 1108,-277 1111.93,-263.8 1110.96,-259.46 1108,-246 1087.48,-152.81 1087.12,-109.36 1008,-56 960.75,-24.14 895,-14.31 849.93,-11.54"/>
<polygon fill="midnightblue" stroke="midnightblue" points="849.96,-8.04 839.8,-11.02 849.6,-15.03 849.96,-8.04"/>
</g>
<!-- Node24&#45;&gt;Node22 -->
<g id="edge49" class="edge">
<title>Node24&#45;&gt;Node22</title>
<path fill="none" stroke="midnightblue" d="M1033.61,-313.3C1015.5,-305.21 995.38,-293.36 982,-277 967.17,-258.87 961.12,-232.01 958.67,-214.14"/>
<polygon fill="midnightblue" stroke="midnightblue" points="962.13,-213.65 957.53,-204.11 955.18,-214.44 962.13,-213.65"/>
</g>
<!-- Node24&#45;&gt;Node25 -->
<g id="edge43" class="edge">
<title>Node24&#45;&gt;Node25</title>
<path fill="none" stroke="midnightblue" d="M1137.04,-318.73C1221.69,-306.77 1373.09,-285.38 1462.76,-272.71"/>
<polygon fill="midnightblue" stroke="midnightblue" points="1463.43,-276.15 1472.84,-271.28 1462.45,-269.22 1463.43,-276.15"/>
</g>
<!-- Node26 -->
<g id="node26" class="node">
<title>Node26</title>
<g id="a_node26"><a xlink:href="GDBase_8h.html" target="_top" xlink:title=" ">
<polygon fill="white" stroke="black" points="991,-252 991,-271 1099,-271 1099,-252 991,-252"/>
<text text-anchor="middle" x="1045" y="-259" font-family="Helvetica,sans-Serif" font-size="10.00">dolphin/gd/GDBase.h</text>
</a>
</g>
</g>
<!-- Node24&#45;&gt;Node26 -->
<g id="edge47" class="edge">
<title>Node24&#45;&gt;Node26</title>
<path fill="none" stroke="midnightblue" d="M1068.49,-313.4C1064.04,-303.76 1058.11,-290.91 1053.32,-280.54"/>
<polygon fill="midnightblue" stroke="midnightblue" points="1056.38,-278.81 1049.01,-271.19 1050.03,-281.74 1056.38,-278.81"/>
</g>
<!-- Node25&#45;&gt;Node5 -->
<g id="edge46" class="edge">
<title>Node25&#45;&gt;Node5</title>
<path fill="none" stroke="midnightblue" d="M1533.88,-246.3C1529.81,-206.13 1511.91,-92.26 1438,-56 1385.77,-30.37 991.95,-16.57 849.89,-12.39"/>
<polygon fill="midnightblue" stroke="midnightblue" points="849.81,-8.89 839.71,-12.09 849.61,-15.88 849.81,-8.89"/>
</g>
<!-- Node25&#45;&gt;Node15 -->
<g id="edge44" class="edge">
<title>Node25&#45;&gt;Node15</title>
<path fill="none" stroke="midnightblue" d="M1524.95,-246.44C1512.54,-229.53 1490.31,-200.72 1468,-179 1428.07,-140.13 1375,-101.78 1345.72,-81.6"/>
<polygon fill="midnightblue" stroke="midnightblue" points="1347.32,-78.46 1337.09,-75.71 1343.38,-84.24 1347.32,-78.46"/>
</g>
<!-- Node25&#45;&gt;Node22 -->
<g id="edge45" class="edge">
<title>Node25&#45;&gt;Node22</title>
<path fill="none" stroke="midnightblue" d="M1472.79,-251.86C1457.8,-249.86 1441.84,-247.79 1427,-246 1277.7,-227.96 1101.33,-209.87 1013.13,-201.05"/>
<polygon fill="midnightblue" stroke="midnightblue" points="1013.38,-197.55 1003.08,-200.04 1012.68,-204.52 1013.38,-197.55"/>
</g>
<!-- Node26&#45;&gt;Node5 -->
<g id="edge48" class="edge">
<title>Node26&#45;&gt;Node5</title>
<path fill="none" stroke="midnightblue" d="M1045.76,-251.77C1048.07,-218.8 1051.21,-101.45 984,-56 943.95,-28.92 889.27,-18.09 849.76,-13.79"/>
<polygon fill="midnightblue" stroke="midnightblue" points="850.1,-10.3 839.8,-12.81 849.41,-17.27 850.1,-10.3"/>
</g>
<!-- Node27&#45;&gt;Node5 -->
<g id="edge62" class="edge">
<title>Node27&#45;&gt;Node5</title>
<path fill="none" stroke="midnightblue" d="M434.26,-380.28C423.13,-338.34 389.81,-215.81 371,-179 361.9,-161.19 350.32,-161.97 344,-143 330.17,-101.51 351.54,-76.83 390,-56 450.68,-23.14 652.74,-14.25 748.21,-11.86"/>
<polygon fill="midnightblue" stroke="midnightblue" points="748.29,-15.36 758.21,-11.63 748.13,-8.36 748.29,-15.36"/>
</g>
<!-- Node27&#45;&gt;Node20 -->
<g id="edge60" class="edge">
<title>Node27&#45;&gt;Node20</title>
<path fill="none" stroke="midnightblue" d="M443.38,-380.2C460.31,-335.16 512.52,-196.29 531.23,-146.5"/>
<polygon fill="midnightblue" stroke="midnightblue" points="534.54,-147.64 534.79,-137.05 527.99,-145.18 534.54,-147.64"/>
</g>
<!-- Node28 -->
<g id="node28" class="node">
<title>Node28</title>
<g id="a_node28"><a xlink:href="J3DShapeDraw_8h.html" target="_top" xlink:title=" ">
<polygon fill="white" stroke="black" points="353,-112.5 353,-142.5 477,-142.5 477,-112.5 353,-112.5"/>
<text text-anchor="start" x="361" y="-130.5" font-family="Helvetica,sans-Serif" font-size="10.00">JSystem/J3DGraphBase</text>
<text text-anchor="middle" x="415" y="-119.5" font-family="Helvetica,sans-Serif" font-size="10.00">/J3DShapeDraw.h</text>
</a>
</g>
</g>
<!-- Node27&#45;&gt;Node28 -->
<g id="edge52" class="edge">
<title>Node27&#45;&gt;Node28</title>
<path fill="none" stroke="midnightblue" d="M436.76,-380.2C433.02,-336.89 421.77,-206.82 417.09,-152.62"/>
<polygon fill="midnightblue" stroke="midnightblue" points="420.56,-152.21 416.21,-142.55 413.59,-152.81 420.56,-152.21"/>
</g>
<!-- Node29 -->
<g id="node29" class="node">
<title>Node29</title>
<g id="a_node29"><a xlink:href="J3DShapeMtx_8h.html" target="_top" xlink:title=" ">
<polygon fill="white" stroke="black" points="532,-313.5 532,-343.5 656,-343.5 656,-313.5 532,-313.5"/>
<text text-anchor="start" x="540" y="-331.5" font-family="Helvetica,sans-Serif" font-size="10.00">JSystem/J3DGraphBase</text>
<text text-anchor="middle" x="594" y="-320.5" font-family="Helvetica,sans-Serif" font-size="10.00">/J3DShapeMtx.h</text>
</a>
</g>
</g>
<!-- Node27&#45;&gt;Node29 -->
<g id="edge54" class="edge">
<title>Node27&#45;&gt;Node29</title>
<path fill="none" stroke="midnightblue" d="M471.85,-380.4C495.05,-370.73 526.03,-357.82 550.98,-347.43"/>
<polygon fill="midnightblue" stroke="midnightblue" points="552.33,-350.65 560.22,-343.58 549.64,-344.19 552.33,-350.65"/>
</g>
<!-- Node27&#45;&gt;Node30 -->
<g id="edge61" class="edge">
<title>Node27&#45;&gt;Node30</title>
<path fill="none" stroke="midnightblue" d="M500.21,-385.97C546.71,-378.33 611.24,-365.04 665,-344 710.45,-326.21 758.61,-295.09 784.93,-276.88"/>
<polygon fill="midnightblue" stroke="midnightblue" points="787.1,-279.63 793.28,-271.03 783.09,-273.9 787.1,-279.63"/>
</g>
<!-- Node28&#45;&gt;Node5 -->
<g id="edge53" class="edge">
<title>Node28&#45;&gt;Node5</title>
<path fill="none" stroke="midnightblue" d="M405.61,-112.23C396.58,-96.53 386.16,-71.49 400,-56 422.82,-30.46 645.69,-17.62 748.06,-13.02"/>
<polygon fill="midnightblue" stroke="midnightblue" points="748.33,-16.52 758.16,-12.58 748.02,-9.52 748.33,-16.52"/>
</g>
<!-- Node29&#45;&gt;Node5 -->
<g id="edge59" class="edge">
<title>Node29&#45;&gt;Node5</title>
<path fill="none" stroke="midnightblue" d="M603.97,-313.21C619.32,-289.78 647,-241.19 647,-195.5 647,-195.5 647,-195.5 647,-126.5 647,-93.4 647.71,-79.52 671,-56 691.57,-35.22 722.29,-24.01 748.48,-17.98"/>
<polygon fill="midnightblue" stroke="midnightblue" points="749.21,-21.4 758.27,-15.91 747.76,-14.55 749.21,-21.4"/>
</g>
<!-- Node29&#45;&gt;Node30 -->
<g id="edge55" class="edge">
<title>Node29&#45;&gt;Node30</title>
<path fill="none" stroke="midnightblue" d="M639.52,-313.48C677.84,-301.67 731.96,-285 767.74,-273.98"/>
<polygon fill="midnightblue" stroke="midnightblue" points="768.79,-277.32 777.31,-271.03 766.73,-270.63 768.79,-277.32"/>
</g>
<!-- Node30&#45;&gt;Node5 -->
<g id="edge58" class="edge">
<title>Node30&#45;&gt;Node5</title>
<path fill="none" stroke="midnightblue" d="M800.41,-251.87C795.47,-242.05 787.93,-225.38 785,-210 772.17,-142.77 774.72,-123.67 785,-56 786.37,-47 789.19,-37.33 791.95,-29.26"/>
<polygon fill="midnightblue" stroke="midnightblue" points="795.27,-30.37 795.4,-19.78 788.69,-27.98 795.27,-30.37"/>
</g>
<!-- Node30&#45;&gt;Node13 -->
<g id="edge57" class="edge">
<title>Node30&#45;&gt;Node13</title>
<path fill="none" stroke="midnightblue" d="M808.1,-251.94C818.69,-222.66 853.6,-126.15 868.34,-85.41"/>
<polygon fill="midnightblue" stroke="midnightblue" points="871.67,-86.5 871.78,-75.91 865.08,-84.12 871.67,-86.5"/>
</g>
<!-- Node30&#45;&gt;Node22 -->
<g id="edge56" class="edge">
<title>Node30&#45;&gt;Node22</title>
<path fill="none" stroke="midnightblue" d="M825.18,-251.87C851.3,-240.7 897.03,-221.15 927.16,-208.26"/>
<polygon fill="midnightblue" stroke="midnightblue" points="928.91,-211.32 936.73,-204.17 926.16,-204.88 928.91,-211.32"/>
</g>
<!-- Node31&#45;&gt;Node5 -->
<g id="edge69" class="edge">
<title>Node31&#45;&gt;Node5</title>
<path fill="none" stroke="midnightblue" d="M783.57,-313.4C769.04,-304.8 752.3,-292.47 742,-277 721.39,-246.04 723,-232.69 723,-195.5 723,-195.5 723,-195.5 723,-126.5 723,-84.81 757.98,-46.53 780.48,-26.22"/>
<polygon fill="midnightblue" stroke="midnightblue" points="782.86,-28.78 788.11,-19.58 778.27,-23.5 782.86,-28.78"/>
</g>
<!-- Node31&#45;&gt;Node30 -->
<g id="edge68" class="edge">
<title>Node31&#45;&gt;Node30</title>
<path fill="none" stroke="midnightblue" d="M810.48,-313.4C809.47,-303.96 808.12,-291.45 807.01,-281.19"/>
<polygon fill="midnightblue" stroke="midnightblue" points="810.49,-280.76 805.94,-271.19 803.53,-281.51 810.49,-280.76"/>
</g>
<!-- Node32&#45;&gt;Node4 -->
<g id="edge80" class="edge">
<title>Node32&#45;&gt;Node4</title>
<path fill="none" stroke="midnightblue" d="M241.69,-447.4C229.33,-438.37 213.1,-426.51 199.41,-416.52"/>
<polygon fill="midnightblue" stroke="midnightblue" points="201.41,-413.65 191.27,-410.58 197.29,-419.3 201.41,-413.65"/>
</g>
<!-- Node32&#45;&gt;Node5 -->
<g id="edge81" class="edge">
<title>Node32&#45;&gt;Node5</title>
<path fill="none" stroke="midnightblue" d="M258.94,-447.21C252.34,-401.17 231.98,-257 229,-210 228.13,-196.25 225.68,-192.37 229,-179 243.88,-118.99 242.51,-90.23 294,-56 331.26,-31.23 627.89,-17.42 748.39,-12.79"/>
<polygon fill="midnightblue" stroke="midnightblue" points="748.6,-16.28 758.46,-12.4 748.34,-9.28 748.6,-16.28"/>
</g>
<!-- Node32&#45;&gt;Node27 -->
<g id="edge76" class="edge">
<title>Node32&#45;&gt;Node27</title>
<path fill="none" stroke="midnightblue" d="M299.41,-447.4C325.96,-437.64 361.5,-424.59 389.93,-414.15"/>
<polygon fill="midnightblue" stroke="midnightblue" points="391.49,-417.31 399.67,-410.58 389.07,-410.74 391.49,-417.31"/>
</g>
<!-- Node32&#45;&gt;Node33 -->
<g id="edge77" class="edge">
<title>Node32&#45;&gt;Node33</title>
<path fill="none" stroke="midnightblue" d="M268.3,-447.32C273.04,-437.41 278.9,-423.73 282,-411 298.51,-343.15 300.53,-260.12 300.4,-219.8"/>
<polygon fill="midnightblue" stroke="midnightblue" points="303.9,-219.58 300.32,-209.61 296.9,-219.63 303.9,-219.58"/>
</g>
<!-- Node33&#45;&gt;Node5 -->
<g id="edge79" class="edge">
<title>Node33&#45;&gt;Node5</title>
<path fill="none" stroke="midnightblue" d="M295.99,-179.46C288.98,-151.61 278.18,-89.22 311,-56 341.29,-25.34 629.38,-15.02 748.17,-12.05"/>
<polygon fill="midnightblue" stroke="midnightblue" points="748.54,-15.55 758.45,-11.8 748.37,-8.55 748.54,-15.55"/>
</g>
<!-- Node33&#45;&gt;Node20 -->
<g id="edge78" class="edge">
<title>Node33&#45;&gt;Node20</title>
<path fill="none" stroke="midnightblue" d="M352.14,-179.45C389.44,-169.37 440.83,-155.43 486,-143 489.81,-141.95 493.77,-140.86 497.73,-139.76"/>
<polygon fill="midnightblue" stroke="midnightblue" points="498.79,-143.1 507.49,-137.05 496.92,-136.35 498.79,-143.1"/>
</g>
</g>
</svg>
