<?xml version="1.0" encoding="UTF-8" standalone="no"?>
<!DOCTYPE svg PUBLIC "-//W3C//DTD SVG 1.1//EN"
 "http://www.w3.org/Graphics/SVG/1.1/DTD/svg11.dtd">
<!-- Generated by graphviz version 2.44.0 ()
 -->
<!-- Title: include/JSystem/J3DGraphBase/J3DMatBlock.h Pages: 1 -->
<!--zoomable 419 -->
<svg id="main" version="1.1" xmlns="http://www.w3.org/2000/svg" xmlns:xlink="http://www.w3.org/1999/xlink" xml:space="preserve" onload="init(evt)">
<style type="text/css"><![CDATA[
.edge:hover path { stroke: red; }
.edge:hover polygon { stroke: red; fill: red; }
]]></style>
<script type="text/javascript"><![CDATA[
var edges = document.getElementsByTagName('g');
if (edges && edges.length) {
  for (var i=0;i<edges.length;i++) {
    if (edges[i].id.substr(0,4)=='edge') {
      edges[i].setAttribute('class','edge');
    }
  }
}
]]></script>
        <defs>
                <circle id="rim" cx="0" cy="0" r="7"/>
                <circle id="rim2" cx="0" cy="0" r="3.5"/>
                <g id="zoomPlus">
                        <use xlink:href="#rim" fill="#404040">
                                <set attributeName="fill" to="#808080" begin="zoomplus.mouseover" end="zoomplus.mouseout"/>
                        </use>
                        <path d="M-4,0h8M0,-4v8" fill="none" stroke="white" stroke-width="1.5" pointer-events="none"/>
                </g>
                <g id="zoomMin">
                        <use xlink:href="#rim" fill="#404040">
                                <set attributeName="fill" to="#808080" begin="zoomminus.mouseover" end="zoomminus.mouseout"/>
                        </use>
                        <path d="M-4,0h8" fill="none" stroke="white" stroke-width="1.5" pointer-events="none"/>
                </g>
                <g id="dirArrow">
                        <path fill="none" stroke="white" stroke-width="1.5" d="M0,-3.0v7 M-2.5,-0.5L0,-3.0L2.5,-0.5"/>
                </g>
               <g id="resetDef">
                       <use xlink:href="#rim2" fill="#404040">
                               <set attributeName="fill" to="#808080" begin="reset.mouseover" end="reset.mouseout"/>
                       </use>
               </g>
        </defs>

<script type="text/javascript">
var viewWidth = 849;
var viewHeight = 419;
var sectionId = 'dynsection-0';
</script>
<script xlink:href="svgpan.js"/>
<svg id="graph" class="graph">
<g id="viewport">
<title>include/JSystem/J3DGraphBase/J3DMatBlock.h</title>
<polygon fill="white" stroke="transparent" points="-4,4 -4,-415 845,-415 845,4 -4,4"/>
<!-- Node1 -->
<g id="node1" class="node">
<title>Node1</title>
<g id="a_node1"><a xlink:title=" ">
<polygon fill="#bfbfbf" stroke="black" points="335.5,-380.5 335.5,-410.5 470.5,-410.5 470.5,-380.5 335.5,-380.5"/>
<text text-anchor="start" x="343.5" y="-398.5" font-family="Helvetica,sans-Serif" font-size="10.00">include/JSystem/J3DGraph</text>
<text text-anchor="middle" x="403" y="-387.5" font-family="Helvetica,sans-Serif" font-size="10.00">Base/J3DMatBlock.h</text>
</a>
</g>
</g>
<!-- Node2 -->
<g id="node2" class="node">
<title>Node2</title>
<g id="a_node2"><a xlink:href="J3DStruct_8h.html" target="_top" xlink:title=" ">
<polygon fill="white" stroke="black" points="119,-179.5 119,-209.5 243,-209.5 243,-179.5 119,-179.5"/>
<text text-anchor="start" x="127" y="-197.5" font-family="Helvetica,sans-Serif" font-size="10.00">JSystem/J3DGraphBase</text>
<text text-anchor="middle" x="181" y="-186.5" font-family="Helvetica,sans-Serif" font-size="10.00">/J3DStruct.h</text>
</a>
</g>
</g>
<!-- Node1&#45;&gt;Node2 -->
<g id="edge1" class="edge">
<title>Node1&#45;&gt;Node2</title>
<path fill="none" stroke="midnightblue" d="M387.03,-380.19C348.39,-345.55 249.69,-257.07 204.38,-216.46"/>
<polygon fill="midnightblue" stroke="midnightblue" points="206.6,-213.75 196.82,-209.68 201.93,-218.96 206.6,-213.75"/>
</g>
<!-- Node5 -->
<g id="node5" class="node">
<title>Node5</title>
<g id="a_node5"><a xlink:href="types_8h.html" target="_top" xlink:title=" ">
<polygon fill="white" stroke="black" points="371.5,-0.5 371.5,-19.5 452.5,-19.5 452.5,-0.5 371.5,-0.5"/>
<text text-anchor="middle" x="412" y="-7.5" font-family="Helvetica,sans-Serif" font-size="10.00">dolphin/types.h</text>
</a>
</g>
</g>
<!-- Node1&#45;&gt;Node5 -->
<g id="edge31" class="edge">
<title>Node1&#45;&gt;Node5</title>
<path fill="none" stroke="midnightblue" d="M335.09,-386.47C220.24,-370.97 0,-332.17 0,-262.5 0,-262.5 0,-262.5 0,-126.5 0,-84.48 25.82,-75.59 63,-56 113.65,-29.31 277.22,-17.58 361.2,-13.21"/>
<polygon fill="midnightblue" stroke="midnightblue" points="361.47,-16.7 371.28,-12.7 361.12,-9.71 361.47,-16.7"/>
</g>
<!-- Node7 -->
<g id="node7" class="node">
<title>Node7</title>
<g id="a_node7"><a xlink:href="GXTexture_8h.html" target="_top" xlink:title=" ">
<polygon fill="white" stroke="black" points="353.5,-56.5 353.5,-75.5 470.5,-75.5 470.5,-56.5 353.5,-56.5"/>
<text text-anchor="middle" x="412" y="-63.5" font-family="Helvetica,sans-Serif" font-size="10.00">dolphin/gx/GXTexture.h</text>
</a>
</g>
</g>
<!-- Node1&#45;&gt;Node7 -->
<g id="edge29" class="edge">
<title>Node1&#45;&gt;Node7</title>
<path fill="none" stroke="midnightblue" d="M405.08,-380.4C409.92,-346.03 421.38,-255.12 419,-179 417.97,-146.17 415.26,-108 413.53,-85.77"/>
<polygon fill="midnightblue" stroke="midnightblue" points="417.01,-85.39 412.73,-75.7 410.04,-85.95 417.01,-85.39"/>
</g>
<!-- Node8 -->
<g id="node8" class="node">
<title>Node8</title>
<g id="a_node8"><a xlink:href="J3DTevs_8h.html" target="_top" xlink:title=" ">
<polygon fill="white" stroke="black" points="717,-246.5 717,-276.5 841,-276.5 841,-246.5 717,-246.5"/>
<text text-anchor="start" x="725" y="-264.5" font-family="Helvetica,sans-Serif" font-size="10.00">JSystem/J3DGraphBase</text>
<text text-anchor="middle" x="779" y="-253.5" font-family="Helvetica,sans-Serif" font-size="10.00">/J3DTevs.h</text>
</a>
</g>
</g>
<!-- Node1&#45;&gt;Node8 -->
<g id="edge10" class="edge">
<title>Node1&#45;&gt;Node8</title>
<path fill="none" stroke="midnightblue" d="M460.22,-380.47C496.11,-371.2 543.16,-358.17 584,-344 638.81,-324.98 700.29,-298.37 739.3,-280.8"/>
<polygon fill="midnightblue" stroke="midnightblue" points="741.05,-283.85 748.72,-276.53 738.17,-277.47 741.05,-283.85"/>
</g>
<!-- Node9 -->
<g id="node9" class="node">
<title>Node9</title>
<g id="a_node9"><a xlink:href="J3DTexture_8h.html" target="_top" xlink:title=" ">
<polygon fill="white" stroke="black" points="451,-313.5 451,-343.5 575,-343.5 575,-313.5 451,-313.5"/>
<text text-anchor="start" x="459" y="-331.5" font-family="Helvetica,sans-Serif" font-size="10.00">JSystem/J3DGraphBase</text>
<text text-anchor="middle" x="513" y="-320.5" font-family="Helvetica,sans-Serif" font-size="10.00">/J3DTexture.h</text>
</a>
</g>
</g>
<!-- Node1&#45;&gt;Node9 -->
<g id="edge12" class="edge">
<title>Node1&#45;&gt;Node9</title>
<path fill="none" stroke="midnightblue" d="M426.87,-380.4C442.58,-371.11 463.35,-358.84 480.55,-348.67"/>
<polygon fill="midnightblue" stroke="midnightblue" points="482.35,-351.68 489.18,-343.58 478.79,-345.65 482.35,-351.68"/>
</g>
<!-- Node14 -->
<g id="node14" class="node">
<title>Node14</title>
<g id="a_node14"><a xlink:href="mtx_8h.html" target="_top" xlink:title=" ">
<polygon fill="white" stroke="black" points="318,-185 318,-204 410,-204 410,-185 318,-185"/>
<text text-anchor="middle" x="364" y="-192" font-family="Helvetica,sans-Serif" font-size="10.00">dolphin/mtx/mtx.h</text>
</a>
</g>
</g>
<!-- Node1&#45;&gt;Node14 -->
<g id="edge30" class="edge">
<title>Node1&#45;&gt;Node14</title>
<path fill="none" stroke="midnightblue" d="M400.2,-380.19C393.28,-344.91 375.42,-253.78 367.68,-214.25"/>
<polygon fill="midnightblue" stroke="midnightblue" points="371.09,-213.5 365.74,-204.36 364.23,-214.85 371.09,-213.5"/>
</g>
<!-- Node3 -->
<g id="node3" class="node">
<title>Node3</title>
<g id="a_node3"><a xlink:href="c__xyz_8h.html" target="_top" xlink:title=" ">
<polygon fill="white" stroke="black" points="66,-112.5 66,-142.5 182,-142.5 182,-112.5 66,-112.5"/>
<text text-anchor="start" x="74" y="-130.5" font-family="Helvetica,sans-Serif" font-size="10.00">SSystem/SComponent</text>
<text text-anchor="middle" x="124" y="-119.5" font-family="Helvetica,sans-Serif" font-size="10.00">/c_xyz.h</text>
</a>
</g>
</g>
<!-- Node2&#45;&gt;Node3 -->
<g id="edge2" class="edge">
<title>Node2&#45;&gt;Node3</title>
<path fill="none" stroke="midnightblue" d="M168.63,-179.4C161.16,-170.88 151.49,-159.85 143.06,-150.23"/>
<polygon fill="midnightblue" stroke="midnightblue" points="145.57,-147.79 136.34,-142.58 140.31,-152.4 145.57,-147.79"/>
</g>
<!-- Node2&#45;&gt;Node5 -->
<g id="edge9" class="edge">
<title>Node2&#45;&gt;Node5</title>
<path fill="none" stroke="midnightblue" d="M118.96,-183.37C95.49,-176.19 71.07,-163.93 57,-143 33.92,-108.68 55.6,-78.96 90,-56 133.36,-27.06 281.78,-16.45 361.08,-12.79"/>
<polygon fill="midnightblue" stroke="midnightblue" points="361.49,-16.28 371.33,-12.34 361.18,-9.28 361.49,-16.28"/>
</g>
<!-- Node2&#45;&gt;Node7 -->
<g id="edge7" class="edge">
<title>Node2&#45;&gt;Node7</title>
<path fill="none" stroke="midnightblue" d="M243.12,-182.02C274.46,-174.3 312.07,-161.98 342,-143 366.41,-127.52 387.83,-101.41 400.35,-84.19"/>
<polygon fill="midnightblue" stroke="midnightblue" points="403.46,-85.85 406.35,-75.66 397.73,-81.83 403.46,-85.85"/>
</g>
<!-- Node4 -->
<g id="node4" class="node">
<title>Node4</title>
<g id="a_node4"><a xlink:href="vec_8h.html" target="_top" xlink:title=" ">
<polygon fill="white" stroke="black" points="167,-56.5 167,-75.5 259,-75.5 259,-56.5 167,-56.5"/>
<text text-anchor="middle" x="213" y="-63.5" font-family="Helvetica,sans-Serif" font-size="10.00">dolphin/mtx/vec.h</text>
</a>
</g>
</g>
<!-- Node3&#45;&gt;Node4 -->
<g id="edge3" class="edge">
<title>Node3&#45;&gt;Node4</title>
<path fill="none" stroke="midnightblue" d="M145.09,-112.4C159.09,-103.04 177.41,-90.79 191.49,-81.38"/>
<polygon fill="midnightblue" stroke="midnightblue" points="193.68,-84.13 200.05,-75.66 189.79,-78.31 193.68,-84.13"/>
</g>
<!-- Node6 -->
<g id="node6" class="node">
<title>Node6</title>
<g id="a_node6"><a xlink:href="global_8h.html" target="_top" xlink:title=" ">
<polygon fill="white" stroke="black" points="99,-56.5 99,-75.5 149,-75.5 149,-56.5 99,-56.5"/>
<text text-anchor="middle" x="124" y="-63.5" font-family="Helvetica,sans-Serif" font-size="10.00">global.h</text>
</a>
</g>
</g>
<!-- Node3&#45;&gt;Node6 -->
<g id="edge5" class="edge">
<title>Node3&#45;&gt;Node6</title>
<path fill="none" stroke="midnightblue" d="M124,-112.4C124,-104.47 124,-94.46 124,-85.86"/>
<polygon fill="midnightblue" stroke="midnightblue" points="127.5,-85.66 124,-75.66 120.5,-85.66 127.5,-85.66"/>
</g>
<!-- Node4&#45;&gt;Node5 -->
<g id="edge4" class="edge">
<title>Node4&#45;&gt;Node5</title>
<path fill="none" stroke="midnightblue" d="M244.53,-56.44C278.59,-47.2 333.01,-32.44 370.52,-22.26"/>
<polygon fill="midnightblue" stroke="midnightblue" points="371.88,-25.51 380.62,-19.52 370.05,-18.76 371.88,-25.51"/>
</g>
<!-- Node6&#45;&gt;Node5 -->
<g id="edge6" class="edge">
<title>Node6&#45;&gt;Node5</title>
<path fill="none" stroke="midnightblue" d="M149.19,-58.08C152.15,-57.34 155.14,-56.63 158,-56 227.96,-40.57 309.68,-26.85 361.13,-18.73"/>
<polygon fill="midnightblue" stroke="midnightblue" points="361.98,-22.14 371.32,-17.13 360.9,-15.23 361.98,-22.14"/>
</g>
<!-- Node7&#45;&gt;Node5 -->
<g id="edge8" class="edge">
<title>Node7&#45;&gt;Node5</title>
<path fill="none" stroke="midnightblue" d="M412,-56.08C412,-49.01 412,-38.86 412,-29.99"/>
<polygon fill="midnightblue" stroke="midnightblue" points="415.5,-29.75 412,-19.75 408.5,-29.75 415.5,-29.75"/>
</g>
<!-- Node8&#45;&gt;Node5 -->
<g id="edge11" class="edge">
<title>Node8&#45;&gt;Node5</title>
<path fill="none" stroke="midnightblue" d="M781.5,-246.31C787.17,-209.02 796.66,-107.6 743,-56 703.96,-18.46 545.72,-11.75 462.97,-10.86"/>
<polygon fill="midnightblue" stroke="midnightblue" points="462.81,-7.36 452.79,-10.77 462.76,-14.36 462.81,-7.36"/>
</g>
<!-- Node9&#45;&gt;Node5 -->
<g id="edge28" class="edge">
<title>Node9&#45;&gt;Node5</title>
<path fill="none" stroke="midnightblue" d="M510.5,-313.29C506.47,-289.16 499,-238.59 499,-195.5 499,-195.5 499,-195.5 499,-126.5 499,-93.93 498.13,-82.36 479,-56 469.24,-42.55 454.13,-31.9 440.74,-24.35"/>
<polygon fill="midnightblue" stroke="midnightblue" points="442.3,-21.21 431.82,-19.62 439.02,-27.39 442.3,-21.21"/>
</g>
<!-- Node10 -->
<g id="node10" class="node">
<title>Node10</title>
<g id="a_node10"><a xlink:href="JUTTexture_8h.html" target="_top" xlink:title=" ">
<polygon fill="white" stroke="black" points="526.5,-252 526.5,-271 675.5,-271 675.5,-252 526.5,-252"/>
<text text-anchor="middle" x="601" y="-259" font-family="Helvetica,sans-Serif" font-size="10.00">JSystem/JUtility/JUTTexture.h</text>
</a>
</g>
</g>
<!-- Node9&#45;&gt;Node10 -->
<g id="edge13" class="edge">
<title>Node9&#45;&gt;Node10</title>
<path fill="none" stroke="midnightblue" d="M532.09,-313.4C546.58,-302.7 566.43,-288.03 581.11,-277.19"/>
<polygon fill="midnightblue" stroke="midnightblue" points="583.52,-279.76 589.48,-271.01 579.36,-274.13 583.52,-279.76"/>
</g>
<!-- Node9&#45;&gt;Node14 -->
<g id="edge22" class="edge">
<title>Node9&#45;&gt;Node14</title>
<path fill="none" stroke="midnightblue" d="M497.05,-313.37C468.9,-288.43 410.62,-236.8 381.44,-210.95"/>
<polygon fill="midnightblue" stroke="midnightblue" points="383.51,-208.11 373.7,-204.1 378.87,-213.35 383.51,-208.11"/>
</g>
<!-- Node10&#45;&gt;Node5 -->
<g id="edge21" class="edge">
<title>Node10&#45;&gt;Node5</title>
<path fill="none" stroke="midnightblue" d="M590.94,-251.83C580.72,-242.48 565.12,-226.69 556,-210 521.93,-147.64 559.43,-109.8 513,-56 499.33,-40.16 478.99,-29.65 460.14,-22.8"/>
<polygon fill="midnightblue" stroke="midnightblue" points="461.05,-19.42 450.46,-19.55 458.82,-26.05 461.05,-19.42"/>
</g>
<!-- Node11 -->
<g id="node11" class="node">
<title>Node11</title>
<g id="a_node11"><a xlink:href="JUTPalette_8h.html" target="_top" xlink:title=" ">
<polygon fill="white" stroke="black" points="565,-185 565,-204 713,-204 713,-185 565,-185"/>
<text text-anchor="middle" x="639" y="-192" font-family="Helvetica,sans-Serif" font-size="10.00">JSystem/JUtility/JUTPalette.h</text>
</a>
</g>
</g>
<!-- Node10&#45;&gt;Node11 -->
<g id="edge14" class="edge">
<title>Node10&#45;&gt;Node11</title>
<path fill="none" stroke="midnightblue" d="M606.12,-251.73C611.94,-241.79 621.56,-225.34 628.89,-212.79"/>
<polygon fill="midnightblue" stroke="midnightblue" points="631.93,-214.53 633.96,-204.13 625.89,-210.99 631.93,-214.53"/>
</g>
<!-- Node11&#45;&gt;Node5 -->
<g id="edge20" class="edge">
<title>Node11&#45;&gt;Node5</title>
<path fill="none" stroke="midnightblue" d="M651.79,-184.81C683.75,-162.1 761.85,-99.7 724,-56 690.82,-17.7 542.38,-11.26 462.8,-10.63"/>
<polygon fill="midnightblue" stroke="midnightblue" points="462.53,-7.13 452.51,-10.58 462.49,-14.13 462.53,-7.13"/>
</g>
<!-- Node12 -->
<g id="node12" class="node">
<title>Node12</title>
<g id="a_node12"><a xlink:href="GX_8h.html" target="_top" xlink:title=" ">
<polygon fill="white" stroke="black" points="593.5,-118 593.5,-137 678.5,-137 678.5,-118 593.5,-118"/>
<text text-anchor="middle" x="636" y="-125" font-family="Helvetica,sans-Serif" font-size="10.00">dolphin/gx/GX.h</text>
</a>
</g>
</g>
<!-- Node11&#45;&gt;Node12 -->
<g id="edge15" class="edge">
<title>Node11&#45;&gt;Node12</title>
<path fill="none" stroke="midnightblue" d="M638.6,-184.73C638.15,-175.18 637.44,-159.62 636.87,-147.28"/>
<polygon fill="midnightblue" stroke="midnightblue" points="640.36,-146.96 636.4,-137.13 633.36,-147.28 640.36,-146.96"/>
</g>
<!-- Node12&#45;&gt;Node5 -->
<g id="edge19" class="edge">
<title>Node12&#45;&gt;Node5</title>
<path fill="none" stroke="midnightblue" d="M656.44,-117.82C684,-104.94 727.37,-79.72 707,-56 676.13,-20.06 538.79,-12.51 462.87,-11.12"/>
<polygon fill="midnightblue" stroke="midnightblue" points="462.64,-7.62 452.59,-10.96 462.53,-14.62 462.64,-7.62"/>
</g>
<!-- Node12&#45;&gt;Node7 -->
<g id="edge18" class="edge">
<title>Node12&#45;&gt;Node7</title>
<path fill="none" stroke="midnightblue" d="M603.91,-117.98C564.4,-107.48 497.22,-89.64 453.74,-78.09"/>
<polygon fill="midnightblue" stroke="midnightblue" points="454.6,-74.69 444.03,-75.51 452.8,-81.46 454.6,-74.69"/>
</g>
<!-- Node13 -->
<g id="node13" class="node">
<title>Node13</title>
<g id="a_node13"><a xlink:href="GXDisplayList_8h.html" target="_top" xlink:title=" ">
<polygon fill="white" stroke="black" points="565.5,-56.5 565.5,-75.5 698.5,-75.5 698.5,-56.5 565.5,-56.5"/>
<text text-anchor="middle" x="632" y="-63.5" font-family="Helvetica,sans-Serif" font-size="10.00">dolphin/gx/GXDisplayList.h</text>
</a>
</g>
</g>
<!-- Node12&#45;&gt;Node13 -->
<g id="edge16" class="edge">
<title>Node12&#45;&gt;Node13</title>
<path fill="none" stroke="midnightblue" d="M635.43,-117.98C634.86,-109.58 633.98,-96.48 633.25,-85.66"/>
<polygon fill="midnightblue" stroke="midnightblue" points="636.74,-85.25 632.57,-75.51 629.75,-85.72 636.74,-85.25"/>
</g>
<!-- Node13&#45;&gt;Node5 -->
<g id="edge17" class="edge">
<title>Node13&#45;&gt;Node5</title>
<path fill="none" stroke="midnightblue" d="M597.14,-56.44C559.08,-47.1 498.04,-32.12 456.54,-21.93"/>
<polygon fill="midnightblue" stroke="midnightblue" points="457.24,-18.5 446.7,-19.52 455.57,-25.3 457.24,-18.5"/>
</g>
<!-- Node14&#45;&gt;Node4 -->
<g id="edge26" class="edge">
<title>Node14&#45;&gt;Node4</title>
<path fill="none" stroke="midnightblue" d="M317.77,-187.69C288.17,-181.54 251.27,-168.9 229,-143 215.43,-127.22 212.41,-102.83 212.15,-85.96"/>
<polygon fill="midnightblue" stroke="midnightblue" points="215.65,-85.73 212.31,-75.68 208.65,-85.62 215.65,-85.73"/>
</g>
<!-- Node14&#45;&gt;Node5 -->
<g id="edge27" class="edge">
<title>Node14&#45;&gt;Node5</title>
<path fill="none" stroke="midnightblue" d="M361.36,-184.71C353.56,-158.04 331.9,-78.52 344,-56 351.62,-41.82 365.9,-31.35 379.41,-24.1"/>
<polygon fill="midnightblue" stroke="midnightblue" points="381.13,-27.16 388.55,-19.59 378.03,-20.88 381.13,-27.16"/>
</g>
<!-- Node15 -->
<g id="node15" class="node">
<title>Node15</title>
<g id="a_node15"><a xlink:href="quat_8h.html" target="_top" xlink:title=" ">
<polygon fill="white" stroke="black" points="238.5,-118 238.5,-137 333.5,-137 333.5,-118 238.5,-118"/>
<text text-anchor="middle" x="286" y="-125" font-family="Helvetica,sans-Serif" font-size="10.00">dolphin/mtx/quat.h</text>
</a>
</g>
</g>
<!-- Node14&#45;&gt;Node15 -->
<g id="edge23" class="edge">
<title>Node14&#45;&gt;Node15</title>
<path fill="none" stroke="midnightblue" d="M353.48,-184.73C340.85,-174.21 319.46,-156.38 304.14,-143.62"/>
<polygon fill="midnightblue" stroke="midnightblue" points="306.28,-140.84 296.35,-137.13 301.79,-146.22 306.28,-140.84"/>
</g>
<!-- Node15&#45;&gt;Node4 -->
<g id="edge24" class="edge">
<title>Node15&#45;&gt;Node4</title>
<path fill="none" stroke="midnightblue" d="M275.54,-117.98C264.05,-108.61 245.37,-93.38 231.41,-82.01"/>
<polygon fill="midnightblue" stroke="midnightblue" points="233.4,-79.11 223.44,-75.51 228.98,-84.54 233.4,-79.11"/>
</g>
<!-- Node15&#45;&gt;Node5 -->
<g id="edge25" class="edge">
<title>Node15&#45;&gt;Node5</title>
<path fill="none" stroke="midnightblue" d="M286.91,-117.55C288.84,-102.92 294.6,-73.74 311,-56 325.6,-40.2 346.78,-29.61 365.97,-22.7"/>
<polygon fill="midnightblue" stroke="midnightblue" points="367.12,-26 375.49,-19.5 364.89,-19.37 367.12,-26"/>
</g>
</g>
</svg>
        <g id="navigator" transform="translate(0 0)" fill="#404254">
                <rect fill="#f2f5e9" fill-opacity="0.5" stroke="#606060" stroke-width=".5" x="0" y="0" width="60" height="60"/>
                <use id="zoomplus" xlink:href="#zoomPlus" x="17" y="9" onmousedown="handleZoom(evt,'in')"/>
                <use id="zoomminus" xlink:href="#zoomMin" x="42" y="9" onmousedown="handleZoom(evt,'out')"/>
                <use id="reset" xlink:href="#resetDef" x="30" y="36" onmousedown="handleReset()"/>
                <g id="arrowUp" xlink:href="#dirArrow" transform="translate(30 24)" onmousedown="handlePan(0,-1)">
                  <use xlink:href="#rim" fill="#404040">
                        <set attributeName="fill" to="#808080" begin="arrowUp.mouseover" end="arrowUp.mouseout"/>
                  </use>
                  <path fill="none" stroke="white" stroke-width="1.5" d="M0,-3.0v7 M-2.5,-0.5L0,-3.0L2.5,-0.5"/>
                </g>
                <g id="arrowRight" xlink:href="#dirArrow" transform="rotate(90) translate(36 -43)" onmousedown="handlePan(1,0)">
                  <use xlink:href="#rim" fill="#404040">
                        <set attributeName="fill" to="#808080" begin="arrowRight.mouseover" end="arrowRight.mouseout"/>
                  </use>
                  <path fill="none" stroke="white" stroke-width="1.5" d="M0,-3.0v7 M-2.5,-0.5L0,-3.0L2.5,-0.5"/>
                </g>
                <g id="arrowDown" xlink:href="#dirArrow" transform="rotate(180) translate(-30 -48)" onmousedown="handlePan(0,1)">
                  <use xlink:href="#rim" fill="#404040">
                        <set attributeName="fill" to="#808080" begin="arrowDown.mouseover" end="arrowDown.mouseout"/>
                  </use>
                  <path fill="none" stroke="white" stroke-width="1.5" d="M0,-3.0v7 M-2.5,-0.5L0,-3.0L2.5,-0.5"/>
                </g>
                <g id="arrowLeft" xlink:href="#dirArrow" transform="rotate(270) translate(-36 17)" onmousedown="handlePan(-1,0)">
                  <use xlink:href="#rim" fill="#404040">
                        <set attributeName="fill" to="#808080" begin="arrowLeft.mouseover" end="arrowLeft.mouseout"/>
                  </use>
                  <path fill="none" stroke="white" stroke-width="1.5" d="M0,-3.0v7 M-2.5,-0.5L0,-3.0L2.5,-0.5"/>
                </g>
        </g>
        <svg viewBox="0 0 15 15" width="100%" height="30px" preserveAspectRatio="xMaxYMin meet">
         <g id="arrow_out" transform="scale(0.3 0.3)">
          <a xlink:href="J3DMatBlock_8h__incl_org.svg" target="_base">
           <rect id="button" ry="5" rx="5" y="6" x="6" height="38" width="38"
                fill="#f2f5e9" fill-opacity="0.5" stroke="#606060" stroke-width="1.0"/>
           <path id="arrow"
             d="M 11.500037,31.436501 C 11.940474,20.09759 22.043105,11.32322 32.158766,21.979434 L 37.068811,17.246167 C 37.068811,17.246167 37.088388,32 37.088388,32 L 22.160133,31.978069 C 22.160133,31.978069 26.997745,27.140456 26.997745,27.140456 C 18.528582,18.264221 13.291696,25.230495 11.500037,31.436501 z"
             style="fill:#404040;"/>
          </a>
         </g>
        </svg>
</svg>
