<?xml version="1.0" encoding="UTF-8" standalone="no"?>
<!DOCTYPE svg PUBLIC "-//W3C//DTD SVG 1.1//EN"
 "http://www.w3.org/Graphics/SVG/1.1/DTD/svg11.dtd">
<!-- Generated by graphviz version 2.44.0 ()
 -->
<!-- Title: libs/JSystem/J3DGraphBase/J3DSys.cpp Pages: 1 -->
<svg width="2658pt" height="341pt"
 viewBox="0.00 0.00 2657.50 341.00" xmlns="http://www.w3.org/2000/svg" xmlns:xlink="http://www.w3.org/1999/xlink">
<g id="graph0" class="graph" transform="scale(1 1) rotate(0) translate(4 337)">
<title>libs/JSystem/J3DGraphBase/J3DSys.cpp</title>
<polygon fill="white" stroke="transparent" points="-4,4 -4,-337 2653.5,-337 2653.5,4 -4,4"/>
<!-- Node1 -->
<g id="node1" class="node">
<title>Node1</title>
<g id="a_node1"><a xlink:title=" ">
<polygon fill="#bfbfbf" stroke="black" points="1261.5,-302.5 1261.5,-332.5 1403.5,-332.5 1403.5,-302.5 1261.5,-302.5"/>
<text text-anchor="start" x="1269.5" y="-320.5" font-family="Helvetica,sans-Serif" font-size="10.00">libs/JSystem/J3DGraphBase</text>
<text text-anchor="middle" x="1332.5" y="-309.5" font-family="Helvetica,sans-Serif" font-size="10.00">/J3DSys.cpp</text>
</a>
</g>
</g>
<!-- Node2 -->
<g id="node2" class="node">
<title>Node2</title>
<g id="a_node2"><a xlink:href="J3DSys_8h.html" target="_top" xlink:title=" ">
<polygon fill="white" stroke="black" points="130.5,-230 130.5,-260 254.5,-260 254.5,-230 130.5,-230"/>
<text text-anchor="start" x="138.5" y="-248" font-family="Helvetica,sans-Serif" font-size="10.00">JSystem/J3DGraphBase</text>
<text text-anchor="middle" x="192.5" y="-237" font-family="Helvetica,sans-Serif" font-size="10.00">/J3DSys.h</text>
</a>
</g>
</g>
<!-- Node1&#45;&gt;Node2 -->
<g id="edge1" class="edge">
<title>Node1&#45;&gt;Node2</title>
<path fill="none" stroke="midnightblue" d="M1261.28,-314.45C1100.33,-309.45 696.35,-294.88 359.5,-266 328.4,-263.33 294.15,-259.41 264.81,-255.74"/>
<polygon fill="midnightblue" stroke="midnightblue" points="265.01,-252.23 254.65,-254.45 264.13,-259.18 265.01,-252.23"/>
</g>
<!-- Node4 -->
<g id="node4" class="node">
<title>Node4</title>
<g id="a_node4"><a xlink:href="types_8h.html" target="_top" xlink:title=" ">
<polygon fill="white" stroke="black" points="162,-0.5 162,-19.5 243,-19.5 243,-0.5 162,-0.5"/>
<text text-anchor="middle" x="202.5" y="-7.5" font-family="Helvetica,sans-Serif" font-size="10.00">dolphin/types.h</text>
</a>
</g>
</g>
<!-- Node1&#45;&gt;Node4 -->
<g id="edge13" class="edge">
<title>Node1&#45;&gt;Node4</title>
<path fill="none" stroke="midnightblue" d="M1261.38,-315C1048.11,-310.19 426.59,-293.83 393.5,-266 363.14,-240.46 373.5,-218.68 373.5,-179 373.5,-179 373.5,-179 373.5,-121 373.5,-90.36 372.65,-77.18 350.5,-56 324.4,-31.05 284.89,-19.89 253.26,-14.93"/>
<polygon fill="midnightblue" stroke="midnightblue" points="253.68,-11.45 243.29,-13.52 252.71,-18.38 253.68,-11.45"/>
</g>
<!-- Node8 -->
<g id="node8" class="node">
<title>Node8</title>
<g id="a_node8"><a xlink:href="dol2asm_8h.html" target="_top" xlink:title=" ">
<polygon fill="white" stroke="black" points="402,-235.5 402,-254.5 463,-254.5 463,-235.5 402,-235.5"/>
<text text-anchor="middle" x="432.5" y="-242.5" font-family="Helvetica,sans-Serif" font-size="10.00">dol2asm.h</text>
</a>
</g>
</g>
<!-- Node1&#45;&gt;Node8 -->
<g id="edge12" class="edge">
<title>Node1&#45;&gt;Node8</title>
<path fill="none" stroke="midnightblue" d="M1261.34,-316C1082.99,-314.15 620.6,-305.58 472.5,-266 466.78,-264.47 460.92,-262.08 455.51,-259.47"/>
<polygon fill="midnightblue" stroke="midnightblue" points="456.87,-256.23 446.38,-254.69 453.62,-262.43 456.87,-256.23"/>
</g>
<!-- Node9 -->
<g id="node9" class="node">
<title>Node9</title>
<g id="a_node9"><a xlink:title=" ">
<polygon fill="white" stroke="#bfbfbf" points="481.5,-230 481.5,-260 627.5,-260 627.5,-230 481.5,-230"/>
<text text-anchor="start" x="489.5" y="-248" font-family="Helvetica,sans-Serif" font-size="10.00">asm/JSystem/J3DGraphBase</text>
<text text-anchor="middle" x="554.5" y="-237" font-family="Helvetica,sans-Serif" font-size="10.00">/J3DSys/__ct__6J3DSysFv.s</text>
</a>
</g>
</g>
<!-- Node1&#45;&gt;Node9 -->
<g id="edge14" class="edge">
<title>Node1&#45;&gt;Node9</title>
<path fill="none" stroke="midnightblue" d="M1261.42,-315.25C1134.98,-312.15 863,-301.58 636.5,-266 629.89,-264.96 623.02,-263.66 616.21,-262.21"/>
<polygon fill="midnightblue" stroke="midnightblue" points="616.81,-258.76 606.29,-260.01 615.3,-265.6 616.81,-258.76"/>
</g>
<!-- Node10 -->
<g id="node10" class="node">
<title>Node10</title>
<g id="a_node10"><a xlink:title=" ">
<polygon fill="white" stroke="#bfbfbf" points="645.5,-224.5 645.5,-265.5 791.5,-265.5 791.5,-224.5 645.5,-224.5"/>
<text text-anchor="start" x="653.5" y="-253.5" font-family="Helvetica,sans-Serif" font-size="10.00">asm/JSystem/J3DGraphBase</text>
<text text-anchor="start" x="653.5" y="-242.5" font-family="Helvetica,sans-Serif" font-size="10.00">/J3DSys/loadPosMtxIndx</text>
<text text-anchor="middle" x="718.5" y="-231.5" font-family="Helvetica,sans-Serif" font-size="10.00">__6J3DSysCFiUs.s</text>
</a>
</g>
</g>
<!-- Node1&#45;&gt;Node10 -->
<g id="edge15" class="edge">
<title>Node1&#45;&gt;Node10</title>
<path fill="none" stroke="midnightblue" d="M1261.08,-313.01C1160.52,-307.36 971.41,-294.07 801.58,-266.06"/>
<polygon fill="midnightblue" stroke="midnightblue" points="802.15,-262.61 791.71,-264.41 801,-269.51 802.15,-262.61"/>
</g>
<!-- Node11 -->
<g id="node11" class="node">
<title>Node11</title>
<g id="a_node11"><a xlink:title=" ">
<polygon fill="white" stroke="#bfbfbf" points="809.5,-224.5 809.5,-265.5 955.5,-265.5 955.5,-224.5 809.5,-224.5"/>
<text text-anchor="start" x="817.5" y="-253.5" font-family="Helvetica,sans-Serif" font-size="10.00">asm/JSystem/J3DGraphBase</text>
<text text-anchor="start" x="817.5" y="-242.5" font-family="Helvetica,sans-Serif" font-size="10.00">/J3DSys/loadNrmMtxIndx</text>
<text text-anchor="middle" x="882.5" y="-231.5" font-family="Helvetica,sans-Serif" font-size="10.00">__6J3DSysCFiUs.s</text>
</a>
</g>
</g>
<!-- Node1&#45;&gt;Node11 -->
<g id="edge16" class="edge">
<title>Node1&#45;&gt;Node11</title>
<path fill="none" stroke="midnightblue" d="M1261.26,-308.92C1189.12,-300.76 1074.19,-286.38 965.86,-266.17"/>
<polygon fill="midnightblue" stroke="midnightblue" points="966.21,-262.67 955.74,-264.26 964.91,-269.55 966.21,-262.67"/>
</g>
<!-- Node12 -->
<g id="node12" class="node">
<title>Node12</title>
<g id="a_node12"><a xlink:title=" ">
<polygon fill="white" stroke="#bfbfbf" points="973.5,-224.5 973.5,-265.5 1145.5,-265.5 1145.5,-224.5 973.5,-224.5"/>
<text text-anchor="start" x="981.5" y="-253.5" font-family="Helvetica,sans-Serif" font-size="10.00">asm/JSystem/J3DGraphBase</text>
<text text-anchor="start" x="981.5" y="-242.5" font-family="Helvetica,sans-Serif" font-size="10.00">/J3DSys/setTexCacheRegion</text>
<text text-anchor="middle" x="1059.5" y="-231.5" font-family="Helvetica,sans-Serif" font-size="10.00">__6J3DSysF15_GXTexCacheSize.s</text>
</a>
</g>
</g>
<!-- Node1&#45;&gt;Node12 -->
<g id="edge17" class="edge">
<title>Node1&#45;&gt;Node12</title>
<path fill="none" stroke="midnightblue" d="M1278.24,-302.49C1240.14,-292.65 1188.43,-279.29 1144.85,-268.04"/>
<polygon fill="midnightblue" stroke="midnightblue" points="1145.67,-264.64 1135.11,-265.53 1143.92,-271.41 1145.67,-264.64"/>
</g>
<!-- Node13 -->
<g id="node13" class="node">
<title>Node13</title>
<g id="a_node13"><a xlink:title=" ">
<polygon fill="white" stroke="#bfbfbf" points="1164,-230 1164,-260 1323,-260 1323,-230 1164,-230"/>
<text text-anchor="start" x="1172" y="-248" font-family="Helvetica,sans-Serif" font-size="10.00">asm/JSystem/J3DGraphBase</text>
<text text-anchor="middle" x="1243.5" y="-237" font-family="Helvetica,sans-Serif" font-size="10.00">/J3DSys/drawInit__6J3DSysFv.s</text>
</a>
</g>
</g>
<!-- Node1&#45;&gt;Node13 -->
<g id="edge18" class="edge">
<title>Node1&#45;&gt;Node13</title>
<path fill="none" stroke="midnightblue" d="M1314.49,-302.23C1301.5,-291.94 1283.77,-277.9 1269.28,-266.42"/>
<polygon fill="midnightblue" stroke="midnightblue" points="1271.19,-263.47 1261.18,-260 1266.85,-268.96 1271.19,-263.47"/>
</g>
<!-- Node14 -->
<g id="node14" class="node">
<title>Node14</title>
<g id="a_node14"><a xlink:title=" ">
<polygon fill="white" stroke="#bfbfbf" points="1341.5,-230 1341.5,-260 1501.5,-260 1501.5,-230 1341.5,-230"/>
<text text-anchor="start" x="1349.5" y="-248" font-family="Helvetica,sans-Serif" font-size="10.00">asm/JSystem/J3DGraphBase</text>
<text text-anchor="middle" x="1421.5" y="-237" font-family="Helvetica,sans-Serif" font-size="10.00">/J3DSys/reinitGX__6J3DSysFv.s</text>
</a>
</g>
</g>
<!-- Node1&#45;&gt;Node14 -->
<g id="edge19" class="edge">
<title>Node1&#45;&gt;Node14</title>
<path fill="none" stroke="midnightblue" d="M1350.51,-302.23C1363.5,-291.94 1381.23,-277.9 1395.72,-266.42"/>
<polygon fill="midnightblue" stroke="midnightblue" points="1398.15,-268.96 1403.82,-260 1393.81,-263.47 1398.15,-268.96"/>
</g>
<!-- Node15 -->
<g id="node15" class="node">
<title>Node15</title>
<g id="a_node15"><a xlink:title=" ">
<polygon fill="white" stroke="#bfbfbf" points="1519.5,-224.5 1519.5,-265.5 1665.5,-265.5 1665.5,-224.5 1519.5,-224.5"/>
<text text-anchor="start" x="1527.5" y="-253.5" font-family="Helvetica,sans-Serif" font-size="10.00">asm/JSystem/J3DGraphBase</text>
<text text-anchor="start" x="1527.5" y="-242.5" font-family="Helvetica,sans-Serif" font-size="10.00">/J3DSys/reinitGenMode_</text>
<text text-anchor="middle" x="1592.5" y="-231.5" font-family="Helvetica,sans-Serif" font-size="10.00">_6J3DSysFv.s</text>
</a>
</g>
</g>
<!-- Node1&#45;&gt;Node15 -->
<g id="edge20" class="edge">
<title>Node1&#45;&gt;Node15</title>
<path fill="none" stroke="midnightblue" d="M1384.18,-302.49C1420.24,-292.71 1469.11,-279.46 1510.46,-268.25"/>
<polygon fill="midnightblue" stroke="midnightblue" points="1511.51,-271.59 1520.25,-265.59 1509.68,-264.83 1511.51,-271.59"/>
</g>
<!-- Node16 -->
<g id="node16" class="node">
<title>Node16</title>
<g id="a_node16"><a xlink:title=" ">
<polygon fill="white" stroke="#bfbfbf" points="1683.5,-224.5 1683.5,-265.5 1829.5,-265.5 1829.5,-224.5 1683.5,-224.5"/>
<text text-anchor="start" x="1691.5" y="-253.5" font-family="Helvetica,sans-Serif" font-size="10.00">asm/JSystem/J3DGraphBase</text>
<text text-anchor="start" x="1691.5" y="-242.5" font-family="Helvetica,sans-Serif" font-size="10.00">/J3DSys/reinitLighting</text>
<text text-anchor="middle" x="1756.5" y="-231.5" font-family="Helvetica,sans-Serif" font-size="10.00">__6J3DSysFv.s</text>
</a>
</g>
</g>
<!-- Node1&#45;&gt;Node16 -->
<g id="edge21" class="edge">
<title>Node1&#45;&gt;Node16</title>
<path fill="none" stroke="midnightblue" d="M1403.57,-307.96C1470.73,-299.44 1574.48,-285.14 1673.39,-266.13"/>
<polygon fill="midnightblue" stroke="midnightblue" points="1674.11,-269.56 1683.26,-264.22 1672.77,-262.69 1674.11,-269.56"/>
</g>
<!-- Node17 -->
<g id="node17" class="node">
<title>Node17</title>
<g id="a_node17"><a xlink:title=" ">
<polygon fill="white" stroke="#bfbfbf" points="1847.5,-224.5 1847.5,-265.5 1993.5,-265.5 1993.5,-224.5 1847.5,-224.5"/>
<text text-anchor="start" x="1855.5" y="-253.5" font-family="Helvetica,sans-Serif" font-size="10.00">asm/JSystem/J3DGraphBase</text>
<text text-anchor="start" x="1855.5" y="-242.5" font-family="Helvetica,sans-Serif" font-size="10.00">/J3DSys/reinitTransform</text>
<text text-anchor="middle" x="1920.5" y="-231.5" font-family="Helvetica,sans-Serif" font-size="10.00">__6J3DSysFv.s</text>
</a>
</g>
</g>
<!-- Node1&#45;&gt;Node17 -->
<g id="edge22" class="edge">
<title>Node1&#45;&gt;Node17</title>
<path fill="none" stroke="midnightblue" d="M1403.73,-312.54C1500.05,-306.48 1677.24,-292.87 1837.26,-266.09"/>
<polygon fill="midnightblue" stroke="midnightblue" points="1838.01,-269.52 1847.29,-264.39 1836.84,-262.61 1838.01,-269.52"/>
</g>
<!-- Node18 -->
<g id="node18" class="node">
<title>Node18</title>
<g id="a_node18"><a xlink:title=" ">
<polygon fill="white" stroke="#bfbfbf" points="2011.5,-224.5 2011.5,-265.5 2157.5,-265.5 2157.5,-224.5 2011.5,-224.5"/>
<text text-anchor="start" x="2019.5" y="-253.5" font-family="Helvetica,sans-Serif" font-size="10.00">asm/JSystem/J3DGraphBase</text>
<text text-anchor="start" x="2019.5" y="-242.5" font-family="Helvetica,sans-Serif" font-size="10.00">/J3DSys/reinitTexture_</text>
<text text-anchor="middle" x="2084.5" y="-231.5" font-family="Helvetica,sans-Serif" font-size="10.00">_6J3DSysFv.s</text>
</a>
</g>
</g>
<!-- Node1&#45;&gt;Node18 -->
<g id="edge23" class="edge">
<title>Node1&#45;&gt;Node18</title>
<path fill="none" stroke="midnightblue" d="M1403.85,-314.96C1524.99,-311.5 1778.62,-300.62 2001.39,-266.04"/>
<polygon fill="midnightblue" stroke="midnightblue" points="2001.97,-269.49 2011.3,-264.48 2000.88,-262.58 2001.97,-269.49"/>
</g>
<!-- Node19 -->
<g id="node19" class="node">
<title>Node19</title>
<g id="a_node19"><a xlink:title=" ">
<polygon fill="white" stroke="#bfbfbf" points="2175.5,-224.5 2175.5,-265.5 2321.5,-265.5 2321.5,-224.5 2175.5,-224.5"/>
<text text-anchor="start" x="2183.5" y="-253.5" font-family="Helvetica,sans-Serif" font-size="10.00">asm/JSystem/J3DGraphBase</text>
<text text-anchor="start" x="2183.5" y="-242.5" font-family="Helvetica,sans-Serif" font-size="10.00">/J3DSys/reinitTevStages</text>
<text text-anchor="middle" x="2248.5" y="-231.5" font-family="Helvetica,sans-Serif" font-size="10.00">__6J3DSysFv.s</text>
</a>
</g>
</g>
<!-- Node1&#45;&gt;Node19 -->
<g id="edge24" class="edge">
<title>Node1&#45;&gt;Node19</title>
<path fill="none" stroke="midnightblue" d="M1403.52,-316.46C1546.32,-315.47 1878.37,-308.48 2165.13,-266.06"/>
<polygon fill="midnightblue" stroke="midnightblue" points="2165.94,-269.48 2175.31,-264.54 2164.9,-262.56 2165.94,-269.48"/>
</g>
<!-- Node20 -->
<g id="node20" class="node">
<title>Node20</title>
<g id="a_node20"><a xlink:title=" ">
<polygon fill="white" stroke="#bfbfbf" points="2339.5,-224.5 2339.5,-265.5 2485.5,-265.5 2485.5,-224.5 2339.5,-224.5"/>
<text text-anchor="start" x="2347.5" y="-253.5" font-family="Helvetica,sans-Serif" font-size="10.00">asm/JSystem/J3DGraphBase</text>
<text text-anchor="start" x="2347.5" y="-242.5" font-family="Helvetica,sans-Serif" font-size="10.00">/J3DSys/reinitIndStages</text>
<text text-anchor="middle" x="2412.5" y="-231.5" font-family="Helvetica,sans-Serif" font-size="10.00">__6J3DSysFv.s</text>
</a>
</g>
</g>
<!-- Node1&#45;&gt;Node20 -->
<g id="edge25" class="edge">
<title>Node1&#45;&gt;Node20</title>
<path fill="none" stroke="midnightblue" d="M1403.63,-314.65C1597.39,-309.32 2132.61,-292.73 2329.36,-265.98"/>
<polygon fill="midnightblue" stroke="midnightblue" points="2329.9,-269.44 2339.32,-264.57 2328.93,-262.51 2329.9,-269.44"/>
</g>
<!-- Node21 -->
<g id="node21" class="node">
<title>Node21</title>
<g id="a_node21"><a xlink:title=" ">
<polygon fill="white" stroke="#bfbfbf" points="2503.5,-224.5 2503.5,-265.5 2649.5,-265.5 2649.5,-224.5 2503.5,-224.5"/>
<text text-anchor="start" x="2511.5" y="-253.5" font-family="Helvetica,sans-Serif" font-size="10.00">asm/JSystem/J3DGraphBase</text>
<text text-anchor="start" x="2511.5" y="-242.5" font-family="Helvetica,sans-Serif" font-size="10.00">/J3DSys/reinitPixelProc</text>
<text text-anchor="middle" x="2576.5" y="-231.5" font-family="Helvetica,sans-Serif" font-size="10.00">__6J3DSysFv.s</text>
</a>
</g>
</g>
<!-- Node1&#45;&gt;Node21 -->
<g id="edge26" class="edge">
<title>Node1&#45;&gt;Node21</title>
<path fill="none" stroke="midnightblue" d="M1403.74,-315.23C1619.24,-311.11 2262.98,-296.64 2493.32,-265.98"/>
<polygon fill="midnightblue" stroke="midnightblue" points="2493.89,-269.43 2503.32,-264.6 2492.94,-262.5 2493.89,-269.43"/>
</g>
<!-- Node3 -->
<g id="node3" class="node">
<title>Node3</title>
<g id="a_node3"><a xlink:href="GXTexture_8h.html" target="_top" xlink:title=" ">
<polygon fill="white" stroke="black" points="0,-112.5 0,-131.5 117,-131.5 117,-112.5 0,-112.5"/>
<text text-anchor="middle" x="58.5" y="-119.5" font-family="Helvetica,sans-Serif" font-size="10.00">dolphin/gx/GXTexture.h</text>
</a>
</g>
</g>
<!-- Node2&#45;&gt;Node3 -->
<g id="edge2" class="edge">
<title>Node2&#45;&gt;Node3</title>
<path fill="none" stroke="midnightblue" d="M176.87,-229.88C151.57,-207.04 101.87,-162.17 75.65,-138.48"/>
<polygon fill="midnightblue" stroke="midnightblue" points="77.78,-135.7 68.02,-131.59 73.09,-140.89 77.78,-135.7"/>
</g>
<!-- Node2&#45;&gt;Node4 -->
<g id="edge11" class="edge">
<title>Node2&#45;&gt;Node4</title>
<path fill="none" stroke="midnightblue" d="M189.9,-229.79C187.98,-218.51 185.52,-202.3 184.5,-188 181.66,-148.07 183.06,-102.97 190.5,-56 191.91,-47.11 194.36,-37.43 196.69,-29.34"/>
<polygon fill="midnightblue" stroke="midnightblue" points="200.11,-30.1 199.66,-19.51 193.41,-28.07 200.11,-30.1"/>
</g>
<!-- Node5 -->
<g id="node5" class="node">
<title>Node5</title>
<g id="a_node5"><a xlink:href="mtx_8h.html" target="_top" xlink:title=" ">
<polygon fill="white" stroke="black" points="193.5,-168.5 193.5,-187.5 285.5,-187.5 285.5,-168.5 193.5,-168.5"/>
<text text-anchor="middle" x="239.5" y="-175.5" font-family="Helvetica,sans-Serif" font-size="10.00">dolphin/mtx/mtx.h</text>
</a>
</g>
</g>
<!-- Node2&#45;&gt;Node5 -->
<g id="edge4" class="edge">
<title>Node2&#45;&gt;Node5</title>
<path fill="none" stroke="midnightblue" d="M202.7,-229.9C209.88,-219.96 219.54,-206.61 227.16,-196.07"/>
<polygon fill="midnightblue" stroke="midnightblue" points="230.19,-197.85 233.21,-187.69 224.52,-193.75 230.19,-197.85"/>
</g>
<!-- Node3&#45;&gt;Node4 -->
<g id="edge3" class="edge">
<title>Node3&#45;&gt;Node4</title>
<path fill="none" stroke="midnightblue" d="M67.53,-112.08C80.93,-99.06 107.11,-74.39 131.5,-56 146.6,-44.61 164.61,-33.22 178.71,-24.75"/>
<polygon fill="midnightblue" stroke="midnightblue" points="180.53,-27.74 187.35,-19.63 176.96,-21.72 180.53,-27.74"/>
</g>
<!-- Node5&#45;&gt;Node4 -->
<g id="edge10" class="edge">
<title>Node5&#45;&gt;Node4</title>
<path fill="none" stroke="midnightblue" d="M229.7,-168.5C220.95,-160.2 208.73,-146.71 203.5,-132 191.23,-97.48 195.21,-53.84 199,-29.53"/>
<polygon fill="midnightblue" stroke="midnightblue" points="202.47,-29.99 200.72,-19.54 195.57,-28.8 202.47,-29.99"/>
</g>
<!-- Node6 -->
<g id="node6" class="node">
<title>Node6</title>
<g id="a_node6"><a xlink:href="quat_8h.html" target="_top" xlink:title=" ">
<polygon fill="white" stroke="black" points="212,-112.5 212,-131.5 307,-131.5 307,-112.5 212,-112.5"/>
<text text-anchor="middle" x="259.5" y="-119.5" font-family="Helvetica,sans-Serif" font-size="10.00">dolphin/mtx/quat.h</text>
</a>
</g>
</g>
<!-- Node5&#45;&gt;Node6 -->
<g id="edge5" class="edge">
<title>Node5&#45;&gt;Node6</title>
<path fill="none" stroke="midnightblue" d="M242.8,-168.08C245.48,-160.85 249.35,-150.41 252.69,-141.4"/>
<polygon fill="midnightblue" stroke="midnightblue" points="256.07,-142.34 256.26,-131.75 249.5,-139.91 256.07,-142.34"/>
</g>
<!-- Node7 -->
<g id="node7" class="node">
<title>Node7</title>
<g id="a_node7"><a xlink:href="vec_8h.html" target="_top" xlink:title=" ">
<polygon fill="white" stroke="black" points="249.5,-56.5 249.5,-75.5 341.5,-75.5 341.5,-56.5 249.5,-56.5"/>
<text text-anchor="middle" x="295.5" y="-63.5" font-family="Helvetica,sans-Serif" font-size="10.00">dolphin/mtx/vec.h</text>
</a>
</g>
</g>
<!-- Node5&#45;&gt;Node7 -->
<g id="edge9" class="edge">
<title>Node5&#45;&gt;Node7</title>
<path fill="none" stroke="midnightblue" d="M267.87,-168.49C285.25,-161.65 306.1,-150.13 316.5,-132 325.13,-116.96 317.05,-97.89 308.53,-84.3"/>
<polygon fill="midnightblue" stroke="midnightblue" points="311.3,-82.16 302.76,-75.89 305.53,-86.12 311.3,-82.16"/>
</g>
<!-- Node6&#45;&gt;Node4 -->
<g id="edge8" class="edge">
<title>Node6&#45;&gt;Node4</title>
<path fill="none" stroke="midnightblue" d="M255.03,-112.37C245.7,-94.38 224.03,-52.55 211.63,-28.63"/>
<polygon fill="midnightblue" stroke="midnightblue" points="214.66,-26.86 206.95,-19.59 208.45,-30.08 214.66,-26.86"/>
</g>
<!-- Node6&#45;&gt;Node7 -->
<g id="edge6" class="edge">
<title>Node6&#45;&gt;Node7</title>
<path fill="none" stroke="midnightblue" d="M265.44,-112.08C270.48,-104.53 277.84,-93.49 284.01,-84.23"/>
<polygon fill="midnightblue" stroke="midnightblue" points="287.03,-86.01 289.67,-75.75 281.21,-82.13 287.03,-86.01"/>
</g>
<!-- Node7&#45;&gt;Node4 -->
<g id="edge7" class="edge">
<title>Node7&#45;&gt;Node4</title>
<path fill="none" stroke="midnightblue" d="M280.56,-56.32C265.91,-47.82 243.37,-34.73 226.26,-24.8"/>
<polygon fill="midnightblue" stroke="midnightblue" points="227.81,-21.65 217.4,-19.65 224.3,-27.7 227.81,-21.65"/>
</g>
</g>
</svg>
