<?xml version="1.0" encoding="UTF-8" standalone="no"?>
<!DOCTYPE svg PUBLIC "-//W3C//DTD SVG 1.1//EN"
 "http://www.w3.org/Graphics/SVG/1.1/DTD/svg11.dtd">
<!-- Generated by graphviz version 2.44.0 ()
 -->
<!-- Title: include/JSystem/J3DGraphBase/J3DShapeDraw.h Pages: 1 -->
<svg width="377pt" height="173pt"
 viewBox="0.00 0.00 377.00 173.00" xmlns="http://www.w3.org/2000/svg" xmlns:xlink="http://www.w3.org/1999/xlink">
<g id="graph0" class="graph" transform="scale(1 1) rotate(0) translate(4 169)">
<title>include/JSystem/J3DGraphBase/J3DShapeDraw.h</title>
<polygon fill="white" stroke="transparent" points="-4,4 -4,-169 373,-169 373,4 -4,4"/>
<!-- Node1 -->
<g id="node1" class="node">
<title>Node1</title>
<g id="a_node1"><a xlink:title=" ">
<polygon fill="#bfbfbf" stroke="black" points="81.5,-134.5 81.5,-164.5 216.5,-164.5 216.5,-134.5 81.5,-134.5"/>
<text text-anchor="start" x="89.5" y="-152.5" font-family="Helvetica,sans-Serif" font-size="10.00">include/JSystem/J3DGraph</text>
<text text-anchor="middle" x="149" y="-141.5" font-family="Helvetica,sans-Serif" font-size="10.00">Base/J3DShapeDraw.h</text>
</a>
</g>
</g>
<!-- Node2 -->
<g id="node2" class="node">
<title>Node2</title>
<g id="a_node2"><a xlink:href="J3DShapeDraw_8cpp.html" target="_top" xlink:title=" ">
<polygon fill="white" stroke="black" points="0,-67.5 0,-97.5 142,-97.5 142,-67.5 0,-67.5"/>
<text text-anchor="start" x="8" y="-85.5" font-family="Helvetica,sans-Serif" font-size="10.00">libs/JSystem/J3DGraphBase</text>
<text text-anchor="middle" x="71" y="-74.5" font-family="Helvetica,sans-Serif" font-size="10.00">/J3DShapeDraw.cpp</text>
</a>
</g>
</g>
<!-- Node1&#45;&gt;Node2 -->
<g id="edge1" class="edge">
<title>Node1&#45;&gt;Node2</title>
<path fill="none" stroke="midnightblue" d="M124.26,-127.88C112.41,-118.01 98.52,-106.43 87.89,-97.58"/>
<polygon fill="midnightblue" stroke="midnightblue" points="122.15,-130.68 132.08,-134.4 126.63,-125.31 122.15,-130.68"/>
</g>
<!-- Node3 -->
<g id="node3" class="node">
<title>Node3</title>
<g id="a_node3"><a xlink:href="J3DShape_8h.html" target="_top" xlink:title=" ">
<polygon fill="white" stroke="black" points="160.5,-67.5 160.5,-97.5 295.5,-97.5 295.5,-67.5 160.5,-67.5"/>
<text text-anchor="start" x="168.5" y="-85.5" font-family="Helvetica,sans-Serif" font-size="10.00">include/JSystem/J3DGraph</text>
<text text-anchor="middle" x="228" y="-74.5" font-family="Helvetica,sans-Serif" font-size="10.00">Base/J3DShape.h</text>
</a>
</g>
</g>
<!-- Node1&#45;&gt;Node3 -->
<g id="edge2" class="edge">
<title>Node1&#45;&gt;Node3</title>
<path fill="none" stroke="midnightblue" d="M174.06,-127.88C186.06,-118.01 200.13,-106.43 210.89,-97.58"/>
<polygon fill="midnightblue" stroke="midnightblue" points="171.64,-125.34 166.14,-134.4 176.09,-130.75 171.64,-125.34"/>
</g>
<!-- Node4 -->
<g id="node4" class="node">
<title>Node4</title>
<g id="a_node4"><a xlink:href="d__drawlist_8cpp.html" target="_top" xlink:title=" ">
<polygon fill="white" stroke="black" points="105,-6 105,-25 209,-25 209,-6 105,-6"/>
<text text-anchor="middle" x="157" y="-13" font-family="Helvetica,sans-Serif" font-size="10.00">src/d/d_drawlist.cpp</text>
</a>
</g>
</g>
<!-- Node3&#45;&gt;Node4 -->
<g id="edge3" class="edge">
<title>Node3&#45;&gt;Node4</title>
<path fill="none" stroke="midnightblue" d="M204.88,-60.34C191.85,-48.4 176.26,-34.14 166.5,-25.19"/>
<polygon fill="midnightblue" stroke="midnightblue" points="202.85,-63.22 212.59,-67.4 207.58,-58.06 202.85,-63.22"/>
</g>
<!-- Node5 -->
<g id="node5" class="node">
<title>Node5</title>
<g id="a_node5"><a xlink:href="J3DShape_8cpp.html" target="_top" xlink:title=" ">
<polygon fill="white" stroke="black" points="227,-0.5 227,-30.5 369,-30.5 369,-0.5 227,-0.5"/>
<text text-anchor="start" x="235" y="-18.5" font-family="Helvetica,sans-Serif" font-size="10.00">libs/JSystem/J3DGraphBase</text>
<text text-anchor="middle" x="298" y="-7.5" font-family="Helvetica,sans-Serif" font-size="10.00">/J3DShape.cpp</text>
</a>
</g>
</g>
<!-- Node3&#45;&gt;Node5 -->
<g id="edge4" class="edge">
<title>Node3&#45;&gt;Node5</title>
<path fill="none" stroke="midnightblue" d="M250.82,-60.31C261.32,-50.56 273.49,-39.26 282.84,-30.58"/>
<polygon fill="midnightblue" stroke="midnightblue" points="248.14,-58.03 243.19,-67.4 252.9,-63.16 248.14,-58.03"/>
</g>
</g>
</svg>
