<?xml version="1.0" encoding="UTF-8" standalone="no"?>
<!DOCTYPE svg PUBLIC "-//W3C//DTD SVG 1.1//EN"
 "http://www.w3.org/Graphics/SVG/1.1/DTD/svg11.dtd">
<!-- Generated by graphviz version 2.44.0 ()
 -->
<!-- Title: libs/JSystem/J3DGraphAnimator/J3DShapeTable.cpp Pages: 1 -->
<svg width="917pt" height="542pt"
 viewBox="0.00 0.00 916.50 542.00" xmlns="http://www.w3.org/2000/svg" xmlns:xlink="http://www.w3.org/1999/xlink">
<g id="graph0" class="graph" transform="scale(1 1) rotate(0) translate(4 538)">
<title>libs/JSystem/J3DGraphAnimator/J3DShapeTable.cpp</title>
<polygon fill="white" stroke="transparent" points="-4,4 -4,-538 912.5,-538 912.5,4 -4,4"/>
<!-- Node1 -->
<g id="node1" class="node">
<title>Node1</title>
<g id="a_node1"><a xlink:title=" ">
<polygon fill="#bfbfbf" stroke="black" points="740,-503.5 740,-533.5 898,-533.5 898,-503.5 740,-503.5"/>
<text text-anchor="start" x="748" y="-521.5" font-family="Helvetica,sans-Serif" font-size="10.00">libs/JSystem/J3DGraphAnimator</text>
<text text-anchor="middle" x="819" y="-510.5" font-family="Helvetica,sans-Serif" font-size="10.00">/J3DShapeTable.cpp</text>
</a>
</g>
</g>
<!-- Node2 -->
<g id="node2" class="node">
<title>Node2</title>
<g id="a_node2"><a xlink:href="J3DShapeTable_8h.html" target="_top" xlink:title=" ">
<polygon fill="white" stroke="black" points="133,-436.5 133,-466.5 273,-466.5 273,-436.5 133,-436.5"/>
<text text-anchor="start" x="141" y="-454.5" font-family="Helvetica,sans-Serif" font-size="10.00">JSystem/J3DGraphAnimator</text>
<text text-anchor="middle" x="203" y="-443.5" font-family="Helvetica,sans-Serif" font-size="10.00">/J3DShapeTable.h</text>
</a>
</g>
</g>
<!-- Node1&#45;&gt;Node2 -->
<g id="edge1" class="edge">
<title>Node1&#45;&gt;Node2</title>
<path fill="none" stroke="midnightblue" d="M739.73,-509.14C621.96,-496.71 401.97,-473.5 283.49,-460.99"/>
<polygon fill="midnightblue" stroke="midnightblue" points="283.71,-457.5 273.4,-459.93 282.98,-464.46 283.71,-457.5"/>
</g>
<!-- Node5 -->
<g id="node5" class="node">
<title>Node5</title>
<g id="a_node5"><a xlink:href="types_8h.html" target="_top" xlink:title=" ">
<polygon fill="white" stroke="black" points="417.5,-0.5 417.5,-19.5 498.5,-19.5 498.5,-0.5 417.5,-0.5"/>
<text text-anchor="middle" x="458" y="-7.5" font-family="Helvetica,sans-Serif" font-size="10.00">dolphin/types.h</text>
</a>
</g>
</g>
<!-- Node1&#45;&gt;Node5 -->
<g id="edge32" class="edge">
<title>Node1&#45;&gt;Node5</title>
<path fill="none" stroke="midnightblue" d="M819,-503.24C819,-479.03 819,-428.35 819,-385.5 819,-385.5 819,-385.5 819,-121 819,-73.44 777.67,-74.84 734,-56 659.93,-24.05 565.74,-14.62 508.75,-11.93"/>
<polygon fill="midnightblue" stroke="midnightblue" points="508.69,-8.43 498.56,-11.5 508.4,-15.42 508.69,-8.43"/>
</g>
<!-- Node16 -->
<g id="node16" class="node">
<title>Node16</title>
<g id="a_node16"><a xlink:href="dol2asm_8h.html" target="_top" xlink:title=" ">
<polygon fill="white" stroke="black" points="847.5,-442 847.5,-461 908.5,-461 908.5,-442 847.5,-442"/>
<text text-anchor="middle" x="878" y="-449" font-family="Helvetica,sans-Serif" font-size="10.00">dol2asm.h</text>
</a>
</g>
</g>
<!-- Node1&#45;&gt;Node16 -->
<g id="edge31" class="edge">
<title>Node1&#45;&gt;Node16</title>
<path fill="none" stroke="midnightblue" d="M831.8,-503.4C841.09,-493.16 853.68,-479.3 863.37,-468.62"/>
<polygon fill="midnightblue" stroke="midnightblue" points="865.98,-470.95 870.11,-461.19 860.8,-466.25 865.98,-470.95"/>
</g>
<!-- Node3 -->
<g id="node3" class="node">
<title>Node3</title>
<g id="a_node3"><a xlink:href="J3DShape_8h.html" target="_top" xlink:title=" ">
<polygon fill="white" stroke="black" points="370,-369.5 370,-399.5 494,-399.5 494,-369.5 370,-369.5"/>
<text text-anchor="start" x="378" y="-387.5" font-family="Helvetica,sans-Serif" font-size="10.00">JSystem/J3DGraphBase</text>
<text text-anchor="middle" x="432" y="-376.5" font-family="Helvetica,sans-Serif" font-size="10.00">/J3DShape.h</text>
</a>
</g>
</g>
<!-- Node2&#45;&gt;Node3 -->
<g id="edge2" class="edge">
<title>Node2&#45;&gt;Node3</title>
<path fill="none" stroke="midnightblue" d="M252.41,-436.48C287.65,-426.47 335.22,-412.97 372.54,-402.38"/>
<polygon fill="midnightblue" stroke="midnightblue" points="373.62,-405.71 382.29,-399.61 371.71,-398.97 373.62,-405.71"/>
</g>
<!-- Node2&#45;&gt;Node5 -->
<g id="edge30" class="edge">
<title>Node2&#45;&gt;Node5</title>
<path fill="none" stroke="midnightblue" d="M136.53,-436.48C77.33,-419.64 0,-384.92 0,-318.5 0,-318.5 0,-318.5 0,-121 0,-79.83 28.86,-73.76 66,-56 125.21,-27.69 315.4,-16.55 407.32,-12.73"/>
<polygon fill="midnightblue" stroke="midnightblue" points="407.65,-16.22 417.5,-12.33 407.37,-9.23 407.65,-16.22"/>
</g>
<!-- Node14 -->
<g id="node14" class="node">
<title>Node14</title>
<g id="a_node14"><a xlink:href="J3DVertex_8h.html" target="_top" xlink:title=" ">
<polygon fill="white" stroke="black" points="141,-168.5 141,-198.5 265,-198.5 265,-168.5 141,-168.5"/>
<text text-anchor="start" x="149" y="-186.5" font-family="Helvetica,sans-Serif" font-size="10.00">JSystem/J3DGraphBase</text>
<text text-anchor="middle" x="203" y="-175.5" font-family="Helvetica,sans-Serif" font-size="10.00">/J3DVertex.h</text>
</a>
</g>
</g>
<!-- Node2&#45;&gt;Node14 -->
<g id="edge25" class="edge">
<title>Node2&#45;&gt;Node14</title>
<path fill="none" stroke="midnightblue" d="M203,-436.2C203,-392.89 203,-262.82 203,-208.62"/>
<polygon fill="midnightblue" stroke="midnightblue" points="206.5,-208.55 203,-198.55 199.5,-208.55 206.5,-208.55"/>
</g>
<!-- Node15 -->
<g id="node15" class="node">
<title>Node15</title>
<g id="a_node15"><a xlink:href="JUTNameTab_8h.html" target="_top" xlink:title=" ">
<polygon fill="white" stroke="black" points="32,-235.5 32,-265.5 168,-265.5 168,-235.5 32,-235.5"/>
<text text-anchor="start" x="40" y="-253.5" font-family="Helvetica,sans-Serif" font-size="10.00">JSystem/JUtility/JUTName</text>
<text text-anchor="middle" x="100" y="-242.5" font-family="Helvetica,sans-Serif" font-size="10.00">Tab.h</text>
</a>
</g>
</g>
<!-- Node2&#45;&gt;Node15 -->
<g id="edge28" class="edge">
<title>Node2&#45;&gt;Node15</title>
<path fill="none" stroke="midnightblue" d="M195.59,-436.19C178,-402.2 133.57,-316.35 112.05,-274.78"/>
<polygon fill="midnightblue" stroke="midnightblue" points="115.05,-272.95 107.34,-265.68 108.83,-276.17 115.05,-272.95"/>
</g>
<!-- Node4 -->
<g id="node4" class="node">
<title>Node4</title>
<g id="a_node4"><a xlink:href="J3DShapeDraw_8h.html" target="_top" xlink:title=" ">
<polygon fill="white" stroke="black" points="325,-302.5 325,-332.5 449,-332.5 449,-302.5 325,-302.5"/>
<text text-anchor="start" x="333" y="-320.5" font-family="Helvetica,sans-Serif" font-size="10.00">JSystem/J3DGraphBase</text>
<text text-anchor="middle" x="387" y="-309.5" font-family="Helvetica,sans-Serif" font-size="10.00">/J3DShapeDraw.h</text>
</a>
</g>
</g>
<!-- Node3&#45;&gt;Node4 -->
<g id="edge3" class="edge">
<title>Node3&#45;&gt;Node4</title>
<path fill="none" stroke="midnightblue" d="M422.24,-369.4C416.46,-361.05 409.01,-350.29 402.45,-340.81"/>
<polygon fill="midnightblue" stroke="midnightblue" points="405.32,-338.81 396.75,-332.58 399.56,-342.79 405.32,-338.81"/>
</g>
<!-- Node3&#45;&gt;Node5 -->
<g id="edge24" class="edge">
<title>Node3&#45;&gt;Node5</title>
<path fill="none" stroke="midnightblue" d="M440.49,-369.34C446.12,-359.45 453.3,-345.77 458,-333 470.83,-298.09 477,-288.69 477,-251.5 477,-251.5 477,-251.5 477,-121 477,-88.49 468.84,-51.35 463.22,-29.61"/>
<polygon fill="midnightblue" stroke="midnightblue" points="466.54,-28.5 460.56,-19.75 459.78,-30.32 466.54,-28.5"/>
</g>
<!-- Node6 -->
<g id="node6" class="node">
<title>Node6</title>
<g id="a_node6"><a xlink:href="J3DShapeMtx_8h.html" target="_top" xlink:title=" ">
<polygon fill="white" stroke="black" points="505,-302.5 505,-332.5 629,-332.5 629,-302.5 505,-302.5"/>
<text text-anchor="start" x="513" y="-320.5" font-family="Helvetica,sans-Serif" font-size="10.00">JSystem/J3DGraphBase</text>
<text text-anchor="middle" x="567" y="-309.5" font-family="Helvetica,sans-Serif" font-size="10.00">/J3DShapeMtx.h</text>
</a>
</g>
</g>
<!-- Node3&#45;&gt;Node6 -->
<g id="edge5" class="edge">
<title>Node3&#45;&gt;Node6</title>
<path fill="none" stroke="midnightblue" d="M461.29,-369.4C481.02,-359.9 507.23,-347.28 528.62,-336.98"/>
<polygon fill="midnightblue" stroke="midnightblue" points="530.27,-340.07 537.76,-332.58 527.24,-333.76 530.27,-340.07"/>
</g>
<!-- Node7 -->
<g id="node7" class="node">
<title>Node7</title>
<g id="a_node7"><a xlink:href="mtxvec_8h.html" target="_top" xlink:title=" ">
<polygon fill="white" stroke="black" points="543,-241 543,-260 651,-260 651,-241 543,-241"/>
<text text-anchor="middle" x="597" y="-248" font-family="Helvetica,sans-Serif" font-size="10.00">dolphin/mtx/mtxvec.h</text>
</a>
</g>
</g>
<!-- Node3&#45;&gt;Node7 -->
<g id="edge23" class="edge">
<title>Node3&#45;&gt;Node7</title>
<path fill="none" stroke="midnightblue" d="M494.15,-376.68C548.12,-369.32 620.33,-355.53 638,-333 654.11,-312.47 632.5,-284.6 615.05,-267.35"/>
<polygon fill="midnightblue" stroke="midnightblue" points="617.16,-264.53 607.47,-260.24 612.37,-269.63 617.16,-264.53"/>
</g>
<!-- Node11 -->
<g id="node11" class="node">
<title>Node11</title>
<g id="a_node11"><a xlink:href="GX_8h.html" target="_top" xlink:title=" ">
<polygon fill="white" stroke="black" points="254.5,-112.5 254.5,-131.5 339.5,-131.5 339.5,-112.5 254.5,-112.5"/>
<text text-anchor="middle" x="297" y="-119.5" font-family="Helvetica,sans-Serif" font-size="10.00">dolphin/gx/GX.h</text>
</a>
</g>
</g>
<!-- Node3&#45;&gt;Node11 -->
<g id="edge17" class="edge">
<title>Node3&#45;&gt;Node11</title>
<path fill="none" stroke="midnightblue" d="M369.9,-370.05C349.57,-362.53 328.92,-350.9 316,-333 273.68,-274.38 285.35,-181.21 292.89,-141.7"/>
<polygon fill="midnightblue" stroke="midnightblue" points="296.37,-142.15 294.95,-131.65 289.52,-140.75 296.37,-142.15"/>
</g>
<!-- Node4&#45;&gt;Node5 -->
<g id="edge4" class="edge">
<title>Node4&#45;&gt;Node5</title>
<path fill="none" stroke="midnightblue" d="M396.78,-302.19C411.84,-278.71 439,-230.07 439,-184.5 439,-184.5 439,-184.5 439,-121 439,-88.49 447.16,-51.35 452.78,-29.61"/>
<polygon fill="midnightblue" stroke="midnightblue" points="456.22,-30.32 455.44,-19.75 449.46,-28.5 456.22,-30.32"/>
</g>
<!-- Node6&#45;&gt;Node5 -->
<g id="edge16" class="edge">
<title>Node6&#45;&gt;Node5</title>
<path fill="none" stroke="midnightblue" d="M555.74,-302.25C548.56,-292.53 539.6,-279.1 534,-266 519.38,-231.8 515,-221.69 515,-184.5 515,-184.5 515,-184.5 515,-121 515,-84.3 489.68,-47.66 472.79,-27.3"/>
<polygon fill="midnightblue" stroke="midnightblue" points="475.35,-24.9 466.17,-19.62 470.05,-29.48 475.35,-24.9"/>
</g>
<!-- Node6&#45;&gt;Node7 -->
<g id="edge6" class="edge">
<title>Node6&#45;&gt;Node7</title>
<path fill="none" stroke="midnightblue" d="M573.51,-302.4C577.96,-292.76 583.89,-279.91 588.68,-269.54"/>
<polygon fill="midnightblue" stroke="midnightblue" points="591.97,-270.74 592.99,-260.19 585.62,-267.81 591.97,-270.74"/>
</g>
<!-- Node7&#45;&gt;Node5 -->
<g id="edge15" class="edge">
<title>Node7&#45;&gt;Node5</title>
<path fill="none" stroke="midnightblue" d="M595.99,-240.81C592.23,-211.67 576.66,-115.92 529,-56 518.12,-42.32 501.88,-31.59 487.68,-24.05"/>
<polygon fill="midnightblue" stroke="midnightblue" points="489.22,-20.91 478.71,-19.55 486.08,-27.16 489.22,-20.91"/>
</g>
<!-- Node8 -->
<g id="node8" class="node">
<title>Node8</title>
<g id="a_node8"><a xlink:href="mtx_8h.html" target="_top" xlink:title=" ">
<polygon fill="white" stroke="black" points="639,-174 639,-193 731,-193 731,-174 639,-174"/>
<text text-anchor="middle" x="685" y="-181" font-family="Helvetica,sans-Serif" font-size="10.00">dolphin/mtx/mtx.h</text>
</a>
</g>
</g>
<!-- Node7&#45;&gt;Node8 -->
<g id="edge7" class="edge">
<title>Node7&#45;&gt;Node8</title>
<path fill="none" stroke="midnightblue" d="M608.87,-240.73C623.25,-230.11 647.7,-212.05 665.01,-199.26"/>
<polygon fill="midnightblue" stroke="midnightblue" points="667.36,-201.88 673.32,-193.13 663.2,-196.25 667.36,-201.88"/>
</g>
<!-- Node10 -->
<g id="node10" class="node">
<title>Node10</title>
<g id="a_node10"><a xlink:href="vec_8h.html" target="_top" xlink:title=" ">
<polygon fill="white" stroke="black" points="582,-56.5 582,-75.5 674,-75.5 674,-56.5 582,-56.5"/>
<text text-anchor="middle" x="628" y="-63.5" font-family="Helvetica,sans-Serif" font-size="10.00">dolphin/mtx/vec.h</text>
</a>
</g>
</g>
<!-- Node7&#45;&gt;Node10 -->
<g id="edge14" class="edge">
<title>Node7&#45;&gt;Node10</title>
<path fill="none" stroke="midnightblue" d="M598.5,-240.7C603.27,-212.57 618.24,-124.46 624.83,-85.66"/>
<polygon fill="midnightblue" stroke="midnightblue" points="628.3,-86.16 626.52,-75.71 621.39,-84.99 628.3,-86.16"/>
</g>
<!-- Node8&#45;&gt;Node5 -->
<g id="edge13" class="edge">
<title>Node8&#45;&gt;Node5</title>
<path fill="none" stroke="midnightblue" d="M709.29,-173.92C727.42,-166.07 750.91,-152.54 762,-132 784.71,-89.95 710.25,-59.69 703,-56 641.15,-24.55 560.59,-14.84 509.07,-11.98"/>
<polygon fill="midnightblue" stroke="midnightblue" points="509.01,-8.47 498.85,-11.48 508.67,-15.47 509.01,-8.47"/>
</g>
<!-- Node9 -->
<g id="node9" class="node">
<title>Node9</title>
<g id="a_node9"><a xlink:href="quat_8h.html" target="_top" xlink:title=" ">
<polygon fill="white" stroke="black" points="657.5,-112.5 657.5,-131.5 752.5,-131.5 752.5,-112.5 657.5,-112.5"/>
<text text-anchor="middle" x="705" y="-119.5" font-family="Helvetica,sans-Serif" font-size="10.00">dolphin/mtx/quat.h</text>
</a>
</g>
</g>
<!-- Node8&#45;&gt;Node9 -->
<g id="edge8" class="edge">
<title>Node8&#45;&gt;Node9</title>
<path fill="none" stroke="midnightblue" d="M687.87,-173.98C690.72,-165.49 695.18,-152.2 698.84,-141.32"/>
<polygon fill="midnightblue" stroke="midnightblue" points="702.27,-142.1 702.14,-131.51 695.64,-139.87 702.27,-142.1"/>
</g>
<!-- Node8&#45;&gt;Node10 -->
<g id="edge12" class="edge">
<title>Node8&#45;&gt;Node10</title>
<path fill="none" stroke="midnightblue" d="M677.47,-173.73C669.48,-164.06 656.93,-147.78 649,-132 641.51,-117.1 635.91,-98.96 632.39,-85.63"/>
<polygon fill="midnightblue" stroke="midnightblue" points="635.74,-84.6 629.92,-75.74 628.94,-86.29 635.74,-84.6"/>
</g>
<!-- Node9&#45;&gt;Node5 -->
<g id="edge11" class="edge">
<title>Node9&#45;&gt;Node5</title>
<path fill="none" stroke="midnightblue" d="M704.7,-112.36C703.72,-98.31 699.65,-70.63 683,-56 657.59,-33.68 566.9,-21.17 508.71,-15.28"/>
<polygon fill="midnightblue" stroke="midnightblue" points="508.89,-11.78 498.6,-14.29 508.21,-18.74 508.89,-11.78"/>
</g>
<!-- Node9&#45;&gt;Node10 -->
<g id="edge9" class="edge">
<title>Node9&#45;&gt;Node10</title>
<path fill="none" stroke="midnightblue" d="M692.63,-112.32C680.84,-104.06 662.87,-91.45 648.86,-81.63"/>
<polygon fill="midnightblue" stroke="midnightblue" points="650.54,-78.53 640.34,-75.65 646.52,-84.26 650.54,-78.53"/>
</g>
<!-- Node10&#45;&gt;Node5 -->
<g id="edge10" class="edge">
<title>Node10&#45;&gt;Node5</title>
<path fill="none" stroke="midnightblue" d="M601.06,-56.44C572.34,-47.32 526.67,-32.81 494.68,-22.65"/>
<polygon fill="midnightblue" stroke="midnightblue" points="495.4,-19.21 484.81,-19.52 493.28,-25.88 495.4,-19.21"/>
</g>
<!-- Node11&#45;&gt;Node5 -->
<g id="edge22" class="edge">
<title>Node11&#45;&gt;Node5</title>
<path fill="none" stroke="midnightblue" d="M315.92,-112.47C333.61,-104.15 360.46,-90.65 382,-76 404.05,-61.01 426.99,-40.61 441.82,-26.69"/>
<polygon fill="midnightblue" stroke="midnightblue" points="444.34,-29.13 449.17,-19.7 439.51,-24.06 444.34,-29.13"/>
</g>
<!-- Node12 -->
<g id="node12" class="node">
<title>Node12</title>
<g id="a_node12"><a xlink:href="GXDisplayList_8h.html" target="_top" xlink:title=" ">
<polygon fill="white" stroke="black" points="104.5,-56.5 104.5,-75.5 237.5,-75.5 237.5,-56.5 104.5,-56.5"/>
<text text-anchor="middle" x="171" y="-63.5" font-family="Helvetica,sans-Serif" font-size="10.00">dolphin/gx/GXDisplayList.h</text>
</a>
</g>
</g>
<!-- Node11&#45;&gt;Node12 -->
<g id="edge18" class="edge">
<title>Node11&#45;&gt;Node12</title>
<path fill="none" stroke="midnightblue" d="M277.03,-112.44C256.39,-103.6 223.94,-89.69 200.37,-79.59"/>
<polygon fill="midnightblue" stroke="midnightblue" points="201.44,-76.24 190.87,-75.52 198.68,-82.67 201.44,-76.24"/>
</g>
<!-- Node13 -->
<g id="node13" class="node">
<title>Node13</title>
<g id="a_node13"><a xlink:href="GXTexture_8h.html" target="_top" xlink:title=" ">
<polygon fill="white" stroke="black" points="255.5,-56.5 255.5,-75.5 372.5,-75.5 372.5,-56.5 255.5,-56.5"/>
<text text-anchor="middle" x="314" y="-63.5" font-family="Helvetica,sans-Serif" font-size="10.00">dolphin/gx/GXTexture.h</text>
</a>
</g>
</g>
<!-- Node11&#45;&gt;Node13 -->
<g id="edge20" class="edge">
<title>Node11&#45;&gt;Node13</title>
<path fill="none" stroke="midnightblue" d="M299.81,-112.08C302.08,-104.85 305.37,-94.41 308.21,-85.4"/>
<polygon fill="midnightblue" stroke="midnightblue" points="311.58,-86.34 311.25,-75.75 304.9,-84.24 311.58,-86.34"/>
</g>
<!-- Node12&#45;&gt;Node5 -->
<g id="edge19" class="edge">
<title>Node12&#45;&gt;Node5</title>
<path fill="none" stroke="midnightblue" d="M216.48,-56.44C268.45,-46.66 353.28,-30.7 407.33,-20.53"/>
<polygon fill="midnightblue" stroke="midnightblue" points="408.2,-23.93 417.38,-18.64 406.9,-17.05 408.2,-23.93"/>
</g>
<!-- Node13&#45;&gt;Node5 -->
<g id="edge21" class="edge">
<title>Node13&#45;&gt;Node5</title>
<path fill="none" stroke="midnightblue" d="M336.82,-56.44C360.83,-47.44 398.83,-33.19 425.87,-23.05"/>
<polygon fill="midnightblue" stroke="midnightblue" points="427.16,-26.3 435.29,-19.52 424.7,-19.75 427.16,-26.3"/>
</g>
<!-- Node14&#45;&gt;Node5 -->
<g id="edge27" class="edge">
<title>Node14&#45;&gt;Node5</title>
<path fill="none" stroke="midnightblue" d="M175.21,-168.33C132.56,-144.79 59.43,-96.25 95,-56 115.32,-33.01 311.83,-19.09 406.93,-13.64"/>
<polygon fill="midnightblue" stroke="midnightblue" points="407.4,-17.12 417.19,-13.06 407.01,-10.13 407.4,-17.12"/>
</g>
<!-- Node14&#45;&gt;Node11 -->
<g id="edge26" class="edge">
<title>Node14&#45;&gt;Node11</title>
<path fill="none" stroke="midnightblue" d="M225.28,-168.4C240.2,-158.95 259.78,-146.56 274.71,-137.11"/>
<polygon fill="midnightblue" stroke="midnightblue" points="276.74,-139.96 283.32,-131.66 273,-134.05 276.74,-139.96"/>
</g>
<!-- Node15&#45;&gt;Node5 -->
<g id="edge29" class="edge">
<title>Node15&#45;&gt;Node5</title>
<path fill="none" stroke="midnightblue" d="M92.55,-235.42C75.06,-200.24 36.2,-107.6 82,-56 103.24,-32.07 309.57,-18.51 407.24,-13.39"/>
<polygon fill="midnightblue" stroke="midnightblue" points="407.66,-16.87 417.47,-12.86 407.3,-9.88 407.66,-16.87"/>
</g>
</g>
</svg>
