<?xml version="1.0" encoding="UTF-8" standalone="no"?>
<!DOCTYPE svg PUBLIC "-//W3C//DTD SVG 1.1//EN"
 "http://www.w3.org/Graphics/SVG/1.1/DTD/svg11.dtd">
<!-- Generated by graphviz version 2.44.0 ()
 -->
<!-- Title: include/JSystem/J3DGraphBase/J3DTexture.h Pages: 1 -->
<svg width="616pt" height="319pt"
 viewBox="0.00 0.00 615.50 319.00" xmlns="http://www.w3.org/2000/svg" xmlns:xlink="http://www.w3.org/1999/xlink">
<g id="graph0" class="graph" transform="scale(1 1) rotate(0) translate(4 315)">
<title>include/JSystem/J3DGraphBase/J3DTexture.h</title>
<polygon fill="white" stroke="transparent" points="-4,4 -4,-315 611.5,-315 611.5,4 -4,4"/>
<!-- Node1 -->
<g id="node1" class="node">
<title>Node1</title>
<g id="a_node1"><a xlink:title=" ">
<polygon fill="#bfbfbf" stroke="black" points="344,-280.5 344,-310.5 479,-310.5 479,-280.5 344,-280.5"/>
<text text-anchor="start" x="352" y="-298.5" font-family="Helvetica,sans-Serif" font-size="10.00">include/JSystem/J3DGraph</text>
<text text-anchor="middle" x="411.5" y="-287.5" font-family="Helvetica,sans-Serif" font-size="10.00">Base/J3DTexture.h</text>
</a>
</g>
</g>
<!-- Node2 -->
<g id="node2" class="node">
<title>Node2</title>
<g id="a_node2"><a xlink:href="JUTTexture_8h.html" target="_top" xlink:title=" ">
<polygon fill="white" stroke="black" points="235,-224.5 235,-243.5 384,-243.5 384,-224.5 235,-224.5"/>
<text text-anchor="middle" x="309.5" y="-231.5" font-family="Helvetica,sans-Serif" font-size="10.00">JSystem/JUtility/JUTTexture.h</text>
</a>
</g>
</g>
<!-- Node1&#45;&gt;Node2 -->
<g id="edge1" class="edge">
<title>Node1&#45;&gt;Node2</title>
<path fill="none" stroke="midnightblue" d="M387.33,-280.4C370.98,-270.86 349.49,-258.32 333.23,-248.84"/>
<polygon fill="midnightblue" stroke="midnightblue" points="334.74,-245.67 324.34,-243.66 331.22,-251.72 334.74,-245.67"/>
</g>
<!-- Node6 -->
<g id="node6" class="node">
<title>Node6</title>
<g id="a_node6"><a xlink:href="types_8h.html" target="_top" xlink:title=" ">
<polygon fill="white" stroke="black" points="333,-0.5 333,-19.5 414,-19.5 414,-0.5 333,-0.5"/>
<text text-anchor="middle" x="373.5" y="-7.5" font-family="Helvetica,sans-Serif" font-size="10.00">dolphin/types.h</text>
</a>
</g>
</g>
<!-- Node1&#45;&gt;Node6 -->
<g id="edge18" class="edge">
<title>Node1&#45;&gt;Node6</title>
<path fill="none" stroke="midnightblue" d="M411.5,-280.28C411.5,-258.48 411.5,-215.49 411.5,-179 411.5,-179 411.5,-179 411.5,-121 411.5,-86.81 394.9,-49.76 383.64,-28.57"/>
<polygon fill="midnightblue" stroke="midnightblue" points="386.68,-26.83 378.78,-19.77 380.55,-30.22 386.68,-26.83"/>
</g>
<!-- Node8 -->
<g id="node8" class="node">
<title>Node8</title>
<g id="a_node8"><a xlink:href="mtx_8h.html" target="_top" xlink:title=" ">
<polygon fill="white" stroke="black" points="459.5,-168.5 459.5,-187.5 551.5,-187.5 551.5,-168.5 459.5,-168.5"/>
<text text-anchor="middle" x="505.5" y="-175.5" font-family="Helvetica,sans-Serif" font-size="10.00">dolphin/mtx/mtx.h</text>
</a>
</g>
</g>
<!-- Node1&#45;&gt;Node8 -->
<g id="edge11" class="edge">
<title>Node1&#45;&gt;Node8</title>
<path fill="none" stroke="midnightblue" d="M423.03,-280.34C440.5,-258.86 473.62,-218.17 492.13,-195.43"/>
<polygon fill="midnightblue" stroke="midnightblue" points="494.85,-197.63 498.44,-187.67 489.42,-193.22 494.85,-197.63"/>
</g>
<!-- Node3 -->
<g id="node3" class="node">
<title>Node3</title>
<g id="a_node3"><a xlink:href="JUTPalette_8h.html" target="_top" xlink:title=" ">
<polygon fill="white" stroke="black" points="197.5,-168.5 197.5,-187.5 345.5,-187.5 345.5,-168.5 197.5,-168.5"/>
<text text-anchor="middle" x="271.5" y="-175.5" font-family="Helvetica,sans-Serif" font-size="10.00">JSystem/JUtility/JUTPalette.h</text>
</a>
</g>
</g>
<!-- Node2&#45;&gt;Node3 -->
<g id="edge2" class="edge">
<title>Node2&#45;&gt;Node3</title>
<path fill="none" stroke="midnightblue" d="M303.23,-224.08C297.86,-216.46 289.98,-205.26 283.42,-195.94"/>
<polygon fill="midnightblue" stroke="midnightblue" points="286.28,-193.91 277.66,-187.75 280.55,-197.94 286.28,-193.91"/>
</g>
<!-- Node2&#45;&gt;Node6 -->
<g id="edge10" class="edge">
<title>Node2&#45;&gt;Node6</title>
<path fill="none" stroke="midnightblue" d="M322.16,-224.25C332.75,-216.17 347.25,-203.15 354.5,-188 379.79,-135.13 378.04,-63.46 375.43,-29.86"/>
<polygon fill="midnightblue" stroke="midnightblue" points="378.89,-29.3 374.51,-19.65 371.92,-29.92 378.89,-29.3"/>
</g>
<!-- Node4 -->
<g id="node4" class="node">
<title>Node4</title>
<g id="a_node4"><a xlink:href="GX_8h.html" target="_top" xlink:title=" ">
<polygon fill="white" stroke="black" points="163,-112.5 163,-131.5 248,-131.5 248,-112.5 163,-112.5"/>
<text text-anchor="middle" x="205.5" y="-119.5" font-family="Helvetica,sans-Serif" font-size="10.00">dolphin/gx/GX.h</text>
</a>
</g>
</g>
<!-- Node3&#45;&gt;Node4 -->
<g id="edge3" class="edge">
<title>Node3&#45;&gt;Node4</title>
<path fill="none" stroke="midnightblue" d="M260.9,-168.32C251.04,-160.26 236.15,-148.08 224.28,-138.37"/>
<polygon fill="midnightblue" stroke="midnightblue" points="226.25,-135.46 216.3,-131.83 221.82,-140.88 226.25,-135.46"/>
</g>
<!-- Node3&#45;&gt;Node6 -->
<g id="edge9" class="edge">
<title>Node3&#45;&gt;Node6</title>
<path fill="none" stroke="midnightblue" d="M276.98,-168.08C293.25,-141.61 341.42,-63.21 362.93,-28.21"/>
<polygon fill="midnightblue" stroke="midnightblue" points="365.98,-29.92 368.24,-19.57 360.02,-26.26 365.98,-29.92"/>
</g>
<!-- Node5 -->
<g id="node5" class="node">
<title>Node5</title>
<g id="a_node5"><a xlink:href="GXDisplayList_8h.html" target="_top" xlink:title=" ">
<polygon fill="white" stroke="black" points="0,-56.5 0,-75.5 133,-75.5 133,-56.5 0,-56.5"/>
<text text-anchor="middle" x="66.5" y="-63.5" font-family="Helvetica,sans-Serif" font-size="10.00">dolphin/gx/GXDisplayList.h</text>
</a>
</g>
</g>
<!-- Node4&#45;&gt;Node5 -->
<g id="edge4" class="edge">
<title>Node4&#45;&gt;Node5</title>
<path fill="none" stroke="midnightblue" d="M183.48,-112.44C160.4,-103.48 123.94,-89.31 97.86,-79.18"/>
<polygon fill="midnightblue" stroke="midnightblue" points="99.01,-75.88 88.42,-75.52 96.48,-82.4 99.01,-75.88"/>
</g>
<!-- Node4&#45;&gt;Node6 -->
<g id="edge8" class="edge">
<title>Node4&#45;&gt;Node6</title>
<path fill="none" stroke="midnightblue" d="M197.01,-112.17C185.23,-98.82 166.82,-73.24 180.5,-56 197.96,-34 271.64,-21.76 322.73,-15.78"/>
<polygon fill="midnightblue" stroke="midnightblue" points="323.4,-19.22 332.95,-14.63 322.62,-12.27 323.4,-19.22"/>
</g>
<!-- Node7 -->
<g id="node7" class="node">
<title>Node7</title>
<g id="a_node7"><a xlink:href="GXTexture_8h.html" target="_top" xlink:title=" ">
<polygon fill="white" stroke="black" points="190,-56.5 190,-75.5 307,-75.5 307,-56.5 190,-56.5"/>
<text text-anchor="middle" x="248.5" y="-63.5" font-family="Helvetica,sans-Serif" font-size="10.00">dolphin/gx/GXTexture.h</text>
</a>
</g>
</g>
<!-- Node4&#45;&gt;Node7 -->
<g id="edge6" class="edge">
<title>Node4&#45;&gt;Node7</title>
<path fill="none" stroke="midnightblue" d="M212.6,-112.08C218.74,-104.38 227.77,-93.03 235.24,-83.65"/>
<polygon fill="midnightblue" stroke="midnightblue" points="238.04,-85.75 241.53,-75.75 232.56,-81.39 238.04,-85.75"/>
</g>
<!-- Node5&#45;&gt;Node6 -->
<g id="edge5" class="edge">
<title>Node5&#45;&gt;Node6</title>
<path fill="none" stroke="midnightblue" d="M115.15,-56.44C171.93,-46.46 265.37,-30.02 322.96,-19.89"/>
<polygon fill="midnightblue" stroke="midnightblue" points="323.68,-23.32 332.93,-18.14 322.47,-16.42 323.68,-23.32"/>
</g>
<!-- Node7&#45;&gt;Node6 -->
<g id="edge7" class="edge">
<title>Node7&#45;&gt;Node6</title>
<path fill="none" stroke="midnightblue" d="M268.31,-56.44C288.79,-47.6 320.98,-33.69 344.36,-23.59"/>
<polygon fill="midnightblue" stroke="midnightblue" points="345.99,-26.7 353.79,-19.52 343.22,-20.27 345.99,-26.7"/>
</g>
<!-- Node8&#45;&gt;Node6 -->
<g id="edge17" class="edge">
<title>Node8&#45;&gt;Node6</title>
<path fill="none" stroke="midnightblue" d="M497.66,-168.39C489.82,-159.58 477.66,-145.34 468.5,-132 446.54,-100 450.09,-86.03 425.5,-56 416.28,-44.74 404.05,-34 393.77,-25.84"/>
<polygon fill="midnightblue" stroke="midnightblue" points="395.76,-22.96 385.7,-19.64 391.5,-28.51 395.76,-22.96"/>
</g>
<!-- Node9 -->
<g id="node9" class="node">
<title>Node9</title>
<g id="a_node9"><a xlink:href="quat_8h.html" target="_top" xlink:title=" ">
<polygon fill="white" stroke="black" points="478,-112.5 478,-131.5 573,-131.5 573,-112.5 478,-112.5"/>
<text text-anchor="middle" x="525.5" y="-119.5" font-family="Helvetica,sans-Serif" font-size="10.00">dolphin/mtx/quat.h</text>
</a>
</g>
</g>
<!-- Node8&#45;&gt;Node9 -->
<g id="edge12" class="edge">
<title>Node8&#45;&gt;Node9</title>
<path fill="none" stroke="midnightblue" d="M508.8,-168.08C511.48,-160.85 515.35,-150.41 518.69,-141.4"/>
<polygon fill="midnightblue" stroke="midnightblue" points="522.07,-142.34 522.26,-131.75 515.5,-139.91 522.07,-142.34"/>
</g>
<!-- Node10 -->
<g id="node10" class="node">
<title>Node10</title>
<g id="a_node10"><a xlink:href="vec_8h.html" target="_top" xlink:title=" ">
<polygon fill="white" stroke="black" points="515.5,-56.5 515.5,-75.5 607.5,-75.5 607.5,-56.5 515.5,-56.5"/>
<text text-anchor="middle" x="561.5" y="-63.5" font-family="Helvetica,sans-Serif" font-size="10.00">dolphin/mtx/vec.h</text>
</a>
</g>
</g>
<!-- Node8&#45;&gt;Node10 -->
<g id="edge16" class="edge">
<title>Node8&#45;&gt;Node10</title>
<path fill="none" stroke="midnightblue" d="M533.52,-168.4C550.67,-161.51 571.25,-149.98 581.5,-132 590.05,-117 582.3,-97.92 574.09,-84.32"/>
<polygon fill="midnightblue" stroke="midnightblue" points="576.96,-82.32 568.52,-75.9 571.12,-86.18 576.96,-82.32"/>
</g>
<!-- Node9&#45;&gt;Node6 -->
<g id="edge15" class="edge">
<title>Node9&#45;&gt;Node6</title>
<path fill="none" stroke="midnightblue" d="M518.68,-112.07C508.03,-98.6 486.33,-72.87 463.5,-56 445.6,-42.77 423.22,-31.57 405.26,-23.64"/>
<polygon fill="midnightblue" stroke="midnightblue" points="406.36,-20.31 395.79,-19.59 403.61,-26.74 406.36,-20.31"/>
</g>
<!-- Node9&#45;&gt;Node10 -->
<g id="edge13" class="edge">
<title>Node9&#45;&gt;Node10</title>
<path fill="none" stroke="midnightblue" d="M531.44,-112.08C536.48,-104.53 543.84,-93.49 550.01,-84.23"/>
<polygon fill="midnightblue" stroke="midnightblue" points="553.03,-86.01 555.67,-75.75 547.21,-82.13 553.03,-86.01"/>
</g>
<!-- Node10&#45;&gt;Node6 -->
<g id="edge14" class="edge">
<title>Node10&#45;&gt;Node6</title>
<path fill="none" stroke="midnightblue" d="M531.71,-56.44C499.67,-47.24 448.57,-32.56 413.15,-22.39"/>
<polygon fill="midnightblue" stroke="midnightblue" points="413.73,-18.91 403.15,-19.52 411.79,-25.64 413.73,-18.91"/>
</g>
</g>
</svg>
