<?xml version="1.0" encoding="UTF-8" standalone="no"?>
<!DOCTYPE svg PUBLIC "-//W3C//DTD SVG 1.1//EN"
 "http://www.w3.org/Graphics/SVG/1.1/DTD/svg11.dtd">
<!-- Generated by graphviz version 2.44.0 ()
 -->
<!-- Title: libs/JSystem/J3DGraphBase/J3DTexture.cpp Pages: 1 -->
<svg width="1352pt" height="397pt"
 viewBox="0.00 0.00 1351.50 397.00" xmlns="http://www.w3.org/2000/svg" xmlns:xlink="http://www.w3.org/1999/xlink">
<g id="graph0" class="graph" transform="scale(1 1) rotate(0) translate(4 393)">
<title>libs/JSystem/J3DGraphBase/J3DTexture.cpp</title>
<polygon fill="white" stroke="transparent" points="-4,4 -4,-393 1347.5,-393 1347.5,4 -4,4"/>
<!-- Node1 -->
<g id="node1" class="node">
<title>Node1</title>
<g id="a_node1"><a xlink:title=" ">
<polygon fill="#bfbfbf" stroke="black" points="695.5,-358.5 695.5,-388.5 837.5,-388.5 837.5,-358.5 695.5,-358.5"/>
<text text-anchor="start" x="703.5" y="-376.5" font-family="Helvetica,sans-Serif" font-size="10.00">libs/JSystem/J3DGraphBase</text>
<text text-anchor="middle" x="766.5" y="-365.5" font-family="Helvetica,sans-Serif" font-size="10.00">/J3DTexture.cpp</text>
</a>
</g>
</g>
<!-- Node2 -->
<g id="node2" class="node">
<title>Node2</title>
<g id="a_node2"><a xlink:href="J3DTexture_8h.html" target="_top" xlink:title=" ">
<polygon fill="white" stroke="black" points="378.5,-286 378.5,-316 502.5,-316 502.5,-286 378.5,-286"/>
<text text-anchor="start" x="386.5" y="-304" font-family="Helvetica,sans-Serif" font-size="10.00">JSystem/J3DGraphBase</text>
<text text-anchor="middle" x="440.5" y="-293" font-family="Helvetica,sans-Serif" font-size="10.00">/J3DTexture.h</text>
</a>
</g>
</g>
<!-- Node1&#45;&gt;Node2 -->
<g id="edge1" class="edge">
<title>Node1&#45;&gt;Node2</title>
<path fill="none" stroke="midnightblue" d="M701.7,-358.49C647.14,-346.69 569.17,-329.82 512.63,-317.6"/>
<polygon fill="midnightblue" stroke="midnightblue" points="513.2,-314.14 502.69,-315.45 511.72,-320.98 513.2,-314.14"/>
</g>
<!-- Node7 -->
<g id="node7" class="node">
<title>Node7</title>
<g id="a_node7"><a xlink:href="types_8h.html" target="_top" xlink:title=" ">
<polygon fill="white" stroke="black" points="352,-0.5 352,-19.5 433,-19.5 433,-0.5 352,-0.5"/>
<text text-anchor="middle" x="392.5" y="-7.5" font-family="Helvetica,sans-Serif" font-size="10.00">dolphin/types.h</text>
</a>
</g>
</g>
<!-- Node1&#45;&gt;Node7 -->
<g id="edge21" class="edge">
<title>Node1&#45;&gt;Node7</title>
<path fill="none" stroke="midnightblue" d="M712.82,-358.46C693.07,-350.74 672.2,-339.14 658.5,-322 633.79,-291.08 639.5,-274.58 639.5,-235 639.5,-235 639.5,-235 639.5,-121 639.5,-90.36 639.65,-76.08 616.5,-56 591.13,-34 501.32,-21.41 443.41,-15.41"/>
<polygon fill="midnightblue" stroke="midnightblue" points="443.65,-11.92 433.35,-14.4 442.95,-18.89 443.65,-11.92"/>
</g>
<!-- Node12 -->
<g id="node12" class="node">
<title>Node12</title>
<g id="a_node12"><a xlink:href="dol2asm_8h.html" target="_top" xlink:title=" ">
<polygon fill="white" stroke="black" points="668,-291.5 668,-310.5 729,-310.5 729,-291.5 668,-291.5"/>
<text text-anchor="middle" x="698.5" y="-298.5" font-family="Helvetica,sans-Serif" font-size="10.00">dol2asm.h</text>
</a>
</g>
</g>
<!-- Node1&#45;&gt;Node12 -->
<g id="edge20" class="edge">
<title>Node1&#45;&gt;Node12</title>
<path fill="none" stroke="midnightblue" d="M752.74,-358.23C741.53,-346.62 725.72,-330.22 714.05,-318.12"/>
<polygon fill="midnightblue" stroke="midnightblue" points="716.54,-315.66 707.08,-310.89 711.5,-320.52 716.54,-315.66"/>
</g>
<!-- Node13 -->
<g id="node13" class="node">
<title>Node13</title>
<g id="a_node13"><a xlink:title=" ">
<polygon fill="white" stroke="#bfbfbf" points="747,-280.5 747,-321.5 922,-321.5 922,-280.5 747,-280.5"/>
<text text-anchor="start" x="755" y="-309.5" font-family="Helvetica,sans-Serif" font-size="10.00">asm/JSystem/J3DGraphBase</text>
<text text-anchor="start" x="755" y="-298.5" font-family="Helvetica,sans-Serif" font-size="10.00">/J3DTexture/loadGX__10J3DTexture</text>
<text text-anchor="middle" x="834.5" y="-287.5" font-family="Helvetica,sans-Serif" font-size="10.00">CFUs11_GXTexMapID.s</text>
</a>
</g>
</g>
<!-- Node1&#45;&gt;Node13 -->
<g id="edge22" class="edge">
<title>Node1&#45;&gt;Node13</title>
<path fill="none" stroke="midnightblue" d="M780.26,-358.23C788.36,-349.83 798.88,-338.93 808.49,-328.97"/>
<polygon fill="midnightblue" stroke="midnightblue" points="811.18,-331.22 815.61,-321.59 806.14,-326.36 811.18,-331.22"/>
</g>
<!-- Node14 -->
<g id="node14" class="node">
<title>Node14</title>
<g id="a_node14"><a xlink:title=" ">
<polygon fill="white" stroke="#bfbfbf" points="940,-286 940,-316 1151,-316 1151,-286 940,-286"/>
<text text-anchor="start" x="948" y="-304" font-family="Helvetica,sans-Serif" font-size="10.00">asm/JSystem/J3DGraphBase</text>
<text text-anchor="middle" x="1045.5" y="-293" font-family="Helvetica,sans-Serif" font-size="10.00">/J3DTexture/entryNum__10J3DTextureFUs.s</text>
</a>
</g>
</g>
<!-- Node1&#45;&gt;Node14 -->
<g id="edge23" class="edge">
<title>Node1&#45;&gt;Node14</title>
<path fill="none" stroke="midnightblue" d="M821.95,-358.49C867.35,-347.02 931.69,-330.76 979.69,-318.63"/>
<polygon fill="midnightblue" stroke="midnightblue" points="980.84,-321.95 989.67,-316.11 979.12,-315.16 980.84,-321.95"/>
</g>
<!-- Node15 -->
<g id="node15" class="node">
<title>Node15</title>
<g id="a_node15"><a xlink:title=" ">
<polygon fill="white" stroke="#bfbfbf" points="1169.5,-280.5 1169.5,-321.5 1343.5,-321.5 1343.5,-280.5 1169.5,-280.5"/>
<text text-anchor="start" x="1177.5" y="-309.5" font-family="Helvetica,sans-Serif" font-size="10.00">asm/JSystem/J3DGraphBase</text>
<text text-anchor="start" x="1177.5" y="-298.5" font-family="Helvetica,sans-Serif" font-size="10.00">/J3DTexture/addResTIMG</text>
<text text-anchor="middle" x="1256.5" y="-287.5" font-family="Helvetica,sans-Serif" font-size="10.00">__10J3DTextureFUsPC7ResTIMG.s</text>
</a>
</g>
</g>
<!-- Node1&#45;&gt;Node15 -->
<g id="edge24" class="edge">
<title>Node1&#45;&gt;Node15</title>
<path fill="none" stroke="midnightblue" d="M837.56,-365.08C914.49,-356.66 1040.96,-341.72 1159.46,-322.11"/>
<polygon fill="midnightblue" stroke="midnightblue" points="1160.15,-325.55 1169.43,-320.45 1159,-318.64 1160.15,-325.55"/>
</g>
<!-- Node3 -->
<g id="node3" class="node">
<title>Node3</title>
<g id="a_node3"><a xlink:href="JUTTexture_8h.html" target="_top" xlink:title=" ">
<polygon fill="white" stroke="black" points="235,-224.5 235,-243.5 384,-243.5 384,-224.5 235,-224.5"/>
<text text-anchor="middle" x="309.5" y="-231.5" font-family="Helvetica,sans-Serif" font-size="10.00">JSystem/JUtility/JUTTexture.h</text>
</a>
</g>
</g>
<!-- Node2&#45;&gt;Node3 -->
<g id="edge2" class="edge">
<title>Node2&#45;&gt;Node3</title>
<path fill="none" stroke="midnightblue" d="M412.07,-285.9C389.39,-274.64 357.87,-259 335.78,-248.04"/>
<polygon fill="midnightblue" stroke="midnightblue" points="337.16,-244.82 326.64,-243.51 334.05,-251.09 337.16,-244.82"/>
</g>
<!-- Node2&#45;&gt;Node7 -->
<g id="edge19" class="edge">
<title>Node2&#45;&gt;Node7</title>
<path fill="none" stroke="midnightblue" d="M434.77,-285.74C426.32,-263.38 411.5,-218.53 411.5,-179 411.5,-179 411.5,-179 411.5,-121 411.5,-88.49 403.34,-51.35 397.72,-29.61"/>
<polygon fill="midnightblue" stroke="midnightblue" points="401.04,-28.5 395.06,-19.75 394.28,-30.32 401.04,-28.5"/>
</g>
<!-- Node9 -->
<g id="node9" class="node">
<title>Node9</title>
<g id="a_node9"><a xlink:href="mtx_8h.html" target="_top" xlink:title=" ">
<polygon fill="white" stroke="black" points="460.5,-168.5 460.5,-187.5 552.5,-187.5 552.5,-168.5 460.5,-168.5"/>
<text text-anchor="middle" x="506.5" y="-175.5" font-family="Helvetica,sans-Serif" font-size="10.00">dolphin/mtx/mtx.h</text>
</a>
</g>
</g>
<!-- Node2&#45;&gt;Node9 -->
<g id="edge12" class="edge">
<title>Node2&#45;&gt;Node9</title>
<path fill="none" stroke="midnightblue" d="M448.33,-285.64C460.46,-263.41 483.76,-220.69 496.89,-196.61"/>
<polygon fill="midnightblue" stroke="midnightblue" points="500.12,-198.01 501.84,-187.55 493.97,-194.66 500.12,-198.01"/>
</g>
<!-- Node4 -->
<g id="node4" class="node">
<title>Node4</title>
<g id="a_node4"><a xlink:href="JUTPalette_8h.html" target="_top" xlink:title=" ">
<polygon fill="white" stroke="black" points="197.5,-168.5 197.5,-187.5 345.5,-187.5 345.5,-168.5 197.5,-168.5"/>
<text text-anchor="middle" x="271.5" y="-175.5" font-family="Helvetica,sans-Serif" font-size="10.00">JSystem/JUtility/JUTPalette.h</text>
</a>
</g>
</g>
<!-- Node3&#45;&gt;Node4 -->
<g id="edge3" class="edge">
<title>Node3&#45;&gt;Node4</title>
<path fill="none" stroke="midnightblue" d="M303.23,-224.08C297.86,-216.46 289.98,-205.26 283.42,-195.94"/>
<polygon fill="midnightblue" stroke="midnightblue" points="286.28,-193.91 277.66,-187.75 280.55,-197.94 286.28,-193.91"/>
</g>
<!-- Node3&#45;&gt;Node7 -->
<g id="edge11" class="edge">
<title>Node3&#45;&gt;Node7</title>
<path fill="none" stroke="midnightblue" d="M321.36,-224.38C331.73,-216.19 346.37,-202.94 354.5,-188 382.99,-135.65 390.12,-63.73 391.91,-29.96"/>
<polygon fill="midnightblue" stroke="midnightblue" points="395.42,-29.84 392.34,-19.7 388.42,-29.55 395.42,-29.84"/>
</g>
<!-- Node5 -->
<g id="node5" class="node">
<title>Node5</title>
<g id="a_node5"><a xlink:href="GX_8h.html" target="_top" xlink:title=" ">
<polygon fill="white" stroke="black" points="163,-112.5 163,-131.5 248,-131.5 248,-112.5 163,-112.5"/>
<text text-anchor="middle" x="205.5" y="-119.5" font-family="Helvetica,sans-Serif" font-size="10.00">dolphin/gx/GX.h</text>
</a>
</g>
</g>
<!-- Node4&#45;&gt;Node5 -->
<g id="edge4" class="edge">
<title>Node4&#45;&gt;Node5</title>
<path fill="none" stroke="midnightblue" d="M260.9,-168.32C251.04,-160.26 236.15,-148.08 224.28,-138.37"/>
<polygon fill="midnightblue" stroke="midnightblue" points="226.25,-135.46 216.3,-131.83 221.82,-140.88 226.25,-135.46"/>
</g>
<!-- Node4&#45;&gt;Node7 -->
<g id="edge10" class="edge">
<title>Node4&#45;&gt;Node7</title>
<path fill="none" stroke="midnightblue" d="M277.68,-168.48C292.02,-148.71 328.71,-98.16 359.5,-56 366.3,-46.69 373.9,-36.32 380.1,-27.88"/>
<polygon fill="midnightblue" stroke="midnightblue" points="383.07,-29.75 386.16,-19.62 377.42,-25.61 383.07,-29.75"/>
</g>
<!-- Node6 -->
<g id="node6" class="node">
<title>Node6</title>
<g id="a_node6"><a xlink:href="GXDisplayList_8h.html" target="_top" xlink:title=" ">
<polygon fill="white" stroke="black" points="0,-56.5 0,-75.5 133,-75.5 133,-56.5 0,-56.5"/>
<text text-anchor="middle" x="66.5" y="-63.5" font-family="Helvetica,sans-Serif" font-size="10.00">dolphin/gx/GXDisplayList.h</text>
</a>
</g>
</g>
<!-- Node5&#45;&gt;Node6 -->
<g id="edge5" class="edge">
<title>Node5&#45;&gt;Node6</title>
<path fill="none" stroke="midnightblue" d="M183.48,-112.44C160.4,-103.48 123.94,-89.31 97.86,-79.18"/>
<polygon fill="midnightblue" stroke="midnightblue" points="99.01,-75.88 88.42,-75.52 96.48,-82.4 99.01,-75.88"/>
</g>
<!-- Node5&#45;&gt;Node7 -->
<g id="edge9" class="edge">
<title>Node5&#45;&gt;Node7</title>
<path fill="none" stroke="midnightblue" d="M196.97,-112.13C185.13,-98.74 166.65,-73.1 180.5,-56 200.4,-31.43 285.52,-19.73 341.66,-14.59"/>
<polygon fill="midnightblue" stroke="midnightblue" points="342.13,-18.06 351.79,-13.7 341.52,-11.09 342.13,-18.06"/>
</g>
<!-- Node8 -->
<g id="node8" class="node">
<title>Node8</title>
<g id="a_node8"><a xlink:href="GXTexture_8h.html" target="_top" xlink:title=" ">
<polygon fill="white" stroke="black" points="190,-56.5 190,-75.5 307,-75.5 307,-56.5 190,-56.5"/>
<text text-anchor="middle" x="248.5" y="-63.5" font-family="Helvetica,sans-Serif" font-size="10.00">dolphin/gx/GXTexture.h</text>
</a>
</g>
</g>
<!-- Node5&#45;&gt;Node8 -->
<g id="edge7" class="edge">
<title>Node5&#45;&gt;Node8</title>
<path fill="none" stroke="midnightblue" d="M212.6,-112.08C218.74,-104.38 227.77,-93.03 235.24,-83.65"/>
<polygon fill="midnightblue" stroke="midnightblue" points="238.04,-85.75 241.53,-75.75 232.56,-81.39 238.04,-85.75"/>
</g>
<!-- Node6&#45;&gt;Node7 -->
<g id="edge6" class="edge">
<title>Node6&#45;&gt;Node7</title>
<path fill="none" stroke="midnightblue" d="M118.16,-56.44C179.42,-46.29 280.9,-29.49 341.76,-19.4"/>
<polygon fill="midnightblue" stroke="midnightblue" points="342.61,-22.81 351.9,-17.73 341.46,-15.91 342.61,-22.81"/>
</g>
<!-- Node8&#45;&gt;Node7 -->
<g id="edge8" class="edge">
<title>Node8&#45;&gt;Node7</title>
<path fill="none" stroke="midnightblue" d="M271.32,-56.44C295.33,-47.44 333.33,-33.19 360.37,-23.05"/>
<polygon fill="midnightblue" stroke="midnightblue" points="361.66,-26.3 369.79,-19.52 359.2,-19.75 361.66,-26.3"/>
</g>
<!-- Node9&#45;&gt;Node7 -->
<g id="edge18" class="edge">
<title>Node9&#45;&gt;Node7</title>
<path fill="none" stroke="midnightblue" d="M498.42,-168.43C490.35,-159.65 477.85,-145.43 468.5,-132 446.33,-100.15 446.57,-88.59 425.5,-56 419.32,-46.44 411.86,-36.18 405.6,-27.87"/>
<polygon fill="midnightblue" stroke="midnightblue" points="408.25,-25.57 399.39,-19.75 402.68,-29.82 408.25,-25.57"/>
</g>
<!-- Node10 -->
<g id="node10" class="node">
<title>Node10</title>
<g id="a_node10"><a xlink:href="quat_8h.html" target="_top" xlink:title=" ">
<polygon fill="white" stroke="black" points="478,-112.5 478,-131.5 573,-131.5 573,-112.5 478,-112.5"/>
<text text-anchor="middle" x="525.5" y="-119.5" font-family="Helvetica,sans-Serif" font-size="10.00">dolphin/mtx/quat.h</text>
</a>
</g>
</g>
<!-- Node9&#45;&gt;Node10 -->
<g id="edge13" class="edge">
<title>Node9&#45;&gt;Node10</title>
<path fill="none" stroke="midnightblue" d="M509.64,-168.08C512.18,-160.85 515.86,-150.41 519.03,-141.4"/>
<polygon fill="midnightblue" stroke="midnightblue" points="522.4,-142.35 522.42,-131.75 515.8,-140.02 522.4,-142.35"/>
</g>
<!-- Node11 -->
<g id="node11" class="node">
<title>Node11</title>
<g id="a_node11"><a xlink:href="vec_8h.html" target="_top" xlink:title=" ">
<polygon fill="white" stroke="black" points="515.5,-56.5 515.5,-75.5 607.5,-75.5 607.5,-56.5 515.5,-56.5"/>
<text text-anchor="middle" x="561.5" y="-63.5" font-family="Helvetica,sans-Serif" font-size="10.00">dolphin/mtx/vec.h</text>
</a>
</g>
</g>
<!-- Node9&#45;&gt;Node11 -->
<g id="edge17" class="edge">
<title>Node9&#45;&gt;Node11</title>
<path fill="none" stroke="midnightblue" d="M533.78,-168.45C550.79,-161.55 571.33,-149.97 581.5,-132 590.01,-116.97 582.27,-97.9 574.07,-84.31"/>
<polygon fill="midnightblue" stroke="midnightblue" points="576.94,-82.31 568.51,-75.9 571.1,-86.17 576.94,-82.31"/>
</g>
<!-- Node10&#45;&gt;Node7 -->
<g id="edge16" class="edge">
<title>Node10&#45;&gt;Node7</title>
<path fill="none" stroke="midnightblue" d="M518.45,-112.36C507.52,-99.26 485.45,-74 463.5,-56 449.06,-44.16 431.32,-32.91 417.18,-24.62"/>
<polygon fill="midnightblue" stroke="midnightblue" points="418.89,-21.57 408.48,-19.63 415.41,-27.64 418.89,-21.57"/>
</g>
<!-- Node10&#45;&gt;Node11 -->
<g id="edge14" class="edge">
<title>Node10&#45;&gt;Node11</title>
<path fill="none" stroke="midnightblue" d="M531.44,-112.08C536.48,-104.53 543.84,-93.49 550.01,-84.23"/>
<polygon fill="midnightblue" stroke="midnightblue" points="553.03,-86.01 555.67,-75.75 547.21,-82.13 553.03,-86.01"/>
</g>
<!-- Node11&#45;&gt;Node7 -->
<g id="edge15" class="edge">
<title>Node11&#45;&gt;Node7</title>
<path fill="none" stroke="midnightblue" d="M534.72,-56.44C506.17,-47.32 460.77,-32.81 428.96,-22.65"/>
<polygon fill="midnightblue" stroke="midnightblue" points="429.74,-19.23 419.15,-19.52 427.61,-25.89 429.74,-19.23"/>
</g>
</g>
</svg>
