<?xml version="1.0" encoding="UTF-8" standalone="no"?>
<!DOCTYPE svg PUBLIC "-//W3C//DTD SVG 1.1//EN"
 "http://www.w3.org/Graphics/SVG/1.1/DTD/svg11.dtd">
<!-- Generated by graphviz version 2.44.0 ()
 -->
<!-- Title: include/JSystem/JAudio2/JAISoundHandles.h Pages: 1 -->
<svg width="2539pt" height="553pt"
 viewBox="0.00 0.00 2538.50 553.00" xmlns="http://www.w3.org/2000/svg" xmlns:xlink="http://www.w3.org/1999/xlink">
<g id="graph0" class="graph" transform="scale(1 1) rotate(0) translate(4 549)">
<title>include/JSystem/JAudio2/JAISoundHandles.h</title>
<polygon fill="white" stroke="transparent" points="-4,4 -4,-549 2534.5,-549 2534.5,4 -4,4"/>
<!-- Node1 -->
<g id="node1" class="node">
<title>Node1</title>
<g id="a_node1"><a xlink:title=" ">
<polygon fill="#bfbfbf" stroke="black" points="894,-514.5 894,-544.5 1021,-544.5 1021,-514.5 894,-514.5"/>
<text text-anchor="start" x="902" y="-532.5" font-family="Helvetica,sans-Serif" font-size="10.00">include/JSystem/JAudio2</text>
<text text-anchor="middle" x="957.5" y="-521.5" font-family="Helvetica,sans-Serif" font-size="10.00">/JAISoundHandles.h</text>
</a>
</g>
</g>
<!-- Node2 -->
<g id="node2" class="node">
<title>Node2</title>
<g id="a_node2"><a xlink:href="JAISoundHandles_8cpp.html" target="_top" xlink:title=" ">
<polygon fill="white" stroke="black" points="759.5,-447.5 759.5,-477.5 875.5,-477.5 875.5,-447.5 759.5,-447.5"/>
<text text-anchor="start" x="767.5" y="-465.5" font-family="Helvetica,sans-Serif" font-size="10.00">libs/JSystem/JAudio2</text>
<text text-anchor="middle" x="817.5" y="-454.5" font-family="Helvetica,sans-Serif" font-size="10.00">/JAISoundHandles.cpp</text>
</a>
</g>
</g>
<!-- Node1&#45;&gt;Node2 -->
<g id="edge1" class="edge">
<title>Node1&#45;&gt;Node2</title>
<path fill="none" stroke="midnightblue" d="M917.93,-510.13C895.69,-499.8 868.35,-487.11 847.82,-477.58"/>
<polygon fill="midnightblue" stroke="midnightblue" points="916.58,-513.36 927.12,-514.4 919.53,-507.01 916.58,-513.36"/>
</g>
<!-- Node3 -->
<g id="node3" class="node">
<title>Node3</title>
<g id="a_node3"><a xlink:href="JAISound_8h.html" target="_top" xlink:title=" ">
<polygon fill="white" stroke="black" points="894,-447.5 894,-477.5 1021,-477.5 1021,-447.5 894,-447.5"/>
<text text-anchor="start" x="902" y="-465.5" font-family="Helvetica,sans-Serif" font-size="10.00">include/JSystem/JAudio2</text>
<text text-anchor="middle" x="957.5" y="-454.5" font-family="Helvetica,sans-Serif" font-size="10.00">/JAISound.h</text>
</a>
</g>
</g>
<!-- Node1&#45;&gt;Node3 -->
<g id="edge2" class="edge">
<title>Node1&#45;&gt;Node3</title>
<path fill="none" stroke="midnightblue" d="M950.95,-504.4C950.51,-495.37 950.8,-485.41 951.83,-477.58"/>
<polygon fill="midnightblue" stroke="midnightblue" points="947.47,-504.74 951.82,-514.4 954.44,-504.13 947.47,-504.74"/>
</g>
<!-- Node67 -->
<g id="node49" class="node">
<title>Node67</title>
<g id="a_node49"><a xlink:href="Z2SpeechMgr2_8h.html" target="_top" xlink:title=" ">
<polygon fill="white" stroke="black" points="2194.5,-313.5 2194.5,-343.5 2294.5,-343.5 2294.5,-313.5 2194.5,-313.5"/>
<text text-anchor="start" x="2202.5" y="-331.5" font-family="Helvetica,sans-Serif" font-size="10.00">include/Z2AudioLib</text>
<text text-anchor="middle" x="2244.5" y="-320.5" font-family="Helvetica,sans-Serif" font-size="10.00">/Z2SpeechMgr2.h</text>
</a>
</g>
</g>
<!-- Node1&#45;&gt;Node67 -->
<g id="edge70" class="edge">
<title>Node1&#45;&gt;Node67</title>
<path fill="none" stroke="midnightblue" d="M1031.63,-523.12C1195.65,-510.43 1601.22,-474.85 1935.5,-411 2030.46,-392.86 2139.31,-361.66 2199.14,-343.58"/>
<polygon fill="midnightblue" stroke="midnightblue" points="1030.89,-519.66 1021.18,-523.92 1031.42,-526.64 1030.89,-519.66"/>
</g>
<!-- Node3&#45;&gt;Node1 -->
<g id="edge28" class="edge">
<title>Node3&#45;&gt;Node1</title>
<path fill="none" stroke="midnightblue" d="M964.04,-487.57C964.49,-496.6 964.21,-506.56 963.18,-514.4"/>
<polygon fill="midnightblue" stroke="midnightblue" points="967.53,-487.24 963.17,-477.58 960.55,-487.84 967.53,-487.24"/>
</g>
<!-- Node4 -->
<g id="node4" class="node">
<title>Node4</title>
<g id="a_node4"><a xlink:href="JAISound_8cpp.html" target="_top" xlink:title=" ">
<polygon fill="white" stroke="black" points="1815,-380.5 1815,-410.5 1926,-410.5 1926,-380.5 1815,-380.5"/>
<text text-anchor="start" x="1823" y="-398.5" font-family="Helvetica,sans-Serif" font-size="10.00">libs/JSystem/JAudio2</text>
<text text-anchor="middle" x="1870.5" y="-387.5" font-family="Helvetica,sans-Serif" font-size="10.00">/JAISound.cpp</text>
</a>
</g>
</g>
<!-- Node3&#45;&gt;Node4 -->
<g id="edge3" class="edge">
<title>Node3&#45;&gt;Node4</title>
<path fill="none" stroke="midnightblue" d="M1031.44,-461.06C1179.23,-459.32 1521.31,-450.9 1805.5,-411 1808.59,-410.57 1811.75,-410.06 1814.94,-409.51"/>
<polygon fill="midnightblue" stroke="midnightblue" points="1031.1,-457.57 1021.14,-461.18 1031.18,-464.57 1031.1,-457.57"/>
</g>
<!-- Node5 -->
<g id="node5" class="node">
<title>Node5</title>
<g id="a_node5"><a xlink:href="JAIAudience_8h.html" target="_top" xlink:title=" ">
<polygon fill="white" stroke="black" points="280,-380.5 280,-410.5 407,-410.5 407,-380.5 280,-380.5"/>
<text text-anchor="start" x="288" y="-398.5" font-family="Helvetica,sans-Serif" font-size="10.00">include/JSystem/JAudio2</text>
<text text-anchor="middle" x="343.5" y="-387.5" font-family="Helvetica,sans-Serif" font-size="10.00">/JAIAudience.h</text>
</a>
</g>
</g>
<!-- Node3&#45;&gt;Node5 -->
<g id="edge4" class="edge">
<title>Node3&#45;&gt;Node5</title>
<path fill="none" stroke="midnightblue" d="M883.63,-448.22C880.88,-447.78 878.17,-447.37 875.5,-447 682.5,-419.97 632.19,-432.46 438.5,-411 428.35,-409.88 417.67,-408.55 407.26,-407.16"/>
<polygon fill="midnightblue" stroke="midnightblue" points="883.22,-451.7 893.66,-449.9 884.38,-444.79 883.22,-451.7"/>
</g>
<!-- Node7 -->
<g id="node7" class="node">
<title>Node7</title>
<g id="a_node7"><a xlink:href="JAISeMgr_8h.html" target="_top" xlink:title=" ">
<polygon fill="white" stroke="black" points="276,-313.5 276,-343.5 403,-343.5 403,-313.5 276,-313.5"/>
<text text-anchor="start" x="284" y="-331.5" font-family="Helvetica,sans-Serif" font-size="10.00">include/JSystem/JAudio2</text>
<text text-anchor="middle" x="339.5" y="-320.5" font-family="Helvetica,sans-Serif" font-size="10.00">/JAISeMgr.h</text>
</a>
</g>
</g>
<!-- Node3&#45;&gt;Node7 -->
<g id="edge22" class="edge">
<title>Node3&#45;&gt;Node7</title>
<path fill="none" stroke="midnightblue" d="M883.86,-447.05C709.86,-423.38 657.66,-459.86 493.5,-411 442.18,-395.73 388.21,-362.61 359.78,-343.63"/>
<polygon fill="midnightblue" stroke="midnightblue" points="883.48,-450.53 893.87,-448.45 884.45,-443.59 883.48,-450.53"/>
</g>
<!-- Node9 -->
<g id="node9" class="node">
<title>Node9</title>
<g id="a_node9"><a xlink:href="Z2SoundMgr_8h.html" target="_top" xlink:title=" ">
<polygon fill="white" stroke="black" points="655.5,-246.5 655.5,-276.5 755.5,-276.5 755.5,-246.5 655.5,-246.5"/>
<text text-anchor="start" x="663.5" y="-264.5" font-family="Helvetica,sans-Serif" font-size="10.00">include/Z2AudioLib</text>
<text text-anchor="middle" x="705.5" y="-253.5" font-family="Helvetica,sans-Serif" font-size="10.00">/Z2SoundMgr.h</text>
</a>
</g>
</g>
<!-- Node3&#45;&gt;Node9 -->
<g id="edge62" class="edge">
<title>Node3&#45;&gt;Node9</title>
<path fill="none" stroke="midnightblue" d="M883.91,-445.64C825.44,-432.75 752.63,-415.93 747.5,-411 709.45,-374.42 705.09,-306.2 705.1,-276.7"/>
<polygon fill="midnightblue" stroke="midnightblue" points="883.38,-449.11 893.9,-447.84 884.88,-442.27 883.38,-449.11"/>
</g>
<!-- Node11 -->
<g id="node11" class="node">
<title>Node11</title>
<g id="a_node11"><a xlink:href="Z2AudioMgr_8h.html" target="_top" xlink:title=" ">
<polygon fill="white" stroke="black" points="1257.5,-112.5 1257.5,-142.5 1357.5,-142.5 1357.5,-112.5 1257.5,-112.5"/>
<text text-anchor="start" x="1265.5" y="-130.5" font-family="Helvetica,sans-Serif" font-size="10.00">include/Z2AudioLib</text>
<text text-anchor="middle" x="1307.5" y="-119.5" font-family="Helvetica,sans-Serif" font-size="10.00">/Z2AudioMgr.h</text>
</a>
</g>
</g>
<!-- Node3&#45;&gt;Node11 -->
<g id="edge34" class="edge">
<title>Node3&#45;&gt;Node11</title>
<path fill="none" stroke="midnightblue" d="M944.18,-438.47C930.59,-412.77 911.5,-369.53 911.5,-329.5 911.5,-329.5 911.5,-329.5 911.5,-260.5 911.5,-188.39 1150.79,-148.63 1257.35,-134.49"/>
<polygon fill="midnightblue" stroke="midnightblue" points="941.2,-440.31 949.06,-447.41 947.34,-436.96 941.2,-440.31"/>
</g>
<!-- Node16 -->
<g id="node16" class="node">
<title>Node16</title>
<g id="a_node16"><a xlink:href="JAISeqMgr_8h.html" target="_top" xlink:title=" ">
<polygon fill="white" stroke="black" points="421,-313.5 421,-343.5 548,-343.5 548,-313.5 421,-313.5"/>
<text text-anchor="start" x="429" y="-331.5" font-family="Helvetica,sans-Serif" font-size="10.00">include/JSystem/JAudio2</text>
<text text-anchor="middle" x="484.5" y="-320.5" font-family="Helvetica,sans-Serif" font-size="10.00">/JAISeqMgr.h</text>
</a>
</g>
</g>
<!-- Node3&#45;&gt;Node16 -->
<g id="edge27" class="edge">
<title>Node3&#45;&gt;Node16</title>
<path fill="none" stroke="midnightblue" d="M883.78,-446.93C796.89,-431.26 770.18,-440.71 691.5,-411 666.33,-401.5 664,-391.13 639.5,-380 606.52,-365.02 567.77,-352.4 537.26,-343.52"/>
<polygon fill="midnightblue" stroke="midnightblue" points="883.34,-450.41 893.81,-448.8 884.62,-443.53 883.34,-450.41"/>
</g>
<!-- Node20 -->
<g id="node20" class="node">
<title>Node20</title>
<g id="a_node20"><a xlink:href="JAISeqDataMgr_8h.html" target="_top" xlink:title=" ">
<polygon fill="white" stroke="black" points="503,-380.5 503,-410.5 630,-410.5 630,-380.5 503,-380.5"/>
<text text-anchor="start" x="511" y="-398.5" font-family="Helvetica,sans-Serif" font-size="10.00">include/JSystem/JAudio2</text>
<text text-anchor="middle" x="566.5" y="-387.5" font-family="Helvetica,sans-Serif" font-size="10.00">/JAISeqDataMgr.h</text>
</a>
</g>
</g>
<!-- Node3&#45;&gt;Node20 -->
<g id="edge23" class="edge">
<title>Node3&#45;&gt;Node20</title>
<path fill="none" stroke="midnightblue" d="M883.8,-446.92C779.2,-428.68 751.21,-427.44 650.5,-411 643.93,-409.93 637.07,-408.78 630.23,-407.63"/>
<polygon fill="midnightblue" stroke="midnightblue" points="883.37,-450.4 893.83,-448.68 884.58,-443.51 883.37,-450.4"/>
</g>
<!-- Node22 -->
<g id="node22" class="node">
<title>Node22</title>
<g id="a_node22"><a xlink:href="JAIStreamDataMgr_8h.html" target="_top" xlink:title=" ">
<polygon fill="white" stroke="black" points="940,-380.5 940,-410.5 1067,-410.5 1067,-380.5 940,-380.5"/>
<text text-anchor="start" x="948" y="-398.5" font-family="Helvetica,sans-Serif" font-size="10.00">include/JSystem/JAudio2</text>
<text text-anchor="middle" x="1003.5" y="-387.5" font-family="Helvetica,sans-Serif" font-size="10.00">/JAIStreamDataMgr.h</text>
</a>
</g>
</g>
<!-- Node3&#45;&gt;Node22 -->
<g id="edge29" class="edge">
<title>Node3&#45;&gt;Node22</title>
<path fill="none" stroke="midnightblue" d="M973.31,-439.16C980.02,-429.68 987.63,-418.92 993.54,-410.58"/>
<polygon fill="midnightblue" stroke="midnightblue" points="970.4,-437.21 967.48,-447.4 976.12,-441.26 970.4,-437.21"/>
</g>
<!-- Node24 -->
<g id="node24" class="node">
<title>Node24</title>
<g id="a_node24"><a xlink:href="JAIStreamMgr_8h.html" target="_top" xlink:title=" ">
<polygon fill="white" stroke="black" points="756,-380.5 756,-410.5 883,-410.5 883,-380.5 756,-380.5"/>
<text text-anchor="start" x="764" y="-398.5" font-family="Helvetica,sans-Serif" font-size="10.00">include/JSystem/JAudio2</text>
<text text-anchor="middle" x="819.5" y="-387.5" font-family="Helvetica,sans-Serif" font-size="10.00">/JAIStreamMgr.h</text>
</a>
</g>
</g>
<!-- Node3&#45;&gt;Node24 -->
<g id="edge31" class="edge">
<title>Node3&#45;&gt;Node24</title>
<path fill="none" stroke="midnightblue" d="M918.5,-443.13C896.57,-432.8 869.63,-420.11 849.39,-410.58"/>
<polygon fill="midnightblue" stroke="midnightblue" points="917.02,-446.3 927.56,-447.4 920,-439.97 917.02,-446.3"/>
</g>
<!-- Node26 -->
<g id="node26" class="node">
<title>Node26</title>
<g id="a_node26"><a xlink:href="Z2SceneMgr_8h.html" target="_top" xlink:title=" ">
<polygon fill="white" stroke="black" points="1085.5,-380.5 1085.5,-410.5 1185.5,-410.5 1185.5,-380.5 1085.5,-380.5"/>
<text text-anchor="start" x="1093.5" y="-398.5" font-family="Helvetica,sans-Serif" font-size="10.00">include/Z2AudioLib</text>
<text text-anchor="middle" x="1135.5" y="-387.5" font-family="Helvetica,sans-Serif" font-size="10.00">/Z2SceneMgr.h</text>
</a>
</g>
</g>
<!-- Node3&#45;&gt;Node26 -->
<g id="edge35" class="edge">
<title>Node3&#45;&gt;Node26</title>
<path fill="none" stroke="midnightblue" d="M1005.55,-443.96C1034.22,-433.48 1070.14,-420.37 1096.95,-410.58"/>
<polygon fill="midnightblue" stroke="midnightblue" points="1004.32,-440.68 996.12,-447.4 1006.72,-447.25 1004.32,-440.68"/>
</g>
<!-- Node28 -->
<g id="node28" class="node">
<title>Node28</title>
<g id="a_node28"><a xlink:href="Z2SeqMgr_8h.html" target="_top" xlink:title=" ">
<polygon fill="white" stroke="black" points="2405.5,-179.5 2405.5,-209.5 2505.5,-209.5 2505.5,-179.5 2405.5,-179.5"/>
<text text-anchor="start" x="2413.5" y="-197.5" font-family="Helvetica,sans-Serif" font-size="10.00">include/Z2AudioLib</text>
<text text-anchor="middle" x="2455.5" y="-186.5" font-family="Helvetica,sans-Serif" font-size="10.00">/Z2SeqMgr.h</text>
</a>
</g>
</g>
<!-- Node3&#45;&gt;Node28 -->
<g id="edge38" class="edge">
<title>Node3&#45;&gt;Node28</title>
<path fill="none" stroke="midnightblue" d="M1031.67,-460.92C1195.35,-458.92 1599.63,-450.08 1935.5,-411 2100.63,-391.79 2142.9,-386.93 2303.5,-344 2389.19,-321.09 2440.38,-349.49 2491.5,-277 2506.65,-255.51 2485.81,-226.62 2470.09,-209.64"/>
<polygon fill="midnightblue" stroke="midnightblue" points="1031.2,-457.42 1021.24,-461.04 1031.28,-464.42 1031.2,-457.42"/>
</g>
<!-- Node31 -->
<g id="node31" class="node">
<title>Node31</title>
<g id="a_node31"><a xlink:href="Z2SeMgr_8h.html" target="_top" xlink:title=" ">
<polygon fill="white" stroke="black" points="1257.5,-380.5 1257.5,-410.5 1357.5,-410.5 1357.5,-380.5 1257.5,-380.5"/>
<text text-anchor="start" x="1265.5" y="-398.5" font-family="Helvetica,sans-Serif" font-size="10.00">include/Z2AudioLib</text>
<text text-anchor="middle" x="1307.5" y="-387.5" font-family="Helvetica,sans-Serif" font-size="10.00">/Z2SeMgr.h</text>
</a>
</g>
</g>
<!-- Node3&#45;&gt;Node31 -->
<g id="edge42" class="edge">
<title>Node3&#45;&gt;Node31</title>
<path fill="none" stroke="midnightblue" d="M1031.5,-447.76C1099.47,-435.13 1198.34,-416.77 1257.46,-405.79"/>
<polygon fill="midnightblue" stroke="midnightblue" points="1030.48,-444.39 1021.29,-449.65 1031.76,-451.27 1030.48,-444.39"/>
</g>
<!-- Node33 -->
<g id="node33" class="node">
<title>Node33</title>
<g id="a_node33"><a xlink:href="Z2SoundHandles_8h.html" target="_top" xlink:title=" ">
<polygon fill="white" stroke="black" points="1538.5,-380.5 1538.5,-410.5 1640.5,-410.5 1640.5,-380.5 1538.5,-380.5"/>
<text text-anchor="start" x="1546.5" y="-398.5" font-family="Helvetica,sans-Serif" font-size="10.00">include/Z2AudioLib</text>
<text text-anchor="middle" x="1589.5" y="-387.5" font-family="Helvetica,sans-Serif" font-size="10.00">/Z2SoundHandles.h</text>
</a>
</g>
</g>
<!-- Node3&#45;&gt;Node33 -->
<g id="edge45" class="edge">
<title>Node3&#45;&gt;Node33</title>
<path fill="none" stroke="midnightblue" d="M1031.52,-453.89C1161.29,-440.54 1426.66,-413.25 1538.25,-401.77"/>
<polygon fill="midnightblue" stroke="midnightblue" points="1030.87,-450.44 1021.28,-454.94 1031.59,-457.4 1030.87,-450.44"/>
</g>
<!-- Node65 -->
<g id="node47" class="node">
<title>Node65</title>
<g id="a_node47"><a xlink:href="Z2SoundStarter_8h.html" target="_top" xlink:title=" ">
<polygon fill="white" stroke="black" points="1696.5,-380.5 1696.5,-410.5 1796.5,-410.5 1796.5,-380.5 1696.5,-380.5"/>
<text text-anchor="start" x="1704.5" y="-398.5" font-family="Helvetica,sans-Serif" font-size="10.00">include/Z2AudioLib</text>
<text text-anchor="middle" x="1746.5" y="-387.5" font-family="Helvetica,sans-Serif" font-size="10.00">/Z2SoundStarter.h</text>
</a>
</g>
</g>
<!-- Node3&#45;&gt;Node65 -->
<g id="edge63" class="edge">
<title>Node3&#45;&gt;Node65</title>
<path fill="none" stroke="midnightblue" d="M1031.45,-457.94C1158.21,-451.43 1425.05,-435.93 1649.5,-411 1664.73,-409.31 1681.24,-407.01 1696.25,-404.75"/>
<polygon fill="midnightblue" stroke="midnightblue" points="1030.9,-454.46 1021.09,-458.47 1031.26,-461.46 1030.9,-454.46"/>
</g>
<!-- Node5&#45;&gt;Node3 -->
<g id="edge18" class="edge">
<title>Node5&#45;&gt;Node3</title>
<path fill="none" stroke="midnightblue" d="M417.08,-406.11C430.25,-407.87 443.79,-409.59 456.5,-411 650.19,-432.46 700.5,-419.97 893.5,-447 894.52,-447.14 895.55,-447.29 896.59,-447.45"/>
<polygon fill="midnightblue" stroke="midnightblue" points="417.49,-402.63 407.12,-404.75 416.55,-409.57 417.49,-402.63"/>
</g>
<!-- Node6 -->
<g id="node6" class="node">
<title>Node6</title>
<g id="a_node6"><a xlink:href="JAIAudience_8cpp.html" target="_top" xlink:title=" ">
<polygon fill="white" stroke="black" points="147,-313.5 147,-343.5 258,-343.5 258,-313.5 147,-313.5"/>
<text text-anchor="start" x="155" y="-331.5" font-family="Helvetica,sans-Serif" font-size="10.00">libs/JSystem/JAudio2</text>
<text text-anchor="middle" x="202.5" y="-320.5" font-family="Helvetica,sans-Serif" font-size="10.00">/JAIAudience.cpp</text>
</a>
</g>
</g>
<!-- Node5&#45;&gt;Node6 -->
<g id="edge5" class="edge">
<title>Node5&#45;&gt;Node6</title>
<path fill="none" stroke="midnightblue" d="M303.65,-376.13C281.25,-365.8 253.72,-353.11 233.04,-343.58"/>
<polygon fill="midnightblue" stroke="midnightblue" points="302.36,-379.39 312.91,-380.4 305.29,-373.03 302.36,-379.39"/>
</g>
<!-- Node5&#45;&gt;Node7 -->
<g id="edge6" class="edge">
<title>Node5&#45;&gt;Node7</title>
<path fill="none" stroke="midnightblue" d="M342.02,-370.4C341.46,-361.37 340.85,-351.41 340.37,-343.58"/>
<polygon fill="midnightblue" stroke="midnightblue" points="338.52,-370.63 342.63,-380.4 345.51,-370.2 338.52,-370.63"/>
</g>
<!-- Node5&#45;&gt;Node16 -->
<g id="edge15" class="edge">
<title>Node5&#45;&gt;Node16</title>
<path fill="none" stroke="midnightblue" d="M383.35,-376.13C405.75,-365.8 433.28,-353.11 453.96,-343.58"/>
<polygon fill="midnightblue" stroke="midnightblue" points="381.71,-373.03 374.09,-380.4 384.64,-379.39 381.71,-373.03"/>
</g>
<!-- Node18 -->
<g id="node18" class="node">
<title>Node18</title>
<g id="a_node18"><a xlink:href="Z2Audience_8h.html" target="_top" xlink:title=" ">
<polygon fill="white" stroke="black" points="28.5,-313.5 28.5,-343.5 128.5,-343.5 128.5,-313.5 28.5,-313.5"/>
<text text-anchor="start" x="36.5" y="-331.5" font-family="Helvetica,sans-Serif" font-size="10.00">include/Z2AudioLib</text>
<text text-anchor="middle" x="78.5" y="-320.5" font-family="Helvetica,sans-Serif" font-size="10.00">/Z2Audience.h</text>
</a>
</g>
</g>
<!-- Node5&#45;&gt;Node18 -->
<g id="edge19" class="edge">
<title>Node5&#45;&gt;Node18</title>
<path fill="none" stroke="midnightblue" d="M276.26,-378.03C236,-368.16 183.82,-355.37 137.5,-344 134.63,-343.3 131.69,-342.57 128.71,-341.84"/>
<polygon fill="midnightblue" stroke="midnightblue" points="275.68,-381.49 286.22,-380.47 277.34,-374.69 275.68,-381.49"/>
</g>
<!-- Node8 -->
<g id="node8" class="node">
<title>Node8</title>
<g id="a_node8"><a xlink:href="JAISeMgr_8cpp.html" target="_top" xlink:title=" ">
<polygon fill="white" stroke="black" points="284,-246.5 284,-276.5 395,-276.5 395,-246.5 284,-246.5"/>
<text text-anchor="start" x="292" y="-264.5" font-family="Helvetica,sans-Serif" font-size="10.00">libs/JSystem/JAudio2</text>
<text text-anchor="middle" x="339.5" y="-253.5" font-family="Helvetica,sans-Serif" font-size="10.00">/JAISeMgr.cpp</text>
</a>
</g>
</g>
<!-- Node7&#45;&gt;Node8 -->
<g id="edge7" class="edge">
<title>Node7&#45;&gt;Node8</title>
<path fill="none" stroke="midnightblue" d="M339.5,-303.11C339.5,-294.15 339.5,-284.32 339.5,-276.58"/>
<polygon fill="midnightblue" stroke="midnightblue" points="336,-303.4 339.5,-313.4 343,-303.4 336,-303.4"/>
</g>
<!-- Node7&#45;&gt;Node9 -->
<g id="edge8" class="edge">
<title>Node7&#45;&gt;Node9</title>
<path fill="none" stroke="midnightblue" d="M413.01,-312.74C504,-295.88 598.98,-279.94 655.48,-270.64"/>
<polygon fill="midnightblue" stroke="midnightblue" points="412.27,-309.32 403.08,-314.59 413.56,-316.2 412.27,-309.32"/>
</g>
<!-- Node10 -->
<g id="node10" class="node">
<title>Node10</title>
<g id="a_node10"><a xlink:href="Z2SoundMgr_8cpp.html" target="_top" xlink:title=" ">
<polygon fill="white" stroke="black" points="625,-185 625,-204 786,-204 786,-185 625,-185"/>
<text text-anchor="middle" x="705.5" y="-192" font-family="Helvetica,sans-Serif" font-size="10.00">libs/Z2AudioLib/Z2SoundMgr.cpp</text>
</a>
</g>
</g>
<!-- Node9&#45;&gt;Node10 -->
<g id="edge9" class="edge">
<title>Node9&#45;&gt;Node10</title>
<path fill="none" stroke="midnightblue" d="M705.5,-236.25C705.5,-225.02 705.5,-212.38 705.5,-204.19"/>
<polygon fill="midnightblue" stroke="midnightblue" points="702,-236.4 705.5,-246.4 709,-236.4 702,-236.4"/>
</g>
<!-- Node9&#45;&gt;Node11 -->
<g id="edge10" class="edge">
<title>Node9&#45;&gt;Node11</title>
<path fill="none" stroke="midnightblue" d="M741.06,-241.84C778.81,-222.88 840.75,-194.22 897.5,-179 1024.27,-145.01 1179.31,-133.81 1257.42,-130.18"/>
<polygon fill="midnightblue" stroke="midnightblue" points="739.33,-238.79 732,-246.43 742.5,-245.03 739.33,-238.79"/>
</g>
<!-- Node12 -->
<g id="node12" class="node">
<title>Node12</title>
<g id="a_node12"><a xlink:href="d__save_8cpp.html" target="_top" xlink:title=" ">
<polygon fill="white" stroke="black" points="1096,-56.5 1096,-75.5 1211,-75.5 1211,-56.5 1096,-56.5"/>
<text text-anchor="middle" x="1153.5" y="-63.5" font-family="Helvetica,sans-Serif" font-size="10.00">src/d/save/d_save.cpp</text>
</a>
</g>
</g>
<!-- Node11&#45;&gt;Node12 -->
<g id="edge11" class="edge">
<title>Node11&#45;&gt;Node12</title>
<path fill="none" stroke="midnightblue" d="M1261.32,-108.66C1233.08,-97.75 1198.21,-84.27 1175.91,-75.66"/>
<polygon fill="midnightblue" stroke="midnightblue" points="1260.41,-112.06 1271,-112.4 1262.94,-105.53 1260.41,-112.06"/>
</g>
<!-- Node13 -->
<g id="node13" class="node">
<title>Node13</title>
<g id="a_node13"><a xlink:href="Z2AudioMgr_8cpp.html" target="_top" xlink:title=" ">
<polygon fill="white" stroke="black" points="1228.5,-56.5 1228.5,-75.5 1386.5,-75.5 1386.5,-56.5 1228.5,-56.5"/>
<text text-anchor="middle" x="1307.5" y="-63.5" font-family="Helvetica,sans-Serif" font-size="10.00">libs/Z2AudioLib/Z2AudioMgr.cpp</text>
</a>
</g>
</g>
<!-- Node11&#45;&gt;Node13 -->
<g id="edge12" class="edge">
<title>Node11&#45;&gt;Node13</title>
<path fill="none" stroke="midnightblue" d="M1307.5,-102.29C1307.5,-92.86 1307.5,-82.65 1307.5,-75.66"/>
<polygon fill="midnightblue" stroke="midnightblue" points="1304,-102.4 1307.5,-112.4 1311,-102.4 1304,-102.4"/>
</g>
<!-- Node14 -->
<g id="node14" class="node">
<title>Node14</title>
<g id="a_node14"><a xlink:href="m__Do__audio_8h.html" target="_top" xlink:title=" ">
<polygon fill="white" stroke="black" points="1404.5,-56.5 1404.5,-75.5 1544.5,-75.5 1544.5,-56.5 1404.5,-56.5"/>
<text text-anchor="middle" x="1474.5" y="-63.5" font-family="Helvetica,sans-Serif" font-size="10.00">include/m_Do/m_Do_audio.h</text>
</a>
</g>
</g>
<!-- Node11&#45;&gt;Node14 -->
<g id="edge13" class="edge">
<title>Node11&#45;&gt;Node14</title>
<path fill="none" stroke="midnightblue" d="M1356.78,-108.94C1387.54,-97.98 1425.81,-84.35 1450.2,-75.66"/>
<polygon fill="midnightblue" stroke="midnightblue" points="1355.32,-105.75 1347.08,-112.4 1357.67,-112.34 1355.32,-105.75"/>
</g>
<!-- Node15 -->
<g id="node15" class="node">
<title>Node15</title>
<g id="a_node15"><a xlink:href="m__Do__audio_8cpp.html" target="_top" xlink:title=" ">
<polygon fill="white" stroke="black" points="1407.5,-0.5 1407.5,-19.5 1541.5,-19.5 1541.5,-0.5 1407.5,-0.5"/>
<text text-anchor="middle" x="1474.5" y="-7.5" font-family="Helvetica,sans-Serif" font-size="10.00">src/m_Do/m_Do_audio.cpp</text>
</a>
</g>
</g>
<!-- Node14&#45;&gt;Node15 -->
<g id="edge14" class="edge">
<title>Node14&#45;&gt;Node15</title>
<path fill="none" stroke="midnightblue" d="M1474.5,-45.8C1474.5,-36.91 1474.5,-26.78 1474.5,-19.75"/>
<polygon fill="midnightblue" stroke="midnightblue" points="1471,-46.08 1474.5,-56.08 1478,-46.08 1471,-46.08"/>
</g>
<!-- Node16&#45;&gt;Node9 -->
<g id="edge17" class="edge">
<title>Node16&#45;&gt;Node9</title>
<path fill="none" stroke="midnightblue" d="M542.03,-310.58C577.92,-300.02 623.59,-286.59 657.52,-276.61"/>
<polygon fill="midnightblue" stroke="midnightblue" points="540.79,-307.3 532.18,-313.48 542.76,-314.01 540.79,-307.3"/>
</g>
<!-- Node17 -->
<g id="node17" class="node">
<title>Node17</title>
<g id="a_node17"><a xlink:href="JAISeqMgr_8cpp.html" target="_top" xlink:title=" ">
<polygon fill="white" stroke="black" points="429,-246.5 429,-276.5 540,-276.5 540,-246.5 429,-246.5"/>
<text text-anchor="start" x="437" y="-264.5" font-family="Helvetica,sans-Serif" font-size="10.00">libs/JSystem/JAudio2</text>
<text text-anchor="middle" x="484.5" y="-253.5" font-family="Helvetica,sans-Serif" font-size="10.00">/JAISeqMgr.cpp</text>
</a>
</g>
</g>
<!-- Node16&#45;&gt;Node17 -->
<g id="edge16" class="edge">
<title>Node16&#45;&gt;Node17</title>
<path fill="none" stroke="midnightblue" d="M484.5,-303.11C484.5,-294.15 484.5,-284.32 484.5,-276.58"/>
<polygon fill="midnightblue" stroke="midnightblue" points="481,-303.4 484.5,-313.4 488,-303.4 481,-303.4"/>
</g>
<!-- Node18&#45;&gt;Node11 -->
<g id="edge21" class="edge">
<title>Node18&#45;&gt;Node11</title>
<path fill="none" stroke="midnightblue" d="M116.41,-309.05C155.29,-290.78 217.92,-263.12 274.5,-246 639.47,-135.59 1105.51,-127.39 1257.3,-127.89"/>
<polygon fill="midnightblue" stroke="midnightblue" points="114.59,-306.04 107.05,-313.49 117.59,-312.37 114.59,-306.04"/>
</g>
<!-- Node19 -->
<g id="node19" class="node">
<title>Node19</title>
<g id="a_node19"><a xlink:href="Z2Audience_8cpp.html" target="_top" xlink:title=" ">
<polygon fill="white" stroke="black" points="0,-252 0,-271 157,-271 157,-252 0,-252"/>
<text text-anchor="middle" x="78.5" y="-259" font-family="Helvetica,sans-Serif" font-size="10.00">libs/Z2AudioLib/Z2Audience.cpp</text>
</a>
</g>
</g>
<!-- Node18&#45;&gt;Node19 -->
<g id="edge20" class="edge">
<title>Node18&#45;&gt;Node19</title>
<path fill="none" stroke="midnightblue" d="M78.5,-303.25C78.5,-292.02 78.5,-279.38 78.5,-271.19"/>
<polygon fill="midnightblue" stroke="midnightblue" points="75,-303.4 78.5,-313.4 82,-303.4 75,-303.4"/>
</g>
<!-- Node20&#45;&gt;Node7 -->
<g id="edge25" class="edge">
<title>Node20&#45;&gt;Node7</title>
<path fill="none" stroke="midnightblue" d="M507.88,-377.71C470.94,-367.14 423.79,-353.63 388.78,-343.61"/>
<polygon fill="midnightblue" stroke="midnightblue" points="506.95,-381.09 517.52,-380.48 508.87,-374.36 506.95,-381.09"/>
</g>
<!-- Node20&#45;&gt;Node16 -->
<g id="edge26" class="edge">
<title>Node20&#45;&gt;Node16</title>
<path fill="none" stroke="midnightblue" d="M540.85,-374.17C528.31,-364.23 513.53,-352.51 502.26,-343.58"/>
<polygon fill="midnightblue" stroke="midnightblue" points="538.7,-376.93 548.71,-380.4 543.04,-371.44 538.7,-376.93"/>
</g>
<!-- Node21 -->
<g id="node21" class="node">
<title>Node21</title>
<g id="a_node21"><a xlink:href="JAISeqDataMgr_8cpp.html" target="_top" xlink:title=" ">
<polygon fill="white" stroke="black" points="566,-313.5 566,-343.5 677,-343.5 677,-313.5 566,-313.5"/>
<text text-anchor="start" x="574" y="-331.5" font-family="Helvetica,sans-Serif" font-size="10.00">libs/JSystem/JAudio2</text>
<text text-anchor="middle" x="621.5" y="-320.5" font-family="Helvetica,sans-Serif" font-size="10.00">/JAISeqDataMgr.cpp</text>
</a>
</g>
</g>
<!-- Node20&#45;&gt;Node21 -->
<g id="edge24" class="edge">
<title>Node20&#45;&gt;Node21</title>
<path fill="none" stroke="midnightblue" d="M584.92,-372.74C593.05,-363.12 602.39,-352.09 609.59,-343.58"/>
<polygon fill="midnightblue" stroke="midnightblue" points="582.22,-370.5 578.43,-380.4 587.57,-375.02 582.22,-370.5"/>
</g>
<!-- Node23 -->
<g id="node23" class="node">
<title>Node23</title>
<g id="a_node23"><a xlink:href="JAIStreamDataMgr_8cpp.html" target="_top" xlink:title=" ">
<polygon fill="white" stroke="black" points="940,-313.5 940,-343.5 1061,-343.5 1061,-313.5 940,-313.5"/>
<text text-anchor="start" x="948" y="-331.5" font-family="Helvetica,sans-Serif" font-size="10.00">libs/JSystem/JAudio2</text>
<text text-anchor="middle" x="1000.5" y="-320.5" font-family="Helvetica,sans-Serif" font-size="10.00">/JAIStreamDataMgr.cpp</text>
</a>
</g>
</g>
<!-- Node22&#45;&gt;Node23 -->
<g id="edge30" class="edge">
<title>Node22&#45;&gt;Node23</title>
<path fill="none" stroke="midnightblue" d="M1002.39,-370.4C1001.97,-361.37 1001.51,-351.41 1001.15,-343.58"/>
<polygon fill="midnightblue" stroke="midnightblue" points="998.89,-370.57 1002.85,-380.4 1005.88,-370.25 998.89,-370.57"/>
</g>
<!-- Node24&#45;&gt;Node9 -->
<g id="edge33" class="edge">
<title>Node24&#45;&gt;Node9</title>
<path fill="none" stroke="midnightblue" d="M794.23,-373.8C784.2,-365.06 772.85,-354.49 763.5,-344 743.98,-322.09 724.95,-293.59 714.28,-276.75"/>
<polygon fill="midnightblue" stroke="midnightblue" points="792.05,-376.54 801.93,-380.38 796.6,-371.22 792.05,-376.54"/>
</g>
<!-- Node25 -->
<g id="node25" class="node">
<title>Node25</title>
<g id="a_node25"><a xlink:href="JAIStreamMgr_8cpp.html" target="_top" xlink:title=" ">
<polygon fill="white" stroke="black" points="772,-313.5 772,-343.5 883,-343.5 883,-313.5 772,-313.5"/>
<text text-anchor="start" x="780" y="-331.5" font-family="Helvetica,sans-Serif" font-size="10.00">libs/JSystem/JAudio2</text>
<text text-anchor="middle" x="827.5" y="-320.5" font-family="Helvetica,sans-Serif" font-size="10.00">/JAIStreamMgr.cpp</text>
</a>
</g>
</g>
<!-- Node24&#45;&gt;Node25 -->
<g id="edge32" class="edge">
<title>Node24&#45;&gt;Node25</title>
<path fill="none" stroke="midnightblue" d="M822.47,-370.4C823.58,-361.37 824.8,-351.41 825.77,-343.58"/>
<polygon fill="midnightblue" stroke="midnightblue" points="818.98,-370.04 821.24,-380.4 825.93,-370.9 818.98,-370.04"/>
</g>
<!-- Node26&#45;&gt;Node11 -->
<g id="edge37" class="edge">
<title>Node26&#45;&gt;Node11</title>
<path fill="none" stroke="midnightblue" d="M1119.57,-371.83C1109.98,-355.22 1101.1,-332.3 1109.5,-313 1145.11,-231.14 1236.93,-169.16 1281.91,-142.64"/>
<polygon fill="midnightblue" stroke="midnightblue" points="1116.61,-373.7 1124.87,-380.34 1122.56,-370 1116.61,-373.7"/>
</g>
<!-- Node27 -->
<g id="node27" class="node">
<title>Node27</title>
<g id="a_node27"><a xlink:href="Z2SceneMgr_8cpp.html" target="_top" xlink:title=" ">
<polygon fill="white" stroke="black" points="1118,-319 1118,-338 1279,-338 1279,-319 1118,-319"/>
<text text-anchor="middle" x="1198.5" y="-326" font-family="Helvetica,sans-Serif" font-size="10.00">libs/Z2AudioLib/Z2SceneMgr.cpp</text>
</a>
</g>
</g>
<!-- Node26&#45;&gt;Node27 -->
<g id="edge36" class="edge">
<title>Node26&#45;&gt;Node27</title>
<path fill="none" stroke="midnightblue" d="M1156.34,-373C1167.84,-361.13 1181.49,-347.05 1190.07,-338.19"/>
<polygon fill="midnightblue" stroke="midnightblue" points="1153.62,-370.78 1149.17,-380.4 1158.64,-375.65 1153.62,-370.78"/>
</g>
<!-- Node28&#45;&gt;Node11 -->
<g id="edge41" class="edge">
<title>Node28&#45;&gt;Node11</title>
<path fill="none" stroke="midnightblue" d="M2395.34,-179.55C2394.05,-179.36 2392.77,-179.17 2391.5,-179 2187.66,-151.38 1542.8,-134.13 1357.65,-129.66"/>
<polygon fill="midnightblue" stroke="midnightblue" points="2394.9,-183.03 2405.34,-181.26 2396.07,-176.13 2394.9,-183.03"/>
</g>
<!-- Node29 -->
<g id="node29" class="node">
<title>Node29</title>
<g id="a_node29"><a xlink:href="Z2SeqMgr_8cpp.html" target="_top" xlink:title=" ">
<polygon fill="white" stroke="black" points="2380.5,-118 2380.5,-137 2530.5,-137 2530.5,-118 2380.5,-118"/>
<text text-anchor="middle" x="2455.5" y="-125" font-family="Helvetica,sans-Serif" font-size="10.00">libs/Z2AudioLib/Z2SeqMgr.cpp</text>
</a>
</g>
</g>
<!-- Node28&#45;&gt;Node29 -->
<g id="edge39" class="edge">
<title>Node28&#45;&gt;Node29</title>
<path fill="none" stroke="midnightblue" d="M2455.5,-169.25C2455.5,-158.02 2455.5,-145.38 2455.5,-137.19"/>
<polygon fill="midnightblue" stroke="midnightblue" points="2452,-169.4 2455.5,-179.4 2459,-169.4 2452,-169.4"/>
</g>
<!-- Node30 -->
<g id="node30" class="node">
<title>Node30</title>
<g id="a_node30"><a xlink:href="Z2SoundObjMgr_8cpp.html" target="_top" xlink:title=" ">
<polygon fill="white" stroke="black" points="2079,-112.5 2079,-142.5 2220,-142.5 2220,-112.5 2079,-112.5"/>
<text text-anchor="start" x="2087" y="-130.5" font-family="Helvetica,sans-Serif" font-size="10.00">libs/Z2AudioLib/Z2SoundObj</text>
<text text-anchor="middle" x="2149.5" y="-119.5" font-family="Helvetica,sans-Serif" font-size="10.00">Mgr.cpp</text>
</a>
</g>
</g>
<!-- Node28&#45;&gt;Node30 -->
<g id="edge40" class="edge">
<title>Node28&#45;&gt;Node30</title>
<path fill="none" stroke="midnightblue" d="M2395.29,-179.83C2394.02,-179.55 2392.75,-179.27 2391.5,-179 2333.1,-166.29 2266.63,-152.47 2218.15,-142.5"/>
<polygon fill="midnightblue" stroke="midnightblue" points="2394.69,-183.28 2405.21,-182.02 2396.2,-176.44 2394.69,-183.28"/>
</g>
<!-- Node31&#45;&gt;Node11 -->
<g id="edge44" class="edge">
<title>Node31&#45;&gt;Node11</title>
<path fill="none" stroke="midnightblue" d="M1307.5,-370.07C1307.5,-315.57 1307.5,-185.52 1307.5,-142.55"/>
<polygon fill="midnightblue" stroke="midnightblue" points="1304,-370.2 1307.5,-380.2 1311,-370.2 1304,-370.2"/>
</g>
<!-- Node32 -->
<g id="node32" class="node">
<title>Node32</title>
<g id="a_node32"><a xlink:href="Z2SeMgr_8cpp.html" target="_top" xlink:title=" ">
<polygon fill="white" stroke="black" points="1336,-319 1336,-338 1481,-338 1481,-319 1336,-319"/>
<text text-anchor="middle" x="1408.5" y="-326" font-family="Helvetica,sans-Serif" font-size="10.00">libs/Z2AudioLib/Z2SeMgr.cpp</text>
</a>
</g>
</g>
<!-- Node31&#45;&gt;Node32 -->
<g id="edge43" class="edge">
<title>Node31&#45;&gt;Node32</title>
<path fill="none" stroke="midnightblue" d="M1337.84,-374.97C1356.99,-362.65 1380.77,-347.35 1395.28,-338.01"/>
<polygon fill="midnightblue" stroke="midnightblue" points="1335.93,-372.04 1329.42,-380.4 1339.72,-377.93 1335.93,-372.04"/>
</g>
<!-- Node34 -->
<g id="node34" class="node">
<title>Node34</title>
<g id="a_node34"><a xlink:href="Z2SoundHandles_8cpp.html" target="_top" xlink:title=" ">
<polygon fill="white" stroke="black" points="1499.5,-319 1499.5,-338 1679.5,-338 1679.5,-319 1499.5,-319"/>
<text text-anchor="middle" x="1589.5" y="-326" font-family="Helvetica,sans-Serif" font-size="10.00">libs/Z2AudioLib/Z2SoundHandles.cpp</text>
</a>
</g>
</g>
<!-- Node33&#45;&gt;Node34 -->
<g id="edge46" class="edge">
<title>Node33&#45;&gt;Node34</title>
<path fill="none" stroke="midnightblue" d="M1589.5,-370.25C1589.5,-359.02 1589.5,-346.38 1589.5,-338.19"/>
<polygon fill="midnightblue" stroke="midnightblue" points="1586,-370.4 1589.5,-380.4 1593,-370.4 1586,-370.4"/>
</g>
<!-- Node35 -->
<g id="node35" class="node">
<title>Node35</title>
<g id="a_node35"><a xlink:href="Z2SoundObject_8h.html" target="_top" xlink:title=" ">
<polygon fill="white" stroke="black" points="1735.5,-313.5 1735.5,-343.5 1835.5,-343.5 1835.5,-313.5 1735.5,-313.5"/>
<text text-anchor="start" x="1743.5" y="-331.5" font-family="Helvetica,sans-Serif" font-size="10.00">include/Z2AudioLib</text>
<text text-anchor="middle" x="1785.5" y="-320.5" font-family="Helvetica,sans-Serif" font-size="10.00">/Z2SoundObject.h</text>
</a>
</g>
</g>
<!-- Node33&#45;&gt;Node35 -->
<g id="edge47" class="edge">
<title>Node33&#45;&gt;Node35</title>
<path fill="none" stroke="midnightblue" d="M1641.58,-377.23C1673.29,-366.71 1713.28,-353.45 1743.05,-343.58"/>
<polygon fill="midnightblue" stroke="midnightblue" points="1640.42,-373.93 1632.03,-380.4 1642.62,-380.57 1640.42,-373.93"/>
</g>
<!-- Node36 -->
<g id="node36" class="node">
<title>Node36</title>
<g id="a_node36"><a xlink:href="Z2SoundObject_8cpp.html" target="_top" xlink:title=" ">
<polygon fill="white" stroke="black" points="1523,-252 1523,-271 1696,-271 1696,-252 1523,-252"/>
<text text-anchor="middle" x="1609.5" y="-259" font-family="Helvetica,sans-Serif" font-size="10.00">libs/Z2AudioLib/Z2SoundObject.cpp</text>
</a>
</g>
</g>
<!-- Node35&#45;&gt;Node36 -->
<g id="edge48" class="edge">
<title>Node35&#45;&gt;Node36</title>
<path fill="none" stroke="midnightblue" d="M1737.53,-309.78C1703.4,-297.18 1659.07,-280.81 1632.53,-271.01"/>
<polygon fill="midnightblue" stroke="midnightblue" points="1736.72,-313.21 1747.31,-313.4 1739.14,-306.65 1736.72,-313.21"/>
</g>
<!-- Node37 -->
<g id="node37" class="node">
<title>Node37</title>
<g id="a_node37"><a xlink:href="d__bomb_8h.html" target="_top" xlink:title=" ">
<polygon fill="white" stroke="black" points="1714,-252 1714,-271 1815,-271 1815,-252 1714,-252"/>
<text text-anchor="middle" x="1764.5" y="-259" font-family="Helvetica,sans-Serif" font-size="10.00">include/d/d_bomb.h</text>
</a>
</g>
</g>
<!-- Node35&#45;&gt;Node37 -->
<g id="edge49" class="edge">
<title>Node35&#45;&gt;Node37</title>
<path fill="none" stroke="midnightblue" d="M1777.78,-303.6C1774.12,-292.28 1769.98,-279.46 1767.31,-271.19"/>
<polygon fill="midnightblue" stroke="midnightblue" points="1774.54,-304.96 1780.94,-313.4 1781.2,-302.8 1774.54,-304.96"/>
</g>
<!-- Node39 -->
<g id="node39" class="node">
<title>Node39</title>
<g id="a_node39"><a xlink:href="Z2Creature_8h.html" target="_top" xlink:title=" ">
<polygon fill="white" stroke="black" points="1833.5,-246.5 1833.5,-276.5 1933.5,-276.5 1933.5,-246.5 1833.5,-246.5"/>
<text text-anchor="start" x="1841.5" y="-264.5" font-family="Helvetica,sans-Serif" font-size="10.00">include/Z2AudioLib</text>
<text text-anchor="middle" x="1883.5" y="-253.5" font-family="Helvetica,sans-Serif" font-size="10.00">/Z2Creature.h</text>
</a>
</g>
</g>
<!-- Node35&#45;&gt;Node39 -->
<g id="edge51" class="edge">
<title>Node35&#45;&gt;Node39</title>
<path fill="none" stroke="midnightblue" d="M1815.3,-307.73C1830.47,-297.68 1848.54,-285.68 1862.28,-276.58"/>
<polygon fill="midnightblue" stroke="midnightblue" points="1813.16,-304.95 1806.76,-313.4 1817.03,-310.79 1813.16,-304.95"/>
</g>
<!-- Node63 -->
<g id="node45" class="node">
<title>Node63</title>
<g id="a_node45"><a xlink:href="Z2WolfHowlMgr_8h.html" target="_top" xlink:title=" ">
<polygon fill="white" stroke="black" points="2083.5,-246.5 2083.5,-276.5 2183.5,-276.5 2183.5,-246.5 2083.5,-246.5"/>
<text text-anchor="start" x="2091.5" y="-264.5" font-family="Helvetica,sans-Serif" font-size="10.00">include/Z2AudioLib</text>
<text text-anchor="middle" x="2133.5" y="-253.5" font-family="Helvetica,sans-Serif" font-size="10.00">/Z2WolfHowlMgr.h</text>
</a>
</g>
</g>
<!-- Node35&#45;&gt;Node63 -->
<g id="edge59" class="edge">
<title>Node35&#45;&gt;Node63</title>
<path fill="none" stroke="midnightblue" d="M1845.19,-313.06C1845.3,-313.04 1845.4,-313.02 1845.5,-313 1928.49,-295.71 2025.77,-279.49 2083.37,-270.3"/>
<polygon fill="midnightblue" stroke="midnightblue" points="1844.57,-309.62 1835.54,-315.16 1846.05,-316.46 1844.57,-309.62"/>
</g>
<!-- Node38 -->
<g id="node38" class="node">
<title>Node38</title>
<g id="a_node38"><a xlink:href="d__bomb_8cpp.html" target="_top" xlink:title=" ">
<polygon fill="white" stroke="black" points="1373.5,-185 1373.5,-204 1467.5,-204 1467.5,-185 1373.5,-185"/>
<text text-anchor="middle" x="1420.5" y="-192" font-family="Helvetica,sans-Serif" font-size="10.00">src/d/d_bomb.cpp</text>
</a>
</g>
</g>
<!-- Node37&#45;&gt;Node38 -->
<g id="edge50" class="edge">
<title>Node37&#45;&gt;Node38</title>
<path fill="none" stroke="midnightblue" d="M1722.02,-249.61C1716.48,-248.32 1710.86,-247.08 1705.5,-246 1604.93,-225.74 1577.99,-230.67 1477.5,-210 1469.1,-208.27 1460.07,-206.12 1451.74,-204"/>
<polygon fill="midnightblue" stroke="midnightblue" points="1721.3,-253.03 1731.84,-251.95 1722.93,-246.23 1721.3,-253.03"/>
</g>
<!-- Node40 -->
<g id="node40" class="node">
<title>Node40</title>
<g id="a_node40"><a xlink:href="Z2Creature_8cpp.html" target="_top" xlink:title=" ">
<polygon fill="white" stroke="black" points="1486,-185 1486,-204 1639,-204 1639,-185 1486,-185"/>
<text text-anchor="middle" x="1562.5" y="-192" font-family="Helvetica,sans-Serif" font-size="10.00">libs/Z2AudioLib/Z2Creature.cpp</text>
</a>
</g>
</g>
<!-- Node39&#45;&gt;Node40 -->
<g id="edge52" class="edge">
<title>Node39&#45;&gt;Node40</title>
<path fill="none" stroke="midnightblue" d="M1823.09,-245.75C1743.24,-228.43 1661.48,-213.2 1610.94,-204.08"/>
<polygon fill="midnightblue" stroke="midnightblue" points="1822.81,-249.27 1833.33,-247.99 1824.3,-242.43 1822.81,-249.27"/>
</g>
<!-- Node41 -->
<g id="node41" class="node">
<title>Node41</title>
<g id="a_node41"><a xlink:href="Z2LinkMgr_8cpp.html" target="_top" xlink:title=" ">
<polygon fill="white" stroke="black" points="1657.5,-185 1657.5,-204 1809.5,-204 1809.5,-185 1657.5,-185"/>
<text text-anchor="middle" x="1733.5" y="-192" font-family="Helvetica,sans-Serif" font-size="10.00">libs/Z2AudioLib/Z2LinkMgr.cpp</text>
</a>
</g>
</g>
<!-- Node39&#45;&gt;Node41 -->
<g id="edge53" class="edge">
<title>Node39&#45;&gt;Node41</title>
<path fill="none" stroke="midnightblue" d="M1841.49,-242.3C1812.56,-229.76 1775.46,-213.68 1753.13,-204.01"/>
<polygon fill="midnightblue" stroke="midnightblue" points="1840.39,-245.63 1850.95,-246.4 1843.17,-239.21 1840.39,-245.63"/>
</g>
<!-- Node42 -->
<g id="node42" class="node">
<title>Node42</title>
<g id="a_node42"><a xlink:href="d__a__horse__static_8h.html" target="_top" xlink:title=" ">
<polygon fill="white" stroke="red" points="1827.5,-179.5 1827.5,-209.5 1939.5,-209.5 1939.5,-179.5 1827.5,-179.5"/>
<text text-anchor="start" x="1835.5" y="-197.5" font-family="Helvetica,sans-Serif" font-size="10.00">include/d/a/d_a_horse</text>
<text text-anchor="middle" x="1883.5" y="-186.5" font-family="Helvetica,sans-Serif" font-size="10.00">_static.h</text>
</a>
</g>
</g>
<!-- Node39&#45;&gt;Node42 -->
<g id="edge54" class="edge">
<title>Node39&#45;&gt;Node42</title>
<path fill="none" stroke="midnightblue" d="M1883.5,-236.11C1883.5,-227.15 1883.5,-217.32 1883.5,-209.58"/>
<polygon fill="midnightblue" stroke="midnightblue" points="1880,-236.4 1883.5,-246.4 1887,-236.4 1880,-236.4"/>
</g>
<!-- Node44 -->
<g id="node43" class="node">
<title>Node44</title>
<g id="a_node43"><a xlink:href="d__a__alink_8h.html" target="_top" xlink:title=" ">
<polygon fill="white" stroke="red" points="2075.5,-185 2075.5,-204 2191.5,-204 2191.5,-185 2075.5,-185"/>
<text text-anchor="middle" x="2133.5" y="-192" font-family="Helvetica,sans-Serif" font-size="10.00">include/d/a/d_a_alink.h</text>
</a>
</g>
</g>
<!-- Node39&#45;&gt;Node44 -->
<g id="edge55" class="edge">
<title>Node39&#45;&gt;Node44</title>
<path fill="none" stroke="midnightblue" d="M1943.71,-244.85C1993.05,-232.02 2061.01,-214.35 2100.8,-204"/>
<polygon fill="midnightblue" stroke="midnightblue" points="1942.59,-241.52 1933.79,-247.42 1944.35,-248.3 1942.59,-241.52"/>
</g>
<!-- Node62 -->
<g id="node44" class="node">
<title>Node62</title>
<g id="a_node44"><a xlink:href="Z2SoundObjMgr_8h.html" target="_top" xlink:title=" ">
<polygon fill="white" stroke="black" points="1957.5,-179.5 1957.5,-209.5 2057.5,-209.5 2057.5,-179.5 1957.5,-179.5"/>
<text text-anchor="start" x="1965.5" y="-197.5" font-family="Helvetica,sans-Serif" font-size="10.00">include/Z2AudioLib</text>
<text text-anchor="middle" x="2007.5" y="-186.5" font-family="Helvetica,sans-Serif" font-size="10.00">/Z2SoundObjMgr.h</text>
</a>
</g>
</g>
<!-- Node39&#45;&gt;Node62 -->
<g id="edge56" class="edge">
<title>Node39&#45;&gt;Node62</title>
<path fill="none" stroke="midnightblue" d="M1919.34,-241.71C1938.89,-231.46 1962.7,-218.98 1980.65,-209.58"/>
<polygon fill="midnightblue" stroke="midnightblue" points="1917.64,-238.65 1910.41,-246.4 1920.89,-244.85 1917.64,-238.65"/>
</g>
<!-- Node62&#45;&gt;Node11 -->
<g id="edge58" class="edge">
<title>Node62&#45;&gt;Node11</title>
<path fill="none" stroke="midnightblue" d="M1947.4,-179C1722.59,-143.51 1464.58,-132.81 1357.7,-129.69"/>
<polygon fill="midnightblue" stroke="midnightblue" points="1946.97,-182.48 1957.4,-180.6 1948.08,-175.57 1946.97,-182.48"/>
</g>
<!-- Node62&#45;&gt;Node30 -->
<g id="edge57" class="edge">
<title>Node62&#45;&gt;Node30</title>
<path fill="none" stroke="midnightblue" d="M2047.63,-175.13C2070.19,-164.8 2097.92,-152.11 2118.75,-142.58"/>
<polygon fill="midnightblue" stroke="midnightblue" points="2045.95,-172.05 2038.31,-179.4 2048.86,-178.42 2045.95,-172.05"/>
</g>
<!-- Node63&#45;&gt;Node44 -->
<g id="edge61" class="edge">
<title>Node63&#45;&gt;Node44</title>
<path fill="none" stroke="midnightblue" d="M2133.5,-236.25C2133.5,-225.02 2133.5,-212.38 2133.5,-204.19"/>
<polygon fill="midnightblue" stroke="midnightblue" points="2130,-236.4 2133.5,-246.4 2137,-236.4 2130,-236.4"/>
</g>
<!-- Node64 -->
<g id="node46" class="node">
<title>Node64</title>
<g id="a_node46"><a xlink:href="Z2WolfHowlMgr_8cpp.html" target="_top" xlink:title=" ">
<polygon fill="white" stroke="black" points="2209.5,-179.5 2209.5,-209.5 2349.5,-209.5 2349.5,-179.5 2209.5,-179.5"/>
<text text-anchor="start" x="2217.5" y="-197.5" font-family="Helvetica,sans-Serif" font-size="10.00">libs/Z2AudioLib/Z2WolfHowl</text>
<text text-anchor="middle" x="2279.5" y="-186.5" font-family="Helvetica,sans-Serif" font-size="10.00">Mgr.cpp</text>
</a>
</g>
</g>
<!-- Node63&#45;&gt;Node64 -->
<g id="edge60" class="edge">
<title>Node63&#45;&gt;Node64</title>
<path fill="none" stroke="midnightblue" d="M2174.45,-242.27C2197.7,-231.92 2226.37,-219.15 2247.88,-209.58"/>
<polygon fill="midnightblue" stroke="midnightblue" points="2172.89,-239.13 2165.18,-246.4 2175.74,-245.53 2172.89,-239.13"/>
</g>
<!-- Node65&#45;&gt;Node11 -->
<g id="edge65" class="edge">
<title>Node65&#45;&gt;Node11</title>
<path fill="none" stroke="midnightblue" d="M1736.1,-371.43C1726.45,-352.73 1710.3,-327.22 1688.5,-313 1622.36,-269.84 1589.66,-301.24 1514.5,-277 1445.01,-254.58 1420.8,-256.49 1364.5,-210 1341.47,-190.98 1323.53,-160.45 1314.33,-142.65"/>
<polygon fill="midnightblue" stroke="midnightblue" points="1733,-373.06 1740.55,-380.49 1739.28,-369.97 1733,-373.06"/>
</g>
<!-- Node65&#45;&gt;Node35 -->
<g id="edge66" class="edge">
<title>Node65&#45;&gt;Node35</title>
<path fill="none" stroke="midnightblue" d="M1760.25,-371.58C1765.86,-362.24 1772.15,-351.75 1777.05,-343.58"/>
<polygon fill="midnightblue" stroke="midnightblue" points="1757.11,-370.02 1754.96,-380.4 1763.11,-373.62 1757.11,-370.02"/>
</g>
<!-- Node66 -->
<g id="node48" class="node">
<title>Node66</title>
<g id="a_node48"><a xlink:href="Z2SoundStarter_8cpp.html" target="_top" xlink:title=" ">
<polygon fill="white" stroke="black" points="1854,-319 1854,-338 2027,-338 2027,-319 1854,-319"/>
<text text-anchor="middle" x="1940.5" y="-326" font-family="Helvetica,sans-Serif" font-size="10.00">libs/Z2AudioLib/Z2SoundStarter.cpp</text>
</a>
</g>
</g>
<!-- Node65&#45;&gt;Node66 -->
<g id="edge64" class="edge">
<title>Node65&#45;&gt;Node66</title>
<path fill="none" stroke="midnightblue" d="M1798.41,-377.11C1836.15,-364.46 1885.61,-347.89 1915.11,-338.01"/>
<polygon fill="midnightblue" stroke="midnightblue" points="1796.97,-373.9 1788.6,-380.4 1799.19,-380.54 1796.97,-373.9"/>
</g>
<!-- Node65&#45;&gt;Node67 -->
<g id="edge67" class="edge">
<title>Node65&#45;&gt;Node67</title>
<path fill="none" stroke="midnightblue" d="M1806.89,-380.09C1953.37,-354.53 2114.41,-339.73 2194.29,-333.28"/>
<polygon fill="midnightblue" stroke="midnightblue" points="1806.06,-376.68 1796.82,-381.87 1807.28,-383.57 1806.06,-376.68"/>
</g>
<!-- Node67&#45;&gt;Node11 -->
<g id="edge69" class="edge">
<title>Node67&#45;&gt;Node11</title>
<path fill="none" stroke="midnightblue" d="M2274.1,-307.56C2301.86,-286.88 2341.57,-251.77 2358.5,-210 2363.68,-197.23 2368.01,-188.97 2358.5,-179 2323.6,-142.39 1562.28,-131.33 1357.72,-129.01"/>
<polygon fill="midnightblue" stroke="midnightblue" points="2271.94,-304.79 2265.9,-313.5 2276.05,-310.46 2271.94,-304.79"/>
</g>
<!-- Node68 -->
<g id="node50" class="node">
<title>Node68</title>
<g id="a_node50"><a xlink:href="Z2SpeechMgr2_8cpp.html" target="_top" xlink:title=" ">
<polygon fill="white" stroke="black" points="2351,-246.5 2351,-276.5 2482,-276.5 2482,-246.5 2351,-246.5"/>
<text text-anchor="start" x="2359" y="-264.5" font-family="Helvetica,sans-Serif" font-size="10.00">libs/Z2AudioLib/Z2Speech</text>
<text text-anchor="middle" x="2416.5" y="-253.5" font-family="Helvetica,sans-Serif" font-size="10.00">Mgr2.cpp</text>
</a>
</g>
</g>
<!-- Node67&#45;&gt;Node68 -->
<g id="edge68" class="edge">
<title>Node67&#45;&gt;Node68</title>
<path fill="none" stroke="midnightblue" d="M2291.29,-309.82C2318.93,-299.37 2353.46,-286.32 2379.25,-276.58"/>
<polygon fill="midnightblue" stroke="midnightblue" points="2289.94,-306.59 2281.82,-313.4 2292.41,-313.13 2289.94,-306.59"/>
</g>
</g>
</svg>
