<?xml version="1.0" encoding="UTF-8" standalone="no"?>
<!DOCTYPE svg PUBLIC "-//W3C//DTD SVG 1.1//EN"
 "http://www.w3.org/Graphics/SVG/1.1/DTD/svg11.dtd">
<!-- Generated by graphviz version 2.44.0 ()
 -->
<!-- Title: include/JSystem/JAudio2/JAISound.h Pages: 1 -->
<svg width="1481pt" height="441pt"
 viewBox="0.00 0.00 1480.50 441.00" xmlns="http://www.w3.org/2000/svg" xmlns:xlink="http://www.w3.org/1999/xlink">
<g id="graph0" class="graph" transform="scale(1 1) rotate(0) translate(4 437)">
<title>include/JSystem/JAudio2/JAISound.h</title>
<polygon fill="white" stroke="transparent" points="-4,4 -4,-437 1476.5,-437 1476.5,4 -4,4"/>
<!-- Node1 -->
<g id="node1" class="node">
<title>Node1</title>
<g id="a_node1"><a xlink:title=" ">
<polygon fill="#bfbfbf" stroke="black" points="400,-402.5 400,-432.5 527,-432.5 527,-402.5 400,-402.5"/>
<text text-anchor="start" x="408" y="-420.5" font-family="Helvetica,sans-Serif" font-size="10.00">include/JSystem/JAudio2</text>
<text text-anchor="middle" x="463.5" y="-409.5" font-family="Helvetica,sans-Serif" font-size="10.00">/JAISound.h</text>
</a>
</g>
</g>
<!-- Node2 -->
<g id="node2" class="node">
<title>Node2</title>
<g id="a_node2"><a xlink:href="JAISound_8cpp.html" target="_top" xlink:title=" ">
<polygon fill="white" stroke="black" points="88,-335.5 88,-365.5 199,-365.5 199,-335.5 88,-335.5"/>
<text text-anchor="start" x="96" y="-353.5" font-family="Helvetica,sans-Serif" font-size="10.00">libs/JSystem/JAudio2</text>
<text text-anchor="middle" x="143.5" y="-342.5" font-family="Helvetica,sans-Serif" font-size="10.00">/JAISound.cpp</text>
</a>
</g>
</g>
<!-- Node1&#45;&gt;Node2 -->
<g id="edge1" class="edge">
<title>Node1&#45;&gt;Node2</title>
<path fill="none" stroke="midnightblue" d="M389.81,-402.39C338.83,-392.51 269.47,-378.83 208.5,-366 205.45,-365.36 202.31,-364.69 199.15,-364.01"/>
<polygon fill="midnightblue" stroke="midnightblue" points="389.27,-405.85 399.75,-404.31 390.6,-398.98 389.27,-405.85"/>
</g>
<!-- Node3 -->
<g id="node3" class="node">
<title>Node3</title>
<g id="a_node3"><a xlink:href="Z2AudioMgr_8h.html" target="_top" xlink:title=" ">
<polygon fill="white" stroke="black" points="342.5,-268.5 342.5,-298.5 442.5,-298.5 442.5,-268.5 342.5,-268.5"/>
<text text-anchor="start" x="350.5" y="-286.5" font-family="Helvetica,sans-Serif" font-size="10.00">include/Z2AudioLib</text>
<text text-anchor="middle" x="392.5" y="-275.5" font-family="Helvetica,sans-Serif" font-size="10.00">/Z2AudioMgr.h</text>
</a>
</g>
</g>
<!-- Node1&#45;&gt;Node3 -->
<g id="edge2" class="edge">
<title>Node1&#45;&gt;Node3</title>
<path fill="none" stroke="midnightblue" d="M461.47,-392.17C459.22,-375.24 454.47,-352.64 444.5,-335 436.39,-320.65 422.96,-307.76 411.78,-298.6"/>
<polygon fill="midnightblue" stroke="midnightblue" points="458.02,-392.82 462.62,-402.37 464.98,-392.04 458.02,-392.82"/>
</g>
<!-- Node5 -->
<g id="node5" class="node">
<title>Node5</title>
<g id="a_node5"><a xlink:href="Z2SceneMgr_8h.html" target="_top" xlink:title=" ">
<polygon fill="white" stroke="black" points="217.5,-335.5 217.5,-365.5 317.5,-365.5 317.5,-335.5 217.5,-335.5"/>
<text text-anchor="start" x="225.5" y="-353.5" font-family="Helvetica,sans-Serif" font-size="10.00">include/Z2AudioLib</text>
<text text-anchor="middle" x="267.5" y="-342.5" font-family="Helvetica,sans-Serif" font-size="10.00">/Z2SceneMgr.h</text>
</a>
</g>
</g>
<!-- Node1&#45;&gt;Node5 -->
<g id="edge4" class="edge">
<title>Node1&#45;&gt;Node5</title>
<path fill="none" stroke="midnightblue" d="M411.42,-399.23C379.71,-388.71 339.72,-375.45 309.95,-365.58"/>
<polygon fill="midnightblue" stroke="midnightblue" points="410.38,-402.57 420.97,-402.4 412.58,-395.93 410.38,-402.57"/>
</g>
<!-- Node7 -->
<g id="node7" class="node">
<title>Node7</title>
<g id="a_node7"><a xlink:href="Z2SeMgr_8h.html" target="_top" xlink:title=" ">
<polygon fill="white" stroke="black" points="335.5,-335.5 335.5,-365.5 435.5,-365.5 435.5,-335.5 335.5,-335.5"/>
<text text-anchor="start" x="343.5" y="-353.5" font-family="Helvetica,sans-Serif" font-size="10.00">include/Z2AudioLib</text>
<text text-anchor="middle" x="385.5" y="-342.5" font-family="Helvetica,sans-Serif" font-size="10.00">/Z2SeMgr.h</text>
</a>
</g>
</g>
<!-- Node1&#45;&gt;Node7 -->
<g id="edge7" class="edge">
<title>Node1&#45;&gt;Node7</title>
<path fill="none" stroke="midnightblue" d="M438.76,-395.88C426.91,-386.01 413.02,-374.43 402.39,-365.58"/>
<polygon fill="midnightblue" stroke="midnightblue" points="436.65,-398.68 446.58,-402.4 441.13,-393.31 436.65,-398.68"/>
</g>
<!-- Node9 -->
<g id="node9" class="node">
<title>Node9</title>
<g id="a_node9"><a xlink:href="Z2SeqMgr_8h.html" target="_top" xlink:title=" ">
<polygon fill="white" stroke="black" points="491.5,-335.5 491.5,-365.5 591.5,-365.5 591.5,-335.5 491.5,-335.5"/>
<text text-anchor="start" x="499.5" y="-353.5" font-family="Helvetica,sans-Serif" font-size="10.00">include/Z2AudioLib</text>
<text text-anchor="middle" x="541.5" y="-342.5" font-family="Helvetica,sans-Serif" font-size="10.00">/Z2SeqMgr.h</text>
</a>
</g>
</g>
<!-- Node1&#45;&gt;Node9 -->
<g id="edge10" class="edge">
<title>Node1&#45;&gt;Node9</title>
<path fill="none" stroke="midnightblue" d="M488.24,-395.88C500.09,-386.01 513.98,-374.43 524.61,-365.58"/>
<polygon fill="midnightblue" stroke="midnightblue" points="485.87,-393.31 480.42,-402.4 490.35,-398.68 485.87,-393.31"/>
</g>
<!-- Node12 -->
<g id="node12" class="node">
<title>Node12</title>
<g id="a_node12"><a xlink:href="Z2SoundHandles_8h.html" target="_top" xlink:title=" ">
<polygon fill="white" stroke="black" points="857.5,-335.5 857.5,-365.5 959.5,-365.5 959.5,-335.5 857.5,-335.5"/>
<text text-anchor="start" x="865.5" y="-353.5" font-family="Helvetica,sans-Serif" font-size="10.00">include/Z2AudioLib</text>
<text text-anchor="middle" x="908.5" y="-342.5" font-family="Helvetica,sans-Serif" font-size="10.00">/Z2SoundHandles.h</text>
</a>
</g>
</g>
<!-- Node1&#45;&gt;Node12 -->
<g id="edge14" class="edge">
<title>Node1&#45;&gt;Node12</title>
<path fill="none" stroke="midnightblue" d="M537.17,-405.74C627.6,-392.53 778.63,-370.47 857.31,-358.98"/>
<polygon fill="midnightblue" stroke="midnightblue" points="536.65,-402.28 527.26,-407.19 537.66,-409.2 536.65,-402.28"/>
</g>
<!-- Node29 -->
<g id="node29" class="node">
<title>Node29</title>
<g id="a_node29"><a xlink:href="Z2SoundStarter_8h.html" target="_top" xlink:title=" ">
<polygon fill="white" stroke="black" points="653.5,-335.5 653.5,-365.5 753.5,-365.5 753.5,-335.5 653.5,-335.5"/>
<text text-anchor="start" x="661.5" y="-353.5" font-family="Helvetica,sans-Serif" font-size="10.00">include/Z2AudioLib</text>
<text text-anchor="middle" x="703.5" y="-342.5" font-family="Helvetica,sans-Serif" font-size="10.00">/Z2SoundStarter.h</text>
</a>
</g>
</g>
<!-- Node1&#45;&gt;Node29 -->
<g id="edge33" class="edge">
<title>Node1&#45;&gt;Node29</title>
<path fill="none" stroke="midnightblue" d="M525.15,-399.8C564.98,-389.02 616.15,-375.16 653.46,-365.05"/>
<polygon fill="midnightblue" stroke="midnightblue" points="524.02,-396.48 515.28,-402.48 525.85,-403.24 524.02,-396.48"/>
</g>
<!-- Node4 -->
<g id="node4" class="node">
<title>Node4</title>
<g id="a_node4"><a xlink:href="Z2AudioMgr_8cpp.html" target="_top" xlink:title=" ">
<polygon fill="white" stroke="black" points="313.5,-207 313.5,-226 471.5,-226 471.5,-207 313.5,-207"/>
<text text-anchor="middle" x="392.5" y="-214" font-family="Helvetica,sans-Serif" font-size="10.00">libs/Z2AudioLib/Z2AudioMgr.cpp</text>
</a>
</g>
</g>
<!-- Node3&#45;&gt;Node4 -->
<g id="edge3" class="edge">
<title>Node3&#45;&gt;Node4</title>
<path fill="none" stroke="midnightblue" d="M392.5,-258.25C392.5,-247.02 392.5,-234.38 392.5,-226.19"/>
<polygon fill="midnightblue" stroke="midnightblue" points="389,-258.4 392.5,-268.4 396,-258.4 389,-258.4"/>
</g>
<!-- Node5&#45;&gt;Node3 -->
<g id="edge6" class="edge">
<title>Node5&#45;&gt;Node3</title>
<path fill="none" stroke="midnightblue" d="M303.63,-330.71C323.34,-320.46 347.34,-307.98 365.43,-298.58"/>
<polygon fill="midnightblue" stroke="midnightblue" points="301.88,-327.68 294.62,-335.4 305.11,-333.89 301.88,-327.68"/>
</g>
<!-- Node6 -->
<g id="node6" class="node">
<title>Node6</title>
<g id="a_node6"><a xlink:href="Z2SceneMgr_8cpp.html" target="_top" xlink:title=" ">
<polygon fill="white" stroke="black" points="0,-274 0,-293 161,-293 161,-274 0,-274"/>
<text text-anchor="middle" x="80.5" y="-281" font-family="Helvetica,sans-Serif" font-size="10.00">libs/Z2AudioLib/Z2SceneMgr.cpp</text>
</a>
</g>
</g>
<!-- Node5&#45;&gt;Node6 -->
<g id="edge5" class="edge">
<title>Node5&#45;&gt;Node6</title>
<path fill="none" stroke="midnightblue" d="M217.46,-332.11C181.08,-319.46 133.41,-302.89 104.97,-293.01"/>
<polygon fill="midnightblue" stroke="midnightblue" points="216.33,-335.42 226.92,-335.4 218.63,-328.81 216.33,-335.42"/>
</g>
<!-- Node7&#45;&gt;Node3 -->
<g id="edge9" class="edge">
<title>Node7&#45;&gt;Node3</title>
<path fill="none" stroke="midnightblue" d="M388.1,-325.4C389.07,-316.37 390.14,-306.41 390.98,-298.58"/>
<polygon fill="midnightblue" stroke="midnightblue" points="384.61,-325.08 387.02,-335.4 391.57,-325.83 384.61,-325.08"/>
</g>
<!-- Node8 -->
<g id="node8" class="node">
<title>Node8</title>
<g id="a_node8"><a xlink:href="Z2SeMgr_8cpp.html" target="_top" xlink:title=" ">
<polygon fill="white" stroke="black" points="179,-274 179,-293 324,-293 324,-274 179,-274"/>
<text text-anchor="middle" x="251.5" y="-281" font-family="Helvetica,sans-Serif" font-size="10.00">libs/Z2AudioLib/Z2SeMgr.cpp</text>
</a>
</g>
</g>
<!-- Node7&#45;&gt;Node8 -->
<g id="edge8" class="edge">
<title>Node7&#45;&gt;Node8</title>
<path fill="none" stroke="midnightblue" d="M347.29,-330.97C321.55,-318.48 288.81,-302.6 269.04,-293.01"/>
<polygon fill="midnightblue" stroke="midnightblue" points="345.9,-334.18 356.42,-335.4 348.95,-327.88 345.9,-334.18"/>
</g>
<!-- Node9&#45;&gt;Node3 -->
<g id="edge13" class="edge">
<title>Node9&#45;&gt;Node3</title>
<path fill="none" stroke="midnightblue" d="M499.71,-331.27C475.98,-320.92 446.72,-308.15 424.77,-298.58"/>
<polygon fill="midnightblue" stroke="midnightblue" points="498.6,-334.61 509.17,-335.4 501.4,-328.19 498.6,-334.61"/>
</g>
<!-- Node10 -->
<g id="node10" class="node">
<title>Node10</title>
<g id="a_node10"><a xlink:href="Z2SeqMgr_8cpp.html" target="_top" xlink:title=" ">
<polygon fill="white" stroke="black" points="460.5,-274 460.5,-293 610.5,-293 610.5,-274 460.5,-274"/>
<text text-anchor="middle" x="535.5" y="-281" font-family="Helvetica,sans-Serif" font-size="10.00">libs/Z2AudioLib/Z2SeqMgr.cpp</text>
</a>
</g>
</g>
<!-- Node9&#45;&gt;Node10 -->
<g id="edge11" class="edge">
<title>Node9&#45;&gt;Node10</title>
<path fill="none" stroke="midnightblue" d="M539.26,-325.25C538.22,-314.02 537.06,-301.38 536.3,-293.19"/>
<polygon fill="midnightblue" stroke="midnightblue" points="535.79,-325.76 540.2,-335.4 542.76,-325.12 535.79,-325.76"/>
</g>
<!-- Node11 -->
<g id="node11" class="node">
<title>Node11</title>
<g id="a_node11"><a xlink:href="Z2SoundObjMgr_8cpp.html" target="_top" xlink:title=" ">
<polygon fill="white" stroke="black" points="663,-67.5 663,-97.5 804,-97.5 804,-67.5 663,-67.5"/>
<text text-anchor="start" x="671" y="-85.5" font-family="Helvetica,sans-Serif" font-size="10.00">libs/Z2AudioLib/Z2SoundObj</text>
<text text-anchor="middle" x="733.5" y="-74.5" font-family="Helvetica,sans-Serif" font-size="10.00">Mgr.cpp</text>
</a>
</g>
</g>
<!-- Node9&#45;&gt;Node11 -->
<g id="edge12" class="edge">
<title>Node9&#45;&gt;Node11</title>
<path fill="none" stroke="midnightblue" d="M583.79,-330.21C597.01,-322.27 610.47,-311.88 619.5,-299 662.69,-237.37 614.68,-195.88 657.5,-134 668.41,-118.24 685.98,-106.09 701.49,-97.67"/>
<polygon fill="midnightblue" stroke="midnightblue" points="581.74,-327.35 574.74,-335.31 585.17,-333.45 581.74,-327.35"/>
</g>
<!-- Node13 -->
<g id="node13" class="node">
<title>Node13</title>
<g id="a_node13"><a xlink:href="Z2SoundHandles_8cpp.html" target="_top" xlink:title=" ">
<polygon fill="white" stroke="black" points="976.5,-274 976.5,-293 1156.5,-293 1156.5,-274 976.5,-274"/>
<text text-anchor="middle" x="1066.5" y="-281" font-family="Helvetica,sans-Serif" font-size="10.00">libs/Z2AudioLib/Z2SoundHandles.cpp</text>
</a>
</g>
</g>
<!-- Node12&#45;&gt;Node13 -->
<g id="edge15" class="edge">
<title>Node12&#45;&gt;Node13</title>
<path fill="none" stroke="midnightblue" d="M952.35,-331.46C982.88,-318.9 1022.2,-302.72 1045.82,-293.01"/>
<polygon fill="midnightblue" stroke="midnightblue" points="950.7,-328.35 942.78,-335.4 953.36,-334.83 950.7,-328.35"/>
</g>
<!-- Node14 -->
<g id="node14" class="node">
<title>Node14</title>
<g id="a_node14"><a xlink:href="Z2SoundObject_8h.html" target="_top" xlink:title=" ">
<polygon fill="white" stroke="black" points="858.5,-268.5 858.5,-298.5 958.5,-298.5 958.5,-268.5 858.5,-268.5"/>
<text text-anchor="start" x="866.5" y="-286.5" font-family="Helvetica,sans-Serif" font-size="10.00">include/Z2AudioLib</text>
<text text-anchor="middle" x="908.5" y="-275.5" font-family="Helvetica,sans-Serif" font-size="10.00">/Z2SoundObject.h</text>
</a>
</g>
</g>
<!-- Node12&#45;&gt;Node14 -->
<g id="edge16" class="edge">
<title>Node12&#45;&gt;Node14</title>
<path fill="none" stroke="midnightblue" d="M908.5,-325.11C908.5,-316.15 908.5,-306.32 908.5,-298.58"/>
<polygon fill="midnightblue" stroke="midnightblue" points="905,-325.4 908.5,-335.4 912,-325.4 905,-325.4"/>
</g>
<!-- Node15 -->
<g id="node15" class="node">
<title>Node15</title>
<g id="a_node15"><a xlink:href="Z2SoundObject_8cpp.html" target="_top" xlink:title=" ">
<polygon fill="white" stroke="black" points="804,-207 804,-226 977,-226 977,-207 804,-207"/>
<text text-anchor="middle" x="890.5" y="-214" font-family="Helvetica,sans-Serif" font-size="10.00">libs/Z2AudioLib/Z2SoundObject.cpp</text>
</a>
</g>
</g>
<!-- Node14&#45;&gt;Node15 -->
<g id="edge17" class="edge">
<title>Node14&#45;&gt;Node15</title>
<path fill="none" stroke="midnightblue" d="M901.88,-258.6C898.75,-247.28 895.2,-234.46 892.91,-226.19"/>
<polygon fill="midnightblue" stroke="midnightblue" points="898.55,-259.69 904.59,-268.4 905.3,-257.82 898.55,-259.69"/>
</g>
<!-- Node16 -->
<g id="node16" class="node">
<title>Node16</title>
<g id="a_node16"><a xlink:href="d__bomb_8h.html" target="_top" xlink:title=" ">
<polygon fill="white" stroke="black" points="676,-207 676,-226 777,-226 777,-207 676,-207"/>
<text text-anchor="middle" x="726.5" y="-214" font-family="Helvetica,sans-Serif" font-size="10.00">include/d/d_bomb.h</text>
</a>
</g>
</g>
<!-- Node14&#45;&gt;Node16 -->
<g id="edge18" class="edge">
<title>Node14&#45;&gt;Node16</title>
<path fill="none" stroke="midnightblue" d="M859.35,-264.95C824,-252.32 777.88,-235.85 750.32,-226.01"/>
<polygon fill="midnightblue" stroke="midnightblue" points="858.41,-268.33 869.01,-268.4 860.77,-261.74 858.41,-268.33"/>
</g>
<!-- Node18 -->
<g id="node18" class="node">
<title>Node18</title>
<g id="a_node18"><a xlink:href="Z2Creature_8h.html" target="_top" xlink:title=" ">
<polygon fill="white" stroke="black" points="995.5,-201.5 995.5,-231.5 1095.5,-231.5 1095.5,-201.5 995.5,-201.5"/>
<text text-anchor="start" x="1003.5" y="-219.5" font-family="Helvetica,sans-Serif" font-size="10.00">include/Z2AudioLib</text>
<text text-anchor="middle" x="1045.5" y="-208.5" font-family="Helvetica,sans-Serif" font-size="10.00">/Z2Creature.h</text>
</a>
</g>
</g>
<!-- Node14&#45;&gt;Node18 -->
<g id="edge20" class="edge">
<title>Node14&#45;&gt;Node18</title>
<path fill="none" stroke="midnightblue" d="M947.51,-263.99C969.22,-253.69 995.83,-241.07 1015.83,-231.58"/>
<polygon fill="midnightblue" stroke="midnightblue" points="945.76,-260.95 938.23,-268.4 948.76,-267.27 945.76,-260.95"/>
</g>
<!-- Node27 -->
<g id="node27" class="node">
<title>Node27</title>
<g id="a_node27"><a xlink:href="Z2WolfHowlMgr_8h.html" target="_top" xlink:title=" ">
<polygon fill="white" stroke="black" points="1206.5,-201.5 1206.5,-231.5 1306.5,-231.5 1306.5,-201.5 1206.5,-201.5"/>
<text text-anchor="start" x="1214.5" y="-219.5" font-family="Helvetica,sans-Serif" font-size="10.00">include/Z2AudioLib</text>
<text text-anchor="middle" x="1256.5" y="-208.5" font-family="Helvetica,sans-Serif" font-size="10.00">/Z2WolfHowlMgr.h</text>
</a>
</g>
</g>
<!-- Node14&#45;&gt;Node27 -->
<g id="edge30" class="edge">
<title>Node14&#45;&gt;Node27</title>
<path fill="none" stroke="midnightblue" d="M968.67,-267.83C1057.88,-249.33 1150.75,-233.98 1206.44,-225.19"/>
<polygon fill="midnightblue" stroke="midnightblue" points="967.73,-264.45 958.66,-269.93 969.16,-271.31 967.73,-264.45"/>
</g>
<!-- Node17 -->
<g id="node17" class="node">
<title>Node17</title>
<g id="a_node17"><a xlink:href="d__bomb_8cpp.html" target="_top" xlink:title=" ">
<polygon fill="white" stroke="black" points="666.5,-140 666.5,-159 760.5,-159 760.5,-140 666.5,-140"/>
<text text-anchor="middle" x="713.5" y="-147" font-family="Helvetica,sans-Serif" font-size="10.00">src/d/d_bomb.cpp</text>
</a>
</g>
</g>
<!-- Node16&#45;&gt;Node17 -->
<g id="edge19" class="edge">
<title>Node16&#45;&gt;Node17</title>
<path fill="none" stroke="midnightblue" d="M722.78,-196.91C720.3,-184.49 717.14,-168.72 715.23,-159.13"/>
<polygon fill="midnightblue" stroke="midnightblue" points="719.35,-197.61 724.75,-206.73 726.22,-196.24 719.35,-197.61"/>
</g>
<!-- Node19 -->
<g id="node19" class="node">
<title>Node19</title>
<g id="a_node19"><a xlink:href="Z2Creature_8cpp.html" target="_top" xlink:title=" ">
<polygon fill="white" stroke="black" points="897,-140 897,-159 1050,-159 1050,-140 897,-140"/>
<text text-anchor="middle" x="973.5" y="-147" font-family="Helvetica,sans-Serif" font-size="10.00">libs/Z2AudioLib/Z2Creature.cpp</text>
</a>
</g>
</g>
<!-- Node18&#45;&gt;Node19 -->
<g id="edge21" class="edge">
<title>Node18&#45;&gt;Node19</title>
<path fill="none" stroke="midnightblue" d="M1022.43,-194.67C1009.14,-182.67 993.13,-168.22 983.13,-159.19"/>
<polygon fill="midnightblue" stroke="midnightblue" points="1020.11,-197.29 1029.88,-201.4 1024.8,-192.1 1020.11,-197.29"/>
</g>
<!-- Node20 -->
<g id="node20" class="node">
<title>Node20</title>
<g id="a_node20"><a xlink:href="d__a__horse__static_8h.html" target="_top" xlink:title=" ">
<polygon fill="white" stroke="black" points="1068.5,-134.5 1068.5,-164.5 1180.5,-164.5 1180.5,-134.5 1068.5,-134.5"/>
<text text-anchor="start" x="1076.5" y="-152.5" font-family="Helvetica,sans-Serif" font-size="10.00">include/d/a/d_a_horse</text>
<text text-anchor="middle" x="1124.5" y="-141.5" font-family="Helvetica,sans-Serif" font-size="10.00">_static.h</text>
</a>
</g>
</g>
<!-- Node18&#45;&gt;Node20 -->
<g id="edge22" class="edge">
<title>Node18&#45;&gt;Node20</title>
<path fill="none" stroke="midnightblue" d="M1070.56,-194.88C1082.56,-185.01 1096.63,-173.43 1107.39,-164.58"/>
<polygon fill="midnightblue" stroke="midnightblue" points="1068.14,-192.34 1062.64,-201.4 1072.59,-197.75 1068.14,-192.34"/>
</g>
<!-- Node22 -->
<g id="node22" class="node">
<title>Node22</title>
<g id="a_node22"><a xlink:href="d__a__alink_8h.html" target="_top" xlink:title=" ">
<polygon fill="white" stroke="black" points="1198.5,-140 1198.5,-159 1314.5,-159 1314.5,-140 1198.5,-140"/>
<text text-anchor="middle" x="1256.5" y="-147" font-family="Helvetica,sans-Serif" font-size="10.00">include/d/a/d_a_alink.h</text>
</a>
</g>
</g>
<!-- Node18&#45;&gt;Node22 -->
<g id="edge24" class="edge">
<title>Node18&#45;&gt;Node22</title>
<path fill="none" stroke="midnightblue" d="M1100.65,-198.51C1141.83,-185.83 1196.38,-169.02 1228.81,-159.03"/>
<polygon fill="midnightblue" stroke="midnightblue" points="1099.55,-195.19 1091.02,-201.48 1101.61,-201.88 1099.55,-195.19"/>
</g>
<!-- Node26 -->
<g id="node26" class="node">
<title>Node26</title>
<g id="a_node26"><a xlink:href="Z2SoundObjMgr_8h.html" target="_top" xlink:title=" ">
<polygon fill="white" stroke="black" points="778.5,-134.5 778.5,-164.5 878.5,-164.5 878.5,-134.5 778.5,-134.5"/>
<text text-anchor="start" x="786.5" y="-152.5" font-family="Helvetica,sans-Serif" font-size="10.00">include/Z2AudioLib</text>
<text text-anchor="middle" x="828.5" y="-141.5" font-family="Helvetica,sans-Serif" font-size="10.00">/Z2SoundObjMgr.h</text>
</a>
</g>
</g>
<!-- Node18&#45;&gt;Node26 -->
<g id="edge28" class="edge">
<title>Node18&#45;&gt;Node26</title>
<path fill="none" stroke="midnightblue" d="M989.01,-198.58C953.77,-188.02 908.93,-174.59 875.61,-164.61"/>
<polygon fill="midnightblue" stroke="midnightblue" points="988.1,-201.96 998.68,-201.48 990.11,-195.25 988.1,-201.96"/>
</g>
<!-- Node21 -->
<g id="node21" class="node">
<title>Node21</title>
<g id="a_node21"><a xlink:href="d__a__horse__static_8cpp.html" target="_top" xlink:title=" ">
<polygon fill="white" stroke="black" points="1041.5,-73 1041.5,-92 1183.5,-92 1183.5,-73 1041.5,-73"/>
<text text-anchor="middle" x="1112.5" y="-80" font-family="Helvetica,sans-Serif" font-size="10.00">src/d/a/d_a_horse_static.cpp</text>
</a>
</g>
</g>
<!-- Node20&#45;&gt;Node21 -->
<g id="edge23" class="edge">
<title>Node20&#45;&gt;Node21</title>
<path fill="none" stroke="midnightblue" d="M1120.02,-124.25C1117.95,-113.02 1115.62,-100.38 1114.11,-92.19"/>
<polygon fill="midnightblue" stroke="midnightblue" points="1116.64,-125.2 1121.9,-134.4 1123.52,-123.93 1116.64,-125.2"/>
</g>
<!-- Node23 -->
<g id="node23" class="node">
<title>Node23</title>
<g id="a_node23"><a xlink:href="d__a__alink_8cpp.html" target="_top" xlink:title=" ">
<polygon fill="white" stroke="black" points="1202,-73 1202,-92 1311,-92 1311,-73 1202,-73"/>
<text text-anchor="middle" x="1256.5" y="-80" font-family="Helvetica,sans-Serif" font-size="10.00">src/d/a/d_a_alink.cpp</text>
</a>
</g>
</g>
<!-- Node22&#45;&gt;Node23 -->
<g id="edge25" class="edge">
<title>Node22&#45;&gt;Node23</title>
<path fill="none" stroke="midnightblue" d="M1256.5,-129.54C1256.5,-117.17 1256.5,-101.62 1256.5,-92.13"/>
<polygon fill="midnightblue" stroke="midnightblue" points="1253,-129.73 1256.5,-139.73 1260,-129.73 1253,-129.73"/>
</g>
<!-- Node24 -->
<g id="node24" class="node">
<title>Node24</title>
<g id="a_node24"><a xlink:href="d__com__inf__game_8h.html" target="_top" xlink:title=" ">
<polygon fill="white" stroke="black" points="1329.5,-67.5 1329.5,-97.5 1439.5,-97.5 1439.5,-67.5 1329.5,-67.5"/>
<text text-anchor="start" x="1337.5" y="-85.5" font-family="Helvetica,sans-Serif" font-size="10.00">include/d/com/d_com</text>
<text text-anchor="middle" x="1384.5" y="-74.5" font-family="Helvetica,sans-Serif" font-size="10.00">_inf_game.h</text>
</a>
</g>
</g>
<!-- Node22&#45;&gt;Node24 -->
<g id="edge26" class="edge">
<title>Node22&#45;&gt;Node24</title>
<path fill="none" stroke="midnightblue" d="M1282.7,-135.19C1304.23,-124.26 1334.66,-108.81 1356.63,-97.65"/>
<polygon fill="midnightblue" stroke="midnightblue" points="1280.83,-132.22 1273.5,-139.87 1284,-138.46 1280.83,-132.22"/>
</g>
<!-- Node25 -->
<g id="node25" class="node">
<title>Node25</title>
<g id="a_node25"><a xlink:href="d__com__inf__game_8cpp.html" target="_top" xlink:title=" ">
<polygon fill="white" stroke="black" points="1330.5,-0.5 1330.5,-30.5 1438.5,-30.5 1438.5,-0.5 1330.5,-0.5"/>
<text text-anchor="start" x="1338.5" y="-18.5" font-family="Helvetica,sans-Serif" font-size="10.00">src/d/com/d_com_inf</text>
<text text-anchor="middle" x="1384.5" y="-7.5" font-family="Helvetica,sans-Serif" font-size="10.00">_game.cpp</text>
</a>
</g>
</g>
<!-- Node24&#45;&gt;Node25 -->
<g id="edge27" class="edge">
<title>Node24&#45;&gt;Node25</title>
<path fill="none" stroke="midnightblue" d="M1384.5,-57.11C1384.5,-48.15 1384.5,-38.32 1384.5,-30.58"/>
<polygon fill="midnightblue" stroke="midnightblue" points="1381,-57.4 1384.5,-67.4 1388,-57.4 1381,-57.4"/>
</g>
<!-- Node26&#45;&gt;Node11 -->
<g id="edge29" class="edge">
<title>Node26&#45;&gt;Node11</title>
<path fill="none" stroke="midnightblue" d="M799.61,-128.73C784.91,-118.68 767.39,-106.68 754.07,-97.58"/>
<polygon fill="midnightblue" stroke="midnightblue" points="797.66,-131.64 807.89,-134.4 801.61,-125.86 797.66,-131.64"/>
</g>
<!-- Node27&#45;&gt;Node22 -->
<g id="edge32" class="edge">
<title>Node27&#45;&gt;Node22</title>
<path fill="none" stroke="midnightblue" d="M1256.5,-191.25C1256.5,-180.02 1256.5,-167.38 1256.5,-159.19"/>
<polygon fill="midnightblue" stroke="midnightblue" points="1253,-191.4 1256.5,-201.4 1260,-191.4 1253,-191.4"/>
</g>
<!-- Node28 -->
<g id="node28" class="node">
<title>Node28</title>
<g id="a_node28"><a xlink:href="Z2WolfHowlMgr_8cpp.html" target="_top" xlink:title=" ">
<polygon fill="white" stroke="black" points="1332.5,-134.5 1332.5,-164.5 1472.5,-164.5 1472.5,-134.5 1332.5,-134.5"/>
<text text-anchor="start" x="1340.5" y="-152.5" font-family="Helvetica,sans-Serif" font-size="10.00">libs/Z2AudioLib/Z2WolfHowl</text>
<text text-anchor="middle" x="1402.5" y="-141.5" font-family="Helvetica,sans-Serif" font-size="10.00">Mgr.cpp</text>
</a>
</g>
</g>
<!-- Node27&#45;&gt;Node28 -->
<g id="edge31" class="edge">
<title>Node27&#45;&gt;Node28</title>
<path fill="none" stroke="midnightblue" d="M1297.45,-197.27C1320.7,-186.92 1349.37,-174.15 1370.88,-164.58"/>
<polygon fill="midnightblue" stroke="midnightblue" points="1295.89,-194.13 1288.18,-201.4 1298.74,-200.53 1295.89,-194.13"/>
</g>
<!-- Node29&#45;&gt;Node3 -->
<g id="edge35" class="edge">
<title>Node29&#45;&gt;Node3</title>
<path fill="none" stroke="midnightblue" d="M643.26,-338.19C592.12,-328.4 516.83,-313.57 451.5,-299 448.62,-298.36 445.66,-297.68 442.68,-296.99"/>
<polygon fill="midnightblue" stroke="midnightblue" points="642.68,-341.64 653.16,-340.08 644,-334.76 642.68,-341.64"/>
</g>
<!-- Node29&#45;&gt;Node14 -->
<g id="edge36" class="edge">
<title>Node29&#45;&gt;Node14</title>
<path fill="none" stroke="midnightblue" d="M757.29,-332.44C790.52,-321.91 832.65,-308.55 864,-298.61"/>
<polygon fill="midnightblue" stroke="midnightblue" points="756.2,-329.12 747.73,-335.48 758.32,-335.79 756.2,-329.12"/>
</g>
<!-- Node30 -->
<g id="node30" class="node">
<title>Node30</title>
<g id="a_node30"><a xlink:href="Z2SoundStarter_8cpp.html" target="_top" xlink:title=" ">
<polygon fill="white" stroke="black" points="667,-274 667,-293 840,-293 840,-274 667,-274"/>
<text text-anchor="middle" x="753.5" y="-281" font-family="Helvetica,sans-Serif" font-size="10.00">libs/Z2AudioLib/Z2SoundStarter.cpp</text>
</a>
</g>
</g>
<!-- Node29&#45;&gt;Node30 -->
<g id="edge34" class="edge">
<title>Node29&#45;&gt;Node30</title>
<path fill="none" stroke="midnightblue" d="M720.56,-327.32C729.58,-315.6 740.13,-301.88 746.81,-293.19"/>
<polygon fill="midnightblue" stroke="midnightblue" points="717.67,-325.34 714.35,-335.4 723.22,-329.6 717.67,-325.34"/>
</g>
</g>
</svg>
