<?xml version="1.0" encoding="UTF-8" standalone="no"?>
<!DOCTYPE svg PUBLIC "-//W3C//DTD SVG 1.1//EN"
 "http://www.w3.org/Graphics/SVG/1.1/DTD/svg11.dtd">
<!-- Generated by graphviz version 2.44.0 ()
 -->
<!-- Title: include/JSystem/JAudio2/JAISound.h Pages: 1 -->
<svg width="1434pt" height="508pt"
 viewBox="0.00 0.00 1434.00 508.00" xmlns="http://www.w3.org/2000/svg" xmlns:xlink="http://www.w3.org/1999/xlink">
<g id="graph0" class="graph" transform="scale(1 1) rotate(0) translate(4 504)">
<title>include/JSystem/JAudio2/JAISound.h</title>
<polygon fill="white" stroke="transparent" points="-4,4 -4,-504 1430,-504 1430,4 -4,4"/>
<!-- Node1 -->
<g id="node1" class="node">
<title>Node1</title>
<g id="a_node1"><a xlink:title=" ">
<polygon fill="#bfbfbf" stroke="black" points="332,-469.5 332,-499.5 459,-499.5 459,-469.5 332,-469.5"/>
<text text-anchor="start" x="340" y="-487.5" font-family="Helvetica,sans-Serif" font-size="10.00">include/JSystem/JAudio2</text>
<text text-anchor="middle" x="395.5" y="-476.5" font-family="Helvetica,sans-Serif" font-size="10.00">/JAISound.h</text>
</a>
</g>
</g>
<!-- Node2 -->
<g id="node2" class="node">
<title>Node2</title>
<g id="a_node2"><a xlink:href="JAISound_8cpp.html" target="_top" xlink:title=" ">
<polygon fill="white" stroke="black" points="0,-402.5 0,-432.5 111,-432.5 111,-402.5 0,-402.5"/>
<text text-anchor="start" x="8" y="-420.5" font-family="Helvetica,sans-Serif" font-size="10.00">libs/JSystem/JAudio2</text>
<text text-anchor="middle" x="55.5" y="-409.5" font-family="Helvetica,sans-Serif" font-size="10.00">/JAISound.cpp</text>
</a>
</g>
</g>
<!-- Node1&#45;&gt;Node2 -->
<g id="edge1" class="edge">
<title>Node1&#45;&gt;Node2</title>
<path fill="none" stroke="midnightblue" d="M321.99,-470.15C267.66,-460.18 191.9,-446.09 125.5,-433 120.87,-432.09 116.08,-431.13 111.26,-430.15"/>
<polygon fill="midnightblue" stroke="midnightblue" points="321.41,-473.6 331.88,-471.96 322.67,-466.71 321.41,-473.6"/>
</g>
<!-- Node3 -->
<g id="node3" class="node">
<title>Node3</title>
<g id="a_node3"><a xlink:href="Z2AudioMgr_8h.html" target="_top" xlink:title=" ">
<polygon fill="white" stroke="black" points="397.5,-134.5 397.5,-164.5 497.5,-164.5 497.5,-134.5 397.5,-134.5"/>
<text text-anchor="start" x="405.5" y="-152.5" font-family="Helvetica,sans-Serif" font-size="10.00">include/Z2AudioLib</text>
<text text-anchor="middle" x="447.5" y="-141.5" font-family="Helvetica,sans-Serif" font-size="10.00">/Z2AudioMgr.h</text>
</a>
</g>
</g>
<!-- Node1&#45;&gt;Node3 -->
<g id="edge2" class="edge">
<title>Node1&#45;&gt;Node3</title>
<path fill="none" stroke="midnightblue" d="M321.9,-476.67C246.27,-465.12 139.5,-434.17 139.5,-351.5 139.5,-351.5 139.5,-351.5 139.5,-282.5 139.5,-171.67 310.05,-152.69 397.33,-150.24"/>
<polygon fill="midnightblue" stroke="midnightblue" points="321.49,-480.14 331.89,-478.11 322.49,-473.21 321.49,-480.14"/>
</g>
<!-- Node6 -->
<g id="node6" class="node">
<title>Node6</title>
<g id="a_node6"><a xlink:href="Z2SceneMgr_8h.html" target="_top" xlink:title=" ">
<polygon fill="white" stroke="black" points="236.5,-402.5 236.5,-432.5 336.5,-432.5 336.5,-402.5 236.5,-402.5"/>
<text text-anchor="start" x="244.5" y="-420.5" font-family="Helvetica,sans-Serif" font-size="10.00">include/Z2AudioLib</text>
<text text-anchor="middle" x="286.5" y="-409.5" font-family="Helvetica,sans-Serif" font-size="10.00">/Z2SceneMgr.h</text>
</a>
</g>
</g>
<!-- Node1&#45;&gt;Node6 -->
<g id="edge5" class="edge">
<title>Node1&#45;&gt;Node6</title>
<path fill="none" stroke="midnightblue" d="M362.83,-464.02C345.86,-453.9 325.52,-441.77 310.11,-432.58"/>
<polygon fill="midnightblue" stroke="midnightblue" points="361.47,-467.28 371.85,-469.4 365.05,-461.27 361.47,-467.28"/>
</g>
<!-- Node8 -->
<g id="node8" class="node">
<title>Node8</title>
<g id="a_node8"><a xlink:href="Z2SeqMgr_8h.html" target="_top" xlink:title=" ">
<polygon fill="white" stroke="black" points="617.5,-201.5 617.5,-231.5 717.5,-231.5 717.5,-201.5 617.5,-201.5"/>
<text text-anchor="start" x="625.5" y="-219.5" font-family="Helvetica,sans-Serif" font-size="10.00">include/Z2AudioLib</text>
<text text-anchor="middle" x="667.5" y="-208.5" font-family="Helvetica,sans-Serif" font-size="10.00">/Z2SeqMgr.h</text>
</a>
</g>
</g>
<!-- Node1&#45;&gt;Node8 -->
<g id="edge8" class="edge">
<title>Node1&#45;&gt;Node8</title>
<path fill="none" stroke="midnightblue" d="M398.73,-459.07C404.27,-426.51 418.61,-369.03 453.5,-335 504.78,-284.99 581.62,-249.8 627.92,-231.66"/>
<polygon fill="midnightblue" stroke="midnightblue" points="395.25,-458.67 397.16,-469.09 402.16,-459.75 395.25,-458.67"/>
</g>
<!-- Node11 -->
<g id="node11" class="node">
<title>Node11</title>
<g id="a_node11"><a xlink:href="Z2SeMgr_8h.html" target="_top" xlink:title=" ">
<polygon fill="white" stroke="black" points="423.5,-402.5 423.5,-432.5 523.5,-432.5 523.5,-402.5 423.5,-402.5"/>
<text text-anchor="start" x="431.5" y="-420.5" font-family="Helvetica,sans-Serif" font-size="10.00">include/Z2AudioLib</text>
<text text-anchor="middle" x="473.5" y="-409.5" font-family="Helvetica,sans-Serif" font-size="10.00">/Z2SeMgr.h</text>
</a>
</g>
</g>
<!-- Node1&#45;&gt;Node11 -->
<g id="edge12" class="edge">
<title>Node1&#45;&gt;Node11</title>
<path fill="none" stroke="midnightblue" d="M420.24,-462.88C432.09,-453.01 445.98,-441.43 456.61,-432.58"/>
<polygon fill="midnightblue" stroke="midnightblue" points="417.87,-460.31 412.42,-469.4 422.35,-465.68 417.87,-460.31"/>
</g>
<!-- Node13 -->
<g id="node13" class="node">
<title>Node13</title>
<g id="a_node13"><a xlink:href="Z2SoundHandles_8h.html" target="_top" xlink:title=" ">
<polygon fill="white" stroke="black" points="664.5,-402.5 664.5,-432.5 766.5,-432.5 766.5,-402.5 664.5,-402.5"/>
<text text-anchor="start" x="672.5" y="-420.5" font-family="Helvetica,sans-Serif" font-size="10.00">include/Z2AudioLib</text>
<text text-anchor="middle" x="715.5" y="-409.5" font-family="Helvetica,sans-Serif" font-size="10.00">/Z2SoundHandles.h</text>
</a>
</g>
</g>
<!-- Node1&#45;&gt;Node13 -->
<g id="edge15" class="edge">
<title>Node1&#45;&gt;Node13</title>
<path fill="none" stroke="midnightblue" d="M469.24,-468.52C529.01,-456.38 611.7,-439.58 664.39,-428.88"/>
<polygon fill="midnightblue" stroke="midnightblue" points="468.21,-465.16 459.1,-470.58 469.6,-472.02 468.21,-465.16"/>
</g>
<!-- Node35 -->
<g id="node35" class="node">
<title>Node35</title>
<g id="a_node35"><a xlink:href="Z2SoundStarter_8h.html" target="_top" xlink:title=" ">
<polygon fill="white" stroke="black" points="822.5,-402.5 822.5,-432.5 922.5,-432.5 922.5,-402.5 822.5,-402.5"/>
<text text-anchor="start" x="830.5" y="-420.5" font-family="Helvetica,sans-Serif" font-size="10.00">include/Z2AudioLib</text>
<text text-anchor="middle" x="872.5" y="-409.5" font-family="Helvetica,sans-Serif" font-size="10.00">/Z2SoundStarter.h</text>
</a>
</g>
</g>
<!-- Node1&#45;&gt;Node35 -->
<g id="edge43" class="edge">
<title>Node1&#45;&gt;Node35</title>
<path fill="none" stroke="midnightblue" d="M469.11,-474.08C545.7,-464.19 669.07,-448.03 775.5,-433 790.67,-430.86 807.17,-428.43 822.18,-426.18"/>
<polygon fill="midnightblue" stroke="midnightblue" points="468.55,-470.62 459.08,-475.37 469.45,-477.56 468.55,-470.62"/>
</g>
<!-- Node4 -->
<g id="node4" class="node">
<title>Node4</title>
<g id="a_node4"><a xlink:href="d__save_8cpp.html" target="_top" xlink:title=" ">
<polygon fill="white" stroke="black" points="590,-73 590,-92 705,-92 705,-73 590,-73"/>
<text text-anchor="middle" x="647.5" y="-80" font-family="Helvetica,sans-Serif" font-size="10.00">src/d/save/d_save.cpp</text>
</a>
</g>
</g>
<!-- Node3&#45;&gt;Node4 -->
<g id="edge3" class="edge">
<title>Node3&#45;&gt;Node4</title>
<path fill="none" stroke="midnightblue" d="M500.52,-131.27C539.49,-118.6 590.78,-101.93 621.32,-92.01"/>
<polygon fill="midnightblue" stroke="midnightblue" points="499.33,-127.98 490.9,-134.4 501.49,-134.63 499.33,-127.98"/>
</g>
<!-- Node5 -->
<g id="node5" class="node">
<title>Node5</title>
<g id="a_node5"><a xlink:href="Z2AudioMgr_8cpp.html" target="_top" xlink:title=" ">
<polygon fill="white" stroke="black" points="368.5,-73 368.5,-92 526.5,-92 526.5,-73 368.5,-73"/>
<text text-anchor="middle" x="447.5" y="-80" font-family="Helvetica,sans-Serif" font-size="10.00">libs/Z2AudioLib/Z2AudioMgr.cpp</text>
</a>
</g>
</g>
<!-- Node3&#45;&gt;Node5 -->
<g id="edge4" class="edge">
<title>Node3&#45;&gt;Node5</title>
<path fill="none" stroke="midnightblue" d="M447.5,-124.25C447.5,-113.02 447.5,-100.38 447.5,-92.19"/>
<polygon fill="midnightblue" stroke="midnightblue" points="444,-124.4 447.5,-134.4 451,-124.4 444,-124.4"/>
</g>
<!-- Node6&#45;&gt;Node3 -->
<g id="edge7" class="edge">
<title>Node6&#45;&gt;Node3</title>
<path fill="none" stroke="midnightblue" d="M232.05,-397.74C218.01,-390.15 204.59,-379.82 196.5,-366 189.54,-354.11 190.28,-347.29 196.5,-335 241.68,-245.73 352.64,-189.13 410.71,-164.6"/>
<polygon fill="midnightblue" stroke="midnightblue" points="230.8,-401.03 241.32,-402.34 233.92,-394.76 230.8,-401.03"/>
</g>
<!-- Node7 -->
<g id="node7" class="node">
<title>Node7</title>
<g id="a_node7"><a xlink:href="Z2SceneMgr_8cpp.html" target="_top" xlink:title=" ">
<polygon fill="white" stroke="black" points="206,-341 206,-360 367,-360 367,-341 206,-341"/>
<text text-anchor="middle" x="286.5" y="-348" font-family="Helvetica,sans-Serif" font-size="10.00">libs/Z2AudioLib/Z2SceneMgr.cpp</text>
</a>
</g>
</g>
<!-- Node6&#45;&gt;Node7 -->
<g id="edge6" class="edge">
<title>Node6&#45;&gt;Node7</title>
<path fill="none" stroke="midnightblue" d="M286.5,-392.25C286.5,-381.02 286.5,-368.38 286.5,-360.19"/>
<polygon fill="midnightblue" stroke="midnightblue" points="283,-392.4 286.5,-402.4 290,-392.4 283,-392.4"/>
</g>
<!-- Node8&#45;&gt;Node3 -->
<g id="edge11" class="edge">
<title>Node8&#45;&gt;Node3</title>
<path fill="none" stroke="midnightblue" d="M610.23,-198.58C574.5,-188.02 529.04,-174.59 495.26,-164.61"/>
<polygon fill="midnightblue" stroke="midnightblue" points="609.45,-202 620.03,-201.48 611.44,-195.29 609.45,-202"/>
</g>
<!-- Node9 -->
<g id="node9" class="node">
<title>Node9</title>
<g id="a_node9"><a xlink:href="Z2SeqMgr_8cpp.html" target="_top" xlink:title=" ">
<polygon fill="white" stroke="black" points="675.5,-140 675.5,-159 825.5,-159 825.5,-140 675.5,-140"/>
<text text-anchor="middle" x="750.5" y="-147" font-family="Helvetica,sans-Serif" font-size="10.00">libs/Z2AudioLib/Z2SeqMgr.cpp</text>
</a>
</g>
</g>
<!-- Node8&#45;&gt;Node9 -->
<g id="edge9" class="edge">
<title>Node8&#45;&gt;Node9</title>
<path fill="none" stroke="midnightblue" d="M693.67,-195.01C709.08,-182.94 727.76,-168.3 739.4,-159.19"/>
<polygon fill="midnightblue" stroke="midnightblue" points="691.22,-192.47 685.51,-201.4 695.54,-197.99 691.22,-192.47"/>
</g>
<!-- Node10 -->
<g id="node10" class="node">
<title>Node10</title>
<g id="a_node10"><a xlink:href="Z2SoundObjMgr_8cpp.html" target="_top" xlink:title=" ">
<polygon fill="white" stroke="black" points="516,-134.5 516,-164.5 657,-164.5 657,-134.5 516,-134.5"/>
<text text-anchor="start" x="524" y="-152.5" font-family="Helvetica,sans-Serif" font-size="10.00">libs/Z2AudioLib/Z2SoundObj</text>
<text text-anchor="middle" x="586.5" y="-141.5" font-family="Helvetica,sans-Serif" font-size="10.00">Mgr.cpp</text>
</a>
</g>
</g>
<!-- Node8&#45;&gt;Node10 -->
<g id="edge10" class="edge">
<title>Node8&#45;&gt;Node10</title>
<path fill="none" stroke="midnightblue" d="M641.81,-194.88C629.5,-185.01 615.07,-173.43 604.04,-164.58"/>
<polygon fill="midnightblue" stroke="midnightblue" points="639.93,-197.87 649.92,-201.4 644.32,-192.41 639.93,-197.87"/>
</g>
<!-- Node11&#45;&gt;Node3 -->
<g id="edge14" class="edge">
<title>Node11&#45;&gt;Node3</title>
<path fill="none" stroke="midnightblue" d="M462.18,-392.91C458.73,-384.6 455.36,-375.06 453.5,-366 438.18,-291.39 443.43,-199.22 446.22,-164.56"/>
<polygon fill="midnightblue" stroke="midnightblue" points="459.1,-394.59 466.34,-402.33 465.51,-391.77 459.1,-394.59"/>
</g>
<!-- Node12 -->
<g id="node12" class="node">
<title>Node12</title>
<g id="a_node12"><a xlink:href="Z2SeMgr_8cpp.html" target="_top" xlink:title=" ">
<polygon fill="white" stroke="black" points="462,-341 462,-360 607,-360 607,-341 462,-341"/>
<text text-anchor="middle" x="534.5" y="-348" font-family="Helvetica,sans-Serif" font-size="10.00">libs/Z2AudioLib/Z2SeMgr.cpp</text>
</a>
</g>
</g>
<!-- Node11&#45;&gt;Node12 -->
<g id="edge13" class="edge">
<title>Node11&#45;&gt;Node12</title>
<path fill="none" stroke="midnightblue" d="M493.68,-395C504.81,-383.13 518.03,-369.05 526.34,-360.19"/>
<polygon fill="midnightblue" stroke="midnightblue" points="491.03,-392.71 486.74,-402.4 496.13,-397.5 491.03,-392.71"/>
</g>
<!-- Node14 -->
<g id="node14" class="node">
<title>Node14</title>
<g id="a_node14"><a xlink:href="Z2SoundHandles_8cpp.html" target="_top" xlink:title=" ">
<polygon fill="white" stroke="black" points="625.5,-341 625.5,-360 805.5,-360 805.5,-341 625.5,-341"/>
<text text-anchor="middle" x="715.5" y="-348" font-family="Helvetica,sans-Serif" font-size="10.00">libs/Z2AudioLib/Z2SoundHandles.cpp</text>
</a>
</g>
</g>
<!-- Node13&#45;&gt;Node14 -->
<g id="edge16" class="edge">
<title>Node13&#45;&gt;Node14</title>
<path fill="none" stroke="midnightblue" d="M715.5,-392.25C715.5,-381.02 715.5,-368.38 715.5,-360.19"/>
<polygon fill="midnightblue" stroke="midnightblue" points="712,-392.4 715.5,-402.4 719,-392.4 712,-392.4"/>
</g>
<!-- Node15 -->
<g id="node15" class="node">
<title>Node15</title>
<g id="a_node15"><a xlink:href="Z2SoundObject_8h.html" target="_top" xlink:title=" ">
<polygon fill="white" stroke="black" points="861.5,-335.5 861.5,-365.5 961.5,-365.5 961.5,-335.5 861.5,-335.5"/>
<text text-anchor="start" x="869.5" y="-353.5" font-family="Helvetica,sans-Serif" font-size="10.00">include/Z2AudioLib</text>
<text text-anchor="middle" x="911.5" y="-342.5" font-family="Helvetica,sans-Serif" font-size="10.00">/Z2SoundObject.h</text>
</a>
</g>
</g>
<!-- Node13&#45;&gt;Node15 -->
<g id="edge17" class="edge">
<title>Node13&#45;&gt;Node15</title>
<path fill="none" stroke="midnightblue" d="M767.58,-399.23C799.29,-388.71 839.28,-375.45 869.05,-365.58"/>
<polygon fill="midnightblue" stroke="midnightblue" points="766.42,-395.93 758.03,-402.4 768.62,-402.57 766.42,-395.93"/>
</g>
<!-- Node16 -->
<g id="node16" class="node">
<title>Node16</title>
<g id="a_node16"><a xlink:href="Z2SoundObject_8cpp.html" target="_top" xlink:title=" ">
<polygon fill="white" stroke="black" points="1034,-274 1034,-293 1207,-293 1207,-274 1034,-274"/>
<text text-anchor="middle" x="1120.5" y="-281" font-family="Helvetica,sans-Serif" font-size="10.00">libs/Z2AudioLib/Z2SoundObject.cpp</text>
</a>
</g>
</g>
<!-- Node15&#45;&gt;Node16 -->
<g id="edge18" class="edge">
<title>Node15&#45;&gt;Node16</title>
<path fill="none" stroke="midnightblue" d="M966.39,-332.43C1007.14,-319.75 1061.01,-303 1093.08,-293.03"/>
<polygon fill="midnightblue" stroke="midnightblue" points="965.1,-329.16 956.59,-335.48 967.18,-335.85 965.1,-329.16"/>
</g>
<!-- Node17 -->
<g id="node17" class="node">
<title>Node17</title>
<g id="a_node17"><a xlink:href="d__bomb_8h.html" target="_top" xlink:title=" ">
<polygon fill="white" stroke="black" points="1275,-274 1275,-293 1376,-293 1376,-274 1275,-274"/>
<text text-anchor="middle" x="1325.5" y="-281" font-family="Helvetica,sans-Serif" font-size="10.00">include/d/d_bomb.h</text>
</a>
</g>
</g>
<!-- Node15&#45;&gt;Node17 -->
<g id="edge19" class="edge">
<title>Node15&#45;&gt;Node17</title>
<path fill="none" stroke="midnightblue" d="M971.19,-335.06C971.3,-335.04 971.4,-335.02 971.5,-335 1000.69,-329.4 1184.3,-303.92 1274.97,-291.44"/>
<polygon fill="midnightblue" stroke="midnightblue" points="970.61,-331.61 961.51,-337.04 972.01,-338.46 970.61,-331.61"/>
</g>
<!-- Node19 -->
<g id="node19" class="node">
<title>Node19</title>
<g id="a_node19"><a xlink:href="Z2Creature_8h.html" target="_top" xlink:title=" ">
<polygon fill="white" stroke="black" points="797.5,-268.5 797.5,-298.5 897.5,-298.5 897.5,-268.5 797.5,-268.5"/>
<text text-anchor="start" x="805.5" y="-286.5" font-family="Helvetica,sans-Serif" font-size="10.00">include/Z2AudioLib</text>
<text text-anchor="middle" x="847.5" y="-275.5" font-family="Helvetica,sans-Serif" font-size="10.00">/Z2Creature.h</text>
</a>
</g>
</g>
<!-- Node15&#45;&gt;Node19 -->
<g id="edge21" class="edge">
<title>Node15&#45;&gt;Node19</title>
<path fill="none" stroke="midnightblue" d="M890.35,-328.02C880.82,-318.34 869.83,-307.17 861.36,-298.58"/>
<polygon fill="midnightblue" stroke="midnightblue" points="888.1,-330.73 897.61,-335.4 893.09,-325.81 888.1,-330.73"/>
</g>
<!-- Node33 -->
<g id="node33" class="node">
<title>Node33</title>
<g id="a_node33"><a xlink:href="Z2WolfHowlMgr_8h.html" target="_top" xlink:title=" ">
<polygon fill="white" stroke="black" points="915.5,-268.5 915.5,-298.5 1015.5,-298.5 1015.5,-268.5 915.5,-268.5"/>
<text text-anchor="start" x="923.5" y="-286.5" font-family="Helvetica,sans-Serif" font-size="10.00">include/Z2AudioLib</text>
<text text-anchor="middle" x="965.5" y="-275.5" font-family="Helvetica,sans-Serif" font-size="10.00">/Z2WolfHowlMgr.h</text>
</a>
</g>
</g>
<!-- Node15&#45;&gt;Node33 -->
<g id="edge40" class="edge">
<title>Node15&#45;&gt;Node33</title>
<path fill="none" stroke="midnightblue" d="M929.82,-327.45C937.75,-317.9 946.8,-307 953.81,-298.58"/>
<polygon fill="midnightblue" stroke="midnightblue" points="926.92,-325.47 923.22,-335.4 932.3,-329.94 926.92,-325.47"/>
</g>
<!-- Node18 -->
<g id="node18" class="node">
<title>Node18</title>
<g id="a_node18"><a xlink:href="d__bomb_8cpp.html" target="_top" xlink:title=" ">
<polygon fill="white" stroke="black" points="1329.5,-207 1329.5,-226 1423.5,-226 1423.5,-207 1329.5,-207"/>
<text text-anchor="middle" x="1376.5" y="-214" font-family="Helvetica,sans-Serif" font-size="10.00">src/d/d_bomb.cpp</text>
</a>
</g>
</g>
<!-- Node17&#45;&gt;Node18 -->
<g id="edge20" class="edge">
<title>Node17&#45;&gt;Node18</title>
<path fill="none" stroke="midnightblue" d="M1338.63,-265.77C1348.57,-253.1 1361.83,-236.2 1369.73,-226.13"/>
<polygon fill="midnightblue" stroke="midnightblue" points="1335.8,-263.71 1332.38,-273.73 1341.3,-268.03 1335.8,-263.71"/>
</g>
<!-- Node20 -->
<g id="node20" class="node">
<title>Node20</title>
<g id="a_node20"><a xlink:href="Z2Creature_8cpp.html" target="_top" xlink:title=" ">
<polygon fill="white" stroke="black" points="736,-207 736,-226 889,-226 889,-207 736,-207"/>
<text text-anchor="middle" x="812.5" y="-214" font-family="Helvetica,sans-Serif" font-size="10.00">libs/Z2AudioLib/Z2Creature.cpp</text>
</a>
</g>
</g>
<!-- Node19&#45;&gt;Node20 -->
<g id="edge22" class="edge">
<title>Node19&#45;&gt;Node20</title>
<path fill="none" stroke="midnightblue" d="M835,-259.29C828.82,-247.8 821.72,-234.63 817.18,-226.19"/>
<polygon fill="midnightblue" stroke="midnightblue" points="832.08,-261.25 839.91,-268.4 838.25,-257.93 832.08,-261.25"/>
</g>
<!-- Node21 -->
<g id="node21" class="node">
<title>Node21</title>
<g id="a_node21"><a xlink:href="d__a__horse__static_8h.html" target="_top" xlink:title=" ">
<polygon fill="white" stroke="black" points="1041.5,-201.5 1041.5,-231.5 1153.5,-231.5 1153.5,-201.5 1041.5,-201.5"/>
<text text-anchor="start" x="1049.5" y="-219.5" font-family="Helvetica,sans-Serif" font-size="10.00">include/d/a/d_a_horse</text>
<text text-anchor="middle" x="1097.5" y="-208.5" font-family="Helvetica,sans-Serif" font-size="10.00">_static.h</text>
</a>
</g>
</g>
<!-- Node19&#45;&gt;Node21 -->
<g id="edge23" class="edge">
<title>Node19&#45;&gt;Node21</title>
<path fill="none" stroke="midnightblue" d="M907.47,-266.91C948.83,-256.15 1003.36,-241.98 1043.39,-231.57"/>
<polygon fill="midnightblue" stroke="midnightblue" points="906.59,-263.52 897.79,-269.42 908.35,-270.3 906.59,-263.52"/>
</g>
<!-- Node23 -->
<g id="node23" class="node">
<title>Node23</title>
<g id="a_node23"><a xlink:href="d__a__alink_8h.html" target="_top" xlink:title=" ">
<polygon fill="white" stroke="black" points="907.5,-207 907.5,-226 1023.5,-226 1023.5,-207 907.5,-207"/>
<text text-anchor="middle" x="965.5" y="-214" font-family="Helvetica,sans-Serif" font-size="10.00">include/d/a/d_a_alink.h</text>
</a>
</g>
</g>
<!-- Node19&#45;&gt;Node23 -->
<g id="edge25" class="edge">
<title>Node19&#45;&gt;Node23</title>
<path fill="none" stroke="midnightblue" d="M882.04,-263.47C904.57,-251.06 932.87,-235.47 950.06,-226.01"/>
<polygon fill="midnightblue" stroke="midnightblue" points="880.17,-260.51 873.1,-268.4 883.55,-266.64 880.17,-260.51"/>
</g>
<!-- Node32 -->
<g id="node32" class="node">
<title>Node32</title>
<g id="a_node32"><a xlink:href="Z2SoundObjMgr_8h.html" target="_top" xlink:title=" ">
<polygon fill="white" stroke="black" points="499.5,-201.5 499.5,-231.5 599.5,-231.5 599.5,-201.5 499.5,-201.5"/>
<text text-anchor="start" x="507.5" y="-219.5" font-family="Helvetica,sans-Serif" font-size="10.00">include/Z2AudioLib</text>
<text text-anchor="middle" x="549.5" y="-208.5" font-family="Helvetica,sans-Serif" font-size="10.00">/Z2SoundObjMgr.h</text>
</a>
</g>
</g>
<!-- Node19&#45;&gt;Node32 -->
<g id="edge37" class="edge">
<title>Node19&#45;&gt;Node32</title>
<path fill="none" stroke="midnightblue" d="M787.04,-270.3C738.65,-260.39 669.1,-245.84 608.5,-232 605.62,-231.34 602.67,-230.65 599.69,-229.95"/>
<polygon fill="midnightblue" stroke="midnightblue" points="786.54,-273.77 797.04,-272.34 787.94,-266.91 786.54,-273.77"/>
</g>
<!-- Node22 -->
<g id="node22" class="node">
<title>Node22</title>
<g id="a_node22"><a xlink:href="d__a__horse__static_8cpp.html" target="_top" xlink:title=" ">
<polygon fill="white" stroke="black" points="1032.5,-140 1032.5,-159 1174.5,-159 1174.5,-140 1032.5,-140"/>
<text text-anchor="middle" x="1103.5" y="-147" font-family="Helvetica,sans-Serif" font-size="10.00">src/d/a/d_a_horse_static.cpp</text>
</a>
</g>
</g>
<!-- Node21&#45;&gt;Node22 -->
<g id="edge24" class="edge">
<title>Node21&#45;&gt;Node22</title>
<path fill="none" stroke="midnightblue" d="M1099.74,-191.25C1100.78,-180.02 1101.94,-167.38 1102.7,-159.19"/>
<polygon fill="midnightblue" stroke="midnightblue" points="1096.24,-191.12 1098.8,-201.4 1103.21,-191.76 1096.24,-191.12"/>
</g>
<!-- Node24 -->
<g id="node24" class="node">
<title>Node24</title>
<g id="a_node24"><a xlink:href="d__a__alink_8cpp.html" target="_top" xlink:title=" ">
<polygon fill="white" stroke="black" points="746,-73 746,-92 855,-92 855,-73 746,-73"/>
<text text-anchor="middle" x="800.5" y="-80" font-family="Helvetica,sans-Serif" font-size="10.00">src/d/a/d_a_alink.cpp</text>
</a>
</g>
</g>
<!-- Node23&#45;&gt;Node24 -->
<g id="edge26" class="edge">
<title>Node23&#45;&gt;Node24</title>
<path fill="none" stroke="midnightblue" d="M944.39,-200.96C930.31,-191.11 911.53,-177.62 895.5,-165 863.23,-139.59 826.83,-107.28 809.98,-92.1"/>
<polygon fill="midnightblue" stroke="midnightblue" points="942.67,-204.03 952.87,-206.87 946.67,-198.29 942.67,-204.03"/>
</g>
<!-- Node25 -->
<g id="node25" class="node">
<title>Node25</title>
<g id="a_node25"><a xlink:href="d__com__inf__game_8h.html" target="_top" xlink:title=" ">
<polygon fill="white" stroke="black" points="904.5,-134.5 904.5,-164.5 1014.5,-164.5 1014.5,-134.5 904.5,-134.5"/>
<text text-anchor="start" x="912.5" y="-152.5" font-family="Helvetica,sans-Serif" font-size="10.00">include/d/com/d_com</text>
<text text-anchor="middle" x="959.5" y="-141.5" font-family="Helvetica,sans-Serif" font-size="10.00">_inf_game.h</text>
</a>
</g>
</g>
<!-- Node23&#45;&gt;Node25 -->
<g id="edge27" class="edge">
<title>Node23&#45;&gt;Node25</title>
<path fill="none" stroke="midnightblue" d="M963.77,-196.74C962.82,-186.49 961.67,-174 960.8,-164.59"/>
<polygon fill="midnightblue" stroke="midnightblue" points="960.29,-197.1 964.69,-206.73 967.26,-196.45 960.29,-197.1"/>
</g>
<!-- Node25&#45;&gt;Node4 -->
<g id="edge33" class="edge">
<title>Node25&#45;&gt;Node4</title>
<path fill="none" stroke="midnightblue" d="M894.37,-134.93C832.39,-122.02 741.03,-102.99 688.58,-92.06"/>
<polygon fill="midnightblue" stroke="midnightblue" points="893.94,-138.42 904.44,-137.03 895.36,-131.56 893.94,-138.42"/>
</g>
<!-- Node25&#45;&gt;Node24 -->
<g id="edge29" class="edge">
<title>Node25&#45;&gt;Node24</title>
<path fill="none" stroke="midnightblue" d="M915.37,-130.46C884.65,-117.9 845.08,-101.72 821.31,-92.01"/>
<polygon fill="midnightblue" stroke="midnightblue" points="914.42,-133.85 925,-134.4 917.07,-127.37 914.42,-133.85"/>
</g>
<!-- Node26 -->
<g id="node26" class="node">
<title>Node26</title>
<g id="a_node26"><a xlink:href="d__com__inf__game_8cpp.html" target="_top" xlink:title=" ">
<polygon fill="white" stroke="black" points="829.5,-0.5 829.5,-30.5 937.5,-30.5 937.5,-0.5 829.5,-0.5"/>
<text text-anchor="start" x="837.5" y="-18.5" font-family="Helvetica,sans-Serif" font-size="10.00">src/d/com/d_com_inf</text>
<text text-anchor="middle" x="883.5" y="-7.5" font-family="Helvetica,sans-Serif" font-size="10.00">_game.cpp</text>
</a>
</g>
</g>
<!-- Node25&#45;&gt;Node26 -->
<g id="edge28" class="edge">
<title>Node25&#45;&gt;Node26</title>
<path fill="none" stroke="midnightblue" d="M930.4,-128C920.55,-119.72 910.32,-109.41 903.5,-98 890.79,-76.74 886.14,-47.78 884.45,-30.72"/>
<polygon fill="midnightblue" stroke="midnightblue" points="928.5,-130.96 938.5,-134.46 932.86,-125.49 928.5,-130.96"/>
</g>
<!-- Node27 -->
<g id="node27" class="node">
<title>Node27</title>
<g id="a_node27"><a xlink:href="d__event_8cpp.html" target="_top" xlink:title=" ">
<polygon fill="white" stroke="black" points="1025,-73 1025,-92 1146,-92 1146,-73 1025,-73"/>
<text text-anchor="middle" x="1085.5" y="-80" font-family="Helvetica,sans-Serif" font-size="10.00">src/d/event/d_event.cpp</text>
</a>
</g>
</g>
<!-- Node25&#45;&gt;Node27 -->
<g id="edge30" class="edge">
<title>Node25&#45;&gt;Node27</title>
<path fill="none" stroke="midnightblue" d="M995.74,-129.8C1019.9,-117.34 1050.5,-101.56 1069.01,-92.01"/>
<polygon fill="midnightblue" stroke="midnightblue" points="994.12,-126.7 986.84,-134.4 997.33,-132.92 994.12,-126.7"/>
</g>
<!-- Node28 -->
<g id="node28" class="node">
<title>Node28</title>
<g id="a_node28"><a xlink:href="d__meter2__info_8cpp.html" target="_top" xlink:title=" ">
<polygon fill="white" stroke="black" points="1164.5,-67.5 1164.5,-97.5 1274.5,-97.5 1274.5,-67.5 1164.5,-67.5"/>
<text text-anchor="start" x="1172.5" y="-85.5" font-family="Helvetica,sans-Serif" font-size="10.00">src/d/meter/d_meter2</text>
<text text-anchor="middle" x="1219.5" y="-74.5" font-family="Helvetica,sans-Serif" font-size="10.00">_info.cpp</text>
</a>
</g>
</g>
<!-- Node25&#45;&gt;Node28 -->
<g id="edge31" class="edge">
<title>Node25&#45;&gt;Node28</title>
<path fill="none" stroke="midnightblue" d="M1024.47,-132.26C1067.57,-121.48 1123.53,-107.49 1164.44,-97.26"/>
<polygon fill="midnightblue" stroke="midnightblue" points="1023.49,-128.89 1014.64,-134.72 1025.19,-135.69 1023.49,-128.89"/>
</g>
<!-- Node29 -->
<g id="node29" class="node">
<title>Node29</title>
<g id="a_node29"><a xlink:href="d__msg__flow_8cpp.html" target="_top" xlink:title=" ">
<polygon fill="white" stroke="black" points="1293,-73 1293,-92 1426,-92 1426,-73 1293,-73"/>
<text text-anchor="middle" x="1359.5" y="-80" font-family="Helvetica,sans-Serif" font-size="10.00">src/d/msg/d_msg_flow.cpp</text>
</a>
</g>
</g>
<!-- Node25&#45;&gt;Node29 -->
<g id="edge32" class="edge">
<title>Node25&#45;&gt;Node29</title>
<path fill="none" stroke="midnightblue" d="M1024.54,-133.91C1139.98,-113.29 1171.54,-116.42 1283.5,-98 1294.37,-96.21 1306.07,-94.08 1316.96,-92.01"/>
<polygon fill="midnightblue" stroke="midnightblue" points="1023.81,-130.48 1014.6,-135.7 1025.06,-137.37 1023.81,-130.48"/>
</g>
<!-- Node30 -->
<g id="node30" class="node">
<title>Node30</title>
<g id="a_node30"><a xlink:href="d__item_8h.html" target="_top" xlink:title=" ">
<polygon fill="white" stroke="black" points="912,-73 912,-92 1007,-92 1007,-73 912,-73"/>
<text text-anchor="middle" x="959.5" y="-80" font-family="Helvetica,sans-Serif" font-size="10.00">include/d/d_item.h</text>
</a>
</g>
</g>
<!-- Node25&#45;&gt;Node30 -->
<g id="edge34" class="edge">
<title>Node25&#45;&gt;Node30</title>
<path fill="none" stroke="midnightblue" d="M959.5,-124.25C959.5,-113.02 959.5,-100.38 959.5,-92.19"/>
<polygon fill="midnightblue" stroke="midnightblue" points="956,-124.4 959.5,-134.4 963,-124.4 956,-124.4"/>
</g>
<!-- Node30&#45;&gt;Node26 -->
<g id="edge35" class="edge">
<title>Node30&#45;&gt;Node26</title>
<path fill="none" stroke="midnightblue" d="M941.29,-65.93C928.72,-55.18 912.15,-41 899.97,-30.59"/>
<polygon fill="midnightblue" stroke="midnightblue" points="939.38,-68.89 949.25,-72.73 943.93,-63.57 939.38,-68.89"/>
</g>
<!-- Node31 -->
<g id="node31" class="node">
<title>Node31</title>
<g id="a_node31"><a xlink:href="d__item_8cpp.html" target="_top" xlink:title=" ">
<polygon fill="white" stroke="black" points="956,-6 956,-25 1045,-25 1045,-6 956,-6"/>
<text text-anchor="middle" x="1000.5" y="-13" font-family="Helvetica,sans-Serif" font-size="10.00">src/d/d_item.cpp</text>
</a>
</g>
</g>
<!-- Node30&#45;&gt;Node31 -->
<g id="edge36" class="edge">
<title>Node30&#45;&gt;Node31</title>
<path fill="none" stroke="midnightblue" d="M970.52,-64.03C978.45,-51.45 988.83,-35.01 995.06,-25.13"/>
<polygon fill="midnightblue" stroke="midnightblue" points="967.4,-62.41 965.03,-72.73 973.32,-66.14 967.4,-62.41"/>
</g>
<!-- Node32&#45;&gt;Node3 -->
<g id="edge39" class="edge">
<title>Node32&#45;&gt;Node3</title>
<path fill="none" stroke="midnightblue" d="M518.92,-196.02C503.05,-185.9 484.02,-173.77 469.59,-164.58"/>
<polygon fill="midnightblue" stroke="midnightblue" points="517.05,-198.97 527.37,-201.4 520.82,-193.07 517.05,-198.97"/>
</g>
<!-- Node32&#45;&gt;Node10 -->
<g id="edge38" class="edge">
<title>Node32&#45;&gt;Node10</title>
<path fill="none" stroke="midnightblue" d="M562.55,-192.58C567.86,-183.24 573.84,-172.75 578.49,-164.58"/>
<polygon fill="midnightblue" stroke="midnightblue" points="559.43,-190.97 557.53,-201.4 565.52,-194.44 559.43,-190.97"/>
</g>
<!-- Node33&#45;&gt;Node23 -->
<g id="edge42" class="edge">
<title>Node33&#45;&gt;Node23</title>
<path fill="none" stroke="midnightblue" d="M965.5,-258.25C965.5,-247.02 965.5,-234.38 965.5,-226.19"/>
<polygon fill="midnightblue" stroke="midnightblue" points="962,-258.4 965.5,-268.4 969,-258.4 962,-258.4"/>
</g>
<!-- Node34 -->
<g id="node34" class="node">
<title>Node34</title>
<g id="a_node34"><a xlink:href="Z2WolfHowlMgr_8cpp.html" target="_top" xlink:title=" ">
<polygon fill="white" stroke="black" points="1171.5,-201.5 1171.5,-231.5 1311.5,-231.5 1311.5,-201.5 1171.5,-201.5"/>
<text text-anchor="start" x="1179.5" y="-219.5" font-family="Helvetica,sans-Serif" font-size="10.00">libs/Z2AudioLib/Z2WolfHowl</text>
<text text-anchor="middle" x="1241.5" y="-208.5" font-family="Helvetica,sans-Serif" font-size="10.00">Mgr.cpp</text>
</a>
</g>
</g>
<!-- Node33&#45;&gt;Node34 -->
<g id="edge41" class="edge">
<title>Node33&#45;&gt;Node34</title>
<path fill="none" stroke="midnightblue" d="M1025.2,-268.07C1025.3,-268.05 1025.4,-268.02 1025.5,-268 1077.95,-255.53 1137.64,-241.6 1180.95,-231.53"/>
<polygon fill="midnightblue" stroke="midnightblue" points="1024.5,-264.64 1015.58,-270.37 1026.12,-271.45 1024.5,-264.64"/>
</g>
<!-- Node35&#45;&gt;Node3 -->
<g id="edge45" class="edge">
<title>Node35&#45;&gt;Node3</title>
<path fill="none" stroke="midnightblue" d="M861.36,-393.37C851.45,-375.07 835.29,-350.16 814.5,-335 692.41,-245.97 606.4,-328.94 490.5,-232 469.15,-214.14 456.96,-182.91 451.34,-164.73"/>
<polygon fill="midnightblue" stroke="midnightblue" points="858.26,-394.99 865.98,-402.25 864.47,-391.76 858.26,-394.99"/>
</g>
<!-- Node35&#45;&gt;Node15 -->
<g id="edge46" class="edge">
<title>Node35&#45;&gt;Node15</title>
<path fill="none" stroke="midnightblue" d="M886.25,-393.58C891.86,-384.24 898.15,-373.75 903.05,-365.58"/>
<polygon fill="midnightblue" stroke="midnightblue" points="883.11,-392.02 880.96,-402.4 889.11,-395.62 883.11,-392.02"/>
</g>
<!-- Node36 -->
<g id="node36" class="node">
<title>Node36</title>
<g id="a_node36"><a xlink:href="Z2SoundStarter_8cpp.html" target="_top" xlink:title=" ">
<polygon fill="white" stroke="black" points="980,-341 980,-360 1153,-360 1153,-341 980,-341"/>
<text text-anchor="middle" x="1066.5" y="-348" font-family="Helvetica,sans-Serif" font-size="10.00">libs/Z2AudioLib/Z2SoundStarter.cpp</text>
</a>
</g>
</g>
<!-- Node35&#45;&gt;Node36 -->
<g id="edge44" class="edge">
<title>Node35&#45;&gt;Node36</title>
<path fill="none" stroke="midnightblue" d="M924.41,-399.11C962.15,-386.46 1011.61,-369.89 1041.11,-360.01"/>
<polygon fill="midnightblue" stroke="midnightblue" points="922.97,-395.9 914.6,-402.4 925.19,-402.54 922.97,-395.9"/>
</g>
</g>
</svg>
