<?xml version="1.0" encoding="UTF-8" standalone="no"?>
<!DOCTYPE svg PUBLIC "-//W3C//DTD SVG 1.1//EN"
 "http://www.w3.org/Graphics/SVG/1.1/DTD/svg11.dtd">
<!-- Generated by graphviz version 2.44.0 ()
 -->
<!-- Title: include/JSystem/JAudio2/JAISound.h Pages: 1 -->
<!--zoomable 508 -->
<svg id="main" version="1.1" xmlns="http://www.w3.org/2000/svg" xmlns:xlink="http://www.w3.org/1999/xlink" xml:space="preserve" onload="init(evt)">
<style type="text/css"><![CDATA[
.edge:hover path { stroke: red; }
.edge:hover polygon { stroke: red; fill: red; }
]]></style>
<script type="text/javascript"><![CDATA[
var edges = document.getElementsByTagName('g');
if (edges && edges.length) {
  for (var i=0;i<edges.length;i++) {
    if (edges[i].id.substr(0,4)=='edge') {
      edges[i].setAttribute('class','edge');
    }
  }
}
]]></script>
        <defs>
                <circle id="rim" cx="0" cy="0" r="7"/>
                <circle id="rim2" cx="0" cy="0" r="3.5"/>
                <g id="zoomPlus">
                        <use xlink:href="#rim" fill="#404040">
                                <set attributeName="fill" to="#808080" begin="zoomplus.mouseover" end="zoomplus.mouseout"/>
                        </use>
                        <path d="M-4,0h8M0,-4v8" fill="none" stroke="white" stroke-width="1.5" pointer-events="none"/>
                </g>
                <g id="zoomMin">
                        <use xlink:href="#rim" fill="#404040">
                                <set attributeName="fill" to="#808080" begin="zoomminus.mouseover" end="zoomminus.mouseout"/>
                        </use>
                        <path d="M-4,0h8" fill="none" stroke="white" stroke-width="1.5" pointer-events="none"/>
                </g>
                <g id="dirArrow">
                        <path fill="none" stroke="white" stroke-width="1.5" d="M0,-3.0v7 M-2.5,-0.5L0,-3.0L2.5,-0.5"/>
                </g>
               <g id="resetDef">
                       <use xlink:href="#rim2" fill="#404040">
                               <set attributeName="fill" to="#808080" begin="reset.mouseover" end="reset.mouseout"/>
                       </use>
               </g>
        </defs>

<script type="text/javascript">
var viewWidth = 1510;
var viewHeight = 508;
var sectionId = 'dynsection-1';
</script>
<script xlink:href="svgpan.js"/>
<svg id="graph" class="graph">
<g id="viewport">
<title>include/JSystem/JAudio2/JAISound.h</title>
<polygon fill="white" stroke="transparent" points="-4,4 -4,-504 1505.5,-504 1505.5,4 -4,4"/>
<!-- Node1 -->
<g id="node1" class="node">
<title>Node1</title>
<g id="a_node1"><a xlink:title=" ">
<polygon fill="#bfbfbf" stroke="black" points="366,-469.5 366,-499.5 493,-499.5 493,-469.5 366,-469.5"/>
<text text-anchor="start" x="374" y="-487.5" font-family="Helvetica,sans-Serif" font-size="10.00">include/JSystem/JAudio2</text>
<text text-anchor="middle" x="429.5" y="-476.5" font-family="Helvetica,sans-Serif" font-size="10.00">/JAISound.h</text>
</a>
</g>
</g>
<!-- Node2 -->
<g id="node2" class="node">
<title>Node2</title>
<g id="a_node2"><a xlink:href="JAISound_8cpp.html" target="_top" xlink:title=" ">
<polygon fill="white" stroke="black" points="32,-402.5 32,-432.5 143,-432.5 143,-402.5 32,-402.5"/>
<text text-anchor="start" x="40" y="-420.5" font-family="Helvetica,sans-Serif" font-size="10.00">libs/JSystem/JAudio2</text>
<text text-anchor="middle" x="87.5" y="-409.5" font-family="Helvetica,sans-Serif" font-size="10.00">/JAISound.cpp</text>
</a>
</g>
</g>
<!-- Node1&#45;&gt;Node2 -->
<g id="edge1" class="edge">
<title>Node1&#45;&gt;Node2</title>
<path fill="none" stroke="midnightblue" d="M355.67,-470.85C299.77,-461.08 221.17,-446.91 152.5,-433 149.44,-432.38 146.3,-431.73 143.14,-431.06"/>
<polygon fill="midnightblue" stroke="midnightblue" points="355.38,-474.35 365.83,-472.62 356.58,-467.46 355.38,-474.35"/>
</g>
<!-- Node3 -->
<g id="node3" class="node">
<title>Node3</title>
<g id="a_node3"><a xlink:href="Z2AudioMgr_8h.html" target="_top" xlink:title=" ">
<polygon fill="white" stroke="black" points="398.5,-134.5 398.5,-164.5 498.5,-164.5 498.5,-134.5 398.5,-134.5"/>
<text text-anchor="start" x="406.5" y="-152.5" font-family="Helvetica,sans-Serif" font-size="10.00">include/Z2AudioLib</text>
<text text-anchor="middle" x="448.5" y="-141.5" font-family="Helvetica,sans-Serif" font-size="10.00">/Z2AudioMgr.h</text>
</a>
</g>
</g>
<!-- Node1&#45;&gt;Node3 -->
<g id="edge2" class="edge">
<title>Node1&#45;&gt;Node3</title>
<path fill="none" stroke="midnightblue" d="M429.5,-458.99C429.5,-432.49 429.5,-389 429.5,-351.5 429.5,-351.5 429.5,-351.5 429.5,-282.5 429.5,-239.2 439.64,-188.73 445.1,-164.66"/>
<polygon fill="midnightblue" stroke="midnightblue" points="426,-459.24 429.5,-469.24 433,-459.24 426,-459.24"/>
</g>
<!-- Node6 -->
<g id="node6" class="node">
<title>Node6</title>
<g id="a_node6"><a xlink:href="Z2SceneMgr_8h.html" target="_top" xlink:title=" ">
<polygon fill="white" stroke="black" points="161.5,-402.5 161.5,-432.5 261.5,-432.5 261.5,-402.5 161.5,-402.5"/>
<text text-anchor="start" x="169.5" y="-420.5" font-family="Helvetica,sans-Serif" font-size="10.00">include/Z2AudioLib</text>
<text text-anchor="middle" x="211.5" y="-409.5" font-family="Helvetica,sans-Serif" font-size="10.00">/Z2SceneMgr.h</text>
</a>
</g>
</g>
<!-- Node1&#45;&gt;Node6 -->
<g id="edge5" class="edge">
<title>Node1&#45;&gt;Node6</title>
<path fill="none" stroke="midnightblue" d="M372.75,-466.58C337.34,-456.02 292.3,-442.59 258.83,-432.61"/>
<polygon fill="midnightblue" stroke="midnightblue" points="371.88,-469.97 382.47,-469.48 373.88,-463.26 371.88,-469.97"/>
</g>
<!-- Node8 -->
<g id="node8" class="node">
<title>Node8</title>
<g id="a_node8"><a xlink:href="Z2SeqMgr_8h.html" target="_top" xlink:title=" ">
<polygon fill="white" stroke="black" points="562.5,-201.5 562.5,-231.5 662.5,-231.5 662.5,-201.5 562.5,-201.5"/>
<text text-anchor="start" x="570.5" y="-219.5" font-family="Helvetica,sans-Serif" font-size="10.00">include/Z2AudioLib</text>
<text text-anchor="middle" x="612.5" y="-208.5" font-family="Helvetica,sans-Serif" font-size="10.00">/Z2SeqMgr.h</text>
</a>
</g>
</g>
<!-- Node1&#45;&gt;Node8 -->
<g id="edge8" class="edge">
<title>Node1&#45;&gt;Node8</title>
<path fill="none" stroke="midnightblue" d="M503.32,-474.26C565.46,-461.85 648.8,-432.95 678.5,-366 700.35,-316.74 652.86,-258.32 627.33,-231.83"/>
<polygon fill="midnightblue" stroke="midnightblue" points="502.33,-470.89 493.15,-476.19 503.63,-477.77 502.33,-470.89"/>
</g>
<!-- Node11 -->
<g id="node11" class="node">
<title>Node11</title>
<g id="a_node11"><a xlink:href="Z2SoundHandles_8h.html" target="_top" xlink:title=" ">
<polygon fill="white" stroke="black" points="784.5,-402.5 784.5,-432.5 886.5,-432.5 886.5,-402.5 784.5,-402.5"/>
<text text-anchor="start" x="792.5" y="-420.5" font-family="Helvetica,sans-Serif" font-size="10.00">include/Z2AudioLib</text>
<text text-anchor="middle" x="835.5" y="-409.5" font-family="Helvetica,sans-Serif" font-size="10.00">/Z2SoundHandles.h</text>
</a>
</g>
</g>
<!-- Node1&#45;&gt;Node11 -->
<g id="edge12" class="edge">
<title>Node1&#45;&gt;Node11</title>
<path fill="none" stroke="midnightblue" d="M503.55,-471.64C584.87,-458.63 713.29,-438.07 784.2,-426.71"/>
<polygon fill="midnightblue" stroke="midnightblue" points="502.71,-468.24 493.38,-473.27 503.81,-475.15 502.71,-468.24"/>
</g>
<!-- Node33 -->
<g id="node33" class="node">
<title>Node33</title>
<g id="a_node33"><a xlink:href="Z2SeMgr_8h.html" target="_top" xlink:title=" ">
<polygon fill="white" stroke="black" points="301.5,-402.5 301.5,-432.5 401.5,-432.5 401.5,-402.5 301.5,-402.5"/>
<text text-anchor="start" x="309.5" y="-420.5" font-family="Helvetica,sans-Serif" font-size="10.00">include/Z2AudioLib</text>
<text text-anchor="middle" x="351.5" y="-409.5" font-family="Helvetica,sans-Serif" font-size="10.00">/Z2SeMgr.h</text>
</a>
</g>
</g>
<!-- Node1&#45;&gt;Node33 -->
<g id="edge40" class="edge">
<title>Node1&#45;&gt;Node33</title>
<path fill="none" stroke="midnightblue" d="M404.76,-462.88C392.91,-453.01 379.02,-441.43 368.39,-432.58"/>
<polygon fill="midnightblue" stroke="midnightblue" points="402.65,-465.68 412.58,-469.4 407.13,-460.31 402.65,-465.68"/>
</g>
<!-- Node35 -->
<g id="node35" class="node">
<title>Node35</title>
<g id="a_node35"><a xlink:href="Z2SoundStarter_8h.html" target="_top" xlink:title=" ">
<polygon fill="white" stroke="black" points="495.5,-402.5 495.5,-432.5 595.5,-432.5 595.5,-402.5 495.5,-402.5"/>
<text text-anchor="start" x="503.5" y="-420.5" font-family="Helvetica,sans-Serif" font-size="10.00">include/Z2AudioLib</text>
<text text-anchor="middle" x="545.5" y="-409.5" font-family="Helvetica,sans-Serif" font-size="10.00">/Z2SoundStarter.h</text>
</a>
</g>
</g>
<!-- Node1&#45;&gt;Node35 -->
<g id="edge43" class="edge">
<title>Node1&#45;&gt;Node35</title>
<path fill="none" stroke="midnightblue" d="M463.77,-464.3C481.92,-454.12 503.82,-441.85 520.38,-432.58"/>
<polygon fill="midnightblue" stroke="midnightblue" points="461.68,-461.45 454.67,-469.4 465.1,-467.56 461.68,-461.45"/>
</g>
<!-- Node4 -->
<g id="node4" class="node">
<title>Node4</title>
<g id="a_node4"><a xlink:href="d__save_8cpp.html" target="_top" xlink:title=" ">
<polygon fill="white" stroke="black" points="502,-73 502,-92 617,-92 617,-73 502,-73"/>
<text text-anchor="middle" x="559.5" y="-80" font-family="Helvetica,sans-Serif" font-size="10.00">src/d/save/d_save.cpp</text>
</a>
</g>
</g>
<!-- Node3&#45;&gt;Node4 -->
<g id="edge3" class="edge">
<title>Node3&#45;&gt;Node4</title>
<path fill="none" stroke="midnightblue" d="M481.28,-129.31C502.42,-116.93 528.88,-101.43 544.97,-92.01"/>
<polygon fill="midnightblue" stroke="midnightblue" points="479.45,-126.32 472.59,-134.4 482.98,-132.36 479.45,-126.32"/>
</g>
<!-- Node5 -->
<g id="node5" class="node">
<title>Node5</title>
<g id="a_node5"><a xlink:href="Z2AudioMgr_8cpp.html" target="_top" xlink:title=" ">
<polygon fill="white" stroke="black" points="326.5,-73 326.5,-92 484.5,-92 484.5,-73 326.5,-73"/>
<text text-anchor="middle" x="405.5" y="-80" font-family="Helvetica,sans-Serif" font-size="10.00">libs/Z2AudioLib/Z2AudioMgr.cpp</text>
</a>
</g>
</g>
<!-- Node3&#45;&gt;Node5 -->
<g id="edge4" class="edge">
<title>Node3&#45;&gt;Node5</title>
<path fill="none" stroke="midnightblue" d="M433.6,-125.97C425.9,-114.33 416.94,-100.8 411.25,-92.19"/>
<polygon fill="midnightblue" stroke="midnightblue" points="430.73,-127.99 439.17,-134.4 436.57,-124.12 430.73,-127.99"/>
</g>
<!-- Node6&#45;&gt;Node3 -->
<g id="edge7" class="edge">
<title>Node6&#45;&gt;Node3</title>
<path fill="none" stroke="midnightblue" d="M204.78,-392.22C201.45,-375.31 199.77,-352.71 208.5,-335 251.7,-247.31 358.82,-189.65 414.17,-164.67"/>
<polygon fill="midnightblue" stroke="midnightblue" points="201.46,-393.43 207.11,-402.4 208.29,-391.87 201.46,-393.43"/>
</g>
<!-- Node7 -->
<g id="node7" class="node">
<title>Node7</title>
<g id="a_node7"><a xlink:href="Z2SceneMgr_8cpp.html" target="_top" xlink:title=" ">
<polygon fill="white" stroke="black" points="0,-341 0,-360 161,-360 161,-341 0,-341"/>
<text text-anchor="middle" x="80.5" y="-348" font-family="Helvetica,sans-Serif" font-size="10.00">libs/Z2AudioLib/Z2SceneMgr.cpp</text>
</a>
</g>
</g>
<!-- Node6&#45;&gt;Node7 -->
<g id="edge6" class="edge">
<title>Node6&#45;&gt;Node7</title>
<path fill="none" stroke="midnightblue" d="M173.82,-397.8C148.7,-385.34 116.89,-369.56 97.64,-360.01"/>
<polygon fill="midnightblue" stroke="midnightblue" points="172.56,-401.09 183.07,-402.4 175.67,-394.82 172.56,-401.09"/>
</g>
<!-- Node8&#45;&gt;Node3 -->
<g id="edge11" class="edge">
<title>Node8&#45;&gt;Node3</title>
<path fill="none" stroke="midnightblue" d="M567.54,-197.68C541.24,-187.26 508.5,-174.28 484.02,-164.58"/>
<polygon fill="midnightblue" stroke="midnightblue" points="566.33,-200.97 576.91,-201.4 568.91,-194.46 566.33,-200.97"/>
</g>
<!-- Node9 -->
<g id="node9" class="node">
<title>Node9</title>
<g id="a_node9"><a xlink:href="Z2SeqMgr_8cpp.html" target="_top" xlink:title=" ">
<polygon fill="white" stroke="black" points="537.5,-140 537.5,-159 687.5,-159 687.5,-140 537.5,-140"/>
<text text-anchor="middle" x="612.5" y="-147" font-family="Helvetica,sans-Serif" font-size="10.00">libs/Z2AudioLib/Z2SeqMgr.cpp</text>
</a>
</g>
</g>
<!-- Node8&#45;&gt;Node9 -->
<g id="edge9" class="edge">
<title>Node8&#45;&gt;Node9</title>
<path fill="none" stroke="midnightblue" d="M612.5,-191.25C612.5,-180.02 612.5,-167.38 612.5,-159.19"/>
<polygon fill="midnightblue" stroke="midnightblue" points="609,-191.4 612.5,-201.4 616,-191.4 609,-191.4"/>
</g>
<!-- Node10 -->
<g id="node10" class="node">
<title>Node10</title>
<g id="a_node10"><a xlink:href="Z2SoundObjMgr_8cpp.html" target="_top" xlink:title=" ">
<polygon fill="white" stroke="black" points="767,-134.5 767,-164.5 908,-164.5 908,-134.5 767,-134.5"/>
<text text-anchor="start" x="775" y="-152.5" font-family="Helvetica,sans-Serif" font-size="10.00">libs/Z2AudioLib/Z2SoundObj</text>
<text text-anchor="middle" x="837.5" y="-141.5" font-family="Helvetica,sans-Serif" font-size="10.00">Mgr.cpp</text>
</a>
</g>
</g>
<!-- Node8&#45;&gt;Node10 -->
<g id="edge10" class="edge">
<title>Node8&#45;&gt;Node10</title>
<path fill="none" stroke="midnightblue" d="M671.07,-198.58C707.61,-188.02 754.1,-174.59 788.65,-164.61"/>
<polygon fill="midnightblue" stroke="midnightblue" points="669.68,-195.34 661.04,-201.48 671.62,-202.06 669.68,-195.34"/>
</g>
<!-- Node12 -->
<g id="node12" class="node">
<title>Node12</title>
<g id="a_node12"><a xlink:href="Z2SoundHandles_8cpp.html" target="_top" xlink:title=" ">
<polygon fill="white" stroke="black" points="903.5,-341 903.5,-360 1083.5,-360 1083.5,-341 903.5,-341"/>
<text text-anchor="middle" x="993.5" y="-348" font-family="Helvetica,sans-Serif" font-size="10.00">libs/Z2AudioLib/Z2SoundHandles.cpp</text>
</a>
</g>
</g>
<!-- Node11&#45;&gt;Node12 -->
<g id="edge13" class="edge">
<title>Node11&#45;&gt;Node12</title>
<path fill="none" stroke="midnightblue" d="M879.35,-398.46C909.88,-385.9 949.2,-369.72 972.82,-360.01"/>
<polygon fill="midnightblue" stroke="midnightblue" points="877.7,-395.35 869.78,-402.4 880.36,-401.83 877.7,-395.35"/>
</g>
<!-- Node13 -->
<g id="node13" class="node">
<title>Node13</title>
<g id="a_node13"><a xlink:href="Z2SoundObject_8h.html" target="_top" xlink:title=" ">
<polygon fill="white" stroke="black" points="785.5,-335.5 785.5,-365.5 885.5,-365.5 885.5,-335.5 785.5,-335.5"/>
<text text-anchor="start" x="793.5" y="-353.5" font-family="Helvetica,sans-Serif" font-size="10.00">include/Z2AudioLib</text>
<text text-anchor="middle" x="835.5" y="-342.5" font-family="Helvetica,sans-Serif" font-size="10.00">/Z2SoundObject.h</text>
</a>
</g>
</g>
<!-- Node11&#45;&gt;Node13 -->
<g id="edge14" class="edge">
<title>Node11&#45;&gt;Node13</title>
<path fill="none" stroke="midnightblue" d="M835.5,-392.11C835.5,-383.15 835.5,-373.32 835.5,-365.58"/>
<polygon fill="midnightblue" stroke="midnightblue" points="832,-392.4 835.5,-402.4 839,-392.4 832,-392.4"/>
</g>
<!-- Node14 -->
<g id="node14" class="node">
<title>Node14</title>
<g id="a_node14"><a xlink:href="Z2SoundObject_8cpp.html" target="_top" xlink:title=" ">
<polygon fill="white" stroke="black" points="947,-274 947,-293 1120,-293 1120,-274 947,-274"/>
<text text-anchor="middle" x="1033.5" y="-281" font-family="Helvetica,sans-Serif" font-size="10.00">libs/Z2AudioLib/Z2SoundObject.cpp</text>
</a>
</g>
</g>
<!-- Node13&#45;&gt;Node14 -->
<g id="edge15" class="edge">
<title>Node13&#45;&gt;Node14</title>
<path fill="none" stroke="midnightblue" d="M887.99,-332.27C926.57,-319.6 977.35,-302.93 1007.59,-293.01"/>
<polygon fill="midnightblue" stroke="midnightblue" points="886.87,-328.95 878.46,-335.4 889.06,-335.6 886.87,-328.95"/>
</g>
<!-- Node15 -->
<g id="node15" class="node">
<title>Node15</title>
<g id="a_node15"><a xlink:href="d__bomb_8h.html" target="_top" xlink:title=" ">
<polygon fill="white" stroke="black" points="709,-274 709,-293 810,-293 810,-274 709,-274"/>
<text text-anchor="middle" x="759.5" y="-281" font-family="Helvetica,sans-Serif" font-size="10.00">include/d/d_bomb.h</text>
</a>
</g>
</g>
<!-- Node13&#45;&gt;Node15 -->
<g id="edge16" class="edge">
<title>Node13&#45;&gt;Node15</title>
<path fill="none" stroke="midnightblue" d="M811.15,-328.67C797.11,-316.67 780.22,-302.22 769.67,-293.19"/>
<polygon fill="midnightblue" stroke="midnightblue" points="809.13,-331.56 819.01,-335.4 813.68,-326.24 809.13,-331.56"/>
</g>
<!-- Node17 -->
<g id="node17" class="node">
<title>Node17</title>
<g id="a_node17"><a xlink:href="Z2Creature_8h.html" target="_top" xlink:title=" ">
<polygon fill="white" stroke="black" points="1138.5,-268.5 1138.5,-298.5 1238.5,-298.5 1238.5,-268.5 1138.5,-268.5"/>
<text text-anchor="start" x="1146.5" y="-286.5" font-family="Helvetica,sans-Serif" font-size="10.00">include/Z2AudioLib</text>
<text text-anchor="middle" x="1188.5" y="-275.5" font-family="Helvetica,sans-Serif" font-size="10.00">/Z2Creature.h</text>
</a>
</g>
</g>
<!-- Node13&#45;&gt;Node17 -->
<g id="edge18" class="edge">
<title>Node13&#45;&gt;Node17</title>
<path fill="none" stroke="midnightblue" d="M895.63,-334.89C999.88,-314.67 1029.01,-319 1129.5,-299 1132.4,-298.42 1135.37,-297.8 1138.36,-297.15"/>
<polygon fill="midnightblue" stroke="midnightblue" points="894.78,-331.49 885.64,-336.85 896.13,-338.36 894.78,-331.49"/>
</g>
<!-- Node31 -->
<g id="node31" class="node">
<title>Node31</title>
<g id="a_node31"><a xlink:href="Z2WolfHowlMgr_8h.html" target="_top" xlink:title=" ">
<polygon fill="white" stroke="black" points="828.5,-268.5 828.5,-298.5 928.5,-298.5 928.5,-268.5 828.5,-268.5"/>
<text text-anchor="start" x="836.5" y="-286.5" font-family="Helvetica,sans-Serif" font-size="10.00">include/Z2AudioLib</text>
<text text-anchor="middle" x="878.5" y="-275.5" font-family="Helvetica,sans-Serif" font-size="10.00">/Z2WolfHowlMgr.h</text>
</a>
</g>
</g>
<!-- Node13&#45;&gt;Node31 -->
<g id="edge37" class="edge">
<title>Node13&#45;&gt;Node31</title>
<path fill="none" stroke="midnightblue" d="M850.47,-326.87C856.7,-317.46 863.73,-306.83 869.19,-298.58"/>
<polygon fill="midnightblue" stroke="midnightblue" points="847.43,-325.12 844.83,-335.4 853.27,-328.99 847.43,-325.12"/>
</g>
<!-- Node16 -->
<g id="node16" class="node">
<title>Node16</title>
<g id="a_node16"><a xlink:href="d__bomb_8cpp.html" target="_top" xlink:title=" ">
<polygon fill="white" stroke="black" points="680.5,-207 680.5,-226 774.5,-226 774.5,-207 680.5,-207"/>
<text text-anchor="middle" x="727.5" y="-214" font-family="Helvetica,sans-Serif" font-size="10.00">src/d/d_bomb.cpp</text>
</a>
</g>
</g>
<!-- Node15&#45;&gt;Node16 -->
<g id="edge17" class="edge">
<title>Node15&#45;&gt;Node16</title>
<path fill="none" stroke="midnightblue" d="M750.72,-264.66C744.55,-252.13 736.56,-235.91 731.75,-226.13"/>
<polygon fill="midnightblue" stroke="midnightblue" points="747.63,-266.31 755.18,-273.73 753.91,-263.22 747.63,-266.31"/>
</g>
<!-- Node18 -->
<g id="node18" class="node">
<title>Node18</title>
<g id="a_node18"><a xlink:href="Z2Creature_8cpp.html" target="_top" xlink:title=" ">
<polygon fill="white" stroke="black" points="1203,-207 1203,-226 1356,-226 1356,-207 1203,-207"/>
<text text-anchor="middle" x="1279.5" y="-214" font-family="Helvetica,sans-Serif" font-size="10.00">libs/Z2AudioLib/Z2Creature.cpp</text>
</a>
</g>
</g>
<!-- Node17&#45;&gt;Node18 -->
<g id="edge19" class="edge">
<title>Node17&#45;&gt;Node18</title>
<path fill="none" stroke="midnightblue" d="M1216.77,-262.31C1233.86,-250.1 1254.75,-235.18 1267.59,-226.01"/>
<polygon fill="midnightblue" stroke="midnightblue" points="1214.35,-259.74 1208.25,-268.4 1218.42,-265.43 1214.35,-259.74"/>
</g>
<!-- Node19 -->
<g id="node19" class="node">
<title>Node19</title>
<g id="a_node19"><a xlink:href="d__a__horse__static_8h.html" target="_top" xlink:title=" ">
<polygon fill="white" stroke="black" points="1374.5,-201.5 1374.5,-231.5 1486.5,-231.5 1486.5,-201.5 1374.5,-201.5"/>
<text text-anchor="start" x="1382.5" y="-219.5" font-family="Helvetica,sans-Serif" font-size="10.00">include/d/a/d_a_horse</text>
<text text-anchor="middle" x="1430.5" y="-208.5" font-family="Helvetica,sans-Serif" font-size="10.00">_static.h</text>
</a>
</g>
</g>
<!-- Node17&#45;&gt;Node19 -->
<g id="edge20" class="edge">
<title>Node17&#45;&gt;Node19</title>
<path fill="none" stroke="midnightblue" d="M1248.5,-266.38C1288.36,-255.68 1340.19,-241.76 1378.33,-231.51"/>
<polygon fill="midnightblue" stroke="midnightblue" points="1247.39,-263.06 1238.64,-269.03 1249.21,-269.82 1247.39,-263.06"/>
</g>
<!-- Node21 -->
<g id="node21" class="node">
<title>Node21</title>
<g id="a_node21"><a xlink:href="d__a__alink_8h.html" target="_top" xlink:title=" ">
<polygon fill="white" stroke="black" points="1068.5,-207 1068.5,-226 1184.5,-226 1184.5,-207 1068.5,-207"/>
<text text-anchor="middle" x="1126.5" y="-214" font-family="Helvetica,sans-Serif" font-size="10.00">include/d/a/d_a_alink.h</text>
</a>
</g>
</g>
<!-- Node17&#45;&gt;Node21 -->
<g id="edge22" class="edge">
<title>Node17&#45;&gt;Node21</title>
<path fill="none" stroke="midnightblue" d="M1167.99,-261C1156.67,-249.13 1143.24,-235.05 1134.79,-226.19"/>
<polygon fill="midnightblue" stroke="midnightblue" points="1165.61,-263.58 1175.05,-268.4 1170.68,-258.74 1165.61,-263.58"/>
</g>
<!-- Node30 -->
<g id="node30" class="node">
<title>Node30</title>
<g id="a_node30"><a xlink:href="Z2SoundObjMgr_8h.html" target="_top" xlink:title=" ">
<polygon fill="white" stroke="black" points="950.5,-201.5 950.5,-231.5 1050.5,-231.5 1050.5,-201.5 950.5,-201.5"/>
<text text-anchor="start" x="958.5" y="-219.5" font-family="Helvetica,sans-Serif" font-size="10.00">include/Z2AudioLib</text>
<text text-anchor="middle" x="1000.5" y="-208.5" font-family="Helvetica,sans-Serif" font-size="10.00">/Z2SoundObjMgr.h</text>
</a>
</g>
</g>
<!-- Node17&#45;&gt;Node30 -->
<g id="edge34" class="edge">
<title>Node17&#45;&gt;Node30</title>
<path fill="none" stroke="midnightblue" d="M1138.15,-265.09C1107.8,-254.6 1069.65,-241.41 1041.21,-231.58"/>
<polygon fill="midnightblue" stroke="midnightblue" points="1137.11,-268.44 1147.71,-268.4 1139.4,-261.82 1137.11,-268.44"/>
</g>
<!-- Node20 -->
<g id="node20" class="node">
<title>Node20</title>
<g id="a_node20"><a xlink:href="d__a__horse__static_8cpp.html" target="_top" xlink:title=" ">
<polygon fill="white" stroke="black" points="1359.5,-140 1359.5,-159 1501.5,-159 1501.5,-140 1359.5,-140"/>
<text text-anchor="middle" x="1430.5" y="-147" font-family="Helvetica,sans-Serif" font-size="10.00">src/d/a/d_a_horse_static.cpp</text>
</a>
</g>
</g>
<!-- Node19&#45;&gt;Node20 -->
<g id="edge21" class="edge">
<title>Node19&#45;&gt;Node20</title>
<path fill="none" stroke="midnightblue" d="M1430.5,-191.25C1430.5,-180.02 1430.5,-167.38 1430.5,-159.19"/>
<polygon fill="midnightblue" stroke="midnightblue" points="1427,-191.4 1430.5,-201.4 1434,-191.4 1427,-191.4"/>
</g>
<!-- Node22 -->
<g id="node22" class="node">
<title>Node22</title>
<g id="a_node22"><a xlink:href="d__a__alink_8cpp.html" target="_top" xlink:title=" ">
<polygon fill="white" stroke="black" points="1206,-73 1206,-92 1315,-92 1315,-73 1206,-73"/>
<text text-anchor="middle" x="1260.5" y="-80" font-family="Helvetica,sans-Serif" font-size="10.00">src/d/a/d_a_alink.cpp</text>
</a>
</g>
</g>
<!-- Node21&#45;&gt;Node22 -->
<g id="edge23" class="edge">
<title>Node21&#45;&gt;Node22</title>
<path fill="none" stroke="midnightblue" d="M1142.48,-199.76C1171,-171.66 1229.76,-113.78 1251.85,-92.02"/>
<polygon fill="midnightblue" stroke="midnightblue" points="1139.96,-197.33 1135.29,-206.84 1144.87,-202.31 1139.96,-197.33"/>
</g>
<!-- Node23 -->
<g id="node23" class="node">
<title>Node23</title>
<g id="a_node23"><a xlink:href="d__com__inf__game_8h.html" target="_top" xlink:title=" ">
<polygon fill="white" stroke="black" points="937.5,-134.5 937.5,-164.5 1047.5,-164.5 1047.5,-134.5 937.5,-134.5"/>
<text text-anchor="start" x="945.5" y="-152.5" font-family="Helvetica,sans-Serif" font-size="10.00">include/d/com/d_com</text>
<text text-anchor="middle" x="992.5" y="-141.5" font-family="Helvetica,sans-Serif" font-size="10.00">_inf_game.h</text>
</a>
</g>
</g>
<!-- Node21&#45;&gt;Node23 -->
<g id="edge24" class="edge">
<title>Node21&#45;&gt;Node23</title>
<path fill="none" stroke="midnightblue" d="M1099.65,-202.47C1076.99,-191.49 1044.64,-175.79 1021.42,-164.53"/>
<polygon fill="midnightblue" stroke="midnightblue" points="1098.18,-205.65 1108.71,-206.87 1101.24,-199.35 1098.18,-205.65"/>
</g>
<!-- Node23&#45;&gt;Node4 -->
<g id="edge30" class="edge">
<title>Node23&#45;&gt;Node4</title>
<path fill="none" stroke="midnightblue" d="M927.3,-135.62C923.99,-135.05 920.71,-134.51 917.5,-134 788.78,-113.62 754.98,-119.8 626.5,-98 616.53,-96.31 605.79,-94.14 595.9,-92"/>
<polygon fill="midnightblue" stroke="midnightblue" points="926.82,-139.09 937.28,-137.38 928.04,-132.2 926.82,-139.09"/>
</g>
<!-- Node23&#45;&gt;Node22 -->
<g id="edge26" class="edge">
<title>Node23&#45;&gt;Node22</title>
<path fill="none" stroke="midnightblue" d="M1057.66,-132.7C1110.49,-119.88 1182.91,-102.32 1225.4,-92.01"/>
<polygon fill="midnightblue" stroke="midnightblue" points="1056.6,-129.35 1047.7,-135.11 1058.25,-136.16 1056.6,-129.35"/>
</g>
<!-- Node24 -->
<g id="node24" class="node">
<title>Node24</title>
<g id="a_node24"><a xlink:href="d__com__inf__game_8cpp.html" target="_top" xlink:title=" ">
<polygon fill="white" stroke="black" points="934.5,-0.5 934.5,-30.5 1042.5,-30.5 1042.5,-0.5 934.5,-0.5"/>
<text text-anchor="start" x="942.5" y="-18.5" font-family="Helvetica,sans-Serif" font-size="10.00">src/d/com/d_com_inf</text>
<text text-anchor="middle" x="988.5" y="-7.5" font-family="Helvetica,sans-Serif" font-size="10.00">_game.cpp</text>
</a>
</g>
</g>
<!-- Node23&#45;&gt;Node24 -->
<g id="edge25" class="edge">
<title>Node23&#45;&gt;Node24</title>
<path fill="none" stroke="midnightblue" d="M1057.73,-140.13C1116.49,-129.78 1189.26,-108.23 1158.5,-67 1144.46,-48.18 1086.82,-33.87 1042.51,-25.36"/>
<polygon fill="midnightblue" stroke="midnightblue" points="1056.98,-136.7 1047.7,-141.81 1058.14,-143.61 1056.98,-136.7"/>
</g>
<!-- Node25 -->
<g id="node25" class="node">
<title>Node25</title>
<g id="a_node25"><a xlink:href="d__event_8cpp.html" target="_top" xlink:title=" ">
<polygon fill="white" stroke="black" points="748,-73 748,-92 869,-92 869,-73 748,-73"/>
<text text-anchor="middle" x="808.5" y="-80" font-family="Helvetica,sans-Serif" font-size="10.00">src/d/event/d_event.cpp</text>
</a>
</g>
</g>
<!-- Node23&#45;&gt;Node25 -->
<g id="edge27" class="edge">
<title>Node23&#45;&gt;Node25</title>
<path fill="none" stroke="midnightblue" d="M942.81,-130.95C907.07,-118.32 860.45,-101.85 832.58,-92.01"/>
<polygon fill="midnightblue" stroke="midnightblue" points="941.98,-134.37 952.57,-134.4 944.31,-127.76 941.98,-134.37"/>
</g>
<!-- Node26 -->
<g id="node26" class="node">
<title>Node26</title>
<g id="a_node26"><a xlink:href="d__meter2__info_8cpp.html" target="_top" xlink:title=" ">
<polygon fill="white" stroke="black" points="887.5,-67.5 887.5,-97.5 997.5,-97.5 997.5,-67.5 887.5,-67.5"/>
<text text-anchor="start" x="895.5" y="-85.5" font-family="Helvetica,sans-Serif" font-size="10.00">src/d/meter/d_meter2</text>
<text text-anchor="middle" x="942.5" y="-74.5" font-family="Helvetica,sans-Serif" font-size="10.00">_info.cpp</text>
</a>
</g>
</g>
<!-- Node23&#45;&gt;Node26 -->
<g id="edge28" class="edge">
<title>Node23&#45;&gt;Node26</title>
<path fill="none" stroke="midnightblue" d="M975.54,-126.45C968.19,-116.9 959.81,-106 953.33,-97.58"/>
<polygon fill="midnightblue" stroke="midnightblue" points="972.78,-128.6 981.65,-134.4 978.33,-124.34 972.78,-128.6"/>
</g>
<!-- Node27 -->
<g id="node27" class="node">
<title>Node27</title>
<g id="a_node27"><a xlink:href="d__msg__flow_8cpp.html" target="_top" xlink:title=" ">
<polygon fill="white" stroke="black" points="1016,-73 1016,-92 1149,-92 1149,-73 1016,-73"/>
<text text-anchor="middle" x="1082.5" y="-80" font-family="Helvetica,sans-Serif" font-size="10.00">src/d/msg/d_msg_flow.cpp</text>
</a>
</g>
</g>
<!-- Node23&#45;&gt;Node27 -->
<g id="edge29" class="edge">
<title>Node23&#45;&gt;Node27</title>
<path fill="none" stroke="midnightblue" d="M1020.46,-128.31C1037.36,-116.1 1058.02,-101.18 1070.72,-92.01"/>
<polygon fill="midnightblue" stroke="midnightblue" points="1018.09,-125.7 1012.03,-134.4 1022.18,-131.38 1018.09,-125.7"/>
</g>
<!-- Node28 -->
<g id="node28" class="node">
<title>Node28</title>
<g id="a_node28"><a xlink:href="d__item_8h.html" target="_top" xlink:title=" ">
<polygon fill="white" stroke="black" points="635,-73 635,-92 730,-92 730,-73 635,-73"/>
<text text-anchor="middle" x="682.5" y="-80" font-family="Helvetica,sans-Serif" font-size="10.00">include/d/d_item.h</text>
</a>
</g>
</g>
<!-- Node23&#45;&gt;Node28 -->
<g id="edge31" class="edge">
<title>Node23&#45;&gt;Node28</title>
<path fill="none" stroke="midnightblue" d="M927.29,-135.89C864.64,-123.69 774.46,-105.93 739.5,-98 731.53,-96.19 722.98,-94.1 714.98,-92.07"/>
<polygon fill="midnightblue" stroke="midnightblue" points="927.01,-139.39 937.49,-137.87 928.34,-132.52 927.01,-139.39"/>
</g>
<!-- Node28&#45;&gt;Node24 -->
<g id="edge32" class="edge">
<title>Node28&#45;&gt;Node24</title>
<path fill="none" stroke="midnightblue" d="M724.93,-70.46C729.84,-69.26 734.77,-68.08 739.5,-67 806.37,-51.72 883.87,-36.37 934.42,-26.68"/>
<polygon fill="midnightblue" stroke="midnightblue" points="723.84,-67.13 714.99,-72.94 725.54,-73.92 723.84,-67.13"/>
</g>
<!-- Node29 -->
<g id="node29" class="node">
<title>Node29</title>
<g id="a_node29"><a xlink:href="d__item_8cpp.html" target="_top" xlink:title=" ">
<polygon fill="white" stroke="black" points="638,-6 638,-25 727,-25 727,-6 638,-6"/>
<text text-anchor="middle" x="682.5" y="-13" font-family="Helvetica,sans-Serif" font-size="10.00">src/d/d_item.cpp</text>
</a>
</g>
</g>
<!-- Node28&#45;&gt;Node29 -->
<g id="edge33" class="edge">
<title>Node28&#45;&gt;Node29</title>
<path fill="none" stroke="midnightblue" d="M682.5,-62.54C682.5,-50.17 682.5,-34.62 682.5,-25.13"/>
<polygon fill="midnightblue" stroke="midnightblue" points="679,-62.73 682.5,-72.73 686,-62.73 679,-62.73"/>
</g>
<!-- Node30&#45;&gt;Node3 -->
<g id="edge36" class="edge">
<title>Node30&#45;&gt;Node3</title>
<path fill="none" stroke="midnightblue" d="M940.47,-201C757.97,-171.56 707.91,-189.03 528.5,-165 518.85,-163.71 508.59,-162.06 498.75,-160.34"/>
<polygon fill="midnightblue" stroke="midnightblue" points="939.96,-204.47 950.4,-202.63 941.09,-197.56 939.96,-204.47"/>
</g>
<!-- Node30&#45;&gt;Node10 -->
<g id="edge35" class="edge">
<title>Node30&#45;&gt;Node10</title>
<path fill="none" stroke="midnightblue" d="M955.82,-197.68C929.67,-187.26 897.13,-174.28 872.8,-164.58"/>
<polygon fill="midnightblue" stroke="midnightblue" points="954.55,-200.94 965.13,-201.4 957.14,-194.44 954.55,-200.94"/>
</g>
<!-- Node31&#45;&gt;Node21 -->
<g id="edge39" class="edge">
<title>Node31&#45;&gt;Node21</title>
<path fill="none" stroke="midnightblue" d="M938.5,-266.77C987.31,-253.98 1054.34,-236.41 1093.78,-226.08"/>
<polygon fill="midnightblue" stroke="midnightblue" points="937.47,-263.43 928.69,-269.35 939.25,-270.2 937.47,-263.43"/>
</g>
<!-- Node32 -->
<g id="node32" class="node">
<title>Node32</title>
<g id="a_node32"><a xlink:href="Z2WolfHowlMgr_8cpp.html" target="_top" xlink:title=" ">
<polygon fill="white" stroke="black" points="792.5,-201.5 792.5,-231.5 932.5,-231.5 932.5,-201.5 792.5,-201.5"/>
<text text-anchor="start" x="800.5" y="-219.5" font-family="Helvetica,sans-Serif" font-size="10.00">libs/Z2AudioLib/Z2WolfHowl</text>
<text text-anchor="middle" x="862.5" y="-208.5" font-family="Helvetica,sans-Serif" font-size="10.00">Mgr.cpp</text>
</a>
</g>
</g>
<!-- Node31&#45;&gt;Node32 -->
<g id="edge38" class="edge">
<title>Node31&#45;&gt;Node32</title>
<path fill="none" stroke="midnightblue" d="M872.57,-258.4C870.34,-249.37 867.89,-239.41 865.96,-231.58"/>
<polygon fill="midnightblue" stroke="midnightblue" points="869.24,-259.52 875.03,-268.4 876.04,-257.85 869.24,-259.52"/>
</g>
<!-- Node33&#45;&gt;Node3 -->
<g id="edge42" class="edge">
<title>Node33&#45;&gt;Node3</title>
<path fill="none" stroke="midnightblue" d="M362.11,-392.92C365.67,-384.52 369.5,-374.93 372.5,-366 396.66,-294.17 384.82,-270.29 415.5,-201 421.27,-187.98 430.22,-174.54 437.35,-164.8"/>
<polygon fill="midnightblue" stroke="midnightblue" points="358.88,-391.55 358.11,-402.12 365.3,-394.34 358.88,-391.55"/>
</g>
<!-- Node34 -->
<g id="node34" class="node">
<title>Node34</title>
<g id="a_node34"><a xlink:href="Z2SeMgr_8cpp.html" target="_top" xlink:title=" ">
<polygon fill="white" stroke="black" points="218,-341 218,-360 363,-360 363,-341 218,-341"/>
<text text-anchor="middle" x="290.5" y="-348" font-family="Helvetica,sans-Serif" font-size="10.00">libs/Z2AudioLib/Z2SeMgr.cpp</text>
</a>
</g>
</g>
<!-- Node33&#45;&gt;Node34 -->
<g id="edge41" class="edge">
<title>Node33&#45;&gt;Node34</title>
<path fill="none" stroke="midnightblue" d="M331.32,-395C320.19,-383.13 306.97,-369.05 298.66,-360.19"/>
<polygon fill="midnightblue" stroke="midnightblue" points="328.87,-397.5 338.26,-402.4 333.97,-392.71 328.87,-397.5"/>
</g>
<!-- Node35&#45;&gt;Node3 -->
<g id="edge45" class="edge">
<title>Node35&#45;&gt;Node3</title>
<path fill="none" stroke="midnightblue" d="M514.79,-396.27C504.6,-388.06 494.16,-377.72 487.5,-366 448.99,-298.23 447.15,-200.81 447.94,-164.68"/>
<polygon fill="midnightblue" stroke="midnightblue" points="512.75,-399.12 522.83,-402.39 516.99,-393.55 512.75,-399.12"/>
</g>
<!-- Node35&#45;&gt;Node13 -->
<g id="edge46" class="edge">
<title>Node35&#45;&gt;Node13</title>
<path fill="none" stroke="midnightblue" d="M605.66,-403.02C658.85,-391.09 735.54,-373.91 785.45,-362.72"/>
<polygon fill="midnightblue" stroke="midnightblue" points="604.68,-399.65 595.68,-405.25 606.21,-406.48 604.68,-399.65"/>
</g>
<!-- Node36 -->
<g id="node36" class="node">
<title>Node36</title>
<g id="a_node36"><a xlink:href="Z2SoundStarter_8cpp.html" target="_top" xlink:title=" ">
<polygon fill="white" stroke="black" points="496,-341 496,-360 669,-360 669,-341 496,-341"/>
<text text-anchor="middle" x="582.5" y="-348" font-family="Helvetica,sans-Serif" font-size="10.00">libs/Z2AudioLib/Z2SoundStarter.cpp</text>
</a>
</g>
</g>
<!-- Node35&#45;&gt;Node36 -->
<g id="edge44" class="edge">
<title>Node35&#45;&gt;Node36</title>
<path fill="none" stroke="midnightblue" d="M558.52,-393.63C565.1,-382.07 572.7,-368.71 577.55,-360.19"/>
<polygon fill="midnightblue" stroke="midnightblue" points="555.43,-391.97 553.53,-402.4 561.52,-395.44 555.43,-391.97"/>
</g>
</g>
</svg>
        <g id="navigator" transform="translate(0 0)" fill="#404254">
                <rect fill="#f2f5e9" fill-opacity="0.5" stroke="#606060" stroke-width=".5" x="0" y="0" width="60" height="60"/>
                <use id="zoomplus" xlink:href="#zoomPlus" x="17" y="9" onmousedown="handleZoom(evt,'in')"/>
                <use id="zoomminus" xlink:href="#zoomMin" x="42" y="9" onmousedown="handleZoom(evt,'out')"/>
                <use id="reset" xlink:href="#resetDef" x="30" y="36" onmousedown="handleReset()"/>
                <g id="arrowUp" xlink:href="#dirArrow" transform="translate(30 24)" onmousedown="handlePan(0,-1)">
                  <use xlink:href="#rim" fill="#404040">
                        <set attributeName="fill" to="#808080" begin="arrowUp.mouseover" end="arrowUp.mouseout"/>
                  </use>
                  <path fill="none" stroke="white" stroke-width="1.5" d="M0,-3.0v7 M-2.5,-0.5L0,-3.0L2.5,-0.5"/>
                </g>
                <g id="arrowRight" xlink:href="#dirArrow" transform="rotate(90) translate(36 -43)" onmousedown="handlePan(1,0)">
                  <use xlink:href="#rim" fill="#404040">
                        <set attributeName="fill" to="#808080" begin="arrowRight.mouseover" end="arrowRight.mouseout"/>
                  </use>
                  <path fill="none" stroke="white" stroke-width="1.5" d="M0,-3.0v7 M-2.5,-0.5L0,-3.0L2.5,-0.5"/>
                </g>
                <g id="arrowDown" xlink:href="#dirArrow" transform="rotate(180) translate(-30 -48)" onmousedown="handlePan(0,1)">
                  <use xlink:href="#rim" fill="#404040">
                        <set attributeName="fill" to="#808080" begin="arrowDown.mouseover" end="arrowDown.mouseout"/>
                  </use>
                  <path fill="none" stroke="white" stroke-width="1.5" d="M0,-3.0v7 M-2.5,-0.5L0,-3.0L2.5,-0.5"/>
                </g>
                <g id="arrowLeft" xlink:href="#dirArrow" transform="rotate(270) translate(-36 17)" onmousedown="handlePan(-1,0)">
                  <use xlink:href="#rim" fill="#404040">
                        <set attributeName="fill" to="#808080" begin="arrowLeft.mouseover" end="arrowLeft.mouseout"/>
                  </use>
                  <path fill="none" stroke="white" stroke-width="1.5" d="M0,-3.0v7 M-2.5,-0.5L0,-3.0L2.5,-0.5"/>
                </g>
        </g>
        <svg viewBox="0 0 15 15" width="100%" height="30px" preserveAspectRatio="xMaxYMin meet">
         <g id="arrow_out" transform="scale(0.3 0.3)">
          <a xlink:href="JAISound_8h__dep__incl_org.svg" target="_base">
           <rect id="button" ry="5" rx="5" y="6" x="6" height="38" width="38"
                fill="#f2f5e9" fill-opacity="0.5" stroke="#606060" stroke-width="1.0"/>
           <path id="arrow"
             d="M 11.500037,31.436501 C 11.940474,20.09759 22.043105,11.32322 32.158766,21.979434 L 37.068811,17.246167 C 37.068811,17.246167 37.088388,32 37.088388,32 L 22.160133,31.978069 C 22.160133,31.978069 26.997745,27.140456 26.997745,27.140456 C 18.528582,18.264221 13.291696,25.230495 11.500037,31.436501 z"
             style="fill:#404040;"/>
          </a>
         </g>
        </svg>
</svg>
