<?xml version="1.0" encoding="UTF-8" standalone="no"?>
<!DOCTYPE svg PUBLIC "-//W3C//DTD SVG 1.1//EN"
 "http://www.w3.org/Graphics/SVG/1.1/DTD/svg11.dtd">
<!-- Generated by graphviz version 2.44.0 ()
 -->
<!-- Title: include/JSystem/JFramework/JFWSystem.h Pages: 1 -->
<!--zoomable 319 -->
<svg id="main" version="1.1" xmlns="http://www.w3.org/2000/svg" xmlns:xlink="http://www.w3.org/1999/xlink" xml:space="preserve" onload="init(evt)">
<style type="text/css"><![CDATA[
.edge:hover path { stroke: red; }
.edge:hover polygon { stroke: red; fill: red; }
]]></style>
<script type="text/javascript"><![CDATA[
var edges = document.getElementsByTagName('g');
if (edges && edges.length) {
  for (var i=0;i<edges.length;i++) {
    if (edges[i].id.substr(0,4)=='edge') {
      edges[i].setAttribute('class','edge');
    }
  }
}
]]></script>
        <defs>
                <circle id="rim" cx="0" cy="0" r="7"/>
                <circle id="rim2" cx="0" cy="0" r="3.5"/>
                <g id="zoomPlus">
                        <use xlink:href="#rim" fill="#404040">
                                <set attributeName="fill" to="#808080" begin="zoomplus.mouseover" end="zoomplus.mouseout"/>
                        </use>
                        <path d="M-4,0h8M0,-4v8" fill="none" stroke="white" stroke-width="1.5" pointer-events="none"/>
                </g>
                <g id="zoomMin">
                        <use xlink:href="#rim" fill="#404040">
                                <set attributeName="fill" to="#808080" begin="zoomminus.mouseover" end="zoomminus.mouseout"/>
                        </use>
                        <path d="M-4,0h8" fill="none" stroke="white" stroke-width="1.5" pointer-events="none"/>
                </g>
                <g id="dirArrow">
                        <path fill="none" stroke="white" stroke-width="1.5" d="M0,-3.0v7 M-2.5,-0.5L0,-3.0L2.5,-0.5"/>
                </g>
               <g id="resetDef">
                       <use xlink:href="#rim2" fill="#404040">
                               <set attributeName="fill" to="#808080" begin="reset.mouseover" end="reset.mouseout"/>
                       </use>
               </g>
        </defs>

<script type="text/javascript">
var viewWidth = 698;
var viewHeight = 319;
var sectionId = 'dynsection-0';
</script>
<script xlink:href="svgpan.js"/>
<svg id="graph" class="graph">
<g id="viewport">
<title>include/JSystem/JFramework/JFWSystem.h</title>
<polygon fill="white" stroke="transparent" points="-4,4 -4,-315 694.48,-315 694.48,4 -4,4"/>
<!-- Node1 -->
<g id="node1" class="node">
<title>Node1</title>
<g id="a_node1"><a xlink:title=" ">
<polygon fill="#bfbfbf" stroke="black" points="105.98,-280.5 105.98,-310.5 251.98,-310.5 251.98,-280.5 105.98,-280.5"/>
<text text-anchor="start" x="113.98" y="-298.5" font-family="Helvetica,sans-Serif" font-size="10.00">include/JSystem/JFramework</text>
<text text-anchor="middle" x="178.98" y="-287.5" font-family="Helvetica,sans-Serif" font-size="10.00">/JFWSystem.h</text>
</a>
</g>
</g>
<!-- Node2 -->
<g id="node2" class="node">
<title>Node2</title>
<g id="a_node2"><a xlink:href="JUTConsole_8h.html" target="_top" xlink:title=" ">
<polygon fill="white" stroke="black" points="316.98,-224.5 316.98,-243.5 468.98,-243.5 468.98,-224.5 316.98,-224.5"/>
<text text-anchor="middle" x="392.98" y="-231.5" font-family="Helvetica,sans-Serif" font-size="10.00">JSystem/JUtility/JUTConsole.h</text>
</a>
</g>
</g>
<!-- Node1&#45;&gt;Node2 -->
<g id="edge1" class="edge">
<title>Node1&#45;&gt;Node2</title>
<path fill="none" stroke="midnightblue" d="M229.43,-280.47C266.99,-270.03 317.61,-255.96 352.53,-246.25"/>
<polygon fill="midnightblue" stroke="midnightblue" points="353.69,-249.56 362.39,-243.51 351.82,-242.81 353.69,-249.56"/>
</g>
<!-- Node4 -->
<g id="node4" class="node">
<title>Node4</title>
<g id="a_node4"><a xlink:href="types_8h.html" target="_top" xlink:title=" ">
<polygon fill="white" stroke="black" points="343.48,-0.5 343.48,-19.5 424.48,-19.5 424.48,-0.5 343.48,-0.5"/>
<text text-anchor="middle" x="383.98" y="-7.5" font-family="Helvetica,sans-Serif" font-size="10.00">dolphin/types.h</text>
</a>
</g>
</g>
<!-- Node1&#45;&gt;Node4 -->
<g id="edge21" class="edge">
<title>Node1&#45;&gt;Node4</title>
<path fill="none" stroke="midnightblue" d="M114.47,-280.45C63.53,-265.11 0.98,-234.9 0.98,-179 0.98,-179 0.98,-179 0.98,-121 0.98,-90.9 -2.95,-75.5 19.98,-56 66.12,-16.77 244.66,-10.99 333.37,-10.62"/>
<polygon fill="midnightblue" stroke="midnightblue" points="333.48,-14.12 343.47,-10.59 333.46,-7.12 333.48,-14.12"/>
</g>
<!-- Node3 -->
<g id="node3" class="node">
<title>Node3</title>
<g id="a_node3"><a xlink:href="linklist_8h.html" target="_top" xlink:title=" ">
<polygon fill="white" stroke="black" points="441.48,-168.5 441.48,-187.5 574.48,-187.5 574.48,-168.5 441.48,-168.5"/>
<text text-anchor="middle" x="507.98" y="-175.5" font-family="Helvetica,sans-Serif" font-size="10.00">JSystem/JGadget/linklist.h</text>
</a>
</g>
</g>
<!-- Node2&#45;&gt;Node3 -->
<g id="edge2" class="edge">
<title>Node2&#45;&gt;Node3</title>
<path fill="none" stroke="midnightblue" d="M411.2,-224.44C429.88,-215.68 459.14,-201.94 480.6,-191.86"/>
<polygon fill="midnightblue" stroke="midnightblue" points="482.28,-194.93 489.85,-187.52 479.31,-188.6 482.28,-194.93"/>
</g>
<!-- Node2&#45;&gt;Node4 -->
<g id="edge20" class="edge">
<title>Node2&#45;&gt;Node4</title>
<path fill="none" stroke="midnightblue" d="M397.95,-224.28C408.62,-204.49 432.11,-154.6 423.98,-112 418.14,-81.4 403.18,-48.23 393.3,-28.55"/>
<polygon fill="midnightblue" stroke="midnightblue" points="396.37,-26.86 388.68,-19.58 390.15,-30.07 396.37,-26.86"/>
</g>
<!-- Node5 -->
<g id="node5" class="node">
<title>Node5</title>
<g id="a_node5"><a xlink:href="JKRDisposer_8h.html" target="_top" xlink:title=" ">
<polygon fill="white" stroke="black" points="523.98,-112.5 523.98,-131.5 681.98,-131.5 681.98,-112.5 523.98,-112.5"/>
<text text-anchor="middle" x="602.98" y="-119.5" font-family="Helvetica,sans-Serif" font-size="10.00">JSystem/JKernel/JKRDisposer.h</text>
</a>
</g>
</g>
<!-- Node2&#45;&gt;Node5 -->
<g id="edge4" class="edge">
<title>Node2&#45;&gt;Node5</title>
<path fill="none" stroke="midnightblue" d="M459.95,-224.47C507.57,-217.09 566.12,-204.94 583.98,-188 596.5,-176.13 600.91,-156.5 602.4,-141.92"/>
<polygon fill="midnightblue" stroke="midnightblue" points="605.91,-141.75 603.06,-131.55 598.93,-141.3 605.91,-141.75"/>
</g>
<!-- Node7 -->
<g id="node7" class="node">
<title>Node7</title>
<g id="a_node7"><a xlink:href="JUTFont_8h.html" target="_top" xlink:title=" ">
<polygon fill="white" stroke="black" points="198.48,-168.5 198.48,-187.5 335.48,-187.5 335.48,-168.5 198.48,-168.5"/>
<text text-anchor="middle" x="266.98" y="-175.5" font-family="Helvetica,sans-Serif" font-size="10.00">JSystem/JUtility/JUTFont.h</text>
</a>
</g>
</g>
<!-- Node2&#45;&gt;Node7 -->
<g id="edge8" class="edge">
<title>Node2&#45;&gt;Node7</title>
<path fill="none" stroke="midnightblue" d="M373.02,-224.44C352.37,-215.6 319.92,-201.69 296.35,-191.59"/>
<polygon fill="midnightblue" stroke="midnightblue" points="297.42,-188.24 286.85,-187.52 294.67,-194.67 297.42,-188.24"/>
</g>
<!-- Node8 -->
<g id="node8" class="node">
<title>Node8</title>
<g id="a_node8"><a xlink:href="TColor_8h.html" target="_top" xlink:title=" ">
<polygon fill="white" stroke="black" points="287.48,-112.5 287.48,-131.5 414.48,-131.5 414.48,-112.5 287.48,-112.5"/>
<text text-anchor="middle" x="350.98" y="-119.5" font-family="Helvetica,sans-Serif" font-size="10.00">JSystem/JUtility/TColor.h</text>
</a>
</g>
</g>
<!-- Node2&#45;&gt;Node8 -->
<g id="edge19" class="edge">
<title>Node2&#45;&gt;Node8</title>
<path fill="none" stroke="midnightblue" d="M389.69,-224.37C382.85,-206.46 366.99,-164.92 357.84,-140.95"/>
<polygon fill="midnightblue" stroke="midnightblue" points="361.1,-139.69 354.26,-131.59 354.56,-142.18 361.1,-139.69"/>
</g>
<!-- Node3&#45;&gt;Node4 -->
<g id="edge3" class="edge">
<title>Node3&#45;&gt;Node4</title>
<path fill="none" stroke="midnightblue" d="M506.27,-168.42C501.66,-147.18 487.25,-91.31 456.98,-56 445.38,-42.46 428.65,-31.74 414.14,-24.17"/>
<polygon fill="midnightblue" stroke="midnightblue" points="415.51,-20.94 405,-19.64 412.41,-27.21 415.51,-20.94"/>
</g>
<!-- Node5&#45;&gt;Node4 -->
<g id="edge7" class="edge">
<title>Node5&#45;&gt;Node4</title>
<path fill="none" stroke="midnightblue" d="M590.06,-112.31C570.17,-99.15 530.61,-73.81 494.98,-56 469.71,-43.37 439.99,-31.47 417.66,-23.08"/>
<polygon fill="midnightblue" stroke="midnightblue" points="418.87,-19.79 408.28,-19.6 416.44,-26.36 418.87,-19.79"/>
</g>
<!-- Node6 -->
<g id="node6" class="node">
<title>Node6</title>
<g id="a_node6"><a xlink:href="JSUList_8h.html" target="_top" xlink:title=" ">
<polygon fill="white" stroke="black" points="547.48,-56.5 547.48,-75.5 690.48,-75.5 690.48,-56.5 547.48,-56.5"/>
<text text-anchor="middle" x="618.98" y="-63.5" font-family="Helvetica,sans-Serif" font-size="10.00">JSystem/JSupport/JSUList.h</text>
</a>
</g>
</g>
<!-- Node5&#45;&gt;Node6 -->
<g id="edge5" class="edge">
<title>Node5&#45;&gt;Node6</title>
<path fill="none" stroke="midnightblue" d="M605.62,-112.08C607.77,-104.85 610.86,-94.41 613.53,-85.4"/>
<polygon fill="midnightblue" stroke="midnightblue" points="616.9,-86.33 616.39,-75.75 610.19,-84.34 616.9,-86.33"/>
</g>
<!-- Node6&#45;&gt;Node4 -->
<g id="edge6" class="edge">
<title>Node6&#45;&gt;Node4</title>
<path fill="none" stroke="midnightblue" d="M581.75,-56.44C540.92,-47.06 475.34,-31.99 431,-21.8"/>
<polygon fill="midnightblue" stroke="midnightblue" points="431.57,-18.34 421.04,-19.52 430.01,-25.17 431.57,-18.34"/>
</g>
<!-- Node7&#45;&gt;Node4 -->
<g id="edge18" class="edge">
<title>Node7&#45;&gt;Node4</title>
<path fill="none" stroke="midnightblue" d="M266.33,-168.08C265.8,-154.61 266.68,-128.87 278.98,-112 298.9,-84.69 321.65,-99.47 345.98,-76 359.78,-62.69 370.23,-43.31 376.65,-29.17"/>
<polygon fill="midnightblue" stroke="midnightblue" points="380.05,-30.14 380.76,-19.57 373.61,-27.39 380.05,-30.14"/>
</g>
<!-- Node7&#45;&gt;Node8 -->
<g id="edge9" class="edge">
<title>Node7&#45;&gt;Node8</title>
<path fill="none" stroke="midnightblue" d="M280.48,-168.32C293.58,-159.9 313.69,-146.97 329.09,-137.07"/>
<polygon fill="midnightblue" stroke="midnightblue" points="331,-140.01 337.52,-131.65 327.22,-134.12 331,-140.01"/>
</g>
<!-- Node10 -->
<g id="node10" class="node">
<title>Node10</title>
<g id="a_node10"><a xlink:href="GX_8h.html" target="_top" xlink:title=" ">
<polygon fill="white" stroke="black" points="145.48,-112.5 145.48,-131.5 230.48,-131.5 230.48,-112.5 145.48,-112.5"/>
<text text-anchor="middle" x="187.98" y="-119.5" font-family="Helvetica,sans-Serif" font-size="10.00">dolphin/gx/GX.h</text>
</a>
</g>
</g>
<!-- Node7&#45;&gt;Node10 -->
<g id="edge13" class="edge">
<title>Node7&#45;&gt;Node10</title>
<path fill="none" stroke="midnightblue" d="M254.29,-168.32C242.08,-159.98 223.4,-147.21 208.98,-137.35"/>
<polygon fill="midnightblue" stroke="midnightblue" points="210.87,-134.41 200.64,-131.65 206.92,-140.19 210.87,-134.41"/>
</g>
<!-- Node8&#45;&gt;Node4 -->
<g id="edge12" class="edge">
<title>Node8&#45;&gt;Node4</title>
<path fill="none" stroke="midnightblue" d="M358.16,-112.34C364.85,-103.72 374.45,-89.82 378.98,-76 383.89,-61.03 384.94,-43.12 384.87,-29.89"/>
<polygon fill="midnightblue" stroke="midnightblue" points="388.37,-29.57 384.6,-19.67 381.37,-29.76 388.37,-29.57"/>
</g>
<!-- Node9 -->
<g id="node9" class="node">
<title>Node9</title>
<g id="a_node9"><a xlink:href="GXTexture_8h.html" target="_top" xlink:title=" ">
<polygon fill="white" stroke="black" points="219.48,-56.5 219.48,-75.5 336.48,-75.5 336.48,-56.5 219.48,-56.5"/>
<text text-anchor="middle" x="277.98" y="-63.5" font-family="Helvetica,sans-Serif" font-size="10.00">dolphin/gx/GXTexture.h</text>
</a>
</g>
</g>
<!-- Node8&#45;&gt;Node9 -->
<g id="edge10" class="edge">
<title>Node8&#45;&gt;Node9</title>
<path fill="none" stroke="midnightblue" d="M339.25,-112.32C328.14,-104.11 311.24,-91.6 298,-81.81"/>
<polygon fill="midnightblue" stroke="midnightblue" points="300.05,-78.97 289.92,-75.83 295.88,-84.59 300.05,-78.97"/>
</g>
<!-- Node9&#45;&gt;Node4 -->
<g id="edge11" class="edge">
<title>Node9&#45;&gt;Node4</title>
<path fill="none" stroke="midnightblue" d="M295.01,-56.32C312.01,-47.66 338.36,-34.24 357.97,-24.25"/>
<polygon fill="midnightblue" stroke="midnightblue" points="359.67,-27.31 366.99,-19.65 356.49,-21.08 359.67,-27.31"/>
</g>
<!-- Node10&#45;&gt;Node4 -->
<g id="edge17" class="edge">
<title>Node10&#45;&gt;Node4</title>
<path fill="none" stroke="midnightblue" d="M188.52,-112.45C189.87,-98.55 194.58,-71.06 210.98,-56 244,-25.69 294.83,-15.26 332.86,-11.92"/>
<polygon fill="midnightblue" stroke="midnightblue" points="333.5,-15.38 343.22,-11.16 332.99,-8.4 333.5,-15.38"/>
</g>
<!-- Node10&#45;&gt;Node9 -->
<g id="edge16" class="edge">
<title>Node10&#45;&gt;Node9</title>
<path fill="none" stroke="midnightblue" d="M202.44,-112.32C216.48,-103.9 238.03,-90.97 254.53,-81.07"/>
<polygon fill="midnightblue" stroke="midnightblue" points="256.78,-83.8 263.56,-75.65 253.18,-77.8 256.78,-83.8"/>
</g>
<!-- Node11 -->
<g id="node11" class="node">
<title>Node11</title>
<g id="a_node11"><a xlink:href="GXDisplayList_8h.html" target="_top" xlink:title=" ">
<polygon fill="white" stroke="black" points="29.48,-56.5 29.48,-75.5 162.48,-75.5 162.48,-56.5 29.48,-56.5"/>
<text text-anchor="middle" x="95.98" y="-63.5" font-family="Helvetica,sans-Serif" font-size="10.00">dolphin/gx/GXDisplayList.h</text>
</a>
</g>
</g>
<!-- Node10&#45;&gt;Node11 -->
<g id="edge14" class="edge">
<title>Node10&#45;&gt;Node11</title>
<path fill="none" stroke="midnightblue" d="M173.2,-112.32C158.72,-103.82 136.41,-90.73 119.49,-80.8"/>
<polygon fill="midnightblue" stroke="midnightblue" points="121.12,-77.7 110.73,-75.65 117.58,-83.74 121.12,-77.7"/>
</g>
<!-- Node11&#45;&gt;Node4 -->
<g id="edge15" class="edge">
<title>Node11&#45;&gt;Node4</title>
<path fill="none" stroke="midnightblue" d="M141.62,-56.44C193.77,-46.66 278.89,-30.7 333.13,-20.53"/>
<polygon fill="midnightblue" stroke="midnightblue" points="334.03,-23.93 343.22,-18.64 332.74,-17.05 334.03,-23.93"/>
</g>
</g>
</svg>
        <g id="navigator" transform="translate(0 0)" fill="#404254">
                <rect fill="#f2f5e9" fill-opacity="0.5" stroke="#606060" stroke-width=".5" x="0" y="0" width="60" height="60"/>
                <use id="zoomplus" xlink:href="#zoomPlus" x="17" y="9" onmousedown="handleZoom(evt,'in')"/>
                <use id="zoomminus" xlink:href="#zoomMin" x="42" y="9" onmousedown="handleZoom(evt,'out')"/>
                <use id="reset" xlink:href="#resetDef" x="30" y="36" onmousedown="handleReset()"/>
                <g id="arrowUp" xlink:href="#dirArrow" transform="translate(30 24)" onmousedown="handlePan(0,-1)">
                  <use xlink:href="#rim" fill="#404040">
                        <set attributeName="fill" to="#808080" begin="arrowUp.mouseover" end="arrowUp.mouseout"/>
                  </use>
                  <path fill="none" stroke="white" stroke-width="1.5" d="M0,-3.0v7 M-2.5,-0.5L0,-3.0L2.5,-0.5"/>
                </g>
                <g id="arrowRight" xlink:href="#dirArrow" transform="rotate(90) translate(36 -43)" onmousedown="handlePan(1,0)">
                  <use xlink:href="#rim" fill="#404040">
                        <set attributeName="fill" to="#808080" begin="arrowRight.mouseover" end="arrowRight.mouseout"/>
                  </use>
                  <path fill="none" stroke="white" stroke-width="1.5" d="M0,-3.0v7 M-2.5,-0.5L0,-3.0L2.5,-0.5"/>
                </g>
                <g id="arrowDown" xlink:href="#dirArrow" transform="rotate(180) translate(-30 -48)" onmousedown="handlePan(0,1)">
                  <use xlink:href="#rim" fill="#404040">
                        <set attributeName="fill" to="#808080" begin="arrowDown.mouseover" end="arrowDown.mouseout"/>
                  </use>
                  <path fill="none" stroke="white" stroke-width="1.5" d="M0,-3.0v7 M-2.5,-0.5L0,-3.0L2.5,-0.5"/>
                </g>
                <g id="arrowLeft" xlink:href="#dirArrow" transform="rotate(270) translate(-36 17)" onmousedown="handlePan(-1,0)">
                  <use xlink:href="#rim" fill="#404040">
                        <set attributeName="fill" to="#808080" begin="arrowLeft.mouseover" end="arrowLeft.mouseout"/>
                  </use>
                  <path fill="none" stroke="white" stroke-width="1.5" d="M0,-3.0v7 M-2.5,-0.5L0,-3.0L2.5,-0.5"/>
                </g>
        </g>
        <svg viewBox="0 0 15 15" width="100%" height="30px" preserveAspectRatio="xMaxYMin meet">
         <g id="arrow_out" transform="scale(0.3 0.3)">
          <a xlink:href="JFWSystem_8h__incl_org.svg" target="_base">
           <rect id="button" ry="5" rx="5" y="6" x="6" height="38" width="38"
                fill="#f2f5e9" fill-opacity="0.5" stroke="#606060" stroke-width="1.0"/>
           <path id="arrow"
             d="M 11.500037,31.436501 C 11.940474,20.09759 22.043105,11.32322 32.158766,21.979434 L 37.068811,17.246167 C 37.068811,17.246167 37.088388,32 37.088388,32 L 22.160133,31.978069 C 22.160133,31.978069 26.997745,27.140456 26.997745,27.140456 C 18.528582,18.264221 13.291696,25.230495 11.500037,31.436501 z"
             style="fill:#404040;"/>
          </a>
         </g>
        </svg>
</svg>
