<?xml version="1.0" encoding="UTF-8" standalone="no"?>
<!DOCTYPE svg PUBLIC "-//W3C//DTD SVG 1.1//EN"
 "http://www.w3.org/Graphics/SVG/1.1/DTD/svg11.dtd">
<!-- Generated by graphviz version 2.44.0 ()
 -->
<!-- Title: libs/JSystem/JFramework/JFWSystem.cpp Pages: 1 -->
<!--zoomable 408 -->
<svg id="main" version="1.1" xmlns="http://www.w3.org/2000/svg" xmlns:xlink="http://www.w3.org/1999/xlink" xml:space="preserve" onload="init(evt)">
<style type="text/css"><![CDATA[
.edge:hover path { stroke: red; }
.edge:hover polygon { stroke: red; fill: red; }
]]></style>
<script type="text/javascript"><![CDATA[
var edges = document.getElementsByTagName('g');
if (edges && edges.length) {
  for (var i=0;i<edges.length;i++) {
    if (edges[i].id.substr(0,4)=='edge') {
      edges[i].setAttribute('class','edge');
    }
  }
}
]]></script>
        <defs>
                <circle id="rim" cx="0" cy="0" r="7"/>
                <circle id="rim2" cx="0" cy="0" r="3.5"/>
                <g id="zoomPlus">
                        <use xlink:href="#rim" fill="#404040">
                                <set attributeName="fill" to="#808080" begin="zoomplus.mouseover" end="zoomplus.mouseout"/>
                        </use>
                        <path d="M-4,0h8M0,-4v8" fill="none" stroke="white" stroke-width="1.5" pointer-events="none"/>
                </g>
                <g id="zoomMin">
                        <use xlink:href="#rim" fill="#404040">
                                <set attributeName="fill" to="#808080" begin="zoomminus.mouseover" end="zoomminus.mouseout"/>
                        </use>
                        <path d="M-4,0h8" fill="none" stroke="white" stroke-width="1.5" pointer-events="none"/>
                </g>
                <g id="dirArrow">
                        <path fill="none" stroke="white" stroke-width="1.5" d="M0,-3.0v7 M-2.5,-0.5L0,-3.0L2.5,-0.5"/>
                </g>
               <g id="resetDef">
                       <use xlink:href="#rim2" fill="#404040">
                               <set attributeName="fill" to="#808080" begin="reset.mouseover" end="reset.mouseout"/>
                       </use>
               </g>
        </defs>

<script type="text/javascript">
var viewWidth = 1225;
var viewHeight = 408;
var sectionId = 'dynsection-0';
</script>
<script xlink:href="svgpan.js"/>
<svg id="graph" class="graph">
<g id="viewport">
<title>libs/JSystem/JFramework/JFWSystem.cpp</title>
<polygon fill="white" stroke="transparent" points="-4,4 -4,-404 1221,-404 1221,4 -4,4"/>
<!-- Node1 -->
<g id="node1" class="node">
<title>Node1</title>
<g id="a_node1"><a xlink:title=" ">
<polygon fill="#bfbfbf" stroke="black" points="775,-369.5 775,-399.5 905,-399.5 905,-369.5 775,-369.5"/>
<text text-anchor="start" x="783" y="-387.5" font-family="Helvetica,sans-Serif" font-size="10.00">libs/JSystem/JFramework</text>
<text text-anchor="middle" x="840" y="-376.5" font-family="Helvetica,sans-Serif" font-size="10.00">/JFWSystem.cpp</text>
</a>
</g>
</g>
<!-- Node2 -->
<g id="node2" class="node">
<title>Node2</title>
<g id="a_node2"><a xlink:href="JFWSystem_8h.html" target="_top" xlink:title=" ">
<polygon fill="white" stroke="black" points="410,-297 410,-327 522,-327 522,-297 410,-297"/>
<text text-anchor="start" x="418" y="-315" font-family="Helvetica,sans-Serif" font-size="10.00">JSystem/JFramework</text>
<text text-anchor="middle" x="466" y="-304" font-family="Helvetica,sans-Serif" font-size="10.00">/JFWSystem.h</text>
</a>
</g>
</g>
<!-- Node1&#45;&gt;Node2 -->
<g id="edge1" class="edge">
<title>Node1&#45;&gt;Node2</title>
<path fill="none" stroke="midnightblue" d="M774.85,-371.22C706.87,-358.41 600.84,-338.42 532.4,-325.52"/>
<polygon fill="midnightblue" stroke="midnightblue" points="532.64,-322 522.16,-323.59 531.34,-328.88 532.64,-322"/>
</g>
<!-- Node5 -->
<g id="node5" class="node">
<title>Node5</title>
<g id="a_node5"><a xlink:href="types_8h.html" target="_top" xlink:title=" ">
<polygon fill="white" stroke="black" points="401.5,-0.5 401.5,-19.5 482.5,-19.5 482.5,-0.5 401.5,-0.5"/>
<text text-anchor="middle" x="442" y="-7.5" font-family="Helvetica,sans-Serif" font-size="10.00">dolphin/types.h</text>
</a>
</g>
</g>
<!-- Node1&#45;&gt;Node5 -->
<g id="edge26" class="edge">
<title>Node1&#45;&gt;Node5</title>
<path fill="none" stroke="midnightblue" d="M826.19,-369.17C817.73,-359.63 807.35,-346.42 801,-333 784.04,-297.13 781,-285.68 781,-246 781,-246 781,-246 781,-121 781,-61.14 587.33,-28.93 492.76,-16.76"/>
<polygon fill="midnightblue" stroke="midnightblue" points="492.91,-13.26 482.55,-15.48 492.04,-20.2 492.91,-13.26"/>
</g>
<!-- Node14 -->
<g id="node14" class="node">
<title>Node14</title>
<g id="a_node14"><a xlink:href="dol2asm_8h.html" target="_top" xlink:title=" ">
<polygon fill="white" stroke="black" points="809.5,-302.5 809.5,-321.5 870.5,-321.5 870.5,-302.5 809.5,-302.5"/>
<text text-anchor="middle" x="840" y="-309.5" font-family="Helvetica,sans-Serif" font-size="10.00">dol2asm.h</text>
</a>
</g>
</g>
<!-- Node1&#45;&gt;Node14 -->
<g id="edge25" class="edge">
<title>Node1&#45;&gt;Node14</title>
<path fill="none" stroke="midnightblue" d="M840,-369.23C840,-358.5 840,-343.69 840,-331.96"/>
<polygon fill="midnightblue" stroke="midnightblue" points="843.5,-331.89 840,-321.89 836.5,-331.89 843.5,-331.89"/>
</g>
<!-- Node15 -->
<g id="node15" class="node">
<title>Node15</title>
<g id="a_node15"><a xlink:title=" ">
<polygon fill="white" stroke="#bfbfbf" points="889,-291.5 889,-332.5 1023,-332.5 1023,-291.5 889,-291.5"/>
<text text-anchor="start" x="897" y="-320.5" font-family="Helvetica,sans-Serif" font-size="10.00">asm/JSystem/JFramework</text>
<text text-anchor="start" x="897" y="-309.5" font-family="Helvetica,sans-Serif" font-size="10.00">/JFWSystem/firstInit_</text>
<text text-anchor="middle" x="956" y="-298.5" font-family="Helvetica,sans-Serif" font-size="10.00">_9JFWSystemFv.s</text>
</a>
</g>
</g>
<!-- Node1&#45;&gt;Node15 -->
<g id="edge27" class="edge">
<title>Node1&#45;&gt;Node15</title>
<path fill="none" stroke="midnightblue" d="M863.2,-369.4C877.95,-360.44 897.46,-348.58 914.79,-338.04"/>
<polygon fill="midnightblue" stroke="midnightblue" points="916.89,-340.86 923.62,-332.68 913.26,-334.88 916.89,-340.86"/>
</g>
<!-- Node16 -->
<g id="node16" class="node">
<title>Node16</title>
<g id="a_node16"><a xlink:title=" ">
<polygon fill="white" stroke="#bfbfbf" points="1041,-297 1041,-327 1217,-327 1217,-297 1041,-297"/>
<text text-anchor="start" x="1049" y="-315" font-family="Helvetica,sans-Serif" font-size="10.00">asm/JSystem/JFramework</text>
<text text-anchor="middle" x="1129" y="-304" font-family="Helvetica,sans-Serif" font-size="10.00">/JFWSystem/init__9JFWSystemFv.s</text>
</a>
</g>
</g>
<!-- Node1&#45;&gt;Node16 -->
<g id="edge28" class="edge">
<title>Node1&#45;&gt;Node16</title>
<path fill="none" stroke="midnightblue" d="M897.44,-369.49C944.67,-357.97 1011.67,-341.62 1061.45,-329.48"/>
<polygon fill="midnightblue" stroke="midnightblue" points="1062.29,-332.88 1071.17,-327.11 1060.63,-326.08 1062.29,-332.88"/>
</g>
<!-- Node3 -->
<g id="node3" class="node">
<title>Node3</title>
<g id="a_node3"><a xlink:href="JUTConsole_8h.html" target="_top" xlink:title=" ">
<polygon fill="white" stroke="black" points="390,-235.5 390,-254.5 542,-254.5 542,-235.5 390,-235.5"/>
<text text-anchor="middle" x="466" y="-242.5" font-family="Helvetica,sans-Serif" font-size="10.00">JSystem/JUtility/JUTConsole.h</text>
</a>
</g>
</g>
<!-- Node2&#45;&gt;Node3 -->
<g id="edge2" class="edge">
<title>Node2&#45;&gt;Node3</title>
<path fill="none" stroke="midnightblue" d="M466,-296.9C466,-287.56 466,-275.21 466,-265.02"/>
<polygon fill="midnightblue" stroke="midnightblue" points="469.5,-264.69 466,-254.69 462.5,-264.69 469.5,-264.69"/>
</g>
<!-- Node2&#45;&gt;Node5 -->
<g id="edge24" class="edge">
<title>Node2&#45;&gt;Node5</title>
<path fill="none" stroke="midnightblue" d="M409.79,-307.59C285.85,-298.54 0,-268.54 0,-184.5 0,-184.5 0,-184.5 0,-121 0,-85.09 16.91,-73.98 48,-56 105.23,-22.91 298.34,-14.14 391.24,-11.83"/>
<polygon fill="midnightblue" stroke="midnightblue" points="391.34,-15.33 401.25,-11.59 391.17,-8.33 391.34,-15.33"/>
</g>
<!-- Node4 -->
<g id="node4" class="node">
<title>Node4</title>
<g id="a_node4"><a xlink:href="linklist_8h.html" target="_top" xlink:title=" ">
<polygon fill="white" stroke="black" points="581.5,-174 581.5,-193 714.5,-193 714.5,-174 581.5,-174"/>
<text text-anchor="middle" x="648" y="-181" font-family="Helvetica,sans-Serif" font-size="10.00">JSystem/JGadget/linklist.h</text>
</a>
</g>
</g>
<!-- Node3&#45;&gt;Node4 -->
<g id="edge3" class="edge">
<title>Node3&#45;&gt;Node4</title>
<path fill="none" stroke="midnightblue" d="M492.08,-235.48C523.57,-225.18 576.7,-207.81 612.06,-196.25"/>
<polygon fill="midnightblue" stroke="midnightblue" points="613.55,-199.44 621.97,-193.01 611.38,-192.79 613.55,-199.44"/>
</g>
<!-- Node3&#45;&gt;Node5 -->
<g id="edge23" class="edge">
<title>Node3&#45;&gt;Node5</title>
<path fill="none" stroke="midnightblue" d="M542.25,-241.23C609.78,-236.99 701.11,-226.23 724,-199 771.09,-142.98 729.46,-114.73 638,-56 594.03,-27.77 534.49,-17.17 492.6,-13.23"/>
<polygon fill="midnightblue" stroke="midnightblue" points="492.88,-9.74 482.62,-12.38 492.29,-16.72 492.88,-9.74"/>
</g>
<!-- Node6 -->
<g id="node6" class="node">
<title>Node6</title>
<g id="a_node6"><a xlink:href="JKRDisposer_8h.html" target="_top" xlink:title=" ">
<polygon fill="white" stroke="black" points="52,-112.5 52,-131.5 210,-131.5 210,-112.5 52,-112.5"/>
<text text-anchor="middle" x="131" y="-119.5" font-family="Helvetica,sans-Serif" font-size="10.00">JSystem/JKernel/JKRDisposer.h</text>
</a>
</g>
</g>
<!-- Node3&#45;&gt;Node6 -->
<g id="edge5" class="edge">
<title>Node3&#45;&gt;Node6</title>
<path fill="none" stroke="midnightblue" d="M392.55,-235.45C349.83,-228.84 295.58,-217.57 250,-199 211.52,-183.32 171.83,-155.09 149.4,-137.8"/>
<polygon fill="midnightblue" stroke="midnightblue" points="151.45,-134.96 141.42,-131.55 147.13,-140.47 151.45,-134.96"/>
</g>
<!-- Node8 -->
<g id="node8" class="node">
<title>Node8</title>
<g id="a_node8"><a xlink:href="JUTFont_8h.html" target="_top" xlink:title=" ">
<polygon fill="white" stroke="black" points="259.5,-174 259.5,-193 396.5,-193 396.5,-174 259.5,-174"/>
<text text-anchor="middle" x="328" y="-181" font-family="Helvetica,sans-Serif" font-size="10.00">JSystem/JUtility/JUTFont.h</text>
</a>
</g>
</g>
<!-- Node3&#45;&gt;Node8 -->
<g id="edge9" class="edge">
<title>Node3&#45;&gt;Node8</title>
<path fill="none" stroke="midnightblue" d="M446.23,-235.48C422.86,-225.4 383.79,-208.55 357,-197"/>
<polygon fill="midnightblue" stroke="midnightblue" points="358.3,-193.75 347.74,-193.01 355.53,-200.18 358.3,-193.75"/>
</g>
<!-- Node9 -->
<g id="node9" class="node">
<title>Node9</title>
<g id="a_node9"><a xlink:href="TColor_8h.html" target="_top" xlink:title=" ">
<polygon fill="white" stroke="black" points="441.5,-112.5 441.5,-131.5 568.5,-131.5 568.5,-112.5 441.5,-112.5"/>
<text text-anchor="middle" x="505" y="-119.5" font-family="Helvetica,sans-Serif" font-size="10.00">JSystem/JUtility/TColor.h</text>
</a>
</g>
</g>
<!-- Node3&#45;&gt;Node9 -->
<g id="edge20" class="edge">
<title>Node3&#45;&gt;Node9</title>
<path fill="none" stroke="midnightblue" d="M459.38,-235.18C449.32,-220.59 432.48,-190.81 444,-168 450.81,-154.52 463.77,-144.08 476,-136.67"/>
<polygon fill="midnightblue" stroke="midnightblue" points="478.07,-139.52 485.09,-131.59 474.66,-133.41 478.07,-139.52"/>
</g>
<!-- Node13 -->
<g id="node13" class="node">
<title>Node13</title>
<g id="a_node13"><a xlink:href="____va__arg_8h.html" target="_top" xlink:title=" ">
<polygon fill="white" stroke="black" points="453,-168.5 453,-198.5 563,-198.5 563,-168.5 453,-168.5"/>
<text text-anchor="start" x="461" y="-186.5" font-family="Helvetica,sans-Serif" font-size="10.00">Runtime.PPCEABI.H/</text>
<text text-anchor="middle" x="508" y="-175.5" font-family="Helvetica,sans-Serif" font-size="10.00">__va_arg.h</text>
</a>
</g>
</g>
<!-- Node3&#45;&gt;Node13 -->
<g id="edge21" class="edge">
<title>Node3&#45;&gt;Node13</title>
<path fill="none" stroke="midnightblue" d="M472.02,-235.48C477.28,-228.02 485.16,-216.85 492.21,-206.87"/>
<polygon fill="midnightblue" stroke="midnightblue" points="495.19,-208.71 498.1,-198.52 489.48,-204.67 495.19,-208.71"/>
</g>
<!-- Node4&#45;&gt;Node5 -->
<g id="edge4" class="edge">
<title>Node4&#45;&gt;Node5</title>
<path fill="none" stroke="midnightblue" d="M648.58,-173.69C649.58,-150.84 648.91,-89.09 616,-56 583.78,-23.61 531.5,-13.55 492.64,-10.87"/>
<polygon fill="midnightblue" stroke="midnightblue" points="492.75,-7.37 482.57,-10.32 492.37,-14.36 492.75,-7.37"/>
</g>
<!-- Node6&#45;&gt;Node5 -->
<g id="edge8" class="edge">
<title>Node6&#45;&gt;Node5</title>
<path fill="none" stroke="midnightblue" d="M107.49,-112.31C78.99,-100.52 37.11,-78.35 57,-56 78.85,-31.45 291.51,-18.17 391.07,-13.25"/>
<polygon fill="midnightblue" stroke="midnightblue" points="391.38,-16.74 401.2,-12.76 391.04,-9.74 391.38,-16.74"/>
</g>
<!-- Node7 -->
<g id="node7" class="node">
<title>Node7</title>
<g id="a_node7"><a xlink:href="JSUList_8h.html" target="_top" xlink:title=" ">
<polygon fill="white" stroke="black" points="66.5,-56.5 66.5,-75.5 209.5,-75.5 209.5,-56.5 66.5,-56.5"/>
<text text-anchor="middle" x="138" y="-63.5" font-family="Helvetica,sans-Serif" font-size="10.00">JSystem/JSupport/JSUList.h</text>
</a>
</g>
</g>
<!-- Node6&#45;&gt;Node7 -->
<g id="edge6" class="edge">
<title>Node6&#45;&gt;Node7</title>
<path fill="none" stroke="midnightblue" d="M132.16,-112.08C133.08,-104.93 134.42,-94.64 135.58,-85.69"/>
<polygon fill="midnightblue" stroke="midnightblue" points="139.05,-86.12 136.87,-75.75 132.11,-85.22 139.05,-86.12"/>
</g>
<!-- Node7&#45;&gt;Node5 -->
<g id="edge7" class="edge">
<title>Node7&#45;&gt;Node5</title>
<path fill="none" stroke="midnightblue" d="M186.17,-56.44C242.24,-46.48 334.41,-30.11 391.47,-19.98"/>
<polygon fill="midnightblue" stroke="midnightblue" points="392.12,-23.42 401.35,-18.22 390.89,-16.52 392.12,-23.42"/>
</g>
<!-- Node8&#45;&gt;Node5 -->
<g id="edge19" class="edge">
<title>Node8&#45;&gt;Node5</title>
<path fill="none" stroke="midnightblue" d="M320.38,-173.94C301.97,-152.2 258.58,-93.84 287,-56 299.68,-39.11 351.16,-26.51 391.36,-19"/>
<polygon fill="midnightblue" stroke="midnightblue" points="392.08,-22.43 401.3,-17.21 390.84,-15.54 392.08,-22.43"/>
</g>
<!-- Node8&#45;&gt;Node9 -->
<g id="edge10" class="edge">
<title>Node8&#45;&gt;Node9</title>
<path fill="none" stroke="midnightblue" d="M353.36,-173.98C383.98,-163.68 435.66,-146.31 470.05,-134.75"/>
<polygon fill="midnightblue" stroke="midnightblue" points="471.32,-138.01 479.69,-131.51 469.09,-131.38 471.32,-138.01"/>
</g>
<!-- Node11 -->
<g id="node11" class="node">
<title>Node11</title>
<g id="a_node11"><a xlink:href="GX_8h.html" target="_top" xlink:title=" ">
<polygon fill="white" stroke="black" points="307.5,-112.5 307.5,-131.5 392.5,-131.5 392.5,-112.5 307.5,-112.5"/>
<text text-anchor="middle" x="350" y="-119.5" font-family="Helvetica,sans-Serif" font-size="10.00">dolphin/gx/GX.h</text>
</a>
</g>
</g>
<!-- Node8&#45;&gt;Node11 -->
<g id="edge14" class="edge">
<title>Node8&#45;&gt;Node11</title>
<path fill="none" stroke="midnightblue" d="M331.15,-173.98C334.32,-165.4 339.3,-151.93 343.35,-140.98"/>
<polygon fill="midnightblue" stroke="midnightblue" points="346.67,-142.1 346.85,-131.51 340.1,-139.67 346.67,-142.1"/>
</g>
<!-- Node9&#45;&gt;Node5 -->
<g id="edge13" class="edge">
<title>Node9&#45;&gt;Node5</title>
<path fill="none" stroke="midnightblue" d="M529.85,-112.4C558.22,-101.19 598.57,-80.15 581,-56 560.96,-28.45 523.68,-17.42 492.78,-13.16"/>
<polygon fill="midnightblue" stroke="midnightblue" points="492.91,-9.65 482.57,-11.96 492.1,-16.61 492.91,-9.65"/>
</g>
<!-- Node10 -->
<g id="node10" class="node">
<title>Node10</title>
<g id="a_node10"><a xlink:href="GXTexture_8h.html" target="_top" xlink:title=" ">
<polygon fill="white" stroke="black" points="455.5,-56.5 455.5,-75.5 572.5,-75.5 572.5,-56.5 455.5,-56.5"/>
<text text-anchor="middle" x="514" y="-63.5" font-family="Helvetica,sans-Serif" font-size="10.00">dolphin/gx/GXTexture.h</text>
</a>
</g>
</g>
<!-- Node9&#45;&gt;Node10 -->
<g id="edge11" class="edge">
<title>Node9&#45;&gt;Node10</title>
<path fill="none" stroke="midnightblue" d="M506.49,-112.08C507.68,-104.93 509.39,-94.64 510.88,-85.69"/>
<polygon fill="midnightblue" stroke="midnightblue" points="514.35,-86.19 512.54,-75.75 507.45,-85.04 514.35,-86.19"/>
</g>
<!-- Node10&#45;&gt;Node5 -->
<g id="edge12" class="edge">
<title>Node10&#45;&gt;Node5</title>
<path fill="none" stroke="midnightblue" d="M502.43,-56.32C491.58,-48.18 475.12,-35.84 462.12,-26.09"/>
<polygon fill="midnightblue" stroke="midnightblue" points="463.88,-23.03 453.78,-19.83 459.68,-28.63 463.88,-23.03"/>
</g>
<!-- Node11&#45;&gt;Node5 -->
<g id="edge18" class="edge">
<title>Node11&#45;&gt;Node5</title>
<path fill="none" stroke="midnightblue" d="M333.44,-112.47C312.05,-100.32 279.35,-77.15 295,-56 316.94,-26.34 358.03,-15.59 391.2,-11.98"/>
<polygon fill="midnightblue" stroke="midnightblue" points="391.57,-15.46 401.21,-11.07 390.94,-8.49 391.57,-15.46"/>
</g>
<!-- Node11&#45;&gt;Node10 -->
<g id="edge17" class="edge">
<title>Node11&#45;&gt;Node10</title>
<path fill="none" stroke="midnightblue" d="M375.99,-112.44C403.7,-103.32 447.75,-88.81 478.62,-78.65"/>
<polygon fill="midnightblue" stroke="midnightblue" points="479.73,-81.97 488.14,-75.52 477.54,-75.32 479.73,-81.97"/>
</g>
<!-- Node12 -->
<g id="node12" class="node">
<title>Node12</title>
<g id="a_node12"><a xlink:href="GXDisplayList_8h.html" target="_top" xlink:title=" ">
<polygon fill="white" stroke="black" points="304.5,-56.5 304.5,-75.5 437.5,-75.5 437.5,-56.5 304.5,-56.5"/>
<text text-anchor="middle" x="371" y="-63.5" font-family="Helvetica,sans-Serif" font-size="10.00">dolphin/gx/GXDisplayList.h</text>
</a>
</g>
</g>
<!-- Node11&#45;&gt;Node12 -->
<g id="edge15" class="edge">
<title>Node11&#45;&gt;Node12</title>
<path fill="none" stroke="midnightblue" d="M353.47,-112.08C356.31,-104.77 360.43,-94.18 363.96,-85.1"/>
<polygon fill="midnightblue" stroke="midnightblue" points="367.23,-86.34 367.6,-75.75 360.71,-83.8 367.23,-86.34"/>
</g>
<!-- Node12&#45;&gt;Node5 -->
<g id="edge16" class="edge">
<title>Node12&#45;&gt;Node5</title>
<path fill="none" stroke="midnightblue" d="M382.41,-56.32C393.11,-48.18 409.34,-35.84 422.16,-26.09"/>
<polygon fill="midnightblue" stroke="midnightblue" points="424.54,-28.67 430.39,-19.83 420.31,-23.1 424.54,-28.67"/>
</g>
<!-- Node13&#45;&gt;Node5 -->
<g id="edge22" class="edge">
<title>Node13&#45;&gt;Node5</title>
<path fill="none" stroke="midnightblue" d="M530.98,-168.47C566.64,-144.95 628.22,-96.17 598,-56 585.19,-38.97 533.1,-26.36 492.6,-18.89"/>
<polygon fill="midnightblue" stroke="midnightblue" points="493.04,-15.41 482.58,-17.1 491.81,-22.3 493.04,-15.41"/>
</g>
</g>
</svg>
        <g id="navigator" transform="translate(0 0)" fill="#404254">
                <rect fill="#f2f5e9" fill-opacity="0.5" stroke="#606060" stroke-width=".5" x="0" y="0" width="60" height="60"/>
                <use id="zoomplus" xlink:href="#zoomPlus" x="17" y="9" onmousedown="handleZoom(evt,'in')"/>
                <use id="zoomminus" xlink:href="#zoomMin" x="42" y="9" onmousedown="handleZoom(evt,'out')"/>
                <use id="reset" xlink:href="#resetDef" x="30" y="36" onmousedown="handleReset()"/>
                <g id="arrowUp" xlink:href="#dirArrow" transform="translate(30 24)" onmousedown="handlePan(0,-1)">
                  <use xlink:href="#rim" fill="#404040">
                        <set attributeName="fill" to="#808080" begin="arrowUp.mouseover" end="arrowUp.mouseout"/>
                  </use>
                  <path fill="none" stroke="white" stroke-width="1.5" d="M0,-3.0v7 M-2.5,-0.5L0,-3.0L2.5,-0.5"/>
                </g>
                <g id="arrowRight" xlink:href="#dirArrow" transform="rotate(90) translate(36 -43)" onmousedown="handlePan(1,0)">
                  <use xlink:href="#rim" fill="#404040">
                        <set attributeName="fill" to="#808080" begin="arrowRight.mouseover" end="arrowRight.mouseout"/>
                  </use>
                  <path fill="none" stroke="white" stroke-width="1.5" d="M0,-3.0v7 M-2.5,-0.5L0,-3.0L2.5,-0.5"/>
                </g>
                <g id="arrowDown" xlink:href="#dirArrow" transform="rotate(180) translate(-30 -48)" onmousedown="handlePan(0,1)">
                  <use xlink:href="#rim" fill="#404040">
                        <set attributeName="fill" to="#808080" begin="arrowDown.mouseover" end="arrowDown.mouseout"/>
                  </use>
                  <path fill="none" stroke="white" stroke-width="1.5" d="M0,-3.0v7 M-2.5,-0.5L0,-3.0L2.5,-0.5"/>
                </g>
                <g id="arrowLeft" xlink:href="#dirArrow" transform="rotate(270) translate(-36 17)" onmousedown="handlePan(-1,0)">
                  <use xlink:href="#rim" fill="#404040">
                        <set attributeName="fill" to="#808080" begin="arrowLeft.mouseover" end="arrowLeft.mouseout"/>
                  </use>
                  <path fill="none" stroke="white" stroke-width="1.5" d="M0,-3.0v7 M-2.5,-0.5L0,-3.0L2.5,-0.5"/>
                </g>
        </g>
        <svg viewBox="0 0 15 15" width="100%" height="30px" preserveAspectRatio="xMaxYMin meet">
         <g id="arrow_out" transform="scale(0.3 0.3)">
          <a xlink:href="JFWSystem_8cpp__incl_org.svg" target="_base">
           <rect id="button" ry="5" rx="5" y="6" x="6" height="38" width="38"
                fill="#f2f5e9" fill-opacity="0.5" stroke="#606060" stroke-width="1.0"/>
           <path id="arrow"
             d="M 11.500037,31.436501 C 11.940474,20.09759 22.043105,11.32322 32.158766,21.979434 L 37.068811,17.246167 C 37.068811,17.246167 37.088388,32 37.088388,32 L 22.160133,31.978069 C 22.160133,31.978069 26.997745,27.140456 26.997745,27.140456 C 18.528582,18.264221 13.291696,25.230495 11.500037,31.436501 z"
             style="fill:#404040;"/>
          </a>
         </g>
        </svg>
</svg>
