<?xml version="1.0" encoding="UTF-8" standalone="no"?>
<!DOCTYPE svg PUBLIC "-//W3C//DTD SVG 1.1//EN"
 "http://www.w3.org/Graphics/SVG/1.1/DTD/svg11.dtd">
<!-- Generated by graphviz version 2.44.0 ()
 -->
<!-- Title: include/JSystem/JGeometry.h Pages: 1 -->
<!--zoomable 553 -->
<svg id="main" version="1.1" xmlns="http://www.w3.org/2000/svg" xmlns:xlink="http://www.w3.org/1999/xlink" xml:space="preserve" onload="init(evt)">
<style type="text/css"><![CDATA[
.edge:hover path { stroke: red; }
.edge:hover polygon { stroke: red; fill: red; }
]]></style>
<script type="text/javascript"><![CDATA[
var edges = document.getElementsByTagName('g');
if (edges && edges.length) {
  for (var i=0;i<edges.length;i++) {
    if (edges[i].id.substr(0,4)=='edge') {
      edges[i].setAttribute('class','edge');
    }
  }
}
]]></script>
        <defs>
                <circle id="rim" cx="0" cy="0" r="7"/>
                <circle id="rim2" cx="0" cy="0" r="3.5"/>
                <g id="zoomPlus">
                        <use xlink:href="#rim" fill="#404040">
                                <set attributeName="fill" to="#808080" begin="zoomplus.mouseover" end="zoomplus.mouseout"/>
                        </use>
                        <path d="M-4,0h8M0,-4v8" fill="none" stroke="white" stroke-width="1.5" pointer-events="none"/>
                </g>
                <g id="zoomMin">
                        <use xlink:href="#rim" fill="#404040">
                                <set attributeName="fill" to="#808080" begin="zoomminus.mouseover" end="zoomminus.mouseout"/>
                        </use>
                        <path d="M-4,0h8" fill="none" stroke="white" stroke-width="1.5" pointer-events="none"/>
                </g>
                <g id="dirArrow">
                        <path fill="none" stroke="white" stroke-width="1.5" d="M0,-3.0v7 M-2.5,-0.5L0,-3.0L2.5,-0.5"/>
                </g>
               <g id="resetDef">
                       <use xlink:href="#rim2" fill="#404040">
                               <set attributeName="fill" to="#808080" begin="reset.mouseover" end="reset.mouseout"/>
                       </use>
               </g>
        </defs>

<script type="text/javascript">
var viewWidth = 1149;
var viewHeight = 553;
var sectionId = 'dynsection-1';
</script>
<script xlink:href="svgpan.js"/>
<svg id="graph" class="graph">
<g id="viewport">
<title>include/JSystem/JGeometry.h</title>
<polygon fill="white" stroke="transparent" points="-4,4 -4,-549 1144.78,-549 1144.78,4 -4,4"/>
<!-- Node1 -->
<g id="node1" class="node">
<title>Node1</title>
<g id="a_node1"><a xlink:title=" ">
<polygon fill="#bfbfbf" stroke="black" points="373.28,-525.5 373.28,-544.5 519.28,-544.5 519.28,-525.5 373.28,-525.5"/>
<text text-anchor="middle" x="446.28" y="-532.5" font-family="Helvetica,sans-Serif" font-size="10.00">include/JSystem/JGeometry.h</text>
</a>
</g>
</g>
<!-- Node2 -->
<g id="node2" class="node">
<title>Node2</title>
<g id="a_node2"><a xlink:href="JAISound_8h.html" target="_top" xlink:title=" ">
<polygon fill="white" stroke="black" points="382.78,-458.5 382.78,-488.5 509.78,-488.5 509.78,-458.5 382.78,-458.5"/>
<text text-anchor="start" x="390.78" y="-476.5" font-family="Helvetica,sans-Serif" font-size="10.00">include/JSystem/JAudio2</text>
<text text-anchor="middle" x="446.28" y="-465.5" font-family="Helvetica,sans-Serif" font-size="10.00">/JAISound.h</text>
</a>
</g>
</g>
<!-- Node1&#45;&gt;Node2 -->
<g id="edge1" class="edge">
<title>Node1&#45;&gt;Node2</title>
<path fill="none" stroke="midnightblue" d="M446.28,-515.23C446.28,-506.59 446.28,-496.5 446.28,-488.52"/>
<polygon fill="midnightblue" stroke="midnightblue" points="442.78,-515.48 446.28,-525.48 449.78,-515.48 442.78,-515.48"/>
</g>
<!-- Node3 -->
<g id="node3" class="node">
<title>Node3</title>
<g id="a_node3"><a xlink:href="JAISound_8cpp.html" target="_top" xlink:title=" ">
<polygon fill="white" stroke="black" points="70.78,-391.5 70.78,-421.5 181.78,-421.5 181.78,-391.5 70.78,-391.5"/>
<text text-anchor="start" x="78.78" y="-409.5" font-family="Helvetica,sans-Serif" font-size="10.00">libs/JSystem/JAudio2</text>
<text text-anchor="middle" x="126.28" y="-398.5" font-family="Helvetica,sans-Serif" font-size="10.00">/JAISound.cpp</text>
</a>
</g>
</g>
<!-- Node2&#45;&gt;Node3 -->
<g id="edge2" class="edge">
<title>Node2&#45;&gt;Node3</title>
<path fill="none" stroke="midnightblue" d="M372.59,-458.39C321.61,-448.51 252.25,-434.83 191.28,-422 188.23,-421.36 185.1,-420.69 181.93,-420.01"/>
<polygon fill="midnightblue" stroke="midnightblue" points="372.05,-461.85 382.54,-460.31 373.38,-454.98 372.05,-461.85"/>
</g>
<!-- Node4 -->
<g id="node4" class="node">
<title>Node4</title>
<g id="a_node4"><a xlink:href="Z2AudioMgr_8h.html" target="_top" xlink:title=" ">
<polygon fill="white" stroke="black" points="366.28,-324.5 366.28,-354.5 466.28,-354.5 466.28,-324.5 366.28,-324.5"/>
<text text-anchor="start" x="374.28" y="-342.5" font-family="Helvetica,sans-Serif" font-size="10.00">include/Z2AudioLib</text>
<text text-anchor="middle" x="416.28" y="-331.5" font-family="Helvetica,sans-Serif" font-size="10.00">/Z2AudioMgr.h</text>
</a>
</g>
</g>
<!-- Node2&#45;&gt;Node4 -->
<g id="edge3" class="edge">
<title>Node2&#45;&gt;Node4</title>
<path fill="none" stroke="midnightblue" d="M440.8,-448.39C434.56,-420.9 424.55,-376.89 419.47,-354.52"/>
<polygon fill="midnightblue" stroke="midnightblue" points="437.44,-449.4 443.07,-458.37 444.27,-447.85 437.44,-449.4"/>
</g>
<!-- Node7 -->
<g id="node7" class="node">
<title>Node7</title>
<g id="a_node7"><a xlink:href="Z2SceneMgr_8h.html" target="_top" xlink:title=" ">
<polygon fill="white" stroke="black" points="318.28,-391.5 318.28,-421.5 418.28,-421.5 418.28,-391.5 318.28,-391.5"/>
<text text-anchor="start" x="326.28" y="-409.5" font-family="Helvetica,sans-Serif" font-size="10.00">include/Z2AudioLib</text>
<text text-anchor="middle" x="368.28" y="-398.5" font-family="Helvetica,sans-Serif" font-size="10.00">/Z2SceneMgr.h</text>
</a>
</g>
</g>
<!-- Node2&#45;&gt;Node7 -->
<g id="edge6" class="edge">
<title>Node2&#45;&gt;Node7</title>
<path fill="none" stroke="midnightblue" d="M421.54,-451.88C409.69,-442.01 395.8,-430.43 385.18,-421.58"/>
<polygon fill="midnightblue" stroke="midnightblue" points="419.44,-454.68 429.36,-458.4 423.92,-449.31 419.44,-454.68"/>
</g>
<!-- Node9 -->
<g id="node9" class="node">
<title>Node9</title>
<g id="a_node9"><a xlink:href="Z2SeqMgr_8h.html" target="_top" xlink:title=" ">
<polygon fill="white" stroke="black" points="200.28,-391.5 200.28,-421.5 300.28,-421.5 300.28,-391.5 200.28,-391.5"/>
<text text-anchor="start" x="208.28" y="-409.5" font-family="Helvetica,sans-Serif" font-size="10.00">include/Z2AudioLib</text>
<text text-anchor="middle" x="250.28" y="-398.5" font-family="Helvetica,sans-Serif" font-size="10.00">/Z2SeqMgr.h</text>
</a>
</g>
</g>
<!-- Node2&#45;&gt;Node9 -->
<g id="edge9" class="edge">
<title>Node2&#45;&gt;Node9</title>
<path fill="none" stroke="midnightblue" d="M394.2,-455.23C362.5,-444.71 322.51,-431.45 292.73,-421.58"/>
<polygon fill="midnightblue" stroke="midnightblue" points="393.16,-458.57 403.76,-458.4 395.37,-451.93 393.16,-458.57"/>
</g>
<!-- Node12 -->
<g id="node12" class="node">
<title>Node12</title>
<g id="a_node12"><a xlink:href="Z2SoundHandles_8h.html" target="_top" xlink:title=" ">
<polygon fill="white" stroke="black" points="838.28,-391.5 838.28,-421.5 940.28,-421.5 940.28,-391.5 838.28,-391.5"/>
<text text-anchor="start" x="846.28" y="-409.5" font-family="Helvetica,sans-Serif" font-size="10.00">include/Z2AudioLib</text>
<text text-anchor="middle" x="889.28" y="-398.5" font-family="Helvetica,sans-Serif" font-size="10.00">/Z2SoundHandles.h</text>
</a>
</g>
</g>
<!-- Node2&#45;&gt;Node12 -->
<g id="edge13" class="edge">
<title>Node2&#45;&gt;Node12</title>
<path fill="none" stroke="midnightblue" d="M520.36,-461.63C610.4,-448.42 759.94,-426.48 838.12,-415.01"/>
<polygon fill="midnightblue" stroke="midnightblue" points="519.61,-458.2 510.23,-463.12 520.63,-465.13 519.61,-458.2"/>
</g>
<!-- Node32 -->
<g id="node32" class="node">
<title>Node32</title>
<g id="a_node32"><a xlink:href="Z2SeMgr_8h.html" target="_top" xlink:title=" ">
<polygon fill="white" stroke="black" points="474.28,-391.5 474.28,-421.5 574.28,-421.5 574.28,-391.5 474.28,-391.5"/>
<text text-anchor="start" x="482.28" y="-409.5" font-family="Helvetica,sans-Serif" font-size="10.00">include/Z2AudioLib</text>
<text text-anchor="middle" x="524.28" y="-398.5" font-family="Helvetica,sans-Serif" font-size="10.00">/Z2SeMgr.h</text>
</a>
</g>
</g>
<!-- Node2&#45;&gt;Node32 -->
<g id="edge38" class="edge">
<title>Node2&#45;&gt;Node32</title>
<path fill="none" stroke="midnightblue" d="M471.02,-451.88C482.88,-442.01 496.77,-430.43 507.39,-421.58"/>
<polygon fill="midnightblue" stroke="midnightblue" points="468.65,-449.31 463.21,-458.4 473.13,-454.68 468.65,-449.31"/>
</g>
<!-- Node34 -->
<g id="node34" class="node">
<title>Node34</title>
<g id="a_node34"><a xlink:href="Z2SoundStarter_8h.html" target="_top" xlink:title=" ">
<polygon fill="white" stroke="black" points="623.28,-391.5 623.28,-421.5 723.28,-421.5 723.28,-391.5 623.28,-391.5"/>
<text text-anchor="start" x="631.28" y="-409.5" font-family="Helvetica,sans-Serif" font-size="10.00">include/Z2AudioLib</text>
<text text-anchor="middle" x="673.28" y="-398.5" font-family="Helvetica,sans-Serif" font-size="10.00">/Z2SoundStarter.h</text>
</a>
</g>
</g>
<!-- Node2&#45;&gt;Node34 -->
<g id="edge41" class="edge">
<title>Node2&#45;&gt;Node34</title>
<path fill="none" stroke="midnightblue" d="M504.9,-455.71C541.84,-445.14 589,-431.63 624,-421.61"/>
<polygon fill="midnightblue" stroke="midnightblue" points="503.91,-452.36 495.26,-458.48 505.84,-459.09 503.91,-452.36"/>
</g>
<!-- Node5 -->
<g id="node5" class="node">
<title>Node5</title>
<g id="a_node5"><a xlink:href="d__save_8cpp.html" target="_top" xlink:title=" ">
<polygon fill="white" stroke="black" points="340.78,-67.5 340.78,-86.5 455.78,-86.5 455.78,-67.5 340.78,-67.5"/>
<text text-anchor="middle" x="398.28" y="-74.5" font-family="Helvetica,sans-Serif" font-size="10.00">src/d/save/d_save.cpp</text>
</a>
</g>
</g>
<!-- Node4&#45;&gt;Node5 -->
<g id="edge4" class="edge">
<title>Node4&#45;&gt;Node5</title>
<path fill="none" stroke="midnightblue" d="M366.57,-319.96C352.09,-312.21 337.66,-301.73 328.28,-288 311.31,-263.13 320.51,-251.03 318.28,-221 314.93,-175.83 319.72,-159.69 346.28,-123 357.07,-108.11 373.69,-94.85 385.23,-86.65"/>
<polygon fill="midnightblue" stroke="midnightblue" points="365.03,-323.1 375.54,-324.43 368.16,-316.84 365.03,-323.1"/>
</g>
<!-- Node6 -->
<g id="node6" class="node">
<title>Node6</title>
<g id="a_node6"><a xlink:href="Z2AudioMgr_8cpp.html" target="_top" xlink:title=" ">
<polygon fill="white" stroke="black" points="337.28,-263 337.28,-282 495.28,-282 495.28,-263 337.28,-263"/>
<text text-anchor="middle" x="416.28" y="-270" font-family="Helvetica,sans-Serif" font-size="10.00">libs/Z2AudioLib/Z2AudioMgr.cpp</text>
</a>
</g>
</g>
<!-- Node4&#45;&gt;Node6 -->
<g id="edge5" class="edge">
<title>Node4&#45;&gt;Node6</title>
<path fill="none" stroke="midnightblue" d="M416.28,-314.25C416.28,-303.02 416.28,-290.38 416.28,-282.19"/>
<polygon fill="midnightblue" stroke="midnightblue" points="412.78,-314.4 416.28,-324.4 419.78,-314.4 412.78,-314.4"/>
</g>
<!-- Node7&#45;&gt;Node4 -->
<g id="edge8" class="edge">
<title>Node7&#45;&gt;Node4</title>
<path fill="none" stroke="midnightblue" d="M384.78,-383.16C391.78,-373.68 399.73,-362.92 405.89,-354.58"/>
<polygon fill="midnightblue" stroke="midnightblue" points="381.82,-381.27 378.7,-391.4 387.46,-385.43 381.82,-381.27"/>
</g>
<!-- Node8 -->
<g id="node8" class="node">
<title>Node8</title>
<g id="a_node8"><a xlink:href="Z2SceneMgr_8cpp.html" target="_top" xlink:title=" ">
<polygon fill="white" stroke="black" points="186.78,-330 186.78,-349 347.78,-349 347.78,-330 186.78,-330"/>
<text text-anchor="middle" x="267.28" y="-337" font-family="Helvetica,sans-Serif" font-size="10.00">libs/Z2AudioLib/Z2SceneMgr.cpp</text>
</a>
</g>
</g>
<!-- Node7&#45;&gt;Node8 -->
<g id="edge7" class="edge">
<title>Node7&#45;&gt;Node8</title>
<path fill="none" stroke="midnightblue" d="M337.95,-385.97C318.79,-373.65 295.01,-358.35 280.5,-349.01"/>
<polygon fill="midnightblue" stroke="midnightblue" points="336.07,-388.93 346.37,-391.4 339.85,-383.04 336.07,-388.93"/>
</g>
<!-- Node9&#45;&gt;Node4 -->
<g id="edge12" class="edge">
<title>Node9&#45;&gt;Node4</title>
<path fill="none" stroke="midnightblue" d="M295.79,-387.68C322.41,-377.26 355.55,-364.28 380.34,-354.58"/>
<polygon fill="midnightblue" stroke="midnightblue" points="294.34,-384.49 286.3,-391.4 296.89,-391.01 294.34,-384.49"/>
</g>
<!-- Node10 -->
<g id="node10" class="node">
<title>Node10</title>
<g id="a_node10"><a xlink:href="Z2SeqMgr_8cpp.html" target="_top" xlink:title=" ">
<polygon fill="white" stroke="black" points="18.28,-330 18.28,-349 168.28,-349 168.28,-330 18.28,-330"/>
<text text-anchor="middle" x="93.28" y="-337" font-family="Helvetica,sans-Serif" font-size="10.00">libs/Z2AudioLib/Z2SeqMgr.cpp</text>
</a>
</g>
</g>
<!-- Node9&#45;&gt;Node10 -->
<g id="edge10" class="edge">
<title>Node9&#45;&gt;Node10</title>
<path fill="none" stroke="midnightblue" d="M206.71,-387.46C176.37,-374.9 137.3,-358.72 113.83,-349.01"/>
<polygon fill="midnightblue" stroke="midnightblue" points="205.64,-390.8 216.22,-391.4 208.32,-384.34 205.64,-390.8"/>
</g>
<!-- Node11 -->
<g id="node11" class="node">
<title>Node11</title>
<g id="a_node11"><a xlink:href="Z2SoundObjMgr_8cpp.html" target="_top" xlink:title=" ">
<polygon fill="white" stroke="black" points="355.78,-123.5 355.78,-153.5 496.78,-153.5 496.78,-123.5 355.78,-123.5"/>
<text text-anchor="start" x="363.78" y="-141.5" font-family="Helvetica,sans-Serif" font-size="10.00">libs/Z2AudioLib/Z2SoundObj</text>
<text text-anchor="middle" x="426.28" y="-130.5" font-family="Helvetica,sans-Serif" font-size="10.00">Mgr.cpp</text>
</a>
</g>
</g>
<!-- Node9&#45;&gt;Node11 -->
<g id="edge11" class="edge">
<title>Node9&#45;&gt;Node11</title>
<path fill="none" stroke="midnightblue" d="M190.59,-391.07C190.49,-391.04 190.39,-391.02 190.28,-391 106.51,-372.55 -37.52,-395.89 9.28,-324 86.28,-205.74 258.22,-162.72 355.56,-147.49"/>
<polygon fill="midnightblue" stroke="midnightblue" points="189.7,-394.46 200.23,-393.24 191.24,-387.63 189.7,-394.46"/>
</g>
<!-- Node13 -->
<g id="node13" class="node">
<title>Node13</title>
<g id="a_node13"><a xlink:href="Z2SoundHandles_8cpp.html" target="_top" xlink:title=" ">
<polygon fill="white" stroke="black" points="957.28,-330 957.28,-349 1137.28,-349 1137.28,-330 957.28,-330"/>
<text text-anchor="middle" x="1047.28" y="-337" font-family="Helvetica,sans-Serif" font-size="10.00">libs/Z2AudioLib/Z2SoundHandles.cpp</text>
</a>
</g>
</g>
<!-- Node12&#45;&gt;Node13 -->
<g id="edge14" class="edge">
<title>Node12&#45;&gt;Node13</title>
<path fill="none" stroke="midnightblue" d="M933.14,-387.46C963.67,-374.9 1002.99,-358.72 1026.61,-349.01"/>
<polygon fill="midnightblue" stroke="midnightblue" points="931.48,-384.35 923.57,-391.4 934.15,-390.83 931.48,-384.35"/>
</g>
<!-- Node14 -->
<g id="node14" class="node">
<title>Node14</title>
<g id="a_node14"><a xlink:href="Z2SoundObject_8h.html" target="_top" xlink:title=" ">
<polygon fill="white" stroke="black" points="839.28,-324.5 839.28,-354.5 939.28,-354.5 939.28,-324.5 839.28,-324.5"/>
<text text-anchor="start" x="847.28" y="-342.5" font-family="Helvetica,sans-Serif" font-size="10.00">include/Z2AudioLib</text>
<text text-anchor="middle" x="889.28" y="-331.5" font-family="Helvetica,sans-Serif" font-size="10.00">/Z2SoundObject.h</text>
</a>
</g>
</g>
<!-- Node12&#45;&gt;Node14 -->
<g id="edge15" class="edge">
<title>Node12&#45;&gt;Node14</title>
<path fill="none" stroke="midnightblue" d="M889.28,-381.11C889.28,-372.15 889.28,-362.32 889.28,-354.58"/>
<polygon fill="midnightblue" stroke="midnightblue" points="885.78,-381.4 889.28,-391.4 892.78,-381.4 885.78,-381.4"/>
</g>
<!-- Node15 -->
<g id="node15" class="node">
<title>Node15</title>
<g id="a_node15"><a xlink:href="Z2SoundObject_8cpp.html" target="_top" xlink:title=" ">
<polygon fill="white" stroke="black" points="967.78,-263 967.78,-282 1140.78,-282 1140.78,-263 967.78,-263"/>
<text text-anchor="middle" x="1054.28" y="-270" font-family="Helvetica,sans-Serif" font-size="10.00">libs/Z2AudioLib/Z2SoundObject.cpp</text>
</a>
</g>
</g>
<!-- Node14&#45;&gt;Node15 -->
<g id="edge16" class="edge">
<title>Node14&#45;&gt;Node15</title>
<path fill="none" stroke="midnightblue" d="M934.67,-320.62C966.61,-308.04 1007.92,-291.77 1032.69,-282.01"/>
<polygon fill="midnightblue" stroke="midnightblue" points="933.11,-317.47 925.09,-324.4 935.67,-323.99 933.11,-317.47"/>
</g>
<!-- Node16 -->
<g id="node16" class="node">
<title>Node16</title>
<g id="a_node16"><a xlink:href="d__bomb_8h.html" target="_top" xlink:title=" ">
<polygon fill="white" stroke="black" points="550.78,-263 550.78,-282 651.78,-282 651.78,-263 550.78,-263"/>
<text text-anchor="middle" x="601.28" y="-270" font-family="Helvetica,sans-Serif" font-size="10.00">include/d/d_bomb.h</text>
</a>
</g>
</g>
<!-- Node14&#45;&gt;Node16 -->
<g id="edge17" class="edge">
<title>Node14&#45;&gt;Node16</title>
<path fill="none" stroke="midnightblue" d="M829,-323.73C757.41,-307.12 685.2,-291.44 641.48,-282.06"/>
<polygon fill="midnightblue" stroke="midnightblue" points="828.56,-327.22 839.09,-326.08 830.15,-320.4 828.56,-327.22"/>
</g>
<!-- Node18 -->
<g id="node18" class="node">
<title>Node18</title>
<g id="a_node18"><a xlink:href="Z2Creature_8h.html" target="_top" xlink:title=" ">
<polygon fill="white" stroke="black" points="714.28,-257.5 714.28,-287.5 814.28,-287.5 814.28,-257.5 714.28,-257.5"/>
<text text-anchor="start" x="722.28" y="-275.5" font-family="Helvetica,sans-Serif" font-size="10.00">include/Z2AudioLib</text>
<text text-anchor="middle" x="764.28" y="-264.5" font-family="Helvetica,sans-Serif" font-size="10.00">/Z2Creature.h</text>
</a>
</g>
</g>
<!-- Node14&#45;&gt;Node18 -->
<g id="edge19" class="edge">
<title>Node14&#45;&gt;Node18</title>
<path fill="none" stroke="midnightblue" d="M853.16,-319.71C833.44,-309.46 809.44,-296.98 791.35,-287.58"/>
<polygon fill="midnightblue" stroke="midnightblue" points="851.67,-322.89 862.16,-324.4 854.9,-316.68 851.67,-322.89"/>
</g>
<!-- Node30 -->
<g id="node30" class="node">
<title>Node30</title>
<g id="a_node30"><a xlink:href="Z2WolfHowlMgr_8h.html" target="_top" xlink:title=" ">
<polygon fill="white" stroke="black" points="849.28,-257.5 849.28,-287.5 949.28,-287.5 949.28,-257.5 849.28,-257.5"/>
<text text-anchor="start" x="857.28" y="-275.5" font-family="Helvetica,sans-Serif" font-size="10.00">include/Z2AudioLib</text>
<text text-anchor="middle" x="899.28" y="-264.5" font-family="Helvetica,sans-Serif" font-size="10.00">/Z2WolfHowlMgr.h</text>
</a>
</g>
</g>
<!-- Node14&#45;&gt;Node30 -->
<g id="edge35" class="edge">
<title>Node14&#45;&gt;Node30</title>
<path fill="none" stroke="midnightblue" d="M892.99,-314.4C894.38,-305.37 895.91,-295.41 897.12,-287.58"/>
<polygon fill="midnightblue" stroke="midnightblue" points="889.52,-313.98 891.45,-324.4 896.43,-315.04 889.52,-313.98"/>
</g>
<!-- Node17 -->
<g id="node17" class="node">
<title>Node17</title>
<g id="a_node17"><a xlink:href="d__bomb_8cpp.html" target="_top" xlink:title=" ">
<polygon fill="white" stroke="black" points="327.28,-196 327.28,-215 421.28,-215 421.28,-196 327.28,-196"/>
<text text-anchor="middle" x="374.28" y="-203" font-family="Helvetica,sans-Serif" font-size="10.00">src/d/d_bomb.cpp</text>
</a>
</g>
</g>
<!-- Node16&#45;&gt;Node17 -->
<g id="edge18" class="edge">
<title>Node16&#45;&gt;Node17</title>
<path fill="none" stroke="midnightblue" d="M561.44,-260.09C516.53,-247.23 444.54,-226.62 404.19,-215.06"/>
<polygon fill="midnightblue" stroke="midnightblue" points="560.56,-263.48 571.14,-262.87 562.49,-256.75 560.56,-263.48"/>
</g>
<!-- Node19 -->
<g id="node19" class="node">
<title>Node19</title>
<g id="a_node19"><a xlink:href="Z2Creature_8cpp.html" target="_top" xlink:title=" ">
<polygon fill="white" stroke="black" points="687.78,-196 687.78,-215 840.78,-215 840.78,-196 687.78,-196"/>
<text text-anchor="middle" x="764.28" y="-203" font-family="Helvetica,sans-Serif" font-size="10.00">libs/Z2AudioLib/Z2Creature.cpp</text>
</a>
</g>
</g>
<!-- Node18&#45;&gt;Node19 -->
<g id="edge20" class="edge">
<title>Node18&#45;&gt;Node19</title>
<path fill="none" stroke="midnightblue" d="M764.28,-247.25C764.28,-236.02 764.28,-223.38 764.28,-215.19"/>
<polygon fill="midnightblue" stroke="midnightblue" points="760.78,-247.4 764.28,-257.4 767.78,-247.4 760.78,-247.4"/>
</g>
<!-- Node20 -->
<g id="node20" class="node">
<title>Node20</title>
<g id="a_node20"><a xlink:href="d__a__horse__static_8h.html" target="_top" xlink:title=" ">
<polygon fill="white" stroke="black" points="557.28,-190.5 557.28,-220.5 669.28,-220.5 669.28,-190.5 557.28,-190.5"/>
<text text-anchor="start" x="565.28" y="-208.5" font-family="Helvetica,sans-Serif" font-size="10.00">include/d/a/d_a_horse</text>
<text text-anchor="middle" x="613.28" y="-197.5" font-family="Helvetica,sans-Serif" font-size="10.00">_static.h</text>
</a>
</g>
</g>
<!-- Node18&#45;&gt;Node20 -->
<g id="edge21" class="edge">
<title>Node18&#45;&gt;Node20</title>
<path fill="none" stroke="midnightblue" d="M722.25,-253.41C698.15,-243.03 668.33,-230.2 645.99,-220.58"/>
<polygon fill="midnightblue" stroke="midnightblue" points="720.95,-256.66 731.52,-257.4 723.72,-250.23 720.95,-256.66"/>
</g>
<!-- Node22 -->
<g id="node22" class="node">
<title>Node22</title>
<g id="a_node22"><a xlink:href="d__a__alink_8h.html" target="_top" xlink:title=" ">
<polygon fill="white" stroke="black" points="859.28,-196 859.28,-215 975.28,-215 975.28,-196 859.28,-196"/>
<text text-anchor="middle" x="917.28" y="-203" font-family="Helvetica,sans-Serif" font-size="10.00">include/d/a/d_a_alink.h</text>
</a>
</g>
</g>
<!-- Node18&#45;&gt;Node22 -->
<g id="edge23" class="edge">
<title>Node18&#45;&gt;Node22</title>
<path fill="none" stroke="midnightblue" d="M806.75,-253.46C836.31,-240.9 874.39,-224.72 897.26,-215.01"/>
<polygon fill="midnightblue" stroke="midnightblue" points="805.32,-250.26 797.48,-257.4 808.06,-256.71 805.32,-250.26"/>
</g>
<!-- Node29 -->
<g id="node29" class="node">
<title>Node29</title>
<g id="a_node29"><a xlink:href="Z2SoundObjMgr_8h.html" target="_top" xlink:title=" ">
<polygon fill="white" stroke="black" points="439.28,-190.5 439.28,-220.5 539.28,-220.5 539.28,-190.5 439.28,-190.5"/>
<text text-anchor="start" x="447.28" y="-208.5" font-family="Helvetica,sans-Serif" font-size="10.00">include/Z2AudioLib</text>
<text text-anchor="middle" x="489.28" y="-197.5" font-family="Helvetica,sans-Serif" font-size="10.00">/Z2SoundObjMgr.h</text>
</a>
</g>
</g>
<!-- Node18&#45;&gt;Node29 -->
<g id="edge33" class="edge">
<title>Node18&#45;&gt;Node29</title>
<path fill="none" stroke="midnightblue" d="M704.23,-257.65C660.87,-247.61 600.92,-233.62 548.28,-221 545.41,-220.31 542.46,-219.6 539.49,-218.88"/>
<polygon fill="midnightblue" stroke="midnightblue" points="703.52,-261.08 714.05,-259.93 705.1,-254.26 703.52,-261.08"/>
</g>
<!-- Node21 -->
<g id="node21" class="node">
<title>Node21</title>
<g id="a_node21"><a xlink:href="d__a__horse__static_8cpp.html" target="_top" xlink:title=" ">
<polygon fill="white" stroke="black" points="542.28,-129 542.28,-148 684.28,-148 684.28,-129 542.28,-129"/>
<text text-anchor="middle" x="613.28" y="-136" font-family="Helvetica,sans-Serif" font-size="10.00">src/d/a/d_a_horse_static.cpp</text>
</a>
</g>
</g>
<!-- Node20&#45;&gt;Node21 -->
<g id="edge22" class="edge">
<title>Node20&#45;&gt;Node21</title>
<path fill="none" stroke="midnightblue" d="M613.28,-180.25C613.28,-169.02 613.28,-156.38 613.28,-148.19"/>
<polygon fill="midnightblue" stroke="midnightblue" points="609.78,-180.4 613.28,-190.4 616.78,-180.4 609.78,-180.4"/>
</g>
<!-- Node23 -->
<g id="node23" class="node">
<title>Node23</title>
<g id="a_node23"><a xlink:href="d__a__alink_8cpp.html" target="_top" xlink:title=" ">
<polygon fill="white" stroke="black" points="862.78,-67.5 862.78,-86.5 971.78,-86.5 971.78,-67.5 862.78,-67.5"/>
<text text-anchor="middle" x="917.28" y="-74.5" font-family="Helvetica,sans-Serif" font-size="10.00">src/d/a/d_a_alink.cpp</text>
</a>
</g>
</g>
<!-- Node22&#45;&gt;Node23 -->
<g id="edge24" class="edge">
<title>Node22&#45;&gt;Node23</title>
<path fill="none" stroke="midnightblue" d="M917.28,-185.44C917.28,-157.62 917.28,-107.04 917.28,-86.76"/>
<polygon fill="midnightblue" stroke="midnightblue" points="913.78,-185.81 917.28,-195.81 920.78,-185.81 913.78,-185.81"/>
</g>
<!-- Node24 -->
<g id="node24" class="node">
<title>Node24</title>
<g id="a_node24"><a xlink:href="d__com__inf__game_8h.html" target="_top" xlink:title=" ">
<polygon fill="white" stroke="black" points="741.28,-123.5 741.28,-153.5 851.28,-153.5 851.28,-123.5 741.28,-123.5"/>
<text text-anchor="start" x="749.28" y="-141.5" font-family="Helvetica,sans-Serif" font-size="10.00">include/d/com/d_com</text>
<text text-anchor="middle" x="796.28" y="-130.5" font-family="Helvetica,sans-Serif" font-size="10.00">_inf_game.h</text>
</a>
</g>
</g>
<!-- Node22&#45;&gt;Node24 -->
<g id="edge25" class="edge">
<title>Node22&#45;&gt;Node24</title>
<path fill="none" stroke="midnightblue" d="M891.97,-190.9C871.61,-179.97 843.11,-164.65 822.51,-153.59"/>
<polygon fill="midnightblue" stroke="midnightblue" points="890.5,-194.08 900.97,-195.73 893.81,-187.92 890.5,-194.08"/>
</g>
<!-- Node24&#45;&gt;Node5 -->
<g id="edge29" class="edge">
<title>Node24&#45;&gt;Node5</title>
<path fill="none" stroke="midnightblue" d="M730.92,-127.73C654.24,-116.26 528.34,-97.44 455.41,-86.54"/>
<polygon fill="midnightblue" stroke="midnightblue" points="730.54,-131.21 740.94,-129.23 731.57,-124.29 730.54,-131.21"/>
</g>
<!-- Node24&#45;&gt;Node23 -->
<g id="edge27" class="edge">
<title>Node24&#45;&gt;Node23</title>
<path fill="none" stroke="midnightblue" d="M834.03,-118.94C855.95,-108.16 882.54,-95.08 899.68,-86.66"/>
<polygon fill="midnightblue" stroke="midnightblue" points="832.39,-115.85 824.96,-123.4 835.48,-122.13 832.39,-115.85"/>
</g>
<!-- Node25 -->
<g id="node25" class="node">
<title>Node25</title>
<g id="a_node25"><a xlink:href="d__com__inf__game_8cpp.html" target="_top" xlink:title=" ">
<polygon fill="white" stroke="black" points="731.28,-0.5 731.28,-30.5 839.28,-30.5 839.28,-0.5 731.28,-0.5"/>
<text text-anchor="start" x="739.28" y="-18.5" font-family="Helvetica,sans-Serif" font-size="10.00">src/d/com/d_com_inf</text>
<text text-anchor="middle" x="785.28" y="-7.5" font-family="Helvetica,sans-Serif" font-size="10.00">_game.cpp</text>
</a>
</g>
</g>
<!-- Node24&#45;&gt;Node25 -->
<g id="edge26" class="edge">
<title>Node24&#45;&gt;Node25</title>
<path fill="none" stroke="midnightblue" d="M808.9,-114.23C814.78,-100.48 819.61,-82.74 815.28,-67 811.61,-53.63 803.37,-40.21 796.46,-30.57"/>
<polygon fill="midnightblue" stroke="midnightblue" points="805.66,-112.91 804.56,-123.44 811.99,-115.89 805.66,-112.91"/>
</g>
<!-- Node26 -->
<g id="node26" class="node">
<title>Node26</title>
<g id="a_node26"><a xlink:href="d__event_8cpp.html" target="_top" xlink:title=" ">
<polygon fill="white" stroke="black" points="684.78,-67.5 684.78,-86.5 805.78,-86.5 805.78,-67.5 684.78,-67.5"/>
<text text-anchor="middle" x="745.28" y="-74.5" font-family="Helvetica,sans-Serif" font-size="10.00">src/d/event/d_event.cpp</text>
</a>
</g>
</g>
<!-- Node24&#45;&gt;Node26 -->
<g id="edge28" class="edge">
<title>Node24&#45;&gt;Node26</title>
<path fill="none" stroke="midnightblue" d="M777.6,-115.7C768.97,-105.64 759.22,-94.26 752.71,-86.66"/>
<polygon fill="midnightblue" stroke="midnightblue" points="775.03,-118.08 784.2,-123.4 780.35,-113.53 775.03,-118.08"/>
</g>
<!-- Node27 -->
<g id="node27" class="node">
<title>Node27</title>
<g id="a_node27"><a xlink:href="d__item_8h.html" target="_top" xlink:title=" ">
<polygon fill="white" stroke="black" points="571.78,-67.5 571.78,-86.5 666.78,-86.5 666.78,-67.5 571.78,-67.5"/>
<text text-anchor="middle" x="619.28" y="-74.5" font-family="Helvetica,sans-Serif" font-size="10.00">include/d/d_item.h</text>
</a>
</g>
</g>
<!-- Node24&#45;&gt;Node27 -->
<g id="edge30" class="edge">
<title>Node24&#45;&gt;Node27</title>
<path fill="none" stroke="midnightblue" d="M744.45,-120.08C711.66,-109.05 670.72,-95.29 644.78,-86.57"/>
<polygon fill="midnightblue" stroke="midnightblue" points="743.74,-123.53 754.34,-123.4 745.97,-116.9 743.74,-123.53"/>
</g>
<!-- Node27&#45;&gt;Node25 -->
<g id="edge31" class="edge">
<title>Node27&#45;&gt;Node25</title>
<path fill="none" stroke="midnightblue" d="M652.83,-63.98C679.82,-54.3 717.79,-40.69 746.16,-30.52"/>
<polygon fill="midnightblue" stroke="midnightblue" points="651.3,-60.81 643.07,-67.48 653.66,-67.4 651.3,-60.81"/>
</g>
<!-- Node28 -->
<g id="node28" class="node">
<title>Node28</title>
<g id="a_node28"><a xlink:href="d__item_8cpp.html" target="_top" xlink:title=" ">
<polygon fill="white" stroke="black" points="574.78,-6 574.78,-25 663.78,-25 663.78,-6 574.78,-6"/>
<text text-anchor="middle" x="619.28" y="-13" font-family="Helvetica,sans-Serif" font-size="10.00">src/d/d_item.cpp</text>
</a>
</g>
</g>
<!-- Node27&#45;&gt;Node28 -->
<g id="edge32" class="edge">
<title>Node27&#45;&gt;Node28</title>
<path fill="none" stroke="midnightblue" d="M619.28,-57.32C619.28,-46.5 619.28,-33.4 619.28,-25.01"/>
<polygon fill="midnightblue" stroke="midnightblue" points="615.78,-57.48 619.28,-67.48 622.78,-57.48 615.78,-57.48"/>
</g>
<!-- Node29&#45;&gt;Node11 -->
<g id="edge34" class="edge">
<title>Node29&#45;&gt;Node11</title>
<path fill="none" stroke="midnightblue" d="M468.47,-183.02C459.08,-173.34 448.26,-162.17 439.93,-153.58"/>
<polygon fill="midnightblue" stroke="midnightblue" points="466.14,-185.65 475.61,-190.4 471.17,-180.78 466.14,-185.65"/>
</g>
<!-- Node30&#45;&gt;Node22 -->
<g id="edge37" class="edge">
<title>Node30&#45;&gt;Node22</title>
<path fill="none" stroke="midnightblue" d="M905.9,-247.6C909.04,-236.28 912.59,-223.46 914.88,-215.19"/>
<polygon fill="midnightblue" stroke="midnightblue" points="902.49,-246.82 903.19,-257.4 909.23,-248.69 902.49,-246.82"/>
</g>
<!-- Node31 -->
<g id="node31" class="node">
<title>Node31</title>
<g id="a_node31"><a xlink:href="Z2WolfHowlMgr_8cpp.html" target="_top" xlink:title=" ">
<polygon fill="white" stroke="black" points="993.28,-190.5 993.28,-220.5 1133.28,-220.5 1133.28,-190.5 993.28,-190.5"/>
<text text-anchor="start" x="1001.28" y="-208.5" font-family="Helvetica,sans-Serif" font-size="10.00">libs/Z2AudioLib/Z2WolfHowl</text>
<text text-anchor="middle" x="1063.28" y="-197.5" font-family="Helvetica,sans-Serif" font-size="10.00">Mgr.cpp</text>
</a>
</g>
</g>
<!-- Node30&#45;&gt;Node31 -->
<g id="edge36" class="edge">
<title>Node30&#45;&gt;Node31</title>
<path fill="none" stroke="midnightblue" d="M944.24,-253.68C970.54,-243.26 1003.28,-230.28 1027.77,-220.58"/>
<polygon fill="midnightblue" stroke="midnightblue" points="942.88,-250.46 934.87,-257.4 945.46,-256.97 942.88,-250.46"/>
</g>
<!-- Node32&#45;&gt;Node4 -->
<g id="edge40" class="edge">
<title>Node32&#45;&gt;Node4</title>
<path fill="none" stroke="midnightblue" d="M491.91,-386.02C475.1,-375.9 454.95,-363.77 439.67,-354.58"/>
<polygon fill="midnightblue" stroke="midnightblue" points="490.48,-389.24 500.85,-391.4 494.09,-383.24 490.48,-389.24"/>
</g>
<!-- Node33 -->
<g id="node33" class="node">
<title>Node33</title>
<g id="a_node33"><a xlink:href="Z2SeMgr_8cpp.html" target="_top" xlink:title=" ">
<polygon fill="white" stroke="black" points="484.78,-330 484.78,-349 629.78,-349 629.78,-330 484.78,-330"/>
<text text-anchor="middle" x="557.28" y="-337" font-family="Helvetica,sans-Serif" font-size="10.00">libs/Z2AudioLib/Z2SeMgr.cpp</text>
</a>
</g>
</g>
<!-- Node32&#45;&gt;Node33 -->
<g id="edge39" class="edge">
<title>Node32&#45;&gt;Node33</title>
<path fill="none" stroke="midnightblue" d="M536.07,-382.29C541.9,-370.8 548.59,-357.63 552.87,-349.19"/>
<polygon fill="midnightblue" stroke="midnightblue" points="532.85,-380.89 531.45,-391.4 539.09,-384.06 532.85,-380.89"/>
</g>
<!-- Node34&#45;&gt;Node4 -->
<g id="edge43" class="edge">
<title>Node34&#45;&gt;Node4</title>
<path fill="none" stroke="midnightblue" d="M613.27,-390.32C568.62,-379.03 508.38,-363.79 466.32,-353.15"/>
<polygon fill="midnightblue" stroke="midnightblue" points="612.57,-393.75 623.12,-392.81 614.29,-386.97 612.57,-393.75"/>
</g>
<!-- Node34&#45;&gt;Node14 -->
<g id="edge44" class="edge">
<title>Node34&#45;&gt;Node14</title>
<path fill="none" stroke="midnightblue" d="M729.51,-388.58C764.59,-378.02 809.22,-364.59 842.39,-354.61"/>
<polygon fill="midnightblue" stroke="midnightblue" points="728.45,-385.24 719.89,-391.48 730.47,-391.95 728.45,-385.24"/>
</g>
<!-- Node35 -->
<g id="node35" class="node">
<title>Node35</title>
<g id="a_node35"><a xlink:href="Z2SoundStarter_8cpp.html" target="_top" xlink:title=" ">
<polygon fill="white" stroke="black" points="647.78,-330 647.78,-349 820.78,-349 820.78,-330 647.78,-330"/>
<text text-anchor="middle" x="734.28" y="-337" font-family="Helvetica,sans-Serif" font-size="10.00">libs/Z2AudioLib/Z2SoundStarter.cpp</text>
</a>
</g>
</g>
<!-- Node34&#45;&gt;Node35 -->
<g id="edge42" class="edge">
<title>Node34&#45;&gt;Node35</title>
<path fill="none" stroke="midnightblue" d="M693.46,-384C704.6,-372.13 717.81,-358.05 726.13,-349.19"/>
<polygon fill="midnightblue" stroke="midnightblue" points="690.81,-381.71 686.52,-391.4 695.92,-386.5 690.81,-381.71"/>
</g>
</g>
</svg>
        <g id="navigator" transform="translate(0 0)" fill="#404254">
                <rect fill="#f2f5e9" fill-opacity="0.5" stroke="#606060" stroke-width=".5" x="0" y="0" width="60" height="60"/>
                <use id="zoomplus" xlink:href="#zoomPlus" x="17" y="9" onmousedown="handleZoom(evt,'in')"/>
                <use id="zoomminus" xlink:href="#zoomMin" x="42" y="9" onmousedown="handleZoom(evt,'out')"/>
                <use id="reset" xlink:href="#resetDef" x="30" y="36" onmousedown="handleReset()"/>
                <g id="arrowUp" xlink:href="#dirArrow" transform="translate(30 24)" onmousedown="handlePan(0,-1)">
                  <use xlink:href="#rim" fill="#404040">
                        <set attributeName="fill" to="#808080" begin="arrowUp.mouseover" end="arrowUp.mouseout"/>
                  </use>
                  <path fill="none" stroke="white" stroke-width="1.5" d="M0,-3.0v7 M-2.5,-0.5L0,-3.0L2.5,-0.5"/>
                </g>
                <g id="arrowRight" xlink:href="#dirArrow" transform="rotate(90) translate(36 -43)" onmousedown="handlePan(1,0)">
                  <use xlink:href="#rim" fill="#404040">
                        <set attributeName="fill" to="#808080" begin="arrowRight.mouseover" end="arrowRight.mouseout"/>
                  </use>
                  <path fill="none" stroke="white" stroke-width="1.5" d="M0,-3.0v7 M-2.5,-0.5L0,-3.0L2.5,-0.5"/>
                </g>
                <g id="arrowDown" xlink:href="#dirArrow" transform="rotate(180) translate(-30 -48)" onmousedown="handlePan(0,1)">
                  <use xlink:href="#rim" fill="#404040">
                        <set attributeName="fill" to="#808080" begin="arrowDown.mouseover" end="arrowDown.mouseout"/>
                  </use>
                  <path fill="none" stroke="white" stroke-width="1.5" d="M0,-3.0v7 M-2.5,-0.5L0,-3.0L2.5,-0.5"/>
                </g>
                <g id="arrowLeft" xlink:href="#dirArrow" transform="rotate(270) translate(-36 17)" onmousedown="handlePan(-1,0)">
                  <use xlink:href="#rim" fill="#404040">
                        <set attributeName="fill" to="#808080" begin="arrowLeft.mouseover" end="arrowLeft.mouseout"/>
                  </use>
                  <path fill="none" stroke="white" stroke-width="1.5" d="M0,-3.0v7 M-2.5,-0.5L0,-3.0L2.5,-0.5"/>
                </g>
        </g>
        <svg viewBox="0 0 15 15" width="100%" height="30px" preserveAspectRatio="xMaxYMin meet">
         <g id="arrow_out" transform="scale(0.3 0.3)">
          <a xlink:href="JGeometry_8h__dep__incl_org.svg" target="_base">
           <rect id="button" ry="5" rx="5" y="6" x="6" height="38" width="38"
                fill="#f2f5e9" fill-opacity="0.5" stroke="#606060" stroke-width="1.0"/>
           <path id="arrow"
             d="M 11.500037,31.436501 C 11.940474,20.09759 22.043105,11.32322 32.158766,21.979434 L 37.068811,17.246167 C 37.068811,17.246167 37.088388,32 37.088388,32 L 22.160133,31.978069 C 22.160133,31.978069 26.997745,27.140456 26.997745,27.140456 C 18.528582,18.264221 13.291696,25.230495 11.500037,31.436501 z"
             style="fill:#404040;"/>
          </a>
         </g>
        </svg>
</svg>
