<?xml version="1.0" encoding="UTF-8" standalone="no"?>
<!DOCTYPE svg PUBLIC "-//W3C//DTD SVG 1.1//EN"
 "http://www.w3.org/Graphics/SVG/1.1/DTD/svg11.dtd">
<!-- Generated by graphviz version 2.44.0 ()
 -->
<!-- Title: libs/JSystem/JKernel/JKRArchivePri.cpp Pages: 1 -->
<svg width="1027pt" height="431pt"
 viewBox="0.00 0.00 1026.50 431.00" xmlns="http://www.w3.org/2000/svg" xmlns:xlink="http://www.w3.org/1999/xlink">
<g id="graph0" class="graph" transform="scale(1 1) rotate(0) translate(4 427)">
<title>libs/JSystem/JKernel/JKRArchivePri.cpp</title>
<polygon fill="white" stroke="transparent" points="-4,4 -4,-427 1022.5,-427 1022.5,4 -4,4"/>
<!-- Node1 -->
<g id="node1" class="node">
<title>Node1</title>
<g id="a_node1"><a xlink:title=" ">
<polygon fill="#bfbfbf" stroke="black" points="827.5,-392.5 827.5,-422.5 936.5,-422.5 936.5,-392.5 827.5,-392.5"/>
<text text-anchor="start" x="835.5" y="-410.5" font-family="Helvetica,sans-Serif" font-size="10.00">libs/JSystem/JKernel</text>
<text text-anchor="middle" x="882" y="-399.5" font-family="Helvetica,sans-Serif" font-size="10.00">/JKRArchivePri.cpp</text>
</a>
</g>
</g>
<!-- Node2 -->
<g id="node2" class="node">
<title>Node2</title>
<g id="a_node2"><a xlink:href="JKRArchive_8h.html" target="_top" xlink:title=" ">
<polygon fill="white" stroke="black" points="391.5,-336.5 391.5,-355.5 544.5,-355.5 544.5,-336.5 391.5,-336.5"/>
<text text-anchor="middle" x="468" y="-343.5" font-family="Helvetica,sans-Serif" font-size="10.00">JSystem/JKernel/JKRArchive.h</text>
</a>
</g>
</g>
<!-- Node1&#45;&gt;Node2 -->
<g id="edge1" class="edge">
<title>Node1&#45;&gt;Node2</title>
<path fill="none" stroke="midnightblue" d="M827.45,-398.66C752.91,-387.95 619.19,-368.73 537.54,-356.99"/>
<polygon fill="midnightblue" stroke="midnightblue" points="537.76,-353.49 527.36,-355.53 536.76,-360.42 537.76,-353.49"/>
</g>
<!-- Node8 -->
<g id="node8" class="node">
<title>Node8</title>
<g id="a_node8"><a xlink:href="types_8h.html" target="_top" xlink:title=" ">
<polygon fill="white" stroke="black" points="482.5,-0.5 482.5,-19.5 563.5,-19.5 563.5,-0.5 482.5,-0.5"/>
<text text-anchor="middle" x="523" y="-7.5" font-family="Helvetica,sans-Serif" font-size="10.00">dolphin/types.h</text>
</a>
</g>
</g>
<!-- Node1&#45;&gt;Node8 -->
<g id="edge37" class="edge">
<title>Node1&#45;&gt;Node8</title>
<path fill="none" stroke="midnightblue" d="M882,-392.28C882,-370.48 882,-327.49 882,-291 882,-291 882,-291 882,-121 882,-71.3 836.91,-75.05 791,-56 719.36,-26.27 629.2,-16.17 573.86,-12.74"/>
<polygon fill="midnightblue" stroke="midnightblue" points="573.79,-9.23 563.61,-12.16 573.39,-16.22 573.79,-9.23"/>
</g>
<!-- Node9 -->
<g id="node9" class="node">
<title>Node9</title>
<g id="a_node9"><a xlink:href="JKRHeap_8h.html" target="_top" xlink:title=" ">
<polygon fill="white" stroke="black" points="672.5,-168.5 672.5,-187.5 815.5,-187.5 815.5,-168.5 672.5,-168.5"/>
<text text-anchor="middle" x="744" y="-175.5" font-family="Helvetica,sans-Serif" font-size="10.00">JSystem/JKernel/JKRHeap.h</text>
</a>
</g>
</g>
<!-- Node1&#45;&gt;Node9 -->
<g id="edge35" class="edge">
<title>Node1&#45;&gt;Node9</title>
<path fill="none" stroke="midnightblue" d="M873.37,-392.27C849.23,-352.48 781.08,-240.13 754.66,-196.57"/>
<polygon fill="midnightblue" stroke="midnightblue" points="757.59,-194.66 749.42,-187.93 751.61,-198.29 757.59,-194.66"/>
</g>
<!-- Node16 -->
<g id="node16" class="node">
<title>Node16</title>
<g id="a_node16"><a xlink:href="dol2asm_8h.html" target="_top" xlink:title=" ">
<polygon fill="white" stroke="black" points="910.5,-336.5 910.5,-355.5 971.5,-355.5 971.5,-336.5 910.5,-336.5"/>
<text text-anchor="middle" x="941" y="-343.5" font-family="Helvetica,sans-Serif" font-size="10.00">dol2asm.h</text>
</a>
</g>
</g>
<!-- Node1&#45;&gt;Node16 -->
<g id="edge36" class="edge">
<title>Node1&#45;&gt;Node16</title>
<path fill="none" stroke="midnightblue" d="M895.98,-392.4C904.73,-383.58 916.03,-372.18 925.12,-363.02"/>
<polygon fill="midnightblue" stroke="midnightblue" points="927.86,-365.22 932.41,-355.66 922.89,-360.29 927.86,-365.22"/>
</g>
<!-- Node17 -->
<g id="node17" class="node">
<title>Node17</title>
<g id="a_node17"><a xlink:href="msl__c_2string_8h.html" target="_top" xlink:title=" ">
<polygon fill="white" stroke="black" points="941.5,-280.5 941.5,-299.5 1018.5,-299.5 1018.5,-280.5 941.5,-280.5"/>
<text text-anchor="middle" x="980" y="-287.5" font-family="Helvetica,sans-Serif" font-size="10.00">msl_c/string.h</text>
</a>
</g>
</g>
<!-- Node1&#45;&gt;Node17 -->
<g id="edge38" class="edge">
<title>Node1&#45;&gt;Node17</title>
<path fill="none" stroke="midnightblue" d="M933.91,-392.44C952.04,-384.77 970.47,-373.19 981,-356 989.47,-342.18 988.12,-323.41 985.3,-309.59"/>
<polygon fill="midnightblue" stroke="midnightblue" points="988.67,-308.64 982.89,-299.76 981.88,-310.31 988.67,-308.64"/>
</g>
<!-- Node3 -->
<g id="node3" class="node">
<title>Node3</title>
<g id="a_node3"><a xlink:href="JKRCompression_8h.html" target="_top" xlink:title=" ">
<polygon fill="white" stroke="black" points="379.5,-224.5 379.5,-243.5 556.5,-243.5 556.5,-224.5 379.5,-224.5"/>
<text text-anchor="middle" x="468" y="-231.5" font-family="Helvetica,sans-Serif" font-size="10.00">JSystem/JKernel/JKRCompression.h</text>
</a>
</g>
</g>
<!-- Node2&#45;&gt;Node3 -->
<g id="edge2" class="edge">
<title>Node2&#45;&gt;Node3</title>
<path fill="none" stroke="midnightblue" d="M468,-336.37C468,-318.62 468,-277.67 468,-253.6"/>
<polygon fill="midnightblue" stroke="midnightblue" points="471.5,-253.59 468,-243.59 464.5,-253.59 471.5,-253.59"/>
</g>
<!-- Node4 -->
<g id="node4" class="node">
<title>Node4</title>
<g id="a_node4"><a xlink:href="JKRDecomp_8h.html" target="_top" xlink:title=" ">
<polygon fill="white" stroke="black" points="532,-280.5 532,-299.5 688,-299.5 688,-280.5 532,-280.5"/>
<text text-anchor="middle" x="610" y="-287.5" font-family="Helvetica,sans-Serif" font-size="10.00">JSystem/JKernel/JKRDecomp.h</text>
</a>
</g>
</g>
<!-- Node2&#45;&gt;Node4 -->
<g id="edge3" class="edge">
<title>Node2&#45;&gt;Node4</title>
<path fill="none" stroke="midnightblue" d="M490.5,-336.44C514.08,-327.48 551.32,-313.31 577.96,-303.18"/>
<polygon fill="midnightblue" stroke="midnightblue" points="579.5,-306.34 587.6,-299.52 577.01,-299.8 579.5,-306.34"/>
</g>
<!-- Node2&#45;&gt;Node9 -->
<g id="edge32" class="edge">
<title>Node2&#45;&gt;Node9</title>
<path fill="none" stroke="midnightblue" d="M544.38,-336.5C601,-329 672.45,-316.68 697,-300 730.91,-276.96 740.36,-225.56 742.99,-197.74"/>
<polygon fill="midnightblue" stroke="midnightblue" points="746.48,-197.95 743.73,-187.72 739.5,-197.43 746.48,-197.95"/>
</g>
<!-- Node12 -->
<g id="node12" class="node">
<title>Node12</title>
<g id="a_node12"><a xlink:href="JKRDvdFile_8h.html" target="_top" xlink:title=" ">
<polygon fill="white" stroke="black" points="208.5,-224.5 208.5,-243.5 361.5,-243.5 361.5,-224.5 208.5,-224.5"/>
<text text-anchor="middle" x="285" y="-231.5" font-family="Helvetica,sans-Serif" font-size="10.00">JSystem/JKernel/JKRDvdFile.h</text>
</a>
</g>
</g>
<!-- Node2&#45;&gt;Node12 -->
<g id="edge21" class="edge">
<title>Node2&#45;&gt;Node12</title>
<path fill="none" stroke="midnightblue" d="M453.64,-336.37C422.1,-317.41 346.56,-272 308.2,-248.94"/>
<polygon fill="midnightblue" stroke="midnightblue" points="309.67,-245.74 299.29,-243.59 306.06,-251.74 309.67,-245.74"/>
</g>
<!-- Node14 -->
<g id="node14" class="node">
<title>Node14</title>
<g id="a_node14"><a xlink:href="JKRFileLoader_8h.html" target="_top" xlink:title=" ">
<polygon fill="white" stroke="black" points="106,-168.5 106,-187.5 272,-187.5 272,-168.5 106,-168.5"/>
<text text-anchor="middle" x="189" y="-175.5" font-family="Helvetica,sans-Serif" font-size="10.00">JSystem/JKernel/JKRFileLoader.h</text>
</a>
</g>
</g>
<!-- Node2&#45;&gt;Node14 -->
<g id="edge28" class="edge">
<title>Node2&#45;&gt;Node14</title>
<path fill="none" stroke="midnightblue" d="M391.48,-337.16C329.86,-326.61 246.02,-301.89 199,-244 188.55,-231.13 186.74,-211.95 187.12,-197.76"/>
<polygon fill="midnightblue" stroke="midnightblue" points="190.62,-197.87 187.79,-187.66 183.64,-197.41 190.62,-197.87"/>
</g>
<!-- Node15 -->
<g id="node15" class="node">
<title>Node15</title>
<g id="a_node15"><a xlink:href="global_8h.html" target="_top" xlink:title=" ">
<polygon fill="white" stroke="black" points="0,-112.5 0,-131.5 50,-131.5 50,-112.5 0,-112.5"/>
<text text-anchor="middle" x="25" y="-119.5" font-family="Helvetica,sans-Serif" font-size="10.00">global.h</text>
</a>
</g>
</g>
<!-- Node2&#45;&gt;Node15 -->
<g id="edge33" class="edge">
<title>Node2&#45;&gt;Node15</title>
<path fill="none" stroke="midnightblue" d="M391.4,-339.1C344.84,-333.37 285.1,-322.1 236,-300 149.18,-260.92 69.76,-175.55 38.76,-139.54"/>
<polygon fill="midnightblue" stroke="midnightblue" points="41.08,-136.87 31.95,-131.51 35.75,-141.4 41.08,-136.87"/>
</g>
<!-- Node4&#45;&gt;Node3 -->
<g id="edge4" class="edge">
<title>Node4&#45;&gt;Node3</title>
<path fill="none" stroke="midnightblue" d="M587.5,-280.44C563.92,-271.48 526.68,-257.31 500.04,-247.18"/>
<polygon fill="midnightblue" stroke="midnightblue" points="500.99,-243.8 490.4,-243.52 498.5,-250.34 500.99,-243.8"/>
</g>
<!-- Node5 -->
<g id="node5" class="node">
<title>Node5</title>
<g id="a_node5"><a xlink:href="JKRThread_8h.html" target="_top" xlink:title=" ">
<polygon fill="white" stroke="black" points="574,-224.5 574,-243.5 724,-243.5 724,-224.5 574,-224.5"/>
<text text-anchor="middle" x="649" y="-231.5" font-family="Helvetica,sans-Serif" font-size="10.00">JSystem/JKernel/JKRThread.h</text>
</a>
</g>
</g>
<!-- Node4&#45;&gt;Node5 -->
<g id="edge5" class="edge">
<title>Node4&#45;&gt;Node5</title>
<path fill="none" stroke="midnightblue" d="M616.44,-280.08C621.95,-272.46 630.03,-261.26 636.76,-251.94"/>
<polygon fill="midnightblue" stroke="midnightblue" points="639.66,-253.91 642.68,-243.75 633.99,-249.81 639.66,-253.91"/>
</g>
<!-- Node4&#45;&gt;Node8 -->
<g id="edge20" class="edge">
<title>Node4&#45;&gt;Node8</title>
<path fill="none" stroke="midnightblue" d="M688.24,-283.95C756.27,-274.8 844,-249.36 844,-179 844,-179 844,-179 844,-121 844,-64.56 664.16,-30.98 573.7,-17.66"/>
<polygon fill="midnightblue" stroke="midnightblue" points="574.05,-14.18 563.65,-16.21 573.05,-21.11 574.05,-14.18"/>
</g>
<!-- Node6 -->
<g id="node6" class="node">
<title>Node6</title>
<g id="a_node6"><a xlink:href="JKRDisposer_8h.html" target="_top" xlink:title=" ">
<polygon fill="white" stroke="black" points="286,-112.5 286,-131.5 444,-131.5 444,-112.5 286,-112.5"/>
<text text-anchor="middle" x="365" y="-119.5" font-family="Helvetica,sans-Serif" font-size="10.00">JSystem/JKernel/JKRDisposer.h</text>
</a>
</g>
</g>
<!-- Node5&#45;&gt;Node6 -->
<g id="edge6" class="edge">
<title>Node5&#45;&gt;Node6</title>
<path fill="none" stroke="midnightblue" d="M621.77,-224.49C594.73,-215.88 552.19,-201.88 516,-188 472.67,-171.37 423.46,-149.64 393.32,-136"/>
<polygon fill="midnightblue" stroke="midnightblue" points="394.42,-132.66 383.87,-131.7 391.52,-139.03 394.42,-132.66"/>
</g>
<!-- Node7 -->
<g id="node7" class="node">
<title>Node7</title>
<g id="a_node7"><a xlink:href="JSUList_8h.html" target="_top" xlink:title=" ">
<polygon fill="white" stroke="black" points="277.5,-56.5 277.5,-75.5 420.5,-75.5 420.5,-56.5 277.5,-56.5"/>
<text text-anchor="middle" x="349" y="-63.5" font-family="Helvetica,sans-Serif" font-size="10.00">JSystem/JSupport/JSUList.h</text>
</a>
</g>
</g>
<!-- Node5&#45;&gt;Node7 -->
<g id="edge17" class="edge">
<title>Node5&#45;&gt;Node7</title>
<path fill="none" stroke="midnightblue" d="M636.53,-224.42C606.05,-203.63 524.98,-149.54 453,-112 429.36,-99.67 401.6,-87.78 380.71,-79.32"/>
<polygon fill="midnightblue" stroke="midnightblue" points="381.93,-76.04 371.34,-75.58 379.33,-82.54 381.93,-76.04"/>
</g>
<!-- Node5&#45;&gt;Node8 -->
<g id="edge19" class="edge">
<title>Node5&#45;&gt;Node8</title>
<path fill="none" stroke="midnightblue" d="M649.23,-224.45C649.49,-204.17 648.47,-151.91 633,-112 622.04,-83.72 615.91,-76.98 594,-56 580.86,-43.42 563.67,-32.41 549.5,-24.44"/>
<polygon fill="midnightblue" stroke="midnightblue" points="551.16,-21.35 540.7,-19.65 547.81,-27.5 551.16,-21.35"/>
</g>
<!-- Node5&#45;&gt;Node9 -->
<g id="edge10" class="edge">
<title>Node5&#45;&gt;Node9</title>
<path fill="none" stroke="midnightblue" d="M664.26,-224.32C679.22,-215.82 702.25,-202.73 719.73,-192.8"/>
<polygon fill="midnightblue" stroke="midnightblue" points="721.81,-195.64 728.77,-187.65 718.35,-189.55 721.81,-195.64"/>
</g>
<!-- Node10 -->
<g id="node10" class="node">
<title>Node10</title>
<g id="a_node10"><a xlink:href="OS_8h.html" target="_top" xlink:title=" ">
<polygon fill="white" stroke="black" points="538,-112.5 538,-131.5 624,-131.5 624,-112.5 538,-112.5"/>
<text text-anchor="middle" x="581" y="-119.5" font-family="Helvetica,sans-Serif" font-size="10.00">dolphin/os/OS.h</text>
</a>
</g>
</g>
<!-- Node5&#45;&gt;Node10 -->
<g id="edge18" class="edge">
<title>Node5&#45;&gt;Node10</title>
<path fill="none" stroke="midnightblue" d="M643.66,-224.37C632.49,-206.3 606.45,-164.18 591.7,-140.31"/>
<polygon fill="midnightblue" stroke="midnightblue" points="594.55,-138.26 586.31,-131.59 588.59,-141.94 594.55,-138.26"/>
</g>
<!-- Node6&#45;&gt;Node7 -->
<g id="edge7" class="edge">
<title>Node6&#45;&gt;Node7</title>
<path fill="none" stroke="midnightblue" d="M362.36,-112.08C360.21,-104.85 357.12,-94.41 354.45,-85.4"/>
<polygon fill="midnightblue" stroke="midnightblue" points="357.79,-84.34 351.59,-75.75 351.08,-86.33 357.79,-84.34"/>
</g>
<!-- Node6&#45;&gt;Node8 -->
<g id="edge9" class="edge">
<title>Node6&#45;&gt;Node8</title>
<path fill="none" stroke="midnightblue" d="M377.47,-112.39C390.57,-103.34 411.75,-88.7 430,-76 454.88,-58.7 483.44,-38.72 502.27,-25.53"/>
<polygon fill="midnightblue" stroke="midnightblue" points="504.49,-28.24 510.68,-19.64 500.48,-22.51 504.49,-28.24"/>
</g>
<!-- Node7&#45;&gt;Node8 -->
<g id="edge8" class="edge">
<title>Node7&#45;&gt;Node8</title>
<path fill="none" stroke="midnightblue" d="M376.57,-56.44C406.1,-47.28 453.12,-32.69 485.88,-22.52"/>
<polygon fill="midnightblue" stroke="midnightblue" points="487.04,-25.82 495.56,-19.52 484.97,-19.14 487.04,-25.82"/>
</g>
<!-- Node9&#45;&gt;Node6 -->
<g id="edge11" class="edge">
<title>Node9&#45;&gt;Node6</title>
<path fill="none" stroke="midnightblue" d="M683.95,-168.44C616.31,-158.81 506.52,-143.16 435.03,-132.98"/>
<polygon fill="midnightblue" stroke="midnightblue" points="435.17,-129.46 424.77,-131.52 434.18,-136.39 435.17,-129.46"/>
</g>
<!-- Node9&#45;&gt;Node8 -->
<g id="edge16" class="edge">
<title>Node9&#45;&gt;Node8</title>
<path fill="none" stroke="midnightblue" d="M740.8,-168.21C732.25,-145.97 706.74,-87.07 666,-56 639.25,-35.6 603.06,-24.33 573.77,-18.17"/>
<polygon fill="midnightblue" stroke="midnightblue" points="574.22,-14.69 563.73,-16.19 572.87,-21.56 574.22,-14.69"/>
</g>
<!-- Node9&#45;&gt;Node10 -->
<g id="edge12" class="edge">
<title>Node9&#45;&gt;Node10</title>
<path fill="none" stroke="midnightblue" d="M718.17,-168.44C690.75,-159.36 647.22,-144.94 616.57,-134.78"/>
<polygon fill="midnightblue" stroke="midnightblue" points="617.3,-131.34 606.71,-131.52 615.1,-137.98 617.3,-131.34"/>
</g>
<!-- Node10&#45;&gt;Node8 -->
<g id="edge13" class="edge">
<title>Node10&#45;&gt;Node8</title>
<path fill="none" stroke="midnightblue" d="M582.71,-112.45C584.85,-99.47 587.23,-74.37 578,-56 571.53,-43.13 559.52,-32.63 548.37,-25.03"/>
<polygon fill="midnightblue" stroke="midnightblue" points="550.05,-21.95 539.73,-19.56 546.31,-27.87 550.05,-21.95"/>
</g>
<!-- Node11 -->
<g id="node11" class="node">
<title>Node11</title>
<g id="a_node11"><a xlink:href="dvd_8h.html" target="_top" xlink:title=" ">
<polygon fill="white" stroke="black" points="477,-56.5 477,-75.5 569,-75.5 569,-56.5 477,-56.5"/>
<text text-anchor="middle" x="523" y="-63.5" font-family="Helvetica,sans-Serif" font-size="10.00">dolphin/dvd/dvd.h</text>
</a>
</g>
</g>
<!-- Node10&#45;&gt;Node11 -->
<g id="edge14" class="edge">
<title>Node10&#45;&gt;Node11</title>
<path fill="none" stroke="midnightblue" d="M571.68,-112.32C563.11,-104.34 550.19,-92.31 539.81,-82.65"/>
<polygon fill="midnightblue" stroke="midnightblue" points="542.19,-80.09 532.49,-75.83 537.42,-85.21 542.19,-80.09"/>
</g>
<!-- Node11&#45;&gt;Node8 -->
<g id="edge15" class="edge">
<title>Node11&#45;&gt;Node8</title>
<path fill="none" stroke="midnightblue" d="M523,-56.08C523,-49.01 523,-38.86 523,-29.99"/>
<polygon fill="midnightblue" stroke="midnightblue" points="526.5,-29.75 523,-19.75 519.5,-29.75 526.5,-29.75"/>
</g>
<!-- Node12&#45;&gt;Node8 -->
<g id="edge27" class="edge">
<title>Node12&#45;&gt;Node8</title>
<path fill="none" stroke="midnightblue" d="M209.62,-224.49C163.69,-217.58 111.19,-205.98 97,-188 91.49,-181.02 93.25,-176.06 97,-168 129.6,-97.93 159.63,-87.94 230,-56 309.3,-20 411.78,-11.93 472.15,-10.6"/>
<polygon fill="midnightblue" stroke="midnightblue" points="472.25,-14.1 482.19,-10.43 472.13,-7.1 472.25,-14.1"/>
</g>
<!-- Node12&#45;&gt;Node10 -->
<g id="edge26" class="edge">
<title>Node12&#45;&gt;Node10</title>
<path fill="none" stroke="midnightblue" d="M335.9,-224.47C373.29,-217.25 424.88,-205.3 468,-188 502,-174.36 538.18,-151.98 560.19,-137.37"/>
<polygon fill="midnightblue" stroke="midnightblue" points="562.37,-140.12 568.71,-131.63 558.46,-134.31 562.37,-140.12"/>
</g>
<!-- Node12&#45;&gt;Node11 -->
<g id="edge25" class="edge">
<title>Node12&#45;&gt;Node11</title>
<path fill="none" stroke="midnightblue" d="M344.12,-224.45C373.47,-218.03 408.27,-206.95 435,-188 473.54,-160.68 501.73,-111.11 514.83,-84.69"/>
<polygon fill="midnightblue" stroke="midnightblue" points="518.07,-86.03 519.24,-75.5 511.76,-83.01 518.07,-86.03"/>
</g>
<!-- Node13 -->
<g id="node13" class="node">
<title>Node13</title>
<g id="a_node13"><a xlink:href="JKRFile_8h.html" target="_top" xlink:title=" ">
<polygon fill="white" stroke="black" points="290,-168.5 290,-187.5 426,-187.5 426,-168.5 290,-168.5"/>
<text text-anchor="middle" x="358" y="-175.5" font-family="Helvetica,sans-Serif" font-size="10.00">JSystem/JKernel/JKRFile.h</text>
</a>
</g>
</g>
<!-- Node12&#45;&gt;Node13 -->
<g id="edge22" class="edge">
<title>Node12&#45;&gt;Node13</title>
<path fill="none" stroke="midnightblue" d="M296.73,-224.32C307.84,-216.11 324.74,-203.6 337.98,-193.81"/>
<polygon fill="midnightblue" stroke="midnightblue" points="340.1,-196.59 346.06,-187.83 335.94,-190.97 340.1,-196.59"/>
</g>
<!-- Node13&#45;&gt;Node6 -->
<g id="edge23" class="edge">
<title>Node13&#45;&gt;Node6</title>
<path fill="none" stroke="midnightblue" d="M359.16,-168.08C360.08,-160.93 361.42,-150.64 362.58,-141.69"/>
<polygon fill="midnightblue" stroke="midnightblue" points="366.05,-142.12 363.87,-131.75 359.11,-141.22 366.05,-142.12"/>
</g>
<!-- Node13&#45;&gt;Node8 -->
<g id="edge24" class="edge">
<title>Node13&#45;&gt;Node8</title>
<path fill="none" stroke="midnightblue" d="M329.57,-168.41C311.64,-161.49 289.56,-149.91 277,-132 257.47,-104.15 246.14,-82.06 268,-56 293.51,-25.6 405.12,-15.73 471.94,-12.53"/>
<polygon fill="midnightblue" stroke="midnightblue" points="472.42,-16.01 482.26,-12.07 472.11,-9.02 472.42,-16.01"/>
</g>
<!-- Node14&#45;&gt;Node6 -->
<g id="edge29" class="edge">
<title>Node14&#45;&gt;Node6</title>
<path fill="none" stroke="midnightblue" d="M216.89,-168.44C246.75,-159.28 294.31,-144.69 327.46,-134.52"/>
<polygon fill="midnightblue" stroke="midnightblue" points="328.71,-137.8 337.24,-131.52 326.66,-131.1 328.71,-137.8"/>
</g>
<!-- Node14&#45;&gt;Node7 -->
<g id="edge30" class="edge">
<title>Node14&#45;&gt;Node7</title>
<path fill="none" stroke="midnightblue" d="M200.19,-168.3C216.71,-155.55 248.73,-131.23 277,-112 293,-101.12 311.52,-89.57 325.77,-80.89"/>
<polygon fill="midnightblue" stroke="midnightblue" points="327.7,-83.81 334.45,-75.64 324.08,-77.82 327.7,-83.81"/>
</g>
<!-- Node14&#45;&gt;Node8 -->
<g id="edge31" class="edge">
<title>Node14&#45;&gt;Node8</title>
<path fill="none" stroke="midnightblue" d="M190.9,-168.23C196.31,-145.53 214.07,-84.61 254,-56 288.18,-31.5 404.44,-19.34 472.42,-14.18"/>
<polygon fill="midnightblue" stroke="midnightblue" points="472.77,-17.67 482.49,-13.44 472.26,-10.68 472.77,-17.67"/>
</g>
<!-- Node15&#45;&gt;Node8 -->
<g id="edge34" class="edge">
<title>Node15&#45;&gt;Node8</title>
<path fill="none" stroke="midnightblue" d="M27.37,-112.48C31.86,-98.08 43.09,-69.23 64,-56 130.8,-13.74 367.55,-9.9 472.4,-10.35"/>
<polygon fill="midnightblue" stroke="midnightblue" points="472.4,-13.85 482.42,-10.41 472.44,-6.85 472.4,-13.85"/>
</g>
<!-- Node17&#45;&gt;Node8 -->
<g id="edge39" class="edge">
<title>Node17&#45;&gt;Node8</title>
<path fill="none" stroke="midnightblue" d="M974.44,-280.27C963.45,-262.15 940,-218.83 940,-179 940,-179 940,-179 940,-121 940,-86.11 925.78,-74.17 896,-56 843.04,-23.69 662.85,-14.55 573.74,-11.99"/>
<polygon fill="midnightblue" stroke="midnightblue" points="573.69,-8.48 563.6,-11.71 573.5,-15.48 573.69,-8.48"/>
</g>
</g>
</svg>
