<?xml version="1.0" encoding="UTF-8" standalone="no"?>
<!DOCTYPE svg PUBLIC "-//W3C//DTD SVG 1.1//EN"
 "http://www.w3.org/Graphics/SVG/1.1/DTD/svg11.dtd">
<!-- Generated by graphviz version 2.44.0 ()
 -->
<!-- Title: include/JSystem/JKernel/JKRAramArchive.h Pages: 1 -->
<svg width="1151pt" height="431pt"
 viewBox="0.00 0.00 1151.00 431.00" xmlns="http://www.w3.org/2000/svg" xmlns:xlink="http://www.w3.org/1999/xlink">
<g id="graph0" class="graph" transform="scale(1 1) rotate(0) translate(4 427)">
<title>include/JSystem/JKernel/JKRAramArchive.h</title>
<polygon fill="white" stroke="transparent" points="-4,4 -4,-427 1147,-427 1147,4 -4,4"/>
<!-- Node1 -->
<g id="node1" class="node">
<title>Node1</title>
<g id="a_node1"><a xlink:title=" ">
<polygon fill="#bfbfbf" stroke="black" points="437.5,-392.5 437.5,-422.5 562.5,-422.5 562.5,-392.5 437.5,-392.5"/>
<text text-anchor="start" x="445.5" y="-410.5" font-family="Helvetica,sans-Serif" font-size="10.00">include/JSystem/JKernel</text>
<text text-anchor="middle" x="500" y="-399.5" font-family="Helvetica,sans-Serif" font-size="10.00">/JKRAramArchive.h</text>
</a>
</g>
</g>
<!-- Node2 -->
<g id="node2" class="node">
<title>Node2</title>
<g id="a_node2"><a xlink:href="JKRAramBlock_8h.html" target="_top" xlink:title=" ">
<polygon fill="white" stroke="black" points="129,-336.5 129,-355.5 297,-355.5 297,-336.5 129,-336.5"/>
<text text-anchor="middle" x="213" y="-343.5" font-family="Helvetica,sans-Serif" font-size="10.00">JSystem/JKernel/JKRAramBlock.h</text>
</a>
</g>
</g>
<!-- Node1&#45;&gt;Node2 -->
<g id="edge1" class="edge">
<title>Node1&#45;&gt;Node2</title>
<path fill="none" stroke="midnightblue" d="M437.37,-393.52C385.48,-382.76 312.64,-367.66 264.19,-357.61"/>
<polygon fill="midnightblue" stroke="midnightblue" points="264.74,-354.15 254.24,-355.55 263.32,-361.01 264.74,-354.15"/>
</g>
<!-- Node3 -->
<g id="node3" class="node">
<title>Node3</title>
<g id="a_node3"><a xlink:href="types_8h.html" target="_top" xlink:title=" ">
<polygon fill="white" stroke="black" points="666.5,-0.5 666.5,-19.5 747.5,-19.5 747.5,-0.5 666.5,-0.5"/>
<text text-anchor="middle" x="707" y="-7.5" font-family="Helvetica,sans-Serif" font-size="10.00">dolphin/types.h</text>
</a>
</g>
</g>
<!-- Node1&#45;&gt;Node3 -->
<g id="edge38" class="edge">
<title>Node1&#45;&gt;Node3</title>
<path fill="none" stroke="midnightblue" d="M562.53,-401.81C724.11,-388.84 1143,-349.59 1143,-291 1143,-291 1143,-291 1143,-121 1143,-78.87 1112.14,-73.9 1074,-56 1019.07,-30.22 845.1,-17.97 757.88,-13.33"/>
<polygon fill="midnightblue" stroke="midnightblue" points="757.86,-9.83 747.69,-12.8 757.5,-16.82 757.86,-9.83"/>
</g>
<!-- Node4 -->
<g id="node4" class="node">
<title>Node4</title>
<g id="a_node4"><a xlink:href="JKRArchive_8h.html" target="_top" xlink:title=" ">
<polygon fill="white" stroke="black" points="423.5,-280.5 423.5,-299.5 576.5,-299.5 576.5,-280.5 423.5,-280.5"/>
<text text-anchor="middle" x="500" y="-287.5" font-family="Helvetica,sans-Serif" font-size="10.00">JSystem/JKernel/JKRArchive.h</text>
</a>
</g>
</g>
<!-- Node1&#45;&gt;Node4 -->
<g id="edge37" class="edge">
<title>Node1&#45;&gt;Node4</title>
<path fill="none" stroke="midnightblue" d="M500,-392.34C500,-371.62 500,-333.02 500,-309.9"/>
<polygon fill="midnightblue" stroke="midnightblue" points="503.5,-309.67 500,-299.67 496.5,-309.67 503.5,-309.67"/>
</g>
<!-- Node2&#45;&gt;Node3 -->
<g id="edge2" class="edge">
<title>Node2&#45;&gt;Node3</title>
<path fill="none" stroke="midnightblue" d="M135.5,-336.5C74.6,-325 0,-298.05 0,-235 0,-235 0,-235 0,-121 0,-54.53 494.28,-22.31 656.27,-13.54"/>
<polygon fill="midnightblue" stroke="midnightblue" points="656.65,-17.02 666.45,-12.99 656.28,-10.03 656.65,-17.02"/>
</g>
<!-- Node2&#45;&gt;Node4 -->
<g id="edge3" class="edge">
<title>Node2&#45;&gt;Node4</title>
<path fill="none" stroke="midnightblue" d="M258.48,-336.44C308.96,-326.94 390.46,-311.61 444.62,-301.42"/>
<polygon fill="midnightblue" stroke="midnightblue" points="445.56,-304.81 454.74,-299.52 444.26,-297.93 445.56,-304.81"/>
</g>
<!-- Node9 -->
<g id="node9" class="node">
<title>Node9</title>
<g id="a_node9"><a xlink:href="JSUList_8h.html" target="_top" xlink:title=" ">
<polygon fill="white" stroke="black" points="383.5,-56.5 383.5,-75.5 526.5,-75.5 526.5,-56.5 383.5,-56.5"/>
<text text-anchor="middle" x="455" y="-63.5" font-family="Helvetica,sans-Serif" font-size="10.00">JSystem/JSupport/JSUList.h</text>
</a>
</g>
</g>
<!-- Node2&#45;&gt;Node9 -->
<g id="edge36" class="edge">
<title>Node2&#45;&gt;Node9</title>
<path fill="none" stroke="midnightblue" d="M165.64,-336.42C113.82,-323.99 38,-295.47 38,-235 38,-235 38,-235 38,-177 38,-108.36 251.89,-81.62 373.3,-71.97"/>
<polygon fill="midnightblue" stroke="midnightblue" points="373.61,-75.45 383.32,-71.19 373.08,-68.47 373.61,-75.45"/>
</g>
<!-- Node5 -->
<g id="node5" class="node">
<title>Node5</title>
<g id="a_node5"><a xlink:href="JKRCompression_8h.html" target="_top" xlink:title=" ">
<polygon fill="white" stroke="black" points="411.5,-168.5 411.5,-187.5 588.5,-187.5 588.5,-168.5 411.5,-168.5"/>
<text text-anchor="middle" x="500" y="-175.5" font-family="Helvetica,sans-Serif" font-size="10.00">JSystem/JKernel/JKRCompression.h</text>
</a>
</g>
</g>
<!-- Node4&#45;&gt;Node5 -->
<g id="edge4" class="edge">
<title>Node4&#45;&gt;Node5</title>
<path fill="none" stroke="midnightblue" d="M500,-280.37C500,-262.62 500,-221.67 500,-197.6"/>
<polygon fill="midnightblue" stroke="midnightblue" points="503.5,-197.59 500,-187.59 496.5,-197.59 503.5,-197.59"/>
</g>
<!-- Node6 -->
<g id="node6" class="node">
<title>Node6</title>
<g id="a_node6"><a xlink:href="JKRDecomp_8h.html" target="_top" xlink:title=" ">
<polygon fill="white" stroke="black" points="566,-224.5 566,-243.5 722,-243.5 722,-224.5 566,-224.5"/>
<text text-anchor="middle" x="644" y="-231.5" font-family="Helvetica,sans-Serif" font-size="10.00">JSystem/JKernel/JKRDecomp.h</text>
</a>
</g>
</g>
<!-- Node4&#45;&gt;Node6 -->
<g id="edge5" class="edge">
<title>Node4&#45;&gt;Node6</title>
<path fill="none" stroke="midnightblue" d="M522.82,-280.44C546.83,-271.44 584.83,-257.19 611.87,-247.05"/>
<polygon fill="midnightblue" stroke="midnightblue" points="613.16,-250.3 621.29,-243.52 610.7,-243.75 613.16,-250.3"/>
</g>
<!-- Node12 -->
<g id="node12" class="node">
<title>Node12</title>
<g id="a_node12"><a xlink:href="JKRDvdFile_8h.html" target="_top" xlink:title=" ">
<polygon fill="white" stroke="black" points="783.5,-224.5 783.5,-243.5 936.5,-243.5 936.5,-224.5 783.5,-224.5"/>
<text text-anchor="middle" x="860" y="-231.5" font-family="Helvetica,sans-Serif" font-size="10.00">JSystem/JKernel/JKRDvdFile.h</text>
</a>
</g>
</g>
<!-- Node4&#45;&gt;Node12 -->
<g id="edge19" class="edge">
<title>Node4&#45;&gt;Node12</title>
<path fill="none" stroke="midnightblue" d="M557.04,-280.44C621.16,-270.83 725.15,-255.23 793.06,-245.04"/>
<polygon fill="midnightblue" stroke="midnightblue" points="793.85,-248.46 803.22,-243.52 792.82,-241.54 793.85,-248.46"/>
</g>
<!-- Node14 -->
<g id="node14" class="node">
<title>Node14</title>
<g id="a_node14"><a xlink:href="JKRFileLoader_8h.html" target="_top" xlink:title=" ">
<polygon fill="white" stroke="black" points="66,-168.5 66,-187.5 232,-187.5 232,-168.5 66,-168.5"/>
<text text-anchor="middle" x="149" y="-175.5" font-family="Helvetica,sans-Serif" font-size="10.00">JSystem/JKernel/JKRFileLoader.h</text>
</a>
</g>
</g>
<!-- Node4&#45;&gt;Node14 -->
<g id="edge26" class="edge">
<title>Node4&#45;&gt;Node14</title>
<path fill="none" stroke="midnightblue" d="M472.75,-280.46C410.42,-260.93 257.37,-212.96 186.34,-190.7"/>
<polygon fill="midnightblue" stroke="midnightblue" points="187.06,-187.26 176.47,-187.61 184.97,-193.94 187.06,-187.26"/>
</g>
<!-- Node15 -->
<g id="node15" class="node">
<title>Node15</title>
<g id="a_node15"><a xlink:href="JKRHeap_8h.html" target="_top" xlink:title=" ">
<polygon fill="white" stroke="black" points="250.5,-168.5 250.5,-187.5 393.5,-187.5 393.5,-168.5 250.5,-168.5"/>
<text text-anchor="middle" x="322" y="-175.5" font-family="Helvetica,sans-Serif" font-size="10.00">JSystem/JKernel/JKRHeap.h</text>
</a>
</g>
</g>
<!-- Node4&#45;&gt;Node15 -->
<g id="edge30" class="edge">
<title>Node4&#45;&gt;Node15</title>
<path fill="none" stroke="midnightblue" d="M486.03,-280.37C455.36,-261.41 381.87,-216 344.56,-192.94"/>
<polygon fill="midnightblue" stroke="midnightblue" points="346.25,-189.87 335.9,-187.59 342.57,-195.83 346.25,-189.87"/>
</g>
<!-- Node16 -->
<g id="node16" class="node">
<title>Node16</title>
<g id="a_node16"><a xlink:href="global_8h.html" target="_top" xlink:title=" ">
<polygon fill="white" stroke="black" points="1065,-112.5 1065,-131.5 1115,-131.5 1115,-112.5 1065,-112.5"/>
<text text-anchor="middle" x="1090" y="-119.5" font-family="Helvetica,sans-Serif" font-size="10.00">global.h</text>
</a>
</g>
</g>
<!-- Node4&#45;&gt;Node16 -->
<g id="edge34" class="edge">
<title>Node4&#45;&gt;Node16</title>
<path fill="none" stroke="midnightblue" d="M576.78,-289.01C666.81,-287.26 819.76,-278.75 946,-244 1002.74,-228.38 1026.14,-231.31 1066,-188 1077.83,-175.15 1083.96,-155.97 1087.05,-141.77"/>
<polygon fill="midnightblue" stroke="midnightblue" points="1090.54,-142.14 1088.93,-131.67 1083.66,-140.86 1090.54,-142.14"/>
</g>
<!-- Node6&#45;&gt;Node3 -->
<g id="edge18" class="edge">
<title>Node6&#45;&gt;Node3</title>
<path fill="none" stroke="midnightblue" d="M686.34,-224.43C711.27,-217.75 742.27,-206.41 765,-188 810.79,-150.9 819.57,-132.6 836,-76 838.48,-67.46 841.15,-63.25 836,-56 818.32,-31.11 785.82,-19.88 757.86,-14.85"/>
<polygon fill="midnightblue" stroke="midnightblue" points="758.22,-11.37 747.8,-13.27 757.14,-18.28 758.22,-11.37"/>
</g>
<!-- Node6&#45;&gt;Node5 -->
<g id="edge6" class="edge">
<title>Node6&#45;&gt;Node5</title>
<path fill="none" stroke="midnightblue" d="M621.18,-224.44C597.17,-215.44 559.17,-201.19 532.13,-191.05"/>
<polygon fill="midnightblue" stroke="midnightblue" points="533.3,-187.75 522.71,-187.52 530.84,-194.3 533.3,-187.75"/>
</g>
<!-- Node7 -->
<g id="node7" class="node">
<title>Node7</title>
<g id="a_node7"><a xlink:href="JKRThread_8h.html" target="_top" xlink:title=" ">
<polygon fill="white" stroke="black" points="606,-168.5 606,-187.5 756,-187.5 756,-168.5 606,-168.5"/>
<text text-anchor="middle" x="681" y="-175.5" font-family="Helvetica,sans-Serif" font-size="10.00">JSystem/JKernel/JKRThread.h</text>
</a>
</g>
</g>
<!-- Node6&#45;&gt;Node7 -->
<g id="edge7" class="edge">
<title>Node6&#45;&gt;Node7</title>
<path fill="none" stroke="midnightblue" d="M650.11,-224.08C655.28,-216.53 662.85,-205.49 669.19,-196.23"/>
<polygon fill="midnightblue" stroke="midnightblue" points="672.24,-197.98 675,-187.75 666.46,-194.02 672.24,-197.98"/>
</g>
<!-- Node7&#45;&gt;Node3 -->
<g id="edge17" class="edge">
<title>Node7&#45;&gt;Node3</title>
<path fill="none" stroke="midnightblue" d="M681.73,-168.14C682.82,-155.6 685.05,-131.99 688,-112 692.27,-83.09 698.85,-49.84 703.04,-29.63"/>
<polygon fill="midnightblue" stroke="midnightblue" points="706.51,-30.11 705.14,-19.61 699.66,-28.68 706.51,-30.11"/>
</g>
<!-- Node8 -->
<g id="node8" class="node">
<title>Node8</title>
<g id="a_node8"><a xlink:href="JKRDisposer_8h.html" target="_top" xlink:title=" ">
<polygon fill="white" stroke="black" points="483,-112.5 483,-131.5 641,-131.5 641,-112.5 483,-112.5"/>
<text text-anchor="middle" x="562" y="-119.5" font-family="Helvetica,sans-Serif" font-size="10.00">JSystem/JKernel/JKRDisposer.h</text>
</a>
</g>
</g>
<!-- Node7&#45;&gt;Node8 -->
<g id="edge8" class="edge">
<title>Node7&#45;&gt;Node8</title>
<path fill="none" stroke="midnightblue" d="M662.14,-168.44C642.73,-159.64 612.27,-145.81 590.04,-135.72"/>
<polygon fill="midnightblue" stroke="midnightblue" points="591.32,-132.46 580.77,-131.52 588.43,-138.84 591.32,-132.46"/>
</g>
<!-- Node7&#45;&gt;Node9 -->
<g id="edge12" class="edge">
<title>Node7&#45;&gt;Node9</title>
<path fill="none" stroke="midnightblue" d="M605.78,-168.77C554.7,-161.7 493.1,-149.8 474,-132 461.38,-120.24 456.98,-100.6 455.53,-85.98"/>
<polygon fill="midnightblue" stroke="midnightblue" points="459,-85.35 454.9,-75.58 452.01,-85.77 459,-85.35"/>
</g>
<!-- Node10 -->
<g id="node10" class="node">
<title>Node10</title>
<g id="a_node10"><a xlink:href="OS_8h.html" target="_top" xlink:title=" ">
<polygon fill="white" stroke="black" points="697,-112.5 697,-131.5 783,-131.5 783,-112.5 697,-112.5"/>
<text text-anchor="middle" x="740" y="-119.5" font-family="Helvetica,sans-Serif" font-size="10.00">dolphin/os/OS.h</text>
</a>
</g>
</g>
<!-- Node7&#45;&gt;Node10 -->
<g id="edge13" class="edge">
<title>Node7&#45;&gt;Node10</title>
<path fill="none" stroke="midnightblue" d="M690.48,-168.32C699.2,-160.34 712.34,-148.31 722.9,-138.65"/>
<polygon fill="midnightblue" stroke="midnightblue" points="725.33,-141.17 730.35,-131.83 720.61,-136 725.33,-141.17"/>
</g>
<!-- Node8&#45;&gt;Node3 -->
<g id="edge11" class="edge">
<title>Node8&#45;&gt;Node3</title>
<path fill="none" stroke="midnightblue" d="M573.38,-112.37C598.05,-93.65 656.71,-49.15 687.45,-25.83"/>
<polygon fill="midnightblue" stroke="midnightblue" points="689.82,-28.42 695.67,-19.59 685.59,-22.85 689.82,-28.42"/>
</g>
<!-- Node8&#45;&gt;Node9 -->
<g id="edge9" class="edge">
<title>Node8&#45;&gt;Node9</title>
<path fill="none" stroke="midnightblue" d="M544.81,-112.32C527.65,-103.66 501.05,-90.24 481.25,-80.25"/>
<polygon fill="midnightblue" stroke="midnightblue" points="482.65,-77.04 472.15,-75.65 479.5,-83.28 482.65,-77.04"/>
</g>
<!-- Node9&#45;&gt;Node3 -->
<g id="edge10" class="edge">
<title>Node9&#45;&gt;Node3</title>
<path fill="none" stroke="midnightblue" d="M494.93,-56.44C538.89,-47.02 609.63,-31.87 657.18,-21.68"/>
<polygon fill="midnightblue" stroke="midnightblue" points="658.21,-25.03 667.26,-19.52 656.75,-18.19 658.21,-25.03"/>
</g>
<!-- Node10&#45;&gt;Node3 -->
<g id="edge14" class="edge">
<title>Node10&#45;&gt;Node3</title>
<path fill="none" stroke="midnightblue" d="M737.27,-112.39C734.42,-103.34 729.83,-88.69 726,-76 721.28,-60.35 716.08,-42.52 712.32,-29.5"/>
<polygon fill="midnightblue" stroke="midnightblue" points="715.67,-28.49 709.53,-19.85 708.94,-30.42 715.67,-28.49"/>
</g>
<!-- Node11 -->
<g id="node11" class="node">
<title>Node11</title>
<g id="a_node11"><a xlink:href="dvd_8h.html" target="_top" xlink:title=" ">
<polygon fill="white" stroke="black" points="735,-56.5 735,-75.5 827,-75.5 827,-56.5 735,-56.5"/>
<text text-anchor="middle" x="781" y="-63.5" font-family="Helvetica,sans-Serif" font-size="10.00">dolphin/dvd/dvd.h</text>
</a>
</g>
</g>
<!-- Node10&#45;&gt;Node11 -->
<g id="edge15" class="edge">
<title>Node10&#45;&gt;Node11</title>
<path fill="none" stroke="midnightblue" d="M746.77,-112.08C752.56,-104.46 761.06,-93.26 768.14,-83.94"/>
<polygon fill="midnightblue" stroke="midnightblue" points="771.1,-85.83 774.36,-75.75 765.52,-81.6 771.1,-85.83"/>
</g>
<!-- Node11&#45;&gt;Node3 -->
<g id="edge16" class="edge">
<title>Node11&#45;&gt;Node3</title>
<path fill="none" stroke="midnightblue" d="M769.11,-56.32C757.85,-48.11 740.71,-35.6 727.29,-25.81"/>
<polygon fill="midnightblue" stroke="midnightblue" points="729.25,-22.9 719.11,-19.83 725.12,-28.56 729.25,-22.9"/>
</g>
<!-- Node12&#45;&gt;Node3 -->
<g id="edge25" class="edge">
<title>Node12&#45;&gt;Node3</title>
<path fill="none" stroke="midnightblue" d="M924.81,-224.47C968.13,-217.29 1019.57,-205.37 1033,-188 1038.44,-180.97 1036.85,-176.01 1033,-168 982.87,-63.69 836.06,-28.21 757.68,-16.51"/>
<polygon fill="midnightblue" stroke="midnightblue" points="757.95,-13.01 747.55,-15.07 756.96,-19.94 757.95,-13.01"/>
</g>
<!-- Node12&#45;&gt;Node10 -->
<g id="edge24" class="edge">
<title>Node12&#45;&gt;Node10</title>
<path fill="none" stroke="midnightblue" d="M850.58,-224.37C830.34,-205.81 782.45,-161.91 756.84,-138.44"/>
<polygon fill="midnightblue" stroke="midnightblue" points="759.11,-135.77 749.37,-131.59 754.38,-140.93 759.11,-135.77"/>
</g>
<!-- Node12&#45;&gt;Node11 -->
<g id="edge23" class="edge">
<title>Node12&#45;&gt;Node11</title>
<path fill="none" stroke="midnightblue" d="M855.75,-224.08C843.21,-197.72 806.16,-119.88 789.4,-84.66"/>
<polygon fill="midnightblue" stroke="midnightblue" points="792.54,-83.09 785.08,-75.57 786.21,-86.1 792.54,-83.09"/>
</g>
<!-- Node13 -->
<g id="node13" class="node">
<title>Node13</title>
<g id="a_node13"><a xlink:href="JKRFile_8h.html" target="_top" xlink:title=" ">
<polygon fill="white" stroke="black" points="888,-168.5 888,-187.5 1024,-187.5 1024,-168.5 888,-168.5"/>
<text text-anchor="middle" x="956" y="-175.5" font-family="Helvetica,sans-Serif" font-size="10.00">JSystem/JKernel/JKRFile.h</text>
</a>
</g>
</g>
<!-- Node12&#45;&gt;Node13 -->
<g id="edge20" class="edge">
<title>Node12&#45;&gt;Node13</title>
<path fill="none" stroke="midnightblue" d="M875.42,-224.32C890.54,-215.82 913.82,-202.73 931.47,-192.8"/>
<polygon fill="midnightblue" stroke="midnightblue" points="933.61,-195.61 940.61,-187.65 930.18,-189.51 933.61,-195.61"/>
</g>
<!-- Node13&#45;&gt;Node3 -->
<g id="edge22" class="edge">
<title>Node13&#45;&gt;Node3</title>
<path fill="none" stroke="midnightblue" d="M952.34,-168.45C942.41,-146.26 912.71,-86.5 869,-56 836.13,-33.07 791.92,-21.79 757.99,-16.26"/>
<polygon fill="midnightblue" stroke="midnightblue" points="758.22,-12.76 747.81,-14.72 757.18,-19.68 758.22,-12.76"/>
</g>
<!-- Node13&#45;&gt;Node8 -->
<g id="edge21" class="edge">
<title>Node13&#45;&gt;Node8</title>
<path fill="none" stroke="midnightblue" d="M893.57,-168.44C823.11,-158.79 708.65,-143.1 634.35,-132.92"/>
<polygon fill="midnightblue" stroke="midnightblue" points="634.52,-129.41 624.14,-131.52 633.57,-136.34 634.52,-129.41"/>
</g>
<!-- Node14&#45;&gt;Node3 -->
<g id="edge29" class="edge">
<title>Node14&#45;&gt;Node3</title>
<path fill="none" stroke="midnightblue" d="M159.58,-168.44C188.31,-145.69 271.02,-83.64 351,-56 455.17,-20 585.39,-12.27 655.89,-10.92"/>
<polygon fill="midnightblue" stroke="midnightblue" points="656.32,-14.42 666.27,-10.76 656.22,-7.42 656.32,-14.42"/>
</g>
<!-- Node14&#45;&gt;Node8 -->
<g id="edge27" class="edge">
<title>Node14&#45;&gt;Node8</title>
<path fill="none" stroke="midnightblue" d="M214.44,-168.44C288.45,-158.77 408.77,-143.04 486.64,-132.85"/>
<polygon fill="midnightblue" stroke="midnightblue" points="487.4,-136.28 496.87,-131.52 486.5,-129.34 487.4,-136.28"/>
</g>
<!-- Node14&#45;&gt;Node9 -->
<g id="edge28" class="edge">
<title>Node14&#45;&gt;Node9</title>
<path fill="none" stroke="midnightblue" d="M172.76,-168.46C226.76,-149.05 358.88,-101.55 421.3,-79.12"/>
<polygon fill="midnightblue" stroke="midnightblue" points="422.82,-82.29 431.05,-75.61 420.45,-75.7 422.82,-82.29"/>
</g>
<!-- Node15&#45;&gt;Node3 -->
<g id="edge33" class="edge">
<title>Node15&#45;&gt;Node3</title>
<path fill="none" stroke="midnightblue" d="M322.88,-168.22C325.68,-145.48 336.49,-84.49 374,-56 417.32,-23.09 574.29,-14.25 656.3,-11.87"/>
<polygon fill="midnightblue" stroke="midnightblue" points="656.5,-15.37 666.4,-11.6 656.31,-8.37 656.5,-15.37"/>
</g>
<!-- Node15&#45;&gt;Node8 -->
<g id="edge31" class="edge">
<title>Node15&#45;&gt;Node8</title>
<path fill="none" stroke="midnightblue" d="M360.03,-168.44C401.81,-159.04 468.98,-143.93 514.27,-133.74"/>
<polygon fill="midnightblue" stroke="midnightblue" points="515.16,-137.13 524.15,-131.52 513.62,-130.3 515.16,-137.13"/>
</g>
<!-- Node15&#45;&gt;Node10 -->
<g id="edge32" class="edge">
<title>Node15&#45;&gt;Node10</title>
<path fill="none" stroke="midnightblue" d="M388.23,-168.44C470.79,-157.78 610.28,-139.76 686.44,-129.92"/>
<polygon fill="midnightblue" stroke="midnightblue" points="687.29,-133.34 696.76,-128.59 686.39,-126.4 687.29,-133.34"/>
</g>
<!-- Node16&#45;&gt;Node3 -->
<g id="edge35" class="edge">
<title>Node16&#45;&gt;Node3</title>
<path fill="none" stroke="midnightblue" d="M1087.44,-112.09C1082.78,-97.65 1071.47,-69.42 1051,-56 1003.79,-25.06 841.31,-15.3 757.66,-12.3"/>
<polygon fill="midnightblue" stroke="midnightblue" points="757.73,-8.8 747.61,-11.95 757.49,-15.79 757.73,-8.8"/>
</g>
</g>
</svg>
