<?xml version="1.0" encoding="UTF-8" standalone="no"?>
<!DOCTYPE svg PUBLIC "-//W3C//DTD SVG 1.1//EN"
 "http://www.w3.org/Graphics/SVG/1.1/DTD/svg11.dtd">
<!-- Generated by graphviz version 2.44.0 ()
 -->
<!-- Title: libs/JSystem/JKernel/JKRArchivePri.cpp Pages: 1 -->
<svg width="968pt" height="442pt"
 viewBox="0.00 0.00 968.05 442.00" xmlns="http://www.w3.org/2000/svg" xmlns:xlink="http://www.w3.org/1999/xlink">
<g id="graph0" class="graph" transform="scale(1 1) rotate(0) translate(4 438)">
<title>libs/JSystem/JKernel/JKRArchivePri.cpp</title>
<polygon fill="white" stroke="transparent" points="-4,4 -4,-438 964.05,-438 964.05,4 -4,4"/>
<!-- Node1 -->
<g id="node1" class="node">
<title>Node1</title>
<g id="a_node1"><a xlink:title=" ">
<polygon fill="#bfbfbf" stroke="black" points="787.5,-403.5 787.5,-433.5 896.5,-433.5 896.5,-403.5 787.5,-403.5"/>
<text text-anchor="start" x="795.5" y="-421.5" font-family="Helvetica,sans-Serif" font-size="10.00">libs/JSystem/JKernel</text>
<text text-anchor="middle" x="842" y="-410.5" font-family="Helvetica,sans-Serif" font-size="10.00">/JKRArchivePri.cpp</text>
</a>
</g>
</g>
<!-- Node2 -->
<g id="node2" class="node">
<title>Node2</title>
<g id="a_node2"><a xlink:href="JKRArchive_8h.html" target="_top" xlink:title=" ">
<polygon fill="white" stroke="black" points="364.5,-347.5 364.5,-366.5 517.5,-366.5 517.5,-347.5 364.5,-347.5"/>
<text text-anchor="middle" x="441" y="-354.5" font-family="Helvetica,sans-Serif" font-size="10.00">JSystem/JKernel/JKRArchive.h</text>
</a>
</g>
</g>
<!-- Node1&#45;&gt;Node2 -->
<g id="edge1" class="edge">
<title>Node1&#45;&gt;Node2</title>
<path fill="none" stroke="midnightblue" d="M787.08,-409.35C714.62,-398.6 587.11,-379.68 508.74,-368.05"/>
<polygon fill="midnightblue" stroke="midnightblue" points="508.9,-364.54 498.49,-366.53 507.87,-371.46 508.9,-364.54"/>
</g>
<!-- Node8 -->
<g id="node8" class="node">
<title>Node8</title>
<g id="a_node8"><a xlink:href="types_8h.html" target="_top" xlink:title=" ">
<polygon fill="white" stroke="black" points="460.5,-0.5 460.5,-19.5 541.5,-19.5 541.5,-0.5 460.5,-0.5"/>
<text text-anchor="middle" x="501" y="-7.5" font-family="Helvetica,sans-Serif" font-size="10.00">dolphin/types.h</text>
</a>
</g>
</g>
<!-- Node1&#45;&gt;Node8 -->
<g id="edge39" class="edge">
<title>Node1&#45;&gt;Node8</title>
<path fill="none" stroke="midnightblue" d="M887.4,-403.44C906.36,-395.49 927.15,-383.72 941,-367 960.2,-343.82 960,-332.1 960,-302 960,-302 960,-302 960,-132 960,-74.75 909.2,-77.16 856,-56 801.83,-34.45 636.3,-20.31 551.79,-14.3"/>
<polygon fill="midnightblue" stroke="midnightblue" points="551.88,-10.8 541.66,-13.59 551.39,-17.78 551.88,-10.8"/>
</g>
<!-- Node9 -->
<g id="node9" class="node">
<title>Node9</title>
<g id="a_node9"><a xlink:href="JKRHeap_8h.html" target="_top" xlink:title=" ">
<polygon fill="white" stroke="black" points="632.5,-179.5 632.5,-198.5 775.5,-198.5 775.5,-179.5 632.5,-179.5"/>
<text text-anchor="middle" x="704" y="-186.5" font-family="Helvetica,sans-Serif" font-size="10.00">JSystem/JKernel/JKRHeap.h</text>
</a>
</g>
</g>
<!-- Node1&#45;&gt;Node9 -->
<g id="edge37" class="edge">
<title>Node1&#45;&gt;Node9</title>
<path fill="none" stroke="midnightblue" d="M833.37,-403.27C809.23,-363.48 741.08,-251.13 714.66,-207.57"/>
<polygon fill="midnightblue" stroke="midnightblue" points="717.59,-205.66 709.42,-198.93 711.61,-209.29 717.59,-205.66"/>
</g>
<!-- Node17 -->
<g id="node17" class="node">
<title>Node17</title>
<g id="a_node17"><a xlink:href="dol2asm_8h.html" target="_top" xlink:title=" ">
<polygon fill="white" stroke="black" points="870.5,-347.5 870.5,-366.5 931.5,-366.5 931.5,-347.5 870.5,-347.5"/>
<text text-anchor="middle" x="901" y="-354.5" font-family="Helvetica,sans-Serif" font-size="10.00">dol2asm.h</text>
</a>
</g>
</g>
<!-- Node1&#45;&gt;Node17 -->
<g id="edge38" class="edge">
<title>Node1&#45;&gt;Node17</title>
<path fill="none" stroke="midnightblue" d="M855.98,-403.4C864.73,-394.58 876.03,-383.18 885.12,-374.02"/>
<polygon fill="midnightblue" stroke="midnightblue" points="887.86,-376.22 892.41,-366.66 882.89,-371.29 887.86,-376.22"/>
</g>
<!-- Node18 -->
<g id="node18" class="node">
<title>Node18</title>
<g id="a_node18"><a xlink:href="msl__c_2string_8h.html" target="_top" xlink:title=" ">
<polygon fill="white" stroke="black" points="832.5,-123.5 832.5,-142.5 909.5,-142.5 909.5,-123.5 832.5,-123.5"/>
<text text-anchor="middle" x="871" y="-130.5" font-family="Helvetica,sans-Serif" font-size="10.00">msl_c/string.h</text>
</a>
</g>
</g>
<!-- Node1&#45;&gt;Node18 -->
<g id="edge40" class="edge">
<title>Node1&#45;&gt;Node18</title>
<path fill="none" stroke="midnightblue" d="M842,-403.28C842,-381.48 842,-338.49 842,-302 842,-302 842,-302 842,-244 842,-210.72 854.57,-173.58 863.16,-152.09"/>
<polygon fill="midnightblue" stroke="midnightblue" points="866.48,-153.21 867.09,-142.64 860.02,-150.53 866.48,-153.21"/>
</g>
<!-- Node3 -->
<g id="node3" class="node">
<title>Node3</title>
<g id="a_node3"><a xlink:href="JKRCompression_8h.html" target="_top" xlink:title=" ">
<polygon fill="white" stroke="black" points="352.5,-235.5 352.5,-254.5 529.5,-254.5 529.5,-235.5 352.5,-235.5"/>
<text text-anchor="middle" x="441" y="-242.5" font-family="Helvetica,sans-Serif" font-size="10.00">JSystem/JKernel/JKRCompression.h</text>
</a>
</g>
</g>
<!-- Node2&#45;&gt;Node3 -->
<g id="edge2" class="edge">
<title>Node2&#45;&gt;Node3</title>
<path fill="none" stroke="midnightblue" d="M441,-347.37C441,-329.62 441,-288.67 441,-264.6"/>
<polygon fill="midnightblue" stroke="midnightblue" points="444.5,-264.59 441,-254.59 437.5,-264.59 444.5,-264.59"/>
</g>
<!-- Node4 -->
<g id="node4" class="node">
<title>Node4</title>
<g id="a_node4"><a xlink:href="JKRDecomp_8h.html" target="_top" xlink:title=" ">
<polygon fill="white" stroke="black" points="506,-291.5 506,-310.5 662,-310.5 662,-291.5 506,-291.5"/>
<text text-anchor="middle" x="584" y="-298.5" font-family="Helvetica,sans-Serif" font-size="10.00">JSystem/JKernel/JKRDecomp.h</text>
</a>
</g>
</g>
<!-- Node2&#45;&gt;Node4 -->
<g id="edge3" class="edge">
<title>Node2&#45;&gt;Node4</title>
<path fill="none" stroke="midnightblue" d="M463.66,-347.44C487.4,-338.48 524.91,-324.31 551.74,-314.18"/>
<polygon fill="midnightblue" stroke="midnightblue" points="553.33,-317.32 561.45,-310.52 550.86,-310.77 553.33,-317.32"/>
</g>
<!-- Node2&#45;&gt;Node9 -->
<g id="edge34" class="edge">
<title>Node2&#45;&gt;Node9</title>
<path fill="none" stroke="midnightblue" d="M517.77,-347.62C574.67,-340.19 646.45,-327.89 671,-311 695.18,-294.36 697.91,-283.21 706,-255 710.33,-239.89 709.36,-221.99 707.57,-208.81"/>
<polygon fill="midnightblue" stroke="midnightblue" points="710.98,-207.92 705.91,-198.62 704.07,-209.05 710.98,-207.92"/>
</g>
<!-- Node13 -->
<g id="node13" class="node">
<title>Node13</title>
<g id="a_node13"><a xlink:href="JKRDvdFile_8h.html" target="_top" xlink:title=" ">
<polygon fill="white" stroke="black" points="181.5,-235.5 181.5,-254.5 334.5,-254.5 334.5,-235.5 181.5,-235.5"/>
<text text-anchor="middle" x="258" y="-242.5" font-family="Helvetica,sans-Serif" font-size="10.00">JSystem/JKernel/JKRDvdFile.h</text>
</a>
</g>
</g>
<!-- Node2&#45;&gt;Node13 -->
<g id="edge23" class="edge">
<title>Node2&#45;&gt;Node13</title>
<path fill="none" stroke="midnightblue" d="M426.64,-347.37C395.1,-328.41 319.56,-283 281.2,-259.94"/>
<polygon fill="midnightblue" stroke="midnightblue" points="282.67,-256.74 272.29,-254.59 279.06,-262.74 282.67,-256.74"/>
</g>
<!-- Node15 -->
<g id="node15" class="node">
<title>Node15</title>
<g id="a_node15"><a xlink:href="JKRFileLoader_8h.html" target="_top" xlink:title=" ">
<polygon fill="white" stroke="black" points="66,-179.5 66,-198.5 232,-198.5 232,-179.5 66,-179.5"/>
<text text-anchor="middle" x="149" y="-186.5" font-family="Helvetica,sans-Serif" font-size="10.00">JSystem/JKernel/JKRFileLoader.h</text>
</a>
</g>
</g>
<!-- Node2&#45;&gt;Node15 -->
<g id="edge30" class="edge">
<title>Node2&#45;&gt;Node15</title>
<path fill="none" stroke="midnightblue" d="M376.04,-347.45C315.6,-336.23 226.85,-310.91 172,-255 159.83,-242.59 154.07,-223.35 151.36,-209.02"/>
<polygon fill="midnightblue" stroke="midnightblue" points="154.76,-208.15 149.77,-198.8 147.85,-209.22 154.76,-208.15"/>
</g>
<!-- Node16 -->
<g id="node16" class="node">
<title>Node16</title>
<g id="a_node16"><a xlink:href="global_8h.html" target="_top" xlink:title=" ">
<polygon fill="white" stroke="black" points="25,-291.5 25,-310.5 75,-310.5 75,-291.5 25,-291.5"/>
<text text-anchor="middle" x="50" y="-298.5" font-family="Helvetica,sans-Serif" font-size="10.00">global.h</text>
</a>
</g>
</g>
<!-- Node2&#45;&gt;Node16 -->
<g id="edge35" class="edge">
<title>Node2&#45;&gt;Node16</title>
<path fill="none" stroke="midnightblue" d="M379.04,-347.44C296.06,-335.98 151.58,-316.03 85.19,-306.86"/>
<polygon fill="midnightblue" stroke="midnightblue" points="85.61,-303.39 75.23,-305.48 84.66,-310.32 85.61,-303.39"/>
</g>
<!-- Node4&#45;&gt;Node3 -->
<g id="edge4" class="edge">
<title>Node4&#45;&gt;Node3</title>
<path fill="none" stroke="midnightblue" d="M561.34,-291.44C537.6,-282.48 500.09,-268.31 473.26,-258.18"/>
<polygon fill="midnightblue" stroke="midnightblue" points="474.14,-254.77 463.55,-254.52 471.67,-261.32 474.14,-254.77"/>
</g>
<!-- Node5 -->
<g id="node5" class="node">
<title>Node5</title>
<g id="a_node5"><a xlink:href="JKRThread_8h.html" target="_top" xlink:title=" ">
<polygon fill="white" stroke="black" points="547,-235.5 547,-254.5 697,-254.5 697,-235.5 547,-235.5"/>
<text text-anchor="middle" x="622" y="-242.5" font-family="Helvetica,sans-Serif" font-size="10.00">JSystem/JKernel/JKRThread.h</text>
</a>
</g>
</g>
<!-- Node4&#45;&gt;Node5 -->
<g id="edge5" class="edge">
<title>Node4&#45;&gt;Node5</title>
<path fill="none" stroke="midnightblue" d="M590.27,-291.08C595.64,-283.46 603.52,-272.26 610.08,-262.94"/>
<polygon fill="midnightblue" stroke="midnightblue" points="612.95,-264.94 615.84,-254.75 607.22,-260.91 612.95,-264.94"/>
</g>
<!-- Node4&#45;&gt;Node8 -->
<g id="edge22" class="edge">
<title>Node4&#45;&gt;Node8</title>
<path fill="none" stroke="midnightblue" d="M631.56,-291.44C680.11,-279.84 752.79,-253.91 785,-199 817.27,-143.99 838.57,-104.37 797,-56 766.02,-19.95 628.22,-12.44 552.05,-11.09"/>
<polygon fill="midnightblue" stroke="midnightblue" points="551.77,-7.59 541.72,-10.94 551.67,-14.59 551.77,-7.59"/>
</g>
<!-- Node6 -->
<g id="node6" class="node">
<title>Node6</title>
<g id="a_node6"><a xlink:href="JKRDisposer_8h.html" target="_top" xlink:title=" ">
<polygon fill="white" stroke="black" points="314,-123.5 314,-142.5 472,-142.5 472,-123.5 314,-123.5"/>
<text text-anchor="middle" x="393" y="-130.5" font-family="Helvetica,sans-Serif" font-size="10.00">JSystem/JKernel/JKRDisposer.h</text>
</a>
</g>
</g>
<!-- Node5&#45;&gt;Node6 -->
<g id="edge6" class="edge">
<title>Node5&#45;&gt;Node6</title>
<path fill="none" stroke="midnightblue" d="M604.03,-235.37C563.98,-216.13 467.21,-169.65 419.92,-146.93"/>
<polygon fill="midnightblue" stroke="midnightblue" points="421.42,-143.77 410.89,-142.59 418.38,-150.08 421.42,-143.77"/>
</g>
<!-- Node7 -->
<g id="node7" class="node">
<title>Node7</title>
<g id="a_node7"><a xlink:href="JSUList_8h.html" target="_top" xlink:title=" ">
<polygon fill="white" stroke="black" points="246.5,-62 246.5,-81 389.5,-81 389.5,-62 246.5,-62"/>
<text text-anchor="middle" x="318" y="-69" font-family="Helvetica,sans-Serif" font-size="10.00">JSystem/JSupport/JSUList.h</text>
</a>
</g>
</g>
<!-- Node5&#45;&gt;Node7 -->
<g id="edge19" class="edge">
<title>Node5&#45;&gt;Node7</title>
<path fill="none" stroke="midnightblue" d="M592.01,-235.48C514.66,-213.37 313.8,-155.04 305,-143 293.79,-127.67 300.56,-105.57 307.86,-90.22"/>
<polygon fill="midnightblue" stroke="midnightblue" points="311.02,-91.72 312.55,-81.24 304.82,-88.48 311.02,-91.72"/>
</g>
<!-- Node5&#45;&gt;Node8 -->
<g id="edge21" class="edge">
<title>Node5&#45;&gt;Node8</title>
<path fill="none" stroke="midnightblue" d="M609.96,-235.48C581.25,-214.33 509.19,-156.1 483,-87 475.67,-67.65 483.47,-44.37 490.97,-28.72"/>
<polygon fill="midnightblue" stroke="midnightblue" points="494.18,-30.14 495.69,-19.65 487.97,-26.9 494.18,-30.14"/>
</g>
<!-- Node5&#45;&gt;Node9 -->
<g id="edge10" class="edge">
<title>Node5&#45;&gt;Node9</title>
<path fill="none" stroke="midnightblue" d="M635.17,-235.32C647.85,-226.98 667.23,-214.21 682.21,-204.35"/>
<polygon fill="midnightblue" stroke="midnightblue" points="684.43,-207.08 690.86,-198.65 680.58,-201.23 684.43,-207.08"/>
</g>
<!-- Node10 -->
<g id="node10" class="node">
<title>Node10</title>
<g id="a_node10"><a xlink:href="OS_8h.html" target="_top" xlink:title=" ">
<polygon fill="white" stroke="black" points="566,-123.5 566,-142.5 652,-142.5 652,-123.5 566,-123.5"/>
<text text-anchor="middle" x="609" y="-130.5" font-family="Helvetica,sans-Serif" font-size="10.00">dolphin/os/OS.h</text>
</a>
</g>
</g>
<!-- Node5&#45;&gt;Node10 -->
<g id="edge20" class="edge">
<title>Node5&#45;&gt;Node10</title>
<path fill="none" stroke="midnightblue" d="M620.98,-235.37C618.88,-217.62 614.04,-176.67 611.2,-152.6"/>
<polygon fill="midnightblue" stroke="midnightblue" points="614.66,-152.11 610.02,-142.59 607.71,-152.93 614.66,-152.11"/>
</g>
<!-- Node6&#45;&gt;Node7 -->
<g id="edge7" class="edge">
<title>Node6&#45;&gt;Node7</title>
<path fill="none" stroke="midnightblue" d="M382.25,-123.48C370.45,-114.11 351.26,-98.88 336.92,-87.51"/>
<polygon fill="midnightblue" stroke="midnightblue" points="338.74,-84.48 328.73,-81.01 334.38,-89.97 338.74,-84.48"/>
</g>
<!-- Node6&#45;&gt;Node8 -->
<g id="edge9" class="edge">
<title>Node6&#45;&gt;Node8</title>
<path fill="none" stroke="midnightblue" d="M398.79,-123.12C408.53,-108.44 429.19,-78.54 450,-56 459.89,-45.29 472.1,-34.45 482.09,-26.09"/>
<polygon fill="midnightblue" stroke="midnightblue" points="484.36,-28.76 489.87,-19.71 479.92,-23.35 484.36,-28.76"/>
</g>
<!-- Node7&#45;&gt;Node8 -->
<g id="edge8" class="edge">
<title>Node7&#45;&gt;Node8</title>
<path fill="none" stroke="midnightblue" d="M344.22,-61.98C376.02,-51.64 429.77,-34.16 465.32,-22.6"/>
<polygon fill="midnightblue" stroke="midnightblue" points="466.4,-25.93 474.83,-19.51 464.24,-19.27 466.4,-25.93"/>
</g>
<!-- Node9&#45;&gt;Node6 -->
<g id="edge11" class="edge">
<title>Node9&#45;&gt;Node6</title>
<path fill="none" stroke="midnightblue" d="M654.72,-179.44C599.67,-169.89 510.6,-154.42 451.92,-144.23"/>
<polygon fill="midnightblue" stroke="midnightblue" points="452.5,-140.78 442.05,-142.52 451.3,-147.68 452.5,-140.78"/>
</g>
<!-- Node9&#45;&gt;Node8 -->
<g id="edge18" class="edge">
<title>Node9&#45;&gt;Node8</title>
<path fill="none" stroke="midnightblue" d="M700.26,-179.25C689.85,-155.93 658.32,-91.58 613,-56 593.35,-40.57 567.7,-29.75 545.91,-22.6"/>
<polygon fill="midnightblue" stroke="midnightblue" points="546.8,-19.21 536.21,-19.56 544.71,-25.89 546.8,-19.21"/>
</g>
<!-- Node9&#45;&gt;Node10 -->
<g id="edge12" class="edge">
<title>Node9&#45;&gt;Node10</title>
<path fill="none" stroke="midnightblue" d="M688.74,-179.32C673.78,-170.82 650.75,-157.73 633.27,-147.8"/>
<polygon fill="midnightblue" stroke="midnightblue" points="634.65,-144.55 624.23,-142.65 631.19,-150.64 634.65,-144.55"/>
</g>
<!-- Node10&#45;&gt;Node8 -->
<g id="edge15" class="edge">
<title>Node10&#45;&gt;Node8</title>
<path fill="none" stroke="midnightblue" d="M609.5,-123.48C609.93,-108.29 608.74,-76.21 593,-56 580.92,-40.49 562.13,-29.99 544.66,-23.06"/>
<polygon fill="midnightblue" stroke="midnightblue" points="545.74,-19.73 535.15,-19.57 543.33,-26.3 545.74,-19.73"/>
</g>
<!-- Node11 -->
<g id="node11" class="node">
<title>Node11</title>
<g id="a_node11"><a xlink:href="____va__arg_8h.html" target="_top" xlink:title=" ">
<polygon fill="white" stroke="black" points="678,-56.5 678,-86.5 788,-86.5 788,-56.5 678,-56.5"/>
<text text-anchor="start" x="686" y="-74.5" font-family="Helvetica,sans-Serif" font-size="10.00">Runtime.PPCEABI.H/</text>
<text text-anchor="middle" x="733" y="-63.5" font-family="Helvetica,sans-Serif" font-size="10.00">__va_arg.h</text>
</a>
</g>
</g>
<!-- Node10&#45;&gt;Node11 -->
<g id="edge13" class="edge">
<title>Node10&#45;&gt;Node11</title>
<path fill="none" stroke="midnightblue" d="M626.77,-123.48C644.42,-115 672.07,-101.74 694.73,-90.86"/>
<polygon fill="midnightblue" stroke="midnightblue" points="696.27,-94 703.78,-86.52 693.25,-87.69 696.27,-94"/>
</g>
<!-- Node12 -->
<g id="node12" class="node">
<title>Node12</title>
<g id="a_node12"><a xlink:href="dvd_8h.html" target="_top" xlink:title=" ">
<polygon fill="white" stroke="black" points="492,-62 492,-81 584,-81 584,-62 492,-62"/>
<text text-anchor="middle" x="538" y="-69" font-family="Helvetica,sans-Serif" font-size="10.00">dolphin/dvd/dvd.h</text>
</a>
</g>
</g>
<!-- Node10&#45;&gt;Node12 -->
<g id="edge16" class="edge">
<title>Node10&#45;&gt;Node12</title>
<path fill="none" stroke="midnightblue" d="M598.83,-123.48C587.65,-114.11 569.48,-98.88 555.91,-87.51"/>
<polygon fill="midnightblue" stroke="midnightblue" points="558.07,-84.75 548.15,-81.01 553.57,-90.11 558.07,-84.75"/>
</g>
<!-- Node11&#45;&gt;Node8 -->
<g id="edge14" class="edge">
<title>Node11&#45;&gt;Node8</title>
<path fill="none" stroke="midnightblue" d="M678.31,-56.47C637.24,-45.94 581.77,-31.72 543.88,-22"/>
<polygon fill="midnightblue" stroke="midnightblue" points="544.72,-18.6 534.17,-19.51 542.98,-25.38 544.72,-18.6"/>
</g>
<!-- Node12&#45;&gt;Node8 -->
<g id="edge17" class="edge">
<title>Node12&#45;&gt;Node8</title>
<path fill="none" stroke="midnightblue" d="M532.7,-61.98C527.26,-53.23 518.64,-39.37 511.76,-28.31"/>
<polygon fill="midnightblue" stroke="midnightblue" points="514.54,-26.15 506.29,-19.51 508.6,-29.85 514.54,-26.15"/>
</g>
<!-- Node13&#45;&gt;Node8 -->
<g id="edge29" class="edge">
<title>Node13&#45;&gt;Node8</title>
<path fill="none" stroke="midnightblue" d="M181.5,-236.72C131.5,-230.21 72.68,-218.57 57,-199 51.44,-192.06 53.44,-187.14 57,-179 89.26,-105.23 117.33,-90.66 190,-56 234.97,-34.55 374.1,-20.8 450.12,-14.68"/>
<polygon fill="midnightblue" stroke="midnightblue" points="450.72,-18.15 460.41,-13.87 450.17,-11.17 450.72,-18.15"/>
</g>
<!-- Node13&#45;&gt;Node10 -->
<g id="edge28" class="edge">
<title>Node13&#45;&gt;Node10</title>
<path fill="none" stroke="midnightblue" d="M293.74,-235.49C328.32,-227.03 382.09,-213.29 428,-199 481.18,-182.45 541.91,-159.87 577.77,-146.14"/>
<polygon fill="midnightblue" stroke="midnightblue" points="579.12,-149.37 587.19,-142.52 576.6,-142.84 579.12,-149.37"/>
</g>
<!-- Node13&#45;&gt;Node12 -->
<g id="edge27" class="edge">
<title>Node13&#45;&gt;Node12</title>
<path fill="none" stroke="midnightblue" d="M292.17,-235.44C320.48,-227.73 361.37,-215.13 395,-199 405.28,-194.07 472.53,-150.64 481,-143 499,-126.76 515.98,-104.54 526.64,-89.42"/>
<polygon fill="midnightblue" stroke="midnightblue" points="529.63,-91.25 532.42,-81.03 523.86,-87.28 529.63,-91.25"/>
</g>
<!-- Node14 -->
<g id="node14" class="node">
<title>Node14</title>
<g id="a_node14"><a xlink:href="JKRFile_8h.html" target="_top" xlink:title=" ">
<polygon fill="white" stroke="black" points="250,-179.5 250,-198.5 386,-198.5 386,-179.5 250,-179.5"/>
<text text-anchor="middle" x="318" y="-186.5" font-family="Helvetica,sans-Serif" font-size="10.00">JSystem/JKernel/JKRFile.h</text>
</a>
</g>
</g>
<!-- Node13&#45;&gt;Node14 -->
<g id="edge24" class="edge">
<title>Node13&#45;&gt;Node14</title>
<path fill="none" stroke="midnightblue" d="M267.64,-235.32C276.51,-227.34 289.87,-215.31 300.61,-205.65"/>
<polygon fill="midnightblue" stroke="midnightblue" points="303.09,-208.13 308.18,-198.83 298.41,-202.92 303.09,-208.13"/>
</g>
<!-- Node14&#45;&gt;Node6 -->
<g id="edge25" class="edge">
<title>Node14&#45;&gt;Node6</title>
<path fill="none" stroke="midnightblue" d="M330.05,-179.32C341.46,-171.11 358.83,-158.6 372.43,-148.81"/>
<polygon fill="midnightblue" stroke="midnightblue" points="374.66,-151.52 380.73,-142.83 370.57,-145.84 374.66,-151.52"/>
</g>
<!-- Node14&#45;&gt;Node8 -->
<g id="edge26" class="edge">
<title>Node14&#45;&gt;Node8</title>
<path fill="none" stroke="midnightblue" d="M305.4,-179.39C274.78,-157.43 201.45,-98.12 237,-56 263.74,-24.32 381.35,-14.94 450.24,-12.16"/>
<polygon fill="midnightblue" stroke="midnightblue" points="450.58,-15.65 460.45,-11.79 450.33,-8.66 450.58,-15.65"/>
</g>
<!-- Node15&#45;&gt;Node6 -->
<g id="edge31" class="edge">
<title>Node15&#45;&gt;Node6</title>
<path fill="none" stroke="midnightblue" d="M187.66,-179.44C230.14,-170.04 298.43,-154.93 344.47,-144.74"/>
<polygon fill="midnightblue" stroke="midnightblue" points="345.51,-148.09 354.52,-142.52 344,-141.26 345.51,-148.09"/>
</g>
<!-- Node15&#45;&gt;Node7 -->
<g id="edge32" class="edge">
<title>Node15&#45;&gt;Node7</title>
<path fill="none" stroke="midnightblue" d="M161.7,-179.32C190.45,-159.67 260.78,-111.61 296.47,-87.22"/>
<polygon fill="midnightblue" stroke="midnightblue" points="298.87,-89.81 305.15,-81.28 294.92,-84.03 298.87,-89.81"/>
</g>
<!-- Node15&#45;&gt;Node8 -->
<g id="edge33" class="edge">
<title>Node15&#45;&gt;Node8</title>
<path fill="none" stroke="midnightblue" d="M151.08,-179.47C157.4,-155.53 178.77,-87.45 224,-56 259.72,-31.16 380.4,-19.08 450.12,-14.04"/>
<polygon fill="midnightblue" stroke="midnightblue" points="450.71,-17.51 460.44,-13.32 450.22,-10.53 450.71,-17.51"/>
</g>
<!-- Node16&#45;&gt;Node8 -->
<g id="edge36" class="edge">
<title>Node16&#45;&gt;Node8</title>
<path fill="none" stroke="midnightblue" d="M43.05,-291.48C29.31,-273.75 0,-231.12 0,-190 0,-190 0,-190 0,-132 0,-40.07 322.75,-17.76 450.16,-12.54"/>
<polygon fill="midnightblue" stroke="midnightblue" points="450.57,-16.02 460.43,-12.14 450.3,-9.03 450.57,-16.02"/>
</g>
<!-- Node18&#45;&gt;Node8 -->
<g id="edge42" class="edge">
<title>Node18&#45;&gt;Node8</title>
<path fill="none" stroke="midnightblue" d="M869.03,-123.2C864.89,-106.95 853.66,-72.4 830,-56 786.07,-25.56 633.17,-15.61 552.21,-12.43"/>
<polygon fill="midnightblue" stroke="midnightblue" points="551.88,-8.92 541.76,-12.05 551.62,-15.91 551.88,-8.92"/>
</g>
<!-- Node18&#45;&gt;Node11 -->
<g id="edge41" class="edge">
<title>Node18&#45;&gt;Node11</title>
<path fill="none" stroke="midnightblue" d="M851.23,-123.48C831.4,-114.93 800.26,-101.5 774.92,-90.57"/>
<polygon fill="midnightblue" stroke="midnightblue" points="776.09,-87.27 765.52,-86.52 773.32,-93.7 776.09,-87.27"/>
</g>
</g>
</svg>
