<?xml version="1.0" encoding="UTF-8" standalone="no"?>
<!DOCTYPE svg PUBLIC "-//W3C//DTD SVG 1.1//EN"
 "http://www.w3.org/Graphics/SVG/1.1/DTD/svg11.dtd">
<!-- Generated by graphviz version 2.44.0 ()
 -->
<!-- Title: libs/JSystem/JKernel/JKRAramPiece.cpp Pages: 1 -->
<!--zoomable 610 -->
<svg id="main" version="1.1" xmlns="http://www.w3.org/2000/svg" xmlns:xlink="http://www.w3.org/1999/xlink" xml:space="preserve" onload="init(evt)">
<style type="text/css"><![CDATA[
.edge:hover path { stroke: red; }
.edge:hover polygon { stroke: red; fill: red; }
]]></style>
<script type="text/javascript"><![CDATA[
var edges = document.getElementsByTagName('g');
if (edges && edges.length) {
  for (var i=0;i<edges.length;i++) {
    if (edges[i].id.substr(0,4)=='edge') {
      edges[i].setAttribute('class','edge');
    }
  }
}
]]></script>
        <defs>
                <circle id="rim" cx="0" cy="0" r="7"/>
                <circle id="rim2" cx="0" cy="0" r="3.5"/>
                <g id="zoomPlus">
                        <use xlink:href="#rim" fill="#404040">
                                <set attributeName="fill" to="#808080" begin="zoomplus.mouseover" end="zoomplus.mouseout"/>
                        </use>
                        <path d="M-4,0h8M0,-4v8" fill="none" stroke="white" stroke-width="1.5" pointer-events="none"/>
                </g>
                <g id="zoomMin">
                        <use xlink:href="#rim" fill="#404040">
                                <set attributeName="fill" to="#808080" begin="zoomminus.mouseover" end="zoomminus.mouseout"/>
                        </use>
                        <path d="M-4,0h8" fill="none" stroke="white" stroke-width="1.5" pointer-events="none"/>
                </g>
                <g id="dirArrow">
                        <path fill="none" stroke="white" stroke-width="1.5" d="M0,-3.0v7 M-2.5,-0.5L0,-3.0L2.5,-0.5"/>
                </g>
               <g id="resetDef">
                       <use xlink:href="#rim2" fill="#404040">
                               <set attributeName="fill" to="#808080" begin="reset.mouseover" end="reset.mouseout"/>
                       </use>
               </g>
        </defs>

<script type="text/javascript">
var viewWidth = 1933;
var viewHeight = 610;
var sectionId = 'dynsection-0';
</script>
<script xlink:href="svgpan.js"/>
<svg id="graph" class="graph">
<g id="viewport">
<title>libs/JSystem/JKernel/JKRAramPiece.cpp</title>
<polygon fill="white" stroke="transparent" points="-4,4 -4,-606 1929,-606 1929,4 -4,4"/>
<!-- Node1 -->
<g id="node1" class="node">
<title>Node1</title>
<g id="a_node1"><a xlink:title=" ">
<polygon fill="#bfbfbf" stroke="black" points="994.5,-571.5 994.5,-601.5 1103.5,-601.5 1103.5,-571.5 994.5,-571.5"/>
<text text-anchor="start" x="1002.5" y="-589.5" font-family="Helvetica,sans-Serif" font-size="10.00">libs/JSystem/JKernel</text>
<text text-anchor="middle" x="1049" y="-578.5" font-family="Helvetica,sans-Serif" font-size="10.00">/JKRAramPiece.cpp</text>
</a>
</g>
</g>
<!-- Node2 -->
<g id="node2" class="node">
<title>Node2</title>
<g id="a_node2"><a xlink:href="JKRAramPiece_8h.html" target="_top" xlink:title=" ">
<polygon fill="white" stroke="black" points="28,-174 28,-193 196,-193 196,-174 28,-174"/>
<text text-anchor="middle" x="112" y="-181" font-family="Helvetica,sans-Serif" font-size="10.00">JSystem/JKernel/JKRAramPiece.h</text>
</a>
</g>
</g>
<!-- Node1&#45;&gt;Node2 -->
<g id="edge1" class="edge">
<title>Node1&#45;&gt;Node2</title>
<path fill="none" stroke="midnightblue" d="M994.36,-584.93C838.73,-582.84 395.44,-573.58 256,-535 195.27,-518.2 130,-533.01 130,-470 130,-470 130,-470 130,-300 130,-265.45 122.04,-225.78 116.71,-203.07"/>
<polygon fill="midnightblue" stroke="midnightblue" points="120.05,-202.01 114.28,-193.12 113.25,-203.67 120.05,-202.01"/>
</g>
<!-- Node4 -->
<g id="node4" class="node">
<title>Node4</title>
<g id="a_node4"><a xlink:href="types_8h.html" target="_top" xlink:title=" ">
<polygon fill="white" stroke="black" points="967.5,-0.5 967.5,-19.5 1048.5,-19.5 1048.5,-0.5 967.5,-0.5"/>
<text text-anchor="middle" x="1008" y="-7.5" font-family="Helvetica,sans-Serif" font-size="10.00">dolphin/types.h</text>
</a>
</g>
</g>
<!-- Node1&#45;&gt;Node4 -->
<g id="edge76" class="edge">
<title>Node1&#45;&gt;Node4</title>
<path fill="none" stroke="midnightblue" d="M994.44,-585.28C779.12,-583.71 0,-571.06 0,-470 0,-470 0,-470 0,-121 0,-72.38 42.2,-72.33 88,-56 169.91,-26.79 776.88,-14.73 957.46,-11.76"/>
<polygon fill="midnightblue" stroke="midnightblue" points="957.55,-15.26 967.49,-11.6 957.43,-8.26 957.55,-15.26"/>
</g>
<!-- Node8 -->
<g id="node8" class="node">
<title>Node8</title>
<g id="a_node8"><a xlink:href="JKRAram_8h.html" target="_top" xlink:title=" ">
<polygon fill="white" stroke="black" points="705.5,-515.5 705.5,-534.5 848.5,-534.5 848.5,-515.5 705.5,-515.5"/>
<text text-anchor="middle" x="777" y="-522.5" font-family="Helvetica,sans-Serif" font-size="10.00">JSystem/JKernel/JKRAram.h</text>
</a>
</g>
</g>
<!-- Node1&#45;&gt;Node8 -->
<g id="edge11" class="edge">
<title>Node1&#45;&gt;Node8</title>
<path fill="none" stroke="midnightblue" d="M994.28,-573.53C945.14,-562.78 873.64,-547.14 826.25,-536.77"/>
<polygon fill="midnightblue" stroke="midnightblue" points="826.75,-533.3 816.23,-534.58 825.25,-540.14 826.75,-533.3"/>
</g>
<!-- Node13 -->
<g id="node13" class="node">
<title>Node13</title>
<g id="a_node13"><a xlink:href="JKRDecomp_8h.html" target="_top" xlink:title=" ">
<polygon fill="white" stroke="black" points="290,-291.5 290,-310.5 446,-310.5 446,-291.5 290,-291.5"/>
<text text-anchor="middle" x="368" y="-298.5" font-family="Helvetica,sans-Serif" font-size="10.00">JSystem/JKernel/JKRDecomp.h</text>
</a>
</g>
</g>
<!-- Node1&#45;&gt;Node13 -->
<g id="edge54" class="edge">
<title>Node1&#45;&gt;Node13</title>
<path fill="none" stroke="midnightblue" d="M994.36,-583.96C804.66,-577.92 186,-551.91 186,-470 186,-470 186,-470 186,-412 186,-354.42 253.54,-326.17 306.33,-312.89"/>
<polygon fill="midnightblue" stroke="midnightblue" points="307.42,-316.23 316.33,-310.5 305.79,-309.42 307.42,-316.23"/>
</g>
<!-- Node16 -->
<g id="node16" class="node">
<title>Node16</title>
<g id="a_node16"><a xlink:href="JKRHeap_8h.html" target="_top" xlink:title=" ">
<polygon fill="white" stroke="black" points="778.5,-174 778.5,-193 921.5,-193 921.5,-174 778.5,-174"/>
<text text-anchor="middle" x="850" y="-181" font-family="Helvetica,sans-Serif" font-size="10.00">JSystem/JKernel/JKRHeap.h</text>
</a>
</g>
</g>
<!-- Node1&#45;&gt;Node16 -->
<g id="edge55" class="edge">
<title>Node1&#45;&gt;Node16</title>
<path fill="none" stroke="midnightblue" d="M1103.6,-584.19C1178.79,-579.15 1305,-557.64 1305,-470 1305,-470 1305,-470 1305,-356 1305,-312.11 1004.71,-226.34 892.03,-195.71"/>
<polygon fill="midnightblue" stroke="midnightblue" points="892.92,-192.32 882.36,-193.09 891.1,-199.08 892.92,-192.32"/>
</g>
<!-- Node22 -->
<g id="node22" class="node">
<title>Node22</title>
<g id="a_node22"><a xlink:href="JUTException_8h.html" target="_top" xlink:title=" ">
<polygon fill="white" stroke="black" points="1335.5,-291.5 1335.5,-310.5 1494.5,-310.5 1494.5,-291.5 1335.5,-291.5"/>
<text text-anchor="middle" x="1415" y="-298.5" font-family="Helvetica,sans-Serif" font-size="10.00">JSystem/JUtility/JUTException.h</text>
</a>
</g>
</g>
<!-- Node1&#45;&gt;Node22 -->
<g id="edge56" class="edge">
<title>Node1&#45;&gt;Node22</title>
<path fill="none" stroke="midnightblue" d="M1103.71,-581.59C1172.98,-575.59 1287.16,-561.87 1319,-535 1342.53,-515.14 1343,-500.8 1343,-470 1343,-470 1343,-470 1343,-412 1343,-372.94 1375.18,-336.94 1396.51,-317.37"/>
<polygon fill="midnightblue" stroke="midnightblue" points="1398.88,-319.94 1404.06,-310.7 1394.25,-314.7 1398.88,-319.94"/>
</g>
<!-- Node28 -->
<g id="node28" class="node">
<title>Node28</title>
<g id="a_node28"><a xlink:href="dol2asm_8h.html" target="_top" xlink:title=" ">
<polygon fill="white" stroke="black" points="1371.5,-515.5 1371.5,-534.5 1432.5,-534.5 1432.5,-515.5 1371.5,-515.5"/>
<text text-anchor="middle" x="1402" y="-522.5" font-family="Helvetica,sans-Serif" font-size="10.00">dol2asm.h</text>
</a>
</g>
</g>
<!-- Node1&#45;&gt;Node28 -->
<g id="edge73" class="edge">
<title>Node1&#45;&gt;Node28</title>
<path fill="none" stroke="midnightblue" d="M1103.62,-577.13C1165.27,-567.55 1268.5,-551.1 1357,-535 1358.28,-534.77 1359.58,-534.53 1360.89,-534.28"/>
<polygon fill="midnightblue" stroke="midnightblue" points="1361.88,-537.66 1371.04,-532.34 1360.56,-530.78 1361.88,-537.66"/>
</g>
<!-- Node29 -->
<g id="node29" class="node">
<title>Node29</title>
<g id="a_node29"><a xlink:href="OSCache_8h.html" target="_top" xlink:title=" ">
<polygon fill="white" stroke="black" points="1740.5,-459.5 1740.5,-478.5 1853.5,-478.5 1853.5,-459.5 1740.5,-459.5"/>
<text text-anchor="middle" x="1797" y="-466.5" font-family="Helvetica,sans-Serif" font-size="10.00">dolphin/os/OSCache.h</text>
</a>
</g>
</g>
<!-- Node1&#45;&gt;Node29 -->
<g id="edge74" class="edge">
<title>Node1&#45;&gt;Node29</title>
<path fill="none" stroke="midnightblue" d="M1103.67,-579.38C1179.54,-570.67 1320.99,-553.67 1441,-535 1549.06,-518.19 1674.76,-494.19 1744.15,-480.55"/>
<polygon fill="midnightblue" stroke="midnightblue" points="1745.24,-483.9 1754.38,-478.53 1743.89,-477.03 1745.24,-483.9"/>
</g>
<!-- Node3 -->
<g id="node3" class="node">
<title>Node3</title>
<g id="a_node3"><a xlink:href="JSUList_8h.html" target="_top" xlink:title=" ">
<polygon fill="white" stroke="black" points="529.5,-56.5 529.5,-75.5 672.5,-75.5 672.5,-56.5 529.5,-56.5"/>
<text text-anchor="middle" x="601" y="-63.5" font-family="Helvetica,sans-Serif" font-size="10.00">JSystem/JSupport/JSUList.h</text>
</a>
</g>
</g>
<!-- Node2&#45;&gt;Node3 -->
<g id="edge2" class="edge">
<title>Node2&#45;&gt;Node3</title>
<path fill="none" stroke="midnightblue" d="M139.17,-173.98C184.86,-159.85 280.12,-131.21 362,-112 421.48,-98.04 490.08,-85.49 538.49,-77.21"/>
<polygon fill="midnightblue" stroke="midnightblue" points="539.23,-80.63 548.5,-75.51 538.06,-73.73 539.23,-80.63"/>
</g>
<!-- Node2&#45;&gt;Node4 -->
<g id="edge10" class="edge">
<title>Node2&#45;&gt;Node4</title>
<path fill="none" stroke="midnightblue" d="M107.68,-174C96.86,-151.35 71.58,-89.02 103,-56 132.62,-24.87 770.93,-14.1 957.32,-11.61"/>
<polygon fill="midnightblue" stroke="midnightblue" points="957.45,-15.11 967.4,-11.48 957.36,-8.11 957.45,-15.11"/>
</g>
<!-- Node5 -->
<g id="node5" class="node">
<title>Node5</title>
<g id="a_node5"><a xlink:href="arq_8h.html" target="_top" xlink:title=" ">
<polygon fill="white" stroke="black" points="112.5,-56.5 112.5,-75.5 195.5,-75.5 195.5,-56.5 112.5,-56.5"/>
<text text-anchor="middle" x="154" y="-63.5" font-family="Helvetica,sans-Serif" font-size="10.00">dolphin/ar/arq.h</text>
</a>
</g>
</g>
<!-- Node2&#45;&gt;Node5 -->
<g id="edge4" class="edge">
<title>Node2&#45;&gt;Node5</title>
<path fill="none" stroke="midnightblue" d="M115.16,-173.82C121.97,-155.09 138.17,-110.55 147.35,-85.29"/>
<polygon fill="midnightblue" stroke="midnightblue" points="150.68,-86.38 150.81,-75.78 144.1,-83.98 150.68,-86.38"/>
</g>
<!-- Node6 -->
<g id="node6" class="node">
<title>Node6</title>
<g id="a_node6"><a xlink:href="OS_8h.html" target="_top" xlink:title=" ">
<polygon fill="white" stroke="black" points="1083,-112.5 1083,-131.5 1169,-131.5 1169,-112.5 1083,-112.5"/>
<text text-anchor="middle" x="1126" y="-119.5" font-family="Helvetica,sans-Serif" font-size="10.00">dolphin/os/OS.h</text>
</a>
</g>
</g>
<!-- Node2&#45;&gt;Node6 -->
<g id="edge6" class="edge">
<title>Node2&#45;&gt;Node6</title>
<path fill="none" stroke="midnightblue" d="M196.28,-177.55C398.33,-165.7 905.92,-135.91 1072.28,-126.15"/>
<polygon fill="midnightblue" stroke="midnightblue" points="1072.96,-129.62 1082.74,-125.54 1072.55,-122.63 1072.96,-129.62"/>
</g>
<!-- Node3&#45;&gt;Node4 -->
<g id="edge3" class="edge">
<title>Node3&#45;&gt;Node4</title>
<path fill="none" stroke="midnightblue" d="M665.49,-56.44C746.41,-45.71 883.51,-27.52 957.32,-17.72"/>
<polygon fill="midnightblue" stroke="midnightblue" points="957.86,-21.18 967.31,-16.4 956.94,-14.24 957.86,-21.18"/>
</g>
<!-- Node5&#45;&gt;Node4 -->
<g id="edge5" class="edge">
<title>Node5&#45;&gt;Node4</title>
<path fill="none" stroke="midnightblue" d="M195.53,-57.84C200.4,-57.14 205.3,-56.51 210,-56 491.11,-25.57 830.31,-15.07 957.01,-12.05"/>
<polygon fill="midnightblue" stroke="midnightblue" points="957.27,-15.55 967.19,-11.82 957.11,-8.55 957.27,-15.55"/>
</g>
<!-- Node6&#45;&gt;Node4 -->
<g id="edge7" class="edge">
<title>Node6&#45;&gt;Node4</title>
<path fill="none" stroke="midnightblue" d="M1114.73,-112.4C1103.38,-103.6 1085.53,-89.36 1071,-76 1053.75,-60.15 1035.23,-40.72 1022.77,-27.25"/>
<polygon fill="midnightblue" stroke="midnightblue" points="1025.2,-24.72 1015.85,-19.72 1020.04,-29.46 1025.2,-24.72"/>
</g>
<!-- Node7 -->
<g id="node7" class="node">
<title>Node7</title>
<g id="a_node7"><a xlink:href="dvd_8h.html" target="_top" xlink:title=" ">
<polygon fill="white" stroke="black" points="1080,-56.5 1080,-75.5 1172,-75.5 1172,-56.5 1080,-56.5"/>
<text text-anchor="middle" x="1126" y="-63.5" font-family="Helvetica,sans-Serif" font-size="10.00">dolphin/dvd/dvd.h</text>
</a>
</g>
</g>
<!-- Node6&#45;&gt;Node7 -->
<g id="edge8" class="edge">
<title>Node6&#45;&gt;Node7</title>
<path fill="none" stroke="midnightblue" d="M1126,-112.08C1126,-105.01 1126,-94.86 1126,-85.99"/>
<polygon fill="midnightblue" stroke="midnightblue" points="1129.5,-85.75 1126,-75.75 1122.5,-85.75 1129.5,-85.75"/>
</g>
<!-- Node7&#45;&gt;Node4 -->
<g id="edge9" class="edge">
<title>Node7&#45;&gt;Node4</title>
<path fill="none" stroke="midnightblue" d="M1107.3,-56.44C1088.06,-47.64 1057.85,-33.81 1035.8,-23.72"/>
<polygon fill="midnightblue" stroke="midnightblue" points="1037.16,-20.5 1026.61,-19.52 1034.25,-26.86 1037.16,-20.5"/>
</g>
<!-- Node8&#45;&gt;Node4 -->
<g id="edge12" class="edge">
<title>Node8&#45;&gt;Node4</title>
<path fill="none" stroke="midnightblue" d="M705.27,-524.55C555.64,-523.75 224,-511.03 224,-414 224,-414 224,-414 224,-121 224,-82.58 246.51,-72.93 281,-56 341.27,-26.41 801.86,-14.95 957.1,-11.9"/>
<polygon fill="midnightblue" stroke="midnightblue" points="957.38,-15.39 967.31,-11.7 957.24,-8.39 957.38,-15.39"/>
</g>
<!-- Node9 -->
<g id="node9" class="node">
<title>Node9</title>
<g id="a_node9"><a xlink:href="JKRAramHeap_8h.html" target="_top" xlink:title=" ">
<polygon fill="white" stroke="black" points="804.5,-459.5 804.5,-478.5 971.5,-478.5 971.5,-459.5 804.5,-459.5"/>
<text text-anchor="middle" x="888" y="-466.5" font-family="Helvetica,sans-Serif" font-size="10.00">JSystem/JKernel/JKRAramHeap.h</text>
</a>
</g>
</g>
<!-- Node8&#45;&gt;Node9 -->
<g id="edge13" class="edge">
<title>Node8&#45;&gt;Node9</title>
<path fill="none" stroke="midnightblue" d="M794.83,-515.32C812.72,-506.62 840.48,-493.12 861.05,-483.11"/>
<polygon fill="midnightblue" stroke="midnightblue" points="862.75,-486.18 870.21,-478.65 859.69,-479.88 862.75,-486.18"/>
</g>
<!-- Node14 -->
<g id="node14" class="node">
<title>Node14</title>
<g id="a_node14"><a xlink:href="JKRThread_8h.html" target="_top" xlink:title=" ">
<polygon fill="white" stroke="black" points="637,-235.5 637,-254.5 787,-254.5 787,-235.5 637,-235.5"/>
<text text-anchor="middle" x="712" y="-242.5" font-family="Helvetica,sans-Serif" font-size="10.00">JSystem/JKernel/JKRThread.h</text>
</a>
</g>
</g>
<!-- Node8&#45;&gt;Node14 -->
<g id="edge53" class="edge">
<title>Node8&#45;&gt;Node14</title>
<path fill="none" stroke="midnightblue" d="M777,-515.44C777,-496.94 777,-451.81 777,-414 777,-414 777,-414 777,-356 777,-318.18 748.16,-281.94 728.91,-261.96"/>
<polygon fill="midnightblue" stroke="midnightblue" points="731.14,-259.24 721.59,-254.66 726.2,-264.2 731.14,-259.24"/>
</g>
<!-- Node21 -->
<g id="node21" class="node">
<title>Node21</title>
<g id="a_node21"><a xlink:href="JKRDvdRipper_8h.html" target="_top" xlink:title=" ">
<polygon fill="white" stroke="black" points="280.5,-347.5 280.5,-366.5 445.5,-366.5 445.5,-347.5 280.5,-347.5"/>
<text text-anchor="middle" x="363" y="-354.5" font-family="Helvetica,sans-Serif" font-size="10.00">JSystem/JKernel/JKRDvdRipper.h</text>
</a>
</g>
</g>
<!-- Node8&#45;&gt;Node21 -->
<g id="edge50" class="edge">
<title>Node8&#45;&gt;Node21</title>
<path fill="none" stroke="midnightblue" d="M755.61,-515.42C687.34,-488.05 474.36,-402.65 394.06,-370.45"/>
<polygon fill="midnightblue" stroke="midnightblue" points="395.09,-367.1 384.51,-366.62 392.49,-373.59 395.09,-367.1"/>
</g>
<!-- Node9&#45;&gt;Node4 -->
<g id="edge49" class="edge">
<title>Node9&#45;&gt;Node4</title>
<path fill="none" stroke="midnightblue" d="M971.75,-461.22C1020,-455.21 1081,-443.96 1132,-423 1228.46,-383.36 1235.63,-343.04 1326,-291 1358.04,-272.55 1372.16,-278.14 1401,-255 1425.69,-235.19 1434.65,-228.91 1445,-199 1468.8,-130.18 1432.36,-83.68 1365,-56 1310.71,-33.69 1143.77,-19.89 1058.81,-14.12"/>
<polygon fill="midnightblue" stroke="midnightblue" points="1058.83,-10.62 1048.62,-13.44 1058.36,-17.6 1058.83,-10.62"/>
</g>
<!-- Node9&#45;&gt;Node6 -->
<g id="edge48" class="edge">
<title>Node9&#45;&gt;Node6</title>
<path fill="none" stroke="midnightblue" d="M971.52,-465.33C1045.55,-457.96 1142,-433.81 1142,-358 1142,-358 1142,-358 1142,-244 1142,-207.58 1134.79,-165.52 1130.05,-141.81"/>
<polygon fill="midnightblue" stroke="midnightblue" points="1133.42,-140.83 1127.96,-131.75 1126.57,-142.26 1133.42,-140.83"/>
</g>
<!-- Node10 -->
<g id="node10" class="node">
<title>Node10</title>
<g id="a_node10"><a xlink:href="JKRAramBlock_8h.html" target="_top" xlink:title=" ">
<polygon fill="white" stroke="black" points="558,-403.5 558,-422.5 726,-422.5 726,-403.5 558,-403.5"/>
<text text-anchor="middle" x="642" y="-410.5" font-family="Helvetica,sans-Serif" font-size="10.00">JSystem/JKernel/JKRAramBlock.h</text>
</a>
</g>
</g>
<!-- Node9&#45;&gt;Node10 -->
<g id="edge14" class="edge">
<title>Node9&#45;&gt;Node10</title>
<path fill="none" stroke="midnightblue" d="M849.02,-459.44C806.11,-450.02 737.05,-434.87 690.63,-424.68"/>
<polygon fill="midnightblue" stroke="midnightblue" points="691.31,-421.24 680.8,-422.52 689.81,-428.08 691.31,-421.24"/>
</g>
<!-- Node15 -->
<g id="node15" class="node">
<title>Node15</title>
<g id="a_node15"><a xlink:href="JKRDisposer_8h.html" target="_top" xlink:title=" ">
<polygon fill="white" stroke="black" points="761,-112.5 761,-131.5 919,-131.5 919,-112.5 761,-112.5"/>
<text text-anchor="middle" x="840" y="-119.5" font-family="Helvetica,sans-Serif" font-size="10.00">JSystem/JKernel/JKRDisposer.h</text>
</a>
</g>
</g>
<!-- Node9&#45;&gt;Node15 -->
<g id="edge47" class="edge">
<title>Node9&#45;&gt;Node15</title>
<path fill="none" stroke="midnightblue" d="M876.91,-459.33C856.49,-442.29 815,-402.24 815,-358 815,-358 815,-358 815,-300 815,-269.9 809.47,-261.92 796,-235 787.05,-217.11 775.32,-217.97 769,-199 764.64,-185.93 762.36,-180.07 769,-168 776.89,-153.66 791.49,-143.25 805.4,-136.08"/>
<polygon fill="midnightblue" stroke="midnightblue" points="807.29,-139.06 814.84,-131.62 804.3,-132.73 807.29,-139.06"/>
</g>
<!-- Node10&#45;&gt;Node3 -->
<g id="edge46" class="edge">
<title>Node10&#45;&gt;Node3</title>
<path fill="none" stroke="midnightblue" d="M612.45,-403.41C589.38,-395.9 557.14,-383.6 532,-367 491.87,-340.5 495.6,-316.76 455,-291 415.82,-266.14 383.56,-293.05 357,-255 296.56,-168.41 474.55,-103.54 559.09,-78.41"/>
<polygon fill="midnightblue" stroke="midnightblue" points="560.3,-81.7 568.92,-75.54 558.34,-74.98 560.3,-81.7"/>
</g>
<!-- Node10&#45;&gt;Node4 -->
<g id="edge15" class="edge">
<title>Node10&#45;&gt;Node4</title>
<path fill="none" stroke="midnightblue" d="M688.91,-403.46C840.21,-375.69 1309.04,-287.87 1370,-255 1401.26,-238.15 1413.26,-231.75 1427,-199 1490.21,-48.28 1183.54,-18.39 1058.81,-12.47"/>
<polygon fill="midnightblue" stroke="midnightblue" points="1058.88,-8.97 1048.74,-12.02 1058.57,-15.96 1058.88,-8.97"/>
</g>
<!-- Node11 -->
<g id="node11" class="node">
<title>Node11</title>
<g id="a_node11"><a xlink:href="JKRArchive_8h.html" target="_top" xlink:title=" ">
<polygon fill="white" stroke="black" points="541.5,-347.5 541.5,-366.5 694.5,-366.5 694.5,-347.5 541.5,-347.5"/>
<text text-anchor="middle" x="618" y="-354.5" font-family="Helvetica,sans-Serif" font-size="10.00">JSystem/JKernel/JKRArchive.h</text>
</a>
</g>
</g>
<!-- Node10&#45;&gt;Node11 -->
<g id="edge16" class="edge">
<title>Node10&#45;&gt;Node11</title>
<path fill="none" stroke="midnightblue" d="M638.04,-403.08C634.79,-395.77 630.08,-385.18 626.05,-376.1"/>
<polygon fill="midnightblue" stroke="midnightblue" points="629.15,-374.47 621.89,-366.75 622.75,-377.31 629.15,-374.47"/>
</g>
<!-- Node12 -->
<g id="node12" class="node">
<title>Node12</title>
<g id="a_node12"><a xlink:href="JKRCompression_8h.html" target="_top" xlink:title=" ">
<polygon fill="white" stroke="black" points="366.5,-235.5 366.5,-254.5 543.5,-254.5 543.5,-235.5 366.5,-235.5"/>
<text text-anchor="middle" x="455" y="-242.5" font-family="Helvetica,sans-Serif" font-size="10.00">JSystem/JKernel/JKRCompression.h</text>
</a>
</g>
</g>
<!-- Node11&#45;&gt;Node12 -->
<g id="edge17" class="edge">
<title>Node11&#45;&gt;Node12</title>
<path fill="none" stroke="midnightblue" d="M598.27,-347.39C580.15,-339.11 552.87,-325.72 531,-311 508.88,-296.11 485.95,-275.7 471.14,-261.74"/>
<polygon fill="midnightblue" stroke="midnightblue" points="473.46,-259.11 463.81,-254.73 468.62,-264.17 473.46,-259.11"/>
</g>
<!-- Node11&#45;&gt;Node13 -->
<g id="edge18" class="edge">
<title>Node11&#45;&gt;Node13</title>
<path fill="none" stroke="midnightblue" d="M578.39,-347.44C534.77,-338.02 464.6,-322.87 417.42,-312.68"/>
<polygon fill="midnightblue" stroke="midnightblue" points="417.94,-309.21 407.43,-310.52 416.46,-316.05 417.94,-309.21"/>
</g>
<!-- Node11&#45;&gt;Node16 -->
<g id="edge43" class="edge">
<title>Node11&#45;&gt;Node16</title>
<path fill="none" stroke="midnightblue" d="M638.9,-347.45C674.02,-332.42 745.9,-298.64 796,-255 813.91,-239.4 829.81,-217.05 839.65,-201.72"/>
<polygon fill="midnightblue" stroke="midnightblue" points="842.63,-203.55 844.95,-193.21 836.69,-199.85 842.63,-203.55"/>
</g>
<!-- Node17 -->
<g id="node17" class="node">
<title>Node17</title>
<g id="a_node17"><a xlink:href="JKRDvdFile_8h.html" target="_top" xlink:title=" ">
<polygon fill="white" stroke="black" points="1208.5,-235.5 1208.5,-254.5 1361.5,-254.5 1361.5,-235.5 1208.5,-235.5"/>
<text text-anchor="middle" x="1285" y="-242.5" font-family="Helvetica,sans-Serif" font-size="10.00">JSystem/JKernel/JKRDvdFile.h</text>
</a>
</g>
</g>
<!-- Node11&#45;&gt;Node17 -->
<g id="edge32" class="edge">
<title>Node11&#45;&gt;Node17</title>
<path fill="none" stroke="midnightblue" d="M669.78,-347.46C790.93,-327.48 1092.4,-277.76 1223.02,-256.22"/>
<polygon fill="midnightblue" stroke="midnightblue" points="1223.95,-259.62 1233.25,-254.53 1222.81,-252.71 1223.95,-259.62"/>
</g>
<!-- Node19 -->
<g id="node19" class="node">
<title>Node19</title>
<g id="a_node19"><a xlink:href="JKRFileLoader_8h.html" target="_top" xlink:title=" ">
<polygon fill="white" stroke="black" points="518,-174 518,-193 684,-193 684,-174 518,-174"/>
<text text-anchor="middle" x="601" y="-181" font-family="Helvetica,sans-Serif" font-size="10.00">JSystem/JKernel/JKRFileLoader.h</text>
</a>
</g>
</g>
<!-- Node11&#45;&gt;Node19 -->
<g id="edge39" class="edge">
<title>Node11&#45;&gt;Node19</title>
<path fill="none" stroke="midnightblue" d="M617.13,-347.26C614.5,-320.65 606.52,-240.21 602.87,-203.34"/>
<polygon fill="midnightblue" stroke="midnightblue" points="606.31,-202.63 601.84,-193.02 599.35,-203.32 606.31,-202.63"/>
</g>
<!-- Node20 -->
<g id="node20" class="node">
<title>Node20</title>
<g id="a_node20"><a xlink:href="global_8h.html" target="_top" xlink:title=" ">
<polygon fill="white" stroke="black" points="540,-291.5 540,-310.5 590,-310.5 590,-291.5 540,-291.5"/>
<text text-anchor="middle" x="565" y="-298.5" font-family="Helvetica,sans-Serif" font-size="10.00">global.h</text>
</a>
</g>
</g>
<!-- Node11&#45;&gt;Node20 -->
<g id="edge44" class="edge">
<title>Node11&#45;&gt;Node20</title>
<path fill="none" stroke="midnightblue" d="M609.25,-347.08C601.53,-339.22 590.1,-327.57 580.78,-318.08"/>
<polygon fill="midnightblue" stroke="midnightblue" points="583.09,-315.44 573.59,-310.75 578.1,-320.34 583.09,-315.44"/>
</g>
<!-- Node13&#45;&gt;Node4 -->
<g id="edge31" class="edge">
<title>Node13&#45;&gt;Node4</title>
<path fill="none" stroke="midnightblue" d="M357.49,-291.34C347.87,-282.93 333.84,-269.36 325,-255 307.57,-226.69 300,-217.75 300,-184.5 300,-184.5 300,-184.5 300,-121 300,-39.28 392.29,-74.04 472,-56 647.1,-16.38 861.48,-10.89 957.41,-10.61"/>
<polygon fill="midnightblue" stroke="midnightblue" points="957.42,-14.11 967.41,-10.6 957.41,-7.11 957.42,-14.11"/>
</g>
<!-- Node13&#45;&gt;Node12 -->
<g id="edge19" class="edge">
<title>Node13&#45;&gt;Node12</title>
<path fill="none" stroke="midnightblue" d="M381.98,-291.32C395.55,-282.9 416.38,-269.97 432.32,-260.07"/>
<polygon fill="midnightblue" stroke="midnightblue" points="434.41,-262.9 441.06,-254.65 430.71,-256.95 434.41,-262.9"/>
</g>
<!-- Node13&#45;&gt;Node14 -->
<g id="edge20" class="edge">
<title>Node13&#45;&gt;Node14</title>
<path fill="none" stroke="midnightblue" d="M422.51,-291.44C483.65,-281.85 582.74,-266.29 647.64,-256.1"/>
<polygon fill="midnightblue" stroke="midnightblue" points="648.41,-259.52 657.75,-254.52 647.33,-252.61 648.41,-259.52"/>
</g>
<!-- Node14&#45;&gt;Node3 -->
<g id="edge28" class="edge">
<title>Node14&#45;&gt;Node3</title>
<path fill="none" stroke="midnightblue" d="M636.9,-237.1C585.96,-230.69 525.07,-219.02 509,-199 476.12,-158.03 541.2,-106.02 578.05,-81.3"/>
<polygon fill="midnightblue" stroke="midnightblue" points="580.28,-84.02 586.74,-75.63 576.45,-78.16 580.28,-84.02"/>
</g>
<!-- Node14&#45;&gt;Node4 -->
<g id="edge30" class="edge">
<title>Node14&#45;&gt;Node4</title>
<path fill="none" stroke="midnightblue" d="M636.75,-238.18C582.01,-232.21 514.55,-220.61 497,-199 470.61,-166.51 456.09,-113.21 520,-56 552.08,-27.29 838.45,-15.85 956.98,-12.32"/>
<polygon fill="midnightblue" stroke="midnightblue" points="957.35,-15.81 967.25,-12.02 957.15,-8.81 957.35,-15.81"/>
</g>
<!-- Node14&#45;&gt;Node6 -->
<g id="edge29" class="edge">
<title>Node14&#45;&gt;Node6</title>
<path fill="none" stroke="midnightblue" d="M787.04,-242.96C881.75,-240.31 1037.97,-231.04 1085,-199 1104.7,-185.58 1115.74,-159.51 1121.29,-141.68"/>
<polygon fill="midnightblue" stroke="midnightblue" points="1124.72,-142.41 1124.05,-131.84 1117.98,-140.52 1124.72,-142.41"/>
</g>
<!-- Node14&#45;&gt;Node15 -->
<g id="edge21" class="edge">
<title>Node14&#45;&gt;Node15</title>
<path fill="none" stroke="midnightblue" d="M712.45,-235.34C713.7,-219.93 718.39,-187.52 736,-168 750.38,-152.07 771.38,-141.55 790.76,-134.71"/>
<polygon fill="midnightblue" stroke="midnightblue" points="791.98,-137.99 800.4,-131.56 789.8,-131.34 791.98,-137.99"/>
</g>
<!-- Node14&#45;&gt;Node16 -->
<g id="edge24" class="edge">
<title>Node14&#45;&gt;Node16</title>
<path fill="none" stroke="midnightblue" d="M731.77,-235.48C755.14,-225.4 794.21,-208.55 821,-197"/>
<polygon fill="midnightblue" stroke="midnightblue" points="822.47,-200.18 830.26,-193.01 819.7,-193.75 822.47,-200.18"/>
</g>
<!-- Node15&#45;&gt;Node3 -->
<g id="edge22" class="edge">
<title>Node15&#45;&gt;Node3</title>
<path fill="none" stroke="midnightblue" d="M802.13,-112.44C760.52,-103.04 693.63,-87.93 648.53,-77.74"/>
<polygon fill="midnightblue" stroke="midnightblue" points="649.22,-74.31 638.69,-75.52 647.68,-81.13 649.22,-74.31"/>
</g>
<!-- Node15&#45;&gt;Node4 -->
<g id="edge23" class="edge">
<title>Node15&#45;&gt;Node4</title>
<path fill="none" stroke="midnightblue" d="M853.12,-112.37C872.07,-99.9 908.2,-76.15 939,-56 954.75,-45.69 972.55,-34.09 986.12,-25.25"/>
<polygon fill="midnightblue" stroke="midnightblue" points="988.3,-28.01 994.76,-19.61 984.47,-22.14 988.3,-28.01"/>
</g>
<!-- Node16&#45;&gt;Node4 -->
<g id="edge27" class="edge">
<title>Node16&#45;&gt;Node4</title>
<path fill="none" stroke="midnightblue" d="M867.58,-173.85C884.42,-164.97 909.89,-149.94 928,-132 959.92,-100.38 986.21,-54.06 999.21,-28.89"/>
<polygon fill="midnightblue" stroke="midnightblue" points="1002.42,-30.29 1003.8,-19.79 996.17,-27.14 1002.42,-30.29"/>
</g>
<!-- Node16&#45;&gt;Node6 -->
<g id="edge26" class="edge">
<title>Node16&#45;&gt;Node6</title>
<path fill="none" stroke="midnightblue" d="M889.54,-173.98C938.83,-163.35 1023.09,-145.18 1076.59,-133.65"/>
<polygon fill="midnightblue" stroke="midnightblue" points="1077.49,-137.04 1086.53,-131.51 1076.02,-130.2 1077.49,-137.04"/>
</g>
<!-- Node16&#45;&gt;Node15 -->
<g id="edge25" class="edge">
<title>Node16&#45;&gt;Node15</title>
<path fill="none" stroke="midnightblue" d="M848.57,-173.98C847.16,-165.58 844.95,-152.48 843.14,-141.66"/>
<polygon fill="midnightblue" stroke="midnightblue" points="846.54,-140.79 841.43,-131.51 839.64,-141.95 846.54,-140.79"/>
</g>
<!-- Node17&#45;&gt;Node4 -->
<g id="edge38" class="edge">
<title>Node17&#45;&gt;Node4</title>
<path fill="none" stroke="midnightblue" d="M1350.23,-235.47C1372.27,-229.12 1394.65,-218.1 1408,-199 1433.06,-163.15 1394.35,-141.44 1362,-112 1329.09,-82.05 1320.34,-72.47 1279,-56 1206.01,-26.93 1114.73,-16.64 1058.93,-12.99"/>
<polygon fill="midnightblue" stroke="midnightblue" points="1059.13,-9.5 1048.94,-12.39 1058.71,-16.49 1059.13,-9.5"/>
</g>
<!-- Node17&#45;&gt;Node6 -->
<g id="edge37" class="edge">
<title>Node17&#45;&gt;Node6</title>
<path fill="none" stroke="midnightblue" d="M1275.46,-235.42C1259.2,-220.95 1224.87,-190.99 1194,-168 1179.24,-157.01 1161.94,-145.57 1148.48,-136.98"/>
<polygon fill="midnightblue" stroke="midnightblue" points="1150.18,-133.92 1139.85,-131.53 1146.43,-139.83 1150.18,-133.92"/>
</g>
<!-- Node17&#45;&gt;Node7 -->
<g id="edge36" class="edge">
<title>Node17&#45;&gt;Node7</title>
<path fill="none" stroke="midnightblue" d="M1334.77,-235.45C1355.83,-229.1 1378.37,-218.09 1391,-199 1398.6,-187.51 1395.64,-180.97 1391,-168 1362.27,-87.76 1251.22,-69.85 1182.32,-66.67"/>
<polygon fill="midnightblue" stroke="midnightblue" points="1182.18,-63.16 1172.05,-66.29 1181.92,-70.16 1182.18,-63.16"/>
</g>
<!-- Node18 -->
<g id="node18" class="node">
<title>Node18</title>
<g id="a_node18"><a xlink:href="JKRFile_8h.html" target="_top" xlink:title=" ">
<polygon fill="white" stroke="black" points="940,-174 940,-193 1076,-193 1076,-174 940,-174"/>
<text text-anchor="middle" x="1008" y="-181" font-family="Helvetica,sans-Serif" font-size="10.00">JSystem/JKernel/JKRFile.h</text>
</a>
</g>
</g>
<!-- Node17&#45;&gt;Node18 -->
<g id="edge33" class="edge">
<title>Node17&#45;&gt;Node18</title>
<path fill="none" stroke="midnightblue" d="M1245.31,-235.48C1195.84,-224.85 1111.28,-206.68 1057.59,-195.15"/>
<polygon fill="midnightblue" stroke="midnightblue" points="1058.13,-191.69 1047.61,-193.01 1056.66,-198.53 1058.13,-191.69"/>
</g>
<!-- Node18&#45;&gt;Node4 -->
<g id="edge35" class="edge">
<title>Node18&#45;&gt;Node4</title>
<path fill="none" stroke="midnightblue" d="M1008,-173.76C1008,-147.15 1008,-66.71 1008,-29.84"/>
<polygon fill="midnightblue" stroke="midnightblue" points="1011.5,-29.52 1008,-19.52 1004.5,-29.52 1011.5,-29.52"/>
</g>
<!-- Node18&#45;&gt;Node15 -->
<g id="edge34" class="edge">
<title>Node18&#45;&gt;Node15</title>
<path fill="none" stroke="midnightblue" d="M983.93,-173.98C954.99,-163.72 906.24,-146.46 873.6,-134.9"/>
<polygon fill="midnightblue" stroke="midnightblue" points="874.62,-131.55 864.03,-131.51 872.28,-138.15 874.62,-131.55"/>
</g>
<!-- Node19&#45;&gt;Node3 -->
<g id="edge41" class="edge">
<title>Node19&#45;&gt;Node3</title>
<path fill="none" stroke="midnightblue" d="M601,-173.82C601,-155.26 601,-111.34 601,-85.97"/>
<polygon fill="midnightblue" stroke="midnightblue" points="604.5,-85.78 601,-75.78 597.5,-85.78 604.5,-85.78"/>
</g>
<!-- Node19&#45;&gt;Node4 -->
<g id="edge42" class="edge">
<title>Node19&#45;&gt;Node4</title>
<path fill="none" stroke="midnightblue" d="M618.51,-173.9C646.49,-160.25 703.1,-133.04 752,-112 831.45,-77.82 926.55,-41.47 975.43,-23.12"/>
<polygon fill="midnightblue" stroke="midnightblue" points="976.72,-26.37 984.86,-19.59 974.27,-19.82 976.72,-26.37"/>
</g>
<!-- Node19&#45;&gt;Node15 -->
<g id="edge40" class="edge">
<title>Node19&#45;&gt;Node15</title>
<path fill="none" stroke="midnightblue" d="M635.24,-173.98C677.57,-163.44 749.68,-145.49 796.05,-133.94"/>
<polygon fill="midnightblue" stroke="midnightblue" points="796.96,-137.32 805.82,-131.51 795.27,-130.53 796.96,-137.32"/>
</g>
<!-- Node20&#45;&gt;Node4 -->
<g id="edge45" class="edge">
<title>Node20&#45;&gt;Node4</title>
<path fill="none" stroke="midnightblue" d="M565.59,-291.43C566.05,-277.97 565.03,-251.69 552,-235 529,-205.54 497.15,-229.82 476,-199 439.61,-145.98 445.1,-92.56 498,-56 535.21,-30.28 835.72,-17.01 957.26,-12.65"/>
<polygon fill="midnightblue" stroke="midnightblue" points="957.55,-16.15 967.42,-12.29 957.31,-9.15 957.55,-16.15"/>
</g>
<!-- Node21&#45;&gt;Node4 -->
<g id="edge52" class="edge">
<title>Node21&#45;&gt;Node4</title>
<path fill="none" stroke="midnightblue" d="M336.13,-347.42C318.09,-340.35 295.13,-328.6 281,-311 262.15,-287.53 262,-276.1 262,-246 262,-246 262,-246 262,-121 262,-82.58 284.54,-72.99 319,-56 375.7,-28.05 806.75,-15.61 956.74,-12.09"/>
<polygon fill="midnightblue" stroke="midnightblue" points="957.13,-15.59 967.05,-11.86 956.97,-8.59 957.13,-15.59"/>
</g>
<!-- Node21&#45;&gt;Node13 -->
<g id="edge51" class="edge">
<title>Node21&#45;&gt;Node13</title>
<path fill="none" stroke="midnightblue" d="M363.83,-347.08C364.48,-340.01 365.42,-329.86 366.24,-320.99"/>
<polygon fill="midnightblue" stroke="midnightblue" points="369.75,-321.03 367.19,-310.75 362.78,-320.39 369.75,-321.03"/>
</g>
<!-- Node22&#45;&gt;Node4 -->
<g id="edge72" class="edge">
<title>Node22&#45;&gt;Node4</title>
<path fill="none" stroke="midnightblue" d="M1494.53,-296.82C1629.05,-289.25 1887,-264.33 1887,-184.5 1887,-184.5 1887,-184.5 1887,-121 1887,-90.9 1891.6,-74.67 1868,-56 1836.15,-30.8 1238.75,-15.96 1058.84,-12.05"/>
<polygon fill="midnightblue" stroke="midnightblue" points="1058.67,-8.54 1048.6,-11.83 1058.52,-15.54 1058.67,-8.54"/>
</g>
<!-- Node22&#45;&gt;Node6 -->
<g id="edge71" class="edge">
<title>Node22&#45;&gt;Node6</title>
<path fill="none" stroke="midnightblue" d="M1340.22,-291.47C1286.89,-284.09 1220.89,-271.94 1199,-255 1164.89,-228.6 1177.56,-205.35 1156,-168 1150.54,-158.55 1143.86,-148.4 1138.18,-140.14"/>
<polygon fill="midnightblue" stroke="midnightblue" points="1140.92,-137.94 1132.32,-131.75 1135.18,-141.95 1140.92,-137.94"/>
</g>
<!-- Node22&#45;&gt;Node14 -->
<g id="edge57" class="edge">
<title>Node22&#45;&gt;Node14</title>
<path fill="none" stroke="midnightblue" d="M1335.38,-293.88C1201.94,-283.63 934.31,-263.08 797.22,-252.55"/>
<polygon fill="midnightblue" stroke="midnightblue" points="797.41,-249.05 787.17,-251.77 796.87,-256.03 797.41,-249.05"/>
</g>
<!-- Node23 -->
<g id="node23" class="node">
<title>Node23</title>
<g id="a_node23"><a xlink:href="JUTGamePad_8h.html" target="_top" xlink:title=" ">
<polygon fill="white" stroke="black" points="1246,-168.5 1246,-198.5 1382,-198.5 1382,-168.5 1246,-168.5"/>
<text text-anchor="start" x="1254" y="-186.5" font-family="Helvetica,sans-Serif" font-size="10.00">JSystem/JUtility/JUTGame</text>
<text text-anchor="middle" x="1314" y="-175.5" font-family="Helvetica,sans-Serif" font-size="10.00">Pad.h</text>
</a>
</g>
</g>
<!-- Node22&#45;&gt;Node23 -->
<g id="edge58" class="edge">
<title>Node22&#45;&gt;Node23</title>
<path fill="none" stroke="midnightblue" d="M1409.77,-291.12C1401.93,-278.15 1386.31,-253.55 1370,-235 1360.72,-224.45 1349.38,-213.87 1339.34,-205.14"/>
<polygon fill="midnightblue" stroke="midnightblue" points="1341.51,-202.39 1331.63,-198.57 1336.97,-207.72 1341.51,-202.39"/>
</g>
<!-- Node25 -->
<g id="node25" class="node">
<title>Node25</title>
<g id="a_node25"><a xlink:href="GX_8h.html" target="_top" xlink:title=" ">
<polygon fill="white" stroke="black" points="1583.5,-112.5 1583.5,-131.5 1668.5,-131.5 1668.5,-112.5 1583.5,-112.5"/>
<text text-anchor="middle" x="1626" y="-119.5" font-family="Helvetica,sans-Serif" font-size="10.00">dolphin/gx/GX.h</text>
</a>
</g>
</g>
<!-- Node22&#45;&gt;Node25 -->
<g id="edge65" class="edge">
<title>Node22&#45;&gt;Node25</title>
<path fill="none" stroke="midnightblue" d="M1439.26,-291.49C1459.16,-283.81 1487.47,-271.23 1509,-255 1554.06,-221.03 1594.87,-167.57 1614.2,-140.28"/>
<polygon fill="midnightblue" stroke="midnightblue" points="1617.27,-142 1620.12,-131.79 1611.53,-138 1617.27,-142"/>
</g>
<!-- Node23&#45;&gt;Node3 -->
<g id="edge60" class="edge">
<title>Node23&#45;&gt;Node3</title>
<path fill="none" stroke="midnightblue" d="M1293.44,-168.47C1267.72,-151.74 1221.73,-124.48 1178,-112 1087.37,-86.13 819.68,-74.01 683.13,-69.38"/>
<polygon fill="midnightblue" stroke="midnightblue" points="682.84,-65.87 672.73,-69.03 682.6,-72.86 682.84,-65.87"/>
</g>
<!-- Node23&#45;&gt;Node4 -->
<g id="edge64" class="edge">
<title>Node23&#45;&gt;Node4</title>
<path fill="none" stroke="midnightblue" d="M1328.3,-168.28C1341.35,-153.51 1356.93,-130.08 1345,-112 1313.23,-63.87 1144.99,-31.79 1058.87,-18.27"/>
<polygon fill="midnightblue" stroke="midnightblue" points="1059.21,-14.78 1048.79,-16.72 1058.14,-21.7 1059.21,-14.78"/>
</g>
<!-- Node23&#45;&gt;Node6 -->
<g id="edge61" class="edge">
<title>Node23&#45;&gt;Node6</title>
<path fill="none" stroke="midnightblue" d="M1269.45,-168.4C1236.96,-158.12 1193.46,-144.35 1162.91,-134.68"/>
<polygon fill="midnightblue" stroke="midnightblue" points="1163.67,-131.25 1153.08,-131.57 1161.56,-137.93 1163.67,-131.25"/>
</g>
<!-- Node23&#45;&gt;Node15 -->
<g id="edge59" class="edge">
<title>Node23&#45;&gt;Node15</title>
<path fill="none" stroke="midnightblue" d="M1245.84,-173.94C1159.04,-163.05 1009.41,-144.27 918.11,-132.8"/>
<polygon fill="midnightblue" stroke="midnightblue" points="918.45,-129.32 908.09,-131.55 917.58,-136.27 918.45,-129.32"/>
</g>
<!-- Node24 -->
<g id="node24" class="node">
<title>Node24</title>
<g id="a_node24"><a xlink:href="Pad_8h.html" target="_top" xlink:title=" ">
<polygon fill="white" stroke="black" points="1242,-112.5 1242,-131.5 1336,-131.5 1336,-112.5 1242,-112.5"/>
<text text-anchor="middle" x="1289" y="-119.5" font-family="Helvetica,sans-Serif" font-size="10.00">dolphin/pad/Pad.h</text>
</a>
</g>
</g>
<!-- Node23&#45;&gt;Node24 -->
<g id="edge62" class="edge">
<title>Node23&#45;&gt;Node24</title>
<path fill="none" stroke="midnightblue" d="M1308.08,-168.4C1304.63,-160.2 1300.25,-149.78 1296.56,-140.99"/>
<polygon fill="midnightblue" stroke="midnightblue" points="1299.74,-139.52 1292.64,-131.66 1293.28,-142.23 1299.74,-139.52"/>
</g>
<!-- Node24&#45;&gt;Node4 -->
<g id="edge63" class="edge">
<title>Node24&#45;&gt;Node4</title>
<path fill="none" stroke="midnightblue" d="M1277.3,-112.4C1258.1,-98.65 1218.32,-71.7 1181,-56 1141.29,-39.3 1093.79,-27.48 1058.61,-20.16"/>
<polygon fill="midnightblue" stroke="midnightblue" points="1059.07,-16.68 1048.58,-18.12 1057.68,-23.54 1059.07,-16.68"/>
</g>
<!-- Node25&#45;&gt;Node4 -->
<g id="edge70" class="edge">
<title>Node25&#45;&gt;Node4</title>
<path fill="none" stroke="midnightblue" d="M1617.74,-112.34C1603.21,-97.75 1571.41,-68.59 1538,-56 1451.17,-23.27 1174.02,-14.2 1058.9,-11.81"/>
<polygon fill="midnightblue" stroke="midnightblue" points="1058.67,-8.3 1048.6,-11.6 1058.53,-15.3 1058.67,-8.3"/>
</g>
<!-- Node26 -->
<g id="node26" class="node">
<title>Node26</title>
<g id="a_node26"><a xlink:href="GXDisplayList_8h.html" target="_top" xlink:title=" ">
<polygon fill="white" stroke="black" points="1590.5,-56.5 1590.5,-75.5 1723.5,-75.5 1723.5,-56.5 1590.5,-56.5"/>
<text text-anchor="middle" x="1657" y="-63.5" font-family="Helvetica,sans-Serif" font-size="10.00">dolphin/gx/GXDisplayList.h</text>
</a>
</g>
</g>
<!-- Node25&#45;&gt;Node26 -->
<g id="edge66" class="edge">
<title>Node25&#45;&gt;Node26</title>
<path fill="none" stroke="midnightblue" d="M1631.12,-112.08C1635.41,-104.61 1641.66,-93.72 1646.94,-84.52"/>
<polygon fill="midnightblue" stroke="midnightblue" points="1650.03,-86.17 1651.98,-75.75 1643.96,-82.68 1650.03,-86.17"/>
</g>
<!-- Node27 -->
<g id="node27" class="node">
<title>Node27</title>
<g id="a_node27"><a xlink:href="GXTexture_8h.html" target="_top" xlink:title=" ">
<polygon fill="white" stroke="black" points="1741.5,-56.5 1741.5,-75.5 1858.5,-75.5 1858.5,-56.5 1741.5,-56.5"/>
<text text-anchor="middle" x="1800" y="-63.5" font-family="Helvetica,sans-Serif" font-size="10.00">dolphin/gx/GXTexture.h</text>
</a>
</g>
</g>
<!-- Node25&#45;&gt;Node27 -->
<g id="edge68" class="edge">
<title>Node25&#45;&gt;Node27</title>
<path fill="none" stroke="midnightblue" d="M1653.57,-112.44C1683.1,-103.28 1730.12,-88.69 1762.88,-78.52"/>
<polygon fill="midnightblue" stroke="midnightblue" points="1764.04,-81.82 1772.56,-75.52 1761.97,-75.14 1764.04,-81.82"/>
</g>
<!-- Node26&#45;&gt;Node4 -->
<g id="edge67" class="edge">
<title>Node26&#45;&gt;Node4</title>
<path fill="none" stroke="midnightblue" d="M1590.27,-57.42C1585.44,-56.92 1580.65,-56.44 1576,-56 1385.31,-37.86 1158.1,-21.41 1058.74,-14.48"/>
<polygon fill="midnightblue" stroke="midnightblue" points="1058.89,-10.98 1048.67,-13.78 1058.41,-17.96 1058.89,-10.98"/>
</g>
<!-- Node27&#45;&gt;Node4 -->
<g id="edge69" class="edge">
<title>Node27&#45;&gt;Node4</title>
<path fill="none" stroke="midnightblue" d="M1741.2,-56.86C1738.43,-56.55 1735.69,-56.26 1733,-56 1480.5,-31.24 1177.12,-17.6 1058.77,-12.9"/>
<polygon fill="midnightblue" stroke="midnightblue" points="1058.69,-9.39 1048.56,-12.5 1058.42,-16.39 1058.69,-9.39"/>
</g>
<!-- Node29&#45;&gt;Node4 -->
<g id="edge75" class="edge">
<title>Node29&#45;&gt;Node4</title>
<path fill="none" stroke="midnightblue" d="M1821.98,-459.47C1859.23,-444.97 1925,-411.77 1925,-358 1925,-358 1925,-358 1925,-121 1925,-88.19 1917.73,-73.54 1890,-56 1819.76,-11.58 1235.89,-10.12 1058.75,-10.72"/>
<polygon fill="midnightblue" stroke="midnightblue" points="1058.64,-7.22 1048.66,-10.76 1058.67,-14.22 1058.64,-7.22"/>
</g>
</g>
</svg>
        <g id="navigator" transform="translate(0 0)" fill="#404254">
                <rect fill="#f2f5e9" fill-opacity="0.5" stroke="#606060" stroke-width=".5" x="0" y="0" width="60" height="60"/>
                <use id="zoomplus" xlink:href="#zoomPlus" x="17" y="9" onmousedown="handleZoom(evt,'in')"/>
                <use id="zoomminus" xlink:href="#zoomMin" x="42" y="9" onmousedown="handleZoom(evt,'out')"/>
                <use id="reset" xlink:href="#resetDef" x="30" y="36" onmousedown="handleReset()"/>
                <g id="arrowUp" xlink:href="#dirArrow" transform="translate(30 24)" onmousedown="handlePan(0,-1)">
                  <use xlink:href="#rim" fill="#404040">
                        <set attributeName="fill" to="#808080" begin="arrowUp.mouseover" end="arrowUp.mouseout"/>
                  </use>
                  <path fill="none" stroke="white" stroke-width="1.5" d="M0,-3.0v7 M-2.5,-0.5L0,-3.0L2.5,-0.5"/>
                </g>
                <g id="arrowRight" xlink:href="#dirArrow" transform="rotate(90) translate(36 -43)" onmousedown="handlePan(1,0)">
                  <use xlink:href="#rim" fill="#404040">
                        <set attributeName="fill" to="#808080" begin="arrowRight.mouseover" end="arrowRight.mouseout"/>
                  </use>
                  <path fill="none" stroke="white" stroke-width="1.5" d="M0,-3.0v7 M-2.5,-0.5L0,-3.0L2.5,-0.5"/>
                </g>
                <g id="arrowDown" xlink:href="#dirArrow" transform="rotate(180) translate(-30 -48)" onmousedown="handlePan(0,1)">
                  <use xlink:href="#rim" fill="#404040">
                        <set attributeName="fill" to="#808080" begin="arrowDown.mouseover" end="arrowDown.mouseout"/>
                  </use>
                  <path fill="none" stroke="white" stroke-width="1.5" d="M0,-3.0v7 M-2.5,-0.5L0,-3.0L2.5,-0.5"/>
                </g>
                <g id="arrowLeft" xlink:href="#dirArrow" transform="rotate(270) translate(-36 17)" onmousedown="handlePan(-1,0)">
                  <use xlink:href="#rim" fill="#404040">
                        <set attributeName="fill" to="#808080" begin="arrowLeft.mouseover" end="arrowLeft.mouseout"/>
                  </use>
                  <path fill="none" stroke="white" stroke-width="1.5" d="M0,-3.0v7 M-2.5,-0.5L0,-3.0L2.5,-0.5"/>
                </g>
        </g>
        <svg viewBox="0 0 15 15" width="100%" height="30px" preserveAspectRatio="xMaxYMin meet">
         <g id="arrow_out" transform="scale(0.3 0.3)">
          <a xlink:href="JKRAramPiece_8cpp__incl_org.svg" target="_base">
           <rect id="button" ry="5" rx="5" y="6" x="6" height="38" width="38"
                fill="#f2f5e9" fill-opacity="0.5" stroke="#606060" stroke-width="1.0"/>
           <path id="arrow"
             d="M 11.500037,31.436501 C 11.940474,20.09759 22.043105,11.32322 32.158766,21.979434 L 37.068811,17.246167 C 37.068811,17.246167 37.088388,32 37.088388,32 L 22.160133,31.978069 C 22.160133,31.978069 26.997745,27.140456 26.997745,27.140456 C 18.528582,18.264221 13.291696,25.230495 11.500037,31.436501 z"
             style="fill:#404040;"/>
          </a>
         </g>
        </svg>
</svg>
