<?xml version="1.0" encoding="UTF-8" standalone="no"?>
<!DOCTYPE svg PUBLIC "-//W3C//DTD SVG 1.1//EN"
 "http://www.w3.org/Graphics/SVG/1.1/DTD/svg11.dtd">
<!-- Generated by graphviz version 2.44.0 ()
 -->
<!-- Title: libs/JSystem/JKernel/JKRArchivePri.cpp Pages: 1 -->
<svg width="1183pt" height="375pt"
 viewBox="0.00 0.00 1183.09 375.00" xmlns="http://www.w3.org/2000/svg" xmlns:xlink="http://www.w3.org/1999/xlink">
<g id="graph0" class="graph" transform="scale(1 1) rotate(0) translate(4 371)">
<title>libs/JSystem/JKernel/JKRArchivePri.cpp</title>
<polygon fill="white" stroke="transparent" points="-4,4 -4,-371 1179.09,-371 1179.09,4 -4,4"/>
<!-- Node1 -->
<g id="node1" class="node">
<title>Node1</title>
<g id="a_node1"><a xlink:title=" ">
<polygon fill="#bfbfbf" stroke="black" points="989.09,-336.5 989.09,-366.5 1098.09,-366.5 1098.09,-336.5 989.09,-336.5"/>
<text text-anchor="start" x="997.09" y="-354.5" font-family="Helvetica,sans-Serif" font-size="10.00">libs/JSystem/JKernel</text>
<text text-anchor="middle" x="1043.59" y="-343.5" font-family="Helvetica,sans-Serif" font-size="10.00">/JKRArchivePri.cpp</text>
</a>
</g>
</g>
<!-- Node2 -->
<g id="node2" class="node">
<title>Node2</title>
<g id="a_node2"><a xlink:href="JKRArchive_8h.html" target="_top" xlink:title=" ">
<polygon fill="white" stroke="black" points="396.09,-280.5 396.09,-299.5 549.09,-299.5 549.09,-280.5 396.09,-280.5"/>
<text text-anchor="middle" x="472.59" y="-287.5" font-family="Helvetica,sans-Serif" font-size="10.00">JSystem/JKernel/JKRArchive.h</text>
</a>
</g>
</g>
<!-- Node1&#45;&gt;Node2 -->
<g id="edge1" class="edge">
<title>Node1&#45;&gt;Node2</title>
<path fill="none" stroke="midnightblue" d="M988.84,-344.79C889.44,-334.44 678.56,-312.46 559.37,-300.04"/>
<polygon fill="midnightblue" stroke="midnightblue" points="559.5,-296.54 549.19,-298.98 558.77,-303.5 559.5,-296.54"/>
</g>
<!-- Node8 -->
<g id="node8" class="node">
<title>Node8</title>
<g id="a_node8"><a xlink:href="types_8h.html" target="_top" xlink:title=" ">
<polygon fill="white" stroke="black" points="604.09,-0.5 604.09,-19.5 685.09,-19.5 685.09,-0.5 604.09,-0.5"/>
<text text-anchor="middle" x="644.59" y="-7.5" font-family="Helvetica,sans-Serif" font-size="10.00">dolphin/types.h</text>
</a>
</g>
</g>
<!-- Node1&#45;&gt;Node8 -->
<g id="edge36" class="edge">
<title>Node1&#45;&gt;Node8</title>
<path fill="none" stroke="midnightblue" d="M1043.59,-336.28C1043.59,-314.48 1043.59,-271.49 1043.59,-235 1043.59,-235 1043.59,-235 1043.59,-121 1043.59,-49.56 802.89,-22.74 695.39,-14.32"/>
<polygon fill="midnightblue" stroke="midnightblue" points="695.66,-10.83 685.42,-13.56 695.12,-17.81 695.66,-10.83"/>
</g>
<!-- Node14 -->
<g id="node14" class="node">
<title>Node14</title>
<g id="a_node14"><a xlink:href="JKRHeap_8h.html" target="_top" xlink:title=" ">
<polygon fill="white" stroke="black" points="604.09,-168.5 604.09,-187.5 747.09,-187.5 747.09,-168.5 604.09,-168.5"/>
<text text-anchor="middle" x="675.59" y="-175.5" font-family="Helvetica,sans-Serif" font-size="10.00">JSystem/JKernel/JKRHeap.h</text>
</a>
</g>
</g>
<!-- Node1&#45;&gt;Node14 -->
<g id="edge34" class="edge">
<title>Node1&#45;&gt;Node14</title>
<path fill="none" stroke="midnightblue" d="M989.01,-341.62C922.68,-328.79 809.59,-300.18 728.59,-244 710.53,-231.48 695.35,-211.12 685.92,-196.53"/>
<polygon fill="midnightblue" stroke="midnightblue" points="688.83,-194.57 680.59,-187.91 682.87,-198.25 688.83,-194.57"/>
</g>
<!-- Node16 -->
<g id="node16" class="node">
<title>Node16</title>
<g id="a_node16"><a xlink:href="dol2asm_8h.html" target="_top" xlink:title=" ">
<polygon fill="white" stroke="black" points="1072.09,-280.5 1072.09,-299.5 1133.09,-299.5 1133.09,-280.5 1072.09,-280.5"/>
<text text-anchor="middle" x="1102.59" y="-287.5" font-family="Helvetica,sans-Serif" font-size="10.00">dol2asm.h</text>
</a>
</g>
</g>
<!-- Node1&#45;&gt;Node16 -->
<g id="edge35" class="edge">
<title>Node1&#45;&gt;Node16</title>
<path fill="none" stroke="midnightblue" d="M1057.58,-336.4C1066.33,-327.58 1077.62,-316.18 1086.71,-307.02"/>
<polygon fill="midnightblue" stroke="midnightblue" points="1089.45,-309.22 1094.01,-299.66 1084.48,-304.29 1089.45,-309.22"/>
</g>
<!-- Node17 -->
<g id="node17" class="node">
<title>Node17</title>
<g id="a_node17"><a xlink:href="msl__c_2string_8h.html" target="_top" xlink:title=" ">
<polygon fill="white" stroke="black" points="1098.09,-112.5 1098.09,-131.5 1175.09,-131.5 1175.09,-112.5 1098.09,-112.5"/>
<text text-anchor="middle" x="1136.59" y="-119.5" font-family="Helvetica,sans-Serif" font-size="10.00">msl_c/string.h</text>
</a>
</g>
</g>
<!-- Node1&#45;&gt;Node17 -->
<g id="edge37" class="edge">
<title>Node1&#45;&gt;Node17</title>
<path fill="none" stroke="midnightblue" d="M1095.51,-336.44C1113.63,-328.77 1132.06,-317.19 1142.59,-300 1173.46,-249.61 1154.6,-175.11 1143.28,-141.11"/>
<polygon fill="midnightblue" stroke="midnightblue" points="1146.55,-139.86 1139.94,-131.58 1139.94,-142.17 1146.55,-139.86"/>
</g>
<!-- Node3 -->
<g id="node3" class="node">
<title>Node3</title>
<g id="a_node3"><a xlink:href="JKRCompression_8h.html" target="_top" xlink:title=" ">
<polygon fill="white" stroke="black" points="203.09,-168.5 203.09,-187.5 380.09,-187.5 380.09,-168.5 203.09,-168.5"/>
<text text-anchor="middle" x="291.59" y="-175.5" font-family="Helvetica,sans-Serif" font-size="10.00">JSystem/JKernel/JKRCompression.h</text>
</a>
</g>
</g>
<!-- Node2&#45;&gt;Node3 -->
<g id="edge2" class="edge">
<title>Node2&#45;&gt;Node3</title>
<path fill="none" stroke="midnightblue" d="M454.23,-280.35C436.37,-271.74 408.62,-257.84 385.59,-244 359.14,-228.1 330.13,-207.53 311.44,-193.83"/>
<polygon fill="midnightblue" stroke="midnightblue" points="313.27,-190.83 303.14,-187.7 309.11,-196.46 313.27,-190.83"/>
</g>
<!-- Node4 -->
<g id="node4" class="node">
<title>Node4</title>
<g id="a_node4"><a xlink:href="JKRDecomp_8h.html" target="_top" xlink:title=" ">
<polygon fill="white" stroke="black" points="394.59,-224.5 394.59,-243.5 550.59,-243.5 550.59,-224.5 394.59,-224.5"/>
<text text-anchor="middle" x="472.59" y="-231.5" font-family="Helvetica,sans-Serif" font-size="10.00">JSystem/JKernel/JKRDecomp.h</text>
</a>
</g>
</g>
<!-- Node2&#45;&gt;Node4 -->
<g id="edge3" class="edge">
<title>Node2&#45;&gt;Node4</title>
<path fill="none" stroke="midnightblue" d="M472.59,-280.08C472.59,-273.01 472.59,-262.86 472.59,-253.99"/>
<polygon fill="midnightblue" stroke="midnightblue" points="476.09,-253.75 472.59,-243.75 469.09,-253.75 476.09,-253.75"/>
</g>
<!-- Node11 -->
<g id="node11" class="node">
<title>Node11</title>
<g id="a_node11"><a xlink:href="JKRDvdFile_8h.html" target="_top" xlink:title=" ">
<polygon fill="white" stroke="black" points="737.09,-224.5 737.09,-243.5 890.09,-243.5 890.09,-224.5 737.09,-224.5"/>
<text text-anchor="middle" x="813.59" y="-231.5" font-family="Helvetica,sans-Serif" font-size="10.00">JSystem/JKernel/JKRDvdFile.h</text>
</a>
</g>
</g>
<!-- Node2&#45;&gt;Node11 -->
<g id="edge17" class="edge">
<title>Node2&#45;&gt;Node11</title>
<path fill="none" stroke="midnightblue" d="M526.63,-280.44C587.24,-270.85 685.46,-255.29 749.79,-245.1"/>
<polygon fill="midnightblue" stroke="midnightblue" points="750.48,-248.54 759.81,-243.52 749.39,-241.62 750.48,-248.54"/>
</g>
<!-- Node13 -->
<g id="node13" class="node">
<title>Node13</title>
<g id="a_node13"><a xlink:href="JKRFileLoader_8h.html" target="_top" xlink:title=" ">
<polygon fill="white" stroke="black" points="18.59,-168.5 18.59,-187.5 184.59,-187.5 184.59,-168.5 18.59,-168.5"/>
<text text-anchor="middle" x="101.59" y="-175.5" font-family="Helvetica,sans-Serif" font-size="10.00">JSystem/JKernel/JKRFileLoader.h</text>
</a>
</g>
</g>
<!-- Node2&#45;&gt;Node13 -->
<g id="edge24" class="edge">
<title>Node2&#45;&gt;Node13</title>
<path fill="none" stroke="midnightblue" d="M443.79,-280.46C377.69,-260.86 215.08,-212.65 140.32,-190.48"/>
<polygon fill="midnightblue" stroke="midnightblue" points="140.96,-187.02 130.38,-187.53 138.97,-193.73 140.96,-187.02"/>
</g>
<!-- Node2&#45;&gt;Node14 -->
<g id="edge28" class="edge">
<title>Node2&#45;&gt;Node14</title>
<path fill="none" stroke="midnightblue" d="M489.69,-280.37C507.29,-271.43 535.49,-256.98 559.59,-244 591.75,-226.68 628.46,-205.94 651.82,-192.63"/>
<polygon fill="midnightblue" stroke="midnightblue" points="653.72,-195.57 660.67,-187.57 650.25,-189.5 653.72,-195.57"/>
</g>
<!-- Node15 -->
<g id="node15" class="node">
<title>Node15</title>
<g id="a_node15"><a xlink:href="global_8h.html" target="_top" xlink:title=" ">
<polygon fill="white" stroke="black" points="23.59,-56.5 23.59,-75.5 73.59,-75.5 73.59,-56.5 23.59,-56.5"/>
<text text-anchor="middle" x="48.59" y="-63.5" font-family="Helvetica,sans-Serif" font-size="10.00">global.h</text>
</a>
</g>
</g>
<!-- Node2&#45;&gt;Node15 -->
<g id="edge32" class="edge">
<title>Node2&#45;&gt;Node15</title>
<path fill="none" stroke="midnightblue" d="M395.95,-283.71C277.05,-273.73 56.86,-247.51 9.59,-188 -15.46,-156.46 15.02,-108.4 34.59,-83.4"/>
<polygon fill="midnightblue" stroke="midnightblue" points="37.36,-85.55 40.95,-75.59 31.93,-81.13 37.36,-85.55"/>
</g>
<!-- Node4&#45;&gt;Node3 -->
<g id="edge4" class="edge">
<title>Node4&#45;&gt;Node3</title>
<path fill="none" stroke="midnightblue" d="M443.91,-224.44C413.07,-215.24 363.87,-200.56 329.76,-190.39"/>
<polygon fill="midnightblue" stroke="midnightblue" points="330.72,-187.02 320.14,-187.52 328.72,-193.73 330.72,-187.02"/>
</g>
<!-- Node5 -->
<g id="node5" class="node">
<title>Node5</title>
<g id="a_node5"><a xlink:href="JKRThread_8h.html" target="_top" xlink:title=" ">
<polygon fill="white" stroke="black" points="397.59,-168.5 397.59,-187.5 547.59,-187.5 547.59,-168.5 397.59,-168.5"/>
<text text-anchor="middle" x="472.59" y="-175.5" font-family="Helvetica,sans-Serif" font-size="10.00">JSystem/JKernel/JKRThread.h</text>
</a>
</g>
</g>
<!-- Node4&#45;&gt;Node5 -->
<g id="edge5" class="edge">
<title>Node4&#45;&gt;Node5</title>
<path fill="none" stroke="midnightblue" d="M472.59,-224.08C472.59,-217.01 472.59,-206.86 472.59,-197.99"/>
<polygon fill="midnightblue" stroke="midnightblue" points="476.09,-197.75 472.59,-187.75 469.09,-197.75 476.09,-197.75"/>
</g>
<!-- Node4&#45;&gt;Node8 -->
<g id="edge16" class="edge">
<title>Node4&#45;&gt;Node8</title>
<path fill="none" stroke="midnightblue" d="M496.64,-224.46C514.83,-217.05 539.51,-204.85 556.59,-188 603.77,-141.47 629.85,-64.42 639.81,-29.38"/>
<polygon fill="midnightblue" stroke="midnightblue" points="643.23,-30.13 642.49,-19.57 636.48,-28.29 643.23,-30.13"/>
</g>
<!-- Node6 -->
<g id="node6" class="node">
<title>Node6</title>
<g id="a_node6"><a xlink:href="JKRDisposer_8h.html" target="_top" xlink:title=" ">
<polygon fill="white" stroke="black" points="420.59,-112.5 420.59,-131.5 578.59,-131.5 578.59,-112.5 420.59,-112.5"/>
<text text-anchor="middle" x="499.59" y="-119.5" font-family="Helvetica,sans-Serif" font-size="10.00">JSystem/JKernel/JKRDisposer.h</text>
</a>
</g>
</g>
<!-- Node5&#45;&gt;Node6 -->
<g id="edge6" class="edge">
<title>Node5&#45;&gt;Node6</title>
<path fill="none" stroke="midnightblue" d="M477.05,-168.08C480.75,-160.69 486.12,-149.95 490.69,-140.81"/>
<polygon fill="midnightblue" stroke="midnightblue" points="493.88,-142.26 495.22,-131.75 487.62,-139.13 493.88,-142.26"/>
</g>
<!-- Node7 -->
<g id="node7" class="node">
<title>Node7</title>
<g id="a_node7"><a xlink:href="JSUList_8h.html" target="_top" xlink:title=" ">
<polygon fill="white" stroke="black" points="221.09,-56.5 221.09,-75.5 364.09,-75.5 364.09,-56.5 221.09,-56.5"/>
<text text-anchor="middle" x="292.59" y="-63.5" font-family="Helvetica,sans-Serif" font-size="10.00">JSystem/JSupport/JSUList.h</text>
</a>
</g>
</g>
<!-- Node5&#45;&gt;Node7 -->
<g id="edge10" class="edge">
<title>Node5&#45;&gt;Node7</title>
<path fill="none" stroke="midnightblue" d="M451.81,-168.48C432.33,-160.18 402.7,-146.68 378.59,-132 353.82,-116.92 327.52,-96.27 310.62,-82.33"/>
<polygon fill="midnightblue" stroke="midnightblue" points="312.62,-79.44 302.7,-75.71 308.13,-84.81 312.62,-79.44"/>
</g>
<!-- Node5&#45;&gt;Node8 -->
<g id="edge15" class="edge">
<title>Node5&#45;&gt;Node8</title>
<path fill="none" stroke="midnightblue" d="M453.67,-168.4C430.69,-156.7 396.73,-134.64 411.59,-112 451.91,-50.59 538.46,-26.33 593.97,-16.88"/>
<polygon fill="midnightblue" stroke="midnightblue" points="594.64,-20.32 603.96,-15.28 593.53,-13.41 594.64,-20.32"/>
</g>
<!-- Node9 -->
<g id="node9" class="node">
<title>Node9</title>
<g id="a_node9"><a xlink:href="OS_8h.html" target="_top" xlink:title=" ">
<polygon fill="white" stroke="black" points="672.59,-112.5 672.59,-131.5 758.59,-131.5 758.59,-112.5 672.59,-112.5"/>
<text text-anchor="middle" x="715.59" y="-119.5" font-family="Helvetica,sans-Serif" font-size="10.00">dolphin/os/OS.h</text>
</a>
</g>
</g>
<!-- Node5&#45;&gt;Node9 -->
<g id="edge11" class="edge">
<title>Node5&#45;&gt;Node9</title>
<path fill="none" stroke="midnightblue" d="M511.1,-168.44C553.4,-159.04 621.41,-143.93 667.27,-133.74"/>
<polygon fill="midnightblue" stroke="midnightblue" points="668.27,-137.1 677.27,-131.52 666.75,-130.27 668.27,-137.1"/>
</g>
<!-- Node6&#45;&gt;Node7 -->
<g id="edge7" class="edge">
<title>Node6&#45;&gt;Node7</title>
<path fill="none" stroke="midnightblue" d="M466.79,-112.44C431.21,-103.16 374.28,-88.31 335.25,-78.13"/>
<polygon fill="midnightblue" stroke="midnightblue" points="335.8,-74.65 325.24,-75.52 334.03,-81.43 335.8,-74.65"/>
</g>
<!-- Node6&#45;&gt;Node8 -->
<g id="edge9" class="edge">
<title>Node6&#45;&gt;Node8</title>
<path fill="none" stroke="midnightblue" d="M510.97,-112.37C535.64,-93.65 594.3,-49.15 625.04,-25.83"/>
<polygon fill="midnightblue" stroke="midnightblue" points="627.42,-28.42 633.27,-19.59 623.19,-22.85 627.42,-28.42"/>
</g>
<!-- Node7&#45;&gt;Node8 -->
<g id="edge8" class="edge">
<title>Node7&#45;&gt;Node8</title>
<path fill="none" stroke="midnightblue" d="M348.37,-56.44C415.9,-46.08 528.67,-28.78 593.85,-18.78"/>
<polygon fill="midnightblue" stroke="midnightblue" points="594.54,-22.22 603.89,-17.24 593.48,-15.3 594.54,-22.22"/>
</g>
<!-- Node9&#45;&gt;Node8 -->
<g id="edge12" class="edge">
<title>Node9&#45;&gt;Node8</title>
<path fill="none" stroke="midnightblue" d="M710.02,-112.37C698.36,-94.3 671.17,-52.18 655.76,-28.31"/>
<polygon fill="midnightblue" stroke="midnightblue" points="658.5,-26.1 650.14,-19.59 652.62,-29.89 658.5,-26.1"/>
</g>
<!-- Node10 -->
<g id="node10" class="node">
<title>Node10</title>
<g id="a_node10"><a xlink:href="dvd_8h.html" target="_top" xlink:title=" ">
<polygon fill="white" stroke="black" points="710.59,-56.5 710.59,-75.5 802.59,-75.5 802.59,-56.5 710.59,-56.5"/>
<text text-anchor="middle" x="756.59" y="-63.5" font-family="Helvetica,sans-Serif" font-size="10.00">dolphin/dvd/dvd.h</text>
</a>
</g>
</g>
<!-- Node9&#45;&gt;Node10 -->
<g id="edge13" class="edge">
<title>Node9&#45;&gt;Node10</title>
<path fill="none" stroke="midnightblue" d="M722.36,-112.08C728.16,-104.46 736.65,-93.26 743.73,-83.94"/>
<polygon fill="midnightblue" stroke="midnightblue" points="746.69,-85.83 749.95,-75.75 741.11,-81.6 746.69,-85.83"/>
</g>
<!-- Node10&#45;&gt;Node8 -->
<g id="edge14" class="edge">
<title>Node10&#45;&gt;Node8</title>
<path fill="none" stroke="midnightblue" d="M738.6,-56.32C720.56,-47.62 692.55,-34.12 671.79,-24.11"/>
<polygon fill="midnightblue" stroke="midnightblue" points="673.07,-20.84 662.54,-19.65 670.03,-27.15 673.07,-20.84"/>
</g>
<!-- Node11&#45;&gt;Node8 -->
<g id="edge23" class="edge">
<title>Node11&#45;&gt;Node8</title>
<path fill="none" stroke="midnightblue" d="M890.23,-230.82C945.9,-225.74 1008.02,-210.74 986.59,-168 932.19,-59.48 776.6,-25.78 695.36,-15.46"/>
<polygon fill="midnightblue" stroke="midnightblue" points="695.71,-11.98 685.36,-14.26 694.87,-18.93 695.71,-11.98"/>
</g>
<!-- Node11&#45;&gt;Node9 -->
<g id="edge22" class="edge">
<title>Node11&#45;&gt;Node9</title>
<path fill="none" stroke="midnightblue" d="M805.9,-224.12C795,-211.56 774.4,-187.92 756.59,-168 747.95,-158.33 738.16,-147.58 730.32,-139.02"/>
<polygon fill="midnightblue" stroke="midnightblue" points="732.84,-136.59 723.5,-131.58 727.68,-141.32 732.84,-136.59"/>
</g>
<!-- Node11&#45;&gt;Node10 -->
<g id="edge21" class="edge">
<title>Node11&#45;&gt;Node10</title>
<path fill="none" stroke="midnightblue" d="M810.53,-224.08C801.52,-197.83 774.98,-120.55 762.81,-85.12"/>
<polygon fill="midnightblue" stroke="midnightblue" points="766.09,-83.89 759.54,-75.57 759.47,-86.16 766.09,-83.89"/>
</g>
<!-- Node12 -->
<g id="node12" class="node">
<title>Node12</title>
<g id="a_node12"><a xlink:href="JKRFile_8h.html" target="_top" xlink:title=" ">
<polygon fill="white" stroke="black" points="841.59,-168.5 841.59,-187.5 977.59,-187.5 977.59,-168.5 841.59,-168.5"/>
<text text-anchor="middle" x="909.59" y="-175.5" font-family="Helvetica,sans-Serif" font-size="10.00">JSystem/JKernel/JKRFile.h</text>
</a>
</g>
</g>
<!-- Node11&#45;&gt;Node12 -->
<g id="edge18" class="edge">
<title>Node11&#45;&gt;Node12</title>
<path fill="none" stroke="midnightblue" d="M829.02,-224.32C844.13,-215.82 867.41,-202.73 885.06,-192.8"/>
<polygon fill="midnightblue" stroke="midnightblue" points="887.21,-195.61 894.21,-187.65 883.78,-189.51 887.21,-195.61"/>
</g>
<!-- Node12&#45;&gt;Node6 -->
<g id="edge19" class="edge">
<title>Node12&#45;&gt;Node6</title>
<path fill="none" stroke="midnightblue" d="M844.63,-168.44C771.16,-158.77 651.71,-143.04 574.41,-132.85"/>
<polygon fill="midnightblue" stroke="midnightblue" points="574.63,-129.35 564.26,-131.52 573.71,-136.29 574.63,-129.35"/>
</g>
<!-- Node12&#45;&gt;Node8 -->
<g id="edge20" class="edge">
<title>Node12&#45;&gt;Node8</title>
<path fill="none" stroke="midnightblue" d="M905.18,-168.43C893.29,-146.21 858.28,-86.36 811.59,-56 776.54,-33.2 730.21,-21.89 695.24,-16.32"/>
<polygon fill="midnightblue" stroke="midnightblue" points="695.64,-12.84 685.24,-14.83 694.61,-19.76 695.64,-12.84"/>
</g>
<!-- Node13&#45;&gt;Node6 -->
<g id="edge25" class="edge">
<title>Node13&#45;&gt;Node6</title>
<path fill="none" stroke="midnightblue" d="M164.66,-168.44C235.83,-158.79 351.45,-143.1 426.51,-132.92"/>
<polygon fill="midnightblue" stroke="midnightblue" points="427.39,-136.33 436.82,-131.52 426.44,-129.39 427.39,-136.33"/>
</g>
<!-- Node13&#45;&gt;Node7 -->
<g id="edge26" class="edge">
<title>Node13&#45;&gt;Node7</title>
<path fill="none" stroke="midnightblue" d="M116.58,-168.37C149.64,-149.33 229.02,-103.62 268.89,-80.65"/>
<polygon fill="midnightblue" stroke="midnightblue" points="270.76,-83.62 277.68,-75.59 267.26,-77.55 270.76,-83.62"/>
</g>
<!-- Node13&#45;&gt;Node8 -->
<g id="edge27" class="edge">
<title>Node13&#45;&gt;Node8</title>
<path fill="none" stroke="midnightblue" d="M106.38,-168.31C119.6,-145.27 159.15,-82.52 211.59,-56 277.38,-22.72 494.38,-14.03 593.9,-11.78"/>
<polygon fill="midnightblue" stroke="midnightblue" points="594.09,-15.28 604.02,-11.56 593.94,-8.28 594.09,-15.28"/>
</g>
<!-- Node14&#45;&gt;Node6 -->
<g id="edge29" class="edge">
<title>Node14&#45;&gt;Node6</title>
<path fill="none" stroke="midnightblue" d="M647.71,-168.44C617.84,-159.28 570.28,-144.69 537.14,-134.52"/>
<polygon fill="midnightblue" stroke="midnightblue" points="537.94,-131.1 527.35,-131.52 535.88,-137.8 537.94,-131.1"/>
</g>
<!-- Node14&#45;&gt;Node8 -->
<g id="edge31" class="edge">
<title>Node14&#45;&gt;Node8</title>
<path fill="none" stroke="midnightblue" d="M673.02,-168.44C670.39,-159.43 666.3,-144.82 663.59,-132 656,-96.06 650,-53.53 646.91,-29.67"/>
<polygon fill="midnightblue" stroke="midnightblue" points="650.36,-29.04 645.62,-19.56 643.41,-29.93 650.36,-29.04"/>
</g>
<!-- Node14&#45;&gt;Node9 -->
<g id="edge30" class="edge">
<title>Node14&#45;&gt;Node9</title>
<path fill="none" stroke="midnightblue" d="M682.2,-168.08C687.85,-160.46 696.14,-149.26 703.04,-139.94"/>
<polygon fill="midnightblue" stroke="midnightblue" points="705.97,-141.87 709.11,-131.75 700.35,-137.7 705.97,-141.87"/>
</g>
<!-- Node15&#45;&gt;Node8 -->
<g id="edge33" class="edge">
<title>Node15&#45;&gt;Node8</title>
<path fill="none" stroke="midnightblue" d="M73.82,-62.71C163.92,-54.55 470.95,-26.73 593.48,-15.63"/>
<polygon fill="midnightblue" stroke="midnightblue" points="594.08,-19.09 603.72,-14.7 593.44,-12.12 594.08,-19.09"/>
</g>
<!-- Node17&#45;&gt;Node8 -->
<g id="edge38" class="edge">
<title>Node17&#45;&gt;Node8</title>
<path fill="none" stroke="midnightblue" d="M1129.35,-112.42C1116.55,-97.94 1088.37,-68.96 1057.59,-56 993.38,-28.96 790.84,-17.1 695.35,-12.91"/>
<polygon fill="midnightblue" stroke="midnightblue" points="695.49,-9.42 685.35,-12.49 695.19,-16.41 695.49,-9.42"/>
</g>
</g>
</svg>
