<?xml version="1.0" encoding="UTF-8" standalone="no"?>
<!DOCTYPE svg PUBLIC "-//W3C//DTD SVG 1.1//EN"
 "http://www.w3.org/Graphics/SVG/1.1/DTD/svg11.dtd">
<!-- Generated by graphviz version 2.44.0 ()
 -->
<!-- Title: include/JSystem/JKernel/JKRArchive.h Pages: 1 -->
<!--zoomable 319 -->
<svg id="main" version="1.1" xmlns="http://www.w3.org/2000/svg" xmlns:xlink="http://www.w3.org/1999/xlink" xml:space="preserve" onload="init(evt)">
<style type="text/css"><![CDATA[
.edge:hover path { stroke: red; }
.edge:hover polygon { stroke: red; fill: red; }
]]></style>
<script type="text/javascript"><![CDATA[
var edges = document.getElementsByTagName('g');
if (edges && edges.length) {
  for (var i=0;i<edges.length;i++) {
    if (edges[i].id.substr(0,4)=='edge') {
      edges[i].setAttribute('class','edge');
    }
  }
}
]]></script>
        <defs>
                <circle id="rim" cx="0" cy="0" r="7"/>
                <circle id="rim2" cx="0" cy="0" r="3.5"/>
                <g id="zoomPlus">
                        <use xlink:href="#rim" fill="#404040">
                                <set attributeName="fill" to="#808080" begin="zoomplus.mouseover" end="zoomplus.mouseout"/>
                        </use>
                        <path d="M-4,0h8M0,-4v8" fill="none" stroke="white" stroke-width="1.5" pointer-events="none"/>
                </g>
                <g id="zoomMin">
                        <use xlink:href="#rim" fill="#404040">
                                <set attributeName="fill" to="#808080" begin="zoomminus.mouseover" end="zoomminus.mouseout"/>
                        </use>
                        <path d="M-4,0h8" fill="none" stroke="white" stroke-width="1.5" pointer-events="none"/>
                </g>
                <g id="dirArrow">
                        <path fill="none" stroke="white" stroke-width="1.5" d="M0,-3.0v7 M-2.5,-0.5L0,-3.0L2.5,-0.5"/>
                </g>
               <g id="resetDef">
                       <use xlink:href="#rim2" fill="#404040">
                               <set attributeName="fill" to="#808080" begin="reset.mouseover" end="reset.mouseout"/>
                       </use>
               </g>
        </defs>

<script type="text/javascript">
var viewWidth = 1073;
var viewHeight = 319;
var sectionId = 'dynsection-0';
</script>
<script xlink:href="svgpan.js"/>
<svg id="graph" class="graph">
<g id="viewport">
<title>include/JSystem/JKernel/JKRArchive.h</title>
<polygon fill="white" stroke="transparent" points="-4,4 -4,-315 1068.5,-315 1068.5,4 -4,4"/>
<!-- Node1 -->
<g id="node1" class="node">
<title>Node1</title>
<g id="a_node1"><a xlink:title=" ">
<polygon fill="#bfbfbf" stroke="black" points="466,-280.5 466,-310.5 591,-310.5 591,-280.5 466,-280.5"/>
<text text-anchor="start" x="474" y="-298.5" font-family="Helvetica,sans-Serif" font-size="10.00">include/JSystem/JKernel</text>
<text text-anchor="middle" x="528.5" y="-287.5" font-family="Helvetica,sans-Serif" font-size="10.00">/JKRArchive.h</text>
</a>
</g>
</g>
<!-- Node2 -->
<g id="node2" class="node">
<title>Node2</title>
<g id="a_node2"><a xlink:href="JKRCompression_8h.html" target="_top" xlink:title=" ">
<polygon fill="white" stroke="black" points="0,-168.5 0,-187.5 177,-187.5 177,-168.5 0,-168.5"/>
<text text-anchor="middle" x="88.5" y="-175.5" font-family="Helvetica,sans-Serif" font-size="10.00">JSystem/JKernel/JKRCompression.h</text>
</a>
</g>
</g>
<!-- Node1&#45;&gt;Node2 -->
<g id="edge1" class="edge">
<title>Node1&#45;&gt;Node2</title>
<path fill="none" stroke="midnightblue" d="M465.7,-290.14C375.97,-283.17 216.08,-267.85 163.5,-244 138.87,-232.83 116.25,-210.93 102.44,-195.65"/>
<polygon fill="midnightblue" stroke="midnightblue" points="104.93,-193.18 95.71,-187.95 99.66,-197.79 104.93,-193.18"/>
</g>
<!-- Node3 -->
<g id="node3" class="node">
<title>Node3</title>
<g id="a_node3"><a xlink:href="JKRDecomp_8h.html" target="_top" xlink:title=" ">
<polygon fill="white" stroke="black" points="172.5,-224.5 172.5,-243.5 328.5,-243.5 328.5,-224.5 172.5,-224.5"/>
<text text-anchor="middle" x="250.5" y="-231.5" font-family="Helvetica,sans-Serif" font-size="10.00">JSystem/JKernel/JKRDecomp.h</text>
</a>
</g>
</g>
<!-- Node1&#45;&gt;Node3 -->
<g id="edge2" class="edge">
<title>Node1&#45;&gt;Node3</title>
<path fill="none" stroke="midnightblue" d="M465.76,-281.07C415.63,-270.34 346.34,-255.51 300.05,-245.6"/>
<polygon fill="midnightblue" stroke="midnightblue" points="300.76,-242.18 290.25,-243.51 299.29,-249.02 300.76,-242.18"/>
</g>
<!-- Node10 -->
<g id="node10" class="node">
<title>Node10</title>
<g id="a_node10"><a xlink:href="JKRDvdFile_8h.html" target="_top" xlink:title=" ">
<polygon fill="white" stroke="black" points="776,-224.5 776,-243.5 929,-243.5 929,-224.5 776,-224.5"/>
<text text-anchor="middle" x="852.5" y="-231.5" font-family="Helvetica,sans-Serif" font-size="10.00">JSystem/JKernel/JKRDvdFile.h</text>
</a>
</g>
</g>
<!-- Node1&#45;&gt;Node10 -->
<g id="edge16" class="edge">
<title>Node1&#45;&gt;Node10</title>
<path fill="none" stroke="midnightblue" d="M591.35,-282.96C650.73,-272.05 738.97,-255.85 796.12,-245.35"/>
<polygon fill="midnightblue" stroke="midnightblue" points="796.86,-248.78 806.06,-243.53 795.6,-241.89 796.86,-248.78"/>
</g>
<!-- Node12 -->
<g id="node12" class="node">
<title>Node12</title>
<g id="a_node12"><a xlink:href="JKRFileLoader_8h.html" target="_top" xlink:title=" ">
<polygon fill="white" stroke="black" points="232.5,-168.5 232.5,-187.5 398.5,-187.5 398.5,-168.5 232.5,-168.5"/>
<text text-anchor="middle" x="315.5" y="-175.5" font-family="Helvetica,sans-Serif" font-size="10.00">JSystem/JKernel/JKRFileLoader.h</text>
</a>
</g>
</g>
<!-- Node1&#45;&gt;Node12 -->
<g id="edge23" class="edge">
<title>Node1&#45;&gt;Node12</title>
<path fill="none" stroke="midnightblue" d="M502.38,-280.34C460.94,-257.86 380.66,-214.33 340.15,-192.37"/>
<polygon fill="midnightblue" stroke="midnightblue" points="341.68,-189.21 331.22,-187.52 338.34,-195.37 341.68,-189.21"/>
</g>
<!-- Node13 -->
<g id="node13" class="node">
<title>Node13</title>
<g id="a_node13"><a xlink:href="JKRHeap_8h.html" target="_top" xlink:title=" ">
<polygon fill="white" stroke="black" points="585,-168.5 585,-187.5 728,-187.5 728,-168.5 585,-168.5"/>
<text text-anchor="middle" x="656.5" y="-175.5" font-family="Helvetica,sans-Serif" font-size="10.00">JSystem/JKernel/JKRHeap.h</text>
</a>
</g>
</g>
<!-- Node1&#45;&gt;Node13 -->
<g id="edge27" class="edge">
<title>Node1&#45;&gt;Node13</title>
<path fill="none" stroke="midnightblue" d="M544.2,-280.34C568.31,-258.58 614.28,-217.09 639.28,-194.54"/>
<polygon fill="midnightblue" stroke="midnightblue" points="641.81,-196.97 646.89,-187.67 637.12,-191.77 641.81,-196.97"/>
</g>
<!-- Node14 -->
<g id="node14" class="node">
<title>Node14</title>
<g id="a_node14"><a xlink:href="global_8h.html" target="_top" xlink:title=" ">
<polygon fill="white" stroke="black" points="1014.5,-112.5 1014.5,-131.5 1064.5,-131.5 1064.5,-112.5 1014.5,-112.5"/>
<text text-anchor="middle" x="1039.5" y="-119.5" font-family="Helvetica,sans-Serif" font-size="10.00">global.h</text>
</a>
</g>
</g>
<!-- Node1&#45;&gt;Node14 -->
<g id="edge31" class="edge">
<title>Node1&#45;&gt;Node14</title>
<path fill="none" stroke="midnightblue" d="M591.29,-291.39C690.41,-285.7 878.08,-271.61 938.5,-244 984.61,-222.93 1016.87,-169 1031.19,-140.79"/>
<polygon fill="midnightblue" stroke="midnightblue" points="1034.4,-142.19 1035.64,-131.67 1028.11,-139.12 1034.4,-142.19"/>
</g>
<!-- Node3&#45;&gt;Node2 -->
<g id="edge3" class="edge">
<title>Node3&#45;&gt;Node2</title>
<path fill="none" stroke="midnightblue" d="M224.83,-224.44C197.58,-215.36 154.32,-200.94 123.85,-190.78"/>
<polygon fill="midnightblue" stroke="midnightblue" points="124.64,-187.36 114.05,-187.52 122.43,-194 124.64,-187.36"/>
</g>
<!-- Node4 -->
<g id="node4" class="node">
<title>Node4</title>
<g id="a_node4"><a xlink:href="JKRThread_8h.html" target="_top" xlink:title=" ">
<polygon fill="white" stroke="black" points="416.5,-168.5 416.5,-187.5 566.5,-187.5 566.5,-168.5 416.5,-168.5"/>
<text text-anchor="middle" x="491.5" y="-175.5" font-family="Helvetica,sans-Serif" font-size="10.00">JSystem/JKernel/JKRThread.h</text>
</a>
</g>
</g>
<!-- Node3&#45;&gt;Node4 -->
<g id="edge4" class="edge">
<title>Node3&#45;&gt;Node4</title>
<path fill="none" stroke="midnightblue" d="M288.69,-224.44C330.64,-215.04 398.09,-199.93 443.57,-189.74"/>
<polygon fill="midnightblue" stroke="midnightblue" points="444.5,-193.12 453.49,-187.52 442.97,-186.29 444.5,-193.12"/>
</g>
<!-- Node7 -->
<g id="node7" class="node">
<title>Node7</title>
<g id="a_node7"><a xlink:href="types_8h.html" target="_top" xlink:title=" ">
<polygon fill="white" stroke="black" points="645,-0.5 645,-19.5 726,-19.5 726,-0.5 645,-0.5"/>
<text text-anchor="middle" x="685.5" y="-7.5" font-family="Helvetica,sans-Serif" font-size="10.00">dolphin/types.h</text>
</a>
</g>
</g>
<!-- Node3&#45;&gt;Node7 -->
<g id="edge15" class="edge">
<title>Node3&#45;&gt;Node7</title>
<path fill="none" stroke="midnightblue" d="M241.92,-224.28C230.44,-211.51 212.7,-187.16 223.5,-168 270.69,-84.27 318.3,-89.2 408.5,-56 484.25,-28.11 577.98,-17.47 634.69,-13.44"/>
<polygon fill="midnightblue" stroke="midnightblue" points="635.09,-16.92 644.83,-12.76 634.62,-9.94 635.09,-16.92"/>
</g>
<!-- Node5 -->
<g id="node5" class="node">
<title>Node5</title>
<g id="a_node5"><a xlink:href="JKRDisposer_8h.html" target="_top" xlink:title=" ">
<polygon fill="white" stroke="black" points="499.5,-112.5 499.5,-131.5 657.5,-131.5 657.5,-112.5 499.5,-112.5"/>
<text text-anchor="middle" x="578.5" y="-119.5" font-family="Helvetica,sans-Serif" font-size="10.00">JSystem/JKernel/JKRDisposer.h</text>
</a>
</g>
</g>
<!-- Node4&#45;&gt;Node5 -->
<g id="edge5" class="edge">
<title>Node4&#45;&gt;Node5</title>
<path fill="none" stroke="midnightblue" d="M505.48,-168.32C519.05,-159.9 539.88,-146.97 555.82,-137.07"/>
<polygon fill="midnightblue" stroke="midnightblue" points="557.91,-139.9 564.56,-131.65 554.21,-133.95 557.91,-139.9"/>
</g>
<!-- Node6 -->
<g id="node6" class="node">
<title>Node6</title>
<g id="a_node6"><a xlink:href="JSUList_8h.html" target="_top" xlink:title=" ">
<polygon fill="white" stroke="black" points="466,-56.5 466,-75.5 609,-75.5 609,-56.5 466,-56.5"/>
<text text-anchor="middle" x="537.5" y="-63.5" font-family="Helvetica,sans-Serif" font-size="10.00">JSystem/JSupport/JSUList.h</text>
</a>
</g>
</g>
<!-- Node4&#45;&gt;Node6 -->
<g id="edge9" class="edge">
<title>Node4&#45;&gt;Node6</title>
<path fill="none" stroke="midnightblue" d="M489.18,-168.16C486.26,-155.23 482.52,-130.68 490.5,-112 495.65,-99.95 505.78,-89.58 515.33,-81.84"/>
<polygon fill="midnightblue" stroke="midnightblue" points="517.54,-84.55 523.42,-75.74 513.33,-78.96 517.54,-84.55"/>
</g>
<!-- Node4&#45;&gt;Node7 -->
<g id="edge14" class="edge">
<title>Node4&#45;&gt;Node7</title>
<path fill="none" stroke="midnightblue" d="M484.25,-168.32C467.21,-146.83 428.16,-90.45 456.5,-56 478.58,-29.16 573.93,-18.08 634.41,-13.7"/>
<polygon fill="midnightblue" stroke="midnightblue" points="634.8,-17.18 644.54,-13 634.32,-10.19 634.8,-17.18"/>
</g>
<!-- Node8 -->
<g id="node8" class="node">
<title>Node8</title>
<g id="a_node8"><a xlink:href="OS_8h.html" target="_top" xlink:title=" ">
<polygon fill="white" stroke="black" points="713.5,-112.5 713.5,-131.5 799.5,-131.5 799.5,-112.5 713.5,-112.5"/>
<text text-anchor="middle" x="756.5" y="-119.5" font-family="Helvetica,sans-Serif" font-size="10.00">dolphin/os/OS.h</text>
</a>
</g>
</g>
<!-- Node4&#45;&gt;Node8 -->
<g id="edge10" class="edge">
<title>Node4&#45;&gt;Node8</title>
<path fill="none" stroke="midnightblue" d="M533.49,-168.44C579.91,-158.98 654.73,-143.74 704.74,-133.55"/>
<polygon fill="midnightblue" stroke="midnightblue" points="705.61,-136.94 714.71,-131.52 704.21,-130.08 705.61,-136.94"/>
</g>
<!-- Node5&#45;&gt;Node6 -->
<g id="edge6" class="edge">
<title>Node5&#45;&gt;Node6</title>
<path fill="none" stroke="midnightblue" d="M571.73,-112.08C565.94,-104.46 557.44,-93.26 550.36,-83.94"/>
<polygon fill="midnightblue" stroke="midnightblue" points="552.98,-81.6 544.14,-75.75 547.4,-85.83 552.98,-81.6"/>
</g>
<!-- Node5&#45;&gt;Node7 -->
<g id="edge8" class="edge">
<title>Node5&#45;&gt;Node7</title>
<path fill="none" stroke="midnightblue" d="M586.9,-112.37C604.79,-93.97 646.91,-50.67 669.89,-27.05"/>
<polygon fill="midnightblue" stroke="midnightblue" points="672.68,-29.2 677.14,-19.59 667.66,-24.32 672.68,-29.2"/>
</g>
<!-- Node6&#45;&gt;Node7 -->
<g id="edge7" class="edge">
<title>Node6&#45;&gt;Node7</title>
<path fill="none" stroke="midnightblue" d="M560.95,-56.44C585.63,-47.44 624.69,-33.19 652.48,-23.05"/>
<polygon fill="midnightblue" stroke="midnightblue" points="653.96,-26.23 662.16,-19.52 651.56,-19.66 653.96,-26.23"/>
</g>
<!-- Node8&#45;&gt;Node7 -->
<g id="edge11" class="edge">
<title>Node8&#45;&gt;Node7</title>
<path fill="none" stroke="midnightblue" d="M750.93,-112.37C739.26,-94.3 712.08,-52.18 696.67,-28.31"/>
<polygon fill="midnightblue" stroke="midnightblue" points="699.41,-26.1 691.05,-19.59 693.53,-29.89 699.41,-26.1"/>
</g>
<!-- Node9 -->
<g id="node9" class="node">
<title>Node9</title>
<g id="a_node9"><a xlink:href="dvd_8h.html" target="_top" xlink:title=" ">
<polygon fill="white" stroke="black" points="855.5,-56.5 855.5,-75.5 947.5,-75.5 947.5,-56.5 855.5,-56.5"/>
<text text-anchor="middle" x="901.5" y="-63.5" font-family="Helvetica,sans-Serif" font-size="10.00">dolphin/dvd/dvd.h</text>
</a>
</g>
</g>
<!-- Node8&#45;&gt;Node9 -->
<g id="edge12" class="edge">
<title>Node8&#45;&gt;Node9</title>
<path fill="none" stroke="midnightblue" d="M779.48,-112.44C803.66,-103.44 841.92,-89.19 869.15,-79.05"/>
<polygon fill="midnightblue" stroke="midnightblue" points="870.48,-82.29 878.63,-75.52 868.04,-75.73 870.48,-82.29"/>
</g>
<!-- Node9&#45;&gt;Node7 -->
<g id="edge13" class="edge">
<title>Node9&#45;&gt;Node7</title>
<path fill="none" stroke="midnightblue" d="M867.27,-56.44C829.99,-47.12 770.23,-32.18 729.49,-22"/>
<polygon fill="midnightblue" stroke="midnightblue" points="730.12,-18.55 719.57,-19.52 728.42,-25.34 730.12,-18.55"/>
</g>
<!-- Node10&#45;&gt;Node7 -->
<g id="edge22" class="edge">
<title>Node10&#45;&gt;Node7</title>
<path fill="none" stroke="midnightblue" d="M890.55,-224.46C910.53,-217.92 933.5,-206.73 946.5,-188 980.04,-139.66 994.54,-100.88 956.5,-56 928.8,-23.32 806.5,-14.34 736.03,-11.9"/>
<polygon fill="midnightblue" stroke="midnightblue" points="736.13,-8.4 726.02,-11.58 735.91,-15.4 736.13,-8.4"/>
</g>
<!-- Node10&#45;&gt;Node8 -->
<g id="edge21" class="edge">
<title>Node10&#45;&gt;Node8</title>
<path fill="none" stroke="midnightblue" d="M828.34,-224.48C811.25,-217.28 789.04,-205.33 775.5,-188 765.11,-174.69 760.39,-155.86 758.26,-141.89"/>
<polygon fill="midnightblue" stroke="midnightblue" points="761.73,-141.43 757.04,-131.93 754.78,-142.28 761.73,-141.43"/>
</g>
<!-- Node10&#45;&gt;Node9 -->
<g id="edge20" class="edge">
<title>Node10&#45;&gt;Node9</title>
<path fill="none" stroke="midnightblue" d="M880.87,-224.49C898.25,-217.65 919.1,-206.13 929.5,-188 948.73,-154.48 927.32,-108.6 912.74,-84.08"/>
<polygon fill="midnightblue" stroke="midnightblue" points="915.67,-82.16 907.4,-75.53 909.73,-85.87 915.67,-82.16"/>
</g>
<!-- Node11 -->
<g id="node11" class="node">
<title>Node11</title>
<g id="a_node11"><a xlink:href="JKRFile_8h.html" target="_top" xlink:title=" ">
<polygon fill="white" stroke="black" points="784.5,-168.5 784.5,-187.5 920.5,-187.5 920.5,-168.5 784.5,-168.5"/>
<text text-anchor="middle" x="852.5" y="-175.5" font-family="Helvetica,sans-Serif" font-size="10.00">JSystem/JKernel/JKRFile.h</text>
</a>
</g>
</g>
<!-- Node10&#45;&gt;Node11 -->
<g id="edge17" class="edge">
<title>Node10&#45;&gt;Node11</title>
<path fill="none" stroke="midnightblue" d="M852.5,-224.08C852.5,-217.01 852.5,-206.86 852.5,-197.99"/>
<polygon fill="midnightblue" stroke="midnightblue" points="856,-197.75 852.5,-187.75 849,-197.75 856,-197.75"/>
</g>
<!-- Node11&#45;&gt;Node5 -->
<g id="edge18" class="edge">
<title>Node11&#45;&gt;Node5</title>
<path fill="none" stroke="midnightblue" d="M809.08,-168.44C760.98,-158.96 683.41,-143.67 631.69,-133.48"/>
<polygon fill="midnightblue" stroke="midnightblue" points="632.2,-130.02 621.71,-131.52 630.85,-136.88 632.2,-130.02"/>
</g>
<!-- Node11&#45;&gt;Node7 -->
<g id="edge19" class="edge">
<title>Node11&#45;&gt;Node7</title>
<path fill="none" stroke="midnightblue" d="M847.78,-168.44C840.4,-155.45 825.21,-130.33 808.5,-112 776.7,-77.11 732.56,-43.8 706.71,-25.51"/>
<polygon fill="midnightblue" stroke="midnightblue" points="708.59,-22.55 698.39,-19.68 704.58,-28.28 708.59,-22.55"/>
</g>
<!-- Node12&#45;&gt;Node5 -->
<g id="edge24" class="edge">
<title>Node12&#45;&gt;Node5</title>
<path fill="none" stroke="midnightblue" d="M357.17,-168.44C403.25,-158.98 477.5,-143.74 527.13,-133.55"/>
<polygon fill="midnightblue" stroke="midnightblue" points="527.93,-136.96 537.02,-131.52 526.52,-130.1 527.93,-136.96"/>
</g>
<!-- Node12&#45;&gt;Node6 -->
<g id="edge25" class="edge">
<title>Node12&#45;&gt;Node6</title>
<path fill="none" stroke="midnightblue" d="M332.92,-168.37C371.66,-149.17 465.16,-102.84 511.11,-80.07"/>
<polygon fill="midnightblue" stroke="midnightblue" points="512.75,-83.17 520.16,-75.59 509.65,-76.9 512.75,-83.17"/>
</g>
<!-- Node12&#45;&gt;Node7 -->
<g id="edge26" class="edge">
<title>Node12&#45;&gt;Node7</title>
<path fill="none" stroke="midnightblue" d="M321.88,-168.23C338.93,-145.52 388.08,-84.59 444.5,-56 505.24,-25.22 584.18,-15.34 634.85,-12.25"/>
<polygon fill="midnightblue" stroke="midnightblue" points="635.11,-15.74 644.91,-11.71 634.73,-8.75 635.11,-15.74"/>
</g>
<!-- Node13&#45;&gt;Node5 -->
<g id="edge28" class="edge">
<title>Node13&#45;&gt;Node5</title>
<path fill="none" stroke="midnightblue" d="M643.97,-168.32C631.91,-159.98 613.47,-147.21 599.23,-137.35"/>
<polygon fill="midnightblue" stroke="midnightblue" points="601.22,-134.47 591,-131.65 597.23,-140.22 601.22,-134.47"/>
</g>
<!-- Node13&#45;&gt;Node7 -->
<g id="edge30" class="edge">
<title>Node13&#45;&gt;Node7</title>
<path fill="none" stroke="midnightblue" d="M658.58,-168.41C660.72,-159.38 664.09,-144.74 666.5,-132 673.34,-95.91 679.6,-53.43 682.95,-29.62"/>
<polygon fill="midnightblue" stroke="midnightblue" points="686.44,-29.93 684.35,-19.54 679.5,-28.96 686.44,-29.93"/>
</g>
<!-- Node13&#45;&gt;Node8 -->
<g id="edge29" class="edge">
<title>Node13&#45;&gt;Node8</title>
<path fill="none" stroke="midnightblue" d="M672.57,-168.32C688.46,-159.74 713.01,-146.49 731.46,-136.52"/>
<polygon fill="midnightblue" stroke="midnightblue" points="733.34,-139.49 740.47,-131.65 730.01,-133.33 733.34,-139.49"/>
</g>
<!-- Node14&#45;&gt;Node7 -->
<g id="edge32" class="edge">
<title>Node14&#45;&gt;Node7</title>
<path fill="none" stroke="midnightblue" d="M1036.92,-112.12C1032.24,-97.72 1020.89,-69.54 1000.5,-56 958.16,-27.89 813.97,-16.94 736.2,-13.01"/>
<polygon fill="midnightblue" stroke="midnightblue" points="736.3,-9.51 726.14,-12.52 735.96,-16.5 736.3,-9.51"/>
</g>
</g>
</svg>
        <g id="navigator" transform="translate(0 0)" fill="#404254">
                <rect fill="#f2f5e9" fill-opacity="0.5" stroke="#606060" stroke-width=".5" x="0" y="0" width="60" height="60"/>
                <use id="zoomplus" xlink:href="#zoomPlus" x="17" y="9" onmousedown="handleZoom(evt,'in')"/>
                <use id="zoomminus" xlink:href="#zoomMin" x="42" y="9" onmousedown="handleZoom(evt,'out')"/>
                <use id="reset" xlink:href="#resetDef" x="30" y="36" onmousedown="handleReset()"/>
                <g id="arrowUp" xlink:href="#dirArrow" transform="translate(30 24)" onmousedown="handlePan(0,-1)">
                  <use xlink:href="#rim" fill="#404040">
                        <set attributeName="fill" to="#808080" begin="arrowUp.mouseover" end="arrowUp.mouseout"/>
                  </use>
                  <path fill="none" stroke="white" stroke-width="1.5" d="M0,-3.0v7 M-2.5,-0.5L0,-3.0L2.5,-0.5"/>
                </g>
                <g id="arrowRight" xlink:href="#dirArrow" transform="rotate(90) translate(36 -43)" onmousedown="handlePan(1,0)">
                  <use xlink:href="#rim" fill="#404040">
                        <set attributeName="fill" to="#808080" begin="arrowRight.mouseover" end="arrowRight.mouseout"/>
                  </use>
                  <path fill="none" stroke="white" stroke-width="1.5" d="M0,-3.0v7 M-2.5,-0.5L0,-3.0L2.5,-0.5"/>
                </g>
                <g id="arrowDown" xlink:href="#dirArrow" transform="rotate(180) translate(-30 -48)" onmousedown="handlePan(0,1)">
                  <use xlink:href="#rim" fill="#404040">
                        <set attributeName="fill" to="#808080" begin="arrowDown.mouseover" end="arrowDown.mouseout"/>
                  </use>
                  <path fill="none" stroke="white" stroke-width="1.5" d="M0,-3.0v7 M-2.5,-0.5L0,-3.0L2.5,-0.5"/>
                </g>
                <g id="arrowLeft" xlink:href="#dirArrow" transform="rotate(270) translate(-36 17)" onmousedown="handlePan(-1,0)">
                  <use xlink:href="#rim" fill="#404040">
                        <set attributeName="fill" to="#808080" begin="arrowLeft.mouseover" end="arrowLeft.mouseout"/>
                  </use>
                  <path fill="none" stroke="white" stroke-width="1.5" d="M0,-3.0v7 M-2.5,-0.5L0,-3.0L2.5,-0.5"/>
                </g>
        </g>
        <svg viewBox="0 0 15 15" width="100%" height="30px" preserveAspectRatio="xMaxYMin meet">
         <g id="arrow_out" transform="scale(0.3 0.3)">
          <a xlink:href="JKRArchive_8h__incl_org.svg" target="_base">
           <rect id="button" ry="5" rx="5" y="6" x="6" height="38" width="38"
                fill="#f2f5e9" fill-opacity="0.5" stroke="#606060" stroke-width="1.0"/>
           <path id="arrow"
             d="M 11.500037,31.436501 C 11.940474,20.09759 22.043105,11.32322 32.158766,21.979434 L 37.068811,17.246167 C 37.068811,17.246167 37.088388,32 37.088388,32 L 22.160133,31.978069 C 22.160133,31.978069 26.997745,27.140456 26.997745,27.140456 C 18.528582,18.264221 13.291696,25.230495 11.500037,31.436501 z"
             style="fill:#404040;"/>
          </a>
         </g>
        </svg>
</svg>
