<?xml version="1.0" encoding="UTF-8" standalone="no"?>
<!DOCTYPE svg PUBLIC "-//W3C//DTD SVG 1.1//EN"
 "http://www.w3.org/Graphics/SVG/1.1/DTD/svg11.dtd">
<!-- Generated by graphviz version 2.44.0 ()
 -->
<!-- Title: include/JSystem/JKernel/JKRAramBlock.h Pages: 1 -->
<!--zoomable 431 -->
<svg id="main" version="1.1" xmlns="http://www.w3.org/2000/svg" xmlns:xlink="http://www.w3.org/1999/xlink" xml:space="preserve" onload="init(evt)">
<style type="text/css"><![CDATA[
.edge:hover path { stroke: red; }
.edge:hover polygon { stroke: red; fill: red; }
]]></style>
<script type="text/javascript"><![CDATA[
var edges = document.getElementsByTagName('g');
if (edges && edges.length) {
  for (var i=0;i<edges.length;i++) {
    if (edges[i].id.substr(0,4)=='edge') {
      edges[i].setAttribute('class','edge');
    }
  }
}
]]></script>
        <defs>
                <circle id="rim" cx="0" cy="0" r="7"/>
                <circle id="rim2" cx="0" cy="0" r="3.5"/>
                <g id="zoomPlus">
                        <use xlink:href="#rim" fill="#404040">
                                <set attributeName="fill" to="#808080" begin="zoomplus.mouseover" end="zoomplus.mouseout"/>
                        </use>
                        <path d="M-4,0h8M0,-4v8" fill="none" stroke="white" stroke-width="1.5" pointer-events="none"/>
                </g>
                <g id="zoomMin">
                        <use xlink:href="#rim" fill="#404040">
                                <set attributeName="fill" to="#808080" begin="zoomminus.mouseover" end="zoomminus.mouseout"/>
                        </use>
                        <path d="M-4,0h8" fill="none" stroke="white" stroke-width="1.5" pointer-events="none"/>
                </g>
                <g id="dirArrow">
                        <path fill="none" stroke="white" stroke-width="1.5" d="M0,-3.0v7 M-2.5,-0.5L0,-3.0L2.5,-0.5"/>
                </g>
               <g id="resetDef">
                       <use xlink:href="#rim2" fill="#404040">
                               <set attributeName="fill" to="#808080" begin="reset.mouseover" end="reset.mouseout"/>
                       </use>
               </g>
        </defs>

<script type="text/javascript">
var viewWidth = 869;
var viewHeight = 431;
var sectionId = 'dynsection-0';
</script>
<script xlink:href="svgpan.js"/>
<svg id="graph" class="graph">
<g id="viewport">
<title>include/JSystem/JKernel/JKRAramBlock.h</title>
<polygon fill="white" stroke="transparent" points="-4,4 -4,-427 865.27,-427 865.27,4 -4,4"/>
<!-- Node1 -->
<g id="node1" class="node">
<title>Node1</title>
<g id="a_node1"><a xlink:title=" ">
<polygon fill="#bfbfbf" stroke="black" points="348.5,-392.5 348.5,-422.5 473.5,-422.5 473.5,-392.5 348.5,-392.5"/>
<text text-anchor="start" x="356.5" y="-410.5" font-family="Helvetica,sans-Serif" font-size="10.00">include/JSystem/JKernel</text>
<text text-anchor="middle" x="411" y="-399.5" font-family="Helvetica,sans-Serif" font-size="10.00">/JKRAramBlock.h</text>
</a>
</g>
</g>
<!-- Node2 -->
<g id="node2" class="node">
<title>Node2</title>
<g id="a_node2"><a xlink:href="types_8h.html" target="_top" xlink:title=" ">
<polygon fill="white" stroke="black" points="370.5,-0.5 370.5,-19.5 451.5,-19.5 451.5,-0.5 370.5,-0.5"/>
<text text-anchor="middle" x="411" y="-7.5" font-family="Helvetica,sans-Serif" font-size="10.00">dolphin/types.h</text>
</a>
</g>
</g>
<!-- Node1&#45;&gt;Node2 -->
<g id="edge1" class="edge">
<title>Node1&#45;&gt;Node2</title>
<path fill="none" stroke="midnightblue" d="M348.13,-401.91C233,-391.77 0,-362.43 0,-291 0,-291 0,-291 0,-121 0,-47.21 250.36,-21.6 360.28,-13.91"/>
<polygon fill="midnightblue" stroke="midnightblue" points="360.73,-17.38 370.47,-13.22 360.25,-10.4 360.73,-17.38"/>
</g>
<!-- Node3 -->
<g id="node3" class="node">
<title>Node3</title>
<g id="a_node3"><a xlink:href="JKRArchive_8h.html" target="_top" xlink:title=" ">
<polygon fill="white" stroke="black" points="334.5,-336.5 334.5,-355.5 487.5,-355.5 487.5,-336.5 334.5,-336.5"/>
<text text-anchor="middle" x="411" y="-343.5" font-family="Helvetica,sans-Serif" font-size="10.00">JSystem/JKernel/JKRArchive.h</text>
</a>
</g>
</g>
<!-- Node1&#45;&gt;Node3 -->
<g id="edge2" class="edge">
<title>Node1&#45;&gt;Node3</title>
<path fill="none" stroke="midnightblue" d="M411,-392.4C411,-384.47 411,-374.46 411,-365.86"/>
<polygon fill="midnightblue" stroke="midnightblue" points="414.5,-365.66 411,-355.66 407.5,-365.66 414.5,-365.66"/>
</g>
<!-- Node8 -->
<g id="node8" class="node">
<title>Node8</title>
<g id="a_node8"><a xlink:href="JSUList_8h.html" target="_top" xlink:title=" ">
<polygon fill="white" stroke="black" points="670.5,-56.5 670.5,-75.5 813.5,-75.5 813.5,-56.5 670.5,-56.5"/>
<text text-anchor="middle" x="742" y="-63.5" font-family="Helvetica,sans-Serif" font-size="10.00">JSystem/JSupport/JSUList.h</text>
</a>
</g>
</g>
<!-- Node1&#45;&gt;Node8 -->
<g id="edge36" class="edge">
<title>Node1&#45;&gt;Node8</title>
<path fill="none" stroke="midnightblue" d="M473.85,-404.48C573.34,-397.48 764.55,-367.7 850,-244 890.4,-185.52 804.23,-111.95 762.7,-81.36"/>
<polygon fill="midnightblue" stroke="midnightblue" points="764.74,-78.52 754.58,-75.51 760.64,-84.19 764.74,-78.52"/>
</g>
<!-- Node4 -->
<g id="node4" class="node">
<title>Node4</title>
<g id="a_node4"><a xlink:href="JKRCompression_8h.html" target="_top" xlink:title=" ">
<polygon fill="white" stroke="black" points="663.5,-224.5 663.5,-243.5 840.5,-243.5 840.5,-224.5 663.5,-224.5"/>
<text text-anchor="middle" x="752" y="-231.5" font-family="Helvetica,sans-Serif" font-size="10.00">JSystem/JKernel/JKRCompression.h</text>
</a>
</g>
</g>
<!-- Node3&#45;&gt;Node4 -->
<g id="edge3" class="edge">
<title>Node3&#45;&gt;Node4</title>
<path fill="none" stroke="midnightblue" d="M487.73,-342.2C541.66,-337.79 614.35,-326.85 673,-300 698.34,-288.4 722.3,-266.59 737.05,-251.45"/>
<polygon fill="midnightblue" stroke="midnightblue" points="739.92,-253.51 744.25,-243.84 734.84,-248.7 739.92,-253.51"/>
</g>
<!-- Node5 -->
<g id="node5" class="node">
<title>Node5</title>
<g id="a_node5"><a xlink:href="JKRDecomp_8h.html" target="_top" xlink:title=" ">
<polygon fill="white" stroke="black" points="508,-280.5 508,-299.5 664,-299.5 664,-280.5 508,-280.5"/>
<text text-anchor="middle" x="586" y="-287.5" font-family="Helvetica,sans-Serif" font-size="10.00">JSystem/JKernel/JKRDecomp.h</text>
</a>
</g>
</g>
<!-- Node3&#45;&gt;Node5 -->
<g id="edge4" class="edge">
<title>Node3&#45;&gt;Node5</title>
<path fill="none" stroke="midnightblue" d="M438.73,-336.44C468.43,-327.28 515.72,-312.69 548.67,-302.52"/>
<polygon fill="midnightblue" stroke="midnightblue" points="549.88,-305.81 558.4,-299.52 547.81,-299.12 549.88,-305.81"/>
</g>
<!-- Node9 -->
<g id="node9" class="node">
<title>Node9</title>
<g id="a_node9"><a xlink:href="JKRHeap_8h.html" target="_top" xlink:title=" ">
<polygon fill="white" stroke="black" points="372.5,-168.5 372.5,-187.5 515.5,-187.5 515.5,-168.5 372.5,-168.5"/>
<text text-anchor="middle" x="444" y="-175.5" font-family="Helvetica,sans-Serif" font-size="10.00">JSystem/JKernel/JKRHeap.h</text>
</a>
</g>
</g>
<!-- Node3&#45;&gt;Node9 -->
<g id="edge33" class="edge">
<title>Node3&#45;&gt;Node9</title>
<path fill="none" stroke="midnightblue" d="M409.87,-336.24C407.57,-315.95 403.55,-264.39 416,-224 419.11,-213.91 425.06,-203.82 430.68,-195.76"/>
<polygon fill="midnightblue" stroke="midnightblue" points="433.56,-197.74 436.71,-187.63 427.94,-193.57 433.56,-197.74"/>
</g>
<!-- Node12 -->
<g id="node12" class="node">
<title>Node12</title>
<g id="a_node12"><a xlink:href="JKRDvdFile_8h.html" target="_top" xlink:title=" ">
<polygon fill="white" stroke="black" points="37.5,-224.5 37.5,-243.5 190.5,-243.5 190.5,-224.5 37.5,-224.5"/>
<text text-anchor="middle" x="114" y="-231.5" font-family="Helvetica,sans-Serif" font-size="10.00">JSystem/JKernel/JKRDvdFile.h</text>
</a>
</g>
</g>
<!-- Node3&#45;&gt;Node12 -->
<g id="edge22" class="edge">
<title>Node3&#45;&gt;Node12</title>
<path fill="none" stroke="midnightblue" d="M385.91,-336.42C360.04,-327.52 318.59,-313.1 283,-300 234.53,-282.16 178.67,-260.45 144.87,-247.18"/>
<polygon fill="midnightblue" stroke="midnightblue" points="146.12,-243.91 135.53,-243.51 143.56,-250.43 146.12,-243.91"/>
</g>
<!-- Node14 -->
<g id="node14" class="node">
<title>Node14</title>
<g id="a_node14"><a xlink:href="JKRFileLoader_8h.html" target="_top" xlink:title=" ">
<polygon fill="white" stroke="black" points="572,-168.5 572,-187.5 738,-187.5 738,-168.5 572,-168.5"/>
<text text-anchor="middle" x="655" y="-175.5" font-family="Helvetica,sans-Serif" font-size="10.00">JSystem/JKernel/JKRFileLoader.h</text>
</a>
</g>
</g>
<!-- Node3&#45;&gt;Node14 -->
<g id="edge29" class="edge">
<title>Node3&#45;&gt;Node14</title>
<path fill="none" stroke="midnightblue" d="M412.59,-336.19C417.3,-311.03 431.94,-239.6 449,-224 466.85,-207.68 521.16,-196.21 569.54,-188.94"/>
<polygon fill="midnightblue" stroke="midnightblue" points="570.05,-192.41 579.44,-187.5 569.04,-185.48 570.05,-192.41"/>
</g>
<!-- Node15 -->
<g id="node15" class="node">
<title>Node15</title>
<g id="a_node15"><a xlink:href="global_8h.html" target="_top" xlink:title=" ">
<polygon fill="white" stroke="black" points="292,-280.5 292,-299.5 342,-299.5 342,-280.5 292,-280.5"/>
<text text-anchor="middle" x="317" y="-287.5" font-family="Helvetica,sans-Serif" font-size="10.00">global.h</text>
</a>
</g>
</g>
<!-- Node3&#45;&gt;Node15 -->
<g id="edge34" class="edge">
<title>Node3&#45;&gt;Node15</title>
<path fill="none" stroke="midnightblue" d="M395.9,-336.32C381.1,-327.82 358.31,-314.73 341.02,-304.8"/>
<polygon fill="midnightblue" stroke="midnightblue" points="342.48,-301.6 332.07,-299.65 338.99,-307.67 342.48,-301.6"/>
</g>
<!-- Node5&#45;&gt;Node2 -->
<g id="edge21" class="edge">
<title>Node5&#45;&gt;Node2</title>
<path fill="none" stroke="midnightblue" d="M592.65,-280.41C603.93,-266.43 628.23,-238.84 655,-224 710.06,-193.47 737.99,-220.35 792,-188 845.95,-155.68 885.52,-102.34 843,-56 817.63,-28.35 570.47,-16.49 461.81,-12.58"/>
<polygon fill="midnightblue" stroke="midnightblue" points="461.86,-9.08 451.74,-12.23 461.61,-16.08 461.86,-9.08"/>
</g>
<!-- Node5&#45;&gt;Node4 -->
<g id="edge5" class="edge">
<title>Node5&#45;&gt;Node4</title>
<path fill="none" stroke="midnightblue" d="M612.3,-280.44C640.35,-271.32 684.94,-256.81 716.18,-246.65"/>
<polygon fill="midnightblue" stroke="midnightblue" points="717.39,-249.94 725.82,-243.52 715.23,-243.28 717.39,-249.94"/>
</g>
<!-- Node6 -->
<g id="node6" class="node">
<title>Node6</title>
<g id="a_node6"><a xlink:href="JKRThread_8h.html" target="_top" xlink:title=" ">
<polygon fill="white" stroke="black" points="458,-224.5 458,-243.5 608,-243.5 608,-224.5 458,-224.5"/>
<text text-anchor="middle" x="533" y="-231.5" font-family="Helvetica,sans-Serif" font-size="10.00">JSystem/JKernel/JKRThread.h</text>
</a>
</g>
</g>
<!-- Node5&#45;&gt;Node6 -->
<g id="edge6" class="edge">
<title>Node5&#45;&gt;Node6</title>
<path fill="none" stroke="midnightblue" d="M577.25,-280.08C569.53,-272.22 558.1,-260.57 548.78,-251.08"/>
<polygon fill="midnightblue" stroke="midnightblue" points="551.09,-248.44 541.59,-243.75 546.1,-253.34 551.09,-248.44"/>
</g>
<!-- Node6&#45;&gt;Node2 -->
<g id="edge20" class="edge">
<title>Node6&#45;&gt;Node2</title>
<path fill="none" stroke="midnightblue" d="M608.24,-225.66C666.57,-218.68 741.48,-206.46 766,-188 817.05,-149.56 865.66,-103.58 823,-56 799.26,-29.53 566.55,-17.11 461.73,-12.82"/>
<polygon fill="midnightblue" stroke="midnightblue" points="461.83,-9.32 451.69,-12.42 461.55,-16.32 461.83,-9.32"/>
</g>
<!-- Node7 -->
<g id="node7" class="node">
<title>Node7</title>
<g id="a_node7"><a xlink:href="JKRDisposer_8h.html" target="_top" xlink:title=" ">
<polygon fill="white" stroke="black" points="467,-112.5 467,-131.5 625,-131.5 625,-112.5 467,-112.5"/>
<text text-anchor="middle" x="546" y="-119.5" font-family="Helvetica,sans-Serif" font-size="10.00">JSystem/JKernel/JKRDisposer.h</text>
</a>
</g>
</g>
<!-- Node6&#45;&gt;Node7 -->
<g id="edge7" class="edge">
<title>Node6&#45;&gt;Node7</title>
<path fill="none" stroke="midnightblue" d="M534.02,-224.37C536.12,-206.62 540.96,-165.67 543.8,-141.6"/>
<polygon fill="midnightblue" stroke="midnightblue" points="547.29,-141.93 544.98,-131.59 540.34,-141.11 547.29,-141.93"/>
</g>
<!-- Node6&#45;&gt;Node8 -->
<g id="edge18" class="edge">
<title>Node6&#45;&gt;Node8</title>
<path fill="none" stroke="midnightblue" d="M591.98,-224.47C651.86,-215.2 737.18,-200.1 747,-188 770.77,-158.72 758.77,-111.06 749.46,-85.16"/>
<polygon fill="midnightblue" stroke="midnightblue" points="752.61,-83.59 745.75,-75.51 746.07,-86.1 752.61,-83.59"/>
</g>
<!-- Node6&#45;&gt;Node9 -->
<g id="edge11" class="edge">
<title>Node6&#45;&gt;Node9</title>
<path fill="none" stroke="midnightblue" d="M518.7,-224.32C504.82,-215.9 483.51,-202.97 467.2,-193.07"/>
<polygon fill="midnightblue" stroke="midnightblue" points="468.63,-189.85 458.26,-187.65 465,-195.83 468.63,-189.85"/>
</g>
<!-- Node10 -->
<g id="node10" class="node">
<title>Node10</title>
<g id="a_node10"><a xlink:href="OS_8h.html" target="_top" xlink:title=" ">
<polygon fill="white" stroke="black" points="325,-112.5 325,-131.5 411,-131.5 411,-112.5 325,-112.5"/>
<text text-anchor="middle" x="368" y="-119.5" font-family="Helvetica,sans-Serif" font-size="10.00">dolphin/os/OS.h</text>
</a>
</g>
</g>
<!-- Node6&#45;&gt;Node10 -->
<g id="edge19" class="edge">
<title>Node6&#45;&gt;Node10</title>
<path fill="none" stroke="midnightblue" d="M470.21,-224.47C427.44,-217.23 376.27,-205.24 363,-188 352.88,-174.85 355.99,-155.44 360.5,-141.26"/>
<polygon fill="midnightblue" stroke="midnightblue" points="363.88,-142.21 364.02,-131.62 357.3,-139.81 363.88,-142.21"/>
</g>
<!-- Node7&#45;&gt;Node2 -->
<g id="edge10" class="edge">
<title>Node7&#45;&gt;Node2</title>
<path fill="none" stroke="midnightblue" d="M535.41,-112.37C512.54,-93.73 458.29,-49.53 429.57,-26.13"/>
<polygon fill="midnightblue" stroke="midnightblue" points="431.51,-23.19 421.54,-19.59 427.09,-28.62 431.51,-23.19"/>
</g>
<!-- Node7&#45;&gt;Node8 -->
<g id="edge8" class="edge">
<title>Node7&#45;&gt;Node8</title>
<path fill="none" stroke="midnightblue" d="M577.06,-112.44C610.6,-103.2 664.2,-88.44 701.14,-78.26"/>
<polygon fill="midnightblue" stroke="midnightblue" points="702.38,-81.55 711.09,-75.52 700.52,-74.8 702.38,-81.55"/>
</g>
<!-- Node8&#45;&gt;Node2 -->
<g id="edge9" class="edge">
<title>Node8&#45;&gt;Node2</title>
<path fill="none" stroke="midnightblue" d="M689.55,-56.44C627.04,-46.25 523.32,-29.32 461.62,-19.26"/>
<polygon fill="midnightblue" stroke="midnightblue" points="462.16,-15.8 451.72,-17.64 461.03,-22.71 462.16,-15.8"/>
</g>
<!-- Node9&#45;&gt;Node2 -->
<g id="edge17" class="edge">
<title>Node9&#45;&gt;Node2</title>
<path fill="none" stroke="midnightblue" d="M442.23,-168.08C437.03,-141.95 421.78,-65.21 414.69,-29.58"/>
<polygon fill="midnightblue" stroke="midnightblue" points="418.09,-28.69 412.7,-19.57 411.22,-30.06 418.09,-28.69"/>
</g>
<!-- Node9&#45;&gt;Node7 -->
<g id="edge12" class="edge">
<title>Node9&#45;&gt;Node7</title>
<path fill="none" stroke="midnightblue" d="M460.39,-168.32C476.67,-159.7 501.87,-146.36 520.72,-136.39"/>
<polygon fill="midnightblue" stroke="midnightblue" points="522.45,-139.43 529.65,-131.65 519.18,-133.24 522.45,-139.43"/>
</g>
<!-- Node9&#45;&gt;Node10 -->
<g id="edge13" class="edge">
<title>Node9&#45;&gt;Node10</title>
<path fill="none" stroke="midnightblue" d="M431.79,-168.32C420.22,-160.11 402.62,-147.6 388.84,-137.81"/>
<polygon fill="midnightblue" stroke="midnightblue" points="390.61,-134.77 380.43,-131.83 386.56,-140.48 390.61,-134.77"/>
</g>
<!-- Node10&#45;&gt;Node2 -->
<g id="edge14" class="edge">
<title>Node10&#45;&gt;Node2</title>
<path fill="none" stroke="midnightblue" d="M371.37,-112.37C378.38,-94.46 394.61,-52.92 403.98,-28.95"/>
<polygon fill="midnightblue" stroke="midnightblue" points="407.26,-30.18 407.64,-19.59 400.74,-27.63 407.26,-30.18"/>
</g>
<!-- Node11 -->
<g id="node11" class="node">
<title>Node11</title>
<g id="a_node11"><a xlink:href="dvd_8h.html" target="_top" xlink:title=" ">
<polygon fill="white" stroke="black" points="177,-56.5 177,-75.5 269,-75.5 269,-56.5 177,-56.5"/>
<text text-anchor="middle" x="223" y="-63.5" font-family="Helvetica,sans-Serif" font-size="10.00">dolphin/dvd/dvd.h</text>
</a>
</g>
</g>
<!-- Node10&#45;&gt;Node11 -->
<g id="edge15" class="edge">
<title>Node10&#45;&gt;Node11</title>
<path fill="none" stroke="midnightblue" d="M345.02,-112.44C320.84,-103.44 282.58,-89.19 255.35,-79.05"/>
<polygon fill="midnightblue" stroke="midnightblue" points="256.46,-75.73 245.87,-75.52 254.02,-82.29 256.46,-75.73"/>
</g>
<!-- Node11&#45;&gt;Node2 -->
<g id="edge16" class="edge">
<title>Node11&#45;&gt;Node2</title>
<path fill="none" stroke="midnightblue" d="M252.79,-56.44C284.83,-47.24 335.93,-32.56 371.35,-22.39"/>
<polygon fill="midnightblue" stroke="midnightblue" points="372.71,-25.64 381.35,-19.52 370.77,-18.91 372.71,-25.64"/>
</g>
<!-- Node12&#45;&gt;Node2 -->
<g id="edge28" class="edge">
<title>Node12&#45;&gt;Node2</title>
<path fill="none" stroke="midnightblue" d="M111.64,-224.5C108.53,-212 103.9,-187.98 108,-168 118.89,-114.95 113.56,-89.64 156,-56 186.89,-31.51 295.12,-19.46 360.24,-14.29"/>
<polygon fill="midnightblue" stroke="midnightblue" points="360.6,-17.78 370.3,-13.52 360.06,-10.8 360.6,-17.78"/>
</g>
<!-- Node12&#45;&gt;Node10 -->
<g id="edge27" class="edge">
<title>Node12&#45;&gt;Node10</title>
<path fill="none" stroke="midnightblue" d="M113.86,-224.38C114.12,-210.36 116.82,-182.71 133,-168 159.08,-144.29 253.83,-132.24 314.76,-126.81"/>
<polygon fill="midnightblue" stroke="midnightblue" points="315.31,-130.28 324.98,-125.94 314.71,-123.3 315.31,-130.28"/>
</g>
<!-- Node12&#45;&gt;Node11 -->
<g id="edge26" class="edge">
<title>Node12&#45;&gt;Node11</title>
<path fill="none" stroke="midnightblue" d="M112.41,-224.11C110.51,-211.12 108.56,-186.5 117,-168 134.56,-129.48 174.14,-98.33 199.65,-81.27"/>
<polygon fill="midnightblue" stroke="midnightblue" points="201.86,-84.01 208.35,-75.63 198.05,-78.13 201.86,-84.01"/>
</g>
<!-- Node13 -->
<g id="node13" class="node">
<title>Node13</title>
<g id="a_node13"><a xlink:href="JKRFile_8h.html" target="_top" xlink:title=" ">
<polygon fill="white" stroke="black" points="142,-168.5 142,-187.5 278,-187.5 278,-168.5 142,-168.5"/>
<text text-anchor="middle" x="210" y="-175.5" font-family="Helvetica,sans-Serif" font-size="10.00">JSystem/JKernel/JKRFile.h</text>
</a>
</g>
</g>
<!-- Node12&#45;&gt;Node13 -->
<g id="edge23" class="edge">
<title>Node12&#45;&gt;Node13</title>
<path fill="none" stroke="midnightblue" d="M129.42,-224.32C144.54,-215.82 167.82,-202.73 185.47,-192.8"/>
<polygon fill="midnightblue" stroke="midnightblue" points="187.61,-195.61 194.61,-187.65 184.18,-189.51 187.61,-195.61"/>
</g>
<!-- Node13&#45;&gt;Node2 -->
<g id="edge25" class="edge">
<title>Node13&#45;&gt;Node2</title>
<path fill="none" stroke="midnightblue" d="M201.91,-168.37C182.89,-147 138.99,-90.87 168,-56 191.94,-27.22 296.19,-16.76 360.11,-13.03"/>
<polygon fill="midnightblue" stroke="midnightblue" points="360.6,-16.5 370.39,-12.46 360.21,-9.52 360.6,-16.5"/>
</g>
<!-- Node13&#45;&gt;Node7 -->
<g id="edge24" class="edge">
<title>Node13&#45;&gt;Node7</title>
<path fill="none" stroke="midnightblue" d="M263.24,-168.44C322.96,-158.85 419.74,-143.29 483.13,-133.1"/>
<polygon fill="midnightblue" stroke="midnightblue" points="483.69,-136.56 493.01,-131.52 482.58,-129.65 483.69,-136.56"/>
</g>
<!-- Node14&#45;&gt;Node2 -->
<g id="edge32" class="edge">
<title>Node14&#45;&gt;Node2</title>
<path fill="none" stroke="midnightblue" d="M654.4,-168.33C653.02,-154.73 648.54,-128.27 634,-112 588.35,-60.89 511.73,-34.09 461.27,-21.26"/>
<polygon fill="midnightblue" stroke="midnightblue" points="462.09,-17.86 451.54,-18.88 460.42,-24.66 462.09,-17.86"/>
</g>
<!-- Node14&#45;&gt;Node7 -->
<g id="edge30" class="edge">
<title>Node14&#45;&gt;Node7</title>
<path fill="none" stroke="midnightblue" d="M637.49,-168.32C619.93,-159.62 592.67,-146.12 572.47,-136.11"/>
<polygon fill="midnightblue" stroke="midnightblue" points="573.98,-132.96 563.47,-131.65 570.88,-139.23 573.98,-132.96"/>
</g>
<!-- Node14&#45;&gt;Node8 -->
<g id="edge31" class="edge">
<title>Node14&#45;&gt;Node8</title>
<path fill="none" stroke="midnightblue" d="M661.83,-168.37C676.25,-150.14 710.03,-107.43 728.81,-83.68"/>
<polygon fill="midnightblue" stroke="midnightblue" points="731.75,-85.61 735.2,-75.59 726.26,-81.26 731.75,-85.61"/>
</g>
<!-- Node15&#45;&gt;Node2 -->
<g id="edge35" class="edge">
<title>Node15&#45;&gt;Node2</title>
<path fill="none" stroke="midnightblue" d="M314.79,-280.48C308.43,-254.2 291.99,-172.56 316,-112 330.79,-74.69 366.6,-43.15 389.79,-25.68"/>
<polygon fill="midnightblue" stroke="midnightblue" points="391.97,-28.41 397.98,-19.69 387.84,-22.76 391.97,-28.41"/>
</g>
</g>
</svg>
        <g id="navigator" transform="translate(0 0)" fill="#404254">
                <rect fill="#f2f5e9" fill-opacity="0.5" stroke="#606060" stroke-width=".5" x="0" y="0" width="60" height="60"/>
                <use id="zoomplus" xlink:href="#zoomPlus" x="17" y="9" onmousedown="handleZoom(evt,'in')"/>
                <use id="zoomminus" xlink:href="#zoomMin" x="42" y="9" onmousedown="handleZoom(evt,'out')"/>
                <use id="reset" xlink:href="#resetDef" x="30" y="36" onmousedown="handleReset()"/>
                <g id="arrowUp" xlink:href="#dirArrow" transform="translate(30 24)" onmousedown="handlePan(0,-1)">
                  <use xlink:href="#rim" fill="#404040">
                        <set attributeName="fill" to="#808080" begin="arrowUp.mouseover" end="arrowUp.mouseout"/>
                  </use>
                  <path fill="none" stroke="white" stroke-width="1.5" d="M0,-3.0v7 M-2.5,-0.5L0,-3.0L2.5,-0.5"/>
                </g>
                <g id="arrowRight" xlink:href="#dirArrow" transform="rotate(90) translate(36 -43)" onmousedown="handlePan(1,0)">
                  <use xlink:href="#rim" fill="#404040">
                        <set attributeName="fill" to="#808080" begin="arrowRight.mouseover" end="arrowRight.mouseout"/>
                  </use>
                  <path fill="none" stroke="white" stroke-width="1.5" d="M0,-3.0v7 M-2.5,-0.5L0,-3.0L2.5,-0.5"/>
                </g>
                <g id="arrowDown" xlink:href="#dirArrow" transform="rotate(180) translate(-30 -48)" onmousedown="handlePan(0,1)">
                  <use xlink:href="#rim" fill="#404040">
                        <set attributeName="fill" to="#808080" begin="arrowDown.mouseover" end="arrowDown.mouseout"/>
                  </use>
                  <path fill="none" stroke="white" stroke-width="1.5" d="M0,-3.0v7 M-2.5,-0.5L0,-3.0L2.5,-0.5"/>
                </g>
                <g id="arrowLeft" xlink:href="#dirArrow" transform="rotate(270) translate(-36 17)" onmousedown="handlePan(-1,0)">
                  <use xlink:href="#rim" fill="#404040">
                        <set attributeName="fill" to="#808080" begin="arrowLeft.mouseover" end="arrowLeft.mouseout"/>
                  </use>
                  <path fill="none" stroke="white" stroke-width="1.5" d="M0,-3.0v7 M-2.5,-0.5L0,-3.0L2.5,-0.5"/>
                </g>
        </g>
        <svg viewBox="0 0 15 15" width="100%" height="30px" preserveAspectRatio="xMaxYMin meet">
         <g id="arrow_out" transform="scale(0.3 0.3)">
          <a xlink:href="JKRAramBlock_8h__incl_org.svg" target="_base">
           <rect id="button" ry="5" rx="5" y="6" x="6" height="38" width="38"
                fill="#f2f5e9" fill-opacity="0.5" stroke="#606060" stroke-width="1.0"/>
           <path id="arrow"
             d="M 11.500037,31.436501 C 11.940474,20.09759 22.043105,11.32322 32.158766,21.979434 L 37.068811,17.246167 C 37.068811,17.246167 37.088388,32 37.088388,32 L 22.160133,31.978069 C 22.160133,31.978069 26.997745,27.140456 26.997745,27.140456 C 18.528582,18.264221 13.291696,25.230495 11.500037,31.436501 z"
             style="fill:#404040;"/>
          </a>
         </g>
        </svg>
</svg>
