<?xml version="1.0" encoding="UTF-8" standalone="no"?>
<!DOCTYPE svg PUBLIC "-//W3C//DTD SVG 1.1//EN"
 "http://www.w3.org/Graphics/SVG/1.1/DTD/svg11.dtd">
<!-- Generated by graphviz version 2.44.0 ()
 -->
<!-- Title: include/JSystem/JKernel/JKRArchive.h Pages: 1 -->
<svg width="2553pt" height="508pt"
 viewBox="0.00 0.00 2553.00 508.00" xmlns="http://www.w3.org/2000/svg" xmlns:xlink="http://www.w3.org/1999/xlink">
<g id="graph0" class="graph" transform="scale(1 1) rotate(0) translate(4 504)">
<title>include/JSystem/JKernel/JKRArchive.h</title>
<polygon fill="white" stroke="transparent" points="-4,4 -4,-504 2549,-504 2549,4 -4,4"/>
<!-- Node1 -->
<g id="node1" class="node">
<title>Node1</title>
<g id="a_node1"><a xlink:title=" ">
<polygon fill="#bfbfbf" stroke="black" points="1672.5,-469.5 1672.5,-499.5 1797.5,-499.5 1797.5,-469.5 1672.5,-469.5"/>
<text text-anchor="start" x="1680.5" y="-487.5" font-family="Helvetica,sans-Serif" font-size="10.00">include/JSystem/JKernel</text>
<text text-anchor="middle" x="1735" y="-476.5" font-family="Helvetica,sans-Serif" font-size="10.00">/JKRArchive.h</text>
</a>
</g>
</g>
<!-- Node2 -->
<g id="node2" class="node">
<title>Node2</title>
<g id="a_node2"><a xlink:href="m__Do__ext_8cpp.html" target="_top" xlink:title=" ">
<polygon fill="white" stroke="black" points="387.5,-408 387.5,-427 510.5,-427 510.5,-408 387.5,-408"/>
<text text-anchor="middle" x="449" y="-415" font-family="Helvetica,sans-Serif" font-size="10.00">src/m_Do/m_Do_ext.cpp</text>
</a>
</g>
</g>
<!-- Node1&#45;&gt;Node2 -->
<g id="edge1" class="edge">
<title>Node1&#45;&gt;Node2</title>
<path fill="none" stroke="midnightblue" d="M1662.04,-482.03C1434.88,-477.2 742.18,-460.56 519,-433 507.67,-431.6 495.44,-429.33 484.42,-427"/>
<polygon fill="midnightblue" stroke="midnightblue" points="1662.11,-485.53 1672.18,-482.24 1662.25,-478.53 1662.11,-485.53"/>
</g>
<!-- Node3 -->
<g id="node3" class="node">
<title>Node3</title>
<g id="a_node3"><a xlink:href="JKRArchivePri_8cpp.html" target="_top" xlink:title=" ">
<polygon fill="white" stroke="black" points="528.5,-402.5 528.5,-432.5 637.5,-432.5 637.5,-402.5 528.5,-402.5"/>
<text text-anchor="start" x="536.5" y="-420.5" font-family="Helvetica,sans-Serif" font-size="10.00">libs/JSystem/JKernel</text>
<text text-anchor="middle" x="583" y="-409.5" font-family="Helvetica,sans-Serif" font-size="10.00">/JKRArchivePri.cpp</text>
</a>
</g>
</g>
<!-- Node1&#45;&gt;Node3 -->
<g id="edge2" class="edge">
<title>Node1&#45;&gt;Node3</title>
<path fill="none" stroke="midnightblue" d="M1662.15,-481.83C1451.33,-476.73 843.17,-460.04 646,-433 643.22,-432.62 640.38,-432.17 637.52,-431.68"/>
<polygon fill="midnightblue" stroke="midnightblue" points="1662.1,-485.33 1672.18,-482.07 1662.27,-478.33 1662.1,-485.33"/>
</g>
<!-- Node4 -->
<g id="node4" class="node">
<title>Node4</title>
<g id="a_node4"><a xlink:href="JKRArchivePub_8cpp.html" target="_top" xlink:title=" ">
<polygon fill="white" stroke="black" points="2115.5,-268.5 2115.5,-298.5 2224.5,-298.5 2224.5,-268.5 2115.5,-268.5"/>
<text text-anchor="start" x="2123.5" y="-286.5" font-family="Helvetica,sans-Serif" font-size="10.00">libs/JSystem/JKernel</text>
<text text-anchor="middle" x="2170" y="-275.5" font-family="Helvetica,sans-Serif" font-size="10.00">/JKRArchivePub.cpp</text>
</a>
</g>
</g>
<!-- Node1&#45;&gt;Node4 -->
<g id="edge3" class="edge">
<title>Node1&#45;&gt;Node4</title>
<path fill="none" stroke="midnightblue" d="M1807.79,-479.5C1922.26,-472.53 2133.97,-456.6 2159,-433 2196.24,-397.88 2182.45,-328.25 2174.3,-298.51"/>
<polygon fill="midnightblue" stroke="midnightblue" points="1807.48,-476.02 1797.7,-480.11 1807.9,-483 1807.48,-476.02"/>
</g>
<!-- Node5 -->
<g id="node5" class="node">
<title>Node5</title>
<g id="a_node5"><a xlink:href="JKRFileFinder_8cpp.html" target="_top" xlink:title=" ">
<polygon fill="white" stroke="black" points="1097.5,-402.5 1097.5,-432.5 1206.5,-432.5 1206.5,-402.5 1097.5,-402.5"/>
<text text-anchor="start" x="1105.5" y="-420.5" font-family="Helvetica,sans-Serif" font-size="10.00">libs/JSystem/JKernel</text>
<text text-anchor="middle" x="1152" y="-409.5" font-family="Helvetica,sans-Serif" font-size="10.00">/JKRFileFinder.cpp</text>
</a>
</g>
</g>
<!-- Node1&#45;&gt;Node5 -->
<g id="edge4" class="edge">
<title>Node1&#45;&gt;Node5</title>
<path fill="none" stroke="midnightblue" d="M1662.14,-479.41C1561.22,-473.06 1373.39,-458.81 1215,-433 1212.23,-432.55 1209.4,-432.05 1206.55,-431.51"/>
<polygon fill="midnightblue" stroke="midnightblue" points="1662.03,-482.91 1672.23,-480.03 1662.46,-475.92 1662.03,-482.91"/>
</g>
<!-- Node6 -->
<g id="node6" class="node">
<title>Node6</title>
<g id="a_node6"><a xlink:href="d__resorce_8h.html" target="_top" xlink:title=" ">
<polygon fill="white" stroke="black" points="655.5,-408 655.5,-427 764.5,-427 764.5,-408 655.5,-408"/>
<text text-anchor="middle" x="710" y="-415" font-family="Helvetica,sans-Serif" font-size="10.00">include/d/d_resorce.h</text>
</a>
</g>
</g>
<!-- Node1&#45;&gt;Node6 -->
<g id="edge5" class="edge">
<title>Node1&#45;&gt;Node6</title>
<path fill="none" stroke="midnightblue" d="M1662.3,-478.89C1467.51,-466.54 937.05,-432.9 764.81,-421.98"/>
<polygon fill="midnightblue" stroke="midnightblue" points="1662.22,-482.39 1672.42,-479.53 1662.67,-475.41 1662.22,-482.39"/>
</g>
<!-- Node36 -->
<g id="node25" class="node">
<title>Node36</title>
<g id="a_node25"><a xlink:href="J2DPane_8h.html" target="_top" xlink:title=" ">
<polygon fill="white" stroke="black" points="1224.5,-402.5 1224.5,-432.5 1359.5,-432.5 1359.5,-402.5 1224.5,-402.5"/>
<text text-anchor="start" x="1232.5" y="-420.5" font-family="Helvetica,sans-Serif" font-size="10.00">include/JSystem/J2DGraph</text>
<text text-anchor="middle" x="1292" y="-409.5" font-family="Helvetica,sans-Serif" font-size="10.00">/J2DPane.h</text>
</a>
</g>
</g>
<!-- Node1&#45;&gt;Node36 -->
<g id="edge37" class="edge">
<title>Node1&#45;&gt;Node36</title>
<path fill="none" stroke="midnightblue" d="M1662.51,-472.86C1578.59,-460.55 1441.46,-440.43 1359.66,-428.43"/>
<polygon fill="midnightblue" stroke="midnightblue" points="1662.07,-476.34 1672.47,-474.32 1663.08,-469.41 1662.07,-476.34"/>
</g>
<!-- Node50 -->
<g id="node36" class="node">
<title>Node50</title>
<g id="a_node36"><a xlink:href="JKRAramArchive_8h.html" target="_top" xlink:title=" ">
<polygon fill="white" stroke="black" points="1850.5,-335.5 1850.5,-365.5 1975.5,-365.5 1975.5,-335.5 1850.5,-335.5"/>
<text text-anchor="start" x="1858.5" y="-353.5" font-family="Helvetica,sans-Serif" font-size="10.00">include/JSystem/JKernel</text>
<text text-anchor="middle" x="1913" y="-342.5" font-family="Helvetica,sans-Serif" font-size="10.00">/JKRAramArchive.h</text>
</a>
</g>
</g>
<!-- Node1&#45;&gt;Node50 -->
<g id="edge49" class="edge">
<title>Node1&#45;&gt;Node50</title>
<path fill="none" stroke="midnightblue" d="M1763.93,-463.64C1777.15,-454.45 1792.97,-443.31 1807,-433 1838.43,-409.91 1874.26,-382.03 1895.18,-365.59"/>
<polygon fill="midnightblue" stroke="midnightblue" points="1761.88,-460.8 1755.65,-469.37 1765.87,-466.55 1761.88,-460.8"/>
</g>
<!-- Node52 -->
<g id="node38" class="node">
<title>Node52</title>
<g id="a_node38"><a xlink:href="JKRAramBlock_8h.html" target="_top" xlink:title=" ">
<polygon fill="white" stroke="black" points="1672.5,-402.5 1672.5,-432.5 1797.5,-432.5 1797.5,-402.5 1672.5,-402.5"/>
<text text-anchor="start" x="1680.5" y="-420.5" font-family="Helvetica,sans-Serif" font-size="10.00">include/JSystem/JKernel</text>
<text text-anchor="middle" x="1735" y="-409.5" font-family="Helvetica,sans-Serif" font-size="10.00">/JKRAramBlock.h</text>
</a>
</g>
</g>
<!-- Node1&#45;&gt;Node52 -->
<g id="edge52" class="edge">
<title>Node1&#45;&gt;Node52</title>
<path fill="none" stroke="midnightblue" d="M1735,-459.11C1735,-450.15 1735,-440.32 1735,-432.58"/>
<polygon fill="midnightblue" stroke="midnightblue" points="1731.5,-459.4 1735,-469.4 1738.5,-459.4 1731.5,-459.4"/>
</g>
<!-- Node59 -->
<g id="node42" class="node">
<title>Node59</title>
<g id="a_node42"><a xlink:href="JKRCompArchive_8h.html" target="_top" xlink:title=" ">
<polygon fill="white" stroke="black" points="1873.5,-402.5 1873.5,-432.5 1998.5,-432.5 1998.5,-402.5 1873.5,-402.5"/>
<text text-anchor="start" x="1881.5" y="-420.5" font-family="Helvetica,sans-Serif" font-size="10.00">include/JSystem/JKernel</text>
<text text-anchor="middle" x="1936" y="-409.5" font-family="Helvetica,sans-Serif" font-size="10.00">/JKRCompArchive.h</text>
</a>
</g>
</g>
<!-- Node1&#45;&gt;Node59 -->
<g id="edge59" class="edge">
<title>Node1&#45;&gt;Node59</title>
<path fill="none" stroke="midnightblue" d="M1788.41,-466.23C1820.93,-455.71 1861.94,-442.45 1892.47,-432.58"/>
<polygon fill="midnightblue" stroke="midnightblue" points="1787.05,-462.99 1778.61,-469.4 1789.21,-469.65 1787.05,-462.99"/>
</g>
<!-- Node60 -->
<g id="node43" class="node">
<title>Node60</title>
<g id="a_node43"><a xlink:href="JKRDvdArchive_8h.html" target="_top" xlink:title=" ">
<polygon fill="white" stroke="black" points="2024.5,-402.5 2024.5,-432.5 2149.5,-432.5 2149.5,-402.5 2024.5,-402.5"/>
<text text-anchor="start" x="2032.5" y="-420.5" font-family="Helvetica,sans-Serif" font-size="10.00">include/JSystem/JKernel</text>
<text text-anchor="middle" x="2087" y="-409.5" font-family="Helvetica,sans-Serif" font-size="10.00">/JKRDvdArchive.h</text>
</a>
</g>
</g>
<!-- Node1&#45;&gt;Node60 -->
<g id="edge61" class="edge">
<title>Node1&#45;&gt;Node60</title>
<path fill="none" stroke="midnightblue" d="M1807.54,-470.11C1871.49,-458.3 1963.7,-441.27 2024.47,-430.05"/>
<polygon fill="midnightblue" stroke="midnightblue" points="1806.72,-466.7 1797.52,-471.95 1807.99,-473.58 1806.72,-466.7"/>
</g>
<!-- Node62 -->
<g id="node45" class="node">
<title>Node62</title>
<g id="a_node45"><a xlink:href="JKRMemArchive_8h.html" target="_top" xlink:title=" ">
<polygon fill="white" stroke="black" points="2251.5,-402.5 2251.5,-432.5 2376.5,-432.5 2376.5,-402.5 2251.5,-402.5"/>
<text text-anchor="start" x="2259.5" y="-420.5" font-family="Helvetica,sans-Serif" font-size="10.00">include/JSystem/JKernel</text>
<text text-anchor="middle" x="2314" y="-409.5" font-family="Helvetica,sans-Serif" font-size="10.00">/JKRMemArchive.h</text>
</a>
</g>
</g>
<!-- Node1&#45;&gt;Node62 -->
<g id="edge64" class="edge">
<title>Node1&#45;&gt;Node62</title>
<path fill="none" stroke="midnightblue" d="M1807.89,-477.16C1903.24,-468.58 2075.41,-452.14 2222,-433 2231.46,-431.76 2241.45,-430.33 2251.21,-428.85"/>
<polygon fill="midnightblue" stroke="midnightblue" points="1807.43,-473.68 1797.78,-478.06 1808.05,-480.66 1807.43,-473.68"/>
</g>
<!-- Node64 -->
<g id="node47" class="node">
<title>Node64</title>
<g id="a_node47"><a xlink:href="m__Do__dvd__thread_8h.html" target="_top" xlink:title=" ">
<polygon fill="white" stroke="black" points="2403.5,-335.5 2403.5,-365.5 2528.5,-365.5 2528.5,-335.5 2403.5,-335.5"/>
<text text-anchor="start" x="2411.5" y="-353.5" font-family="Helvetica,sans-Serif" font-size="10.00">include/m_Do/m_Do_dvd</text>
<text text-anchor="middle" x="2466" y="-342.5" font-family="Helvetica,sans-Serif" font-size="10.00">_thread.h</text>
</a>
</g>
</g>
<!-- Node1&#45;&gt;Node64 -->
<g id="edge69" class="edge">
<title>Node1&#45;&gt;Node64</title>
<path fill="none" stroke="midnightblue" d="M1807.99,-484.21C1955.82,-484.62 2285.09,-480.02 2386,-433 2417.81,-418.18 2443.88,-384.89 2456.93,-365.76"/>
<polygon fill="midnightblue" stroke="midnightblue" points="1807.68,-480.71 1797.67,-484.17 1807.66,-487.71 1807.68,-480.71"/>
</g>
<!-- Node66 -->
<g id="node49" class="node">
<title>Node66</title>
<g id="a_node49"><a xlink:href="Z2AudioMgr_8h.html" target="_top" xlink:title=" ">
<polygon fill="white" stroke="black" points="1483,-402.5 1483,-432.5 1583,-432.5 1583,-402.5 1483,-402.5"/>
<text text-anchor="start" x="1491" y="-420.5" font-family="Helvetica,sans-Serif" font-size="10.00">include/Z2AudioLib</text>
<text text-anchor="middle" x="1533" y="-409.5" font-family="Helvetica,sans-Serif" font-size="10.00">/Z2AudioMgr.h</text>
</a>
</g>
</g>
<!-- Node1&#45;&gt;Node66 -->
<g id="edge70" class="edge">
<title>Node1&#45;&gt;Node66</title>
<path fill="none" stroke="midnightblue" d="M1681.32,-466.23C1648.65,-455.71 1607.43,-442.45 1576.75,-432.58"/>
<polygon fill="midnightblue" stroke="midnightblue" points="1680.58,-469.66 1691.17,-469.4 1682.72,-463 1680.58,-469.66"/>
</g>
<!-- Node7 -->
<g id="node7" class="node">
<title>Node7</title>
<g id="a_node7"><a xlink:href="d__resorce_8cpp.html" target="_top" xlink:title=" ">
<polygon fill="white" stroke="black" points="26,-341 26,-360 128,-360 128,-341 26,-341"/>
<text text-anchor="middle" x="77" y="-348" font-family="Helvetica,sans-Serif" font-size="10.00">src/d/d_resorce.cpp</text>
</a>
</g>
</g>
<!-- Node6&#45;&gt;Node7 -->
<g id="edge6" class="edge">
<title>Node6&#45;&gt;Node7</title>
<path fill="none" stroke="midnightblue" d="M666.72,-405.76C659.82,-404.32 652.74,-403 646,-402 423.85,-369.09 364.2,-398.54 142,-366 131.82,-364.51 120.86,-362.3 110.9,-360.06"/>
<polygon fill="midnightblue" stroke="midnightblue" points="666.12,-409.21 676.63,-407.94 667.61,-402.38 666.12,-409.21"/>
</g>
<!-- Node8 -->
<g id="node8" class="node">
<title>Node8</title>
<g id="a_node8"><a xlink:href="d__a__player_8h.html" target="_top" xlink:title=" ">
<polygon fill="white" stroke="black" points="408.5,-341 408.5,-360 529.5,-360 529.5,-341 408.5,-341"/>
<text text-anchor="middle" x="469" y="-348" font-family="Helvetica,sans-Serif" font-size="10.00">include/d/a/d_a_player.h</text>
</a>
</g>
</g>
<!-- Node6&#45;&gt;Node8 -->
<g id="edge7" class="edge">
<title>Node6&#45;&gt;Node8</title>
<path fill="none" stroke="midnightblue" d="M668.3,-405.25C620.66,-392.41 543.77,-371.67 500.75,-360.06"/>
<polygon fill="midnightblue" stroke="midnightblue" points="667.43,-408.64 678,-407.87 669.25,-401.89 667.43,-408.64"/>
</g>
<!-- Node12 -->
<g id="node12" class="node">
<title>Node12</title>
<g id="a_node12"><a xlink:href="d__com__inf__game_8h.html" target="_top" xlink:title=" ">
<polygon fill="white" stroke="black" points="325,-134.5 325,-164.5 435,-164.5 435,-134.5 325,-134.5"/>
<text text-anchor="start" x="333" y="-152.5" font-family="Helvetica,sans-Serif" font-size="10.00">include/d/com/d_com</text>
<text text-anchor="middle" x="380" y="-141.5" font-family="Helvetica,sans-Serif" font-size="10.00">_inf_game.h</text>
</a>
</g>
</g>
<!-- Node6&#45;&gt;Node12 -->
<g id="edge28" class="edge">
<title>Node6&#45;&gt;Node12</title>
<path fill="none" stroke="midnightblue" d="M664.35,-405.7C658.2,-404.38 651.96,-403.11 646,-402 451.52,-365.85 326.73,-460.85 213,-299 171.62,-240.11 277.89,-188.6 339.57,-164.69"/>
<polygon fill="midnightblue" stroke="midnightblue" points="664.04,-409.22 674.56,-407.95 665.55,-402.38 664.04,-409.22"/>
</g>
<!-- Node33 -->
<g id="node23" class="node">
<title>Node33</title>
<g id="a_node23"><a xlink:href="d__meter2__info_8h.html" target="_top" xlink:title=" ">
<polygon fill="white" stroke="black" points="646.5,-268.5 646.5,-298.5 773.5,-298.5 773.5,-268.5 646.5,-268.5"/>
<text text-anchor="start" x="654.5" y="-286.5" font-family="Helvetica,sans-Serif" font-size="10.00">include/d/meter/d_meter2</text>
<text text-anchor="middle" x="710" y="-275.5" font-family="Helvetica,sans-Serif" font-size="10.00">_info.h</text>
</a>
</g>
</g>
<!-- Node6&#45;&gt;Node33 -->
<g id="edge29" class="edge">
<title>Node6&#45;&gt;Node33</title>
<path fill="none" stroke="midnightblue" d="M710,-397.53C710,-370.81 710,-322.69 710,-298.78"/>
<polygon fill="midnightblue" stroke="midnightblue" points="706.5,-397.84 710,-407.84 713.5,-397.84 706.5,-397.84"/>
</g>
<!-- Node9 -->
<g id="node9" class="node">
<title>Node9</title>
<g id="a_node9"><a xlink:href="d__a__player_8cpp.html" target="_top" xlink:title=" ">
<polygon fill="white" stroke="black" points="222,-274 222,-293 336,-293 336,-274 222,-274"/>
<text text-anchor="middle" x="279" y="-281" font-family="Helvetica,sans-Serif" font-size="10.00">src/d/a/d_a_player.cpp</text>
</a>
</g>
</g>
<!-- Node8&#45;&gt;Node9 -->
<g id="edge8" class="edge">
<title>Node8&#45;&gt;Node9</title>
<path fill="none" stroke="midnightblue" d="M434.22,-337.6C396.55,-324.71 337.38,-304.47 304.03,-293.06"/>
<polygon fill="midnightblue" stroke="midnightblue" points="433.17,-340.94 443.77,-340.87 435.44,-334.32 433.17,-340.94"/>
</g>
<!-- Node10 -->
<g id="node10" class="node">
<title>Node10</title>
<g id="a_node10"><a xlink:href="d__a__alink_8h.html" target="_top" xlink:title=" ">
<polygon fill="white" stroke="black" points="475,-207 475,-226 591,-226 591,-207 475,-207"/>
<text text-anchor="middle" x="533" y="-214" font-family="Helvetica,sans-Serif" font-size="10.00">include/d/a/d_a_alink.h</text>
</a>
</g>
</g>
<!-- Node8&#45;&gt;Node10 -->
<g id="edge9" class="edge">
<title>Node8&#45;&gt;Node10</title>
<path fill="none" stroke="midnightblue" d="M539.33,-338.49C562.21,-331.21 585.24,-319.11 599,-299 606.78,-287.63 605.1,-280.35 599,-268 589.35,-248.47 568.12,-234.41 552.33,-226.16"/>
<polygon fill="midnightblue" stroke="midnightblue" points="538.19,-335.18 529.56,-341.33 540.14,-341.9 538.19,-335.18"/>
</g>
<!-- Node20 -->
<g id="node20" class="node">
<title>Node20</title>
<g id="a_node20"><a xlink:href="d__bg__s__acch_8h.html" target="_top" xlink:title=" ">
<polygon fill="white" stroke="red" points="354,-268.5 354,-298.5 458,-298.5 458,-268.5 354,-268.5"/>
<text text-anchor="start" x="362" y="-286.5" font-family="Helvetica,sans-Serif" font-size="10.00">include/d/bg/d_bg_s</text>
<text text-anchor="middle" x="406" y="-275.5" font-family="Helvetica,sans-Serif" font-size="10.00">_acch.h</text>
</a>
</g>
</g>
<!-- Node8&#45;&gt;Node20 -->
<g id="edge21" class="edge">
<title>Node8&#45;&gt;Node20</title>
<path fill="none" stroke="midnightblue" d="M453.3,-333.3C442.96,-322.63 429.55,-308.8 419.66,-298.59"/>
<polygon fill="midnightblue" stroke="midnightblue" points="451.03,-335.99 460.5,-340.73 456.06,-331.12 451.03,-335.99"/>
</g>
<!-- Node30 -->
<g id="node21" class="node">
<title>Node30</title>
<g id="a_node21"><a xlink:href="d__attention_8h.html" target="_top" xlink:title=" ">
<polygon fill="white" stroke="red" points="476,-274 476,-293 590,-293 590,-274 476,-274"/>
<text text-anchor="middle" x="533" y="-281" font-family="Helvetica,sans-Serif" font-size="10.00">include/d/d_attention.h</text>
</a>
</g>
</g>
<!-- Node8&#45;&gt;Node30 -->
<g id="edge22" class="edge">
<title>Node8&#45;&gt;Node30</title>
<path fill="none" stroke="midnightblue" d="M484.76,-333.5C497.31,-320.75 514.4,-303.39 524.51,-293.13"/>
<polygon fill="midnightblue" stroke="midnightblue" points="482.15,-331.15 477.63,-340.73 487.14,-336.06 482.15,-331.15"/>
</g>
<!-- Node32 -->
<g id="node22" class="node">
<title>Node32</title>
<g id="a_node22"><a xlink:href="d__event_8h.html" target="_top" xlink:title=" ">
<polygon fill="white" stroke="black" points="0,-207 0,-226 128,-226 128,-207 0,-207"/>
<text text-anchor="middle" x="64" y="-214" font-family="Helvetica,sans-Serif" font-size="10.00">include/d/event/d_event.h</text>
</a>
</g>
</g>
<!-- Node8&#45;&gt;Node32 -->
<g id="edge25" class="edge">
<title>Node8&#45;&gt;Node32</title>
<path fill="none" stroke="midnightblue" d="M398.19,-341.45C345.9,-334.11 273.59,-320.96 213,-299 159.22,-279.51 101.38,-242.76 76.52,-226.1"/>
<polygon fill="midnightblue" stroke="midnightblue" points="397.99,-344.96 408.37,-342.85 398.94,-338.02 397.99,-344.96"/>
</g>
<!-- Node11 -->
<g id="node11" class="node">
<title>Node11</title>
<g id="a_node11"><a xlink:href="d__a__alink_8cpp.html" target="_top" xlink:title=" ">
<polygon fill="white" stroke="black" points="445.5,-73 445.5,-92 554.5,-92 554.5,-73 445.5,-73"/>
<text text-anchor="middle" x="500" y="-80" font-family="Helvetica,sans-Serif" font-size="10.00">src/d/a/d_a_alink.cpp</text>
</a>
</g>
</g>
<!-- Node10&#45;&gt;Node11 -->
<g id="edge10" class="edge">
<title>Node10&#45;&gt;Node11</title>
<path fill="none" stroke="midnightblue" d="M528.32,-196.78C521.06,-167.75 507.38,-113.04 502.13,-92.02"/>
<polygon fill="midnightblue" stroke="midnightblue" points="525.01,-197.99 530.83,-206.84 531.8,-196.29 525.01,-197.99"/>
</g>
<!-- Node10&#45;&gt;Node12 -->
<g id="edge11" class="edge">
<title>Node10&#45;&gt;Node12</title>
<path fill="none" stroke="midnightblue" d="M503.37,-202.91C477.46,-191.91 439.89,-175.94 413.02,-164.53"/>
<polygon fill="midnightblue" stroke="midnightblue" points="502.11,-206.18 512.68,-206.87 504.85,-199.74 502.11,-206.18"/>
</g>
<!-- Node12&#45;&gt;Node11 -->
<g id="edge13" class="edge">
<title>Node12&#45;&gt;Node11</title>
<path fill="none" stroke="midnightblue" d="M415.13,-129.47C438.04,-117.06 466.82,-101.47 484.29,-92.01"/>
<polygon fill="midnightblue" stroke="midnightblue" points="413.16,-126.56 406.04,-134.4 416.5,-132.71 413.16,-126.56"/>
</g>
<!-- Node13 -->
<g id="node13" class="node">
<title>Node13</title>
<g id="a_node13"><a xlink:href="d__com__inf__game_8cpp.html" target="_top" xlink:title=" ">
<polygon fill="white" stroke="black" points="326,-0.5 326,-30.5 434,-30.5 434,-0.5 326,-0.5"/>
<text text-anchor="start" x="334" y="-18.5" font-family="Helvetica,sans-Serif" font-size="10.00">src/d/com/d_com_inf</text>
<text text-anchor="middle" x="380" y="-7.5" font-family="Helvetica,sans-Serif" font-size="10.00">_game.cpp</text>
</a>
</g>
</g>
<!-- Node12&#45;&gt;Node13 -->
<g id="edge12" class="edge">
<title>Node12&#45;&gt;Node13</title>
<path fill="none" stroke="midnightblue" d="M314.5,-141.39C260.34,-134 189.56,-120.33 172,-98 128.61,-42.82 250.55,-24.92 325.73,-19.18"/>
<polygon fill="midnightblue" stroke="midnightblue" points="314.38,-144.9 324.75,-142.74 315.29,-137.96 314.38,-144.9"/>
</g>
<!-- Node14 -->
<g id="node14" class="node">
<title>Node14</title>
<g id="a_node14"><a xlink:href="d__event_8cpp.html" target="_top" xlink:title=" ">
<polygon fill="white" stroke="black" points="3.5,-73 3.5,-92 124.5,-92 124.5,-73 3.5,-73"/>
<text text-anchor="middle" x="64" y="-80" font-family="Helvetica,sans-Serif" font-size="10.00">src/d/event/d_event.cpp</text>
</a>
</g>
</g>
<!-- Node12&#45;&gt;Node14 -->
<g id="edge14" class="edge">
<title>Node12&#45;&gt;Node14</title>
<path fill="none" stroke="midnightblue" d="M315.14,-135.16C252.24,-122.22 158.72,-102.98 105.33,-92"/>
<polygon fill="midnightblue" stroke="midnightblue" points="314.46,-138.59 324.96,-137.18 315.87,-131.73 314.46,-138.59"/>
</g>
<!-- Node15 -->
<g id="node15" class="node">
<title>Node15</title>
<g id="a_node15"><a xlink:href="d__meter2__info_8cpp.html" target="_top" xlink:title=" ">
<polygon fill="white" stroke="black" points="573,-67.5 573,-97.5 683,-97.5 683,-67.5 573,-67.5"/>
<text text-anchor="start" x="581" y="-85.5" font-family="Helvetica,sans-Serif" font-size="10.00">src/d/meter/d_meter2</text>
<text text-anchor="middle" x="628" y="-74.5" font-family="Helvetica,sans-Serif" font-size="10.00">_info.cpp</text>
</a>
</g>
</g>
<!-- Node12&#45;&gt;Node15 -->
<g id="edge15" class="edge">
<title>Node12&#45;&gt;Node15</title>
<path fill="none" stroke="midnightblue" d="M443.27,-131.92C483.74,-121.31 535.67,-107.7 574.16,-97.61"/>
<polygon fill="midnightblue" stroke="midnightblue" points="442.29,-128.55 433.51,-134.48 444.07,-135.33 442.29,-128.55"/>
</g>
<!-- Node16 -->
<g id="node16" class="node">
<title>Node16</title>
<g id="a_node16"><a xlink:href="d__msg__flow_8cpp.html" target="_top" xlink:title=" ">
<polygon fill="white" stroke="black" points="181.5,-73 181.5,-92 314.5,-92 314.5,-73 181.5,-73"/>
<text text-anchor="middle" x="248" y="-80" font-family="Helvetica,sans-Serif" font-size="10.00">src/d/msg/d_msg_flow.cpp</text>
</a>
</g>
</g>
<!-- Node12&#45;&gt;Node16 -->
<g id="edge16" class="edge">
<title>Node12&#45;&gt;Node16</title>
<path fill="none" stroke="midnightblue" d="M342.36,-129.97C317.01,-117.48 284.75,-101.6 265.28,-92.01"/>
<polygon fill="midnightblue" stroke="midnightblue" points="340.84,-133.12 351.36,-134.4 343.93,-126.84 340.84,-133.12"/>
</g>
<!-- Node17 -->
<g id="node17" class="node">
<title>Node17</title>
<g id="a_node17"><a xlink:href="d__save_8cpp.html" target="_top" xlink:title=" ">
<polygon fill="white" stroke="black" points="822.5,-73 822.5,-92 937.5,-92 937.5,-73 822.5,-73"/>
<text text-anchor="middle" x="880" y="-80" font-family="Helvetica,sans-Serif" font-size="10.00">src/d/save/d_save.cpp</text>
</a>
</g>
</g>
<!-- Node12&#45;&gt;Node17 -->
<g id="edge17" class="edge">
<title>Node12&#45;&gt;Node17</title>
<path fill="none" stroke="midnightblue" d="M445.55,-139.98C544.08,-127.17 728.77,-103.16 822.41,-90.99"/>
<polygon fill="midnightblue" stroke="midnightblue" points="444.88,-136.54 435.42,-141.3 445.79,-143.48 444.88,-136.54"/>
</g>
<!-- Node18 -->
<g id="node18" class="node">
<title>Node18</title>
<g id="a_node18"><a xlink:href="d__item_8h.html" target="_top" xlink:title=" ">
<polygon fill="white" stroke="black" points="332.5,-73 332.5,-92 427.5,-92 427.5,-73 332.5,-73"/>
<text text-anchor="middle" x="380" y="-80" font-family="Helvetica,sans-Serif" font-size="10.00">include/d/d_item.h</text>
</a>
</g>
</g>
<!-- Node12&#45;&gt;Node18 -->
<g id="edge18" class="edge">
<title>Node12&#45;&gt;Node18</title>
<path fill="none" stroke="midnightblue" d="M380,-124.25C380,-113.02 380,-100.38 380,-92.19"/>
<polygon fill="midnightblue" stroke="midnightblue" points="376.5,-124.4 380,-134.4 383.5,-124.4 376.5,-124.4"/>
</g>
<!-- Node18&#45;&gt;Node13 -->
<g id="edge19" class="edge">
<title>Node18&#45;&gt;Node13</title>
<path fill="none" stroke="midnightblue" d="M380,-62.41C380,-52.22 380,-39.9 380,-30.59"/>
<polygon fill="midnightblue" stroke="midnightblue" points="376.5,-62.73 380,-72.73 383.5,-62.73 376.5,-62.73"/>
</g>
<!-- Node19 -->
<g id="node19" class="node">
<title>Node19</title>
<g id="a_node19"><a xlink:href="d__item_8cpp.html" target="_top" xlink:title=" ">
<polygon fill="white" stroke="black" points="853.5,-6 853.5,-25 942.5,-25 942.5,-6 853.5,-6"/>
<text text-anchor="middle" x="898" y="-13" font-family="Helvetica,sans-Serif" font-size="10.00">src/d/d_item.cpp</text>
</a>
</g>
</g>
<!-- Node18&#45;&gt;Node19 -->
<g id="edge20" class="edge">
<title>Node18&#45;&gt;Node19</title>
<path fill="none" stroke="midnightblue" d="M419.5,-70.52C425.01,-69.2 430.63,-67.98 436,-67 587.79,-39.2 770.63,-24.75 853.42,-19.22"/>
<polygon fill="midnightblue" stroke="midnightblue" points="418.61,-67.13 409.76,-72.94 420.31,-73.92 418.61,-67.13"/>
</g>
<!-- Node30&#45;&gt;Node10 -->
<g id="edge23" class="edge">
<title>Node30&#45;&gt;Node10</title>
<path fill="none" stroke="midnightblue" d="M533,-263.54C533,-251.17 533,-235.62 533,-226.13"/>
<polygon fill="midnightblue" stroke="midnightblue" points="529.5,-263.73 533,-273.73 536.5,-263.73 529.5,-263.73"/>
</g>
<!-- Node30&#45;&gt;Node12 -->
<g id="edge24" class="edge">
<title>Node30&#45;&gt;Node12</title>
<path fill="none" stroke="midnightblue" d="M512.66,-268.09C499.13,-258.28 481.14,-244.81 466,-232 439.46,-209.55 410.48,-181.22 393.85,-164.56"/>
<polygon fill="midnightblue" stroke="midnightblue" points="510.66,-270.96 520.82,-273.95 514.75,-265.28 510.66,-270.96"/>
</g>
<!-- Node32&#45;&gt;Node12 -->
<g id="edge27" class="edge">
<title>Node32&#45;&gt;Node12</title>
<path fill="none" stroke="midnightblue" d="M115.62,-204.88C173.22,-193.03 266.05,-173.94 324.99,-161.82"/>
<polygon fill="midnightblue" stroke="midnightblue" points="114.73,-201.49 105.64,-206.94 116.14,-208.35 114.73,-201.49"/>
</g>
<!-- Node32&#45;&gt;Node14 -->
<g id="edge26" class="edge">
<title>Node32&#45;&gt;Node14</title>
<path fill="none" stroke="midnightblue" d="M64,-196.78C64,-167.75 64,-113.04 64,-92.02"/>
<polygon fill="midnightblue" stroke="midnightblue" points="60.5,-196.84 64,-206.84 67.5,-196.84 60.5,-196.84"/>
</g>
<!-- Node33&#45;&gt;Node10 -->
<g id="edge34" class="edge">
<title>Node33&#45;&gt;Node10</title>
<path fill="none" stroke="midnightblue" d="M662.2,-264.95C627.82,-252.32 582.97,-235.85 556.17,-226.01"/>
<polygon fill="midnightblue" stroke="midnightblue" points="661,-268.23 671.59,-268.4 663.41,-261.66 661,-268.23"/>
</g>
<!-- Node33&#45;&gt;Node13 -->
<g id="edge30" class="edge">
<title>Node33&#45;&gt;Node13</title>
<path fill="none" stroke="midnightblue" d="M695.79,-259.41C691.43,-251.08 687.2,-241.41 685,-232 668.28,-160.53 739.57,-122.89 692,-67 659.5,-28.82 514.41,-19.42 434.03,-17.16"/>
<polygon fill="midnightblue" stroke="midnightblue" points="692.74,-261.13 700.67,-268.15 698.85,-257.72 692.74,-261.13"/>
</g>
<!-- Node33&#45;&gt;Node15 -->
<g id="edge32" class="edge">
<title>Node33&#45;&gt;Node15</title>
<path fill="none" stroke="midnightblue" d="M782.9,-264.46C798.71,-257.04 813.52,-246.62 823,-232 830.5,-220.44 829.78,-213 823,-201 791.99,-146.11 723.93,-114.01 677.02,-97.6"/>
<polygon fill="midnightblue" stroke="midnightblue" points="781.31,-261.34 773.5,-268.5 784.07,-267.77 781.31,-261.34"/>
</g>
<!-- Node33&#45;&gt;Node17 -->
<g id="edge33" class="edge">
<title>Node33&#45;&gt;Node17</title>
<path fill="none" stroke="midnightblue" d="M783.13,-267.37C803.98,-259.84 825.06,-248.64 840,-232 877.46,-190.28 880.38,-117.08 880.22,-92.12"/>
<polygon fill="midnightblue" stroke="midnightblue" points="781.96,-264.07 773.6,-270.58 784.19,-270.71 781.96,-264.07"/>
</g>
<!-- Node33&#45;&gt;Node19 -->
<g id="edge31" class="edge">
<title>Node33&#45;&gt;Node19</title>
<path fill="none" stroke="midnightblue" d="M776.06,-265.73C811.12,-255.88 849.83,-243.21 864,-232 918.76,-188.68 927.07,-165.21 946,-98 949.74,-84.74 951.11,-79.79 946,-67 938.91,-49.25 922.29,-34.18 910.6,-25.23"/>
<polygon fill="midnightblue" stroke="midnightblue" points="775,-262.39 766.29,-268.43 776.86,-269.14 775,-262.39"/>
</g>
<!-- Node34 -->
<g id="node24" class="node">
<title>Node34</title>
<g id="a_node24"><a xlink:href="d__menu__window_8h.html" target="_top" xlink:title=" ">
<polygon fill="white" stroke="red" points="694,-201.5 694,-231.5 814,-231.5 814,-201.5 694,-201.5"/>
<text text-anchor="start" x="702" y="-219.5" font-family="Helvetica,sans-Serif" font-size="10.00">include/d/menu/d_menu</text>
<text text-anchor="middle" x="754" y="-208.5" font-family="Helvetica,sans-Serif" font-size="10.00">_window.h</text>
</a>
</g>
</g>
<!-- Node33&#45;&gt;Node34 -->
<g id="edge35" class="edge">
<title>Node33&#45;&gt;Node34</title>
<path fill="none" stroke="midnightblue" d="M719.04,-259.58C724.82,-250.24 732.19,-239.75 738.8,-231.58"/>
<polygon fill="midnightblue" stroke="midnightblue" points="715.9,-258 713.87,-268.4 721.94,-261.54 715.9,-258"/>
</g>
<!-- Node34&#45;&gt;Node33 -->
<g id="edge36" class="edge">
<title>Node34&#45;&gt;Node33</title>
<path fill="none" stroke="midnightblue" d="M744.98,-240.39C739.2,-249.73 731.83,-260.22 725.23,-268.4"/>
<polygon fill="midnightblue" stroke="midnightblue" points="748.11,-241.97 750.15,-231.58 742.07,-238.44 748.11,-241.97"/>
</g>
<!-- Node37 -->
<g id="node26" class="node">
<title>Node37</title>
<g id="a_node26"><a xlink:href="f__op__msg__mng_8cpp.html" target="_top" xlink:title=" ">
<polygon fill="white" stroke="black" points="929,-341 929,-360 1069,-360 1069,-341 929,-341"/>
<text text-anchor="middle" x="999" y="-348" font-family="Helvetica,sans-Serif" font-size="10.00">src/f_op/f_op_msg_mng.cpp</text>
</a>
</g>
</g>
<!-- Node36&#45;&gt;Node37 -->
<g id="edge38" class="edge">
<title>Node36&#45;&gt;Node37</title>
<path fill="none" stroke="midnightblue" d="M1219.01,-400.31C1161.44,-387.54 1083.44,-370.23 1037.44,-360.03"/>
<polygon fill="midnightblue" stroke="midnightblue" points="1218.26,-403.73 1228.78,-402.48 1219.78,-396.89 1218.26,-403.73"/>
</g>
<!-- Node38 -->
<g id="node27" class="node">
<title>Node38</title>
<g id="a_node27"><a xlink:href="J2DPane_8cpp.html" target="_top" xlink:title=" ">
<polygon fill="white" stroke="black" points="1087.5,-335.5 1087.5,-365.5 1206.5,-365.5 1206.5,-335.5 1087.5,-335.5"/>
<text text-anchor="start" x="1095.5" y="-353.5" font-family="Helvetica,sans-Serif" font-size="10.00">libs/JSystem/J2DGraph</text>
<text text-anchor="middle" x="1147" y="-342.5" font-family="Helvetica,sans-Serif" font-size="10.00">/J2DPane.cpp</text>
</a>
</g>
</g>
<!-- Node36&#45;&gt;Node38 -->
<g id="edge39" class="edge">
<title>Node36&#45;&gt;Node38</title>
<path fill="none" stroke="midnightblue" d="M1251.33,-398.27C1228.24,-387.92 1199.76,-375.15 1178.4,-365.58"/>
<polygon fill="midnightblue" stroke="midnightblue" points="1249.98,-401.5 1260.54,-402.4 1252.84,-395.11 1249.98,-401.5"/>
</g>
<!-- Node39 -->
<g id="node28" class="node">
<title>Node39</title>
<g id="a_node28"><a xlink:href="J2DPicture_8h.html" target="_top" xlink:title=" ">
<polygon fill="white" stroke="black" points="1320.5,-268.5 1320.5,-298.5 1455.5,-298.5 1455.5,-268.5 1320.5,-268.5"/>
<text text-anchor="start" x="1328.5" y="-286.5" font-family="Helvetica,sans-Serif" font-size="10.00">include/JSystem/J2DGraph</text>
<text text-anchor="middle" x="1388" y="-275.5" font-family="Helvetica,sans-Serif" font-size="10.00">/J2DPicture.h</text>
</a>
</g>
</g>
<!-- Node36&#45;&gt;Node39 -->
<g id="edge40" class="edge">
<title>Node36&#45;&gt;Node39</title>
<path fill="none" stroke="midnightblue" d="M1333.41,-397.29C1346.56,-389.32 1360,-378.89 1369,-366 1383.23,-345.63 1386.92,-316.11 1387.81,-298.75"/>
<polygon fill="midnightblue" stroke="midnightblue" points="1331.37,-394.42 1324.41,-402.41 1334.84,-400.51 1331.37,-394.42"/>
</g>
<!-- Node41 -->
<g id="node30" class="node">
<title>Node41</title>
<g id="a_node30"><a xlink:href="J2DScreen_8h.html" target="_top" xlink:title=" ">
<polygon fill="white" stroke="black" points="1224.5,-335.5 1224.5,-365.5 1359.5,-365.5 1359.5,-335.5 1224.5,-335.5"/>
<text text-anchor="start" x="1232.5" y="-353.5" font-family="Helvetica,sans-Serif" font-size="10.00">include/JSystem/J2DGraph</text>
<text text-anchor="middle" x="1292" y="-342.5" font-family="Helvetica,sans-Serif" font-size="10.00">/J2DScreen.h</text>
</a>
</g>
</g>
<!-- Node36&#45;&gt;Node41 -->
<g id="edge42" class="edge">
<title>Node36&#45;&gt;Node41</title>
<path fill="none" stroke="midnightblue" d="M1292,-392.11C1292,-383.15 1292,-373.32 1292,-365.58"/>
<polygon fill="midnightblue" stroke="midnightblue" points="1288.5,-392.4 1292,-402.4 1295.5,-392.4 1288.5,-392.4"/>
</g>
<!-- Node48 -->
<g id="node34" class="node">
<title>Node48</title>
<g id="a_node34"><a xlink:href="J2DTextBox_8h.html" target="_top" xlink:title=" ">
<polygon fill="white" stroke="black" points="775.5,-335.5 775.5,-365.5 910.5,-365.5 910.5,-335.5 775.5,-335.5"/>
<text text-anchor="start" x="783.5" y="-353.5" font-family="Helvetica,sans-Serif" font-size="10.00">include/JSystem/J2DGraph</text>
<text text-anchor="middle" x="843" y="-342.5" font-family="Helvetica,sans-Serif" font-size="10.00">/J2DTextBox.h</text>
</a>
</g>
</g>
<!-- Node36&#45;&gt;Node48 -->
<g id="edge47" class="edge">
<title>Node36&#45;&gt;Node48</title>
<path fill="none" stroke="midnightblue" d="M1214.37,-401.97C1082.76,-381.97 1047.34,-385.74 920,-366 916.91,-365.52 913.75,-365.01 910.56,-364.48"/>
<polygon fill="midnightblue" stroke="midnightblue" points="1214.02,-405.46 1224.44,-403.52 1215.08,-398.54 1214.02,-405.46"/>
</g>
<!-- Node40 -->
<g id="node29" class="node">
<title>Node40</title>
<g id="a_node29"><a xlink:href="J2DPicture_8cpp.html" target="_top" xlink:title=" ">
<polygon fill="white" stroke="black" points="1330.5,-201.5 1330.5,-231.5 1449.5,-231.5 1449.5,-201.5 1330.5,-201.5"/>
<text text-anchor="start" x="1338.5" y="-219.5" font-family="Helvetica,sans-Serif" font-size="10.00">libs/JSystem/J2DGraph</text>
<text text-anchor="middle" x="1390" y="-208.5" font-family="Helvetica,sans-Serif" font-size="10.00">/J2DPicture.cpp</text>
</a>
</g>
</g>
<!-- Node39&#45;&gt;Node40 -->
<g id="edge41" class="edge">
<title>Node39&#45;&gt;Node40</title>
<path fill="none" stroke="midnightblue" d="M1388.75,-258.11C1389.03,-249.15 1389.33,-239.32 1389.57,-231.58"/>
<polygon fill="midnightblue" stroke="midnightblue" points="1385.24,-258.29 1388.43,-268.4 1392.24,-258.51 1385.24,-258.29"/>
</g>
<!-- Node41&#45;&gt;Node39 -->
<g id="edge46" class="edge">
<title>Node41&#45;&gt;Node39</title>
<path fill="none" stroke="midnightblue" d="M1321.19,-329.73C1336.05,-319.68 1353.76,-307.68 1367.21,-298.58"/>
<polygon fill="midnightblue" stroke="midnightblue" points="1319.15,-326.89 1312.83,-335.4 1323.07,-332.69 1319.15,-326.89"/>
</g>
<!-- Node42 -->
<g id="node31" class="node">
<title>Node42</title>
<g id="a_node31"><a xlink:href="d__drawlist_8cpp.html" target="_top" xlink:title=" ">
<polygon fill="white" stroke="black" points="1061,-274 1061,-293 1165,-293 1165,-274 1061,-274"/>
<text text-anchor="middle" x="1113" y="-281" font-family="Helvetica,sans-Serif" font-size="10.00">src/d/d_drawlist.cpp</text>
</a>
</g>
</g>
<!-- Node41&#45;&gt;Node42 -->
<g id="edge43" class="edge">
<title>Node41&#45;&gt;Node42</title>
<path fill="none" stroke="midnightblue" d="M1243.66,-331.95C1208.89,-319.32 1163.53,-302.85 1136.43,-293.01"/>
<polygon fill="midnightblue" stroke="midnightblue" points="1242.57,-335.27 1253.16,-335.4 1244.95,-328.69 1242.57,-335.27"/>
</g>
<!-- Node43 -->
<g id="node32" class="node">
<title>Node43</title>
<g id="a_node32"><a xlink:href="J2DScreen_8cpp.html" target="_top" xlink:title=" ">
<polygon fill="white" stroke="black" points="1183.5,-268.5 1183.5,-298.5 1302.5,-298.5 1302.5,-268.5 1183.5,-268.5"/>
<text text-anchor="start" x="1191.5" y="-286.5" font-family="Helvetica,sans-Serif" font-size="10.00">libs/JSystem/J2DGraph</text>
<text text-anchor="middle" x="1243" y="-275.5" font-family="Helvetica,sans-Serif" font-size="10.00">/J2DScreen.cpp</text>
</a>
</g>
</g>
<!-- Node41&#45;&gt;Node43 -->
<g id="edge44" class="edge">
<title>Node41&#45;&gt;Node43</title>
<path fill="none" stroke="midnightblue" d="M1275.16,-327.16C1268.01,-317.68 1259.9,-306.92 1253.61,-298.58"/>
<polygon fill="midnightblue" stroke="midnightblue" points="1272.55,-329.52 1281.37,-335.4 1278.14,-325.3 1272.55,-329.52"/>
</g>
<!-- Node44 -->
<g id="node33" class="node">
<title>Node44</title>
<g id="a_node33"><a xlink:href="d__pane__class__alpha_8h.html" target="_top" xlink:title=" ">
<polygon fill="white" stroke="red" points="929,-268.5 929,-298.5 1043,-298.5 1043,-268.5 929,-268.5"/>
<text text-anchor="start" x="937" y="-286.5" font-family="Helvetica,sans-Serif" font-size="10.00">include/d/pane/d_pane</text>
<text text-anchor="middle" x="986" y="-275.5" font-family="Helvetica,sans-Serif" font-size="10.00">_class_alpha.h</text>
</a>
</g>
</g>
<!-- Node41&#45;&gt;Node44 -->
<g id="edge45" class="edge">
<title>Node41&#45;&gt;Node44</title>
<path fill="none" stroke="midnightblue" d="M1214.65,-333.41C1167.6,-323.57 1106.31,-310.68 1052,-299 1049.13,-298.38 1046.2,-297.75 1043.23,-297.11"/>
<polygon fill="midnightblue" stroke="midnightblue" points="1213.96,-336.84 1224.47,-335.46 1215.39,-329.99 1213.96,-336.84"/>
</g>
<!-- Node49 -->
<g id="node35" class="node">
<title>Node49</title>
<g id="a_node35"><a xlink:href="J2DTextBox_8cpp.html" target="_top" xlink:title=" ">
<polygon fill="white" stroke="black" points="791.5,-268.5 791.5,-298.5 910.5,-298.5 910.5,-268.5 791.5,-268.5"/>
<text text-anchor="start" x="799.5" y="-286.5" font-family="Helvetica,sans-Serif" font-size="10.00">libs/JSystem/J2DGraph</text>
<text text-anchor="middle" x="851" y="-275.5" font-family="Helvetica,sans-Serif" font-size="10.00">/J2DTextBox.cpp</text>
</a>
</g>
</g>
<!-- Node48&#45;&gt;Node49 -->
<g id="edge48" class="edge">
<title>Node48&#45;&gt;Node49</title>
<path fill="none" stroke="midnightblue" d="M845.97,-325.4C847.08,-316.37 848.3,-306.41 849.27,-298.58"/>
<polygon fill="midnightblue" stroke="midnightblue" points="842.48,-325.04 844.74,-335.4 849.43,-325.9 842.48,-325.04"/>
</g>
<!-- Node50&#45;&gt;Node4 -->
<g id="edge51" class="edge">
<title>Node50&#45;&gt;Node4</title>
<path fill="none" stroke="midnightblue" d="M1978.37,-332.97C2020.65,-322.27 2075.06,-308.51 2115.09,-298.39"/>
<polygon fill="midnightblue" stroke="midnightblue" points="1977.29,-329.63 1968.45,-335.48 1979,-336.42 1977.29,-329.63"/>
</g>
<!-- Node51 -->
<g id="node37" class="node">
<title>Node51</title>
<g id="a_node37"><a xlink:href="JKRAramArchive_8cpp.html" target="_top" xlink:title=" ">
<polygon fill="white" stroke="black" points="1856.5,-268.5 1856.5,-298.5 1969.5,-298.5 1969.5,-268.5 1856.5,-268.5"/>
<text text-anchor="start" x="1864.5" y="-286.5" font-family="Helvetica,sans-Serif" font-size="10.00">libs/JSystem/JKernel</text>
<text text-anchor="middle" x="1913" y="-275.5" font-family="Helvetica,sans-Serif" font-size="10.00">/JKRAramArchive.cpp</text>
</a>
</g>
</g>
<!-- Node50&#45;&gt;Node51 -->
<g id="edge50" class="edge">
<title>Node50&#45;&gt;Node51</title>
<path fill="none" stroke="midnightblue" d="M1913,-325.11C1913,-316.15 1913,-306.32 1913,-298.58"/>
<polygon fill="midnightblue" stroke="midnightblue" points="1909.5,-325.4 1913,-335.4 1916.5,-325.4 1909.5,-325.4"/>
</g>
<!-- Node52&#45;&gt;Node50 -->
<g id="edge55" class="edge">
<title>Node52&#45;&gt;Node50</title>
<path fill="none" stroke="midnightblue" d="M1783.05,-398.96C1811.72,-388.48 1847.64,-375.37 1874.45,-365.58"/>
<polygon fill="midnightblue" stroke="midnightblue" points="1781.82,-395.68 1773.62,-402.4 1784.22,-402.25 1781.82,-395.68"/>
</g>
<!-- Node53 -->
<g id="node39" class="node">
<title>Node53</title>
<g id="a_node39"><a xlink:href="JKRAram_8cpp.html" target="_top" xlink:title=" ">
<polygon fill="white" stroke="black" points="1590.5,-268.5 1590.5,-298.5 1699.5,-298.5 1699.5,-268.5 1590.5,-268.5"/>
<text text-anchor="start" x="1598.5" y="-286.5" font-family="Helvetica,sans-Serif" font-size="10.00">libs/JSystem/JKernel</text>
<text text-anchor="middle" x="1645" y="-275.5" font-family="Helvetica,sans-Serif" font-size="10.00">/JKRAram.cpp</text>
</a>
</g>
</g>
<!-- Node52&#45;&gt;Node53 -->
<g id="edge53" class="edge">
<title>Node52&#45;&gt;Node53</title>
<path fill="none" stroke="midnightblue" d="M1694.32,-397.32C1681.48,-389.35 1668.46,-378.91 1660,-366 1646.52,-345.42 1644.35,-315.97 1644.4,-298.68"/>
<polygon fill="midnightblue" stroke="midnightblue" points="1692.71,-400.43 1703.11,-402.43 1696.23,-394.38 1692.71,-400.43"/>
</g>
<!-- Node54 -->
<g id="node40" class="node">
<title>Node54</title>
<g id="a_node40"><a xlink:href="JKRAramBlock_8cpp.html" target="_top" xlink:title=" ">
<polygon fill="white" stroke="black" points="1725.5,-268.5 1725.5,-298.5 1834.5,-298.5 1834.5,-268.5 1725.5,-268.5"/>
<text text-anchor="start" x="1733.5" y="-286.5" font-family="Helvetica,sans-Serif" font-size="10.00">libs/JSystem/JKernel</text>
<text text-anchor="middle" x="1780" y="-275.5" font-family="Helvetica,sans-Serif" font-size="10.00">/JKRAramBlock.cpp</text>
</a>
</g>
</g>
<!-- Node52&#45;&gt;Node54 -->
<g id="edge54" class="edge">
<title>Node52&#45;&gt;Node54</title>
<path fill="none" stroke="midnightblue" d="M1773.9,-396.86C1785.41,-388.96 1796.63,-378.67 1803,-366 1814.16,-343.8 1800.56,-315.39 1790.03,-298.65"/>
<polygon fill="midnightblue" stroke="midnightblue" points="1771.68,-394.13 1765.12,-402.44 1775.43,-400.03 1771.68,-394.13"/>
</g>
<!-- Node55 -->
<g id="node41" class="node">
<title>Node55</title>
<g id="a_node41"><a xlink:href="JKRAramHeap_8h.html" target="_top" xlink:title=" ">
<polygon fill="white" stroke="red" points="1668.5,-335.5 1668.5,-365.5 1793.5,-365.5 1793.5,-335.5 1668.5,-335.5"/>
<text text-anchor="start" x="1676.5" y="-353.5" font-family="Helvetica,sans-Serif" font-size="10.00">include/JSystem/JKernel</text>
<text text-anchor="middle" x="1731" y="-342.5" font-family="Helvetica,sans-Serif" font-size="10.00">/JKRAramHeap.h</text>
</a>
</g>
</g>
<!-- Node52&#45;&gt;Node55 -->
<g id="edge56" class="edge">
<title>Node52&#45;&gt;Node55</title>
<path fill="none" stroke="midnightblue" d="M1733.52,-392.4C1732.96,-383.37 1732.35,-373.41 1731.87,-365.58"/>
<polygon fill="midnightblue" stroke="midnightblue" points="1730.02,-392.63 1734.13,-402.4 1737.01,-392.2 1730.02,-392.63"/>
</g>
<!-- Node55&#45;&gt;Node53 -->
<g id="edge57" class="edge">
<title>Node55&#45;&gt;Node53</title>
<path fill="none" stroke="midnightblue" d="M1704.1,-329.17C1690.95,-319.23 1675.45,-307.51 1663.62,-298.58"/>
<polygon fill="midnightblue" stroke="midnightblue" points="1702.25,-332.16 1712.34,-335.4 1706.47,-326.57 1702.25,-332.16"/>
</g>
<!-- Node55&#45;&gt;Node54 -->
<g id="edge58" class="edge">
<title>Node55&#45;&gt;Node54</title>
<path fill="none" stroke="midnightblue" d="M1747.84,-327.16C1754.99,-317.68 1763.1,-306.92 1769.39,-298.58"/>
<polygon fill="midnightblue" stroke="midnightblue" points="1744.86,-325.3 1741.63,-335.4 1750.45,-329.52 1744.86,-325.3"/>
</g>
<!-- Node59&#45;&gt;Node4 -->
<g id="edge60" class="edge">
<title>Node59&#45;&gt;Node4</title>
<path fill="none" stroke="midnightblue" d="M1956.99,-395.15C1978.1,-374.04 2009.53,-343.68 2024,-335 2052.18,-318.11 2086.82,-305.82 2115.29,-297.59"/>
<polygon fill="midnightblue" stroke="midnightblue" points="1954.3,-392.89 1949.73,-402.45 1959.27,-397.83 1954.3,-392.89"/>
</g>
<!-- Node60&#45;&gt;Node4 -->
<g id="edge62" class="edge">
<title>Node60&#45;&gt;Node4</title>
<path fill="none" stroke="midnightblue" d="M2120.74,-396.51C2131.89,-388.35 2143.38,-378 2151,-366 2164.32,-345.03 2168.32,-315.71 2169.51,-298.55"/>
<polygon fill="midnightblue" stroke="midnightblue" points="2118.59,-393.74 2112.35,-402.3 2122.57,-399.5 2118.59,-393.74"/>
</g>
<!-- Node61 -->
<g id="node44" class="node">
<title>Node61</title>
<g id="a_node44"><a xlink:href="JKRDvdArchive_8cpp.html" target="_top" xlink:title=" ">
<polygon fill="white" stroke="black" points="2032.5,-335.5 2032.5,-365.5 2141.5,-365.5 2141.5,-335.5 2032.5,-335.5"/>
<text text-anchor="start" x="2040.5" y="-353.5" font-family="Helvetica,sans-Serif" font-size="10.00">libs/JSystem/JKernel</text>
<text text-anchor="middle" x="2087" y="-342.5" font-family="Helvetica,sans-Serif" font-size="10.00">/JKRDvdArchive.cpp</text>
</a>
</g>
</g>
<!-- Node60&#45;&gt;Node61 -->
<g id="edge63" class="edge">
<title>Node60&#45;&gt;Node61</title>
<path fill="none" stroke="midnightblue" d="M2087,-392.11C2087,-383.15 2087,-373.32 2087,-365.58"/>
<polygon fill="midnightblue" stroke="midnightblue" points="2083.5,-392.4 2087,-402.4 2090.5,-392.4 2083.5,-392.4"/>
</g>
<!-- Node62&#45;&gt;Node4 -->
<g id="edge65" class="edge">
<title>Node62&#45;&gt;Node4</title>
<path fill="none" stroke="midnightblue" d="M2291.19,-395.59C2261.57,-368.44 2210.67,-321.78 2185.3,-298.52"/>
<polygon fill="midnightblue" stroke="midnightblue" points="2288.85,-398.2 2298.59,-402.37 2293.58,-393.04 2288.85,-398.2"/>
</g>
<!-- Node63 -->
<g id="node46" class="node">
<title>Node63</title>
<g id="a_node46"><a xlink:href="JKRMemArchive_8cpp.html" target="_top" xlink:title=" ">
<polygon fill="white" stroke="black" points="2274.5,-335.5 2274.5,-365.5 2385.5,-365.5 2385.5,-335.5 2274.5,-335.5"/>
<text text-anchor="start" x="2282.5" y="-353.5" font-family="Helvetica,sans-Serif" font-size="10.00">libs/JSystem/JKernel</text>
<text text-anchor="middle" x="2330" y="-342.5" font-family="Helvetica,sans-Serif" font-size="10.00">/JKRMemArchive.cpp</text>
</a>
</g>
</g>
<!-- Node62&#45;&gt;Node63 -->
<g id="edge66" class="edge">
<title>Node62&#45;&gt;Node63</title>
<path fill="none" stroke="midnightblue" d="M2319.93,-392.4C2322.16,-383.37 2324.61,-373.41 2326.54,-365.58"/>
<polygon fill="midnightblue" stroke="midnightblue" points="2316.46,-391.85 2317.47,-402.4 2323.26,-393.52 2316.46,-391.85"/>
</g>
<!-- Node62&#45;&gt;Node64 -->
<g id="edge67" class="edge">
<title>Node62&#45;&gt;Node64</title>
<path fill="none" stroke="midnightblue" d="M2356.31,-398.41C2380.58,-388.03 2410.59,-375.2 2433.08,-365.58"/>
<polygon fill="midnightblue" stroke="midnightblue" points="2354.8,-395.25 2346.98,-402.4 2357.55,-401.68 2354.8,-395.25"/>
</g>
<!-- Node65 -->
<g id="node48" class="node">
<title>Node65</title>
<g id="a_node48"><a xlink:href="m__Do__dvd__thread_8cpp.html" target="_top" xlink:title=" ">
<polygon fill="white" stroke="black" points="2387,-274 2387,-293 2545,-293 2545,-274 2387,-274"/>
<text text-anchor="middle" x="2466" y="-281" font-family="Helvetica,sans-Serif" font-size="10.00">src/m_Do/m_Do_dvd_thread.cpp</text>
</a>
</g>
</g>
<!-- Node64&#45;&gt;Node65 -->
<g id="edge68" class="edge">
<title>Node64&#45;&gt;Node65</title>
<path fill="none" stroke="midnightblue" d="M2466,-325.25C2466,-314.02 2466,-301.38 2466,-293.19"/>
<polygon fill="midnightblue" stroke="midnightblue" points="2462.5,-325.4 2466,-335.4 2469.5,-325.4 2462.5,-325.4"/>
</g>
<!-- Node66&#45;&gt;Node17 -->
<g id="edge71" class="edge">
<title>Node66&#45;&gt;Node17</title>
<path fill="none" stroke="midnightblue" d="M1480.11,-397.7C1466.25,-390.09 1452.97,-379.75 1445,-366 1438.1,-354.08 1441.54,-348.34 1445,-335 1449.59,-317.28 1460.41,-316.72 1465,-299 1470.72,-276.91 1462.19,-204.57 1459,-201 1390,-123.9 1070.15,-95.34 937.69,-86.71"/>
<polygon fill="midnightblue" stroke="midnightblue" points="1478.75,-400.93 1489.25,-402.32 1481.91,-394.69 1478.75,-400.93"/>
</g>
<!-- Node67 -->
<g id="node50" class="node">
<title>Node67</title>
<g id="a_node50"><a xlink:href="Z2AudioMgr_8cpp.html" target="_top" xlink:title=" ">
<polygon fill="white" stroke="black" points="1454,-341 1454,-360 1612,-360 1612,-341 1454,-341"/>
<text text-anchor="middle" x="1533" y="-348" font-family="Helvetica,sans-Serif" font-size="10.00">libs/Z2AudioLib/Z2AudioMgr.cpp</text>
</a>
</g>
</g>
<!-- Node66&#45;&gt;Node67 -->
<g id="edge72" class="edge">
<title>Node66&#45;&gt;Node67</title>
<path fill="none" stroke="midnightblue" d="M1533,-392.25C1533,-381.02 1533,-368.38 1533,-360.19"/>
<polygon fill="midnightblue" stroke="midnightblue" points="1529.5,-392.4 1533,-402.4 1536.5,-392.4 1529.5,-392.4"/>
</g>
</g>
</svg>
