<?xml version="1.0" encoding="UTF-8" standalone="no"?>
<!DOCTYPE svg PUBLIC "-//W3C//DTD SVG 1.1//EN"
 "http://www.w3.org/Graphics/SVG/1.1/DTD/svg11.dtd">
<!-- Generated by graphviz version 2.44.0 ()
 -->
<!-- Title: libs/JSystem/JKernel/JKRAramPiece.cpp Pages: 1 -->
<!--zoomable 621 -->
<svg id="main" version="1.1" xmlns="http://www.w3.org/2000/svg" xmlns:xlink="http://www.w3.org/1999/xlink" xml:space="preserve" onload="init(evt)">
<style type="text/css"><![CDATA[
.edge:hover path { stroke: red; }
.edge:hover polygon { stroke: red; fill: red; }
]]></style>
<script type="text/javascript"><![CDATA[
var edges = document.getElementsByTagName('g');
if (edges && edges.length) {
  for (var i=0;i<edges.length;i++) {
    if (edges[i].id.substr(0,4)=='edge') {
      edges[i].setAttribute('class','edge');
    }
  }
}
]]></script>
        <defs>
                <circle id="rim" cx="0" cy="0" r="7"/>
                <circle id="rim2" cx="0" cy="0" r="3.5"/>
                <g id="zoomPlus">
                        <use xlink:href="#rim" fill="#404040">
                                <set attributeName="fill" to="#808080" begin="zoomplus.mouseover" end="zoomplus.mouseout"/>
                        </use>
                        <path d="M-4,0h8M0,-4v8" fill="none" stroke="white" stroke-width="1.5" pointer-events="none"/>
                </g>
                <g id="zoomMin">
                        <use xlink:href="#rim" fill="#404040">
                                <set attributeName="fill" to="#808080" begin="zoomminus.mouseover" end="zoomminus.mouseout"/>
                        </use>
                        <path d="M-4,0h8" fill="none" stroke="white" stroke-width="1.5" pointer-events="none"/>
                </g>
                <g id="dirArrow">
                        <path fill="none" stroke="white" stroke-width="1.5" d="M0,-3.0v7 M-2.5,-0.5L0,-3.0L2.5,-0.5"/>
                </g>
               <g id="resetDef">
                       <use xlink:href="#rim2" fill="#404040">
                               <set attributeName="fill" to="#808080" begin="reset.mouseover" end="reset.mouseout"/>
                       </use>
               </g>
        </defs>

<script type="text/javascript">
var viewWidth = 1935;
var viewHeight = 621;
var sectionId = 'dynsection-0';
</script>
<script xlink:href="svgpan.js"/>
<svg id="graph" class="graph">
<g id="viewport">
<title>libs/JSystem/JKernel/JKRAramPiece.cpp</title>
<polygon fill="white" stroke="transparent" points="-4,4 -4,-617 1930.97,-617 1930.97,4 -4,4"/>
<!-- Node1 -->
<g id="node1" class="node">
<title>Node1</title>
<g id="a_node1"><a xlink:title=" ">
<polygon fill="#bfbfbf" stroke="black" points="1143.5,-582.5 1143.5,-612.5 1252.5,-612.5 1252.5,-582.5 1143.5,-582.5"/>
<text text-anchor="start" x="1151.5" y="-600.5" font-family="Helvetica,sans-Serif" font-size="10.00">libs/JSystem/JKernel</text>
<text text-anchor="middle" x="1198" y="-589.5" font-family="Helvetica,sans-Serif" font-size="10.00">/JKRAramPiece.cpp</text>
</a>
</g>
</g>
<!-- Node2 -->
<g id="node2" class="node">
<title>Node2</title>
<g id="a_node2"><a xlink:href="JKRAramPiece_8h.html" target="_top" xlink:title=" ">
<polygon fill="white" stroke="black" points="28,-185 28,-204 196,-204 196,-185 28,-185"/>
<text text-anchor="middle" x="112" y="-192" font-family="Helvetica,sans-Serif" font-size="10.00">JSystem/JKernel/JKRAramPiece.h</text>
</a>
</g>
</g>
<!-- Node1&#45;&gt;Node2 -->
<g id="edge1" class="edge">
<title>Node1&#45;&gt;Node2</title>
<path fill="none" stroke="midnightblue" d="M1143.44,-596.28C928.12,-594.71 149,-582.06 149,-481 149,-481 149,-481 149,-311 149,-275.01 132.5,-235.59 121.54,-213.36"/>
<polygon fill="midnightblue" stroke="midnightblue" points="124.51,-211.48 116.84,-204.18 118.28,-214.68 124.51,-211.48"/>
</g>
<!-- Node4 -->
<g id="node4" class="node">
<title>Node4</title>
<g id="a_node4"><a xlink:href="types_8h.html" target="_top" xlink:title=" ">
<polygon fill="white" stroke="black" points="982.5,-0.5 982.5,-19.5 1063.5,-19.5 1063.5,-0.5 982.5,-0.5"/>
<text text-anchor="middle" x="1023" y="-7.5" font-family="Helvetica,sans-Serif" font-size="10.00">dolphin/types.h</text>
</a>
</g>
</g>
<!-- Node1&#45;&gt;Node4 -->
<g id="edge79" class="edge">
<title>Node1&#45;&gt;Node4</title>
<path fill="none" stroke="midnightblue" d="M1143.41,-597.04C909.05,-598.67 0,-597.49 0,-481 0,-481 0,-481 0,-132 0,-63.15 68.86,-75.14 135,-56 293.7,-10.08 807.83,-9.49 972.06,-10.53"/>
<polygon fill="midnightblue" stroke="midnightblue" points="972.35,-14.03 982.37,-10.6 972.39,-7.03 972.35,-14.03"/>
</g>
<!-- Node9 -->
<g id="node9" class="node">
<title>Node9</title>
<g id="a_node9"><a xlink:href="JKRAram_8h.html" target="_top" xlink:title=" ">
<polygon fill="white" stroke="black" points="1176.5,-526.5 1176.5,-545.5 1319.5,-545.5 1319.5,-526.5 1176.5,-526.5"/>
<text text-anchor="middle" x="1248" y="-533.5" font-family="Helvetica,sans-Serif" font-size="10.00">JSystem/JKernel/JKRAram.h</text>
</a>
</g>
</g>
<!-- Node1&#45;&gt;Node9 -->
<g id="edge13" class="edge">
<title>Node1&#45;&gt;Node9</title>
<path fill="none" stroke="midnightblue" d="M1209.85,-582.4C1217.11,-573.75 1226.45,-562.64 1234.07,-553.58"/>
<polygon fill="midnightblue" stroke="midnightblue" points="1236.97,-555.57 1240.72,-545.66 1231.61,-551.06 1236.97,-555.57"/>
</g>
<!-- Node14 -->
<g id="node14" class="node">
<title>Node14</title>
<g id="a_node14"><a xlink:href="JKRDecomp_8h.html" target="_top" xlink:title=" ">
<polygon fill="white" stroke="black" points="926,-302.5 926,-321.5 1082,-321.5 1082,-302.5 926,-302.5"/>
<text text-anchor="middle" x="1004" y="-309.5" font-family="Helvetica,sans-Serif" font-size="10.00">JSystem/JKernel/JKRDecomp.h</text>
</a>
</g>
</g>
<!-- Node1&#45;&gt;Node14 -->
<g id="edge56" class="edge">
<title>Node1&#45;&gt;Node14</title>
<path fill="none" stroke="midnightblue" d="M1146.7,-582.44C1100.57,-566.3 1040,-534.86 1040,-481 1040,-481 1040,-481 1040,-423 1040,-388.98 1024.26,-351.85 1013.59,-330.6"/>
<polygon fill="midnightblue" stroke="midnightblue" points="1016.59,-328.77 1008.86,-321.53 1010.38,-332.01 1016.59,-328.77"/>
</g>
<!-- Node17 -->
<g id="node17" class="node">
<title>Node17</title>
<g id="a_node17"><a xlink:href="JKRHeap_8h.html" target="_top" xlink:title=" ">
<polygon fill="white" stroke="black" points="932.5,-185 932.5,-204 1075.5,-204 1075.5,-185 932.5,-185"/>
<text text-anchor="middle" x="1004" y="-192" font-family="Helvetica,sans-Serif" font-size="10.00">JSystem/JKernel/JKRHeap.h</text>
</a>
</g>
</g>
<!-- Node1&#45;&gt;Node17 -->
<g id="edge57" class="edge">
<title>Node1&#45;&gt;Node17</title>
<path fill="none" stroke="midnightblue" d="M1187.4,-582.4C1172.72,-561.45 1148,-520.33 1148,-481 1148,-481 1148,-481 1148,-367 1148,-328.58 1122.68,-323.74 1091,-302 1052.74,-275.74 1019.56,-304.05 993,-266 982.28,-250.65 988.05,-228.85 994.58,-213.57"/>
<polygon fill="midnightblue" stroke="midnightblue" points="997.9,-214.73 999.02,-204.19 991.58,-211.73 997.9,-214.73"/>
</g>
<!-- Node23 -->
<g id="node23" class="node">
<title>Node23</title>
<g id="a_node23"><a xlink:href="JUTException_8h.html" target="_top" xlink:title=" ">
<polygon fill="white" stroke="black" points="1330.5,-302.5 1330.5,-321.5 1489.5,-321.5 1489.5,-302.5 1330.5,-302.5"/>
<text text-anchor="middle" x="1410" y="-309.5" font-family="Helvetica,sans-Serif" font-size="10.00">JSystem/JUtility/JUTException.h</text>
</a>
</g>
</g>
<!-- Node1&#45;&gt;Node23 -->
<g id="edge58" class="edge">
<title>Node1&#45;&gt;Node23</title>
<path fill="none" stroke="midnightblue" d="M1252.71,-592.14C1319.59,-583.47 1424,-557.67 1424,-481 1424,-481 1424,-481 1424,-423 1424,-390.54 1417.93,-353.12 1413.78,-331.36"/>
<polygon fill="midnightblue" stroke="midnightblue" points="1417.21,-330.64 1411.83,-321.51 1410.34,-332 1417.21,-330.64"/>
</g>
<!-- Node29 -->
<g id="node29" class="node">
<title>Node29</title>
<g id="a_node29"><a xlink:href="dol2asm_8h.html" target="_top" xlink:title=" ">
<polygon fill="white" stroke="black" points="1490.5,-526.5 1490.5,-545.5 1551.5,-545.5 1551.5,-526.5 1490.5,-526.5"/>
<text text-anchor="middle" x="1521" y="-533.5" font-family="Helvetica,sans-Serif" font-size="10.00">dol2asm.h</text>
</a>
</g>
</g>
<!-- Node1&#45;&gt;Node29 -->
<g id="edge76" class="edge">
<title>Node1&#45;&gt;Node29</title>
<path fill="none" stroke="midnightblue" d="M1252.65,-586.87C1308.75,-576.91 1398.54,-560.78 1476,-546 1477.28,-545.76 1478.57,-545.51 1479.88,-545.25"/>
<polygon fill="midnightblue" stroke="midnightblue" points="1480.89,-548.62 1490.03,-543.27 1479.54,-541.75 1480.89,-548.62"/>
</g>
<!-- Node30 -->
<g id="node30" class="node">
<title>Node30</title>
<g id="a_node30"><a xlink:href="OSCache_8h.html" target="_top" xlink:title=" ">
<polygon fill="white" stroke="black" points="1667.5,-470.5 1667.5,-489.5 1780.5,-489.5 1780.5,-470.5 1667.5,-470.5"/>
<text text-anchor="middle" x="1724" y="-477.5" font-family="Helvetica,sans-Serif" font-size="10.00">dolphin/os/OSCache.h</text>
</a>
</g>
</g>
<!-- Node1&#45;&gt;Node30 -->
<g id="edge77" class="edge">
<title>Node1&#45;&gt;Node30</title>
<path fill="none" stroke="midnightblue" d="M1252.79,-588.62C1302.05,-580.69 1375.99,-566.64 1438,-546 1458,-539.34 1460.92,-532.41 1481,-526 1539.12,-507.43 1607.65,-495.61 1657.09,-488.76"/>
<polygon fill="midnightblue" stroke="midnightblue" points="1657.59,-492.23 1667.03,-487.42 1656.65,-485.29 1657.59,-492.23"/>
</g>
<!-- Node3 -->
<g id="node3" class="node">
<title>Node3</title>
<g id="a_node3"><a xlink:href="JSUList_8h.html" target="_top" xlink:title=" ">
<polygon fill="white" stroke="black" points="564.5,-62 564.5,-81 707.5,-81 707.5,-62 564.5,-62"/>
<text text-anchor="middle" x="636" y="-69" font-family="Helvetica,sans-Serif" font-size="10.00">JSystem/JSupport/JSUList.h</text>
</a>
</g>
</g>
<!-- Node2&#45;&gt;Node3 -->
<g id="edge2" class="edge">
<title>Node2&#45;&gt;Node3</title>
<path fill="none" stroke="midnightblue" d="M145.62,-184.93C199.29,-171.33 307.68,-144.17 400,-123 463.29,-108.48 536.44,-93.04 584.32,-83.1"/>
<polygon fill="midnightblue" stroke="midnightblue" points="585.06,-86.53 594.14,-81.07 583.64,-79.67 585.06,-86.53"/>
</g>
<!-- Node2&#45;&gt;Node4 -->
<g id="edge12" class="edge">
<title>Node2&#45;&gt;Node4</title>
<path fill="none" stroke="midnightblue" d="M122.28,-184.96C133.26,-175.48 150.75,-159.36 163,-143 189.34,-107.82 172.89,-79.55 210,-56 274.19,-15.27 804.59,-11.22 972.34,-10.96"/>
<polygon fill="midnightblue" stroke="midnightblue" points="972.4,-14.46 982.39,-10.95 972.39,-7.46 972.4,-14.46"/>
</g>
<!-- Node5 -->
<g id="node5" class="node">
<title>Node5</title>
<g id="a_node5"><a xlink:href="arq_8h.html" target="_top" xlink:title=" ">
<polygon fill="white" stroke="black" points="71.5,-123.5 71.5,-142.5 154.5,-142.5 154.5,-123.5 71.5,-123.5"/>
<text text-anchor="middle" x="113" y="-130.5" font-family="Helvetica,sans-Serif" font-size="10.00">dolphin/ar/arq.h</text>
</a>
</g>
</g>
<!-- Node2&#45;&gt;Node5 -->
<g id="edge4" class="edge">
<title>Node2&#45;&gt;Node5</title>
<path fill="none" stroke="midnightblue" d="M112.14,-184.98C112.28,-176.58 112.5,-163.48 112.69,-152.66"/>
<polygon fill="midnightblue" stroke="midnightblue" points="116.19,-152.57 112.86,-142.51 109.19,-152.45 116.19,-152.57"/>
</g>
<!-- Node6 -->
<g id="node6" class="node">
<title>Node6</title>
<g id="a_node6"><a xlink:href="OS_8h.html" target="_top" xlink:title=" ">
<polygon fill="white" stroke="black" points="1070,-123.5 1070,-142.5 1156,-142.5 1156,-123.5 1070,-123.5"/>
<text text-anchor="middle" x="1113" y="-130.5" font-family="Helvetica,sans-Serif" font-size="10.00">dolphin/os/OS.h</text>
</a>
</g>
</g>
<!-- Node2&#45;&gt;Node6 -->
<g id="edge6" class="edge">
<title>Node2&#45;&gt;Node6</title>
<path fill="none" stroke="midnightblue" d="M196.04,-189.05C405.92,-177.92 942.01,-149.29 1023,-143 1034.75,-142.09 1047.34,-140.94 1059.27,-139.77"/>
<polygon fill="midnightblue" stroke="midnightblue" points="1059.94,-143.22 1069.55,-138.74 1059.25,-136.25 1059.94,-143.22"/>
</g>
<!-- Node3&#45;&gt;Node4 -->
<g id="edge3" class="edge">
<title>Node3&#45;&gt;Node4</title>
<path fill="none" stroke="midnightblue" d="M691.45,-61.98C766.55,-50.43 899.54,-29.98 972.17,-18.81"/>
<polygon fill="midnightblue" stroke="midnightblue" points="973.09,-22.22 982.44,-17.24 972.02,-15.3 973.09,-22.22"/>
</g>
<!-- Node5&#45;&gt;Node4 -->
<g id="edge5" class="edge">
<title>Node5&#45;&gt;Node4</title>
<path fill="none" stroke="midnightblue" d="M116.55,-123.43C123.9,-106.93 142.53,-71.04 171,-56 241.72,-18.66 799.46,-12.29 972.19,-11.22"/>
<polygon fill="midnightblue" stroke="midnightblue" points="972.31,-14.72 982.29,-11.16 972.27,-7.72 972.31,-14.72"/>
</g>
<!-- Node6&#45;&gt;Node4 -->
<g id="edge9" class="edge">
<title>Node6&#45;&gt;Node4</title>
<path fill="none" stroke="midnightblue" d="M1106.53,-123.3C1091.67,-103.33 1054.92,-53.92 1035.5,-27.8"/>
<polygon fill="midnightblue" stroke="midnightblue" points="1038.19,-25.56 1029.41,-19.62 1032.57,-29.74 1038.19,-25.56"/>
</g>
<!-- Node7 -->
<g id="node7" class="node">
<title>Node7</title>
<g id="a_node7"><a xlink:href="____va__arg_8h.html" target="_top" xlink:title=" ">
<polygon fill="white" stroke="black" points="1178,-56.5 1178,-86.5 1288,-86.5 1288,-56.5 1178,-56.5"/>
<text text-anchor="start" x="1186" y="-74.5" font-family="Helvetica,sans-Serif" font-size="10.00">Runtime.PPCEABI.H/</text>
<text text-anchor="middle" x="1233" y="-63.5" font-family="Helvetica,sans-Serif" font-size="10.00">__va_arg.h</text>
</a>
</g>
</g>
<!-- Node6&#45;&gt;Node7 -->
<g id="edge7" class="edge">
<title>Node6&#45;&gt;Node7</title>
<path fill="none" stroke="midnightblue" d="M1130.19,-123.48C1147.2,-115.04 1173.8,-101.86 1195.67,-91.01"/>
<polygon fill="midnightblue" stroke="midnightblue" points="1197.31,-94.1 1204.72,-86.52 1194.2,-87.83 1197.31,-94.1"/>
</g>
<!-- Node8 -->
<g id="node8" class="node">
<title>Node8</title>
<g id="a_node8"><a xlink:href="dvd_8h.html" target="_top" xlink:title=" ">
<polygon fill="white" stroke="black" points="884,-62 884,-81 976,-81 976,-62 884,-62"/>
<text text-anchor="middle" x="930" y="-69" font-family="Helvetica,sans-Serif" font-size="10.00">dolphin/dvd/dvd.h</text>
</a>
</g>
</g>
<!-- Node6&#45;&gt;Node8 -->
<g id="edge10" class="edge">
<title>Node6&#45;&gt;Node8</title>
<path fill="none" stroke="midnightblue" d="M1086.78,-123.48C1054.98,-113.14 1001.23,-95.66 965.68,-84.1"/>
<polygon fill="midnightblue" stroke="midnightblue" points="966.76,-80.77 956.17,-81.01 964.6,-87.43 966.76,-80.77"/>
</g>
<!-- Node7&#45;&gt;Node4 -->
<g id="edge8" class="edge">
<title>Node7&#45;&gt;Node4</title>
<path fill="none" stroke="midnightblue" d="M1183.5,-56.47C1146.64,-46.03 1096.97,-31.96 1062.69,-22.25"/>
<polygon fill="midnightblue" stroke="midnightblue" points="1063.6,-18.87 1053.02,-19.51 1061.69,-25.6 1063.6,-18.87"/>
</g>
<!-- Node8&#45;&gt;Node4 -->
<g id="edge11" class="edge">
<title>Node8&#45;&gt;Node4</title>
<path fill="none" stroke="midnightblue" d="M943.32,-61.98C958.38,-52.34 983.12,-36.52 1001.04,-25.05"/>
<polygon fill="midnightblue" stroke="midnightblue" points="1003.16,-27.85 1009.7,-19.51 999.39,-21.95 1003.16,-27.85"/>
</g>
<!-- Node9&#45;&gt;Node4 -->
<g id="edge14" class="edge">
<title>Node9&#45;&gt;Node4</title>
<path fill="none" stroke="midnightblue" d="M1273.7,-526.49C1348.69,-499.87 1562,-410.63 1562,-257 1562,-257 1562,-257 1562,-132 1562,-79.98 1520.84,-76.41 1473,-56 1402.22,-25.81 1176,-15.47 1073.88,-12.28"/>
<polygon fill="midnightblue" stroke="midnightblue" points="1073.91,-8.78 1063.81,-11.98 1073.7,-15.78 1073.91,-8.78"/>
</g>
<!-- Node10 -->
<g id="node10" class="node">
<title>Node10</title>
<g id="a_node10"><a xlink:href="JKRAramHeap_8h.html" target="_top" xlink:title=" ">
<polygon fill="white" stroke="black" points="814.5,-470.5 814.5,-489.5 981.5,-489.5 981.5,-470.5 814.5,-470.5"/>
<text text-anchor="middle" x="898" y="-477.5" font-family="Helvetica,sans-Serif" font-size="10.00">JSystem/JKernel/JKRAramHeap.h</text>
</a>
</g>
</g>
<!-- Node9&#45;&gt;Node10 -->
<g id="edge15" class="edge">
<title>Node9&#45;&gt;Node10</title>
<path fill="none" stroke="midnightblue" d="M1192.54,-526.44C1130.33,-516.85 1029.52,-501.29 963.49,-491.1"/>
<polygon fill="midnightblue" stroke="midnightblue" points="963.62,-487.58 953.2,-489.52 962.55,-494.5 963.62,-487.58"/>
</g>
<!-- Node15 -->
<g id="node15" class="node">
<title>Node15</title>
<g id="a_node15"><a xlink:href="JKRThread_8h.html" target="_top" xlink:title=" ">
<polygon fill="white" stroke="black" points="1002,-246.5 1002,-265.5 1152,-265.5 1152,-246.5 1002,-246.5"/>
<text text-anchor="middle" x="1077" y="-253.5" font-family="Helvetica,sans-Serif" font-size="10.00">JSystem/JKernel/JKRThread.h</text>
</a>
</g>
</g>
<!-- Node9&#45;&gt;Node15 -->
<g id="edge55" class="edge">
<title>Node9&#45;&gt;Node15</title>
<path fill="none" stroke="midnightblue" d="M1238.85,-526.25C1221.61,-508.77 1186,-467.53 1186,-425 1186,-425 1186,-425 1186,-367 1186,-336.2 1182.28,-325.18 1162,-302 1149.13,-287.29 1130.27,-276.63 1113.57,-269.38"/>
<polygon fill="midnightblue" stroke="midnightblue" points="1114.64,-266.04 1104.06,-265.51 1112,-272.52 1114.64,-266.04"/>
</g>
<!-- Node22 -->
<g id="node22" class="node">
<title>Node22</title>
<g id="a_node22"><a xlink:href="JKRDvdRipper_8h.html" target="_top" xlink:title=" ">
<polygon fill="white" stroke="black" points="1214.5,-358.5 1214.5,-377.5 1379.5,-377.5 1379.5,-358.5 1214.5,-358.5"/>
<text text-anchor="middle" x="1297" y="-365.5" font-family="Helvetica,sans-Serif" font-size="10.00">JSystem/JKernel/JKRDvdRipper.h</text>
</a>
</g>
</g>
<!-- Node9&#45;&gt;Node22 -->
<g id="edge52" class="edge">
<title>Node9&#45;&gt;Node22</title>
<path fill="none" stroke="midnightblue" d="M1250.63,-526.08C1258.35,-499.95 1281,-423.21 1291.52,-387.58"/>
<polygon fill="midnightblue" stroke="midnightblue" points="1295,-388.15 1294.47,-377.57 1288.28,-386.17 1295,-388.15"/>
</g>
<!-- Node10&#45;&gt;Node4 -->
<g id="edge51" class="edge">
<title>Node10&#45;&gt;Node4</title>
<path fill="none" stroke="midnightblue" d="M814.42,-475.19C687.77,-468.85 453.38,-454.74 372,-434 302.38,-416.25 224,-440.84 224,-369 224,-369 224,-369 224,-132 224,-90.04 243.14,-76.05 280,-56 340.41,-23.14 814.04,-13.81 971.96,-11.6"/>
<polygon fill="midnightblue" stroke="midnightblue" points="972.38,-15.1 982.33,-11.46 972.29,-8.1 972.38,-15.1"/>
</g>
<!-- Node10&#45;&gt;Node6 -->
<g id="edge50" class="edge">
<title>Node10&#45;&gt;Node6</title>
<path fill="none" stroke="midnightblue" d="M917.84,-470.47C969.68,-446.94 1108.77,-375.51 1161,-266 1180.16,-225.84 1147.61,-175.86 1127.34,-150.47"/>
<polygon fill="midnightblue" stroke="midnightblue" points="1129.87,-148.03 1120.79,-142.57 1124.48,-152.5 1129.87,-148.03"/>
</g>
<!-- Node11 -->
<g id="node11" class="node">
<title>Node11</title>
<g id="a_node11"><a xlink:href="JKRAramBlock_8h.html" target="_top" xlink:title=" ">
<polygon fill="white" stroke="black" points="381,-414.5 381,-433.5 549,-433.5 549,-414.5 381,-414.5"/>
<text text-anchor="middle" x="465" y="-421.5" font-family="Helvetica,sans-Serif" font-size="10.00">JSystem/JKernel/JKRAramBlock.h</text>
</a>
</g>
</g>
<!-- Node10&#45;&gt;Node11 -->
<g id="edge16" class="edge">
<title>Node10&#45;&gt;Node11</title>
<path fill="none" stroke="midnightblue" d="M829.39,-470.44C751.64,-460.75 625.14,-444.97 543.51,-434.79"/>
<polygon fill="midnightblue" stroke="midnightblue" points="543.65,-431.28 533.29,-433.52 542.78,-438.23 543.65,-431.28"/>
</g>
<!-- Node16 -->
<g id="node16" class="node">
<title>Node16</title>
<g id="a_node16"><a xlink:href="JKRDisposer_8h.html" target="_top" xlink:title=" ">
<polygon fill="white" stroke="black" points="856,-123.5 856,-142.5 1014,-142.5 1014,-123.5 856,-123.5"/>
<text text-anchor="middle" x="935" y="-130.5" font-family="Helvetica,sans-Serif" font-size="10.00">JSystem/JKernel/JKRDisposer.h</text>
</a>
</g>
</g>
<!-- Node10&#45;&gt;Node16 -->
<g id="edge49" class="edge">
<title>Node10&#45;&gt;Node16</title>
<path fill="none" stroke="midnightblue" d="M898,-470.44C898,-451.94 898,-406.81 898,-369 898,-369 898,-369 898,-311 898,-252.03 917.92,-184.3 928.53,-152.41"/>
<polygon fill="midnightblue" stroke="midnightblue" points="931.93,-153.3 931.85,-142.71 925.3,-151.04 931.93,-153.3"/>
</g>
<!-- Node11&#45;&gt;Node3 -->
<g id="edge48" class="edge">
<title>Node11&#45;&gt;Node3</title>
<path fill="none" stroke="midnightblue" d="M457.73,-414.25C431,-380.94 342.32,-259.87 395,-179 431.92,-122.32 506.6,-95.59 563.09,-83.11"/>
<polygon fill="midnightblue" stroke="midnightblue" points="564,-86.5 573.06,-81.02 562.56,-79.65 564,-86.5"/>
</g>
<!-- Node11&#45;&gt;Node4 -->
<g id="edge17" class="edge">
<title>Node11&#45;&gt;Node4</title>
<path fill="none" stroke="midnightblue" d="M396.84,-414.5C337.87,-402.87 262,-375.73 262,-313 262,-313 262,-313 262,-132 262,-67.36 324.45,-75.73 386,-56 494.7,-21.16 840.69,-13.25 971.89,-11.49"/>
<polygon fill="midnightblue" stroke="midnightblue" points="972.11,-14.99 982.07,-11.36 972.03,-7.99 972.11,-14.99"/>
</g>
<!-- Node12 -->
<g id="node12" class="node">
<title>Node12</title>
<g id="a_node12"><a xlink:href="JKRArchive_8h.html" target="_top" xlink:title=" ">
<polygon fill="white" stroke="black" points="484.5,-358.5 484.5,-377.5 637.5,-377.5 637.5,-358.5 484.5,-358.5"/>
<text text-anchor="middle" x="561" y="-365.5" font-family="Helvetica,sans-Serif" font-size="10.00">JSystem/JKernel/JKRArchive.h</text>
</a>
</g>
</g>
<!-- Node11&#45;&gt;Node12 -->
<g id="edge18" class="edge">
<title>Node11&#45;&gt;Node12</title>
<path fill="none" stroke="midnightblue" d="M480.42,-414.32C495.54,-405.82 518.82,-392.73 536.47,-382.8"/>
<polygon fill="midnightblue" stroke="midnightblue" points="538.61,-385.61 545.61,-377.65 535.18,-379.51 538.61,-385.61"/>
</g>
<!-- Node13 -->
<g id="node13" class="node">
<title>Node13</title>
<g id="a_node13"><a xlink:href="JKRCompression_8h.html" target="_top" xlink:title=" ">
<polygon fill="white" stroke="black" points="655.5,-246.5 655.5,-265.5 832.5,-265.5 832.5,-246.5 655.5,-246.5"/>
<text text-anchor="middle" x="744" y="-253.5" font-family="Helvetica,sans-Serif" font-size="10.00">JSystem/JKernel/JKRCompression.h</text>
</a>
</g>
</g>
<!-- Node12&#45;&gt;Node13 -->
<g id="edge19" class="edge">
<title>Node12&#45;&gt;Node13</title>
<path fill="none" stroke="midnightblue" d="M575.36,-358.37C606.9,-339.41 682.44,-294 720.8,-270.94"/>
<polygon fill="midnightblue" stroke="midnightblue" points="722.94,-273.74 729.71,-265.59 719.33,-267.74 722.94,-273.74"/>
</g>
<!-- Node12&#45;&gt;Node14 -->
<g id="edge20" class="edge">
<title>Node12&#45;&gt;Node14</title>
<path fill="none" stroke="midnightblue" d="M631.19,-358.44C710.91,-348.73 840.69,-332.91 924.19,-322.73"/>
<polygon fill="midnightblue" stroke="midnightblue" points="924.63,-326.2 934.13,-321.52 923.78,-319.25 924.63,-326.2"/>
</g>
<!-- Node12&#45;&gt;Node17 -->
<g id="edge45" class="edge">
<title>Node12&#45;&gt;Node17</title>
<path fill="none" stroke="midnightblue" d="M586.3,-358.47C635.64,-341.69 748.03,-302.83 841,-266 888.8,-247.06 943.49,-222.88 975.81,-208.33"/>
<polygon fill="midnightblue" stroke="midnightblue" points="977.42,-211.44 985.09,-204.13 974.53,-205.06 977.42,-211.44"/>
</g>
<!-- Node18 -->
<g id="node18" class="node">
<title>Node18</title>
<g id="a_node18"><a xlink:href="JKRDvdFile_8h.html" target="_top" xlink:title=" ">
<polygon fill="white" stroke="black" points="484.5,-246.5 484.5,-265.5 637.5,-265.5 637.5,-246.5 484.5,-246.5"/>
<text text-anchor="middle" x="561" y="-253.5" font-family="Helvetica,sans-Serif" font-size="10.00">JSystem/JKernel/JKRDvdFile.h</text>
</a>
</g>
</g>
<!-- Node12&#45;&gt;Node18 -->
<g id="edge34" class="edge">
<title>Node12&#45;&gt;Node18</title>
<path fill="none" stroke="midnightblue" d="M561,-358.37C561,-340.62 561,-299.67 561,-275.6"/>
<polygon fill="midnightblue" stroke="midnightblue" points="564.5,-275.59 561,-265.59 557.5,-275.59 564.5,-275.59"/>
</g>
<!-- Node20 -->
<g id="node20" class="node">
<title>Node20</title>
<g id="a_node20"><a xlink:href="JKRFileLoader_8h.html" target="_top" xlink:title=" ">
<polygon fill="white" stroke="black" points="404,-185 404,-204 570,-204 570,-185 404,-185"/>
<text text-anchor="middle" x="487" y="-192" font-family="Helvetica,sans-Serif" font-size="10.00">JSystem/JKernel/JKRFileLoader.h</text>
</a>
</g>
</g>
<!-- Node12&#45;&gt;Node20 -->
<g id="edge41" class="edge">
<title>Node12&#45;&gt;Node20</title>
<path fill="none" stroke="midnightblue" d="M549.5,-358.26C529.74,-342.43 490.03,-306.85 475,-266 468.65,-248.75 473.66,-227.87 479.01,-213.33"/>
<polygon fill="midnightblue" stroke="midnightblue" points="482.28,-214.59 482.81,-204.01 475.8,-211.94 482.28,-214.59"/>
</g>
<!-- Node21 -->
<g id="node21" class="node">
<title>Node21</title>
<g id="a_node21"><a xlink:href="global_8h.html" target="_top" xlink:title=" ">
<polygon fill="white" stroke="black" points="290,-302.5 290,-321.5 340,-321.5 340,-302.5 290,-302.5"/>
<text text-anchor="middle" x="315" y="-309.5" font-family="Helvetica,sans-Serif" font-size="10.00">global.h</text>
</a>
</g>
</g>
<!-- Node12&#45;&gt;Node21 -->
<g id="edge46" class="edge">
<title>Node12&#45;&gt;Node21</title>
<path fill="none" stroke="midnightblue" d="M522.02,-358.44C474.76,-348.07 395.8,-330.74 350.28,-320.74"/>
<polygon fill="midnightblue" stroke="midnightblue" points="350.8,-317.27 340.28,-318.55 349.29,-324.11 350.8,-317.27"/>
</g>
<!-- Node14&#45;&gt;Node4 -->
<g id="edge33" class="edge">
<title>Node14&#45;&gt;Node4</title>
<path fill="none" stroke="midnightblue" d="M987.04,-302.46C943.02,-278.96 829.69,-209.3 847,-123 853.35,-91.36 851.06,-77.64 875,-56 901.58,-31.97 940.65,-20.77 971.98,-15.54"/>
<polygon fill="midnightblue" stroke="midnightblue" points="972.91,-18.94 982.28,-13.99 971.87,-12.02 972.91,-18.94"/>
</g>
<!-- Node14&#45;&gt;Node13 -->
<g id="edge21" class="edge">
<title>Node14&#45;&gt;Node13</title>
<path fill="none" stroke="midnightblue" d="M962.8,-302.44C917.35,-293 844.16,-277.8 795.09,-267.61"/>
<polygon fill="midnightblue" stroke="midnightblue" points="795.51,-264.12 785.01,-265.52 794.08,-270.98 795.51,-264.12"/>
</g>
<!-- Node14&#45;&gt;Node15 -->
<g id="edge22" class="edge">
<title>Node14&#45;&gt;Node15</title>
<path fill="none" stroke="midnightblue" d="M1015.73,-302.32C1026.84,-294.11 1043.74,-281.6 1056.98,-271.81"/>
<polygon fill="midnightblue" stroke="midnightblue" points="1059.1,-274.59 1065.06,-265.83 1054.94,-268.97 1059.1,-274.59"/>
</g>
<!-- Node15&#45;&gt;Node3 -->
<g id="edge30" class="edge">
<title>Node15&#45;&gt;Node3</title>
<path fill="none" stroke="midnightblue" d="M1001.88,-251.94C887.26,-246.55 679.37,-233.62 655,-210 622.93,-178.92 627.34,-120.78 632.21,-91.05"/>
<polygon fill="midnightblue" stroke="midnightblue" points="635.66,-91.63 634.03,-81.16 628.78,-90.36 635.66,-91.63"/>
</g>
<!-- Node15&#45;&gt;Node4 -->
<g id="edge32" class="edge">
<title>Node15&#45;&gt;Node4</title>
<path fill="none" stroke="midnightblue" d="M1152.06,-255.09C1234.94,-253.41 1360.7,-244.95 1391,-210 1400.02,-199.59 1394.35,-192.36 1391,-179 1375.53,-117.34 1371.32,-90.61 1318,-56 1278.71,-30.49 1147.7,-18.57 1074.17,-13.76"/>
<polygon fill="midnightblue" stroke="midnightblue" points="1073.96,-10.24 1063.76,-13.1 1073.52,-17.23 1073.96,-10.24"/>
</g>
<!-- Node15&#45;&gt;Node6 -->
<g id="edge31" class="edge">
<title>Node15&#45;&gt;Node6</title>
<path fill="none" stroke="midnightblue" d="M1088.54,-246.49C1098.48,-238.38 1112.12,-225.18 1118,-210 1125.15,-191.54 1122.23,-168.69 1118.57,-152.89"/>
<polygon fill="midnightblue" stroke="midnightblue" points="1121.84,-151.57 1115.91,-142.8 1115.07,-153.36 1121.84,-151.57"/>
</g>
<!-- Node15&#45;&gt;Node16 -->
<g id="edge23" class="edge">
<title>Node15&#45;&gt;Node16</title>
<path fill="none" stroke="midnightblue" d="M1081.15,-246.48C1087.88,-231.29 1099.01,-199.21 1084,-179 1069.62,-159.64 1047.16,-148.31 1024,-141.76"/>
<polygon fill="midnightblue" stroke="midnightblue" points="1024.6,-138.3 1014.05,-139.24 1022.88,-145.09 1024.6,-138.3"/>
</g>
<!-- Node15&#45;&gt;Node17 -->
<g id="edge26" class="edge">
<title>Node15&#45;&gt;Node17</title>
<path fill="none" stroke="midnightblue" d="M1066.54,-246.48C1055.05,-237.11 1036.37,-221.88 1022.41,-210.51"/>
<polygon fill="midnightblue" stroke="midnightblue" points="1024.4,-207.61 1014.44,-204.01 1019.98,-213.04 1024.4,-207.61"/>
</g>
<!-- Node16&#45;&gt;Node3 -->
<g id="edge24" class="edge">
<title>Node16&#45;&gt;Node3</title>
<path fill="none" stroke="midnightblue" d="M892.16,-123.48C838.54,-112.8 746.72,-94.53 688.81,-83.01"/>
<polygon fill="midnightblue" stroke="midnightblue" points="689.25,-79.53 678.76,-81.01 687.88,-86.39 689.25,-79.53"/>
</g>
<!-- Node16&#45;&gt;Node4 -->
<g id="edge25" class="edge">
<title>Node16&#45;&gt;Node4</title>
<path fill="none" stroke="midnightblue" d="M946.88,-123.4C957.81,-115.03 973.96,-101.49 985,-87 998.78,-68.9 1009.75,-45.03 1016.29,-28.9"/>
<polygon fill="midnightblue" stroke="midnightblue" points="1019.56,-30.16 1019.94,-19.57 1013.04,-27.61 1019.56,-30.16"/>
</g>
<!-- Node17&#45;&gt;Node4 -->
<g id="edge29" class="edge">
<title>Node17&#45;&gt;Node4</title>
<path fill="none" stroke="midnightblue" d="M1008.36,-184.84C1013.05,-174.99 1020.22,-158.3 1023,-143 1030.22,-103.31 1027.51,-55.79 1025.11,-29.97"/>
<polygon fill="midnightblue" stroke="midnightblue" points="1028.57,-29.34 1024.07,-19.75 1021.6,-30.05 1028.57,-29.34"/>
</g>
<!-- Node17&#45;&gt;Node6 -->
<g id="edge28" class="edge">
<title>Node17&#45;&gt;Node6</title>
<path fill="none" stroke="midnightblue" d="M1019.62,-184.98C1037.59,-175.17 1067.32,-158.93 1088.41,-147.42"/>
<polygon fill="midnightblue" stroke="midnightblue" points="1090.31,-150.37 1097.41,-142.51 1086.96,-144.23 1090.31,-150.37"/>
</g>
<!-- Node17&#45;&gt;Node16 -->
<g id="edge27" class="edge">
<title>Node17&#45;&gt;Node16</title>
<path fill="none" stroke="midnightblue" d="M994.11,-184.98C983.35,-175.7 965.93,-160.67 952.78,-149.33"/>
<polygon fill="midnightblue" stroke="midnightblue" points="954.73,-146.39 944.87,-142.51 950.16,-151.69 954.73,-146.39"/>
</g>
<!-- Node18&#45;&gt;Node4 -->
<g id="edge40" class="edge">
<title>Node18&#45;&gt;Node4</title>
<path fill="none" stroke="midnightblue" d="M500.54,-246.43C458.6,-239.1 408.02,-227.02 395,-210 335.84,-132.66 364.81,-128.09 523,-56 602.04,-19.98 861.1,-12.77 971.95,-11.34"/>
<polygon fill="midnightblue" stroke="midnightblue" points="972.24,-14.84 982.2,-11.22 972.16,-7.84 972.24,-14.84"/>
</g>
<!-- Node18&#45;&gt;Node6 -->
<g id="edge39" class="edge">
<title>Node18&#45;&gt;Node6</title>
<path fill="none" stroke="midnightblue" d="M615.94,-246.42C666.38,-238.22 743.06,-224.92 809,-210 860.21,-198.41 872.11,-191.94 923,-179 971.4,-166.69 1027.03,-153.64 1065.52,-144.79"/>
<polygon fill="midnightblue" stroke="midnightblue" points="1066.45,-148.16 1075.42,-142.52 1064.89,-141.34 1066.45,-148.16"/>
</g>
<!-- Node18&#45;&gt;Node8 -->
<g id="edge38" class="edge">
<title>Node18&#45;&gt;Node8</title>
<path fill="none" stroke="midnightblue" d="M569.64,-246.43C585.43,-231.16 620.49,-198.97 655,-179 733.01,-133.85 833.77,-100.43 889.11,-83.96"/>
<polygon fill="midnightblue" stroke="midnightblue" points="890.29,-87.27 898.89,-81.09 888.31,-80.55 890.29,-87.27"/>
</g>
<!-- Node19 -->
<g id="node19" class="node">
<title>Node19</title>
<g id="a_node19"><a xlink:href="JKRFile_8h.html" target="_top" xlink:title=" ">
<polygon fill="white" stroke="black" points="664,-185 664,-204 800,-204 800,-185 664,-185"/>
<text text-anchor="middle" x="732" y="-192" font-family="Helvetica,sans-Serif" font-size="10.00">JSystem/JKernel/JKRFile.h</text>
</a>
</g>
</g>
<!-- Node18&#45;&gt;Node19 -->
<g id="edge35" class="edge">
<title>Node18&#45;&gt;Node19</title>
<path fill="none" stroke="midnightblue" d="M585.5,-246.48C614.96,-236.22 664.58,-218.96 697.8,-207.4"/>
<polygon fill="midnightblue" stroke="midnightblue" points="699.25,-210.6 707.55,-204.01 696.95,-203.99 699.25,-210.6"/>
</g>
<!-- Node19&#45;&gt;Node4 -->
<g id="edge37" class="edge">
<title>Node19&#45;&gt;Node4</title>
<path fill="none" stroke="midnightblue" d="M734.5,-184.72C742.02,-160.08 766.81,-89.87 814,-56 860.44,-22.67 926.64,-13.15 972.02,-10.86"/>
<polygon fill="midnightblue" stroke="midnightblue" points="972.38,-14.35 982.23,-10.45 972.09,-7.36 972.38,-14.35"/>
</g>
<!-- Node19&#45;&gt;Node16 -->
<g id="edge36" class="edge">
<title>Node19&#45;&gt;Node16</title>
<path fill="none" stroke="midnightblue" d="M761.08,-184.98C796.58,-174.57 856.75,-156.94 896.17,-145.38"/>
<polygon fill="midnightblue" stroke="midnightblue" points="897.36,-148.68 905.97,-142.51 895.39,-141.96 897.36,-148.68"/>
</g>
<!-- Node20&#45;&gt;Node3 -->
<g id="edge43" class="edge">
<title>Node20&#45;&gt;Node3</title>
<path fill="none" stroke="midnightblue" d="M497.72,-184.8C522.84,-164.39 585.82,-113.25 617.37,-87.63"/>
<polygon fill="midnightblue" stroke="midnightblue" points="619.83,-90.14 625.38,-81.12 615.41,-84.71 619.83,-90.14"/>
</g>
<!-- Node20&#45;&gt;Node4 -->
<g id="edge44" class="edge">
<title>Node20&#45;&gt;Node4</title>
<path fill="none" stroke="midnightblue" d="M488.34,-184.85C492.7,-159.93 508.96,-87.75 555,-56 588.76,-32.72 857.95,-18.26 972.11,-13.12"/>
<polygon fill="midnightblue" stroke="midnightblue" points="972.5,-16.6 982.34,-12.66 972.19,-9.61 972.5,-16.6"/>
</g>
<!-- Node20&#45;&gt;Node16 -->
<g id="edge42" class="edge">
<title>Node20&#45;&gt;Node16</title>
<path fill="none" stroke="midnightblue" d="M551.19,-184.98C633.11,-174.09 774.53,-155.31 860.93,-143.84"/>
<polygon fill="midnightblue" stroke="midnightblue" points="861.48,-147.3 870.93,-142.51 860.56,-140.36 861.48,-147.3"/>
</g>
<!-- Node21&#45;&gt;Node4 -->
<g id="edge47" class="edge">
<title>Node21&#45;&gt;Node4</title>
<path fill="none" stroke="midnightblue" d="M313.94,-302.31C311.65,-280.67 307.68,-222.92 324,-179 351.82,-104.14 380.32,-84.3 455,-56 548.93,-20.41 851.28,-12.97 972.26,-11.41"/>
<polygon fill="midnightblue" stroke="midnightblue" points="972.41,-14.91 982.37,-11.29 972.33,-7.91 972.41,-14.91"/>
</g>
<!-- Node22&#45;&gt;Node4 -->
<g id="edge54" class="edge">
<title>Node22&#45;&gt;Node4</title>
<path fill="none" stroke="midnightblue" d="M1366.2,-358.47C1416.18,-351.05 1478.23,-338.84 1498,-322 1521.69,-301.83 1524,-288.11 1524,-257 1524,-257 1524,-257 1524,-132 1524,-40.07 1201.25,-17.76 1073.84,-12.54"/>
<polygon fill="midnightblue" stroke="midnightblue" points="1073.7,-9.03 1063.57,-12.14 1073.43,-16.02 1073.7,-9.03"/>
</g>
<!-- Node22&#45;&gt;Node14 -->
<g id="edge53" class="edge">
<title>Node22&#45;&gt;Node14</title>
<path fill="none" stroke="midnightblue" d="M1250.57,-358.44C1198.92,-348.92 1115.49,-333.55 1060.19,-323.36"/>
<polygon fill="midnightblue" stroke="midnightblue" points="1060.68,-319.89 1050.21,-321.52 1059.41,-326.77 1060.68,-319.89"/>
</g>
<!-- Node23&#45;&gt;Node4 -->
<g id="edge75" class="edge">
<title>Node23&#45;&gt;Node4</title>
<path fill="none" stroke="midnightblue" d="M1413.86,-302.25C1417.56,-293.33 1422.89,-279.01 1425,-266 1426.42,-257.23 1425.59,-254.87 1425,-246 1418.95,-155.58 1427.12,-105.18 1351,-56 1306.3,-27.12 1154.63,-16.47 1074.15,-12.8"/>
<polygon fill="midnightblue" stroke="midnightblue" points="1073.9,-9.28 1063.75,-12.34 1073.59,-16.27 1073.9,-9.28"/>
</g>
<!-- Node23&#45;&gt;Node6 -->
<g id="edge74" class="edge">
<title>Node23&#45;&gt;Node6</title>
<path fill="none" stroke="midnightblue" d="M1393.95,-302.31C1363.03,-285.42 1293.27,-246.59 1237,-210 1217.25,-197.16 1213.89,-191.63 1194,-179 1175.95,-167.54 1154.81,-155.85 1138.65,-147.25"/>
<polygon fill="midnightblue" stroke="midnightblue" points="1140.25,-144.14 1129.78,-142.58 1136.99,-150.34 1140.25,-144.14"/>
</g>
<!-- Node23&#45;&gt;Node7 -->
<g id="edge67" class="edge">
<title>Node23&#45;&gt;Node7</title>
<path fill="none" stroke="midnightblue" d="M1410.77,-302.21C1412.89,-271.98 1415.42,-171.44 1361,-123 1343.13,-107.09 1319.64,-95.9 1297.67,-88.17"/>
<polygon fill="midnightblue" stroke="midnightblue" points="1298.64,-84.8 1288.04,-84.96 1296.42,-91.44 1298.64,-84.8"/>
</g>
<!-- Node23&#45;&gt;Node15 -->
<g id="edge59" class="edge">
<title>Node23&#45;&gt;Node15</title>
<path fill="none" stroke="midnightblue" d="M1357.24,-302.44C1298.17,-292.87 1202.53,-277.36 1139.69,-267.17"/>
<polygon fill="midnightblue" stroke="midnightblue" points="1139.95,-263.66 1129.52,-265.52 1138.83,-270.57 1139.95,-263.66"/>
</g>
<!-- Node24 -->
<g id="node24" class="node">
<title>Node24</title>
<g id="a_node24"><a xlink:href="JUTGamePad_8h.html" target="_top" xlink:title=" ">
<polygon fill="white" stroke="black" points="1246,-179.5 1246,-209.5 1382,-209.5 1382,-179.5 1246,-179.5"/>
<text text-anchor="start" x="1254" y="-197.5" font-family="Helvetica,sans-Serif" font-size="10.00">JSystem/JUtility/JUTGame</text>
<text text-anchor="middle" x="1314" y="-186.5" font-family="Helvetica,sans-Serif" font-size="10.00">Pad.h</text>
</a>
</g>
</g>
<!-- Node23&#45;&gt;Node24 -->
<g id="edge60" class="edge">
<title>Node23&#45;&gt;Node24</title>
<path fill="none" stroke="midnightblue" d="M1402.78,-302.32C1387.91,-284.42 1353.45,-242.97 1332.1,-217.28"/>
<polygon fill="midnightblue" stroke="midnightblue" points="1334.76,-215 1325.67,-209.55 1329.37,-219.47 1334.76,-215"/>
</g>
<!-- Node26 -->
<g id="node26" class="node">
<title>Node26</title>
<g id="a_node26"><a xlink:href="GX_8h.html" target="_top" xlink:title=" ">
<polygon fill="white" stroke="black" points="1621.5,-123.5 1621.5,-142.5 1706.5,-142.5 1706.5,-123.5 1621.5,-123.5"/>
<text text-anchor="middle" x="1664" y="-130.5" font-family="Helvetica,sans-Serif" font-size="10.00">dolphin/gx/GX.h</text>
</a>
</g>
</g>
<!-- Node23&#45;&gt;Node26 -->
<g id="edge68" class="edge">
<title>Node23&#45;&gt;Node26</title>
<path fill="none" stroke="midnightblue" d="M1422.25,-302.46C1462.73,-274.26 1592.49,-183.83 1643.31,-148.42"/>
<polygon fill="midnightblue" stroke="midnightblue" points="1645.37,-151.25 1651.57,-142.66 1641.37,-145.5 1645.37,-151.25"/>
</g>
<!-- Node24&#45;&gt;Node3 -->
<g id="edge62" class="edge">
<title>Node24&#45;&gt;Node3</title>
<path fill="none" stroke="midnightblue" d="M1284.24,-179.34C1241.22,-158.88 1166.57,-123.43 1165,-123 1083.05,-100.45 845.01,-84.2 718.04,-76.86"/>
<polygon fill="midnightblue" stroke="midnightblue" points="718.16,-73.36 707.97,-76.29 717.76,-80.35 718.16,-73.36"/>
</g>
<!-- Node24&#45;&gt;Node4 -->
<g id="edge66" class="edge">
<title>Node24&#45;&gt;Node4</title>
<path fill="none" stroke="midnightblue" d="M1291.65,-179.48C1237.42,-145.48 1099.38,-58.9 1045.26,-24.96"/>
<polygon fill="midnightblue" stroke="midnightblue" points="1047.07,-21.96 1036.74,-19.62 1043.35,-27.89 1047.07,-21.96"/>
</g>
<!-- Node24&#45;&gt;Node6 -->
<g id="edge63" class="edge">
<title>Node24&#45;&gt;Node6</title>
<path fill="none" stroke="midnightblue" d="M1266.62,-179.47C1231.49,-169.08 1184.21,-155.08 1151.42,-145.37"/>
<polygon fill="midnightblue" stroke="midnightblue" points="1152.32,-141.99 1141.74,-142.51 1150.33,-148.7 1152.32,-141.99"/>
</g>
<!-- Node24&#45;&gt;Node16 -->
<g id="edge61" class="edge">
<title>Node24&#45;&gt;Node16</title>
<path fill="none" stroke="midnightblue" d="M1245.8,-182.79C1175.87,-171.81 1067.91,-154.87 999.39,-144.11"/>
<polygon fill="midnightblue" stroke="midnightblue" points="999.58,-140.6 989.16,-142.5 998.5,-147.51 999.58,-140.6"/>
</g>
<!-- Node25 -->
<g id="node25" class="node">
<title>Node25</title>
<g id="a_node25"><a xlink:href="Pad_8h.html" target="_top" xlink:title=" ">
<polygon fill="white" stroke="black" points="1258,-123.5 1258,-142.5 1352,-142.5 1352,-123.5 1258,-123.5"/>
<text text-anchor="middle" x="1305" y="-130.5" font-family="Helvetica,sans-Serif" font-size="10.00">dolphin/pad/Pad.h</text>
</a>
</g>
</g>
<!-- Node24&#45;&gt;Node25 -->
<g id="edge64" class="edge">
<title>Node24&#45;&gt;Node25</title>
<path fill="none" stroke="midnightblue" d="M1311.87,-179.4C1310.65,-171.38 1309.12,-161.23 1307.81,-152.57"/>
<polygon fill="midnightblue" stroke="midnightblue" points="1311.27,-152.02 1306.31,-142.66 1304.34,-153.07 1311.27,-152.02"/>
</g>
<!-- Node25&#45;&gt;Node4 -->
<g id="edge65" class="edge">
<title>Node25&#45;&gt;Node4</title>
<path fill="none" stroke="midnightblue" d="M1307.08,-123.35C1310.29,-107.66 1314.39,-74.43 1297,-56 1267.28,-24.51 1144.32,-15.05 1073.63,-12.22"/>
<polygon fill="midnightblue" stroke="midnightblue" points="1073.72,-8.72 1063.6,-11.84 1073.46,-15.71 1073.72,-8.72"/>
</g>
<!-- Node26&#45;&gt;Node4 -->
<g id="edge73" class="edge">
<title>Node26&#45;&gt;Node4</title>
<path fill="none" stroke="midnightblue" d="M1655.33,-123.25C1636.99,-104.96 1594.43,-63.72 1576,-56 1486.2,-18.38 1193.41,-12.11 1074.19,-11.14"/>
<polygon fill="midnightblue" stroke="midnightblue" points="1073.91,-7.64 1063.89,-11.07 1073.86,-14.64 1073.91,-7.64"/>
</g>
<!-- Node27 -->
<g id="node27" class="node">
<title>Node27</title>
<g id="a_node27"><a xlink:href="GXDisplayList_8h.html" target="_top" xlink:title=" ">
<polygon fill="white" stroke="black" points="1628.5,-62 1628.5,-81 1761.5,-81 1761.5,-62 1628.5,-62"/>
<text text-anchor="middle" x="1695" y="-69" font-family="Helvetica,sans-Serif" font-size="10.00">dolphin/gx/GXDisplayList.h</text>
</a>
</g>
</g>
<!-- Node26&#45;&gt;Node27 -->
<g id="edge69" class="edge">
<title>Node26&#45;&gt;Node27</title>
<path fill="none" stroke="midnightblue" d="M1668.44,-123.48C1672.95,-114.82 1680.07,-101.15 1685.81,-90.15"/>
<polygon fill="midnightblue" stroke="midnightblue" points="1689.05,-91.49 1690.57,-81.01 1682.84,-88.26 1689.05,-91.49"/>
</g>
<!-- Node28 -->
<g id="node28" class="node">
<title>Node28</title>
<g id="a_node28"><a xlink:href="GXTexture_8h.html" target="_top" xlink:title=" ">
<polygon fill="white" stroke="black" points="1779.5,-62 1779.5,-81 1896.5,-81 1896.5,-62 1779.5,-62"/>
<text text-anchor="middle" x="1838" y="-69" font-family="Helvetica,sans-Serif" font-size="10.00">dolphin/gx/GXTexture.h</text>
</a>
</g>
</g>
<!-- Node26&#45;&gt;Node28 -->
<g id="edge71" class="edge">
<title>Node26&#45;&gt;Node28</title>
<path fill="none" stroke="midnightblue" d="M1688.93,-123.48C1719.04,-113.18 1769.83,-95.81 1803.64,-84.25"/>
<polygon fill="midnightblue" stroke="midnightblue" points="1804.79,-87.56 1813.12,-81.01 1802.52,-80.93 1804.79,-87.56"/>
</g>
<!-- Node27&#45;&gt;Node4 -->
<g id="edge70" class="edge">
<title>Node27&#45;&gt;Node4</title>
<path fill="none" stroke="midnightblue" d="M1651.83,-61.94C1639.63,-59.75 1626.33,-57.57 1614,-56 1414.9,-30.66 1176.11,-17.81 1073.69,-13.13"/>
<polygon fill="midnightblue" stroke="midnightblue" points="1073.77,-9.63 1063.63,-12.68 1073.46,-16.62 1073.77,-9.63"/>
</g>
<!-- Node28&#45;&gt;Node4 -->
<g id="edge72" class="edge">
<title>Node28&#45;&gt;Node4</title>
<path fill="none" stroke="midnightblue" d="M1803.41,-61.96C1793.04,-59.68 1781.61,-57.46 1771,-56 1510.51,-20.19 1195.11,-12.88 1073.86,-11.38"/>
<polygon fill="midnightblue" stroke="midnightblue" points="1073.8,-7.88 1063.76,-11.27 1073.71,-14.88 1073.8,-7.88"/>
</g>
<!-- Node30&#45;&gt;Node4 -->
<g id="edge78" class="edge">
<title>Node30&#45;&gt;Node4</title>
<path fill="none" stroke="midnightblue" d="M1780.52,-472.35C1839.98,-461.84 1925,-435.23 1925,-369 1925,-369 1925,-369 1925,-132 1925,-97.18 1932.89,-78.12 1906,-56 1873.71,-29.44 1256.69,-15.49 1073.72,-11.93"/>
<polygon fill="midnightblue" stroke="midnightblue" points="1073.63,-8.43 1063.56,-11.73 1073.49,-15.43 1073.63,-8.43"/>
</g>
</g>
</svg>
        <g id="navigator" transform="translate(0 0)" fill="#404254">
                <rect fill="#f2f5e9" fill-opacity="0.5" stroke="#606060" stroke-width=".5" x="0" y="0" width="60" height="60"/>
                <use id="zoomplus" xlink:href="#zoomPlus" x="17" y="9" onmousedown="handleZoom(evt,'in')"/>
                <use id="zoomminus" xlink:href="#zoomMin" x="42" y="9" onmousedown="handleZoom(evt,'out')"/>
                <use id="reset" xlink:href="#resetDef" x="30" y="36" onmousedown="handleReset()"/>
                <g id="arrowUp" xlink:href="#dirArrow" transform="translate(30 24)" onmousedown="handlePan(0,-1)">
                  <use xlink:href="#rim" fill="#404040">
                        <set attributeName="fill" to="#808080" begin="arrowUp.mouseover" end="arrowUp.mouseout"/>
                  </use>
                  <path fill="none" stroke="white" stroke-width="1.5" d="M0,-3.0v7 M-2.5,-0.5L0,-3.0L2.5,-0.5"/>
                </g>
                <g id="arrowRight" xlink:href="#dirArrow" transform="rotate(90) translate(36 -43)" onmousedown="handlePan(1,0)">
                  <use xlink:href="#rim" fill="#404040">
                        <set attributeName="fill" to="#808080" begin="arrowRight.mouseover" end="arrowRight.mouseout"/>
                  </use>
                  <path fill="none" stroke="white" stroke-width="1.5" d="M0,-3.0v7 M-2.5,-0.5L0,-3.0L2.5,-0.5"/>
                </g>
                <g id="arrowDown" xlink:href="#dirArrow" transform="rotate(180) translate(-30 -48)" onmousedown="handlePan(0,1)">
                  <use xlink:href="#rim" fill="#404040">
                        <set attributeName="fill" to="#808080" begin="arrowDown.mouseover" end="arrowDown.mouseout"/>
                  </use>
                  <path fill="none" stroke="white" stroke-width="1.5" d="M0,-3.0v7 M-2.5,-0.5L0,-3.0L2.5,-0.5"/>
                </g>
                <g id="arrowLeft" xlink:href="#dirArrow" transform="rotate(270) translate(-36 17)" onmousedown="handlePan(-1,0)">
                  <use xlink:href="#rim" fill="#404040">
                        <set attributeName="fill" to="#808080" begin="arrowLeft.mouseover" end="arrowLeft.mouseout"/>
                  </use>
                  <path fill="none" stroke="white" stroke-width="1.5" d="M0,-3.0v7 M-2.5,-0.5L0,-3.0L2.5,-0.5"/>
                </g>
        </g>
        <svg viewBox="0 0 15 15" width="100%" height="30px" preserveAspectRatio="xMaxYMin meet">
         <g id="arrow_out" transform="scale(0.3 0.3)">
          <a xlink:href="JKRAramPiece_8cpp__incl_org.svg" target="_base">
           <rect id="button" ry="5" rx="5" y="6" x="6" height="38" width="38"
                fill="#f2f5e9" fill-opacity="0.5" stroke="#606060" stroke-width="1.0"/>
           <path id="arrow"
             d="M 11.500037,31.436501 C 11.940474,20.09759 22.043105,11.32322 32.158766,21.979434 L 37.068811,17.246167 C 37.068811,17.246167 37.088388,32 37.088388,32 L 22.160133,31.978069 C 22.160133,31.978069 26.997745,27.140456 26.997745,27.140456 C 18.528582,18.264221 13.291696,25.230495 11.500037,31.436501 z"
             style="fill:#404040;"/>
          </a>
         </g>
        </svg>
</svg>
