<?xml version="1.0" encoding="UTF-8" standalone="no"?>
<!DOCTYPE svg PUBLIC "-//W3C//DTD SVG 1.1//EN"
 "http://www.w3.org/Graphics/SVG/1.1/DTD/svg11.dtd">
<!-- Generated by graphviz version 2.44.0 ()
 -->
<!-- Title: include/JSystem/JKernel/JKRAramArchive.h Pages: 1 -->
<!--zoomable 487 -->
<svg id="main" version="1.1" xmlns="http://www.w3.org/2000/svg" xmlns:xlink="http://www.w3.org/1999/xlink" xml:space="preserve" onload="init(evt)">
<style type="text/css"><![CDATA[
.edge:hover path { stroke: red; }
.edge:hover polygon { stroke: red; fill: red; }
]]></style>
<script type="text/javascript"><![CDATA[
var edges = document.getElementsByTagName('g');
if (edges && edges.length) {
  for (var i=0;i<edges.length;i++) {
    if (edges[i].id.substr(0,4)=='edge') {
      edges[i].setAttribute('class','edge');
    }
  }
}
]]></script>
        <defs>
                <circle id="rim" cx="0" cy="0" r="7"/>
                <circle id="rim2" cx="0" cy="0" r="3.5"/>
                <g id="zoomPlus">
                        <use xlink:href="#rim" fill="#404040">
                                <set attributeName="fill" to="#808080" begin="zoomplus.mouseover" end="zoomplus.mouseout"/>
                        </use>
                        <path d="M-4,0h8M0,-4v8" fill="none" stroke="white" stroke-width="1.5" pointer-events="none"/>
                </g>
                <g id="zoomMin">
                        <use xlink:href="#rim" fill="#404040">
                                <set attributeName="fill" to="#808080" begin="zoomminus.mouseover" end="zoomminus.mouseout"/>
                        </use>
                        <path d="M-4,0h8" fill="none" stroke="white" stroke-width="1.5" pointer-events="none"/>
                </g>
                <g id="dirArrow">
                        <path fill="none" stroke="white" stroke-width="1.5" d="M0,-3.0v7 M-2.5,-0.5L0,-3.0L2.5,-0.5"/>
                </g>
               <g id="resetDef">
                       <use xlink:href="#rim2" fill="#404040">
                               <set attributeName="fill" to="#808080" begin="reset.mouseover" end="reset.mouseout"/>
                       </use>
               </g>
        </defs>

<script type="text/javascript">
var viewWidth = 926;
var viewHeight = 487;
var sectionId = 'dynsection-0';
</script>
<script xlink:href="svgpan.js"/>
<svg id="graph" class="graph">
<g id="viewport">
<title>include/JSystem/JKernel/JKRAramArchive.h</title>
<polygon fill="white" stroke="transparent" points="-4,4 -4,-483 922,-483 922,4 -4,4"/>
<!-- Node1 -->
<g id="node1" class="node">
<title>Node1</title>
<g id="a_node1"><a xlink:title=" ">
<polygon fill="#bfbfbf" stroke="black" points="353.5,-448.5 353.5,-478.5 478.5,-478.5 478.5,-448.5 353.5,-448.5"/>
<text text-anchor="start" x="361.5" y="-466.5" font-family="Helvetica,sans-Serif" font-size="10.00">include/JSystem/JKernel</text>
<text text-anchor="middle" x="416" y="-455.5" font-family="Helvetica,sans-Serif" font-size="10.00">/JKRAramArchive.h</text>
</a>
</g>
</g>
<!-- Node2 -->
<g id="node2" class="node">
<title>Node2</title>
<g id="a_node2"><a xlink:href="JKRAramBlock_8h.html" target="_top" xlink:title=" ">
<polygon fill="white" stroke="black" points="627,-392.5 627,-411.5 795,-411.5 795,-392.5 627,-392.5"/>
<text text-anchor="middle" x="711" y="-399.5" font-family="Helvetica,sans-Serif" font-size="10.00">JSystem/JKernel/JKRAramBlock.h</text>
</a>
</g>
</g>
<!-- Node1&#45;&gt;Node2 -->
<g id="edge1" class="edge">
<title>Node1&#45;&gt;Node2</title>
<path fill="none" stroke="midnightblue" d="M478.56,-449.88C532.04,-439.09 608.12,-423.75 658.49,-413.59"/>
<polygon fill="midnightblue" stroke="midnightblue" points="659.41,-416.98 668.52,-411.57 658.02,-410.11 659.41,-416.98"/>
</g>
<!-- Node3 -->
<g id="node3" class="node">
<title>Node3</title>
<g id="a_node3"><a xlink:href="types_8h.html" target="_top" xlink:title=" ">
<polygon fill="white" stroke="black" points="327.5,-0.5 327.5,-19.5 408.5,-19.5 408.5,-0.5 327.5,-0.5"/>
<text text-anchor="middle" x="368" y="-7.5" font-family="Helvetica,sans-Serif" font-size="10.00">dolphin/types.h</text>
</a>
</g>
</g>
<!-- Node1&#45;&gt;Node3 -->
<g id="edge39" class="edge">
<title>Node1&#45;&gt;Node3</title>
<path fill="none" stroke="midnightblue" d="M353.27,-458.14C237.06,-448.32 0,-419.42 0,-347 0,-347 0,-347 0,-121 0,-74.49 39.41,-74.67 82,-56 159.3,-22.11 258.24,-13.32 317.18,-11.28"/>
<polygon fill="midnightblue" stroke="midnightblue" points="317.46,-14.77 327.35,-10.98 317.25,-7.78 317.46,-14.77"/>
</g>
<!-- Node4 -->
<g id="node4" class="node">
<title>Node4</title>
<g id="a_node4"><a xlink:href="JKRArchive_8h.html" target="_top" xlink:title=" ">
<polygon fill="white" stroke="black" points="339.5,-336.5 339.5,-355.5 492.5,-355.5 492.5,-336.5 339.5,-336.5"/>
<text text-anchor="middle" x="416" y="-343.5" font-family="Helvetica,sans-Serif" font-size="10.00">JSystem/JKernel/JKRArchive.h</text>
</a>
</g>
</g>
<!-- Node1&#45;&gt;Node4 -->
<g id="edge38" class="edge">
<title>Node1&#45;&gt;Node4</title>
<path fill="none" stroke="midnightblue" d="M416,-448.34C416,-427.62 416,-389.02 416,-365.9"/>
<polygon fill="midnightblue" stroke="midnightblue" points="419.5,-365.67 416,-355.67 412.5,-365.67 419.5,-365.67"/>
</g>
<!-- Node2&#45;&gt;Node3 -->
<g id="edge2" class="edge">
<title>Node2&#45;&gt;Node3</title>
<path fill="none" stroke="midnightblue" d="M782.82,-392.49C842.6,-380.92 918,-353.88 918,-291 918,-291 918,-291 918,-121 918,-19.81 555.49,-10.42 419.08,-10.47"/>
<polygon fill="midnightblue" stroke="midnightblue" points="418.88,-6.97 408.89,-10.49 418.9,-13.97 418.88,-6.97"/>
</g>
<!-- Node2&#45;&gt;Node4 -->
<g id="edge3" class="edge">
<title>Node2&#45;&gt;Node4</title>
<path fill="none" stroke="midnightblue" d="M664.26,-392.44C612.25,-382.92 528.25,-367.55 472.58,-357.36"/>
<polygon fill="midnightblue" stroke="midnightblue" points="472.99,-353.87 462.52,-355.52 471.73,-360.76 472.99,-353.87"/>
</g>
<!-- Node9 -->
<g id="node9" class="node">
<title>Node9</title>
<g id="a_node9"><a xlink:href="JSUList_8h.html" target="_top" xlink:title=" ">
<polygon fill="white" stroke="black" points="577.5,-56.5 577.5,-75.5 720.5,-75.5 720.5,-56.5 577.5,-56.5"/>
<text text-anchor="middle" x="649" y="-63.5" font-family="Helvetica,sans-Serif" font-size="10.00">JSystem/JSupport/JSUList.h</text>
</a>
</g>
</g>
<!-- Node2&#45;&gt;Node9 -->
<g id="edge37" class="edge">
<title>Node2&#45;&gt;Node9</title>
<path fill="none" stroke="midnightblue" d="M754.52,-392.47C804.6,-379.83 880,-350.86 880,-291 880,-291 880,-291 880,-233 880,-143.51 764.27,-97.54 696.64,-78.32"/>
<polygon fill="midnightblue" stroke="midnightblue" points="697.2,-74.84 686.63,-75.56 695.34,-81.59 697.2,-74.84"/>
</g>
<!-- Node5 -->
<g id="node5" class="node">
<title>Node5</title>
<g id="a_node5"><a xlink:href="JKRCompression_8h.html" target="_top" xlink:title=" ">
<polygon fill="white" stroke="black" points="327.5,-224.5 327.5,-243.5 504.5,-243.5 504.5,-224.5 327.5,-224.5"/>
<text text-anchor="middle" x="416" y="-231.5" font-family="Helvetica,sans-Serif" font-size="10.00">JSystem/JKernel/JKRCompression.h</text>
</a>
</g>
</g>
<!-- Node4&#45;&gt;Node5 -->
<g id="edge4" class="edge">
<title>Node4&#45;&gt;Node5</title>
<path fill="none" stroke="midnightblue" d="M416,-336.37C416,-318.62 416,-277.67 416,-253.6"/>
<polygon fill="midnightblue" stroke="midnightblue" points="419.5,-253.59 416,-243.59 412.5,-253.59 419.5,-253.59"/>
</g>
<!-- Node6 -->
<g id="node6" class="node">
<title>Node6</title>
<g id="a_node6"><a xlink:href="JKRDecomp_8h.html" target="_top" xlink:title=" ">
<polygon fill="white" stroke="black" points="482,-280.5 482,-299.5 638,-299.5 638,-280.5 482,-280.5"/>
<text text-anchor="middle" x="560" y="-287.5" font-family="Helvetica,sans-Serif" font-size="10.00">JSystem/JKernel/JKRDecomp.h</text>
</a>
</g>
</g>
<!-- Node4&#45;&gt;Node6 -->
<g id="edge5" class="edge">
<title>Node4&#45;&gt;Node6</title>
<path fill="none" stroke="midnightblue" d="M438.82,-336.44C462.83,-327.44 500.83,-313.19 527.87,-303.05"/>
<polygon fill="midnightblue" stroke="midnightblue" points="529.16,-306.3 537.29,-299.52 526.7,-299.75 529.16,-306.3"/>
</g>
<!-- Node10 -->
<g id="node10" class="node">
<title>Node10</title>
<g id="a_node10"><a xlink:href="JKRHeap_8h.html" target="_top" xlink:title=" ">
<polygon fill="white" stroke="black" points="372.5,-168.5 372.5,-187.5 515.5,-187.5 515.5,-168.5 372.5,-168.5"/>
<text text-anchor="middle" x="444" y="-175.5" font-family="Helvetica,sans-Serif" font-size="10.00">JSystem/JKernel/JKRHeap.h</text>
</a>
</g>
</g>
<!-- Node4&#45;&gt;Node10 -->
<g id="edge34" class="edge">
<title>Node4&#45;&gt;Node10</title>
<path fill="none" stroke="midnightblue" d="M399.66,-336.49C364.66,-317.13 288.04,-268.05 319,-224 330.46,-207.7 348.42,-197.27 367.19,-190.61"/>
<polygon fill="midnightblue" stroke="midnightblue" points="368.29,-193.94 376.75,-187.55 366.16,-187.27 368.29,-193.94"/>
</g>
<!-- Node13 -->
<g id="node13" class="node">
<title>Node13</title>
<g id="a_node13"><a xlink:href="JKRDvdFile_8h.html" target="_top" xlink:title=" ">
<polygon fill="white" stroke="black" points="118.5,-224.5 118.5,-243.5 271.5,-243.5 271.5,-224.5 118.5,-224.5"/>
<text text-anchor="middle" x="195" y="-231.5" font-family="Helvetica,sans-Serif" font-size="10.00">JSystem/JKernel/JKRDvdFile.h</text>
</a>
</g>
</g>
<!-- Node4&#45;&gt;Node13 -->
<g id="edge23" class="edge">
<title>Node4&#45;&gt;Node13</title>
<path fill="none" stroke="midnightblue" d="M383.15,-336.47C356.21,-328.81 317.51,-316.28 286,-300 258.72,-285.91 230.42,-264.43 212.77,-250.06"/>
<polygon fill="midnightblue" stroke="midnightblue" points="214.95,-247.32 205.01,-243.64 210.49,-252.71 214.95,-247.32"/>
</g>
<!-- Node15 -->
<g id="node15" class="node">
<title>Node15</title>
<g id="a_node15"><a xlink:href="JKRFileLoader_8h.html" target="_top" xlink:title=" ">
<polygon fill="white" stroke="black" points="648,-168.5 648,-187.5 814,-187.5 814,-168.5 648,-168.5"/>
<text text-anchor="middle" x="731" y="-175.5" font-family="Helvetica,sans-Serif" font-size="10.00">JSystem/JKernel/JKRFileLoader.h</text>
</a>
</g>
</g>
<!-- Node4&#45;&gt;Node15 -->
<g id="edge30" class="edge">
<title>Node4&#45;&gt;Node15</title>
<path fill="none" stroke="midnightblue" d="M491.71,-336.48C548.92,-328.9 621.77,-316.47 647,-300 685.95,-274.58 711.95,-224.22 723.74,-197.17"/>
<polygon fill="midnightblue" stroke="midnightblue" points="727.06,-198.33 727.69,-187.75 720.6,-195.62 727.06,-198.33"/>
</g>
<!-- Node16 -->
<g id="node16" class="node">
<title>Node16</title>
<g id="a_node16"><a xlink:href="global_8h.html" target="_top" xlink:title=" ">
<polygon fill="white" stroke="black" points="81,-280.5 81,-299.5 131,-299.5 131,-280.5 81,-280.5"/>
<text text-anchor="middle" x="106" y="-287.5" font-family="Helvetica,sans-Serif" font-size="10.00">global.h</text>
</a>
</g>
</g>
<!-- Node4&#45;&gt;Node16 -->
<g id="edge35" class="edge">
<title>Node4&#45;&gt;Node16</title>
<path fill="none" stroke="midnightblue" d="M366.88,-336.44C304.01,-325.49 196.61,-306.78 141.27,-297.14"/>
<polygon fill="midnightblue" stroke="midnightblue" points="141.7,-293.67 131.25,-295.4 140.5,-300.56 141.7,-293.67"/>
</g>
<!-- Node6&#45;&gt;Node3 -->
<g id="edge22" class="edge">
<title>Node6&#45;&gt;Node3</title>
<path fill="none" stroke="midnightblue" d="M638.19,-284.84C724.27,-276.18 847.52,-249.59 823,-168 805.83,-110.86 799.79,-87.3 749,-56 694.81,-22.61 509.15,-13.99 418.55,-11.77"/>
<polygon fill="midnightblue" stroke="midnightblue" points="418.59,-8.27 408.51,-11.54 418.43,-15.27 418.59,-8.27"/>
</g>
<!-- Node6&#45;&gt;Node5 -->
<g id="edge6" class="edge">
<title>Node6&#45;&gt;Node5</title>
<path fill="none" stroke="midnightblue" d="M537.18,-280.44C513.17,-271.44 475.17,-257.19 448.13,-247.05"/>
<polygon fill="midnightblue" stroke="midnightblue" points="449.3,-243.75 438.71,-243.52 446.84,-250.3 449.3,-243.75"/>
</g>
<!-- Node7 -->
<g id="node7" class="node">
<title>Node7</title>
<g id="a_node7"><a xlink:href="JKRThread_8h.html" target="_top" xlink:title=" ">
<polygon fill="white" stroke="black" points="522,-224.5 522,-243.5 672,-243.5 672,-224.5 522,-224.5"/>
<text text-anchor="middle" x="597" y="-231.5" font-family="Helvetica,sans-Serif" font-size="10.00">JSystem/JKernel/JKRThread.h</text>
</a>
</g>
</g>
<!-- Node6&#45;&gt;Node7 -->
<g id="edge7" class="edge">
<title>Node6&#45;&gt;Node7</title>
<path fill="none" stroke="midnightblue" d="M566.11,-280.08C571.28,-272.53 578.85,-261.49 585.19,-252.23"/>
<polygon fill="midnightblue" stroke="midnightblue" points="588.24,-253.98 591,-243.75 582.46,-250.02 588.24,-253.98"/>
</g>
<!-- Node7&#45;&gt;Node3 -->
<g id="edge21" class="edge">
<title>Node7&#45;&gt;Node3</title>
<path fill="none" stroke="midnightblue" d="M596.84,-224.32C596.01,-202.86 591.11,-146.52 563,-112 523.94,-64.04 456.08,-36.3 411.6,-22.42"/>
<polygon fill="midnightblue" stroke="midnightblue" points="412.52,-19.04 401.93,-19.51 410.5,-25.74 412.52,-19.04"/>
</g>
<!-- Node8 -->
<g id="node8" class="node">
<title>Node8</title>
<g id="a_node8"><a xlink:href="JKRDisposer_8h.html" target="_top" xlink:title=" ">
<polygon fill="white" stroke="black" points="396,-112.5 396,-131.5 554,-131.5 554,-112.5 396,-112.5"/>
<text text-anchor="middle" x="475" y="-119.5" font-family="Helvetica,sans-Serif" font-size="10.00">JSystem/JKernel/JKRDisposer.h</text>
</a>
</g>
</g>
<!-- Node7&#45;&gt;Node8 -->
<g id="edge8" class="edge">
<title>Node7&#45;&gt;Node8</title>
<path fill="none" stroke="midnightblue" d="M587.22,-224.16C573.38,-211.65 547.27,-188.07 525,-168 514.13,-158.2 501.92,-147.22 492.29,-138.55"/>
<polygon fill="midnightblue" stroke="midnightblue" points="494.36,-135.71 484.59,-131.62 489.68,-140.91 494.36,-135.71"/>
</g>
<!-- Node7&#45;&gt;Node9 -->
<g id="edge19" class="edge">
<title>Node7&#45;&gt;Node9</title>
<path fill="none" stroke="midnightblue" d="M599.8,-224.08C608.02,-197.83 632.23,-120.55 643.32,-85.12"/>
<polygon fill="midnightblue" stroke="midnightblue" points="646.67,-86.16 646.32,-75.57 639.99,-84.06 646.67,-86.16"/>
</g>
<!-- Node7&#45;&gt;Node10 -->
<g id="edge12" class="edge">
<title>Node7&#45;&gt;Node10</title>
<path fill="none" stroke="midnightblue" d="M572.76,-224.44C547.13,-215.4 506.51,-201.06 477.76,-190.92"/>
<polygon fill="midnightblue" stroke="midnightblue" points="478.72,-187.54 468.13,-187.52 476.39,-194.15 478.72,-187.54"/>
</g>
<!-- Node11 -->
<g id="node11" class="node">
<title>Node11</title>
<g id="a_node11"><a xlink:href="OS_8h.html" target="_top" xlink:title=" ">
<polygon fill="white" stroke="black" points="254,-112.5 254,-131.5 340,-131.5 340,-112.5 254,-112.5"/>
<text text-anchor="middle" x="297" y="-119.5" font-family="Helvetica,sans-Serif" font-size="10.00">dolphin/os/OS.h</text>
</a>
</g>
</g>
<!-- Node7&#45;&gt;Node11 -->
<g id="edge20" class="edge">
<title>Node7&#45;&gt;Node11</title>
<path fill="none" stroke="midnightblue" d="M529.72,-224.48C471.18,-216.27 391.38,-202.92 363,-188 340.87,-176.37 321.27,-154.89 309.3,-139.81"/>
<polygon fill="midnightblue" stroke="midnightblue" points="312.02,-137.62 303.17,-131.8 306.46,-141.87 312.02,-137.62"/>
</g>
<!-- Node8&#45;&gt;Node3 -->
<g id="edge11" class="edge">
<title>Node8&#45;&gt;Node3</title>
<path fill="none" stroke="midnightblue" d="M466.6,-112.37C448.71,-93.97 406.59,-50.67 383.61,-27.05"/>
<polygon fill="midnightblue" stroke="midnightblue" points="385.84,-24.32 376.36,-19.59 380.82,-29.2 385.84,-24.32"/>
</g>
<!-- Node8&#45;&gt;Node9 -->
<g id="edge9" class="edge">
<title>Node8&#45;&gt;Node9</title>
<path fill="none" stroke="midnightblue" d="M502.57,-112.44C532.1,-103.28 579.12,-88.69 611.88,-78.52"/>
<polygon fill="midnightblue" stroke="midnightblue" points="613.04,-81.82 621.56,-75.52 610.97,-75.14 613.04,-81.82"/>
</g>
<!-- Node9&#45;&gt;Node3 -->
<g id="edge10" class="edge">
<title>Node9&#45;&gt;Node3</title>
<path fill="none" stroke="midnightblue" d="M604.47,-56.44C553.88,-46.72 471.48,-30.89 418.52,-20.71"/>
<polygon fill="midnightblue" stroke="midnightblue" points="419.15,-17.27 408.67,-18.82 417.83,-24.14 419.15,-17.27"/>
</g>
<!-- Node10&#45;&gt;Node3 -->
<g id="edge18" class="edge">
<title>Node10&#45;&gt;Node3</title>
<path fill="none" stroke="midnightblue" d="M427.42,-168.49C414.24,-160.8 396.48,-148.22 387,-132 368.19,-99.83 366.23,-55 366.86,-29.92"/>
<polygon fill="midnightblue" stroke="midnightblue" points="370.37,-29.76 367.3,-19.62 363.38,-29.46 370.37,-29.76"/>
</g>
<!-- Node10&#45;&gt;Node8 -->
<g id="edge13" class="edge">
<title>Node10&#45;&gt;Node8</title>
<path fill="none" stroke="midnightblue" d="M449.12,-168.08C453.41,-160.61 459.66,-149.72 464.94,-140.52"/>
<polygon fill="midnightblue" stroke="midnightblue" points="468.03,-142.17 469.98,-131.75 461.96,-138.68 468.03,-142.17"/>
</g>
<!-- Node10&#45;&gt;Node11 -->
<g id="edge14" class="edge">
<title>Node10&#45;&gt;Node11</title>
<path fill="none" stroke="midnightblue" d="M420.71,-168.44C396.19,-159.44 357.4,-145.19 329.8,-135.05"/>
<polygon fill="midnightblue" stroke="midnightblue" points="330.78,-131.68 320.18,-131.52 328.36,-138.25 330.78,-131.68"/>
</g>
<!-- Node11&#45;&gt;Node3 -->
<g id="edge15" class="edge">
<title>Node11&#45;&gt;Node3</title>
<path fill="none" stroke="midnightblue" d="M302.57,-112.37C314.24,-94.3 341.42,-52.18 356.83,-28.31"/>
<polygon fill="midnightblue" stroke="midnightblue" points="359.97,-29.89 362.45,-19.59 354.09,-26.1 359.97,-29.89"/>
</g>
<!-- Node12 -->
<g id="node12" class="node">
<title>Node12</title>
<g id="a_node12"><a xlink:href="dvd_8h.html" target="_top" xlink:title=" ">
<polygon fill="white" stroke="black" points="210,-56.5 210,-75.5 302,-75.5 302,-56.5 210,-56.5"/>
<text text-anchor="middle" x="256" y="-63.5" font-family="Helvetica,sans-Serif" font-size="10.00">dolphin/dvd/dvd.h</text>
</a>
</g>
</g>
<!-- Node11&#45;&gt;Node12 -->
<g id="edge16" class="edge">
<title>Node11&#45;&gt;Node12</title>
<path fill="none" stroke="midnightblue" d="M290.23,-112.08C284.44,-104.46 275.94,-93.26 268.86,-83.94"/>
<polygon fill="midnightblue" stroke="midnightblue" points="271.48,-81.6 262.64,-75.75 265.9,-85.83 271.48,-81.6"/>
</g>
<!-- Node12&#45;&gt;Node3 -->
<g id="edge17" class="edge">
<title>Node12&#45;&gt;Node3</title>
<path fill="none" stroke="midnightblue" d="M273.99,-56.32C292.04,-47.62 320.05,-34.12 340.8,-24.11"/>
<polygon fill="midnightblue" stroke="midnightblue" points="342.56,-27.15 350.05,-19.65 339.52,-20.84 342.56,-27.15"/>
</g>
<!-- Node13&#45;&gt;Node3 -->
<g id="edge29" class="edge">
<title>Node13&#45;&gt;Node3</title>
<path fill="none" stroke="midnightblue" d="M171.55,-224.41C155.84,-217.28 136.38,-205.46 127,-188 100.78,-139.2 106.36,-119.17 188,-56 225.07,-27.32 278.14,-16.7 317.06,-12.88"/>
<polygon fill="midnightblue" stroke="midnightblue" points="317.47,-16.36 327.13,-12.01 316.87,-9.39 317.47,-16.36"/>
</g>
<!-- Node13&#45;&gt;Node11 -->
<g id="edge28" class="edge">
<title>Node13&#45;&gt;Node11</title>
<path fill="none" stroke="midnightblue" d="M230.43,-224.4C250.15,-217.76 273.41,-206.48 287,-188 296.73,-174.78 298.68,-155.91 298.53,-141.91"/>
<polygon fill="midnightblue" stroke="midnightblue" points="302,-141.34 298.03,-131.52 295.01,-141.67 302,-141.34"/>
</g>
<!-- Node13&#45;&gt;Node12 -->
<g id="edge27" class="edge">
<title>Node13&#45;&gt;Node12</title>
<path fill="none" stroke="midnightblue" d="M175.65,-224.43C153.46,-213.26 121.53,-192.25 133,-168 152.61,-126.53 198.52,-96.37 228.37,-80.29"/>
<polygon fill="midnightblue" stroke="midnightblue" points="230.19,-83.29 237.44,-75.57 226.95,-77.08 230.19,-83.29"/>
</g>
<!-- Node14 -->
<g id="node14" class="node">
<title>Node14</title>
<g id="a_node14"><a xlink:href="JKRFile_8h.html" target="_top" xlink:title=" ">
<polygon fill="white" stroke="black" points="142,-168.5 142,-187.5 278,-187.5 278,-168.5 142,-168.5"/>
<text text-anchor="middle" x="210" y="-175.5" font-family="Helvetica,sans-Serif" font-size="10.00">JSystem/JKernel/JKRFile.h</text>
</a>
</g>
</g>
<!-- Node13&#45;&gt;Node14 -->
<g id="edge24" class="edge">
<title>Node13&#45;&gt;Node14</title>
<path fill="none" stroke="midnightblue" d="M197.48,-224.08C199.49,-216.85 202.39,-206.41 204.89,-197.4"/>
<polygon fill="midnightblue" stroke="midnightblue" points="208.26,-198.32 207.57,-187.75 201.52,-196.45 208.26,-198.32"/>
</g>
<!-- Node14&#45;&gt;Node3 -->
<g id="edge26" class="edge">
<title>Node14&#45;&gt;Node3</title>
<path fill="none" stroke="midnightblue" d="M205.8,-168.27C196.1,-146.69 174.86,-90.11 201,-56 215.19,-37.48 273.69,-24.86 317.47,-17.81"/>
<polygon fill="midnightblue" stroke="midnightblue" points="318.07,-21.26 327.41,-16.26 316.99,-14.34 318.07,-21.26"/>
</g>
<!-- Node14&#45;&gt;Node8 -->
<g id="edge25" class="edge">
<title>Node14&#45;&gt;Node8</title>
<path fill="none" stroke="midnightblue" d="M251.99,-168.44C298.41,-158.98 373.23,-143.74 423.24,-133.55"/>
<polygon fill="midnightblue" stroke="midnightblue" points="424.11,-136.94 433.21,-131.52 422.71,-130.08 424.11,-136.94"/>
</g>
<!-- Node15&#45;&gt;Node3 -->
<g id="edge33" class="edge">
<title>Node15&#45;&gt;Node3</title>
<path fill="none" stroke="midnightblue" d="M734.31,-168.34C742.05,-146.4 758.65,-88.16 730,-56 709.65,-33.15 513.73,-19.16 418.91,-13.67"/>
<polygon fill="midnightblue" stroke="midnightblue" points="418.87,-10.16 408.69,-13.09 418.47,-17.15 418.87,-10.16"/>
</g>
<!-- Node15&#45;&gt;Node8 -->
<g id="edge31" class="edge">
<title>Node15&#45;&gt;Node8</title>
<path fill="none" stroke="midnightblue" d="M690.44,-168.44C645.68,-159 573.62,-143.8 525.3,-133.61"/>
<polygon fill="midnightblue" stroke="midnightblue" points="525.88,-130.16 515.37,-131.52 524.44,-137.01 525.88,-130.16"/>
</g>
<!-- Node15&#45;&gt;Node9 -->
<g id="edge32" class="edge">
<title>Node15&#45;&gt;Node9</title>
<path fill="none" stroke="midnightblue" d="M724.57,-168.37C710.97,-150.14 679.14,-107.43 661.43,-83.68"/>
<polygon fill="midnightblue" stroke="midnightblue" points="664.19,-81.52 655.4,-75.59 658.58,-85.7 664.19,-81.52"/>
</g>
<!-- Node16&#45;&gt;Node3 -->
<g id="edge36" class="edge">
<title>Node16&#45;&gt;Node3</title>
<path fill="none" stroke="midnightblue" d="M95.97,-280.43C77.05,-263.27 38,-222.56 38,-179 38,-179 38,-179 38,-121 38,-62.86 224.66,-29.96 317.21,-17.21"/>
<polygon fill="midnightblue" stroke="midnightblue" points="317.76,-20.67 327.2,-15.86 316.83,-13.73 317.76,-20.67"/>
</g>
</g>
</svg>
        <g id="navigator" transform="translate(0 0)" fill="#404254">
                <rect fill="#f2f5e9" fill-opacity="0.5" stroke="#606060" stroke-width=".5" x="0" y="0" width="60" height="60"/>
                <use id="zoomplus" xlink:href="#zoomPlus" x="17" y="9" onmousedown="handleZoom(evt,'in')"/>
                <use id="zoomminus" xlink:href="#zoomMin" x="42" y="9" onmousedown="handleZoom(evt,'out')"/>
                <use id="reset" xlink:href="#resetDef" x="30" y="36" onmousedown="handleReset()"/>
                <g id="arrowUp" xlink:href="#dirArrow" transform="translate(30 24)" onmousedown="handlePan(0,-1)">
                  <use xlink:href="#rim" fill="#404040">
                        <set attributeName="fill" to="#808080" begin="arrowUp.mouseover" end="arrowUp.mouseout"/>
                  </use>
                  <path fill="none" stroke="white" stroke-width="1.5" d="M0,-3.0v7 M-2.5,-0.5L0,-3.0L2.5,-0.5"/>
                </g>
                <g id="arrowRight" xlink:href="#dirArrow" transform="rotate(90) translate(36 -43)" onmousedown="handlePan(1,0)">
                  <use xlink:href="#rim" fill="#404040">
                        <set attributeName="fill" to="#808080" begin="arrowRight.mouseover" end="arrowRight.mouseout"/>
                  </use>
                  <path fill="none" stroke="white" stroke-width="1.5" d="M0,-3.0v7 M-2.5,-0.5L0,-3.0L2.5,-0.5"/>
                </g>
                <g id="arrowDown" xlink:href="#dirArrow" transform="rotate(180) translate(-30 -48)" onmousedown="handlePan(0,1)">
                  <use xlink:href="#rim" fill="#404040">
                        <set attributeName="fill" to="#808080" begin="arrowDown.mouseover" end="arrowDown.mouseout"/>
                  </use>
                  <path fill="none" stroke="white" stroke-width="1.5" d="M0,-3.0v7 M-2.5,-0.5L0,-3.0L2.5,-0.5"/>
                </g>
                <g id="arrowLeft" xlink:href="#dirArrow" transform="rotate(270) translate(-36 17)" onmousedown="handlePan(-1,0)">
                  <use xlink:href="#rim" fill="#404040">
                        <set attributeName="fill" to="#808080" begin="arrowLeft.mouseover" end="arrowLeft.mouseout"/>
                  </use>
                  <path fill="none" stroke="white" stroke-width="1.5" d="M0,-3.0v7 M-2.5,-0.5L0,-3.0L2.5,-0.5"/>
                </g>
        </g>
        <svg viewBox="0 0 15 15" width="100%" height="30px" preserveAspectRatio="xMaxYMin meet">
         <g id="arrow_out" transform="scale(0.3 0.3)">
          <a xlink:href="JKRAramArchive_8h__incl_org.svg" target="_base">
           <rect id="button" ry="5" rx="5" y="6" x="6" height="38" width="38"
                fill="#f2f5e9" fill-opacity="0.5" stroke="#606060" stroke-width="1.0"/>
           <path id="arrow"
             d="M 11.500037,31.436501 C 11.940474,20.09759 22.043105,11.32322 32.158766,21.979434 L 37.068811,17.246167 C 37.068811,17.246167 37.088388,32 37.088388,32 L 22.160133,31.978069 C 22.160133,31.978069 26.997745,27.140456 26.997745,27.140456 C 18.528582,18.264221 13.291696,25.230495 11.500037,31.436501 z"
             style="fill:#404040;"/>
          </a>
         </g>
        </svg>
</svg>
