<?xml version="1.0" encoding="UTF-8" standalone="no"?>
<!DOCTYPE svg PUBLIC "-//W3C//DTD SVG 1.1//EN"
 "http://www.w3.org/Graphics/SVG/1.1/DTD/svg11.dtd">
<!-- Generated by graphviz version 2.44.0 ()
 -->
<!-- Title: libs/JSystem/JKernel/JKRDvdArchive.cpp Pages: 1 -->
<svg width="1774pt" height="475pt"
 viewBox="0.00 0.00 1774.14 475.00" xmlns="http://www.w3.org/2000/svg" xmlns:xlink="http://www.w3.org/1999/xlink">
<g id="graph0" class="graph" transform="scale(1 1) rotate(0) translate(4 471)">
<title>libs/JSystem/JKernel/JKRDvdArchive.cpp</title>
<polygon fill="white" stroke="transparent" points="-4,4 -4,-471 1770.14,-471 1770.14,4 -4,4"/>
<!-- Node1 -->
<g id="node1" class="node">
<title>Node1</title>
<g id="a_node1"><a xlink:title=" ">
<polygon fill="#bfbfbf" stroke="black" points="1024,-436.5 1024,-466.5 1133,-466.5 1133,-436.5 1024,-436.5"/>
<text text-anchor="start" x="1032" y="-454.5" font-family="Helvetica,sans-Serif" font-size="10.00">libs/JSystem/JKernel</text>
<text text-anchor="middle" x="1078.5" y="-443.5" font-family="Helvetica,sans-Serif" font-size="10.00">/JKRDvdArchive.cpp</text>
</a>
</g>
</g>
<!-- Node2 -->
<g id="node2" class="node">
<title>Node2</title>
<g id="a_node2"><a xlink:href="JKRDvdArchive_8h.html" target="_top" xlink:title=" ">
<polygon fill="white" stroke="black" points="625.5,-364 625.5,-383 795.5,-383 795.5,-364 625.5,-364"/>
<text text-anchor="middle" x="710.5" y="-371" font-family="Helvetica,sans-Serif" font-size="10.00">JSystem/JKernel/JKRDvdArchive.h</text>
</a>
</g>
</g>
<!-- Node1&#45;&gt;Node2 -->
<g id="edge1" class="edge">
<title>Node1&#45;&gt;Node2</title>
<path fill="none" stroke="midnightblue" d="M1023.8,-439.2C953.15,-424.61 831.06,-399.4 762,-385.14"/>
<polygon fill="midnightblue" stroke="midnightblue" points="762.3,-381.62 751.8,-383.03 760.88,-388.48 762.3,-381.62"/>
</g>
<!-- Node12 -->
<g id="node12" class="node">
<title>Node12</title>
<g id="a_node12"><a xlink:href="JKRDvdFile_8h.html" target="_top" xlink:title=" ">
<polygon fill="white" stroke="black" points="796,-235.5 796,-254.5 949,-254.5 949,-235.5 796,-235.5"/>
<text text-anchor="middle" x="872.5" y="-242.5" font-family="Helvetica,sans-Serif" font-size="10.00">JSystem/JKernel/JKRDvdFile.h</text>
</a>
</g>
</g>
<!-- Node1&#45;&gt;Node12 -->
<g id="edge36" class="edge">
<title>Node1&#45;&gt;Node12</title>
<path fill="none" stroke="midnightblue" d="M1064.34,-436.44C1027.34,-399.71 927.92,-301.02 888.71,-262.1"/>
<polygon fill="midnightblue" stroke="midnightblue" points="890.87,-259.3 881.31,-254.74 885.94,-264.27 890.87,-259.3"/>
</g>
<!-- Node16 -->
<g id="node16" class="node">
<title>Node16</title>
<g id="a_node16"><a xlink:href="global_8h.html" target="_top" xlink:title=" ">
<polygon fill="white" stroke="black" points="1181.5,-235.5 1181.5,-254.5 1231.5,-254.5 1231.5,-235.5 1181.5,-235.5"/>
<text text-anchor="middle" x="1206.5" y="-242.5" font-family="Helvetica,sans-Serif" font-size="10.00">global.h</text>
</a>
</g>
</g>
<!-- Node1&#45;&gt;Node16 -->
<g id="edge61" class="edge">
<title>Node1&#45;&gt;Node16</title>
<path fill="none" stroke="midnightblue" d="M1076.43,-436.41C1072.82,-406.32 1068.69,-334.94 1102.5,-291 1111.38,-279.46 1144.79,-266.21 1171.37,-257.09"/>
<polygon fill="midnightblue" stroke="midnightblue" points="1172.79,-260.31 1181.16,-253.81 1170.57,-253.67 1172.79,-260.31"/>
</g>
<!-- Node17 -->
<g id="node17" class="node">
<title>Node17</title>
<g id="a_node17"><a xlink:href="JKRDvdRipper_8h.html" target="_top" xlink:title=" ">
<polygon fill="white" stroke="black" points="0,-291.5 0,-310.5 165,-310.5 165,-291.5 0,-291.5"/>
<text text-anchor="middle" x="82.5" y="-298.5" font-family="Helvetica,sans-Serif" font-size="10.00">JSystem/JKernel/JKRDvdRipper.h</text>
</a>
</g>
</g>
<!-- Node1&#45;&gt;Node17 -->
<g id="edge37" class="edge">
<title>Node1&#45;&gt;Node17</title>
<path fill="none" stroke="midnightblue" d="M1023.93,-445.83C937.33,-438.13 763.2,-421.45 616.5,-400 437.88,-373.88 227.64,-331.99 133.07,-312.55"/>
<polygon fill="midnightblue" stroke="midnightblue" points="133.7,-309.11 123.2,-310.51 132.29,-315.96 133.7,-309.11"/>
</g>
<!-- Node18 -->
<g id="node18" class="node">
<title>Node18</title>
<g id="a_node18"><a xlink:href="JKRExpHeap_8h.html" target="_top" xlink:title=" ">
<polygon fill="white" stroke="black" points="1249,-235.5 1249,-254.5 1408,-254.5 1408,-235.5 1249,-235.5"/>
<text text-anchor="middle" x="1328.5" y="-242.5" font-family="Helvetica,sans-Serif" font-size="10.00">JSystem/JKernel/JKRExpHeap.h</text>
</a>
</g>
</g>
<!-- Node1&#45;&gt;Node18 -->
<g id="edge40" class="edge">
<title>Node1&#45;&gt;Node18</title>
<path fill="none" stroke="midnightblue" d="M1083.37,-436.47C1091.46,-414.89 1109.5,-373.3 1136.5,-347 1181.84,-302.85 1250.38,-273.14 1292.13,-257.94"/>
<polygon fill="midnightblue" stroke="midnightblue" points="1293.38,-261.21 1301.63,-254.57 1291.03,-254.62 1293.38,-261.21"/>
</g>
<!-- Node19 -->
<g id="node19" class="node">
<title>Node19</title>
<g id="a_node19"><a xlink:href="JUTException_8h.html" target="_top" xlink:title=" ">
<polygon fill="white" stroke="black" points="1005,-235.5 1005,-254.5 1164,-254.5 1164,-235.5 1005,-235.5"/>
<text text-anchor="middle" x="1084.5" y="-242.5" font-family="Helvetica,sans-Serif" font-size="10.00">JSystem/JUtility/JUTException.h</text>
</a>
</g>
</g>
<!-- Node1&#45;&gt;Node19 -->
<g id="edge43" class="edge">
<title>Node1&#45;&gt;Node19</title>
<path fill="none" stroke="midnightblue" d="M1073.4,-436.13C1070.13,-426.14 1066.19,-412.44 1064.5,-400 1057.97,-352 1054.44,-338.39 1064.5,-291 1066.5,-281.59 1070.6,-271.76 1074.57,-263.7"/>
<polygon fill="midnightblue" stroke="midnightblue" points="1077.81,-265.07 1079.37,-254.59 1071.61,-261.81 1077.81,-265.07"/>
</g>
<!-- Node25 -->
<g id="node25" class="node">
<title>Node25</title>
<g id="a_node25"><a xlink:href="dol2asm_8h.html" target="_top" xlink:title=" ">
<polygon fill="white" stroke="black" points="1145,-364 1145,-383 1206,-383 1206,-364 1145,-364"/>
<text text-anchor="middle" x="1175.5" y="-371" font-family="Helvetica,sans-Serif" font-size="10.00">dol2asm.h</text>
</a>
</g>
</g>
<!-- Node1&#45;&gt;Node25 -->
<g id="edge60" class="edge">
<title>Node1&#45;&gt;Node25</title>
<path fill="none" stroke="midnightblue" d="M1096.74,-436.2C1113.76,-422.88 1139.04,-403.07 1156.34,-389.51"/>
<polygon fill="midnightblue" stroke="midnightblue" points="1158.86,-391.99 1164.57,-383.06 1154.54,-386.48 1158.86,-391.99"/>
</g>
<!-- Node26 -->
<g id="node26" class="node">
<title>Node26</title>
<g id="a_node26"><a xlink:title=" ">
<polygon fill="white" stroke="#bfbfbf" points="1224.5,-353 1224.5,-394 1346.5,-394 1346.5,-353 1224.5,-353"/>
<text text-anchor="start" x="1232.5" y="-382" font-family="Helvetica,sans-Serif" font-size="10.00">asm/JSystem/JKernel</text>
<text text-anchor="start" x="1232.5" y="-371" font-family="Helvetica,sans-Serif" font-size="10.00">/JKRDvdArchive/open</text>
<text text-anchor="middle" x="1285.5" y="-360" font-family="Helvetica,sans-Serif" font-size="10.00">__13JKRDvdArchiveFl.s</text>
</a>
</g>
</g>
<!-- Node1&#45;&gt;Node26 -->
<g id="edge62" class="edge">
<title>Node1&#45;&gt;Node26</title>
<path fill="none" stroke="midnightblue" d="M1116.95,-436.38C1146.55,-425.51 1188.1,-410.26 1222.53,-397.62"/>
<polygon fill="midnightblue" stroke="midnightblue" points="1223.86,-400.86 1232.04,-394.13 1221.45,-394.29 1223.86,-400.86"/>
</g>
<!-- Node27 -->
<g id="node27" class="node">
<title>Node27</title>
<g id="a_node27"><a xlink:title=" ">
<polygon fill="white" stroke="#bfbfbf" points="1365,-347.5 1365,-399.5 1592,-399.5 1592,-347.5 1365,-347.5"/>
<text text-anchor="start" x="1373" y="-387.5" font-family="Helvetica,sans-Serif" font-size="10.00">asm/JSystem/JKernel</text>
<text text-anchor="start" x="1373" y="-376.5" font-family="Helvetica,sans-Serif" font-size="10.00">/JKRDvdArchive/fetchResource</text>
<text text-anchor="start" x="1373" y="-365.5" font-family="Helvetica,sans-Serif" font-size="10.00">__13JKRDvdArchiveFPvUlPQ210JKRArchive12</text>
<text text-anchor="middle" x="1478.5" y="-354.5" font-family="Helvetica,sans-Serif" font-size="10.00">SDIFileEntryPUl.s</text>
</a>
</g>
</g>
<!-- Node1&#45;&gt;Node27 -->
<g id="edge63" class="edge">
<title>Node1&#45;&gt;Node27</title>
<path fill="none" stroke="midnightblue" d="M1133.23,-440.92C1187.03,-431.42 1271.73,-416.21 1355.04,-400.07"/>
<polygon fill="midnightblue" stroke="midnightblue" points="1355.78,-403.49 1364.93,-398.15 1354.44,-396.62 1355.78,-403.49"/>
</g>
<!-- Node3 -->
<g id="node3" class="node">
<title>Node3</title>
<g id="a_node3"><a xlink:href="JKRArchive_8h.html" target="_top" xlink:title=" ">
<polygon fill="white" stroke="black" points="634,-291.5 634,-310.5 787,-310.5 787,-291.5 634,-291.5"/>
<text text-anchor="middle" x="710.5" y="-298.5" font-family="Helvetica,sans-Serif" font-size="10.00">JSystem/JKernel/JKRArchive.h</text>
</a>
</g>
</g>
<!-- Node2&#45;&gt;Node3 -->
<g id="edge2" class="edge">
<title>Node2&#45;&gt;Node3</title>
<path fill="none" stroke="midnightblue" d="M710.5,-363.86C710.5,-353.18 710.5,-334.72 710.5,-320.73"/>
<polygon fill="midnightblue" stroke="midnightblue" points="714,-320.72 710.5,-310.72 707,-320.72 714,-320.72"/>
</g>
<!-- Node9 -->
<g id="node9" class="node">
<title>Node9</title>
<g id="a_node9"><a xlink:href="types_8h.html" target="_top" xlink:title=" ">
<polygon fill="white" stroke="black" points="1022,-0.5 1022,-19.5 1103,-19.5 1103,-0.5 1022,-0.5"/>
<text text-anchor="middle" x="1062.5" y="-7.5" font-family="Helvetica,sans-Serif" font-size="10.00">dolphin/types.h</text>
</a>
</g>
</g>
<!-- Node2&#45;&gt;Node9 -->
<g id="edge35" class="edge">
<title>Node2&#45;&gt;Node9</title>
<path fill="none" stroke="midnightblue" d="M646.18,-363.97C532.12,-347.65 300.8,-308.78 241.5,-255 212.11,-228.35 207.55,-205.14 221.5,-168 257.33,-72.63 321.92,-77.5 421.5,-56 533.78,-31.76 880.18,-17.4 1011.4,-12.71"/>
<polygon fill="midnightblue" stroke="midnightblue" points="1011.71,-16.2 1021.58,-12.35 1011.46,-9.21 1011.71,-16.2"/>
</g>
<!-- Node4 -->
<g id="node4" class="node">
<title>Node4</title>
<g id="a_node4"><a xlink:href="JKRCompression_8h.html" target="_top" xlink:title=" ">
<polygon fill="white" stroke="black" points="240,-174 240,-193 417,-193 417,-174 240,-174"/>
<text text-anchor="middle" x="328.5" y="-181" font-family="Helvetica,sans-Serif" font-size="10.00">JSystem/JKernel/JKRCompression.h</text>
</a>
</g>
</g>
<!-- Node3&#45;&gt;Node4 -->
<g id="edge3" class="edge">
<title>Node3&#45;&gt;Node4</title>
<path fill="none" stroke="midnightblue" d="M682.1,-291.41C614.34,-270.92 443.14,-219.16 366.55,-196.01"/>
<polygon fill="midnightblue" stroke="midnightblue" points="367.41,-192.61 356.83,-193.06 365.39,-199.31 367.41,-192.61"/>
</g>
<!-- Node5 -->
<g id="node5" class="node">
<title>Node5</title>
<g id="a_node5"><a xlink:href="JKRDecomp_8h.html" target="_top" xlink:title=" ">
<polygon fill="white" stroke="black" points="250.5,-235.5 250.5,-254.5 406.5,-254.5 406.5,-235.5 250.5,-235.5"/>
<text text-anchor="middle" x="328.5" y="-242.5" font-family="Helvetica,sans-Serif" font-size="10.00">JSystem/JKernel/JKRDecomp.h</text>
</a>
</g>
</g>
<!-- Node3&#45;&gt;Node5 -->
<g id="edge4" class="edge">
<title>Node3&#45;&gt;Node5</title>
<path fill="none" stroke="midnightblue" d="M649.97,-291.44C581.8,-281.81 471.14,-266.16 399.09,-255.98"/>
<polygon fill="midnightblue" stroke="midnightblue" points="399.14,-252.45 388.75,-254.52 398.16,-259.38 399.14,-252.45"/>
</g>
<!-- Node3&#45;&gt;Node12 -->
<g id="edge18" class="edge">
<title>Node3&#45;&gt;Node12</title>
<path fill="none" stroke="midnightblue" d="M736.17,-291.44C763.42,-282.36 806.68,-267.94 837.15,-257.78"/>
<polygon fill="midnightblue" stroke="midnightblue" points="838.57,-261 846.95,-254.52 836.36,-254.36 838.57,-261"/>
</g>
<!-- Node14 -->
<g id="node14" class="node">
<title>Node14</title>
<g id="a_node14"><a xlink:href="JKRFileLoader_8h.html" target="_top" xlink:title=" ">
<polygon fill="white" stroke="black" points="472.5,-174 472.5,-193 638.5,-193 638.5,-174 472.5,-174"/>
<text text-anchor="middle" x="555.5" y="-181" font-family="Helvetica,sans-Serif" font-size="10.00">JSystem/JKernel/JKRFileLoader.h</text>
</a>
</g>
</g>
<!-- Node3&#45;&gt;Node14 -->
<g id="edge25" class="edge">
<title>Node3&#45;&gt;Node14</title>
<path fill="none" stroke="midnightblue" d="M698.85,-291.32C672.59,-271.75 608.53,-224.02 575.67,-199.53"/>
<polygon fill="midnightblue" stroke="midnightblue" points="577.4,-196.45 567.29,-193.28 573.21,-202.06 577.4,-196.45"/>
</g>
<!-- Node15 -->
<g id="node15" class="node">
<title>Node15</title>
<g id="a_node15"><a xlink:href="JKRHeap_8h.html" target="_top" xlink:title=" ">
<polygon fill="white" stroke="black" points="1093,-174 1093,-193 1236,-193 1236,-174 1093,-174"/>
<text text-anchor="middle" x="1164.5" y="-181" font-family="Helvetica,sans-Serif" font-size="10.00">JSystem/JKernel/JKRHeap.h</text>
</a>
</g>
</g>
<!-- Node3&#45;&gt;Node15 -->
<g id="edge29" class="edge">
<title>Node3&#45;&gt;Node15</title>
<path fill="none" stroke="midnightblue" d="M787.18,-292.21C836.98,-285.67 902.75,-274.22 958.5,-255 976.54,-248.78 978.84,-242.22 996.5,-235 1037.04,-218.42 1085.04,-204.53 1119.34,-195.54"/>
<polygon fill="midnightblue" stroke="midnightblue" points="1120.27,-198.92 1129.07,-193.03 1118.51,-192.14 1120.27,-198.92"/>
</g>
<!-- Node3&#45;&gt;Node16 -->
<g id="edge33" class="edge">
<title>Node3&#45;&gt;Node16</title>
<path fill="none" stroke="midnightblue" d="M787.24,-296.53C877.38,-291.55 1031.43,-280.26 1171.33,-255.15"/>
<polygon fill="midnightblue" stroke="midnightblue" points="1172.17,-258.56 1181.38,-253.32 1170.91,-251.67 1172.17,-258.56"/>
</g>
<!-- Node5&#45;&gt;Node4 -->
<g id="edge5" class="edge">
<title>Node5&#45;&gt;Node4</title>
<path fill="none" stroke="midnightblue" d="M328.5,-235.48C328.5,-227.08 328.5,-213.98 328.5,-203.16"/>
<polygon fill="midnightblue" stroke="midnightblue" points="332,-203.01 328.5,-193.01 325,-203.01 332,-203.01"/>
</g>
<!-- Node6 -->
<g id="node6" class="node">
<title>Node6</title>
<g id="a_node6"><a xlink:href="JKRThread_8h.html" target="_top" xlink:title=" ">
<polygon fill="white" stroke="black" points="656.5,-174 656.5,-193 806.5,-193 806.5,-174 656.5,-174"/>
<text text-anchor="middle" x="731.5" y="-181" font-family="Helvetica,sans-Serif" font-size="10.00">JSystem/JKernel/JKRThread.h</text>
</a>
</g>
</g>
<!-- Node5&#45;&gt;Node6 -->
<g id="edge6" class="edge">
<title>Node5&#45;&gt;Node6</title>
<path fill="none" stroke="midnightblue" d="M393.05,-235.49C457.55,-226.84 559.51,-212.8 647.5,-199 655.91,-197.68 664.77,-196.22 673.47,-194.76"/>
<polygon fill="midnightblue" stroke="midnightblue" points="674.3,-198.17 683.57,-193.04 673.12,-191.27 674.3,-198.17"/>
</g>
<!-- Node5&#45;&gt;Node9 -->
<g id="edge17" class="edge">
<title>Node5&#45;&gt;Node9</title>
<path fill="none" stroke="midnightblue" d="M285.43,-235.49C265.1,-229.07 242.68,-217.99 230.5,-199 223.06,-187.4 222.3,-179.07 230.5,-168 324.32,-41.27 845.22,-16.69 1011.48,-12.05"/>
<polygon fill="midnightblue" stroke="midnightblue" points="1012.01,-15.54 1021.91,-11.77 1011.82,-8.54 1012.01,-15.54"/>
</g>
<!-- Node7 -->
<g id="node7" class="node">
<title>Node7</title>
<g id="a_node7"><a xlink:href="JKRDisposer_8h.html" target="_top" xlink:title=" ">
<polygon fill="white" stroke="black" points="765.5,-112.5 765.5,-131.5 923.5,-131.5 923.5,-112.5 765.5,-112.5"/>
<text text-anchor="middle" x="844.5" y="-119.5" font-family="Helvetica,sans-Serif" font-size="10.00">JSystem/JKernel/JKRDisposer.h</text>
</a>
</g>
</g>
<!-- Node6&#45;&gt;Node7 -->
<g id="edge7" class="edge">
<title>Node6&#45;&gt;Node7</title>
<path fill="none" stroke="midnightblue" d="M747.69,-173.98C766.4,-164.12 797.42,-147.79 819.3,-136.27"/>
<polygon fill="midnightblue" stroke="midnightblue" points="821.12,-139.27 828.34,-131.51 817.86,-133.07 821.12,-139.27"/>
</g>
<!-- Node8 -->
<g id="node8" class="node">
<title>Node8</title>
<g id="a_node8"><a xlink:href="JSUList_8h.html" target="_top" xlink:title=" ">
<polygon fill="white" stroke="black" points="742,-56.5 742,-75.5 885,-75.5 885,-56.5 742,-56.5"/>
<text text-anchor="middle" x="813.5" y="-63.5" font-family="Helvetica,sans-Serif" font-size="10.00">JSystem/JSupport/JSUList.h</text>
</a>
</g>
</g>
<!-- Node6&#45;&gt;Node8 -->
<g id="edge11" class="edge">
<title>Node6&#45;&gt;Node8</title>
<path fill="none" stroke="midnightblue" d="M732.93,-173.97C735.61,-159.95 742.43,-131.64 756.5,-112 765.31,-99.71 778.37,-89.06 789.77,-81.21"/>
<polygon fill="midnightblue" stroke="midnightblue" points="791.99,-83.94 798.45,-75.53 788.16,-78.08 791.99,-83.94"/>
</g>
<!-- Node6&#45;&gt;Node9 -->
<g id="edge16" class="edge">
<title>Node6&#45;&gt;Node9</title>
<path fill="none" stroke="midnightblue" d="M728.26,-173.78C720.48,-151.14 703.48,-89.86 733.5,-56 769.26,-15.67 928.33,-10.25 1011.48,-10.25"/>
<polygon fill="midnightblue" stroke="midnightblue" points="1011.7,-13.76 1021.71,-10.28 1011.72,-6.76 1011.7,-13.76"/>
</g>
<!-- Node10 -->
<g id="node10" class="node">
<title>Node10</title>
<g id="a_node10"><a xlink:href="OS_8h.html" target="_top" xlink:title=" ">
<polygon fill="white" stroke="black" points="1021.5,-112.5 1021.5,-131.5 1107.5,-131.5 1107.5,-112.5 1021.5,-112.5"/>
<text text-anchor="middle" x="1064.5" y="-119.5" font-family="Helvetica,sans-Serif" font-size="10.00">dolphin/os/OS.h</text>
</a>
</g>
</g>
<!-- Node6&#45;&gt;Node10 -->
<g id="edge12" class="edge">
<title>Node6&#45;&gt;Node10</title>
<path fill="none" stroke="midnightblue" d="M779.21,-173.98C840.75,-162.98 947.47,-143.91 1011.48,-132.47"/>
<polygon fill="midnightblue" stroke="midnightblue" points="1012.15,-135.91 1021.38,-130.71 1010.92,-129.02 1012.15,-135.91"/>
</g>
<!-- Node7&#45;&gt;Node8 -->
<g id="edge8" class="edge">
<title>Node7&#45;&gt;Node8</title>
<path fill="none" stroke="midnightblue" d="M839.38,-112.08C835.09,-104.61 828.84,-93.72 823.56,-84.52"/>
<polygon fill="midnightblue" stroke="midnightblue" points="826.54,-82.68 818.52,-75.75 820.47,-86.17 826.54,-82.68"/>
</g>
<!-- Node7&#45;&gt;Node9 -->
<g id="edge10" class="edge">
<title>Node7&#45;&gt;Node9</title>
<path fill="none" stroke="midnightblue" d="M854.79,-112.42C871.35,-98.95 905.31,-72.67 937.5,-56 964.62,-41.96 997.13,-30.4 1022.2,-22.52"/>
<polygon fill="midnightblue" stroke="midnightblue" points="1023.23,-25.86 1031.76,-19.57 1021.17,-19.17 1023.23,-25.86"/>
</g>
<!-- Node8&#45;&gt;Node9 -->
<g id="edge9" class="edge">
<title>Node8&#45;&gt;Node9</title>
<path fill="none" stroke="midnightblue" d="M852.95,-56.44C896.39,-47.02 966.29,-31.87 1013.28,-21.68"/>
<polygon fill="midnightblue" stroke="midnightblue" points="1014.2,-25.06 1023.23,-19.52 1012.72,-18.22 1014.2,-25.06"/>
</g>
<!-- Node10&#45;&gt;Node9 -->
<g id="edge13" class="edge">
<title>Node10&#45;&gt;Node9</title>
<path fill="none" stroke="midnightblue" d="M1069.14,-112.23C1075.15,-99.8 1084.41,-76.31 1080.5,-56 1078.71,-46.7 1075.02,-36.89 1071.44,-28.8"/>
<polygon fill="midnightblue" stroke="midnightblue" points="1074.56,-27.21 1067.12,-19.66 1068.23,-30.2 1074.56,-27.21"/>
</g>
<!-- Node11 -->
<g id="node11" class="node">
<title>Node11</title>
<g id="a_node11"><a xlink:href="dvd_8h.html" target="_top" xlink:title=" ">
<polygon fill="white" stroke="black" points="979.5,-56.5 979.5,-75.5 1071.5,-75.5 1071.5,-56.5 979.5,-56.5"/>
<text text-anchor="middle" x="1025.5" y="-63.5" font-family="Helvetica,sans-Serif" font-size="10.00">dolphin/dvd/dvd.h</text>
</a>
</g>
</g>
<!-- Node10&#45;&gt;Node11 -->
<g id="edge14" class="edge">
<title>Node10&#45;&gt;Node11</title>
<path fill="none" stroke="midnightblue" d="M1058.06,-112.08C1052.55,-104.46 1044.47,-93.26 1037.74,-83.94"/>
<polygon fill="midnightblue" stroke="midnightblue" points="1040.51,-81.81 1031.82,-75.75 1034.84,-85.91 1040.51,-81.81"/>
</g>
<!-- Node11&#45;&gt;Node9 -->
<g id="edge15" class="edge">
<title>Node11&#45;&gt;Node9</title>
<path fill="none" stroke="midnightblue" d="M1031.61,-56.08C1036.78,-48.53 1044.35,-37.49 1050.69,-28.23"/>
<polygon fill="midnightblue" stroke="midnightblue" points="1053.74,-29.98 1056.5,-19.75 1047.96,-26.02 1053.74,-29.98"/>
</g>
<!-- Node12&#45;&gt;Node9 -->
<g id="edge24" class="edge">
<title>Node12&#45;&gt;Node9</title>
<path fill="none" stroke="midnightblue" d="M795.63,-240.98C683.3,-235.77 485.22,-223.24 463.5,-199 454.31,-188.74 456.37,-179.79 463.5,-168 519.09,-76.16 574.92,-87.65 677.5,-56 793.42,-20.24 937,-12.53 1011.79,-11.09"/>
<polygon fill="midnightblue" stroke="midnightblue" points="1011.94,-14.59 1021.88,-10.93 1011.83,-7.59 1011.94,-14.59"/>
</g>
<!-- Node12&#45;&gt;Node10 -->
<g id="edge23" class="edge">
<title>Node12&#45;&gt;Node10</title>
<path fill="none" stroke="midnightblue" d="M915.36,-235.49C942.13,-228.72 976.36,-217.26 1002.5,-199 1024.79,-183.43 1043.39,-157.72 1054.24,-140.57"/>
<polygon fill="midnightblue" stroke="midnightblue" points="1057.48,-141.97 1059.69,-131.61 1051.5,-138.33 1057.48,-141.97"/>
</g>
<!-- Node12&#45;&gt;Node11 -->
<g id="edge22" class="edge">
<title>Node12&#45;&gt;Node11</title>
<path fill="none" stroke="midnightblue" d="M905.35,-235.42C926.05,-228.54 952.07,-217.01 969.5,-199 985.91,-182.04 1008.74,-117.77 1019.47,-85.59"/>
<polygon fill="midnightblue" stroke="midnightblue" points="1022.93,-86.27 1022.73,-75.68 1016.28,-84.08 1022.93,-86.27"/>
</g>
<!-- Node13 -->
<g id="node13" class="node">
<title>Node13</title>
<g id="a_node13"><a xlink:href="JKRFile_8h.html" target="_top" xlink:title=" ">
<polygon fill="white" stroke="black" points="824.5,-174 824.5,-193 960.5,-193 960.5,-174 824.5,-174"/>
<text text-anchor="middle" x="892.5" y="-181" font-family="Helvetica,sans-Serif" font-size="10.00">JSystem/JKernel/JKRFile.h</text>
</a>
</g>
</g>
<!-- Node12&#45;&gt;Node13 -->
<g id="edge19" class="edge">
<title>Node12&#45;&gt;Node13</title>
<path fill="none" stroke="midnightblue" d="M875.37,-235.48C878.22,-226.99 882.68,-213.7 886.34,-202.82"/>
<polygon fill="midnightblue" stroke="midnightblue" points="889.77,-203.6 889.64,-193.01 883.14,-201.37 889.77,-203.6"/>
</g>
<!-- Node13&#45;&gt;Node7 -->
<g id="edge20" class="edge">
<title>Node13&#45;&gt;Node7</title>
<path fill="none" stroke="midnightblue" d="M885.62,-173.98C878.35,-164.96 866.7,-150.52 857.66,-139.31"/>
<polygon fill="midnightblue" stroke="midnightblue" points="860.37,-137.09 851.36,-131.51 854.92,-141.49 860.37,-137.09"/>
</g>
<!-- Node13&#45;&gt;Node9 -->
<g id="edge21" class="edge">
<title>Node13&#45;&gt;Node9</title>
<path fill="none" stroke="midnightblue" d="M900.16,-173.97C908.67,-164.25 922.53,-147.66 932.5,-132 952.78,-100.14 943.68,-82.59 970.5,-56 985.42,-41.21 1006.16,-30.49 1024.17,-23.23"/>
<polygon fill="midnightblue" stroke="midnightblue" points="1025.74,-26.38 1033.84,-19.55 1023.25,-19.84 1025.74,-26.38"/>
</g>
<!-- Node14&#45;&gt;Node7 -->
<g id="edge26" class="edge">
<title>Node14&#45;&gt;Node7</title>
<path fill="none" stroke="midnightblue" d="M596.91,-173.98C648.63,-163.33 737.11,-145.11 793.11,-133.58"/>
<polygon fill="midnightblue" stroke="midnightblue" points="794.08,-136.95 803.17,-131.51 792.67,-130.1 794.08,-136.95"/>
</g>
<!-- Node14&#45;&gt;Node8 -->
<g id="edge27" class="edge">
<title>Node14&#45;&gt;Node8</title>
<path fill="none" stroke="midnightblue" d="M574.89,-173.82C620.01,-153.62 732.21,-103.39 785.08,-79.72"/>
<polygon fill="midnightblue" stroke="midnightblue" points="786.54,-82.91 794.23,-75.62 783.68,-76.52 786.54,-82.91"/>
</g>
<!-- Node14&#45;&gt;Node9 -->
<g id="edge28" class="edge">
<title>Node14&#45;&gt;Node9</title>
<path fill="none" stroke="midnightblue" d="M563.23,-173.85C584.88,-150.25 649.03,-84.65 717.5,-56 769.47,-34.25 928.85,-20.31 1011.54,-14.34"/>
<polygon fill="midnightblue" stroke="midnightblue" points="1011.99,-17.82 1021.72,-13.62 1011.49,-10.83 1011.99,-17.82"/>
</g>
<!-- Node15&#45;&gt;Node7 -->
<g id="edge30" class="edge">
<title>Node15&#45;&gt;Node7</title>
<path fill="none" stroke="midnightblue" d="M1118.65,-173.98C1061.03,-163.26 962.19,-144.88 900.25,-133.37"/>
<polygon fill="midnightblue" stroke="midnightblue" points="900.73,-129.9 890.26,-131.51 899.45,-136.78 900.73,-129.9"/>
</g>
<!-- Node15&#45;&gt;Node9 -->
<g id="edge32" class="edge">
<title>Node15&#45;&gt;Node9</title>
<path fill="none" stroke="midnightblue" d="M1160.08,-173.72C1149.48,-152.86 1121.51,-98.91 1094.5,-56 1088.5,-46.47 1081.27,-36.21 1075.2,-27.89"/>
<polygon fill="midnightblue" stroke="midnightblue" points="1077.94,-25.72 1069.18,-19.76 1072.31,-29.88 1077.94,-25.72"/>
</g>
<!-- Node15&#45;&gt;Node10 -->
<g id="edge31" class="edge">
<title>Node15&#45;&gt;Node10</title>
<path fill="none" stroke="midnightblue" d="M1150.17,-173.98C1133.84,-164.25 1106.9,-148.23 1087.59,-136.74"/>
<polygon fill="midnightblue" stroke="midnightblue" points="1089.18,-133.61 1078.8,-131.51 1085.61,-139.63 1089.18,-133.61"/>
</g>
<!-- Node16&#45;&gt;Node9 -->
<g id="edge34" class="edge">
<title>Node16&#45;&gt;Node9</title>
<path fill="none" stroke="midnightblue" d="M1231.71,-237.16C1234.67,-236.41 1237.65,-235.67 1240.5,-235 1317.8,-216.83 1365.33,-260.55 1415.5,-199 1432.58,-178.05 1396.96,-114.15 1395.5,-112 1374.24,-80.75 1365.66,-72.18 1331.5,-56 1260.8,-22.52 1169.31,-13.51 1113.32,-11.33"/>
<polygon fill="midnightblue" stroke="midnightblue" points="1113.4,-7.83 1103.29,-11 1113.17,-14.83 1113.4,-7.83"/>
</g>
<!-- Node17&#45;&gt;Node5 -->
<g id="edge38" class="edge">
<title>Node17&#45;&gt;Node5</title>
<path fill="none" stroke="midnightblue" d="M121.48,-291.44C164.39,-282.02 233.45,-266.87 279.87,-256.68"/>
<polygon fill="midnightblue" stroke="midnightblue" points="280.69,-260.08 289.7,-254.52 279.19,-253.24 280.69,-260.08"/>
</g>
<!-- Node17&#45;&gt;Node9 -->
<g id="edge39" class="edge">
<title>Node17&#45;&gt;Node9</title>
<path fill="none" stroke="midnightblue" d="M87.21,-291.3C96.96,-272.44 118.5,-226.09 118.5,-184.5 118.5,-184.5 118.5,-184.5 118.5,-121 118.5,-86.61 130.71,-73.19 160.5,-56 234.23,-13.44 832.01,-10.71 1011.64,-10.85"/>
<polygon fill="midnightblue" stroke="midnightblue" points="1011.86,-14.35 1021.87,-10.87 1011.87,-7.35 1011.86,-14.35"/>
</g>
<!-- Node18&#45;&gt;Node9 -->
<g id="edge42" class="edge">
<title>Node18&#45;&gt;Node9</title>
<path fill="none" stroke="midnightblue" d="M1408.19,-235.97C1555.97,-218.23 1848.37,-168.02 1743.5,-56 1700.7,-10.28 1264.1,-9.38 1113.36,-10.46"/>
<polygon fill="midnightblue" stroke="midnightblue" points="1112.98,-6.96 1103.01,-10.54 1113.03,-13.96 1112.98,-6.96"/>
</g>
<!-- Node18&#45;&gt;Node15 -->
<g id="edge41" class="edge">
<title>Node18&#45;&gt;Node15</title>
<path fill="none" stroke="midnightblue" d="M1305,-235.48C1276.87,-225.27 1229.57,-208.11 1197.71,-196.55"/>
<polygon fill="midnightblue" stroke="midnightblue" points="1198.55,-193.13 1187.95,-193.01 1196.16,-199.71 1198.55,-193.13"/>
</g>
<!-- Node19&#45;&gt;Node6 -->
<g id="edge44" class="edge">
<title>Node19&#45;&gt;Node6</title>
<path fill="none" stroke="midnightblue" d="M1032.92,-235.45C978.76,-226.46 891.12,-211.85 815.5,-199 807.51,-197.64 799.1,-196.2 790.81,-194.78"/>
<polygon fill="midnightblue" stroke="midnightblue" points="791.24,-191.3 780.8,-193.05 790.06,-198.2 791.24,-191.3"/>
</g>
<!-- Node19&#45;&gt;Node9 -->
<g id="edge59" class="edge">
<title>Node19&#45;&gt;Node9</title>
<path fill="none" stroke="midnightblue" d="M1161.87,-235.5C1252.6,-225.15 1391.73,-207.96 1399.5,-199 1418.87,-176.67 1378.43,-114.24 1376.5,-112 1309.89,-34.76 1183.98,-16.11 1113.52,-11.91"/>
<polygon fill="midnightblue" stroke="midnightblue" points="1113.29,-8.39 1103.12,-11.37 1112.93,-15.38 1113.29,-8.39"/>
</g>
<!-- Node19&#45;&gt;Node10 -->
<g id="edge58" class="edge">
<title>Node19&#45;&gt;Node10</title>
<path fill="none" stroke="midnightblue" d="M1083.06,-235.3C1079.83,-215.76 1071.95,-168.06 1067.57,-141.55"/>
<polygon fill="midnightblue" stroke="midnightblue" points="1071.01,-140.92 1065.93,-131.62 1064.1,-142.06 1071.01,-140.92"/>
</g>
<!-- Node20 -->
<g id="node20" class="node">
<title>Node20</title>
<g id="a_node20"><a xlink:href="JUTGamePad_8h.html" target="_top" xlink:title=" ">
<polygon fill="white" stroke="black" points="1254.5,-168.5 1254.5,-198.5 1390.5,-198.5 1390.5,-168.5 1254.5,-168.5"/>
<text text-anchor="start" x="1262.5" y="-186.5" font-family="Helvetica,sans-Serif" font-size="10.00">JSystem/JUtility/JUTGame</text>
<text text-anchor="middle" x="1322.5" y="-175.5" font-family="Helvetica,sans-Serif" font-size="10.00">Pad.h</text>
</a>
</g>
</g>
<!-- Node19&#45;&gt;Node20 -->
<g id="edge45" class="edge">
<title>Node19&#45;&gt;Node20</title>
<path fill="none" stroke="midnightblue" d="M1118.6,-235.48C1154.45,-226.51 1211.75,-212.19 1256.49,-201"/>
<polygon fill="midnightblue" stroke="midnightblue" points="1257.56,-204.34 1266.41,-198.52 1255.86,-197.55 1257.56,-204.34"/>
</g>
<!-- Node22 -->
<g id="node22" class="node">
<title>Node22</title>
<g id="a_node22"><a xlink:href="GX_8h.html" target="_top" xlink:title=" ">
<polygon fill="white" stroke="black" points="1488,-112.5 1488,-131.5 1573,-131.5 1573,-112.5 1488,-112.5"/>
<text text-anchor="middle" x="1530.5" y="-119.5" font-family="Helvetica,sans-Serif" font-size="10.00">dolphin/gx/GX.h</text>
</a>
</g>
</g>
<!-- Node19&#45;&gt;Node22 -->
<g id="edge52" class="edge">
<title>Node19&#45;&gt;Node22</title>
<path fill="none" stroke="midnightblue" d="M1158.25,-235.46C1256.63,-223.93 1419.98,-204.2 1432.5,-199 1465.6,-185.23 1497.1,-157.23 1515.08,-139.32"/>
<polygon fill="midnightblue" stroke="midnightblue" points="1517.85,-141.49 1522.34,-131.9 1512.85,-136.6 1517.85,-141.49"/>
</g>
<!-- Node20&#45;&gt;Node7 -->
<g id="edge46" class="edge">
<title>Node20&#45;&gt;Node7</title>
<path fill="none" stroke="midnightblue" d="M1254.11,-169.35C1251.2,-168.88 1248.33,-168.42 1245.5,-168 1138.87,-152 1015.5,-138.97 934.07,-131.13"/>
<polygon fill="midnightblue" stroke="midnightblue" points="934.14,-127.62 923.86,-130.15 933.48,-134.59 934.14,-127.62"/>
</g>
<!-- Node20&#45;&gt;Node8 -->
<g id="edge47" class="edge">
<title>Node20&#45;&gt;Node8</title>
<path fill="none" stroke="midnightblue" d="M1287.72,-168.41C1247.23,-152.53 1178.02,-126.96 1116.5,-112 1042.59,-94.02 956.68,-82.09 895.25,-75.05"/>
<polygon fill="midnightblue" stroke="midnightblue" points="895.55,-71.56 885.23,-73.92 894.77,-78.52 895.55,-71.56"/>
</g>
<!-- Node20&#45;&gt;Node9 -->
<g id="edge51" class="edge">
<title>Node20&#45;&gt;Node9</title>
<path fill="none" stroke="midnightblue" d="M1301.22,-168.47C1252.46,-136.3 1133.06,-57.54 1084.04,-25.21"/>
<polygon fill="midnightblue" stroke="midnightblue" points="1085.75,-22.14 1075.48,-19.56 1081.9,-27.99 1085.75,-22.14"/>
</g>
<!-- Node20&#45;&gt;Node10 -->
<g id="edge48" class="edge">
<title>Node20&#45;&gt;Node10</title>
<path fill="none" stroke="midnightblue" d="M1261.68,-168.47C1215.72,-157.87 1153.54,-143.53 1111.38,-133.81"/>
<polygon fill="midnightblue" stroke="midnightblue" points="1111.92,-130.34 1101.38,-131.51 1110.34,-137.16 1111.92,-130.34"/>
</g>
<!-- Node21 -->
<g id="node21" class="node">
<title>Node21</title>
<g id="a_node21"><a xlink:href="Pad_8h.html" target="_top" xlink:title=" ">
<polygon fill="white" stroke="black" points="1273.5,-112.5 1273.5,-131.5 1367.5,-131.5 1367.5,-112.5 1273.5,-112.5"/>
<text text-anchor="middle" x="1320.5" y="-119.5" font-family="Helvetica,sans-Serif" font-size="10.00">dolphin/pad/Pad.h</text>
</a>
</g>
</g>
<!-- Node20&#45;&gt;Node21 -->
<g id="edge49" class="edge">
<title>Node20&#45;&gt;Node21</title>
<path fill="none" stroke="midnightblue" d="M1322.03,-168.4C1321.76,-160.47 1321.42,-150.46 1321.13,-141.86"/>
<polygon fill="midnightblue" stroke="midnightblue" points="1324.63,-141.53 1320.79,-131.66 1317.63,-141.77 1324.63,-141.53"/>
</g>
<!-- Node21&#45;&gt;Node9 -->
<g id="edge50" class="edge">
<title>Node21&#45;&gt;Node9</title>
<path fill="none" stroke="midnightblue" d="M1314.53,-112.31C1304.34,-98.18 1282.2,-70.39 1256.5,-56 1211.87,-31 1154.02,-19.87 1113.15,-14.92"/>
<polygon fill="midnightblue" stroke="midnightblue" points="1113.47,-11.44 1103.14,-13.79 1112.68,-18.39 1113.47,-11.44"/>
</g>
<!-- Node22&#45;&gt;Node9 -->
<g id="edge57" class="edge">
<title>Node22&#45;&gt;Node9</title>
<path fill="none" stroke="midnightblue" d="M1516.6,-112.4C1490.49,-96.39 1434.8,-63 1413.5,-56 1310.51,-22.18 1182.75,-13.6 1113.29,-11.54"/>
<polygon fill="midnightblue" stroke="midnightblue" points="1113.15,-8.03 1103.06,-11.27 1112.97,-15.03 1113.15,-8.03"/>
</g>
<!-- Node23 -->
<g id="node23" class="node">
<title>Node23</title>
<g id="a_node23"><a xlink:href="GXDisplayList_8h.html" target="_top" xlink:title=" ">
<polygon fill="white" stroke="black" points="1466,-56.5 1466,-75.5 1599,-75.5 1599,-56.5 1466,-56.5"/>
<text text-anchor="middle" x="1532.5" y="-63.5" font-family="Helvetica,sans-Serif" font-size="10.00">dolphin/gx/GXDisplayList.h</text>
</a>
</g>
</g>
<!-- Node22&#45;&gt;Node23 -->
<g id="edge53" class="edge">
<title>Node22&#45;&gt;Node23</title>
<path fill="none" stroke="midnightblue" d="M1530.83,-112.08C1531.09,-105.01 1531.47,-94.86 1531.8,-85.99"/>
<polygon fill="midnightblue" stroke="midnightblue" points="1535.3,-85.87 1532.18,-75.75 1528.31,-85.61 1535.3,-85.87"/>
</g>
<!-- Node24 -->
<g id="node24" class="node">
<title>Node24</title>
<g id="a_node24"><a xlink:href="GXTexture_8h.html" target="_top" xlink:title=" ">
<polygon fill="white" stroke="black" points="1617,-56.5 1617,-75.5 1734,-75.5 1734,-56.5 1617,-56.5"/>
<text text-anchor="middle" x="1675.5" y="-63.5" font-family="Helvetica,sans-Serif" font-size="10.00">dolphin/gx/GXTexture.h</text>
</a>
</g>
</g>
<!-- Node22&#45;&gt;Node24 -->
<g id="edge55" class="edge">
<title>Node22&#45;&gt;Node24</title>
<path fill="none" stroke="midnightblue" d="M1553.48,-112.44C1577.66,-103.44 1615.92,-89.19 1643.15,-79.05"/>
<polygon fill="midnightblue" stroke="midnightblue" points="1644.48,-82.29 1652.63,-75.52 1642.04,-75.73 1644.48,-82.29"/>
</g>
<!-- Node23&#45;&gt;Node9 -->
<g id="edge54" class="edge">
<title>Node23&#45;&gt;Node9</title>
<path fill="none" stroke="midnightblue" d="M1465.66,-57.32C1370.56,-46.39 1198.3,-26.6 1113.07,-16.81"/>
<polygon fill="midnightblue" stroke="midnightblue" points="1113.45,-13.33 1103.12,-15.67 1112.65,-20.29 1113.45,-13.33"/>
</g>
<!-- Node24&#45;&gt;Node9 -->
<g id="edge56" class="edge">
<title>Node24&#45;&gt;Node9</title>
<path fill="none" stroke="midnightblue" d="M1616.69,-56.93C1613.93,-56.6 1611.18,-56.29 1608.5,-56 1426.71,-36.31 1210.04,-20.82 1113.4,-14.32"/>
<polygon fill="midnightblue" stroke="midnightblue" points="1113.53,-10.82 1103.32,-13.65 1113.07,-17.81 1113.53,-10.82"/>
</g>
</g>
</svg>
