<?xml version="1.0" encoding="UTF-8" standalone="no"?>
<!DOCTYPE svg PUBLIC "-//W3C//DTD SVG 1.1//EN"
 "http://www.w3.org/Graphics/SVG/1.1/DTD/svg11.dtd">
<!-- Generated by graphviz version 2.44.0 ()
 -->
<!-- Title: libs/JSystem/JKernel/JKRDvdArchive.cpp Pages: 1 -->
<svg width="1545pt" height="542pt"
 viewBox="0.00 0.00 1545.42 542.00" xmlns="http://www.w3.org/2000/svg" xmlns:xlink="http://www.w3.org/1999/xlink">
<g id="graph0" class="graph" transform="scale(1 1) rotate(0) translate(4 538)">
<title>libs/JSystem/JKernel/JKRDvdArchive.cpp</title>
<polygon fill="white" stroke="transparent" points="-4,4 -4,-538 1541.42,-538 1541.42,4 -4,4"/>
<!-- Node1 -->
<g id="node1" class="node">
<title>Node1</title>
<g id="a_node1"><a xlink:title=" ">
<polygon fill="#bfbfbf" stroke="black" points="762.42,-503.5 762.42,-533.5 871.42,-533.5 871.42,-503.5 762.42,-503.5"/>
<text text-anchor="start" x="770.42" y="-521.5" font-family="Helvetica,sans-Serif" font-size="10.00">libs/JSystem/JKernel</text>
<text text-anchor="middle" x="816.92" y="-510.5" font-family="Helvetica,sans-Serif" font-size="10.00">/JKRDvdArchive.cpp</text>
</a>
</g>
</g>
<!-- Node2 -->
<g id="node2" class="node">
<title>Node2</title>
<g id="a_node2"><a xlink:href="JKRDvdArchive_8h.html" target="_top" xlink:title=" ">
<polygon fill="white" stroke="black" points="296.92,-431 296.92,-450 466.92,-450 466.92,-431 296.92,-431"/>
<text text-anchor="middle" x="381.92" y="-438" font-family="Helvetica,sans-Serif" font-size="10.00">JSystem/JKernel/JKRDvdArchive.h</text>
</a>
</g>
</g>
<!-- Node1&#45;&gt;Node2 -->
<g id="edge1" class="edge">
<title>Node1&#45;&gt;Node2</title>
<path fill="none" stroke="midnightblue" d="M762.26,-507.95C680.03,-493.59 525.15,-466.52 440.61,-451.75"/>
<polygon fill="midnightblue" stroke="midnightblue" points="441.11,-448.29 430.66,-450.02 439.91,-455.18 441.11,-448.29"/>
</g>
<!-- Node14 -->
<g id="node14" class="node">
<title>Node14</title>
<g id="a_node14"><a xlink:href="JKRDvdFile_8h.html" target="_top" xlink:title=" ">
<polygon fill="white" stroke="black" points="429.42,-246.5 429.42,-265.5 582.42,-265.5 582.42,-246.5 429.42,-246.5"/>
<text text-anchor="middle" x="505.92" y="-253.5" font-family="Helvetica,sans-Serif" font-size="10.00">JSystem/JKernel/JKRDvdFile.h</text>
</a>
</g>
</g>
<!-- Node1&#45;&gt;Node14 -->
<g id="edge39" class="edge">
<title>Node1&#45;&gt;Node14</title>
<path fill="none" stroke="midnightblue" d="M800.19,-503.49C746.66,-458.65 579.75,-318.85 524.15,-272.27"/>
<polygon fill="midnightblue" stroke="midnightblue" points="526.13,-269.36 516.21,-265.63 521.63,-274.73 526.13,-269.36"/>
</g>
<!-- Node17 -->
<g id="node17" class="node">
<title>Node17</title>
<g id="a_node17"><a xlink:href="global_8h.html" target="_top" xlink:title=" ">
<polygon fill="white" stroke="black" points="72.92,-302.5 72.92,-321.5 122.92,-321.5 122.92,-302.5 72.92,-302.5"/>
<text text-anchor="middle" x="97.92" y="-309.5" font-family="Helvetica,sans-Serif" font-size="10.00">global.h</text>
</a>
</g>
</g>
<!-- Node1&#45;&gt;Node17 -->
<g id="edge65" class="edge">
<title>Node1&#45;&gt;Node17</title>
<path fill="none" stroke="midnightblue" d="M762.14,-516.17C626.65,-512.41 278.73,-499.76 167.92,-467 88.39,-443.49 46.32,-449.27 3.92,-378 -12.59,-350.26 29.84,-331.53 62.96,-321.56"/>
<polygon fill="midnightblue" stroke="midnightblue" points="64.21,-324.84 72.87,-318.75 62.29,-318.11 64.21,-324.84"/>
</g>
<!-- Node18 -->
<g id="node18" class="node">
<title>Node18</title>
<g id="a_node18"><a xlink:href="JKRDvdRipper_8h.html" target="_top" xlink:title=" ">
<polygon fill="white" stroke="black" points="13.42,-358.5 13.42,-377.5 178.42,-377.5 178.42,-358.5 13.42,-358.5"/>
<text text-anchor="middle" x="95.92" y="-365.5" font-family="Helvetica,sans-Serif" font-size="10.00">JSystem/JKernel/JKRDvdRipper.h</text>
</a>
</g>
</g>
<!-- Node1&#45;&gt;Node18 -->
<g id="edge40" class="edge">
<title>Node1&#45;&gt;Node18</title>
<path fill="none" stroke="midnightblue" d="M762.15,-514.88C645.46,-508.87 375.82,-492.62 287.92,-467 221.9,-447.76 151.75,-405.66 117.4,-383.42"/>
<polygon fill="midnightblue" stroke="midnightblue" points="118.98,-380.27 108.69,-377.71 115.14,-386.12 118.98,-380.27"/>
</g>
<!-- Node19 -->
<g id="node19" class="node">
<title>Node19</title>
<g id="a_node19"><a xlink:href="JKRExpHeap_8h.html" target="_top" xlink:title=" ">
<polygon fill="white" stroke="black" points="806.42,-246.5 806.42,-265.5 965.42,-265.5 965.42,-246.5 806.42,-246.5"/>
<text text-anchor="middle" x="885.92" y="-253.5" font-family="Helvetica,sans-Serif" font-size="10.00">JSystem/JKernel/JKRExpHeap.h</text>
</a>
</g>
</g>
<!-- Node1&#45;&gt;Node19 -->
<g id="edge43" class="edge">
<title>Node1&#45;&gt;Node19</title>
<path fill="none" stroke="midnightblue" d="M818.53,-503.3C820.98,-483.22 826.17,-445.47 833.92,-414 846.51,-362.82 867.78,-304.32 878.8,-275.31"/>
<polygon fill="midnightblue" stroke="midnightblue" points="882.17,-276.3 882.49,-265.71 875.64,-273.79 882.17,-276.3"/>
</g>
<!-- Node20 -->
<g id="node20" class="node">
<title>Node20</title>
<g id="a_node20"><a xlink:href="JUTException_8h.html" target="_top" xlink:title=" ">
<polygon fill="white" stroke="black" points="989.42,-302.5 989.42,-321.5 1148.42,-321.5 1148.42,-302.5 989.42,-302.5"/>
<text text-anchor="middle" x="1068.92" y="-309.5" font-family="Helvetica,sans-Serif" font-size="10.00">JSystem/JUtility/JUTException.h</text>
</a>
</g>
</g>
<!-- Node1&#45;&gt;Node20 -->
<g id="edge46" class="edge">
<title>Node1&#45;&gt;Node20</title>
<path fill="none" stroke="midnightblue" d="M821.77,-503.45C829.84,-481.85 847.85,-440.24 874.92,-414 920.59,-369.71 989.59,-340.13 1031.81,-324.97"/>
<polygon fill="midnightblue" stroke="midnightblue" points="1033.14,-328.22 1041.42,-321.61 1030.83,-321.61 1033.14,-328.22"/>
</g>
<!-- Node26 -->
<g id="node26" class="node">
<title>Node26</title>
<g id="a_node26"><a xlink:href="dol2asm_8h.html" target="_top" xlink:title=" ">
<polygon fill="white" stroke="black" points="883.42,-431 883.42,-450 944.42,-450 944.42,-431 883.42,-431"/>
<text text-anchor="middle" x="913.92" y="-438" font-family="Helvetica,sans-Serif" font-size="10.00">dol2asm.h</text>
</a>
</g>
</g>
<!-- Node1&#45;&gt;Node26 -->
<g id="edge64" class="edge">
<title>Node1&#45;&gt;Node26</title>
<path fill="none" stroke="midnightblue" d="M835.16,-503.2C852.17,-489.88 877.45,-470.07 894.75,-456.51"/>
<polygon fill="midnightblue" stroke="midnightblue" points="897.27,-458.99 902.99,-450.06 892.96,-453.48 897.27,-458.99"/>
</g>
<!-- Node27 -->
<g id="node27" class="node">
<title>Node27</title>
<g id="a_node27"><a xlink:title=" ">
<polygon fill="white" stroke="#bfbfbf" points="962.92,-420 962.92,-461 1084.92,-461 1084.92,-420 962.92,-420"/>
<text text-anchor="start" x="970.92" y="-449" font-family="Helvetica,sans-Serif" font-size="10.00">asm/JSystem/JKernel</text>
<text text-anchor="start" x="970.92" y="-438" font-family="Helvetica,sans-Serif" font-size="10.00">/JKRDvdArchive/open</text>
<text text-anchor="middle" x="1023.92" y="-427" font-family="Helvetica,sans-Serif" font-size="10.00">__13JKRDvdArchiveFl.s</text>
</a>
</g>
</g>
<!-- Node1&#45;&gt;Node27 -->
<g id="edge66" class="edge">
<title>Node1&#45;&gt;Node27</title>
<path fill="none" stroke="midnightblue" d="M855.37,-503.38C884.97,-492.51 926.51,-477.26 960.95,-464.62"/>
<polygon fill="midnightblue" stroke="midnightblue" points="962.27,-467.86 970.46,-461.13 959.86,-461.29 962.27,-467.86"/>
</g>
<!-- Node28 -->
<g id="node28" class="node">
<title>Node28</title>
<g id="a_node28"><a xlink:title=" ">
<polygon fill="white" stroke="#bfbfbf" points="1103.42,-414.5 1103.42,-466.5 1330.42,-466.5 1330.42,-414.5 1103.42,-414.5"/>
<text text-anchor="start" x="1111.42" y="-454.5" font-family="Helvetica,sans-Serif" font-size="10.00">asm/JSystem/JKernel</text>
<text text-anchor="start" x="1111.42" y="-443.5" font-family="Helvetica,sans-Serif" font-size="10.00">/JKRDvdArchive/fetchResource</text>
<text text-anchor="start" x="1111.42" y="-432.5" font-family="Helvetica,sans-Serif" font-size="10.00">__13JKRDvdArchiveFPvUlPQ210JKRArchive12</text>
<text text-anchor="middle" x="1216.92" y="-421.5" font-family="Helvetica,sans-Serif" font-size="10.00">SDIFileEntryPUl.s</text>
</a>
</g>
</g>
<!-- Node1&#45;&gt;Node28 -->
<g id="edge67" class="edge">
<title>Node1&#45;&gt;Node28</title>
<path fill="none" stroke="midnightblue" d="M871.65,-507.92C925.45,-498.42 1010.15,-483.21 1093.45,-467.07"/>
<polygon fill="midnightblue" stroke="midnightblue" points="1094.19,-470.49 1103.34,-465.15 1092.86,-463.62 1094.19,-470.49"/>
</g>
<!-- Node3 -->
<g id="node3" class="node">
<title>Node3</title>
<g id="a_node3"><a xlink:href="JKRArchive_8h.html" target="_top" xlink:title=" ">
<polygon fill="white" stroke="black" points="305.42,-358.5 305.42,-377.5 458.42,-377.5 458.42,-358.5 305.42,-358.5"/>
<text text-anchor="middle" x="381.92" y="-365.5" font-family="Helvetica,sans-Serif" font-size="10.00">JSystem/JKernel/JKRArchive.h</text>
</a>
</g>
</g>
<!-- Node2&#45;&gt;Node3 -->
<g id="edge2" class="edge">
<title>Node2&#45;&gt;Node3</title>
<path fill="none" stroke="midnightblue" d="M381.92,-430.86C381.92,-420.18 381.92,-401.72 381.92,-387.73"/>
<polygon fill="midnightblue" stroke="midnightblue" points="385.42,-387.72 381.92,-377.72 378.42,-387.72 385.42,-387.72"/>
</g>
<!-- Node9 -->
<g id="node9" class="node">
<title>Node9</title>
<g id="a_node9"><a xlink:href="types_8h.html" target="_top" xlink:title=" ">
<polygon fill="white" stroke="black" points="762.42,-0.5 762.42,-19.5 843.42,-19.5 843.42,-0.5 762.42,-0.5"/>
<text text-anchor="middle" x="802.92" y="-7.5" font-family="Helvetica,sans-Serif" font-size="10.00">dolphin/types.h</text>
</a>
</g>
</g>
<!-- Node2&#45;&gt;Node9 -->
<g id="edge38" class="edge">
<title>Node2&#45;&gt;Node9</title>
<path fill="none" stroke="midnightblue" d="M352.25,-430.99C306.41,-416.33 218.58,-381.95 169.92,-322 132.84,-276.32 130.92,-254.33 130.92,-195.5 130.92,-195.5 130.92,-195.5 130.92,-132 130.92,-90.82 148.12,-76.36 183.92,-56 232.69,-28.25 611.99,-15.87 751.58,-12.21"/>
<polygon fill="midnightblue" stroke="midnightblue" points="752.08,-15.7 761.99,-11.95 751.9,-8.7 752.08,-15.7"/>
</g>
<!-- Node4 -->
<g id="node4" class="node">
<title>Node4</title>
<g id="a_node4"><a xlink:href="JKRCompression_8h.html" target="_top" xlink:title=" ">
<polygon fill="white" stroke="black" points="196.42,-246.5 196.42,-265.5 373.42,-265.5 373.42,-246.5 196.42,-246.5"/>
<text text-anchor="middle" x="284.92" y="-253.5" font-family="Helvetica,sans-Serif" font-size="10.00">JSystem/JKernel/JKRCompression.h</text>
</a>
</g>
</g>
<!-- Node3&#45;&gt;Node4 -->
<g id="edge3" class="edge">
<title>Node3&#45;&gt;Node4</title>
<path fill="none" stroke="midnightblue" d="M378.18,-358.31C372.23,-345.16 359.68,-319.82 343.92,-302 333.44,-290.16 319.45,-279.33 307.72,-271.26"/>
<polygon fill="midnightblue" stroke="midnightblue" points="309.56,-268.28 299.29,-265.66 305.68,-274.11 309.56,-268.28"/>
</g>
<!-- Node5 -->
<g id="node5" class="node">
<title>Node5</title>
<g id="a_node5"><a xlink:href="JKRDecomp_8h.html" target="_top" xlink:title=" ">
<polygon fill="white" stroke="black" points="178.92,-302.5 178.92,-321.5 334.92,-321.5 334.92,-302.5 178.92,-302.5"/>
<text text-anchor="middle" x="256.92" y="-309.5" font-family="Helvetica,sans-Serif" font-size="10.00">JSystem/JKernel/JKRDecomp.h</text>
</a>
</g>
</g>
<!-- Node3&#45;&gt;Node5 -->
<g id="edge4" class="edge">
<title>Node3&#45;&gt;Node5</title>
<path fill="none" stroke="midnightblue" d="M362.11,-358.44C341.63,-349.6 309.43,-335.69 286.05,-325.59"/>
<polygon fill="midnightblue" stroke="midnightblue" points="287.2,-322.27 276.63,-321.52 284.42,-328.7 287.2,-322.27"/>
</g>
<!-- Node10 -->
<g id="node10" class="node">
<title>Node10</title>
<g id="a_node10"><a xlink:href="JKRHeap_8h.html" target="_top" xlink:title=" ">
<polygon fill="white" stroke="black" points="801.42,-185 801.42,-204 944.42,-204 944.42,-185 801.42,-185"/>
<text text-anchor="middle" x="872.92" y="-192" font-family="Helvetica,sans-Serif" font-size="10.00">JSystem/JKernel/JKRHeap.h</text>
</a>
</g>
</g>
<!-- Node3&#45;&gt;Node10 -->
<g id="edge35" class="edge">
<title>Node3&#45;&gt;Node10</title>
<path fill="none" stroke="midnightblue" d="M432.42,-358.45C506.44,-344.83 647.75,-314.68 759.92,-266 778.5,-257.94 824.57,-227.89 851.8,-209.73"/>
<polygon fill="midnightblue" stroke="midnightblue" points="853.89,-212.54 860.25,-204.07 849.99,-206.73 853.89,-212.54"/>
</g>
<!-- Node3&#45;&gt;Node14 -->
<g id="edge24" class="edge">
<title>Node3&#45;&gt;Node14</title>
<path fill="none" stroke="midnightblue" d="M391.65,-358.37C412.56,-339.81 462.05,-295.91 488.51,-272.44"/>
<polygon fill="midnightblue" stroke="midnightblue" points="491.07,-274.85 496.23,-265.59 486.43,-269.61 491.07,-274.85"/>
</g>
<!-- Node16 -->
<g id="node16" class="node">
<title>Node16</title>
<g id="a_node16"><a xlink:href="JKRFileLoader_8h.html" target="_top" xlink:title=" ">
<polygon fill="white" stroke="black" points="234.92,-185 234.92,-204 400.92,-204 400.92,-185 234.92,-185"/>
<text text-anchor="middle" x="317.92" y="-192" font-family="Helvetica,sans-Serif" font-size="10.00">JSystem/JKernel/JKRFileLoader.h</text>
</a>
</g>
</g>
<!-- Node3&#45;&gt;Node16 -->
<g id="edge31" class="edge">
<title>Node3&#45;&gt;Node16</title>
<path fill="none" stroke="midnightblue" d="M384.39,-358.22C389.72,-337.45 400.43,-284.18 381.92,-246 374.22,-230.12 358.84,-217.73 345.08,-209.2"/>
<polygon fill="midnightblue" stroke="midnightblue" points="346.78,-206.14 336.37,-204.15 343.27,-212.19 346.78,-206.14"/>
</g>
<!-- Node3&#45;&gt;Node17 -->
<g id="edge36" class="edge">
<title>Node3&#45;&gt;Node17</title>
<path fill="none" stroke="midnightblue" d="M336.91,-358.44C280.43,-347.7 184.73,-329.51 133.23,-319.72"/>
<polygon fill="midnightblue" stroke="midnightblue" points="133.72,-316.25 123.25,-317.82 132.42,-323.12 133.72,-316.25"/>
</g>
<!-- Node5&#45;&gt;Node4 -->
<g id="edge5" class="edge">
<title>Node5&#45;&gt;Node4</title>
<path fill="none" stroke="midnightblue" d="M261.54,-302.08C265.37,-294.69 270.94,-283.95 275.68,-274.81"/>
<polygon fill="midnightblue" stroke="midnightblue" points="278.88,-276.24 280.38,-265.75 272.67,-273.02 278.88,-276.24"/>
</g>
<!-- Node6 -->
<g id="node6" class="node">
<title>Node6</title>
<g id="a_node6"><a xlink:href="JKRThread_8h.html" target="_top" xlink:title=" ">
<polygon fill="white" stroke="black" points="600.92,-246.5 600.92,-265.5 750.92,-265.5 750.92,-246.5 600.92,-246.5"/>
<text text-anchor="middle" x="675.92" y="-253.5" font-family="Helvetica,sans-Serif" font-size="10.00">JSystem/JKernel/JKRThread.h</text>
</a>
</g>
</g>
<!-- Node5&#45;&gt;Node6 -->
<g id="edge6" class="edge">
<title>Node5&#45;&gt;Node6</title>
<path fill="none" stroke="midnightblue" d="M323.31,-302.44C398.39,-292.77 520.46,-277.04 599.46,-266.85"/>
<polygon fill="midnightblue" stroke="midnightblue" points="600.36,-270.27 609.83,-265.52 599.47,-263.32 600.36,-270.27"/>
</g>
<!-- Node5&#45;&gt;Node9 -->
<g id="edge23" class="edge">
<title>Node5&#45;&gt;Node9</title>
<path fill="none" stroke="midnightblue" d="M235.43,-302.39C219.71,-295 199.08,-282.87 186.92,-266 168,-239.77 168.92,-227.84 168.92,-195.5 168.92,-195.5 168.92,-195.5 168.92,-132 168.92,-52.07 254.79,-76.99 331.92,-56 480.81,-15.47 664.82,-10.19 752.22,-10.25"/>
<polygon fill="midnightblue" stroke="midnightblue" points="752.38,-13.75 762.39,-10.28 752.41,-6.75 752.38,-13.75"/>
</g>
<!-- Node7 -->
<g id="node7" class="node">
<title>Node7</title>
<g id="a_node7"><a xlink:href="JKRDisposer_8h.html" target="_top" xlink:title=" ">
<polygon fill="white" stroke="black" points="594.92,-123.5 594.92,-142.5 752.92,-142.5 752.92,-123.5 594.92,-123.5"/>
<text text-anchor="middle" x="673.92" y="-130.5" font-family="Helvetica,sans-Serif" font-size="10.00">JSystem/JKernel/JKRDisposer.h</text>
</a>
</g>
</g>
<!-- Node6&#45;&gt;Node7 -->
<g id="edge7" class="edge">
<title>Node6&#45;&gt;Node7</title>
<path fill="none" stroke="midnightblue" d="M685.47,-246.45C694,-238.12 705.9,-224.6 710.92,-210 715.39,-196.97 715.56,-191.97 710.92,-179 706.97,-168 699.06,-157.77 691.56,-149.85"/>
<polygon fill="midnightblue" stroke="midnightblue" points="693.93,-147.28 684.35,-142.76 689.02,-152.27 693.93,-147.28"/>
</g>
<!-- Node8 -->
<g id="node8" class="node">
<title>Node8</title>
<g id="a_node8"><a xlink:href="JSUList_8h.html" target="_top" xlink:title=" ">
<polygon fill="white" stroke="black" points="557.42,-62 557.42,-81 700.42,-81 700.42,-62 557.42,-62"/>
<text text-anchor="middle" x="628.92" y="-69" font-family="Helvetica,sans-Serif" font-size="10.00">JSystem/JSupport/JSUList.h</text>
</a>
</g>
</g>
<!-- Node6&#45;&gt;Node8 -->
<g id="edge20" class="edge">
<title>Node6&#45;&gt;Node8</title>
<path fill="none" stroke="midnightblue" d="M665.15,-246.24C644.94,-229.01 601.9,-188.41 585.92,-143 578.69,-122.46 595.17,-101.48 609.77,-87.81"/>
<polygon fill="midnightblue" stroke="midnightblue" points="612.31,-90.24 617.53,-81.02 607.7,-84.97 612.31,-90.24"/>
</g>
<!-- Node6&#45;&gt;Node9 -->
<g id="edge22" class="edge">
<title>Node6&#45;&gt;Node9</title>
<path fill="none" stroke="midnightblue" d="M654.36,-246.46C637.85,-238.98 615.51,-226.69 600.92,-210 553.26,-155.51 501.39,-111.45 547.92,-56 573.42,-25.6 685.03,-15.73 751.85,-12.53"/>
<polygon fill="midnightblue" stroke="midnightblue" points="752.34,-16.01 762.17,-12.07 752.03,-9.02 752.34,-16.01"/>
</g>
<!-- Node6&#45;&gt;Node10 -->
<g id="edge11" class="edge">
<title>Node6&#45;&gt;Node10</title>
<path fill="none" stroke="midnightblue" d="M704.14,-246.48C738.52,-236.09 796.73,-218.51 834.99,-206.95"/>
<polygon fill="midnightblue" stroke="midnightblue" points="836.18,-210.25 844.74,-204.01 834.16,-203.55 836.18,-210.25"/>
</g>
<!-- Node11 -->
<g id="node11" class="node">
<title>Node11</title>
<g id="a_node11"><a xlink:href="OS_8h.html" target="_top" xlink:title=" ">
<polygon fill="white" stroke="black" points="808.92,-123.5 808.92,-142.5 894.92,-142.5 894.92,-123.5 808.92,-123.5"/>
<text text-anchor="middle" x="851.92" y="-130.5" font-family="Helvetica,sans-Serif" font-size="10.00">dolphin/os/OS.h</text>
</a>
</g>
</g>
<!-- Node6&#45;&gt;Node11 -->
<g id="edge21" class="edge">
<title>Node6&#45;&gt;Node11</title>
<path fill="none" stroke="midnightblue" d="M688.29,-246.49C718.01,-226.06 793.68,-174.04 830.77,-148.54"/>
<polygon fill="midnightblue" stroke="midnightblue" points="833.06,-151.21 839.32,-142.66 829.09,-145.44 833.06,-151.21"/>
</g>
<!-- Node7&#45;&gt;Node8 -->
<g id="edge8" class="edge">
<title>Node7&#45;&gt;Node8</title>
<path fill="none" stroke="midnightblue" d="M667.47,-123.48C660.72,-114.55 649.95,-100.31 641.5,-89.14"/>
<polygon fill="midnightblue" stroke="midnightblue" points="644.17,-86.87 635.35,-81.01 638.59,-91.1 644.17,-86.87"/>
</g>
<!-- Node7&#45;&gt;Node9 -->
<g id="edge10" class="edge">
<title>Node7&#45;&gt;Node9</title>
<path fill="none" stroke="midnightblue" d="M681.83,-123.25C695.05,-108.78 722.67,-79.15 747.92,-56 759.39,-45.47 772.93,-34.38 783.7,-25.85"/>
<polygon fill="midnightblue" stroke="midnightblue" points="785.94,-28.54 791.65,-19.61 781.62,-23.03 785.94,-28.54"/>
</g>
<!-- Node8&#45;&gt;Node9 -->
<g id="edge9" class="edge">
<title>Node8&#45;&gt;Node9</title>
<path fill="none" stroke="midnightblue" d="M653.85,-61.98C683.95,-51.68 734.75,-34.31 768.55,-22.75"/>
<polygon fill="midnightblue" stroke="midnightblue" points="769.7,-26.06 778.03,-19.51 767.44,-19.43 769.7,-26.06"/>
</g>
<!-- Node10&#45;&gt;Node7 -->
<g id="edge12" class="edge">
<title>Node10&#45;&gt;Node7</title>
<path fill="none" stroke="midnightblue" d="M844.4,-184.98C809.68,-174.59 750.88,-157.01 712.22,-145.45"/>
<polygon fill="midnightblue" stroke="midnightblue" points="712.96,-142.02 702.37,-142.51 710.95,-148.73 712.96,-142.02"/>
</g>
<!-- Node10&#45;&gt;Node9 -->
<g id="edge19" class="edge">
<title>Node10&#45;&gt;Node9</title>
<path fill="none" stroke="midnightblue" d="M880.27,-184.91C887.9,-175.4 899.33,-159.24 903.92,-143 906.33,-134.45 905.77,-131.69 903.92,-123 897.1,-91.09 895.27,-80.67 873.92,-56 862.32,-42.6 845.75,-31.79 831.54,-24.13"/>
<polygon fill="midnightblue" stroke="midnightblue" points="833.11,-21 822.62,-19.55 829.92,-27.23 833.11,-21"/>
</g>
<!-- Node10&#45;&gt;Node11 -->
<g id="edge13" class="edge">
<title>Node10&#45;&gt;Node11</title>
<path fill="none" stroke="midnightblue" d="M869.91,-184.98C866.88,-176.4 862.12,-162.93 858.26,-151.98"/>
<polygon fill="midnightblue" stroke="midnightblue" points="861.55,-150.77 854.92,-142.51 854.95,-153.1 861.55,-150.77"/>
</g>
<!-- Node11&#45;&gt;Node9 -->
<g id="edge16" class="edge">
<title>Node11&#45;&gt;Node9</title>
<path fill="none" stroke="midnightblue" d="M855.38,-123.05C860.51,-108.29 868.46,-78.25 857.92,-56 851.79,-43.07 839.92,-32.62 828.77,-25.05"/>
<polygon fill="midnightblue" stroke="midnightblue" points="830.44,-21.97 820.11,-19.61 826.72,-27.9 830.44,-21.97"/>
</g>
<!-- Node12 -->
<g id="node12" class="node">
<title>Node12</title>
<g id="a_node12"><a xlink:href="____va__arg_8h.html" target="_top" xlink:title=" ">
<polygon fill="white" stroke="black" points="1026.92,-56.5 1026.92,-86.5 1136.92,-86.5 1136.92,-56.5 1026.92,-56.5"/>
<text text-anchor="start" x="1034.92" y="-74.5" font-family="Helvetica,sans-Serif" font-size="10.00">Runtime.PPCEABI.H/</text>
<text text-anchor="middle" x="1081.92" y="-63.5" font-family="Helvetica,sans-Serif" font-size="10.00">__va_arg.h</text>
</a>
</g>
</g>
<!-- Node11&#45;&gt;Node12 -->
<g id="edge14" class="edge">
<title>Node11&#45;&gt;Node12</title>
<path fill="none" stroke="midnightblue" d="M884.87,-123.48C919.44,-114.53 974.65,-100.25 1017.85,-89.07"/>
<polygon fill="midnightblue" stroke="midnightblue" points="1018.9,-92.42 1027.71,-86.52 1017.15,-85.64 1018.9,-92.42"/>
</g>
<!-- Node13 -->
<g id="node13" class="node">
<title>Node13</title>
<g id="a_node13"><a xlink:href="dvd_8h.html" target="_top" xlink:title=" ">
<polygon fill="white" stroke="black" points="756.92,-62 756.92,-81 848.92,-81 848.92,-62 756.92,-62"/>
<text text-anchor="middle" x="802.92" y="-69" font-family="Helvetica,sans-Serif" font-size="10.00">dolphin/dvd/dvd.h</text>
</a>
</g>
</g>
<!-- Node11&#45;&gt;Node13 -->
<g id="edge17" class="edge">
<title>Node11&#45;&gt;Node13</title>
<path fill="none" stroke="midnightblue" d="M844.89,-123.48C837.47,-114.46 825.58,-100.02 816.35,-88.81"/>
<polygon fill="midnightblue" stroke="midnightblue" points="818.98,-86.5 809.92,-81.01 813.58,-90.95 818.98,-86.5"/>
</g>
<!-- Node12&#45;&gt;Node9 -->
<g id="edge15" class="edge">
<title>Node12&#45;&gt;Node9</title>
<path fill="none" stroke="midnightblue" d="M1026.79,-58.74C976.24,-47.96 902,-32.13 853.07,-21.7"/>
<polygon fill="midnightblue" stroke="midnightblue" points="853.54,-18.22 843.03,-19.56 852.08,-25.06 853.54,-18.22"/>
</g>
<!-- Node13&#45;&gt;Node9 -->
<g id="edge18" class="edge">
<title>Node13&#45;&gt;Node9</title>
<path fill="none" stroke="midnightblue" d="M802.92,-61.98C802.92,-53.58 802.92,-40.48 802.92,-29.66"/>
<polygon fill="midnightblue" stroke="midnightblue" points="806.42,-29.51 802.92,-19.51 799.42,-29.51 806.42,-29.51"/>
</g>
<!-- Node14&#45;&gt;Node9 -->
<g id="edge30" class="edge">
<title>Node14&#45;&gt;Node9</title>
<path fill="none" stroke="midnightblue" d="M429.21,-247.77C350.92,-239.6 239.05,-225.41 225.92,-210 216.98,-199.51 219.08,-190.96 225.92,-179 279.42,-85.43 332.84,-90.6 434.92,-56 543.71,-19.12 679.67,-11.79 752.04,-10.74"/>
<polygon fill="midnightblue" stroke="midnightblue" points="752.28,-14.23 762.24,-10.62 752.21,-7.23 752.28,-14.23"/>
</g>
<!-- Node14&#45;&gt;Node11 -->
<g id="edge29" class="edge">
<title>Node14&#45;&gt;Node11</title>
<path fill="none" stroke="midnightblue" d="M530.65,-246.38C556.62,-237.33 598.64,-222.68 634.92,-210 699.63,-187.38 775.17,-160.91 817.89,-145.93"/>
<polygon fill="midnightblue" stroke="midnightblue" points="819.23,-149.17 827.51,-142.56 816.92,-142.56 819.23,-149.17"/>
</g>
<!-- Node14&#45;&gt;Node13 -->
<g id="edge28" class="edge">
<title>Node14&#45;&gt;Node13</title>
<path fill="none" stroke="midnightblue" d="M518.16,-246.32C540.44,-230.88 589.51,-198.43 634.92,-179 688.85,-155.92 715.57,-178.98 761.92,-143 779,-129.74 790.29,-107.2 796.62,-91.18"/>
<polygon fill="midnightblue" stroke="midnightblue" points="800.08,-91.92 800.22,-81.33 793.51,-89.52 800.08,-91.92"/>
</g>
<!-- Node15 -->
<g id="node15" class="node">
<title>Node15</title>
<g id="a_node15"><a xlink:href="JKRFile_8h.html" target="_top" xlink:title=" ">
<polygon fill="white" stroke="black" points="418.92,-185 418.92,-204 554.92,-204 554.92,-185 418.92,-185"/>
<text text-anchor="middle" x="486.92" y="-192" font-family="Helvetica,sans-Serif" font-size="10.00">JSystem/JKernel/JKRFile.h</text>
</a>
</g>
</g>
<!-- Node14&#45;&gt;Node15 -->
<g id="edge25" class="edge">
<title>Node14&#45;&gt;Node15</title>
<path fill="none" stroke="midnightblue" d="M503.19,-246.48C500.48,-237.99 496.24,-224.7 492.77,-213.82"/>
<polygon fill="midnightblue" stroke="midnightblue" points="496.01,-212.47 489.63,-204.01 489.34,-214.6 496.01,-212.47"/>
</g>
<!-- Node15&#45;&gt;Node7 -->
<g id="edge26" class="edge">
<title>Node15&#45;&gt;Node7</title>
<path fill="none" stroke="midnightblue" d="M513.71,-184.98C546.2,-174.64 601.12,-157.16 637.45,-145.6"/>
<polygon fill="midnightblue" stroke="midnightblue" points="638.7,-148.88 647.17,-142.51 636.58,-142.21 638.7,-148.88"/>
</g>
<!-- Node15&#45;&gt;Node9 -->
<g id="edge27" class="edge">
<title>Node15&#45;&gt;Node9</title>
<path fill="none" stroke="midnightblue" d="M485.68,-184.85C482.73,-160.56 478.1,-91.17 514.92,-56 548.05,-24.35 678.43,-14.96 751.88,-12.17"/>
<polygon fill="midnightblue" stroke="midnightblue" points="752.42,-15.66 762.29,-11.81 752.17,-8.66 752.42,-15.66"/>
</g>
<!-- Node16&#45;&gt;Node7 -->
<g id="edge32" class="edge">
<title>Node16&#45;&gt;Node7</title>
<path fill="none" stroke="midnightblue" d="M368.92,-184.98C433.29,-174.22 543.9,-155.73 612.74,-144.22"/>
<polygon fill="midnightblue" stroke="midnightblue" points="613.72,-147.61 623,-142.51 612.56,-140.71 613.72,-147.61"/>
</g>
<!-- Node16&#45;&gt;Node8 -->
<g id="edge33" class="edge">
<title>Node16&#45;&gt;Node8</title>
<path fill="none" stroke="midnightblue" d="M339.78,-184.99C393.86,-163.95 534.01,-109.42 597.2,-84.84"/>
<polygon fill="midnightblue" stroke="midnightblue" points="598.6,-88.05 606.65,-81.16 596.07,-81.53 598.6,-88.05"/>
</g>
<!-- Node16&#45;&gt;Node9 -->
<g id="edge34" class="edge">
<title>Node16&#45;&gt;Node9</title>
<path fill="none" stroke="midnightblue" d="M325.5,-184.87C347.92,-160 416.94,-87.92 490.92,-56 577.31,-18.72 688.38,-11.22 752.02,-10.31"/>
<polygon fill="midnightblue" stroke="midnightblue" points="752.23,-13.81 762.2,-10.22 752.16,-6.81 752.23,-13.81"/>
</g>
<!-- Node17&#45;&gt;Node9 -->
<g id="edge37" class="edge">
<title>Node17&#45;&gt;Node9</title>
<path fill="none" stroke="midnightblue" d="M97.28,-302.31C95.94,-283.08 92.92,-235.44 92.92,-195.5 92.92,-195.5 92.92,-195.5 92.92,-132 92.92,-96.58 89.05,-77.86 116.92,-56 166.49,-17.11 601.1,-11.76 751.76,-11.08"/>
<polygon fill="midnightblue" stroke="midnightblue" points="752.12,-14.58 762.11,-11.04 752.09,-7.58 752.12,-14.58"/>
</g>
<!-- Node18&#45;&gt;Node5 -->
<g id="edge41" class="edge">
<title>Node18&#45;&gt;Node5</title>
<path fill="none" stroke="midnightblue" d="M121.43,-358.44C148.51,-349.36 191.51,-334.94 221.78,-324.78"/>
<polygon fill="midnightblue" stroke="midnightblue" points="223.16,-328.01 231.52,-321.52 220.93,-321.38 223.16,-328.01"/>
</g>
<!-- Node18&#45;&gt;Node9 -->
<g id="edge42" class="edge">
<title>Node18&#45;&gt;Node9</title>
<path fill="none" stroke="midnightblue" d="M88.34,-358.26C81.16,-349.58 70.52,-335.63 63.92,-322 50.79,-294.92 44.92,-287.1 44.92,-257 44.92,-257 44.92,-257 44.92,-132 44.92,-92.28 57.85,-76.42 91.92,-56 148.11,-22.31 598.34,-13.56 751.85,-11.55"/>
<polygon fill="midnightblue" stroke="midnightblue" points="752,-15.05 761.95,-11.42 751.91,-8.05 752,-15.05"/>
</g>
<!-- Node19&#45;&gt;Node9 -->
<g id="edge45" class="edge">
<title>Node19&#45;&gt;Node9</title>
<path fill="none" stroke="midnightblue" d="M965.7,-252.13C1033.43,-247.82 1123.16,-237.03 1145.92,-210 1189.99,-157.64 1191.06,-107.45 1145.92,-56 1126.94,-34.37 944.21,-19.91 853.49,-14"/>
<polygon fill="midnightblue" stroke="midnightblue" points="853.63,-10.51 843.43,-13.36 853.18,-17.49 853.63,-10.51"/>
</g>
<!-- Node19&#45;&gt;Node10 -->
<g id="edge44" class="edge">
<title>Node19&#45;&gt;Node10</title>
<path fill="none" stroke="midnightblue" d="M884.05,-246.48C882.2,-237.99 879.3,-224.7 876.92,-213.82"/>
<polygon fill="midnightblue" stroke="midnightblue" points="880.33,-213.03 874.77,-204.01 873.49,-214.53 880.33,-213.03"/>
</g>
<!-- Node20&#45;&gt;Node6 -->
<g id="edge47" class="edge">
<title>Node20&#45;&gt;Node6</title>
<path fill="none" stroke="midnightblue" d="M1006.64,-302.44C936.36,-292.79 822.19,-277.1 748.08,-266.92"/>
<polygon fill="midnightblue" stroke="midnightblue" points="748.28,-263.41 737.9,-265.52 747.33,-270.35 748.28,-263.41"/>
</g>
<!-- Node20&#45;&gt;Node9 -->
<g id="edge63" class="edge">
<title>Node20&#45;&gt;Node9</title>
<path fill="none" stroke="midnightblue" d="M1085.9,-302.4C1100.16,-294.5 1120.34,-281.66 1133.92,-266 1195.96,-194.46 1232.67,-126.92 1169.92,-56 1149.29,-32.69 949.3,-18.87 853.54,-13.54"/>
<polygon fill="midnightblue" stroke="midnightblue" points="853.67,-10.04 843.5,-12.99 853.29,-17.03 853.67,-10.04"/>
</g>
<!-- Node20&#45;&gt;Node11 -->
<g id="edge62" class="edge">
<title>Node20&#45;&gt;Node11</title>
<path fill="none" stroke="midnightblue" d="M1063.46,-302.44C1048.5,-279.59 1004.57,-216.31 953.92,-179 934.36,-164.6 909.47,-153.5 889.18,-145.93"/>
<polygon fill="midnightblue" stroke="midnightblue" points="890.22,-142.59 879.63,-142.5 887.85,-149.18 890.22,-142.59"/>
</g>
<!-- Node20&#45;&gt;Node12 -->
<g id="edge55" class="edge">
<title>Node20&#45;&gt;Node12</title>
<path fill="none" stroke="midnightblue" d="M1078.68,-302.49C1096.21,-286.48 1132.44,-249.9 1145.92,-210 1158.49,-172.75 1149.42,-157.13 1129.92,-123 1123.85,-112.39 1115.09,-102.28 1106.71,-93.94"/>
<polygon fill="midnightblue" stroke="midnightblue" points="1108.87,-91.16 1099.21,-86.81 1104.05,-96.24 1108.87,-91.16"/>
</g>
<!-- Node21 -->
<g id="node21" class="node">
<title>Node21</title>
<g id="a_node21"><a xlink:href="JUTGamePad_8h.html" target="_top" xlink:title=" ">
<polygon fill="white" stroke="black" points="1000.92,-179.5 1000.92,-209.5 1136.92,-209.5 1136.92,-179.5 1000.92,-179.5"/>
<text text-anchor="start" x="1008.92" y="-197.5" font-family="Helvetica,sans-Serif" font-size="10.00">JSystem/JUtility/JUTGame</text>
<text text-anchor="middle" x="1068.92" y="-186.5" font-family="Helvetica,sans-Serif" font-size="10.00">Pad.h</text>
</a>
</g>
</g>
<!-- Node20&#45;&gt;Node21 -->
<g id="edge48" class="edge">
<title>Node20&#45;&gt;Node21</title>
<path fill="none" stroke="midnightblue" d="M1068.92,-302.32C1068.92,-284.97 1068.92,-245.46 1068.92,-219.66"/>
<polygon fill="midnightblue" stroke="midnightblue" points="1072.42,-219.55 1068.92,-209.55 1065.42,-219.55 1072.42,-219.55"/>
</g>
<!-- Node23 -->
<g id="node23" class="node">
<title>Node23</title>
<g id="a_node23"><a xlink:href="GX_8h.html" target="_top" xlink:title=" ">
<polygon fill="white" stroke="black" points="1281.42,-123.5 1281.42,-142.5 1366.42,-142.5 1366.42,-123.5 1281.42,-123.5"/>
<text text-anchor="middle" x="1323.92" y="-130.5" font-family="Helvetica,sans-Serif" font-size="10.00">dolphin/gx/GX.h</text>
</a>
</g>
</g>
<!-- Node20&#45;&gt;Node23 -->
<g id="edge56" class="edge">
<title>Node20&#45;&gt;Node23</title>
<path fill="none" stroke="midnightblue" d="M1148.63,-306.49C1184.22,-300.99 1224.81,-289.52 1254.92,-266 1292.33,-236.77 1311.57,-181.56 1319.46,-152.68"/>
<polygon fill="midnightblue" stroke="midnightblue" points="1322.93,-153.24 1322.02,-142.69 1316.15,-151.51 1322.93,-153.24"/>
</g>
<!-- Node21&#45;&gt;Node7 -->
<g id="edge49" class="edge">
<title>Node21&#45;&gt;Node7</title>
<path fill="none" stroke="midnightblue" d="M1000.56,-183.2C927.59,-172.21 812.74,-154.91 740.47,-144.03"/>
<polygon fill="midnightblue" stroke="midnightblue" points="740.98,-140.56 730.57,-142.53 739.93,-147.48 740.98,-140.56"/>
</g>
<!-- Node21&#45;&gt;Node8 -->
<g id="edge50" class="edge">
<title>Node21&#45;&gt;Node8</title>
<path fill="none" stroke="midnightblue" d="M1041.3,-179.45C1009.09,-163.59 953.87,-138.06 903.92,-123 839.71,-103.65 764.71,-90.48 709.27,-82.45"/>
<polygon fill="midnightblue" stroke="midnightblue" points="709.55,-78.95 699.15,-81.01 708.56,-85.89 709.55,-78.95"/>
</g>
<!-- Node21&#45;&gt;Node9 -->
<g id="edge54" class="edge">
<title>Node21&#45;&gt;Node9</title>
<path fill="none" stroke="midnightblue" d="M1053.82,-179.3C1025.09,-152.76 959.89,-94.84 897.92,-56 877.64,-43.29 853.2,-31.79 834.19,-23.6"/>
<polygon fill="midnightblue" stroke="midnightblue" points="835.37,-20.3 824.8,-19.63 832.65,-26.75 835.37,-20.3"/>
</g>
<!-- Node21&#45;&gt;Node11 -->
<g id="edge51" class="edge">
<title>Node21&#45;&gt;Node11</title>
<path fill="none" stroke="midnightblue" d="M1017.76,-179.47C979.67,-169.03 928.35,-154.96 892.93,-145.25"/>
<polygon fill="midnightblue" stroke="midnightblue" points="893.51,-141.78 882.94,-142.51 891.66,-148.53 893.51,-141.78"/>
</g>
<!-- Node22 -->
<g id="node22" class="node">
<title>Node22</title>
<g id="a_node22"><a xlink:href="Pad_8h.html" target="_top" xlink:title=" ">
<polygon fill="white" stroke="black" points="1026.92,-123.5 1026.92,-142.5 1120.92,-142.5 1120.92,-123.5 1026.92,-123.5"/>
<text text-anchor="middle" x="1073.92" y="-130.5" font-family="Helvetica,sans-Serif" font-size="10.00">dolphin/pad/Pad.h</text>
</a>
</g>
</g>
<!-- Node21&#45;&gt;Node22 -->
<g id="edge52" class="edge">
<title>Node21&#45;&gt;Node22</title>
<path fill="none" stroke="midnightblue" d="M1070.1,-179.4C1070.77,-171.47 1071.61,-161.46 1072.33,-152.86"/>
<polygon fill="midnightblue" stroke="midnightblue" points="1075.84,-152.92 1073.19,-142.66 1068.86,-152.33 1075.84,-152.92"/>
</g>
<!-- Node22&#45;&gt;Node9 -->
<g id="edge53" class="edge">
<title>Node22&#45;&gt;Node9</title>
<path fill="none" stroke="midnightblue" d="M1063.17,-123.36C1039.6,-104.47 984.65,-60.76 974.92,-56 936.31,-37.1 888.81,-25.45 853.52,-18.75"/>
<polygon fill="midnightblue" stroke="midnightblue" points="853.91,-15.26 843.44,-16.91 852.65,-22.15 853.91,-15.26"/>
</g>
<!-- Node23&#45;&gt;Node9 -->
<g id="edge61" class="edge">
<title>Node23&#45;&gt;Node9</title>
<path fill="none" stroke="midnightblue" d="M1311.82,-123.35C1284.1,-103.53 1218.26,-56.51 1216.92,-56 1151.62,-31.2 949.07,-18.2 853.63,-13.32"/>
<polygon fill="midnightblue" stroke="midnightblue" points="853.8,-9.82 843.64,-12.82 853.45,-16.81 853.8,-9.82"/>
</g>
<!-- Node24 -->
<g id="node24" class="node">
<title>Node24</title>
<g id="a_node24"><a xlink:href="GXDisplayList_8h.html" target="_top" xlink:title=" ">
<polygon fill="white" stroke="black" points="1269.42,-62 1269.42,-81 1402.42,-81 1402.42,-62 1269.42,-62"/>
<text text-anchor="middle" x="1335.92" y="-69" font-family="Helvetica,sans-Serif" font-size="10.00">dolphin/gx/GXDisplayList.h</text>
</a>
</g>
</g>
<!-- Node23&#45;&gt;Node24 -->
<g id="edge57" class="edge">
<title>Node23&#45;&gt;Node24</title>
<path fill="none" stroke="midnightblue" d="M1325.63,-123.48C1327.35,-114.99 1330.03,-101.7 1332.22,-90.82"/>
<polygon fill="midnightblue" stroke="midnightblue" points="1335.65,-91.5 1334.2,-81.01 1328.79,-90.12 1335.65,-91.5"/>
</g>
<!-- Node25 -->
<g id="node25" class="node">
<title>Node25</title>
<g id="a_node25"><a xlink:href="GXTexture_8h.html" target="_top" xlink:title=" ">
<polygon fill="white" stroke="black" points="1420.42,-62 1420.42,-81 1537.42,-81 1537.42,-62 1420.42,-62"/>
<text text-anchor="middle" x="1478.92" y="-69" font-family="Helvetica,sans-Serif" font-size="10.00">dolphin/gx/GXTexture.h</text>
</a>
</g>
</g>
<!-- Node23&#45;&gt;Node25 -->
<g id="edge59" class="edge">
<title>Node23&#45;&gt;Node25</title>
<path fill="none" stroke="midnightblue" d="M1346.12,-123.48C1372.6,-113.31 1417.03,-96.26 1447.13,-84.7"/>
<polygon fill="midnightblue" stroke="midnightblue" points="1448.67,-87.86 1456.75,-81.01 1446.16,-81.33 1448.67,-87.86"/>
</g>
<!-- Node24&#45;&gt;Node9 -->
<g id="edge58" class="edge">
<title>Node24&#45;&gt;Node9</title>
<path fill="none" stroke="midnightblue" d="M1291.87,-61.97C1279.91,-59.83 1266.94,-57.67 1254.92,-56 1109.83,-35.82 937.32,-21.23 853.57,-14.75"/>
<polygon fill="midnightblue" stroke="midnightblue" points="853.8,-11.26 843.56,-13.98 853.26,-18.23 853.8,-11.26"/>
</g>
<!-- Node25&#45;&gt;Node9 -->
<g id="edge60" class="edge">
<title>Node25&#45;&gt;Node9</title>
<path fill="none" stroke="midnightblue" d="M1443.96,-61.97C1433.69,-59.73 1422.4,-57.51 1411.92,-56 1206.49,-26.33 959.09,-15.72 854.06,-12.37"/>
<polygon fill="midnightblue" stroke="midnightblue" points="853.86,-8.87 843.75,-12.05 853.64,-15.86 853.86,-8.87"/>
</g>
</g>
</svg>
