<?xml version="1.0" encoding="UTF-8" standalone="no"?>
<!DOCTYPE svg PUBLIC "-//W3C//DTD SVG 1.1//EN"
 "http://www.w3.org/Graphics/SVG/1.1/DTD/svg11.dtd">
<!-- Generated by graphviz version 2.44.0 ()
 -->
<!-- Title: include/JSystem/JKernel/JKRDvdAramRipper.h Pages: 1 -->
<svg width="985pt" height="408pt"
 viewBox="0.00 0.00 985.02 408.00" xmlns="http://www.w3.org/2000/svg" xmlns:xlink="http://www.w3.org/1999/xlink">
<g id="graph0" class="graph" transform="scale(1 1) rotate(0) translate(4 404)">
<title>include/JSystem/JKernel/JKRDvdAramRipper.h</title>
<polygon fill="white" stroke="transparent" points="-4,4 -4,-404 981.02,-404 981.02,4 -4,4"/>
<!-- Node1 -->
<g id="node1" class="node">
<title>Node1</title>
<g id="a_node1"><a xlink:title=" ">
<polygon fill="#bfbfbf" stroke="black" points="477.5,-369.5 477.5,-399.5 602.5,-399.5 602.5,-369.5 477.5,-369.5"/>
<text text-anchor="start" x="485.5" y="-387.5" font-family="Helvetica,sans-Serif" font-size="10.00">include/JSystem/JKernel</text>
<text text-anchor="middle" x="540" y="-376.5" font-family="Helvetica,sans-Serif" font-size="10.00">/JKRDvdAramRipper.h</text>
</a>
</g>
</g>
<!-- Node2 -->
<g id="node2" class="node">
<title>Node2</title>
<g id="a_node2"><a xlink:href="JKRDvdRipper_8h.html" target="_top" xlink:title=" ">
<polygon fill="white" stroke="black" points="149.5,-313.5 149.5,-332.5 314.5,-332.5 314.5,-313.5 149.5,-313.5"/>
<text text-anchor="middle" x="232" y="-320.5" font-family="Helvetica,sans-Serif" font-size="10.00">JSystem/JKernel/JKRDvdRipper.h</text>
</a>
</g>
</g>
<!-- Node1&#45;&gt;Node2 -->
<g id="edge1" class="edge">
<title>Node1&#45;&gt;Node2</title>
<path fill="none" stroke="midnightblue" d="M477.3,-371.39C421.12,-360.53 339.57,-344.78 286.16,-334.46"/>
<polygon fill="midnightblue" stroke="midnightblue" points="286.69,-331 276.2,-332.54 285.36,-337.87 286.69,-331"/>
</g>
<!-- Node8 -->
<g id="node8" class="node">
<title>Node8</title>
<g id="a_node8"><a xlink:href="types_8h.html" target="_top" xlink:title=" ">
<polygon fill="white" stroke="black" points="577.5,-0.5 577.5,-19.5 658.5,-19.5 658.5,-0.5 577.5,-0.5"/>
<text text-anchor="middle" x="618" y="-7.5" font-family="Helvetica,sans-Serif" font-size="10.00">dolphin/types.h</text>
</a>
</g>
</g>
<!-- Node1&#45;&gt;Node8 -->
<g id="edge28" class="edge">
<title>Node1&#45;&gt;Node8</title>
<path fill="none" stroke="midnightblue" d="M537,-369.31C530.31,-333.71 517.83,-239.19 559,-179 579.2,-149.47 612.19,-173.43 631,-143 653.02,-107.38 637.19,-55.75 626.18,-28.84"/>
<polygon fill="midnightblue" stroke="midnightblue" points="629.33,-27.31 622.15,-19.52 622.91,-30.09 629.33,-27.31"/>
</g>
<!-- Node11 -->
<g id="node11" class="node">
<title>Node11</title>
<g id="a_node11"><a xlink:href="JSUFileStream_8h.html" target="_top" xlink:title=" ">
<polygon fill="white" stroke="black" points="616.5,-246.5 616.5,-276.5 751.5,-276.5 751.5,-246.5 616.5,-246.5"/>
<text text-anchor="start" x="624.5" y="-264.5" font-family="Helvetica,sans-Serif" font-size="10.00">JSystem/JSupport/JSUFile</text>
<text text-anchor="middle" x="684" y="-253.5" font-family="Helvetica,sans-Serif" font-size="10.00">Stream.h</text>
</a>
</g>
</g>
<!-- Node1&#45;&gt;Node11 -->
<g id="edge17" class="edge">
<title>Node1&#45;&gt;Node11</title>
<path fill="none" stroke="midnightblue" d="M556.8,-369.38C582.16,-348.07 630.36,-307.57 659.6,-283"/>
<polygon fill="midnightblue" stroke="midnightblue" points="661.9,-285.64 667.31,-276.53 657.4,-280.28 661.9,-285.64"/>
</g>
<!-- Node3 -->
<g id="node3" class="node">
<title>Node3</title>
<g id="a_node3"><a xlink:href="JKRDecomp_8h.html" target="_top" xlink:title=" ">
<polygon fill="white" stroke="black" points="154,-252 154,-271 310,-271 310,-252 154,-252"/>
<text text-anchor="middle" x="232" y="-259" font-family="Helvetica,sans-Serif" font-size="10.00">JSystem/JKernel/JKRDecomp.h</text>
</a>
</g>
</g>
<!-- Node2&#45;&gt;Node3 -->
<g id="edge2" class="edge">
<title>Node2&#45;&gt;Node3</title>
<path fill="none" stroke="midnightblue" d="M232,-313.48C232,-305.08 232,-291.98 232,-281.16"/>
<polygon fill="midnightblue" stroke="midnightblue" points="235.5,-281.01 232,-271.01 228.5,-281.01 235.5,-281.01"/>
</g>
<!-- Node2&#45;&gt;Node8 -->
<g id="edge16" class="edge">
<title>Node2&#45;&gt;Node8</title>
<path fill="none" stroke="midnightblue" d="M161.45,-313.48C93.19,-300.83 0,-269.93 0,-195.5 0,-195.5 0,-195.5 0,-126.5 0,-68.94 419.58,-27.82 567.3,-15.13"/>
<polygon fill="midnightblue" stroke="midnightblue" points="567.78,-18.6 577.45,-14.26 567.19,-11.62 567.78,-18.6"/>
</g>
<!-- Node4 -->
<g id="node4" class="node">
<title>Node4</title>
<g id="a_node4"><a xlink:href="JKRCompression_8h.html" target="_top" xlink:title=" ">
<polygon fill="white" stroke="black" points="27.5,-185 27.5,-204 204.5,-204 204.5,-185 27.5,-185"/>
<text text-anchor="middle" x="116" y="-192" font-family="Helvetica,sans-Serif" font-size="10.00">JSystem/JKernel/JKRCompression.h</text>
</a>
</g>
</g>
<!-- Node3&#45;&gt;Node4 -->
<g id="edge3" class="edge">
<title>Node3&#45;&gt;Node4</title>
<path fill="none" stroke="midnightblue" d="M216.36,-251.73C196.79,-240.77 163.08,-221.88 140.18,-209.05"/>
<polygon fill="midnightblue" stroke="midnightblue" points="141.83,-205.96 131.4,-204.13 138.41,-212.07 141.83,-205.96"/>
</g>
<!-- Node5 -->
<g id="node5" class="node">
<title>Node5</title>
<g id="a_node5"><a xlink:href="JKRThread_8h.html" target="_top" xlink:title=" ">
<polygon fill="white" stroke="black" points="268,-185 268,-204 418,-204 418,-185 268,-185"/>
<text text-anchor="middle" x="343" y="-192" font-family="Helvetica,sans-Serif" font-size="10.00">JSystem/JKernel/JKRThread.h</text>
</a>
</g>
</g>
<!-- Node3&#45;&gt;Node5 -->
<g id="edge4" class="edge">
<title>Node3&#45;&gt;Node5</title>
<path fill="none" stroke="midnightblue" d="M246.97,-251.73C265.61,-240.82 297.66,-222.05 319.57,-209.22"/>
<polygon fill="midnightblue" stroke="midnightblue" points="321.41,-212.2 328.27,-204.13 317.87,-206.16 321.41,-212.2"/>
</g>
<!-- Node3&#45;&gt;Node8 -->
<g id="edge15" class="edge">
<title>Node3&#45;&gt;Node8</title>
<path fill="none" stroke="midnightblue" d="M231.58,-251.8C230.57,-219.91 231.71,-108.6 293,-56 333.13,-21.56 486,-13.41 566.97,-11.53"/>
<polygon fill="midnightblue" stroke="midnightblue" points="567.5,-15.02 577.42,-11.31 567.35,-8.02 567.5,-15.02"/>
</g>
<!-- Node6 -->
<g id="node6" class="node">
<title>Node6</title>
<g id="a_node6"><a xlink:href="JKRDisposer_8h.html" target="_top" xlink:title=" ">
<polygon fill="white" stroke="black" points="464,-118 464,-137 622,-137 622,-118 464,-118"/>
<text text-anchor="middle" x="543" y="-125" font-family="Helvetica,sans-Serif" font-size="10.00">JSystem/JKernel/JKRDisposer.h</text>
</a>
</g>
</g>
<!-- Node5&#45;&gt;Node6 -->
<g id="edge5" class="edge">
<title>Node5&#45;&gt;Node6</title>
<path fill="none" stroke="midnightblue" d="M369.56,-184.87C404.92,-173.38 467.59,-153.01 507.13,-140.16"/>
<polygon fill="midnightblue" stroke="midnightblue" points="508.22,-143.48 516.65,-137.06 506.06,-136.83 508.22,-143.48"/>
</g>
<!-- Node7 -->
<g id="node7" class="node">
<title>Node7</title>
<g id="a_node7"><a xlink:href="JSUList_8h.html" target="_top" xlink:title=" ">
<polygon fill="white" stroke="black" points="446.5,-56.5 446.5,-75.5 589.5,-75.5 589.5,-56.5 446.5,-56.5"/>
<text text-anchor="middle" x="518" y="-63.5" font-family="Helvetica,sans-Serif" font-size="10.00">JSystem/JSupport/JSUList.h</text>
</a>
</g>
</g>
<!-- Node5&#45;&gt;Node7 -->
<g id="edge9" class="edge">
<title>Node5&#45;&gt;Node7</title>
<path fill="none" stroke="midnightblue" d="M354.75,-184.9C375.12,-170 418.33,-138.44 455,-112 469.21,-101.75 485.29,-90.27 497.64,-81.47"/>
<polygon fill="midnightblue" stroke="midnightblue" points="499.78,-84.25 505.9,-75.6 495.72,-78.54 499.78,-84.25"/>
</g>
<!-- Node5&#45;&gt;Node8 -->
<g id="edge14" class="edge">
<title>Node5&#45;&gt;Node8</title>
<path fill="none" stroke="midnightblue" d="M328.89,-184.68C316.28,-175.88 298.65,-161.08 291,-143 275.28,-105.83 284.68,-80.17 317,-56 355.59,-27.13 492.02,-16.56 567.26,-12.86"/>
<polygon fill="midnightblue" stroke="midnightblue" points="567.63,-16.35 577.45,-12.38 567.3,-9.36 567.63,-16.35"/>
</g>
<!-- Node9 -->
<g id="node9" class="node">
<title>Node9</title>
<g id="a_node9"><a xlink:href="OS_8h.html" target="_top" xlink:title=" ">
<polygon fill="white" stroke="black" points="300,-118 300,-137 386,-137 386,-118 300,-118"/>
<text text-anchor="middle" x="343" y="-125" font-family="Helvetica,sans-Serif" font-size="10.00">dolphin/os/OS.h</text>
</a>
</g>
</g>
<!-- Node5&#45;&gt;Node9 -->
<g id="edge10" class="edge">
<title>Node5&#45;&gt;Node9</title>
<path fill="none" stroke="midnightblue" d="M343,-184.73C343,-175.18 343,-159.62 343,-147.28"/>
<polygon fill="midnightblue" stroke="midnightblue" points="346.5,-147.13 343,-137.13 339.5,-147.13 346.5,-147.13"/>
</g>
<!-- Node6&#45;&gt;Node7 -->
<g id="edge6" class="edge">
<title>Node6&#45;&gt;Node7</title>
<path fill="none" stroke="midnightblue" d="M539.42,-117.98C535.82,-109.4 530.15,-95.93 525.56,-84.98"/>
<polygon fill="midnightblue" stroke="midnightblue" points="528.68,-83.37 521.58,-75.51 522.22,-86.08 528.68,-83.37"/>
</g>
<!-- Node6&#45;&gt;Node8 -->
<g id="edge8" class="edge">
<title>Node6&#45;&gt;Node8</title>
<path fill="none" stroke="midnightblue" d="M556.5,-117.67C569.25,-108.65 588,-93.52 599,-76 607.89,-61.84 612.77,-43.36 615.34,-29.72"/>
<polygon fill="midnightblue" stroke="midnightblue" points="618.84,-30.05 617.01,-19.61 611.93,-28.91 618.84,-30.05"/>
</g>
<!-- Node7&#45;&gt;Node8 -->
<g id="edge7" class="edge">
<title>Node7&#45;&gt;Node8</title>
<path fill="none" stroke="midnightblue" d="M534.07,-56.32C549.96,-47.74 574.51,-34.49 592.96,-24.52"/>
<polygon fill="midnightblue" stroke="midnightblue" points="594.84,-27.49 601.97,-19.65 591.51,-21.33 594.84,-27.49"/>
</g>
<!-- Node9&#45;&gt;Node8 -->
<g id="edge11" class="edge">
<title>Node9&#45;&gt;Node8</title>
<path fill="none" stroke="midnightblue" d="M336.66,-117.54C327.14,-102.91 311.81,-73.72 327,-56 357.35,-20.6 492.21,-12.8 567.22,-11.24"/>
<polygon fill="midnightblue" stroke="midnightblue" points="567.45,-14.74 577.39,-11.06 567.33,-7.74 567.45,-14.74"/>
</g>
<!-- Node10 -->
<g id="node10" class="node">
<title>Node10</title>
<g id="a_node10"><a xlink:href="dvd_8h.html" target="_top" xlink:title=" ">
<polygon fill="white" stroke="black" points="336,-56.5 336,-75.5 428,-75.5 428,-56.5 336,-56.5"/>
<text text-anchor="middle" x="382" y="-63.5" font-family="Helvetica,sans-Serif" font-size="10.00">dolphin/dvd/dvd.h</text>
</a>
</g>
</g>
<!-- Node9&#45;&gt;Node10 -->
<g id="edge12" class="edge">
<title>Node9&#45;&gt;Node10</title>
<path fill="none" stroke="midnightblue" d="M348.59,-117.98C354.38,-109.14 363.59,-95.09 370.87,-83.98"/>
<polygon fill="midnightblue" stroke="midnightblue" points="373.87,-85.79 376.42,-75.51 368.01,-81.95 373.87,-85.79"/>
</g>
<!-- Node10&#45;&gt;Node8 -->
<g id="edge13" class="edge">
<title>Node10&#45;&gt;Node8</title>
<path fill="none" stroke="midnightblue" d="M419.39,-56.44C460.39,-47.06 526.25,-31.99 570.78,-21.8"/>
<polygon fill="midnightblue" stroke="midnightblue" points="571.81,-25.16 580.78,-19.52 570.25,-18.34 571.81,-25.16"/>
</g>
<!-- Node11&#45;&gt;Node8 -->
<g id="edge27" class="edge">
<title>Node11&#45;&gt;Node8</title>
<path fill="none" stroke="midnightblue" d="M694.81,-246.37C701.49,-236.71 709.46,-223.29 713,-210 725.85,-161.81 701.6,-77.32 687,-56 677.54,-42.2 662.32,-31.61 648.57,-24.18"/>
<polygon fill="midnightblue" stroke="midnightblue" points="649.89,-20.93 639.38,-19.55 646.73,-27.18 649.89,-20.93"/>
</g>
<!-- Node12 -->
<g id="node12" class="node">
<title>Node12</title>
<g id="a_node12"><a xlink:href="JKRFile_8h.html" target="_top" xlink:title=" ">
<polygon fill="white" stroke="black" points="568,-185 568,-204 704,-204 704,-185 568,-185"/>
<text text-anchor="middle" x="636" y="-192" font-family="Helvetica,sans-Serif" font-size="10.00">JSystem/JKernel/JKRFile.h</text>
</a>
</g>
</g>
<!-- Node11&#45;&gt;Node12 -->
<g id="edge18" class="edge">
<title>Node11&#45;&gt;Node12</title>
<path fill="none" stroke="midnightblue" d="M673.58,-246.4C666.17,-236.36 656.19,-222.84 648.37,-212.25"/>
<polygon fill="midnightblue" stroke="midnightblue" points="651.18,-210.16 642.42,-204.19 645.55,-214.32 651.18,-210.16"/>
</g>
<!-- Node13 -->
<g id="node13" class="node">
<title>Node13</title>
<g id="a_node13"><a xlink:href="JSURandomInputStream_8h.html" target="_top" xlink:title=" ">
<polygon fill="white" stroke="black" points="760.5,-179.5 760.5,-209.5 915.5,-209.5 915.5,-179.5 760.5,-179.5"/>
<text text-anchor="start" x="768.5" y="-197.5" font-family="Helvetica,sans-Serif" font-size="10.00">JSystem/JSupport/JSURandom</text>
<text text-anchor="middle" x="838" y="-186.5" font-family="Helvetica,sans-Serif" font-size="10.00">InputStream.h</text>
</a>
</g>
</g>
<!-- Node11&#45;&gt;Node13 -->
<g id="edge21" class="edge">
<title>Node11&#45;&gt;Node13</title>
<path fill="none" stroke="midnightblue" d="M717.42,-246.4C740.22,-236.77 770.63,-223.94 795.2,-213.56"/>
<polygon fill="midnightblue" stroke="midnightblue" points="796.8,-216.69 804.65,-209.58 794.08,-210.24 796.8,-216.69"/>
</g>
<!-- Node12&#45;&gt;Node6 -->
<g id="edge19" class="edge">
<title>Node12&#45;&gt;Node6</title>
<path fill="none" stroke="midnightblue" d="M623.46,-184.73C608.12,-174.01 581.94,-155.72 563.62,-142.91"/>
<polygon fill="midnightblue" stroke="midnightblue" points="565.55,-139.99 555.34,-137.13 561.54,-145.72 565.55,-139.99"/>
</g>
<!-- Node12&#45;&gt;Node8 -->
<g id="edge20" class="edge">
<title>Node12&#45;&gt;Node8</title>
<path fill="none" stroke="midnightblue" d="M643.5,-184.93C651.28,-175.42 663.01,-159.28 668,-143 679.33,-106.02 686.08,-91.18 670,-56 664.22,-43.36 652.95,-32.91 642.37,-25.27"/>
<polygon fill="midnightblue" stroke="midnightblue" points="644.04,-22.18 633.78,-19.53 640.15,-28 644.04,-22.18"/>
</g>
<!-- Node13&#45;&gt;Node8 -->
<g id="edge26" class="edge">
<title>Node13&#45;&gt;Node8</title>
<path fill="none" stroke="midnightblue" d="M827.05,-179.1C819.54,-169.1 809.44,-155.4 801,-143 775.24,-105.19 781.78,-84.5 746,-56 723.63,-38.19 693.7,-27.15 668.4,-20.47"/>
<polygon fill="midnightblue" stroke="midnightblue" points="669.15,-17.05 658.6,-18.03 667.46,-23.84 669.15,-17.05"/>
</g>
<!-- Node14 -->
<g id="node14" class="node">
<title>Node14</title>
<g id="a_node14"><a xlink:href="JSUInputStream_8h.html" target="_top" xlink:title=" ">
<polygon fill="white" stroke="black" points="809.5,-112.5 809.5,-142.5 950.5,-142.5 950.5,-112.5 809.5,-112.5"/>
<text text-anchor="start" x="817.5" y="-130.5" font-family="Helvetica,sans-Serif" font-size="10.00">JSystem/JSupport/JSUInput</text>
<text text-anchor="middle" x="880" y="-119.5" font-family="Helvetica,sans-Serif" font-size="10.00">Stream.h</text>
</a>
</g>
</g>
<!-- Node13&#45;&gt;Node14 -->
<g id="edge22" class="edge">
<title>Node13&#45;&gt;Node14</title>
<path fill="none" stroke="midnightblue" d="M847.11,-179.4C852.45,-171.13 859.32,-160.51 865.4,-151.1"/>
<polygon fill="midnightblue" stroke="midnightblue" points="868.42,-152.88 870.9,-142.58 862.54,-149.08 868.42,-152.88"/>
</g>
<!-- Node14&#45;&gt;Node8 -->
<g id="edge25" class="edge">
<title>Node14&#45;&gt;Node8</title>
<path fill="none" stroke="midnightblue" d="M922.47,-112.46C954.99,-99.51 991.14,-78.87 971,-56 951.35,-33.68 761.59,-19.48 668.71,-13.81"/>
<polygon fill="midnightblue" stroke="midnightblue" points="668.88,-10.32 658.69,-13.21 668.46,-17.3 668.88,-10.32"/>
</g>
<!-- Node15 -->
<g id="node15" class="node">
<title>Node15</title>
<g id="a_node15"><a xlink:href="JSUIosBase_8h.html" target="_top" xlink:title=" ">
<polygon fill="white" stroke="black" points="798.5,-56.5 798.5,-75.5 961.5,-75.5 961.5,-56.5 798.5,-56.5"/>
<text text-anchor="middle" x="880" y="-63.5" font-family="Helvetica,sans-Serif" font-size="10.00">JSystem/JSupport/JSUIosBase.h</text>
</a>
</g>
</g>
<!-- Node14&#45;&gt;Node15 -->
<g id="edge23" class="edge">
<title>Node14&#45;&gt;Node15</title>
<path fill="none" stroke="midnightblue" d="M880,-112.4C880,-104.47 880,-94.46 880,-85.86"/>
<polygon fill="midnightblue" stroke="midnightblue" points="883.5,-85.66 880,-75.66 876.5,-85.66 883.5,-85.66"/>
</g>
<!-- Node15&#45;&gt;Node8 -->
<g id="edge24" class="edge">
<title>Node15&#45;&gt;Node8</title>
<path fill="none" stroke="midnightblue" d="M838.49,-56.44C792.45,-46.96 718.18,-31.65 668.74,-21.46"/>
<polygon fill="midnightblue" stroke="midnightblue" points="669.39,-18.02 658.89,-19.43 667.98,-24.87 669.39,-18.02"/>
</g>
</g>
</svg>
