<?xml version="1.0" encoding="UTF-8" standalone="no"?>
<!DOCTYPE svg PUBLIC "-//W3C//DTD SVG 1.1//EN"
 "http://www.w3.org/Graphics/SVG/1.1/DTD/svg11.dtd">
<!-- Generated by graphviz version 2.44.0 ()
 -->
<!-- Title: libs/JSystem/JKernel/JKRDecomp.cpp Pages: 1 -->
<svg width="1000pt" height="397pt"
 viewBox="0.00 0.00 999.50 397.00" xmlns="http://www.w3.org/2000/svg" xmlns:xlink="http://www.w3.org/1999/xlink">
<g id="graph0" class="graph" transform="scale(1 1) rotate(0) translate(4 393)">
<title>libs/JSystem/JKernel/JKRDecomp.cpp</title>
<polygon fill="white" stroke="transparent" points="-4,4 -4,-393 995.5,-393 995.5,4 -4,4"/>
<!-- Node1 -->
<g id="node1" class="node">
<title>Node1</title>
<g id="a_node1"><a xlink:title=" ">
<polygon fill="#bfbfbf" stroke="black" points="493.5,-358.5 493.5,-388.5 602.5,-388.5 602.5,-358.5 493.5,-358.5"/>
<text text-anchor="start" x="501.5" y="-376.5" font-family="Helvetica,sans-Serif" font-size="10.00">libs/JSystem/JKernel</text>
<text text-anchor="middle" x="548" y="-365.5" font-family="Helvetica,sans-Serif" font-size="10.00">/JKRDecomp.cpp</text>
</a>
</g>
</g>
<!-- Node2 -->
<g id="node2" class="node">
<title>Node2</title>
<g id="a_node2"><a xlink:href="JKRDecomp_8h.html" target="_top" xlink:title=" ">
<polygon fill="white" stroke="black" points="229,-291.5 229,-310.5 385,-310.5 385,-291.5 229,-291.5"/>
<text text-anchor="middle" x="307" y="-298.5" font-family="Helvetica,sans-Serif" font-size="10.00">JSystem/JKernel/JKRDecomp.h</text>
</a>
</g>
</g>
<!-- Node1&#45;&gt;Node2 -->
<g id="edge1" class="edge">
<title>Node1&#45;&gt;Node2</title>
<path fill="none" stroke="midnightblue" d="M500.1,-358.49C454.95,-345.28 388.13,-325.73 346.11,-313.44"/>
<polygon fill="midnightblue" stroke="midnightblue" points="346.83,-310 336.24,-310.55 344.86,-316.72 346.83,-310"/>
</g>
<!-- Node7 -->
<g id="node7" class="node">
<title>Node7</title>
<g id="a_node7"><a xlink:href="types_8h.html" target="_top" xlink:title=" ">
<polygon fill="white" stroke="black" points="456.5,-0.5 456.5,-19.5 537.5,-19.5 537.5,-0.5 456.5,-0.5"/>
<text text-anchor="middle" x="497" y="-7.5" font-family="Helvetica,sans-Serif" font-size="10.00">dolphin/types.h</text>
</a>
</g>
</g>
<!-- Node1&#45;&gt;Node7 -->
<g id="edge27" class="edge">
<title>Node1&#45;&gt;Node7</title>
<path fill="none" stroke="midnightblue" d="M493.45,-370.38C354.84,-363.5 0,-336.03 0,-235 0,-235 0,-235 0,-121 0,-30.32 319.42,-14.34 446.11,-11.56"/>
<polygon fill="midnightblue" stroke="midnightblue" points="446.4,-15.06 456.33,-11.36 446.26,-8.06 446.4,-15.06"/>
</g>
<!-- Node8 -->
<g id="node8" class="node">
<title>Node8</title>
<g id="a_node8"><a xlink:href="JKRHeap_8h.html" target="_top" xlink:title=" ">
<polygon fill="white" stroke="black" points="448.5,-168.5 448.5,-187.5 591.5,-187.5 591.5,-168.5 448.5,-168.5"/>
<text text-anchor="middle" x="520" y="-175.5" font-family="Helvetica,sans-Serif" font-size="10.00">JSystem/JKernel/JKRHeap.h</text>
</a>
</g>
</g>
<!-- Node1&#45;&gt;Node8 -->
<g id="edge25" class="edge">
<title>Node1&#45;&gt;Node8</title>
<path fill="none" stroke="midnightblue" d="M543.28,-358.07C540.19,-348.05 536.3,-334.34 534,-322 525.81,-278.01 522.23,-225.46 520.81,-197.94"/>
<polygon fill="midnightblue" stroke="midnightblue" points="524.3,-197.6 520.33,-187.78 517.31,-197.93 524.3,-197.6"/>
</g>
<!-- Node11 -->
<g id="node11" class="node">
<title>Node11</title>
<g id="a_node11"><a xlink:href="JKRAramPiece_8h.html" target="_top" xlink:title=" ">
<polygon fill="white" stroke="black" points="648,-168.5 648,-187.5 816,-187.5 816,-168.5 648,-168.5"/>
<text text-anchor="middle" x="732" y="-175.5" font-family="Helvetica,sans-Serif" font-size="10.00">JSystem/JKernel/JKRAramPiece.h</text>
</a>
</g>
</g>
<!-- Node1&#45;&gt;Node11 -->
<g id="edge19" class="edge">
<title>Node1&#45;&gt;Node11</title>
<path fill="none" stroke="midnightblue" d="M547.74,-358.29C548.07,-338.87 551.2,-303.74 568,-280 599.83,-235.02 658.63,-206.1 696.49,-191.2"/>
<polygon fill="midnightblue" stroke="midnightblue" points="698.01,-194.37 706.11,-187.54 695.52,-187.83 698.01,-194.37"/>
</g>
<!-- Node13 -->
<g id="node13" class="node">
<title>Node13</title>
<g id="a_node13"><a xlink:href="dol2asm_8h.html" target="_top" xlink:title=" ">
<polygon fill="white" stroke="black" points="576.5,-291.5 576.5,-310.5 637.5,-310.5 637.5,-291.5 576.5,-291.5"/>
<text text-anchor="middle" x="607" y="-298.5" font-family="Helvetica,sans-Serif" font-size="10.00">dol2asm.h</text>
</a>
</g>
</g>
<!-- Node1&#45;&gt;Node13 -->
<g id="edge26" class="edge">
<title>Node1&#45;&gt;Node13</title>
<path fill="none" stroke="midnightblue" d="M559.94,-358.23C569.48,-346.84 582.86,-330.84 592.92,-318.82"/>
<polygon fill="midnightblue" stroke="midnightblue" points="595.82,-320.81 599.56,-310.89 590.46,-316.32 595.82,-320.81"/>
</g>
<!-- Node14 -->
<g id="node14" class="node">
<title>Node14</title>
<g id="a_node14"><a xlink:title=" ">
<polygon fill="white" stroke="#bfbfbf" points="655.5,-280.5 655.5,-321.5 814.5,-321.5 814.5,-280.5 655.5,-280.5"/>
<text text-anchor="start" x="663.5" y="-309.5" font-family="Helvetica,sans-Serif" font-size="10.00">asm/JSystem/JKernel</text>
<text text-anchor="start" x="663.5" y="-298.5" font-family="Helvetica,sans-Serif" font-size="10.00">/JKRDecomp/decodeSZP</text>
<text text-anchor="middle" x="735" y="-287.5" font-family="Helvetica,sans-Serif" font-size="10.00">__9JKRDecompFPUcPUcUlUl.s</text>
</a>
</g>
</g>
<!-- Node1&#45;&gt;Node14 -->
<g id="edge28" class="edge">
<title>Node1&#45;&gt;Node14</title>
<path fill="none" stroke="midnightblue" d="M585.39,-358.4C610.58,-348.91 644.38,-336.16 673.48,-325.19"/>
<polygon fill="midnightblue" stroke="midnightblue" points="675.03,-328.35 683.15,-321.55 672.56,-321.8 675.03,-328.35"/>
</g>
<!-- Node15 -->
<g id="node15" class="node">
<title>Node15</title>
<g id="a_node15"><a xlink:title=" ">
<polygon fill="white" stroke="#bfbfbf" points="832.5,-280.5 832.5,-321.5 991.5,-321.5 991.5,-280.5 832.5,-280.5"/>
<text text-anchor="start" x="840.5" y="-309.5" font-family="Helvetica,sans-Serif" font-size="10.00">asm/JSystem/JKernel</text>
<text text-anchor="start" x="840.5" y="-298.5" font-family="Helvetica,sans-Serif" font-size="10.00">/JKRDecomp/decodeSZS</text>
<text text-anchor="middle" x="912" y="-287.5" font-family="Helvetica,sans-Serif" font-size="10.00">__9JKRDecompFPUcPUcUlUl.s</text>
</a>
</g>
</g>
<!-- Node1&#45;&gt;Node15 -->
<g id="edge29" class="edge">
<title>Node1&#45;&gt;Node15</title>
<path fill="none" stroke="midnightblue" d="M602.6,-363.22C656.19,-353.94 740.5,-338.93 822.43,-322.29"/>
<polygon fill="midnightblue" stroke="midnightblue" points="823.31,-325.68 832.41,-320.25 821.91,-318.82 823.31,-325.68"/>
</g>
<!-- Node3 -->
<g id="node3" class="node">
<title>Node3</title>
<g id="a_node3"><a xlink:href="JKRCompression_8h.html" target="_top" xlink:title=" ">
<polygon fill="white" stroke="black" points="27.5,-224.5 27.5,-243.5 204.5,-243.5 204.5,-224.5 27.5,-224.5"/>
<text text-anchor="middle" x="116" y="-231.5" font-family="Helvetica,sans-Serif" font-size="10.00">JSystem/JKernel/JKRCompression.h</text>
</a>
</g>
</g>
<!-- Node2&#45;&gt;Node3 -->
<g id="edge2" class="edge">
<title>Node2&#45;&gt;Node3</title>
<path fill="none" stroke="midnightblue" d="M281.64,-291.37C248.01,-279.92 188.52,-259.68 150.74,-246.82"/>
<polygon fill="midnightblue" stroke="midnightblue" points="151.76,-243.47 141.16,-243.56 149.5,-250.1 151.76,-243.47"/>
</g>
<!-- Node4 -->
<g id="node4" class="node">
<title>Node4</title>
<g id="a_node4"><a xlink:href="JKRThread_8h.html" target="_top" xlink:title=" ">
<polygon fill="white" stroke="black" points="308,-224.5 308,-243.5 458,-243.5 458,-224.5 308,-224.5"/>
<text text-anchor="middle" x="383" y="-231.5" font-family="Helvetica,sans-Serif" font-size="10.00">JSystem/JKernel/JKRThread.h</text>
</a>
</g>
</g>
<!-- Node2&#45;&gt;Node4 -->
<g id="edge3" class="edge">
<title>Node2&#45;&gt;Node4</title>
<path fill="none" stroke="midnightblue" d="M317.25,-291.23C329.44,-280.81 350.02,-263.21 364.91,-250.47"/>
<polygon fill="midnightblue" stroke="midnightblue" points="367.59,-252.79 372.91,-243.63 363.04,-247.47 367.59,-252.79"/>
</g>
<!-- Node2&#45;&gt;Node7 -->
<g id="edge18" class="edge">
<title>Node2&#45;&gt;Node7</title>
<path fill="none" stroke="midnightblue" d="M302.67,-291.15C285.25,-254.12 224.74,-111.07 301,-56 343.62,-25.22 403.92,-15.08 446.35,-11.95"/>
<polygon fill="midnightblue" stroke="midnightblue" points="446.7,-15.44 456.46,-11.31 446.26,-8.45 446.7,-15.44"/>
</g>
<!-- Node5 -->
<g id="node5" class="node">
<title>Node5</title>
<g id="a_node5"><a xlink:href="JKRDisposer_8h.html" target="_top" xlink:title=" ">
<polygon fill="white" stroke="black" points="285,-112.5 285,-131.5 443,-131.5 443,-112.5 285,-112.5"/>
<text text-anchor="middle" x="364" y="-119.5" font-family="Helvetica,sans-Serif" font-size="10.00">JSystem/JKernel/JKRDisposer.h</text>
</a>
</g>
</g>
<!-- Node4&#45;&gt;Node5 -->
<g id="edge4" class="edge">
<title>Node4&#45;&gt;Node5</title>
<path fill="none" stroke="midnightblue" d="M381.51,-224.37C378.44,-206.62 371.37,-165.67 367.21,-141.6"/>
<polygon fill="midnightblue" stroke="midnightblue" points="370.64,-140.85 365.48,-131.59 363.74,-142.04 370.64,-140.85"/>
</g>
<!-- Node6 -->
<g id="node6" class="node">
<title>Node6</title>
<g id="a_node6"><a xlink:href="JSUList_8h.html" target="_top" xlink:title=" ">
<polygon fill="white" stroke="black" points="375.5,-56.5 375.5,-75.5 518.5,-75.5 518.5,-56.5 375.5,-56.5"/>
<text text-anchor="middle" x="447" y="-63.5" font-family="Helvetica,sans-Serif" font-size="10.00">JSystem/JSupport/JSUList.h</text>
</a>
</g>
</g>
<!-- Node4&#45;&gt;Node6 -->
<g id="edge15" class="edge">
<title>Node4&#45;&gt;Node6</title>
<path fill="none" stroke="midnightblue" d="M391.77,-224.27C407.51,-207.9 440.03,-170.75 452,-132 456.7,-116.79 454.73,-98.68 451.99,-85.44"/>
<polygon fill="midnightblue" stroke="midnightblue" points="455.38,-84.55 449.65,-75.64 448.57,-86.18 455.38,-84.55"/>
</g>
<!-- Node4&#45;&gt;Node7 -->
<g id="edge17" class="edge">
<title>Node4&#45;&gt;Node7</title>
<path fill="none" stroke="midnightblue" d="M364.25,-224.36C327.28,-206.04 250.7,-160.95 276,-112 308.12,-49.86 391.35,-25.85 446,-16.64"/>
<polygon fill="midnightblue" stroke="midnightblue" points="446.85,-20.05 456.19,-15.04 445.77,-13.13 446.85,-20.05"/>
</g>
<!-- Node4&#45;&gt;Node8 -->
<g id="edge8" class="edge">
<title>Node4&#45;&gt;Node8</title>
<path fill="none" stroke="midnightblue" d="M404.71,-224.44C427.35,-215.52 463.07,-201.44 488.75,-191.32"/>
<polygon fill="midnightblue" stroke="midnightblue" points="490.37,-194.44 498.39,-187.52 487.81,-187.93 490.37,-194.44"/>
</g>
<!-- Node9 -->
<g id="node9" class="node">
<title>Node9</title>
<g id="a_node9"><a xlink:href="OS_8h.html" target="_top" xlink:title=" ">
<polygon fill="white" stroke="black" points="577,-112.5 577,-131.5 663,-131.5 663,-112.5 577,-112.5"/>
<text text-anchor="middle" x="620" y="-119.5" font-family="Helvetica,sans-Serif" font-size="10.00">dolphin/os/OS.h</text>
</a>
</g>
</g>
<!-- Node4&#45;&gt;Node9 -->
<g id="edge16" class="edge">
<title>Node4&#45;&gt;Node9</title>
<path fill="none" stroke="midnightblue" d="M458.23,-225.74C512.74,-218.99 580.33,-207.06 601,-188 613.81,-176.19 618.16,-156.26 619.54,-141.58"/>
<polygon fill="midnightblue" stroke="midnightblue" points="623.04,-141.78 620.12,-131.6 616.05,-141.38 623.04,-141.78"/>
</g>
<!-- Node5&#45;&gt;Node6 -->
<g id="edge5" class="edge">
<title>Node5&#45;&gt;Node6</title>
<path fill="none" stroke="midnightblue" d="M377.34,-112.32C390.16,-103.98 409.78,-91.21 424.94,-81.35"/>
<polygon fill="midnightblue" stroke="midnightblue" points="427.22,-84.04 433.7,-75.65 423.41,-78.17 427.22,-84.04"/>
</g>
<!-- Node5&#45;&gt;Node7 -->
<g id="edge7" class="edge">
<title>Node5&#45;&gt;Node7</title>
<path fill="none" stroke="midnightblue" d="M361.46,-112.44C358.03,-98.98 353.67,-72.72 366,-56 384.49,-30.92 417.83,-19.7 446.25,-14.73"/>
<polygon fill="midnightblue" stroke="midnightblue" points="447.1,-18.14 456.45,-13.17 446.04,-11.22 447.1,-18.14"/>
</g>
<!-- Node6&#45;&gt;Node7 -->
<g id="edge6" class="edge">
<title>Node6&#45;&gt;Node7</title>
<path fill="none" stroke="midnightblue" d="M455.26,-56.08C462.46,-48.3 473.11,-36.8 481.85,-27.37"/>
<polygon fill="midnightblue" stroke="midnightblue" points="484.67,-29.47 488.9,-19.75 479.53,-24.71 484.67,-29.47"/>
</g>
<!-- Node8&#45;&gt;Node5 -->
<g id="edge9" class="edge">
<title>Node8&#45;&gt;Node5</title>
<path fill="none" stroke="midnightblue" d="M495.28,-168.44C469.15,-159.4 427.74,-145.06 398.42,-134.92"/>
<polygon fill="midnightblue" stroke="midnightblue" points="399.2,-131.48 388.6,-131.52 396.91,-138.1 399.2,-131.48"/>
</g>
<!-- Node8&#45;&gt;Node7 -->
<g id="edge14" class="edge">
<title>Node8&#45;&gt;Node7</title>
<path fill="none" stroke="midnightblue" d="M522.69,-168.24C528.47,-147.95 540.57,-96.41 528,-56 524.77,-45.62 518.22,-35.52 511.98,-27.53"/>
<polygon fill="midnightblue" stroke="midnightblue" points="514.58,-25.19 505.48,-19.77 509.21,-29.68 514.58,-25.19"/>
</g>
<!-- Node8&#45;&gt;Node9 -->
<g id="edge10" class="edge">
<title>Node8&#45;&gt;Node9</title>
<path fill="none" stroke="midnightblue" d="M536.07,-168.32C551.96,-159.74 576.51,-146.49 594.96,-136.52"/>
<polygon fill="midnightblue" stroke="midnightblue" points="596.84,-139.49 603.97,-131.65 593.51,-133.33 596.84,-139.49"/>
</g>
<!-- Node9&#45;&gt;Node7 -->
<g id="edge11" class="edge">
<title>Node9&#45;&gt;Node7</title>
<path fill="none" stroke="midnightblue" d="M613.27,-112.45C602.84,-99.47 581.79,-74.36 561,-56 548.14,-44.64 532.38,-33.54 519.72,-25.2"/>
<polygon fill="midnightblue" stroke="midnightblue" points="521.44,-22.14 511.14,-19.65 517.64,-28.02 521.44,-22.14"/>
</g>
<!-- Node10 -->
<g id="node10" class="node">
<title>Node10</title>
<g id="a_node10"><a xlink:href="dvd_8h.html" target="_top" xlink:title=" ">
<polygon fill="white" stroke="black" points="613,-56.5 613,-75.5 705,-75.5 705,-56.5 613,-56.5"/>
<text text-anchor="middle" x="659" y="-63.5" font-family="Helvetica,sans-Serif" font-size="10.00">dolphin/dvd/dvd.h</text>
</a>
</g>
</g>
<!-- Node9&#45;&gt;Node10 -->
<g id="edge12" class="edge">
<title>Node9&#45;&gt;Node10</title>
<path fill="none" stroke="midnightblue" d="M626.44,-112.08C631.95,-104.46 640.03,-93.26 646.76,-83.94"/>
<polygon fill="midnightblue" stroke="midnightblue" points="649.66,-85.91 652.68,-75.75 643.99,-81.81 649.66,-85.91"/>
</g>
<!-- Node10&#45;&gt;Node7 -->
<g id="edge13" class="edge">
<title>Node10&#45;&gt;Node7</title>
<path fill="none" stroke="midnightblue" d="M633.33,-56.44C606.08,-47.36 562.82,-32.94 532.35,-22.78"/>
<polygon fill="midnightblue" stroke="midnightblue" points="533.14,-19.36 522.55,-19.52 530.93,-26 533.14,-19.36"/>
</g>
<!-- Node11&#45;&gt;Node6 -->
<g id="edge20" class="edge">
<title>Node11&#45;&gt;Node6</title>
<path fill="none" stroke="midnightblue" d="M691.07,-168.47C657.37,-160.81 608.71,-148.28 568,-132 532.03,-117.62 492.99,-95.32 469.26,-80.94"/>
<polygon fill="midnightblue" stroke="midnightblue" points="471.02,-77.91 460.66,-75.67 467.36,-83.88 471.02,-77.91"/>
</g>
<!-- Node11&#45;&gt;Node7 -->
<g id="edge24" class="edge">
<title>Node11&#45;&gt;Node7</title>
<path fill="none" stroke="midnightblue" d="M733.7,-168.27C737.46,-146.2 743.9,-87.65 714,-56 691.74,-32.44 604.76,-20.4 547.91,-14.92"/>
<polygon fill="midnightblue" stroke="midnightblue" points="547.95,-11.41 537.67,-13.97 547.3,-18.38 547.95,-11.41"/>
</g>
<!-- Node11&#45;&gt;Node9 -->
<g id="edge23" class="edge">
<title>Node11&#45;&gt;Node9</title>
<path fill="none" stroke="midnightblue" d="M714.01,-168.32C695.96,-159.62 667.95,-146.12 647.2,-136.11"/>
<polygon fill="midnightblue" stroke="midnightblue" points="648.48,-132.84 637.95,-131.65 645.44,-139.15 648.48,-132.84"/>
</g>
<!-- Node12 -->
<g id="node12" class="node">
<title>Node12</title>
<g id="a_node12"><a xlink:href="arq_8h.html" target="_top" xlink:title=" ">
<polygon fill="white" stroke="black" points="761.5,-56.5 761.5,-75.5 844.5,-75.5 844.5,-56.5 761.5,-56.5"/>
<text text-anchor="middle" x="803" y="-63.5" font-family="Helvetica,sans-Serif" font-size="10.00">dolphin/ar/arq.h</text>
</a>
</g>
</g>
<!-- Node11&#45;&gt;Node12 -->
<g id="edge21" class="edge">
<title>Node11&#45;&gt;Node12</title>
<path fill="none" stroke="midnightblue" d="M737.57,-168.37C749.24,-150.3 776.42,-108.18 791.83,-84.31"/>
<polygon fill="midnightblue" stroke="midnightblue" points="794.97,-85.89 797.45,-75.59 789.09,-82.1 794.97,-85.89"/>
</g>
<!-- Node12&#45;&gt;Node7 -->
<g id="edge22" class="edge">
<title>Node12&#45;&gt;Node7</title>
<path fill="none" stroke="midnightblue" d="M761.41,-57.66C705.8,-47.85 607.3,-30.47 547.5,-19.91"/>
<polygon fill="midnightblue" stroke="midnightblue" points="547.98,-16.44 537.52,-18.15 546.76,-23.34 547.98,-16.44"/>
</g>
</g>
</svg>
