<?xml version="1.0" encoding="UTF-8" standalone="no"?>
<!DOCTYPE svg PUBLIC "-//W3C//DTD SVG 1.1//EN"
 "http://www.w3.org/Graphics/SVG/1.1/DTD/svg11.dtd">
<!-- Generated by graphviz version 2.44.0 ()
 -->
<!-- Title: libs/JSystem/JKernel/JKRExpHeap.cpp Pages: 1 -->
<svg width="2675pt" height="430pt"
 viewBox="0.00 0.00 2675.00 430.00" xmlns="http://www.w3.org/2000/svg" xmlns:xlink="http://www.w3.org/1999/xlink">
<g id="graph0" class="graph" transform="scale(1 1) rotate(0) translate(4 426)">
<title>libs/JSystem/JKernel/JKRExpHeap.cpp</title>
<polygon fill="white" stroke="transparent" points="-4,4 -4,-426 2671,-426 2671,4 -4,4"/>
<!-- Node1 -->
<g id="node1" class="node">
<title>Node1</title>
<g id="a_node1"><a xlink:title=" ">
<polygon fill="#bfbfbf" stroke="black" points="1168.5,-391.5 1168.5,-421.5 1277.5,-421.5 1277.5,-391.5 1168.5,-391.5"/>
<text text-anchor="start" x="1176.5" y="-409.5" font-family="Helvetica,sans-Serif" font-size="10.00">libs/JSystem/JKernel</text>
<text text-anchor="middle" x="1223" y="-398.5" font-family="Helvetica,sans-Serif" font-size="10.00">/JKRExpHeap.cpp</text>
</a>
</g>
</g>
<!-- Node2 -->
<g id="node2" class="node">
<title>Node2</title>
<g id="a_node2"><a xlink:href="JKRExpHeap_8h.html" target="_top" xlink:title=" ">
<polygon fill="white" stroke="black" points="55.5,-246.5 55.5,-265.5 214.5,-265.5 214.5,-246.5 55.5,-246.5"/>
<text text-anchor="middle" x="135" y="-253.5" font-family="Helvetica,sans-Serif" font-size="10.00">JSystem/JKernel/JKRExpHeap.h</text>
</a>
</g>
</g>
<!-- Node1&#45;&gt;Node2 -->
<g id="edge1" class="edge">
<title>Node1&#45;&gt;Node2</title>
<path fill="none" stroke="midnightblue" d="M1168.26,-404.01C1011.23,-399.42 561.32,-384.03 417,-355 321.01,-335.69 213.13,-291.52 163.18,-269.69"/>
<polygon fill="midnightblue" stroke="midnightblue" points="164.54,-266.46 153.98,-265.63 161.72,-272.87 164.54,-266.46"/>
</g>
<!-- Node6 -->
<g id="node6" class="node">
<title>Node6</title>
<g id="a_node6"><a xlink:href="types_8h.html" target="_top" xlink:title=" ">
<polygon fill="white" stroke="black" points="426.5,-0.5 426.5,-19.5 507.5,-19.5 507.5,-0.5 426.5,-0.5"/>
<text text-anchor="middle" x="467" y="-7.5" font-family="Helvetica,sans-Serif" font-size="10.00">dolphin/types.h</text>
</a>
</g>
</g>
<!-- Node1&#45;&gt;Node6 -->
<g id="edge39" class="edge">
<title>Node1&#45;&gt;Node6</title>
<path fill="none" stroke="midnightblue" d="M1168.21,-405.04C989.11,-403.18 422.26,-394.25 244,-355 129.87,-329.87 0,-373.86 0,-257 0,-257 0,-257 0,-132 0,-84.54 32.33,-76.78 75,-56 134.01,-27.27 324.3,-16.34 416.28,-12.65"/>
<polygon fill="midnightblue" stroke="midnightblue" points="416.61,-16.15 426.47,-12.26 416.34,-9.15 416.61,-16.15"/>
</g>
<!-- Node10 -->
<g id="node10" class="node">
<title>Node10</title>
<g id="a_node10"><a xlink:href="JUTException_8h.html" target="_top" xlink:title=" ">
<polygon fill="white" stroke="black" points="426.5,-319 426.5,-338 585.5,-338 585.5,-319 426.5,-319"/>
<text text-anchor="middle" x="506" y="-326" font-family="Helvetica,sans-Serif" font-size="10.00">JSystem/JUtility/JUTException.h</text>
</a>
</g>
</g>
<!-- Node1&#45;&gt;Node10 -->
<g id="edge15" class="edge">
<title>Node1&#45;&gt;Node10</title>
<path fill="none" stroke="midnightblue" d="M1168.25,-404.81C1058.44,-402.61 803.87,-393.42 594,-355 575.99,-351.7 556.38,-346.21 540.26,-341.17"/>
<polygon fill="midnightblue" stroke="midnightblue" points="541.31,-337.83 530.71,-338.12 539.17,-344.5 541.31,-337.83"/>
</g>
<!-- Node17 -->
<g id="node17" class="node">
<title>Node17</title>
<g id="a_node17"><a xlink:href="dol2asm_8h.html" target="_top" xlink:title=" ">
<polygon fill="white" stroke="black" points="603.5,-319 603.5,-338 664.5,-338 664.5,-319 603.5,-319"/>
<text text-anchor="middle" x="634" y="-326" font-family="Helvetica,sans-Serif" font-size="10.00">dol2asm.h</text>
</a>
</g>
</g>
<!-- Node1&#45;&gt;Node17 -->
<g id="edge38" class="edge">
<title>Node1&#45;&gt;Node17</title>
<path fill="none" stroke="midnightblue" d="M1168.39,-403.35C1049.22,-398.17 769.27,-383.33 679,-355 670.57,-352.35 661.96,-347.97 654.57,-343.58"/>
<polygon fill="midnightblue" stroke="midnightblue" points="656.28,-340.52 645.96,-338.14 652.55,-346.44 656.28,-340.52"/>
</g>
<!-- Node18 -->
<g id="node18" class="node">
<title>Node18</title>
<g id="a_node18"><a xlink:href="global_8h.html" target="_top" xlink:title=" ">
<polygon fill="white" stroke="black" points="1062,-246.5 1062,-265.5 1112,-265.5 1112,-246.5 1062,-246.5"/>
<text text-anchor="middle" x="1087" y="-253.5" font-family="Helvetica,sans-Serif" font-size="10.00">global.h</text>
</a>
</g>
</g>
<!-- Node1&#45;&gt;Node18 -->
<g id="edge40" class="edge">
<title>Node1&#45;&gt;Node18</title>
<path fill="none" stroke="midnightblue" d="M1168.42,-404.16C1042.91,-400.52 742.23,-388.36 712,-355 696.18,-337.54 696.26,-319.52 712,-302 762.19,-246.14 973.95,-278.47 1048,-266 1049.27,-265.79 1050.56,-265.56 1051.87,-265.31"/>
<polygon fill="midnightblue" stroke="midnightblue" points="1052.82,-268.69 1061.91,-263.26 1051.41,-261.83 1052.82,-268.69"/>
</g>
<!-- Node19 -->
<g id="node19" class="node">
<title>Node19</title>
<g id="a_node19"><a xlink:title=" ">
<polygon fill="white" stroke="#bfbfbf" points="721.5,-308 721.5,-349 894.5,-349 894.5,-308 721.5,-308"/>
<text text-anchor="start" x="729.5" y="-337" font-family="Helvetica,sans-Serif" font-size="10.00">asm/JSystem/JKernel</text>
<text text-anchor="start" x="729.5" y="-326" font-family="Helvetica,sans-Serif" font-size="10.00">/JKRExpHeap/create_</text>
<text text-anchor="middle" x="808" y="-315" font-family="Helvetica,sans-Serif" font-size="10.00">_10JKRExpHeapFUlP7JKRHeapb.s</text>
</a>
</g>
</g>
<!-- Node1&#45;&gt;Node19 -->
<g id="edge42" class="edge">
<title>Node1&#45;&gt;Node19</title>
<path fill="none" stroke="midnightblue" d="M1168.22,-398.57C1104.42,-390.1 996.03,-374.45 904,-355 898.91,-353.92 893.69,-352.75 888.43,-351.51"/>
<polygon fill="midnightblue" stroke="midnightblue" points="888.86,-348.01 878.32,-349.06 887.21,-354.82 888.86,-348.01"/>
</g>
<!-- Node20 -->
<g id="node20" class="node">
<title>Node20</title>
<g id="a_node20"><a xlink:title=" ">
<polygon fill="white" stroke="#bfbfbf" points="913,-308 913,-349 1059,-349 1059,-308 913,-308"/>
<text text-anchor="start" x="921" y="-337" font-family="Helvetica,sans-Serif" font-size="10.00">asm/JSystem/JKernel</text>
<text text-anchor="start" x="921" y="-326" font-family="Helvetica,sans-Serif" font-size="10.00">/JKRExpHeap/allocFromHead</text>
<text text-anchor="middle" x="986" y="-315" font-family="Helvetica,sans-Serif" font-size="10.00">__10JKRExpHeapFUli.s</text>
</a>
</g>
</g>
<!-- Node1&#45;&gt;Node20 -->
<g id="edge43" class="edge">
<title>Node1&#45;&gt;Node20</title>
<path fill="none" stroke="midnightblue" d="M1179.25,-391.47C1144.9,-380.46 1096.39,-364.9 1056.56,-352.13"/>
<polygon fill="midnightblue" stroke="midnightblue" points="1057.49,-348.75 1046.9,-349.03 1055.36,-355.42 1057.49,-348.75"/>
</g>
<!-- Node21 -->
<g id="node21" class="node">
<title>Node21</title>
<g id="a_node21"><a xlink:title=" ">
<polygon fill="white" stroke="#bfbfbf" points="1077.5,-308 1077.5,-349 1216.5,-349 1216.5,-308 1077.5,-308"/>
<text text-anchor="start" x="1085.5" y="-337" font-family="Helvetica,sans-Serif" font-size="10.00">asm/JSystem/JKernel</text>
<text text-anchor="start" x="1085.5" y="-326" font-family="Helvetica,sans-Serif" font-size="10.00">/JKRExpHeap/allocFromTail</text>
<text text-anchor="middle" x="1147" y="-315" font-family="Helvetica,sans-Serif" font-size="10.00">__10JKRExpHeapFUli.s</text>
</a>
</g>
</g>
<!-- Node1&#45;&gt;Node21 -->
<g id="edge44" class="edge">
<title>Node1&#45;&gt;Node21</title>
<path fill="none" stroke="midnightblue" d="M1208.7,-391.2C1198.88,-381.38 1185.53,-368.03 1173.76,-356.26"/>
<polygon fill="midnightblue" stroke="midnightblue" points="1176.23,-353.78 1166.68,-349.18 1171.28,-358.73 1176.23,-353.78"/>
</g>
<!-- Node22 -->
<g id="node22" class="node">
<title>Node22</title>
<g id="a_node22"><a xlink:title=" ">
<polygon fill="white" stroke="#bfbfbf" points="1235,-308 1235,-349 1363,-349 1363,-308 1235,-308"/>
<text text-anchor="start" x="1243" y="-337" font-family="Helvetica,sans-Serif" font-size="10.00">asm/JSystem/JKernel</text>
<text text-anchor="start" x="1243" y="-326" font-family="Helvetica,sans-Serif" font-size="10.00">/JKRExpHeap/do_freeTail</text>
<text text-anchor="middle" x="1299" y="-315" font-family="Helvetica,sans-Serif" font-size="10.00">__10JKRExpHeapFv.s</text>
</a>
</g>
</g>
<!-- Node1&#45;&gt;Node22 -->
<g id="edge45" class="edge">
<title>Node1&#45;&gt;Node22</title>
<path fill="none" stroke="midnightblue" d="M1237.3,-391.2C1247.12,-381.38 1260.47,-368.03 1272.24,-356.26"/>
<polygon fill="midnightblue" stroke="midnightblue" points="1274.72,-358.73 1279.32,-349.18 1269.77,-353.78 1274.72,-358.73"/>
</g>
<!-- Node23 -->
<g id="node23" class="node">
<title>Node23</title>
<g id="a_node23"><a xlink:title=" ">
<polygon fill="white" stroke="#bfbfbf" points="1381.5,-308 1381.5,-349 1512.5,-349 1512.5,-308 1381.5,-308"/>
<text text-anchor="start" x="1389.5" y="-337" font-family="Helvetica,sans-Serif" font-size="10.00">asm/JSystem/JKernel</text>
<text text-anchor="start" x="1389.5" y="-326" font-family="Helvetica,sans-Serif" font-size="10.00">/JKRExpHeap/do_resize</text>
<text text-anchor="middle" x="1447" y="-315" font-family="Helvetica,sans-Serif" font-size="10.00">__10JKRExpHeapFPvUl.s</text>
</a>
</g>
</g>
<!-- Node1&#45;&gt;Node23 -->
<g id="edge46" class="edge">
<title>Node1&#45;&gt;Node23</title>
<path fill="none" stroke="midnightblue" d="M1264.43,-391.47C1294.33,-381.34 1335.66,-367.34 1372,-355 1374.54,-354.14 1377.12,-353.26 1379.73,-352.37"/>
<polygon fill="midnightblue" stroke="midnightblue" points="1380.92,-355.67 1389.27,-349.14 1378.67,-349.04 1380.92,-355.67"/>
</g>
<!-- Node24 -->
<g id="node24" class="node">
<title>Node24</title>
<g id="a_node24"><a xlink:title=" ">
<polygon fill="white" stroke="#bfbfbf" points="1530.5,-302.5 1530.5,-354.5 1753.5,-354.5 1753.5,-302.5 1530.5,-302.5"/>
<text text-anchor="start" x="1538.5" y="-342.5" font-family="Helvetica,sans-Serif" font-size="10.00">asm/JSystem/JKernel</text>
<text text-anchor="start" x="1538.5" y="-331.5" font-family="Helvetica,sans-Serif" font-size="10.00">/JKRExpHeap/recycleFreeBlock</text>
<text text-anchor="start" x="1538.5" y="-320.5" font-family="Helvetica,sans-Serif" font-size="10.00">__10JKRExpHeapFPQ210JKRExpHeap9CMem</text>
<text text-anchor="middle" x="1642" y="-309.5" font-family="Helvetica,sans-Serif" font-size="10.00">Block.s</text>
</a>
</g>
</g>
<!-- Node1&#45;&gt;Node24 -->
<g id="edge47" class="edge">
<title>Node1&#45;&gt;Node24</title>
<path fill="none" stroke="midnightblue" d="M1277.68,-396.97C1335.62,-387.78 1430,-372.35 1520.39,-355.28"/>
<polygon fill="midnightblue" stroke="midnightblue" points="1521.08,-358.71 1530.25,-353.41 1519.77,-351.83 1521.08,-358.71"/>
</g>
<!-- Node25 -->
<g id="node25" class="node">
<title>Node25</title>
<g id="a_node25"><a xlink:title=" ">
<polygon fill="white" stroke="#bfbfbf" points="1771,-302.5 1771,-354.5 1965,-354.5 1965,-302.5 1771,-302.5"/>
<text text-anchor="start" x="1779" y="-342.5" font-family="Helvetica,sans-Serif" font-size="10.00">asm/JSystem/JKernel</text>
<text text-anchor="start" x="1779" y="-331.5" font-family="Helvetica,sans-Serif" font-size="10.00">/JKRExpHeap/joinTwoBlocks</text>
<text text-anchor="start" x="1779" y="-320.5" font-family="Helvetica,sans-Serif" font-size="10.00">__10JKRExpHeapFPQ210JKRExpHeap9</text>
<text text-anchor="middle" x="1868" y="-309.5" font-family="Helvetica,sans-Serif" font-size="10.00">CMemBlock.s</text>
</a>
</g>
</g>
<!-- Node1&#45;&gt;Node25 -->
<g id="edge48" class="edge">
<title>Node1&#45;&gt;Node25</title>
<path fill="none" stroke="midnightblue" d="M1277.76,-403.01C1373.91,-398.06 1579.41,-384.93 1760.86,-355.27"/>
<polygon fill="midnightblue" stroke="midnightblue" points="1761.56,-358.7 1770.85,-353.62 1760.41,-351.8 1761.56,-358.7"/>
</g>
<!-- Node26 -->
<g id="node26" class="node">
<title>Node26</title>
<g id="a_node26"><a xlink:title=" ">
<polygon fill="white" stroke="#bfbfbf" points="1983,-308 1983,-349 2145,-349 2145,-308 1983,-308"/>
<text text-anchor="start" x="1991" y="-337" font-family="Helvetica,sans-Serif" font-size="10.00">asm/JSystem/JKernel</text>
<text text-anchor="start" x="1991" y="-326" font-family="Helvetica,sans-Serif" font-size="10.00">/JKRExpHeap/check__10JKRExp</text>
<text text-anchor="middle" x="2064" y="-315" font-family="Helvetica,sans-Serif" font-size="10.00">HeapFv.s</text>
</a>
</g>
</g>
<!-- Node1&#45;&gt;Node26 -->
<g id="edge49" class="edge">
<title>Node1&#45;&gt;Node26</title>
<path fill="none" stroke="midnightblue" d="M1277.65,-405.72C1402.18,-405.36 1716.16,-399.69 1974,-355 1979.74,-354.01 1985.64,-352.79 1991.54,-351.43"/>
<polygon fill="midnightblue" stroke="midnightblue" points="1992.55,-354.79 2001.44,-349.03 1990.9,-347.98 1992.55,-354.79"/>
</g>
<!-- Node27 -->
<g id="node27" class="node">
<title>Node27</title>
<g id="a_node27"><a xlink:title=" ">
<polygon fill="white" stroke="#bfbfbf" points="2163,-308 2163,-349 2323,-349 2323,-308 2163,-308"/>
<text text-anchor="start" x="2171" y="-337" font-family="Helvetica,sans-Serif" font-size="10.00">asm/JSystem/JKernel</text>
<text text-anchor="start" x="2171" y="-326" font-family="Helvetica,sans-Serif" font-size="10.00">/JKRExpHeap/dump__10JKRExp</text>
<text text-anchor="middle" x="2243" y="-315" font-family="Helvetica,sans-Serif" font-size="10.00">HeapFv.s</text>
</a>
</g>
</g>
<!-- Node1&#45;&gt;Node27 -->
<g id="edge50" class="edge">
<title>Node1&#45;&gt;Node27</title>
<path fill="none" stroke="midnightblue" d="M1277.67,-404.15C1450.51,-399.62 1983.7,-383.64 2154,-355 2159.79,-354.03 2165.74,-352.81 2171.68,-351.45"/>
<polygon fill="midnightblue" stroke="midnightblue" points="2172.76,-354.78 2181.65,-349.02 2171.11,-347.98 2172.76,-354.78"/>
</g>
<!-- Node28 -->
<g id="node28" class="node">
<title>Node28</title>
<g id="a_node28"><a xlink:title=" ">
<polygon fill="white" stroke="#bfbfbf" points="2341,-308 2341,-349 2467,-349 2467,-308 2341,-308"/>
<text text-anchor="start" x="2349" y="-337" font-family="Helvetica,sans-Serif" font-size="10.00">asm/JSystem/JKernel</text>
<text text-anchor="start" x="2349" y="-326" font-family="Helvetica,sans-Serif" font-size="10.00">/JKRExpHeap/dump_sort</text>
<text text-anchor="middle" x="2404" y="-315" font-family="Helvetica,sans-Serif" font-size="10.00">__10JKRExpHeapFv.s</text>
</a>
</g>
</g>
<!-- Node1&#45;&gt;Node28 -->
<g id="edge51" class="edge">
<title>Node1&#45;&gt;Node28</title>
<path fill="none" stroke="midnightblue" d="M1277.75,-405.14C1471.87,-403.51 2126.65,-395.12 2332,-355 2336.36,-354.15 2340.82,-353.08 2345.27,-351.87"/>
<polygon fill="midnightblue" stroke="midnightblue" points="2346.35,-355.2 2354.96,-349.02 2344.38,-348.48 2346.35,-355.2"/>
</g>
<!-- Node29 -->
<g id="node29" class="node">
<title>Node29</title>
<g id="a_node29"><a xlink:title=" ">
<polygon fill="white" stroke="#bfbfbf" points="2485,-302.5 2485,-354.5 2667,-354.5 2667,-302.5 2485,-302.5"/>
<text text-anchor="start" x="2493" y="-342.5" font-family="Helvetica,sans-Serif" font-size="10.00">asm/JSystem/JKernel</text>
<text text-anchor="start" x="2493" y="-331.5" font-family="Helvetica,sans-Serif" font-size="10.00">/JKRExpHeap/allocFore</text>
<text text-anchor="start" x="2493" y="-320.5" font-family="Helvetica,sans-Serif" font-size="10.00">__Q210JKRExpHeap9CMemBlockFUl</text>
<text text-anchor="middle" x="2576" y="-309.5" font-family="Helvetica,sans-Serif" font-size="10.00">UcUcUcUc.s</text>
</a>
</g>
</g>
<!-- Node1&#45;&gt;Node29 -->
<g id="edge52" class="edge">
<title>Node1&#45;&gt;Node29</title>
<path fill="none" stroke="midnightblue" d="M1277.73,-404.82C1484.64,-402.01 2219.83,-389.85 2474.91,-354.98"/>
<polygon fill="midnightblue" stroke="midnightblue" points="2475.46,-358.44 2484.87,-353.57 2474.48,-351.51 2475.46,-358.44"/>
</g>
<!-- Node3 -->
<g id="node3" class="node">
<title>Node3</title>
<g id="a_node3"><a xlink:href="JKRHeap_8h.html" target="_top" xlink:title=" ">
<polygon fill="white" stroke="black" points="118.5,-185 118.5,-204 261.5,-204 261.5,-185 118.5,-185"/>
<text text-anchor="middle" x="190" y="-192" font-family="Helvetica,sans-Serif" font-size="10.00">JSystem/JKernel/JKRHeap.h</text>
</a>
</g>
</g>
<!-- Node2&#45;&gt;Node3 -->
<g id="edge2" class="edge">
<title>Node2&#45;&gt;Node3</title>
<path fill="none" stroke="midnightblue" d="M142.88,-246.48C151.29,-237.37 164.82,-222.74 175.23,-211.48"/>
<polygon fill="midnightblue" stroke="midnightblue" points="177.92,-213.73 182.13,-204.01 172.78,-208.98 177.92,-213.73"/>
</g>
<!-- Node2&#45;&gt;Node6 -->
<g id="edge14" class="edge">
<title>Node2&#45;&gt;Node6</title>
<path fill="none" stroke="midnightblue" d="M121.44,-246.48C110.1,-238.55 94.61,-225.61 87,-210 56.76,-147.96 52.58,-98.45 107,-56 154.01,-19.33 328.35,-12.29 416,-11.1"/>
<polygon fill="midnightblue" stroke="midnightblue" points="416.28,-14.6 426.24,-10.99 416.2,-7.6 416.28,-14.6"/>
</g>
<!-- Node4 -->
<g id="node4" class="node">
<title>Node4</title>
<g id="a_node4"><a xlink:href="JKRDisposer_8h.html" target="_top" xlink:title=" ">
<polygon fill="white" stroke="black" points="142,-123.5 142,-142.5 300,-142.5 300,-123.5 142,-123.5"/>
<text text-anchor="middle" x="221" y="-130.5" font-family="Helvetica,sans-Serif" font-size="10.00">JSystem/JKernel/JKRDisposer.h</text>
</a>
</g>
</g>
<!-- Node3&#45;&gt;Node4 -->
<g id="edge3" class="edge">
<title>Node3&#45;&gt;Node4</title>
<path fill="none" stroke="midnightblue" d="M194.44,-184.98C198.95,-176.32 206.07,-162.65 211.81,-151.65"/>
<polygon fill="midnightblue" stroke="midnightblue" points="215.05,-152.99 216.57,-142.51 208.84,-149.76 215.05,-152.99"/>
</g>
<!-- Node3&#45;&gt;Node6 -->
<g id="edge13" class="edge">
<title>Node3&#45;&gt;Node6</title>
<path fill="none" stroke="midnightblue" d="M174.31,-184.85C160.53,-176.26 141.41,-161.69 133,-143 118.38,-110.5 159.32,-60.88 166,-56 204.87,-27.61 340.85,-16.84 416.05,-12.99"/>
<polygon fill="midnightblue" stroke="midnightblue" points="416.42,-16.47 426.24,-12.49 416.08,-9.48 416.42,-16.47"/>
</g>
<!-- Node7 -->
<g id="node7" class="node">
<title>Node7</title>
<g id="a_node7"><a xlink:href="OS_8h.html" target="_top" xlink:title=" ">
<polygon fill="white" stroke="black" points="356,-123.5 356,-142.5 442,-142.5 442,-123.5 356,-123.5"/>
<text text-anchor="middle" x="399" y="-130.5" font-family="Helvetica,sans-Serif" font-size="10.00">dolphin/os/OS.h</text>
</a>
</g>
</g>
<!-- Node3&#45;&gt;Node7 -->
<g id="edge7" class="edge">
<title>Node3&#45;&gt;Node7</title>
<path fill="none" stroke="midnightblue" d="M219.94,-184.98C256.57,-174.55 318.7,-156.86 359.28,-145.31"/>
<polygon fill="midnightblue" stroke="midnightblue" points="360.45,-148.61 369.11,-142.51 358.53,-141.88 360.45,-148.61"/>
</g>
<!-- Node5 -->
<g id="node5" class="node">
<title>Node5</title>
<g id="a_node5"><a xlink:href="JSUList_8h.html" target="_top" xlink:title=" ">
<polygon fill="white" stroke="black" points="184.5,-62 184.5,-81 327.5,-81 327.5,-62 184.5,-62"/>
<text text-anchor="middle" x="256" y="-69" font-family="Helvetica,sans-Serif" font-size="10.00">JSystem/JSupport/JSUList.h</text>
</a>
</g>
</g>
<!-- Node4&#45;&gt;Node5 -->
<g id="edge4" class="edge">
<title>Node4&#45;&gt;Node5</title>
<path fill="none" stroke="midnightblue" d="M226.01,-123.48C231.16,-114.73 239.31,-100.87 245.82,-89.81"/>
<polygon fill="midnightblue" stroke="midnightblue" points="248.94,-91.4 250.99,-81.01 242.91,-87.85 248.94,-91.4"/>
</g>
<!-- Node4&#45;&gt;Node6 -->
<g id="edge6" class="edge">
<title>Node4&#45;&gt;Node6</title>
<path fill="none" stroke="midnightblue" d="M208.99,-123.42C189.78,-108.68 156.12,-78.01 175,-56 205.46,-20.49 340.78,-12.74 416.05,-11.21"/>
<polygon fill="midnightblue" stroke="midnightblue" points="416.31,-14.71 426.25,-11.04 416.19,-7.71 416.31,-14.71"/>
</g>
<!-- Node5&#45;&gt;Node6 -->
<g id="edge5" class="edge">
<title>Node5&#45;&gt;Node6</title>
<path fill="none" stroke="midnightblue" d="M286.23,-61.98C323.29,-51.53 386.19,-33.79 427.16,-22.23"/>
<polygon fill="midnightblue" stroke="midnightblue" points="428.15,-25.59 436.82,-19.51 426.25,-18.85 428.15,-25.59"/>
</g>
<!-- Node7&#45;&gt;Node6 -->
<g id="edge10" class="edge">
<title>Node7&#45;&gt;Node6</title>
<path fill="none" stroke="midnightblue" d="M391.9,-123.43C380.63,-108.71 361.23,-78.07 375,-56 384.76,-40.36 401.7,-30.01 418.4,-23.23"/>
<polygon fill="midnightblue" stroke="midnightblue" points="419.98,-26.38 428.15,-19.64 417.56,-19.81 419.98,-26.38"/>
</g>
<!-- Node8 -->
<g id="node8" class="node">
<title>Node8</title>
<g id="a_node8"><a xlink:href="____va__arg_8h.html" target="_top" xlink:title=" ">
<polygon fill="white" stroke="black" points="570,-56.5 570,-86.5 680,-86.5 680,-56.5 570,-56.5"/>
<text text-anchor="start" x="578" y="-74.5" font-family="Helvetica,sans-Serif" font-size="10.00">Runtime.PPCEABI.H/</text>
<text text-anchor="middle" x="625" y="-63.5" font-family="Helvetica,sans-Serif" font-size="10.00">__va_arg.h</text>
</a>
</g>
</g>
<!-- Node7&#45;&gt;Node8 -->
<g id="edge8" class="edge">
<title>Node7&#45;&gt;Node8</title>
<path fill="none" stroke="midnightblue" d="M431.38,-123.48C465.35,-114.53 519.6,-100.25 562.05,-89.07"/>
<polygon fill="midnightblue" stroke="midnightblue" points="562.96,-92.45 571.74,-86.52 561.17,-85.68 562.96,-92.45"/>
</g>
<!-- Node9 -->
<g id="node9" class="node">
<title>Node9</title>
<g id="a_node9"><a xlink:href="dvd_8h.html" target="_top" xlink:title=" ">
<polygon fill="white" stroke="black" points="384,-62 384,-81 476,-81 476,-62 384,-62"/>
<text text-anchor="middle" x="430" y="-69" font-family="Helvetica,sans-Serif" font-size="10.00">dolphin/dvd/dvd.h</text>
</a>
</g>
</g>
<!-- Node7&#45;&gt;Node9 -->
<g id="edge11" class="edge">
<title>Node7&#45;&gt;Node9</title>
<path fill="none" stroke="midnightblue" d="M403.44,-123.48C407.95,-114.82 415.07,-101.15 420.81,-90.15"/>
<polygon fill="midnightblue" stroke="midnightblue" points="424.05,-91.49 425.57,-81.01 417.84,-88.26 424.05,-91.49"/>
</g>
<!-- Node8&#45;&gt;Node6 -->
<g id="edge9" class="edge">
<title>Node8&#45;&gt;Node6</title>
<path fill="none" stroke="midnightblue" d="M587.56,-56.4C560.81,-46.33 525.18,-32.91 499.6,-23.28"/>
<polygon fill="midnightblue" stroke="midnightblue" points="500.58,-19.91 489.99,-19.66 498.12,-26.46 500.58,-19.91"/>
</g>
<!-- Node9&#45;&gt;Node6 -->
<g id="edge12" class="edge">
<title>Node9&#45;&gt;Node6</title>
<path fill="none" stroke="midnightblue" d="M435.3,-61.98C440.74,-53.23 449.36,-39.37 456.24,-28.31"/>
<polygon fill="midnightblue" stroke="midnightblue" points="459.4,-29.85 461.71,-19.51 453.46,-26.15 459.4,-29.85"/>
</g>
<!-- Node10&#45;&gt;Node6 -->
<g id="edge37" class="edge">
<title>Node10&#45;&gt;Node6</title>
<path fill="none" stroke="midnightblue" d="M534.45,-318.91C551.63,-313.8 574.02,-307.31 594,-302 691.23,-276.16 1034,-296.1 1034,-195.5 1034,-195.5 1034,-195.5 1034,-132 1034,-97.18 1041.54,-78.53 1015,-56 977.58,-24.23 646.55,-14.46 517.86,-11.85"/>
<polygon fill="midnightblue" stroke="midnightblue" points="517.92,-8.35 507.86,-11.65 517.79,-15.35 517.92,-8.35"/>
</g>
<!-- Node10&#45;&gt;Node7 -->
<g id="edge36" class="edge">
<title>Node10&#45;&gt;Node7</title>
<path fill="none" stroke="midnightblue" d="M499.35,-318.74C485.13,-299.72 451.22,-252.88 429,-210 419.14,-190.97 410.47,-167.92 405.01,-152.23"/>
<polygon fill="midnightblue" stroke="midnightblue" points="408.3,-151.03 401.78,-142.68 401.67,-153.28 408.3,-151.03"/>
</g>
<!-- Node10&#45;&gt;Node8 -->
<g id="edge29" class="edge">
<title>Node10&#45;&gt;Node8</title>
<path fill="none" stroke="midnightblue" d="M515.61,-318.72C541.74,-294.11 613.77,-221.16 639,-143 643.92,-127.76 640.39,-110.09 635.65,-96.25"/>
<polygon fill="midnightblue" stroke="midnightblue" points="638.76,-94.6 631.9,-86.52 632.23,-97.11 638.76,-94.6"/>
</g>
<!-- Node11 -->
<g id="node11" class="node">
<title>Node11</title>
<g id="a_node11"><a xlink:href="JKRThread_8h.html" target="_top" xlink:title=" ">
<polygon fill="white" stroke="black" points="232,-246.5 232,-265.5 382,-265.5 382,-246.5 232,-246.5"/>
<text text-anchor="middle" x="307" y="-253.5" font-family="Helvetica,sans-Serif" font-size="10.00">JSystem/JKernel/JKRThread.h</text>
</a>
</g>
</g>
<!-- Node10&#45;&gt;Node11 -->
<g id="edge16" class="edge">
<title>Node10&#45;&gt;Node11</title>
<path fill="none" stroke="midnightblue" d="M482,-319C446.74,-306.5 380.79,-283.14 340.69,-268.94"/>
<polygon fill="midnightblue" stroke="midnightblue" points="341.68,-265.57 331.09,-265.53 339.35,-272.17 341.68,-265.57"/>
</g>
<!-- Node12 -->
<g id="node12" class="node">
<title>Node12</title>
<g id="a_node12"><a xlink:href="JUTGamePad_8h.html" target="_top" xlink:title=" ">
<polygon fill="white" stroke="black" points="438,-179.5 438,-209.5 574,-209.5 574,-179.5 438,-179.5"/>
<text text-anchor="start" x="446" y="-197.5" font-family="Helvetica,sans-Serif" font-size="10.00">JSystem/JUtility/JUTGame</text>
<text text-anchor="middle" x="506" y="-186.5" font-family="Helvetica,sans-Serif" font-size="10.00">Pad.h</text>
</a>
</g>
</g>
<!-- Node10&#45;&gt;Node12 -->
<g id="edge22" class="edge">
<title>Node10&#45;&gt;Node12</title>
<path fill="none" stroke="midnightblue" d="M506,-318.84C506,-299.02 506,-249.77 506,-219.84"/>
<polygon fill="midnightblue" stroke="midnightblue" points="509.5,-219.78 506,-209.78 502.5,-219.78 509.5,-219.78"/>
</g>
<!-- Node14 -->
<g id="node14" class="node">
<title>Node14</title>
<g id="a_node14"><a xlink:href="GX_8h.html" target="_top" xlink:title=" ">
<polygon fill="white" stroke="black" points="757.5,-123.5 757.5,-142.5 842.5,-142.5 842.5,-123.5 757.5,-123.5"/>
<text text-anchor="middle" x="800" y="-130.5" font-family="Helvetica,sans-Serif" font-size="10.00">dolphin/gx/GX.h</text>
</a>
</g>
</g>
<!-- Node10&#45;&gt;Node14 -->
<g id="edge30" class="edge">
<title>Node10&#45;&gt;Node14</title>
<path fill="none" stroke="midnightblue" d="M533.38,-318.99C574.15,-306.05 648.51,-281.32 672,-266 721.73,-233.58 766.76,-178.6 787.67,-150.95"/>
<polygon fill="midnightblue" stroke="midnightblue" points="790.65,-152.8 793.81,-142.69 785.04,-148.63 790.65,-152.8"/>
</g>
<!-- Node11&#45;&gt;Node3 -->
<g id="edge18" class="edge">
<title>Node11&#45;&gt;Node3</title>
<path fill="none" stroke="midnightblue" d="M290.24,-246.48C270.78,-236.58 238.45,-220.14 215.79,-208.62"/>
<polygon fill="midnightblue" stroke="midnightblue" points="217.23,-205.42 206.73,-204.01 214.06,-211.66 217.23,-205.42"/>
</g>
<!-- Node11&#45;&gt;Node4 -->
<g id="edge17" class="edge">
<title>Node11&#45;&gt;Node4</title>
<path fill="none" stroke="midnightblue" d="M304.04,-246.44C298.71,-231.74 286.49,-201.12 270,-179 261.67,-167.83 250.31,-157.19 240.62,-149.06"/>
<polygon fill="midnightblue" stroke="midnightblue" points="242.64,-146.19 232.66,-142.62 238.23,-151.63 242.64,-146.19"/>
</g>
<!-- Node11&#45;&gt;Node5 -->
<g id="edge19" class="edge">
<title>Node11&#45;&gt;Node5</title>
<path fill="none" stroke="midnightblue" d="M309.49,-246.19C315.21,-224.28 327.41,-165.98 309,-123 302.78,-108.48 290.1,-96.15 278.71,-87.31"/>
<polygon fill="midnightblue" stroke="midnightblue" points="280.52,-84.3 270.37,-81.25 276.4,-89.96 280.52,-84.3"/>
</g>
<!-- Node11&#45;&gt;Node6 -->
<g id="edge21" class="edge">
<title>Node11&#45;&gt;Node6</title>
<path fill="none" stroke="midnightblue" d="M254.17,-246.46C198.67,-236.96 118.13,-221.43 109,-210 79.14,-172.59 62.52,-125.38 140,-56 179.76,-20.39 334.8,-12.78 416.3,-11.27"/>
<polygon fill="midnightblue" stroke="midnightblue" points="416.4,-14.77 426.34,-11.11 416.28,-7.77 416.4,-14.77"/>
</g>
<!-- Node11&#45;&gt;Node7 -->
<g id="edge20" class="edge">
<title>Node11&#45;&gt;Node7</title>
<path fill="none" stroke="midnightblue" d="M313.75,-246.41C320.84,-237.38 332.27,-222.74 342,-210 357.4,-189.84 374.87,-166.47 386.36,-151.02"/>
<polygon fill="midnightblue" stroke="midnightblue" points="389.22,-153.04 392.38,-142.93 383.61,-148.87 389.22,-153.04"/>
</g>
<!-- Node12&#45;&gt;Node4 -->
<g id="edge23" class="edge">
<title>Node12&#45;&gt;Node4</title>
<path fill="none" stroke="midnightblue" d="M438.82,-179.47C387.61,-168.78 318.19,-154.29 271.61,-144.57"/>
<polygon fill="midnightblue" stroke="midnightblue" points="272.25,-141.12 261.74,-142.51 270.82,-147.98 272.25,-141.12"/>
</g>
<!-- Node12&#45;&gt;Node5 -->
<g id="edge24" class="edge">
<title>Node12&#45;&gt;Node5</title>
<path fill="none" stroke="midnightblue" d="M498.7,-179.31C489.68,-163.2 472.8,-137.31 451,-123 417.46,-100.99 374.83,-88.56 337.98,-81.55"/>
<polygon fill="midnightblue" stroke="midnightblue" points="338.21,-78.04 327.75,-79.71 336.98,-84.93 338.21,-78.04"/>
</g>
<!-- Node12&#45;&gt;Node6 -->
<g id="edge28" class="edge">
<title>Node12&#45;&gt;Node6</title>
<path fill="none" stroke="midnightblue" d="M504.9,-179.22C502.73,-154 497,-100.03 485,-56 482.51,-46.87 478.73,-37.07 475.28,-28.96"/>
<polygon fill="midnightblue" stroke="midnightblue" points="478.45,-27.48 471.2,-19.76 472.06,-30.32 478.45,-27.48"/>
</g>
<!-- Node12&#45;&gt;Node7 -->
<g id="edge25" class="edge">
<title>Node12&#45;&gt;Node7</title>
<path fill="none" stroke="midnightblue" d="M480.64,-179.4C463.33,-169.77 440.52,-157.09 423.42,-147.58"/>
<polygon fill="midnightblue" stroke="midnightblue" points="425.01,-144.46 414.57,-142.66 421.61,-150.58 425.01,-144.46"/>
</g>
<!-- Node13 -->
<g id="node13" class="node">
<title>Node13</title>
<g id="a_node13"><a xlink:href="Pad_8h.html" target="_top" xlink:title=" ">
<polygon fill="white" stroke="black" points="536,-123.5 536,-142.5 630,-142.5 630,-123.5 536,-123.5"/>
<text text-anchor="middle" x="583" y="-130.5" font-family="Helvetica,sans-Serif" font-size="10.00">dolphin/pad/Pad.h</text>
</a>
</g>
</g>
<!-- Node12&#45;&gt;Node13 -->
<g id="edge26" class="edge">
<title>Node12&#45;&gt;Node13</title>
<path fill="none" stroke="midnightblue" d="M524.25,-179.4C536.13,-170.22 551.61,-158.26 563.69,-148.92"/>
<polygon fill="midnightblue" stroke="midnightblue" points="566.02,-151.54 571.8,-142.66 561.74,-146 566.02,-151.54"/>
</g>
<!-- Node13&#45;&gt;Node6 -->
<g id="edge27" class="edge">
<title>Node13&#45;&gt;Node6</title>
<path fill="none" stroke="midnightblue" d="M576.16,-123.22C564.7,-108.7 540.66,-79.01 518,-56 507.64,-45.48 495.24,-34.51 485.26,-26.03"/>
<polygon fill="midnightblue" stroke="midnightblue" points="487.46,-23.3 477.54,-19.56 482.96,-28.67 487.46,-23.3"/>
</g>
<!-- Node14&#45;&gt;Node6 -->
<g id="edge35" class="edge">
<title>Node14&#45;&gt;Node6</title>
<path fill="none" stroke="midnightblue" d="M807.43,-123.38C819.75,-108.03 841.39,-75.72 824,-56 804.09,-33.42 611.73,-19.33 517.93,-13.75"/>
<polygon fill="midnightblue" stroke="midnightblue" points="518,-10.24 507.81,-13.15 517.59,-17.23 518,-10.24"/>
</g>
<!-- Node15 -->
<g id="node15" class="node">
<title>Node15</title>
<g id="a_node15"><a xlink:href="GXDisplayList_8h.html" target="_top" xlink:title=" ">
<polygon fill="white" stroke="black" points="872.5,-62 872.5,-81 1005.5,-81 1005.5,-62 872.5,-62"/>
<text text-anchor="middle" x="939" y="-69" font-family="Helvetica,sans-Serif" font-size="10.00">dolphin/gx/GXDisplayList.h</text>
</a>
</g>
</g>
<!-- Node14&#45;&gt;Node15 -->
<g id="edge31" class="edge">
<title>Node14&#45;&gt;Node15</title>
<path fill="none" stroke="midnightblue" d="M819.92,-123.48C843.45,-113.4 882.81,-96.55 909.79,-85"/>
<polygon fill="midnightblue" stroke="midnightblue" points="911.31,-88.16 919.12,-81.01 908.55,-81.73 911.31,-88.16"/>
</g>
<!-- Node16 -->
<g id="node16" class="node">
<title>Node16</title>
<g id="a_node16"><a xlink:href="GXTexture_8h.html" target="_top" xlink:title=" ">
<polygon fill="white" stroke="black" points="698.5,-62 698.5,-81 815.5,-81 815.5,-62 698.5,-62"/>
<text text-anchor="middle" x="757" y="-69" font-family="Helvetica,sans-Serif" font-size="10.00">dolphin/gx/GXTexture.h</text>
</a>
</g>
</g>
<!-- Node14&#45;&gt;Node16 -->
<g id="edge33" class="edge">
<title>Node14&#45;&gt;Node16</title>
<path fill="none" stroke="midnightblue" d="M793.84,-123.48C787.39,-114.55 777.1,-100.31 769.03,-89.14"/>
<polygon fill="midnightblue" stroke="midnightblue" points="771.84,-87.06 763.15,-81.01 766.17,-91.16 771.84,-87.06"/>
</g>
<!-- Node15&#45;&gt;Node6 -->
<g id="edge32" class="edge">
<title>Node15&#45;&gt;Node6</title>
<path fill="none" stroke="midnightblue" d="M894.1,-61.95C882.37,-59.85 869.73,-57.72 858,-56 736.29,-38.12 592.39,-23.13 517.71,-15.81"/>
<polygon fill="midnightblue" stroke="midnightblue" points="517.93,-12.32 507.64,-14.83 517.25,-19.28 517.93,-12.32"/>
</g>
<!-- Node16&#45;&gt;Node6 -->
<g id="edge34" class="edge">
<title>Node16&#45;&gt;Node6</title>
<path fill="none" stroke="midnightblue" d="M717.46,-62C708.13,-60.01 698.22,-57.92 689,-56 630.12,-43.75 562.36,-30.08 517.34,-21.05"/>
<polygon fill="midnightblue" stroke="midnightblue" points="518.03,-17.62 507.54,-19.09 516.65,-24.49 518.03,-17.62"/>
</g>
<!-- Node18&#45;&gt;Node6 -->
<g id="edge41" class="edge">
<title>Node18&#45;&gt;Node6</title>
<path fill="none" stroke="midnightblue" d="M1088.53,-246.09C1093.41,-214.46 1105.07,-106.79 1048,-56 1008.83,-21.13 651.96,-13.23 517.73,-11.48"/>
<polygon fill="midnightblue" stroke="midnightblue" points="517.75,-7.98 507.7,-11.36 517.66,-14.98 517.75,-7.98"/>
</g>
</g>
</svg>
