<?xml version="1.0" encoding="UTF-8" standalone="no"?>
<!DOCTYPE svg PUBLIC "-//W3C//DTD SVG 1.1//EN"
 "http://www.w3.org/Graphics/SVG/1.1/DTD/svg11.dtd">
<!-- Generated by graphviz version 2.44.0 ()
 -->
<!-- Title: libs/JSystem/JKernel/JKRFileLoader.cpp Pages: 1 -->
<svg width="543pt" height="296pt"
 viewBox="0.00 0.00 543.00 296.00" xmlns="http://www.w3.org/2000/svg" xmlns:xlink="http://www.w3.org/1999/xlink">
<g id="graph0" class="graph" transform="scale(1 1) rotate(0) translate(4 292)">
<title>libs/JSystem/JKernel/JKRFileLoader.cpp</title>
<polygon fill="white" stroke="transparent" points="-4,4 -4,-292 539,-292 539,4 -4,4"/>
<!-- Node1 -->
<g id="node1" class="node">
<title>Node1</title>
<g id="a_node1"><a xlink:title=" ">
<polygon fill="#bfbfbf" stroke="black" points="239,-257.5 239,-287.5 348,-287.5 348,-257.5 239,-257.5"/>
<text text-anchor="start" x="247" y="-275.5" font-family="Helvetica,sans-Serif" font-size="10.00">libs/JSystem/JKernel</text>
<text text-anchor="middle" x="293.5" y="-264.5" font-family="Helvetica,sans-Serif" font-size="10.00">/JKRFileLoader.cpp</text>
</a>
</g>
</g>
<!-- Node2 -->
<g id="node2" class="node">
<title>Node2</title>
<g id="a_node2"><a xlink:href="JKRFileLoader_8h.html" target="_top" xlink:title=" ">
<polygon fill="white" stroke="black" points="19.5,-190.5 19.5,-209.5 185.5,-209.5 185.5,-190.5 19.5,-190.5"/>
<text text-anchor="middle" x="102.5" y="-197.5" font-family="Helvetica,sans-Serif" font-size="10.00">JSystem/JKernel/JKRFileLoader.h</text>
</a>
</g>
</g>
<!-- Node1&#45;&gt;Node2 -->
<g id="edge1" class="edge">
<title>Node1&#45;&gt;Node2</title>
<path fill="none" stroke="midnightblue" d="M255.31,-257.4C220.18,-244.44 168.65,-225.42 135.34,-213.12"/>
<polygon fill="midnightblue" stroke="midnightblue" points="136.21,-209.71 125.62,-209.53 133.79,-216.28 136.21,-209.71"/>
</g>
<!-- Node6 -->
<g id="node6" class="node">
<title>Node6</title>
<g id="a_node6"><a xlink:href="dol2asm_8h.html" target="_top" xlink:title=" ">
<polygon fill="white" stroke="black" points="204,-190.5 204,-209.5 265,-209.5 265,-190.5 204,-190.5"/>
<text text-anchor="middle" x="234.5" y="-197.5" font-family="Helvetica,sans-Serif" font-size="10.00">dol2asm.h</text>
</a>
</g>
</g>
<!-- Node1&#45;&gt;Node6 -->
<g id="edge8" class="edge">
<title>Node1&#45;&gt;Node6</title>
<path fill="none" stroke="midnightblue" d="M281.56,-257.23C272.02,-245.84 258.64,-229.84 248.58,-217.82"/>
<polygon fill="midnightblue" stroke="midnightblue" points="251.04,-215.32 241.94,-209.89 245.68,-219.81 251.04,-215.32"/>
</g>
<!-- Node7 -->
<g id="node7" class="node">
<title>Node7</title>
<g id="a_node7"><a xlink:href="global_8h.html" target="_top" xlink:title=" ">
<polygon fill="white" stroke="black" points="237.5,-123.5 237.5,-142.5 287.5,-142.5 287.5,-123.5 237.5,-123.5"/>
<text text-anchor="middle" x="262.5" y="-130.5" font-family="Helvetica,sans-Serif" font-size="10.00">global.h</text>
</a>
</g>
</g>
<!-- Node1&#45;&gt;Node7 -->
<g id="edge9" class="edge">
<title>Node1&#45;&gt;Node7</title>
<path fill="none" stroke="midnightblue" d="M290.86,-257.34C287.4,-239.14 281.01,-206.6 274.5,-179 272.43,-170.24 269.89,-160.58 267.68,-152.47"/>
<polygon fill="midnightblue" stroke="midnightblue" points="270.99,-151.29 264.95,-142.59 264.24,-153.16 270.99,-151.29"/>
</g>
<!-- Node8 -->
<g id="node8" class="node">
<title>Node8</title>
<g id="a_node8"><a xlink:href="msl__c_2string_8h.html" target="_top" xlink:title=" ">
<polygon fill="white" stroke="black" points="306,-123.5 306,-142.5 383,-142.5 383,-123.5 306,-123.5"/>
<text text-anchor="middle" x="344.5" y="-130.5" font-family="Helvetica,sans-Serif" font-size="10.00">msl_c/string.h</text>
</a>
</g>
</g>
<!-- Node1&#45;&gt;Node8 -->
<g id="edge11" class="edge">
<title>Node1&#45;&gt;Node8</title>
<path fill="none" stroke="midnightblue" d="M298.77,-257.3C308.07,-232.23 327.39,-180.12 337.69,-152.35"/>
<polygon fill="midnightblue" stroke="midnightblue" points="341.08,-153.29 341.27,-142.7 334.51,-150.86 341.08,-153.29"/>
</g>
<!-- Node10 -->
<g id="node10" class="node">
<title>Node10</title>
<g id="a_node10"><a xlink:title=" ">
<polygon fill="white" stroke="#bfbfbf" points="360,-179.5 360,-220.5 535,-220.5 535,-179.5 360,-179.5"/>
<text text-anchor="start" x="368" y="-208.5" font-family="Helvetica,sans-Serif" font-size="10.00">asm/JSystem/JKernel</text>
<text text-anchor="start" x="368" y="-197.5" font-family="Helvetica,sans-Serif" font-size="10.00">/JKRFileLoader/fetchVolume</text>
<text text-anchor="middle" x="447.5" y="-186.5" font-family="Helvetica,sans-Serif" font-size="10.00">Name__13JKRFileLoaderFPclPCc.s</text>
</a>
</g>
</g>
<!-- Node1&#45;&gt;Node10 -->
<g id="edge15" class="edge">
<title>Node1&#45;&gt;Node10</title>
<path fill="none" stroke="midnightblue" d="M324.29,-257.4C344.67,-248.07 371.91,-235.61 395.59,-224.77"/>
<polygon fill="midnightblue" stroke="midnightblue" points="397.17,-227.89 404.8,-220.55 394.25,-221.53 397.17,-227.89"/>
</g>
<!-- Node3 -->
<g id="node3" class="node">
<title>Node3</title>
<g id="a_node3"><a xlink:href="JKRDisposer_8h.html" target="_top" xlink:title=" ">
<polygon fill="white" stroke="black" points="23.5,-123.5 23.5,-142.5 181.5,-142.5 181.5,-123.5 23.5,-123.5"/>
<text text-anchor="middle" x="102.5" y="-130.5" font-family="Helvetica,sans-Serif" font-size="10.00">JSystem/JKernel/JKRDisposer.h</text>
</a>
</g>
</g>
<!-- Node2&#45;&gt;Node3 -->
<g id="edge2" class="edge">
<title>Node2&#45;&gt;Node3</title>
<path fill="none" stroke="midnightblue" d="M102.5,-190.23C102.5,-180.68 102.5,-165.12 102.5,-152.78"/>
<polygon fill="midnightblue" stroke="midnightblue" points="106,-152.63 102.5,-142.63 99,-152.63 106,-152.63"/>
</g>
<!-- Node4 -->
<g id="node4" class="node">
<title>Node4</title>
<g id="a_node4"><a xlink:href="JSUList_8h.html" target="_top" xlink:title=" ">
<polygon fill="white" stroke="black" points="0,-62 0,-81 143,-81 143,-62 0,-62"/>
<text text-anchor="middle" x="71.5" y="-69" font-family="Helvetica,sans-Serif" font-size="10.00">JSystem/JSupport/JSUList.h</text>
</a>
</g>
</g>
<!-- Node2&#45;&gt;Node4 -->
<g id="edge6" class="edge">
<title>Node2&#45;&gt;Node4</title>
<path fill="none" stroke="midnightblue" d="M76.46,-190.39C55.54,-181.95 27.57,-166.81 14.5,-143 2.69,-121.49 26.41,-100.03 46.76,-86.53"/>
<polygon fill="midnightblue" stroke="midnightblue" points="48.83,-89.37 55.45,-81.09 45.12,-83.44 48.83,-89.37"/>
</g>
<!-- Node5 -->
<g id="node5" class="node">
<title>Node5</title>
<g id="a_node5"><a xlink:href="types_8h.html" target="_top" xlink:title=" ">
<polygon fill="white" stroke="black" points="188,-0.5 188,-19.5 269,-19.5 269,-0.5 188,-0.5"/>
<text text-anchor="middle" x="228.5" y="-7.5" font-family="Helvetica,sans-Serif" font-size="10.00">dolphin/types.h</text>
</a>
</g>
</g>
<!-- Node2&#45;&gt;Node5 -->
<g id="edge7" class="edge">
<title>Node2&#45;&gt;Node5</title>
<path fill="none" stroke="midnightblue" d="M124.55,-190.4C144.6,-181.47 173.58,-165.62 190.5,-143 216.25,-108.58 224.58,-57.19 227.25,-29.79"/>
<polygon fill="midnightblue" stroke="midnightblue" points="230.75,-29.89 228.08,-19.64 223.78,-29.32 230.75,-29.89"/>
</g>
<!-- Node3&#45;&gt;Node4 -->
<g id="edge3" class="edge">
<title>Node3&#45;&gt;Node4</title>
<path fill="none" stroke="midnightblue" d="M98.06,-123.48C93.55,-114.82 86.43,-101.15 80.69,-90.15"/>
<polygon fill="midnightblue" stroke="midnightblue" points="83.66,-88.26 75.93,-81.01 77.45,-91.49 83.66,-88.26"/>
</g>
<!-- Node3&#45;&gt;Node5 -->
<g id="edge5" class="edge">
<title>Node3&#45;&gt;Node5</title>
<path fill="none" stroke="midnightblue" d="M111.99,-123.47C121.93,-114.5 137.95,-99.9 151.5,-87 173.05,-66.49 197.41,-42.26 212.85,-26.77"/>
<polygon fill="midnightblue" stroke="midnightblue" points="215.48,-29.09 220.05,-19.54 210.52,-24.16 215.48,-29.09"/>
</g>
<!-- Node4&#45;&gt;Node5 -->
<g id="edge4" class="edge">
<title>Node4&#45;&gt;Node5</title>
<path fill="none" stroke="midnightblue" d="M93.99,-61.98C120.81,-51.81 165.82,-34.76 196.31,-23.2"/>
<polygon fill="midnightblue" stroke="midnightblue" points="197.94,-26.33 206.05,-19.51 195.46,-19.78 197.94,-26.33"/>
</g>
<!-- Node7&#45;&gt;Node5 -->
<g id="edge10" class="edge">
<title>Node7&#45;&gt;Node5</title>
<path fill="none" stroke="midnightblue" d="M260.05,-123.3C254.57,-103.76 241.16,-56.06 233.71,-29.55"/>
<polygon fill="midnightblue" stroke="midnightblue" points="237,-28.3 230.92,-19.62 230.26,-30.2 237,-28.3"/>
</g>
<!-- Node8&#45;&gt;Node5 -->
<g id="edge14" class="edge">
<title>Node8&#45;&gt;Node5</title>
<path fill="none" stroke="midnightblue" d="M336.16,-123.3C316.84,-103.15 268.82,-53.06 243.96,-27.12"/>
<polygon fill="midnightblue" stroke="midnightblue" points="246.21,-24.42 236.77,-19.62 241.16,-29.26 246.21,-24.42"/>
</g>
<!-- Node9 -->
<g id="node9" class="node">
<title>Node9</title>
<g id="a_node9"><a xlink:href="____va__arg_8h.html" target="_top" xlink:title=" ">
<polygon fill="white" stroke="black" points="313.5,-56.5 313.5,-86.5 423.5,-86.5 423.5,-56.5 313.5,-56.5"/>
<text text-anchor="start" x="321.5" y="-74.5" font-family="Helvetica,sans-Serif" font-size="10.00">Runtime.PPCEABI.H/</text>
<text text-anchor="middle" x="368.5" y="-63.5" font-family="Helvetica,sans-Serif" font-size="10.00">__va_arg.h</text>
</a>
</g>
</g>
<!-- Node8&#45;&gt;Node9 -->
<g id="edge12" class="edge">
<title>Node8&#45;&gt;Node9</title>
<path fill="none" stroke="midnightblue" d="M347.94,-123.48C350.82,-116.32 355.09,-105.75 358.99,-96.08"/>
<polygon fill="midnightblue" stroke="midnightblue" points="362.35,-97.11 362.84,-86.52 355.86,-94.49 362.35,-97.11"/>
</g>
<!-- Node9&#45;&gt;Node5 -->
<g id="edge13" class="edge">
<title>Node9&#45;&gt;Node5</title>
<path fill="none" stroke="midnightblue" d="M335.32,-56.4C311.94,-46.46 280.89,-33.26 258.29,-23.66"/>
<polygon fill="midnightblue" stroke="midnightblue" points="259.44,-20.35 248.87,-19.66 256.71,-26.79 259.44,-20.35"/>
</g>
</g>
</svg>
