<?xml version="1.0" encoding="UTF-8" standalone="no"?>
<!DOCTYPE svg PUBLIC "-//W3C//DTD SVG 1.1//EN"
 "http://www.w3.org/Graphics/SVG/1.1/DTD/svg11.dtd">
<!-- Generated by graphviz version 2.44.0 ()
 -->
<!-- Title: libs/JSystem/JKernel/JKRFileCache.cpp Pages: 1 -->
<!--zoomable 352 -->
<svg id="main" version="1.1" xmlns="http://www.w3.org/2000/svg" xmlns:xlink="http://www.w3.org/1999/xlink" xml:space="preserve" onload="init(evt)">
<style type="text/css"><![CDATA[
.edge:hover path { stroke: red; }
.edge:hover polygon { stroke: red; fill: red; }
]]></style>
<script type="text/javascript"><![CDATA[
var edges = document.getElementsByTagName('g');
if (edges && edges.length) {
  for (var i=0;i<edges.length;i++) {
    if (edges[i].id.substr(0,4)=='edge') {
      edges[i].setAttribute('class','edge');
    }
  }
}
]]></script>
        <defs>
                <circle id="rim" cx="0" cy="0" r="7"/>
                <circle id="rim2" cx="0" cy="0" r="3.5"/>
                <g id="zoomPlus">
                        <use xlink:href="#rim" fill="#404040">
                                <set attributeName="fill" to="#808080" begin="zoomplus.mouseover" end="zoomplus.mouseout"/>
                        </use>
                        <path d="M-4,0h8M0,-4v8" fill="none" stroke="white" stroke-width="1.5" pointer-events="none"/>
                </g>
                <g id="zoomMin">
                        <use xlink:href="#rim" fill="#404040">
                                <set attributeName="fill" to="#808080" begin="zoomminus.mouseover" end="zoomminus.mouseout"/>
                        </use>
                        <path d="M-4,0h8" fill="none" stroke="white" stroke-width="1.5" pointer-events="none"/>
                </g>
                <g id="dirArrow">
                        <path fill="none" stroke="white" stroke-width="1.5" d="M0,-3.0v7 M-2.5,-0.5L0,-3.0L2.5,-0.5"/>
                </g>
               <g id="resetDef">
                       <use xlink:href="#rim2" fill="#404040">
                               <set attributeName="fill" to="#808080" begin="reset.mouseover" end="reset.mouseout"/>
                       </use>
               </g>
        </defs>

<script type="text/javascript">
var viewWidth = 1205;
var viewHeight = 352;
var sectionId = 'dynsection-0';
</script>
<script xlink:href="svgpan.js"/>
<svg id="graph" class="graph">
<g id="viewport">
<title>libs/JSystem/JKernel/JKRFileCache.cpp</title>
<polygon fill="white" stroke="transparent" points="-4,4 -4,-348 1200.52,-348 1200.52,4 -4,4"/>
<!-- Node1 -->
<g id="node1" class="node">
<title>Node1</title>
<g id="a_node1"><a xlink:title=" ">
<polygon fill="#bfbfbf" stroke="black" points="669.02,-313.5 669.02,-343.5 778.02,-343.5 778.02,-313.5 669.02,-313.5"/>
<text text-anchor="start" x="677.02" y="-331.5" font-family="Helvetica,sans-Serif" font-size="10.00">libs/JSystem/JKernel</text>
<text text-anchor="middle" x="723.52" y="-320.5" font-family="Helvetica,sans-Serif" font-size="10.00">/JKRFileCache.cpp</text>
</a>
</g>
</g>
<!-- Node2 -->
<g id="node2" class="node">
<title>Node2</title>
<g id="a_node2"><a xlink:href="JKRFileCache_8h.html" target="_top" xlink:title=" ">
<polygon fill="white" stroke="black" points="12.52,-246.5 12.52,-265.5 176.52,-265.5 176.52,-246.5 12.52,-246.5"/>
<text text-anchor="middle" x="94.52" y="-253.5" font-family="Helvetica,sans-Serif" font-size="10.00">JSystem/JKernel/JKRFileCache.h</text>
</a>
</g>
</g>
<!-- Node1&#45;&gt;Node2 -->
<g id="edge1" class="edge">
<title>Node1&#45;&gt;Node2</title>
<path fill="none" stroke="midnightblue" d="M668.8,-321.37C559.2,-309.08 312.01,-281.38 180.54,-266.64"/>
<polygon fill="midnightblue" stroke="midnightblue" points="180.83,-263.15 170.51,-265.52 180.05,-270.11 180.83,-263.15"/>
</g>
<!-- Node7 -->
<g id="node7" class="node">
<title>Node7</title>
<g id="a_node7"><a xlink:href="JKRDvdFile_8h.html" target="_top" xlink:title=" ">
<polygon fill="white" stroke="black" points="483.02,-246.5 483.02,-265.5 636.02,-265.5 636.02,-246.5 483.02,-246.5"/>
<text text-anchor="middle" x="559.52" y="-253.5" font-family="Helvetica,sans-Serif" font-size="10.00">JSystem/JKernel/JKRDvdFile.h</text>
</a>
</g>
</g>
<!-- Node1&#45;&gt;Node7 -->
<g id="edge10" class="edge">
<title>Node1&#45;&gt;Node7</title>
<path fill="none" stroke="midnightblue" d="M690.73,-313.4C660.96,-300.61 617.46,-281.91 588.83,-269.6"/>
<polygon fill="midnightblue" stroke="midnightblue" points="589.94,-266.27 579.37,-265.53 587.18,-272.7 589.94,-266.27"/>
</g>
<!-- Node12 -->
<g id="node12" class="node">
<title>Node12</title>
<g id="a_node12"><a xlink:href="JKRFileFinder_8h.html" target="_top" xlink:title=" ">
<polygon fill="white" stroke="black" points="626.02,-123.5 626.02,-142.5 789.02,-142.5 789.02,-123.5 626.02,-123.5"/>
<text text-anchor="middle" x="707.52" y="-130.5" font-family="Helvetica,sans-Serif" font-size="10.00">JSystem/JKernel/JKRFileFinder.h</text>
</a>
</g>
</g>
<!-- Node1&#45;&gt;Node12 -->
<g id="edge22" class="edge">
<title>Node1&#45;&gt;Node12</title>
<path fill="none" stroke="midnightblue" d="M718.47,-313.12C715.23,-303.13 711.3,-289.43 709.52,-277 703.21,-232.91 704.76,-180.4 706.25,-152.92"/>
<polygon fill="midnightblue" stroke="midnightblue" points="709.76,-152.96 706.87,-142.77 702.77,-152.54 709.76,-152.96"/>
</g>
<!-- Node13 -->
<g id="node13" class="node">
<title>Node13</title>
<g id="a_node13"><a xlink:href="JKRHeap_8h.html" target="_top" xlink:title=" ">
<polygon fill="white" stroke="black" points="350.02,-179.5 350.02,-198.5 493.02,-198.5 493.02,-179.5 350.02,-179.5"/>
<text text-anchor="middle" x="421.52" y="-186.5" font-family="Helvetica,sans-Serif" font-size="10.00">JSystem/JKernel/JKRHeap.h</text>
</a>
</g>
</g>
<!-- Node1&#45;&gt;Node13 -->
<g id="edge25" class="edge">
<title>Node1&#45;&gt;Node13</title>
<path fill="none" stroke="midnightblue" d="M668.77,-321.56C605.24,-313.78 505.26,-298.57 474.52,-277 450.34,-260.04 435.16,-228.19 427.52,-208.09"/>
<polygon fill="midnightblue" stroke="midnightblue" points="430.77,-206.79 424.12,-198.54 424.18,-209.14 430.77,-206.79"/>
</g>
<!-- Node14 -->
<g id="node14" class="node">
<title>Node14</title>
<g id="a_node14"><a xlink:href="dol2asm_8h.html" target="_top" xlink:title=" ">
<polygon fill="white" stroke="black" points="790.02,-246.5 790.02,-265.5 851.02,-265.5 851.02,-246.5 790.02,-246.5"/>
<text text-anchor="middle" x="820.52" y="-253.5" font-family="Helvetica,sans-Serif" font-size="10.00">dol2asm.h</text>
</a>
</g>
</g>
<!-- Node1&#45;&gt;Node14 -->
<g id="edge29" class="edge">
<title>Node1&#45;&gt;Node14</title>
<path fill="none" stroke="midnightblue" d="M743.15,-313.23C759.68,-301.22 783.26,-284.08 800.03,-271.89"/>
<polygon fill="midnightblue" stroke="midnightblue" points="802.53,-274.4 808.56,-265.69 798.41,-268.74 802.53,-274.4"/>
</g>
<!-- Node15 -->
<g id="node15" class="node">
<title>Node15</title>
<g id="a_node15"><a xlink:href="global_8h.html" target="_top" xlink:title=" ">
<polygon fill="white" stroke="black" points="819.52,-179.5 819.52,-198.5 869.52,-198.5 869.52,-179.5 819.52,-179.5"/>
<text text-anchor="middle" x="844.52" y="-186.5" font-family="Helvetica,sans-Serif" font-size="10.00">global.h</text>
</a>
</g>
</g>
<!-- Node1&#45;&gt;Node15 -->
<g id="edge30" class="edge">
<title>Node1&#45;&gt;Node15</title>
<path fill="none" stroke="midnightblue" d="M730.11,-313.49C739.6,-294.29 758.52,-259.43 781.52,-235 792.94,-222.87 808.06,-211.94 820.63,-203.89"/>
<polygon fill="midnightblue" stroke="midnightblue" points="822.58,-206.8 829.24,-198.56 818.9,-200.85 822.58,-206.8"/>
</g>
<!-- Node16 -->
<g id="node16" class="node">
<title>Node16</title>
<g id="a_node16"><a xlink:href="msl__c_2string_8h.html" target="_top" xlink:title=" ">
<polygon fill="white" stroke="black" points="807.02,-123.5 807.02,-142.5 884.02,-142.5 884.02,-123.5 807.02,-123.5"/>
<text text-anchor="middle" x="845.52" y="-130.5" font-family="Helvetica,sans-Serif" font-size="10.00">msl_c/string.h</text>
</a>
</g>
</g>
<!-- Node1&#45;&gt;Node16 -->
<g id="edge32" class="edge">
<title>Node1&#45;&gt;Node16</title>
<path fill="none" stroke="midnightblue" d="M724.69,-313.49C726.77,-294.61 732.31,-260.42 746.52,-235 766.7,-198.89 803.19,-166.56 825.79,-148.68"/>
<polygon fill="midnightblue" stroke="midnightblue" points="827.94,-151.44 833.71,-142.56 823.66,-145.91 827.94,-151.44"/>
</g>
<!-- Node17 -->
<g id="node17" class="node">
<title>Node17</title>
<g id="a_node17"><a xlink:title=" ">
<polygon fill="white" stroke="#bfbfbf" points="869.02,-235.5 869.02,-276.5 1020.02,-276.5 1020.02,-235.5 869.02,-235.5"/>
<text text-anchor="start" x="877.02" y="-264.5" font-family="Helvetica,sans-Serif" font-size="10.00">asm/JSystem/JKernel</text>
<text text-anchor="start" x="877.02" y="-253.5" font-family="Helvetica,sans-Serif" font-size="10.00">/JKRFileCache/becomeCurrent</text>
<text text-anchor="middle" x="944.52" y="-242.5" font-family="Helvetica,sans-Serif" font-size="10.00">__12JKRFileCacheFPCc.s</text>
</a>
</g>
</g>
<!-- Node1&#45;&gt;Node17 -->
<g id="edge35" class="edge">
<title>Node1&#45;&gt;Node17</title>
<path fill="none" stroke="midnightblue" d="M767.45,-313.49C797.71,-303.83 838.59,-290.79 873.45,-279.67"/>
<polygon fill="midnightblue" stroke="midnightblue" points="874.64,-282.97 883.1,-276.59 872.51,-276.3 874.64,-282.97"/>
</g>
<!-- Node18 -->
<g id="node18" class="node">
<title>Node18</title>
<g id="a_node18"><a xlink:title=" ">
<polygon fill="white" stroke="#bfbfbf" points="1038.52,-235.5 1038.52,-276.5 1196.52,-276.5 1196.52,-235.5 1038.52,-235.5"/>
<text text-anchor="start" x="1046.52" y="-264.5" font-family="Helvetica,sans-Serif" font-size="10.00">asm/JSystem/JKernel</text>
<text text-anchor="start" x="1046.52" y="-253.5" font-family="Helvetica,sans-Serif" font-size="10.00">/JKRFileCache/removeResource</text>
<text text-anchor="middle" x="1117.52" y="-242.5" font-family="Helvetica,sans-Serif" font-size="10.00">All__12JKRFileCacheFv.s</text>
</a>
</g>
</g>
<!-- Node1&#45;&gt;Node18 -->
<g id="edge36" class="edge">
<title>Node1&#45;&gt;Node18</title>
<path fill="none" stroke="midnightblue" d="M778.14,-319.5C837.39,-310.59 934.98,-295.26 1028.5,-277.15"/>
<polygon fill="midnightblue" stroke="midnightblue" points="1029.27,-280.56 1038.41,-275.21 1027.93,-273.69 1029.27,-280.56"/>
</g>
<!-- Node3 -->
<g id="node3" class="node">
<title>Node3</title>
<g id="a_node3"><a xlink:href="JKRFileLoader_8h.html" target="_top" xlink:title=" ">
<polygon fill="white" stroke="black" points="11.52,-179.5 11.52,-198.5 177.52,-198.5 177.52,-179.5 11.52,-179.5"/>
<text text-anchor="middle" x="94.52" y="-186.5" font-family="Helvetica,sans-Serif" font-size="10.00">JSystem/JKernel/JKRFileLoader.h</text>
</a>
</g>
</g>
<!-- Node2&#45;&gt;Node3 -->
<g id="edge2" class="edge">
<title>Node2&#45;&gt;Node3</title>
<path fill="none" stroke="midnightblue" d="M94.52,-246.23C94.52,-236.68 94.52,-221.12 94.52,-208.78"/>
<polygon fill="midnightblue" stroke="midnightblue" points="98.02,-208.63 94.52,-198.63 91.02,-208.63 98.02,-208.63"/>
</g>
<!-- Node6 -->
<g id="node6" class="node">
<title>Node6</title>
<g id="a_node6"><a xlink:href="types_8h.html" target="_top" xlink:title=" ">
<polygon fill="white" stroke="black" points="415.02,-0.5 415.02,-19.5 496.02,-19.5 496.02,-0.5 415.02,-0.5"/>
<text text-anchor="middle" x="455.52" y="-7.5" font-family="Helvetica,sans-Serif" font-size="10.00">dolphin/types.h</text>
</a>
</g>
</g>
<!-- Node2&#45;&gt;Node6 -->
<g id="edge9" class="edge">
<title>Node2&#45;&gt;Node6</title>
<path fill="none" stroke="midnightblue" d="M66.84,-246.43C34.97,-234.86 -11.32,-211.84 2.52,-179 32.9,-106.88 58.22,-90.4 128.52,-56 176.06,-32.74 325.23,-19.62 404.62,-14.11"/>
<polygon fill="midnightblue" stroke="midnightblue" points="405.14,-17.59 414.88,-13.42 404.67,-10.6 405.14,-17.59"/>
</g>
<!-- Node4 -->
<g id="node4" class="node">
<title>Node4</title>
<g id="a_node4"><a xlink:href="JKRDisposer_8h.html" target="_top" xlink:title=" ">
<polygon fill="white" stroke="black" points="184.52,-123.5 184.52,-142.5 342.52,-142.5 342.52,-123.5 184.52,-123.5"/>
<text text-anchor="middle" x="263.52" y="-130.5" font-family="Helvetica,sans-Serif" font-size="10.00">JSystem/JKernel/JKRDisposer.h</text>
</a>
</g>
</g>
<!-- Node3&#45;&gt;Node4 -->
<g id="edge3" class="edge">
<title>Node3&#45;&gt;Node4</title>
<path fill="none" stroke="midnightblue" d="M121.3,-179.44C149.85,-170.32 195.25,-155.81 227.06,-145.65"/>
<polygon fill="midnightblue" stroke="midnightblue" points="228.41,-148.89 236.87,-142.52 226.28,-142.23 228.41,-148.89"/>
</g>
<!-- Node5 -->
<g id="node5" class="node">
<title>Node5</title>
<g id="a_node5"><a xlink:href="JSUList_8h.html" target="_top" xlink:title=" ">
<polygon fill="white" stroke="black" points="170.02,-62 170.02,-81 313.02,-81 313.02,-62 170.02,-62"/>
<text text-anchor="middle" x="241.52" y="-69" font-family="Helvetica,sans-Serif" font-size="10.00">JSystem/JSupport/JSUList.h</text>
</a>
</g>
</g>
<!-- Node3&#45;&gt;Node5 -->
<g id="edge7" class="edge">
<title>Node3&#45;&gt;Node5</title>
<path fill="none" stroke="midnightblue" d="M105.2,-179.3C120.64,-166.75 150.12,-142.91 175.52,-123 190.84,-111 208.33,-97.62 221.46,-87.66"/>
<polygon fill="midnightblue" stroke="midnightblue" points="223.92,-90.19 229.77,-81.36 219.69,-84.61 223.92,-90.19"/>
</g>
<!-- Node3&#45;&gt;Node6 -->
<g id="edge8" class="edge">
<title>Node3&#45;&gt;Node6</title>
<path fill="none" stroke="midnightblue" d="M96,-179.47C100.63,-155.55 117.23,-87.52 160.52,-56 198.52,-28.33 330.88,-17.28 404.72,-13.19"/>
<polygon fill="midnightblue" stroke="midnightblue" points="404.94,-16.68 414.74,-12.65 404.57,-9.69 404.94,-16.68"/>
</g>
<!-- Node4&#45;&gt;Node5 -->
<g id="edge4" class="edge">
<title>Node4&#45;&gt;Node5</title>
<path fill="none" stroke="midnightblue" d="M260.37,-123.48C257.2,-114.9 252.21,-101.43 248.17,-90.48"/>
<polygon fill="midnightblue" stroke="midnightblue" points="251.42,-89.17 244.67,-81.01 244.85,-91.6 251.42,-89.17"/>
</g>
<!-- Node4&#45;&gt;Node6 -->
<g id="edge6" class="edge">
<title>Node4&#45;&gt;Node6</title>
<path fill="none" stroke="midnightblue" d="M274.67,-123.3C297.09,-105.87 347.09,-67.35 365.52,-56 385.22,-43.86 408.63,-32.24 426.64,-23.85"/>
<polygon fill="midnightblue" stroke="midnightblue" points="428.4,-26.89 436.03,-19.53 425.48,-20.53 428.4,-26.89"/>
</g>
<!-- Node5&#45;&gt;Node6 -->
<g id="edge5" class="edge">
<title>Node5&#45;&gt;Node6</title>
<path fill="none" stroke="midnightblue" d="M272.18,-61.98C309.76,-51.53 373.56,-33.79 415.12,-22.23"/>
<polygon fill="midnightblue" stroke="midnightblue" points="416.22,-25.56 424.92,-19.51 414.34,-18.82 416.22,-25.56"/>
</g>
<!-- Node7&#45;&gt;Node6 -->
<g id="edge21" class="edge">
<title>Node7&#45;&gt;Node6</title>
<path fill="none" stroke="midnightblue" d="M552.9,-246.07C542.33,-231.83 520.94,-203.12 502.52,-179 490.22,-162.89 482.45,-161.65 474.52,-143 458.42,-105.14 455.52,-56.24 455.25,-29.86"/>
<polygon fill="midnightblue" stroke="midnightblue" points="458.75,-29.75 455.27,-19.75 451.75,-29.74 458.75,-29.75"/>
</g>
<!-- Node8 -->
<g id="node8" class="node">
<title>Node8</title>
<g id="a_node8"><a xlink:href="JKRFile_8h.html" target="_top" xlink:title=" ">
<polygon fill="white" stroke="black" points="195.52,-179.5 195.52,-198.5 331.52,-198.5 331.52,-179.5 195.52,-179.5"/>
<text text-anchor="middle" x="263.52" y="-186.5" font-family="Helvetica,sans-Serif" font-size="10.00">JSystem/JKernel/JKRFile.h</text>
</a>
</g>
</g>
<!-- Node7&#45;&gt;Node8 -->
<g id="edge11" class="edge">
<title>Node7&#45;&gt;Node8</title>
<path fill="none" stroke="midnightblue" d="M520.52,-246.44C467.06,-234.7 371.01,-213.61 312.69,-200.8"/>
<polygon fill="midnightblue" stroke="midnightblue" points="313.12,-197.31 302.61,-198.58 311.62,-204.15 313.12,-197.31"/>
</g>
<!-- Node9 -->
<g id="node9" class="node">
<title>Node9</title>
<g id="a_node9"><a xlink:href="dvd_8h.html" target="_top" xlink:title=" ">
<polygon fill="white" stroke="black" points="521.52,-62 521.52,-81 613.52,-81 613.52,-62 521.52,-62"/>
<text text-anchor="middle" x="567.52" y="-69" font-family="Helvetica,sans-Serif" font-size="10.00">dolphin/dvd/dvd.h</text>
</a>
</g>
</g>
<!-- Node7&#45;&gt;Node9 -->
<g id="edge14" class="edge">
<title>Node7&#45;&gt;Node9</title>
<path fill="none" stroke="midnightblue" d="M562.27,-246.38C568.65,-225.35 583.55,-169.73 578.52,-123 577.37,-112.36 574.91,-100.66 572.6,-91.21"/>
<polygon fill="midnightblue" stroke="midnightblue" points="575.94,-90.15 570.05,-81.34 569.16,-91.9 575.94,-90.15"/>
</g>
<!-- Node10 -->
<g id="node10" class="node">
<title>Node10</title>
<g id="a_node10"><a xlink:href="OS_8h.html" target="_top" xlink:title=" ">
<polygon fill="white" stroke="black" points="483.52,-123.5 483.52,-142.5 569.52,-142.5 569.52,-123.5 483.52,-123.5"/>
<text text-anchor="middle" x="526.52" y="-130.5" font-family="Helvetica,sans-Serif" font-size="10.00">dolphin/os/OS.h</text>
</a>
</g>
</g>
<!-- Node7&#45;&gt;Node10 -->
<g id="edge16" class="edge">
<title>Node7&#45;&gt;Node10</title>
<path fill="none" stroke="midnightblue" d="M557.15,-246.3C551.82,-226.76 538.81,-179.06 531.58,-152.55"/>
<polygon fill="midnightblue" stroke="midnightblue" points="534.88,-151.35 528.87,-142.62 528.13,-153.19 534.88,-151.35"/>
</g>
<!-- Node8&#45;&gt;Node4 -->
<g id="edge12" class="edge">
<title>Node8&#45;&gt;Node4</title>
<path fill="none" stroke="midnightblue" d="M263.52,-179.08C263.52,-172.01 263.52,-161.86 263.52,-152.99"/>
<polygon fill="midnightblue" stroke="midnightblue" points="267.02,-152.75 263.52,-142.75 260.02,-152.75 267.02,-152.75"/>
</g>
<!-- Node8&#45;&gt;Node6 -->
<g id="edge13" class="edge">
<title>Node8&#45;&gt;Node6</title>
<path fill="none" stroke="midnightblue" d="M286.44,-179.5C305.2,-171.82 331.77,-159.24 351.52,-143 392.87,-109.01 428.37,-55.94 445.16,-28.6"/>
<polygon fill="midnightblue" stroke="midnightblue" points="448.32,-30.14 450.48,-19.77 442.32,-26.53 448.32,-30.14"/>
</g>
<!-- Node9&#45;&gt;Node6 -->
<g id="edge15" class="edge">
<title>Node9&#45;&gt;Node6</title>
<path fill="none" stroke="midnightblue" d="M551.47,-61.98C532.93,-52.12 502.18,-35.79 480.5,-24.27"/>
<polygon fill="midnightblue" stroke="midnightblue" points="482.01,-21.11 471.54,-19.51 478.73,-27.29 482.01,-21.11"/>
</g>
<!-- Node10&#45;&gt;Node6 -->
<g id="edge19" class="edge">
<title>Node10&#45;&gt;Node6</title>
<path fill="none" stroke="midnightblue" d="M521.41,-123.3C509.8,-103.5 481.21,-54.78 465.78,-28.49"/>
<polygon fill="midnightblue" stroke="midnightblue" points="468.66,-26.48 460.58,-19.62 462.62,-30.02 468.66,-26.48"/>
</g>
<!-- Node10&#45;&gt;Node9 -->
<g id="edge20" class="edge">
<title>Node10&#45;&gt;Node9</title>
<path fill="none" stroke="midnightblue" d="M532.39,-123.48C538.48,-114.64 548.16,-100.59 555.82,-89.48"/>
<polygon fill="midnightblue" stroke="midnightblue" points="558.86,-91.23 561.66,-81.01 553.1,-87.26 558.86,-91.23"/>
</g>
<!-- Node11 -->
<g id="node11" class="node">
<title>Node11</title>
<g id="a_node11"><a xlink:href="____va__arg_8h.html" target="_top" xlink:title=" ">
<polygon fill="white" stroke="black" points="631.52,-56.5 631.52,-86.5 741.52,-86.5 741.52,-56.5 631.52,-56.5"/>
<text text-anchor="start" x="639.52" y="-74.5" font-family="Helvetica,sans-Serif" font-size="10.00">Runtime.PPCEABI.H/</text>
<text text-anchor="middle" x="686.52" y="-63.5" font-family="Helvetica,sans-Serif" font-size="10.00">__va_arg.h</text>
</a>
</g>
</g>
<!-- Node10&#45;&gt;Node11 -->
<g id="edge17" class="edge">
<title>Node10&#45;&gt;Node11</title>
<path fill="none" stroke="midnightblue" d="M549.44,-123.48C572.73,-114.81 609.49,-101.15 639.08,-90.14"/>
<polygon fill="midnightblue" stroke="midnightblue" points="640.66,-93.29 648.81,-86.52 638.22,-86.73 640.66,-93.29"/>
</g>
<!-- Node11&#45;&gt;Node6 -->
<g id="edge18" class="edge">
<title>Node11&#45;&gt;Node6</title>
<path fill="none" stroke="midnightblue" d="M632.07,-56.47C591.35,-45.99 536.41,-31.84 498.7,-22.12"/>
<polygon fill="midnightblue" stroke="midnightblue" points="499.1,-18.61 488.54,-19.51 497.35,-25.39 499.1,-18.61"/>
</g>
<!-- Node12&#45;&gt;Node6 -->
<g id="edge24" class="edge">
<title>Node12&#45;&gt;Node6</title>
<path fill="none" stroke="midnightblue" d="M718.94,-123.34C737.2,-108.47 769.09,-77.62 750.52,-56 719.65,-20.06 582.31,-12.51 506.39,-11.12"/>
<polygon fill="midnightblue" stroke="midnightblue" points="506.16,-7.62 496.11,-10.96 506.05,-14.62 506.16,-7.62"/>
</g>
<!-- Node12&#45;&gt;Node9 -->
<g id="edge23" class="edge">
<title>Node12&#45;&gt;Node9</title>
<path fill="none" stroke="midnightblue" d="M687.46,-123.48C663.76,-113.4 624.11,-96.55 596.94,-85"/>
<polygon fill="midnightblue" stroke="midnightblue" points="598.11,-81.7 587.54,-81.01 595.37,-88.14 598.11,-81.7"/>
</g>
<!-- Node13&#45;&gt;Node4 -->
<g id="edge26" class="edge">
<title>Node13&#45;&gt;Node4</title>
<path fill="none" stroke="midnightblue" d="M396.48,-179.44C369.9,-170.36 327.71,-155.94 298,-145.78"/>
<polygon fill="midnightblue" stroke="midnightblue" points="299.03,-142.44 288.44,-142.52 296.77,-149.06 299.03,-142.44"/>
</g>
<!-- Node13&#45;&gt;Node6 -->
<g id="edge28" class="edge">
<title>Node13&#45;&gt;Node6</title>
<path fill="none" stroke="midnightblue" d="M422.38,-179.27C424.58,-157.99 430.98,-101.86 441.52,-56 443.58,-47.02 446.54,-37.23 449.21,-29.08"/>
<polygon fill="midnightblue" stroke="midnightblue" points="452.55,-30.12 452.44,-19.52 445.92,-27.87 452.55,-30.12"/>
</g>
<!-- Node13&#45;&gt;Node10 -->
<g id="edge27" class="edge">
<title>Node13&#45;&gt;Node10</title>
<path fill="none" stroke="midnightblue" d="M438.39,-179.32C455.23,-170.66 481.33,-157.24 500.76,-147.25"/>
<polygon fill="midnightblue" stroke="midnightblue" points="502.4,-150.34 509.69,-142.65 499.2,-144.12 502.4,-150.34"/>
</g>
<!-- Node15&#45;&gt;Node6 -->
<g id="edge31" class="edge">
<title>Node15&#45;&gt;Node6</title>
<path fill="none" stroke="midnightblue" d="M859.21,-179.41C877.44,-167.56 904.86,-145.14 893.52,-123 870.3,-77.66 847.88,-74.75 800.52,-56 748.14,-35.26 588.94,-20.85 506.39,-14.56"/>
<polygon fill="midnightblue" stroke="midnightblue" points="506.46,-11.06 496.23,-13.8 505.94,-18.04 506.46,-11.06"/>
</g>
<!-- Node16&#45;&gt;Node6 -->
<g id="edge34" class="edge">
<title>Node16&#45;&gt;Node6</title>
<path fill="none" stroke="midnightblue" d="M839.33,-123.14C827.37,-106.78 799.34,-72.05 766.52,-56 721.76,-34.11 582.54,-20.55 506.45,-14.57"/>
<polygon fill="midnightblue" stroke="midnightblue" points="506.39,-11.06 496.15,-13.78 505.85,-18.04 506.39,-11.06"/>
</g>
<!-- Node16&#45;&gt;Node11 -->
<g id="edge33" class="edge">
<title>Node16&#45;&gt;Node11</title>
<path fill="none" stroke="midnightblue" d="M822.74,-123.48C799.59,-114.81 763.07,-101.15 733.66,-90.14"/>
<polygon fill="midnightblue" stroke="midnightblue" points="734.58,-86.75 723.99,-86.52 732.13,-93.31 734.58,-86.75"/>
</g>
</g>
</svg>
        <g id="navigator" transform="translate(0 0)" fill="#404254">
                <rect fill="#f2f5e9" fill-opacity="0.5" stroke="#606060" stroke-width=".5" x="0" y="0" width="60" height="60"/>
                <use id="zoomplus" xlink:href="#zoomPlus" x="17" y="9" onmousedown="handleZoom(evt,'in')"/>
                <use id="zoomminus" xlink:href="#zoomMin" x="42" y="9" onmousedown="handleZoom(evt,'out')"/>
                <use id="reset" xlink:href="#resetDef" x="30" y="36" onmousedown="handleReset()"/>
                <g id="arrowUp" xlink:href="#dirArrow" transform="translate(30 24)" onmousedown="handlePan(0,-1)">
                  <use xlink:href="#rim" fill="#404040">
                        <set attributeName="fill" to="#808080" begin="arrowUp.mouseover" end="arrowUp.mouseout"/>
                  </use>
                  <path fill="none" stroke="white" stroke-width="1.5" d="M0,-3.0v7 M-2.5,-0.5L0,-3.0L2.5,-0.5"/>
                </g>
                <g id="arrowRight" xlink:href="#dirArrow" transform="rotate(90) translate(36 -43)" onmousedown="handlePan(1,0)">
                  <use xlink:href="#rim" fill="#404040">
                        <set attributeName="fill" to="#808080" begin="arrowRight.mouseover" end="arrowRight.mouseout"/>
                  </use>
                  <path fill="none" stroke="white" stroke-width="1.5" d="M0,-3.0v7 M-2.5,-0.5L0,-3.0L2.5,-0.5"/>
                </g>
                <g id="arrowDown" xlink:href="#dirArrow" transform="rotate(180) translate(-30 -48)" onmousedown="handlePan(0,1)">
                  <use xlink:href="#rim" fill="#404040">
                        <set attributeName="fill" to="#808080" begin="arrowDown.mouseover" end="arrowDown.mouseout"/>
                  </use>
                  <path fill="none" stroke="white" stroke-width="1.5" d="M0,-3.0v7 M-2.5,-0.5L0,-3.0L2.5,-0.5"/>
                </g>
                <g id="arrowLeft" xlink:href="#dirArrow" transform="rotate(270) translate(-36 17)" onmousedown="handlePan(-1,0)">
                  <use xlink:href="#rim" fill="#404040">
                        <set attributeName="fill" to="#808080" begin="arrowLeft.mouseover" end="arrowLeft.mouseout"/>
                  </use>
                  <path fill="none" stroke="white" stroke-width="1.5" d="M0,-3.0v7 M-2.5,-0.5L0,-3.0L2.5,-0.5"/>
                </g>
        </g>
        <svg viewBox="0 0 15 15" width="100%" height="30px" preserveAspectRatio="xMaxYMin meet">
         <g id="arrow_out" transform="scale(0.3 0.3)">
          <a xlink:href="JKRFileCache_8cpp__incl_org.svg" target="_base">
           <rect id="button" ry="5" rx="5" y="6" x="6" height="38" width="38"
                fill="#f2f5e9" fill-opacity="0.5" stroke="#606060" stroke-width="1.0"/>
           <path id="arrow"
             d="M 11.500037,31.436501 C 11.940474,20.09759 22.043105,11.32322 32.158766,21.979434 L 37.068811,17.246167 C 37.068811,17.246167 37.088388,32 37.088388,32 L 22.160133,31.978069 C 22.160133,31.978069 26.997745,27.140456 26.997745,27.140456 C 18.528582,18.264221 13.291696,25.230495 11.500037,31.436501 z"
             style="fill:#404040;"/>
          </a>
         </g>
        </svg>
</svg>
