<?xml version="1.0" encoding="UTF-8" standalone="no"?>
<!DOCTYPE svg PUBLIC "-//W3C//DTD SVG 1.1//EN"
 "http://www.w3.org/Graphics/SVG/1.1/DTD/svg11.dtd">
<!-- Generated by graphviz version 2.44.0 ()
 -->
<!-- Title: libs/JSystem/JKernel/JKRHeap.cpp Pages: 1 -->
<!--zoomable 352 -->
<svg id="main" version="1.1" xmlns="http://www.w3.org/2000/svg" xmlns:xlink="http://www.w3.org/1999/xlink" xml:space="preserve" onload="init(evt)">
<style type="text/css"><![CDATA[
.edge:hover path { stroke: red; }
.edge:hover polygon { stroke: red; fill: red; }
]]></style>
<script type="text/javascript"><![CDATA[
var edges = document.getElementsByTagName('g');
if (edges && edges.length) {
  for (var i=0;i<edges.length;i++) {
    if (edges[i].id.substr(0,4)=='edge') {
      edges[i].setAttribute('class','edge');
    }
  }
}
]]></script>
        <defs>
                <circle id="rim" cx="0" cy="0" r="7"/>
                <circle id="rim2" cx="0" cy="0" r="3.5"/>
                <g id="zoomPlus">
                        <use xlink:href="#rim" fill="#404040">
                                <set attributeName="fill" to="#808080" begin="zoomplus.mouseover" end="zoomplus.mouseout"/>
                        </use>
                        <path d="M-4,0h8M0,-4v8" fill="none" stroke="white" stroke-width="1.5" pointer-events="none"/>
                </g>
                <g id="zoomMin">
                        <use xlink:href="#rim" fill="#404040">
                                <set attributeName="fill" to="#808080" begin="zoomminus.mouseover" end="zoomminus.mouseout"/>
                        </use>
                        <path d="M-4,0h8" fill="none" stroke="white" stroke-width="1.5" pointer-events="none"/>
                </g>
                <g id="dirArrow">
                        <path fill="none" stroke="white" stroke-width="1.5" d="M0,-3.0v7 M-2.5,-0.5L0,-3.0L2.5,-0.5"/>
                </g>
               <g id="resetDef">
                       <use xlink:href="#rim2" fill="#404040">
                               <set attributeName="fill" to="#808080" begin="reset.mouseover" end="reset.mouseout"/>
                       </use>
               </g>
        </defs>

<script type="text/javascript">
var viewWidth = 1322;
var viewHeight = 352;
var sectionId = 'dynsection-0';
</script>
<script xlink:href="svgpan.js"/>
<svg id="graph" class="graph">
<g id="viewport">
<title>libs/JSystem/JKernel/JKRHeap.cpp</title>
<polygon fill="white" stroke="transparent" points="-4,4 -4,-348 1318,-348 1318,4 -4,4"/>
<!-- Node1 -->
<g id="node1" class="node">
<title>Node1</title>
<g id="a_node1"><a xlink:title=" ">
<polygon fill="#bfbfbf" stroke="black" points="611,-313.5 611,-343.5 720,-343.5 720,-313.5 611,-313.5"/>
<text text-anchor="start" x="619" y="-331.5" font-family="Helvetica,sans-Serif" font-size="10.00">libs/JSystem/JKernel</text>
<text text-anchor="middle" x="665.5" y="-320.5" font-family="Helvetica,sans-Serif" font-size="10.00">/JKRHeap.cpp</text>
</a>
</g>
</g>
<!-- Node2 -->
<g id="node2" class="node">
<title>Node2</title>
<g id="a_node2"><a xlink:href="JKRHeap_8h.html" target="_top" xlink:title=" ">
<polygon fill="white" stroke="black" points="0,-174 0,-193 143,-193 143,-174 0,-174"/>
<text text-anchor="middle" x="71.5" y="-181" font-family="Helvetica,sans-Serif" font-size="10.00">JSystem/JKernel/JKRHeap.h</text>
</a>
</g>
</g>
<!-- Node1&#45;&gt;Node2 -->
<g id="edge1" class="edge">
<title>Node1&#45;&gt;Node2</title>
<path fill="none" stroke="midnightblue" d="M610.76,-321.66C546.78,-314.19 437.98,-299.46 346.5,-277 255.92,-254.76 152.51,-216.3 102.21,-196.72"/>
<polygon fill="midnightblue" stroke="midnightblue" points="103.47,-193.46 92.88,-193.07 100.92,-199.97 103.47,-193.46"/>
</g>
<!-- Node8 -->
<g id="node8" class="node">
<title>Node8</title>
<g id="a_node8"><a xlink:href="JUTException_8h.html" target="_top" xlink:title=" ">
<polygon fill="white" stroke="black" points="356,-246.5 356,-265.5 515,-265.5 515,-246.5 356,-246.5"/>
<text text-anchor="middle" x="435.5" y="-253.5" font-family="Helvetica,sans-Serif" font-size="10.00">JSystem/JUtility/JUTException.h</text>
</a>
</g>
</g>
<!-- Node1&#45;&gt;Node8 -->
<g id="edge11" class="edge">
<title>Node1&#45;&gt;Node8</title>
<path fill="none" stroke="midnightblue" d="M619.78,-313.49C576.79,-300.31 513.2,-280.82 473.08,-268.52"/>
<polygon fill="midnightblue" stroke="midnightblue" points="474,-265.14 463.41,-265.55 471.95,-271.83 474,-265.14"/>
</g>
<!-- Node15 -->
<g id="node15" class="node">
<title>Node15</title>
<g id="a_node15"><a xlink:href="dol2asm_8h.html" target="_top" xlink:title=" ">
<polygon fill="white" stroke="black" points="571,-246.5 571,-265.5 632,-265.5 632,-246.5 571,-246.5"/>
<text text-anchor="middle" x="601.5" y="-253.5" font-family="Helvetica,sans-Serif" font-size="10.00">dol2asm.h</text>
</a>
</g>
</g>
<!-- Node1&#45;&gt;Node15 -->
<g id="edge32" class="edge">
<title>Node1&#45;&gt;Node15</title>
<path fill="none" stroke="midnightblue" d="M652.55,-313.23C642.1,-301.73 627.4,-285.53 616.45,-273.47"/>
<polygon fill="midnightblue" stroke="midnightblue" points="618.89,-270.94 609.57,-265.89 613.7,-275.65 618.89,-270.94"/>
</g>
<!-- Node16 -->
<g id="node16" class="node">
<title>Node16</title>
<g id="a_node16"><a xlink:href="global_8h.html" target="_top" xlink:title=" ">
<polygon fill="white" stroke="black" points="793.5,-174 793.5,-193 843.5,-193 843.5,-174 793.5,-174"/>
<text text-anchor="middle" x="818.5" y="-181" font-family="Helvetica,sans-Serif" font-size="10.00">global.h</text>
</a>
</g>
</g>
<!-- Node1&#45;&gt;Node16 -->
<g id="edge33" class="edge">
<title>Node1&#45;&gt;Node16</title>
<path fill="none" stroke="midnightblue" d="M610.76,-313.94C591.82,-306.34 572.58,-294.69 561.5,-277 551.59,-261.18 549.64,-249.42 561.5,-235 575.52,-217.96 716.04,-197.73 783.16,-188.94"/>
<polygon fill="midnightblue" stroke="midnightblue" points="783.81,-192.38 793.28,-187.63 782.91,-185.44 783.81,-192.38"/>
</g>
<!-- Node17 -->
<g id="node17" class="node">
<title>Node17</title>
<g id="a_node17"><a xlink:title=" ">
<polygon fill="white" stroke="#bfbfbf" points="650.5,-241 650.5,-271 810.5,-271 810.5,-241 650.5,-241"/>
<text text-anchor="start" x="658.5" y="-259" font-family="Helvetica,sans-Serif" font-size="10.00">asm/JSystem/JKernel</text>
<text text-anchor="middle" x="730.5" y="-248" font-family="Helvetica,sans-Serif" font-size="10.00">/JKRHeap/__dt__7JKRHeapFv.s</text>
</a>
</g>
</g>
<!-- Node1&#45;&gt;Node17 -->
<g id="edge35" class="edge">
<title>Node1&#45;&gt;Node17</title>
<path fill="none" stroke="midnightblue" d="M678.65,-313.23C687.82,-303.3 700.2,-289.86 710.57,-278.61"/>
<polygon fill="midnightblue" stroke="midnightblue" points="713.16,-280.97 717.37,-271.25 708.01,-276.23 713.16,-280.97"/>
</g>
<!-- Node18 -->
<g id="node18" class="node">
<title>Node18</title>
<g id="a_node18"><a xlink:title=" ">
<polygon fill="white" stroke="#bfbfbf" points="829,-235.5 829,-276.5 958,-276.5 958,-235.5 829,-235.5"/>
<text text-anchor="start" x="837" y="-264.5" font-family="Helvetica,sans-Serif" font-size="10.00">asm/JSystem/JKernel</text>
<text text-anchor="start" x="837" y="-253.5" font-family="Helvetica,sans-Serif" font-size="10.00">/JKRHeap/callAllDisposer</text>
<text text-anchor="middle" x="893.5" y="-242.5" font-family="Helvetica,sans-Serif" font-size="10.00">__7JKRHeapFv.s</text>
</a>
</g>
</g>
<!-- Node1&#45;&gt;Node18 -->
<g id="edge36" class="edge">
<title>Node1&#45;&gt;Node18</title>
<path fill="none" stroke="midnightblue" d="M710.82,-313.49C742.04,-303.83 784.21,-290.79 820.18,-279.67"/>
<polygon fill="midnightblue" stroke="midnightblue" points="821.62,-282.89 830.14,-276.59 819.55,-276.2 821.62,-282.89"/>
</g>
<!-- Node19 -->
<g id="node19" class="node">
<title>Node19</title>
<g id="a_node19"><a xlink:title=" ">
<polygon fill="white" stroke="#bfbfbf" points="976.5,-235.5 976.5,-276.5 1120.5,-276.5 1120.5,-235.5 976.5,-235.5"/>
<text text-anchor="start" x="984.5" y="-264.5" font-family="Helvetica,sans-Serif" font-size="10.00">asm/JSystem/JKernel</text>
<text text-anchor="start" x="984.5" y="-253.5" font-family="Helvetica,sans-Serif" font-size="10.00">/JKRHeap/getMaxAllocatable</text>
<text text-anchor="middle" x="1048.5" y="-242.5" font-family="Helvetica,sans-Serif" font-size="10.00">Size__7JKRHeapFi.s</text>
</a>
</g>
</g>
<!-- Node1&#45;&gt;Node19 -->
<g id="edge37" class="edge">
<title>Node1&#45;&gt;Node19</title>
<path fill="none" stroke="midnightblue" d="M720.01,-319.67C778.54,-310.97 874.44,-295.89 966.13,-277.21"/>
<polygon fill="midnightblue" stroke="midnightblue" points="967.05,-280.6 976.14,-275.16 965.64,-273.74 967.05,-280.6"/>
</g>
<!-- Node20 -->
<g id="node20" class="node">
<title>Node20</title>
<g id="a_node20"><a xlink:title=" ">
<polygon fill="white" stroke="#bfbfbf" points="1139,-241 1139,-271 1314,-271 1314,-241 1139,-241"/>
<text text-anchor="start" x="1147" y="-259" font-family="Helvetica,sans-Serif" font-size="10.00">asm/JSystem/JKernel</text>
<text text-anchor="middle" x="1226.5" y="-248" font-family="Helvetica,sans-Serif" font-size="10.00">/JKRHeap/dispose__7JKRHeapFv.s</text>
</a>
</g>
</g>
<!-- Node1&#45;&gt;Node20 -->
<g id="edge38" class="edge">
<title>Node1&#45;&gt;Node20</title>
<path fill="none" stroke="midnightblue" d="M720.01,-323.26C806.95,-316.11 982.21,-300.15 1129.5,-277 1137.08,-275.81 1144.97,-274.42 1152.83,-272.95"/>
<polygon fill="midnightblue" stroke="midnightblue" points="1153.58,-276.37 1162.74,-271.04 1152.26,-269.5 1153.58,-276.37"/>
</g>
<!-- Node3 -->
<g id="node3" class="node">
<title>Node3</title>
<g id="a_node3"><a xlink:href="JKRDisposer_8h.html" target="_top" xlink:title=" ">
<polygon fill="white" stroke="black" points="183.5,-112.5 183.5,-131.5 341.5,-131.5 341.5,-112.5 183.5,-112.5"/>
<text text-anchor="middle" x="262.5" y="-119.5" font-family="Helvetica,sans-Serif" font-size="10.00">JSystem/JKernel/JKRDisposer.h</text>
</a>
</g>
</g>
<!-- Node2&#45;&gt;Node3 -->
<g id="edge2" class="edge">
<title>Node2&#45;&gt;Node3</title>
<path fill="none" stroke="midnightblue" d="M98.87,-173.98C132.05,-163.64 188.15,-146.16 225.26,-134.6"/>
<polygon fill="midnightblue" stroke="midnightblue" points="226.68,-137.82 235.19,-131.51 224.6,-131.14 226.68,-137.82"/>
</g>
<!-- Node5 -->
<g id="node5" class="node">
<title>Node5</title>
<g id="a_node5"><a xlink:href="types_8h.html" target="_top" xlink:title=" ">
<polygon fill="white" stroke="black" points="442,-0.5 442,-19.5 523,-19.5 523,-0.5 442,-0.5"/>
<text text-anchor="middle" x="482.5" y="-7.5" font-family="Helvetica,sans-Serif" font-size="10.00">dolphin/types.h</text>
</a>
</g>
</g>
<!-- Node2&#45;&gt;Node5 -->
<g id="edge10" class="edge">
<title>Node2&#45;&gt;Node5</title>
<path fill="none" stroke="midnightblue" d="M61.93,-173.94C52.37,-164.7 38.29,-148.98 32.5,-132 20.88,-97.93 30.93,-76.52 60.5,-56 119.47,-15.07 333.16,-10.38 431.87,-10.47"/>
<polygon fill="midnightblue" stroke="midnightblue" points="431.9,-13.97 441.91,-10.5 431.91,-6.97 431.9,-13.97"/>
</g>
<!-- Node6 -->
<g id="node6" class="node">
<title>Node6</title>
<g id="a_node6"><a xlink:href="OS_8h.html" target="_top" xlink:title=" ">
<polygon fill="white" stroke="black" points="41.5,-112.5 41.5,-131.5 127.5,-131.5 127.5,-112.5 41.5,-112.5"/>
<text text-anchor="middle" x="84.5" y="-119.5" font-family="Helvetica,sans-Serif" font-size="10.00">dolphin/os/OS.h</text>
</a>
</g>
</g>
<!-- Node2&#45;&gt;Node6 -->
<g id="edge6" class="edge">
<title>Node2&#45;&gt;Node6</title>
<path fill="none" stroke="midnightblue" d="M73.36,-173.98C75.22,-165.49 78.12,-152.2 80.5,-141.32"/>
<polygon fill="midnightblue" stroke="midnightblue" points="83.93,-142.03 82.64,-131.51 77.09,-140.53 83.93,-142.03"/>
</g>
<!-- Node4 -->
<g id="node4" class="node">
<title>Node4</title>
<g id="a_node4"><a xlink:href="JSUList_8h.html" target="_top" xlink:title=" ">
<polygon fill="white" stroke="black" points="304,-56.5 304,-75.5 447,-75.5 447,-56.5 304,-56.5"/>
<text text-anchor="middle" x="375.5" y="-63.5" font-family="Helvetica,sans-Serif" font-size="10.00">JSystem/JSupport/JSUList.h</text>
</a>
</g>
</g>
<!-- Node3&#45;&gt;Node4 -->
<g id="edge3" class="edge">
<title>Node3&#45;&gt;Node4</title>
<path fill="none" stroke="midnightblue" d="M280.41,-112.44C298.75,-103.68 327.51,-89.94 348.59,-79.86"/>
<polygon fill="midnightblue" stroke="midnightblue" points="350.17,-82.99 357.68,-75.52 347.15,-76.67 350.17,-82.99"/>
</g>
<!-- Node3&#45;&gt;Node5 -->
<g id="edge5" class="edge">
<title>Node3&#45;&gt;Node5</title>
<path fill="none" stroke="midnightblue" d="M264.27,-112.35C267.61,-98.3 276.22,-70.6 294.5,-56 333.54,-24.81 390.75,-14.68 431.8,-11.66"/>
<polygon fill="midnightblue" stroke="midnightblue" points="432.11,-15.15 441.87,-11.04 431.67,-8.16 432.11,-15.15"/>
</g>
<!-- Node4&#45;&gt;Node5 -->
<g id="edge4" class="edge">
<title>Node4&#45;&gt;Node5</title>
<path fill="none" stroke="midnightblue" d="M392.69,-56.32C409.85,-47.66 436.45,-34.24 456.25,-24.25"/>
<polygon fill="midnightblue" stroke="midnightblue" points="458,-27.28 465.35,-19.65 454.85,-21.04 458,-27.28"/>
</g>
<!-- Node6&#45;&gt;Node5 -->
<g id="edge7" class="edge">
<title>Node6&#45;&gt;Node5</title>
<path fill="none" stroke="midnightblue" d="M78.44,-112.22C69.76,-98.47 56.32,-71.81 70.5,-56 94.24,-29.53 326.95,-17.11 431.77,-12.82"/>
<polygon fill="midnightblue" stroke="midnightblue" points="431.95,-16.32 441.81,-12.42 431.67,-9.32 431.95,-16.32"/>
</g>
<!-- Node7 -->
<g id="node7" class="node">
<title>Node7</title>
<g id="a_node7"><a xlink:href="dvd_8h.html" target="_top" xlink:title=" ">
<polygon fill="white" stroke="black" points="79.5,-56.5 79.5,-75.5 171.5,-75.5 171.5,-56.5 79.5,-56.5"/>
<text text-anchor="middle" x="125.5" y="-63.5" font-family="Helvetica,sans-Serif" font-size="10.00">dolphin/dvd/dvd.h</text>
</a>
</g>
</g>
<!-- Node6&#45;&gt;Node7 -->
<g id="edge8" class="edge">
<title>Node6&#45;&gt;Node7</title>
<path fill="none" stroke="midnightblue" d="M91.27,-112.08C97.06,-104.46 105.56,-93.26 112.64,-83.94"/>
<polygon fill="midnightblue" stroke="midnightblue" points="115.6,-85.83 118.86,-75.75 110.02,-81.6 115.6,-85.83"/>
</g>
<!-- Node7&#45;&gt;Node5 -->
<g id="edge9" class="edge">
<title>Node7&#45;&gt;Node5</title>
<path fill="none" stroke="midnightblue" d="M171.81,-58C238.74,-47.87 362.1,-29.21 431.54,-18.71"/>
<polygon fill="midnightblue" stroke="midnightblue" points="432.43,-22.11 441.8,-17.16 431.38,-15.19 432.43,-22.11"/>
</g>
<!-- Node8&#45;&gt;Node5 -->
<g id="edge31" class="edge">
<title>Node8&#45;&gt;Node5</title>
<path fill="none" stroke="midnightblue" d="M450.87,-246.38C479.58,-229.17 539.94,-187.39 556.5,-132 562.98,-110.34 547.6,-59.27 545.5,-56 536.95,-42.72 522.98,-32.16 510.36,-24.61"/>
<polygon fill="midnightblue" stroke="midnightblue" points="511.95,-21.48 501.51,-19.65 508.53,-27.59 511.95,-21.48"/>
</g>
<!-- Node8&#45;&gt;Node6 -->
<g id="edge30" class="edge">
<title>Node8&#45;&gt;Node6</title>
<path fill="none" stroke="midnightblue" d="M359.17,-246.49C309.3,-238.81 243.78,-224.62 190.5,-199 170.54,-189.41 169.37,-181.07 151.5,-168 136.8,-157.25 119.75,-145.81 106.53,-137.16"/>
<polygon fill="midnightblue" stroke="midnightblue" points="108.36,-134.17 98.07,-131.65 104.54,-140.04 108.36,-134.17"/>
</g>
<!-- Node9 -->
<g id="node9" class="node">
<title>Node9</title>
<g id="a_node9"><a xlink:href="JKRThread_8h.html" target="_top" xlink:title=" ">
<polygon fill="white" stroke="black" points="199.5,-174 199.5,-193 349.5,-193 349.5,-174 199.5,-174"/>
<text text-anchor="middle" x="274.5" y="-181" font-family="Helvetica,sans-Serif" font-size="10.00">JSystem/JKernel/JKRThread.h</text>
</a>
</g>
</g>
<!-- Node8&#45;&gt;Node9 -->
<g id="edge12" class="edge">
<title>Node8&#45;&gt;Node9</title>
<path fill="none" stroke="midnightblue" d="M416.08,-246.5C388.04,-234.22 336,-211.43 303.43,-197.17"/>
<polygon fill="midnightblue" stroke="midnightblue" points="304.55,-193.84 293.99,-193.03 301.75,-200.25 304.55,-193.84"/>
</g>
<!-- Node10 -->
<g id="node10" class="node">
<title>Node10</title>
<g id="a_node10"><a xlink:href="JUTGamePad_8h.html" target="_top" xlink:title=" ">
<polygon fill="white" stroke="black" points="367.5,-168.5 367.5,-198.5 503.5,-198.5 503.5,-168.5 367.5,-168.5"/>
<text text-anchor="start" x="375.5" y="-186.5" font-family="Helvetica,sans-Serif" font-size="10.00">JSystem/JUtility/JUTGame</text>
<text text-anchor="middle" x="435.5" y="-175.5" font-family="Helvetica,sans-Serif" font-size="10.00">Pad.h</text>
</a>
</g>
</g>
<!-- Node8&#45;&gt;Node10 -->
<g id="edge17" class="edge">
<title>Node8&#45;&gt;Node10</title>
<path fill="none" stroke="midnightblue" d="M435.5,-246.36C435.5,-237.05 435.5,-221.83 435.5,-208.81"/>
<polygon fill="midnightblue" stroke="midnightblue" points="439,-208.58 435.5,-198.58 432,-208.58 439,-208.58"/>
</g>
<!-- Node12 -->
<g id="node12" class="node">
<title>Node12</title>
<g id="a_node12"><a xlink:href="GX_8h.html" target="_top" xlink:title=" ">
<polygon fill="white" stroke="black" points="646,-112.5 646,-131.5 731,-131.5 731,-112.5 646,-112.5"/>
<text text-anchor="middle" x="688.5" y="-119.5" font-family="Helvetica,sans-Serif" font-size="10.00">dolphin/gx/GX.h</text>
</a>
</g>
</g>
<!-- Node8&#45;&gt;Node12 -->
<g id="edge24" class="edge">
<title>Node8&#45;&gt;Node12</title>
<path fill="none" stroke="midnightblue" d="M480.38,-246.46C516.98,-238.15 569.05,-223.18 609.5,-199 636.07,-183.12 660.77,-156.74 675.25,-139.61"/>
<polygon fill="midnightblue" stroke="midnightblue" points="678.19,-141.55 681.84,-131.6 672.78,-137.1 678.19,-141.55"/>
</g>
<!-- Node9&#45;&gt;Node3 -->
<g id="edge13" class="edge">
<title>Node9&#45;&gt;Node3</title>
<path fill="none" stroke="midnightblue" d="M272.78,-173.98C271.07,-165.49 268.39,-152.2 266.2,-141.32"/>
<polygon fill="midnightblue" stroke="midnightblue" points="269.62,-140.62 264.22,-131.51 262.76,-142 269.62,-140.62"/>
</g>
<!-- Node9&#45;&gt;Node4 -->
<g id="edge14" class="edge">
<title>Node9&#45;&gt;Node4</title>
<path fill="none" stroke="midnightblue" d="M293.81,-173.9C310.84,-165.44 335.24,-151.03 350.5,-132 361.36,-118.45 367.9,-99.65 371.55,-85.75"/>
<polygon fill="midnightblue" stroke="midnightblue" points="375,-86.39 373.89,-75.85 368.19,-84.78 375,-86.39"/>
</g>
<!-- Node9&#45;&gt;Node5 -->
<g id="edge16" class="edge">
<title>Node9&#45;&gt;Node5</title>
<path fill="none" stroke="midnightblue" d="M240.14,-173.96C204.58,-163.28 156.56,-142.6 174.5,-112 200.26,-68.05 226.86,-74.03 274.5,-56 326.32,-36.39 388.82,-24.31 431.69,-17.67"/>
<polygon fill="midnightblue" stroke="midnightblue" points="432.24,-21.13 441.61,-16.18 431.2,-14.21 432.24,-21.13"/>
</g>
<!-- Node9&#45;&gt;Node6 -->
<g id="edge15" class="edge">
<title>Node9&#45;&gt;Node6</title>
<path fill="none" stroke="midnightblue" d="M247.28,-173.98C214.26,-163.64 158.46,-146.16 121.55,-134.6"/>
<polygon fill="midnightblue" stroke="midnightblue" points="122.26,-131.16 111.67,-131.51 120.17,-137.84 122.26,-131.16"/>
</g>
<!-- Node10&#45;&gt;Node3 -->
<g id="edge18" class="edge">
<title>Node10&#45;&gt;Node3</title>
<path fill="none" stroke="midnightblue" d="M394.5,-168.4C364.87,-158.21 325.27,-144.59 297.2,-134.93"/>
<polygon fill="midnightblue" stroke="midnightblue" points="298.02,-131.51 287.42,-131.57 295.74,-138.13 298.02,-131.51"/>
</g>
<!-- Node10&#45;&gt;Node4 -->
<g id="edge19" class="edge">
<title>Node10&#45;&gt;Node4</title>
<path fill="none" stroke="midnightblue" d="M428.14,-168.34C417.18,-147.24 396.59,-107.6 384.67,-84.65"/>
<polygon fill="midnightblue" stroke="midnightblue" points="387.72,-82.93 380,-75.67 381.51,-86.16 387.72,-82.93"/>
</g>
<!-- Node10&#45;&gt;Node5 -->
<g id="edge23" class="edge">
<title>Node10&#45;&gt;Node5</title>
<path fill="none" stroke="midnightblue" d="M490.54,-168.49C509.04,-160.87 527.7,-149.32 538.5,-132 560.72,-96.35 523.29,-50.44 499.62,-26.73"/>
<polygon fill="midnightblue" stroke="midnightblue" points="501.85,-24.01 492.23,-19.58 496.99,-29.05 501.85,-24.01"/>
</g>
<!-- Node10&#45;&gt;Node6 -->
<g id="edge20" class="edge">
<title>Node10&#45;&gt;Node6</title>
<path fill="none" stroke="midnightblue" d="M367.5,-169.6C364.46,-169.06 361.45,-168.52 358.5,-168 281.85,-154.49 192.9,-140.12 137.65,-131.35"/>
<polygon fill="midnightblue" stroke="midnightblue" points="138.16,-127.89 127.74,-129.78 137.07,-134.8 138.16,-127.89"/>
</g>
<!-- Node11 -->
<g id="node11" class="node">
<title>Node11</title>
<g id="a_node11"><a xlink:href="Pad_8h.html" target="_top" xlink:title=" ">
<polygon fill="white" stroke="black" points="435.5,-112.5 435.5,-131.5 529.5,-131.5 529.5,-112.5 435.5,-112.5"/>
<text text-anchor="middle" x="482.5" y="-119.5" font-family="Helvetica,sans-Serif" font-size="10.00">dolphin/pad/Pad.h</text>
</a>
</g>
</g>
<!-- Node10&#45;&gt;Node11 -->
<g id="edge21" class="edge">
<title>Node10&#45;&gt;Node11</title>
<path fill="none" stroke="midnightblue" d="M446.64,-168.4C453.47,-159.75 462.24,-148.64 469.41,-139.58"/>
<polygon fill="midnightblue" stroke="midnightblue" points="472.21,-141.67 475.66,-131.66 466.72,-137.34 472.21,-141.67"/>
</g>
<!-- Node11&#45;&gt;Node5 -->
<g id="edge22" class="edge">
<title>Node11&#45;&gt;Node5</title>
<path fill="none" stroke="midnightblue" d="M482.5,-112.37C482.5,-94.62 482.5,-53.67 482.5,-29.6"/>
<polygon fill="midnightblue" stroke="midnightblue" points="486,-29.59 482.5,-19.59 479,-29.59 486,-29.59"/>
</g>
<!-- Node12&#45;&gt;Node5 -->
<g id="edge29" class="edge">
<title>Node12&#45;&gt;Node5</title>
<path fill="none" stroke="midnightblue" d="M677.18,-112.45C659.38,-99.25 623.46,-73.59 590.5,-56 566.41,-43.15 537.85,-31.38 516.14,-23.11"/>
<polygon fill="midnightblue" stroke="midnightblue" points="517.29,-19.8 506.7,-19.56 514.83,-26.36 517.29,-19.8"/>
</g>
<!-- Node13 -->
<g id="node13" class="node">
<title>Node13</title>
<g id="a_node13"><a xlink:href="GXDisplayList_8h.html" target="_top" xlink:title=" ">
<polygon fill="white" stroke="black" points="643,-56.5 643,-75.5 776,-75.5 776,-56.5 643,-56.5"/>
<text text-anchor="middle" x="709.5" y="-63.5" font-family="Helvetica,sans-Serif" font-size="10.00">dolphin/gx/GXDisplayList.h</text>
</a>
</g>
</g>
<!-- Node12&#45;&gt;Node13 -->
<g id="edge25" class="edge">
<title>Node12&#45;&gt;Node13</title>
<path fill="none" stroke="midnightblue" d="M691.97,-112.08C694.81,-104.77 698.93,-94.18 702.46,-85.1"/>
<polygon fill="midnightblue" stroke="midnightblue" points="705.73,-86.34 706.1,-75.75 699.21,-83.8 705.73,-86.34"/>
</g>
<!-- Node14 -->
<g id="node14" class="node">
<title>Node14</title>
<g id="a_node14"><a xlink:href="GXTexture_8h.html" target="_top" xlink:title=" ">
<polygon fill="white" stroke="black" points="794,-56.5 794,-75.5 911,-75.5 911,-56.5 794,-56.5"/>
<text text-anchor="middle" x="852.5" y="-63.5" font-family="Helvetica,sans-Serif" font-size="10.00">dolphin/gx/GXTexture.h</text>
</a>
</g>
</g>
<!-- Node12&#45;&gt;Node14 -->
<g id="edge27" class="edge">
<title>Node12&#45;&gt;Node14</title>
<path fill="none" stroke="midnightblue" d="M714.49,-112.44C742.2,-103.32 786.25,-88.81 817.12,-78.65"/>
<polygon fill="midnightblue" stroke="midnightblue" points="818.23,-81.97 826.64,-75.52 816.04,-75.32 818.23,-81.97"/>
</g>
<!-- Node13&#45;&gt;Node5 -->
<g id="edge26" class="edge">
<title>Node13&#45;&gt;Node5</title>
<path fill="none" stroke="midnightblue" d="M673.53,-56.44C634.18,-47.08 571.01,-32.06 528.19,-21.87"/>
<polygon fill="midnightblue" stroke="midnightblue" points="528.84,-18.43 518.3,-19.52 527.22,-25.24 528.84,-18.43"/>
</g>
<!-- Node14&#45;&gt;Node5 -->
<g id="edge28" class="edge">
<title>Node14&#45;&gt;Node5</title>
<path fill="none" stroke="midnightblue" d="M793.87,-56.44C721.97,-45.95 601.27,-28.33 533.19,-18.4"/>
<polygon fill="midnightblue" stroke="midnightblue" points="533.54,-14.91 523.14,-16.93 532.53,-21.84 533.54,-14.91"/>
</g>
<!-- Node16&#45;&gt;Node5 -->
<g id="edge34" class="edge">
<title>Node16&#45;&gt;Node5</title>
<path fill="none" stroke="midnightblue" d="M834.74,-173.95C872.25,-153.15 958.87,-98.52 920.5,-56 894.95,-27.69 643.07,-16.17 533.25,-12.47"/>
<polygon fill="midnightblue" stroke="midnightblue" points="533.19,-8.97 523.08,-12.13 532.96,-15.96 533.19,-8.97"/>
</g>
</g>
</svg>
        <g id="navigator" transform="translate(0 0)" fill="#404254">
                <rect fill="#f2f5e9" fill-opacity="0.5" stroke="#606060" stroke-width=".5" x="0" y="0" width="60" height="60"/>
                <use id="zoomplus" xlink:href="#zoomPlus" x="17" y="9" onmousedown="handleZoom(evt,'in')"/>
                <use id="zoomminus" xlink:href="#zoomMin" x="42" y="9" onmousedown="handleZoom(evt,'out')"/>
                <use id="reset" xlink:href="#resetDef" x="30" y="36" onmousedown="handleReset()"/>
                <g id="arrowUp" xlink:href="#dirArrow" transform="translate(30 24)" onmousedown="handlePan(0,-1)">
                  <use xlink:href="#rim" fill="#404040">
                        <set attributeName="fill" to="#808080" begin="arrowUp.mouseover" end="arrowUp.mouseout"/>
                  </use>
                  <path fill="none" stroke="white" stroke-width="1.5" d="M0,-3.0v7 M-2.5,-0.5L0,-3.0L2.5,-0.5"/>
                </g>
                <g id="arrowRight" xlink:href="#dirArrow" transform="rotate(90) translate(36 -43)" onmousedown="handlePan(1,0)">
                  <use xlink:href="#rim" fill="#404040">
                        <set attributeName="fill" to="#808080" begin="arrowRight.mouseover" end="arrowRight.mouseout"/>
                  </use>
                  <path fill="none" stroke="white" stroke-width="1.5" d="M0,-3.0v7 M-2.5,-0.5L0,-3.0L2.5,-0.5"/>
                </g>
                <g id="arrowDown" xlink:href="#dirArrow" transform="rotate(180) translate(-30 -48)" onmousedown="handlePan(0,1)">
                  <use xlink:href="#rim" fill="#404040">
                        <set attributeName="fill" to="#808080" begin="arrowDown.mouseover" end="arrowDown.mouseout"/>
                  </use>
                  <path fill="none" stroke="white" stroke-width="1.5" d="M0,-3.0v7 M-2.5,-0.5L0,-3.0L2.5,-0.5"/>
                </g>
                <g id="arrowLeft" xlink:href="#dirArrow" transform="rotate(270) translate(-36 17)" onmousedown="handlePan(-1,0)">
                  <use xlink:href="#rim" fill="#404040">
                        <set attributeName="fill" to="#808080" begin="arrowLeft.mouseover" end="arrowLeft.mouseout"/>
                  </use>
                  <path fill="none" stroke="white" stroke-width="1.5" d="M0,-3.0v7 M-2.5,-0.5L0,-3.0L2.5,-0.5"/>
                </g>
        </g>
        <svg viewBox="0 0 15 15" width="100%" height="30px" preserveAspectRatio="xMaxYMin meet">
         <g id="arrow_out" transform="scale(0.3 0.3)">
          <a xlink:href="JKRHeap_8cpp__incl_org.svg" target="_base">
           <rect id="button" ry="5" rx="5" y="6" x="6" height="38" width="38"
                fill="#f2f5e9" fill-opacity="0.5" stroke="#606060" stroke-width="1.0"/>
           <path id="arrow"
             d="M 11.500037,31.436501 C 11.940474,20.09759 22.043105,11.32322 32.158766,21.979434 L 37.068811,17.246167 C 37.068811,17.246167 37.088388,32 37.088388,32 L 22.160133,31.978069 C 22.160133,31.978069 26.997745,27.140456 26.997745,27.140456 C 18.528582,18.264221 13.291696,25.230495 11.500037,31.436501 z"
             style="fill:#404040;"/>
          </a>
         </g>
        </svg>
</svg>
