<?xml version="1.0" encoding="UTF-8" standalone="no"?>
<!DOCTYPE svg PUBLIC "-//W3C//DTD SVG 1.1//EN"
 "http://www.w3.org/Graphics/SVG/1.1/DTD/svg11.dtd">
<!-- Generated by graphviz version 2.44.0 ()
 -->
<!-- Title: libs/JSystem/JKernel/JKRHeap.cpp Pages: 1 -->
<svg width="1717pt" height="408pt"
 viewBox="0.00 0.00 1716.50 408.00" xmlns="http://www.w3.org/2000/svg" xmlns:xlink="http://www.w3.org/1999/xlink">
<g id="graph0" class="graph" transform="scale(1 1) rotate(0) translate(4 404)">
<title>libs/JSystem/JKernel/JKRHeap.cpp</title>
<polygon fill="white" stroke="transparent" points="-4,4 -4,-404 1712.5,-404 1712.5,4 -4,4"/>
<!-- Node1 -->
<g id="node1" class="node">
<title>Node1</title>
<g id="a_node1"><a xlink:title=" ">
<polygon fill="#bfbfbf" stroke="black" points="962.5,-369.5 962.5,-399.5 1071.5,-399.5 1071.5,-369.5 962.5,-369.5"/>
<text text-anchor="start" x="970.5" y="-387.5" font-family="Helvetica,sans-Serif" font-size="10.00">libs/JSystem/JKernel</text>
<text text-anchor="middle" x="1017" y="-376.5" font-family="Helvetica,sans-Serif" font-size="10.00">/JKRHeap.cpp</text>
</a>
</g>
</g>
<!-- Node2 -->
<g id="node2" class="node">
<title>Node2</title>
<g id="a_node2"><a xlink:href="JKRHeap_8h.html" target="_top" xlink:title=" ">
<polygon fill="white" stroke="black" points="878.5,-174 878.5,-193 1021.5,-193 1021.5,-174 878.5,-174"/>
<text text-anchor="middle" x="950" y="-181" font-family="Helvetica,sans-Serif" font-size="10.00">JSystem/JKernel/JKRHeap.h</text>
</a>
</g>
</g>
<!-- Node1&#45;&gt;Node2 -->
<g id="edge1" class="edge">
<title>Node1&#45;&gt;Node2</title>
<path fill="none" stroke="midnightblue" d="M965.09,-369.44C946.96,-361.77 928.53,-350.19 918,-333 892.26,-290.97 921.15,-231.17 938.63,-201.94"/>
<polygon fill="midnightblue" stroke="midnightblue" points="941.71,-203.61 944.03,-193.27 935.77,-199.91 941.71,-203.61"/>
</g>
<!-- Node8 -->
<g id="node8" class="node">
<title>Node8</title>
<g id="a_node8"><a xlink:href="JUTAssert_8h.html" target="_top" xlink:title=" ">
<polygon fill="white" stroke="black" points="0,-235.5 0,-254.5 146,-254.5 146,-235.5 0,-235.5"/>
<text text-anchor="middle" x="73" y="-242.5" font-family="Helvetica,sans-Serif" font-size="10.00">JSystem/JUtility/JUTAssert.h</text>
</a>
</g>
</g>
<!-- Node1&#45;&gt;Node8 -->
<g id="edge11" class="edge">
<title>Node1&#45;&gt;Node8</title>
<path fill="none" stroke="midnightblue" d="M962.43,-378.29C878.84,-370.08 714.14,-352.99 575,-333 411.28,-309.48 218.9,-273.9 127.08,-256.43"/>
<polygon fill="midnightblue" stroke="midnightblue" points="127.66,-252.98 117.18,-254.54 126.35,-259.85 127.66,-252.98"/>
</g>
<!-- Node9 -->
<g id="node9" class="node">
<title>Node9</title>
<g id="a_node9"><a xlink:href="JUTException_8h.html" target="_top" xlink:title=" ">
<polygon fill="white" stroke="black" points="584.5,-302.5 584.5,-321.5 743.5,-321.5 743.5,-302.5 584.5,-302.5"/>
<text text-anchor="middle" x="664" y="-309.5" font-family="Helvetica,sans-Serif" font-size="10.00">JSystem/JUtility/JUTException.h</text>
</a>
</g>
</g>
<!-- Node1&#45;&gt;Node9 -->
<g id="edge13" class="edge">
<title>Node1&#45;&gt;Node9</title>
<path fill="none" stroke="midnightblue" d="M962.23,-372.56C895.32,-359.2 782.9,-336.75 716.87,-323.56"/>
<polygon fill="midnightblue" stroke="midnightblue" points="717.17,-320.05 706.68,-321.52 715.8,-326.92 717.17,-320.05"/>
</g>
<!-- Node16 -->
<g id="node16" class="node">
<title>Node16</title>
<g id="a_node16"><a xlink:href="dol2asm_8h.html" target="_top" xlink:title=" ">
<polygon fill="white" stroke="black" points="927.5,-302.5 927.5,-321.5 988.5,-321.5 988.5,-302.5 927.5,-302.5"/>
<text text-anchor="middle" x="958" y="-309.5" font-family="Helvetica,sans-Serif" font-size="10.00">dol2asm.h</text>
</a>
</g>
</g>
<!-- Node1&#45;&gt;Node16 -->
<g id="edge35" class="edge">
<title>Node1&#45;&gt;Node16</title>
<path fill="none" stroke="midnightblue" d="M1005.06,-369.23C995.52,-357.84 982.14,-341.84 972.08,-329.82"/>
<polygon fill="midnightblue" stroke="midnightblue" points="974.54,-327.32 965.44,-321.89 969.18,-331.81 974.54,-327.32"/>
</g>
<!-- Node17 -->
<g id="node17" class="node">
<title>Node17</title>
<g id="a_node17"><a xlink:href="global_8h.html" target="_top" xlink:title=" ">
<polygon fill="white" stroke="black" points="1014,-235.5 1014,-254.5 1064,-254.5 1064,-235.5 1014,-235.5"/>
<text text-anchor="middle" x="1039" y="-242.5" font-family="Helvetica,sans-Serif" font-size="10.00">global.h</text>
</a>
</g>
</g>
<!-- Node1&#45;&gt;Node17 -->
<g id="edge36" class="edge">
<title>Node1&#45;&gt;Node17</title>
<path fill="none" stroke="midnightblue" d="M1019.27,-369.3C1023.27,-344.34 1031.55,-292.58 1036,-264.72"/>
<polygon fill="midnightblue" stroke="midnightblue" points="1039.48,-265.13 1037.61,-254.7 1032.57,-264.02 1039.48,-265.13"/>
</g>
<!-- Node18 -->
<g id="node18" class="node">
<title>Node18</title>
<g id="a_node18"><a xlink:title=" ">
<polygon fill="white" stroke="#bfbfbf" points="1045,-297 1045,-327 1205,-327 1205,-297 1045,-297"/>
<text text-anchor="start" x="1053" y="-315" font-family="Helvetica,sans-Serif" font-size="10.00">asm/JSystem/JKernel</text>
<text text-anchor="middle" x="1125" y="-304" font-family="Helvetica,sans-Serif" font-size="10.00">/JKRHeap/__dt__7JKRHeapFv.s</text>
</a>
</g>
</g>
<!-- Node1&#45;&gt;Node18 -->
<g id="edge38" class="edge">
<title>Node1&#45;&gt;Node18</title>
<path fill="none" stroke="midnightblue" d="M1038.6,-369.4C1054.78,-358.84 1077.14,-344.24 1095.05,-332.55"/>
<polygon fill="midnightblue" stroke="midnightblue" points="1096.98,-335.47 1103.44,-327.07 1093.15,-329.61 1096.98,-335.47"/>
</g>
<!-- Node19 -->
<g id="node19" class="node">
<title>Node19</title>
<g id="a_node19"><a xlink:title=" ">
<polygon fill="white" stroke="#bfbfbf" points="1223.5,-291.5 1223.5,-332.5 1352.5,-332.5 1352.5,-291.5 1223.5,-291.5"/>
<text text-anchor="start" x="1231.5" y="-320.5" font-family="Helvetica,sans-Serif" font-size="10.00">asm/JSystem/JKernel</text>
<text text-anchor="start" x="1231.5" y="-309.5" font-family="Helvetica,sans-Serif" font-size="10.00">/JKRHeap/callAllDisposer</text>
<text text-anchor="middle" x="1288" y="-298.5" font-family="Helvetica,sans-Serif" font-size="10.00">__7JKRHeapFv.s</text>
</a>
</g>
</g>
<!-- Node1&#45;&gt;Node19 -->
<g id="edge39" class="edge">
<title>Node1&#45;&gt;Node19</title>
<path fill="none" stroke="midnightblue" d="M1071.82,-369.65C1109.13,-360.18 1159.89,-347.2 1213.71,-333.06"/>
<polygon fill="midnightblue" stroke="midnightblue" points="1214.66,-336.43 1223.44,-330.5 1212.88,-329.66 1214.66,-336.43"/>
</g>
<!-- Node20 -->
<g id="node20" class="node">
<title>Node20</title>
<g id="a_node20"><a xlink:title=" ">
<polygon fill="white" stroke="#bfbfbf" points="1371,-291.5 1371,-332.5 1515,-332.5 1515,-291.5 1371,-291.5"/>
<text text-anchor="start" x="1379" y="-320.5" font-family="Helvetica,sans-Serif" font-size="10.00">asm/JSystem/JKernel</text>
<text text-anchor="start" x="1379" y="-309.5" font-family="Helvetica,sans-Serif" font-size="10.00">/JKRHeap/getMaxAllocatable</text>
<text text-anchor="middle" x="1443" y="-298.5" font-family="Helvetica,sans-Serif" font-size="10.00">Size__7JKRHeapFi.s</text>
</a>
</g>
</g>
<!-- Node1&#45;&gt;Node20 -->
<g id="edge40" class="edge">
<title>Node1&#45;&gt;Node20</title>
<path fill="none" stroke="midnightblue" d="M1071.65,-377.16C1137.85,-369.11 1252.89,-353.94 1360.59,-333.19"/>
<polygon fill="midnightblue" stroke="midnightblue" points="1361.51,-336.58 1370.65,-331.23 1360.17,-329.71 1361.51,-336.58"/>
</g>
<!-- Node21 -->
<g id="node21" class="node">
<title>Node21</title>
<g id="a_node21"><a xlink:title=" ">
<polygon fill="white" stroke="#bfbfbf" points="1533.5,-297 1533.5,-327 1708.5,-327 1708.5,-297 1533.5,-297"/>
<text text-anchor="start" x="1541.5" y="-315" font-family="Helvetica,sans-Serif" font-size="10.00">asm/JSystem/JKernel</text>
<text text-anchor="middle" x="1621" y="-304" font-family="Helvetica,sans-Serif" font-size="10.00">/JKRHeap/dispose__7JKRHeapFv.s</text>
</a>
</g>
</g>
<!-- Node1&#45;&gt;Node21 -->
<g id="edge41" class="edge">
<title>Node1&#45;&gt;Node21</title>
<path fill="none" stroke="midnightblue" d="M1071.63,-379.93C1164.8,-373.43 1360.26,-357.97 1524,-333 1531.71,-331.82 1539.73,-330.44 1547.71,-328.95"/>
<polygon fill="midnightblue" stroke="midnightblue" points="1548.61,-332.34 1557.78,-327.02 1547.3,-325.47 1548.61,-332.34"/>
</g>
<!-- Node3 -->
<g id="node3" class="node">
<title>Node3</title>
<g id="a_node3"><a xlink:href="JKRDisposer_8h.html" target="_top" xlink:title=" ">
<polygon fill="white" stroke="black" points="663,-112.5 663,-131.5 821,-131.5 821,-112.5 663,-112.5"/>
<text text-anchor="middle" x="742" y="-119.5" font-family="Helvetica,sans-Serif" font-size="10.00">JSystem/JKernel/JKRDisposer.h</text>
</a>
</g>
</g>
<!-- Node2&#45;&gt;Node3 -->
<g id="edge2" class="edge">
<title>Node2&#45;&gt;Node3</title>
<path fill="none" stroke="midnightblue" d="M920.2,-173.98C883.75,-163.55 821.92,-145.86 781.53,-134.31"/>
<polygon fill="midnightblue" stroke="midnightblue" points="782.32,-130.89 771.75,-131.51 780.4,-137.62 782.32,-130.89"/>
</g>
<!-- Node5 -->
<g id="node5" class="node">
<title>Node5</title>
<g id="a_node5"><a xlink:href="types_8h.html" target="_top" xlink:title=" ">
<polygon fill="white" stroke="black" points="585.5,-0.5 585.5,-19.5 666.5,-19.5 666.5,-0.5 585.5,-0.5"/>
<text text-anchor="middle" x="626" y="-7.5" font-family="Helvetica,sans-Serif" font-size="10.00">dolphin/types.h</text>
</a>
</g>
</g>
<!-- Node2&#45;&gt;Node5 -->
<g id="edge10" class="edge">
<title>Node2&#45;&gt;Node5</title>
<path fill="none" stroke="midnightblue" d="M956.61,-173.91C972.96,-151.56 1011.8,-90.95 981,-56 961.2,-33.54 769.92,-19.39 676.64,-13.77"/>
<polygon fill="midnightblue" stroke="midnightblue" points="676.77,-10.27 666.58,-13.17 676.36,-17.26 676.77,-10.27"/>
</g>
<!-- Node6 -->
<g id="node6" class="node">
<title>Node6</title>
<g id="a_node6"><a xlink:href="OS_8h.html" target="_top" xlink:title=" ">
<polygon fill="white" stroke="black" points="877,-112.5 877,-131.5 963,-131.5 963,-112.5 877,-112.5"/>
<text text-anchor="middle" x="920" y="-119.5" font-family="Helvetica,sans-Serif" font-size="10.00">dolphin/os/OS.h</text>
</a>
</g>
</g>
<!-- Node2&#45;&gt;Node6 -->
<g id="edge6" class="edge">
<title>Node2&#45;&gt;Node6</title>
<path fill="none" stroke="midnightblue" d="M945.7,-173.98C941.34,-165.32 934.44,-151.65 928.9,-140.65"/>
<polygon fill="midnightblue" stroke="midnightblue" points="931.92,-138.86 924.29,-131.51 925.67,-142.01 931.92,-138.86"/>
</g>
<!-- Node4 -->
<g id="node4" class="node">
<title>Node4</title>
<g id="a_node4"><a xlink:href="JSUList_8h.html" target="_top" xlink:title=" ">
<polygon fill="white" stroke="black" points="604.5,-56.5 604.5,-75.5 747.5,-75.5 747.5,-56.5 604.5,-56.5"/>
<text text-anchor="middle" x="676" y="-63.5" font-family="Helvetica,sans-Serif" font-size="10.00">JSystem/JSupport/JSUList.h</text>
</a>
</g>
</g>
<!-- Node3&#45;&gt;Node4 -->
<g id="edge3" class="edge">
<title>Node3&#45;&gt;Node4</title>
<path fill="none" stroke="midnightblue" d="M731.4,-112.32C721.54,-104.26 706.65,-92.08 694.78,-82.37"/>
<polygon fill="midnightblue" stroke="midnightblue" points="696.75,-79.46 686.8,-75.83 692.32,-84.88 696.75,-79.46"/>
</g>
<!-- Node3&#45;&gt;Node5 -->
<g id="edge5" class="edge">
<title>Node3&#45;&gt;Node5</title>
<path fill="none" stroke="midnightblue" d="M747.89,-112.14C755.97,-98.75 768.19,-73.11 756,-56 738.11,-30.88 705.19,-19.65 676.95,-14.69"/>
<polygon fill="midnightblue" stroke="midnightblue" points="677.21,-11.19 666.8,-13.13 676.15,-18.11 677.21,-11.19"/>
</g>
<!-- Node4&#45;&gt;Node5 -->
<g id="edge4" class="edge">
<title>Node4&#45;&gt;Node5</title>
<path fill="none" stroke="midnightblue" d="M667.74,-56.08C660.54,-48.3 649.89,-36.8 641.15,-27.37"/>
<polygon fill="midnightblue" stroke="midnightblue" points="643.47,-24.71 634.1,-19.75 638.33,-29.47 643.47,-24.71"/>
</g>
<!-- Node6&#45;&gt;Node5 -->
<g id="edge7" class="edge">
<title>Node6&#45;&gt;Node5</title>
<path fill="none" stroke="midnightblue" d="M910.59,-112.38C894.75,-98.37 861.26,-70.74 828,-56 778.99,-34.28 718.5,-22.59 676.55,-16.62"/>
<polygon fill="midnightblue" stroke="midnightblue" points="676.95,-13.14 666.57,-15.26 676,-20.08 676.95,-13.14"/>
</g>
<!-- Node7 -->
<g id="node7" class="node">
<title>Node7</title>
<g id="a_node7"><a xlink:href="dvd_8h.html" target="_top" xlink:title=" ">
<polygon fill="white" stroke="black" points="880,-56.5 880,-75.5 972,-75.5 972,-56.5 880,-56.5"/>
<text text-anchor="middle" x="926" y="-63.5" font-family="Helvetica,sans-Serif" font-size="10.00">dolphin/dvd/dvd.h</text>
</a>
</g>
</g>
<!-- Node6&#45;&gt;Node7 -->
<g id="edge8" class="edge">
<title>Node6&#45;&gt;Node7</title>
<path fill="none" stroke="midnightblue" d="M920.99,-112.08C921.79,-104.93 922.93,-94.64 923.92,-85.69"/>
<polygon fill="midnightblue" stroke="midnightblue" points="927.4,-86.08 925.03,-75.75 920.44,-85.3 927.4,-86.08"/>
</g>
<!-- Node7&#45;&gt;Node5 -->
<g id="edge9" class="edge">
<title>Node7&#45;&gt;Node5</title>
<path fill="none" stroke="midnightblue" d="M879.78,-56.68C824.89,-46.8 733.64,-30.38 676.81,-20.15"/>
<polygon fill="midnightblue" stroke="midnightblue" points="677.43,-16.7 666.96,-18.37 676.19,-23.59 677.43,-16.7"/>
</g>
<!-- Node8&#45;&gt;Node5 -->
<g id="edge12" class="edge">
<title>Node8&#45;&gt;Node5</title>
<path fill="none" stroke="midnightblue" d="M74.01,-235.38C78.09,-204.84 96.34,-101.14 160,-56 193.31,-32.38 461.53,-18.11 575.29,-13.07"/>
<polygon fill="midnightblue" stroke="midnightblue" points="575.64,-16.56 585.48,-12.62 575.33,-9.56 575.64,-16.56"/>
</g>
<!-- Node9&#45;&gt;Node5 -->
<g id="edge34" class="edge">
<title>Node9&#45;&gt;Node5</title>
<path fill="none" stroke="midnightblue" d="M608.27,-302.49C479.84,-282.11 174,-228.92 174,-184.5 174,-184.5 174,-184.5 174,-121 174,-90.9 169.88,-75.27 193,-56 221.86,-31.94 467.1,-18.11 575.19,-13.13"/>
<polygon fill="midnightblue" stroke="midnightblue" points="575.38,-16.63 585.21,-12.68 575.06,-9.63 575.38,-16.63"/>
</g>
<!-- Node9&#45;&gt;Node6 -->
<g id="edge33" class="edge">
<title>Node9&#45;&gt;Node6</title>
<path fill="none" stroke="midnightblue" d="M720.03,-302.41C753.71,-294.8 795.6,-280.72 825,-255 857.61,-226.47 842.5,-202.28 869,-168 877.8,-156.61 889.78,-145.87 899.92,-137.74"/>
<polygon fill="midnightblue" stroke="midnightblue" points="902.13,-140.45 907.89,-131.56 897.84,-134.92 902.13,-140.45"/>
</g>
<!-- Node10 -->
<g id="node10" class="node">
<title>Node10</title>
<g id="a_node10"><a xlink:href="JKRThread_8h.html" target="_top" xlink:title=" ">
<polygon fill="white" stroke="black" points="666,-235.5 666,-254.5 816,-254.5 816,-235.5 666,-235.5"/>
<text text-anchor="middle" x="741" y="-242.5" font-family="Helvetica,sans-Serif" font-size="10.00">JSystem/JKernel/JKRThread.h</text>
</a>
</g>
</g>
<!-- Node9&#45;&gt;Node10 -->
<g id="edge14" class="edge">
<title>Node9&#45;&gt;Node10</title>
<path fill="none" stroke="midnightblue" d="M674.38,-302.23C686.85,-291.71 707.97,-273.88 723.09,-261.12"/>
<polygon fill="midnightblue" stroke="midnightblue" points="725.4,-263.75 730.78,-254.63 720.88,-258.4 725.4,-263.75"/>
</g>
<!-- Node11 -->
<g id="node11" class="node">
<title>Node11</title>
<g id="a_node11"><a xlink:href="JUTGamePad_8h.html" target="_top" xlink:title=" ">
<polygon fill="white" stroke="black" points="471,-168.5 471,-198.5 607,-198.5 607,-168.5 471,-168.5"/>
<text text-anchor="start" x="479" y="-186.5" font-family="Helvetica,sans-Serif" font-size="10.00">JSystem/JUtility/JUTGame</text>
<text text-anchor="middle" x="539" y="-175.5" font-family="Helvetica,sans-Serif" font-size="10.00">Pad.h</text>
</a>
</g>
</g>
<!-- Node9&#45;&gt;Node11 -->
<g id="edge20" class="edge">
<title>Node9&#45;&gt;Node11</title>
<path fill="none" stroke="midnightblue" d="M655.41,-302.31C636.05,-282.71 588.52,-234.62 560.55,-206.31"/>
<polygon fill="midnightblue" stroke="midnightblue" points="562.74,-203.54 553.22,-198.89 557.76,-208.46 562.74,-203.54"/>
</g>
<!-- Node13 -->
<g id="node13" class="node">
<title>Node13</title>
<g id="a_node13"><a xlink:href="GX_8h.html" target="_top" xlink:title=" ">
<polygon fill="white" stroke="black" points="319.5,-112.5 319.5,-131.5 404.5,-131.5 404.5,-112.5 319.5,-112.5"/>
<text text-anchor="middle" x="362" y="-119.5" font-family="Helvetica,sans-Serif" font-size="10.00">dolphin/gx/GX.h</text>
</a>
</g>
</g>
<!-- Node9&#45;&gt;Node13 -->
<g id="edge27" class="edge">
<title>Node9&#45;&gt;Node13</title>
<path fill="none" stroke="midnightblue" d="M646.49,-302.37C610.84,-284.56 527.66,-241.83 462,-199 432.25,-179.59 399.87,-154.11 380.26,-138.14"/>
<polygon fill="midnightblue" stroke="midnightblue" points="382.39,-135.37 372.43,-131.73 377.95,-140.78 382.39,-135.37"/>
</g>
<!-- Node10&#45;&gt;Node2 -->
<g id="edge16" class="edge">
<title>Node10&#45;&gt;Node2</title>
<path fill="none" stroke="midnightblue" d="M770.94,-235.48C807.57,-225.05 869.7,-207.36 910.28,-195.81"/>
<polygon fill="midnightblue" stroke="midnightblue" points="911.45,-199.11 920.11,-193.01 909.53,-192.38 911.45,-199.11"/>
</g>
<!-- Node10&#45;&gt;Node3 -->
<g id="edge15" class="edge">
<title>Node10&#45;&gt;Node3</title>
<path fill="none" stroke="midnightblue" d="M741.07,-235.3C741.23,-215.85 741.62,-168.49 741.84,-141.9"/>
<polygon fill="midnightblue" stroke="midnightblue" points="745.35,-141.65 741.93,-131.62 738.35,-141.59 745.35,-141.65"/>
</g>
<!-- Node10&#45;&gt;Node4 -->
<g id="edge17" class="edge">
<title>Node10&#45;&gt;Node4</title>
<path fill="none" stroke="midnightblue" d="M730.89,-235.43C711.46,-218.21 669.49,-177.19 654,-132 648.47,-115.86 656.01,-97.43 663.73,-84.33"/>
<polygon fill="midnightblue" stroke="midnightblue" points="666.73,-86.14 669.2,-75.84 660.84,-82.35 666.73,-86.14"/>
</g>
<!-- Node10&#45;&gt;Node5 -->
<g id="edge19" class="edge">
<title>Node10&#45;&gt;Node5</title>
<path fill="none" stroke="midnightblue" d="M746.07,-235.12C754.64,-220.46 772.92,-190.57 792,-168 807.02,-150.23 820.81,-153.37 830,-132 833.51,-123.83 833.44,-120.2 830,-112 804.99,-52.38 728.64,-27.71 676.78,-17.67"/>
<polygon fill="midnightblue" stroke="midnightblue" points="677.22,-14.2 666.75,-15.86 675.97,-21.08 677.22,-14.2"/>
</g>
<!-- Node10&#45;&gt;Node6 -->
<g id="edge18" class="edge">
<title>Node10&#45;&gt;Node6</title>
<path fill="none" stroke="midnightblue" d="M750.53,-235.39C767.16,-220.61 802.86,-189.87 836,-168 854.12,-156.04 875.74,-144.52 892.51,-136.12"/>
<polygon fill="midnightblue" stroke="midnightblue" points="894.33,-139.13 901.76,-131.57 891.24,-132.85 894.33,-139.13"/>
</g>
<!-- Node11&#45;&gt;Node3 -->
<g id="edge21" class="edge">
<title>Node11&#45;&gt;Node3</title>
<path fill="none" stroke="midnightblue" d="M586.85,-168.47C622.33,-158.08 670.09,-144.08 703.2,-134.37"/>
<polygon fill="midnightblue" stroke="midnightblue" points="704.37,-137.68 712.98,-131.51 702.4,-130.96 704.37,-137.68"/>
</g>
<!-- Node11&#45;&gt;Node4 -->
<g id="edge22" class="edge">
<title>Node11&#45;&gt;Node4</title>
<path fill="none" stroke="midnightblue" d="M555.24,-168.34C571.71,-154.02 597.98,-131.3 621,-112 633.08,-101.87 646.81,-90.63 657.53,-81.92"/>
<polygon fill="midnightblue" stroke="midnightblue" points="659.83,-84.57 665.39,-75.55 655.42,-79.13 659.83,-84.57"/>
</g>
<!-- Node11&#45;&gt;Node5 -->
<g id="edge26" class="edge">
<title>Node11&#45;&gt;Node5</title>
<path fill="none" stroke="midnightblue" d="M505.75,-168.41C480.86,-155.64 453.16,-135.3 466,-112 469.84,-105.03 559.55,-50.74 602.92,-24.76"/>
<polygon fill="midnightblue" stroke="midnightblue" points="604.88,-27.67 611.67,-19.53 601.29,-21.66 604.88,-27.67"/>
</g>
<!-- Node11&#45;&gt;Node6 -->
<g id="edge23" class="edge">
<title>Node11&#45;&gt;Node6</title>
<path fill="none" stroke="midnightblue" d="M607.12,-171.86C681.43,-160.26 798.82,-141.92 866.7,-131.32"/>
<polygon fill="midnightblue" stroke="midnightblue" points="867.41,-134.75 876.76,-129.75 866.33,-127.84 867.41,-134.75"/>
</g>
<!-- Node12 -->
<g id="node12" class="node">
<title>Node12</title>
<g id="a_node12"><a xlink:href="Pad_8h.html" target="_top" xlink:title=" ">
<polygon fill="white" stroke="black" points="475,-112.5 475,-131.5 569,-131.5 569,-112.5 475,-112.5"/>
<text text-anchor="middle" x="522" y="-119.5" font-family="Helvetica,sans-Serif" font-size="10.00">dolphin/pad/Pad.h</text>
</a>
</g>
</g>
<!-- Node11&#45;&gt;Node12 -->
<g id="edge24" class="edge">
<title>Node11&#45;&gt;Node12</title>
<path fill="none" stroke="midnightblue" d="M534.97,-168.4C532.65,-160.29 529.72,-150.01 527.22,-141.28"/>
<polygon fill="midnightblue" stroke="midnightblue" points="530.59,-140.31 524.47,-131.66 523.86,-142.23 530.59,-140.31"/>
</g>
<!-- Node12&#45;&gt;Node5 -->
<g id="edge25" class="edge">
<title>Node12&#45;&gt;Node5</title>
<path fill="none" stroke="midnightblue" d="M530.16,-112.37C547.55,-93.97 588.49,-50.67 610.82,-27.05"/>
<polygon fill="midnightblue" stroke="midnightblue" points="613.55,-29.26 617.88,-19.59 608.46,-24.45 613.55,-29.26"/>
</g>
<!-- Node13&#45;&gt;Node5 -->
<g id="edge32" class="edge">
<title>Node13&#45;&gt;Node5</title>
<path fill="none" stroke="midnightblue" d="M359.64,-112.12C356.54,-98.25 352.99,-71.41 367,-56 394.17,-26.11 507.62,-16.04 575.02,-12.67"/>
<polygon fill="midnightblue" stroke="midnightblue" points="575.6,-16.15 585.43,-12.19 575.27,-9.16 575.6,-16.15"/>
</g>
<!-- Node14 -->
<g id="node14" class="node">
<title>Node14</title>
<g id="a_node14"><a xlink:href="GXDisplayList_8h.html" target="_top" xlink:title=" ">
<polygon fill="white" stroke="black" points="376.5,-56.5 376.5,-75.5 509.5,-75.5 509.5,-56.5 376.5,-56.5"/>
<text text-anchor="middle" x="443" y="-63.5" font-family="Helvetica,sans-Serif" font-size="10.00">dolphin/gx/GXDisplayList.h</text>
</a>
</g>
</g>
<!-- Node13&#45;&gt;Node14 -->
<g id="edge28" class="edge">
<title>Node13&#45;&gt;Node14</title>
<path fill="none" stroke="midnightblue" d="M375.01,-112.32C387.53,-103.98 406.68,-91.21 421.47,-81.35"/>
<polygon fill="midnightblue" stroke="midnightblue" points="423.64,-84.11 430.02,-75.65 419.76,-78.29 423.64,-84.11"/>
</g>
<!-- Node15 -->
<g id="node15" class="node">
<title>Node15</title>
<g id="a_node15"><a xlink:href="GXTexture_8h.html" target="_top" xlink:title=" ">
<polygon fill="white" stroke="black" points="202.5,-56.5 202.5,-75.5 319.5,-75.5 319.5,-56.5 202.5,-56.5"/>
<text text-anchor="middle" x="261" y="-63.5" font-family="Helvetica,sans-Serif" font-size="10.00">dolphin/gx/GXTexture.h</text>
</a>
</g>
</g>
<!-- Node13&#45;&gt;Node15 -->
<g id="edge30" class="edge">
<title>Node13&#45;&gt;Node15</title>
<path fill="none" stroke="midnightblue" d="M345.77,-112.32C329.65,-103.7 304.7,-90.36 286.04,-80.39"/>
<polygon fill="midnightblue" stroke="midnightblue" points="287.66,-77.28 277.19,-75.65 284.36,-83.46 287.66,-77.28"/>
</g>
<!-- Node14&#45;&gt;Node5 -->
<g id="edge29" class="edge">
<title>Node14&#45;&gt;Node5</title>
<path fill="none" stroke="midnightblue" d="M472,-56.44C503.18,-47.24 552.93,-32.56 587.41,-22.39"/>
<polygon fill="midnightblue" stroke="midnightblue" points="588.54,-25.7 597.14,-19.52 586.56,-18.99 588.54,-25.7"/>
</g>
<!-- Node15&#45;&gt;Node5 -->
<g id="edge31" class="edge">
<title>Node15&#45;&gt;Node5</title>
<path fill="none" stroke="midnightblue" d="M318.84,-56.44C389.58,-45.98 508.2,-28.43 575.45,-18.48"/>
<polygon fill="midnightblue" stroke="midnightblue" points="576.01,-21.93 585.39,-17.01 574.98,-15.01 576.01,-21.93"/>
</g>
<!-- Node17&#45;&gt;Node5 -->
<g id="edge37" class="edge">
<title>Node17&#45;&gt;Node5</title>
<path fill="none" stroke="midnightblue" d="M1040.43,-235.12C1044.76,-204.58 1054.4,-103.17 1000,-56 952.78,-15.05 767.59,-10.16 676.77,-10.32"/>
<polygon fill="midnightblue" stroke="midnightblue" points="676.69,-6.82 666.71,-10.35 676.72,-13.82 676.69,-6.82"/>
</g>
</g>
</svg>
