<?xml version="1.0" encoding="UTF-8" standalone="no"?>
<!DOCTYPE svg PUBLIC "-//W3C//DTD SVG 1.1//EN"
 "http://www.w3.org/Graphics/SVG/1.1/DTD/svg11.dtd">
<!-- Generated by graphviz version 2.44.0 ()
 -->
<!-- Title: libs/JSystem/JKernel/JKRHeap.cpp Pages: 1 -->
<!--zoomable 419 -->
<svg id="main" version="1.1" xmlns="http://www.w3.org/2000/svg" xmlns:xlink="http://www.w3.org/1999/xlink" xml:space="preserve" onload="init(evt)">
<style type="text/css"><![CDATA[
.edge:hover path { stroke: red; }
.edge:hover polygon { stroke: red; fill: red; }
]]></style>
<script type="text/javascript"><![CDATA[
var edges = document.getElementsByTagName('g');
if (edges && edges.length) {
  for (var i=0;i<edges.length;i++) {
    if (edges[i].id.substr(0,4)=='edge') {
      edges[i].setAttribute('class','edge');
    }
  }
}
]]></script>
        <defs>
                <circle id="rim" cx="0" cy="0" r="7"/>
                <circle id="rim2" cx="0" cy="0" r="3.5"/>
                <g id="zoomPlus">
                        <use xlink:href="#rim" fill="#404040">
                                <set attributeName="fill" to="#808080" begin="zoomplus.mouseover" end="zoomplus.mouseout"/>
                        </use>
                        <path d="M-4,0h8M0,-4v8" fill="none" stroke="white" stroke-width="1.5" pointer-events="none"/>
                </g>
                <g id="zoomMin">
                        <use xlink:href="#rim" fill="#404040">
                                <set attributeName="fill" to="#808080" begin="zoomminus.mouseover" end="zoomminus.mouseout"/>
                        </use>
                        <path d="M-4,0h8" fill="none" stroke="white" stroke-width="1.5" pointer-events="none"/>
                </g>
                <g id="dirArrow">
                        <path fill="none" stroke="white" stroke-width="1.5" d="M0,-3.0v7 M-2.5,-0.5L0,-3.0L2.5,-0.5"/>
                </g>
               <g id="resetDef">
                       <use xlink:href="#rim2" fill="#404040">
                               <set attributeName="fill" to="#808080" begin="reset.mouseover" end="reset.mouseout"/>
                       </use>
               </g>
        </defs>

<script type="text/javascript">
var viewWidth = 1469;
var viewHeight = 419;
var sectionId = 'dynsection-0';
</script>
<script xlink:href="svgpan.js"/>
<svg id="graph" class="graph">
<g id="viewport">
<title>libs/JSystem/JKernel/JKRHeap.cpp</title>
<polygon fill="white" stroke="transparent" points="-4,4 -4,-415 1464.5,-415 1464.5,4 -4,4"/>
<!-- Node1 -->
<g id="node1" class="node">
<title>Node1</title>
<g id="a_node1"><a xlink:title=" ">
<polygon fill="#bfbfbf" stroke="black" points="714.5,-380.5 714.5,-410.5 823.5,-410.5 823.5,-380.5 714.5,-380.5"/>
<text text-anchor="start" x="722.5" y="-398.5" font-family="Helvetica,sans-Serif" font-size="10.00">libs/JSystem/JKernel</text>
<text text-anchor="middle" x="769" y="-387.5" font-family="Helvetica,sans-Serif" font-size="10.00">/JKRHeap.cpp</text>
</a>
</g>
</g>
<!-- Node2 -->
<g id="node2" class="node">
<title>Node2</title>
<g id="a_node2"><a xlink:href="JKRHeap_8h.html" target="_top" xlink:title=" ">
<polygon fill="white" stroke="black" points="578.5,-185 578.5,-204 721.5,-204 721.5,-185 578.5,-185"/>
<text text-anchor="middle" x="650" y="-192" font-family="Helvetica,sans-Serif" font-size="10.00">JSystem/JKernel/JKRHeap.h</text>
</a>
</g>
</g>
<!-- Node1&#45;&gt;Node2 -->
<g id="edge1" class="edge">
<title>Node1&#45;&gt;Node2</title>
<path fill="none" stroke="midnightblue" d="M720.07,-380.43C701.55,-372.65 682.05,-361 670,-344 642.13,-304.66 644.13,-244.46 647.36,-214.21"/>
<polygon fill="midnightblue" stroke="midnightblue" points="650.84,-214.55 648.6,-204.19 643.9,-213.69 650.84,-214.55"/>
</g>
<!-- Node9 -->
<g id="node9" class="node">
<title>Node9</title>
<g id="a_node9"><a xlink:href="JUTAssert_8h.html" target="_top" xlink:title=" ">
<polygon fill="white" stroke="black" points="0,-246.5 0,-265.5 146,-265.5 146,-246.5 0,-246.5"/>
<text text-anchor="middle" x="73" y="-253.5" font-family="Helvetica,sans-Serif" font-size="10.00">JSystem/JUtility/JUTAssert.h</text>
</a>
</g>
</g>
<!-- Node1&#45;&gt;Node9 -->
<g id="edge13" class="edge">
<title>Node1&#45;&gt;Node9</title>
<path fill="none" stroke="midnightblue" d="M714.24,-390.94C634.51,-385.04 482.11,-371.13 355,-344 262.69,-324.3 157.21,-287.9 105.31,-269.04"/>
<polygon fill="midnightblue" stroke="midnightblue" points="106.26,-265.66 95.66,-265.51 103.85,-272.23 106.26,-265.66"/>
</g>
<!-- Node10 -->
<g id="node10" class="node">
<title>Node10</title>
<g id="a_node10"><a xlink:href="JUTException_8h.html" target="_top" xlink:title=" ">
<polygon fill="white" stroke="black" points="364.5,-313.5 364.5,-332.5 523.5,-332.5 523.5,-313.5 364.5,-313.5"/>
<text text-anchor="middle" x="444" y="-320.5" font-family="Helvetica,sans-Serif" font-size="10.00">JSystem/JUtility/JUTException.h</text>
</a>
</g>
</g>
<!-- Node1&#45;&gt;Node10 -->
<g id="edge15" class="edge">
<title>Node1&#45;&gt;Node10</title>
<path fill="none" stroke="midnightblue" d="M714.24,-382.62C652.5,-369.23 553.01,-347.65 493.52,-334.74"/>
<polygon fill="midnightblue" stroke="midnightblue" points="494.12,-331.29 483.61,-332.59 492.64,-338.13 494.12,-331.29"/>
</g>
<!-- Node17 -->
<g id="node17" class="node">
<title>Node17</title>
<g id="a_node17"><a xlink:href="dol2asm_8h.html" target="_top" xlink:title=" ">
<polygon fill="white" stroke="black" points="679.5,-313.5 679.5,-332.5 740.5,-332.5 740.5,-313.5 679.5,-313.5"/>
<text text-anchor="middle" x="710" y="-320.5" font-family="Helvetica,sans-Serif" font-size="10.00">dol2asm.h</text>
</a>
</g>
</g>
<!-- Node1&#45;&gt;Node17 -->
<g id="edge38" class="edge">
<title>Node1&#45;&gt;Node17</title>
<path fill="none" stroke="midnightblue" d="M757.06,-380.23C747.52,-368.84 734.14,-352.84 724.08,-340.82"/>
<polygon fill="midnightblue" stroke="midnightblue" points="726.54,-338.32 717.44,-332.89 721.18,-342.81 726.54,-338.32"/>
</g>
<!-- Node18 -->
<g id="node18" class="node">
<title>Node18</title>
<g id="a_node18"><a xlink:href="global_8h.html" target="_top" xlink:title=" ">
<polygon fill="white" stroke="black" points="855,-246.5 855,-265.5 905,-265.5 905,-246.5 855,-246.5"/>
<text text-anchor="middle" x="880" y="-253.5" font-family="Helvetica,sans-Serif" font-size="10.00">global.h</text>
</a>
</g>
</g>
<!-- Node1&#45;&gt;Node18 -->
<g id="edge39" class="edge">
<title>Node1&#45;&gt;Node18</title>
<path fill="none" stroke="midnightblue" d="M768.24,-380.4C767.92,-360.78 770.13,-325.07 788,-302 802.16,-283.72 825.67,-272.4 845.38,-265.69"/>
<polygon fill="midnightblue" stroke="midnightblue" points="846.49,-269.01 854.98,-262.67 844.39,-262.33 846.49,-269.01"/>
</g>
<!-- Node19 -->
<g id="node19" class="node">
<title>Node19</title>
<g id="a_node19"><a xlink:title=" ">
<polygon fill="white" stroke="#bfbfbf" points="797,-308 797,-338 957,-338 957,-308 797,-308"/>
<text text-anchor="start" x="805" y="-326" font-family="Helvetica,sans-Serif" font-size="10.00">asm/JSystem/JKernel</text>
<text text-anchor="middle" x="877" y="-315" font-family="Helvetica,sans-Serif" font-size="10.00">/JKRHeap/__dt__7JKRHeapFv.s</text>
</a>
</g>
</g>
<!-- Node1&#45;&gt;Node19 -->
<g id="edge41" class="edge">
<title>Node1&#45;&gt;Node19</title>
<path fill="none" stroke="midnightblue" d="M790.6,-380.4C806.78,-369.84 829.14,-355.24 847.05,-343.55"/>
<polygon fill="midnightblue" stroke="midnightblue" points="848.98,-346.47 855.44,-338.07 845.15,-340.61 848.98,-346.47"/>
</g>
<!-- Node20 -->
<g id="node20" class="node">
<title>Node20</title>
<g id="a_node20"><a xlink:title=" ">
<polygon fill="white" stroke="#bfbfbf" points="975.5,-302.5 975.5,-343.5 1104.5,-343.5 1104.5,-302.5 975.5,-302.5"/>
<text text-anchor="start" x="983.5" y="-331.5" font-family="Helvetica,sans-Serif" font-size="10.00">asm/JSystem/JKernel</text>
<text text-anchor="start" x="983.5" y="-320.5" font-family="Helvetica,sans-Serif" font-size="10.00">/JKRHeap/callAllDisposer</text>
<text text-anchor="middle" x="1040" y="-309.5" font-family="Helvetica,sans-Serif" font-size="10.00">__7JKRHeapFv.s</text>
</a>
</g>
</g>
<!-- Node1&#45;&gt;Node20 -->
<g id="edge42" class="edge">
<title>Node1&#45;&gt;Node20</title>
<path fill="none" stroke="midnightblue" d="M823.82,-380.65C861.13,-371.18 911.89,-358.2 965.71,-344.06"/>
<polygon fill="midnightblue" stroke="midnightblue" points="966.66,-347.43 975.44,-341.5 964.88,-340.66 966.66,-347.43"/>
</g>
<!-- Node21 -->
<g id="node21" class="node">
<title>Node21</title>
<g id="a_node21"><a xlink:title=" ">
<polygon fill="white" stroke="#bfbfbf" points="1123,-302.5 1123,-343.5 1267,-343.5 1267,-302.5 1123,-302.5"/>
<text text-anchor="start" x="1131" y="-331.5" font-family="Helvetica,sans-Serif" font-size="10.00">asm/JSystem/JKernel</text>
<text text-anchor="start" x="1131" y="-320.5" font-family="Helvetica,sans-Serif" font-size="10.00">/JKRHeap/getMaxAllocatable</text>
<text text-anchor="middle" x="1195" y="-309.5" font-family="Helvetica,sans-Serif" font-size="10.00">Size__7JKRHeapFi.s</text>
</a>
</g>
</g>
<!-- Node1&#45;&gt;Node21 -->
<g id="edge43" class="edge">
<title>Node1&#45;&gt;Node21</title>
<path fill="none" stroke="midnightblue" d="M823.65,-388.16C889.85,-380.11 1004.89,-364.94 1112.59,-344.19"/>
<polygon fill="midnightblue" stroke="midnightblue" points="1113.51,-347.58 1122.65,-342.23 1112.17,-340.71 1113.51,-347.58"/>
</g>
<!-- Node22 -->
<g id="node22" class="node">
<title>Node22</title>
<g id="a_node22"><a xlink:title=" ">
<polygon fill="white" stroke="#bfbfbf" points="1285.5,-308 1285.5,-338 1460.5,-338 1460.5,-308 1285.5,-308"/>
<text text-anchor="start" x="1293.5" y="-326" font-family="Helvetica,sans-Serif" font-size="10.00">asm/JSystem/JKernel</text>
<text text-anchor="middle" x="1373" y="-315" font-family="Helvetica,sans-Serif" font-size="10.00">/JKRHeap/dispose__7JKRHeapFv.s</text>
</a>
</g>
</g>
<!-- Node1&#45;&gt;Node22 -->
<g id="edge44" class="edge">
<title>Node1&#45;&gt;Node22</title>
<path fill="none" stroke="midnightblue" d="M823.63,-390.93C916.8,-384.43 1112.26,-368.97 1276,-344 1283.71,-342.82 1291.73,-341.44 1299.71,-339.95"/>
<polygon fill="midnightblue" stroke="midnightblue" points="1300.61,-343.34 1309.78,-338.02 1299.3,-336.47 1300.61,-343.34"/>
</g>
<!-- Node3 -->
<g id="node3" class="node">
<title>Node3</title>
<g id="a_node3"><a xlink:href="JKRDisposer_8h.html" target="_top" xlink:title=" ">
<polygon fill="white" stroke="black" points="678,-123.5 678,-142.5 836,-142.5 836,-123.5 678,-123.5"/>
<text text-anchor="middle" x="757" y="-130.5" font-family="Helvetica,sans-Serif" font-size="10.00">JSystem/JKernel/JKRDisposer.h</text>
</a>
</g>
</g>
<!-- Node2&#45;&gt;Node3 -->
<g id="edge2" class="edge">
<title>Node2&#45;&gt;Node3</title>
<path fill="none" stroke="midnightblue" d="M665.33,-184.98C682.97,-175.17 712.16,-158.93 732.86,-147.42"/>
<polygon fill="midnightblue" stroke="midnightblue" points="734.66,-150.43 741.7,-142.51 731.26,-144.31 734.66,-150.43"/>
</g>
<!-- Node5 -->
<g id="node5" class="node">
<title>Node5</title>
<g id="a_node5"><a xlink:href="types_8h.html" target="_top" xlink:title=" ">
<polygon fill="white" stroke="black" points="566.5,-0.5 566.5,-19.5 647.5,-19.5 647.5,-0.5 566.5,-0.5"/>
<text text-anchor="middle" x="607" y="-7.5" font-family="Helvetica,sans-Serif" font-size="10.00">dolphin/types.h</text>
</a>
</g>
</g>
<!-- Node2&#45;&gt;Node5 -->
<g id="edge12" class="edge">
<title>Node2&#45;&gt;Node5</title>
<path fill="none" stroke="midnightblue" d="M652.32,-184.81C655.88,-171.5 662.91,-145.25 669,-123 673.38,-106.98 676.76,-103.45 679,-87 680.86,-73.35 685.68,-68.05 679,-56 670.91,-41.41 655.9,-30.92 641.66,-23.76"/>
<polygon fill="midnightblue" stroke="midnightblue" points="643.05,-20.55 632.5,-19.53 640.11,-26.9 643.05,-20.55"/>
</g>
<!-- Node6 -->
<g id="node6" class="node">
<title>Node6</title>
<g id="a_node6"><a xlink:href="OS_8h.html" target="_top" xlink:title=" ">
<polygon fill="white" stroke="black" points="536,-123.5 536,-142.5 622,-142.5 622,-123.5 536,-123.5"/>
<text text-anchor="middle" x="579" y="-130.5" font-family="Helvetica,sans-Serif" font-size="10.00">dolphin/os/OS.h</text>
</a>
</g>
</g>
<!-- Node2&#45;&gt;Node6 -->
<g id="edge6" class="edge">
<title>Node2&#45;&gt;Node6</title>
<path fill="none" stroke="midnightblue" d="M639.83,-184.98C628.65,-175.61 610.48,-160.38 596.91,-149.01"/>
<polygon fill="midnightblue" stroke="midnightblue" points="599.07,-146.25 589.15,-142.51 594.57,-151.61 599.07,-146.25"/>
</g>
<!-- Node4 -->
<g id="node4" class="node">
<title>Node4</title>
<g id="a_node4"><a xlink:href="JSUList_8h.html" target="_top" xlink:title=" ">
<polygon fill="white" stroke="black" points="785.5,-62 785.5,-81 928.5,-81 928.5,-62 785.5,-62"/>
<text text-anchor="middle" x="857" y="-69" font-family="Helvetica,sans-Serif" font-size="10.00">JSystem/JSupport/JSUList.h</text>
</a>
</g>
</g>
<!-- Node3&#45;&gt;Node4 -->
<g id="edge3" class="edge">
<title>Node3&#45;&gt;Node4</title>
<path fill="none" stroke="midnightblue" d="M771.33,-123.48C787.66,-113.75 814.6,-97.73 833.91,-86.24"/>
<polygon fill="midnightblue" stroke="midnightblue" points="835.89,-89.13 842.7,-81.01 832.32,-83.11 835.89,-89.13"/>
</g>
<!-- Node3&#45;&gt;Node5 -->
<g id="edge5" class="edge">
<title>Node3&#45;&gt;Node5</title>
<path fill="none" stroke="midnightblue" d="M756.67,-123.23C755.63,-107.63 751.24,-74.93 733,-56 713.15,-35.4 683.24,-24.21 657.54,-18.14"/>
<polygon fill="midnightblue" stroke="midnightblue" points="658.08,-14.67 647.56,-15.98 656.6,-21.51 658.08,-14.67"/>
</g>
<!-- Node4&#45;&gt;Node5 -->
<g id="edge4" class="edge">
<title>Node4&#45;&gt;Node5</title>
<path fill="none" stroke="midnightblue" d="M821.18,-61.98C776.81,-51.42 701.16,-33.41 652.67,-21.87"/>
<polygon fill="midnightblue" stroke="midnightblue" points="653.29,-18.42 642.75,-19.51 651.67,-25.23 653.29,-18.42"/>
</g>
<!-- Node6&#45;&gt;Node5 -->
<g id="edge9" class="edge">
<title>Node6&#45;&gt;Node5</title>
<path fill="none" stroke="midnightblue" d="M611.18,-123.49C629.54,-116.8 651.02,-105.45 662,-87 669.05,-75.16 667.9,-68.45 662,-56 655.87,-43.07 644.01,-32.62 632.86,-25.05"/>
<polygon fill="midnightblue" stroke="midnightblue" points="634.53,-21.97 624.2,-19.61 630.81,-27.9 634.53,-21.97"/>
</g>
<!-- Node7 -->
<g id="node7" class="node">
<title>Node7</title>
<g id="a_node7"><a xlink:href="____va__arg_8h.html" target="_top" xlink:title=" ">
<polygon fill="white" stroke="black" points="433,-56.5 433,-86.5 543,-86.5 543,-56.5 433,-56.5"/>
<text text-anchor="start" x="441" y="-74.5" font-family="Helvetica,sans-Serif" font-size="10.00">Runtime.PPCEABI.H/</text>
<text text-anchor="middle" x="488" y="-63.5" font-family="Helvetica,sans-Serif" font-size="10.00">__va_arg.h</text>
</a>
</g>
</g>
<!-- Node6&#45;&gt;Node7 -->
<g id="edge7" class="edge">
<title>Node6&#45;&gt;Node7</title>
<path fill="none" stroke="midnightblue" d="M565.96,-123.48C553.52,-115.34 534.33,-102.79 518.1,-92.18"/>
<polygon fill="midnightblue" stroke="midnightblue" points="519.73,-89.07 509.45,-86.52 515.9,-94.92 519.73,-89.07"/>
</g>
<!-- Node8 -->
<g id="node8" class="node">
<title>Node8</title>
<g id="a_node8"><a xlink:href="dvd_8h.html" target="_top" xlink:title=" ">
<polygon fill="white" stroke="black" points="561,-62 561,-81 653,-81 653,-62 561,-62"/>
<text text-anchor="middle" x="607" y="-69" font-family="Helvetica,sans-Serif" font-size="10.00">dolphin/dvd/dvd.h</text>
</a>
</g>
</g>
<!-- Node6&#45;&gt;Node8 -->
<g id="edge10" class="edge">
<title>Node6&#45;&gt;Node8</title>
<path fill="none" stroke="midnightblue" d="M583.01,-123.48C587.09,-114.82 593.52,-101.15 598.7,-90.15"/>
<polygon fill="midnightblue" stroke="midnightblue" points="601.9,-91.55 603,-81.01 595.57,-88.57 601.9,-91.55"/>
</g>
<!-- Node7&#45;&gt;Node5 -->
<g id="edge8" class="edge">
<title>Node7&#45;&gt;Node5</title>
<path fill="none" stroke="midnightblue" d="M516.2,-56.4C535.72,-46.64 561.53,-33.74 580.63,-24.18"/>
<polygon fill="midnightblue" stroke="midnightblue" points="582.31,-27.26 589.68,-19.66 579.17,-21 582.31,-27.26"/>
</g>
<!-- Node8&#45;&gt;Node5 -->
<g id="edge11" class="edge">
<title>Node8&#45;&gt;Node5</title>
<path fill="none" stroke="midnightblue" d="M607,-61.98C607,-53.58 607,-40.48 607,-29.66"/>
<polygon fill="midnightblue" stroke="midnightblue" points="610.5,-29.51 607,-19.51 603.5,-29.51 610.5,-29.51"/>
</g>
<!-- Node9&#45;&gt;Node5 -->
<g id="edge14" class="edge">
<title>Node9&#45;&gt;Node5</title>
<path fill="none" stroke="midnightblue" d="M65.89,-246.08C42.26,-215.31 -29.28,-112.46 23,-56 58.86,-17.28 420.58,-11.76 556.1,-11.06"/>
<polygon fill="midnightblue" stroke="midnightblue" points="556.23,-14.56 566.22,-11.02 556.2,-7.56 556.23,-14.56"/>
</g>
<!-- Node10&#45;&gt;Node5 -->
<g id="edge37" class="edge">
<title>Node10&#45;&gt;Node5</title>
<path fill="none" stroke="midnightblue" d="M433.93,-313.3C413.06,-294.24 367,-246.41 367,-195.5 367,-195.5 367,-195.5 367,-132 367,-93.62 377.43,-79.2 408,-56 450.84,-23.49 512.86,-13.71 556.24,-11.14"/>
<polygon fill="midnightblue" stroke="midnightblue" points="556.48,-14.63 566.3,-10.65 556.14,-7.64 556.48,-14.63"/>
</g>
<!-- Node10&#45;&gt;Node6 -->
<g id="edge36" class="edge">
<title>Node10&#45;&gt;Node6</title>
<path fill="none" stroke="midnightblue" d="M444.75,-313.45C446.35,-298.76 451.08,-268.16 464,-246 488.24,-204.44 532.09,-168 558.07,-148.67"/>
<polygon fill="midnightblue" stroke="midnightblue" points="560.43,-151.28 566.46,-142.57 556.31,-145.62 560.43,-151.28"/>
</g>
<!-- Node10&#45;&gt;Node7 -->
<g id="edge29" class="edge">
<title>Node10&#45;&gt;Node7</title>
<path fill="none" stroke="midnightblue" d="M444.65,-313.07C445.75,-298.83 448.24,-270.12 452,-246 460.39,-192.24 474.37,-129.95 482.21,-96.58"/>
<polygon fill="midnightblue" stroke="midnightblue" points="485.63,-97.34 484.53,-86.81 478.81,-95.73 485.63,-97.34"/>
</g>
<!-- Node11 -->
<g id="node11" class="node">
<title>Node11</title>
<g id="a_node11"><a xlink:href="JKRThread_8h.html" target="_top" xlink:title=" ">
<polygon fill="white" stroke="black" points="473,-246.5 473,-265.5 623,-265.5 623,-246.5 473,-246.5"/>
<text text-anchor="middle" x="548" y="-253.5" font-family="Helvetica,sans-Serif" font-size="10.00">JSystem/JKernel/JKRThread.h</text>
</a>
</g>
</g>
<!-- Node10&#45;&gt;Node11 -->
<g id="edge16" class="edge">
<title>Node10&#45;&gt;Node11</title>
<path fill="none" stroke="midnightblue" d="M458.03,-313.23C475.33,-302.42 504.99,-283.88 525.49,-271.07"/>
<polygon fill="midnightblue" stroke="midnightblue" points="527.57,-273.9 534.2,-265.63 523.86,-267.96 527.57,-273.9"/>
</g>
<!-- Node12 -->
<g id="node12" class="node">
<title>Node12</title>
<g id="a_node12"><a xlink:href="JUTGamePad_8h.html" target="_top" xlink:title=" ">
<polygon fill="white" stroke="black" points="884,-179.5 884,-209.5 1020,-209.5 1020,-179.5 884,-179.5"/>
<text text-anchor="start" x="892" y="-197.5" font-family="Helvetica,sans-Serif" font-size="10.00">JSystem/JUtility/JUTGame</text>
<text text-anchor="middle" x="952" y="-186.5" font-family="Helvetica,sans-Serif" font-size="10.00">Pad.h</text>
</a>
</g>
</g>
<!-- Node10&#45;&gt;Node12 -->
<g id="edge22" class="edge">
<title>Node10&#45;&gt;Node12</title>
<path fill="none" stroke="midnightblue" d="M478.52,-313.4C562.11,-292.59 776.54,-239.19 885.83,-211.98"/>
<polygon fill="midnightblue" stroke="midnightblue" points="886.89,-215.32 895.75,-209.51 885.2,-208.53 886.89,-215.32"/>
</g>
<!-- Node14 -->
<g id="node14" class="node">
<title>Node14</title>
<g id="a_node14"><a xlink:href="GX_8h.html" target="_top" xlink:title=" ">
<polygon fill="white" stroke="black" points="221.5,-123.5 221.5,-142.5 306.5,-142.5 306.5,-123.5 221.5,-123.5"/>
<text text-anchor="middle" x="264" y="-130.5" font-family="Helvetica,sans-Serif" font-size="10.00">dolphin/gx/GX.h</text>
</a>
</g>
</g>
<!-- Node10&#45;&gt;Node14 -->
<g id="edge30" class="edge">
<title>Node10&#45;&gt;Node14</title>
<path fill="none" stroke="midnightblue" d="M425.34,-313.49C405.75,-303.91 374.82,-286.93 353,-266 316.57,-231.05 286.81,-178.77 272.76,-151.69"/>
<polygon fill="midnightblue" stroke="midnightblue" points="275.81,-149.96 268.16,-142.63 269.56,-153.13 275.81,-149.96"/>
</g>
<!-- Node11&#45;&gt;Node2 -->
<g id="edge18" class="edge">
<title>Node11&#45;&gt;Node2</title>
<path fill="none" stroke="midnightblue" d="M562.61,-246.48C579.35,-236.71 607,-220.58 626.72,-209.08"/>
<polygon fill="midnightblue" stroke="midnightblue" points="628.54,-212.07 635.41,-204.01 625.01,-206.02 628.54,-212.07"/>
</g>
<!-- Node11&#45;&gt;Node3 -->
<g id="edge17" class="edge">
<title>Node11&#45;&gt;Node3</title>
<path fill="none" stroke="midnightblue" d="M623.01,-252.59C659.25,-247.74 701.05,-236.22 730,-210 746.26,-195.27 752.73,-170.1 755.3,-152.79"/>
<polygon fill="midnightblue" stroke="midnightblue" points="758.79,-153.08 756.5,-142.74 751.84,-152.26 758.79,-153.08"/>
</g>
<!-- Node11&#45;&gt;Node4 -->
<g id="edge19" class="edge">
<title>Node11&#45;&gt;Node4</title>
<path fill="none" stroke="midnightblue" d="M622.35,-246.45C662.62,-239.94 712.48,-228.79 754,-210 799.76,-189.3 818.65,-185.75 845,-143 854.66,-127.33 857.15,-106.18 857.54,-91.14"/>
<polygon fill="midnightblue" stroke="midnightblue" points="861.04,-91.01 857.52,-81.02 854.04,-91.03 861.04,-91.01"/>
</g>
<!-- Node11&#45;&gt;Node5 -->
<g id="edge21" class="edge">
<title>Node11&#45;&gt;Node5</title>
<path fill="none" stroke="midnightblue" d="M535.03,-246.42C493.59,-217.99 370.13,-124.72 424,-56 440.21,-35.33 508.08,-22.88 556.43,-16.48"/>
<polygon fill="midnightblue" stroke="midnightblue" points="556.95,-19.94 566.43,-15.2 556.07,-13 556.95,-19.94"/>
</g>
<!-- Node11&#45;&gt;Node6 -->
<g id="edge20" class="edge">
<title>Node11&#45;&gt;Node6</title>
<path fill="none" stroke="midnightblue" d="M550.23,-246.3C555.23,-226.76 567.45,-179.06 574.25,-152.55"/>
<polygon fill="midnightblue" stroke="midnightblue" points="577.7,-153.18 576.79,-142.62 570.92,-151.44 577.7,-153.18"/>
</g>
<!-- Node12&#45;&gt;Node3 -->
<g id="edge23" class="edge">
<title>Node12&#45;&gt;Node3</title>
<path fill="none" stroke="midnightblue" d="M905.79,-179.4C871.95,-169.07 826.58,-155.23 794.87,-145.56"/>
<polygon fill="midnightblue" stroke="midnightblue" points="795.68,-142.14 785.09,-142.57 793.63,-148.84 795.68,-142.14"/>
</g>
<!-- Node12&#45;&gt;Node4 -->
<g id="edge24" class="edge">
<title>Node12&#45;&gt;Node4</title>
<path fill="none" stroke="midnightblue" d="M940.73,-179.14C923.04,-156.61 888.83,-113.04 870.08,-89.16"/>
<polygon fill="midnightblue" stroke="midnightblue" points="872.64,-86.76 863.71,-81.05 867.14,-91.08 872.64,-86.76"/>
</g>
<!-- Node12&#45;&gt;Node5 -->
<g id="edge28" class="edge">
<title>Node12&#45;&gt;Node5</title>
<path fill="none" stroke="midnightblue" d="M955.5,-179.09C961.35,-151.13 969.5,-89.38 937,-56 899.29,-17.26 740.58,-11.11 657.78,-10.6"/>
<polygon fill="midnightblue" stroke="midnightblue" points="657.59,-7.1 647.58,-10.57 657.57,-14.1 657.59,-7.1"/>
</g>
<!-- Node12&#45;&gt;Node6 -->
<g id="edge25" class="edge">
<title>Node12&#45;&gt;Node6</title>
<path fill="none" stroke="midnightblue" d="M883.59,-182.59C811.22,-171.04 698.55,-153.07 632.44,-142.52"/>
<polygon fill="midnightblue" stroke="midnightblue" points="632.67,-139.02 622.24,-140.9 631.56,-145.93 632.67,-139.02"/>
</g>
<!-- Node13 -->
<g id="node13" class="node">
<title>Node13</title>
<g id="a_node13"><a xlink:href="Pad_8h.html" target="_top" xlink:title=" ">
<polygon fill="white" stroke="black" points="980,-123.5 980,-142.5 1074,-142.5 1074,-123.5 980,-123.5"/>
<text text-anchor="middle" x="1027" y="-130.5" font-family="Helvetica,sans-Serif" font-size="10.00">dolphin/pad/Pad.h</text>
</a>
</g>
</g>
<!-- Node12&#45;&gt;Node13 -->
<g id="edge26" class="edge">
<title>Node12&#45;&gt;Node13</title>
<path fill="none" stroke="midnightblue" d="M969.77,-179.4C981.35,-170.22 996.42,-158.26 1008.2,-148.92"/>
<polygon fill="midnightblue" stroke="midnightblue" points="1010.43,-151.61 1016.09,-142.66 1006.08,-146.13 1010.43,-151.61"/>
</g>
<!-- Node13&#45;&gt;Node5 -->
<g id="edge27" class="edge">
<title>Node13&#45;&gt;Node5</title>
<path fill="none" stroke="midnightblue" d="M1023.34,-123.1C1016.08,-106.7 998.16,-71.89 971,-56 919.05,-25.6 745.29,-15.56 657.99,-12.39"/>
<polygon fill="midnightblue" stroke="midnightblue" points="657.9,-8.88 647.78,-12.03 657.65,-15.88 657.9,-8.88"/>
</g>
<!-- Node14&#45;&gt;Node5 -->
<g id="edge35" class="edge">
<title>Node14&#45;&gt;Node5</title>
<path fill="none" stroke="midnightblue" d="M272.83,-123.39C291.52,-105.35 334.81,-64.59 353,-56 418.68,-24.99 503.09,-15.21 556.13,-12.21"/>
<polygon fill="midnightblue" stroke="midnightblue" points="556.5,-15.69 566.31,-11.69 556.14,-8.7 556.5,-15.69"/>
</g>
<!-- Node15 -->
<g id="node15" class="node">
<title>Node15</title>
<g id="a_node15"><a xlink:href="GXDisplayList_8h.html" target="_top" xlink:title=" ">
<polygon fill="white" stroke="black" points="32.5,-62 32.5,-81 165.5,-81 165.5,-62 32.5,-62"/>
<text text-anchor="middle" x="99" y="-69" font-family="Helvetica,sans-Serif" font-size="10.00">dolphin/gx/GXDisplayList.h</text>
</a>
</g>
</g>
<!-- Node14&#45;&gt;Node15 -->
<g id="edge31" class="edge">
<title>Node14&#45;&gt;Node15</title>
<path fill="none" stroke="midnightblue" d="M240.36,-123.48C212.06,-113.27 164.47,-96.11 132.41,-84.55"/>
<polygon fill="midnightblue" stroke="midnightblue" points="133.19,-81.11 122.6,-81.01 130.82,-87.69 133.19,-81.11"/>
</g>
<!-- Node16 -->
<g id="node16" class="node">
<title>Node16</title>
<g id="a_node16"><a xlink:href="GXTexture_8h.html" target="_top" xlink:title=" ">
<polygon fill="white" stroke="black" points="183.5,-62 183.5,-81 300.5,-81 300.5,-62 183.5,-62"/>
<text text-anchor="middle" x="242" y="-69" font-family="Helvetica,sans-Serif" font-size="10.00">dolphin/gx/GXTexture.h</text>
</a>
</g>
</g>
<!-- Node14&#45;&gt;Node16 -->
<g id="edge33" class="edge">
<title>Node14&#45;&gt;Node16</title>
<path fill="none" stroke="midnightblue" d="M260.85,-123.48C257.68,-114.9 252.7,-101.43 248.65,-90.48"/>
<polygon fill="midnightblue" stroke="midnightblue" points="251.9,-89.17 245.15,-81.01 245.33,-91.6 251.9,-89.17"/>
</g>
<!-- Node15&#45;&gt;Node5 -->
<g id="edge32" class="edge">
<title>Node15&#45;&gt;Node5</title>
<path fill="none" stroke="midnightblue" d="M139.76,-61.95C150.84,-59.81 162.85,-57.65 174,-56 311.37,-35.62 474.62,-21.31 555.83,-14.86"/>
<polygon fill="midnightblue" stroke="midnightblue" points="556.56,-18.31 566.26,-14.04 556.01,-11.33 556.56,-18.31"/>
</g>
<!-- Node16&#45;&gt;Node5 -->
<g id="edge34" class="edge">
<title>Node16&#45;&gt;Node5</title>
<path fill="none" stroke="midnightblue" d="M283.25,-61.98C293.6,-59.94 304.69,-57.82 315,-56 399.35,-41.13 497.89,-26.51 556.22,-18.15"/>
<polygon fill="midnightblue" stroke="midnightblue" points="556.88,-21.59 566.28,-16.71 555.89,-14.66 556.88,-21.59"/>
</g>
<!-- Node18&#45;&gt;Node5 -->
<g id="edge40" class="edge">
<title>Node18&#45;&gt;Node5</title>
<path fill="none" stroke="midnightblue" d="M905.38,-250.63C967.63,-238.63 1120.16,-200.76 1083,-123 1062.56,-80.23 1043.73,-74.31 1000,-56 939.39,-30.62 749.77,-18.04 657.9,-13.3"/>
<polygon fill="midnightblue" stroke="midnightblue" points="657.89,-9.8 647.73,-12.79 657.54,-16.79 657.89,-9.8"/>
</g>
</g>
</svg>
        <g id="navigator" transform="translate(0 0)" fill="#404254">
                <rect fill="#f2f5e9" fill-opacity="0.5" stroke="#606060" stroke-width=".5" x="0" y="0" width="60" height="60"/>
                <use id="zoomplus" xlink:href="#zoomPlus" x="17" y="9" onmousedown="handleZoom(evt,'in')"/>
                <use id="zoomminus" xlink:href="#zoomMin" x="42" y="9" onmousedown="handleZoom(evt,'out')"/>
                <use id="reset" xlink:href="#resetDef" x="30" y="36" onmousedown="handleReset()"/>
                <g id="arrowUp" xlink:href="#dirArrow" transform="translate(30 24)" onmousedown="handlePan(0,-1)">
                  <use xlink:href="#rim" fill="#404040">
                        <set attributeName="fill" to="#808080" begin="arrowUp.mouseover" end="arrowUp.mouseout"/>
                  </use>
                  <path fill="none" stroke="white" stroke-width="1.5" d="M0,-3.0v7 M-2.5,-0.5L0,-3.0L2.5,-0.5"/>
                </g>
                <g id="arrowRight" xlink:href="#dirArrow" transform="rotate(90) translate(36 -43)" onmousedown="handlePan(1,0)">
                  <use xlink:href="#rim" fill="#404040">
                        <set attributeName="fill" to="#808080" begin="arrowRight.mouseover" end="arrowRight.mouseout"/>
                  </use>
                  <path fill="none" stroke="white" stroke-width="1.5" d="M0,-3.0v7 M-2.5,-0.5L0,-3.0L2.5,-0.5"/>
                </g>
                <g id="arrowDown" xlink:href="#dirArrow" transform="rotate(180) translate(-30 -48)" onmousedown="handlePan(0,1)">
                  <use xlink:href="#rim" fill="#404040">
                        <set attributeName="fill" to="#808080" begin="arrowDown.mouseover" end="arrowDown.mouseout"/>
                  </use>
                  <path fill="none" stroke="white" stroke-width="1.5" d="M0,-3.0v7 M-2.5,-0.5L0,-3.0L2.5,-0.5"/>
                </g>
                <g id="arrowLeft" xlink:href="#dirArrow" transform="rotate(270) translate(-36 17)" onmousedown="handlePan(-1,0)">
                  <use xlink:href="#rim" fill="#404040">
                        <set attributeName="fill" to="#808080" begin="arrowLeft.mouseover" end="arrowLeft.mouseout"/>
                  </use>
                  <path fill="none" stroke="white" stroke-width="1.5" d="M0,-3.0v7 M-2.5,-0.5L0,-3.0L2.5,-0.5"/>
                </g>
        </g>
        <svg viewBox="0 0 15 15" width="100%" height="30px" preserveAspectRatio="xMaxYMin meet">
         <g id="arrow_out" transform="scale(0.3 0.3)">
          <a xlink:href="JKRHeap_8cpp__incl_org.svg" target="_base">
           <rect id="button" ry="5" rx="5" y="6" x="6" height="38" width="38"
                fill="#f2f5e9" fill-opacity="0.5" stroke="#606060" stroke-width="1.0"/>
           <path id="arrow"
             d="M 11.500037,31.436501 C 11.940474,20.09759 22.043105,11.32322 32.158766,21.979434 L 37.068811,17.246167 C 37.068811,17.246167 37.088388,32 37.088388,32 L 22.160133,31.978069 C 22.160133,31.978069 26.997745,27.140456 26.997745,27.140456 C 18.528582,18.264221 13.291696,25.230495 11.500037,31.436501 z"
             style="fill:#404040;"/>
          </a>
         </g>
        </svg>
</svg>
