<?xml version="1.0" encoding="UTF-8" standalone="no"?>
<!DOCTYPE svg PUBLIC "-//W3C//DTD SVG 1.1//EN"
 "http://www.w3.org/Graphics/SVG/1.1/DTD/svg11.dtd">
<!-- Generated by graphviz version 2.44.0 ()
 -->
<!-- Title: libs/JSystem/JKernel/JKRMemArchive.cpp Pages: 1 -->
<!--zoomable 531 -->
<svg id="main" version="1.1" xmlns="http://www.w3.org/2000/svg" xmlns:xlink="http://www.w3.org/1999/xlink" xml:space="preserve" onload="init(evt)">
<style type="text/css"><![CDATA[
.edge:hover path { stroke: red; }
.edge:hover polygon { stroke: red; fill: red; }
]]></style>
<script type="text/javascript"><![CDATA[
var edges = document.getElementsByTagName('g');
if (edges && edges.length) {
  for (var i=0;i<edges.length;i++) {
    if (edges[i].id.substr(0,4)=='edge') {
      edges[i].setAttribute('class','edge');
    }
  }
}
]]></script>
        <defs>
                <circle id="rim" cx="0" cy="0" r="7"/>
                <circle id="rim2" cx="0" cy="0" r="3.5"/>
                <g id="zoomPlus">
                        <use xlink:href="#rim" fill="#404040">
                                <set attributeName="fill" to="#808080" begin="zoomplus.mouseover" end="zoomplus.mouseout"/>
                        </use>
                        <path d="M-4,0h8M0,-4v8" fill="none" stroke="white" stroke-width="1.5" pointer-events="none"/>
                </g>
                <g id="zoomMin">
                        <use xlink:href="#rim" fill="#404040">
                                <set attributeName="fill" to="#808080" begin="zoomminus.mouseover" end="zoomminus.mouseout"/>
                        </use>
                        <path d="M-4,0h8" fill="none" stroke="white" stroke-width="1.5" pointer-events="none"/>
                </g>
                <g id="dirArrow">
                        <path fill="none" stroke="white" stroke-width="1.5" d="M0,-3.0v7 M-2.5,-0.5L0,-3.0L2.5,-0.5"/>
                </g>
               <g id="resetDef">
                       <use xlink:href="#rim2" fill="#404040">
                               <set attributeName="fill" to="#808080" begin="reset.mouseover" end="reset.mouseout"/>
                       </use>
               </g>
        </defs>

<script type="text/javascript">
var viewWidth = 1757;
var viewHeight = 531;
var sectionId = 'dynsection-0';
</script>
<script xlink:href="svgpan.js"/>
<svg id="graph" class="graph">
<g id="viewport">
<title>libs/JSystem/JKernel/JKRMemArchive.cpp</title>
<polygon fill="white" stroke="transparent" points="-4,4 -4,-527 1753,-527 1753,4 -4,4"/>
<!-- Node1 -->
<g id="node1" class="node">
<title>Node1</title>
<g id="a_node1"><a xlink:title=" ">
<polygon fill="#bfbfbf" stroke="black" points="1134.5,-492.5 1134.5,-522.5 1245.5,-522.5 1245.5,-492.5 1134.5,-492.5"/>
<text text-anchor="start" x="1142.5" y="-510.5" font-family="Helvetica,sans-Serif" font-size="10.00">libs/JSystem/JKernel</text>
<text text-anchor="middle" x="1190" y="-499.5" font-family="Helvetica,sans-Serif" font-size="10.00">/JKRMemArchive.cpp</text>
</a>
</g>
</g>
<!-- Node2 -->
<g id="node2" class="node">
<title>Node2</title>
<g id="a_node2"><a xlink:href="JKRMemArchive_8h.html" target="_top" xlink:title=" ">
<polygon fill="white" stroke="black" points="323.5,-420 323.5,-439 498.5,-439 498.5,-420 323.5,-420"/>
<text text-anchor="middle" x="411" y="-427" font-family="Helvetica,sans-Serif" font-size="10.00">JSystem/JKernel/JKRMemArchive.h</text>
</a>
</g>
</g>
<!-- Node1&#45;&gt;Node2 -->
<g id="edge1" class="edge">
<title>Node1&#45;&gt;Node2</title>
<path fill="none" stroke="midnightblue" d="M1134.37,-503.4C1025.79,-497.02 778.14,-480.92 571,-456 536.88,-451.89 498.88,-445.9 468.48,-440.75"/>
<polygon fill="midnightblue" stroke="midnightblue" points="468.92,-437.28 458.47,-439.04 467.74,-444.18 468.92,-437.28"/>
</g>
<!-- Node9 -->
<g id="node9" class="node">
<title>Node9</title>
<g id="a_node9"><a xlink:href="types_8h.html" target="_top" xlink:title=" ">
<polygon fill="white" stroke="black" points="501.5,-0.5 501.5,-19.5 582.5,-19.5 582.5,-0.5 501.5,-0.5"/>
<text text-anchor="middle" x="542" y="-7.5" font-family="Helvetica,sans-Serif" font-size="10.00">dolphin/types.h</text>
</a>
</g>
</g>
<!-- Node1&#45;&gt;Node9 -->
<g id="edge59" class="edge">
<title>Node1&#45;&gt;Node9</title>
<path fill="none" stroke="midnightblue" d="M1191.77,-492.28C1198.07,-441.48 1219,-270.74 1219,-246 1219,-246 1219,-246 1219,-121 1219,-87.98 1210.85,-73.75 1183,-56 1133.73,-24.59 735.79,-14.45 592.87,-11.81"/>
<polygon fill="midnightblue" stroke="midnightblue" points="592.69,-8.3 582.63,-11.62 592.57,-15.3 592.69,-8.3"/>
</g>
<!-- Node10 -->
<g id="node10" class="node">
<title>Node10</title>
<g id="a_node10"><a xlink:href="JKRHeap_8h.html" target="_top" xlink:title=" ">
<polygon fill="white" stroke="black" points="448.5,-174 448.5,-193 591.5,-193 591.5,-174 448.5,-174"/>
<text text-anchor="middle" x="520" y="-181" font-family="Helvetica,sans-Serif" font-size="10.00">JSystem/JKernel/JKRHeap.h</text>
</a>
</g>
</g>
<!-- Node1&#45;&gt;Node10 -->
<g id="edge40" class="edge">
<title>Node1&#45;&gt;Node10</title>
<path fill="none" stroke="midnightblue" d="M1134.19,-494.03C1019.98,-466.41 755.23,-391.51 575,-255 555.73,-240.41 539.56,-217.49 529.84,-201.77"/>
<polygon fill="midnightblue" stroke="midnightblue" points="532.78,-199.86 524.66,-193.05 526.76,-203.43 532.78,-199.86"/>
</g>
<!-- Node17 -->
<g id="node17" class="node">
<title>Node17</title>
<g id="a_node17"><a xlink:href="JKRDvdRipper_8h.html" target="_top" xlink:title=" ">
<polygon fill="white" stroke="black" points="148.5,-347.5 148.5,-366.5 313.5,-366.5 313.5,-347.5 148.5,-347.5"/>
<text text-anchor="middle" x="231" y="-354.5" font-family="Helvetica,sans-Serif" font-size="10.00">JSystem/JKernel/JKRDvdRipper.h</text>
</a>
</g>
</g>
<!-- Node1&#45;&gt;Node17 -->
<g id="edge37" class="edge">
<title>Node1&#45;&gt;Node17</title>
<path fill="none" stroke="midnightblue" d="M1134.21,-502.69C1047.05,-496.23 873.47,-481.29 728,-456 628.49,-438.7 606.02,-422.92 507,-403 437.44,-389.01 357.34,-376.32 301.42,-368.02"/>
<polygon fill="midnightblue" stroke="midnightblue" points="301.67,-364.52 291.26,-366.52 300.64,-371.44 301.67,-364.52"/>
</g>
<!-- Node18 -->
<g id="node18" class="node">
<title>Node18</title>
<g id="a_node18"><a xlink:href="JUTException_8h.html" target="_top" xlink:title=" ">
<polygon fill="white" stroke="black" points="982.5,-291.5 982.5,-310.5 1141.5,-310.5 1141.5,-291.5 982.5,-291.5"/>
<text text-anchor="middle" x="1062" y="-298.5" font-family="Helvetica,sans-Serif" font-size="10.00">JSystem/JUtility/JUTException.h</text>
</a>
</g>
</g>
<!-- Node1&#45;&gt;Node18 -->
<g id="edge41" class="edge">
<title>Node1&#45;&gt;Node18</title>
<path fill="none" stroke="midnightblue" d="M1181.2,-492.44C1158.5,-456.17 1097.98,-359.48 1073.01,-319.59"/>
<polygon fill="midnightblue" stroke="midnightblue" points="1075.74,-317.36 1067.47,-310.74 1069.81,-321.08 1075.74,-317.36"/>
</g>
<!-- Node24 -->
<g id="node24" class="node">
<title>Node24</title>
<g id="a_node24"><a xlink:href="dol2asm_8h.html" target="_top" xlink:title=" ">
<polygon fill="white" stroke="black" points="1256.5,-420 1256.5,-439 1317.5,-439 1317.5,-420 1256.5,-420"/>
<text text-anchor="middle" x="1287" y="-427" font-family="Helvetica,sans-Serif" font-size="10.00">dol2asm.h</text>
</a>
</g>
</g>
<!-- Node1&#45;&gt;Node24 -->
<g id="edge58" class="edge">
<title>Node1&#45;&gt;Node24</title>
<path fill="none" stroke="midnightblue" d="M1208.24,-492.2C1225.26,-478.88 1250.54,-459.07 1267.84,-445.51"/>
<polygon fill="midnightblue" stroke="midnightblue" points="1270.36,-447.99 1276.07,-439.06 1266.04,-442.48 1270.36,-447.99"/>
</g>
<!-- Node25 -->
<g id="node25" class="node">
<title>Node25</title>
<g id="a_node25"><a xlink:href="msl__c_2string_8h.html" target="_top" xlink:title=" ">
<polygon fill="white" stroke="black" points="1218.5,-347.5 1218.5,-366.5 1295.5,-366.5 1295.5,-347.5 1218.5,-347.5"/>
<text text-anchor="middle" x="1257" y="-354.5" font-family="Helvetica,sans-Serif" font-size="10.00">msl_c/string.h</text>
</a>
</g>
</g>
<!-- Node1&#45;&gt;Node25 -->
<g id="edge60" class="edge">
<title>Node1&#45;&gt;Node25</title>
<path fill="none" stroke="midnightblue" d="M1196.42,-492.26C1208.67,-465.12 1235.34,-406.01 1248.83,-376.11"/>
<polygon fill="midnightblue" stroke="midnightblue" points="1252.09,-377.4 1253.01,-366.85 1245.71,-374.52 1252.09,-377.4"/>
</g>
<!-- Node26 -->
<g id="node26" class="node">
<title>Node26</title>
<g id="a_node26"><a xlink:title=" ">
<polygon fill="white" stroke="#bfbfbf" points="1335.5,-403.5 1335.5,-455.5 1540.5,-455.5 1540.5,-403.5 1335.5,-403.5"/>
<text text-anchor="start" x="1343.5" y="-443.5" font-family="Helvetica,sans-Serif" font-size="10.00">asm/JSystem/JKernel</text>
<text text-anchor="start" x="1343.5" y="-432.5" font-family="Helvetica,sans-Serif" font-size="10.00">/JKRMemArchive/open</text>
<text text-anchor="start" x="1343.5" y="-421.5" font-family="Helvetica,sans-Serif" font-size="10.00">__13JKRMemArchiveFlQ210JKRArchive15</text>
<text text-anchor="middle" x="1438" y="-410.5" font-family="Helvetica,sans-Serif" font-size="10.00">EMountDirection.s</text>
</a>
</g>
</g>
<!-- Node1&#45;&gt;Node26 -->
<g id="edge62" class="edge">
<title>Node1&#45;&gt;Node26</title>
<path fill="none" stroke="midnightblue" d="M1235.78,-492.47C1266.74,-482.98 1308.7,-470.12 1346.37,-458.58"/>
<polygon fill="midnightblue" stroke="midnightblue" points="1347.82,-461.8 1356.36,-455.52 1345.77,-455.1 1347.82,-461.8"/>
</g>
<!-- Node27 -->
<g id="node27" class="node">
<title>Node27</title>
<g id="a_node27"><a xlink:title=" ">
<polygon fill="white" stroke="#bfbfbf" points="1559,-403.5 1559,-455.5 1749,-455.5 1749,-403.5 1559,-403.5"/>
<text text-anchor="start" x="1567" y="-443.5" font-family="Helvetica,sans-Serif" font-size="10.00">asm/JSystem/JKernel</text>
<text text-anchor="start" x="1567" y="-432.5" font-family="Helvetica,sans-Serif" font-size="10.00">/JKRMemArchive/open</text>
<text text-anchor="start" x="1567" y="-421.5" font-family="Helvetica,sans-Serif" font-size="10.00">__13JKRMemArchiveFPvUl15JKRMem</text>
<text text-anchor="middle" x="1654" y="-410.5" font-family="Helvetica,sans-Serif" font-size="10.00">BreakFlag.s</text>
</a>
</g>
</g>
<!-- Node1&#45;&gt;Node27 -->
<g id="edge63" class="edge">
<title>Node1&#45;&gt;Node27</title>
<path fill="none" stroke="midnightblue" d="M1245.79,-500.45C1314.79,-492.57 1435.98,-477.44 1549.01,-456.11"/>
<polygon fill="midnightblue" stroke="midnightblue" points="1549.7,-459.54 1558.87,-454.23 1548.39,-452.67 1549.7,-459.54"/>
</g>
<!-- Node3 -->
<g id="node3" class="node">
<title>Node3</title>
<g id="a_node3"><a xlink:href="JKRArchive_8h.html" target="_top" xlink:title=" ">
<polygon fill="white" stroke="black" points="334.5,-347.5 334.5,-366.5 487.5,-366.5 487.5,-347.5 334.5,-347.5"/>
<text text-anchor="middle" x="411" y="-354.5" font-family="Helvetica,sans-Serif" font-size="10.00">JSystem/JKernel/JKRArchive.h</text>
</a>
</g>
</g>
<!-- Node2&#45;&gt;Node3 -->
<g id="edge2" class="edge">
<title>Node2&#45;&gt;Node3</title>
<path fill="none" stroke="midnightblue" d="M411,-419.86C411,-409.18 411,-390.72 411,-376.73"/>
<polygon fill="midnightblue" stroke="midnightblue" points="414.5,-376.72 411,-366.72 407.5,-376.72 414.5,-376.72"/>
</g>
<!-- Node2&#45;&gt;Node9 -->
<g id="edge36" class="edge">
<title>Node2&#45;&gt;Node9</title>
<path fill="none" stroke="midnightblue" d="M328.32,-419.99C208.3,-405.31 0,-370.03 0,-302 0,-302 0,-302 0,-121 0,-82.28 23.44,-73.45 58,-56 132.81,-18.24 382.82,-11.98 491.19,-11.08"/>
<polygon fill="midnightblue" stroke="midnightblue" points="491.25,-14.58 501.22,-11.01 491.2,-7.58 491.25,-14.58"/>
</g>
<!-- Node4 -->
<g id="node4" class="node">
<title>Node4</title>
<g id="a_node4"><a xlink:href="JKRCompression_8h.html" target="_top" xlink:title=" ">
<polygon fill="white" stroke="black" points="141.5,-235.5 141.5,-254.5 318.5,-254.5 318.5,-235.5 141.5,-235.5"/>
<text text-anchor="middle" x="230" y="-242.5" font-family="Helvetica,sans-Serif" font-size="10.00">JSystem/JKernel/JKRCompression.h</text>
</a>
</g>
</g>
<!-- Node3&#45;&gt;Node4 -->
<g id="edge3" class="edge">
<title>Node3&#45;&gt;Node4</title>
<path fill="none" stroke="midnightblue" d="M399.88,-347.48C382.77,-334.53 348.73,-309.47 318,-291 298.4,-279.21 275.34,-267.5 257.75,-258.98"/>
<polygon fill="midnightblue" stroke="midnightblue" points="259.13,-255.76 248.6,-254.59 256.11,-262.07 259.13,-255.76"/>
</g>
<!-- Node5 -->
<g id="node5" class="node">
<title>Node5</title>
<g id="a_node5"><a xlink:href="JKRDecomp_8h.html" target="_top" xlink:title=" ">
<polygon fill="white" stroke="black" points="153,-291.5 153,-310.5 309,-310.5 309,-291.5 153,-291.5"/>
<text text-anchor="middle" x="231" y="-298.5" font-family="Helvetica,sans-Serif" font-size="10.00">JSystem/JKernel/JKRDecomp.h</text>
</a>
</g>
</g>
<!-- Node3&#45;&gt;Node5 -->
<g id="edge4" class="edge">
<title>Node3&#45;&gt;Node5</title>
<path fill="none" stroke="midnightblue" d="M382.48,-347.44C351.93,-338.28 303.29,-323.69 269.4,-313.52"/>
<polygon fill="midnightblue" stroke="midnightblue" points="269.97,-310.04 259.39,-310.52 267.96,-316.74 269.97,-310.04"/>
</g>
<!-- Node3&#45;&gt;Node10 -->
<g id="edge33" class="edge">
<title>Node3&#45;&gt;Node10</title>
<path fill="none" stroke="midnightblue" d="M420.83,-347.25C438.68,-330.85 476.55,-293.65 498,-255 507.12,-238.56 513.01,-217.83 516.38,-203.11"/>
<polygon fill="midnightblue" stroke="midnightblue" points="519.83,-203.71 518.48,-193.2 512.98,-202.26 519.83,-203.71"/>
</g>
<!-- Node13 -->
<g id="node13" class="node">
<title>Node13</title>
<g id="a_node13"><a xlink:href="JKRDvdFile_8h.html" target="_top" xlink:title=" ">
<polygon fill="white" stroke="black" points="336.5,-235.5 336.5,-254.5 489.5,-254.5 489.5,-235.5 336.5,-235.5"/>
<text text-anchor="middle" x="413" y="-242.5" font-family="Helvetica,sans-Serif" font-size="10.00">JSystem/JKernel/JKRDvdFile.h</text>
</a>
</g>
</g>
<!-- Node3&#45;&gt;Node13 -->
<g id="edge22" class="edge">
<title>Node3&#45;&gt;Node13</title>
<path fill="none" stroke="midnightblue" d="M411.16,-347.37C411.48,-329.62 412.22,-288.67 412.66,-264.6"/>
<polygon fill="midnightblue" stroke="midnightblue" points="416.16,-264.65 412.84,-254.59 409.16,-264.53 416.16,-264.65"/>
</g>
<!-- Node15 -->
<g id="node15" class="node">
<title>Node15</title>
<g id="a_node15"><a xlink:href="JKRFileLoader_8h.html" target="_top" xlink:title=" ">
<polygon fill="white" stroke="black" points="762,-174 762,-193 928,-193 928,-174 762,-174"/>
<text text-anchor="middle" x="845" y="-181" font-family="Helvetica,sans-Serif" font-size="10.00">JSystem/JKernel/JKRFileLoader.h</text>
</a>
</g>
</g>
<!-- Node3&#45;&gt;Node15 -->
<g id="edge29" class="edge">
<title>Node3&#45;&gt;Node15</title>
<path fill="none" stroke="midnightblue" d="M453.7,-347.46C518.46,-333.54 644.4,-302.63 743,-255 774.74,-239.66 807.61,-215.1 827.18,-199.39"/>
<polygon fill="midnightblue" stroke="midnightblue" points="829.41,-202.09 834.95,-193.05 824.98,-196.66 829.41,-202.09"/>
</g>
<!-- Node16 -->
<g id="node16" class="node">
<title>Node16</title>
<g id="a_node16"><a xlink:href="global_8h.html" target="_top" xlink:title=" ">
<polygon fill="white" stroke="black" points="76,-291.5 76,-310.5 126,-310.5 126,-291.5 76,-291.5"/>
<text text-anchor="middle" x="101" y="-298.5" font-family="Helvetica,sans-Serif" font-size="10.00">global.h</text>
</a>
</g>
</g>
<!-- Node3&#45;&gt;Node16 -->
<g id="edge34" class="edge">
<title>Node3&#45;&gt;Node16</title>
<path fill="none" stroke="midnightblue" d="M356.68,-347.49C302.65,-338.87 217.44,-324.87 144,-311 141.51,-310.53 138.94,-310.03 136.35,-309.52"/>
<polygon fill="midnightblue" stroke="midnightblue" points="136.93,-306.06 126.43,-307.5 135.53,-312.92 136.93,-306.06"/>
</g>
<!-- Node5&#45;&gt;Node4 -->
<g id="edge5" class="edge">
<title>Node5&#45;&gt;Node4</title>
<path fill="none" stroke="midnightblue" d="M230.83,-291.08C230.7,-284.01 230.52,-273.86 230.35,-264.99"/>
<polygon fill="midnightblue" stroke="midnightblue" points="233.85,-264.68 230.16,-254.75 226.85,-264.81 233.85,-264.68"/>
</g>
<!-- Node6 -->
<g id="node6" class="node">
<title>Node6</title>
<g id="a_node6"><a xlink:href="JKRThread_8h.html" target="_top" xlink:title=" ">
<polygon fill="white" stroke="black" points="584,-235.5 584,-254.5 734,-254.5 734,-235.5 584,-235.5"/>
<text text-anchor="middle" x="659" y="-242.5" font-family="Helvetica,sans-Serif" font-size="10.00">JSystem/JKernel/JKRThread.h</text>
</a>
</g>
</g>
<!-- Node5&#45;&gt;Node6 -->
<g id="edge6" class="edge">
<title>Node5&#45;&gt;Node6</title>
<path fill="none" stroke="midnightblue" d="M298.82,-291.44C375.67,-281.75 500.71,-265.97 581.4,-255.79"/>
<polygon fill="midnightblue" stroke="midnightblue" points="582.02,-259.24 591.5,-254.52 581.14,-252.3 582.02,-259.24"/>
</g>
<!-- Node5&#45;&gt;Node9 -->
<g id="edge21" class="edge">
<title>Node5&#45;&gt;Node9</title>
<path fill="none" stroke="midnightblue" d="M193.14,-291.4C172.26,-284.78 147.51,-273.53 132,-255 111.24,-230.21 114,-216.84 114,-184.5 114,-184.5 114,-184.5 114,-121 114,-43.91 377.79,-20.06 491.18,-13.38"/>
<polygon fill="midnightblue" stroke="midnightblue" points="491.56,-16.86 501.35,-12.8 491.17,-9.87 491.56,-16.86"/>
</g>
<!-- Node7 -->
<g id="node7" class="node">
<title>Node7</title>
<g id="a_node7"><a xlink:href="JKRDisposer_8h.html" target="_top" xlink:title=" ">
<polygon fill="white" stroke="black" points="564,-112.5 564,-131.5 722,-131.5 722,-112.5 564,-112.5"/>
<text text-anchor="middle" x="643" y="-119.5" font-family="Helvetica,sans-Serif" font-size="10.00">JSystem/JKernel/JKRDisposer.h</text>
</a>
</g>
</g>
<!-- Node6&#45;&gt;Node7 -->
<g id="edge7" class="edge">
<title>Node6&#45;&gt;Node7</title>
<path fill="none" stroke="midnightblue" d="M657.85,-235.3C655.27,-215.76 648.96,-168.06 645.45,-141.55"/>
<polygon fill="midnightblue" stroke="midnightblue" points="648.92,-141.08 644.14,-131.62 641.98,-142 648.92,-141.08"/>
</g>
<!-- Node8 -->
<g id="node8" class="node">
<title>Node8</title>
<g id="a_node8"><a xlink:href="JSUList_8h.html" target="_top" xlink:title=" ">
<polygon fill="white" stroke="black" points="570.5,-56.5 570.5,-75.5 713.5,-75.5 713.5,-56.5 570.5,-56.5"/>
<text text-anchor="middle" x="642" y="-63.5" font-family="Helvetica,sans-Serif" font-size="10.00">JSystem/JSupport/JSUList.h</text>
</a>
</g>
</g>
<!-- Node6&#45;&gt;Node8 -->
<g id="edge18" class="edge">
<title>Node6&#45;&gt;Node8</title>
<path fill="none" stroke="midnightblue" d="M670.16,-235.49C696.61,-214.25 758.89,-157.36 731,-112 721.45,-96.47 704.69,-86.1 688.27,-79.27"/>
<polygon fill="midnightblue" stroke="midnightblue" points="689.29,-75.92 678.7,-75.65 686.82,-82.46 689.29,-75.92"/>
</g>
<!-- Node6&#45;&gt;Node9 -->
<g id="edge20" class="edge">
<title>Node6&#45;&gt;Node9</title>
<path fill="none" stroke="midnightblue" d="M583.74,-238.61C527.44,-232.82 457.18,-221.27 439,-199 398,-148.76 426.25,-105.63 468,-56 479.51,-42.31 496.3,-31.63 510.98,-24.12"/>
<polygon fill="midnightblue" stroke="midnightblue" points="512.77,-27.14 520.24,-19.63 509.72,-20.84 512.77,-27.14"/>
</g>
<!-- Node6&#45;&gt;Node10 -->
<g id="edge11" class="edge">
<title>Node6&#45;&gt;Node10</title>
<path fill="none" stroke="midnightblue" d="M639.08,-235.48C615.55,-225.4 576.19,-208.55 549.21,-197"/>
<polygon fill="midnightblue" stroke="midnightblue" points="550.45,-193.73 539.88,-193.01 547.69,-200.16 550.45,-193.73"/>
</g>
<!-- Node11 -->
<g id="node11" class="node">
<title>Node11</title>
<g id="a_node11"><a xlink:href="OS_8h.html" target="_top" xlink:title=" ">
<polygon fill="white" stroke="black" points="460,-112.5 460,-131.5 546,-131.5 546,-112.5 460,-112.5"/>
<text text-anchor="middle" x="503" y="-119.5" font-family="Helvetica,sans-Serif" font-size="10.00">dolphin/os/OS.h</text>
</a>
</g>
</g>
<!-- Node6&#45;&gt;Node11 -->
<g id="edge19" class="edge">
<title>Node6&#45;&gt;Node11</title>
<path fill="none" stroke="midnightblue" d="M654.21,-235.39C645.3,-220.06 624.83,-187.77 600,-168 581.99,-153.65 558.66,-142.65 539.39,-135.11"/>
<polygon fill="midnightblue" stroke="midnightblue" points="540.61,-131.83 530.02,-131.59 538.15,-138.38 540.61,-131.83"/>
</g>
<!-- Node7&#45;&gt;Node8 -->
<g id="edge8" class="edge">
<title>Node7&#45;&gt;Node8</title>
<path fill="none" stroke="midnightblue" d="M642.83,-112.08C642.7,-105.01 642.52,-94.86 642.35,-85.99"/>
<polygon fill="midnightblue" stroke="midnightblue" points="645.85,-85.68 642.16,-75.75 638.85,-85.81 645.85,-85.68"/>
</g>
<!-- Node7&#45;&gt;Node9 -->
<g id="edge10" class="edge">
<title>Node7&#45;&gt;Node9</title>
<path fill="none" stroke="midnightblue" d="M616.13,-112.42C598.09,-105.35 575.13,-93.6 561,-76 550.31,-62.69 545.64,-43.57 543.59,-29.51"/>
<polygon fill="midnightblue" stroke="midnightblue" points="547.06,-29.07 542.45,-19.53 540.11,-29.86 547.06,-29.07"/>
</g>
<!-- Node8&#45;&gt;Node9 -->
<g id="edge9" class="edge">
<title>Node8&#45;&gt;Node9</title>
<path fill="none" stroke="midnightblue" d="M625.93,-56.32C610.04,-47.74 585.49,-34.49 567.04,-24.52"/>
<polygon fill="midnightblue" stroke="midnightblue" points="568.49,-21.33 558.03,-19.65 565.16,-27.49 568.49,-21.33"/>
</g>
<!-- Node10&#45;&gt;Node7 -->
<g id="edge12" class="edge">
<title>Node10&#45;&gt;Node7</title>
<path fill="none" stroke="midnightblue" d="M537.62,-173.98C558.17,-164.03 592.36,-147.49 616.21,-135.96"/>
<polygon fill="midnightblue" stroke="midnightblue" points="617.93,-139.01 625.41,-131.51 614.88,-132.71 617.93,-139.01"/>
</g>
<!-- Node10&#45;&gt;Node9 -->
<g id="edge17" class="edge">
<title>Node10&#45;&gt;Node9</title>
<path fill="none" stroke="midnightblue" d="M500.01,-174C476.03,-162.39 440.32,-139.82 451,-112 465.12,-75.24 499.49,-43.49 521.72,-25.84"/>
<polygon fill="midnightblue" stroke="midnightblue" points="524.06,-28.45 529.85,-19.58 519.79,-22.9 524.06,-28.45"/>
</g>
<!-- Node10&#45;&gt;Node11 -->
<g id="edge13" class="edge">
<title>Node10&#45;&gt;Node11</title>
<path fill="none" stroke="midnightblue" d="M517.56,-173.98C515.14,-165.49 511.34,-152.2 508.23,-141.32"/>
<polygon fill="midnightblue" stroke="midnightblue" points="511.54,-140.16 505.43,-131.51 504.81,-142.09 511.54,-140.16"/>
</g>
<!-- Node11&#45;&gt;Node9 -->
<g id="edge14" class="edge">
<title>Node11&#45;&gt;Node9</title>
<path fill="none" stroke="midnightblue" d="M506.06,-112.37C512.38,-94.54 527,-53.3 535.52,-29.27"/>
<polygon fill="midnightblue" stroke="midnightblue" points="538.91,-30.19 538.95,-19.59 532.31,-27.85 538.91,-30.19"/>
</g>
<!-- Node12 -->
<g id="node12" class="node">
<title>Node12</title>
<g id="a_node12"><a xlink:href="dvd_8h.html" target="_top" xlink:title=" ">
<polygon fill="white" stroke="black" points="274,-56.5 274,-75.5 366,-75.5 366,-56.5 274,-56.5"/>
<text text-anchor="middle" x="320" y="-63.5" font-family="Helvetica,sans-Serif" font-size="10.00">dolphin/dvd/dvd.h</text>
</a>
</g>
</g>
<!-- Node11&#45;&gt;Node12 -->
<g id="edge15" class="edge">
<title>Node11&#45;&gt;Node12</title>
<path fill="none" stroke="midnightblue" d="M474,-112.44C442.82,-103.24 393.07,-88.56 358.59,-78.39"/>
<polygon fill="midnightblue" stroke="midnightblue" points="359.44,-74.99 348.86,-75.52 357.46,-81.7 359.44,-74.99"/>
</g>
<!-- Node12&#45;&gt;Node9 -->
<g id="edge16" class="edge">
<title>Node12&#45;&gt;Node9</title>
<path fill="none" stroke="midnightblue" d="M355.18,-56.44C393.58,-47.1 455.18,-32.12 497.06,-21.93"/>
<polygon fill="midnightblue" stroke="midnightblue" points="498.1,-25.28 506.99,-19.52 496.44,-18.48 498.1,-25.28"/>
</g>
<!-- Node13&#45;&gt;Node9 -->
<g id="edge28" class="edge">
<title>Node13&#45;&gt;Node9</title>
<path fill="none" stroke="midnightblue" d="M352.92,-235.48C292.21,-226.26 205.96,-211.23 196,-199 187.3,-188.31 193.33,-181.52 196,-168 206.78,-113.4 205.95,-87.25 252,-56 290.03,-30.2 418.44,-18.42 490.99,-13.71"/>
<polygon fill="midnightblue" stroke="midnightblue" points="491.51,-17.18 501.27,-13.06 491.07,-10.19 491.51,-17.18"/>
</g>
<!-- Node13&#45;&gt;Node11 -->
<g id="edge27" class="edge">
<title>Node13&#45;&gt;Node11</title>
<path fill="none" stroke="midnightblue" d="M414.2,-235.2C416.62,-220.13 423.26,-188.97 439,-168 448.78,-154.97 463.43,-144.28 476.25,-136.59"/>
<polygon fill="midnightblue" stroke="midnightblue" points="478.2,-139.51 485.17,-131.53 474.75,-133.42 478.2,-139.51"/>
</g>
<!-- Node13&#45;&gt;Node12 -->
<g id="edge26" class="edge">
<title>Node13&#45;&gt;Node12</title>
<path fill="none" stroke="midnightblue" d="M358.07,-235.49C300.91,-226.08 218.4,-210.7 209,-199 173.53,-154.86 251.05,-103.89 293.97,-80.28"/>
<polygon fill="midnightblue" stroke="midnightblue" points="295.65,-83.35 302.8,-75.54 292.34,-77.19 295.65,-83.35"/>
</g>
<!-- Node14 -->
<g id="node14" class="node">
<title>Node14</title>
<g id="a_node14"><a xlink:href="JKRFile_8h.html" target="_top" xlink:title=" ">
<polygon fill="white" stroke="black" points="218,-174 218,-193 354,-193 354,-174 218,-174"/>
<text text-anchor="middle" x="286" y="-181" font-family="Helvetica,sans-Serif" font-size="10.00">JSystem/JKernel/JKRFile.h</text>
</a>
</g>
</g>
<!-- Node13&#45;&gt;Node14 -->
<g id="edge23" class="edge">
<title>Node13&#45;&gt;Node14</title>
<path fill="none" stroke="midnightblue" d="M394.8,-235.48C373.49,-225.49 337.97,-208.85 313.34,-197.31"/>
<polygon fill="midnightblue" stroke="midnightblue" points="314.7,-194.08 304.16,-193.01 311.73,-200.42 314.7,-194.08"/>
</g>
<!-- Node14&#45;&gt;Node7 -->
<g id="edge24" class="edge">
<title>Node14&#45;&gt;Node7</title>
<path fill="none" stroke="midnightblue" d="M337.15,-173.98C401.83,-163.19 513.07,-144.65 582.08,-133.15"/>
<polygon fill="midnightblue" stroke="midnightblue" points="582.66,-136.61 591.95,-131.51 581.51,-129.7 582.66,-136.61"/>
</g>
<!-- Node14&#45;&gt;Node9 -->
<g id="edge25" class="edge">
<title>Node14&#45;&gt;Node9</title>
<path fill="none" stroke="midnightblue" d="M280.51,-173.91C266.99,-151.56 235.29,-90.93 265,-56 293.47,-22.53 419.34,-13.89 491.22,-11.7"/>
<polygon fill="midnightblue" stroke="midnightblue" points="491.52,-15.19 501.42,-11.42 491.32,-8.19 491.52,-15.19"/>
</g>
<!-- Node15&#45;&gt;Node7 -->
<g id="edge30" class="edge">
<title>Node15&#45;&gt;Node7</title>
<path fill="none" stroke="midnightblue" d="M816.06,-173.98C780.73,-163.57 720.87,-145.94 681.64,-134.38"/>
<polygon fill="midnightblue" stroke="midnightblue" points="682.47,-130.98 671.89,-131.51 680.49,-137.69 682.47,-130.98"/>
</g>
<!-- Node15&#45;&gt;Node8 -->
<g id="edge31" class="edge">
<title>Node15&#45;&gt;Node8</title>
<path fill="none" stroke="midnightblue" d="M836.84,-173.53C823.08,-158.88 793.83,-129.67 764,-112 739.16,-97.29 708.69,-86.04 684.42,-78.48"/>
<polygon fill="midnightblue" stroke="midnightblue" points="685.36,-75.1 674.77,-75.56 683.33,-81.8 685.36,-75.1"/>
</g>
<!-- Node15&#45;&gt;Node9 -->
<g id="edge32" class="edge">
<title>Node15&#45;&gt;Node9</title>
<path fill="none" stroke="midnightblue" d="M839.72,-173.84C824.8,-150.21 779.69,-84.53 723,-56 681.76,-35.24 630.3,-23.65 592.81,-17.45"/>
<polygon fill="midnightblue" stroke="midnightblue" points="593.05,-13.94 582.62,-15.84 591.96,-20.86 593.05,-13.94"/>
</g>
<!-- Node16&#45;&gt;Node9 -->
<g id="edge35" class="edge">
<title>Node16&#45;&gt;Node9</title>
<path fill="none" stroke="midnightblue" d="M97.83,-291.44C91.11,-272.47 76,-225.33 76,-184.5 76,-184.5 76,-184.5 76,-121 76,-78.22 108.07,-73.73 147,-56 207.18,-28.59 398.57,-17 491.03,-12.91"/>
<polygon fill="midnightblue" stroke="midnightblue" points="491.43,-16.39 501.27,-12.47 491.13,-9.4 491.43,-16.39"/>
</g>
<!-- Node17&#45;&gt;Node5 -->
<g id="edge38" class="edge">
<title>Node17&#45;&gt;Node5</title>
<path fill="none" stroke="midnightblue" d="M231,-347.08C231,-340.01 231,-329.86 231,-320.99"/>
<polygon fill="midnightblue" stroke="midnightblue" points="234.5,-320.75 231,-310.75 227.5,-320.75 234.5,-320.75"/>
</g>
<!-- Node17&#45;&gt;Node9 -->
<g id="edge39" class="edge">
<title>Node17&#45;&gt;Node9</title>
<path fill="none" stroke="midnightblue" d="M148.32,-347.85C119.92,-341.53 89.62,-330.43 67,-311 43,-290.39 38,-277.63 38,-246 38,-246 38,-246 38,-121 38,-81.08 64.14,-73.55 100,-56 167.75,-22.84 389.96,-14.08 491.08,-11.79"/>
<polygon fill="midnightblue" stroke="midnightblue" points="491.42,-15.29 501.35,-11.58 491.27,-8.29 491.42,-15.29"/>
</g>
<!-- Node18&#45;&gt;Node6 -->
<g id="edge42" class="edge">
<title>Node18&#45;&gt;Node6</title>
<path fill="none" stroke="midnightblue" d="M998.14,-291.44C925.93,-281.77 808.52,-266.04 732.53,-255.85"/>
<polygon fill="midnightblue" stroke="midnightblue" points="732.93,-252.38 722.56,-254.52 732,-259.31 732.93,-252.38"/>
</g>
<!-- Node18&#45;&gt;Node9 -->
<g id="edge57" class="edge">
<title>Node18&#45;&gt;Node9</title>
<path fill="none" stroke="midnightblue" d="M1082.46,-291.46C1116.48,-275.74 1181,-238.77 1181,-184.5 1181,-184.5 1181,-184.5 1181,-121 1181,-90.9 1185.41,-74.91 1162,-56 1118.13,-20.56 732.58,-12.99 592.55,-11.41"/>
<polygon fill="midnightblue" stroke="midnightblue" points="592.54,-7.91 582.5,-11.3 592.47,-14.91 592.54,-7.91"/>
</g>
<!-- Node18&#45;&gt;Node11 -->
<g id="edge56" class="edge">
<title>Node18&#45;&gt;Node11</title>
<path fill="none" stroke="midnightblue" d="M1035.04,-291.46C943.54,-262.49 644.77,-167.89 539.84,-134.67"/>
<polygon fill="midnightblue" stroke="midnightblue" points="540.61,-131.24 530.02,-131.55 538.49,-137.91 540.61,-131.24"/>
</g>
<!-- Node19 -->
<g id="node19" class="node">
<title>Node19</title>
<g id="a_node19"><a xlink:href="JUTGamePad_8h.html" target="_top" xlink:title=" ">
<polygon fill="white" stroke="black" points="946,-168.5 946,-198.5 1082,-198.5 1082,-168.5 946,-168.5"/>
<text text-anchor="start" x="954" y="-186.5" font-family="Helvetica,sans-Serif" font-size="10.00">JSystem/JUtility/JUTGame</text>
<text text-anchor="middle" x="1014" y="-175.5" font-family="Helvetica,sans-Serif" font-size="10.00">Pad.h</text>
</a>
</g>
</g>
<!-- Node18&#45;&gt;Node19 -->
<g id="edge43" class="edge">
<title>Node18&#45;&gt;Node19</title>
<path fill="none" stroke="midnightblue" d="M1058.39,-291.32C1051.12,-273.81 1034.47,-233.75 1023.75,-207.97"/>
<polygon fill="midnightblue" stroke="midnightblue" points="1026.91,-206.44 1019.84,-198.55 1020.44,-209.12 1026.91,-206.44"/>
</g>
<!-- Node21 -->
<g id="node21" class="node">
<title>Node21</title>
<g id="a_node21"><a xlink:href="GX_8h.html" target="_top" xlink:title=" ">
<polygon fill="white" stroke="black" points="1046.5,-112.5 1046.5,-131.5 1131.5,-131.5 1131.5,-112.5 1046.5,-112.5"/>
<text text-anchor="middle" x="1089" y="-119.5" font-family="Helvetica,sans-Serif" font-size="10.00">dolphin/gx/GX.h</text>
</a>
</g>
</g>
<!-- Node18&#45;&gt;Node21 -->
<g id="edge50" class="edge">
<title>Node18&#45;&gt;Node21</title>
<path fill="none" stroke="midnightblue" d="M1065.41,-291.26C1071.96,-273.98 1086.07,-234.05 1091,-199 1092.92,-185.36 1091.31,-181.77 1091,-168 1090.81,-159.39 1090.41,-149.86 1090.02,-141.8"/>
<polygon fill="midnightblue" stroke="midnightblue" points="1093.51,-141.43 1089.5,-131.62 1086.52,-141.79 1093.51,-141.43"/>
</g>
<!-- Node19&#45;&gt;Node7 -->
<g id="edge44" class="edge">
<title>Node19&#45;&gt;Node7</title>
<path fill="none" stroke="midnightblue" d="M945.59,-169.49C942.69,-168.98 939.82,-168.48 937,-168 860.49,-154.95 772.48,-141.71 712.84,-133"/>
<polygon fill="midnightblue" stroke="midnightblue" points="713.18,-129.52 702.78,-131.54 712.18,-136.44 713.18,-129.52"/>
</g>
<!-- Node19&#45;&gt;Node8 -->
<g id="edge45" class="edge">
<title>Node19&#45;&gt;Node8</title>
<path fill="none" stroke="midnightblue" d="M970.05,-168.42C925.11,-154.07 853.26,-131.24 791,-112 753.42,-100.39 710.41,-87.43 680.29,-78.42"/>
<polygon fill="midnightblue" stroke="midnightblue" points="681.18,-75.03 670.6,-75.52 679.18,-81.74 681.18,-75.03"/>
</g>
<!-- Node19&#45;&gt;Node9 -->
<g id="edge49" class="edge">
<title>Node19&#45;&gt;Node9</title>
<path fill="none" stroke="midnightblue" d="M1014.27,-168.45C1013.77,-152.47 1010.4,-126.71 995,-112 941.35,-60.76 901.67,-101.5 832,-76 814.08,-69.44 812.05,-62.2 794,-56 726.56,-32.85 644.66,-21.04 592.93,-15.45"/>
<polygon fill="midnightblue" stroke="midnightblue" points="592.99,-11.94 582.68,-14.39 592.26,-18.9 592.99,-11.94"/>
</g>
<!-- Node19&#45;&gt;Node11 -->
<g id="edge46" class="edge">
<title>Node19&#45;&gt;Node11</title>
<path fill="none" stroke="midnightblue" d="M945.62,-169.28C942.71,-168.83 939.83,-168.4 937,-168 771.36,-144.65 725.76,-154.18 556.11,-132.05"/>
<polygon fill="midnightblue" stroke="midnightblue" points="556.46,-128.56 546.09,-130.72 555.55,-135.5 556.46,-128.56"/>
</g>
<!-- Node20 -->
<g id="node20" class="node">
<title>Node20</title>
<g id="a_node20"><a xlink:href="Pad_8h.html" target="_top" xlink:title=" ">
<polygon fill="white" stroke="black" points="892,-112.5 892,-131.5 986,-131.5 986,-112.5 892,-112.5"/>
<text text-anchor="middle" x="939" y="-119.5" font-family="Helvetica,sans-Serif" font-size="10.00">dolphin/pad/Pad.h</text>
</a>
</g>
</g>
<!-- Node19&#45;&gt;Node20 -->
<g id="edge47" class="edge">
<title>Node19&#45;&gt;Node20</title>
<path fill="none" stroke="midnightblue" d="M996.23,-168.4C984.65,-159.22 969.58,-147.26 957.8,-137.92"/>
<polygon fill="midnightblue" stroke="midnightblue" points="959.92,-135.13 949.91,-131.66 955.57,-140.61 959.92,-135.13"/>
</g>
<!-- Node20&#45;&gt;Node9 -->
<g id="edge48" class="edge">
<title>Node20&#45;&gt;Node9</title>
<path fill="none" stroke="midnightblue" d="M911.39,-112.45C883.96,-103.8 840.79,-89.77 804,-76 782.36,-67.9 778.07,-62.85 756,-56 701.29,-39.01 636.72,-26.42 592.92,-18.94"/>
<polygon fill="midnightblue" stroke="midnightblue" points="593.25,-15.44 582.81,-17.24 592.09,-22.35 593.25,-15.44"/>
</g>
<!-- Node21&#45;&gt;Node9 -->
<g id="edge55" class="edge">
<title>Node21&#45;&gt;Node9</title>
<path fill="none" stroke="midnightblue" d="M1046.25,-114.79C1002.72,-107.81 933.63,-94.93 876,-76 855.59,-69.3 852.58,-62.15 832,-56 750.26,-31.58 651.38,-19.85 592.75,-14.66"/>
<polygon fill="midnightblue" stroke="midnightblue" points="592.9,-11.16 582.64,-13.8 592.3,-18.14 592.9,-11.16"/>
</g>
<!-- Node22 -->
<g id="node22" class="node">
<title>Node22</title>
<g id="a_node22"><a xlink:href="GXDisplayList_8h.html" target="_top" xlink:title=" ">
<polygon fill="white" stroke="black" points="884.5,-56.5 884.5,-75.5 1017.5,-75.5 1017.5,-56.5 884.5,-56.5"/>
<text text-anchor="middle" x="951" y="-63.5" font-family="Helvetica,sans-Serif" font-size="10.00">dolphin/gx/GXDisplayList.h</text>
</a>
</g>
</g>
<!-- Node21&#45;&gt;Node22 -->
<g id="edge51" class="edge">
<title>Node21&#45;&gt;Node22</title>
<path fill="none" stroke="midnightblue" d="M1067.13,-112.44C1044.22,-103.48 1008.02,-89.31 982.13,-79.18"/>
<polygon fill="midnightblue" stroke="midnightblue" points="983.35,-75.9 972.76,-75.52 980.8,-82.42 983.35,-75.9"/>
</g>
<!-- Node23 -->
<g id="node23" class="node">
<title>Node23</title>
<g id="a_node23"><a xlink:href="GXTexture_8h.html" target="_top" xlink:title=" ">
<polygon fill="white" stroke="black" points="1035.5,-56.5 1035.5,-75.5 1152.5,-75.5 1152.5,-56.5 1035.5,-56.5"/>
<text text-anchor="middle" x="1094" y="-63.5" font-family="Helvetica,sans-Serif" font-size="10.00">dolphin/gx/GXTexture.h</text>
</a>
</g>
</g>
<!-- Node21&#45;&gt;Node23 -->
<g id="edge53" class="edge">
<title>Node21&#45;&gt;Node23</title>
<path fill="none" stroke="midnightblue" d="M1089.83,-112.08C1090.48,-105.01 1091.42,-94.86 1092.24,-85.99"/>
<polygon fill="midnightblue" stroke="midnightblue" points="1095.75,-86.03 1093.19,-75.75 1088.78,-85.39 1095.75,-86.03"/>
</g>
<!-- Node22&#45;&gt;Node9 -->
<g id="edge52" class="edge">
<title>Node22&#45;&gt;Node9</title>
<path fill="none" stroke="midnightblue" d="M886.19,-56.44C804.77,-45.69 666.74,-27.47 592.63,-17.68"/>
<polygon fill="midnightblue" stroke="midnightblue" points="592.98,-14.2 582.61,-16.36 592.07,-21.14 592.98,-14.2"/>
</g>
<!-- Node23&#45;&gt;Node9 -->
<g id="edge54" class="edge">
<title>Node23&#45;&gt;Node9</title>
<path fill="none" stroke="midnightblue" d="M1035.19,-56.96C1032.42,-56.63 1029.68,-56.3 1027,-56 868.79,-38.04 680.93,-22.16 592.63,-15.01"/>
<polygon fill="midnightblue" stroke="midnightblue" points="592.87,-11.52 582.62,-14.2 592.3,-18.49 592.87,-11.52"/>
</g>
<!-- Node25&#45;&gt;Node9 -->
<g id="edge61" class="edge">
<title>Node25&#45;&gt;Node9</title>
<path fill="none" stroke="midnightblue" d="M1257,-347.44C1257,-328.94 1257,-283.81 1257,-246 1257,-246 1257,-246 1257,-121 1257,-90.2 1257.68,-74.42 1233,-56 1182.07,-18 743.95,-12.07 592.92,-11.16"/>
<polygon fill="midnightblue" stroke="midnightblue" points="592.57,-7.66 582.55,-11.1 592.53,-14.66 592.57,-7.66"/>
</g>
</g>
</svg>
        <g id="navigator" transform="translate(0 0)" fill="#404254">
                <rect fill="#f2f5e9" fill-opacity="0.5" stroke="#606060" stroke-width=".5" x="0" y="0" width="60" height="60"/>
                <use id="zoomplus" xlink:href="#zoomPlus" x="17" y="9" onmousedown="handleZoom(evt,'in')"/>
                <use id="zoomminus" xlink:href="#zoomMin" x="42" y="9" onmousedown="handleZoom(evt,'out')"/>
                <use id="reset" xlink:href="#resetDef" x="30" y="36" onmousedown="handleReset()"/>
                <g id="arrowUp" xlink:href="#dirArrow" transform="translate(30 24)" onmousedown="handlePan(0,-1)">
                  <use xlink:href="#rim" fill="#404040">
                        <set attributeName="fill" to="#808080" begin="arrowUp.mouseover" end="arrowUp.mouseout"/>
                  </use>
                  <path fill="none" stroke="white" stroke-width="1.5" d="M0,-3.0v7 M-2.5,-0.5L0,-3.0L2.5,-0.5"/>
                </g>
                <g id="arrowRight" xlink:href="#dirArrow" transform="rotate(90) translate(36 -43)" onmousedown="handlePan(1,0)">
                  <use xlink:href="#rim" fill="#404040">
                        <set attributeName="fill" to="#808080" begin="arrowRight.mouseover" end="arrowRight.mouseout"/>
                  </use>
                  <path fill="none" stroke="white" stroke-width="1.5" d="M0,-3.0v7 M-2.5,-0.5L0,-3.0L2.5,-0.5"/>
                </g>
                <g id="arrowDown" xlink:href="#dirArrow" transform="rotate(180) translate(-30 -48)" onmousedown="handlePan(0,1)">
                  <use xlink:href="#rim" fill="#404040">
                        <set attributeName="fill" to="#808080" begin="arrowDown.mouseover" end="arrowDown.mouseout"/>
                  </use>
                  <path fill="none" stroke="white" stroke-width="1.5" d="M0,-3.0v7 M-2.5,-0.5L0,-3.0L2.5,-0.5"/>
                </g>
                <g id="arrowLeft" xlink:href="#dirArrow" transform="rotate(270) translate(-36 17)" onmousedown="handlePan(-1,0)">
                  <use xlink:href="#rim" fill="#404040">
                        <set attributeName="fill" to="#808080" begin="arrowLeft.mouseover" end="arrowLeft.mouseout"/>
                  </use>
                  <path fill="none" stroke="white" stroke-width="1.5" d="M0,-3.0v7 M-2.5,-0.5L0,-3.0L2.5,-0.5"/>
                </g>
        </g>
        <svg viewBox="0 0 15 15" width="100%" height="30px" preserveAspectRatio="xMaxYMin meet">
         <g id="arrow_out" transform="scale(0.3 0.3)">
          <a xlink:href="JKRMemArchive_8cpp__incl_org.svg" target="_base">
           <rect id="button" ry="5" rx="5" y="6" x="6" height="38" width="38"
                fill="#f2f5e9" fill-opacity="0.5" stroke="#606060" stroke-width="1.0"/>
           <path id="arrow"
             d="M 11.500037,31.436501 C 11.940474,20.09759 22.043105,11.32322 32.158766,21.979434 L 37.068811,17.246167 C 37.068811,17.246167 37.088388,32 37.088388,32 L 22.160133,31.978069 C 22.160133,31.978069 26.997745,27.140456 26.997745,27.140456 C 18.528582,18.264221 13.291696,25.230495 11.500037,31.436501 z"
             style="fill:#404040;"/>
          </a>
         </g>
        </svg>
</svg>
