<?xml version="1.0" encoding="UTF-8" standalone="no"?>
<!DOCTYPE svg PUBLIC "-//W3C//DTD SVG 1.1//EN"
 "http://www.w3.org/Graphics/SVG/1.1/DTD/svg11.dtd">
<!-- Generated by graphviz version 2.44.0 ()
 -->
<!-- Title: libs/JSystem/JKernel/JKRMemArchive.cpp Pages: 1 -->
<!--zoomable 464 -->
<svg id="main" version="1.1" xmlns="http://www.w3.org/2000/svg" xmlns:xlink="http://www.w3.org/1999/xlink" xml:space="preserve" onload="init(evt)">
<style type="text/css"><![CDATA[
.edge:hover path { stroke: red; }
.edge:hover polygon { stroke: red; fill: red; }
]]></style>
<script type="text/javascript"><![CDATA[
var edges = document.getElementsByTagName('g');
if (edges && edges.length) {
  for (var i=0;i<edges.length;i++) {
    if (edges[i].id.substr(0,4)=='edge') {
      edges[i].setAttribute('class','edge');
    }
  }
}
]]></script>
        <defs>
                <circle id="rim" cx="0" cy="0" r="7"/>
                <circle id="rim2" cx="0" cy="0" r="3.5"/>
                <g id="zoomPlus">
                        <use xlink:href="#rim" fill="#404040">
                                <set attributeName="fill" to="#808080" begin="zoomplus.mouseover" end="zoomplus.mouseout"/>
                        </use>
                        <path d="M-4,0h8M0,-4v8" fill="none" stroke="white" stroke-width="1.5" pointer-events="none"/>
                </g>
                <g id="zoomMin">
                        <use xlink:href="#rim" fill="#404040">
                                <set attributeName="fill" to="#808080" begin="zoomminus.mouseover" end="zoomminus.mouseout"/>
                        </use>
                        <path d="M-4,0h8" fill="none" stroke="white" stroke-width="1.5" pointer-events="none"/>
                </g>
                <g id="dirArrow">
                        <path fill="none" stroke="white" stroke-width="1.5" d="M0,-3.0v7 M-2.5,-0.5L0,-3.0L2.5,-0.5"/>
                </g>
               <g id="resetDef">
                       <use xlink:href="#rim2" fill="#404040">
                               <set attributeName="fill" to="#808080" begin="reset.mouseover" end="reset.mouseout"/>
                       </use>
               </g>
        </defs>

<script type="text/javascript">
var viewWidth = 1733;
var viewHeight = 464;
var sectionId = 'dynsection-0';
</script>
<script xlink:href="svgpan.js"/>
<svg id="graph" class="graph">
<g id="viewport">
<title>libs/JSystem/JKernel/JKRMemArchive.cpp</title>
<polygon fill="white" stroke="transparent" points="-4,4 -4,-460 1729,-460 1729,4 -4,4"/>
<!-- Node1 -->
<g id="node1" class="node">
<title>Node1</title>
<g id="a_node1"><a xlink:title=" ">
<polygon fill="#bfbfbf" stroke="black" points="1110.5,-425.5 1110.5,-455.5 1221.5,-455.5 1221.5,-425.5 1110.5,-425.5"/>
<text text-anchor="start" x="1118.5" y="-443.5" font-family="Helvetica,sans-Serif" font-size="10.00">libs/JSystem/JKernel</text>
<text text-anchor="middle" x="1166" y="-432.5" font-family="Helvetica,sans-Serif" font-size="10.00">/JKRMemArchive.cpp</text>
</a>
</g>
</g>
<!-- Node2 -->
<g id="node2" class="node">
<title>Node2</title>
<g id="a_node2"><a xlink:href="JKRMemArchive_8h.html" target="_top" xlink:title=" ">
<polygon fill="white" stroke="black" points="420.5,-353 420.5,-372 595.5,-372 595.5,-353 420.5,-353"/>
<text text-anchor="middle" x="508" y="-360" font-family="Helvetica,sans-Serif" font-size="10.00">JSystem/JKernel/JKRMemArchive.h</text>
</a>
</g>
</g>
<!-- Node1&#45;&gt;Node2 -->
<g id="edge1" class="edge">
<title>Node1&#45;&gt;Node2</title>
<path fill="none" stroke="midnightblue" d="M1110.47,-433.09C994.92,-419.74 728.08,-388.92 591.64,-373.16"/>
<polygon fill="midnightblue" stroke="midnightblue" points="591.98,-369.68 581.64,-372.01 591.18,-376.63 591.98,-369.68"/>
</g>
<!-- Node9 -->
<g id="node9" class="node">
<title>Node9</title>
<g id="a_node9"><a xlink:href="types_8h.html" target="_top" xlink:title=" ">
<polygon fill="white" stroke="black" points="818.5,-0.5 818.5,-19.5 899.5,-19.5 899.5,-0.5 818.5,-0.5"/>
<text text-anchor="middle" x="859" y="-7.5" font-family="Helvetica,sans-Serif" font-size="10.00">dolphin/types.h</text>
</a>
</g>
</g>
<!-- Node1&#45;&gt;Node9 -->
<g id="edge50" class="edge">
<title>Node1&#45;&gt;Node9</title>
<path fill="none" stroke="midnightblue" d="M1159.89,-425.47C1149.15,-399.47 1128,-341.83 1128,-291 1128,-291 1128,-291 1128,-121 1128,-74.34 987.6,-37.69 909.66,-20.94"/>
<polygon fill="midnightblue" stroke="midnightblue" points="910.07,-17.44 899.56,-18.8 908.62,-24.29 910.07,-17.44"/>
</g>
<!-- Node15 -->
<g id="node15" class="node">
<title>Node15</title>
<g id="a_node15"><a xlink:href="JKRHeap_8h.html" target="_top" xlink:title=" ">
<polygon fill="white" stroke="black" points="880.5,-168.5 880.5,-187.5 1023.5,-187.5 1023.5,-168.5 880.5,-168.5"/>
<text text-anchor="middle" x="952" y="-175.5" font-family="Helvetica,sans-Serif" font-size="10.00">JSystem/JKernel/JKRHeap.h</text>
</a>
</g>
</g>
<!-- Node1&#45;&gt;Node15 -->
<g id="edge39" class="edge">
<title>Node1&#45;&gt;Node15</title>
<path fill="none" stroke="midnightblue" d="M1147.7,-425.16C1136.75,-415.82 1123.21,-402.82 1114,-389 1085.12,-345.67 1101.32,-322.34 1071,-280 1044.33,-242.75 1000.98,-210.65 974.62,-193.14"/>
<polygon fill="midnightblue" stroke="midnightblue" points="976.35,-190.09 966.06,-187.58 972.53,-195.96 976.35,-190.09"/>
</g>
<!-- Node17 -->
<g id="node17" class="node">
<title>Node17</title>
<g id="a_node17"><a xlink:href="JKRDvdRipper_8h.html" target="_top" xlink:title=" ">
<polygon fill="white" stroke="black" points="896.5,-280.5 896.5,-299.5 1061.5,-299.5 1061.5,-280.5 896.5,-280.5"/>
<text text-anchor="middle" x="979" y="-287.5" font-family="Helvetica,sans-Serif" font-size="10.00">JSystem/JKernel/JKRDvdRipper.h</text>
</a>
</g>
</g>
<!-- Node1&#45;&gt;Node17 -->
<g id="edge36" class="edge">
<title>Node1&#45;&gt;Node17</title>
<path fill="none" stroke="midnightblue" d="M1135.94,-425.31C1117.8,-416.11 1094.67,-403.22 1076,-389 1043.17,-364 1010.58,-328.23 992.78,-307.54"/>
<polygon fill="midnightblue" stroke="midnightblue" points="995.24,-305.03 986.1,-299.66 989.9,-309.55 995.24,-305.03"/>
</g>
<!-- Node18 -->
<g id="node18" class="node">
<title>Node18</title>
<g id="a_node18"><a xlink:href="JUTException_8h.html" target="_top" xlink:title=" ">
<polygon fill="white" stroke="black" points="1155.5,-168.5 1155.5,-187.5 1314.5,-187.5 1314.5,-168.5 1155.5,-168.5"/>
<text text-anchor="middle" x="1235" y="-175.5" font-family="Helvetica,sans-Serif" font-size="10.00">JSystem/JUtility/JUTException.h</text>
</a>
</g>
</g>
<!-- Node1&#45;&gt;Node18 -->
<g id="edge40" class="edge">
<title>Node1&#45;&gt;Node18</title>
<path fill="none" stroke="midnightblue" d="M1167.21,-425.28C1169.11,-405.18 1173.39,-367.41 1181,-336 1193.45,-284.58 1215.81,-226.18 1227.47,-197.25"/>
<polygon fill="midnightblue" stroke="midnightblue" points="1230.83,-198.26 1231.37,-187.68 1224.35,-195.62 1230.83,-198.26"/>
</g>
<!-- Node22 -->
<g id="node22" class="node">
<title>Node22</title>
<g id="a_node22"><a xlink:href="dol2asm_8h.html" target="_top" xlink:title=" ">
<polygon fill="white" stroke="black" points="1232.5,-353 1232.5,-372 1293.5,-372 1293.5,-353 1232.5,-353"/>
<text text-anchor="middle" x="1263" y="-360" font-family="Helvetica,sans-Serif" font-size="10.00">dol2asm.h</text>
</a>
</g>
</g>
<!-- Node1&#45;&gt;Node22 -->
<g id="edge49" class="edge">
<title>Node1&#45;&gt;Node22</title>
<path fill="none" stroke="midnightblue" d="M1184.24,-425.2C1201.26,-411.88 1226.54,-392.07 1243.84,-378.51"/>
<polygon fill="midnightblue" stroke="midnightblue" points="1246.36,-380.99 1252.07,-372.06 1242.04,-375.48 1246.36,-380.99"/>
</g>
<!-- Node23 -->
<g id="node23" class="node">
<title>Node23</title>
<g id="a_node23"><a xlink:href="msl__c_2string_8h.html" target="_top" xlink:title=" ">
<polygon fill="white" stroke="black" points="1342.5,-280.5 1342.5,-299.5 1419.5,-299.5 1419.5,-280.5 1342.5,-280.5"/>
<text text-anchor="middle" x="1381" y="-287.5" font-family="Helvetica,sans-Serif" font-size="10.00">msl_c/string.h</text>
</a>
</g>
</g>
<!-- Node1&#45;&gt;Node23 -->
<g id="edge51" class="edge">
<title>Node1&#45;&gt;Node23</title>
<path fill="none" stroke="midnightblue" d="M1170.01,-425.49C1177.14,-403.17 1194.12,-359.65 1224,-336 1255.03,-311.44 1298.89,-300.28 1332.36,-295.22"/>
<polygon fill="midnightblue" stroke="midnightblue" points="1332.97,-298.67 1342.39,-293.83 1332.01,-291.73 1332.97,-298.67"/>
</g>
<!-- Node24 -->
<g id="node24" class="node">
<title>Node24</title>
<g id="a_node24"><a xlink:title=" ">
<polygon fill="white" stroke="#bfbfbf" points="1311.5,-336.5 1311.5,-388.5 1516.5,-388.5 1516.5,-336.5 1311.5,-336.5"/>
<text text-anchor="start" x="1319.5" y="-376.5" font-family="Helvetica,sans-Serif" font-size="10.00">asm/JSystem/JKernel</text>
<text text-anchor="start" x="1319.5" y="-365.5" font-family="Helvetica,sans-Serif" font-size="10.00">/JKRMemArchive/open</text>
<text text-anchor="start" x="1319.5" y="-354.5" font-family="Helvetica,sans-Serif" font-size="10.00">__13JKRMemArchiveFlQ210JKRArchive15</text>
<text text-anchor="middle" x="1414" y="-343.5" font-family="Helvetica,sans-Serif" font-size="10.00">EMountDirection.s</text>
</a>
</g>
</g>
<!-- Node1&#45;&gt;Node24 -->
<g id="edge53" class="edge">
<title>Node1&#45;&gt;Node24</title>
<path fill="none" stroke="midnightblue" d="M1211.78,-425.47C1242.74,-415.98 1284.7,-403.12 1322.37,-391.58"/>
<polygon fill="midnightblue" stroke="midnightblue" points="1323.82,-394.8 1332.36,-388.52 1321.77,-388.1 1323.82,-394.8"/>
</g>
<!-- Node25 -->
<g id="node25" class="node">
<title>Node25</title>
<g id="a_node25"><a xlink:title=" ">
<polygon fill="white" stroke="#bfbfbf" points="1535,-336.5 1535,-388.5 1725,-388.5 1725,-336.5 1535,-336.5"/>
<text text-anchor="start" x="1543" y="-376.5" font-family="Helvetica,sans-Serif" font-size="10.00">asm/JSystem/JKernel</text>
<text text-anchor="start" x="1543" y="-365.5" font-family="Helvetica,sans-Serif" font-size="10.00">/JKRMemArchive/open</text>
<text text-anchor="start" x="1543" y="-354.5" font-family="Helvetica,sans-Serif" font-size="10.00">__13JKRMemArchiveFPvUl15JKRMem</text>
<text text-anchor="middle" x="1630" y="-343.5" font-family="Helvetica,sans-Serif" font-size="10.00">BreakFlag.s</text>
</a>
</g>
</g>
<!-- Node1&#45;&gt;Node25 -->
<g id="edge54" class="edge">
<title>Node1&#45;&gt;Node25</title>
<path fill="none" stroke="midnightblue" d="M1221.79,-433.45C1290.79,-425.57 1411.98,-410.44 1525.01,-389.11"/>
<polygon fill="midnightblue" stroke="midnightblue" points="1525.7,-392.54 1534.87,-387.23 1524.39,-385.67 1525.7,-392.54"/>
</g>
<!-- Node3 -->
<g id="node3" class="node">
<title>Node3</title>
<g id="a_node3"><a xlink:href="JKRArchive_8h.html" target="_top" xlink:title=" ">
<polygon fill="white" stroke="black" points="431.5,-280.5 431.5,-299.5 584.5,-299.5 584.5,-280.5 431.5,-280.5"/>
<text text-anchor="middle" x="508" y="-287.5" font-family="Helvetica,sans-Serif" font-size="10.00">JSystem/JKernel/JKRArchive.h</text>
</a>
</g>
</g>
<!-- Node2&#45;&gt;Node3 -->
<g id="edge2" class="edge">
<title>Node2&#45;&gt;Node3</title>
<path fill="none" stroke="midnightblue" d="M508,-352.86C508,-342.18 508,-323.72 508,-309.73"/>
<polygon fill="midnightblue" stroke="midnightblue" points="511.5,-309.72 508,-299.72 504.5,-309.72 511.5,-309.72"/>
</g>
<!-- Node2&#45;&gt;Node9 -->
<g id="edge35" class="edge">
<title>Node2&#45;&gt;Node9</title>
<path fill="none" stroke="midnightblue" d="M420.38,-357.6C275.06,-348.72 0,-320.6 0,-235 0,-235 0,-235 0,-121 0,-41.35 89.24,-73.23 167,-56 289.29,-28.9 669.96,-16.13 808.19,-12.29"/>
<polygon fill="midnightblue" stroke="midnightblue" points="808.59,-15.78 818.49,-12.01 808.4,-8.78 808.59,-15.78"/>
</g>
<!-- Node4 -->
<g id="node4" class="node">
<title>Node4</title>
<g id="a_node4"><a xlink:href="JKRCompression_8h.html" target="_top" xlink:title=" ">
<polygon fill="white" stroke="black" points="479.5,-168.5 479.5,-187.5 656.5,-187.5 656.5,-168.5 479.5,-168.5"/>
<text text-anchor="middle" x="568" y="-175.5" font-family="Helvetica,sans-Serif" font-size="10.00">JSystem/JKernel/JKRCompression.h</text>
</a>
</g>
</g>
<!-- Node3&#45;&gt;Node4 -->
<g id="edge3" class="edge">
<title>Node3&#45;&gt;Node4</title>
<path fill="none" stroke="midnightblue" d="M514.4,-280.29C520.78,-271.41 530.66,-257.11 538,-244 546.62,-228.6 554.91,-210.28 560.58,-197.02"/>
<polygon fill="midnightblue" stroke="midnightblue" points="563.88,-198.2 564.53,-187.62 557.43,-195.49 563.88,-198.2"/>
</g>
<!-- Node5 -->
<g id="node5" class="node">
<title>Node5</title>
<g id="a_node5"><a xlink:href="JKRDecomp_8h.html" target="_top" xlink:title=" ">
<polygon fill="white" stroke="black" points="671,-224.5 671,-243.5 827,-243.5 827,-224.5 671,-224.5"/>
<text text-anchor="middle" x="749" y="-231.5" font-family="Helvetica,sans-Serif" font-size="10.00">JSystem/JKernel/JKRDecomp.h</text>
</a>
</g>
</g>
<!-- Node3&#45;&gt;Node5 -->
<g id="edge4" class="edge">
<title>Node3&#45;&gt;Node5</title>
<path fill="none" stroke="midnightblue" d="M546.19,-280.44C588.14,-271.04 655.59,-255.93 701.07,-245.74"/>
<polygon fill="midnightblue" stroke="midnightblue" points="702,-249.12 710.99,-243.52 700.47,-242.29 702,-249.12"/>
</g>
<!-- Node12 -->
<g id="node12" class="node">
<title>Node12</title>
<g id="a_node12"><a xlink:href="JKRDvdFile_8h.html" target="_top" xlink:title=" ">
<polygon fill="white" stroke="black" points="375.5,-224.5 375.5,-243.5 528.5,-243.5 528.5,-224.5 375.5,-224.5"/>
<text text-anchor="middle" x="452" y="-231.5" font-family="Helvetica,sans-Serif" font-size="10.00">JSystem/JKernel/JKRDvdFile.h</text>
</a>
</g>
</g>
<!-- Node3&#45;&gt;Node12 -->
<g id="edge18" class="edge">
<title>Node3&#45;&gt;Node12</title>
<path fill="none" stroke="midnightblue" d="M499,-280.32C490.81,-272.42 478.49,-260.55 468.53,-250.94"/>
<polygon fill="midnightblue" stroke="midnightblue" points="470.79,-248.26 461.16,-243.83 465.93,-253.29 470.79,-248.26"/>
</g>
<!-- Node14 -->
<g id="node14" class="node">
<title>Node14</title>
<g id="a_node14"><a xlink:href="JKRFileLoader_8h.html" target="_top" xlink:title=" ">
<polygon fill="white" stroke="black" points="104,-168.5 104,-187.5 270,-187.5 270,-168.5 104,-168.5"/>
<text text-anchor="middle" x="187" y="-175.5" font-family="Helvetica,sans-Serif" font-size="10.00">JSystem/JKernel/JKRFileLoader.h</text>
</a>
</g>
</g>
<!-- Node3&#45;&gt;Node14 -->
<g id="edge25" class="edge">
<title>Node3&#45;&gt;Node14</title>
<path fill="none" stroke="midnightblue" d="M479.87,-280.46C451.14,-271.65 405.3,-257.36 366,-244 314.21,-226.4 254.6,-204.4 218.91,-191.04"/>
<polygon fill="midnightblue" stroke="midnightblue" points="220.09,-187.75 209.5,-187.51 217.63,-194.3 220.09,-187.75"/>
</g>
<!-- Node3&#45;&gt;Node15 -->
<g id="edge29" class="edge">
<title>Node3&#45;&gt;Node15</title>
<path fill="none" stroke="midnightblue" d="M524.6,-280.39C552.31,-266.38 610.08,-238.74 662,-224 730.92,-204.43 811.62,-192.78 870.37,-186.26"/>
<polygon fill="midnightblue" stroke="midnightblue" points="870.77,-189.73 880.34,-185.18 870.02,-182.78 870.77,-189.73"/>
</g>
<!-- Node16 -->
<g id="node16" class="node">
<title>Node16</title>
<g id="a_node16"><a xlink:href="global_8h.html" target="_top" xlink:title=" ">
<polygon fill="white" stroke="black" points="89,-224.5 89,-243.5 139,-243.5 139,-224.5 89,-224.5"/>
<text text-anchor="middle" x="114" y="-231.5" font-family="Helvetica,sans-Serif" font-size="10.00">global.h</text>
</a>
</g>
</g>
<!-- Node3&#45;&gt;Node16 -->
<g id="edge33" class="edge">
<title>Node3&#45;&gt;Node16</title>
<path fill="none" stroke="midnightblue" d="M445.57,-280.44C361.95,-268.98 216.36,-249.03 149.46,-239.86"/>
<polygon fill="midnightblue" stroke="midnightblue" points="149.81,-236.37 139.42,-238.48 148.85,-243.31 149.81,-236.37"/>
</g>
<!-- Node5&#45;&gt;Node4 -->
<g id="edge5" class="edge">
<title>Node5&#45;&gt;Node4</title>
<path fill="none" stroke="midnightblue" d="M720.32,-224.44C689.47,-215.24 640.27,-200.56 606.17,-190.39"/>
<polygon fill="midnightblue" stroke="midnightblue" points="607.13,-187.02 596.55,-187.52 605.13,-193.73 607.13,-187.02"/>
</g>
<!-- Node6 -->
<g id="node6" class="node">
<title>Node6</title>
<g id="a_node6"><a xlink:href="JKRThread_8h.html" target="_top" xlink:title=" ">
<polygon fill="white" stroke="black" points="674,-168.5 674,-187.5 824,-187.5 824,-168.5 674,-168.5"/>
<text text-anchor="middle" x="749" y="-175.5" font-family="Helvetica,sans-Serif" font-size="10.00">JSystem/JKernel/JKRThread.h</text>
</a>
</g>
</g>
<!-- Node5&#45;&gt;Node6 -->
<g id="edge6" class="edge">
<title>Node5&#45;&gt;Node6</title>
<path fill="none" stroke="midnightblue" d="M749,-224.08C749,-217.01 749,-206.86 749,-197.99"/>
<polygon fill="midnightblue" stroke="midnightblue" points="752.5,-197.75 749,-187.75 745.5,-197.75 752.5,-197.75"/>
</g>
<!-- Node5&#45;&gt;Node9 -->
<g id="edge17" class="edge">
<title>Node5&#45;&gt;Node9</title>
<path fill="none" stroke="midnightblue" d="M827.22,-231.6C901.96,-228.42 1006.98,-218.46 1033,-188 1088.65,-122.84 952.85,-52.11 889.45,-23.78"/>
<polygon fill="midnightblue" stroke="midnightblue" points="890.5,-20.42 879.94,-19.6 887.69,-26.83 890.5,-20.42"/>
</g>
<!-- Node7 -->
<g id="node7" class="node">
<title>Node7</title>
<g id="a_node7"><a xlink:href="JKRDisposer_8h.html" target="_top" xlink:title=" ">
<polygon fill="white" stroke="black" points="422,-112.5 422,-131.5 580,-131.5 580,-112.5 422,-112.5"/>
<text text-anchor="middle" x="501" y="-119.5" font-family="Helvetica,sans-Serif" font-size="10.00">JSystem/JKernel/JKRDisposer.h</text>
</a>
</g>
</g>
<!-- Node6&#45;&gt;Node7 -->
<g id="edge7" class="edge">
<title>Node6&#45;&gt;Node7</title>
<path fill="none" stroke="midnightblue" d="M709.7,-168.44C666.44,-159.02 596.83,-143.87 550.03,-133.68"/>
<polygon fill="midnightblue" stroke="midnightblue" points="550.63,-130.22 540.11,-131.52 549.14,-137.06 550.63,-130.22"/>
</g>
<!-- Node8 -->
<g id="node8" class="node">
<title>Node8</title>
<g id="a_node8"><a xlink:href="JSUList_8h.html" target="_top" xlink:title=" ">
<polygon fill="white" stroke="black" points="407.5,-56.5 407.5,-75.5 550.5,-75.5 550.5,-56.5 407.5,-56.5"/>
<text text-anchor="middle" x="479" y="-63.5" font-family="Helvetica,sans-Serif" font-size="10.00">JSystem/JSupport/JSUList.h</text>
</a>
</g>
</g>
<!-- Node6&#45;&gt;Node8 -->
<g id="edge11" class="edge">
<title>Node6&#45;&gt;Node8</title>
<path fill="none" stroke="midnightblue" d="M676.45,-168.48C578.97,-156.87 417.32,-136.94 413,-132 396.38,-113 424.95,-92.87 449.54,-80.13"/>
<polygon fill="midnightblue" stroke="midnightblue" points="451.25,-83.19 458.67,-75.63 448.15,-76.91 451.25,-83.19"/>
</g>
<!-- Node6&#45;&gt;Node9 -->
<g id="edge16" class="edge">
<title>Node6&#45;&gt;Node9</title>
<path fill="none" stroke="midnightblue" d="M754.91,-168.08C772.45,-141.61 824.4,-63.21 847.6,-28.21"/>
<polygon fill="midnightblue" stroke="midnightblue" points="850.72,-29.84 853.32,-19.57 844.88,-25.97 850.72,-29.84"/>
</g>
<!-- Node10 -->
<g id="node10" class="node">
<title>Node10</title>
<g id="a_node10"><a xlink:href="OS_8h.html" target="_top" xlink:title=" ">
<polygon fill="white" stroke="black" points="816,-112.5 816,-131.5 902,-131.5 902,-112.5 816,-112.5"/>
<text text-anchor="middle" x="859" y="-119.5" font-family="Helvetica,sans-Serif" font-size="10.00">dolphin/os/OS.h</text>
</a>
</g>
</g>
<!-- Node6&#45;&gt;Node10 -->
<g id="edge12" class="edge">
<title>Node6&#45;&gt;Node10</title>
<path fill="none" stroke="midnightblue" d="M766.67,-168.32C784.39,-159.62 811.9,-146.12 832.29,-136.11"/>
<polygon fill="midnightblue" stroke="midnightblue" points="833.94,-139.2 841.37,-131.65 830.85,-132.92 833.94,-139.2"/>
</g>
<!-- Node7&#45;&gt;Node8 -->
<g id="edge8" class="edge">
<title>Node7&#45;&gt;Node8</title>
<path fill="none" stroke="midnightblue" d="M497.37,-112.08C494.39,-104.77 490.07,-94.18 486.38,-85.1"/>
<polygon fill="midnightblue" stroke="midnightblue" points="489.58,-83.69 482.57,-75.75 483.1,-86.33 489.58,-83.69"/>
</g>
<!-- Node7&#45;&gt;Node9 -->
<g id="edge10" class="edge">
<title>Node7&#45;&gt;Node9</title>
<path fill="none" stroke="midnightblue" d="M519.11,-112.37C548.1,-98.82 606.96,-72.43 659,-56 708.9,-40.25 767.46,-27.74 808.27,-19.95"/>
<polygon fill="midnightblue" stroke="midnightblue" points="809.06,-23.37 818.24,-18.08 807.77,-16.49 809.06,-23.37"/>
</g>
<!-- Node8&#45;&gt;Node9 -->
<g id="edge9" class="edge">
<title>Node8&#45;&gt;Node9</title>
<path fill="none" stroke="midnightblue" d="M539.21,-56.44C613.46,-45.89 738.36,-28.14 808.06,-18.24"/>
<polygon fill="midnightblue" stroke="midnightblue" points="808.94,-21.65 818.35,-16.78 807.96,-14.72 808.94,-21.65"/>
</g>
<!-- Node10&#45;&gt;Node9 -->
<g id="edge13" class="edge">
<title>Node10&#45;&gt;Node9</title>
<path fill="none" stroke="midnightblue" d="M859,-112.37C859,-94.62 859,-53.67 859,-29.6"/>
<polygon fill="midnightblue" stroke="midnightblue" points="862.5,-29.59 859,-19.59 855.5,-29.59 862.5,-29.59"/>
</g>
<!-- Node11 -->
<g id="node11" class="node">
<title>Node11</title>
<g id="a_node11"><a xlink:href="dvd_8h.html" target="_top" xlink:title=" ">
<polygon fill="white" stroke="black" points="668,-56.5 668,-75.5 760,-75.5 760,-56.5 668,-56.5"/>
<text text-anchor="middle" x="714" y="-63.5" font-family="Helvetica,sans-Serif" font-size="10.00">dolphin/dvd/dvd.h</text>
</a>
</g>
</g>
<!-- Node10&#45;&gt;Node11 -->
<g id="edge14" class="edge">
<title>Node10&#45;&gt;Node11</title>
<path fill="none" stroke="midnightblue" d="M836.02,-112.44C811.84,-103.44 773.58,-89.19 746.35,-79.05"/>
<polygon fill="midnightblue" stroke="midnightblue" points="747.46,-75.73 736.87,-75.52 745.02,-82.29 747.46,-75.73"/>
</g>
<!-- Node11&#45;&gt;Node9 -->
<g id="edge15" class="edge">
<title>Node11&#45;&gt;Node9</title>
<path fill="none" stroke="midnightblue" d="M736.98,-56.44C761.16,-47.44 799.42,-33.19 826.65,-23.05"/>
<polygon fill="midnightblue" stroke="midnightblue" points="827.98,-26.29 836.13,-19.52 825.54,-19.73 827.98,-26.29"/>
</g>
<!-- Node12&#45;&gt;Node9 -->
<g id="edge24" class="edge">
<title>Node12&#45;&gt;Node9</title>
<path fill="none" stroke="midnightblue" d="M375.37,-228.66C276.02,-222.23 113.23,-208.67 95,-188 89.12,-181.33 90.26,-175.52 95,-168 156.46,-70.45 217.74,-86.26 329,-56 418.43,-31.68 693.48,-17.83 808.07,-12.99"/>
<polygon fill="midnightblue" stroke="midnightblue" points="808.47,-16.47 818.32,-12.56 808.18,-9.48 808.47,-16.47"/>
</g>
<!-- Node12&#45;&gt;Node10 -->
<g id="edge23" class="edge">
<title>Node12&#45;&gt;Node10</title>
<path fill="none" stroke="midnightblue" d="M528.69,-228.13C632.99,-220.87 809.38,-206.11 833,-188 847.3,-177.04 853.76,-156.98 856.66,-142.04"/>
<polygon fill="midnightblue" stroke="midnightblue" points="860.17,-142.26 858.26,-131.84 853.25,-141.18 860.17,-142.26"/>
</g>
<!-- Node12&#45;&gt;Node11 -->
<g id="edge22" class="edge">
<title>Node12&#45;&gt;Node11</title>
<path fill="none" stroke="midnightblue" d="M452.05,-224.12C452.63,-210.23 455.79,-183.39 471,-168 509.54,-129 538.24,-152.74 589,-132 625.58,-117.06 665.77,-95.09 690.45,-80.91"/>
<polygon fill="midnightblue" stroke="midnightblue" points="692.52,-83.76 699.41,-75.71 689.01,-77.7 692.52,-83.76"/>
</g>
<!-- Node13 -->
<g id="node13" class="node">
<title>Node13</title>
<g id="a_node13"><a xlink:href="JKRFile_8h.html" target="_top" xlink:title=" ">
<polygon fill="white" stroke="black" points="288,-168.5 288,-187.5 424,-187.5 424,-168.5 288,-168.5"/>
<text text-anchor="middle" x="356" y="-175.5" font-family="Helvetica,sans-Serif" font-size="10.00">JSystem/JKernel/JKRFile.h</text>
</a>
</g>
</g>
<!-- Node12&#45;&gt;Node13 -->
<g id="edge19" class="edge">
<title>Node12&#45;&gt;Node13</title>
<path fill="none" stroke="midnightblue" d="M436.58,-224.32C421.46,-215.82 398.18,-202.73 380.53,-192.8"/>
<polygon fill="midnightblue" stroke="midnightblue" points="381.82,-189.51 371.39,-187.65 378.39,-195.61 381.82,-189.51"/>
</g>
<!-- Node13&#45;&gt;Node7 -->
<g id="edge20" class="edge">
<title>Node13&#45;&gt;Node7</title>
<path fill="none" stroke="midnightblue" d="M378.98,-168.44C403.16,-159.44 441.42,-145.19 468.65,-135.05"/>
<polygon fill="midnightblue" stroke="midnightblue" points="469.98,-138.29 478.13,-131.52 467.54,-131.73 469.98,-138.29"/>
</g>
<!-- Node13&#45;&gt;Node9 -->
<g id="edge21" class="edge">
<title>Node13&#45;&gt;Node9</title>
<path fill="none" stroke="midnightblue" d="M356.06,-168.2C356.75,-145.42 362.01,-84.34 398,-56 429.71,-31.04 695.13,-17.55 808.25,-12.9"/>
<polygon fill="midnightblue" stroke="midnightblue" points="808.54,-16.39 818.39,-12.49 808.26,-9.39 808.54,-16.39"/>
</g>
<!-- Node14&#45;&gt;Node7 -->
<g id="edge26" class="edge">
<title>Node14&#45;&gt;Node7</title>
<path fill="none" stroke="midnightblue" d="M236.75,-168.44C292.33,-158.89 382.26,-143.42 441.52,-133.23"/>
<polygon fill="midnightblue" stroke="midnightblue" points="442.22,-136.66 451.48,-131.52 441.03,-129.76 442.22,-136.66"/>
</g>
<!-- Node14&#45;&gt;Node8 -->
<g id="edge27" class="edge">
<title>Node14&#45;&gt;Node8</title>
<path fill="none" stroke="midnightblue" d="M209.91,-168.37C261.51,-148.93 386.96,-101.67 446.54,-79.23"/>
<polygon fill="midnightblue" stroke="midnightblue" points="448.07,-82.39 456.19,-75.59 445.6,-75.84 448.07,-82.39"/>
</g>
<!-- Node14&#45;&gt;Node9 -->
<g id="edge28" class="edge">
<title>Node14&#45;&gt;Node9</title>
<path fill="none" stroke="midnightblue" d="M196.8,-168.28C223.46,-145.16 300.42,-82.24 377,-56 455.68,-29.04 700.78,-16.87 807.96,-12.74"/>
<polygon fill="midnightblue" stroke="midnightblue" points="808.34,-16.22 818.2,-12.35 808.07,-9.23 808.34,-16.22"/>
</g>
<!-- Node15&#45;&gt;Node7 -->
<g id="edge30" class="edge">
<title>Node15&#45;&gt;Node7</title>
<path fill="none" stroke="midnightblue" d="M880.54,-168.44C799.39,-158.73 667.26,-142.91 582.25,-132.73"/>
<polygon fill="midnightblue" stroke="midnightblue" points="582.47,-129.23 572.13,-131.52 581.64,-136.18 582.47,-129.23"/>
</g>
<!-- Node15&#45;&gt;Node9 -->
<g id="edge32" class="edge">
<title>Node15&#45;&gt;Node9</title>
<path fill="none" stroke="midnightblue" d="M947,-168.08C932.23,-141.72 888.62,-63.88 868.89,-28.66"/>
<polygon fill="midnightblue" stroke="midnightblue" points="871.74,-26.58 863.8,-19.57 865.63,-30 871.74,-26.58"/>
</g>
<!-- Node15&#45;&gt;Node10 -->
<g id="edge31" class="edge">
<title>Node15&#45;&gt;Node10</title>
<path fill="none" stroke="midnightblue" d="M937.06,-168.32C922.41,-159.82 899.87,-146.73 882.76,-136.8"/>
<polygon fill="midnightblue" stroke="midnightblue" points="884.31,-133.65 873.9,-131.65 880.8,-139.7 884.31,-133.65"/>
</g>
<!-- Node16&#45;&gt;Node9 -->
<g id="edge34" class="edge">
<title>Node16&#45;&gt;Node9</title>
<path fill="none" stroke="midnightblue" d="M107.11,-224.32C100.73,-215.68 91.69,-201.77 88,-188 78.51,-152.6 93.24,-137.05 120,-112 161.5,-73.15 180.1,-70.76 235,-56 342.74,-27.04 679.41,-15.58 808.2,-12.18"/>
<polygon fill="midnightblue" stroke="midnightblue" points="808.29,-15.68 818.19,-11.93 808.11,-8.69 808.29,-15.68"/>
</g>
<!-- Node17&#45;&gt;Node5 -->
<g id="edge37" class="edge">
<title>Node17&#45;&gt;Node5</title>
<path fill="none" stroke="midnightblue" d="M942.56,-280.44C902.6,-271.06 838.41,-255.99 795.02,-245.8"/>
<polygon fill="midnightblue" stroke="midnightblue" points="795.81,-242.39 785.27,-243.52 794.21,-249.21 795.81,-242.39"/>
</g>
<!-- Node17&#45;&gt;Node9 -->
<g id="edge38" class="edge">
<title>Node17&#45;&gt;Node9</title>
<path fill="none" stroke="midnightblue" d="M988.27,-280.38C1004.9,-264.19 1039.28,-227.32 1052,-188 1057.37,-171.4 1054.64,-127.02 1047,-112 1020.55,-60 955.53,-33.76 909.38,-21.26"/>
<polygon fill="midnightblue" stroke="midnightblue" points="910.1,-17.84 899.55,-18.73 908.36,-24.61 910.1,-17.84"/>
</g>
<!-- Node18&#45;&gt;Node9 -->
<g id="edge48" class="edge">
<title>Node18&#45;&gt;Node9</title>
<path fill="none" stroke="midnightblue" d="M1231.26,-168.48C1220.85,-145.85 1189.14,-84.04 1142,-56 1103.64,-33.18 980.03,-20.24 909.52,-14.55"/>
<polygon fill="midnightblue" stroke="midnightblue" points="909.76,-11.05 899.52,-13.76 909.21,-18.03 909.76,-11.05"/>
</g>
<!-- Node18&#45;&gt;Node10 -->
<g id="edge47" class="edge">
<title>Node18&#45;&gt;Node10</title>
<path fill="none" stroke="midnightblue" d="M1175.42,-168.44C1103.04,-158.05 982,-140.67 912.49,-130.68"/>
<polygon fill="midnightblue" stroke="midnightblue" points="912.6,-127.16 902.2,-129.2 911.6,-134.09 912.6,-127.16"/>
</g>
<!-- Node19 -->
<g id="node19" class="node">
<title>Node19</title>
<g id="a_node19"><a xlink:href="GX_8h.html" target="_top" xlink:title=" ">
<polygon fill="white" stroke="black" points="1290.5,-112.5 1290.5,-131.5 1375.5,-131.5 1375.5,-112.5 1290.5,-112.5"/>
<text text-anchor="middle" x="1333" y="-119.5" font-family="Helvetica,sans-Serif" font-size="10.00">dolphin/gx/GX.h</text>
</a>
</g>
</g>
<!-- Node18&#45;&gt;Node19 -->
<g id="edge41" class="edge">
<title>Node18&#45;&gt;Node19</title>
<path fill="none" stroke="midnightblue" d="M1250.75,-168.32C1266.32,-159.74 1290.38,-146.49 1308.46,-136.52"/>
<polygon fill="midnightblue" stroke="midnightblue" points="1310.22,-139.55 1317.29,-131.65 1306.85,-133.42 1310.22,-139.55"/>
</g>
<!-- Node19&#45;&gt;Node9 -->
<g id="edge46" class="edge">
<title>Node19&#45;&gt;Node9</title>
<path fill="none" stroke="midnightblue" d="M1375.92,-115.79C1427.56,-107.88 1503.65,-90.05 1472,-56 1434.09,-15.2 1050.31,-11.02 910.01,-10.86"/>
<polygon fill="midnightblue" stroke="midnightblue" points="909.95,-7.36 899.95,-10.86 909.95,-14.36 909.95,-7.36"/>
</g>
<!-- Node20 -->
<g id="node20" class="node">
<title>Node20</title>
<g id="a_node20"><a xlink:href="GXDisplayList_8h.html" target="_top" xlink:title=" ">
<polygon fill="white" stroke="black" points="1194.5,-56.5 1194.5,-75.5 1327.5,-75.5 1327.5,-56.5 1194.5,-56.5"/>
<text text-anchor="middle" x="1261" y="-63.5" font-family="Helvetica,sans-Serif" font-size="10.00">dolphin/gx/GXDisplayList.h</text>
</a>
</g>
</g>
<!-- Node19&#45;&gt;Node20 -->
<g id="edge42" class="edge">
<title>Node19&#45;&gt;Node20</title>
<path fill="none" stroke="midnightblue" d="M1321.43,-112.32C1310.58,-104.18 1294.12,-91.84 1281.12,-82.09"/>
<polygon fill="midnightblue" stroke="midnightblue" points="1282.88,-79.03 1272.78,-75.83 1278.68,-84.63 1282.88,-79.03"/>
</g>
<!-- Node21 -->
<g id="node21" class="node">
<title>Node21</title>
<g id="a_node21"><a xlink:href="GXTexture_8h.html" target="_top" xlink:title=" ">
<polygon fill="white" stroke="black" points="1345.5,-56.5 1345.5,-75.5 1462.5,-75.5 1462.5,-56.5 1345.5,-56.5"/>
<text text-anchor="middle" x="1404" y="-63.5" font-family="Helvetica,sans-Serif" font-size="10.00">dolphin/gx/GXTexture.h</text>
</a>
</g>
</g>
<!-- Node19&#45;&gt;Node21 -->
<g id="edge44" class="edge">
<title>Node19&#45;&gt;Node21</title>
<path fill="none" stroke="midnightblue" d="M1344.41,-112.32C1355.11,-104.18 1371.34,-91.84 1384.16,-82.09"/>
<polygon fill="midnightblue" stroke="midnightblue" points="1386.54,-84.67 1392.39,-75.83 1382.31,-79.1 1386.54,-84.67"/>
</g>
<!-- Node20&#45;&gt;Node9 -->
<g id="edge43" class="edge">
<title>Node20&#45;&gt;Node9</title>
<path fill="none" stroke="midnightblue" d="M1197.3,-56.44C1117.75,-45.76 983.23,-27.69 910.08,-17.86"/>
<polygon fill="midnightblue" stroke="midnightblue" points="910.12,-14.34 899.75,-16.47 909.19,-21.27 910.12,-14.34"/>
</g>
<!-- Node21&#45;&gt;Node9 -->
<g id="edge45" class="edge">
<title>Node21&#45;&gt;Node9</title>
<path fill="none" stroke="midnightblue" d="M1345.19,-56.97C1342.42,-56.63 1339.68,-56.31 1337,-56 1181.62,-38.26 997.24,-22.35 909.83,-15.12"/>
<polygon fill="midnightblue" stroke="midnightblue" points="909.91,-11.61 899.66,-14.28 909.34,-18.59 909.91,-11.61"/>
</g>
<!-- Node23&#45;&gt;Node9 -->
<g id="edge52" class="edge">
<title>Node23&#45;&gt;Node9</title>
<path fill="none" stroke="midnightblue" d="M1413.85,-280.46C1457.45,-266.91 1529,-235.99 1529,-179 1529,-179 1529,-179 1529,-121 1529,-87.08 1518,-73.59 1489,-56 1440.01,-26.28 1051.03,-15.09 909.92,-11.99"/>
<polygon fill="midnightblue" stroke="midnightblue" points="909.87,-8.49 899.8,-11.77 909.72,-15.48 909.87,-8.49"/>
</g>
</g>
</svg>
        <g id="navigator" transform="translate(0 0)" fill="#404254">
                <rect fill="#f2f5e9" fill-opacity="0.5" stroke="#606060" stroke-width=".5" x="0" y="0" width="60" height="60"/>
                <use id="zoomplus" xlink:href="#zoomPlus" x="17" y="9" onmousedown="handleZoom(evt,'in')"/>
                <use id="zoomminus" xlink:href="#zoomMin" x="42" y="9" onmousedown="handleZoom(evt,'out')"/>
                <use id="reset" xlink:href="#resetDef" x="30" y="36" onmousedown="handleReset()"/>
                <g id="arrowUp" xlink:href="#dirArrow" transform="translate(30 24)" onmousedown="handlePan(0,-1)">
                  <use xlink:href="#rim" fill="#404040">
                        <set attributeName="fill" to="#808080" begin="arrowUp.mouseover" end="arrowUp.mouseout"/>
                  </use>
                  <path fill="none" stroke="white" stroke-width="1.5" d="M0,-3.0v7 M-2.5,-0.5L0,-3.0L2.5,-0.5"/>
                </g>
                <g id="arrowRight" xlink:href="#dirArrow" transform="rotate(90) translate(36 -43)" onmousedown="handlePan(1,0)">
                  <use xlink:href="#rim" fill="#404040">
                        <set attributeName="fill" to="#808080" begin="arrowRight.mouseover" end="arrowRight.mouseout"/>
                  </use>
                  <path fill="none" stroke="white" stroke-width="1.5" d="M0,-3.0v7 M-2.5,-0.5L0,-3.0L2.5,-0.5"/>
                </g>
                <g id="arrowDown" xlink:href="#dirArrow" transform="rotate(180) translate(-30 -48)" onmousedown="handlePan(0,1)">
                  <use xlink:href="#rim" fill="#404040">
                        <set attributeName="fill" to="#808080" begin="arrowDown.mouseover" end="arrowDown.mouseout"/>
                  </use>
                  <path fill="none" stroke="white" stroke-width="1.5" d="M0,-3.0v7 M-2.5,-0.5L0,-3.0L2.5,-0.5"/>
                </g>
                <g id="arrowLeft" xlink:href="#dirArrow" transform="rotate(270) translate(-36 17)" onmousedown="handlePan(-1,0)">
                  <use xlink:href="#rim" fill="#404040">
                        <set attributeName="fill" to="#808080" begin="arrowLeft.mouseover" end="arrowLeft.mouseout"/>
                  </use>
                  <path fill="none" stroke="white" stroke-width="1.5" d="M0,-3.0v7 M-2.5,-0.5L0,-3.0L2.5,-0.5"/>
                </g>
        </g>
        <svg viewBox="0 0 15 15" width="100%" height="30px" preserveAspectRatio="xMaxYMin meet">
         <g id="arrow_out" transform="scale(0.3 0.3)">
          <a xlink:href="JKRMemArchive_8cpp__incl_org.svg" target="_base">
           <rect id="button" ry="5" rx="5" y="6" x="6" height="38" width="38"
                fill="#f2f5e9" fill-opacity="0.5" stroke="#606060" stroke-width="1.0"/>
           <path id="arrow"
             d="M 11.500037,31.436501 C 11.940474,20.09759 22.043105,11.32322 32.158766,21.979434 L 37.068811,17.246167 C 37.068811,17.246167 37.088388,32 37.088388,32 L 22.160133,31.978069 C 22.160133,31.978069 26.997745,27.140456 26.997745,27.140456 C 18.528582,18.264221 13.291696,25.230495 11.500037,31.436501 z"
             style="fill:#404040;"/>
          </a>
         </g>
        </svg>
</svg>
