<?xml version="1.0" encoding="UTF-8" standalone="no"?>
<!DOCTYPE svg PUBLIC "-//W3C//DTD SVG 1.1//EN"
 "http://www.w3.org/Graphics/SVG/1.1/DTD/svg11.dtd">
<!-- Generated by graphviz version 2.44.0 ()
 -->
<!-- Title: libs/JSystem/JKernel/JKRSolidHeap.cpp Pages: 1 -->
<svg width="1329pt" height="352pt"
 viewBox="0.00 0.00 1328.50 352.00" xmlns="http://www.w3.org/2000/svg" xmlns:xlink="http://www.w3.org/1999/xlink">
<g id="graph0" class="graph" transform="scale(1 1) rotate(0) translate(4 348)">
<title>libs/JSystem/JKernel/JKRSolidHeap.cpp</title>
<polygon fill="white" stroke="transparent" points="-4,4 -4,-348 1324.5,-348 1324.5,4 -4,4"/>
<!-- Node1 -->
<g id="node1" class="node">
<title>Node1</title>
<g id="a_node1"><a xlink:title=" ">
<polygon fill="#bfbfbf" stroke="black" points="578,-313.5 578,-343.5 687,-343.5 687,-313.5 578,-313.5"/>
<text text-anchor="start" x="586" y="-331.5" font-family="Helvetica,sans-Serif" font-size="10.00">libs/JSystem/JKernel</text>
<text text-anchor="middle" x="632.5" y="-320.5" font-family="Helvetica,sans-Serif" font-size="10.00">/JKRSolidHeap.cpp</text>
</a>
</g>
</g>
<!-- Node2 -->
<g id="node2" class="node">
<title>Node2</title>
<g id="a_node2"><a xlink:href="JKRSolidHeap_8h.html" target="_top" xlink:title=" ">
<polygon fill="white" stroke="black" points="295.5,-235.5 295.5,-265.5 429.5,-265.5 429.5,-235.5 295.5,-235.5"/>
<text text-anchor="start" x="303.5" y="-253.5" font-family="Helvetica,sans-Serif" font-size="10.00">JSystem/JKernel/JKRSolid</text>
<text text-anchor="middle" x="362.5" y="-242.5" font-family="Helvetica,sans-Serif" font-size="10.00">Heap.h</text>
</a>
</g>
</g>
<!-- Node1&#45;&gt;Node2 -->
<g id="edge1" class="edge">
<title>Node1&#45;&gt;Node2</title>
<path fill="none" stroke="midnightblue" d="M582.66,-313.47C537.33,-300.71 470.35,-281.86 422.18,-268.3"/>
<polygon fill="midnightblue" stroke="midnightblue" points="423.08,-264.92 412.5,-265.57 421.18,-271.65 423.08,-264.92"/>
</g>
<!-- Node9 -->
<g id="node9" class="node">
<title>Node9</title>
<g id="a_node9"><a xlink:href="JUTAssert_8h.html" target="_top" xlink:title=" ">
<polygon fill="white" stroke="black" points="390.5,-168.5 390.5,-187.5 536.5,-187.5 536.5,-168.5 390.5,-168.5"/>
<text text-anchor="middle" x="463.5" y="-175.5" font-family="Helvetica,sans-Serif" font-size="10.00">JSystem/JUtility/JUTAssert.h</text>
</a>
</g>
</g>
<!-- Node1&#45;&gt;Node9 -->
<g id="edge13" class="edge">
<title>Node1&#45;&gt;Node9</title>
<path fill="none" stroke="midnightblue" d="M577.84,-319.04C549.87,-312.09 517.22,-299.55 495.5,-277 474.56,-255.25 467.32,-219.62 464.82,-197.84"/>
<polygon fill="midnightblue" stroke="midnightblue" points="468.28,-197.23 463.88,-187.6 461.31,-197.87 468.28,-197.23"/>
</g>
<!-- Node10 -->
<g id="node10" class="node">
<title>Node10</title>
<g id="a_node10"><a xlink:href="dol2asm_8h.html" target="_top" xlink:title=" ">
<polygon fill="white" stroke="black" points="505,-241 505,-260 566,-260 566,-241 505,-241"/>
<text text-anchor="middle" x="535.5" y="-248" font-family="Helvetica,sans-Serif" font-size="10.00">dol2asm.h</text>
</a>
</g>
</g>
<!-- Node1&#45;&gt;Node10 -->
<g id="edge15" class="edge">
<title>Node1&#45;&gt;Node10</title>
<path fill="none" stroke="midnightblue" d="M614.26,-313.2C597.24,-299.88 571.96,-280.07 554.66,-266.51"/>
<polygon fill="midnightblue" stroke="midnightblue" points="556.46,-263.48 546.43,-260.06 552.14,-268.99 556.46,-263.48"/>
</g>
<!-- Node11 -->
<g id="node11" class="node">
<title>Node11</title>
<g id="a_node11"><a xlink:href="global_8h.html" target="_top" xlink:title=" ">
<polygon fill="white" stroke="black" points="554.5,-168.5 554.5,-187.5 604.5,-187.5 604.5,-168.5 554.5,-168.5"/>
<text text-anchor="middle" x="579.5" y="-175.5" font-family="Helvetica,sans-Serif" font-size="10.00">global.h</text>
</a>
</g>
</g>
<!-- Node1&#45;&gt;Node11 -->
<g id="edge16" class="edge">
<title>Node1&#45;&gt;Node11</title>
<path fill="none" stroke="midnightblue" d="M627.42,-313.26C617.77,-286.24 596.82,-227.53 586.1,-197.5"/>
<polygon fill="midnightblue" stroke="midnightblue" points="589.32,-196.09 582.66,-187.85 582.72,-198.44 589.32,-196.09"/>
</g>
<!-- Node12 -->
<g id="node12" class="node">
<title>Node12</title>
<g id="a_node12"><a xlink:href="math_8h.html" target="_top" xlink:title=" ">
<polygon fill="white" stroke="black" points="574,-112.5 574,-131.5 649,-131.5 649,-112.5 574,-112.5"/>
<text text-anchor="middle" x="611.5" y="-119.5" font-family="Helvetica,sans-Serif" font-size="10.00">msl_c/math.h</text>
</a>
</g>
</g>
<!-- Node1&#45;&gt;Node12 -->
<g id="edge18" class="edge">
<title>Node1&#45;&gt;Node12</title>
<path fill="none" stroke="midnightblue" d="M631.06,-313.44C627.37,-277.56 617.61,-182.53 613.44,-141.88"/>
<polygon fill="midnightblue" stroke="midnightblue" points="616.9,-141.33 612.4,-131.74 609.94,-142.05 616.9,-141.33"/>
</g>
<!-- Node13 -->
<g id="node13" class="node">
<title>Node13</title>
<g id="a_node13"><a xlink:title=" ">
<polygon fill="white" stroke="#bfbfbf" points="661,-230 661,-271 792,-271 792,-230 661,-230"/>
<text text-anchor="start" x="669" y="-259" font-family="Helvetica,sans-Serif" font-size="10.00">asm/JSystem/JKernel</text>
<text text-anchor="start" x="669" y="-248" font-family="Helvetica,sans-Serif" font-size="10.00">/JKRSolidHeap/adjustSize</text>
<text text-anchor="middle" x="726.5" y="-237" font-family="Helvetica,sans-Serif" font-size="10.00">__12JKRSolidHeapFv.s</text>
</a>
</g>
</g>
<!-- Node1&#45;&gt;Node13 -->
<g id="edge20" class="edge">
<title>Node1&#45;&gt;Node13</title>
<path fill="none" stroke="midnightblue" d="M650.18,-313.2C662.57,-303.19 679.47,-289.52 694.23,-277.59"/>
<polygon fill="midnightblue" stroke="midnightblue" points="696.58,-280.19 702.16,-271.18 692.18,-274.75 696.58,-280.19"/>
</g>
<!-- Node14 -->
<g id="node14" class="node">
<title>Node14</title>
<g id="a_node14"><a xlink:title=" ">
<polygon fill="white" stroke="#bfbfbf" points="810.5,-230 810.5,-271 962.5,-271 962.5,-230 810.5,-230"/>
<text text-anchor="start" x="818.5" y="-259" font-family="Helvetica,sans-Serif" font-size="10.00">asm/JSystem/JKernel</text>
<text text-anchor="start" x="818.5" y="-248" font-family="Helvetica,sans-Serif" font-size="10.00">/JKRSolidHeap/allocFromHead</text>
<text text-anchor="middle" x="886.5" y="-237" font-family="Helvetica,sans-Serif" font-size="10.00">__12JKRSolidHeapFUli.s</text>
</a>
</g>
</g>
<!-- Node1&#45;&gt;Node14 -->
<g id="edge21" class="edge">
<title>Node1&#45;&gt;Node14</title>
<path fill="none" stroke="midnightblue" d="M679.49,-313.47C713.4,-303.35 760.28,-289.34 801.5,-277 804.67,-276.05 807.91,-275.08 811.19,-274.1"/>
<polygon fill="midnightblue" stroke="midnightblue" points="812.5,-277.36 821.07,-271.14 810.49,-270.66 812.5,-277.36"/>
</g>
<!-- Node15 -->
<g id="node15" class="node">
<title>Node15</title>
<g id="a_node15"><a xlink:title=" ">
<polygon fill="white" stroke="#bfbfbf" points="981,-230 981,-271 1126,-271 1126,-230 981,-230"/>
<text text-anchor="start" x="989" y="-259" font-family="Helvetica,sans-Serif" font-size="10.00">asm/JSystem/JKernel</text>
<text text-anchor="start" x="989" y="-248" font-family="Helvetica,sans-Serif" font-size="10.00">/JKRSolidHeap/allocFromTail</text>
<text text-anchor="middle" x="1053.5" y="-237" font-family="Helvetica,sans-Serif" font-size="10.00">__12JKRSolidHeapFUli.s</text>
</a>
</g>
</g>
<!-- Node1&#45;&gt;Node15 -->
<g id="edge22" class="edge">
<title>Node1&#45;&gt;Node15</title>
<path fill="none" stroke="midnightblue" d="M687.29,-321.96C754.72,-314.54 872.45,-299.64 971.5,-277 975.79,-276.02 980.17,-274.93 984.58,-273.76"/>
<polygon fill="midnightblue" stroke="midnightblue" points="985.51,-277.14 994.23,-271.11 983.66,-270.39 985.51,-277.14"/>
</g>
<!-- Node16 -->
<g id="node16" class="node">
<title>Node16</title>
<g id="a_node16"><a xlink:title=" ">
<polygon fill="white" stroke="#bfbfbf" points="1144.5,-224.5 1144.5,-276.5 1320.5,-276.5 1320.5,-224.5 1144.5,-224.5"/>
<text text-anchor="start" x="1152.5" y="-264.5" font-family="Helvetica,sans-Serif" font-size="10.00">asm/JSystem/JKernel</text>
<text text-anchor="start" x="1152.5" y="-253.5" font-family="Helvetica,sans-Serif" font-size="10.00">/JKRSolidHeap/state</text>
<text text-anchor="start" x="1152.5" y="-242.5" font-family="Helvetica,sans-Serif" font-size="10.00">_register__12JKRSolidHeapCFPQ27</text>
<text text-anchor="middle" x="1232.5" y="-231.5" font-family="Helvetica,sans-Serif" font-size="10.00">JKRHeap6TStateUl.s</text>
</a>
</g>
</g>
<!-- Node1&#45;&gt;Node16 -->
<g id="edge23" class="edge">
<title>Node1&#45;&gt;Node16</title>
<path fill="none" stroke="midnightblue" d="M687.23,-324.82C778.23,-319.76 966.45,-306.68 1134.34,-277.09"/>
<polygon fill="midnightblue" stroke="midnightblue" points="1135.11,-280.51 1144.34,-275.3 1133.88,-273.62 1135.11,-280.51"/>
</g>
<!-- Node3 -->
<g id="node3" class="node">
<title>Node3</title>
<g id="a_node3"><a xlink:href="JKRHeap_8h.html" target="_top" xlink:title=" ">
<polygon fill="white" stroke="black" points="180,-168.5 180,-187.5 323,-187.5 323,-168.5 180,-168.5"/>
<text text-anchor="middle" x="251.5" y="-175.5" font-family="Helvetica,sans-Serif" font-size="10.00">JSystem/JKernel/JKRHeap.h</text>
</a>
</g>
</g>
<!-- Node2&#45;&gt;Node3 -->
<g id="edge2" class="edge">
<title>Node2&#45;&gt;Node3</title>
<path fill="none" stroke="midnightblue" d="M340.3,-235.4C320.86,-223.05 292.76,-205.21 273.41,-192.91"/>
<polygon fill="midnightblue" stroke="midnightblue" points="275.25,-189.94 264.94,-187.53 271.5,-195.85 275.25,-189.94"/>
</g>
<!-- Node6 -->
<g id="node6" class="node">
<title>Node6</title>
<g id="a_node6"><a xlink:href="types_8h.html" target="_top" xlink:title=" ">
<polygon fill="white" stroke="black" points="281,-0.5 281,-19.5 362,-19.5 362,-0.5 281,-0.5"/>
<text text-anchor="middle" x="321.5" y="-7.5" font-family="Helvetica,sans-Serif" font-size="10.00">dolphin/types.h</text>
</a>
</g>
</g>
<!-- Node2&#45;&gt;Node6 -->
<g id="edge12" class="edge">
<title>Node2&#45;&gt;Node6</title>
<path fill="none" stroke="midnightblue" d="M365.32,-235.26C372.79,-196.13 391.54,-87.73 376.5,-56 370.37,-43.07 358.51,-32.62 347.36,-25.05"/>
<polygon fill="midnightblue" stroke="midnightblue" points="349.03,-21.97 338.7,-19.61 345.31,-27.9 349.03,-21.97"/>
</g>
<!-- Node4 -->
<g id="node4" class="node">
<title>Node4</title>
<g id="a_node4"><a xlink:href="JKRDisposer_8h.html" target="_top" xlink:title=" ">
<polygon fill="white" stroke="black" points="23.5,-112.5 23.5,-131.5 181.5,-131.5 181.5,-112.5 23.5,-112.5"/>
<text text-anchor="middle" x="102.5" y="-119.5" font-family="Helvetica,sans-Serif" font-size="10.00">JSystem/JKernel/JKRDisposer.h</text>
</a>
</g>
</g>
<!-- Node3&#45;&gt;Node4 -->
<g id="edge3" class="edge">
<title>Node3&#45;&gt;Node4</title>
<path fill="none" stroke="midnightblue" d="M227.89,-168.44C203.04,-159.44 163.73,-145.19 135.75,-135.05"/>
<polygon fill="midnightblue" stroke="midnightblue" points="136.59,-131.63 126,-131.52 134.21,-138.21 136.59,-131.63"/>
</g>
<!-- Node3&#45;&gt;Node6 -->
<g id="edge11" class="edge">
<title>Node3&#45;&gt;Node6</title>
<path fill="none" stroke="midnightblue" d="M244.91,-168.32C236.37,-156 223.17,-132.63 228.5,-112 235.62,-84.46 240.65,-77.31 259.5,-56 270.35,-43.74 285.1,-32.86 297.5,-24.87"/>
<polygon fill="midnightblue" stroke="midnightblue" points="299.36,-27.84 306.01,-19.59 295.67,-21.89 299.36,-27.84"/>
</g>
<!-- Node7 -->
<g id="node7" class="node">
<title>Node7</title>
<g id="a_node7"><a xlink:href="OS_8h.html" target="_top" xlink:title=" ">
<polygon fill="white" stroke="black" points="237.5,-112.5 237.5,-131.5 323.5,-131.5 323.5,-112.5 237.5,-112.5"/>
<text text-anchor="middle" x="280.5" y="-119.5" font-family="Helvetica,sans-Serif" font-size="10.00">dolphin/os/OS.h</text>
</a>
</g>
</g>
<!-- Node3&#45;&gt;Node7 -->
<g id="edge7" class="edge">
<title>Node3&#45;&gt;Node7</title>
<path fill="none" stroke="midnightblue" d="M256.29,-168.08C260.26,-160.69 266.03,-149.95 270.93,-140.81"/>
<polygon fill="midnightblue" stroke="midnightblue" points="274.15,-142.22 275.8,-131.75 267.99,-138.91 274.15,-142.22"/>
</g>
<!-- Node5 -->
<g id="node5" class="node">
<title>Node5</title>
<g id="a_node5"><a xlink:href="JSUList_8h.html" target="_top" xlink:title=" ">
<polygon fill="white" stroke="black" points="0,-56.5 0,-75.5 143,-75.5 143,-56.5 0,-56.5"/>
<text text-anchor="middle" x="71.5" y="-63.5" font-family="Helvetica,sans-Serif" font-size="10.00">JSystem/JSupport/JSUList.h</text>
</a>
</g>
</g>
<!-- Node4&#45;&gt;Node5 -->
<g id="edge4" class="edge">
<title>Node4&#45;&gt;Node5</title>
<path fill="none" stroke="midnightblue" d="M97.38,-112.08C93.09,-104.61 86.84,-93.72 81.56,-84.52"/>
<polygon fill="midnightblue" stroke="midnightblue" points="84.54,-82.68 76.52,-75.75 78.47,-86.17 84.54,-82.68"/>
</g>
<!-- Node4&#45;&gt;Node6 -->
<g id="edge6" class="edge">
<title>Node4&#45;&gt;Node6</title>
<path fill="none" stroke="midnightblue" d="M112.79,-112.41C129.34,-98.93 163.29,-72.63 195.5,-56 222.83,-41.89 255.6,-30.34 280.87,-22.47"/>
<polygon fill="midnightblue" stroke="midnightblue" points="281.96,-25.8 290.51,-19.54 279.92,-19.1 281.96,-25.8"/>
</g>
<!-- Node5&#45;&gt;Node6 -->
<g id="edge5" class="edge">
<title>Node5&#45;&gt;Node6</title>
<path fill="none" stroke="midnightblue" d="M111.11,-56.44C154.73,-47.02 224.9,-31.87 272.08,-21.68"/>
<polygon fill="midnightblue" stroke="midnightblue" points="273.04,-25.05 282.07,-19.52 271.56,-18.21 273.04,-25.05"/>
</g>
<!-- Node7&#45;&gt;Node6 -->
<g id="edge8" class="edge">
<title>Node7&#45;&gt;Node6</title>
<path fill="none" stroke="midnightblue" d="M275.18,-112.18C268.14,-99.28 257.6,-74.78 266.5,-56 272.63,-43.07 284.49,-32.62 295.64,-25.05"/>
<polygon fill="midnightblue" stroke="midnightblue" points="297.69,-27.9 304.3,-19.61 293.97,-21.97 297.69,-27.9"/>
</g>
<!-- Node8 -->
<g id="node8" class="node">
<title>Node8</title>
<g id="a_node8"><a xlink:href="dvd_8h.html" target="_top" xlink:title=" ">
<polygon fill="white" stroke="black" points="275.5,-56.5 275.5,-75.5 367.5,-75.5 367.5,-56.5 275.5,-56.5"/>
<text text-anchor="middle" x="321.5" y="-63.5" font-family="Helvetica,sans-Serif" font-size="10.00">dolphin/dvd/dvd.h</text>
</a>
</g>
</g>
<!-- Node7&#45;&gt;Node8 -->
<g id="edge9" class="edge">
<title>Node7&#45;&gt;Node8</title>
<path fill="none" stroke="midnightblue" d="M287.27,-112.08C293.06,-104.46 301.56,-93.26 308.64,-83.94"/>
<polygon fill="midnightblue" stroke="midnightblue" points="311.6,-85.83 314.86,-75.75 306.02,-81.6 311.6,-85.83"/>
</g>
<!-- Node8&#45;&gt;Node6 -->
<g id="edge10" class="edge">
<title>Node8&#45;&gt;Node6</title>
<path fill="none" stroke="midnightblue" d="M321.5,-56.08C321.5,-49.01 321.5,-38.86 321.5,-29.99"/>
<polygon fill="midnightblue" stroke="midnightblue" points="325,-29.75 321.5,-19.75 318,-29.75 325,-29.75"/>
</g>
<!-- Node9&#45;&gt;Node6 -->
<g id="edge14" class="edge">
<title>Node9&#45;&gt;Node6</title>
<path fill="none" stroke="midnightblue" d="M461.72,-168.27C456.91,-146.67 441.79,-90.05 409.5,-56 395.55,-41.29 375.74,-30.58 358.44,-23.3"/>
<polygon fill="midnightblue" stroke="midnightblue" points="359.73,-20.05 349.15,-19.61 357.15,-26.55 359.73,-20.05"/>
</g>
<!-- Node11&#45;&gt;Node6 -->
<g id="edge17" class="edge">
<title>Node11&#45;&gt;Node6</title>
<path fill="none" stroke="midnightblue" d="M570.86,-168.34C549.12,-146.9 489.68,-90.63 431.5,-56 408.44,-42.27 380.41,-30.88 358.42,-22.99"/>
<polygon fill="midnightblue" stroke="midnightblue" points="359.38,-19.62 348.78,-19.61 357.06,-26.22 359.38,-19.62"/>
</g>
<!-- Node12&#45;&gt;Node6 -->
<g id="edge19" class="edge">
<title>Node12&#45;&gt;Node6</title>
<path fill="none" stroke="midnightblue" d="M604.31,-112.26C592.13,-98.08 565.96,-70.21 537.5,-56 484.88,-29.73 417.68,-18.78 372.32,-14.23"/>
<polygon fill="midnightblue" stroke="midnightblue" points="372.41,-10.72 362.13,-13.28 371.76,-17.69 372.41,-10.72"/>
</g>
</g>
</svg>
