<?xml version="1.0" encoding="UTF-8" standalone="no"?>
<!DOCTYPE svg PUBLIC "-//W3C//DTD SVG 1.1//EN"
 "http://www.w3.org/Graphics/SVG/1.1/DTD/svg11.dtd">
<!-- Generated by graphviz version 2.44.0 ()
 -->
<!-- Title: include/JSystem/JSupport/JSUInputStream.h Pages: 1 -->
<svg width="2208pt" height="631pt"
 viewBox="0.00 0.00 2207.50 631.00" xmlns="http://www.w3.org/2000/svg" xmlns:xlink="http://www.w3.org/1999/xlink">
<g id="graph0" class="graph" transform="scale(1 1) rotate(0) translate(4 627)">
<title>include/JSystem/JSupport/JSUInputStream.h</title>
<polygon fill="white" stroke="transparent" points="-4,4 -4,-627 2203.5,-627 2203.5,4 -4,4"/>
<!-- Node1 -->
<g id="node1" class="node">
<title>Node1</title>
<g id="a_node1"><a xlink:title=" ">
<polygon fill="#bfbfbf" stroke="black" points="1097.5,-592.5 1097.5,-622.5 1228.5,-622.5 1228.5,-592.5 1097.5,-592.5"/>
<text text-anchor="start" x="1105.5" y="-610.5" font-family="Helvetica,sans-Serif" font-size="10.00">include/JSystem/JSupport</text>
<text text-anchor="middle" x="1163" y="-599.5" font-family="Helvetica,sans-Serif" font-size="10.00">/JSUInputStream.h</text>
</a>
</g>
</g>
<!-- Node2 -->
<g id="node2" class="node">
<title>Node2</title>
<g id="a_node2"><a xlink:href="JSUInputStream_8cpp.html" target="_top" xlink:title=" ">
<polygon fill="white" stroke="black" points="1103.5,-458.5 1103.5,-488.5 1218.5,-488.5 1218.5,-458.5 1103.5,-458.5"/>
<text text-anchor="start" x="1111.5" y="-476.5" font-family="Helvetica,sans-Serif" font-size="10.00">libs/JSystem/JSupport</text>
<text text-anchor="middle" x="1161" y="-465.5" font-family="Helvetica,sans-Serif" font-size="10.00">/JSUInputStream.cpp</text>
</a>
</g>
</g>
<!-- Node1&#45;&gt;Node2 -->
<g id="edge1" class="edge">
<title>Node1&#45;&gt;Node2</title>
<path fill="none" stroke="midnightblue" d="M1162.63,-582.02C1162.21,-554.51 1161.55,-510.79 1161.21,-488.52"/>
<polygon fill="midnightblue" stroke="midnightblue" points="1159.13,-582.43 1162.79,-592.37 1166.13,-582.32 1159.13,-582.43"/>
</g>
<!-- Node3 -->
<g id="node3" class="node">
<title>Node3</title>
<g id="a_node3"><a xlink:href="J2DManage_8h.html" target="_top" xlink:title=" ">
<polygon fill="white" stroke="black" points="999.5,-525.5 999.5,-555.5 1134.5,-555.5 1134.5,-525.5 999.5,-525.5"/>
<text text-anchor="start" x="1007.5" y="-543.5" font-family="Helvetica,sans-Serif" font-size="10.00">include/JSystem/J2DGraph</text>
<text text-anchor="middle" x="1067" y="-532.5" font-family="Helvetica,sans-Serif" font-size="10.00">/J2DManage.h</text>
</a>
</g>
</g>
<!-- Node1&#45;&gt;Node3 -->
<g id="edge2" class="edge">
<title>Node1&#45;&gt;Node3</title>
<path fill="none" stroke="midnightblue" d="M1133.81,-586.73C1118.95,-576.68 1101.24,-564.68 1087.79,-555.58"/>
<polygon fill="midnightblue" stroke="midnightblue" points="1131.93,-589.69 1142.17,-592.4 1135.85,-583.89 1131.93,-589.69"/>
</g>
<!-- Node53 -->
<g id="node34" class="node">
<title>Node53</title>
<g id="a_node34"><a xlink:href="JSURandomInputStream_8h.html" target="_top" xlink:title=" ">
<polygon fill="white" stroke="black" points="1328,-525.5 1328,-555.5 1464,-555.5 1464,-525.5 1328,-525.5"/>
<text text-anchor="start" x="1336" y="-543.5" font-family="Helvetica,sans-Serif" font-size="10.00">include/JSystem/JSupport</text>
<text text-anchor="middle" x="1396" y="-532.5" font-family="Helvetica,sans-Serif" font-size="10.00">/JSURandomInputStream.h</text>
</a>
</g>
</g>
<!-- Node1&#45;&gt;Node53 -->
<g id="edge44" class="edge">
<title>Node1&#45;&gt;Node53</title>
<path fill="none" stroke="midnightblue" d="M1223.17,-589.71C1261.08,-579.14 1309.49,-565.63 1345.42,-555.61"/>
<polygon fill="midnightblue" stroke="midnightblue" points="1221.96,-586.42 1213.27,-592.48 1223.84,-593.16 1221.96,-586.42"/>
</g>
<!-- Node4 -->
<g id="node4" class="node">
<title>Node4</title>
<g id="a_node4"><a xlink:href="J2DManage_8cpp.html" target="_top" xlink:title=" ">
<polygon fill="white" stroke="black" points="924.5,-458.5 924.5,-488.5 1043.5,-488.5 1043.5,-458.5 924.5,-458.5"/>
<text text-anchor="start" x="932.5" y="-476.5" font-family="Helvetica,sans-Serif" font-size="10.00">libs/JSystem/J2DGraph</text>
<text text-anchor="middle" x="984" y="-465.5" font-family="Helvetica,sans-Serif" font-size="10.00">/J2DManage.cpp</text>
</a>
</g>
</g>
<!-- Node3&#45;&gt;Node4 -->
<g id="edge3" class="edge">
<title>Node3&#45;&gt;Node4</title>
<path fill="none" stroke="midnightblue" d="M1041.04,-519.17C1028.35,-509.23 1013.39,-497.51 1001.97,-488.58"/>
<polygon fill="midnightblue" stroke="midnightblue" points="1038.96,-521.99 1048.99,-525.4 1043.28,-516.47 1038.96,-521.99"/>
</g>
<!-- Node5 -->
<g id="node5" class="node">
<title>Node5</title>
<g id="a_node5"><a xlink:href="J2DScreen_8h.html" target="_top" xlink:title=" ">
<polygon fill="white" stroke="black" points="1004.5,-391.5 1004.5,-421.5 1139.5,-421.5 1139.5,-391.5 1004.5,-391.5"/>
<text text-anchor="start" x="1012.5" y="-409.5" font-family="Helvetica,sans-Serif" font-size="10.00">include/JSystem/J2DGraph</text>
<text text-anchor="middle" x="1072" y="-398.5" font-family="Helvetica,sans-Serif" font-size="10.00">/J2DScreen.h</text>
</a>
</g>
</g>
<!-- Node3&#45;&gt;Node5 -->
<g id="edge4" class="edge">
<title>Node3&#45;&gt;Node5</title>
<path fill="none" stroke="midnightblue" d="M1067.93,-515.02C1068.97,-487.51 1070.63,-443.79 1071.47,-421.52"/>
<polygon fill="midnightblue" stroke="midnightblue" points="1064.42,-515.25 1067.54,-525.37 1071.41,-515.51 1064.42,-515.25"/>
</g>
<!-- Node6 -->
<g id="node6" class="node">
<title>Node6</title>
<g id="a_node6"><a xlink:href="J2DScreen_8cpp.html" target="_top" xlink:title=" ">
<polygon fill="white" stroke="black" points="1012.5,-324.5 1012.5,-354.5 1131.5,-354.5 1131.5,-324.5 1012.5,-324.5"/>
<text text-anchor="start" x="1020.5" y="-342.5" font-family="Helvetica,sans-Serif" font-size="10.00">libs/JSystem/J2DGraph</text>
<text text-anchor="middle" x="1072" y="-331.5" font-family="Helvetica,sans-Serif" font-size="10.00">/J2DScreen.cpp</text>
</a>
</g>
</g>
<!-- Node5&#45;&gt;Node6 -->
<g id="edge5" class="edge">
<title>Node5&#45;&gt;Node6</title>
<path fill="none" stroke="midnightblue" d="M1072,-381.11C1072,-372.15 1072,-362.32 1072,-354.58"/>
<polygon fill="midnightblue" stroke="midnightblue" points="1068.5,-381.4 1072,-391.4 1075.5,-381.4 1068.5,-381.4"/>
</g>
<!-- Node7 -->
<g id="node7" class="node">
<title>Node7</title>
<g id="a_node7"><a xlink:href="d__drawlist_8h.html" target="_top" xlink:title=" ">
<polygon fill="white" stroke="black" points="701,-330 701,-349 811,-349 811,-330 701,-330"/>
<text text-anchor="middle" x="756" y="-337" font-family="Helvetica,sans-Serif" font-size="10.00">include/d/d_drawlist.h</text>
</a>
</g>
</g>
<!-- Node5&#45;&gt;Node7 -->
<g id="edge6" class="edge">
<title>Node5&#45;&gt;Node7</title>
<path fill="none" stroke="midnightblue" d="M994.05,-389.47C931.94,-376.69 847.4,-359.3 797.57,-349.05"/>
<polygon fill="midnightblue" stroke="midnightblue" points="993.71,-392.97 1004.21,-391.56 995.12,-386.11 993.71,-392.97"/>
</g>
<!-- Node42 -->
<g id="node27" class="node">
<title>Node42</title>
<g id="a_node27"><a xlink:href="d__select__icon_8h.html" target="_top" xlink:title=" ">
<polygon fill="white" stroke="black" points="1116.5,-190.5 1116.5,-220.5 1211.5,-220.5 1211.5,-190.5 1116.5,-190.5"/>
<text text-anchor="start" x="1124.5" y="-208.5" font-family="Helvetica,sans-Serif" font-size="10.00">include/d/d_select</text>
<text text-anchor="middle" x="1164" y="-197.5" font-family="Helvetica,sans-Serif" font-size="10.00">_icon.h</text>
</a>
</g>
</g>
<!-- Node5&#45;&gt;Node42 -->
<g id="edge35" class="edge">
<title>Node5&#45;&gt;Node42</title>
<path fill="none" stroke="midnightblue" d="M1032.59,-386.01C1020.9,-378.11 1009.49,-367.78 1003,-355 996.77,-342.71 996.76,-336.28 1003,-324 1029.18,-272.48 1089.72,-238.18 1128.65,-220.55"/>
<polygon fill="midnightblue" stroke="midnightblue" points="1030.76,-388.99 1041.09,-391.34 1034.48,-383.06 1030.76,-388.99"/>
</g>
<!-- Node44 -->
<g id="node29" class="node">
<title>Node44</title>
<g id="a_node29"><a xlink:href="d__pane__class__alpha_8h.html" target="_top" xlink:title=" ">
<polygon fill="white" stroke="black" points="1150,-324.5 1150,-354.5 1264,-354.5 1264,-324.5 1150,-324.5"/>
<text text-anchor="start" x="1158" y="-342.5" font-family="Helvetica,sans-Serif" font-size="10.00">include/d/pane/d_pane</text>
<text text-anchor="middle" x="1207" y="-331.5" font-family="Helvetica,sans-Serif" font-size="10.00">_class_alpha.h</text>
</a>
</g>
</g>
<!-- Node5&#45;&gt;Node44 -->
<g id="edge37" class="edge">
<title>Node5&#45;&gt;Node44</title>
<path fill="none" stroke="midnightblue" d="M1110.44,-386.99C1131.84,-376.69 1158.05,-364.07 1177.76,-354.58"/>
<polygon fill="midnightblue" stroke="midnightblue" points="1108.78,-383.9 1101.29,-391.4 1111.82,-390.21 1108.78,-383.9"/>
</g>
<!-- Node51 -->
<g id="node32" class="node">
<title>Node51</title>
<g id="a_node32"><a xlink:href="J2DPicture_8h.html" target="_top" xlink:title=" ">
<polygon fill="white" stroke="black" points="1419.5,-324.5 1419.5,-354.5 1554.5,-354.5 1554.5,-324.5 1419.5,-324.5"/>
<text text-anchor="start" x="1427.5" y="-342.5" font-family="Helvetica,sans-Serif" font-size="10.00">include/JSystem/J2DGraph</text>
<text text-anchor="middle" x="1487" y="-331.5" font-family="Helvetica,sans-Serif" font-size="10.00">/J2DPicture.h</text>
</a>
</g>
</g>
<!-- Node5&#45;&gt;Node51 -->
<g id="edge42" class="edge">
<title>Node5&#45;&gt;Node51</title>
<path fill="none" stroke="midnightblue" d="M1149.52,-390.8C1265.69,-372.07 1297.16,-373.37 1410,-355 1413.09,-354.5 1416.24,-353.97 1419.43,-353.42"/>
<polygon fill="midnightblue" stroke="midnightblue" points="1148.82,-387.37 1139.51,-392.43 1149.95,-394.28 1148.82,-387.37"/>
</g>
<!-- Node8 -->
<g id="node8" class="node">
<title>Node8</title>
<g id="a_node8"><a xlink:href="d__drawlist_8cpp.html" target="_top" xlink:title=" ">
<polygon fill="white" stroke="black" points="803,-263 803,-282 907,-282 907,-263 803,-263"/>
<text text-anchor="middle" x="855" y="-270" font-family="Helvetica,sans-Serif" font-size="10.00">src/d/d_drawlist.cpp</text>
</a>
</g>
</g>
<!-- Node7&#45;&gt;Node8 -->
<g id="edge7" class="edge">
<title>Node7&#45;&gt;Node8</title>
<path fill="none" stroke="midnightblue" d="M777.94,-324.09C797.53,-311.24 825.56,-292.83 841.86,-282.13"/>
<polygon fill="midnightblue" stroke="midnightblue" points="775.79,-321.32 769.35,-329.73 779.63,-327.17 775.79,-321.32"/>
</g>
<!-- Node9 -->
<g id="node9" class="node">
<title>Node9</title>
<g id="a_node9"><a xlink:href="d__a__alink_8h.html" target="_top" xlink:title=" ">
<polygon fill="white" stroke="black" points="549,-134.5 549,-153.5 665,-153.5 665,-134.5 549,-134.5"/>
<text text-anchor="middle" x="607" y="-141.5" font-family="Helvetica,sans-Serif" font-size="10.00">include/d/a/d_a_alink.h</text>
</a>
</g>
</g>
<!-- Node7&#45;&gt;Node9 -->
<g id="edge8" class="edge">
<title>Node7&#45;&gt;Node9</title>
<path fill="none" stroke="midnightblue" d="M742.84,-321.67C735.65,-312.09 726.84,-299.69 720,-288 695.71,-246.46 705.33,-226.52 674,-190 660.31,-174.05 639.66,-161.34 624.91,-153.55"/>
<polygon fill="midnightblue" stroke="midnightblue" points="740.27,-324.07 749.13,-329.88 745.83,-319.82 740.27,-324.07"/>
</g>
<!-- Node11 -->
<g id="node11" class="node">
<title>Node11</title>
<g id="a_node11"><a xlink:href="d__com__inf__game_8h.html" target="_top" xlink:title=" ">
<polygon fill="white" stroke="red" points="637,-67.5 637,-97.5 747,-97.5 747,-67.5 637,-67.5"/>
<text text-anchor="start" x="645" y="-85.5" font-family="Helvetica,sans-Serif" font-size="10.00">include/d/com/d_com</text>
<text text-anchor="middle" x="692" y="-74.5" font-family="Helvetica,sans-Serif" font-size="10.00">_inf_game.h</text>
</a>
</g>
</g>
<!-- Node7&#45;&gt;Node11 -->
<g id="edge33" class="edge">
<title>Node7&#45;&gt;Node11</title>
<path fill="none" stroke="midnightblue" d="M751.33,-319.91C739.11,-271.19 706.34,-140.63 695.52,-97.53"/>
<polygon fill="midnightblue" stroke="midnightblue" points="747.97,-320.88 753.8,-329.72 754.76,-319.17 747.97,-320.88"/>
</g>
<!-- Node26 -->
<g id="node22" class="node">
<title>Node26</title>
<g id="a_node22"><a xlink:href="d__kantera__icon__meter_8h.html" target="_top" xlink:title=" ">
<polygon fill="white" stroke="red" points="1443.5,-0.5 1443.5,-30.5 1544.5,-30.5 1544.5,-0.5 1443.5,-0.5"/>
<text text-anchor="start" x="1451.5" y="-18.5" font-family="Helvetica,sans-Serif" font-size="10.00">include/d/d_kantera</text>
<text text-anchor="middle" x="1494" y="-7.5" font-family="Helvetica,sans-Serif" font-size="10.00">_icon_meter.h</text>
</a>
</g>
</g>
<!-- Node7&#45;&gt;Node26 -->
<g id="edge34" class="edge">
<title>Node7&#45;&gt;Node26</title>
<path fill="none" stroke="midnightblue" d="M760.4,-319.84C766.02,-294.38 775,-247.26 775,-206.5 775,-206.5 775,-206.5 775,-143 775,5.54 1288.5,-60.91 1434,-31 1437.04,-30.37 1440.17,-29.7 1443.32,-29.01"/>
<polygon fill="midnightblue" stroke="midnightblue" points="756.92,-319.39 758.11,-329.91 763.74,-320.94 756.92,-319.39"/>
</g>
<!-- Node28 -->
<g id="node23" class="node">
<title>Node28</title>
<g id="a_node23"><a xlink:href="d__a__player_8h.html" target="_top" xlink:title=" ">
<polygon fill="white" stroke="black" points="443.5,-263 443.5,-282 564.5,-282 564.5,-263 443.5,-263"/>
<text text-anchor="middle" x="504" y="-270" font-family="Helvetica,sans-Serif" font-size="10.00">include/d/a/d_a_player.h</text>
</a>
</g>
</g>
<!-- Node7&#45;&gt;Node28 -->
<g id="edge23" class="edge">
<title>Node7&#45;&gt;Node28</title>
<path fill="none" stroke="midnightblue" d="M712.98,-327.4C663.25,-314.58 582.45,-293.74 537.28,-282.08"/>
<polygon fill="midnightblue" stroke="midnightblue" points="712.24,-330.83 722.8,-329.94 713.99,-324.05 712.24,-330.83"/>
</g>
<!-- Node10 -->
<g id="node10" class="node">
<title>Node10</title>
<g id="a_node10"><a xlink:href="d__a__alink_8cpp.html" target="_top" xlink:title=" ">
<polygon fill="white" stroke="black" points="271.5,-6 271.5,-25 380.5,-25 380.5,-6 271.5,-6"/>
<text text-anchor="middle" x="326" y="-13" font-family="Helvetica,sans-Serif" font-size="10.00">src/d/a/d_a_alink.cpp</text>
</a>
</g>
</g>
<!-- Node9&#45;&gt;Node10 -->
<g id="edge9" class="edge">
<title>Node9&#45;&gt;Node10</title>
<path fill="none" stroke="midnightblue" d="M578.48,-130.16C521.18,-104.37 393.46,-46.87 345.08,-25.09"/>
<polygon fill="midnightblue" stroke="midnightblue" points="577.13,-133.39 587.69,-134.31 580,-127.01 577.13,-133.39"/>
</g>
<!-- Node9&#45;&gt;Node11 -->
<g id="edge10" class="edge">
<title>Node9&#45;&gt;Node11</title>
<path fill="none" stroke="midnightblue" d="M627.37,-128.74C640.88,-119.28 658.53,-106.93 671.97,-97.52"/>
<polygon fill="midnightblue" stroke="midnightblue" points="625.36,-125.87 619.18,-134.48 629.38,-131.61 625.36,-125.87"/>
</g>
<!-- Node11&#45;&gt;Node10 -->
<g id="edge13" class="edge">
<title>Node11&#45;&gt;Node10</title>
<path fill="none" stroke="midnightblue" d="M627.08,-71.74C565.79,-62.27 471.4,-47.01 390,-31 380.95,-29.22 371.21,-27.11 362.14,-25.07"/>
<polygon fill="midnightblue" stroke="midnightblue" points="626.58,-75.21 637,-73.27 627.65,-68.29 626.58,-75.21"/>
</g>
<!-- Node12 -->
<g id="node12" class="node">
<title>Node12</title>
<g id="a_node12"><a xlink:href="d__a__player_8cpp.html" target="_top" xlink:title=" ">
<polygon fill="white" stroke="black" points="0,-6 0,-25 114,-25 114,-6 0,-6"/>
<text text-anchor="middle" x="57" y="-13" font-family="Helvetica,sans-Serif" font-size="10.00">src/d/a/d_a_player.cpp</text>
</a>
</g>
</g>
<!-- Node11&#45;&gt;Node12 -->
<g id="edge11" class="edge">
<title>Node11&#45;&gt;Node12</title>
<path fill="none" stroke="midnightblue" d="M626.55,-78.41C520.38,-72.8 304.19,-58.83 123,-31 112.8,-29.43 101.81,-27.23 91.78,-25.01"/>
<polygon fill="midnightblue" stroke="midnightblue" points="626.62,-81.92 636.79,-78.95 626.99,-74.93 626.62,-81.92"/>
</g>
<!-- Node13 -->
<g id="node13" class="node">
<title>Node13</title>
<g id="a_node13"><a xlink:href="d__com__inf__game_8cpp.html" target="_top" xlink:title=" ">
<polygon fill="white" stroke="black" points="399,-0.5 399,-30.5 507,-30.5 507,-0.5 399,-0.5"/>
<text text-anchor="start" x="407" y="-18.5" font-family="Helvetica,sans-Serif" font-size="10.00">src/d/com/d_com_inf</text>
<text text-anchor="middle" x="453" y="-7.5" font-family="Helvetica,sans-Serif" font-size="10.00">_game.cpp</text>
</a>
</g>
</g>
<!-- Node11&#45;&gt;Node13 -->
<g id="edge12" class="edge">
<title>Node11&#45;&gt;Node13</title>
<path fill="none" stroke="midnightblue" d="M630.78,-64.85C591.81,-54.25 541.9,-40.68 504.88,-30.61"/>
<polygon fill="midnightblue" stroke="midnightblue" points="629.87,-68.23 640.43,-67.48 631.7,-61.47 629.87,-68.23"/>
</g>
<!-- Node14 -->
<g id="node14" class="node">
<title>Node14</title>
<g id="a_node14"><a xlink:href="d__resorce_8cpp.html" target="_top" xlink:title=" ">
<polygon fill="white" stroke="black" points="525,-6 525,-25 627,-25 627,-6 525,-6"/>
<text text-anchor="middle" x="576" y="-13" font-family="Helvetica,sans-Serif" font-size="10.00">src/d/d_resorce.cpp</text>
</a>
</g>
</g>
<!-- Node11&#45;&gt;Node14 -->
<g id="edge14" class="edge">
<title>Node11&#45;&gt;Node14</title>
<path fill="none" stroke="midnightblue" d="M658.04,-62.47C635.9,-50.06 608.07,-34.47 591.18,-25.01"/>
<polygon fill="midnightblue" stroke="midnightblue" points="656.4,-65.56 666.83,-67.4 659.82,-59.45 656.4,-65.56"/>
</g>
<!-- Node15 -->
<g id="node15" class="node">
<title>Node15</title>
<g id="a_node15"><a xlink:href="d__stage_8cpp.html" target="_top" xlink:title=" ">
<polygon fill="white" stroke="black" points="645,-6 645,-25 739,-25 739,-6 645,-6"/>
<text text-anchor="middle" x="692" y="-13" font-family="Helvetica,sans-Serif" font-size="10.00">src/d/d_stage.cpp</text>
</a>
</g>
</g>
<!-- Node11&#45;&gt;Node15 -->
<g id="edge15" class="edge">
<title>Node11&#45;&gt;Node15</title>
<path fill="none" stroke="midnightblue" d="M692,-57.25C692,-46.02 692,-33.38 692,-25.19"/>
<polygon fill="midnightblue" stroke="midnightblue" points="688.5,-57.4 692,-67.4 695.5,-57.4 688.5,-57.4"/>
</g>
<!-- Node16 -->
<g id="node16" class="node">
<title>Node16</title>
<g id="a_node16"><a xlink:href="d__event_8cpp.html" target="_top" xlink:title=" ">
<polygon fill="white" stroke="black" points="132.5,-6 132.5,-25 253.5,-25 253.5,-6 132.5,-6"/>
<text text-anchor="middle" x="193" y="-13" font-family="Helvetica,sans-Serif" font-size="10.00">src/d/event/d_event.cpp</text>
</a>
</g>
</g>
<!-- Node11&#45;&gt;Node16 -->
<g id="edge16" class="edge">
<title>Node11&#45;&gt;Node16</title>
<path fill="none" stroke="midnightblue" d="M626.84,-75.69C542.37,-67.75 390.67,-52.03 262,-31 251.73,-29.32 240.68,-27.16 230.49,-25.02"/>
<polygon fill="midnightblue" stroke="midnightblue" points="626.51,-79.18 636.8,-76.62 627.17,-72.21 626.51,-79.18"/>
</g>
<!-- Node17 -->
<g id="node17" class="node">
<title>Node17</title>
<g id="a_node17"><a xlink:href="d__event__manager_8cpp.html" target="_top" xlink:title=" ">
<polygon fill="white" stroke="black" points="757.5,-0.5 757.5,-30.5 860.5,-30.5 860.5,-0.5 757.5,-0.5"/>
<text text-anchor="start" x="765.5" y="-18.5" font-family="Helvetica,sans-Serif" font-size="10.00">src/d/event/d_event</text>
<text text-anchor="middle" x="809" y="-7.5" font-family="Helvetica,sans-Serif" font-size="10.00">_manager.cpp</text>
</a>
</g>
</g>
<!-- Node11&#45;&gt;Node17 -->
<g id="edge17" class="edge">
<title>Node11&#45;&gt;Node17</title>
<path fill="none" stroke="midnightblue" d="M726.32,-62.44C744.67,-52.24 766.88,-39.9 783.66,-30.58"/>
<polygon fill="midnightblue" stroke="midnightblue" points="724.43,-59.48 717.39,-67.4 727.83,-65.6 724.43,-59.48"/>
</g>
<!-- Node18 -->
<g id="node18" class="node">
<title>Node18</title>
<g id="a_node18"><a xlink:href="d__kankyo_8cpp.html" target="_top" xlink:title=" ">
<polygon fill="white" stroke="black" points="879,-6 879,-25 1013,-25 1013,-6 879,-6"/>
<text text-anchor="middle" x="946" y="-13" font-family="Helvetica,sans-Serif" font-size="10.00">src/d/kankyo/d_kankyo.cpp</text>
</a>
</g>
</g>
<!-- Node11&#45;&gt;Node18 -->
<g id="edge18" class="edge">
<title>Node11&#45;&gt;Node18</title>
<path fill="none" stroke="midnightblue" d="M756.52,-64.99C806.29,-52.25 873.13,-35.15 912.67,-25.03"/>
<polygon fill="midnightblue" stroke="midnightblue" points="755.62,-61.61 746.8,-67.48 757.36,-68.39 755.62,-61.61"/>
</g>
<!-- Node19 -->
<g id="node19" class="node">
<title>Node19</title>
<g id="a_node19"><a xlink:href="d__meter2__info_8cpp.html" target="_top" xlink:title=" ">
<polygon fill="white" stroke="black" points="1031,-0.5 1031,-30.5 1141,-30.5 1141,-0.5 1031,-0.5"/>
<text text-anchor="start" x="1039" y="-18.5" font-family="Helvetica,sans-Serif" font-size="10.00">src/d/meter/d_meter2</text>
<text text-anchor="middle" x="1086" y="-7.5" font-family="Helvetica,sans-Serif" font-size="10.00">_info.cpp</text>
</a>
</g>
</g>
<!-- Node11&#45;&gt;Node19 -->
<g id="edge19" class="edge">
<title>Node11&#45;&gt;Node19</title>
<path fill="none" stroke="midnightblue" d="M757.2,-67.67C758.48,-67.44 759.75,-67.22 761,-67 876.37,-46.95 906.79,-51.96 1022,-31 1024.91,-30.47 1027.9,-29.9 1030.9,-29.3"/>
<polygon fill="midnightblue" stroke="midnightblue" points="756.48,-64.25 747.3,-69.52 757.77,-71.13 756.48,-64.25"/>
</g>
<!-- Node20 -->
<g id="node20" class="node">
<title>Node20</title>
<g id="a_node20"><a xlink:href="d__msg__flow_8cpp.html" target="_top" xlink:title=" ">
<polygon fill="white" stroke="black" points="1159.5,-6 1159.5,-25 1292.5,-25 1292.5,-6 1159.5,-6"/>
<text text-anchor="middle" x="1226" y="-13" font-family="Helvetica,sans-Serif" font-size="10.00">src/d/msg/d_msg_flow.cpp</text>
</a>
</g>
</g>
<!-- Node11&#45;&gt;Node20 -->
<g id="edge20" class="edge">
<title>Node11&#45;&gt;Node20</title>
<path fill="none" stroke="midnightblue" d="M757.19,-67.59C758.47,-67.39 759.74,-67.19 761,-67 932.69,-41.1 978.08,-55.3 1150,-31 1161.44,-29.38 1173.77,-27.22 1185.1,-25.05"/>
<polygon fill="midnightblue" stroke="midnightblue" points="756.52,-64.16 747.26,-69.3 757.71,-71.06 756.52,-64.16"/>
</g>
<!-- Node21 -->
<g id="node21" class="node">
<title>Node21</title>
<g id="a_node21"><a xlink:href="d__save_8cpp.html" target="_top" xlink:title=" ">
<polygon fill="white" stroke="black" points="1310.5,-6 1310.5,-25 1425.5,-25 1425.5,-6 1310.5,-6"/>
<text text-anchor="middle" x="1368" y="-13" font-family="Helvetica,sans-Serif" font-size="10.00">src/d/save/d_save.cpp</text>
</a>
</g>
</g>
<!-- Node11&#45;&gt;Node21 -->
<g id="edge21" class="edge">
<title>Node11&#45;&gt;Node21</title>
<path fill="none" stroke="midnightblue" d="M757.18,-67.55C758.46,-67.36 759.74,-67.17 761,-67 999.28,-34.19 1062.82,-64.53 1301,-31 1311.61,-29.51 1323.04,-27.27 1333.4,-25"/>
<polygon fill="midnightblue" stroke="midnightblue" points="756.54,-64.11 747.24,-69.18 757.68,-71.02 756.54,-64.11"/>
</g>
<!-- Node11&#45;&gt;Node26 -->
<g id="edge22" class="edge">
<title>Node11&#45;&gt;Node26</title>
<path fill="none" stroke="midnightblue" d="M757.18,-67.53C758.46,-67.34 759.74,-67.17 761,-67 1058,-28.08 1137.62,-74.36 1434,-31 1437.08,-30.55 1440.22,-30.02 1443.39,-29.42"/>
<polygon fill="midnightblue" stroke="midnightblue" points="756.56,-64.08 747.23,-69.11 757.66,-70.99 756.56,-64.08"/>
</g>
<!-- Node28&#45;&gt;Node9 -->
<g id="edge25" class="edge">
<title>Node28&#45;&gt;Node9</title>
<path fill="none" stroke="midnightblue" d="M509.43,-253.16C515.32,-235.54 526.08,-208.87 542,-190 555.36,-174.16 575.58,-161.35 589.91,-153.51"/>
<polygon fill="midnightblue" stroke="midnightblue" points="506.06,-252.22 506.39,-262.81 512.73,-254.33 506.06,-252.22"/>
</g>
<!-- Node28&#45;&gt;Node12 -->
<g id="edge24" class="edge">
<title>Node28&#45;&gt;Node12</title>
<path fill="none" stroke="midnightblue" d="M455.79,-260.5C423.21,-252.07 379.79,-238.84 344,-221 225.18,-161.77 101.58,-56.02 66.68,-25.17"/>
<polygon fill="midnightblue" stroke="midnightblue" points="454.97,-263.91 465.53,-262.97 456.69,-257.12 454.97,-263.91"/>
</g>
<!-- Node29 -->
<g id="node24" class="node">
<title>Node29</title>
<g id="a_node24"><a xlink:href="d__bg__s__acch_8h.html" target="_top" xlink:title=" ">
<polygon fill="white" stroke="red" points="353,-190.5 353,-220.5 457,-220.5 457,-190.5 353,-190.5"/>
<text text-anchor="start" x="361" y="-208.5" font-family="Helvetica,sans-Serif" font-size="10.00">include/d/bg/d_bg_s</text>
<text text-anchor="middle" x="405" y="-197.5" font-family="Helvetica,sans-Serif" font-size="10.00">_acch.h</text>
</a>
</g>
</g>
<!-- Node28&#45;&gt;Node29 -->
<g id="edge26" class="edge">
<title>Node28&#45;&gt;Node29</title>
<path fill="none" stroke="midnightblue" d="M482.15,-257.15C465.58,-246.27 442.93,-231.4 426.46,-220.59"/>
<polygon fill="midnightblue" stroke="midnightblue" points="480.37,-260.17 490.65,-262.73 484.21,-254.32 480.37,-260.17"/>
</g>
<!-- Node39 -->
<g id="node25" class="node">
<title>Node39</title>
<g id="a_node25"><a xlink:href="d__attention_8h.html" target="_top" xlink:title=" ">
<polygon fill="white" stroke="red" points="551,-196 551,-215 665,-215 665,-196 551,-196"/>
<text text-anchor="middle" x="608" y="-203" font-family="Helvetica,sans-Serif" font-size="10.00">include/d/d_attention.h</text>
</a>
</g>
</g>
<!-- Node28&#45;&gt;Node39 -->
<g id="edge27" class="edge">
<title>Node28&#45;&gt;Node39</title>
<path fill="none" stroke="midnightblue" d="M526.77,-257.27C547.36,-244.4 576.99,-225.88 594.2,-215.13"/>
<polygon fill="midnightblue" stroke="midnightblue" points="524.65,-254.47 518.03,-262.73 528.36,-260.4 524.65,-254.47"/>
</g>
<!-- Node41 -->
<g id="node26" class="node">
<title>Node41</title>
<g id="a_node26"><a xlink:href="d__event_8h.html" target="_top" xlink:title=" ">
<polygon fill="white" stroke="black" points="403,-134.5 403,-153.5 531,-153.5 531,-134.5 403,-134.5"/>
<text text-anchor="middle" x="467" y="-141.5" font-family="Helvetica,sans-Serif" font-size="10.00">include/d/event/d_event.h</text>
</a>
</g>
</g>
<!-- Node28&#45;&gt;Node41 -->
<g id="edge30" class="edge">
<title>Node28&#45;&gt;Node41</title>
<path fill="none" stroke="midnightblue" d="M498.64,-253.17C490.55,-225.53 475.55,-174.22 469.56,-153.76"/>
<polygon fill="midnightblue" stroke="midnightblue" points="495.29,-254.19 501.46,-262.81 502.01,-252.22 495.29,-254.19"/>
</g>
<!-- Node39&#45;&gt;Node9 -->
<g id="edge28" class="edge">
<title>Node39&#45;&gt;Node9</title>
<path fill="none" stroke="midnightblue" d="M607.69,-185.82C607.5,-175 607.28,-161.9 607.14,-153.51"/>
<polygon fill="midnightblue" stroke="midnightblue" points="604.19,-186.04 607.86,-195.98 611.19,-185.92 604.19,-186.04"/>
</g>
<!-- Node39&#45;&gt;Node11 -->
<g id="edge29" class="edge">
<title>Node39&#45;&gt;Node11</title>
<path fill="none" stroke="midnightblue" d="M633.38,-190.8C647.33,-182.03 663.82,-169.4 674,-154 685.42,-136.71 689.59,-112.64 691.12,-97.57"/>
<polygon fill="midnightblue" stroke="midnightblue" points="631.46,-187.87 624.67,-196 635.05,-193.88 631.46,-187.87"/>
</g>
<!-- Node41&#45;&gt;Node11 -->
<g id="edge32" class="edge">
<title>Node41&#45;&gt;Node11</title>
<path fill="none" stroke="midnightblue" d="M509.13,-131.86C545.87,-122.14 599.33,-108.01 638.97,-97.52"/>
<polygon fill="midnightblue" stroke="midnightblue" points="508.01,-128.53 499.24,-134.48 509.8,-135.3 508.01,-128.53"/>
</g>
<!-- Node41&#45;&gt;Node16 -->
<g id="edge31" class="edge">
<title>Node41&#45;&gt;Node16</title>
<path fill="none" stroke="midnightblue" d="M438.84,-130C382.81,-104.13 258.69,-46.83 211.6,-25.09"/>
<polygon fill="midnightblue" stroke="midnightblue" points="437.62,-133.29 448.17,-134.31 440.55,-126.94 437.62,-133.29"/>
</g>
<!-- Node43 -->
<g id="node28" class="node">
<title>Node43</title>
<g id="a_node28"><a xlink:href="d__select__icon_8cpp.html" target="_top" xlink:title=" ">
<polygon fill="white" stroke="black" points="1104.5,-134.5 1104.5,-153.5 1223.5,-153.5 1223.5,-134.5 1104.5,-134.5"/>
<text text-anchor="middle" x="1164" y="-141.5" font-family="Helvetica,sans-Serif" font-size="10.00">src/d/d_select_icon.cpp</text>
</a>
</g>
</g>
<!-- Node42&#45;&gt;Node43 -->
<g id="edge36" class="edge">
<title>Node42&#45;&gt;Node43</title>
<path fill="none" stroke="midnightblue" d="M1164,-180.29C1164,-170.86 1164,-160.65 1164,-153.66"/>
<polygon fill="midnightblue" stroke="midnightblue" points="1160.5,-180.4 1164,-190.4 1167.5,-180.4 1160.5,-180.4"/>
</g>
<!-- Node45 -->
<g id="node30" class="node">
<title>Node45</title>
<g id="a_node30"><a xlink:href="d__pane__class__alpha_8cpp.html" target="_top" xlink:title=" ">
<polygon fill="white" stroke="black" points="1144.5,-257.5 1144.5,-287.5 1269.5,-287.5 1269.5,-257.5 1144.5,-257.5"/>
<text text-anchor="start" x="1152.5" y="-275.5" font-family="Helvetica,sans-Serif" font-size="10.00">src/d/pane/d_pane_class</text>
<text text-anchor="middle" x="1207" y="-264.5" font-family="Helvetica,sans-Serif" font-size="10.00">_alpha.cpp</text>
</a>
</g>
</g>
<!-- Node44&#45;&gt;Node45 -->
<g id="edge38" class="edge">
<title>Node44&#45;&gt;Node45</title>
<path fill="none" stroke="midnightblue" d="M1207,-314.11C1207,-305.15 1207,-295.32 1207,-287.58"/>
<polygon fill="midnightblue" stroke="midnightblue" points="1203.5,-314.4 1207,-324.4 1210.5,-314.4 1203.5,-314.4"/>
</g>
<!-- Node46 -->
<g id="node31" class="node">
<title>Node46</title>
<g id="a_node31"><a xlink:href="d__pane__class_8h.html" target="_top" xlink:title=" ">
<polygon fill="white" stroke="red" points="1291,-257.5 1291,-287.5 1405,-287.5 1405,-257.5 1291,-257.5"/>
<text text-anchor="start" x="1299" y="-275.5" font-family="Helvetica,sans-Serif" font-size="10.00">include/d/pane/d_pane</text>
<text text-anchor="middle" x="1348" y="-264.5" font-family="Helvetica,sans-Serif" font-size="10.00">_class.h</text>
</a>
</g>
</g>
<!-- Node44&#45;&gt;Node46 -->
<g id="edge39" class="edge">
<title>Node44&#45;&gt;Node46</title>
<path fill="none" stroke="midnightblue" d="M1246.85,-320.13C1269.25,-309.8 1296.78,-297.11 1317.46,-287.58"/>
<polygon fill="midnightblue" stroke="midnightblue" points="1245.21,-317.03 1237.59,-324.4 1248.14,-323.39 1245.21,-317.03"/>
</g>
<!-- Node46&#45;&gt;Node26 -->
<g id="edge40" class="edge">
<title>Node46&#45;&gt;Node26</title>
<path fill="none" stroke="midnightblue" d="M1361.07,-248.67C1390.65,-197.02 1461.97,-72.44 1485.97,-30.53"/>
<polygon fill="midnightblue" stroke="midnightblue" points="1357.99,-247.01 1356.06,-257.43 1364.06,-250.49 1357.99,-247.01"/>
</g>
<!-- Node46&#45;&gt;Node42 -->
<g id="edge41" class="edge">
<title>Node46&#45;&gt;Node42</title>
<path fill="none" stroke="midnightblue" d="M1298.33,-253.96C1268.7,-243.48 1231.56,-230.37 1203.85,-220.58"/>
<polygon fill="midnightblue" stroke="midnightblue" points="1297.48,-257.37 1308.07,-257.4 1299.81,-250.76 1297.48,-257.37"/>
</g>
<!-- Node52 -->
<g id="node33" class="node">
<title>Node52</title>
<g id="a_node33"><a xlink:href="J2DPicture_8cpp.html" target="_top" xlink:title=" ">
<polygon fill="white" stroke="black" points="1427.5,-257.5 1427.5,-287.5 1546.5,-287.5 1546.5,-257.5 1427.5,-257.5"/>
<text text-anchor="start" x="1435.5" y="-275.5" font-family="Helvetica,sans-Serif" font-size="10.00">libs/JSystem/J2DGraph</text>
<text text-anchor="middle" x="1487" y="-264.5" font-family="Helvetica,sans-Serif" font-size="10.00">/J2DPicture.cpp</text>
</a>
</g>
</g>
<!-- Node51&#45;&gt;Node52 -->
<g id="edge43" class="edge">
<title>Node51&#45;&gt;Node52</title>
<path fill="none" stroke="midnightblue" d="M1487,-314.11C1487,-305.15 1487,-295.32 1487,-287.58"/>
<polygon fill="midnightblue" stroke="midnightblue" points="1483.5,-314.4 1487,-324.4 1490.5,-314.4 1483.5,-314.4"/>
</g>
<!-- Node53&#45;&gt;Node2 -->
<g id="edge45" class="edge">
<title>Node53&#45;&gt;Node2</title>
<path fill="none" stroke="midnightblue" d="M1335.32,-522.71C1297.07,-512.14 1248.26,-498.63 1212.02,-488.61"/>
<polygon fill="midnightblue" stroke="midnightblue" points="1334.73,-526.18 1345.3,-525.48 1336.59,-519.44 1334.73,-526.18"/>
</g>
<!-- Node54 -->
<g id="node35" class="node">
<title>Node54</title>
<g id="a_node35"><a xlink:href="J2DPane_8h.html" target="_top" xlink:title=" ">
<polygon fill="white" stroke="black" points="1424.5,-458.5 1424.5,-488.5 1559.5,-488.5 1559.5,-458.5 1424.5,-458.5"/>
<text text-anchor="start" x="1432.5" y="-476.5" font-family="Helvetica,sans-Serif" font-size="10.00">include/JSystem/J2DGraph</text>
<text text-anchor="middle" x="1492" y="-465.5" font-family="Helvetica,sans-Serif" font-size="10.00">/J2DPane.h</text>
</a>
</g>
</g>
<!-- Node53&#45;&gt;Node54 -->
<g id="edge46" class="edge">
<title>Node53&#45;&gt;Node54</title>
<path fill="none" stroke="midnightblue" d="M1425.19,-519.73C1440.05,-509.68 1457.76,-497.68 1471.21,-488.58"/>
<polygon fill="midnightblue" stroke="midnightblue" points="1423.15,-516.89 1416.83,-525.4 1427.07,-522.69 1423.15,-516.89"/>
</g>
<!-- Node59 -->
<g id="node40" class="node">
<title>Node59</title>
<g id="a_node40"><a xlink:href="J2DWindow_8h.html" target="_top" xlink:title=" ">
<polygon fill="white" stroke="black" points="1157.5,-391.5 1157.5,-421.5 1292.5,-421.5 1292.5,-391.5 1157.5,-391.5"/>
<text text-anchor="start" x="1165.5" y="-409.5" font-family="Helvetica,sans-Serif" font-size="10.00">include/JSystem/J2DGraph</text>
<text text-anchor="middle" x="1225" y="-398.5" font-family="Helvetica,sans-Serif" font-size="10.00">/J2DWindow.h</text>
</a>
</g>
</g>
<!-- Node53&#45;&gt;Node59 -->
<g id="edge57" class="edge">
<title>Node53&#45;&gt;Node59</title>
<path fill="none" stroke="midnightblue" d="M1396.03,-515.19C1394.76,-497.27 1390.21,-473.42 1376,-458 1363.41,-444.33 1322.36,-431.08 1286.24,-421.59"/>
<polygon fill="midnightblue" stroke="midnightblue" points="1392.53,-515.35 1396.44,-525.2 1399.52,-515.06 1392.53,-515.35"/>
</g>
<!-- Node61 -->
<g id="node42" class="node">
<title>Node61</title>
<g id="a_node42"><a xlink:href="JKRAramStream_8h.html" target="_top" xlink:title=" ">
<polygon fill="white" stroke="black" points="1645.5,-391.5 1645.5,-421.5 1770.5,-421.5 1770.5,-391.5 1645.5,-391.5"/>
<text text-anchor="start" x="1653.5" y="-409.5" font-family="Helvetica,sans-Serif" font-size="10.00">include/JSystem/JKernel</text>
<text text-anchor="middle" x="1708" y="-398.5" font-family="Helvetica,sans-Serif" font-size="10.00">/JKRAramStream.h</text>
</a>
</g>
</g>
<!-- Node53&#45;&gt;Node61 -->
<g id="edge58" class="edge">
<title>Node53&#45;&gt;Node61</title>
<path fill="none" stroke="midnightblue" d="M1466.98,-522.8C1498.54,-514.33 1535.76,-502.88 1568,-489 1612.69,-469.77 1660.92,-439.31 1687.49,-421.58"/>
<polygon fill="midnightblue" stroke="midnightblue" points="1465.73,-519.51 1456.95,-525.44 1467.51,-526.28 1465.73,-519.51"/>
</g>
<!-- Node64 -->
<g id="node45" class="node">
<title>Node64</title>
<g id="a_node45"><a xlink:href="JSUFileStream_8h.html" target="_top" xlink:title=" ">
<polygon fill="white" stroke="black" points="1777.5,-458.5 1777.5,-488.5 1908.5,-488.5 1908.5,-458.5 1777.5,-458.5"/>
<text text-anchor="start" x="1785.5" y="-476.5" font-family="Helvetica,sans-Serif" font-size="10.00">include/JSystem/JSupport</text>
<text text-anchor="middle" x="1843" y="-465.5" font-family="Helvetica,sans-Serif" font-size="10.00">/JSUFileStream.h</text>
</a>
</g>
</g>
<!-- Node53&#45;&gt;Node64 -->
<g id="edge61" class="edge">
<title>Node53&#45;&gt;Node64</title>
<path fill="none" stroke="midnightblue" d="M1474.34,-528.11C1560.25,-515.62 1696.59,-495.79 1777.18,-484.07"/>
<polygon fill="midnightblue" stroke="midnightblue" points="1473.77,-524.65 1464.38,-529.56 1474.78,-531.58 1473.77,-524.65"/>
</g>
<!-- Node68 -->
<g id="node49" class="node">
<title>Node68</title>
<g id="a_node49"><a xlink:href="JSUMemoryStream_8h.html" target="_top" xlink:title=" ">
<polygon fill="white" stroke="black" points="1236.5,-458.5 1236.5,-488.5 1367.5,-488.5 1367.5,-458.5 1236.5,-458.5"/>
<text text-anchor="start" x="1244.5" y="-476.5" font-family="Helvetica,sans-Serif" font-size="10.00">include/JSystem/JSupport</text>
<text text-anchor="middle" x="1302" y="-465.5" font-family="Helvetica,sans-Serif" font-size="10.00">/JSUMemoryStream.h</text>
</a>
</g>
</g>
<!-- Node53&#45;&gt;Node68 -->
<g id="edge66" class="edge">
<title>Node53&#45;&gt;Node68</title>
<path fill="none" stroke="midnightblue" d="M1367.01,-519.45C1352.55,-509.45 1335.41,-497.6 1322.36,-488.58"/>
<polygon fill="midnightblue" stroke="midnightblue" points="1365.39,-522.59 1375.6,-525.4 1369.37,-516.83 1365.39,-522.59"/>
</g>
<!-- Node54&#45;&gt;Node5 -->
<g id="edge50" class="edge">
<title>Node54&#45;&gt;Node5</title>
<path fill="none" stroke="midnightblue" d="M1414.27,-462.06C1344.45,-452.44 1239.2,-437.39 1148,-422 1145.22,-421.53 1142.38,-421.04 1139.52,-420.54"/>
<polygon fill="midnightblue" stroke="midnightblue" points="1413.92,-465.54 1424.31,-463.43 1414.88,-458.61 1413.92,-465.54"/>
</g>
<!-- Node54&#45;&gt;Node51 -->
<g id="edge49" class="edge">
<title>Node54&#45;&gt;Node51</title>
<path fill="none" stroke="midnightblue" d="M1558.45,-454.13C1573.67,-446.68 1588,-436.32 1597,-422 1604.33,-410.34 1604.44,-402.6 1597,-391 1585.83,-373.58 1566.97,-362.08 1547.99,-354.54"/>
<polygon fill="midnightblue" stroke="midnightblue" points="1556.6,-451.12 1548.91,-458.4 1559.46,-457.51 1556.6,-451.12"/>
</g>
<!-- Node55 -->
<g id="node36" class="node">
<title>Node55</title>
<g id="a_node36"><a xlink:href="f__op__msg__mng_8cpp.html" target="_top" xlink:title=" ">
<polygon fill="white" stroke="black" points="1311,-397 1311,-416 1451,-416 1451,-397 1311,-397"/>
<text text-anchor="middle" x="1381" y="-404" font-family="Helvetica,sans-Serif" font-size="10.00">src/f_op/f_op_msg_mng.cpp</text>
</a>
</g>
</g>
<!-- Node54&#45;&gt;Node55 -->
<g id="edge47" class="edge">
<title>Node54&#45;&gt;Node55</title>
<path fill="none" stroke="midnightblue" d="M1459.22,-453.31C1438.08,-440.93 1411.62,-425.43 1395.53,-416.01"/>
<polygon fill="midnightblue" stroke="midnightblue" points="1457.52,-456.36 1467.91,-458.4 1461.05,-450.32 1457.52,-456.36"/>
</g>
<!-- Node56 -->
<g id="node37" class="node">
<title>Node56</title>
<g id="a_node37"><a xlink:href="J2DPane_8cpp.html" target="_top" xlink:title=" ">
<polygon fill="white" stroke="black" points="1469.5,-391.5 1469.5,-421.5 1588.5,-421.5 1588.5,-391.5 1469.5,-391.5"/>
<text text-anchor="start" x="1477.5" y="-409.5" font-family="Helvetica,sans-Serif" font-size="10.00">libs/JSystem/J2DGraph</text>
<text text-anchor="middle" x="1529" y="-398.5" font-family="Helvetica,sans-Serif" font-size="10.00">/J2DPane.cpp</text>
</a>
</g>
</g>
<!-- Node54&#45;&gt;Node56 -->
<g id="edge48" class="edge">
<title>Node54&#45;&gt;Node56</title>
<path fill="none" stroke="midnightblue" d="M1505.05,-449.58C1510.36,-440.24 1516.34,-429.75 1520.99,-421.58"/>
<polygon fill="midnightblue" stroke="midnightblue" points="1501.93,-447.97 1500.03,-458.4 1508.02,-451.44 1501.93,-447.97"/>
</g>
<!-- Node57 -->
<g id="node38" class="node">
<title>Node57</title>
<g id="a_node38"><a xlink:href="J2DTextBox_8h.html" target="_top" xlink:title=" ">
<polygon fill="white" stroke="black" points="1788.5,-391.5 1788.5,-421.5 1923.5,-421.5 1923.5,-391.5 1788.5,-391.5"/>
<text text-anchor="start" x="1796.5" y="-409.5" font-family="Helvetica,sans-Serif" font-size="10.00">include/JSystem/J2DGraph</text>
<text text-anchor="middle" x="1856" y="-398.5" font-family="Helvetica,sans-Serif" font-size="10.00">/J2DTextBox.h</text>
</a>
</g>
</g>
<!-- Node54&#45;&gt;Node57 -->
<g id="edge51" class="edge">
<title>Node54&#45;&gt;Node57</title>
<path fill="none" stroke="midnightblue" d="M1569.75,-459.08C1627.51,-449.04 1708.22,-434.89 1779,-422 1782.08,-421.44 1785.22,-420.86 1788.4,-420.28"/>
<polygon fill="midnightblue" stroke="midnightblue" points="1568.85,-455.68 1559.6,-460.84 1570.05,-462.58 1568.85,-455.68"/>
</g>
<!-- Node54&#45;&gt;Node59 -->
<g id="edge54" class="edge">
<title>Node54&#45;&gt;Node59</title>
<path fill="none" stroke="midnightblue" d="M1424.43,-456.05C1380.78,-445.43 1324.58,-431.74 1282.96,-421.61"/>
<polygon fill="midnightblue" stroke="midnightblue" points="1423.85,-459.51 1434.39,-458.48 1425.51,-452.71 1423.85,-459.51"/>
</g>
<!-- Node57&#45;&gt;Node46 -->
<g id="edge53" class="edge">
<title>Node57&#45;&gt;Node46</title>
<path fill="none" stroke="midnightblue" d="M1851.8,-381.26C1847.17,-362.4 1837.73,-337.29 1819,-324 1746.03,-272.23 1506.51,-301.1 1418,-288 1413.83,-287.38 1409.53,-286.67 1405.21,-285.91"/>
<polygon fill="midnightblue" stroke="midnightblue" points="1848.42,-382.2 1853.95,-391.23 1855.26,-380.72 1848.42,-382.2"/>
</g>
<!-- Node58 -->
<g id="node39" class="node">
<title>Node58</title>
<g id="a_node39"><a xlink:href="J2DTextBox_8cpp.html" target="_top" xlink:title=" ">
<polygon fill="white" stroke="black" points="1867.5,-324.5 1867.5,-354.5 1986.5,-354.5 1986.5,-324.5 1867.5,-324.5"/>
<text text-anchor="start" x="1875.5" y="-342.5" font-family="Helvetica,sans-Serif" font-size="10.00">libs/JSystem/J2DGraph</text>
<text text-anchor="middle" x="1927" y="-331.5" font-family="Helvetica,sans-Serif" font-size="10.00">/J2DTextBox.cpp</text>
</a>
</g>
</g>
<!-- Node57&#45;&gt;Node58 -->
<g id="edge52" class="edge">
<title>Node57&#45;&gt;Node58</title>
<path fill="none" stroke="midnightblue" d="M1878.83,-384.6C1889.55,-374.78 1902.05,-363.34 1911.62,-354.58"/>
<polygon fill="midnightblue" stroke="midnightblue" points="1876.42,-382.06 1871.41,-391.4 1881.15,-387.22 1876.42,-382.06"/>
</g>
<!-- Node59&#45;&gt;Node44 -->
<g id="edge56" class="edge">
<title>Node59&#45;&gt;Node44</title>
<path fill="none" stroke="midnightblue" d="M1218.41,-381.7C1215.89,-372.59 1213.09,-362.49 1210.9,-354.58"/>
<polygon fill="midnightblue" stroke="midnightblue" points="1215.05,-382.69 1221.09,-391.4 1221.8,-380.82 1215.05,-382.69"/>
</g>
<!-- Node60 -->
<g id="node41" class="node">
<title>Node60</title>
<g id="a_node41"><a xlink:href="J2DWindow_8cpp.html" target="_top" xlink:title=" ">
<polygon fill="white" stroke="black" points="1282.5,-324.5 1282.5,-354.5 1401.5,-354.5 1401.5,-324.5 1282.5,-324.5"/>
<text text-anchor="start" x="1290.5" y="-342.5" font-family="Helvetica,sans-Serif" font-size="10.00">libs/JSystem/J2DGraph</text>
<text text-anchor="middle" x="1342" y="-331.5" font-family="Helvetica,sans-Serif" font-size="10.00">/J2DWindow.cpp</text>
</a>
</g>
</g>
<!-- Node59&#45;&gt;Node60 -->
<g id="edge55" class="edge">
<title>Node59&#45;&gt;Node60</title>
<path fill="none" stroke="midnightblue" d="M1259.32,-386.44C1277.67,-376.24 1299.88,-363.9 1316.66,-354.58"/>
<polygon fill="midnightblue" stroke="midnightblue" points="1257.43,-383.48 1250.39,-391.4 1260.83,-389.6 1257.43,-383.48"/>
</g>
<!-- Node62 -->
<g id="node43" class="node">
<title>Node62</title>
<g id="a_node43"><a xlink:href="JKRAram_8cpp.html" target="_top" xlink:title=" ">
<polygon fill="white" stroke="black" points="1572.5,-324.5 1572.5,-354.5 1681.5,-354.5 1681.5,-324.5 1572.5,-324.5"/>
<text text-anchor="start" x="1580.5" y="-342.5" font-family="Helvetica,sans-Serif" font-size="10.00">libs/JSystem/JKernel</text>
<text text-anchor="middle" x="1627" y="-331.5" font-family="Helvetica,sans-Serif" font-size="10.00">/JKRAram.cpp</text>
</a>
</g>
</g>
<!-- Node61&#45;&gt;Node62 -->
<g id="edge59" class="edge">
<title>Node61&#45;&gt;Node62</title>
<path fill="none" stroke="midnightblue" d="M1682.31,-384.88C1670,-375.01 1655.57,-363.43 1644.54,-354.58"/>
<polygon fill="midnightblue" stroke="midnightblue" points="1680.43,-387.87 1690.42,-391.4 1684.82,-382.41 1680.43,-387.87"/>
</g>
<!-- Node63 -->
<g id="node44" class="node">
<title>Node63</title>
<g id="a_node44"><a xlink:href="JKRAramStream_8cpp.html" target="_top" xlink:title=" ">
<polygon fill="white" stroke="black" points="1699.5,-324.5 1699.5,-354.5 1810.5,-354.5 1810.5,-324.5 1699.5,-324.5"/>
<text text-anchor="start" x="1707.5" y="-342.5" font-family="Helvetica,sans-Serif" font-size="10.00">libs/JSystem/JKernel</text>
<text text-anchor="middle" x="1755" y="-331.5" font-family="Helvetica,sans-Serif" font-size="10.00">/JKRAramStream.cpp</text>
</a>
</g>
</g>
<!-- Node61&#45;&gt;Node63 -->
<g id="edge60" class="edge">
<title>Node61&#45;&gt;Node63</title>
<path fill="none" stroke="midnightblue" d="M1724.16,-383.16C1731.01,-373.68 1738.79,-362.92 1744.82,-354.58"/>
<polygon fill="midnightblue" stroke="midnightblue" points="1721.22,-381.24 1718.2,-391.4 1726.89,-385.34 1721.22,-381.24"/>
</g>
<!-- Node64&#45;&gt;Node61 -->
<g id="edge63" class="edge">
<title>Node64&#45;&gt;Node61</title>
<path fill="none" stroke="midnightblue" d="M1804.56,-453.99C1783.16,-443.69 1756.95,-431.07 1737.24,-421.58"/>
<polygon fill="midnightblue" stroke="midnightblue" points="1803.18,-457.21 1813.71,-458.4 1806.22,-450.9 1803.18,-457.21"/>
</g>
<!-- Node65 -->
<g id="node46" class="node">
<title>Node65</title>
<g id="a_node46"><a xlink:href="JSUFileStream_8cpp.html" target="_top" xlink:title=" ">
<polygon fill="white" stroke="black" points="2084.5,-391.5 2084.5,-421.5 2199.5,-421.5 2199.5,-391.5 2084.5,-391.5"/>
<text text-anchor="start" x="2092.5" y="-409.5" font-family="Helvetica,sans-Serif" font-size="10.00">libs/JSystem/JSupport</text>
<text text-anchor="middle" x="2142" y="-398.5" font-family="Helvetica,sans-Serif" font-size="10.00">/JSUFileStream.cpp</text>
</a>
</g>
</g>
<!-- Node64&#45;&gt;Node65 -->
<g id="edge62" class="edge">
<title>Node64&#45;&gt;Node65</title>
<path fill="none" stroke="midnightblue" d="M1918.11,-456.28C1963.77,-446.4 2023.26,-433.51 2076,-422 2078.75,-421.4 2081.57,-420.78 2084.41,-420.16"/>
<polygon fill="midnightblue" stroke="midnightblue" points="1917.33,-452.87 1908.29,-458.4 1918.81,-459.71 1917.33,-452.87"/>
</g>
<!-- Node66 -->
<g id="node47" class="node">
<title>Node66</title>
<g id="a_node47"><a xlink:href="JKRDvdAramRipper_8h.html" target="_top" xlink:title=" ">
<polygon fill="white" stroke="black" points="1941.5,-391.5 1941.5,-421.5 2066.5,-421.5 2066.5,-391.5 1941.5,-391.5"/>
<text text-anchor="start" x="1949.5" y="-409.5" font-family="Helvetica,sans-Serif" font-size="10.00">include/JSystem/JKernel</text>
<text text-anchor="middle" x="2004" y="-398.5" font-family="Helvetica,sans-Serif" font-size="10.00">/JKRDvdAramRipper.h</text>
</a>
</g>
</g>
<!-- Node64&#45;&gt;Node66 -->
<g id="edge64" class="edge">
<title>Node64&#45;&gt;Node66</title>
<path fill="none" stroke="midnightblue" d="M1887.48,-454.54C1913.24,-444.14 1945.2,-431.24 1969.13,-421.58"/>
<polygon fill="midnightblue" stroke="midnightblue" points="1885.9,-451.41 1877.93,-458.4 1888.52,-457.9 1885.9,-451.41"/>
</g>
<!-- Node67 -->
<g id="node48" class="node">
<title>Node67</title>
<g id="a_node48"><a xlink:href="JKRAramArchive_8cpp.html" target="_top" xlink:title=" ">
<polygon fill="white" stroke="black" points="2004.5,-324.5 2004.5,-354.5 2117.5,-354.5 2117.5,-324.5 2004.5,-324.5"/>
<text text-anchor="start" x="2012.5" y="-342.5" font-family="Helvetica,sans-Serif" font-size="10.00">libs/JSystem/JKernel</text>
<text text-anchor="middle" x="2061" y="-331.5" font-family="Helvetica,sans-Serif" font-size="10.00">/JKRAramArchive.cpp</text>
</a>
</g>
</g>
<!-- Node66&#45;&gt;Node67 -->
<g id="edge65" class="edge">
<title>Node66&#45;&gt;Node67</title>
<path fill="none" stroke="midnightblue" d="M2023.09,-383.74C2031.52,-374.12 2041.19,-363.09 2048.66,-354.58"/>
<polygon fill="midnightblue" stroke="midnightblue" points="2020.33,-381.57 2016.37,-391.4 2025.59,-386.18 2020.33,-381.57"/>
</g>
<!-- Node69 -->
<g id="node50" class="node">
<title>Node69</title>
<g id="a_node50"><a xlink:href="JSUMemoryStream_8cpp.html" target="_top" xlink:title=" ">
<polygon fill="white" stroke="black" points="863.5,-391.5 863.5,-421.5 986.5,-421.5 986.5,-391.5 863.5,-391.5"/>
<text text-anchor="start" x="871.5" y="-409.5" font-family="Helvetica,sans-Serif" font-size="10.00">libs/JSystem/JSupport</text>
<text text-anchor="middle" x="925" y="-398.5" font-family="Helvetica,sans-Serif" font-size="10.00">/JSUMemoryStream.cpp</text>
</a>
</g>
</g>
<!-- Node68&#45;&gt;Node69 -->
<g id="edge67" class="edge">
<title>Node68&#45;&gt;Node69</title>
<path fill="none" stroke="midnightblue" d="M1226.24,-457.91C1122.53,-440.11 1094.57,-440.03 995,-422 992.31,-421.51 989.57,-421 986.8,-420.48"/>
<polygon fill="midnightblue" stroke="midnightblue" points="1225.72,-461.37 1236.18,-459.63 1226.92,-454.48 1225.72,-461.37"/>
</g>
</g>
</svg>
