<?xml version="1.0" encoding="UTF-8" standalone="no"?>
<!DOCTYPE svg PUBLIC "-//W3C//DTD SVG 1.1//EN"
 "http://www.w3.org/Graphics/SVG/1.1/DTD/svg11.dtd">
<!-- Generated by graphviz version 2.44.0 ()
 -->
<!-- Title: include/JSystem/JSupport/JSUIosBase.h Pages: 1 -->
<svg width="1863pt" height="776pt"
 viewBox="0.00 0.00 1863.07 776.00" xmlns="http://www.w3.org/2000/svg" xmlns:xlink="http://www.w3.org/1999/xlink">
<g id="graph0" class="graph" transform="scale(1 1) rotate(0) translate(4 772)">
<title>include/JSystem/JSupport/JSUIosBase.h</title>
<polygon fill="white" stroke="transparent" points="-4,4 -4,-772 1859.07,-772 1859.07,4 -4,4"/>
<!-- Node1 -->
<g id="node1" class="node">
<title>Node1</title>
<g id="a_node1"><a xlink:title=" ">
<polygon fill="#bfbfbf" stroke="black" points="863.07,-737.5 863.07,-767.5 994.07,-767.5 994.07,-737.5 863.07,-737.5"/>
<text text-anchor="start" x="871.07" y="-755.5" font-family="Helvetica,sans-Serif" font-size="10.00">include/JSystem/JSupport</text>
<text text-anchor="middle" x="928.57" y="-744.5" font-family="Helvetica,sans-Serif" font-size="10.00">/JSUIosBase.h</text>
</a>
</g>
</g>
<!-- Node2 -->
<g id="node2" class="node">
<title>Node2</title>
<g id="a_node2"><a xlink:href="JSUInputStream_8h.html" target="_top" xlink:title=" ">
<polygon fill="white" stroke="black" points="863.07,-670.5 863.07,-700.5 994.07,-700.5 994.07,-670.5 863.07,-670.5"/>
<text text-anchor="start" x="871.07" y="-688.5" font-family="Helvetica,sans-Serif" font-size="10.00">include/JSystem/JSupport</text>
<text text-anchor="middle" x="928.57" y="-677.5" font-family="Helvetica,sans-Serif" font-size="10.00">/JSUInputStream.h</text>
</a>
</g>
</g>
<!-- Node1&#45;&gt;Node2 -->
<g id="edge1" class="edge">
<title>Node1&#45;&gt;Node2</title>
<path fill="none" stroke="midnightblue" d="M928.57,-727.11C928.57,-718.15 928.57,-708.32 928.57,-700.58"/>
<polygon fill="midnightblue" stroke="midnightblue" points="925.07,-727.4 928.57,-737.4 932.07,-727.4 925.07,-727.4"/>
</g>
<!-- Node3 -->
<g id="node3" class="node">
<title>Node3</title>
<g id="a_node3"><a xlink:href="JSUInputStream_8cpp.html" target="_top" xlink:title=" ">
<polygon fill="white" stroke="black" points="871.07,-536.5 871.07,-566.5 986.07,-566.5 986.07,-536.5 871.07,-536.5"/>
<text text-anchor="start" x="879.07" y="-554.5" font-family="Helvetica,sans-Serif" font-size="10.00">libs/JSystem/JSupport</text>
<text text-anchor="middle" x="928.57" y="-543.5" font-family="Helvetica,sans-Serif" font-size="10.00">/JSUInputStream.cpp</text>
</a>
</g>
</g>
<!-- Node2&#45;&gt;Node3 -->
<g id="edge2" class="edge">
<title>Node2&#45;&gt;Node3</title>
<path fill="none" stroke="midnightblue" d="M928.57,-660.02C928.57,-632.51 928.57,-588.79 928.57,-566.52"/>
<polygon fill="midnightblue" stroke="midnightblue" points="925.07,-660.37 928.57,-670.37 932.07,-660.37 925.07,-660.37"/>
</g>
<!-- Node4 -->
<g id="node4" class="node">
<title>Node4</title>
<g id="a_node4"><a xlink:href="J2DManage_8h.html" target="_top" xlink:title=" ">
<polygon fill="white" stroke="black" points="719.07,-603.5 719.07,-633.5 854.07,-633.5 854.07,-603.5 719.07,-603.5"/>
<text text-anchor="start" x="727.07" y="-621.5" font-family="Helvetica,sans-Serif" font-size="10.00">include/JSystem/J2DGraph</text>
<text text-anchor="middle" x="786.57" y="-610.5" font-family="Helvetica,sans-Serif" font-size="10.00">/J2DManage.h</text>
</a>
</g>
</g>
<!-- Node2&#45;&gt;Node4 -->
<g id="edge3" class="edge">
<title>Node2&#45;&gt;Node4</title>
<path fill="none" stroke="midnightblue" d="M888.44,-666.13C865.88,-655.8 838.15,-643.11 817.32,-633.58"/>
<polygon fill="midnightblue" stroke="midnightblue" points="887.21,-669.42 897.76,-670.4 890.12,-663.05 887.21,-669.42"/>
</g>
<!-- Node28 -->
<g id="node28" class="node">
<title>Node28</title>
<g id="a_node28"><a xlink:href="JSURandomInputStream_8h.html" target="_top" xlink:title=" ">
<polygon fill="white" stroke="black" points="1155.57,-603.5 1155.57,-633.5 1291.57,-633.5 1291.57,-603.5 1155.57,-603.5"/>
<text text-anchor="start" x="1163.57" y="-621.5" font-family="Helvetica,sans-Serif" font-size="10.00">include/JSystem/JSupport</text>
<text text-anchor="middle" x="1223.57" y="-610.5" font-family="Helvetica,sans-Serif" font-size="10.00">/JSURandomInputStream.h</text>
</a>
</g>
</g>
<!-- Node2&#45;&gt;Node28 -->
<g id="edge34" class="edge">
<title>Node2&#45;&gt;Node28</title>
<path fill="none" stroke="midnightblue" d="M1002.02,-668.32C1050.5,-657.63 1113.4,-643.77 1159.78,-633.55"/>
<polygon fill="midnightblue" stroke="midnightblue" points="1001.23,-664.91 992.22,-670.48 1002.74,-671.74 1001.23,-664.91"/>
</g>
<!-- Node5 -->
<g id="node5" class="node">
<title>Node5</title>
<g id="a_node5"><a xlink:href="J2DManage_8cpp.html" target="_top" xlink:title=" ">
<polygon fill="white" stroke="black" points="639.07,-536.5 639.07,-566.5 758.07,-566.5 758.07,-536.5 639.07,-536.5"/>
<text text-anchor="start" x="647.07" y="-554.5" font-family="Helvetica,sans-Serif" font-size="10.00">libs/JSystem/J2DGraph</text>
<text text-anchor="middle" x="698.57" y="-543.5" font-family="Helvetica,sans-Serif" font-size="10.00">/J2DManage.cpp</text>
</a>
</g>
</g>
<!-- Node4&#45;&gt;Node5 -->
<g id="edge4" class="edge">
<title>Node4&#45;&gt;Node5</title>
<path fill="none" stroke="midnightblue" d="M759.43,-597.45C745.89,-587.45 729.84,-575.6 717.63,-566.58"/>
<polygon fill="midnightblue" stroke="midnightblue" points="757.35,-600.27 767.47,-603.4 761.51,-594.64 757.35,-600.27"/>
</g>
<!-- Node6 -->
<g id="node6" class="node">
<title>Node6</title>
<g id="a_node6"><a xlink:href="J2DScreen_8h.html" target="_top" xlink:title=" ">
<polygon fill="white" stroke="black" points="673.07,-469.5 673.07,-499.5 808.07,-499.5 808.07,-469.5 673.07,-469.5"/>
<text text-anchor="start" x="681.07" y="-487.5" font-family="Helvetica,sans-Serif" font-size="10.00">include/JSystem/J2DGraph</text>
<text text-anchor="middle" x="740.57" y="-476.5" font-family="Helvetica,sans-Serif" font-size="10.00">/J2DScreen.h</text>
</a>
</g>
</g>
<!-- Node4&#45;&gt;Node6 -->
<g id="edge5" class="edge">
<title>Node4&#45;&gt;Node6</title>
<path fill="none" stroke="midnightblue" d="M782.22,-593.45C778.86,-576.98 773.61,-554.8 766.57,-536 761.8,-523.25 754.62,-509.58 749.01,-499.67"/>
<polygon fill="midnightblue" stroke="midnightblue" points="778.8,-594.21 784.14,-603.36 785.67,-592.87 778.8,-594.21"/>
</g>
<!-- Node7 -->
<g id="node7" class="node">
<title>Node7</title>
<g id="a_node7"><a xlink:href="d__drawlist_8cpp.html" target="_top" xlink:title=" ">
<polygon fill="white" stroke="black" points="513.57,-408 513.57,-427 617.57,-427 617.57,-408 513.57,-408"/>
<text text-anchor="middle" x="565.57" y="-415" font-family="Helvetica,sans-Serif" font-size="10.00">src/d/d_drawlist.cpp</text>
</a>
</g>
</g>
<!-- Node6&#45;&gt;Node7 -->
<g id="edge6" class="edge">
<title>Node6&#45;&gt;Node7</title>
<path fill="none" stroke="midnightblue" d="M692.87,-465.78C658.94,-453.18 614.86,-436.81 588.47,-427.01"/>
<polygon fill="midnightblue" stroke="midnightblue" points="692,-469.2 702.6,-469.4 694.44,-462.63 692,-469.2"/>
</g>
<!-- Node8 -->
<g id="node8" class="node">
<title>Node8</title>
<g id="a_node8"><a xlink:href="J2DScreen_8cpp.html" target="_top" xlink:title=" ">
<polygon fill="white" stroke="black" points="636.07,-402.5 636.07,-432.5 755.07,-432.5 755.07,-402.5 636.07,-402.5"/>
<text text-anchor="start" x="644.07" y="-420.5" font-family="Helvetica,sans-Serif" font-size="10.00">libs/JSystem/J2DGraph</text>
<text text-anchor="middle" x="695.57" y="-409.5" font-family="Helvetica,sans-Serif" font-size="10.00">/J2DScreen.cpp</text>
</a>
</g>
</g>
<!-- Node6&#45;&gt;Node8 -->
<g id="edge7" class="edge">
<title>Node6&#45;&gt;Node8</title>
<path fill="none" stroke="midnightblue" d="M725.1,-461.16C718.54,-451.68 711.09,-440.92 705.31,-432.58"/>
<polygon fill="midnightblue" stroke="midnightblue" points="722.24,-463.17 730.8,-469.4 727.99,-459.18 722.24,-463.17"/>
</g>
<!-- Node9 -->
<g id="node9" class="node">
<title>Node9</title>
<g id="a_node9"><a xlink:href="d__pane__class__alpha_8h.html" target="_top" xlink:title=" ">
<polygon fill="white" stroke="black" points="773.57,-402.5 773.57,-432.5 887.57,-432.5 887.57,-402.5 773.57,-402.5"/>
<text text-anchor="start" x="781.57" y="-420.5" font-family="Helvetica,sans-Serif" font-size="10.00">include/d/pane/d_pane</text>
<text text-anchor="middle" x="830.57" y="-409.5" font-family="Helvetica,sans-Serif" font-size="10.00">_class_alpha.h</text>
</a>
</g>
</g>
<!-- Node6&#45;&gt;Node9 -->
<g id="edge8" class="edge">
<title>Node6&#45;&gt;Node9</title>
<path fill="none" stroke="midnightblue" d="M768.33,-463.45C782.17,-453.45 798.59,-441.6 811.08,-432.58"/>
<polygon fill="midnightblue" stroke="midnightblue" points="766.16,-460.7 760.1,-469.4 770.25,-466.38 766.16,-460.7"/>
</g>
<!-- Node26 -->
<g id="node26" class="node">
<title>Node26</title>
<g id="a_node26"><a xlink:href="J2DPicture_8h.html" target="_top" xlink:title=" ">
<polygon fill="white" stroke="black" points="906.07,-402.5 906.07,-432.5 1041.07,-432.5 1041.07,-402.5 906.07,-402.5"/>
<text text-anchor="start" x="914.07" y="-420.5" font-family="Helvetica,sans-Serif" font-size="10.00">include/JSystem/J2DGraph</text>
<text text-anchor="middle" x="973.57" y="-409.5" font-family="Helvetica,sans-Serif" font-size="10.00">/J2DPicture.h</text>
</a>
</g>
</g>
<!-- Node6&#45;&gt;Node26 -->
<g id="edge32" class="edge">
<title>Node6&#45;&gt;Node26</title>
<path fill="none" stroke="midnightblue" d="M800.74,-466.71C838.65,-456.14 887.06,-442.63 922.99,-432.61"/>
<polygon fill="midnightblue" stroke="midnightblue" points="799.53,-463.42 790.84,-469.48 801.41,-470.16 799.53,-463.42"/>
</g>
<!-- Node10 -->
<g id="node10" class="node">
<title>Node10</title>
<g id="a_node10"><a xlink:href="d__pane__class__alpha_8cpp.html" target="_top" xlink:title=" ">
<polygon fill="white" stroke="black" points="769.07,-335.5 769.07,-365.5 894.07,-365.5 894.07,-335.5 769.07,-335.5"/>
<text text-anchor="start" x="777.07" y="-353.5" font-family="Helvetica,sans-Serif" font-size="10.00">src/d/pane/d_pane_class</text>
<text text-anchor="middle" x="831.57" y="-342.5" font-family="Helvetica,sans-Serif" font-size="10.00">_alpha.cpp</text>
</a>
</g>
</g>
<!-- Node9&#45;&gt;Node10 -->
<g id="edge9" class="edge">
<title>Node9&#45;&gt;Node10</title>
<path fill="none" stroke="midnightblue" d="M830.94,-392.11C831.08,-383.15 831.23,-373.32 831.35,-365.58"/>
<polygon fill="midnightblue" stroke="midnightblue" points="827.44,-392.34 830.79,-402.4 834.44,-392.45 827.44,-392.34"/>
</g>
<!-- Node11 -->
<g id="node11" class="node">
<title>Node11</title>
<g id="a_node11"><a xlink:href="d__pane__class_8h.html" target="_top" xlink:title=" ">
<polygon fill="white" stroke="black" points="636.57,-335.5 636.57,-365.5 750.57,-365.5 750.57,-335.5 636.57,-335.5"/>
<text text-anchor="start" x="644.57" y="-353.5" font-family="Helvetica,sans-Serif" font-size="10.00">include/d/pane/d_pane</text>
<text text-anchor="middle" x="693.57" y="-342.5" font-family="Helvetica,sans-Serif" font-size="10.00">_class.h</text>
</a>
</g>
</g>
<!-- Node9&#45;&gt;Node11 -->
<g id="edge10" class="edge">
<title>Node9&#45;&gt;Node11</title>
<path fill="none" stroke="midnightblue" d="M791.56,-397.99C769.85,-387.69 743.24,-375.07 723.24,-365.58"/>
<polygon fill="midnightblue" stroke="midnightblue" points="790.31,-401.27 800.84,-402.4 793.31,-394.95 790.31,-401.27"/>
</g>
<!-- Node12 -->
<g id="node12" class="node">
<title>Node12</title>
<g id="a_node12"><a xlink:href="d__pane__class_8cpp.html" target="_top" xlink:title=" ">
<polygon fill="white" stroke="black" points="546.07,-274 546.07,-293 689.07,-293 689.07,-274 546.07,-274"/>
<text text-anchor="middle" x="617.57" y="-281" font-family="Helvetica,sans-Serif" font-size="10.00">src/d/pane/d_pane_class.cpp</text>
</a>
</g>
</g>
<!-- Node11&#45;&gt;Node12 -->
<g id="edge11" class="edge">
<title>Node11&#45;&gt;Node12</title>
<path fill="none" stroke="midnightblue" d="M669.22,-328.67C655.18,-316.67 638.29,-302.22 627.74,-293.19"/>
<polygon fill="midnightblue" stroke="midnightblue" points="667.2,-331.56 677.08,-335.4 671.75,-326.24 667.2,-331.56"/>
</g>
<!-- Node13 -->
<g id="node13" class="node">
<title>Node13</title>
<g id="a_node13"><a xlink:href="d__meter2__info_8h.html" target="_top" xlink:title=" ">
<polygon fill="white" stroke="black" points="707.07,-268.5 707.07,-298.5 834.07,-298.5 834.07,-268.5 707.07,-268.5"/>
<text text-anchor="start" x="715.07" y="-286.5" font-family="Helvetica,sans-Serif" font-size="10.00">include/d/meter/d_meter2</text>
<text text-anchor="middle" x="770.57" y="-275.5" font-family="Helvetica,sans-Serif" font-size="10.00">_info.h</text>
</a>
</g>
</g>
<!-- Node11&#45;&gt;Node13 -->
<g id="edge12" class="edge">
<title>Node11&#45;&gt;Node13</title>
<path fill="none" stroke="midnightblue" d="M717.99,-328.88C729.69,-319.01 743.41,-307.43 753.89,-298.58"/>
<polygon fill="midnightblue" stroke="midnightblue" points="715.66,-326.27 710.28,-335.4 720.18,-331.62 715.66,-326.27"/>
</g>
<!-- Node14 -->
<g id="node14" class="node">
<title>Node14</title>
<g id="a_node14"><a xlink:href="d__com__inf__game_8cpp.html" target="_top" xlink:title=" ">
<polygon fill="white" stroke="black" points="100.57,-0.5 100.57,-30.5 208.57,-30.5 208.57,-0.5 100.57,-0.5"/>
<text text-anchor="start" x="108.57" y="-18.5" font-family="Helvetica,sans-Serif" font-size="10.00">src/d/com/d_com_inf</text>
<text text-anchor="middle" x="154.57" y="-7.5" font-family="Helvetica,sans-Serif" font-size="10.00">_game.cpp</text>
</a>
</g>
</g>
<!-- Node13&#45;&gt;Node14 -->
<g id="edge13" class="edge">
<title>Node13&#45;&gt;Node14</title>
<path fill="none" stroke="midnightblue" d="M697,-267.27C509.92,-228.2 29.27,-125.57 7.57,-98 -22.12,-60.28 47.04,-37.38 100.28,-25.84"/>
<polygon fill="midnightblue" stroke="midnightblue" points="696.52,-270.74 707.02,-269.36 697.95,-263.89 696.52,-270.74"/>
</g>
<!-- Node15 -->
<g id="node15" class="node">
<title>Node15</title>
<g id="a_node15"><a xlink:href="d__item_8cpp.html" target="_top" xlink:title=" ">
<polygon fill="white" stroke="black" points="644.07,-6 644.07,-25 733.07,-25 733.07,-6 644.07,-6"/>
<text text-anchor="middle" x="688.57" y="-13" font-family="Helvetica,sans-Serif" font-size="10.00">src/d/d_item.cpp</text>
</a>
</g>
</g>
<!-- Node13&#45;&gt;Node15 -->
<g id="edge14" class="edge">
<title>Node13&#45;&gt;Node15</title>
<path fill="none" stroke="midnightblue" d="M788.95,-260.45C821.14,-219.01 880.34,-128.18 836.57,-67 813.27,-34.43 767.69,-22.63 733.23,-18.47"/>
<polygon fill="midnightblue" stroke="midnightblue" points="786.2,-258.28 782.72,-268.29 791.68,-262.63 786.2,-258.28"/>
</g>
<!-- Node16 -->
<g id="node16" class="node">
<title>Node16</title>
<g id="a_node16"><a xlink:href="d__meter2__info_8cpp.html" target="_top" xlink:title=" ">
<polygon fill="white" stroke="black" points="16.57,-67.5 16.57,-97.5 126.57,-97.5 126.57,-67.5 16.57,-67.5"/>
<text text-anchor="start" x="24.57" y="-85.5" font-family="Helvetica,sans-Serif" font-size="10.00">src/d/meter/d_meter2</text>
<text text-anchor="middle" x="71.57" y="-74.5" font-family="Helvetica,sans-Serif" font-size="10.00">_info.cpp</text>
</a>
</g>
</g>
<!-- Node13&#45;&gt;Node16 -->
<g id="edge15" class="edge">
<title>Node13&#45;&gt;Node16</title>
<path fill="none" stroke="midnightblue" d="M703.55,-265.97C665.37,-256.39 616.68,-243.9 573.57,-232 404.48,-185.33 205.02,-124.63 117.09,-97.58"/>
<polygon fill="midnightblue" stroke="midnightblue" points="702.98,-269.43 713.53,-268.47 704.67,-262.64 702.98,-269.43"/>
</g>
<!-- Node17 -->
<g id="node17" class="node">
<title>Node17</title>
<g id="a_node17"><a xlink:href="d__save_8cpp.html" target="_top" xlink:title=" ">
<polygon fill="white" stroke="black" points="713.07,-73 713.07,-92 828.07,-92 828.07,-73 713.07,-73"/>
<text text-anchor="middle" x="770.57" y="-80" font-family="Helvetica,sans-Serif" font-size="10.00">src/d/save/d_save.cpp</text>
</a>
</g>
</g>
<!-- Node13&#45;&gt;Node17 -->
<g id="edge16" class="edge">
<title>Node13&#45;&gt;Node17</title>
<path fill="none" stroke="midnightblue" d="M770.57,-257.96C770.57,-213.43 770.57,-121.25 770.57,-92.36"/>
<polygon fill="midnightblue" stroke="midnightblue" points="767.07,-258.19 770.57,-268.19 774.07,-258.19 767.07,-258.19"/>
</g>
<!-- Node18 -->
<g id="node18" class="node">
<title>Node18</title>
<g id="a_node18"><a xlink:href="d__a__alink_8h.html" target="_top" xlink:title=" ">
<polygon fill="white" stroke="black" points="582.57,-207 582.57,-226 698.57,-226 698.57,-207 582.57,-207"/>
<text text-anchor="middle" x="640.57" y="-214" font-family="Helvetica,sans-Serif" font-size="10.00">include/d/a/d_a_alink.h</text>
</a>
</g>
</g>
<!-- Node13&#45;&gt;Node18 -->
<g id="edge17" class="edge">
<title>Node13&#45;&gt;Node18</title>
<path fill="none" stroke="midnightblue" d="M733.18,-263.8C708.25,-251.34 676.68,-235.56 657.58,-226.01"/>
<polygon fill="midnightblue" stroke="midnightblue" points="731.85,-267.05 742.36,-268.4 734.98,-260.79 731.85,-267.05"/>
</g>
<!-- Node24 -->
<g id="node24" class="node">
<title>Node24</title>
<g id="a_node24"><a xlink:href="d__menu__window_8h.html" target="_top" xlink:title=" ">
<polygon fill="white" stroke="black" points="884.57,-201.5 884.57,-231.5 1004.57,-231.5 1004.57,-201.5 884.57,-201.5"/>
<text text-anchor="start" x="892.57" y="-219.5" font-family="Helvetica,sans-Serif" font-size="10.00">include/d/menu/d_menu</text>
<text text-anchor="middle" x="944.57" y="-208.5" font-family="Helvetica,sans-Serif" font-size="10.00">_window.h</text>
</a>
</g>
</g>
<!-- Node13&#45;&gt;Node24 -->
<g id="edge29" class="edge">
<title>Node13&#45;&gt;Node24</title>
<path fill="none" stroke="midnightblue" d="M812.17,-264.68C839.08,-254.26 873.96,-241.28 901.21,-231.58"/>
<polygon fill="midnightblue" stroke="midnightblue" points="810.69,-261.5 802.65,-268.4 813.23,-268.02 810.69,-261.5"/>
</g>
<!-- Node19 -->
<g id="node19" class="node">
<title>Node19</title>
<g id="a_node19"><a xlink:href="d__a__alink_8cpp.html" target="_top" xlink:title=" ">
<polygon fill="white" stroke="black" points="586.07,-73 586.07,-92 695.07,-92 695.07,-73 586.07,-73"/>
<text text-anchor="middle" x="640.57" y="-80" font-family="Helvetica,sans-Serif" font-size="10.00">src/d/a/d_a_alink.cpp</text>
</a>
</g>
</g>
<!-- Node18&#45;&gt;Node19 -->
<g id="edge18" class="edge">
<title>Node18&#45;&gt;Node19</title>
<path fill="none" stroke="midnightblue" d="M640.57,-196.78C640.57,-167.75 640.57,-113.04 640.57,-92.02"/>
<polygon fill="midnightblue" stroke="midnightblue" points="637.07,-196.84 640.57,-206.84 644.07,-196.84 637.07,-196.84"/>
</g>
<!-- Node20 -->
<g id="node20" class="node">
<title>Node20</title>
<g id="a_node20"><a xlink:href="d__com__inf__game_8h.html" target="_top" xlink:title=" ">
<polygon fill="white" stroke="black" points="399.57,-134.5 399.57,-164.5 509.57,-164.5 509.57,-134.5 399.57,-134.5"/>
<text text-anchor="start" x="407.57" y="-152.5" font-family="Helvetica,sans-Serif" font-size="10.00">include/d/com/d_com</text>
<text text-anchor="middle" x="454.57" y="-141.5" font-family="Helvetica,sans-Serif" font-size="10.00">_inf_game.h</text>
</a>
</g>
</g>
<!-- Node18&#45;&gt;Node20 -->
<g id="edge19" class="edge">
<title>Node18&#45;&gt;Node20</title>
<path fill="none" stroke="midnightblue" d="M606.2,-203.49C574.67,-192.47 527.95,-176.14 494.71,-164.53"/>
<polygon fill="midnightblue" stroke="midnightblue" points="605.28,-206.87 615.87,-206.87 607.58,-200.27 605.28,-206.87"/>
</g>
<!-- Node20&#45;&gt;Node14 -->
<g id="edge20" class="edge">
<title>Node20&#45;&gt;Node14</title>
<path fill="none" stroke="midnightblue" d="M389.23,-144.92C316.1,-139.55 203.86,-126.77 173.57,-98 155.14,-80.49 153.03,-48.83 153.54,-30.55"/>
<polygon fill="midnightblue" stroke="midnightblue" points="389.06,-148.42 399.28,-145.63 389.55,-141.44 389.06,-148.42"/>
</g>
<!-- Node20&#45;&gt;Node16 -->
<g id="edge23" class="edge">
<title>Node20&#45;&gt;Node16</title>
<path fill="none" stroke="midnightblue" d="M389.52,-138.96C325.91,-129.42 226.37,-113.91 140.57,-98 136.12,-97.17 131.51,-96.28 126.88,-95.37"/>
<polygon fill="midnightblue" stroke="midnightblue" points="389,-142.43 399.41,-140.44 390.04,-135.5 389,-142.43"/>
</g>
<!-- Node20&#45;&gt;Node17 -->
<g id="edge25" class="edge">
<title>Node20&#45;&gt;Node17</title>
<path fill="none" stroke="midnightblue" d="M520.07,-135.46C570.32,-125.39 641.37,-111.04 703.57,-98 712.65,-96.1 722.42,-94.01 731.62,-92.02"/>
<polygon fill="midnightblue" stroke="midnightblue" points="519.11,-132.08 509.99,-137.47 520.49,-138.94 519.11,-132.08"/>
</g>
<!-- Node20&#45;&gt;Node19 -->
<g id="edge21" class="edge">
<title>Node20&#45;&gt;Node19</title>
<path fill="none" stroke="midnightblue" d="M504.8,-130.95C540.93,-118.32 588.06,-101.85 616.23,-92.01"/>
<polygon fill="midnightblue" stroke="midnightblue" points="503.21,-127.79 494.93,-134.4 505.52,-134.4 503.21,-127.79"/>
</g>
<!-- Node21 -->
<g id="node21" class="node">
<title>Node21</title>
<g id="a_node21"><a xlink:href="d__event_8cpp.html" target="_top" xlink:title=" ">
<polygon fill="white" stroke="black" points="183.07,-73 183.07,-92 304.07,-92 304.07,-73 183.07,-73"/>
<text text-anchor="middle" x="243.57" y="-80" font-family="Helvetica,sans-Serif" font-size="10.00">src/d/event/d_event.cpp</text>
</a>
</g>
</g>
<!-- Node20&#45;&gt;Node21 -->
<g id="edge22" class="edge">
<title>Node20&#45;&gt;Node21</title>
<path fill="none" stroke="midnightblue" d="M399.42,-131.51C358.24,-118.83 303.69,-102.02 271.25,-92.03"/>
<polygon fill="midnightblue" stroke="midnightblue" points="398.46,-134.88 409.05,-134.48 400.52,-128.19 398.46,-134.88"/>
</g>
<!-- Node22 -->
<g id="node22" class="node">
<title>Node22</title>
<g id="a_node22"><a xlink:href="d__msg__flow_8cpp.html" target="_top" xlink:title=" ">
<polygon fill="white" stroke="black" points="322.07,-73 322.07,-92 455.07,-92 455.07,-73 322.07,-73"/>
<text text-anchor="middle" x="388.57" y="-80" font-family="Helvetica,sans-Serif" font-size="10.00">src/d/msg/d_msg_flow.cpp</text>
</a>
</g>
</g>
<!-- Node20&#45;&gt;Node22 -->
<g id="edge24" class="edge">
<title>Node20&#45;&gt;Node22</title>
<path fill="none" stroke="midnightblue" d="M433.08,-127.34C420.96,-115.4 406.48,-101.14 397.4,-92.19"/>
<polygon fill="midnightblue" stroke="midnightblue" points="430.67,-129.87 440.25,-134.4 435.58,-124.89 430.67,-129.87"/>
</g>
<!-- Node23 -->
<g id="node23" class="node">
<title>Node23</title>
<g id="a_node23"><a xlink:href="d__item_8h.html" target="_top" xlink:title=" ">
<polygon fill="white" stroke="black" points="473.07,-73 473.07,-92 568.07,-92 568.07,-73 473.07,-73"/>
<text text-anchor="middle" x="520.57" y="-80" font-family="Helvetica,sans-Serif" font-size="10.00">include/d/d_item.h</text>
</a>
</g>
</g>
<!-- Node20&#45;&gt;Node23 -->
<g id="edge26" class="edge">
<title>Node20&#45;&gt;Node23</title>
<path fill="none" stroke="midnightblue" d="M476.06,-127.34C488.18,-115.4 502.66,-101.14 511.74,-92.19"/>
<polygon fill="midnightblue" stroke="midnightblue" points="473.56,-124.89 468.89,-134.4 478.47,-129.87 473.56,-124.89"/>
</g>
<!-- Node23&#45;&gt;Node14 -->
<g id="edge27" class="edge">
<title>Node23&#45;&gt;Node14</title>
<path fill="none" stroke="midnightblue" d="M479.13,-70.51C473.91,-69.26 468.63,-68.05 463.57,-67 374.84,-48.5 270.6,-32.67 208.7,-23.89"/>
<polygon fill="midnightblue" stroke="midnightblue" points="478.48,-73.95 489.03,-72.95 480.16,-67.16 478.48,-73.95"/>
</g>
<!-- Node23&#45;&gt;Node15 -->
<g id="edge28" class="edge">
<title>Node23&#45;&gt;Node15</title>
<path fill="none" stroke="midnightblue" d="M552.61,-69.1C585.96,-56.2 637.32,-36.33 666.44,-25.06"/>
<polygon fill="midnightblue" stroke="midnightblue" points="550.94,-66 542.88,-72.87 553.47,-72.52 550.94,-66"/>
</g>
<!-- Node24&#45;&gt;Node13 -->
<g id="edge31" class="edge">
<title>Node24&#45;&gt;Node13</title>
<path fill="none" stroke="midnightblue" d="M903.04,-235.29C876.15,-245.71 841.27,-258.69 814,-268.4"/>
<polygon fill="midnightblue" stroke="midnightblue" points="904.52,-238.47 912.56,-231.58 901.97,-231.95 904.52,-238.47"/>
</g>
<!-- Node25 -->
<g id="node25" class="node">
<title>Node25</title>
<g id="a_node25"><a xlink:href="d__menu__window_8cpp.html" target="_top" xlink:title=" ">
<polygon fill="white" stroke="black" points="884.07,-140 884.07,-159 1043.07,-159 1043.07,-140 884.07,-140"/>
<text text-anchor="middle" x="963.57" y="-147" font-family="Helvetica,sans-Serif" font-size="10.00">src/d/menu/d_menu_window.cpp</text>
</a>
</g>
</g>
<!-- Node24&#45;&gt;Node25 -->
<g id="edge30" class="edge">
<title>Node24&#45;&gt;Node25</title>
<path fill="none" stroke="midnightblue" d="M951.56,-191.6C954.86,-180.28 958.61,-167.46 961.03,-159.19"/>
<polygon fill="midnightblue" stroke="midnightblue" points="948.14,-190.82 948.69,-201.4 954.86,-192.78 948.14,-190.82"/>
</g>
<!-- Node27 -->
<g id="node27" class="node">
<title>Node27</title>
<g id="a_node27"><a xlink:href="J2DPicture_8cpp.html" target="_top" xlink:title=" ">
<polygon fill="white" stroke="black" points="914.07,-335.5 914.07,-365.5 1033.07,-365.5 1033.07,-335.5 914.07,-335.5"/>
<text text-anchor="start" x="922.07" y="-353.5" font-family="Helvetica,sans-Serif" font-size="10.00">libs/JSystem/J2DGraph</text>
<text text-anchor="middle" x="973.57" y="-342.5" font-family="Helvetica,sans-Serif" font-size="10.00">/J2DPicture.cpp</text>
</a>
</g>
</g>
<!-- Node26&#45;&gt;Node27 -->
<g id="edge33" class="edge">
<title>Node26&#45;&gt;Node27</title>
<path fill="none" stroke="midnightblue" d="M973.57,-392.11C973.57,-383.15 973.57,-373.32 973.57,-365.58"/>
<polygon fill="midnightblue" stroke="midnightblue" points="970.07,-392.4 973.57,-402.4 977.07,-392.4 970.07,-392.4"/>
</g>
<!-- Node28&#45;&gt;Node3 -->
<g id="edge35" class="edge">
<title>Node28&#45;&gt;Node3</title>
<path fill="none" stroke="midnightblue" d="M1150.01,-601.29C1099.32,-590.12 1032.93,-575.49 986.11,-565.18"/>
<polygon fill="midnightblue" stroke="midnightblue" points="1149.4,-604.74 1159.92,-603.48 1150.91,-597.91 1149.4,-604.74"/>
</g>
<!-- Node29 -->
<g id="node29" class="node">
<title>Node29</title>
<g id="a_node29"><a xlink:href="J2DPane_8h.html" target="_top" xlink:title=" ">
<polygon fill="white" stroke="black" points="1004.07,-536.5 1004.07,-566.5 1139.07,-566.5 1139.07,-536.5 1004.07,-536.5"/>
<text text-anchor="start" x="1012.07" y="-554.5" font-family="Helvetica,sans-Serif" font-size="10.00">include/JSystem/J2DGraph</text>
<text text-anchor="middle" x="1071.57" y="-543.5" font-family="Helvetica,sans-Serif" font-size="10.00">/J2DPane.h</text>
</a>
</g>
</g>
<!-- Node28&#45;&gt;Node29 -->
<g id="edge36" class="edge">
<title>Node28&#45;&gt;Node29</title>
<path fill="none" stroke="midnightblue" d="M1181.26,-599.41C1156.99,-589.03 1126.98,-576.2 1104.49,-566.58"/>
<polygon fill="midnightblue" stroke="midnightblue" points="1180.02,-602.68 1190.59,-603.4 1182.77,-596.25 1180.02,-602.68"/>
</g>
<!-- Node34 -->
<g id="node34" class="node">
<title>Node34</title>
<g id="a_node34"><a xlink:href="JKRAramStream_8h.html" target="_top" xlink:title=" ">
<polygon fill="white" stroke="black" points="1589.07,-469.5 1589.07,-499.5 1714.07,-499.5 1714.07,-469.5 1589.07,-469.5"/>
<text text-anchor="start" x="1597.07" y="-487.5" font-family="Helvetica,sans-Serif" font-size="10.00">include/JSystem/JKernel</text>
<text text-anchor="middle" x="1651.57" y="-476.5" font-family="Helvetica,sans-Serif" font-size="10.00">/JKRAramStream.h</text>
</a>
</g>
</g>
<!-- Node28&#45;&gt;Node34 -->
<g id="edge43" class="edge">
<title>Node28&#45;&gt;Node34</title>
<path fill="none" stroke="midnightblue" d="M1301.54,-607.89C1354.15,-600.08 1424.63,-587.03 1484.57,-567 1537.96,-549.15 1596.16,-517.77 1627.8,-499.59"/>
<polygon fill="midnightblue" stroke="midnightblue" points="1300.99,-604.43 1291.6,-609.33 1302,-611.36 1300.99,-604.43"/>
</g>
<!-- Node37 -->
<g id="node37" class="node">
<title>Node37</title>
<g id="a_node37"><a xlink:href="JSUFileStream_8h.html" target="_top" xlink:title=" ">
<polygon fill="white" stroke="black" points="1345.07,-536.5 1345.07,-566.5 1476.07,-566.5 1476.07,-536.5 1345.07,-536.5"/>
<text text-anchor="start" x="1353.07" y="-554.5" font-family="Helvetica,sans-Serif" font-size="10.00">include/JSystem/JSupport</text>
<text text-anchor="middle" x="1410.57" y="-543.5" font-family="Helvetica,sans-Serif" font-size="10.00">/JSUFileStream.h</text>
</a>
</g>
</g>
<!-- Node28&#45;&gt;Node37 -->
<g id="edge46" class="edge">
<title>Node28&#45;&gt;Node37</title>
<path fill="none" stroke="midnightblue" d="M1273.65,-600.09C1303.84,-589.6 1341.79,-576.41 1370.07,-566.58"/>
<polygon fill="midnightblue" stroke="midnightblue" points="1272.44,-596.81 1264.15,-603.4 1274.74,-603.42 1272.44,-596.81"/>
</g>
<!-- Node41 -->
<g id="node41" class="node">
<title>Node41</title>
<g id="a_node41"><a xlink:href="JSUMemoryStream_8h.html" target="_top" xlink:title=" ">
<polygon fill="white" stroke="black" points="1693.07,-536.5 1693.07,-566.5 1824.07,-566.5 1824.07,-536.5 1693.07,-536.5"/>
<text text-anchor="start" x="1701.07" y="-554.5" font-family="Helvetica,sans-Serif" font-size="10.00">include/JSystem/JSupport</text>
<text text-anchor="middle" x="1758.57" y="-543.5" font-family="Helvetica,sans-Serif" font-size="10.00">/JSUMemoryStream.h</text>
</a>
</g>
</g>
<!-- Node28&#45;&gt;Node41 -->
<g id="edge51" class="edge">
<title>Node28&#45;&gt;Node41</title>
<path fill="none" stroke="midnightblue" d="M1301.56,-608.02C1407.16,-595.2 1593.75,-572.52 1692.69,-560.5"/>
<polygon fill="midnightblue" stroke="midnightblue" points="1301.1,-604.55 1291.6,-609.23 1301.95,-611.5 1301.1,-604.55"/>
</g>
<!-- Node29&#45;&gt;Node6 -->
<g id="edge40" class="edge">
<title>Node29&#45;&gt;Node6</title>
<path fill="none" stroke="midnightblue" d="M993.86,-535.24C937.53,-524.18 862.12,-509.37 808.26,-498.79"/>
<polygon fill="midnightblue" stroke="midnightblue" points="993.3,-538.7 1003.79,-537.19 994.65,-531.83 993.3,-538.7"/>
</g>
<!-- Node29&#45;&gt;Node26 -->
<g id="edge39" class="edge">
<title>Node29&#45;&gt;Node26</title>
<path fill="none" stroke="midnightblue" d="M1029.14,-531.53C1015.64,-523.57 1001.82,-513.08 992.57,-500 978.22,-479.72 974.57,-450.17 973.72,-432.78"/>
<polygon fill="midnightblue" stroke="midnightblue" points="1027.48,-534.6 1037.92,-536.39 1030.87,-528.48 1027.48,-534.6"/>
</g>
<!-- Node30 -->
<g id="node30" class="node">
<title>Node30</title>
<g id="a_node30"><a xlink:href="f__op__msg__mng_8cpp.html" target="_top" xlink:title=" ">
<polygon fill="white" stroke="black" points="1001.57,-475 1001.57,-494 1141.57,-494 1141.57,-475 1001.57,-475"/>
<text text-anchor="middle" x="1071.57" y="-482" font-family="Helvetica,sans-Serif" font-size="10.00">src/f_op/f_op_msg_mng.cpp</text>
</a>
</g>
</g>
<!-- Node29&#45;&gt;Node30 -->
<g id="edge37" class="edge">
<title>Node29&#45;&gt;Node30</title>
<path fill="none" stroke="midnightblue" d="M1071.57,-526.25C1071.57,-515.02 1071.57,-502.38 1071.57,-494.19"/>
<polygon fill="midnightblue" stroke="midnightblue" points="1068.07,-526.4 1071.57,-536.4 1075.07,-526.4 1068.07,-526.4"/>
</g>
<!-- Node31 -->
<g id="node31" class="node">
<title>Node31</title>
<g id="a_node31"><a xlink:href="J2DPane_8cpp.html" target="_top" xlink:title=" ">
<polygon fill="white" stroke="black" points="826.07,-469.5 826.07,-499.5 945.07,-499.5 945.07,-469.5 826.07,-469.5"/>
<text text-anchor="start" x="834.07" y="-487.5" font-family="Helvetica,sans-Serif" font-size="10.00">libs/JSystem/J2DGraph</text>
<text text-anchor="middle" x="885.57" y="-476.5" font-family="Helvetica,sans-Serif" font-size="10.00">/J2DPane.cpp</text>
</a>
</g>
</g>
<!-- Node29&#45;&gt;Node31 -->
<g id="edge38" class="edge">
<title>Node29&#45;&gt;Node31</title>
<path fill="none" stroke="midnightblue" d="M1021.75,-533.09C991.73,-522.6 953.98,-509.41 925.85,-499.58"/>
<polygon fill="midnightblue" stroke="midnightblue" points="1020.62,-536.4 1031.21,-536.4 1022.92,-529.79 1020.62,-536.4"/>
</g>
<!-- Node32 -->
<g id="node32" class="node">
<title>Node32</title>
<g id="a_node32"><a xlink:href="J2DTextBox_8h.html" target="_top" xlink:title=" ">
<polygon fill="white" stroke="black" points="1160.07,-469.5 1160.07,-499.5 1295.07,-499.5 1295.07,-469.5 1160.07,-469.5"/>
<text text-anchor="start" x="1168.07" y="-487.5" font-family="Helvetica,sans-Serif" font-size="10.00">include/JSystem/J2DGraph</text>
<text text-anchor="middle" x="1227.57" y="-476.5" font-family="Helvetica,sans-Serif" font-size="10.00">/J2DTextBox.h</text>
</a>
</g>
</g>
<!-- Node29&#45;&gt;Node32 -->
<g id="edge41" class="edge">
<title>Node29&#45;&gt;Node32</title>
<path fill="none" stroke="midnightblue" d="M1114.66,-532.54C1139.63,-522.14 1170.6,-509.24 1193.79,-499.58"/>
<polygon fill="midnightblue" stroke="midnightblue" points="1113.3,-529.32 1105.42,-536.4 1116,-535.78 1113.3,-529.32"/>
</g>
<!-- Node33 -->
<g id="node33" class="node">
<title>Node33</title>
<g id="a_node33"><a xlink:href="J2DTextBox_8cpp.html" target="_top" xlink:title=" ">
<polygon fill="white" stroke="black" points="1168.07,-402.5 1168.07,-432.5 1287.07,-432.5 1287.07,-402.5 1168.07,-402.5"/>
<text text-anchor="start" x="1176.07" y="-420.5" font-family="Helvetica,sans-Serif" font-size="10.00">libs/JSystem/J2DGraph</text>
<text text-anchor="middle" x="1227.57" y="-409.5" font-family="Helvetica,sans-Serif" font-size="10.00">/J2DTextBox.cpp</text>
</a>
</g>
</g>
<!-- Node32&#45;&gt;Node33 -->
<g id="edge42" class="edge">
<title>Node32&#45;&gt;Node33</title>
<path fill="none" stroke="midnightblue" d="M1227.57,-459.11C1227.57,-450.15 1227.57,-440.32 1227.57,-432.58"/>
<polygon fill="midnightblue" stroke="midnightblue" points="1224.07,-459.4 1227.57,-469.4 1231.07,-459.4 1224.07,-459.4"/>
</g>
<!-- Node35 -->
<g id="node35" class="node">
<title>Node35</title>
<g id="a_node35"><a xlink:href="JKRAram_8cpp.html" target="_top" xlink:title=" ">
<polygon fill="white" stroke="black" points="1661.07,-402.5 1661.07,-432.5 1770.07,-432.5 1770.07,-402.5 1661.07,-402.5"/>
<text text-anchor="start" x="1669.07" y="-420.5" font-family="Helvetica,sans-Serif" font-size="10.00">libs/JSystem/JKernel</text>
<text text-anchor="middle" x="1715.57" y="-409.5" font-family="Helvetica,sans-Serif" font-size="10.00">/JKRAram.cpp</text>
</a>
</g>
</g>
<!-- Node34&#45;&gt;Node35 -->
<g id="edge44" class="edge">
<title>Node34&#45;&gt;Node35</title>
<path fill="none" stroke="midnightblue" d="M1672.71,-462.02C1682.25,-452.34 1693.24,-441.17 1701.71,-432.58"/>
<polygon fill="midnightblue" stroke="midnightblue" points="1669.98,-459.81 1665.46,-469.4 1674.97,-464.73 1669.98,-459.81"/>
</g>
<!-- Node36 -->
<g id="node36" class="node">
<title>Node36</title>
<g id="a_node36"><a xlink:href="JKRAramStream_8cpp.html" target="_top" xlink:title=" ">
<polygon fill="white" stroke="black" points="1532.07,-402.5 1532.07,-432.5 1643.07,-432.5 1643.07,-402.5 1532.07,-402.5"/>
<text text-anchor="start" x="1540.07" y="-420.5" font-family="Helvetica,sans-Serif" font-size="10.00">libs/JSystem/JKernel</text>
<text text-anchor="middle" x="1587.57" y="-409.5" font-family="Helvetica,sans-Serif" font-size="10.00">/JKRAramStream.cpp</text>
</a>
</g>
</g>
<!-- Node34&#45;&gt;Node36 -->
<g id="edge45" class="edge">
<title>Node34&#45;&gt;Node36</title>
<path fill="none" stroke="midnightblue" d="M1630.42,-462.02C1620.89,-452.34 1609.89,-441.17 1601.43,-432.58"/>
<polygon fill="midnightblue" stroke="midnightblue" points="1628.17,-464.73 1637.68,-469.4 1633.16,-459.81 1628.17,-464.73"/>
</g>
<!-- Node37&#45;&gt;Node34 -->
<g id="edge48" class="edge">
<title>Node37&#45;&gt;Node34</title>
<path fill="none" stroke="midnightblue" d="M1472.3,-533.85C1511.6,-523.25 1561.93,-509.68 1599.25,-499.61"/>
<polygon fill="midnightblue" stroke="midnightblue" points="1471.31,-530.49 1462.57,-536.48 1473.13,-537.25 1471.31,-530.49"/>
</g>
<!-- Node38 -->
<g id="node38" class="node">
<title>Node38</title>
<g id="a_node38"><a xlink:href="JSUFileStream_8cpp.html" target="_top" xlink:title=" ">
<polygon fill="white" stroke="black" points="1456.07,-469.5 1456.07,-499.5 1571.07,-499.5 1571.07,-469.5 1456.07,-469.5"/>
<text text-anchor="start" x="1464.07" y="-487.5" font-family="Helvetica,sans-Serif" font-size="10.00">libs/JSystem/JSupport</text>
<text text-anchor="middle" x="1513.57" y="-476.5" font-family="Helvetica,sans-Serif" font-size="10.00">/JSUFileStream.cpp</text>
</a>
</g>
</g>
<!-- Node37&#45;&gt;Node38 -->
<g id="edge47" class="edge">
<title>Node37&#45;&gt;Node38</title>
<path fill="none" stroke="midnightblue" d="M1441.45,-531.02C1457.47,-520.9 1476.7,-508.77 1491.26,-499.58"/>
<polygon fill="midnightblue" stroke="midnightblue" points="1439.51,-528.1 1432.92,-536.4 1443.24,-534.02 1439.51,-528.1"/>
</g>
<!-- Node39 -->
<g id="node39" class="node">
<title>Node39</title>
<g id="a_node39"><a xlink:href="JKRDvdAramRipper_8h.html" target="_top" xlink:title=" ">
<polygon fill="white" stroke="black" points="1313.07,-469.5 1313.07,-499.5 1438.07,-499.5 1438.07,-469.5 1313.07,-469.5"/>
<text text-anchor="start" x="1321.07" y="-487.5" font-family="Helvetica,sans-Serif" font-size="10.00">include/JSystem/JKernel</text>
<text text-anchor="middle" x="1375.57" y="-476.5" font-family="Helvetica,sans-Serif" font-size="10.00">/JKRDvdAramRipper.h</text>
</a>
</g>
</g>
<!-- Node37&#45;&gt;Node39 -->
<g id="edge49" class="edge">
<title>Node37&#45;&gt;Node39</title>
<path fill="none" stroke="midnightblue" d="M1398.23,-527.58C1393.2,-518.24 1387.55,-507.75 1383.15,-499.58"/>
<polygon fill="midnightblue" stroke="midnightblue" points="1395.15,-529.25 1402.97,-536.4 1401.32,-525.93 1395.15,-529.25"/>
</g>
<!-- Node40 -->
<g id="node40" class="node">
<title>Node40</title>
<g id="a_node40"><a xlink:href="JKRAramArchive_8cpp.html" target="_top" xlink:title=" ">
<polygon fill="white" stroke="black" points="1319.07,-402.5 1319.07,-432.5 1432.07,-432.5 1432.07,-402.5 1319.07,-402.5"/>
<text text-anchor="start" x="1327.07" y="-420.5" font-family="Helvetica,sans-Serif" font-size="10.00">libs/JSystem/JKernel</text>
<text text-anchor="middle" x="1375.57" y="-409.5" font-family="Helvetica,sans-Serif" font-size="10.00">/JKRAramArchive.cpp</text>
</a>
</g>
</g>
<!-- Node39&#45;&gt;Node40 -->
<g id="edge50" class="edge">
<title>Node39&#45;&gt;Node40</title>
<path fill="none" stroke="midnightblue" d="M1375.57,-459.11C1375.57,-450.15 1375.57,-440.32 1375.57,-432.58"/>
<polygon fill="midnightblue" stroke="midnightblue" points="1372.07,-459.4 1375.57,-469.4 1379.07,-459.4 1372.07,-459.4"/>
</g>
<!-- Node42 -->
<g id="node42" class="node">
<title>Node42</title>
<g id="a_node42"><a xlink:href="JSUMemoryStream_8cpp.html" target="_top" xlink:title=" ">
<polygon fill="white" stroke="black" points="1732.07,-469.5 1732.07,-499.5 1855.07,-499.5 1855.07,-469.5 1732.07,-469.5"/>
<text text-anchor="start" x="1740.07" y="-487.5" font-family="Helvetica,sans-Serif" font-size="10.00">libs/JSystem/JSupport</text>
<text text-anchor="middle" x="1793.57" y="-476.5" font-family="Helvetica,sans-Serif" font-size="10.00">/JSUMemoryStream.cpp</text>
</a>
</g>
</g>
<!-- Node41&#45;&gt;Node42 -->
<g id="edge52" class="edge">
<title>Node41&#45;&gt;Node42</title>
<path fill="none" stroke="midnightblue" d="M1770.91,-527.58C1775.94,-518.24 1781.59,-507.75 1785.99,-499.58"/>
<polygon fill="midnightblue" stroke="midnightblue" points="1767.82,-525.93 1766.16,-536.4 1773.99,-529.25 1767.82,-525.93"/>
</g>
</g>
</svg>
