<?xml version="1.0" encoding="UTF-8" standalone="no"?>
<!DOCTYPE svg PUBLIC "-//W3C//DTD SVG 1.1//EN"
 "http://www.w3.org/Graphics/SVG/1.1/DTD/svg11.dtd">
<!-- Generated by graphviz version 2.44.0 ()
 -->
<!-- Title: include/JSystem/JSupport/JSURandomInputStream.h Pages: 1 -->
<svg width="2105pt" height="564pt"
 viewBox="0.00 0.00 2104.50 564.00" xmlns="http://www.w3.org/2000/svg" xmlns:xlink="http://www.w3.org/1999/xlink">
<g id="graph0" class="graph" transform="scale(1 1) rotate(0) translate(4 560)">
<title>include/JSystem/JSupport/JSURandomInputStream.h</title>
<polygon fill="white" stroke="transparent" points="-4,4 -4,-560 2100.5,-560 2100.5,4 -4,4"/>
<!-- Node1 -->
<g id="node1" class="node">
<title>Node1</title>
<g id="a_node1"><a xlink:title=" ">
<polygon fill="#bfbfbf" stroke="black" points="1420,-525.5 1420,-555.5 1556,-555.5 1556,-525.5 1420,-525.5"/>
<text text-anchor="start" x="1428" y="-543.5" font-family="Helvetica,sans-Serif" font-size="10.00">include/JSystem/JSupport</text>
<text text-anchor="middle" x="1488" y="-532.5" font-family="Helvetica,sans-Serif" font-size="10.00">/JSURandomInputStream.h</text>
</a>
</g>
</g>
<!-- Node2 -->
<g id="node2" class="node">
<title>Node2</title>
<g id="a_node2"><a xlink:href="JSUInputStream_8cpp.html" target="_top" xlink:title=" ">
<polygon fill="white" stroke="black" points="997.5,-458.5 997.5,-488.5 1112.5,-488.5 1112.5,-458.5 997.5,-458.5"/>
<text text-anchor="start" x="1005.5" y="-476.5" font-family="Helvetica,sans-Serif" font-size="10.00">libs/JSystem/JSupport</text>
<text text-anchor="middle" x="1055" y="-465.5" font-family="Helvetica,sans-Serif" font-size="10.00">/JSUInputStream.cpp</text>
</a>
</g>
</g>
<!-- Node1&#45;&gt;Node2 -->
<g id="edge1" class="edge">
<title>Node1&#45;&gt;Node2</title>
<path fill="none" stroke="midnightblue" d="M1409.53,-530.54C1335.03,-521.59 1220.02,-506.66 1121,-489 1118.23,-488.51 1115.4,-487.98 1112.54,-487.42"/>
<polygon fill="midnightblue" stroke="midnightblue" points="1409.42,-534.05 1419.77,-531.76 1410.25,-527.1 1409.42,-534.05"/>
</g>
<!-- Node3 -->
<g id="node3" class="node">
<title>Node3</title>
<g id="a_node3"><a xlink:href="J2DPane_8h.html" target="_top" xlink:title=" ">
<polygon fill="white" stroke="black" points="1130.5,-458.5 1130.5,-488.5 1265.5,-488.5 1265.5,-458.5 1130.5,-458.5"/>
<text text-anchor="start" x="1138.5" y="-476.5" font-family="Helvetica,sans-Serif" font-size="10.00">include/JSystem/J2DGraph</text>
<text text-anchor="middle" x="1198" y="-465.5" font-family="Helvetica,sans-Serif" font-size="10.00">/J2DPane.h</text>
</a>
</g>
</g>
<!-- Node1&#45;&gt;Node3 -->
<g id="edge2" class="edge">
<title>Node1&#45;&gt;Node3</title>
<path fill="none" stroke="midnightblue" d="M1415.51,-523.25C1367.98,-512.6 1306.44,-498.81 1260.96,-488.61"/>
<polygon fill="midnightblue" stroke="midnightblue" points="1414.91,-526.7 1425.43,-525.48 1416.44,-519.87 1414.91,-526.7"/>
</g>
<!-- Node56 -->
<g id="node40" class="node">
<title>Node56</title>
<g id="a_node40"><a xlink:href="J2DWindow_8h.html" target="_top" xlink:title=" ">
<polygon fill="white" stroke="black" points="1387.5,-391.5 1387.5,-421.5 1522.5,-421.5 1522.5,-391.5 1387.5,-391.5"/>
<text text-anchor="start" x="1395.5" y="-409.5" font-family="Helvetica,sans-Serif" font-size="10.00">include/JSystem/J2DGraph</text>
<text text-anchor="middle" x="1455" y="-398.5" font-family="Helvetica,sans-Serif" font-size="10.00">/J2DWindow.h</text>
</a>
</g>
</g>
<!-- Node1&#45;&gt;Node56 -->
<g id="edge59" class="edge">
<title>Node1&#45;&gt;Node56</title>
<path fill="none" stroke="midnightblue" d="M1481.97,-515.39C1475.1,-487.9 1464.1,-443.89 1458.51,-421.52"/>
<polygon fill="midnightblue" stroke="midnightblue" points="1478.65,-516.52 1484.47,-525.37 1485.44,-514.82 1478.65,-516.52"/>
</g>
<!-- Node58 -->
<g id="node42" class="node">
<title>Node58</title>
<g id="a_node42"><a xlink:href="JKRAramStream_8h.html" target="_top" xlink:title=" ">
<polygon fill="white" stroke="black" points="1554.5,-391.5 1554.5,-421.5 1679.5,-421.5 1679.5,-391.5 1554.5,-391.5"/>
<text text-anchor="start" x="1562.5" y="-409.5" font-family="Helvetica,sans-Serif" font-size="10.00">include/JSystem/JKernel</text>
<text text-anchor="middle" x="1617" y="-398.5" font-family="Helvetica,sans-Serif" font-size="10.00">/JKRAramStream.h</text>
</a>
</g>
</g>
<!-- Node1&#45;&gt;Node58 -->
<g id="edge60" class="edge">
<title>Node1&#45;&gt;Node58</title>
<path fill="none" stroke="midnightblue" d="M1509.11,-517.9C1535.74,-490.65 1580.76,-444.58 1603.29,-421.52"/>
<polygon fill="midnightblue" stroke="midnightblue" points="1506.29,-515.78 1501.81,-525.37 1511.3,-520.67 1506.29,-515.78"/>
</g>
<!-- Node61 -->
<g id="node45" class="node">
<title>Node61</title>
<g id="a_node45"><a xlink:href="JSUFileStream_8h.html" target="_top" xlink:title=" ">
<polygon fill="white" stroke="black" points="1605.5,-458.5 1605.5,-488.5 1736.5,-488.5 1736.5,-458.5 1605.5,-458.5"/>
<text text-anchor="start" x="1613.5" y="-476.5" font-family="Helvetica,sans-Serif" font-size="10.00">include/JSystem/JSupport</text>
<text text-anchor="middle" x="1671" y="-465.5" font-family="Helvetica,sans-Serif" font-size="10.00">/JSUFileStream.h</text>
</a>
</g>
</g>
<!-- Node1&#45;&gt;Node61 -->
<g id="edge63" class="edge">
<title>Node1&#45;&gt;Node61</title>
<path fill="none" stroke="midnightblue" d="M1537.4,-521.96C1566.87,-511.48 1603.81,-498.37 1631.37,-488.58"/>
<polygon fill="midnightblue" stroke="midnightblue" points="1535.96,-518.75 1527.71,-525.4 1538.3,-525.35 1535.96,-518.75"/>
</g>
<!-- Node65 -->
<g id="node49" class="node">
<title>Node65</title>
<g id="a_node49"><a xlink:href="JSUMemoryStream_8h.html" target="_top" xlink:title=" ">
<polygon fill="white" stroke="black" points="1888.5,-458.5 1888.5,-488.5 2019.5,-488.5 2019.5,-458.5 1888.5,-458.5"/>
<text text-anchor="start" x="1896.5" y="-476.5" font-family="Helvetica,sans-Serif" font-size="10.00">include/JSystem/JSupport</text>
<text text-anchor="middle" x="1954" y="-465.5" font-family="Helvetica,sans-Serif" font-size="10.00">/JSUMemoryStream.h</text>
</a>
</g>
</g>
<!-- Node1&#45;&gt;Node65 -->
<g id="edge68" class="edge">
<title>Node1&#45;&gt;Node65</title>
<path fill="none" stroke="midnightblue" d="M1566.17,-528.6C1656.48,-516 1803.49,-495.49 1888.2,-483.68"/>
<polygon fill="midnightblue" stroke="midnightblue" points="1565.68,-525.13 1556.26,-529.98 1566.65,-532.06 1565.68,-525.13"/>
</g>
<!-- Node4 -->
<g id="node4" class="node">
<title>Node4</title>
<g id="a_node4"><a xlink:href="f__op__msg__mng_8cpp.html" target="_top" xlink:title=" ">
<polygon fill="white" stroke="black" points="719,-397 719,-416 859,-416 859,-397 719,-397"/>
<text text-anchor="middle" x="789" y="-404" font-family="Helvetica,sans-Serif" font-size="10.00">src/f_op/f_op_msg_mng.cpp</text>
</a>
</g>
</g>
<!-- Node3&#45;&gt;Node4 -->
<g id="edge3" class="edge">
<title>Node3&#45;&gt;Node4</title>
<path fill="none" stroke="midnightblue" d="M1120.32,-457.94C1007.24,-439.51 976.93,-439.74 868,-422 856.85,-420.18 844.85,-418.07 833.65,-416.02"/>
<polygon fill="midnightblue" stroke="midnightblue" points="1119.99,-461.43 1130.42,-459.6 1121.12,-454.52 1119.99,-461.43"/>
</g>
<!-- Node5 -->
<g id="node5" class="node">
<title>Node5</title>
<g id="a_node5"><a xlink:href="J2DPane_8cpp.html" target="_top" xlink:title=" ">
<polygon fill="white" stroke="black" points="877.5,-391.5 877.5,-421.5 996.5,-421.5 996.5,-391.5 877.5,-391.5"/>
<text text-anchor="start" x="885.5" y="-409.5" font-family="Helvetica,sans-Serif" font-size="10.00">libs/JSystem/J2DGraph</text>
<text text-anchor="middle" x="937" y="-398.5" font-family="Helvetica,sans-Serif" font-size="10.00">/J2DPane.cpp</text>
</a>
</g>
</g>
<!-- Node3&#45;&gt;Node5 -->
<g id="edge4" class="edge">
<title>Node3&#45;&gt;Node5</title>
<path fill="none" stroke="midnightblue" d="M1131.95,-456.05C1089.28,-445.43 1034.34,-431.74 993.66,-421.61"/>
<polygon fill="midnightblue" stroke="midnightblue" points="1131.14,-459.46 1141.69,-458.48 1132.83,-452.66 1131.14,-459.46"/>
</g>
<!-- Node6 -->
<g id="node6" class="node">
<title>Node6</title>
<g id="a_node6"><a xlink:href="J2DPicture_8h.html" target="_top" xlink:title=" ">
<polygon fill="white" stroke="black" points="691.5,-324.5 691.5,-354.5 826.5,-354.5 826.5,-324.5 691.5,-324.5"/>
<text text-anchor="start" x="699.5" y="-342.5" font-family="Helvetica,sans-Serif" font-size="10.00">include/JSystem/J2DGraph</text>
<text text-anchor="middle" x="759" y="-331.5" font-family="Helvetica,sans-Serif" font-size="10.00">/J2DPicture.h</text>
</a>
</g>
</g>
<!-- Node3&#45;&gt;Node6 -->
<g id="edge5" class="edge">
<title>Node3&#45;&gt;Node6</title>
<path fill="none" stroke="midnightblue" d="M1129.06,-455.58C1101.68,-447.42 1070.47,-436.26 1044,-422 1024.51,-411.5 1025.06,-400.37 1005,-391 996.84,-387.19 896.71,-367.26 826.75,-353.6"/>
<polygon fill="midnightblue" stroke="midnightblue" points="1128.38,-459.02 1138.96,-458.45 1130.33,-452.3 1128.38,-459.02"/>
</g>
<!-- Node8 -->
<g id="node8" class="node">
<title>Node8</title>
<g id="a_node8"><a xlink:href="J2DScreen_8h.html" target="_top" xlink:title=" ">
<polygon fill="white" stroke="black" points="1053.5,-391.5 1053.5,-421.5 1188.5,-421.5 1188.5,-391.5 1053.5,-391.5"/>
<text text-anchor="start" x="1061.5" y="-409.5" font-family="Helvetica,sans-Serif" font-size="10.00">include/JSystem/J2DGraph</text>
<text text-anchor="middle" x="1121" y="-398.5" font-family="Helvetica,sans-Serif" font-size="10.00">/J2DScreen.h</text>
</a>
</g>
</g>
<!-- Node3&#45;&gt;Node8 -->
<g id="edge7" class="edge">
<title>Node3&#45;&gt;Node8</title>
<path fill="none" stroke="midnightblue" d="M1173.58,-451.88C1161.88,-442.01 1148.16,-430.43 1137.68,-421.58"/>
<polygon fill="midnightblue" stroke="midnightblue" points="1171.39,-454.62 1181.29,-458.4 1175.91,-449.27 1171.39,-454.62"/>
</g>
<!-- Node54 -->
<g id="node38" class="node">
<title>Node54</title>
<g id="a_node38"><a xlink:href="J2DTextBox_8h.html" target="_top" xlink:title=" ">
<polygon fill="white" stroke="black" points="1206.5,-391.5 1206.5,-421.5 1341.5,-421.5 1341.5,-391.5 1206.5,-391.5"/>
<text text-anchor="start" x="1214.5" y="-409.5" font-family="Helvetica,sans-Serif" font-size="10.00">include/JSystem/J2DGraph</text>
<text text-anchor="middle" x="1274" y="-398.5" font-family="Helvetica,sans-Serif" font-size="10.00">/J2DTextBox.h</text>
</a>
</g>
</g>
<!-- Node3&#45;&gt;Node54 -->
<g id="edge53" class="edge">
<title>Node3&#45;&gt;Node54</title>
<path fill="none" stroke="midnightblue" d="M1222.11,-451.88C1233.66,-442.01 1247.19,-430.43 1257.54,-421.58"/>
<polygon fill="midnightblue" stroke="midnightblue" points="1219.82,-449.24 1214.49,-458.4 1224.37,-454.56 1219.82,-449.24"/>
</g>
<!-- Node3&#45;&gt;Node56 -->
<g id="edge56" class="edge">
<title>Node3&#45;&gt;Node56</title>
<path fill="none" stroke="midnightblue" d="M1263.3,-455.98C1305.28,-445.37 1359.24,-431.72 1399.21,-421.61"/>
<polygon fill="midnightblue" stroke="midnightblue" points="1262.29,-452.63 1253.45,-458.48 1264,-459.42 1262.29,-452.63"/>
</g>
<!-- Node7 -->
<g id="node7" class="node">
<title>Node7</title>
<g id="a_node7"><a xlink:href="J2DPicture_8cpp.html" target="_top" xlink:title=" ">
<polygon fill="white" stroke="black" points="515.5,-257.5 515.5,-287.5 634.5,-287.5 634.5,-257.5 515.5,-257.5"/>
<text text-anchor="start" x="523.5" y="-275.5" font-family="Helvetica,sans-Serif" font-size="10.00">libs/JSystem/J2DGraph</text>
<text text-anchor="middle" x="575" y="-264.5" font-family="Helvetica,sans-Serif" font-size="10.00">/J2DPicture.cpp</text>
</a>
</g>
</g>
<!-- Node6&#45;&gt;Node7 -->
<g id="edge6" class="edge">
<title>Node6&#45;&gt;Node7</title>
<path fill="none" stroke="midnightblue" d="M709.33,-320.96C679.7,-310.48 642.56,-297.37 614.85,-287.58"/>
<polygon fill="midnightblue" stroke="midnightblue" points="708.48,-324.37 719.07,-324.4 710.81,-317.76 708.48,-324.37"/>
</g>
<!-- Node8&#45;&gt;Node6 -->
<g id="edge52" class="edge">
<title>Node8&#45;&gt;Node6</title>
<path fill="none" stroke="midnightblue" d="M1043.05,-391.71C962.24,-377.41 846.22,-356.87 836,-355 832.92,-354.44 829.78,-353.86 826.6,-353.27"/>
<polygon fill="midnightblue" stroke="midnightblue" points="1042.76,-395.21 1053.22,-393.51 1043.98,-388.32 1042.76,-395.21"/>
</g>
<!-- Node9 -->
<g id="node9" class="node">
<title>Node9</title>
<g id="a_node9"><a xlink:href="J2DScreen_8cpp.html" target="_top" xlink:title=" ">
<polygon fill="white" stroke="black" points="973.5,-324.5 973.5,-354.5 1092.5,-354.5 1092.5,-324.5 973.5,-324.5"/>
<text text-anchor="start" x="981.5" y="-342.5" font-family="Helvetica,sans-Serif" font-size="10.00">libs/JSystem/J2DGraph</text>
<text text-anchor="middle" x="1033" y="-331.5" font-family="Helvetica,sans-Serif" font-size="10.00">/J2DScreen.cpp</text>
</a>
</g>
</g>
<!-- Node8&#45;&gt;Node9 -->
<g id="edge8" class="edge">
<title>Node8&#45;&gt;Node9</title>
<path fill="none" stroke="midnightblue" d="M1093.86,-385.45C1080.32,-375.45 1064.27,-363.6 1052.06,-354.58"/>
<polygon fill="midnightblue" stroke="midnightblue" points="1091.78,-388.27 1101.91,-391.4 1095.94,-382.64 1091.78,-388.27"/>
</g>
<!-- Node10 -->
<g id="node10" class="node">
<title>Node10</title>
<g id="a_node10"><a xlink:href="d__drawlist_8h.html" target="_top" xlink:title=" ">
<polygon fill="white" stroke="black" points="845,-330 845,-349 955,-349 955,-330 845,-330"/>
<text text-anchor="middle" x="900" y="-337" font-family="Helvetica,sans-Serif" font-size="10.00">include/d/d_drawlist.h</text>
</a>
</g>
</g>
<!-- Node8&#45;&gt;Node10 -->
<g id="edge9" class="edge">
<title>Node8&#45;&gt;Node10</title>
<path fill="none" stroke="midnightblue" d="M1063.51,-388.59C1020.35,-375.9 963.05,-359.04 929,-349.03"/>
<polygon fill="midnightblue" stroke="midnightblue" points="1062.74,-392.01 1073.32,-391.48 1064.71,-385.3 1062.74,-392.01"/>
</g>
<!-- Node45 -->
<g id="node31" class="node">
<title>Node45</title>
<g id="a_node31"><a xlink:href="d__select__icon_8h.html" target="_top" xlink:title=" ">
<polygon fill="white" stroke="black" points="1119.5,-190.5 1119.5,-220.5 1214.5,-220.5 1214.5,-190.5 1119.5,-190.5"/>
<text text-anchor="start" x="1127.5" y="-208.5" font-family="Helvetica,sans-Serif" font-size="10.00">include/d/d_select</text>
<text text-anchor="middle" x="1167" y="-197.5" font-family="Helvetica,sans-Serif" font-size="10.00">_icon.h</text>
</a>
</g>
</g>
<!-- Node8&#45;&gt;Node45 -->
<g id="edge39" class="edge">
<title>Node8&#45;&gt;Node45</title>
<path fill="none" stroke="midnightblue" d="M1123.06,-381.04C1126,-351.26 1132.48,-299.66 1145,-257 1148.72,-244.34 1154.82,-230.65 1159.66,-220.73"/>
<polygon fill="midnightblue" stroke="midnightblue" points="1119.54,-381.04 1122.1,-391.32 1126.51,-381.69 1119.54,-381.04"/>
</g>
<!-- Node47 -->
<g id="node33" class="node">
<title>Node47</title>
<g id="a_node33"><a xlink:href="d__pane__class__alpha_8h.html" target="_top" xlink:title=" ">
<polygon fill="white" stroke="black" points="1287,-324.5 1287,-354.5 1401,-354.5 1401,-324.5 1287,-324.5"/>
<text text-anchor="start" x="1295" y="-342.5" font-family="Helvetica,sans-Serif" font-size="10.00">include/d/pane/d_pane</text>
<text text-anchor="middle" x="1344" y="-331.5" font-family="Helvetica,sans-Serif" font-size="10.00">_class_alpha.h</text>
</a>
</g>
</g>
<!-- Node8&#45;&gt;Node47 -->
<g id="edge41" class="edge">
<title>Node8&#45;&gt;Node47</title>
<path fill="none" stroke="midnightblue" d="M1179.05,-388.58C1215.27,-378.02 1261.35,-364.59 1295.59,-354.61"/>
<polygon fill="midnightblue" stroke="midnightblue" points="1177.73,-385.32 1169.11,-391.48 1179.69,-392.04 1177.73,-385.32"/>
</g>
<!-- Node11 -->
<g id="node11" class="node">
<title>Node11</title>
<g id="a_node11"><a xlink:href="d__drawlist_8cpp.html" target="_top" xlink:title=" ">
<polygon fill="white" stroke="black" points="860,-263 860,-282 964,-282 964,-263 860,-263"/>
<text text-anchor="middle" x="912" y="-270" font-family="Helvetica,sans-Serif" font-size="10.00">src/d/d_drawlist.cpp</text>
</a>
</g>
</g>
<!-- Node10&#45;&gt;Node11 -->
<g id="edge10" class="edge">
<title>Node10&#45;&gt;Node11</title>
<path fill="none" stroke="midnightblue" d="M903.5,-319.54C905.78,-307.17 908.65,-291.62 910.41,-282.13"/>
<polygon fill="midnightblue" stroke="midnightblue" points="899.99,-319.26 901.62,-329.73 906.88,-320.54 899.99,-319.26"/>
</g>
<!-- Node12 -->
<g id="node12" class="node">
<title>Node12</title>
<g id="a_node12"><a xlink:href="d__a__alink_8h.html" target="_top" xlink:title=" ">
<polygon fill="white" stroke="black" points="935,-134.5 935,-153.5 1051,-153.5 1051,-134.5 935,-134.5"/>
<text text-anchor="middle" x="993" y="-141.5" font-family="Helvetica,sans-Serif" font-size="10.00">include/d/a/d_a_alink.h</text>
</a>
</g>
</g>
<!-- Node10&#45;&gt;Node12 -->
<g id="edge11" class="edge">
<title>Node10&#45;&gt;Node12</title>
<path fill="none" stroke="midnightblue" d="M927.74,-324.95C942.98,-316.26 961.14,-303.67 973,-288 1004.48,-246.43 998.01,-178.01 994.47,-153.81"/>
<polygon fill="midnightblue" stroke="midnightblue" points="925.83,-322 918.71,-329.85 929.17,-328.15 925.83,-322"/>
</g>
<!-- Node14 -->
<g id="node14" class="node">
<title>Node14</title>
<g id="a_node14"><a xlink:href="d__com__inf__game_8h.html" target="_top" xlink:title=" ">
<polygon fill="white" stroke="red" points="790,-67.5 790,-97.5 900,-97.5 900,-67.5 790,-67.5"/>
<text text-anchor="start" x="798" y="-85.5" font-family="Helvetica,sans-Serif" font-size="10.00">include/d/com/d_com</text>
<text text-anchor="middle" x="845" y="-74.5" font-family="Helvetica,sans-Serif" font-size="10.00">_inf_game.h</text>
</a>
</g>
</g>
<!-- Node10&#45;&gt;Node14 -->
<g id="edge37" class="edge">
<title>Node10&#45;&gt;Node14</title>
<path fill="none" stroke="midnightblue" d="M854.2,-327.53C799.89,-314.33 716.05,-293.29 711,-288 668.96,-243.89 688.48,-214.59 682,-154 681.05,-145.16 676.73,-141.16 682,-134 706.52,-100.73 752.72,-88.73 789.69,-84.69"/>
<polygon fill="midnightblue" stroke="midnightblue" points="853.42,-330.94 863.97,-329.89 855.07,-324.14 853.42,-330.94"/>
</g>
<!-- Node29 -->
<g id="node26" class="node">
<title>Node29</title>
<g id="a_node26"><a xlink:href="d__kantera__icon__meter_8h.html" target="_top" xlink:title=" ">
<polygon fill="white" stroke="red" points="1203.5,-0.5 1203.5,-30.5 1304.5,-30.5 1304.5,-0.5 1203.5,-0.5"/>
<text text-anchor="start" x="1211.5" y="-18.5" font-family="Helvetica,sans-Serif" font-size="10.00">include/d/d_kantera</text>
<text text-anchor="middle" x="1254" y="-7.5" font-family="Helvetica,sans-Serif" font-size="10.00">_icon_meter.h</text>
</a>
</g>
</g>
<!-- Node10&#45;&gt;Node29 -->
<g id="edge38" class="edge">
<title>Node10&#45;&gt;Node29</title>
<path fill="none" stroke="midnightblue" d="M944.38,-326.9C997.39,-310.04 1079,-273.25 1079,-206.5 1079,-206.5 1079,-206.5 1079,-143 1079,-81.14 1151.7,-46.47 1203.38,-29.64"/>
<polygon fill="midnightblue" stroke="midnightblue" points="943.05,-323.64 934.51,-329.91 945.1,-330.33 943.05,-323.64"/>
</g>
<!-- Node31 -->
<g id="node27" class="node">
<title>Node31</title>
<g id="a_node27"><a xlink:href="d__a__player_8h.html" target="_top" xlink:title=" ">
<polygon fill="white" stroke="black" points="720.5,-263 720.5,-282 841.5,-282 841.5,-263 720.5,-263"/>
<text text-anchor="middle" x="781" y="-270" font-family="Helvetica,sans-Serif" font-size="10.00">include/d/a/d_a_player.h</text>
</a>
</g>
</g>
<!-- Node10&#45;&gt;Node31 -->
<g id="edge27" class="edge">
<title>Node10&#45;&gt;Node31</title>
<path fill="none" stroke="midnightblue" d="M874.89,-324.79C851.31,-311.9 816.74,-293.02 796.79,-282.13"/>
<polygon fill="midnightblue" stroke="midnightblue" points="873.5,-328.01 883.95,-329.73 876.85,-321.87 873.5,-328.01"/>
</g>
<!-- Node13 -->
<g id="node13" class="node">
<title>Node13</title>
<g id="a_node13"><a xlink:href="d__a__alink_8cpp.html" target="_top" xlink:title=" ">
<polygon fill="white" stroke="black" points="1076.5,-6 1076.5,-25 1185.5,-25 1185.5,-6 1076.5,-6"/>
<text text-anchor="middle" x="1131" y="-13" font-family="Helvetica,sans-Serif" font-size="10.00">src/d/a/d_a_alink.cpp</text>
</a>
</g>
</g>
<!-- Node12&#45;&gt;Node13 -->
<g id="edge12" class="edge">
<title>Node12&#45;&gt;Node13</title>
<path fill="none" stroke="midnightblue" d="M1007.48,-126.24C1021.53,-110.33 1043.8,-86.08 1065,-67 1082.59,-51.17 1104.73,-34.9 1118.37,-25.25"/>
<polygon fill="midnightblue" stroke="midnightblue" points="1004.52,-124.3 1000.57,-134.13 1009.79,-128.91 1004.52,-124.3"/>
</g>
<!-- Node12&#45;&gt;Node14 -->
<g id="edge13" class="edge">
<title>Node12&#45;&gt;Node14</title>
<path fill="none" stroke="midnightblue" d="M962.45,-130.72C938.43,-121.06 904.95,-107.6 879.88,-97.52"/>
<polygon fill="midnightblue" stroke="midnightblue" points="961.21,-133.99 971.8,-134.48 963.82,-127.5 961.21,-133.99"/>
</g>
<!-- Node14&#45;&gt;Node13 -->
<g id="edge16" class="edge">
<title>Node14&#45;&gt;Node13</title>
<path fill="none" stroke="midnightblue" d="M910.08,-66.71C966.69,-53.84 1046.77,-35.64 1093.35,-25.06"/>
<polygon fill="midnightblue" stroke="midnightblue" points="909.12,-63.34 900.14,-68.97 910.67,-70.16 909.12,-63.34"/>
</g>
<!-- Node15 -->
<g id="node15" class="node">
<title>Node15</title>
<g id="a_node15"><a xlink:href="d__a__player_8cpp.html" target="_top" xlink:title=" ">
<polygon fill="white" stroke="black" points="0,-6 0,-25 114,-25 114,-6 0,-6"/>
<text text-anchor="middle" x="57" y="-13" font-family="Helvetica,sans-Serif" font-size="10.00">src/d/a/d_a_player.cpp</text>
</a>
</g>
</g>
<!-- Node14&#45;&gt;Node15 -->
<g id="edge14" class="edge">
<title>Node14&#45;&gt;Node15</title>
<path fill="none" stroke="midnightblue" d="M779.58,-80.13C652.45,-76.76 363.43,-65.63 123,-31 112.67,-29.51 101.54,-27.31 91.42,-25.06"/>
<polygon fill="midnightblue" stroke="midnightblue" points="779.82,-83.64 789.91,-80.39 780,-76.64 779.82,-83.64"/>
</g>
<!-- Node16 -->
<g id="node16" class="node">
<title>Node16</title>
<g id="a_node16"><a xlink:href="d__com__inf__game_8cpp.html" target="_top" xlink:title=" ">
<polygon fill="white" stroke="black" points="1456,-0.5 1456,-30.5 1564,-30.5 1564,-0.5 1456,-0.5"/>
<text text-anchor="start" x="1464" y="-18.5" font-family="Helvetica,sans-Serif" font-size="10.00">src/d/com/d_com_inf</text>
<text text-anchor="middle" x="1510" y="-7.5" font-family="Helvetica,sans-Serif" font-size="10.00">_game.cpp</text>
</a>
</g>
</g>
<!-- Node14&#45;&gt;Node16 -->
<g id="edge15" class="edge">
<title>Node14&#45;&gt;Node16</title>
<path fill="none" stroke="midnightblue" d="M910.42,-78.98C1021.21,-74.05 1252.58,-60.89 1446,-31 1449.27,-30.5 1452.61,-29.92 1455.98,-29.29"/>
<polygon fill="midnightblue" stroke="midnightblue" points="910.24,-75.49 900.41,-79.42 910.55,-82.48 910.24,-75.49"/>
</g>
<!-- Node17 -->
<g id="node17" class="node">
<title>Node17</title>
<g id="a_node17"><a xlink:href="d__resorce_8cpp.html" target="_top" xlink:title=" ">
<polygon fill="white" stroke="black" points="272,-6 272,-25 374,-25 374,-6 272,-6"/>
<text text-anchor="middle" x="323" y="-13" font-family="Helvetica,sans-Serif" font-size="10.00">src/d/d_resorce.cpp</text>
</a>
</g>
</g>
<!-- Node14&#45;&gt;Node17 -->
<g id="edge17" class="edge">
<title>Node14&#45;&gt;Node17</title>
<path fill="none" stroke="midnightblue" d="M779.89,-77.03C690.1,-70.26 523.44,-55.54 383,-31 373.82,-29.4 363.94,-27.21 354.91,-25.02"/>
<polygon fill="midnightblue" stroke="midnightblue" points="779.69,-80.52 789.92,-77.78 780.21,-73.54 779.69,-80.52"/>
</g>
<!-- Node18 -->
<g id="node18" class="node">
<title>Node18</title>
<g id="a_node18"><a xlink:href="d__stage_8cpp.html" target="_top" xlink:title=" ">
<polygon fill="white" stroke="black" points="392,-6 392,-25 486,-25 486,-6 392,-6"/>
<text text-anchor="middle" x="439" y="-13" font-family="Helvetica,sans-Serif" font-size="10.00">src/d/d_stage.cpp</text>
</a>
</g>
</g>
<!-- Node14&#45;&gt;Node18 -->
<g id="edge18" class="edge">
<title>Node14&#45;&gt;Node18</title>
<path fill="none" stroke="midnightblue" d="M779.74,-74.26C709.16,-65.93 593.53,-50.8 495,-31 486.63,-29.32 477.65,-27.15 469.38,-25.01"/>
<polygon fill="midnightblue" stroke="midnightblue" points="779.48,-77.76 789.82,-75.44 780.29,-70.8 779.48,-77.76"/>
</g>
<!-- Node19 -->
<g id="node19" class="node">
<title>Node19</title>
<g id="a_node19"><a xlink:href="d__event_8cpp.html" target="_top" xlink:title=" ">
<polygon fill="white" stroke="black" points="132.5,-6 132.5,-25 253.5,-25 253.5,-6 132.5,-6"/>
<text text-anchor="middle" x="193" y="-13" font-family="Helvetica,sans-Serif" font-size="10.00">src/d/event/d_event.cpp</text>
</a>
</g>
</g>
<!-- Node14&#45;&gt;Node19 -->
<g id="edge19" class="edge">
<title>Node14&#45;&gt;Node19</title>
<path fill="none" stroke="midnightblue" d="M779.68,-76.81C649.37,-67.29 361.19,-45.38 263,-31 252.32,-29.44 240.81,-27.26 230.27,-25.07"/>
<polygon fill="midnightblue" stroke="midnightblue" points="779.69,-80.32 789.92,-77.55 780.2,-73.34 779.69,-80.32"/>
</g>
<!-- Node20 -->
<g id="node20" class="node">
<title>Node20</title>
<g id="a_node20"><a xlink:href="d__event__manager_8cpp.html" target="_top" xlink:title=" ">
<polygon fill="white" stroke="black" points="504.5,-0.5 504.5,-30.5 607.5,-30.5 607.5,-0.5 504.5,-0.5"/>
<text text-anchor="start" x="512.5" y="-18.5" font-family="Helvetica,sans-Serif" font-size="10.00">src/d/event/d_event</text>
<text text-anchor="middle" x="556" y="-7.5" font-family="Helvetica,sans-Serif" font-size="10.00">_manager.cpp</text>
</a>
</g>
</g>
<!-- Node14&#45;&gt;Node20 -->
<g id="edge20" class="edge">
<title>Node14&#45;&gt;Node20</title>
<path fill="none" stroke="midnightblue" d="M779.61,-67.3C733.99,-57.32 671.74,-43.57 617,-31 613.92,-30.29 610.76,-29.56 607.57,-28.82"/>
<polygon fill="midnightblue" stroke="midnightblue" points="779.14,-70.78 789.66,-69.49 780.64,-63.94 779.14,-70.78"/>
</g>
<!-- Node21 -->
<g id="node21" class="node">
<title>Node21</title>
<g id="a_node21"><a xlink:href="d__kankyo_8cpp.html" target="_top" xlink:title=" ">
<polygon fill="white" stroke="black" points="626,-6 626,-25 760,-25 760,-6 626,-6"/>
<text text-anchor="middle" x="693" y="-13" font-family="Helvetica,sans-Serif" font-size="10.00">src/d/kankyo/d_kankyo.cpp</text>
</a>
</g>
</g>
<!-- Node14&#45;&gt;Node21 -->
<g id="edge21" class="edge">
<title>Node14&#45;&gt;Node21</title>
<path fill="none" stroke="midnightblue" d="M802.81,-63.46C773.44,-50.9 735.62,-34.72 712.89,-25.01"/>
<polygon fill="midnightblue" stroke="midnightblue" points="801.45,-66.68 812.02,-67.4 804.2,-60.25 801.45,-66.68"/>
</g>
<!-- Node22 -->
<g id="node22" class="node">
<title>Node22</title>
<g id="a_node22"><a xlink:href="d__meter2__info_8cpp.html" target="_top" xlink:title=" ">
<polygon fill="white" stroke="black" points="1582,-0.5 1582,-30.5 1692,-30.5 1692,-0.5 1582,-0.5"/>
<text text-anchor="start" x="1590" y="-18.5" font-family="Helvetica,sans-Serif" font-size="10.00">src/d/meter/d_meter2</text>
<text text-anchor="middle" x="1637" y="-7.5" font-family="Helvetica,sans-Serif" font-size="10.00">_info.cpp</text>
</a>
</g>
</g>
<!-- Node14&#45;&gt;Node22 -->
<g id="edge22" class="edge">
<title>Node14&#45;&gt;Node22</title>
<path fill="none" stroke="midnightblue" d="M910.12,-80.33C1037.89,-77.3 1330.14,-66.72 1573,-31 1575.93,-30.57 1578.93,-30.08 1581.94,-29.54"/>
<polygon fill="midnightblue" stroke="midnightblue" points="910.02,-76.83 900.1,-80.56 910.18,-83.83 910.02,-76.83"/>
</g>
<!-- Node23 -->
<g id="node23" class="node">
<title>Node23</title>
<g id="a_node23"><a xlink:href="d__msg__flow_8cpp.html" target="_top" xlink:title=" ">
<polygon fill="white" stroke="black" points="778.5,-6 778.5,-25 911.5,-25 911.5,-6 778.5,-6"/>
<text text-anchor="middle" x="845" y="-13" font-family="Helvetica,sans-Serif" font-size="10.00">src/d/msg/d_msg_flow.cpp</text>
</a>
</g>
</g>
<!-- Node14&#45;&gt;Node23 -->
<g id="edge23" class="edge">
<title>Node14&#45;&gt;Node23</title>
<path fill="none" stroke="midnightblue" d="M845,-57.25C845,-46.02 845,-33.38 845,-25.19"/>
<polygon fill="midnightblue" stroke="midnightblue" points="841.5,-57.4 845,-67.4 848.5,-57.4 841.5,-57.4"/>
</g>
<!-- Node24 -->
<g id="node24" class="node">
<title>Node24</title>
<g id="a_node24"><a xlink:href="d__save_8cpp.html" target="_top" xlink:title=" ">
<polygon fill="white" stroke="black" points="1322.5,-6 1322.5,-25 1437.5,-25 1437.5,-6 1322.5,-6"/>
<text text-anchor="middle" x="1380" y="-13" font-family="Helvetica,sans-Serif" font-size="10.00">src/d/save/d_save.cpp</text>
</a>
</g>
</g>
<!-- Node14&#45;&gt;Node24 -->
<g id="edge24" class="edge">
<title>Node14&#45;&gt;Node24</title>
<path fill="none" stroke="midnightblue" d="M910.14,-76.66C1000.82,-69.42 1170.07,-54.11 1313,-31 1323.1,-29.37 1333.98,-27.19 1343.97,-25.03"/>
<polygon fill="midnightblue" stroke="midnightblue" points="909.7,-73.18 900.01,-77.46 910.25,-80.16 909.7,-73.18"/>
</g>
<!-- Node25 -->
<g id="node25" class="node">
<title>Node25</title>
<g id="a_node25"><a xlink:href="m__Do__machine__exception_8cpp.html" target="_top" xlink:title=" ">
<polygon fill="white" stroke="black" points="929.5,-0.5 929.5,-30.5 1058.5,-30.5 1058.5,-0.5 929.5,-0.5"/>
<text text-anchor="start" x="937.5" y="-18.5" font-family="Helvetica,sans-Serif" font-size="10.00">src/m_Do/m_Do_machine</text>
<text text-anchor="middle" x="994" y="-7.5" font-family="Helvetica,sans-Serif" font-size="10.00">_exception.cpp</text>
</a>
</g>
</g>
<!-- Node14&#45;&gt;Node25 -->
<g id="edge25" class="edge">
<title>Node14&#45;&gt;Node25</title>
<path fill="none" stroke="midnightblue" d="M886.79,-63.27C910.52,-52.92 939.78,-40.15 961.73,-30.58"/>
<polygon fill="midnightblue" stroke="midnightblue" points="885.1,-60.19 877.33,-67.4 887.9,-66.61 885.1,-60.19"/>
</g>
<!-- Node14&#45;&gt;Node29 -->
<g id="edge26" class="edge">
<title>Node14&#45;&gt;Node29</title>
<path fill="none" stroke="midnightblue" d="M910.32,-73.9C980.67,-65.28 1095.74,-49.94 1194,-31 1197.05,-30.41 1200.18,-29.77 1203.33,-29.1"/>
<polygon fill="midnightblue" stroke="midnightblue" points="909.78,-70.44 900.27,-75.12 910.62,-77.39 909.78,-70.44"/>
</g>
<!-- Node31&#45;&gt;Node12 -->
<g id="edge29" class="edge">
<title>Node31&#45;&gt;Node12</title>
<path fill="none" stroke="midnightblue" d="M832.68,-260.82C886.36,-249.28 963.93,-231.18 974,-221 992.27,-202.53 993.85,-169.32 993.48,-153.64"/>
<polygon fill="midnightblue" stroke="midnightblue" points="831.67,-257.45 822.62,-262.96 833.13,-264.3 831.67,-257.45"/>
</g>
<!-- Node31&#45;&gt;Node15 -->
<g id="edge28" class="edge">
<title>Node31&#45;&gt;Node15</title>
<path fill="none" stroke="midnightblue" d="M747.03,-259.54C622.04,-215.51 189.35,-63.11 81.5,-25.13"/>
<polygon fill="midnightblue" stroke="midnightblue" points="745.9,-262.85 756.5,-262.87 748.23,-256.25 745.9,-262.85"/>
</g>
<!-- Node32 -->
<g id="node28" class="node">
<title>Node32</title>
<g id="a_node28"><a xlink:href="d__bg__s__acch_8h.html" target="_top" xlink:title=" ">
<polygon fill="white" stroke="red" points="729,-190.5 729,-220.5 833,-220.5 833,-190.5 729,-190.5"/>
<text text-anchor="start" x="737" y="-208.5" font-family="Helvetica,sans-Serif" font-size="10.00">include/d/bg/d_bg_s</text>
<text text-anchor="middle" x="781" y="-197.5" font-family="Helvetica,sans-Serif" font-size="10.00">_acch.h</text>
</a>
</g>
</g>
<!-- Node31&#45;&gt;Node32 -->
<g id="edge30" class="edge">
<title>Node31&#45;&gt;Node32</title>
<path fill="none" stroke="midnightblue" d="M781,-252.41C781,-242.22 781,-229.9 781,-220.59"/>
<polygon fill="midnightblue" stroke="midnightblue" points="777.5,-252.73 781,-262.73 784.5,-252.73 777.5,-252.73"/>
</g>
<!-- Node42 -->
<g id="node29" class="node">
<title>Node42</title>
<g id="a_node29"><a xlink:href="d__attention_8h.html" target="_top" xlink:title=" ">
<polygon fill="white" stroke="red" points="851,-196 851,-215 965,-215 965,-196 851,-196"/>
<text text-anchor="middle" x="908" y="-203" font-family="Helvetica,sans-Serif" font-size="10.00">include/d/d_attention.h</text>
</a>
</g>
</g>
<!-- Node31&#45;&gt;Node42 -->
<g id="edge31" class="edge">
<title>Node31&#45;&gt;Node42</title>
<path fill="none" stroke="midnightblue" d="M806.84,-258.27C832,-245.4 869.49,-226.21 891.07,-215.17"/>
<polygon fill="midnightblue" stroke="midnightblue" points="805.17,-255.2 797.86,-262.87 808.36,-261.43 805.17,-255.2"/>
</g>
<!-- Node44 -->
<g id="node30" class="node">
<title>Node44</title>
<g id="a_node30"><a xlink:href="d__event_8h.html" target="_top" xlink:title=" ">
<polygon fill="white" stroke="black" points="691,-134.5 691,-153.5 819,-153.5 819,-134.5 691,-134.5"/>
<text text-anchor="middle" x="755" y="-141.5" font-family="Helvetica,sans-Serif" font-size="10.00">include/d/event/d_event.h</text>
</a>
</g>
</g>
<!-- Node31&#45;&gt;Node44 -->
<g id="edge34" class="edge">
<title>Node31&#45;&gt;Node44</title>
<path fill="none" stroke="midnightblue" d="M755.21,-257.6C742.06,-248.98 727.32,-236.57 720,-221 714.14,-208.53 715.53,-203.03 720,-190 725.01,-175.4 736.91,-161.88 745.44,-153.55"/>
<polygon fill="midnightblue" stroke="midnightblue" points="753.6,-260.72 763.96,-262.96 757.26,-254.75 753.6,-260.72"/>
</g>
<!-- Node42&#45;&gt;Node12 -->
<g id="edge32" class="edge">
<title>Node42&#45;&gt;Node12</title>
<path fill="none" stroke="midnightblue" d="M928.55,-190.11C944.9,-178.67 967.22,-163.05 980.84,-153.51"/>
<polygon fill="midnightblue" stroke="midnightblue" points="926.36,-187.37 920.18,-195.98 930.38,-193.11 926.36,-187.37"/>
</g>
<!-- Node42&#45;&gt;Node14 -->
<g id="edge33" class="edge">
<title>Node42&#45;&gt;Node14</title>
<path fill="none" stroke="midnightblue" d="M898.72,-186.67C886.1,-162.44 863.81,-119.62 852.31,-97.54"/>
<polygon fill="midnightblue" stroke="midnightblue" points="895.75,-188.54 903.47,-195.8 901.96,-185.31 895.75,-188.54"/>
</g>
<!-- Node44&#45;&gt;Node14 -->
<g id="edge36" class="edge">
<title>Node44&#45;&gt;Node14</title>
<path fill="none" stroke="midnightblue" d="M776.57,-128.74C790.88,-119.28 809.56,-106.93 823.79,-97.52"/>
<polygon fill="midnightblue" stroke="midnightblue" points="774.31,-126.04 767.89,-134.48 778.17,-131.88 774.31,-126.04"/>
</g>
<!-- Node44&#45;&gt;Node19 -->
<g id="edge35" class="edge">
<title>Node44&#45;&gt;Node19</title>
<path fill="none" stroke="midnightblue" d="M707.01,-132.2C597.31,-107.51 330.05,-47.35 230.87,-25.02"/>
<polygon fill="midnightblue" stroke="midnightblue" points="706.29,-135.62 716.81,-134.4 707.83,-128.79 706.29,-135.62"/>
</g>
<!-- Node46 -->
<g id="node32" class="node">
<title>Node46</title>
<g id="a_node32"><a xlink:href="d__select__icon_8cpp.html" target="_top" xlink:title=" ">
<polygon fill="white" stroke="black" points="1107.5,-134.5 1107.5,-153.5 1226.5,-153.5 1226.5,-134.5 1107.5,-134.5"/>
<text text-anchor="middle" x="1167" y="-141.5" font-family="Helvetica,sans-Serif" font-size="10.00">src/d/d_select_icon.cpp</text>
</a>
</g>
</g>
<!-- Node45&#45;&gt;Node46 -->
<g id="edge40" class="edge">
<title>Node45&#45;&gt;Node46</title>
<path fill="none" stroke="midnightblue" d="M1167,-180.29C1167,-170.86 1167,-160.65 1167,-153.66"/>
<polygon fill="midnightblue" stroke="midnightblue" points="1163.5,-180.4 1167,-190.4 1170.5,-180.4 1163.5,-180.4"/>
</g>
<!-- Node48 -->
<g id="node34" class="node">
<title>Node48</title>
<g id="a_node34"><a xlink:href="d__pane__class__alpha_8cpp.html" target="_top" xlink:title=" ">
<polygon fill="white" stroke="black" points="1154.5,-257.5 1154.5,-287.5 1279.5,-287.5 1279.5,-257.5 1154.5,-257.5"/>
<text text-anchor="start" x="1162.5" y="-275.5" font-family="Helvetica,sans-Serif" font-size="10.00">src/d/pane/d_pane_class</text>
<text text-anchor="middle" x="1217" y="-264.5" font-family="Helvetica,sans-Serif" font-size="10.00">_alpha.cpp</text>
</a>
</g>
</g>
<!-- Node47&#45;&gt;Node48 -->
<g id="edge42" class="edge">
<title>Node47&#45;&gt;Node48</title>
<path fill="none" stroke="midnightblue" d="M1307.3,-319.71C1287.27,-309.46 1262.88,-296.98 1244.5,-287.58"/>
<polygon fill="midnightblue" stroke="midnightblue" points="1305.95,-322.96 1316.44,-324.4 1309.14,-316.72 1305.95,-322.96"/>
</g>
<!-- Node49 -->
<g id="node35" class="node">
<title>Node49</title>
<g id="a_node35"><a xlink:href="d__pane__class_8h.html" target="_top" xlink:title=" ">
<polygon fill="white" stroke="black" points="1298,-257.5 1298,-287.5 1412,-287.5 1412,-257.5 1298,-257.5"/>
<text text-anchor="start" x="1306" y="-275.5" font-family="Helvetica,sans-Serif" font-size="10.00">include/d/pane/d_pane</text>
<text text-anchor="middle" x="1355" y="-264.5" font-family="Helvetica,sans-Serif" font-size="10.00">_class.h</text>
</a>
</g>
</g>
<!-- Node47&#45;&gt;Node49 -->
<g id="edge43" class="edge">
<title>Node47&#45;&gt;Node49</title>
<path fill="none" stroke="midnightblue" d="M1348.08,-314.4C1349.61,-305.37 1351.29,-295.41 1352.62,-287.58"/>
<polygon fill="midnightblue" stroke="midnightblue" points="1344.6,-313.95 1346.39,-324.4 1351.51,-315.12 1344.6,-313.95"/>
</g>
<!-- Node49&#45;&gt;Node29 -->
<g id="edge45" class="edge">
<title>Node49&#45;&gt;Node29</title>
<path fill="none" stroke="midnightblue" d="M1309.1,-252.61C1295.64,-244.81 1282.31,-234.4 1274,-221 1235.63,-159.17 1245.71,-66.02 1251.39,-30.73"/>
<polygon fill="midnightblue" stroke="midnightblue" points="1307.45,-255.7 1317.92,-257.36 1310.77,-249.54 1307.45,-255.7"/>
</g>
<!-- Node49&#45;&gt;Node45 -->
<g id="edge46" class="edge">
<title>Node49&#45;&gt;Node45</title>
<path fill="none" stroke="midnightblue" d="M1304.65,-254.09C1274.3,-243.6 1236.15,-230.41 1207.71,-220.58"/>
<polygon fill="midnightblue" stroke="midnightblue" points="1303.61,-257.44 1314.21,-257.4 1305.9,-250.82 1303.61,-257.44"/>
</g>
<!-- Node50 -->
<g id="node36" class="node">
<title>Node50</title>
<g id="a_node36"><a xlink:href="d__pane__class_8cpp.html" target="_top" xlink:title=" ">
<polygon fill="white" stroke="black" points="1283.5,-196 1283.5,-215 1426.5,-215 1426.5,-196 1283.5,-196"/>
<text text-anchor="middle" x="1355" y="-203" font-family="Helvetica,sans-Serif" font-size="10.00">src/d/pane/d_pane_class.cpp</text>
</a>
</g>
</g>
<!-- Node49&#45;&gt;Node50 -->
<g id="edge44" class="edge">
<title>Node49&#45;&gt;Node50</title>
<path fill="none" stroke="midnightblue" d="M1355,-247.25C1355,-236.02 1355,-223.38 1355,-215.19"/>
<polygon fill="midnightblue" stroke="midnightblue" points="1351.5,-247.4 1355,-257.4 1358.5,-247.4 1351.5,-247.4"/>
</g>
<!-- Node51 -->
<g id="node37" class="node">
<title>Node51</title>
<g id="a_node37"><a xlink:href="d__meter2__info_8h.html" target="_top" xlink:title=" ">
<polygon fill="white" stroke="red" points="1444.5,-190.5 1444.5,-220.5 1571.5,-220.5 1571.5,-190.5 1444.5,-190.5"/>
<text text-anchor="start" x="1452.5" y="-208.5" font-family="Helvetica,sans-Serif" font-size="10.00">include/d/meter/d_meter2</text>
<text text-anchor="middle" x="1508" y="-197.5" font-family="Helvetica,sans-Serif" font-size="10.00">_info.h</text>
</a>
</g>
</g>
<!-- Node49&#45;&gt;Node51 -->
<g id="edge47" class="edge">
<title>Node49&#45;&gt;Node51</title>
<path fill="none" stroke="midnightblue" d="M1397.59,-253.41C1422.02,-243.03 1452.22,-230.2 1474.87,-220.58"/>
<polygon fill="midnightblue" stroke="midnightblue" points="1396.03,-250.26 1388.2,-257.4 1398.77,-256.71 1396.03,-250.26"/>
</g>
<!-- Node51&#45;&gt;Node12 -->
<g id="edge51" class="edge">
<title>Node51&#45;&gt;Node12</title>
<path fill="none" stroke="midnightblue" d="M1434.46,-190.05C1346.69,-177.65 1149.71,-159.21 1051.13,-150.23"/>
<polygon fill="midnightblue" stroke="midnightblue" points="1433.96,-193.51 1444.36,-191.49 1434.97,-186.58 1433.96,-193.51"/>
</g>
<!-- Node51&#45;&gt;Node16 -->
<g id="edge48" class="edge">
<title>Node51&#45;&gt;Node16</title>
<path fill="none" stroke="midnightblue" d="M1508.26,-180.21C1508.68,-140.37 1509.51,-62.37 1509.85,-30.54"/>
<polygon fill="midnightblue" stroke="midnightblue" points="1504.76,-180.33 1508.15,-190.37 1511.76,-180.41 1504.76,-180.33"/>
</g>
<!-- Node51&#45;&gt;Node22 -->
<g id="edge49" class="edge">
<title>Node51&#45;&gt;Node22</title>
<path fill="none" stroke="midnightblue" d="M1523.63,-181.73C1550.63,-142.38 1605.24,-62.78 1627.37,-30.54"/>
<polygon fill="midnightblue" stroke="midnightblue" points="1520.47,-180.14 1517.7,-190.37 1526.24,-184.1 1520.47,-180.14"/>
</g>
<!-- Node51&#45;&gt;Node24 -->
<g id="edge50" class="edge">
<title>Node51&#45;&gt;Node24</title>
<path fill="none" stroke="midnightblue" d="M1492.67,-181.98C1464.32,-140.34 1404.86,-53.02 1385.93,-25.21"/>
<polygon fill="midnightblue" stroke="midnightblue" points="1489.86,-184.07 1498.38,-190.37 1495.64,-180.13 1489.86,-184.07"/>
</g>
<!-- Node54&#45;&gt;Node49 -->
<g id="edge55" class="edge">
<title>Node54&#45;&gt;Node49</title>
<path fill="none" stroke="midnightblue" d="M1351.24,-394.1C1373.91,-386.76 1396.29,-374.72 1410,-355 1426.27,-331.6 1397.91,-304.04 1376.22,-287.72"/>
<polygon fill="midnightblue" stroke="midnightblue" points="1350.13,-390.78 1341.53,-396.96 1352.11,-397.49 1350.13,-390.78"/>
</g>
<!-- Node55 -->
<g id="node39" class="node">
<title>Node55</title>
<g id="a_node39"><a xlink:href="J2DTextBox_8cpp.html" target="_top" xlink:title=" ">
<polygon fill="white" stroke="black" points="1149.5,-324.5 1149.5,-354.5 1268.5,-354.5 1268.5,-324.5 1149.5,-324.5"/>
<text text-anchor="start" x="1157.5" y="-342.5" font-family="Helvetica,sans-Serif" font-size="10.00">libs/JSystem/J2DGraph</text>
<text text-anchor="middle" x="1209" y="-331.5" font-family="Helvetica,sans-Serif" font-size="10.00">/J2DTextBox.cpp</text>
</a>
</g>
</g>
<!-- Node54&#45;&gt;Node55 -->
<g id="edge54" class="edge">
<title>Node54&#45;&gt;Node55</title>
<path fill="none" stroke="midnightblue" d="M1252.81,-384.31C1243.06,-374.56 1231.76,-363.26 1223.08,-354.58"/>
<polygon fill="midnightblue" stroke="midnightblue" points="1250.35,-386.8 1259.9,-391.4 1255.3,-381.85 1250.35,-386.8"/>
</g>
<!-- Node56&#45;&gt;Node47 -->
<g id="edge58" class="edge">
<title>Node56&#45;&gt;Node47</title>
<path fill="none" stroke="midnightblue" d="M1422.2,-386.3C1404.84,-376.12 1383.88,-363.85 1368.04,-354.58"/>
<polygon fill="midnightblue" stroke="midnightblue" points="1420.52,-389.36 1430.91,-391.4 1424.05,-383.32 1420.52,-389.36"/>
</g>
<!-- Node57 -->
<g id="node41" class="node">
<title>Node57</title>
<g id="a_node41"><a xlink:href="J2DWindow_8cpp.html" target="_top" xlink:title=" ">
<polygon fill="white" stroke="black" points="1457.5,-324.5 1457.5,-354.5 1576.5,-354.5 1576.5,-324.5 1457.5,-324.5"/>
<text text-anchor="start" x="1465.5" y="-342.5" font-family="Helvetica,sans-Serif" font-size="10.00">libs/JSystem/J2DGraph</text>
<text text-anchor="middle" x="1517" y="-331.5" font-family="Helvetica,sans-Serif" font-size="10.00">/J2DWindow.cpp</text>
</a>
</g>
</g>
<!-- Node56&#45;&gt;Node57 -->
<g id="edge57" class="edge">
<title>Node56&#45;&gt;Node57</title>
<path fill="none" stroke="midnightblue" d="M1475.48,-384.02C1484.72,-374.34 1495.37,-363.17 1503.57,-354.58"/>
<polygon fill="midnightblue" stroke="midnightblue" points="1472.82,-381.74 1468.45,-391.4 1477.89,-386.58 1472.82,-381.74"/>
</g>
<!-- Node59 -->
<g id="node43" class="node">
<title>Node59</title>
<g id="a_node43"><a xlink:href="JKRAram_8cpp.html" target="_top" xlink:title=" ">
<polygon fill="white" stroke="black" points="1723.5,-324.5 1723.5,-354.5 1832.5,-354.5 1832.5,-324.5 1723.5,-324.5"/>
<text text-anchor="start" x="1731.5" y="-342.5" font-family="Helvetica,sans-Serif" font-size="10.00">libs/JSystem/JKernel</text>
<text text-anchor="middle" x="1778" y="-331.5" font-family="Helvetica,sans-Serif" font-size="10.00">/JKRAram.cpp</text>
</a>
</g>
</g>
<!-- Node58&#45;&gt;Node59 -->
<g id="edge61" class="edge">
<title>Node58&#45;&gt;Node59</title>
<path fill="none" stroke="midnightblue" d="M1661.48,-387.54C1687.24,-377.14 1719.2,-364.24 1743.13,-354.58"/>
<polygon fill="midnightblue" stroke="midnightblue" points="1659.9,-384.41 1651.93,-391.4 1662.52,-390.9 1659.9,-384.41"/>
</g>
<!-- Node60 -->
<g id="node44" class="node">
<title>Node60</title>
<g id="a_node44"><a xlink:href="JKRAramStream_8cpp.html" target="_top" xlink:title=" ">
<polygon fill="white" stroke="black" points="1594.5,-324.5 1594.5,-354.5 1705.5,-354.5 1705.5,-324.5 1594.5,-324.5"/>
<text text-anchor="start" x="1602.5" y="-342.5" font-family="Helvetica,sans-Serif" font-size="10.00">libs/JSystem/JKernel</text>
<text text-anchor="middle" x="1650" y="-331.5" font-family="Helvetica,sans-Serif" font-size="10.00">/JKRAramStream.cpp</text>
</a>
</g>
</g>
<!-- Node58&#45;&gt;Node60 -->
<g id="edge62" class="edge">
<title>Node58&#45;&gt;Node60</title>
<path fill="none" stroke="midnightblue" d="M1628.79,-382.28C1633.49,-373.02 1638.75,-362.66 1642.85,-354.58"/>
<polygon fill="midnightblue" stroke="midnightblue" points="1625.57,-380.89 1624.16,-391.4 1631.81,-384.06 1625.57,-380.89"/>
</g>
<!-- Node61&#45;&gt;Node58 -->
<g id="edge65" class="edge">
<title>Node61&#45;&gt;Node58</title>
<path fill="none" stroke="midnightblue" d="M1652.68,-450.45C1644.75,-440.9 1635.7,-430 1628.69,-421.58"/>
<polygon fill="midnightblue" stroke="midnightblue" points="1650.2,-452.94 1659.28,-458.4 1655.58,-448.47 1650.2,-452.94"/>
</g>
<!-- Node62 -->
<g id="node46" class="node">
<title>Node62</title>
<g id="a_node46"><a xlink:href="JSUFileStream_8cpp.html" target="_top" xlink:title=" ">
<polygon fill="white" stroke="black" points="1697.5,-391.5 1697.5,-421.5 1812.5,-421.5 1812.5,-391.5 1697.5,-391.5"/>
<text text-anchor="start" x="1705.5" y="-409.5" font-family="Helvetica,sans-Serif" font-size="10.00">libs/JSystem/JSupport</text>
<text text-anchor="middle" x="1755" y="-398.5" font-family="Helvetica,sans-Serif" font-size="10.00">/JSUFileStream.cpp</text>
</a>
</g>
</g>
<!-- Node61&#45;&gt;Node62 -->
<g id="edge64" class="edge">
<title>Node61&#45;&gt;Node62</title>
<path fill="none" stroke="midnightblue" d="M1697.28,-452.17C1710.12,-442.23 1725.26,-430.51 1736.81,-421.58"/>
<polygon fill="midnightblue" stroke="midnightblue" points="1694.99,-449.51 1689.23,-458.4 1699.28,-455.04 1694.99,-449.51"/>
</g>
<!-- Node63 -->
<g id="node47" class="node">
<title>Node63</title>
<g id="a_node47"><a xlink:href="JKRDvdAramRipper_8h.html" target="_top" xlink:title=" ">
<polygon fill="white" stroke="black" points="1830.5,-391.5 1830.5,-421.5 1955.5,-421.5 1955.5,-391.5 1830.5,-391.5"/>
<text text-anchor="start" x="1838.5" y="-409.5" font-family="Helvetica,sans-Serif" font-size="10.00">include/JSystem/JKernel</text>
<text text-anchor="middle" x="1893" y="-398.5" font-family="Helvetica,sans-Serif" font-size="10.00">/JKRDvdAramRipper.h</text>
</a>
</g>
</g>
<!-- Node61&#45;&gt;Node63 -->
<g id="edge66" class="edge">
<title>Node61&#45;&gt;Node63</title>
<path fill="none" stroke="midnightblue" d="M1728.79,-455.58C1764.85,-445.02 1810.72,-431.59 1844.81,-421.61"/>
<polygon fill="midnightblue" stroke="midnightblue" points="1727.51,-452.31 1718.9,-458.48 1729.48,-459.02 1727.51,-452.31"/>
</g>
<!-- Node64 -->
<g id="node48" class="node">
<title>Node64</title>
<g id="a_node48"><a xlink:href="JKRAramArchive_8cpp.html" target="_top" xlink:title=" ">
<polygon fill="white" stroke="black" points="1850.5,-324.5 1850.5,-354.5 1963.5,-354.5 1963.5,-324.5 1850.5,-324.5"/>
<text text-anchor="start" x="1858.5" y="-342.5" font-family="Helvetica,sans-Serif" font-size="10.00">libs/JSystem/JKernel</text>
<text text-anchor="middle" x="1907" y="-331.5" font-family="Helvetica,sans-Serif" font-size="10.00">/JKRAramArchive.cpp</text>
</a>
</g>
</g>
<!-- Node63&#45;&gt;Node64 -->
<g id="edge67" class="edge">
<title>Node63&#45;&gt;Node64</title>
<path fill="none" stroke="midnightblue" d="M1898.19,-381.4C1900.14,-372.37 1902.28,-362.41 1903.97,-354.58"/>
<polygon fill="midnightblue" stroke="midnightblue" points="1894.72,-380.88 1896.04,-391.4 1901.56,-382.36 1894.72,-380.88"/>
</g>
<!-- Node66 -->
<g id="node50" class="node">
<title>Node66</title>
<g id="a_node50"><a xlink:href="JSUMemoryStream_8cpp.html" target="_top" xlink:title=" ">
<polygon fill="white" stroke="black" points="1973.5,-391.5 1973.5,-421.5 2096.5,-421.5 2096.5,-391.5 1973.5,-391.5"/>
<text text-anchor="start" x="1981.5" y="-409.5" font-family="Helvetica,sans-Serif" font-size="10.00">libs/JSystem/JSupport</text>
<text text-anchor="middle" x="2035" y="-398.5" font-family="Helvetica,sans-Serif" font-size="10.00">/JSUMemoryStream.cpp</text>
</a>
</g>
</g>
<!-- Node65&#45;&gt;Node66 -->
<g id="edge69" class="edge">
<title>Node65&#45;&gt;Node66</title>
<path fill="none" stroke="midnightblue" d="M1979.69,-451.88C1992,-442.01 2006.43,-430.43 2017.46,-421.58"/>
<polygon fill="midnightblue" stroke="midnightblue" points="1977.18,-449.41 1971.58,-458.4 1981.57,-454.87 1977.18,-449.41"/>
</g>
</g>
</svg>
