<?xml version="1.0" encoding="UTF-8" standalone="no"?>
<!DOCTYPE svg PUBLIC "-//W3C//DTD SVG 1.1//EN"
 "http://www.w3.org/Graphics/SVG/1.1/DTD/svg11.dtd">
<!-- Generated by graphviz version 2.44.0 ()
 -->
<!-- Title: libs/JSystem/JUtility/JUTConsole.cpp Pages: 1 -->
<!--zoomable 363 -->
<svg id="main" version="1.1" xmlns="http://www.w3.org/2000/svg" xmlns:xlink="http://www.w3.org/1999/xlink" xml:space="preserve" onload="init(evt)">
<style type="text/css"><![CDATA[
.edge:hover path { stroke: red; }
.edge:hover polygon { stroke: red; fill: red; }
]]></style>
<script type="text/javascript"><![CDATA[
var edges = document.getElementsByTagName('g');
if (edges && edges.length) {
  for (var i=0;i<edges.length;i++) {
    if (edges[i].id.substr(0,4)=='edge') {
      edges[i].setAttribute('class','edge');
    }
  }
}
]]></script>
        <defs>
                <circle id="rim" cx="0" cy="0" r="7"/>
                <circle id="rim2" cx="0" cy="0" r="3.5"/>
                <g id="zoomPlus">
                        <use xlink:href="#rim" fill="#404040">
                                <set attributeName="fill" to="#808080" begin="zoomplus.mouseover" end="zoomplus.mouseout"/>
                        </use>
                        <path d="M-4,0h8M0,-4v8" fill="none" stroke="white" stroke-width="1.5" pointer-events="none"/>
                </g>
                <g id="zoomMin">
                        <use xlink:href="#rim" fill="#404040">
                                <set attributeName="fill" to="#808080" begin="zoomminus.mouseover" end="zoomminus.mouseout"/>
                        </use>
                        <path d="M-4,0h8" fill="none" stroke="white" stroke-width="1.5" pointer-events="none"/>
                </g>
                <g id="dirArrow">
                        <path fill="none" stroke="white" stroke-width="1.5" d="M0,-3.0v7 M-2.5,-0.5L0,-3.0L2.5,-0.5"/>
                </g>
               <g id="resetDef">
                       <use xlink:href="#rim2" fill="#404040">
                               <set attributeName="fill" to="#808080" begin="reset.mouseover" end="reset.mouseout"/>
                       </use>
               </g>
        </defs>

<script type="text/javascript">
var viewWidth = 2814;
var viewHeight = 363;
var sectionId = 'dynsection-0';
</script>
<script xlink:href="svgpan.js"/>
<svg id="graph" class="graph">
<g id="viewport">
<title>libs/JSystem/JUtility/JUTConsole.cpp</title>
<polygon fill="white" stroke="transparent" points="-4,4 -4,-359 2809.5,-359 2809.5,4 -4,4"/>
<!-- Node1 -->
<g id="node1" class="node">
<title>Node1</title>
<g id="a_node1"><a xlink:title=" ">
<polygon fill="#bfbfbf" stroke="black" points="1337,-324.5 1337,-354.5 1443,-354.5 1443,-324.5 1337,-324.5"/>
<text text-anchor="start" x="1345" y="-342.5" font-family="Helvetica,sans-Serif" font-size="10.00">libs/JSystem/JUtility</text>
<text text-anchor="middle" x="1390" y="-331.5" font-family="Helvetica,sans-Serif" font-size="10.00">/JUTConsole.cpp</text>
</a>
</g>
</g>
<!-- Node2 -->
<g id="node2" class="node">
<title>Node2</title>
<g id="a_node2"><a xlink:href="JUTConsole_8h.html" target="_top" xlink:title=" ">
<polygon fill="white" stroke="black" points="377,-257.5 377,-276.5 529,-276.5 529,-257.5 377,-257.5"/>
<text text-anchor="middle" x="453" y="-264.5" font-family="Helvetica,sans-Serif" font-size="10.00">JSystem/JUtility/JUTConsole.h</text>
</a>
</g>
</g>
<!-- Node1&#45;&gt;Node2 -->
<g id="edge1" class="edge">
<title>Node1&#45;&gt;Node2</title>
<path fill="none" stroke="midnightblue" d="M1336.94,-334.51C1182.12,-322.86 729.92,-288.84 539.31,-274.49"/>
<polygon fill="midnightblue" stroke="midnightblue" points="539.29,-270.98 529.06,-273.72 538.77,-277.96 539.29,-270.98"/>
</g>
<!-- Node4 -->
<g id="node4" class="node">
<title>Node4</title>
<g id="a_node4"><a xlink:href="types_8h.html" target="_top" xlink:title=" ">
<polygon fill="white" stroke="black" points="437.5,-0.5 437.5,-19.5 518.5,-19.5 518.5,-0.5 437.5,-0.5"/>
<text text-anchor="middle" x="478" y="-7.5" font-family="Helvetica,sans-Serif" font-size="10.00">dolphin/types.h</text>
</a>
</g>
</g>
<!-- Node1&#45;&gt;Node4 -->
<g id="edge35" class="edge">
<title>Node1&#45;&gt;Node4</title>
<path fill="none" stroke="midnightblue" d="M1336.79,-338.92C1082.11,-340.27 0,-337.94 0,-201 0,-201 0,-201 0,-137.5 0,-93.55 18.25,-78.5 56,-56 117.52,-19.33 328.99,-12.4 427.17,-11.19"/>
<polygon fill="midnightblue" stroke="midnightblue" points="427.47,-14.69 437.44,-11.08 427.4,-7.69 427.47,-14.69"/>
</g>
<!-- Node13 -->
<g id="node13" class="node">
<title>Node13</title>
<g id="a_node13"><a xlink:href="JKRHeap_8h.html" target="_top" xlink:title=" ">
<polygon fill="white" stroke="black" points="665.5,-190.5 665.5,-209.5 808.5,-209.5 808.5,-190.5 665.5,-190.5"/>
<text text-anchor="middle" x="737" y="-197.5" font-family="Helvetica,sans-Serif" font-size="10.00">JSystem/JKernel/JKRHeap.h</text>
</a>
</g>
</g>
<!-- Node1&#45;&gt;Node13 -->
<g id="edge23" class="edge">
<title>Node1&#45;&gt;Node13</title>
<path fill="none" stroke="midnightblue" d="M1336.84,-336.17C1224.28,-330.74 965.4,-315.62 882,-288 832.42,-271.58 781.73,-235.97 755.41,-215.77"/>
<polygon fill="midnightblue" stroke="midnightblue" points="757.49,-212.96 747.46,-209.56 753.19,-218.47 757.49,-212.96"/>
</g>
<!-- Node16 -->
<g id="node16" class="node">
<title>Node16</title>
<g id="a_node16"><a xlink:href="printf_8h.html" target="_top" xlink:title=" ">
<polygon fill="white" stroke="black" points="886.5,-123.5 886.5,-153.5 1021.5,-153.5 1021.5,-123.5 886.5,-123.5"/>
<text text-anchor="start" x="894.5" y="-141.5" font-family="Helvetica,sans-Serif" font-size="10.00">MSL_C.PPCEABI.bare.H</text>
<text text-anchor="middle" x="954" y="-130.5" font-family="Helvetica,sans-Serif" font-size="10.00">/MSL_Common/Src/printf.h</text>
</a>
</g>
</g>
<!-- Node1&#45;&gt;Node16 -->
<g id="edge31" class="edge">
<title>Node1&#45;&gt;Node16</title>
<path fill="none" stroke="midnightblue" d="M1336.74,-336.76C1218.78,-332.35 943.74,-318.85 916,-288 884.12,-252.55 915.47,-193.99 937.17,-162.02"/>
<polygon fill="midnightblue" stroke="midnightblue" points="940.09,-163.95 942.97,-153.76 934.36,-159.93 940.09,-163.95"/>
</g>
<!-- Node17 -->
<g id="node17" class="node">
<title>Node17</title>
<g id="a_node17"><a xlink:href="dol2asm_8h.html" target="_top" xlink:title=" ">
<polygon fill="white" stroke="black" points="924.5,-257.5 924.5,-276.5 985.5,-276.5 985.5,-257.5 924.5,-257.5"/>
<text text-anchor="middle" x="955" y="-264.5" font-family="Helvetica,sans-Serif" font-size="10.00">dol2asm.h</text>
</a>
</g>
</g>
<!-- Node1&#45;&gt;Node17 -->
<g id="edge34" class="edge">
<title>Node1&#45;&gt;Node17</title>
<path fill="none" stroke="midnightblue" d="M1336.75,-337.33C1259.75,-334.39 1113.56,-324.08 995,-288 989.43,-286.3 983.69,-283.89 978.36,-281.31"/>
<polygon fill="midnightblue" stroke="midnightblue" points="979.82,-278.13 969.33,-276.64 976.6,-284.34 979.82,-278.13"/>
</g>
<!-- Node18 -->
<g id="node18" class="node">
<title>Node18</title>
<g id="a_node18"><a xlink:title=" ">
<polygon fill="white" stroke="#bfbfbf" points="1003.5,-246.5 1003.5,-287.5 1182.5,-287.5 1182.5,-246.5 1003.5,-246.5"/>
<text text-anchor="start" x="1011.5" y="-275.5" font-family="Helvetica,sans-Serif" font-size="10.00">asm/JSystem/JUtility</text>
<text text-anchor="start" x="1011.5" y="-264.5" font-family="Helvetica,sans-Serif" font-size="10.00">/JUTConsole/create__10JUTConsole</text>
<text text-anchor="middle" x="1093" y="-253.5" font-family="Helvetica,sans-Serif" font-size="10.00">FUiUiP7JKRHeap.s</text>
</a>
</g>
</g>
<!-- Node1&#45;&gt;Node18 -->
<g id="edge36" class="edge">
<title>Node1&#45;&gt;Node18</title>
<path fill="none" stroke="midnightblue" d="M1336.9,-325.9C1294.82,-315.91 1235.03,-301.71 1185.17,-289.88"/>
<polygon fill="midnightblue" stroke="midnightblue" points="1185.88,-286.45 1175.34,-287.55 1184.26,-293.26 1185.88,-286.45"/>
</g>
<!-- Node19 -->
<g id="node19" class="node">
<title>Node19</title>
<g id="a_node19"><a xlink:title=" ">
<polygon fill="white" stroke="#bfbfbf" points="1200.5,-246.5 1200.5,-287.5 1379.5,-287.5 1379.5,-246.5 1200.5,-246.5"/>
<text text-anchor="start" x="1208.5" y="-275.5" font-family="Helvetica,sans-Serif" font-size="10.00">asm/JSystem/JUtility</text>
<text text-anchor="start" x="1208.5" y="-264.5" font-family="Helvetica,sans-Serif" font-size="10.00">/JUTConsole/create__10JUTConsole</text>
<text text-anchor="middle" x="1290" y="-253.5" font-family="Helvetica,sans-Serif" font-size="10.00">FUiPvUl.s</text>
</a>
</g>
</g>
<!-- Node1&#45;&gt;Node19 -->
<g id="edge37" class="edge">
<title>Node1&#45;&gt;Node19</title>
<path fill="none" stroke="midnightblue" d="M1369.76,-324.23C1357.26,-315.42 1340.86,-303.86 1326.19,-293.51"/>
<polygon fill="midnightblue" stroke="midnightblue" points="1327.97,-290.49 1317.79,-287.59 1323.94,-296.21 1327.97,-290.49"/>
</g>
<!-- Node20 -->
<g id="node20" class="node">
<title>Node20</title>
<g id="a_node20"><a xlink:title=" ">
<polygon fill="white" stroke="#bfbfbf" points="1397.5,-246.5 1397.5,-287.5 1584.5,-287.5 1584.5,-246.5 1397.5,-246.5"/>
<text text-anchor="start" x="1405.5" y="-275.5" font-family="Helvetica,sans-Serif" font-size="10.00">asm/JSystem/JUtility</text>
<text text-anchor="start" x="1405.5" y="-264.5" font-family="Helvetica,sans-Serif" font-size="10.00">/JUTConsole/doDraw__10JUTConsole</text>
<text text-anchor="middle" x="1491" y="-253.5" font-family="Helvetica,sans-Serif" font-size="10.00">CFQ210JUTConsole12EConsoleType.s</text>
</a>
</g>
</g>
<!-- Node1&#45;&gt;Node20 -->
<g id="edge38" class="edge">
<title>Node1&#45;&gt;Node20</title>
<path fill="none" stroke="midnightblue" d="M1410.44,-324.23C1423.06,-315.42 1439.63,-303.86 1454.45,-293.51"/>
<polygon fill="midnightblue" stroke="midnightblue" points="1456.74,-296.18 1462.94,-287.59 1452.73,-290.44 1456.74,-296.18"/>
</g>
<!-- Node21 -->
<g id="node21" class="node">
<title>Node21</title>
<g id="a_node21"><a xlink:title=" ">
<polygon fill="white" stroke="#bfbfbf" points="1603,-246.5 1603,-287.5 1773,-287.5 1773,-246.5 1603,-246.5"/>
<text text-anchor="start" x="1611" y="-275.5" font-family="Helvetica,sans-Serif" font-size="10.00">asm/JSystem/JUtility</text>
<text text-anchor="start" x="1611" y="-264.5" font-family="Helvetica,sans-Serif" font-size="10.00">/JUTConsole/print__10JUTConsole</text>
<text text-anchor="middle" x="1688" y="-253.5" font-family="Helvetica,sans-Serif" font-size="10.00">FPCc.s</text>
</a>
</g>
</g>
<!-- Node1&#45;&gt;Node21 -->
<g id="edge39" class="edge">
<title>Node1&#45;&gt;Node21</title>
<path fill="none" stroke="midnightblue" d="M1443.28,-325.9C1485.5,-315.91 1545.5,-301.71 1595.52,-289.88"/>
<polygon fill="midnightblue" stroke="midnightblue" points="1596.46,-293.25 1605.38,-287.55 1594.85,-286.44 1596.46,-293.25"/>
</g>
<!-- Node22 -->
<g id="node22" class="node">
<title>Node22</title>
<g id="a_node22"><a xlink:title=" ">
<polygon fill="white" stroke="#bfbfbf" points="1791.5,-246.5 1791.5,-287.5 1940.5,-287.5 1940.5,-246.5 1791.5,-246.5"/>
<text text-anchor="start" x="1799.5" y="-275.5" font-family="Helvetica,sans-Serif" font-size="10.00">asm/JSystem/JUtility</text>
<text text-anchor="start" x="1799.5" y="-264.5" font-family="Helvetica,sans-Serif" font-size="10.00">/JUTConsole/dumpToTerminal</text>
<text text-anchor="middle" x="1866" y="-253.5" font-family="Helvetica,sans-Serif" font-size="10.00">__10JUTConsoleFUi.s</text>
</a>
</g>
</g>
<!-- Node1&#45;&gt;Node22 -->
<g id="edge40" class="edge">
<title>Node1&#45;&gt;Node22</title>
<path fill="none" stroke="midnightblue" d="M1443.22,-333.45C1516.95,-326.05 1654.48,-310.81 1781.52,-287.99"/>
<polygon fill="midnightblue" stroke="midnightblue" points="1782.22,-291.42 1791.43,-286.19 1780.97,-284.53 1782.22,-291.42"/>
</g>
<!-- Node23 -->
<g id="node23" class="node">
<title>Node23</title>
<g id="a_node23"><a xlink:title=" ">
<polygon fill="white" stroke="#bfbfbf" points="1958.5,-252 1958.5,-282 2149.5,-282 2149.5,-252 1958.5,-252"/>
<text text-anchor="start" x="1966.5" y="-270" font-family="Helvetica,sans-Serif" font-size="10.00">asm/JSystem/JUtility</text>
<text text-anchor="middle" x="2054" y="-259" font-family="Helvetica,sans-Serif" font-size="10.00">/JUTConsole/scroll__10JUTConsoleFi.s</text>
</a>
</g>
</g>
<!-- Node1&#45;&gt;Node23 -->
<g id="edge41" class="edge">
<title>Node1&#45;&gt;Node23</title>
<path fill="none" stroke="midnightblue" d="M1443.09,-335.49C1542.78,-329.44 1764.65,-314.11 1950,-288 1958.6,-286.79 1967.56,-285.34 1976.47,-283.79"/>
<polygon fill="midnightblue" stroke="midnightblue" points="1977.24,-287.21 1986.47,-282 1976.01,-280.32 1977.24,-287.21"/>
</g>
<!-- Node24 -->
<g id="node24" class="node">
<title>Node24</title>
<g id="a_node24"><a xlink:title=" ">
<polygon fill="white" stroke="#bfbfbf" points="2168,-246.5 2168,-287.5 2382,-287.5 2382,-246.5 2168,-246.5"/>
<text text-anchor="start" x="2176" y="-275.5" font-family="Helvetica,sans-Serif" font-size="10.00">asm/JSystem/JUtility</text>
<text text-anchor="start" x="2176" y="-264.5" font-family="Helvetica,sans-Serif" font-size="10.00">/JUTConsole/appendConsole</text>
<text text-anchor="middle" x="2275" y="-253.5" font-family="Helvetica,sans-Serif" font-size="10.00">__17JUTConsoleManagerFP10JUTConsole.s</text>
</a>
</g>
</g>
<!-- Node1&#45;&gt;Node24 -->
<g id="edge42" class="edge">
<title>Node1&#45;&gt;Node24</title>
<path fill="none" stroke="midnightblue" d="M1443.32,-336.93C1567.06,-332.87 1883.43,-320.1 2157.78,-288.08"/>
<polygon fill="midnightblue" stroke="midnightblue" points="2158.41,-291.53 2167.93,-286.88 2157.59,-284.58 2158.41,-291.53"/>
</g>
<!-- Node25 -->
<g id="node25" class="node">
<title>Node25</title>
<g id="a_node25"><a xlink:title=" ">
<polygon fill="white" stroke="#bfbfbf" points="2400,-246.5 2400,-287.5 2614,-287.5 2614,-246.5 2400,-246.5"/>
<text text-anchor="start" x="2408" y="-275.5" font-family="Helvetica,sans-Serif" font-size="10.00">asm/JSystem/JUtility</text>
<text text-anchor="start" x="2408" y="-264.5" font-family="Helvetica,sans-Serif" font-size="10.00">/JUTConsole/removeConsole</text>
<text text-anchor="middle" x="2507" y="-253.5" font-family="Helvetica,sans-Serif" font-size="10.00">__17JUTConsoleManagerFP10JUTConsole.s</text>
</a>
</g>
</g>
<!-- Node1&#45;&gt;Node25 -->
<g id="edge43" class="edge">
<title>Node1&#45;&gt;Node25</title>
<path fill="none" stroke="midnightblue" d="M1443.09,-338.07C1591.32,-336.38 2022.32,-328.21 2389.9,-288.05"/>
<polygon fill="midnightblue" stroke="midnightblue" points="2390.38,-291.52 2399.94,-286.94 2389.61,-284.56 2390.38,-291.52"/>
</g>
<!-- Node26 -->
<g id="node26" class="node">
<title>Node26</title>
<g id="a_node26"><a xlink:title=" ">
<polygon fill="white" stroke="#bfbfbf" points="2632.5,-246.5 2632.5,-287.5 2805.5,-287.5 2805.5,-246.5 2632.5,-246.5"/>
<text text-anchor="start" x="2640.5" y="-275.5" font-family="Helvetica,sans-Serif" font-size="10.00">asm/JSystem/JUtility</text>
<text text-anchor="start" x="2640.5" y="-264.5" font-family="Helvetica,sans-Serif" font-size="10.00">/JUTConsole/draw__17JUTConsole</text>
<text text-anchor="middle" x="2719" y="-253.5" font-family="Helvetica,sans-Serif" font-size="10.00">ManagerCFv.s</text>
</a>
</g>
</g>
<!-- Node1&#45;&gt;Node26 -->
<g id="edge44" class="edge">
<title>Node1&#45;&gt;Node26</title>
<path fill="none" stroke="midnightblue" d="M1443.11,-337.49C1645.5,-333.46 2369.22,-317.37 2622.01,-287.97"/>
<polygon fill="midnightblue" stroke="midnightblue" points="2622.73,-291.41 2632.24,-286.74 2621.9,-284.46 2622.73,-291.41"/>
</g>
<!-- Node3 -->
<g id="node3" class="node">
<title>Node3</title>
<g id="a_node3"><a xlink:href="linklist_8h.html" target="_top" xlink:title=" ">
<polygon fill="white" stroke="black" points="101.5,-190.5 101.5,-209.5 234.5,-209.5 234.5,-190.5 101.5,-190.5"/>
<text text-anchor="middle" x="168" y="-197.5" font-family="Helvetica,sans-Serif" font-size="10.00">JSystem/JGadget/linklist.h</text>
</a>
</g>
</g>
<!-- Node2&#45;&gt;Node3 -->
<g id="edge2" class="edge">
<title>Node2&#45;&gt;Node3</title>
<path fill="none" stroke="midnightblue" d="M415.45,-257.44C364.08,-245.72 271.88,-224.69 215.69,-211.88"/>
<polygon fill="midnightblue" stroke="midnightblue" points="216.16,-208.39 205.64,-209.58 214.61,-215.22 216.16,-208.39"/>
</g>
<!-- Node2&#45;&gt;Node4 -->
<g id="edge22" class="edge">
<title>Node2&#45;&gt;Node4</title>
<path fill="none" stroke="midnightblue" d="M376.87,-264.77C282.61,-261.53 129.84,-250.05 92,-210 44.85,-160.1 34.26,-107.2 80,-56 102.76,-30.52 325.07,-17.64 427.18,-13.03"/>
<polygon fill="midnightblue" stroke="midnightblue" points="427.43,-16.53 437.27,-12.59 427.12,-9.53 427.43,-16.53"/>
</g>
<!-- Node5 -->
<g id="node5" class="node">
<title>Node5</title>
<g id="a_node5"><a xlink:href="JKRDisposer_8h.html" target="_top" xlink:title=" ">
<polygon fill="white" stroke="black" points="530,-129 530,-148 688,-148 688,-129 530,-129"/>
<text text-anchor="middle" x="609" y="-136" font-family="Helvetica,sans-Serif" font-size="10.00">JSystem/JKernel/JKRDisposer.h</text>
</a>
</g>
</g>
<!-- Node2&#45;&gt;Node5 -->
<g id="edge4" class="edge">
<title>Node2&#45;&gt;Node5</title>
<path fill="none" stroke="midnightblue" d="M463.72,-257.31C489.88,-236.09 557.25,-181.46 590.24,-154.72"/>
<polygon fill="midnightblue" stroke="midnightblue" points="592.64,-157.27 598.2,-148.26 588.23,-151.84 592.64,-157.27"/>
</g>
<!-- Node7 -->
<g id="node7" class="node">
<title>Node7</title>
<g id="a_node7"><a xlink:href="JUTFont_8h.html" target="_top" xlink:title=" ">
<polygon fill="white" stroke="black" points="287.5,-190.5 287.5,-209.5 424.5,-209.5 424.5,-190.5 287.5,-190.5"/>
<text text-anchor="middle" x="356" y="-197.5" font-family="Helvetica,sans-Serif" font-size="10.00">JSystem/JUtility/JUTFont.h</text>
</a>
</g>
</g>
<!-- Node2&#45;&gt;Node7 -->
<g id="edge8" class="edge">
<title>Node2&#45;&gt;Node7</title>
<path fill="none" stroke="midnightblue" d="M439.92,-257.23C423.85,-246.46 396.37,-228.05 377.25,-215.24"/>
<polygon fill="midnightblue" stroke="midnightblue" points="379.13,-212.29 368.87,-209.63 375.23,-218.1 379.13,-212.29"/>
</g>
<!-- Node8 -->
<g id="node8" class="node">
<title>Node8</title>
<g id="a_node8"><a xlink:href="TColor_8h.html" target="_top" xlink:title=" ">
<polygon fill="white" stroke="black" points="384.5,-129 384.5,-148 511.5,-148 511.5,-129 384.5,-129"/>
<text text-anchor="middle" x="448" y="-136" font-family="Helvetica,sans-Serif" font-size="10.00">JSystem/JUtility/TColor.h</text>
</a>
</g>
</g>
<!-- Node2&#45;&gt;Node8 -->
<g id="edge19" class="edge">
<title>Node2&#45;&gt;Node8</title>
<path fill="none" stroke="midnightblue" d="M452.66,-257.31C451.85,-236.99 449.84,-186.05 448.74,-158.28"/>
<polygon fill="midnightblue" stroke="midnightblue" points="452.24,-158.11 448.35,-148.26 445.24,-158.39 452.24,-158.11"/>
</g>
<!-- Node12 -->
<g id="node12" class="node">
<title>Node12</title>
<g id="a_node12"><a xlink:href="____va__arg_8h.html" target="_top" xlink:title=" ">
<polygon fill="white" stroke="black" points="892,-56.5 892,-86.5 1002,-86.5 1002,-56.5 892,-56.5"/>
<text text-anchor="start" x="900" y="-74.5" font-family="Helvetica,sans-Serif" font-size="10.00">Runtime.PPCEABI.H/</text>
<text text-anchor="middle" x="947" y="-63.5" font-family="Helvetica,sans-Serif" font-size="10.00">__va_arg.h</text>
</a>
</g>
</g>
<!-- Node2&#45;&gt;Node12 -->
<g id="edge20" class="edge">
<title>Node2&#45;&gt;Node12</title>
<path fill="none" stroke="midnightblue" d="M529.21,-261.38C621.71,-254.58 771.14,-239.35 818,-210 857.8,-185.06 845.26,-156.68 878,-123 889.1,-111.59 903.01,-100.87 915.43,-92.27"/>
<polygon fill="midnightblue" stroke="midnightblue" points="917.39,-95.17 923.73,-86.68 913.48,-89.36 917.39,-95.17"/>
</g>
<!-- Node3&#45;&gt;Node4 -->
<g id="edge3" class="edge">
<title>Node3&#45;&gt;Node4</title>
<path fill="none" stroke="midnightblue" d="M157.2,-190.37C128.74,-166.65 56.47,-99.32 95,-56 116.73,-31.57 328.29,-18.22 427.33,-13.27"/>
<polygon fill="midnightblue" stroke="midnightblue" points="427.6,-16.76 437.41,-12.77 427.25,-9.77 427.6,-16.76"/>
</g>
<!-- Node5&#45;&gt;Node4 -->
<g id="edge7" class="edge">
<title>Node5&#45;&gt;Node4</title>
<path fill="none" stroke="midnightblue" d="M621.13,-129C641.47,-113.71 678.43,-80.85 659,-56 643.07,-35.62 576.52,-23.15 528.74,-16.66"/>
<polygon fill="midnightblue" stroke="midnightblue" points="528.92,-13.15 518.55,-15.32 528.01,-20.09 528.92,-13.15"/>
</g>
<!-- Node6 -->
<g id="node6" class="node">
<title>Node6</title>
<g id="a_node6"><a xlink:href="JSUList_8h.html" target="_top" xlink:title=" ">
<polygon fill="white" stroke="black" points="506.5,-62 506.5,-81 649.5,-81 649.5,-62 506.5,-62"/>
<text text-anchor="middle" x="578" y="-69" font-family="Helvetica,sans-Serif" font-size="10.00">JSystem/JSupport/JSUList.h</text>
</a>
</g>
</g>
<!-- Node5&#45;&gt;Node6 -->
<g id="edge5" class="edge">
<title>Node5&#45;&gt;Node6</title>
<path fill="none" stroke="midnightblue" d="M604.82,-128.73C600.12,-118.89 592.38,-102.66 586.42,-90.16"/>
<polygon fill="midnightblue" stroke="midnightblue" points="589.58,-88.65 582.11,-81.13 583.26,-91.66 589.58,-88.65"/>
</g>
<!-- Node6&#45;&gt;Node4 -->
<g id="edge6" class="edge">
<title>Node6&#45;&gt;Node4</title>
<path fill="none" stroke="midnightblue" d="M563.67,-61.98C547.34,-52.25 520.4,-36.23 501.09,-24.74"/>
<polygon fill="midnightblue" stroke="midnightblue" points="502.68,-21.61 492.3,-19.51 499.11,-27.63 502.68,-21.61"/>
</g>
<!-- Node7&#45;&gt;Node4 -->
<g id="edge18" class="edge">
<title>Node7&#45;&gt;Node4</title>
<path fill="none" stroke="midnightblue" d="M356.52,-190.31C357.78,-175.41 362.01,-144.5 376,-123 389.97,-101.53 403.17,-105.39 421,-87 439.04,-68.39 456.41,-43.99 467.14,-27.92"/>
<polygon fill="midnightblue" stroke="midnightblue" points="470.08,-29.81 472.64,-19.53 464.23,-25.97 470.08,-29.81"/>
</g>
<!-- Node7&#45;&gt;Node8 -->
<g id="edge9" class="edge">
<title>Node7&#45;&gt;Node8</title>
<path fill="none" stroke="midnightblue" d="M369.18,-190.48C384.07,-180.84 408.54,-165.02 426.27,-153.55"/>
<polygon fill="midnightblue" stroke="midnightblue" points="428.35,-156.38 434.84,-148.01 424.55,-150.5 428.35,-156.38"/>
</g>
<!-- Node10 -->
<g id="node10" class="node">
<title>Node10</title>
<g id="a_node10"><a xlink:href="GX_8h.html" target="_top" xlink:title=" ">
<polygon fill="white" stroke="black" points="232.5,-129 232.5,-148 317.5,-148 317.5,-129 232.5,-129"/>
<text text-anchor="middle" x="275" y="-136" font-family="Helvetica,sans-Serif" font-size="10.00">dolphin/gx/GX.h</text>
</a>
</g>
</g>
<!-- Node7&#45;&gt;Node10 -->
<g id="edge13" class="edge">
<title>Node7&#45;&gt;Node10</title>
<path fill="none" stroke="midnightblue" d="M344.39,-190.48C331.52,-181.02 310.53,-165.6 294.99,-154.19"/>
<polygon fill="midnightblue" stroke="midnightblue" points="296.72,-151.11 286.58,-148.01 292.57,-156.75 296.72,-151.11"/>
</g>
<!-- Node8&#45;&gt;Node4 -->
<g id="edge12" class="edge">
<title>Node8&#45;&gt;Node4</title>
<path fill="none" stroke="midnightblue" d="M450.06,-128.81C454.88,-108.49 466.96,-57.55 473.55,-29.78"/>
<polygon fill="midnightblue" stroke="midnightblue" points="477.02,-30.29 475.92,-19.76 470.21,-28.68 477.02,-30.29"/>
</g>
<!-- Node9 -->
<g id="node9" class="node">
<title>Node9</title>
<g id="a_node9"><a xlink:href="GXTexture_8h.html" target="_top" xlink:title=" ">
<polygon fill="white" stroke="black" points="294.5,-62 294.5,-81 411.5,-81 411.5,-62 294.5,-62"/>
<text text-anchor="middle" x="353" y="-69" font-family="Helvetica,sans-Serif" font-size="10.00">dolphin/gx/GXTexture.h</text>
</a>
</g>
</g>
<!-- Node8&#45;&gt;Node9 -->
<g id="edge10" class="edge">
<title>Node8&#45;&gt;Node9</title>
<path fill="none" stroke="midnightblue" d="M435.19,-128.73C419.52,-118.01 392.78,-99.72 374.07,-86.91"/>
<polygon fill="midnightblue" stroke="midnightblue" points="375.84,-83.89 365.61,-81.13 371.89,-89.66 375.84,-83.89"/>
</g>
<!-- Node9&#45;&gt;Node4 -->
<g id="edge11" class="edge">
<title>Node9&#45;&gt;Node4</title>
<path fill="none" stroke="midnightblue" d="M370.91,-61.98C391.89,-51.99 426.85,-35.35 451.09,-23.81"/>
<polygon fill="midnightblue" stroke="midnightblue" points="452.6,-26.97 460.12,-19.51 449.59,-20.65 452.6,-26.97"/>
</g>
<!-- Node10&#45;&gt;Node4 -->
<g id="edge17" class="edge">
<title>Node10&#45;&gt;Node4</title>
<path fill="none" stroke="midnightblue" d="M273.26,-128.57C270.6,-111.99 267.57,-76.29 286,-56 304.68,-35.43 376.86,-22.86 427.19,-16.4"/>
<polygon fill="midnightblue" stroke="midnightblue" points="427.76,-19.86 437.25,-15.16 426.9,-12.91 427.76,-19.86"/>
</g>
<!-- Node10&#45;&gt;Node9 -->
<g id="edge16" class="edge">
<title>Node10&#45;&gt;Node9</title>
<path fill="none" stroke="midnightblue" d="M285.52,-128.73C298.15,-118.21 319.54,-100.38 334.86,-87.62"/>
<polygon fill="midnightblue" stroke="midnightblue" points="337.21,-90.22 342.65,-81.13 332.72,-84.84 337.21,-90.22"/>
</g>
<!-- Node11 -->
<g id="node11" class="node">
<title>Node11</title>
<g id="a_node11"><a xlink:href="GXDisplayList_8h.html" target="_top" xlink:title=" ">
<polygon fill="white" stroke="black" points="104.5,-62 104.5,-81 237.5,-81 237.5,-62 104.5,-62"/>
<text text-anchor="middle" x="171" y="-69" font-family="Helvetica,sans-Serif" font-size="10.00">dolphin/gx/GXDisplayList.h</text>
</a>
</g>
</g>
<!-- Node10&#45;&gt;Node11 -->
<g id="edge14" class="edge">
<title>Node10&#45;&gt;Node11</title>
<path fill="none" stroke="midnightblue" d="M260.97,-128.73C243.67,-117.92 214.01,-99.38 193.51,-86.57"/>
<polygon fill="midnightblue" stroke="midnightblue" points="195.14,-83.46 184.8,-81.13 191.43,-89.4 195.14,-83.46"/>
</g>
<!-- Node11&#45;&gt;Node4 -->
<g id="edge15" class="edge">
<title>Node11&#45;&gt;Node4</title>
<path fill="none" stroke="midnightblue" d="M214.99,-61.98C271.1,-51.1 367.94,-32.33 427.16,-20.85"/>
<polygon fill="midnightblue" stroke="midnightblue" points="427.89,-24.28 437.04,-18.94 426.56,-17.41 427.89,-24.28"/>
</g>
<!-- Node12&#45;&gt;Node4 -->
<g id="edge21" class="edge">
<title>Node12&#45;&gt;Node4</title>
<path fill="none" stroke="midnightblue" d="M891.92,-57.61C888.91,-57.03 885.92,-56.49 883,-56 756.57,-34.72 606.18,-21.02 529.11,-14.83"/>
<polygon fill="midnightblue" stroke="midnightblue" points="528.98,-11.31 518.74,-14.01 528.43,-18.29 528.98,-11.31"/>
</g>
<!-- Node13&#45;&gt;Node4 -->
<g id="edge30" class="edge">
<title>Node13&#45;&gt;Node4</title>
<path fill="none" stroke="midnightblue" d="M735.95,-190.32C732.43,-165.27 718.71,-92.31 675,-56 653.1,-37.81 579.77,-24.59 529.04,-17.36"/>
<polygon fill="midnightblue" stroke="midnightblue" points="529.28,-13.86 518.9,-15.95 528.32,-20.79 529.28,-13.86"/>
</g>
<!-- Node13&#45;&gt;Node5 -->
<g id="edge24" class="edge">
<title>Node13&#45;&gt;Node5</title>
<path fill="none" stroke="midnightblue" d="M718.66,-190.48C697.18,-180.49 661.38,-163.85 636.55,-152.31"/>
<polygon fill="midnightblue" stroke="midnightblue" points="637.85,-149.05 627.31,-148.01 634.9,-155.4 637.85,-149.05"/>
</g>
<!-- Node14 -->
<g id="node14" class="node">
<title>Node14</title>
<g id="a_node14"><a xlink:href="OS_8h.html" target="_top" xlink:title=" ">
<polygon fill="white" stroke="black" points="744,-129 744,-148 830,-148 830,-129 744,-129"/>
<text text-anchor="middle" x="787" y="-136" font-family="Helvetica,sans-Serif" font-size="10.00">dolphin/os/OS.h</text>
</a>
</g>
</g>
<!-- Node13&#45;&gt;Node14 -->
<g id="edge25" class="edge">
<title>Node13&#45;&gt;Node14</title>
<path fill="none" stroke="midnightblue" d="M744.16,-190.48C751.74,-181.46 763.87,-167.02 773.29,-155.81"/>
<polygon fill="midnightblue" stroke="midnightblue" points="776.1,-157.92 779.85,-148.01 770.74,-153.41 776.1,-157.92"/>
</g>
<!-- Node14&#45;&gt;Node4 -->
<g id="edge27" class="edge">
<title>Node14&#45;&gt;Node4</title>
<path fill="none" stroke="midnightblue" d="M783.67,-128.91C776.59,-111.93 758.37,-74.13 730,-56 697.41,-35.17 592.64,-21.86 528.91,-15.48"/>
<polygon fill="midnightblue" stroke="midnightblue" points="528.96,-11.97 518.67,-14.48 528.28,-18.93 528.96,-11.97"/>
</g>
<!-- Node14&#45;&gt;Node12 -->
<g id="edge26" class="edge">
<title>Node14&#45;&gt;Node12</title>
<path fill="none" stroke="midnightblue" d="M808.25,-128.87C832.26,-119.12 872,-102.97 902.81,-90.45"/>
<polygon fill="midnightblue" stroke="midnightblue" points="904.52,-93.53 912.47,-86.53 901.89,-87.05 904.52,-93.53"/>
</g>
<!-- Node15 -->
<g id="node15" class="node">
<title>Node15</title>
<g id="a_node15"><a xlink:href="dvd_8h.html" target="_top" xlink:title=" ">
<polygon fill="white" stroke="black" points="782,-62 782,-81 874,-81 874,-62 782,-62"/>
<text text-anchor="middle" x="828" y="-69" font-family="Helvetica,sans-Serif" font-size="10.00">dolphin/dvd/dvd.h</text>
</a>
</g>
</g>
<!-- Node14&#45;&gt;Node15 -->
<g id="edge28" class="edge">
<title>Node14&#45;&gt;Node15</title>
<path fill="none" stroke="midnightblue" d="M792.53,-128.73C798.8,-118.79 809.18,-102.34 817.09,-89.79"/>
<polygon fill="midnightblue" stroke="midnightblue" points="820.18,-91.45 822.56,-81.13 814.26,-87.72 820.18,-91.45"/>
</g>
<!-- Node15&#45;&gt;Node4 -->
<g id="edge29" class="edge">
<title>Node15&#45;&gt;Node4</title>
<path fill="none" stroke="midnightblue" d="M794.79,-61.95C786.1,-59.86 776.73,-57.73 768,-56 684.55,-39.47 586.59,-25.36 528.54,-17.54"/>
<polygon fill="midnightblue" stroke="midnightblue" points="528.91,-14.06 518.53,-16.21 527.98,-21 528.91,-14.06"/>
</g>
<!-- Node16&#45;&gt;Node4 -->
<g id="edge33" class="edge">
<title>Node16&#45;&gt;Node4</title>
<path fill="none" stroke="midnightblue" d="M975.7,-123.4C999.21,-106.46 1030.86,-77.61 1011,-56 978.76,-20.92 655.66,-13.16 528.77,-11.47"/>
<polygon fill="midnightblue" stroke="midnightblue" points="528.59,-7.97 518.54,-11.34 528.5,-14.97 528.59,-7.97"/>
</g>
<!-- Node16&#45;&gt;Node12 -->
<g id="edge32" class="edge">
<title>Node16&#45;&gt;Node12</title>
<path fill="none" stroke="midnightblue" d="M952.48,-123.4C951.64,-115.56 950.56,-105.6 949.59,-96.57"/>
<polygon fill="midnightblue" stroke="midnightblue" points="953.07,-96.14 948.52,-86.58 946.11,-96.89 953.07,-96.14"/>
</g>
</g>
</svg>
        <g id="navigator" transform="translate(0 0)" fill="#404254">
                <rect fill="#f2f5e9" fill-opacity="0.5" stroke="#606060" stroke-width=".5" x="0" y="0" width="60" height="60"/>
                <use id="zoomplus" xlink:href="#zoomPlus" x="17" y="9" onmousedown="handleZoom(evt,'in')"/>
                <use id="zoomminus" xlink:href="#zoomMin" x="42" y="9" onmousedown="handleZoom(evt,'out')"/>
                <use id="reset" xlink:href="#resetDef" x="30" y="36" onmousedown="handleReset()"/>
                <g id="arrowUp" xlink:href="#dirArrow" transform="translate(30 24)" onmousedown="handlePan(0,-1)">
                  <use xlink:href="#rim" fill="#404040">
                        <set attributeName="fill" to="#808080" begin="arrowUp.mouseover" end="arrowUp.mouseout"/>
                  </use>
                  <path fill="none" stroke="white" stroke-width="1.5" d="M0,-3.0v7 M-2.5,-0.5L0,-3.0L2.5,-0.5"/>
                </g>
                <g id="arrowRight" xlink:href="#dirArrow" transform="rotate(90) translate(36 -43)" onmousedown="handlePan(1,0)">
                  <use xlink:href="#rim" fill="#404040">
                        <set attributeName="fill" to="#808080" begin="arrowRight.mouseover" end="arrowRight.mouseout"/>
                  </use>
                  <path fill="none" stroke="white" stroke-width="1.5" d="M0,-3.0v7 M-2.5,-0.5L0,-3.0L2.5,-0.5"/>
                </g>
                <g id="arrowDown" xlink:href="#dirArrow" transform="rotate(180) translate(-30 -48)" onmousedown="handlePan(0,1)">
                  <use xlink:href="#rim" fill="#404040">
                        <set attributeName="fill" to="#808080" begin="arrowDown.mouseover" end="arrowDown.mouseout"/>
                  </use>
                  <path fill="none" stroke="white" stroke-width="1.5" d="M0,-3.0v7 M-2.5,-0.5L0,-3.0L2.5,-0.5"/>
                </g>
                <g id="arrowLeft" xlink:href="#dirArrow" transform="rotate(270) translate(-36 17)" onmousedown="handlePan(-1,0)">
                  <use xlink:href="#rim" fill="#404040">
                        <set attributeName="fill" to="#808080" begin="arrowLeft.mouseover" end="arrowLeft.mouseout"/>
                  </use>
                  <path fill="none" stroke="white" stroke-width="1.5" d="M0,-3.0v7 M-2.5,-0.5L0,-3.0L2.5,-0.5"/>
                </g>
        </g>
        <svg viewBox="0 0 15 15" width="100%" height="30px" preserveAspectRatio="xMaxYMin meet">
         <g id="arrow_out" transform="scale(0.3 0.3)">
          <a xlink:href="JUTConsole_8cpp__incl_org.svg" target="_base">
           <rect id="button" ry="5" rx="5" y="6" x="6" height="38" width="38"
                fill="#f2f5e9" fill-opacity="0.5" stroke="#606060" stroke-width="1.0"/>
           <path id="arrow"
             d="M 11.500037,31.436501 C 11.940474,20.09759 22.043105,11.32322 32.158766,21.979434 L 37.068811,17.246167 C 37.068811,17.246167 37.088388,32 37.088388,32 L 22.160133,31.978069 C 22.160133,31.978069 26.997745,27.140456 26.997745,27.140456 C 18.528582,18.264221 13.291696,25.230495 11.500037,31.436501 z"
             style="fill:#404040;"/>
          </a>
         </g>
        </svg>
</svg>
