<?xml version="1.0" encoding="UTF-8" standalone="no"?>
<!DOCTYPE svg PUBLIC "-//W3C//DTD SVG 1.1//EN"
 "http://www.w3.org/Graphics/SVG/1.1/DTD/svg11.dtd">
<!-- Generated by graphviz version 2.44.0 ()
 -->
<!-- Title: libs/JSystem/JUtility/JUTDirectPrint.cpp Pages: 1 -->
<!--zoomable 296 -->
<svg id="main" version="1.1" xmlns="http://www.w3.org/2000/svg" xmlns:xlink="http://www.w3.org/1999/xlink" xml:space="preserve" onload="init(evt)">
<style type="text/css"><![CDATA[
.edge:hover path { stroke: red; }
.edge:hover polygon { stroke: red; fill: red; }
]]></style>
<script type="text/javascript"><![CDATA[
var edges = document.getElementsByTagName('g');
if (edges && edges.length) {
  for (var i=0;i<edges.length;i++) {
    if (edges[i].id.substr(0,4)=='edge') {
      edges[i].setAttribute('class','edge');
    }
  }
}
]]></script>
        <defs>
                <circle id="rim" cx="0" cy="0" r="7"/>
                <circle id="rim2" cx="0" cy="0" r="3.5"/>
                <g id="zoomPlus">
                        <use xlink:href="#rim" fill="#404040">
                                <set attributeName="fill" to="#808080" begin="zoomplus.mouseover" end="zoomplus.mouseout"/>
                        </use>
                        <path d="M-4,0h8M0,-4v8" fill="none" stroke="white" stroke-width="1.5" pointer-events="none"/>
                </g>
                <g id="zoomMin">
                        <use xlink:href="#rim" fill="#404040">
                                <set attributeName="fill" to="#808080" begin="zoomminus.mouseover" end="zoomminus.mouseout"/>
                        </use>
                        <path d="M-4,0h8" fill="none" stroke="white" stroke-width="1.5" pointer-events="none"/>
                </g>
                <g id="dirArrow">
                        <path fill="none" stroke="white" stroke-width="1.5" d="M0,-3.0v7 M-2.5,-0.5L0,-3.0L2.5,-0.5"/>
                </g>
               <g id="resetDef">
                       <use xlink:href="#rim2" fill="#404040">
                               <set attributeName="fill" to="#808080" begin="reset.mouseover" end="reset.mouseout"/>
                       </use>
               </g>
        </defs>

<script type="text/javascript">
var viewWidth = 761;
var viewHeight = 296;
var sectionId = 'dynsection-0';
</script>
<script xlink:href="svgpan.js"/>
<svg id="graph" class="graph">
<g id="viewport">
<title>libs/JSystem/JUtility/JUTDirectPrint.cpp</title>
<polygon fill="white" stroke="transparent" points="-4,4 -4,-292 756.66,-292 756.66,4 -4,4"/>
<!-- Node1 -->
<g id="node1" class="node">
<title>Node1</title>
<g id="a_node1"><a xlink:title=" ">
<polygon fill="#bfbfbf" stroke="black" points="335.66,-257.5 335.66,-287.5 441.66,-287.5 441.66,-257.5 335.66,-257.5"/>
<text text-anchor="start" x="343.66" y="-275.5" font-family="Helvetica,sans-Serif" font-size="10.00">libs/JSystem/JUtility</text>
<text text-anchor="middle" x="388.66" y="-264.5" font-family="Helvetica,sans-Serif" font-size="10.00">/JUTDirectPrint.cpp</text>
</a>
</g>
</g>
<!-- Node2 -->
<g id="node2" class="node">
<title>Node2</title>
<g id="a_node2"><a xlink:href="JUTDirectPrint_8h.html" target="_top" xlink:title=" ">
<polygon fill="white" stroke="black" points="114.16,-185 114.16,-215 249.16,-215 249.16,-185 114.16,-185"/>
<text text-anchor="start" x="122.16" y="-203" font-family="Helvetica,sans-Serif" font-size="10.00">JSystem/JUtility/JUTDirect</text>
<text text-anchor="middle" x="181.66" y="-192" font-family="Helvetica,sans-Serif" font-size="10.00">Print.h</text>
</a>
</g>
</g>
<!-- Node1&#45;&gt;Node2 -->
<g id="edge1" class="edge">
<title>Node1&#45;&gt;Node2</title>
<path fill="none" stroke="midnightblue" d="M347.27,-257.4C314.27,-246.16 267.9,-230.37 232.62,-218.36"/>
<polygon fill="midnightblue" stroke="midnightblue" points="233.58,-214.98 222.98,-215.07 231.32,-221.61 233.58,-214.98"/>
</g>
<!-- Node5 -->
<g id="node5" class="node">
<title>Node5</title>
<g id="a_node5"><a xlink:href="types_8h.html" target="_top" xlink:title=" ">
<polygon fill="white" stroke="black" points="191.16,-0.5 191.16,-19.5 272.16,-19.5 272.16,-0.5 191.16,-0.5"/>
<text text-anchor="middle" x="231.66" y="-7.5" font-family="Helvetica,sans-Serif" font-size="10.00">dolphin/types.h</text>
</a>
</g>
</g>
<!-- Node1&#45;&gt;Node5 -->
<g id="edge13" class="edge">
<title>Node1&#45;&gt;Node5</title>
<path fill="none" stroke="midnightblue" d="M335.56,-270.5C276.47,-267.51 179.48,-256.94 104.66,-221 57.25,-198.23 37.38,-190.9 15.66,-143 -0.3,-107.78 -8.73,-86 15.66,-56 36.08,-30.89 123.66,-19.32 180.83,-14.36"/>
<polygon fill="midnightblue" stroke="midnightblue" points="181.46,-17.82 191.13,-13.51 180.88,-10.84 181.46,-17.82"/>
</g>
<!-- Node6 -->
<g id="node6" class="node">
<title>Node6</title>
<g id="a_node6"><a xlink:href="____va__arg_8h.html" target="_top" xlink:title=" ">
<polygon fill="white" stroke="black" points="208.66,-112.5 208.66,-142.5 318.66,-142.5 318.66,-112.5 208.66,-112.5"/>
<text text-anchor="start" x="216.66" y="-130.5" font-family="Helvetica,sans-Serif" font-size="10.00">Runtime.PPCEABI.H/</text>
<text text-anchor="middle" x="263.66" y="-119.5" font-family="Helvetica,sans-Serif" font-size="10.00">__va_arg.h</text>
</a>
</g>
</g>
<!-- Node1&#45;&gt;Node6 -->
<g id="edge9" class="edge">
<title>Node1&#45;&gt;Node6</title>
<path fill="none" stroke="midnightblue" d="M350.87,-257.48C332.99,-249.21 312.57,-237.16 298.66,-221 281.76,-201.36 272.63,-172.74 267.97,-152.55"/>
<polygon fill="midnightblue" stroke="midnightblue" points="271.36,-151.64 265.88,-142.58 264.51,-153.08 271.36,-151.64"/>
</g>
<!-- Node7 -->
<g id="node7" class="node">
<title>Node7</title>
<g id="a_node7"><a xlink:href="dol2asm_8h.html" target="_top" xlink:title=" ">
<polygon fill="white" stroke="black" points="545.16,-190.5 545.16,-209.5 606.16,-209.5 606.16,-190.5 545.16,-190.5"/>
<text text-anchor="middle" x="575.66" y="-197.5" font-family="Helvetica,sans-Serif" font-size="10.00">dol2asm.h</text>
</a>
</g>
</g>
<!-- Node1&#45;&gt;Node7 -->
<g id="edge10" class="edge">
<title>Node1&#45;&gt;Node7</title>
<path fill="none" stroke="midnightblue" d="M430.92,-257.42C459.32,-247.72 497.49,-234.25 530.66,-221 536.26,-218.77 542.18,-216.25 547.83,-213.77"/>
<polygon fill="midnightblue" stroke="midnightblue" points="549.26,-216.96 556.97,-209.69 546.41,-210.57 549.26,-216.96"/>
</g>
<!-- Node8 -->
<g id="node8" class="node">
<title>Node8</title>
<g id="a_node8"><a xlink:href="OSCache_8h.html" target="_top" xlink:title=" ">
<polygon fill="white" stroke="black" points="375.16,-118 375.16,-137 488.16,-137 488.16,-118 375.16,-118"/>
<text text-anchor="middle" x="431.66" y="-125" font-family="Helvetica,sans-Serif" font-size="10.00">dolphin/os/OSCache.h</text>
</a>
</g>
</g>
<!-- Node1&#45;&gt;Node8 -->
<g id="edge11" class="edge">
<title>Node1&#45;&gt;Node8</title>
<path fill="none" stroke="midnightblue" d="M392.94,-257.27C400.78,-231.21 417.42,-175.86 426.11,-146.95"/>
<polygon fill="midnightblue" stroke="midnightblue" points="429.49,-147.87 429.02,-137.28 422.79,-145.85 429.49,-147.87"/>
</g>
<!-- Node9 -->
<g id="node9" class="node">
<title>Node9</title>
<g id="a_node9"><a xlink:href="global_8h.html" target="_top" xlink:title=" ">
<polygon fill="white" stroke="black" points="463.66,-56.5 463.66,-75.5 513.66,-75.5 513.66,-56.5 463.66,-56.5"/>
<text text-anchor="middle" x="488.66" y="-63.5" font-family="Helvetica,sans-Serif" font-size="10.00">global.h</text>
</a>
</g>
</g>
<!-- Node1&#45;&gt;Node9 -->
<g id="edge14" class="edge">
<title>Node1&#45;&gt;Node9</title>
<path fill="none" stroke="midnightblue" d="M406.82,-257.28C432.6,-235.79 478.7,-192.28 496.66,-143 503.53,-124.16 499.5,-101.08 495.05,-85.33"/>
<polygon fill="midnightblue" stroke="midnightblue" points="498.37,-84.22 492.02,-75.74 491.69,-86.33 498.37,-84.22"/>
</g>
<!-- Node10 -->
<g id="node10" class="node">
<title>Node10</title>
<g id="a_node10"><a xlink:href="msl__c_2string_8h.html" target="_top" xlink:title=" ">
<polygon fill="white" stroke="black" points="308.16,-190.5 308.16,-209.5 385.16,-209.5 385.16,-190.5 308.16,-190.5"/>
<text text-anchor="middle" x="346.66" y="-197.5" font-family="Helvetica,sans-Serif" font-size="10.00">msl_c/string.h</text>
</a>
</g>
</g>
<!-- Node1&#45;&gt;Node10 -->
<g id="edge16" class="edge">
<title>Node1&#45;&gt;Node10</title>
<path fill="none" stroke="midnightblue" d="M380.16,-257.23C373.5,-246.06 364.21,-230.46 357.1,-218.52"/>
<polygon fill="midnightblue" stroke="midnightblue" points="360.08,-216.69 351.96,-209.89 354.07,-220.28 360.08,-216.69"/>
</g>
<!-- Node11 -->
<g id="node11" class="node">
<title>Node11</title>
<g id="a_node11"><a xlink:title=" ">
<polygon fill="white" stroke="#bfbfbf" points="624.66,-179.5 624.66,-220.5 752.66,-220.5 752.66,-179.5 624.66,-179.5"/>
<text text-anchor="start" x="632.66" y="-208.5" font-family="Helvetica,sans-Serif" font-size="10.00">asm/JSystem/JUtility</text>
<text text-anchor="start" x="632.66" y="-197.5" font-family="Helvetica,sans-Serif" font-size="10.00">/JUTDirectPrint/drawChar</text>
<text text-anchor="middle" x="688.66" y="-186.5" font-family="Helvetica,sans-Serif" font-size="10.00">__14JUTDirectPrintFiii.s</text>
</a>
</g>
</g>
<!-- Node1&#45;&gt;Node11 -->
<g id="edge19" class="edge">
<title>Node1&#45;&gt;Node11</title>
<path fill="none" stroke="midnightblue" d="M442.04,-260.39C485.89,-251.09 549.87,-237.12 614.64,-221.2"/>
<polygon fill="midnightblue" stroke="midnightblue" points="615.75,-224.53 624.61,-218.74 614.07,-217.74 615.75,-224.53"/>
</g>
<!-- Node3 -->
<g id="node3" class="node">
<title>Node3</title>
<g id="a_node3"><a xlink:href="TColor_8h.html" target="_top" xlink:title=" ">
<polygon fill="white" stroke="black" points="25.16,-118 25.16,-137 152.16,-137 152.16,-118 25.16,-118"/>
<text text-anchor="middle" x="88.66" y="-125" font-family="Helvetica,sans-Serif" font-size="10.00">JSystem/JUtility/TColor.h</text>
</a>
</g>
</g>
<!-- Node2&#45;&gt;Node3 -->
<g id="edge2" class="edge">
<title>Node2&#45;&gt;Node3</title>
<path fill="none" stroke="midnightblue" d="M162.84,-184.73C146.99,-172.72 124.39,-155.58 108.3,-143.39"/>
<polygon fill="midnightblue" stroke="midnightblue" points="110.21,-140.44 100.13,-137.19 105.98,-146.02 110.21,-140.44"/>
</g>
<!-- Node2&#45;&gt;Node5 -->
<g id="edge8" class="edge">
<title>Node2&#45;&gt;Node5</title>
<path fill="none" stroke="midnightblue" d="M184.15,-184.73C187.27,-167.41 193.04,-137.37 199.66,-112 207.31,-82.72 218.34,-49.36 225.25,-29.25"/>
<polygon fill="midnightblue" stroke="midnightblue" points="228.65,-30.15 228.62,-19.56 222.03,-27.86 228.65,-30.15"/>
</g>
<!-- Node2&#45;&gt;Node6 -->
<g id="edge6" class="edge">
<title>Node2&#45;&gt;Node6</title>
<path fill="none" stroke="midnightblue" d="M198.26,-184.73C210.11,-174.54 226.26,-160.66 239.54,-149.24"/>
<polygon fill="midnightblue" stroke="midnightblue" points="242.07,-151.68 247.37,-142.5 237.51,-146.37 242.07,-151.68"/>
</g>
<!-- Node4 -->
<g id="node4" class="node">
<title>Node4</title>
<g id="a_node4"><a xlink:href="GXTexture_8h.html" target="_top" xlink:title=" ">
<polygon fill="white" stroke="black" points="25.16,-56.5 25.16,-75.5 142.16,-75.5 142.16,-56.5 25.16,-56.5"/>
<text text-anchor="middle" x="83.66" y="-63.5" font-family="Helvetica,sans-Serif" font-size="10.00">dolphin/gx/GXTexture.h</text>
</a>
</g>
</g>
<!-- Node3&#45;&gt;Node4 -->
<g id="edge3" class="edge">
<title>Node3&#45;&gt;Node4</title>
<path fill="none" stroke="midnightblue" d="M87.94,-117.98C87.24,-109.58 86.14,-96.48 85.23,-85.66"/>
<polygon fill="midnightblue" stroke="midnightblue" points="88.7,-85.18 84.38,-75.51 81.73,-85.77 88.7,-85.18"/>
</g>
<!-- Node3&#45;&gt;Node5 -->
<g id="edge5" class="edge">
<title>Node3&#45;&gt;Node5</title>
<path fill="none" stroke="midnightblue" d="M99.41,-117.82C123.53,-98.34 182.23,-50.92 212.66,-26.34"/>
<polygon fill="midnightblue" stroke="midnightblue" points="215.21,-28.79 220.79,-19.78 210.81,-23.34 215.21,-28.79"/>
</g>
<!-- Node4&#45;&gt;Node5 -->
<g id="edge4" class="edge">
<title>Node4&#45;&gt;Node5</title>
<path fill="none" stroke="midnightblue" d="M107.11,-56.44C131.79,-47.44 170.85,-33.19 198.64,-23.05"/>
<polygon fill="midnightblue" stroke="midnightblue" points="200.13,-26.23 208.32,-19.52 197.73,-19.66 200.13,-26.23"/>
</g>
<!-- Node6&#45;&gt;Node5 -->
<g id="edge7" class="edge">
<title>Node6&#45;&gt;Node5</title>
<path fill="none" stroke="midnightblue" d="M259.74,-112.34C253.97,-91.53 243.2,-52.66 236.81,-29.58"/>
<polygon fill="midnightblue" stroke="midnightblue" points="240.11,-28.37 234.06,-19.67 233.36,-30.24 240.11,-28.37"/>
</g>
<!-- Node8&#45;&gt;Node5 -->
<g id="edge12" class="edge">
<title>Node8&#45;&gt;Node5</title>
<path fill="none" stroke="midnightblue" d="M425.16,-117.88C413.66,-103.22 388.35,-73.31 360.66,-56 335.8,-40.46 304.88,-29.44 279.54,-22.19"/>
<polygon fill="midnightblue" stroke="midnightblue" points="280.34,-18.78 269.77,-19.5 278.49,-25.53 280.34,-18.78"/>
</g>
<!-- Node9&#45;&gt;Node5 -->
<g id="edge15" class="edge">
<title>Node9&#45;&gt;Node5</title>
<path fill="none" stroke="midnightblue" d="M463.55,-59.72C421.7,-50.93 336.88,-33.11 282.25,-21.63"/>
<polygon fill="midnightblue" stroke="midnightblue" points="282.93,-18.2 272.42,-19.56 281.49,-25.05 282.93,-18.2"/>
</g>
<!-- Node10&#45;&gt;Node5 -->
<g id="edge18" class="edge">
<title>Node10&#45;&gt;Node5</title>
<path fill="none" stroke="midnightblue" d="M346.3,-190.32C345.3,-174.05 341.57,-138.23 327.66,-112 308.65,-76.15 273.34,-43.92 251.25,-25.96"/>
<polygon fill="midnightblue" stroke="midnightblue" points="253.23,-23.06 243.22,-19.58 248.88,-28.54 253.23,-23.06"/>
</g>
<!-- Node10&#45;&gt;Node6 -->
<g id="edge17" class="edge">
<title>Node10&#45;&gt;Node6</title>
<path fill="none" stroke="midnightblue" d="M336.48,-190.36C324.54,-180.21 304.32,-163.04 288.22,-149.36"/>
<polygon fill="midnightblue" stroke="midnightblue" points="290.12,-146.38 280.23,-142.58 285.59,-151.72 290.12,-146.38"/>
</g>
</g>
</svg>
        <g id="navigator" transform="translate(0 0)" fill="#404254">
                <rect fill="#f2f5e9" fill-opacity="0.5" stroke="#606060" stroke-width=".5" x="0" y="0" width="60" height="60"/>
                <use id="zoomplus" xlink:href="#zoomPlus" x="17" y="9" onmousedown="handleZoom(evt,'in')"/>
                <use id="zoomminus" xlink:href="#zoomMin" x="42" y="9" onmousedown="handleZoom(evt,'out')"/>
                <use id="reset" xlink:href="#resetDef" x="30" y="36" onmousedown="handleReset()"/>
                <g id="arrowUp" xlink:href="#dirArrow" transform="translate(30 24)" onmousedown="handlePan(0,-1)">
                  <use xlink:href="#rim" fill="#404040">
                        <set attributeName="fill" to="#808080" begin="arrowUp.mouseover" end="arrowUp.mouseout"/>
                  </use>
                  <path fill="none" stroke="white" stroke-width="1.5" d="M0,-3.0v7 M-2.5,-0.5L0,-3.0L2.5,-0.5"/>
                </g>
                <g id="arrowRight" xlink:href="#dirArrow" transform="rotate(90) translate(36 -43)" onmousedown="handlePan(1,0)">
                  <use xlink:href="#rim" fill="#404040">
                        <set attributeName="fill" to="#808080" begin="arrowRight.mouseover" end="arrowRight.mouseout"/>
                  </use>
                  <path fill="none" stroke="white" stroke-width="1.5" d="M0,-3.0v7 M-2.5,-0.5L0,-3.0L2.5,-0.5"/>
                </g>
                <g id="arrowDown" xlink:href="#dirArrow" transform="rotate(180) translate(-30 -48)" onmousedown="handlePan(0,1)">
                  <use xlink:href="#rim" fill="#404040">
                        <set attributeName="fill" to="#808080" begin="arrowDown.mouseover" end="arrowDown.mouseout"/>
                  </use>
                  <path fill="none" stroke="white" stroke-width="1.5" d="M0,-3.0v7 M-2.5,-0.5L0,-3.0L2.5,-0.5"/>
                </g>
                <g id="arrowLeft" xlink:href="#dirArrow" transform="rotate(270) translate(-36 17)" onmousedown="handlePan(-1,0)">
                  <use xlink:href="#rim" fill="#404040">
                        <set attributeName="fill" to="#808080" begin="arrowLeft.mouseover" end="arrowLeft.mouseout"/>
                  </use>
                  <path fill="none" stroke="white" stroke-width="1.5" d="M0,-3.0v7 M-2.5,-0.5L0,-3.0L2.5,-0.5"/>
                </g>
        </g>
        <svg viewBox="0 0 15 15" width="100%" height="30px" preserveAspectRatio="xMaxYMin meet">
         <g id="arrow_out" transform="scale(0.3 0.3)">
          <a xlink:href="JUTDirectPrint_8cpp__incl_org.svg" target="_base">
           <rect id="button" ry="5" rx="5" y="6" x="6" height="38" width="38"
                fill="#f2f5e9" fill-opacity="0.5" stroke="#606060" stroke-width="1.0"/>
           <path id="arrow"
             d="M 11.500037,31.436501 C 11.940474,20.09759 22.043105,11.32322 32.158766,21.979434 L 37.068811,17.246167 C 37.068811,17.246167 37.088388,32 37.088388,32 L 22.160133,31.978069 C 22.160133,31.978069 26.997745,27.140456 26.997745,27.140456 C 18.528582,18.264221 13.291696,25.230495 11.500037,31.436501 z"
             style="fill:#404040;"/>
          </a>
         </g>
        </svg>
</svg>
