<?xml version="1.0" encoding="UTF-8" standalone="no"?>
<!DOCTYPE svg PUBLIC "-//W3C//DTD SVG 1.1//EN"
 "http://www.w3.org/Graphics/SVG/1.1/DTD/svg11.dtd">
<!-- Generated by graphviz version 2.44.0 ()
 -->
<!-- Title: libs/JSystem/JUtility/JUTDirectPrint.cpp Pages: 1 -->
<!--zoomable 296 -->
<svg id="main" version="1.1" xmlns="http://www.w3.org/2000/svg" xmlns:xlink="http://www.w3.org/1999/xlink" xml:space="preserve" onload="init(evt)">
<style type="text/css"><![CDATA[
.edge:hover path { stroke: red; }
.edge:hover polygon { stroke: red; fill: red; }
]]></style>
<script type="text/javascript"><![CDATA[
var edges = document.getElementsByTagName('g');
if (edges && edges.length) {
  for (var i=0;i<edges.length;i++) {
    if (edges[i].id.substr(0,4)=='edge') {
      edges[i].setAttribute('class','edge');
    }
  }
}
]]></script>
        <defs>
                <circle id="rim" cx="0" cy="0" r="7"/>
                <circle id="rim2" cx="0" cy="0" r="3.5"/>
                <g id="zoomPlus">
                        <use xlink:href="#rim" fill="#404040">
                                <set attributeName="fill" to="#808080" begin="zoomplus.mouseover" end="zoomplus.mouseout"/>
                        </use>
                        <path d="M-4,0h8M0,-4v8" fill="none" stroke="white" stroke-width="1.5" pointer-events="none"/>
                </g>
                <g id="zoomMin">
                        <use xlink:href="#rim" fill="#404040">
                                <set attributeName="fill" to="#808080" begin="zoomminus.mouseover" end="zoomminus.mouseout"/>
                        </use>
                        <path d="M-4,0h8" fill="none" stroke="white" stroke-width="1.5" pointer-events="none"/>
                </g>
                <g id="dirArrow">
                        <path fill="none" stroke="white" stroke-width="1.5" d="M0,-3.0v7 M-2.5,-0.5L0,-3.0L2.5,-0.5"/>
                </g>
               <g id="resetDef">
                       <use xlink:href="#rim2" fill="#404040">
                               <set attributeName="fill" to="#808080" begin="reset.mouseover" end="reset.mouseout"/>
                       </use>
               </g>
        </defs>

<script type="text/javascript">
var viewWidth = 737;
var viewHeight = 296;
var sectionId = 'dynsection-0';
</script>
<script xlink:href="svgpan.js"/>
<svg id="graph" class="graph">
<g id="viewport">
<title>libs/JSystem/JUtility/JUTDirectPrint.cpp</title>
<polygon fill="white" stroke="transparent" points="-4,4 -4,-292 732.5,-292 732.5,4 -4,4"/>
<!-- Node1 -->
<g id="node1" class="node">
<title>Node1</title>
<g id="a_node1"><a xlink:title=" ">
<polygon fill="#bfbfbf" stroke="black" points="384.5,-257.5 384.5,-287.5 490.5,-287.5 490.5,-257.5 384.5,-257.5"/>
<text text-anchor="start" x="392.5" y="-275.5" font-family="Helvetica,sans-Serif" font-size="10.00">libs/JSystem/JUtility</text>
<text text-anchor="middle" x="437.5" y="-264.5" font-family="Helvetica,sans-Serif" font-size="10.00">/JUTDirectPrint.cpp</text>
</a>
</g>
</g>
<!-- Node2 -->
<g id="node2" class="node">
<title>Node2</title>
<g id="a_node2"><a xlink:href="JUTDirectPrint_8h.html" target="_top" xlink:title=" ">
<polygon fill="white" stroke="black" points="124,-185 124,-215 259,-215 259,-185 124,-185"/>
<text text-anchor="start" x="132" y="-203" font-family="Helvetica,sans-Serif" font-size="10.00">JSystem/JUtility/JUTDirect</text>
<text text-anchor="middle" x="191.5" y="-192" font-family="Helvetica,sans-Serif" font-size="10.00">Print.h</text>
</a>
</g>
</g>
<!-- Node1&#45;&gt;Node2 -->
<g id="edge1" class="edge">
<title>Node1&#45;&gt;Node2</title>
<path fill="none" stroke="midnightblue" d="M388.6,-257.49C348.91,-246.11 292.8,-230.03 250.59,-217.93"/>
<polygon fill="midnightblue" stroke="midnightblue" points="251.3,-214.5 240.72,-215.11 249.37,-221.23 251.3,-214.5"/>
</g>
<!-- Node5 -->
<g id="node5" class="node">
<title>Node5</title>
<g id="a_node5"><a xlink:href="types_8h.html" target="_top" xlink:title=" ">
<polygon fill="white" stroke="black" points="288,-0.5 288,-19.5 369,-19.5 369,-0.5 288,-0.5"/>
<text text-anchor="middle" x="328.5" y="-7.5" font-family="Helvetica,sans-Serif" font-size="10.00">dolphin/types.h</text>
</a>
</g>
</g>
<!-- Node1&#45;&gt;Node5 -->
<g id="edge13" class="edge">
<title>Node1&#45;&gt;Node5</title>
<path fill="none" stroke="midnightblue" d="M409.23,-257.48C394.83,-248.9 378.33,-236.56 368.5,-221 329.69,-159.59 326.84,-69.31 327.65,-30.22"/>
<polygon fill="midnightblue" stroke="midnightblue" points="331.17,-29.92 327.99,-19.82 324.17,-29.7 331.17,-29.92"/>
</g>
<!-- Node6 -->
<g id="node6" class="node">
<title>Node6</title>
<g id="a_node6"><a xlink:href="____va__arg_8h.html" target="_top" xlink:title=" ">
<polygon fill="white" stroke="black" points="211.5,-112.5 211.5,-142.5 321.5,-142.5 321.5,-112.5 211.5,-112.5"/>
<text text-anchor="start" x="219.5" y="-130.5" font-family="Helvetica,sans-Serif" font-size="10.00">Runtime.PPCEABI.H/</text>
<text text-anchor="middle" x="266.5" y="-119.5" font-family="Helvetica,sans-Serif" font-size="10.00">__va_arg.h</text>
</a>
</g>
</g>
<!-- Node1&#45;&gt;Node6 -->
<g id="edge9" class="edge">
<title>Node1&#45;&gt;Node6</title>
<path fill="none" stroke="midnightblue" d="M398.63,-257.37C378.45,-248.83 354.17,-236.56 335.5,-221 311.74,-201.2 291.55,-171.65 279.26,-151.3"/>
<polygon fill="midnightblue" stroke="midnightblue" points="282.27,-149.52 274.18,-142.67 276.24,-153.06 282.27,-149.52"/>
</g>
<!-- Node7 -->
<g id="node7" class="node">
<title>Node7</title>
<g id="a_node7"><a xlink:href="dol2asm_8h.html" target="_top" xlink:title=" ">
<polygon fill="white" stroke="black" points="378,-190.5 378,-209.5 439,-209.5 439,-190.5 378,-190.5"/>
<text text-anchor="middle" x="408.5" y="-197.5" font-family="Helvetica,sans-Serif" font-size="10.00">dol2asm.h</text>
</a>
</g>
</g>
<!-- Node1&#45;&gt;Node7 -->
<g id="edge10" class="edge">
<title>Node1&#45;&gt;Node7</title>
<path fill="none" stroke="midnightblue" d="M431.63,-257.23C427.13,-246.28 420.87,-231.07 416,-219.24"/>
<polygon fill="midnightblue" stroke="midnightblue" points="419.2,-217.81 412.16,-209.89 412.73,-220.47 419.2,-217.81"/>
</g>
<!-- Node8 -->
<g id="node8" class="node">
<title>Node8</title>
<g id="a_node8"><a xlink:href="OSCache_8h.html" target="_top" xlink:title=" ">
<polygon fill="white" stroke="black" points="378,-56.5 378,-75.5 491,-75.5 491,-56.5 378,-56.5"/>
<text text-anchor="middle" x="434.5" y="-63.5" font-family="Helvetica,sans-Serif" font-size="10.00">dolphin/os/OSCache.h</text>
</a>
</g>
</g>
<!-- Node1&#45;&gt;Node8 -->
<g id="edge11" class="edge">
<title>Node1&#45;&gt;Node8</title>
<path fill="none" stroke="midnightblue" d="M441.05,-257.46C443.4,-247.39 446.28,-233.45 447.5,-221 452.29,-172.2 443.61,-114.6 438.26,-85.63"/>
<polygon fill="midnightblue" stroke="midnightblue" points="441.67,-84.85 436.34,-75.69 434.8,-86.17 441.67,-84.85"/>
</g>
<!-- Node9 -->
<g id="node9" class="node">
<title>Node9</title>
<g id="a_node9"><a xlink:href="global_8h.html" target="_top" xlink:title=" ">
<polygon fill="white" stroke="black" points="494.5,-118 494.5,-137 544.5,-137 544.5,-118 494.5,-118"/>
<text text-anchor="middle" x="519.5" y="-125" font-family="Helvetica,sans-Serif" font-size="10.00">global.h</text>
</a>
</g>
</g>
<!-- Node1&#45;&gt;Node9 -->
<g id="edge14" class="edge">
<title>Node1&#45;&gt;Node9</title>
<path fill="none" stroke="midnightblue" d="M451.96,-257.48C461.29,-247.87 473.19,-234.46 481.5,-221 496.36,-196.93 507.7,-166.03 513.98,-146.75"/>
<polygon fill="midnightblue" stroke="midnightblue" points="517.35,-147.7 517.01,-137.11 510.67,-145.6 517.35,-147.7"/>
</g>
<!-- Node10 -->
<g id="node10" class="node">
<title>Node10</title>
<g id="a_node10"><a xlink:href="msl__c_2string_8h.html" target="_top" xlink:title=" ">
<polygon fill="white" stroke="black" points="548,-56.5 548,-75.5 625,-75.5 625,-56.5 548,-56.5"/>
<text text-anchor="middle" x="586.5" y="-63.5" font-family="Helvetica,sans-Serif" font-size="10.00">msl_c/string.h</text>
</a>
</g>
</g>
<!-- Node1&#45;&gt;Node10 -->
<g id="edge16" class="edge">
<title>Node1&#45;&gt;Node10</title>
<path fill="none" stroke="midnightblue" d="M461.4,-257.4C475.62,-248.24 493.38,-235.35 506.5,-221 544.52,-179.41 569.69,-116.39 580.49,-85.45"/>
<polygon fill="midnightblue" stroke="midnightblue" points="583.93,-86.2 583.81,-75.61 577.3,-83.96 583.93,-86.2"/>
</g>
<!-- Node11 -->
<g id="node11" class="node">
<title>Node11</title>
<g id="a_node11"><a xlink:title=" ">
<polygon fill="white" stroke="#bfbfbf" points="600.5,-179.5 600.5,-220.5 728.5,-220.5 728.5,-179.5 600.5,-179.5"/>
<text text-anchor="start" x="608.5" y="-208.5" font-family="Helvetica,sans-Serif" font-size="10.00">asm/JSystem/JUtility</text>
<text text-anchor="start" x="608.5" y="-197.5" font-family="Helvetica,sans-Serif" font-size="10.00">/JUTDirectPrint/drawChar</text>
<text text-anchor="middle" x="664.5" y="-186.5" font-family="Helvetica,sans-Serif" font-size="10.00">__14JUTDirectPrintFiii.s</text>
</a>
</g>
</g>
<!-- Node1&#45;&gt;Node11 -->
<g id="edge18" class="edge">
<title>Node1&#45;&gt;Node11</title>
<path fill="none" stroke="midnightblue" d="M482.62,-257.49C513.7,-247.83 555.69,-234.79 591.5,-223.67"/>
<polygon fill="midnightblue" stroke="midnightblue" points="592.9,-226.9 601.42,-220.59 590.83,-220.22 592.9,-226.9"/>
</g>
<!-- Node3 -->
<g id="node3" class="node">
<title>Node3</title>
<g id="a_node3"><a xlink:href="TColor_8h.html" target="_top" xlink:title=" ">
<polygon fill="white" stroke="black" points="28,-118 28,-137 155,-137 155,-118 28,-118"/>
<text text-anchor="middle" x="91.5" y="-125" font-family="Helvetica,sans-Serif" font-size="10.00">JSystem/JUtility/TColor.h</text>
</a>
</g>
</g>
<!-- Node2&#45;&gt;Node3 -->
<g id="edge2" class="edge">
<title>Node2&#45;&gt;Node3</title>
<path fill="none" stroke="midnightblue" d="M171.26,-184.73C154.06,-172.6 129.46,-155.26 112.14,-143.05"/>
<polygon fill="midnightblue" stroke="midnightblue" points="114.02,-140.09 103.83,-137.19 109.98,-145.81 114.02,-140.09"/>
</g>
<!-- Node2&#45;&gt;Node5 -->
<g id="edge8" class="edge">
<title>Node2&#45;&gt;Node5</title>
<path fill="none" stroke="midnightblue" d="M190.16,-184.74C189.13,-166.63 189.63,-134.98 202.5,-112 225.36,-71.16 271.99,-40.64 301.66,-24.34"/>
<polygon fill="midnightblue" stroke="midnightblue" points="303.47,-27.34 310.65,-19.55 300.18,-21.17 303.47,-27.34"/>
</g>
<!-- Node2&#45;&gt;Node6 -->
<g id="edge6" class="edge">
<title>Node2&#45;&gt;Node6</title>
<path fill="none" stroke="midnightblue" d="M206.68,-184.73C217.42,-174.63 232.01,-160.92 244.09,-149.57"/>
<polygon fill="midnightblue" stroke="midnightblue" points="246.71,-151.9 251.6,-142.5 241.92,-146.8 246.71,-151.9"/>
</g>
<!-- Node4 -->
<g id="node4" class="node">
<title>Node4</title>
<g id="a_node4"><a xlink:href="GXTexture_8h.html" target="_top" xlink:title=" ">
<polygon fill="white" stroke="black" points="0,-56.5 0,-75.5 117,-75.5 117,-56.5 0,-56.5"/>
<text text-anchor="middle" x="58.5" y="-63.5" font-family="Helvetica,sans-Serif" font-size="10.00">dolphin/gx/GXTexture.h</text>
</a>
</g>
</g>
<!-- Node3&#45;&gt;Node4 -->
<g id="edge3" class="edge">
<title>Node3&#45;&gt;Node4</title>
<path fill="none" stroke="midnightblue" d="M86.77,-117.98C81.92,-109.23 74.23,-95.37 68.1,-84.31"/>
<polygon fill="midnightblue" stroke="midnightblue" points="71.13,-82.56 63.22,-75.51 65.01,-85.95 71.13,-82.56"/>
</g>
<!-- Node3&#45;&gt;Node5 -->
<g id="edge5" class="edge">
<title>Node3&#45;&gt;Node5</title>
<path fill="none" stroke="midnightblue" d="M98.73,-117.74C111.48,-102.85 139.47,-72.61 169.5,-56 203.25,-37.33 245.41,-25.86 277.83,-19.17"/>
<polygon fill="midnightblue" stroke="midnightblue" points="278.86,-22.54 287.99,-17.17 277.5,-15.67 278.86,-22.54"/>
</g>
<!-- Node4&#45;&gt;Node5 -->
<g id="edge4" class="edge">
<title>Node4&#45;&gt;Node5</title>
<path fill="none" stroke="midnightblue" d="M101.28,-56.44C149.24,-46.85 226.93,-31.31 277.87,-21.13"/>
<polygon fill="midnightblue" stroke="midnightblue" points="278.57,-24.56 287.69,-19.16 277.19,-17.69 278.57,-24.56"/>
</g>
<!-- Node6&#45;&gt;Node5 -->
<g id="edge7" class="edge">
<title>Node6&#45;&gt;Node5</title>
<path fill="none" stroke="midnightblue" d="M274.1,-112.34C285.43,-91.24 306.71,-51.6 319.03,-28.65"/>
<polygon fill="midnightblue" stroke="midnightblue" points="322.2,-30.14 323.85,-19.67 316.03,-26.82 322.2,-30.14"/>
</g>
<!-- Node8&#45;&gt;Node5 -->
<g id="edge12" class="edge">
<title>Node8&#45;&gt;Node5</title>
<path fill="none" stroke="midnightblue" d="M417.47,-56.32C400.47,-47.66 374.12,-34.24 354.51,-24.25"/>
<polygon fill="midnightblue" stroke="midnightblue" points="355.99,-21.08 345.49,-19.65 352.81,-27.31 355.99,-21.08"/>
</g>
<!-- Node9&#45;&gt;Node5 -->
<g id="edge15" class="edge">
<title>Node9&#45;&gt;Node5</title>
<path fill="none" stroke="midnightblue" d="M519.63,-117.77C519.36,-102.92 516.57,-72.75 499.5,-56 467.85,-24.95 417.49,-14.61 379.6,-11.5"/>
<polygon fill="midnightblue" stroke="midnightblue" points="379.48,-7.98 369.27,-10.8 379.01,-14.97 379.48,-7.98"/>
</g>
<!-- Node10&#45;&gt;Node5 -->
<g id="edge17" class="edge">
<title>Node10&#45;&gt;Node5</title>
<path fill="none" stroke="midnightblue" d="M547.87,-56.92C502.9,-47.5 428.46,-31.92 378.95,-21.56"/>
<polygon fill="midnightblue" stroke="midnightblue" points="379.6,-18.12 369.09,-19.5 378.16,-24.97 379.6,-18.12"/>
</g>
</g>
</svg>
        <g id="navigator" transform="translate(0 0)" fill="#404254">
                <rect fill="#f2f5e9" fill-opacity="0.5" stroke="#606060" stroke-width=".5" x="0" y="0" width="60" height="60"/>
                <use id="zoomplus" xlink:href="#zoomPlus" x="17" y="9" onmousedown="handleZoom(evt,'in')"/>
                <use id="zoomminus" xlink:href="#zoomMin" x="42" y="9" onmousedown="handleZoom(evt,'out')"/>
                <use id="reset" xlink:href="#resetDef" x="30" y="36" onmousedown="handleReset()"/>
                <g id="arrowUp" xlink:href="#dirArrow" transform="translate(30 24)" onmousedown="handlePan(0,-1)">
                  <use xlink:href="#rim" fill="#404040">
                        <set attributeName="fill" to="#808080" begin="arrowUp.mouseover" end="arrowUp.mouseout"/>
                  </use>
                  <path fill="none" stroke="white" stroke-width="1.5" d="M0,-3.0v7 M-2.5,-0.5L0,-3.0L2.5,-0.5"/>
                </g>
                <g id="arrowRight" xlink:href="#dirArrow" transform="rotate(90) translate(36 -43)" onmousedown="handlePan(1,0)">
                  <use xlink:href="#rim" fill="#404040">
                        <set attributeName="fill" to="#808080" begin="arrowRight.mouseover" end="arrowRight.mouseout"/>
                  </use>
                  <path fill="none" stroke="white" stroke-width="1.5" d="M0,-3.0v7 M-2.5,-0.5L0,-3.0L2.5,-0.5"/>
                </g>
                <g id="arrowDown" xlink:href="#dirArrow" transform="rotate(180) translate(-30 -48)" onmousedown="handlePan(0,1)">
                  <use xlink:href="#rim" fill="#404040">
                        <set attributeName="fill" to="#808080" begin="arrowDown.mouseover" end="arrowDown.mouseout"/>
                  </use>
                  <path fill="none" stroke="white" stroke-width="1.5" d="M0,-3.0v7 M-2.5,-0.5L0,-3.0L2.5,-0.5"/>
                </g>
                <g id="arrowLeft" xlink:href="#dirArrow" transform="rotate(270) translate(-36 17)" onmousedown="handlePan(-1,0)">
                  <use xlink:href="#rim" fill="#404040">
                        <set attributeName="fill" to="#808080" begin="arrowLeft.mouseover" end="arrowLeft.mouseout"/>
                  </use>
                  <path fill="none" stroke="white" stroke-width="1.5" d="M0,-3.0v7 M-2.5,-0.5L0,-3.0L2.5,-0.5"/>
                </g>
        </g>
        <svg viewBox="0 0 15 15" width="100%" height="30px" preserveAspectRatio="xMaxYMin meet">
         <g id="arrow_out" transform="scale(0.3 0.3)">
          <a xlink:href="JUTDirectPrint_8cpp__incl_org.svg" target="_base">
           <rect id="button" ry="5" rx="5" y="6" x="6" height="38" width="38"
                fill="#f2f5e9" fill-opacity="0.5" stroke="#606060" stroke-width="1.0"/>
           <path id="arrow"
             d="M 11.500037,31.436501 C 11.940474,20.09759 22.043105,11.32322 32.158766,21.979434 L 37.068811,17.246167 C 37.068811,17.246167 37.088388,32 37.088388,32 L 22.160133,31.978069 C 22.160133,31.978069 26.997745,27.140456 26.997745,27.140456 C 18.528582,18.264221 13.291696,25.230495 11.500037,31.436501 z"
             style="fill:#404040;"/>
          </a>
         </g>
        </svg>
</svg>
