<?xml version="1.0" encoding="UTF-8" standalone="no"?>
<!DOCTYPE svg PUBLIC "-//W3C//DTD SVG 1.1//EN"
 "http://www.w3.org/Graphics/SVG/1.1/DTD/svg11.dtd">
<!-- Generated by graphviz version 2.44.0 ()
 -->
<!-- Title: include/JSystem/JUtility/JUTException.h Pages: 1 -->
<svg width="818pt" height="274pt"
 viewBox="0.00 0.00 818.03 274.00" xmlns="http://www.w3.org/2000/svg" xmlns:xlink="http://www.w3.org/1999/xlink">
<g id="graph0" class="graph" transform="scale(1 1) rotate(0) translate(4 270)">
<title>include/JSystem/JUtility/JUTException.h</title>
<polygon fill="white" stroke="transparent" points="-4,4 -4,-270 814.03,-270 814.03,4 -4,4"/>
<!-- Node1 -->
<g id="node1" class="node">
<title>Node1</title>
<g id="a_node1"><a xlink:title=" ">
<polygon fill="#bfbfbf" stroke="black" points="288.53,-235.5 288.53,-265.5 410.53,-265.5 410.53,-235.5 288.53,-235.5"/>
<text text-anchor="start" x="296.53" y="-253.5" font-family="Helvetica,sans-Serif" font-size="10.00">include/JSystem/JUtility</text>
<text text-anchor="middle" x="349.53" y="-242.5" font-family="Helvetica,sans-Serif" font-size="10.00">/JUTException.h</text>
</a>
</g>
</g>
<!-- Node2 -->
<g id="node2" class="node">
<title>Node2</title>
<g id="a_node2"><a xlink:href="JKRThread_8h.html" target="_top" xlink:title=" ">
<polygon fill="white" stroke="black" points="92.53,-174 92.53,-193 242.53,-193 242.53,-174 92.53,-174"/>
<text text-anchor="middle" x="167.53" y="-181" font-family="Helvetica,sans-Serif" font-size="10.00">JSystem/JKernel/JKRThread.h</text>
</a>
</g>
</g>
<!-- Node1&#45;&gt;Node2 -->
<g id="edge1" class="edge">
<title>Node1&#45;&gt;Node2</title>
<path fill="none" stroke="midnightblue" d="M310.04,-235.4C277.4,-223.74 231.57,-207.37 200.78,-196.38"/>
<polygon fill="midnightblue" stroke="midnightblue" points="201.94,-193.07 191.35,-193.01 199.59,-199.67 201.94,-193.07"/>
</g>
<!-- Node5 -->
<g id="node5" class="node">
<title>Node5</title>
<g id="a_node5"><a xlink:href="types_8h.html" target="_top" xlink:title=" ">
<polygon fill="white" stroke="black" points="347.03,-0.5 347.03,-19.5 428.03,-19.5 428.03,-0.5 347.03,-0.5"/>
<text text-anchor="middle" x="387.53" y="-7.5" font-family="Helvetica,sans-Serif" font-size="10.00">dolphin/types.h</text>
</a>
</g>
</g>
<!-- Node1&#45;&gt;Node5 -->
<g id="edge26" class="edge">
<title>Node1&#45;&gt;Node5</title>
<path fill="none" stroke="midnightblue" d="M388.28,-235.43C429.31,-218.17 491.79,-184.55 518.53,-132 522.56,-124.08 522.45,-119.98 518.53,-112 506.95,-88.44 445.1,-47.03 410.69,-25.27"/>
<polygon fill="midnightblue" stroke="midnightblue" points="412.11,-22.03 401.77,-19.69 408.39,-27.96 412.11,-22.03"/>
</g>
<!-- Node6 -->
<g id="node6" class="node">
<title>Node6</title>
<g id="a_node6"><a xlink:href="OS_8h.html" target="_top" xlink:title=" ">
<polygon fill="white" stroke="black" points="21.53,-112.5 21.53,-131.5 107.53,-131.5 107.53,-112.5 21.53,-112.5"/>
<text text-anchor="middle" x="64.53" y="-119.5" font-family="Helvetica,sans-Serif" font-size="10.00">dolphin/os/OS.h</text>
</a>
</g>
</g>
<!-- Node1&#45;&gt;Node6 -->
<g id="edge25" class="edge">
<title>Node1&#45;&gt;Node6</title>
<path fill="none" stroke="midnightblue" d="M288.25,-245.42C219.08,-239.54 112.41,-226.27 83.53,-199 67.95,-184.29 64.35,-158.92 63.89,-141.56"/>
<polygon fill="midnightblue" stroke="midnightblue" points="67.39,-141.53 63.94,-131.51 60.39,-141.5 67.39,-141.53"/>
</g>
<!-- Node8 -->
<g id="node8" class="node">
<title>Node8</title>
<g id="a_node8"><a xlink:href="JUTGamePad_8h.html" target="_top" xlink:title=" ">
<polygon fill="white" stroke="black" points="281.53,-168.5 281.53,-198.5 417.53,-198.5 417.53,-168.5 281.53,-168.5"/>
<text text-anchor="start" x="289.53" y="-186.5" font-family="Helvetica,sans-Serif" font-size="10.00">JSystem/JUtility/JUTGame</text>
<text text-anchor="middle" x="349.53" y="-175.5" font-family="Helvetica,sans-Serif" font-size="10.00">Pad.h</text>
</a>
</g>
</g>
<!-- Node1&#45;&gt;Node8 -->
<g id="edge12" class="edge">
<title>Node1&#45;&gt;Node8</title>
<path fill="none" stroke="midnightblue" d="M349.53,-235.4C349.53,-227.64 349.53,-217.81 349.53,-208.86"/>
<polygon fill="midnightblue" stroke="midnightblue" points="353.03,-208.58 349.53,-198.58 346.03,-208.58 353.03,-208.58"/>
</g>
<!-- Node10 -->
<g id="node10" class="node">
<title>Node10</title>
<g id="a_node10"><a xlink:href="GX_8h.html" target="_top" xlink:title=" ">
<polygon fill="white" stroke="black" points="566.03,-112.5 566.03,-131.5 651.03,-131.5 651.03,-112.5 566.03,-112.5"/>
<text text-anchor="middle" x="608.53" y="-119.5" font-family="Helvetica,sans-Serif" font-size="10.00">dolphin/gx/GX.h</text>
</a>
</g>
</g>
<!-- Node1&#45;&gt;Node10 -->
<g id="edge19" class="edge">
<title>Node1&#45;&gt;Node10</title>
<path fill="none" stroke="midnightblue" d="M410.85,-244.97C453.31,-239.38 509.52,-226.89 551.53,-199 573.58,-184.36 590.39,-158.2 599.86,-140.73"/>
<polygon fill="midnightblue" stroke="midnightblue" points="603.1,-142.08 604.57,-131.59 596.87,-138.87 603.1,-142.08"/>
</g>
<!-- Node3 -->
<g id="node3" class="node">
<title>Node3</title>
<g id="a_node3"><a xlink:href="JKRDisposer_8h.html" target="_top" xlink:title=" ">
<polygon fill="white" stroke="black" points="163.53,-112.5 163.53,-131.5 321.53,-131.5 321.53,-112.5 163.53,-112.5"/>
<text text-anchor="middle" x="242.53" y="-119.5" font-family="Helvetica,sans-Serif" font-size="10.00">JSystem/JKernel/JKRDisposer.h</text>
</a>
</g>
</g>
<!-- Node2&#45;&gt;Node3 -->
<g id="edge2" class="edge">
<title>Node2&#45;&gt;Node3</title>
<path fill="none" stroke="midnightblue" d="M178.28,-173.98C190.08,-164.61 209.27,-149.38 223.61,-138.01"/>
<polygon fill="midnightblue" stroke="midnightblue" points="226.15,-140.47 231.8,-131.51 221.79,-134.98 226.15,-140.47"/>
</g>
<!-- Node4 -->
<g id="node4" class="node">
<title>Node4</title>
<g id="a_node4"><a xlink:href="JSUList_8h.html" target="_top" xlink:title=" ">
<polygon fill="white" stroke="black" points="177.03,-56.5 177.03,-75.5 320.03,-75.5 320.03,-56.5 177.03,-56.5"/>
<text text-anchor="middle" x="248.53" y="-63.5" font-family="Helvetica,sans-Serif" font-size="10.00">JSystem/JSupport/JSUList.h</text>
</a>
</g>
</g>
<!-- Node2&#45;&gt;Node4 -->
<g id="edge6" class="edge">
<title>Node2&#45;&gt;Node4</title>
<path fill="none" stroke="midnightblue" d="M162.38,-173.96C154.64,-159.93 142.19,-131.59 154.53,-112 164.54,-96.11 181.88,-85.71 198.97,-78.96"/>
<polygon fill="midnightblue" stroke="midnightblue" points="200.16,-82.25 208.38,-75.57 197.79,-75.66 200.16,-82.25"/>
</g>
<!-- Node2&#45;&gt;Node5 -->
<g id="edge11" class="edge">
<title>Node2&#45;&gt;Node5</title>
<path fill="none" stroke="midnightblue" d="M92.44,-176.72C62.58,-170.29 30.98,-157.42 12.53,-132 3.55,-119.63 -10.12,-82.2 13.53,-56 34.83,-32.41 239.48,-18.7 336.71,-13.46"/>
<polygon fill="midnightblue" stroke="midnightblue" points="337.1,-16.95 346.9,-12.93 336.73,-9.96 337.1,-16.95"/>
</g>
<!-- Node2&#45;&gt;Node6 -->
<g id="edge7" class="edge">
<title>Node2&#45;&gt;Node6</title>
<path fill="none" stroke="midnightblue" d="M152.77,-173.98C135.87,-164.21 107.95,-148.08 88.04,-136.58"/>
<polygon fill="midnightblue" stroke="midnightblue" points="89.67,-133.48 79.26,-131.51 86.17,-139.54 89.67,-133.48"/>
</g>
<!-- Node3&#45;&gt;Node4 -->
<g id="edge3" class="edge">
<title>Node3&#45;&gt;Node4</title>
<path fill="none" stroke="midnightblue" d="M243.52,-112.08C244.32,-104.93 245.46,-94.64 246.45,-85.69"/>
<polygon fill="midnightblue" stroke="midnightblue" points="249.93,-86.08 247.56,-75.75 242.97,-85.3 249.93,-86.08"/>
</g>
<!-- Node3&#45;&gt;Node5 -->
<g id="edge5" class="edge">
<title>Node3&#45;&gt;Node5</title>
<path fill="none" stroke="midnightblue" d="M263.9,-112.35C282.09,-104.42 308.4,-91.56 328.53,-76 346.53,-62.09 363.6,-42.29 374.71,-28.21"/>
<polygon fill="midnightblue" stroke="midnightblue" points="377.78,-29.96 381.09,-19.9 372.22,-25.7 377.78,-29.96"/>
</g>
<!-- Node4&#45;&gt;Node5 -->
<g id="edge4" class="edge">
<title>Node4&#45;&gt;Node5</title>
<path fill="none" stroke="midnightblue" d="M270.55,-56.44C293.63,-47.48 330.09,-33.31 356.17,-23.18"/>
<polygon fill="midnightblue" stroke="midnightblue" points="357.55,-26.4 365.61,-19.52 355.02,-19.88 357.55,-26.4"/>
</g>
<!-- Node6&#45;&gt;Node5 -->
<g id="edge8" class="edge">
<title>Node6&#45;&gt;Node5</title>
<path fill="none" stroke="midnightblue" d="M75.24,-112.37C93.2,-98.34 131.04,-70.67 167.53,-56 223.18,-33.62 291.41,-21.89 336.99,-16.09"/>
<polygon fill="midnightblue" stroke="midnightblue" points="337.43,-19.56 346.93,-14.87 336.58,-12.61 337.43,-19.56"/>
</g>
<!-- Node7 -->
<g id="node7" class="node">
<title>Node7</title>
<g id="a_node7"><a xlink:href="dvd_8h.html" target="_top" xlink:title=" ">
<polygon fill="white" stroke="black" points="22.53,-56.5 22.53,-75.5 114.53,-75.5 114.53,-56.5 22.53,-56.5"/>
<text text-anchor="middle" x="68.53" y="-63.5" font-family="Helvetica,sans-Serif" font-size="10.00">dolphin/dvd/dvd.h</text>
</a>
</g>
</g>
<!-- Node6&#45;&gt;Node7 -->
<g id="edge9" class="edge">
<title>Node6&#45;&gt;Node7</title>
<path fill="none" stroke="midnightblue" d="M65.19,-112.08C65.71,-105.01 66.47,-94.86 67.12,-85.99"/>
<polygon fill="midnightblue" stroke="midnightblue" points="70.63,-85.98 67.88,-75.75 63.65,-85.47 70.63,-85.98"/>
</g>
<!-- Node7&#45;&gt;Node5 -->
<g id="edge10" class="edge">
<title>Node7&#45;&gt;Node5</title>
<path fill="none" stroke="midnightblue" d="M114.57,-57.21C173.46,-47.24 275.11,-30.03 336.35,-19.66"/>
<polygon fill="midnightblue" stroke="midnightblue" points="337.29,-23.05 346.56,-17.93 336.12,-16.15 337.29,-23.05"/>
</g>
<!-- Node8&#45;&gt;Node3 -->
<g id="edge13" class="edge">
<title>Node8&#45;&gt;Node3</title>
<path fill="none" stroke="midnightblue" d="M324.17,-168.4C306.86,-158.77 284.05,-146.09 266.95,-136.58"/>
<polygon fill="midnightblue" stroke="midnightblue" points="268.54,-133.46 258.1,-131.66 265.14,-139.58 268.54,-133.46"/>
</g>
<!-- Node8&#45;&gt;Node4 -->
<g id="edge14" class="edge">
<title>Node8&#45;&gt;Node4</title>
<path fill="none" stroke="midnightblue" d="M348.93,-168.34C347.61,-152.98 343.45,-128.45 330.53,-112 319.06,-97.41 301.49,-86.88 285.55,-79.69"/>
<polygon fill="midnightblue" stroke="midnightblue" points="286.48,-76.28 275.91,-75.64 283.77,-82.74 286.48,-76.28"/>
</g>
<!-- Node8&#45;&gt;Node5 -->
<g id="edge18" class="edge">
<title>Node8&#45;&gt;Node5</title>
<path fill="none" stroke="midnightblue" d="M352.64,-168.47C359.46,-137.7 375.71,-64.33 383.39,-29.7"/>
<polygon fill="midnightblue" stroke="midnightblue" points="386.89,-30.08 385.63,-19.56 380.05,-28.57 386.89,-30.08"/>
</g>
<!-- Node8&#45;&gt;Node6 -->
<g id="edge15" class="edge">
<title>Node8&#45;&gt;Node6</title>
<path fill="none" stroke="midnightblue" d="M282.35,-168.47C231.14,-157.78 161.72,-143.29 115.14,-133.57"/>
<polygon fill="midnightblue" stroke="midnightblue" points="115.78,-130.12 105.27,-131.51 114.35,-136.98 115.78,-130.12"/>
</g>
<!-- Node9 -->
<g id="node9" class="node">
<title>Node9</title>
<g id="a_node9"><a xlink:href="Pad_8h.html" target="_top" xlink:title=" ">
<polygon fill="white" stroke="black" points="415.53,-112.5 415.53,-131.5 509.53,-131.5 509.53,-112.5 415.53,-112.5"/>
<text text-anchor="middle" x="462.53" y="-119.5" font-family="Helvetica,sans-Serif" font-size="10.00">dolphin/pad/Pad.h</text>
</a>
</g>
</g>
<!-- Node8&#45;&gt;Node9 -->
<g id="edge16" class="edge">
<title>Node8&#45;&gt;Node9</title>
<path fill="none" stroke="midnightblue" d="M376.31,-168.4C394.59,-158.77 418.68,-146.09 436.74,-136.58"/>
<polygon fill="midnightblue" stroke="midnightblue" points="438.87,-139.41 446.09,-131.66 435.61,-133.22 438.87,-139.41"/>
</g>
<!-- Node9&#45;&gt;Node5 -->
<g id="edge17" class="edge">
<title>Node9&#45;&gt;Node5</title>
<path fill="none" stroke="midnightblue" d="M456.64,-112.37C444.27,-94.22 415.35,-51.8 399.11,-27.99"/>
<polygon fill="midnightblue" stroke="midnightblue" points="401.91,-25.88 393.39,-19.59 396.13,-29.83 401.91,-25.88"/>
</g>
<!-- Node10&#45;&gt;Node5 -->
<g id="edge24" class="edge">
<title>Node10&#45;&gt;Node5</title>
<path fill="none" stroke="midnightblue" d="M593.71,-112.38C571.41,-99.53 527.75,-74.83 489.53,-56 465.81,-44.31 438.35,-32.28 417.9,-23.6"/>
<polygon fill="midnightblue" stroke="midnightblue" points="419.05,-20.29 408.47,-19.63 416.33,-26.74 419.05,-20.29"/>
</g>
<!-- Node11 -->
<g id="node11" class="node">
<title>Node11</title>
<g id="a_node11"><a xlink:href="GXDisplayList_8h.html" target="_top" xlink:title=" ">
<polygon fill="white" stroke="black" points="542.03,-56.5 542.03,-75.5 675.03,-75.5 675.03,-56.5 542.03,-56.5"/>
<text text-anchor="middle" x="608.53" y="-63.5" font-family="Helvetica,sans-Serif" font-size="10.00">dolphin/gx/GXDisplayList.h</text>
</a>
</g>
</g>
<!-- Node10&#45;&gt;Node11 -->
<g id="edge20" class="edge">
<title>Node10&#45;&gt;Node11</title>
<path fill="none" stroke="midnightblue" d="M608.53,-112.08C608.53,-105.01 608.53,-94.86 608.53,-85.99"/>
<polygon fill="midnightblue" stroke="midnightblue" points="612.03,-85.75 608.53,-75.75 605.03,-85.75 612.03,-85.75"/>
</g>
<!-- Node12 -->
<g id="node12" class="node">
<title>Node12</title>
<g id="a_node12"><a xlink:href="GXTexture_8h.html" target="_top" xlink:title=" ">
<polygon fill="white" stroke="black" points="693.03,-56.5 693.03,-75.5 810.03,-75.5 810.03,-56.5 693.03,-56.5"/>
<text text-anchor="middle" x="751.53" y="-63.5" font-family="Helvetica,sans-Serif" font-size="10.00">dolphin/gx/GXTexture.h</text>
</a>
</g>
</g>
<!-- Node10&#45;&gt;Node12 -->
<g id="edge22" class="edge">
<title>Node10&#45;&gt;Node12</title>
<path fill="none" stroke="midnightblue" d="M631.19,-112.44C654.93,-103.48 692.44,-89.31 719.27,-79.18"/>
<polygon fill="midnightblue" stroke="midnightblue" points="720.86,-82.32 728.98,-75.52 718.39,-75.77 720.86,-82.32"/>
</g>
<!-- Node11&#45;&gt;Node5 -->
<g id="edge21" class="edge">
<title>Node11&#45;&gt;Node5</title>
<path fill="none" stroke="midnightblue" d="M573.51,-56.44C535.28,-47.1 473.96,-32.12 432.27,-21.93"/>
<polygon fill="midnightblue" stroke="midnightblue" points="432.93,-18.49 422.38,-19.52 431.27,-25.29 432.93,-18.49"/>
</g>
<!-- Node12&#45;&gt;Node5 -->
<g id="edge23" class="edge">
<title>Node12&#45;&gt;Node5</title>
<path fill="none" stroke="midnightblue" d="M693.85,-56.44C623.3,-45.98 505.01,-28.43 437.94,-18.48"/>
<polygon fill="midnightblue" stroke="midnightblue" points="438.44,-15.01 428.03,-17.01 437.41,-21.94 438.44,-15.01"/>
</g>
</g>
</svg>
