<?xml version="1.0" encoding="UTF-8" standalone="no"?>
<!DOCTYPE svg PUBLIC "-//W3C//DTD SVG 1.1//EN"
 "http://www.w3.org/Graphics/SVG/1.1/DTD/svg11.dtd">
<!-- Generated by graphviz version 2.44.0 ()
 -->
<!-- Title: libs/JSystem/JUtility/JUTFont.cpp Pages: 1 -->
<svg width="634pt" height="285pt"
 viewBox="0.00 0.00 634.16 285.00" xmlns="http://www.w3.org/2000/svg" xmlns:xlink="http://www.w3.org/1999/xlink">
<g id="graph0" class="graph" transform="scale(1 1) rotate(0) translate(4 281)">
<title>libs/JSystem/JUtility/JUTFont.cpp</title>
<polygon fill="white" stroke="transparent" points="-4,4 -4,-281 630.16,-281 630.16,4 -4,4"/>
<!-- Node1 -->
<g id="node1" class="node">
<title>Node1</title>
<g id="a_node1"><a xlink:title=" ">
<polygon fill="#bfbfbf" stroke="black" points="337.66,-246.5 337.66,-276.5 443.66,-276.5 443.66,-246.5 337.66,-246.5"/>
<text text-anchor="start" x="345.66" y="-264.5" font-family="Helvetica,sans-Serif" font-size="10.00">libs/JSystem/JUtility</text>
<text text-anchor="middle" x="390.66" y="-253.5" font-family="Helvetica,sans-Serif" font-size="10.00">/JUTFont.cpp</text>
</a>
</g>
</g>
<!-- Node2 -->
<g id="node2" class="node">
<title>Node2</title>
<g id="a_node2"><a xlink:href="JUTFont_8h.html" target="_top" xlink:title=" ">
<polygon fill="white" stroke="black" points="102.16,-179.5 102.16,-198.5 239.16,-198.5 239.16,-179.5 102.16,-179.5"/>
<text text-anchor="middle" x="170.66" y="-186.5" font-family="Helvetica,sans-Serif" font-size="10.00">JSystem/JUtility/JUTFont.h</text>
</a>
</g>
</g>
<!-- Node1&#45;&gt;Node2 -->
<g id="edge1" class="edge">
<title>Node1&#45;&gt;Node2</title>
<path fill="none" stroke="midnightblue" d="M346.93,-246.49C305.98,-233.36 245.49,-213.98 207.09,-201.67"/>
<polygon fill="midnightblue" stroke="midnightblue" points="207.94,-198.27 197.35,-198.55 205.81,-204.94 207.94,-198.27"/>
</g>
<!-- Node5 -->
<g id="node5" class="node">
<title>Node5</title>
<g id="a_node5"><a xlink:href="types_8h.html" target="_top" xlink:title=" ">
<polygon fill="white" stroke="black" points="124.16,-0.5 124.16,-19.5 205.16,-19.5 205.16,-0.5 124.16,-0.5"/>
<text text-anchor="middle" x="164.66" y="-7.5" font-family="Helvetica,sans-Serif" font-size="10.00">dolphin/types.h</text>
</a>
</g>
</g>
<!-- Node1&#45;&gt;Node5 -->
<g id="edge13" class="edge">
<title>Node1&#45;&gt;Node5</title>
<path fill="none" stroke="midnightblue" d="M387.59,-246.3C378.29,-204.52 349.33,-83.3 320.66,-56 292.44,-29.14 249.23,-18.16 215.43,-13.75"/>
<polygon fill="midnightblue" stroke="midnightblue" points="215.6,-10.25 205.27,-12.58 214.8,-17.2 215.6,-10.25"/>
</g>
<!-- Node8 -->
<g id="node8" class="node">
<title>Node8</title>
<g id="a_node8"><a xlink:href="dol2asm_8h.html" target="_top" xlink:title=" ">
<polygon fill="white" stroke="black" points="390.16,-179.5 390.16,-198.5 451.16,-198.5 451.16,-179.5 390.16,-179.5"/>
<text text-anchor="middle" x="420.66" y="-186.5" font-family="Helvetica,sans-Serif" font-size="10.00">dol2asm.h</text>
</a>
</g>
</g>
<!-- Node1&#45;&gt;Node8 -->
<g id="edge12" class="edge">
<title>Node1&#45;&gt;Node8</title>
<path fill="none" stroke="midnightblue" d="M396.73,-246.23C401.39,-235.28 407.86,-220.07 412.9,-208.24"/>
<polygon fill="midnightblue" stroke="midnightblue" points="416.18,-209.47 416.87,-198.89 409.74,-206.72 416.18,-209.47"/>
</g>
<!-- Node9 -->
<g id="node9" class="node">
<title>Node9</title>
<g id="a_node9"><a xlink:title=" ">
<polygon fill="white" stroke="#bfbfbf" points="469.16,-168.5 469.16,-209.5 626.16,-209.5 626.16,-168.5 469.16,-168.5"/>
<text text-anchor="start" x="477.16" y="-197.5" font-family="Helvetica,sans-Serif" font-size="10.00">asm/JSystem/JUtility</text>
<text text-anchor="start" x="477.16" y="-186.5" font-family="Helvetica,sans-Serif" font-size="10.00">/JUTFont/drawString_size</text>
<text text-anchor="middle" x="547.66" y="-175.5" font-family="Helvetica,sans-Serif" font-size="10.00">_scale__7JUTFontFffffPCcUlb.s</text>
</a>
</g>
</g>
<!-- Node1&#45;&gt;Node9 -->
<g id="edge14" class="edge">
<title>Node1&#45;&gt;Node9</title>
<path fill="none" stroke="midnightblue" d="M422.05,-246.4C442.83,-237.07 470.59,-224.61 494.73,-213.77"/>
<polygon fill="midnightblue" stroke="midnightblue" points="496.44,-216.84 504.13,-209.55 493.57,-210.45 496.44,-216.84"/>
</g>
<!-- Node3 -->
<g id="node3" class="node">
<title>Node3</title>
<g id="a_node3"><a xlink:href="TColor_8h.html" target="_top" xlink:title=" ">
<polygon fill="white" stroke="black" points="173.16,-112.5 173.16,-131.5 300.16,-131.5 300.16,-112.5 173.16,-112.5"/>
<text text-anchor="middle" x="236.66" y="-119.5" font-family="Helvetica,sans-Serif" font-size="10.00">JSystem/JUtility/TColor.h</text>
</a>
</g>
</g>
<!-- Node2&#45;&gt;Node3 -->
<g id="edge2" class="edge">
<title>Node2&#45;&gt;Node3</title>
<path fill="none" stroke="midnightblue" d="M179.56,-179.23C190.05,-168.9 207.68,-151.54 220.58,-138.83"/>
<polygon fill="midnightblue" stroke="midnightblue" points="223.23,-141.14 227.9,-131.63 218.32,-136.15 223.23,-141.14"/>
</g>
<!-- Node2&#45;&gt;Node5 -->
<g id="edge11" class="edge">
<title>Node2&#45;&gt;Node5</title>
<path fill="none" stroke="midnightblue" d="M142.56,-179.41C85.89,-160.65 -33.21,-113.08 9.66,-56 22.34,-39.11 73.82,-26.51 114.01,-19"/>
<polygon fill="midnightblue" stroke="midnightblue" points="114.74,-22.43 123.96,-17.21 113.5,-15.54 114.74,-22.43"/>
</g>
<!-- Node6 -->
<g id="node6" class="node">
<title>Node6</title>
<g id="a_node6"><a xlink:href="GX_8h.html" target="_top" xlink:title=" ">
<polygon fill="white" stroke="black" points="61.16,-112.5 61.16,-131.5 146.16,-131.5 146.16,-112.5 61.16,-112.5"/>
<text text-anchor="middle" x="103.66" y="-119.5" font-family="Helvetica,sans-Serif" font-size="10.00">dolphin/gx/GX.h</text>
</a>
</g>
</g>
<!-- Node2&#45;&gt;Node6 -->
<g id="edge6" class="edge">
<title>Node2&#45;&gt;Node6</title>
<path fill="none" stroke="midnightblue" d="M161.62,-179.23C150.97,-168.9 133.07,-151.54 119.98,-138.83"/>
<polygon fill="midnightblue" stroke="midnightblue" points="122.16,-136.08 112.55,-131.63 117.29,-141.1 122.16,-136.08"/>
</g>
<!-- Node4 -->
<g id="node4" class="node">
<title>Node4</title>
<g id="a_node4"><a xlink:href="GXTexture_8h.html" target="_top" xlink:title=" ">
<polygon fill="white" stroke="black" points="178.16,-56.5 178.16,-75.5 295.16,-75.5 295.16,-56.5 178.16,-56.5"/>
<text text-anchor="middle" x="236.66" y="-63.5" font-family="Helvetica,sans-Serif" font-size="10.00">dolphin/gx/GXTexture.h</text>
</a>
</g>
</g>
<!-- Node3&#45;&gt;Node4 -->
<g id="edge3" class="edge">
<title>Node3&#45;&gt;Node4</title>
<path fill="none" stroke="midnightblue" d="M236.66,-112.08C236.66,-105.01 236.66,-94.86 236.66,-85.99"/>
<polygon fill="midnightblue" stroke="midnightblue" points="240.16,-85.75 236.66,-75.75 233.16,-85.75 240.16,-85.75"/>
</g>
<!-- Node3&#45;&gt;Node5 -->
<g id="edge5" class="edge">
<title>Node3&#45;&gt;Node5</title>
<path fill="none" stroke="midnightblue" d="M258.27,-112.33C283.97,-100.74 321.4,-78.96 304.66,-56 284.39,-28.2 246.66,-17.2 215.48,-13.01"/>
<polygon fill="midnightblue" stroke="midnightblue" points="215.52,-9.49 205.18,-11.84 214.72,-16.45 215.52,-9.49"/>
</g>
<!-- Node4&#45;&gt;Node5 -->
<g id="edge4" class="edge">
<title>Node4&#45;&gt;Node5</title>
<path fill="none" stroke="midnightblue" d="M225.09,-56.32C214.24,-48.18 197.78,-35.84 184.77,-26.09"/>
<polygon fill="midnightblue" stroke="midnightblue" points="186.53,-23.03 176.43,-19.83 182.33,-28.63 186.53,-23.03"/>
</g>
<!-- Node6&#45;&gt;Node4 -->
<g id="edge9" class="edge">
<title>Node6&#45;&gt;Node4</title>
<path fill="none" stroke="midnightblue" d="M124.73,-112.44C146.72,-103.52 181.39,-89.44 206.32,-79.32"/>
<polygon fill="midnightblue" stroke="midnightblue" points="207.73,-82.52 215.68,-75.52 205.1,-76.04 207.73,-82.52"/>
</g>
<!-- Node6&#45;&gt;Node5 -->
<g id="edge10" class="edge">
<title>Node6&#45;&gt;Node5</title>
<path fill="none" stroke="midnightblue" d="M74.37,-112.49C42.61,-101.73 -1.21,-81.5 17.66,-56 39.59,-26.34 80.69,-15.59 113.86,-11.98"/>
<polygon fill="midnightblue" stroke="midnightblue" points="114.23,-15.46 123.87,-11.07 113.6,-8.49 114.23,-15.46"/>
</g>
<!-- Node7 -->
<g id="node7" class="node">
<title>Node7</title>
<g id="a_node7"><a xlink:href="GXDisplayList_8h.html" target="_top" xlink:title=" ">
<polygon fill="white" stroke="black" points="27.16,-56.5 27.16,-75.5 160.16,-75.5 160.16,-56.5 27.16,-56.5"/>
<text text-anchor="middle" x="93.66" y="-63.5" font-family="Helvetica,sans-Serif" font-size="10.00">dolphin/gx/GXDisplayList.h</text>
</a>
</g>
</g>
<!-- Node6&#45;&gt;Node7 -->
<g id="edge7" class="edge">
<title>Node6&#45;&gt;Node7</title>
<path fill="none" stroke="midnightblue" d="M102.01,-112.08C100.68,-104.93 98.77,-94.64 97.12,-85.69"/>
<polygon fill="midnightblue" stroke="midnightblue" points="100.54,-84.95 95.28,-75.75 93.66,-86.22 100.54,-84.95"/>
</g>
<!-- Node7&#45;&gt;Node5 -->
<g id="edge8" class="edge">
<title>Node7&#45;&gt;Node5</title>
<path fill="none" stroke="midnightblue" d="M105.06,-56.32C115.77,-48.18 132,-35.84 144.82,-26.09"/>
<polygon fill="midnightblue" stroke="midnightblue" points="147.2,-28.67 153.04,-19.83 142.96,-23.1 147.2,-28.67"/>
</g>
</g>
</svg>
