<?xml version="1.0" encoding="UTF-8" standalone="no"?>
<!DOCTYPE svg PUBLIC "-//W3C//DTD SVG 1.1//EN"
 "http://www.w3.org/Graphics/SVG/1.1/DTD/svg11.dtd">
<!-- Generated by graphviz version 2.44.0 ()
 -->
<!-- Title: libs/JSystem/JUtility/JUTPalette.cpp Pages: 1 -->
<svg width="630pt" height="274pt"
 viewBox="0.00 0.00 629.50 274.00" xmlns="http://www.w3.org/2000/svg" xmlns:xlink="http://www.w3.org/1999/xlink">
<g id="graph0" class="graph" transform="scale(1 1) rotate(0) translate(4 270)">
<title>libs/JSystem/JUtility/JUTPalette.cpp</title>
<polygon fill="white" stroke="transparent" points="-4,4 -4,-270 625.5,-270 625.5,4 -4,4"/>
<!-- Node1 -->
<g id="node1" class="node">
<title>Node1</title>
<g id="a_node1"><a xlink:title=" ">
<polygon fill="#bfbfbf" stroke="black" points="333.5,-235.5 333.5,-265.5 439.5,-265.5 439.5,-235.5 333.5,-235.5"/>
<text text-anchor="start" x="341.5" y="-253.5" font-family="Helvetica,sans-Serif" font-size="10.00">libs/JSystem/JUtility</text>
<text text-anchor="middle" x="386.5" y="-242.5" font-family="Helvetica,sans-Serif" font-size="10.00">/JUTPalette.cpp</text>
</a>
</g>
</g>
<!-- Node2 -->
<g id="node2" class="node">
<title>Node2</title>
<g id="a_node2"><a xlink:href="JUTPalette_8h.html" target="_top" xlink:title=" ">
<polygon fill="white" stroke="black" points="261.5,-179.5 261.5,-198.5 409.5,-198.5 409.5,-179.5 261.5,-179.5"/>
<text text-anchor="middle" x="335.5" y="-186.5" font-family="Helvetica,sans-Serif" font-size="10.00">JSystem/JUtility/JUTPalette.h</text>
</a>
</g>
</g>
<!-- Node1&#45;&gt;Node2 -->
<g id="edge1" class="edge">
<title>Node1&#45;&gt;Node2</title>
<path fill="none" stroke="midnightblue" d="M374.41,-235.4C366.93,-226.66 357.28,-215.41 349.47,-206.3"/>
<polygon fill="midnightblue" stroke="midnightblue" points="352.09,-203.97 342.92,-198.66 346.77,-208.53 352.09,-203.97"/>
</g>
<!-- Node7 -->
<g id="node7" class="node">
<title>Node7</title>
<g id="a_node7"><a xlink:href="OS_8h.html" target="_top" xlink:title=" ">
<polygon fill="white" stroke="black" points="408.5,-123.5 408.5,-142.5 494.5,-142.5 494.5,-123.5 408.5,-123.5"/>
<text text-anchor="middle" x="451.5" y="-130.5" font-family="Helvetica,sans-Serif" font-size="10.00">dolphin/os/OS.h</text>
</a>
</g>
</g>
<!-- Node1&#45;&gt;Node7 -->
<g id="edge9" class="edge">
<title>Node1&#45;&gt;Node7</title>
<path fill="none" stroke="midnightblue" d="M396.11,-235.14C402.67,-225.15 411.42,-211.45 418.5,-199 427.39,-183.38 436.57,-165.08 442.99,-151.89"/>
<polygon fill="midnightblue" stroke="midnightblue" points="446.3,-153.08 447.48,-142.55 439.99,-150.04 446.3,-153.08"/>
</g>
<!-- Node3 -->
<g id="node3" class="node">
<title>Node3</title>
<g id="a_node3"><a xlink:href="GX_8h.html" target="_top" xlink:title=" ">
<polygon fill="white" stroke="black" points="163,-123.5 163,-142.5 248,-142.5 248,-123.5 163,-123.5"/>
<text text-anchor="middle" x="205.5" y="-130.5" font-family="Helvetica,sans-Serif" font-size="10.00">dolphin/gx/GX.h</text>
</a>
</g>
</g>
<!-- Node2&#45;&gt;Node3 -->
<g id="edge2" class="edge">
<title>Node2&#45;&gt;Node3</title>
<path fill="none" stroke="midnightblue" d="M314.9,-179.44C293.51,-170.56 259.82,-156.56 235.48,-146.45"/>
<polygon fill="midnightblue" stroke="midnightblue" points="236.58,-143.12 226,-142.52 233.89,-149.58 236.58,-143.12"/>
</g>
<!-- Node5 -->
<g id="node5" class="node">
<title>Node5</title>
<g id="a_node5"><a xlink:href="types_8h.html" target="_top" xlink:title=" ">
<polygon fill="white" stroke="black" points="295,-0.5 295,-19.5 376,-19.5 376,-0.5 295,-0.5"/>
<text text-anchor="middle" x="335.5" y="-7.5" font-family="Helvetica,sans-Serif" font-size="10.00">dolphin/types.h</text>
</a>
</g>
</g>
<!-- Node2&#45;&gt;Node5 -->
<g id="edge8" class="edge">
<title>Node2&#45;&gt;Node5</title>
<path fill="none" stroke="midnightblue" d="M335.5,-179.46C335.5,-152.43 335.5,-68.24 335.5,-30.11"/>
<polygon fill="midnightblue" stroke="midnightblue" points="339,-29.87 335.5,-19.87 332,-29.87 339,-29.87"/>
</g>
<!-- Node4 -->
<g id="node4" class="node">
<title>Node4</title>
<g id="a_node4"><a xlink:href="GXDisplayList_8h.html" target="_top" xlink:title=" ">
<polygon fill="white" stroke="black" points="0,-62 0,-81 133,-81 133,-62 0,-62"/>
<text text-anchor="middle" x="66.5" y="-69" font-family="Helvetica,sans-Serif" font-size="10.00">dolphin/gx/GXDisplayList.h</text>
</a>
</g>
</g>
<!-- Node3&#45;&gt;Node4 -->
<g id="edge3" class="edge">
<title>Node3&#45;&gt;Node4</title>
<path fill="none" stroke="midnightblue" d="M185.58,-123.48C162.05,-113.4 122.69,-96.55 95.71,-85"/>
<polygon fill="midnightblue" stroke="midnightblue" points="96.95,-81.73 86.38,-81.01 94.19,-88.16 96.95,-81.73"/>
</g>
<!-- Node3&#45;&gt;Node5 -->
<g id="edge7" class="edge">
<title>Node3&#45;&gt;Node5</title>
<path fill="none" stroke="midnightblue" d="M197.83,-123.18C185.65,-108.08 164.82,-76.88 180.5,-56 193.18,-39.11 244.66,-26.51 284.86,-19"/>
<polygon fill="midnightblue" stroke="midnightblue" points="285.58,-22.43 294.8,-17.21 284.34,-15.54 285.58,-22.43"/>
</g>
<!-- Node6 -->
<g id="node6" class="node">
<title>Node6</title>
<g id="a_node6"><a xlink:href="GXTexture_8h.html" target="_top" xlink:title=" ">
<polygon fill="white" stroke="black" points="190,-62 190,-81 307,-81 307,-62 190,-62"/>
<text text-anchor="middle" x="248.5" y="-69" font-family="Helvetica,sans-Serif" font-size="10.00">dolphin/gx/GXTexture.h</text>
</a>
</g>
</g>
<!-- Node3&#45;&gt;Node6 -->
<g id="edge5" class="edge">
<title>Node3&#45;&gt;Node6</title>
<path fill="none" stroke="midnightblue" d="M211.66,-123.48C218.11,-114.55 228.4,-100.31 236.47,-89.14"/>
<polygon fill="midnightblue" stroke="midnightblue" points="239.33,-91.16 242.35,-81.01 233.66,-87.06 239.33,-91.16"/>
</g>
<!-- Node4&#45;&gt;Node5 -->
<g id="edge4" class="edge">
<title>Node4&#45;&gt;Node5</title>
<path fill="none" stroke="midnightblue" d="M105.04,-61.98C152.98,-51.37 234.86,-33.26 287.01,-21.72"/>
<polygon fill="midnightblue" stroke="midnightblue" points="288.02,-25.09 297.03,-19.51 286.51,-18.25 288.02,-25.09"/>
</g>
<!-- Node6&#45;&gt;Node5 -->
<g id="edge6" class="edge">
<title>Node6&#45;&gt;Node5</title>
<path fill="none" stroke="midnightblue" d="M260.96,-61.98C274.92,-52.43 297.76,-36.81 314.49,-25.37"/>
<polygon fill="midnightblue" stroke="midnightblue" points="316.78,-28.04 323.06,-19.51 312.83,-22.27 316.78,-28.04"/>
</g>
<!-- Node7&#45;&gt;Node5 -->
<g id="edge12" class="edge">
<title>Node7&#45;&gt;Node5</title>
<path fill="none" stroke="midnightblue" d="M438,-123.3C425.47,-114.86 406.65,-101.27 392.5,-87 374.25,-68.6 356.92,-44.15 346.27,-28.01"/>
<polygon fill="midnightblue" stroke="midnightblue" points="349.18,-26.07 340.81,-19.58 343.3,-29.87 349.18,-26.07"/>
</g>
<!-- Node8 -->
<g id="node8" class="node">
<title>Node8</title>
<g id="a_node8"><a xlink:href="____va__arg_8h.html" target="_top" xlink:title=" ">
<polygon fill="white" stroke="black" points="401.5,-56.5 401.5,-86.5 511.5,-86.5 511.5,-56.5 401.5,-56.5"/>
<text text-anchor="start" x="409.5" y="-74.5" font-family="Helvetica,sans-Serif" font-size="10.00">Runtime.PPCEABI.H/</text>
<text text-anchor="middle" x="456.5" y="-63.5" font-family="Helvetica,sans-Serif" font-size="10.00">__va_arg.h</text>
</a>
</g>
</g>
<!-- Node7&#45;&gt;Node8 -->
<g id="edge10" class="edge">
<title>Node7&#45;&gt;Node8</title>
<path fill="none" stroke="midnightblue" d="M452.22,-123.48C452.8,-116.47 453.67,-106.19 454.47,-96.7"/>
<polygon fill="midnightblue" stroke="midnightblue" points="457.97,-96.78 455.32,-86.52 451,-96.19 457.97,-96.78"/>
</g>
<!-- Node9 -->
<g id="node9" class="node">
<title>Node9</title>
<g id="a_node9"><a xlink:href="dvd_8h.html" target="_top" xlink:title=" ">
<polygon fill="white" stroke="black" points="529.5,-62 529.5,-81 621.5,-81 621.5,-62 529.5,-62"/>
<text text-anchor="middle" x="575.5" y="-69" font-family="Helvetica,sans-Serif" font-size="10.00">dolphin/dvd/dvd.h</text>
</a>
</g>
</g>
<!-- Node7&#45;&gt;Node9 -->
<g id="edge13" class="edge">
<title>Node7&#45;&gt;Node9</title>
<path fill="none" stroke="midnightblue" d="M469.27,-123.48C489.98,-113.53 524.45,-96.99 548.49,-85.46"/>
<polygon fill="midnightblue" stroke="midnightblue" points="550.27,-88.49 557.77,-81.01 547.24,-82.18 550.27,-88.49"/>
</g>
<!-- Node8&#45;&gt;Node5 -->
<g id="edge11" class="edge">
<title>Node8&#45;&gt;Node5</title>
<path fill="none" stroke="midnightblue" d="M427.82,-56.4C407.98,-46.64 381.74,-33.74 362.31,-24.18"/>
<polygon fill="midnightblue" stroke="midnightblue" points="363.62,-20.93 353.11,-19.66 360.54,-27.21 363.62,-20.93"/>
</g>
<!-- Node9&#45;&gt;Node5 -->
<g id="edge14" class="edge">
<title>Node9&#45;&gt;Node5</title>
<path fill="none" stroke="midnightblue" d="M543.54,-61.96C535.99,-59.98 527.97,-57.89 520.5,-56 473.2,-44.01 418.93,-30.89 381.46,-21.92"/>
<polygon fill="midnightblue" stroke="midnightblue" points="381.9,-18.43 371.36,-19.51 380.27,-25.24 381.9,-18.43"/>
</g>
</g>
</svg>
