<?xml version="1.0" encoding="UTF-8" standalone="no"?>
<!DOCTYPE svg PUBLIC "-//W3C//DTD SVG 1.1//EN"
 "http://www.w3.org/Graphics/SVG/1.1/DTD/svg11.dtd">
<!-- Generated by graphviz version 2.44.0 ()
 -->
<!-- Title: libs/JSystem/JUtility/JUTPalette.cpp Pages: 1 -->
<svg width="502pt" height="263pt"
 viewBox="0.00 0.00 501.50 263.00" xmlns="http://www.w3.org/2000/svg" xmlns:xlink="http://www.w3.org/1999/xlink">
<g id="graph0" class="graph" transform="scale(1 1) rotate(0) translate(4 259)">
<title>libs/JSystem/JUtility/JUTPalette.cpp</title>
<polygon fill="white" stroke="transparent" points="-4,4 -4,-259 497.5,-259 497.5,4 -4,4"/>
<!-- Node1 -->
<g id="node1" class="node">
<title>Node1</title>
<g id="a_node1"><a xlink:title=" ">
<polygon fill="#bfbfbf" stroke="black" points="317.5,-224.5 317.5,-254.5 423.5,-254.5 423.5,-224.5 317.5,-224.5"/>
<text text-anchor="start" x="325.5" y="-242.5" font-family="Helvetica,sans-Serif" font-size="10.00">libs/JSystem/JUtility</text>
<text text-anchor="middle" x="370.5" y="-231.5" font-family="Helvetica,sans-Serif" font-size="10.00">/JUTPalette.cpp</text>
</a>
</g>
</g>
<!-- Node2 -->
<g id="node2" class="node">
<title>Node2</title>
<g id="a_node2"><a xlink:href="JUTPalette_8h.html" target="_top" xlink:title=" ">
<polygon fill="white" stroke="black" points="245.5,-168.5 245.5,-187.5 393.5,-187.5 393.5,-168.5 245.5,-168.5"/>
<text text-anchor="middle" x="319.5" y="-175.5" font-family="Helvetica,sans-Serif" font-size="10.00">JSystem/JUtility/JUTPalette.h</text>
</a>
</g>
</g>
<!-- Node1&#45;&gt;Node2 -->
<g id="edge1" class="edge">
<title>Node1&#45;&gt;Node2</title>
<path fill="none" stroke="midnightblue" d="M358.41,-224.4C350.93,-215.66 341.28,-204.41 333.47,-195.3"/>
<polygon fill="midnightblue" stroke="midnightblue" points="336.09,-192.97 326.92,-187.66 330.77,-197.53 336.09,-192.97"/>
</g>
<!-- Node7 -->
<g id="node7" class="node">
<title>Node7</title>
<g id="a_node7"><a xlink:href="OS_8h.html" target="_top" xlink:title=" ">
<polygon fill="white" stroke="black" points="378.5,-112.5 378.5,-131.5 464.5,-131.5 464.5,-112.5 378.5,-112.5"/>
<text text-anchor="middle" x="421.5" y="-119.5" font-family="Helvetica,sans-Serif" font-size="10.00">dolphin/os/OS.h</text>
</a>
</g>
</g>
<!-- Node1&#45;&gt;Node7 -->
<g id="edge9" class="edge">
<title>Node1&#45;&gt;Node7</title>
<path fill="none" stroke="midnightblue" d="M381.17,-224.09C388.02,-214.31 396.68,-200.86 402.5,-188 409.31,-172.93 414.37,-154.81 417.55,-141.53"/>
<polygon fill="midnightblue" stroke="midnightblue" points="420.98,-142.21 419.78,-131.69 414.16,-140.67 420.98,-142.21"/>
</g>
<!-- Node3 -->
<g id="node3" class="node">
<title>Node3</title>
<g id="a_node3"><a xlink:href="GX_8h.html" target="_top" xlink:title=" ">
<polygon fill="white" stroke="black" points="163,-112.5 163,-131.5 248,-131.5 248,-112.5 163,-112.5"/>
<text text-anchor="middle" x="205.5" y="-119.5" font-family="Helvetica,sans-Serif" font-size="10.00">dolphin/gx/GX.h</text>
</a>
</g>
</g>
<!-- Node2&#45;&gt;Node3 -->
<g id="edge2" class="edge">
<title>Node2&#45;&gt;Node3</title>
<path fill="none" stroke="midnightblue" d="M301.44,-168.44C282.93,-159.68 253.92,-145.94 232.64,-135.86"/>
<polygon fill="midnightblue" stroke="midnightblue" points="234.01,-132.63 223.48,-131.52 231.02,-138.96 234.01,-132.63"/>
</g>
<!-- Node5 -->
<g id="node5" class="node">
<title>Node5</title>
<g id="a_node5"><a xlink:href="types_8h.html" target="_top" xlink:title=" ">
<polygon fill="white" stroke="black" points="251,-0.5 251,-19.5 332,-19.5 332,-0.5 251,-0.5"/>
<text text-anchor="middle" x="291.5" y="-7.5" font-family="Helvetica,sans-Serif" font-size="10.00">dolphin/types.h</text>
</a>
</g>
</g>
<!-- Node2&#45;&gt;Node5 -->
<g id="edge8" class="edge">
<title>Node2&#45;&gt;Node5</title>
<path fill="none" stroke="midnightblue" d="M320.54,-168.3C322.66,-148.13 326.42,-96.81 315.5,-56 312.9,-46.29 307.88,-36.34 303.11,-28.27"/>
<polygon fill="midnightblue" stroke="midnightblue" points="306.06,-26.39 297.77,-19.79 300.14,-30.12 306.06,-26.39"/>
</g>
<!-- Node4 -->
<g id="node4" class="node">
<title>Node4</title>
<g id="a_node4"><a xlink:href="GXDisplayList_8h.html" target="_top" xlink:title=" ">
<polygon fill="white" stroke="black" points="0,-56.5 0,-75.5 133,-75.5 133,-56.5 0,-56.5"/>
<text text-anchor="middle" x="66.5" y="-63.5" font-family="Helvetica,sans-Serif" font-size="10.00">dolphin/gx/GXDisplayList.h</text>
</a>
</g>
</g>
<!-- Node3&#45;&gt;Node4 -->
<g id="edge3" class="edge">
<title>Node3&#45;&gt;Node4</title>
<path fill="none" stroke="midnightblue" d="M183.48,-112.44C160.4,-103.48 123.94,-89.31 97.86,-79.18"/>
<polygon fill="midnightblue" stroke="midnightblue" points="99.01,-75.88 88.42,-75.52 96.48,-82.4 99.01,-75.88"/>
</g>
<!-- Node3&#45;&gt;Node5 -->
<g id="edge7" class="edge">
<title>Node3&#45;&gt;Node5</title>
<path fill="none" stroke="midnightblue" d="M197.36,-112.42C186.03,-99.4 168.21,-74.25 180.5,-56 194.11,-35.79 218.51,-24.66 240.98,-18.52"/>
<polygon fill="midnightblue" stroke="midnightblue" points="241.91,-21.9 250.78,-16.11 240.24,-15.1 241.91,-21.9"/>
</g>
<!-- Node6 -->
<g id="node6" class="node">
<title>Node6</title>
<g id="a_node6"><a xlink:href="GXTexture_8h.html" target="_top" xlink:title=" ">
<polygon fill="white" stroke="black" points="190,-56.5 190,-75.5 307,-75.5 307,-56.5 190,-56.5"/>
<text text-anchor="middle" x="248.5" y="-63.5" font-family="Helvetica,sans-Serif" font-size="10.00">dolphin/gx/GXTexture.h</text>
</a>
</g>
</g>
<!-- Node3&#45;&gt;Node6 -->
<g id="edge5" class="edge">
<title>Node3&#45;&gt;Node6</title>
<path fill="none" stroke="midnightblue" d="M212.6,-112.08C218.74,-104.38 227.77,-93.03 235.24,-83.65"/>
<polygon fill="midnightblue" stroke="midnightblue" points="238.04,-85.75 241.53,-75.75 232.56,-81.39 238.04,-85.75"/>
</g>
<!-- Node4&#45;&gt;Node5 -->
<g id="edge4" class="edge">
<title>Node4&#45;&gt;Node5</title>
<path fill="none" stroke="midnightblue" d="M102.15,-56.44C141.16,-47.08 203.77,-32.06 246.22,-21.87"/>
<polygon fill="midnightblue" stroke="midnightblue" points="247.11,-25.25 256.01,-19.52 245.47,-18.45 247.11,-25.25"/>
</g>
<!-- Node6&#45;&gt;Node5 -->
<g id="edge6" class="edge">
<title>Node6&#45;&gt;Node5</title>
<path fill="none" stroke="midnightblue" d="M255.6,-56.08C261.74,-48.38 270.77,-37.03 278.24,-27.65"/>
<polygon fill="midnightblue" stroke="midnightblue" points="281.04,-29.75 284.53,-19.75 275.56,-25.39 281.04,-29.75"/>
</g>
<!-- Node7&#45;&gt;Node5 -->
<g id="edge10" class="edge">
<title>Node7&#45;&gt;Node5</title>
<path fill="none" stroke="midnightblue" d="M412.38,-112.36C398.89,-99.69 372.74,-75.46 349.5,-56 337.04,-45.57 322.61,-34.36 311.25,-25.75"/>
<polygon fill="midnightblue" stroke="midnightblue" points="313.35,-22.94 303.26,-19.72 309.13,-28.53 313.35,-22.94"/>
</g>
<!-- Node8 -->
<g id="node8" class="node">
<title>Node8</title>
<g id="a_node8"><a xlink:href="dvd_8h.html" target="_top" xlink:title=" ">
<polygon fill="white" stroke="black" points="401.5,-56.5 401.5,-75.5 493.5,-75.5 493.5,-56.5 401.5,-56.5"/>
<text text-anchor="middle" x="447.5" y="-63.5" font-family="Helvetica,sans-Serif" font-size="10.00">dolphin/dvd/dvd.h</text>
</a>
</g>
</g>
<!-- Node7&#45;&gt;Node8 -->
<g id="edge11" class="edge">
<title>Node7&#45;&gt;Node8</title>
<path fill="none" stroke="midnightblue" d="M425.79,-112.08C429.35,-104.69 434.52,-93.95 438.92,-84.81"/>
<polygon fill="midnightblue" stroke="midnightblue" points="442.1,-86.28 443.29,-75.75 435.79,-83.24 442.1,-86.28"/>
</g>
<!-- Node8&#45;&gt;Node5 -->
<g id="edge12" class="edge">
<title>Node8&#45;&gt;Node5</title>
<path fill="none" stroke="midnightblue" d="M422.78,-56.44C396.65,-47.4 355.24,-33.06 325.92,-22.92"/>
<polygon fill="midnightblue" stroke="midnightblue" points="326.7,-19.48 316.1,-19.52 324.41,-26.1 326.7,-19.48"/>
</g>
</g>
</svg>
