<?xml version="1.0" encoding="UTF-8" standalone="no"?>
<!DOCTYPE svg PUBLIC "-//W3C//DTD SVG 1.1//EN"
 "http://www.w3.org/Graphics/SVG/1.1/DTD/svg11.dtd">
<!-- Generated by graphviz version 2.44.0 ()
 -->
<!-- Title: include/JSystem/JUtility/JUTTexture.h Pages: 1 -->
<!--zoomable 642 -->
<svg id="main" version="1.1" xmlns="http://www.w3.org/2000/svg" xmlns:xlink="http://www.w3.org/1999/xlink" xml:space="preserve" onload="init(evt)">
<style type="text/css"><![CDATA[
.edge:hover path { stroke: red; }
.edge:hover polygon { stroke: red; fill: red; }
]]></style>
<script type="text/javascript"><![CDATA[
var edges = document.getElementsByTagName('g');
if (edges && edges.length) {
  for (var i=0;i<edges.length;i++) {
    if (edges[i].id.substr(0,4)=='edge') {
      edges[i].setAttribute('class','edge');
    }
  }
}
]]></script>
        <defs>
                <circle id="rim" cx="0" cy="0" r="7"/>
                <circle id="rim2" cx="0" cy="0" r="3.5"/>
                <g id="zoomPlus">
                        <use xlink:href="#rim" fill="#404040">
                                <set attributeName="fill" to="#808080" begin="zoomplus.mouseover" end="zoomplus.mouseout"/>
                        </use>
                        <path d="M-4,0h8M0,-4v8" fill="none" stroke="white" stroke-width="1.5" pointer-events="none"/>
                </g>
                <g id="zoomMin">
                        <use xlink:href="#rim" fill="#404040">
                                <set attributeName="fill" to="#808080" begin="zoomminus.mouseover" end="zoomminus.mouseout"/>
                        </use>
                        <path d="M-4,0h8" fill="none" stroke="white" stroke-width="1.5" pointer-events="none"/>
                </g>
                <g id="dirArrow">
                        <path fill="none" stroke="white" stroke-width="1.5" d="M0,-3.0v7 M-2.5,-0.5L0,-3.0L2.5,-0.5"/>
                </g>
               <g id="resetDef">
                       <use xlink:href="#rim2" fill="#404040">
                               <set attributeName="fill" to="#808080" begin="reset.mouseover" end="reset.mouseout"/>
                       </use>
               </g>
        </defs>

<script type="text/javascript">
var viewWidth = 1849;
var viewHeight = 642;
var sectionId = 'dynsection-1';
</script>
<script xlink:href="svgpan.js"/>
<svg id="graph" class="graph">
<g id="viewport">
<title>include/JSystem/JUtility/JUTTexture.h</title>
<polygon fill="white" stroke="transparent" points="-4,4 -4,-638 1844.5,-638 1844.5,4 -4,4"/>
<!-- Node1 -->
<g id="node1" class="node">
<title>Node1</title>
<g id="a_node1"><a xlink:title=" ">
<polygon fill="#bfbfbf" stroke="black" points="913,-603.5 913,-633.5 1035,-633.5 1035,-603.5 913,-603.5"/>
<text text-anchor="start" x="921" y="-621.5" font-family="Helvetica,sans-Serif" font-size="10.00">include/JSystem/JUtility</text>
<text text-anchor="middle" x="974" y="-610.5" font-family="Helvetica,sans-Serif" font-size="10.00">/JUTTexture.h</text>
</a>
</g>
</g>
<!-- Node2 -->
<g id="node2" class="node">
<title>Node2</title>
<g id="a_node2"><a xlink:href="JUTTexture_8cpp.html" target="_top" xlink:title=" ">
<polygon fill="white" stroke="black" points="720,-536.5 720,-566.5 826,-566.5 826,-536.5 720,-536.5"/>
<text text-anchor="start" x="728" y="-554.5" font-family="Helvetica,sans-Serif" font-size="10.00">libs/JSystem/JUtility</text>
<text text-anchor="middle" x="773" y="-543.5" font-family="Helvetica,sans-Serif" font-size="10.00">/JUTTexture.cpp</text>
</a>
</g>
</g>
<!-- Node1&#45;&gt;Node2 -->
<g id="edge1" class="edge">
<title>Node1&#45;&gt;Node2</title>
<path fill="none" stroke="midnightblue" d="M920.59,-600.23C888.07,-589.71 847.06,-576.45 816.53,-566.58"/>
<polygon fill="midnightblue" stroke="midnightblue" points="919.79,-603.65 930.39,-603.4 921.95,-596.99 919.79,-603.65"/>
</g>
<!-- Node3 -->
<g id="node3" class="node">
<title>Node3</title>
<g id="a_node3"><a xlink:href="d__a__player_8h.html" target="_top" xlink:title=" ">
<polygon fill="white" stroke="black" points="523.5,-475 523.5,-494 644.5,-494 644.5,-475 523.5,-475"/>
<text text-anchor="middle" x="584" y="-482" font-family="Helvetica,sans-Serif" font-size="10.00">include/d/a/d_a_player.h</text>
</a>
</g>
</g>
<!-- Node1&#45;&gt;Node3 -->
<g id="edge2" class="edge">
<title>Node1&#45;&gt;Node3</title>
<path fill="none" stroke="midnightblue" d="M932.04,-599.07C913.43,-590.26 891.59,-579.02 873,-567 854.7,-555.17 854.71,-545.31 835,-536 774.01,-507.18 697.13,-494.79 644.63,-489.47"/>
<polygon fill="midnightblue" stroke="midnightblue" points="930.62,-602.27 941.16,-603.32 933.58,-595.93 930.62,-602.27"/>
</g>
<!-- Node28 -->
<g id="node28" class="node">
<title>Node28</title>
<g id="a_node28"><a xlink:href="d__eye__hl_8h.html" target="_top" xlink:title=" ">
<polygon fill="white" stroke="black" points="882,-542 882,-561 986,-561 986,-542 882,-542"/>
<text text-anchor="middle" x="934" y="-549" font-family="Helvetica,sans-Serif" font-size="10.00">include/d/d_eye_hl.h</text>
</a>
</g>
</g>
<!-- Node1&#45;&gt;Node28 -->
<g id="edge36" class="edge">
<title>Node1&#45;&gt;Node28</title>
<path fill="none" stroke="midnightblue" d="M959.93,-594.63C952.81,-583.07 944.59,-569.71 939.35,-561.19"/>
<polygon fill="midnightblue" stroke="midnightblue" points="957.1,-596.71 965.32,-603.4 963.06,-593.05 957.1,-596.71"/>
</g>
<!-- Node30 -->
<g id="node30" class="node">
<title>Node30</title>
<g id="a_node30"><a xlink:href="d__meter2__info_8h.html" target="_top" xlink:title=" ">
<polygon fill="white" stroke="black" points="943.5,-268.5 943.5,-298.5 1070.5,-298.5 1070.5,-268.5 943.5,-268.5"/>
<text text-anchor="start" x="951.5" y="-286.5" font-family="Helvetica,sans-Serif" font-size="10.00">include/d/meter/d_meter2</text>
<text text-anchor="middle" x="1007" y="-275.5" font-family="Helvetica,sans-Serif" font-size="10.00">_info.h</text>
</a>
</g>
</g>
<!-- Node1&#45;&gt;Node30 -->
<g id="edge39" class="edge">
<title>Node1&#45;&gt;Node30</title>
<path fill="none" stroke="midnightblue" d="M985.74,-593.92C997.54,-568.01 1014,-524.82 1014,-485.5 1014,-485.5 1014,-485.5 1014,-416.5 1014,-373.59 1010.26,-322.93 1008.25,-298.75"/>
<polygon fill="midnightblue" stroke="midnightblue" points="982.43,-592.74 981.34,-603.28 988.76,-595.72 982.43,-592.74"/>
</g>
<!-- Node33 -->
<g id="node33" class="node">
<title>Node33</title>
<g id="a_node33"><a xlink:href="J2DPicture_8h.html" target="_top" xlink:title=" ">
<polygon fill="white" stroke="black" points="1042.5,-402.5 1042.5,-432.5 1177.5,-432.5 1177.5,-402.5 1042.5,-402.5"/>
<text text-anchor="start" x="1050.5" y="-420.5" font-family="Helvetica,sans-Serif" font-size="10.00">include/JSystem/J2DGraph</text>
<text text-anchor="middle" x="1110" y="-409.5" font-family="Helvetica,sans-Serif" font-size="10.00">/J2DPicture.h</text>
</a>
</g>
</g>
<!-- Node1&#45;&gt;Node33 -->
<g id="edge48" class="edge">
<title>Node1&#45;&gt;Node33</title>
<path fill="none" stroke="midnightblue" d="M999.43,-596.73C1009.05,-588.13 1019.68,-577.68 1028,-567 1062.93,-522.16 1091.8,-460.52 1103.89,-432.91"/>
<polygon fill="midnightblue" stroke="midnightblue" points="996.91,-594.28 991.65,-603.48 1001.5,-599.57 996.91,-594.28"/>
</g>
<!-- Node35 -->
<g id="node35" class="node">
<title>Node35</title>
<g id="a_node35"><a xlink:href="J2DPane_8h.html" target="_top" xlink:title=" ">
<polygon fill="white" stroke="black" points="1194.5,-536.5 1194.5,-566.5 1329.5,-566.5 1329.5,-536.5 1194.5,-536.5"/>
<text text-anchor="start" x="1202.5" y="-554.5" font-family="Helvetica,sans-Serif" font-size="10.00">include/JSystem/J2DGraph</text>
<text text-anchor="middle" x="1262" y="-543.5" font-family="Helvetica,sans-Serif" font-size="10.00">/J2DPane.h</text>
</a>
</g>
</g>
<!-- Node1&#45;&gt;Node35 -->
<g id="edge50" class="edge">
<title>Node1&#45;&gt;Node35</title>
<path fill="none" stroke="midnightblue" d="M1044.96,-601.49C1092.32,-590.8 1154.02,-576.87 1199.52,-566.6"/>
<polygon fill="midnightblue" stroke="midnightblue" points="1044.06,-598.1 1035.08,-603.72 1045.6,-604.93 1044.06,-598.1"/>
</g>
<!-- Node4 -->
<g id="node4" class="node">
<title>Node4</title>
<g id="a_node4"><a xlink:href="d__a__player_8cpp.html" target="_top" xlink:title=" ">
<polygon fill="white" stroke="black" points="590,-408 590,-427 704,-427 704,-408 590,-408"/>
<text text-anchor="middle" x="647" y="-415" font-family="Helvetica,sans-Serif" font-size="10.00">src/d/a/d_a_player.cpp</text>
</a>
</g>
</g>
<!-- Node3&#45;&gt;Node4 -->
<g id="edge3" class="edge">
<title>Node3&#45;&gt;Node4</title>
<path fill="none" stroke="midnightblue" d="M599.51,-467.5C611.87,-454.75 628.69,-437.39 638.64,-427.13"/>
<polygon fill="midnightblue" stroke="midnightblue" points="596.94,-465.12 592.5,-474.73 601.97,-469.99 596.94,-465.12"/>
</g>
<!-- Node5 -->
<g id="node5" class="node">
<title>Node5</title>
<g id="a_node5"><a xlink:href="d__a__alink_8h.html" target="_top" xlink:title=" ">
<polygon fill="white" stroke="black" points="563,-207 563,-226 679,-226 679,-207 563,-207"/>
<text text-anchor="middle" x="621" y="-214" font-family="Helvetica,sans-Serif" font-size="10.00">include/d/a/d_a_alink.h</text>
</a>
</g>
</g>
<!-- Node3&#45;&gt;Node5 -->
<g id="edge4" class="edge">
<title>Node3&#45;&gt;Node5</title>
<path fill="none" stroke="midnightblue" d="M625.26,-471.91C651.6,-463.43 685.77,-450.39 713,-433 773.46,-394.39 792.63,-369.99 803,-299 804.99,-285.37 811.34,-278.97 803,-268 787.92,-248.16 726.58,-234.08 679.24,-225.91"/>
<polygon fill="midnightblue" stroke="midnightblue" points="624.09,-468.61 615.59,-474.93 626.17,-475.29 624.09,-468.61"/>
</g>
<!-- Node15 -->
<g id="node15" class="node">
<title>Node15</title>
<g id="a_node15"><a xlink:href="d__bg__s__acch_8h.html" target="_top" xlink:title=" ">
<polygon fill="white" stroke="black" points="468,-402.5 468,-432.5 572,-432.5 572,-402.5 468,-402.5"/>
<text text-anchor="start" x="476" y="-420.5" font-family="Helvetica,sans-Serif" font-size="10.00">include/d/bg/d_bg_s</text>
<text text-anchor="middle" x="520" y="-409.5" font-family="Helvetica,sans-Serif" font-size="10.00">_acch.h</text>
</a>
</g>
</g>
<!-- Node3&#45;&gt;Node15 -->
<g id="edge16" class="edge">
<title>Node3&#45;&gt;Node15</title>
<path fill="none" stroke="midnightblue" d="M568.05,-467.3C557.55,-456.63 543.93,-442.8 533.87,-432.59"/>
<polygon fill="midnightblue" stroke="midnightblue" points="565.86,-470.06 575.37,-474.73 570.85,-465.15 565.86,-470.06"/>
</g>
<!-- Node25 -->
<g id="node25" class="node">
<title>Node25</title>
<g id="a_node25"><a xlink:href="d__attention_8h.html" target="_top" xlink:title=" ">
<polygon fill="white" stroke="black" points="139,-274 139,-293 253,-293 253,-274 139,-274"/>
<text text-anchor="middle" x="196" y="-281" font-family="Helvetica,sans-Serif" font-size="10.00">include/d/d_attention.h</text>
</a>
</g>
</g>
<!-- Node3&#45;&gt;Node25 -->
<g id="edge29" class="edge">
<title>Node3&#45;&gt;Node25</title>
<path fill="none" stroke="midnightblue" d="M512.97,-474.49C437.96,-461.76 319.86,-432.18 241,-366 217.1,-345.95 203.66,-309.81 198.49,-293.23"/>
<polygon fill="midnightblue" stroke="midnightblue" points="512.83,-478.01 523.26,-476.18 513.96,-471.1 512.83,-478.01"/>
</g>
<!-- Node27 -->
<g id="node27" class="node">
<title>Node27</title>
<g id="a_node27"><a xlink:href="d__event_8h.html" target="_top" xlink:title=" ">
<polygon fill="white" stroke="black" points="0,-207 0,-226 128,-226 128,-207 0,-207"/>
<text text-anchor="middle" x="64" y="-214" font-family="Helvetica,sans-Serif" font-size="10.00">include/d/event/d_event.h</text>
</a>
</g>
</g>
<!-- Node3&#45;&gt;Node27 -->
<g id="edge33" class="edge">
<title>Node3&#45;&gt;Node27</title>
<path fill="none" stroke="midnightblue" d="M513.08,-481.06C452.7,-476.69 364.88,-464.84 295,-433 185.2,-382.97 93.52,-259.78 69.91,-226.12"/>
<polygon fill="midnightblue" stroke="midnightblue" points="513.07,-484.56 523.28,-481.74 513.53,-477.58 513.07,-484.56"/>
</g>
<!-- Node6 -->
<g id="node6" class="node">
<title>Node6</title>
<g id="a_node6"><a xlink:href="d__a__alink_8cpp.html" target="_top" xlink:title=" ">
<polygon fill="white" stroke="black" points="510.5,-73 510.5,-92 619.5,-92 619.5,-73 510.5,-73"/>
<text text-anchor="middle" x="565" y="-80" font-family="Helvetica,sans-Serif" font-size="10.00">src/d/a/d_a_alink.cpp</text>
</a>
</g>
</g>
<!-- Node5&#45;&gt;Node6 -->
<g id="edge5" class="edge">
<title>Node5&#45;&gt;Node6</title>
<path fill="none" stroke="midnightblue" d="M613.38,-197.54C601.15,-168.72 577.61,-113.22 568.62,-92.02"/>
<polygon fill="midnightblue" stroke="midnightblue" points="610.2,-199 617.33,-206.84 616.64,-196.27 610.2,-199"/>
</g>
<!-- Node7 -->
<g id="node7" class="node">
<title>Node7</title>
<g id="a_node7"><a xlink:href="d__com__inf__game_8h.html" target="_top" xlink:title=" ">
<polygon fill="white" stroke="black" points="387,-134.5 387,-164.5 497,-164.5 497,-134.5 387,-134.5"/>
<text text-anchor="start" x="395" y="-152.5" font-family="Helvetica,sans-Serif" font-size="10.00">include/d/com/d_com</text>
<text text-anchor="middle" x="442" y="-141.5" font-family="Helvetica,sans-Serif" font-size="10.00">_inf_game.h</text>
</a>
</g>
</g>
<!-- Node5&#45;&gt;Node7 -->
<g id="edge6" class="edge">
<title>Node5&#45;&gt;Node7</title>
<path fill="none" stroke="midnightblue" d="M587.53,-203.35C557.19,-192.33 512.48,-176.09 480.63,-164.53"/>
<polygon fill="midnightblue" stroke="midnightblue" points="586.64,-206.75 597.23,-206.87 589.03,-200.17 586.64,-206.75"/>
</g>
<!-- Node7&#45;&gt;Node6 -->
<g id="edge8" class="edge">
<title>Node7&#45;&gt;Node6</title>
<path fill="none" stroke="midnightblue" d="M477.69,-129.64C501.22,-117.2 530.91,-101.51 548.9,-92.01"/>
<polygon fill="midnightblue" stroke="midnightblue" points="475.9,-126.63 468.69,-134.4 479.17,-132.82 475.9,-126.63"/>
</g>
<!-- Node8 -->
<g id="node8" class="node">
<title>Node8</title>
<g id="a_node8"><a xlink:href="d__com__inf__game_8cpp.html" target="_top" xlink:title=" ">
<polygon fill="white" stroke="black" points="391,-0.5 391,-30.5 499,-30.5 499,-0.5 391,-0.5"/>
<text text-anchor="start" x="399" y="-18.5" font-family="Helvetica,sans-Serif" font-size="10.00">src/d/com/d_com_inf</text>
<text text-anchor="middle" x="445" y="-7.5" font-family="Helvetica,sans-Serif" font-size="10.00">_game.cpp</text>
</a>
</g>
</g>
<!-- Node7&#45;&gt;Node8 -->
<g id="edge7" class="edge">
<title>Node7&#45;&gt;Node8</title>
<path fill="none" stroke="midnightblue" d="M376.7,-144.62C302.42,-137.7 196.36,-118.69 237,-67 255.81,-43.08 335.66,-29.1 390.76,-22.13"/>
<polygon fill="midnightblue" stroke="midnightblue" points="376.68,-148.13 386.95,-145.52 377.29,-141.16 376.68,-148.13"/>
</g>
<!-- Node9 -->
<g id="node9" class="node">
<title>Node9</title>
<g id="a_node9"><a xlink:href="d__event_8cpp.html" target="_top" xlink:title=" ">
<polygon fill="white" stroke="black" points="53.5,-73 53.5,-92 174.5,-92 174.5,-73 53.5,-73"/>
<text text-anchor="middle" x="114" y="-80" font-family="Helvetica,sans-Serif" font-size="10.00">src/d/event/d_event.cpp</text>
</a>
</g>
</g>
<!-- Node7&#45;&gt;Node9 -->
<g id="edge9" class="edge">
<title>Node7&#45;&gt;Node9</title>
<path fill="none" stroke="midnightblue" d="M376.55,-135.53C311.27,-122.59 212.87,-103.09 156.92,-92.01"/>
<polygon fill="midnightblue" stroke="midnightblue" points="376.24,-139.04 386.73,-137.55 377.6,-132.17 376.24,-139.04"/>
</g>
<!-- Node10 -->
<g id="node10" class="node">
<title>Node10</title>
<g id="a_node10"><a xlink:href="d__meter2__info_8cpp.html" target="_top" xlink:title=" ">
<polygon fill="white" stroke="black" points="638,-67.5 638,-97.5 748,-97.5 748,-67.5 638,-67.5"/>
<text text-anchor="start" x="646" y="-85.5" font-family="Helvetica,sans-Serif" font-size="10.00">src/d/meter/d_meter2</text>
<text text-anchor="middle" x="693" y="-74.5" font-family="Helvetica,sans-Serif" font-size="10.00">_info.cpp</text>
</a>
</g>
</g>
<!-- Node7&#45;&gt;Node10 -->
<g id="edge10" class="edge">
<title>Node7&#45;&gt;Node10</title>
<path fill="none" stroke="midnightblue" d="M506.04,-131.92C547,-121.31 599.56,-107.7 638.51,-97.61"/>
<polygon fill="midnightblue" stroke="midnightblue" points="504.96,-128.58 496.15,-134.48 506.71,-135.36 504.96,-128.58"/>
</g>
<!-- Node11 -->
<g id="node11" class="node">
<title>Node11</title>
<g id="a_node11"><a xlink:href="d__msg__flow_8cpp.html" target="_top" xlink:title=" ">
<polygon fill="white" stroke="black" points="246.5,-73 246.5,-92 379.5,-92 379.5,-73 246.5,-73"/>
<text text-anchor="middle" x="313" y="-80" font-family="Helvetica,sans-Serif" font-size="10.00">src/d/msg/d_msg_flow.cpp</text>
</a>
</g>
</g>
<!-- Node7&#45;&gt;Node11 -->
<g id="edge11" class="edge">
<title>Node7&#45;&gt;Node11</title>
<path fill="none" stroke="midnightblue" d="M404.89,-129.8C380.16,-117.34 348.83,-101.56 329.88,-92.01"/>
<polygon fill="midnightblue" stroke="midnightblue" points="403.5,-133.02 414.01,-134.4 406.65,-126.77 403.5,-133.02"/>
</g>
<!-- Node12 -->
<g id="node12" class="node">
<title>Node12</title>
<g id="a_node12"><a xlink:href="d__save_8cpp.html" target="_top" xlink:title=" ">
<polygon fill="white" stroke="black" points="766.5,-73 766.5,-92 881.5,-92 881.5,-73 766.5,-73"/>
<text text-anchor="middle" x="824" y="-80" font-family="Helvetica,sans-Serif" font-size="10.00">src/d/save/d_save.cpp</text>
</a>
</g>
</g>
<!-- Node7&#45;&gt;Node12 -->
<g id="edge12" class="edge">
<title>Node7&#45;&gt;Node12</title>
<path fill="none" stroke="midnightblue" d="M506.99,-139.13C570.81,-129.68 670.85,-114.22 757,-98 766.47,-96.22 776.66,-94.11 786.16,-92.06"/>
<polygon fill="midnightblue" stroke="midnightblue" points="506.45,-135.67 497.07,-140.6 507.47,-142.6 506.45,-135.67"/>
</g>
<!-- Node13 -->
<g id="node13" class="node">
<title>Node13</title>
<g id="a_node13"><a xlink:href="d__item_8h.html" target="_top" xlink:title=" ">
<polygon fill="white" stroke="black" points="397.5,-73 397.5,-92 492.5,-92 492.5,-73 397.5,-73"/>
<text text-anchor="middle" x="445" y="-80" font-family="Helvetica,sans-Serif" font-size="10.00">include/d/d_item.h</text>
</a>
</g>
</g>
<!-- Node7&#45;&gt;Node13 -->
<g id="edge13" class="edge">
<title>Node7&#45;&gt;Node13</title>
<path fill="none" stroke="midnightblue" d="M443.12,-124.25C443.64,-113.02 444.22,-100.38 444.6,-92.19"/>
<polygon fill="midnightblue" stroke="midnightblue" points="439.62,-124.25 442.65,-134.4 446.61,-124.57 439.62,-124.25"/>
</g>
<!-- Node13&#45;&gt;Node8 -->
<g id="edge14" class="edge">
<title>Node13&#45;&gt;Node8</title>
<path fill="none" stroke="midnightblue" d="M445,-62.41C445,-52.22 445,-39.9 445,-30.59"/>
<polygon fill="midnightblue" stroke="midnightblue" points="441.5,-62.73 445,-72.73 448.5,-62.73 441.5,-62.73"/>
</g>
<!-- Node14 -->
<g id="node14" class="node">
<title>Node14</title>
<g id="a_node14"><a xlink:href="d__item_8cpp.html" target="_top" xlink:title=" ">
<polygon fill="white" stroke="black" points="798.5,-6 798.5,-25 887.5,-25 887.5,-6 798.5,-6"/>
<text text-anchor="middle" x="843" y="-13" font-family="Helvetica,sans-Serif" font-size="10.00">src/d/d_item.cpp</text>
</a>
</g>
</g>
<!-- Node13&#45;&gt;Node14 -->
<g id="edge15" class="edge">
<title>Node13&#45;&gt;Node14</title>
<path fill="none" stroke="midnightblue" d="M485.5,-70.47C490.7,-69.21 495.96,-68.02 501,-67 606.88,-45.54 732.95,-29.29 798.47,-21.54"/>
<polygon fill="midnightblue" stroke="midnightblue" points="484.52,-67.11 475.67,-72.93 486.22,-73.9 484.52,-67.11"/>
</g>
<!-- Node16 -->
<g id="node16" class="node">
<title>Node16</title>
<g id="a_node16"><a xlink:href="d__bg__s__acch_8cpp.html" target="_top" xlink:title=" ">
<polygon fill="white" stroke="black" points="250.5,-341 250.5,-360 381.5,-360 381.5,-341 250.5,-341"/>
<text text-anchor="middle" x="316" y="-348" font-family="Helvetica,sans-Serif" font-size="10.00">src/d/bg/d_bg_s_acch.cpp</text>
</a>
</g>
</g>
<!-- Node15&#45;&gt;Node16 -->
<g id="edge17" class="edge">
<title>Node15&#45;&gt;Node16</title>
<path fill="none" stroke="midnightblue" d="M466.43,-399.43C426.64,-386.75 374.06,-370 342.77,-360.03"/>
<polygon fill="midnightblue" stroke="midnightblue" points="465.4,-402.77 475.99,-402.48 467.52,-396.11 465.4,-402.77"/>
</g>
<!-- Node17 -->
<g id="node17" class="node">
<title>Node17</title>
<g id="a_node17"><a xlink:href="d__bg__w_8h.html" target="_top" xlink:title=" ">
<polygon fill="white" stroke="black" points="399.5,-341 399.5,-360 512.5,-360 512.5,-341 399.5,-341"/>
<text text-anchor="middle" x="456" y="-348" font-family="Helvetica,sans-Serif" font-size="10.00">include/d/bg/d_bg_w.h</text>
</a>
</g>
</g>
<!-- Node15&#45;&gt;Node17 -->
<g id="edge18" class="edge">
<title>Node15&#45;&gt;Node17</title>
<path fill="none" stroke="midnightblue" d="M498.83,-395C487.15,-383.13 473.28,-369.05 464.56,-360.19"/>
<polygon fill="midnightblue" stroke="midnightblue" points="496.6,-397.73 506.11,-402.4 501.59,-392.81 496.6,-397.73"/>
</g>
<!-- Node21 -->
<g id="node21" class="node">
<title>Node21</title>
<g id="a_node21"><a xlink:href="d__bomb_8h.html" target="_top" xlink:title=" ">
<polygon fill="white" stroke="black" points="673.5,-341 673.5,-360 774.5,-360 774.5,-341 673.5,-341"/>
<text text-anchor="middle" x="724" y="-348" font-family="Helvetica,sans-Serif" font-size="10.00">include/d/d_bomb.h</text>
</a>
</g>
</g>
<!-- Node15&#45;&gt;Node21 -->
<g id="edge24" class="edge">
<title>Node15&#45;&gt;Node21</title>
<path fill="none" stroke="midnightblue" d="M573.57,-399.43C613.36,-386.75 665.94,-370 697.23,-360.03"/>
<polygon fill="midnightblue" stroke="midnightblue" points="572.48,-396.11 564.01,-402.48 574.6,-402.77 572.48,-396.11"/>
</g>
<!-- Node23 -->
<g id="node23" class="node">
<title>Node23</title>
<g id="a_node23"><a xlink:href="d__particle__copoly_8h.html" target="_top" xlink:title=" ">
<polygon fill="white" stroke="black" points="534,-335.5 534,-365.5 636,-365.5 636,-335.5 534,-335.5"/>
<text text-anchor="start" x="542" y="-353.5" font-family="Helvetica,sans-Serif" font-size="10.00">include/d/particle</text>
<text text-anchor="middle" x="585" y="-342.5" font-family="Helvetica,sans-Serif" font-size="10.00">/d_particle_copoly.h</text>
</a>
</g>
</g>
<!-- Node15&#45;&gt;Node23 -->
<g id="edge26" class="edge">
<title>Node15&#45;&gt;Node23</title>
<path fill="none" stroke="midnightblue" d="M541.19,-395.31C550.94,-385.56 562.24,-374.26 570.92,-365.58"/>
<polygon fill="midnightblue" stroke="midnightblue" points="538.7,-392.85 534.1,-402.4 543.65,-397.8 538.7,-392.85"/>
</g>
<!-- Node18 -->
<g id="node18" class="node">
<title>Node18</title>
<g id="a_node18"><a xlink:href="d__bg__w_8cpp.html" target="_top" xlink:title=" ">
<polygon fill="white" stroke="black" points="400.5,-274 400.5,-293 507.5,-293 507.5,-274 400.5,-274"/>
<text text-anchor="middle" x="454" y="-281" font-family="Helvetica,sans-Serif" font-size="10.00">src/d/bg/d_bg_w.cpp</text>
</a>
</g>
</g>
<!-- Node17&#45;&gt;Node18 -->
<g id="edge19" class="edge">
<title>Node17&#45;&gt;Node18</title>
<path fill="none" stroke="midnightblue" d="M455.42,-330.54C455.04,-318.17 454.56,-302.62 454.27,-293.13"/>
<polygon fill="midnightblue" stroke="midnightblue" points="451.92,-330.85 455.73,-340.73 458.92,-330.63 451.92,-330.85"/>
</g>
<!-- Node19 -->
<g id="node19" class="node">
<title>Node19</title>
<g id="a_node19"><a xlink:href="d__bg__s_8h.html" target="_top" xlink:title=" ">
<polygon fill="white" stroke="black" points="271.5,-274 271.5,-293 382.5,-293 382.5,-274 271.5,-274"/>
<text text-anchor="middle" x="327" y="-281" font-family="Helvetica,sans-Serif" font-size="10.00">include/d/bg/d_bg_s.h</text>
</a>
</g>
</g>
<!-- Node17&#45;&gt;Node19 -->
<g id="edge20" class="edge">
<title>Node17&#45;&gt;Node19</title>
<path fill="none" stroke="midnightblue" d="M429.75,-336.27C404.2,-323.4 366.11,-304.21 344.2,-293.17"/>
<polygon fill="midnightblue" stroke="midnightblue" points="428.36,-339.49 438.87,-340.87 431.51,-333.24 428.36,-339.49"/>
</g>
<!-- Node19&#45;&gt;Node5 -->
<g id="edge22" class="edge">
<title>Node19&#45;&gt;Node5</title>
<path fill="none" stroke="midnightblue" d="M374.48,-271.71C380.05,-270.45 385.65,-269.19 391,-268 457.83,-253.09 535.67,-236.07 581.5,-226.09"/>
<polygon fill="midnightblue" stroke="midnightblue" points="373.54,-268.33 364.55,-273.95 375.08,-275.16 373.54,-268.33"/>
</g>
<!-- Node19&#45;&gt;Node7 -->
<g id="edge23" class="edge">
<title>Node19&#45;&gt;Node7</title>
<path fill="none" stroke="midnightblue" d="M366.81,-270.43C386.48,-262.51 408.95,-250.19 423,-232 438.28,-212.22 441.6,-182.23 442.14,-164.68"/>
<polygon fill="midnightblue" stroke="midnightblue" points="365.55,-267.16 357.43,-273.97 368.02,-273.71 365.55,-267.16"/>
</g>
<!-- Node20 -->
<g id="node20" class="node">
<title>Node20</title>
<g id="a_node20"><a xlink:href="d__bg__s_8cpp.html" target="_top" xlink:title=" ">
<polygon fill="white" stroke="black" points="310,-207 310,-226 414,-226 414,-207 310,-207"/>
<text text-anchor="middle" x="362" y="-214" font-family="Helvetica,sans-Serif" font-size="10.00">src/d/bg/d_bg_s.cpp</text>
</a>
</g>
</g>
<!-- Node19&#45;&gt;Node20 -->
<g id="edge21" class="edge">
<title>Node19&#45;&gt;Node20</title>
<path fill="none" stroke="midnightblue" d="M336.6,-264.66C343.35,-252.13 352.09,-235.91 357.35,-226.13"/>
<polygon fill="midnightblue" stroke="midnightblue" points="333.38,-263.27 331.72,-273.73 339.54,-266.59 333.38,-263.27"/>
</g>
<!-- Node22 -->
<g id="node22" class="node">
<title>Node22</title>
<g id="a_node22"><a xlink:href="d__bomb_8cpp.html" target="_top" xlink:title=" ">
<polygon fill="white" stroke="black" points="700,-274 700,-293 794,-293 794,-274 700,-274"/>
<text text-anchor="middle" x="747" y="-281" font-family="Helvetica,sans-Serif" font-size="10.00">src/d/d_bomb.cpp</text>
</a>
</g>
</g>
<!-- Node21&#45;&gt;Node22 -->
<g id="edge25" class="edge">
<title>Node21&#45;&gt;Node22</title>
<path fill="none" stroke="midnightblue" d="M730.44,-331.29C734.86,-318.81 740.52,-302.81 743.95,-293.13"/>
<polygon fill="midnightblue" stroke="midnightblue" points="727.14,-330.14 727.1,-340.73 733.74,-332.47 727.14,-330.14"/>
</g>
<!-- Node23&#45;&gt;Node5 -->
<g id="edge28" class="edge">
<title>Node23&#45;&gt;Node5</title>
<path fill="none" stroke="midnightblue" d="M623.9,-329.86C635.41,-321.96 646.63,-311.67 653,-299 665.84,-273.47 642.56,-241.48 629.29,-226.29"/>
<polygon fill="midnightblue" stroke="midnightblue" points="621.68,-327.13 615.12,-335.44 625.43,-333.03 621.68,-327.13"/>
</g>
<!-- Node24 -->
<g id="node24" class="node">
<title>Node24</title>
<g id="a_node24"><a xlink:href="d__particle__copoly_8cpp.html" target="_top" xlink:title=" ">
<polygon fill="white" stroke="black" points="526,-268.5 526,-298.5 644,-298.5 644,-268.5 526,-268.5"/>
<text text-anchor="start" x="534" y="-286.5" font-family="Helvetica,sans-Serif" font-size="10.00">src/d/particle/d_particle</text>
<text text-anchor="middle" x="585" y="-275.5" font-family="Helvetica,sans-Serif" font-size="10.00">_copoly.cpp</text>
</a>
</g>
</g>
<!-- Node23&#45;&gt;Node24 -->
<g id="edge27" class="edge">
<title>Node23&#45;&gt;Node24</title>
<path fill="none" stroke="midnightblue" d="M585,-325.11C585,-316.15 585,-306.32 585,-298.58"/>
<polygon fill="midnightblue" stroke="midnightblue" points="581.5,-325.4 585,-335.4 588.5,-325.4 581.5,-325.4"/>
</g>
<!-- Node25&#45;&gt;Node5 -->
<g id="edge31" class="edge">
<title>Node25&#45;&gt;Node5</title>
<path fill="none" stroke="midnightblue" d="M242.62,-271.79C249.11,-270.44 255.71,-269.13 262,-268 367.62,-249 491.79,-232.91 562.96,-224.28"/>
<polygon fill="midnightblue" stroke="midnightblue" points="241.6,-268.43 232.56,-273.95 243.07,-275.28 241.6,-268.43"/>
</g>
<!-- Node25&#45;&gt;Node7 -->
<g id="edge32" class="edge">
<title>Node25&#45;&gt;Node7</title>
<path fill="none" stroke="midnightblue" d="M215.57,-267.68C228.74,-257.66 246.47,-244.11 262,-232 279.46,-218.38 281.65,-211.77 301,-201 329.06,-185.39 362.86,-173.08 390.34,-164.53"/>
<polygon fill="midnightblue" stroke="midnightblue" points="213.11,-265.15 207.26,-273.98 217.34,-270.73 213.11,-265.15"/>
</g>
<!-- Node26 -->
<g id="node26" class="node">
<title>Node26</title>
<g id="a_node26"><a xlink:href="d__attention_8cpp.html" target="_top" xlink:title=" ">
<polygon fill="white" stroke="black" points="146.5,-207 146.5,-226 253.5,-226 253.5,-207 146.5,-207"/>
<text text-anchor="middle" x="200" y="-214" font-family="Helvetica,sans-Serif" font-size="10.00">src/d/d_attention.cpp</text>
</a>
</g>
</g>
<!-- Node25&#45;&gt;Node26 -->
<g id="edge30" class="edge">
<title>Node25&#45;&gt;Node26</title>
<path fill="none" stroke="midnightblue" d="M197.17,-263.54C197.93,-251.17 198.88,-235.62 199.47,-226.13"/>
<polygon fill="midnightblue" stroke="midnightblue" points="193.66,-263.54 196.54,-273.73 200.65,-263.97 193.66,-263.54"/>
</g>
<!-- Node27&#45;&gt;Node7 -->
<g id="edge35" class="edge">
<title>Node27&#45;&gt;Node7</title>
<path fill="none" stroke="midnightblue" d="M115.9,-204.98C122.99,-203.6 130.17,-202.24 137,-201 224.13,-185.14 325.65,-168.74 386.81,-159.09"/>
<polygon fill="midnightblue" stroke="midnightblue" points="114.79,-201.63 105.65,-206.99 116.13,-208.5 114.79,-201.63"/>
</g>
<!-- Node27&#45;&gt;Node9 -->
<g id="edge34" class="edge">
<title>Node27&#45;&gt;Node9</title>
<path fill="none" stroke="midnightblue" d="M70.95,-197.16C81.9,-168.23 102.78,-113.13 110.77,-92.02"/>
<polygon fill="midnightblue" stroke="midnightblue" points="67.55,-196.25 67.28,-206.84 74.1,-198.73 67.55,-196.25"/>
</g>
<!-- Node28&#45;&gt;Node5 -->
<g id="edge38" class="edge">
<title>Node28&#45;&gt;Node5</title>
<path fill="none" stroke="midnightblue" d="M912.2,-535.55C900.67,-526.54 887.23,-514.09 879,-500 860.24,-467.88 860,-455.69 860,-418.5 860,-418.5 860,-418.5 860,-349.5 860,-309.15 851.34,-293.42 820,-268 780.14,-235.66 722.16,-223.73 679.05,-219.47"/>
<polygon fill="midnightblue" stroke="midnightblue" points="910.42,-538.58 920.53,-541.74 914.59,-532.97 910.42,-538.58"/>
</g>
<!-- Node29 -->
<g id="node29" class="node">
<title>Node29</title>
<g id="a_node29"><a xlink:href="d__eye__hl_8cpp.html" target="_top" xlink:title=" ">
<polygon fill="white" stroke="black" points="888,-475 888,-494 986,-494 986,-475 888,-475"/>
<text text-anchor="middle" x="937" y="-482" font-family="Helvetica,sans-Serif" font-size="10.00">src/d/d_eye_hl.cpp</text>
</a>
</g>
</g>
<!-- Node28&#45;&gt;Node29 -->
<g id="edge37" class="edge">
<title>Node28&#45;&gt;Node29</title>
<path fill="none" stroke="midnightblue" d="M934.88,-531.54C935.45,-519.17 936.16,-503.62 936.6,-494.13"/>
<polygon fill="midnightblue" stroke="midnightblue" points="931.37,-531.58 934.4,-541.73 938.36,-531.91 931.37,-531.58"/>
</g>
<!-- Node30&#45;&gt;Node5 -->
<g id="edge44" class="edge">
<title>Node30&#45;&gt;Node5</title>
<path fill="none" stroke="midnightblue" d="M933.18,-270.07C856.43,-257.15 738.36,-237.26 671.58,-226.02"/>
<polygon fill="midnightblue" stroke="midnightblue" points="932.82,-273.56 943.26,-271.77 933.98,-266.65 932.82,-273.56"/>
</g>
<!-- Node30&#45;&gt;Node8 -->
<g id="edge40" class="edge">
<title>Node30&#45;&gt;Node8</title>
<path fill="none" stroke="midnightblue" d="M971.06,-262.78C959.05,-254.65 946.57,-244.23 938,-232 894.18,-169.45 948.4,-116.22 890,-67 860.61,-42.23 611.1,-25.59 499.07,-19.31"/>
<polygon fill="midnightblue" stroke="midnightblue" points="969.34,-265.84 979.65,-268.3 973.13,-259.95 969.34,-265.84"/>
</g>
<!-- Node30&#45;&gt;Node10 -->
<g id="edge42" class="edge">
<title>Node30&#45;&gt;Node10</title>
<path fill="none" stroke="midnightblue" d="M944.71,-265.37C919.66,-257.14 891.06,-245.98 867,-232 799.7,-192.9 733.46,-126.62 706.1,-97.7"/>
<polygon fill="midnightblue" stroke="midnightblue" points="943.89,-268.78 954.49,-268.49 946.03,-262.11 943.89,-268.78"/>
</g>
<!-- Node30&#45;&gt;Node12 -->
<g id="edge43" class="edge">
<title>Node30&#45;&gt;Node12</title>
<path fill="none" stroke="midnightblue" d="M948.3,-264.67C929.88,-256.9 910.58,-246.23 896,-232 852.94,-189.98 832.07,-116.97 825.97,-92.09"/>
<polygon fill="midnightblue" stroke="midnightblue" points="947.23,-268.01 957.82,-268.47 949.83,-261.51 947.23,-268.01"/>
</g>
<!-- Node30&#45;&gt;Node14 -->
<g id="edge41" class="edge">
<title>Node30&#45;&gt;Node14</title>
<path fill="none" stroke="midnightblue" d="M1041.18,-262.69C1053.34,-254.39 1066.39,-243.89 1076,-232 1104.64,-196.58 1130.78,-172.22 1106,-134 1057.5,-59.21 949.03,-31.6 887.62,-21.73"/>
<polygon fill="midnightblue" stroke="midnightblue" points="1039,-259.93 1032.54,-268.33 1042.82,-265.79 1039,-259.93"/>
</g>
<!-- Node31 -->
<g id="node31" class="node">
<title>Node31</title>
<g id="a_node31"><a xlink:href="d__menu__window_8h.html" target="_top" xlink:title=" ">
<polygon fill="white" stroke="black" points="947,-201.5 947,-231.5 1067,-231.5 1067,-201.5 947,-201.5"/>
<text text-anchor="start" x="955" y="-219.5" font-family="Helvetica,sans-Serif" font-size="10.00">include/d/menu/d_menu</text>
<text text-anchor="middle" x="1007" y="-208.5" font-family="Helvetica,sans-Serif" font-size="10.00">_window.h</text>
</a>
</g>
</g>
<!-- Node30&#45;&gt;Node31 -->
<g id="edge45" class="edge">
<title>Node30&#45;&gt;Node31</title>
<path fill="none" stroke="midnightblue" d="M1000.45,-258.4C1000.01,-249.37 1000.3,-239.41 1001.33,-231.58"/>
<polygon fill="midnightblue" stroke="midnightblue" points="996.97,-258.74 1001.32,-268.4 1003.94,-258.13 996.97,-258.74"/>
</g>
<!-- Node31&#45;&gt;Node30 -->
<g id="edge47" class="edge">
<title>Node31&#45;&gt;Node30</title>
<path fill="none" stroke="midnightblue" d="M1013.54,-241.57C1013.99,-250.6 1013.71,-260.56 1012.68,-268.4"/>
<polygon fill="midnightblue" stroke="midnightblue" points="1017.03,-241.24 1012.67,-231.58 1010.05,-241.84 1017.03,-241.24"/>
</g>
<!-- Node32 -->
<g id="node32" class="node">
<title>Node32</title>
<g id="a_node32"><a xlink:href="d__menu__window_8cpp.html" target="_top" xlink:title=" ">
<polygon fill="white" stroke="black" points="937.5,-140 937.5,-159 1096.5,-159 1096.5,-140 937.5,-140"/>
<text text-anchor="middle" x="1017" y="-147" font-family="Helvetica,sans-Serif" font-size="10.00">src/d/menu/d_menu_window.cpp</text>
</a>
</g>
</g>
<!-- Node31&#45;&gt;Node32 -->
<g id="edge46" class="edge">
<title>Node31&#45;&gt;Node32</title>
<path fill="none" stroke="midnightblue" d="M1010.73,-191.25C1012.46,-180.02 1014.4,-167.38 1015.66,-159.19"/>
<polygon fill="midnightblue" stroke="midnightblue" points="1007.23,-190.98 1009.17,-201.4 1014.15,-192.04 1007.23,-190.98"/>
</g>
<!-- Node34 -->
<g id="node34" class="node">
<title>Node34</title>
<g id="a_node34"><a xlink:href="J2DPicture_8cpp.html" target="_top" xlink:title=" ">
<polygon fill="white" stroke="black" points="1050.5,-335.5 1050.5,-365.5 1169.5,-365.5 1169.5,-335.5 1050.5,-335.5"/>
<text text-anchor="start" x="1058.5" y="-353.5" font-family="Helvetica,sans-Serif" font-size="10.00">libs/JSystem/J2DGraph</text>
<text text-anchor="middle" x="1110" y="-342.5" font-family="Helvetica,sans-Serif" font-size="10.00">/J2DPicture.cpp</text>
</a>
</g>
</g>
<!-- Node33&#45;&gt;Node34 -->
<g id="edge49" class="edge">
<title>Node33&#45;&gt;Node34</title>
<path fill="none" stroke="midnightblue" d="M1110,-392.11C1110,-383.15 1110,-373.32 1110,-365.58"/>
<polygon fill="midnightblue" stroke="midnightblue" points="1106.5,-392.4 1110,-402.4 1113.5,-392.4 1106.5,-392.4"/>
</g>
<!-- Node35&#45;&gt;Node33 -->
<g id="edge53" class="edge">
<title>Node35&#45;&gt;Node33</title>
<path fill="none" stroke="midnightblue" d="M1184.22,-543.64C1155.84,-536.92 1126.45,-524.13 1109,-500 1094.74,-480.28 1100.09,-450.27 1105.14,-432.7"/>
<polygon fill="midnightblue" stroke="midnightblue" points="1183.69,-547.1 1194.2,-545.77 1185.15,-540.26 1183.69,-547.1"/>
</g>
<!-- Node36 -->
<g id="node36" class="node">
<title>Node36</title>
<g id="a_node36"><a xlink:href="f__op__msg__mng_8cpp.html" target="_top" xlink:title=" ">
<polygon fill="white" stroke="black" points="1118,-475 1118,-494 1258,-494 1258,-475 1118,-475"/>
<text text-anchor="middle" x="1188" y="-482" font-family="Helvetica,sans-Serif" font-size="10.00">src/f_op/f_op_msg_mng.cpp</text>
</a>
</g>
</g>
<!-- Node35&#45;&gt;Node36 -->
<g id="edge51" class="edge">
<title>Node35&#45;&gt;Node36</title>
<path fill="none" stroke="midnightblue" d="M1238.29,-529.67C1224.63,-517.67 1208.17,-503.22 1197.9,-494.19"/>
<polygon fill="midnightblue" stroke="midnightblue" points="1236.12,-532.43 1245.94,-536.4 1240.74,-527.17 1236.12,-532.43"/>
</g>
<!-- Node37 -->
<g id="node37" class="node">
<title>Node37</title>
<g id="a_node37"><a xlink:href="J2DPane_8cpp.html" target="_top" xlink:title=" ">
<polygon fill="white" stroke="black" points="1276.5,-469.5 1276.5,-499.5 1395.5,-499.5 1395.5,-469.5 1276.5,-469.5"/>
<text text-anchor="start" x="1284.5" y="-487.5" font-family="Helvetica,sans-Serif" font-size="10.00">libs/JSystem/J2DGraph</text>
<text text-anchor="middle" x="1336" y="-476.5" font-family="Helvetica,sans-Serif" font-size="10.00">/J2DPane.cpp</text>
</a>
</g>
</g>
<!-- Node35&#45;&gt;Node37 -->
<g id="edge52" class="edge">
<title>Node35&#45;&gt;Node37</title>
<path fill="none" stroke="midnightblue" d="M1285.8,-529.6C1296.97,-519.78 1309.99,-508.34 1319.97,-499.58"/>
<polygon fill="midnightblue" stroke="midnightblue" points="1283.26,-527.17 1278.06,-536.4 1287.88,-532.43 1283.26,-527.17"/>
</g>
<!-- Node38 -->
<g id="node38" class="node">
<title>Node38</title>
<g id="a_node38"><a xlink:href="J2DTextBox_8h.html" target="_top" xlink:title=" ">
<polygon fill="white" stroke="black" points="1413.5,-469.5 1413.5,-499.5 1548.5,-499.5 1548.5,-469.5 1413.5,-469.5"/>
<text text-anchor="start" x="1421.5" y="-487.5" font-family="Helvetica,sans-Serif" font-size="10.00">include/JSystem/J2DGraph</text>
<text text-anchor="middle" x="1481" y="-476.5" font-family="Helvetica,sans-Serif" font-size="10.00">/J2DTextBox.h</text>
</a>
</g>
</g>
<!-- Node35&#45;&gt;Node38 -->
<g id="edge54" class="edge">
<title>Node35&#45;&gt;Node38</title>
<path fill="none" stroke="midnightblue" d="M1319.01,-533.58C1354.58,-523.02 1399.83,-509.59 1433.46,-499.61"/>
<polygon fill="midnightblue" stroke="midnightblue" points="1317.84,-530.28 1309.25,-536.48 1319.83,-536.99 1317.84,-530.28"/>
</g>
<!-- Node40 -->
<g id="node40" class="node">
<title>Node40</title>
<g id="a_node40"><a xlink:href="J2DScreen_8h.html" target="_top" xlink:title=" ">
<polygon fill="white" stroke="black" points="1566.5,-469.5 1566.5,-499.5 1701.5,-499.5 1701.5,-469.5 1566.5,-469.5"/>
<text text-anchor="start" x="1574.5" y="-487.5" font-family="Helvetica,sans-Serif" font-size="10.00">include/JSystem/J2DGraph</text>
<text text-anchor="middle" x="1634" y="-476.5" font-family="Helvetica,sans-Serif" font-size="10.00">/J2DScreen.h</text>
</a>
</g>
</g>
<!-- Node35&#45;&gt;Node40 -->
<g id="edge56" class="edge">
<title>Node35&#45;&gt;Node40</title>
<path fill="none" stroke="midnightblue" d="M1339.78,-537.66C1399.52,-527.69 1484.04,-513.36 1558,-500 1560.78,-499.5 1563.61,-498.98 1566.47,-498.46"/>
<polygon fill="midnightblue" stroke="midnightblue" points="1338.95,-534.25 1329.66,-539.34 1340.1,-541.15 1338.95,-534.25"/>
</g>
<!-- Node39 -->
<g id="node39" class="node">
<title>Node39</title>
<g id="a_node39"><a xlink:href="J2DTextBox_8cpp.html" target="_top" xlink:title=" ">
<polygon fill="white" stroke="black" points="1314.5,-402.5 1314.5,-432.5 1433.5,-432.5 1433.5,-402.5 1314.5,-402.5"/>
<text text-anchor="start" x="1322.5" y="-420.5" font-family="Helvetica,sans-Serif" font-size="10.00">libs/JSystem/J2DGraph</text>
<text text-anchor="middle" x="1374" y="-409.5" font-family="Helvetica,sans-Serif" font-size="10.00">/J2DTextBox.cpp</text>
</a>
</g>
</g>
<!-- Node38&#45;&gt;Node39 -->
<g id="edge55" class="edge">
<title>Node38&#45;&gt;Node39</title>
<path fill="none" stroke="midnightblue" d="M1448.92,-464.02C1432.27,-453.9 1412.31,-441.77 1397.17,-432.58"/>
<polygon fill="midnightblue" stroke="midnightblue" points="1447.42,-467.2 1457.78,-469.4 1451.05,-461.21 1447.42,-467.2"/>
</g>
<!-- Node40&#45;&gt;Node33 -->
<g id="edge64" class="edge">
<title>Node40&#45;&gt;Node33</title>
<path fill="none" stroke="midnightblue" d="M1556.06,-468.77C1416.36,-447.91 1263.62,-432.5 1177.76,-424.51"/>
<polygon fill="midnightblue" stroke="midnightblue" points="1555.68,-472.25 1566.09,-470.28 1556.72,-465.33 1555.68,-472.25"/>
</g>
<!-- Node41 -->
<g id="node41" class="node">
<title>Node41</title>
<g id="a_node41"><a xlink:href="d__drawlist_8cpp.html" target="_top" xlink:title=" ">
<polygon fill="white" stroke="black" points="1452,-408 1452,-427 1556,-427 1556,-408 1452,-408"/>
<text text-anchor="middle" x="1504" y="-415" font-family="Helvetica,sans-Serif" font-size="10.00">src/d/d_drawlist.cpp</text>
</a>
</g>
</g>
<!-- Node40&#45;&gt;Node41 -->
<g id="edge57" class="edge">
<title>Node40&#45;&gt;Node41</title>
<path fill="none" stroke="midnightblue" d="M1596.61,-464.8C1571.68,-452.34 1540.11,-436.56 1521.01,-427.01"/>
<polygon fill="midnightblue" stroke="midnightblue" points="1595.28,-468.05 1605.79,-469.4 1598.41,-461.79 1595.28,-468.05"/>
</g>
<!-- Node42 -->
<g id="node42" class="node">
<title>Node42</title>
<g id="a_node42"><a xlink:href="J2DScreen_8cpp.html" target="_top" xlink:title=" ">
<polygon fill="white" stroke="black" points="1574.5,-402.5 1574.5,-432.5 1693.5,-432.5 1693.5,-402.5 1574.5,-402.5"/>
<text text-anchor="start" x="1582.5" y="-420.5" font-family="Helvetica,sans-Serif" font-size="10.00">libs/JSystem/J2DGraph</text>
<text text-anchor="middle" x="1634" y="-409.5" font-family="Helvetica,sans-Serif" font-size="10.00">/J2DScreen.cpp</text>
</a>
</g>
</g>
<!-- Node40&#45;&gt;Node42 -->
<g id="edge58" class="edge">
<title>Node40&#45;&gt;Node42</title>
<path fill="none" stroke="midnightblue" d="M1634,-459.11C1634,-450.15 1634,-440.32 1634,-432.58"/>
<polygon fill="midnightblue" stroke="midnightblue" points="1630.5,-459.4 1634,-469.4 1637.5,-459.4 1630.5,-459.4"/>
</g>
<!-- Node43 -->
<g id="node43" class="node">
<title>Node43</title>
<g id="a_node43"><a xlink:href="d__pane__class__alpha_8h.html" target="_top" xlink:title=" ">
<polygon fill="white" stroke="black" points="1712,-402.5 1712,-432.5 1826,-432.5 1826,-402.5 1712,-402.5"/>
<text text-anchor="start" x="1720" y="-420.5" font-family="Helvetica,sans-Serif" font-size="10.00">include/d/pane/d_pane</text>
<text text-anchor="middle" x="1769" y="-409.5" font-family="Helvetica,sans-Serif" font-size="10.00">_class_alpha.h</text>
</a>
</g>
</g>
<!-- Node40&#45;&gt;Node43 -->
<g id="edge59" class="edge">
<title>Node40&#45;&gt;Node43</title>
<path fill="none" stroke="midnightblue" d="M1672.44,-464.99C1693.84,-454.69 1720.05,-442.07 1739.76,-432.58"/>
<polygon fill="midnightblue" stroke="midnightblue" points="1670.78,-461.9 1663.29,-469.4 1673.82,-468.21 1670.78,-461.9"/>
</g>
<!-- Node44 -->
<g id="node44" class="node">
<title>Node44</title>
<g id="a_node44"><a xlink:href="d__pane__class__alpha_8cpp.html" target="_top" xlink:title=" ">
<polygon fill="white" stroke="black" points="1568.5,-335.5 1568.5,-365.5 1693.5,-365.5 1693.5,-335.5 1568.5,-335.5"/>
<text text-anchor="start" x="1576.5" y="-353.5" font-family="Helvetica,sans-Serif" font-size="10.00">src/d/pane/d_pane_class</text>
<text text-anchor="middle" x="1631" y="-342.5" font-family="Helvetica,sans-Serif" font-size="10.00">_alpha.cpp</text>
</a>
</g>
</g>
<!-- Node43&#45;&gt;Node44 -->
<g id="edge60" class="edge">
<title>Node43&#45;&gt;Node44</title>
<path fill="none" stroke="midnightblue" d="M1730,-398.13C1708.07,-387.8 1681.13,-375.11 1660.89,-365.58"/>
<polygon fill="midnightblue" stroke="midnightblue" points="1728.52,-401.3 1739.06,-402.4 1731.5,-394.97 1728.52,-401.3"/>
</g>
<!-- Node45 -->
<g id="node45" class="node">
<title>Node45</title>
<g id="a_node45"><a xlink:href="d__pane__class_8h.html" target="_top" xlink:title=" ">
<polygon fill="white" stroke="black" points="1712,-335.5 1712,-365.5 1826,-365.5 1826,-335.5 1712,-335.5"/>
<text text-anchor="start" x="1720" y="-353.5" font-family="Helvetica,sans-Serif" font-size="10.00">include/d/pane/d_pane</text>
<text text-anchor="middle" x="1769" y="-342.5" font-family="Helvetica,sans-Serif" font-size="10.00">_class.h</text>
</a>
</g>
</g>
<!-- Node43&#45;&gt;Node45 -->
<g id="edge61" class="edge">
<title>Node43&#45;&gt;Node45</title>
<path fill="none" stroke="midnightblue" d="M1769,-392.11C1769,-383.15 1769,-373.32 1769,-365.58"/>
<polygon fill="midnightblue" stroke="midnightblue" points="1765.5,-392.4 1769,-402.4 1772.5,-392.4 1765.5,-392.4"/>
</g>
<!-- Node45&#45;&gt;Node30 -->
<g id="edge63" class="edge">
<title>Node45&#45;&gt;Node30</title>
<path fill="none" stroke="midnightblue" d="M1701.63,-334.94C1463.77,-301.04 1191.78,-289.69 1070.67,-286.06"/>
<polygon fill="midnightblue" stroke="midnightblue" points="1701.46,-338.46 1711.85,-336.42 1702.46,-331.53 1701.46,-338.46"/>
</g>
<!-- Node46 -->
<g id="node46" class="node">
<title>Node46</title>
<g id="a_node46"><a xlink:href="d__pane__class_8cpp.html" target="_top" xlink:title=" ">
<polygon fill="white" stroke="black" points="1697.5,-274 1697.5,-293 1840.5,-293 1840.5,-274 1697.5,-274"/>
<text text-anchor="middle" x="1769" y="-281" font-family="Helvetica,sans-Serif" font-size="10.00">src/d/pane/d_pane_class.cpp</text>
</a>
</g>
</g>
<!-- Node45&#45;&gt;Node46 -->
<g id="edge62" class="edge">
<title>Node45&#45;&gt;Node46</title>
<path fill="none" stroke="midnightblue" d="M1769,-325.25C1769,-314.02 1769,-301.38 1769,-293.19"/>
<polygon fill="midnightblue" stroke="midnightblue" points="1765.5,-325.4 1769,-335.4 1772.5,-325.4 1765.5,-325.4"/>
</g>
</g>
</svg>
        <g id="navigator" transform="translate(0 0)" fill="#404254">
                <rect fill="#f2f5e9" fill-opacity="0.5" stroke="#606060" stroke-width=".5" x="0" y="0" width="60" height="60"/>
                <use id="zoomplus" xlink:href="#zoomPlus" x="17" y="9" onmousedown="handleZoom(evt,'in')"/>
                <use id="zoomminus" xlink:href="#zoomMin" x="42" y="9" onmousedown="handleZoom(evt,'out')"/>
                <use id="reset" xlink:href="#resetDef" x="30" y="36" onmousedown="handleReset()"/>
                <g id="arrowUp" xlink:href="#dirArrow" transform="translate(30 24)" onmousedown="handlePan(0,-1)">
                  <use xlink:href="#rim" fill="#404040">
                        <set attributeName="fill" to="#808080" begin="arrowUp.mouseover" end="arrowUp.mouseout"/>
                  </use>
                  <path fill="none" stroke="white" stroke-width="1.5" d="M0,-3.0v7 M-2.5,-0.5L0,-3.0L2.5,-0.5"/>
                </g>
                <g id="arrowRight" xlink:href="#dirArrow" transform="rotate(90) translate(36 -43)" onmousedown="handlePan(1,0)">
                  <use xlink:href="#rim" fill="#404040">
                        <set attributeName="fill" to="#808080" begin="arrowRight.mouseover" end="arrowRight.mouseout"/>
                  </use>
                  <path fill="none" stroke="white" stroke-width="1.5" d="M0,-3.0v7 M-2.5,-0.5L0,-3.0L2.5,-0.5"/>
                </g>
                <g id="arrowDown" xlink:href="#dirArrow" transform="rotate(180) translate(-30 -48)" onmousedown="handlePan(0,1)">
                  <use xlink:href="#rim" fill="#404040">
                        <set attributeName="fill" to="#808080" begin="arrowDown.mouseover" end="arrowDown.mouseout"/>
                  </use>
                  <path fill="none" stroke="white" stroke-width="1.5" d="M0,-3.0v7 M-2.5,-0.5L0,-3.0L2.5,-0.5"/>
                </g>
                <g id="arrowLeft" xlink:href="#dirArrow" transform="rotate(270) translate(-36 17)" onmousedown="handlePan(-1,0)">
                  <use xlink:href="#rim" fill="#404040">
                        <set attributeName="fill" to="#808080" begin="arrowLeft.mouseover" end="arrowLeft.mouseout"/>
                  </use>
                  <path fill="none" stroke="white" stroke-width="1.5" d="M0,-3.0v7 M-2.5,-0.5L0,-3.0L2.5,-0.5"/>
                </g>
        </g>
        <svg viewBox="0 0 15 15" width="100%" height="30px" preserveAspectRatio="xMaxYMin meet">
         <g id="arrow_out" transform="scale(0.3 0.3)">
          <a xlink:href="JUTTexture_8h__dep__incl_org.svg" target="_base">
           <rect id="button" ry="5" rx="5" y="6" x="6" height="38" width="38"
                fill="#f2f5e9" fill-opacity="0.5" stroke="#606060" stroke-width="1.0"/>
           <path id="arrow"
             d="M 11.500037,31.436501 C 11.940474,20.09759 22.043105,11.32322 32.158766,21.979434 L 37.068811,17.246167 C 37.068811,17.246167 37.088388,32 37.088388,32 L 22.160133,31.978069 C 22.160133,31.978069 26.997745,27.140456 26.997745,27.140456 C 18.528582,18.264221 13.291696,25.230495 11.500037,31.436501 z"
             style="fill:#404040;"/>
          </a>
         </g>
        </svg>
</svg>
