<?xml version="1.0" encoding="UTF-8" standalone="no"?>
<!DOCTYPE svg PUBLIC "-//W3C//DTD SVG 1.1//EN"
 "http://www.w3.org/Graphics/SVG/1.1/DTD/svg11.dtd">
<!-- Generated by graphviz version 2.44.0 ()
 -->
<!-- Title: libs/JSystem/JUtility/JUTVideo.cpp Pages: 1 -->
<!--zoomable 285 -->
<svg id="main" version="1.1" xmlns="http://www.w3.org/2000/svg" xmlns:xlink="http://www.w3.org/1999/xlink" xml:space="preserve" onload="init(evt)">
<style type="text/css"><![CDATA[
.edge:hover path { stroke: red; }
.edge:hover polygon { stroke: red; fill: red; }
]]></style>
<script type="text/javascript"><![CDATA[
var edges = document.getElementsByTagName('g');
if (edges && edges.length) {
  for (var i=0;i<edges.length;i++) {
    if (edges[i].id.substr(0,4)=='edge') {
      edges[i].setAttribute('class','edge');
    }
  }
}
]]></script>
        <defs>
                <circle id="rim" cx="0" cy="0" r="7"/>
                <circle id="rim2" cx="0" cy="0" r="3.5"/>
                <g id="zoomPlus">
                        <use xlink:href="#rim" fill="#404040">
                                <set attributeName="fill" to="#808080" begin="zoomplus.mouseover" end="zoomplus.mouseout"/>
                        </use>
                        <path d="M-4,0h8M0,-4v8" fill="none" stroke="white" stroke-width="1.5" pointer-events="none"/>
                </g>
                <g id="zoomMin">
                        <use xlink:href="#rim" fill="#404040">
                                <set attributeName="fill" to="#808080" begin="zoomminus.mouseover" end="zoomminus.mouseout"/>
                        </use>
                        <path d="M-4,0h8" fill="none" stroke="white" stroke-width="1.5" pointer-events="none"/>
                </g>
                <g id="dirArrow">
                        <path fill="none" stroke="white" stroke-width="1.5" d="M0,-3.0v7 M-2.5,-0.5L0,-3.0L2.5,-0.5"/>
                </g>
               <g id="resetDef">
                       <use xlink:href="#rim2" fill="#404040">
                               <set attributeName="fill" to="#808080" begin="reset.mouseover" end="reset.mouseout"/>
                       </use>
               </g>
        </defs>

<script type="text/javascript">
var viewWidth = 1336;
var viewHeight = 285;
var sectionId = 'dynsection-0';
</script>
<script xlink:href="svgpan.js"/>
<svg id="graph" class="graph">
<g id="viewport">
<title>libs/JSystem/JUtility/JUTVideo.cpp</title>
<polygon fill="white" stroke="transparent" points="-4,4 -4,-281 1332,-281 1332,4 -4,4"/>
<!-- Node1 -->
<g id="node1" class="node">
<title>Node1</title>
<g id="a_node1"><a xlink:title=" ">
<polygon fill="#bfbfbf" stroke="black" points="713.5,-246.5 713.5,-276.5 819.5,-276.5 819.5,-246.5 713.5,-246.5"/>
<text text-anchor="start" x="721.5" y="-264.5" font-family="Helvetica,sans-Serif" font-size="10.00">libs/JSystem/JUtility</text>
<text text-anchor="middle" x="766.5" y="-253.5" font-family="Helvetica,sans-Serif" font-size="10.00">/JUTVideo.cpp</text>
</a>
</g>
</g>
<!-- Node2 -->
<g id="node2" class="node">
<title>Node2</title>
<g id="a_node2"><a xlink:href="JUTVideo_8h.html" target="_top" xlink:title=" ">
<polygon fill="white" stroke="black" points="335.5,-179.5 335.5,-198.5 477.5,-198.5 477.5,-179.5 335.5,-179.5"/>
<text text-anchor="middle" x="406.5" y="-186.5" font-family="Helvetica,sans-Serif" font-size="10.00">JSystem/JUtility/JUTVideo.h</text>
</a>
</g>
</g>
<!-- Node1&#45;&gt;Node2 -->
<g id="edge1" class="edge">
<title>Node1&#45;&gt;Node2</title>
<path fill="none" stroke="midnightblue" d="M713.38,-250.1C645.38,-236.78 528.24,-213.84 460.04,-200.49"/>
<polygon fill="midnightblue" stroke="midnightblue" points="460.42,-196.99 449.94,-198.51 459.08,-203.86 460.42,-196.99"/>
</g>
<!-- Node5 -->
<g id="node5" class="node">
<title>Node5</title>
<g id="a_node5"><a xlink:href="types_8h.html" target="_top" xlink:title=" ">
<polygon fill="white" stroke="black" points="314,-0.5 314,-19.5 395,-19.5 395,-0.5 314,-0.5"/>
<text text-anchor="middle" x="354.5" y="-7.5" font-family="Helvetica,sans-Serif" font-size="10.00">dolphin/types.h</text>
</a>
</g>
</g>
<!-- Node1&#45;&gt;Node5 -->
<g id="edge16" class="edge">
<title>Node1&#45;&gt;Node5</title>
<path fill="none" stroke="midnightblue" d="M713.49,-257.37C675.32,-252.49 624.88,-240.27 591.5,-210 535.53,-159.25 579.54,-101.86 519.5,-56 486.53,-30.82 440.41,-19.72 405.3,-14.83"/>
<polygon fill="midnightblue" stroke="midnightblue" points="405.61,-11.35 395.25,-13.56 404.73,-18.29 405.61,-11.35"/>
</g>
<!-- Node10 -->
<g id="node10" class="node">
<title>Node10</title>
<g id="a_node10"><a xlink:href="dol2asm_8h.html" target="_top" xlink:title=" ">
<polygon fill="white" stroke="black" points="600,-179.5 600,-198.5 661,-198.5 661,-179.5 600,-179.5"/>
<text text-anchor="middle" x="630.5" y="-186.5" font-family="Helvetica,sans-Serif" font-size="10.00">dol2asm.h</text>
</a>
</g>
</g>
<!-- Node1&#45;&gt;Node10 -->
<g id="edge15" class="edge">
<title>Node1&#45;&gt;Node10</title>
<path fill="none" stroke="midnightblue" d="M739.31,-246.4C715.05,-233.83 679.81,-215.56 656.06,-203.25"/>
<polygon fill="midnightblue" stroke="midnightblue" points="657.45,-200.03 646.96,-198.53 654.23,-206.24 657.45,-200.03"/>
</g>
<!-- Node11 -->
<g id="node11" class="node">
<title>Node11</title>
<g id="a_node11"><a xlink:title=" ">
<polygon fill="white" stroke="#bfbfbf" points="679.5,-168.5 679.5,-209.5 853.5,-209.5 853.5,-168.5 679.5,-168.5"/>
<text text-anchor="start" x="687.5" y="-197.5" font-family="Helvetica,sans-Serif" font-size="10.00">asm/JSystem/JUtility</text>
<text text-anchor="start" x="687.5" y="-186.5" font-family="Helvetica,sans-Serif" font-size="10.00">/JUTVideo/__ct__8JUTVideoFPC16</text>
<text text-anchor="middle" x="766.5" y="-175.5" font-family="Helvetica,sans-Serif" font-size="10.00">_GXRenderModeObj.s</text>
</a>
</g>
</g>
<!-- Node1&#45;&gt;Node11 -->
<g id="edge17" class="edge">
<title>Node1&#45;&gt;Node11</title>
<path fill="none" stroke="midnightblue" d="M766.5,-246.23C766.5,-238.57 766.5,-228.84 766.5,-219.63"/>
<polygon fill="midnightblue" stroke="midnightblue" points="770,-219.59 766.5,-209.59 763,-219.59 770,-219.59"/>
</g>
<!-- Node12 -->
<g id="node12" class="node">
<title>Node12</title>
<g id="a_node12"><a xlink:title=" ">
<polygon fill="white" stroke="#bfbfbf" points="871.5,-168.5 871.5,-209.5 1005.5,-209.5 1005.5,-168.5 871.5,-168.5"/>
<text text-anchor="start" x="879.5" y="-197.5" font-family="Helvetica,sans-Serif" font-size="10.00">asm/JSystem/JUtility</text>
<text text-anchor="start" x="879.5" y="-186.5" font-family="Helvetica,sans-Serif" font-size="10.00">/JUTVideo/preRetraceProc</text>
<text text-anchor="middle" x="938.5" y="-175.5" font-family="Helvetica,sans-Serif" font-size="10.00">__8JUTVideoFUl.s</text>
</a>
</g>
</g>
<!-- Node1&#45;&gt;Node12 -->
<g id="edge18" class="edge">
<title>Node1&#45;&gt;Node12</title>
<path fill="none" stroke="midnightblue" d="M800.89,-246.4C823.86,-236.99 854.61,-224.39 881.22,-213.48"/>
<polygon fill="midnightblue" stroke="midnightblue" points="882.89,-216.58 890.81,-209.55 880.23,-210.1 882.89,-216.58"/>
</g>
<!-- Node13 -->
<g id="node13" class="node">
<title>Node13</title>
<g id="a_node13"><a xlink:title=" ">
<polygon fill="white" stroke="#bfbfbf" points="1024,-168.5 1024,-209.5 1171,-209.5 1171,-168.5 1024,-168.5"/>
<text text-anchor="start" x="1032" y="-197.5" font-family="Helvetica,sans-Serif" font-size="10.00">asm/JSystem/JUtility</text>
<text text-anchor="start" x="1032" y="-186.5" font-family="Helvetica,sans-Serif" font-size="10.00">/JUTVideo/drawDoneCallback</text>
<text text-anchor="middle" x="1097.5" y="-175.5" font-family="Helvetica,sans-Serif" font-size="10.00">__8JUTVideoFv.s</text>
</a>
</g>
</g>
<!-- Node1&#45;&gt;Node13 -->
<g id="edge19" class="edge">
<title>Node1&#45;&gt;Node13</title>
<path fill="none" stroke="midnightblue" d="M819.83,-250.21C867.97,-240.79 940.98,-226.19 1013.94,-210.09"/>
<polygon fill="midnightblue" stroke="midnightblue" points="1014.76,-213.49 1023.77,-207.91 1013.24,-206.66 1014.76,-213.49"/>
</g>
<!-- Node14 -->
<g id="node14" class="node">
<title>Node14</title>
<g id="a_node14"><a xlink:title=" ">
<polygon fill="white" stroke="#bfbfbf" points="1189,-168.5 1189,-209.5 1328,-209.5 1328,-168.5 1189,-168.5"/>
<text text-anchor="start" x="1197" y="-197.5" font-family="Helvetica,sans-Serif" font-size="10.00">asm/JSystem/JUtility</text>
<text text-anchor="start" x="1197" y="-186.5" font-family="Helvetica,sans-Serif" font-size="10.00">/JUTVideo/postRetraceProc</text>
<text text-anchor="middle" x="1258.5" y="-175.5" font-family="Helvetica,sans-Serif" font-size="10.00">__8JUTVideoFUl.s</text>
</a>
</g>
</g>
<!-- Node1&#45;&gt;Node14 -->
<g id="edge20" class="edge">
<title>Node1&#45;&gt;Node14</title>
<path fill="none" stroke="midnightblue" d="M819.77,-256.23C897,-249.54 1044.63,-234.93 1178.81,-210.21"/>
<polygon fill="midnightblue" stroke="midnightblue" points="1179.67,-213.61 1188.86,-208.33 1178.39,-206.73 1179.67,-213.61"/>
</g>
<!-- Node3 -->
<g id="node3" class="node">
<title>Node3</title>
<g id="a_node3"><a xlink:href="GX_8h.html" target="_top" xlink:title=" ">
<polygon fill="white" stroke="black" points="163,-112.5 163,-131.5 248,-131.5 248,-112.5 163,-112.5"/>
<text text-anchor="middle" x="205.5" y="-119.5" font-family="Helvetica,sans-Serif" font-size="10.00">dolphin/gx/GX.h</text>
</a>
</g>
</g>
<!-- Node2&#45;&gt;Node3 -->
<g id="edge2" class="edge">
<title>Node2&#45;&gt;Node3</title>
<path fill="none" stroke="midnightblue" d="M379.81,-179.37C344.27,-167.88 281.29,-147.51 241.55,-134.66"/>
<polygon fill="midnightblue" stroke="midnightblue" points="242.57,-131.31 231.98,-131.56 240.42,-137.97 242.57,-131.31"/>
</g>
<!-- Node2&#45;&gt;Node5 -->
<g id="edge12" class="edge">
<title>Node2&#45;&gt;Node5</title>
<path fill="none" stroke="midnightblue" d="M394.26,-179.35C381.56,-169.54 362.45,-152.25 354.5,-132 341.11,-97.9 345.96,-54.11 350.42,-29.66"/>
<polygon fill="midnightblue" stroke="midnightblue" points="353.9,-30.1 352.43,-19.61 347.03,-28.73 353.9,-30.1"/>
</g>
<!-- Node7 -->
<g id="node7" class="node">
<title>Node7</title>
<g id="a_node7"><a xlink:href="OS_8h.html" target="_top" xlink:title=" ">
<polygon fill="white" stroke="black" points="363.5,-112.5 363.5,-131.5 449.5,-131.5 449.5,-112.5 363.5,-112.5"/>
<text text-anchor="middle" x="406.5" y="-119.5" font-family="Helvetica,sans-Serif" font-size="10.00">dolphin/os/OS.h</text>
</a>
</g>
</g>
<!-- Node2&#45;&gt;Node7 -->
<g id="edge8" class="edge">
<title>Node2&#45;&gt;Node7</title>
<path fill="none" stroke="midnightblue" d="M406.5,-179.23C406.5,-169.68 406.5,-154.12 406.5,-141.78"/>
<polygon fill="midnightblue" stroke="midnightblue" points="410,-141.63 406.5,-131.63 403,-141.63 410,-141.63"/>
</g>
<!-- Node9 -->
<g id="node9" class="node">
<title>Node9</title>
<g id="a_node9"><a xlink:href="vi_8h.html" target="_top" xlink:title=" ">
<polygon fill="white" stroke="black" points="467.5,-112.5 467.5,-131.5 543.5,-131.5 543.5,-112.5 467.5,-112.5"/>
<text text-anchor="middle" x="505.5" y="-119.5" font-family="Helvetica,sans-Serif" font-size="10.00">dolphin/vi/vi.h</text>
</a>
</g>
</g>
<!-- Node2&#45;&gt;Node9 -->
<g id="edge13" class="edge">
<title>Node2&#45;&gt;Node9</title>
<path fill="none" stroke="midnightblue" d="M419.85,-179.23C436.25,-168.46 464.3,-150.05 483.81,-137.24"/>
<polygon fill="midnightblue" stroke="midnightblue" points="485.92,-140.04 492.36,-131.63 482.08,-134.19 485.92,-140.04"/>
</g>
<!-- Node4 -->
<g id="node4" class="node">
<title>Node4</title>
<g id="a_node4"><a xlink:href="GXDisplayList_8h.html" target="_top" xlink:title=" ">
<polygon fill="white" stroke="black" points="0,-56.5 0,-75.5 133,-75.5 133,-56.5 0,-56.5"/>
<text text-anchor="middle" x="66.5" y="-63.5" font-family="Helvetica,sans-Serif" font-size="10.00">dolphin/gx/GXDisplayList.h</text>
</a>
</g>
</g>
<!-- Node3&#45;&gt;Node4 -->
<g id="edge3" class="edge">
<title>Node3&#45;&gt;Node4</title>
<path fill="none" stroke="midnightblue" d="M183.48,-112.44C160.4,-103.48 123.94,-89.31 97.86,-79.18"/>
<polygon fill="midnightblue" stroke="midnightblue" points="99.01,-75.88 88.42,-75.52 96.48,-82.4 99.01,-75.88"/>
</g>
<!-- Node3&#45;&gt;Node5 -->
<g id="edge7" class="edge">
<title>Node3&#45;&gt;Node5</title>
<path fill="none" stroke="midnightblue" d="M197.06,-112.21C185.35,-98.91 167.03,-73.4 180.5,-56 195.55,-36.56 258,-24 303.8,-17.22"/>
<polygon fill="midnightblue" stroke="midnightblue" points="304.47,-20.66 313.87,-15.78 303.48,-13.73 304.47,-20.66"/>
</g>
<!-- Node6 -->
<g id="node6" class="node">
<title>Node6</title>
<g id="a_node6"><a xlink:href="GXTexture_8h.html" target="_top" xlink:title=" ">
<polygon fill="white" stroke="black" points="190,-56.5 190,-75.5 307,-75.5 307,-56.5 190,-56.5"/>
<text text-anchor="middle" x="248.5" y="-63.5" font-family="Helvetica,sans-Serif" font-size="10.00">dolphin/gx/GXTexture.h</text>
</a>
</g>
</g>
<!-- Node3&#45;&gt;Node6 -->
<g id="edge5" class="edge">
<title>Node3&#45;&gt;Node6</title>
<path fill="none" stroke="midnightblue" d="M212.6,-112.08C218.74,-104.38 227.77,-93.03 235.24,-83.65"/>
<polygon fill="midnightblue" stroke="midnightblue" points="238.04,-85.75 241.53,-75.75 232.56,-81.39 238.04,-85.75"/>
</g>
<!-- Node4&#45;&gt;Node5 -->
<g id="edge4" class="edge">
<title>Node4&#45;&gt;Node5</title>
<path fill="none" stroke="midnightblue" d="M112.13,-56.44C164.29,-46.66 249.41,-30.7 303.65,-20.53"/>
<polygon fill="midnightblue" stroke="midnightblue" points="304.55,-23.93 313.74,-18.64 303.26,-17.05 304.55,-23.93"/>
</g>
<!-- Node6&#45;&gt;Node5 -->
<g id="edge6" class="edge">
<title>Node6&#45;&gt;Node5</title>
<path fill="none" stroke="midnightblue" d="M265.53,-56.32C282.53,-47.66 308.88,-34.24 328.49,-24.25"/>
<polygon fill="midnightblue" stroke="midnightblue" points="330.19,-27.31 337.51,-19.65 327.01,-21.08 330.19,-27.31"/>
</g>
<!-- Node7&#45;&gt;Node5 -->
<g id="edge9" class="edge">
<title>Node7&#45;&gt;Node5</title>
<path fill="none" stroke="midnightblue" d="M402.42,-112.37C393.95,-94.46 374.32,-52.92 362.98,-28.95"/>
<polygon fill="midnightblue" stroke="midnightblue" points="366,-27.14 358.56,-19.59 359.67,-30.13 366,-27.14"/>
</g>
<!-- Node8 -->
<g id="node8" class="node">
<title>Node8</title>
<g id="a_node8"><a xlink:href="dvd_8h.html" target="_top" xlink:title=" ">
<polygon fill="white" stroke="black" points="401.5,-56.5 401.5,-75.5 493.5,-75.5 493.5,-56.5 401.5,-56.5"/>
<text text-anchor="middle" x="447.5" y="-63.5" font-family="Helvetica,sans-Serif" font-size="10.00">dolphin/dvd/dvd.h</text>
</a>
</g>
</g>
<!-- Node7&#45;&gt;Node8 -->
<g id="edge10" class="edge">
<title>Node7&#45;&gt;Node8</title>
<path fill="none" stroke="midnightblue" d="M413.27,-112.08C419.06,-104.46 427.56,-93.26 434.64,-83.94"/>
<polygon fill="midnightblue" stroke="midnightblue" points="437.6,-85.83 440.86,-75.75 432.02,-81.6 437.6,-85.83"/>
</g>
<!-- Node8&#45;&gt;Node5 -->
<g id="edge11" class="edge">
<title>Node8&#45;&gt;Node5</title>
<path fill="none" stroke="midnightblue" d="M432.56,-56.32C417.91,-47.82 395.37,-34.73 378.26,-24.8"/>
<polygon fill="midnightblue" stroke="midnightblue" points="379.81,-21.65 369.4,-19.65 376.3,-27.7 379.81,-21.65"/>
</g>
<!-- Node9&#45;&gt;Node5 -->
<g id="edge14" class="edge">
<title>Node9&#45;&gt;Node5</title>
<path fill="none" stroke="midnightblue" d="M507.95,-112.36C511.23,-98.81 515.26,-72.41 502.5,-56 479.72,-26.7 438.4,-15.92 405.2,-12.2"/>
<polygon fill="midnightblue" stroke="midnightblue" points="405.47,-8.71 395.19,-11.26 404.82,-15.68 405.47,-8.71"/>
</g>
</g>
</svg>
        <g id="navigator" transform="translate(0 0)" fill="#404254">
                <rect fill="#f2f5e9" fill-opacity="0.5" stroke="#606060" stroke-width=".5" x="0" y="0" width="60" height="60"/>
                <use id="zoomplus" xlink:href="#zoomPlus" x="17" y="9" onmousedown="handleZoom(evt,'in')"/>
                <use id="zoomminus" xlink:href="#zoomMin" x="42" y="9" onmousedown="handleZoom(evt,'out')"/>
                <use id="reset" xlink:href="#resetDef" x="30" y="36" onmousedown="handleReset()"/>
                <g id="arrowUp" xlink:href="#dirArrow" transform="translate(30 24)" onmousedown="handlePan(0,-1)">
                  <use xlink:href="#rim" fill="#404040">
                        <set attributeName="fill" to="#808080" begin="arrowUp.mouseover" end="arrowUp.mouseout"/>
                  </use>
                  <path fill="none" stroke="white" stroke-width="1.5" d="M0,-3.0v7 M-2.5,-0.5L0,-3.0L2.5,-0.5"/>
                </g>
                <g id="arrowRight" xlink:href="#dirArrow" transform="rotate(90) translate(36 -43)" onmousedown="handlePan(1,0)">
                  <use xlink:href="#rim" fill="#404040">
                        <set attributeName="fill" to="#808080" begin="arrowRight.mouseover" end="arrowRight.mouseout"/>
                  </use>
                  <path fill="none" stroke="white" stroke-width="1.5" d="M0,-3.0v7 M-2.5,-0.5L0,-3.0L2.5,-0.5"/>
                </g>
                <g id="arrowDown" xlink:href="#dirArrow" transform="rotate(180) translate(-30 -48)" onmousedown="handlePan(0,1)">
                  <use xlink:href="#rim" fill="#404040">
                        <set attributeName="fill" to="#808080" begin="arrowDown.mouseover" end="arrowDown.mouseout"/>
                  </use>
                  <path fill="none" stroke="white" stroke-width="1.5" d="M0,-3.0v7 M-2.5,-0.5L0,-3.0L2.5,-0.5"/>
                </g>
                <g id="arrowLeft" xlink:href="#dirArrow" transform="rotate(270) translate(-36 17)" onmousedown="handlePan(-1,0)">
                  <use xlink:href="#rim" fill="#404040">
                        <set attributeName="fill" to="#808080" begin="arrowLeft.mouseover" end="arrowLeft.mouseout"/>
                  </use>
                  <path fill="none" stroke="white" stroke-width="1.5" d="M0,-3.0v7 M-2.5,-0.5L0,-3.0L2.5,-0.5"/>
                </g>
        </g>
        <svg viewBox="0 0 15 15" width="100%" height="30px" preserveAspectRatio="xMaxYMin meet">
         <g id="arrow_out" transform="scale(0.3 0.3)">
          <a xlink:href="JUTVideo_8cpp__incl_org.svg" target="_base">
           <rect id="button" ry="5" rx="5" y="6" x="6" height="38" width="38"
                fill="#f2f5e9" fill-opacity="0.5" stroke="#606060" stroke-width="1.0"/>
           <path id="arrow"
             d="M 11.500037,31.436501 C 11.940474,20.09759 22.043105,11.32322 32.158766,21.979434 L 37.068811,17.246167 C 37.068811,17.246167 37.088388,32 37.088388,32 L 22.160133,31.978069 C 22.160133,31.978069 26.997745,27.140456 26.997745,27.140456 C 18.528582,18.264221 13.291696,25.230495 11.500037,31.436501 z"
             style="fill:#404040;"/>
          </a>
         </g>
        </svg>
</svg>
