<?xml version="1.0" encoding="UTF-8" standalone="no"?>
<!DOCTYPE svg PUBLIC "-//W3C//DTD SVG 1.1//EN"
 "http://www.w3.org/Graphics/SVG/1.1/DTD/svg11.dtd">
<!-- Generated by graphviz version 2.44.0 ()
 -->
<!-- Title: include/JSystem/JUtility/JUTXfb.h Pages: 1 -->
<svg width="916pt" height="330pt"
 viewBox="0.00 0.00 916.05 330.00" xmlns="http://www.w3.org/2000/svg" xmlns:xlink="http://www.w3.org/1999/xlink">
<g id="graph0" class="graph" transform="scale(1 1) rotate(0) translate(4 326)">
<title>include/JSystem/JUtility/JUTXfb.h</title>
<polygon fill="white" stroke="transparent" points="-4,4 -4,-326 912.05,-326 912.05,4 -4,4"/>
<!-- Node1 -->
<g id="node1" class="node">
<title>Node1</title>
<g id="a_node1"><a xlink:title=" ">
<polygon fill="#bfbfbf" stroke="black" points="99,-291.5 99,-321.5 221,-321.5 221,-291.5 99,-291.5"/>
<text text-anchor="start" x="107" y="-309.5" font-family="Helvetica,sans-Serif" font-size="10.00">include/JSystem/JUtility</text>
<text text-anchor="middle" x="160" y="-298.5" font-family="Helvetica,sans-Serif" font-size="10.00">/JUTXfb.h</text>
</a>
</g>
</g>
<!-- Node2 -->
<g id="node2" class="node">
<title>Node2</title>
<g id="a_node2"><a xlink:href="JKRHeap_8h.html" target="_top" xlink:title=" ">
<polygon fill="white" stroke="black" points="88.5,-179.5 88.5,-198.5 231.5,-198.5 231.5,-179.5 88.5,-179.5"/>
<text text-anchor="middle" x="160" y="-186.5" font-family="Helvetica,sans-Serif" font-size="10.00">JSystem/JKernel/JKRHeap.h</text>
</a>
</g>
</g>
<!-- Node1&#45;&gt;Node2 -->
<g id="edge1" class="edge">
<title>Node1&#45;&gt;Node2</title>
<path fill="none" stroke="midnightblue" d="M160,-291.34C160,-270.62 160,-232.02 160,-208.9"/>
<polygon fill="midnightblue" stroke="midnightblue" points="163.5,-208.67 160,-198.67 156.5,-208.67 163.5,-208.67"/>
</g>
<!-- Node5 -->
<g id="node5" class="node">
<title>Node5</title>
<g id="a_node5"><a xlink:href="types_8h.html" target="_top" xlink:title=" ">
<polygon fill="white" stroke="black" points="377.5,-0.5 377.5,-19.5 458.5,-19.5 458.5,-0.5 377.5,-0.5"/>
<text text-anchor="middle" x="418" y="-7.5" font-family="Helvetica,sans-Serif" font-size="10.00">dolphin/types.h</text>
</a>
</g>
</g>
<!-- Node1&#45;&gt;Node5 -->
<g id="edge25" class="edge">
<title>Node1&#45;&gt;Node5</title>
<path fill="none" stroke="midnightblue" d="M107.61,-291.48C60.95,-275.44 0,-244.13 0,-190 0,-190 0,-190 0,-132 0,-87.84 25.22,-77.12 64,-56 115.12,-28.16 281.93,-16.95 367.04,-12.95"/>
<polygon fill="midnightblue" stroke="midnightblue" points="367.42,-16.44 377.25,-12.49 367.11,-9.44 367.42,-16.44"/>
</g>
<!-- Node9 -->
<g id="node9" class="node">
<title>Node9</title>
<g id="a_node9"><a xlink:href="JUTVideo_8h.html" target="_top" xlink:title=" ">
<polygon fill="white" stroke="black" points="481,-235.5 481,-254.5 623,-254.5 623,-235.5 481,-235.5"/>
<text text-anchor="middle" x="552" y="-242.5" font-family="Helvetica,sans-Serif" font-size="10.00">JSystem/JUtility/JUTVideo.h</text>
</a>
</g>
</g>
<!-- Node1&#45;&gt;Node9 -->
<g id="edge13" class="edge">
<title>Node1&#45;&gt;Node9</title>
<path fill="none" stroke="midnightblue" d="M221.25,-296.2C293.13,-285.29 411.87,-267.27 485.81,-256.05"/>
<polygon fill="midnightblue" stroke="midnightblue" points="486.58,-259.47 495.94,-254.51 485.53,-252.55 486.58,-259.47"/>
</g>
<!-- Node3 -->
<g id="node3" class="node">
<title>Node3</title>
<g id="a_node3"><a xlink:href="JKRDisposer_8h.html" target="_top" xlink:title=" ">
<polygon fill="white" stroke="black" points="81,-123.5 81,-142.5 239,-142.5 239,-123.5 81,-123.5"/>
<text text-anchor="middle" x="160" y="-130.5" font-family="Helvetica,sans-Serif" font-size="10.00">JSystem/JKernel/JKRDisposer.h</text>
</a>
</g>
</g>
<!-- Node2&#45;&gt;Node3 -->
<g id="edge2" class="edge">
<title>Node2&#45;&gt;Node3</title>
<path fill="none" stroke="midnightblue" d="M160,-179.08C160,-172.01 160,-161.86 160,-152.99"/>
<polygon fill="midnightblue" stroke="midnightblue" points="163.5,-152.75 160,-142.75 156.5,-152.75 163.5,-152.75"/>
</g>
<!-- Node2&#45;&gt;Node5 -->
<g id="edge12" class="edge">
<title>Node2&#45;&gt;Node5</title>
<path fill="none" stroke="midnightblue" d="M124.15,-179.4C105.12,-172.81 83.37,-161.59 72,-143 58.74,-121.33 61.11,-79.18 86,-56 125.75,-18.99 284.2,-12.03 367,-10.97"/>
<polygon fill="midnightblue" stroke="midnightblue" points="367.23,-14.47 377.2,-10.87 367.16,-7.47 367.23,-14.47"/>
</g>
<!-- Node6 -->
<g id="node6" class="node">
<title>Node6</title>
<g id="a_node6"><a xlink:href="OS_8h.html" target="_top" xlink:title=" ">
<polygon fill="white" stroke="black" points="316,-123.5 316,-142.5 402,-142.5 402,-123.5 316,-123.5"/>
<text text-anchor="middle" x="359" y="-130.5" font-family="Helvetica,sans-Serif" font-size="10.00">dolphin/os/OS.h</text>
</a>
</g>
</g>
<!-- Node2&#45;&gt;Node6 -->
<g id="edge6" class="edge">
<title>Node2&#45;&gt;Node6</title>
<path fill="none" stroke="midnightblue" d="M191.53,-179.44C225.59,-170.2 280.01,-155.44 317.52,-145.26"/>
<polygon fill="midnightblue" stroke="midnightblue" points="318.88,-148.51 327.62,-142.52 317.05,-141.76 318.88,-148.51"/>
</g>
<!-- Node4 -->
<g id="node4" class="node">
<title>Node4</title>
<g id="a_node4"><a xlink:href="JSUList_8h.html" target="_top" xlink:title=" ">
<polygon fill="white" stroke="black" points="104.5,-62 104.5,-81 247.5,-81 247.5,-62 104.5,-62"/>
<text text-anchor="middle" x="176" y="-69" font-family="Helvetica,sans-Serif" font-size="10.00">JSystem/JSupport/JSUList.h</text>
</a>
</g>
</g>
<!-- Node3&#45;&gt;Node4 -->
<g id="edge3" class="edge">
<title>Node3&#45;&gt;Node4</title>
<path fill="none" stroke="midnightblue" d="M162.29,-123.48C164.57,-114.99 168.15,-101.7 171.07,-90.82"/>
<polygon fill="midnightblue" stroke="midnightblue" points="174.49,-91.57 173.71,-81.01 167.74,-89.76 174.49,-91.57"/>
</g>
<!-- Node3&#45;&gt;Node5 -->
<g id="edge5" class="edge">
<title>Node3&#45;&gt;Node5</title>
<path fill="none" stroke="midnightblue" d="M138.19,-123.45C123.06,-116.22 104.05,-104.26 95,-87 88.61,-74.8 85.95,-66.39 95,-56 129.67,-16.17 285.28,-10.49 367.2,-10.34"/>
<polygon fill="midnightblue" stroke="midnightblue" points="367.29,-13.84 377.29,-10.35 367.29,-6.84 367.29,-13.84"/>
</g>
<!-- Node4&#45;&gt;Node5 -->
<g id="edge4" class="edge">
<title>Node4&#45;&gt;Node5</title>
<path fill="none" stroke="midnightblue" d="M210.67,-61.98C253.53,-51.44 326.54,-33.49 373.5,-21.94"/>
<polygon fill="midnightblue" stroke="midnightblue" points="374.52,-25.3 383.39,-19.51 372.85,-18.5 374.52,-25.3"/>
</g>
<!-- Node6&#45;&gt;Node5 -->
<g id="edge9" class="edge">
<title>Node6&#45;&gt;Node5</title>
<path fill="none" stroke="midnightblue" d="M337.52,-123.36C322.61,-116.09 303.89,-104.12 295,-87 288.65,-74.77 287.11,-67.29 295,-56 311.27,-32.72 340.95,-21.44 367.08,-16"/>
<polygon fill="midnightblue" stroke="midnightblue" points="368.05,-19.38 377.26,-14.13 366.79,-12.5 368.05,-19.38"/>
</g>
<!-- Node7 -->
<g id="node7" class="node">
<title>Node7</title>
<g id="a_node7"><a xlink:href="____va__arg_8h.html" target="_top" xlink:title=" ">
<polygon fill="white" stroke="black" points="304,-56.5 304,-86.5 414,-86.5 414,-56.5 304,-56.5"/>
<text text-anchor="start" x="312" y="-74.5" font-family="Helvetica,sans-Serif" font-size="10.00">Runtime.PPCEABI.H/</text>
<text text-anchor="middle" x="359" y="-63.5" font-family="Helvetica,sans-Serif" font-size="10.00">__va_arg.h</text>
</a>
</g>
</g>
<!-- Node6&#45;&gt;Node7 -->
<g id="edge7" class="edge">
<title>Node6&#45;&gt;Node7</title>
<path fill="none" stroke="midnightblue" d="M359,-123.48C359,-116.47 359,-106.19 359,-96.7"/>
<polygon fill="midnightblue" stroke="midnightblue" points="362.5,-96.52 359,-86.52 355.5,-96.52 362.5,-96.52"/>
</g>
<!-- Node8 -->
<g id="node8" class="node">
<title>Node8</title>
<g id="a_node8"><a xlink:href="dvd_8h.html" target="_top" xlink:title=" ">
<polygon fill="white" stroke="black" points="432,-62 432,-81 524,-81 524,-62 432,-62"/>
<text text-anchor="middle" x="478" y="-69" font-family="Helvetica,sans-Serif" font-size="10.00">dolphin/dvd/dvd.h</text>
</a>
</g>
</g>
<!-- Node6&#45;&gt;Node8 -->
<g id="edge10" class="edge">
<title>Node6&#45;&gt;Node8</title>
<path fill="none" stroke="midnightblue" d="M376.05,-123.48C395.84,-113.58 428.72,-97.14 451.77,-85.62"/>
<polygon fill="midnightblue" stroke="midnightblue" points="453.6,-88.61 460.98,-81.01 450.47,-82.35 453.6,-88.61"/>
</g>
<!-- Node7&#45;&gt;Node5 -->
<g id="edge8" class="edge">
<title>Node7&#45;&gt;Node5</title>
<path fill="none" stroke="midnightblue" d="M372.98,-56.4C381.73,-47.58 393.03,-36.18 402.12,-27.02"/>
<polygon fill="midnightblue" stroke="midnightblue" points="404.86,-29.22 409.41,-19.66 399.89,-24.29 404.86,-29.22"/>
</g>
<!-- Node8&#45;&gt;Node5 -->
<g id="edge11" class="edge">
<title>Node8&#45;&gt;Node5</title>
<path fill="none" stroke="midnightblue" d="M469.4,-61.98C460.14,-52.78 445.18,-37.96 433.79,-26.66"/>
<polygon fill="midnightblue" stroke="midnightblue" points="436.15,-24.07 426.58,-19.51 431.22,-29.04 436.15,-24.07"/>
</g>
<!-- Node9&#45;&gt;Node5 -->
<g id="edge21" class="edge">
<title>Node9&#45;&gt;Node5</title>
<path fill="none" stroke="midnightblue" d="M553.98,-235.4C560.06,-206.6 575.64,-112.18 533,-56 517.63,-35.75 491.83,-24.61 468.56,-18.48"/>
<polygon fill="midnightblue" stroke="midnightblue" points="469.32,-15.06 458.78,-16.14 467.69,-21.87 469.32,-15.06"/>
</g>
<!-- Node9&#45;&gt;Node6 -->
<g id="edge20" class="edge">
<title>Node9&#45;&gt;Node6</title>
<path fill="none" stroke="midnightblue" d="M536.86,-235.37C503.45,-216.33 423.24,-170.62 382.95,-147.65"/>
<polygon fill="midnightblue" stroke="midnightblue" points="384.5,-144.5 374.07,-142.59 381.03,-150.58 384.5,-144.5"/>
</g>
<!-- Node10 -->
<g id="node10" class="node">
<title>Node10</title>
<g id="a_node10"><a xlink:href="GX_8h.html" target="_top" xlink:title=" ">
<polygon fill="white" stroke="black" points="628.5,-123.5 628.5,-142.5 713.5,-142.5 713.5,-123.5 628.5,-123.5"/>
<text text-anchor="middle" x="671" y="-130.5" font-family="Helvetica,sans-Serif" font-size="10.00">dolphin/gx/GX.h</text>
</a>
</g>
</g>
<!-- Node9&#45;&gt;Node10 -->
<g id="edge14" class="edge">
<title>Node9&#45;&gt;Node10</title>
<path fill="none" stroke="midnightblue" d="M561.34,-235.37C581.41,-216.81 628.9,-172.91 654.3,-149.44"/>
<polygon fill="midnightblue" stroke="midnightblue" points="656.74,-151.95 661.71,-142.59 651.99,-146.81 656.74,-151.95"/>
</g>
<!-- Node13 -->
<g id="node13" class="node">
<title>Node13</title>
<g id="a_node13"><a xlink:href="vi_8h.html" target="_top" xlink:title=" ">
<polygon fill="white" stroke="black" points="633,-179.5 633,-198.5 709,-198.5 709,-179.5 633,-179.5"/>
<text text-anchor="middle" x="671" y="-186.5" font-family="Helvetica,sans-Serif" font-size="10.00">dolphin/vi/vi.h</text>
</a>
</g>
</g>
<!-- Node9&#45;&gt;Node13 -->
<g id="edge22" class="edge">
<title>Node9&#45;&gt;Node13</title>
<path fill="none" stroke="midnightblue" d="M570.86,-235.44C590.27,-226.64 620.73,-212.81 642.96,-202.72"/>
<polygon fill="midnightblue" stroke="midnightblue" points="644.57,-205.84 652.23,-198.52 641.68,-199.46 644.57,-205.84"/>
</g>
<!-- Node10&#45;&gt;Node5 -->
<g id="edge19" class="edge">
<title>Node10&#45;&gt;Node5</title>
<path fill="none" stroke="midnightblue" d="M659.04,-123.32C631.64,-103.45 566.64,-56.32 566,-56 535.12,-40.67 498,-29.4 468.66,-21.97"/>
<polygon fill="midnightblue" stroke="midnightblue" points="469.17,-18.49 458.63,-19.5 467.5,-25.29 469.17,-18.49"/>
</g>
<!-- Node11 -->
<g id="node11" class="node">
<title>Node11</title>
<g id="a_node11"><a xlink:href="GXDisplayList_8h.html" target="_top" xlink:title=" ">
<polygon fill="white" stroke="black" points="618.5,-62 618.5,-81 751.5,-81 751.5,-62 618.5,-62"/>
<text text-anchor="middle" x="685" y="-69" font-family="Helvetica,sans-Serif" font-size="10.00">dolphin/gx/GXDisplayList.h</text>
</a>
</g>
</g>
<!-- Node10&#45;&gt;Node11 -->
<g id="edge15" class="edge">
<title>Node10&#45;&gt;Node11</title>
<path fill="none" stroke="midnightblue" d="M673.01,-123.48C675,-114.99 678.13,-101.7 680.69,-90.82"/>
<polygon fill="midnightblue" stroke="midnightblue" points="684.11,-91.54 683,-81.01 677.3,-89.94 684.11,-91.54"/>
</g>
<!-- Node12 -->
<g id="node12" class="node">
<title>Node12</title>
<g id="a_node12"><a xlink:href="GXTexture_8h.html" target="_top" xlink:title=" ">
<polygon fill="white" stroke="black" points="769.5,-62 769.5,-81 886.5,-81 886.5,-62 769.5,-62"/>
<text text-anchor="middle" x="828" y="-69" font-family="Helvetica,sans-Serif" font-size="10.00">dolphin/gx/GXTexture.h</text>
</a>
</g>
</g>
<!-- Node10&#45;&gt;Node12 -->
<g id="edge17" class="edge">
<title>Node10&#45;&gt;Node12</title>
<path fill="none" stroke="midnightblue" d="M693.49,-123.48C720.31,-113.31 765.32,-96.26 795.81,-84.7"/>
<polygon fill="midnightblue" stroke="midnightblue" points="797.44,-87.83 805.55,-81.01 794.96,-81.28 797.44,-87.83"/>
</g>
<!-- Node11&#45;&gt;Node5 -->
<g id="edge16" class="edge">
<title>Node11&#45;&gt;Node5</title>
<path fill="none" stroke="midnightblue" d="M646.75,-61.98C599.16,-51.37 517.89,-33.26 466.12,-21.72"/>
<polygon fill="midnightblue" stroke="midnightblue" points="466.71,-18.27 456.18,-19.51 465.18,-25.1 466.71,-18.27"/>
</g>
<!-- Node12&#45;&gt;Node5 -->
<g id="edge18" class="edge">
<title>Node12&#45;&gt;Node5</title>
<path fill="none" stroke="midnightblue" d="M790.69,-61.99C780.75,-59.87 769.99,-57.72 760,-56 657.2,-38.31 535.96,-23.86 468.97,-16.43"/>
<polygon fill="midnightblue" stroke="midnightblue" points="469.02,-12.91 458.69,-15.3 468.25,-19.87 469.02,-12.91"/>
</g>
<!-- Node13&#45;&gt;Node5 -->
<g id="edge24" class="edge">
<title>Node13&#45;&gt;Node5</title>
<path fill="none" stroke="midnightblue" d="M709.25,-180.98C787.84,-165.02 955.23,-122.18 895,-56 866.71,-24.91 585.67,-14.86 468.69,-12.01"/>
<polygon fill="midnightblue" stroke="midnightblue" points="468.63,-8.51 458.55,-11.77 468.47,-15.5 468.63,-8.51"/>
</g>
<!-- Node13&#45;&gt;Node10 -->
<g id="edge23" class="edge">
<title>Node13&#45;&gt;Node10</title>
<path fill="none" stroke="midnightblue" d="M671,-179.08C671,-172.01 671,-161.86 671,-152.99"/>
<polygon fill="midnightblue" stroke="midnightblue" points="674.5,-152.75 671,-142.75 667.5,-152.75 674.5,-152.75"/>
</g>
</g>
</svg>
