<?xml version="1.0" encoding="UTF-8" standalone="no"?>
<!DOCTYPE svg PUBLIC "-//W3C//DTD SVG 1.1//EN"
 "http://www.w3.org/Graphics/SVG/1.1/DTD/svg11.dtd">
<!-- Generated by graphviz version 2.44.0 ()
 -->
<!-- Title: include/JSystem/JUtility/JUTXfb.h Pages: 1 -->
<svg width="734pt" height="263pt"
 viewBox="0.00 0.00 733.88 263.00" xmlns="http://www.w3.org/2000/svg" xmlns:xlink="http://www.w3.org/1999/xlink">
<g id="graph0" class="graph" transform="scale(1 1) rotate(0) translate(4 259)">
<title>include/JSystem/JUtility/JUTXfb.h</title>
<polygon fill="white" stroke="transparent" points="-4,4 -4,-259 729.88,-259 729.88,4 -4,4"/>
<!-- Node1 -->
<g id="node1" class="node">
<title>Node1</title>
<g id="a_node1"><a xlink:title=" ">
<polygon fill="#bfbfbf" stroke="black" points="52.71,-224.5 52.71,-254.5 174.71,-254.5 174.71,-224.5 52.71,-224.5"/>
<text text-anchor="start" x="60.71" y="-242.5" font-family="Helvetica,sans-Serif" font-size="10.00">include/JSystem/JUtility</text>
<text text-anchor="middle" x="113.71" y="-231.5" font-family="Helvetica,sans-Serif" font-size="10.00">/JUTXfb.h</text>
</a>
</g>
</g>
<!-- Node2 -->
<g id="node2" class="node">
<title>Node2</title>
<g id="a_node2"><a xlink:href="JKRHeap_8h.html" target="_top" xlink:title=" ">
<polygon fill="white" stroke="black" points="42.21,-168.5 42.21,-187.5 185.21,-187.5 185.21,-168.5 42.21,-168.5"/>
<text text-anchor="middle" x="113.71" y="-175.5" font-family="Helvetica,sans-Serif" font-size="10.00">JSystem/JKernel/JKRHeap.h</text>
</a>
</g>
</g>
<!-- Node1&#45;&gt;Node2 -->
<g id="edge1" class="edge">
<title>Node1&#45;&gt;Node2</title>
<path fill="none" stroke="midnightblue" d="M113.71,-224.4C113.71,-216.47 113.71,-206.46 113.71,-197.86"/>
<polygon fill="midnightblue" stroke="midnightblue" points="117.21,-197.66 113.71,-187.66 110.21,-197.66 117.21,-197.66"/>
</g>
<!-- Node5 -->
<g id="node5" class="node">
<title>Node5</title>
<g id="a_node5"><a xlink:href="types_8h.html" target="_top" xlink:title=" ">
<polygon fill="white" stroke="black" points="263.21,-0.5 263.21,-19.5 344.21,-19.5 344.21,-0.5 263.21,-0.5"/>
<text text-anchor="middle" x="303.71" y="-7.5" font-family="Helvetica,sans-Serif" font-size="10.00">dolphin/types.h</text>
</a>
</g>
</g>
<!-- Node1&#45;&gt;Node5 -->
<g id="edge22" class="edge">
<title>Node1&#45;&gt;Node5</title>
<path fill="none" stroke="midnightblue" d="M79.44,-224.42C63.09,-216.07 44.55,-203.98 32.71,-188 -2.25,-140.79 -15.44,-97.93 25.71,-56 56.56,-24.57 181.65,-15.09 253.07,-12.23"/>
<polygon fill="midnightblue" stroke="midnightblue" points="253.34,-15.73 263.2,-11.86 253.08,-8.73 253.34,-15.73"/>
</g>
<!-- Node8 -->
<g id="node8" class="node">
<title>Node8</title>
<g id="a_node8"><a xlink:href="JUTVideo_8h.html" target="_top" xlink:title=" ">
<polygon fill="white" stroke="black" points="306.71,-168.5 306.71,-187.5 448.71,-187.5 448.71,-168.5 306.71,-168.5"/>
<text text-anchor="middle" x="377.71" y="-175.5" font-family="Helvetica,sans-Serif" font-size="10.00">JSystem/JUtility/JUTVideo.h</text>
</a>
</g>
</g>
<!-- Node1&#45;&gt;Node8 -->
<g id="edge11" class="edge">
<title>Node1&#45;&gt;Node8</title>
<path fill="none" stroke="midnightblue" d="M174.94,-224.7C222.04,-214.08 286.21,-199.62 329.65,-189.83"/>
<polygon fill="midnightblue" stroke="midnightblue" points="330.69,-193.19 339.68,-187.57 329.15,-186.36 330.69,-193.19"/>
</g>
<!-- Node3 -->
<g id="node3" class="node">
<title>Node3</title>
<g id="a_node3"><a xlink:href="JKRDisposer_8h.html" target="_top" xlink:title=" ">
<polygon fill="white" stroke="black" points="34.71,-112.5 34.71,-131.5 192.71,-131.5 192.71,-112.5 34.71,-112.5"/>
<text text-anchor="middle" x="113.71" y="-119.5" font-family="Helvetica,sans-Serif" font-size="10.00">JSystem/JKernel/JKRDisposer.h</text>
</a>
</g>
</g>
<!-- Node2&#45;&gt;Node3 -->
<g id="edge2" class="edge">
<title>Node2&#45;&gt;Node3</title>
<path fill="none" stroke="midnightblue" d="M113.71,-168.08C113.71,-161.01 113.71,-150.86 113.71,-141.99"/>
<polygon fill="midnightblue" stroke="midnightblue" points="117.21,-141.75 113.71,-131.75 110.21,-141.75 117.21,-141.75"/>
</g>
<!-- Node2&#45;&gt;Node5 -->
<g id="edge10" class="edge">
<title>Node2&#45;&gt;Node5</title>
<path fill="none" stroke="midnightblue" d="M77.86,-168.4C58.83,-161.81 37.09,-150.59 25.71,-132 13.65,-112.28 28.03,-67.56 40.71,-56 71.07,-28.32 185.64,-17.39 253.14,-13.29"/>
<polygon fill="midnightblue" stroke="midnightblue" points="253.36,-16.79 263.14,-12.71 252.96,-9.8 253.36,-16.79"/>
</g>
<!-- Node6 -->
<g id="node6" class="node">
<title>Node6</title>
<g id="a_node6"><a xlink:href="OS_8h.html" target="_top" xlink:title=" ">
<polygon fill="white" stroke="black" points="228.71,-112.5 228.71,-131.5 314.71,-131.5 314.71,-112.5 228.71,-112.5"/>
<text text-anchor="middle" x="271.71" y="-119.5" font-family="Helvetica,sans-Serif" font-size="10.00">dolphin/os/OS.h</text>
</a>
</g>
</g>
<!-- Node2&#45;&gt;Node6 -->
<g id="edge6" class="edge">
<title>Node2&#45;&gt;Node6</title>
<path fill="none" stroke="midnightblue" d="M138.75,-168.44C165.33,-159.36 207.52,-144.94 237.24,-134.78"/>
<polygon fill="midnightblue" stroke="midnightblue" points="238.46,-138.06 246.79,-131.52 236.2,-131.44 238.46,-138.06"/>
</g>
<!-- Node4 -->
<g id="node4" class="node">
<title>Node4</title>
<g id="a_node4"><a xlink:href="JSUList_8h.html" target="_top" xlink:title=" ">
<polygon fill="white" stroke="black" points="58.21,-56.5 58.21,-75.5 201.21,-75.5 201.21,-56.5 58.21,-56.5"/>
<text text-anchor="middle" x="129.71" y="-63.5" font-family="Helvetica,sans-Serif" font-size="10.00">JSystem/JSupport/JSUList.h</text>
</a>
</g>
</g>
<!-- Node3&#45;&gt;Node4 -->
<g id="edge3" class="edge">
<title>Node3&#45;&gt;Node4</title>
<path fill="none" stroke="midnightblue" d="M116.35,-112.08C118.5,-104.85 121.59,-94.41 124.26,-85.4"/>
<polygon fill="midnightblue" stroke="midnightblue" points="127.63,-86.33 127.12,-75.75 120.92,-84.34 127.63,-86.33"/>
</g>
<!-- Node3&#45;&gt;Node5 -->
<g id="edge5" class="edge">
<title>Node3&#45;&gt;Node5</title>
<path fill="none" stroke="midnightblue" d="M93.78,-112.43C68.58,-100.43 30.56,-77.64 48.71,-56 74.22,-25.6 185.83,-15.73 252.65,-12.53"/>
<polygon fill="midnightblue" stroke="midnightblue" points="253.13,-16.01 262.97,-12.07 252.82,-9.02 253.13,-16.01"/>
</g>
<!-- Node4&#45;&gt;Node5 -->
<g id="edge4" class="edge">
<title>Node4&#45;&gt;Node5</title>
<path fill="none" stroke="midnightblue" d="M157.28,-56.44C186.81,-47.28 233.83,-32.69 266.6,-22.52"/>
<polygon fill="midnightblue" stroke="midnightblue" points="267.76,-25.82 276.27,-19.52 265.68,-19.14 267.76,-25.82"/>
</g>
<!-- Node6&#45;&gt;Node5 -->
<g id="edge7" class="edge">
<title>Node6&#45;&gt;Node5</title>
<path fill="none" stroke="midnightblue" d="M264.4,-112.36C254.6,-99.7 239.49,-75.47 248.71,-56 254.84,-43.07 266.71,-32.62 277.85,-25.05"/>
<polygon fill="midnightblue" stroke="midnightblue" points="279.91,-27.9 286.51,-19.61 276.18,-21.97 279.91,-27.9"/>
</g>
<!-- Node7 -->
<g id="node7" class="node">
<title>Node7</title>
<g id="a_node7"><a xlink:href="dvd_8h.html" target="_top" xlink:title=" ">
<polygon fill="white" stroke="black" points="257.71,-56.5 257.71,-75.5 349.71,-75.5 349.71,-56.5 257.71,-56.5"/>
<text text-anchor="middle" x="303.71" y="-63.5" font-family="Helvetica,sans-Serif" font-size="10.00">dolphin/dvd/dvd.h</text>
</a>
</g>
</g>
<!-- Node6&#45;&gt;Node7 -->
<g id="edge8" class="edge">
<title>Node6&#45;&gt;Node7</title>
<path fill="none" stroke="midnightblue" d="M277,-112.08C281.42,-104.61 287.88,-93.72 293.33,-84.52"/>
<polygon fill="midnightblue" stroke="midnightblue" points="296.44,-86.14 298.53,-75.75 290.42,-82.57 296.44,-86.14"/>
</g>
<!-- Node7&#45;&gt;Node5 -->
<g id="edge9" class="edge">
<title>Node7&#45;&gt;Node5</title>
<path fill="none" stroke="midnightblue" d="M303.71,-56.08C303.71,-49.01 303.71,-38.86 303.71,-29.99"/>
<polygon fill="midnightblue" stroke="midnightblue" points="307.21,-29.75 303.71,-19.75 300.21,-29.75 307.21,-29.75"/>
</g>
<!-- Node8&#45;&gt;Node5 -->
<g id="edge19" class="edge">
<title>Node8&#45;&gt;Node5</title>
<path fill="none" stroke="midnightblue" d="M378.37,-168.4C379.55,-147.59 380.18,-93.45 358.71,-56 351.5,-43.42 339.31,-32.9 328.24,-25.2"/>
<polygon fill="midnightblue" stroke="midnightblue" points="330.01,-22.18 319.72,-19.65 326.19,-28.04 330.01,-22.18"/>
</g>
<!-- Node8&#45;&gt;Node6 -->
<g id="edge18" class="edge">
<title>Node8&#45;&gt;Node6</title>
<path fill="none" stroke="midnightblue" d="M360.68,-168.32C343.68,-159.66 317.34,-146.24 297.72,-136.25"/>
<polygon fill="midnightblue" stroke="midnightblue" points="299.2,-133.08 288.7,-131.65 296.02,-139.31 299.2,-133.08"/>
</g>
<!-- Node9 -->
<g id="node9" class="node">
<title>Node9</title>
<g id="a_node9"><a xlink:href="GX_8h.html" target="_top" xlink:title=" ">
<polygon fill="white" stroke="black" points="437.21,-112.5 437.21,-131.5 522.21,-131.5 522.21,-112.5 437.21,-112.5"/>
<text text-anchor="middle" x="479.71" y="-119.5" font-family="Helvetica,sans-Serif" font-size="10.00">dolphin/gx/GX.h</text>
</a>
</g>
</g>
<!-- Node8&#45;&gt;Node9 -->
<g id="edge12" class="edge">
<title>Node8&#45;&gt;Node9</title>
<path fill="none" stroke="midnightblue" d="M394.1,-168.32C410.38,-159.7 435.58,-146.36 454.43,-136.39"/>
<polygon fill="midnightblue" stroke="midnightblue" points="456.16,-139.43 463.37,-131.65 452.89,-133.24 456.16,-139.43"/>
</g>
<!-- Node12 -->
<g id="node12" class="node">
<title>Node12</title>
<g id="a_node12"><a xlink:href="vi_8h.html" target="_top" xlink:title=" ">
<polygon fill="white" stroke="black" points="621.71,-112.5 621.71,-131.5 697.71,-131.5 697.71,-112.5 621.71,-112.5"/>
<text text-anchor="middle" x="659.71" y="-119.5" font-family="Helvetica,sans-Serif" font-size="10.00">dolphin/vi/vi.h</text>
</a>
</g>
</g>
<!-- Node8&#45;&gt;Node12 -->
<g id="edge20" class="edge">
<title>Node8&#45;&gt;Node12</title>
<path fill="none" stroke="midnightblue" d="M422.4,-168.44C474.05,-158.55 558.72,-142.34 611.73,-132.19"/>
<polygon fill="midnightblue" stroke="midnightblue" points="612.41,-135.62 621.57,-130.3 611.09,-128.75 612.41,-135.62"/>
</g>
<!-- Node9&#45;&gt;Node5 -->
<g id="edge17" class="edge">
<title>Node9&#45;&gt;Node5</title>
<path fill="none" stroke="midnightblue" d="M469.27,-112.41C453.18,-99.37 421.1,-74.2 391.71,-56 372.39,-44.03 349.5,-32.4 331.91,-23.96"/>
<polygon fill="midnightblue" stroke="midnightblue" points="333.27,-20.74 322.74,-19.62 330.28,-27.06 333.27,-20.74"/>
</g>
<!-- Node10 -->
<g id="node10" class="node">
<title>Node10</title>
<g id="a_node10"><a xlink:href="GXDisplayList_8h.html" target="_top" xlink:title=" ">
<polygon fill="white" stroke="black" points="444.21,-56.5 444.21,-75.5 577.21,-75.5 577.21,-56.5 444.21,-56.5"/>
<text text-anchor="middle" x="510.71" y="-63.5" font-family="Helvetica,sans-Serif" font-size="10.00">dolphin/gx/GXDisplayList.h</text>
</a>
</g>
</g>
<!-- Node9&#45;&gt;Node10 -->
<g id="edge13" class="edge">
<title>Node9&#45;&gt;Node10</title>
<path fill="none" stroke="midnightblue" d="M484.83,-112.08C489.12,-104.61 495.37,-93.72 500.65,-84.52"/>
<polygon fill="midnightblue" stroke="midnightblue" points="503.75,-86.17 505.69,-75.75 497.67,-82.68 503.75,-86.17"/>
</g>
<!-- Node11 -->
<g id="node11" class="node">
<title>Node11</title>
<g id="a_node11"><a xlink:href="GXTexture_8h.html" target="_top" xlink:title=" ">
<polygon fill="white" stroke="black" points="595.21,-56.5 595.21,-75.5 712.21,-75.5 712.21,-56.5 595.21,-56.5"/>
<text text-anchor="middle" x="653.71" y="-63.5" font-family="Helvetica,sans-Serif" font-size="10.00">dolphin/gx/GXTexture.h</text>
</a>
</g>
</g>
<!-- Node9&#45;&gt;Node11 -->
<g id="edge15" class="edge">
<title>Node9&#45;&gt;Node11</title>
<path fill="none" stroke="midnightblue" d="M507.28,-112.44C536.81,-103.28 583.83,-88.69 616.6,-78.52"/>
<polygon fill="midnightblue" stroke="midnightblue" points="617.76,-81.82 626.27,-75.52 615.68,-75.14 617.76,-81.82"/>
</g>
<!-- Node10&#45;&gt;Node5 -->
<g id="edge14" class="edge">
<title>Node10&#45;&gt;Node5</title>
<path fill="none" stroke="midnightblue" d="M477.91,-56.44C442.33,-47.16 385.4,-32.31 346.37,-22.13"/>
<polygon fill="midnightblue" stroke="midnightblue" points="346.92,-18.65 336.36,-19.52 345.15,-25.43 346.92,-18.65"/>
</g>
<!-- Node11&#45;&gt;Node5 -->
<g id="edge16" class="edge">
<title>Node11&#45;&gt;Node5</title>
<path fill="none" stroke="midnightblue" d="M598.25,-56.44C531.2,-46.1 419.28,-28.83 354.43,-18.82"/>
<polygon fill="midnightblue" stroke="midnightblue" points="354.85,-15.35 344.44,-17.28 353.79,-22.27 354.85,-15.35"/>
</g>
<!-- Node12&#45;&gt;Node5 -->
<g id="edge21" class="edge">
<title>Node12&#45;&gt;Node5</title>
<path fill="none" stroke="midnightblue" d="M677.97,-112.49C702.02,-100.18 739.22,-76.61 720.71,-56 696.64,-29.19 460.56,-16.94 354.66,-12.76"/>
<polygon fill="midnightblue" stroke="midnightblue" points="354.66,-9.26 344.53,-12.37 354.39,-16.25 354.66,-9.26"/>
</g>
</g>
</svg>
