<?xml version="1.0" encoding="UTF-8" standalone="no"?>
<!DOCTYPE svg PUBLIC "-//W3C//DTD SVG 1.1//EN"
 "http://www.w3.org/Graphics/SVG/1.1/DTD/svg11.dtd">
<!-- Generated by graphviz version 2.44.0 ()
 -->
<!-- Title: include/m_Do/m_Do_dvd_thread.h Pages: 1 -->
<!--zoomable 587 -->
<svg id="main" version="1.1" xmlns="http://www.w3.org/2000/svg" xmlns:xlink="http://www.w3.org/1999/xlink" xml:space="preserve" onload="init(evt)">
<style type="text/css"><![CDATA[
.edge:hover path { stroke: red; }
.edge:hover polygon { stroke: red; fill: red; }
]]></style>
<script type="text/javascript"><![CDATA[
var edges = document.getElementsByTagName('g');
if (edges && edges.length) {
  for (var i=0;i<edges.length;i++) {
    if (edges[i].id.substr(0,4)=='edge') {
      edges[i].setAttribute('class','edge');
    }
  }
}
]]></script>
        <defs>
                <circle id="rim" cx="0" cy="0" r="7"/>
                <circle id="rim2" cx="0" cy="0" r="3.5"/>
                <g id="zoomPlus">
                        <use xlink:href="#rim" fill="#404040">
                                <set attributeName="fill" to="#808080" begin="zoomplus.mouseover" end="zoomplus.mouseout"/>
                        </use>
                        <path d="M-4,0h8M0,-4v8" fill="none" stroke="white" stroke-width="1.5" pointer-events="none"/>
                </g>
                <g id="zoomMin">
                        <use xlink:href="#rim" fill="#404040">
                                <set attributeName="fill" to="#808080" begin="zoomminus.mouseover" end="zoomminus.mouseout"/>
                        </use>
                        <path d="M-4,0h8" fill="none" stroke="white" stroke-width="1.5" pointer-events="none"/>
                </g>
                <g id="dirArrow">
                        <path fill="none" stroke="white" stroke-width="1.5" d="M0,-3.0v7 M-2.5,-0.5L0,-3.0L2.5,-0.5"/>
                </g>
               <g id="resetDef">
                       <use xlink:href="#rim2" fill="#404040">
                               <set attributeName="fill" to="#808080" begin="reset.mouseover" end="reset.mouseout"/>
                       </use>
               </g>
        </defs>

<script type="text/javascript">
var viewWidth = 1730;
var viewHeight = 587;
var sectionId = 'dynsection-0';
</script>
<script xlink:href="svgpan.js"/>
<svg id="graph" class="graph">
<g id="viewport">
<title>include/m_Do/m_Do_dvd_thread.h</title>
<polygon fill="white" stroke="transparent" points="-4,4 -4,-583 1726,-583 1726,4 -4,4"/>
<!-- Node1 -->
<g id="node1" class="node">
<title>Node1</title>
<g id="a_node1"><a xlink:title=" ">
<polygon fill="#bfbfbf" stroke="black" points="504.5,-548.5 504.5,-578.5 629.5,-578.5 629.5,-548.5 504.5,-548.5"/>
<text text-anchor="start" x="512.5" y="-566.5" font-family="Helvetica,sans-Serif" font-size="10.00">include/m_Do/m_Do_dvd</text>
<text text-anchor="middle" x="567" y="-555.5" font-family="Helvetica,sans-Serif" font-size="10.00">_thread.h</text>
</a>
</g>
</g>
<!-- Node2 -->
<g id="node2" class="node">
<title>Node2</title>
<g id="a_node2"><a xlink:href="JKRArchive_8h.html" target="_top" xlink:title=" ">
<polygon fill="white" stroke="black" points="325.5,-380.5 325.5,-399.5 478.5,-399.5 478.5,-380.5 325.5,-380.5"/>
<text text-anchor="middle" x="402" y="-387.5" font-family="Helvetica,sans-Serif" font-size="10.00">JSystem/JKernel/JKRArchive.h</text>
</a>
</g>
</g>
<!-- Node1&#45;&gt;Node2 -->
<g id="edge1" class="edge">
<title>Node1&#45;&gt;Node2</title>
<path fill="none" stroke="midnightblue" d="M553.5,-548.47C523.13,-516.9 449.6,-440.47 417.46,-407.07"/>
<polygon fill="midnightblue" stroke="midnightblue" points="419.69,-404.34 410.24,-399.56 414.65,-409.19 419.69,-404.34"/>
</g>
<!-- Node8 -->
<g id="node8" class="node">
<title>Node8</title>
<g id="a_node8"><a xlink:href="types_8h.html" target="_top" xlink:title=" ">
<polygon fill="white" stroke="black" points="927.5,-0.5 927.5,-19.5 1008.5,-19.5 1008.5,-0.5 927.5,-0.5"/>
<text text-anchor="middle" x="968" y="-7.5" font-family="Helvetica,sans-Serif" font-size="10.00">dolphin/types.h</text>
</a>
</g>
</g>
<!-- Node1&#45;&gt;Node8 -->
<g id="edge39" class="edge">
<title>Node1&#45;&gt;Node8</title>
<path fill="none" stroke="midnightblue" d="M504.43,-562.81C356.97,-561.86 0,-549.03 0,-447 0,-447 0,-447 0,-137.5 0,-76.3 53.36,-76.58 111,-56 186.76,-28.95 744.6,-15.52 917.23,-11.97"/>
<polygon fill="midnightblue" stroke="midnightblue" points="917.39,-15.47 927.32,-11.77 917.25,-8.47 917.39,-15.47"/>
</g>
<!-- Node9 -->
<g id="node9" class="node">
<title>Node9</title>
<g id="a_node9"><a xlink:href="JKRHeap_8h.html" target="_top" xlink:title=" ">
<polygon fill="white" stroke="black" points="612.5,-196 612.5,-215 755.5,-215 755.5,-196 612.5,-196"/>
<text text-anchor="middle" x="684" y="-203" font-family="Helvetica,sans-Serif" font-size="10.00">JSystem/JKernel/JKRHeap.h</text>
</a>
</g>
</g>
<!-- Node1&#45;&gt;Node9 -->
<g id="edge35" class="edge">
<title>Node1&#45;&gt;Node9</title>
<path fill="none" stroke="midnightblue" d="M598.89,-548.41C634.14,-530.41 686,-495.66 686,-447 686,-447 686,-447 686,-333 686,-294.7 685.07,-249.88 684.48,-225.2"/>
<polygon fill="midnightblue" stroke="midnightblue" points="687.98,-225 684.23,-215.09 680.98,-225.17 687.98,-225"/>
</g>
<!-- Node16 -->
<g id="node16" class="node">
<title>Node16</title>
<g id="a_node16"><a xlink:href="JKRMemArchive_8h.html" target="_top" xlink:title=" ">
<polygon fill="white" stroke="black" points="479.5,-436.5 479.5,-455.5 654.5,-455.5 654.5,-436.5 479.5,-436.5"/>
<text text-anchor="middle" x="567" y="-443.5" font-family="Helvetica,sans-Serif" font-size="10.00">JSystem/JKernel/JKRMemArchive.h</text>
</a>
</g>
</g>
<!-- Node1&#45;&gt;Node16 -->
<g id="edge36" class="edge">
<title>Node1&#45;&gt;Node16</title>
<path fill="none" stroke="midnightblue" d="M567,-548.34C567,-527.62 567,-489.02 567,-465.9"/>
<polygon fill="midnightblue" stroke="midnightblue" points="570.5,-465.67 567,-455.67 563.5,-465.67 570.5,-465.67"/>
</g>
<!-- Node17 -->
<g id="node17" class="node">
<title>Node17</title>
<g id="a_node17"><a xlink:href="f__pc__node_8h.html" target="_top" xlink:title=" ">
<polygon fill="white" stroke="black" points="976.5,-492.5 976.5,-511.5 1067.5,-511.5 1067.5,-492.5 976.5,-492.5"/>
<text text-anchor="middle" x="1022" y="-499.5" font-family="Helvetica,sans-Serif" font-size="10.00">f_pc/f_pc_node.h</text>
</a>
</g>
</g>
<!-- Node1&#45;&gt;Node17 -->
<g id="edge40" class="edge">
<title>Node1&#45;&gt;Node17</title>
<path fill="none" stroke="midnightblue" d="M629.79,-554.29C719.04,-542.62 881.2,-521.41 966.36,-510.28"/>
<polygon fill="midnightblue" stroke="midnightblue" points="966.89,-513.74 976.35,-508.97 965.98,-506.8 966.89,-513.74"/>
</g>
<!-- Node3 -->
<g id="node3" class="node">
<title>Node3</title>
<g id="a_node3"><a xlink:href="JKRCompression_8h.html" target="_top" xlink:title=" ">
<polygon fill="white" stroke="black" points="65.5,-263 65.5,-282 242.5,-282 242.5,-263 65.5,-263"/>
<text text-anchor="middle" x="154" y="-270" font-family="Helvetica,sans-Serif" font-size="10.00">JSystem/JKernel/JKRCompression.h</text>
</a>
</g>
</g>
<!-- Node2&#45;&gt;Node3 -->
<g id="edge2" class="edge">
<title>Node2&#45;&gt;Node3</title>
<path fill="none" stroke="midnightblue" d="M325.26,-380.59C271.81,-373.36 206.42,-361.34 185,-344 169.13,-331.15 161.16,-308.53 157.31,-292.38"/>
<polygon fill="midnightblue" stroke="midnightblue" points="160.71,-291.52 155.26,-282.43 153.85,-292.93 160.71,-291.52"/>
</g>
<!-- Node4 -->
<g id="node4" class="node">
<title>Node4</title>
<g id="a_node4"><a xlink:href="JKRDecomp_8h.html" target="_top" xlink:title=" ">
<polygon fill="white" stroke="black" points="194,-324.5 194,-343.5 350,-343.5 350,-324.5 194,-324.5"/>
<text text-anchor="middle" x="272" y="-331.5" font-family="Helvetica,sans-Serif" font-size="10.00">JSystem/JKernel/JKRDecomp.h</text>
</a>
</g>
</g>
<!-- Node2&#45;&gt;Node4 -->
<g id="edge3" class="edge">
<title>Node2&#45;&gt;Node4</title>
<path fill="none" stroke="midnightblue" d="M381.4,-380.44C360.01,-371.56 326.32,-357.56 301.98,-347.45"/>
<polygon fill="midnightblue" stroke="midnightblue" points="303.08,-344.12 292.5,-343.52 300.39,-350.58 303.08,-344.12"/>
</g>
<!-- Node2&#45;&gt;Node9 -->
<g id="edge32" class="edge">
<title>Node2&#45;&gt;Node9</title>
<path fill="none" stroke="midnightblue" d="M435.6,-380.44C482.92,-367.06 570.01,-337.48 629,-288 650.09,-270.31 666.43,-242.57 675.64,-224.46"/>
<polygon fill="midnightblue" stroke="midnightblue" points="678.88,-225.81 680.11,-215.29 672.59,-222.74 678.88,-225.81"/>
</g>
<!-- Node12 -->
<g id="node12" class="node">
<title>Node12</title>
<g id="a_node12"><a xlink:href="JKRDvdFile_8h.html" target="_top" xlink:title=" ">
<polygon fill="white" stroke="black" points="298.5,-263 298.5,-282 451.5,-282 451.5,-263 298.5,-263"/>
<text text-anchor="middle" x="375" y="-270" font-family="Helvetica,sans-Serif" font-size="10.00">JSystem/JKernel/JKRDvdFile.h</text>
</a>
</g>
</g>
<!-- Node2&#45;&gt;Node12 -->
<g id="edge21" class="edge">
<title>Node2&#45;&gt;Node12</title>
<path fill="none" stroke="midnightblue" d="M399.97,-380.32C395.61,-361.67 385.27,-317.44 379.36,-292.13"/>
<polygon fill="midnightblue" stroke="midnightblue" points="382.74,-291.22 377.05,-282.28 375.92,-292.82 382.74,-291.22"/>
</g>
<!-- Node14 -->
<g id="node14" class="node">
<title>Node14</title>
<g id="a_node14"><a xlink:href="JKRFileLoader_8h.html" target="_top" xlink:title=" ">
<polygon fill="white" stroke="black" points="774,-196 774,-215 940,-215 940,-196 774,-196"/>
<text text-anchor="middle" x="857" y="-203" font-family="Helvetica,sans-Serif" font-size="10.00">JSystem/JKernel/JKRFileLoader.h</text>
</a>
</g>
</g>
<!-- Node2&#45;&gt;Node14 -->
<g id="edge28" class="edge">
<title>Node2&#45;&gt;Node14</title>
<path fill="none" stroke="midnightblue" d="M441.77,-380.44C476.01,-372.56 526.48,-359.73 569,-344 670.09,-306.6 783.84,-246.65 832.65,-220.01"/>
<polygon fill="midnightblue" stroke="midnightblue" points="834.43,-223.02 841.52,-215.14 831.07,-216.88 834.43,-223.02"/>
</g>
<!-- Node15 -->
<g id="node15" class="node">
<title>Node15</title>
<g id="a_node15"><a xlink:href="global_8h.html" target="_top" xlink:title=" ">
<polygon fill="white" stroke="black" points="56,-129 56,-148 106,-148 106,-129 56,-129"/>
<text text-anchor="middle" x="81" y="-136" font-family="Helvetica,sans-Serif" font-size="10.00">global.h</text>
</a>
</g>
</g>
<!-- Node2&#45;&gt;Node15 -->
<g id="edge33" class="edge">
<title>Node2&#45;&gt;Node15</title>
<path fill="none" stroke="midnightblue" d="M337.55,-380.45C245.86,-366.69 85.56,-336.21 56,-288 30.58,-246.53 55.32,-186.9 70.73,-157.41"/>
<polygon fill="midnightblue" stroke="midnightblue" points="73.97,-158.77 75.7,-148.31 67.83,-155.41 73.97,-158.77"/>
</g>
<!-- Node4&#45;&gt;Node3 -->
<g id="edge4" class="edge">
<title>Node4&#45;&gt;Node3</title>
<path fill="none" stroke="midnightblue" d="M255.09,-324.48C235.47,-314.58 202.87,-298.14 180.01,-286.62"/>
<polygon fill="midnightblue" stroke="midnightblue" points="181.38,-283.39 170.88,-282.01 178.23,-289.64 181.38,-283.39"/>
</g>
<!-- Node5 -->
<g id="node5" class="node">
<title>Node5</title>
<g id="a_node5"><a xlink:href="JKRThread_8h.html" target="_top" xlink:title=" ">
<polygon fill="white" stroke="black" points="470,-263 470,-282 620,-282 620,-263 470,-263"/>
<text text-anchor="middle" x="545" y="-270" font-family="Helvetica,sans-Serif" font-size="10.00">JSystem/JKernel/JKRThread.h</text>
</a>
</g>
</g>
<!-- Node4&#45;&gt;Node5 -->
<g id="edge5" class="edge">
<title>Node4&#45;&gt;Node5</title>
<path fill="none" stroke="midnightblue" d="M311.11,-324.48C359.87,-313.85 443.21,-295.68 496.12,-284.15"/>
<polygon fill="midnightblue" stroke="midnightblue" points="496.93,-287.56 505.96,-282.01 495.44,-280.72 496.93,-287.56"/>
</g>
<!-- Node4&#45;&gt;Node8 -->
<g id="edge20" class="edge">
<title>Node4&#45;&gt;Node8</title>
<path fill="none" stroke="midnightblue" d="M270.75,-324.14C268.44,-309.51 262.62,-279.66 251,-257 241.62,-238.72 231.56,-239.18 222,-221 207.54,-193.49 206.49,-184.75 202,-154 195.67,-110.68 179.7,-85.56 212,-56 238.01,-32.2 751.38,-16.69 916.98,-12.29"/>
<polygon fill="midnightblue" stroke="midnightblue" points="917.47,-15.77 927.38,-12.01 917.29,-8.78 917.47,-15.77"/>
</g>
<!-- Node6 -->
<g id="node6" class="node">
<title>Node6</title>
<g id="a_node6"><a xlink:href="JKRDisposer_8h.html" target="_top" xlink:title=" ">
<polygon fill="white" stroke="black" points="609,-129 609,-148 767,-148 767,-129 609,-129"/>
<text text-anchor="middle" x="688" y="-136" font-family="Helvetica,sans-Serif" font-size="10.00">JSystem/JKernel/JKRDisposer.h</text>
</a>
</g>
</g>
<!-- Node5&#45;&gt;Node6 -->
<g id="edge6" class="edge">
<title>Node5&#45;&gt;Node6</title>
<path fill="none" stroke="midnightblue" d="M549.73,-262.77C558.68,-246.83 579.42,-212.56 604,-190 620.71,-174.66 642.8,-161.6 660.13,-152.61"/>
<polygon fill="midnightblue" stroke="midnightblue" points="661.84,-155.66 669.2,-148.04 658.7,-149.41 661.84,-155.66"/>
</g>
<!-- Node7 -->
<g id="node7" class="node">
<title>Node7</title>
<g id="a_node7"><a xlink:href="JSUList_8h.html" target="_top" xlink:title=" ">
<polygon fill="white" stroke="black" points="624.5,-62 624.5,-81 767.5,-81 767.5,-62 624.5,-62"/>
<text text-anchor="middle" x="696" y="-69" font-family="Helvetica,sans-Serif" font-size="10.00">JSystem/JSupport/JSUList.h</text>
</a>
</g>
</g>
<!-- Node5&#45;&gt;Node7 -->
<g id="edge17" class="edge">
<title>Node5&#45;&gt;Node7</title>
<path fill="none" stroke="midnightblue" d="M545.91,-262.96C548.98,-238.23 561.02,-165.59 600,-123 616.06,-105.45 639.65,-92.92 659.42,-84.74"/>
<polygon fill="midnightblue" stroke="midnightblue" points="660.75,-87.98 668.77,-81.06 658.19,-81.46 660.75,-87.98"/>
</g>
<!-- Node5&#45;&gt;Node8 -->
<g id="edge19" class="edge">
<title>Node5&#45;&gt;Node8</title>
<path fill="none" stroke="midnightblue" d="M544.49,-262.68C543.03,-228.28 542.99,-102.69 616,-56 664.83,-24.77 832.02,-15.14 917.22,-12.23"/>
<polygon fill="midnightblue" stroke="midnightblue" points="917.56,-15.72 927.44,-11.9 917.33,-8.72 917.56,-15.72"/>
</g>
<!-- Node5&#45;&gt;Node9 -->
<g id="edge10" class="edge">
<title>Node5&#45;&gt;Node9</title>
<path fill="none" stroke="midnightblue" d="M563.46,-262.87C587.24,-251.75 628.79,-232.32 656.35,-219.43"/>
<polygon fill="midnightblue" stroke="midnightblue" points="657.89,-222.57 665.47,-215.17 654.92,-216.23 657.89,-222.57"/>
</g>
<!-- Node10 -->
<g id="node10" class="node">
<title>Node10</title>
<g id="a_node10"><a xlink:href="OS_8h.html" target="_top" xlink:title=" ">
<polygon fill="white" stroke="black" points="394,-129 394,-148 480,-148 480,-129 394,-129"/>
<text text-anchor="middle" x="437" y="-136" font-family="Helvetica,sans-Serif" font-size="10.00">dolphin/os/OS.h</text>
</a>
</g>
</g>
<!-- Node5&#45;&gt;Node10 -->
<g id="edge18" class="edge">
<title>Node5&#45;&gt;Node10</title>
<path fill="none" stroke="midnightblue" d="M535.08,-262.68C524.4,-252.96 507.17,-236.63 494,-221 476.51,-200.25 459.01,-174.26 448.11,-157.29"/>
<polygon fill="midnightblue" stroke="midnightblue" points="450.81,-155.01 442.5,-148.44 444.9,-158.76 450.81,-155.01"/>
</g>
<!-- Node6&#45;&gt;Node7 -->
<g id="edge7" class="edge">
<title>Node6&#45;&gt;Node7</title>
<path fill="none" stroke="midnightblue" d="M689.08,-128.73C690.25,-119.18 692.17,-103.62 693.69,-91.28"/>
<polygon fill="midnightblue" stroke="midnightblue" points="697.19,-91.48 694.94,-81.13 690.24,-90.62 697.19,-91.48"/>
</g>
<!-- Node6&#45;&gt;Node8 -->
<g id="edge9" class="edge">
<title>Node6&#45;&gt;Node8</title>
<path fill="none" stroke="midnightblue" d="M702.62,-128.93C729.73,-113.25 789.86,-79.4 843,-56 872.07,-43.2 906.04,-31.15 931.22,-22.74"/>
<polygon fill="midnightblue" stroke="midnightblue" points="932.36,-26.06 940.75,-19.6 930.16,-19.41 932.36,-26.06"/>
</g>
<!-- Node7&#45;&gt;Node8 -->
<g id="edge8" class="edge">
<title>Node7&#45;&gt;Node8</title>
<path fill="none" stroke="midnightblue" d="M734.97,-61.98C783.55,-51.35 866.58,-33.18 919.3,-21.65"/>
<polygon fill="midnightblue" stroke="midnightblue" points="920.08,-25.07 929.1,-19.51 918.58,-18.23 920.08,-25.07"/>
</g>
<!-- Node9&#45;&gt;Node6 -->
<g id="edge11" class="edge">
<title>Node9&#45;&gt;Node6</title>
<path fill="none" stroke="midnightblue" d="M684.54,-195.73C685.13,-186.18 686.09,-170.62 686.84,-158.28"/>
<polygon fill="midnightblue" stroke="midnightblue" points="690.35,-158.32 687.47,-148.13 683.36,-157.89 690.35,-158.32"/>
</g>
<!-- Node9&#45;&gt;Node8 -->
<g id="edge16" class="edge">
<title>Node9&#45;&gt;Node8</title>
<path fill="none" stroke="midnightblue" d="M701.37,-195.88C720.17,-186.33 750.86,-170.15 776,-154 842.44,-111.31 916.03,-53.21 949.55,-26.09"/>
<polygon fill="midnightblue" stroke="midnightblue" points="951.99,-28.62 957.55,-19.6 947.58,-23.19 951.99,-28.62"/>
</g>
<!-- Node9&#45;&gt;Node10 -->
<g id="edge12" class="edge">
<title>Node9&#45;&gt;Node10</title>
<path fill="none" stroke="midnightblue" d="M651.46,-195.94C607.31,-184.32 528.36,-163.54 479.55,-150.7"/>
<polygon fill="midnightblue" stroke="midnightblue" points="480.18,-147.24 469.62,-148.08 478.4,-154.01 480.18,-147.24"/>
</g>
<!-- Node10&#45;&gt;Node8 -->
<g id="edge13" class="edge">
<title>Node10&#45;&gt;Node8</title>
<path fill="none" stroke="midnightblue" d="M440.11,-128.98C446.88,-111.76 464.76,-73.04 494,-56 564.76,-14.77 809.96,-10.41 917.17,-10.54"/>
<polygon fill="midnightblue" stroke="midnightblue" points="917.4,-14.04 927.41,-10.57 917.42,-7.04 917.4,-14.04"/>
</g>
<!-- Node11 -->
<g id="node11" class="node">
<title>Node11</title>
<g id="a_node11"><a xlink:href="dvd_8h.html" target="_top" xlink:title=" ">
<polygon fill="white" stroke="black" points="246,-62 246,-81 338,-81 338,-62 246,-62"/>
<text text-anchor="middle" x="292" y="-69" font-family="Helvetica,sans-Serif" font-size="10.00">dolphin/dvd/dvd.h</text>
</a>
</g>
</g>
<!-- Node10&#45;&gt;Node11 -->
<g id="edge14" class="edge">
<title>Node10&#45;&gt;Node11</title>
<path fill="none" stroke="midnightblue" d="M417.75,-128.87C392.83,-117.7 349.21,-98.15 320.47,-85.26"/>
<polygon fill="midnightblue" stroke="midnightblue" points="321.89,-82.06 311.33,-81.17 319.03,-88.45 321.89,-82.06"/>
</g>
<!-- Node11&#45;&gt;Node8 -->
<g id="edge15" class="edge">
<title>Node11&#45;&gt;Node8</title>
<path fill="none" stroke="midnightblue" d="M322.95,-61.99C332.23,-59.72 342.47,-57.49 352,-56 560.13,-23.47 811.6,-14.37 917.31,-11.89"/>
<polygon fill="midnightblue" stroke="midnightblue" points="917.46,-15.39 927.38,-11.67 917.3,-8.39 917.46,-15.39"/>
</g>
<!-- Node12&#45;&gt;Node8 -->
<g id="edge27" class="edge">
<title>Node12&#45;&gt;Node8</title>
<path fill="none" stroke="midnightblue" d="M315.4,-262.98C289.55,-256.08 261.47,-243.6 245,-221 201.75,-161.67 186.7,-109.49 237,-56 260.29,-31.23 755.13,-16.43 917.15,-12.24"/>
<polygon fill="midnightblue" stroke="midnightblue" points="917.42,-15.73 927.33,-11.98 917.24,-8.74 917.42,-15.73"/>
</g>
<!-- Node12&#45;&gt;Node10 -->
<g id="edge26" class="edge">
<title>Node12&#45;&gt;Node10</title>
<path fill="none" stroke="midnightblue" d="M383.06,-262.85C391.6,-253.28 404.92,-237.08 413,-221 423.22,-200.68 429.83,-175.26 433.48,-158.27"/>
<polygon fill="midnightblue" stroke="midnightblue" points="436.91,-158.95 435.46,-148.45 430.05,-157.56 436.91,-158.95"/>
</g>
<!-- Node12&#45;&gt;Node11 -->
<g id="edge25" class="edge">
<title>Node12&#45;&gt;Node11</title>
<path fill="none" stroke="midnightblue" d="M325.3,-262.98C300.94,-256.04 273.75,-243.5 259,-221 231.82,-179.52 262.27,-119 280.43,-89.68"/>
<polygon fill="midnightblue" stroke="midnightblue" points="283.54,-91.31 286.01,-81.01 277.65,-87.52 283.54,-91.31"/>
</g>
<!-- Node13 -->
<g id="node13" class="node">
<title>Node13</title>
<g id="a_node13"><a xlink:href="JKRFile_8h.html" target="_top" xlink:title=" ">
<polygon fill="white" stroke="black" points="268,-196 268,-215 404,-215 404,-196 268,-196"/>
<text text-anchor="middle" x="336" y="-203" font-family="Helvetica,sans-Serif" font-size="10.00">JSystem/JKernel/JKRFile.h</text>
</a>
</g>
</g>
<!-- Node12&#45;&gt;Node13 -->
<g id="edge22" class="edge">
<title>Node12&#45;&gt;Node13</title>
<path fill="none" stroke="midnightblue" d="M369.74,-262.73C363.78,-252.79 353.9,-236.34 346.37,-223.79"/>
<polygon fill="midnightblue" stroke="midnightblue" points="349.32,-221.9 341.18,-215.13 343.32,-225.5 349.32,-221.9"/>
</g>
<!-- Node13&#45;&gt;Node6 -->
<g id="edge23" class="edge">
<title>Node13&#45;&gt;Node6</title>
<path fill="none" stroke="midnightblue" d="M382.38,-195.94C446.7,-184.06 562.86,-162.61 631.96,-149.85"/>
<polygon fill="midnightblue" stroke="midnightblue" points="632.6,-153.29 641.8,-148.03 631.33,-146.41 632.6,-153.29"/>
</g>
<!-- Node13&#45;&gt;Node8 -->
<g id="edge24" class="edge">
<title>Node13&#45;&gt;Node8</title>
<path fill="none" stroke="midnightblue" d="M339.76,-195.75C352.1,-168.36 394.35,-84.43 460,-56 541.25,-20.81 805.62,-13.14 917.38,-11.47"/>
<polygon fill="midnightblue" stroke="midnightblue" points="917.44,-14.97 927.39,-11.33 917.35,-7.97 917.44,-14.97"/>
</g>
<!-- Node14&#45;&gt;Node6 -->
<g id="edge29" class="edge">
<title>Node14&#45;&gt;Node6</title>
<path fill="none" stroke="midnightblue" d="M834.56,-195.87C805.18,-184.57 753.51,-164.7 720.03,-151.82"/>
<polygon fill="midnightblue" stroke="midnightblue" points="720.86,-148.39 710.27,-148.06 718.34,-154.92 720.86,-148.39"/>
</g>
<!-- Node14&#45;&gt;Node7 -->
<g id="edge30" class="edge">
<title>Node14&#45;&gt;Node7</title>
<path fill="none" stroke="midnightblue" d="M849.52,-195.77C835.87,-180.12 805.57,-146.71 776,-123 758.54,-109 737,-95.6 720.67,-86.12"/>
<polygon fill="midnightblue" stroke="midnightblue" points="722.15,-82.94 711.73,-81.02 718.68,-89.02 722.15,-82.94"/>
</g>
<!-- Node14&#45;&gt;Node8 -->
<g id="edge31" class="edge">
<title>Node14&#45;&gt;Node8</title>
<path fill="none" stroke="midnightblue" d="M861.91,-195.94C878.81,-166.48 934.78,-68.91 957.89,-28.63"/>
<polygon fill="midnightblue" stroke="midnightblue" points="960.95,-30.32 962.89,-19.91 954.88,-26.84 960.95,-30.32"/>
</g>
<!-- Node15&#45;&gt;Node8 -->
<g id="edge34" class="edge">
<title>Node15&#45;&gt;Node8</title>
<path fill="none" stroke="midnightblue" d="M85.23,-128.83C94.3,-111.36 117.47,-72.18 150,-56 218.49,-21.93 749.49,-13.34 917.33,-11.47"/>
<polygon fill="midnightblue" stroke="midnightblue" points="917.42,-14.97 927.38,-11.36 917.35,-7.97 917.42,-14.97"/>
</g>
<!-- Node16&#45;&gt;Node2 -->
<g id="edge37" class="edge">
<title>Node16&#45;&gt;Node2</title>
<path fill="none" stroke="midnightblue" d="M540.86,-436.44C512.98,-427.32 468.65,-412.81 437.6,-402.65"/>
<polygon fill="midnightblue" stroke="midnightblue" points="438.62,-399.3 428.02,-399.52 436.44,-405.95 438.62,-399.3"/>
</g>
<!-- Node16&#45;&gt;Node8 -->
<g id="edge38" class="edge">
<title>Node16&#45;&gt;Node8</title>
<path fill="none" stroke="midnightblue" d="M600.86,-436.49C677.94,-415.16 866.22,-351.49 949,-221 987.55,-160.23 978.1,-68.95 971.63,-29.86"/>
<polygon fill="midnightblue" stroke="midnightblue" points="975.06,-29.12 969.86,-19.89 968.17,-30.35 975.06,-29.12"/>
</g>
<!-- Node18 -->
<g id="node18" class="node">
<title>Node18</title>
<g id="a_node18"><a xlink:href="f__pc__base_8h.html" target="_top" xlink:title=" ">
<polygon fill="white" stroke="black" points="1222.5,-436.5 1222.5,-455.5 1313.5,-455.5 1313.5,-436.5 1222.5,-436.5"/>
<text text-anchor="middle" x="1268" y="-443.5" font-family="Helvetica,sans-Serif" font-size="10.00">f_pc/f_pc_base.h</text>
</a>
</g>
</g>
<!-- Node17&#45;&gt;Node18 -->
<g id="edge41" class="edge">
<title>Node17&#45;&gt;Node18</title>
<path fill="none" stroke="midnightblue" d="M1060.98,-492.44C1103.89,-483.02 1172.95,-467.87 1219.37,-457.68"/>
<polygon fill="midnightblue" stroke="midnightblue" points="1220.19,-461.08 1229.2,-455.52 1218.69,-454.24 1220.19,-461.08"/>
</g>
<!-- Node24 -->
<g id="node24" class="node">
<title>Node24</title>
<g id="a_node24"><a xlink:href="f__pc__layer_8h.html" target="_top" xlink:title=" ">
<polygon fill="white" stroke="black" points="1154,-324.5 1154,-343.5 1244,-343.5 1244,-324.5 1154,-324.5"/>
<text text-anchor="middle" x="1199" y="-331.5" font-family="Helvetica,sans-Serif" font-size="10.00">f_pc/f_pc_layer.h</text>
</a>
</g>
</g>
<!-- Node17&#45;&gt;Node24 -->
<g id="edge78" class="edge">
<title>Node17&#45;&gt;Node24</title>
<path fill="none" stroke="midnightblue" d="M1029.31,-492.27C1046.82,-471.61 1092.96,-418.57 1137,-380 1149.72,-368.86 1165.1,-357.68 1177.36,-349.26"/>
<polygon fill="midnightblue" stroke="midnightblue" points="1179.33,-352.15 1185.65,-343.65 1175.4,-346.35 1179.33,-352.15"/>
</g>
<!-- Node30 -->
<g id="node30" class="node">
<title>Node30</title>
<g id="a_node30"><a xlink:href="f__pc__method_8h.html" target="_top" xlink:title=" ">
<polygon fill="white" stroke="black" points="914,-324.5 914,-343.5 1016,-343.5 1016,-324.5 914,-324.5"/>
<text text-anchor="middle" x="965" y="-331.5" font-family="Helvetica,sans-Serif" font-size="10.00">f_pc/f_pc_method.h</text>
</a>
</g>
</g>
<!-- Node17&#45;&gt;Node30 -->
<g id="edge79" class="edge">
<title>Node17&#45;&gt;Node30</title>
<path fill="none" stroke="midnightblue" d="M1012.48,-492.43C995.4,-476.33 960.1,-439.61 947,-400 941.79,-384.23 947.88,-365.98 954.34,-352.84"/>
<polygon fill="midnightblue" stroke="midnightblue" points="957.49,-354.37 959.18,-343.91 951.34,-351.04 957.49,-354.37"/>
</g>
<!-- Node18&#45;&gt;Node8 -->
<g id="edge53" class="edge">
<title>Node18&#45;&gt;Node8</title>
<path fill="none" stroke="midnightblue" d="M1222.29,-438.78C1194.68,-432.92 1160.41,-421.62 1137,-400 1091.97,-358.4 1082,-334.81 1082,-273.5 1082,-273.5 1082,-273.5 1082,-137.5 1082,-85.07 1027.3,-44.58 993.68,-24.64"/>
<polygon fill="midnightblue" stroke="midnightblue" points="995.24,-21.5 984.82,-19.57 991.76,-27.58 995.24,-21.5"/>
</g>
<!-- Node19 -->
<g id="node19" class="node">
<title>Node19</title>
<g id="a_node19"><a xlink:href="c__tag_8h.html" target="_top" xlink:title=" ">
<polygon fill="white" stroke="black" points="1354,-257.5 1354,-287.5 1470,-287.5 1470,-257.5 1354,-257.5"/>
<text text-anchor="start" x="1362" y="-275.5" font-family="Helvetica,sans-Serif" font-size="10.00">SSystem/SComponent</text>
<text text-anchor="middle" x="1412" y="-264.5" font-family="Helvetica,sans-Serif" font-size="10.00">/c_tag.h</text>
</a>
</g>
</g>
<!-- Node18&#45;&gt;Node19 -->
<g id="edge42" class="edge">
<title>Node18&#45;&gt;Node19</title>
<path fill="none" stroke="midnightblue" d="M1313.78,-441.08C1342.17,-436.12 1376.95,-424.97 1397,-400 1420.23,-371.08 1419.46,-325.75 1416.16,-297.93"/>
<polygon fill="midnightblue" stroke="midnightblue" points="1419.61,-297.28 1414.77,-287.86 1412.67,-298.24 1419.61,-297.28"/>
</g>
<!-- Node23 -->
<g id="node23" class="node">
<title>Node23</title>
<g id="a_node23"><a xlink:href="f__pc__delete__tag_8h.html" target="_top" xlink:title=" ">
<polygon fill="white" stroke="black" points="1145.5,-380.5 1145.5,-399.5 1260.5,-399.5 1260.5,-380.5 1145.5,-380.5"/>
<text text-anchor="middle" x="1203" y="-387.5" font-family="Helvetica,sans-Serif" font-size="10.00">f_pc/f_pc_delete_tag.h</text>
</a>
</g>
</g>
<!-- Node18&#45;&gt;Node23 -->
<g id="edge54" class="edge">
<title>Node18&#45;&gt;Node23</title>
<path fill="none" stroke="midnightblue" d="M1257.56,-436.32C1247.85,-428.26 1233.18,-416.08 1221.5,-406.37"/>
<polygon fill="midnightblue" stroke="midnightblue" points="1223.56,-403.53 1213.63,-399.83 1219.09,-408.92 1223.56,-403.53"/>
</g>
<!-- Node25 -->
<g id="node25" class="node">
<title>Node25</title>
<g id="a_node25"><a xlink:href="f__pc__layer__tag_8h.html" target="_top" xlink:title=" ">
<polygon fill="white" stroke="black" points="1278.5,-380.5 1278.5,-399.5 1387.5,-399.5 1387.5,-380.5 1278.5,-380.5"/>
<text text-anchor="middle" x="1333" y="-387.5" font-family="Helvetica,sans-Serif" font-size="10.00">f_pc/f_pc_layer_tag.h</text>
</a>
</g>
</g>
<!-- Node18&#45;&gt;Node25 -->
<g id="edge62" class="edge">
<title>Node18&#45;&gt;Node25</title>
<path fill="none" stroke="midnightblue" d="M1278.44,-436.32C1288.15,-428.26 1302.82,-416.08 1314.5,-406.37"/>
<polygon fill="midnightblue" stroke="midnightblue" points="1316.91,-408.92 1322.37,-399.83 1312.44,-403.53 1316.91,-408.92"/>
</g>
<!-- Node26 -->
<g id="node26" class="node">
<title>Node26</title>
<g id="a_node26"><a xlink:href="f__pc__line__tag_8h.html" target="_top" xlink:title=" ">
<polygon fill="white" stroke="black" points="1618,-324.5 1618,-343.5 1722,-343.5 1722,-324.5 1618,-324.5"/>
<text text-anchor="middle" x="1670" y="-331.5" font-family="Helvetica,sans-Serif" font-size="10.00">f_pc/f_pc_line_tag.h</text>
</a>
</g>
</g>
<!-- Node18&#45;&gt;Node26 -->
<g id="edge66" class="edge">
<title>Node18&#45;&gt;Node26</title>
<path fill="none" stroke="midnightblue" d="M1313.75,-442.53C1370.68,-438.38 1470.25,-427.55 1551,-400 1587.62,-387.51 1626.27,-364.26 1649.25,-349.22"/>
<polygon fill="midnightblue" stroke="midnightblue" points="1651.42,-351.98 1657.81,-343.52 1647.54,-346.15 1651.42,-351.98"/>
</g>
<!-- Node27 -->
<g id="node27" class="node">
<title>Node27</title>
<g id="a_node27"><a xlink:href="f__pc__priority_8h.html" target="_top" xlink:title=" ">
<polygon fill="white" stroke="black" points="1444,-380.5 1444,-399.5 1542,-399.5 1542,-380.5 1444,-380.5"/>
<text text-anchor="middle" x="1493" y="-387.5" font-family="Helvetica,sans-Serif" font-size="10.00">f_pc/f_pc_priority.h</text>
</a>
</g>
</g>
<!-- Node18&#45;&gt;Node27 -->
<g id="edge69" class="edge">
<title>Node18&#45;&gt;Node27</title>
<path fill="none" stroke="midnightblue" d="M1303.65,-436.44C1342.66,-427.08 1405.27,-412.06 1447.72,-401.87"/>
<polygon fill="midnightblue" stroke="midnightblue" points="1448.61,-405.25 1457.51,-399.52 1446.97,-398.45 1448.61,-405.25"/>
</g>
<!-- Node29 -->
<g id="node29" class="node">
<title>Node29</title>
<g id="a_node29"><a xlink:href="f__pc__profile_8h.html" target="_top" xlink:title=" ">
<polygon fill="white" stroke="black" points="955.5,-380.5 955.5,-399.5 1050.5,-399.5 1050.5,-380.5 955.5,-380.5"/>
<text text-anchor="middle" x="1003" y="-387.5" font-family="Helvetica,sans-Serif" font-size="10.00">f_pc/f_pc_profile.h</text>
</a>
</g>
</g>
<!-- Node18&#45;&gt;Node29 -->
<g id="edge74" class="edge">
<title>Node18&#45;&gt;Node29</title>
<path fill="none" stroke="midnightblue" d="M1226.01,-436.44C1179.59,-426.98 1104.77,-411.74 1054.76,-401.55"/>
<polygon fill="midnightblue" stroke="midnightblue" points="1055.29,-398.08 1044.79,-399.52 1053.89,-404.94 1055.29,-398.08"/>
</g>
<!-- Node19&#45;&gt;Node8 -->
<g id="edge52" class="edge">
<title>Node19&#45;&gt;Node8</title>
<path fill="none" stroke="midnightblue" d="M1430.24,-257.17C1454.14,-237.1 1494.9,-198.1 1511,-154 1528.84,-105.13 1493.82,-78.67 1447,-56 1372.52,-19.93 1126.36,-12.74 1018.91,-11.33"/>
<polygon fill="midnightblue" stroke="midnightblue" points="1018.69,-7.83 1008.65,-11.21 1018.61,-14.83 1018.69,-7.83"/>
</g>
<!-- Node20 -->
<g id="node20" class="node">
<title>Node20</title>
<g id="a_node20"><a xlink:href="c__list_8h.html" target="_top" xlink:title=" ">
<polygon fill="white" stroke="black" points="1386,-123.5 1386,-153.5 1502,-153.5 1502,-123.5 1386,-123.5"/>
<text text-anchor="start" x="1394" y="-141.5" font-family="Helvetica,sans-Serif" font-size="10.00">SSystem/SComponent</text>
<text text-anchor="middle" x="1444" y="-130.5" font-family="Helvetica,sans-Serif" font-size="10.00">/c_list.h</text>
</a>
</g>
</g>
<!-- Node19&#45;&gt;Node20 -->
<g id="edge43" class="edge">
<title>Node19&#45;&gt;Node20</title>
<path fill="none" stroke="midnightblue" d="M1415.42,-257.37C1420.86,-234.94 1431.53,-190.92 1438.19,-163.49"/>
<polygon fill="midnightblue" stroke="midnightblue" points="1441.65,-164.07 1440.6,-153.52 1434.84,-162.42 1441.65,-164.07"/>
</g>
<!-- Node21 -->
<g id="node21" class="node">
<title>Node21</title>
<g id="a_node21"><a xlink:href="c__node_8h.html" target="_top" xlink:title=" ">
<polygon fill="white" stroke="black" points="1300,-56.5 1300,-86.5 1416,-86.5 1416,-56.5 1300,-56.5"/>
<text text-anchor="start" x="1308" y="-74.5" font-family="Helvetica,sans-Serif" font-size="10.00">SSystem/SComponent</text>
<text text-anchor="middle" x="1358" y="-63.5" font-family="Helvetica,sans-Serif" font-size="10.00">/c_node.h</text>
</a>
</g>
</g>
<!-- Node19&#45;&gt;Node21 -->
<g id="edge47" class="edge">
<title>Node19&#45;&gt;Node21</title>
<path fill="none" stroke="midnightblue" d="M1407.52,-257.47C1400.58,-235.51 1386.99,-191.65 1377,-154 1371.9,-134.76 1366.81,-112.78 1363.19,-96.49"/>
<polygon fill="midnightblue" stroke="midnightblue" points="1366.6,-95.71 1361.04,-86.7 1359.77,-97.22 1366.6,-95.71"/>
</g>
<!-- Node22 -->
<g id="node22" class="node">
<title>Node22</title>
<g id="a_node22"><a xlink:href="c__tree_8h.html" target="_top" xlink:title=" ">
<polygon fill="white" stroke="black" points="1262,-190.5 1262,-220.5 1378,-220.5 1378,-190.5 1262,-190.5"/>
<text text-anchor="start" x="1270" y="-208.5" font-family="Helvetica,sans-Serif" font-size="10.00">SSystem/SComponent</text>
<text text-anchor="middle" x="1320" y="-197.5" font-family="Helvetica,sans-Serif" font-size="10.00">/c_tree.h</text>
</a>
</g>
</g>
<!-- Node19&#45;&gt;Node22 -->
<g id="edge48" class="edge">
<title>Node19&#45;&gt;Node22</title>
<path fill="none" stroke="midnightblue" d="M1392.04,-257.4C1379.26,-248.37 1362.48,-236.51 1348.33,-226.52"/>
<polygon fill="midnightblue" stroke="midnightblue" points="1350.11,-223.49 1339.92,-220.58 1346.07,-229.21 1350.11,-223.49"/>
</g>
<!-- Node20&#45;&gt;Node8 -->
<g id="edge46" class="edge">
<title>Node20&#45;&gt;Node8</title>
<path fill="none" stroke="midnightblue" d="M1445.24,-123.22C1445.98,-104.69 1444.12,-72.76 1425,-56 1394.96,-29.65 1131.67,-16.97 1018.9,-12.71"/>
<polygon fill="midnightblue" stroke="midnightblue" points="1018.92,-9.21 1008.79,-12.34 1018.66,-16.21 1018.92,-9.21"/>
</g>
<!-- Node20&#45;&gt;Node21 -->
<g id="edge44" class="edge">
<title>Node20&#45;&gt;Node21</title>
<path fill="none" stroke="midnightblue" d="M1425.34,-123.4C1413.51,-114.45 1398.01,-102.74 1384.86,-92.8"/>
<polygon fill="midnightblue" stroke="midnightblue" points="1386.71,-89.81 1376.62,-86.58 1382.49,-95.4 1386.71,-89.81"/>
</g>
<!-- Node21&#45;&gt;Node8 -->
<g id="edge45" class="edge">
<title>Node21&#45;&gt;Node8</title>
<path fill="none" stroke="midnightblue" d="M1299.9,-58.5C1295.2,-57.62 1290.52,-56.78 1286,-56 1191.9,-39.88 1081.43,-25.19 1018.57,-17.23"/>
<polygon fill="midnightblue" stroke="midnightblue" points="1018.89,-13.75 1008.53,-15.97 1018.01,-20.69 1018.89,-13.75"/>
</g>
<!-- Node22&#45;&gt;Node8 -->
<g id="edge51" class="edge">
<title>Node22&#45;&gt;Node8</title>
<path fill="none" stroke="midnightblue" d="M1317.6,-190.3C1311.7,-160.17 1293.53,-89.85 1248,-56 1212.55,-29.64 1089.25,-18.13 1018.65,-13.6"/>
<polygon fill="midnightblue" stroke="midnightblue" points="1018.84,-10.1 1008.64,-12.98 1018.4,-17.09 1018.84,-10.1"/>
</g>
<!-- Node22&#45;&gt;Node20 -->
<g id="edge49" class="edge">
<title>Node22&#45;&gt;Node20</title>
<path fill="none" stroke="midnightblue" d="M1346.91,-190.4C1364.86,-180.98 1388.67,-168.5 1408.22,-158.26"/>
<polygon fill="midnightblue" stroke="midnightblue" points="1409.91,-161.32 1417.15,-153.58 1406.66,-155.12 1409.91,-161.32"/>
</g>
<!-- Node22&#45;&gt;Node21 -->
<g id="edge50" class="edge">
<title>Node22&#45;&gt;Node21</title>
<path fill="none" stroke="midnightblue" d="M1324.07,-190.37C1330.52,-167.94 1343.2,-123.92 1351.1,-96.49"/>
<polygon fill="midnightblue" stroke="midnightblue" points="1354.56,-97.1 1353.96,-86.52 1347.83,-95.17 1354.56,-97.1"/>
</g>
<!-- Node23&#45;&gt;Node8 -->
<g id="edge56" class="edge">
<title>Node23&#45;&gt;Node8</title>
<path fill="none" stroke="midnightblue" d="M1187.42,-380.37C1174.43,-372.45 1156.27,-359.6 1145,-344 1125.53,-317.06 1120,-306.75 1120,-273.5 1120,-273.5 1120,-273.5 1120,-137.5 1120,-99.74 1122,-83.38 1096,-56 1075.79,-34.72 1044.94,-23.49 1018.59,-17.58"/>
<polygon fill="midnightblue" stroke="midnightblue" points="1019.24,-14.14 1008.74,-15.56 1017.83,-21 1019.24,-14.14"/>
</g>
<!-- Node23&#45;&gt;Node19 -->
<g id="edge55" class="edge">
<title>Node23&#45;&gt;Node19</title>
<path fill="none" stroke="midnightblue" d="M1218.71,-380.32C1252.28,-361.77 1331.69,-317.88 1377.6,-292.51"/>
<polygon fill="midnightblue" stroke="midnightblue" points="1379.53,-295.45 1386.58,-287.55 1376.14,-289.32 1379.53,-295.45"/>
</g>
<!-- Node23&#45;&gt;Node24 -->
<g id="edge57" class="edge">
<title>Node23&#45;&gt;Node24</title>
<path fill="none" stroke="midnightblue" d="M1202.34,-380.08C1201.82,-373.01 1201.06,-362.86 1200.41,-353.99"/>
<polygon fill="midnightblue" stroke="midnightblue" points="1203.88,-353.47 1199.65,-343.75 1196.9,-353.98 1203.88,-353.47"/>
</g>
<!-- Node24&#45;&gt;Node8 -->
<g id="edge61" class="edge">
<title>Node24&#45;&gt;Node8</title>
<path fill="none" stroke="midnightblue" d="M1194.14,-324.42C1183.28,-304.42 1158,-252.9 1158,-206.5 1158,-206.5 1158,-206.5 1158,-137.5 1158,-99.74 1160.99,-82.41 1134,-56 1103.47,-26.13 1055.23,-15.59 1018.6,-12.1"/>
<polygon fill="midnightblue" stroke="midnightblue" points="1018.85,-8.61 1008.6,-11.3 1018.29,-15.59 1018.85,-8.61"/>
</g>
<!-- Node24&#45;&gt;Node19 -->
<g id="edge59" class="edge">
<title>Node24&#45;&gt;Node19</title>
<path fill="none" stroke="midnightblue" d="M1229.52,-324.48C1261.4,-315.57 1312.23,-301.37 1352.16,-290.22"/>
<polygon fill="midnightblue" stroke="midnightblue" points="1353.11,-293.58 1361.8,-287.52 1351.23,-286.84 1353.11,-293.58"/>
</g>
<!-- Node24&#45;&gt;Node21 -->
<g id="edge58" class="edge">
<title>Node24&#45;&gt;Node21</title>
<path fill="none" stroke="midnightblue" d="M1201.05,-324.45C1206.79,-301.48 1224.51,-236.97 1253,-190 1275.82,-152.38 1311.4,-115.66 1334.71,-93.55"/>
<polygon fill="midnightblue" stroke="midnightblue" points="1337.19,-96.02 1342.11,-86.63 1332.41,-90.9 1337.19,-96.02"/>
</g>
<!-- Node24&#45;&gt;Node22 -->
<g id="edge60" class="edge">
<title>Node24&#45;&gt;Node22</title>
<path fill="none" stroke="midnightblue" d="M1207.32,-324.31C1226.06,-304.71 1272.06,-256.62 1299.14,-228.31"/>
<polygon fill="midnightblue" stroke="midnightblue" points="1301.85,-230.53 1306.24,-220.89 1296.8,-225.7 1301.85,-230.53"/>
</g>
<!-- Node25&#45;&gt;Node8 -->
<g id="edge64" class="edge">
<title>Node25&#45;&gt;Node8</title>
<path fill="none" stroke="midnightblue" d="M1329.02,-380.43C1305.8,-330.56 1187.74,-79.07 1158,-56 1118.12,-25.07 1060.36,-14.89 1019.01,-11.8"/>
<polygon fill="midnightblue" stroke="midnightblue" points="1019.07,-8.29 1008.87,-11.15 1018.63,-15.28 1019.07,-8.29"/>
</g>
<!-- Node25&#45;&gt;Node19 -->
<g id="edge63" class="edge">
<title>Node25&#45;&gt;Node19</title>
<path fill="none" stroke="midnightblue" d="M1338.94,-380.32C1351.07,-362.58 1379.04,-321.68 1396.64,-295.95"/>
<polygon fill="midnightblue" stroke="midnightblue" points="1399.64,-297.78 1402.39,-287.55 1393.86,-293.82 1399.64,-297.78"/>
</g>
<!-- Node25&#45;&gt;Node24 -->
<g id="edge65" class="edge">
<title>Node25&#45;&gt;Node24</title>
<path fill="none" stroke="midnightblue" d="M1311.77,-380.44C1289.62,-371.52 1254.68,-357.44 1229.56,-347.32"/>
<polygon fill="midnightblue" stroke="midnightblue" points="1230.72,-344.01 1220.13,-343.52 1228.1,-350.5 1230.72,-344.01"/>
</g>
<!-- Node26&#45;&gt;Node8 -->
<g id="edge68" class="edge">
<title>Node26&#45;&gt;Node8</title>
<path fill="none" stroke="midnightblue" d="M1666.44,-324.27C1658.49,-303.98 1640,-251.87 1640,-206.5 1640,-206.5 1640,-206.5 1640,-137.5 1640,-75.94 1585.73,-77.38 1528,-56 1435.35,-21.69 1138.62,-13.5 1018.85,-11.58"/>
<polygon fill="midnightblue" stroke="midnightblue" points="1018.89,-8.08 1008.84,-11.43 1018.78,-15.08 1018.89,-8.08"/>
</g>
<!-- Node26&#45;&gt;Node19 -->
<g id="edge67" class="edge">
<title>Node26&#45;&gt;Node19</title>
<path fill="none" stroke="midnightblue" d="M1633.03,-324.48C1593.28,-315.31 1529.18,-300.52 1480.23,-289.23"/>
<polygon fill="midnightblue" stroke="midnightblue" points="1480.87,-285.79 1470.34,-286.95 1479.29,-292.61 1480.87,-285.79"/>
</g>
<!-- Node27&#45;&gt;Node19 -->
<g id="edge70" class="edge">
<title>Node27&#45;&gt;Node19</title>
<path fill="none" stroke="midnightblue" d="M1486.91,-380.32C1474.47,-362.58 1445.79,-321.68 1427.74,-295.95"/>
<polygon fill="midnightblue" stroke="midnightblue" points="1430.46,-293.72 1421.85,-287.55 1424.73,-297.74 1430.46,-293.72"/>
</g>
<!-- Node28 -->
<g id="node28" class="node">
<title>Node28</title>
<g id="a_node28"><a xlink:href="f__pc__method__tag_8h.html" target="_top" xlink:title=" ">
<polygon fill="white" stroke="black" points="1478.5,-324.5 1478.5,-343.5 1599.5,-343.5 1599.5,-324.5 1478.5,-324.5"/>
<text text-anchor="middle" x="1539" y="-331.5" font-family="Helvetica,sans-Serif" font-size="10.00">f_pc/f_pc_method_tag.h</text>
</a>
</g>
</g>
<!-- Node27&#45;&gt;Node28 -->
<g id="edge71" class="edge">
<title>Node27&#45;&gt;Node28</title>
<path fill="none" stroke="midnightblue" d="M1500.6,-380.08C1507.23,-372.3 1517.02,-360.8 1525.06,-351.37"/>
<polygon fill="midnightblue" stroke="midnightblue" points="1527.73,-353.63 1531.55,-343.75 1522.4,-349.09 1527.73,-353.63"/>
</g>
<!-- Node28&#45;&gt;Node8 -->
<g id="edge73" class="edge">
<title>Node28&#45;&gt;Node8</title>
<path fill="none" stroke="midnightblue" d="M1542.44,-324.26C1550.12,-303.94 1568,-251.79 1568,-206.5 1568,-206.5 1568,-206.5 1568,-137.5 1568,-85.48 1531.31,-77.62 1484,-56 1402.01,-18.53 1131.95,-12.15 1018.7,-11.14"/>
<polygon fill="midnightblue" stroke="midnightblue" points="1018.58,-7.64 1008.56,-11.07 1018.53,-14.64 1018.58,-7.64"/>
</g>
<!-- Node28&#45;&gt;Node19 -->
<g id="edge72" class="edge">
<title>Node28&#45;&gt;Node19</title>
<path fill="none" stroke="midnightblue" d="M1520.8,-324.48C1502.72,-316 1474.41,-302.74 1451.19,-291.86"/>
<polygon fill="midnightblue" stroke="midnightblue" points="1452.47,-288.6 1441.93,-287.52 1449.5,-294.93 1452.47,-288.6"/>
</g>
<!-- Node29&#45;&gt;Node8 -->
<g id="edge75" class="edge">
<title>Node29&#45;&gt;Node8</title>
<path fill="none" stroke="midnightblue" d="M1008.36,-380.39C1019.47,-361.68 1044,-315.63 1044,-273.5 1044,-273.5 1044,-273.5 1044,-137.5 1044,-92.12 1007.62,-48.98 985.2,-26.7"/>
<polygon fill="midnightblue" stroke="midnightblue" points="987.57,-24.13 977.94,-19.73 982.72,-29.18 987.57,-24.13"/>
</g>
<!-- Node29&#45;&gt;Node30 -->
<g id="edge76" class="edge">
<title>Node29&#45;&gt;Node30</title>
<path fill="none" stroke="midnightblue" d="M996.73,-380.08C991.36,-372.46 983.48,-361.26 976.92,-351.94"/>
<polygon fill="midnightblue" stroke="midnightblue" points="979.78,-349.91 971.16,-343.75 974.05,-353.94 979.78,-349.91"/>
</g>
<!-- Node30&#45;&gt;Node8 -->
<g id="edge77" class="edge">
<title>Node30&#45;&gt;Node8</title>
<path fill="none" stroke="midnightblue" d="M969.86,-324.42C980.72,-304.42 1006,-252.9 1006,-206.5 1006,-206.5 1006,-206.5 1006,-137.5 1006,-97.35 988.22,-52.95 976.99,-28.89"/>
<polygon fill="midnightblue" stroke="midnightblue" points="980.01,-27.1 972.51,-19.63 973.71,-30.15 980.01,-27.1"/>
</g>
</g>
</svg>
        <g id="navigator" transform="translate(0 0)" fill="#404254">
                <rect fill="#f2f5e9" fill-opacity="0.5" stroke="#606060" stroke-width=".5" x="0" y="0" width="60" height="60"/>
                <use id="zoomplus" xlink:href="#zoomPlus" x="17" y="9" onmousedown="handleZoom(evt,'in')"/>
                <use id="zoomminus" xlink:href="#zoomMin" x="42" y="9" onmousedown="handleZoom(evt,'out')"/>
                <use id="reset" xlink:href="#resetDef" x="30" y="36" onmousedown="handleReset()"/>
                <g id="arrowUp" xlink:href="#dirArrow" transform="translate(30 24)" onmousedown="handlePan(0,-1)">
                  <use xlink:href="#rim" fill="#404040">
                        <set attributeName="fill" to="#808080" begin="arrowUp.mouseover" end="arrowUp.mouseout"/>
                  </use>
                  <path fill="none" stroke="white" stroke-width="1.5" d="M0,-3.0v7 M-2.5,-0.5L0,-3.0L2.5,-0.5"/>
                </g>
                <g id="arrowRight" xlink:href="#dirArrow" transform="rotate(90) translate(36 -43)" onmousedown="handlePan(1,0)">
                  <use xlink:href="#rim" fill="#404040">
                        <set attributeName="fill" to="#808080" begin="arrowRight.mouseover" end="arrowRight.mouseout"/>
                  </use>
                  <path fill="none" stroke="white" stroke-width="1.5" d="M0,-3.0v7 M-2.5,-0.5L0,-3.0L2.5,-0.5"/>
                </g>
                <g id="arrowDown" xlink:href="#dirArrow" transform="rotate(180) translate(-30 -48)" onmousedown="handlePan(0,1)">
                  <use xlink:href="#rim" fill="#404040">
                        <set attributeName="fill" to="#808080" begin="arrowDown.mouseover" end="arrowDown.mouseout"/>
                  </use>
                  <path fill="none" stroke="white" stroke-width="1.5" d="M0,-3.0v7 M-2.5,-0.5L0,-3.0L2.5,-0.5"/>
                </g>
                <g id="arrowLeft" xlink:href="#dirArrow" transform="rotate(270) translate(-36 17)" onmousedown="handlePan(-1,0)">
                  <use xlink:href="#rim" fill="#404040">
                        <set attributeName="fill" to="#808080" begin="arrowLeft.mouseover" end="arrowLeft.mouseout"/>
                  </use>
                  <path fill="none" stroke="white" stroke-width="1.5" d="M0,-3.0v7 M-2.5,-0.5L0,-3.0L2.5,-0.5"/>
                </g>
        </g>
        <svg viewBox="0 0 15 15" width="100%" height="30px" preserveAspectRatio="xMaxYMin meet">
         <g id="arrow_out" transform="scale(0.3 0.3)">
          <a xlink:href="m__Do__dvd__thread_8h__incl_org.svg" target="_base">
           <rect id="button" ry="5" rx="5" y="6" x="6" height="38" width="38"
                fill="#f2f5e9" fill-opacity="0.5" stroke="#606060" stroke-width="1.0"/>
           <path id="arrow"
             d="M 11.500037,31.436501 C 11.940474,20.09759 22.043105,11.32322 32.158766,21.979434 L 37.068811,17.246167 C 37.068811,17.246167 37.088388,32 37.088388,32 L 22.160133,31.978069 C 22.160133,31.978069 26.997745,27.140456 26.997745,27.140456 C 18.528582,18.264221 13.291696,25.230495 11.500037,31.436501 z"
             style="fill:#404040;"/>
          </a>
         </g>
        </svg>
</svg>
