<?xml version="1.0" encoding="UTF-8" standalone="no"?>
<!DOCTYPE svg PUBLIC "-//W3C//DTD SVG 1.1//EN"
 "http://www.w3.org/Graphics/SVG/1.1/DTD/svg11.dtd">
<!-- Generated by graphviz version 2.44.0 ()
 -->
<!-- Title: include/m_Do/m_Do_main.h Pages: 1 -->
<svg width="598pt" height="151pt"
 viewBox="0.00 0.00 597.50 151.00" xmlns="http://www.w3.org/2000/svg" xmlns:xlink="http://www.w3.org/1999/xlink">
<g id="graph0" class="graph" transform="scale(1 1) rotate(0) translate(4 147)">
<title>include/m_Do/m_Do_main.h</title>
<polygon fill="white" stroke="transparent" points="-4,4 -4,-147 593.5,-147 593.5,4 -4,4"/>
<!-- Node1 -->
<g id="node1" class="node">
<title>Node1</title>
<g id="a_node1"><a xlink:title=" ">
<polygon fill="#bfbfbf" stroke="black" points="208.5,-123.5 208.5,-142.5 346.5,-142.5 346.5,-123.5 208.5,-123.5"/>
<text text-anchor="middle" x="277.5" y="-130.5" font-family="Helvetica,sans-Serif" font-size="10.00">include/m_Do/m_Do_main.h</text>
</a>
</g>
</g>
<!-- Node2 -->
<g id="node2" class="node">
<title>Node2</title>
<g id="a_node2"><a xlink:href="f__ap__game_8cpp.html" target="_top" xlink:title=" ">
<polygon fill="white" stroke="black" points="0,-62 0,-81 121,-81 121,-62 0,-62"/>
<text text-anchor="middle" x="60.5" y="-69" font-family="Helvetica,sans-Serif" font-size="10.00">src/f_ap/f_ap_game.cpp</text>
</a>
</g>
</g>
<!-- Node1&#45;&gt;Node2 -->
<g id="edge1" class="edge">
<title>Node1&#45;&gt;Node2</title>
<path fill="none" stroke="midnightblue" d="M236.73,-120.82C194.58,-109.26 129.7,-91.47 91.53,-81.01"/>
<polygon fill="midnightblue" stroke="midnightblue" points="235.84,-124.21 246.41,-123.48 237.69,-117.46 235.84,-124.21"/>
</g>
<!-- Node3 -->
<g id="node3" class="node">
<title>Node3</title>
<g id="a_node3"><a xlink:href="m__Do__machine__exception_8cpp.html" target="_top" xlink:title=" ">
<polygon fill="white" stroke="black" points="139,-56.5 139,-86.5 268,-86.5 268,-56.5 139,-56.5"/>
<text text-anchor="start" x="147" y="-74.5" font-family="Helvetica,sans-Serif" font-size="10.00">src/m_Do/m_Do_machine</text>
<text text-anchor="middle" x="203.5" y="-63.5" font-family="Helvetica,sans-Serif" font-size="10.00">_exception.cpp</text>
</a>
</g>
</g>
<!-- Node1&#45;&gt;Node3 -->
<g id="edge2" class="edge">
<title>Node1&#45;&gt;Node3</title>
<path fill="none" stroke="midnightblue" d="M259.09,-117.2C247.42,-107.81 232.42,-95.75 220.94,-86.52"/>
<polygon fill="midnightblue" stroke="midnightblue" points="256.91,-119.94 266.9,-123.48 261.3,-114.48 256.91,-119.94"/>
</g>
<!-- Node4 -->
<g id="node4" class="node">
<title>Node4</title>
<g id="a_node4"><a xlink:href="m__Do__main_8cpp.html" target="_top" xlink:title=" ">
<polygon fill="white" stroke="black" points="286,-62 286,-81 417,-81 417,-62 286,-62"/>
<text text-anchor="middle" x="351.5" y="-69" font-family="Helvetica,sans-Serif" font-size="10.00">src/m_Do/m_Do_main.cpp</text>
</a>
</g>
</g>
<!-- Node1&#45;&gt;Node4 -->
<g id="edge3" class="edge">
<title>Node1&#45;&gt;Node4</title>
<path fill="none" stroke="midnightblue" d="M296.19,-116.97C310.34,-105.59 329.28,-90.37 340.92,-81.01"/>
<polygon fill="midnightblue" stroke="midnightblue" points="293.7,-114.48 288.1,-123.48 298.09,-119.94 293.7,-114.48"/>
</g>
<!-- Node5 -->
<g id="node5" class="node">
<title>Node5</title>
<g id="a_node5"><a xlink:href="m__Do__machine_8h.html" target="_top" xlink:title=" ">
<polygon fill="white" stroke="black" points="435.5,-62 435.5,-81 589.5,-81 589.5,-62 435.5,-62"/>
<text text-anchor="middle" x="512.5" y="-69" font-family="Helvetica,sans-Serif" font-size="10.00">include/m_Do/m_Do_machine.h</text>
</a>
</g>
</g>
<!-- Node1&#45;&gt;Node5 -->
<g id="edge4" class="edge">
<title>Node1&#45;&gt;Node5</title>
<path fill="none" stroke="midnightblue" d="M321.07,-120.97C366.7,-109.41 437.39,-91.52 478.89,-81.01"/>
<polygon fill="midnightblue" stroke="midnightblue" points="320,-117.63 311.17,-123.48 321.72,-124.41 320,-117.63"/>
</g>
<!-- Node6 -->
<g id="node6" class="node">
<title>Node6</title>
<g id="a_node6"><a xlink:href="m__Do__machine_8cpp.html" target="_top" xlink:title=" ">
<polygon fill="white" stroke="black" points="439,-0.5 439,-19.5 586,-19.5 586,-0.5 439,-0.5"/>
<text text-anchor="middle" x="512.5" y="-7.5" font-family="Helvetica,sans-Serif" font-size="10.00">src/m_Do/m_Do_machine.cpp</text>
</a>
</g>
</g>
<!-- Node5&#45;&gt;Node6 -->
<g id="edge5" class="edge">
<title>Node5&#45;&gt;Node6</title>
<path fill="none" stroke="midnightblue" d="M512.5,-51.82C512.5,-41 512.5,-27.9 512.5,-19.51"/>
<polygon fill="midnightblue" stroke="midnightblue" points="509,-51.98 512.5,-61.98 516,-51.98 509,-51.98"/>
</g>
</g>
</svg>
