<?xml version="1.0" encoding="UTF-8" standalone="no"?>
<!DOCTYPE svg PUBLIC "-//W3C//DTD SVG 1.1//EN"
 "http://www.w3.org/Graphics/SVG/1.1/DTD/svg11.dtd">
<!-- Generated by graphviz version 2.44.0 ()
 -->
<!-- Title: include/dolphin/mtx/mtx44.h Pages: 1 -->
<svg width="1878pt" height="620pt"
 viewBox="0.00 0.00 1877.50 620.00" xmlns="http://www.w3.org/2000/svg" xmlns:xlink="http://www.w3.org/1999/xlink">
<g id="graph0" class="graph" transform="scale(1 1) rotate(0) translate(4 616)">
<title>include/dolphin/mtx/mtx44.h</title>
<polygon fill="white" stroke="transparent" points="-4,4 -4,-616 1873.5,-616 1873.5,4 -4,4"/>
<!-- Node1 -->
<g id="node1" class="node">
<title>Node1</title>
<g id="a_node1"><a xlink:title=" ">
<polygon fill="#bfbfbf" stroke="black" points="765,-581.5 765,-611.5 865,-611.5 865,-581.5 765,-581.5"/>
<text text-anchor="start" x="773" y="-599.5" font-family="Helvetica,sans-Serif" font-size="10.00">include/dolphin/mtx</text>
<text text-anchor="middle" x="815" y="-588.5" font-family="Helvetica,sans-Serif" font-size="10.00">/mtx44.h</text>
</a>
</g>
</g>
<!-- Node2 -->
<g id="node2" class="node">
<title>Node2</title>
<g id="a_node2"><a xlink:href="d__drawlist_8cpp.html" target="_top" xlink:title=" ">
<polygon fill="white" stroke="black" points="462,-458.5 462,-477.5 566,-477.5 566,-458.5 462,-458.5"/>
<text text-anchor="middle" x="514" y="-465.5" font-family="Helvetica,sans-Serif" font-size="10.00">src/d/d_drawlist.cpp</text>
</a>
</g>
</g>
<!-- Node1&#45;&gt;Node2 -->
<g id="edge1" class="edge">
<title>Node1&#45;&gt;Node2</title>
<path fill="none" stroke="midnightblue" d="M766.65,-577.96C741.3,-568.56 709.81,-556.56 682,-545 626.72,-522.03 562.56,-492.06 531.99,-477.58"/>
<polygon fill="midnightblue" stroke="midnightblue" points="765.46,-581.25 776.05,-581.43 767.88,-574.69 765.46,-581.25"/>
</g>
<!-- Node3 -->
<g id="node3" class="node">
<title>Node3</title>
<g id="a_node3"><a xlink:href="mtx44_8cpp.html" target="_top" xlink:title=" ">
<polygon fill="white" stroke="black" points="819.5,-520 819.5,-539 950.5,-539 950.5,-520 819.5,-520"/>
<text text-anchor="middle" x="885" y="-527" font-family="Helvetica,sans-Serif" font-size="10.00">libs/dolphin/mtx/mtx44.cpp</text>
</a>
</g>
</g>
<!-- Node1&#45;&gt;Node3 -->
<g id="edge2" class="edge">
<title>Node1&#45;&gt;Node3</title>
<path fill="none" stroke="midnightblue" d="M837.79,-574.34C850.65,-562.4 866.01,-548.14 875.64,-539.19"/>
<polygon fill="midnightblue" stroke="midnightblue" points="835.14,-572.03 830.19,-581.4 839.9,-577.16 835.14,-572.03"/>
</g>
<!-- Node4 -->
<g id="node4" class="node">
<title>Node4</title>
<g id="a_node4"><a xlink:href="JFWDisplay_8cpp.html" target="_top" xlink:title=" ">
<polygon fill="white" stroke="black" points="969,-514.5 969,-544.5 1099,-544.5 1099,-514.5 969,-514.5"/>
<text text-anchor="start" x="977" y="-532.5" font-family="Helvetica,sans-Serif" font-size="10.00">libs/JSystem/JFramework</text>
<text text-anchor="middle" x="1034" y="-521.5" font-family="Helvetica,sans-Serif" font-size="10.00">/JFWDisplay.cpp</text>
</a>
</g>
</g>
<!-- Node1&#45;&gt;Node4 -->
<g id="edge3" class="edge">
<title>Node1&#45;&gt;Node4</title>
<path fill="none" stroke="midnightblue" d="M872.01,-578.58C907.58,-568.02 952.83,-554.59 986.46,-544.61"/>
<polygon fill="midnightblue" stroke="midnightblue" points="870.84,-575.28 862.25,-581.48 872.83,-581.99 870.84,-575.28"/>
</g>
<!-- Node5 -->
<g id="node5" class="node">
<title>Node5</title>
<g id="a_node5"><a xlink:href="d__drawlist_8h.html" target="_top" xlink:title=" ">
<polygon fill="white" stroke="black" points="691,-520 691,-539 801,-539 801,-520 691,-520"/>
<text text-anchor="middle" x="746" y="-527" font-family="Helvetica,sans-Serif" font-size="10.00">include/d/d_drawlist.h</text>
</a>
</g>
</g>
<!-- Node1&#45;&gt;Node5 -->
<g id="edge4" class="edge">
<title>Node1&#45;&gt;Node5</title>
<path fill="none" stroke="midnightblue" d="M792.53,-574.34C779.86,-562.4 764.72,-548.14 755.23,-539.19"/>
<polygon fill="midnightblue" stroke="midnightblue" points="790.35,-577.09 800.03,-581.4 795.15,-571.99 790.35,-577.09"/>
</g>
<!-- Node5&#45;&gt;Node2 -->
<g id="edge5" class="edge">
<title>Node5&#45;&gt;Node2</title>
<path fill="none" stroke="midnightblue" d="M702.99,-517.47C657.94,-505.91 588.15,-488.02 547.18,-477.51"/>
<polygon fill="midnightblue" stroke="midnightblue" points="702.2,-520.88 712.76,-519.98 703.94,-514.1 702.2,-520.88"/>
</g>
<!-- Node6 -->
<g id="node6" class="node">
<title>Node6</title>
<g id="a_node6"><a xlink:href="d__a__alink_8h.html" target="_top" xlink:title=" ">
<polygon fill="white" stroke="black" points="1227,-201.5 1227,-220.5 1343,-220.5 1343,-201.5 1227,-201.5"/>
<text text-anchor="middle" x="1285" y="-208.5" font-family="Helvetica,sans-Serif" font-size="10.00">include/d/a/d_a_alink.h</text>
</a>
</g>
</g>
<!-- Node5&#45;&gt;Node6 -->
<g id="edge6" class="edge">
<title>Node5&#45;&gt;Node6</title>
<path fill="none" stroke="midnightblue" d="M792.16,-517.85C798.48,-516.49 804.89,-515.17 811,-514 957.34,-485.93 1473,-556.5 1473,-407.5 1473,-407.5 1473,-407.5 1473,-338.5 1473,-299.08 1467.49,-283.16 1438,-257 1411.9,-233.85 1374.43,-222.59 1343.1,-217.12"/>
<polygon fill="midnightblue" stroke="midnightblue" points="791.38,-514.43 782.36,-519.99 792.88,-521.27 791.38,-514.43"/>
</g>
<!-- Node8 -->
<g id="node8" class="node">
<title>Node8</title>
<g id="a_node8"><a xlink:href="d__com__inf__game_8h.html" target="_top" xlink:title=" ">
<polygon fill="white" stroke="black" points="849,-134.5 849,-164.5 959,-164.5 959,-134.5 849,-134.5"/>
<text text-anchor="start" x="857" y="-152.5" font-family="Helvetica,sans-Serif" font-size="10.00">include/d/com/d_com</text>
<text text-anchor="middle" x="904" y="-141.5" font-family="Helvetica,sans-Serif" font-size="10.00">_inf_game.h</text>
</a>
</g>
</g>
<!-- Node5&#45;&gt;Node8 -->
<g id="edge50" class="edge">
<title>Node5&#45;&gt;Node8</title>
<path fill="none" stroke="midnightblue" d="M707.19,-516.54C662.15,-499.96 594,-465.32 594,-407.5 594,-407.5 594,-407.5 594,-271.5 594,-239.05 589.03,-222.87 613,-201 646.71,-170.24 774.23,-157.84 848.81,-153.14"/>
<polygon fill="midnightblue" stroke="midnightblue" points="706.1,-519.86 716.69,-519.9 708.43,-513.26 706.1,-519.86"/>
</g>
<!-- Node23 -->
<g id="node23" class="node">
<title>Node23</title>
<g id="a_node23"><a xlink:href="d__kantera__icon__meter_8h.html" target="_top" xlink:title=" ">
<polygon fill="white" stroke="black" points="1765.5,-67.5 1765.5,-97.5 1866.5,-97.5 1866.5,-67.5 1765.5,-67.5"/>
<text text-anchor="start" x="1773.5" y="-85.5" font-family="Helvetica,sans-Serif" font-size="10.00">include/d/d_kantera</text>
<text text-anchor="middle" x="1816" y="-74.5" font-family="Helvetica,sans-Serif" font-size="10.00">_icon_meter.h</text>
</a>
</g>
</g>
<!-- Node5&#45;&gt;Node23 -->
<g id="edge51" class="edge">
<title>Node5&#45;&gt;Node23</title>
<path fill="none" stroke="midnightblue" d="M789.71,-517.73C796.8,-516.28 804.08,-514.96 811,-514 1088.34,-475.39 1164.38,-527.39 1440,-478 1545.24,-459.14 1670,-514.42 1670,-407.5 1670,-407.5 1670,-407.5 1670,-210 1670,-153.15 1734,-116.13 1777.26,-97.6"/>
<polygon fill="midnightblue" stroke="midnightblue" points="788.58,-514.4 779.55,-519.93 790.06,-521.24 788.58,-514.4"/>
</g>
<!-- Node25 -->
<g id="node25" class="node">
<title>Node25</title>
<g id="a_node25"><a xlink:href="d__a__player_8h.html" target="_top" xlink:title=" ">
<polygon fill="white" stroke="black" points="711.5,-458.5 711.5,-477.5 832.5,-477.5 832.5,-458.5 711.5,-458.5"/>
<text text-anchor="middle" x="772" y="-465.5" font-family="Helvetica,sans-Serif" font-size="10.00">include/d/a/d_a_player.h</text>
</a>
</g>
</g>
<!-- Node5&#45;&gt;Node25 -->
<g id="edge27" class="edge">
<title>Node5&#45;&gt;Node25</title>
<path fill="none" stroke="midnightblue" d="M753.87,-510.5C758.65,-499.55 764.54,-486.07 768.28,-477.51"/>
<polygon fill="midnightblue" stroke="midnightblue" points="750.52,-509.41 749.73,-519.98 756.94,-512.21 750.52,-509.41"/>
</g>
<!-- Node7 -->
<g id="node7" class="node">
<title>Node7</title>
<g id="a_node7"><a xlink:href="d__a__alink_8cpp.html" target="_top" xlink:title=" ">
<polygon fill="white" stroke="black" points="1638.5,-73 1638.5,-92 1747.5,-92 1747.5,-73 1638.5,-73"/>
<text text-anchor="middle" x="1693" y="-80" font-family="Helvetica,sans-Serif" font-size="10.00">src/d/a/d_a_alink.cpp</text>
</a>
</g>
</g>
<!-- Node6&#45;&gt;Node7 -->
<g id="edge7" class="edge">
<title>Node6&#45;&gt;Node7</title>
<path fill="none" stroke="midnightblue" d="M1322.53,-198.36C1403.76,-173.18 1594.3,-114.1 1665.51,-92.02"/>
<polygon fill="midnightblue" stroke="midnightblue" points="1321.24,-195.1 1312.72,-201.4 1323.31,-201.79 1321.24,-195.1"/>
</g>
<!-- Node6&#45;&gt;Node8 -->
<g id="edge8" class="edge">
<title>Node6&#45;&gt;Node8</title>
<path fill="none" stroke="midnightblue" d="M1220.36,-199.91C1146.92,-188.44 1028.33,-169.92 959.1,-159.11"/>
<polygon fill="midnightblue" stroke="midnightblue" points="1219.99,-203.39 1230.41,-201.48 1221.07,-196.47 1219.99,-203.39"/>
</g>
<!-- Node8&#45;&gt;Node7 -->
<g id="edge11" class="edge">
<title>Node8&#45;&gt;Node7</title>
<path fill="none" stroke="midnightblue" d="M969.43,-147.38C1097.12,-144.44 1388.17,-134.01 1630,-98 1639.99,-96.51 1650.74,-94.28 1660.49,-92.01"/>
<polygon fill="midnightblue" stroke="midnightblue" points="969.34,-143.88 959.42,-147.6 969.5,-150.88 969.34,-143.88"/>
</g>
<!-- Node9 -->
<g id="node9" class="node">
<title>Node9</title>
<g id="a_node9"><a xlink:href="d__a__player_8cpp.html" target="_top" xlink:title=" ">
<polygon fill="white" stroke="black" points="0,-73 0,-92 114,-92 114,-73 0,-73"/>
<text text-anchor="middle" x="57" y="-80" font-family="Helvetica,sans-Serif" font-size="10.00">src/d/a/d_a_player.cpp</text>
</a>
</g>
</g>
<!-- Node8&#45;&gt;Node9 -->
<g id="edge9" class="edge">
<title>Node8&#45;&gt;Node9</title>
<path fill="none" stroke="midnightblue" d="M838.65,-147.62C704.08,-145.06 386.55,-135.25 123,-98 112.55,-96.52 101.28,-94.29 91.08,-92.02"/>
<polygon fill="midnightblue" stroke="midnightblue" points="838.73,-151.12 848.79,-147.8 838.85,-144.12 838.73,-151.12"/>
</g>
<!-- Node10 -->
<g id="node10" class="node">
<title>Node10</title>
<g id="a_node10"><a xlink:href="d__com__inf__game_8cpp.html" target="_top" xlink:title=" ">
<polygon fill="white" stroke="black" points="657,-0.5 657,-30.5 765,-30.5 765,-0.5 657,-0.5"/>
<text text-anchor="start" x="665" y="-18.5" font-family="Helvetica,sans-Serif" font-size="10.00">src/d/com/d_com_inf</text>
<text text-anchor="middle" x="711" y="-7.5" font-family="Helvetica,sans-Serif" font-size="10.00">_game.cpp</text>
</a>
</g>
</g>
<!-- Node8&#45;&gt;Node10 -->
<g id="edge10" class="edge">
<title>Node8&#45;&gt;Node10</title>
<path fill="none" stroke="midnightblue" d="M838.64,-145C802.24,-139.64 758.79,-127.02 731,-98 713.47,-79.69 710.53,-48.62 710.44,-30.59"/>
<polygon fill="midnightblue" stroke="midnightblue" points="838.32,-148.49 848.7,-146.33 839.24,-141.55 838.32,-148.49"/>
</g>
<!-- Node11 -->
<g id="node11" class="node">
<title>Node11</title>
<g id="a_node11"><a xlink:href="d__resorce_8cpp.html" target="_top" xlink:title=" ">
<polygon fill="white" stroke="black" points="853,-73 853,-92 955,-92 955,-73 853,-73"/>
<text text-anchor="middle" x="904" y="-80" font-family="Helvetica,sans-Serif" font-size="10.00">src/d/d_resorce.cpp</text>
</a>
</g>
</g>
<!-- Node8&#45;&gt;Node11 -->
<g id="edge12" class="edge">
<title>Node8&#45;&gt;Node11</title>
<path fill="none" stroke="midnightblue" d="M904,-124.25C904,-113.02 904,-100.38 904,-92.19"/>
<polygon fill="midnightblue" stroke="midnightblue" points="900.5,-124.4 904,-134.4 907.5,-124.4 900.5,-124.4"/>
</g>
<!-- Node12 -->
<g id="node12" class="node">
<title>Node12</title>
<g id="a_node12"><a xlink:href="d__stage_8cpp.html" target="_top" xlink:title=" ">
<polygon fill="white" stroke="black" points="973,-73 973,-92 1067,-92 1067,-73 973,-73"/>
<text text-anchor="middle" x="1020" y="-80" font-family="Helvetica,sans-Serif" font-size="10.00">src/d/d_stage.cpp</text>
</a>
</g>
</g>
<!-- Node8&#45;&gt;Node12 -->
<g id="edge13" class="edge">
<title>Node8&#45;&gt;Node12</title>
<path fill="none" stroke="midnightblue" d="M937.96,-129.47C960.1,-117.06 987.93,-101.47 1004.82,-92.01"/>
<polygon fill="midnightblue" stroke="midnightblue" points="936.18,-126.45 929.17,-134.4 939.6,-132.56 936.18,-126.45"/>
</g>
<!-- Node13 -->
<g id="node13" class="node">
<title>Node13</title>
<g id="a_node13"><a xlink:href="d__event_8cpp.html" target="_top" xlink:title=" ">
<polygon fill="white" stroke="black" points="132.5,-73 132.5,-92 253.5,-92 253.5,-73 132.5,-73"/>
<text text-anchor="middle" x="193" y="-80" font-family="Helvetica,sans-Serif" font-size="10.00">src/d/event/d_event.cpp</text>
</a>
</g>
</g>
<!-- Node8&#45;&gt;Node13 -->
<g id="edge14" class="edge">
<title>Node8&#45;&gt;Node13</title>
<path fill="none" stroke="midnightblue" d="M838.6,-146.14C722.17,-141.31 471.47,-128.12 262,-98 251.34,-96.47 239.85,-94.27 229.37,-92.06"/>
<polygon fill="midnightblue" stroke="midnightblue" points="838.64,-149.64 848.77,-146.55 838.93,-142.65 838.64,-149.64"/>
</g>
<!-- Node14 -->
<g id="node14" class="node">
<title>Node14</title>
<g id="a_node14"><a xlink:href="d__event__manager_8cpp.html" target="_top" xlink:title=" ">
<polygon fill="white" stroke="black" points="1085.5,-67.5 1085.5,-97.5 1188.5,-97.5 1188.5,-67.5 1085.5,-67.5"/>
<text text-anchor="start" x="1093.5" y="-85.5" font-family="Helvetica,sans-Serif" font-size="10.00">src/d/event/d_event</text>
<text text-anchor="middle" x="1137" y="-74.5" font-family="Helvetica,sans-Serif" font-size="10.00">_manager.cpp</text>
</a>
</g>
</g>
<!-- Node8&#45;&gt;Node14 -->
<g id="edge15" class="edge">
<title>Node8&#45;&gt;Node14</title>
<path fill="none" stroke="midnightblue" d="M964.17,-131.71C1002.08,-121.14 1050.49,-107.63 1086.42,-97.61"/>
<polygon fill="midnightblue" stroke="midnightblue" points="962.96,-128.42 954.27,-134.48 964.84,-135.16 962.96,-128.42"/>
</g>
<!-- Node15 -->
<g id="node15" class="node">
<title>Node15</title>
<g id="a_node15"><a xlink:href="d__kankyo_8cpp.html" target="_top" xlink:title=" ">
<polygon fill="white" stroke="black" points="1207,-73 1207,-92 1341,-92 1341,-73 1207,-73"/>
<text text-anchor="middle" x="1274" y="-80" font-family="Helvetica,sans-Serif" font-size="10.00">src/d/kankyo/d_kankyo.cpp</text>
</a>
</g>
</g>
<!-- Node8&#45;&gt;Node15 -->
<g id="edge16" class="edge">
<title>Node8&#45;&gt;Node15</title>
<path fill="none" stroke="midnightblue" d="M969.08,-137.67C1028.69,-127.67 1119.36,-112.25 1198,-98 1208.31,-96.13 1219.39,-94.06 1229.82,-92.07"/>
<polygon fill="midnightblue" stroke="midnightblue" points="968.34,-134.25 959.05,-139.35 969.49,-141.15 968.34,-134.25"/>
</g>
<!-- Node16 -->
<g id="node16" class="node">
<title>Node16</title>
<g id="a_node16"><a xlink:href="d__meter2__info_8cpp.html" target="_top" xlink:title=" ">
<polygon fill="white" stroke="black" points="1359,-67.5 1359,-97.5 1469,-97.5 1469,-67.5 1359,-67.5"/>
<text text-anchor="start" x="1367" y="-85.5" font-family="Helvetica,sans-Serif" font-size="10.00">src/d/meter/d_meter2</text>
<text text-anchor="middle" x="1414" y="-74.5" font-family="Helvetica,sans-Serif" font-size="10.00">_info.cpp</text>
</a>
</g>
</g>
<!-- Node8&#45;&gt;Node16 -->
<g id="edge17" class="edge">
<title>Node8&#45;&gt;Node16</title>
<path fill="none" stroke="midnightblue" d="M969.21,-143.38C1056.38,-136.02 1215.49,-120.78 1350,-98 1352.92,-97.51 1355.91,-96.96 1358.92,-96.38"/>
<polygon fill="midnightblue" stroke="midnightblue" points="968.88,-139.9 959.2,-144.22 969.46,-146.87 968.88,-139.9"/>
</g>
<!-- Node17 -->
<g id="node17" class="node">
<title>Node17</title>
<g id="a_node17"><a xlink:href="d__msg__flow_8cpp.html" target="_top" xlink:title=" ">
<polygon fill="white" stroke="black" points="1487.5,-73 1487.5,-92 1620.5,-92 1620.5,-73 1487.5,-73"/>
<text text-anchor="middle" x="1554" y="-80" font-family="Helvetica,sans-Serif" font-size="10.00">src/d/msg/d_msg_flow.cpp</text>
</a>
</g>
</g>
<!-- Node8&#45;&gt;Node17 -->
<g id="edge18" class="edge">
<title>Node8&#45;&gt;Node17</title>
<path fill="none" stroke="midnightblue" d="M969.52,-144.89C1076.36,-138.52 1294.61,-123.5 1478,-98 1489.57,-96.39 1502.06,-94.2 1513.5,-92.01"/>
<polygon fill="midnightblue" stroke="midnightblue" points="968.99,-141.42 959.22,-145.5 969.41,-148.4 968.99,-141.42"/>
</g>
<!-- Node18 -->
<g id="node18" class="node">
<title>Node18</title>
<g id="a_node18"><a xlink:href="d__save_8cpp.html" target="_top" xlink:title=" ">
<polygon fill="white" stroke="black" points="271.5,-73 271.5,-92 386.5,-92 386.5,-73 271.5,-73"/>
<text text-anchor="middle" x="329" y="-80" font-family="Helvetica,sans-Serif" font-size="10.00">src/d/save/d_save.cpp</text>
</a>
</g>
</g>
<!-- Node8&#45;&gt;Node18 -->
<g id="edge19" class="edge">
<title>Node8&#45;&gt;Node18</title>
<path fill="none" stroke="midnightblue" d="M838.48,-144.47C741.26,-137.93 553.24,-123.14 395,-98 384.92,-96.4 374.07,-94.21 364.13,-92.02"/>
<polygon fill="midnightblue" stroke="midnightblue" points="838.53,-147.98 848.74,-145.15 839,-141 838.53,-147.98"/>
</g>
<!-- Node19 -->
<g id="node19" class="node">
<title>Node19</title>
<g id="a_node19"><a xlink:href="m__Do__machine__exception_8cpp.html" target="_top" xlink:title=" ">
<polygon fill="white" stroke="black" points="404.5,-67.5 404.5,-97.5 533.5,-97.5 533.5,-67.5 404.5,-67.5"/>
<text text-anchor="start" x="412.5" y="-85.5" font-family="Helvetica,sans-Serif" font-size="10.00">src/m_Do/m_Do_machine</text>
<text text-anchor="middle" x="469" y="-74.5" font-family="Helvetica,sans-Serif" font-size="10.00">_exception.cpp</text>
</a>
</g>
</g>
<!-- Node8&#45;&gt;Node19 -->
<g id="edge20" class="edge">
<title>Node8&#45;&gt;Node19</title>
<path fill="none" stroke="midnightblue" d="M838.6,-140.53C765.97,-131.4 645.32,-115.45 542,-98 539.32,-97.55 536.6,-97.07 533.84,-96.58"/>
<polygon fill="midnightblue" stroke="midnightblue" points="838.6,-144.05 848.96,-141.82 839.47,-137.11 838.6,-144.05"/>
</g>
<!-- Node20 -->
<g id="node20" class="node">
<title>Node20</title>
<g id="a_node20"><a xlink:href="m__Do__main_8cpp.html" target="_top" xlink:title=" ">
<polygon fill="white" stroke="black" points="551.5,-73 551.5,-92 682.5,-92 682.5,-73 551.5,-73"/>
<text text-anchor="middle" x="617" y="-80" font-family="Helvetica,sans-Serif" font-size="10.00">src/m_Do/m_Do_main.cpp</text>
</a>
</g>
</g>
<!-- Node8&#45;&gt;Node20 -->
<g id="edge21" class="edge">
<title>Node8&#45;&gt;Node20</title>
<path fill="none" stroke="midnightblue" d="M838.7,-133.71C781.88,-120.84 701.52,-102.64 654.78,-92.06"/>
<polygon fill="midnightblue" stroke="midnightblue" points="838.14,-137.17 848.66,-135.97 839.68,-130.34 838.14,-137.17"/>
</g>
<!-- Node21 -->
<g id="node21" class="node">
<title>Node21</title>
<g id="a_node21"><a xlink:href="d__item_8h.html" target="_top" xlink:title=" ">
<polygon fill="white" stroke="black" points="739.5,-73 739.5,-92 834.5,-92 834.5,-73 739.5,-73"/>
<text text-anchor="middle" x="787" y="-80" font-family="Helvetica,sans-Serif" font-size="10.00">include/d/d_item.h</text>
</a>
</g>
</g>
<!-- Node8&#45;&gt;Node21 -->
<g id="edge22" class="edge">
<title>Node8&#45;&gt;Node21</title>
<path fill="none" stroke="midnightblue" d="M869.75,-129.47C847.42,-117.06 819.35,-101.47 802.31,-92.01"/>
<polygon fill="midnightblue" stroke="midnightblue" points="868.17,-132.6 878.61,-134.4 871.57,-126.48 868.17,-132.6"/>
</g>
<!-- Node8&#45;&gt;Node23 -->
<g id="edge25" class="edge">
<title>Node8&#45;&gt;Node23</title>
<path fill="none" stroke="midnightblue" d="M969.63,-148.66C1113.24,-148.14 1465.79,-142.03 1757,-98 1759.71,-97.59 1762.48,-97.11 1765.27,-96.59"/>
<polygon fill="midnightblue" stroke="midnightblue" points="969.24,-145.17 959.25,-148.69 969.26,-152.17 969.24,-145.17"/>
</g>
<!-- Node21&#45;&gt;Node10 -->
<g id="edge23" class="edge">
<title>Node21&#45;&gt;Node10</title>
<path fill="none" stroke="midnightblue" d="M768.79,-65.93C756.22,-55.18 739.65,-41 727.47,-30.59"/>
<polygon fill="midnightblue" stroke="midnightblue" points="766.88,-68.89 776.75,-72.73 771.43,-63.57 766.88,-68.89"/>
</g>
<!-- Node22 -->
<g id="node22" class="node">
<title>Node22</title>
<g id="a_node22"><a xlink:href="d__item_8cpp.html" target="_top" xlink:title=" ">
<polygon fill="white" stroke="black" points="783.5,-6 783.5,-25 872.5,-25 872.5,-6 783.5,-6"/>
<text text-anchor="middle" x="828" y="-13" font-family="Helvetica,sans-Serif" font-size="10.00">src/d/d_item.cpp</text>
</a>
</g>
</g>
<!-- Node21&#45;&gt;Node22 -->
<g id="edge24" class="edge">
<title>Node21&#45;&gt;Node22</title>
<path fill="none" stroke="midnightblue" d="M798.02,-64.03C805.95,-51.45 816.33,-35.01 822.56,-25.13"/>
<polygon fill="midnightblue" stroke="midnightblue" points="794.9,-62.41 792.53,-72.73 800.82,-66.14 794.9,-62.41"/>
</g>
<!-- Node24 -->
<g id="node24" class="node">
<title>Node24</title>
<g id="a_node24"><a xlink:href="d__kantera__icon__meter_8cpp.html" target="_top" xlink:title=" ">
<polygon fill="white" stroke="black" points="1762.5,-0.5 1762.5,-30.5 1869.5,-30.5 1869.5,-0.5 1762.5,-0.5"/>
<text text-anchor="start" x="1770.5" y="-18.5" font-family="Helvetica,sans-Serif" font-size="10.00">src/d/d_kantera_icon</text>
<text text-anchor="middle" x="1816" y="-7.5" font-family="Helvetica,sans-Serif" font-size="10.00">_meter.cpp</text>
</a>
</g>
</g>
<!-- Node23&#45;&gt;Node24 -->
<g id="edge26" class="edge">
<title>Node23&#45;&gt;Node24</title>
<path fill="none" stroke="midnightblue" d="M1816,-57.11C1816,-48.15 1816,-38.32 1816,-30.58"/>
<polygon fill="midnightblue" stroke="midnightblue" points="1812.5,-57.4 1816,-67.4 1819.5,-57.4 1812.5,-57.4"/>
</g>
<!-- Node25&#45;&gt;Node6 -->
<g id="edge29" class="edge">
<title>Node25&#45;&gt;Node6</title>
<path fill="none" stroke="midnightblue" d="M842.83,-466.06C995.3,-462.34 1346.45,-444.08 1416,-355 1442.8,-320.67 1441.31,-292.45 1416,-257 1399.37,-233.71 1369.9,-222.35 1343.11,-216.86"/>
<polygon fill="midnightblue" stroke="midnightblue" points="842.56,-462.57 832.64,-466.3 842.72,-469.57 842.56,-462.57"/>
</g>
<!-- Node25&#45;&gt;Node9 -->
<g id="edge28" class="edge">
<title>Node25&#45;&gt;Node9</title>
<path fill="none" stroke="midnightblue" d="M700.92,-461.37C576.19,-449.5 331,-416.52 331,-340.5 331,-340.5 331,-340.5 331,-210 331,-158.13 167.09,-110.82 92.82,-92.05"/>
<polygon fill="midnightblue" stroke="midnightblue" points="700.86,-464.88 711.14,-462.32 701.51,-457.91 700.86,-464.88"/>
</g>
<!-- Node26 -->
<g id="node26" class="node">
<title>Node26</title>
<g id="a_node26"><a xlink:href="d__bg__s__acch_8h.html" target="_top" xlink:title=" ">
<polygon fill="white" stroke="black" points="1035,-391.5 1035,-421.5 1139,-421.5 1139,-391.5 1035,-391.5"/>
<text text-anchor="start" x="1043" y="-409.5" font-family="Helvetica,sans-Serif" font-size="10.00">include/d/bg/d_bg_s</text>
<text text-anchor="middle" x="1087" y="-398.5" font-family="Helvetica,sans-Serif" font-size="10.00">_acch.h</text>
</a>
</g>
</g>
<!-- Node25&#45;&gt;Node26 -->
<g id="edge30" class="edge">
<title>Node25&#45;&gt;Node26</title>
<path fill="none" stroke="midnightblue" d="M827.3,-456.55C885.85,-445.49 977.56,-428.17 1034.87,-417.35"/>
<polygon fill="midnightblue" stroke="midnightblue" points="826.31,-453.18 817.13,-458.48 827.61,-460.06 826.31,-453.18"/>
</g>
<!-- Node36 -->
<g id="node36" class="node">
<title>Node36</title>
<g id="a_node36"><a xlink:href="d__attention_8h.html" target="_top" xlink:title=" ">
<polygon fill="white" stroke="black" points="752,-263 752,-282 866,-282 866,-263 752,-263"/>
<text text-anchor="middle" x="809" y="-270" font-family="Helvetica,sans-Serif" font-size="10.00">include/d/d_attention.h</text>
</a>
</g>
</g>
<!-- Node25&#45;&gt;Node36 -->
<g id="edge43" class="edge">
<title>Node25&#45;&gt;Node36</title>
<path fill="none" stroke="midnightblue" d="M775.53,-448.55C783.29,-407.94 801.62,-312.07 807.3,-282.41"/>
<polygon fill="midnightblue" stroke="midnightblue" points="772.08,-447.96 773.64,-458.44 778.95,-449.27 772.08,-447.96"/>
</g>
<!-- Node38 -->
<g id="node38" class="node">
<title>Node38</title>
<g id="a_node38"><a xlink:href="d__event_8h.html" target="_top" xlink:title=" ">
<polygon fill="white" stroke="black" points="622,-201.5 622,-220.5 750,-220.5 750,-201.5 622,-201.5"/>
<text text-anchor="middle" x="686" y="-208.5" font-family="Helvetica,sans-Serif" font-size="10.00">include/d/event/d_event.h</text>
</a>
</g>
</g>
<!-- Node25&#45;&gt;Node38 -->
<g id="edge47" class="edge">
<title>Node25&#45;&gt;Node38</title>
<path fill="none" stroke="midnightblue" d="M765.79,-448.57C748.66,-397.8 701.25,-257.22 688.95,-220.74"/>
<polygon fill="midnightblue" stroke="midnightblue" points="762.53,-449.87 769.04,-458.22 769.16,-447.63 762.53,-449.87"/>
</g>
<!-- Node27 -->
<g id="node27" class="node">
<title>Node27</title>
<g id="a_node27"><a xlink:href="d__bg__s__acch_8cpp.html" target="_top" xlink:title=" ">
<polygon fill="white" stroke="black" points="1156.5,-330 1156.5,-349 1287.5,-349 1287.5,-330 1156.5,-330"/>
<text text-anchor="middle" x="1222" y="-337" font-family="Helvetica,sans-Serif" font-size="10.00">src/d/bg/d_bg_s_acch.cpp</text>
</a>
</g>
</g>
<!-- Node26&#45;&gt;Node27 -->
<g id="edge31" class="edge">
<title>Node26&#45;&gt;Node27</title>
<path fill="none" stroke="midnightblue" d="M1125.49,-386.97C1151.42,-374.48 1184.41,-358.6 1204.33,-349.01"/>
<polygon fill="midnightblue" stroke="midnightblue" points="1123.78,-383.9 1116.29,-391.4 1126.82,-390.21 1123.78,-383.9"/>
</g>
<!-- Node28 -->
<g id="node28" class="node">
<title>Node28</title>
<g id="a_node28"><a xlink:href="d__bg__w_8h.html" target="_top" xlink:title=" ">
<polygon fill="white" stroke="black" points="904.5,-330 904.5,-349 1017.5,-349 1017.5,-330 904.5,-330"/>
<text text-anchor="middle" x="961" y="-337" font-family="Helvetica,sans-Serif" font-size="10.00">include/d/bg/d_bg_w.h</text>
</a>
</g>
</g>
<!-- Node26&#45;&gt;Node28 -->
<g id="edge32" class="edge">
<title>Node26&#45;&gt;Node28</title>
<path fill="none" stroke="midnightblue" d="M1050.76,-386.8C1026.6,-374.34 996,-358.56 977.49,-349.01"/>
<polygon fill="midnightblue" stroke="midnightblue" points="1049.17,-389.92 1059.66,-391.4 1052.38,-383.7 1049.17,-389.92"/>
</g>
<!-- Node32 -->
<g id="node32" class="node">
<title>Node32</title>
<g id="a_node32"><a xlink:href="d__bomb_8h.html" target="_top" xlink:title=" ">
<polygon fill="white" stroke="black" points="1305.5,-330 1305.5,-349 1406.5,-349 1406.5,-330 1305.5,-330"/>
<text text-anchor="middle" x="1356" y="-337" font-family="Helvetica,sans-Serif" font-size="10.00">include/d/d_bomb.h</text>
</a>
</g>
</g>
<!-- Node26&#45;&gt;Node32 -->
<g id="edge38" class="edge">
<title>Node26&#45;&gt;Node32</title>
<path fill="none" stroke="midnightblue" d="M1149,-390.68C1190.82,-380.66 1247.25,-367.1 1297,-355 1304.89,-353.08 1313.37,-351.01 1321.38,-349.04"/>
<polygon fill="midnightblue" stroke="midnightblue" points="1148.14,-387.28 1139.23,-393.02 1149.77,-394.09 1148.14,-387.28"/>
</g>
<!-- Node34 -->
<g id="node34" class="node">
<title>Node34</title>
<g id="a_node34"><a xlink:href="d__particle__copoly_8h.html" target="_top" xlink:title=" ">
<polygon fill="white" stroke="black" points="1036,-324.5 1036,-354.5 1138,-354.5 1138,-324.5 1036,-324.5"/>
<text text-anchor="start" x="1044" y="-342.5" font-family="Helvetica,sans-Serif" font-size="10.00">include/d/particle</text>
<text text-anchor="middle" x="1087" y="-331.5" font-family="Helvetica,sans-Serif" font-size="10.00">/d_particle_copoly.h</text>
</a>
</g>
</g>
<!-- Node26&#45;&gt;Node34 -->
<g id="edge40" class="edge">
<title>Node26&#45;&gt;Node34</title>
<path fill="none" stroke="midnightblue" d="M1087,-381.11C1087,-372.15 1087,-362.32 1087,-354.58"/>
<polygon fill="midnightblue" stroke="midnightblue" points="1083.5,-381.4 1087,-391.4 1090.5,-381.4 1083.5,-381.4"/>
</g>
<!-- Node29 -->
<g id="node29" class="node">
<title>Node29</title>
<g id="a_node29"><a xlink:href="d__bg__w_8cpp.html" target="_top" xlink:title=" ">
<polygon fill="white" stroke="black" points="1013.5,-263 1013.5,-282 1120.5,-282 1120.5,-263 1013.5,-263"/>
<text text-anchor="middle" x="1067" y="-270" font-family="Helvetica,sans-Serif" font-size="10.00">src/d/bg/d_bg_w.cpp</text>
</a>
</g>
</g>
<!-- Node28&#45;&gt;Node29 -->
<g id="edge33" class="edge">
<title>Node28&#45;&gt;Node29</title>
<path fill="none" stroke="midnightblue" d="M983.92,-324.44C1004.92,-311.57 1035.32,-292.93 1052.93,-282.13"/>
<polygon fill="midnightblue" stroke="midnightblue" points="981.99,-321.52 975.3,-329.73 985.65,-327.49 981.99,-321.52"/>
</g>
<!-- Node30 -->
<g id="node30" class="node">
<title>Node30</title>
<g id="a_node30"><a xlink:href="d__bg__s_8h.html" target="_top" xlink:title=" ">
<polygon fill="white" stroke="black" points="884.5,-263 884.5,-282 995.5,-282 995.5,-263 884.5,-263"/>
<text text-anchor="middle" x="940" y="-270" font-family="Helvetica,sans-Serif" font-size="10.00">include/d/bg/d_bg_s.h</text>
</a>
</g>
</g>
<!-- Node28&#45;&gt;Node30 -->
<g id="edge34" class="edge">
<title>Node28&#45;&gt;Node30</title>
<path fill="none" stroke="midnightblue" d="M955,-319.91C950.98,-307.49 945.89,-291.72 942.79,-282.13"/>
<polygon fill="midnightblue" stroke="midnightblue" points="951.76,-321.29 958.17,-329.73 958.42,-319.14 951.76,-321.29"/>
</g>
<!-- Node30&#45;&gt;Node6 -->
<g id="edge36" class="edge">
<title>Node30&#45;&gt;Node6</title>
<path fill="none" stroke="midnightblue" d="M986.16,-260.84C992.48,-259.49 998.89,-258.17 1005,-257 1081.4,-242.35 1170.15,-228.64 1226.91,-220.3"/>
<polygon fill="midnightblue" stroke="midnightblue" points="985.38,-257.43 976.36,-262.98 986.88,-264.27 985.38,-257.43"/>
</g>
<!-- Node30&#45;&gt;Node8 -->
<g id="edge37" class="edge">
<title>Node30&#45;&gt;Node8</title>
<path fill="none" stroke="midnightblue" d="M985.84,-260.06C1022.4,-248.6 1064.49,-228.69 1045,-201 1025.62,-173.47 989.76,-160.87 959.06,-155.14"/>
<polygon fill="midnightblue" stroke="midnightblue" points="984.8,-256.72 976.22,-262.93 986.8,-263.42 984.8,-256.72"/>
</g>
<!-- Node31 -->
<g id="node31" class="node">
<title>Node31</title>
<g id="a_node31"><a xlink:href="d__bg__s_8cpp.html" target="_top" xlink:title=" ">
<polygon fill="white" stroke="black" points="932,-201.5 932,-220.5 1036,-220.5 1036,-201.5 932,-201.5"/>
<text text-anchor="middle" x="984" y="-208.5" font-family="Helvetica,sans-Serif" font-size="10.00">src/d/bg/d_bg_s.cpp</text>
</a>
</g>
</g>
<!-- Node30&#45;&gt;Node31 -->
<g id="edge35" class="edge">
<title>Node30&#45;&gt;Node31</title>
<path fill="none" stroke="midnightblue" d="M952.32,-254.84C960.58,-243.67 971.11,-229.43 977.71,-220.51"/>
<polygon fill="midnightblue" stroke="midnightblue" points="949.44,-252.85 946.3,-262.98 955.06,-257.02 949.44,-252.85"/>
</g>
<!-- Node33 -->
<g id="node33" class="node">
<title>Node33</title>
<g id="a_node33"><a xlink:href="d__bomb_8cpp.html" target="_top" xlink:title=" ">
<polygon fill="white" stroke="black" points="1313,-263 1313,-282 1407,-282 1407,-263 1313,-263"/>
<text text-anchor="middle" x="1360" y="-270" font-family="Helvetica,sans-Serif" font-size="10.00">src/d/d_bomb.cpp</text>
</a>
</g>
</g>
<!-- Node32&#45;&gt;Node33 -->
<g id="edge39" class="edge">
<title>Node32&#45;&gt;Node33</title>
<path fill="none" stroke="midnightblue" d="M1357.17,-319.54C1357.93,-307.17 1358.88,-291.62 1359.47,-282.13"/>
<polygon fill="midnightblue" stroke="midnightblue" points="1353.66,-319.54 1356.54,-329.73 1360.65,-319.97 1353.66,-319.54"/>
</g>
<!-- Node34&#45;&gt;Node6 -->
<g id="edge42" class="edge">
<title>Node34&#45;&gt;Node6</title>
<path fill="none" stroke="midnightblue" d="M1148.25,-322.78C1198.37,-309.67 1261.69,-292.44 1266,-288 1284.09,-269.36 1285.76,-236.23 1285.45,-220.61"/>
<polygon fill="midnightblue" stroke="midnightblue" points="1147.21,-319.43 1138.42,-325.34 1148.98,-326.2 1147.21,-319.43"/>
</g>
<!-- Node35 -->
<g id="node35" class="node">
<title>Node35</title>
<g id="a_node35"><a xlink:href="d__particle__copoly_8cpp.html" target="_top" xlink:title=" ">
<polygon fill="white" stroke="black" points="1139,-257.5 1139,-287.5 1257,-287.5 1257,-257.5 1139,-257.5"/>
<text text-anchor="start" x="1147" y="-275.5" font-family="Helvetica,sans-Serif" font-size="10.00">src/d/particle/d_particle</text>
<text text-anchor="middle" x="1198" y="-264.5" font-family="Helvetica,sans-Serif" font-size="10.00">_copoly.cpp</text>
</a>
</g>
</g>
<!-- Node34&#45;&gt;Node35 -->
<g id="edge41" class="edge">
<title>Node34&#45;&gt;Node35</title>
<path fill="none" stroke="midnightblue" d="M1119.8,-319.3C1137.16,-309.12 1158.12,-296.85 1173.96,-287.58"/>
<polygon fill="midnightblue" stroke="midnightblue" points="1117.95,-316.32 1111.09,-324.4 1121.48,-322.36 1117.95,-316.32"/>
</g>
<!-- Node36&#45;&gt;Node6 -->
<g id="edge45" class="edge">
<title>Node36&#45;&gt;Node6</title>
<path fill="none" stroke="midnightblue" d="M855.09,-260.87C862.08,-259.45 869.21,-258.1 876,-257 1000.27,-236.77 1147.29,-223.07 1226.83,-216.49"/>
<polygon fill="midnightblue" stroke="midnightblue" points="854.1,-257.5 845.03,-262.99 855.54,-264.35 854.1,-257.5"/>
</g>
<!-- Node36&#45;&gt;Node8 -->
<g id="edge46" class="edge">
<title>Node36&#45;&gt;Node8</title>
<path fill="none" stroke="midnightblue" d="M838.47,-258.41C854.43,-249.9 873.24,-237.34 885,-221 897.14,-204.13 901.53,-179.94 903.11,-164.73"/>
<polygon fill="midnightblue" stroke="midnightblue" points="836.83,-255.32 829.47,-262.95 839.98,-261.57 836.83,-255.32"/>
</g>
<!-- Node37 -->
<g id="node37" class="node">
<title>Node37</title>
<g id="a_node37"><a xlink:href="d__attention_8cpp.html" target="_top" xlink:title=" ">
<polygon fill="white" stroke="black" points="768.5,-201.5 768.5,-220.5 875.5,-220.5 875.5,-201.5 768.5,-201.5"/>
<text text-anchor="middle" x="822" y="-208.5" font-family="Helvetica,sans-Serif" font-size="10.00">src/d/d_attention.cpp</text>
</a>
</g>
</g>
<!-- Node36&#45;&gt;Node37 -->
<g id="edge44" class="edge">
<title>Node36&#45;&gt;Node37</title>
<path fill="none" stroke="midnightblue" d="M813.01,-253.16C815.39,-242.27 818.29,-228.99 820.14,-220.51"/>
<polygon fill="midnightblue" stroke="midnightblue" points="809.58,-252.46 810.86,-262.98 816.42,-253.95 809.58,-252.46"/>
</g>
<!-- Node38&#45;&gt;Node8 -->
<g id="edge49" class="edge">
<title>Node38&#45;&gt;Node8</title>
<path fill="none" stroke="midnightblue" d="M727.28,-198.73C762.86,-189.02 814.38,-174.96 852.62,-164.52"/>
<polygon fill="midnightblue" stroke="midnightblue" points="725.96,-195.47 717.23,-201.48 727.8,-202.22 725.96,-195.47"/>
</g>
<!-- Node38&#45;&gt;Node13 -->
<g id="edge48" class="edge">
<title>Node38&#45;&gt;Node13</title>
<path fill="none" stroke="midnightblue" d="M642.73,-198.9C545.79,-174.02 312.88,-114.26 226.22,-92.02"/>
<polygon fill="midnightblue" stroke="midnightblue" points="641.95,-202.31 652.5,-201.4 643.69,-195.53 641.95,-202.31"/>
</g>
</g>
</svg>
