<?xml version="1.0" encoding="UTF-8" standalone="no"?>
<!DOCTYPE svg PUBLIC "-//W3C//DTD SVG 1.1//EN"
 "http://www.w3.org/Graphics/SVG/1.1/DTD/svg11.dtd">
<!-- Generated by graphviz version 2.44.0 ()
 -->
<!-- Title: JUTException Pages: 1 -->
<svg width="1453pt" height="676pt"
 viewBox="0.00 0.00 1453.00 676.26" xmlns="http://www.w3.org/2000/svg" xmlns:xlink="http://www.w3.org/1999/xlink">
<g id="graph0" class="graph" transform="scale(1 1) rotate(0) translate(4 672.26)">
<title>JUTException</title>
<polygon fill="white" stroke="transparent" points="-4,4 -4,-672.26 1449,-672.26 1449,4 -4,4"/>
<!-- Node1 -->
<g id="node1" class="node">
<title>Node1</title>
<g id="a_node1"><a xlink:title=" ">
<polygon fill="#bfbfbf" stroke="black" points="1368,-179.76 1368,-198.76 1445,-198.76 1445,-179.76 1368,-179.76"/>
<text text-anchor="middle" x="1406.5" y="-186.76" font-family="Helvetica,sans-Serif" font-size="10.00">JUTException</text>
</a>
</g>
</g>
<!-- Node1&#45;&gt;Node1 -->
<g id="edge41" class="edge">
<title>Node1&#45;&gt;Node1</title>
<path fill="none" stroke="#9a32cd" stroke-dasharray="5,2" d="M1392.14,-209.02C1393.26,-213.75 1398.05,-217.26 1406.5,-217.26 1420.36,-217.26 1424.37,-207.82 1418.52,-199.01"/>
<polygon fill="#9a32cd" stroke="#9a32cd" points="1395.61,-209.55 1394.48,-199.01 1388.79,-207.95 1395.61,-209.55"/>
<text text-anchor="middle" x="1406.5" y="-220.26" font-family="Helvetica,sans-Serif" font-size="10.00"> sErrorManager</text>
</g>
<!-- Node2 -->
<g id="node2" class="node">
<title>Node2</title>
<g id="a_node2"><a xlink:href="structJKRThread.html" target="_top" xlink:title=" ">
<polygon fill="white" stroke="black" points="1213,-343.76 1213,-362.76 1278,-362.76 1278,-343.76 1213,-343.76"/>
<text text-anchor="middle" x="1245.5" y="-350.76" font-family="Helvetica,sans-Serif" font-size="10.00">JKRThread</text>
</a>
</g>
</g>
<!-- Node2&#45;&gt;Node1 -->
<g id="edge1" class="edge">
<title>Node2&#45;&gt;Node1</title>
<path fill="none" stroke="#9a32cd" stroke-dasharray="5,2" d="M1263.15,-336.08C1296.47,-301.72 1370.34,-225.52 1396.28,-198.77"/>
<polygon fill="#9a32cd" stroke="#9a32cd" points="1260.42,-333.87 1255.97,-343.49 1265.44,-338.75 1260.42,-333.87"/>
<text text-anchor="middle" x="1327" y="-293.26" font-family="Helvetica,sans-Serif" font-size="10.00"> field_0x0</text>
</g>
<!-- Node3 -->
<g id="node3" class="node">
<title>Node3</title>
<g id="a_node3"><a xlink:href="structJKRDisposer.html" target="_top" xlink:title=" ">
<polygon fill="white" stroke="black" points="718.5,-309.76 718.5,-328.76 792.5,-328.76 792.5,-309.76 718.5,-309.76"/>
<text text-anchor="middle" x="755.5" y="-316.76" font-family="Helvetica,sans-Serif" font-size="10.00">JKRDisposer</text>
</a>
</g>
</g>
<!-- Node3&#45;&gt;Node2 -->
<g id="edge2" class="edge">
<title>Node3&#45;&gt;Node2</title>
<path fill="none" stroke="#8b1a1a" d="M803.04,-311.35C817.41,-309.26 833.32,-307.3 848,-306.26 901.2,-302.5 914.86,-301.77 968,-306.26 1057.52,-313.81 1161.62,-334.89 1212.79,-346.07"/>
<polygon fill="#8b1a1a" stroke="#8b1a1a" points="802.25,-307.93 792.88,-312.89 803.3,-314.85 802.25,-307.93"/>
</g>
<!-- Node4 -->
<g id="node4" class="node">
<title>Node4</title>
<g id="a_node4"><a xlink:href="structJKRHeap.html" target="_top" xlink:title=" ">
<polygon fill="white" stroke="black" points="1006,-343.76 1006,-362.76 1065,-362.76 1065,-343.76 1006,-343.76"/>
<text text-anchor="middle" x="1035.5" y="-350.76" font-family="Helvetica,sans-Serif" font-size="10.00">JKRHeap</text>
</a>
</g>
</g>
<!-- Node3&#45;&gt;Node4 -->
<g id="edge4" class="edge">
<title>Node3&#45;&gt;Node4</title>
<path fill="none" stroke="midnightblue" d="M802.78,-325.45C817.26,-327.35 833.29,-329.43 848,-331.26 903.81,-338.21 969.09,-345.78 1005.73,-349.98"/>
<polygon fill="midnightblue" stroke="midnightblue" points="802.93,-321.94 792.56,-324.1 802.01,-328.87 802.93,-321.94"/>
</g>
<!-- Node19 -->
<g id="node19" class="node">
<title>Node19</title>
<g id="a_node19"><a xlink:href="structJUTGamePad.html" target="_top" xlink:title=" ">
<polygon fill="white" stroke="black" points="996,-139.76 996,-158.76 1075,-158.76 1075,-139.76 996,-139.76"/>
<text text-anchor="middle" x="1035.5" y="-146.76" font-family="Helvetica,sans-Serif" font-size="10.00">JUTGamePad</text>
</a>
</g>
</g>
<!-- Node3&#45;&gt;Node19 -->
<g id="edge32" class="edge">
<title>Node3&#45;&gt;Node19</title>
<path fill="none" stroke="midnightblue" d="M782.79,-304.71C800.73,-295.26 825.28,-283.26 848,-275.26 899.65,-257.06 922.99,-278.45 968,-247.26 979.85,-239.04 977.93,-232.21 986,-220.26 1000.86,-198.23 1018.51,-172.51 1027.88,-158.88"/>
<polygon fill="midnightblue" stroke="midnightblue" points="780.72,-301.85 773.56,-309.66 784.02,-308.02 780.72,-301.85"/>
</g>
<!-- Node4&#45;&gt;Node2 -->
<g id="edge24" class="edge">
<title>Node4&#45;&gt;Node2</title>
<path fill="none" stroke="#9a32cd" stroke-dasharray="5,2" d="M1075.52,-353.26C1115.2,-353.26 1175.93,-353.26 1212.76,-353.26"/>
<polygon fill="#9a32cd" stroke="#9a32cd" points="1075.42,-349.76 1065.42,-353.26 1075.42,-356.76 1075.42,-349.76"/>
<text text-anchor="middle" x="1145" y="-378.26" font-family="Helvetica,sans-Serif" font-size="10.00"> mCurrentHeap</text>
<text text-anchor="middle" x="1145" y="-367.26" font-family="Helvetica,sans-Serif" font-size="10.00">mCurrentHeapError</text>
<text text-anchor="middle" x="1145" y="-356.26" font-family="Helvetica,sans-Serif" font-size="10.00">mHeap</text>
</g>
<!-- Node4&#45;&gt;Node3 -->
<g id="edge3" class="edge">
<title>Node4&#45;&gt;Node3</title>
<path fill="none" stroke="#9a32cd" stroke-dasharray="5,2" d="M1011.47,-338.57C999.1,-331.54 983.29,-323.88 968,-320.26 907.8,-305.99 835.22,-310.07 792.63,-314.53"/>
<polygon fill="#9a32cd" stroke="#9a32cd" points="1009.8,-341.65 1020.19,-343.74 1013.37,-335.63 1009.8,-341.65"/>
<text text-anchor="middle" x="908" y="-323.26" font-family="Helvetica,sans-Serif" font-size="10.00"> mHeap</text>
</g>
<!-- Node4&#45;&gt;Node4 -->
<g id="edge5" class="edge">
<title>Node4&#45;&gt;Node4</title>
<path fill="none" stroke="#9a32cd" stroke-dasharray="5,2" d="M1015.5,-372.66C1016.84,-377.57 1023.5,-381.26 1035.5,-381.26 1054.7,-381.26 1060.24,-371.82 1052.15,-363.01"/>
<polygon fill="#9a32cd" stroke="#9a32cd" points="1018.88,-373.61 1018.85,-363.01 1012.26,-371.31 1018.88,-373.61"/>
<text text-anchor="middle" x="1035.5" y="-406.26" font-family="Helvetica,sans-Serif" font-size="10.00"> sCurrentHeap</text>
<text text-anchor="middle" x="1035.5" y="-395.26" font-family="Helvetica,sans-Serif" font-size="10.00">sRootHeap</text>
<text text-anchor="middle" x="1035.5" y="-384.26" font-family="Helvetica,sans-Serif" font-size="10.00">sSystemHeap</text>
</g>
<!-- Node5 -->
<g id="node5" class="node">
<title>Node5</title>
<g id="a_node5"><a xlink:href="classJSUTree.html" target="_top" xlink:title=" ">
<polygon fill="white" stroke="black" points="698.5,-356.76 698.5,-375.76 812.5,-375.76 812.5,-356.76 698.5,-356.76"/>
<text text-anchor="middle" x="755.5" y="-363.76" font-family="Helvetica,sans-Serif" font-size="10.00">JSUTree&lt; JKRHeap &gt;</text>
</a>
</g>
</g>
<!-- Node5&#45;&gt;Node4 -->
<g id="edge6" class="edge">
<title>Node5&#45;&gt;Node4</title>
<path fill="none" stroke="#9a32cd" stroke-dasharray="5,2" d="M822.99,-363.15C881.28,-360.42 963.2,-356.59 1005.97,-354.59"/>
<polygon fill="#9a32cd" stroke="#9a32cd" points="822.58,-359.66 812.76,-363.63 822.91,-366.66 822.58,-359.66"/>
<text text-anchor="middle" x="908" y="-364.26" font-family="Helvetica,sans-Serif" font-size="10.00"> mChildTree</text>
</g>
<!-- Node6 -->
<g id="node6" class="node">
<title>Node6</title>
<g id="a_node6"><a xlink:href="structOSMutex.html" target="_top" xlink:title=" ">
<polygon fill="white" stroke="black" points="4,-568.76 4,-587.76 61,-587.76 61,-568.76 4,-568.76"/>
<text text-anchor="middle" x="32.5" y="-575.76" font-family="Helvetica,sans-Serif" font-size="10.00">OSMutex</text>
</a>
</g>
</g>
<!-- Node6&#45;&gt;Node4 -->
<g id="edge7" class="edge">
<title>Node6&#45;&gt;Node4</title>
<path fill="none" stroke="#9a32cd" stroke-dasharray="5,2" d="M52.09,-562.18C71.38,-546.56 103.13,-523.72 135,-513.26 223.12,-484.33 888.33,-506.75 968,-459.26 1005.32,-437.01 1024.92,-384.83 1031.7,-363.06"/>
<polygon fill="#9a32cd" stroke="#9a32cd" points="49.85,-559.49 44.39,-568.57 54.32,-564.88 49.85,-559.49"/>
<text text-anchor="middle" x="447" y="-499.26" font-family="Helvetica,sans-Serif" font-size="10.00"> mMutex</text>
</g>
<!-- Node11 -->
<g id="node11" class="node">
<title>Node11</title>
<g id="a_node11"><a xlink:href="structOSThread.html" target="_top" xlink:title=" ">
<polygon fill="white" stroke="black" points="416.5,-584.76 416.5,-603.76 477.5,-603.76 477.5,-584.76 416.5,-584.76"/>
<text text-anchor="middle" x="447" y="-591.76" font-family="Helvetica,sans-Serif" font-size="10.00">OSThread</text>
</a>
</g>
</g>
<!-- Node6&#45;&gt;Node11 -->
<g id="edge22" class="edge">
<title>Node6&#45;&gt;Node11</title>
<path fill="none" stroke="#9a32cd" stroke-dasharray="5,2" d="M71.51,-579.73C153.03,-582.89 343.22,-590.27 416.49,-593.11"/>
<polygon fill="#9a32cd" stroke="#9a32cd" points="71.33,-576.22 61.21,-579.33 71.06,-583.22 71.33,-576.22"/>
<text text-anchor="middle" x="178" y="-588.26" font-family="Helvetica,sans-Serif" font-size="10.00"> mutex</text>
</g>
<!-- Node14 -->
<g id="node14" class="node">
<title>Node14</title>
<g id="a_node14"><a xlink:href="structOSMutexQueue.html" target="_top" xlink:title=" ">
<polygon fill="white" stroke="black" points="135,-607.76 135,-626.76 221,-626.76 221,-607.76 135,-607.76"/>
<text text-anchor="middle" x="178" y="-614.76" font-family="Helvetica,sans-Serif" font-size="10.00">OSMutexQueue</text>
</a>
</g>
</g>
<!-- Node6&#45;&gt;Node14 -->
<g id="edge21" class="edge">
<title>Node6&#45;&gt;Node14</title>
<path fill="none" stroke="#9a32cd" stroke-dasharray="5,2" d="M71.09,-588.96C75.11,-590.08 79.14,-591.2 83,-592.26 101.89,-597.44 122.96,-603.06 140.36,-607.66"/>
<polygon fill="#9a32cd" stroke="#9a32cd" points="71.8,-585.52 61.23,-586.18 69.91,-592.26 71.8,-585.52"/>
<text text-anchor="middle" x="100" y="-615.26" font-family="Helvetica,sans-Serif" font-size="10.00"> next</text>
<text text-anchor="middle" x="100" y="-604.26" font-family="Helvetica,sans-Serif" font-size="10.00">prev</text>
</g>
<!-- Node7 -->
<g id="node7" class="node">
<title>Node7</title>
<g id="a_node7"><a xlink:href="structJSUList.html" target="_top" xlink:title=" ">
<polygon fill="white" stroke="black" points="239,-390.76 239,-409.76 365,-409.76 365,-390.76 239,-390.76"/>
<text text-anchor="middle" x="302" y="-397.76" font-family="Helvetica,sans-Serif" font-size="10.00">JSUList&lt; JKRDisposer &gt;</text>
</a>
</g>
</g>
<!-- Node7&#45;&gt;Node4 -->
<g id="edge8" class="edge">
<title>Node7&#45;&gt;Node4</title>
<path fill="none" stroke="#9a32cd" stroke-dasharray="5,2" d="M375.23,-399.04C476.8,-397.14 667.58,-392.86 830,-385.26 891.4,-382.38 907.75,-388.41 968,-376.26 982.97,-373.24 999.17,-367.68 1011.84,-362.79"/>
<polygon fill="#9a32cd" stroke="#9a32cd" points="375.02,-395.54 365.09,-399.23 375.15,-402.54 375.02,-395.54"/>
<text text-anchor="middle" x="596" y="-398.26" font-family="Helvetica,sans-Serif" font-size="10.00"> mDisposerList</text>
</g>
<!-- Node8 -->
<g id="node8" class="node">
<title>Node8</title>
<g id="a_node8"><a xlink:href="structJSUPtrList.html" target="_top" xlink:title=" ">
<polygon fill="white" stroke="black" points="0,-371.76 0,-390.76 65,-390.76 65,-371.76 0,-371.76"/>
<text text-anchor="middle" x="32.5" y="-378.76" font-family="Helvetica,sans-Serif" font-size="10.00">JSUPtrList</text>
</a>
</g>
</g>
<!-- Node8&#45;&gt;Node7 -->
<g id="edge9" class="edge">
<title>Node8&#45;&gt;Node7</title>
<path fill="none" stroke="midnightblue" d="M75.27,-384.67C77.89,-384.87 80.48,-385.07 83,-385.26 135.59,-389.19 195.34,-393.28 238.97,-396.19"/>
<polygon fill="midnightblue" stroke="midnightblue" points="75.43,-381.17 65.18,-383.87 74.88,-388.15 75.43,-381.17"/>
</g>
<!-- Node9 -->
<g id="node9" class="node">
<title>Node9</title>
<g id="a_node9"><a xlink:href="structJSUPtrLink.html" target="_top" xlink:title=" ">
<polygon fill="white" stroke="black" points="144,-309.76 144,-328.76 212,-328.76 212,-309.76 144,-309.76"/>
<text text-anchor="middle" x="178" y="-316.76" font-family="Helvetica,sans-Serif" font-size="10.00">JSUPtrLink</text>
</a>
</g>
</g>
<!-- Node8&#45;&gt;Node9 -->
<g id="edge12" class="edge">
<title>Node8&#45;&gt;Node9</title>
<path fill="none" stroke="#9a32cd" stroke-dasharray="5,2" d="M46.17,-363.38C55.12,-352.21 68.14,-338.6 83,-331.26 101.73,-322.01 125.01,-318.98 143.72,-318.28"/>
<polygon fill="#9a32cd" stroke="#9a32cd" points="43.16,-361.56 39.91,-371.65 48.73,-365.79 43.16,-361.56"/>
<text text-anchor="middle" x="100" y="-334.26" font-family="Helvetica,sans-Serif" font-size="10.00"> mList</text>
</g>
<!-- Node17 -->
<g id="node17" class="node">
<title>Node17</title>
<g id="a_node17"><a xlink:href="structJSUList.html" target="_top" xlink:title=" ">
<polygon fill="white" stroke="black" points="537,-429.76 537,-448.76 655,-448.76 655,-429.76 537,-429.76"/>
<text text-anchor="middle" x="596" y="-436.76" font-family="Helvetica,sans-Serif" font-size="10.00">JSUList&lt; JKRThread &gt;</text>
</a>
</g>
</g>
<!-- Node8&#45;&gt;Node17 -->
<g id="edge28" class="edge">
<title>Node8&#45;&gt;Node17</title>
<path fill="none" stroke="midnightblue" d="M64.92,-394.64C70.84,-396.78 77.05,-398.78 83,-400.26 243.69,-440.24 440.75,-442.73 536.8,-441.09"/>
<polygon fill="midnightblue" stroke="midnightblue" points="65.89,-391.26 55.3,-390.95 63.39,-397.8 65.89,-391.26"/>
</g>
<!-- Node9&#45;&gt;Node8 -->
<g id="edge10" class="edge">
<title>Node9&#45;&gt;Node8</title>
<path fill="none" stroke="#9a32cd" stroke-dasharray="5,2" d="M145.17,-333.01C117.97,-344.76 79.55,-361.36 55.61,-371.71"/>
<polygon fill="#9a32cd" stroke="#9a32cd" points="146.84,-336.1 154.63,-328.92 144.06,-329.68 146.84,-336.1"/>
<text text-anchor="middle" x="100" y="-373.26" font-family="Helvetica,sans-Serif" font-size="10.00"> mHead</text>
<text text-anchor="middle" x="100" y="-362.26" font-family="Helvetica,sans-Serif" font-size="10.00">mTail</text>
</g>
<!-- Node9&#45;&gt;Node9 -->
<g id="edge11" class="edge">
<title>Node9&#45;&gt;Node9</title>
<path fill="none" stroke="#9a32cd" stroke-dasharray="5,2" d="M163.64,-339.02C164.76,-343.75 169.55,-347.26 178,-347.26 191.86,-347.26 195.87,-337.82 190.02,-329.01"/>
<polygon fill="#9a32cd" stroke="#9a32cd" points="167.11,-339.55 165.98,-329.01 160.29,-337.95 167.11,-339.55"/>
<text text-anchor="middle" x="178" y="-361.26" font-family="Helvetica,sans-Serif" font-size="10.00"> mNext</text>
<text text-anchor="middle" x="178" y="-350.26" font-family="Helvetica,sans-Serif" font-size="10.00">mPrev</text>
</g>
<!-- Node10 -->
<g id="node10" class="node">
<title>Node10</title>
<g id="a_node10"><a xlink:href="structJSULink.html" target="_top" xlink:title=" ">
<polygon fill="white" stroke="black" points="383,-309.76 383,-328.76 511,-328.76 511,-309.76 383,-309.76"/>
<text text-anchor="middle" x="447" y="-316.76" font-family="Helvetica,sans-Serif" font-size="10.00">JSULink&lt; JKRDisposer &gt;</text>
</a>
</g>
</g>
<!-- Node9&#45;&gt;Node10 -->
<g id="edge14" class="edge">
<title>Node9&#45;&gt;Node10</title>
<path fill="none" stroke="midnightblue" d="M222.25,-319.26C265.75,-319.26 333.29,-319.26 382.79,-319.26"/>
<polygon fill="midnightblue" stroke="midnightblue" points="222.01,-315.76 212.01,-319.26 222.01,-322.76 222.01,-315.76"/>
</g>
<!-- Node16 -->
<g id="node16" class="node">
<title>Node16</title>
<g id="a_node16"><a xlink:href="structJSULink.html" target="_top" xlink:title=" ">
<polygon fill="white" stroke="black" points="848,-226.76 848,-245.76 968,-245.76 968,-226.76 848,-226.76"/>
<text text-anchor="middle" x="908" y="-233.76" font-family="Helvetica,sans-Serif" font-size="10.00">JSULink&lt; JKRThread &gt;</text>
</a>
</g>
</g>
<!-- Node9&#45;&gt;Node16 -->
<g id="edge26" class="edge">
<title>Node9&#45;&gt;Node16</title>
<path fill="none" stroke="midnightblue" d="M222.46,-314.3C347.02,-300.1 705.48,-259.23 847.77,-243.01"/>
<polygon fill="midnightblue" stroke="midnightblue" points="221.71,-310.87 212.17,-315.48 222.5,-317.82 221.71,-310.87"/>
</g>
<!-- Node24 -->
<g id="node24" class="node">
<title>Node24</title>
<g id="a_node24"><a xlink:href="structJSULink.html" target="_top" xlink:title=" ">
<polygon fill="white" stroke="black" points="529,-146.76 529,-165.76 663,-165.76 663,-146.76 529,-146.76"/>
<text text-anchor="middle" x="596" y="-153.76" font-family="Helvetica,sans-Serif" font-size="10.00">JSULink&lt; JUTGamePad &gt;</text>
</a>
</g>
</g>
<!-- Node9&#45;&gt;Node24 -->
<g id="edge38" class="edge">
<title>Node9&#45;&gt;Node24</title>
<path fill="none" stroke="midnightblue" d="M190.86,-300.55C201.61,-285.1 218.82,-263.75 239,-251.26 329.83,-195.03 453.65,-171.73 528.77,-162.33"/>
<polygon fill="midnightblue" stroke="midnightblue" points="187.68,-299.02 185.03,-309.28 193.5,-302.9 187.68,-299.02"/>
</g>
<!-- Node10&#45;&gt;Node3 -->
<g id="edge13" class="edge">
<title>Node10&#45;&gt;Node3</title>
<path fill="none" stroke="#9a32cd" stroke-dasharray="5,2" d="M521.28,-319.26C583.45,-319.26 670.02,-319.26 718.29,-319.26"/>
<polygon fill="#9a32cd" stroke="#9a32cd" points="521.14,-315.76 511.14,-319.26 521.14,-322.76 521.14,-315.76"/>
<text text-anchor="middle" x="596" y="-322.26" font-family="Helvetica,sans-Serif" font-size="10.00"> mLink</text>
</g>
<!-- Node11&#45;&gt;Node2 -->
<g id="edge15" class="edge">
<title>Node11&#45;&gt;Node2</title>
<path fill="none" stroke="#9a32cd" stroke-dasharray="5,2" d="M463.14,-611.52C478.07,-627.13 502.47,-649.04 529,-658.26 642.7,-697.76 962.44,-600.85 968,-599.26 1068.23,-570.58 1114.22,-589.89 1187,-515.26 1230.55,-470.6 1241.31,-390.88 1243.8,-363.12"/>
<polygon fill="#9a32cd" stroke="#9a32cd" points="465.58,-609.01 456.23,-604.03 460.43,-613.75 465.58,-609.01"/>
<text text-anchor="middle" x="908" y="-632.26" font-family="Helvetica,sans-Serif" font-size="10.00"> mThreadRecord</text>
</g>
<!-- Node12 -->
<g id="node12" class="node">
<title>Node12</title>
<g id="a_node12"><a xlink:href="structOSThreadLink.html" target="_top" xlink:title=" ">
<polygon fill="white" stroke="black" points="715.5,-528.76 715.5,-547.76 795.5,-547.76 795.5,-528.76 715.5,-528.76"/>
<text text-anchor="middle" x="755.5" y="-535.76" font-family="Helvetica,sans-Serif" font-size="10.00">OSThreadLink</text>
</a>
</g>
</g>
<!-- Node11&#45;&gt;Node12 -->
<g id="edge17" class="edge">
<title>Node11&#45;&gt;Node12</title>
<path fill="none" stroke="#9a32cd" stroke-dasharray="5,2" d="M486.42,-581.61C499.79,-577.55 514.95,-573.32 529,-570.26 593.71,-556.16 670.28,-546.81 715.49,-542.03"/>
<polygon fill="#9a32cd" stroke="#9a32cd" points="485.11,-578.36 476.6,-584.66 487.19,-585.04 485.11,-578.36"/>
<text text-anchor="middle" x="596" y="-584.26" font-family="Helvetica,sans-Serif" font-size="10.00"> next</text>
<text text-anchor="middle" x="596" y="-573.26" font-family="Helvetica,sans-Serif" font-size="10.00">prev</text>
</g>
<!-- Node13 -->
<g id="node13" class="node">
<title>Node13</title>
<g id="a_node13"><a xlink:href="structOSThreadQueue.html" target="_top" xlink:title=" ">
<polygon fill="white" stroke="black" points="711,-593.76 711,-612.76 800,-612.76 800,-593.76 711,-593.76"/>
<text text-anchor="middle" x="755.5" y="-600.76" font-family="Helvetica,sans-Serif" font-size="10.00">OSThreadQueue</text>
</a>
</g>
</g>
<!-- Node11&#45;&gt;Node13 -->
<g id="edge19" class="edge">
<title>Node11&#45;&gt;Node13</title>
<path fill="none" stroke="#9a32cd" stroke-dasharray="5,2" d="M487.64,-595.31C530.79,-596.46 601.8,-598.4 663,-600.26 678.57,-600.73 695.63,-601.28 710.75,-601.78"/>
<polygon fill="#9a32cd" stroke="#9a32cd" points="487.65,-591.81 477.56,-595.04 487.47,-598.8 487.65,-591.81"/>
<text text-anchor="middle" x="596" y="-614.26" font-family="Helvetica,sans-Serif" font-size="10.00"> head</text>
<text text-anchor="middle" x="596" y="-603.26" font-family="Helvetica,sans-Serif" font-size="10.00">tail</text>
</g>
<!-- Node12&#45;&gt;Node11 -->
<g id="edge16" class="edge">
<title>Node12&#45;&gt;Node11</title>
<path fill="none" stroke="#9a32cd" stroke-dasharray="5,2" d="M721.83,-525.28C676.68,-509.42 593.5,-487.77 529,-514.26 493.71,-528.75 465.59,-566.86 453.89,-584.74"/>
<polygon fill="#9a32cd" stroke="#9a32cd" points="720.8,-528.63 731.39,-528.75 723.19,-522.05 720.8,-528.63"/>
<text text-anchor="middle" x="596" y="-528.26" font-family="Helvetica,sans-Serif" font-size="10.00"> active_threads_link</text>
<text text-anchor="middle" x="596" y="-517.26" font-family="Helvetica,sans-Serif" font-size="10.00">link</text>
</g>
<!-- Node13&#45;&gt;Node11 -->
<g id="edge18" class="edge">
<title>Node13&#45;&gt;Node11</title>
<path fill="none" stroke="#9a32cd" stroke-dasharray="5,2" d="M714.37,-615.62C698.53,-619.9 680.07,-624.15 663,-626.26 603.9,-633.57 587.5,-637.4 529,-626.26 506.57,-621.99 482.42,-611.62 466.38,-603.84"/>
<polygon fill="#9a32cd" stroke="#9a32cd" points="715.67,-618.89 724.36,-612.83 713.78,-612.15 715.67,-618.89"/>
<text text-anchor="middle" x="596" y="-646.26" font-family="Helvetica,sans-Serif" font-size="10.00"> join_queue</text>
<text text-anchor="middle" x="596" y="-635.26" font-family="Helvetica,sans-Serif" font-size="10.00">queue</text>
</g>
<!-- Node18 -->
<g id="node18" class="node">
<title>Node18</title>
<g id="a_node18"><a xlink:href="structOSMessageQueue.html" target="_top" xlink:title=" ">
<polygon fill="white" stroke="black" points="986,-509.76 986,-528.76 1085,-528.76 1085,-509.76 986,-509.76"/>
<text text-anchor="middle" x="1035.5" y="-516.76" font-family="Helvetica,sans-Serif" font-size="10.00">OSMessageQueue</text>
</a>
</g>
</g>
<!-- Node13&#45;&gt;Node18 -->
<g id="edge30" class="edge">
<title>Node13&#45;&gt;Node18</title>
<path fill="none" stroke="#9a32cd" stroke-dasharray="5,2" d="M797.71,-590.8C853.67,-573.9 952.45,-544.05 1002.91,-528.8"/>
<polygon fill="#9a32cd" stroke="#9a32cd" points="796.68,-587.46 788.12,-593.7 798.7,-594.16 796.68,-587.46"/>
<text text-anchor="middle" x="908" y="-587.26" font-family="Helvetica,sans-Serif" font-size="10.00"> receiving_queue</text>
<text text-anchor="middle" x="908" y="-576.26" font-family="Helvetica,sans-Serif" font-size="10.00">sending_queue</text>
</g>
<!-- Node14&#45;&gt;Node11 -->
<g id="edge20" class="edge">
<title>Node14&#45;&gt;Node11</title>
<path fill="none" stroke="#9a32cd" stroke-dasharray="5,2" d="M231.29,-612.75C286.48,-608 371.53,-600.67 416.22,-596.82"/>
<polygon fill="#9a32cd" stroke="#9a32cd" points="230.68,-609.29 221.01,-613.64 231.28,-616.27 230.68,-609.29"/>
<text text-anchor="middle" x="302" y="-614.26" font-family="Helvetica,sans-Serif" font-size="10.00"> owned_mutexes</text>
</g>
<!-- Node15 -->
<g id="node15" class="node">
<title>Node15</title>
<g id="a_node15"><a xlink:href="structOSContext.html" target="_top" xlink:title=" ">
<polygon fill="white" stroke="black" points="146,-522.76 146,-541.76 210,-541.76 210,-522.76 146,-522.76"/>
<text text-anchor="middle" x="178" y="-529.76" font-family="Helvetica,sans-Serif" font-size="10.00">OSContext</text>
</a>
</g>
</g>
<!-- Node15&#45;&gt;Node11 -->
<g id="edge23" class="edge">
<title>Node15&#45;&gt;Node11</title>
<path fill="none" stroke="#9a32cd" stroke-dasharray="5,2" d="M220.52,-532.75C258.78,-534.18 316.76,-538.84 365,-553.26 389.46,-560.57 415.4,-575.05 431.15,-584.69"/>
<polygon fill="#9a32cd" stroke="#9a32cd" points="220.39,-529.24 210.28,-532.43 220.17,-536.24 220.39,-529.24"/>
<text text-anchor="middle" x="302" y="-556.26" font-family="Helvetica,sans-Serif" font-size="10.00"> context</text>
</g>
<!-- Node16&#45;&gt;Node2 -->
<g id="edge25" class="edge">
<title>Node16&#45;&gt;Node2</title>
<path fill="none" stroke="#9a32cd" stroke-dasharray="5,2" d="M978.3,-230.38C1037.79,-228.63 1123.71,-234.22 1187,-272.26 1215.23,-289.22 1233.34,-325.96 1240.72,-343.53"/>
<polygon fill="#9a32cd" stroke="#9a32cd" points="978.11,-226.88 968.25,-230.75 978.37,-233.88 978.11,-226.88"/>
<text text-anchor="middle" x="1035.5" y="-238.26" font-family="Helvetica,sans-Serif" font-size="10.00"> mThreadListLink</text>
</g>
<!-- Node17&#45;&gt;Node2 -->
<g id="edge27" class="edge">
<title>Node17&#45;&gt;Node2</title>
<path fill="none" stroke="#9a32cd" stroke-dasharray="5,2" d="M665.04,-442.98C759.91,-446.82 936.95,-449.1 1085,-423.26 1131.94,-415.06 1143.94,-410.65 1187,-390.26 1203.31,-382.53 1220.52,-370.94 1231.82,-362.79"/>
<polygon fill="#9a32cd" stroke="#9a32cd" points="665.14,-439.48 655,-442.55 664.85,-446.47 665.14,-439.48"/>
<text text-anchor="middle" x="908" y="-447.26" font-family="Helvetica,sans-Serif" font-size="10.00"> sThreadList</text>
</g>
<!-- Node18&#45;&gt;Node2 -->
<g id="edge29" class="edge">
<title>Node18&#45;&gt;Node2</title>
<path fill="none" stroke="#9a32cd" stroke-dasharray="5,2" d="M1088.46,-506.81C1119.86,-497.18 1159.07,-481.2 1187,-456.26 1217.09,-429.38 1234.92,-382.88 1241.54,-362.87"/>
<polygon fill="#9a32cd" stroke="#9a32cd" points="1087.17,-503.54 1078.56,-509.71 1089.14,-510.25 1087.17,-503.54"/>
<text text-anchor="middle" x="1145" y="-503.26" font-family="Helvetica,sans-Serif" font-size="10.00"> mMessageQueue</text>
</g>
<!-- Node19&#45;&gt;Node1 -->
<g id="edge31" class="edge">
<title>Node19&#45;&gt;Node1</title>
<path fill="none" stroke="#9a32cd" stroke-dasharray="5,2" d="M1085.36,-154.55C1159.92,-162.64 1300.51,-177.88 1367.78,-185.17"/>
<polygon fill="#9a32cd" stroke="#9a32cd" points="1085.61,-151.06 1075.29,-153.46 1084.86,-158.02 1085.61,-151.06"/>
<text text-anchor="middle" x="1245.5" y="-178.26" font-family="Helvetica,sans-Serif" font-size="10.00"> field_0x84</text>
</g>
<!-- Node20 -->
<g id="node20" class="node">
<title>Node20</title>
<g id="a_node20"><a xlink:href="structJUTGamePad_1_1CButton.html" target="_top" xlink:title=" ">
<polygon fill="white" stroke="black" points="696,-38.76 696,-57.76 815,-57.76 815,-38.76 696,-38.76"/>
<text text-anchor="middle" x="755.5" y="-45.76" font-family="Helvetica,sans-Serif" font-size="10.00">JUTGamePad::CButton</text>
</a>
</g>
</g>
<!-- Node20&#45;&gt;Node19 -->
<g id="edge33" class="edge">
<title>Node20&#45;&gt;Node19</title>
<path fill="none" stroke="#9a32cd" stroke-dasharray="5,2" d="M825.23,-43.18C868.54,-42.92 924.32,-48.15 968,-71.26 997.89,-87.07 1020.04,-122.38 1029.48,-139.53"/>
<polygon fill="#9a32cd" stroke="#9a32cd" points="825.01,-39.68 815.07,-43.34 825.12,-46.68 825.01,-39.68"/>
<text text-anchor="middle" x="908" y="-74.26" font-family="Helvetica,sans-Serif" font-size="10.00"> mButton</text>
</g>
<!-- Node21 -->
<g id="node21" class="node">
<title>Node21</title>
<g id="a_node21"><a xlink:href="structJUTGamePad_1_1CStick.html" target="_top" xlink:title=" ">
<polygon fill="white" stroke="black" points="699,-161.76 699,-180.76 812,-180.76 812,-161.76 699,-161.76"/>
<text text-anchor="middle" x="755.5" y="-168.76" font-family="Helvetica,sans-Serif" font-size="10.00">JUTGamePad::CStick</text>
</a>
</g>
</g>
<!-- Node21&#45;&gt;Node19 -->
<g id="edge34" class="edge">
<title>Node21&#45;&gt;Node19</title>
<path fill="none" stroke="#9a32cd" stroke-dasharray="5,2" d="M822.28,-166.05C876.36,-161.77 951.15,-155.85 995.98,-152.31"/>
<polygon fill="#9a32cd" stroke="#9a32cd" points="821.78,-162.58 812.09,-166.86 822.33,-169.56 821.78,-162.58"/>
<text text-anchor="middle" x="908" y="-177.26" font-family="Helvetica,sans-Serif" font-size="10.00"> mMainStick</text>
<text text-anchor="middle" x="908" y="-166.26" font-family="Helvetica,sans-Serif" font-size="10.00">mSubStick</text>
</g>
<!-- Node22 -->
<g id="node22" class="node">
<title>Node22</title>
<g id="a_node22"><a xlink:href="structPADStatus.html" target="_top" xlink:title=" ">
<polygon fill="white" stroke="black" points="723,-200.76 723,-219.76 788,-219.76 788,-200.76 723,-200.76"/>
<text text-anchor="middle" x="755.5" y="-207.76" font-family="Helvetica,sans-Serif" font-size="10.00">PADStatus</text>
</a>
</g>
</g>
<!-- Node22&#45;&gt;Node19 -->
<g id="edge35" class="edge">
<title>Node22&#45;&gt;Node19</title>
<path fill="none" stroke="#9a32cd" stroke-dasharray="5,2" d="M798.39,-211.08C841.86,-210.74 911.29,-206.86 968,-188.26 988.35,-181.58 1009.24,-168.02 1022.04,-158.78"/>
<polygon fill="#9a32cd" stroke="#9a32cd" points="798.18,-207.58 788.19,-211.09 798.19,-214.58 798.18,-207.58"/>
<text text-anchor="middle" x="908" y="-211.26" font-family="Helvetica,sans-Serif" font-size="10.00"> mPadStatus</text>
</g>
<!-- Node23 -->
<g id="node23" class="node">
<title>Node23</title>
<g id="a_node23"><a xlink:href="structJUTGamePad_1_1C3ButtonReset.html" target="_top" xlink:title=" ">
<polygon fill="white" stroke="black" points="681,-0.76 681,-19.76 830,-19.76 830,-0.76 681,-0.76"/>
<text text-anchor="middle" x="755.5" y="-7.76" font-family="Helvetica,sans-Serif" font-size="10.00">JUTGamePad::C3ButtonReset</text>
</a>
</g>
</g>
<!-- Node23&#45;&gt;Node19 -->
<g id="edge36" class="edge">
<title>Node23&#45;&gt;Node19</title>
<path fill="none" stroke="#9a32cd" stroke-dasharray="5,2" d="M836.12,-0.32C878.45,0.97 929.53,-4.21 968,-29.26 1008.72,-55.77 1026.77,-116.23 1032.42,-139.7"/>
<polygon fill="#9a32cd" stroke="#9a32cd" points="835.96,3.17 826.12,-0.75 836.26,-3.82 835.96,3.17"/>
<text text-anchor="middle" x="908" y="-32.26" font-family="Helvetica,sans-Serif" font-size="10.00"> mButtonReset</text>
</g>
<!-- Node24&#45;&gt;Node19 -->
<g id="edge37" class="edge">
<title>Node24&#45;&gt;Node19</title>
<path fill="none" stroke="#9a32cd" stroke-dasharray="5,2" d="M652.02,-145C661.64,-143.44 671.58,-142.09 681,-141.26 795.19,-131.14 930.9,-140.04 995.96,-145.6"/>
<polygon fill="#9a32cd" stroke="#9a32cd" points="651.41,-141.55 642.14,-146.69 652.59,-148.45 651.41,-141.55"/>
<text text-anchor="middle" x="755.5" y="-144.26" font-family="Helvetica,sans-Serif" font-size="10.00"> mLink</text>
</g>
<!-- Node25 -->
<g id="node25" class="node">
<title>Node25</title>
<g id="a_node25"><a xlink:href="structJUTGamePad_1_1CRumble.html" target="_top" xlink:title=" ">
<polygon fill="white" stroke="black" points="694,-76.76 694,-95.76 817,-95.76 817,-76.76 694,-76.76"/>
<text text-anchor="middle" x="755.5" y="-83.76" font-family="Helvetica,sans-Serif" font-size="10.00">JUTGamePad::CRumble</text>
</a>
</g>
</g>
<!-- Node25&#45;&gt;Node19 -->
<g id="edge39" class="edge">
<title>Node25&#45;&gt;Node19</title>
<path fill="none" stroke="#9a32cd" stroke-dasharray="5,2" d="M827.45,-85.2C869.36,-86.54 922.87,-91.74 968,-107.26 989.18,-114.54 1010.51,-129.73 1023.11,-139.7"/>
<polygon fill="#9a32cd" stroke="#9a32cd" points="827.42,-81.7 817.33,-84.94 827.24,-88.69 827.42,-81.7"/>
<text text-anchor="middle" x="908" y="-110.26" font-family="Helvetica,sans-Serif" font-size="10.00"> mRumble</text>
</g>
<!-- Node26 -->
<g id="node26" class="node">
<title>Node26</title>
<g id="a_node26"><a xlink:href="structJUTDirectPrint.html" target="_top" xlink:title=" ">
<polygon fill="white" stroke="black" points="1205,-133.76 1205,-152.76 1286,-152.76 1286,-133.76 1205,-133.76"/>
<text text-anchor="middle" x="1245.5" y="-140.76" font-family="Helvetica,sans-Serif" font-size="10.00">JUTDirectPrint</text>
</a>
</g>
</g>
<!-- Node26&#45;&gt;Node1 -->
<g id="edge40" class="edge">
<title>Node26&#45;&gt;Node1</title>
<path fill="none" stroke="#9a32cd" stroke-dasharray="5,2" d="M1296.23,-151.02C1313.47,-154.32 1332.79,-158.71 1350,-164.26 1362.77,-168.37 1376.53,-174.56 1387.16,-179.75"/>
<polygon fill="#9a32cd" stroke="#9a32cd" points="1296.82,-147.57 1286.35,-149.2 1295.55,-154.45 1296.82,-147.57"/>
<text text-anchor="middle" x="1327" y="-167.26" font-family="Helvetica,sans-Serif" font-size="10.00"> field_0x80</text>
</g>
</g>
</svg>
