<?xml version="1.0" encoding="UTF-8" standalone="no"?>
<!DOCTYPE svg PUBLIC "-//W3C//DTD SVG 1.1//EN"
 "http://www.w3.org/Graphics/SVG/1.1/DTD/svg11.dtd">
<!-- Generated by graphviz version 2.44.0 ()
 -->
<!-- Title: Z2WolfHowlMgr Pages: 1 -->
<svg width="592pt" height="117pt"
 viewBox="0.00 0.00 592.00 117.00" xmlns="http://www.w3.org/2000/svg" xmlns:xlink="http://www.w3.org/1999/xlink">
<g id="graph0" class="graph" transform="scale(1 1) rotate(0) translate(4 113)">
<title>Z2WolfHowlMgr</title>
<polygon fill="white" stroke="transparent" points="-4,4 -4,-113 588,-113 588,4 -4,4"/>
<!-- Node1 -->
<g id="node1" class="node">
<title>Node1</title>
<g id="a_node1"><a xlink:title=" ">
<polygon fill="#bfbfbf" stroke="black" points="37,-0.5 37,-19.5 123,-19.5 123,-0.5 37,-0.5"/>
<text text-anchor="middle" x="80" y="-7.5" font-family="Helvetica,sans-Serif" font-size="10.00">Z2WolfHowlMgr</text>
</a>
</g>
</g>
<!-- Node2 -->
<g id="node2" class="node">
<title>Node2</title>
<g id="a_node2"><a xlink:href="structZ2WolfHowlData.html" target="_top" xlink:title=" ">
<polygon fill="white" stroke="black" points="0,-89.5 0,-108.5 90,-108.5 90,-89.5 0,-89.5"/>
<text text-anchor="middle" x="45" y="-96.5" font-family="Helvetica,sans-Serif" font-size="10.00">Z2WolfHowlData</text>
</a>
</g>
</g>
<!-- Node2&#45;&gt;Node1 -->
<g id="edge1" class="edge">
<title>Node2&#45;&gt;Node1</title>
<path fill="none" stroke="#9a32cd" stroke-dasharray="5,2" d="M41.33,-79.26C39.84,-66.91 39.72,-50.73 46,-38 49.8,-30.29 56.96,-24.1 63.73,-19.59"/>
<polygon fill="#9a32cd" stroke="#9a32cd" points="37.9,-79.99 42.94,-89.32 44.82,-78.89 37.9,-79.99"/>
<text text-anchor="middle" x="69" y="-52" font-family="Helvetica,sans-Serif" font-size="10.00"> field_0x0c</text>
</g>
<!-- Node3 -->
<g id="node3" class="node">
<title>Node3</title>
<g id="a_node3"><a xlink:href="structJAISoundHandle.html" target="_top" xlink:title=" ">
<polygon fill="white" stroke="black" points="123,-89.5 123,-108.5 213,-108.5 213,-89.5 123,-89.5"/>
<text text-anchor="middle" x="168" y="-96.5" font-family="Helvetica,sans-Serif" font-size="10.00">JAISoundHandle</text>
</a>
</g>
</g>
<!-- Node3&#45;&gt;Node1 -->
<g id="edge2" class="edge">
<title>Node3&#45;&gt;Node1</title>
<path fill="none" stroke="#9a32cd" stroke-dasharray="5,2" d="M135.27,-85.02C128.07,-81.2 120.86,-76.53 115,-71 106.76,-63.22 91.75,-34.51 84.35,-19.8"/>
<polygon fill="#9a32cd" stroke="#9a32cd" points="133.75,-88.17 144.27,-89.4 136.81,-81.88 133.75,-88.17"/>
<text text-anchor="middle" x="138" y="-63" font-family="Helvetica,sans-Serif" font-size="10.00"> field_0x00</text>
<text text-anchor="middle" x="138" y="-52" font-family="Helvetica,sans-Serif" font-size="10.00">field_0x04</text>
<text text-anchor="middle" x="138" y="-41" font-family="Helvetica,sans-Serif" font-size="10.00">field_0x08</text>
</g>
<!-- Node4 -->
<g id="node4" class="node">
<title>Node4</title>
<g id="a_node4"><a xlink:href="structJAISound.html" target="_top" xlink:title=" ">
<polygon fill="white" stroke="black" points="305.5,-0.5 305.5,-19.5 364.5,-19.5 364.5,-0.5 305.5,-0.5"/>
<text text-anchor="middle" x="335" y="-7.5" font-family="Helvetica,sans-Serif" font-size="10.00">JAISound</text>
</a>
</g>
</g>
<!-- Node3&#45;&gt;Node4 -->
<g id="edge8" class="edge">
<title>Node3&#45;&gt;Node4</title>
<path fill="none" stroke="#9a32cd" stroke-dasharray="5,2" d="M166.6,-79.22C166.68,-65.89 169.19,-48.55 180,-38 197.4,-21.03 265.54,-14.6 305.45,-12.26"/>
<polygon fill="#9a32cd" stroke="#9a32cd" points="163.1,-79.38 166.96,-89.24 170.09,-79.12 163.1,-79.38"/>
<text text-anchor="middle" x="195.5" y="-52" font-family="Helvetica,sans-Serif" font-size="10.00"> handle</text>
</g>
<!-- Node4&#45;&gt;Node3 -->
<g id="edge3" class="edge">
<title>Node4&#45;&gt;Node3</title>
<path fill="none" stroke="#9a32cd" stroke-dasharray="5,2" d="M295.32,-20.28C281.11,-24.52 265.32,-30.35 252,-38 232.89,-48.98 232.87,-58.11 215,-71 205.54,-77.83 194.21,-84.37 185.05,-89.31"/>
<polygon fill="#9a32cd" stroke="#9a32cd" points="296.66,-23.54 305.34,-17.46 294.76,-16.8 296.66,-23.54"/>
<text text-anchor="middle" x="269" y="-52" font-family="Helvetica,sans-Serif" font-size="10.00"> sound_</text>
</g>
<!-- Node5 -->
<g id="node5" class="node">
<title>Node5</title>
<g id="a_node5"><a xlink:href="structJAISoundParams.html" target="_top" xlink:title=" ">
<polygon fill="white" stroke="black" points="231.5,-89.5 231.5,-108.5 324.5,-108.5 324.5,-89.5 231.5,-89.5"/>
<text text-anchor="middle" x="278" y="-96.5" font-family="Helvetica,sans-Serif" font-size="10.00">JAISoundParams</text>
</a>
</g>
</g>
<!-- Node5&#45;&gt;Node4 -->
<g id="edge4" class="edge">
<title>Node5&#45;&gt;Node4</title>
<path fill="none" stroke="#9a32cd" stroke-dasharray="5,2" d="M285.55,-80.18C291.18,-67.81 299.5,-51.25 309,-38 313.78,-31.33 320.15,-24.69 325.39,-19.66"/>
<polygon fill="#9a32cd" stroke="#9a32cd" points="282.31,-78.85 281.49,-89.41 288.72,-81.66 282.31,-78.85"/>
<text text-anchor="middle" x="326.5" y="-52" font-family="Helvetica,sans-Serif" font-size="10.00"> params</text>
</g>
<!-- Node6 -->
<g id="node6" class="node">
<title>Node6</title>
<g id="a_node6"><a xlink:href="structJAISoundID.html" target="_top" xlink:title=" ">
<polygon fill="white" stroke="black" points="342.5,-89.5 342.5,-108.5 411.5,-108.5 411.5,-89.5 342.5,-89.5"/>
<text text-anchor="middle" x="377" y="-96.5" font-family="Helvetica,sans-Serif" font-size="10.00">JAISoundID</text>
</a>
</g>
</g>
<!-- Node6&#45;&gt;Node4 -->
<g id="edge5" class="edge">
<title>Node6&#45;&gt;Node4</title>
<path fill="none" stroke="#9a32cd" stroke-dasharray="5,2" d="M368.42,-80.23C359.51,-61.77 345.95,-33.67 339.16,-19.62"/>
<polygon fill="#9a32cd" stroke="#9a32cd" points="365.32,-81.86 372.82,-89.34 371.62,-78.81 365.32,-81.86"/>
<text text-anchor="middle" x="384" y="-52" font-family="Helvetica,sans-Serif" font-size="10.00"> sound_id</text>
</g>
<!-- Node7 -->
<g id="node7" class="node">
<title>Node7</title>
<g id="a_node7"><a xlink:href="structJAIAudience.html" target="_top" xlink:title=" ">
<polygon fill="white" stroke="black" points="430,-89.5 430,-108.5 502,-108.5 502,-89.5 430,-89.5"/>
<text text-anchor="middle" x="466" y="-96.5" font-family="Helvetica,sans-Serif" font-size="10.00">JAIAudience</text>
</a>
</g>
</g>
<!-- Node7&#45;&gt;Node4 -->
<g id="edge6" class="edge">
<title>Node7&#45;&gt;Node4</title>
<path fill="none" stroke="#9a32cd" stroke-dasharray="5,2" d="M453.59,-81.17C443.03,-67.86 426.77,-49.65 409,-38 395.51,-29.15 378.73,-22.72 364.56,-18.36"/>
<polygon fill="#9a32cd" stroke="#9a32cd" points="451.08,-83.65 459.95,-89.45 456.64,-79.39 451.08,-83.65"/>
<text text-anchor="middle" x="466" y="-52" font-family="Helvetica,sans-Serif" font-size="10.00"> audience</text>
</g>
<!-- Node8 -->
<g id="node8" class="node">
<title>Node8</title>
<g id="a_node8"><a xlink:href="structJAIAudible.html" target="_top" xlink:title=" ">
<polygon fill="white" stroke="black" points="520,-89.5 520,-108.5 584,-108.5 584,-89.5 520,-89.5"/>
<text text-anchor="middle" x="552" y="-96.5" font-family="Helvetica,sans-Serif" font-size="10.00">JAIAudible</text>
</a>
</g>
</g>
<!-- Node8&#45;&gt;Node4 -->
<g id="edge7" class="edge">
<title>Node8&#45;&gt;Node4</title>
<path fill="none" stroke="#9a32cd" stroke-dasharray="5,2" d="M539.69,-81.15C528.58,-67.26 510.95,-48.24 491,-38 450.53,-17.23 397.19,-12.03 364.53,-10.95"/>
<polygon fill="#9a32cd" stroke="#9a32cd" points="537.15,-83.59 546.01,-89.39 542.7,-79.33 537.15,-83.59"/>
<text text-anchor="middle" x="547" y="-52" font-family="Helvetica,sans-Serif" font-size="10.00"> audible</text>
</g>
</g>
</svg>
