<?xml version="1.0" encoding="UTF-8" standalone="no"?>
<!DOCTYPE svg PUBLIC "-//W3C//DTD SVG 1.1//EN"
 "http://www.w3.org/Graphics/SVG/1.1/DTD/svg11.dtd">
<!-- Generated by graphviz version 2.44.0 ()
 -->
<!-- Title: J3DPacket Pages: 1 -->
<!--zoomable 541 -->
<svg id="main" version="1.1" xmlns="http://www.w3.org/2000/svg" xmlns:xlink="http://www.w3.org/1999/xlink" xml:space="preserve" onload="init(evt)">
<style type="text/css"><![CDATA[
.edge:hover path { stroke: red; }
.edge:hover polygon { stroke: red; fill: red; }
]]></style>
<script type="text/javascript"><![CDATA[
var edges = document.getElementsByTagName('g');
if (edges && edges.length) {
  for (var i=0;i<edges.length;i++) {
    if (edges[i].id.substr(0,4)=='edge') {
      edges[i].setAttribute('class','edge');
    }
  }
}
]]></script>
        <defs>
                <circle id="rim" cx="0" cy="0" r="7"/>
                <circle id="rim2" cx="0" cy="0" r="3.5"/>
                <g id="zoomPlus">
                        <use xlink:href="#rim" fill="#404040">
                                <set attributeName="fill" to="#808080" begin="zoomplus.mouseover" end="zoomplus.mouseout"/>
                        </use>
                        <path d="M-4,0h8M0,-4v8" fill="none" stroke="white" stroke-width="1.5" pointer-events="none"/>
                </g>
                <g id="zoomMin">
                        <use xlink:href="#rim" fill="#404040">
                                <set attributeName="fill" to="#808080" begin="zoomminus.mouseover" end="zoomminus.mouseout"/>
                        </use>
                        <path d="M-4,0h8" fill="none" stroke="white" stroke-width="1.5" pointer-events="none"/>
                </g>
                <g id="dirArrow">
                        <path fill="none" stroke="white" stroke-width="1.5" d="M0,-3.0v7 M-2.5,-0.5L0,-3.0L2.5,-0.5"/>
                </g>
               <g id="resetDef">
                       <use xlink:href="#rim2" fill="#404040">
                               <set attributeName="fill" to="#808080" begin="reset.mouseover" end="reset.mouseout"/>
                       </use>
               </g>
        </defs>

<script type="text/javascript">
var viewWidth = 365;
var viewHeight = 541;
var sectionId = 'dynsection-0';
</script>
<script xlink:href="svgpan.js"/>
<svg id="graph" class="graph">
<g id="viewport">
<title>J3DPacket</title>
<polygon fill="white" stroke="transparent" points="-4,4 -4,-537 361,-537 361,4 -4,4"/>
<!-- Node1 -->
<g id="node1" class="node">
<title>Node1</title>
<g id="a_node1"><a xlink:title=" ">
<polygon fill="#bfbfbf" stroke="black" points="0,-247.5 0,-266.5 65,-266.5 65,-247.5 0,-247.5"/>
<text text-anchor="middle" x="32.5" y="-254.5" font-family="Helvetica,sans-Serif" font-size="10.00">J3DPacket</text>
</a>
</g>
</g>
<!-- Node2 -->
<g id="node2" class="node">
<title>Node2</title>
<g id="a_node2"><a xlink:href="structJ3DDrawPacket.html" target="_top" xlink:title=" ">
<polygon fill="white" stroke="black" points="121.5,-494.5 121.5,-513.5 208.5,-513.5 208.5,-494.5 121.5,-494.5"/>
<text text-anchor="middle" x="165" y="-501.5" font-family="Helvetica,sans-Serif" font-size="10.00">J3DDrawPacket</text>
</a>
</g>
</g>
<!-- Node1&#45;&gt;Node2 -->
<g id="edge1" class="edge">
<title>Node1&#45;&gt;Node2</title>
<path fill="none" stroke="midnightblue" d="M33.43,-277.08C34.39,-321.08 43,-426.71 101,-485 106.64,-490.67 113.91,-494.66 121.49,-497.46"/>
<polygon fill="midnightblue" stroke="midnightblue" points="36.93,-276.8 33.32,-266.84 29.93,-276.88 36.93,-276.8"/>
</g>
<!-- Node5 -->
<g id="node5" class="node">
<title>Node5</title>
<g id="a_node5"><a xlink:href="structdKankyo__cloud__Packet.html" target="_top" xlink:title=" ">
<polygon fill="white" stroke="black" points="105.5,-456.5 105.5,-475.5 224.5,-475.5 224.5,-456.5 105.5,-456.5"/>
<text text-anchor="middle" x="165" y="-463.5" font-family="Helvetica,sans-Serif" font-size="10.00">dKankyo_cloud_Packet</text>
</a>
</g>
</g>
<!-- Node1&#45;&gt;Node5 -->
<g id="edge4" class="edge">
<title>Node1&#45;&gt;Node5</title>
<path fill="none" stroke="midnightblue" d="M34.86,-277.37C38.55,-316.04 52.08,-400.39 101,-447 105.05,-450.86 109.86,-453.94 114.99,-456.4"/>
<polygon fill="midnightblue" stroke="midnightblue" points="38.31,-276.61 34,-266.93 31.34,-277.18 38.31,-276.61"/>
</g>
<!-- Node6 -->
<g id="node6" class="node">
<title>Node6</title>
<g id="a_node6"><a xlink:href="structdKankyo__evil__Packet.html" target="_top" xlink:title=" ">
<polygon fill="white" stroke="black" points="110,-418.5 110,-437.5 220,-437.5 220,-418.5 110,-418.5"/>
<text text-anchor="middle" x="165" y="-425.5" font-family="Helvetica,sans-Serif" font-size="10.00">dKankyo_evil_Packet</text>
</a>
</g>
</g>
<!-- Node1&#45;&gt;Node6 -->
<g id="edge5" class="edge">
<title>Node1&#45;&gt;Node6</title>
<path fill="none" stroke="midnightblue" d="M36.84,-276.88C43.33,-309.29 60.71,-373.46 101,-409 105.37,-412.85 110.5,-415.93 115.91,-418.38"/>
<polygon fill="midnightblue" stroke="midnightblue" points="40.24,-276.03 34.98,-266.84 33.36,-277.31 40.24,-276.03"/>
</g>
<!-- Node7 -->
<g id="node7" class="node">
<title>Node7</title>
<g id="a_node7"><a xlink:href="structdKankyo__housi__Packet.html" target="_top" xlink:title=" ">
<polygon fill="white" stroke="black" points="105.5,-380.5 105.5,-399.5 224.5,-399.5 224.5,-380.5 105.5,-380.5"/>
<text text-anchor="middle" x="165" y="-387.5" font-family="Helvetica,sans-Serif" font-size="10.00">dKankyo_housi_Packet</text>
</a>
</g>
</g>
<!-- Node1&#45;&gt;Node7 -->
<g id="edge6" class="edge">
<title>Node1&#45;&gt;Node7</title>
<path fill="none" stroke="midnightblue" d="M39.84,-276.18C49.21,-301.58 69.16,-346.05 101,-371 105.95,-374.87 111.67,-377.96 117.62,-380.42"/>
<polygon fill="midnightblue" stroke="midnightblue" points="43.08,-274.85 36.47,-266.58 36.48,-277.17 43.08,-274.85"/>
</g>
<!-- Node8 -->
<g id="node8" class="node">
<title>Node8</title>
<g id="a_node8"><a xlink:href="structdKankyo__mud__Packet.html" target="_top" xlink:title=" ">
<polygon fill="white" stroke="black" points="108,-342.5 108,-361.5 222,-361.5 222,-342.5 108,-342.5"/>
<text text-anchor="middle" x="165" y="-349.5" font-family="Helvetica,sans-Serif" font-size="10.00">dKankyo_mud_Packet</text>
</a>
</g>
</g>
<!-- Node1&#45;&gt;Node8 -->
<g id="edge7" class="edge">
<title>Node1&#45;&gt;Node8</title>
<path fill="none" stroke="midnightblue" d="M45.32,-275.36C57.36,-292.62 77.54,-318 101,-333 107.06,-336.88 113.96,-340 120.91,-342.5"/>
<polygon fill="midnightblue" stroke="midnightblue" points="47.99,-273.06 39.51,-266.71 42.19,-276.96 47.99,-273.06"/>
</g>
<!-- Node9 -->
<g id="node9" class="node">
<title>Node9</title>
<g id="a_node9"><a xlink:href="structdKankyo__odour__Packet.html" target="_top" xlink:title=" ">
<polygon fill="white" stroke="black" points="105.5,-304.5 105.5,-323.5 224.5,-323.5 224.5,-304.5 105.5,-304.5"/>
<text text-anchor="middle" x="165" y="-311.5" font-family="Helvetica,sans-Serif" font-size="10.00">dKankyo_odour_Packet</text>
</a>
</g>
</g>
<!-- Node1&#45;&gt;Node9 -->
<g id="edge8" class="edge">
<title>Node1&#45;&gt;Node9</title>
<path fill="none" stroke="midnightblue" d="M56.87,-271.84C69.58,-279.47 85.77,-288.51 101,-295 109.41,-298.58 118.71,-301.78 127.53,-304.49"/>
<polygon fill="midnightblue" stroke="midnightblue" points="58.65,-268.83 48.3,-266.59 54.99,-274.8 58.65,-268.83"/>
</g>
<!-- Node10 -->
<g id="node10" class="node">
<title>Node10</title>
<g id="a_node10"><a xlink:href="structdKankyo__rain__Packet.html" target="_top" xlink:title=" ">
<polygon fill="white" stroke="black" points="109.5,-266.5 109.5,-285.5 220.5,-285.5 220.5,-266.5 109.5,-266.5"/>
<text text-anchor="middle" x="165" y="-273.5" font-family="Helvetica,sans-Serif" font-size="10.00">dKankyo_rain_Packet</text>
</a>
</g>
</g>
<!-- Node1&#45;&gt;Node10 -->
<g id="edge9" class="edge">
<title>Node1&#45;&gt;Node10</title>
<path fill="none" stroke="midnightblue" d="M75.14,-263.06C85.99,-264.64 97.85,-266.37 109.27,-268.03"/>
<polygon fill="midnightblue" stroke="midnightblue" points="75.49,-259.58 65.09,-261.6 74.48,-266.5 75.49,-259.58"/>
</g>
<!-- Node11 -->
<g id="node11" class="node">
<title>Node11</title>
<g id="a_node11"><a xlink:href="classdKankyo__shstar__Packet.html" target="_top" xlink:title=" ">
<polygon fill="white" stroke="black" points="104,-228.5 104,-247.5 226,-247.5 226,-228.5 104,-228.5"/>
<text text-anchor="middle" x="165" y="-235.5" font-family="Helvetica,sans-Serif" font-size="10.00">dKankyo_shstar_Packet</text>
</a>
</g>
</g>
<!-- Node1&#45;&gt;Node11 -->
<g id="edge10" class="edge">
<title>Node1&#45;&gt;Node11</title>
<path fill="none" stroke="midnightblue" d="M75.08,-250.95C84.24,-249.61 94.12,-248.17 103.85,-246.76"/>
<polygon fill="midnightblue" stroke="midnightblue" points="74.48,-247.5 65.09,-252.4 75.49,-254.42 74.48,-247.5"/>
</g>
<!-- Node12 -->
<g id="node12" class="node">
<title>Node12</title>
<g id="a_node12"><a xlink:href="structdKankyo__snow__Packet.html" target="_top" xlink:title=" ">
<polygon fill="white" stroke="black" points="105.5,-190.5 105.5,-209.5 224.5,-209.5 224.5,-190.5 105.5,-190.5"/>
<text text-anchor="middle" x="165" y="-197.5" font-family="Helvetica,sans-Serif" font-size="10.00">dKankyo_snow_Packet</text>
</a>
</g>
</g>
<!-- Node1&#45;&gt;Node12 -->
<g id="edge11" class="edge">
<title>Node1&#45;&gt;Node12</title>
<path fill="none" stroke="midnightblue" d="M56.87,-242.16C69.58,-234.53 85.77,-225.49 101,-219 109.41,-215.42 118.71,-212.22 127.53,-209.51"/>
<polygon fill="midnightblue" stroke="midnightblue" points="54.99,-239.2 48.3,-247.41 58.65,-245.17 54.99,-239.2"/>
</g>
<!-- Node13 -->
<g id="node13" class="node">
<title>Node13</title>
<g id="a_node13"><a xlink:href="structdKankyo__star__Packet.html" target="_top" xlink:title=" ">
<polygon fill="white" stroke="black" points="109,-152.5 109,-171.5 221,-171.5 221,-152.5 109,-152.5"/>
<text text-anchor="middle" x="165" y="-159.5" font-family="Helvetica,sans-Serif" font-size="10.00">dKankyo_star_Packet</text>
</a>
</g>
</g>
<!-- Node1&#45;&gt;Node13 -->
<g id="edge12" class="edge">
<title>Node1&#45;&gt;Node13</title>
<path fill="none" stroke="midnightblue" d="M45.32,-238.64C57.36,-221.38 77.54,-196 101,-181 107.06,-177.12 113.96,-174 120.91,-171.5"/>
<polygon fill="midnightblue" stroke="midnightblue" points="42.19,-237.04 39.51,-247.29 47.99,-240.94 42.19,-237.04"/>
</g>
<!-- Node14 -->
<g id="node14" class="node">
<title>Node14</title>
<g id="a_node14"><a xlink:href="structdKankyo__sun__Packet.html" target="_top" xlink:title=" ">
<polygon fill="white" stroke="black" points="109.5,-114.5 109.5,-133.5 220.5,-133.5 220.5,-114.5 109.5,-114.5"/>
<text text-anchor="middle" x="165" y="-121.5" font-family="Helvetica,sans-Serif" font-size="10.00">dKankyo_sun_Packet</text>
</a>
</g>
</g>
<!-- Node1&#45;&gt;Node14 -->
<g id="edge13" class="edge">
<title>Node1&#45;&gt;Node14</title>
<path fill="none" stroke="midnightblue" d="M39.84,-237.82C49.21,-212.42 69.16,-167.95 101,-143 105.95,-139.13 111.67,-136.04 117.62,-133.58"/>
<polygon fill="midnightblue" stroke="midnightblue" points="36.48,-236.83 36.47,-247.42 43.08,-239.15 36.48,-236.83"/>
</g>
<!-- Node15 -->
<g id="node15" class="node">
<title>Node15</title>
<g id="a_node15"><a xlink:href="structdKankyo__sunlenz__Packet.html" target="_top" xlink:title=" ">
<polygon fill="white" stroke="black" points="101,-76.5 101,-95.5 229,-95.5 229,-76.5 101,-76.5"/>
<text text-anchor="middle" x="165" y="-83.5" font-family="Helvetica,sans-Serif" font-size="10.00">dKankyo_sunlenz_Packet</text>
</a>
</g>
</g>
<!-- Node1&#45;&gt;Node15 -->
<g id="edge14" class="edge">
<title>Node1&#45;&gt;Node15</title>
<path fill="none" stroke="midnightblue" d="M36.84,-237.12C43.33,-204.71 60.71,-140.54 101,-105 105.37,-101.15 110.5,-98.07 115.91,-95.62"/>
<polygon fill="midnightblue" stroke="midnightblue" points="33.36,-236.69 34.98,-247.16 40.24,-237.97 33.36,-236.69"/>
</g>
<!-- Node16 -->
<g id="node16" class="node">
<title>Node16</title>
<g id="a_node16"><a xlink:href="structdKankyo__vrkumo__Packet.html" target="_top" xlink:title=" ">
<polygon fill="white" stroke="black" points="101,-38.5 101,-57.5 229,-57.5 229,-38.5 101,-38.5"/>
<text text-anchor="middle" x="165" y="-45.5" font-family="Helvetica,sans-Serif" font-size="10.00">dKankyo_vrkumo_Packet</text>
</a>
</g>
</g>
<!-- Node1&#45;&gt;Node16 -->
<g id="edge15" class="edge">
<title>Node1&#45;&gt;Node16</title>
<path fill="none" stroke="midnightblue" d="M34.86,-236.63C38.55,-197.96 52.08,-113.61 101,-67 105.05,-63.14 109.86,-60.06 114.99,-57.6"/>
<polygon fill="midnightblue" stroke="midnightblue" points="31.34,-236.82 34,-247.07 38.31,-237.39 31.34,-236.82"/>
</g>
<!-- Node17 -->
<g id="node17" class="node">
<title>Node17</title>
<g id="a_node17"><a xlink:href="classdaAlink__blur__c.html" target="_top" xlink:title=" ">
<polygon fill="white" stroke="black" points="125,-0.5 125,-19.5 205,-19.5 205,-0.5 125,-0.5"/>
<text text-anchor="middle" x="165" y="-7.5" font-family="Helvetica,sans-Serif" font-size="10.00">daAlink_blur_c</text>
</a>
</g>
</g>
<!-- Node1&#45;&gt;Node17 -->
<g id="edge16" class="edge">
<title>Node1&#45;&gt;Node17</title>
<path fill="none" stroke="midnightblue" d="M33.43,-236.92C34.39,-192.92 43,-87.29 101,-29 107.45,-22.52 116.02,-18.24 124.75,-15.41"/>
<polygon fill="midnightblue" stroke="midnightblue" points="29.93,-237.12 33.32,-247.16 36.93,-237.2 29.93,-237.12"/>
</g>
<!-- Node3 -->
<g id="node3" class="node">
<title>Node3</title>
<g id="a_node3"><a xlink:href="structJ3DMatPacket.html" target="_top" xlink:title=" ">
<polygon fill="white" stroke="black" points="270.5,-513.5 270.5,-532.5 351.5,-532.5 351.5,-513.5 270.5,-513.5"/>
<text text-anchor="middle" x="311" y="-520.5" font-family="Helvetica,sans-Serif" font-size="10.00">J3DMatPacket</text>
</a>
</g>
</g>
<!-- Node2&#45;&gt;Node3 -->
<g id="edge2" class="edge">
<title>Node2&#45;&gt;Node3</title>
<path fill="none" stroke="midnightblue" d="M219.08,-511C235.94,-513.23 254.29,-515.65 270.06,-517.73"/>
<polygon fill="midnightblue" stroke="midnightblue" points="219.19,-507.49 208.81,-509.65 218.27,-514.43 219.19,-507.49"/>
</g>
<!-- Node4 -->
<g id="node4" class="node">
<title>Node4</title>
<g id="a_node4"><a xlink:href="structJ3DShapePacket.html" target="_top" xlink:title=" ">
<polygon fill="white" stroke="black" points="265,-475.5 265,-494.5 357,-494.5 357,-475.5 265,-475.5"/>
<text text-anchor="middle" x="311" y="-482.5" font-family="Helvetica,sans-Serif" font-size="10.00">J3DShapePacket</text>
</a>
</g>
</g>
<!-- Node2&#45;&gt;Node4 -->
<g id="edge3" class="edge">
<title>Node2&#45;&gt;Node4</title>
<path fill="none" stroke="midnightblue" d="M219.01,-497.01C234.06,-495.02 250.31,-492.88 264.85,-490.96"/>
<polygon fill="midnightblue" stroke="midnightblue" points="218.27,-493.57 208.81,-498.35 219.19,-500.51 218.27,-493.57"/>
</g>
</g>
</svg>
        <g id="navigator" transform="translate(0 0)" fill="#404254">
                <rect fill="#f2f5e9" fill-opacity="0.5" stroke="#606060" stroke-width=".5" x="0" y="0" width="60" height="60"/>
                <use id="zoomplus" xlink:href="#zoomPlus" x="17" y="9" onmousedown="handleZoom(evt,'in')"/>
                <use id="zoomminus" xlink:href="#zoomMin" x="42" y="9" onmousedown="handleZoom(evt,'out')"/>
                <use id="reset" xlink:href="#resetDef" x="30" y="36" onmousedown="handleReset()"/>
                <g id="arrowUp" xlink:href="#dirArrow" transform="translate(30 24)" onmousedown="handlePan(0,-1)">
                  <use xlink:href="#rim" fill="#404040">
                        <set attributeName="fill" to="#808080" begin="arrowUp.mouseover" end="arrowUp.mouseout"/>
                  </use>
                  <path fill="none" stroke="white" stroke-width="1.5" d="M0,-3.0v7 M-2.5,-0.5L0,-3.0L2.5,-0.5"/>
                </g>
                <g id="arrowRight" xlink:href="#dirArrow" transform="rotate(90) translate(36 -43)" onmousedown="handlePan(1,0)">
                  <use xlink:href="#rim" fill="#404040">
                        <set attributeName="fill" to="#808080" begin="arrowRight.mouseover" end="arrowRight.mouseout"/>
                  </use>
                  <path fill="none" stroke="white" stroke-width="1.5" d="M0,-3.0v7 M-2.5,-0.5L0,-3.0L2.5,-0.5"/>
                </g>
                <g id="arrowDown" xlink:href="#dirArrow" transform="rotate(180) translate(-30 -48)" onmousedown="handlePan(0,1)">
                  <use xlink:href="#rim" fill="#404040">
                        <set attributeName="fill" to="#808080" begin="arrowDown.mouseover" end="arrowDown.mouseout"/>
                  </use>
                  <path fill="none" stroke="white" stroke-width="1.5" d="M0,-3.0v7 M-2.5,-0.5L0,-3.0L2.5,-0.5"/>
                </g>
                <g id="arrowLeft" xlink:href="#dirArrow" transform="rotate(270) translate(-36 17)" onmousedown="handlePan(-1,0)">
                  <use xlink:href="#rim" fill="#404040">
                        <set attributeName="fill" to="#808080" begin="arrowLeft.mouseover" end="arrowLeft.mouseout"/>
                  </use>
                  <path fill="none" stroke="white" stroke-width="1.5" d="M0,-3.0v7 M-2.5,-0.5L0,-3.0L2.5,-0.5"/>
                </g>
        </g>
        <svg viewBox="0 0 15 15" width="100%" height="30px" preserveAspectRatio="xMaxYMin meet">
         <g id="arrow_out" transform="scale(0.3 0.3)">
          <a xlink:href="structJ3DPacket__inherit__graph_org.svg" target="_base">
           <rect id="button" ry="5" rx="5" y="6" x="6" height="38" width="38"
                fill="#f2f5e9" fill-opacity="0.5" stroke="#606060" stroke-width="1.0"/>
           <path id="arrow"
             d="M 11.500037,31.436501 C 11.940474,20.09759 22.043105,11.32322 32.158766,21.979434 L 37.068811,17.246167 C 37.068811,17.246167 37.088388,32 37.088388,32 L 22.160133,31.978069 C 22.160133,31.978069 26.997745,27.140456 26.997745,27.140456 C 18.528582,18.264221 13.291696,25.230495 11.500037,31.436501 z"
             style="fill:#404040;"/>
          </a>
         </g>
        </svg>
</svg>
