<?xml version="1.0" encoding="UTF-8" standalone="no"?>
<!DOCTYPE svg PUBLIC "-//W3C//DTD SVG 1.1//EN"
 "http://www.w3.org/Graphics/SVG/1.1/DTD/svg11.dtd">
<!-- Generated by graphviz version 2.44.0 ()
 -->
<!-- Title: J3DModel Pages: 1 -->
<svg width="851pt" height="707pt"
 viewBox="0.00 0.00 851.00 707.00" xmlns="http://www.w3.org/2000/svg" xmlns:xlink="http://www.w3.org/1999/xlink">
<g id="graph0" class="graph" transform="scale(1 1) rotate(0) translate(4 703)">
<title>J3DModel</title>
<polygon fill="white" stroke="transparent" points="-4,4 -4,-703 847,-703 847,4 -4,4"/>
<!-- Node1 -->
<g id="node1" class="node">
<title>Node1</title>
<g id="a_node1"><a xlink:title=" ">
<polygon fill="#bfbfbf" stroke="black" points="360.5,-519.5 360.5,-538.5 420.5,-538.5 420.5,-519.5 360.5,-519.5"/>
<text text-anchor="middle" x="390.5" y="-526.5" font-family="Helvetica,sans-Serif" font-size="10.00">J3DModel</text>
</a>
</g>
</g>
<!-- Node11 -->
<g id="node11" class="node">
<title>Node11</title>
<g id="a_node11"><a xlink:href="structJ3DShapePacket.html" target="_top" xlink:title=" ">
<polygon fill="white" stroke="black" points="540,-363.5 540,-382.5 632,-382.5 632,-363.5 540,-363.5"/>
<text text-anchor="middle" x="586" y="-370.5" font-family="Helvetica,sans-Serif" font-size="10.00">J3DShapePacket</text>
</a>
</g>
</g>
<!-- Node1&#45;&gt;Node11 -->
<g id="edge13" class="edge">
<title>Node1&#45;&gt;Node11</title>
<path fill="none" stroke="#9a32cd" stroke-dasharray="5,2" d="M414.88,-513.75C441.63,-495.95 486.34,-465.09 522,-435 542.41,-417.78 564.18,-395.33 576.03,-382.71"/>
<polygon fill="#9a32cd" stroke="#9a32cd" points="412.94,-510.84 406.53,-519.27 416.8,-516.67 412.94,-510.84"/>
<text text-anchor="middle" x="487" y="-491" font-family="Helvetica,sans-Serif" font-size="10.00"> mpModel</text>
</g>
<!-- Node2 -->
<g id="node2" class="node">
<title>Node2</title>
<g id="a_node2"><a xlink:href="structJ3DVtxColorCalc.html" target="_top" xlink:title=" ">
<polygon fill="white" stroke="black" points="138.5,-481.5 138.5,-500.5 228.5,-500.5 228.5,-481.5 138.5,-481.5"/>
<text text-anchor="middle" x="183.5" y="-488.5" font-family="Helvetica,sans-Serif" font-size="10.00">J3DVtxColorCalc</text>
</a>
</g>
</g>
<!-- Node2&#45;&gt;Node1 -->
<g id="edge1" class="edge">
<title>Node2&#45;&gt;Node1</title>
<path fill="none" stroke="#9a32cd" stroke-dasharray="5,2" d="M238.72,-498.51C265.92,-502.56 299.31,-507.97 329,-514 339.29,-516.09 350.46,-518.75 360.38,-521.25"/>
<polygon fill="#9a32cd" stroke="#9a32cd" points="239.03,-495.02 228.63,-497.03 238.01,-501.95 239.03,-495.02"/>
<text text-anchor="middle" x="289.5" y="-517" font-family="Helvetica,sans-Serif" font-size="10.00"> mVtxColorCalc</text>
</g>
<!-- Node3 -->
<g id="node3" class="node">
<title>Node3</title>
<g id="a_node3"><a xlink:href="structJ3DMatPacket.html" target="_top" xlink:title=" ">
<polygon fill="white" stroke="black" points="762,-279.5 762,-298.5 843,-298.5 843,-279.5 762,-279.5"/>
<text text-anchor="middle" x="802.5" y="-286.5" font-family="Helvetica,sans-Serif" font-size="10.00">J3DMatPacket</text>
</a>
</g>
</g>
<!-- Node3&#45;&gt;Node1 -->
<g id="edge2" class="edge">
<title>Node3&#45;&gt;Node1</title>
<path fill="none" stroke="#9a32cd" stroke-dasharray="5,2" d="M792.89,-307.92C783.22,-327.58 765.95,-358.31 744,-379 661.76,-456.52 628.05,-463.93 522,-503 488.4,-515.38 447.65,-522.3 420.72,-525.83"/>
<polygon fill="#9a32cd" stroke="#9a32cd" points="796.12,-309.3 797.25,-298.76 789.79,-306.29 796.12,-309.3"/>
<text text-anchor="middle" x="586" y="-498" font-family="Helvetica,sans-Serif" font-size="10.00"> mMatPacket</text>
</g>
<!-- Node4 -->
<g id="node4" class="node">
<title>Node4</title>
<g id="a_node4"><a xlink:href="structJ3DDrawPacket.html" target="_top" xlink:title=" ">
<polygon fill="white" stroke="black" points="347,-81.5 347,-100.5 434,-100.5 434,-81.5 347,-81.5"/>
<text text-anchor="middle" x="390.5" y="-88.5" font-family="Helvetica,sans-Serif" font-size="10.00">J3DDrawPacket</text>
</a>
</g>
</g>
<!-- Node4&#45;&gt;Node3 -->
<g id="edge3" class="edge">
<title>Node4&#45;&gt;Node3</title>
<path fill="none" stroke="midnightblue" d="M444.18,-81.9C519.28,-72.07 657.59,-65.99 744,-135 790.83,-172.4 799.52,-252.07 801.13,-279.49"/>
<polygon fill="midnightblue" stroke="midnightblue" points="443.44,-78.47 434.01,-83.31 444.4,-85.41 443.44,-78.47"/>
</g>
<!-- Node4&#45;&gt;Node11 -->
<g id="edge12" class="edge">
<title>Node4&#45;&gt;Node11</title>
<path fill="none" stroke="midnightblue" d="M444.38,-100.57C475.97,-107.42 511.87,-117.61 522,-130 549.84,-164.02 521.56,-287.09 540,-327 546.93,-342.01 560.89,-355.04 571.43,-363.36"/>
<polygon fill="midnightblue" stroke="midnightblue" points="444.82,-97.09 434.32,-98.46 443.39,-103.94 444.82,-97.09"/>
</g>
<!-- Node5 -->
<g id="node5" class="node">
<title>Node5</title>
<g id="a_node5"><a xlink:href="structJ3DPacket.html" target="_top" xlink:title=" ">
<polygon fill="white" stroke="black" points="151,-38.5 151,-57.5 216,-57.5 216,-38.5 151,-38.5"/>
<text text-anchor="middle" x="183.5" y="-45.5" font-family="Helvetica,sans-Serif" font-size="10.00">J3DPacket</text>
</a>
</g>
</g>
<!-- Node5&#45;&gt;Node4 -->
<g id="edge4" class="edge">
<title>Node5&#45;&gt;Node4</title>
<path fill="none" stroke="midnightblue" d="M226.02,-56.71C261.17,-64.08 311.36,-74.61 346.83,-82.05"/>
<polygon fill="midnightblue" stroke="midnightblue" points="226.59,-53.25 216.08,-54.62 225.15,-60.1 226.59,-53.25"/>
</g>
<!-- Node5&#45;&gt;Node5 -->
<g id="edge5" class="edge">
<title>Node5&#45;&gt;Node5</title>
<path fill="none" stroke="#9a32cd" stroke-dasharray="5,2" d="M171.35,-67.77C172.3,-72.5 176.35,-76 183.5,-76 195.23,-76 198.62,-66.57 193.67,-57.76"/>
<polygon fill="#9a32cd" stroke="#9a32cd" points="174.82,-68.25 173.33,-57.76 167.95,-66.89 174.82,-68.25"/>
<text text-anchor="middle" x="183.5" y="-90" font-family="Helvetica,sans-Serif" font-size="10.00"> mpFirstChild</text>
<text text-anchor="middle" x="183.5" y="-79" font-family="Helvetica,sans-Serif" font-size="10.00">mpNextSibling</text>
</g>
<!-- Node6 -->
<g id="node6" class="node">
<title>Node6</title>
<g id="a_node6"><a xlink:href="structJ3DTexMtx.html" target="_top" xlink:title=" ">
<polygon fill="white" stroke="black" points="151,-0.5 151,-19.5 216,-19.5 216,-0.5 151,-0.5"/>
<text text-anchor="middle" x="183.5" y="-7.5" font-family="Helvetica,sans-Serif" font-size="10.00">J3DTexMtx</text>
</a>
</g>
</g>
<!-- Node6&#45;&gt;Node4 -->
<g id="edge6" class="edge">
<title>Node6&#45;&gt;Node4</title>
<path fill="none" stroke="#9a32cd" stroke-dasharray="5,2" d="M226.13,-16.35C255.8,-21.89 296.09,-31.52 329,-47 348.04,-55.96 367.21,-71.2 378.72,-81.18"/>
<polygon fill="#9a32cd" stroke="#9a32cd" points="226.57,-12.87 216.11,-14.56 225.34,-19.76 226.57,-12.87"/>
<text text-anchor="middle" x="289.5" y="-50" font-family="Helvetica,sans-Serif" font-size="10.00"> mpTexMtx</text>
</g>
<!-- Node7 -->
<g id="node7" class="node">
<title>Node7</title>
<g id="a_node7"><a xlink:href="structJ3DDisplayListObj.html" target="_top" xlink:title=" ">
<polygon fill="white" stroke="black" points="135,-116.5 135,-135.5 232,-135.5 232,-116.5 135,-116.5"/>
<text text-anchor="middle" x="183.5" y="-123.5" font-family="Helvetica,sans-Serif" font-size="10.00">J3DDisplayListObj</text>
</a>
</g>
</g>
<!-- Node7&#45;&gt;Node4 -->
<g id="edge7" class="edge">
<title>Node7&#45;&gt;Node4</title>
<path fill="none" stroke="#9a32cd" stroke-dasharray="5,2" d="M242.09,-116.17C275.32,-110.49 316.4,-103.48 346.74,-98.3"/>
<polygon fill="#9a32cd" stroke="#9a32cd" points="241.31,-112.75 232.05,-117.88 242.49,-119.65 241.31,-112.75"/>
<text text-anchor="middle" x="289.5" y="-118" font-family="Helvetica,sans-Serif" font-size="10.00"> mpDisplayListObj</text>
</g>
<!-- Node8 -->
<g id="node8" class="node">
<title>Node8</title>
<g id="a_node8"><a xlink:href="structJ3DTexture.html" target="_top" xlink:title=" ">
<polygon fill="white" stroke="black" points="553,-298.5 553,-317.5 619,-317.5 619,-298.5 553,-298.5"/>
<text text-anchor="middle" x="586" y="-305.5" font-family="Helvetica,sans-Serif" font-size="10.00">J3DTexture</text>
</a>
</g>
</g>
<!-- Node8&#45;&gt;Node3 -->
<g id="edge8" class="edge">
<title>Node8&#45;&gt;Node3</title>
<path fill="none" stroke="#9a32cd" stroke-dasharray="5,2" d="M629.47,-304.24C667.97,-300.83 724.27,-295.84 761.86,-292.51"/>
<polygon fill="#9a32cd" stroke="#9a32cd" points="628.76,-300.79 619.11,-305.16 629.38,-307.76 628.76,-300.79"/>
<text text-anchor="middle" x="697" y="-306" font-family="Helvetica,sans-Serif" font-size="10.00"> mpTexture</text>
</g>
<!-- Node9 -->
<g id="node9" class="node">
<title>Node9</title>
<g id="a_node9"><a xlink:href="structJ3DMaterialAnm.html" target="_top" xlink:title=" ">
<polygon fill="white" stroke="black" points="541.5,-260.5 541.5,-279.5 630.5,-279.5 630.5,-260.5 541.5,-260.5"/>
<text text-anchor="middle" x="586" y="-267.5" font-family="Helvetica,sans-Serif" font-size="10.00">J3DMaterialAnm</text>
</a>
</g>
</g>
<!-- Node9&#45;&gt;Node3 -->
<g id="edge9" class="edge">
<title>Node9&#45;&gt;Node3</title>
<path fill="none" stroke="#9a32cd" stroke-dasharray="5,2" d="M641.11,-272.22C671.42,-273.77 709.88,-276.25 744,-280 749.83,-280.64 755.96,-281.45 761.97,-282.33"/>
<polygon fill="#9a32cd" stroke="#9a32cd" points="640.9,-268.71 630.74,-271.71 640.56,-275.7 640.9,-268.71"/>
<text text-anchor="middle" x="697" y="-283" font-family="Helvetica,sans-Serif" font-size="10.00"> mpMaterialAnm</text>
</g>
<!-- Node10 -->
<g id="node10" class="node">
<title>Node10</title>
<g id="a_node10"><a xlink:href="structJ3DMaterial.html" target="_top" xlink:title=" ">
<polygon fill="white" stroke="black" points="149.5,-158.5 149.5,-177.5 217.5,-177.5 217.5,-158.5 149.5,-158.5"/>
<text text-anchor="middle" x="183.5" y="-165.5" font-family="Helvetica,sans-Serif" font-size="10.00">J3DMaterial</text>
</a>
</g>
</g>
<!-- Node10&#45;&gt;Node3 -->
<g id="edge10" class="edge">
<title>Node10&#45;&gt;Node3</title>
<path fill="none" stroke="#9a32cd" stroke-dasharray="5,2" d="M227.77,-164.36C256.57,-162.68 295.18,-161.87 329,-166 502.96,-187.26 704.12,-254.41 775.08,-279.46"/>
<polygon fill="#9a32cd" stroke="#9a32cd" points="227.39,-160.87 217.64,-165.01 227.84,-167.86 227.39,-160.87"/>
<text text-anchor="middle" x="487" y="-206" font-family="Helvetica,sans-Serif" font-size="10.00"> mpMaterial</text>
</g>
<!-- Node13 -->
<g id="node13" class="node">
<title>Node13</title>
<g id="a_node13"><a xlink:href="structJ3DShape.html" target="_top" xlink:title=" ">
<polygon fill="white" stroke="black" points="359.5,-308.5 359.5,-327.5 421.5,-327.5 421.5,-308.5 359.5,-308.5"/>
<text text-anchor="middle" x="390.5" y="-315.5" font-family="Helvetica,sans-Serif" font-size="10.00">J3DShape</text>
</a>
</g>
</g>
<!-- Node10&#45;&gt;Node13 -->
<g id="edge18" class="edge">
<title>Node10&#45;&gt;Node13</title>
<path fill="none" stroke="#9a32cd" stroke-dasharray="5,2" d="M227.8,-167.38C258.86,-169.05 300.14,-175.87 329,-198 366.58,-226.82 382.6,-285.39 387.63,-308.41"/>
<polygon fill="#9a32cd" stroke="#9a32cd" points="227.82,-163.88 217.69,-166.99 227.55,-170.87 227.82,-163.88"/>
<text text-anchor="middle" x="289.5" y="-201" font-family="Helvetica,sans-Serif" font-size="10.00"> mMaterial</text>
</g>
<!-- Node11&#45;&gt;Node1 -->
<g id="edge29" class="edge">
<title>Node11&#45;&gt;Node1</title>
<path fill="none" stroke="#9a32cd" stroke-dasharray="5,2" d="M530.21,-382.92C504.24,-389.83 474.14,-401.28 452,-420 419.11,-447.81 400.8,-498.25 394.27,-519.33"/>
<polygon fill="#9a32cd" stroke="#9a32cd" points="531.08,-386.31 539.93,-380.49 529.38,-379.52 531.08,-386.31"/>
<text text-anchor="middle" x="487" y="-423" font-family="Helvetica,sans-Serif" font-size="10.00"> mShapePacket</text>
</g>
<!-- Node11&#45;&gt;Node3 -->
<g id="edge11" class="edge">
<title>Node11&#45;&gt;Node3</title>
<path fill="none" stroke="#9a32cd" stroke-dasharray="5,2" d="M628.03,-360.25C660.04,-349.91 705.39,-334.42 744,-318 757.68,-312.18 772.67,-304.58 783.91,-298.62"/>
<polygon fill="#9a32cd" stroke="#9a32cd" points="626.59,-357.03 618.14,-363.42 628.73,-363.7 626.59,-357.03"/>
<text text-anchor="middle" x="697" y="-367" font-family="Helvetica,sans-Serif" font-size="10.00"> mpFirstShapePacket</text>
<text text-anchor="middle" x="697" y="-356" font-family="Helvetica,sans-Serif" font-size="10.00">mpShapePacket</text>
</g>
<!-- Node12 -->
<g id="node12" class="node">
<title>Node12</title>
<g id="a_node12"><a xlink:href="structJ3DMtxBuffer.html" target="_top" xlink:title=" ">
<polygon fill="white" stroke="black" points="146,-679.5 146,-698.5 221,-698.5 221,-679.5 146,-679.5"/>
<text text-anchor="middle" x="183.5" y="-686.5" font-family="Helvetica,sans-Serif" font-size="10.00">J3DMtxBuffer</text>
</a>
</g>
</g>
<!-- Node12&#45;&gt;Node1 -->
<g id="edge30" class="edge">
<title>Node12&#45;&gt;Node1</title>
<path fill="none" stroke="#9a32cd" stroke-dasharray="5,2" d="M229.97,-676.88C271.58,-665.72 327,-650.64 329,-649 365.44,-619.11 382.04,-561.68 387.42,-538.78"/>
<polygon fill="#9a32cd" stroke="#9a32cd" points="229.02,-673.51 220.26,-679.48 230.83,-680.27 229.02,-673.51"/>
<text text-anchor="middle" x="289.5" y="-674" font-family="Helvetica,sans-Serif" font-size="10.00"> mMtxBuffer</text>
</g>
<!-- Node12&#45;&gt;Node11 -->
<g id="edge14" class="edge">
<title>Node12&#45;&gt;Node11</title>
<path fill="none" stroke="#9a32cd" stroke-dasharray="5,2" d="M231.38,-695.11C260.56,-696.99 298.26,-695.85 329,-683 437.22,-637.75 456.45,-600.27 522,-503 534.5,-484.45 530.65,-476.32 540,-456 552.61,-428.6 570.34,-397.71 579.32,-382.5"/>
<polygon fill="#9a32cd" stroke="#9a32cd" points="231.28,-691.59 221.04,-694.3 230.73,-698.57 231.28,-691.59"/>
<text text-anchor="middle" x="390.5" y="-677" font-family="Helvetica,sans-Serif" font-size="10.00"> mpMtxBuffer</text>
</g>
<!-- Node13&#45;&gt;Node11 -->
<g id="edge15" class="edge">
<title>Node13&#45;&gt;Node11</title>
<path fill="none" stroke="#9a32cd" stroke-dasharray="5,2" d="M431.74,-329.44C467.15,-339.5 518.13,-353.99 551.41,-363.45"/>
<polygon fill="#9a32cd" stroke="#9a32cd" points="432.31,-325.96 421.73,-326.59 430.4,-332.69 432.31,-325.96"/>
<text text-anchor="middle" x="487" y="-357" font-family="Helvetica,sans-Serif" font-size="10.00"> mpShape</text>
</g>
<!-- Node14 -->
<g id="node14" class="node">
<title>Node14</title>
<g id="a_node14"><a xlink:href="structJ3DShapeMtx.html" target="_top" xlink:title=" ">
<polygon fill="white" stroke="black" points="145,-236.5 145,-255.5 222,-255.5 222,-236.5 145,-236.5"/>
<text text-anchor="middle" x="183.5" y="-243.5" font-family="Helvetica,sans-Serif" font-size="10.00">J3DShapeMtx</text>
</a>
</g>
</g>
<!-- Node14&#45;&gt;Node13 -->
<g id="edge16" class="edge">
<title>Node14&#45;&gt;Node13</title>
<path fill="none" stroke="#9a32cd" stroke-dasharray="5,2" d="M232.45,-251.57C261.27,-256.06 298.21,-263.86 329,-277 347.67,-284.97 366.64,-298.99 378.23,-308.39"/>
<polygon fill="#9a32cd" stroke="#9a32cd" points="232.62,-248.06 222.22,-250.06 231.6,-254.98 232.62,-248.06"/>
<text text-anchor="middle" x="289.5" y="-280" font-family="Helvetica,sans-Serif" font-size="10.00"> mShapeMtx</text>
</g>
<!-- Node15 -->
<g id="node15" class="node">
<title>Node15</title>
<g id="a_node15"><a xlink:href="structJ3DVertexData.html" target="_top" xlink:title=" ">
<polygon fill="white" stroke="black" points="142.5,-198.5 142.5,-217.5 224.5,-217.5 224.5,-198.5 142.5,-198.5"/>
<text text-anchor="middle" x="183.5" y="-205.5" font-family="Helvetica,sans-Serif" font-size="10.00">J3DVertexData</text>
</a>
</g>
</g>
<!-- Node15&#45;&gt;Node13 -->
<g id="edge17" class="edge">
<title>Node15&#45;&gt;Node13</title>
<path fill="none" stroke="#9a32cd" stroke-dasharray="5,2" d="M234.75,-210.66C264.12,-214.19 300.84,-222.17 329,-240 356.36,-257.33 376.3,-291.59 384.86,-308.33"/>
<polygon fill="#9a32cd" stroke="#9a32cd" points="235,-207.17 224.69,-209.59 234.26,-214.13 235,-207.17"/>
<text text-anchor="middle" x="289.5" y="-243" font-family="Helvetica,sans-Serif" font-size="10.00"> mVertexData</text>
</g>
<!-- Node16 -->
<g id="node16" class="node">
<title>Node16</title>
<g id="a_node16"><a xlink:href="classJ3DCurrentMtx.html" target="_top" xlink:title=" ">
<polygon fill="white" stroke="black" points="143,-388.5 143,-407.5 224,-407.5 224,-388.5 143,-388.5"/>
<text text-anchor="middle" x="183.5" y="-395.5" font-family="Helvetica,sans-Serif" font-size="10.00">J3DCurrentMtx</text>
</a>
</g>
</g>
<!-- Node16&#45;&gt;Node13 -->
<g id="edge19" class="edge">
<title>Node16&#45;&gt;Node13</title>
<path fill="none" stroke="#9a32cd" stroke-dasharray="5,2" d="M234.06,-387.77C268.91,-380.18 312.21,-369.83 329,-362 348.07,-353.11 367.23,-337.85 378.73,-327.84"/>
<polygon fill="#9a32cd" stroke="#9a32cd" points="233.06,-384.41 224.02,-389.94 234.53,-391.25 233.06,-384.41"/>
<text text-anchor="middle" x="289.5" y="-387" font-family="Helvetica,sans-Serif" font-size="10.00"> mCurrentMtx</text>
</g>
<!-- Node17 -->
<g id="node17" class="node">
<title>Node17</title>
<g id="a_node17"><a xlink:href="classJ3DCurrentMtxInfo.html" target="_top" xlink:title=" ">
<polygon fill="white" stroke="black" points="0,-388.5 0,-407.5 98,-407.5 98,-388.5 0,-388.5"/>
<text text-anchor="middle" x="49" y="-395.5" font-family="Helvetica,sans-Serif" font-size="10.00">J3DCurrentMtxInfo</text>
</a>
</g>
</g>
<!-- Node17&#45;&gt;Node16 -->
<g id="edge20" class="edge">
<title>Node17&#45;&gt;Node16</title>
<path fill="none" stroke="midnightblue" d="M108.33,-398C119.98,-398 131.96,-398 142.81,-398"/>
<polygon fill="midnightblue" stroke="midnightblue" points="108.21,-394.5 98.21,-398 108.21,-401.5 108.21,-394.5"/>
</g>
<!-- Node18 -->
<g id="node18" class="node">
<title>Node18</title>
<g id="a_node18"><a xlink:href="struct__GXAttr.html" target="_top" xlink:title=" ">
<polygon fill="white" stroke="black" points="157.5,-350.5 157.5,-369.5 209.5,-369.5 209.5,-350.5 157.5,-350.5"/>
<text text-anchor="middle" x="183.5" y="-357.5" font-family="Helvetica,sans-Serif" font-size="10.00">_GXAttr</text>
</a>
</g>
</g>
<!-- Node18&#45;&gt;Node13 -->
<g id="edge21" class="edge">
<title>Node18&#45;&gt;Node13</title>
<path fill="none" stroke="#9a32cd" stroke-dasharray="5,2" d="M219.59,-352.81C259.01,-344.74 322.3,-331.77 359.5,-324.15"/>
<polygon fill="#9a32cd" stroke="#9a32cd" points="218.73,-349.41 209.64,-354.85 220.14,-356.27 218.73,-349.41"/>
<text text-anchor="middle" x="289.5" y="-350" font-family="Helvetica,sans-Serif" font-size="10.00"> mVtxDesc</text>
</g>
<!-- Node19 -->
<g id="node19" class="node">
<title>Node19</title>
<g id="a_node19"><a xlink:href="structJ3DDrawMtxData.html" target="_top" xlink:title=" ">
<polygon fill="white" stroke="black" points="137.5,-312.5 137.5,-331.5 229.5,-331.5 229.5,-312.5 137.5,-312.5"/>
<text text-anchor="middle" x="183.5" y="-319.5" font-family="Helvetica,sans-Serif" font-size="10.00">J3DDrawMtxData</text>
</a>
</g>
</g>
<!-- Node19&#45;&gt;Node13 -->
<g id="edge22" class="edge">
<title>Node19&#45;&gt;Node13</title>
<path fill="none" stroke="#9a32cd" stroke-dasharray="5,2" d="M239.88,-319.31C243.31,-319.19 246.7,-319.09 250,-319 287.65,-318 331.03,-317.85 359.29,-317.88"/>
<polygon fill="#9a32cd" stroke="#9a32cd" points="239.45,-315.83 229.59,-319.71 239.72,-322.82 239.45,-315.83"/>
<text text-anchor="middle" x="289.5" y="-322" font-family="Helvetica,sans-Serif" font-size="10.00"> mDrawMtxData</text>
</g>
<!-- Node20 -->
<g id="node20" class="node">
<title>Node20</title>
<g id="a_node20"><a xlink:href="structJ3DShapeDraw.html" target="_top" xlink:title=" ">
<polygon fill="white" stroke="black" points="141.5,-274.5 141.5,-293.5 225.5,-293.5 225.5,-274.5 141.5,-274.5"/>
<text text-anchor="middle" x="183.5" y="-281.5" font-family="Helvetica,sans-Serif" font-size="10.00">J3DShapeDraw</text>
</a>
</g>
</g>
<!-- Node20&#45;&gt;Node13 -->
<g id="edge23" class="edge">
<title>Node20&#45;&gt;Node13</title>
<path fill="none" stroke="#9a32cd" stroke-dasharray="5,2" d="M236.05,-289.35C263.72,-292.59 298.36,-297.21 329,-303 339,-304.89 349.81,-307.41 359.49,-309.85"/>
<polygon fill="#9a32cd" stroke="#9a32cd" points="236.14,-285.84 225.8,-288.18 235.34,-292.8 236.14,-285.84"/>
<text text-anchor="middle" x="289.5" y="-306" font-family="Helvetica,sans-Serif" font-size="10.00"> mShapeDraw</text>
</g>
<!-- Node21 -->
<g id="node21" class="node">
<title>Node21</title>
<g id="a_node21"><a xlink:href="structVec.html" target="_top" xlink:title=" ">
<polygon fill="white" stroke="black" points="166.5,-435.5 166.5,-454.5 200.5,-454.5 200.5,-435.5 166.5,-435.5"/>
<text text-anchor="middle" x="183.5" y="-442.5" font-family="Helvetica,sans-Serif" font-size="10.00">Vec</text>
</a>
</g>
</g>
<!-- Node21&#45;&gt;Node1 -->
<g id="edge31" class="edge">
<title>Node21&#45;&gt;Node1</title>
<path fill="none" stroke="#9a32cd" stroke-dasharray="5,2" d="M210.8,-449.34C240.55,-454.91 289.95,-466.17 329,-485 347.95,-494.14 367.14,-509.33 378.68,-519.26"/>
<polygon fill="#9a32cd" stroke="#9a32cd" points="211.24,-445.86 200.78,-447.54 210,-452.75 211.24,-445.86"/>
<text text-anchor="middle" x="289.5" y="-488" font-family="Helvetica,sans-Serif" font-size="10.00"> mBaseScale</text>
</g>
<!-- Node21&#45;&gt;Node13 -->
<g id="edge24" class="edge">
<title>Node21&#45;&gt;Node13</title>
<path fill="none" stroke="#9a32cd" stroke-dasharray="5,2" d="M210.45,-438.57C246.57,-429.28 309.74,-411.72 329,-398 355.81,-378.91 376.01,-344.4 384.75,-327.65"/>
<polygon fill="#9a32cd" stroke="#9a32cd" points="209.45,-435.21 200.62,-441.06 211.17,-442 209.45,-435.21"/>
<text text-anchor="middle" x="289.5" y="-442" font-family="Helvetica,sans-Serif" font-size="10.00"> mMax</text>
<text text-anchor="middle" x="289.5" y="-431" font-family="Helvetica,sans-Serif" font-size="10.00">mMin</text>
</g>
<!-- Node22 -->
<g id="node22" class="node">
<title>Node22</title>
<g id="a_node22"><a xlink:href="structJ3DDeformData.html" target="_top" xlink:title=" ">
<polygon fill="white" stroke="black" points="140.5,-633.5 140.5,-652.5 226.5,-652.5 226.5,-633.5 140.5,-633.5"/>
<text text-anchor="middle" x="183.5" y="-640.5" font-family="Helvetica,sans-Serif" font-size="10.00">J3DDeformData</text>
</a>
</g>
</g>
<!-- Node22&#45;&gt;Node1 -->
<g id="edge25" class="edge">
<title>Node22&#45;&gt;Node1</title>
<path fill="none" stroke="#9a32cd" stroke-dasharray="5,2" d="M236.71,-639.89C265.82,-636.09 301.6,-627.83 329,-610 356.95,-591.81 376.74,-556 385.08,-538.75"/>
<polygon fill="#9a32cd" stroke="#9a32cd" points="236.25,-636.42 226.72,-641.05 237.06,-643.37 236.25,-636.42"/>
<text text-anchor="middle" x="289.5" y="-640" font-family="Helvetica,sans-Serif" font-size="10.00"> mDeformData</text>
</g>
<!-- Node23 -->
<g id="node23" class="node">
<title>Node23</title>
<g id="a_node23"><a xlink:href="structJ3DModelData.html" target="_top" xlink:title=" ">
<polygon fill="white" stroke="black" points="143.5,-595.5 143.5,-614.5 223.5,-614.5 223.5,-595.5 143.5,-595.5"/>
<text text-anchor="middle" x="183.5" y="-602.5" font-family="Helvetica,sans-Serif" font-size="10.00">J3DModelData</text>
</a>
</g>
</g>
<!-- Node23&#45;&gt;Node1 -->
<g id="edge26" class="edge">
<title>Node23&#45;&gt;Node1</title>
<path fill="none" stroke="#9a32cd" stroke-dasharray="5,2" d="M233.74,-598.68C262.42,-593.81 298.78,-585.54 329,-572 348.05,-563.46 367.22,-548.51 378.72,-538.68"/>
<polygon fill="#9a32cd" stroke="#9a32cd" points="232.86,-595.28 223.55,-600.32 233.98,-602.19 232.86,-595.28"/>
<text text-anchor="middle" x="289.5" y="-598" font-family="Helvetica,sans-Serif" font-size="10.00"> mModelData</text>
</g>
<!-- Node24 -->
<g id="node24" class="node">
<title>Node24</title>
<g id="a_node24"><a xlink:href="structJ3DVertexBuffer.html" target="_top" xlink:title=" ">
<polygon fill="white" stroke="black" points="140,-557.5 140,-576.5 227,-576.5 227,-557.5 140,-557.5"/>
<text text-anchor="middle" x="183.5" y="-564.5" font-family="Helvetica,sans-Serif" font-size="10.00">J3DVertexBuffer</text>
</a>
</g>
</g>
<!-- Node24&#45;&gt;Node1 -->
<g id="edge27" class="edge">
<title>Node24&#45;&gt;Node1</title>
<path fill="none" stroke="#9a32cd" stroke-dasharray="5,2" d="M237.21,-559.71C264.68,-555.64 298.76,-550.14 329,-544 339.29,-541.91 350.46,-539.25 360.38,-536.75"/>
<polygon fill="#9a32cd" stroke="#9a32cd" points="236.42,-556.29 227.03,-561.2 237.44,-563.22 236.42,-556.29"/>
<text text-anchor="middle" x="289.5" y="-560" font-family="Helvetica,sans-Serif" font-size="10.00"> mVertexBuffer</text>
</g>
<!-- Node25 -->
<g id="node25" class="node">
<title>Node25</title>
<g id="a_node25"><a xlink:href="structJ3DSkinDeform.html" target="_top" xlink:title=" ">
<polygon fill="white" stroke="black" points="141,-519.5 141,-538.5 226,-538.5 226,-519.5 141,-519.5"/>
<text text-anchor="middle" x="183.5" y="-526.5" font-family="Helvetica,sans-Serif" font-size="10.00">J3DSkinDeform</text>
</a>
</g>
</g>
<!-- Node25&#45;&gt;Node1 -->
<g id="edge28" class="edge">
<title>Node25&#45;&gt;Node1</title>
<path fill="none" stroke="#9a32cd" stroke-dasharray="5,2" d="M236.67,-529C275.95,-529 328.34,-529 360.46,-529"/>
<polygon fill="#9a32cd" stroke="#9a32cd" points="236.48,-525.5 226.48,-529 236.48,-532.5 236.48,-525.5"/>
<text text-anchor="middle" x="289.5" y="-532" font-family="Helvetica,sans-Serif" font-size="10.00"> mSkinDeform</text>
</g>
</g>
</svg>
