<?xml version="1.0" encoding="UTF-8" standalone="no"?>
<!DOCTYPE svg PUBLIC "-//W3C//DTD SVG 1.1//EN"
 "http://www.w3.org/Graphics/SVG/1.1/DTD/svg11.dtd">
<!-- Generated by graphviz version 2.44.0 ()
 -->
<!-- Title: CPaneMgr Pages: 1 -->
<svg width="1090pt" height="348pt"
 viewBox="0.00 0.00 1090.00 348.00" xmlns="http://www.w3.org/2000/svg" xmlns:xlink="http://www.w3.org/1999/xlink">
<g id="graph0" class="graph" transform="scale(1 1) rotate(0) translate(4 344)">
<title>CPaneMgr</title>
<polygon fill="white" stroke="transparent" points="-4,4 -4,-344 1086,-344 1086,4 -4,4"/>
<!-- Node1 -->
<g id="node1" class="node">
<title>Node1</title>
<g id="a_node1"><a xlink:title=" ">
<polygon fill="#bfbfbf" stroke="black" points="1020,-89.5 1020,-108.5 1082,-108.5 1082,-89.5 1020,-89.5"/>
<text text-anchor="middle" x="1051" y="-96.5" font-family="Helvetica,sans-Serif" font-size="10.00">CPaneMgr</text>
</a>
</g>
</g>
<!-- Node2 -->
<g id="node2" class="node">
<title>Node2</title>
<g id="a_node2"><a xlink:href="structCPaneMgrAlpha.html" target="_top" xlink:title=" ">
<polygon fill="white" stroke="black" points="823,-126.5 823,-145.5 910,-145.5 910,-126.5 823,-126.5"/>
<text text-anchor="middle" x="866.5" y="-133.5" font-family="Helvetica,sans-Serif" font-size="10.00">CPaneMgrAlpha</text>
</a>
</g>
</g>
<!-- Node2&#45;&gt;Node1 -->
<g id="edge1" class="edge">
<title>Node2&#45;&gt;Node1</title>
<path fill="none" stroke="midnightblue" d="M920.09,-134.7C945.26,-133.03 975.59,-129.46 1002,-122 1013.03,-118.89 1024.63,-113.39 1033.67,-108.55"/>
<polygon fill="midnightblue" stroke="midnightblue" points="919.78,-131.21 910,-135.29 920.19,-138.2 919.78,-131.21"/>
</g>
<!-- Node3 -->
<g id="node3" class="node">
<title>Node3</title>
<g id="a_node3"><a xlink:href="structJKRHeap.html" target="_top" xlink:title=" ">
<polygon fill="white" stroke="black" points="662,-228.5 662,-247.5 721,-247.5 721,-228.5 662,-228.5"/>
<text text-anchor="middle" x="691.5" y="-235.5" font-family="Helvetica,sans-Serif" font-size="10.00">JKRHeap</text>
</a>
</g>
</g>
<!-- Node3&#45;&gt;Node2 -->
<g id="edge2" class="edge">
<title>Node3&#45;&gt;Node2</title>
<path fill="none" stroke="#9a32cd" stroke-dasharray="5,2" d="M717.68,-223.15C753.67,-201.94 818.81,-163.53 849.14,-145.64"/>
<polygon fill="#9a32cd" stroke="#9a32cd" points="715.61,-220.31 708.78,-228.4 719.17,-226.34 715.61,-220.31"/>
<text text-anchor="middle" x="762" y="-210" font-family="Helvetica,sans-Serif" font-size="10.00"> heap</text>
</g>
<!-- Node3&#45;&gt;Node3 -->
<g id="edge10" class="edge">
<title>Node3&#45;&gt;Node3</title>
<path fill="none" stroke="#9a32cd" stroke-dasharray="5,2" d="M678.61,-257.77C679.62,-262.5 683.92,-266 691.5,-266 703.94,-266 707.54,-256.57 702.29,-247.76"/>
<polygon fill="#9a32cd" stroke="#9a32cd" points="682.08,-258.26 680.71,-247.76 675.23,-256.82 682.08,-258.26"/>
<text text-anchor="middle" x="691.5" y="-291" font-family="Helvetica,sans-Serif" font-size="10.00"> sCurrentHeap</text>
<text text-anchor="middle" x="691.5" y="-280" font-family="Helvetica,sans-Serif" font-size="10.00">sRootHeap</text>
<text text-anchor="middle" x="691.5" y="-269" font-family="Helvetica,sans-Serif" font-size="10.00">sSystemHeap</text>
</g>
<!-- Node4 -->
<g id="node4" class="node">
<title>Node4</title>
<g id="a_node4"><a xlink:href="structJKRDisposer.html" target="_top" xlink:title=" ">
<polygon fill="white" stroke="black" points="829.5,-261.5 829.5,-280.5 903.5,-280.5 903.5,-261.5 829.5,-261.5"/>
<text text-anchor="middle" x="866.5" y="-268.5" font-family="Helvetica,sans-Serif" font-size="10.00">JKRDisposer</text>
</a>
</g>
</g>
<!-- Node3&#45;&gt;Node4 -->
<g id="edge4" class="edge">
<title>Node3&#45;&gt;Node4</title>
<path fill="none" stroke="#9a32cd" stroke-dasharray="5,2" d="M731.38,-247.38C733.95,-247.94 736.51,-248.49 739,-249 769.35,-255.22 804.04,-261.17 829.4,-265.31"/>
<polygon fill="#9a32cd" stroke="#9a32cd" points="731.99,-243.93 721.46,-245.14 730.44,-250.76 731.99,-243.93"/>
<text text-anchor="middle" x="762" y="-260" font-family="Helvetica,sans-Serif" font-size="10.00"> mHeap</text>
</g>
<!-- Node4&#45;&gt;Node3 -->
<g id="edge3" class="edge">
<title>Node4&#45;&gt;Node3</title>
<path fill="none" stroke="midnightblue" d="M819.18,-259.39C808.03,-256.78 796.12,-254.15 785,-252 763.79,-247.9 739.65,-244.28 721.35,-241.75"/>
<polygon fill="midnightblue" stroke="midnightblue" points="818.63,-262.85 829.17,-261.76 820.25,-256.04 818.63,-262.85"/>
</g>
<!-- Node5 -->
<g id="node5" class="node">
<title>Node5</title>
<g id="a_node5"><a xlink:href="structJSULink.html" target="_top" xlink:title=" ">
<polygon fill="white" stroke="black" points="284,-317.5 284,-336.5 412,-336.5 412,-317.5 284,-317.5"/>
<text text-anchor="middle" x="348" y="-324.5" font-family="Helvetica,sans-Serif" font-size="10.00">JSULink&lt; JKRDisposer &gt;</text>
</a>
</g>
</g>
<!-- Node5&#45;&gt;Node4 -->
<g id="edge5" class="edge">
<title>Node5&#45;&gt;Node4</title>
<path fill="none" stroke="#9a32cd" stroke-dasharray="5,2" d="M422.57,-327.55C497.93,-327.11 618.26,-323.62 721,-308 761.2,-301.89 806.44,-289.36 835.42,-280.58"/>
<polygon fill="#9a32cd" stroke="#9a32cd" points="422.23,-324.06 412.24,-327.6 422.26,-331.06 422.23,-324.06"/>
<text text-anchor="middle" x="609" y="-325" font-family="Helvetica,sans-Serif" font-size="10.00"> mLink</text>
</g>
<!-- Node6 -->
<g id="node6" class="node">
<title>Node6</title>
<g id="a_node6"><a xlink:href="structJSUPtrLink.html" target="_top" xlink:title=" ">
<polygon fill="white" stroke="black" points="0,-280.5 0,-299.5 68,-299.5 68,-280.5 0,-280.5"/>
<text text-anchor="middle" x="34" y="-287.5" font-family="Helvetica,sans-Serif" font-size="10.00">JSUPtrLink</text>
</a>
</g>
</g>
<!-- Node6&#45;&gt;Node5 -->
<g id="edge6" class="edge">
<title>Node6&#45;&gt;Node5</title>
<path fill="none" stroke="midnightblue" d="M60.92,-303.92C68.76,-307.51 77.55,-310.94 86,-313 152.14,-329.09 230.38,-331.13 283.83,-330.06"/>
<polygon fill="midnightblue" stroke="midnightblue" points="62.42,-300.75 51.9,-299.53 59.36,-307.05 62.42,-300.75"/>
</g>
<!-- Node6&#45;&gt;Node6 -->
<g id="edge7" class="edge">
<title>Node6&#45;&gt;Node6</title>
<path fill="none" stroke="#9a32cd" stroke-dasharray="5,2" d="M21.48,-309.77C22.46,-314.5 26.64,-318 34,-318 46.09,-318 49.58,-308.57 44.48,-299.76"/>
<polygon fill="#9a32cd" stroke="#9a32cd" points="24.95,-310.25 23.52,-299.76 18.09,-308.86 24.95,-310.25"/>
<text text-anchor="middle" x="34" y="-332" font-family="Helvetica,sans-Serif" font-size="10.00"> mNext</text>
<text text-anchor="middle" x="34" y="-321" font-family="Helvetica,sans-Serif" font-size="10.00">mPrev</text>
</g>
<!-- Node7 -->
<g id="node7" class="node">
<title>Node7</title>
<g id="a_node7"><a xlink:href="structJSUPtrList.html" target="_top" xlink:title=" ">
<polygon fill="white" stroke="black" points="169.5,-273.5 169.5,-292.5 234.5,-292.5 234.5,-273.5 169.5,-273.5"/>
<text text-anchor="middle" x="202" y="-280.5" font-family="Helvetica,sans-Serif" font-size="10.00">JSUPtrList</text>
</a>
</g>
</g>
<!-- Node6&#45;&gt;Node7 -->
<g id="edge9" class="edge">
<title>Node6&#45;&gt;Node7</title>
<path fill="none" stroke="#9a32cd" stroke-dasharray="5,2" d="M78.29,-288.17C106.79,-286.97 143.47,-285.43 169.27,-284.34"/>
<polygon fill="#9a32cd" stroke="#9a32cd" points="78.04,-284.68 68.19,-288.6 78.33,-291.68 78.04,-284.68"/>
<text text-anchor="middle" x="103" y="-301" font-family="Helvetica,sans-Serif" font-size="10.00"> mHead</text>
<text text-anchor="middle" x="103" y="-290" font-family="Helvetica,sans-Serif" font-size="10.00">mTail</text>
</g>
<!-- Node7&#45;&gt;Node6 -->
<g id="edge8" class="edge">
<title>Node7&#45;&gt;Node6</title>
<path fill="none" stroke="#9a32cd" stroke-dasharray="5,2" d="M173.97,-269.12C150.5,-258.92 115.72,-248.22 86,-257 70.63,-261.54 55.53,-272.32 45.8,-280.33"/>
<polygon fill="#9a32cd" stroke="#9a32cd" points="172.74,-272.41 183.28,-273.41 175.66,-266.05 172.74,-272.41"/>
<text text-anchor="middle" x="103" y="-260" font-family="Helvetica,sans-Serif" font-size="10.00"> mList</text>
</g>
<!-- Node10 -->
<g id="node10" class="node">
<title>Node10</title>
<g id="a_node10"><a xlink:href="structJSUList.html" target="_top" xlink:title=" ">
<polygon fill="white" stroke="black" points="430,-273.5 430,-292.5 556,-292.5 556,-273.5 430,-273.5"/>
<text text-anchor="middle" x="493" y="-280.5" font-family="Helvetica,sans-Serif" font-size="10.00">JSUList&lt; JKRDisposer &gt;</text>
</a>
</g>
</g>
<!-- Node7&#45;&gt;Node10 -->
<g id="edge14" class="edge">
<title>Node7&#45;&gt;Node10</title>
<path fill="none" stroke="midnightblue" d="M244.91,-283C293.48,-283 373.98,-283 429.84,-283"/>
<polygon fill="midnightblue" stroke="midnightblue" points="244.75,-279.5 234.75,-283 244.75,-286.5 244.75,-279.5"/>
</g>
<!-- Node8 -->
<g id="node8" class="node">
<title>Node8</title>
<g id="a_node8"><a xlink:href="classJSUTree.html" target="_top" xlink:title=" ">
<polygon fill="white" stroke="black" points="436,-235.5 436,-254.5 550,-254.5 550,-235.5 436,-235.5"/>
<text text-anchor="middle" x="493" y="-242.5" font-family="Helvetica,sans-Serif" font-size="10.00">JSUTree&lt; JKRHeap &gt;</text>
</a>
</g>
</g>
<!-- Node8&#45;&gt;Node3 -->
<g id="edge11" class="edge">
<title>Node8&#45;&gt;Node3</title>
<path fill="none" stroke="#9a32cd" stroke-dasharray="5,2" d="M560.1,-242.65C594.73,-241.41 635.33,-239.97 661.92,-239.02"/>
<polygon fill="#9a32cd" stroke="#9a32cd" points="559.92,-239.15 550.05,-243 560.16,-246.15 559.92,-239.15"/>
<text text-anchor="middle" x="609" y="-245" font-family="Helvetica,sans-Serif" font-size="10.00"> mChildTree</text>
</g>
<!-- Node9 -->
<g id="node9" class="node">
<title>Node9</title>
<g id="a_node9"><a xlink:href="structOSMutex.html" target="_top" xlink:title=" ">
<polygon fill="white" stroke="black" points="464.5,-197.5 464.5,-216.5 521.5,-216.5 521.5,-197.5 464.5,-197.5"/>
<text text-anchor="middle" x="493" y="-204.5" font-family="Helvetica,sans-Serif" font-size="10.00">OSMutex</text>
</a>
</g>
</g>
<!-- Node9&#45;&gt;Node3 -->
<g id="edge12" class="edge">
<title>Node9&#45;&gt;Node3</title>
<path fill="none" stroke="#9a32cd" stroke-dasharray="5,2" d="M531.81,-209.4C562.31,-211.78 606.22,-216.24 644,-224 649.78,-225.19 655.88,-226.77 661.68,-228.45"/>
<polygon fill="#9a32cd" stroke="#9a32cd" points="531.84,-205.89 521.6,-208.64 531.32,-212.87 531.84,-205.89"/>
<text text-anchor="middle" x="609" y="-227" font-family="Helvetica,sans-Serif" font-size="10.00"> mMutex</text>
</g>
<!-- Node10&#45;&gt;Node3 -->
<g id="edge13" class="edge">
<title>Node10&#45;&gt;Node3</title>
<path fill="none" stroke="#9a32cd" stroke-dasharray="5,2" d="M566.44,-273.69C591.29,-269.64 619.11,-264.15 644,-257 652.55,-254.54 661.67,-251.03 669.54,-247.69"/>
<polygon fill="#9a32cd" stroke="#9a32cd" points="565.68,-270.26 556.35,-275.28 566.77,-277.18 565.68,-270.26"/>
<text text-anchor="middle" x="609" y="-275" font-family="Helvetica,sans-Serif" font-size="10.00"> mDisposerList</text>
</g>
<!-- Node11 -->
<g id="node11" class="node">
<title>Node11</title>
<g id="a_node11"><a xlink:href="structJ2DPane.html" target="_top" xlink:title=" ">
<polygon fill="white" stroke="black" points="663.5,-126.5 663.5,-145.5 719.5,-145.5 719.5,-126.5 663.5,-126.5"/>
<text text-anchor="middle" x="691.5" y="-133.5" font-family="Helvetica,sans-Serif" font-size="10.00">J2DPane</text>
</a>
</g>
</g>
<!-- Node11&#45;&gt;Node2 -->
<g id="edge15" class="edge">
<title>Node11&#45;&gt;Node2</title>
<path fill="none" stroke="#9a32cd" stroke-dasharray="5,2" d="M729.86,-136C757.2,-136 794.34,-136 822.85,-136"/>
<polygon fill="#9a32cd" stroke="#9a32cd" points="729.53,-132.5 719.53,-136 729.53,-139.5 729.53,-132.5"/>
<text text-anchor="middle" x="762" y="-139" font-family="Helvetica,sans-Serif" font-size="10.00"> mPanePtr</text>
</g>
<!-- Node12 -->
<g id="node12" class="node">
<title>Node12</title>
<g id="a_node12"><a xlink:href="structJGeometry_1_1TBox2.html" target="_top" xlink:title=" ">
<polygon fill="white" stroke="black" points="430,-147.5 430,-166.5 556,-166.5 556,-147.5 430,-147.5"/>
<text text-anchor="middle" x="493" y="-154.5" font-family="Helvetica,sans-Serif" font-size="10.00">JGeometry::TBox2&lt; f32 &gt;</text>
</a>
</g>
</g>
<!-- Node12&#45;&gt;Node11 -->
<g id="edge16" class="edge">
<title>Node12&#45;&gt;Node11</title>
<path fill="none" stroke="#9a32cd" stroke-dasharray="5,2" d="M566.5,-149.25C600.31,-145.64 638.48,-141.56 663.44,-138.89"/>
<polygon fill="#9a32cd" stroke="#9a32cd" points="565.75,-145.81 556.17,-150.36 566.49,-152.77 565.75,-145.81"/>
<text text-anchor="middle" x="609" y="-173" font-family="Helvetica,sans-Serif" font-size="10.00"> mBounds</text>
<text text-anchor="middle" x="609" y="-162" font-family="Helvetica,sans-Serif" font-size="10.00">mClipRect</text>
<text text-anchor="middle" x="609" y="-151" font-family="Helvetica,sans-Serif" font-size="10.00">mGlobalBounds</text>
</g>
<!-- Node13 -->
<g id="node13" class="node">
<title>Node13</title>
<g id="a_node13"><a xlink:href="structJGeometry_1_1TBox.html" target="_top" xlink:title=" ">
<polygon fill="white" stroke="black" points="138,-142 138,-172 266,-172 266,-142 138,-142"/>
<text text-anchor="start" x="146" y="-160" font-family="Helvetica,sans-Serif" font-size="10.00">JGeometry::TBox&lt; TVec2</text>
<text text-anchor="middle" x="202" y="-149" font-family="Helvetica,sans-Serif" font-size="10.00">&lt; T &gt; &gt;</text>
</a>
</g>
</g>
<!-- Node13&#45;&gt;Node12 -->
<g id="edge17" class="edge">
<title>Node13&#45;&gt;Node12</title>
<path fill="none" stroke="midnightblue" d="M276.25,-157C323.59,-157 384.53,-157 429.57,-157"/>
<polygon fill="midnightblue" stroke="midnightblue" points="276.07,-153.5 266.07,-157 276.07,-160.5 276.07,-153.5"/>
</g>
<!-- Node14 -->
<g id="node14" class="node">
<title>Node14</title>
<g id="a_node14"><a xlink:href="structJ2DAnmTransform.html" target="_top" xlink:title=" ">
<polygon fill="white" stroke="black" points="444,-109.5 444,-128.5 542,-128.5 542,-109.5 444,-109.5"/>
<text text-anchor="middle" x="493" y="-116.5" font-family="Helvetica,sans-Serif" font-size="10.00">J2DAnmTransform</text>
</a>
</g>
</g>
<!-- Node14&#45;&gt;Node11 -->
<g id="edge18" class="edge">
<title>Node14&#45;&gt;Node11</title>
<path fill="none" stroke="#9a32cd" stroke-dasharray="5,2" d="M552.32,-115.02C580.24,-114.23 614.05,-114.89 644,-120 651.74,-121.32 659.93,-123.76 667.23,-126.34"/>
<polygon fill="#9a32cd" stroke="#9a32cd" points="552.18,-111.53 542.31,-115.38 552.43,-118.52 552.18,-111.53"/>
<text text-anchor="middle" x="609" y="-123" font-family="Helvetica,sans-Serif" font-size="10.00"> mTransform</text>
</g>
<!-- Node15 -->
<g id="node15" class="node">
<title>Node15</title>
<g id="a_node15"><a xlink:href="classJSUTree.html" target="_top" xlink:title=" ">
<polygon fill="white" stroke="black" points="437,-71.5 437,-90.5 549,-90.5 549,-71.5 437,-71.5"/>
<text text-anchor="middle" x="493" y="-78.5" font-family="Helvetica,sans-Serif" font-size="10.00">JSUTree&lt; J2DPane &gt;</text>
</a>
</g>
</g>
<!-- Node15&#45;&gt;Node11 -->
<g id="edge19" class="edge">
<title>Node15&#45;&gt;Node11</title>
<path fill="none" stroke="#9a32cd" stroke-dasharray="5,2" d="M559.43,-79.58C586.73,-81.3 618.06,-86.39 644,-99 654.18,-103.95 653.25,-109.83 662,-117 666.05,-120.32 670.68,-123.6 675.02,-126.48"/>
<polygon fill="#9a32cd" stroke="#9a32cd" points="559.34,-76.07 549.18,-79.08 559,-83.06 559.34,-76.07"/>
<text text-anchor="middle" x="609" y="-102" font-family="Helvetica,sans-Serif" font-size="10.00"> mPaneTree</text>
</g>
<!-- Node16 -->
<g id="node16" class="node">
<title>Node16</title>
<g id="a_node16"><a xlink:href="structJUtility_1_1TColor.html" target="_top" xlink:title=" ">
<polygon fill="white" stroke="black" points="826.5,-88.5 826.5,-107.5 906.5,-107.5 906.5,-88.5 826.5,-88.5"/>
<text text-anchor="middle" x="866.5" y="-95.5" font-family="Helvetica,sans-Serif" font-size="10.00">JUtility::TColor</text>
</a>
</g>
</g>
<!-- Node16&#45;&gt;Node1 -->
<g id="edge20" class="edge">
<title>Node16&#45;&gt;Node1</title>
<path fill="none" stroke="#9a32cd" stroke-dasharray="5,2" d="M916.98,-98.27C949.87,-98.45 992,-98.68 1019.94,-98.84"/>
<polygon fill="#9a32cd" stroke="#9a32cd" points="916.67,-94.77 906.65,-98.21 916.63,-101.77 916.67,-94.77"/>
<text text-anchor="middle" x="975" y="-112" font-family="Helvetica,sans-Serif" font-size="10.00"> mInitBlack</text>
<text text-anchor="middle" x="975" y="-101" font-family="Helvetica,sans-Serif" font-size="10.00">mInitWhite</text>
</g>
<!-- Node17 -->
<g id="node17" class="node">
<title>Node17</title>
<g id="a_node17"><a xlink:href="struct__GXColor.html" target="_top" xlink:title=" ">
<polygon fill="white" stroke="black" points="662,-88.5 662,-107.5 721,-107.5 721,-88.5 662,-88.5"/>
<text text-anchor="middle" x="691.5" y="-95.5" font-family="Helvetica,sans-Serif" font-size="10.00">_GXColor</text>
</a>
</g>
</g>
<!-- Node17&#45;&gt;Node16 -->
<g id="edge21" class="edge">
<title>Node17&#45;&gt;Node16</title>
<path fill="none" stroke="midnightblue" d="M731.38,-98C759.67,-98 797.83,-98 826.21,-98"/>
<polygon fill="midnightblue" stroke="midnightblue" points="731.07,-94.5 721.07,-98 731.07,-101.5 731.07,-94.5"/>
</g>
<!-- Node18 -->
<g id="node18" class="node">
<title>Node18</title>
<g id="a_node18"><a xlink:href="structJGeometry_1_1TVec2.html" target="_top" xlink:title=" ">
<polygon fill="white" stroke="black" points="803,-0.5 803,-19.5 930,-19.5 930,-0.5 803,-0.5"/>
<text text-anchor="middle" x="866.5" y="-7.5" font-family="Helvetica,sans-Serif" font-size="10.00">JGeometry::TVec2&lt; f32 &gt;</text>
</a>
</g>
</g>
<!-- Node18&#45;&gt;Node1 -->
<g id="edge22" class="edge">
<title>Node18&#45;&gt;Node1</title>
<path fill="none" stroke="#9a32cd" stroke-dasharray="5,2" d="M940.03,-8.68C961.26,-11.11 983.67,-16.65 1002,-28 1025.53,-42.58 1040.2,-73.45 1046.47,-89.25"/>
<polygon fill="#9a32cd" stroke="#9a32cd" points="940.33,-5.19 930.05,-7.75 939.68,-12.16 940.33,-5.19"/>
<text text-anchor="middle" x="975" y="-86" font-family="Helvetica,sans-Serif" font-size="10.00"> field_0x44</text>
<text text-anchor="middle" x="975" y="-75" font-family="Helvetica,sans-Serif" font-size="10.00">field_0x50</text>
<text text-anchor="middle" x="975" y="-64" font-family="Helvetica,sans-Serif" font-size="10.00">mGlobalPos</text>
<text text-anchor="middle" x="975" y="-53" font-family="Helvetica,sans-Serif" font-size="10.00">mInitPos</text>
<text text-anchor="middle" x="975" y="-42" font-family="Helvetica,sans-Serif" font-size="10.00">mInitScale</text>
<text text-anchor="middle" x="975" y="-31" font-family="Helvetica,sans-Serif" font-size="10.00">mInitSize</text>
</g>
</g>
</svg>
