<?xml version="1.0" encoding="UTF-8" standalone="no"?>
<!DOCTYPE svg PUBLIC "-//W3C//DTD SVG 1.1//EN"
 "http://www.w3.org/Graphics/SVG/1.1/DTD/svg11.dtd">
<!-- Generated by graphviz version 2.44.0 ()
 -->
<!-- Title: libs/dolphin/vi/vi.cpp Pages: 1 -->
<!--zoomable 263 -->
<svg id="main" version="1.1" xmlns="http://www.w3.org/2000/svg" xmlns:xlink="http://www.w3.org/1999/xlink" xml:space="preserve" onload="init(evt)">
<style type="text/css"><![CDATA[
.edge:hover path { stroke: red; }
.edge:hover polygon { stroke: red; fill: red; }
]]></style>
<script type="text/javascript"><![CDATA[
var edges = document.getElementsByTagName('g');
if (edges && edges.length) {
  for (var i=0;i<edges.length;i++) {
    if (edges[i].id.substr(0,4)=='edge') {
      edges[i].setAttribute('class','edge');
    }
  }
}
]]></script>
        <defs>
                <circle id="rim" cx="0" cy="0" r="7"/>
                <circle id="rim2" cx="0" cy="0" r="3.5"/>
                <g id="zoomPlus">
                        <use xlink:href="#rim" fill="#404040">
                                <set attributeName="fill" to="#808080" begin="zoomplus.mouseover" end="zoomplus.mouseout"/>
                        </use>
                        <path d="M-4,0h8M0,-4v8" fill="none" stroke="white" stroke-width="1.5" pointer-events="none"/>
                </g>
                <g id="zoomMin">
                        <use xlink:href="#rim" fill="#404040">
                                <set attributeName="fill" to="#808080" begin="zoomminus.mouseover" end="zoomminus.mouseout"/>
                        </use>
                        <path d="M-4,0h8" fill="none" stroke="white" stroke-width="1.5" pointer-events="none"/>
                </g>
                <g id="dirArrow">
                        <path fill="none" stroke="white" stroke-width="1.5" d="M0,-3.0v7 M-2.5,-0.5L0,-3.0L2.5,-0.5"/>
                </g>
               <g id="resetDef">
                       <use xlink:href="#rim2" fill="#404040">
                               <set attributeName="fill" to="#808080" begin="reset.mouseover" end="reset.mouseout"/>
                       </use>
               </g>
        </defs>

<script type="text/javascript">
var viewWidth = 3689;
var viewHeight = 263;
var sectionId = 'dynsection-0';
</script>
<script xlink:href="svgpan.js"/>
<svg id="graph" class="graph">
<g id="viewport">
<title>libs/dolphin/vi/vi.cpp</title>
<polygon fill="white" stroke="transparent" points="-4,4 -4,-259 3685,-259 3685,4 -4,4"/>
<!-- Node1 -->
<g id="node1" class="node">
<title>Node1</title>
<g id="a_node1"><a xlink:title=" ">
<polygon fill="#bfbfbf" stroke="black" points="1715.5,-235.5 1715.5,-254.5 1819.5,-254.5 1819.5,-235.5 1715.5,-235.5"/>
<text text-anchor="middle" x="1767.5" y="-242.5" font-family="Helvetica,sans-Serif" font-size="10.00">libs/dolphin/vi/vi.cpp</text>
</a>
</g>
</g>
<!-- Node2 -->
<g id="node2" class="node">
<title>Node2</title>
<g id="a_node2"><a xlink:href="vi_8h.html" target="_top" xlink:title=" ">
<polygon fill="white" stroke="black" points="269.5,-174 269.5,-193 345.5,-193 345.5,-174 269.5,-174"/>
<text text-anchor="middle" x="307.5" y="-181" font-family="Helvetica,sans-Serif" font-size="10.00">dolphin/vi/vi.h</text>
</a>
</g>
</g>
<!-- Node1&#45;&gt;Node2 -->
<g id="edge1" class="edge">
<title>Node1&#45;&gt;Node2</title>
<path fill="none" stroke="midnightblue" d="M1715.29,-244.01C1493.5,-243.77 628.45,-240.18 359.5,-199 354.25,-198.2 348.78,-197.04 343.43,-195.72"/>
<polygon fill="midnightblue" stroke="midnightblue" points="343.98,-192.24 333.42,-193.04 342.18,-199.01 343.98,-192.24"/>
</g>
<!-- Node5 -->
<g id="node5" class="node">
<title>Node5</title>
<g id="a_node5"><a xlink:href="types_8h.html" target="_top" xlink:title=" ">
<polygon fill="white" stroke="black" points="208,-0.5 208,-19.5 289,-19.5 289,-0.5 208,-0.5"/>
<text text-anchor="middle" x="248.5" y="-7.5" font-family="Helvetica,sans-Serif" font-size="10.00">dolphin/types.h</text>
</a>
</g>
</g>
<!-- Node1&#45;&gt;Node5 -->
<g id="edge10" class="edge">
<title>Node1&#45;&gt;Node5</title>
<path fill="none" stroke="midnightblue" d="M1715.19,-243.85C1470.56,-242.96 448.96,-236.95 393.5,-199 336.48,-159.98 379.15,-106.97 332.5,-56 319.24,-41.51 300.22,-30.78 283.63,-23.45"/>
<polygon fill="midnightblue" stroke="midnightblue" points="284.78,-20.13 274.2,-19.51 282.08,-26.59 284.78,-20.13"/>
</g>
<!-- Node7 -->
<g id="node7" class="node">
<title>Node7</title>
<g id="a_node7"><a xlink:href="dol2asm_8h.html" target="_top" xlink:title=" ">
<polygon fill="white" stroke="black" points="402,-174 402,-193 463,-193 463,-174 402,-174"/>
<text text-anchor="middle" x="432.5" y="-181" font-family="Helvetica,sans-Serif" font-size="10.00">dol2asm.h</text>
</a>
</g>
</g>
<!-- Node1&#45;&gt;Node7 -->
<g id="edge9" class="edge">
<title>Node1&#45;&gt;Node7</title>
<path fill="none" stroke="midnightblue" d="M1715.19,-244.36C1504.34,-245.46 716.55,-246.25 472.5,-199 469.06,-198.33 465.52,-197.42 462.04,-196.36"/>
<polygon fill="midnightblue" stroke="midnightblue" points="463.09,-193.03 452.5,-193.14 460.85,-199.66 463.09,-193.03"/>
</g>
<!-- Node8 -->
<g id="node8" class="node">
<title>Node8</title>
<g id="a_node8"><a xlink:title=" ">
<polygon fill="white" stroke="#bfbfbf" points="481.5,-168.5 481.5,-198.5 593.5,-198.5 593.5,-168.5 481.5,-168.5"/>
<text text-anchor="start" x="489.5" y="-186.5" font-family="Helvetica,sans-Serif" font-size="10.00">asm/dolphin/vi/vi/</text>
<text text-anchor="middle" x="537.5" y="-175.5" font-family="Helvetica,sans-Serif" font-size="10.00">__VIRetraceHandler.s</text>
</a>
</g>
</g>
<!-- Node1&#45;&gt;Node8 -->
<g id="edge11" class="edge">
<title>Node1&#45;&gt;Node8</title>
<path fill="none" stroke="midnightblue" d="M1715.35,-243.22C1518.84,-240.07 823.15,-227.15 603.5,-199 603.4,-198.99 603.3,-198.97 603.19,-198.96"/>
<polygon fill="midnightblue" stroke="midnightblue" points="603.96,-195.54 593.55,-197.52 602.93,-202.46 603.96,-195.54"/>
</g>
<!-- Node9 -->
<g id="node9" class="node">
<title>Node9</title>
<g id="a_node9"><a xlink:title=" ">
<polygon fill="white" stroke="#bfbfbf" points="612,-168.5 612,-198.5 745,-198.5 745,-168.5 612,-168.5"/>
<text text-anchor="start" x="620" y="-186.5" font-family="Helvetica,sans-Serif" font-size="10.00">asm/dolphin/vi/vi/VISetPre</text>
<text text-anchor="middle" x="678.5" y="-175.5" font-family="Helvetica,sans-Serif" font-size="10.00">RetraceCallback.s</text>
</a>
</g>
</g>
<!-- Node1&#45;&gt;Node9 -->
<g id="edge12" class="edge">
<title>Node1&#45;&gt;Node9</title>
<path fill="none" stroke="midnightblue" d="M1715.36,-244.33C1566.81,-244.7 1128.6,-241.88 755.34,-198.96"/>
<polygon fill="midnightblue" stroke="midnightblue" points="755.48,-195.45 745.14,-197.78 754.67,-202.41 755.48,-195.45"/>
</g>
<!-- Node10 -->
<g id="node10" class="node">
<title>Node10</title>
<g id="a_node10"><a xlink:title=" ">
<polygon fill="white" stroke="#bfbfbf" points="763.5,-168.5 763.5,-198.5 901.5,-198.5 901.5,-168.5 763.5,-168.5"/>
<text text-anchor="start" x="771.5" y="-186.5" font-family="Helvetica,sans-Serif" font-size="10.00">asm/dolphin/vi/vi/VISetPost</text>
<text text-anchor="middle" x="832.5" y="-175.5" font-family="Helvetica,sans-Serif" font-size="10.00">RetraceCallback.s</text>
</a>
</g>
</g>
<!-- Node1&#45;&gt;Node10 -->
<g id="edge13" class="edge">
<title>Node1&#45;&gt;Node10</title>
<path fill="none" stroke="midnightblue" d="M1715.19,-243.59C1582.57,-242.06 1222.34,-234.78 911.88,-198.92"/>
<polygon fill="midnightblue" stroke="midnightblue" points="912.12,-195.42 901.79,-197.74 911.31,-202.38 912.12,-195.42"/>
</g>
<!-- Node11 -->
<g id="node11" class="node">
<title>Node11</title>
<g id="a_node11"><a xlink:title=" ">
<polygon fill="white" stroke="#bfbfbf" points="920,-174 920,-193 1063,-193 1063,-174 920,-174"/>
<text text-anchor="middle" x="991.5" y="-181" font-family="Helvetica,sans-Serif" font-size="10.00">asm/dolphin/vi/vi/getTiming.s</text>
</a>
</g>
</g>
<!-- Node1&#45;&gt;Node11 -->
<g id="edge14" class="edge">
<title>Node1&#45;&gt;Node11</title>
<path fill="none" stroke="midnightblue" d="M1715.44,-242.63C1599.55,-239.14 1311.66,-228.06 1072.5,-199 1063.23,-197.87 1053.41,-196.38 1043.94,-194.77"/>
<polygon fill="midnightblue" stroke="midnightblue" points="1044.28,-191.28 1033.82,-193 1043.07,-198.18 1044.28,-191.28"/>
</g>
<!-- Node12 -->
<g id="node12" class="node">
<title>Node12</title>
<g id="a_node12"><a xlink:title=" ">
<polygon fill="white" stroke="#bfbfbf" points="1081,-168.5 1081,-198.5 1174,-198.5 1174,-168.5 1081,-168.5"/>
<text text-anchor="start" x="1089" y="-186.5" font-family="Helvetica,sans-Serif" font-size="10.00">asm/dolphin/vi/vi/</text>
<text text-anchor="middle" x="1127.5" y="-175.5" font-family="Helvetica,sans-Serif" font-size="10.00">__VIInit.s</text>
</a>
</g>
</g>
<!-- Node1&#45;&gt;Node12 -->
<g id="edge15" class="edge">
<title>Node1&#45;&gt;Node12</title>
<path fill="none" stroke="midnightblue" d="M1715.47,-243.15C1614.54,-240.82 1385.14,-232.19 1184.33,-199.12"/>
<polygon fill="midnightblue" stroke="midnightblue" points="1184.62,-195.62 1174.18,-197.42 1183.47,-202.52 1184.62,-195.62"/>
</g>
<!-- Node13 -->
<g id="node13" class="node">
<title>Node13</title>
<g id="a_node13"><a xlink:title=" ">
<polygon fill="white" stroke="#bfbfbf" points="1191.5,-174 1191.5,-193 1315.5,-193 1315.5,-174 1191.5,-174"/>
<text text-anchor="middle" x="1253.5" y="-181" font-family="Helvetica,sans-Serif" font-size="10.00">asm/dolphin/vi/vi/VIInit.s</text>
</a>
</g>
</g>
<!-- Node1&#45;&gt;Node13 -->
<g id="edge16" class="edge">
<title>Node1&#45;&gt;Node13</title>
<path fill="none" stroke="midnightblue" d="M1715.45,-240.41C1632.45,-234.31 1465.12,-220.45 1324.5,-199 1317.06,-197.87 1309.23,-196.47 1301.58,-195"/>
<polygon fill="midnightblue" stroke="midnightblue" points="1302.19,-191.55 1291.7,-193.03 1300.82,-198.41 1302.19,-191.55"/>
</g>
<!-- Node14 -->
<g id="node14" class="node">
<title>Node14</title>
<g id="a_node14"><a xlink:title=" ">
<polygon fill="white" stroke="#bfbfbf" points="1333.5,-168.5 1333.5,-198.5 1455.5,-198.5 1455.5,-168.5 1333.5,-168.5"/>
<text text-anchor="start" x="1341.5" y="-186.5" font-family="Helvetica,sans-Serif" font-size="10.00">asm/dolphin/vi/vi/VIWait</text>
<text text-anchor="middle" x="1394.5" y="-175.5" font-family="Helvetica,sans-Serif" font-size="10.00">ForRetrace.s</text>
</a>
</g>
</g>
<!-- Node1&#45;&gt;Node14 -->
<g id="edge17" class="edge">
<title>Node1&#45;&gt;Node14</title>
<path fill="none" stroke="midnightblue" d="M1715.26,-237.08C1654.94,-228.89 1552.81,-214.41 1465.5,-199 1465.4,-198.98 1465.3,-198.96 1465.2,-198.95"/>
<polygon fill="midnightblue" stroke="midnightblue" points="1466.12,-195.56 1455.65,-197.21 1464.86,-202.44 1466.12,-195.56"/>
</g>
<!-- Node15 -->
<g id="node15" class="node">
<title>Node15</title>
<g id="a_node15"><a xlink:title=" ">
<polygon fill="white" stroke="#bfbfbf" points="1474,-168.5 1474,-198.5 1597,-198.5 1597,-168.5 1474,-168.5"/>
<text text-anchor="start" x="1482" y="-186.5" font-family="Helvetica,sans-Serif" font-size="10.00">asm/dolphin/vi/vi/setFbb</text>
<text text-anchor="middle" x="1535.5" y="-175.5" font-family="Helvetica,sans-Serif" font-size="10.00">Regs.s</text>
</a>
</g>
</g>
<!-- Node1&#45;&gt;Node15 -->
<g id="edge18" class="edge">
<title>Node1&#45;&gt;Node15</title>
<path fill="none" stroke="midnightblue" d="M1734.26,-235.48C1699.39,-226.53 1643.7,-212.25 1600.12,-201.07"/>
<polygon fill="midnightblue" stroke="midnightblue" points="1600.73,-197.62 1590.18,-198.52 1598.99,-204.4 1600.73,-197.62"/>
</g>
<!-- Node16 -->
<g id="node16" class="node">
<title>Node16</title>
<g id="a_node16"><a xlink:title=" ">
<polygon fill="white" stroke="#bfbfbf" points="1615.5,-168.5 1615.5,-198.5 1755.5,-198.5 1755.5,-168.5 1615.5,-168.5"/>
<text text-anchor="start" x="1623.5" y="-186.5" font-family="Helvetica,sans-Serif" font-size="10.00">asm/dolphin/vi/vi/setVertical</text>
<text text-anchor="middle" x="1685.5" y="-175.5" font-family="Helvetica,sans-Serif" font-size="10.00">Regs.s</text>
</a>
</g>
</g>
<!-- Node1&#45;&gt;Node16 -->
<g id="edge19" class="edge">
<title>Node1&#45;&gt;Node16</title>
<path fill="none" stroke="midnightblue" d="M1755.75,-235.48C1744.65,-227.42 1727.57,-215.02 1713.03,-204.47"/>
<polygon fill="midnightblue" stroke="midnightblue" points="1714.98,-201.56 1704.83,-198.52 1710.86,-207.23 1714.98,-201.56"/>
</g>
<!-- Node17 -->
<g id="node17" class="node">
<title>Node17</title>
<g id="a_node17"><a xlink:title=" ">
<polygon fill="white" stroke="#bfbfbf" points="1774,-174 1774,-193 1925,-193 1925,-174 1774,-174"/>
<text text-anchor="middle" x="1849.5" y="-181" font-family="Helvetica,sans-Serif" font-size="10.00">asm/dolphin/vi/vi/VIConfigure.s</text>
</a>
</g>
</g>
<!-- Node1&#45;&gt;Node17 -->
<g id="edge20" class="edge">
<title>Node1&#45;&gt;Node17</title>
<path fill="none" stroke="midnightblue" d="M1779.25,-235.48C1792.28,-226.02 1813.54,-210.6 1829.26,-199.19"/>
<polygon fill="midnightblue" stroke="midnightblue" points="1831.73,-201.71 1837.77,-193.01 1827.62,-196.05 1831.73,-201.71"/>
</g>
<!-- Node18 -->
<g id="node18" class="node">
<title>Node18</title>
<g id="a_node18"><a xlink:title=" ">
<polygon fill="white" stroke="#bfbfbf" points="1943.5,-174 1943.5,-193 2077.5,-193 2077.5,-174 1943.5,-174"/>
<text text-anchor="middle" x="2010.5" y="-181" font-family="Helvetica,sans-Serif" font-size="10.00">asm/dolphin/vi/vi/VIFlush.s</text>
</a>
</g>
</g>
<!-- Node1&#45;&gt;Node18 -->
<g id="edge21" class="edge">
<title>Node1&#45;&gt;Node18</title>
<path fill="none" stroke="midnightblue" d="M1802.32,-235.48C1845.35,-224.94 1918.67,-206.99 1965.81,-195.44"/>
<polygon fill="midnightblue" stroke="midnightblue" points="1966.87,-198.79 1975.75,-193.01 1965.2,-191.99 1966.87,-198.79"/>
</g>
<!-- Node19 -->
<g id="node19" class="node">
<title>Node19</title>
<g id="a_node19"><a xlink:title=" ">
<polygon fill="white" stroke="#bfbfbf" points="2095.5,-168.5 2095.5,-198.5 2233.5,-198.5 2233.5,-168.5 2095.5,-168.5"/>
<text text-anchor="start" x="2103.5" y="-186.5" font-family="Helvetica,sans-Serif" font-size="10.00">asm/dolphin/vi/vi/VISetNext</text>
<text text-anchor="middle" x="2164.5" y="-175.5" font-family="Helvetica,sans-Serif" font-size="10.00">FrameBuffer.s</text>
</a>
</g>
</g>
<!-- Node1&#45;&gt;Node19 -->
<g id="edge22" class="edge">
<title>Node1&#45;&gt;Node19</title>
<path fill="none" stroke="midnightblue" d="M1819.54,-237.37C1880.74,-229.41 1985.63,-215.28 2085.27,-199.16"/>
<polygon fill="midnightblue" stroke="midnightblue" points="2085.9,-202.61 2095.2,-197.54 2084.77,-195.7 2085.9,-202.61"/>
</g>
<!-- Node20 -->
<g id="node20" class="node">
<title>Node20</title>
<g id="a_node20"><a xlink:title=" ">
<polygon fill="white" stroke="#bfbfbf" points="2251.5,-174 2251.5,-193 2401.5,-193 2401.5,-174 2251.5,-174"/>
<text text-anchor="middle" x="2326.5" y="-181" font-family="Helvetica,sans-Serif" font-size="10.00">asm/dolphin/vi/vi/VISetBlack.s</text>
</a>
</g>
</g>
<!-- Node1&#45;&gt;Node20 -->
<g id="edge23" class="edge">
<title>Node1&#45;&gt;Node20</title>
<path fill="none" stroke="midnightblue" d="M1819.66,-240.37C1907.26,-233.98 2089.37,-219.44 2242.5,-199 2251.66,-197.78 2261.34,-196.29 2270.75,-194.74"/>
<polygon fill="midnightblue" stroke="midnightblue" points="2271.54,-198.15 2280.82,-193.04 2270.38,-191.25 2271.54,-198.15"/>
</g>
<!-- Node21 -->
<g id="node21" class="node">
<title>Node21</title>
<g id="a_node21"><a xlink:title=" ">
<polygon fill="white" stroke="#bfbfbf" points="2419.5,-168.5 2419.5,-198.5 2559.5,-198.5 2559.5,-168.5 2419.5,-168.5"/>
<text text-anchor="start" x="2427.5" y="-186.5" font-family="Helvetica,sans-Serif" font-size="10.00">asm/dolphin/vi/vi/GetCurrent</text>
<text text-anchor="middle" x="2489.5" y="-175.5" font-family="Helvetica,sans-Serif" font-size="10.00">DisplayPosition.s</text>
</a>
</g>
</g>
<!-- Node1&#45;&gt;Node21 -->
<g id="edge24" class="edge">
<title>Node1&#45;&gt;Node21</title>
<path fill="none" stroke="midnightblue" d="M1819.78,-242.32C1927.97,-238.42 2184.41,-226.95 2409.34,-199.05"/>
<polygon fill="midnightblue" stroke="midnightblue" points="2409.87,-202.51 2419.35,-197.8 2408.99,-195.57 2409.87,-202.51"/>
</g>
<!-- Node22 -->
<g id="node22" class="node">
<title>Node22</title>
<g id="a_node22"><a xlink:title=" ">
<polygon fill="white" stroke="#bfbfbf" points="2577.5,-168.5 2577.5,-198.5 2715.5,-198.5 2715.5,-168.5 2577.5,-168.5"/>
<text text-anchor="start" x="2585.5" y="-186.5" font-family="Helvetica,sans-Serif" font-size="10.00">asm/dolphin/vi/vi/getCurrent</text>
<text text-anchor="middle" x="2646.5" y="-175.5" font-family="Helvetica,sans-Serif" font-size="10.00">FieldEvenOdd.s</text>
</a>
</g>
</g>
<!-- Node1&#45;&gt;Node22 -->
<g id="edge25" class="edge">
<title>Node1&#45;&gt;Node22</title>
<path fill="none" stroke="midnightblue" d="M1819.71,-243.37C1946.26,-241.35 2279.51,-233.08 2567.04,-199.07"/>
<polygon fill="midnightblue" stroke="midnightblue" points="2567.73,-202.51 2577.25,-197.85 2566.9,-195.56 2567.73,-202.51"/>
</g>
<!-- Node23 -->
<g id="node23" class="node">
<title>Node23</title>
<g id="a_node23"><a xlink:title=" ">
<polygon fill="white" stroke="#bfbfbf" points="2734,-168.5 2734,-198.5 2873,-198.5 2873,-168.5 2734,-168.5"/>
<text text-anchor="start" x="2742" y="-186.5" font-family="Helvetica,sans-Serif" font-size="10.00">asm/dolphin/vi/vi/VIGetNext</text>
<text text-anchor="middle" x="2803.5" y="-175.5" font-family="Helvetica,sans-Serif" font-size="10.00">Field.s</text>
</a>
</g>
</g>
<!-- Node1&#45;&gt;Node23 -->
<g id="edge26" class="edge">
<title>Node1&#45;&gt;Node23</title>
<path fill="none" stroke="midnightblue" d="M1819.57,-244.01C1962.47,-243.5 2372.88,-238.54 2723.69,-198.97"/>
<polygon fill="midnightblue" stroke="midnightblue" points="2724.25,-202.43 2733.79,-197.82 2723.46,-195.48 2724.25,-202.43"/>
</g>
<!-- Node24 -->
<g id="node24" class="node">
<title>Node24</title>
<g id="a_node24"><a xlink:title=" ">
<polygon fill="white" stroke="#bfbfbf" points="2891.5,-168.5 2891.5,-198.5 3041.5,-198.5 3041.5,-168.5 2891.5,-168.5"/>
<text text-anchor="start" x="2899.5" y="-186.5" font-family="Helvetica,sans-Serif" font-size="10.00">asm/dolphin/vi/vi/VIGetCurrent</text>
<text text-anchor="middle" x="2966.5" y="-175.5" font-family="Helvetica,sans-Serif" font-size="10.00">Line.s</text>
</a>
</g>
</g>
<!-- Node1&#45;&gt;Node24 -->
<g id="edge27" class="edge">
<title>Node1&#45;&gt;Node24</title>
<path fill="none" stroke="midnightblue" d="M1819.64,-244.31C1977.92,-244.73 2466.83,-242.27 2881.38,-199.01"/>
<polygon fill="midnightblue" stroke="midnightblue" points="2881.88,-202.48 2891.46,-197.95 2881.15,-195.52 2881.88,-202.48"/>
</g>
<!-- Node25 -->
<g id="node25" class="node">
<title>Node25</title>
<g id="a_node25"><a xlink:title=" ">
<polygon fill="white" stroke="#bfbfbf" points="3059.5,-168.5 3059.5,-198.5 3189.5,-198.5 3189.5,-168.5 3059.5,-168.5"/>
<text text-anchor="start" x="3067.5" y="-186.5" font-family="Helvetica,sans-Serif" font-size="10.00">asm/dolphin/vi/vi/VIGetTv</text>
<text text-anchor="middle" x="3124.5" y="-175.5" font-family="Helvetica,sans-Serif" font-size="10.00">Format.s</text>
</a>
</g>
</g>
<!-- Node1&#45;&gt;Node25 -->
<g id="edge28" class="edge">
<title>Node1&#45;&gt;Node25</title>
<path fill="none" stroke="midnightblue" d="M1819.52,-243.28C2025.56,-240.24 2785.56,-227.41 3048.93,-199.02"/>
<polygon fill="midnightblue" stroke="midnightblue" points="3049.67,-202.46 3059.22,-197.87 3048.89,-195.5 3049.67,-202.46"/>
</g>
<!-- Node26 -->
<g id="node26" class="node">
<title>Node26</title>
<g id="a_node26"><a xlink:title=" ">
<polygon fill="white" stroke="#bfbfbf" points="3207.5,-174 3207.5,-193 3381.5,-193 3381.5,-174 3207.5,-174"/>
<text text-anchor="middle" x="3294.5" y="-181" font-family="Helvetica,sans-Serif" font-size="10.00">asm/dolphin/vi/vi/VIGetDTVStatus.s</text>
</a>
</g>
</g>
<!-- Node1&#45;&gt;Node26 -->
<g id="edge29" class="edge">
<title>Node1&#45;&gt;Node26</title>
<path fill="none" stroke="midnightblue" d="M1819.7,-243.19C2043.47,-239.58 2922.8,-224.07 3198.5,-199 3210.43,-197.91 3223.14,-196.31 3235.28,-194.57"/>
<polygon fill="midnightblue" stroke="midnightblue" points="3235.93,-198.01 3245.3,-193.08 3234.9,-191.09 3235.93,-198.01"/>
</g>
<!-- Node27 -->
<g id="node27" class="node">
<title>Node27</title>
<g id="a_node27"><a xlink:title=" ">
<polygon fill="white" stroke="#bfbfbf" points="3399.5,-168.5 3399.5,-198.5 3535.5,-198.5 3535.5,-168.5 3399.5,-168.5"/>
<text text-anchor="start" x="3407.5" y="-186.5" font-family="Helvetica,sans-Serif" font-size="10.00">asm/dolphin/vi/vi/</text>
<text text-anchor="middle" x="3467.5" y="-175.5" font-family="Helvetica,sans-Serif" font-size="10.00">__VIDisplayPositionToXY.s</text>
</a>
</g>
</g>
<!-- Node1&#45;&gt;Node27 -->
<g id="edge30" class="edge">
<title>Node1&#45;&gt;Node27</title>
<path fill="none" stroke="midnightblue" d="M1819.67,-243.67C2059.06,-241.97 3054.66,-233.01 3388.97,-199.02"/>
<polygon fill="midnightblue" stroke="midnightblue" points="3389.57,-202.47 3399.15,-197.95 3388.84,-195.51 3389.57,-202.47"/>
</g>
<!-- Node28 -->
<g id="node28" class="node">
<title>Node28</title>
<g id="a_node28"><a xlink:title=" ">
<polygon fill="white" stroke="#bfbfbf" points="3554,-168.5 3554,-198.5 3681,-198.5 3681,-168.5 3554,-168.5"/>
<text text-anchor="start" x="3562" y="-186.5" font-family="Helvetica,sans-Serif" font-size="10.00">asm/dolphin/vi/vi/</text>
<text text-anchor="middle" x="3617.5" y="-175.5" font-family="Helvetica,sans-Serif" font-size="10.00">__VIGetCurrentPosition.s</text>
</a>
</g>
</g>
<!-- Node1&#45;&gt;Node28 -->
<g id="edge31" class="edge">
<title>Node1&#45;&gt;Node28</title>
<path fill="none" stroke="midnightblue" d="M1819.86,-243.88C2073.5,-243.12 3176.79,-237.67 3543.78,-198.9"/>
<polygon fill="midnightblue" stroke="midnightblue" points="3544.33,-202.36 3553.9,-197.8 3543.58,-195.4 3544.33,-202.36"/>
</g>
<!-- Node3 -->
<g id="node3" class="node">
<title>Node3</title>
<g id="a_node3"><a xlink:href="GX_8h.html" target="_top" xlink:title=" ">
<polygon fill="white" stroke="black" points="163,-112.5 163,-131.5 248,-131.5 248,-112.5 163,-112.5"/>
<text text-anchor="middle" x="205.5" y="-119.5" font-family="Helvetica,sans-Serif" font-size="10.00">dolphin/gx/GX.h</text>
</a>
</g>
</g>
<!-- Node2&#45;&gt;Node3 -->
<g id="edge2" class="edge">
<title>Node2&#45;&gt;Node3</title>
<path fill="none" stroke="midnightblue" d="M292.89,-173.98C276.15,-164.21 248.5,-148.08 228.78,-136.58"/>
<polygon fill="midnightblue" stroke="midnightblue" points="230.49,-133.52 220.09,-131.51 226.96,-139.57 230.49,-133.52"/>
</g>
<!-- Node2&#45;&gt;Node5 -->
<g id="edge8" class="edge">
<title>Node2&#45;&gt;Node5</title>
<path fill="none" stroke="midnightblue" d="M310.97,-173.87C319,-152.42 336.61,-95.62 315.5,-56 307.95,-41.83 293.74,-31.33 280.34,-24.06"/>
<polygon fill="midnightblue" stroke="midnightblue" points="281.8,-20.87 271.29,-19.53 278.67,-27.13 281.8,-20.87"/>
</g>
<!-- Node4 -->
<g id="node4" class="node">
<title>Node4</title>
<g id="a_node4"><a xlink:href="GXDisplayList_8h.html" target="_top" xlink:title=" ">
<polygon fill="white" stroke="black" points="0,-56.5 0,-75.5 133,-75.5 133,-56.5 0,-56.5"/>
<text text-anchor="middle" x="66.5" y="-63.5" font-family="Helvetica,sans-Serif" font-size="10.00">dolphin/gx/GXDisplayList.h</text>
</a>
</g>
</g>
<!-- Node3&#45;&gt;Node4 -->
<g id="edge3" class="edge">
<title>Node3&#45;&gt;Node4</title>
<path fill="none" stroke="midnightblue" d="M183.48,-112.44C160.4,-103.48 123.94,-89.31 97.86,-79.18"/>
<polygon fill="midnightblue" stroke="midnightblue" points="99.01,-75.88 88.42,-75.52 96.48,-82.4 99.01,-75.88"/>
</g>
<!-- Node3&#45;&gt;Node5 -->
<g id="edge7" class="edge">
<title>Node3&#45;&gt;Node5</title>
<path fill="none" stroke="midnightblue" d="M197.47,-112.28C186.74,-99.52 170.2,-75.17 180.5,-56 188.12,-41.82 202.4,-31.35 215.91,-24.1"/>
<polygon fill="midnightblue" stroke="midnightblue" points="217.63,-27.16 225.05,-19.59 214.53,-20.88 217.63,-27.16"/>
</g>
<!-- Node6 -->
<g id="node6" class="node">
<title>Node6</title>
<g id="a_node6"><a xlink:href="GXTexture_8h.html" target="_top" xlink:title=" ">
<polygon fill="white" stroke="black" points="190,-56.5 190,-75.5 307,-75.5 307,-56.5 190,-56.5"/>
<text text-anchor="middle" x="248.5" y="-63.5" font-family="Helvetica,sans-Serif" font-size="10.00">dolphin/gx/GXTexture.h</text>
</a>
</g>
</g>
<!-- Node3&#45;&gt;Node6 -->
<g id="edge5" class="edge">
<title>Node3&#45;&gt;Node6</title>
<path fill="none" stroke="midnightblue" d="M212.6,-112.08C218.74,-104.38 227.77,-93.03 235.24,-83.65"/>
<polygon fill="midnightblue" stroke="midnightblue" points="238.04,-85.75 241.53,-75.75 232.56,-81.39 238.04,-85.75"/>
</g>
<!-- Node4&#45;&gt;Node5 -->
<g id="edge4" class="edge">
<title>Node4&#45;&gt;Node5</title>
<path fill="none" stroke="midnightblue" d="M95.34,-56.44C126.36,-47.24 175.83,-32.56 210.12,-22.39"/>
<polygon fill="midnightblue" stroke="midnightblue" points="211.21,-25.72 219.8,-19.52 209.21,-19.01 211.21,-25.72"/>
</g>
<!-- Node6&#45;&gt;Node5 -->
<g id="edge6" class="edge">
<title>Node6&#45;&gt;Node5</title>
<path fill="none" stroke="midnightblue" d="M248.5,-56.08C248.5,-49.01 248.5,-38.86 248.5,-29.99"/>
<polygon fill="midnightblue" stroke="midnightblue" points="252,-29.75 248.5,-19.75 245,-29.75 252,-29.75"/>
</g>
</g>
</svg>
        <g id="navigator" transform="translate(0 0)" fill="#404254">
                <rect fill="#f2f5e9" fill-opacity="0.5" stroke="#606060" stroke-width=".5" x="0" y="0" width="60" height="60"/>
                <use id="zoomplus" xlink:href="#zoomPlus" x="17" y="9" onmousedown="handleZoom(evt,'in')"/>
                <use id="zoomminus" xlink:href="#zoomMin" x="42" y="9" onmousedown="handleZoom(evt,'out')"/>
                <use id="reset" xlink:href="#resetDef" x="30" y="36" onmousedown="handleReset()"/>
                <g id="arrowUp" xlink:href="#dirArrow" transform="translate(30 24)" onmousedown="handlePan(0,-1)">
                  <use xlink:href="#rim" fill="#404040">
                        <set attributeName="fill" to="#808080" begin="arrowUp.mouseover" end="arrowUp.mouseout"/>
                  </use>
                  <path fill="none" stroke="white" stroke-width="1.5" d="M0,-3.0v7 M-2.5,-0.5L0,-3.0L2.5,-0.5"/>
                </g>
                <g id="arrowRight" xlink:href="#dirArrow" transform="rotate(90) translate(36 -43)" onmousedown="handlePan(1,0)">
                  <use xlink:href="#rim" fill="#404040">
                        <set attributeName="fill" to="#808080" begin="arrowRight.mouseover" end="arrowRight.mouseout"/>
                  </use>
                  <path fill="none" stroke="white" stroke-width="1.5" d="M0,-3.0v7 M-2.5,-0.5L0,-3.0L2.5,-0.5"/>
                </g>
                <g id="arrowDown" xlink:href="#dirArrow" transform="rotate(180) translate(-30 -48)" onmousedown="handlePan(0,1)">
                  <use xlink:href="#rim" fill="#404040">
                        <set attributeName="fill" to="#808080" begin="arrowDown.mouseover" end="arrowDown.mouseout"/>
                  </use>
                  <path fill="none" stroke="white" stroke-width="1.5" d="M0,-3.0v7 M-2.5,-0.5L0,-3.0L2.5,-0.5"/>
                </g>
                <g id="arrowLeft" xlink:href="#dirArrow" transform="rotate(270) translate(-36 17)" onmousedown="handlePan(-1,0)">
                  <use xlink:href="#rim" fill="#404040">
                        <set attributeName="fill" to="#808080" begin="arrowLeft.mouseover" end="arrowLeft.mouseout"/>
                  </use>
                  <path fill="none" stroke="white" stroke-width="1.5" d="M0,-3.0v7 M-2.5,-0.5L0,-3.0L2.5,-0.5"/>
                </g>
        </g>
        <svg viewBox="0 0 15 15" width="100%" height="30px" preserveAspectRatio="xMaxYMin meet">
         <g id="arrow_out" transform="scale(0.3 0.3)">
          <a xlink:href="vi_8cpp__incl_org.svg" target="_base">
           <rect id="button" ry="5" rx="5" y="6" x="6" height="38" width="38"
                fill="#f2f5e9" fill-opacity="0.5" stroke="#606060" stroke-width="1.0"/>
           <path id="arrow"
             d="M 11.500037,31.436501 C 11.940474,20.09759 22.043105,11.32322 32.158766,21.979434 L 37.068811,17.246167 C 37.068811,17.246167 37.088388,32 37.088388,32 L 22.160133,31.978069 C 22.160133,31.978069 26.997745,27.140456 26.997745,27.140456 C 18.528582,18.264221 13.291696,25.230495 11.500037,31.436501 z"
             style="fill:#404040;"/>
          </a>
         </g>
        </svg>
</svg>
