<?xml version="1.0" encoding="UTF-8" standalone="no"?>
<!DOCTYPE svg PUBLIC "-//W3C//DTD SVG 1.1//EN"
 "http://www.w3.org/Graphics/SVG/1.1/DTD/svg11.dtd">
<!-- Generated by graphviz version 2.44.0 ()
 -->
<!-- Title: libs/Z2AudioLib/Z2SeMgr.cpp Pages: 1 -->
<svg width="4273pt" height="274pt"
 viewBox="0.00 0.00 4273.00 274.00" xmlns="http://www.w3.org/2000/svg" xmlns:xlink="http://www.w3.org/1999/xlink">
<g id="graph0" class="graph" transform="scale(1 1) rotate(0) translate(4 270)">
<title>libs/Z2AudioLib/Z2SeMgr.cpp</title>
<polygon fill="white" stroke="transparent" points="-4,4 -4,-270 4269,-270 4269,4 -4,4"/>
<!-- Node1 -->
<g id="node1" class="node">
<title>Node1</title>
<g id="a_node1"><a xlink:title=" ">
<polygon fill="#bfbfbf" stroke="black" points="2097,-246.5 2097,-265.5 2242,-265.5 2242,-246.5 2097,-246.5"/>
<text text-anchor="middle" x="2169.5" y="-253.5" font-family="Helvetica,sans-Serif" font-size="10.00">libs/Z2AudioLib/Z2SeMgr.cpp</text>
</a>
</g>
</g>
<!-- Node2 -->
<g id="node2" class="node">
<title>Node2</title>
<g id="a_node2"><a xlink:href="Z2SeMgr_8h.html" target="_top" xlink:title=" ">
<polygon fill="white" stroke="black" points="384.5,-179.5 384.5,-198.5 500.5,-198.5 500.5,-179.5 384.5,-179.5"/>
<text text-anchor="middle" x="442.5" y="-186.5" font-family="Helvetica,sans-Serif" font-size="10.00">Z2AudioLib/Z2SeMgr.h</text>
</a>
</g>
</g>
<!-- Node1&#45;&gt;Node2 -->
<g id="edge1" class="edge">
<title>Node1&#45;&gt;Node2</title>
<path fill="none" stroke="midnightblue" d="M2096.77,-254.57C1822.73,-252.71 852.49,-243.83 545.5,-210 526.88,-207.95 506.61,-204.32 489,-200.71"/>
<polygon fill="midnightblue" stroke="midnightblue" points="489.49,-197.23 478.98,-198.6 488.05,-204.08 489.49,-197.23"/>
</g>
<!-- Node5 -->
<g id="node5" class="node">
<title>Node5</title>
<g id="a_node5"><a xlink:href="types_8h.html" target="_top" xlink:title=" ">
<polygon fill="white" stroke="black" points="318,-0.5 318,-19.5 399,-19.5 399,-0.5 318,-0.5"/>
<text text-anchor="middle" x="358.5" y="-7.5" font-family="Helvetica,sans-Serif" font-size="10.00">dolphin/types.h</text>
</a>
</g>
</g>
<!-- Node1&#45;&gt;Node5 -->
<g id="edge14" class="edge">
<title>Node1&#45;&gt;Node5</title>
<path fill="none" stroke="midnightblue" d="M2096.9,-255.15C1793.83,-255.51 642.36,-253.95 579.5,-210 541.08,-183.14 570.75,-147.81 540.5,-112 501.94,-66.35 437.25,-37.53 396.29,-22.85"/>
<polygon fill="midnightblue" stroke="midnightblue" points="397.26,-19.48 386.66,-19.5 394.96,-26.09 397.26,-19.48"/>
</g>
<!-- Node9 -->
<g id="node9" class="node">
<title>Node9</title>
<g id="a_node9"><a xlink:href="dol2asm_8h.html" target="_top" xlink:title=" ">
<polygon fill="white" stroke="black" points="588,-179.5 588,-198.5 649,-198.5 649,-179.5 588,-179.5"/>
<text text-anchor="middle" x="618.5" y="-186.5" font-family="Helvetica,sans-Serif" font-size="10.00">dol2asm.h</text>
</a>
</g>
</g>
<!-- Node1&#45;&gt;Node9 -->
<g id="edge13" class="edge">
<title>Node1&#45;&gt;Node9</title>
<path fill="none" stroke="midnightblue" d="M2096.57,-254.67C1813.78,-253.15 798.47,-245.25 658.5,-210 652.66,-208.53 646.7,-206.12 641.21,-203.47"/>
<polygon fill="midnightblue" stroke="midnightblue" points="642.47,-200.17 631.99,-198.59 639.2,-206.36 642.47,-200.17"/>
</g>
<!-- Node10 -->
<g id="node10" class="node">
<title>Node10</title>
<g id="a_node10"><a xlink:title=" ">
<polygon fill="white" stroke="#bfbfbf" points="667,-174 667,-204 798,-204 798,-174 667,-174"/>
<text text-anchor="start" x="675" y="-192" font-family="Helvetica,sans-Serif" font-size="10.00">asm/Z2AudioLib/Z2SeMgr</text>
<text text-anchor="middle" x="732.5" y="-181" font-family="Helvetica,sans-Serif" font-size="10.00">/__ct__7Z2SeMgrFv.s</text>
</a>
</g>
</g>
<!-- Node1&#45;&gt;Node10 -->
<g id="edge15" class="edge">
<title>Node1&#45;&gt;Node10</title>
<path fill="none" stroke="midnightblue" d="M2096.96,-254.78C1852.43,-253.69 1059.68,-247.29 807.5,-210 801.29,-209.08 794.85,-207.83 788.48,-206.41"/>
<polygon fill="midnightblue" stroke="midnightblue" points="789.1,-202.96 778.56,-204.05 787.48,-209.77 789.1,-202.96"/>
</g>
<!-- Node11 -->
<g id="node11" class="node">
<title>Node11</title>
<g id="a_node11"><a xlink:title=" ">
<polygon fill="white" stroke="#bfbfbf" points="816,-174 816,-204 947,-204 947,-174 816,-174"/>
<text text-anchor="start" x="824" y="-192" font-family="Helvetica,sans-Serif" font-size="10.00">asm/Z2AudioLib/Z2SeMgr</text>
<text text-anchor="middle" x="881.5" y="-181" font-family="Helvetica,sans-Serif" font-size="10.00">/initSe__7Z2SeMgrFv.s</text>
</a>
</g>
</g>
<!-- Node1&#45;&gt;Node11 -->
<g id="edge16" class="edge">
<title>Node1&#45;&gt;Node11</title>
<path fill="none" stroke="midnightblue" d="M2096.72,-254.43C1869.98,-252.32 1178.32,-243.26 956.5,-210 950.29,-209.07 943.86,-207.81 937.49,-206.38"/>
<polygon fill="midnightblue" stroke="midnightblue" points="938.11,-202.93 927.57,-204.02 936.48,-209.74 938.11,-202.93"/>
</g>
<!-- Node12 -->
<g id="node12" class="node">
<title>Node12</title>
<g id="a_node12"><a xlink:title=" ">
<polygon fill="white" stroke="#bfbfbf" points="965.5,-168.5 965.5,-209.5 1131.5,-209.5 1131.5,-168.5 965.5,-168.5"/>
<text text-anchor="start" x="973.5" y="-197.5" font-family="Helvetica,sans-Serif" font-size="10.00">asm/Z2AudioLib/Z2SeMgr</text>
<text text-anchor="start" x="973.5" y="-186.5" font-family="Helvetica,sans-Serif" font-size="10.00">/modHeightAtCamera__7Z2SeMgr</text>
<text text-anchor="middle" x="1048.5" y="-175.5" font-family="Helvetica,sans-Serif" font-size="10.00">FPPC3Vec.s</text>
</a>
</g>
</g>
<!-- Node1&#45;&gt;Node12 -->
<g id="edge17" class="edge">
<title>Node1&#45;&gt;Node12</title>
<path fill="none" stroke="midnightblue" d="M2096.92,-253.44C1897.76,-248.89 1344.59,-234.51 1141.61,-209.99"/>
<polygon fill="midnightblue" stroke="midnightblue" points="1141.99,-206.51 1131.63,-208.74 1141.12,-213.45 1141.99,-206.51"/>
</g>
<!-- Node13 -->
<g id="node13" class="node">
<title>Node13</title>
<g id="a_node13"><a xlink:title=" ">
<polygon fill="white" stroke="#bfbfbf" points="1149.5,-168.5 1149.5,-209.5 1315.5,-209.5 1315.5,-168.5 1149.5,-168.5"/>
<text text-anchor="start" x="1157.5" y="-197.5" font-family="Helvetica,sans-Serif" font-size="10.00">asm/Z2AudioLib/Z2SeMgr</text>
<text text-anchor="start" x="1157.5" y="-186.5" font-family="Helvetica,sans-Serif" font-size="10.00">/seStart__7Z2SeMgrF10JAISound</text>
<text text-anchor="middle" x="1232.5" y="-175.5" font-family="Helvetica,sans-Serif" font-size="10.00">IDPC3VecUlScffffUc.s</text>
</a>
</g>
</g>
<!-- Node1&#45;&gt;Node13 -->
<g id="edge18" class="edge">
<title>Node1&#45;&gt;Node13</title>
<path fill="none" stroke="midnightblue" d="M2096.79,-255.05C1951.81,-254.31 1616.4,-248.31 1325.95,-210.07"/>
<polygon fill="midnightblue" stroke="midnightblue" points="1326.01,-206.55 1315.64,-208.7 1325.09,-213.49 1326.01,-206.55"/>
</g>
<!-- Node14 -->
<g id="node14" class="node">
<title>Node14</title>
<g id="a_node14"><a xlink:title=" ">
<polygon fill="white" stroke="#bfbfbf" points="1333.5,-168.5 1333.5,-209.5 1523.5,-209.5 1523.5,-168.5 1333.5,-168.5"/>
<text text-anchor="start" x="1341.5" y="-197.5" font-family="Helvetica,sans-Serif" font-size="10.00">asm/Z2AudioLib/Z2SeMgr</text>
<text text-anchor="start" x="1341.5" y="-186.5" font-family="Helvetica,sans-Serif" font-size="10.00">/seStartLevel__7Z2SeMgrF10JAISound</text>
<text text-anchor="middle" x="1428.5" y="-175.5" font-family="Helvetica,sans-Serif" font-size="10.00">IDPC3VecUlScffffUc.s</text>
</a>
</g>
</g>
<!-- Node1&#45;&gt;Node14 -->
<g id="edge19" class="edge">
<title>Node1&#45;&gt;Node14</title>
<path fill="none" stroke="midnightblue" d="M2096.73,-252.63C1980.13,-248.23 1744.09,-236.8 1533.71,-209.93"/>
<polygon fill="midnightblue" stroke="midnightblue" points="1534.08,-206.45 1523.71,-208.64 1533.18,-213.39 1534.08,-206.45"/>
</g>
<!-- Node15 -->
<g id="node15" class="node">
<title>Node15</title>
<g id="a_node15"><a xlink:title=" ">
<polygon fill="white" stroke="#bfbfbf" points="1542,-168.5 1542,-209.5 1707,-209.5 1707,-168.5 1542,-168.5"/>
<text text-anchor="start" x="1550" y="-197.5" font-family="Helvetica,sans-Serif" font-size="10.00">asm/Z2AudioLib/Z2SeMgr</text>
<text text-anchor="start" x="1550" y="-186.5" font-family="Helvetica,sans-Serif" font-size="10.00">/seStop__7Z2SeMgrF10JAISound</text>
<text text-anchor="middle" x="1624.5" y="-175.5" font-family="Helvetica,sans-Serif" font-size="10.00">IDUl.s</text>
</a>
</g>
</g>
<!-- Node1&#45;&gt;Node15 -->
<g id="edge20" class="edge">
<title>Node1&#45;&gt;Node15</title>
<path fill="none" stroke="midnightblue" d="M2096.99,-250.38C2009.37,-244.22 1857.33,-231.67 1717.23,-210.02"/>
<polygon fill="midnightblue" stroke="midnightblue" points="1717.59,-206.53 1707.17,-208.44 1716.51,-213.45 1717.59,-206.53"/>
</g>
<!-- Node16 -->
<g id="node16" class="node">
<title>Node16</title>
<g id="a_node16"><a xlink:title=" ">
<polygon fill="white" stroke="#bfbfbf" points="1725.5,-174 1725.5,-204 1865.5,-204 1865.5,-174 1725.5,-174"/>
<text text-anchor="start" x="1733.5" y="-192" font-family="Helvetica,sans-Serif" font-size="10.00">asm/Z2AudioLib/Z2SeMgr</text>
<text text-anchor="middle" x="1795.5" y="-181" font-family="Helvetica,sans-Serif" font-size="10.00">/seStopAll__7Z2SeMgrFUl.s</text>
</a>
</g>
</g>
<!-- Node1&#45;&gt;Node16 -->
<g id="edge21" class="edge">
<title>Node1&#45;&gt;Node16</title>
<path fill="none" stroke="midnightblue" d="M2101.21,-246.49C2041.21,-238.55 1951.68,-225.62 1874.5,-210 1869.13,-208.91 1863.57,-207.7 1858.01,-206.41"/>
<polygon fill="midnightblue" stroke="midnightblue" points="1858.57,-202.95 1848.03,-204.05 1856.96,-209.76 1858.57,-202.95"/>
</g>
<!-- Node17 -->
<g id="node17" class="node">
<title>Node17</title>
<g id="a_node17"><a xlink:title=" ">
<polygon fill="white" stroke="#bfbfbf" points="1883.5,-174 1883.5,-204 2063.5,-204 2063.5,-174 1883.5,-174"/>
<text text-anchor="start" x="1891.5" y="-192" font-family="Helvetica,sans-Serif" font-size="10.00">asm/Z2AudioLib/Z2SeMgr</text>
<text text-anchor="middle" x="1973.5" y="-181" font-family="Helvetica,sans-Serif" font-size="10.00">/seMoveVolumeAll__7Z2SeMgrFfUl.s</text>
</a>
</g>
</g>
<!-- Node1&#45;&gt;Node17 -->
<g id="edge22" class="edge">
<title>Node1&#45;&gt;Node17</title>
<path fill="none" stroke="midnightblue" d="M2143.47,-246.37C2113.55,-236.45 2063.69,-219.91 2025.68,-207.31"/>
<polygon fill="midnightblue" stroke="midnightblue" points="2026.39,-203.85 2015.8,-204.03 2024.19,-210.5 2026.39,-203.85"/>
</g>
<!-- Node18 -->
<g id="node18" class="node">
<title>Node18</title>
<g id="a_node18"><a xlink:title=" ">
<polygon fill="white" stroke="#bfbfbf" points="2081.5,-168.5 2081.5,-209.5 2257.5,-209.5 2257.5,-168.5 2081.5,-168.5"/>
<text text-anchor="start" x="2089.5" y="-197.5" font-family="Helvetica,sans-Serif" font-size="10.00">asm/Z2AudioLib/Z2SeMgr</text>
<text text-anchor="start" x="2089.5" y="-186.5" font-family="Helvetica,sans-Serif" font-size="10.00">/messageSePlay__7Z2SeMgrFUsP3</text>
<text text-anchor="middle" x="2169.5" y="-175.5" font-family="Helvetica,sans-Serif" font-size="10.00">VecSc.s</text>
</a>
</g>
</g>
<!-- Node1&#45;&gt;Node18 -->
<g id="edge23" class="edge">
<title>Node1&#45;&gt;Node18</title>
<path fill="none" stroke="midnightblue" d="M2169.5,-246.23C2169.5,-239.36 2169.5,-229.38 2169.5,-219.73"/>
<polygon fill="midnightblue" stroke="midnightblue" points="2173,-219.54 2169.5,-209.54 2166,-219.54 2173,-219.54"/>
</g>
<!-- Node19 -->
<g id="node19" class="node">
<title>Node19</title>
<g id="a_node19"><a xlink:title=" ">
<polygon fill="white" stroke="#bfbfbf" points="2276,-174 2276,-204 2407,-204 2407,-174 2276,-174"/>
<text text-anchor="start" x="2284" y="-192" font-family="Helvetica,sans-Serif" font-size="10.00">asm/Z2AudioLib/Z2SeMgr</text>
<text text-anchor="middle" x="2341.5" y="-181" font-family="Helvetica,sans-Serif" font-size="10.00">/talkInSe__7Z2SeMgrFv.s</text>
</a>
</g>
</g>
<!-- Node1&#45;&gt;Node19 -->
<g id="edge24" class="edge">
<title>Node1&#45;&gt;Node19</title>
<path fill="none" stroke="midnightblue" d="M2192.34,-246.37C2218.37,-236.53 2261.61,-220.19 2294.85,-207.63"/>
<polygon fill="midnightblue" stroke="midnightblue" points="2296.26,-210.84 2304.38,-204.03 2293.79,-204.29 2296.26,-210.84"/>
</g>
<!-- Node20 -->
<g id="node20" class="node">
<title>Node20</title>
<g id="a_node20"><a xlink:title=" ">
<polygon fill="white" stroke="#bfbfbf" points="2425,-174 2425,-204 2562,-204 2562,-174 2425,-174"/>
<text text-anchor="start" x="2433" y="-192" font-family="Helvetica,sans-Serif" font-size="10.00">asm/Z2AudioLib/Z2SeMgr</text>
<text text-anchor="middle" x="2493.5" y="-181" font-family="Helvetica,sans-Serif" font-size="10.00">/talkOutSe__7Z2SeMgrFv.s</text>
</a>
</g>
</g>
<!-- Node1&#45;&gt;Node20 -->
<g id="edge25" class="edge">
<title>Node1&#45;&gt;Node20</title>
<path fill="none" stroke="midnightblue" d="M2222.73,-246.47C2272.9,-238.16 2350.1,-224.65 2416.5,-210 2421.43,-208.91 2426.52,-207.73 2431.63,-206.49"/>
<polygon fill="midnightblue" stroke="midnightblue" points="2432.56,-209.87 2441.44,-204.08 2430.89,-203.07 2432.56,-209.87"/>
</g>
<!-- Node21 -->
<g id="node21" class="node">
<title>Node21</title>
<g id="a_node21"><a xlink:title=" ">
<polygon fill="white" stroke="#bfbfbf" points="2580.5,-174 2580.5,-204 2718.5,-204 2718.5,-174 2580.5,-174"/>
<text text-anchor="start" x="2588.5" y="-192" font-family="Helvetica,sans-Serif" font-size="10.00">asm/Z2AudioLib/Z2SeMgr</text>
<text text-anchor="middle" x="2649.5" y="-181" font-family="Helvetica,sans-Serif" font-size="10.00">/menuInSe__7Z2SeMgrFv.s</text>
</a>
</g>
</g>
<!-- Node1&#45;&gt;Node21 -->
<g id="edge26" class="edge">
<title>Node1&#45;&gt;Node21</title>
<path fill="none" stroke="midnightblue" d="M2242.2,-249.93C2323.06,-243.58 2457.35,-230.92 2571.5,-210 2577.23,-208.95 2583.15,-207.71 2589.06,-206.38"/>
<polygon fill="midnightblue" stroke="midnightblue" points="2590.02,-209.75 2598.96,-204.05 2588.42,-202.93 2590.02,-209.75"/>
</g>
<!-- Node22 -->
<g id="node22" class="node">
<title>Node22</title>
<g id="a_node22"><a xlink:title=" ">
<polygon fill="white" stroke="#bfbfbf" points="2737,-174 2737,-204 2934,-204 2934,-174 2737,-174"/>
<text text-anchor="start" x="2745" y="-192" font-family="Helvetica,sans-Serif" font-size="10.00">asm/Z2AudioLib/Z2SeMgr</text>
<text text-anchor="middle" x="2835.5" y="-181" font-family="Helvetica,sans-Serif" font-size="10.00">/setLevObjSE__7Z2SeMgrFUlP3VecSc.s</text>
</a>
</g>
</g>
<!-- Node1&#45;&gt;Node22 -->
<g id="edge27" class="edge">
<title>Node1&#45;&gt;Node22</title>
<path fill="none" stroke="midnightblue" d="M2242.43,-251.51C2349.23,-245.86 2554.32,-232.96 2727.5,-210 2736.69,-208.78 2746.28,-207.31 2755.8,-205.71"/>
<polygon fill="midnightblue" stroke="midnightblue" points="2756.4,-209.16 2765.66,-204.02 2755.21,-202.26 2756.4,-209.16"/>
</g>
<!-- Node23 -->
<g id="node23" class="node">
<title>Node23</title>
<g id="a_node23"><a xlink:title=" ">
<polygon fill="white" stroke="#bfbfbf" points="2952.5,-168.5 2952.5,-209.5 3104.5,-209.5 3104.5,-168.5 2952.5,-168.5"/>
<text text-anchor="start" x="2960.5" y="-197.5" font-family="Helvetica,sans-Serif" font-size="10.00">asm/Z2AudioLib/Z2SeMgr</text>
<text text-anchor="start" x="2960.5" y="-186.5" font-family="Helvetica,sans-Serif" font-size="10.00">/setMultiTriggerSE__7Z2SeMgr</text>
<text text-anchor="middle" x="3028.5" y="-175.5" font-family="Helvetica,sans-Serif" font-size="10.00">FUlP3VecSc.s</text>
</a>
</g>
</g>
<!-- Node1&#45;&gt;Node23 -->
<g id="edge28" class="edge">
<title>Node1&#45;&gt;Node23</title>
<path fill="none" stroke="midnightblue" d="M2242.22,-254.95C2378.11,-253.95 2679.81,-247.43 2942.07,-210.08"/>
<polygon fill="midnightblue" stroke="midnightblue" points="2942.77,-213.51 2952.16,-208.62 2941.77,-206.58 2942.77,-213.51"/>
</g>
<!-- Node24 -->
<g id="node24" class="node">
<title>Node24</title>
<g id="a_node24"><a xlink:title=" ">
<polygon fill="white" stroke="#bfbfbf" points="3123,-174 3123,-204 3312,-204 3312,-174 3123,-174"/>
<text text-anchor="start" x="3131" y="-192" font-family="Helvetica,sans-Serif" font-size="10.00">asm/Z2AudioLib/Z2SeMgr</text>
<text text-anchor="middle" x="3217.5" y="-181" font-family="Helvetica,sans-Serif" font-size="10.00">/processSeFramework__7Z2SeMgrFv.s</text>
</a>
</g>
</g>
<!-- Node1&#45;&gt;Node24 -->
<g id="edge29" class="edge">
<title>Node1&#45;&gt;Node24</title>
<path fill="none" stroke="midnightblue" d="M2242.03,-255.05C2400.66,-254.4 2790.11,-248.6 3113.5,-210 3122.85,-208.88 3132.62,-207.41 3142.27,-205.78"/>
<polygon fill="midnightblue" stroke="midnightblue" points="3143.02,-209.2 3152.26,-204.02 3141.8,-202.3 3143.02,-209.2"/>
</g>
<!-- Node25 -->
<g id="node25" class="node">
<title>Node25</title>
<g id="a_node25"><a xlink:title=" ">
<polygon fill="white" stroke="#bfbfbf" points="3330,-174 3330,-204 3525,-204 3525,-174 3330,-174"/>
<text text-anchor="start" x="3338" y="-192" font-family="Helvetica,sans-Serif" font-size="10.00">asm/Z2AudioLib/Z2SeMgr</text>
<text text-anchor="middle" x="3427.5" y="-181" font-family="Helvetica,sans-Serif" font-size="10.00">/isLevelSe__7Z2SeMgrF10JAISoundID.s</text>
</a>
</g>
</g>
<!-- Node1&#45;&gt;Node25 -->
<g id="edge30" class="edge">
<title>Node1&#45;&gt;Node25</title>
<path fill="none" stroke="midnightblue" d="M2242.37,-253.56C2461.31,-249.01 3111.06,-233.83 3321.5,-210 3331.2,-208.9 3341.34,-207.42 3351.35,-205.76"/>
<polygon fill="midnightblue" stroke="midnightblue" points="3352.03,-209.19 3361.29,-204.05 3350.84,-202.3 3352.03,-209.19"/>
</g>
<!-- Node26 -->
<g id="node26" class="node">
<title>Node26</title>
<g id="a_node26"><a xlink:title=" ">
<polygon fill="white" stroke="#bfbfbf" points="3543.5,-168.5 3543.5,-209.5 3699.5,-209.5 3699.5,-168.5 3543.5,-168.5"/>
<text text-anchor="start" x="3551.5" y="-197.5" font-family="Helvetica,sans-Serif" font-size="10.00">asm/Z2AudioLib/Z2SeMgr</text>
<text text-anchor="start" x="3551.5" y="-186.5" font-family="Helvetica,sans-Serif" font-size="10.00">/isSoundCulling__7Z2SeMgrF10</text>
<text text-anchor="middle" x="3621.5" y="-175.5" font-family="Helvetica,sans-Serif" font-size="10.00">JAISoundID.s</text>
</a>
</g>
</g>
<!-- Node1&#45;&gt;Node26 -->
<g id="edge31" class="edge">
<title>Node1&#45;&gt;Node26</title>
<path fill="none" stroke="midnightblue" d="M2242.16,-254.45C2483.96,-252.35 3261.08,-243.22 3533.13,-210"/>
<polygon fill="midnightblue" stroke="midnightblue" points="3533.89,-213.43 3543.37,-208.71 3533.01,-206.49 3533.89,-213.43"/>
</g>
<!-- Node27 -->
<g id="node27" class="node">
<title>Node27</title>
<g id="a_node27"><a xlink:title=" ">
<polygon fill="white" stroke="#bfbfbf" points="3718,-168.5 3718,-209.5 3865,-209.5 3865,-168.5 3718,-168.5"/>
<text text-anchor="start" x="3726" y="-197.5" font-family="Helvetica,sans-Serif" font-size="10.00">asm/Z2AudioLib/Z2SeMgr</text>
<text text-anchor="start" x="3726" y="-186.5" font-family="Helvetica,sans-Serif" font-size="10.00">/registMultiSePos__12Z2Multi</text>
<text text-anchor="middle" x="3791.5" y="-175.5" font-family="Helvetica,sans-Serif" font-size="10.00">SeMgrFP3Vec.s</text>
</a>
</g>
</g>
<!-- Node1&#45;&gt;Node27 -->
<g id="edge32" class="edge">
<title>Node1&#45;&gt;Node27</title>
<path fill="none" stroke="midnightblue" d="M2242.07,-254.87C2503.77,-254.1 3399.28,-248.71 3707.61,-209.91"/>
<polygon fill="midnightblue" stroke="midnightblue" points="3708.42,-213.34 3717.88,-208.58 3707.52,-206.39 3708.42,-213.34"/>
</g>
<!-- Node28 -->
<g id="node28" class="node">
<title>Node28</title>
<g id="a_node28"><a xlink:title=" ">
<polygon fill="white" stroke="#bfbfbf" points="3883,-174 3883,-204 4062,-204 4062,-174 3883,-174"/>
<text text-anchor="start" x="3891" y="-192" font-family="Helvetica,sans-Serif" font-size="10.00">asm/Z2AudioLib/Z2SeMgr</text>
<text text-anchor="middle" x="3972.5" y="-181" font-family="Helvetica,sans-Serif" font-size="10.00">/getPanPower__12Z2MultiSeMgrFv.s</text>
</a>
</g>
</g>
<!-- Node1&#45;&gt;Node28 -->
<g id="edge33" class="edge">
<title>Node1&#45;&gt;Node28</title>
<path fill="none" stroke="midnightblue" d="M2242.45,-254.77C2525.46,-253.63 3551.07,-246.98 3874.5,-210 3883.5,-208.97 3892.89,-207.53 3902.15,-205.89"/>
<polygon fill="midnightblue" stroke="midnightblue" points="3902.93,-209.31 3912.12,-204.04 3901.65,-202.43 3902.93,-209.31"/>
</g>
<!-- Node29 -->
<g id="node29" class="node">
<title>Node29</title>
<g id="a_node29"><a xlink:title=" ">
<polygon fill="white" stroke="#bfbfbf" points="4080,-174 4080,-204 4265,-204 4265,-174 4080,-174"/>
<text text-anchor="start" x="4088" y="-192" font-family="Helvetica,sans-Serif" font-size="10.00">asm/Z2AudioLib/Z2SeMgr</text>
<text text-anchor="middle" x="4172.5" y="-181" font-family="Helvetica,sans-Serif" font-size="10.00">/getDolbyPower__12Z2MultiSeMgrFv.s</text>
</a>
</g>
</g>
<!-- Node1&#45;&gt;Node29 -->
<g id="edge34" class="edge">
<title>Node1&#45;&gt;Node29</title>
<path fill="none" stroke="midnightblue" d="M2242.21,-254.95C2545.02,-254.49 3707.17,-250.08 4071.5,-210 4080.93,-208.96 4090.79,-207.5 4100.5,-205.82"/>
<polygon fill="midnightblue" stroke="midnightblue" points="4101.31,-209.23 4110.53,-204.01 4100.07,-202.34 4101.31,-209.23"/>
</g>
<!-- Node3 -->
<g id="node3" class="node">
<title>Node3</title>
<g id="a_node3"><a xlink:href="JAISound_8h.html" target="_top" xlink:title=" ">
<polygon fill="white" stroke="black" points="169.5,-112.5 169.5,-131.5 315.5,-131.5 315.5,-112.5 169.5,-112.5"/>
<text text-anchor="middle" x="242.5" y="-119.5" font-family="Helvetica,sans-Serif" font-size="10.00">JSystem/JAudio2/JAISound.h</text>
</a>
</g>
</g>
<!-- Node2&#45;&gt;Node3 -->
<g id="edge2" class="edge">
<title>Node2&#45;&gt;Node3</title>
<path fill="none" stroke="midnightblue" d="M415.94,-179.37C380.58,-167.88 317.91,-147.51 278.37,-134.66"/>
<polygon fill="midnightblue" stroke="midnightblue" points="279.44,-131.33 268.85,-131.56 277.28,-137.98 279.44,-131.33"/>
</g>
<!-- Node2&#45;&gt;Node5 -->
<g id="edge12" class="edge">
<title>Node2&#45;&gt;Node5</title>
<path fill="none" stroke="midnightblue" d="M440.14,-179.29C434.07,-157.6 416.67,-99.76 392.5,-56 386.95,-45.95 379.35,-35.66 372.74,-27.47"/>
<polygon fill="midnightblue" stroke="midnightblue" points="375.43,-25.23 366.34,-19.78 370.05,-29.71 375.43,-25.23"/>
</g>
<!-- Node8 -->
<g id="node8" class="node">
<title>Node8</title>
<g id="a_node8"><a xlink:href="vec_8h.html" target="_top" xlink:title=" ">
<polygon fill="white" stroke="black" points="439.5,-112.5 439.5,-131.5 531.5,-131.5 531.5,-112.5 439.5,-112.5"/>
<text text-anchor="middle" x="485.5" y="-119.5" font-family="Helvetica,sans-Serif" font-size="10.00">dolphin/mtx/vec.h</text>
</a>
</g>
</g>
<!-- Node2&#45;&gt;Node8 -->
<g id="edge10" class="edge">
<title>Node2&#45;&gt;Node8</title>
<path fill="none" stroke="midnightblue" d="M448.3,-179.23C454.88,-169.29 465.76,-152.84 474.06,-140.29"/>
<polygon fill="midnightblue" stroke="midnightblue" points="477.19,-141.9 479.79,-131.63 471.36,-138.04 477.19,-141.9"/>
</g>
<!-- Node4 -->
<g id="node4" class="node">
<title>Node4</title>
<g id="a_node4"><a xlink:href="JGeometry_8h.html" target="_top" xlink:title=" ">
<polygon fill="white" stroke="black" points="0,-56.5 0,-75.5 113,-75.5 113,-56.5 0,-56.5"/>
<text text-anchor="middle" x="56.5" y="-63.5" font-family="Helvetica,sans-Serif" font-size="10.00">JSystem/JGeometry.h</text>
</a>
</g>
</g>
<!-- Node3&#45;&gt;Node4 -->
<g id="edge3" class="edge">
<title>Node3&#45;&gt;Node4</title>
<path fill="none" stroke="midnightblue" d="M213.03,-112.44C181.33,-103.24 130.77,-88.56 95.73,-78.39"/>
<polygon fill="midnightblue" stroke="midnightblue" points="96.41,-74.94 85.83,-75.52 94.46,-81.67 96.41,-74.94"/>
</g>
<!-- Node3&#45;&gt;Node5 -->
<g id="edge7" class="edge">
<title>Node3&#45;&gt;Node5</title>
<path fill="none" stroke="midnightblue" d="M215.51,-112.49C184.72,-101.37 141.01,-80.42 160.5,-56 178.59,-33.34 255.21,-21.22 307.66,-15.45"/>
<polygon fill="midnightblue" stroke="midnightblue" points="308.22,-18.91 317.8,-14.38 307.49,-11.95 308.22,-18.91"/>
</g>
<!-- Node6 -->
<g id="node6" class="node">
<title>Node6</title>
<g id="a_node6"><a xlink:href="JUTAssert_8h.html" target="_top" xlink:title=" ">
<polygon fill="white" stroke="black" points="169.5,-56.5 169.5,-75.5 315.5,-75.5 315.5,-56.5 169.5,-56.5"/>
<text text-anchor="middle" x="242.5" y="-63.5" font-family="Helvetica,sans-Serif" font-size="10.00">JSystem/JUtility/JUTAssert.h</text>
</a>
</g>
</g>
<!-- Node3&#45;&gt;Node6 -->
<g id="edge5" class="edge">
<title>Node3&#45;&gt;Node6</title>
<path fill="none" stroke="midnightblue" d="M242.5,-112.08C242.5,-105.01 242.5,-94.86 242.5,-85.99"/>
<polygon fill="midnightblue" stroke="midnightblue" points="246,-85.75 242.5,-75.75 239,-85.75 246,-85.75"/>
</g>
<!-- Node7 -->
<g id="node7" class="node">
<title>Node7</title>
<g id="a_node7"><a xlink:href="global_8h.html" target="_top" xlink:title=" ">
<polygon fill="white" stroke="black" points="333.5,-56.5 333.5,-75.5 383.5,-75.5 383.5,-56.5 333.5,-56.5"/>
<text text-anchor="middle" x="358.5" y="-63.5" font-family="Helvetica,sans-Serif" font-size="10.00">global.h</text>
</a>
</g>
</g>
<!-- Node3&#45;&gt;Node7 -->
<g id="edge8" class="edge">
<title>Node3&#45;&gt;Node7</title>
<path fill="none" stroke="midnightblue" d="M260.88,-112.44C279.72,-103.68 309.23,-89.94 330.88,-79.86"/>
<polygon fill="midnightblue" stroke="midnightblue" points="332.62,-82.91 340.21,-75.52 329.66,-76.56 332.62,-82.91"/>
</g>
<!-- Node4&#45;&gt;Node5 -->
<g id="edge4" class="edge">
<title>Node4&#45;&gt;Node5</title>
<path fill="none" stroke="midnightblue" d="M104.35,-56.44C159.78,-46.53 250.73,-30.27 307.47,-20.12"/>
<polygon fill="midnightblue" stroke="midnightblue" points="308.42,-23.51 317.65,-18.3 307.19,-16.62 308.42,-23.51"/>
</g>
<!-- Node6&#45;&gt;Node5 -->
<g id="edge6" class="edge">
<title>Node6&#45;&gt;Node5</title>
<path fill="none" stroke="midnightblue" d="M260.88,-56.44C279.72,-47.68 309.23,-33.94 330.88,-23.86"/>
<polygon fill="midnightblue" stroke="midnightblue" points="332.62,-26.91 340.21,-19.52 329.66,-20.56 332.62,-26.91"/>
</g>
<!-- Node7&#45;&gt;Node5 -->
<g id="edge9" class="edge">
<title>Node7&#45;&gt;Node5</title>
<path fill="none" stroke="midnightblue" d="M358.5,-56.08C358.5,-49.01 358.5,-38.86 358.5,-29.99"/>
<polygon fill="midnightblue" stroke="midnightblue" points="362,-29.75 358.5,-19.75 355,-29.75 362,-29.75"/>
</g>
<!-- Node8&#45;&gt;Node5 -->
<g id="edge11" class="edge">
<title>Node8&#45;&gt;Node5</title>
<path fill="none" stroke="midnightblue" d="M478.68,-112.4C468.1,-99.37 446.73,-74.19 425.5,-56 411.93,-44.37 395.24,-33.16 381.92,-24.83"/>
<polygon fill="midnightblue" stroke="midnightblue" points="383.67,-21.8 373.31,-19.56 380.01,-27.77 383.67,-21.8"/>
</g>
</g>
</svg>
