<?xml version="1.0" encoding="UTF-8" standalone="no"?>
<!DOCTYPE svg PUBLIC "-//W3C//DTD SVG 1.1//EN"
 "http://www.w3.org/Graphics/SVG/1.1/DTD/svg11.dtd">
<!-- Generated by graphviz version 2.44.0 ()
 -->
<!-- Title: include/Z2AudioLib/Z2SeqMgr.h Pages: 1 -->
<svg width="542pt" height="162pt"
 viewBox="0.00 0.00 542.00 162.00" xmlns="http://www.w3.org/2000/svg" xmlns:xlink="http://www.w3.org/1999/xlink">
<g id="graph0" class="graph" transform="scale(1 1) rotate(0) translate(4 158)">
<title>include/Z2AudioLib/Z2SeqMgr.h</title>
<polygon fill="white" stroke="transparent" points="-4,4 -4,-158 538,-158 538,4 -4,4"/>
<!-- Node1 -->
<g id="node1" class="node">
<title>Node1</title>
<g id="a_node1"><a xlink:title=" ">
<polygon fill="#bfbfbf" stroke="black" points="189,-123.5 189,-153.5 289,-153.5 289,-123.5 189,-123.5"/>
<text text-anchor="start" x="197" y="-141.5" font-family="Helvetica,sans-Serif" font-size="10.00">include/Z2AudioLib</text>
<text text-anchor="middle" x="239" y="-130.5" font-family="Helvetica,sans-Serif" font-size="10.00">/Z2SeqMgr.h</text>
</a>
</g>
</g>
<!-- Node2 -->
<g id="node2" class="node">
<title>Node2</title>
<g id="a_node2"><a xlink:href="Z2SeqMgr_8cpp.html" target="_top" xlink:title=" ">
<polygon fill="white" stroke="black" points="0,-62 0,-81 150,-81 150,-62 0,-62"/>
<text text-anchor="middle" x="75" y="-69" font-family="Helvetica,sans-Serif" font-size="10.00">libs/Z2AudioLib/Z2SeqMgr.cpp</text>
</a>
</g>
</g>
<!-- Node1&#45;&gt;Node2 -->
<g id="edge1" class="edge">
<title>Node1&#45;&gt;Node2</title>
<path fill="none" stroke="midnightblue" d="M193.89,-119.62C162.15,-107.04 121.09,-90.77 96.46,-81.01"/>
<polygon fill="midnightblue" stroke="midnightblue" points="192.83,-122.97 203.41,-123.4 195.41,-116.46 192.83,-122.97"/>
</g>
<!-- Node3 -->
<g id="node3" class="node">
<title>Node3</title>
<g id="a_node3"><a xlink:href="Z2SoundObjMgr_8cpp.html" target="_top" xlink:title=" ">
<polygon fill="white" stroke="black" points="168.5,-56.5 168.5,-86.5 309.5,-86.5 309.5,-56.5 168.5,-56.5"/>
<text text-anchor="start" x="176.5" y="-74.5" font-family="Helvetica,sans-Serif" font-size="10.00">libs/Z2AudioLib/Z2SoundObj</text>
<text text-anchor="middle" x="239" y="-63.5" font-family="Helvetica,sans-Serif" font-size="10.00">Mgr.cpp</text>
</a>
</g>
</g>
<!-- Node1&#45;&gt;Node3 -->
<g id="edge2" class="edge">
<title>Node1&#45;&gt;Node3</title>
<path fill="none" stroke="midnightblue" d="M239,-113.11C239,-104.15 239,-94.32 239,-86.58"/>
<polygon fill="midnightblue" stroke="midnightblue" points="235.5,-113.4 239,-123.4 242.5,-113.4 235.5,-113.4"/>
</g>
<!-- Node4 -->
<g id="node4" class="node">
<title>Node4</title>
<g id="a_node4"><a xlink:href="Z2AudioMgr_8h.html" target="_top" xlink:title=" ">
<polygon fill="white" stroke="black" points="328,-56.5 328,-86.5 428,-86.5 428,-56.5 328,-56.5"/>
<text text-anchor="start" x="336" y="-74.5" font-family="Helvetica,sans-Serif" font-size="10.00">include/Z2AudioLib</text>
<text text-anchor="middle" x="378" y="-63.5" font-family="Helvetica,sans-Serif" font-size="10.00">/Z2AudioMgr.h</text>
</a>
</g>
</g>
<!-- Node1&#45;&gt;Node4 -->
<g id="edge3" class="edge">
<title>Node1&#45;&gt;Node4</title>
<path fill="none" stroke="midnightblue" d="M278.28,-119.13C300.37,-108.8 327.51,-96.11 347.9,-86.58"/>
<polygon fill="midnightblue" stroke="midnightblue" points="276.74,-115.99 269.16,-123.4 279.7,-122.33 276.74,-115.99"/>
</g>
<!-- Node5 -->
<g id="node5" class="node">
<title>Node5</title>
<g id="a_node5"><a xlink:href="d__save_8cpp.html" target="_top" xlink:title=" ">
<polygon fill="white" stroke="black" points="243.5,-0.5 243.5,-19.5 358.5,-19.5 358.5,-0.5 243.5,-0.5"/>
<text text-anchor="middle" x="301" y="-7.5" font-family="Helvetica,sans-Serif" font-size="10.00">src/d/save/d_save.cpp</text>
</a>
</g>
</g>
<!-- Node4&#45;&gt;Node5 -->
<g id="edge4" class="edge">
<title>Node4&#45;&gt;Node5</title>
<path fill="none" stroke="midnightblue" d="M351.71,-50.19C338.23,-39.77 322.52,-27.63 312.2,-19.66"/>
<polygon fill="midnightblue" stroke="midnightblue" points="349.7,-53.05 359.75,-56.4 353.98,-47.52 349.7,-53.05"/>
</g>
<!-- Node6 -->
<g id="node6" class="node">
<title>Node6</title>
<g id="a_node6"><a xlink:href="Z2AudioMgr_8cpp.html" target="_top" xlink:title=" ">
<polygon fill="white" stroke="black" points="376,-0.5 376,-19.5 534,-19.5 534,-0.5 376,-0.5"/>
<text text-anchor="middle" x="455" y="-7.5" font-family="Helvetica,sans-Serif" font-size="10.00">libs/Z2AudioLib/Z2AudioMgr.cpp</text>
</a>
</g>
</g>
<!-- Node4&#45;&gt;Node6 -->
<g id="edge5" class="edge">
<title>Node4&#45;&gt;Node6</title>
<path fill="none" stroke="midnightblue" d="M404.29,-50.19C417.77,-39.77 433.48,-27.63 443.8,-19.66"/>
<polygon fill="midnightblue" stroke="midnightblue" points="402.02,-47.52 396.25,-56.4 406.3,-53.05 402.02,-47.52"/>
</g>
</g>
</svg>
