<?xml version="1.0" encoding="UTF-8" standalone="no"?>
<!DOCTYPE svg PUBLIC "-//W3C//DTD SVG 1.1//EN"
 "http://www.w3.org/Graphics/SVG/1.1/DTD/svg11.dtd">
<!-- Generated by graphviz version 2.44.0 ()
 -->
<!-- Title: include/Z2AudioLib/Z2SoundStarter.h Pages: 1 -->
<!--zoomable 441 -->
<svg id="main" version="1.1" xmlns="http://www.w3.org/2000/svg" xmlns:xlink="http://www.w3.org/1999/xlink" xml:space="preserve" onload="init(evt)">
<style type="text/css"><![CDATA[
.edge:hover path { stroke: red; }
.edge:hover polygon { stroke: red; fill: red; }
]]></style>
<script type="text/javascript"><![CDATA[
var edges = document.getElementsByTagName('g');
if (edges && edges.length) {
  for (var i=0;i<edges.length;i++) {
    if (edges[i].id.substr(0,4)=='edge') {
      edges[i].setAttribute('class','edge');
    }
  }
}
]]></script>
        <defs>
                <circle id="rim" cx="0" cy="0" r="7"/>
                <circle id="rim2" cx="0" cy="0" r="3.5"/>
                <g id="zoomPlus">
                        <use xlink:href="#rim" fill="#404040">
                                <set attributeName="fill" to="#808080" begin="zoomplus.mouseover" end="zoomplus.mouseout"/>
                        </use>
                        <path d="M-4,0h8M0,-4v8" fill="none" stroke="white" stroke-width="1.5" pointer-events="none"/>
                </g>
                <g id="zoomMin">
                        <use xlink:href="#rim" fill="#404040">
                                <set attributeName="fill" to="#808080" begin="zoomminus.mouseover" end="zoomminus.mouseout"/>
                        </use>
                        <path d="M-4,0h8" fill="none" stroke="white" stroke-width="1.5" pointer-events="none"/>
                </g>
                <g id="dirArrow">
                        <path fill="none" stroke="white" stroke-width="1.5" d="M0,-3.0v7 M-2.5,-0.5L0,-3.0L2.5,-0.5"/>
                </g>
               <g id="resetDef">
                       <use xlink:href="#rim2" fill="#404040">
                               <set attributeName="fill" to="#808080" begin="reset.mouseover" end="reset.mouseout"/>
                       </use>
               </g>
        </defs>

<script type="text/javascript">
var viewWidth = 2049;
var viewHeight = 441;
var sectionId = 'dynsection-1';
</script>
<script xlink:href="svgpan.js"/>
<svg id="graph" class="graph">
<g id="viewport">
<title>include/Z2AudioLib/Z2SoundStarter.h</title>
<polygon fill="white" stroke="transparent" points="-4,4 -4,-437 2044.5,-437 2044.5,4 -4,4"/>
<!-- Node1 -->
<g id="node1" class="node">
<title>Node1</title>
<g id="a_node1"><a xlink:title=" ">
<polygon fill="#bfbfbf" stroke="black" points="290,-402.5 290,-432.5 390,-432.5 390,-402.5 290,-402.5"/>
<text text-anchor="start" x="298" y="-420.5" font-family="Helvetica,sans-Serif" font-size="10.00">include/Z2AudioLib</text>
<text text-anchor="middle" x="340" y="-409.5" font-family="Helvetica,sans-Serif" font-size="10.00">/Z2SoundStarter.h</text>
</a>
</g>
</g>
<!-- Node2 -->
<g id="node2" class="node">
<title>Node2</title>
<g id="a_node2"><a xlink:href="Z2SoundStarter_8cpp.html" target="_top" xlink:title=" ">
<polygon fill="white" stroke="black" points="138.5,-341 138.5,-360 311.5,-360 311.5,-341 138.5,-341"/>
<text text-anchor="middle" x="225" y="-348" font-family="Helvetica,sans-Serif" font-size="10.00">libs/Z2AudioLib/Z2SoundStarter.cpp</text>
</a>
</g>
</g>
<!-- Node1&#45;&gt;Node2 -->
<g id="edge1" class="edge">
<title>Node1&#45;&gt;Node2</title>
<path fill="none" stroke="midnightblue" d="M306.34,-397.47C284.38,-385.06 256.8,-369.47 240.05,-360.01"/>
<polygon fill="midnightblue" stroke="midnightblue" points="304.62,-400.52 315.05,-402.4 308.06,-394.43 304.62,-400.52"/>
</g>
<!-- Node3 -->
<g id="node3" class="node">
<title>Node3</title>
<g id="a_node3"><a xlink:href="Z2AudioMgr_8h.html" target="_top" xlink:title=" ">
<polygon fill="white" stroke="black" points="219,-134.5 219,-164.5 319,-164.5 319,-134.5 219,-134.5"/>
<text text-anchor="start" x="227" y="-152.5" font-family="Helvetica,sans-Serif" font-size="10.00">include/Z2AudioLib</text>
<text text-anchor="middle" x="269" y="-141.5" font-family="Helvetica,sans-Serif" font-size="10.00">/Z2AudioMgr.h</text>
</a>
</g>
</g>
<!-- Node1&#45;&gt;Node3 -->
<g id="edge2" class="edge">
<title>Node1&#45;&gt;Node3</title>
<path fill="none" stroke="midnightblue" d="M334.32,-392.56C330.41,-376.29 325.04,-354.31 320,-335 303.39,-271.33 281.97,-195.78 273.11,-164.82"/>
<polygon fill="midnightblue" stroke="midnightblue" points="330.93,-393.42 336.66,-402.33 337.73,-391.79 330.93,-393.42"/>
</g>
<!-- Node6 -->
<g id="node6" class="node">
<title>Node6</title>
<g id="a_node6"><a xlink:href="Z2SoundObject_8h.html" target="_top" xlink:title=" ">
<polygon fill="white" stroke="black" points="758,-335.5 758,-365.5 858,-365.5 858,-335.5 758,-335.5"/>
<text text-anchor="start" x="766" y="-353.5" font-family="Helvetica,sans-Serif" font-size="10.00">include/Z2AudioLib</text>
<text text-anchor="middle" x="808" y="-342.5" font-family="Helvetica,sans-Serif" font-size="10.00">/Z2SoundObject.h</text>
</a>
</g>
</g>
<!-- Node1&#45;&gt;Node6 -->
<g id="edge5" class="edge">
<title>Node1&#45;&gt;Node6</title>
<path fill="none" stroke="midnightblue" d="M400.21,-408.14C493.5,-395.18 671.22,-370.5 757.92,-358.46"/>
<polygon fill="midnightblue" stroke="midnightblue" points="399.51,-404.7 390.08,-409.54 400.47,-411.63 399.51,-404.7"/>
</g>
<!-- Node4 -->
<g id="node4" class="node">
<title>Node4</title>
<g id="a_node4"><a xlink:href="d__save_8cpp.html" target="_top" xlink:title=" ">
<polygon fill="white" stroke="black" points="175.5,-73 175.5,-92 290.5,-92 290.5,-73 175.5,-73"/>
<text text-anchor="middle" x="233" y="-80" font-family="Helvetica,sans-Serif" font-size="10.00">src/d/save/d_save.cpp</text>
</a>
</g>
</g>
<!-- Node3&#45;&gt;Node4 -->
<g id="edge3" class="edge">
<title>Node3&#45;&gt;Node4</title>
<path fill="none" stroke="midnightblue" d="M256.33,-125.63C249.93,-114.07 242.53,-100.71 237.82,-92.19"/>
<polygon fill="midnightblue" stroke="midnightblue" points="253.28,-127.34 261.19,-134.4 259.41,-123.95 253.28,-127.34"/>
</g>
<!-- Node5 -->
<g id="node5" class="node">
<title>Node5</title>
<g id="a_node5"><a xlink:href="Z2AudioMgr_8cpp.html" target="_top" xlink:title=" ">
<polygon fill="white" stroke="black" points="0,-73 0,-92 158,-92 158,-73 0,-73"/>
<text text-anchor="middle" x="79" y="-80" font-family="Helvetica,sans-Serif" font-size="10.00">libs/Z2AudioLib/Z2AudioMgr.cpp</text>
</a>
</g>
</g>
<!-- Node3&#45;&gt;Node5 -->
<g id="edge4" class="edge">
<title>Node3&#45;&gt;Node5</title>
<path fill="none" stroke="midnightblue" d="M218.16,-131.11C181.2,-118.46 132.76,-101.89 103.87,-92.01"/>
<polygon fill="midnightblue" stroke="midnightblue" points="217.18,-134.47 227.77,-134.4 219.44,-127.85 217.18,-134.47"/>
</g>
<!-- Node7 -->
<g id="node7" class="node">
<title>Node7</title>
<g id="a_node7"><a xlink:href="Z2SoundObject_8cpp.html" target="_top" xlink:title=" ">
<polygon fill="white" stroke="black" points="1063.5,-274 1063.5,-293 1236.5,-293 1236.5,-274 1063.5,-274"/>
<text text-anchor="middle" x="1150" y="-281" font-family="Helvetica,sans-Serif" font-size="10.00">libs/Z2AudioLib/Z2SoundObject.cpp</text>
</a>
</g>
</g>
<!-- Node6&#45;&gt;Node7 -->
<g id="edge6" class="edge">
<title>Node6&#45;&gt;Node7</title>
<path fill="none" stroke="midnightblue" d="M868.2,-338.06C935.97,-325.18 1044.53,-304.55 1105.22,-293.01"/>
<polygon fill="midnightblue" stroke="midnightblue" points="867.27,-334.67 858.1,-339.98 868.57,-341.55 867.27,-334.67"/>
</g>
<!-- Node8 -->
<g id="node8" class="node">
<title>Node8</title>
<g id="a_node8"><a xlink:href="d__bomb_8h.html" target="_top" xlink:title=" ">
<polygon fill="white" stroke="black" points="556.5,-274 556.5,-293 657.5,-293 657.5,-274 556.5,-274"/>
<text text-anchor="middle" x="607" y="-281" font-family="Helvetica,sans-Serif" font-size="10.00">include/d/d_bomb.h</text>
</a>
</g>
</g>
<!-- Node6&#45;&gt;Node8 -->
<g id="edge7" class="edge">
<title>Node6&#45;&gt;Node8</title>
<path fill="none" stroke="midnightblue" d="M754.72,-332.27C715.55,-319.6 664,-302.93 633.31,-293.01"/>
<polygon fill="midnightblue" stroke="midnightblue" points="753.79,-335.65 764.39,-335.4 755.95,-328.99 753.79,-335.65"/>
</g>
<!-- Node10 -->
<g id="node10" class="node">
<title>Node10</title>
<g id="a_node10"><a xlink:href="Z2Creature_8h.html" target="_top" xlink:title=" ">
<polygon fill="white" stroke="black" points="758,-268.5 758,-298.5 858,-298.5 858,-268.5 758,-268.5"/>
<text text-anchor="start" x="766" y="-286.5" font-family="Helvetica,sans-Serif" font-size="10.00">include/Z2AudioLib</text>
<text text-anchor="middle" x="808" y="-275.5" font-family="Helvetica,sans-Serif" font-size="10.00">/Z2Creature.h</text>
</a>
</g>
</g>
<!-- Node6&#45;&gt;Node10 -->
<g id="edge9" class="edge">
<title>Node6&#45;&gt;Node10</title>
<path fill="none" stroke="midnightblue" d="M808,-325.11C808,-316.15 808,-306.32 808,-298.58"/>
<polygon fill="midnightblue" stroke="midnightblue" points="804.5,-325.4 808,-335.4 811.5,-325.4 804.5,-325.4"/>
</g>
<!-- Node34 -->
<g id="node34" class="node">
<title>Node34</title>
<g id="a_node34"><a xlink:href="Z2WolfHowlMgr_8h.html" target="_top" xlink:title=" ">
<polygon fill="white" stroke="black" points="945,-268.5 945,-298.5 1045,-298.5 1045,-268.5 945,-268.5"/>
<text text-anchor="start" x="953" y="-286.5" font-family="Helvetica,sans-Serif" font-size="10.00">include/Z2AudioLib</text>
<text text-anchor="middle" x="995" y="-275.5" font-family="Helvetica,sans-Serif" font-size="10.00">/Z2WolfHowlMgr.h</text>
</a>
</g>
</g>
<!-- Node6&#45;&gt;Node34 -->
<g id="edge37" class="edge">
<title>Node6&#45;&gt;Node34</title>
<path fill="none" stroke="midnightblue" d="M858.08,-332.09C888.27,-321.6 926.22,-308.41 954.5,-298.58"/>
<polygon fill="midnightblue" stroke="midnightblue" points="856.87,-328.81 848.58,-335.4 859.17,-335.42 856.87,-328.81"/>
</g>
<!-- Node9 -->
<g id="node9" class="node">
<title>Node9</title>
<g id="a_node9"><a xlink:href="d__bomb_8cpp.html" target="_top" xlink:title=" ">
<polygon fill="white" stroke="black" points="440,-207 440,-226 534,-226 534,-207 440,-207"/>
<text text-anchor="middle" x="487" y="-214" font-family="Helvetica,sans-Serif" font-size="10.00">src/d/d_bomb.cpp</text>
</a>
</g>
</g>
<!-- Node8&#45;&gt;Node9 -->
<g id="edge8" class="edge">
<title>Node8&#45;&gt;Node9</title>
<path fill="none" stroke="midnightblue" d="M582,-268.96C558.21,-256.07 523.13,-237.07 502.93,-226.13"/>
<polygon fill="midnightblue" stroke="midnightblue" points="580.36,-272.05 590.82,-273.73 583.69,-265.89 580.36,-272.05"/>
</g>
<!-- Node11 -->
<g id="node11" class="node">
<title>Node11</title>
<g id="a_node11"><a xlink:href="Z2Creature_8cpp.html" target="_top" xlink:title=" ">
<polygon fill="white" stroke="black" points="552.5,-207 552.5,-226 705.5,-226 705.5,-207 552.5,-207"/>
<text text-anchor="middle" x="629" y="-214" font-family="Helvetica,sans-Serif" font-size="10.00">libs/Z2AudioLib/Z2Creature.cpp</text>
</a>
</g>
</g>
<!-- Node10&#45;&gt;Node11 -->
<g id="edge10" class="edge">
<title>Node10&#45;&gt;Node11</title>
<path fill="none" stroke="midnightblue" d="M759.66,-264.95C724.89,-252.32 679.53,-235.85 652.43,-226.01"/>
<polygon fill="midnightblue" stroke="midnightblue" points="758.57,-268.27 769.16,-268.4 760.95,-261.69 758.57,-268.27"/>
</g>
<!-- Node12 -->
<g id="node12" class="node">
<title>Node12</title>
<g id="a_node12"><a xlink:href="d__a__alink_8h.html" target="_top" xlink:title=" ">
<polygon fill="white" stroke="black" points="972,-207 972,-226 1088,-226 1088,-207 972,-207"/>
<text text-anchor="middle" x="1030" y="-214" font-family="Helvetica,sans-Serif" font-size="10.00">include/d/a/d_a_alink.h</text>
</a>
</g>
</g>
<!-- Node10&#45;&gt;Node12 -->
<g id="edge11" class="edge">
<title>Node10&#45;&gt;Node12</title>
<path fill="none" stroke="midnightblue" d="M865.75,-265.59C909.11,-252.9 966.67,-236.04 1000.87,-226.03"/>
<polygon fill="midnightblue" stroke="midnightblue" points="864.51,-262.31 855.9,-268.48 866.48,-269.02 864.51,-262.31"/>
</g>
<!-- Node30 -->
<g id="node30" class="node">
<title>Node30</title>
<g id="a_node30"><a xlink:href="d__a__horse__static_8h.html" target="_top" xlink:title=" ">
<polygon fill="white" stroke="black" points="842,-201.5 842,-231.5 954,-231.5 954,-201.5 842,-201.5"/>
<text text-anchor="start" x="850" y="-219.5" font-family="Helvetica,sans-Serif" font-size="10.00">include/d/a/d_a_horse</text>
<text text-anchor="middle" x="898" y="-208.5" font-family="Helvetica,sans-Serif" font-size="10.00">_static.h</text>
</a>
</g>
</g>
<!-- Node10&#45;&gt;Node30 -->
<g id="edge32" class="edge">
<title>Node10&#45;&gt;Node30</title>
<path fill="none" stroke="midnightblue" d="M835.76,-262.45C849.61,-252.45 866.02,-240.6 878.51,-231.58"/>
<polygon fill="midnightblue" stroke="midnightblue" points="833.59,-259.7 827.53,-268.4 837.68,-265.38 833.59,-259.7"/>
</g>
<!-- Node32 -->
<g id="node32" class="node">
<title>Node32</title>
<g id="a_node32"><a xlink:href="Z2SoundObjMgr_8h.html" target="_top" xlink:title=" ">
<polygon fill="white" stroke="black" points="724,-201.5 724,-231.5 824,-231.5 824,-201.5 724,-201.5"/>
<text text-anchor="start" x="732" y="-219.5" font-family="Helvetica,sans-Serif" font-size="10.00">include/Z2AudioLib</text>
<text text-anchor="middle" x="774" y="-208.5" font-family="Helvetica,sans-Serif" font-size="10.00">/Z2SoundObjMgr.h</text>
</a>
</g>
</g>
<!-- Node10&#45;&gt;Node32 -->
<g id="edge34" class="edge">
<title>Node10&#45;&gt;Node32</title>
<path fill="none" stroke="midnightblue" d="M795.86,-259.28C791.01,-250.02 785.59,-239.66 781.36,-231.58"/>
<polygon fill="midnightblue" stroke="midnightblue" points="792.89,-261.16 800.62,-268.4 799.09,-257.91 792.89,-261.16"/>
</g>
<!-- Node13 -->
<g id="node13" class="node">
<title>Node13</title>
<g id="a_node13"><a xlink:href="d__a__alink_8cpp.html" target="_top" xlink:title=" ">
<polygon fill="white" stroke="black" points="1931.5,-73 1931.5,-92 2040.5,-92 2040.5,-73 1931.5,-73"/>
<text text-anchor="middle" x="1986" y="-80" font-family="Helvetica,sans-Serif" font-size="10.00">src/d/a/d_a_alink.cpp</text>
</a>
</g>
</g>
<!-- Node12&#45;&gt;Node13 -->
<g id="edge12" class="edge">
<title>Node12&#45;&gt;Node13</title>
<path fill="none" stroke="midnightblue" d="M1076.6,-204.88C1083.42,-203.48 1090.38,-202.14 1097,-201 1452.04,-139.95 1544.69,-151.19 1901,-98 1912.99,-96.21 1925.91,-94.1 1937.96,-92.05"/>
<polygon fill="midnightblue" stroke="midnightblue" points="1075.81,-201.47 1066.75,-206.95 1077.26,-208.32 1075.81,-201.47"/>
</g>
<!-- Node14 -->
<g id="node14" class="node">
<title>Node14</title>
<g id="a_node14"><a xlink:href="d__com__inf__game_8h.html" target="_top" xlink:title=" ">
<polygon fill="white" stroke="black" points="1023,-134.5 1023,-164.5 1133,-164.5 1133,-134.5 1023,-134.5"/>
<text text-anchor="start" x="1031" y="-152.5" font-family="Helvetica,sans-Serif" font-size="10.00">include/d/com/d_com</text>
<text text-anchor="middle" x="1078" y="-141.5" font-family="Helvetica,sans-Serif" font-size="10.00">_inf_game.h</text>
</a>
</g>
</g>
<!-- Node12&#45;&gt;Node14 -->
<g id="edge13" class="edge">
<title>Node12&#45;&gt;Node14</title>
<path fill="none" stroke="midnightblue" d="M1042.43,-198.67C1050.24,-188.09 1060.2,-174.6 1067.6,-164.59"/>
<polygon fill="midnightblue" stroke="midnightblue" points="1039.6,-196.61 1036.47,-206.73 1045.23,-200.77 1039.6,-196.61"/>
</g>
<!-- Node14&#45;&gt;Node4 -->
<g id="edge24" class="edge">
<title>Node14&#45;&gt;Node4</title>
<path fill="none" stroke="midnightblue" d="M1012.54,-136.18C1006.95,-135.36 1001.39,-134.61 996,-134 687.8,-98.93 606.41,-139.42 299,-98 288.42,-96.57 277.02,-94.33 266.72,-92.03"/>
<polygon fill="midnightblue" stroke="midnightblue" points="1012.14,-139.66 1022.56,-137.74 1013.21,-132.75 1012.14,-139.66"/>
</g>
<!-- Node14&#45;&gt;Node13 -->
<g id="edge16" class="edge">
<title>Node14&#45;&gt;Node13</title>
<path fill="none" stroke="midnightblue" d="M1143.49,-147.83C1285.2,-145.66 1630.58,-136.5 1917,-98 1927.92,-96.53 1939.69,-94.3 1950.36,-92.03"/>
<polygon fill="midnightblue" stroke="midnightblue" points="1143.19,-144.33 1133.24,-147.98 1143.29,-151.33 1143.19,-144.33"/>
</g>
<!-- Node15 -->
<g id="node15" class="node">
<title>Node15</title>
<g id="a_node15"><a xlink:href="d__a__player_8cpp.html" target="_top" xlink:title=" ">
<polygon fill="white" stroke="black" points="1761,-73 1761,-92 1875,-92 1875,-73 1761,-73"/>
<text text-anchor="middle" x="1818" y="-80" font-family="Helvetica,sans-Serif" font-size="10.00">src/d/a/d_a_player.cpp</text>
</a>
</g>
</g>
<!-- Node14&#45;&gt;Node15 -->
<g id="edge14" class="edge">
<title>Node14&#45;&gt;Node15</title>
<path fill="none" stroke="midnightblue" d="M1143.52,-146.67C1264.39,-142.61 1530.32,-130.49 1752,-98 1762.33,-96.49 1773.46,-94.27 1783.57,-92.03"/>
<polygon fill="midnightblue" stroke="midnightblue" points="1143.21,-143.18 1133.33,-147 1143.44,-150.17 1143.21,-143.18"/>
</g>
<!-- Node16 -->
<g id="node16" class="node">
<title>Node16</title>
<g id="a_node16"><a xlink:href="d__com__inf__game_8cpp.html" target="_top" xlink:title=" ">
<polygon fill="white" stroke="black" points="1803,-0.5 1803,-30.5 1911,-30.5 1911,-0.5 1803,-0.5"/>
<text text-anchor="start" x="1811" y="-18.5" font-family="Helvetica,sans-Serif" font-size="10.00">src/d/com/d_com_inf</text>
<text text-anchor="middle" x="1857" y="-7.5" font-family="Helvetica,sans-Serif" font-size="10.00">_game.cpp</text>
</a>
</g>
</g>
<!-- Node14&#45;&gt;Node16 -->
<g id="edge15" class="edge">
<title>Node14&#45;&gt;Node16</title>
<path fill="none" stroke="midnightblue" d="M1143.54,-146.81C1331.2,-141.67 1858.77,-124.86 1884,-98 1901.65,-79.2 1883.12,-48.59 1869.24,-30.72"/>
<polygon fill="midnightblue" stroke="midnightblue" points="1143.17,-143.32 1133.27,-147.09 1143.36,-150.32 1143.17,-143.32"/>
</g>
<!-- Node17 -->
<g id="node17" class="node">
<title>Node17</title>
<g id="a_node17"><a xlink:href="d__resorce_8cpp.html" target="_top" xlink:title=" ">
<polygon fill="white" stroke="black" points="308,-73 308,-92 410,-92 410,-73 308,-73"/>
<text text-anchor="middle" x="359" y="-80" font-family="Helvetica,sans-Serif" font-size="10.00">src/d/d_resorce.cpp</text>
</a>
</g>
</g>
<!-- Node14&#45;&gt;Node17 -->
<g id="edge17" class="edge">
<title>Node14&#45;&gt;Node17</title>
<path fill="none" stroke="midnightblue" d="M1012.81,-136.29C1007.13,-135.43 1001.47,-134.65 996,-134 740.86,-103.58 673.07,-136.32 419,-98 409.46,-96.56 399.22,-94.34 389.94,-92.07"/>
<polygon fill="midnightblue" stroke="midnightblue" points="1012.57,-139.79 1022.99,-137.89 1013.66,-132.88 1012.57,-139.79"/>
</g>
<!-- Node18 -->
<g id="node18" class="node">
<title>Node18</title>
<g id="a_node18"><a xlink:href="d__stage_8cpp.html" target="_top" xlink:title=" ">
<polygon fill="white" stroke="black" points="428,-73 428,-92 522,-92 522,-73 428,-73"/>
<text text-anchor="middle" x="475" y="-80" font-family="Helvetica,sans-Serif" font-size="10.00">src/d/d_stage.cpp</text>
</a>
</g>
</g>
<!-- Node14&#45;&gt;Node18 -->
<g id="edge18" class="edge">
<title>Node14&#45;&gt;Node18</title>
<path fill="none" stroke="midnightblue" d="M1012.8,-136.38C1007.13,-135.5 1001.47,-134.69 996,-134 790.36,-107.92 735.46,-132.11 531,-98 522.08,-96.51 512.52,-94.28 503.86,-92.01"/>
<polygon fill="midnightblue" stroke="midnightblue" points="1012.55,-139.88 1022.98,-138.01 1013.66,-132.97 1012.55,-139.88"/>
</g>
<!-- Node19 -->
<g id="node19" class="node">
<title>Node19</title>
<g id="a_node19"><a xlink:href="d__event_8cpp.html" target="_top" xlink:title=" ">
<polygon fill="white" stroke="black" points="540.5,-73 540.5,-92 661.5,-92 661.5,-73 540.5,-73"/>
<text text-anchor="middle" x="601" y="-80" font-family="Helvetica,sans-Serif" font-size="10.00">src/d/event/d_event.cpp</text>
</a>
</g>
</g>
<!-- Node14&#45;&gt;Node19 -->
<g id="edge19" class="edge">
<title>Node14&#45;&gt;Node19</title>
<path fill="none" stroke="midnightblue" d="M1012.77,-136.57C1007.11,-135.65 1001.46,-134.78 996,-134 851.71,-113.3 813.94,-121.02 670,-98 659.73,-96.36 648.67,-94.21 638.48,-92.07"/>
<polygon fill="midnightblue" stroke="midnightblue" points="1012.51,-140.07 1022.94,-138.26 1013.65,-133.17 1012.51,-140.07"/>
</g>
<!-- Node20 -->
<g id="node20" class="node">
<title>Node20</title>
<g id="a_node20"><a xlink:href="d__event__manager_8cpp.html" target="_top" xlink:title=" ">
<polygon fill="white" stroke="black" points="679.5,-67.5 679.5,-97.5 782.5,-97.5 782.5,-67.5 679.5,-67.5"/>
<text text-anchor="start" x="687.5" y="-85.5" font-family="Helvetica,sans-Serif" font-size="10.00">src/d/event/d_event</text>
<text text-anchor="middle" x="731" y="-74.5" font-family="Helvetica,sans-Serif" font-size="10.00">_manager.cpp</text>
</a>
</g>
</g>
<!-- Node14&#45;&gt;Node20 -->
<g id="edge20" class="edge">
<title>Node14&#45;&gt;Node20</title>
<path fill="none" stroke="midnightblue" d="M1012.71,-136.95C1007.06,-135.95 1001.43,-134.96 996,-134 905.34,-117.98 882.16,-116.65 792,-98 788.91,-97.36 785.74,-96.68 782.54,-95.98"/>
<polygon fill="midnightblue" stroke="midnightblue" points="1012.41,-140.45 1022.86,-138.75 1013.63,-133.56 1012.41,-140.45"/>
</g>
<!-- Node21 -->
<g id="node21" class="node">
<title>Node21</title>
<g id="a_node21"><a xlink:href="d__kankyo_8cpp.html" target="_top" xlink:title=" ">
<polygon fill="white" stroke="black" points="801,-73 801,-92 935,-92 935,-73 801,-73"/>
<text text-anchor="middle" x="868" y="-80" font-family="Helvetica,sans-Serif" font-size="10.00">src/d/kankyo/d_kankyo.cpp</text>
</a>
</g>
</g>
<!-- Node14&#45;&gt;Node21 -->
<g id="edge21" class="edge">
<title>Node14&#45;&gt;Node21</title>
<path fill="none" stroke="midnightblue" d="M1023.11,-131.51C982.13,-118.83 927.84,-102.02 895.55,-92.03"/>
<polygon fill="midnightblue" stroke="midnightblue" points="1022.1,-134.86 1032.69,-134.48 1024.17,-128.18 1022.1,-134.86"/>
</g>
<!-- Node22 -->
<g id="node22" class="node">
<title>Node22</title>
<g id="a_node22"><a xlink:href="d__meter2__info_8cpp.html" target="_top" xlink:title=" ">
<polygon fill="white" stroke="black" points="953,-67.5 953,-97.5 1063,-97.5 1063,-67.5 953,-67.5"/>
<text text-anchor="start" x="961" y="-85.5" font-family="Helvetica,sans-Serif" font-size="10.00">src/d/meter/d_meter2</text>
<text text-anchor="middle" x="1008" y="-74.5" font-family="Helvetica,sans-Serif" font-size="10.00">_info.cpp</text>
</a>
</g>
</g>
<!-- Node14&#45;&gt;Node22 -->
<g id="edge22" class="edge">
<title>Node14&#45;&gt;Node22</title>
<path fill="none" stroke="midnightblue" d="M1055.18,-127.31C1044.68,-117.56 1032.51,-106.26 1023.16,-97.58"/>
<polygon fill="midnightblue" stroke="midnightblue" points="1053.1,-130.16 1062.81,-134.4 1057.86,-125.03 1053.1,-130.16"/>
</g>
<!-- Node23 -->
<g id="node23" class="node">
<title>Node23</title>
<g id="a_node23"><a xlink:href="d__msg__flow_8cpp.html" target="_top" xlink:title=" ">
<polygon fill="white" stroke="black" points="1081.5,-73 1081.5,-92 1214.5,-92 1214.5,-73 1081.5,-73"/>
<text text-anchor="middle" x="1148" y="-80" font-family="Helvetica,sans-Serif" font-size="10.00">src/d/msg/d_msg_flow.cpp</text>
</a>
</g>
</g>
<!-- Node14&#45;&gt;Node23 -->
<g id="edge23" class="edge">
<title>Node14&#45;&gt;Node23</title>
<path fill="none" stroke="midnightblue" d="M1100.79,-127.34C1113.65,-115.4 1129.01,-101.14 1138.64,-92.19"/>
<polygon fill="midnightblue" stroke="midnightblue" points="1098.14,-125.03 1093.19,-134.4 1102.9,-130.16 1098.14,-125.03"/>
</g>
<!-- Node24 -->
<g id="node24" class="node">
<title>Node24</title>
<g id="a_node24"><a xlink:href="m__Do__machine__exception_8cpp.html" target="_top" xlink:title=" ">
<polygon fill="white" stroke="black" points="1232.5,-67.5 1232.5,-97.5 1361.5,-97.5 1361.5,-67.5 1232.5,-67.5"/>
<text text-anchor="start" x="1240.5" y="-85.5" font-family="Helvetica,sans-Serif" font-size="10.00">src/m_Do/m_Do_machine</text>
<text text-anchor="middle" x="1297" y="-74.5" font-family="Helvetica,sans-Serif" font-size="10.00">_exception.cpp</text>
</a>
</g>
</g>
<!-- Node14&#45;&gt;Node24 -->
<g id="edge25" class="edge">
<title>Node14&#45;&gt;Node24</title>
<path fill="none" stroke="midnightblue" d="M1135.01,-131.58C1170.58,-121.02 1215.83,-107.59 1249.46,-97.61"/>
<polygon fill="midnightblue" stroke="midnightblue" points="1133.84,-128.28 1125.25,-134.48 1135.83,-134.99 1133.84,-128.28"/>
</g>
<!-- Node25 -->
<g id="node25" class="node">
<title>Node25</title>
<g id="a_node25"><a xlink:href="m__Do__main_8cpp.html" target="_top" xlink:title=" ">
<polygon fill="white" stroke="black" points="1379.5,-73 1379.5,-92 1510.5,-92 1510.5,-73 1379.5,-73"/>
<text text-anchor="middle" x="1445" y="-80" font-family="Helvetica,sans-Serif" font-size="10.00">src/m_Do/m_Do_main.cpp</text>
</a>
</g>
</g>
<!-- Node14&#45;&gt;Node25 -->
<g id="edge26" class="edge">
<title>Node14&#45;&gt;Node25</title>
<path fill="none" stroke="midnightblue" d="M1143.19,-137.6C1202.4,-127.62 1292.14,-112.26 1370,-98 1380.31,-96.11 1391.39,-94.01 1401.8,-92"/>
<polygon fill="midnightblue" stroke="midnightblue" points="1142.5,-134.17 1133.22,-139.28 1143.66,-141.07 1142.5,-134.17"/>
</g>
<!-- Node26 -->
<g id="node26" class="node">
<title>Node26</title>
<g id="a_node26"><a xlink:href="d__item_8h.html" target="_top" xlink:title=" ">
<polygon fill="white" stroke="black" points="1647.5,-73 1647.5,-92 1742.5,-92 1742.5,-73 1647.5,-73"/>
<text text-anchor="middle" x="1695" y="-80" font-family="Helvetica,sans-Serif" font-size="10.00">include/d/d_item.h</text>
</a>
</g>
</g>
<!-- Node14&#45;&gt;Node26 -->
<g id="edge27" class="edge">
<title>Node14&#45;&gt;Node26</title>
<path fill="none" stroke="midnightblue" d="M1143.34,-145.98C1248.29,-141.18 1460.61,-128.36 1638,-98 1646.96,-96.47 1656.58,-94.25 1665.31,-92"/>
<polygon fill="midnightblue" stroke="midnightblue" points="1143.06,-142.49 1133.22,-146.44 1143.37,-149.48 1143.06,-142.49"/>
</g>
<!-- Node28 -->
<g id="node28" class="node">
<title>Node28</title>
<g id="a_node28"><a xlink:href="d__kantera__icon__meter_8h.html" target="_top" xlink:title=" ">
<polygon fill="white" stroke="black" points="1528.5,-67.5 1528.5,-97.5 1629.5,-97.5 1629.5,-67.5 1528.5,-67.5"/>
<text text-anchor="start" x="1536.5" y="-85.5" font-family="Helvetica,sans-Serif" font-size="10.00">include/d/d_kantera</text>
<text text-anchor="middle" x="1579" y="-74.5" font-family="Helvetica,sans-Serif" font-size="10.00">_icon_meter.h</text>
</a>
</g>
</g>
<!-- Node14&#45;&gt;Node28 -->
<g id="edge30" class="edge">
<title>Node14&#45;&gt;Node28</title>
<path fill="none" stroke="midnightblue" d="M1143.5,-143.53C1229.95,-136.4 1386.66,-121.48 1519,-98 1522.06,-97.46 1525.2,-96.85 1528.35,-96.2"/>
<polygon fill="midnightblue" stroke="midnightblue" points="1143,-140.06 1133.32,-144.37 1143.57,-147.04 1143,-140.06"/>
</g>
<!-- Node26&#45;&gt;Node16 -->
<g id="edge28" class="edge">
<title>Node26&#45;&gt;Node16</title>
<path fill="none" stroke="midnightblue" d="M1726.01,-69.06C1753.45,-58.05 1793.47,-41.99 1822.04,-30.53"/>
<polygon fill="midnightblue" stroke="midnightblue" points="1724.49,-65.9 1716.51,-72.87 1727.1,-72.39 1724.49,-65.9"/>
</g>
<!-- Node27 -->
<g id="node27" class="node">
<title>Node27</title>
<g id="a_node27"><a xlink:href="d__item_8cpp.html" target="_top" xlink:title=" ">
<polygon fill="white" stroke="black" points="1650.5,-6 1650.5,-25 1739.5,-25 1739.5,-6 1650.5,-6"/>
<text text-anchor="middle" x="1695" y="-13" font-family="Helvetica,sans-Serif" font-size="10.00">src/d/d_item.cpp</text>
</a>
</g>
</g>
<!-- Node26&#45;&gt;Node27 -->
<g id="edge29" class="edge">
<title>Node26&#45;&gt;Node27</title>
<path fill="none" stroke="midnightblue" d="M1695,-62.54C1695,-50.17 1695,-34.62 1695,-25.13"/>
<polygon fill="midnightblue" stroke="midnightblue" points="1691.5,-62.73 1695,-72.73 1698.5,-62.73 1691.5,-62.73"/>
</g>
<!-- Node29 -->
<g id="node29" class="node">
<title>Node29</title>
<g id="a_node29"><a xlink:href="d__kantera__icon__meter_8cpp.html" target="_top" xlink:title=" ">
<polygon fill="white" stroke="black" points="1525.5,-0.5 1525.5,-30.5 1632.5,-30.5 1632.5,-0.5 1525.5,-0.5"/>
<text text-anchor="start" x="1533.5" y="-18.5" font-family="Helvetica,sans-Serif" font-size="10.00">src/d/d_kantera_icon</text>
<text text-anchor="middle" x="1579" y="-7.5" font-family="Helvetica,sans-Serif" font-size="10.00">_meter.cpp</text>
</a>
</g>
</g>
<!-- Node28&#45;&gt;Node29 -->
<g id="edge31" class="edge">
<title>Node28&#45;&gt;Node29</title>
<path fill="none" stroke="midnightblue" d="M1579,-57.11C1579,-48.15 1579,-38.32 1579,-30.58"/>
<polygon fill="midnightblue" stroke="midnightblue" points="1575.5,-57.4 1579,-67.4 1582.5,-57.4 1575.5,-57.4"/>
</g>
<!-- Node31 -->
<g id="node31" class="node">
<title>Node31</title>
<g id="a_node31"><a xlink:href="d__a__horse__static_8cpp.html" target="_top" xlink:title=" ">
<polygon fill="white" stroke="black" points="845,-140 845,-159 987,-159 987,-140 845,-140"/>
<text text-anchor="middle" x="916" y="-147" font-family="Helvetica,sans-Serif" font-size="10.00">src/d/a/d_a_horse_static.cpp</text>
</a>
</g>
</g>
<!-- Node30&#45;&gt;Node31 -->
<g id="edge33" class="edge">
<title>Node30&#45;&gt;Node31</title>
<path fill="none" stroke="midnightblue" d="M904.62,-191.6C907.75,-180.28 911.3,-167.46 913.59,-159.19"/>
<polygon fill="midnightblue" stroke="midnightblue" points="901.2,-190.82 901.91,-201.4 907.95,-192.69 901.2,-190.82"/>
</g>
<!-- Node32&#45;&gt;Node3 -->
<g id="edge36" class="edge">
<title>Node32&#45;&gt;Node3</title>
<path fill="none" stroke="midnightblue" d="M713.42,-201.06C564.18,-175.17 399.81,-160.46 319.01,-154.14"/>
<polygon fill="midnightblue" stroke="midnightblue" points="713.23,-204.58 723.68,-202.86 714.44,-197.68 713.23,-204.58"/>
</g>
<!-- Node33 -->
<g id="node33" class="node">
<title>Node33</title>
<g id="a_node33"><a xlink:href="Z2SoundObjMgr_8cpp.html" target="_top" xlink:title=" ">
<polygon fill="white" stroke="black" points="685.5,-134.5 685.5,-164.5 826.5,-164.5 826.5,-134.5 685.5,-134.5"/>
<text text-anchor="start" x="693.5" y="-152.5" font-family="Helvetica,sans-Serif" font-size="10.00">libs/Z2AudioLib/Z2SoundObj</text>
<text text-anchor="middle" x="756" y="-141.5" font-family="Helvetica,sans-Serif" font-size="10.00">Mgr.cpp</text>
</a>
</g>
</g>
<!-- Node32&#45;&gt;Node33 -->
<g id="edge35" class="edge">
<title>Node32&#45;&gt;Node33</title>
<path fill="none" stroke="midnightblue" d="M767.41,-191.7C764.89,-182.59 762.09,-172.49 759.9,-164.58"/>
<polygon fill="midnightblue" stroke="midnightblue" points="764.05,-192.69 770.09,-201.4 770.8,-190.82 764.05,-192.69"/>
</g>
<!-- Node34&#45;&gt;Node12 -->
<g id="edge39" class="edge">
<title>Node34&#45;&gt;Node12</title>
<path fill="none" stroke="midnightblue" d="M1007.5,-259.29C1013.68,-247.8 1020.78,-234.63 1025.32,-226.19"/>
<polygon fill="midnightblue" stroke="midnightblue" points="1004.25,-257.93 1002.59,-268.4 1010.42,-261.25 1004.25,-257.93"/>
</g>
<!-- Node35 -->
<g id="node35" class="node">
<title>Node35</title>
<g id="a_node35"><a xlink:href="Z2WolfHowlMgr_8cpp.html" target="_top" xlink:title=" ">
<polygon fill="white" stroke="black" points="1106,-201.5 1106,-231.5 1246,-231.5 1246,-201.5 1106,-201.5"/>
<text text-anchor="start" x="1114" y="-219.5" font-family="Helvetica,sans-Serif" font-size="10.00">libs/Z2AudioLib/Z2WolfHowl</text>
<text text-anchor="middle" x="1176" y="-208.5" font-family="Helvetica,sans-Serif" font-size="10.00">Mgr.cpp</text>
</a>
</g>
</g>
<!-- Node34&#45;&gt;Node35 -->
<g id="edge38" class="edge">
<title>Node34&#45;&gt;Node35</title>
<path fill="none" stroke="midnightblue" d="M1043.86,-264.96C1073.01,-254.48 1109.54,-241.37 1136.8,-231.58"/>
<polygon fill="midnightblue" stroke="midnightblue" points="1042.5,-261.72 1034.27,-268.4 1044.87,-268.31 1042.5,-261.72"/>
</g>
</g>
</svg>
        <g id="navigator" transform="translate(0 0)" fill="#404254">
                <rect fill="#f2f5e9" fill-opacity="0.5" stroke="#606060" stroke-width=".5" x="0" y="0" width="60" height="60"/>
                <use id="zoomplus" xlink:href="#zoomPlus" x="17" y="9" onmousedown="handleZoom(evt,'in')"/>
                <use id="zoomminus" xlink:href="#zoomMin" x="42" y="9" onmousedown="handleZoom(evt,'out')"/>
                <use id="reset" xlink:href="#resetDef" x="30" y="36" onmousedown="handleReset()"/>
                <g id="arrowUp" xlink:href="#dirArrow" transform="translate(30 24)" onmousedown="handlePan(0,-1)">
                  <use xlink:href="#rim" fill="#404040">
                        <set attributeName="fill" to="#808080" begin="arrowUp.mouseover" end="arrowUp.mouseout"/>
                  </use>
                  <path fill="none" stroke="white" stroke-width="1.5" d="M0,-3.0v7 M-2.5,-0.5L0,-3.0L2.5,-0.5"/>
                </g>
                <g id="arrowRight" xlink:href="#dirArrow" transform="rotate(90) translate(36 -43)" onmousedown="handlePan(1,0)">
                  <use xlink:href="#rim" fill="#404040">
                        <set attributeName="fill" to="#808080" begin="arrowRight.mouseover" end="arrowRight.mouseout"/>
                  </use>
                  <path fill="none" stroke="white" stroke-width="1.5" d="M0,-3.0v7 M-2.5,-0.5L0,-3.0L2.5,-0.5"/>
                </g>
                <g id="arrowDown" xlink:href="#dirArrow" transform="rotate(180) translate(-30 -48)" onmousedown="handlePan(0,1)">
                  <use xlink:href="#rim" fill="#404040">
                        <set attributeName="fill" to="#808080" begin="arrowDown.mouseover" end="arrowDown.mouseout"/>
                  </use>
                  <path fill="none" stroke="white" stroke-width="1.5" d="M0,-3.0v7 M-2.5,-0.5L0,-3.0L2.5,-0.5"/>
                </g>
                <g id="arrowLeft" xlink:href="#dirArrow" transform="rotate(270) translate(-36 17)" onmousedown="handlePan(-1,0)">
                  <use xlink:href="#rim" fill="#404040">
                        <set attributeName="fill" to="#808080" begin="arrowLeft.mouseover" end="arrowLeft.mouseout"/>
                  </use>
                  <path fill="none" stroke="white" stroke-width="1.5" d="M0,-3.0v7 M-2.5,-0.5L0,-3.0L2.5,-0.5"/>
                </g>
        </g>
        <svg viewBox="0 0 15 15" width="100%" height="30px" preserveAspectRatio="xMaxYMin meet">
         <g id="arrow_out" transform="scale(0.3 0.3)">
          <a xlink:href="Z2SoundStarter_8h__dep__incl_org.svg" target="_base">
           <rect id="button" ry="5" rx="5" y="6" x="6" height="38" width="38"
                fill="#f2f5e9" fill-opacity="0.5" stroke="#606060" stroke-width="1.0"/>
           <path id="arrow"
             d="M 11.500037,31.436501 C 11.940474,20.09759 22.043105,11.32322 32.158766,21.979434 L 37.068811,17.246167 C 37.068811,17.246167 37.088388,32 37.088388,32 L 22.160133,31.978069 C 22.160133,31.978069 26.997745,27.140456 26.997745,27.140456 C 18.528582,18.264221 13.291696,25.230495 11.500037,31.436501 z"
             style="fill:#404040;"/>
          </a>
         </g>
        </svg>
</svg>
