<?xml version="1.0" encoding="UTF-8" standalone="no"?>
<!DOCTYPE svg PUBLIC "-//W3C//DTD SVG 1.1//EN"
 "http://www.w3.org/Graphics/SVG/1.1/DTD/svg11.dtd">
<!-- Generated by graphviz version 2.44.0 ()
 -->
<!-- Title: include/Z2AudioLib/Z2SoundStarter.h Pages: 1 -->
<svg width="833pt" height="374pt"
 viewBox="0.00 0.00 832.50 374.00" xmlns="http://www.w3.org/2000/svg" xmlns:xlink="http://www.w3.org/1999/xlink">
<g id="graph0" class="graph" transform="scale(1 1) rotate(0) translate(4 370)">
<title>include/Z2AudioLib/Z2SoundStarter.h</title>
<polygon fill="white" stroke="transparent" points="-4,4 -4,-370 828.5,-370 828.5,4 -4,4"/>
<!-- Node1 -->
<g id="node1" class="node">
<title>Node1</title>
<g id="a_node1"><a xlink:title=" ">
<polygon fill="#bfbfbf" stroke="black" points="215,-335.5 215,-365.5 315,-365.5 315,-335.5 215,-335.5"/>
<text text-anchor="start" x="223" y="-353.5" font-family="Helvetica,sans-Serif" font-size="10.00">include/Z2AudioLib</text>
<text text-anchor="middle" x="265" y="-342.5" font-family="Helvetica,sans-Serif" font-size="10.00">/Z2SoundStarter.h</text>
</a>
</g>
</g>
<!-- Node2 -->
<g id="node2" class="node">
<title>Node2</title>
<g id="a_node2"><a xlink:href="Z2SoundStarter_8cpp.html" target="_top" xlink:title=" ">
<polygon fill="white" stroke="black" points="23.5,-274 23.5,-293 196.5,-293 196.5,-274 23.5,-274"/>
<text text-anchor="middle" x="110" y="-281" font-family="Helvetica,sans-Serif" font-size="10.00">libs/Z2AudioLib/Z2SoundStarter.cpp</text>
</a>
</g>
</g>
<!-- Node1&#45;&gt;Node2 -->
<g id="edge1" class="edge">
<title>Node1&#45;&gt;Node2</title>
<path fill="none" stroke="midnightblue" d="M221.98,-331.46C192.03,-318.9 153.46,-302.72 130.29,-293.01"/>
<polygon fill="midnightblue" stroke="midnightblue" points="220.79,-334.76 231.37,-335.4 223.5,-328.3 220.79,-334.76"/>
</g>
<!-- Node3 -->
<g id="node3" class="node">
<title>Node3</title>
<g id="a_node3"><a xlink:href="Z2AudioMgr_8h.html" target="_top" xlink:title=" ">
<polygon fill="white" stroke="black" points="215,-268.5 215,-298.5 315,-298.5 315,-268.5 215,-268.5"/>
<text text-anchor="start" x="223" y="-286.5" font-family="Helvetica,sans-Serif" font-size="10.00">include/Z2AudioLib</text>
<text text-anchor="middle" x="265" y="-275.5" font-family="Helvetica,sans-Serif" font-size="10.00">/Z2AudioMgr.h</text>
</a>
</g>
</g>
<!-- Node1&#45;&gt;Node3 -->
<g id="edge2" class="edge">
<title>Node1&#45;&gt;Node3</title>
<path fill="none" stroke="midnightblue" d="M265,-325.11C265,-316.15 265,-306.32 265,-298.58"/>
<polygon fill="midnightblue" stroke="midnightblue" points="261.5,-325.4 265,-335.4 268.5,-325.4 261.5,-325.4"/>
</g>
<!-- Node5 -->
<g id="node5" class="node">
<title>Node5</title>
<g id="a_node5"><a xlink:href="Z2SoundObject_8h.html" target="_top" xlink:title=" ">
<polygon fill="white" stroke="black" points="408,-268.5 408,-298.5 508,-298.5 508,-268.5 408,-268.5"/>
<text text-anchor="start" x="416" y="-286.5" font-family="Helvetica,sans-Serif" font-size="10.00">include/Z2AudioLib</text>
<text text-anchor="middle" x="458" y="-275.5" font-family="Helvetica,sans-Serif" font-size="10.00">/Z2SoundObject.h</text>
</a>
</g>
</g>
<!-- Node1&#45;&gt;Node5 -->
<g id="edge4" class="edge">
<title>Node1&#45;&gt;Node5</title>
<path fill="none" stroke="midnightblue" d="M316.69,-332.09C347.84,-321.6 387.01,-308.41 416.2,-298.58"/>
<polygon fill="midnightblue" stroke="midnightblue" points="315.24,-328.89 306.88,-335.4 317.47,-335.52 315.24,-328.89"/>
</g>
<!-- Node4 -->
<g id="node4" class="node">
<title>Node4</title>
<g id="a_node4"><a xlink:href="Z2AudioMgr_8cpp.html" target="_top" xlink:title=" ">
<polygon fill="white" stroke="black" points="112,-207 112,-226 270,-226 270,-207 112,-207"/>
<text text-anchor="middle" x="191" y="-214" font-family="Helvetica,sans-Serif" font-size="10.00">libs/Z2AudioLib/Z2AudioMgr.cpp</text>
</a>
</g>
</g>
<!-- Node3&#45;&gt;Node4 -->
<g id="edge3" class="edge">
<title>Node3&#45;&gt;Node4</title>
<path fill="none" stroke="midnightblue" d="M241.29,-261.67C227.63,-249.67 211.17,-235.22 200.9,-226.19"/>
<polygon fill="midnightblue" stroke="midnightblue" points="239.12,-264.43 248.94,-268.4 243.74,-259.17 239.12,-264.43"/>
</g>
<!-- Node6 -->
<g id="node6" class="node">
<title>Node6</title>
<g id="a_node6"><a xlink:href="Z2SoundObject_8cpp.html" target="_top" xlink:title=" ">
<polygon fill="white" stroke="black" points="651.5,-207 651.5,-226 824.5,-226 824.5,-207 651.5,-207"/>
<text text-anchor="middle" x="738" y="-214" font-family="Helvetica,sans-Serif" font-size="10.00">libs/Z2AudioLib/Z2SoundObject.cpp</text>
</a>
</g>
</g>
<!-- Node5&#45;&gt;Node6 -->
<g id="edge5" class="edge">
<title>Node5&#45;&gt;Node6</title>
<path fill="none" stroke="midnightblue" d="M518.14,-268.54C573.8,-255.62 654.75,-236.83 701.31,-226.02"/>
<polygon fill="midnightblue" stroke="midnightblue" points="517.01,-265.21 508.06,-270.88 518.59,-272.03 517.01,-265.21"/>
</g>
<!-- Node7 -->
<g id="node7" class="node">
<title>Node7</title>
<g id="a_node7"><a xlink:href="d__bomb_8h.html" target="_top" xlink:title=" ">
<polygon fill="white" stroke="black" points="288.5,-207 288.5,-226 389.5,-226 389.5,-207 288.5,-207"/>
<text text-anchor="middle" x="339" y="-214" font-family="Helvetica,sans-Serif" font-size="10.00">include/d/d_bomb.h</text>
</a>
</g>
</g>
<!-- Node5&#45;&gt;Node7 -->
<g id="edge6" class="edge">
<title>Node5&#45;&gt;Node7</title>
<path fill="none" stroke="midnightblue" d="M423.17,-263.47C400.45,-251.06 371.9,-235.47 354.57,-226.01"/>
<polygon fill="midnightblue" stroke="midnightblue" points="421.72,-266.67 432.18,-268.4 425.08,-260.53 421.72,-266.67"/>
</g>
<!-- Node9 -->
<g id="node9" class="node">
<title>Node9</title>
<g id="a_node9"><a xlink:href="Z2Creature_8h.html" target="_top" xlink:title=" ">
<polygon fill="white" stroke="black" points="408,-201.5 408,-231.5 508,-231.5 508,-201.5 408,-201.5"/>
<text text-anchor="start" x="416" y="-219.5" font-family="Helvetica,sans-Serif" font-size="10.00">include/Z2AudioLib</text>
<text text-anchor="middle" x="458" y="-208.5" font-family="Helvetica,sans-Serif" font-size="10.00">/Z2Creature.h</text>
</a>
</g>
</g>
<!-- Node5&#45;&gt;Node9 -->
<g id="edge8" class="edge">
<title>Node5&#45;&gt;Node9</title>
<path fill="none" stroke="midnightblue" d="M458,-258.11C458,-249.15 458,-239.32 458,-231.58"/>
<polygon fill="midnightblue" stroke="midnightblue" points="454.5,-258.4 458,-268.4 461.5,-258.4 454.5,-258.4"/>
</g>
<!-- Node19 -->
<g id="node19" class="node">
<title>Node19</title>
<g id="a_node19"><a xlink:href="Z2WolfHowlMgr_8h.html" target="_top" xlink:title=" ">
<polygon fill="white" stroke="black" points="533,-201.5 533,-231.5 633,-231.5 633,-201.5 533,-201.5"/>
<text text-anchor="start" x="541" y="-219.5" font-family="Helvetica,sans-Serif" font-size="10.00">include/Z2AudioLib</text>
<text text-anchor="middle" x="583" y="-208.5" font-family="Helvetica,sans-Serif" font-size="10.00">/Z2WolfHowlMgr.h</text>
</a>
</g>
</g>
<!-- Node5&#45;&gt;Node19 -->
<g id="edge18" class="edge">
<title>Node5&#45;&gt;Node19</title>
<path fill="none" stroke="midnightblue" d="M494.13,-263.71C513.84,-253.46 537.84,-240.98 555.93,-231.58"/>
<polygon fill="midnightblue" stroke="midnightblue" points="492.38,-260.68 485.12,-268.4 495.61,-266.89 492.38,-260.68"/>
</g>
<!-- Node8 -->
<g id="node8" class="node">
<title>Node8</title>
<g id="a_node8"><a xlink:href="d__bomb_8cpp.html" target="_top" xlink:title=" ">
<polygon fill="white" stroke="black" points="0,-140 0,-159 94,-159 94,-140 0,-140"/>
<text text-anchor="middle" x="47" y="-147" font-family="Helvetica,sans-Serif" font-size="10.00">src/d/d_bomb.cpp</text>
</a>
</g>
</g>
<!-- Node7&#45;&gt;Node8 -->
<g id="edge7" class="edge">
<title>Node7&#45;&gt;Node8</title>
<path fill="none" stroke="midnightblue" d="M294.53,-204.57C289.3,-203.34 284.04,-202.12 279,-201 201.07,-183.62 180.78,-183.01 103,-165 95.17,-163.19 86.77,-161.09 78.91,-159.07"/>
<polygon fill="midnightblue" stroke="midnightblue" points="293.93,-208.02 304.47,-206.93 295.55,-201.21 293.93,-208.02"/>
</g>
<!-- Node10 -->
<g id="node10" class="node">
<title>Node10</title>
<g id="a_node10"><a xlink:href="Z2Creature_8cpp.html" target="_top" xlink:title=" ">
<polygon fill="white" stroke="black" points="230.5,-140 230.5,-159 383.5,-159 383.5,-140 230.5,-140"/>
<text text-anchor="middle" x="307" y="-147" font-family="Helvetica,sans-Serif" font-size="10.00">libs/Z2AudioLib/Z2Creature.cpp</text>
</a>
</g>
</g>
<!-- Node9&#45;&gt;Node10 -->
<g id="edge9" class="edge">
<title>Node9&#45;&gt;Node10</title>
<path fill="none" stroke="midnightblue" d="M415.71,-197.3C386.59,-184.76 349.24,-168.68 326.76,-159.01"/>
<polygon fill="midnightblue" stroke="midnightblue" points="414.67,-200.66 425.24,-201.4 417.43,-194.23 414.67,-200.66"/>
</g>
<!-- Node11 -->
<g id="node11" class="node">
<title>Node11</title>
<g id="a_node11"><a xlink:href="d__a__alink_8h.html" target="_top" xlink:title=" ">
<polygon fill="white" stroke="black" points="532,-140 532,-159 648,-159 648,-140 532,-140"/>
<text text-anchor="middle" x="590" y="-147" font-family="Helvetica,sans-Serif" font-size="10.00">include/d/a/d_a_alink.h</text>
</a>
</g>
</g>
<!-- Node9&#45;&gt;Node11 -->
<g id="edge10" class="edge">
<title>Node9&#45;&gt;Node11</title>
<path fill="none" stroke="midnightblue" d="M495.64,-196.97C520.99,-184.48 553.25,-168.6 572.72,-159.01"/>
<polygon fill="midnightblue" stroke="midnightblue" points="494.07,-193.84 486.64,-201.4 497.16,-200.12 494.07,-193.84"/>
</g>
<!-- Node15 -->
<g id="node15" class="node">
<title>Node15</title>
<g id="a_node15"><a xlink:href="d__a__horse__static_8h.html" target="_top" xlink:title=" ">
<polygon fill="white" stroke="black" points="402,-134.5 402,-164.5 514,-164.5 514,-134.5 402,-134.5"/>
<text text-anchor="start" x="410" y="-152.5" font-family="Helvetica,sans-Serif" font-size="10.00">include/d/a/d_a_horse</text>
<text text-anchor="middle" x="458" y="-141.5" font-family="Helvetica,sans-Serif" font-size="10.00">_static.h</text>
</a>
</g>
</g>
<!-- Node9&#45;&gt;Node15 -->
<g id="edge14" class="edge">
<title>Node9&#45;&gt;Node15</title>
<path fill="none" stroke="midnightblue" d="M458,-191.11C458,-182.15 458,-172.32 458,-164.58"/>
<polygon fill="midnightblue" stroke="midnightblue" points="454.5,-191.4 458,-201.4 461.5,-191.4 454.5,-191.4"/>
</g>
<!-- Node17 -->
<g id="node17" class="node">
<title>Node17</title>
<g id="a_node17"><a xlink:href="Z2SoundObjMgr_8h.html" target="_top" xlink:title=" ">
<polygon fill="white" stroke="black" points="112,-134.5 112,-164.5 212,-164.5 212,-134.5 112,-134.5"/>
<text text-anchor="start" x="120" y="-152.5" font-family="Helvetica,sans-Serif" font-size="10.00">include/Z2AudioLib</text>
<text text-anchor="middle" x="162" y="-141.5" font-family="Helvetica,sans-Serif" font-size="10.00">/Z2SoundObjMgr.h</text>
</a>
</g>
</g>
<!-- Node9&#45;&gt;Node17 -->
<g id="edge16" class="edge">
<title>Node9&#45;&gt;Node17</title>
<path fill="none" stroke="midnightblue" d="M397.86,-200.8C318.55,-183.28 296.69,-181.95 221,-165 218.12,-164.35 215.16,-163.68 212.18,-162.98"/>
<polygon fill="midnightblue" stroke="midnightblue" points="397.3,-204.26 407.82,-203.02 398.82,-197.43 397.3,-204.26"/>
</g>
<!-- Node12 -->
<g id="node12" class="node">
<title>Node12</title>
<g id="a_node12"><a xlink:href="d__a__alink_8cpp.html" target="_top" xlink:title=" ">
<polygon fill="white" stroke="black" points="535.5,-73 535.5,-92 644.5,-92 644.5,-73 535.5,-73"/>
<text text-anchor="middle" x="590" y="-80" font-family="Helvetica,sans-Serif" font-size="10.00">src/d/a/d_a_alink.cpp</text>
</a>
</g>
</g>
<!-- Node11&#45;&gt;Node12 -->
<g id="edge11" class="edge">
<title>Node11&#45;&gt;Node12</title>
<path fill="none" stroke="midnightblue" d="M590,-129.54C590,-117.17 590,-101.62 590,-92.13"/>
<polygon fill="midnightblue" stroke="midnightblue" points="586.5,-129.73 590,-139.73 593.5,-129.73 586.5,-129.73"/>
</g>
<!-- Node13 -->
<g id="node13" class="node">
<title>Node13</title>
<g id="a_node13"><a xlink:href="d__com__inf__game_8h.html" target="_top" xlink:title=" ">
<polygon fill="white" stroke="black" points="663,-67.5 663,-97.5 773,-97.5 773,-67.5 663,-67.5"/>
<text text-anchor="start" x="671" y="-85.5" font-family="Helvetica,sans-Serif" font-size="10.00">include/d/com/d_com</text>
<text text-anchor="middle" x="718" y="-74.5" font-family="Helvetica,sans-Serif" font-size="10.00">_inf_game.h</text>
</a>
</g>
</g>
<!-- Node11&#45;&gt;Node13 -->
<g id="edge12" class="edge">
<title>Node11&#45;&gt;Node13</title>
<path fill="none" stroke="midnightblue" d="M616.2,-135.19C637.73,-124.26 668.16,-108.81 690.13,-97.65"/>
<polygon fill="midnightblue" stroke="midnightblue" points="614.33,-132.22 607,-139.87 617.5,-138.46 614.33,-132.22"/>
</g>
<!-- Node14 -->
<g id="node14" class="node">
<title>Node14</title>
<g id="a_node14"><a xlink:href="d__com__inf__game_8cpp.html" target="_top" xlink:title=" ">
<polygon fill="white" stroke="black" points="664,-0.5 664,-30.5 772,-30.5 772,-0.5 664,-0.5"/>
<text text-anchor="start" x="672" y="-18.5" font-family="Helvetica,sans-Serif" font-size="10.00">src/d/com/d_com_inf</text>
<text text-anchor="middle" x="718" y="-7.5" font-family="Helvetica,sans-Serif" font-size="10.00">_game.cpp</text>
</a>
</g>
</g>
<!-- Node13&#45;&gt;Node14 -->
<g id="edge13" class="edge">
<title>Node13&#45;&gt;Node14</title>
<path fill="none" stroke="midnightblue" d="M718,-57.11C718,-48.15 718,-38.32 718,-30.58"/>
<polygon fill="midnightblue" stroke="midnightblue" points="714.5,-57.4 718,-67.4 721.5,-57.4 714.5,-57.4"/>
</g>
<!-- Node16 -->
<g id="node16" class="node">
<title>Node16</title>
<g id="a_node16"><a xlink:href="d__a__horse__static_8cpp.html" target="_top" xlink:title=" ">
<polygon fill="white" stroke="black" points="375,-73 375,-92 517,-92 517,-73 375,-73"/>
<text text-anchor="middle" x="446" y="-80" font-family="Helvetica,sans-Serif" font-size="10.00">src/d/a/d_a_horse_static.cpp</text>
</a>
</g>
</g>
<!-- Node15&#45;&gt;Node16 -->
<g id="edge15" class="edge">
<title>Node15&#45;&gt;Node16</title>
<path fill="none" stroke="midnightblue" d="M453.52,-124.25C451.45,-113.02 449.12,-100.38 447.61,-92.19"/>
<polygon fill="midnightblue" stroke="midnightblue" points="450.14,-125.2 455.4,-134.4 457.02,-123.93 450.14,-125.2"/>
</g>
<!-- Node18 -->
<g id="node18" class="node">
<title>Node18</title>
<g id="a_node18"><a xlink:href="Z2SoundObjMgr_8cpp.html" target="_top" xlink:title=" ">
<polygon fill="white" stroke="black" points="91.5,-67.5 91.5,-97.5 232.5,-97.5 232.5,-67.5 91.5,-67.5"/>
<text text-anchor="start" x="99.5" y="-85.5" font-family="Helvetica,sans-Serif" font-size="10.00">libs/Z2AudioLib/Z2SoundObj</text>
<text text-anchor="middle" x="162" y="-74.5" font-family="Helvetica,sans-Serif" font-size="10.00">Mgr.cpp</text>
</a>
</g>
</g>
<!-- Node17&#45;&gt;Node18 -->
<g id="edge17" class="edge">
<title>Node17&#45;&gt;Node18</title>
<path fill="none" stroke="midnightblue" d="M162,-124.11C162,-115.15 162,-105.32 162,-97.58"/>
<polygon fill="midnightblue" stroke="midnightblue" points="158.5,-124.4 162,-134.4 165.5,-124.4 158.5,-124.4"/>
</g>
<!-- Node19&#45;&gt;Node11 -->
<g id="edge20" class="edge">
<title>Node19&#45;&gt;Node11</title>
<path fill="none" stroke="midnightblue" d="M585.61,-191.25C586.82,-180.02 588.18,-167.38 589.06,-159.19"/>
<polygon fill="midnightblue" stroke="midnightblue" points="582.11,-191.08 584.52,-201.4 589.07,-191.83 582.11,-191.08"/>
</g>
<!-- Node20 -->
<g id="node20" class="node">
<title>Node20</title>
<g id="a_node20"><a xlink:href="Z2WolfHowlMgr_8cpp.html" target="_top" xlink:title=" ">
<polygon fill="white" stroke="black" points="666,-134.5 666,-164.5 806,-164.5 806,-134.5 666,-134.5"/>
<text text-anchor="start" x="674" y="-152.5" font-family="Helvetica,sans-Serif" font-size="10.00">libs/Z2AudioLib/Z2WolfHowl</text>
<text text-anchor="middle" x="736" y="-141.5" font-family="Helvetica,sans-Serif" font-size="10.00">Mgr.cpp</text>
</a>
</g>
</g>
<!-- Node19&#45;&gt;Node20 -->
<g id="edge19" class="edge">
<title>Node19&#45;&gt;Node20</title>
<path fill="none" stroke="midnightblue" d="M625.59,-197.41C650.02,-187.03 680.22,-174.2 702.87,-164.58"/>
<polygon fill="midnightblue" stroke="midnightblue" points="624.03,-194.26 616.2,-201.4 626.77,-200.71 624.03,-194.26"/>
</g>
</g>
</svg>
