<?xml version="1.0" encoding="UTF-8" standalone="no"?>
<!DOCTYPE svg PUBLIC "-//W3C//DTD SVG 1.1//EN"
 "http://www.w3.org/Graphics/SVG/1.1/DTD/svg11.dtd">
<!-- Generated by graphviz version 2.44.0 ()
 -->
<!-- Title: include/Z2AudioLib/Z2SoundObject.h Pages: 1 -->
<!--zoomable 319 -->
<svg id="main" version="1.1" xmlns="http://www.w3.org/2000/svg" xmlns:xlink="http://www.w3.org/1999/xlink" xml:space="preserve" onload="init(evt)">
<style type="text/css"><![CDATA[
.edge:hover path { stroke: red; }
.edge:hover polygon { stroke: red; fill: red; }
]]></style>
<script type="text/javascript"><![CDATA[
var edges = document.getElementsByTagName('g');
if (edges && edges.length) {
  for (var i=0;i<edges.length;i++) {
    if (edges[i].id.substr(0,4)=='edge') {
      edges[i].setAttribute('class','edge');
    }
  }
}
]]></script>
        <defs>
                <circle id="rim" cx="0" cy="0" r="7"/>
                <circle id="rim2" cx="0" cy="0" r="3.5"/>
                <g id="zoomPlus">
                        <use xlink:href="#rim" fill="#404040">
                                <set attributeName="fill" to="#808080" begin="zoomplus.mouseover" end="zoomplus.mouseout"/>
                        </use>
                        <path d="M-4,0h8M0,-4v8" fill="none" stroke="white" stroke-width="1.5" pointer-events="none"/>
                </g>
                <g id="zoomMin">
                        <use xlink:href="#rim" fill="#404040">
                                <set attributeName="fill" to="#808080" begin="zoomminus.mouseover" end="zoomminus.mouseout"/>
                        </use>
                        <path d="M-4,0h8" fill="none" stroke="white" stroke-width="1.5" pointer-events="none"/>
                </g>
                <g id="dirArrow">
                        <path fill="none" stroke="white" stroke-width="1.5" d="M0,-3.0v7 M-2.5,-0.5L0,-3.0L2.5,-0.5"/>
                </g>
               <g id="resetDef">
                       <use xlink:href="#rim2" fill="#404040">
                               <set attributeName="fill" to="#808080" begin="reset.mouseover" end="reset.mouseout"/>
                       </use>
               </g>
        </defs>

<script type="text/javascript">
var viewWidth = 884;
var viewHeight = 319;
var sectionId = 'dynsection-0';
</script>
<script xlink:href="svgpan.js"/>
<svg id="graph" class="graph">
<g id="viewport">
<title>include/Z2AudioLib/Z2SoundObject.h</title>
<polygon fill="white" stroke="transparent" points="-4,4 -4,-315 880.11,-315 880.11,4 -4,4"/>
<!-- Node1 -->
<g id="node1" class="node">
<title>Node1</title>
<g id="a_node1"><a xlink:title=" ">
<polygon fill="#bfbfbf" stroke="black" points="254,-280.5 254,-310.5 354,-310.5 354,-280.5 254,-280.5"/>
<text text-anchor="start" x="262" y="-298.5" font-family="Helvetica,sans-Serif" font-size="10.00">include/Z2AudioLib</text>
<text text-anchor="middle" x="304" y="-287.5" font-family="Helvetica,sans-Serif" font-size="10.00">/Z2SoundObject.h</text>
</a>
</g>
</g>
<!-- Node2 -->
<g id="node2" class="node">
<title>Node2</title>
<g id="a_node2"><a xlink:href="Z2SoundHandles_8h.html" target="_top" xlink:title=" ">
<polygon fill="white" stroke="black" points="124,-168.5 124,-187.5 276,-187.5 276,-168.5 124,-168.5"/>
<text text-anchor="middle" x="200" y="-175.5" font-family="Helvetica,sans-Serif" font-size="10.00">Z2AudioLib/Z2SoundHandles.h</text>
</a>
</g>
</g>
<!-- Node1&#45;&gt;Node2 -->
<g id="edge1" class="edge">
<title>Node1&#45;&gt;Node2</title>
<path fill="none" stroke="midnightblue" d="M291.25,-280.34C271.83,-258.77 234.95,-217.81 214.52,-195.13"/>
<polygon fill="midnightblue" stroke="midnightblue" points="217.1,-192.76 207.81,-187.67 211.9,-197.44 217.1,-192.76"/>
</g>
<!-- Node5 -->
<g id="node5" class="node">
<title>Node5</title>
<g id="a_node5"><a xlink:href="types_8h.html" target="_top" xlink:title=" ">
<polygon fill="white" stroke="black" points="472.5,-0.5 472.5,-19.5 553.5,-19.5 553.5,-0.5 472.5,-0.5"/>
<text text-anchor="middle" x="513" y="-7.5" font-family="Helvetica,sans-Serif" font-size="10.00">dolphin/types.h</text>
</a>
</g>
</g>
<!-- Node1&#45;&gt;Node5 -->
<g id="edge26" class="edge">
<title>Node1&#45;&gt;Node5</title>
<path fill="none" stroke="midnightblue" d="M253.8,-286.12C167.46,-270.28 0,-232.64 0,-179 0,-179 0,-179 0,-121 0,-27.1 332.72,-13.1 462.25,-11.21"/>
<polygon fill="midnightblue" stroke="midnightblue" points="462.36,-14.71 472.32,-11.08 462.27,-7.71 462.36,-14.71"/>
</g>
<!-- Node9 -->
<g id="node9" class="node">
<title>Node9</title>
<g id="a_node9"><a xlink:href="Z2SoundStarter_8h.html" target="_top" xlink:title=" ">
<polygon fill="white" stroke="black" points="294.5,-168.5 294.5,-187.5 439.5,-187.5 439.5,-168.5 294.5,-168.5"/>
<text text-anchor="middle" x="367" y="-175.5" font-family="Helvetica,sans-Serif" font-size="10.00">Z2AudioLib/Z2SoundStarter.h</text>
</a>
</g>
</g>
<!-- Node1&#45;&gt;Node9 -->
<g id="edge13" class="edge">
<title>Node1&#45;&gt;Node9</title>
<path fill="none" stroke="midnightblue" d="M311.73,-280.34C323.23,-259.24 344.85,-219.6 357.37,-196.65"/>
<polygon fill="midnightblue" stroke="midnightblue" points="360.56,-198.12 362.27,-187.67 354.41,-194.77 360.56,-198.12"/>
</g>
<!-- Node10 -->
<g id="node10" class="node">
<title>Node10</title>
<g id="a_node10"><a xlink:href="mtxvec_8h.html" target="_top" xlink:title=" ">
<polygon fill="white" stroke="black" points="627,-224.5 627,-243.5 735,-243.5 735,-224.5 627,-224.5"/>
<text text-anchor="middle" x="681" y="-231.5" font-family="Helvetica,sans-Serif" font-size="10.00">dolphin/mtx/mtxvec.h</text>
</a>
</g>
</g>
<!-- Node1&#45;&gt;Node10 -->
<g id="edge16" class="edge">
<title>Node1&#45;&gt;Node10</title>
<path fill="none" stroke="midnightblue" d="M354.06,-286.6C421.78,-275.91 542.63,-256.84 616.91,-245.12"/>
<polygon fill="midnightblue" stroke="midnightblue" points="617.74,-248.53 627.07,-243.51 616.65,-241.61 617.74,-248.53"/>
</g>
<!-- Node3 -->
<g id="node3" class="node">
<title>Node3</title>
<g id="a_node3"><a xlink:href="JAISound_8h.html" target="_top" xlink:title=" ">
<polygon fill="white" stroke="black" points="264,-112.5 264,-131.5 410,-131.5 410,-112.5 264,-112.5"/>
<text text-anchor="middle" x="337" y="-119.5" font-family="Helvetica,sans-Serif" font-size="10.00">JSystem/JAudio2/JAISound.h</text>
</a>
</g>
</g>
<!-- Node2&#45;&gt;Node3 -->
<g id="edge2" class="edge">
<title>Node2&#45;&gt;Node3</title>
<path fill="none" stroke="midnightblue" d="M221.71,-168.44C244.35,-159.52 280.07,-145.44 305.75,-135.32"/>
<polygon fill="midnightblue" stroke="midnightblue" points="307.37,-138.44 315.39,-131.52 304.81,-131.93 307.37,-138.44"/>
</g>
<!-- Node2&#45;&gt;Node5 -->
<g id="edge12" class="edge">
<title>Node2&#45;&gt;Node5</title>
<path fill="none" stroke="midnightblue" d="M199.39,-168.39C198.31,-146.08 198.81,-86.03 232,-56 265,-26.14 390.69,-16.02 462.29,-12.65"/>
<polygon fill="midnightblue" stroke="midnightblue" points="462.61,-16.14 472.45,-12.2 462.3,-9.14 462.61,-16.14"/>
</g>
<!-- Node8 -->
<g id="node8" class="node">
<title>Node8</title>
<g id="a_node8"><a xlink:href="JSUList_8h.html" target="_top" xlink:title=" ">
<polygon fill="white" stroke="black" points="28.5,-112.5 28.5,-131.5 171.5,-131.5 171.5,-112.5 28.5,-112.5"/>
<text text-anchor="middle" x="100" y="-119.5" font-family="Helvetica,sans-Serif" font-size="10.00">JSystem/JSupport/JSUList.h</text>
</a>
</g>
</g>
<!-- Node2&#45;&gt;Node8 -->
<g id="edge10" class="edge">
<title>Node2&#45;&gt;Node8</title>
<path fill="none" stroke="midnightblue" d="M183.93,-168.32C168.04,-159.74 143.49,-146.49 125.04,-136.52"/>
<polygon fill="midnightblue" stroke="midnightblue" points="126.49,-133.33 116.03,-131.65 123.16,-139.49 126.49,-133.33"/>
</g>
<!-- Node4 -->
<g id="node4" class="node">
<title>Node4</title>
<g id="a_node4"><a xlink:href="JGeometry_8h.html" target="_top" xlink:title=" ">
<polygon fill="white" stroke="black" points="250.5,-56.5 250.5,-75.5 363.5,-75.5 363.5,-56.5 250.5,-56.5"/>
<text text-anchor="middle" x="307" y="-63.5" font-family="Helvetica,sans-Serif" font-size="10.00">JSystem/JGeometry.h</text>
</a>
</g>
</g>
<!-- Node3&#45;&gt;Node4 -->
<g id="edge3" class="edge">
<title>Node3&#45;&gt;Node4</title>
<path fill="none" stroke="midnightblue" d="M332.05,-112.08C327.9,-104.61 321.85,-93.72 316.73,-84.52"/>
<polygon fill="midnightblue" stroke="midnightblue" points="319.78,-82.79 311.86,-75.75 313.66,-86.19 319.78,-82.79"/>
</g>
<!-- Node3&#45;&gt;Node5 -->
<g id="edge7" class="edge">
<title>Node3&#45;&gt;Node5</title>
<path fill="none" stroke="midnightblue" d="M303.33,-112.48C267.59,-101.84 219.06,-81.86 241,-56 268.81,-23.21 391.56,-14.28 462.29,-11.87"/>
<polygon fill="midnightblue" stroke="midnightblue" points="462.44,-15.37 472.33,-11.56 462.22,-8.37 462.44,-15.37"/>
</g>
<!-- Node6 -->
<g id="node6" class="node">
<title>Node6</title>
<g id="a_node6"><a xlink:href="JUTAssert_8h.html" target="_top" xlink:title=" ">
<polygon fill="white" stroke="black" points="382,-56.5 382,-75.5 528,-75.5 528,-56.5 382,-56.5"/>
<text text-anchor="middle" x="455" y="-63.5" font-family="Helvetica,sans-Serif" font-size="10.00">JSystem/JUtility/JUTAssert.h</text>
</a>
</g>
</g>
<!-- Node3&#45;&gt;Node6 -->
<g id="edge5" class="edge">
<title>Node3&#45;&gt;Node6</title>
<path fill="none" stroke="midnightblue" d="M355.7,-112.44C374.94,-103.64 405.15,-89.81 427.2,-79.72"/>
<polygon fill="midnightblue" stroke="midnightblue" points="428.75,-82.86 436.39,-75.52 425.84,-76.5 428.75,-82.86"/>
</g>
<!-- Node7 -->
<g id="node7" class="node">
<title>Node7</title>
<g id="a_node7"><a xlink:href="global_8h.html" target="_top" xlink:title=" ">
<polygon fill="white" stroke="black" points="546,-56.5 546,-75.5 596,-75.5 596,-56.5 546,-56.5"/>
<text text-anchor="middle" x="571" y="-63.5" font-family="Helvetica,sans-Serif" font-size="10.00">global.h</text>
</a>
</g>
</g>
<!-- Node3&#45;&gt;Node7 -->
<g id="edge8" class="edge">
<title>Node3&#45;&gt;Node7</title>
<path fill="none" stroke="midnightblue" d="M376.95,-112.47C415.34,-104.18 475.22,-90.97 536.01,-76.18"/>
<polygon fill="midnightblue" stroke="midnightblue" points="536.89,-79.56 545.78,-73.79 535.23,-72.76 536.89,-79.56"/>
</g>
<!-- Node4&#45;&gt;Node5 -->
<g id="edge4" class="edge">
<title>Node4&#45;&gt;Node5</title>
<path fill="none" stroke="midnightblue" d="M339.64,-56.44C375.05,-47.16 431.71,-32.31 470.55,-22.13"/>
<polygon fill="midnightblue" stroke="midnightblue" points="471.73,-25.44 480.51,-19.52 469.95,-18.67 471.73,-25.44"/>
</g>
<!-- Node6&#45;&gt;Node5 -->
<g id="edge6" class="edge">
<title>Node6&#45;&gt;Node5</title>
<path fill="none" stroke="midnightblue" d="M464.32,-56.32C472.89,-48.34 485.81,-36.31 496.19,-26.65"/>
<polygon fill="midnightblue" stroke="midnightblue" points="498.58,-29.21 503.51,-19.83 493.81,-24.09 498.58,-29.21"/>
</g>
<!-- Node7&#45;&gt;Node5 -->
<g id="edge9" class="edge">
<title>Node7&#45;&gt;Node5</title>
<path fill="none" stroke="midnightblue" d="M561.68,-56.32C553.11,-48.34 540.19,-36.31 529.81,-26.65"/>
<polygon fill="midnightblue" stroke="midnightblue" points="532.19,-24.09 522.49,-19.83 527.42,-29.21 532.19,-24.09"/>
</g>
<!-- Node8&#45;&gt;Node5 -->
<g id="edge11" class="edge">
<title>Node8&#45;&gt;Node5</title>
<path fill="none" stroke="midnightblue" d="M106.22,-112.49C117.26,-98.1 141.78,-69.26 170,-56 220.69,-32.17 379.6,-19.18 462.12,-13.88"/>
<polygon fill="midnightblue" stroke="midnightblue" points="462.52,-17.36 472.28,-13.24 462.08,-10.38 462.52,-17.36"/>
</g>
<!-- Node9&#45;&gt;Node3 -->
<g id="edge14" class="edge">
<title>Node9&#45;&gt;Node3</title>
<path fill="none" stroke="midnightblue" d="M362.05,-168.08C357.9,-160.61 351.85,-149.72 346.73,-140.52"/>
<polygon fill="midnightblue" stroke="midnightblue" points="349.78,-138.79 341.86,-131.75 343.66,-142.19 349.78,-138.79"/>
</g>
<!-- Node9&#45;&gt;Node5 -->
<g id="edge15" class="edge">
<title>Node9&#45;&gt;Node5</title>
<path fill="none" stroke="midnightblue" d="M435.39,-168.49C491.51,-157.5 567.59,-132.52 605,-76 621.19,-51.54 586.83,-33.43 555.6,-22.63"/>
<polygon fill="midnightblue" stroke="midnightblue" points="556.65,-19.29 546.06,-19.51 554.48,-25.94 556.65,-19.29"/>
</g>
<!-- Node10&#45;&gt;Node5 -->
<g id="edge25" class="edge">
<title>Node10&#45;&gt;Node5</title>
<path fill="none" stroke="midnightblue" d="M680.57,-224.36C678.74,-196.32 669.28,-106.69 622,-56 606.45,-39.33 583.8,-28.64 563.18,-21.89"/>
<polygon fill="midnightblue" stroke="midnightblue" points="564.15,-18.53 553.56,-18.98 562.11,-25.23 564.15,-18.53"/>
</g>
<!-- Node11 -->
<g id="node11" class="node">
<title>Node11</title>
<g id="a_node11"><a xlink:href="mtx_8h.html" target="_top" xlink:title=" ">
<polygon fill="white" stroke="black" points="748,-168.5 748,-187.5 840,-187.5 840,-168.5 748,-168.5"/>
<text text-anchor="middle" x="794" y="-175.5" font-family="Helvetica,sans-Serif" font-size="10.00">dolphin/mtx/mtx.h</text>
</a>
</g>
</g>
<!-- Node10&#45;&gt;Node11 -->
<g id="edge17" class="edge">
<title>Node10&#45;&gt;Node11</title>
<path fill="none" stroke="midnightblue" d="M698.91,-224.44C717.25,-215.68 746.01,-201.94 767.09,-191.86"/>
<polygon fill="midnightblue" stroke="midnightblue" points="768.67,-194.99 776.18,-187.52 765.65,-188.67 768.67,-194.99"/>
</g>
<!-- Node13 -->
<g id="node13" class="node">
<title>Node13</title>
<g id="a_node13"><a xlink:href="vec_8h.html" target="_top" xlink:title=" ">
<polygon fill="white" stroke="black" points="691,-56.5 691,-75.5 783,-75.5 783,-56.5 691,-56.5"/>
<text text-anchor="middle" x="737" y="-63.5" font-family="Helvetica,sans-Serif" font-size="10.00">dolphin/mtx/vec.h</text>
</a>
</g>
</g>
<!-- Node10&#45;&gt;Node13 -->
<g id="edge24" class="edge">
<title>Node10&#45;&gt;Node13</title>
<path fill="none" stroke="midnightblue" d="M684.01,-224.08C692.86,-197.83 718.94,-120.55 730.89,-85.12"/>
<polygon fill="midnightblue" stroke="midnightblue" points="734.23,-86.16 734.11,-75.57 727.6,-83.92 734.23,-86.16"/>
</g>
<!-- Node11&#45;&gt;Node5 -->
<g id="edge23" class="edge">
<title>Node11&#45;&gt;Node5</title>
<path fill="none" stroke="midnightblue" d="M822.37,-168.49C839.75,-161.65 860.6,-150.13 871,-132 894.84,-90.46 823.83,-61.78 812,-56 769.26,-35.12 637.19,-21.25 563.69,-14.93"/>
<polygon fill="midnightblue" stroke="midnightblue" points="563.98,-11.44 553.72,-14.09 563.39,-18.42 563.98,-11.44"/>
</g>
<!-- Node12 -->
<g id="node12" class="node">
<title>Node12</title>
<g id="a_node12"><a xlink:href="quat_8h.html" target="_top" xlink:title=" ">
<polygon fill="white" stroke="black" points="766.5,-112.5 766.5,-131.5 861.5,-131.5 861.5,-112.5 766.5,-112.5"/>
<text text-anchor="middle" x="814" y="-119.5" font-family="Helvetica,sans-Serif" font-size="10.00">dolphin/mtx/quat.h</text>
</a>
</g>
</g>
<!-- Node11&#45;&gt;Node12 -->
<g id="edge18" class="edge">
<title>Node11&#45;&gt;Node12</title>
<path fill="none" stroke="midnightblue" d="M797.3,-168.08C799.98,-160.85 803.85,-150.41 807.19,-141.4"/>
<polygon fill="midnightblue" stroke="midnightblue" points="810.57,-142.34 810.76,-131.75 804,-139.91 810.57,-142.34"/>
</g>
<!-- Node11&#45;&gt;Node13 -->
<g id="edge22" class="edge">
<title>Node11&#45;&gt;Node13</title>
<path fill="none" stroke="midnightblue" d="M785.51,-168.39C777.45,-159.8 765.49,-145.92 758,-132 750.1,-117.31 744.54,-99.15 741.14,-85.76"/>
<polygon fill="midnightblue" stroke="midnightblue" points="744.49,-84.74 738.78,-75.81 737.68,-86.35 744.49,-84.74"/>
</g>
<!-- Node12&#45;&gt;Node5 -->
<g id="edge21" class="edge">
<title>Node12&#45;&gt;Node5</title>
<path fill="none" stroke="midnightblue" d="M813.76,-112.29C812.87,-98.14 808.92,-70.31 792,-56 758.35,-27.53 634.51,-16.86 563.65,-13.02"/>
<polygon fill="midnightblue" stroke="midnightblue" points="563.77,-9.53 553.6,-12.51 563.41,-16.52 563.77,-9.53"/>
</g>
<!-- Node12&#45;&gt;Node13 -->
<g id="edge19" class="edge">
<title>Node12&#45;&gt;Node13</title>
<path fill="none" stroke="midnightblue" d="M801.63,-112.32C789.84,-104.06 771.87,-91.45 757.86,-81.63"/>
<polygon fill="midnightblue" stroke="midnightblue" points="759.54,-78.53 749.34,-75.65 755.52,-84.26 759.54,-78.53"/>
</g>
<!-- Node13&#45;&gt;Node5 -->
<g id="edge20" class="edge">
<title>Node13&#45;&gt;Node5</title>
<path fill="none" stroke="midnightblue" d="M701.51,-56.44C662.68,-47.08 600.34,-32.06 558.08,-21.87"/>
<polygon fill="midnightblue" stroke="midnightblue" points="558.87,-18.46 548.33,-19.52 557.23,-25.26 558.87,-18.46"/>
</g>
</g>
</svg>
        <g id="navigator" transform="translate(0 0)" fill="#404254">
                <rect fill="#f2f5e9" fill-opacity="0.5" stroke="#606060" stroke-width=".5" x="0" y="0" width="60" height="60"/>
                <use id="zoomplus" xlink:href="#zoomPlus" x="17" y="9" onmousedown="handleZoom(evt,'in')"/>
                <use id="zoomminus" xlink:href="#zoomMin" x="42" y="9" onmousedown="handleZoom(evt,'out')"/>
                <use id="reset" xlink:href="#resetDef" x="30" y="36" onmousedown="handleReset()"/>
                <g id="arrowUp" xlink:href="#dirArrow" transform="translate(30 24)" onmousedown="handlePan(0,-1)">
                  <use xlink:href="#rim" fill="#404040">
                        <set attributeName="fill" to="#808080" begin="arrowUp.mouseover" end="arrowUp.mouseout"/>
                  </use>
                  <path fill="none" stroke="white" stroke-width="1.5" d="M0,-3.0v7 M-2.5,-0.5L0,-3.0L2.5,-0.5"/>
                </g>
                <g id="arrowRight" xlink:href="#dirArrow" transform="rotate(90) translate(36 -43)" onmousedown="handlePan(1,0)">
                  <use xlink:href="#rim" fill="#404040">
                        <set attributeName="fill" to="#808080" begin="arrowRight.mouseover" end="arrowRight.mouseout"/>
                  </use>
                  <path fill="none" stroke="white" stroke-width="1.5" d="M0,-3.0v7 M-2.5,-0.5L0,-3.0L2.5,-0.5"/>
                </g>
                <g id="arrowDown" xlink:href="#dirArrow" transform="rotate(180) translate(-30 -48)" onmousedown="handlePan(0,1)">
                  <use xlink:href="#rim" fill="#404040">
                        <set attributeName="fill" to="#808080" begin="arrowDown.mouseover" end="arrowDown.mouseout"/>
                  </use>
                  <path fill="none" stroke="white" stroke-width="1.5" d="M0,-3.0v7 M-2.5,-0.5L0,-3.0L2.5,-0.5"/>
                </g>
                <g id="arrowLeft" xlink:href="#dirArrow" transform="rotate(270) translate(-36 17)" onmousedown="handlePan(-1,0)">
                  <use xlink:href="#rim" fill="#404040">
                        <set attributeName="fill" to="#808080" begin="arrowLeft.mouseover" end="arrowLeft.mouseout"/>
                  </use>
                  <path fill="none" stroke="white" stroke-width="1.5" d="M0,-3.0v7 M-2.5,-0.5L0,-3.0L2.5,-0.5"/>
                </g>
        </g>
        <svg viewBox="0 0 15 15" width="100%" height="30px" preserveAspectRatio="xMaxYMin meet">
         <g id="arrow_out" transform="scale(0.3 0.3)">
          <a xlink:href="Z2SoundObject_8h__incl_org.svg" target="_base">
           <rect id="button" ry="5" rx="5" y="6" x="6" height="38" width="38"
                fill="#f2f5e9" fill-opacity="0.5" stroke="#606060" stroke-width="1.0"/>
           <path id="arrow"
             d="M 11.500037,31.436501 C 11.940474,20.09759 22.043105,11.32322 32.158766,21.979434 L 37.068811,17.246167 C 37.068811,17.246167 37.088388,32 37.088388,32 L 22.160133,31.978069 C 22.160133,31.978069 26.997745,27.140456 26.997745,27.140456 C 18.528582,18.264221 13.291696,25.230495 11.500037,31.436501 z"
             style="fill:#404040;"/>
          </a>
         </g>
        </svg>
</svg>
