<?xml version="1.0" encoding="UTF-8" standalone="no"?>
<!DOCTYPE svg PUBLIC "-//W3C//DTD SVG 1.1//EN"
 "http://www.w3.org/Graphics/SVG/1.1/DTD/svg11.dtd">
<!-- Generated by graphviz version 2.44.0 ()
 -->
<!-- Title: include/Z2AudioLib/Z2SoundStarter.h Pages: 1 -->
<svg width="2049pt" height="441pt"
 viewBox="0.00 0.00 2048.50 441.00" xmlns="http://www.w3.org/2000/svg" xmlns:xlink="http://www.w3.org/1999/xlink">
<g id="graph0" class="graph" transform="scale(1 1) rotate(0) translate(4 437)">
<title>include/Z2AudioLib/Z2SoundStarter.h</title>
<polygon fill="white" stroke="transparent" points="-4,4 -4,-437 2044.5,-437 2044.5,4 -4,4"/>
<!-- Node1 -->
<g id="node1" class="node">
<title>Node1</title>
<g id="a_node1"><a xlink:title=" ">
<polygon fill="#bfbfbf" stroke="black" points="264,-402.5 264,-432.5 364,-432.5 364,-402.5 264,-402.5"/>
<text text-anchor="start" x="272" y="-420.5" font-family="Helvetica,sans-Serif" font-size="10.00">include/Z2AudioLib</text>
<text text-anchor="middle" x="314" y="-409.5" font-family="Helvetica,sans-Serif" font-size="10.00">/Z2SoundStarter.h</text>
</a>
</g>
</g>
<!-- Node2 -->
<g id="node2" class="node">
<title>Node2</title>
<g id="a_node2"><a xlink:href="Z2SoundStarter_8cpp.html" target="_top" xlink:title=" ">
<polygon fill="white" stroke="black" points="112.5,-341 112.5,-360 285.5,-360 285.5,-341 112.5,-341"/>
<text text-anchor="middle" x="199" y="-348" font-family="Helvetica,sans-Serif" font-size="10.00">libs/Z2AudioLib/Z2SoundStarter.cpp</text>
</a>
</g>
</g>
<!-- Node1&#45;&gt;Node2 -->
<g id="edge1" class="edge">
<title>Node1&#45;&gt;Node2</title>
<path fill="none" stroke="midnightblue" d="M280.34,-397.47C258.38,-385.06 230.8,-369.47 214.05,-360.01"/>
<polygon fill="midnightblue" stroke="midnightblue" points="278.62,-400.52 289.05,-402.4 282.06,-394.43 278.62,-400.52"/>
</g>
<!-- Node3 -->
<g id="node3" class="node">
<title>Node3</title>
<g id="a_node3"><a xlink:href="Z2AudioMgr_8h.html" target="_top" xlink:title=" ">
<polygon fill="white" stroke="black" points="213,-134.5 213,-164.5 313,-164.5 313,-134.5 213,-134.5"/>
<text text-anchor="start" x="221" y="-152.5" font-family="Helvetica,sans-Serif" font-size="10.00">include/Z2AudioLib</text>
<text text-anchor="middle" x="263" y="-141.5" font-family="Helvetica,sans-Serif" font-size="10.00">/Z2AudioMgr.h</text>
</a>
</g>
</g>
<!-- Node1&#45;&gt;Node3 -->
<g id="edge2" class="edge">
<title>Node1&#45;&gt;Node3</title>
<path fill="none" stroke="midnightblue" d="M309.32,-392.07C298.87,-337.57 273.93,-207.52 265.69,-164.55"/>
<polygon fill="midnightblue" stroke="midnightblue" points="305.94,-393.04 311.26,-402.2 312.81,-391.72 305.94,-393.04"/>
</g>
<!-- Node6 -->
<g id="node6" class="node">
<title>Node6</title>
<g id="a_node6"><a xlink:href="Z2SoundObject_8h.html" target="_top" xlink:title=" ">
<polygon fill="white" stroke="black" points="720,-335.5 720,-365.5 820,-365.5 820,-335.5 720,-335.5"/>
<text text-anchor="start" x="728" y="-353.5" font-family="Helvetica,sans-Serif" font-size="10.00">include/Z2AudioLib</text>
<text text-anchor="middle" x="770" y="-342.5" font-family="Helvetica,sans-Serif" font-size="10.00">/Z2SoundObject.h</text>
</a>
</g>
</g>
<!-- Node1&#45;&gt;Node6 -->
<g id="edge5" class="edge">
<title>Node1&#45;&gt;Node6</title>
<path fill="none" stroke="midnightblue" d="M374.24,-407.91C465.04,-394.97 635.33,-370.7 719.81,-358.65"/>
<polygon fill="midnightblue" stroke="midnightblue" points="373.51,-404.48 364.1,-409.36 374.5,-411.41 373.51,-404.48"/>
</g>
<!-- Node4 -->
<g id="node4" class="node">
<title>Node4</title>
<g id="a_node4"><a xlink:href="d__save_8cpp.html" target="_top" xlink:title=" ">
<polygon fill="white" stroke="black" points="175.5,-73 175.5,-92 290.5,-92 290.5,-73 175.5,-73"/>
<text text-anchor="middle" x="233" y="-80" font-family="Helvetica,sans-Serif" font-size="10.00">src/d/save/d_save.cpp</text>
</a>
</g>
</g>
<!-- Node3&#45;&gt;Node4 -->
<g id="edge3" class="edge">
<title>Node3&#45;&gt;Node4</title>
<path fill="none" stroke="midnightblue" d="M252.29,-125.29C246.99,-113.8 240.91,-100.63 237.01,-92.19"/>
<polygon fill="midnightblue" stroke="midnightblue" points="249.12,-126.78 256.49,-134.4 255.48,-123.85 249.12,-126.78"/>
</g>
<!-- Node5 -->
<g id="node5" class="node">
<title>Node5</title>
<g id="a_node5"><a xlink:href="Z2AudioMgr_8cpp.html" target="_top" xlink:title=" ">
<polygon fill="white" stroke="black" points="0,-73 0,-92 158,-92 158,-73 0,-73"/>
<text text-anchor="middle" x="79" y="-80" font-family="Helvetica,sans-Serif" font-size="10.00">libs/Z2AudioLib/Z2AudioMgr.cpp</text>
</a>
</g>
</g>
<!-- Node3&#45;&gt;Node5 -->
<g id="edge4" class="edge">
<title>Node3&#45;&gt;Node5</title>
<path fill="none" stroke="midnightblue" d="M213.31,-130.95C177.57,-118.32 130.95,-101.85 103.08,-92.01"/>
<polygon fill="midnightblue" stroke="midnightblue" points="212.48,-134.37 223.07,-134.4 214.81,-127.76 212.48,-134.37"/>
</g>
<!-- Node7 -->
<g id="node7" class="node">
<title>Node7</title>
<g id="a_node7"><a xlink:href="Z2SoundObject_8cpp.html" target="_top" xlink:title=" ">
<polygon fill="white" stroke="black" points="1049.5,-274 1049.5,-293 1222.5,-293 1222.5,-274 1049.5,-274"/>
<text text-anchor="middle" x="1136" y="-281" font-family="Helvetica,sans-Serif" font-size="10.00">libs/Z2AudioLib/Z2SoundObject.cpp</text>
</a>
</g>
</g>
<!-- Node6&#45;&gt;Node7 -->
<g id="edge6" class="edge">
<title>Node6&#45;&gt;Node7</title>
<path fill="none" stroke="midnightblue" d="M829.97,-338.85C902.06,-326.05 1021.61,-304.82 1087.94,-293.04"/>
<polygon fill="midnightblue" stroke="midnightblue" points="829.36,-335.4 820.12,-340.6 830.58,-342.3 829.36,-335.4"/>
</g>
<!-- Node8 -->
<g id="node8" class="node">
<title>Node8</title>
<g id="a_node8"><a xlink:href="d__bomb_8h.html" target="_top" xlink:title=" ">
<polygon fill="white" stroke="black" points="542.5,-274 542.5,-293 643.5,-293 643.5,-274 542.5,-274"/>
<text text-anchor="middle" x="593" y="-281" font-family="Helvetica,sans-Serif" font-size="10.00">include/d/d_bomb.h</text>
</a>
</g>
</g>
<!-- Node6&#45;&gt;Node8 -->
<g id="edge7" class="edge">
<title>Node6&#45;&gt;Node8</title>
<path fill="none" stroke="midnightblue" d="M722.2,-331.95C687.82,-319.32 642.97,-302.85 616.17,-293.01"/>
<polygon fill="midnightblue" stroke="midnightblue" points="721,-335.23 731.59,-335.4 723.41,-328.66 721,-335.23"/>
</g>
<!-- Node10 -->
<g id="node10" class="node">
<title>Node10</title>
<g id="a_node10"><a xlink:href="Z2Creature_8h.html" target="_top" xlink:title=" ">
<polygon fill="white" stroke="black" points="720,-268.5 720,-298.5 820,-298.5 820,-268.5 720,-268.5"/>
<text text-anchor="start" x="728" y="-286.5" font-family="Helvetica,sans-Serif" font-size="10.00">include/Z2AudioLib</text>
<text text-anchor="middle" x="770" y="-275.5" font-family="Helvetica,sans-Serif" font-size="10.00">/Z2Creature.h</text>
</a>
</g>
</g>
<!-- Node6&#45;&gt;Node10 -->
<g id="edge9" class="edge">
<title>Node6&#45;&gt;Node10</title>
<path fill="none" stroke="midnightblue" d="M770,-325.11C770,-316.15 770,-306.32 770,-298.58"/>
<polygon fill="midnightblue" stroke="midnightblue" points="766.5,-325.4 770,-335.4 773.5,-325.4 766.5,-325.4"/>
</g>
<!-- Node34 -->
<g id="node34" class="node">
<title>Node34</title>
<g id="a_node34"><a xlink:href="Z2WolfHowlMgr_8h.html" target="_top" xlink:title=" ">
<polygon fill="white" stroke="black" points="931,-268.5 931,-298.5 1031,-298.5 1031,-268.5 931,-268.5"/>
<text text-anchor="start" x="939" y="-286.5" font-family="Helvetica,sans-Serif" font-size="10.00">include/Z2AudioLib</text>
<text text-anchor="middle" x="981" y="-275.5" font-family="Helvetica,sans-Serif" font-size="10.00">/Z2WolfHowlMgr.h</text>
</a>
</g>
</g>
<!-- Node6&#45;&gt;Node34 -->
<g id="edge37" class="edge">
<title>Node6&#45;&gt;Node34</title>
<path fill="none" stroke="midnightblue" d="M825.37,-332.44C859.57,-321.91 902.93,-308.55 935.19,-298.61"/>
<polygon fill="midnightblue" stroke="midnightblue" points="824.05,-329.19 815.52,-335.48 826.11,-335.88 824.05,-329.19"/>
</g>
<!-- Node9 -->
<g id="node9" class="node">
<title>Node9</title>
<g id="a_node9"><a xlink:href="d__bomb_8cpp.html" target="_top" xlink:title=" ">
<polygon fill="white" stroke="black" points="420,-207 420,-226 514,-226 514,-207 420,-207"/>
<text text-anchor="middle" x="467" y="-214" font-family="Helvetica,sans-Serif" font-size="10.00">src/d/d_bomb.cpp</text>
</a>
</g>
</g>
<!-- Node8&#45;&gt;Node9 -->
<g id="edge8" class="edge">
<title>Node8&#45;&gt;Node9</title>
<path fill="none" stroke="midnightblue" d="M567.36,-269.27C542.41,-256.4 505.2,-237.21 483.8,-226.17"/>
<polygon fill="midnightblue" stroke="midnightblue" points="565.78,-272.39 576.27,-273.87 568.99,-266.17 565.78,-272.39"/>
</g>
<!-- Node11 -->
<g id="node11" class="node">
<title>Node11</title>
<g id="a_node11"><a xlink:href="Z2Creature_8cpp.html" target="_top" xlink:title=" ">
<polygon fill="white" stroke="black" points="798.5,-207 798.5,-226 951.5,-226 951.5,-207 798.5,-207"/>
<text text-anchor="middle" x="875" y="-214" font-family="Helvetica,sans-Serif" font-size="10.00">libs/Z2AudioLib/Z2Creature.cpp</text>
</a>
</g>
</g>
<!-- Node10&#45;&gt;Node11 -->
<g id="edge10" class="edge">
<title>Node10&#45;&gt;Node11</title>
<path fill="none" stroke="midnightblue" d="M801.54,-262.97C821.45,-250.65 846.17,-235.35 861.26,-226.01"/>
<polygon fill="midnightblue" stroke="midnightblue" points="799.44,-260.16 792.78,-268.4 803.13,-266.11 799.44,-260.16"/>
</g>
<!-- Node12 -->
<g id="node12" class="node">
<title>Node12</title>
<g id="a_node12"><a xlink:href="d__a__horse__static_8h.html" target="_top" xlink:title=" ">
<polygon fill="white" stroke="black" points="668,-201.5 668,-231.5 780,-231.5 780,-201.5 668,-201.5"/>
<text text-anchor="start" x="676" y="-219.5" font-family="Helvetica,sans-Serif" font-size="10.00">include/d/a/d_a_horse</text>
<text text-anchor="middle" x="724" y="-208.5" font-family="Helvetica,sans-Serif" font-size="10.00">_static.h</text>
</a>
</g>
</g>
<!-- Node10&#45;&gt;Node12 -->
<g id="edge11" class="edge">
<title>Node10&#45;&gt;Node12</title>
<path fill="none" stroke="midnightblue" d="M754.19,-260.16C747.48,-250.68 739.87,-239.92 733.96,-231.58"/>
<polygon fill="midnightblue" stroke="midnightblue" points="751.38,-262.26 760.02,-268.4 757.1,-258.21 751.38,-262.26"/>
</g>
<!-- Node14 -->
<g id="node14" class="node">
<title>Node14</title>
<g id="a_node14"><a xlink:href="d__a__alink_8h.html" target="_top" xlink:title=" ">
<polygon fill="white" stroke="black" points="970,-207 970,-226 1086,-226 1086,-207 970,-207"/>
<text text-anchor="middle" x="1028" y="-214" font-family="Helvetica,sans-Serif" font-size="10.00">include/d/a/d_a_alink.h</text>
</a>
</g>
</g>
<!-- Node10&#45;&gt;Node14 -->
<g id="edge13" class="edge">
<title>Node10&#45;&gt;Node14</title>
<path fill="none" stroke="midnightblue" d="M829.97,-267.39C881,-254.53 952.46,-236.53 994.12,-226.03"/>
<polygon fill="midnightblue" stroke="midnightblue" points="828.89,-264.05 820.05,-269.89 830.6,-270.84 828.89,-264.05"/>
</g>
<!-- Node32 -->
<g id="node32" class="node">
<title>Node32</title>
<g id="a_node32"><a xlink:href="Z2SoundObjMgr_8h.html" target="_top" xlink:title=" ">
<polygon fill="white" stroke="black" points="532,-201.5 532,-231.5 632,-231.5 632,-201.5 532,-201.5"/>
<text text-anchor="start" x="540" y="-219.5" font-family="Helvetica,sans-Serif" font-size="10.00">include/Z2AudioLib</text>
<text text-anchor="middle" x="582" y="-208.5" font-family="Helvetica,sans-Serif" font-size="10.00">/Z2SoundObjMgr.h</text>
</a>
</g>
</g>
<!-- Node10&#45;&gt;Node32 -->
<g id="edge34" class="edge">
<title>Node10&#45;&gt;Node32</title>
<path fill="none" stroke="midnightblue" d="M719.65,-265.09C689.3,-254.6 651.15,-241.41 622.71,-231.58"/>
<polygon fill="midnightblue" stroke="midnightblue" points="718.61,-268.44 729.21,-268.4 720.9,-261.82 718.61,-268.44"/>
</g>
<!-- Node13 -->
<g id="node13" class="node">
<title>Node13</title>
<g id="a_node13"><a xlink:href="d__a__horse__static_8cpp.html" target="_top" xlink:title=" ">
<polygon fill="white" stroke="black" points="662,-140 662,-159 804,-159 804,-140 662,-140"/>
<text text-anchor="middle" x="733" y="-147" font-family="Helvetica,sans-Serif" font-size="10.00">src/d/a/d_a_horse_static.cpp</text>
</a>
</g>
</g>
<!-- Node12&#45;&gt;Node13 -->
<g id="edge12" class="edge">
<title>Node12&#45;&gt;Node13</title>
<path fill="none" stroke="midnightblue" d="M727.36,-191.25C728.91,-180.02 730.66,-167.38 731.8,-159.19"/>
<polygon fill="midnightblue" stroke="midnightblue" points="723.86,-191.01 725.95,-201.4 730.79,-191.97 723.86,-191.01"/>
</g>
<!-- Node15 -->
<g id="node15" class="node">
<title>Node15</title>
<g id="a_node15"><a xlink:href="d__a__alink_8cpp.html" target="_top" xlink:title=" ">
<polygon fill="white" stroke="black" points="1931.5,-73 1931.5,-92 2040.5,-92 2040.5,-73 1931.5,-73"/>
<text text-anchor="middle" x="1986" y="-80" font-family="Helvetica,sans-Serif" font-size="10.00">src/d/a/d_a_alink.cpp</text>
</a>
</g>
</g>
<!-- Node14&#45;&gt;Node15 -->
<g id="edge14" class="edge">
<title>Node14&#45;&gt;Node15</title>
<path fill="none" stroke="midnightblue" d="M1074.6,-204.88C1081.42,-203.48 1088.38,-202.14 1095,-201 1450.92,-139.86 1543.81,-151.26 1901,-98 1912.99,-96.21 1925.91,-94.1 1937.96,-92.06"/>
<polygon fill="midnightblue" stroke="midnightblue" points="1073.81,-201.46 1064.75,-206.95 1075.26,-208.31 1073.81,-201.46"/>
</g>
<!-- Node16 -->
<g id="node16" class="node">
<title>Node16</title>
<g id="a_node16"><a xlink:href="d__com__inf__game_8h.html" target="_top" xlink:title=" ">
<polygon fill="white" stroke="black" points="1023,-134.5 1023,-164.5 1133,-164.5 1133,-134.5 1023,-134.5"/>
<text text-anchor="start" x="1031" y="-152.5" font-family="Helvetica,sans-Serif" font-size="10.00">include/d/com/d_com</text>
<text text-anchor="middle" x="1078" y="-141.5" font-family="Helvetica,sans-Serif" font-size="10.00">_inf_game.h</text>
</a>
</g>
</g>
<!-- Node14&#45;&gt;Node16 -->
<g id="edge15" class="edge">
<title>Node14&#45;&gt;Node16</title>
<path fill="none" stroke="midnightblue" d="M1040.94,-198.67C1049.08,-188.09 1059.46,-174.6 1067.16,-164.59"/>
<polygon fill="midnightblue" stroke="midnightblue" points="1038.07,-196.67 1034.74,-206.73 1043.61,-200.94 1038.07,-196.67"/>
</g>
<!-- Node16&#45;&gt;Node4 -->
<g id="edge26" class="edge">
<title>Node16&#45;&gt;Node4</title>
<path fill="none" stroke="midnightblue" d="M1012.81,-144.84C838.24,-134.97 368.69,-107.86 299,-98 288.55,-96.52 277.28,-94.29 267.08,-92.02"/>
<polygon fill="midnightblue" stroke="midnightblue" points="1012.7,-148.34 1022.88,-145.41 1013.1,-141.35 1012.7,-148.34"/>
</g>
<!-- Node16&#45;&gt;Node15 -->
<g id="edge18" class="edge">
<title>Node16&#45;&gt;Node15</title>
<path fill="none" stroke="midnightblue" d="M1143.49,-147.83C1285.2,-145.66 1630.58,-136.5 1917,-98 1927.92,-96.53 1939.69,-94.3 1950.36,-92.03"/>
<polygon fill="midnightblue" stroke="midnightblue" points="1143.19,-144.33 1133.24,-147.98 1143.29,-151.33 1143.19,-144.33"/>
</g>
<!-- Node17 -->
<g id="node17" class="node">
<title>Node17</title>
<g id="a_node17"><a xlink:href="d__a__player_8cpp.html" target="_top" xlink:title=" ">
<polygon fill="white" stroke="black" points="1761,-73 1761,-92 1875,-92 1875,-73 1761,-73"/>
<text text-anchor="middle" x="1818" y="-80" font-family="Helvetica,sans-Serif" font-size="10.00">src/d/a/d_a_player.cpp</text>
</a>
</g>
</g>
<!-- Node16&#45;&gt;Node17 -->
<g id="edge16" class="edge">
<title>Node16&#45;&gt;Node17</title>
<path fill="none" stroke="midnightblue" d="M1143.52,-146.67C1264.39,-142.61 1530.32,-130.49 1752,-98 1762.33,-96.49 1773.46,-94.27 1783.57,-92.03"/>
<polygon fill="midnightblue" stroke="midnightblue" points="1143.21,-143.18 1133.33,-147 1143.44,-150.17 1143.21,-143.18"/>
</g>
<!-- Node18 -->
<g id="node18" class="node">
<title>Node18</title>
<g id="a_node18"><a xlink:href="d__com__inf__game_8cpp.html" target="_top" xlink:title=" ">
<polygon fill="white" stroke="black" points="1803,-0.5 1803,-30.5 1911,-30.5 1911,-0.5 1803,-0.5"/>
<text text-anchor="start" x="1811" y="-18.5" font-family="Helvetica,sans-Serif" font-size="10.00">src/d/com/d_com_inf</text>
<text text-anchor="middle" x="1857" y="-7.5" font-family="Helvetica,sans-Serif" font-size="10.00">_game.cpp</text>
</a>
</g>
</g>
<!-- Node16&#45;&gt;Node18 -->
<g id="edge17" class="edge">
<title>Node16&#45;&gt;Node18</title>
<path fill="none" stroke="midnightblue" d="M1143.54,-146.81C1331.2,-141.67 1858.77,-124.86 1884,-98 1901.65,-79.2 1883.12,-48.59 1869.24,-30.72"/>
<polygon fill="midnightblue" stroke="midnightblue" points="1143.17,-143.32 1133.27,-147.09 1143.36,-150.32 1143.17,-143.32"/>
</g>
<!-- Node19 -->
<g id="node19" class="node">
<title>Node19</title>
<g id="a_node19"><a xlink:href="d__resorce_8cpp.html" target="_top" xlink:title=" ">
<polygon fill="white" stroke="black" points="308,-73 308,-92 410,-92 410,-73 308,-73"/>
<text text-anchor="middle" x="359" y="-80" font-family="Helvetica,sans-Serif" font-size="10.00">src/d/d_resorce.cpp</text>
</a>
</g>
</g>
<!-- Node16&#45;&gt;Node19 -->
<g id="edge19" class="edge">
<title>Node16&#45;&gt;Node19</title>
<path fill="none" stroke="midnightblue" d="M1012.41,-144.82C869.14,-136.56 532.06,-115.87 419,-98 409.58,-96.51 399.46,-94.3 390.26,-92.06"/>
<polygon fill="midnightblue" stroke="midnightblue" points="1012.61,-148.34 1022.79,-145.42 1013.01,-141.35 1012.61,-148.34"/>
</g>
<!-- Node20 -->
<g id="node20" class="node">
<title>Node20</title>
<g id="a_node20"><a xlink:href="d__stage_8cpp.html" target="_top" xlink:title=" ">
<polygon fill="white" stroke="black" points="428,-73 428,-92 522,-92 522,-73 428,-73"/>
<text text-anchor="middle" x="475" y="-80" font-family="Helvetica,sans-Serif" font-size="10.00">src/d/d_stage.cpp</text>
</a>
</g>
</g>
<!-- Node16&#45;&gt;Node20 -->
<g id="edge20" class="edge">
<title>Node16&#45;&gt;Node20</title>
<path fill="none" stroke="midnightblue" d="M1012.63,-145.88C909.58,-140.97 703.35,-128.07 531,-98 522.29,-96.48 512.96,-94.29 504.45,-92.08"/>
<polygon fill="midnightblue" stroke="midnightblue" points="1012.73,-149.38 1022.88,-146.35 1013.05,-142.39 1012.73,-149.38"/>
</g>
<!-- Node21 -->
<g id="node21" class="node">
<title>Node21</title>
<g id="a_node21"><a xlink:href="d__event_8cpp.html" target="_top" xlink:title=" ">
<polygon fill="white" stroke="black" points="540.5,-73 540.5,-92 661.5,-92 661.5,-73 540.5,-73"/>
<text text-anchor="middle" x="601" y="-80" font-family="Helvetica,sans-Serif" font-size="10.00">src/d/event/d_event.cpp</text>
</a>
</g>
</g>
<!-- Node16&#45;&gt;Node21 -->
<g id="edge21" class="edge">
<title>Node16&#45;&gt;Node21</title>
<path fill="none" stroke="midnightblue" d="M1012.66,-142.12C931.89,-133.84 790.35,-118.06 670,-98 659.86,-96.31 648.94,-94.17 638.85,-92.05"/>
<polygon fill="midnightblue" stroke="midnightblue" points="1012.38,-145.61 1022.68,-143.14 1013.09,-138.65 1012.38,-145.61"/>
</g>
<!-- Node22 -->
<g id="node22" class="node">
<title>Node22</title>
<g id="a_node22"><a xlink:href="d__event__manager_8cpp.html" target="_top" xlink:title=" ">
<polygon fill="white" stroke="black" points="679.5,-67.5 679.5,-97.5 782.5,-97.5 782.5,-67.5 679.5,-67.5"/>
<text text-anchor="start" x="687.5" y="-85.5" font-family="Helvetica,sans-Serif" font-size="10.00">src/d/event/d_event</text>
<text text-anchor="middle" x="731" y="-74.5" font-family="Helvetica,sans-Serif" font-size="10.00">_manager.cpp</text>
</a>
</g>
</g>
<!-- Node16&#45;&gt;Node22 -->
<g id="edge22" class="edge">
<title>Node16&#45;&gt;Node22</title>
<path fill="none" stroke="midnightblue" d="M1012.85,-138.11C954.75,-128.58 867.46,-113.62 792,-98 788.91,-97.36 785.74,-96.68 782.54,-95.97"/>
<polygon fill="midnightblue" stroke="midnightblue" points="1012.56,-141.61 1022.99,-139.77 1013.68,-134.7 1012.56,-141.61"/>
</g>
<!-- Node23 -->
<g id="node23" class="node">
<title>Node23</title>
<g id="a_node23"><a xlink:href="d__kankyo_8cpp.html" target="_top" xlink:title=" ">
<polygon fill="white" stroke="black" points="801,-73 801,-92 935,-92 935,-73 801,-73"/>
<text text-anchor="middle" x="868" y="-80" font-family="Helvetica,sans-Serif" font-size="10.00">src/d/kankyo/d_kankyo.cpp</text>
</a>
</g>
</g>
<!-- Node16&#45;&gt;Node23 -->
<g id="edge23" class="edge">
<title>Node16&#45;&gt;Node23</title>
<path fill="none" stroke="midnightblue" d="M1023.11,-131.51C982.13,-118.83 927.84,-102.02 895.55,-92.03"/>
<polygon fill="midnightblue" stroke="midnightblue" points="1022.1,-134.86 1032.69,-134.48 1024.17,-128.18 1022.1,-134.86"/>
</g>
<!-- Node24 -->
<g id="node24" class="node">
<title>Node24</title>
<g id="a_node24"><a xlink:href="d__meter2__info_8cpp.html" target="_top" xlink:title=" ">
<polygon fill="white" stroke="black" points="953,-67.5 953,-97.5 1063,-97.5 1063,-67.5 953,-67.5"/>
<text text-anchor="start" x="961" y="-85.5" font-family="Helvetica,sans-Serif" font-size="10.00">src/d/meter/d_meter2</text>
<text text-anchor="middle" x="1008" y="-74.5" font-family="Helvetica,sans-Serif" font-size="10.00">_info.cpp</text>
</a>
</g>
</g>
<!-- Node16&#45;&gt;Node24 -->
<g id="edge24" class="edge">
<title>Node16&#45;&gt;Node24</title>
<path fill="none" stroke="midnightblue" d="M1055.18,-127.31C1044.68,-117.56 1032.51,-106.26 1023.16,-97.58"/>
<polygon fill="midnightblue" stroke="midnightblue" points="1053.1,-130.16 1062.81,-134.4 1057.86,-125.03 1053.1,-130.16"/>
</g>
<!-- Node25 -->
<g id="node25" class="node">
<title>Node25</title>
<g id="a_node25"><a xlink:href="d__msg__flow_8cpp.html" target="_top" xlink:title=" ">
<polygon fill="white" stroke="black" points="1081.5,-73 1081.5,-92 1214.5,-92 1214.5,-73 1081.5,-73"/>
<text text-anchor="middle" x="1148" y="-80" font-family="Helvetica,sans-Serif" font-size="10.00">src/d/msg/d_msg_flow.cpp</text>
</a>
</g>
</g>
<!-- Node16&#45;&gt;Node25 -->
<g id="edge25" class="edge">
<title>Node16&#45;&gt;Node25</title>
<path fill="none" stroke="midnightblue" d="M1100.79,-127.34C1113.65,-115.4 1129.01,-101.14 1138.64,-92.19"/>
<polygon fill="midnightblue" stroke="midnightblue" points="1098.14,-125.03 1093.19,-134.4 1102.9,-130.16 1098.14,-125.03"/>
</g>
<!-- Node26 -->
<g id="node26" class="node">
<title>Node26</title>
<g id="a_node26"><a xlink:href="m__Do__machine__exception_8cpp.html" target="_top" xlink:title=" ">
<polygon fill="white" stroke="black" points="1232.5,-67.5 1232.5,-97.5 1361.5,-97.5 1361.5,-67.5 1232.5,-67.5"/>
<text text-anchor="start" x="1240.5" y="-85.5" font-family="Helvetica,sans-Serif" font-size="10.00">src/m_Do/m_Do_machine</text>
<text text-anchor="middle" x="1297" y="-74.5" font-family="Helvetica,sans-Serif" font-size="10.00">_exception.cpp</text>
</a>
</g>
</g>
<!-- Node16&#45;&gt;Node26 -->
<g id="edge27" class="edge">
<title>Node16&#45;&gt;Node26</title>
<path fill="none" stroke="midnightblue" d="M1135.01,-131.58C1170.58,-121.02 1215.83,-107.59 1249.46,-97.61"/>
<polygon fill="midnightblue" stroke="midnightblue" points="1133.84,-128.28 1125.25,-134.48 1135.83,-134.99 1133.84,-128.28"/>
</g>
<!-- Node27 -->
<g id="node27" class="node">
<title>Node27</title>
<g id="a_node27"><a xlink:href="m__Do__main_8cpp.html" target="_top" xlink:title=" ">
<polygon fill="white" stroke="black" points="1379.5,-73 1379.5,-92 1510.5,-92 1510.5,-73 1379.5,-73"/>
<text text-anchor="middle" x="1445" y="-80" font-family="Helvetica,sans-Serif" font-size="10.00">src/m_Do/m_Do_main.cpp</text>
</a>
</g>
</g>
<!-- Node16&#45;&gt;Node27 -->
<g id="edge28" class="edge">
<title>Node16&#45;&gt;Node27</title>
<path fill="none" stroke="midnightblue" d="M1143.19,-137.6C1202.4,-127.62 1292.14,-112.26 1370,-98 1380.31,-96.11 1391.39,-94.01 1401.8,-92"/>
<polygon fill="midnightblue" stroke="midnightblue" points="1142.5,-134.17 1133.22,-139.28 1143.66,-141.07 1142.5,-134.17"/>
</g>
<!-- Node28 -->
<g id="node28" class="node">
<title>Node28</title>
<g id="a_node28"><a xlink:href="d__item_8h.html" target="_top" xlink:title=" ">
<polygon fill="white" stroke="black" points="1647.5,-73 1647.5,-92 1742.5,-92 1742.5,-73 1647.5,-73"/>
<text text-anchor="middle" x="1695" y="-80" font-family="Helvetica,sans-Serif" font-size="10.00">include/d/d_item.h</text>
</a>
</g>
</g>
<!-- Node16&#45;&gt;Node28 -->
<g id="edge29" class="edge">
<title>Node16&#45;&gt;Node28</title>
<path fill="none" stroke="midnightblue" d="M1143.34,-145.98C1248.29,-141.18 1460.61,-128.36 1638,-98 1646.96,-96.47 1656.58,-94.25 1665.31,-92"/>
<polygon fill="midnightblue" stroke="midnightblue" points="1143.06,-142.49 1133.22,-146.44 1143.37,-149.48 1143.06,-142.49"/>
</g>
<!-- Node30 -->
<g id="node30" class="node">
<title>Node30</title>
<g id="a_node30"><a xlink:href="d__kantera__icon__meter_8h.html" target="_top" xlink:title=" ">
<polygon fill="white" stroke="black" points="1528.5,-67.5 1528.5,-97.5 1629.5,-97.5 1629.5,-67.5 1528.5,-67.5"/>
<text text-anchor="start" x="1536.5" y="-85.5" font-family="Helvetica,sans-Serif" font-size="10.00">include/d/d_kantera</text>
<text text-anchor="middle" x="1579" y="-74.5" font-family="Helvetica,sans-Serif" font-size="10.00">_icon_meter.h</text>
</a>
</g>
</g>
<!-- Node16&#45;&gt;Node30 -->
<g id="edge32" class="edge">
<title>Node16&#45;&gt;Node30</title>
<path fill="none" stroke="midnightblue" d="M1143.5,-143.53C1229.95,-136.4 1386.66,-121.48 1519,-98 1522.06,-97.46 1525.2,-96.85 1528.35,-96.2"/>
<polygon fill="midnightblue" stroke="midnightblue" points="1143,-140.06 1133.32,-144.37 1143.57,-147.04 1143,-140.06"/>
</g>
<!-- Node28&#45;&gt;Node18 -->
<g id="edge30" class="edge">
<title>Node28&#45;&gt;Node18</title>
<path fill="none" stroke="midnightblue" d="M1726.01,-69.06C1753.45,-58.05 1793.47,-41.99 1822.04,-30.53"/>
<polygon fill="midnightblue" stroke="midnightblue" points="1724.49,-65.9 1716.51,-72.87 1727.1,-72.39 1724.49,-65.9"/>
</g>
<!-- Node29 -->
<g id="node29" class="node">
<title>Node29</title>
<g id="a_node29"><a xlink:href="d__item_8cpp.html" target="_top" xlink:title=" ">
<polygon fill="white" stroke="black" points="1650.5,-6 1650.5,-25 1739.5,-25 1739.5,-6 1650.5,-6"/>
<text text-anchor="middle" x="1695" y="-13" font-family="Helvetica,sans-Serif" font-size="10.00">src/d/d_item.cpp</text>
</a>
</g>
</g>
<!-- Node28&#45;&gt;Node29 -->
<g id="edge31" class="edge">
<title>Node28&#45;&gt;Node29</title>
<path fill="none" stroke="midnightblue" d="M1695,-62.54C1695,-50.17 1695,-34.62 1695,-25.13"/>
<polygon fill="midnightblue" stroke="midnightblue" points="1691.5,-62.73 1695,-72.73 1698.5,-62.73 1691.5,-62.73"/>
</g>
<!-- Node31 -->
<g id="node31" class="node">
<title>Node31</title>
<g id="a_node31"><a xlink:href="d__kantera__icon__meter_8cpp.html" target="_top" xlink:title=" ">
<polygon fill="white" stroke="black" points="1525.5,-0.5 1525.5,-30.5 1632.5,-30.5 1632.5,-0.5 1525.5,-0.5"/>
<text text-anchor="start" x="1533.5" y="-18.5" font-family="Helvetica,sans-Serif" font-size="10.00">src/d/d_kantera_icon</text>
<text text-anchor="middle" x="1579" y="-7.5" font-family="Helvetica,sans-Serif" font-size="10.00">_meter.cpp</text>
</a>
</g>
</g>
<!-- Node30&#45;&gt;Node31 -->
<g id="edge33" class="edge">
<title>Node30&#45;&gt;Node31</title>
<path fill="none" stroke="midnightblue" d="M1579,-57.11C1579,-48.15 1579,-38.32 1579,-30.58"/>
<polygon fill="midnightblue" stroke="midnightblue" points="1575.5,-57.4 1579,-67.4 1582.5,-57.4 1575.5,-57.4"/>
</g>
<!-- Node32&#45;&gt;Node3 -->
<g id="edge36" class="edge">
<title>Node32&#45;&gt;Node3</title>
<path fill="none" stroke="midnightblue" d="M521.8,-200.79C443.59,-183.76 363.82,-168.74 313.48,-159.55"/>
<polygon fill="midnightblue" stroke="midnightblue" points="521.31,-204.27 531.83,-202.99 522.81,-197.43 521.31,-204.27"/>
</g>
<!-- Node33 -->
<g id="node33" class="node">
<title>Node33</title>
<g id="a_node33"><a xlink:href="Z2SoundObjMgr_8cpp.html" target="_top" xlink:title=" ">
<polygon fill="white" stroke="black" points="502.5,-134.5 502.5,-164.5 643.5,-164.5 643.5,-134.5 502.5,-134.5"/>
<text text-anchor="start" x="510.5" y="-152.5" font-family="Helvetica,sans-Serif" font-size="10.00">libs/Z2AudioLib/Z2SoundObj</text>
<text text-anchor="middle" x="573" y="-141.5" font-family="Helvetica,sans-Serif" font-size="10.00">Mgr.cpp</text>
</a>
</g>
</g>
<!-- Node32&#45;&gt;Node33 -->
<g id="edge35" class="edge">
<title>Node32&#45;&gt;Node33</title>
<path fill="none" stroke="midnightblue" d="M578.66,-191.4C577.41,-182.37 576.03,-172.41 574.95,-164.58"/>
<polygon fill="midnightblue" stroke="midnightblue" points="575.21,-191.97 580.05,-201.4 582.14,-191.01 575.21,-191.97"/>
</g>
<!-- Node34&#45;&gt;Node14 -->
<g id="edge39" class="edge">
<title>Node34&#45;&gt;Node14</title>
<path fill="none" stroke="midnightblue" d="M997.29,-259.97C1005.71,-248.33 1015.49,-234.8 1021.71,-226.19"/>
<polygon fill="midnightblue" stroke="midnightblue" points="994.22,-258.24 991.2,-268.4 999.89,-262.34 994.22,-258.24"/>
</g>
<!-- Node35 -->
<g id="node35" class="node">
<title>Node35</title>
<g id="a_node35"><a xlink:href="Z2WolfHowlMgr_8cpp.html" target="_top" xlink:title=" ">
<polygon fill="white" stroke="black" points="1104,-201.5 1104,-231.5 1244,-231.5 1244,-201.5 1104,-201.5"/>
<text text-anchor="start" x="1112" y="-219.5" font-family="Helvetica,sans-Serif" font-size="10.00">libs/Z2AudioLib/Z2WolfHowl</text>
<text text-anchor="middle" x="1174" y="-208.5" font-family="Helvetica,sans-Serif" font-size="10.00">Mgr.cpp</text>
</a>
</g>
</g>
<!-- Node34&#45;&gt;Node35 -->
<g id="edge38" class="edge">
<title>Node34&#45;&gt;Node35</title>
<path fill="none" stroke="midnightblue" d="M1032.69,-265.09C1063.84,-254.6 1103.01,-241.41 1132.2,-231.58"/>
<polygon fill="midnightblue" stroke="midnightblue" points="1031.24,-261.89 1022.88,-268.4 1033.47,-268.52 1031.24,-261.89"/>
</g>
</g>
</svg>
