<?xml version="1.0" encoding="UTF-8" standalone="no"?>
<!DOCTYPE svg PUBLIC "-//W3C//DTD SVG 1.1//EN"
 "http://www.w3.org/Graphics/SVG/1.1/DTD/svg11.dtd">
<!-- Generated by graphviz version 2.44.0 ()
 -->
<!-- Title: include/Z2AudioLib/Z2WolfHowlMgr.h Pages: 1 -->
<svg width="821pt" height="307pt"
 viewBox="0.00 0.00 821.00 307.00" xmlns="http://www.w3.org/2000/svg" xmlns:xlink="http://www.w3.org/1999/xlink">
<g id="graph0" class="graph" transform="scale(1 1) rotate(0) translate(4 303)">
<title>include/Z2AudioLib/Z2WolfHowlMgr.h</title>
<polygon fill="white" stroke="transparent" points="-4,4 -4,-303 817,-303 817,4 -4,4"/>
<!-- Node1 -->
<g id="node1" class="node">
<title>Node1</title>
<g id="a_node1"><a xlink:title=" ">
<polygon fill="#bfbfbf" stroke="black" points="107.5,-268.5 107.5,-298.5 207.5,-298.5 207.5,-268.5 107.5,-268.5"/>
<text text-anchor="start" x="115.5" y="-286.5" font-family="Helvetica,sans-Serif" font-size="10.00">include/Z2AudioLib</text>
<text text-anchor="middle" x="157.5" y="-275.5" font-family="Helvetica,sans-Serif" font-size="10.00">/Z2WolfHowlMgr.h</text>
</a>
</g>
</g>
<!-- Node2 -->
<g id="node2" class="node">
<title>Node2</title>
<g id="a_node2"><a xlink:href="Z2WolfHowlMgr_8cpp.html" target="_top" xlink:title=" ">
<polygon fill="white" stroke="black" points="14.5,-201.5 14.5,-231.5 154.5,-231.5 154.5,-201.5 14.5,-201.5"/>
<text text-anchor="start" x="22.5" y="-219.5" font-family="Helvetica,sans-Serif" font-size="10.00">libs/Z2AudioLib/Z2WolfHowl</text>
<text text-anchor="middle" x="84.5" y="-208.5" font-family="Helvetica,sans-Serif" font-size="10.00">Mgr.cpp</text>
</a>
</g>
</g>
<!-- Node1&#45;&gt;Node2 -->
<g id="edge1" class="edge">
<title>Node1&#45;&gt;Node2</title>
<path fill="none" stroke="midnightblue" d="M134.03,-261.6C123,-251.78 110.16,-240.34 100.31,-231.58"/>
<polygon fill="midnightblue" stroke="midnightblue" points="131.86,-264.36 141.66,-268.4 136.52,-259.13 131.86,-264.36"/>
</g>
<!-- Node3 -->
<g id="node3" class="node">
<title>Node3</title>
<g id="a_node3"><a xlink:href="d__a__alink_8h.html" target="_top" xlink:title=" ">
<polygon fill="white" stroke="black" points="172.5,-207 172.5,-226 288.5,-226 288.5,-207 172.5,-207"/>
<text text-anchor="middle" x="230.5" y="-214" font-family="Helvetica,sans-Serif" font-size="10.00">include/d/a/d_a_alink.h</text>
</a>
</g>
</g>
<!-- Node1&#45;&gt;Node3 -->
<g id="edge2" class="edge">
<title>Node1&#45;&gt;Node3</title>
<path fill="none" stroke="midnightblue" d="M180.89,-261.67C194.37,-249.67 210.6,-235.22 220.74,-226.19"/>
<polygon fill="midnightblue" stroke="midnightblue" points="178.48,-259.13 173.34,-268.4 183.14,-264.36 178.48,-259.13"/>
</g>
<!-- Node4 -->
<g id="node4" class="node">
<title>Node4</title>
<g id="a_node4"><a xlink:href="d__a__alink_8cpp.html" target="_top" xlink:title=" ">
<polygon fill="white" stroke="black" points="0,-73 0,-92 109,-92 109,-73 0,-73"/>
<text text-anchor="middle" x="54.5" y="-80" font-family="Helvetica,sans-Serif" font-size="10.00">src/d/a/d_a_alink.cpp</text>
</a>
</g>
</g>
<!-- Node3&#45;&gt;Node4 -->
<g id="edge3" class="edge">
<title>Node3&#45;&gt;Node4</title>
<path fill="none" stroke="midnightblue" d="M210.93,-200.82C174.04,-173.15 95.25,-114.06 65.86,-92.02"/>
<polygon fill="midnightblue" stroke="midnightblue" points="208.85,-203.64 218.95,-206.84 213.05,-198.04 208.85,-203.64"/>
</g>
<!-- Node5 -->
<g id="node5" class="node">
<title>Node5</title>
<g id="a_node5"><a xlink:href="d__com__inf__game_8h.html" target="_top" xlink:title=" ">
<polygon fill="white" stroke="black" points="238.5,-134.5 238.5,-164.5 348.5,-164.5 348.5,-134.5 238.5,-134.5"/>
<text text-anchor="start" x="246.5" y="-152.5" font-family="Helvetica,sans-Serif" font-size="10.00">include/d/com/d_com</text>
<text text-anchor="middle" x="293.5" y="-141.5" font-family="Helvetica,sans-Serif" font-size="10.00">_inf_game.h</text>
</a>
</g>
</g>
<!-- Node3&#45;&gt;Node5 -->
<g id="edge4" class="edge">
<title>Node3&#45;&gt;Node5</title>
<path fill="none" stroke="midnightblue" d="M246.2,-199.3C256.54,-188.63 269.95,-174.8 279.84,-164.59"/>
<polygon fill="midnightblue" stroke="midnightblue" points="243.44,-197.12 239,-206.73 248.47,-201.99 243.44,-197.12"/>
</g>
<!-- Node5&#45;&gt;Node4 -->
<g id="edge6" class="edge">
<title>Node5&#45;&gt;Node4</title>
<path fill="none" stroke="midnightblue" d="M232.21,-131.83C185.43,-119.11 122.91,-102.11 85.86,-92.03"/>
<polygon fill="midnightblue" stroke="midnightblue" points="231.37,-135.23 241.93,-134.48 233.2,-128.47 231.37,-135.23"/>
</g>
<!-- Node6 -->
<g id="node6" class="node">
<title>Node6</title>
<g id="a_node6"><a xlink:href="d__com__inf__game_8cpp.html" target="_top" xlink:title=" ">
<polygon fill="white" stroke="black" points="339.5,-0.5 339.5,-30.5 447.5,-30.5 447.5,-0.5 339.5,-0.5"/>
<text text-anchor="start" x="347.5" y="-18.5" font-family="Helvetica,sans-Serif" font-size="10.00">src/d/com/d_com_inf</text>
<text text-anchor="middle" x="393.5" y="-7.5" font-family="Helvetica,sans-Serif" font-size="10.00">_game.cpp</text>
</a>
</g>
</g>
<!-- Node5&#45;&gt;Node6 -->
<g id="edge5" class="edge">
<title>Node5&#45;&gt;Node6</title>
<path fill="none" stroke="midnightblue" d="M228.46,-134.59C181.48,-121.52 130.49,-99.13 156.5,-67 179.06,-39.12 276.7,-25.98 339.4,-20.31"/>
<polygon fill="midnightblue" stroke="midnightblue" points="227.84,-138.04 238.4,-137.23 229.64,-131.28 227.84,-138.04"/>
</g>
<!-- Node7 -->
<g id="node7" class="node">
<title>Node7</title>
<g id="a_node7"><a xlink:href="d__event_8cpp.html" target="_top" xlink:title=" ">
<polygon fill="white" stroke="black" points="166,-73 166,-92 287,-92 287,-73 166,-73"/>
<text text-anchor="middle" x="226.5" y="-80" font-family="Helvetica,sans-Serif" font-size="10.00">src/d/event/d_event.cpp</text>
</a>
</g>
</g>
<!-- Node5&#45;&gt;Node7 -->
<g id="edge7" class="edge">
<title>Node5&#45;&gt;Node7</title>
<path fill="none" stroke="midnightblue" d="M271.68,-127.34C259.38,-115.4 244.68,-101.14 235.46,-92.19"/>
<polygon fill="midnightblue" stroke="midnightblue" points="269.35,-129.94 278.96,-134.4 274.22,-124.92 269.35,-129.94"/>
</g>
<!-- Node8 -->
<g id="node8" class="node">
<title>Node8</title>
<g id="a_node8"><a xlink:href="d__meter2__info_8cpp.html" target="_top" xlink:title=" ">
<polygon fill="white" stroke="black" points="305.5,-67.5 305.5,-97.5 415.5,-97.5 415.5,-67.5 305.5,-67.5"/>
<text text-anchor="start" x="313.5" y="-85.5" font-family="Helvetica,sans-Serif" font-size="10.00">src/d/meter/d_meter2</text>
<text text-anchor="middle" x="360.5" y="-74.5" font-family="Helvetica,sans-Serif" font-size="10.00">_info.cpp</text>
</a>
</g>
</g>
<!-- Node5&#45;&gt;Node8 -->
<g id="edge8" class="edge">
<title>Node5&#45;&gt;Node8</title>
<path fill="none" stroke="midnightblue" d="M315.34,-127.31C325.39,-117.56 337.04,-106.26 345.99,-97.58"/>
<polygon fill="midnightblue" stroke="midnightblue" points="312.78,-124.92 308.04,-134.4 317.65,-129.94 312.78,-124.92"/>
</g>
<!-- Node9 -->
<g id="node9" class="node">
<title>Node9</title>
<g id="a_node9"><a xlink:href="d__msg__flow_8cpp.html" target="_top" xlink:title=" ">
<polygon fill="white" stroke="black" points="434,-73 434,-92 567,-92 567,-73 434,-73"/>
<text text-anchor="middle" x="500.5" y="-80" font-family="Helvetica,sans-Serif" font-size="10.00">src/d/msg/d_msg_flow.cpp</text>
</a>
</g>
</g>
<!-- Node5&#45;&gt;Node9 -->
<g id="edge9" class="edge">
<title>Node5&#45;&gt;Node9</title>
<path fill="none" stroke="midnightblue" d="M347.86,-131.43C388.23,-118.75 441.58,-102 473.34,-92.03"/>
<polygon fill="midnightblue" stroke="midnightblue" points="346.65,-128.14 338.16,-134.48 348.75,-134.82 346.65,-128.14"/>
</g>
<!-- Node10 -->
<g id="node10" class="node">
<title>Node10</title>
<g id="a_node10"><a xlink:href="d__save_8cpp.html" target="_top" xlink:title=" ">
<polygon fill="white" stroke="black" points="585,-73 585,-92 700,-92 700,-73 585,-73"/>
<text text-anchor="middle" x="642.5" y="-80" font-family="Helvetica,sans-Serif" font-size="10.00">src/d/save/d_save.cpp</text>
</a>
</g>
</g>
<!-- Node5&#45;&gt;Node10 -->
<g id="edge10" class="edge">
<title>Node5&#45;&gt;Node10</title>
<path fill="none" stroke="midnightblue" d="M358.72,-137.5C415.96,-127.69 501.39,-112.65 575.5,-98 584.84,-96.15 594.89,-94.05 604.28,-92.02"/>
<polygon fill="midnightblue" stroke="midnightblue" points="357.99,-134.08 348.73,-139.21 359.17,-140.98 357.99,-134.08"/>
</g>
<!-- Node11 -->
<g id="node11" class="node">
<title>Node11</title>
<g id="a_node11"><a xlink:href="d__item_8h.html" target="_top" xlink:title=" ">
<polygon fill="white" stroke="black" points="718,-73 718,-92 813,-92 813,-73 718,-73"/>
<text text-anchor="middle" x="765.5" y="-80" font-family="Helvetica,sans-Serif" font-size="10.00">include/d/d_item.h</text>
</a>
</g>
</g>
<!-- Node5&#45;&gt;Node11 -->
<g id="edge11" class="edge">
<title>Node5&#45;&gt;Node11</title>
<path fill="none" stroke="midnightblue" d="M358.73,-143.16C440.81,-135.86 585.87,-120.96 708.5,-98 717.13,-96.38 726.4,-94.22 734.89,-92.05"/>
<polygon fill="midnightblue" stroke="midnightblue" points="358.21,-139.7 348.56,-144.06 358.82,-146.67 358.21,-139.7"/>
</g>
<!-- Node11&#45;&gt;Node6 -->
<g id="edge12" class="edge">
<title>Node11&#45;&gt;Node6</title>
<path fill="none" stroke="midnightblue" d="M724.06,-70.5C718.84,-69.25 713.56,-68.05 708.5,-67 617.52,-48.17 510.52,-32.34 447.56,-23.65"/>
<polygon fill="midnightblue" stroke="midnightblue" points="723.41,-73.94 733.96,-72.94 725.09,-67.14 723.41,-73.94"/>
</g>
<!-- Node12 -->
<g id="node12" class="node">
<title>Node12</title>
<g id="a_node12"><a xlink:href="d__item_8cpp.html" target="_top" xlink:title=" ">
<polygon fill="white" stroke="black" points="721,-6 721,-25 810,-25 810,-6 721,-6"/>
<text text-anchor="middle" x="765.5" y="-13" font-family="Helvetica,sans-Serif" font-size="10.00">src/d/d_item.cpp</text>
</a>
</g>
</g>
<!-- Node11&#45;&gt;Node12 -->
<g id="edge13" class="edge">
<title>Node11&#45;&gt;Node12</title>
<path fill="none" stroke="midnightblue" d="M765.5,-62.54C765.5,-50.17 765.5,-34.62 765.5,-25.13"/>
<polygon fill="midnightblue" stroke="midnightblue" points="762,-62.73 765.5,-72.73 769,-62.73 762,-62.73"/>
</g>
</g>
</svg>
