<?xml version="1.0" encoding="UTF-8" standalone="no"?>
<!DOCTYPE svg PUBLIC "-//W3C//DTD SVG 1.1//EN"
 "http://www.w3.org/Graphics/SVG/1.1/DTD/svg11.dtd">
<!-- Generated by graphviz version 2.44.0 ()
 -->
<!-- Title: include/Z2AudioLib/Z2WolfHowlMgr.h Pages: 1 -->
<svg width="617pt" height="296pt"
 viewBox="0.00 0.00 616.50 296.00" xmlns="http://www.w3.org/2000/svg" xmlns:xlink="http://www.w3.org/1999/xlink">
<g id="graph0" class="graph" transform="scale(1 1) rotate(0) translate(4 292)">
<title>include/Z2AudioLib/Z2WolfHowlMgr.h</title>
<polygon fill="white" stroke="transparent" points="-4,4 -4,-292 612.5,-292 612.5,4 -4,4"/>
<!-- Node1 -->
<g id="node1" class="node">
<title>Node1</title>
<g id="a_node1"><a xlink:title=" ">
<polygon fill="#bfbfbf" stroke="black" points="93,-257.5 93,-287.5 193,-287.5 193,-257.5 93,-257.5"/>
<text text-anchor="start" x="101" y="-275.5" font-family="Helvetica,sans-Serif" font-size="10.00">include/Z2AudioLib</text>
<text text-anchor="middle" x="143" y="-264.5" font-family="Helvetica,sans-Serif" font-size="10.00">/Z2WolfHowlMgr.h</text>
</a>
</g>
</g>
<!-- Node2 -->
<g id="node2" class="node">
<title>Node2</title>
<g id="a_node2"><a xlink:href="Z2WolfHowlMgr_8cpp.html" target="_top" xlink:title=" ">
<polygon fill="white" stroke="black" points="0,-190.5 0,-220.5 140,-220.5 140,-190.5 0,-190.5"/>
<text text-anchor="start" x="8" y="-208.5" font-family="Helvetica,sans-Serif" font-size="10.00">libs/Z2AudioLib/Z2WolfHowl</text>
<text text-anchor="middle" x="70" y="-197.5" font-family="Helvetica,sans-Serif" font-size="10.00">Mgr.cpp</text>
</a>
</g>
</g>
<!-- Node1&#45;&gt;Node2 -->
<g id="edge1" class="edge">
<title>Node1&#45;&gt;Node2</title>
<path fill="none" stroke="midnightblue" d="M119.53,-250.6C108.5,-240.78 95.66,-229.34 85.81,-220.58"/>
<polygon fill="midnightblue" stroke="midnightblue" points="117.36,-253.36 127.16,-257.4 122.02,-248.13 117.36,-253.36"/>
</g>
<!-- Node3 -->
<g id="node3" class="node">
<title>Node3</title>
<g id="a_node3"><a xlink:href="d__a__alink_8h.html" target="_top" xlink:title=" ">
<polygon fill="white" stroke="black" points="158,-196 158,-215 274,-215 274,-196 158,-196"/>
<text text-anchor="middle" x="216" y="-203" font-family="Helvetica,sans-Serif" font-size="10.00">include/d/a/d_a_alink.h</text>
</a>
</g>
</g>
<!-- Node1&#45;&gt;Node3 -->
<g id="edge2" class="edge">
<title>Node1&#45;&gt;Node3</title>
<path fill="none" stroke="midnightblue" d="M166.39,-250.67C179.87,-238.67 196.1,-224.22 206.24,-215.19"/>
<polygon fill="midnightblue" stroke="midnightblue" points="163.98,-248.13 158.84,-257.4 168.64,-253.36 163.98,-248.13"/>
</g>
<!-- Node4 -->
<g id="node4" class="node">
<title>Node4</title>
<g id="a_node4"><a xlink:href="d__a__alink_8cpp.html" target="_top" xlink:title=" ">
<polygon fill="white" stroke="black" points="75.5,-67.5 75.5,-86.5 184.5,-86.5 184.5,-67.5 75.5,-67.5"/>
<text text-anchor="middle" x="130" y="-74.5" font-family="Helvetica,sans-Serif" font-size="10.00">src/d/a/d_a_alink.cpp</text>
</a>
</g>
</g>
<!-- Node3&#45;&gt;Node4 -->
<g id="edge3" class="edge">
<title>Node3&#45;&gt;Node4</title>
<path fill="none" stroke="midnightblue" d="M204.28,-187.26C185.68,-159.9 150.05,-107.49 135.95,-86.76"/>
<polygon fill="midnightblue" stroke="midnightblue" points="201.57,-189.5 210.09,-195.81 207.36,-185.57 201.57,-189.5"/>
</g>
<!-- Node5 -->
<g id="node5" class="node">
<title>Node5</title>
<g id="a_node5"><a xlink:href="d__com__inf__game_8h.html" target="_top" xlink:title=" ">
<polygon fill="white" stroke="black" points="202,-123.5 202,-153.5 312,-153.5 312,-123.5 202,-123.5"/>
<text text-anchor="start" x="210" y="-141.5" font-family="Helvetica,sans-Serif" font-size="10.00">include/d/com/d_com</text>
<text text-anchor="middle" x="257" y="-130.5" font-family="Helvetica,sans-Serif" font-size="10.00">_inf_game.h</text>
</a>
</g>
</g>
<!-- Node3&#45;&gt;Node5 -->
<g id="edge4" class="edge">
<title>Node3&#45;&gt;Node5</title>
<path fill="none" stroke="midnightblue" d="M227.02,-187.03C233.63,-176.56 241.92,-163.4 248.11,-153.59"/>
<polygon fill="midnightblue" stroke="midnightblue" points="223.9,-185.41 221.53,-195.73 229.82,-189.14 223.9,-185.41"/>
</g>
<!-- Node5&#45;&gt;Node4 -->
<g id="edge6" class="edge">
<title>Node5&#45;&gt;Node4</title>
<path fill="none" stroke="midnightblue" d="M217.69,-119.08C194.62,-108.28 166.55,-95.12 148.48,-86.66"/>
<polygon fill="midnightblue" stroke="midnightblue" points="216.36,-122.33 226.9,-123.4 219.33,-115.99 216.36,-122.33"/>
</g>
<!-- Node6 -->
<g id="node6" class="node">
<title>Node6</title>
<g id="a_node6"><a xlink:href="d__com__inf__game_8cpp.html" target="_top" xlink:title=" ">
<polygon fill="white" stroke="black" points="275,-0.5 275,-30.5 383,-30.5 383,-0.5 275,-0.5"/>
<text text-anchor="start" x="283" y="-18.5" font-family="Helvetica,sans-Serif" font-size="10.00">src/d/com/d_com_inf</text>
<text text-anchor="middle" x="329" y="-7.5" font-family="Helvetica,sans-Serif" font-size="10.00">_game.cpp</text>
</a>
</g>
</g>
<!-- Node5&#45;&gt;Node6 -->
<g id="edge5" class="edge">
<title>Node5&#45;&gt;Node6</title>
<path fill="none" stroke="midnightblue" d="M239.26,-114.91C230.26,-100.54 222.96,-81.89 232,-67 242.39,-49.88 260.69,-38.29 278.62,-30.58"/>
<polygon fill="midnightblue" stroke="midnightblue" points="236.42,-116.96 244.95,-123.24 242.2,-113.01 236.42,-116.96"/>
</g>
<!-- Node7 -->
<g id="node7" class="node">
<title>Node7</title>
<g id="a_node7"><a xlink:href="d__event_8cpp.html" target="_top" xlink:title=" ">
<polygon fill="white" stroke="black" points="241.5,-67.5 241.5,-86.5 362.5,-86.5 362.5,-67.5 241.5,-67.5"/>
<text text-anchor="middle" x="302" y="-74.5" font-family="Helvetica,sans-Serif" font-size="10.00">src/d/event/d_event.cpp</text>
</a>
</g>
</g>
<!-- Node5&#45;&gt;Node7 -->
<g id="edge7" class="edge">
<title>Node5&#45;&gt;Node7</title>
<path fill="none" stroke="midnightblue" d="M273.71,-115.4C281.27,-105.41 289.76,-94.18 295.45,-86.66"/>
<polygon fill="midnightblue" stroke="midnightblue" points="270.9,-113.31 267.66,-123.4 276.49,-117.53 270.9,-113.31"/>
</g>
<!-- Node8 -->
<g id="node8" class="node">
<title>Node8</title>
<g id="a_node8"><a xlink:href="d__save_8cpp.html" target="_top" xlink:title=" ">
<polygon fill="white" stroke="black" points="380.5,-67.5 380.5,-86.5 495.5,-86.5 495.5,-67.5 380.5,-67.5"/>
<text text-anchor="middle" x="438" y="-74.5" font-family="Helvetica,sans-Serif" font-size="10.00">src/d/save/d_save.cpp</text>
</a>
</g>
</g>
<!-- Node5&#45;&gt;Node8 -->
<g id="edge8" class="edge">
<title>Node5&#45;&gt;Node8</title>
<path fill="none" stroke="midnightblue" d="M309.57,-120.22C343.17,-109.17 385.29,-95.33 411.93,-86.57"/>
<polygon fill="midnightblue" stroke="midnightblue" points="308.3,-116.95 299.89,-123.4 310.49,-123.6 308.3,-116.95"/>
</g>
<!-- Node9 -->
<g id="node9" class="node">
<title>Node9</title>
<g id="a_node9"><a xlink:href="d__item_8h.html" target="_top" xlink:title=" ">
<polygon fill="white" stroke="black" points="513.5,-67.5 513.5,-86.5 608.5,-86.5 608.5,-67.5 513.5,-67.5"/>
<text text-anchor="middle" x="561" y="-74.5" font-family="Helvetica,sans-Serif" font-size="10.00">include/d/d_item.h</text>
</a>
</g>
</g>
<!-- Node5&#45;&gt;Node9 -->
<g id="edge9" class="edge">
<title>Node5&#45;&gt;Node9</title>
<path fill="none" stroke="midnightblue" d="M322,-124.78C380.88,-113.25 466.02,-96.59 517.19,-86.57"/>
<polygon fill="midnightblue" stroke="midnightblue" points="321.19,-121.37 312.05,-126.72 322.54,-128.24 321.19,-121.37"/>
</g>
<!-- Node9&#45;&gt;Node6 -->
<g id="edge10" class="edge">
<title>Node9&#45;&gt;Node6</title>
<path fill="none" stroke="midnightblue" d="M518.01,-64.97C479.98,-55.22 424.31,-40.94 383.23,-30.41"/>
<polygon fill="midnightblue" stroke="midnightblue" points="517.2,-68.38 527.76,-67.48 518.94,-61.6 517.2,-68.38"/>
</g>
<!-- Node10 -->
<g id="node10" class="node">
<title>Node10</title>
<g id="a_node10"><a xlink:href="d__item_8cpp.html" target="_top" xlink:title=" ">
<polygon fill="white" stroke="black" points="516.5,-6 516.5,-25 605.5,-25 605.5,-6 516.5,-6"/>
<text text-anchor="middle" x="561" y="-13" font-family="Helvetica,sans-Serif" font-size="10.00">src/d/d_item.cpp</text>
</a>
</g>
</g>
<!-- Node9&#45;&gt;Node10 -->
<g id="edge11" class="edge">
<title>Node9&#45;&gt;Node10</title>
<path fill="none" stroke="midnightblue" d="M561,-57.32C561,-46.5 561,-33.4 561,-25.01"/>
<polygon fill="midnightblue" stroke="midnightblue" points="557.5,-57.48 561,-67.48 564.5,-57.48 557.5,-57.48"/>
</g>
</g>
</svg>
