<?xml version="1.0" encoding="UTF-8" standalone="no"?>
<!DOCTYPE svg PUBLIC "-//W3C//DTD SVG 1.1//EN"
 "http://www.w3.org/Graphics/SVG/1.1/DTD/svg11.dtd">
<!-- Generated by graphviz version 2.44.0 ()
 -->
<!-- Title: libs/Z2AudioLib/Z2WolfHowlMgr.cpp Pages: 1 -->
<svg width="3314pt" height="453pt"
 viewBox="0.00 0.00 3313.85 453.00" xmlns="http://www.w3.org/2000/svg" xmlns:xlink="http://www.w3.org/1999/xlink">
<g id="graph0" class="graph" transform="scale(1 1) rotate(0) translate(4 449)">
<title>libs/Z2AudioLib/Z2WolfHowlMgr.cpp</title>
<polygon fill="white" stroke="transparent" points="-4,4 -4,-449 3309.85,-449 3309.85,4 -4,4"/>
<!-- Node1 -->
<g id="node1" class="node">
<title>Node1</title>
<g id="a_node1"><a xlink:title=" ">
<polygon fill="#bfbfbf" stroke="black" points="1460.85,-414.5 1460.85,-444.5 1600.85,-444.5 1600.85,-414.5 1460.85,-414.5"/>
<text text-anchor="start" x="1468.85" y="-432.5" font-family="Helvetica,sans-Serif" font-size="10.00">libs/Z2AudioLib/Z2WolfHowl</text>
<text text-anchor="middle" x="1530.85" y="-421.5" font-family="Helvetica,sans-Serif" font-size="10.00">Mgr.cpp</text>
</a>
</g>
</g>
<!-- Node2 -->
<g id="node2" class="node">
<title>Node2</title>
<g id="a_node2"><a xlink:href="Z2WolfHowlMgr_8h.html" target="_top" xlink:title=" ">
<polygon fill="white" stroke="black" points="30.85,-347.5 30.85,-366.5 176.85,-366.5 176.85,-347.5 30.85,-347.5"/>
<text text-anchor="middle" x="103.85" y="-354.5" font-family="Helvetica,sans-Serif" font-size="10.00">Z2AudioLib/Z2WolfHowlMgr.h</text>
</a>
</g>
</g>
<!-- Node1&#45;&gt;Node2 -->
<g id="edge1" class="edge">
<title>Node1&#45;&gt;Node2</title>
<path fill="none" stroke="midnightblue" d="M1460.49,-427.73C1220.58,-424.82 435.66,-412.79 185.85,-378 171.63,-376.02 156.27,-372.62 142.74,-369.19"/>
<polygon fill="midnightblue" stroke="midnightblue" points="143.36,-365.73 132.8,-366.57 141.58,-372.5 143.36,-365.73"/>
</g>
<!-- Node7 -->
<g id="node7" class="node">
<title>Node7</title>
<g id="a_node7"><a xlink:href="types_8h.html" target="_top" xlink:title=" ">
<polygon fill="white" stroke="black" points="323.35,-0.5 323.35,-19.5 404.35,-19.5 404.35,-0.5 323.35,-0.5"/>
<text text-anchor="middle" x="363.85" y="-7.5" font-family="Helvetica,sans-Serif" font-size="10.00">dolphin/types.h</text>
</a>
</g>
</g>
<!-- Node1&#45;&gt;Node7 -->
<g id="edge31" class="edge">
<title>Node1&#45;&gt;Node7</title>
<path fill="none" stroke="midnightblue" d="M1460.54,-428.53C1170.25,-428.34 77.71,-424.53 21.85,-378 -8.56,-352.67 2.85,-330.58 2.85,-291 2.85,-291 2.85,-291 2.85,-121 2.85,-74.84 41.66,-74.73 83.85,-56 158.83,-22.71 254.83,-13.69 312.72,-11.45"/>
<polygon fill="midnightblue" stroke="midnightblue" points="313.19,-14.94 323.07,-11.11 312.96,-7.94 313.19,-14.94"/>
</g>
<!-- Node16 -->
<g id="node16" class="node">
<title>Node16</title>
<g id="a_node16"><a xlink:href="dol2asm_8h.html" target="_top" xlink:title=" ">
<polygon fill="white" stroke="black" points="195.35,-347.5 195.35,-366.5 256.35,-366.5 256.35,-347.5 195.35,-347.5"/>
<text text-anchor="middle" x="225.85" y="-354.5" font-family="Helvetica,sans-Serif" font-size="10.00">dol2asm.h</text>
</a>
</g>
</g>
<!-- Node1&#45;&gt;Node16 -->
<g id="edge30" class="edge">
<title>Node1&#45;&gt;Node16</title>
<path fill="none" stroke="midnightblue" d="M1460.62,-427.42C1211.88,-423.37 381.46,-407.74 265.85,-378 260.02,-376.5 254.06,-374.08 248.57,-371.42"/>
<polygon fill="midnightblue" stroke="midnightblue" points="249.83,-368.13 239.35,-366.56 246.56,-374.32 249.83,-368.13"/>
</g>
<!-- Node17 -->
<g id="node17" class="node">
<title>Node17</title>
<g id="a_node17"><a xlink:title=" ">
<polygon fill="white" stroke="#bfbfbf" points="274.85,-342 274.85,-372 438.85,-372 438.85,-342 274.85,-342"/>
<text text-anchor="start" x="282.85" y="-360" font-family="Helvetica,sans-Serif" font-size="10.00">asm/Z2AudioLib/Z2WolfHowl</text>
<text text-anchor="middle" x="356.85" y="-349" font-family="Helvetica,sans-Serif" font-size="10.00">Mgr/__ct__13Z2WolfHowlMgrFv.s</text>
</a>
</g>
</g>
<!-- Node1&#45;&gt;Node17 -->
<g id="edge32" class="edge">
<title>Node1&#45;&gt;Node17</title>
<path fill="none" stroke="midnightblue" d="M1460.55,-429.28C1287.63,-430.31 828.06,-427.71 448.85,-378 440.9,-376.96 432.62,-375.58 424.43,-374.04"/>
<polygon fill="midnightblue" stroke="midnightblue" points="424.99,-370.58 414.5,-372.08 423.64,-377.45 424.99,-370.58"/>
</g>
<!-- Node18 -->
<g id="node18" class="node">
<title>Node18</title>
<g id="a_node18"><a xlink:title=" ">
<polygon fill="white" stroke="#bfbfbf" points="457.35,-342 457.35,-372 648.35,-372 648.35,-342 457.35,-342"/>
<text text-anchor="start" x="465.35" y="-360" font-family="Helvetica,sans-Serif" font-size="10.00">asm/Z2AudioLib/Z2WolfHowl</text>
<text text-anchor="middle" x="552.85" y="-349" font-family="Helvetica,sans-Serif" font-size="10.00">Mgr/resetState__13Z2WolfHowlMgrFv.s</text>
</a>
</g>
</g>
<!-- Node1&#45;&gt;Node18 -->
<g id="edge33" class="edge">
<title>Node1&#45;&gt;Node18</title>
<path fill="none" stroke="midnightblue" d="M1460.7,-427.54C1312.09,-424.83 954.86,-414.72 657.85,-378 648.56,-376.85 638.85,-375.38 629.24,-373.75"/>
<polygon fill="midnightblue" stroke="midnightblue" points="629.75,-370.29 619.3,-372.01 628.55,-377.18 629.75,-370.29"/>
</g>
<!-- Node19 -->
<g id="node19" class="node">
<title>Node19</title>
<g id="a_node19"><a xlink:title=" ">
<polygon fill="white" stroke="#bfbfbf" points="666.85,-336.5 666.85,-377.5 846.85,-377.5 846.85,-336.5 666.85,-336.5"/>
<text text-anchor="start" x="674.85" y="-365.5" font-family="Helvetica,sans-Serif" font-size="10.00">asm/Z2AudioLib/Z2WolfHowl</text>
<text text-anchor="start" x="674.85" y="-354.5" font-family="Helvetica,sans-Serif" font-size="10.00">Mgr/calcVolumeMod__13Z2WolfHowl</text>
<text text-anchor="middle" x="756.85" y="-343.5" font-family="Helvetica,sans-Serif" font-size="10.00">MgrFf.s</text>
</a>
</g>
</g>
<!-- Node1&#45;&gt;Node19 -->
<g id="edge34" class="edge">
<title>Node1&#45;&gt;Node19</title>
<path fill="none" stroke="midnightblue" d="M1460.58,-426.13C1339.35,-421.4 1082.95,-408.64 856.94,-378.06"/>
<polygon fill="midnightblue" stroke="midnightblue" points="857.26,-374.57 846.88,-376.68 856.31,-381.51 857.26,-374.57"/>
</g>
<!-- Node20 -->
<g id="node20" class="node">
<title>Node20</title>
<g id="a_node20"><a xlink:title=" ">
<polygon fill="white" stroke="#bfbfbf" points="864.85,-342 864.85,-372 1066.85,-372 1066.85,-342 864.85,-342"/>
<text text-anchor="start" x="872.85" y="-360" font-family="Helvetica,sans-Serif" font-size="10.00">asm/Z2AudioLib/Z2WolfHowl</text>
<text text-anchor="middle" x="965.85" y="-349" font-family="Helvetica,sans-Serif" font-size="10.00">Mgr/getNowPitch__13Z2WolfHowlMgrFv.s</text>
</a>
</g>
</g>
<!-- Node1&#45;&gt;Node20 -->
<g id="edge35" class="edge">
<title>Node1&#45;&gt;Node20</title>
<path fill="none" stroke="midnightblue" d="M1460.51,-422.22C1370.94,-413.87 1211.51,-397.84 1075.85,-378 1067.2,-376.73 1058.19,-375.3 1049.21,-373.78"/>
<polygon fill="midnightblue" stroke="midnightblue" points="1049.55,-370.29 1039.11,-372.05 1048.37,-377.19 1049.55,-370.29"/>
</g>
<!-- Node21 -->
<g id="node21" class="node">
<title>Node21</title>
<g id="a_node21"><a xlink:title=" ">
<polygon fill="white" stroke="#bfbfbf" points="1084.85,-336.5 1084.85,-377.5 1252.85,-377.5 1252.85,-336.5 1084.85,-336.5"/>
<text text-anchor="start" x="1092.85" y="-365.5" font-family="Helvetica,sans-Serif" font-size="10.00">asm/Z2AudioLib/Z2WolfHowl</text>
<text text-anchor="start" x="1092.85" y="-354.5" font-family="Helvetica,sans-Serif" font-size="10.00">Mgr/getNowInputValue__13Z2Wolf</text>
<text text-anchor="middle" x="1168.85" y="-343.5" font-family="Helvetica,sans-Serif" font-size="10.00">HowlMgrFv.s</text>
</a>
</g>
</g>
<!-- Node1&#45;&gt;Node21 -->
<g id="edge36" class="edge">
<title>Node1&#45;&gt;Node21</title>
<path fill="none" stroke="midnightblue" d="M1460.8,-415.87C1408.79,-406.37 1335.87,-392.8 1262.82,-378.17"/>
<polygon fill="midnightblue" stroke="midnightblue" points="1263.47,-374.73 1252.98,-376.2 1262.1,-381.6 1263.47,-374.73"/>
</g>
<!-- Node22 -->
<g id="node22" class="node">
<title>Node22</title>
<g id="a_node22"><a xlink:title=" ">
<polygon fill="white" stroke="#bfbfbf" points="1270.85,-336.5 1270.85,-377.5 1440.85,-377.5 1440.85,-336.5 1270.85,-336.5"/>
<text text-anchor="start" x="1278.85" y="-365.5" font-family="Helvetica,sans-Serif" font-size="10.00">asm/Z2AudioLib/Z2WolfHowl</text>
<text text-anchor="start" x="1278.85" y="-354.5" font-family="Helvetica,sans-Serif" font-size="10.00">Mgr/calcPitchMod__13Z2WolfHowl</text>
<text text-anchor="middle" x="1355.85" y="-343.5" font-family="Helvetica,sans-Serif" font-size="10.00">MgrFff.s</text>
</a>
</g>
</g>
<!-- Node1&#45;&gt;Node22 -->
<g id="edge37" class="edge">
<title>Node1&#45;&gt;Node22</title>
<path fill="none" stroke="midnightblue" d="M1495.86,-414.4C1472.39,-404.95 1440.93,-392.27 1413.78,-381.34"/>
<polygon fill="midnightblue" stroke="midnightblue" points="1414.95,-378.04 1404.37,-377.55 1412.34,-384.53 1414.95,-378.04"/>
</g>
<!-- Node23 -->
<g id="node23" class="node">
<title>Node23</title>
<g id="a_node23"><a xlink:title=" ">
<polygon fill="white" stroke="#bfbfbf" points="1458.85,-336.5 1458.85,-377.5 1602.85,-377.5 1602.85,-336.5 1458.85,-336.5"/>
<text text-anchor="start" x="1466.85" y="-365.5" font-family="Helvetica,sans-Serif" font-size="10.00">asm/Z2AudioLib/Z2WolfHowl</text>
<text text-anchor="start" x="1466.85" y="-354.5" font-family="Helvetica,sans-Serif" font-size="10.00">Mgr/startWolfHowlSound</text>
<text text-anchor="middle" x="1530.85" y="-343.5" font-family="Helvetica,sans-Serif" font-size="10.00">__13Z2WolfHowlMgrFffbf.s</text>
</a>
</g>
</g>
<!-- Node1&#45;&gt;Node23 -->
<g id="edge38" class="edge">
<title>Node1&#45;&gt;Node23</title>
<path fill="none" stroke="midnightblue" d="M1530.85,-414.23C1530.85,-406.57 1530.85,-396.84 1530.85,-387.63"/>
<polygon fill="midnightblue" stroke="midnightblue" points="1534.35,-387.59 1530.85,-377.59 1527.35,-387.59 1534.35,-387.59"/>
</g>
<!-- Node24 -->
<g id="node24" class="node">
<title>Node24</title>
<g id="a_node24"><a xlink:title=" ">
<polygon fill="white" stroke="#bfbfbf" points="1620.85,-336.5 1620.85,-377.5 1796.85,-377.5 1796.85,-336.5 1620.85,-336.5"/>
<text text-anchor="start" x="1628.85" y="-365.5" font-family="Helvetica,sans-Serif" font-size="10.00">asm/Z2AudioLib/Z2WolfHowl</text>
<text text-anchor="start" x="1628.85" y="-354.5" font-family="Helvetica,sans-Serif" font-size="10.00">Mgr/setCorrectData__13Z2WolfHowl</text>
<text text-anchor="middle" x="1708.85" y="-343.5" font-family="Helvetica,sans-Serif" font-size="10.00">MgrFScP14Z2WolfHowlData.s</text>
</a>
</g>
</g>
<!-- Node1&#45;&gt;Node24 -->
<g id="edge39" class="edge">
<title>Node1&#45;&gt;Node24</title>
<path fill="none" stroke="midnightblue" d="M1566.45,-414.4C1590.31,-404.95 1622.31,-392.27 1649.93,-381.34"/>
<polygon fill="midnightblue" stroke="midnightblue" points="1651.49,-384.48 1659.5,-377.55 1648.91,-377.97 1651.49,-384.48"/>
</g>
<!-- Node25 -->
<g id="node25" class="node">
<title>Node25</title>
<g id="a_node25"><a xlink:title=" ">
<polygon fill="white" stroke="#bfbfbf" points="1814.85,-336.5 1814.85,-377.5 1988.85,-377.5 1988.85,-336.5 1814.85,-336.5"/>
<text text-anchor="start" x="1822.85" y="-365.5" font-family="Helvetica,sans-Serif" font-size="10.00">asm/Z2AudioLib/Z2WolfHowl</text>
<text text-anchor="start" x="1822.85" y="-354.5" font-family="Helvetica,sans-Serif" font-size="10.00">Mgr/getCorrectLine__13Z2WolfHowl</text>
<text text-anchor="middle" x="1901.85" y="-343.5" font-family="Helvetica,sans-Serif" font-size="10.00">MgrFUc.s</text>
</a>
</g>
</g>
<!-- Node1&#45;&gt;Node25 -->
<g id="edge40" class="edge">
<title>Node1&#45;&gt;Node25</title>
<path fill="none" stroke="midnightblue" d="M1601.02,-416.09C1654.25,-406.56 1729.5,-392.87 1804.63,-378.22"/>
<polygon fill="midnightblue" stroke="midnightblue" points="1805.61,-381.59 1814.75,-376.24 1804.26,-374.72 1805.61,-381.59"/>
</g>
<!-- Node26 -->
<g id="node26" class="node">
<title>Node26</title>
<g id="a_node26"><a xlink:title=" ">
<polygon fill="white" stroke="#bfbfbf" points="2006.85,-336.5 2006.85,-377.5 2150.85,-377.5 2150.85,-336.5 2006.85,-336.5"/>
<text text-anchor="start" x="2014.85" y="-365.5" font-family="Helvetica,sans-Serif" font-size="10.00">asm/Z2AudioLib/Z2WolfHowl</text>
<text text-anchor="start" x="2014.85" y="-354.5" font-family="Helvetica,sans-Serif" font-size="10.00">Mgr/getCorrectLineNum_</text>
<text text-anchor="middle" x="2078.85" y="-343.5" font-family="Helvetica,sans-Serif" font-size="10.00">_13Z2WolfHowlMgrFv.s</text>
</a>
</g>
</g>
<!-- Node1&#45;&gt;Node26 -->
<g id="edge41" class="edge">
<title>Node1&#45;&gt;Node26</title>
<path fill="none" stroke="midnightblue" d="M1600.89,-423.88C1690.53,-417.3 1850.72,-403.34 1996.51,-378.12"/>
<polygon fill="midnightblue" stroke="midnightblue" points="1997.28,-381.54 2006.53,-376.37 1996.08,-374.65 1997.28,-381.54"/>
</g>
<!-- Node27 -->
<g id="node27" class="node">
<title>Node27</title>
<g id="a_node27"><a xlink:title=" ">
<polygon fill="white" stroke="#bfbfbf" points="2169.35,-342 2169.35,-372 2360.35,-372 2360.35,-342 2169.35,-342"/>
<text text-anchor="start" x="2177.35" y="-360" font-family="Helvetica,sans-Serif" font-size="10.00">asm/Z2AudioLib/Z2WolfHowl</text>
<text text-anchor="middle" x="2264.85" y="-349" font-family="Helvetica,sans-Serif" font-size="10.00">Mgr/checkLine__13Z2WolfHowlMgrFv.s</text>
</a>
</g>
</g>
<!-- Node1&#45;&gt;Node27 -->
<g id="edge42" class="edge">
<title>Node1&#45;&gt;Node27</title>
<path fill="none" stroke="midnightblue" d="M1600.92,-425.35C1717.37,-419.56 1957.92,-405.26 2159.85,-378 2168.7,-376.81 2177.93,-375.35 2187.08,-373.78"/>
<polygon fill="midnightblue" stroke="midnightblue" points="2187.73,-377.23 2196.97,-372.04 2186.51,-370.33 2187.73,-377.23"/>
</g>
<!-- Node28 -->
<g id="node28" class="node">
<title>Node28</title>
<g id="a_node28"><a xlink:title=" ">
<polygon fill="white" stroke="#bfbfbf" points="2378.85,-336.5 2378.85,-377.5 2554.85,-377.5 2554.85,-336.5 2378.85,-336.5"/>
<text text-anchor="start" x="2386.85" y="-365.5" font-family="Helvetica,sans-Serif" font-size="10.00">asm/Z2AudioLib/Z2WolfHowl</text>
<text text-anchor="start" x="2386.85" y="-354.5" font-family="Helvetica,sans-Serif" font-size="10.00">Mgr/getOnLineNum__13Z2WolfHowl</text>
<text text-anchor="middle" x="2466.85" y="-343.5" font-family="Helvetica,sans-Serif" font-size="10.00">MgrFv.s</text>
</a>
</g>
</g>
<!-- Node1&#45;&gt;Node28 -->
<g id="edge43" class="edge">
<title>Node1&#45;&gt;Node28</title>
<path fill="none" stroke="midnightblue" d="M1601.06,-427.66C1743.88,-425.23 2078.54,-415.77 2368.36,-378.1"/>
<polygon fill="midnightblue" stroke="midnightblue" points="2369.2,-381.52 2378.66,-376.74 2368.28,-374.58 2369.2,-381.52"/>
</g>
<!-- Node29 -->
<g id="node29" class="node">
<title>Node29</title>
<g id="a_node29"><a xlink:title=" ">
<polygon fill="white" stroke="#bfbfbf" points="2572.85,-336.5 2572.85,-377.5 2734.85,-377.5 2734.85,-336.5 2572.85,-336.5"/>
<text text-anchor="start" x="2580.85" y="-365.5" font-family="Helvetica,sans-Serif" font-size="10.00">asm/Z2AudioLib/Z2WolfHowl</text>
<text text-anchor="start" x="2580.85" y="-354.5" font-family="Helvetica,sans-Serif" font-size="10.00">Mgr/startWindStoneSound</text>
<text text-anchor="middle" x="2653.85" y="-343.5" font-family="Helvetica,sans-Serif" font-size="10.00">__13Z2WolfHowlMgrFScP3Vec.s</text>
</a>
</g>
</g>
<!-- Node1&#45;&gt;Node29 -->
<g id="edge44" class="edge">
<title>Node1&#45;&gt;Node29</title>
<path fill="none" stroke="midnightblue" d="M1601.06,-429.16C1766.99,-429.85 2196.32,-426.46 2562.53,-378.06"/>
<polygon fill="midnightblue" stroke="midnightblue" points="2563.08,-381.51 2572.53,-376.72 2562.15,-374.58 2563.08,-381.51"/>
</g>
<!-- Node30 -->
<g id="node30" class="node">
<title>Node30</title>
<g id="a_node30"><a xlink:title=" ">
<polygon fill="white" stroke="#bfbfbf" points="2752.85,-336.5 2752.85,-377.5 2916.85,-377.5 2916.85,-336.5 2752.85,-336.5"/>
<text text-anchor="start" x="2760.85" y="-365.5" font-family="Helvetica,sans-Serif" font-size="10.00">asm/Z2AudioLib/Z2WolfHowl</text>
<text text-anchor="start" x="2760.85" y="-354.5" font-family="Helvetica,sans-Serif" font-size="10.00">Mgr/startGuideMelody__13Z2Wolf</text>
<text text-anchor="middle" x="2834.85" y="-343.5" font-family="Helvetica,sans-Serif" font-size="10.00">HowlMgrFb.s</text>
</a>
</g>
</g>
<!-- Node1&#45;&gt;Node30 -->
<g id="edge45" class="edge">
<title>Node1&#45;&gt;Node30</title>
<path fill="none" stroke="midnightblue" d="M1601.2,-427.19C1822.1,-422.81 2500.99,-407.4 2742.49,-378.02"/>
<polygon fill="midnightblue" stroke="midnightblue" points="2743.14,-381.47 2752.63,-376.75 2742.27,-374.52 2743.14,-381.47"/>
</g>
<!-- Node31 -->
<g id="node31" class="node">
<title>Node31</title>
<g id="a_node31"><a xlink:title=" ">
<polygon fill="white" stroke="#bfbfbf" points="2935.35,-336.5 2935.35,-377.5 3120.35,-377.5 3120.35,-336.5 2935.35,-336.5"/>
<text text-anchor="start" x="2943.35" y="-365.5" font-family="Helvetica,sans-Serif" font-size="10.00">asm/Z2AudioLib/Z2WolfHowl</text>
<text text-anchor="start" x="2943.35" y="-354.5" font-family="Helvetica,sans-Serif" font-size="10.00">Mgr/skipCorrectDemo__13Z2WolfHowl</text>
<text text-anchor="middle" x="3027.85" y="-343.5" font-family="Helvetica,sans-Serif" font-size="10.00">MgrFv.s</text>
</a>
</g>
</g>
<!-- Node1&#45;&gt;Node31 -->
<g id="edge46" class="edge">
<title>Node1&#45;&gt;Node31</title>
<path fill="none" stroke="midnightblue" d="M1601.2,-427.42C1843.76,-423.47 2645.2,-408.47 2924.98,-377.97"/>
<polygon fill="midnightblue" stroke="midnightblue" points="2925.56,-381.42 2935.11,-376.83 2924.78,-374.47 2925.56,-381.42"/>
</g>
<!-- Node32 -->
<g id="node32" class="node">
<title>Node32</title>
<g id="a_node32"><a xlink:title=" ">
<polygon fill="white" stroke="#bfbfbf" points="3137.85,-342 3137.85,-372 3305.85,-372 3305.85,-342 3137.85,-342"/>
<text text-anchor="start" x="3145.85" y="-360" font-family="Helvetica,sans-Serif" font-size="10.00">asm/Z2AudioLib/Z2WolfHowl</text>
<text text-anchor="middle" x="3221.85" y="-349" font-family="Helvetica,sans-Serif" font-size="10.00">Mgr/__sinit_Z2WolfHowlMgr_cpp.s</text>
</a>
</g>
</g>
<!-- Node1&#45;&gt;Node32 -->
<g id="edge47" class="edge">
<title>Node1&#45;&gt;Node32</title>
<path fill="none" stroke="midnightblue" d="M1601.11,-427.99C1869.14,-425.76 2827.5,-415.32 3129.85,-378 3138.13,-376.98 3146.76,-375.57 3155.28,-373.97"/>
<polygon fill="midnightblue" stroke="midnightblue" points="3156.07,-377.38 3165.2,-372.01 3154.71,-370.51 3156.07,-377.38"/>
</g>
<!-- Node3 -->
<g id="node3" class="node">
<title>Node3</title>
<g id="a_node3"><a xlink:href="Z2SoundObject_8h.html" target="_top" xlink:title=" ">
<polygon fill="white" stroke="black" points="272.85,-280.5 272.85,-299.5 416.85,-299.5 416.85,-280.5 272.85,-280.5"/>
<text text-anchor="middle" x="344.85" y="-287.5" font-family="Helvetica,sans-Serif" font-size="10.00">Z2AudioLib/Z2SoundObject.h</text>
</a>
</g>
</g>
<!-- Node2&#45;&gt;Node3 -->
<g id="edge2" class="edge">
<title>Node2&#45;&gt;Node3</title>
<path fill="none" stroke="midnightblue" d="M135.85,-347.37C179.01,-335.73 255.91,-314.99 303.43,-302.17"/>
<polygon fill="midnightblue" stroke="midnightblue" points="304.36,-305.55 313.1,-299.56 302.53,-298.79 304.36,-305.55"/>
</g>
<!-- Node2&#45;&gt;Node7 -->
<g id="edge29" class="edge">
<title>Node2&#45;&gt;Node7</title>
<path fill="none" stroke="midnightblue" d="M95.62,-347.4C78.54,-328.63 40.85,-281.89 40.85,-235 40.85,-235 40.85,-235 40.85,-121 40.85,-64.17 222.27,-30.74 313.18,-17.55"/>
<polygon fill="midnightblue" stroke="midnightblue" points="313.86,-20.99 323.27,-16.12 312.88,-14.06 313.86,-20.99"/>
</g>
<!-- Node4 -->
<g id="node4" class="node">
<title>Node4</title>
<g id="a_node4"><a xlink:href="Z2SoundHandles_8h.html" target="_top" xlink:title=" ">
<polygon fill="white" stroke="black" points="387.85,-168.5 387.85,-187.5 539.85,-187.5 539.85,-168.5 387.85,-168.5"/>
<text text-anchor="middle" x="463.85" y="-175.5" font-family="Helvetica,sans-Serif" font-size="10.00">Z2AudioLib/Z2SoundHandles.h</text>
</a>
</g>
</g>
<!-- Node3&#45;&gt;Node4 -->
<g id="edge3" class="edge">
<title>Node3&#45;&gt;Node4</title>
<path fill="none" stroke="midnightblue" d="M354.19,-280.37C374.26,-261.81 421.76,-217.91 447.15,-194.44"/>
<polygon fill="midnightblue" stroke="midnightblue" points="449.59,-196.95 454.56,-187.59 444.84,-191.81 449.59,-196.95"/>
</g>
<!-- Node3&#45;&gt;Node7 -->
<g id="edge28" class="edge">
<title>Node3&#45;&gt;Node7</title>
<path fill="none" stroke="midnightblue" d="M344.85,-280.44C344.85,-261.94 344.85,-216.81 344.85,-179 344.85,-179 344.85,-179 344.85,-121 344.85,-88.49 353.01,-51.35 358.64,-29.61"/>
<polygon fill="midnightblue" stroke="midnightblue" points="362.07,-30.32 361.29,-19.75 355.31,-28.5 362.07,-30.32"/>
</g>
<!-- Node11 -->
<g id="node11" class="node">
<title>Node11</title>
<g id="a_node11"><a xlink:href="Z2SoundStarter_8h.html" target="_top" xlink:title=" ">
<polygon fill="white" stroke="black" points="573.35,-168.5 573.35,-187.5 718.35,-187.5 718.35,-168.5 573.35,-168.5"/>
<text text-anchor="middle" x="645.85" y="-175.5" font-family="Helvetica,sans-Serif" font-size="10.00">Z2AudioLib/Z2SoundStarter.h</text>
</a>
</g>
</g>
<!-- Node3&#45;&gt;Node11 -->
<g id="edge15" class="edge">
<title>Node3&#45;&gt;Node11</title>
<path fill="none" stroke="midnightblue" d="M368.47,-280.37C421.77,-260.89 551.5,-213.48 612.77,-191.09"/>
<polygon fill="midnightblue" stroke="midnightblue" points="614.15,-194.31 622.34,-187.59 611.75,-187.74 614.15,-194.31"/>
</g>
<!-- Node12 -->
<g id="node12" class="node">
<title>Node12</title>
<g id="a_node12"><a xlink:href="mtxvec_8h.html" target="_top" xlink:title=" ">
<polygon fill="white" stroke="black" points="173.85,-224.5 173.85,-243.5 281.85,-243.5 281.85,-224.5 173.85,-224.5"/>
<text text-anchor="middle" x="227.85" y="-231.5" font-family="Helvetica,sans-Serif" font-size="10.00">dolphin/mtx/mtxvec.h</text>
</a>
</g>
</g>
<!-- Node3&#45;&gt;Node12 -->
<g id="edge18" class="edge">
<title>Node3&#45;&gt;Node12</title>
<path fill="none" stroke="midnightblue" d="M326.31,-280.44C307.23,-271.64 277.28,-257.81 255.42,-247.72"/>
<polygon fill="midnightblue" stroke="midnightblue" points="256.85,-244.53 246.3,-243.52 253.92,-250.88 256.85,-244.53"/>
</g>
<!-- Node5 -->
<g id="node5" class="node">
<title>Node5</title>
<g id="a_node5"><a xlink:href="JAISound_8h.html" target="_top" xlink:title=" ">
<polygon fill="white" stroke="black" points="572.85,-112.5 572.85,-131.5 718.85,-131.5 718.85,-112.5 572.85,-112.5"/>
<text text-anchor="middle" x="645.85" y="-119.5" font-family="Helvetica,sans-Serif" font-size="10.00">JSystem/JAudio2/JAISound.h</text>
</a>
</g>
</g>
<!-- Node4&#45;&gt;Node5 -->
<g id="edge4" class="edge">
<title>Node4&#45;&gt;Node5</title>
<path fill="none" stroke="midnightblue" d="M492.69,-168.44C523.71,-159.24 573.18,-144.56 607.47,-134.39"/>
<polygon fill="midnightblue" stroke="midnightblue" points="608.56,-137.72 617.15,-131.52 606.57,-131.01 608.56,-137.72"/>
</g>
<!-- Node4&#45;&gt;Node7 -->
<g id="edge14" class="edge">
<title>Node4&#45;&gt;Node7</title>
<path fill="none" stroke="midnightblue" d="M483.09,-168.42C506.45,-156.75 540.97,-134.72 525.85,-112 502.9,-77.5 475.13,-97.73 439.85,-76 416.9,-61.87 393.84,-40.97 379.24,-26.71"/>
<polygon fill="midnightblue" stroke="midnightblue" points="381.61,-24.13 372.05,-19.56 376.67,-29.09 381.61,-24.13"/>
</g>
<!-- Node10 -->
<g id="node10" class="node">
<title>Node10</title>
<g id="a_node10"><a xlink:href="JSUList_8h.html" target="_top" xlink:title=" ">
<polygon fill="white" stroke="black" points="373.35,-112.5 373.35,-131.5 516.35,-131.5 516.35,-112.5 373.35,-112.5"/>
<text text-anchor="middle" x="444.85" y="-119.5" font-family="Helvetica,sans-Serif" font-size="10.00">JSystem/JSupport/JSUList.h</text>
</a>
</g>
</g>
<!-- Node4&#45;&gt;Node10 -->
<g id="edge12" class="edge">
<title>Node4&#45;&gt;Node10</title>
<path fill="none" stroke="midnightblue" d="M460.71,-168.08C458.17,-160.85 454.5,-150.41 451.32,-141.4"/>
<polygon fill="midnightblue" stroke="midnightblue" points="454.55,-140.02 447.93,-131.75 447.95,-142.35 454.55,-140.02"/>
</g>
<!-- Node6 -->
<g id="node6" class="node">
<title>Node6</title>
<g id="a_node6"><a xlink:href="JGeometry_8h.html" target="_top" xlink:title=" ">
<polygon fill="white" stroke="black" points="719.35,-56.5 719.35,-75.5 832.35,-75.5 832.35,-56.5 719.35,-56.5"/>
<text text-anchor="middle" x="775.85" y="-63.5" font-family="Helvetica,sans-Serif" font-size="10.00">JSystem/JGeometry.h</text>
</a>
</g>
</g>
<!-- Node5&#45;&gt;Node6 -->
<g id="edge5" class="edge">
<title>Node5&#45;&gt;Node6</title>
<path fill="none" stroke="midnightblue" d="M666.45,-112.44C687.85,-103.56 721.53,-89.56 745.88,-79.45"/>
<polygon fill="midnightblue" stroke="midnightblue" points="747.46,-82.58 755.35,-75.52 744.77,-76.12 747.46,-82.58"/>
</g>
<!-- Node5&#45;&gt;Node7 -->
<g id="edge9" class="edge">
<title>Node5&#45;&gt;Node7</title>
<path fill="none" stroke="midnightblue" d="M654.34,-112.48C666.65,-99.1 686.48,-72.92 671.85,-56 639.21,-18.25 493.33,-11.55 414.61,-10.74"/>
<polygon fill="midnightblue" stroke="midnightblue" points="414.46,-7.24 404.43,-10.67 414.41,-14.24 414.46,-7.24"/>
</g>
<!-- Node8 -->
<g id="node8" class="node">
<title>Node8</title>
<g id="a_node8"><a xlink:href="JUTAssert_8h.html" target="_top" xlink:title=" ">
<polygon fill="white" stroke="black" points="448.85,-56.5 448.85,-75.5 594.85,-75.5 594.85,-56.5 448.85,-56.5"/>
<text text-anchor="middle" x="521.85" y="-63.5" font-family="Helvetica,sans-Serif" font-size="10.00">JSystem/JUtility/JUTAssert.h</text>
</a>
</g>
</g>
<!-- Node5&#45;&gt;Node8 -->
<g id="edge7" class="edge">
<title>Node5&#45;&gt;Node8</title>
<path fill="none" stroke="midnightblue" d="M626.2,-112.44C605.89,-103.6 573.95,-89.69 550.75,-79.59"/>
<polygon fill="midnightblue" stroke="midnightblue" points="551.97,-76.3 541.41,-75.52 549.18,-82.72 551.97,-76.3"/>
</g>
<!-- Node9 -->
<g id="node9" class="node">
<title>Node9</title>
<g id="a_node9"><a xlink:href="global_8h.html" target="_top" xlink:title=" ">
<polygon fill="white" stroke="black" points="612.85,-56.5 612.85,-75.5 662.85,-75.5 662.85,-56.5 612.85,-56.5"/>
<text text-anchor="middle" x="637.85" y="-63.5" font-family="Helvetica,sans-Serif" font-size="10.00">global.h</text>
</a>
</g>
</g>
<!-- Node5&#45;&gt;Node9 -->
<g id="edge10" class="edge">
<title>Node5&#45;&gt;Node9</title>
<path fill="none" stroke="midnightblue" d="M644.53,-112.08C643.47,-104.93 641.95,-94.64 640.62,-85.69"/>
<polygon fill="midnightblue" stroke="midnightblue" points="644.08,-85.13 639.15,-75.75 637.15,-86.16 644.08,-85.13"/>
</g>
<!-- Node6&#45;&gt;Node7 -->
<g id="edge6" class="edge">
<title>Node6&#45;&gt;Node7</title>
<path fill="none" stroke="midnightblue" d="M719,-57.55C638.3,-46.97 491.77,-27.77 414.57,-17.65"/>
<polygon fill="midnightblue" stroke="midnightblue" points="414.97,-14.17 404.6,-16.34 414.06,-21.11 414.97,-14.17"/>
</g>
<!-- Node8&#45;&gt;Node7 -->
<g id="edge8" class="edge">
<title>Node8&#45;&gt;Node7</title>
<path fill="none" stroke="midnightblue" d="M496.82,-56.44C470.24,-47.36 428.04,-32.94 398.33,-22.78"/>
<polygon fill="midnightblue" stroke="midnightblue" points="399.36,-19.44 388.77,-19.52 397.1,-26.06 399.36,-19.44"/>
</g>
<!-- Node9&#45;&gt;Node7 -->
<g id="edge11" class="edge">
<title>Node9&#45;&gt;Node7</title>
<path fill="none" stroke="midnightblue" d="M612.65,-58.11C609.69,-57.37 606.71,-56.65 603.85,-56 538.8,-41.31 463.07,-27.68 414.35,-19.36"/>
<polygon fill="midnightblue" stroke="midnightblue" points="414.82,-15.89 404.38,-17.66 413.65,-22.79 414.82,-15.89"/>
</g>
<!-- Node10&#45;&gt;Node7 -->
<g id="edge13" class="edge">
<title>Node10&#45;&gt;Node7</title>
<path fill="none" stroke="midnightblue" d="M436.97,-112.29C429.05,-103.4 416.66,-89.09 406.85,-76 395.1,-60.31 382.88,-41.57 374.49,-28.25"/>
<polygon fill="midnightblue" stroke="midnightblue" points="377.37,-26.26 369.11,-19.63 371.43,-29.97 377.37,-26.26"/>
</g>
<!-- Node11&#45;&gt;Node5 -->
<g id="edge16" class="edge">
<title>Node11&#45;&gt;Node5</title>
<path fill="none" stroke="midnightblue" d="M645.85,-168.08C645.85,-161.01 645.85,-150.86 645.85,-141.99"/>
<polygon fill="midnightblue" stroke="midnightblue" points="649.35,-141.75 645.85,-131.75 642.35,-141.75 649.35,-141.75"/>
</g>
<!-- Node11&#45;&gt;Node7 -->
<g id="edge17" class="edge">
<title>Node11&#45;&gt;Node7</title>
<path fill="none" stroke="midnightblue" d="M687.29,-168.48C758.86,-152.04 893.27,-112.48 841.85,-56 813.5,-24.85 531.87,-14.84 414.64,-12"/>
<polygon fill="midnightblue" stroke="midnightblue" points="414.57,-8.5 404.49,-11.76 414.4,-15.5 414.57,-8.5"/>
</g>
<!-- Node12&#45;&gt;Node7 -->
<g id="edge27" class="edge">
<title>Node12&#45;&gt;Node7</title>
<path fill="none" stroke="midnightblue" d="M207.26,-224.43C191.2,-216.86 169.27,-204.47 154.85,-188 116.19,-143.84 112.29,-91.73 158.85,-56 182.63,-37.75 260.52,-24.37 313.15,-17.14"/>
<polygon fill="midnightblue" stroke="midnightblue" points="313.87,-20.58 323.31,-15.78 312.94,-13.64 313.87,-20.58"/>
</g>
<!-- Node13 -->
<g id="node13" class="node">
<title>Node13</title>
<g id="a_node13"><a xlink:href="mtx_8h.html" target="_top" xlink:title=" ">
<polygon fill="white" stroke="black" points="163.85,-168.5 163.85,-187.5 255.85,-187.5 255.85,-168.5 163.85,-168.5"/>
<text text-anchor="middle" x="209.85" y="-175.5" font-family="Helvetica,sans-Serif" font-size="10.00">dolphin/mtx/mtx.h</text>
</a>
</g>
</g>
<!-- Node12&#45;&gt;Node13 -->
<g id="edge19" class="edge">
<title>Node12&#45;&gt;Node13</title>
<path fill="none" stroke="midnightblue" d="M224.88,-224.08C222.47,-216.85 218.99,-206.41 215.98,-197.4"/>
<polygon fill="midnightblue" stroke="midnightblue" points="219.25,-196.13 212.77,-187.75 212.61,-198.34 219.25,-196.13"/>
</g>
<!-- Node15 -->
<g id="node15" class="node">
<title>Node15</title>
<g id="a_node15"><a xlink:href="vec_8h.html" target="_top" xlink:title=" ">
<polygon fill="white" stroke="black" points="223.85,-56.5 223.85,-75.5 315.85,-75.5 315.85,-56.5 223.85,-56.5"/>
<text text-anchor="middle" x="269.85" y="-63.5" font-family="Helvetica,sans-Serif" font-size="10.00">dolphin/mtx/vec.h</text>
</a>
</g>
</g>
<!-- Node12&#45;&gt;Node15 -->
<g id="edge26" class="edge">
<title>Node12&#45;&gt;Node15</title>
<path fill="none" stroke="midnightblue" d="M237.76,-224.5C246.65,-216.2 259.13,-202.71 264.85,-188 278.14,-153.83 275.64,-110.07 272.7,-85.63"/>
<polygon fill="midnightblue" stroke="midnightblue" points="276.15,-85.03 271.33,-75.6 269.22,-85.98 276.15,-85.03"/>
</g>
<!-- Node13&#45;&gt;Node7 -->
<g id="edge25" class="edge">
<title>Node13&#45;&gt;Node7</title>
<path fill="none" stroke="midnightblue" d="M185.03,-168.36C159.28,-157.81 124.26,-138.1 135.85,-112 165.53,-45.19 255.26,-22.57 312.9,-14.92"/>
<polygon fill="midnightblue" stroke="midnightblue" points="313.42,-18.38 322.92,-13.69 312.57,-11.43 313.42,-18.38"/>
</g>
<!-- Node14 -->
<g id="node14" class="node">
<title>Node14</title>
<g id="a_node14"><a xlink:href="quat_8h.html" target="_top" xlink:title=" ">
<polygon fill="white" stroke="black" points="145.35,-112.5 145.35,-131.5 240.35,-131.5 240.35,-112.5 145.35,-112.5"/>
<text text-anchor="middle" x="192.85" y="-119.5" font-family="Helvetica,sans-Serif" font-size="10.00">dolphin/mtx/quat.h</text>
</a>
</g>
</g>
<!-- Node13&#45;&gt;Node14 -->
<g id="edge20" class="edge">
<title>Node13&#45;&gt;Node14</title>
<path fill="none" stroke="midnightblue" d="M207.04,-168.08C204.77,-160.85 201.48,-150.41 198.64,-141.4"/>
<polygon fill="midnightblue" stroke="midnightblue" points="201.95,-140.24 195.61,-131.75 195.27,-142.34 201.95,-140.24"/>
</g>
<!-- Node13&#45;&gt;Node15 -->
<g id="edge24" class="edge">
<title>Node13&#45;&gt;Node15</title>
<path fill="none" stroke="midnightblue" d="M219.43,-168.2C228.18,-159.69 240.93,-146.05 248.85,-132 257.04,-117.47 262.57,-99.29 265.89,-85.85"/>
<polygon fill="midnightblue" stroke="midnightblue" points="269.36,-86.4 268.17,-75.87 262.53,-84.84 269.36,-86.4"/>
</g>
<!-- Node14&#45;&gt;Node7 -->
<g id="edge23" class="edge">
<title>Node14&#45;&gt;Node7</title>
<path fill="none" stroke="midnightblue" d="M193.36,-112.08C194.62,-98.15 199.1,-71.24 214.85,-56 241.05,-30.65 281.01,-19.52 312.96,-14.67"/>
<polygon fill="midnightblue" stroke="midnightblue" points="313.58,-18.11 323.02,-13.3 312.64,-11.18 313.58,-18.11"/>
</g>
<!-- Node14&#45;&gt;Node15 -->
<g id="edge21" class="edge">
<title>Node14&#45;&gt;Node15</title>
<path fill="none" stroke="midnightblue" d="M205.22,-112.32C217.01,-104.06 234.98,-91.45 248.99,-81.63"/>
<polygon fill="midnightblue" stroke="midnightblue" points="251.33,-84.26 257.51,-75.65 247.31,-78.53 251.33,-84.26"/>
</g>
<!-- Node15&#45;&gt;Node7 -->
<g id="edge22" class="edge">
<title>Node15&#45;&gt;Node7</title>
<path fill="none" stroke="midnightblue" d="M284.95,-56.32C299.76,-47.82 322.55,-34.73 339.83,-24.8"/>
<polygon fill="midnightblue" stroke="midnightblue" points="341.86,-27.67 348.79,-19.65 338.37,-21.6 341.86,-27.67"/>
</g>
</g>
</svg>
